<svg xmlns="http://www.w3.org/2000/svg" width="64" height="64" viewBox="0 0 64 64" style="background:#fff">
  <g id="Aal" fill="none" fill-rule="evenodd" stroke="none" stroke-width="1">
    <rect width="64" height="64" fill="#FFF"/>
    <g transform="translate(2 9)">
      <rect id="Rectangle" width="60" height="60" x="0" y="0"/>
      <path id="Shape" fill="#E0A075" fill-rule="nonzero" d="M57.23,15.42 C54.62,12.71 50.82,12.64 47.23,12.26 C43.4985996,11.8654858 39.7378342,11.8319973 36,12.16 C30,12.7 22.12,13.56 17.44,17.88 C13.8,21.25 12.44,27.49 16.21,31.33 C16.7384051,31.8584957 17.3414948,32.3066014 18,32.66 C13.11,32.21 7.41,32.66 4.2,36.07 C0.31,40.18 2.09,45.92 7.23,47.69 C13.62,49.9 21.86,49.16 28.44,48.37 C35.6928776,47.6652046 42.6830717,45.2860739 48.86,41.42 C49.16,41.22 49.09,40.61 48.65,40.66 C37,42.05 25.58,44 13.82,42.71 C13.92,42.71 9.68,42.38 9.39,41.93 L9.93,39.67 C10.9432488,39.3480151 11.9900937,39.1433435 13.05,39.06 C15.8891912,38.7764122 18.7558609,38.9724816 21.53,39.64 C25.76,40.64 30.78,43.1 34.47,39.36 C37.28,36.52 36.47,32.07 33.6,29.61 C31.7910579,28.2089844 29.5776832,27.4302694 27.29,27.39 C25,27.21 19.01,27.84 21.45,23.82 C23.89,19.8 33.71,19.57 37.62,19.42 C41.0251447,19.2699244 44.4368566,19.4406774 47.81,19.93 C50.72,20.37 53.03,21.38 55.9,20.45 C56.9373021,20.1708769 57.746201,19.3584421 58.020797,18.3199324 C58.295393,17.2814228 57.993773,16.1753516 57.23,15.42 Z M26.8,34.54 L25.15,34.07 C25.87,34.07 26.58,34.07 27.29,34.07 C29.69,35.21 29.52,35.36 26.8,34.54 Z" opacity=".5"/>
      <path id="Path" fill="#3D454C" fill-rule="nonzero" d="M7.91,44.84 C6.77771114,44.4862551 5.78459156,43.7868751 5.07,42.84 C4.36655815,41.8804946 3.99131905,40.7197082 4,39.53 C4.005296,36.4975188 6.447692,34.0328382 9.48,34 L31.63,34 C32.2609411,34.0025127 32.8779123,33.8142842 33.4,33.46 C33.9094787,33.1173963 34.3088871,32.634633 34.55,32.07 C34.7122726,31.6765814 34.7971557,31.2555614 34.8,30.83 C34.8112355,30.1776744 34.618998,29.5380478 34.25,29 C33.6586519,28.1285632 32.6731331,27.6076997 31.62,27.61 L18.34,27.61 C17.0030848,27.6105604 15.6967577,27.2099534 14.59,26.46 C13.5022932,25.7184942 12.6543638,24.6759581 12.15,23.46 C11.8025742,22.6339252 11.6256995,21.7461506 11.63,20.85 C11.6248729,20.0327353 11.7741562,19.2218558 12.07,18.46 C12.9342144,16.1862908 14.9628388,14.5595637 17.37,14.21 C17.5830593,14.1762634 17.7794977,14.0745363 17.93,13.92 L20.67,11.26 C21.2701157,10.6772169 22.0734749,10.3508523 22.91,10.35 L30.91,10.35 C31.6051129,10.3521146 32.2813517,10.5763596 32.84,10.99 L33.84,12.19 L27.19,12.19 C26.6377153,12.19 26.19,12.6377153 26.19,13.19 C26.19,13.7422847 26.6377153,14.19 27.19,14.19 L40.54,14.19 C40.8037693,14.186243 41.0553695,14.0784143 41.24,13.89 C41.5206388,13.6037805 41.8625524,13.3849558 42.24,13.25 C42.7114915,13.0808917 43.2091129,12.9962622 43.71,13 C44.0254509,13.0006916 44.3401488,13.0308223 44.65,13.09 L52.29,14.5 C52.594194,14.5631788 52.8873677,14.6710128 53.16,14.82 C53.4202154,14.9701371 53.6534427,15.1628031 53.85,15.39 C54.0397802,15.5952231 54.1920884,15.8321471 54.3,16.09 C54.3965302,16.3249056 54.4474372,16.5760469 54.45,16.83 C54.448641,17.0981042 54.3835145,17.3620381 54.26,17.6 C54.1291344,17.8311625 53.9437564,18.0268393 53.72,18.17 C53.355729,18.3991547 52.9298489,18.5108609 52.5,18.49 L44.86,18.22 C44.3588174,18.2160924 43.8606494,18.1420404 43.38,18 C42.928335,17.8482681 42.5006768,17.6327553 42.11,17.36 L41.91,17.21 C41.6418763,17.0025934 41.4059791,16.7565863 41.21,16.4799946 C41.0385381,16.239248 40.9068608,15.9725172 40.82,15.69 C40.6976987,15.270354 40.3170166,14.9787677 39.88,14.97 C39.7938849,14.9561727 39.7061151,14.9561727 39.62,14.97 C39.1143996,15.1245443 38.8164564,15.6459448 38.94,16.16 C39.0786124,16.6626806 39.3054744,17.1367207 39.61,17.56 C39.9139382,17.98944 40.277604,18.3733094 40.69,18.7 L40.99,18.92 C41.5359736,19.2971423 42.1316587,19.5966676 42.76,19.81 C43.4065222,20.0245536 44.07951,20.1490564 44.76,20.18 L52.56,20.45 C53.3434478,20.4577085 54.1119099,20.2351674 54.77,19.81 C55.2754909,19.4994829 55.6976758,19.0704332 56,18.56 C56.283234,18.0382058 56.4310775,17.4537083 56.4300058,16.86 C56.4278945,16.35178 56.3259643,15.8489243 56.13,15.38 C55.9380414,14.9192625 55.6710956,14.4935008 55.34,14.12 C55.0040727,13.7243067 54.6054331,13.3864765 54.16,13.12 C53.6974006,12.8550279 53.1938127,12.6691398 52.67,12.57 L45,11.2 C44.5746342,11.120208 44.142785,11.0800359 43.71,11.08 C42.9768692,11.0724766 42.24844,11.1978341 41.56,11.45 C41.0496739,11.64084 40.5760707,11.9182362 40.16,12.27 L36.41,12.27 L34.28,9.75 L34.14,9.62 C33.2233654,8.88542519 32.0846517,8.48352623 30.91,8.47999461 L22.91,8.47999461 C21.56542,8.47805581 20.2733977,9.00204266 19.31,9.94 L16.76,12.41 C13.7923684,12.9674775 11.3251862,15.0222013 10.24,17.84 C9.86637361,18.8275225 9.67330353,19.8741656 9.67,20.93 C9.67325646,24.4179988 11.7593869,27.566875 14.97,28.93 C16.0343115,29.3880892 17.1812955,29.6229316 18.34,29.62 L31.62,29.62 C32.1137272,29.6183148 32.5597954,29.9143778 32.75,30.37 C32.8136603,30.5186476 32.8476314,30.6783116 32.85,30.84 C32.8529795,31.0830713 32.7795212,31.3209363 32.64,31.52 C32.5071736,31.7189465 32.3196374,31.8752266 32.1,31.97 C31.9472589,32.0305276 31.7842933,32.0610837 31.62,32.06 L9.48,32.06 C6.4712212,32.0619933 3.75650475,33.8665508 2.59,36.64 C1.57171914,39.0845067 1.92566419,41.8856202 3.52,44 C4.48414835,45.2750312 5.82904349,46.2101536 7.36,46.67 C7.45304348,46.6804026 7.54695652,46.6804026 7.64,46.67 C8.06785249,46.6597158 8.44173076,46.378302 8.57,45.97 C8.66120525,45.4816874 8.38013027,45.0004529 7.91,44.84 Z"/>
      <path id="Path" fill="#3D454C" fill-rule="nonzero" d="M57.41,41.67 C57.0406381,41.1201225 56.5195357,40.6893446 55.91,40.43 C55.4863837,40.2496768 55.0303937,40.1577982 54.57,40.16 L9.48,40.16 C9.35450437,40.1621699 9.23169117,40.1235715 9.13,40.05 C9.02756747,39.9812043 8.94759221,39.8838431 8.9,39.77 C8.86802383,39.6939693 8.85104574,39.6124745 8.85,39.53 C8.86137195,39.4003163 8.91393384,39.2776719 9,39.18 C9.06820586,39.0746458 9.16545377,38.9912904 9.28,38.94 C9.35938576,38.9259801 9.44061424,38.9259801 9.52,38.94 L31.63,38.94 C33.237853,38.9436666 34.8095024,38.4627628 36.14,37.56 C38.5975755,35.9035729 39.9494749,33.0333466 39.6613986,30.0836957 C39.3733223,27.1340448 37.4916274,24.579626 34.76,23.43 C33.7664958,23.0105032 32.6984312,22.79621 31.62,22.8 L18.34,22.8 C17.6113188,22.7976769 16.9542635,22.3609515 16.67,21.69 C16.4854925,21.2419219 16.4872925,20.7387638 16.6750011,20.2920173 C16.8627098,19.8452707 17.220827,19.4918258 17.67,19.31 C17.8906098,19.213726 18.1293317,19.1659816 18.37,19.17 L37.5,19.17 C37.90092,19.2613706 38.316904,19.0980052 38.5485045,18.7582308 C38.780105,18.4184564 38.780105,17.9715436 38.5485045,17.6317692 C38.316904,17.2919948 37.90092,17.1286294 37.5,17.22 L18.34,17.22 C17.3419714,17.217335 16.3840515,17.6126209 15.6783362,18.3183362 C14.9726209,19.0240515 14.577335,19.9819714 14.58,20.98 C14.5912588,21.7014228 14.8137679,22.4037173 15.22,23 C15.6301457,23.6004083 16.2023312,24.0720279 16.87,24.36 C17.3345401,24.5587977 17.8347107,24.6608734 18.34,24.66 L31.62,24.66 C32.8342016,24.6449191 34.02519,24.9931614 35.04,25.66 C36.0258093,26.3286989 36.7996175,27.2655968 37.27,28.36 C38.073686,30.2652295 37.8592043,32.4476752 36.7,34.16 C36.0476739,35.1771707 35.1079422,35.9776829 34,36.46 C33.2476668,36.7805179 32.4377543,36.9438616 31.62,36.94 L9.48,36.94 C8.44484622,36.9523551 7.51323003,37.570823 7.1,38.52 C6.9697031,38.8373875 6.90179804,39.1769128 6.9,39.52 C6.88819655,40.0472196 7.04208898,40.5648577 7.34,41 C7.62400935,41.4143334 8.01914108,41.7401438 8.48,41.94 C8.79701588,42.0715224 9.13678443,42.1394761 9.48,42.14 L54.57,42.14 C55.1642512,42.1352587 55.7020797,42.4911747 55.93,43.04 C56.0100382,43.2228403 56.0509149,43.4204108 56.05,43.62 C56.0493525,44.2126397 55.6952357,44.7477495 55.15,44.98 C54.9650356,45.0518805 54.7684387,45.0891661 54.57,45.09 L47.48,45.09 C47.1544708,45.096059 46.8522715,45.2602167 46.67,45.53 L45.05,47.94 C44.7700949,48.3694316 44.2925984,48.6288589 43.78,48.63 L17.07,48.63 C16.6020445,48.6316948 16.1593924,48.4177462 15.87,48.05 L15.61,47.73 L15.55,47.61 C15.5450835,47.5701511 15.5450835,47.5298489 15.55,47.49 C15.5493985,47.4017473 15.5736574,47.3151084 15.62,47.24 C15.6657529,47.16873 15.7319834,47.1129569 15.81,47.08 C15.8667917,47.039887 15.93162,47.0125909 16,47 L43,47 C43.3236823,46.9962152 43.6255106,46.8359854 43.81,46.57 L44.69,45.25 C44.8287277,45.033693 44.8788611,44.7722829 44.83,44.52 C44.7293583,44.0508621 44.3096928,43.7193264 43.83,43.73 C43.5044708,43.736059 43.2022715,43.9002167 43.02,44.17 L42.43,45.05 L16,45.05 C15.6552022,45.0448118 15.3135841,45.1165516 15,45.26 C14.7108451,45.3787587 14.4513736,45.5597059 14.24,45.79 C13.8154741,46.2383557 13.5792281,46.83255 13.58,47.45 C13.5780767,47.6837453 13.6117974,47.9164179 13.68,48.14 C13.7496781,48.3760881 13.8577939,48.599077 14,48.8 L14,48.8 L14.1,48.94 L14.34,49.23 C14.9983005,50.0600547 16.0005933,50.5427766 17.06,50.5400171 L43.78,50.5400171 C44.9433037,50.5436456 46.0314941,49.9657789 46.68,49 L48,47 L54.57,47 C55.2534044,47.0016769 55.9218211,46.7997593 56.49,46.42 C57.03792,46.0441746 57.4679154,45.5205511 57.73,44.91 C58.18086,43.8424196 58.0604147,42.6191472 57.41,41.66 L57.41,41.67 Z"/>
      <circle id="Oval" cx="48.46" cy="15.31" r="1" fill="#3D454C" fill-rule="nonzero"/>
      <circle id="Oval" cx="10.03" cy="47.67" r="1" fill="#3D454C" fill-rule="nonzero"/>
    </g>
  </g>
</svg>
