<svg xmlns="http://www.w3.org/2000/svg" width="64" height="64" viewBox="0 0 64 64" style="background:#fff">
  <g id="Ackerbohnen" fill="none" fill-rule="evenodd" stroke="none" stroke-width="1">
    <rect width="64" height="64" fill="#FFF"/>
    <g transform="translate(2 4)">
      <rect id="Rectangle" width="60" height="60" x="0" y="0"/>
      <path id="Path" fill="#31E085" fill-rule="nonzero" d="M45.79,4.71 C39.5827384,12.2852559 31.1238359,17.6863439 21.64,20.13 C19.39,20.69 -1,24.07 4.29,29.88 C6.8,32.62 12.6,31.6 16,31.56 C20.9452136,31.5501728 25.8617687,30.8088142 30.59,29.36 C33.4921099,28.4423541 36.3065931,27.2677006 39,25.85 C37.3018707,28.7320337 35.2194302,31.3695674 32.81,33.69 C26.12,40.12 18.23,42.43 9.81,45.69 C3.52,48.15 4.66,56.5 11.38,57.25 C22.91,58.52 35.53,51.25 43.03,42.85 C51.2855422,33.5008324 55.9931108,21.5478554 56.33,9.08 C56.51,4 49.26,0.57 45.79,4.71 Z" opacity=".5"/>
      <path id="Shape" fill="#3D454C" fill-rule="nonzero" d="M46.5 19.46C45.3807853 19.4647664 44.3111856 19.9224818 43.5349894 20.7288216 42.7587932 21.5351614 42.3421417 22.6214156 42.38 23.74 42.3448535 24.8559574 42.7630334 25.9385994 43.5392278 26.7411693 44.3154222 27.5437393 45.3834913 27.9978499 46.5 28 48.7861381 27.8895276 50.5829372 26.0038057 50.5829372 23.715 50.5829372 21.4261943 48.7861381 19.5404724 46.5 19.43L46.5 19.46zM46.5 26.03C43.68 26.03 43.72 21.59 46.5 21.46 49.39 21.59 49.43 26 46.5 26L46.5 26.03zM22.39 41.28C20.1444336 41.3237899 18.3565438 43.1742559 18.39 45.42 18.3679834 46.4874632 18.7823369 47.5177211 19.5373079 48.2726921 20.2922789 49.0276631 21.3225368 49.4420166 22.39 49.42 24.5165123 49.2704717 26.1652194 47.501763 26.1652194 45.37 26.1652194 43.238237 24.5165123 41.4695283 22.39 41.32L22.39 41.28zM22.39 47.38C19.71 47.38 19.82 43.38 22.39 43.28 24.83 43.39 24.85 47.36 22.39 47.38zM30.58 33.68C24 34 23.84 44.8200069 30.58 44.8200069 37.67 44.83 37.5 34 30.58 33.68zM30.58 42.8200431C26.44 42.8200431 26.58 35.82 30.58 35.68 34.94 35.89 35.09 42.84 30.58 42.8200431zM39.3 26.05C32.66 26.36 32.59 36.82 39.3 36.8500642 46.01 36.88 45.85 26.39 39.3 26.05zM39.3 34.8500114C35.18 34.8500114 35.23 28.24 39.3 28.05 43.29 28.26 43.51 34.86 39.3 34.8500114z"/>
      <path id="Shape" fill="#3D454C" fill-rule="nonzero" d="M52.63,4.79 C44.49,9.14 36.58,13.88 28.48,18.3 C20.69,22.56 12.48,25.38 4.48,29.14 C4.0074926,29.4180112 3.84691788,30.0246268 4.12,30.5 C6.9,34.9 12.06,35.88 16.93,36 C18.21,36 18.21,34 16.93,34 C13.21,33.89 9.03,33.31 6.53,30.36 C14.22,26.86 22,24.12 29.49,20 C36.98,15.88 44.22,11.65 51.66,7.6 C51.315798,9.19525803 50.5920094,10.6839986 49.55,11.94 C49.5192992,11.9752214 49.4955472,12.015939 49.48,12.06 C37.27,22.92 25.75,34.7 12.33,44.06 C11,45 5.6,47.17 6.56,49.88 C7.73,53.2 16.1,52.16 18.44,52.12 C23.74,52.03 28.72,51.02 32.91,47.62 C35.29,45.69 37.46,43.45 39.7,41.37 C45.81,35.67 53.16,31 53.59,21.91 L53.59,10.65 C53.589017,10.2668596 53.3555928,9.92265786 53,9.78 C53.4546163,8.52003772 53.822148,7.23033553 54.1,5.92 C54.2091232,5.52735611 54.0690635,5.10777192 53.7459673,4.85940543 C53.422871,4.61103894 52.9813807,4.5835813 52.63,4.79 Z M39.33,39 C33.84,44.12 29.23,49.33 21.22,50 C18.484044,50.2105287 15.735956,50.2105287 13,50 C12,49.93 9.42,50.14 8.9,49.3 C8.38,48.46 9.12,48.9 9.79,48.16 C11.71,46.06 15.18,44.5 17.49,42.75 C19.64,41.14 21.74,39.46 23.8,37.75 C33.38,29.82 42.26,21.1 51.58,12.87 L51.58,21.87 C51.22,29.78 44.63,34 39.33,39 Z"/>
      <circle id="Oval" cx="20.78" cy="34.72" r="1" fill="#3D454C" fill-rule="nonzero"/>
    </g>
  </g>
</svg>
