<svg xmlns="http://www.w3.org/2000/svg" width="64" height="64" viewBox="0 0 64 64" style="background:#fff">
  <g id="Ahornsirup" fill="none" fill-rule="evenodd" stroke="none" stroke-width="1">
    <rect width="64" height="64" fill="#FFF"/>
    <g transform="translate(2 4)">
      <rect id="Rectangle" width="60" height="60" x=".22" y="0"/>
      <path id="Path" fill="#E0673A" fill-rule="nonzero" d="M20.43,27.69 C29.06,24.81 42.92,24.41 48.9,31.81 C53.08,37 51.24,42.57 47,46.56 C45.0305127,50.126632 41.8320145,52.8560171 38,54.24 C29,57.58 14.82,57.79 9.17,49.54 C3.24,40.88 10.85,30.88 20.43,27.69 Z" opacity=".5"/>
      <path id="Shape" fill="#3D454C" fill-rule="nonzero" d="M23.36,26.22 C25.569193,25.07419 28.2321816,25.2514656 30.27,26.68 C33.35,28.68 32.9,31.37 33,34.51 C33,35.79 35,35.8 35,34.51 C34.88,30.56 35.52,26.81 31.39,24.94 C29,23.86 27,22.65 24.48,23.42 C22.14,24.13 18.81,25.12 17.71,27.58 C16.61,30.04 17.27,34.43 17.27,37.09 L17.27,50.91 C17.27,51.4622847 17.7177153,51.91 18.27,51.91 L28.66,51.85 C29.2122847,51.85 29.66,51.4022847 29.66,50.85 C29.66,50.2977153 29.2122847,49.85 28.66,49.85 L22.98,49.85 C22.03,49.85 20.46,49.56 19.57,49.85 L19.29,49.94 C19.37,45.8 19.29,41.65 19.29,37.51 C19.27,32.68 18.16,28.61 23.36,26.22 Z"/>
      <path id="Shape" fill="#3D454C" fill-rule="nonzero" d="M34.51,54.63 L18.51,54.63 C16.51,54.63 15.19,55.16 14.58,53.28 C13.86,51.06 14.58,47.37 14.58,45.03 C14.58,39.78 13.33,32.46 14.95,27.32 C16.35,22.88 19.44,23.55 22.41,21.41 C24.41,19.99 24.22,17.41 24.15,15.21 L28,15.21 C27.92,17.01 27.77,19.07 28.82,20.49 C29.69,21.68 30.82,21.9 32.14,22.27 C34.2473142,22.8989543 35.9545235,24.4516317 36.78,26.49 C37.33,27.65 39.06,26.64 38.5,25.49 C37.3415837,22.9041935 35.0719818,20.9840441 32.33,20.27 C31.15,19.9 30.27,19.54 30.03,18.13 C30.0149999,17.8368584 30.0149999,17.5431416 30.03,17.25 C29.9959816,16.5837673 29.9959816,15.9162327 30.03,15.25 L30.61,15.25 C31.1622847,15.25 31.61,14.8022847 31.61,14.25 L31.61,12.65 L32,12.65 C32.5522847,12.65 33,12.2022847 33,11.65 C33,11.0977153 32.5522847,10.65 32,10.65 L29.78,10.65 L29.78,9.65 L31.48,9.65 C31.7452165,9.65 31.9995704,9.54464316 32.1871068,9.35710678 C32.3746432,9.1695704 32.48,8.91521649 32.48,8.65 C32.48,7.13 33.03,4.34 31.73,3.2 C30.43,2.06 27.64,2.63 26.13,2.63 C24.62,2.63 21.91,2.11 20.62,3.12 C19.33,4.13 19.78,7.12 19.78,8.65 C19.775861,8.8860638 19.8616615,9.11486525 20.02,9.29 L20.07,9.36 L20.14,9.36 C20.3099969,9.52761338 20.5414018,9.61800591 20.78,9.61 L22.43,9.61 L22.43,10.61 L20.14,10.61 C19.5877153,10.61 19.14,11.0577153 19.14,11.61 C19.14,12.1622847 19.5877153,12.61 20.14,12.61 L20.52,12.61 L20.52,14.17 C20.5223447,14.4049008 20.6073113,14.6314782 20.76,14.81 L20.82,14.87 L20.88,14.92 C21.0512687,15.0856421 21.2818029,15.1756946 21.52,15.17 L22.12,15.17 C22.18,17.11 22.25,18.86 20.19,20.17 C19.28,20.73 18.03,20.86 17.07,21.44 C14.3105174,23.2254313 12.6170305,26.2639665 12.55,29.55 C12.12,35.73 12.55,42.08 12.55,48.26 C12.55,52.37 11.5,56.26 16.55,56.62 C22.49,57.04 28.55,56.62 34.55,56.62 C35.0608035,56.5593887 35.4423032,56.1211531 35.4319659,55.60687 C35.4216285,55.0925869 35.0228266,54.6700359 34.51,54.63 L34.51,54.63 Z M29.62,13.21 L22.52,13.21 L22.52,12.65 L29.62,12.65 L29.62,13.21 Z M24.43,10.65 L24.43,9.65 L27.78,9.65 L27.78,10.65 L24.43,10.65 Z M21.74,7.65 C21.64,6.53 21.52,5.04 22.03,4.65 C22.5040914,4.57992679 22.9859086,4.57992679 23.46,4.65 L28.85,4.65 C29.14,4.65 30.06,4.49 30.28,4.65 C30.77,5.01 30.67,6.55 30.57,7.65 L21.74,7.65 Z"/>
      <circle id="Oval" cx="38.91" cy="29.41" r="1" fill="#3D454C" fill-rule="nonzero"/>
      <path id="Shape" fill="#3D454C" fill-rule="nonzero" d="M50.27,44.58 C50.0993504,44.2677946 49.7756654,44.0697756 49.42,44.06 L43.68,44.06 L45.11,41.77 C45.2886328,41.4605989 45.2886328,41.0794011 45.11,40.77 L40.11,32.77 C39.9362819,32.4927839 39.6321494,32.3244552 39.305,32.3244552 C38.9778506,32.3244552 38.6737181,32.4927839 38.5,32.77 L33.5,40.77 C33.3213672,41.0794011 33.3213672,41.4605989 33.5,41.77 L35,44.06 L29.23,44.06 C28.8701665,44.06 28.5412166,44.2633023 28.3802942,44.5851471 C28.2193718,44.9069919 28.2540999,45.2921332 28.47,45.58 L33.05,51.75 C33.2364552,51.9860233 33.5192459,52.1255823 33.82,52.13 L38.37,52.13 L38.37,55.78 C38.4999224,56.1983192 38.8869695,56.4833942 39.325,56.4833942 C39.7630305,56.4833942 40.1500776,56.1983192 40.2799945,55.78 L40.2799945,52.13 L44.83,52.13 C45.1307541,52.1255823 45.4135448,51.9860233 45.6,51.75 L50.18,45.58 C50.3872932,45.2869751 50.4216414,44.905329 50.27,44.58 Z M44.35,50.23 L34.3,50.23 L31.12,46 L36.69,46 C37.0323205,45.9895718 37.3454943,45.804686 37.52,45.51 C37.7120134,45.2043185 37.7120134,44.8156815 37.52,44.51 L35.52,41.27 L39.38,35.1 L43.23,41.27 L41.23,44.51 C41.0379866,44.8156815 41.0379866,45.2043185 41.23,45.51 C41.3928176,45.7877674 41.6794174,45.9701491 42,46 L47.57,46 L44.35,50.23 Z"/>
    </g>
  </g>
</svg>
