<svg xmlns="http://www.w3.org/2000/svg" width="64" height="64" viewBox="0 0 64 64" style="background:#fff">
  <g id="Algen" fill="none" fill-rule="evenodd" stroke="none" stroke-width="1">
    <rect width="64" height="64" fill="#FFF"/>
    <g transform="translate(2 4)">
      <path id="Path" fill="#31E085" fill-rule="nonzero" d="M28.82 23.38C30.57 20.5 26.28 17 24 19.69 22.4973383 21.3995134 21.8016673 23.6722815 22.09 25.93 22.21 27.4 23.03 29.24 22.81 30.7 22.54 32.44 20.81 33.82 20.3 35.48 19.24 38.7 21.24 41.48 21.77 44.58 22.44 48.52 20.86 52.45 21.25 56.4 21.2543993 56.6769151 21.4034856 56.9313054 21.6429316 57.0704706 21.8823776 57.2096358 22.1772133 57.2132514 22.42 57.08 28.23 54.34 28.03 46.42 26.65 41.14 25.59 37.06 28.01 35.85 28.74 32.24 29.33 29.51 27.38 25.76 28.82 23.38zM38.38 6.38C34.64 6.43 33 9.57 32.49 13 31.69 18.67 35.71 23.84 32.99 29.27 30.99 33.27 30.26 36.57 31.42 41.04 32.87 46.65 36.3 52.39 33.23 58.13 33.1893673 58.2074994 33.2038338 58.302415 33.2657094 58.3642906 33.327585 58.4261662 33.4225006 58.4406327 33.5 58.4 41.28 54.11 35.79 44.54 35.63 38.02 35.51 33.02 39.85 29.64 39.69 24.52 39.61 21.94 38.69 19.52 38.34 16.98 37.99 13.98 39.16 12.36 40.34 9.79 40.7282406 9.08594855 40.720658 8.23027095 40.3200014 7.53321033 39.9193449 6.8361497 39.1837798 6.39890194 38.38 6.38zM15.77 10.84C12.4024804 10.9875339 9.4350498 13.0976198 8.19 16.23 6.19 21.79 13.6 24.23 11.01 29.77 9.32 33.35 6.1 35.7 7.76 40 8.47339101 41.472033 9.41501371 42.8220297 10.55 44 13.55 47.7 11.45 51.63 10.17 55.63 9.85 56.63 11.11 57.16 11.8 56.58 14.4958495 54.4492818 15.9877092 51.1410829 15.8 47.71 15.25 42 8.14 40.74 11.9 34 13.71 30.79 16.69 28.26 15.47 24.22 14.91 22.37 12.56 20.22 13 18.22 13.44 16.22 16.17 15.05 17.19 13.22 17.4325569 12.7175673 17.4064973 12.1268916 17.1206359 11.6477718 16.8347745 11.1686521 16.3273496 10.8651776 15.77 10.84zM48.19 38.28C46.26 33.05 53.39 23.99 46.38 20.63 45.5126399 20.1613948 44.450878 20.2462796 43.6689864 20.8467377 42.8870949 21.4471959 42.5310925 22.4510914 42.76 23.41 43.2291263 25.4691884 43.3340441 27.59462 43.07 29.69 42.76 31.58 42.07 33.35 42.07 35.3 42.0857209 36.8282447 42.4956061 38.3265647 43.26 39.65 43.93 40.71 45.4 41.28 45.99 42.24 49.38 47.77 42.99 49.66 44.52 54.44 44.852352 56.0330166 46.3178861 57.1300246 47.94 57 48.0204701 57.0050752 48.09538 56.9588077 48.1268701 56.8845812 48.1583601 56.8103548 48.1395715 56.7243363 48.08 56.67 44.96 52.67 50.42 49.22 50.91 45.25 51.28 42.2 49.15 40.9 48.19 38.28z" opacity=".5"/>
      <path id="Shape" fill="#3D454C" fill-rule="nonzero" d="M18.32,12 C18.4855557,10.8381425 17.9584183,9.68643398 16.9708622,9.05235623 C15.9833061,8.41827848 14.7166939,8.41827848 13.7291378,9.05235623 C12.7415817,9.68643398 12.2144443,10.8381425 12.38,12 C12.3844055,13.0388233 11.94835,14.0308495 11.18,14.73 C7.83288778,18.3901647 7.83288778,23.9998353 11.18,27.66 C11.9434033,28.3625017 12.3777898,29.3525545 12.3777898,30.39 C12.3777898,31.4274455 11.9434033,32.4174983 11.18,33.12 C7.83288778,36.7801647 7.83288778,42.3898353 11.18,46.05 C11.9434033,46.7525017 12.3777898,47.7425545 12.3777898,48.78 C12.3777898,49.8174455 11.9434033,50.8074983 11.18,51.51 C9.54217589,53.2715035 8.64361788,55.5948666 8.67,58 C8.67,58.5025791 9.07742088,58.91 9.58,58.91 L13.7,58.91 C14.2025791,58.91 14.61,58.5025791 14.61,58 C14.6055945,56.9611767 15.04165,55.9691505 15.81,55.27 C19.1571122,51.6098353 19.1571122,46.0001647 15.81,42.34 C15.0465967,41.6374983 14.6122102,40.6474455 14.6122102,39.61 C14.6122102,38.5725545 15.0465967,37.5825017 15.81,36.88 C19.1571122,33.2198353 19.1571122,27.6101647 15.81,23.95 C15.0465967,23.2474983 14.6122102,22.2574455 14.6122102,21.22 C14.6122102,20.1825545 15.0465967,19.1925017 15.81,18.49 C17.4460598,16.7273932 18.3443346,14.4047624 18.32,12 L18.32,12 Z M14.39,25.09 C17.1880314,28.0809594 17.1880314,32.7290406 14.39,35.72 C12.2542045,37.8657882 12.2542045,41.3342118 14.39,43.48 C17.1942735,46.4723469 17.1942735,51.1276531 14.39,54.12 C13.5950156,54.9470254 13.0626481,55.9908831 12.86,57.12 L10.54,57.12 C10.7420729,55.4688679 11.4634276,53.9246086 12.6,52.71 C14.7346403,50.5676366 14.7346403,47.1023634 12.6,44.96 C9.78580526,41.9715823 9.78580526,37.3084177 12.6,34.32 C14.7346403,32.1776366 14.7346403,28.7123634 12.6,26.57 C9.78580526,23.5815823 9.78580526,18.9184177 12.6,15.93 C13.6482307,14.8938602 14.2264291,13.4736604 14.2,12 C14.159339,11.5653826 14.3682497,11.1452125 14.7393148,10.9153074 C15.1103798,10.6854023 15.5796202,10.6854023 15.9506852,10.9153074 C16.3217503,11.1452125 16.530661,11.5653826 16.49,12 C16.5047188,13.9752859 15.7517982,15.8790994 14.39,17.31 C12.2542045,19.4557882 12.2542045,22.9242118 14.39,25.07 L14.39,25.09 Z"/>
      <path id="Path" fill="#3D454C" fill-rule="nonzero" d="M51.12 44.09C51.1423919 42.1438657 50.4279332 40.261267 49.12 38.82 48.96 38.62 48.83 38.46 48.73 38.32 48.6482616 38.2088327 48.5747335 38.0918562 48.51 37.97 48.3352441 37.7949317 48.0973516 37.6976121 47.85 37.7 47.3166665 37.6993329 46.8766663 38.1173332 46.85 38.65 46.8545677 38.7427481 46.8748563 38.8340466 46.91 38.92 46.9849739 39.0669091 47.0719353 39.2073852 47.17 39.34 47.32 39.55 47.48 39.75 47.65 39.96 49.8468438 42.2751261 49.8468438 45.9048739 47.65 48.22 46.9112379 48.9562028 46.4972207 49.9570444 46.5 51 46.4991655 52.0611852 46.9200457 53.0792116 47.67 53.83 48.4931341 54.7253926 49.0385506 55.8405435 49.24 57.04L47.13 57.04C46.9370704 56.3223461 46.5655176 55.6652482 46.05 55.13 43.8531562 52.8148739 43.8531562 49.1851261 46.05 46.87 47.6075332 45.3086901 47.6075332 42.7813099 46.05 41.22 43.859475 38.9062182 43.859475 35.2837818 46.05 32.97 47.6075332 31.4086901 47.6075332 28.8813099 46.05 27.32 44.998547 26.2024113 44.4152352 24.7244495 44.42 23.19 44.42 22.6156239 44.8856239 22.15 45.46 22.15 46.0343761 22.15 46.5 22.6156239 46.5 23.19 46.4890034 24.2531736 46.9114462 25.2749797 47.67 26.02 49.860525 28.3337818 49.860525 31.9562182 47.67 34.27 47.3515025 34.6626703 47.4095594 35.238773 47.8 35.56 48.1952962 35.8761497 48.7717299 35.813591 49.09 35.42 51.7960189 32.4238929 51.7960189 27.8661071 49.09 24.87 48.5 24.14 48.32 23.92 48.32 23.19 48.32 21.6104656 47.0395344 20.33 45.46 20.33 43.8804656 20.33 42.6 21.6104656 42.6 23.19 42.5800227 25.1386963 43.2939905 27.0235714 44.6 28.47 45.19 29.2 45.37 29.42 45.37 30.15 45.37 30.88 45.19 31.09 44.6 31.83 41.8953685 34.822814 41.8953685 39.377186 44.6 42.37 45.19 43.1 45.37 43.37 45.37 44.05 45.37 44.73 45.19 45 44.6 45.73 41.8953685 48.722814 41.8953685 53.277186 44.6 56.27 45.19 57 45.37 57.22 45.37 57.95 45.37 58.4525791 45.7774209 58.86 46.28 58.86L50.18 58.86C50.6825791 58.86 51.09 58.4525791 51.09 57.95 51.1123919 56.0038657 50.3979332 54.121267 49.09 52.68 48.5 51.95 48.32 51.73 48.32 51 48.32 50.27 48.5 50.05 49.09 49.32 50.399427 47.8934453 51.1241124 46.0263989 51.12 44.09L51.12 44.09zM20.18 44.09C20.1576081 42.1438657 20.8720668 40.261267 22.18 38.82L22.57 38.32C22.6517384 38.2088327 22.7252665 38.0918562 22.79 37.97 22.9647559 37.7949317 23.2026484 37.6976121 23.45 37.7 23.9639092 37.7251129 24.3748871 38.1360908 24.4 38.65 24.3954323 38.7427481 24.3751437 38.8340466 24.34 38.92 24.2650261 39.0669091 24.1780647 39.2073852 24.08 39.34 23.93 39.55 23.77 39.75 23.6 39.96 21.4031562 42.2751261 21.4031562 45.9048739 23.6 48.22 24.3571374 48.9478893 24.7896062 49.9497753 24.8 51 24.8008345 52.0611852 24.3799543 53.0792116 23.63 53.83 22.8068659 54.7253926 22.2614494 55.8405435 22.06 57.04L24.17 57.04C24.3587707 56.3206505 24.7308856 55.6625583 25.25 55.13 27.4468438 52.8148739 27.4468438 49.1851261 25.25 46.87 23.6924668 45.3086901 23.6924668 42.7813099 25.25 41.22 27.440525 38.9062182 27.440525 35.2837818 25.25 32.97 23.6924668 31.4086901 23.6924668 28.8813099 25.25 27.32 26.301453 26.2024113 26.8847648 24.7244495 26.88 23.19 26.88 22.6156239 26.4143761 22.15 25.84 22.15 25.2656239 22.15 24.8 22.6156239 24.8 23.19 24.8109966 24.2531736 24.3885538 25.2749797 23.63 26.02 21.439475 28.3337818 21.439475 31.9562182 23.63 34.27 23.7844635 34.4588399 23.8566325 34.701794 23.8303101 34.944336 23.8039877 35.186878 23.6813786 35.4086933 23.49 35.56 23.328715 35.6903428 23.1273672 35.7609912 22.92 35.76 22.6446712 35.7573582 22.3846663 35.6328488 22.21 35.42 19.5039811 32.4238929 19.5039811 27.8661071 22.21 24.87 22.8 24.14 22.98 23.92 22.98 23.19 22.98 21.6104656 24.2604656 20.33 25.84 20.33 27.4195344 20.33 28.7 21.6104656 28.7 23.19 28.7199773 25.1386963 28.0060095 27.0235714 26.7 28.47 26.11 29.2 25.93 29.42 25.93 30.15 25.93 30.88 26.11 31.09 26.7 31.83 29.4046315 34.822814 29.4046315 39.377186 26.7 42.37 26.11 43.1 25.93 43.37 25.93 44.05 25.93 44.73 26.11 45 26.7 45.73 29.4046315 48.722814 29.4046315 53.277186 26.7 56.27 26.11 57 25.93 57.22 25.93 57.95 25.93 58.4525791 25.5225791 58.86 25.02 58.86L21.12 58.86C20.6174209 58.86 20.21 58.4525791 20.21 57.95 20.1876081 56.0038657 20.9020668 54.121267 22.21 52.68 22.8 52 23 51.77 23 51 23 50.23 22.82 50.05 22.23 49.32 20.9132968 47.8964872 20.1813367 46.0290963 20.18 44.09L20.18 44.09z"/>
      <path id="Shape" fill="#3D454C" fill-rule="nonzero" d="M40.74,25.29 C40.7595757,22.5863862 39.7433601,19.977861 37.9,18 C36.9037055,17.0554768 36.3396029,15.7428535 36.34,14.37 C36.3002943,13.2292098 36.7054805,12.1176371 37.47,11.27 C38.4535212,10.0239431 38.243307,8.21699518 37,7.23 C36.4959053,6.8324537 35.8719875,6.61743118 35.23,6.61971888 C34.3206855,6.60735368 33.458097,7.02198849 32.9,7.74 C31.3442246,9.60231477 30.5132675,11.9637952 30.56,14.39 C30.54505,17.083834 31.5611551,19.681342 33.4,21.65 C34.4,22.86 34.96,23.58 34.96,25.29 C34.9631474,26.6663269 34.3988212,27.9830882 33.4,28.93 C29.6122299,33.0327689 29.6122299,39.3572311 33.4,43.46 C34.411056,44.3976125 34.9900218,45.7111411 35,47.09 C35,48.8 34.41,49.52 33.44,50.73 C31.5841967,52.6949567 30.5533136,55.2972207 30.56,58 C30.56,58.5025791 30.9674209,58.91 31.47,58.91 L35.47,58.91 C35.9725791,58.91 36.38,58.5025791 36.38,58 C36.3796029,56.6271465 36.9437055,55.3145232 37.94,54.37 C41.7243095,50.2620368 41.7243095,43.9379632 37.94,39.83 C36.9399315,38.8854546 36.3731873,37.5706101 36.3731873,36.195 C36.3731873,34.8193899 36.9399315,33.5045454 37.94,32.56 C39.7666659,30.5826435 40.7683623,27.9818103 40.74,25.29 Z M34.52,36.19 C34.5034756,37.9322878 35.1755336,39.6106358 36.39,40.86 L36.39,40.86 L36.48,40.97 C39.7208321,44.4064343 39.7208321,49.7735657 36.48,53.21 C35.4516402,54.2666473 34.783195,55.6210362 34.57,57.08 L32.42,57.08 C32.6303355,55.1280509 33.4731616,53.298416 34.82,51.87 C37.4326186,49.2188283 37.4326186,44.9611717 34.82,42.31 C31.5791679,38.8735657 31.5791679,33.5064343 34.82,30.07 C37.4338032,27.4154206 37.4338032,23.1545794 34.82,20.5 C33.2455355,18.8572976 32.3737727,16.6653343 32.39,14.39 C32.3528894,12.3632659 33.0650549,10.3941281 34.39,8.86 C34.5913729,8.60059322 34.9016066,8.44916965 35.23,8.4499966 C35.62625,8.47178306 35.9771417,8.71307824 36.1392934,9.07528726 C36.3014451,9.43749627 36.2476925,9.85994037 36,10.17 C34.9846225,11.3371532 34.4455756,12.8436286 34.49,14.39 C34.4919987,16.1864012 35.2121019,17.9074479 36.49,19.17 C39.7308321,22.6064343 39.7308321,27.9735657 36.49,31.41 C35.2212232,32.676237 34.5118355,34.3974923 34.52,36.19 Z"/>
      <rect id="Rectangle" width="60" height="60" x=".15" y="0"/>
    </g>
  </g>
</svg>
