<svg xmlns="http://www.w3.org/2000/svg" width="64" height="64" viewBox="0 0 64 64" style="background:#fff">
  <g id="Amarant" fill="none" fill-rule="evenodd" stroke="none" stroke-width="1">
    <rect width="64" height="64" fill="#FFF"/>
    <g transform="translate(2 6)">
      <rect id="Rectangle" width="60" height="60" x="0" y="0"/>
      <path id="Path" fill="#E0A075" fill-rule="nonzero" d="M15.76 28.25C14.04 27.12 12.06 28.59 10.67 29.76 9.44607438 30.2590361 8.48078234 31.2387895 8 32.47 7.32048024 33.5934887 6.95124929 34.8771701 6.93 36.19 6.9756432 37.3235971 7.67813108 38.3264788 8.72790421 38.7567137 9.77767735 39.1869486 10.9819322 38.9655188 11.81 38.19 12.4923219 37.4340999 13.0646247 36.5857451 13.51 35.67 14.1364421 34.8697543 14.5493524 33.9235015 14.71 32.92 15.55 31.6 17.17 29.19 15.76 28.25zM33.8 23.15C32.3947764 24.2267803 31.1549369 25.5036801 30.12 26.94 28.9073553 28.2489608 27.9478173 29.7713374 27.29 31.43 26.99 32.43 28.29 33.71 29.29 32.97 30.6258211 31.7991277 31.7255498 30.383736 32.53 28.8 33.5302973 27.3228186 34.3054363 25.7051371 34.83 24 35 23.4 34.32 22.78 33.8 23.15zM51.6 25.51C51.188253 24.7926614 50.4270768 24.3473733 49.6 24.34L49.43 24.14C48.71 23.64 47.96 24.34 47.88 25.03 47.8 25.72 47.28 26.2 47.3 27.03 47.3 28.47 47.79 30.03 47.96 31.43 48.28 34.1 47.33 37.24 48.79 39.6 49.2236009 40.317519 49.9608214 40.7980593 50.7923096 40.9051596 51.6237979 41.01226 52.4587276 40.7342215 53.06 40.15 56.23 36.43 53.72 29.29 51.6 25.51zM39.7 40.12C38.36 39.55 36.63 40.18 36.7 41.86 36.8317725 43.4351494 36.8083263 45.0194398 36.63 46.59 36.3 48.48 34.86 49.96 35.63 51.99 36.0345491 53.3213255 37.2394964 54.2491349 38.63 54.3 42.35 54.3 43.63 50.16 43.6900525 47.07 43.7 44.36 42.28 41.23 39.7 40.12zM27.6 44C26.5238874 42.5667176 24.5407813 42.1744075 23 43.09 21.71 44 20.5 45 19.18 45.93 17.9206178 46.7616417 16.8395707 47.8358898 16 49.09 15.8113681 49.4091929 15.7580752 49.7905184 15.8519699 50.1491964 15.9458647 50.5078743 16.1791646 50.8141756 16.5 51 19.72 53.29 24.86 51.43 27.33 48.69 28.5850966 47.4163375 28.7006415 45.4092807 27.6 44L27.6 44zM26.26 6.9C23.06 4.5 18.6 7.79 16.94 10.61 16.11 12.02 14.42 16.7 17.34 17.08L17.65 17.08C17.9041202 17.089247 18.1561099 17.0305645 18.38 16.91 18.6616232 16.7981987 18.9355529 16.6679151 19.2 16.52 20.15 16.09 20.94 15.41 21.88 14.95 23.72 14.05 26.26 13.71 27.46 11.41 28.2968373 9.82370662 27.7745177 7.86065569 26.26 6.9z" opacity=".5"/>
      <path id="Shape" fill="#3D454C" fill-rule="nonzero" d="M38.18 55.57C34.81 55.57 32.06 52.13 32.06 47.91 32.06 43.69 34.81 40.25 38.18 40.25 41.55 40.25 44.3 43.69 44.3 47.91 44.3 52.13 41.56 55.57 38.18 55.57zM38.18 42.25C35.91 42.25 34.06 44.79 34.06 47.91 34.06 51.03 35.91 53.57 38.18 53.57 40.45 53.57 42.3 51 42.3 47.91 42.3 44.82 40.46 42.25 38.18 42.25zM20.25 54.84C18.8064276 54.8777877 17.4082673 54.3336583 16.37 53.33 13.98 50.94 14.47 46.57 17.46 43.58 20.45 40.59 24.82 40.11 27.2 42.49 29.58 44.87 29.1 49.25 26.12 52.24 24.5790701 53.8415807 22.4715555 54.7750625 20.25 54.84L20.25 54.84zM23.31 43C21.6282107 43.0723061 20.038575 43.7883582 18.87 45 16.67 47.21 16.18 50.31 17.79 51.92 19.4 53.53 22.5 53 24.7 50.83 26.9 48.66 27.4 45.52 25.79 43.91 25.1179816 43.2877278 24.2250063 42.9600635 23.31 43L23.31 43zM49.9 39.1400374C46.9 39.1400374 44.05 36.35 43.41 32.53 42.72 28.36 44.86 24.53 48.19 23.96 51.52 23.39 54.79 26.34 55.49 30.5 56.19 34.66 54.05 38.5 50.72 39.07 50.4492933 39.1176804 50.1748715 39.1411067 49.9 39.1400374zM49 25.89C48.8334964 25.8795731 48.6665036 25.8795731 48.5 25.89 46.26 26.27 44.85 29.08 45.37 32.16 45.89 35.24 48.12 37.44 50.37 37.06 52.62 36.68 54.01 33.87 53.5 30.79L53.5 30.79C53 28 51.09 25.89 49 25.89zM36.43 25.08C35.1610496 23.8578174 33.3864336 23.3120672 31.65 23.61 29.7480792 23.8864528 27.9905389 24.7827983 26.65 26.16 23.65 29.16 23.18 33.52 25.56 35.91 26.601339 36.9151983 28.0031893 37.4593613 29.45 37.42 31.6683002 37.3535317 33.7721443 36.4200855 35.31 34.82 38.33 31.83 38.81 27.46 36.43 25.08zM28.09 27.58C29.1099787 26.5130253 30.4520174 25.8103873 31.91 25.58 32.1197351 25.5650826 32.3302649 25.5650826 32.54 25.58 32.8951068 25.5831687 33.2482103 25.6336121 33.59 25.73 32.8906886 29.5084962 30.0881176 32.5520649 26.38 33.56 25.64 31.83 26.27 29.4 28.09 27.58zM33.92 33.41C32.11 35.23 29.69 35.86 27.99 35.13 31.5992895 33.7455333 34.3352687 30.727418 35.36 27 36.5 28.64 35.94 31.39 33.92 33.41zM18 29.17C16.7314481 27.9545188 14.9615557 27.4127907 13.23 27.71 11.3273883 27.9842788 9.5691848 28.8809626 8.23 30.26 6.84973376 31.5995697 5.94990599 33.3570458 5.67 35.26 5.39755878 36.984316 5.94482568 38.7370492 7.15 40 8.17887688 41.0015814 9.56429031 41.5521483 11 41.53 11.3009779 41.5293694 11.6016019 41.5093278 11.9 41.47 13.8012339 41.1913901 15.5581183 40.295379 16.9 38.92 18.2772017 37.5794611 19.1735472 35.8219208 19.45 33.92 19.7383517 32.1968855 19.2015235 30.4383105 18 29.17L18 29.17zM17.49 33.69C17.2568289 35.1441779 16.5544585 36.4821935 15.49 37.5 14.4735427 38.5662483 13.1348847 39.2689559 11.68 39.5 10.9255787 39.6103585 10.1553314 39.5028014 9.46 39.19 11.0169664 38.7033081 12.4267596 37.8333625 13.56 36.66 14.45 35.73 13.04 34.32 12.14 35.25 11.0097635 36.442684 9.53376111 37.2506379 7.92 37.56 7.66478125 36.9052483 7.58213727 36.1958874 7.68 35.5 7.90967474 34.0417818 8.61242572 32.6995274 9.68 31.68 10.6982531 30.6161345 12.0360566 29.9138754 13.49 29.68 13.7030834 29.665396 13.9169166 29.665396 14.13 29.68 15.0464058 29.6474321 15.9371134 29.9864058 16.6 30.62 17.3497002 31.4534272 17.670986 32.5871601 17.47 33.69L17.49 33.69z"/>
      <path id="Path" fill="#3D454C" fill-rule="nonzero" d="M15,34.19 C15.5522847,34.19 16,33.7422847 16,33.19 C16,32.6377153 15.5522847,32.19 15,32.19 C14.4477153,32.19 14,32.6377153 14,33.19 C14,33.7422847 14.4477153,34.19 15,34.19 Z"/>
      <path id="Shape" fill="#3D454C" fill-rule="nonzero" d="M25.15,7.66 C22.77,5.27 18.4,5.76 15.41,8.74 C12.42,11.72 11.93,16.1 14.32,18.49 C15.3582673,19.4936583 16.7564276,20.0377877 18.2,20 C20.4215555,19.9350625 22.5290701,19.0015807 24.07,17.4 C27.05,14.42 27.54,10 25.15,7.66 Z M22.65,16 C20.45,18.21 17.34,18.69 15.74,17.09 C14.14,15.49 14.62,12.37 16.82,10.17 C18.68,8.31 21.15,7.69 22.82,8.49 C21.2811752,8.98077131 19.8868201,9.84279872 18.76,11 C17.86,11.93 19.28,13.34 20.17,12.42 C21.3035969,11.2245164 22.7825832,10.4133466 24.4,10.1 C25.09,11.81 24.45,14.19 22.65,16 Z"/>
      <path id="Path" fill="#3D454C" fill-rule="nonzero" d="M17.28 15.47C17.8322847 15.47 18.28 15.0222847 18.28 14.47 18.28 13.9177153 17.8322847 13.47 17.28 13.47 16.7277153 13.47 16.28 13.9177153 16.28 14.47 16.28 15.0222847 16.7277153 15.47 17.28 15.47zM39 46.18C39.5522847 46.18 40 45.7322847 40 45.18 40 44.6277153 39.5522847 44.18 39 44.18 38.4477153 44.18 38 44.6277153 38 45.18 38 45.7322847 38.4477153 46.18 39 46.18z"/>
    </g>
  </g>
</svg>
