<svg xmlns="http://www.w3.org/2000/svg" width="64" height="64" viewBox="0 0 64 64" style="background:#fff">
  <g id="Ananas" fill="none" fill-rule="evenodd" stroke="none" stroke-width="1">
    <rect width="64" height="64" fill="#FFF"/>
    <g transform="translate(2 4)">
      <rect id="Rectangle" width="60" height="60" x="0" y="0"/>
      <path id="Path" fill="#31E085" fill-rule="nonzero" d="M45.2,10 C37.42,5.57 22.64,4.66 19.44,15.63 C18.9226867,17.0237802 19.2751888,18.5914961 20.339332,19.6296847 C21.4034753,20.6678732 22.9794158,20.9815647 24.36,20.43 C29.3,18.69 33.36,15.62 38.52,18.93 C44.62,22.82 51.33,13.45 45.2,10 Z" opacity=".5"/>
      <path id="Path" fill="#EBE53F" fill-rule="nonzero" d="M41.36,27.82 C43.36,23.82 41.36,19.21 35.62,17.91 C28.24,16.24 22.31,22.11 18.35,26.4 C10.35,35.01 7.25,49.08 19.67,56.15 C30.9,62.56 43.29,55.39 45.37,45.29 C46.4288448,39.1645807 44.9841262,32.8705072 41.36,27.82 Z" opacity=".5"/>
      <path id="Shape" fill="#3D454C" fill-rule="nonzero" d="M48.17,12.71 C45.2027905,11.4417812 41.9433664,11.0161876 38.75,11.48 L38.65,11.48 C39.5728951,10.6205815 40.6301969,9.91796557 41.78,9.4 C42.427098,9.09789452 43.0955739,8.84387366 43.78,8.64 C44.2325731,8.50460808 44.5286714,8.07098505 44.4900409,7.60017613 C44.4514104,7.12936721 44.0885896,6.74980934 43.62,6.69 C40.4254899,6.29094916 37.1828352,6.78236534 34.25,8.11 L33.77,8.35 C33.5826019,7.70353965 33.3243694,7.07975716 33,6.49 C31.4115218,3.99359494 28.9871024,2.14338013 26.16,1.27 C25.7299737,1.13191457 25.2607652,1.29921589 25.0151134,1.67822163 C24.7694615,2.05722736 24.8083489,2.55385007 25.11,2.89 C25.5105932,3.32857756 25.8688519,3.80402368 26.18,4.31 C26.8652715,5.3943526 27.2132995,6.65769395 27.18,7.94 C24.3625788,6.44496969 21.1814007,5.77269458 18,6 C17.5346283,6.03709426 17.1568449,6.39125275 17.0898174,6.85326366 C17.0227899,7.31527457 17.2843556,7.76218839 17.72,7.93 C18.3860705,8.17852519 19.0342657,8.47255185 19.66,8.81 C20.7991483,9.41436033 21.8163453,10.2247273 22.66,11.2 C19.505033,10.560022 16.2355355,10.7881265 13.2,11.86 C12.7334126,12.028628 12.4610058,12.5138525 12.56,13 C12.6300943,13.4675512 13.018046,13.8221307 13.49,13.85 C14.2523624,13.9007616 15.0106243,14.0009724 15.76,14.15 C17.0558287,14.4097853 18.3105454,14.8437222 19.49,15.44 C17.3152984,15.6460532 15.2038311,16.2852735 13.28,17.32 C12.8662259,17.5496598 12.6700876,18.0379191 12.81,18.49 C12.9420515,18.9272829 13.3536301,19.2195036 13.81,19.2 C14.5756801,19.1449968 15.3443199,19.1449968 16.11,19.2 C18.7531104,19.6375184 21.3391226,20.3687125 23.82,21.38 C17.8020416,23.8208611 13.7880523,29.5792111 13.58,36.07 C13.1,44.68 14.58,50.69 17.99,54.45 C20.4898526,57.0544073 23.8451098,58.6699015 27.44,59 L27.54,59 L27.54,59 C28.4413587,59.1300546 29.3496012,59.2068545 30.26,59.2300198 L30.88,59.2300198 C32.160578,59.2318962 33.4377377,59.0978112 34.69,58.83 L34.77,58.83 C37.6843498,58.2185801 40.3427323,56.7323977 42.39,54.57 C45.72,51.02 47.45,45.63 47.39,39.19 L47.39,39.13 C47.39,38.13 47.33,37.13 47.23,36.07 C46.59,29.35 42.81,23.81 37.34,21.51 C39.12,20.4 42.24,19.88 44.9,19.88 C45.6695086,19.8781969 46.438153,19.9316678 47.2,20.04 C47.6642162,20.1039181 48.1105618,19.8369131 48.2737809,19.3976618 C48.437,18.9584104 48.2733145,18.4647272 47.88,18.21 C45.9634799,16.9880524 43.8030884,16.1996631 41.55,15.9 C42.7986238,15.3652015 44.1139011,15.0019024 45.46,14.82 C46.2085412,14.7127217 46.9638109,14.6592513 47.72,14.66 L47.72,14.66 C48.18968,14.6578464 48.5945654,14.329113 48.6931423,13.8698892 C48.7917191,13.4106653 48.5574182,12.9447244 48.13,12.75 L48.17,12.71 Z M25.17,22.94 C25.67,22.86 26.17,22.79 26.73,22.74 L29.56,25.56 L23.74,31.38 L19.22,26.87 C20.8253994,25.0387464 22.899827,23.6799962 25.22,22.94 L25.17,22.94 Z M29.43,22.61 L30.36,22.61 C31.0266667,22.61 31.6933333,22.65 32.36,22.73 L31,24.15 L29.43,22.61 Z M23.76,45.88 L20.55,42.68 C20.1532397,42.3402232 19.5618058,42.3630677 19.1924368,42.7324368 C18.8230677,43.1018058 18.8002232,43.6932397 19.14,44.09 L22.35,47.29 L18.21,51.43 C16.6394877,48.679645 15.7481242,45.594156 15.61,42.43 L23.8,34.25 L29.62,40 L23.76,45.88 Z M31,41.44 L36.83,47.25 L31,53.09 L25.17,47.29 L31,41.44 Z M25.21,32.8 L31,27 L36.83,32.81 L31,38.61 L25.21,32.8 Z M15.57,36.18 C15.7075587,33.4403437 16.5627973,30.7849658 18.05,28.48 L22.38,32.8 L15.5,39.68 C15.48,38.57 15.51,37.41 15.57,36.18 Z M19.42,53.05 L23.77,48.7 L29.6,54.51 L27.19,56.91 C24.2544281,56.5678276 21.5272372,55.2218953 19.47,53.1 L19.42,53.05 Z M30.33,57.2 C30.13,57.2 29.95,57.2 29.76,57.2 L31,55.92 L32.24,57.15 C31.6047307,57.2016561 30.9671019,57.2183479 30.33,57.2 L30.33,57.2 Z M40.94,53.2 C39.2561447,54.9835629 37.086901,56.2350497 34.7,56.8 L32.43,54.5 L38.27,48.66 L39.12,49.51 C39.3087188,49.6971865 39.564197,49.8015368 39.83,49.8 C40.0937693,49.796243 40.3453695,49.6884143 40.53,49.5 C40.9177236,49.1099625 40.9177236,48.4800375 40.53,48.09 L39.69,47.25 L45.32,41.61 C45,46.43 43.49,50.44 40.94,53.16 L40.94,53.2 Z M45.38,38.76 L38.27,45.87 L32.45,40 L38.28,34.17 L41.51,37.38 C41.6987188,37.5671865 41.954197,37.6715368 42.22,37.67 C42.4837693,37.666243 42.7353695,37.5584143 42.92,37.37 C43.3077236,36.9799625 43.3077236,36.3500375 42.92,35.96 L39.7,32.77 L43.13,29.34 C44.3056141,31.4610148 45.0243519,33.8045771 45.24,36.22 C45.32,37.07 45.36,37.9 45.38,38.72 L45.38,38.76 Z M42,27.62 L38.26,31.36 L32.43,25.56 L35,23 L36.4,23.22 C38.630912,24.1520821 40.5665625,25.6729504 42,27.62 L42,27.62 Z M37.62,15.9 C37.2966845,16.1656844 37.1729933,16.6045885 37.31,17 C37.4635104,17.4134905 37.8697962,17.6775762 38.31,17.65 C39.6181292,17.5998637 40.9275393,17.7073024 42.21,17.97 C39.8,18.24 36.54,18.97 34.91,20.97 C33.437198,20.7717662 31.9552987,20.6482746 30.47,20.6 C29.34,20.6 28.24,20.6 27.18,20.69 L27,20.69 C25.45,19.51 21.27,18.19 18.5,17.53 C19.7702051,17.3054232 21.0624807,17.2315789 22.35,17.31 L22.49,17.31 C22.9146169,17.344075 23.3142081,17.1054183 23.4855407,16.715411 C23.6568734,16.3254037 23.5623318,15.8696712 23.25,15.58 C21.9209142,14.3736299 20.3683344,13.4393642 18.68,12.83 C19.8947899,12.8023955 21.1088905,12.9097193 22.3,13.15 C23.0258582,13.3022872 23.7407724,13.5027304 24.44,13.75 C24.81023,13.8842681 25.2247908,13.7887327 25.4989168,13.5059728 C25.7730428,13.2232129 25.8556808,12.8058897 25.71,12.44 C25.0343301,10.8254687 23.952652,9.41308647 22.57,8.34 C23.8481149,8.62797179 25.0799314,9.09242719 26.23,9.72 C26.59,9.92 26.94,10.14 27.23,10.36 C27.4953964,10.5431567 27.832828,10.5870958 28.1362789,10.4780121 C28.4397297,10.3689285 28.6719576,10.1202099 28.76,9.81 C29.2409477,8.11059309 29.1460129,6.29979927 28.49,4.66 C29.5854979,5.39111751 30.507181,6.35376431 31.19,7.48 C31.6762431,8.24687766 32.0027579,9.1039791 32.15,10 C32.1998557,10.3331724 32.414114,10.6188503 32.72,10.76 C33.0400418,10.9204458 33.4214387,10.897562 33.72,10.7 C34.1854332,10.3991861 34.673574,10.1350551 35.18,9.91 C36.354484,9.36712339 37.5950458,8.98049845 38.87,8.76 C37.4090848,9.72863872 36.2074568,11.0401298 35.37,12.58 C35.193045,12.9300733 35.2371012,13.3512759 35.4826663,13.6571552 C35.7282314,13.9630345 36.1299522,14.097098 36.51,14 C37.3239549,13.7526662 38.1567105,13.5720686 39,13.46 C40.1761974,13.2988933 41.3660845,13.2620235 42.55,13.35 C40.7577013,13.874376 39.0836614,14.7402587 37.62,15.9 Z"/>
      <path id="Path" fill="#3D454C" fill-rule="nonzero" d="M31.63 48.72C32.125306 48.4767448 32.3299548 47.8782561 32.0872942 47.3826586 31.8446335 46.8870611 31.2463908 46.6816942 30.7505025 46.9237599 30.2546141 47.1658257 30.0485295 47.7638215 30.29 48.26 30.4063297 48.4990365 30.6130506 48.6819154 30.8644883 48.7682298 31.1159259 48.8545442 31.3913838 48.8371894 31.63 48.72zM32.09 32.38C31.8467448 31.884694 31.2482561 31.6800452 30.7526586 31.9227058 30.2570611 32.1653665 30.0516942 32.7636092 30.2937599 33.2594975 30.5358257 33.7553859 31.1338215 33.9614705 31.63 33.72 31.8690365 33.6036703 32.0519154 33.3969494 32.1382298 33.1455117 32.2245442 32.8940741 32.2071894 32.6186162 32.09 32.38zM23.36 39.31C22.8716578 39.5557883 22.6712201 40.148193 22.91 40.64 23.0502531 40.9875704 23.373088 41.227532 23.7463339 41.2616433 24.1195798 41.2957545 24.4805638 41.1182876 24.6814967 40.8018984 24.8824296 40.4855093 24.8895721 40.0833242 24.7 39.76 24.4540469 39.2659191 23.8543143 39.0645164 23.36 39.31L23.36 39.31z"/>
    </g>
  </g>
</svg>
