<svg xmlns="http://www.w3.org/2000/svg" width="64" height="64" viewBox="0 0 64 64" style="background:#fff">
  <g id="Ananassaft" fill="none" fill-rule="evenodd" stroke="none" stroke-width="1">
    <rect width="64" height="64" fill="#FFF"/>
    <g transform="translate(2 4)">
      <rect id="Rectangle" width="60" height="60" x="0" y="0"/>
      <path id="Path" fill="#EBE53F" fill-rule="nonzero" d="M46.11,29 C49,25.25 46.11,20.87 37.73,19.65 C26.96,18.07 18.31,23.65 12.53,27.65 C0.89,35.8 -3.67,49.08 14.45,55.76 C30.84,61.8 48.93,55 52,45.5 C53.56,40.49 51.66,33.89 46.11,29 Z" opacity=".5"/>
      <path id="Shape" fill="#3D454C" fill-rule="nonzero" d="M25.11,28.34 C25.11,28.34 25.11,28.34 25.11,28.34 C25.588667,28.3488487 26.0064554,28.0171972 26.1064341,27.5490042 C26.2064128,27.0808112 25.9605307,26.6074384 25.52,26.42 C24.0231061,25.7719801 22.3999567,25.4678531 20.77,25.53 C21.0322402,25.3635372 21.3063047,25.2164782 21.59,25.09 C21.9769964,24.9073784 22.3783474,24.7568718 22.79,24.64 C23.3422847,24.5985786 23.7564213,24.1172847 23.715,23.565 C23.6735786,23.0127153 23.1922847,22.5985787 22.64,22.64 C20.6266589,22.3927313 18.5839614,22.6968893 16.73,23.52 C16.6155721,23.2361015 16.4784621,22.9618814 16.32,22.7 C15.2926552,21.0861615 13.7266331,19.8886152 11.9,19.32 C11.4480154,19.1403388 10.9323125,19.3119414 10.6780894,19.7265965 C10.4238664,20.1412516 10.5048615,20.6786869 10.87,21 C11.1022522,21.2469565 11.3068014,21.518571 11.48,21.81 C11.7423023,22.2349982 11.9189514,22.7071947 12,23.2 C10.3687944,22.4687994 8.58396352,22.1461569 6.8,22.26 C6.32481477,22.2887575 5.93577826,22.6485117 5.87,23.12 C5.80393789,23.5884284 6.07515321,24.0390631 6.52,24.2 C6.91329722,24.3425617 7.29452064,24.516453 7.66,24.72 C7.97271371,24.887515 8.27047306,25.0815605 8.55,25.3 C6.9162665,25.1442212 5.26819687,25.3455382 3.72,25.89 C3.2721022,26.0501627 2.99901371,26.5036645 3.06696342,26.9744589 C3.13491312,27.4452533 3.52509273,27.8030256 4,27.83 C4.44987591,27.8575979 4.89748458,27.9143841 5.34,28 C5.68,28.07 6.01,28.16 6.34,28.26 C5.42058526,28.4677173 4.53515606,28.8043824 3.71,29.26 C3.29864689,29.4893032 3.10303438,29.9745431 3.24034786,30.4250277 C3.37766133,30.8755122 3.81068173,31.1691368 4.28,31.13 C4.73283732,31.1000093 5.18716268,31.1000093 5.64,31.13 C6.91654372,31.3394141 8.16928868,31.6743727 9.38,32.13 C6.01164066,33.8964392 3.8451055,37.3293295 3.7,41.13 C3.62487686,42.35218 3.62487686,43.57782 3.7,44.8 L3.7,44.8 C3.71641965,47.4276663 4.5173179,49.9905407 6,52.16 C6.02406469,52.2102259 6.05429789,52.2572553 6.09,52.3 L6.09,52.3 C6.19538492,52.4494429 6.3088888,52.5929919 6.43,52.73 C8.22,54.73 10.78,55.73 14.26,55.79 L14.66,55.79 C17.4312819,55.8823106 20.111019,54.7915085 22.03,52.79 C24.14,50.54 25.24,47.13 25.21,43.07 L25.21,43 C25.21,42.38 25.21,41.74 25.11,41.09 C24.9307445,39.151585 24.2932162,37.2835587 23.25,35.64 L23.25,35.64 C22.3258718,34.1929991 21.0447497,33.0083055 19.53,32.2 C20.7472118,31.7716942 22.0296828,31.558513 23.32,31.57 C23.7752501,31.5677398 24.2299767,31.6011755 24.68,31.67 C25.1463919,31.7404143 25.5985725,31.4753569 25.7649822,31.0340097 C25.9313918,30.5926624 25.7667778,30.0950431 25.37,29.84 C24.5467233,29.3079608 23.6460634,28.9065431 22.7,28.65 C23.0289528,28.5630455 23.3629073,28.4962546 23.7,28.45 C24.1668337,28.3802675 24.638,28.3435098 25.11,28.34 Z M11.33,33.45 C11.57,33.45 11.83,33.4 12.08,33.37 L13.41,34.7 L10.41,37.7 L8.11,35.49 C9.00328626,34.5604878 10.107976,33.8606222 11.33,33.45 L11.33,33.45 Z M20.41,41.66 C20.5987188,41.8471865 20.854197,41.9515368 21.12,41.95 C21.5200752,41.9443799 21.8782884,41.7008257 22.030632,41.3308485 C22.1829755,40.9608712 22.1001197,40.5357003 21.82,40.25 L20.71,39.14 L22.18,37.66 C22.730283,38.8030376 23.0690799,40.0362583 23.18,41.3 C23.18,41.76 23.24,42.21 23.25,42.65 L19.25,46.65 L16.25,43.65 L19.3,40.6 L20.41,41.66 Z M12.33,53.6 C10.7866508,53.3727435 9.35119835,52.6742266 8.22,51.6 L10.35,49.46 L13.4,52.46 L12.33,53.6 Z M5.73,45.2 L10.37,40.57 L13.37,43.57 L10.31,46.63 L9,45.37 C8.74634143,45.1181278 8.37757901,45.0207134 8.03262196,45.1144521 C7.68766492,45.2081907 7.41892044,45.4788412 7.32762196,45.8244521 C7.23632349,46.170063 7.33634143,46.5381278 7.59,46.79 L8.89,48.08 L7,50 C6.25265028,48.5037685 5.82039577,46.8700506 5.73,45.2 L5.73,45.2 Z M11.73,48.08 L14.83,45 L17.83,48 L14.77,51 L11.73,48.08 Z M14.8,42.19 L11.75,39.19 L14.8,36.19 L17.8,39.19 L14.8,42.19 Z M6.91,37.12 L8.91,39.12 L5.61,42.43 C5.61,42.03 5.61,41.64 5.61,41.23 C5.716199,39.7772344 6.1614406,38.3695859 6.91,37.12 L6.91,37.12 Z M20.65,51.44 C19.7134272,52.4313828 18.5185172,53.1414018 17.2,53.49 L16.2,52.49 L19.26,49.43 L19.51,49.68 C19.7565133,49.9461629 20.1262971,50.0605942 20.4800575,49.9801889 C20.833818,49.8997836 21.1178104,49.6367571 21.2250575,49.2901889 C21.3323047,48.9436208 21.2465133,48.5661629 21,48.3 L20.75,48.05 L23.19,45.62 C22.9656012,47.775997 22.0781855,49.809367 20.65,51.44 Z M21.07,35.94 L19.29,37.73 L16.24,34.73 L17.39,33.58 L18.02,33.67 C19.2075196,34.1649537 20.2549859,34.9445433 21.07,35.94 Z M18.34,29.57 C18.4654333,29.9084757 18.7635459,30.1530809 19.12,30.21 C18.3228388,30.4546442 17.5958855,30.8867014 17,31.47 L17,31.47 C16.13,31.36 15.27,31.28 14.46,31.26 C13.65,31.24 13.09,31.26 12.46,31.32 C11.5008466,30.7575049 10.4766015,30.314225 9.41,30 L9.55,30 C9.97506508,30.0367984 10.3766613,29.7998566 10.55,29.41 C10.7224605,29.0178222 10.6259414,28.5593563 10.31,28.27 C9.95783991,27.9422694 9.57622621,27.6476904 9.17,27.39 L9.39,27.39 C9.82090696,27.4814668 10.2451928,27.6017368 10.66,27.75 C11.03023,27.8842681 11.4447908,27.7887327 11.7189168,27.5059728 C11.9930428,27.2232129 12.0756808,26.8058897 11.93,26.44 C11.6843192,25.9213885 11.3716504,25.4372561 11,25 C11.4399438,25.1954736 11.8616087,25.4297319 12.26,25.7 C12.5259768,25.8850709 12.8651397,25.9297957 13.17,25.82 C13.4763317,25.7122089 13.7112461,25.4623792 13.8,25.15 C13.9957611,24.4338129 14.0433985,23.6852245 13.94,22.95 C14.1878877,23.2116757 14.4058952,23.5001163 14.59,23.81 C14.8544729,24.2375586 15.0312375,24.7134632 15.11,25.21 C15.1566907,25.5468992 15.3714175,25.8369688 15.68,25.98 C15.9881537,26.1186776 16.3455007,26.0923468 16.63,25.91 C16.9056232,25.7368585 17.1929872,25.5831522 17.49,25.45 L18.07,25.2 C17.6808768,25.613209 17.3449384,26.0734445 17.07,26.57 C16.8546819,26.9396328 16.8983223,27.4052882 17.1785703,27.7284775 C17.4588183,28.0516667 17.9136018,28.1608065 18.31,28 C18.7966585,27.8488803 19.2950431,27.7384998 19.8,27.67 L19.89,27.67 C19.4478463,27.9100705 19.0293257,28.1913164 18.64,28.51 C18.3368485,28.7714368 18.2188204,29.1884695 18.34,29.57 L18.34,29.57 Z"/>
      <path id="Shape" fill="#3D454C" fill-rule="nonzero" d="M57.21,17 C55.79,11.78 50.79,9.86 45.91,11 C44.18,8.85 38.24,9.43 36.18,9.2 C32.37,8.79 29.59,5.64 25.29,5.88 C23.2561279,5.97158405 21.2958402,6.66795622 19.66,7.88 C19.3414625,8.20268336 19.279898,8.69930348 19.51,9.09 L23.08,14.67 C23.15,15.35 23.37,16.01 23.47,16.67 C23.6449234,17.900481 23.6449234,19.149519 23.47,20.38 C23.32,21.66 25.32,21.65 25.47,20.38 C25.6414991,19.1569756 25.6582979,17.9172222 25.52,16.69 C25.4473511,16.2252784 25.3505534,15.7646548 25.23,15.31 L28.81,15.31 C29.3622847,15.31 29.81,14.8622847 29.81,14.31 C29.81,13.7577153 29.3622847,13.31 28.81,13.31 L24.61,13.31 C23.67,11.84 22.75,10.31 21.78,8.91 C22.1422218,8.68634849 22.5237457,8.4955865 22.92,8.34 C25.1345154,7.59356315 27.5474284,7.69692279 29.69,8.63 C30.15,8.81 30.56,8.99 30.94,9.18 L27.29,9.18 C26.7377153,9.18 26.29,9.62771525 26.29,10.18 C26.29,10.7322847 26.7377153,11.18 27.29,11.18 L36.16,11.18 C36.21,11.18 36.25,11.18 36.31,11.18 L36.6,11.18 C37.34,11.18 45.01,10.41 44.08,13.34 L40.08,13.34 C39.5277153,13.34 39.08,13.7877153 39.08,14.34 C39.08,14.8922847 39.5277153,15.34 40.08,15.34 C41.14,15.34 42.5,15.15 43.67,15.22 C43.67,15.4 43.54,15.67 43.41,16.05 C43.226936,16.7704989 43.1163859,17.5074994 43.08,18.25 C42.74,24.25 46.69,28 48.49,33.25 C50.91,40.25 48.94,48.38 42.28,52.25 C38.19,54.65 30.16,54.57 26.28,52.08 C25.19,51.39 24.19,53.08 25.28,53.81 C33.62,59.1 46.11,55.35 50.13,46.46 C51.208969,43.9962142 51.7051618,41.316773 51.58,38.63 C55,32.64 59.13,24 57.21,17 Z M55.21,23.85 C54.3768195,27.8162733 52.9934408,31.6466503 51.1,35.23 C50.9492567,34.4851151 50.7522076,33.7503558 50.51,33.03 C52.62,28.69 55.63,22.03 53.33,17.36 C52.0083527,14.6001561 48.8611833,13.228859 45.94,14.14 C46.11559,13.7528096 46.246436,13.3468517 46.33,12.93 C53.22,11.3 56.45,17.44 55.23,23.82 L55.21,23.85 Z M45.5,22.31 C45.1284352,20.4244343 45.162524,18.481372 45.6,16.61 C46.6460973,16.0690709 47.8311021,15.8564671 49,16 C49.816058,16.2879363 50.4988414,16.8640348 50.92,17.62 C52.37,19.54 52.21,21.53 51.73,23.84 C51.225627,26.1182468 50.4918854,28.3395741 49.54,30.47 C48.17,27.72 46.27,25.31 45.52,22.28 L45.5,22.31 Z"/>
      <path id="Path" fill="#3D454C" fill-rule="nonzero" d="M42.84 47.16C45.5987642 43.7312032 46.2802501 39.0756591 44.62 35 44.17 33.81 42.24 34.33 42.69 35.54 44 38.87 43.84 43 41.42 45.75 40.58 46.72 42 48.14 42.84 47.16zM42.44 30.73C42.0778424 30.5497182 41.6427394 30.6054 41.3376521 30.8710716 41.0325649 31.1367432 40.9176019 31.5600617 41.0463897 31.9435632 41.1751775 32.3270646 41.5223421 32.595191 41.9259428 32.6228704 42.3295435 32.6505498 42.7100623 32.4323287 42.89 32.07 43.1354836 31.5756857 42.9340809 30.9759531 42.44 30.73z"/>
    </g>
  </g>
</svg>
