<svg xmlns="http://www.w3.org/2000/svg" width="64" height="64" viewBox="0 0 64 64" style="background:#fff">
  <g id="Anis" fill="none" fill-rule="evenodd" stroke="none" stroke-width="1">
    <rect width="64" height="64" fill="#FFF"/>
    <g transform="translate(2 8)">
      <rect id="Rectangle" width="60" height="60" x="0" y="0"/>
      <path id="Path" fill="#E0673A" fill-rule="nonzero" d="M47.78,30.05 C44.61,17.33 26.5,5.84 14.83,15.28 C7.7,21.05 7.15,31.09 11.21,38.48 C11.2148254,38.5365639 11.2148254,38.5934361 11.21,38.65 C13.0191179,44.97238 18.7353848,49.3791758 25.31,49.52 C25.74,49.71 26.16,49.9 26.6,50.05 C39.36,54.46 51,42.86 47.78,30.05 Z" opacity=".5"/>
      <path id="Shape" fill="#3D454C" fill-rule="nonzero" d="M32.83 32.22C34.0096412 30.6619066 33.7396399 28.4487811 32.22 27.22L32.22 27.22C32.1550683 27.1387206 32.0812794 27.0649317 32 27 30.3831326 25.9141347 28.1953466 26.3155607 27.0693042 27.9047091 25.9432619 29.4938574 26.2897369 31.6910159 27.850168 32.856528 29.4105991 34.0220401 31.6157501 33.7307338 32.82 32.2L32.83 32.22zM31.39 30.8C31.1646891 31.1831034 30.7918769 31.4568135 30.3588754 31.5570278 29.9258739 31.6572421 29.4707164 31.5751582 29.1 31.33 27.34 30.13 29.17 27.65 30.94 28.71 31.5897235 29.1972772 31.7816159 30.088511 31.39 30.8L31.39 30.8zM31.64 24.24L31.64 24.37C31.64 24.37 31.64 24.37 31.64 24.42L31.64 24.48C31.7611081 24.8478818 32.1131835 25.0894219 32.5 25.07 32.7794717 25.101385 33.0583149 25.0059912 33.26 24.81 34.91 23.33 37.1 21.08 37.56 18.81 37.86 17.33 37.17 14.81 35.35 14.88 33.6897629 15.1150429 32.3523391 16.3606435 32 18 31.4605158 19.9527734 31.3412258 21.9977448 31.65 24 31.6379156 24.0793951 31.6345623 24.1598748 31.64 24.24L31.64 24.24zM35 17C36.61 16.62 35.21 19.5 34.9 20 34.463307 20.6555148 33.9821785 21.2803136 33.46 21.87 33.42 19.9 33.76 17.32 35 17zM27 24.67C27.0350881 24.7033863 27.0756865 24.7304519 27.12 24.75L27.24 24.83 27.24 24.83 27.32 24.83C27.6578026 24.987935 28.0584723 24.9158145 28.32 24.65 28.3901697 24.5856119 28.4507819 24.5115303 28.5 24.43L28.5 24.43C28.6004471 24.2815779 28.6591614 24.108889 28.67 23.93 28.79 21.78 28.73 18.75 27.6 16.85 26.91 15.67 24.86 14.23 23.47 15.11 21.85 16.11 22.08 18.63 22.87 20.05 23.8870352 21.8772079 25.2977684 23.4553162 27 24.67L27 24.67zM24.46 17C24.76 16.82 25.46 17.42 25.74 17.71 26.1247757 18.3112481 26.3549374 18.998298 26.41 19.71 26.51 20.36 26.6 21.01 26.65 21.66 26.47 21.46 26.3 21.25 26.14 21.05 25.5594821 20.4428303 25.0495685 19.7718913 24.62 19.05 24.41 18.7 23.94 17.29 24.46 17zM24.08 28.39C24.1298897 28.3946978 24.1801103 28.3946978 24.23 28.39L24.37 28.39 24.42 28.39 24.48 28.39C24.8478818 28.2688919 25.0894219 27.9168165 25.07 27.53 25.101385 27.2505283 25.0059912 26.9716851 24.81 26.77 23.33 25.12 21.08 22.93 18.81 22.47 17.33 22.17 14.81 22.86 14.88 24.68 15.1265789 26.3286868 16.3697911 27.651592 18 28 19.9752836 28.564303 22.0488071 28.6973086 24.08 28.39zM17 25C16.62 23.39 19.5 24.79 20 25.1 20.6555148 25.536693 21.2803136 26.0178215 21.87 26.54 19.9 26.58 17.32 26.24 17 25zM24.67 33.05C24.7033863 33.0149119 24.7304519 32.9743135 24.75 32.93L24.83 32.81C24.83 32.81 24.83 32.81 24.83 32.76L24.83 32.68C24.987935 32.3421974 24.9158145 31.9415277 24.65 31.68 24.5856119 31.6098303 24.5115303 31.5492181 24.43 31.5L24.43 31.5C24.2815779 31.3995529 24.108889 31.3408386 23.93 31.33 21.78 31.21 18.75 31.27 16.85 32.4 15.67 33.09 14.23 35.14 15.11 36.53 16.11 38.15 18.62 37.92 20.05 37.13 21.8720471 36.1273592 23.4497379 34.7340738 24.67 33.05L24.67 33.05zM19.08 35.38C18.7 35.59 17.29 36.06 16.98 35.54 16.8 35.24 17.4 34.54 17.69 34.26 18.2912481 33.8752243 18.978298 33.6450626 19.69 33.59 20.34 33.49 20.99 33.4 21.64 33.35 21.44 33.53 21.23 33.7 21.03 33.86 20.4384675 34.4375141 19.7844332 34.9473255 19.08 35.38L19.08 35.38zM28.36 35.76L28.36 35.63C28.36 35.63 28.36 35.63 28.36 35.58L28.36 35.52C28.2388919 35.1521182 27.8868165 34.9105781 27.5 34.93 27.2205283 34.898615 26.9416851 34.9940088 26.74 35.19 25.09 36.67 22.9 38.92 22.44 41.19 22.14 42.67 22.83 45.19 24.65 45.12 26.3102371 44.8849571 27.6476609 43.6393565 28 42 28.5394842 40.0472266 28.6587742 38.0022552 28.35 36 28.3620844 35.9206049 28.3654377 35.8401252 28.36 35.76L28.36 35.76zM25 43C23.39 43.38 24.79 40.5 25.1 40 25.536693 39.3444852 26.0178215 38.7196864 26.54 38.13 26.58 40.1 26.24 42.68 25 43zM33.05 35.33C33.0149119 35.2966137 32.9743135 35.2695481 32.93 35.25L32.81 35.17 32.76 35.17 32.68 35.17C32.3421974 35.012065 31.9415277 35.0841855 31.68 35.35 31.6098303 35.4143881 31.5492181 35.4884697 31.5 35.57L31.5 35.57C31.3995529 35.7184221 31.3408386 35.891111 31.33 36.07 31.21 38.22 31.27 41.25 32.4 43.15 33.09 44.33 35.14 45.77 36.53 44.89 38.15 43.89 37.92 41.37 37.13 39.95 36.1273592 38.1279529 34.7340738 36.5502621 33.05 35.33L33.05 35.33zM35.54 43C35.24 43.18 34.54 42.58 34.26 42.29 33.8752243 41.6887519 33.6450626 41.001702 33.59 40.29 33.49 39.64 33.4 38.99 33.35 38.34 33.53 38.54 33.7 38.75 33.86 38.95 34.4405179 39.5571697 34.9504315 40.2281087 35.38 40.95 35.59 41.3 36.06 42.71 35.54 43z"/>
      <path id="Shape" fill="#3D454C" fill-rule="nonzero" d="M52.69,37.59 C52,36.15 51.05,34.42 50.22,33 C49.43916,31.6638094 48.2512329,30.6125465 46.83,30 C47.8504516,29.4538268 48.7487646,28.7052326 49.47,27.8 C50.2236971,26.6998948 50.8163519,25.4977484 51.23,24.23 C51.69,23.09 53.04,21.78 52.67,20.49 C52.38,19.44 51.5,19.38 50.58,19.17 C49.05,18.82 47.66,18.09 46.13,17.76 C44.7306268,17.4393323 43.2671285,17.5473524 41.93,18.07 C42.2349859,17.0496688 42.3469012,15.981386 42.26,14.92 C42.0512896,13.57053 41.6258012,12.263673 41,11.05 C40.57,10.05 40.52,8.32 39.76,7.54 C39.1805833,6.962935 38.2775111,6.86721768 37.59,7.31 C36.15,8 34.42,9 33,9.78 C31.6638094,10.56084 30.6125465,11.7487671 30,13.17 C29.4538268,12.1495484 28.7052326,11.2512354 27.8,10.53 C26.6998948,9.77630287 25.4977484,9.18364808 24.23,8.77 C23.11,8.31 21.8,7 20.51,7.33 C19.46,7.62 19.4,8.5 19.19,9.42 C18.84,10.95 18.11,12.34 17.78,13.87 C17.4593323,15.2693732 17.5673524,16.7328715 18.09,18.07 C17.0696688,17.7650141 16.001386,17.6530988 14.94,17.74 C13.5836658,17.9466139 12.2698941,18.3721544 11.05,19 C10.05,19.43 8.32,19.48 7.54,20.24 C6.962935,20.8194167 6.86721768,21.7224889 7.31,22.41 C8,23.85 9,25.58 9.78,27 C10.56084,28.3361906 11.7487671,29.3874535 13.17,30 C12.1495484,30.5461732 11.2512354,31.2947674 10.53,32.2 C9.77630287,33.3001052 9.18364808,34.5022516 8.77,35.77 C8.31,36.89 7,38.2 7.33,39.49 C7.62,40.49 8.5,40.6 9.42,40.81 C10.95,41.16 12.34,41.89 13.87,42.22 C15.2693732,42.5406677 16.7328715,42.4326476 18.07,41.91 C17.7650141,42.9303312 17.6530988,43.998614 17.74,45.06 C17.9413244,46.4334902 18.3669963,47.7645596 19,49 C19.43,50 19.48,51.73 20.24,52.51 C20.8194167,53.087065 21.7224889,53.1827823 22.41,52.74 C23.85,52.07 25.58,51.1 26.97,50.27 C28.3061906,49.48916 29.3574535,48.3012329 29.97,46.88 C30.5161732,47.9004516 31.2647674,48.7987646 32.17,49.52 C33.2701052,50.2736971 34.4722516,50.8663519 35.74,51.28 C36.88,51.74 38.19,53.09 39.48,52.72 C40.48,52.43 40.59,51.55 40.8,50.63 C41.15,49.1 41.88,47.71 42.21,46.18 C42.5306677,44.7806268 42.4226476,43.3171285 41.9,41.98 C42.9203312,42.2849859 43.988614,42.3969012 45.05,42.31 C46.4298704,42.0940309 47.7645366,41.6513948 49,41 C50,40.57 51.73,40.52 52.51,39.76 C53.071101,39.168221 53.1459279,38.2661409 52.69,37.59 Z M50.14,38.44 C46.72,39.34 43.35,41.76 40.14,38.77 C40.0872011,38.7276759 40.0302425,38.6908204 39.97,38.66 L39.35,38 C38.52,37 37.11,38.44 37.93,39.42 C39.81,41.66 40.93,43.62 40.04,46.58 C39.8,47.34 39.04,50.21 38.63,50.41 C38.22,50.61 34.33,48.57 34.02,48.41 C32.2787018,47.3060112 31.1426611,45.4617892 30.94,43.41 C30.94,43.34 30.94,43.28 30.89,43.22 C30.89,42.92 30.96,42.62 30.99,42.31 C31.1,41.03 29.1,41.04 28.99,42.31 C28.71,45.41 27.99,47.56 25.12,49 C24.240755,49.334652 23.3882875,49.7358132 22.57,50.2 C22.3339086,50.4122945 22.0718118,50.5937461 21.79,50.74 L21.79,51.22 C21.7493832,50.8819819 21.6825146,50.5476385 21.59,50.22 C20.69,46.8 18.27,43.43 21.26,40.22 C21.3023241,40.1672011 21.3391796,40.1102425 21.37,40.05 L22.08,39.48 C23.08,38.65 21.64,37.24 20.66,38.06 C18.42,39.94 16.46,41.06 13.5,40.17 C12.74,39.93 9.87,39.17 9.67,38.76 C9.47,38.35 11.51,34.46 11.67,34.15 C12.7739888,32.4087018 14.6182108,31.2726611 16.67,31.07 L16.86,31.02 L17.76,31.12 C19.05,31.23 19.04,29.23 17.76,29.12 C14.67,28.84 12.52,28.12 11.08,25.25 C10.745348,24.370755 10.3441868,23.5182875 9.88,22.7 C9.66770552,22.4639086 9.48625388,22.2018118 9.34,21.92 L8.86,21.92 C9.19801811,21.8793832 9.53236146,21.8125146 9.86,21.72 C13.28,20.82 16.65,18.4 19.91,21.39 C19.9627989,21.4323241 20.0197575,21.4691796 20.08,21.5 L20.65,22.21 C21.48,23.21 22.89,21.77 22.07,20.79 C20.19,18.55 19.07,16.59 19.96,13.63 C20.2,12.87 20.96,10 21.37,9.8 C21.78,9.6 25.67,11.64 25.98,11.8 C27.7212982,12.9039888 28.8573389,14.7482108 29.06,16.8 C29.06,16.87 29.06,16.93 29.11,16.99 C29.11,17.29 29.04,17.59 29.01,17.89 C28.9,19.18 30.9,19.17 31.01,17.89 C31.29,14.8 32.01,12.65 34.88,11.21 C35.759245,10.875348 36.6117125,10.4741868 37.43,10.01 C37.6660914,9.79770552 37.9281882,9.61625388 38.21,9.47 L38.21,8.99 C38.2506168,9.32801811 38.3174854,9.66236146 38.41,9.99 C39.31,13.41 41.73,16.78 38.74,20.04 C38.6976759,20.0927989 38.6608204,20.1497575 38.63,20.21 L37.92,20.78 C36.92,21.61 38.36,23.02 39.34,22.2 C41.58,20.32 43.54,19.2 46.5,20.09 C47.26,20.33 50.13,21.09 50.33,21.5 C50.53,21.91 48.49,25.8 48.33,26.11 C47.2260112,27.8512982 45.3817892,28.9873389 43.33,29.19 L43.14,29.24 L42.24,29.14 C40.95,29.03 40.96,31.03 42.24,31.14 C45.33,31.42 47.48,32.14 48.92,35.01 C49.254652,35.889245 49.6558132,36.7417125 50.12,37.56 C50.3322945,37.7960914 50.5137461,38.0581882 50.66,38.34 L51.14,38.34 C50.8046,38.3477135 50.4702859,38.3811449 50.14,38.44 Z"/>
      <path id="Shape" fill="#3D454C" fill-rule="nonzero" d="M42 32C40.0472266 31.4605158 38.0022552 31.3412258 36 31.65L35.84 31.65 35.71 31.65 35.66 31.65 35.6 31.65C35.2321182 31.7711081 34.9905781 32.1231835 35.01 32.51 34.978615 32.7894717 35.0740088 33.0683149 35.27 33.27 36.75 34.92 39 37.11 41.27 37.57 42.75 37.87 45.27 37.18 45.2 35.36 44.9582693 33.6725502 43.6736586 32.3237089 42 32zM40 34.91C39.3444852 34.473307 38.7196864 33.9921785 38.13 33.47 40.13 33.47 42.68 33.8 42.97 35.01 43.35 36.58 40.47 35.18 40 34.87L40 34.91zM35.33 27C35.2966137 27.0350881 35.2695481 27.0756865 35.25 27.12 35.219902 27.157603 35.1931343 27.1977546 35.17 27.24 35.17 27.24 35.17 27.24 35.17 27.24L35.17 27.32C35.012065 27.6578026 35.0841855 28.0584723 35.35 28.32 35.4143881 28.3901697 35.4884697 28.4507819 35.57 28.5L35.57 28.5C35.7184221 28.6004471 35.891111 28.6591614 36.07 28.67 38.22 28.79 41.25 28.73 43.15 27.6 44.33 26.91 45.77 24.86 44.89 23.47 43.89 21.85 41.38 22.08 39.95 22.87 38.1227921 23.8870352 36.5446838 25.2977684 35.33 27L35.33 27zM40.92 24.67C41.3 24.46 42.71 23.99 43.02 24.51 43.2 24.81 42.6 25.51 42.31 25.79 41.7087519 26.1747757 41.021702 26.4049374 40.31 26.46 39.66 26.56 39.01 26.65 38.36 26.7 38.56 26.52 38.77 26.35 38.97 26.19 39.5588874 25.594997 40.2130243 25.0683329 40.92 24.62L40.92 24.67z"/>
    </g>
  </g>
</svg>
