<svg xmlns="http://www.w3.org/2000/svg" width="64" height="64" viewBox="0 0 64 64" style="background:#fff">
  <g id="Apfelessig" fill="none" fill-rule="evenodd" stroke="none" stroke-width="1">
    <rect width="64" height="64" fill="#FFF"/>
    <g transform="translate(2 3)">
      <rect id="Rectangle" width="60" height="60" x="0" y="0"/>
      <path id="Path" fill="#31E085" fill-rule="nonzero" d="M52.2,25 C51.54,23.44 49.7,21.86 47.86,22.08 C46.7558269,22.1803817 45.6786943,22.4784561 44.68,22.96 L43.81,23.4 L43.63,23.46 C43.1617716,23.5999519 42.7066996,23.7806422 42.27,24 C41.773602,24.3461373 41.3024164,24.7270959 40.86,25.14 C39.811979,26.1877108 39.6024598,27.8104572 40.35,29.09 C41.3560089,30.7264508 43.0847444,31.7822807 45,31.93 C47.2428863,32.3687188 49.561052,31.7196324 51.25,30.18 C52.5799988,28.8017228 52.9543468,26.7605414 52.2,25 L52.2,25 Z" opacity=".5"/>
      <path id="Path" fill="#E05362" fill-rule="nonzero" d="M52.35,33.07 C51.4665127,32.6038055 50.3981953,32.6614485 49.57,33.22 C48.7593064,33.2230352 47.9536617,33.3477584 47.18,33.59 C43.2932325,34.991353 39.0305247,34.9380692 35.18,33.44 C31.42,31.89 28.73,29.36 24.24,30.89 C21.15,31.94 19.95,35.36 16.57,35.82 C12.8,36.33 10.57,33.46 8.02,31.62 C6.81,30.76 4.71,30.62 3.89,32.09 C2.32,34.94 2.89,37.97 4.65,40.51 C4.47432391,40.6469825 4.31938631,40.8086565 4.19,40.99 C0.07,47.3 7.85,54.93 14.43,56.61 C19.7823508,57.8319138 25.3986395,56.4980452 29.63,53 C31.0891545,54.745789 32.8980489,56.1663333 34.94,57.17 C40.5,60 46.84,58.4 51.11,54.5 C56.65,49.44 60.54,37.74 52.35,33.07 Z" opacity=".5"/>
      <path id="Shape" fill="#3D454C" fill-rule="nonzero" d="M56.43,41.81 C56.25,38.81 54.99,35.51 52.36,33.81 C48.73,31.44 45.78,33.47 42.36,34.58 C42.2523474,33.6681626 42.0166957,32.7760525 41.66,31.93 C45.0621109,33.7294625 49.2633597,32.8514015 51.66,29.84 C51.9345103,29.4100829 51.9345103,28.8599171 51.66,28.43 C50.0362739,26.8119789 47.8017172,25.9597777 45.5129114,26.085662 C43.2241057,26.2115463 41.0964866,27.3036672 39.66,29.09 C39.2608263,28.7290559 38.8251422,28.4106714 38.36,28.14 C37.8851496,27.8915983 37.2988937,28.0616763 37.0307068,28.5256398 C36.7625198,28.9896032 36.9077474,29.582504 37.36,29.87 C39.0364792,30.8562842 40.1486465,32.5764363 40.36,34.51 C37.17,33.43 34.5,31.62 30.98,33.57 C28.07,35.19 26.69,38.64 26.5,41.83 C26.01,50.21 32.84,59.18 41.5,59.1600334 C50.16,59.14 56.91,50.13 56.43,41.81 Z M49.43,29.2 C47.3439675,31.1485716 44.1739118,31.3576782 41.85,29.7 C43.932789,27.7621377 47.090138,27.5533183 49.41,29.2 L49.43,29.2 Z M41.48,57.14 C34.38,57.14 28.57,49.82 28.48,42.94 C28.42,39.75 29.65,35.81 33.09,34.81 C36.09,33.92 38.48,36.18 41.22,36.81 L41.29,36.81 C41.3529446,36.8199239 41.4170554,36.8199239 41.48,36.81 C41.5462796,36.8201597 41.6137204,36.8201597 41.68,36.81 L41.75,36.81 C44.51,36.16 46.85,33.95 49.87,34.81 C53.28,35.81 54.57,39.81 54.49,42.94 C54.26,49.74 48.53,57.13 41.48,57.14 Z"/>
      <path id="Path" fill="#3D454C" fill-rule="nonzero" d="M50.45 41.44C50.54 47.01 46.45 52.84 40.68 53.06 39.4 53.06 39.4 55.06 40.68 55.06 47.62 54.8 52.56 48.18 52.45 41.44 52.45 40.8877153 52.0022847 40.44 51.45 40.44 50.8977153 40.44 50.45 40.8877153 50.45 41.44zM14.73 10.06C14.57 8.66 14.31 7.24 14.24 5.84 14.08 2.96 15.72 3.16 17.84 3.16 19.96 3.16 21.62 3 21.46 5.8 21.38 7.19 21.1 8.59 20.92 9.97 20.74 11.35 22.76 11.23 22.92 9.97 23.17 8.06 23.85 5.72 23.31 3.82 22.51 1.03 20.21 1.16 17.84 1.16 15.47 1.16 13.16 1 12.37 3.84 11.84 5.76 12.5 8.13 12.73 10.06 12.88 11.32 14.88 11.33 14.73 10.06z"/>
      <path id="Shape" fill="#3D454C" fill-rule="nonzero" d="M26.35,53.64 C23.81,58.03 15.35,58.22 11.64,55.49 C7.93,52.76 5.25,48.94 5.44,44.14 C5.81,34.65 12.91,26.97 14.56,17.69 C15.5289665,17.8436837 16.5089486,17.9172659 17.49,17.91 C17.6391376,20.9522876 18.2286031,23.9568776 19.24,26.83 C19.67,28.03 21.6,27.51 21.17,26.3 C20.2071663,23.5889577 19.6413142,20.7529607 19.49,17.88 C20.0500162,17.850731 20.6077215,17.7872795 21.16,17.69 C21.68,23.2 24,28.17 26.5,33.07 C27.08,34.22 28.81,33.21 28.22,32.07 C25.8,27.31 23.49,22.5 23.1,17.07 C23.6174465,16.821191 24.069496,16.4547568 24.42,16 C25.42,14.69 25.2,13 25.2,11.44 C25.2,11.37 25.2,11.33 25.2,11.27 C25.38,10.08 23.55,9.59 23.26,10.82 C22.86,12.59 15.13,12.52 12.94,11.38 C13.15,10.69 12.65,9.8 11.79,10.12 C11.4406754,10.2170497 11.1298461,10.4196127 10.9,10.7 C10.7771052,10.8038451 10.6839401,10.938417 10.63,11.09 C10.5723667,11.2326197 10.5484123,11.3866126 10.56,11.54 C10.56,13.06 10.39,14.72 11.35,16.01 C11.7033506,16.472488 12.163007,16.8429573 12.69,17.09 C11,27.25 -2.31,42.09 5.46,52.22 C8.58,56.29 11.67,58.9 17.12,59.16 C21.28,59.35 25.93,58.38 28.12,54.63 C28.393381,54.141228 28.218772,53.523381 27.73,53.25 C27.241228,52.976619 26.623381,53.151228 26.35,53.64 Z M18.72,14.05 C20.211265,14.1395588 21.7072049,13.987601 23.15,13.6 C22.38,15.9 19.89,15.91 17.82,15.91 C15.75,15.91 13.07,16.03 12.54,13.46 C14.44,14.2 17.08,14.07 18.72,14.05 Z"/>
      <path id="Path" fill="#3D454C" fill-rule="nonzero" d="M8.53 39.12C6.86634432 43.1999967 7.55201946 47.8618216 10.32 51.29 11.16 52.29 12.57 50.85 11.73 49.88 9.31 47.08 9.19 43 10.46 39.65 10.92 38.44 9 37.92 8.53 39.12zM12.06 35.31C11.8140469 34.8159191 11.2143143 34.6145164 10.72 34.86 10.3576713 35.0399377 10.1394502 35.4204565 10.1671296 35.8240572 10.194809 36.2276579 10.4629354 36.5748225 10.8464368 36.7036103 11.2299383 36.8323981 11.6532568 36.7174351 11.9189284 36.4123479 12.1846 36.1072606 12.2402818 35.6721576 12.06 35.31z"/>
    </g>
  </g>
</svg>
