<svg xmlns="http://www.w3.org/2000/svg" width="64" height="64" viewBox="0 0 64 64" style="background:#fff">
  <g id="Apfel" fill="none" fill-rule="evenodd" stroke="none" stroke-width="1">
    <rect width="64" height="64" fill="#FFF"/>
    <g transform="translate(2 6)">
      <rect id="Rectangle" width="60" height="60" x="0" y="0"/>
      <path id="Path" fill="#31E085" fill-rule="nonzero" d="M20.29,14.61 C20,12.22 17.2,11 15,11.16 L14.28,11.09 C15,11.16 13.8,10.98 13.67,10.94 C12.9256551,10.6538852 12.1503811,10.4558715 11.36,10.35 C9.61,9.83 7.56,9.86 6.84,11.9 C6.48291825,13.2813097 6.76563511,14.7499688 7.61,15.9 C8.61,18.09 11.13,19.56 13.54,20.2 C16.13,21.26 19.61,20.3 20.28,17.2 C20.4674555,16.3471986 20.4708647,15.4642234 20.29,14.61 Z" opacity=".5"/>
      <path id="Path" fill="#E05362" fill-rule="nonzero" d="M35.15,20.17 C31.7481003,21.6031971 28.9684397,24.202038 27.31,27.5 C27.31,27.17 27.31,26.84 27.31,26.5 C27.31,21.5 18.8,19.5 15.5,22.87 C12.61,20.59 6.83,20.7 6,24.7 L6,24.76 C5.49915235,24.9051838 5.06654659,25.2243192 4.78,25.66 C-1.77635684e-15,32.8 2.73,40.83 7.05,47.64 C8.45,49.87 11.86,49.95 14.05,48.71 L14.05,48.71 C15.4517695,50.3367073 17.5509826,51.1890473 19.69,51 C20.7366348,51.9588843 21.9499672,52.7180644 23.27,53.24 C26.38,54.48 30.41,53.4 31.43,50.78 C34.7,53.09 39.22,50.53 38.43,47.24 C37.49,43.12 35.73,39.13 35.91,34.89 C36.09,30.65 38.47,26.89 39.34,22.78 C39.81,20.79 37.5,19.19 35.15,20.17 Z" opacity=".5"/>
      <circle id="Oval" cx="11.05" cy="46.2" r="1" fill="#3D454C" fill-rule="nonzero"/>
      <path id="Shape" fill="#3D454C" fill-rule="nonzero" d="M49.37,21.73 C46.5671814,21.6740821 43.8293517,22.5772837 41.61,24.29 C39.3952534,22.5758477 36.6600171,21.6723374 33.86,21.73 C32.5190334,21.7335699 31.2034806,22.0961238 30.05,22.78 C28.8953624,22.0902577 27.5749629,21.7273207 26.23,21.73 C24.049347,21.6554139 21.8743109,21.9947332 19.82,22.73 C20.18,19.9 20.82,16.65 22.16,14.48 C22.2838691,14.0465047 22.1023477,13.5837279 21.7167855,13.3500539 C21.3312234,13.1163798 20.8369765,13.1696001 20.51,13.48 C20.1167906,14.1324661 19.7821495,14.8184803 19.51,15.53 C18.3178309,13.3818051 16.05682,12.0466227 13.6,12.04 L7.82,12.04 C7.26771525,12.04 6.82,12.4877153 6.82,13.04 C6.83098354,16.7688859 9.8511141,19.7890165 13.58,19.8 L18.31,19.8 C18.09,20.93 17.92,22.04 17.8,23.08 C15.5678035,22.0813872 13.1328714,21.6190583 10.69,21.73 C5.69,21.73 2,26.29 2,32.35 C2,37.61 4,52.63 12.65,52.63 C16.03,52.63 17.49,51.79 18.44,51.01 C19.44,51.78 20.86,52.63 24.23,52.63 C26.5029376,52.5981355 28.633234,51.5163732 30,49.7 C31.3699071,51.5179349 33.5039036,52.5997013 35.78,52.63 C39.17,52.63 40.62,51.78 41.57,51.01 C42.57,51.79 44,52.63 47.37,52.63 C56.04,52.63 57.9900203,37.63 57.9900203,32.35 C58,26.29 54.31,21.73 49.37,21.73 Z M8.88,14 L13.61,14 C15.9047268,14.0055976 17.8801119,15.6218218 18.34,17.87 L13.61,17.87 C11.3166523,17.8605587 9.34338258,16.2460653 8.88,14 L8.88,14 Z M28.88,48.07 C27.8658313,49.6512882 26.13765,50.6313391 24.26,50.69 C21.01,50.69 20.08,49.87 19.26,49.15 L19.11,49 C18.7392189,48.6911665 18.2007811,48.6911665 17.83,49 L17.67,49.14 C16.86,49.86 15.95,50.68 12.67,50.68 C6.15,50.69 4,38.1 4,32.35 C4,27.35 6.9,23.66 10.76,23.66 C15.19,23.66 17.16,24.84 17.66,25.2 C17.59,26.09 17.56,26.86 17.54,27.43 C17.0705018,27.3382508 16.6308634,27.1321702 16.26,26.83 C15.8683357,26.5063851 15.2962612,26.5278917 14.93,26.88 C14.5924578,27.2590844 14.5924578,27.8309156 14.93,28.21 C15.9172942,29.0652598 17.1951143,29.5090965 18.5,29.45 C19.7823614,29.4883878 21.0320837,29.0420584 22,28.2 C22.3495764,27.8178909 22.3495764,27.2321091 22,26.85 C21.6164468,26.4942828 21.0235532,26.4942828 20.64,26.85 C20.2790816,27.1398503 19.8538185,27.3387637 19.4,27.43 C19.4,26.82 19.47,26 19.55,25.03 C20.37,24.54 22.38,23.69 26.2,23.69 C26.9228784,23.6823336 27.6400827,23.8182965 28.31,24.09 C26.2231191,26.3567384 25.0880843,29.3393378 25.14,32.42 C25.14,36.96 26.28,43.42 28.59,47.62 L28.59,47.62 L28.88,48.07 Z M47.41,50.69 C44.15,50.69 43.23,49.87 42.41,49.15 L42.25,49 C41.8846672,48.7074997 41.3653328,48.7074997 41,49 L40.82,49.15 C40.01,49.87 39.1,50.68 35.82,50.68 C29.47,50.68 27.1,38.59 27.1,32.39 C27.1,27 30.48,23.65 33.86,23.65 C36.4418763,23.5556807 38.9569103,24.4826503 40.86,26.23 C41.0437018,26.4282262 41.2998153,26.5436577 41.57,26.55 C41.8387063,26.5462642 42.0946007,26.4345357 42.28,26.24 C44.1791975,24.4852408 46.6960268,23.554014 49.28,23.65 C53.11,23.65 56.01,27.39 56.01,32.34 C56.1,38.34 54,50.69 47.41,50.69 L47.41,50.69 Z"/>
      <path id="Path" fill="#3D454C" fill-rule="nonzero" d="M8.22 32.2C8.33047715 31.7934776 8.17434139 31.3613153 7.82954634 31.1192781 7.48475129 30.8772408 7.02524871 30.8772408 6.68045366 31.1192781 6.33565861 31.3613153 6.17952285 31.7934776 6.29 32.2 6.32815982 35.908144 6.95253938 39.5869208 8.14 43.1 8.21032196 43.4899917 8.5043021 43.801666 8.88952323 43.8946359 9.27474436 43.9876057 9.67852293 43.8443294 9.91898535 43.5293429 10.1594478 43.2143563 10.1912236 42.7870911 10 42.44 8.86553393 39.1431357 8.26463983 35.6863067 8.22 32.2L8.22 32.2zM41.61 31.22C41.3803726 31.1826768 41.1453624 31.2388753 40.9574614 31.376043 40.7695604 31.5132107 40.644423 31.7199199 40.61 31.95L40.61 42.83C40.644423 43.0600801 40.7695604 43.2667893 40.9574614 43.403957 41.1453624 43.5411247 41.3803726 43.5973232 41.61 43.56 42.15 43.56 42.61 43.23 42.61 42.83L42.61 32C42.58 31.55 42.15 31.22 41.61 31.22zM45.48 35C44.9277153 35 44.48 35.4477153 44.48 36L44.48 38.9C44.5983495 39.3354901 44.9937149 39.6377501 45.445 39.6377501 45.8962851 39.6377501 46.2916505 39.3354901 46.4100031 38.9L46.4100031 36C46.4112903 35.4739358 46.0047754 35.036823 45.48 35zM37.75 35C37.1977153 35 36.75 35.4477153 36.75 36L36.75 38.9C36.8683495 39.3354901 37.2637149 39.6377501 37.715 39.6377501 38.1662851 39.6377501 38.5616505 39.3354901 38.6800031 38.9L38.6800031 36C38.6812903 35.4739358 38.2747754 35.036823 37.75 35z"/>
    </g>
  </g>
</svg>
