<svg xmlns="http://www.w3.org/2000/svg" width="64" height="64" viewBox="0 0 64 64" style="background:#fff">
  <g id="Apfelpektin" fill="none" fill-rule="evenodd" stroke="none" stroke-width="1">
    <rect width="64" height="64" fill="#FFF"/>
    <g transform="translate(2 4)">
      <path id="Path" fill="#E05362" fill-rule="nonzero" d="M45.2,21.83 C40.2,15.21 33.37,10.7 26.2,9.33 C19.93,8.11 10,8.25 6.39,15.91 C4.6705573,19.5845659 4.86874099,23.8698208 6.92,27.37 C9.41,31.26 13.19,31.11 16.66,30.47 C20.4128841,29.9018258 24.2044155,29.6276587 28,29.65 C32.58,30.65 37.15,30.45 41.74,31.07 C46.07,31.66 48.28,25.89 45.2,21.83 Z" opacity=".5"/>
      <circle id="Oval" cx="13.28" cy="23.75" r="1" fill="#3D454C" fill-rule="nonzero"/>
      <rect id="Rectangle" width="60" height="60" x="0" y="0"/>
      <path id="Path" fill="#E05362" fill-rule="nonzero" d="M57.77,44 C55.5,38.47 47.51,35.62 41.22,38.23 C35.95,40.42 33.22,46 34.81,50.69 C38.12,60.29 55.08,58.54 57.65,50.13 C58.5239091,48.1884476 58.5672536,45.9742669 57.77,44 L57.77,44 Z" opacity=".5"/>
      <path id="Shape" fill="#3D454C" fill-rule="nonzero" d="M57.35,43.49 C57.17,41.14 56.07,38.61 53.9,37.49 C53.2829074,37.1532684 52.6010527,36.9521213 51.9,36.9 C52.6665923,36.5182722 53.3471613,35.9840255 53.9,35.33 C53.9412558,35.2675978 53.9748317,35.2004459 54,35.13 C54.3067766,34.7646913 54.2621689,34.2204771 53.9,33.91 C52.7164755,32.7430447 51.106205,32.1124468 49.4449661,32.1653645 C47.7837272,32.2182822 46.2168552,32.950086 45.11,34.19 C44.8636507,33.9940342 44.6029157,33.8168681 44.33,33.66 C43.8551496,33.4115983 43.2688937,33.5816763 43.0007068,34.0456398 C42.7325198,34.5096032 42.8777474,35.102504 43.33,35.39 C44.27528,35.9688653 44.9379771,36.9140234 45.16,38 C43.03,37.22 41.16,36.16 38.76,37.44 C36.58,38.6 35.51,41.12 35.32,43.44 C34.83,49.44 39.68,56.1 45.88,56.36 C52.5,56.67 57.85,49.89 57.35,43.49 Z M47.21,38.12 C47.1560118,37.7809556 47.0757704,37.4466167 46.97,37.12 C47.5596575,37.3453421 48.1800071,37.4802007 48.81,37.52 C48.29,37.71 47.76,37.93 47.21,38.12 Z M51.55,34.67 C50.2715265,35.6740147 48.5125846,35.8044531 47.1,35 C48.3784735,33.9959853 50.1374154,33.8655469 51.55,34.67 Z M45.55,54.35 C40.93,53.92 37.33,48.85 37.29,44.35 C37.29,42.35 38.09,39.73 40.21,39.02 C42.33,38.31 44.09,39.94 46.07,40.41 L46.6,40.41 C48.4,39.98 49.85,38.59 51.82,38.93 C54.37,39.37 55.4,42.01 55.38,44.35 C55.34,49.5 50.9,54.84 45.55,54.35 L45.55,54.35 Z"/>
      <path id="Path" fill="#3D454C" fill-rule="nonzero" d="M51.91,42.93 C51.98,46.77 49.21,50.83 45.19,50.99 C43.91,50.99 43.9,52.99 45.19,52.99 C50.31,52.79 54,47.92 53.91,42.93 C53.91,42.3777153 53.4622847,41.93 52.91,41.93 C52.3577153,41.93 51.91,42.3777153 51.91,42.93 Z"/>
      <path id="Shape" fill="#3D454C" fill-rule="nonzero" d="M44.33,18.83 C42.2987314,16.8900723 39.3988921,16.1575213 36.69,16.9 C37.07,9.65 27.14,6 23.51,12.67 C21.51,10.16 17.6,9.35 14.51,10.4 C10.87,11.63 8.79,15.72 9.17,19.4 C6.90642357,18.823154 4.50686576,19.4935067 2.87,21.16 C0.64,23.65 1.62,27.1 2.63,29.87 C2.4967523,30.0342079 2.42276675,30.238549 2.42,30.45 C2.42,30.45 2.42,30.52 2.42,30.56 C2.4101152,30.6195929 2.4101152,30.6804071 2.42,30.74 C2.62769719,38.4266516 6.37372522,45.5865475 12.57,50.14 C13.8377405,51.1017231 15.2667563,51.8297762 16.79,52.29 C17.51,56.65 21.27,56.37 24.99,56.37 C28.71,56.37 32.39,56.66 33.17,52.44 C33.7514577,52.2944108 34.3226942,52.1106798 34.88,51.89 C36.06,51.41 35.54,49.47 34.35,49.96 C33.215142,50.3955607 32.0223642,50.6617456 30.81,50.75 L21.51,50.75 C19.1240046,50.8667882 16.7533949,50.3087938 14.67,49.14 C9.3,45.83 4.32,38.56 4.49,31.94 C4.50117658,31.7841908 4.48076856,31.6277294 4.43,31.48 C5.2071062,31.3849807 5.9928938,31.3849807 6.77,31.48 L45.77,31.48 C46.1928588,31.5007968 46.5742007,31.2272255 46.69,30.82 C46.7603237,30.7356744 46.8176256,30.6412948 46.86,30.54 C48.45,26.41 47.82,21.86 44.33,18.83 Z M25,54.42 C23,54.42 19.87,55.09 19,52.8 L20.64,52.8 C23.93,52.8 27.64,53.25 31.07,52.86 C30.13,55.09 27.06,54.42 25,54.42 Z M4.62,29.5 C4.62,29.5 4.62,29.5 4.62,29.44 C3.2,25.56 5.38,19.8 10.26,21.85 C10.97,22.15 11.71,21.29 11.49,20.62 C10.7,18.22 11.89,14.24 14.02,12.79 C16.63,11.03 21.78,11.96 22.68,15.36 C22.7983495,15.7954901 23.1937149,16.0977501 23.645,16.0977501 C24.0962851,16.0977501 24.4916505,15.7954901 24.61,15.36 C26.79,7.07 36.12,12.96 34.4,18.49 C34.16,19.26 35.15,20.16 35.86,19.62 C38.86,17.33 42.96,19.42 44.67,22.29 C45.8598446,24.513421 46.0276378,27.143397 45.13,29.5 L4.62,29.5 Z"/>
      <path id="Path" fill="#3D454C" fill-rule="nonzero" d="M11.76,39.43 C13.34,43.57 16.83,46.99 21.33,47.51 C22.6,47.66 22.59,45.66 21.33,45.51 C17.77,45.1 14.84,41.93 13.69,38.9 C13.24,37.71 11.31,38.22 11.76,39.43 Z"/>
      <circle id="Oval" cx="11.56" cy="35.35" r="1" fill="#3D454C" fill-rule="nonzero"/>
    </g>
  </g>
</svg>
