<svg xmlns="http://www.w3.org/2000/svg" width="64" height="64" viewBox="0 0 64 64" style="background:#fff">
  <g id="Apfelsaft" fill="none" fill-rule="evenodd" stroke="none" stroke-width="1">
    <rect width="64" height="64" fill="#FFF"/>
    <g transform="translate(2 4)">
      <rect id="Rectangle" width="60" height="60" x="0" y="0"/>
      <g id="Group" fill="#31E085" fill-rule="nonzero" opacity=".5" transform="translate(6 17)">
        <path id="Path" d="M12.26,8 C12.2055485,6.97586547 11.807447,5.99998835 11.13,5.23 L11,5.09 C10.8642383,4.90772611 10.7172889,4.73405858 10.56,4.57 C10.4820031,4.49793402 10.40853,4.42112123 10.34,4.34 C10.2929885,4.26890329 10.2495998,4.19547632 10.21,4.12 C10.07,3.77 9.93,3.4 9.75,3.05 L10.2,4.11 L10.2,4.11 C10.06,3.76 9.92,3.41 9.76,3.06 C9.7,2.94 9.65,2.81 9.58,2.7 C8.49780539,0.925324448 6.38383366,0.0651286587 4.37,0.58 C2.42475409,1.19208677 1.07520775,2.9621149 1,5 C0.8,7.46 2.72,9.82 4.78,10.95 C5.75924701,11.5405118 6.88684903,11.8388927 8.03,11.81 C9.00116859,11.79523 9.94542794,11.488607 10.74,10.93 C11.6845652,10.2513023 12.2491126,9.16306298 12.26,8 Z"/>
      </g>
      <path id="Path" fill="#E05362" fill-rule="nonzero" d="M44.52,26.77 C39.98,24.82 35.21,25.42 30.83,27.46 C28.14,28.71 24.27,31.85 20.74,32.07 C17.6591817,29.1894616 13.6445037,27.5140168 9.43,27.35 C5.93,27.23 3.43,29.72 2.28,32.64 C-2.16,43.88 7.74,54.44 18.56,56.76 C28.29,58.84 41.39,57.63 49,50.48 C56.61,43.33 54.32,31 44.52,26.77 Z" opacity=".5"/>
      <path id="Shape" fill="#3D454C" fill-rule="nonzero" d="M56.86,16.24 C55.43,11.01 50.44,9.09 45.56,10.24 C43.83,8.09 37.89,8.66 35.82,8.44 C32,8 29.24,4.85 24.94,5.1 C22.9052984,5.18733149 20.943801,5.88413339 19.31,7.1 C18.98817,7.42024577 18.9224688,7.91711144 19.15,8.31 L22.73,13.88 C22.8,15.13 23.2,16.38 23.26,17.64 C23.3953293,19.3765559 23.205412,21.1231169 22.7,22.79 C22.28,24.01 24.21,24.53 24.63,23.32 C25.116531,21.6996428 25.3360682,20.0108951 25.28,18.32 C25.28,17.07 24.92,15.82 24.78,14.59 L28.42,14.59 C28.9722847,14.59 29.42,14.1422847 29.42,13.59 C29.42,13.0377153 28.9722847,12.59 28.42,12.59 L24.25,12.59 C23.32,11.12 22.39,9.59 21.42,8.18 C21.7889477,7.96226077 22.1733031,7.77175418 22.57,7.61 C24.7825588,6.87374582 27.1886237,6.97696458 29.33,7.9 C29.8,8.08 30.2,8.27 30.59,8.45 L26.93,8.45 C26.3777153,8.45 25.93,8.89771525 25.93,9.45 C25.93,10.0022847 26.3777153,10.45 26.93,10.45 L35.8,10.45 C35.8498375,10.4557003 35.9001625,10.4557003 35.95,10.45 L36.25,10.45 C36.99,10.45 44.66,9.67 43.73,12.61 L39.73,12.61 C39.1777153,12.61 38.73,13.0577153 38.73,13.61 C38.73,14.1622847 39.1777153,14.61 39.73,14.61 C40.87,14.61 42.13,14.49 43.3,14.56 C43.18,15.15 43.08,15.75 43.01,16.35 C42.868153,17.5513684 42.8413647,18.7635381 42.93,19.97 C43.34,25.26 47.04,28.65 48.45,33.57 C50.45,40.68 47.95,48.69 41.05,52.06 C38.36,53.38 31.36,54 28.69,52.78 C27.53,52.25 26.51,53.97 27.69,54.5 C30.62,55.84 36.63,55.5 39.69,54.74 C43.78,53.74 47.49,50.23 49.39,46.58 C50.7305193,43.9160592 51.3510493,40.9478576 51.19,37.97 C54.59,31.91 58.77,23.27 56.86,16.24 Z M54.86,23.08 C54.0277419,27.0606811 52.6408802,30.9048463 50.74,34.5 C50.5926374,33.7487462 50.398934,33.0073297 50.16,32.28 C52.27,27.94 55.27,21.28 52.97,16.63 C51.651812,13.866277 48.5037446,12.4903288 45.58,13.4 C45.7612455,13.0141155 45.8955385,12.6078792 45.98,12.19 C52.86,10.57 56.1,16.7 54.88,23.08 L54.86,23.08 Z M45.36,15.77 C46.368682,15.304227 47.4868806,15.1276694 48.59,15.26 C49.4025572,15.5442877 50.0823072,16.1172707 50.5,16.87 C51.96,18.79 51.79,20.79 51.32,23.09 C50.8100744,25.3898702 50.0662019,27.6315399 49.1,29.78 C48.31,28.27 47.36,26.88 46.54,25.35 C44.8,22 45.19,19.07 45.38,15.77 L45.36,15.77 Z"/>
      <path id="Path" fill="#3D454C" fill-rule="nonzero" d="M42.48 46.43C45.2477076 42.9978209 45.9332077 38.3333563 44.27 34.25 43.82 33.06 41.88 33.57 42.34 34.78 43.61 38.14 43.49 42.22 41.07 45.01 40.23 46 41.64 47.4 42.48 46.43zM42.08 30C41.758461 29.8428031 41.3774831 29.8690863 41.0805771 30.0689488 40.7836711 30.2688114 40.6159441 30.6118894 40.6405771 30.9689488 40.6652102 31.3260082 40.878461 31.6428031 41.2 31.8 41.521539 31.9571969 41.9025169 31.9309137 42.1994229 31.7310512 42.4963289 31.5311886 42.6640559 31.1881106 42.6394229 30.8310512 42.6147898 30.4739918 42.401539 30.1571969 42.08 30L42.08 30z"/>
      <path id="Shape" fill="#3D454C" fill-rule="nonzero" d="M32.18,38.33 C32.01,35.4 30.8,32.23 28.25,30.57 C24.83,28.34 22.04,30.14 18.84,31.23 C19.0482058,29.4031132 20.0990137,27.778801 21.68,26.84 C22.1322526,26.552504 22.2774802,25.9596032 22.0092932,25.4956398 C21.7411063,25.0316763 21.1548504,24.8615983 20.68,25.11 C20.2372919,25.3672904 19.821831,25.6688346 19.44,26.01 C18.0475599,24.307894 16.0027889,23.2707515 13.8068528,23.1527722 C11.6109167,23.034793 9.46679359,23.8468823 7.9,25.39 C7.54296019,25.703077 7.49870738,26.2429613 7.8,26.61 C7.82724211,26.6795422 7.86071149,26.746481 7.9,26.81 C10.1918484,29.6677011 14.1731918,30.5274042 17.44,28.87 C17.1240622,29.6453091 16.9122196,30.4590535 16.81,31.29 C13.65,30.29 11.04,28.43 7.58,30.35 C4.77,31.91 3.42,35.24 3.24,38.35 C2.78,46.35 9.36,55.07 17.68,55.0800086 C26,55.09 32.65,46.42 32.18,38.33 Z M10.1,26.19 C12.3045213,24.6332309 15.2972321,24.8291326 17.28,26.66 C15.0754787,28.2167691 12.0827679,28.0208674 10.1,26.19 L10.1,26.19 Z M17.68,53.0600423 C10.93,53.0600423 5.36,45.96 5.22,39.41 C5.16,36.35 6.34,32.59 9.64,31.62 C12.53,30.77 14.82,32.94 17.45,33.56 L18,33.56 C20.65,32.94 22.9,30.8 25.8,31.62 C29.08,32.54 30.3,36.4 30.22,39.41 C30,46 24.53,53.08 17.68,53.0600423 Z"/>
      <path id="Path" fill="#3D454C" fill-rule="nonzero" d="M18.44,49.13 C12.87,48.92 9,43.31 9.07,38 C9.07,37.4477153 8.62228475,37 8.07,37 C7.51771525,37 7.07,37.4477153 7.07,38 C7,44.49 11.74,50.88 18.44,51.13 C19.73,51.18 19.73,49.18 18.44,49.13 Z"/>
    </g>
  </g>
</svg>
