<svg xmlns="http://www.w3.org/2000/svg" width="64" height="64" viewBox="0 0 64 64" style="background:#fff">
  <g id="Apricosen" fill="none" fill-rule="evenodd" stroke="none" stroke-width="1">
    <rect width="64" height="64" fill="#FFF"/>
    <g transform="translate(2 4)">
      <rect id="Rectangle" width="60" height="60" x="0" y="0"/>
      <path id="Path" fill="#31E085" fill-rule="nonzero" d="M55.3,27.26 C53.24,22.26 50.08,16.19 44.58,14.52 C44.3957444,14.4747103 44.20089,14.5148761 44.0495649,14.62934 C43.8982397,14.7438039 43.8065625,14.9203735 43.8,15.11 C43.41,20.19 45.88,25.25 46.85,30.19 C47.85,35.31 46.75,41.35 50.39,45.43 C51.74,46.93 54.78,47.06 56.09,45.43 C60.3,40.21 57.63,32.91 55.3,27.26 Z" opacity=".5"/>
      <path id="Path" fill="#E0673A" fill-rule="nonzero" d="M25,13.54 C24.4574866,13.6279292 23.920055,13.7447622 23.39,13.89 L22.68,14.02 C16.76,15.3 12.43,20.51 8.91,25.61 C5.11,31.11 1.64,36.97 3.91,44.19 C5.86189229,49.9658201 10.3719029,54.5164282 16.13,56.52 C27.62,60.62 40.13,52.61 42.99,39.52 C45.81,26.85 37.64,11.62 25,13.54 Z" opacity=".5"/>
      <path id="Shape" fill="#3D454C" fill-rule="nonzero" d="M53.82,23.67 C51.38,18.23 45.28,17 42.4,12 C42.3760084,11.9435029 42.3458239,11.8898414 42.31,11.84 C41.46,10.26 40.88,4.17 37.79,5.91 C36.59,6.58 36.84,7.98 36.53,9.15 C35.6042163,12.5895812 34.0180828,15.8161911 31.86,18.65 C28.77,14.33 23.08,14.65 18.4,16.73 C12.97,19.07 9.46,23.32 7.34,28.73 C5.39,33.73 4.34,39.73 6.18,44.87 C7.65,48.87 11.53,52.76 16.12,51.87 C16.1722371,51.8561234 16.2226031,51.835977 16.27,51.81 C21.27,56.43 29.46,54.68 34.69,49.62 C35.62,48.73 34.2,47.31 33.28,48.21 C27.78,53.52 18.77,54.78 15.28,46.86 C14.75,45.69 13.03,46.7 13.55,47.86 C13.8815617,48.6076395 14.2798399,49.3238708 14.74,50 C10.29,50.18 7.74,44.54 7.35,40.9 C7.06461418,37.3033635 7.58737768,33.6884368 8.88,30.32 C9.94498879,26.9067443 11.8943132,23.8361271 14.53,21.42 C18.47,18.11 26.67,14.68 30.31,19.94 C28.1922783,20.1803508 26.1483879,20.8616476 24.31,21.94 C18.82,25.21 15.17,31.2 13.14,37.1 C12.72,38.32 14.65,38.84 15.07,37.63 C16.5142647,33.1832314 19.0277778,29.1588634 22.39,25.91 C26.74,21.91 34.27,19.98 39.28,24.14 C39.0692795,27.2016666 39.6912771,30.2632767 41.08,33 C41.4143952,33.603198 41.7920503,34.181378 42.21,34.73 C42.1345711,34.8377497 42.083396,34.9605699 42.06,35.09 C41.56,37.82 39.82,40.09 38.37,42.41 C37.67,43.5 39.37,44.51 40.09,43.41 C41.47,41.23 43.09,39.03 43.77,36.52 C44.47,37.24 45.2,37.93 45.95,38.59 C47.77,40.2 51.8,42.35 52.58,44.8 C52.6282309,45.1572656 52.8633969,45.4616618 53.1969134,45.5985254 C53.5304299,45.7353891 53.9116278,45.6839273 54.1969134,45.4635254 C54.4821991,45.2431235 54.6282309,44.8872656 54.58,44.53 C54.51,37.72 56.72,30.14 53.82,23.67 Z M33.42,19.88 C33.4235107,19.8635182 33.4235107,19.8464818 33.42,19.83 C34.8067503,18.0331747 35.9718228,16.0757187 36.89,14 C37.32,13.05 38.05,9 38.66,8.69 C39.1782208,9.99704953 39.7794462,11.2696432 40.46,12.5 C40.32,15.5 39.75,18.65 39.46,21.77 C37.6234605,20.6734464 35.5540159,20.0258884 33.42,19.88 L33.42,19.88 Z M45.08,35 C39.9,29.43 41.5,22.31 42.23,15.43 C45.99,19.75 51.32,20.53 52.83,27.08 C53.9,31.69 53.01,36.58 52.67,41.34 C50.45,39 47,37.06 45.08,35 Z"/>
      <circle id="Oval" cx="36.74" cy="46.01" r="1" fill="#3D454C" fill-rule="nonzero"/>
    </g>
  </g>
</svg>
