<svg xmlns="http://www.w3.org/2000/svg" width="64" height="64" viewBox="0 0 64 64" style="background:#fff">
  <g id="Artischocken" fill="none" fill-rule="evenodd" stroke="none" stroke-width="1">
    <rect width="64" height="64" fill="#FFF"/>
    <g transform="translate(2 4)">
      <rect id="Rectangle" width="60" height="60" x="0" y="0"/>
      <path id="Path" fill="#31E085" fill-rule="nonzero" d="M52.35,31.38 C51.08,18.64 41.72,5.76 28.27,4.67 C13.57,3.48 3.84,17.88 9.27,31.25 C10.27,33.69 11.77,36.84 13.94,38.53 C13.77,38.69 13.65,38.82 13.59,38.86 C10.18,42 6.52,44.7 6.7,49.78 C6.78987451,52.0479679 8.49743025,53.9229036 10.7471383,54.2238514 C12.9968464,54.5247991 15.1371721,53.164602 15.82,51 C16.46,49.11 22.18,48.06 23.89,47 C24.399923,46.6808475 24.8846719,46.3231362 25.34,45.93 C26.0908321,46.5075468 26.8943787,47.0131115 27.74,47.44 C27.9,47.56 28.06,47.68 28.23,47.79 C40.62,56 53.69,44.79 52.35,31.38 Z" opacity=".5"/>
      <path id="Path" fill="#3D454C" fill-rule="nonzero" d="M32,21.45 C34.15,18.87 34.55,14.98 31.47,12.84 C29.47,11.45 26.54,12.16 24.98,13.91 C24.12,14.86 25.53,16.28 26.39,15.32 C27.2598493,14.2828284 28.6671357,13.8689206 29.96,14.27 C32.39,15.33 31.96,18.37 30.58,20.04 C29.75,21 31.15,22.44 32,21.45 Z"/>
      <path id="Path" fill="#3D454C" fill-rule="nonzero" d="M52.74,30.57 C52.83,29.23 52.92,27.57 51.65,26.69 C50.65,26.01 48.82,26.88 48.55,26.24 C48.37,25.82 49.45,23.24 49.55,22.81 C49.7776969,21.4891697 49.8247947,20.1435176 49.69,18.81 C49.3703228,15.8312613 48.0022138,13.0631444 45.83,11 C45.4378778,10.6078778 44.8021222,10.6078778 44.41,11 C44.0178778,11.3921222 44.0178778,12.0278778 44.41,12.42 C48.19,16.2 48.02,20.61 46.74,25.42 C46.48,26.42 45.74,27.92 46.68,28.82 C48.16,30.23 49.62,27.21 50.8,30.05 C51.54,31.84 49.3,36.12 48.22,37.42 C47.1848307,38.5640751 45.9387464,39.4977895 44.55,40.17 C43.46,40.75 38.38,41.88 39.73,44.17 C40.42,45.35 42.4,44.77 43.39,44.71 C46.27,44.55 47.88,44.21 44.61,46.21 C42.8997451,47.4388749 40.9342866,48.2660766 38.86,48.63 C34.1,49.05 28.76,42.33 24.27,44.3 C21.46,45.54 18.56,49.93 16.42,52.09 C15,53.45 14.65,54.1 12.88,53 C11.81,52.32 8.55,49.39 8.58,48.12 C8.58,45.57 14.33,41.9 16.1,39.91 C17.21,38.67 18.1,37.97 17.59,36.36 C17.28,35.36 15.69,34.55 15.12,33.7 C13.9499083,31.728447 13.3220149,29.4825207 13.3,27.19 C13.1799323,23.4652045 13.8620078,19.758124 15.3,16.32 C16.3,13.99 18.99,8.47 20.16,13.68 C20.2551627,14.0224917 20.5249847,14.2887223 20.8687207,14.3792875 C21.2124566,14.4698526 21.578432,14.3711375 21.83,14.12 C24.21,11.66 26.55,9 29.64,7.39 C30.04,7.19 31.57,6.23 32.08,6.39 C33.51,6.9 32.81,8.29 33,9.13 C33.15,9.8 32.8,10.19 33.22,10.8 C33.4598067,11.1788852 33.913752,11.3636771 34.35,11.26 C35.61,11 36.66,10.26 37.97,10.1 C39.28,9.94 38.7,7.98 37.44,8.17 C37.35,8.17 35.53,8.74 34.79,8.98 C35.1964329,8.1588044 35.3759629,7.24389213 35.31,6.33 C35.0686672,5.0790578 33.9187591,4.21446524 32.65,4.33 C28.46,4.18 24.47,8.4 21.58,11.48 C19.49,6.42 15,11.7 13.41,15.64 C11.627119,19.887998 10.9659693,24.5229329 11.49,29.1 C11.86,31.77 12.85,33.4 14.12,35.67 C14.32,36.03 15.49,36.67 15.5,37.03 C15.5,38.09 14.5,38.63 13.9,39.33 C11.9,41.7 8.79,43.58 7.09,46.19 C5.25,49.02 7.82,50.75 9.69,52.62 C11.56,54.49 13.33,57.11 16.13,55.23 C18.93,53.35 21.13,50.23 23.38,47.93 C23.85,47.46 24.51,46.43 25.12,46.18 C26.52,45.6 28.78,47.09 30.12,47.73 C32.12,48.73 34.18,49.99 36.4,50.47 C40.68,51.39 46.67,48.37 49.29,45.18 C49.4793127,44.9922334 49.5857983,44.7366375 49.5857983,44.47 C49.5857983,44.2033625 49.4793127,43.9477666 49.29,43.76 C48.05,42.51 46.17,42.41 44.48,42.5 C44.3834889,42.4922435 44.2865111,42.4922435 44.19,42.5 L44.77,42.21 C49.4414263,40.1823464 52.5389171,35.658533 52.74,30.57 Z"/>
      <path id="Path" fill="#3D454C" fill-rule="nonzero" d="M36.75 20C37.6270653 18.9802597 39.0302302 18.5861123 40.31 19 42.74 20.05 42.31 23.1 40.94 24.77 40.12 25.77 41.53 27.17 42.35 26.18 44.5 23.6 44.9 19.71 41.82 17.57 39.82 16.18 36.9 16.89 35.33 18.64 34.48 19.58 35.89 21 36.75 20zM43.58 37.82C45.73 35.24 46.13 31.35 43.05 29.21 41.05 27.82 38.12 28.52 36.56 30.27 35.7 31.27 37.11 32.65 37.97 31.69 38.8389758 30.6515342 40.2451121 30.2340259 41.54 30.63 43.97 31.69 43.54 34.74 42.17 36.4 41.35 37.39 42.75 38.81 43.58 37.82zM27.77 26.8C28.6398493 25.7628284 30.0471357 25.3489206 31.34 25.75 33.77 26.8 33.34 29.85 31.97 31.52 31.15 32.52 32.55 33.92 33.38 32.93 35.53 30.35 35.93 26.46 32.85 24.32 30.85 22.93 27.92 23.64 26.36 25.39 25.5 26.34 26.91 27.76 27.77 26.8zM22.54 17.7C20.54 16.31 17.61 17.01 16.05 18.76 15.19 19.76 16.6 21.14 17.46 20.18 18.3238225 19.153542 19.7142005 18.7372142 21 19.12 23.43 20.18 23 23.23 21.62 24.89 20.81 25.89 22.21 27.3 23.04 26.31 25.22 23.73 25.62 19.84 22.54 17.7zM24.54 37.63C26.69 35.05 27.09 31.16 24.01 29.02 22.01 27.63 19.08 28.34 17.52 30.09 16.66 31.04 18.07 32.46 18.93 31.5 19.7998493 30.4628284 21.2071357 30.0489206 22.5 30.45 24.93 31.5 24.5 34.55 23.12 36.22 22.3 37.2 23.71 38.62 24.54 37.63zM35.59 44.18C37.75 41.6 38.15 37.71 35.07 35.57 33.07 34.18 30.14 34.89 28.57 36.64 27.72 37.64 29.13 39.01 29.99 38.05 30.8685602 37.0326092 32.2701773 36.6388965 33.55 37.05 35.99 38.05 35.55 41.15 34.18 42.82 33.36 43.75 34.77 45.17 35.59 44.18z"/>
      <circle id="Oval" cx="41.71" cy="9.64" r="1" fill="#3D454C" fill-rule="nonzero"/>
    </g>
  </g>
</svg>
