<svg xmlns="http://www.w3.org/2000/svg" width="64" height="64" viewBox="0 0 64 64" style="background:#fff">
  <g id="Artischockenherzen" fill="none" fill-rule="evenodd" stroke="none" stroke-width="1">
    <rect width="64" height="64" fill="#FFF"/>
    <g transform="translate(2 7)">
      <rect id="Rectangle" width="60" height="60" x="0" y="0"/>
      <path id="Path" fill="#31E085" fill-rule="nonzero" d="M42,11.54 C31,3.54 13,6.88 9.29,21.2 C7.86,26.74 9.38,32.56 12.44,37.29 C13.7026767,40.3719614 15.7049767,43.0955015 18.27,45.22 C27.4,52.82 40.37,50.88 47.27,41.33 C54.29,31.53 51.62,18.52 42,11.54 Z" opacity=".5"/>
      <path id="Path" fill="#3D454C" fill-rule="nonzero" d="M29.56 33.53C29.2245435 33.2697959 28.7554565 33.2697959 28.42 33.53 25.6657983 35.8055742 23.9814261 39.1236063 23.77 42.69 23.759282 43.0258297 23.9285412 43.341867 24.2140192 43.5190639 24.4994973 43.6962607 24.8578232 43.7076967 25.1540192 43.5490639 25.4502152 43.3904311 25.639282 43.0858297 25.65 42.75 25.8390893 40.0011999 27.0312443 37.4176042 29 35.49 30.9522101 37.4271291 32.1353993 40.0066947 32.33 42.75 32.3739127 43.2446583 32.7741779 43.6321491 33.27 43.66L33.27 43.66C33.7868638 43.613297 34.1821057 43.1789652 34.1800084 42.66 33.9656279 39.1095915 32.2937098 35.8055629 29.56 33.53L29.56 33.53zM29.5 18.49C29.1905989 18.3113672 28.8094011 18.3113672 28.5 18.49 26.0702463 20.0057277 24.4957417 22.576801 24.25 25.43 24.202384 25.784274 24.3598283 26.1348958 24.6562426 26.3346854 24.952657 26.5344751 25.3367372 26.5488524 25.6472586 26.3717823 25.95778 26.1947122 26.1409966 25.8568424 26.12 25.5 26.3181697 23.4755067 27.3646148 21.6296939 29 20.42 30.6334667 21.6313921 31.6793879 23.4762809 31.88 25.5 31.8961978 26.0018723 32.3078664 26.4002613 32.81 26.4L32.81 26.4C33.0648084 26.3923913 33.3055998 26.2816189 33.4771727 26.0930772 33.6487457 25.9045355 33.7363852 25.6543949 33.72 25.4 33.4719409 22.5632748 31.9103199 20.0062128 29.5 18.49zM23.76 10.15C23.5836899 9.97352019 23.3444602 9.87436059 23.095 9.87436059 22.8455398 9.87436059 22.6063101 9.97352019 22.43 10.15L22.43 10.15C22.1602613 10.4050165 22.0658599 10.79489 22.1890648 11.1450513 22.3122697 11.4952126 22.6300042 11.7400753 23 11.77 23.2409166 11.7644827 23.4717381 11.6721541 23.65 11.51L23.65 11.51C24.0382769 11.1559707 24.0863325 10.5618286 23.76 10.15zM24.9 32.06L21.14 27.72C20.9439985 27.5026107 20.6625933 27.3820085 20.37 27.39 20.0820081 27.4161351 19.81943 27.5656587 19.65 27.8 18.5229235 29.6385515 17.7559522 31.6747584 17.39 33.8 17.3436008 34.3054764 17.6832657 34.7655288 18.18 34.8700023L18.32 34.8700023C18.7820213 34.8710051 19.1762741 34.5361021 19.25 34.08 19.4970769 32.631666 19.9447122 31.2248123 20.58 29.9L23.49 33.25C23.8419373 33.581903 24.3883141 33.5925008 24.7528574 33.274495 25.1174006 32.9564892 25.1810621 32.4137304 24.9 32.02L24.9 32.06zM22 22.87L19.26 19.71C19.0639985 19.4926107 18.7825933 19.3720085 18.49 19.38 18.1976539 19.4001196 17.9314144 19.555426 17.77 19.8 16.92878 21.1722164 16.3584834 22.6930074 16.09 24.28 16.049794 24.5255716 16.1096791 24.7770132 16.2562639 24.9780974 16.4028486 25.1791816 16.6239048 25.3131339 16.87 25.3500002L17 25.3500002C17.4597897 25.3502956 17.8507844 25.0145502 17.92 24.56 18.084193 23.6815406 18.3423426 22.8232767 18.69 22L20.55 24.14C20.7768636 24.3990176 21.1246785 24.5173293 21.4624261 24.4503684 21.8001737 24.3834075 22.0765422 24.1413469 22.1874261 23.8153684 22.2983101 23.48939 22.2268636 23.1290176 22 22.87L22 22.87zM41.91 24.28C41.6466462 22.6916298 41.0759906 21.1698814 40.23 19.8 40.0696897 19.5542621 39.8028157 19.3985856 39.51 19.38 39.2208689 19.3749392 38.9437032 19.4952875 38.75 19.71L36 22.87C35.782068 23.1218722 35.7150627 23.4708771 35.8242245 23.7855479 35.9333862 24.1002187 36.2021307 24.3327494 36.5292245 24.3955479 36.8563183 24.4583465 37.192068 24.3418723 37.41 24.09L39.28 22C39.6406238 22.840166 39.9023798 23.7193978 40.06 24.62 40.1337259 25.0761021 40.5279787 25.4110051 40.99 25.4100023L41.13 25.4100023C41.3887693 25.3745289 41.6206952 25.2318771 41.7690697 25.0169242 41.9174442 24.8019714 41.9685895 24.5345329 41.91 24.28zM40.58 33.83C40.2202866 31.7030677 39.4528803 29.665706 38.32 27.83 38.1564256 27.589227 37.8905353 27.4378172 37.6 27.42 37.3108689 27.4149392 37.0337032 27.5352875 36.84 27.75L33.07 32.09C32.9054732 32.2763412 32.8223934 32.5207931 32.8393028 32.7687975 32.8562122 33.0168019 32.9717033 33.2477149 33.16 33.41 33.5616011 33.7229515 34.1342214 33.6842028 34.49 33.32L37.39 29.97C38.0154304 31.2995697 38.4658509 32.7046128 38.73 34.15 38.7992156 34.6045502 39.1902103 34.9402956 39.65 34.9400002L39.79 34.9400002C40.0462674 34.9064216 40.277003 34.7677133 40.4268695 34.5571413 40.576736 34.3465694 40.6322146 34.0831287 40.58 33.83L40.58 33.83z"/>
      <path id="Path" fill="#3D454C" fill-rule="nonzero" d="M48.26 34.65C47.968842 34.4394247 47.5870906 34.4012496 47.26 34.55L47.26 34.55C48.3652633 31.3698701 48.8836782 28.0154208 48.79 24.65 48.7786906 24.2787996 48.549895 23.9490543 48.2061378 23.8085246 47.8623805 23.6679949 47.4681097 23.7430275 47.2 24L45.85 25.2C46.003812 20.5691611 44.8348338 15.9903741 42.48 12 42.3377733 11.7611532 42.0951766 11.599422 41.82 11.56 41.5418461 11.5175594 41.2593073 11.6019541 41.05 11.79 40.24 12.53 39.49 13.22 38.83 13.84 36.3249337 10.4803226 33.1126055 7.71178045 29.42 5.73 29.145194 5.5972406 28.824806 5.5972406 28.55 5.73 27.4595285 6.30665685 26.4103466 6.95821887 25.41 7.68 25.0271439 7.9956143 24.9555247 8.5544475 25.2464175 8.95640842 25.5373102 9.35836934 26.090528 9.46501785 26.51 9.2 27.3035966 8.60902325 28.1354121 8.07118272 29 7.59 32.3185946 9.4722452 35.2016592 12.0349693 37.46 15.11 36.19 16.33 35.46 17.11 35.46 17.11 35.146685 17.4866572 35.1752119 18.0408013 35.5255482 18.3832942 35.8758845 18.7257872 36.4305324 18.7417617 36.8 18.42 36.8 18.42 37.72 17.48 39.25 16.02 39.3270291 15.9611266 39.3974413 15.8940673 39.46 15.82 40.05 15.26 40.73 14.62 41.46 13.94 43.488852 17.9322662 44.3189123 22.4264002 43.85 26.88 43.07 27.53 42.54 27.94 42.53 27.95 42.2656235 28.157214 42.1318768 28.4897309 42.1791412 28.8222947 42.2264055 29.1548586 42.4475003 29.436945 42.7591412 29.5622947 43.0707821 29.6876445 43.4256235 29.6372141 43.69 29.43 43.69 29.43 45.15 28.27 46.84 26.81 46.49 33.04 44.68 35.57 44.65 35.62 44.6095987 35.668576 44.5759598 35.7223981 44.55 35.78 42.04 36.78 39.55 37.57 39.55 37.58 39.3100382 37.6490625 39.1084564 37.8126978 38.9915371 38.0333359 38.8746178 38.253974 38.8524055 38.5126598 38.93 38.75 39.0835714 39.2428924 39.605915 39.5196898 40.1 39.37 40.26 39.37 43.33 38.37 46.1 37.16 45.5379471 38.5541211 44.758254 39.8502343 43.79 41 43.6278379 41.1888944 43.5481801 41.434919 43.5688546 41.6830121 43.589529 41.9311052 43.7088094 42.1605517 43.9 42.32 44.0668267 42.4634577 44.2799803 42.5416141 44.5 42.5400245 44.7768897 42.5414131 45.0403175 42.4206753 45.22 42.21 46.8327933 40.3129694 47.9830052 38.0673176 48.58 35.65 48.6867827 35.2826057 48.5602363 34.8871482 48.26 34.65L48.26 34.65zM42.65 43.45C42.3364718 43.0410984 41.7521964 42.9608163 41.34 43.27L41.34 43.27C40.966623 43.5959157 40.9104344 44.1557339 41.2115921 44.5493524 41.5127498 44.9429708 42.0677789 45.0351459 42.48 44.76 42.8856532 44.4434578 42.9614213 43.8595977 42.65 43.45L42.65 43.45zM39.37 45.64C39.127577 45.1949036 38.5904979 45.0015551 38.12 45.19 37.3823385 45.538745 36.6242925 45.8426313 35.85 46.1 34.0694827 46.6512932 32.8541134 48.2960931 32.85 50.16L32.85 51.71 25.07 51.71 25.07 50.16C25.0727885 48.3096052 23.8807353 46.6690167 22.12 46.1 19.12 45.1 14.12 42.7 11.86 37.1 14.69 38.31 17.75 39.26 17.91 39.31 18.4038101 39.4338324 18.9118319 39.1669057 19.09 38.69 19.2396898 38.195915 18.9628924 37.6735714 18.47 37.52 18.47 37.52 15.94 36.74 13.47 35.72 13.4403026 35.6644786 13.4068934 35.6110239 13.37 35.56 13.37 35.56 11.52 33 11.17 26.75 12.86 28.21 14.3 29.35 14.32 29.37 14.7286907 29.6903251 15.3196748 29.6186907 15.64 29.21 15.9603251 28.8013093 15.8886907 28.2103252 15.48 27.89L14.16 26.82C13.6930121 22.3653821 14.5266155 17.8708703 16.56 13.88 17.3 14.56 17.98 15.2 18.56 15.76 18.6225587 15.8340673 18.6929709 15.9011266 18.77 15.96 20.31 17.42 21.21 18.34 21.23 18.36 21.5994676 18.6817617 22.1541155 18.6657872 22.5044518 18.3232942 22.8547881 17.9808013 22.883315 17.4266572 22.57 17.05 22.57 17.05 21.81 16.28 20.57 15.05 20.79 14.75 21.09 14.35 21.48 13.88 21.7276044 13.4706839 21.628308 12.9406949 21.2493228 12.6487739 20.8703377 12.3568529 20.3325588 12.3961218 20 12.74 19.67 13.14 19.39 13.5 19.17 13.8 18.5 13.18 17.76 12.49 16.94 11.75 16.7337723 11.5636023 16.4549759 11.4792297 16.18 11.52 15.9021921 11.5593235 15.6564739 11.7206907 15.51 11.96 13.1552605 15.9536749 11.9895838 20.5365883 12.15 25.17 11.7 24.78 11.24 24.38 10.8 23.97 10.5222737 23.7359356 10.1394711 23.6708592 9.8 23.8 9.45951016 23.9504897 9.23990789 24.287736 9.24 24.66 9.14301457 28.0264452 9.66500305 31.3820854 10.78 34.56L10.78 34.56C10.4558033 34.3948524 10.0650744 34.4339253 9.78 34.66 9.4891876 34.9037299 9.36137055 35.2910543 9.45 35.66 11.45 43.5 17.91 46.71 21.6 47.92 22.588615 48.2404341 23.2586712 49.1607522 23.26 50.2L23.26 52.69C23.26 52.9393035 23.3590354 53.1783962 23.5353196 53.3546804 23.7116038 53.5309646 23.9506965 53.63 24.2 53.63L33.9 53.63C34.4152382 53.6245184 34.8300292 53.2052674 34.83 52.69L34.83 50.16C34.8295501 49.1170253 35.5054781 48.1942015 36.5 47.88 37.3461019 47.597053 38.1742855 47.2631079 38.98 46.88 39.4208942 46.6376409 39.5927906 46.0910987 39.37 45.64L39.37 45.64z"/>
    </g>
  </g>
</svg>
