<svg xmlns="http://www.w3.org/2000/svg" width="64" height="64" viewBox="0 0 64 64" style="background:#fff">
  <g id="Aubergine" fill="none" fill-rule="evenodd" stroke="none" stroke-width="1">
    <rect width="64" height="64" fill="#FFF"/>
    <g transform="translate(2 4)">
      <rect id="Rectangle" width="60" height="60" x="0" y="0"/>
      <path id="Path" fill="#31E085" fill-rule="nonzero" d="M23.11,14.06 C22.5113984,12.5811577 21.4385746,11.3430135 20.06,10.54 C17.9447538,9.38238218 15.4045484,9.30173287 13.2201296,10.3228401 C11.0357107,11.3439473 9.46843021,13.3446419 9,15.71 C8.53023254,18.3223023 9.39682296,20.9965711 11.309444,22.8368661 C13.222065,24.6771611 15.9277374,25.4400696 18.52,24.87 C21.3361089,24.2263615 23.5263026,22.012785 24.14,19.19 C24.4433141,17.4114587 24.076322,15.5836242 23.11,14.06 Z" opacity=".5"/>
      <path id="Path" fill="#4885E0" fill-rule="nonzero" d="M56.09,33.49 C52,23.06 39.22,18.23 28.9,22 C24.3072037,23.7217981 20.6159577,27.24329 18.68,31.75 C15.87,28.23 13.2,24.62 10.25,21.95 C9.96696407,21.7327315 9.58960449,21.682733 9.25975354,21.8187965 C8.9299026,21.95486 8.69753989,22.256369 8.65,22.61 C9,39.74 24.49,61.81 43.87,56.84 C54.22,54.19 60.05,43.57 56.09,33.49 Z" opacity=".5"/>
      <path id="Shape" fill="#3D454C" fill-rule="nonzero" d="M52.86,29.61 C50.4895664,26.6640464 47.0705905,24.75028 43.32,24.27 C40.02,23.73 36.61,24.07 33.32,23.39 C30.03,22.71 28,20.77 25.6,18.71 C25.6595746,18.5452193 25.6595746,18.3647807 25.6,18.2 C24.32,15.06 22.6,11.07 18.94,10.2 C16.42,9.56 13.94,10.71 11.8,11.99 C10.9921832,10.5986266 10.4496599,9.06938919 10.2,7.48 C10.09,6.21 8.09,6.2 8.2,7.48 C8.47,10.48 10.46,12.27 8.57,14.8 C7.28,16.53 6.14,17.38 5.86,19.7 C5.78796027,20.6616438 5.89649452,21.628277 6.18,22.55 C6.64347724,25.0126406 6.48886048,27.5517914 5.73,29.94 C5.64347719,30.247696 5.70925478,30.5782135 5.90699064,30.8293381 C6.1047265,31.0804626 6.41059337,31.2219335 6.73,31.21 C8.07806678,31.1929801 9.39830872,30.8241397 10.56,30.14 C14.97,39.02 20.44,48.75 29.75,53.14 C37.75,56.92 47.84,55.96 52.95,48.08 C56.39,42.66 56.84,34.88 52.86,29.61 Z M8,29 C8.60981052,26.9153482 8.72621273,24.7174007 8.34,22.58 C7.47,18.74 9.34,16.99 11.95,14.21 C13.52,13.21 15.32,12.02 17.22,12 C20.4,12 22.11,15.11 23.22,17.75 C21.35,17.81 18.99,16.64 17.27,16.53 C16.9528963,16.5190368 16.6494065,16.6592128 16.4521587,16.907745 C16.254911,17.1562772 16.1873143,17.4836701 16.27,17.79 C17.03,20.46 18.48,22.12 20.27,24.03 C16.94,25.47 15.53,24.03 13.2,21.12 C12.61,20.39 11.53,21.05 11.49,21.83 C11.35,24.8 11.46,28.13 8,29 Z M52.8,43.7 C49.14,54.19 36.8,55.38 28.31,50.08 C20.55,45.24 15.93,36.59 12,28.62 C12.7787279,27.2836489 13.2341858,25.7837199 13.33,24.24 C15.99,27.02 18.23,27.5 22.47,25.17 C22.7406993,25.0136667 22.9227192,24.7397416 22.9619755,24.4296171 C23.0012317,24.1194927 22.8932073,23.8088531 22.67,23.59 C21.1634963,22.1853086 19.878873,20.5601422 18.86,18.77 C20.414253,19.3204584 22.0424726,19.6339665 23.69,19.7 C25.95,21.64 27.83,23.79 30.76,24.79 C34.35,26.01 38.23,25.67 41.94,26.1 C50.92,27.14 55.76,35.21 52.8,43.7 Z"/>
      <path id="Path" fill="#3D454C" fill-rule="nonzero" d="M45.49,47.27 C34.73,54.02 24.49,42.87 19.49,34.15 C19.202504,33.6977474 18.6096032,33.5525198 18.1456398,33.8207068 C17.6816763,34.0888937 17.5115983,34.6751496 17.76,35.15 C23.41,44.9 34.72,56.39 46.5,49 C47.59,48.31 46.59,46.58 45.49,47.27 Z"/>
      <circle id="Oval" cx="48.83" cy="45.28" r="1" fill="#3D454C" fill-rule="nonzero"/>
    </g>
  </g>
</svg>
