<svg xmlns="http://www.w3.org/2000/svg" width="64" height="64" viewBox="0 0 64 64" style="background:#fff">
  <g id="Austern" fill="none" fill-rule="evenodd" stroke="none" stroke-width="1">
    <rect width="64" height="64" fill="#FFF"/>
    <g transform="translate(2 9)">
      <rect id="Rectangle" width="60" height="60" x="0" y="0"/>
      <path id="Path" fill="#EBE53F" fill-rule="nonzero" d="M50.49,20.79 C47.79,13.12 36.55,10.62 29.4,10.22 C20.59,9.74 10,12.15 4.32,19.37 C2,22.38 4,28.52 8.6,26.74 C15.24,24.17 21.41,20.9 28.67,20.5 C32.1682098,20.3024535 35.6772815,20.5579032 39.11,21.26 C42.3,21.91 45.53,23.26 48.82,22.99 C49.3583318,22.97959 49.8622822,22.7233348 50.1878315,22.2944675 C50.5133807,21.8656002 50.6247087,21.311309 50.49,20.79 Z" opacity=".5"/>
      <path id="Path" fill="#E0A075" fill-rule="nonzero" d="M49.28,30.71 C43.43,19.71 25.14,22.43 24.19,22.59 C19.1,23.46 13.86,26.04 11.38,31.05 C8.8284438,36.5223789 10.7017078,43.0382652 15.77,46.32 C19.06,48.5 23.22,50.48 27.96,49.86 L27.96,49.86 C31.96,51.37 37.17,49.86 41.23,47.86 C47.41,44.77 53.07,37.84 49.28,30.71 Z" opacity=".5"/>
      <path id="Path" d="M33.83 36.89L43.18 36.89 43.32 36.78C43.9912993 36.3496303 44.4351048 35.6417422 44.53 34.85 44.53 33.7 43.08 32.43 40.65 31.47 38.0368516 30.509036 35.2913928 29.9558969 32.51 29.83L31 29.73 32.16 30.73C33.4357638 31.7211852 34.2081184 33.2256295 34.27 34.84 34.2497109 35.3109368 34.1586925 35.7761421 34 36.22L33.83 36.89zM25.76 30.05L25.6 30.05C23.5985537 30.2783152 21.6333908 30.7553291 19.75 31.47 17.32 32.47 15.87 33.7 15.87 34.85 15.9648952 35.6417422 16.4087007 36.3496303 17.08 36.78L17.22 36.89 31.4 36.89 31.55 36.69C31.9800532 36.1715268 32.2230988 35.5234052 32.24 34.85 32.24 32.75 29.58 30.78 25.76 30.05zM43 39.18L40.38 44.44C40.2089345 44.7795038 39.8601569 44.9926457 39.48 44.99 39.3230224 44.9927664 39.1679993 44.9548719 39.03 44.88 38.5359191 44.6340469 38.3345164 44.0343143 38.58 43.54L40.91 38.9 31.2 38.9 31.2 44C31.2 44.5522847 30.7522847 45 30.2 45 29.6477153 45 29.2 44.5522847 29.2 44L29.2 38.9 19.54 38.9 21.86 43.54C22.1054836 44.0343143 21.9040809 44.6340469 21.41 44.88 21.2852644 44.9530691 21.1444486 44.9942835 21 45 20.6198431 45.0026457 20.2710655 44.7895038 20.1 44.45L17.29 38.9 7.4 38.9 7.94 39.71C11.9103124 45.5359074 18.4899729 49.0388289 25.54 49.08L34.85 49.08C41.9035711 49.0421093 48.4876837 45.5388081 52.46 39.71L53 38.9 43.18 38.9 43 39.18z"/>
      <path id="Path" fill="#39A0D3" fill-rule="nonzero" d="M33.83,12.64 L34,12.64 C33.9434724,12.6343855 33.8865276,12.6343855 33.83,12.64 Z"/>
      <path id="Path" fill="#3D454C" fill-rule="nonzero" d="M38.35,15 C38.8436862,14.7646502 39.0567217,14.1763532 38.8281924,13.6794729 C38.599663,13.1825927 38.0143553,12.9614765 37.5143753,13.183142 C37.0143953,13.4048076 36.7852402,13.987015 37,14.49 C37.1069575,14.7405032 37.3114713,14.9365372 37.5662767,15.032797 C37.8210821,15.1290568 38.1041279,15.117212 38.35,15 Z"/>
      <path id="Shape" fill="#3D454C" fill-rule="nonzero" d="M54.68,36.89 L51.68,36.89 L52.37,36.04 C54.4706718,33.5798942 55.6482114,30.4645418 55.7,27.23 C55.7,22.48 53.02,18.6 47.96,16.01 C46.1583411,15.1122674 44.2636887,14.4147671 42.31,13.93 L42.31,13.93 C42.052085,13.8157556 41.757915,13.8157556 41.5,13.93 C41.2486396,14.0387053 41.0528596,14.245741 40.9583602,14.5027795 C40.8638607,14.7598179 40.8789118,15.044365 41,15.29 C41.1169985,15.5250286 41.3217317,15.704619 41.57,15.79 L41.57,15.79 C43.4556318,16.251124 45.283691,16.9219714 47.02,17.79 C51.43,20.04 53.66,23.22 53.66,27.22 C53.66,30.69 52.01,33.99 48.87,36.75 L48.73,36.88 L46,36.88 L46.28,36.17 C46.4478084,35.7464542 46.5359532,35.2955594 46.54,34.84 C46.54,32.77 44.71,30.91 41.39,29.6 C37.8038975,28.3066005 34.0115694,27.6796294 30.2,27.75 C26.3844632,27.6816111 22.5886174,28.3119926 19,29.61 C15.68,30.92 13.85,32.78 13.85,34.85 C13.8540468,35.3055594 13.9421916,35.7564542 14.11,36.18 L14.39,36.89 L11.66,36.89 L11.52,36.76 C8.38,34 6.73,30.7 6.73,27.23 C6.73,23.23 8.96,20.05 13.37,17.8 C17.56,15.66 23.37,14.52 30.2,14.52 C31.46,14.52 32.68,14.58 33.87,14.65 L33.87,14.65 C34.0416353,14.6635424 34.2138599,14.632542 34.37,14.56 C34.8640809,14.3140469 35.0654836,13.7143143 34.82,13.22 C34.6599273,12.9089694 34.3489672,12.7041908 34,12.68 L33.84,12.68 C32.66,12.61 31.45,12.56 30.21,12.56 C23.07,12.56 16.93,13.77 12.47,16.05 C7.4,18.6 4.72,22.48 4.72,27.23 C4.78102696,30.4507293 5.95799777,33.5504392 8.05,36 L8.74,36.85 L5.74,36.85 C5.38895275,36.8479557 5.06254171,37.0301386 4.88,37.33 C4.70136721,37.6394011 4.70136721,38.0205989 4.88,38.33 C8.83520597,46.1186696 16.814699,51.0407081 25.55,51.08 L34.85,51.08 C43.6011089,51.0613598 51.6038431,46.1407598 55.57,38.34 C55.7486328,38.0305989 55.7486328,37.6494011 55.57,37.34 C55.3746343,37.0422152 55.0356336,36.8708104 54.68,36.89 Z M32.51,29.83 C35.2913928,29.9558969 38.0368516,30.509036 40.65,31.47 C43.08,32.47 44.53,33.7 44.53,34.85 C44.4351048,35.6417422 43.9912993,36.3496303 43.32,36.78 L43.18,36.89 L33.83,36.89 L34.04,36.22 C34.1773195,35.7762207 34.2480888,35.3145353 34.25,34.85 C34.1881184,33.2356295 33.4157638,31.7311852 32.14,30.74 L30.98,29.74 L32.51,29.83 Z M19.75,31.47 C21.6333908,30.7553291 23.5985537,30.2783152 25.6,30.05 L25.76,30.05 C29.58,30.78 32.24,32.75 32.24,34.85 C32.2230988,35.5234052 31.9800532,36.1715268 31.55,36.69 L31.4,36.89 L17.22,36.89 L17.08,36.78 C16.4087007,36.3496303 15.9648952,35.6417422 15.87,34.85 C15.87,33.7 17.32,32.43 19.75,31.47 Z M52.46,39.71 C48.4876837,45.5388081 41.9035711,49.0421093 34.85,49.08 L25.54,49.08 C18.4899729,49.0388289 11.9103124,45.5359074 7.94,39.71 L7.4,38.9 L17.29,38.9 L20.06,44.44 C20.2343664,44.7967339 20.6032758,45.0165097 21,45 C21.1571322,45.0041815 21.3125163,44.9661987 21.45,44.89 C21.9440809,44.6440469 22.1454836,44.0443143 21.9,43.55 L19.54,38.9 L29.2,38.9 L29.2,44 C29.2,44.5522847 29.6477153,45 30.2,45 C30.7522847,45 31.2,44.5522847 31.2,44 L31.2,38.9 L40.87,38.9 L38.54,43.54 C38.4228106,43.7786162 38.4054558,44.0540741 38.4917702,44.3055117 C38.5780846,44.5569494 38.7609635,44.7636703 39,44.88 C39.1379993,44.9548719 39.2930224,44.9927664 39.45,44.99 C39.8301569,44.9926457 40.1789345,44.7795038 40.35,44.44 L43,39.18 L43.22,38.9 L53,38.9 L52.46,39.71 Z"/>
    </g>
  </g>
</svg>
