<svg xmlns="http://www.w3.org/2000/svg" width="64" height="64" viewBox="0 0 64 64" style="background:#fff">
  <g id="Austernpilz" fill="none" fill-rule="evenodd" stroke="none" stroke-width="1">
    <rect width="64" height="64" fill="#FFF"/>
    <g transform="translate(2 8)">
      <rect id="Rectangle" width="60" height="60" x="0" y="0"/>
      <path id="Path" fill="#D4BA39" fill-rule="nonzero" d="M53.88,31 C52.8650819,30.209665 51.8031294,29.4816598 50.7,28.82 C50.0942039,27.3148152 48.892417,26.1275076 47.38,25.54 L45.81,24.86 C50.56,21.96 51.23,14.17 44.51,12.32 C43.4,12.01 42.29,11.73 41.17,11.47 C40.0191575,9.48666935 37.8718422,8.29585048 35.58,8.37 C28.67185,8.17289049 21.7591051,8.53742324 14.91,9.46 C11.27,9.95 8.2,12.22 8.16,16.23 C8.1588211,16.5247695 8.18223564,16.8191237 8.23,17.11 C8.02438836,19.0315657 8.6712961,20.946705 10,22.35 C11.8229658,24.1507797 13.8345641,25.7500003 16,27.12 C12.0877184,28.9588888 8.39732571,31.2368675 5,33.91 C2.66,35.83 4.51,40.5 7.59,40.15 C13.65,39.45 19.64,37.26 25.51,34.96 C32.88,38.11 41.16,42.39 48.91,42.96 C54.64,43.35 58.62,34.75 53.88,31 Z" opacity=".5"/>
      <path id="Path" d="M26 48.43C26.5841898 48.6234329 27.1827071 48.7705545 27.79 48.87 27.79 47.87 27.79 46.92 27.71 45.92 27.5102657 46.9565725 26.8915508 47.8647447 26 48.43L26 48.43zM33.85 48C33.77 48.21 33.69 48.43 33.6 48.64 33.8927961 48.8567399 34.2039809 49.0474661 34.53 49.21L34.62 48.96C34.4298074 48.7617613 34.252764 48.5513135 34.09 48.33 34 48.23 33.93 48.12 33.85 48zM31 47.32L31 49.1 32.26 49.1C32.0590563 48.9241626 31.8749277 48.7299906 31.71 48.52 31.4113356 48.1600831 31.1716878 47.7550447 31 47.32L31 47.32z"/>
      <circle id="Oval" cx="37.78" cy="11.37" r="1" fill="#3D454C" fill-rule="nonzero"/>
      <path id="Path" d="M17 34.79L16.64 35.08C19.8603514 38.7345619 22.1760307 43.0953012 23.4 47.81L23.76 47.75C22.2460095 42.870057 21.0073909 37.9089056 20.05 32.89 18.9656195 33.4075376 17.9425825 34.0448393 17 34.79zM12.58 37.51C14.87 38.8 17.89 41.51 20.5 47.34L20.5 47.34C20.7782879 47.4842114 21.0740815 47.5917727 21.38 47.66 20.1561574 43.3987065 17.9931897 39.4657273 15.05 36.15 14.2686222 36.6756769 13.4420312 37.1308039 12.58 37.51zM20.33 30.67C21.49 30.18 22.52 29.84 23.47 29.52 24.05 29.33 24.76 29.1 25.19 28.9 24.2458806 28.6058127 23.2579676 28.4772486 22.27 28.52 19.8537639 28.5622971 17.4547441 28.935777 15.14 29.63 8.95 31.41 6.14 34.08 6.14 34.63 6.4915331 35.3794045 7.15252708 35.9381452 7.95 36.16 8.19765382 36.2374379 8.45214555 36.2910151 8.71 36.32L8.71 36.32C8.89653323 36.3100183 9.08346677 36.3100183 9.27 36.32 11.09 36.32 13.27 35.32 15.84 33.26 17.2108983 32.1949765 18.7217101 31.3234837 20.33 30.67L20.33 30.67zM25.89 32.15C25.54 34 25.44 37.35 27.09 42.7 26.84 39.49 26.44 36 25.89 32.15zM24.12 31.31L24.07 31.31C23.39 31.53 22.63 31.78 21.84 32.08 22.7628923 37.0629108 23.9749406 41.9879005 25.47 46.83 25.7889546 46.5511063 26.0214396 46.1867643 26.14 45.78 23.32 38.2 23.56 33.63 24.12 31.31zM26.73 48.27C26.9370479 48.331674 27.1473745 48.3817518 27.36 48.42 27.36 48.15 27.36 47.87 27.36 47.59 27.1720993 47.8361828 26.9611439 48.0638807 26.73 48.27L26.73 48.27zM36.86 21.25C37.8821282 21.452937 38.8855921 21.7405966 39.86 22.11 40.46 20.71 40.99 19.6 41.39 18.8L37.39 18.62C37.26 19.21 37.08 20.11 36.86 21.25zM43.52 18.88C43.17 19.55 42.52 20.93 41.65 22.88 42.07 23.08 42.52 23.31 43.01 23.58 43.9919155 21.8939844 45.1738009 20.332687 46.53 18.93L45.53 18.93C44.92 18.92 44.24 18.91 43.52 18.88zM21.31 26.66C20.4808701 24.0017368 19.5060626 21.3911221 18.39 18.84 16.95 18.9 15.94 18.92 15.07 18.92 14.63 18.92 14.23 18.92 13.85 18.92 16.1056828 21.245522 17.960768 23.9284685 19.34 26.86 20 26.75 20.69 26.69 21.31 26.66zM34.18 21L35 21 35.49 18.55C34.05 18.5 32.72 18.47 31.49 18.46L31.49 21.33C32.3675372 21.0984409 33.2725128 20.9874216 34.18 21zM23.3 26.67C23.8965242 26.6977519 24.4891249 26.7814526 25.07 26.92 24.41 23.02 23.79 20.01 23.5 18.62L20.43 18.76C21.5209677 21.3459846 22.478887 23.9861036 23.3 26.67L23.3 26.67zM46 32.73C44.93 32.4 43.73 32.01 42.36 31.56L38.16 43.48 39.05 43.7C40.9082285 39.7722656 43.2424126 36.0879492 46 32.73L46 32.73zM40.89 44.25L41.52 44.46C44.65 38.4 47.78 35.36 50.09 33.84 49.46 33.7 48.76 33.52 47.99 33.31 45.1710184 36.6423384 42.7853746 40.3182458 40.89 44.25L40.89 44.25zM49 29C47.18 28.06 45.12 27 43 25.71 40.3605123 23.9802935 37.3028379 22.9956187 34.15 22.86 33.2897982 22.8448447 32.4335712 22.9802165 31.62 23.26 30.78 23.56 30.46 23.95 30.4 24.11 30.4 24.11 30.49 24.5 31.3 25.11 32.94 26.21 36.53 27.55 42.1 29.45 45.0437306 30.5142771 48.0492363 31.3992316 51.1 32.1 51.8468498 32.2590353 52.6066829 32.349412 53.37 32.37 54.16 32.37 54.37 32.2 54.37 32.2 54.2 31.68 50.83 29.94 49 29zM27.26 28.51L27.26 28.51C27.3119691 28.6782608 27.3356245 28.8539862 27.33 29.03 28.4392247 35.5121939 29.0808794 42.0657613 29.25 48.64L29.5 48.64 29.5 26C28.6811069 25.4703246 28.3038009 24.4682324 28.57 23.53 28.7514823 23.0315639 29.0747459 22.5970699 29.5 22.28L29.5 18.46C28.22 18.46 26.88 18.46 25.41 18.55 25.79 20.27 26.52 24 27.26 28.51zM35.82 43.09L36.27 43.09 40.55 30.9C39.25 30.45 38.09 30.04 37.05 29.65 37.248362 34.1533599 36.8243632 38.662553 35.79 43.05L35.82 43.09zM35.7 45L35.38 45C34.76 45 34.5 45.14 34.46 45.26 34.4391005 46.0724061 34.7411738 46.8599544 35.3 47.45 36.1441998 48.5657689 37.3151631 49.3906863 38.65 49.81 39.275854 49.9986812 39.92633 50.0930508 40.58 50.09 42.73 50.09 44.46 49.09 44.67 48.4 44.67 48.24 44.51 47.91 43.76 47.48 42.5078258 46.8375214 41.1946501 46.3216309 39.84 45.94 38.4981914 45.477391 37.1100171 45.1622017 35.7 45L35.7 45zM32.39 46.05L32.39 46.05C32.3176828 46.3966605 32.3899147 46.75782 32.59 47.05L32.75 46.63C32.6256955 46.2585966 32.5549839 45.8713662 32.54 45.48 32.5 45.66 32.39 46.05 32.39 46.05zM31.41 41.76C32.49 35.94 32.08 32.05 31.41 29.63L31.41 41.76zM35.1 28.93C34.27 28.6 33.54 28.28 32.89 27.98 34.01 31.04 34.69 36.14 32.89 44.21 33.1075502 43.8567815 33.42395 43.5751508 33.8 43.4 34.9696362 38.6713396 35.4080535 33.7914176 35.1 28.93L35.1 28.93z"/>
      <path id="Path" d="M20.33 30.67C21.49 30.18 22.52 29.84 23.47 29.52 24.05 29.33 24.76 29.1 25.19 28.9 24.2458806 28.6058127 23.2579676 28.4772486 22.27 28.52 19.8537639 28.5622971 17.4547441 28.935777 15.14 29.63 8.95 31.41 6.14 34.08 6.14 34.63 6.4915331 35.3794045 7.15252708 35.9381452 7.95 36.16 8.19765382 36.2374379 8.45214555 36.2910151 8.71 36.32L8.71 36.32C8.89653323 36.3100183 9.08346677 36.3100183 9.27 36.32 11.09 36.32 13.27 35.32 15.84 33.26 17.2108983 32.1949765 18.7217101 31.3234837 20.33 30.67L20.33 30.67zM21.31 26.66C20.4808701 24.0017368 19.5060626 21.3911221 18.39 18.84 16.95 18.9 15.94 18.92 15.07 18.92 14.63 18.92 14.23 18.92 13.85 18.92 16.1056828 21.245522 17.960768 23.9284685 19.34 26.86 20 26.75 20.69 26.69 21.31 26.66zM24.12 31.31L24.07 31.31C23.39 31.53 22.63 31.78 21.84 32.08 22.7628923 37.0629108 23.9749406 41.9879005 25.47 46.83 25.7889546 46.5511063 26.0214396 46.1867643 26.14 45.78 23.32 38.2 23.56 33.63 24.12 31.31zM23.3 26.67C23.8965242 26.6977519 24.4891249 26.7814526 25.07 26.92 24.41 23.02 23.79 20.01 23.5 18.62L20.43 18.76C21.5209677 21.3459846 22.478887 23.9861036 23.3 26.67L23.3 26.67zM17 34.79L16.64 35.08C19.8603514 38.7345619 22.1760307 43.0953012 23.4 47.81L23.76 47.75C22.2460095 42.870057 21.0073909 37.9089056 20.05 32.89 18.9656195 33.4075376 17.9425825 34.0448393 17 34.79zM25.89 32.15C25.54 34 25.44 37.35 27.09 42.7 26.84 39.49 26.44 36 25.89 32.15zM34.18 21L35 21 35.49 18.55C34.05 18.5 32.72 18.47 31.49 18.46L31.49 21.33C32.3675372 21.0984409 33.2725128 20.9874216 34.18 21zM34.44 11.94C34.7803487 11.7702106 34.9848367 11.4120517 34.9580458 11.032647 34.931255 10.6532423 34.6784658 10.3273729 34.3176347 10.2070959 33.9568036 10.0868188 33.5590506 10.1958408 33.3099752 10.4832901 33.0608997 10.7707393 33.0095946 11.1799593 33.18 11.52 33.4161094 11.979107 33.9756483 12.16562 34.44 11.94L34.44 11.94zM43.52 18.88C43.17 19.55 42.52 20.93 41.65 22.88 42.07 23.08 42.52 23.31 43.01 23.58 43.9919155 21.8939844 45.1738009 20.332687 46.53 18.93L45.53 18.93C44.92 18.92 44.24 18.91 43.52 18.88zM41.94 12.72C42.2834605 12.5547346 42.4931248 12.198425 42.4708102 11.8179256 42.4484957 11.4374262 42.19862 11.1080664 41.8381963 10.9840807 41.4777725 10.8600949 41.0781557 10.9660292 40.8264804 11.2522761 40.5748051 11.538523 40.5208968 11.9484128 40.69 12.29 40.9185034 12.7515753 41.4758935 12.9433175 41.94 12.72L41.94 12.72zM36.86 21.25C37.8821282 21.452937 38.8855921 21.7405966 39.86 22.11 40.46 20.71 40.99 19.6 41.39 18.8L37.39 18.62C37.26 19.21 37.08 20.11 36.86 21.25zM12.58 37.51C14.87 38.8 17.89 41.51 20.5 47.34L20.5 47.34C20.7782879 47.4842114 21.0740815 47.5917727 21.38 47.66 20.1561574 43.3987065 17.9931897 39.4657273 15.05 36.15 14.2686222 36.6756769 13.4420312 37.1308039 12.58 37.51zM46 32.73C44.93 32.4 43.73 32.01 42.36 31.56L38.16 43.48 39.05 43.7C40.9082285 39.7722656 43.2424126 36.0879492 46 32.73L46 32.73zM40.89 44.25L41.52 44.46C44.65 38.4 47.78 35.36 50.09 33.84 49.46 33.7 48.76 33.52 47.99 33.31 45.1710184 36.6423384 42.7853746 40.3182458 40.89 44.25L40.89 44.25zM35.7 45L35.38 45C34.76 45 34.5 45.14 34.46 45.26 34.4391005 46.0724061 34.7411738 46.8599544 35.3 47.45 36.1441998 48.5657689 37.3151631 49.3906863 38.65 49.81 39.275854 49.9986812 39.92633 50.0930508 40.58 50.09 42.73 50.09 44.46 49.09 44.67 48.4 44.67 48.24 44.51 47.91 43.76 47.48 42.5078258 46.8375214 41.1946501 46.3216309 39.84 45.94 38.4981914 45.477391 37.1100171 45.1622017 35.7 45L35.7 45zM35.82 43.09L36.27 43.09 40.55 30.9C39.25 30.45 38.09 30.04 37.05 29.65 37.248362 34.1533599 36.8243632 38.662553 35.79 43.05L35.82 43.09zM49 29C47.18 28.06 45.12 27 43 25.71 40.3605123 23.9802935 37.3028379 22.9956187 34.15 22.86 33.2897982 22.8448447 32.4335712 22.9802165 31.62 23.26 30.78 23.56 30.46 23.95 30.4 24.11 30.4 24.11 30.49 24.5 31.3 25.11 32.94 26.21 36.53 27.55 42.1 29.45 45.0437306 30.5142771 48.0492363 31.3992316 51.1 32.1 51.8468498 32.2590353 52.6066829 32.349412 53.37 32.37 54.16 32.37 54.37 32.2 54.37 32.2 54.2 31.68 50.83 29.94 49 29zM27.26 28.51L27.26 28.51C27.3119691 28.6782608 27.3356245 28.8539862 27.33 29.03 28.4392247 35.5121939 29.0808794 42.0657613 29.25 48.64L29.5 48.64 29.5 26C28.6811069 25.4703246 28.3038009 24.4682324 28.57 23.53 28.7514823 23.0315639 29.0747459 22.5970699 29.5 22.28L29.5 18.46C28.22 18.46 26.88 18.46 25.41 18.55 25.79 20.27 26.52 24 27.26 28.51zM35.1 28.93C34.27 28.6 33.54 28.28 32.89 27.98 34.01 31.04 34.69 36.14 32.89 44.21 33.1075502 43.8567815 33.42395 43.5751508 33.8 43.4 34.9696362 38.6713396 35.4080535 33.7914176 35.1 28.93L35.1 28.93zM26.73 48.27C26.9370479 48.331674 27.1473745 48.3817518 27.36 48.42 27.36 48.15 27.36 47.87 27.36 47.59 27.1720993 47.8361828 26.9611439 48.0638807 26.73 48.27L26.73 48.27zM31.41 41.76C32.49 35.94 32.08 32.05 31.41 29.63L31.41 41.76zM32.39 46.05L32.39 46.05C32.3176828 46.3966605 32.3899147 46.75782 32.59 47.05L32.75 46.63C32.6256955 46.2585966 32.5549839 45.8713662 32.54 45.48 32.5 45.66 32.39 46.05 32.39 46.05z"/>
      <path id="Shape" fill="#3D454C" fill-rule="nonzero" d="M49.88,27.32 C48.15,26.42 46.44,25.53 44.66,24.5 C47.43,19.89 50.15,18.37 50.14,18.37 L50.22,18.37 L50.22,18.37 C50.5405738,18.2402013 50.8352462,18.0539141 51.09,17.82 C51.5183926,17.4284651 51.7555842,16.8701525 51.74,16.29 C51.74,13.58 47.16,11.89 41.62,10.98 L41.62,10.98 C41.9315238,11.021145 42.2055908,11.2063254 42.36,11.48 C42.4704516,11.7040457 42.4871859,11.9628402 42.4065081,12.1992448 C42.3258304,12.4356494 42.154376,12.6302208 41.93,12.74 C41.7430744,12.8292067 41.5308888,12.8504253 41.33,12.8 L41.33,12.8 C46.71,13.7 49.85,15.14 49.85,16.26 C49.8540125,16.3215325 49.8279143,16.3811855 49.78,16.42 C49.6788719,16.508066 49.5640231,16.579002 49.44,16.63 L49.33,16.63 C48.0992126,16.9429158 46.8281387,17.0676631 45.56,17 C43.9,17 41.94,16.91 39.81,16.81 C37.01,16.68 33.81,16.53 30.46,16.53 C27.11,16.53 23.86,16.68 21.01,16.81 C18.84,16.91 16.78,17 15.06,17 C13.7150307,17.0813957 12.3655829,16.9531982 11.06,16.62 L10.56,16.32 C10.56,16.32 10.56,16.27 10.56,16.23 C10.56,14.48 18.2,11.93 30.19,11.93 C31.48,11.93 32.71,11.93 33.9,12.02 L33.9,12.02 C33.5738616,11.9985346 33.2822852,11.8091993 33.13,11.52 C32.9322919,11.0517545 33.117283,10.5096877 33.56,10.26 C33.7159097,10.1871683 33.8900836,10.1627839 34.06,10.19 C34.06,10.19 34.06,10.19 34.06,10.19 C32.71,10.12 31.39,10.08 30.17,10.08 C21.51,10.08 8.64,11.73 8.64,16.28 C8.63514238,16.8502193 8.86686615,17.3969426 9.28,17.79 C9.49356333,17.9838492 9.73659918,18.1424976 10,18.26 C11.26,19.08 14.46,21.59 17.31,27.18 C16.37,27.36 15.44,27.58 14.55,27.84 C11.9466036,28.5672279 9.45877332,29.6579681 7.16,31.08 C4.88,32.55 3.87,33.97 4.21,35.18 C4.74046939,36.5677324 5.90465507,37.6166153 7.34,38 C7.87839919,38.1640988 8.43721056,38.2516235 9,38.26 C10.32,38.42 14.9,39.59 18.77,48.16 C19.2834288,48.9194499 20.0928883,49.4276307 21,49.56 C21.554007,49.6889597 22.1211882,49.7527256 22.69,49.75 C23.2982495,49.7542247 23.9041063,49.6734438 24.49,49.51 L24.49,49.51 C25.6717227,50.0410323 26.931118,50.3786718 28.22,50.51 C28.9437688,50.5928658 29.6715125,50.6362634 30.4,50.64 C31.4585794,50.6616849 32.5174536,50.6149207 33.57,50.5 L33.57,50.5 C33.9264801,50.6923887 34.2976411,50.8562346 34.68,50.99 C35.5001344,51.2389667 36.345258,51.396589 37.2,51.46 C37.2864384,51.4688948 37.3735616,51.4688948 37.46,51.46 C37.6395679,51.5337491 37.8232001,51.5971857 38.01,51.65 C38.8197689,51.899307 39.6627319,52.0240655 40.51,52.0200962 C43.29,52.0200962 45.88,50.69 46.41,49.02 C46.99,47.12 44.99,45.95 43.23,45.21 C48.3,35.55 53.29,34.41 53.43,34.38 C54.84,34.38 55.71,33.87 56.02,32.95 C56.78,30.87 54.18,29.54 49.88,27.32 Z M43.52,18.88 C44.24,18.88 44.92,18.88 45.52,18.88 L46.52,18.88 C45.1618499,20.2920174 43.9798936,21.863482 43,23.56 C42.51,23.29 42.06,23.06 41.64,22.86 C42.48,20.93 43.17,19.55 43.52,18.88 L43.52,18.88 Z M37.39,18.62 L41.39,18.8 C40.99,19.6 40.46,20.71 39.86,22.11 C38.8855921,21.7405966 37.8821282,21.452937 36.86,21.25 C37.08,20.11 37.26,19.21 37.39,18.62 Z M31.39,18.46 C32.66,18.46 33.99,18.46 35.39,18.55 L35,21 L34.21,21 C33.2743715,20.9898168 32.3419439,21.1109987 31.44,21.36 L31.39,18.46 Z M23.47,18.62 C23.76,20.01 24.38,23.02 25.04,26.92 C24.4591249,26.7814526 23.8665242,26.6977519 23.27,26.67 C22.448887,23.9861036 21.4909677,21.3459846 20.4,18.76 L23.47,18.62 Z M13.82,18.9 C14.2,18.9 14.6,18.9 15.04,18.9 C15.91,18.9 16.92,18.9 18.36,18.82 C19.4760626,21.3711221 20.4508701,23.9817368 21.28,26.64 C20.66,26.64 20,26.73 19.28,26.82 C17.9170778,23.8997989 16.0825292,21.2239932 13.85,18.9 L13.82,18.9 Z M8.68,36.33 L8.68,36.33 C8.42214555,36.3010151 8.16765382,36.2474379 7.92,36.17 C7.12071747,35.9529548 6.45600571,35.3978109 6.1,34.65 C6.1,34.08 8.95,31.41 15.1,29.65 C17.4147441,28.955777 19.8137639,28.5822971 22.23,28.54 C23.2179676,28.4972486 24.2058806,28.6258127 25.15,28.92 C24.72,29.12 24.01,29.35 23.43,29.54 C22.48,29.86 21.43,30.2 20.29,30.69 C18.6684053,31.356554 17.1472144,32.2450372 15.77,33.33 C13.24,35.33 11.02,36.33 9.2,36.39 C9.02777448,36.3613495 8.85422467,36.3413245 8.68,36.33 Z M20.52,47.38 L20.52,47.38 C17.91,41.57 14.89,38.84 12.6,37.55 C13.4674805,37.1846657 14.3007612,36.7429266 15.09,36.23 C18.0208149,39.5360331 20.1765809,43.4546759 21.4,47.7 C21.0940815,47.6317727 20.7982879,47.5242114 20.52,47.38 Z M23.4,47.81 C22.1760307,43.0953012 19.8603514,38.7345619 16.64,35.08 L17,34.79 C17.9425825,34.0448393 18.9656195,33.4075376 20.05,32.89 C21.0073909,37.9089056 22.2460095,42.870057 23.76,47.75 L23.4,47.81 Z M25.47,46.81 C23.9764419,41.981021 22.764404,37.0694296 21.84,32.1 C22.63,31.8 23.39,31.55 24.07,31.33 L24.12,31.33 C23.56,33.65 23.32,38.22 26.12,45.82 C26.0035926,46.2172162 25.7784522,46.5739772 25.47,46.85 L25.47,46.81 Z M25.89,32.11 C26.44,35.92 26.84,39.45 27.09,42.66 C25.44,37.35 25.54,34 25.89,32.15 L25.89,32.11 Z M26.73,48.23 C26.9541901,48.0229467 27.1584217,47.7952787 27.34,47.55 C27.34,47.83 27.34,48.11 27.34,48.38 C27.1348542,48.3542135 26.9312312,48.3174946 26.73,48.27 L26.73,48.23 Z M29.51,22.23 C29.0847459,22.5470699 28.7614823,22.9815639 28.58,23.48 C28.288999,24.4335316 28.669331,25.4641085 29.51,26 L29.51,48.7 L29.26,48.7 C29.0908794,42.1257613 28.4492247,35.5721939 27.34,29.09 C27.3456245,28.9139862 27.3219691,28.7382608 27.27,28.57 L27.27,28.57 C26.53,24.01 25.8,20.33 25.44,18.57 C26.91,18.52 28.25,18.49 29.53,18.48 L29.51,22.23 Z M31.41,41.74 L31.41,29.63 C32.08,32.05 32.49,35.94 31.41,41.76 L31.41,41.74 Z M32.59,47.04 C32.3899147,46.74782 32.3176828,46.3866605 32.39,46.04 L32.39,46.04 C32.39,46.04 32.5,45.65 32.54,45.48 C32.5549839,45.8713662 32.6256955,46.2585966 32.75,46.63 L32.59,47.04 Z M32.84,44.19 C34.69,36.14 34,31 32.89,28 C33.54,28.3 34.27,28.62 35.1,28.95 C35.3896688,33.8073298 34.9344006,38.6803861 33.75,43.4 C33.37395,43.5751508 33.0575502,43.8567815 32.84,44.21 L32.84,44.19 Z M43.76,47.43 C44.51,47.86 44.76,48.19 44.67,48.35 C44.46,49.03 42.73,50.04 40.58,50.04 C39.92633,50.0430508 39.275854,49.9486812 38.65,49.76 C37.3151631,49.3406863 36.1441998,48.5157689 35.3,47.4 C34.7411738,46.8099544 34.4391005,46.0224061 34.46,45.21 C34.46,45.09 34.76,44.95 35.38,44.95 L35.7,44.95 C37.1096409,45.1089576 38.4978067,45.4207919 39.84,45.88 C41.1957689,46.2712548 42.5089791,46.7972089 43.76,47.45 L43.76,47.43 Z M37.05,29.69 C38.05,30.08 39.25,30.49 40.55,30.94 L36.27,43.13 L35.82,43.13 L35.82,43.13 C36.8479583,38.7281793 37.2618836,34.2052884 37.05,29.69 L37.05,29.69 Z M42.35,31.56 C43.72,32.01 44.92,32.4 45.99,32.73 C43.2338305,36.0978364 40.9029507,39.7923146 39.05,43.73 L38.16,43.51 L42.35,31.56 Z M41.52,44.46 L40.89,44.25 C42.7884922,40.3177096 45.177512,36.6417776 48,33.31 C48.77,33.52 49.47,33.7 50.1,33.84 C47.78,35.36 44.65,38.4 41.52,44.46 L41.52,44.46 Z M53.37,32.38 C52.6066829,32.359412 51.8468498,32.2690353 51.1,32.11 C48.0492363,31.4092316 45.0437306,30.5242771 42.1,29.46 C36.53,27.56 32.94,26.22 31.3,25.12 C30.49,24.51 30.4,24.12 30.4,24.12 C30.46,23.96 30.78,23.57 31.62,23.27 C32.4335712,22.9902165 33.2897982,22.8548447 34.15,22.87 C37.3028379,23.0056187 40.3605123,23.9902935 43,25.72 C45.13,27 47.19,28.07 49,29 C50.81,29.93 54.19,31.67 54.31,32.2 C54.32,32.21 54.16,32.38 53.37,32.38 Z"/>
      <path id="Path" fill="#3D454C" fill-rule="nonzero" d="M41.94 12.72C42.2834605 12.5547346 42.4931248 12.198425 42.4708102 11.8179256 42.4484957 11.4374262 42.19862 11.1080664 41.8381963 10.9840807 41.4777725 10.8600949 41.0781557 10.9660292 40.8264804 11.2522761 40.5748051 11.538523 40.5208968 11.9484128 40.69 12.29 40.9185034 12.7515753 41.4758935 12.9433175 41.94 12.72L41.94 12.72zM34.44 11.94C34.7803487 11.7702106 34.9848367 11.4120517 34.9580458 11.032647 34.931255 10.6532423 34.6784658 10.3273729 34.3176347 10.2070959 33.9568036 10.0868188 33.5590506 10.1958408 33.3099752 10.4832901 33.0608997 10.7707393 33.0095946 11.1799593 33.18 11.52 33.4161094 11.979107 33.9756483 12.16562 34.44 11.94L34.44 11.94z"/>
    </g>
  </g>
</svg>
