<svg xmlns="http://www.w3.org/2000/svg" width="64" height="64" viewBox="0 0 64 64" style="background:#fff">
  <g id="Avocado" fill="none" fill-rule="evenodd" stroke="none" stroke-width="1">
    <rect width="64" height="64" fill="#FFF"/>
    <g transform="translate(2 4)">
      <rect id="Rectangle" width="60" height="60" x="0" y="0"/>
      <path id="Path" fill="#EBE53F" fill-rule="nonzero" d="M31,18.17 C27.1370372,16.8868764 22.8818159,18.0732764 20.24,21.17 C17.5304065,24.3963069 17.3014623,29.0324273 19.68,32.51 C21.6744621,36.0440527 25.6863109,37.9296217 29.68,37.21 C34.1410055,36.309452 37.3837455,32.4397546 37.49,27.89 C37.6022896,23.6028536 35.0027503,19.7095529 31,18.17 L31,18.17 Z" opacity=".5"/>
      <path id="Path" fill="#31E085" fill-rule="nonzero" d="M48.44,16.91 C41.06,18.47 41.27,28.6 38.71,33.91 C36.15,39.22 30.83,44.51 24.31,44.36 C21.2365996,44.2263276 18.3026034,43.0400186 16,41 C13.9,39.1 13,36.36 10.94,34.52 C10.3114043,33.9389482 9.38271726,33.8223598 8.63,34.23 C4.06,37.63 5.73,44.23 8.37,48.38 C11.8906364,53.8768356 17.8505271,57.3335722 24.37,57.66 C40.12,58.66 51.93,46.07 56.01,32.45 C57.53,27.17 57.47,15 48.44,16.91 Z" opacity=".5"/>
      <path id="Path" fill="#324C5E" fill-rule="nonzero" d="M30.35,39.19 C36.81,38.19 39.03,30.91 39.83,25.27 C40.71,19 34.68,17.72 29.58,18 C28.3,18.08 28.29,20.08 29.58,20 C31.58,19.87 34.41,19.65 36.15,20.85 C38.67,22.59 37.85,25.2 37.28,27.61 C36.28,31.89 34.48,36.78 29.46,37.23 C20.46,38.03 12.84,26.99 22.81,21.85 C23.96,21.26 22.95,19.54 21.81,20.13 C9.76,26.38 18.91,41 30.35,39.19 Z"/>
      <path id="Path" fill="#324C5E" fill-rule="nonzero" d="M26.27,20.55 C26.6323287,20.3700623 26.8505498,19.9895435 26.8228704,19.5859428 C26.795191,19.1823421 26.5270646,18.8351775 26.1435632,18.7063897 C25.7600617,18.5776019 25.3367432,18.6925649 25.0710716,18.9976521 C24.8054,19.3027394 24.7497182,19.7378424 24.93,20.1 C25.1759531,20.5940809 25.7756857,20.7954836 26.27,20.55 L26.27,20.55 Z"/>
      <path id="Shape" fill="#324C5E" fill-rule="nonzero" d="M54.57,19.5 C54.5527363,19.4410201 54.529272,19.3840353 54.5,19.33 C54.4226466,17.5020051 53.7561452,15.748054 52.6,14.33 C46,5.63 33.38,11.39 25,13.34 C19,14.75 13.11,15.66 8.74,20.54 C5.90580339,23.7304026 4.57670817,27.9835073 5.09,32.22 C5.09309306,32.2532616 5.09309306,32.2867384 5.09,32.32 C4.48,39 6.48,46.05 11.53,50.69 C17.72,56.37 27.4,56.87 35.16,54.69 C41.84,52.84 45.4,48 48.23,42 C51.58,34.85 56.12,27.77 54.57,19.5 Z M15.44,18 C19.32,16.06 24.03,15.62 28.23,14.6 C34.91,13 44.1,8.9 50,14.43 C53.13,17.37 52.54,21.87 50.55,25.16 C49.25,27.3 47.78,29.34 46.42,31.44 C43.58,35.85 41.49,40.26 37.11,43.44 C27.84,49.15 13.46,46.78 8.36,36.44 C4.77,29.06 8.58,21.46 15.44,18 Z M46.92,40.1 C44.43,45.5 41.69,50.39 35.73,52.44 C28.34,55 18.42,54.57 12.55,48.91 C9.75653569,46.1195893 7.92463309,42.511827 7.32,38.61 C13.48,48.83 28.32,51.19 38.12,45.13 C43.68,41.13 46.44,35.07 50.12,29.48 C51.04,28.09 51.98,26.68 52.75,25.26 C52.07,30.49 49.15,35.27 46.92,40.1 Z"/>
    </g>
  </g>
</svg>
