<svg xmlns="http://www.w3.org/2000/svg" width="64" height="64" viewBox="0 0 64 64" style="background:#fff">
  <g id="Backpulver" fill="none" fill-rule="evenodd" stroke="none" stroke-width="1">
    <rect width="64" height="64" fill="#FFF"/>
    <g transform="translate(2 4)">
      <path id="Path" fill="#E0A075" fill-rule="nonzero" d="M56.12,45.08 C52.12,41.92 48.1433333,38.77 44.19,35.63 C41.9263362,33.7756919 38.9362725,33.0641231 36.08,33.7 C36.41,31.24 35.35,28.79 32.26,28.33 C25.63,27.33 18.19,25.45 11.5,26.13 C8.93551836,26.4877849 7.11701889,28.8151102 7.39,31.39 C2.8,32.72 2.09,39.39 6.08,42.06 C3.15,45.41 3.46,51.47 8.82,52.57 L9.55,52.71 C10.2167572,54.7512375 11.8241657,56.3474835 13.87,57 C20.1403873,58.9782871 26.9037403,58.7131269 33,56.25 C38.1330884,56.5008905 43.2233466,57.3123809 48.18,58.67 C55.53,60.78 62.7,50.32 56.12,45.08 Z" opacity=".5"/>
      <path id="Shape" fill="#3D454C" fill-rule="nonzero" d="M10,54.74 C5.85,54.63 6.2,51.95 6.2,48.86 L6.2,37.17 C6.2,35.33 6.86,31.72 6.42,29.56 L34.2,29.56 C33.83,32.34 34.31,35.56 34.31,38.34 C34.31,38.8922847 34.7577153,39.34 35.31,39.34 C35.8622847,39.34 36.31,38.8922847 36.31,38.34 L36.31,28.34 C36.3146784,28.2934506 36.3146784,28.2465494 36.31,28.2 C36.38,26.04 37.02,22.76 36.09,20.95 C35.16,19.14 33,17.54 31.28,16 C32.6308176,14.8152519 32.8761954,12.8048761 31.85,11.33 C32.7110152,10.1356692 32.7110152,8.52433075 31.85,7.33 C30.85,6.18 28.94,6.54 27.62,6.54 L25.29,6.54 C25.4304383,5.47659093 25.150612,4.40033599 24.51,3.54 C23.41,2.28 21.77,2.54 20.27,2.54 C18.77,2.54 17.27,2.32 16.15,3.42 C15.438711,4.27109841 15.1127593,5.37933403 15.25,6.48 C13.5532825,6.23425607 11.8281934,6.26126333 10.14,6.56 C8.23,7.13 7.47,9.79 8.6,11.51 C8.6341753,11.5553814 8.67090113,11.5987847 8.71,11.64 C7.91123845,12.7947357 7.86811896,14.3117577 8.6,15.51 C8.70388073,15.695313 8.83923557,15.8611227 9,16 C7.31609876,17.3833561 5.83790849,18.9996006 4.61,20.8 C3.68,22.8 4.19,25.8 4.26,28.12 C4.24973905,28.1929744 4.24973905,28.2670256 4.26,28.34 L4.26,47.24 C4.26,52.4 3.63,56.58 10.06,56.74 C10.6122847,56.7234314 11.0465685,56.2622847 11.03,55.71 C11.0134314,55.1577153 10.5522847,54.7234315 10,54.74 Z M11.3,14.53 C10.3,14.43 9.17,14.07 10.3,12.72 C10.3682965,12.6413699 10.4590292,12.5855343 10.56,12.56 C11.24,12.62 11.97,12.56 12.64,12.56 L29.92,12.56 L30.11,12.56 C30.33,12.84 30.51,14.23 30.05,14.56 L19.77,14.56 C17.52,14.56 13.67,13.85 11.31,14.53 L11.3,14.53 Z M17.55,4.85 C18.11,4.3 19.55,4.56 20.26,4.56 C20.97,4.56 22.41,4.29 22.97,4.85 C23.295321,5.35661586 23.4201116,5.96630729 23.32,6.56 L17.22,6.56 C17.116939,5.96755443 17.2381451,5.35795937 17.56,4.85 L17.55,4.85 Z M10.3,8.72 C10.71,8.22 13.21,8.56 13.9,8.56 L28.19,8.56 C28.44,8.56 29.87,8.37 30.08,8.56 C30.29,8.75 30.53,10.23 30.08,10.56 C29.263961,10.514718 28.446039,10.514718 27.63,10.56 L16.5,10.56 C14.83,10.56 12.5,10.15 10.76,10.44 C10,10.27 9.38,9.82 10.3,8.72 Z M6.3,22.17 C6.3,22.09 6.3,22.04 6.3,21.99 C6.47669156,21.8292003 6.63743798,21.6517095 6.78,21.46 C8.109706,19.8752741 9.57527408,18.409706 11.16,17.08 C11.3288645,16.9517826 11.4629408,16.7833277 11.55,16.59 L12.63,16.59 L12.88,16.59 C14.83,16.71 16.82,16.59 18.77,16.59 L28.86,16.59 L32.25,20 C32.9614266,20.5714321 33.6085679,21.2185734 34.18,21.93 C34.2051604,21.9599521 34.2254119,21.9937046 34.24,22.03 C34.1806731,22.3135972 34.1806731,22.6064028 34.24,22.89 C34.432164,24.3820753 34.4723701,25.8898038 34.36,27.39 L30.55,27.39 C26.4,27.14 22.15,27.25 17.92,27.39 L6.4,27.39 C6.48,26.52 6.27,25.31 6.27,24.63 C6.18663594,23.8121188 6.18663594,22.9878812 6.27,22.17 L6.3,22.17 Z"/>
      <path id="Shape" fill="#3D454C" fill-rule="nonzero" d="M57,54.85 C53.33,50.43 49.83,45.79 46,41.55 C40.06,35.05 35.42,41.72 31.49,46.55 C28.2,43.98 26.39,44.85 22.81,47.68 C19.81,50.08 16.69,52.43 13.63,54.81 C12.92,55.37 13.55,56.52 14.34,56.52 L56.34,56.52 C56.7203403,56.4896697 57.0502756,56.2455528 57.1905123,55.8907114 C57.330749,55.5358701 57.2568444,55.1321518 57,54.85 Z M36.7,43.36 C41.12,39.49 44,42.29 46.23,45 L54.15,54.54 L41.6,54.54 L33,47.83 C34.090011,46.2269539 35.3288336,44.7303224 36.7,43.36 Z M30.92,48.77 L38.37,54.56 L17.17,54.56 L20.93,51.64 C24.08,49.19 27.17,45.42 30.92,48.77 L30.92,48.77 Z"/>
      <circle id="Oval" cx="42.87" cy="46.16" r="1" fill="#3D454C" fill-rule="nonzero"/>
      <circle id="Oval" cx="38.57" cy="48.26" r="1" fill="#3D454C" fill-rule="nonzero"/>
      <circle id="Oval" cx="24.92" cy="52.01" r="1" fill="#3D454C" fill-rule="nonzero"/>
      <circle id="Oval" cx="30.52" cy="52.01" r="1" fill="#3D454C" fill-rule="nonzero"/>
      <path id="Shape" fill="#3D454C" fill-rule="nonzero" d="M20.52,32.66 C15.52,32.66 11.52,35.32 11.52,38.71 C11.52,42.64 16.29,42.64 20.52,42.64 C24.75,42.64 29.52,42.64 29.52,38.71 C29.5,35.32 25.56,32.66 20.52,32.66 Z M20.52,40.66 C15.8,40.66 13.52,40.37 13.52,38.73 C13.52,37.57 14.41,36.51 15.81,35.73 C15.702657,36.1452623 15.6422788,36.5712641 15.63,37 C15.56,38.29 17.56,38.28 17.63,37 C17.6679895,36.2306377 17.9323843,35.4896366 18.39,34.87 C19.0916949,34.7323458 19.8049334,34.6620266 20.52,34.66 L20.59,34.66 C20.241473,35.3936499 20.0409846,36.1888073 20,37 C19.93,38.29 21.93,38.28 22,37 C22.0391916,36.2371737 22.2959773,35.5015173 22.74,34.88 C25.48,35.43 27.51,36.96 27.51,38.71 C27.51,40.46 25.25,40.64 20.52,40.64 L20.52,40.66 Z"/>
      <rect id="Rectangle" width="60" height="60" x="0" y="0"/>
    </g>
  </g>
</svg>
