<svg xmlns="http://www.w3.org/2000/svg" width="64" height="64" viewBox="0 0 64 64" style="background:#fff">
  <g id="Bärlauch" fill="none" fill-rule="evenodd" stroke="none" stroke-width="1">
    <rect width="64" height="64" fill="#FFF"/>
    <g id="11-Barlauch" transform="translate(2 4)">
      <g id="Layer_2">
        <rect id="Rectangle" width="60" height="60" x="0" y="0"/>
      </g>
      <g id="Layer_1" transform="translate(8 8)">
        <path id="Path" fill="#3CDE88" fill-opacity=".5" d="M18.92,16 C19.6867562,13.4761661 19.8443981,10.8065337 19.38,8.21 C18.8277153,4.57320492 21.3282049,1.17728475 24.965,0.625 C28.6017951,0.0727152502 31.9977153,2.57320492 32.55,6.21 C33.5111547,11.5150862 32.9743981,16.9830776 31,22 C33.8621321,21.6926325 36.6947056,21.1542094 39.47,20.39 C43.0046224,19.3655119 46.7005116,21.4003777 47.7249998,24.935 C48.749488,28.4696224 46.7146223,32.1655117 43.18,33.19 C35.46,35.4 27.27,34.64 19.62,37 C16.35,40.56 12.82,44.32 11.56,45.39 C9.77885934,47.1533545 7.15854724,47.7674219 4.7794063,46.9790251 C2.40026537,46.1906282 0.665203035,44.1332821 0.289577509,41.6552211 C-0.0860480166,39.17716 0.961375434,36.6980436 3,35.24 C3.56,34.77 4.6,33.72 5.86,32.39 L5.86,32.39 C7.65,25.28 6,18.2 4.23,11.24 C3.56368238,8.91377673 4.21150849,6.40917122 5.92217512,4.69776433 C7.63284174,2.98635743 10.1371667,2.33744777 12.4636781,3.00275891 C14.7901894,3.66807004 16.5727986,5.54291186 17.12,7.9 C17.8,10.6 18.43,13.31 18.92,16.03 L18.92,16 Z"/>
        <path id="Shape" fill="#3C454E" d="M41.6,23 C39.6078413,22.2204853 37.4563664,21.9356808 35.33,22.17 C34.71,22.22 34.09,22.29 33.47,22.37 L32.41,22.52 C32.6545095,21.9986443 32.8519608,21.45649 33,20.9 C33.5,18.95 33.32,16.9 33.81,14.9 C34.0837105,13.9627372 34.4177407,13.0441541 34.81,12.15 C35.2617102,11.1062209 35.5354941,9.99418504 35.62,8.86 C35.6741073,8.18735205 35.6097994,7.51042682 35.43,6.86 C35.2685469,6.4304356 34.9555509,6.07475837 34.55,5.86 C34.1219251,5.67564069 33.6502841,5.61668556 33.19,5.69 C32.5069766,5.88137416 31.7990721,5.96901948 31.09,5.95 C30.7759357,5.83365169 30.4822939,5.6682672 30.22,5.46 C29.62,5.05 29.06,4.58 29.01,4.54 C27.6330091,3.2670532 25.6160952,2.96928047 23.93,3.79 C21.77,4.67 19.69,6.86 18.35,8.38 C17.89,8.91 17.43,9.45 17.01,10.01 C16.86,10.21 16.74,10.42 16.6,10.63 C15.5437199,7.4843422 13.3885871,4.82504316 10.53,3.14 L10.53,3.14 C10.4318364,3.06927304 10.3190754,3.02143504 10.2,3 C9.91495887,2.93397703 9.61530124,2.99610118 9.38,3.17 L9.38,3.17 C6.40622981,5.52606524 4.25646967,8.76471041 3.24,12.42 C2.3740657,16.7076542 4.35808212,21.0668447 8.16,23.23 C8.16,23.41 8.07,23.6 8.02,23.8 C7.64,25.35 7.55,28.03 5.83,31.09 C4.49,33.48 1.88,36.17 1.14,38.27 C1.01674337,38.618334 1.0886835,39.0059644 1.32872124,39.2868748 C1.56875897,39.5677851 1.94042687,39.6992984 2.30372124,39.6318748 C2.6670156,39.5644512 2.96674337,39.308334 3.09,38.96 C3.5806341,37.8281193 4.22321154,36.7683712 5,35.81 C5.94608393,34.621677 6.81774869,33.3759646 7.61,32.08 C9.45,28.8 9.61,25.94 10,24.28 C10.4865879,22.6016003 10.7026297,20.8563879 10.64,19.11 C10.64,18.5383853 10.1766147,18.075 9.605,18.075 C9.03338528,18.075 8.57,18.5383853 8.57,19.11 L8.57,19.11 C8.57,19.9 8.57,20.49 8.51,21 C5.88579919,19.2013715 4.59055713,16.0085407 5.22,12.89 C6.05321928,9.93569084 7.72377815,7.28571908 10.03,5.26 C12.8845274,7.05905683 14.734208,10.0888337 15.03,13.45 C14.83,13.87 14.63,14.28 14.42,14.7 C13.431533,16.4383188 12.662336,18.292453 12.13,20.22 C11.37,23.75 11.47,27.45 10.34,30.92 C9.49,33.54 7.71,35.38 6.23,37.65 C5.15253114,39.4101667 4.64603881,41.4605874 4.78,43.52 C4.81953283,45.1117114 5.73337863,46.5519707 7.15664941,47.2656991 C8.57992019,47.9794276 10.2807433,47.8503478 11.58,46.93 C13.2779804,45.7872404 14.6330435,44.2040289 15.5,42.35 C15.78789,41.7335046 16.0350859,41.0988124 16.24,40.45 C16.51,39.59 16.7,38.7 16.93,37.82 C17.1036868,36.8592175 17.4419912,35.9356463 17.93,35.09 C18.6738573,34.1912409 19.614889,33.4760568 20.68,33 C22.8417599,31.9154166 24.9296254,30.689422 26.93,29.33 C28.5778711,28.0199216 30.0117114,26.4612528 31.18,24.71 C31.2496238,24.7202632 31.3203762,24.7202632 31.39,24.71 L31.39,24.71 L33.75,24.38 C34.33,24.3 34.91,24.24 35.49,24.19 C36.9779766,24.0448595 38.479829,24.1564837 39.93,24.52 C41.05,24.87 42,25.52 41.93,26.85 C41.8852605,27.407263 41.7641266,27.9557305 41.57,28.48 C41.3079345,29.237425 40.9410344,29.9543948 40.48,30.61 C39.8061486,31.5450961 38.9895184,32.3684753 38.06,33.05 C33.92,36.05 28.25,36.05 23.34,36.05 C22.7711467,36.05 22.31,36.5111467 22.31,37.08 C22.31,37.6488533 22.7711467,38.11 23.34,38.11 C28.66,38.04 34.77,37.95 39.25,34.67 C40.3547394,33.8587192 41.3263838,32.8803273 42.13,31.77 C42.7065206,30.9519141 43.1643918,30.0563719 43.49,29.11 C43.756526,28.4335623 43.9281541,27.7234931 44,27 C44.1407381,25.2899161 43.1751272,23.6805646 41.6,23 Z M25.67,27.69 C23.7491515,28.9963015 21.7448681,30.1754882 19.67,31.22 C18.3018451,31.8599827 17.1030233,32.8121897 16.17,34 C15.5692427,35.0390561 15.1467328,36.1713826 14.92,37.35 C14.71,38.18 14.53,39.03 14.27,39.86 C14.0847019,40.4283727 13.867695,40.9859136 13.62,41.53 C12.9340116,43.0091933 11.8590662,44.2742417 10.51,45.19 C9.81346948,45.7078359 8.89095007,45.8073608 8.1,45.45 C7.33218046,45.0282844 6.85077516,44.2259422 6.84,43.35 C6.74073119,41.7461352 7.14639256,40.1514664 8,38.79 C9.58,36.36 11.43,34.38 12.34,31.57 C13.49,28.03 13.41,24.26 14.19,20.67 C14.6804301,18.9212893 15.3893523,17.2413789 16.3,15.67 C16.970466,14.1267466 17.773473,12.6445296 18.7,11.24 C19.09,10.72 19.51,10.24 19.93,9.74 C21.0832838,8.35104141 22.4304201,7.1352509 23.93,6.13 C25.17,5.38 26.52,5.03 27.72,6.13 L27.72,6.13 C28.2813644,6.60102922 28.8725978,7.03526839 29.49,7.43 C29.8733038,7.68365006 30.2955577,7.87281979 30.74,7.99 C31.461872,8.07974131 32.1941019,8.03567192 32.9,7.86 C33.1,7.86 33.38,7.79 33.56,7.77 C33.56,7.86 33.56,7.98 33.61,8.06 C33.6257742,8.32309711 33.6257742,8.58690289 33.61,8.85 C33.5339595,9.75130633 33.3074932,10.633511 32.94,11.46 C32.512001,12.4353073 32.147899,13.437423 31.85,14.46 C31.36,16.46 31.55,18.46 31.05,20.46 C30.3,23.08 27.81,26.06 25.67,27.69 Z"/>
        <path id="Path" fill="#3C454E" d="M30 31.7C33.53 30.97 34.91 30.24 38.78 28.42 39.2963862 28.1797561 39.5202438 27.5663862 39.2799999 27.05 39.0397561 26.5336138 38.4263862 26.3097562 37.91 26.55 34.23 28.27 32.91 28.98 29.58 29.67 29.2227344 29.7450258 28.9326332 30.0049514 28.8189746 30.3518653 28.705316 30.6987793 28.7853676 31.0799771 29.0289746 31.3518653 29.2725816 31.6237535 29.6427344 31.7450258 30 31.67L30 31.7zM9.75 16.21C10.0202201 16.2651081 10.3012028 16.2061751 10.5265079 16.0471362 10.7518131 15.8880973 10.9014369 15.6430727 10.94 15.37 11.31 13.29 12 12.02 11.61 9.58 11.518873 9.01390813 10.9860919 8.62887302 10.42 8.72 9.85390813 8.81112698 9.46887302 9.34390813 9.56 9.91L9.56 9.91C9.91 12.07 9.23 13.17 8.9 15.01 8.84183167 15.283215 8.90059162 15.5683062 9.06205413 15.7962533 9.22351665 16.0242004 9.4729621 16.1742227 9.75 16.21zM29.63 13.74C29.3721205 13.6347366 29.0820236 13.6417975 28.8295707 13.7594824 28.5771178 13.8771672 28.3851873 14.0948108 28.3 14.36 27.8074741 16.0434735 27.0295011 17.6298619 26 19.05 24.9427835 20.2334265 23.6479642 21.180689 22.2 21.83 22.2 21.77 22.3 21.71 22.34 21.64 25.1135628 17.4911033 26.6309327 12.6299642 26.71 7.64 26.71 7.06838528 26.2466147 6.605 25.675 6.605 25.1033853 6.605 24.64 7.06838528 24.64 7.64 24.5835932 12.2427793 23.1941966 16.7305302 20.64 20.56 19.3260717 22.2709635 17.9171914 23.9068671 16.42 25.46 16.1949227 25.7422398 16.1375158 26.1231175 16.269404 26.4591601 16.4012922 26.7952027 16.7024385 27.0353573 17.059404 27.0891601 17.4163695 27.1429629 17.7749227 27.0022398 18 26.72 18.45 26.2 18.92 25.72 19.4 25.17 22.3 24.17 25.54 22.84 27.6 20.38 28.7942162 18.7749636 29.700989 16.9749519 30.28 15.06 30.3808546 14.799279 30.3679727 14.5082451 30.2444773 14.2574544 30.1209819 14.0066637 29.8981488 13.8190148 29.63 13.74zM19.06 35.82C18.7120606 36.2866806 18.8083194 36.9470606 19.275 37.295 19.7416806 37.6429394 20.4020606 37.5466806 20.75 37.08 21.0967932 36.6102718 20.9984286 35.9485466 20.53 35.6 20.3112726 35.4197476 20.0263291 35.3407791 19.7460208 35.38273 19.4657126 35.4246809 19.2163728 35.5836102 19.06 35.82L19.06 35.82z"/>
      </g>
    </g>
  </g>
</svg>
