<svg xmlns="http://www.w3.org/2000/svg" width="64" height="64" viewBox="0 0 64 64" style="background:#fff">
  <g id="Balsamico_Essig" fill="none" fill-rule="evenodd" stroke="none" stroke-width="1">
    <rect width="64" height="64" fill="#FFF"/>
    <g transform="translate(2 4)">
      <rect id="Rectangle" width="60" height="60" x="0" y="0"/>
      <path id="Path" fill="#4885E0" fill-rule="nonzero" d="M23.14,27.18 C20.7146168,28.4893544 18.6763983,30.4137637 17.23,32.76 C13.8924661,38.558658 14.0465233,45.730021 17.63,51.38 C26.15,64.43 45.52,57.56 46,41.86 C46.38,28.39 31.81,21 23.14,27.18 Z" opacity=".5"/>
      <path id="Shape" fill="#3D454C" fill-rule="nonzero" d="M43.43,40.25 C42.75,36.25 40.61,32.73 38.89,29.14 C37.0107442,25.3135771 35.7388383,21.2178376 35.12,17 C35.5974298,16.7594419 36.0170593,16.4182797 36.35,16 C37.3,14.72 37.1,13.07 37.11,11.58 C37.1156809,11.5234757 37.1156809,11.4665243 37.11,11.41 C37.28,10.23 35.46,9.75 35.18,10.97 C34.8,12.64 27.41,12.58 25.3,11.51 C25.3783253,11.2244322 25.3424619,10.9195928 25.2,10.66 C25.7,11.47 27.2,11.33 27.05,10.23 C26.89,8.88 26.65,7.52 26.57,6.16 C26.39,3.38 27.94,3.58 30,3.58 C32.06,3.58 33.6,3.36 33.45,6.09 C33.37,7.43 33.1,8.78 32.93,10.09 C32.76,11.4 34.77,11.36 34.93,10.09 C35.16,8.25 35.82,5.99 35.3,4.16 C34.53,1.45 32.3,1.56 30,1.56 C27.7,1.56 25.45,1.45 24.69,4.18 C24.17,6.03 24.81,8.32 25.03,10.18 C25.0447685,10.302452 25.0820627,10.4211153 25.14,10.53 C24.9245909,10.199629 24.504509,10.0694036 24.14,10.22 C23.8012169,10.3223762 23.4991468,10.5202842 23.27,10.79 C23.1448781,10.895922 23.0514428,11.0343447 23,11.19 C22.9413607,11.3288286 22.9173381,11.4798281 22.93,11.63 C22.93,13.1 22.77,14.71 23.69,15.95 C24.038026,16.373315 24.4750537,16.7147429 24.97,16.95 C24.4888845,20.1017055 23.6605109,23.1904994 22.5,26.16 C21,29.82 18.73,33 17.41,36.62 C15.71,41.29 15.77,48.31 19.76,51.99 C19.61,51.86 21.6,53.21 21.58,53.19 C21.85,53.6 21.33,54.37 21.65,54.82 C22.4097412,55.8746659 23.5503316,56.5920184 24.83,56.82 C29.7,58.3 34,57.33 38,55.3 C38.3036995,55.1199357 38.4899384,54.7930673 38.49,54.44 C38.49,52.79 40.77,51.61 41.76,49.92 C43.4456358,46.9966425 44.0375203,43.5693834 43.43,40.25 Z M30.82,14.08 C32.2249716,14.1584171 33.6337848,14.0269728 35,13.69 C34.24,15.79 31.9,15.8 30,15.81 C28.1,15.82 25.49,15.93 24.95,13.54 C26.861366,14.0544857 28.8468493,14.2371366 30.82,14.08 L30.82,14.08 Z M37,51.89 C36.6924555,52.0675523 36.5021435,52.3948889 36.5,52.75 C36.5,53.75 36.63,53.9 36.74,53.75 C36,54.75 34.53,54.94 33.44,55.2 C31.34,55.71 25.97,56.13 24.19,54.2 C25.5949957,54.5630393 27.0259094,54.8171268 28.47,54.96 C29.76,55.08 29.75,53.08 28.47,52.96 C26.6094492,52.7937816 24.7741136,52.4146355 23,51.83 C15.09,47.69 19.18,37.38 22.19,31.59 C24.4937378,27.2049304 26.0772885,22.4779134 26.88,17.59 C27.8727831,17.7400411 28.8759954,17.810266 29.88,17.8 C30.0425245,20.6576237 30.6046561,23.4783797 31.55,26.18 C31.98,27.38 33.91,26.86 33.48,25.65 C32.5783185,23.1014249 32.0397059,20.4386586 31.88,17.74 C32.3325303,17.7107688 32.7831737,17.6573592 33.23,17.58 C33.9002437,21.9431869 35.2322348,26.1785815 37.18,30.14 C40.11,36.29 45.68,47.46 37,51.89 Z"/>
      <path id="Shape" fill="#3D454C" fill-rule="nonzero" d="M27.7 39.49C25.7683069 39.49 24.2018503 41.0549839 24.2000143 42.9866762 24.1981814 44.9183685 25.7616627 46.4863169 27.6933524 46.49 29.625042 46.4936704 31.1944809 44.9316853 31.2 43 31.1837838 41.0721257 29.6278202 39.5117165 27.7 39.49zM26.2 43C26.2 42.1715729 26.8715729 41.5 27.7 41.5 28.5284271 41.5 29.2 42.1715729 29.2 43 29.2 43.8284271 28.5284271 44.5 27.7 44.5 26.8715729 44.5 26.2 43.8284271 26.2 43L26.2 43zM34.62 44.38C32.6870034 44.38 31.12 45.9470034 31.12 47.88 31.12 49.8129966 32.6870034 51.38 34.62 51.38 36.5529966 51.38 38.12 49.8129966 38.12 47.88 38.0931184 45.9582482 36.5417518 44.4068816 34.62 44.38zM33.12 47.88C33.12 47.0515729 33.7915729 46.38 34.62 46.38 35.4484271 46.38 36.12 47.0515729 36.12 47.88 36.12 48.7084271 35.4484271 49.38 34.62 49.38 33.7915729 49.38 33.12 48.7084271 33.12 47.88zM32.26 39.59C32.26 41.5229966 33.8270034 43.09 35.76 43.09 37.6929966 43.09 39.26 41.5229966 39.26 39.59 39.26 37.6570034 37.6929966 36.09 35.76 36.09 33.8337961 36.1063016 32.2763016 37.6637961 32.26 39.59L32.26 39.59zM37.26 39.59C37.26 40.4184271 36.5884271 41.09 35.76 41.09 34.9315729 41.09 34.26 40.4184271 34.26 39.59 34.26 38.7615729 34.9315729 38.09 35.76 38.09 36.5884271 38.09 37.26 38.7615729 37.26 39.59z"/>
      <path id="Path" fill="#3D454C" fill-rule="nonzero" d="M23.55 38.45C24 37.24 22.07 36.72 21.62 37.91 20.0062163 41.8584495 20.6691107 46.3722623 23.35 49.69 24.19 50.69 25.6 49.25 24.76 48.28 22.44 45.59 22.33 41.67 23.55 38.45zM24.61 35.55C24.9850535 35.3820244 25.2191586 35.0016968 25.2001854 34.5911837 25.1812121 34.1806706 24.9130237 33.8235582 24.5240751 33.6908936 24.1351264 33.5582289 23.7046128 33.6770244 23.4387386 33.9903801 23.1728643 34.3037359 23.125765 34.7478485 23.32 35.11 23.5679867 35.5723717 24.1311558 35.7644604 24.61 35.55z"/>
    </g>
  </g>
</svg>
