<svg xmlns="http://www.w3.org/2000/svg" width="64" height="64" viewBox="0 0 64 64" style="background:#fff">
  <g id="Bananen" fill="none" fill-rule="evenodd" stroke="none" stroke-width="1">
    <rect width="64" height="64" fill="#FFF"/>
    <g transform="translate(2 4)">
      <rect id="Rectangle" width="60" height="60" x="0" y="0"/>
      <path id="Path" fill="#EBE53F" fill-rule="nonzero" d="M30.91,30.57 C33.68,27.35 35.03,23.45 33.66,18.85 C30.43,8 10.64,10.16 8.06,21 C7.95610698,21.3788861 8.03053667,21.7844661 8.26219124,22.1017745 C8.49384581,22.4190829 8.85747332,22.6135307 9.25,22.63 C11.7,22.8 25.05,17.91 25.09,22.3 C25.09,25.18 20.09,27.14 17.85,28.3 C14.5920161,30.001243 11.030967,31.0444129 7.37,31.37 C2.93,31.79 0.13,38.43 4.89,40.93 C13.5421483,45.6285755 23.9996443,45.5606206 32.59,40.75 C37.35,38.17 35,31.59 30.91,30.57 Z" opacity=".5"/>
      <path id="Shape" fill="#3D454C" fill-rule="nonzero" d="M53.48,38.47 C52.81,33.25 49.35,30.24 44.61,28.97 C45.7213888,26.7896658 46.6060254,24.5010038 47.25,22.14 C47.3991169,21.6070452 47.0879548,21.0541169 46.555,20.905 C46.0220452,20.7558831 45.4691169,21.0670452 45.32,21.6 C44.4527619,25.0125924 42.9903562,28.2454569 41,31.15 C39.77,32.88 39,32.98 36.94,33.15 C35.1973583,33.3219523 33.4399218,33.2715478 31.71,33 L31.63,33 C31.1078702,32.6150849 30.5636012,32.2611431 30,31.94 C30.6324121,30.6601424 31.1349247,29.3201089 31.5,27.94 C31.5,27.94 31.56,27.94 31.59,27.88 C34.6930854,25.0768832 36.9804743,21.4868574 38.21,17.49 C38.98,15.14 39.21,12.4 40.37,10.19 C43.24,4.65 46.27,10.58 46.52,14.09 C46.61,15.37 48.61,15.38 48.52,14.09 C48.28,10.61 45.61,2.87 40.96,6.3 C38.48,8.12 37.85,11.25 37.12,14.03 C36.6274078,15.9802013 35.9579682,17.8814099 35.12,19.71 C32.23,13.57 25.12,10.49 18.38,11.51 C14.5730569,12.0519835 11.111716,14.0130528 8.69,17 C7.43,18.55 4.69,23 7.91,23.92 L7.91,23.92 L8.06,23.98 C10.29,24.51 13.7,21.8 15.71,21.31 C18.31,20.68 22.63,20.77 24.36,23.31 C26.36,26.21 24.17,27.69 21.75,28.6 C17.64,30.14 12.9,28.82 9.2,31.71 C8.09347213,32.6975713 6.93516725,33.6255505 5.73,34.49 C4.73,35.11 4.29,35.17 3.85,36.43 C2.85,39.35 5.46,40.88 7.31,42.68 C11.31,46.57 15.98,46.76 21.31,45.78 C25.37,45.04 30.06,44.25 33.81,42.19 C33.3832192,43.760041 32.4779496,45.1581407 31.22,46.19 C28.07,48.98 24.13,49.12 20.34,50.25 C20.0755041,50.3333404 19.8574926,50.5227724 19.7380448,50.7730441 C19.6185969,51.0233158 19.6084399,51.3119511 19.71,51.57 C19.6520376,51.8641583 19.7291164,52.1688028 19.92,52.4 C21.74,54.75 25.68,55.07 28.44,55.28 C32.5538345,55.7206789 36.6823951,54.5921104 40,52.12 C46,47.48 44.48,42 42.48,36 C45.6988609,37.5733145 47.7261173,40.8573921 47.69,44.44 C47.69,47.21 45.35,50.5 45.91,53.1 C46.49,55.86 48.91,54.56 50.22,52.89 C53,49.29 54.05,42.87 53.48,38.47 Z M9.73,18.91 C10.09,17.71 12.2,16.2 13.26,15.52 C15.7172275,13.9652553 18.5960577,13.2106105 21.5,13.36 C27,13.59 32.18,16.65 33.85,22 C33.2612233,22.9645783 32.5921882,23.8778111 31.85,24.73 C31.73,21.95 30.31,19.47 26.85,17.49 C24.0866928,15.8191274 20.7665913,15.3324676 17.64,16.14 C14.64,16.94 12.52,18.91 10.13,20.6 C9.55,20.52 9.38,20.08 9.73,18.91 Z M10.1,42.45 C10.02,42.39 5.72,38.53 5.69,38.17 C5.58,36.7 7.24,37 8,36.33 C9,35.42 9.47,34.13 10.58,33.33 C12.2507749,32.1985868 14.2126536,31.5735635 16.23,31.53 C19.62,31.17 23.52,31.09 26.15,28.53 C28.78,25.97 27.37,23.08 24.76,21.01 C21.24,18.22 18.01,19.17 14.39,20.01 C16.0069152,18.7994887 17.9283821,18.0620608 19.94,17.88 C23.75,17.66 27.94,19.61 29.42,23.21 C30.74,26.38 29.32,28.98 27.79,31.88 C27.6556261,32.1093087 27.6180647,32.3826768 27.6856114,32.6397298 C27.7531582,32.8967828 27.9202558,33.116372 28.15,33.25 C31.15,34.8 33.42,37.19 33.9,39.82 C30.34,42.15 25.58,42.97 21.49,43.75 C17.56,44.45 13.51,45 10.1,42.45 Z M40.1,49.32 C37.623881,51.8331611 34.2576991,53.2701651 30.73,53.32 C28.67,53.4 24.43,53.25 22.19,51.75 C27.26,50.38 32.72,49.45 35.27,44.11 C36.7708441,41.1731859 36.2623633,37.6098171 34,35.21 C35.13,35.21 36.26,35.16 37.4,35.09 C38.2735254,35.0977539 39.1453076,35.0105757 40,34.83 C41.67,39.8 44.39,44.65 40.14,49.32 L40.1,49.32 Z M51.41,43 C51.1152103,45.3670131 50.4855842,47.6801318 49.54,49.87 C49.77,49.35 48.33,52.7 48.03,52.02 C47.88,51.68 49.09,48.39 49.19,47.92 C50.48,41.92 48.09,34.92 41.63,33.58 C42.3565319,32.6874169 43.024592,31.7487923 43.63,30.77 C49.72,32.29 52.25,36.74 51.41,43 Z"/>
      <path id="Path" fill="#3D454C" fill-rule="nonzero" d="M46.94,17.08 C46.55732,17.2113207 46.2914743,17.5602916 46.2664898,17.9641045 C46.2415053,18.3679174 46.4623055,18.7469978 46.8258788,18.9244902 C47.1894521,19.1019827 47.6241533,19.0429109 47.927178,18.7748342 C48.2302026,18.5067574 48.3418372,18.0825024 48.21,17.7 C48.0302055,17.178358 47.4618843,16.9009098 46.94,17.08 Z"/>
    </g>
  </g>
</svg>
