<svg xmlns="http://www.w3.org/2000/svg" width="64" height="64" viewBox="0 0 64 64" style="background:#fff">
  <g id="Basilikum" fill="none" fill-rule="evenodd" stroke="none" stroke-width="1">
    <rect width="64" height="64" fill="#FFF"/>
    <g transform="translate(2 4)">
      <rect id="Rectangle" width="60" height="60" x="0" y="0"/>
      <g id="Group" fill="#31E085" fill-rule="nonzero" opacity=".5" transform="translate(7 3)">
        <path id="Path" d="M17.42 30.76C14.9246623 30.7171776 12.4565974 30.2330442 10.13 29.33 7.85 28.33 5.82 26.2 3.36 25.76 2.24106618 25.4860777 1.10214337 26.1300072.76 27.23-.45 30.81 2.76 34.84 5.29 37.01 8.63153607 39.9576583 12.9657672 41.5298444 17.42 41.41 20.2712331 41.2864124 22.5191862 38.9389103 22.5191862 36.085 22.5191862 33.2310897 20.2712331 30.8835876 17.42 30.76zM45.84 31.43C38.69 26.66 27.15 32.09 24.2 39.43 22.82 42.85 27.7 46.69 30.68 44.43 33.15 42.55 35.06 40.22 37.82 38.71 40.39 37.31 43.17 36.71 45.82 35.55 47.61 34.78 47.16 32.31 45.84 31.43zM18.73 9.86C19.14 11.99 18.83 13.86 19.79 15.94 21.05 18.64 24.53 17.86 25.97 15.94 27.97 13.31 26.97 9.31 25.63 6.57 24.4488024 3.89134608 22.3086539 1.75119762 19.63.57 17.21-.43 15.82 2.63 16.63 4.47 17.5430752 6.17620088 18.248115 7.98580296 18.73 9.86L18.73 9.86zM27.27 26.57C29.9 26 31.62 24.2 34 23 36.13 21.9 38.62 21.68 40.73 20.55 41.228856 20.2530249 41.5635475 19.7432558 41.6377188 19.1674519 41.7118902 18.591648 41.5173112 18.0137017 41.11 17.6 36.16 13.6 25.11 16.5 23.7 22.98 23.4743395 23.9808872 23.7758331 25.027683 24.4993029 25.7552058 25.2227726 26.4827286 26.2678678 26.7900655 27.27 26.57L27.27 26.57z"/>
        <path id="Path" d="M12.15,13.83 C11.168557,13.8438199 10.290092,14.4420529 9.91768557,15.350202 C9.54527912,16.2583511 9.75082138,17.3011051 10.44,18 C11.81,19.25 13.36,20.27 14.62,21.67 C15.88,23.07 16.7,24.74 18.23,25.96 C19.0300302,26.7023669 20.1905141,26.9080879 21.1969389,26.4856912 C22.2033637,26.0632945 22.8694964,25.0910451 22.9,24 C23.45,18.79 17.06,13.77 12.15,13.83 Z"/>
      </g>
      <path id="Shape" fill="#3D454C" fill-rule="nonzero" d="M52,36.5 C51.8802799,36.2453865 51.6588385,36.0529866 51.39,35.97 C48.7725975,35.1916702 46.060415,34.7777763 43.33,34.74 C41.2424459,34.6842103 39.1677618,35.0834505 37.25,35.91 C33.93,37.47 32.45,41.84 32.79,44.4 C32.25,44.78 31.71,45.18 31.18,45.59 C31.42,44.35 31.64,43.07 31.82,41.8 C32.2433161,38.8840231 32.4937536,35.9455567 32.57,33 C32.9643699,31.4147554 33.7441202,29.9514353 34.84,28.74 C35.3760759,29.1425587 35.9692916,29.4627603 36.6,29.69 C37.3076605,29.951349 38.0556287,30.0867278 38.81,30.09 C39.5455963,30.0991741 40.2737481,29.9419206 40.94,29.63 C44.78,27.83 47.03,22.36 47.13,22.13 C47.2344916,21.8735694 47.2344916,21.5864306 47.13,21.33 C47.0102799,21.0753865 46.7888385,20.8829866 46.52,20.8 C44.7248558,20.28395 42.8677877,20.0148097 41,20 C39.5508905,19.9564732 38.1100114,20.23304 36.78,20.81 C34.5282522,22.0499403 33.2811849,24.5560276 33.65,27.1 C33.2595729,27.5098755 32.8955102,27.9440788 32.56,28.4 C32.56,28.01 32.56,27.63 32.51,27.24 C32.3449577,23.9697307 31.9506561,20.7150718 31.33,17.5 C33.2544638,16.0786115 34.1949634,13.6807262 33.75,11.33 C32.67,7.22 27.75,4.01 27.5,3.88 C27.3505567,3.7830897 27.1779416,3.72785288 27,3.72 C26.913612,3.7101714 26.826388,3.7101714 26.74,3.72 C26.4692764,3.79114736 26.2407654,3.97250526 26.11,4.22 C25.99,4.44 23.25,9.7 24.32,13.78 C25.0655591,16.0393714 27.0328444,17.6768357 29.39,18 C29.8811193,20.6680899 30.2150282,23.3627344 30.39,26.07 C29.987453,25.547031 29.5568197,25.0462946 29.1,24.57 C29.6252404,22.1592405 28.685429,19.6648244 26.7,18.2 C24.7843166,17.1642265 22.6263015,16.6601141 20.45,16.74 C19.3075169,16.738149 18.1668785,16.8318084 17.04,17.02 C16.7670402,17.0718025 16.5279355,17.2348284 16.38,17.47 C16.2291113,17.7078636 16.1855407,17.9983342 16.26,18.27 C16.32,18.51 17.87,24.21 21.47,26.48 C22.3121062,26.9943624 23.2833959,27.2579981 24.27,27.24 C25.5398328,27.2493468 26.7869124,26.9029358 27.87,26.24 C28.938478,27.3994758 29.8404565,28.7019597 30.55,30.11 C30.5873584,33.0122614 30.4504455,35.9141482 30.14,38.8 C29.8550778,38.4472976 29.5477775,38.1132755 29.22,37.8 C29.54,35.07 27.14,30.14 23.15,28.96 C21.9498737,28.6205028 20.707137,28.4554782 19.46,28.47 C17.3275232,28.5147319 15.2112083,28.851189 13.17,29.47 C11.4303745,29.9578904 9.7344915,30.5900835 8.1,31.36 C7.84889026,31.4827659 7.66062222,31.7050248 7.58082778,31.9729061 C7.50103333,32.2407875 7.53699627,32.5298386 7.68,32.77 C8.66487748,34.2871079 9.77544828,35.7188076 11,37.05 C13.7,40.13 16.43,42.05 19.11,42.89 C19.7599767,43.0778856 20.4334159,43.1721671 21.11,43.17 C22.6536655,43.1472672 24.1680845,42.7454826 25.52,42 C26.5969818,41.4312149 27.5570812,40.6644924 28.35,39.74 C28.9981294,40.437039 29.4741534,41.276074 29.74,42.19 C29.44,44.19 29.05,46.12 28.58,48.09 C28.0659486,50.3889746 27.3977724,52.6507509 26.58,54.86 C26.4772221,55.1063777 26.4772221,55.3836223 26.58,55.63 C26.7340888,56.0051172 27.0994679,56.2500329 27.505,56.2500329 C27.9105321,56.2500329 28.2759112,56.0051172 28.43,55.63 C29.2743025,53.4166119 29.9659229,51.1479634 30.5,48.84 C31.5142271,47.9406838 32.5757373,47.0961489 33.68,46.31 C35.4161769,47.9680363 37.7193644,48.901471 40.12,48.92 C41.1174891,48.9011576 42.0994272,48.6693111 43,48.24 C48.56,45.63 51.84,37.64 52,37.31 C52.1142444,37.052085 52.1142444,36.757915 52,36.5 Z M37.63,22.63 C38.6924142,22.1717022 39.843771,21.9564634 41,22 C42.2824342,22.0219828 43.5591846,22.1761312 44.81,22.46 C44.07,23.92 42.36,26.81 40.12,27.86 C39.7214514,28.0416275 39.2879671,28.1337855 38.85,28.13 C38.3239178,28.1215378 37.8031267,28.0234668 37.31,27.84 C36.9837177,27.726284 36.6716523,27.5752847 36.38,27.39 C36.5799541,27.2496225 36.7868855,27.1194559 37,27 C37.2209391,26.855059 37.3755312,26.6285635 37.43,26.37 C37.4900002,26.1094742 37.4431825,25.8357709 37.3,25.61 C37.1164045,25.3238399 36.7999921,25.1505664 36.46,25.15 C36.2655328,25.1523587 36.0753858,25.2076742 35.91,25.31 L35.72,25.44 C35.9152774,24.2691586 36.6131684,23.2424184 37.63,22.63 Z M22.41,22.13 C23.8593959,22.8117987 25.2058748,23.6937423 26.41,24.75 C25.7456318,25.0593006 25.0228045,25.2229596 24.29,25.23 C23.6884662,25.2486121 23.0944535,25.092293 22.58,24.78 C20.48,23.46 19.15,20.38 18.58,18.84 C19.08,18.84 19.76,18.75 20.51,18.75 C22.2983817,18.6547501 24.0788919,19.0488824 25.66,19.89 C26.5899027,20.5929562 27.1668899,21.6665906 27.24,22.83 C26.0037401,21.796415 24.6307971,20.9383256 23.16,20.28 C22.6519039,20.0728651 22.0718006,20.313831 21.86,20.82 C21.757926,21.0665323 21.7586116,21.3436343 21.8619042,21.5896585 C21.9651968,21.8356828 22.162529,22.0302232 22.41,22.13 L22.41,22.13 Z M19,35.38 C21.792834,35.8495557 24.4645512,36.8692951 26.86,38.38 C26.2282983,39.1319492 25.4532394,39.7506366 24.58,40.2 C23.5213713,40.8179215 22.3251741,41.1616564 21.1,41.2 C20.6027809,41.2068023 20.1073285,41.1393938 19.63,41 C15.3,39.72 11.63,34.92 10.06,32.67 C13.0525271,31.3651252 16.2587777,30.6194855 19.52,30.47 C20.5675853,30.4583459 21.6114635,30.5964072 22.62,30.88 C24.2443087,31.4706884 25.579623,32.6628055 26.35,34.21 C26.6981314,34.8399733 26.9636502,35.5121729 27.14,36.21 L26.6,35.9 C24.3253223,34.7260108 21.888654,33.8969369 19.37,33.44 L19.18,33.44 C18.6277153,33.3847716 18.1352285,33.7877153 18.08,34.34 C18.0247716,34.8922847 18.4277153,35.3847715 18.98,35.44 L19,35.38 Z M29.38,9.84 C29.2406053,9.41066151 28.8308611,9.12793798 28.38,9.15 C28.2805689,9.13491466 28.1794311,9.13491466 28.08,9.15 C27.8263182,9.23031349 27.6151063,9.40842049 27.4931131,9.64489963 C27.3711199,9.88137876 27.3484064,10.156727 27.43,10.41 C28,12.2 28.52,14 28.94,15.86 C27.6868373,15.4721734 26.6829945,14.5273803 26.22,13.3 C25.59,10.9 26.71,7.74 27.35,6.24 C28.65,7.24 31.18,9.43 31.81,11.83 C32.0014519,13.052755 31.634442,14.2969187 30.81,15.22 C30.43,13.39 29.93,11.58 29.38,9.84 Z M42.18,46.43 C41.5235829,46.7257517 40.8098568,46.8725948 40.09,46.86 C38.3493918,46.8246243 36.6705066,46.2086812 35.32,45.11 C38.4047671,43.0539911 41.7737903,41.4604431 45.32,40.38 C45.8722847,40.3026801 46.2573199,39.7922847 46.18,39.24 C46.1026801,38.6877153 45.5922847,38.3026801 45.04,38.38 C44.9469565,38.3695974 44.8530435,38.3695974 44.76,38.38 C41.2285413,39.4487909 37.8629474,41.0036953 34.76,43 C34.95,41.2 36.03,38.61 38.09,37.64 C39.7305502,36.9343125 41.5047262,36.5931248 43.29,36.64 C45.445232,36.6731102 47.5894326,36.954977 49.68,37.48 C48.59,39.85 45.9,44.67 42.18,46.43 L42.18,46.43 Z"/>
      <path id="Path" fill="#3D454C" fill-rule="nonzero" d="M14.8,32.82 C14.304694,33.0632552 14.1000452,33.6617439 14.3427058,34.1573414 C14.5853665,34.6529389 15.1836092,34.8583058 15.6794975,34.6162401 C16.1753859,34.3741743 16.3814705,33.7761785 16.14,33.28 C16.0236703,33.0409635 15.8169494,32.8580846 15.5655117,32.7717702 C15.3140741,32.6854558 15.0386162,32.7028106 14.8,32.82 Z"/>
    </g>
  </g>
</svg>
