<svg xmlns="http://www.w3.org/2000/svg" width="64" height="64" viewBox="0 0 64 64" style="background:#fff">
  <g id="Basmatireis" fill="none" fill-rule="evenodd" stroke="none" stroke-width="1">
    <rect width="64" height="64" fill="#FFF"/>
    <g id="25-Basmatireis" transform="translate(2 4)">
      <rect id="Rectangle" width="60" height="60" x="0" y="0"/>
      <path id="Path" fill="#989898" fill-rule="nonzero" d="M45.68 36.28C44.2522221 35.7823842 42.6825556 35.8945032 41.34 36.59 39.68 34.76 36.87 33.25 34.52 34.78 32.17 36.31 32.7 39.7 33.46 41.93 34.54 45.13 36.81 47.74 39.11 50.14 40.76 51.86 43.61 53.81 45.69 51.53 46.75 50.38 47.32 48.53 48 47.14 48.8346341 45.7204222 49.4070841 44.1622742 49.69 42.54 50.0093687 39.7658682 48.3335509 37.1497536 45.68 36.28L45.68 36.28zM36.59 9.62C36.4056193 8.98535128 35.7494196 8.61291362 35.11 8.78 32.85 9.29 31.58 12 30.78 14 29.78 16.31 28.78 18.87 29.9 21.27 30.1853219 21.7453436 30.6727542 22.0637093 31.2226918 22.1339141 31.7726294 22.2041189 32.3244106 22.0184188 32.72 21.63 34.19 19.94 34.29 17.63 35.03 15.53 35.71 13.63 37 11.66 36.59 9.62zM23.49 13.22C22.8669451 11.627422 21.9663267 10.157992 20.83 8.88 20.54 8.56 20.1 8.88 20.16 9.26 20.47 10.86 20.81 12.44 21.16 14.04 21.51 15.64 21.43 17.22 22.27 18.46 22.5059663 18.8407184 22.9430144 19.047976 23.3871296 18.9897667 23.8312448 18.9315574 24.2001185 18.6186693 24.33 18.19 24.84 16.6 24.07 14.72 23.49 13.22zM17.3 21.28C17.09 19.9 15.3 20.04 14.63 20.93 13.27 22.81 12.71 25.27 12.09 27.48 11.3755522 29.5747823 11.1631812 31.8081033 11.47 34 11.72 35.5 13.64 35.33 14.35 34.38 15.85 32.38 16.28 30.19 16.74 27.76 17.2911428 25.6471021 17.4804864 23.4561251 17.3 21.28L17.3 21.28zM14.48 7.84C14.75 6.48 13 6 12.08 6.62 10.17 7.94 8.82 10.06 7.49 11.93 6.09723464 13.6803781 5.14090278 15.7370058 4.7 17.93 4.44 19.42 6.3 19.93 7.29 19.25 9.38 17.86 10.52 15.96 11.77 13.82 13.0053257 11.9944406 13.9216844 9.97236501 14.48 7.84zM25.85 32C24.85 29.8 24.05 27.38 22.39 25.61 22.126675 25.3621993 21.7426113 25.2916258 21.4083937 25.4296253 21.0741761 25.5676248 20.8517861 25.888605 20.84 26.25 20.68 28.57 21.52 30.88 22.13 33.09 22.74 35.3 23.2 37.54 25 39 25.3555751 39.3364889 25.8602388 39.4644608 26.3331907 39.3380685 26.8061426 39.2116761 27.1796876 38.8490106 27.32 38.38 27.74 36.07 26.75 34.06 25.85 32z" opacity=".5"/>
      <path id="Shape" fill="#3D454C" fill-rule="nonzero" d="M25 20C25.7989919 19.2206362 26.1715753 18.1028862 26 17 25.8332672 15.4179543 25.5660609 13.8481175 25.2 12.3 24.9091032 10.7496449 24.4358141 9.23914771 23.79 7.8 23.4401486 6.86159207 22.8165512 6.04987036 22 5.47 21.1202547 5.03383016 20.0565558 5.25234195 19.42 6 18.7697168 6.8549421 18.5018913 7.94072124 18.68 9 18.81 11.1 20.62 23.44 25 20zM23.57 18.53L23.57 18.53C23.57 18.53 23.45 18.59 23.47 18.58L23.57 18.53zM23.65 18.53L23.65 18.53C23.63 18.68 23.6 18.64 23.55 18.58L23.65 18.53zM20.71 7.84C20.77 7.53 20.79 7.44 20.99 7.3 20.93 7.3 21.09 7.3 21.1 7.3L21.1 7.3C21.224681 7.43144446 21.3352819 7.57556074 21.43 7.73 21.7091773 8.12812604 21.9470719 8.5536559 22.14 9 22.6409216 10.230782 23.0096578 11.5113025 23.24 12.82 23.46 13.92 23.7 15.01 23.87 16.12 24.0498942 16.8287632 24.0498942 17.5712368 23.87 18.28 23.81 18.43 23.78 18.43 23.61 18.54 23.44 18.65 23.61 18.48 23.52 18.54L23.35 18.36C23.2811008 18.2775411 23.2176337 18.1906914 23.16 18.1 22.9028792 17.7110277 22.6819549 17.2993052 22.5 16.87 21.6736597 14.7264606 21.1128222 12.489827 20.83 10.21 20.6518101 9.43308262 20.6111954 8.63094243 20.71 7.84L20.71 7.84zM9.79 19.35C10.865701 18.0147426 11.8448492 16.6045019 12.72 15.13 13.5631468 13.8485768 14.2671331 12.480832 14.82 11.05 15.2618517 10.0982089 15.4248191 9.04065508 15.29 8 15.0157336 7.04241906 14.1144398 6.40279116 13.12 6.46 12.0765582 6.54706883 11.1181251 7.06985051 10.48 7.9 9.56595864 8.98813096 8.73685303 10.144867 8 11.36 7.17 12.64 6.29 13.89 5.59 15.24 4.98267947 16.2133252 4.70562071 17.356631 4.8 18.5 4.97432877 19.5355634 5.72320109 20.3814399 6.73 20.68 7.92032055 20.8576261 9.10782421 20.3414889 9.79 19.35zM7.45 18.74C7.45 18.74 7.4 18.74 7.36 18.74 7.32 18.74 7.25 18.74 7.13 18.64 6.938111 18.5298207 6.81420166 18.3308148 6.8 18.11 6.79127627 18.0135302 6.79127627 17.9164698 6.8 17.82 6.82166031 17.678342 6.85171321 17.5380952 6.89 17.4 7.01701189 16.9942204 7.18452189 16.602247 7.39 16.23 7.92 15.23 8.55 14.23 9.17 13.31 9.79 12.39 10.48 11.26 11.17 10.31 11.578828 9.60536113 12.1431747 9.00339136 12.82 8.55 12.9376276 8.47973355 13.0730742 8.44500365 13.21 8.45L13.38 8.5C13.3849789 8.57992253 13.3849789 8.66007747 13.38 8.74 13.3756008 8.89562212 13.3520912 9.05011362 13.31 9.2 13.2131353 9.65675185 13.0793629 10.1048894 12.91 10.54 12.4030036 11.8025406 11.7662546 13.0090124 11.01 14.14 10.35 15.14 9.71 16.19 9.01 17.14 8.58996515 17.7791048 8.04170941 18.3239552 7.4 18.74L7.45 18.74zM27.44 32C27.1108933 30.4708746 26.607609 28.9845084 25.94 27.57 25.5716468 26.6472118 24.9427521 25.8515384 24.13 25.28 23.227219 24.8512683 22.1479019 25.1044927 21.53 25.89 20.9148834 26.729997 20.6692747 27.7846699 20.85 28.81 21.04 30.96 23.23 43.36 27.48 39.7 28.2348942 38.8973007 28.5650227 37.784508 28.37 36.7 28.1616174 35.1149275 27.8509694 33.5449862 27.44 32zM26.34 37.97C26.3083214 38.0926566 26.2241688 38.1951032 26.11 38.25L25.99 38.25 25.84 38.11 25.63 37.86C25.3652577 37.477495 25.1343828 37.0726274 24.94 36.65 24.0268028 34.5237784 23.3915658 32.2886853 23.05 30 22.846998 29.2274694 22.7759985 28.4261892 22.84 27.63 22.8516838 27.4189538 22.9406803 27.2196016 23.09 27.07 23.03 27.07 23.14 27.07 23.21 27.01L23.27 27.01C23.3722521 27.1149631 23.4690462 27.2251081 23.56 27.34 23.8455178 27.7482565 24.0900367 28.1837013 24.29 28.64 24.8353281 29.8509581 25.244502 31.1187264 25.51 32.42 25.76 33.51 26.04 34.6 26.24 35.7 26.4435595 36.4266992 26.4675813 37.1919646 26.31 37.93L26.34 37.97zM36.31 11.4C36.3572642 10.3316004 36.0515313 9.27734895 35.44 8.4 34.6976872 7.67880699 33.5755283 7.51734528 32.66 8 31.7795402 8.52670958 31.1351323 9.37159998 30.86 10.36 30.4305501 11.6300408 30.0962922 12.9303042 29.86 14.25 29.4964752 15.8076556 29.3053266 17.4005606 29.29 19 29.2418734 20.0944967 29.4869891 21.1819819 30 22.15 30.582914 22.9839131 31.6411575 23.3407156 32.61 23.03 33.6895301 22.6185681 34.5022879 21.7088758 34.79 20.59 35.2592132 19.1353202 35.6201978 17.6479301 35.87 16.14 36.2202946 14.5855594 36.3681866 12.9923587 36.31 11.4zM33.2 18.83C33.0739678 19.5463015 32.7979332 20.2278684 32.39 20.83 32.2921144 20.9571806 32.1550458 21.0485597 32 21.09L31.77 21.09 31.67 21.09 31.67 21.09C31.67 21.09 31.57 20.89 31.6 20.96 31.5522996 20.8461171 31.5122115 20.7291934 31.48 20.61 31.378612 20.1938638 31.3216268 19.7681514 31.31 19.34 31.3178478 17.0307191 31.6545623 14.7343264 32.31 12.52 32.4485291 11.6869911 32.7401113 10.8868355 33.17 10.16 33.2660008 10.0147813 33.3922061 9.89198697 33.54 9.8 33.6182256 9.76275173 33.7033897 9.74231234 33.79 9.74L34 9.74C34 9.74 34 9.74 34 9.81 34.0567366 9.93616191 34.1035452 10.0665574 34.14 10.2 34.2524538 10.6480009 34.3095465 11.1081012 34.31 11.57 34.328774 12.9152554 34.1877875 14.2579835 33.89 15.57 33.67 16.68 33.47 17.77 33.2 18.84L33.2 18.83zM14.29 20.31C13.3306998 20.7221134 12.5676157 21.4887801 12.16 22.45 11.5782632 23.6884928 11.0804734 24.9647055 10.67 26.27 10.1184859 27.7528826 9.73280428 29.2922555 9.52 30.86 9.30282689 31.9478278 9.41421909 33.0756738 9.84 34.1 10.3497706 34.9426542 11.3360092 35.3716278 12.3 35.17 13.4180582 34.8826464 14.3297233 34.0751715 14.75 33 15.4006435 31.5810055 15.9584831 30.1212694 16.42 28.63 16.9467908 27.1280055 17.2827559 25.5657679 17.42 23.98 17.5851377 22.9899157 17.4383636 21.972981 17 21.07 16.3592921 20.2524478 15.2623937 19.9448305 14.29 20.31zM13.37 31.23C13.1643663 31.9343808 12.7823011 32.5745981 12.26 33.09 12.1554345 33.1809289 12.0178227 33.2243853 11.88 33.21 11.7925654 33.1798297 11.7019834 33.1597004 11.61 33.15 11.61 33.06 11.5 32.85 11.47 32.65 11.4145831 32.1816335 11.4145831 31.7083665 11.47 31.24 11.7973821 28.9567782 12.4366847 26.7293135 13.37 24.62 13.6137218 23.8551689 13.993102 23.1404437 14.49 22.51 14.6110383 22.3272236 14.8034042 22.2038191 15.02 22.17 14.92 22.17 15.18 22.17 15.2 22.17L15.34 22.17C15.34 22.32 15.43 22.45 15.45 22.6 15.5099631 23.1015475 15.5099631 23.6084525 15.45 24.11 15.2725262 25.4547962 14.9368687 26.7739303 14.45 28.04 14.12 29.16 13.79 30.21 13.37 31.23zM56.52 26C56.5255599 25.9803864 56.5255599 25.9596136 56.52 25.94 56.5135051 25.8292804 56.4863726 25.7207502 56.44 25.62 56.4409698 25.6033474 56.4409698 25.5866526 56.44 25.57 56.3364654 25.2938963 56.0986902 25.0900889 55.81 25.03 50.8984679 24.4195104 45.9465929 24.1954891 41 24.36 39.56 24.36 37.68 24.15 36.4 24.94 34.64 26.03 32.4 28.18 31.9 30.29 31.7381416 30.5577758 31.7016016 30.8829819 31.8 31.18 31.7648563 31.2659534 31.7445677 31.3572519 31.74 31.45 31.74 37.13 31.74 42.81 31.74 48.45 31.74 50.35 31.74 52.24 31.74 54.13 31.82 56.57 34.01 56.84 36.03 56.83 41.03 56.83 46.03 56.89 51.03 56.44 51.4760762 56.5995585 51.9729005 56.4242088 52.22 56.02L52.67 55.41 52.81 55.23 52.81 55.23 53.05 54.93C53.38 54.52 53.71 54.11 54.05 53.71 54.7166667 52.9433333 55.4066667 52.1933333 56.12 51.46 56.3581401 51.2833144 56.4869903 50.9952965 56.46 50.7 56.12 42.46 56.92 34.2 56.52 26zM37.68 26.56C37.88 26.47 37.78 26.56 38.13 26.5L39.13 26.45C40.08 26.45 41.03 26.45 41.99 26.45 45.9959241 26.3115732 50.0065516 26.4150948 54 26.76 53.1327298 27.9184487 52.0862537 28.9311675 50.9 29.76 50.5693171 29.7055783 50.2350861 29.6754975 49.9 29.67 46.32 29.55 42.73 29.67 39.15 29.72L34.31 29.77C34.7022951 29.199316 35.1476052 28.6669528 35.64 28.18 36.2172299 27.5084446 36.9076709 26.9432307 37.68 26.51L37.68 26.56zM52.26 52.87C52.26 49.77 52.04 46.67 51.9 43.58 51.84 42.3 49.84 42.29 49.9 43.58 50.07 47.23 50.33 50.88 50.23 54.58 46.54 54.88 42.83 54.91 39.13 54.91L36 54.91C35.2662827 54.9973508 34.5223135 54.9082117 33.83 54.65L33.73 54.65C33.7339881 54.6201325 33.7339881 54.5898675 33.73 54.56 33.7147744 54.3135683 33.7147744 54.0664317 33.73 53.82 33.65 49.32 33.73 44.82 33.73 40.31 33.73 37.5 33.73 34.7 33.73 31.89 37.01 31.89 40.28 31.82 43.55 31.78 45.23 31.78 46.9 31.78 48.55 31.78 49.04 31.78 49.55 31.78 50.02 31.78 50.02 32.48 49.91 33.78 49.89 33.97 49.7354301 34.8039866 49.6950598 35.6551275 49.77 36.5 49.95 37.77 51.88 37.23 51.69 35.97 51.69 36.12 51.69 35.75 51.69 35.7 51.69 35.65 51.69 35.36 51.69 35.19 51.69 34.71 51.8 34.19 51.86 33.75 51.9765997 32.9925543 52.0234627 32.2260085 52 31.46 52.8811305 30.7682737 53.7193466 30.0235638 54.51 29.23 54.62 36.23 54.08 43.34 54.4 50.4 53.6933333 51.18 52.98 52.0033333 52.26 52.87z"/>
      <path id="Path" fill="#3D454C" fill-rule="nonzero" d="M43.08 43.68C43.303895 43.5502581 43.4687793 43.3387761 43.54 43.09 43.597658 42.8262497 43.562328 42.5506752 43.44 42.31 43.01 41.31 42.57 40.31 42.14 39.38 42.0079028 39.1540574 41.7924904 38.9889079 41.54 38.92 41.2798116 38.856725 41.0053947 38.8923636 40.77 39.02 40.5481297 39.1566601 40.3843717 39.3702576 40.31 39.62 40.2578396 39.8806828 40.2929831 40.1512883 40.41 40.39 40.84 41.39 41.28 42.39 41.71 43.32 41.8420972 43.5459426 42.0575096 43.7110921 42.31 43.78 42.5696588 43.8517415 42.8472799 43.8156868 43.08 43.68zM46.54 38.55C46.4453246 38.2052387 46.173913 37.9371748 45.8280033 37.8467854 45.4820935 37.7563961 45.1142376 37.8574135 44.8630032 38.1117854 44.6117689 38.3661574 44.5153246 38.7352387 44.61 39.08 44.89 40.08 45.18 41.14 45.46 42.17 45.6091169 42.7029548 46.1620452 43.0141168 46.695 42.8649999 47.2279547 42.7158831 47.5391168 42.1629548 47.39 41.63 47.11 40.61 46.82 39.58 46.54 38.55zM44.92 46.45C44.6640602 46.3795164 44.3905976 46.4136928 44.1598766 46.5449974 43.9291555 46.6763021 43.7601124 46.8939583 43.69 47.15 43.36 48.15 43.04 49.22 42.69 50.25 42.6195164 50.5059398 42.6536928 50.7794024 42.7849974 51.0101234 42.9163021 51.2408445 43.1339583 51.4098876 43.39 51.48 43.6459398 51.5504836 43.9194024 51.5163072 44.1501234 51.3850026 44.3808445 51.2536979 44.5498876 51.0360417 44.62 50.78 44.94 49.78 45.27 48.72 45.62 47.68 45.6904836 47.4240602 45.6563072 47.1505976 45.5250026 46.9198766 45.3936979 46.6891555 45.1760417 46.5201124 44.92 46.45zM40 45C39.8633399 44.7781297 39.6497424 44.6143717 39.4 44.54 39.1403412 44.4682585 38.8627201 44.5043132 38.63 44.64 38.3961323 44.7668369 38.2224481 44.9816385 38.1473783 45.236876 38.0723084 45.4921135 38.102042 45.7667439 38.23 46L39.7 48.44C39.8297419 48.663895 40.0412239 48.8287793 40.29 48.9 40.5496588 48.9717415 40.8272799 48.9356868 41.06 48.8 41.2897442 48.666372 41.4568418 48.4467828 41.5243886 48.1897298 41.5919353 47.9326768 41.5543739 47.6593087 41.42 47.43L40 45zM38.57 37.59C38.4383226 37.3698851 38.2271 37.2087831 37.98 37.14 37.4500015 36.9925095 36.9004033 37.3008207 36.75 37.83 36.52 38.92 36.3 40 36.08 41.09 35.9325095 41.6199985 36.2408207 42.1695967 36.77 42.32 37.0259398 42.3904836 37.2994024 42.3563072 37.5301234 42.2250026 37.7608445 42.0936979 37.9298876 41.8760417 38 41.62 38.23 40.53 38.45 39.45 38.68 38.37 38.739924 38.1052955 38.7007913 37.8278088 38.57 37.59z"/>
    </g>
  </g>
</svg>
