<svg xmlns="http://www.w3.org/2000/svg" width="64" height="64" viewBox="0 0 64 64" style="background:#fff">
  <g id="Batavia" fill="none" fill-rule="evenodd" stroke="none" stroke-width="1">
    <rect width="64" height="64" fill="#FFF"/>
    <g transform="translate(2 4)">
      <rect id="Rectangle" width="60" height="60" x="0" y="0"/>
      <path id="Path" fill="#31E085" fill-rule="nonzero" d="M52.43,25.23 C52.53,13.41 43,2.57 30.66,3.83 C20.15,4.91 7.29,16.26 6.63,27.17 C6.27,33.25 9.57,38.85 13.92,42.85 C17.73,46.35 22.92,48.64 25.33,53.41 C28.85,60.41 38.54,57.75 40.79,51.41 C41.51,49.41 42.2,47.37 42.86,45.29 C48.75,40.58 52.38,32.17 52.43,25.23 Z" opacity=".5"/>
      <path id="Shape" fill="#3D454C" fill-rule="nonzero" d="M49.41,24.62 C49.22,24.5 49.14,24.33 49.86,23.07 C50.0594151,22.7555908 50.2237316,22.4202511 50.35,22.07 C50.82,20.56 50.27,19.47 48.46,18.33 C47.9261393,18.0025249 47.3464316,17.7564862 46.74,17.6 C46.5352887,17.5503759 46.3372242,17.4765213 46.15,17.38 C45.7,17.09 45.65,16.77 45.62,15.94 C45.62,14.83 45.53,12.99 42.51,12.57 C41.65,12.45 41.63,12.36 41.51,11.76 C41.32,10.59 40.88,9.33 38.09,9.04 C36.8966357,8.87321696 35.6814756,9.10149848 34.63,9.69 C34.6267172,9.66678213 34.6267172,9.64321787 34.63,9.62 C33.6599952,8.10106774 31.9822387,7.1818128 30.18,7.1818128 C28.3777613,7.1818128 26.7000048,8.10106774 25.73,9.62 C25.7267172,9.64321787 25.7267172,9.66678213 25.73,9.69 C24.6690261,9.0767634 23.4341551,8.83401098 22.22,9 C19.43,9.29 18.99,10.55 18.8,11.72 C18.7,12.32 18.69,12.41 17.8,12.53 C14.8,12.95 14.72,14.79 14.69,15.89 C14.69,16.73 14.61,17.05 14.16,17.34 C13.9720303,17.4348257 13.7741647,17.5086061 13.57,17.56 C12.9635684,17.7164862 12.3838607,17.9625249 11.85,18.29 C10.04,19.43 9.49,20.52 9.96,22.03 C10.0864505,22.3784228 10.2472419,22.7134049 10.44,23.03 C11.15,24.28 11.07,24.47 10.85,24.62 C8.47,26.29 7.09,29.21 7.69,31.29 C8.196732,32.7805571 9.63867315,33.7473131 11.21,33.65 C13.42,33.74 13.75,34.16 13.76,34.16 C13.6973986,34.5331253 13.5687148,34.8920852 13.38,35.22 C12.8546328,36.0038498 12.728685,36.9892059 13.04,37.88 C13.4876681,38.6001879 14.2540362,39.0614968 15.1,39.12 C17.49,39.55 17.51,40.12 17.54,41.27 C17.61,43.2 18.01,45.02 22.27,46.1 C24.09,46.56 26.1,48.17 26.19,49.79 L26.19,52.2 C26.1618382,53.0180199 26.584077,53.7857267 27.29,54.2 C27.771585,54.4393295 28.3505182,54.3600236 28.75,54 C30.06,52.81 30.86,53.12 31.65,54 C31.8896984,54.2680931 32.230427,54.4239583 32.59,54.43 C32.7444704,54.43 32.8974119,54.3994117 33.04,54.34 C33.7382375,53.9205986 34.1522684,53.1538746 34.12,52.34 L34.12,49.87 C34.21,48.2 36.22,46.59 38.04,46.13 C42.3,45.05 42.7,43.23 42.76,41.3 C42.76,40.16 42.82,39.58 45.21,39.15 C46.0559638,39.0914968 46.8223319,38.6301879 47.27,37.91 C47.581315,37.0192059 47.4553672,36.0338498 46.93,35.25 C46.7484611,34.9401865 46.6200223,34.6021897 46.55,34.25 C46.55,34.25 46.86,33.82 49.1,33.73 C50.5772285,33.7977164 51.905033,32.8350582 52.3,31.41 C52.89,29.08 51.17,25.69 49.41,24.62 Z M50.41,30.86 C50.35,31.09 50.21,31.63 49.07,31.68 C46.74,31.78 45.45,32.23 44.89,33.16 C44.33,34.09 44.79,35.29 45.17,36.1 C45.3152912,36.3845971 45.4325115,36.6826715 45.52,36.99 C45.3236948,37.0832037 45.1148203,37.1472137 44.9,37.18 C41.23,37.85 40.9,39.48 40.81,41.18 C40.81,42.44 40.75,43.34 37.6,44.18 C35.04,44.82 32.31,47.09 32.17,49.81 L32.17,51.73 C30.9657012,50.9718466 29.4211381,51.023332 28.27,51.86 L28.27,49.76 C28.13,47.1 25.4,44.83 22.84,44.19 C19.69,43.39 19.66,42.49 19.62,41.19 C19.57,39.44 19.21,37.81 15.54,37.19 C15.3247425,37.1591495 15.1155828,37.0950521 14.92,37 C15.0074885,36.6926715 15.1247088,36.3945971 15.27,36.11 C15.65,35.3 16.17,34.19 15.55,33.17 C14.93,32.15 13.7,31.79 11.37,31.69 C9.95,31.63 9.76,30.98 9.69,30.76 C9.37,29.67 10.27,27.56 12.07,26.3 C13.87,25.04 12.76,22.95 12.26,22.08 C12.1458151,21.8892288 12.0423222,21.6922584 11.95,21.49 C11.82,21.07 11.74,20.82 12.95,20.03 C13.3229693,19.8047032 13.7274026,19.6361893 14.15,19.53 C14.547317,19.4333137 14.9281177,19.2782975 15.28,19.07 C16.2786144,18.3821232 16.8259635,17.2070451 16.71,16 C16.71,15 16.76,14.74 18.11,14.55 C20.25,14.25 20.61,13.12 20.78,12.08 C20.88,11.47 20.92,11.19 22.42,11.03 C23.2460076,10.8951577 24.0930556,11.0581879 24.81,11.49 C25.2264103,11.7881527 25.7491702,11.897061 26.25,11.79 C26.8019692,11.5658237 27.2412885,11.1301054 27.47,10.58 C28.11991,9.73848579 29.107744,9.22627559 30.17,9.18 C31.232256,9.22627559 32.22009,9.73848579 32.87,10.58 C33.0928545,11.1340175 33.5341671,11.5717128 34.09,11.79 C34.5908323,11.8957986 35.1130833,11.7869963 35.53,11.49 C36.2431101,11.0478052 37.0904164,10.8740897 37.92,11 C39.42,11.16 39.46,11.44 39.56,12.05 C39.73,13.05 40.09,14.22 42.23,14.52 C43.58,14.71 43.59,14.98 43.62,15.97 C43.5142145,17.1724974 44.0596867,18.3397318 45.05,19.03 C45.4053821,19.238416 45.7894955,19.3934092 46.19,19.49 C46.6125974,19.5961893 47.0170307,19.7647032 47.39,19.99 C48.64,20.78 48.57,20.99 48.39,21.45 C48.2959265,21.6564659 48.1890519,21.8568559 48.07,22.05 C47.55,22.96 46.34,25.05 48.32,26.3 C49.47,27 50.71,29.5 50.36,30.86 L50.41,30.86 Z"/>
      <path id="Path" fill="#3D454C" fill-rule="nonzero" d="M14.29 27.72C13.7377153 27.72 13.29 28.1677153 13.29 28.72 13.29 29.2722847 13.7377153 29.72 14.29 29.72 14.8422847 29.72 15.29 29.2722847 15.29 28.72 15.29 28.1677153 14.8422847 27.72 14.29 27.72zM46 27.74C42.52 28.64 39 29.74 36.14 31.98 34.1314292 33.6917219 32.4390601 35.7428732 31.14 38.04 31.14 36.69 31.14 35.34 31.14 34.04 31.14 34.04 31.14 34.04 31.14 33.98 31.321918 31.4645112 32.3512754 29.0850036 34.06 27.23L34.23 27.17C36.6690979 25.6973812 39.6444811 25.4105087 42.32 26.39 42.6647613 26.4846754 43.0338426 26.3882311 43.2882145 26.1369967 43.5425864 25.8857624 43.6436039 25.5179065 43.5532145 25.1719967 43.4628252 24.826087 43.1947613 24.5546754 42.85 24.46 41.0477057 23.8931255 39.143508 23.725911 37.27 23.97 38.08 23.26 38.89 22.61 39.64 22.04 40.64 21.27 39.64 19.53 38.64 20.31 35.7248652 22.4043461 33.1856046 24.9774185 31.13 27.92L31.13 22.28C32.5160302 19.3906576 34.9840731 17.1633117 38 16.08 39.2 15.64 38.68 13.71 37.46 14.15 35.003958 15.0294123 32.8402814 16.573412 31.21 18.61 31.21 17.61 31.21 16.69 31.21 15.73 31.21 15.1777153 30.7622847 14.73 30.21 14.73 29.6577153 14.73 29.21 15.1777153 29.21 15.73 29.21 16.68 29.21 17.63 29.21 18.58 27.5799612 16.5544097 25.4198279 15.0208536 22.97 14.15 21.76 13.71 21.24 15.64 22.44 16.08 25.4123917 17.179291 27.8403703 19.3920869 29.21 22.25L29.21 27.84C26.9861639 24.643355 24.1888839 21.8867627 20.96 19.71 19.91 18.96 18.91 20.71 19.96 21.44 21.01 22.17 22 23 23.06 23.92 21.1733188 23.6729243 19.2554537 23.8401403 17.44 24.41 16.9070452 24.5646397 16.6003603 25.1220452 16.755 25.655 16.9096397 26.1879548 17.4670452 26.4946397 18 26.34 20.6788406 25.3602464 23.6573442 25.6470653 26.1 27.12 26.1632679 27.1520982 26.2305244 27.1756379 26.3 27.19 27.9891072 29.050809 29.0065215 31.4236024 29.19 33.93 29.19 33.93 29.19 33.93 29.19 34.01 29.19 35.35 29.19 36.68 29.19 38.01 28.1687269 36.2102841 26.910864 34.5555554 25.45 33.09 23.3704037 31.2429258 20.9284006 29.8499282 18.28 29 17.07 28.56 16.55 30.49 17.75 30.93 20.2192851 31.7114847 22.4815929 33.0374295 24.37 34.81L24.37 34.81 23.72 34.81C22.37 34.81 20.29 34.65 19.09 35.43 17.89 36.21 19.02 37.86 20.09 37.15 20.81 36.69 22.24 36.81 23.09 36.8 23.94 36.79 25.98 36.66 26.46 37.44L26.46 37.49C27.46 38.96 28.31 40.55 29.16 42.09 29.16 43.79 29.16 45.49 29.16 47.19 29.16 47.7422847 29.6077153 48.19 30.16 48.19 30.7122847 48.19 31.16 47.7422847 31.16 47.19L31.16 42.05C31.99 40.55 32.84 39.05 33.82 37.56 33.82 37.5 33.93 37.46 33.98 37.39 34.45 36.61 36.54 36.77 37.29 36.78 38.2788748 36.6733135 39.278988 36.8000402 40.21 37.15 41.3 37.86 42.3 36.15 41.21 35.43 40.12 34.71 37.98 34.75 36.64 34.78L35.98 34.78C36.33 34.42 36.68 34.07 37.06 33.78 39.73 31.5 43.17 30.53 46.5 29.66 46.9673899 29.4726733 47.2225947 28.9670462 47.0956989 28.4797659 46.968803 27.9924857 46.4993918 27.6755607 46 27.74z"/>
      <path id="Path" fill="#3D454C" fill-rule="nonzero" d="M42.44,20.18 C42.7875704,20.0397469 43.027532,19.716912 43.0616433,19.3436661 C43.0957545,18.9704202 42.9182876,18.6094362 42.6018984,18.4085033 C42.2855093,18.2075704 41.8833242,18.2004279 41.56,18.39 C41.0678736,18.6321629 40.8626468,19.2255359 41.1,19.72 C41.2163297,19.9590365 41.4230506,20.1419154 41.6744883,20.2282298 C41.9259259,20.3145442 42.2013838,20.2971894 42.44,20.18 Z"/>
    </g>
  </g>
</svg>
