<svg xmlns="http://www.w3.org/2000/svg" width="64" height="64" viewBox="0 0 64 64" style="background:#fff">
  <g id="Bier" fill="none" fill-rule="evenodd" stroke="none" stroke-width="1">
    <rect width="64" height="64" fill="#FFF"/>
    <g transform="translate(2 4)">
      <rect id="Rectangle" width="60" height="60" x="0" y="0"/>
      <path id="Path" fill="#D4BA39" fill-rule="nonzero" d="M39.75,27.38 C32.84,27.83 28.6,32.31 23.08,35.15 C18.7398727,34.5853107 14.3328145,34.8260039 10.08,35.86 C1.12,38.18 -1,47.67 5.8,52.92 C11.42,57.27 22.12,56.28 29.16,56.35 C36.56,56.43 44,55.24 49.42,50.56 C58.65,42.57 54.92,26.38 39.75,27.38 Z" opacity=".5"/>
      <path id="Path" fill="#3D454C" fill-rule="nonzero" d="M25.66 50.09L25.66 38.39C25.66 37.8929437 25.2570563 37.49 24.76 37.49 24.2629437 37.49 23.86 37.8929437 23.86 38.39L23.86 50.09C23.86 50.5870563 24.2629437 50.99 24.76 50.99 25.2570563 50.99 25.66 50.5870563 25.66 50.09L25.66 50.09zM18.46 38.39L18.46 50.09C18.46 50.5870563 18.8629437 50.99 19.36 50.99 19.8570563 50.99 20.26 50.5870563 20.26 50.09L20.26 38.39C20.26 37.8929437 19.8570563 37.49 19.36 37.49 18.8629437 37.49 18.46 37.8929437 18.46 38.39zM14 37.49C13.5052012 37.4954081 13.1054081 37.8952012 13.1 38.39L13.1 50.09C13.1 50.5870563 13.5029437 50.99 14 50.99 14.4970563 50.99 14.9 50.5870563 14.9 50.09L14.9 38.39C14.9 37.8929437 14.4970563 37.49 14 37.49L14 37.49zM14 32.26L14 33C14 34.4911688 15.2088312 35.6999999 16.7 35.6999999 18.1911688 35.6999999 19.4 34.4911688 19.4 33 19.4 32.5029437 18.9970563 32.1 18.5 32.1 18.0029437 32.1 17.6 32.5029437 17.6 33 17.6 33.4970563 17.1970563 33.9 16.7 33.9 16.2029437 33.9 15.8 33.4970563 15.8 33L15.8 30.3C15.8008475 29.9117657 15.549939 29.5677783 15.18 29.45 14.8125345 29.331037 14.4101349 29.4598049 14.18 29.77 13.2243141 31.0631058 11.5269809 31.565652 10.021338 31.001296 8.51569503 30.43694 7.56687092 28.942542 7.69660945 27.3398486 7.82634798 25.7371551 9.00318667 24.4148302 10.58 24.1 11.0080745 24.016897 11.3128915 23.6358758 11.3 23.2L11.3 23.13C11.3 21.6388312 12.5088312 20.43 14 20.43 14.2395143 20.4327066 14.4700088 20.3387549 14.6393819 20.1693819 14.8087549 20.0000088 14.9027066 19.7695143 14.9 19.53 14.9 19.0329437 14.4970563 18.6298982 14 18.6298982 11.7296536 18.6148593 9.80199788 20.2897779 9.5 22.54 7.07195377 23.4428963 5.6271532 25.9428115 6.05698674 28.4973904 6.48682028 31.0519693 8.67017422 32.941411 11.26 33 12.2233632 33.0050075 13.1701384 32.7493091 14 32.26L14 32.26z"/>
      <path id="Shape" fill="#3D454C" fill-rule="nonzero" d="M33.76,51 C38.2335065,51 41.86,47.3735065 41.86,42.9 L41.86,37.5 C41.86,33.0264935 38.2335065,29.4 33.76,29.4 L31.06,29.4 L31.06,27.6 C31.0700052,27.5270079 31.0700052,27.4529921 31.06,27.38 C31.06,27.15 31.06,26.93 31.06,26.7 C31.06,23.7176624 28.6423376,21.3 25.66,21.3 L25.44,21.3 C24.4204972,19.8311399 22.8248756,18.8646666 21.0508617,18.6414842 C19.2768477,18.4183018 17.4915595,18.9594349 16.14,20.13 C15.8970594,20.3407867 15.7850264,20.6651689 15.8461027,20.980955 C15.907179,21.2967411 16.1320858,21.5559556 16.4361027,21.660955 C16.7401197,21.7659544 17.0770594,21.7007867 17.32,21.49 C18.3402766,20.6023396 19.7069344,20.2230662 21.0387459,20.4579776 C22.3705575,20.6928889 23.5249841,21.5168434 24.18,22.7 C24.3641223,23.015305 24.7172826,23.1918852 25.08,23.15 C25.2711669,23.1139214 25.465479,23.0971703 25.66,23.1 C27.2968885,23.0951517 28.7309869,24.19522 29.1504537,25.7774573 C29.5699204,27.3596947 28.8691456,29.025739 27.4448373,29.8324441 C26.020529,30.6391492 24.2312872,30.3834099 23.09,29.21 C22.8274936,28.947783 22.4331663,28.8689175 22.09,29.01 C21.0406685,29.4762623 19.8525772,29.5227839 18.77,29.14 C18.4622256,29.0021423 18.103208,29.0479149 17.8398689,29.2585861 C17.5765299,29.4692574 17.4530649,29.8094708 17.52,30.14 C17.5931953,30.4735134 17.8488196,30.7368839 18.18,30.82 C19.5010524,31.2802989 20.9389476,31.2802989 22.26,30.82 C24.3057812,32.5014858 27.2680626,32.4549356 29.26,30.71 L29.26,52.79 C29.26,54.2811688 28.0511688,55.49 26.56,55.49 L12.16,55.49 C10.6688312,55.49 9.46,54.2811688 9.46,52.79 L9.46,35.69 C9.46,35.1929437 9.05705627,34.79 8.56,34.79 C8.06294373,34.79 7.65998882,35.1929437 7.65998882,35.69 L7.65998882,52.79 C7.65733714,53.9842885 8.13058776,55.130429 8.97507939,55.9749206 C9.81957102,56.8194122 10.9657115,57.2926629 12.16,57.2900112 L26.56,57.2900112 C27.7542885,57.2926629 28.900429,56.8194122 29.7449206,55.9749206 C30.5894122,55.130429 31.0626629,53.9842885 31.06,52.79 L31.06,51 L33.76,51 Z M33.76,31.2 C37.2393939,31.2 40.06,34.0206061 40.06,37.5 L40.06,42.9 C40.06,46.3793939 37.2393939,49.2 33.76,49.2 L31.06,49.2 L31.06,47.4 L33.76,47.4 C34.9542885,47.4026629 36.100429,46.9294122 36.9449206,46.0849206 C37.7894122,45.240429 38.2626629,44.0942885 38.26,42.9 L38.26,37.5 C38.2626629,36.3057115 37.7894122,35.159571 36.9449206,34.3150794 C36.100429,33.4705878 34.9542885,32.9973371 33.76,33 L31.06,33 L31.06,31.2 L33.76,31.2 Z M31.06,34.8 L33.76,34.8 C35.2511688,34.8 36.46,36.0088312 36.46,37.5 L36.46,42.9 C36.46,43.6160845 36.1755365,44.3028401 35.6691883,44.8091883 C35.1628401,45.3155365 34.4760845,45.6 33.76,45.6 L31.06,45.6 L31.06,34.8 Z"/>
      <path id="Path" fill="#3D454C" fill-rule="nonzero" d="M48.16,6.89 C47.838461,6.89 47.5413466,7.06153902 47.3805771,7.33999999 C47.2198076,7.61846097 47.2198076,7.96153903 47.3805771,8.24000001 C47.5413466,8.51846098 47.838461,8.69000001 48.16,8.69 C50.1482251,8.69 51.76,10.3017749 51.76,12.29 L51.76,21.29 C51.76,21.7870563 51.3570563,22.19 50.86,22.19 C50.3629437,22.19 49.96,21.7870563 49.96,21.29 L49.96,16.7 C49.9571334,16.5726981 49.9299803,16.4471151 49.88,16.33 L49.82,16.25 C49.7754932,16.1680277 49.7180937,16.0937461 49.65,16.03 C49.6279048,16.04075 49.6020952,16.04075 49.58,16.03 C49.5003526,15.9881032 49.41657,15.9545901 49.33,15.93 L48.88,15.93 C48.0614586,16.0961447 47.2104969,15.9649548 46.48,15.56 C46.1176438,15.3673583 45.6711819,15.441086 45.39,15.74 C44.5515929,16.653575 43.3020398,17.0713729 42.0827512,16.8458045 C40.8634625,16.6202361 39.8460805,15.7830553 39.39,14.63 C39.2331697,14.2300315 38.8104588,14.0017676 38.39,14.09 C37.1774711,14.3781194 35.8996646,14.1421608 34.87,13.44 C34.6515826,13.2872208 34.3751826,13.2429968 34.12,13.32 C33.8676236,13.3923742 33.6594332,13.5713449 33.55,13.81 C33.0298973,14.9185892 31.7159684,15.4040748 30.6,14.9 C30.1506281,14.7129331 29.633958,14.9170433 29.4337616,15.3607217 C29.2335652,15.8044001 29.4223985,16.3268472 29.86,16.54 C31.5553567,17.2599174 33.5227144,16.7609202 34.67,15.32 C35.7325949,15.8313765 36.9189909,16.0291091 38.09,15.89 C38.8863618,17.2739854 40.2534322,18.2354856 41.8251609,18.5170469 C43.3968896,18.7986081 45.0127225,18.3714685 46.24,17.35 C46.8528709,17.5997337 47.5082024,17.7287627 48.17,17.73 L48.17,18.88 C48.1698606,22.185704 47.6015893,25.4667946 46.49,28.58 C44.6212257,33.8011485 44.2098356,39.4326982 45.3,44.87 L45.82,47.43 C45.88,47.73 45.92,48.04 45.97,48.33 L42.65,48.33 C42.1529438,48.33 41.7500001,48.7329438 41.7500001,49.23 C41.7500001,49.7270562 42.1529438,50.13 42.65,50.13 L46.25,50.13 C46.334227,51.0842513 46.3709391,52.0421013 46.36,53 L46.36,54.56 C46.36,55.0570563 45.9570563,55.46 45.46,55.46 L32.86,55.46 C32.3629438,55.46 31.9600001,55.8629438 31.9600001,56.36 C31.9600001,56.8570562 32.3629438,57.26 32.86,57.26 L45.46,57.26 C46.9511688,57.26 48.16,56.0511688 48.16,54.56 L48.16,53 C48.16,52.38 48.16,51.76 48.1,51.14 L48.1,50.9 C48.0763187,50.279903 48.0128548,49.6619657 47.91,49.05 C47.82,48.36 47.72,47.68 47.58,47.05 L47.07,44.5 C46.0462082,39.381751 46.4227832,34.0820626 48.16,29.16 C48.7902137,27.3756426 49.2587655,25.5382501 49.56,23.67 C49.9551423,23.8975212 50.4040624,24.0149311 50.86,24.01 C52.3511688,24.01 53.5600371,22.8011688 53.5600371,21.31 L53.5600371,12.31 C53.5653172,10.8743688 52.9987384,9.49571408 51.9854651,8.47868789 C50.9721918,7.4616617 49.595641,6.89 48.16,6.89 Z"/>
      <path id="Path" fill="#3D454C" fill-rule="nonzero" d="M27,17.69 C27.4970563,17.69 27.9,17.2870563 27.9,16.79 C27.9,16.2929437 27.4970563,15.89 27,15.89 C25.4054878,15.8605222 23.9767152,14.8980337 23.3503313,13.4314113 C22.7239473,11.9647888 23.0165779,10.2671014 24.0978292,9.09482423 C25.1790805,7.92254702 26.8476354,7.49394515 28.36,8 C28.7989833,8.16431929 29.2905894,7.96419646 29.49,7.54 C29.8076762,6.85368683 30.3986297,6.33206681 31.1190736,6.10205701 C31.8395175,5.87204721 32.6234029,5.95473451 33.28,6.33 C33.6040736,6.50331507 34.0013486,6.45961482 34.28,6.22 C35.7800974,4.89127073 37.9729013,4.70041558 39.68,5.75 C40.0196094,5.95663671 40.4545611,5.91598702 40.75,5.65 C41.600025,4.84378908 42.9277094,4.82875834 43.7957685,5.6155188 C44.6638275,6.40227926 44.779009,7.72504345 44.06,8.65 C43.9080841,8.86076375 43.8534991,9.12641089 43.91,9.38 C43.9616664,9.63770667 44.1270682,9.85824238 44.36,9.98 L44.41,9.98 C44.8413857,10.1931329 45.3640553,10.0248155 45.59,9.6 L45.59,9.56 C46.0453438,8.90802435 46.2960157,8.13511925 46.31,7.34 C46.3397778,5.84818873 45.5367495,4.46381509 44.2269948,3.74902121 C42.9172402,3.03422733 41.3185144,3.10785239 40.08,3.94 C37.969507,2.92742689 35.4736815,3.15397105 33.58,4.53 C33.0803885,4.31520508 32.5437407,4.19972389 32,4.19 C30.5265691,4.19356043 29.1482166,4.91822269 28.31,6.13 C26.1247265,5.64335775 23.8533618,6.44658757 22.4598268,8.19881504 C21.0662918,9.95104251 20.7950125,12.3449271 21.7611143,14.3645529 C22.7272161,16.3841786 24.7612448,17.6753034 27,17.69 Z"/>
      <path id="Shape" fill="#3D454C" fill-rule="nonzero" d="M41.86,26.69 C43.3511688,26.69 44.56,25.4811688 44.56,23.99 C44.56,22.4988312 43.3511688,21.29 41.86,21.29 C40.3688312,21.29 39.16,22.4988312 39.16,23.99 C39.16,25.4811688 40.3688312,26.69 41.86,26.69 L41.86,26.69 Z M41.86,23.09 C42.3570563,23.09 42.76,23.4929437 42.76,23.99 C42.76,24.4870563 42.3570563,24.89 41.86,24.89 C41.3629437,24.89 40.96,24.4870563 40.96,23.99 C40.96,23.4929437 41.3629437,23.09 41.86,23.09 Z"/>
      <path id="Path" fill="#3D454C" fill-rule="nonzero" d="M37.36 20.39C37.36 20.8870563 36.9570563 21.29 36.46 21.29 35.9629437 21.29 35.56 20.8870563 35.56 20.39 35.56 19.8929437 35.9629437 19.49 36.46 19.49 36.9570563 19.49 37.36 19.8929437 37.36 20.39L37.36 20.39zM35.56 26.69C35.56 27.1870562 35.1570562 27.5899999 34.66 27.5899999 34.1629438 27.5899999 33.76 27.1870562 33.76 26.69 33.76 26.368461 33.931539 26.0713466 34.21 25.9105771 34.488461 25.7498075 34.831539 25.7498075 35.11 25.9105771 35.388461 26.0713466 35.56 26.368461 35.56 26.69L35.56 26.69z"/>
    </g>
  </g>
</svg>
