<svg xmlns="http://www.w3.org/2000/svg" width="64" height="64" viewBox="0 0 64 64" style="background:#fff">
  <g id="Birnen" fill="none" fill-rule="evenodd" stroke="none" stroke-width="1">
    <rect width="64" height="64" fill="#FFF"/>
    <g transform="translate(2 4)">
      <rect id="Rectangle" width="60" height="60" x="0" y="0"/>
      <path id="Path" fill="#EBE53F" fill-rule="nonzero" d="M45.45,27.46 C42.479654,25.3982719 38.9115309,24.3752927 35.3,24.55 C34.42,23.66 32.75,23.55 32.3,24.9 C22.45,26.78 13.34,35.83 14.19,46 C14.86,53.94 22.26,58.67 29.79,58 C35.355441,57.4587275 40.5913669,55.1129203 44.7,51.32 C46.5379906,50.3682632 48.1063333,48.9684486 49.26,47.25 C53.5091145,40.7002792 51.8271798,31.9639309 45.45,27.46 L45.45,27.46 Z" opacity=".5"/>
      <path id="Path" fill="#31E085" fill-rule="nonzero" d="M48.84,9.18 C44.14,6.43 36.84,7.68 31.84,9.18 C30.4882593,9.5992846 29.5669091,10.8497253 29.5669091,12.265 C29.5669091,13.6802747 30.4882593,14.9307154 31.84,15.35 C36.84,16.91 44.14,18.19 48.84,15.48 C49.9332149,14.8063697 50.5989951,13.6140937 50.5989951,12.33 C50.5989951,11.0459063 49.9332149,9.85363029 48.84,9.18 L48.84,9.18 Z" opacity=".5"/>
      <path id="Shape" fill="#3D454C" fill-rule="nonzero" d="M44.79,33.29 C43,31.67 41.52,30.4 41.32,28 C41.32,23 37.32,19.6 31.14,19.2 C30.8546864,17.3205099 30.2240716,15.5100351 29.28,13.86 C31.3410561,15.4302224 33.8589559,16.2835692 36.45,16.29 L36.89,16.29 C40.4487184,16.1472248 43.7541093,14.4100583 45.89,11.56 C46.1878743,11.1663241 46.1538963,10.6141823 45.81,10.26 C43.3930798,7.77081174 40.0073839,6.4647768 36.5449243,6.6859895 C33.0824647,6.9072022 29.8904998,8.63347657 27.81,11.41 C27.7309634,11.5144104 27.6732035,11.6333278 27.64,11.76 C26.9348958,11.0138 26.1144307,10.3857897 25.21,9.9 C24.7212131,9.64335124 24.1169176,9.83135429 23.86,10.32 C23.7374944,10.5559505 23.7139876,10.8309711 23.7946741,11.084289 C23.8753605,11.3376069 24.0535978,11.5483683 24.29,11.67 C27.12,13.15 28.58,16.26 29.12,19.22 C26.7035741,19.3118808 24.3471989,19.9988707 22.26,21.22 L21.42,21.8 C19.531555,23.2817186 18.5043376,25.6060791 18.68,28 C18.48,30.44 17.04,31.71 15.21,33.33 C12.7,35.55 9.57,38.33 9.57,45.06 L9.57,45.63 C9.71340715,47.3699659 10.309848,49.0420689 11.3,50.48 L11.82,51.19 L12.01,51.42 L12.25,51.71 L13.51,52.97 L13.75,53.18 L14.23,53.57 L14.49,53.76 L15.55,54.47 L15.92,54.69 L16.4,54.96 L16.99,55.25 L17.3,55.39 L17.92,55.65 L18.22,55.76 L18.54,55.88 L18.87,55.99 L19.19,56.09 L21.56,56.6 L36.26,56.75 L37.69,56.68 L40.1,56.27 C40.2148226,56.2459385 40.3283105,56.2158976 40.44,56.18 L41.09,55.99 L41.41,55.88 L41.72,55.77 L42.06,55.64 L42.66,55.39 L42.96,55.25 L43.55,54.96 L45.55,53.7 L47.35,52.11 L48.67,50.47 C49.6637013,49.0330822 50.2636167,47.3609041 50.4100954,45.62 L50.4100954,45 C50.43,38.28 47.3,35.51 44.79,33.29 Z M37,8.71 C39.4755101,8.63313946 41.8914685,9.4776559 43.78,11.08 C41.9848432,13.067642 39.4570372,14.2376551 36.78,14.32 C34.3110023,14.4107756 31.8958032,13.5843358 30,12 C31.7842917,9.99094767 34.3145623,8.80172051 37,8.71 Z M48.42,45.46 C48.2935857,46.8459035 47.8037695,48.1739262 47,49.31 L46.4,50.12 L44.71,51.78 L42.62,53.15 L42.1,53.41 L41.85,53.52 L41.03,53.85 C40.9430085,53.8909532 40.8526808,53.9244079 40.76,53.95 L38.43,54.53 L23.7,54.71 L21.52,54.53 L19.21,54 L18.93,53.9 L17.87,53.45 C17.7,53.37 17.53,53.29 17.35,53.19 L16.62,52.78 L14.45,51.11 L13,49.32 C12.2054631,48.1770444 11.7229017,46.8465539 11.6,45.46 L11.6,45 C11.6,39.16 14.12,36.93 16.6,34.77 C18.5,33.08 20.47,31.34 20.74,28.02 C20.5684724,26.2524309 21.3021426,24.5179594 22.69,23.41 L23.37,22.94 C25.1969046,21.8764074 27.2575144,21.2788305 29.37,21.2 C29.37,21.51 29.37,21.82 29.37,22.11 C29.37,22.6622847 29.8177153,23.11 30.37,23.11 L30.37,23.11 C30.9222847,23.11 31.37,22.6622847 31.37,22.11 C31.37,21.82 31.37,21.52 31.37,21.22 C36.31,21.64 39.37,24.17 39.37,28.09 C39.64,31.32 41.61,33.09 43.51,34.75 C45.96,36.91 48.51,39.14 48.51,44.98 L48.42,45.46 Z"/>
      <path id="Path" fill="#3D454C" fill-rule="nonzero" d="M43.6 38.93C43.3678507 39.0585481 43.1963142 39.2740971 43.1231655 39.5291798 43.0500168 39.7842625 43.0812546 40.05796 43.21 40.29 44.2069942 41.9646213 44.5355351 43.9537221 44.13 45.86 43.35 49.46 38.29 51.62 34.46 51.09 33.9132605 51.0127669 33.4073971 51.3932837 33.33 51.94 33.2527669 52.4867395 33.6332837 52.9926029 34.18 53.07 34.663623 53.1384539 35.15156 53.1718743 35.64 53.1700747 40.13 53.1700747 45.17 50.51 46.09 46.28 46.5934053 43.8872479 46.1907322 41.3928128 44.96 39.28 44.6786194 38.8111034 44.0727762 38.6551879 43.6 38.93zM41.9 37.57C42.395306 37.3267448 42.5999548 36.7282561 42.3572942 36.2326586 42.1146335 35.7370611 41.5163908 35.5316942 41.0205025 35.7737599 40.5246141 36.0158257 40.3185295 36.6138215 40.56 37.11 40.6763297 37.3490365 40.8830506 37.5319154 41.1344883 37.6182298 41.3859259 37.7045442 41.6613838 37.6871894 41.9 37.57z"/>
    </g>
  </g>
</svg>
