<svg xmlns="http://www.w3.org/2000/svg" width="64" height="64" viewBox="0 0 64 64" style="background:#fff">
  <g id="Birnensaft" fill="none" fill-rule="evenodd" stroke="none" stroke-width="1">
    <rect width="64" height="64" fill="#FFF"/>
    <g transform="translate(2 3)">
      <rect id="Rectangle" width="60" height="60" x="0" y="0"/>
      <path id="Path" fill="#EBE53F" fill-rule="nonzero" d="M54.46,38.86 C52.8276931,32.131759 47.1528079,27.1487379 40.27,26.4 C35.27,25.91 29.2,27.48 25.27,31.06 C23.85,31.14 22.43,31.19 21.02,31.15 C15.46,30.97 9.85,31.15 6.1,35.91 C2,41.16 3.47,48.53 8.23,52.84 C12.99,57.15 20.87,58 27,58.8 C39,60.31 57.93,54.73 54.46,38.86 Z" opacity=".5"/>
      <path id="Path" fill="#31E085" fill-rule="nonzero" d="M20.07,24.73 C18.34,19.92 11.35,18.86 7.15,20.86 C6.27462247,21.3991279 5.9792521,22.5321157 6.48,23.43 C8.21,27.43 14.24,31.12 18.41,28.8 C19.809759,27.9659373 20.4871478,26.3051106 20.07,24.73 L20.07,24.73 Z" opacity=".5"/>
      <path id="Shape" fill="#3D454C" fill-rule="nonzero" d="M55.89,16.19 C54.46,10.97 49.47,9.05 44.59,10.19 C42.86,8 36.92,8.6 34.85,8.38 C31.05,8 28.27,4.81 24,5.06 C21.9651793,5.14671873 20.0035069,5.84358279 18.37,7.06 C18.0431781,7.3818435 17.9772211,7.88476623 18.21,8.28 L21.8,13.87 C22.1972497,16.3737455 22.2644894,18.9187713 22,21.44 C21.81,22.69 23.74,23.24 23.93,21.97 C24.2153545,19.4987554 24.1750097,17.0007408 23.81,14.54 L27.42,14.54 C27.9722847,14.54 28.42,14.0922847 28.42,13.54 C28.42,12.9877153 27.9722847,12.54 27.42,12.54 L23.28,12.54 C22.35,11.06 21.42,9.54 20.45,8.13 C20.8168022,7.90832657 21.2014716,7.71766436 21.6,7.56 C23.8125588,6.82374582 26.2186237,6.92696458 28.36,7.85 C28.83,8.03 29.24,8.21 29.62,8.4 L26,8.4 C25.4477153,8.4 25,8.84771525 25,9.4 C25,9.95228475 25.4477153,10.4 26,10.4 L34.87,10.4 C34.9198375,10.4057003 34.9701625,10.4057003 35.02,10.4 L35.32,10.4 C36.06,10.4 43.73,9.62 42.8,12.56 L38.8,12.56 C38.2477153,12.56 37.8,13.0077153 37.8,13.56 C37.8,14.1122847 38.2477153,14.56 38.8,14.56 C41.52,14.56 42.04,13.91 42.27,16.56 C42.4,18.03 42.2,19.49 42.4,20.96 C42.9,24.71 44.86,27.44 46.4,30.8 C48.64,35.7 49.08,41.32 46.32,46.14 C43,51.94 37.56,53.14 31.32,53.02 C30.7677153,53.02 30.32,53.4677153 30.32,54.02 C30.32,54.5722847 30.7677153,55.02 31.32,55.02 C40.08,55.22 47.82,51.59 49.82,42.34 C50.127828,40.8914045 50.2488127,39.4093417 50.18,37.93 C53.61,31.89 57.81,23.24 55.89,16.19 Z M53.89,23.04 C53.0509378,27.0343047 51.6574446,30.8916555 49.75,34.5 C49.59,33.77 49.38,33.05 49.15,32.34 C51.25,28 54.32,21.29 52,16.58 C50.6751774,13.8234491 47.5309335,12.4534268 44.61,13.36 C44.7912455,12.9741155 44.9255385,12.5678792 45.01,12.15 C51.89,10.52 55.13,16.66 53.91,23 L53.89,23.04 Z M44.65,22.41 C44.1779524,20.2400886 44.0530675,18.0090374 44.28,15.8 C45.3093515,15.2742184 46.4736506,15.0720347 47.62,15.22 C48.4339589,15.5062608 49.1162532,16.0783931 49.54,16.83 C50.99,18.75 50.82,20.74 50.35,23.05 C49.8332424,25.3601913 49.0827087,27.6117924 48.11,29.77 C47,27.28 45.35,25.13 44.67,22.41 L44.65,22.41 Z"/>
      <path id="Path" fill="#3D454C" fill-rule="nonzero" d="M41.51 46.38C44.2841224 42.954513 44.9703124 38.2891877 43.3 34.21 42.85 33.01 40.91 33.53 41.37 34.74 42.64 38.1 42.52 42.17 40.1 45 39.26 45.94 40.67 47.36 41.51 46.38zM41.12 30C40.8813838 29.8828106 40.6059259 29.8654558 40.3544883 29.9517702 40.1030506 30.0380846 39.8963297 30.2209635 39.78 30.46 39.5839753 30.9457815 39.7960553 31.5005097 40.2661581 31.7316216 40.7362608 31.9627336 41.3050447 31.7918938 41.57 31.34 41.8154836 30.8456857 41.6140809 30.2459531 41.12 30z"/>
      <path id="Shape" fill="#3D454C" fill-rule="nonzero" d="M27.4,39.39 C26.25,38.39 25.4,37.64 25.3,36.24 C25.3850461,34.5754076 24.6350364,32.977887 23.3,31.98 L23.22,31.92 L23.08,31.82 L23,31.73 L22.84,31.63 C21.5772985,30.8848072 20.1615333,30.4368236 18.7,30.32 C18.9823323,28.5703585 20.016434,27.0319952 21.53,26.11 C22.0186457,25.8530824 22.2066488,25.2487869 21.95,24.76 C21.8283683,24.5235978 21.6176069,24.3453605 21.364289,24.2646741 C21.1109711,24.1839876 20.8359505,24.2074944 20.6,24.33 C20.1096511,24.6051018 19.6560538,24.9410998 19.25,25.33 C17.8364446,23.5077962 15.7012704,22.3892197 13.3984447,22.2644833 C11.0956189,22.1397469 8.85211275,23.0211449 7.25,24.68 C6.89468269,25.0370514 6.86040394,25.6026508 7.17,26 C8.61596873,27.9130036 10.8438234,29.0764796 13.24,29.17 L13.54,29.17 C14.8362213,29.1692335 16.1128442,28.8535095 17.26,28.25 C16.9834982,28.92746 16.7757876,29.6309958 16.64,30.35 C12.64,30.71 10.08,33.01 10.06,36.28 C9.93,37.68 9.06,38.41 7.95,39.43 C5.48272501,41.2408826 4.08017272,44.1622416 4.21,47.22 L4.21,47.4 C4.21474739,47.4699195 4.21474739,47.5400805 4.21,47.61 C4.31735194,48.7752907 4.72759149,49.8922455 5.4,50.85 L5.62,51.17 L5.75,51.33 L7,52.64 L7.08,52.71 L8.8,53.84 L9.19,54.04 L11.31,54.77 L21.7,55 L24,54.77 L26.15,54 L26.55,53.81 L28.26,52.67 L28.34,52.6 L28.93,52.06 L29,52 L29.08,51.93 L29.96,50.83 C30.6264694,49.8596473 31.0296183,48.7328978 31.13,47.56 L31.13,47.16 C31.258945,44.1102967 29.8602871,41.1967386 27.4,39.39 L27.4,39.39 Z M13.32,27.13 C11.841001,27.0816064 10.4344072,26.4782705 9.38,25.44 C10.4764619,24.6266192 11.815451,24.2073042 13.18,24.25 C14.6581352,24.3022636 16.0633841,24.9050227 17.12,25.94 C16.0231783,26.7526737 14.6844413,27.1719098 13.32,27.13 L13.32,27.13 Z M22,33.51 L22.14,33.62 C22.9465325,34.2590216 23.3692785,35.2668179 23.26,36.29 L23.26,36.41 C23.46,38.61 24.77,39.76 26.03,40.88 C27.61,42.28 29.1,43.6 29.1,47.18 L29.1,47.44 C29.0304599,48.2601657 28.7439986,49.0470714 28.27,49.72 L28.18,49.86 L27.58,50.58 L27.48,50.69 L25.59,52.08 L25.25,52.25 L23.86,52.75 L13.65,53 L12.3,52.89 L10,52.23 L9.69,52.08 L8.34,51.18 L8.26,51.12 L8.19,51 L7.72,50.55 L7.62,50.44 L7.52,50.32 L7.06,49.72 C6.58259243,49.0368195 6.29293493,48.2402614 6.22,47.41 L6.22,47.16 C6.22,43.58 7.71,42.26 9.29,40.86 C10.55,39.75 11.86,38.59 12.06,36.4 C12.06,36.4 12.06,36.31 12.06,36.27 C12.06,34.12 13.71,32.67 16.44,32.32 C16.44,32.38 16.44,32.44 16.44,32.49 C16.44,33.0422847 16.8877153,33.49 17.44,33.49 L17.44,33.49 C17.9922847,33.49 18.44,33.0422847 18.44,32.49 C18.44,32.43 18.44,32.36 18.44,32.3 C19.6358106,32.3914345 20.7951083,32.7539287 21.83,33.36"/>
      <path id="Path" fill="#3D454C" fill-rule="nonzero" d="M14.93,49.64 C13.02,49.9 10.41,48.82 10.03,47.07 C9.83289856,46.1139363 10.0005509,45.1187236 10.5,44.28 C10.7761424,43.7967508 10.6082491,43.1811424 10.125,42.905 C9.64175084,42.6288577 9.02614238,42.7967509 8.75,43.28 C8.01660511,44.5458987 7.77792734,46.0385254 8.08,47.47 C8.64,50.1 11.63,51.6600135 14.31,51.6600135 C14.6110193,51.66061 14.9117256,51.6405629 15.21,51.6 C15.7622847,51.5226801 16.1473199,51.0122847 16.07,50.46 C15.9926801,49.9077153 15.4822847,49.5226801 14.93,49.6 L14.93,49.64 Z"/>
    </g>
  </g>
</svg>
