<svg xmlns="http://www.w3.org/2000/svg" width="64" height="64" viewBox="0 0 64 64" style="background:#fff">
  <g id="Blätterteig-(pflanzliche-fette)" fill="none" fill-rule="evenodd" stroke="none" stroke-width="1">
    <rect width="64" height="64" fill="#FFF"/>
    <g transform="translate(2 6)">
      <rect id="Rectangle" width="60" height="60" x="0" y="0"/>
      <path id="Path" fill="#31E085" fill-rule="nonzero" d="M23.11,19.09 C21.142093,17.0112679 18.8937475,15.2173035 16.43,13.76 C14.18,12.31 11.62,11 8.89,11.1 C6.61,11.19 5.5,13.1 5.8,15.15 C6.2,17.91 8.13,20.15 9.96,22.15 C11.8606402,24.3001432 14.0517241,26.1748493 16.47,27.72 C18.8476086,29.0845228 21.8677362,28.482206 23.54,26.31 C25.1912282,24.1249221 25.0089083,21.0636431 23.11,19.09 Z" opacity=".5"/>
      <path id="Path" fill="#E0A075" fill-rule="nonzero" d="M49.07,47.28 C45.35,42.03 39.07,43.28 33.28,43.44 C33.1421056,40.5402297 30.7629539,38.2532592 27.86,38.23 C27.6640361,37.7753185 27.3455062,37.3840807 26.94,37.1 C22.94,34.39 17.94,36.02 14.21,38.41 C12.7682145,39.3033871 11.8649201,40.8551043 11.8,42.55 L11.29,42.7 C6.15,44.16 5.34,52.99 11.29,53.94 C18.115924,55.0608734 25.0005962,55.7887388 31.91,56.12 C37.58,56.36 45.91,57.57 49.07,51.69 C49.8746537,50.3301135 49.8746537,48.6398865 49.07,47.28 Z" opacity=".5"/>
      <path id="Path" fill="#3D454C" fill-rule="nonzero" d="M43.49 45.61C43.1276713 45.7899377 42.9094502 46.1704565 42.9371296 46.5740572 42.964809 46.9776579 43.2329354 47.3248225 43.6164368 47.4536103 43.9999383 47.5823981 44.4232568 47.4674351 44.6889284 47.1623479 44.9546 46.8572606 45.0102818 46.4221576 44.83 46.06 44.5840469 45.5659191 43.9843143 45.3645164 43.49 45.61L43.49 45.61zM13.08 19.48C13.5740809 19.2340469 13.7754836 18.6343143 13.53 18.14 13.3500623 17.7776713 12.9695435 17.5594502 12.5659428 17.5871296 12.1623421 17.614809 11.8151775 17.8829354 11.6863897 18.2664368 11.5576019 18.6499383 11.6725649 19.0732568 11.9776521 19.3389284 12.2827394 19.6046 12.7178424 19.6602818 13.08 19.48z"/>
      <path id="Shape" fill="#3D454C" fill-rule="nonzero" d="M55.2,16.47 C55.1286813,16.2157978 54.9597291,16.0001141 54.73,15.87 L46.38,11 C46.1494763,10.866455 45.8751937,10.8304163 45.6179963,10.8998783 C45.360799,10.9693404 45.1419512,11.1385603 45.01,11.37 L42.17,16.29 C40.099571,15.8486687 37.9785143,16.7783918 36.9,18.6 C36.2278042,19.611643 35.193609,20.3273491 34.01,20.6 L33.15,20.83 C31.722344,21.1724166 30.8425835,22.6073439 31.1850001,24.035 C31.5274166,25.462656 32.9623439,26.3424165 34.39,26 L36.18,25.62 L32.1,32.69 C31.43,32.69 30.76,32.62 30.1,32.62 L29.8,32.62 C28.68,32.62 26.07,32.49 20.8,34.17 C14.71,36.11 9.8,42.06 9.8,45.69 C9.8,49.14 11.8,51.31 15.89,52.3 C19.3,53.14 23.83,53.14 29.08,53.13 L32.16,53.13 C36.97,53.13 41.16,53.13 44.33,52.3 C48.42,51.3 50.41,49.14 50.41,45.69 C50.2900623,42.5695115 48.7782301,39.6669405 46.29,37.78 C46.3912672,37.6581727 46.4816157,37.5276693 46.56,37.39 L52.56,26.94 C53.1155412,26.0655935 53.3652541,25.0315713 53.27,24 C53.16332,23.259596 52.8111761,22.576437 52.27,22.06 L55.05,17.24 C55.2027894,17.0144772 55.2569634,16.7363838 55.2,16.47 L55.2,16.47 Z M48.41,45.68 C48.41,48.18 47.05,49.57 43.85,50.35 C40.65,51.13 36.26,51.13 31.13,51.12 L29.08,51.12 C23.96,51.12 19.54,51.12 16.36,50.35 C13.18,49.58 11.8,48.18 11.8,45.68 C11.8,43.18 15.93,37.81 21.4,36.07 C26.4,34.49 28.72,34.57 29.73,34.61 L30.11,34.61 L31.47,34.61 L31.47,34.61 C31.4811835,34.7820701 31.50796,34.9527702 31.55,35.12 C31.5706094,35.1953965 31.5973657,35.2689763 31.63,35.34 C31.6705959,35.449221 31.7173372,35.5560583 31.77,35.66 L31.89,35.86 C31.97,35.9666667 32.05,36.0666667 32.13,36.16 L32.27,36.3 C32.5506005,36.5725798 32.8940653,36.7717894 33.27,36.88 L33.47,36.93 L33.74,36.99 C33.74,36.99 33.74,36.99 33.74,37.04 C33.7469635,37.235543 33.7737677,37.4298734 33.82,37.62 C33.9631451,38.3169031 34.3909233,38.922318 35,39.29 C35.3921619,39.5268484 35.8418665,39.651382 36.3,39.65 C36.4131556,39.6589753 36.5268444,39.6589753 36.64,39.65 C36.7464707,39.6591433 36.8535293,39.6591433 36.96,39.65 L36.96,39.65 C37.1481631,39.5941243 37.3293351,39.5169584 37.5,39.42 L37.5,39.42 C37.5780432,39.5116024 37.6615274,39.5984259 37.75,39.68 L37.84,39.78 C37.944238,39.8646195 38.0545329,39.9414918 38.17,40.01 L38.26,40.08 L38.26,40.08 C38.4364403,40.1795231 38.6245426,40.2567794 38.82,40.31 L39.01,40.31 C39.1516961,40.3403591 39.2954057,40.3604116 39.44,40.37 L39.62,40.37 C39.808966,40.3719698 39.9973332,40.3484239 40.18,40.3 L40.18,40.3 C40.3735673,40.2456177 40.5611772,40.1719138 40.74,40.08 L40.88,39.99 C41.0120873,39.908836 41.1359996,39.8150646 41.25,39.71 C41.2957854,39.672741 41.339203,39.6326632 41.38,39.59 C41.5315425,39.4413164 41.6626869,39.2731826 41.77,39.09 L42.51,38 L42.51,38 C42.6475742,38.1360433 42.8021945,38.2536892 42.97,38.35 L43.12,38.41 C43.2623333,38.4901448 43.4132983,38.5538856 43.57,38.6 C43.7007233,38.6346386 43.8348669,38.6547602 43.97,38.66 L44.19,38.66 C46.92,40.66 48.41,43.14 48.41,45.68 Z M50.15,21.81 C50.0197231,22.0372535 49.9838167,22.3065518 50.05,22.56 C50.1189564,22.8179212 50.2881858,23.0375594 50.52,23.17 C50.9420469,23.3825758 51.2306921,23.7911774 51.29,24.26 C51.3323285,24.8486377 51.181348,25.4350036 50.86,25.93 L44.86,36.38 C44.7809993,36.5207504 44.6469207,36.6222153 44.49,36.66 L44.2,36.66 C44.1373522,36.6490544 44.0766856,36.6288322 44.02,36.6 L44.02,36.6 C43.896396,36.524928 43.8040652,36.4077389 43.76,36.27 C43.7186405,36.1147485 43.7402014,35.9494483 43.82,35.81 L46.63,30.93 C46.9030821,30.4546268 46.7425074,29.8480112 46.27,29.57 C46.0406913,29.4356261 45.7673232,29.3980647 45.5102702,29.4656114 C45.2532172,29.5331582 45.033628,29.7002558 44.9,29.93 L40.17,38 C40.127631,38.0689156 40.0734729,38.1298434 40.01,38.18 C39.8074646,38.3163066 39.5425354,38.3163066 39.34,38.18 C39.2714091,38.1413163 39.2104184,38.0904907 39.16,38.03 C39.16,38.03 39.16,37.96 39.16,37.93 L39.1,37.81 L39.1,37.81 C39.0730209,37.6661263 39.0978175,37.5173468 39.17,37.39 L43.86,29.27 C44.0386328,28.9591789 44.0378752,28.576669 43.8580127,28.2665579 C43.6781502,27.9564468 43.346508,27.7658479 42.9880127,27.7665579 C42.6295174,27.7672679 42.2986328,27.9591789 42.12,28.27 L37.43,36.39 L37.43,36.39 L36.9,37.32 C36.8209993,37.4607504 36.6869207,37.5622153 36.53,37.6 C36.3747485,37.6413595 36.2094483,37.6197986 36.07,37.54 C35.9298966,37.4579207 35.8262297,37.325656 35.78,37.17 C35.7397217,37.0146795 35.7612287,36.8497923 35.84,36.71 L41.07,27.71 C41.2670594,27.4000109 41.2783077,27.006938 41.0992979,26.6861872 C40.920288,26.3654363 40.5798385,26.1686447 40.2125499,26.1736161 C39.8452613,26.1785875 39.5102629,26.3845216 39.34,26.71 L34.6,34.8 C34.4304222,35.0876815 34.0634596,35.1893699 33.77,35.03 L33.71,35 C33.6457664,34.9467114 33.5915801,34.8823652 33.55,34.81 C33.5241014,34.7696406 33.50391,34.7258926 33.49,34.68 C33.4746123,34.6074739 33.4746123,34.5325261 33.49,34.46 L33.49,34.46 C33.498103,34.3795004 33.5218833,34.301365 33.56,34.23 L33.56,34.23 L39,24.68 C39.2154186,24.3485968 39.2154186,23.9214032 39,23.59 C38.7705876,23.2769643 38.3807713,23.124936 38,23.2 L34,24.06 C33.653561,24.129051 33.3141751,23.9130781 33.23,23.57 C33.1874787,23.4055619 33.2120655,23.2309654 33.2983451,23.0846651 C33.3846248,22.9383648 33.5255204,22.8323607 33.69,22.79 L34.54,22.56 C36.2296649,22.1522476 37.6956106,21.1056555 38.63,19.64 C39.3973203,18.4111562 40.9331851,17.9062144 42.28,18.44 C42.7395398,18.6126696 43.2564601,18.4262393 43.5,18 L46.24,13.25 L52.87,17.08 L50.15,21.81 Z"/>
      <path id="Path" fill="#3D454C" fill-rule="nonzero" d="M20.63 43.31L38.63 43.51C39.1822847 43.51 39.63 43.0622847 39.63 42.51 39.63 41.9577153 39.1822847 41.51 38.63 41.51L20.63 41.31C20.2727344 41.31 19.9426074 41.5005989 19.7639746 41.81 19.5853418 42.1194011 19.5853418 42.5005989 19.7639746 42.81 19.9426074 43.1194011 20.2727344 43.31 20.63 43.31zM39.8 45.5L16.2 45.5C15.6477153 45.5 15.2 45.9477153 15.2 46.5 15.2 47.0522847 15.6477153 47.5 16.2 47.5L39.8 47.5C40.3522847 47.5 40.8 47.0522847 40.8 46.5 40.8 45.9477153 40.3522847 45.5 39.8 45.5z"/>
      <path id="Shape" fill="#3D454C" fill-rule="nonzero" d="M20.92,28.09 L24.24,31.41 C24.6300375,31.7977236 25.2599625,31.7977236 25.65,31.41 C26.0377236,31.0199625 26.0377236,30.3900375 25.65,30 L22.33,26.68 C21.6028922,18.7073089 15.1967929,12.4410252 7.21,11.89 C6.91683017,11.8657642 6.62786056,11.9718416 6.42,12.18 C6.21184162,12.3878606 6.10576417,12.6768302 6.13,12.97 C6.66469836,20.9641056 12.9396378,27.3790537 20.92,28.09 Z M16.22,18.09 C17.9216958,19.7900607 19.1608737,21.8966631 19.82,24.21 L16.3,20.65 C16.1122334,20.4606873 15.8566375,20.3542017 15.59,20.3542017 C15.3233625,20.3542017 15.0677666,20.4606873 14.88,20.65 C14.4922764,21.0400375 14.4922764,21.6699625 14.88,22.06 L18.41,25.59 C13.0537844,24.0428936 9.09173939,19.514284 8.27,14 C11.2854244,14.4635222 14.0722659,15.8832339 16.22,18.05 L16.22,18.09 Z"/>
    </g>
  </g>
</svg>
