<svg xmlns="http://www.w3.org/2000/svg" width="64" height="64" viewBox="0 0 64 64" style="background:#fff">
  <g id="Blaubeeren" fill="none" fill-rule="evenodd" stroke="none" stroke-width="1">
    <rect width="64" height="64" fill="#FFF"/>
    <g id="22-Blaubeeren" transform="translate(2 4)">
      <g id="Layer_2">
        <rect id="Rectangle" width="60" height="60" x="0" y="0"/>
        <rect id="Rectangle" width="60" height="60" x="0" y="0"/>
      </g>
      <g id="Layer_1" transform="translate(10 3)">
        <path id="Path" fill="#4B87DD" fill-opacity=".5" d="M17.79,45 L16,45.34 C15.69,45.41 14.92,45.62 14.71,45.64 C10.71,46.13 10.71,42.27 11.14,41.17 C11.2555305,40.8036311 11.4424582,40.4637627 11.69,40.17 C11.2389883,39.6554679 10.9624433,39.0113631 10.9,38.33 L10.8,38.33 C6.5,38.49 6.8,34.61 7.35,33.33 C7.69870117,32.4646151 8.3740638,31.7712907 9.23,31.4 L10,31 C9.84988488,30.4944738 9.79229411,29.9659938 9.83,29.44 C9.26849612,29.2584652 8.75791856,28.946636 8.34,28.53 C7.43511712,27.621951 7.01224797,26.3398774 7.19932922,25.0716635 C7.38641047,23.8034495 8.16146336,22.6980881 9.29,22.09 L10.02,21.81 C9.97376504,21.2891186 10.02118,20.7641668 10.16,20.26 C10.5301012,19.0685153 11.5113585,18.1674386 12.73,17.9 L27.73,13.56 C28.6617275,13.2188081 29.6916029,13.2672288 30.5872081,13.6943346 C31.4828133,14.1214404 32.1686711,14.8912371 32.49,15.83 C32.9453244,17.2293712 32.5563399,18.7658603 31.49,19.78 C33.94,20.58 33.76,23.28 33.54,24.24 C34.6775631,25.2418541 34.9978104,26.8841481 34.32,28.24 C35.5891847,28.963312 36.9016634,29.6078627 38.25,30.17 C39.56,30.75 40.35,34.66 38.95,35.82 C38.7419667,35.9958387 38.5213811,36.1562646 38.29,36.3 C38.3606826,36.7170262 38.3606826,37.1429738 38.29,37.56 C38.169901,38.6214323 37.5689747,39.5689052 36.66,40.13 C36.39,40.31 35.28,40.83 34.85,41.08 L31.85,42.78 L31.56,42.96 L32.85,43.38 C33.6471486,44.0207846 34.0985709,44.9976329 34.07,46.02 C34.0618212,46.8313486 33.7679386,47.6138553 33.24,48.23 C32.8406541,48.5849501 32.4048987,48.8966829 31.94,49.16 L31.94,49.28 C32.3491637,50.3896094 31.7989792,51.6230875 30.7,52.06 L28.7,53.42 L27.04,53.67 C26.0810322,53.6844531 25.126844,53.532189 24.22,53.22 C22.6424627,52.5182994 21.6325632,50.9464715 21.65,49.22 C20.7492594,49.0865782 19.8623504,48.8723813 19,48.58 C17.8013125,47.8225712 17.296614,46.3293308 17.79,45 Z"/>
        <path id="Shape" fill="#3D454C" fill-rule="nonzero" d="M33.83,40.25 C36.1689565,39.9895504 38.2055486,38.5348203 39.2104707,36.40675 C40.2153928,34.2786798 40.0448826,31.7817069 38.76,29.81 L38.76,29.81 C38.1555506,28.8893918 37.3350257,28.1306637 36.37,27.6 C36.3436727,25.8889355 35.8074734,24.2246284 34.83,22.82 C33.9605629,21.5694507 32.777717,20.5693769 31.4,19.92 L31.4,19.5 C31.3881065,16.4180116 29.1244751,13.8079077 26.0751638,13.3601417 C23.0258525,12.9123757 20.1074152,14.761536 19.21,17.71 C18.8407696,17.6366211 18.4662216,17.5931467 18.09,17.58 C17.3736598,17.549575 16.6566066,17.6202703 15.96,17.79 C15.34029,17.9497152 14.7424977,18.1848021 14.18,18.49 C13.5392097,18.8056228 12.9547325,19.2245545 12.45,19.73 C12.1930482,19.9886494 11.9557246,20.266084 11.74,20.56 C11.2793278,20.1663391 10.7722281,19.8305115 10.23,19.56 C9.3208782,19.1702238 8.33893835,18.9792911 7.35,19 C4.85907122,19.0000091 2.56035401,20.3387658 1.33119854,22.5053075 C0.102043069,24.6718492 0.13213914,27.3318237 1.41,29.47 C1.90711749,30.3005958 2.57110101,31.01906 3.36,31.58 C3.29945432,31.760293 3.24937094,31.9439321 3.21,32.13 C3.10634281,32.5861474 3.05269292,33.0522308 3.05,33.52 C3.05183792,34.6245879 3.348741,35.7086294 3.91,36.66 C4.30172888,37.3281525 4.81367518,37.9180773 5.42,38.4 C5.19800979,38.798565 5.01387091,39.2170625 4.87,39.65 C4.62737188,40.3892147 4.50251309,41.1619894 4.5,41.94 C4.50902564,44.2471798 5.60380419,46.4154618 7.45497756,47.7925302 C9.30615094,49.1695986 11.697648,49.5947204 13.91,48.94 C14.2840724,48.8095164 14.6483347,48.6524491 15,48.47 C15.4967509,49.0903051 16.1077695,49.6096709 16.8,50 C18.1930888,50.7883206 19.8328046,51.0205244 21.39,50.65 C21.62,50.59 21.84,50.52 22.06,50.44 C23.8479517,52.6099838 26.8060563,53.4233598 29.4521113,52.472574 C32.0981664,51.5217881 33.8620732,49.0116893 33.86,46.2 C33.8625901,45.4828237 33.7477375,44.7700619 33.52,44.09 C33.3604645,43.6230001 33.1526746,43.1739057 32.9,42.75 C33.1432467,42.3435263 33.3474901,41.9149499 33.51,41.47 C33.6527493,41.0736632 33.7598408,40.6653768 33.83,40.25 Z M26.44,42.25 C25.2975222,41.0307608 25.2209291,39.1584844 26.26,37.85 C26.7103145,37.2696617 27.357899,36.8747063 28.08,36.74 L28.68,36.67 C29.4132004,36.6723874 30.1218225,36.9345776 30.68,37.41 C31.23322,37.887318 31.6129554,38.5342747 31.76,39.25 L31.83,39.96 C31.8286245,40.8112248 31.5032583,41.6300037 30.92,42.25 C30.3405862,42.8652647 29.5357253,43.2182247 28.6906323,43.2276565 C27.8455394,43.2370883 27.0330014,42.9021797 26.44,42.3 L26.44,42.25 Z M28.63,34.83 L28.63,34.83 L27.9,34.91 L27.8,34.91 C26.6158366,35.1161318 25.5484184,35.7494666 24.8,36.69 C24.0588774,37.6320525 23.6666753,38.801592 23.69,40 C23.6814746,41.3322682 24.1905842,42.6157979 25.11,43.58 C26.7925988,45.3963187 29.579145,45.638627 31.55,44.14 C31.634194,44.3085351 31.7076733,44.4822133 31.77,44.66 C31.9261638,45.1514093 32.0037855,45.6643878 32,46.18 C31.9837637,48.8274774 29.847387,50.9727557 27.2,51 C25.5571926,50.9986097 24.0277279,50.1623014 23.14,48.78 C22.9745775,48.5135586 22.6836152,48.3510732 22.37,48.35 C22.2168443,48.3524841 22.0663063,48.3901186 21.93,48.46 C21.6136553,48.6275146 21.2777591,48.7551551 20.93,48.84 C19.8338777,49.1001059 18.6799299,48.9357666 17.7,48.38 C17.0333302,48.0001674 16.478136,47.45187 16.09,46.79 C15.9624655,46.5744055 15.7533532,46.4193739 15.51,46.36 C15.2623484,46.3019349 15.0017083,46.3489949 14.79,46.49 C14.3487911,46.7798602 13.8668243,47.0023064 13.36,47.15 C11.4551072,47.6815242 9.41137217,47.1553387 8,45.77 C6.54501072,44.3067681 6.03147249,42.1522242 6.67,40.19 C6.85157258,39.636757 7.12175336,39.116659 7.47,38.65 C7.61825651,38.433836 7.67571225,38.1681032 7.63,37.91 C7.57226789,37.6525182 7.40896997,37.4311588 7.18,37.3 C6.50460461,36.9159249 5.94238372,36.3606024 5.55,35.69 C5.1548357,35.0207208 4.9475526,34.2572281 4.95,33.48 C4.94999634,33.1436475 4.98688356,32.8083092 5.06,32.48 C5.12763095,32.1565574 5.23863416,31.8437302 5.39,31.55 C5.60378593,31.1017623 5.42768092,30.564642 4.99,30.33 C3.34286712,29.4473461 2.31630469,27.7287191 2.31999006,25.86 C2.31779914,24.512467 2.85425038,23.2199435 3.81,22.27 C5.32907273,20.7910665 7.59925726,20.3941811 9.53,21.27 C10.0567551,21.5150666 10.5345335,21.8539165 10.94,22.27 C10.7057103,22.9593351 10.5841489,23.6819496 10.58,24.41 C10.5812222,24.9494904 10.648387,25.4868085 10.78,26.01 C10.8573743,26.2930345 10.9542732,26.5703658 11.07,26.84 C9.70104074,28.1797392 8.92962737,30.0145495 8.93,31.93 C8.92684442,33.911894 9.74077531,35.8074486 11.18,37.17 C14.1376117,39.98397 18.7823883,39.98397 21.74,37.17 C23.1833703,35.8136515 24.0013761,33.9206557 24,31.94 C23.9986506,31.1144509 23.853131,30.2954804 23.57,29.52 C23.3545922,28.976198 23.0651979,28.4647103 22.71,28 C22.9996457,27.58151 23.2348677,27.1278674 23.41,26.65 C24.2629861,24.2415475 23.6561052,21.5572667 21.85,19.75 C21.5413009,19.450931 21.2066532,19.1798664 20.85,18.94 C21.0526294,17.275054 22.190292,15.8729789 23.7777935,15.3317368 C25.3652949,14.7904947 27.1225041,15.2055934 28.3,16.4 C29.1186595,17.2086513 29.5826665,18.3093191 29.59,19.46 L29.51,20.33 C29.4395822,20.7590949 29.6825776,21.1780524 30.09,21.33 C32.5041274,22.2382421 34.196574,24.4341626 34.46,27 C34.0191719,26.908428 33.5702361,26.8615243 33.12,26.86 C32.611898,26.86 32.2,27.271898 32.2,27.78 C32.2,28.288102 32.611898,28.7 33.12,28.7 C34.8277295,28.6624871 36.4257496,29.5388866 37.3121014,30.9990673 C38.1984533,32.459248 38.2384791,34.2813737 37.4171014,35.7790673 C36.5957238,37.2767609 35.0377295,38.2224871 33.33,38.26 C33.0364463,37.4081866 32.5181817,36.6515203 31.83,36.07 C30.9414096,35.3009752 29.8051552,34.8784306 28.63,34.88 L28.63,34.83 Z M12.63,27.77 L12.69,27.72 C13.1923665,27.282549 13.7724202,26.9433363 14.4,26.72 C15.8491627,26.197604 17.446612,26.273159 18.84,26.93 C19.5918736,27.2857405 20.2547057,27.8050728 20.78,28.45 L20.83,28.52 C21.2278657,28.9825179 21.5364252,29.5148677 21.74,30.09 C21.9485845,30.6635836 22.0535505,31.2696779 22.0500871,31.88 C22.0488274,33.358352 21.4416093,34.7715799 20.37,35.79 C18.1220018,37.9032432 14.6179982,37.9032432 12.37,35.79 C11.2917353,34.775375 10.6802256,33.3605805 10.6799894,31.88 C10.6783932,31.0828838 10.8597122,30.2960275 11.21,29.58 C11.5703958,28.8962293 12.0713625,28.2964325 12.68,27.82 L12.63,27.77 Z M21.63,25.95 C21.568589,26.1234111 21.4985006,26.2936258 21.42,26.46 C20.8875817,25.979026 20.2879561,25.5781528 19.64,25.27 C17.8107671,24.419061 15.7201596,24.3220741 13.82,25 C13.3768097,25.1666737 12.9485996,25.3707426 12.54,25.61 L12.54,25.52 C12.2280785,24.2706424 12.4412829,22.9480525 13.13,21.86 L13.21,21.74 L13.34,21.55 L13.53,21.32 C13.7658688,21.0525674 14.0234098,20.8050604 14.3,20.58 C14.43,20.48 14.56,20.4 14.69,20.31 C16.170881,19.3780866 18.0431243,19.3317499 19.5682925,20.1892657 C21.0934606,21.0467816 22.0267273,22.6704981 22,24.42 C21.9870102,24.9623538 21.8751792,25.4977871 21.67,26 L21.63,25.95 Z"/>
        <path id="Path" fill="#3C454E" d="M15.7,17.8 C14.15,12.62 13.31,6.17 17.77,2.26 C18.206305,1.87892352 18.2510765,1.21630495 17.87,0.78 C17.4889235,0.343695048 16.826305,0.298923523 16.39,0.68 C11.28,5.15 11.91,12.48 13.68,18.4 C13.7538464,18.795097 14.0467617,19.1133689 14.4343841,19.2196884 C14.8220065,19.326008 15.2363108,19.2017167 15.5013977,18.8995844 C15.7664846,18.5974521 15.835833,18.1705011 15.68,17.8 L15.7,17.8 Z"/>
        <circle id="Oval" cx="16.22" cy="42.68" r="1.07" fill="#3C454E" fill-rule="nonzero"/>
        <circle id="Oval" cx="26.88" cy="22.28" r="1.07" fill="#3C454E" fill-rule="nonzero"/>
        <circle id="Oval" cx="28.42" cy="27.74" r="1.07" fill="#3C454E" fill-rule="nonzero"/>
      </g>
    </g>
  </g>
</svg>
