<svg xmlns="http://www.w3.org/2000/svg" width="64" height="64" viewBox="0 0 64 64" style="background:#fff">
  <g id="Blumenkohl" fill="none" fill-rule="evenodd" stroke="none" stroke-width="1">
    <rect width="64" height="64" fill="#FFF"/>
    <g id="17-Blumenkohl" transform="translate(2 11)">
      <g id="Layer_2">
        <rect id="Rectangle" width="60" height="60" x="0" y="0"/>
      </g>
      <g id="Layer_1" transform="translate(5 12)">
        <path id="Path" fill="#3CDE88" fill-opacity=".5" d="M11,35 C9.23,34.67 6,33.39 4,32.81 C2.86547236,32.410928 1.78145665,31.8806665 0.77,31.23 C-1.46,28.58 3.15,27.23 4.62,26.91 C7.08003992,26.3037942 9.65627896,26.3555259 12.09,27.06 C13.4253791,26.763259 14.7927691,26.6355912 16.16,26.68 C17.4780898,26.7903683 18.7897618,26.9672604 20.09,27.21 C20.8563735,27.4069624 21.6109251,27.6473505 22.35,27.93 L25.23,28.55 L25.28,28.55 L28.93,27.55 C31.8271736,26.8123604 34.8735613,26.9059355 37.72,27.82 C41.0868499,26.5412717 44.7956833,26.4846482 48.2,27.66 C51.41,28.9 51.76,31.08 48.97,32.51 C47.914148,33.0489173 46.8174095,33.5036626 45.69,33.87 C44.1057048,34.3686033 42.4969349,34.7858154 40.87,35.12 C39.0317674,35.5223402 37.1720797,35.8194896 35.3,36.01 C33.5518288,36.1771974 31.7936328,36.2139658 30.04,36.12 L25,35.5 L18.67,35.79 C18.67,35.79 12.67,35.3 10.99,34.99 L11,35 Z"/>
        <path id="Shape" fill="#B3B3B3" fill-opacity=".5" d="M22,2.43 L22.37,2.24 C23.3209378,1.80951828 24.3330259,1.52950723 25.37,1.41 C27.7973438,1.0025266 30.2897005,1.50455845 32.37,2.82 C33.4078563,3.61144706 34.2981345,4.57958238 35,5.68 C35.7954384,5.83395183 36.565969,6.09640328 37.29,6.46 C37.998543,6.93318565 38.6068143,7.54145701 39.08,8.25 C40.0286267,8.78691023 40.9497796,9.37097456 41.84,10 C41.84,10 41.36,9.59 41.17,9.46 C42.06,10.08 45.03,12.57 46.03,14.46 C47.1666081,16.4490797 47.1666081,18.8909203 46.03,20.88 C44.03,24.34 41.03,25.13 37.73,24.66 C36.5476094,24.4798252 35.4085708,24.0831956 34.37,23.49 L34.37,23.49 C33.4467664,24.2371133 32.4400492,24.8747008 31.37,25.39 C29.6591847,26.1489328 27.8009835,26.5178404 25.93,26.47 C23.88,26.47 21.81,25.72 19.75,25.36 C18.82,25.19 17.64,25.08 16.66,24.83 C16.0557748,24.6705598 15.4641626,24.4666709 14.89,24.22 C13.195586,23.5707019 11.640992,22.6033236 10.31,21.37 C9.85694407,20.873453 9.46729654,20.322572 9.15,19.73 C8.66312903,19.1840564 8.2740908,18.5582123 8,17.88 C7.79435341,17.6050495 7.6293299,17.3019451 7.51,16.98 C7.31570382,16.263843 7.24136454,15.5204502 7.29,14.78 C7.34442957,13.9859446 7.52677852,13.2058963 7.83,12.47 C8.31449514,11.2000059 8.91013968,9.97525364 9.61,8.81 C10.308877,7.74124561 11.200762,6.81205749 12.24,6.07 C13.4388701,5.25359627 14.8058814,4.71704433 16.24,4.5 C16.51,4.5 16.8,4.42 17.09,4.4 C17.2632485,4.22497905 17.4505413,4.06444235 17.65,3.92 C18.7797175,3.13448589 20.0841692,2.63673459 21.45,2.47 C21.663001,2.45315935 21.876999,2.45315935 22.09,2.47 L22,2.43 Z M10.23,10.69 C9.99226773,10.8623946 9.76826281,11.0529659 9.56,11.26 C9.7610074,11.0791825 9.97129198,10.9089521 10.19,10.75 L10.23,10.69 Z"/>
        <path id="Shape" fill="#3C454E" d="M50.51,21.69 C50.2159794,21.5539602 49.8712599,21.5884322 49.61,21.78 C49.4995997,21.8585936 49.4046727,21.9569109 49.33,22.07 C49.25,22.18 49.13,22.41 49.05,22.5 C48.97,22.59 48.73,22.87 48.56,23.05 C47.9719086,21.6498801 47.1002783,20.3866971 46,19.34 C46.39,15.93 45.53,12.25 41.51,10.51 C41.2847939,10.4099049 41.0288439,10.4043503 40.7995073,10.4945811 C40.5701708,10.5848119 40.3866243,10.763283 40.29,10.99 C40.1895393,11.216642 40.1837262,11.4740137 40.2738517,11.7049603 C40.3639772,11.9359069 40.5425809,12.1213111 40.77,12.22 C43.0257967,13.1862082 44.4139255,15.4836619 44.22,17.93 C42.8150782,17.0091555 41.2297403,16.3988857 39.57,16.14 C39.0563752,16.0737258 38.5862742,16.4363752 38.52,16.95 C38.4537258,17.4636248 38.8163752,17.9337258 39.33,18 C42.7772501,18.4807665 45.7034894,20.7698715 47,24 C47.0487536,24.116868 47.1163141,24.2249647 47.2,24.32 C46.6774703,24.7232991 46.1259823,25.0876154 45.55,25.41 C42.5407429,27.1799004 39.2384781,28.3958112 35.8,29 C35.87,28.77 35.95,28.55 36.01,28.33 C36.1661709,27.6717774 36.2764363,27.0035028 36.34,26.33 C36.34,26.22 36.34,25.82 36.34,25.64 C36.34,25.46 36.34,25.36 36.34,25.28 C36.3431386,25.1197975 36.3052734,24.9614518 36.23,24.82 C35.9813311,24.3921016 35.4434729,24.2303069 35,24.45 C33.13,25.64 31.78,27.3 29.65,28.16 C22.87,30.92 16.32,28.03 11.11,23.65 C10.8376471,23.3096392 10.3654316,23.2041216 9.97410786,23.3961823 C9.58278415,23.588243 9.37737256,24.0263384 9.48,24.45 C9.91914118,26.3358656 10.5909566,28.1598443 11.48,29.88 C9.47294744,29.3114892 7.6065374,28.3306022 6,27 C6.00492875,26.9668489 6.00492875,26.9331511 6,26.9 C5.15,22.04 6.46,17.33 11.53,15.32 C11.9624051,15.0998824 12.1562255,14.5868239 11.9773656,14.135786 C11.7985058,13.6847482 11.3057442,13.4439549 10.84,13.58 C9.97624455,13.9263638 9.15436955,14.3691699 8.39,14.9 C8.61078781,13.2894152 9.1586839,11.7410132 10,10.35 C10.785433,8.99505057 12.03635,7.97157309 13.52,7.47 C13.4896324,7.8272656 13.6521705,8.17359353 13.9463878,8.37852542 C14.2406051,8.58345732 14.621803,8.61585913 14.9463878,8.46352543 C15.2709727,8.31119172 15.4896324,7.9972656 15.52,7.64 C15.7009434,6.06277147 16.7975277,4.74182986 18.314522,4.27372876 C19.8315163,3.80562766 21.4817668,4.27897451 22.52,5.48 C22.9148836,5.87212215 23.5528778,5.86988357 23.945,5.47499998 C24.3371221,5.08011639 24.3348836,4.44212218 23.94,4.05 C23.743072,3.85911481 23.5361119,3.67885924 23.32,3.51 C24.1953067,2.68903668 25.3499415,2.23147243 26.55,2.23 C27.84248,2.2114461 29.0642599,2.81861109 29.83,3.86 C30.7079227,4.98696499 31.2951728,6.31257044 31.54,7.72 C31.5922742,8.05323999 31.8208911,8.33205035 32.1374316,8.44859928 C32.453972,8.5651482 32.8088053,8.50116187 33.0646972,8.28138744 C33.3205891,8.06161301 33.4374182,7.7205091 33.37,7.39 C33.275076,6.89233831 33.1481457,6.40131867 32.99,5.92 C35.91,6.78 37.21,9.92 37.28,12.98 C37.28,13.4936248 37.6963752,13.91 38.21,13.91 C38.7236248,13.91 39.14,13.4936248 39.14,12.98 C39,8.56 36.7,4.31 32,3.87 C31.7659975,3.45232449 31.4984509,3.05434892 31.2,2.68 C30.0659772,1.17574064 28.2730143,0.314671128 26.39,0.37 C24.33,0.47 23.8,0.78 21.5,2.48 C18.6171268,1.38602233 15.3776635,2.69225752 14.06,5.48 C12.1751319,5.7515247 10.461522,6.72257032 9.26,8.2 C7.40869468,10.5472162 6.38557866,13.4407711 6.35,16.43 C6.35111627,16.518946 6.36804669,16.6069842 6.4,16.69 C4.45922216,19.1163077 3.55370478,22.2101587 3.88,25.3 L1.88,23.39 L1.78,23.32 L1.62,23.22 L1.45,23.22 C1.39343606,23.2151746 1.33656394,23.2151746 1.28,23.22 L1.08,23.22 L1,23.22 L1,23.22 C0.943502896,23.2439916 0.88984143,23.2741761 0.84,23.31 C0.784927511,23.3350137 0.734271261,23.3687845 0.69,23.41 C0.69,23.41 0.69,23.41 0.69,23.41 C0.664222037,23.4395071 0.643904853,23.4733691 0.63,23.51 C0.587535254,23.5570515 0.553685318,23.6112114 0.53,23.67 C0.505471485,23.7215237 0.485398218,23.7750524 0.47,23.83 L0.47,24.01 C0.46560298,24.073257 0.46560298,24.136743 0.47,24.2 C0.47,24.2 0.47,24.27 0.47,24.31 C1.47,27.81 2.52,30.76 5.31,33.25 C10.09,37.51 18.25,37.8 23.97,35.47 C25.8749249,36.2881733 28.0194546,36.3525092 29.97,35.65 C30.0044721,35.6737843 30.0413398,35.6938939 30.08,35.71 C33.46,36.89 37.08,37.71 40.66,36.71 C45,35.38 47.12,32 49.05,28.09 C49.9372004,26.407588 50.6091464,24.6202115 51.05,22.77 C51.1843262,22.3238092 50.9475483,21.8502535 50.51,21.69 L50.51,21.69 Z M6.4,31.83 C4.99460953,30.5530278 3.9146325,28.958776 3.25,27.18 C6.02,29.63 8.83,31.48 12.87,32.05 C13.7282437,33.1823636 14.7376364,34.1917563 15.87,35.05 C12.4301214,35.1418123 9.07094361,33.9996209 6.4,31.83 Z M22.25,32.54 C22.043281,32.4042226 21.7909931,32.3563784 21.5489165,32.4070456 C21.30684,32.4577128 21.0949158,32.6027177 20.96,32.81 C20.7159552,33.2492737 20.8358031,33.8014299 21.24,34.1 L21.51,34.27 C20.7060743,34.5060749 19.8876921,34.6897933 19.06,34.82 C15.8130324,33.1390886 13.335768,30.2751991 12.14,26.82 C17.46,30.56 23.8,32.53 30.31,29.88 C31.7708833,29.1935464 33.1194826,28.2899848 34.31,27.2 C34.31,27.42 34.23,27.64 34.18,27.85 C33.785305,29.4659358 32.9552322,30.9427737 31.78,32.12 C28.66,35.16 25.28,34.5 22.25,32.54 Z M47.37,27.27 C45.68,30.72 43.88,33.75 39.98,34.87 C37.3251239,35.5033017 34.5424552,35.3398199 31.98,34.4 C32.3669919,34.1108644 32.7375666,33.8003828 33.09,33.47 C33.8431607,32.7437207 34.4865747,31.9116617 35,31 C39.0522336,30.4335701 42.9531765,29.0743566 46.48,27 C47.0064713,26.6925745 47.5171187,26.3588181 48.01,26 C47.76,26.47 47.57,26.88 47.37,27.27 L47.37,27.27 Z"/>
        <path id="Path" fill="#3C454E" d="M26.91 21.58C27.1374191 21.4813111 27.3160228 21.2959069 27.4061483 21.0649603 27.4962738 20.8340137 27.4904607 20.576642 27.39 20.35 26.8150977 18.9926609 25.9636686 17.7700088 24.89 16.76 24.6525916 14.4336777 25.3749673 12.1112396 26.89 10.33 27.065876 10.1554005 27.1647901 9.91782526 27.1647901 9.67 27.1647901 9.42217474 27.065876 9.18459953 26.89 9.01 26.7171168 8.83472057 26.481194 8.73604566 26.235 8.73604566 25.988806 8.73604566 25.7528832 8.83472057 25.58 9.01 23.9900707 10.7670439 23.0757449 13.0315952 23 15.4 21.0757339 14.3448875 18.8672404 13.9248888 16.69 14.2 16.1917114 14.2576455 15.8289209 14.7000729 15.87 15.2 15.9226022 15.7010238 16.3683787 16.0665605 16.87 16.02 20.5861188 15.4936118 24.1868587 17.5511775 25.62 21.02 25.7035723 21.2754874 25.8925256 21.482972 26.1391028 21.5900133 26.3856799 21.6970545 26.6662863 21.6934097 26.91 21.58zM18.71 24.16C20.2277259 25.3190447 22.0904875 25.9352702 24 25.91L24.13 25.91C24.4981431 25.9016585 24.8258475 25.6746026 24.9629827 25.3328529 25.1001179 24.9911033 25.0202623 24.6005042 24.76 24.34 24.5897444 24.171652 24.359425 24.0780848 24.12 24.08L24 24.08C22.4820864 24.1127818 20.9979245 23.6298123 19.79 22.71 18.5621484 21.6875255 17.604107 20.3792324 17 18.9 16.7794139 18.4475441 16.2415579 18.2491546 15.78 18.45 15.3190688 18.6628389 15.1176785 19.2088302 15.33 19.67L15.33 19.67C16.0733767 21.4200673 17.2338068 22.9615853 18.71 24.16L18.71 24.16zM31.59 15.17C31.2505977 15.17 30.936977 15.351069 30.7672758 15.645 30.5975747 15.938931 30.5975747 16.301069 30.7672758 16.595 30.936977 16.888931 31.2505977 17.07 31.59 17.07 31.9294023 17.07 32.243023 16.888931 32.4127242 16.595 32.5824253 16.301069 32.5824253 15.938931 32.4127242 15.645 32.243023 15.351069 31.9294023 15.17 31.59 15.17zM34.55 20.46C34.55 20.9846705 34.9753295 21.41 35.5 21.41 36.0246705 21.41 36.45 20.9846705 36.45 20.46 36.45 19.9353295 36.0246705 19.51 35.5 19.51 34.9753295 19.51 34.55 19.9353295 34.55 20.46z"/>
      </g>
    </g>
  </g>
</svg>
