<svg xmlns="http://www.w3.org/2000/svg" width="64" height="64" viewBox="0 0 64 64" style="background:#fff">
  <g id="Bohnenkraut" fill="none" fill-rule="evenodd" stroke="none" stroke-width="1">
    <rect width="64" height="64" fill="#FFF"/>
    <g transform="translate(2 8)">
      <rect id="Rectangle" width="60" height="60" x="0" y="0"/>
      <g id="Group" fill="#31E085" fill-rule="nonzero" opacity=".5" transform="translate(11 7)">
        <path id="Path" d="M6.09 37.06C7.25 33.72 6.84 29.87 6.9 26.35 6.9332168 22.4748546 6.69597389 18.6021147 6.19 14.76 6.19084468 14.4793207 5.98377268 14.2413735 5.70566593 14.2034498 5.42755918 14.1655262 5.16433761 14.3393425 5.09 14.61 3.78232725 18.221767 2.72974147 21.9208542 1.94 25.68 1.25 29.13-1.0658141e-14 32.78.41 36.29.78 39.47 5 40.3 6.09 37.06zM38 15.93C34.2106928 17.3124935 30.533204 18.9840794 27 20.93 27.86 19.74 28.71 18.54 29.58 17.37 32.65 13.26 35.58 9.06 37.43 4.23 37.5311346 3.88847118 37.4138717 3.51979239 37.1340238 3.29943972 36.854176 3.07908706 36.4682773 3.05157572 36.16 3.23 31.85 6.05 28.4 9.9 25 13.81 21.6 17.72 18.1 21.07 16.53 25.88 16.53 25.88 16.53 25.94 16.53 25.97L16.44 26.02C17.79 22.66 18.57 19.02 19.75 15.64 21.3 11.18 23.95 6.85 24.64 2.14 24.81 1 23.71-.18 22.55.54 18.32 3.15 15.93 7.85 13.81 12.21 11.59 16.77 9.45 22 9.86 27.13 9.95303653 28.1114605 10.4960181 28.9942674 11.33 29.52 10.8513485 30.0148564 10.4163943 30.5501846 10.03 31.12 9.6532442 31.7749707 9.59978155 32.5671422 9.88511541 33.2667965 10.1704493 33.9664508 10.7626544 34.4953053 11.49 34.7 17.11 35.76 22.36 32 26.83 29 31.75 25.73 35.83 22.23 38.92 17.12 39.0773517 16.8338734 39.0499412 16.481657 38.8502178 16.223319 38.6504943 15.9649811 38.3165286 15.8497653 38 15.93zM30.7 31.73C26.0168941 32.7337308 21.4012038 34.0295975 16.88 35.61 12.42 37.06 7.88 37.93 4.05 40.71 2.15 42.08 1.84 46.02 4.8 46.46 14.66 47.93 25.94 41.4 32 33.94 32.4162342 33.5103973 32.4944611 32.8557753 32.191176 32.3401906 31.8878909 31.8246059 31.2777202 31.5749236 30.7 31.73z"/>
      </g>
      <path id="Shape" fill="#3D454C" fill-rule="nonzero" d="M52.1,19.66 C49.22,22.08 45.7,23.93 42.57,26.02 C37.44,29.44 32.28,32.44 26.4,34.02 L29.59,30.83 C29.6465639,30.8348254 29.7034361,30.8348254 29.76,30.83 C40.08,28.09 48.31,18 51.32,8.28 C51.3676688,8.10654887 51.3676688,7.92345113 51.32,7.75 C51.2754521,7.37968448 50.9809101,7.08929099 50.61,7.05 C49.15,6.8 47.66,8.41 46.61,9.24 C43.9514236,11.5148228 41.4114125,13.9246624 39,16.46 C36.5400054,18.9210061 34.2355515,21.5327206 32.1,24.28 C31.3299489,25.3477205 30.6285352,26.4633024 30,27.62 C30.0017102,27.6499756 30.0017102,27.6800244 30,27.71 L23,34.71 C25.37,28.27 29.75,22.3 32.17,15.96 C32.69,14.61 37.4,5.96 33.28,6.96 C31.83,7.34 30.28,9.96 29.43,10.96 C27.3825059,13.5521421 25.5307271,16.2930422 23.89,19.16 C20.46,25.16 18.28,31.08 19.73,37.92 L15.73,41.92 C16.7777894,38.1024843 17.5366017,34.211482 18,30.28 C18.4438076,28.04294 18.6847853,25.7703864 18.72,23.49 C18.59,19.67 16.44,16.49 14.92,13.1 C14.888759,12.9110514 14.7890957,12.7402 14.64,12.62 C14.3073629,12.3012625 13.7826371,12.3012625 13.45,12.62 C13.1695132,12.7848163 12.9867322,13.0757737 12.96,13.4 C12.44,19.21 12.18,25.06 11.89,30.88 C11.65,35.88 12,41.26 11.62,46 L8.1,49.52 C7.84812776,49.7736586 7.75071345,50.142421 7.84445209,50.487378 C7.93819073,50.8323351 8.20884121,51.1010796 8.55445209,51.192378 C8.90006298,51.2836765 9.26812776,51.1836586 9.52,50.93 L13.52,46.93 C17.72,49.16 23.17,48.59 27.52,47.69 C28.78,47.43 28.25,45.5 26.99,45.76 C23.67,46.44 19.38,46.95 15.86,45.76 C18.1,45.3 20.75,45.16 22.69,44.63 C26.69,43.55 30.52,42.07 34.52,41.09 C36.12,40.7 37.75,40.39 39.38,40.09 C39.9,39.98 40.75,39.91 41.64,39.8 C39.41,41.04 37.09,42.11 34.75,43.13 C33.58,43.64 34.59,45.36 35.75,44.85 C37.87,43.94 47.19,40.99 47.21,37.68 C47.227082,37.2179962 46.9252375,36.8045106 46.48,36.68 C44.48,36.36 41.99,37.5 40,37.89 C36.4783638,38.5387177 32.9934977,39.3732163 29.56,40.39 C26.22,41.39 22.92,42.54 19.56,43.39 C18.5699351,43.6022989 17.5681887,43.7559 16.56,43.85 L21.43,39 L21.5,39 L21.57,38.95 C21.5999007,38.915798 21.6266746,38.878984 21.65,38.84 L23.34,37.15 C28.05,40.36 34.87,37.66 39.39,35.23 C45.61,31.84 51,27.27 53.78,20.63 C54.2,19.61 52.77,19.1 52.1,19.66 Z M32.52,27.13 C34.2741066,24.5107189 36.2839667,22.0720887 38.52,19.85 C40.74,17.49 43,15.2 45.4,13 C46.4,12.09 47.4,11.17 48.4,10.33 C45.4,17.6 39.4,24.76 32.04,27.89 C32.21,27.67 32.35,27.41 32.52,27.13 Z M21.83,28.36 C22.8234011,25.3439882 24.1658382,22.4543924 25.83,19.75 C27.0514528,17.6519008 28.3867817,15.6222008 29.83,13.67 C30.2887223,13.1150881 30.7831022,12.5906446 31.31,12.1 C31.15,12.62 30.99,13.15 30.82,13.62 C29.7177391,16.6539534 28.4423099,19.6221644 27,22.51 C25.13,26.19 22.76,29.95 21.19,33.89 C21.094954,33.502433 21.0314135,33.1078129 21,32.71 C21.0866081,31.2301112 21.3656221,29.7678086 21.83,28.36 L21.83,28.36 Z M15.69,32.13 C15.2399567,35.1189837 14.6223165,38.080318 13.84,41 C13.84,37.45 13.76,33.85 13.94,30.32 C14.15,25.94 14.36,21.54 14.67,17.16 C15.9201977,19.4162492 16.6063575,21.9413173 16.67,24.52 C16.5444395,27.0785332 16.2167515,29.6231313 15.69,32.13 L15.69,32.13 Z M40.83,32 C37.2,34.29 30.6,38 25.92,36.25 C32.39,34.69 38,31.47 43.58,27.75 C45.58,26.39 47.79,25.13 49.86,23.75 C47.4677664,27.1080588 44.3899288,29.9200367 40.83,32 L40.83,32 Z"/>
      <path id="Path" fill="#3D454C" fill-rule="nonzero" d="M30.83,44.68 C30.334694,44.9232552 30.1300452,45.5217439 30.3727058,46.0173414 C30.6153665,46.5129389 31.2136092,46.7183058 31.7094975,46.4762401 C32.2053859,46.2341743 32.4114705,45.6361785 32.17,45.14 C32.0536703,44.9009635 31.8469494,44.7180846 31.5955117,44.6317702 C31.3440741,44.5454558 31.0686162,44.5628106 30.83,44.68 Z"/>
    </g>
  </g>
</svg>
