<svg xmlns="http://www.w3.org/2000/svg" width="64" height="64" viewBox="0 0 64 64" style="background:#fff">
  <g id="Brechbohnen" fill="none" fill-rule="evenodd" stroke="none" stroke-width="1">
    <rect width="64" height="64" fill="#FFF"/>
    <g transform="translate(2 4)">
      <rect id="Rectangle" width="60" height="60" x="0" y="0"/>
      <path id="Path" fill="#31E085" fill-rule="nonzero" d="M54.7,5.51 C44.18,-0.08 29.52,11.24 22.53,18.51 C14.6,26.77 7.53,38.93 8.26,50.77 C8.78,58.77 18.78,59.61 21.63,52.58 C22.96,49.29 27.34,45.87 29.68,43.14 L39.32,31.91 C42.43,28.29 46.82,23.91 49.57,19.12 C52.4314937,18.0388568 54.9542606,16.2166667 56.88,13.84 C58.84,11.3 57.33,6.91 54.7,5.51 Z" opacity=".5"/>
      <path id="Path" fill="#3D454C" fill-rule="nonzero" d="M36,30.08 C35.633167,30.4471861 35.6333578,31.0421968 36.0004262,31.4091475 C36.3674946,31.7760983 36.9625054,31.7760983 37.3295738,31.4091475 C37.6966422,31.0421968 37.696833,30.4471861 37.33,30.08 C36.9509156,29.7424578 36.3790844,29.7424578 36,30.08 Z"/>
      <path id="Shape" fill="#3D454C" fill-rule="nonzero" d="M53.06,9.1 C49.28,5.32 31.43,10.86 20.16,22.1 C8.57,33.73 3.52,51.38 7.16,55 C12.16,60 31.02,43 36.04,38 C41.06,33 58,14.07 53.06,9.1 Z M21.48,23.46 C31,13.92 44.82,9.05 50.36,9.9 C47.72,12 45.04,14.24 42.36,16.57 C40.6160998,15.0592832 38.1250866,14.7703401 36.0816747,15.8417507 C34.0382627,16.9131613 32.8592093,19.1264096 33.11,21.42 C31.212908,20.8152095 29.1373866,21.2613185 27.6563445,22.5921994 C26.1753024,23.9230803 25.5106885,25.9392873 25.91,27.89 C23.9592873,27.4906885 21.9430803,28.1553024 20.6121994,29.6363445 C19.2813185,31.1173866 18.8352095,33.192908 19.44,35.09 C17.1402551,34.8351144 14.9199426,36.0183086 13.8490402,38.0693964 C12.7781378,40.1204842 13.0763631,42.6186431 14.6,44.36 C12.27,47 10,49.71 8,52.33 C7.16,47.21 11.46,33.48 21.48,23.46 Z M40.94,17.82 C39.13,19.41 37.3,21.07 35.49,22.76 C34.5705084,21.2255773 34.8628252,19.2553294 36.1882125,18.0539692 C37.5135997,16.852609 39.5030043,16.7546544 40.94,17.82 L40.94,17.82 Z M34.05,24.11 C32.24,25.82 30.44,27.56 28.67,29.33 C27.3072731,27.8327935 27.3789544,25.5242333 28.8319438,24.1144555 C30.2849332,22.7046776 32.5946052,22.7027055 34.05,24.11 L34.05,24.11 Z M27.34,30.65 C25.58,32.43 23.83,34.23 22.14,36.04 C20.7804253,34.5815643 20.7998432,32.3142267 22.1841972,30.8792905 C23.5685513,29.4443542 25.8337331,29.3436163 27.34,30.65 L27.34,30.65 Z M20.78,37.48 C19.1,39.29 17.45,41.12 15.84,42.93 C14.7457603,41.4961844 14.830733,39.4856555 16.0420516,38.1492817 C17.2533703,36.8129078 19.2459123,36.5314417 20.78,37.48 Z M34.72,36.7 C25.79,45.63 14.31,54 9.58,54 C9.38714577,54.0192485 9.19285423,54.0192485 9,54 C15.3589146,46.0416104 22.1631269,38.4494717 29.38,31.26 C36.5289651,24.0824031 44.081212,17.3181006 52,11 C53.13,16.1 40.67,30.76 34.72,36.7 Z"/>
      <path id="Path" fill="#3D454C" fill-rule="nonzero" d="M33.37,32.73 C32.95,33.17 32.51,33.62 32.07,34.06 C29.8889423,36.2483741 27.5709316,38.2958388 25.13,40.19 C24.8349035,40.3843949 24.6737611,40.7278661 24.712888,41.0790646 C24.7520149,41.4302632 24.9847997,41.7298471 25.3154444,41.8545285 C25.646089,41.9792098 26.0187246,41.9079212 26.28,41.67 C28.781276,39.7227722 31.1591876,37.6220609 33.4,35.38 C33.85,34.93 34.29,34.47 34.72,34.02 C35.0762237,33.6472078 35.0627922,33.0562237 34.69,32.7 C34.3172078,32.3437763 33.7262237,32.3572078 33.37,32.73 Z"/>
    </g>
  </g>
</svg>
