<svg xmlns="http://www.w3.org/2000/svg" width="64" height="64" viewBox="0 0 64 64" style="background:#fff">
  <g id="Brennnesseln" fill="none" fill-rule="evenodd" stroke="none" stroke-width="1">
    <rect width="64" height="64" fill="#FFF"/>
    <g transform="translate(2 6)">
      <rect id="Rectangle" width="60" height="60" x="0" y="0"/>
      <g id="Group" fill="#31E085" fill-rule="nonzero" opacity=".5" transform="translate(6 7)">
        <path id="Path" d="M16.05,21.08 C13.6356757,21.155984 11.4137784,22.4165553 10.11,24.45 C8.17351966,24.8987569 6.37519638,25.8116462 4.87,27.11 C0.66,30.75 -0.35,36.44 0.2,41.69 C0.53,44.75 2.53,47.31 5.86,47.34 C9.99,47.34 14.01,45.71 17.93,44.54 C21.85,43.37 25.5,42.23 27.63,38.47 C32,30.81 24.74,20.24 16.05,21.08 Z"/>
        <path id="Path" d="M43.37,1.55 C38.9,-1 33.51,1 30.77,5.13 C29.7289946,6.79118347 28.8515538,8.549414 28.15,10.38 C27.2554183,10.7928563 26.3871085,11.2604078 25.55,11.78 C25.2806802,11.9514354 25.0264304,12.1454681 24.79,12.36 L24.69,12.22 C22.4229341,9.06558884 19.2434672,6.68186123 15.58,5.39 C8.88,3.22 5.23,12.9 10.91,16.46 C12.22,17.28 13.71,17.82 14.73,18.34 C15.99,18.98 17.16,19.75 18.41,20.34 C19.7730464,21.105242 21.232788,21.6837571 22.75,22.06 C22.8864802,22.3435383 23.084651,22.5929602 23.33,22.79 C24.8281299,23.8313795 26.1976664,25.0465075 27.41,26.41 C28.69,28.18 28.77,29.92 30.71,31.69 C32.36,33.19 35.52,33.22 36.61,30.93 C37.6479168,28.9554534 37.6216029,26.590959 36.54,24.64 C35.9130889,23.3246109 35.0290298,22.1481323 33.94,21.18 C35.65,20.36 37.31,19.44 38.94,18.56 C41.1316318,17.5392882 43.1548692,16.1904633 44.94,14.56 C46.7863646,12.7696014 47.6895965,10.2190012 47.3814662,7.66564166 C47.073336,5.11228212 45.5892752,2.84977178 43.37,1.55 Z"/>
      </g>
      <path id="Path" fill="#3D454C" fill-rule="nonzero" d="M26.69,38.16 L26.69,38.16 C26.1377153,38.16 25.69,38.6077153 25.69,39.16 C25.6693425,39.9834664 25.5992161,40.8049471 25.48,41.62 C25.405395,41.5115273 25.3385614,41.3979101 25.28,41.28 C25.1093504,40.9677946 24.7856654,40.7697756 24.43,40.76 C24.0738834,40.7487095 23.7386577,40.9277505 23.55,41.23 C23.1539304,42.0980566 22.9656164,43.0464743 23,44 C23,44.42 22.95,44.94 22.88,45.41 C22.6380421,45.2566948 22.3753756,45.1388316 22.1,45.06 C21.8728094,44.9202412 21.5991989,44.8770395 21.34,44.94 C21.0123955,45.0171392 20.7455693,45.2539005 20.63,45.57 C20.53,45.85 20.46,46.14 20.38,46.46 C20.2453972,47.4467094 19.754567,48.3501215 19,49 C18.92,48.85 18.84,48.7 18.75,48.56 C18.51,48.18 17.95,47.29 17.09,47.56 C16.6310405,47.6813727 16.303421,48.0858412 16.28,48.56 C16.28,49.11 15.21,50.24 14.35,50.85 C13.5254467,51.3566305 12.6332375,51.7438156 11.7,52 C11.6826476,51.9151066 11.6592547,51.8315608 11.63,51.75 C11.3765521,50.9282218 11.1662648,50.0937483 11,49.25 C10.8106309,48.4561585 10.7000949,47.6455608 10.67,46.83 C10.8131825,46.6042291 10.8600002,46.3305258 10.8,46.07 C10.7209127,45.740094 10.4799571,45.4727839 10.16,45.36 C9.72430285,45.2056125 9.25801227,45.157612 8.8,45.22 C8.75019236,44.2899688 8.97259928,43.3655901 9.44,42.56 C9.72965581,42.3766886 9.9052337,42.0577879 9.9052337,41.715 C9.9052337,41.3722121 9.72965581,41.0533114 9.44,40.87 C8.87483824,40.6024335 8.27055457,40.4268874 7.65,40.35 L7.45,40.35 C7.94926825,39.1136056 8.93177512,38.1347109 10.17,37.64 C10.72,37.32 11.34,36.97 12.09,36.47 C12.4085622,36.2725668 12.5899853,35.9135808 12.56,35.54 C12.5187829,35.1792854 12.2852972,34.8692469 11.95,34.73 C11.83,34.66 11.46,34.35 11.18,34.12 L10.78,33.78 C12.14,33.22 14.06,32.91 17.9,32.78 C18.4522847,32.78 18.9,32.3322847 18.9,31.78 C18.9,31.2277153 18.4522847,30.78 17.9,30.78 L17.9,30.78 C12.05,30.99 10.2,31.61 8.28,32.92 L8.28,32.92 C7.91871902,33.1624341 7.75565046,33.6106456 7.87668457,34.0285558 C7.99771869,34.4464661 8.37507694,34.7381605 8.81,34.75 C9.15697687,34.9991502 9.49076102,35.2661775 9.81,35.55 L9.2,35.9 C7.23953603,36.7825087 5.78628078,38.5080193 5.25,40.59 C5.15560405,40.8853215 5.18445125,41.2062466 5.33,41.48 C5.65,42.04 6.27,42.16 7.33,42.36 L7.4,42.36 C6.97190014,43.7813728 6.81583687,45.2707591 6.94,46.75 C6.97691156,47.0980402 7.19309475,47.4014553 7.51,47.55 C7.83180521,47.7074892 8.21327409,47.6807864 8.51,47.48 C8.60126337,47.4201812 8.69844224,47.3699163 8.8,47.33 C8.87400591,48.1263046 8.99420839,48.9176376 9.16,49.7 C9.32137816,50.5843137 9.53170146,51.4589916 9.79,52.32 C9.88,52.62 9.97,52.94 10.09,53.39 C10.1127737,53.7863544 10.3678591,54.1317009 10.74,54.27 C10.8573493,54.318051 10.9832077,54.341862 11.11,54.3401014 C11.3355642,54.3386916 11.5540607,54.2611606 11.73,54.12 L12,54.04 C13.2633211,53.6929191 14.4669181,53.1568633 15.57,52.45 C16.260929,51.9543985 16.8830269,51.3692902 17.42,50.71 C17.4313498,50.9323073 17.5117492,51.1455406 17.65,51.32 C17.9605735,51.6961603 18.4972317,51.7933504 18.92,51.55 C20.5763461,50.7537223 21.80323,49.274889 22.28,47.5 C22.369444,47.6121787 22.4528939,47.7290085 22.53,47.85 C22.7001546,48.1094488 22.9811002,48.2752196 23.2904772,48.2987166 C23.5998543,48.3222136 23.9026132,48.2007748 24.11,47.97 C24.92,47.07 25,45.58 25.11,44.15 C25.1050179,44.0834264 25.1050179,44.0165736 25.11,43.95 C25.2227406,44.0828061 25.3263132,44.2231303 25.42,44.37 C25.6418656,44.6943109 26.0330996,44.8586292 26.42,44.79 C26.8245371,44.704235 27.1345563,44.3783173 27.2,43.97 C27.4999739,42.3925172 27.6804863,40.7946477 27.74,39.19 C27.7487389,38.9107196 27.6402328,38.6405206 27.4407645,38.4448517 C27.2412962,38.2491828 26.9690607,38.1458925 26.69,38.16 L26.69,38.16 Z"/>
      <path id="Shape" fill="#3D454C" fill-rule="nonzero" d="M40.39,29.76 C40.16,29.62 39.82,29.41 39.61,29.25 C40.0697701,28.7342586 40.0697701,27.9557414 39.61,27.44 C38.3970853,26.1619105 36.7560164,25.3751941 35,25.23 C35.0285202,25.0247829 35.0079573,24.8157275 34.94,24.62 C34.7552619,24.1625888 34.3534078,23.8283364 33.87,23.73 C33.3892923,23.6128246 32.8941843,23.5656714 32.4,23.59 C37,19.06 40.59,16.71 44,16 C44.2599387,15.9470054 44.4881678,15.7928955 44.6344551,15.571589 C44.7807425,15.3502825 44.8330985,15.0799175 44.78,14.82 C44.6695093,14.2834 44.1478195,13.9356068 43.61,14.04 C39.69,14.81 35.77,17.34 30.69,22.39 C30.2528713,20.7409086 29.524777,19.1831254 28.54,17.79 C28.44,17.64 28.36,17.52 28.31,17.43 C28.1115397,17.0836665 27.7649727,16.8477059 27.37,16.79 C26.9670725,16.7483908 26.5658733,16.8833397 26.27,17.16 C24.9473786,15.5548009 22.6923723,15.0739539 20.83,16 C20.5776018,16.1604223 20.3899138,16.4047708 20.3,16.69 C19.5154246,16.509876 18.7026253,16.489471 17.91,16.63 C17.91,16.63 14.43,17.52 14.08,18.55 C13.73,19.58 15.57,22.35 15.59,22.38 L15.85,22.75 C15.4335508,22.9402717 15.1843129,23.3744279 15.23,23.83 C15.35,25.23 16.68,26.08 17.88,26.64 C17.7724608,26.7721216 17.7032776,26.931243 17.68,27.1 C17.6318558,27.5125724 17.8119212,27.9186775 18.15,28.16 C18.2778084,28.2654525 18.3920169,28.3863791 18.49,28.52 C19.86,30.31 20.89,30.82 23.29,30.9 L23.5,30.9 C19.85,34.17 16.08,37.46 14.25,42.1 C13.78,43.3 15.72,43.82 16.18,42.64 C16.7783871,41.1679686 17.5867746,39.7903415 18.58,38.55 C18.8391486,39.6253883 19.1732995,40.6813053 19.58,41.71 C20.06,42.89 22,42.37 21.51,41.18 C20.9653818,39.8273123 20.543679,38.4283297 20.25,37 C20.2249399,36.9120279 20.1879281,36.8279102 20.14,36.75 C21.76,35.04 23.59,33.48 25.32,31.95 C25.3127638,32.3482202 25.3395276,32.7463316 25.4,33.14 C25.5046013,35.0551112 26.6588334,36.7556797 28.4,37.56 C28.5419825,37.6403241 28.6759297,37.7340871 28.8,37.84 C29.0850945,38.1461208 29.5180783,38.2659645 29.92,38.15 C30.1650587,38.0765063 30.3726286,37.911882 30.5,37.69 C31.4,38.84 32.6,40.17 34.09,40.08 C34.5864559,40.0359218 34.9940512,39.669086 35.09,39.18 C35.42,39.3 35.79,39.4 36.18,39.51 C37.0301599,39.6673043 37.8356395,40.0086092 38.54,40.51 C38.731389,40.722076 39.0043407,40.8421747 39.29,40.84 L39.46,40.84 C39.8042484,40.7802917 40.0923722,40.5452433 40.22,40.22 C40.9402321,38.5403814 41.1320697,36.6813008 40.77,34.89 C40.77,34.7 40.71,34.5 40.69,34.29 C40.63,33.82 40.69,33.8 41.06,33.61 C41.5164624,33.4280558 41.8780558,33.0664624 42.06,32.61 C42.2359744,32.13147 42.2143877,31.6025969 42,31.14 C41.59434,30.5461416 41.0389139,30.0700621 40.39,29.76 L40.39,29.76 Z M20.32,27.63 L20.47,27.55 C20.8460079,27.3573129 21.0846103,26.9724704 21.09,26.55 C21.09,25.8 20.47,25.55 19.64,25.23 C18.9375366,24.9736632 18.2665475,24.6381687 17.64,24.23 C18.0343855,24.0889103 18.3505174,23.7873132 18.51,23.4 C18.630587,23.0664685 18.5860747,22.6955321 18.39,22.4 C18.2527175,22.1912007 18.0422352,22.0413658 17.8,21.98 C17.1402729,21.1996604 16.6040471,20.3228131 16.21,19.38 C16.9176624,19.0525944 17.6541451,18.7914778 18.41,18.6 C18.9484821,18.5430373 19.4927056,18.5768401 20.02,18.7 C20.94,18.85 21.81,18.99 22.3,18.25 C22.4364191,18.0466605 22.503098,17.8045109 22.49,17.56 C23.564412,17.5324497 24.5714753,18.0817569 25.13,19 C25.3396103,19.309455 25.6776219,19.5078531 26.05,19.54 C26.4120991,19.5660465 26.7702918,19.4514249 27.05,19.22 C27.93,20.59 29.65,23.48 28.41,25.29 C26.88,22.02 25.29,21.09 23.78,20.42 C23.4509014,20.2465733 23.0527359,20.2701586 22.7464128,20.4812245 C22.4400896,20.6922904 22.276244,21.0559478 22.3210903,21.4252329 C22.3659366,21.794518 22.6120618,22.1083882 22.96,22.24 C24.23,22.81 25.37,23.49 26.61,26.17 C26.6625262,26.2796014 26.7060043,26.3933134 26.74,26.51 C26.51,27.27 26.37,27.72 26.3,27.91 C25.5136231,28.6509012 24.4452612,29.0155298 23.37,28.91 C21.69,28.87 21.17,28.67 20.32,27.63 Z M38.77,34.55 L38.86,35.18 C39.0932015,36.2035518 39.0932015,37.2664482 38.86,38.29 C38.2122618,38.0084154 37.5435723,37.7777175 36.86,37.6 C36.4534119,37.4951638 36.0528213,37.3683101 35.66,37.22 C35.5586866,37.0271434 35.3971668,36.8726462 35.2,36.78 C34.8834576,36.6303743 34.5165424,36.6303743 34.2,36.78 C33.8336699,36.9971074 33.5786054,37.3614853 33.5,37.78 C32.8375867,37.2566654 32.2370374,36.6594711 31.71,36 C31.08,35.16 30.71,34.67 29.97,34.78 C29.5845392,34.8676231 29.2710973,35.1470773 29.14,35.52 L29.08,35.69 C27.92,34.99 27.66,34.5 27.37,32.86 C27.256982,31.816232 27.3246382,30.760795 27.57,29.74 C27.5795627,29.6469116 27.5795627,29.5530884 27.57,29.46 C27.6943112,29.3370689 27.8111851,29.206838 27.92,29.07 C27.9633043,29.0143174 28.0002033,28.9539373 28.03,28.89 C28.0954052,28.9113585 28.1622385,28.9280668 28.23,28.94 L28.23,28.94 C28.42,28.94 29.3,29.17 29.63,29.26 C32.85,30.26 35.06,33.6 35.3,33.98 C35.5000687,34.2836758 35.8469489,34.4575483 36.2099742,34.4361216 C36.5729995,34.4146949 36.8970177,34.2012241 37.0599742,33.8761216 C37.2229308,33.5510191 37.2000687,33.1636758 37,32.86 C36.54,32.14 34,28.45 30.21,27.3 L29.72,27.17 C30.3291172,26.1794174 31.4071329,25.5742156 32.57,25.57 C32.4549741,25.8416589 32.4549741,26.1483411 32.57,26.42 C32.7391535,26.7937161 33.1006303,27.0436735 33.51,27.07 C35.63,27.29 36.96,27.69 37.72,28.35 C37.4187314,28.7435054 37.336021,29.2623247 37.5,29.73 C37.8802866,30.4951198 38.5123642,31.1060104 39.29,31.46 C39.49,31.59 39.8,31.78 39.99,31.92 C39.0265849,32.4114788 38.5230153,33.497043 38.77,34.55 Z"/>
      <path id="Path" fill="#3D454C" fill-rule="nonzero" d="M55.34,11.38 C55.2126255,10.9926402 54.8743466,10.7126852 54.47,10.66 C54.0612058,10.536788 53.643204,10.4464996 53.22,10.39 C52.3784866,10.254269 51.5706645,9.95897267 50.84,9.52 C49.9867406,9.10286944 49.0583696,8.86142497 48.11,8.81 C48.1557358,8.69901732 48.2162856,8.59473705 48.29,8.5 C48.5014495,8.21994945 48.5506358,7.84955743 48.4196047,7.52402703 C48.2885736,7.19849664 47.9965005,6.96546691 47.65,6.91 C46.0574865,6.66302938 44.4314442,6.7412699 42.87,7.14 C42.8161643,6.87540015 42.7108336,6.62396562 42.56,6.4 C42.3472308,6.11136146 41.996203,5.95874069 41.64,6 C38.42,6.36 37.51,6.88 36.21,8.53 C36.1383515,8.31143951 35.9935511,8.12425853 35.8,8 C35.4069203,7.75677861 34.8983658,7.81466286 34.57,8.14 C34.4,8.31 34.21,8.48 33.99,8.67 C31.3170929,10.7766741 29.8695953,14.0766687 30.13,17.47 C30.13,18.0222847 30.5777153,18.47 31.13,18.47 C31.6822847,18.47 32.13,18.0222847 32.13,17.47 C31.9031632,15.0661907 32.7741193,12.6885171 34.5,11 C34.56,11.22 34.61,11.37 34.61,11.39 C34.7185666,11.7521404 35.0220827,12.022094 35.3944152,12.0876753 C35.7667476,12.1532566 36.1442336,12.0032522 36.37,11.7 L37.14,10.7 C38.51,8.75 38.78,8.38 41,8.08 C41.0643034,8.45171691 41.182198,8.81213777 41.35,9.15 C41.5121548,9.43943011 41.8072953,9.6295983 42.1378663,9.65764675 C42.4684374,9.68569521 42.791399,9.54797204 43,9.29 C43.26,8.95 44.61,8.73 46,8.77 C45.8746986,9.25876375 45.8746986,9.77123625 46,10.26 C46.0886662,10.5623547 46.314649,10.8052366 46.6098359,10.9154397 C46.9050227,11.0256428 47.2348849,10.9902763 47.5,10.82 C48.3110382,10.7672327 49.1216445,10.929354 49.85,11.29 C50.7736449,11.8325134 51.7915116,12.1955525 52.85,12.36 L53,12.36 C52.6529867,13.3248533 52.1679434,14.2343094 51.56,15.06 C50.9112049,15.9649124 49.9948326,16.6434476 48.94,17 C48.461751,16.984613 48.0303903,17.2857516 47.88,17.74 C47.6000047,18.61 48.47,19.24 48.88,19.51 C49.03,19.61 49.21,19.73 49.4,19.84 C48.6498318,20.6389929 47.6317362,21.1338016 46.54,21.23 C46.21,21.29 45.89,21.35 45.6000047,21.43 C45.274484,21.5237445 45.0185564,21.7759084 44.92,22.1 C44.8422074,22.3569978 44.8710371,22.6344833 45,22.87 L45,22.87 C45.0672744,23.1979136 45.1889552,23.5122556 45.36,23.8 C44.84,23.8 44.26,23.8 43.76,23.8 C42.7605673,23.7009081 41.7516949,23.8308646 40.81,24.18 C40.4061742,24.3979481 40.2025116,24.8627729 40.3160323,25.307396 C40.4295531,25.752019 40.8311196,26.0623173 41.29,26.0600129 C41.4575258,26.0608382 41.6225776,26.0195752 41.77,25.94 C42.4269115,25.8005479 43.1000667,25.7534271 43.77,25.8 C45.29,25.8 46.85,25.8 47.84,25.02 C48.081492,24.8291779 48.221658,24.5377803 48.22,24.23 C48.2168757,23.9187666 48.069011,23.6267338 47.82,23.44 C47.6658666,23.3222458 47.518936,23.1953512 47.38,23.06 C49.3303728,22.7108577 51.0178782,21.4976185 51.97,19.76 C52.2300858,19.3535144 52.1627799,18.8192742 51.81,18.49 C51.5986275,18.2891231 51.3101041,18.1905139 51.02,18.22 C51.8153967,17.6699164 52.5320078,17.013864 53.15,16.27 C53.9385487,15.1555793 54.5616731,13.9329083 55,12.64 L55.11,12.35 C55.3538547,12.0906533 55.4414515,11.7212234 55.34,11.38 Z"/>
      <circle id="Oval" cx="47.62" cy="14.32" r="1" fill="#3D454C" fill-rule="nonzero"/>
    </g>
  </g>
</svg>
