<svg xmlns="http://www.w3.org/2000/svg" width="64" height="64" viewBox="0 0 64 64" style="background:#fff">
  <g id="Broccoli" fill="none" fill-rule="evenodd" stroke="none" stroke-width="1">
    <rect width="64" height="64" fill="#FFF"/>
    <g transform="translate(2 4)">
      <rect id="Rectangle" width="60" height="60" x="0" y="0"/>
      <path id="Path" fill="#31E085" fill-rule="nonzero" d="M50.22,21.72 C49.7424689,16.0928632 46.4777373,11.0791183 41.5246381,8.36627596 C36.571539,5.65343359 30.5887727,5.60226787 25.59,8.23 C24.6395455,8.52692547 23.7188846,8.9119291 22.84,9.38 C21.5722781,10.0771973 20.4161214,10.9603257 19.41,12 C18.263623,12.3786044 17.1526926,12.8571075 16.09,13.43 C14.7279701,14.1650048 13.4617526,15.0651276 12.32,16.11 C9.02137425,17.7862234 6.64988756,20.8552062 5.86,24.47 C3.61,34.16 13,44.57 22.52,39.78 C22.52,42.53 22.46,45.25 22.41,48.09 C22.24,58 37,59.93 39.6,50.42 C40.4133333,47.4733333 41.2133333,44.5133333 42,41.54 L42.3,41.54 C46.3090485,41.9894326 50.2368594,40.1795589 52.5,36.84 C56.26,31.34 54.39,25.25 50.22,21.72 Z" opacity=".5"/>
      <path id="Shape" fill="#3D454C" fill-rule="nonzero" d="M52.24,26.58 C51.8720544,26.2081189 51.4548314,25.8884723 51,25.63 C50.7921928,25.5051243 50.591852,25.3682248 50.4,25.22 L50.4,25.15 C50.5740165,24.6342704 50.6913744,24.1011301 50.75,23.56 C50.9040014,21.6810723 50.2936144,19.8194557 49.0569872,18.3964873 C47.8203599,16.973519 46.0620452,16.1095063 44.18,16 C43.9996307,14.5125873 43.5199967,13.077087 42.77,11.78 C39.9539272,6.82391827 33.734769,4.96390071 28.66,7.56 C27.3154416,8.22449679 26.1209724,9.15693138 25.15,10.3 L24.15,10.18 C21.446145,9.93909709 18.7386082,10.600158 16.45,12.06 C14.3543055,13.3479391 12.990041,15.5500399 12.77,18 C12.7349411,18.385872 12.7349411,18.774128 12.77,19.16 C12.66,19.38 12.57,19.6 12.48,19.83 C12.105728,20.9358389 11.9594506,22.1060585 12.05,23.27 C9.3019509,23.7224756 7.09414675,25.7804644 6.45,28.49 C6.029362,30.1506644 6.27711594,31.9100765 7.14,33.39 C7.9455691,34.7256506 9.16855144,35.7588598 10.62,36.33 C10.839422,36.4292099 11.0669151,36.5095016 11.3,36.57 C12.754425,41.0084004 16.8993791,44.0071355 21.57,44 C22.5854734,44.0016558 23.5958765,43.8568313 24.57,43.57 L25.7,44.47 L25.7,53.47 C25.7,53.9891477 26.1208523,54.41 26.64,54.41 L39.76,54.41 C40.2791477,54.41 40.7,53.9891477 40.7,53.47 L40.7,47 C43.5663264,45.4767571 45.8663665,43.0715323 47.26,40.14 C47.34,39.94 47.42,39.74 47.49,39.54 C49.1944048,39.3227308 50.7795944,38.5494676 52,37.34 C54.9698648,34.4114296 55.0935322,29.6590677 52.28,26.58 L52.24,26.58 Z M17.5,13.58 C19.1822479,12.5151598 21.1393516,11.9659193 23.13,12 C23.39,12 23.66,12 23.92,12 C23.4599129,12.8690084 23.1233344,13.7979652 22.92,14.76 C20.2858163,13.9144725 17.4044225,14.4152595 15.21,16.1 C15.7524032,15.0937465 16.5400764,14.2407205 17.5,13.62 L17.5,13.58 Z M18.09,41.41 C16.0356569,40.5339236 14.3863163,38.916713 13.47,36.88 C14.202386,36.8496341 14.9250444,36.7010501 15.61,36.44 L22.67,42.05 C21.117134,42.2565626 19.5372563,42.0495917 18.09,41.45 L18.09,41.41 Z M38.89,43.72 C38.845866,43.8315247 38.822155,43.9500795 38.82,44.07 L38.82,52.48 L27.57,52.48 L27.57,44.08 C27.5988721,43.7680165 27.4669828,43.4627869 27.22,43.27 L17.39,35.5 L17.39,35.5 C17.8225225,35.1658686 18.2121364,34.7796134 18.55,34.35 L18.55,34.35 C19.6117224,34.8946541 20.7982301,35.1498912 21.99,35.09 L28.87,40.55 C29.1530875,40.7719605 29.538025,40.8128952 29.8614608,40.6554331 C30.1848966,40.4979709 30.3901035,40.1697291 30.39,39.81 L30.39,34.72 C31.5169097,34.511283 32.5708903,34.0152921 33.45,33.28 C33.8207008,32.9491281 34.1558502,32.5804637 34.45,32.18 C34.61,31.97 34.77,31.49 34.97,31.37 C35.17,31.25 35.51,31.37 35.97,31.46 L35.97,39.55 C35.9789295,39.9908457 36.2930846,40.366235 36.7254581,40.4527097 C37.1578315,40.5391844 37.5922014,40.3135001 37.77,39.91 L39.57,35.57 C40.0185276,36.4010076 40.6149681,37.1431693 41.33,37.76 L38.89,43.72 Z M24.29,34.47 C24.5,34.36 24.69,34.24 24.87,34.13 C25.72,33.62 25.75,33.87 26.59,34.24 C27.1985443,34.5099883 27.8470645,34.6788737 28.51,34.74 L28.51,37.82 L24.29,34.47 Z M37.88,31.82 C38.06,31.37 37.88,31.56 38.66,31.43 C38.640052,31.8742356 38.660133,32.3193651 38.72,32.76 L37.88,34.76 L37.88,32.94 C37.830042,32.5817332 37.830042,32.2182668 37.88,31.86 L37.88,31.82 Z M40.7,44.82 L40.7,44.3 L43,38.82 C43.7858151,39.2199548 44.6350849,39.4804878 45.51,39.59 C44.4349308,41.7645716 42.7676156,43.5913389 40.7,44.86 L40.7,44.82 Z M46.7,37.73 L45.96,37.73 L45.81,37.73 L45.67,37.73 C44.0078949,37.4750497 42.5290533,36.5343244 41.5936693,35.136952 C40.6582853,33.7395795 40.3522127,32.0138171 40.75,30.38 C41.22,28.54 38.59,29.64 37.9,29.7 C37.1663439,29.7744139 36.4253102,29.6856265 35.73,29.44 C34.82,29.12 34.3,28.7 33.73,29.77 C33.242359,30.9831888 32.3234747,31.9733044 31.15,32.55 C29.9159254,33.1197755 28.4940746,33.1197755 27.26,32.55 C26.67,32.27 26.26,31.81 25.58,31.89 C24.9945566,32.0217458 24.4428886,32.2737423 23.96,32.63 C23.6488723,32.835215 23.3128237,32.9998789 22.96,33.12 C21.7076967,33.4249934 20.3864334,33.2464443 19.26,32.62 L19.26,32.62 L19.13,32.55 L19.13,32.55 L19.13,32.55 L19.13,32.55 L19.05,32.5 L18.93,32.42 C18.717521,32.2716075 18.4532027,32.2175249 18.1995147,32.2705344 C17.9458266,32.3235438 17.7252802,32.4789414 17.59,32.7 C17.5626358,32.7568396 17.5291007,32.8104957 17.49,32.86 C17.0061668,33.6265437 16.3118382,34.2375528 15.49,34.62 C14.1875084,35.1793264 12.7124916,35.1793264 11.41,34.62 C9.11346523,33.7623394 7.823659,31.3203063 8.41,28.94 C8.88194887,26.7451335 10.7589649,25.1339259 13,25 C13.5097113,24.9890667 13.9155993,24.5697978 13.91,24.06 C13.91,23.78 13.91,23.51 13.91,23.25 C13.8211464,22.3019982 13.9266306,21.3458349 14.22,20.44 C14.8553923,18.798419 16.1275443,17.4834983 17.7472259,16.794192 C19.3669075,16.1048856 21.1964869,16.0997671 22.82,16.78 C22.43,16.61 22.57,17.55 22.58,17.9 C22.601563,18.5472111 22.668393,19.1921198 22.78,19.83 C23.0024454,21.2219076 23.5582468,22.5393629 24.4,23.67 C25.2943104,24.7981465 26.5231324,25.6138603 27.91,26 C28.75,26.25 31,26.9 31.53,25.85 C32.35,24.24 29.48,24.47 28.72,24.28 C27.3942847,23.9835459 26.2462588,23.160433 25.54,22 C24.4746063,19.9732157 24.1695546,17.6321209 24.68,15.4 C25.3001187,12.5804035 27.2282641,10.2258587 29.8702384,9.06196728 C32.5122127,7.89807585 35.5509498,8.06451758 38.05,9.51 C40.6623972,11.1183439 42.2898654,13.9335257 42.38,17 C42.3874686,17.2540237 42.4985652,17.4939258 42.6874611,17.6639321 C42.876357,17.8339384 43.1265958,17.9192381 43.38,17.9 C44.8816878,17.7562528 46.3691993,18.290033 47.4368734,19.3557729 C48.5045475,20.4215128 49.0410241,21.9080541 48.9,23.41 C48.8641527,23.8021367 48.7801884,24.1883723 48.65,24.56 C48.6171839,24.6530241 48.5770587,24.7433059 48.53,24.83 C48.2317043,25.3483052 48.3643953,26.0074799 48.84,26.37 L48.84,26.37 C49.1754083,26.702939 49.5517543,26.991919 49.96,27.23 C50.2606969,27.4063038 50.5393258,27.6177933 50.79,27.86 C52.3451756,29.5723079 52.7648862,32.0316838 51.8656291,34.1628586 C50.9663721,36.2940334 48.9117232,37.7093443 46.6,37.79 L46.7,37.73 Z"/>
      <path id="Path" fill="#3D454C" fill-rule="nonzero" d="M34.27,23.82 C33.7508523,23.82 33.33,24.2408523 33.33,24.76 C33.33,25.2791477 33.7508523,25.7 34.27,25.7 C34.7891476,25.7 35.2099999,25.2791476 35.2099999,24.76 C35.2099999,24.2408524 34.7891476,23.82 34.27,23.82 L34.27,23.82 Z"/>
    </g>
  </g>
</svg>
