<svg xmlns="http://www.w3.org/2000/svg" width="64" height="64" viewBox="0 0 64 64" style="background:#fff">
  <g id="Brötchen" fill="none" fill-rule="evenodd" stroke="none" stroke-width="1">
    <rect width="64" height="64" fill="#FFF"/>
    <g transform="translate(2 4)">
      <rect id="Rectangle" width="60" height="60" x="0" y="0"/>
      <path id="Path" fill="#E0A075" fill-rule="nonzero" d="M57.89,29.19 C53.81,15.51 38.89,10.82 26.45,15.41 C25.1740801,15.8145179 24.1682123,16.8042847 23.7431597,18.0735114 C23.3181072,19.3427382 23.5250302,20.7386577 24.3,21.83 C26.25,24.44 30.25,24.34 32.94,23.34 C39.21,21.02 44.12,26.27 45.79,31.88 C47.46,37.49 59.81,35.64 57.89,29.19 Z" opacity=".5"/>
      <path id="Path" fill="#D4BA39" fill-rule="nonzero" d="M36.63,42.66 C36.5242965,42.3885452 36.3937418,42.1274357 36.24,41.88 C36.7976039,40.1548164 36.1498618,38.2686241 34.65,37.25 C33.4072184,36.2741915 32.0667373,35.4296884 30.65,34.73 L31.21,34.53 C33.33,33.75 34.93,31.35 34.1,29.12 C33.16,26.58 30.1,25.92 27.77,25.74 L26.07,25.62 C25.81,22.62 22.07,21.22 19.51,21.3 C14.1996103,21.453253 9.02438212,23.0092716 4.51,25.81 C2.79696966,26.9453009 2.25517875,29.212958 3.27,31 C4.16675045,32.3918678 5.62890157,33.3203338 7.27,33.54 C6.36431068,34.5964187 6.08303082,36.0522321 6.53,37.37 C7.18626689,38.8628541 8.51685934,39.9518586 10.11,40.3 C8.55983806,41.4018042 7.87427559,43.3622723 8.4,45.19 C10.49,53.46 26.73,50.27 32.2,48.56 C34.79,47.77 37.74,45.83 36.63,42.66 Z" opacity=".5"/>
      <path id="Path" fill="#3D454C" fill-rule="nonzero" d="M37.92 18.93L37.74 18.84C37.6833144 18.8111678 37.6226478 18.7909456 37.56 18.78 37.364999 18.7419385 37.1630801 18.7628267 36.98 18.84 36.8588151 18.8906419 36.7472009 18.9616691 36.65 19.05 36.5573973 19.1438689 36.4858142 19.2563566 36.44 19.38 36.3330232 19.6220399 36.3330232 19.8979601 36.44 20.14 36.5309238 20.3912303 36.7287697 20.5890762 36.98 20.68 37.2220399 20.7869768 37.4979601 20.7869768 37.74 20.68 37.9912303 20.5890762 38.1890762 20.3912303 38.28 20.14 38.3359814 20.0213206 38.3633801 19.8911765 38.36 19.76 38.3563165 19.495233 38.2527337 19.2416338 38.07 19.05L37.92 18.93zM41.78 17.36L41.69 17.19C41.6547312 17.1335435 41.6108705 17.082935 41.56 17.04 41.1699625 16.6522764 40.5400375 16.6522764 40.15 17.04 40.0991295 17.082935 40.0552688 17.1335435 40.02 17.19L39.93 17.36C39.9242581 17.4232032 39.9242581 17.4867968 39.93 17.55 39.9203948 17.6129692 39.9203948 17.6770308 39.93 17.74 39.93158 17.8706773 39.958759 17.9997777 40.01 18.12 40.0619181 18.2428617 40.1365577 18.3548211 40.23 18.45 40.5153076 18.7372053 40.9456298 18.8240593 41.32 18.67 41.4400175 18.6182811 41.5487336 18.5435387 41.64 18.45 41.7367039 18.3575129 41.8118211 18.2448371 41.86 18.12 41.911241 17.9997777 41.93842 17.8706773 41.94 17.74 41.9448989 17.6767614 41.9448989 17.6132386 41.94 17.55 41.8942972 17.480615 41.8405953 17.4168439 41.78 17.36zM44.08 20.67C43.8455559 20.4322712 43.5079318 20.3272326 43.18 20.39 43.1141297 20.4008379 43.0501484 20.4210426 42.99 20.45 42.9303129 20.4739099 42.873328 20.5040784 42.82 20.54 42.7655055 20.5778581 42.7152192 20.6214396 42.67 20.67 42.5764613 20.7612664 42.5017189 20.8699825 42.45 20.99 42.4021842 21.1109113 42.3784071 21.2399871 42.38 21.37 42.3770869 21.5033677 42.4008873 21.6359703 42.45 21.76 42.5574516 22.0002936 42.7497064 22.1925484 42.99 22.3 43.1140297 22.3491127 43.2466323 22.3729131 43.38 22.37 43.5100129 22.3715929 43.6390887 22.3478158 43.76 22.3 44.0002936 22.1925484 44.1925484 22.0002936 44.3 21.76 44.3525365 21.6366759 44.3797423 21.504048 44.38 21.37 44.3771334 21.2426981 44.3499803 21.1171151 44.3 21 44.2530523 20.8745288 44.1777627 20.7615945 44.08 20.67zM49.1 21.52C49.0801725 21.455431 49.0497587 21.3946034 49.01 21.34 48.9730793 21.2876125 48.9330052 21.2375199 48.89 21.19 48.7022334 21.0006873 48.4466375 20.8942017 48.18 20.8942017 47.9133625 20.8942017 47.6577666 21.0006873 47.47 21.19 47.2828135 21.3787188 47.1784632 21.634197 47.1799833 21.9 47.1816958 22.3044441 47.4268472 22.6680455 47.8011476 22.8212679 48.175448 22.9744903 48.6051909 22.8871614 48.89 22.6 48.9835387 22.5087336 49.0582811 22.4000175 49.11 22.28 49.1578158 22.1590887 49.1815929 22.0300129 49.18 21.9 49.1898575 21.8336977 49.1898575 21.7663023 49.18 21.7 49.1627817 21.6362312 49.1357955 21.5755122 49.1 21.52L49.1 21.52zM39.93 37.39C39.9843572 37.5115321 40.0587232 37.623081 40.15 37.72 40.5400375 38.1077236 41.1699625 38.1077236 41.56 37.72 41.7508556 37.5329286 41.8588906 37.2772459 41.86 37.01 41.8588906 36.7427541 41.7508556 36.4870714 41.56 36.3 41.1699625 35.9122764 40.5400375 35.9122764 40.15 36.3 39.9591444 36.4870714 39.8511094 36.7427541 39.85 37.01 39.85158 37.1406773 39.878759 37.2697777 39.93 37.39zM38.91 34.85C39.0406773 34.84842 39.1697777 34.821241 39.29 34.77 39.6634255 34.6165964 39.9079849 34.2537019 39.91 33.85 39.9133801 33.7188235 39.8859814 33.5886794 39.83 33.47 39.7841858 33.3463566 39.7126027 33.2338689 39.62 33.14 39.5248963 33.0489594 39.4127513 32.9775944 39.29 32.93 39.0485051 32.8204725 38.7714949 32.8204725 38.53 32.93 38.4088151 32.9806419 38.2972009 33.0516691 38.2 33.14 38.1073973 33.2338689 38.0358142 33.3463566 37.99 33.47 37.938759 33.5902223 37.91158 33.7193227 37.91 33.85 37.91 34.4022847 38.3577153 34.85 38.91 34.85L38.91 34.85zM35.32 25.89L35.17 25.76 35 25.67 34.82 25.62C34.6917153 25.5901343 34.5582847 25.5901343 34.43 25.62L34.24 25.67 34.07 25.76 33.91 25.89C33.820049 25.9821504 33.7487431 26.090807 33.7 26.21 33.6474635 26.3333241 33.6202577 26.465952 33.62 26.6 33.6216568 26.9325847 33.7885567 27.2425818 34.0652874 27.4270689 34.342018 27.611556 34.6923615 27.6463879 35 27.52 35.1248371 27.4718211 35.2375129 27.3967039 35.33 27.3 35.5147442 27.1137394 35.6188954 26.8623399 35.62 26.6 35.6197423 26.465952 35.5925365 26.3333241 35.54 26.21 35.4882811 26.0899825 35.4135387 25.9812664 35.32 25.89zM44.47 37.28C44.6587188 37.4671865 44.914197 37.5715368 45.18 37.57 45.3100129 37.5715929 45.4390887 37.5478158 45.56 37.5 45.7934567 37.402424 45.9847806 37.2252723 46.1 37 46.1491127 36.8759703 46.1729131 36.7433677 46.17 36.61 46.1715929 36.4799871 46.1478158 36.3509113 46.1 36.23 45.9711397 35.9225076 45.6975097 35.6994596 45.3703531 35.6352326 45.0431965 35.5710055 44.7055487 35.674048 44.47 35.91 44.3734936 35.9987289 44.298287 36.1081203 44.25 36.23 44.2021842 36.3509113 44.1784071 36.4799871 44.18 36.61 44.1770869 36.7433677 44.2008873 36.8759703 44.25 37 44.3032441 37.1075032 44.3781461 37.202833 44.47 37.28L44.47 37.28zM34.53 23.09C34.6265064 23.0012711 34.701713 22.8918797 34.75 22.77 34.801241 22.6497777 34.82842 22.5206773 34.83 22.39 34.8297423 22.255952 34.8025365 22.1233241 34.75 22 34.701713 21.8781203 34.6265064 21.7687289 34.53 21.68 34.1399625 21.2922764 33.5100375 21.2922764 33.12 21.68 33.0234936 21.7687289 32.948287 21.8781203 32.9 22 32.8508873 22.1240297 32.8270869 22.2566323 32.83 22.39 32.8284071 22.5200129 32.8521842 22.6490887 32.9 22.77 33.0074516 23.0102936 33.1997064 23.2025484 33.44 23.31 33.5602223 23.361241 33.6893227 23.38842 33.82 23.39 34.0872459 23.3888906 34.3429286 23.2808556 34.53 23.09L34.53 23.09zM32.93 18.89C32.9315368 18.624197 32.8271865 18.3687188 32.64 18.18 32.2499625 17.7922764 31.6200375 17.7922764 31.23 18.18 31.0428135 18.3687188 30.9384632 18.624197 30.9399833 18.89 30.940327 19.2912802 31.1804951 19.6535008 31.55 19.81 31.6733241 19.8625365 31.805952 19.8897423 31.94 19.89 32.4922847 19.89 32.94 19.4422847 32.94 18.89L32.93 18.89z"/>
      <path id="Shape" fill="#3D454C" fill-rule="nonzero" d="M56.22,26.49 C54.61,21.11 47.83,13.16 38.35,13.16 C28.87,13.16 24.62,17.16 22.68,20.58 C21.9184003,20.4369147 21.1449168,20.366598 20.37,20.37 C17.469885,20.2567279 14.6016103,21.0086058 12.13,22.53 C9.13436878,22.9475384 6.45800772,24.620264 4.77,27.13 C3.12036356,29.3971836 2.47991326,32.2448355 3,35 C2.44665816,38.3781918 3.3799692,41.8307135 5.56,44.47 C8.35,47.69 12.95,49.32 19.26,49.32 C26.81,49.32 32.07,47.72 34.89,44.57 C35.4513298,43.9379525 35.9224676,43.2312458 36.29,42.47 C37.3618624,42.639789 38.4448189,42.7300353 39.53,42.74 C48.3,42.74 50.06,41.16 51.13,39.5 C51.7132068,38.4633718 51.8048296,37.2209672 51.38,36.11 C50.826297,34.6731968 49.605238,33.5977686 48.11,33.23 C45.142378,32.1796083 42.285286,30.8398231 39.58,29.23 C39.2218538,29.016915 38.9875754,28.6450446 38.95,28.23 C38.95,28.18 38.95,28.04 39.34,27.93 C41.9973679,27.3482269 44.770182,28.1238655 46.74,30 C47,30.29 47.28,30.63 47.59,31 C49.13,32.82 51.04,35.09 52.97,35.2 C54.0447032,35.2501429 55.0718853,34.7534834 55.7,33.88 C56.44,33 57.49,30.76 56.22,26.49 Z M25.34,25.23 C25.2762119,26.1987591 24.7852506,27.0890844 24,27.66 C22.8694196,28.5266242 21.4737954,28.9753439 20.05,28.93 C17.98,28.93 16.7,28.69 16.25,28.22 C16.0923044,28.04284 16.0225489,27.8042028 16.06,27.57 C16.06,27.16 18.19,26.27 20.38,26.27 C20.9322847,26.27 21.38,25.8222847 21.38,25.27 C21.38,24.7177153 20.9322847,24.27 20.38,24.27 C18.79,24.27 14.21,24.86 14.07,27.46 C13.9981977,28.2416449 14.2638337,29.0167199 14.8,29.59 C15.92,30.77 18.08,30.93 20.05,30.93 C24.59,30.93 27.3,28.03 27.3,25.23 C27.2976368,24.9614597 27.2708599,24.6936906 27.22,24.43 C29.0577036,24.9932637 30.4585633,26.4892905 30.9,28.36 C30.8951295,29.9638738 30.2718832,31.5040802 29.16,32.66 C27.28,34.66 24.07,35.66 19.62,35.66 C13.62,35.66 10.5,32.24 10.5,28.87 C10.5265965,27.1313101 11.3622331,25.5044069 12.76,24.47 C14.9780914,22.9418416 17.6404825,22.1927144 20.33,22.34 C23.39,22.37 25.34,23.49 25.34,25.23 Z M33.42,43.23 C31,45.94 26.24,47.31 19.28,47.31 C13.58,47.31 9.48,45.91 7.1,43.16 C5.93585095,41.7749223 5.20545834,40.077629 5,38.28 C6.81,40.34 10,42.61 15.73,43.4 L15.87,43.4 C16.2272656,43.4232223 16.5697815,43.2540816 16.7685254,42.9562917 C16.9672693,42.6585017 16.9920471,42.2773039 16.8335254,41.9562917 C16.6750037,41.6352794 16.3572656,41.4232223 16,41.4 C8.24,40.32 5.74,36.34 5,34.6 C4.57730828,32.3734787 5.09493591,30.0713026 6.43,28.24 C7.20516209,27.1100167 8.23213334,26.1754728 9.43,25.51 C8.87766603,26.54737 8.58917922,27.7047516 8.59,28.88 C8.59,33.14 12.49,37.67 19.71,37.67 C24.76,37.67 28.48,36.42 30.71,33.97 C31.7860802,32.8075767 32.5137539,31.3660896 32.81,29.81 C34.6846071,31.0349326 35.6607693,33.2499191 35.3,35.46 C34.76,38.11 30.57,40.27 24.07,41.25 C23.5273364,41.3323117 23.1524397,41.8366369 23.23,42.38 C23.3002496,42.8770163 23.728068,43.2449401 24.23,43.24 L24.38,43.24 C27.02,42.84 32.38,41.74 35.29,39.11 C35.2090296,39.6691023 35.0716625,40.2185707 34.88,40.75 C34.7960155,40.8663014 34.7380369,40.9993112 34.71,41.14 C34.71,41.14 34.71,41.14 34.71,41.14 C34.3947167,41.8951925 33.9590631,42.5942645 33.42,43.21 L33.42,43.23 Z M54.13,32.67 C53.9093162,33.0100516 53.535249,33.2195292 53.13,33.23 C52.05,33.17 50.24,31.02 49.13,29.74 C48.81,29.36 48.51,29 48.23,28.74 C45.9499774,26.4409224 42.7137881,25.3609556 39.51,25.83 C39.8845724,25.4212859 40.3716745,25.132504 40.91,25 C41.2689226,24.9258173 41.558506,24.6612297 41.6647,24.3104429 C41.7708941,23.9596562 41.6766818,23.5788818 41.419168,23.3180846 C41.1616542,23.0572874 40.782104,22.9582586 40.43,23.06 C39.2774198,23.2834248 38.263652,23.9622332 37.6180715,24.9428379 C36.9724911,25.9234426 36.7496614,27.1229646 37,28.27 C37.0644684,29.3446027 37.645977,30.3212389 38.56,30.89 C41.413952,32.5891594 44.4285462,34.0026691 47.56,35.11 C48.4549753,35.3027498 49.2006873,35.9179621 49.56,36.76 C49.7707391,37.2986241 49.7453365,37.9010297 49.49,38.42 C48.97,39.22 48.01,40.71 39.59,40.71 C38.7234133,40.7040529 37.8581773,40.64058 37,40.52 C37.3799388,38.9290652 37.4680325,37.28239 37.26,35.66 C37.7128739,32.2500251 35.8928861,28.9424305 32.77,27.5 C31.71,23.65 27.87,22.25 25.83,22.03 C25.46223,21.7007663 25.0477346,21.4278059 24.6,21.22 C26.37,18.32 30.16,15.16 38.33,15.16 C47.09,15.16 53.04,22.91 54.28,27.06 C55.36,30.6 54.53,32.16 54.13,32.67 Z"/>
      <circle id="Oval" cx="19.91" cy="42.65" r="1" fill="#3D454C" fill-rule="nonzero"/>
    </g>
  </g>
</svg>
