<svg xmlns="http://www.w3.org/2000/svg" width="64" height="64" viewBox="0 0 64 64" style="background:#fff">
  <g id="Brombeeren" fill="none" fill-rule="evenodd" stroke="none" stroke-width="1">
    <rect width="64" height="64" fill="#FFF"/>
    <g transform="translate(2 6)">
      <rect id="Rectangle" width="60" height="60" x="0" y="0"/>
      <g id="Group" fill="#4885E0" fill-rule="nonzero" opacity=".5" transform="translate(10 12)">
        <path id="Path" d="M44.51,25.68 C42.3581861,22.2702865 38.5371296,20.2833372 34.51,20.48 C30.0997438,20.6939875 26.2966937,23.6492494 25,27.87 C23.486904,33.1666861 26.1829661,38.7566073 31.27,40.87 C33.2343666,41.9192796 35.5309122,42.1596993 37.67,41.54 C39.7493305,40.9675992 41.6268631,39.8244521 43.09,38.24 C46.2839272,34.8257811 46.8610466,29.7211188 44.51,25.68 L44.51,25.68 Z"/>
        <path id="Path" d="M31,17.83 C33.5929604,12.3118263 31.6358243,5.72638595 26.45,2.52 C21.25,-0.76 13.55,0.25 10.71,6.13 C10.3176258,6.94780173 10.0544968,7.82152478 9.93,8.72 C9.72458333,9.20623818 9.55740957,9.70775945 9.43,10.22 C8.74717371,13.2902893 9.31191525,16.5060787 11,19.16 C8.11394122,19.2850025 5.37859122,20.4832784 3.33,22.52 C0.570280772,25.4357843 -0.421217904,29.6038922 0.73,33.45 C-0.260204413,35.8866058 0.320609219,38.6800428 2.2,40.52 C6.20829895,44.1510484 12.0359886,44.9455528 16.87,42.52 C21.0717824,40.3478643 23.7076789,36.01002 23.7,31.28 C23.7503334,28.8230896 23.018432,26.4137681 21.61,24.4 C25.6464059,23.9303104 29.1755347,21.4610477 31,17.83 L31,17.83 Z"/>
      </g>
      <path id="Path" fill="#31E085" fill-rule="nonzero" d="M55.36 8.13C55.1994462 7.57117163 54.7918553 7.11662017 54.253772 6.89631795 53.7156887 6.67601574 53.1063547 6.7142175 52.6 7 49.31 9.14 47.6 12.61 45.94 16 44.15 19.6 41.94 23.4 43.94 27.29 44.7477007 28.6789047 46.3953298 29.3420754 47.94 28.9 52.05 27.37 53.03 23.36 54.14 19.46 55.19 15.79 56.37 12 55.36 8.13zM16.2 28C15.89 26.35 9.2 14.86 6.94 16.52 4.68 18.18 5.29 21.27 5.73 23.52 6.33 26.64 8.09 30.52 11.13 31.9 12.34587 32.5591962 13.8358988 32.4405701 14.9321524 31.5972981 16.028406 30.7540262 16.5252639 29.3442779 16.2 28z" opacity=".5"/>
      <path id="Path" fill="#3D454C" fill-rule="nonzero" d="M50.13,15.24 C50.625306,14.9967448 50.8299548,14.3982561 50.5872942,13.9026586 C50.3446335,13.4070611 49.7463908,13.2016942 49.2505025,13.4437599 C48.7546141,13.6858257 48.5485295,14.2838215 48.79,14.78 C48.9063297,15.0190365 49.1130506,15.2019154 49.3644883,15.2882298 C49.6159259,15.3745442 49.8913838,15.3571894 50.13,15.24 L50.13,15.24 Z"/>
      <path id="Path" fill="#3D454C" fill-rule="nonzero" d="M41.43 16.66C44.5257255 12.4609978 48.7542844 9.23147494 53.62 7.35 54.7851095 14.5626723 52.9137364 21.9359548 48.45 27.72 47.67 28.72 49.07 30.15 49.86 29.14 55.02637 22.5036718 57.0420386 13.9443834 55.38 5.7 55.3098876 5.44395827 55.1408445 5.22630209 54.9101234 5.09499743 54.6794024 4.96369277 54.4059398 4.92951642 54.15 5 48.3536986 6.98659714 43.3088631 10.7082543 39.7 15.66 38.94 16.69 40.67 17.69 41.43 16.66zM10 29.35C7.68150375 25.7315158 6.23674593 21.6231997 5.78 17.35 9.51546799 17.7461174 13.1317402 18.8959763 16.41 20.73 17.54 21.36 18.55 19.63 17.41 19 13.474895 16.8085215 9.10388855 15.5142938 4.61 15.21 4.05771525 15.21 3.61 15.6577153 3.61 16.21 3.93980289 21.2393152 5.52847584 26.105056 8.23 30.36 8.92 31.44 10.65 30.44 10 29.35z"/>
      <path id="Shape" fill="#3D454C" fill-rule="nonzero" d="M43.35,29.14 C43.6351416,25.5262252 42.4112535,21.9556819 39.9691346,19.2767401 C37.5270158,16.5977982 34.0846674,15.0495996 30.46,15 C26.7846531,15.0516353 23.2995168,16.6426733 20.85291,19.3858386 C18.4063031,22.1290039 17.2226267,25.7726953 17.59,29.43 C11.73,30.16 6.46,34.56 6.46,42 C6.46,55.41 23.69,59 30.46,48.8 C32.8093755,52.6281903 36.9684696,54.9724071 41.46,55 C48.82,55 54.08,49.06 54.46,42 C54.1,35.54 49.7,30.07 43.35,29.14 Z M30.46,17 C37.15,17 41.64,22.73 41.37,29 C36.9090006,29.0528938 32.7867281,31.3896033 30.45,35.19 C28.0225217,31.5550643 23.9508702,29.3600434 19.58,29.33 C19.13,22.92 23.65,17 30.46,17 Z M8.46,42 C8.46,30 24.09,27.64 29.38,37.31 C28.1659842,40.3222816 28.1659842,43.6877184 29.38,46.7 C24.08,56.35 8.46,53.94 8.46,42 Z M31.46,46.75 C31.4422401,46.5394131 31.3582205,46.3398666 31.22,46.18 C30.6718328,44.6802669 30.4369969,43.0840631 30.53,41.49 C30.5858012,40.1866097 30.8491078,38.9004583 31.31,37.68 C31.3766727,37.5832519 31.4241957,37.474628 31.45,37.36 C35.48,27.82 51.79,29.8 52.46,42 C51.79,54.34 35.53,55.83 31.41,46.73 L31.46,46.75 Z"/>
      <path id="Path" fill="#3D454C" fill-rule="nonzero" d="M46.46,41 L46.46,38.44 C46.46,37.8877153 46.0122847,37.44 45.46,37.44 C44.9077153,37.44 44.46,37.8877153 44.46,38.44 L44.46,41 L41.46,41 C40.9077153,41 40.46,41.4477153 40.46,42 C40.46,42.5522847 40.9077153,43 41.46,43 L44.46,43 L44.46,46 C44.46,46.5522847 44.9077153,47 45.46,47 C46.0122847,47 46.46,46.5522847 46.46,46 L46.46,43 L49.46,43 C50.0122847,43 50.46,42.5522847 50.46,42 C50.46,41.4477153 50.0122847,41 49.46,41 L46.46,41 Z"/>
      <path id="Shape" fill="#3D454C" fill-rule="nonzero" d="M18.05 44.81L20.17 42.69C20.5593607 42.2978778 20.5571221 41.6643608 20.165 41.275 19.7728778 40.8856393 19.1393608 40.8878779 18.75 41.28 18.05 41.99 17.34 42.69 16.63 43.4L16.63 43.4C15.93 42.69 15.22 41.99 14.51 41.28 14.1132397 40.9402232 13.5218058 40.9630677 13.1524368 41.3324368 12.7830677 41.7018058 12.7602232 42.2932397 13.1 42.69L15.22 44.81 13.1 46.94C12.7602232 47.3367603 12.7830677 47.9281942 13.1524368 48.2975632 13.5218058 48.6669323 14.1132397 48.6897768 14.51 48.35L16.63 46.23 16.63 46.23 18.75 48.35C19.0018722 48.6036586 19.369937 48.7036765 19.7155479 48.612378 20.0611588 48.5210796 20.3318093 48.2523351 20.4255479 47.907378 20.5192866 47.562421 20.4218722 47.1936586 20.17 46.94L18.05 44.81zM16.63 44.87L16.58 44.81 16.63 44.76 16.69 44.81 16.63 44.87zM26.21 25.16L26.21 25.16 24.09 27.28C23.8381278 27.5336586 23.7407134 27.902421 23.8344521 28.247378 23.9281907 28.5923351 24.1988412 28.8610796 24.5444521 28.952378 24.890063 29.0436765 25.2581278 28.9436586 25.51 28.69 26.21 27.98 26.92 27.28 27.63 26.57L29.75 28.69C30.1467603 29.0297768 30.7381942 29.0069323 31.1075632 28.6375632 31.4769323 28.2681942 31.4997768 27.6767603 31.16 27.28 30.46 26.57 29.75 25.86 29.04 25.16L29.04 25.16 31.16 23C31.4997768 22.6032397 31.4769323 22.0118058 31.1075632 21.6424368 30.7381942 21.2730677 30.1467603 21.2502232 29.75 21.59L27.63 23.71 25.51 21.59C25.1206392 21.1978779 24.4871222 21.1956393 24.095 21.585 23.7028779 21.9743608 23.7006393 22.6078778 24.09 23L26.21 25.16zM27.63 25.1L27.68 25.16 27.63 25.21 27.57 25.16 27.63 25.1z"/>
      <path id="Path" fill="#3D454C" fill-rule="nonzero" d="M46.69 17.72C45.94 19.04 45.2 20.37 44.46 21.72 43.83 22.85 45.56 23.86 46.19 22.72L48.41 18.72C48.6211896 18.2527084 48.4446812 17.7013987 48.001363 17.4436556 47.5580449 17.1859125 46.9916091 17.3052779 46.69 17.72zM9.25 22.27L14.25 27.27C14.6467603 27.6097768 15.2381942 27.5869323 15.6075632 27.2175632 15.9769323 26.8481942 15.9997768 26.2567603 15.66 25.86 14 24.1933333 12.3333333 22.5266667 10.66 20.86 10.2632397 20.5202232 9.67180583 20.5430677 9.30243678 20.9124368 8.93306773 21.2818058 8.9102232 21.8732397 9.25 22.27L9.25 22.27z"/>
    </g>
  </g>
</svg>
