<svg xmlns="http://www.w3.org/2000/svg" width="64" height="64" viewBox="0 0 64 64" style="background:#fff">
  <g id="Brot" fill="none" fill-rule="evenodd" stroke="none" stroke-width="1">
    <rect width="64" height="64" fill="#FFF"/>
    <g transform="translate(2 4)">
      <rect id="Rectangle" width="60" height="60" x="0" y="0"/>
      <path id="Path" fill="#D4BA39" fill-rule="nonzero" d="M55.73,31.56 C55.66,28.56 51.95,27.56 49.07,28.19 C48.269685,28.1527713 47.4701565,28.2786545 46.72,28.56 C41.243031,30.6130993 35.5329271,31.9801653 29.72,32.63 C28.3,32.8 25.78,34.45 26.11,36.22 C27.0070302,40.9338036 27.3427008,45.7372494 27.11,50.53 C26.96,53.72 31.37,54.21 33.5,53.94 C39.9163514,53.1429912 46.2439731,51.7468969 52.4,49.77 C54.05,49.24 56.06,48.23 56.01,46.18 C55.93,41.3133333 55.8366667,36.44 55.73,31.56 Z" opacity=".5"/>
      <path id="Path" fill="#D4BA39" fill-rule="nonzero" d="M57.35,16.65 C52.05,5.28 36,6 25.9,7.78 C24.895332,7.90487967 23.9601374,8.35841387 23.24,9.07 C21.688396,9.00461069 20.1999921,9.68927649 19.24,10.91 C18.6339307,11.7865803 18.4961227,12.9045968 18.8711888,13.902113 C19.2462549,14.8996292 20.0865333,15.6498852 21.12,15.91 C25.2839975,17.1534186 27.8065805,21.3736434 26.93,25.63 C26.18,29.37 30.28,30.37 33.16,30.02 C40.19,29.12 63.56,30 57.35,16.65 Z" opacity=".5"/>
      <path id="Shape" fill="#3D454C" fill-rule="nonzero" d="M55.54,25.94 C56.8270474,24.2756496 57.5110276,22.2237087 57.48,20.12 C57.48,13.94 49.79,9.6 42.71,8.2 C42.43,8.14 42.09,8.09 41.71,8.05 C39.9323508,7.86260149 38.1408411,7.84585841 36.36,8 L14.29,10 L14.07,10 C11.4547198,9.91649304 8.8784847,10.6505627 6.7,12.1 C4.81447337,13.3876209 3.6905714,15.5267809 3.69994114,17.81 C3.7677551,20.0727573 4.40766182,22.2814677 5.56,24.23 C5.62838588,24.3511474 5.67572414,24.4830182 5.7,24.62 L5.87,48.8 C5.86284408,49.2921797 6.21492416,49.7163726 6.7,49.8 L28.62,53.43 C29.0710323,53.5210746 29.529869,53.567963 29.99,53.57 C30.2843525,53.57 30.5783605,53.5498718 30.87,53.51 C31.78,53.4 33.24,53.12 35.44,52.69 C39.28,51.95 45.08,50.83 53.11,49.62 C54.5492935,49.351797 55.5847757,48.0838596 55.56,46.62 L55.42,26.3 C55.4122051,26.1690319 55.4551832,26.0400976 55.54,25.94 Z M36.54,9.94 C38.1885011,9.80674746 39.8459261,9.83018579 41.49,10.01 C41.81,10.01 42.09,10.09 42.33,10.14 C48.84,11.43 55.45,15.27 55.49,20.14 C55.516257,21.7170922 55.0399396,23.2616215 54.13,24.55 C54.0746838,24.6053626 54.02448,24.6656072 53.98,24.73 L31.42,28.6 C32.2302354,27.1039349 32.6595443,25.4313474 32.67,23.73 C32.67,18.89 27.76,13.73 21.43,11.33 L36.54,9.94 Z M52.81,47.62 C44.74,48.84 38.92,50 35.06,50.71 C33.06,51.09 31.64,51.37 30.76,51.49 L30.71,44.14 C30.71,43.5877153 30.2622847,43.14 29.71,43.14 L29.71,43.14 C29.1577153,43.14 28.71,43.5877153 28.71,44.14 L28.76,51.39 L7.86,48 L7.69,24.61 C7.6683036,24.0820632 7.50228669,23.5701778 7.21,23.13 C6.27599364,21.503984 5.75414528,19.6740815 5.68996233,17.8 C5.68354365,16.1572804 6.5073725,14.622476 7.88,13.72 C8.94582853,12.9753046 10.1603582,12.4703878 11.44,12.24 L14.38,12 C15.4784825,12.0152214 16.5731798,12.1323908 17.65,12.35 C24.55,13.72 30.65,19.06 30.65,23.78 C30.6728713,25.348892 30.2004755,26.885053 29.3,28.17 C28.8357035,28.6491493 28.580373,29.2928698 28.59,29.96 L28.59,36.22 C28.59,36.7722847 29.0377153,37.22 29.59,37.22 L29.59,37.22 C30.1422847,37.22 30.59,36.7722847 30.59,36.22 L30.59,30.81 L53.4,26.89 L53.54,46.67 C53.5342854,47.1135202 53.2370937,47.5002764 52.81,47.62 Z"/>
      <circle id="Oval" cx="15.06" cy="24.58" r="1" fill="#3D454C" fill-rule="nonzero"/>
      <circle id="Oval" cx="20.26" cy="32.05" r="1" fill="#3D454C" fill-rule="nonzero"/>
      <circle id="Oval" cx="23.06" cy="23.65" r="1" fill="#3D454C" fill-rule="nonzero"/>
      <circle id="Oval" cx="11.66" cy="32.45" r="1" fill="#3D454C" fill-rule="nonzero"/>
      <circle id="Oval" cx="15.59" cy="40.58" r="1" fill="#3D454C" fill-rule="nonzero"/>
      <circle id="Oval" cx="29.71" cy="40.2" r="1" fill="#3D454C" fill-rule="nonzero"/>
    </g>
  </g>
</svg>
