<svg xmlns="http://www.w3.org/2000/svg" width="64" height="64" viewBox="0 0 64 64" style="background:#fff">
  <g id="Brunnenkresse" fill="none" fill-rule="evenodd" stroke="none" stroke-width="1">
    <rect width="64" height="64" fill="#FFF"/>
    <g transform="translate(2 4)">
      <rect id="Rectangle" width="60" height="60" x="0" y="0"/>
      <path id="Path" fill="#31E085" fill-rule="nonzero" d="M29.56 23.17C27.9158043 31.3487336 27.0121483 39.659022 26.86 48 26.79 51.88 34.79 51.78 34.86 47.86 34.9759049 40.0459789 35.7925105 32.2581051 37.3 24.59 38.13 20.45 30.28 19.56 29.56 23.17zM22.33 34.24C23.4162669 33.1607594 23.5154039 31.4366367 22.56 30.24 20.92 28.24 17.91 28.24 15.7 29.05 13.08 30 10.4 31.3 8.87 33.74 7.0658368 36.339625 7.55728424 39.8884844 10 41.9 12.9405549 44.2393112 17.080562 44.3293113 20.12 42.12 22.55 40.17 22.96 37.38 22.4 34.5 22.3825337 34.4118593 22.3591474 34.3249958 22.33 34.24z" opacity=".5"/>
      <path id="Path" fill="#31E085" fill-rule="nonzero" d="M29.35 15.78C29.1824739 15.1042075 28.7547689 14.5219537 28.16 14.16 28.100155 13.5985725 27.8777244 13.0668244 27.52 12.63 25.87 10.63 22.88 10.63 20.66 11.44 17.57 12.52 14.57 14.75 13.53 17.99 12.4622885 21.2987002 13.9257664 24.8962411 17 26.52 20.46 28.52 25.26 28.12 28 25.12 30.47 22.45 30.12 19.08 29.35 15.78zM39.67 8.14C38.919332 6.43620977 37.3354508 5.24640425 35.49 5 33.1404167 4.47405169 30.6882894 5.23558192 29.05 7 28.0834077 8.09799008 27.8308087 9.65244509 28.4 11 28.8781375 11.9822869 29.7106825 12.7469419 30.73 13.14 31.3983596 13.3984843 32.1041547 13.5470727 32.82 13.58 33.8595927 13.8924461 34.9629269 13.9269253 36.02 13.68L37.21 13.29C37.9125831 12.9867606 38.5279884 12.5123141 39 11.91 39.1786869 11.7077205 39.3238554 11.4781518 39.43 11.23 39.5789916 11.0062456 39.6904574 10.7596697 39.76 10.5 39.985687 9.72426103 39.9541121 8.89629747 39.67 8.14L39.67 8.14zM46.49 15.15C44.6646279 14.0120832 42.3987824 13.8366388 40.42 14.68 39.7437194 14.9906002 39.1405833 15.4403966 38.65 16 38.0335395 16.8037501 37.8643013 17.8643096 38.2 18.82L38.94 21.48C39.0436603 21.801148 39.2179245 22.0950053 39.45 22.34 40.1734035 23.6860647 41.488897 24.6124686 43 24.84 45.25 25.18 48.18 24.53 49.11 22.18 50.0434819 19.5114942 48.9422568 16.55668 46.49 15.15zM52.12 33.27C51.63 30.59 48.8 29.19 46.24 29.27 43.87 29.35 41.13 30.44 40.18 32.81 39.854763 33.6566285 39.7548385 34.5731777 39.89 35.47 38.2 37.47 37.58 40.13 39.82 42.47 42.0165091 44.5488076 45.2610981 45.0723843 48 43.79 50.15 42.84 51.07 40.9 51.56 38.79 52.1012321 37.003398 52.2913988 35.1288978 52.12 33.27L52.12 33.27z" opacity=".5"/>
      <path id="Shape" fill="#3D454C" fill-rule="nonzero" d="M39 23.43C39.8 25.25 41.21 25.53 43 25.29 46.93 24.77 50.08 21.64 48.51 17.49 47.7436547 15.7695073 46.3054763 14.438413 44.5309425 13.8072157 42.7564087 13.1760183 40.8006941 13.2999133 39.12 14.15 37.62 14.98 36.18 16.93 36.89 18.73 37.1284217 19.2564418 37.5418675 19.6840225 38.06 19.94 35.53 24.55 35.06 29.02 35.33 34.34 35.61 40.78 35.27 47.12 37.07 53.34 37.2163555 53.8729548 37.7670452 54.1863555 38.3 54.04 38.8329548 53.8936445 39.1463555 53.3429548 39 52.81 37.42 47.31 37.55 41.81 37.39 36.11 37.26 31.35 37.18 27.2 38.81 23.03 38.94 23.19 39 23.31 39 23.43zM39.49 16.36C40.1345157 15.7851423 40.9572791 15.4496809 41.82 15.41 43.8491839 15.2017242 45.7876583 16.301397 46.65 18.15 47.034724 19.0089514 47.0551287 19.9871066 46.7065599 20.8613547 46.3579911 21.7356028 45.6701757 22.4313858 44.8 22.79 44.026616 23.1548821 43.1849597 23.3525179 42.33 23.37 40.98 23.37 39.67 21.37 41.04 20.37 41.1200269 20.3069395 41.1907278 20.2328719 41.25 20.15 41.25 20.15 41.25 20.15 41.25 20.15 41.2976316 20.0810946 41.3378546 20.0073524 41.37 19.93 41.5166544 19.6961051 41.5600912 19.4119881 41.4900198 19.1449593 41.4199485 18.8779306 41.2426036 18.6517492 41 18.52 40.7899091 18.3867162 40.5269018 18.36793 40.3 18.47 39.15 18.46 38 18 39.52 16.36L39.49 16.36zM18.77 28.66C14.89 27.79 10.01 31.83 9.47 35.6 8.78 40.32 13.36 42.13 17.29 42.42 19.0835999 42.6673107 20.8729587 41.9393759 21.984541 40.5101986 23.0961234 39.0810212 23.3612027 37.1675357 22.68 35.49 24.75 32.25 22.29 29.44 18.77 28.66zM19.07 40.3C17.897288 40.5586957 16.675987 40.4895001 15.54 40.1 12.83 39.48 10.54 37.95 11.76 34.86 12.7907802 32.6963106 14.7737035 31.1388279 17.12 30.65 18.3743554 30.4903187 19.6393412 30.8517432 20.62 31.65 22.01 32.95 21.51 33.76 20.69 34.86 20.4237569 35.1593676 20.4237569 35.6106324 20.69 35.91 21.1584805 36.6898101 21.2478113 37.6400731 20.9328682 38.4935299 20.6179251 39.3469868 19.9327329 40.0114349 19.07 40.3z"/>
      <path id="Shape" fill="#3D454C" fill-rule="nonzero" d="M26.18 13.43C21.85 11.26 15.65 12.43 14.82 17.97 13.99 23.51 18.71 26.87 23.82 26.27 25.1771789 26.1387153 26.403488 25.4043985 27.16 24.27 29.32 32.27 25.9 42.65 26.51 50.4 26.6 51.68 28.61 51.69 28.51 50.4 27.77 40.92 32.51 28.4 27.44 19.76 28.2382006 18.7956476 28.559693 17.5231176 28.3153063 16.2953656 28.0709197 15.0676135 27.2866403 14.0151898 26.18 13.43L26.18 13.43zM23.13 24.33C22.198783 24.3562081 21.2687883 24.2450131 20.37 24 18.0648266 23.4098201 16.5329258 21.228665 16.76 18.86 16.9216815 16.4071971 18.8422614 14.4357408 21.29 14.21 22.2625518 14.2027605 23.2260822 14.3968285 24.12 14.78 25.1866911 15.0061511 26.0648095 15.7599008 26.45 16.78 26.61 17.78 26.15 18.36 25.07 18.61 24.8083942 18.519709 24.5197939 18.554796 24.2874437 18.7051402 24.0550934 18.8554845 23.9048316 19.1043672 23.88 19.38 23.7734766 19.6206783 23.7874193 19.8976161 23.9175772 20.1263785 24.0477351 20.3551409 24.2786801 20.5086118 24.54 20.54 27.49 21.53 25.19 24.23 23.13 24.33zM36.49 13.92C37.8585027 13.448565 38.8989884 12.3216852 39.26 10.92 39.78 7.52 35.85 5.26 32.97 5.2 30.09 5.14 26.62 7.2 26.97 10.52 27.1 11.93 27.83 13.62 29.26 14.12 30.51 14.55 31.72 13.95 32.89 13.54 34.15 13.88 35 14.48 36.49 13.92zM29 10.8C28.51 8.35 31 7.18 33 7.22 34.6 7.22 37.28 8.29 37.3 10.27 37.3 11.64 35.56 12.36 34.45 12.08 34.02 11.97 33.66 11.71 33.22 11.6 33.0154732 11.5133113 32.7845268 11.5133113 32.58 11.6 31.23 12 29.42 12.89 29 10.8z"/>
      <path id="Path" fill="#3D454C" fill-rule="nonzero" d="M31.92,16.56 C31.1933333,27.02 30.8,37.5 30.74,48 C30.74,48.5522847 31.1877153,48.9999999 31.74,48.9999999 C32.2922847,48.9999999 32.74,48.5522847 32.74,48 C32.8,37.5133333 33.1933333,27.04 33.92,16.58 C34,15.28 32,15.29 31.92,16.56 Z"/>
      <path id="Shape" fill="#3D454C" fill-rule="nonzero" d="M44.5,28.11 C40.65,28.8 39.11,32.3 40.63,35.66 C38.92,38.95 39.7,42.81 44.2,42.71 C48.4,42.61 51.42,38.37 51.63,34.39 C51.7935122,32.5219739 51.0593036,30.6874545 49.6521374,29.448043 C48.2449712,28.2086315 46.33243,27.7119324 44.5,28.11 Z M47.18,39.53 C46.269735,40.3759117 45.0496056,40.8067586 43.81,40.72 C41,40.4 41.56,38 42.62,36.19 C42.6520982,36.1267321 42.6756379,36.0594756 42.69,35.99 L42.69,35.99 C42.7094079,35.8774976 42.7094079,35.7625024 42.69,35.65 C42.6787097,35.5529427 42.6516895,35.4583718 42.61,35.37 C42.61,35.37 42.61,35.3 42.61,35.26 C41.36,33 42.19,30.64 44.9,30.17 C46.142571,29.8774575 47.4494771,30.2164928 48.3931378,31.0761837 C49.3367985,31.9358745 49.7958109,33.2056209 49.62,34.47 C49.393747,36.3815869 48.5348909,38.1626575 47.18,39.53 L47.18,39.53 Z"/>
      <path id="Path" fill="#3D454C" fill-rule="nonzero" d="M26.71 54.11L26.71 54.22C26.71 54.7722847 27.1577153 55.22 27.71 55.22 28.2622847 55.22 28.71 54.7722847 28.71 54.22L28.71 54.11C28.71 53.5577153 28.2622847 53.11 27.71 53.11 27.1577153 53.11 26.71 53.5577153 26.71 54.11zM31.75 50.92C31.1977153 50.92 30.75 51.3677153 30.75 51.92 30.75 52.4722847 31.1977153 52.92 31.75 52.92 32.3022847 52.92 32.75 52.4722847 32.75 51.92 32.75 51.3677153 32.3022847 50.92 31.75 50.92z"/>
    </g>
  </g>
</svg>
