<svg xmlns="http://www.w3.org/2000/svg" width="64" height="64" viewBox="0 0 64 64" style="background:#fff">
  <g id="Buchweizen" fill="none" fill-rule="evenodd" stroke="none" stroke-width="1">
    <rect width="64" height="64" fill="#FFF"/>
    <g transform="translate(2 6)">
      <rect id="Rectangle" width="60" height="60" x="0" y="0"/>
      <path id="Path" fill="#C17953" fill-rule="nonzero" d="M37.49 33.42C35.3172403 32.0573737 32.5452655 32.1044228 30.42 33.54 28.1593155 35.0338055 26.3396806 37.105496 25.15 39.54 24.8317394 40.5053359 25.0402366 41.566776 25.7 42.34 26.486067 43.2080123 27.5440099 43.7828279 28.7 43.97 31.13 44.34 33.56 43.61 34.75 41.4L34.75 41.4C34.89 41.22 35 41.01 35.13 40.83 35.39 40.46 35.68 40.13 35.97 39.83 36.08 39.73 36.2 39.61 36.31 39.52 36.6993404 39.2033646 37.1066888 38.9095395 37.53 38.64 38.4245878 38.0699512 38.9628795 37.0796727 38.9548419 36.0189291 38.9466229 34.9581856 38.3932186 33.9762725 37.49 33.42zM51.65 12.84C49.299314 11.864445 46.5908214 12.4323547 44.83 14.27L40.83 19.07C39.3 20.9 40.77 23.31 42.72 24.07 45.0673587 25.0468351 47.7738239 24.4785171 49.53 22.64 50.87 21.04 52.2 19.44 53.53 17.85 55.06 16 53.59 13.57 51.65 12.84zM22 5.6C19.86 5.7 17 6.82 17 9.34 17.0061751 10.8341428 16.5134765 12.2876035 15.6 13.47 14.16 15.35 15.47 17.68 17.48 18.47 19.68 19.29 22.76 19.05 24.3 17.04 26.0493115 14.7856245 26.9991609 12.0134714 27 9.16 27 6.75 24 5.5 22 5.6zM33.29 14.94C31.4683646 14.2296743 29.3964944 14.8036108 28.2 16.35 26.4337481 18.8427297 25.1328172 21.6343105 24.36 24.59 23.83 26.46 26.51 27.76 27.93 27.94 29.8 28.17 31.69 27.45 32.22 25.55 32.9400578 23.1214606 34.0843838 20.8395799 35.6 18.81 36.75 17.21 34.62 15.39 33.29 14.94zM23.2 40.8C20.849314 39.824445 18.1408214 40.3923547 16.38 42.23L10.38 49.38C8.83 51.21 10.32 53.63 12.26 54.38 14.5943339 55.3115172 17.260393 54.7340029 19 52.92L25.06 45.76C26.62 43.94 25.13 41.52 23.2 40.8zM10.89 24.94C10.9251975 28.0211061 10.3543756 31.0790808 9.21 33.94 7.3 38.76 17.21 40.06 18.88 35.72 20.2553306 32.21819 20.9346723 28.4818105 20.88 24.72 20.82 19.9 10.83 20.05 10.89 24.94zM51.23 38.17C49.8223519 35.793205 48.9806258 33.1243174 48.77 30.37 48.6 27.92 45.88 26.77 43.71 26.81 41.71 26.81 38.6 28.08 38.77 30.55 38.9763297 33.9663659 39.9504977 37.2922098 41.62 40.28 42.9187669 42.3760112 45.441072 43.3686603 47.82 42.72 49.52 42.35 52.48 40.36 51.23 38.17z" opacity=".5"/>
      <path id="Path" fill="#3D454C" fill-rule="nonzero" d="M30.65 35.29C30.0977153 35.29 29.65 35.7377153 29.65 36.29 29.65 36.8422847 30.0977153 37.29 30.65 37.29 31.2022847 37.29 31.65 36.8422847 31.65 36.29 31.65 35.7377153 31.2022847 35.29 30.65 35.29zM22.34 11.36L22.34 11.17C22.34 10.6177153 21.8922847 10.17 21.34 10.17 20.7877153 10.17 20.34 10.6177153 20.34 11.17L20.34 11.36C20.34 11.9122847 20.7877153 12.36 21.34 12.36 21.8922847 12.36 22.34 11.9122847 22.34 11.36z"/>
      <path id="Shape" fill="#3D454C" fill-rule="nonzero" d="M16.42 37.94C17.6047985 37.8932075 18.6802328 37.2343147 19.26 36.2 19.7586785 35.294875 20.0522745 34.2911861 20.12 33.26 20.5351443 29.7896412 20.4948024 26.2798997 20 22.82 19.9603005 21.9209387 19.4567517 21.1069313 18.67 20.67 17.9209886 20.4200988 17.0979426 20.5387361 16.45 20.99 12.460405 23.1972582 8.81792893 25.9805009 5.64 29.25 5.15120013 29.5630284 4.81714288 30.0677454 4.72 30.64 4.68959186 31.8136045 5.15412228 32.9458974 6 33.76 7.15 35.11 15.27 37.82 16.12 37.92L16.42 37.94zM6.7 31C6.7 31 6.7 31 6.78 30.93 6.86477352 30.8771185 6.93930238 30.809365 7 30.73 10.0631376 27.5593738 13.5818053 24.8630767 17.44 22.73 17.76 22.55 17.9 22.52 17.89 22.48 17.9813607 22.6714106 18.0356504 22.8783898 18.05 23.09 18.505735 26.3759285 18.5326267 29.7071422 18.13 33 18.0854018 33.7475271 17.8915931 34.4785599 17.56 35.15 17.3174057 35.6036928 16.8539294 35.8962147 16.34 35.92 15.34 35.76 8.34 33.21 7.5 32.44 6.66 31.67 6.66 31.06 6.7 31zM36.83 31.41C34.55 30.61 31.27 30.92 28.83 30.9 26.8960931 30.7034052 24.9780571 31.3991994 23.62 32.79 23.5207032 32.9035414 23.4458186 33.0362914 23.4 33.18 23.2945426 33.4493459 23.3204153 33.752426 23.47 34 24.64 36.11 28.16 44.9 31.71 43.45 33.34 42.79 35.02 39.86 35.81 38.45 36.81 36.63 37.81 34.26 37.51 32.15 37.432746 31.7990773 37.173155 31.5165813 36.83 31.41L36.83 31.41zM33.91 37.74C33.3664117 38.8385068 32.6393034 39.836167 31.76 40.69 30.4 41.74 29.57 40.35 28.76 39.25 27.5964622 37.4663139 26.5315327 35.6202134 25.57 33.72 27.41 32.36 30.28 32.96 32.43 33.05 33.56 33.1 35.24 32.68 35.37 34.05 35.52 35.13 34.4 36.88 33.91 37.74zM37.63 20.47C36.6751768 19.2822715 35.5768017 18.2174858 34.36 17.3 32.8713155 16.2638045 31.6453844 14.8940491 30.78 13.3 30.6151462 12.949298 30.262516 12.7254116 29.875 12.7254116 29.487484 12.7254116 29.1348538 12.949298 28.97 13.3L25.69 19.94C24.5980053 21.8375702 23.9007178 23.9362357 23.64 26.11 23.4269184 27.2578372 24.0432402 28.3988654 25.12 28.85 25.3171568 28.9126673 25.5231459 28.9430592 25.73 28.94 26.0691968 28.9259986 26.4052313 28.8688728 26.73 28.77 29.1311766 28.0934051 31.6153546 27.7567957 34.11 27.77L34.36 27.77C35.4384283 27.8707327 36.5221894 27.6442231 37.47 27.12 38.5926549 26.3206605 39.1814011 24.9661593 39 23.6 38.8449794 22.4490917 38.3703465 21.3647113 37.63 20.47L37.63 20.47zM36.36 25.4C35.7337589 25.6827158 35.0424419 25.7898699 34.36 25.71L34.23 25.71C31.5023167 25.7153135 28.787824 26.0886824 26.16 26.82 26.0211978 26.8562855 25.8843509 26.899676 25.75 26.95 25.6421504 26.7156827 25.6006443 26.4562701 25.63 26.2 25.8799396 24.2991178 26.5054032 22.4669176 27.47 20.81L29.94 15.81C30.864159 16.9308293 31.9182134 17.9378876 33.08 18.81 34.1608055 19.6470364 35.1407075 20.6068035 36 21.67 36.5228969 22.2667643 36.8691783 22.9974181 37 23.78 37.0855167 24.3948685 36.8426611 25.0095968 36.36 25.4zM55.53 31.62C55.2869219 31.311647 54.9607824 31.0791858 54.59 30.95L49.52 28.85C47.7720941 28.0250187 45.912087 27.4622991 44 27.18 43.17 27.1 41.15 27.26 40.25 28.29 40.1061984 28.4512498 40.0184888 28.6547361 40 28.87 39.6208957 33.7847959 40.4482117 38.7177964 42.41 43.24 42.5763477 43.7065283 42.9434717 44.0736523 43.41 44.24 43.5243778 44.2699614 43.6418082 44.2867372 43.76 44.29 44.0287693 44.2844229 44.2924896 44.2159241 44.53 44.09 46.9590027 42.889742 49.2352623 41.4024514 51.31 39.66 53.55 37.89 55.84 35.66 55.8 32.74 55.8218038 32.348265 55.7279074 31.9587689 55.53 31.62zM50.13 38.11C48.276638 39.6511679 46.2654481 40.9919612 44.13 42.11 42.4608689 38.1155302 41.732111 33.7908822 42 29.47 42.5813463 29.239628 43.2055277 29.1373031 43.83 29.17 45.5456604 29.4364113 47.213242 29.9518456 48.78 30.7L53.85 32.8 53.85 32.8C53.88 34.87 52 36.64 50.13 38.11zM17.27 14C17.67 15.29 18 17 19.1 18 21.6 20 24.51 15.89 25.84 14.19 27.17 12.49 29.7 8.93 27 7.42 24 5.75 19.86 6.42 16.55 6.14 16.3290869 6.10895532 16.1050606 6.16925688 15.9295803 6.30699952 15.7540999 6.44474215 15.6423141 6.648035 15.62 6.87 15.5704804 7.04659418 15.5704804 7.23340582 15.62 7.41 16.06 9.61666667 16.61 11.8133333 17.27 14zM22.63 8.44C23.39 8.5 25.92 8.6 26.13 9.7 26.29 10.49 24.69 12.38 24.26 12.92 23.5962956 13.8180392 22.8386749 14.6427061 22 15.38 21.64 15.67 20.68 16.47 20.16 16.12 19.64 15.77 19.57 14.62 19.44 14.2 18.81 12.2 18.29 10.2 17.81 8.2 19.42 8.29 21 8.27 22.63 8.41L22.63 8.44zM24.5 41.86C24.12 39.97 23.1 38.86 21.79 39.06 21.1034575 39.1744909 20.4797998 39.5288419 20.03 40.06 19.87 40.23 19.14 40.78 18.44 41.31 15.09 43.85 11.73 46.51 10.85 48.55 10.763493 48.7339264 10.7389324 48.9409376 10.78 49.14 10.7705908 49.3550745 10.7907797 49.570422 10.84 49.78 11.0293901 50.5241676 11.5130533 51.1594267 12.18 51.54 12.9575072 51.9212163 13.8141642 52.1131075 14.68 52.1L14.96 52.1C16.7429133 52.2215512 18.4884348 52.668947 20.11 53.42L20.29 53.51C21.1205457 53.972759 22.041879 54.249159 22.99 54.320003 23.3955113 54.3205728 23.7969296 54.2389284 24.17 54.08 25.2353525 53.5640584 25.960605 52.5366174 26.09 51.36 26.1777329 50.4275817 26.1032994 49.4870128 25.87 48.58L24.5 41.86zM24.11 51.14C24.0743359 51.6264666 23.8012678 52.0641237 23.38 52.31 22.81 52.55 21.96 52.15 21.14 51.77L21 51.68C19.160896 50.8171796 17.1769472 50.3050834 15.15 50.17L14.84 50.17C14.2816808 50.1848947 13.7264303 50.0827013 13.21 49.87 13.0305727 49.7623574 12.8984215 49.590918 12.84 49.39 12.84 49.39 12.84 49.29 12.84 49.27 12.891497 49.1806784 12.9349995 49.0869806 12.97 48.99 14.12 47.2 17.84 44.38 19.7 42.99 20.3354693 42.5439674 20.9432554 42.0597422 21.52 41.54 21.66 41.4 21.94 41.1 22.05 41.09 22.3602044 41.4176382 22.5505103 41.8405402 22.59 42.29L23.96 49.09C24.1164281 49.7613558 24.167038 50.4530247 24.11 51.14L24.11 51.14zM48.34 23.26C50.34 22.7 55.34 21.99 54.34 18.68 53.96 17.41 52.59 16.59 51.59 15.85 49.87 14.57 48.05 13.43 46.4 12.07 46.31457 12.0064728 46.2202163 11.9559262 46.12 11.92L46.06 11.92 45.98 11.92C45.773765 11.8086546 45.5300679 11.7896922 45.3090916 11.8677959 45.0881154 11.9458995 44.9104604 12.1137881 44.82 12.33 44.82 12.39 44.77 12.44 44.75 12.5L44.75 12.55C43.9864795 14.1471465 43.3414077 15.7982629 42.82 17.49 42.1814492 19.1293037 41.8165892 20.8623886 41.74 22.62 41.94 25.86 46.7 23.71 48.34 23.26zM44.13 20.16C44.5895138 18.1548257 45.2425759 16.1989885 46.08 14.32 47.17 15.16 48.3 15.95 49.42 16.75 49.87 17.06 52.03 18.22 52.13 18.85 52.25 19.64 51.13 20.29 50.59 20.57 49.9443783 20.8204426 49.273936 21.001462 48.59 21.11L45.42 22C44.68 22.2 44.15 22.67 43.83 21.65 43.8426077 21.1396684 43.9441289 20.6354463 44.13 20.16z"/>
      <path id="Path" fill="#3D454C" fill-rule="nonzero" d="M47.46,19.49 C48.0122847,19.49 48.46,19.0422847 48.46,18.49 C48.46,17.9377153 48.0122847,17.49 47.46,17.49 C46.9077153,17.49 46.46,17.9377153 46.46,18.49 C46.46,19.0422847 46.9077153,19.49 47.46,19.49 Z"/>
    </g>
  </g>
</svg>
