<svg xmlns="http://www.w3.org/2000/svg" width="64" height="64" viewBox="0 0 64 64" style="background:#fff">
  <g id="Buchweizenmehl" fill="none" fill-rule="evenodd" stroke="none" stroke-width="1">
    <rect width="64" height="64" fill="#FFF"/>
    <g transform="translate(2 4)">
      <rect id="Rectangle" width="60" height="60" x="0" y="0"/>
      <path id="Path" fill="#C17953" fill-rule="nonzero" d="M41.86 9.42C36.54 4.07 28.16 2.34 21.67 6.42 19.49 7.8 17.67 10.34 19.62 12.94 21.6916303 15.2767068 25.0842548 15.9107652 27.86 14.48 28.2815067 14.1398919 28.76321 13.8820789 29.28 13.72 28.89 13.83 29.65 13.72 30.1 13.72 30.1 13.82 30.94 14.09 30.52 13.82 31.26 14.29 30.93 13.76 31.58 14.4 33.6892823 16.66067 37.0228664 17.2885017 39.81 15.95 41.86 14.93 44.07 11.64 41.86 9.42zM27.93 28.56L27.71 28.23C26.8829973 26.9611175 25.6803403 25.9822106 24.27 25.43 23.1080899 24.9624022 21.7942372 25.06603 20.72 25.71 18.35 27.54 19.03 30.94 20.45 33.13L20.67 33.47C21.5024309 34.7339874 22.7033511 35.7114805 24.11 36.27 25.2703659 36.7406103 26.5841554 36.6406883 27.66 36 30 34.16 29.36 30.76 27.93 28.56zM42.18 38.48C40.9212372 37.6416193 39.4315265 37.2184855 37.92 37.27 36.403788 37.2584127 34.9241286 37.7352698 33.7 38.63 32.6853272 39.3546869 32.0588267 40.5044996 32 41.75L32 43C32.1162658 44.2204822 32.7778172 45.3230679 33.8 46 35.062701 46.837933 36.5554203 47.2609284 38.07 47.21 39.586212 47.2215873 41.0658714 46.7447302 42.29 45.85 43.3046493 45.1285321 43.9343593 43.9832701 44 42.74L44 41.54C43.9057426 40.2913521 43.2321907 39.1588967 42.18 38.48zM28.18 39.68C26.9212372 38.8416193 25.4315265 38.4184855 23.92 38.47 22.403788 38.4584127 20.9241286 38.9352698 19.7 39.83 18.6718032 40.5653338 18.0436412 41.7366711 18 43L18 43.4C18.0979483 44.6475968 18.765769 45.7803093 19.81 46.47 21.072701 47.307933 22.5654203 47.7309284 24.08 47.68 25.596212 47.6915873 27.0758714 47.2147302 28.3 46.32 29.3297468 45.5815112 29.9579079 44.4064803 30 43.14L30 42.74C29.9057426 41.4913521 29.2321907 40.3588967 28.18 39.68L28.18 39.68zM38.32 23.27C30.85 23.27 31.01 32.03 38.47 32.03 45.93 32.03 45.77 23.27 38.32 23.27z" opacity=".5"/>
      <path id="Shape" fill="#3D454C" fill-rule="nonzero" d="M50.49,49.59 C50.5000356,44.7508156 50.2597145,39.9143521 49.77,35.1 C49.2716907,30.2811877 48.5240216,25.4914328 47.53,20.75 L48.38,20.75 C49.095144,20.7480745 49.7651507,20.4002158 50.1781872,19.8164046 C50.5912237,19.2325933 50.6962275,18.4850047 50.46,17.81 L50.12,16.81 C50.4266125,15.6405887 50.2385582,14.3965367 49.6,13.37 C49.2187726,12.8059299 48.607234,12.4397391 47.93,12.37 L43.72,12.37 L36.72,6.21 C33.0110131,2.92065942 27.4575083,2.82725184 23.64,5.99 L15.9,12.45 L12.3,12.45 C11.654466,12.5489763 11.0788062,12.9110265 10.71,13.45 C10.0714418,14.4765367 9.88338747,15.7205887 10.19,16.89 L9.74,18.18 C9.54784011,18.7792093 9.64889563,19.4339153 10.0127867,19.9472968 C10.3766777,20.4606782 10.9609662,20.7728629 11.59,20.79 L13.44,20.79 C12.3863595,25.571862 11.6580238,30.4196374 11.26,35.3 C10.81,40.03 10.49,44.83 10.33,49.58 C9.42,50.29 7.56,52.2 6.68,56.31 C6.62569886,56.5915742 6.69489127,56.8829107 6.87,57.11 C7.04754318,57.3401476 7.31107829,57.4881605 7.6,57.52 C10.8352332,57.8797844 14.1019757,57.8495678 17.33,57.43 C21.1591395,56.9524687 25.0115967,56.6854006 28.87,56.63 L29.38,56.63 C29.81,56.63 30.11,56.63 30.26,56.63 L30.36,56.63 C34.7530795,56.6305918 39.1417629,56.907807 43.5,57.46 C45.2380751,57.6791738 46.9881604,57.7893891 48.74,57.790036 C50.2268989,57.7920244 51.7126842,57.7085533 53.19,57.54 L53.19,57.54 C53.464301,57.5182267 53.7175096,57.3843879 53.89,57.17 C54.0803478,56.934693 54.1538846,56.6258385 54.09,56.33 C53.24,52.23 51.4,50.32 50.49,49.59 Z M24.91,7.59 C27.9739577,5.0587765 32.424688,5.13514747 35.4,7.77 L40.69,12.43 L33.69,12.43 C32.5380545,12.4278723 31.42761,12.8599102 30.58,13.64 C27.3749875,12.8380631 24.0838168,12.4317043 20.78,12.43 L19,12.43 L24.91,7.59 Z M12.06,17.59 L19.06,17.59 C19.6122847,17.59 20.06,17.1422847 20.06,16.59 C20.06,16.0377153 19.6122847,15.59 19.06,15.59 L12.06,15.59 C12.06,14.88 12.26,14.53 12.46,14.45 L20.8,14.45 C24.1318206,14.4532246 27.4492688,14.886812 30.67,15.74 C31.0389457,15.8286294 31.4262701,15.7008124 31.67,15.41 C32.1500787,14.7900775 32.8860148,14.4221095 33.67,14.41 L47.84,14.41 C47.8998094,14.45261 47.9536239,14.5030611 48,14.56 C48.1784536,14.8614403 48.258826,15.2108854 48.23,15.56 L45.89,15.56 C45.3377153,15.56 44.89,16.0077153 44.89,16.56 C44.89,17.1122847 45.3377153,17.56 45.89,17.56 L48.26,17.56 L48.57,18.45 L48.57,18.45 C48.5990511,18.5117714 48.5927328,18.5843796 48.5534485,18.6402045 C48.5141643,18.6960295 48.4479526,18.7264904 48.38,18.72 L11.63,18.77 L12.06,17.59 Z M43.75,55.45 C39.3086967,54.8894977 34.8365318,54.6089437 30.36,54.61 L30.25,54.61 L29.11,54.61 C24.6532857,54.5655562 20.5184777,52.280135 18.11,48.53 C17.9681318,48.3058657 17.7430246,48.1472806 17.4842145,48.0891421 C17.2254043,48.0310036 16.9540988,48.0780757 16.73,48.22 C16.5058657,48.3618682 16.3472806,48.5869754 16.2891421,48.8457855 C16.2310036,49.1045957 16.2780757,49.3759012 16.42,49.6 C17.8244477,51.8680919 19.8234801,53.7080317 22.2,54.92 C20.48,55.05 18.76,55.21 17.05,55.43 C14.3440829,55.7779135 11.6091777,55.8415939 8.89,55.62 C9.2856507,54.037257 10.088976,52.585755 11.22,51.41 C12.5183264,52.5723118 13.9978094,53.5147222 15.6,54.2 C15.7225017,54.2551256 15.8556887,54.282446 15.99,54.28 C16.4648325,54.2790911 16.873553,53.9443924 16.9680733,53.4790618 C17.0625935,53.0137311 16.8168475,52.5460939 16.38,52.36 C14.9041026,51.7134356 13.5508995,50.8169386 12.38,49.71 C12.54,44.98 12.85,40.2 13.3,35.49 C13.6786261,30.5302347 14.4138602,25.6041662 15.5,20.75 L45.5,20.75 C46.5177515,25.5560868 47.2788293,30.4129645 47.78,35.3 C48.26306,40.0645361 48.4967122,44.8510678 48.48,49.64 C47.2990609,50.4062927 46.0072951,50.9864069 44.65,51.36 C44.0977153,51.4456041 43.7193959,51.9627153 43.805,52.515 C43.8906042,53.0672847 44.4077153,53.4456041 44.96,53.36 C45.0594311,53.3750853 45.1605689,53.3750853 45.26,53.36 C46.7538066,52.9287568 48.1806939,52.2927151 49.5,51.47 C50.666367,52.6468454 51.4892891,54.1198069 51.88,55.73 C49.1676633,55.9211349 46.44276,55.8272883 43.75,55.45 L43.75,55.45 Z"/>
      <path id="Shape" fill="#3D454C" fill-rule="nonzero" d="M29.77 39.44C29.6766289 39.0994383 29.4105617 38.8333711 29.07 38.74 27.18 38.08 24.46 38.34 22.45 38.32 20.7979746 38.1435221 19.1566747 38.7373407 18 39.93 17.89813 40.0416994 17.8229112 40.1750418 17.78 40.32 17.6745426 40.5893459 17.7004153 40.892426 17.85 41.14 18.85 42.98 21.79 50.29 24.85 48.98 26.23 48.39 27.61 45.98 28.29 44.77 29.2 43.22 30.05 41.23 29.77 39.44zM23.83 46.77C23.08 46.65 22.1 44.55 21.73 43.91 21.14 42.91 20.59 41.91 20.02 40.91 21.15 40.17 22.59 40.37 23.94 40.43 25.2379003 40.3912614 26.5369554 40.4313351 27.83 40.55 27.62 42.47 25.48 47 23.83 46.77L23.83 46.77zM19.88 37.05C19.6931871 37.0477924 19.5077729 37.0174519 19.33 36.96 18.3710316 36.562832 17.8176811 35.5518232 18 34.53 18.2172988 32.7170848 18.7953224 30.9660135 19.7 29.38L22.4 23.92C22.5713639 23.5700265 22.9304178 23.351472 23.32 23.36 23.7116134 23.3664919 24.0633869 23.6010076 24.22 23.96 24.9193415 25.2383412 25.9092797 26.3344666 27.11 27.16 28.1221883 27.9281229 29.035754 28.8181778 29.83 29.81 30.4615832 30.5694941 30.8669976 31.4912053 31 32.47 31.1269745 33.6339193 30.6239018 34.7772663 29.68 35.47 28.8662228 35.9199989 27.9360077 36.1151001 27.01 36.03L26.91 36.03C24.8398441 36.0191408 22.7788409 36.3053912 20.79 36.88 20.4972895 36.9834087 20.1903021 37.040758 19.88 37.05zM23.39 26.41L21.49 30.27C20.7057794 31.6122244 20.1990954 33.0982707 20 34.64 19.9852506 34.7595468 19.9852506 34.8804532 20 35L20.2 35C22.3705642 34.3478311 24.6236039 34.0110539 26.89 34L27 34C27.5277132 34.0517207 28.060044 33.9727297 28.55 33.77 28.8716667 33.4952551 29.0395357 33.0811783 29 32.66 28.8969565 32.0475919 28.6309879 31.4742049 28.23 31 27.522805 30.1420163 26.7172871 29.3700616 25.83 28.7 24.9435876 28.018471 24.1263238 27.2514488 23.39 26.41L23.39 26.41zM34.78 49.71C34.6650434 49.7073593 34.5508499 49.6905661 34.44 49.66 33.9744633 49.5264756 33.6020377 49.1763956 33.44 48.72 31.8186747 44.9740677 31.1323 40.8901382 31.44 36.82 31.4617284 36.6025711 31.5488994 36.3968474 31.69 36.23 32.5897139 35.4711043 33.7590803 35.1101887 34.93 35.23 36.5187329 35.4653961 38.0648648 35.9302462 39.52 36.61L43.69 38.34C44.0219594 38.4599801 44.3131826 38.6714637 44.53 38.95 44.7500653 39.2553992 44.865791 39.6236174 44.86 40 44.86 42.49 42.98 44.35 41.09 45.83 39.3729188 47.2725042 37.4895576 48.5045783 35.48 49.5 35.265708 49.6224044 35.0262829 49.694232 34.78 49.71zM33.78 37.71C32.36 39.03 35.04 47.35 35.12 47.3200809 38.4532298 45.9853957 41.2324948 43.5553023 43 40.43 43.1 40.22 35.48 36.13 33.75 37.73L33.78 37.71z"/>
      <path id="Path" fill="#3D454C" fill-rule="nonzero" d="M23.94,43.93 C24.4922847,43.93 24.94,43.4822847 24.94,42.93 C24.94,42.3777153 24.4922847,41.93 23.94,41.93 C23.3877153,41.93 22.94,42.3777153 22.94,42.93 C22.94,43.4822847 23.3877153,43.93 23.94,43.93 Z"/>
      <path id="Shape" fill="#3D454C" fill-rule="nonzero" d="M43.38,29.05 C42.99,27.54 41.38,25.85 40.31,24.8 C39.1674188,23.5397911 37.6611982,22.6661132 36,22.2999518 C35.6433706,22.2965059 35.3118726,22.4832116 35.13,22.79 C34.03,24.33 33.54,26.87 32.99,28.69 C32.4114172,30.1535111 32.5253572,31.8001273 33.3,33.17 C33.4479355,33.4051716 33.6870402,33.5681975 33.96,33.62 C34.1140826,33.6602408 34.2759174,33.6602408 34.43,33.62 C36.38,33.19 44.23,32.38 43.38,29.05 Z M34.79,31.54 C34.42,30.34 35,29.07 35.4,27.89 C35.7100089,26.7192267 36.0873024,25.5673129 36.53,24.44 C37.4138052,24.8927009 38.2150195,25.4910762 38.9,26.21 C39.56,26.84 41.13,28.21 41.19,29.13 C41.27,30.4 36.84,31.17 34.79,31.54 L34.79,31.54 Z"/>
      <path id="Path" fill="#3D454C" fill-rule="nonzero" d="M37.66,27.57 C37.1077153,27.57 36.66,28.0177153 36.66,28.57 C36.66,29.1222847 37.1077153,29.57 37.66,29.57 C38.2122847,29.57 38.66,29.1222847 38.66,28.57 C38.66,28.0177153 38.2122847,27.57 37.66,27.57 Z"/>
      <circle id="Oval" cx="41.76" cy="53.31" r="1" fill="#3D454C" fill-rule="nonzero"/>
      <circle id="Oval" cx="24.16" cy="10.77" r="1" fill="#3D454C" fill-rule="nonzero"/>
      <circle id="Oval" cx="26.96" cy="8.71" r="1" fill="#3D454C" fill-rule="nonzero"/>
      <circle id="Oval" cx="29.2" cy="11.1" r="1" fill="#3D454C" fill-rule="nonzero"/>
      <circle id="Oval" cx="30.33" cy="7.7" r="1" fill="#3D454C" fill-rule="nonzero"/>
      <circle id="Oval" cx="32.86" cy="9.9" r="1" fill="#3D454C" fill-rule="nonzero"/>
      <circle id="Oval" cx="36.26" cy="10.9" r="1" fill="#3D454C" fill-rule="nonzero"/>
    </g>
  </g>
</svg>
