<?xml version="1.0" encoding="UTF-8"?>
<svg width="64px" height="64px" viewBox="0 0 64 64" version="1.1" xmlns="http://www.w3.org/2000/svg" xmlns:xlink="http://www.w3.org/1999/xlink" style="background: #FFFFFF;">
    <title>Bündnerfleisch</title>
    <g id="Bündnerfleisch" stroke="none" stroke-width="1" fill="none" fill-rule="evenodd">
        <rect fill="#FFFFFF" x="0" y="0" width="64" height="64"></rect>
        <g id="1-6-Bündnerfleisch" transform="translate(2.000000, 4.000000)">
            <rect id="Rectangle" x="0" y="0" width="60" height="60"></rect>
            <path d="M12.62,49.79 C13.3,48.25 15.96,47.79 17.62,48.13 C20.2556077,48.6784177 22.9727215,48.7089852 25.62,48.22 C27.35,47.91 29.95,48.47 30.57,50.02 C31.19,51.57 29.31,52.72 27.68,53.02 C23.5975177,53.7504437 19.4135043,53.6995433 15.35,52.87 C13.76,52.53 11.93,51.36 12.62,49.79 Z" id="Path" fill="#DF5362" fill-rule="nonzero" opacity="0.5"></path>
            <path d="M6.13,32.49 C6.98,30.07 10.48,29.43 12.64,29.92 C21.7585963,32.0096151 30.4222957,35.7366661 38.21,40.92 C40.3,42.3 39.93,44.92 38.12,46.35 C35.99,47.97 32.79,47.61 30.68,46.22 C24.2773576,42.0049139 17.1616154,38.9891946 9.68,37.32 C7.56,36.79 5.27,34.93 6.13,32.49 Z" id="Path" fill="#DF5362" fill-rule="nonzero" opacity="0.5"></path>
            <path d="M40.51,45 C39.8229237,40.8288085 36.9587475,37.3429802 33,35.86 C33,35.86 33,35.86 32.94,35.86 L13.53,28.89 C10.2178989,27.7439057 6.57866874,29.3151359 5.14150781,32.5117145 C3.70434687,35.7082931 4.94446376,39.473246 8,41.19 L18.53,47 C14.78,47.42 11.53,48.64 11.53,50.77 L11.53,53.43 C11.53,56.14 16.77,57.43 21.63,57.43 C26.23,57.43 31.16,56.32 31.68,53.9 C32.153267,54.0121222 32.634844,54.0856965 33.12,54.12 L33.55,54.12 C35.5055777,54.1526968 37.3810776,53.3442289 38.7,51.9 C40.3165819,49.9925017 40.982111,47.4554018 40.51,45 Z M6.61,36.36 C6.21606547,34.6614629 6.77824996,32.8831742 8.0769602,31.7197463 C9.37567044,30.5563183 11.2048468,30.1923462 12.85,30.77 L27.37,36 C26.5026807,36.3749202 25.7253671,36.9306313 25.09,37.63 C23.4868489,39.5364439 22.8259079,42.0627076 23.29,44.51 C23.4318351,45.3382815 23.6701227,46.1471168 24,46.92 L22.41,46.83 L9,39.44 C7.80099996,38.8006168 6.93160205,37.6802212 6.61,36.36 Z M21.61,55.36 C16.47,55.36 13.61,53.99 13.51,53.36 L13.51,53.19 C14.5077764,53.6608836 15.5636756,53.9971572 16.65,54.19 L16.85,54.19 C17.2072656,54.2239402 17.5554995,54.0647034 17.7635254,53.7722724 C17.9715513,53.4798415 18.0077651,53.0986436 17.8585254,52.7722724 C17.7092857,52.4459012 17.3972656,52.2239402 17.04,52.19 C14.45,51.67 13.55,50.88 13.51,50.66 C13.6,50.07 16.51,48.66 21.61,48.66 C26.71,48.66 29.61,50.03 29.72,50.66 C29.72,50.88 28.82,51.66 26.36,52.16 C26.0027344,52.2332394 25.7116801,52.4915144 25.5964746,52.8375352 C25.481269,53.183556 25.5594145,53.5647539 25.8014746,53.8375352 C26.0435346,54.1103166 26.4127344,54.2332395 26.77,54.16 C27.7913742,53.9516814 28.7824876,53.6157108 29.72,53.16 L29.72,53.32 C29.65,54 26.79,55.38 21.64,55.38 L21.61,55.36 Z M37.19,50.5 C36.1700567,51.6102997 34.6917739,52.1831343 33.19,52.05 C32.6850313,52.0141432 32.1854423,51.9236136 31.7,51.78 L31.7,50.78 C31.7,48.95 29.31,47.78 26.27,47.24 C25.7415876,46.2857557 25.3829245,45.2469861 25.21,44.17 C24.8453896,42.3201051 25.3298681,40.4042129 26.53,38.95 C27.5499433,37.8397003 29.0282261,37.2668657 30.53,37.4 C34.29,37.6 37.87,41.15 38.53,45.3 C38.9002775,47.1484572 38.4192016,49.0654159 37.22,50.52 L37.19,50.5 Z" id="Shape" fill="#3D454C" fill-rule="nonzero"></path>
            <path d="M18.68,34.67 L12.45,32.21 C11.9363752,32.0056547 11.3543454,32.2563752 11.15,32.77 C10.9456547,33.2836248 11.1963752,33.8656546 11.71,34.07 L17.94,36.53 C18.0577876,36.5765537 18.1833466,36.6003081 18.31,36.600003 C18.7198038,36.6003967 19.0883727,36.350721 19.24,35.97 C19.3383792,35.723369 19.3346309,35.4477372 19.2295816,35.2038726 C19.1245322,34.9600079 18.9268077,34.7679351 18.68,34.67 Z" id="Path" fill="#3D454C" fill-rule="nonzero"></path>
            <path d="M22.61,52.87 C22.3735962,52.6358837 22.036236,52.5346756 21.71,52.6 C21.6437653,52.6092708 21.5795467,52.6295504 21.52,52.66 C21.4585666,52.6799704 21.4010516,52.7104195 21.35,52.75 C21.2939761,52.7818269 21.2433485,52.8223289 21.2,52.87 C21.1032961,52.9624871 21.0281789,53.0751629 20.98,53.2 C20.8259407,53.5743702 20.9127947,54.0046924 21.2,54.29 C21.5900375,54.6777236 22.2199625,54.6777236 22.61,54.29 C22.7012768,54.193081 22.7756428,54.0815321 22.83,53.96 C22.923,53.7152019 22.923,53.4447981 22.83,53.2 C22.7756428,53.0784679 22.7012768,52.966919 22.61,52.87 L22.61,52.87 Z" id="Path" fill="#3D454C" fill-rule="nonzero"></path>
            <path d="M18.24,19.41 C18.1341547,17.3083639 16.3992997,15.6586832 14.295,15.6586832 C12.1907003,15.6586832 10.4558453,17.3083639 10.35,19.41 C8.90116955,19.6489896 7.83826222,20.9015908 7.83826222,22.37 C7.83826222,23.8384092 8.90116955,25.0910104 10.35,25.33 L18.24,25.33 C19.4136377,25.5235956 20.5908074,25.0054943 21.2407816,24.0092823 C21.8907558,23.0130703 21.8907558,21.7269297 21.2407816,20.7307177 C20.5908074,19.7345057 19.4136377,19.2164044 18.24,19.41 L18.24,19.41 Z M18.24,23.36 L10.35,23.36 C9.79771525,23.36 9.35,22.9122847 9.35,22.36 C9.35,21.8077153 9.79771525,21.36 10.35,21.36 L11.52,21.36 C11.8383185,21.3553223 12.1353897,21.1993599 12.32,20.94 C12.5051167,20.6781913 12.5534621,20.3434923 12.45,20.04 C12.151415,19.2203696 12.4184986,18.3017639 13.11,17.77 C13.8164343,17.3108233 14.7348765,17.3436184 15.4067614,17.8520113 C16.0786463,18.3604043 16.3598614,19.2353498 16.11,20.04 C16.0036502,20.3419153 16.0482611,20.6764966 16.23,20.94 C16.4166758,21.2021956 16.7181426,21.3585117 17.04,21.36 L18.2,21.36 C18.7522847,21.36 19.2,21.8077153 19.2,22.36 C19.2,22.9122847 18.7522847,23.36 18.2,23.36 L18.24,23.36 Z" id="Shape" fill="#3D454C" fill-rule="nonzero"></path>
        </g>
        <g id="Cow" transform="translate(31.000000, 7.270000)" fill-rule="nonzero">
            <g id="Group" opacity="0.5" transform="translate(0.000000, 1.730000)" fill="#C17953">
                <path d="M10.73,1.35 C10.0956251,0.617612428 9.04397884,0.411407271 8.18,0.85 C7.25,1.36 6.96,2.36 6.39,3.19 C5.25,4.82 3.67,5.19 1.96,5.83 C-0.3,6.68 0.33,11.52 2.61,11.83 C4.18765708,11.9191992 5.7450719,11.4402676 7,10.48 C7.22,10.33 7.41,10.17 7.61,10.01 C7.48639819,10.3792361 7.38948207,10.7568748 7.32,11.14 C6.99,13.14 8.32,16.97 10.75,15.14 C12.54,13.75 12.9,10.28 12.87,8.14 C12.84,6 12.33,2.93 10.73,1.35 Z" id="Path"></path>
            </g>
            <g id="Group" opacity="0.5" transform="translate(15.000000, 1.730000)" fill="#C17953">
                <path d="M12.66,8.08 C12.41,6.18 10.59,5.64 9.03,4.83 C7.8793578,4.26280526 6.97082804,3.30104133 6.47,2.12 C6.22835633,1.28783213 5.52841417,0.669684192 4.67275539,0.532778788 C3.81709662,0.395873384 2.9592271,0.76477145 2.47,1.48 C-0.229295036,5.05403049 -0.659877447,9.85250294 1.36,13.85 C2.02,15.17 3.56,16.31 4.99,15.1 C6.2132545,13.8286928 6.58076967,11.9598391 5.93,10.32 C6.44161705,10.6544163 6.98409512,10.9390499 7.55,11.17 C10.23,12.25 13.06,11.15 12.66,8.08 Z" id="Path"></path>
            </g>
            <path d="M16.21,18.27 C15.1054305,18.27 14.21,19.1654305 14.21,20.27 C14.21,20.8443761 14.6756239,21.31 15.25,21.31 C15.8243761,21.31 16.29,20.8443761 16.29,20.27 C16.29,20.8222847 16.7377153,21.27 17.29,21.27 C17.8422847,21.27 18.2900006,20.8222847 18.2900006,20.27 C18.2904359,19.7254107 18.0687762,19.2041929 17.6762181,18.8267332 C17.28366,18.4492735 16.7541536,18.2482162 16.21,18.27 Z" id="Path" fill="#3D454C"></path>
            <path d="M11.6199999,18.28 C10.5073895,18.3071449 9.61966892,19.2170585 9.61999991,20.33 C9.61999991,20.9071376 10.0878624,21.375 10.665,21.375 C11.2421376,21.375 11.71,20.9071376 11.71,20.33 C11.71,20.8822847 12.1577153,21.33 12.71,21.33 C13.2622847,21.33 13.71,20.8822847 13.71,20.33 C13.7101048,19.7793043 13.4886411,19.251724 13.0954964,18.8661036 C12.7023518,18.4804832 12.1705909,18.2692547 11.6199999,18.28 Z" id="Path" fill="#3D454C"></path>
            <path d="M23.31,7.41 C25.2,5.97 26.92,3.73 26.92,1.53 C26.8992006,0.697629103 26.2322166,0.0262570733 25.4,3.55271368e-15 C24.4447451,0.0933375607 23.5154053,0.364677636 22.66,0.8 C21.1347536,1.52967291 19.4863343,1.96721631 17.8,2.09 C15.3954022,0.70408256 12.4345978,0.70408256 10.03,2.09 C8.34413276,1.96443695 6.69621919,1.5270278 5.17,0.8 C4.3185546,0.363654295 3.39228785,0.092220815 2.44,3.55271368e-15 C1.60778339,0.0262570733 0.940799409,0.697629103 0.92,1.53 C0.92,3.69 2.63,5.97 4.53,7.41 L1.73,10.21 C1.40466286,10.5383658 1.34677861,11.0469203 1.59,11.44 C2.50285738,12.7361028 4.00540334,13.4873758 5.59,13.44 L6.28,13.44 C6.4902819,14.2473634 6.78176837,15.0313615 7.15,15.78 C7.31,16.13 7.48,16.5 7.59,16.78 C6.67134718,17.6967208 6.15659771,18.9421986 6.16,20.24 C6.16,23.38 9.65,25.93 13.94,25.93 C18.23,25.93 21.72,23.38 21.72,20.24 C21.725248,18.9398635 21.2061203,17.692515 20.28,16.78 C20.4,16.47 20.57,16.1 20.73,15.78 C21.0999206,15.0355637 21.3914863,14.2547041 21.6,13.45 L22.29,13.45 C23.8745967,13.4973758 25.3771426,12.7461028 26.29,11.45 C26.5306456,11.0546861 26.4685978,10.545894 26.14,10.22 L23.31,7.41 Z M13.92,24 C10.78,24 8.14,22.31 8.14,20.31 C8.15246602,19.3798301 8.59573459,18.5080685 9.34,17.95 C9.40454108,17.8941793 9.46167195,17.8303271 9.51,17.76 C9.70261739,17.7565315 9.89013287,17.6974988 10.05,17.59 C11.2339547,16.810653 12.6340242,16.4256339 14.05,16.49 C15.4662075,16.4235576 16.8669079,16.8087502 18.05,17.59 C18.1611935,17.6678967 18.2870843,17.722336 18.42,17.75 C18.4717448,17.8236579 18.5321808,17.8908091 18.6,17.95 C19.3442654,18.5080685 19.787534,19.3798301 19.8,20.31 C19.7,22.31 17.05,24 13.92,24 Z M22.27,11.48 L20.7,11.48 C20.1477153,11.48 19.7,11.9277153 19.7,12.48 C19.5861801,13.3592535 19.3116125,14.210074 18.89,14.99 L18.59,15.65 C15.6791061,14.0750627 12.1633995,14.1052729 9.28,15.73 C9.18,15.49 9.07,15.24 8.95,14.99 C8.52838747,14.210074 8.2538199,13.3592535 8.14,12.48 C8.14,11.9277153 7.69228475,11.48 7.14,11.48 L5.57,11.48 C4.95024827,11.4908593 4.34353044,11.3014792 3.84,10.94 L6.79,7.94 L6.79,7.94 C6.87205603,7.88319459 6.94319459,7.81205603 7,7.73 L7,7.73 C7.02775459,7.66496402 7.05113984,7.59814902 7.07,7.53 C7.07478636,7.47009546 7.07478636,7.40990454 7.07,7.35 C7.0798848,7.29040712 7.0798848,7.22959288 7.07,7.17 C7.07568754,7.10679436 7.07568754,7.04320564 7.07,6.98 C7.04939879,6.92384358 7.02256441,6.87017482 6.99,6.82 C6.95929495,6.75655423 6.92245258,6.69626672 6.88,6.64 C6.88,6.64 6.88,6.64 6.88,6.59 C6.84730193,6.56094854 6.8101658,6.53731645 6.77,6.52 C6.77,6.52 6.71,6.45 6.67,6.43 C4.95438201,5.49357928 3.64680593,3.95441615 3,2.11 C3.48092164,2.26007316 3.95186298,2.44043367 4.41,2.65 C6.24764766,3.52624681 8.2454652,4.01634174 10.28,4.09 C10.4365423,4.08906142 10.5906777,4.05138386 10.73,3.98 C12.6852442,2.74724135 15.1747558,2.74724135 17.13,3.98 C17.2693223,4.05138386 17.4234577,4.08906142 17.58,4.09 C19.6115373,4.01781604 21.6063842,3.52761475 23.44,2.65 C23.902161,2.4418913 24.3763385,2.26157028 24.86,2.11 C24.2160764,3.9270392 22.9376864,5.45045402 21.26,6.4 C21.26,6.4 21.2,6.46 21.16,6.48 C21.12,6.5 21.08,6.48 21.05,6.56 C21.02,6.64 21.05,6.56 21.05,6.61 C21.0098457,6.66433227 20.9731082,6.72110846 20.94,6.78 C20.909268,6.83466297 20.8825315,6.89147798 20.86,6.95 C20.8553378,7.00990943 20.8553378,7.07009057 20.86,7.13 C20.8502381,7.19295717 20.8502381,7.25704283 20.86,7.32 C20.8552136,7.37990454 20.8552136,7.44009546 20.86,7.5 C20.8788602,7.56814902 20.9022454,7.63496402 20.93,7.7 C20.93,7.7 20.93,7.7 20.93,7.76 C20.93,7.82 20.99,7.82 21.01,7.86 C21.03,7.9 21.01,7.94 21.09,7.97 L24.09,10.97 C23.5579806,11.3399015 22.916765,11.5195828 22.27,11.48 L22.27,11.48 Z" id="Shape" fill="#3D454C"></path>
            <path d="M11.52,9.12 C10.9677153,9.12 10.52,9.56771525 10.52,10.12 C10.52,10.6722847 10.9677153,11.12 11.52,11.12 C12.0722847,11.12 12.52,10.6722847 12.52,10.12 C12.52,9.56771525 12.0722847,9.12 11.52,9.12 Z" id="Path" fill="#3D454C"></path>
            <path d="M16.52,9.12 C15.9677153,9.12 15.52,9.56771525 15.52,10.12 C15.52,10.6722847 15.9677153,11.12 16.52,11.12 C17.0722847,11.12 17.52,10.6722847 17.52,10.12 C17.52,9.56771525 17.0722847,9.12 16.52,9.12 Z" id="Path" fill="#3D454C"></path>
        </g>
    </g>
</svg>