<svg xmlns="http://www.w3.org/2000/svg" width="64" height="64" viewBox="0 0 64 64" style="background:#fff">
  <g id="Bulghur" fill="none" fill-rule="evenodd" stroke="none" stroke-width="1">
    <rect width="64" height="64" fill="#FFF"/>
    <g transform="translate(2 4)">
      <rect id="Rectangle" width="60" height="60" x="0" y="0"/>
      <path id="Path" fill="#EBE53F" fill-rule="nonzero" d="M34.68 22.31C33.1174653 23.5159881 31.7366421 24.9405935 30.58 26.54 29.39 28.06 27.97 29.67 27.43 31.54 27.1 32.71 28.56 34.08 29.66 33.26 31.1487872 31.9543296 32.3741306 30.3759786 33.27 28.61 34.3889274 26.9397663 35.2549447 25.1133797 35.84 23.19 36 22.58 35.26 21.9 34.68 22.31zM32.13 39.81C31.6640691 39.002973 30.8018666 38.5070158 29.87 38.51L29.67 38.29C28.87 37.73 28.04 38.5 27.94 39.29 27.86 39.9 27.28 40.59 27.3 41.49 27.3 43.09 27.85 44.8 28.04 46.39 28.39 49.39 27.33 52.88 28.96 55.5 29.96 57.06 32.41 57.64 33.73 56.12 37.3 52 34.49 44 32.13 39.81zM46.89 32.51C45.41 31.87 43.48 32.58 43.51 34.45 43.6533872 36.2084709 43.6265961 37.9766803 43.43 39.73 43.06 41.84 41.43 43.49 42.31 45.73 42.7712065 47.2212865 44.1296952 48.2542203 45.69 48.3 49.84 48.3 51.3 43.68 51.33 40.23 51.36 37.24 49.77 33.75 46.89 32.51zM9.92 44.06C11.4157725 45.3463006 13.6344233 45.3206019 15.1 44 16.35 42.74 17.42 41.29 18.66 40 19.8331103 38.7974109 20.7604199 37.3775741 21.39 35.82 21.6328458 35.0146818 21.1890788 34.1626492 20.39 33.9 16.39 32.14 11.16 35.36 9.1 38.9 8.05710034 40.5855952 8.40594167 42.7807431 9.92 44.06zM12.71 25.66C16.94 27.08 20.51 22.03 21.28 18.46 21.66 16.67 21.81 11.13 18.58 11.75L18.24 11.81C17.9710921 11.8916901 17.7269745 12.0395361 17.53 12.24 17.24 12.47 17.05 12.72 16.79 12.95 15.94 13.74 15.35 14.73 14.51 15.55 12.88 17.15 10.3 18.4 9.85 21.25 9.49028732 23.2443814 10.7423338 25.1749845 12.71 25.66z" opacity=".5"/>
      <path id="Shape" fill="#3D454C" fill-rule="nonzero" d="M45.2 49.63C41.5 49.63 38.49 45.85 38.49 41.2 38.49 36.55 41.49 32.77 45.2 32.77 48.91 32.77 51.92 36.55 51.92 41.2 51.92 45.85 48.91 49.63 45.2 49.63zM45.2 34.77C42.6 34.77 40.49 37.66 40.49 41.2 40.49 44.74 42.6 47.63 45.2 47.63 47.8 47.63 49.92 44.75 49.92 41.2 49.92 37.65 47.8 34.77 45.2 34.77zM13.85 46.4C12.7548219 46.41416 11.6798561 46.104542 10.76 45.51 9.16873855 44.4269635 8.18547486 42.6533784 8.11 40.73 7.97791028 38.6252963 8.54765772 36.5362223 9.73 34.79 10.8493914 33.0044464 12.5257721 31.6373351 14.5 30.9 16.2893816 30.1825264 18.3135728 30.3608038 19.95 31.38 23.06 33.38 23.52 38.21 20.95 42.11 19.4364735 44.6242201 16.7796763 46.2295243 13.85 46.4zM16.85 32.48C16.2771955 32.4856867 15.7093707 32.5870839 15.17 32.78 13.6144776 33.3796527 12.2952215 34.4673372 11.41 35.88L11.41 35.88C10.4770017 37.2598239 10.0204967 38.9067534 10.11 40.57 10.1498295 41.8737017 10.7973663 43.0836706 11.86 43.84 14 45.25 17.38 44 19.31 41 21.24 38 21.04 34.45 18.86 33 18.252502 32.6316791 17.5498318 32.4507937 16.84 32.48L16.85 32.48z"/>
      <path id="Path" fill="#EBE53F" fill-rule="nonzero" d="M45.31,8.41 C44.1030333,6.8492495 41.9277269,6.42188086 40.22,7.41 C38.74,8.41 37.39,9.58 35.91,10.58 C34.5123882,11.5127668 33.3127668,12.7123882 32.38,14.11 C31.9731701,14.8328299 32.2119147,15.7480175 32.92,16.18 C36.51,18.74 42.25,16.67 45,13.61 C46.372517,12.1907181 46.5041729,9.98229607 45.31,8.41 Z" opacity=".5"/>
      <path id="Shape" fill="#3D454C" fill-rule="nonzero" d="M37.11 20.39C35.5300629 20.4283068 34.0001964 19.8343586 32.86 18.74 30.24 16.12 30.79 11.31 34.07 8 35.5402132 6.48748069 37.4646587 5.49716385 39.55 5.18 41.4482468 4.85649501 43.3876621 5.44981518 44.78 6.78 46.1154627 8.17357919 46.7125777 10.1169847 46.39 12.02 46.0728821 14.102466 45.0823883 16.0237429 43.57 17.49 41.8814117 19.2680015 39.560752 20.3097837 37.11 20.39L37.11 20.39zM40.53 7.14C40.2892226 7.14241815 40.0488005 7.15911412 39.81 7.19 38.1626197 7.44717172 36.6450576 8.23756866 35.49 9.44 32.98 11.95 32.44 15.44 34.28 17.32 36.12 19.2 39.65 18.62 42.16 16.11 43.3563756 14.9517524 44.1427384 13.4351956 44.4 11.79 44.6445828 10.5121245 44.2742128 9.19360705 43.4 8.23 42.6313131 7.49158238 41.5950721 7.09802744 40.53 7.14zM30.07 36.66C28.4886372 36.6956331 26.9585755 36.098009 25.82 35 23.2 32.38 23.75 27.58 27 24.29 30.25 21 35.09 20.46 37.7 23.08 39.0366206 24.4688206 39.6341684 26.4099231 39.31 28.31 38.9928362 30.3953413 38.0025193 32.3197868 36.49 33.79L36.49 33.79C34.804387 35.5447664 32.5016925 36.5741641 30.07 36.66L30.07 36.66zM33.48 23.4C31.5793662 23.4943048 29.7883692 24.3181634 28.48 25.7 25.97 28.21 25.43 31.75 27.27 33.59 29.11 35.43 32.64 34.88 35.15 32.37L35.15 32.37C36.3499556 31.2144214 37.1369826 29.6965836 37.39 28.05 37.6378222 26.7719892 37.2670488 25.4520358 36.39 24.49 35.6065364 23.7493398 34.5572576 23.356311 33.48 23.4zM30.21 54.9000736C28.60438 54.8661207 27.0727507 54.218399 25.93 53.09 24.4170121 51.624188 23.4264076 49.7026962 23.11 47.62 22.34 43.04 24.69 38.81 28.34 38.2 30.2465294 37.92018 32.1726685 38.5622263 33.53 39.93 35.043676 41.3966197 36.0373204 43.3171975 36.36 45.4 37.12 49.99 34.78 54.21 31.13 54.83 30.8257288 54.8781558 30.5180544 54.9015659 30.21 54.9000736L30.21 54.9000736zM29.21 40.12C29.0189863 40.1217665 28.8284041 40.1384842 28.64 40.17 26.08 40.6 24.47 43.79 25.05 47.29 25.2948055 48.9407286 26.0747331 50.4654521 27.27 51.63 28.1748662 52.5723088 29.4754442 53.0256531 30.77 52.85 33.33 52.42 34.94 49.23 34.35 45.73L34.35 45.73C34.1086446 44.0803006 33.3321983 42.5555145 32.14 41.39 31.3666034 40.6182636 30.3316465 40.1650239 29.24 40.12L29.21 40.12z"/>
      <path id="Path" fill="#3D454C" fill-rule="nonzero" d="M26.48,34.63 L26.11,32.63 C30.7841921,31.628824 34.3047378,27.7666729 34.87,23.02 L36.87,23.21 C36.220147,28.8536784 32.0373169,33.4511683 26.48,34.63 L26.48,34.63 Z"/>
      <path id="Shape" fill="#3D454C" fill-rule="nonzero" d="M16.16,25.0000353 C15.2961731,25.0030798 14.4435525,24.8044774 13.67,24.42 C10.36,22.7 9.36,18 11.45,13.82 C12.3694352,11.91992 13.8871088,10.3741413 15.77,9.42 C17.4721388,8.5186797 19.4999717,8.47419342 21.24,9.3 C24.54,10.96 25.54,15.69 23.45,19.85 L23.45,19.85 C21.86,23 18.93,25.0000353 16.16,25.0000353 Z M18.72,10.76 C17.9926619,10.7706679 17.2775371,10.9485937 16.63,11.28 C15.1480948,12.0404257 13.9570349,13.2666201 13.24,14.77 C11.65,17.93 12.24,21.46 14.56,22.63 C16.88,23.8 20.07,22.17 21.67,19 C23.27,15.83 22.67,12.3 20.34,11.14 C19.8412134,10.8715566 19.2862568,10.7242533 18.72,10.71 L18.72,10.76 Z"/>
      <path id="Path" fill="#3D454C" fill-rule="nonzero" d="M13.91 23.79C16.174905 22.7393781 18.003012 20.9324871 19.08 18.68 19.63 17.52 17.9 16.5 17.35 17.68 16.4388106 19.6280049 14.8601939 21.1853368 12.9 22.07 11.73 22.61 12.74 24.33 13.9 23.8L13.91 23.79zM19.56 15.49C20.1122847 15.49 20.56 15.0422847 20.56 14.49 20.56 13.9377153 20.1122847 13.49 19.56 13.49 19.0077153 13.49 18.56 13.9377153 18.56 14.49 18.56 15.0422847 19.0077153 15.49 19.56 15.49zM44.35 39.09C44.9022847 39.09 45.35 38.6422847 45.35 38.09 45.35 37.5377153 44.9022847 37.09 44.35 37.09 43.7977153 37.09 43.35 37.5377153 43.35 38.09 43.35 38.6422847 43.7977153 39.09 44.35 39.09z"/>
    </g>
  </g>
</svg>
