<svg xmlns="http://www.w3.org/2000/svg" width="64" height="64" viewBox="0 0 64 64" style="background:#fff">
  <g id="Buschbohnen" fill="none" fill-rule="evenodd" stroke="none" stroke-width="1">
    <rect width="64" height="64" fill="#FFF"/>
    <g transform="translate(2 6)">
      <rect id="Rectangle" width="60" height="60" x="0" y="0"/>
      <path id="Path" fill="#31E085" fill-rule="nonzero" d="M26.35 50.61C24.1981182 45.4033745 21.4783294 40.4500724 18.24 35.84 14.86 31.07 9.43 26 12.52 19.76 14.52 15.66 5.67 14.41 3.81 18.16 1.07 23.72 3.25 29.25 6.59 34 10.81 40 14.83 45.62 17.7 52.48 19.32 56.37 28.16 54.93 26.35 50.61zM38.73 20.07C35.73 19.6 34.96 16.16 35.92 13.64 37.6 9.27 28.72 8.11 27.22 12.04 24.6 18.88 29.6 25.39 36.45 26.44 38.45 26.74 41.21 26.18 41.95 24.05 42.69 21.92 40.56 20.35 38.73 20.07zM47.12 7.41C45.12 7.17 42.38 7.63 41.63 9.8 40.92 11.8 43 13.56 44.84 13.8 45.3926675 13.7874988 45.9373945 13.9332219 46.41 14.22 46.9275103 14.5366021 47.3930006 14.9312569 47.79 15.39 48.7493359 16.4999931 49.2687371 17.9230102 49.25 19.39 49.31 23.77 58.31 23.63 58.25 19.23 58.17 13.08 53 8.12 47.12 7.41zM28.2 27.57L27.42 26.75C26.7000748 25.9807973 25.7483893 25.4680811 24.71 25.29 23.5402481 25.0731064 22.332422 25.2088563 21.24 25.68 20.3303441 26.0488363 19.6088363 26.7703441 19.24 27.68 18.9489486 28.5492927 19.1391049 29.5076808 19.74 30.2L20.52 31.02C21.2426056 31.7857154 22.1930486 32.2977622 23.23 32.48 24.3963975 32.6985381 25.6015167 32.562701 26.69 32.09 27.5990129 31.7201941 28.3201941 30.9990129 28.69 30.09 28.9837448 29.2224498 28.7974313 28.264266 28.2 27.57L28.2 27.57zM37.93 34.87L36.73 34.07C35.7819308 33.4537463 34.6705135 33.1366962 33.54 33.16 32.4048808 33.1544368 31.2964551 33.5040979 30.37 34.16 29.5982503 34.6991119 29.1243175 35.5692229 29.09 36.51 29.1669777 37.4445503 29.6682037 38.292212 30.45 38.81L31.65 39.61C32.6020283 40.2246665 33.7171397 40.5382915 34.85 40.51 35.981303 40.5108363 37.0851392 40.1615211 38.01 39.51 38.7890946 38.9774935 39.2652157 38.1033649 39.29 37.16 39.2189295 36.2262405 38.7159018 35.3792308 37.93 34.87L37.93 34.87z" opacity=".5"/>
      <path id="Shape" fill="#3D454C" fill-rule="nonzero" d="M39.33,31.62 C38.47,31.18 37.55,30.81 36.66,30.46 C34.66,29.67 32.82,28.92 32.08,27.53 C30.14,23.92 28.23,21.87 23.2,20.72 C19.02,19.77 16.89,17.85 13.89,14.8 C10.89,11.75 6.54,12.35 5.11,12.53 L4.82,12.53 C4.61795921,12.5135459 4.41568853,12.5588825 4.24,12.66 L4.18,12.66 C4.10827308,12.7304937 4.04759038,12.8114039 4,12.9 C3.9711444,12.9291056 3.94747083,12.962925 3.93,13 L3.86,13.08 C3.86423982,13.1098502 3.86423982,13.1401498 3.86,13.17 C3.86,13.17 3.86,13.23 3.86,13.27 C3.86,13.31 3.86,13.34 3.86,13.37 C3.85508267,13.4298992 3.85508267,13.4901008 3.86,13.55 C3.85475916,13.6132249 3.85475916,13.6767751 3.86,13.74 C3.8555743,13.7965803 3.8555743,13.8534197 3.86,13.91 C3.88188832,13.9737243 3.91215359,14.0342548 3.95,14.09 C3.9776199,14.1374428 4.01122915,14.1811348 4.05,14.22 C4.09352907,14.2768082 4.14791631,14.3243971 4.21,14.36 L4.29,14.44 L4.38,14.44 L4.38,14.44 C4.38,14.44 5.68,15.05 4.88,17.79 C4.66,18.56 4.38,19.33 4.12,20.08 C3.12,22.92 2.06,25.86 3.92,28.6 C5.78,31.34 7.24,33.65 6.92,35.45 C6.4,38.19 8.17,41.38 11.92,44.45 C12.6332462,45.0431487 13.0319707,45.9328952 13,46.86 C13.1178687,48.887557 14.1852833,50.7407074 15.88,51.86 C17.4931729,52.9064441 19.2924997,53.6329647 21.18,54 C22.84,54.44 24.56,54.89 25.13,55.63 C25.3167338,55.879011 25.6087666,56.0268757 25.92,56.03 C26.0161531,56.0440911 26.1138469,56.0440911 26.21,56.03 C26.6089294,55.9101593 26.8917922,55.5555849 26.92,55.14 C27.0944178,51.8446817 26.5093675,48.553346 25.21,45.52 C24.4205469,43.9537862 23.535544,42.4375925 22.56,40.98 C21.6429655,39.6483851 20.8369192,38.2436572 20.15,36.78 C21.635609,37.9977568 23.3641602,38.8841933 25.22,39.38 C26.2841467,39.6037317 27.2705782,40.1038455 28.08,40.83 C30.297905,42.937105 33.2617298,44.0773143 36.32,44 C37.584604,44.0126393 38.8401287,43.7852875 40.02,43.33 C41.6407344,42.798124 43.3193698,42.4623969 45.02,42.33 C45.3063166,42.3062841 45.5686023,42.1605698 45.74,41.93 C45.9116016,41.7013253 45.977119,41.4101368 45.92,41.13 C45.52,39.11 42.5,33.26 39.33,31.62 Z M23.41,46.29 C24.3491573,48.4233659 24.8621141,50.719782 24.92,53.05 C23.8722854,52.6294787 22.7920436,52.2950385 21.69,52.05 C20.0714984,51.7435414 18.5226874,51.1436737 17.12,50.28 C15.842759,49.4894364 15.0467176,48.1113836 15,46.61 C14.9579215,45.1576479 14.2682426,43.8003011 13.12,42.91 C10.02,40.4 8.45,37.83 8.82,35.91 C9.3,33.36 7.69,30.74 5.54,27.57 C4.24,25.66 5,23.57 5.96,20.84 C6.24,20.07 6.52,19.27 6.76,18.44 C7.03685695,17.5752143 7.14879811,16.6661164 7.09,15.76 C8.97,17.18 9.9,19.51 10.81,21.76 C11.2954777,23.1333031 11.9327581,24.4481132 12.71,25.68 C14.9630355,28.6483317 16.63873,32.0132891 17.65,35.6 C18.3741441,37.893699 19.4649277,40.0550039 20.88,42 C21.8104166,43.3768235 22.6553424,44.8095238 23.41,46.29 L23.41,46.29 Z M15.41,26.11 L14.32,24.51 C13.6457604,23.4039549 13.0957585,22.2268169 12.68,21 L12.68,20.88 C13.5574645,20.8514056 14.4216576,21.0998174 15.15,21.59 C15.9058102,22.038843 16.4927212,22.7241583 16.82,23.54 C17.0737056,24.1130936 17.0440929,24.771976 16.74,25.32 C16.4422258,25.7551316 15.9729309,26.0425293 15.45,26.11 L15.41,26.11 Z M39.28,41.49 C35.894515,42.642952 32.1489686,41.8268617 29.55,39.37 C28.5156866,38.3710278 27.2244466,37.6786739 25.82,37.37 C23.54,36.64 20.96,35.81 18.22,31.12 C17.7145392,29.9960153 17.1469972,28.9009932 16.52,27.84 C17.282645,27.5692265 17.9358346,27.0565078 18.38,26.38 C19.0232085,25.3116689 19.119742,24.0010414 18.64,22.85 C18.169677,21.6021948 17.2970729,20.5466253 16.16,19.85 C14.8832258,19.0208363 13.3357302,18.7163522 11.84,19 C11.1388219,17.2689735 10.0670474,15.7125112 8.7,14.44 C10.1186568,14.5866468 11.4466409,15.2066076 12.47,16.2 C15.63,19.41 18.06,21.6 22.76,22.67 C27.12,23.67 28.56,25.2 30.32,28.48 C31.4,30.48 33.7,31.43 35.92,32.31 C36.76,32.65 37.64,33 38.41,33.4 C40.47,34.47 42.75,38.28 43.64,40.49 C42.1537024,40.6584115 40.6911314,40.9938636 39.28,41.49 Z"/>
      <path id="Path" fill="#3D454C" fill-rule="nonzero" d="M14.48 39.44C13.6279083 39.2570328 12.8892119 38.7302775 12.438596 37.9842999 11.9879801 37.2383223 11.8654567 36.3393609 12.1 35.5 12.1610183 34.9914103 11.8278565 34.5189471 11.3283068 34.4056472 10.8287571 34.2923473 10.324366 34.5748499 10.16 35.06 9.7936277 36.4104265 9.99704354 37.8520149 10.7227761 39.0483396 11.4485086 40.2446643 12.6330637 41.0910593 14 41.39 14.0763511 41.3998366 14.1536489 41.3998366 14.23 41.39 14.7006972 41.4037136 15.1171845 41.0871833 15.23 40.63 15.3483732 40.0948242 15.0138785 39.5640928 14.48 39.44zM9.49 27.79C8.73364417 27.3681312 8.1707262 26.6689655 7.92 25.84 7.70623026 24.9942459 7.85870238 24.0975646 8.34 23.37 8.58840172 22.8951496 8.41832371 22.3088937 7.95436025 22.0407068 7.49039678 21.7725198 6.89749598 21.9177474 6.61 22.37 5.86493215 23.5624106 5.64086759 25.0079884 5.99 26.37 6.3816571 27.7192914 7.29116206 28.8588687 8.52 29.54 8.6665009 29.6230601 8.83160597 29.6677761 9 29.67 9.46077413 29.6770237 9.86668707 29.3682585 9.9829135 28.9223285 10.0991399 28.4763985 9.89558187 28.0087818 9.49 27.79L9.49 27.79zM16.06 45.59C16.1038616 48.3436574 18.3661958 50.5433974 21.12 50.51L21.34 50.51C21.8922847 50.51 22.34 50.0622847 22.34 49.51 22.34 48.9577153 21.8922847 48.51 21.34 48.51 20.5103025 48.5654386 19.6948141 48.2740158 19.0881692 47.7052862 18.4815243 47.1365566 18.1381499 46.3415455 18.14 45.51 18.14 44.9577153 17.6922847 44.51 17.14 44.51 16.8467206 44.4854279 16.5575082 44.5912952 16.3494017 44.7994017 16.1412952 45.0075082 16.0354279 45.2967206 16.06 45.59L16.06 45.59z"/>
      <path id="Shape" fill="#3D454C" fill-rule="nonzero" d="M36.12 32.89C33.37 31.59 30.51 32.28 29.47 34.49 28.9294542 35.6425616 28.9854475 36.9864008 29.62 38.09 30.2733335 39.2212157 31.2672794 40.1171669 32.46 40.65 33.303619 41.0522359 34.2254148 41.2639075 35.16 41.27 35.5329089 41.2740273 35.9051347 41.23714 36.27 41.16 37.5108506 40.9744503 38.5773954 40.1822079 39.1134567 39.0478459 39.649518 37.9134839 39.5844566 36.5864825 38.94 35.51 38.3045649 34.3574159 37.3161326 33.4390852 36.12 32.89L36.12 32.89zM37.3 38.19C37.0065794 38.7335793 36.4718313 39.1049322 35.86 39.19 34.9934401 39.3491699 34.0986285 39.2228436 33.31 38.83 32.5036185 38.4808386 31.8281466 37.8858634 31.38 37.13 31.0628839 36.5841334 31.0221073 35.9205879 31.27 35.34 31.92 33.98 33.77 33.98 35.27 34.69 36.0693468 35.0537409 36.7315501 35.6633884 37.16 36.43 37.4863872 36.960211 37.5384614 37.6148579 37.3 38.19zM29.49 29.78C28.7707504 27.0858777 26.4796018 25.1039152 23.71 24.78 22.3851646 24.6239745 21.0697379 25.1386643 20.2025801 26.1523557 19.3354223 27.166047 19.0306714 28.5453149 19.39 29.83 19.7440656 31.1494125 20.5030133 32.3245574 21.56 33.19 22.5944165 34.099135 23.8967263 34.646737 25.27 34.75L25.57 34.75C26.7624562 34.7893223 27.9102165 34.2942819 28.7 33.4 29.5291663 32.390109 29.823035 31.0435205 29.49 29.78zM27.18 32.08C26.7122587 32.562525 26.0481146 32.8023548 25.38 32.73 24.4419093 32.6461507 23.5553026 32.2641739 22.85 31.64 22.1225909 31.0506175 21.5951781 30.2507663 21.34 29.35 21.1549692 28.6861625 21.3041529 27.9738107 21.74 27.44 22.1485045 26.9766374 22.7426039 26.7199278 23.36 26.74L23.56 26.74C24.4915453 26.8439715 25.3664732 27.2394389 26.06 27.87 26.7934029 28.4634281 27.3101865 29.2825477 27.53 30.2 27.7203053 30.8465988 27.5902454 31.5452059 27.18 32.08L27.18 32.08z"/>
      <path id="Path" fill="#3D454C" fill-rule="nonzero" d="M28.18,15 C28.7265297,15.0709328 29.227428,14.6863144 29.3,14.14 C29.434809,13.0914985 29.9684408,12.1352589 30.79,11.47 C31.4982438,10.7295018 32.5775747,10.4783121 33.54,10.83 C34.0661824,11.0508337 34.5323301,11.3935894 34.9,11.83 C35.32,12.32 35.29,12.76 35.19,13.63 C35.19,13.82 35.19,14.03 35.13,14.25 L35.13,14.25 L35.13,14.25 C35.1250275,14.3199117 35.1250275,14.3900883 35.13,14.46 C35.1212249,16.8040483 35.8487856,19.0916671 37.21,21 C37.5345963,21.4421183 38.1547379,21.5402702 38.6,21.22 C38.8152922,21.0638731 38.9595264,20.8284191 39.000811,20.5656989 C39.0420956,20.3029786 38.9770297,20.0346346 38.82,19.82 C38.5956364,19.501904 38.3950901,19.1676602 38.22,18.82 C38.7024392,18.9698298 39.1979855,19.0736266 39.7,19.13 C40.4485649,19.1088795 41.1725016,19.3984542 41.7,19.93 C42.7,21.11 42.51,21.78 42.45,22 C42.1985553,22.68522 41.7408859,23.2756486 41.14,23.69 C40.2626151,24.4089132 39.1212598,24.7215137 38,24.55 C35.81,24.29 33.51,22.67 31.52,20 C31.3197292,19.6820584 30.9581283,19.5032225 30.5838929,19.5370321 C30.2096575,19.5708417 29.8859631,19.8115894 29.7459176,20.1602762 C29.6058721,20.508963 29.6731169,20.9067263 29.92,21.19 C32.23,24.31 35.02,26.19 37.76,26.54 C38.038929,26.5713913 38.3193167,26.5880811 38.6,26.59 C39.9978827,26.607203 41.3560125,26.1249428 42.43,25.23 C43.3677395,24.5492332 44.0674579,23.590619 44.43,22.49 C44.7115706,21.0964724 44.2759973,19.6545748 43.27,18.65 C42.424353,17.736963 41.2442091,17.2064396 40,17.18 C39.1111028,17.1909176 38.2584669,16.8280938 37.65,16.18 C37.2686634,15.7461636 37.0808547,15.175514 37.13,14.6 C37.13,14.6 37.13,14.55 37.13,14.52 L37.13,14.52 C37.13,14.34 37.13,14.14 37.18,13.93 C37.4509123,12.773052 37.1824258,11.555668 36.45,10.62 C35.874049,9.91494796 35.1365232,9.35923086 34.3,9 C32.6464489,8.35221548 30.7662558,8.74474014 29.51,10 C28.3029235,10.9848771 27.5191815,12.3948969 27.32,13.94 C27.2834562,14.464466 27.6592619,14.9276683 28.18,15 Z"/>
      <path id="Shape" fill="#3D454C" fill-rule="nonzero" d="M57.51,15.36 C56.6764233,12.9284702 55.1717892,10.78246 53.17,9.17 L53.17,9.17 C51.3632215,7.42090372 49.0357709,6.30808043 46.54,6 C44.5000843,5.82238371 42.4978028,6.62849706 41.15,8.17 C39.03,10.58 39.09,12.81 41.35,14.8 C42.3088252,15.580276 43.5418514,15.94081 44.77,15.8 C45.6542452,15.6620797 46.555504,15.905565 47.25,16.47 C47.8252291,17.0281859 48.1032364,17.8251401 48,18.62 C47.9125688,19.8049108 48.3645131,20.9660035 49.23,21.78 C50.1548088,22.6303082 51.3543329,23.1200547 52.61,23.16 C54.0069288,23.1237168 55.3152725,22.4677125 56.18,21.37 C57.6661114,19.7486144 58.1732339,17.4570311 57.51,15.36 L57.51,15.36 Z M54.72,20.05 C54.259548,20.7111784 53.5204884,21.1237294 52.7160284,21.1686386 C51.9115683,21.2135477 51.1311825,20.8858201 50.6,20.28 C50.11,19.85 50.07,19.42 50.04,18.54 C50.0490398,18.1761901 50.0356812,17.8121687 50,17.45 C50.1589828,17.598258 50.3061,17.7587495 50.44,17.93 C50.6288314,18.1884142 50.9299461,18.3408303 51.25,18.34 C51.6161961,18.319371 51.9417137,18.099926 52.0981875,17.7682016 C52.2546612,17.4364772 52.2169788,17.0457115 52,16.75 C50.4598095,14.8573086 48.140006,13.7710514 45.7,13.8 L45.7,13.8 C45.49,13.8 45.29,13.8 45.1,13.8 L44.74,13.8 C44.0121297,13.9232649 43.2653668,13.7464949 42.67,13.31 C41.25,12.06 41.25,11.1 42.67,9.51 C43.5938386,8.43010185 44.9851015,7.86688281 46.4,8 C48.4575472,8.28417584 50.3687024,9.2239733 51.85,10.68 L51.85,10.68 C53.5567483,12.0435304 54.8514832,13.8540822 55.59,15.91 C56.064743,17.3460881 55.7326325,18.9264763 54.72,20.05 Z"/>
      <circle id="Oval" cx="28.86" cy="17.45" r="1" fill="#3D454C" fill-rule="nonzero"/>
    </g>
  </g>
</svg>
