<svg xmlns="http://www.w3.org/2000/svg" width="64" height="64" viewBox="0 0 64 64" style="background:#fff">
  <g id="Butternut" fill="none" fill-rule="evenodd" stroke="none" stroke-width="1">
    <rect width="64" height="64" fill="#FFF"/>
    <g transform="translate(2 4)">
      <rect id="Rectangle" width="60" height="60" x="0" y="0"/>
      <path id="Path" fill="#E0673A" fill-rule="nonzero" d="M54.05,13.22 C51,9.89 46,9 41.66,10 C39.8067838,9.8823557 37.9903317,10.5544429 36.66,11.85 C31.5831077,17.6178528 25.6221536,22.5425595 19,26.44 C14.3,29.18 8.75,32.1 7.74,38 C6.7,44 11.92,50.4 17,53.13 C24.32,57.05 29.84,53 34.77,47.68 C40.37,41.68 46.1,35.68 51.57,29.54 C55.53,25.1 58.83,18.4 54.05,13.22 Z" opacity=".5"/>
      <path id="Shape" fill="#3D454C" fill-rule="nonzero" d="M52.29,14.41 C52.8399981,13.4956964 53.241645,12.5000172 53.48,11.46 C53.558671,11.1259228 53.4605192,10.7748412 53.22,10.53 L51.22,8.53 C51.0312812,8.34281349 50.775803,8.23846324 50.51,8.24 L50.29,8.24 C49.1994403,8.49788631 48.1588321,8.93372547 47.21,9.53 C46.2030012,8.68195835 44.9264878,8.22099518 43.61,8.22987052 C41.484509,8.33234773 39.467472,9.19882136 37.93,10.67 C37.79,10.79 37.62,10.93 37.43,11.07 C36.9917499,11.400044 36.5834979,11.76814 36.21,12.17 C34.8404323,13.8843111 33.3499602,15.4984323 31.75,17 L28.07,20.35 C24.5585312,23.4546763 20.6138444,26.0316921 16.36,28 C14.4477012,28.9191994 12.7894533,30.2924897 11.53,32 C8.05744732,36.7543027 8.18013557,43.2404214 11.83,47.86 C12.1409205,48.2401228 12.4748818,48.600801 12.83,48.94 C12.8992234,49.0177405 12.9763,49.0881148 13.06,49.15 L13.23,49.32 C13.2601404,49.3656984 13.2935617,49.4091461 13.33,49.45 C13.3871201,49.5064986 13.4551775,49.5507359 13.53,49.58 C15.7007565,51.4803581 18.4486608,52.5936117 21.33,52.74 L22.03,52.74 C25.4837296,52.7315375 28.7941609,51.3584813 31.24,48.92 C32.3994446,47.7730853 33.329406,46.4154774 33.98,44.92 C35.8864077,40.6601441 38.492415,36.7494431 41.69,33.35 L44.37,30.41 C45.9016727,28.6934332 47.574163,27.1079124 49.37,25.67 C49.536063,25.544494 49.6931153,25.4074909 49.84,25.26 L50.13,25 C53.68,22.07 54.52,17.83 52.29,14.41 Z M47.47,11.76 L47.73,11.57 C48.4812933,11.0168993 49.3241844,10.6005314 50.22,10.34 L51.41,11.53 C51.1393527,12.4428883 50.7130892,13.3021813 50.15,14.07 L50,14.26 C49.8196619,14.503328 49.611593,14.7248206 49.38,14.92 L49.38,14.92 L48.83,14.37 L49.07,14.13 C49.2547442,13.9437394 49.3588954,13.6923399 49.36,13.43 C49.3543799,13.0299248 49.1108257,12.6717116 48.7408485,12.519368 C48.3708712,12.3670245 47.9457003,12.4498803 47.66,12.73 L47.42,12.96 L47,12.56 C46.93,12.41 46.91,12.31 46.88,12.31 L46.88,12.31 C47,12.12 47.25,11.94 47.47,11.76 Z M48.88,23.47 L48.5,23.81 C48.39,23.91 48.28,24.02 48.16,24.11 C46.2652013,25.63184 44.4961407,27.3039199 42.87,29.11 L40.19,32.11 C36.8464759,35.6707559 34.1191822,39.7633863 32.12,44.22 C31.5741353,45.4933751 30.790089,46.6507768 29.81,47.63 C27.7157415,49.6550721 24.9131933,50.7818328 22,50.7700923 L21.43,50.7700923 C20.6074221,50.7163646 19.7928598,50.5755761 19,50.35 C19.8411585,50.0562619 20.6039561,49.5739549 21.23,48.94 C21.5446698,48.5409216 21.5099656,47.9692923 21.1493281,47.6112125 C20.7886905,47.2531326 20.2168287,47.2224978 19.82,47.54 C19.0753562,48.2906564 18.0572267,48.7058511 17,48.69 C16.0769294,48.6876751 15.1830713,48.3661689 14.47,47.78 C13.4110926,46.4953885 13.5020126,44.6163746 14.68,43.44 C14.8647442,43.2537394 14.9688954,43.0023399 14.97,42.74 C14.9688954,42.4776601 14.8647442,42.2262606 14.68,42.04 C14.2899625,41.6522764 13.6600375,41.6522764 13.27,42.04 C12.6593289,42.6832902 12.2222974,43.4713235 12,44.33 C10.3638999,40.6781558 10.802382,36.4305986 13.15,33.19 C14.211615,31.7452057 15.612934,30.5843091 17.23,29.81 C21.652909,27.7681296 25.7530537,25.0897278 29.4,21.86 L33.09,18.51 C34.7600626,16.937743 36.3141235,15.2466573 37.74,13.45 C38.0289051,13.1597488 38.3398328,12.892284 38.67,12.65 L39.24,12.18 C40.4037878,11.0198604 41.9419649,10.311023 43.58,10.18 C44.2883816,10.1679135 44.9844218,10.366285 45.58,10.75 L45.41,10.91 C44.7598641,11.6534421 44.7060501,12.746281 45.28,13.55 C45.3251946,13.6315218 45.3825157,13.705702 45.45,13.77 L48.34,16.67 L48.58,16.74 C48.7989325,16.8015497 49.0233146,16.8417376 49.25,16.86 L49.39,16.86 C49.5346731,16.8581908 49.6787718,16.8414351 49.82,16.81 C49.9899361,16.7795415 50.1548356,16.7256968 50.31,16.65 L50.42,16.59 C50.582051,16.5021647 50.7303038,16.3909751 50.86,16.26 L51.02,16.1 C52.19,18.6 51.4,21.38 48.88,23.47 Z"/>
      <circle id="Oval" cx="24.14" cy="46.33" r="1" fill="#3D454C" fill-rule="nonzero"/>
      <path id="Path" fill="#3D454C" fill-rule="nonzero" d="M42.61 13.71C39.12 14.49 36.89 17.35 34.9 20.11 34.15 21.11 35.9 22.11 36.63 21.11 38.31 18.78 40.18 16.29 43.14 15.63 44.39 15.35 43.86 13.42 42.61 13.71zM30.94 26C31.75 25 30.34 23.59 29.53 24.59 27.05 27.59 24.04 29.39 20.6 31.15 17.8 32.58 15.34 34.23 14.53 37.43 14.4380103 37.9390038 14.7493672 38.4341573 15.2479688 38.5717922 15.7465705 38.709427 16.2678475 38.4441151 16.45 37.96 17.45 33.96 21.93 32.91 25.06 31.07 27.3096198 29.748298 29.3016746 28.0306589 30.94 26L30.94 26zM38.65 27.85C33.2 31.85 29.45 37.25 25.85 42.85 25.16 43.93 26.85 44.94 27.58 43.85 30.97 38.54 34.51 33.3 39.66 29.55 40.7 28.83 39.7 27.09 38.65 27.85z"/>
    </g>
  </g>
</svg>
