<svg xmlns="http://www.w3.org/2000/svg" width="64" height="64" viewBox="0 0 64 64" style="background:#fff">
  <g id="Buttermilch" fill="none" fill-rule="evenodd" stroke="none" stroke-width="1">
    <rect width="64" height="64" fill="#FFF"/>
    <g transform="translate(2 4)">
      <rect id="Rectangle" width="60" height="60" x="0" y="0"/>
      <path id="Path" fill="#CCC" fill-rule="nonzero" d="M43.24,31.64 C43.15,27.36 37.58,26.44 34.05,28.26 C31.05,26.58 25.21,27.64 24.05,30.68 C23.25,32.72 22.4433333,34.7533333 21.63,36.78 C18.24,35.92 13.38,37.29 12.89,40.94 C12.3527512,44.9249594 12.3931674,48.9665814 13.01,52.94 C13.76,57.87 21.46,58.59 24.22,54.94 C24.74,54.26 25.22,53.58 25.65,52.88 C27.0187036,52.4334282 28.1456939,51.4473118 28.77,50.15 L29.66,47.93 C31.1372941,47.9927043 32.6072825,47.6904637 33.94,47.05 L34.33,47.05 C37.9,48.56 43.65,47.22 43.56,43.16 L43.24,31.64 Z" opacity=".5"/>
      <circle id="Oval" cx="23.05" cy="37.86" r="1" fill="#3D454C" fill-rule="nonzero"/>
      <path id="Shape" fill="#3D454C" fill-rule="nonzero" d="M49.33 20.08C48.8984732 19.0557777 48.4144993 18.0544523 47.88 17.08 46.601571 14.9149922 45.8035401 12.5004372 45.54 10 46.8549052 9.75461248 47.8086435 8.60760561 47.81 7.27L47.81 5.63C47.8073607 4.88830239 47.5094995 4.17818177 46.9822297 3.6565412 46.4549599 3.13490063 45.7416832 2.84467844 45 2.84992809L32.5 2.84992809C30.9646484 2.84992809 29.72 4.0946484 29.72 5.63L29.72 7.23C29.7027864 8.5858011 30.6661806 9.7562405 32 10 31.7434931 12.5176452 30.9452263 14.9499709 29.66 17.13 29.1255007 18.1044523 28.6415268 19.1057777 28.21 20.13 26.7895559 23.4717842 26.0680857 27.0689254 26.09 30.7L26.09 49.27C26.09 52.5837085 28.7762915 55.27 32.09 55.27L45.39 55.27C48.7037085 55.27 51.39 52.5837085 51.39 49.27L51.39 30.65C51.4308939 27.0230927 50.7298745 23.4261142 49.33 20.08zM31.72 7.23L31.72 5.63C31.72 5.1992179 32.0692179 4.85 32.5 4.85L45 4.85C45.208596 4.84732547 45.4095708 4.92832159 45.5580192 5.07489085 45.7064675 5.22146011 45.79 5.42138681 45.79 5.63L45.79 7.23C45.7873648 7.43687429 45.7026482 7.63422672 45.5544908 7.77863337 45.4063333 7.92304002 45.2068739 8.00266923 45 8L32.5 8C32.0730931 8.000065 31.7254732 7.6568718 31.72 7.23L31.72 7.23zM28.17 29.37L41.49 29.37C41.9870563 29.37 42.39 29.7729437 42.39 30.27L42.39 44.61C42.39 45.1070563 41.9870563 45.51 41.49 45.51L28.07 45.51 28.07 30.65C28.07 30.2233333 28.07 29.7933333 28.07 29.36L28.17 29.37zM49.45 49.27C49.45 51.479139 47.659139 53.27 45.45 53.27L32.11 53.27C29.900861 53.27 28.11 51.479139 28.11 49.27L28.11 47.51 41.49 47.51C43.0893476 47.5045133 44.3845133 46.2093476 44.39 44.61L44.39 30.27C44.3845133 28.6706524 43.0893476 27.3754867 41.49 27.37L28.28 27.37C28.5507564 25.1343661 29.1295794 22.9469535 30 20.87 30.4017312 19.9124726 30.8557483 18.9777317 31.36 18.07 32.8146687 15.6032139 33.7154835 12.8495868 34 10L43.55 10C43.8138044 12.8450932 44.7015342 15.5970556 46.15 18.06 46.6466751 18.9701013 47.0972447 19.904616 47.5 20.86 48.826692 23.9494812 49.5073126 27.2777162 49.5000583 30.64L49.45 49.27zM25.43 54.31L15.43 54.31C13.8283742 54.31 12.53 53.0116258 12.53 51.41L12.53 51.25 18.85 51.25C19.9545695 51.25 20.85 50.3545695 20.85 49.25L20.85 44C20.85 42.8954305 19.9545695 42 18.85 42L12.52 42 12.52 38.87 19.08 38.87C19.6322847 38.87 20.08 38.4222847 20.08 37.87 20.08 37.3177153 19.6322847 36.87 19.08 36.87L17 36.87 15.44 29.25C15.182508 28.104805 14.2906849 27.2089893 13.1466514 26.9463847 12.0026179 26.68378 10.8093993 27.1009893 10.0782559 28.0192502 9.3471125 28.9375111 9.20779616 30.1938651 9.72 31.25L12.55 36.89 9.55 36.89C8.99771525 36.89 8.55 37.3377153 8.55 37.89 8.55 38.4422847 8.99771525 38.89 9.55 38.89L10.55 38.89 10.55 51.41C10.5555014 54.1139133 12.7460867 56.3044986 15.45 56.31L25.45 56.31C26.0022847 56.31 26.45 55.8622847 26.45 55.31 26.45 54.7577153 26.0022847 54.31 25.45 54.31L25.43 54.31zM11.53 30.31C11.3765786 30.043566 11.3542443 29.7213677 11.4694374 29.4363137 11.5846304 29.1512597 11.8245451 28.9350388 12.12 28.85 12.4211124 28.7680229 12.7430487 28.8228984 13 29 13.260211 29.1519667 13.4450997 29.4057355 13.51 29.7L15 36.87 14.8 36.87 11.53 30.31zM18.84 44L18.84 49.27 12.52 49.27 12.52 44 18.84 44z"/>
    </g>
  </g>
</svg>
