<svg xmlns="http://www.w3.org/2000/svg" width="64" height="64" viewBox="0 0 64 64" style="background:#fff">
  <g id="Butter" fill="none" fill-rule="evenodd" stroke="none" stroke-width="1">
    <rect width="64" height="64" fill="#FFF"/>
    <g transform="translate(2 10)">
      <rect id="Rectangle" width="60" height="60" x="0" y="0"/>
      <path id="Path" fill="#B3B3B3" fill-rule="nonzero" d="M36.07 24.06L17 11C13.53 8.63 6.12 12.62 10.72 15.76L29.72 28.76C33.26 31.19 40.66 27.2 36.07 24.06zM51.35 26.66L44.7 34.79C43.7 36.05 42.64 37.32 41.6 38.58 41.1 39.2 40.6 39.81 40.09 40.42 39.8224033 40.5552286 39.5817816 40.7382367 39.38 40.96 35.64 40.02 31.23 44.83 35.95 46.96 40.23 48.86 44.17 47.15 47.23 43.64 51.09 39.18 54.74 34.46 58.48 29.88 61.55 26.09 53.84 23.61 51.35 26.66z" opacity=".5"/>
      <path id="Path" fill="#EBE53F" fill-rule="nonzero" d="M27.14 39.54L8.34 38.74C6.47 38.65 3.86 40 3.88974369 42.1 3.88974369 44.4 6.6 45.22 8.45 45.3L27.25 46.11C29.12 46.19 31.73 44.88 31.69 42.75 31.65 40.44 29 39.62 27.14 39.54zM38.37 29.19C31.0509008 28.6197704 23.7035343 28.5028805 16.37 28.84 10.81 29.09 10.87 35.66 16.48 35.4 23.8138103 35.0710603 31.1608786 35.191285 38.48 35.76 40.35 35.9 42.96 34.48 42.92 32.39 42.88 30 40.21 29.33 38.37 29.19z" opacity=".5"/>
      <circle id="Oval" cx="10.59" cy="42.18" r="1" fill="#3D454C" fill-rule="nonzero"/>
      <path id="Shape" fill="#3D454C" fill-rule="nonzero" d="M58.29,25.63 C57.8795595,25.3501675 57.3259269,25.4140482 56.99,25.78 C55.43,27.48 52.82,27.13 51.6,26.85 C51.68,23.09 50.91,21.63 50.6,21.21 C50.04,20.32 48.6,19.92 45.8,19.92 L37.8,19.92 C36.815735,19.9229639 35.8424697,20.1271454 34.94,20.52 L32.94,21.38 L27,18 L27,18 L14.34,10.8 C13.4010252,10.0588428 12.1114785,9.94635468 11.0583585,10.51374 C10.0052385,11.0811253 9.38984599,12.21993 9.49230606,13.411773 C9.59476613,14.603616 10.3954939,15.62068 11.53,16 L23.6,22.34 C23.4975367,23.2568778 23.9188314,24.1535785 24.69,24.66 L16.33,28.57 C16.1166832,28.6556297 15.9095251,28.7558674 15.71,28.87 L15.63,28.87 C15.63,28.87 15.63,28.87 15.63,28.87 C14.3211671,29.6308287 13.4914857,31.0073456 13.43,32.52 C13.43,33.18 13.38,33.89 13.38,34.52 C13.38,35.15 13.38,35.85 13.43,36.6 L8.65,36.6 C7.28431648,36.5877852 5.94409029,36.9697149 4.79,37.7 C4.25,38.12 3.62,38.63 3.07,39.11 C2.74,39.4 2.42,39.7 2.12,39.99 C1.75226176,40.2998838 1.53104694,40.7495664 1.51,41.23 L1.51,47.8 C1.4550332,48.3135569 1.63512982,48.8244432 2,49.19 C2.7466067,49.8230136 3.71464265,50.1324972 4.69,50.05 L25.21,50.05 C27.3206777,50.0667645 29.3701029,49.3411476 31,48 C31.39,47.61 31.77,47.21 32.09,46.85 C32.59,46.29 33.7,45.01 33.7,45.01 C33.8549056,44.8288582 33.9400183,44.5983445 33.94,44.36 L33.94,40.96 L39.59,40.96 C40.4303489,40.9442884 41.2310143,40.5996074 41.82,40 C45.1986836,37.465415 48.2252234,34.4926803 50.82,31.16 C51.1879061,30.688965 51.4165403,30.1243078 51.48,29.53 L51.54,28.86 C52.6753707,29.1155692 53.8476928,29.1630042 55,29 C52.4226322,32.6564205 49.5568203,36.1007453 46.43,39.3 C46.43,39.08 46.43,38.85 46.35,38.62 C46.2964102,38.2627344 46.0562922,37.9611972 45.7200962,37.8289746 C45.3839002,37.6967519 45.0027023,37.7539316 44.7200962,37.9789746 C44.43749,38.2040175 44.2964101,38.5627344 44.35,38.92 C44.6310974,39.996331 44.4224864,41.1418616 43.78,42.05 C42.78,43.19 40.65,43.1 39.96,43.05 L37,43.05 C36.4477153,43.05 36,43.4977153 36,44.05 C36,44.6022847 36.4477153,45.05 37,45.05 L39.9,45.05 L40.58,45.05 C42.3224714,45.159772 44.0321761,44.5403662 45.3,43.34 L45.57,43 C55.57,33 58.51,27.1 58.63,26.85 C58.8214432,26.4142406 58.6792265,25.9039334 58.29,25.63 Z M44.14,30 L44.14,30 L45.39,30.71 C44.6726738,31.3858651 43.7716035,31.8346607 42.8,32 C42.4473094,29.843933 40.5847231,28.2607347 38.4,28.26 L34.63,28.26 L25.85,23 C25.7282065,22.9299226 25.6385253,22.8151307 25.6,22.68 C25.5504313,22.5547251 25.5504313,22.4152749 25.6,22.29 L26.81,20.16 L44.14,30 Z M30.73,28.29 L21.66,28.29 L26.75,25.9 L30.73,28.29 Z M11.93,13.64 C11.787242,13.1191299 12.0838614,12.5790171 12.6,12.42 C12.845457,12.3496018 13.1089917,12.3820923 13.33,12.51 L25.12,19.21 L24.39,20.5 L12.39,14.22 C12.168118,14.0926286 12.0034937,13.8850587 11.93,13.64 Z M30.57,45.49 C30.28,45.83 29.92,46.2 29.57,46.56 C28.3250564,47.524764 26.7950089,48.0488493 25.22,48.05 L4.69,48.05 C4.28347445,48.0712645 3.87723912,48.0029897 3.5,47.85 L3.5,43.11 C3.89330512,43.1744612 4.29147367,43.2045748 4.69,43.2 L6.55,43.2 C7.10228475,43.2 7.55,42.7522847 7.55,42.2 C7.55,41.6477153 7.10228475,41.2 6.55,41.2 L4.69,41.2 C4.4224868,41.2022605 4.15514992,41.1855519 3.89,41.15 L4.39,40.7 C4.9,40.25 5.51,39.77 6.02,39.37 C6.82164975,38.9160855 7.72880019,38.6815371 8.65,38.69 L31.21,38.69 C31.03,38.86 30.85,39.04 30.66,39.2 C30.47,39.36 30.01,39.74 29.66,40.02 C28.3071875,40.8089145 26.7659532,41.216685 25.2,41.2 L14.52,41.27 C13.9677153,41.27 13.52,41.7177153 13.52,42.27 C13.52,42.8222847 13.9677153,43.27 14.52,43.27 L14.52,43.27 L25.2,43.2 C27.2076531,43.2228542 29.1794648,42.6674143 30.88,41.6 C31.25,41.31 31.6,41.02 31.88,40.75 L31.88,44 C31.57,44.36 30.92,45.1 30.57,45.49 Z M33.92,38.93 L33.92,38.41 C33.9246835,38.3801828 33.9246835,38.3498172 33.92,38.32 C33.9433211,38.1197356 33.9158076,37.9168232 33.84,37.73 C33.55,37.04 32.77,36.73 31.53,36.73 L15.41,36.73 C15.41,35.98 15.36,35.26 15.36,34.65 C15.36,34.04 15.36,33.33 15.36,32.65 C15.3953642,31.8569348 15.8127934,31.1301608 16.48,30.7 L17.05,30.43 C17.3065729,30.3374546 17.5772468,30.2900867 17.85,30.2899968 L38.4,30.2899968 C39.7168047,30.2879002 40.8056658,31.3152934 40.88,32.63 C40.88,33.3 40.95,33.99 40.95,34.63 C40.95,35.47 40.9,36.57 40.81,37.81 C40.7809841,38.0745201 40.668965,38.3230625 40.49,38.52 L40.18,38.74 C40.18,38.74 40.18,38.7899968 40.11,38.81 C39.9448528,38.9018746 39.7589829,38.9500001 39.57,38.9500001 L33.92,38.93 Z M49.44,29.33 C49.415689,29.5510629 49.3328401,29.7616371 49.2,29.94 C47.294463,32.3486989 45.1795508,34.5840807 42.88,36.62 C42.88,35.96 42.95,35.26 42.95,34.62 C42.95,34.44 42.95,34.24 42.95,34.05 C44.47,33.75 46.44,32.98 47.2,31.64 C47.4643542,31.1966914 47.5369787,30.6649111 47.401172,30.1669531 C47.2653652,29.6689951 46.9328157,29.2477168 46.48,29 L45,28.18 L45,28.18 L35.19,22.61 L35.78,22.36 C36.4281036,22.0701598 37.1300384,21.920232 37.84,21.92 L45.84,21.92 C46.8064313,21.8707205 47.7746508,21.9719282 48.71,22.22 C48.4817419,22.4476938 48.2341455,22.6551394 47.97,22.84 L46.1,24.09 C45.6478046,24.4052372 45.5359848,25.0269551 45.85,25.48 C46.0365173,25.7488622 46.3427764,25.9094615 46.67,25.91 C46.872845,25.9124601 47.0716412,25.85317 47.24,25.74 L49.07,24.48 L49.48,24.18 C49.6694538,25.8922554 49.6560274,27.620894 49.44,29.33 Z"/>
    </g>
  </g>
</svg>
