<svg xmlns="http://www.w3.org/2000/svg" width="64" height="64" viewBox="0 0 64 64" style="background:#fff">
  <g id="Bündnerfleisch" fill="none" fill-rule="evenodd" stroke="none" stroke-width="1">
    <rect width="64" height="64" fill="#FFF"/>
    <g id="1-6-Bündnerfleisch" transform="translate(2 4)">
      <rect id="Rectangle" width="60" height="60" x="0" y="0"/>
      <path id="Path" fill="#DF5362" fill-rule="nonzero" d="M12.62 49.79C13.3 48.25 15.96 47.79 17.62 48.13 20.2556077 48.6784177 22.9727215 48.7089852 25.62 48.22 27.35 47.91 29.95 48.47 30.57 50.02 31.19 51.57 29.31 52.72 27.68 53.02 23.5975177 53.7504437 19.4135043 53.6995433 15.35 52.87 13.76 52.53 11.93 51.36 12.62 49.79zM6.13 32.49C6.98 30.07 10.48 29.43 12.64 29.92 21.7585963 32.0096151 30.4222957 35.7366661 38.21 40.92 40.3 42.3 39.93 44.92 38.12 46.35 35.99 47.97 32.79 47.61 30.68 46.22 24.2773576 42.0049139 17.1616154 38.9891946 9.68 37.32 7.56 36.79 5.27 34.93 6.13 32.49z" opacity=".5"/>
      <path id="Shape" fill="#3D454C" fill-rule="nonzero" d="M40.51,45 C39.8229237,40.8288085 36.9587475,37.3429802 33,35.86 C33,35.86 33,35.86 32.94,35.86 L13.53,28.89 C10.2178989,27.7439057 6.57866874,29.3151359 5.14150781,32.5117145 C3.70434687,35.7082931 4.94446376,39.473246 8,41.19 L18.53,47 C14.78,47.42 11.53,48.64 11.53,50.77 L11.53,53.43 C11.53,56.14 16.77,57.43 21.63,57.43 C26.23,57.43 31.16,56.32 31.68,53.9 C32.153267,54.0121222 32.634844,54.0856965 33.12,54.12 L33.55,54.12 C35.5055777,54.1526968 37.3810776,53.3442289 38.7,51.9 C40.3165819,49.9925017 40.982111,47.4554018 40.51,45 Z M6.61,36.36 C6.21606547,34.6614629 6.77824996,32.8831742 8.0769602,31.7197463 C9.37567044,30.5563183 11.2048468,30.1923462 12.85,30.77 L27.37,36 C26.5026807,36.3749202 25.7253671,36.9306313 25.09,37.63 C23.4868489,39.5364439 22.8259079,42.0627076 23.29,44.51 C23.4318351,45.3382815 23.6701227,46.1471168 24,46.92 L22.41,46.83 L9,39.44 C7.80099996,38.8006168 6.93160205,37.6802212 6.61,36.36 Z M21.61,55.36 C16.47,55.36 13.61,53.99 13.51,53.36 L13.51,53.19 C14.5077764,53.6608836 15.5636756,53.9971572 16.65,54.19 L16.85,54.19 C17.2072656,54.2239402 17.5554995,54.0647034 17.7635254,53.7722724 C17.9715513,53.4798415 18.0077651,53.0986436 17.8585254,52.7722724 C17.7092857,52.4459012 17.3972656,52.2239402 17.04,52.19 C14.45,51.67 13.55,50.88 13.51,50.66 C13.6,50.07 16.51,48.66 21.61,48.66 C26.71,48.66 29.61,50.03 29.72,50.66 C29.72,50.88 28.82,51.66 26.36,52.16 C26.0027344,52.2332394 25.7116801,52.4915144 25.5964746,52.8375352 C25.481269,53.183556 25.5594145,53.5647539 25.8014746,53.8375352 C26.0435346,54.1103166 26.4127344,54.2332395 26.77,54.16 C27.7913742,53.9516814 28.7824876,53.6157108 29.72,53.16 L29.72,53.32 C29.65,54 26.79,55.38 21.64,55.38 L21.61,55.36 Z M37.19,50.5 C36.1700567,51.6102997 34.6917739,52.1831343 33.19,52.05 C32.6850313,52.0141432 32.1854423,51.9236136 31.7,51.78 L31.7,50.78 C31.7,48.95 29.31,47.78 26.27,47.24 C25.7415876,46.2857557 25.3829245,45.2469861 25.21,44.17 C24.8453896,42.3201051 25.3298681,40.4042129 26.53,38.95 C27.5499433,37.8397003 29.0282261,37.2668657 30.53,37.4 C34.29,37.6 37.87,41.15 38.53,45.3 C38.9002775,47.1484572 38.4192016,49.0654159 37.22,50.52 L37.19,50.5 Z"/>
      <path id="Path" fill="#3D454C" fill-rule="nonzero" d="M18.68 34.67L12.45 32.21C11.9363752 32.0056547 11.3543454 32.2563752 11.15 32.77 10.9456547 33.2836248 11.1963752 33.8656546 11.71 34.07L17.94 36.53C18.0577876 36.5765537 18.1833466 36.6003081 18.31 36.600003 18.7198038 36.6003967 19.0883727 36.350721 19.24 35.97 19.3383792 35.723369 19.3346309 35.4477372 19.2295816 35.2038726 19.1245322 34.9600079 18.9268077 34.7679351 18.68 34.67zM22.61 52.87C22.3735962 52.6358837 22.036236 52.5346756 21.71 52.6 21.6437653 52.6092708 21.5795467 52.6295504 21.52 52.66 21.4585666 52.6799704 21.4010516 52.7104195 21.35 52.75 21.2939761 52.7818269 21.2433485 52.8223289 21.2 52.87 21.1032961 52.9624871 21.0281789 53.0751629 20.98 53.2 20.8259407 53.5743702 20.9127947 54.0046924 21.2 54.29 21.5900375 54.6777236 22.2199625 54.6777236 22.61 54.29 22.7012768 54.193081 22.7756428 54.0815321 22.83 53.96 22.923 53.7152019 22.923 53.4447981 22.83 53.2 22.7756428 53.0784679 22.7012768 52.966919 22.61 52.87L22.61 52.87z"/>
      <path id="Shape" fill="#3D454C" fill-rule="nonzero" d="M18.24,19.41 C18.1341547,17.3083639 16.3992997,15.6586832 14.295,15.6586832 C12.1907003,15.6586832 10.4558453,17.3083639 10.35,19.41 C8.90116955,19.6489896 7.83826222,20.9015908 7.83826222,22.37 C7.83826222,23.8384092 8.90116955,25.0910104 10.35,25.33 L18.24,25.33 C19.4136377,25.5235956 20.5908074,25.0054943 21.2407816,24.0092823 C21.8907558,23.0130703 21.8907558,21.7269297 21.2407816,20.7307177 C20.5908074,19.7345057 19.4136377,19.2164044 18.24,19.41 L18.24,19.41 Z M18.24,23.36 L10.35,23.36 C9.79771525,23.36 9.35,22.9122847 9.35,22.36 C9.35,21.8077153 9.79771525,21.36 10.35,21.36 L11.52,21.36 C11.8383185,21.3553223 12.1353897,21.1993599 12.32,20.94 C12.5051167,20.6781913 12.5534621,20.3434923 12.45,20.04 C12.151415,19.2203696 12.4184986,18.3017639 13.11,17.77 C13.8164343,17.3108233 14.7348765,17.3436184 15.4067614,17.8520113 C16.0786463,18.3604043 16.3598614,19.2353498 16.11,20.04 C16.0036502,20.3419153 16.0482611,20.6764966 16.23,20.94 C16.4166758,21.2021956 16.7181426,21.3585117 17.04,21.36 L18.2,21.36 C18.7522847,21.36 19.2,21.8077153 19.2,22.36 C19.2,22.9122847 18.7522847,23.36 18.2,23.36 L18.24,23.36 Z"/>
      <path id="Path" fill="#E05362" fill-rule="nonzero" d="M50.63,21.92 C50.0928409,20.8393919 49.1458755,20.0184485 48,19.64 C46.7933874,19.2383571 45.5394128,18.996303 44.27,18.92 C43.1794223,18.8752543 42.0870849,18.9019781 41,19 C39.13,19.12 38.18,19.48 37.24,20.94 C36.3,22.4 36,24.66 37.35,26 C38.3,26.91 38.97,27.58 40.46,27.51 C41.69,27.45 42.94,27.23 44.17,27.15 C45.4,27.07 46.41,26.99 47.5,26.81 C48.6448609,26.7035463 49.6946057,26.1279966 50.4,25.22 C51.1014914,24.2545178 51.1907774,22.9734585 50.63,21.92 Z" opacity=".5"/>
      <path id="Path" fill="#E0A075" fill-rule="nonzero" d="M43.57,7.81 C36.28,7.43 30.12,14.69 30.57,21.67 C30.72,23.99 33.86,28.67 35.81,24.8 C37.48,21.42 38.99,18.16 43.29,17.86 C47.11,17.6 49.79,20.27 52,23 C53.29,24.6 55,23.43 55.21,21.62 C55.5625409,18.2315364 54.5212822,14.8454719 52.3257089,12.2405864 C50.1301356,9.63570087 46.9692349,8.03621377 43.57,7.81 Z" opacity=".5"/>
      <path id="Shape" fill="#3D454C" fill-rule="nonzero" d="M42.91,31.89 C35.54,31.89 30.41,27.14 30.41,22.89 C30.41,21 33,15.87 34,14 C33.62,13.65 33.28,13.3 33,13 L32.83,12.82 C30.83,10.72 30.43,8.71 30.43,5.74 C30.43,5.18771525 30.8777153,4.74 31.43,4.74 C34.33,4.74 36.28,5.14 38.3,7.24 C38.52,7.47 38.76,7.76 39.03,8.1 C41.5653102,7.27977188 44.2946898,7.27977188 46.83,8.1 C47.0545822,7.79793012 47.2984222,7.51066665 47.56,7.24 C49.56,5.14 51.56,4.74 54.43,4.74 C54.9822847,4.74 55.43,5.18771525 55.43,5.74 C55.43,8.74 55.04,10.74 53.02,12.82 L53.02,12.82 L52.86,12.99 C52.57,13.3 52.24,13.65 51.86,13.99 C52.86,15.9 55.44,21.05 55.44,22.9 C55.41,27.14 50.27,31.89 42.91,31.89 Z M32.43,6.72 C32.3618857,8.4648102 33.0209823,10.15963 34.25,11.4 L34.43,11.58 C34.8671992,12.0634698 35.3420183,12.5115385 35.85,12.92 C36.2399533,13.2194057 36.3544262,13.7578522 36.12,14.19 C34.37,17.42 32.41,21.82 32.41,22.87 C32.41,25.8 36.41,29.87 42.91,29.87 C49.41,29.87 53.41,25.78 53.41,22.87 C53.41,21.82 51.41,17.42 49.69,14.19 C49.4640142,13.7483762 49.5959568,13.2078372 50,12.92 C50.5083665,12.508348 50.9831962,12.0569254 51.42,11.57 L51.59,11.4 C52.8226771,10.1613223 53.4854783,8.4662897 53.42,6.72 C51.740429,6.6469767 50.1171801,7.33373586 49,8.59 C48.641027,8.98198302 48.3070358,9.39613212 48,9.83 C47.732034,10.1952653 47.2519918,10.3347647 46.83,10.17 C44.3244736,9.19704386 41.5455264,9.19704386 39.04,10.17 C38.6180082,10.3347647 38.137966,10.1952653 37.87,9.83 C37.5646893,9.39483088 37.2306102,8.98057274 36.87,8.59 C35.7457664,7.3317447 34.1156786,6.6451987 32.43,6.72 Z"/>
      <path id="Path" fill="#3D454C" fill-rule="nonzero" d="M41.48 24.4C40.9277153 24.4 40.48 23.9522847 40.48 23.4 40.48 23.3 40.29 23.3 40.29 23.4 40.29 23.9522847 39.8422847 24.4 39.29 24.4 38.7377153 24.4 38.29 23.9522847 38.29 23.4 38.3661096 22.2990371 39.2814095 21.4448275 40.385 21.4448275 41.4885905 21.4448275 42.4038904 22.2990371 42.48 23.4 42.48 23.9522847 42.0322847 24.4 41.48 24.4zM46.43 24.4C45.8777153 24.4 45.43 23.9522847 45.43 23.4 45.43 23.3 45.24 23.3 45.24 23.4 45.24 23.9522847 44.7922847 24.4 44.24 24.4 43.6877153 24.4 43.24 23.9522847 43.24 23.4 43.3161096 22.2990371 44.2314095 21.4448275 45.335 21.4448275 46.4385905 21.4448275 47.3538904 22.2990371 47.43 23.4 47.43 23.9522847 46.9822847 24.4 46.43 24.4z"/>
      <path id="Shape" fill="#3D454C" fill-rule="nonzero" d="M42.91,28.43 C38.35,28.43 34.77,26.11 34.77,23.15 C34.77,20.19 38.35,17.87 42.91,17.87 C47.47,17.87 51,20.19 51,23.15 C51,26.11 47.47,28.43 42.91,28.43 Z M42.91,19.87 C39.29,19.87 36.77,21.59 36.77,23.15 C36.77,24.71 39.29,26.43 42.91,26.43 C46.53,26.43 49,24.7 49,23.15 C49,21.6 46.52,19.87 42.91,19.87 L42.91,19.87 Z"/>
      <path id="Path" fill="#3D454C" fill-rule="nonzero" d="M39.46 16.08C40.0122847 16.08 40.46 15.6322847 40.46 15.08 40.46 14.5277153 40.0122847 14.08 39.46 14.08 38.9077153 14.08 38.46 14.5277153 38.46 15.08 38.46 15.6322847 38.9077153 16.08 39.46 16.08zM46 16.08C46.5522847 16.08 47 15.6322847 47 15.08 47 14.5277153 46.5522847 14.08 46 14.08 45.4477153 14.08 45 14.5277153 45 15.08 45 15.6322847 45.4477153 16.08 46 16.08z"/>
    </g>
  </g>
</svg>
