<svg xmlns="http://www.w3.org/2000/svg" width="64" height="64" viewBox="0 0 64 64" style="background:#fff">
  <g id="Cashewnüsse" fill="none" fill-rule="evenodd" stroke="none" stroke-width="1">
    <rect width="64" height="64" fill="#FFF"/>
    <g fill-rule="nonzero" transform="translate(2 12)">
      <path id="Path" fill="#E0A075" d="M22 41C16.12 40.8 11.61 36.61 12.24 30.49 12.87 24.37 3.45 23 2.83 29.11 1.71 40 9.48 50 20.7 50.39 26.78 50.6 28.15 41.16 22 41zM47.3 27.66C46.19 33.75 40.67 37.46 34.81 37.83 28.29 38.23 30.21 48.23 36.66 47.83 47.38 47.16 55.56 38.7 57.44 28.45 58.61 22 48.46 21.28 47.3 27.66zM39.84 17.62C33.26 12.57 24.45 13.81 18.84 19.62 16.84 21.73 17.7 25.55 19.84 27.2 22.36 29.13 25.39 28.32 27.42 26.2 28.94 24.61 31.66 24.95 33.24 26.2 38.78 30.41 45.37 21.85 39.84 17.62z" opacity=".5"/>
      <path id="Shape" fill="#3D454C" d="M46.4,23.29 C45.64,26.68 44.78,30.51 38.94,31.29 C36.6821878,31.4604825 34.5913797,32.5438028 33.15,34.29 C32.0068332,35.8268633 31.5212035,37.754993 31.8,39.65 C32.0848214,41.88197 33.2657288,43.9019094 35.0709775,45.2449994 C36.8762262,46.5880893 39.1503362,47.1386539 41.37,46.77 C47.19,46.01 51.7,43.43 54.37,39.31 C56.6069026,35.8119982 57.5382106,31.6370474 57,27.52 C56.26,21.87 53.15,18.11 49.61,18.57 C47.39,18.85 46.88,21.11 46.4,23.29 Z M52.94,22.29 C54.0556333,23.9274832 54.7432334,25.8183835 54.94,27.79 C55.4459786,31.4315713 54.6528938,35.1349941 52.7,38.25 C50.33,41.86 46.32,44.13 41.1,44.81 C39.4143238,45.1053274 37.6811827,44.6987981 36.3026431,43.6847217 C34.9241034,42.6706453 34.0199736,41.1371547 33.8,39.44 C33.5930398,38.072013 33.9344481,36.6776296 34.75,35.56 C35.8665344,34.2395833 37.4658348,33.421923 39.19,33.29 C46.43,32.35 47.59,27.17 48.36,23.74 C48.79,21.85 49.08,20.68 49.82,20.59 C51.0886338,20.5496113 52.2807632,21.1953481 52.94,22.28 L52.94,22.29 Z"/>
      <path id="Path" fill="#3D454C" d="M23.91,10.55 C23.3798066,10.7294925 23.0955075,11.3048066 23.275,11.835 C23.4544925,12.3651934 24.0298066,12.6494925 24.56,12.47 C31.56,10.1 37.12,14.84 39.12,18.59 C40.39,20.98 40.45,23.1 39.28,24 C38.88,24.31 38.05,23.82 36.73,23 C34.2,21.39 30.38,19 25.42,22.76 C23.42,24.27 21.37,24.45 19.74,23.26 C17.9701667,21.9264496 17.2664907,19.6010836 18,17.51 C18.0927087,17.2581687 18.0803108,16.9796431 17.9655938,16.7370448 C17.8508767,16.4944465 17.6434681,16.3081353 17.39,16.22 C17.1382532,16.1236601 16.8582748,16.1330311 16.6135333,16.2459888 C16.3687918,16.3589464 16.1800161,16.5659234 16.09,16.82 C15.0642964,19.7441723 16.0419057,22.9961371 18.51,24.87 C20.89,26.61 23.92,26.41 26.62,24.34 C30.46,21.41 33.19,23.15 35.62,24.69 C37.25,25.69 38.93,26.8 40.49,25.61 C41.8038765,24.4979697 42.3995098,22.7533406 42.04,21.07 C41.8624384,19.8676759 41.4730773,18.7063641 40.89,17.64 C39.3990903,14.9200804 37.1283507,12.7085472 34.37,11.29 C31.1311675,9.62354553 27.3511883,9.35612826 23.91,10.55 Z"/>
      <path id="Shape" fill="#3D454C" d="M25.39,39.77 C25.3276245,39.2774185 25.1963409,38.7960455 25,38.34 C24.0580258,36.2445516 22.0329715,34.8431832 19.74,34.7 C15.46,34.13 14.85,31.41 14.27,28.78 C13.88,27.03 13.48,25.23 11.66,24.99 C10.0739364,24.8395659 8.53468943,25.5784045 7.66,26.91 C6.50892094,28.5291011 5.81779267,30.4297038 5.66,32.41 C5.41570821,34.7039055 5.74204758,37.0226326 6.61,39.16 C7.42373177,41.1655145 8.76857072,42.9113851 10.5,44.21 C12.6501124,45.7644446 15.1709623,46.7265747 17.81,47 C19.8461637,47.3396567 21.9233025,46.6995573 23.4150939,45.272712 C24.9068853,43.8458666 25.6387471,41.799257 25.39,39.75 L25.39,39.77 Z M18.07,45 C12.07,44.21 9.58,41 8.51,38.37 C8.13592616,37.4494528 7.88054073,36.4850368 7.75,35.5 C7.33994628,32.9420476 7.88447649,30.3226082 9.28,28.14 C9.73701554,27.4136222 10.5420274,26.9807384 11.4,27 C11.82,27.06 12.06,28.11 12.3,29.23 C12.9,31.91 13.8,35.96 19.48,36.71 C21.05275,36.7717363 22.4618836,37.6996085 23.14,39.12 C23.6705137,40.5469927 23.4164056,42.1474945 22.47,43.34 C21.4265262,44.6690241 19.7312997,45.3085868 18.07,45 L18.07,45 Z"/>
      <path id="Path" fill="#3D454C" d="M42.69 40.38C42.1377153 40.5180712 41.8019289 41.0777153 41.9400001 41.63 42.0780713 42.1822847 42.6377153 42.5180711 43.19 42.38 45.2375011 41.8953156 47.150799 40.9591663 48.79 39.64 49.060366 39.4201169 49.1967613 39.07534 49.15 38.73 49.1281391 38.5391325 49.0517608 38.3586021 48.93 38.21 48.7600145 37.9994866 48.5119782 37.8668411 48.2425142 37.8423443 47.9730501 37.8178476 47.7051603 37.9035908 47.5 38.08 46.0879764 39.1953367 44.4446218 39.9811403 42.69 40.38zM50.07 34.67L50.07 34.67C49.8770766 34.9754621 49.8617701 35.3606441 50.0298463 35.6804517 50.1979225 36.0002593 50.5238467 36.2061062 50.8848463 36.2204517 51.2458459 36.2347973 51.5870766 36.0554621 51.78 35.75 51.9075045 35.551368 51.9606383 35.3140371 51.93 35.08 51.8949341 34.7796298 51.7258253 34.5112615 51.47 34.35 51.2430816 34.2025307 50.9660821 34.1533293 50.7022587 34.2136318 50.4384353 34.2739343 50.2103177 34.438591 50.07 34.67L50.07 34.67zM21.13 13.48C21.101162 13.297106 21.0253584 13.124825 20.91 12.98 20.7431201 12.7695463 20.4985963 12.6350702 20.2314942 12.6068552 19.964392 12.5786402 19.6971681 12.6590584 19.49 12.83L19.49 12.83C19.0564565 13.1834622 18.9915378 13.8214565 19.345 14.255 19.6984623 14.6885435 20.3364565 14.7534622 20.77 14.4 21.0436801 14.1781571 21.1804356 13.8286708 21.13 13.48z"/>
    </g>
  </g>
</svg>
