<svg xmlns="http://www.w3.org/2000/svg" width="64" height="64" viewBox="0 0 64 64" style="background:#fff">
  <g id="Champagner" fill="none" fill-rule="evenodd" stroke="none" stroke-width="1">
    <rect width="64" height="64" fill="#FFF"/>
    <g transform="translate(2 4)">
      <rect id="Rectangle" width="60" height="60" x="0" y="0"/>
      <path id="Path" fill="#D4BA39" fill-rule="nonzero" d="M48,38.5 C48.21386,38.0282231 48.3295377,37.5178804 48.34,37 C48.2655757,35.9899549 47.7814617,35.054242 47,34.41 C45.2374646,32.9536 42.8840517,32.4293801 40.67,33 L39.23,33.42 C37.8534235,33.70657 36.6074093,34.4331191 35.68,35.49 C35.2049767,36.1390167 34.936636,36.916159 34.91,37.72 C34.5193977,38.5674821 34.4833987,39.5358561 34.81,40.41 C36.0903724,43.0517216 38.6179597,44.868425 41.53,45.24 C43.0858775,45.5024459 44.6842739,45.3186823 46.14,44.71 C47.3711999,44.2046636 48.3501323,43.2293303 48.86,42 C49.2053834,40.7632208 48.8792351,39.435873 48,38.5 L48,38.5 Z" opacity=".5"/>
      <path id="Path" fill="#31E085" fill-rule="nonzero" d="M25.18,17.26 L19.87,5.52 C18.65,2.81 15.13,2 12.44,2.59 C10.17,3.09 7.11,5.32 8.34,8.05 L13.65,19.79 C14.87,22.5 18.4,23.32 21.08,22.72 C23.36,22.22 26.41,20 25.18,17.26 Z" opacity=".5"/>
      <path id="Path" fill="#B3B3B3" fill-rule="nonzero" d="M28.91,43.54 C28.4418592,40.3354134 28.2345122,37.0981248 28.29,33.86 C28.35,30.22 23.29,29.12 20,30.5 C17.21,27.62 9.7,28.5 10,32.97 C10.4759294,40.3368846 12.0534568,47.590814 14.68,54.49 C15.89,57.68 21.79,58.32 24.3,55.96 C27.14,56.03 30.3,54.41 30.69,51.76 L31.41,46.76 C31.61,45.33 30.28,44.19 28.91,43.54 Z" opacity=".5"/>
      <path id="Path" fill="#3D454C" fill-rule="nonzero" d="M37.48 54.0000104C37.9604366 54.0022545 38.3635109 53.6381874 38.41 53.16L38.94 48C38.9621654 47.7557992 38.8859287 47.5128538 38.728215 47.3250994 38.5705013 47.137345 38.3443614 47.0203183 38.1 47 37.8522096 46.9680016 37.6022686 47.0404483 37.41 47.2 37.220632 47.3633181 37.0993257 47.5916594 37.07 47.84L36.56 52.96C36.5192322 53.4634095 36.8876952 53.9073408 37.39 53.96L37.48 54.0000104zM34.13 28.2L10.94 28.2C10.5828685 28.163017 10.2358633 28.3327016 10.045756 28.637283 9.85564857 28.9418644 9.85564857 29.3281356 10.045756 29.632717 10.2358633 29.9372984 10.5828685 30.106983 10.94 30.07L12.94 30.07 15.49 55.56C15.6343175 56.9961236 16.8466614 58.0872331 18.29 58.08L33.51 58.08C33.8671315 58.116983 34.2141367 57.9472984 34.404244 57.642717 34.5943514 57.3381356 34.5943514 56.9518644 34.404244 56.647283 34.2141367 56.3427016 33.8671315 56.173017 33.51 56.21L18.22 56.21C17.7395634 56.2122545 17.3364891 55.8481874 17.29 55.37L15.29 35.67 33.85 35.67C34.3636248 35.67 34.78 35.2536248 34.78 34.74 34.78 34.2263752 34.3636248 33.81 33.85 33.81L15.18 33.81 14.8 30.07 34.13 30.07C34.6090984 30.0203866 34.9731754 29.6166604 34.9731754 29.135 34.9731754 28.6533396 34.6090984 28.2496134 34.13 28.2z"/>
      <path id="Path" fill="#3D454C" fill-rule="nonzero" d="M33.66,37.54 L18.4,37.54 C17.9209016,37.5896134 17.5568246,37.9933396 17.5568246,38.475 C17.5568246,38.9566604 17.9209016,39.3603866 18.4,39.41 L33.66,39.41 C34.0171315,39.446983 34.3641367,39.2772984 34.554244,38.972717 C34.7443514,38.6681356 34.7443514,38.2818644 34.554244,37.977283 C34.3641367,37.6727016 34.0171315,37.503017 33.66,37.54 L33.66,37.54 Z"/>
      <path id="Shape" fill="#3D454C" fill-rule="nonzero" d="M11.07 9.12C11.2320229 9.5774082 11.565507 9.95392248 12 10.17 12.1597134 10.2499656 12.3324252 10.3007631 12.51 10.32L14.38 15.68C14.9455137 17.2986958 14.9455137 19.0613042 14.38 20.68 13.8551987 22.2561754 13.7551713 23.9428444 14.09 25.57 14.1771918 26.0123956 14.5691742 26.3285105 15.02 26.32L15.22 26.32C15.7191395 26.2100519 16.0389627 25.7214331 15.94 25.22 15.7976094 24.5635045 15.7504592 23.8899307 15.8 23.22L20.94 24.22 21.12 24.22C21.4017907 24.2114501 21.6668814 24.0843518 21.85 23.87L25.13 19.87C25.8531187 20.6003991 26.4181739 21.4718096 26.79 22.43L27.39 24 26.02 24.5C25.6959391 24.6036137 25.4543213 24.8759131 25.39 25.21 25.3466326 25.5388565 25.4797982 25.866225 25.7404091 26.0714305 26.00102 26.2766359 26.3504912 26.3292963 26.66 26.21L28 25.79 28.07 25.9 28.14 25.99C28.171781 26.0402554 28.2124436 26.0843066 28.26 26.12L28.33 26.18 28.5 26.26 28.64 26.34C28.7297228 26.3499897 28.8202772 26.3499897 28.91 26.34 29.0194919 26.3403147 29.1280593 26.3199583 29.23 26.28 29.3074512 26.2500546 29.3786608 26.2059724 29.44 26.15L29.54 26.09C29.6240541 26.0103981 29.6919617 25.9153275 29.74 25.81 29.7988602 25.7027204 29.83 25.5823658 29.83 25.46 29.8288228 25.3383536 29.8120185 25.2173628 29.78 25.1L29.57 24.47 28.64 21.8C28.0654606 20.2328163 27.0771279 18.8505329 25.78 17.8 25.4469603 17.5117781 25.0962805 17.2445935 24.73 17 23.2913971 16.1186274 22.1894531 14.7808039 21.6 13.2L19.55 7.72C19.6414216 7.6044627 19.7217754 7.48058399 19.79 7.35 19.9907281 6.90118723 20.0086635 6.39181952 19.84 5.93L18.91 3.3C18.5619863 2.33883937 17.5035468 1.83864855 16.54 2.18L11.24 4.1C10.7583813 4.26770739 10.3698603 4.63081114 10.17 5.1 9.96115838 5.54984955 9.93957568 6.06423719 10.11 6.53L11.07 9.12zM23.7 18.59L23.79 18.65 20.79 22.29 16.19 21.4C16.2020031 21.3388011 16.2187195 21.2786218 16.24 21.22 16.9171133 19.2149178 16.8924294 17.0392041 16.17 15.05L14.34 9.9 17.89 8.6 19.76 13.74C20.4739196 15.7631097 21.866049 17.4767715 23.7 18.59L23.7 18.59zM17.13 3.94L18.06 6.57 12.85 8.43 12.85 8.43 11.92 5.85 17.13 3.94zM46.41 56.21L45.23 56.21C44.7947441 54.8256623 43.8891573 53.6370795 42.67 52.85L42.67 45.85C45.3211257 45.3774851 47.2167289 43.0207893 47.11 40.33L46.41 26.33C46.3971513 26.0787291 46.2841081 25.8430967 46.0961643 25.6758267 45.9082204 25.5085567 45.6610649 25.4236122 45.41 25.44 45.157742 25.450127 44.9204409 25.5623743 44.7525978 25.750962 44.5847547 25.9395498 44.5007944 26.1882704 44.52 26.44L44.77 31 38.71 31 38.89 27.26 41.69 27.26C42.0471315 27.296983 42.3941367 27.1272984 42.584244 26.822717 42.7743514 26.5181356 42.7743514 26.1318644 42.584244 25.827283 42.3941367 25.5227016 42.0471315 25.353017 41.69 25.39L38 25.39C37.4808523 25.39 37.06 25.8108523 37.06 26.33L36.36 40.33C36.2532711 43.0207893 38.1488743 45.3774851 40.8 45.85L40.8 52.85C39.5808427 53.6370795 38.6752559 54.8256623 38.24 56.21L37.07 56.21C36.5909016 56.2596134 36.2268246 56.6633396 36.2268246 57.145 36.2268246 57.6266604 36.5909016 58.0303866 37.07 58.08L46.41 58.08C46.8890984 58.0303866 47.2531754 57.6266604 47.2531754 57.145 47.2531754 56.6633396 46.8890984 56.2596134 46.41 56.21L46.41 56.21zM38.24 40.39L38.61 32.87 44.86 32.87 45.24 40.39C45.24 42.3229966 43.6729966 43.89 41.74 43.89 39.8070034 43.89 38.24 42.3229966 38.24 40.39L38.24 40.39zM40.24 56.21C40.5611041 55.500455 41.0736127 54.8944483 41.72 54.46 42.3609432 54.8977861 42.8694166 55.5031117 43.19 56.21L40.24 56.21z"/>
      <path id="Path" fill="#3D454C" fill-rule="nonzero" d="M42.67 40.34C42.67 40.8536248 42.2536248 41.27 41.74 41.27 41.2263752 41.27 40.81 40.8536248 40.81 40.34 40.81 39.8263752 41.2263752 39.41 41.74 39.41 42.2536248 39.41 42.67 39.8263752 42.67 40.34zM41.74 36.61C41.7399784 36.9910999 41.5098577 37.3344737 41.1573745 37.4793624 40.8048913 37.6242511 40.3998082 37.5419788 40.1317747 37.2710633 39.8637413 37.0001478 39.785806 36.5942079 39.9344562 36.2432944 40.0831064 35.892381 40.4289217 35.6659457 40.81 35.67 41.0583938 35.6699856 41.2964711 35.769339 41.4711702 35.9459167 41.6458694 36.1224943 41.7426709 36.3616206 41.74 36.61z"/>
    </g>
  </g>
</svg>
