<svg xmlns="http://www.w3.org/2000/svg" width="64" height="64" viewBox="0 0 64 64" style="background:#fff">
  <g id="Champignons" fill="none" fill-rule="evenodd" stroke="none" stroke-width="1">
    <rect width="64" height="64" fill="#FFF"/>
    <g transform="translate(2 8)">
      <rect id="Rectangle" width="60" height="60" x="0" y="0"/>
      <path id="Path" fill="#B3B3B3" fill-rule="nonzero" d="M35.42,29.1 C31.16,26.1 23.54,27.1 17.79,30.35 C14.52,31.62 11.38,33.49 9.44,36.1 C8.71158548,37.0702893 8.21861988,38.1965787 8,39.39 C7.31233896,41.1541679 7.26281762,43.1031864 7.86,44.9 C9.46,49.69 15.17,51.78 19.8,51.69 C28.17,51.51 47.11,37.27 35.42,29.1 Z" opacity=".5"/>
      <path id="Shape" fill="#3D454C" fill-rule="nonzero" d="M46.45,18.34 C46.4014574,18.2520157 46.340873,18.1712365 46.27,18.1 L46,17.87 C45,16.78 43.32,15.06 42.24,14.1 C32.62,5.56 23.24,4.89 14.32,12.1 C12.2616141,13.6316719 10.6747084,15.7105876 9.74,18.1 C8.74,21.04 9.95,24.85 12.59,27.16 C13.5997304,28.0943486 14.868768,28.7009765 16.23,28.9 C14.3624486,30.2484773 12.624905,31.7684094 11.04,33.44 C10.5,33.99 5.8,38.85 7.3,40.33 L11.07,44.06 C11.3143899,44.3453762 11.6981184,44.4696819 12.063419,44.3818101 C12.4287195,44.2939383 12.7139383,44.0087195 12.8018101,43.643419 C12.8896819,43.2781184 12.7653762,42.8943899 12.48,42.65 C11.25,41.42 10.35,40.53 9.06,39.26 C10.0603647,37.6921185 11.1981796,36.2163056 12.46,34.85 C14.0168278,33.2033832 15.7279956,31.7098786 17.57,30.39 C19.0058814,29.5082794 20.5187393,28.7585445 22.09,28.15 L23.69,27.44 C26.19,26.3 27.34,24.3 26.86,21.95 C26.0091384,18.7108178 23.1992287,16.3665503 19.86,16.11 C18.59,16.06 15.41,16.53 14.16,21.45 C14.0782679,21.8247909 14.2181329,22.2133048 14.52,22.45 C14.8395527,22.6915405 15.2724074,22.7190858 15.62,22.52 C17.17,21.63 18.62,21.52 19.62,22.1 C20.2828775,22.5104971 20.6669335,23.2517252 20.62,24.03 C20.4815896,25.139424 19.7377371,26.0798385 18.69,26.47 C17.0336494,27.2436649 15.070765,26.9045487 13.77,25.62 C11.77,23.84 10.77,20.87 11.5,18.7 C12.3311819,16.6822811 13.6968332,14.9294072 15.45,13.63 C23.75,7.06 32,7.69 41,15.6 C42,16.5 43.69,18.18 44.63,19.24 L44.74,19.35 C44.7701404,19.3956984 44.8035617,19.4391461 44.84,19.48 C52.48,28.31 53.03,36.48 46.53,44.54 C45.229266,46.2894867 43.4765167,47.6515839 41.46,48.48 C39.29,49.21 36.32,48.23 34.54,46.21 C33.2554513,44.909235 32.9163351,42.9463506 33.69,41.29 C34.0801615,40.2422629 35.020576,39.4984104 36.13,39.36 C36.9068695,39.3196283 37.6449528,39.7020549 38.06,40.36 C38.68,41.36 38.53,42.86 37.64,44.41 C37.4390205,44.7578697 37.4657386,45.1922421 37.7078365,45.5128582 C37.9499343,45.8334743 38.3604015,45.978077 38.75,45.88 C43.67,44.62 44.13,41.47 44.09,40.18 C43.8334497,36.8407713 41.4891822,34.0308616 38.25,33.18 C35.91,32.7 33.9,33.85 32.76,36.35 C32.54,36.83 32.3,37.35 32.05,37.95 C31.4414555,39.5212607 30.6917206,41.0341186 29.81,42.47 C28.4906256,44.3094542 27.0006941,46.0203643 25.36,47.58 C23.9927184,48.8449043 22.5132994,49.9829189 20.94,50.98 L19.62,49.62 C19.05,49.03 18.51,48.47 17.81,47.77 C17.4206392,47.3778779 16.7871222,47.3756393 16.395,47.765 C16.0028779,48.1543608 16.0006393,48.7878778 16.39,49.18 L18.18,51.01 L19.87,52.74 C20.0737488,52.9490557 20.358675,53.0586427 20.65,53.04 C22.6,53.04 26.28,49.47 26.76,49.04 C28.4293356,47.44931 29.9490514,45.7086663 31.3,43.84 C31.4894133,45.2110141 32.0810017,46.495109 33,47.53 C35.31,50.16 39.12,51.36 42.06,50.37 C44.4489804,49.4394583 46.5281245,47.8558436 48.06,45.8 C55.1,37.07 54.57,27.83 46.45,18.34 Z M18.3,19.75 C17.8456202,19.7556294 17.3931075,19.8092605 16.95,19.91 C17.4929559,18.7894588 18.6349468,18.0839969 19.88,18.1 C22.2742545,18.342336 24.2769582,20.023814 24.93,22.34 C25.22,23.76 24.54,24.86 22.93,25.61 L22.37,25.86 C22.6390745,25.3281741 22.7924407,24.7453825 22.82,24.15 C22.8857418,22.6371102 22.1182439,21.2095641 20.82,20.43 C20.060404,19.9714657 19.1871521,19.7358263 18.3,19.75 Z M34.53,37.25 C35.28,35.6 36.38,34.92 37.8,35.25 C40.0998876,35.9000455 41.7789646,37.8754302 42.05,40.25 C42.0592439,41.4959527 41.3510167,42.6361205 40.23,43.18 C40.5708466,41.8815719 40.3838962,40.501015 39.71,39.34 C38.9602217,38.1058331 37.6240423,37.348791 36.18,37.34 L36,37.34 C35.4046175,37.3675593 34.8218259,37.5209255 34.29,37.79 L34.53,37.25 Z"/>
      <circle id="Oval" cx="14.42" cy="45.91" r="1" fill="#3D454C" fill-rule="nonzero"/>
    </g>
  </g>
</svg>
