<svg xmlns="http://www.w3.org/2000/svg" width="64" height="64" viewBox="0 0 64 64" style="background:#fff">
  <g id="Cheddar" fill="none" fill-rule="evenodd" stroke="none" stroke-width="1">
    <rect width="64" height="64" fill="#FFF"/>
    <g transform="translate(2 14)">
      <rect id="Rectangle" width="60" height="60" x="0" y="0"/>
      <path id="Path" fill="#EBE53F" fill-rule="nonzero" d="M54.83,29.33 C53.73,23.86 50.02,20.65 44.83,18.96 C38,16.72 30.73,15.45 23.74,13.78 C22.1390202,13.3339559 20.4223993,13.8024744 19.27,15 C18.6160452,15.0901338 17.9906681,15.3259317 17.44,15.69 L16.66,16.24 C9.13,18.55 5.19,28.15 5.16,36.24 C4.93,36.75 4.7,37.24 4.48,37.77 C3.65,39.77 4.74,40.86 6.41,41.31 C10.91,48.7 26.41,45.62 33.61,45.42 C39.09,45.27 46.61,46.34 51.54,43.24 C56.25,40.26 55.81,34.15 54.83,29.33 Z" opacity=".5"/>
      <path id="Shape" fill="#3D454C" fill-rule="nonzero" d="M54.81,27.54 C55.3622847,27.54 55.81,27.0922847 55.81,26.54 L55.81,24.07 C55.81,24.07 55.81,24.07 55.81,24.07 C55.8204441,24.0070972 55.8204441,23.9429028 55.81,23.88 C55.8202632,23.8204389 55.8202632,23.7595611 55.81,23.7 C55.7859536,23.6466606 55.7557482,23.5963183 55.72,23.55 C55.6832324,23.4943172 55.6431606,23.4408881 55.6,23.39 C55.5572553,23.3542979 55.5102259,23.3240647 55.46,23.3 C55.4072285,23.2526386 55.3462196,23.2153554 55.28,23.19 C55.28,23.19 55.28,23.19 55.22,23.19 L37.66,17.32 C37.3982746,17.2334481 37.1124288,17.2587762 36.87,17.39 C36.6305969,17.5183434 36.4537054,17.7385552 36.38,18 C36.2388334,18.4920342 35.7918415,18.8333734 35.28,18.84 C34.6503954,18.84 34.14,18.3296046 34.14,17.7 C34.1405178,17.5627447 34.1676874,17.4268963 34.22,17.3 C34.3284252,17.0478274 34.3284252,16.7621726 34.22,16.51 C34.1047912,16.2595637 33.8913114,16.0677937 33.63,15.98 L22.63,12.33 C22.3830105,12.2484992 22.113985,12.2664342 21.88,12.38 L6.37,19.84 C6.32229083,19.8711581 6.27862502,19.9081061 6.24,19.95 C6.19809326,19.9659346 6.15789176,19.9860354 6.12,20.01 C6.12,20.01 6.12,20.01 6.12,20.01 C6.07080585,20.067037 6.03036385,20.1310702 6,20.2 C5.96429789,20.2427447 5.93406469,20.2897741 5.91,20.34 C5.90115399,20.4164115 5.90115399,20.4935885 5.91,20.57 C5.91,20.62 5.91,20.66 5.91,20.7 L5.91,45.26 C5.91,45.8122847 6.35771525,46.26 6.91,46.26 L18.44,46.26 C18.9922847,46.26 19.44,45.8122847 19.44,45.26 C19.44,43.5479173 20.8279173,42.16 22.54,42.16 C24.2520827,42.16 25.64,43.5479173 25.64,45.26 C25.64,45.8122847 26.0877153,46.26 26.64,46.26 L46.56,46.26 C47.1122847,46.26 47.56,45.8122847 47.56,45.26 C47.6163174,44.6475877 48.1300037,44.1789725 48.745,44.1789725 C49.3599963,44.1789725 49.8736826,44.6475877 49.93,45.26 C49.93,45.8122847 50.3777153,46.26 50.93,46.26 L54.81,46.26 C55.3622847,46.26 55.81,45.8122847 55.81,45.26 L55.81,32.88 C55.81,32.3277153 55.3622847,31.88 54.81,31.88 C53.6115421,31.88 52.64,30.9084579 52.64,29.71 C52.64,28.5115421 53.6115421,27.54 54.81,27.54 Z M53.81,33.75 L53.81,44.26 L51.81,44.26 C51.3746007,42.9593797 50.1565633,42.0826574 48.785,42.0826574 C47.4134367,42.0826574 46.1953993,42.9593797 45.76,44.26 L27.54,44.26 C27.0613038,41.8783973 24.9692348,40.1649876 22.54,40.1649876 C20.1107652,40.1649876 18.0186962,41.8783973 17.54,44.26 L7.81,44.26 L7.81,21.82 L20.89,22.72 C21.2472656,22.7450086 21.5907345,22.5775186 21.7910254,22.2806218 C21.9913163,21.983725 22.0180001,21.6025272 21.8610254,21.2806218 C21.7040507,20.9587164 21.3872656,20.7450086 21.03,20.72 L10.65,20 L22.4,14.36 L32.14,17.6 L32.14,17.7 C32.1398901,19.0730201 33.0318663,20.2868862 34.3422234,20.6969454 C35.6525804,21.1070047 37.077401,20.6181503 37.86,19.49 L46.99,22.49 L29,21.28 C28.4477153,21.2441015 27.9708985,21.6627153 27.935,22.215 C27.8991015,22.7672847 28.3177153,23.2441015 28.87,23.28 L53.87,25.01 L53.87,25.66 C52.0146166,26.1248084 50.7133484,27.7922809 50.7133484,29.705 C50.7133484,31.6177191 52.0146166,33.2851916 53.87,33.75 L53.81,33.75 Z"/>
      <path id="Shape" fill="#3D454C" fill-rule="nonzero" d="M14.49 25.73C12.280861 25.73 10.49 27.520861 10.49 29.73 10.49 31.939139 12.280861 33.73 14.49 33.73 16.699139 33.73 18.49 31.939139 18.49 29.73 18.49 28.669134 18.0685726 27.6517184 17.3184271 26.9015729 16.5682816 26.1514274 15.550866 25.73 14.49 25.73zM14.49 31.68C13.3854305 31.68 12.49 30.7845695 12.49 29.68 12.49 28.5754305 13.3854305 27.68 14.49 27.68 15.5945695 27.68 16.49 28.5754305 16.49 29.68 16.49 30.210433 16.2792863 30.7191408 15.9042136 31.0942136 15.5291408 31.4692863 15.020433 31.68 14.49 31.68zM30.48 34.6499842C29.1960437 34.645956 28.0364504 35.4168156 27.5432316 36.6022672 27.0500129 37.7877188 27.3205885 39.153614 28.2284872 40.0615128 29.136386 40.9694115 30.5022812 41.2399871 31.6877328 40.7467684 32.8731844 40.2535496 33.644044 39.0939563 33.6400158 37.81 33.6345104 36.0670591 32.2229409 34.6554896 30.48 34.6499842L30.48 34.6499842zM30.48 38.98C30.0058902 38.9840524 29.5762062 38.7015747 29.3919574 38.2647121 29.2077087 37.8278496 29.3053255 37.3229804 29.639142 36.9862861 29.9729586 36.6495918 30.4769713 36.547645 30.9153992 36.7281372 31.3538272 36.9086294 31.6399827 37.3358729 31.64 37.81 31.6453456 38.1220275 31.5258142 38.4232602 31.3079798 38.6467282 31.0901454 38.8701962 30.7920623 38.9973785 30.48 39L30.48 38.98zM42.15 26.7299908C39.9326414 26.7259537 37.9313675 28.0585444 37.0800159 30.1059564 36.2286643 32.1533685 36.6950383 34.5120525 38.2615177 36.0813957 39.8279971 37.6507388 42.1858253 38.1214201 44.234789 37.2738095 46.2837526 36.4261989 47.62 34.4273623 47.62 32.21 47.6145185 29.1896531 45.1703318 26.7409981 42.15 26.7299908zM42.15 35.7300145C40.7415684 35.7340472 39.4695683 34.8887433 38.9277782 33.588682 38.3859881 32.2886208 38.6812487 30.7901735 39.6757303 29.7928259 40.6702119 28.7954784 42.1678033 28.4959069 43.4694183 29.0339536 44.7710333 29.5720003 45.62 30.8415626 45.62 32.25 45.5928044 34.1501587 44.0503232 35.6793043 42.15 35.69L42.15 35.7300145z"/>
      <circle id="Oval" cx="24.98" cy="22.05" r="1" fill="#3D454C" fill-rule="nonzero"/>
    </g>
  </g>
</svg>
