<svg xmlns="http://www.w3.org/2000/svg" width="64" height="64" viewBox="0 0 64 64" style="background:#fff">
  <g id="Cherrytomaten" fill="none" fill-rule="evenodd" stroke="none" stroke-width="1">
    <rect width="64" height="64" fill="#FFF"/>
    <g transform="translate(2 4)">
      <rect id="Rectangle" width="60" height="60" x="0" y="0"/>
      <path id="Path" fill="#E05362" fill-rule="nonzero" d="M23 46.61C22 43.98 19.52 42.44 16.92 41.69 13.4906847 40.6554464 9.77736663 41.2289886 6.82 43.25 4.68992174 44.7095295 3.51857471 47.2091687 3.76 49.78 4.19623427 52.9056513 6.34178771 55.5258506 9.32 56.57 11.0429958 57.2226354 12.9168143 57.3683768 14.72 56.99 15.0999035 56.90367 15.4739803 56.7934509 15.84 56.66 17.8158774 56.2611577 19.6370714 55.307199 21.09 53.91 23.1163441 52.0697534 23.8654039 49.2068547 23 46.61zM44.07 39.75C42.6606538 38.8092754 41.0513937 38.2100828 39.37 38L39.26 37.95C35.13 36.46 30.26 37.12 27.2 40.38 25.2721498 42.5150181 24.818423 45.6003603 26.05 48.2 27.4970561 50.8593484 30.0709997 52.7199419 33.05 53.26 34.1657874 53.60398 35.3433464 53.69955 36.5 53.54 39.92 53.4 43.76 51.95 45.65 48.98 47.54 46.01 47.27 42 44.07 39.75zM28.54 15.84C22.65 10.78 12.54 11.94 8.59 18.84 4.47 26.15 9.82 33.62 17.28 35.3 22.23 36.41 25.28 30.21 19.56 28.92 13.36 27.53 16.65 15.76 22.26 20.58 25.49 23.37 32.78 19.48 28.54 15.84zM55.72 17C54.22 13.09 45.39 14.49 47.07 18.9 47.7775801 20.5739334 47.4921107 22.5027808 46.33 23.9 46.0274037 24.3222263 45.5681172 24.6054617 45.0549826 24.6862851 44.541848 24.7671085 44.0177345 24.6387676 43.6 24.33 41.4875009 23.4081551 39.0229077 23.9259605 37.46 25.62 36.08 27.43 37.46 29.26 39.15 30.08 43.5945707 32.1282339 48.8094188 31.5346739 52.68 28.54 56.0589771 25.7405761 57.2812324 21.1008309 55.72 17L55.72 17zM44.89 10.16C44.19 8.65 41.97 8.32 40.56 8.76 36.5479996 9.89962792 33.3495601 12.9336617 32 16.88 30.88 20.23 37.67 20.7 38.67 17.66 39.2974896 15.6839391 40.8094606 14.11282 42.76 13.41 44.1 13 45.6 11.7 44.89 10.16z" opacity=".5"/>
      <path id="Path" fill="#31E085" fill-rule="nonzero" d="M50.12,6.83 C44.74,12.23 39.25,17.5133333 33.65,22.68 C33.2725223,22.6248309 32.8872217,22.6661131 32.53,22.8 C28.6575799,24.3512793 24.5103903,25.0997466 20.34,25 C17.85,25 17.91,27.87 20.39,27.92 C23.2131815,27.9686494 26.0323567,27.6867318 28.79,27.08 C24.54,30.91 20.24,34.7 15.86,38.4 C13.96,40 17.28,41.63 18.72,40.4 C23.26,36.57 27.72,32.64 32.13,28.66 L31.56,35.66 C31.41,37.57 35.41,37.55 35.56,35.59 C35.83,32.26 36.1,28.92 36.36,25.59 C36.3842541,25.3639258 36.3351718,25.136044 36.22,24.94 C42.1333333,19.5133333 47.9233333,13.9466667 53.59,8.24 C55.15,6.68 51.39,5.55 50.12,6.83 Z" opacity=".5"/>
      <circle id="Oval" cx="10.43" cy="51.61" r="1" fill="#3D454C" fill-rule="nonzero"/>
      <path id="Shape" fill="#3D454C" fill-rule="nonzero" d="M36.54,30.31 C41.5105627,34.4189985 48.8710015,33.7205627 52.98,28.75 C57.0889985,23.7794373 56.3905627,16.4189985 51.42,12.31 L53.23,10.43 C53.5887639,10.0439001 53.7700115,9.52553188 53.73,9 C53.6726799,8.45764979 53.3802216,7.96778211 52.93,7.66 L51.59,6.74 C50.8338589,6.21501402 49.8067706,6.32582022 49.18,7 C48.6,7.63 47.67,8.62 46.47,9.89 C45.6286749,9.68259975 44.7664304,9.57188353 43.9,9.56 C37.4428343,9.57100968 32.2110097,14.8028343 32.2,21.26 C32.2,21.39 32.2,21.52 32.2,21.64 C31.48,21.84 30.77,22.01 30.08,22.13 C28.7640596,17.7175667 24.6842196,14.7107246 20.08,14.76 C17.3746426,14.7064335 14.7588624,15.7300296 12.8083691,17.6055039 C10.8578758,19.4809782 9.73252636,22.0546222 9.68,24.76 C9.77746972,30.2808582 14.2584453,34.7174677 19.78,34.76 C18.5329452,35.6753354 17.2377565,36.5232167 15.9,37.3 L15.61,37.3 L11.08,37.5 C10.7149013,37.5259003 10.3662333,37.6618808 10.08,37.89 C5.04463675,39.7296435 2.40172165,45.255335 4.13,50.33 C5.92884778,55.5838752 11.6033139,58.4300024 16.89,56.73 C19.4206251,55.9131275 21.5151239,54.1106328 22.7,51.73 C24.5697535,47.8999321 23.8202996,43.3070226 20.83,40.27 C24.4540545,37.681413 27.9264393,34.886811 31.23,31.9 C31.23,32.59 31.29,33.3 31.32,33.9 C27.6825917,35.4189655 25.2993923,38.9583704 25.26,42.9 C25.3125264,45.6053778 26.4378758,48.1790218 28.3883691,50.0544961 C30.3388624,51.9299704 32.9546426,52.9535665 35.66,52.9 C38.3653574,52.9535665 40.9811376,51.9299704 42.9316309,50.0544961 C44.8821242,48.1790218 46.0074736,45.6053778 46.06,42.9 C45.9850655,38.0533061 42.4678003,33.947729 37.69,33.13 C37.2844217,32.9548971 36.8623113,32.8208938 36.43,32.73 C36.4220096,31.921922 36.4587324,31.1140208 36.54,30.31 Z M45.83,18.45 L46.76,18.97 C46.7899495,18.9854356 46.8087689,19.0163068 46.8087689,19.05 C46.8087689,19.0836932 46.7899495,19.1145644 46.76,19.13 C46.0326103,19.536534 45.6742197,20.3851369 45.89,21.19 L45.95,21.41 C45.95,21.41 45.95,21.46 45.95,21.5 C45.9207734,21.5234 45.8792266,21.5234 45.85,21.5 L45.41,21.24 C44.9597723,20.9739115 44.4164579,20.9155691 43.92,21.08 C43.4250265,21.2369331 43.0232567,21.6021784 42.82,22.08 L42.4,23 L42.27,23 L41.36,22.4 C42.85,20.95 44.27,19.55 45.59,18.23 C45.6640999,18.3095207 45.7443481,18.3830815 45.83,18.45 L45.83,18.45 Z M53.83,21.25 C53.7935002,25.2598187 51.3652278,28.8600532 47.6611299,30.3961643 C43.957032,31.9322755 39.6935391,31.1071555 36.83,28.3 L36.83,28.3 L36.89,28.05 C36.89,27.85 36.99,27.66 37.05,27.47 C37.3472967,26.5801213 37.8630298,25.779016 38.55,25.14 L40.05,23.71 L41.27,24.52 C41.5663757,24.7165964 41.9143489,24.8209883 42.27,24.82 C42.4498708,24.8227623 42.6289583,24.7957302 42.8,24.74 C43.3124931,24.5933904 43.7336464,24.2271701 43.95,23.74 L44.34,22.82 L44.46,22.82 L45,23 C45.6320094,23.3634058 46.4203526,23.3121635 47,22.87 C47.561956,22.4266891 47.8057982,21.6912294 47.62,21 L47.62,20.79 C47.5966,20.7607734 47.5966,20.7192266 47.62,20.69 C48.1966722,20.369165 48.5530309,19.7599066 48.55,19.1 C48.548756,18.4438773 48.1982206,17.8380607 47.63,17.51 L46.87,17 C48.11,15.74 49.25,14.59 50.23,13.58 C52.5185358,15.4710844 53.8485109,18.2812521 53.86,21.25 L53.83,21.25 Z M33.9,21.06 C34.0249878,15.6271777 38.4657404,11.2885625 43.9,11.2899523 C44.2844349,11.2887481 44.6685551,11.3121294 45.05,11.36 C43.7,12.76 42.11,14.36 40.36,16.13 L37.53,18.92 C37.2567605,19.1662524 36.9696224,19.3966307 36.67,19.61 C36.53,19.71 36.39,19.81 36.24,19.9 L35.76,20.2 C35.54,20.32 35.32,20.44 35.09,20.55 L34.85,20.67 C34.56,20.8 34.26,20.94 33.93,21.06 L33.9,21.06 Z M20.07,33 C15.4068578,33.1119764 11.5308254,29.4326514 11.4,24.77 C11.5308254,20.1073486 15.4068578,16.4280236 20.07,16.54 C23.8298244,16.4779812 27.1929441,18.8686326 28.37,22.44 L28.14,22.44 L28.09,22.44 C27.6725546,22.484086 27.2905954,22.2019571 27.21,21.79 C27.1056976,21.2586438 26.7702073,20.8013256 26.2946822,20.5422998 C25.8191572,20.283274 25.2529866,20.2494434 24.75,20.45 L23.82,20.82 L23.71,20.76 L23.57,20.26 C23.4098929,19.6386756 22.9328141,19.1485484 22.316035,18.9717384 C21.6992558,18.7949284 21.0349659,18.9578632 20.57,19.4 C20.4381885,19.5239744 20.3238114,19.6652637 20.23,19.82 L20.12,20.02 C20.0890599,20.0378633 20.0509401,20.0378633 20.02,20.02 C19.3902258,19.8420769 18.7134562,20.0179605 18.25,20.48 L18.25,20.48 C17.7882724,20.9477237 17.609361,21.625303 17.78,22.26 L18.07,23.26 C18.0934,23.2892266 18.0934,23.3307734 18.07,23.36 L17.9,23.48 L16.46,24.48 C15.9379336,24.8091559 15.6209019,25.3828322 15.62,26 C15.6215242,26.4936233 15.8279627,26.9644479 16.19,27.3 C16.262988,27.3776304 16.3433679,27.4479628 16.43,27.51 L17.58,28.3 L18,30.09 C18.0747542,30.3831529 18.2187898,30.6540769 18.42,30.88 C18.6221578,31.0975981 18.872042,31.2653287 19.15,31.37 C19.7182448,31.5755127 20.3514386,31.4855916 20.84,31.13 L21.89,30.35 L23.16,30.35 C24.1,30.35 24.67,29.3 24.99,28.42 C25.1123577,28.0144957 25.476913,27.7300625 25.9,27.71 C26.52,27.71 27.34,27.64 28.18,27.57 L28.12,27.72 C27.22,28.52 26.35,29.28 25.5,30.01 L24.98,30.46 L23.98,31.33 L23.47,31.75 C23.14,32.02 22.82,32.29 22.47,32.54 L22.33,32.66 C21.5945043,32.8704265 20.8348526,32.9847103 20.07,33 L20.07,33 Z M21.15,51 C20.1675583,52.9574097 18.4369325,54.4356526 16.35,55.1 C11.9607548,56.4953549 7.26097005,54.127694 5.77,49.77 C4.48715548,46.0422987 6.05275618,41.9304926 9.49,40 C9.51404639,40.0533394 9.54425179,40.1036817 9.58,40.15 C9.59046831,40.1860882 9.60741046,40.2199725 9.63,40.25 C9.71657512,40.3894614 9.82076707,40.5171805 9.94,40.63 L10.11,40.78 C10.1350146,40.8124003 10.1350146,40.8575997 10.11,40.89 C10.0405703,41.0152527 10.0060353,41.1568462 10.01,41.3 L10.01,41.3 C10.009454,41.9135279 10.2628363,42.4999269 10.71,42.92 C10.7910111,43.0008489 10.8816975,43.0713828 10.98,43.13 C11.3850069,43.4161871 11.8748264,43.5571423 12.37,43.53 L13.19,43.53 L14.72,45.12 L14.72,45.12 C14.8142408,45.214018 14.9181508,45.2978164 15.03,45.37 L15.16,45.44 L15.44,45.56 L15.57,45.56 C15.7111021,45.5921754 15.8552798,45.6089403 16,45.61 L16,45.61 C16.1552649,45.6097033 16.3098537,45.5895396 16.46,45.55 L16.46,45.55 C17.1098748,45.3634643 17.6027846,44.8320459 17.74,44.17 L17.74,44.08 L17.87,44.08 L18.14,44.24 C18.2906146,44.3272712 18.4519782,44.394506 18.62,44.44 C19.1910513,44.5971326 19.8028478,44.4665662 20.26,44.09 L20.26,44.09 C20.3861248,43.9790637 20.5000986,43.8550334 20.6,43.72 L20.68,43.55 C20.7259736,43.469668 20.7660781,43.3861168 20.8,43.3 C22.1839411,45.650529 22.3149903,48.5336105 21.15,51 L21.15,51 Z M44.33,42.94 C44.1991746,47.6026514 40.3231422,51.2819764 35.66,51.17 C30.9909738,51.2818166 27.1145923,47.5889589 26.9999999,42.92 C26.9996381,41.0461403 27.6620291,39.2325351 28.87,37.8 L28.93,37.86 C29.0128988,37.9662239 29.1067493,38.0634262 29.21,38.15 C29.2508234,38.1895339 29.2942544,38.2262832 29.34,38.26 C29.5030722,38.3781466 29.6859473,38.4661975 29.88,38.52 L30.09,38.58 C30.1258992,38.5956613 30.1493508,38.6308387 30.15,38.67 C30.1237196,39.323042 30.4477097,39.940529 30.9999999,40.29 C31.5626781,40.629802 32.2673219,40.629802 32.83,40.29 L34.05,39.64 L36.13,40.4 C36.6811255,40.6046964 37.2973361,40.5289642 37.782495,40.1969088 C38.2676538,39.8648534 38.5613122,39.3178473 38.57,38.73 C38.5782496,38.5650769 38.5613905,38.3998578 38.52,38.24 L38.52,38.15 L38.62,38.04 L38.94,38.04 C39.706766,38.1187747 40.4385862,37.7005917 40.76,37 L40.76,37 C40.8263291,36.8394747 40.873326,36.6716287 40.9,36.5 C40.9,36.5 40.9,36.45 40.9,36.42 C40.9,36.39 40.9,36.37 40.9,36.35 C43.0395406,37.8555659 44.3177191,40.3038555 44.33,42.92 L44.33,42.94 Z M37.07,34.79 L37.07,34.79 C37.4163617,34.9636987 37.7504706,35.1608229 38.07,35.38 L38.5,35.7 L38.61,35.79 L39.06,36.19 C39.089207,36.2208504 39.089207,36.2691496 39.06,36.3 C39.06,36.36 39,36.36 38.97,36.3 L38.65,36.3 C38.0607392,36.2498017 37.4835438,36.4874626 37.1004701,36.9380208 C36.7173963,37.388579 36.5756723,37.9964865 36.72,38.57 L36.72,38.66 C36.7342906,38.6847521 36.7342906,38.7152479 36.72,38.74 C36.6939754,38.7618413 36.6560246,38.7618413 36.63,38.74 L34.55,37.99 C34.4476886,37.9482266 34.3399328,37.9212877 34.23,37.91 C33.822146,37.8360788 33.4012811,37.9068125 33.04,38.11 L32,38.81 C31.9759602,38.8267392 31.9440398,38.8267392 31.92,38.81 C31.8877104,38.797043 31.8674973,38.7647021 31.87,38.73 C31.9022597,37.8969809 31.3613838,37.1496638 30.56,36.92 L30.34,36.86 C30.3056623,36.8479205 30.2819818,36.8163465 30.28,36.78 C30.28,36.72 30.28,36.71 30.28,36.7 L32.6,35.43 C32.6726788,35.388563 32.7398704,35.3381693 32.8,35.28 C32.9755119,35.1028218 33.0665489,34.8588426 33.05,34.61 C33,33 32.9,31 33,30 C33.0128666,29.6511856 32.8160136,29.3284515 32.4999879,29.1802464 C32.1839622,29.0320412 31.8099553,29.0870617 31.55,29.32 C27.6129733,32.990916 23.4189868,36.3761816 19,39.45 L19,39.45 L18.67,39.67 C18.5712649,39.7287692 18.4887692,39.8112649 18.43,39.91 C18.3940076,39.9738048 18.3638839,40.0407464 18.34,40.11 C18.34,40.11 18.34,40.18 18.29,40.23 L18.29,40.23 C18.2459891,40.4598754 18.2964553,40.6977879 18.43,40.89 C18.8170965,41.4719443 19.1137962,42.1091745 19.31,42.78 C19.2775997,42.8050146 19.2324003,42.8050146 19.2,42.78 L18.93,42.61 C18.4222014,42.3108164 17.8026545,42.270008 17.26,42.5 C16.7161369,42.7349765 16.3206821,43.2199682 16.2,43.8 L16.2,43.89 C16.1957825,43.921224 16.171224,43.9457825 16.14,43.95 C16.1113727,43.9628343 16.0786273,43.9628343 16.05,43.95 L14.52,42.35 C14.4479123,42.2813193 14.3710535,42.2178273 14.29,42.16 L14.24,42.16 C14.1422675,42.0936702 14.0384703,42.0367492 13.93,41.99 L13.93,41.99 L13.61,41.89 L13.61,41.89 L13.35,41.89 L13.15,41.89 L12.39,41.89 C12.2528536,41.8950166 12.1194732,41.8445483 12.02,41.75 L12.02,41.75 C11.9579465,41.6855361 11.9132237,41.6064112 11.89,41.52 L11.89,41.52 C11.9441708,41.3517286 11.974466,41.1766893 11.98,41 C12.0014541,40.463825 11.781234,39.9463077 11.38,39.59 L11.19,39.39 L11.19,39.39 C11.1823777,39.3672892 11.1823777,39.3427108 11.19,39.32 L11.19,39.32 L11.19,39.32 L15.74,39.12 L15.89,39.12 C16.1019698,39.1621921 16.3220444,39.1266962 16.51,39.02 C18.8995786,37.5818876 21.1761619,35.9638754 23.32,34.18 L23.32,34.18 L24.19,33.47 C24.66,33.08 25.14,32.69 25.62,32.28 L26.47,31.56 L27.47,30.66 L28.35,29.89 C29.35,29.01 30.35,28.08 31.47,27.09 C31.7479807,26.8356257 31.8253155,26.4286006 31.66,26.09 C31.4853496,25.7483686 31.1075188,25.5614845 30.73,25.63 C30.32,25.71 29.83,25.77 29.3,25.83 L29.3,25.83 C28.1,25.96 26.76,26.03 25.84,26.07 C24.7167911,26.1285982 23.7424781,26.8652739 23.38,27.93 C23.2816746,28.2096443 23.1472011,28.4752294 22.98,28.72 L21.91,28.72 C21.5004254,28.7206105 21.1027625,28.857857 20.78,29.11 C20.43,29.39 20.11,29.63 19.84,29.83 L19.71,29.77 L19.26,28 C19.1501925,27.5631912 18.8831558,27.1822189 18.51,26.93 L17.39,26.18 L17.39,26.04 L19,24.84 C19.4729471,24.5181144 19.7658765,23.9915832 19.79,23.42 C19.7997321,23.2280368 19.7794893,23.0357294 19.73,22.85 L19.44,21.85 C19.4368104,21.8199612 19.4473702,21.7900903 19.4687303,21.7687303 C19.4900903,21.7473702 19.5199612,21.7368104 19.55,21.74 C20.3541841,21.9751758 21.2146599,21.6276759 21.63,20.9 L21.74,20.7 C21.7660246,20.6781587 21.8039754,20.6781587 21.83,20.7 C21.8625835,20.7056229 21.8894599,20.7286598 21.9,20.76 L22.03,21.27 C22.1641059,21.7742879 22.5082151,22.1967564 22.9749404,22.4301191 C23.4416658,22.6634818 23.9861061,22.685288 24.47,22.49 L25.39,22.12 L25.51,22.19 C25.5414079,22.3475687 25.5883022,22.50165 25.65,22.65 L25.65,22.73 C25.7021056,22.8473399 25.7622485,22.9609432 25.83,23.07 L25.94,23.22 C25.994556,23.2944886 26.0547316,23.3646935 26.12,23.43 C26.6621034,24.0135776 27.4481949,24.3065079 28.24,24.22 L28.32,24.22 C30.0157406,24.0265457 31.6896876,23.6750168 33.32,23.17 L33.32,23.17 C34.8297076,22.7222294 36.2626974,22.0478813 37.57,21.17 C37.9510441,20.8998348 38.3119911,20.6023878 38.65,20.28 L38.65,20.28 L38.97,19.98 L39.97,18.98 C42.49,16.48 45,14 47.45,11.44 C47.5213083,11.3638419 47.5788317,11.275865 47.62,11.18 C48.88,9.86 49.85,8.82 50.46,8.18 C50.5022473,8.14062318 50.5677527,8.14062318 50.61,8.18 L52,9.07 C52.0142629,9.09830476 52.0142629,9.13169524 52,9.16 C52.0142629,9.18830476 52.0142629,9.22169524 52,9.25 L49.55,11.81 L49.55,11.81 C48.35,13.04 46.87,14.56 45.21,16.23 L45.21,16.23 C43.28,18.18 41.33,20.1 39.43,21.95 L39.43,21.95 L38.95,22.41 L37.95,23.41 C37.78,23.56 37.62,23.72 37.46,23.88 C36.5426115,24.7081633 35.8538463,25.7585303 35.46,26.93 C35.4567172,26.9532179 35.4567172,26.9767821 35.46,27 C35.39,27.22 35.33,27.45 35.27,27.7 C35.21,27.95 35.17,28.11 35.13,28.32 C35.13,28.32 35.13,28.38 35.13,28.41 L35.13,28.41 C34.8204573,30.108095 34.7030514,31.8356386 34.78,33.56 C34.7993398,34.0025256 35.1480776,34.3598743 35.59,34.39 C36.101454,34.4309801 36.6020673,34.5595159 37.07,34.77 L37.07,34.79 Z"/>
      <path id="Path" fill="#3D454C" fill-rule="nonzero" d="M35.66 47.69C32.908978 47.8029424 30.5843362 45.6705306 30.46 42.92 30.46 42.79 30.46 42.67 30.46 42.55 30.470542 42.091076 30.1227102 41.7029251 29.665381 41.6632723 29.2080518 41.6236195 28.7986037 41.9461103 28.73 42.4 28.73 42.57 28.73 42.75 28.73 42.92 28.860412 46.623303 31.9559396 49.526756 35.66 49.42 35.9912421 49.4556668 36.3137649 49.2990382 36.4905505 49.016655 36.6673361 48.7342718 36.6673361 48.3757282 36.4905505 48.093345 36.3137649 47.8109618 35.9912421 47.6543332 35.66 47.69L35.66 47.69zM9 43.73C8.58015283 43.499028 8.05257889 43.6510409 7.82 44.07L7.72 44.25C6.93839234 45.8034684 6.81934064 47.607282 7.39 49.25 7.51322236 49.6030296 7.84608351 49.8396418 8.22 49.84 8.30941122 49.8545589 8.40058878 49.8545589 8.49 49.84 8.94548867 49.6879531 9.19165568 49.1956191 9.04 48.74 8.59741082 47.5131208 8.68805676 46.1570576 9.29 45L9.36 44.87C9.5669221 44.4550853 9.40768321 43.9508288 9 43.73L9 43.73zM43.46 27.75C43.46 28.2304877 43.8495123 28.62 44.33 28.62 48.6355369 28.6144907 52.1244907 25.1255369 52.13 20.82 52.1656668 20.4887579 52.0090382 20.1662351 51.726655 19.9894495 51.4442718 19.8126639 51.0857282 19.8126639 50.803345 19.9894495 50.5209618 20.1662351 50.3643332 20.4887579 50.4 20.82 50.4 22.4298641 49.760484 23.9737923 48.6221382 25.1121382 47.4837923 26.250484 45.9398641 26.89 44.33 26.89 43.8533906 26.8899685 43.4654783 27.2734221 43.46 27.75L43.46 27.75z"/>
    </g>
  </g>
</svg>
