<svg xmlns="http://www.w3.org/2000/svg" width="64" height="64" viewBox="0 0 64 64" style="background:#fff">
  <g id="Chia" fill="none" fill-rule="evenodd" stroke="none" stroke-width="1">
    <rect width="64" height="64" fill="#FFF"/>
    <g id="2-Chia" transform="translate(2 7)">
      <path id="Path" fill="#C07953" fill-rule="nonzero" d="M50.15,25.46 C49.5,20 44.43,16.15 39.22,15.39 C35.9922202,14.8874707 32.6985197,15.7136014 30.09,17.68 C26.25,13.04 18.76,12.45 15.09,17.6 C7.31,28.39 18.19,44.77 28.2,49.67 C34.84,52.92 39.09,48.85 42.86,43.67 C46.46,38.69 50.93,31.88 50.15,25.46 Z" opacity=".5"/>
      <path id="Path" fill="#3D454C" fill-rule="nonzero" d="M27.91 14.2300277C27.6964353 14.2312983 27.4850554 14.1869767 27.29 14.1 26.29 13.63 26.03 12.27 26.69 10.86 26.9111954 10.3368577 27.2540209 9.87404326 27.69 9.51 28.1766659 9.05376106 28.8911896 8.93776177 29.4971933 9.21661133 30.1031971 9.4954609 30.4799155 10.1135897 30.45 10.78 30.471242 11.3568774 30.3510851 11.9301972 30.1 12.45 29.7628614 13.407988 28.9166693 14.0957605 27.91 14.2300277L27.91 14.2300277zM41.42 38.34C41.2031003 38.3424198 40.9882251 38.2980805 40.79 38.21 40.2006814 37.9097531 39.8325418 37.3013539 39.84 36.64 39.8247981 36.0732979 39.9447745 35.5111231 40.19 35 40.4838073 34.2446597 41.0617414 33.6344187 41.8 33.3 42.1958244 33.1298585 42.6441756 33.1298585 43.04 33.3 44.04 33.76 44.29 35.12 43.64 36.53 43.3073882 37.508482 42.4454186 38.211259 41.42 38.34zM46 20.11C45.7787798 20.1127693 45.5598593 20.0648804 45.36 19.97 44.36 19.51 44.1 18.15 44.76 16.74 44.9759008 16.2138534 45.3196041 15.749854 45.76 15.39 46.2573169 14.9541999 46.9586752 14.8379526 47.57 15.09 48.1560222 15.3937805 48.5227985 15.9999267 48.52 16.66 48.5400334 17.2367739 48.4199367 17.8098067 48.17 18.33 47.840018 19.2849377 47.001031 19.973139 46 20.11z"/>
      <path id="Shape" fill="#3D454C" fill-rule="nonzero" d="M30.14,52.66 C29.9218864,52.6637836 29.7059828,52.615805 29.51,52.52 C28.9028053,52.2374025 28.5132706,51.6297284 28.51,50.96 C28.488758,50.3831226 28.6089149,49.8098028 28.86,49.29 C29.153363,48.5380742 29.7373362,47.9360771 30.48,47.62 C30.8733981,47.4549936 31.3166019,47.4549936 31.71,47.62 C32.71,48.09 32.96,49.45 32.31,50.86 C31.9822378,51.8200034 31.1440379,52.5152844 30.14,52.66 L30.14,52.66 Z"/>
      <path id="Path" fill="#3D454C" fill-rule="nonzero" d="M16.78 31.4C15.7601435 31.2754586 14.8974925 30.5868851 14.55 29.62 14.2988559 29.0966574 14.1787385 28.5200938 14.2 27.94 14.2057026 27.2709931 14.5944763 26.6645062 15.2 26.38L15.2 26.38C16.2 25.93 17.4 26.61 18.06 28.02 18.72 29.43 18.45 30.8 17.45 31.26 17.2403271 31.3573363 17.0111054 31.4052334 16.78 31.4L16.78 31.4zM37.68 20C36.6620221 19.8763853 35.8019367 19.1867672 35.46 18.22 35.2100633 17.6998067 35.0899666 17.1267739 35.11 16.55 35.1118573 15.8773722 35.5012291 15.2660586 36.11 14.98 37.11 14.53 38.31 15.22 38.96 16.63 39.61 18.04 39.34 19.41 38.36 19.87 38.1464602 19.9654116 37.9136757 20.0099145 37.68 20z"/>
      <path id="Shape" fill="#3D454C" fill-rule="nonzero" d="M38.76 47.5C38.554775 47.5024013 38.3510261 47.4650474 38.16 47.39 37.4173362 47.0739229 36.833363 46.4719258 36.54 45.72 36.1683226 45.0081257 36.0893807 44.1792359 36.32 43.41 36.4544173 43.0013385 36.7526299 42.6669237 37.1432897 42.486765 37.5339495 42.3066064 37.9819116 42.2969115 38.38 42.46 39.1163403 42.7852243 39.6973019 43.3841168 40 44.13 40.2499367 44.6501933 40.3700334 45.2232261 40.35 45.8 40.3481427 46.4726278 39.9587709 47.0839414 39.35 47.37 39.1640987 47.4526358 38.963416 47.4968541 38.76 47.5L38.76 47.5zM32.22 37.8C31.1970734 37.672958 30.3357364 36.9745767 30 36 29.7489149 35.4801972 29.628758 34.9068774 29.65 34.33 29.650944 33.6735202 30.0171755 33.0721296 30.6 32.77 30.9967555 32.6044441 31.4432445 32.6044441 31.84 32.77 32.5751241 33.0969685 33.1555215 33.6952794 33.46 34.44 33.7072546 34.9608008 33.8239505 35.5339837 33.8 36.11 33.8074582 36.7713539 33.4393186 37.3797531 32.85 37.68 32.6511067 37.7649501 32.4361953 37.8058856 32.22 37.8z"/>
      <path id="Path" fill="#3D454C" fill-rule="nonzero" d="M17.23 19.38C16.9986978 19.3799874 16.7678326 19.3599122 16.54 19.32 15 19.05 14 18.07 14.22 17L14.22 17C14.41 15.94 15.68 15.33 17.22 15.59 18.00761 15.7011661 18.7230229 16.1089515 19.22 16.73 19.4743481 17.074613 19.5789062 17.5072672 19.51 17.93 19.3691325 18.574112 18.8781952 19.0843775 18.24 19.25 17.9122904 19.3463003 17.5714144 19.3901755 17.23 19.38zM36.53 29.46C36.2986978 29.4599874 36.0678326 29.4399122 35.84 29.4 34.33 29.14 33.33 28.13 33.52 27.06L33.52 27.06C33.71 25.98 34.96 25.38 36.52 25.65 38.08 25.92 39 26.9 38.81 28 38.6772661 28.6448959 38.1880283 29.1574307 37.55 29.32 37.2203051 29.4237521 36.8754568 29.4710842 36.53 29.46L36.53 29.46zM49.61 45.28C49.3820377 45.2794134 49.1545428 45.2593403 48.93 45.22 47.42 45 46.42 44 46.6 42.89L46.6 42.89C46.79 41.82 48.07 41.21 49.6 41.48 50.3877785 41.5836567 51.1046849 41.9887088 51.6 42.61 51.8581229 42.9526741 51.9626742 43.3870051 51.8887666 43.8096049 51.814859 44.2322048 51.5691036 44.6052713 51.21 44.84 50.733377 45.1449657 50.1755406 45.2983708 49.61 45.28L49.61 45.28zM23 41.2400114C22.7686978 41.2400114 22.5378326 41.2199122 22.31 41.18 20.78 40.91 19.8 39.93 19.99 38.85L19.99 38.85C20.0729934 38.4387966 20.3180994 38.0783466 20.67 37.85 21.361719 37.4103324 22.1982996 37.2595325 23 37.43 23.5679504 37.5234857 24.105845 37.749607 24.57 38.09 25.1198278 38.4612305 25.4107132 39.1128137 25.32 39.77 25.1778154 40.4312679 24.6612679 40.9478154 24 41.09 23.6761764 41.1903096 23.3390029 41.2408856 23 41.2400114L23 41.2400114z"/>
      <path id="Shape" fill="#3D454C" fill-rule="nonzero" d="M11 38.4100329C10.6609516 38.4115114 10.3236836 38.3609212 10 38.26 9.36301173 38.0923185 8.87297156 37.5829854 8.73 36.94 8.55 35.85 9.52 34.87 11.06 34.6 11.6259358 34.4970874 12.2080939 34.5279076 12.76 34.69 13.3996857 34.8536112 13.8962489 35.357873 14.05 36L14.05 36C14.23 37.08 13.26 38.06 11.73 38.33 11.4894692 38.3779298 11.2452024 38.4046987 11 38.4100329zM26.38 25.87C26.0409971 25.8708856 25.7038236 25.8203096 25.38 25.72 24.7429497 25.5494912 24.2558498 25.0353303 24.12 24.39 24.0527312 23.970476 24.1572621 23.5415391 24.41 23.2 24.9069771 22.5789515 25.62239 22.1711661 26.41 22.06 27.94 21.8 29.19 22.39 29.41 23.48L29.41 23.48C29.6 24.56 28.62 25.54 27.09 25.81 26.8555894 25.8510812 26.6179803 25.8711608 26.38 25.87L26.38 25.87zM47.81 30.05C47.4704198 30.0484364 47.1331155 29.9944677 46.81 29.89 46.1718048 29.7243775 45.6808675 29.214112 45.54 28.57 45.4788004 28.1475925 45.5826566 27.7178429 45.83 27.37 46.331305 26.7557751 47.0451831 26.352434 47.83 26.24 49.36 25.98 50.61 26.57 50.83 27.65L50.83 27.65C51 28.74 50 29.72 48.5 30 48.2717663 30.0356129 48.0409836 30.0523363 47.81 30.05L47.81 30.05z"/>
      <rect id="Rectangle" width="60" height="60" x="0" y="0"/>
    </g>
  </g>
</svg>
