<svg xmlns="http://www.w3.org/2000/svg" width="64" height="64" viewBox="0 0 64 64" style="background:#fff">
  <g id="Chicoree" fill="none" fill-rule="evenodd" stroke="none" stroke-width="1">
    <rect width="64" height="64" fill="#FFF"/>
    <g id="42-Chicoree" transform="translate(2 7)">
      <g id="Layer_2">
        <rect id="Rectangle" width="60" height="60" x="0" y="0"/>
      </g>
      <g id="_42-chicoree1" transform="translate(8 4)">
        <path id="Path" fill="#4B87DD" fill-opacity=".5" d="M30,10.5 C30.7618374,11.3187397 31.413972,12.2330727 31.94,13.22 C32.81,15.28 32.58,18.86 31.94,20.84 C31.184721,22.9212904 30.1083643,24.8715542 28.75,26.62 C27.6233306,28.5101565 25.9877086,30.0452848 24.03,31.05 C22.1973613,31.7469381 20.2367869,32.0435816 18.28,31.92 C13.2509849,31.6967966 8.83832862,28.4993906 7.06,23.79 C5.20400834,19.4717775 5.71474284,14.5006284 8.41,10.65 C10.1520814,8.46809387 12.4795232,6.82743823 15.12,5.92 C17.6555244,5.02144553 20.4052866,4.9202487 23,5.63 C24.2740175,5.92030094 25.4351323,6.57733896 26.34,7.52 C27.8784057,8.04134588 29.1776513,9.09920156 30,10.5 L30,10.5 Z"/>
        <circle id="Oval" cx="17.74" cy="17.87" r="1" fill="#3C454E" fill-rule="nonzero"/>
        <circle id="Oval" cx="20.23" cy="18.93" r="1" fill="#3C454E" fill-rule="nonzero"/>
        <path id="Shape" fill="#3C454E" d="M23.39,23.85 C23.0421424,23.5125068 23.0117991,22.964442 23.3202748,22.5906113 C23.6287504,22.2167807 24.1726099,22.1425335 24.57,22.42 C26.6247839,24.0294101 29.0183531,25.1509682 31.57,25.7 C31.57,25.56 31.57,25.42 31.57,25.32 C31.6061534,25.0436251 31.7206637,24.7833744 31.9,24.57 C32.1974376,24.2632123 32.5696572,24.0391913 32.98,23.92 L33.57,23.71 L33.52,23.59 C33.4485207,23.4037732 33.3508728,23.2286805 33.23,23.07 C32.4935125,22.1371003 31.6042563,21.3357554 30.6,20.7 C30.3921647,20.5653069 30.2474131,20.3525073 30.1984802,20.1097249 C30.1495473,19.8669425 30.2005665,19.6146852 30.34,19.41 C30.4749158,19.2027177 30.68684,19.0577128 30.9289165,19.0070456 C31.1709931,18.9563784 31.423281,19.0042226 31.63,19.14 C33.0379028,20.0214838 34.2304394,21.2071864 35.12,22.61 C35.5528435,23.2867049 35.5528435,24.1532951 35.12,24.83 C34.8425159,25.1819485 34.4610857,25.4374018 34.03,25.56 L33.5,25.74 L33.5,25.94 C33.5306462,26.1488819 33.5306462,26.3611181 33.5,26.57 C33.4292313,26.9013586 33.2318868,27.1919932 32.95,27.38 C32.5409684,27.6131535 32.060527,27.6878888 31.6,27.59 C29.7807301,27.2955149 28.0294135,26.6756098 26.43,25.76 C26.7834358,26.8021822 26.9427377,27.9003481 26.9,29 C26.833365,30.1917981 26.5697986,31.3643309 26.12,32.47 C25.9699256,32.9954755 25.7333537,33.4922766 25.42,33.94 C25.1412413,34.3301016 24.7507184,34.6264805 24.3,34.79 C23.9,34.93 23.11,34.41 23.11,34.41 L23.19,34.48 L22.19,33.79 C21.3626173,33.2108606 20.5864387,32.5618147 19.87,31.85 C19.8642972,35.4435836 19.5025299,39.0277597 18.79,42.55 C18.24,45.18 17.27,47.65 16.5,50.21 C16.3265478,50.6816287 15.8300353,50.9512863 15.34,50.84 C15.103949,50.7684039 14.9060111,50.6059628 14.7897365,50.3884167 C14.6734619,50.1708706 14.6483766,49.9160427 14.72,49.68 C15.47,47.16 16.43,44.74 16.97,42.16 C17.9606501,37.0296592 18.2599756,31.7897796 17.86,26.58 C17.8268629,26.0663752 18.2163752,25.6231371 18.73,25.59 C19.2436248,25.5568629 19.6868629,25.9463752 19.72,26.46 C19.77,27.31 19.81,28.17 19.84,29.02 C20.8175151,30.2560186 21.9656502,31.3469153 23.25,32.26 L23.96,32.75 L23.96,32.7 C24.1017086,32.4545854 24.2125484,32.1926003 24.29,31.92 C24.6827868,30.9814657 24.9192483,29.9849494 24.99,28.97 C24.9329048,27.1494681 24.3796659,25.3791036 23.39,23.85 Z M6.93,36.29 C11.4408226,34.0093024 15.0952393,30.3338431 17.35,25.81 C17.5543453,25.3377965 17.3372034,24.7893454 16.865,24.585 C16.3927965,24.3806547 15.8443454,24.5977966 15.64,25.07 C13.5951809,29.1741322 10.2811083,32.5092466 6.19,34.58 C5.71779655,34.7843454 5.50065466,35.3327965 5.70500002,35.805 C5.90934537,36.2772034 6.45779654,36.4943453 6.93,36.29 L6.93,36.29 Z M14.25,8.15 C14.25,6.86 14.25,5.4 14.36,4.53 C14.3774329,4.12215964 14.4832022,3.7229659 14.67,3.36 C15.1335205,2.65582448 15.9517956,2.26984564 16.79,2.36 C17.7825504,2.49297199 18.6980746,2.96664087 19.38,3.7 C21.38,5.76 21.52,8.82 21.51,11.5 C21.51,12.0136248 21.0936248,12.43 20.58,12.43 C20.0663752,12.43 19.65,12.0136248 19.65,11.5 C19.65,9.27 19.65,6.69 18.03,4.98 C17.7097918,4.64385454 17.3060161,4.39882821 16.86,4.27 C16.6627901,4.19235874 16.4394141,4.22264701 16.27,4.35 C16.27,4.51 16.19,4.93 16.17,5.29 C16.09,6.93 16.12,9.54 16.01,10.59 C16.01,10.59 16.01,10.64 16.01,10.67 L16.01,10.67 C16.7637447,11.6930476 17.375939,12.8131613 17.83,14 C17.9738959,14.4844398 17.7046032,14.9951298 17.2235717,15.1500383 C16.7425401,15.3049468 16.2258404,15.0473729 16.06,14.57 C15.6482576,13.5370701 15.1036729,12.5621963 14.44,11.67 C13.4788954,10.1165784 12.3740457,8.6568377 11.14,7.31 C10.4683608,6.46911291 9.65227565,5.75461513 8.73,5.2 C8.64884542,5.15380224 8.56119571,5.12009081 8.47,5.1 C8.47,5.16 8.4,5.24 8.37,5.29 L8.2,5.68 C8.01737515,6.09509304 7.73994739,6.46157168 7.39,6.75 C7.21334609,6.88095635 7.0073762,6.96677714 6.79,7 C7.06749968,8.0512192 7.43899661,9.07534587 7.9,10.06 C7.98061736,10.1929731 8.02540603,10.3445655 8.03,10.5 C8.87007703,10.730418 9.68692265,11.038409 10.47,11.42 C11.9974107,12.1480958 13.3253873,13.23587 14.34,14.59 C14.5748481,14.8393406 14.6536273,15.1975906 14.5450461,15.5224514 C14.4364649,15.8473121 14.1581017,16.0861912 13.8205239,16.1442045 C13.482946,16.2022179 13.1408046,16.0699737 12.93,15.8 C12.0613502,14.6469108 10.9299983,13.7178309 9.63,13.09 C8.6436935,12.6046722 7.60300542,12.2387529 6.53,12 C6.14838446,11.897161 5.75521483,11.8433942 5.36,11.84 C5.04949676,11.8565057 4.7413579,11.9033964 4.44,11.98 C4.22160407,12.0248281 4.00747831,12.0883967 3.8,12.17 C3.68,12.22 3.6,12.24 3.56,12.31 C3.51441258,12.4031353 3.49374056,12.5064954 3.5,12.61 L3.5,13.03 C3.45537171,13.4908455 3.32299242,13.9388985 3.11,14.35 C3.0435885,14.4745237 2.95157194,14.5835804 2.84,14.67 C3.11,15.13 3.39,15.57 3.68,16 C4.56338391,16.8994307 5.70108886,17.506672 6.94,17.74 C9.12646996,18.3901649 11.3991612,18.7037558 13.68,18.67 C14.1936248,18.6368629 14.6368629,19.0263752 14.67,19.54 C14.7031371,20.0536248 14.3136248,20.4968629 13.8,20.53 C12.9591922,20.5681169 12.1166971,20.541371 11.28,20.45 C9.13751073,22.197176 7.20162718,24.1833858 5.51,26.37 C4.83924357,27.2140237 4.2936347,28.1503154 3.89,29.15 C5.66606756,28.688244 7.37394815,27.9956782 8.97,27.09 C10.3497954,26.3955157 11.5044358,25.3240926 12.3,24 C12.4057515,23.7770079 12.596662,23.6058547 12.8298372,23.5249956 C13.0630123,23.4441364 13.3188976,23.4603524 13.54,23.57 C13.769678,23.674308 13.9477943,23.8665519 14.0343023,24.1035087 C14.1208103,24.3404654 14.1084499,24.6022485 14,24.83 C13.0334442,26.500612 11.6067127,27.8579161 9.89,28.74 C7.82075186,29.9257241 5.57080656,30.7635416 3.23,31.22 C3.1020246,31.3035127 2.95280764,31.3486248 2.8,31.35 C2.37654744,31.3790459 1.98818469,31.1146287 1.86,30.71 C1.82500077,30.6199766 1.80148226,30.5259026 1.79,30.43 C1.77028982,30.3276066 1.77028982,30.2223934 1.79,30.12 C1.92885129,28.8579863 2.37523446,27.6493181 3.09,26.6 C4.69899054,24.2094067 6.61165474,22.0379109 8.78,20.14 C7.51834497,19.9220352 6.27968288,19.5872617 5.08,19.14 C3.91021034,18.7720712 2.86954567,18.0782948 2.08,17.14 C1.74,16.53 1.38,16 1,15.37 C1,15.37 0.72,14.88 0.68,14.77 C0.5778987,14.4887707 0.618927934,14.1754566 0.79,13.93 C0.973544825,13.7188968 1.19375531,13.5427284 1.44,13.41 C1.56799387,13.0505593 1.63229134,12.6715426 1.63,12.29 C1.66765132,11.9325242 1.79115891,11.5894475 1.99,11.29 C2.26066415,10.9285517 2.62818698,10.651176 3.05,10.49 C3.34897313,10.3756022 3.65662182,10.285314 3.97,10.22 C4.40415543,10.099158 4.85005715,10.0253998 5.3,10 C5.47986147,9.99001285 5.66013853,9.99001285 5.84,10 C5.38589901,8.85732498 5.01166619,7.68450607 4.72,6.49 C4.65783499,6.21656865 4.70445465,5.92967842 4.85,5.69 C5.03195482,5.40852001 5.32089762,5.21348362 5.65,5.15 C5.8890551,5.11988189 6.1309449,5.11988189 6.37,5.15 C6.45440408,5.02629835 6.52168113,4.89174426 6.57,4.75 C6.67480594,4.49298683 6.79502439,4.24253173 6.93,4 C7.10385825,3.71359636 7.35757878,3.4842052 7.66,3.34 C8.01547961,3.18446283 8.41119694,3.14594168 8.79,3.23 C9.04222315,3.28467666 9.2872107,3.36857651 9.52,3.48 C10.6654933,4.15057968 11.6815512,5.02100262 12.52,6.05 C13.1321393,6.72000675 13.7095623,7.42092481 14.25,8.15 L14.25,8.15 Z M28.5,18.6 C31.7387633,17.3327622 34.2210796,14.6552489 35.24,11.33 C35.3068951,11.091198 35.274549,10.8355031 35.1502947,10.620882 C35.0260404,10.4062609 34.8204026,10.2508928 34.58,10.19 C34.0836172,10.0624338 33.5765336,10.3560085 33.44,10.85 C32.5635419,13.6030518 30.4854713,15.8098524 27.79,16.85 C27.4827516,16.9768293 27.2665049,17.2579394 27.2227181,17.587439 C27.1789313,17.9169386 27.3142565,18.2447688 27.5777181,18.447439 C27.8411797,18.6501093 28.1927516,18.6968293 28.5,18.57 L28.5,18.6 Z M24.13,17.14 C30.01,14.78 32.13,8.9 30.47,4.24 C30.3884578,4.00611202 30.2169821,3.81441592 29.9935917,3.7074138 C29.7702013,3.60041169 29.5133551,3.58694517 29.28,3.67 C28.8172869,3.87140003 28.5771405,4.38599944 28.72,4.87 C30.1,8.69 28.26,13.47 23.44,15.41 C23.2103679,15.501226 23.0264788,15.6800839 22.9289192,15.9070975 C22.8313596,16.1341111 22.8281504,16.3906167 22.92,16.62 C23.1142093,17.0941343 23.6523533,17.3254027 24.13,17.14 Z M24.28,12.85 C26.08,10.57 26.44,7.48 26.12,4.69 C26.0824871,4.35952931 25.8715198,4.07417468 25.5665673,3.94142645 C25.2616149,3.80867821 24.9090069,3.84870399 24.6415673,4.04642645 C24.3741277,4.24414891 24.2324871,4.56952932 24.27,4.9 C24.53,7.22 24.27,9.8 22.82,11.7 C22.5118681,12.1089893 22.5923326,12.6901213 23,13 C23.396267,13.3071132 23.9654739,13.2404092 24.28,12.85 Z"/>
        <circle id="Oval" cx="20.09" cy="22.71" r="1" fill="#3C454E" fill-rule="nonzero"/>
        <path id="Path" fill="#3C454E" d="M24.08,0.73 C24.4702666,0.599233614 24.9007938,0.720945712 25.1648306,1.03668676 C25.4288674,1.35242781 25.4724764,1.79769831 25.2747153,2.15866699 C25.0769542,2.51963567 24.6782216,2.72256394 24.27,2.67 C23.7421523,2.70607454 23.277549,2.32474916 23.21,1.8 C23.1683623,1.26842982 23.5511154,0.797687557 24.08,0.73 Z"/>
        <path id="Path" fill="#4B87DD" fill-opacity=".5" d="M31.81,36.28 C31.2716105,33.2861488 32.5898831,30.2628053 35.15,28.62 C36.7660919,27.7738354 38.7621647,28.3900726 39.62,30 C39.9062173,30.5441225 40.0376551,31.1563456 40,31.77 C41.2640753,31.5635731 42.5337915,32.1049552 43.26,33.16 C44.2962086,34.6499988 44.0417155,36.6816308 42.67,37.87 C41.710277,38.7445886 40.5894131,39.4239 39.37,39.87 C37.9151868,40.3710285 36.3223291,40.284928 34.93,39.63 C33.4322746,39.0494382 32.2827463,37.8151691 31.81,36.28 Z"/>
        <path id="Path" fill="#3C454E" d="M32.44,35.1 C32.7079677,33.7204875 33.3716195,32.4487779 34.35,31.44 C34.7186362,31.0897928 35.3001916,31.1005637 35.6556071,31.4641811 C36.0110225,31.8277984 36.008525,32.4094482 35.65,32.77 C34.4628544,34.0009116 33.938424,35.7266967 34.24,37.41 C35.3,35.88 36.33,34.68 37.44,33.06 C37.6293508,32.7813328 37.9529852,32.6248512 38.2889935,32.6495002 C38.6250017,32.6741492 38.922336,32.876184 39.0689935,33.1795002 C39.2156509,33.4828163 39.1893508,33.8413328 39,34.12 C37.87,35.75 36.83,36.96 35.75,38.52 L35.87,38.52 L35.87,38.52 C37.542538,37.8884448 39.0021383,36.7963448 40.08,35.37 C40.3904899,34.9578258 40.9752052,34.8730198 41.39,35.18 C41.8009421,35.4868221 41.8859424,36.0684025 41.58,36.48 C40.8282819,37.5425806 39.8647301,38.4380369 38.75,39.11 C39.3273982,39.0891312 39.9007937,39.0053015 40.46,38.86 C40.9570563,38.7302131 41.4652131,39.0279437 41.595,39.525 C41.7247869,40.0220563 41.4270563,40.5302131 40.93,40.66 C38.7859825,41.2493697 36.4989397,41.0138863 34.52,40 C31.7838834,43.0798109 30.3154324,47.0814291 30.41,51.2 C30.41,51.7136248 29.9936248,52.13 29.48,52.13 C28.9663752,52.13 28.55,51.7136248 28.55,51.2 C28.463588,46.7212835 30.0502725,42.3712722 33,39 C31.5153874,37.7082168 30.5256388,35.9408086 30.2,34 C30.0714532,33.6563668 30.1569498,33.2692727 30.418273,33.0117493 C30.6795961,32.7542258 31.0679008,32.6744076 31.4096145,32.8079735 C31.7513282,32.9415394 31.98258,33.263524 32,33.63 C32.0905675,34.1350714 32.2381793,34.6282289 32.44,35.1 Z"/>
      </g>
    </g>
  </g>
</svg>
