<svg xmlns="http://www.w3.org/2000/svg" width="64" height="64" viewBox="0 0 64 64" style="background:#fff">
  <g id="Chili" fill="none" fill-rule="evenodd" stroke="none" stroke-width="1">
    <rect width="64" height="64" fill="#FFF"/>
    <g id="36-Chili" transform="translate(2 7)">
      <path id="Path" fill="#E05362" fill-rule="nonzero" d="M28.9,40.45 C28.4074178,39.7683319 27.82172,39.1590716 27.16,38.64 L25.16,36.82 C23.92,35.71 22.67,34.6 21.42,33.51 C20.1749055,32.2419831 18.5552907,31.407636 16.8,31.13 C14.953673,31.0250115 13.2083267,31.9791342 12.3,33.59 C11.542233,34.9206593 10.8740828,36.3003895 10.3,37.72 C9.58,39.24 8.74,40.72 8.16,42.32 C7.39727827,44.1581102 8.02237212,46.279262 9.66,47.41 C10.2947082,47.8110331 11.0205647,48.0449584 11.77,48.09 C12.2119022,48.248371 12.6723525,48.3491995 13.14,48.39 C16.4526391,48.5982311 19.7769771,48.2603919 22.98,47.39 C24.5909045,47.0778329 26.1386828,46.4999506 27.56,45.68 C29.19,44.47 30.09,42.35 28.9,40.45 Z" opacity=".5"/>
      <rect id="Rectangle" width="60" height="60" x="0" y="0"/>
      <path id="Path" fill="#E05362" fill-rule="nonzero" d="M42.09,9.75 C39.67,6 33.64,7.18 32,11.12 C31.17,13.12 31.14,15.23 30,17.19 C28.8381985,19.1836885 27.1543859,20.8225533 25.13,21.93 L24.44,22 C23.16,22.09 21.44,22.79 21.24,24.15 C21.04,25.51 22.58,26.15 23.78,26.06 C28.9702068,25.7952994 33.9737406,24.0383333 38.19,21 C41.57,18.4 44.62,13.63 42.09,9.75 Z" opacity=".5"/>
      <path id="Path" fill="#3D454C" fill-rule="nonzero" d="M36.17,10.7 C36.8,9.07 38.97,7.49 40.66,8.75 C42.35,10.01 41.96,12.48 41.47,14.11 C39.57,20.39 33.47,24.66 27.07,25.11 C25.3131749,25.2455266 23.5460266,25.1344487 21.82,24.78 C21.1684767,24.6483527 20.5294624,24.4609977 19.91,24.22 C19.69381,24.0960547 19.4700344,23.9858369 19.24,23.89 L19.1,23.8 L19.1,23.8 C19.2297953,24.0402574 19.2297953,24.3297426 19.1,24.57 L18.24,25.06 C19.7127743,25.0612826 21.1846656,24.9878549 22.65,24.84 C25.4651014,24.4525662 28.1372857,23.36237 30.42,21.67 C32.161386,20.3953035 33.5177249,18.6652795 34.34,16.67 C35.12,14.73 35.47,12.67 36.15,10.67 C36.58,9.45 34.65,8.93 34.23,10.14 C33.62,11.89 33.23,13.72 32.66,15.47 C31.9958627,17.3549447 30.7623015,18.9868797 29.13,20.14 C27.0326692,21.6795734 24.5798855,22.6634389 22,23 C20.75,23.15 19.54,23.06 18.3,23.12 C17.9413152,23.118576 17.609341,23.3093658 17.43,23.62 C16.11,26.31 22.56,27.01 23.9,27.12 C28.0249517,27.5195475 32.16969,26.5910981 35.73,24.47 C39.4268729,22.1989785 42.1790594,18.6690773 43.48,14.53 C44.19,12.05 44.12,8.74 41.78,7.11 C40.6313106,6.37118859 39.2150303,6.17722771 37.91,6.58 C36.1910015,7.13365554 34.8436555,8.48100151 34.29,10.2 C33.78,11.37 35.72,11.89 36.17,10.7 Z"/>
      <circle id="Oval" cx="18.49" cy="37.65" r="1.01" fill="#3D454C" fill-rule="nonzero"/>
      <circle id="Oval" cx="14.85" cy="41.79" r="1.01" fill="#3D454C" fill-rule="nonzero"/>
      <circle id="Oval" cx="21.12" cy="41.79" r="1.01" fill="#3D454C" fill-rule="nonzero"/>
      <path id="Path" fill="#3D454C" fill-rule="nonzero" d="M40.84,7.44 C40.8343472,7.39350452 40.8343472,7.34649548 40.84,7.3 C40.84,7.3 40.9,7.13 40.84,7.3 C40.78,7.47 40.84,7.3 40.84,7.3 L41,7.12 C41,7.04 41.09,6.97 41.14,6.89 C41.1599311,6.85441005 41.1833818,6.82090903 41.21,6.79 C41.3,6.66 41.21,6.79 41.21,6.79 C41.34,6.67 41.45,6.52 41.58,6.4 L41.68,6.32 C41.62,6.38 41.51,6.44 41.68,6.32 L41.91,6.18 C41.939479,6.16241232 41.9694933,6.14573773 42,6.13 C42.19,6.03 41.85,6.13 42,6.13 L42.13,6.13 L42.43,6 L42.59,6 C42.72,6 42.39,6 42.53,6 C42.7263816,5.98502558 42.9236184,5.98502558 43.12,6 L43.12,6 L43.25,6 C43.3593797,6.01934741 43.4665709,6.04949495 43.57,6.09 C43.9147613,6.18646171 44.2847956,6.09166804 44.5407145,5.84132686 C44.7966335,5.59098567 44.8995569,5.22312975 44.8107145,4.87632686 C44.7218722,4.52952397 44.4547613,4.25646171 44.11,4.16 C43.0611047,3.82721781 41.9224644,3.93004168 40.9501549,4.44534695 C39.9778453,4.96065222 39.2534923,5.84517869 38.94,6.9 C38.8695164,7.1559398 38.9036928,7.42940237 39.0349974,7.66012341 C39.1663021,7.89084446 39.3839583,8.05988761 39.64,8.13 C39.8959398,8.20048358 40.1694024,8.16630723 40.4001234,8.03500257 C40.6308445,7.90369791 40.7998876,7.68604173 40.87,7.43 L40.84,7.44 Z"/>
      <path id="Path" stroke="#3D454C" stroke-linecap="round" stroke-linejoin="round" stroke-width="2" d="M32.15,33.52 L35,44.65 C28.4708716,44.746371 21.9746324,45.5953114 15.64,47.18 C7.34,49.26 6.64,53.18 6.64,53.18"/>
      <path id="Path" stroke="#3D454C" stroke-linecap="round" stroke-linejoin="round" stroke-width="2" d="M26.1 34.52L30 33.87C30.79 33.72 31.49 33.59 32.12 33.52L32.87 33.45 32.87 33.45C34.0593985 33.3615628 35.2520709 33.5712257 36.34 34.06 36.7666667 34.26 37.2266667 34.5 37.72 34.78 38.03 34.97 38.35 35.17 38.65 35.38 39.5031902 35.7096659 40.4406765 35.7518001 41.32 35.5L44.23 34.94 53.03 33.16C54.294675 32.7988392 55.6188849 33.5006704 56.03 34.75L56.58 37.1M28 41.16C26.2866847 38.7554847 24.1644605 36.6704925 21.73 35 19.26 33.33 17.48 32.13 15.61 33 13.74 33.87 12.78 35.64 11.87 37.91 10.9701259 40.364366 10.2776988 42.8898853 9.8 45.46"/>
      <path id="Path" stroke="#3D454C" stroke-linecap="round" stroke-linejoin="round" stroke-width="2" d="M7.93,40.81 L7.93,40.81 C6.61295341,41.4613218 5.77679775,42.8007193 5.77,44.27 L5.62,50.8 C5.701094,51.8447086 6.22847194,52.8037956 7.06721229,53.4318933 C7.90595263,54.0599911 8.9746884,54.2961674 10,54.08 L35.89,48.78 C37.1573916,48.5966439 38.3616301,48.1094591 39.4,47.36 C39.5365149,47.257939 39.6667512,47.147739 39.79,47.03 C41.0151062,45.888917 41.8951775,44.4267514 42.33,42.81 C42.41,42.5 42.46,42.25 42.5,42.05 L42.58,40.21 L56.71,37.21"/>
    </g>
  </g>
</svg>
