<svg xmlns="http://www.w3.org/2000/svg" width="64" height="64" viewBox="0 0 64 64" style="background:#fff">
  <g id="Chinakohl" fill="none" fill-rule="evenodd" stroke="none" stroke-width="1">
    <rect width="64" height="64" fill="#FFF"/>
    <g transform="translate(2 4)">
      <rect id="Rectangle" width="60" height="60" x="0" y="0"/>
      <path id="Path" fill="#31E085" fill-rule="nonzero" d="M50,8 C48.52,3.12 40.59,3.09 37.5,6.48 C37.0972607,6.4055007 36.6893949,6.36203959 36.28,6.35 C33.9381647,3.4385009 30.3860771,1.76758119 26.65,1.82 C10.43,1.48 4.13,23.56 5.49,37.56 C6.2,44.86 20.18,44.47 19.49,37.3 C18.9316474,32.5663753 19.3260553,27.7688788 20.65,23.19 C21.3226441,20.8946195 22.25536,18.6836129 23.43,16.6 C23.9563874,15.6940224 24.5444406,14.8253073 25.19,14 C25.92,23.76 25.19,33.8 25,43.62 C24.86,50.89 38.64,50.62 39,43.35 L39.24,38.35 C42.77,41.02 50.06,40.27 51.01,35.71 C53.0106501,26.5355213 52.6632539,17.0044844 50,8 L50,8 Z" opacity=".5"/>
      <path id="Path" fill="#3D454C" fill-rule="nonzero" d="M50.12,21.62 L49.77,21.51 C49.6238109,21.3938751 49.4836294,21.2703819 49.35,21.14 L49.47,20.95 C50.3114408,19.5602401 50.0924356,17.7751408 48.94,16.63 C48.8010126,16.4961716 48.6281336,16.4028169 48.44,16.36 L47.76,16.22 C47.64,16.22 47.6,16.07 47.57,15.98 C49.1166693,15.5941136 50.2014728,14.2040803 50.2,12.61 L50.2,12.38 C50.1853814,10.7356606 49.0217699,9.32598072 47.41,9 L45.82,8.68 C45.6667691,8.64598722 45.5294159,8.56146214 45.43,8.44 L43.8,6.23 C43.2891153,5.55792179 42.4942079,5.16231668 41.65,5.16 C41.0977153,5.16 40.65,5.60771525 40.65,6.16 C40.65,6.71228475 41.0977153,7.16 41.65,7.16 C41.8654303,7.15920454 42.0688691,7.25907452 42.2,7.43 L43.83,9.61 C44.2193035,10.1319186 44.7902661,10.4887702 45.43,10.61 L47.02,10.93 C47.7053366,11.0757678 48.1965207,11.6793415 48.2,12.38 L48.2,12.61 C48.184126,13.2700271 47.7301618,13.8385048 47.09,14 C46.7924926,14.0765523 46.5179835,14.224101 46.29,14.43 C45.6998861,14.9503343 45.4557582,15.7602188 45.66,16.52 C45.8692604,17.3318978 46.5199363,17.9554622 47.34,18.13 L47.7,18.21 C48.0473128,18.7025106 48.0708498,19.3537004 47.76,19.87 L47.35,20.55 C47.2236229,20.7526738 47.1739612,20.9938877 47.21,21.23 C47.4567904,22.0620864 48.0014741,22.7740913 48.74,23.23 C48.8195336,23.2839272 48.9073629,23.3244637 49,23.35 L49.49,23.52 C49.7241538,23.6011836 49.8808556,23.8221734 49.88,24.07 L49.88,24.17 C49.8803419,24.4426618 49.6875366,24.6773812 49.42,24.73 C49.2055838,24.779326 48.9975508,24.8531442 48.8,24.95 L47.52,25.59 C46.3458499,26.1857198 45.7812372,27.5484316 46.19,28.8 L46.45,29.59 C46.5867957,29.9665414 46.805374,30.30807 47.09,30.59 L47.56,31.06 C47.7176242,31.2146121 47.785984,31.4386675 47.7415172,31.6549381 C47.6970503,31.8712087 47.5458378,32.0501184 47.34,32.13 L46.51,32.46 C45.4747945,32.8699283 44.8098927,33.8873082 44.85,35 L44.85,36.5 C44.8513219,36.6726876 44.7828009,36.8385805 44.66,36.96 L43.37,38.26 C43.17,37 42.93,35.73 42.63,34.44 C42.5683754,34.1810001 42.4060164,33.9572652 42.1788934,33.8183635 C41.9517704,33.6794619 41.6786349,33.6368613 41.42,33.7 C40.8853656,33.8285208 40.5547964,34.364579 40.68,34.9 C41.6362436,38.7945782 42.0534696,42.8019672 41.92,46.81 C41.741643,51.6745885 37.727726,55.515721 32.86,55.48 L26.36,55.48 C21.4470048,55.514089 17.4145211,51.6017786 17.3,46.69 C16.9131734,38.4928903 18.5262154,30.3247201 22,22.89 C20.79,32 20.11,48.72 30.35,53.2 C30.5938981,53.306972 30.8703917,53.3122338 31.1181832,53.214619 C31.3659747,53.1170041 31.5645912,52.9245777 31.67,52.68 C31.886144,52.1746314 31.6538981,51.5895504 31.15,51.37 C30.8,51.21 30.47,51.04 30.15,50.85 L31.51,49 C32.2726957,47.9907715 32.4295623,46.6478398 31.92,45.49 C31.7454465,45.0985786 31.7454465,44.6514214 31.92,44.26 C32.0969002,43.8725965 32.4263317,43.5757462 32.83,43.44 L33.71,43.15 C34.371761,42.9273806 34.8926763,42.4101597 35.12,41.75 C35.3615467,41.0817423 35.2686087,40.3382383 34.87,39.75 C34.8438632,39.6893633 34.8438632,39.6206367 34.87,39.56 C34.8904652,39.4915715 34.9372099,39.4340395 35,39.4 L35.24,39.28 C36.722193,38.552071 37.6581874,37.0412752 37.65,35.39 L37.65,34.72 C37.6221679,34.0362343 37.2833012,33.4027008 36.73,33 L36.53,32.89 L34.62,32 C34.47719,31.8580482 34.3887173,31.670486 34.37,31.47 C34.3523198,31.2396442 34.436363,31.0130929 34.6,30.85 C34.8690394,30.5891413 35.2806907,30.5438597 35.6,30.74 L36.2,31.14 C36.9496083,31.6447833 37.9303917,31.6447833 38.68,31.14 L39.68,30.48 C40.5596177,29.8938397 40.9097613,28.7725463 40.52,27.79 L39.46,25.13 C39.4259993,25.0606077 39.4259993,24.9793923 39.46,24.91 L40.09,23.97 C40.7731507,22.9391109 40.4962437,21.5501095 39.47,20.86 L39.24,20.71 C39.1791005,20.6748518 39.1411321,20.6103054 39.14,20.54 C39.1294052,20.4659152 39.1555178,20.3913079 39.21,20.34 L40.6,19 C40.7036875,18.8982444 40.7943773,18.7840424 40.87,18.66 L40.96,18.54 C42.1092568,16.8111329 41.8835568,14.5123363 40.42,13.04 L39.42,12.1 C39.1560117,11.8357075 38.8290741,11.6429864 38.47,11.54 L38.47,11.54 C39.5441829,10.4502423 39.6260527,8.72666886 38.66,7.54 C37.622105,6.25184331 35.9482046,5.65650691 34.33,6 L33.74,6.15 C32.9447407,6.36309786 32.3613247,7.04176539 32.27,7.86 C32.0817778,7.77290397 31.898198,7.67610737 31.72,7.57 C31.3993186,7.41473501 31.2321336,7.05528724 31.32,6.71 C31.6906697,5.85163702 31.3963646,4.85099995 30.62,4.33 L30.41,4.19 C29.1098112,3.32592778 27.4468639,3.2229471 26.05,3.92 L25,4.5 C23.4111661,3.46615937 21.3743278,3.41969158 19.74,4.38 L19.12,4.76 C17.9939757,5.42513174 17.1161025,6.43995316 16.62,7.65 C16.5077019,7.93471675 16.5532711,8.25749882 16.74,8.5 L14.58,9.36 C13.8294578,9.66201578 13.1487841,10.1146638 12.58,10.69 L11.89,11.38 C10.9241294,12.3164068 10.5784364,13.7224837 11,15 L11.34,16 L12.05,18.75 L11.39,19.41 C10.2534171,20.5398306 9.61606342,22.0774014 9.61993263,23.68 C9.61374826,24.7579311 10.0428231,25.7927588 10.81,26.55 L11.67,27.31 C11.6408731,27.3340874 11.6140874,27.3608731 11.59,27.39 L11.27,27.69 C10.219931,28.6710658 9.62267499,30.0429447 9.61993263,31.48 L9.61993263,31.76 C9.62423627,32.0956045 9.65769605,32.4302023 9.72,32.76 C9.73424647,32.8436179 9.76122646,32.9245578 9.8,33 C10.7,35 12.14,38.51 12.14,39.72 C12.14,40.2722847 12.5877153,40.72 13.14,40.72 C13.6922847,40.72 14.14,40.2722847 14.14,39.72 C14.14,37.78 12.09,33.21 11.66,32.28 C11.6500871,32.1068084 11.6500871,31.9331916 11.66,31.76 L11.66,31.48 C11.6594758,30.5990149 12.0210552,29.7565348 12.66,29.15 L12.95,28.88 C13.3664989,28.5360956 13.6261915,28.0383516 13.67,27.5 C13.7015317,26.9378781 13.4860374,26.3900114 13.08,26 L12.23,25.15 C11.8404147,24.7639437 11.6208659,24.2384664 11.62,23.69 C11.616484,22.6204464 12.0414549,21.5940336 12.8,20.84 L13.47,20.17 C13.9580391,19.680191 14.1584611,18.9730417 14,18.3 L13.3,15.5 C13.2954727,15.4501025 13.2954727,15.3998975 13.3,15.35 L12.96,14.35 C12.7791947,13.8018371 12.9222759,13.1985758 13.33,12.79 L14.01,12.11 C14.3976484,11.7233869 14.860536,11.4204678 15.37,11.22 L17.52,10.35 C18.0432589,10.1238238 18.4389596,9.67682859 18.6,9.13 C18.6990391,8.77681163 18.6990391,8.40318837 18.6,8.05 C18.9499717,7.3988599 19.467906,6.85330249 20.1,6.47 L20.73,6.09 C21.7031021,5.53100823 22.906824,5.56187289 23.85,6.17 C24.4324433,6.54267113 25.1660688,6.58805002 25.79,6.29 L26.92,5.73 C27.6754453,5.3529629 28.5744294,5.40629247 29.28,5.87 L29.47,5.93 C29.4416345,5.97261976 29.4213001,6.0200665 29.41,6.07 C28.9921126,7.35190938 29.5689394,8.74732142 30.77,9.36 C31.1832124,9.61689461 31.6265675,9.82177839 32.09,9.97 C32.5841447,10.0802436 33.1014624,9.95460933 33.49,9.63 C33.9599976,9.26912627 34.2248878,8.70203733 34.2,8.11 L34.8,7.96 C35.6771465,7.74534776 36.600053,8.04781291 37.18,8.74 C37.5130698,9.13748472 37.4870189,9.72363033 37.12,10.09 L35.06,12.16 C35.06,12.16 35.06,12.24 34.98,12.27 C33.8051823,13.0151684 33.0923707,14.3087894 33.09,15.7 C33.09,16.2522847 33.5377153,16.7 34.09,16.7 C34.6422847,16.7 35.09,16.2522847 35.09,15.7 C35.1036651,14.7257338 35.7949223,13.8928938 36.75,13.7 L37.83,13.49 C37.9056372,13.4733697 37.9845655,13.4959207 38.04,13.55 L38.98,14.55 C39.7889774,15.3474745 39.9150423,16.6081236 39.28,17.55 L37.82,19 C37.3436973,19.4712378 37.108103,20.1338467 37.18,20.8 C37.2458413,21.4731974 37.6136764,22.0801253 38.18,22.45 L38.41,22.6 C38.4632296,22.6334201 38.4996236,22.6880111 38.51,22.75 C38.5323492,22.8079188 38.5323492,22.8720812 38.51,22.93 L37.88,23.87 C37.470939,24.4856399 37.3887809,25.2624074 37.66,25.95 L38.72,28.6 C38.7690117,28.7031236 38.7349519,28.8265905 38.64,28.89 L37.64,29.55 C37.5608392,29.6010101 37.4591608,29.6010101 37.38,29.55 L36.78,29.15 C35.5170673,28.3642887 33.8606174,28.6988357 33.0016136,29.9131066 C32.1426098,31.1273774 32.3786391,32.8007088 33.54,33.73 L33.74,33.84 L35.63,34.67 C35.644548,34.7155329 35.644548,34.7644671 35.63,34.81 L35.63,35.48 C35.6314502,36.3703088 35.127546,37.1843079 34.33,37.58 L34.08,37.71 C33.5076225,37.9951228 33.0851867,38.5122425 32.92,39.13 C32.760445,39.7518976 32.8692881,40.4122124 33.22,40.95 C33.2575129,41.0149742 33.2575129,41.0950258 33.22,41.16 C33.1960099,41.2305827 33.1405827,41.2860099 33.07,41.31 L32.19,41.6 C31.2510103,41.9087172 30.4857094,42.59904 30.0821487,43.5013408 C29.678588,44.4036416 29.6741772,45.434278 30.07,46.34 C30.290263,46.8417921 30.2213726,47.4235332 29.89,47.86 L28.52,49.69 C19.61,41.58 25,17.54 25,17.28 C25.1174123,16.7993229 24.8656335,16.3050501 24.4077841,16.1174069 C23.9499346,15.9297637 23.4236946,16.1051763 23.17,16.53 C17.5425198,25.5757396 14.797848,36.1184878 15.3,46.76 C15.452394,52.7488994 20.369262,57.5146159 26.36,57.4802144 L32.86,57.4802144 C38.7980525,57.5167157 43.6933835,52.8338403 43.92,46.9 C44.0057033,44.8071972 43.9288056,42.710899 43.69,40.63 C43.8207166,40.5818454 43.9399303,40.5069111 44.04,40.41 L46.04,38.41 C46.5398911,37.9121483 46.8206232,37.2355119 46.82,36.53 L46.82,35 C46.8188565,34.7342787 46.9820275,34.495492 47.23,34.4 L48.06,34.06 C48.9129521,33.7463349 49.5456776,33.0174673 49.7363742,32.1289022 C49.9270708,31.2403372 49.649136,30.3160311 49,29.68 L48.53,29.21 C48.4561571,29.1377617 48.4012106,29.0484736 48.37,28.95 L48.11,28.17 C48.0095319,27.8638588 48.1447981,27.5299204 48.43,27.38 L49.71,26.74 C49.7562846,26.7315554 49.8037154,26.7315554 49.85,26.74 C51.0406653,26.4861913 51.893848,25.4374009 51.9,24.22 L51.9,24.12 C51.9206725,22.9860049 51.1983425,21.9714964 50.12,21.62 Z"/>
      <circle id="Oval" cx="26.17" cy="13.59" r="1" fill="#3D454C" fill-rule="nonzero"/>
    </g>
  </g>
</svg>
