<svg xmlns="http://www.w3.org/2000/svg" width="64" height="64" viewBox="0 0 64 64" style="background:#fff">
  <g id="Cicorino" fill="none" fill-rule="evenodd" stroke="none" stroke-width="1">
    <rect width="64" height="64" fill="#FFF"/>
    <g id="Group" transform="translate(2 5)">
      <g id="Cicorino" transform="translate(1.875 3.75)">
        <rect id="Rectangle" width="56.25" height="56.25" x="0" y="0"/>
        <path id="Path" fill="#31E085" fill-rule="nonzero" d="M11.334375 12.290625C15.3491559 14.979704 18.0421182 19.2387379 18.75 24.01875 19.2 27.225 22.378125 28.753125 25.396875 28.70625 27.778125 28.70625 32.325 27.009375 31.875 23.803125 30.9011516 16.3060837 26.7566611 9.58750268 20.49375 5.353125 17.6543015 3.51408983 13.9832199 3.58083676 11.2125 5.521875 10.0776341 6.28522502 9.40721724 7.57192308 9.43183957 8.93940897 9.45646189 10.3068948 10.1727645 11.5686243 11.334375 12.290625L11.334375 12.290625zM52.678125 20.128125C50.428125 13.3875 41.896875 11.934375 36.028125 14.08125 33.346875 15.065625 31.875 18.328125 33.7875 20.64375 35.3740632 22.3793295 37.7291953 23.1972796 40.05 22.81875L40.05 22.81875 40.05 22.81875 40.05 22.81875 39.909375 23.23125 39.909375 23.23125 39.909375 23.23125C37.378125 23.625 34.51875 25.275 34.575 28.05 34.63125 31.321875 38.521875 32.7375 41.2125 32.7375 47.596875 32.8125 55.05 27.234375 52.678125 20.128125zM28.35 42.9375C28.2537351 42.8335721 28.1503608 42.7364629 28.040625 42.646875L28.340625 42.909375C28.3461814 42.8815244 28.3461814 42.8528506 28.340625 42.825 28.3705973 42.8657149 28.3957642 42.9097571 28.415625 42.95625 28.5 43.021875 28.509375 42.95625 28.340625 42.80625L28.340625 42.80625C28.284375 42.628125 28.21875 42.45 28.153125 42.271875 28.1278285 42.1230406 28.1121709 41.9727277 28.10625 41.821875 28.10625 41.821875 28.10625 41.56875 28.10625 41.4 28.10625 41.23125 28.171875 41.090625 28.18125 41.034375 28.2060439 40.9615814 28.2217872 40.8860137 28.228125 40.809375L28.284375 40.734375C28.4625 40.509375 28.453125 40.490625 28.284375 40.640625L28.284375 40.640625 28.284375 40.725C28.2889587 40.7002101 28.2889587 40.6747899 28.284375 40.65L28.284375 40.65 28.284375 40.65C28.284375 40.471875 28.284375 40.3875 28.284375 40.65 29.2657584 39.8417333 29.8501843 38.6489578 29.8875 37.378125 29.7916823 35.9394344 29.0286019 34.6283235 27.825 33.834375 25.29375 32.146875 20.578125 31.66875 18.178125 34.003125 15.778125 36.3375 14.3625 38.75625 14.428125 42.075 14.49375 45.39375 16.115625 47.878125 18.50625 49.96875 20.896875 52.059375 25.790625 51.84375 28.1625 49.8 30.534375 47.75625 30.50625 45.1125 28.40625 42.99375 28.48125 43.125 28.44375 43.190625 28.35 42.9375z" opacity=".5"/>
        <polygon id="Path" fill="#31E085" fill-rule="nonzero" points="29.184 43.509 29.241 43.556 29.241 43.556 29.194 43.556" opacity=".5"/>
        <path id="Path" fill="#31E085" fill-rule="nonzero" d="M16.93125 34.425C18.2180737 34.1766167 19.4042198 33.5574745 20.34375 32.64375 22.153125 30.45 20.5875 28.2 17.86875 27.253125 13.584375 25.7625 7.875 26.465625 4.790625 29.49375 3.70781934 30.5215456 3.10248957 31.9542087 3.12028244 33.4470299 3.1380753 34.9398512 3.77737994 36.3576795 4.884375 37.359375 6.88125 39.384375 11.15625 39.778125 13.89375 38.653125 15.9375 37.809375 17.503125 36.15 16.93125 34.425zM38.540625 34.228125C35.83125 33.984375 31.55625 34.453125 30.646875 37.715625 29.840625 40.603125 32.409375 43.228125 35.19375 43.509375L35.2875 43.7625C35.2654575 43.9273916 35.2654575 44.0944834 35.2875 44.259375 35.25 44.884375 35.25 44.95 35.2875 44.45625 35.053125 45.01875 35.053125 45.075 35.2875 44.64375 33.703125 47.25 34.89375 50.090625 37.715625 51.20625 40.303125 52.14375 44.859375 52.14375 46.5375 49.33125 48.215625 46.51875 48.9 43.0875 47.26875 39.95625 45.4861228 36.720556 42.2184547 34.5760391 38.540625 34.228125L38.540625 34.228125z" opacity=".5"/>
        <path id="Shape" fill="#3D454C" fill-rule="nonzero" d="M34.6875,30.4875 C36.5036291,31.4035894 38.4955456,31.9183543 40.528125,31.996875 C42.4834853,31.9623205 44.4059938,31.4881017 46.153125,30.609375 C48.3697088,29.332479 49.9877093,27.2267331 50.6506576,24.7560639 C51.3136058,22.2853947 50.9671071,19.6525198 49.6875,17.4375 C47.04375,12.853125 40.575,11.8125 36.5625,13.884375 C32.1375,16.190625 31.4625,19.06875 30.815625,21.84375 C30.4858431,24.0705638 29.4851227,26.143952 27.946875,27.7875 C27.9,27.646875 27.853125,27.496875 27.796875,27.35625 C28.275,25.1625 29.83125,13.040625 24.984375,8.175 C21.2020874,4.40565658 15.0802809,4.41614991 11.3109375,8.1984375 C7.54159408,11.9807251 7.55208741,18.1025316 11.334375,21.871875 C13.940625,24.084375 16.321875,24.684375 18.834375,25.228125 C21.357055,25.691384 23.7744907,26.6094377 25.96875,27.9375 C26.11875,28.340625 26.26875,28.78125 26.41875,29.2125 C26.2064801,29.2410236 25.9965556,29.2848884 25.790625,29.34375 L25.44375,29.45625 C20.175,25.95 14.3625,24.665625 9.890625,26.034375 C6.60415883,27.0232064 4.28217173,29.9554406 4.07290981,33.3810584 C3.86364788,36.8066761 5.81145666,39.9997409 8.953125,41.38125 C9.0709379,41.4339962 9.19908762,41.4596262 9.328125,41.45625 C9.69646821,41.4554814 10.0302298,41.2390866 10.18125,40.903125 C10.2821109,40.6756384 10.2883917,40.4173853 10.1987087,40.1852645 C10.1090257,39.9531438 9.93073754,39.7662015 9.703125,39.665625 C7.27447908,38.6093387 5.76224279,36.1505833 5.91506275,33.5065886 C6.06788271,30.862594 7.85332907,28.594441 10.3875,27.825 C13.575,26.8875 17.5875,27.45 21.553125,29.4 C14.934375,29.83125 12.50625,31.584375 12.39375,31.66875 C12.0789241,31.913012 11.9529022,32.3295957 12.0795428,32.7074071 C12.2061835,33.0852184 12.5578125,33.3416957 12.95625,33.346875 C13.1538008,33.3503167 13.3473888,33.2912559 13.509375,33.178125 C13.509375,33.178125 15.6,31.74375 21.196875,31.303125 C18.384375,32.86875 15.646875,34.9875 14.3625,37.153125 C12.876465,39.6244376 12.4794238,42.6005498 13.265625,45.375 C13.9542513,47.8741738 15.6527803,49.9735556 17.953125,51.16875 C20.3038114,52.3725508 23.0455151,52.558946 25.5375,51.684375 C28.0431486,50.8248996 30.0800165,48.9645603 31.1625,46.546875 C32.709375,43.115625 31.70625,37.378125 30.028125,33.215625 C29.896875,32.86875 29.775,32.53125 29.6625,32.2125 C29.55,31.89375 29.371875,31.415625 29.19375,31.0125 C29.671875,31.265625 30.271875,31.6125 30.946875,32.034375 C30.9415712,32.0748269 30.9415712,32.1157981 30.946875,32.15625 C32.146875,34.265625 32.41875,36.84375 32.68125,39.403125 C33.01875,42.665625 33.365625,46.05 35.803125,48.2625 C37.2027353,49.7761539 39.1435167,50.6757869 41.203125,50.765625 L41.56875,50.765625 C43.5608923,50.8126658 45.4946609,50.0908598 46.96875,48.75 C50.1545702,45.8308507 50.3808864,40.8854223 47.475,37.6875 C45.54375,35.578125 42.515625,34.528125 38.325,33.075 C36.76875,32.540625 35.034375,31.93125 33.15,31.2 C32.1892664,30.5045327 31.1804938,29.8779659 30.13125,29.325 C31.7226871,29.3303683 33.2880272,29.7297555 34.6875,30.4875 Z M41.41875,19.153125 C41.203125,19.153125 37.096875,18.684375 32.325,23.3625 C32.41875,22.9875 32.503125,22.621875 32.5875,22.265625 C33.215625,19.584375 33.7125,17.45625 37.378125,15.54375 C40.65,13.8375 45.9,14.68125 48.028125,18.35625 C50.1570077,22.0550535 48.9007145,26.7787157 45.215625,28.93125 C40.715625,31.040625 38.128125,29.925 35.390625,28.74375 C34.0770264,28.0949463 32.6689583,27.6582869 31.21875,27.45 C36.3375,20.625 40.9875,20.990625 41.25,21.009375 C41.7621756,21.0700282 42.2271558,20.7055843 42.290625,20.19375 C42.3194545,19.9433424 42.2462347,19.6918746 42.0874857,19.4960842 C41.9287367,19.3002938 41.697834,19.1766771 41.446875,19.153125 L41.41875,19.153125 Z M26.38125,23.94375 C23.484375,17.4375 20.625,14.71875 20.19375,14.315625 L20.1375,14.315625 C19.7419457,13.9961525 19.1638303,14.0502208 18.834375,14.4375 C18.5017779,14.8271325 18.5435252,15.4115958 18.928125,15.75 C19.078125,15.88125 21.965625,18.5625 24.88125,25.246875 C23.0815108,24.4330738 21.1940936,23.8291003 19.25625,23.446875 C16.85625,22.89375 14.784375,22.40625 12.58125,20.540625 C9.53419148,17.4987442 9.52999415,12.5626835 12.571875,9.515625 C15.6137558,6.46856648 20.5498165,6.46436915 23.596875,9.50625 C26.7,12.590625 26.75625,19.74375 26.38125,23.94375 Z M29.540625,45.778125 C28.6709936,47.7240182 27.040374,49.2273757 25.0303772,49.9363692 C23.0203804,50.6453628 20.8074141,50.4977676 18.909375,49.528125 C17.0682867,48.5748006 15.7089203,46.8959832 15.159375,44.896875 C14.5286582,42.6137997 14.8678454,40.1716521 16.096875,38.146875 C17.45625,35.878125 21.365625,33.09375 25.096875,31.640625 C23.3189875,34.5391154 21.9081775,37.6473061 20.896875,40.89375 C20.7443986,41.3881927 21.0213274,41.912679 21.515625,42.065625 C21.6088416,42.0797675 21.7036584,42.0797675 21.796875,42.065625 C22.204934,42.0640166 22.5650845,41.7986424 22.6875,41.409375 C23.34375,39.290625 25.284375,34.10625 27.496875,31.509375 C27.6856554,31.9323892 27.8454002,32.3677721 27.975,32.8125 C28.096875,33.159375 28.228125,33.515625 28.378125,33.88125 C29.859375,37.584375 30.853125,42.8625 29.540625,45.778125 Z M40.5,42.3 C40.6590948,42.6014429 40.9669224,42.7951115 41.3075269,42.8080527 C41.6481315,42.820994 41.9697672,42.6512418 42.151277,42.3627402 C42.3327867,42.0742386 42.3465949,41.7108178 42.1875,41.409375 C40.8428527,38.9495245 39.1644511,36.6874682 37.2,34.6875 L37.70625,34.865625 C41.634375,36.225 44.475,37.209375 46.0875,38.971875 C47.1555427,40.1416659 47.7150799,41.6878607 47.6429937,43.2702416 C47.5709075,44.8526225 46.873104,46.3415385 45.703125,47.409375 C44.5344521,48.4797744 42.9877267,49.0408806 41.4045812,48.9687595 C39.8214357,48.8966385 38.3321339,48.1972243 37.265625,47.025 L37.228125,46.875 C35.296875,45.15 34.996875,42.253125 34.678125,39.1875 C34.5389787,37.4713808 34.263103,35.7691025 33.853125,34.096875 C36.569826,36.3840919 38.8257005,39.16814 40.5,42.3 Z"/>
        <circle id="Oval" cx="17.072" cy="12.366" r="1" fill="#3D454C" fill-rule="nonzero"/>
      </g>
    </g>
  </g>
</svg>
