<svg xmlns="http://www.w3.org/2000/svg" width="64" height="64" viewBox="0 0 64 64" style="background:#fff">
  <g id="Claressefilet" fill="none" fill-rule="evenodd" stroke="none" stroke-width="1">
    <rect width="64" height="64" fill="#FFF"/>
    <g transform="translate(2 4)">
      <rect id="Rectangle" width="60" height="60" x="0" y="0"/>
      <path id="Path" fill="#B3B3B3" fill-rule="nonzero" d="M47.38,5.82 C43.83,0.68 31.83,4.77 36.26,11.19 C40.030692,16.8215026 41.5640616,23.6574781 40.56,30.36 C39.86,35.29 36.37,45.46 30.7,45.97 C24.8,46.51 20.75,35.62 19.8,30.86 C18.4584556,23.719126 19.5869877,16.3342942 23,9.92 C24.57,6.84 20.58,4.2 18.37,3.72 C15.1815535,2.94870087 11.8851426,4.49506261 10.44,7.44 C5.54045052,17.2392007 4.97456795,28.6439109 8.88,38.88 C12.92,49.21 22.07,57.62 33,56 C42.61,54.54 50,45.51 52.54,35.75 C55.2672713,25.4982402 53.3826492,14.5667016 47.38,5.82 Z" opacity=".5"/>
      <path id="Shape" fill="#3D454C" fill-rule="nonzero" d="M42.32,5 C42.0109986,4.73466435 41.571949,4.68324413 41.21,4.87 C40.8396708,5.05871789 40.6246873,5.45683552 40.67,5.87 C40.67,6.39 40.74,6.87 40.74,7.41 C40.74,15.15 35.8,21.41 29.74,21.41 C23.68,21.41 18.74,15.12 18.74,7.41 C18.74,6.91 18.74,6.41 18.81,5.87 C18.8553127,5.45683552 18.6403292,5.05871789 18.27,4.87 C17.908051,4.68324413 17.4690014,4.73466435 17.16,5 C11.25,10.11 7.72,18.5 7.72,27.44 C7.72,42.5 17.6,54.76 29.72,54.76 C41.84,54.76 51.7203363,42.5 51.7203363,27.44 C51.76,18.48 48.23,10.09 42.32,5 Z M29.74,52.74 C18.74,52.74 9.74,41.38 9.74,27.42 C9.74,19.97 12.34,12.94 16.74,8.15 C17.07,16.63 22.74,23.4 29.74,23.4 C36.74,23.4 42.39,16.63 42.74,8.15 C47.18,12.94 49.7400333,19.97 49.7400333,27.42 C49.76,41.38 40.78,52.74 29.74,52.74 Z"/>
      <path id="Shape" fill="#3D454C" fill-rule="nonzero" d="M30.74,43.12 L30.74,31.43 C30.74,30.8777153 30.2922847,30.43 29.74,30.43 C29.1877153,30.43 28.74,30.8777153 28.74,31.43 L28.74,43.12 C27.1204476,43.6151949 26.1072248,45.2211283 26.3575726,46.8960892 C26.6079204,48.5710501 28.0464333,49.8105351 29.74,49.8105351 C31.4335667,49.8105351 32.8720796,48.5710501 33.1224274,46.8960892 C33.3727752,45.2211283 32.3595524,43.6151949 30.74,43.12 Z M29.74,47.79 C29.1656636,47.79 28.6478801,47.4440281 28.4280911,46.9134105 C28.208302,46.3827928 28.3297912,45.7720255 28.7359084,45.3659084 C29.1420255,44.9597912 29.7527928,44.838302 30.2834105,45.0580911 C30.8140281,45.2778801 31.16,45.7956636 31.16,46.37 C31.1545505,47.151976 30.521976,47.7845505 29.74,47.79 L29.74,47.79 Z"/>
      <circle id="Oval" cx="29.74" cy="27.49" r="1" fill="#3D454C" fill-rule="nonzero"/>
    </g>
  </g>
</svg>
