<svg xmlns="http://www.w3.org/2000/svg" width="64" height="64" viewBox="0 0 64 64" style="background:#fff">
  <g id="Cognac" fill="none" fill-rule="evenodd" stroke="none" stroke-width="1">
    <rect width="64" height="64" fill="#FFF"/>
    <g transform="translate(2 4)">
      <rect id="Rectangle" width="60" height="60" x="0" y="0"/>
      <path id="Path" fill="#C17953" fill-rule="nonzero" d="M42.87,38.84 C39.66,38 36.19,38.09 33,37.1 C29.59,36.02 27.89,32.57 25,30.58 C19.4910942,26.5917986 11.9016177,27.1935326 7.09,32 C6.59034917,32.47723 6.2632456,33.1068164 6.16,33.79 C5.5398941,34.76065 5.14364367,35.8571705 5,37 C4.11,43.43 5.28,52.74 11.63,56 C15.1,57.78 19.25,57.43 23.02,57.43 L35.15,57.43 C41.01,57.43 50.75,58.49 53.26,51.36 C55.65,44.51 48.28,40.22 42.87,38.84 Z" opacity=".5"/>
      <path id="Path" fill="#3D454C" fill-rule="nonzero" d="M28.18 36.17C28.6154901 36.0516505 28.9177501 35.6562851 28.9177501 35.205 28.9177501 34.7537149 28.6154901 34.3583495 28.18 34.24L16.61 34.24C16.0577153 34.24 15.61 34.6877153 15.61 35.24L15.61 42C15.61 42.5522847 16.0577153 43 16.61 43L28.18 43C28.6154901 42.8816505 28.9177501 42.4862851 28.9177501 42.035 28.9177501 41.5837149 28.6154901 41.1883495 28.18 41.07L17.57 41.07 17.57 36.17 28.18 36.17zM22.39 44.87C21.9545099 44.9883495 21.6522499 45.3837149 21.6522499 45.835 21.6522499 46.2862851 21.9545099 46.6816505 22.39 46.8L28.18 46.8C28.6154901 46.6816505 28.9177501 46.2862851 28.9177501 45.835 28.9177501 45.3837149 28.6154901 44.9883495 28.18 44.87L22.39 44.87z"/>
      <circle id="Oval" cx="18.39" cy="45.8" r="1" fill="#3D454C" fill-rule="nonzero"/>
      <path id="Shape" fill="#3D454C" fill-rule="nonzero" d="M36.8599994,29.51 C36.9256679,30.010992 37.3547407,30.3842854 37.8599994,30.38 C38.1321876,30.3789612 38.3921912,30.2670153 38.58,30.07 C38.7566003,29.8658374 38.8431586,29.5989493 38.82,29.33 C38.5680938,26.4673281 36.9172417,23.9143098 34.41,22.51 L31.64,21 C30.7076495,20.4978746 30.1216694,19.5289009 30.11,18.47 L30.11,15 C30.6622847,15 31.11,14.5522847 31.11,14 L31.11,5.31 C31.1126773,4.79731612 30.9101984,4.30485599 30.5476712,3.9423288 C30.185144,3.57980161 29.6926839,3.37732274 29.18,3.37997378 L19.5,3.37997378 C18.9873161,3.37732274 18.494856,3.57980161 18.1323288,3.9423288 C17.7698016,4.30485599 17.5673227,4.79731612 17.57,5.31 L17.57,14 C17.57,14.5522847 18.0177153,15 18.57,15 L18.57,18.52 C18.5486834,19.5605942 17.9675718,20.5087235 17.05,21 L14.32,22.51 C11.5654219,24.047398 9.85886439,26.9554332 9.85999943,30.11 L9.85999943,52.56 C9.85999943,55.2220125 12.0179875,57.38 14.68,57.38 L28.18,57.38 C28.6154901,57.2616505 28.9177501,56.8662851 28.9177501,56.415 C28.9177501,55.9637149 28.6154901,55.5683495 28.18,55.45 L14.68,55.45 C13.9117932,55.4526582 13.1741387,55.1493508 12.6299939,54.6070823 C12.085849,54.0648138 11.7799954,53.3282114 11.78,52.56 L11.78,30.77 C15.8144752,30.104984 19.9423104,30.2717308 23.91,31.26 L24.51,31.4 C25.6805908,31.68126 26.8656959,31.8982511 28.06,32.05 L28.18,32.05 C28.5789735,32.180556 29.0170155,32.0480288 29.2767018,31.718199 C29.5363881,31.3883691 29.5624296,30.9314599 29.3419004,30.5742602 C29.1213712,30.2170606 28.7012237,30.035621 28.29,30.12 C27.1816065,29.9859911 26.0827614,29.7822539 25,29.51 L24.42,29.38 C20.3452032,28.3704755 16.1119561,28.1700248 11.96,28.79 C12.3434475,26.8432796 13.5603909,25.1622165 15.29,24.19 L18,22.67 C19.5239727,21.8214227 20.4691151,20.214298 20.47,18.47 L20.47,15 L28.19,15 L28.19,18.52 C28.1950321,20.26582 29.1437076,21.872448 30.67,22.72 L33.39,24.23 C35.3485912,25.3079337 36.6475777,27.2844895 36.8599994,29.51 Z M29.14,5.31 L29.14,9.17 L27.21,9.17 C26.7745099,9.28834945 26.4722499,9.68371494 26.4722499,10.135 C26.4722499,10.5862851 26.7745099,10.9816505 27.21,11.1 L29.14,11.1 L29.14,13 L19.5,13 L19.5,11.1 L21.43,11.1 C21.8654901,10.9816505 22.1677501,10.5862851 22.1677501,10.135 C22.1677501,9.68371494 21.8654901,9.28834945 21.43,9.17 L19.5,9.17 L19.5,5.31 L29.14,5.31 Z"/>
      <path id="Shape" fill="#3D454C" fill-rule="nonzero" d="M51.32,32.31 L47.46,32.31 C47.0245099,32.4283495 46.7222499,32.8237149 46.7222499,33.275 C46.7222499,33.7262851 47.0245099,34.1216505 47.46,34.24 L50.36,34.24 L50.36,41 L44.47,41 L40.47,37 C40.2846225,36.8213193 40.0374695,36.7210253 39.78,36.72 C39.5225305,36.7210253 39.2753775,36.8213193 39.09,37 L35.09,41 L32.9999992,41 L32.9999992,34.24 L43.61,34.24 C44.0454901,34.1216505 44.3477501,33.7262851 44.3477501,33.275 C44.3477501,32.8237149 44.0454901,32.4283495 43.61,32.31 L31.9999992,32.31 C31.4477153,32.31 30.9999992,32.7577153 30.9999992,33.31 L30.9999992,54.49 C30.9994305,55.2759207 31.3189649,56.0281782 31.8849748,56.5734344 C32.4509848,57.1186907 33.2146487,57.4099141 33.9999992,57.38 L49.39,57.38 C50.9861029,57.38 52.28,56.0861029 52.28,54.49 L52.28,33.28 C52.2646436,32.7546219 51.8451908,32.3307997 51.32,32.31 Z M39.75,39 L41.75,41 L40.42,41 C40.0134776,40.8895228 39.5813153,41.0456586 39.3392781,41.3904537 C39.0972408,41.7352487 39.0972408,42.1947513 39.3392781,42.5395463 C39.5813153,42.8843414 40.0134776,43.0404772 40.42,42.93 L41.28,42.93 L39.75,44.46 L37.06,41.76 L37.06,41.76 L39.75,39 Z M35.5,42.92 L39.06,46.5 C39.2453775,46.6786807 39.4925305,46.7789747 39.75,46.78 C40.0074695,46.7789747 40.2546225,46.6786807 40.44,46.5 L44,42.92 L50.36,42.92 L50.36,49.67 L33,49.67 L33,42.92 L35.5,42.92 Z M49.39,55.45 L34,55.45 C33.4477153,55.45 33,55.0022847 33,54.45 L33,51.6 L50.36,51.6 L50.36,54.49 C50.3392003,55.0151908 49.9153781,55.4346436 49.39,55.45 Z"/>
    </g>
  </g>
</svg>
