<svg xmlns="http://www.w3.org/2000/svg" width="64" height="64" viewBox="0 0 64 64" style="background:#fff">
  <g id="Couscous" fill="none" fill-rule="evenodd" stroke="none" stroke-width="1">
    <rect width="64" height="64" fill="#FFF"/>
    <g transform="translate(2 4)">
      <rect id="Rectangle" width="60" height="60" x="0" y="0"/>
      <g id="Group" fill="#EBE53F" fill-rule="nonzero" opacity=".5" transform="translate(7 8)">
        <path id="Path" d="M38.71 6.92C33.81 7.84 34.99 13.56 39.88 12.64 44.77 11.72 43.59 6 38.71 6.92zM23.79 14.76C20.4 18.41 24.74 22.31 28.13 18.67 31.52 15.03 27.17 11.13 23.79 14.76zM25.93 39.1L25.75 38.9C25.0775077 38.1509689 24.1906427 37.6272297 23.21 37.4 22.3947705 37.2091359 21.5371522 37.4087539 20.89 37.94 19.51 39.38 20.3 41.56 21.46 42.86L21.63 43.06C22.306395 43.8092635 23.1964827 44.3328445 24.18 44.56 24.9952362 44.7501276 25.8523333 44.5423465 26.49 44 27.88 42.58 27.09 40.41 25.93 39.1zM3.05 29.51L2.81 29.62C1.90313901 30.0473821 1.1517376 30.7463602.66 31.62.237373939 32.3458883.185392743 33.2295686.52 34 1.52 35.74 3.82 35.59 5.4 34.85L5.64 34.73C6.54651794 34.2983329 7.299979 33.6006838 7.8 32.73 8.20987712 32.0033024 8.25793511 31.1271684 7.93 30.36 6.94 28.62 4.63 28.76 3.05 29.51zM18.05 14.6C17.8652777 13.6043517 17.3678445 12.6935585 16.63 12 15.4 10.86 13.17 9.86 11.73 11.28L11.54 11.46C10.9956658 12.093056 10.7709378 12.9403911 10.93 13.76 11.1250425 14.749066 11.6210077 15.6536786 12.35 16.35 13.59 17.49 15.81 18.48 17.25 17.07L17.44 16.88C17.9850566 16.2552675 18.210282 15.4134415 18.05 14.6zM31.89 20.1C27.61 22.63 30.68 27.6 34.96 25.1 39.24 22.6 36.17 17.56 31.89 20.1zM20.22 1C19.3810911.441151176 18.3872609.161199001 17.38.2 15.7.28 13.43 1.2 13.43 3.2L13.43 3.73C13.5051521 4.54442843 13.9467524 5.28042887 14.63 5.73 15.4716821 6.29190753 16.4686016 6.57524255 17.48 6.54 19.16 6.45 21.43 5.54 21.43 3.54L21.43 3.01C21.3512011 2.19155267 20.9064041 1.45267505 20.22 1zM9.39 20L9.12 19.74C8.47495858 19.0619225 7.63092382 18.606634 6.71 18.44 5.67231757 18.2458094 4.6003397 18.3641446 3.63 18.78 2.8090171 19.1014362 2.15511149 19.7445036 1.82 20.56 1.55962762 21.3318995 1.72699329 22.1839429 2.26 22.8L2.53 23.07C3.19452853 23.7508236 4.06058139 24.1996283 5 24.35 6.01265931 24.530908 7.05618239 24.4091637 8 24 8.8209829 23.6785638 9.47488851 23.0354964 9.81 22.22 10.0661352 21.4573514 9.90703136 20.6163739 9.39 20L9.39 20zM16.22 35.67C15.3799928 35.1125518 14.3876867 34.8295349 13.38 34.86 11.7 34.95 9.43 35.86 9.43 37.86L9.43 38.93C9.50515212 39.7444284 9.94675238 40.4804289 10.63 40.93 11.4716821 41.4919075 12.4686016 41.7752426 13.48 41.74 15.16 41.65 17.43 40.74 17.43 38.74L17.43 37.71C17.3600023 36.8806948 16.9141883 36.1290746 16.22 35.67zM41.08 37.54C40.2425637 36.9769954 39.2484337 36.6934583 38.24 36.73 36.56 36.81 34.24 37.73 34.24 39.73L34.24 40.26C34.3174621 41.07623 34.7629487 41.8125715 35.45 42.26 36.2903311 42.81575 37.2831434 43.0954155 38.29 43.06 39.97 42.98 42.24 42.06 42.24 40.06L42.24 39.53C42.1726518 38.725855 41.7465463 37.9948637 41.08 37.54L41.08 37.54z"/>
        <path id="Path" d="M45.54 24.94L45 23.61C44.29 21.81 41.76 21.21 40 21.61 38.24 22.01 36.51 23.37 37.27 25.25 37.44 25.7 37.62 26.14 37.8 26.59 38.52 28.38 41.04 28.98 42.75 28.54 44.46 28.1 46.29 26.82 45.54 24.94zM32 4.28L31.62 3.82C30.2235937 2.41708703 28.0610497 2.12219467 26.34 3.1 25.4674479 3.47862681 24.7583732 4.15579318 24.34 5.01 23.9911003 5.74808415 24.0596048 6.61580756 24.52 7.29L24.91 7.74C26.3015269 9.144525 28.4627219 9.43979262 30.18 8.46 31.0508754 8.08386177 31.7597251 7.41045458 32.18 6.56 32.5395417 5.82390294 32.4705936 4.95056006 32 4.28L32 4.28zM24.84 26.33C19.84 26.33 19.97 32.17 24.94 32.17 29.91 32.17 29.81 26.33 24.84 26.33z"/>
      </g>
      <path id="Shape" fill="#3D454C" fill-rule="nonzero" d="M25.92 9.73C24.3951616 8.55973949 22.2535365 8.63952553 20.82 9.92 20.0697607 10.6180058 19.658797 11.6068637 19.6933188 12.6310117 19.7278407 13.6551598 20.2044605 14.6140991 21 15.26 21.7259416 15.9613432 22.7154848 16.3215481 23.7224082 16.2509872 24.7293316 16.1804263 25.6589672 15.6857335 26.28 14.89 27.3631762 13.4271147 27.3220774 11.417379 26.18 10 26.1130089 9.89293256 26.0244642 9.80098224 25.92 9.73L25.92 9.73zM22.41 13.84C22.0059327 13.586271 21.741237 13.1605867 21.6924077 12.6859663 21.6435784 12.2113459 21.8160576 11.7406847 22.16 11.41 22.8004551 10.8167637 23.7516912 10.7074727 24.51 11.14 26 12.54 24.25 15.31 22.41 13.84L22.41 13.84zM35.07 22.36C35.0233216 22.2509732 34.9553231 22.1523754 34.87 22.07 33.4278153 20.723897 31.2279047 20.6058942 29.65 21.79 28.0400294 23.1075764 27.788832 25.4748138 29.0864358 27.1009249 30.3840396 28.7270361 32.7479962 29.0074335 34.39 27.73 35.9005658 26.4544656 36.275987 24.2778662 35.28 22.57 35.2208426 22.4899378 35.1500622 22.4191574 35.07 22.36zM30.71 25.85C29.15 24 31.91 22 33.46 23.48L33.53 23.48C33.53 23.48 33.53 23.48 33.53 23.54 34.7 25.41 32.28 27.73 30.71 25.85zM18.69 30.48C18.7347372 29.499792 18.3729153 28.544582 17.69 27.84 16.21 26.04 14.16 25.55 12.36 27.3 11.6325252 28.1630779 11.2106534 29.2423665 11.16 30.37 10.8399995 31.4162452 11.0367707 32.5523207 11.69 33.43 13.2377288 35.0416932 15.7954086 35.1041845 17.42 33.57 18.1512092 32.6952218 18.5947135 31.6161444 18.69 30.48zM16 32.16C15.222313 32.9222858 13.977687 32.9222858 13.2 32.16 12.69 31.43 13.2 29.37 13.77 28.76 14.77 27.83 15.46 28.3 16.17 29.18 16.4970697 29.4992206 16.6871384 29.9331511 16.7 30.39 16.6356865 31.0335867 16.3932854 31.6465152 16 32.16L16 32.16zM30.35 32.69C29.3285541 32.7691895 28.393494 33.2931956 27.7927389 34.1230848 27.1919838 34.952974 26.9862189 36.0049153 27.23 37 27.7825616 39.0257177 29.6732441 40.3916733 31.77 40.28 34.22 40.08 35.06 37.39 34.45 35.28 34.08 33.38 32.12 32.59 30.35 32.69zM31.28 38.23C30.260696 38.1380164 29.4106579 37.4122763 29.16 36.42 28.81 34.42 32.16 34.03 32.52 35.8 32.82 36.82 32.65 38.34 31.28 38.23zM18.59 42.2C18.4779758 42.1756385 18.3620242 42.1756385 18.25 42.2L18.25 42.2C18.0394967 42.2297753 17.8491383 42.341117 17.72 42.51 16.2617805 43.3948937 15.5454638 45.122957 15.95 46.78 16.4765839 48.6766997 18.4222447 49.8050053 20.33 49.32 22.1228818 48.708291 23.17526 46.8526691 22.78 45 22.269309 43.1579342 20.4873054 41.9670964 18.59 42.2L18.59 42.2zM19.51 47.47C18.6347855 47.5330403 17.8739576 46.875148 17.81 46 17.7363584 45.2347902 18.1310805 44.5006071 18.81 44.14 21 43.93 21.69 47.22 19.51 47.47zM48.52 30.37C46.529417 30.2160303 44.6978695 31.4619809 44.11 33.37 43.8764318 34.3252939 44.0360352 35.334362 44.5530224 36.1709412 45.0700095 37.0075204 45.9011222 37.601611 46.86 37.82 48.9310671 38.1892002 50.9615347 36.9913092 51.64 35 51.9503093 33.9640575 51.7798555 32.8435645 51.1755294 31.9467599 50.5712032 31.0499553 49.5966639 30.4713082 48.52 30.37L48.52 30.37zM49.44 35C48.883082 35.8640153 47.7805546 36.1947735 46.84 35.78 46.4656928 35.5787832 46.1868108 35.2369244 46.0648705 34.8298314 45.9429303 34.4227384 45.9879503 33.9838583 46.19 33.61 46.6339975 32.7567611 47.567537 32.2759682 48.52 32.41 49.79 32.46 50 34.11 49.44 35zM47.67 47.11C47.6082735 46.9767252 47.5197698 46.8575855 47.41 46.76 46.15 45.07 44.32 43.27 42.05 44.27 40.3622926 45.3051509 39.4874214 47.2736109 39.85 49.22 40.42 51.22 43.07 51.98 44.85 51.43 45.8227371 51.2197754 46.7188157 50.7457879 47.44 50.06 47.9833099 49.3692407 48.1343205 48.4480757 47.84 47.62 47.8359864 47.4367592 47.7767336 47.2590008 47.67 47.11L47.67 47.11zM43.75 49.66C42.93 49.74 41.75 49.14 41.75 48.23 41.81 47.49 42.25 46.23 43.06 46.02 44.31 45.74 45.3 47.28 45.9 48.12 46.33 49 44.4 49.59 43.75 49.66zM46.67 21.41C47.6127754 21.0472637 48.3693378 20.319516 48.768391 19.3915292 49.1674441 18.4635423 49.1752351 17.4138077 48.79 16.48 48.7723513 16.4484974 48.7522914 16.4184075 48.73 16.39 48.7342691 16.3400911 48.7342691 16.2899089 48.73 16.24 47.7228683 14.5011088 45.5684696 13.7987748 43.73 14.61 42.84369 15.0169693 42.1597533 15.7652338 41.8338802 16.6844596 41.5080072 17.6036854 41.5679271 18.6156532 42 19.49 42.7716671 21.2973873 44.8502116 22.1519494 46.67 21.41L46.67 21.41zM44.5 16.41C45.3795694 16.0575256 46.3857677 16.3706578 46.91 17.16 47.1156262 17.6073079 47.1245051 18.1202924 46.9344817 18.5744484 46.7444583 19.0286044 46.3729048 19.3824121 45.91 19.55 45.5126798 19.7172216 45.0646933 19.7170452 44.6675049 19.5495107 44.2703166 19.3819763 43.9575342 19.0612597 43.8 18.66 43.5903725 18.2711651 43.5464697 17.8142061 43.6782303 17.392572 43.809991 16.9709378 44.1062722 16.6202863 44.5 16.42L44.5 16.41z"/>
      <circle id="Oval" cx="40.03" cy="28.82" r="1" fill="#3D454C" fill-rule="nonzero"/>
      <circle id="Oval" cx="35.96" cy="14.65" r="1" fill="#3D454C" fill-rule="nonzero"/>
      <circle id="Oval" cx="30.75" cy="48.69" r="1" fill="#3D454C" fill-rule="nonzero"/>
      <circle id="Oval" cx="10.41" cy="41.2" r="1" fill="#3D454C" fill-rule="nonzero"/>
      <circle id="Oval" cx="20.32" cy="21.33" r="1" fill="#3D454C" fill-rule="nonzero"/>
    </g>
  </g>
</svg>
