<svg xmlns="http://www.w3.org/2000/svg" width="64" height="64" viewBox="0 0 64 64" style="background:#fff">
  <g id="Crème-fraiche" fill="none" fill-rule="evenodd" stroke="none" stroke-width="1">
    <rect width="64" height="64" fill="#FFF"/>
    <g transform="translate(2 8)">
      <path id="Path" fill="#CCC" fill-rule="nonzero" d="M45.79,25.29 C44.79,25.84 43.79,26.34 42.69,26.81 C42.8171614,26.1816402 42.8475121,25.5375329 42.78,24.9 C42.52,22 40,19.84 37.46,18.76 C36.4210166,18.3247329 35.3427702,17.9898738 34.24,17.76 C37.58,12.32 27.3,7.89 22.81,12.14 C20.16,14.66 18.64,17.67 19.71,21.14 C19.46,21.14 19.21,21.14 18.97,21.14 C14.64,21.24 9.44,22.37 6.76,26.01 C-8.8817842e-16,35.23 14.76,39.72 21.3,40.33 C32.3151948,41.4106209 43.4038854,39.2081919 53.17,34 C61.34,29.59 52.2,21.84 45.79,25.29 Z" opacity=".5"/>
      <rect id="Rectangle" width="60" height="60" x="0" y="0"/>
      <path id="Shape" fill="#3D454C" fill-rule="nonzero" d="M57,31.44 C56.8,28.44 52.15,26.59 42.82,25.75 C42.7858691,24.7297822 42.3117699,23.77429 41.52,23.13 C39.59,21.44 35.76,20.86 30.76,21.51 C30.1780916,19.0136224 30.1032802,16.4258255 30.54,13.9 C30.6670255,13.3615224 30.3334776,12.8220255 29.795,12.695 C29.2565224,12.5679745 28.7170255,12.9015224 28.59,13.44 C28.59,13.53 26.15,21.85 19.59,21.85 C15.77,21.85 12.59,23.91 11.94,26.61 C6.31,27.67 3.49,29.27 3.35,31.46 C2.68404175,34.5309455 3.18677174,37.7398604 4.76,40.46 C7.09,44.56 11.6,47.55 18.1,49.29 C18.2056445,49.3770961 18.3058336,49.4706059 18.4,49.57 C18.7200463,49.9408187 19.1401225,50.2116117 19.61,50.35 C20.01,50.43 20.42,50.54 20.86,50.66 C23.890012,51.4812321 27.0212134,51.8684236 30.16,51.81 C33.0963058,51.8970257 36.0298197,51.5602273 38.87,50.81 C39.33,50.69 39.75,50.58 40.16,50.5 C40.6295537,50.3725905 41.0485181,50.103755 41.36,49.73 L41.6,49.51 C48.32,47.77 53,44.82 55.4,40.69 C57.0668192,37.9135711 57.637384,34.6149938 57,31.44 L57,31.44 Z M12,28.65 C12.32,29.92 13.34,31.65 16.31,32.99 C19.5,34.46 24.18,35.2 30.22,35.2 C34.1553341,35.2325137 38.0890726,35.0288142 42,34.59 C42.5522847,34.5209644 42.9440356,34.0172847 42.875,33.465 C42.8059644,32.9127153 42.3022847,32.5209644 41.75,32.59 C37.8887352,33.0204841 34.0050065,33.217509 30.12,33.18 C24.45,33.18 19.93,32.48 17.04,31.18 C15,30.2 13.8,29 13.8,27.64 C13.8,25.85 16.17,23.85 19.58,23.85 C23.79,23.85 26.58,21.25 28.23,18.71 C28.242341,20.9209551 28.9412114,23.0734759 30.23,24.87 C31.3951364,26.2924907 33.1630711,27.0819458 35,27 C35.5522847,27 36,26.5522847 36,26 C36,25.4477153 35.5522847,25 35,25 C33.7779486,25.0679421 32.5942974,24.5611915 31.8,23.63 L31.67,23.45 C37.35,22.83 39.51,24.09 40.18,24.68 C40.5534644,24.9557438 40.7815357,25.3861365 40.8,25.85 C40.8,28.47 35.34,28.85 32.08,28.85 C25.23,28.85 21.76,25.51 21.73,25.47 C21.5422334,25.2806873 21.2866375,25.1742017 21.02,25.1742017 C20.7533625,25.1742017 20.4977666,25.2806873 20.31,25.47 C20.1206873,25.6577666 20.0142017,25.9133625 20.0142017,26.18 C20.0142017,26.4466375 20.1206873,26.7022334 20.31,26.89 C20.47,27.05 24.31,30.89 32.08,30.89 C37.68,30.89 41.08,29.89 42.3,27.77 C54.34,28.76 55,31.17 55,31.65 C55,33.99 46.37,37.24 30.18,37.24 C15.25,37.24 5.35,33.87 5.35,31.65 C5.32,31.46 5.53,29.91 11.92,28.65 L12,28.65 Z M41,47.51 C40.5734451,47.6480988 40.192964,47.9005999 39.9,48.24 C39.8186144,48.3255382 39.7317653,48.4057065 39.64,48.48 C39.22,48.57 38.79,48.68 38.32,48.8 C35.6471555,49.5340154 32.8808919,49.8709538 30.11,49.8 C27.1425637,49.8664537 24.1813255,49.4992467 21.32,48.71 C20.84,48.59 20.4,48.47 20.07,48.41 C19.9527028,48.3295634 19.8452952,48.2355818 19.75,48.13 C19.4537264,47.7897951 19.0749226,47.5315198 18.65,47.38 C12.65,45.76 8.53,43.1 6.47,39.5 C5.59205983,37.9751665 5.10108044,36.2584554 5.04,34.5 C9.16,37.6 19.88,39.25 30.11,39.25 C40.56,39.25 51.11,37.81 55.16,34.67 C55.0565806,36.4335455 54.5356056,38.1472791 53.64,39.67 C51.52,43.34 47.27,46 41,47.51 Z"/>
      <circle id="Oval" cx="46.05" cy="32.82" r="1" fill="#3D454C" fill-rule="nonzero"/>
    </g>
  </g>
</svg>
