<svg xmlns="http://www.w3.org/2000/svg" width="64" height="64" viewBox="0 0 64 64" style="background:#fff">
  <g id="Currypaste" fill="none" fill-rule="evenodd" stroke="none" stroke-width="1">
    <rect width="64" height="64" fill="#FFF"/>
    <g transform="translate(2 4)">
      <rect id="Rectangle" width="60" height="60" x="0" y="0"/>
      <path id="Path" fill="#E0673A" fill-rule="nonzero" d="M23.39 19.69C22.54 12.87 8.56 13.26 9.39 19.93 10.5957632 29.1185282 10.1248063 38.4495725 8 47.47 6.29 54.65 20 56.25 21.54 49.95 23.9764974 40.0574396 24.6032565 29.8056948 23.39 19.69zM49.44 41.24C49.0573525 40.7711563 48.546613 40.4237145 47.97 40.24 43.6751152 38.8184288 39.1413206 38.2610508 34.63 38.6 31.63 38.88 27.12 40.39 27.63 44.21 28.14 48.03 33.14 48.82 36.23 49.15 40.9431902 49.6735537 45.7138143 49.1964913 50.23 47.75 55.17 46.2 53.29 41.32 49.44 41.24z" opacity=".5"/>
      <circle id="Oval" cx="35.73" cy="46.25" r="1.1" fill="#3D454C" fill-rule="nonzero"/>
      <path id="Path" fill="#3D454C" fill-rule="nonzero" d="M34.24,19.18 C34.24,18.5724868 33.7475132,18.08 33.14,18.08 C32.5324868,18.08 32.04,18.5724868 32.04,19.18 C32.04,19.7875132 32.5324868,20.28 33.14,20.28 C33.4317381,20.28 33.7115274,20.1641075 33.9178175,19.9578175 C34.1241075,19.7515274 34.24,19.4717381 34.24,19.18 Z"/>
      <path id="Shape" fill="#3D454C" fill-rule="nonzero" d="M53.31,44.71 C52.269212,43.846121 51.0277539,43.2580619 49.7,43 L49.62,43 C49.1834006,42.5054153 48.6487579,42.1069873 48.05,41.83 C48.054853,41.8001963 48.054853,41.7698037 48.05,41.74 L48.05,41.74 L48.05,41.68 C48.0431925,41.2612197 47.8531309,40.8664764 47.53,40.6 C46.01,39.22 39.7,38.41 37.45,38.6 C36.28,38.75 32.72,39.22 32.72,41.6 L32.72,41.76 C32.0968919,42.046966 31.5465608,42.4708235 31.11,43 C29.6345791,43.2078488 28.2276057,43.7555757 27,44.6 C26.6896912,44.9573731 26.5223145,45.4167685 26.53,45.89 C26.6399393,48.4944273 27.6712218,50.9751757 29.44,52.89 C27.6739086,53.2569179 25.8737447,53.4345877 24.07,53.42 C18.58,53.42 15.48,52 14.07,51.07 C13.7,50.71 13.78,49.98 14.22,47.07 C15.2683099,40.4507253 15.8796323,33.7696064 16.05,27.07 C16.05,26.5177153 15.6022847,26.07 15.05,26.07 L15.05,26.07 C14.4977153,26.07 14.05,26.5177153 14.05,27.07 C13.8790426,33.6953599 13.277776,40.3026114 12.25,46.85 C12.0503726,47.8908415 11.9134593,48.9427366 11.84,50 L10.77,49.79 C10.98,47.28 11.51,39.65 11.51,27.64 C11.51,23.79 11.39,21.09 11.27,18.48 C11.27,17.97 11.27,17.48 11.19,16.93 C11.5282458,16.9214542 11.864133,16.8710711 12.19,16.78 C14.8,16.04 18.76,12.26 20.73,8.99 C26.12,9.19 34.8,10.06 37.43,10.34 C37.2,16.05 36.83,26.99 37.06,35.34 C37.06,35.8922847 37.5077153,36.34 38.06,36.34 L38.06,36.34 C38.6122847,36.34 39.06,35.8922847 39.06,35.34 C38.74,23.57 39.59,6.75 39.6,6.58 C39.606376,6.08460721 39.2490578,5.65922838 38.76,5.58 C38.68,5.58 30.76,4.31 20.29,3.69 C20.1644976,3.66571212 20.0355024,3.66571212 19.91,3.69 C18.91,3.85 17.68,4.69 16.01,6.17 L13.09,4 L13.09,4 C12.6062521,3.49411253 11.8932345,3.27793167 11.21,3.43 C10.4399285,3.61348076 9.74298489,4.02467746 9.21,4.61 L9.21,4.61 C7.21,6.61 8.11,7.94 8.52,8.39 L11,11.62 C9.79,13.22 9.19,14.36 9.15,15.19 L9.15,15.28 C9.1399968,15.3730653 9.1399968,15.4669347 9.15,15.56 C9.15,16.56 9.23,17.56 9.28,18.56 C9.4,21.15 9.52,23.82 9.52,27.63 C9.52,42.35 8.72,50.41 8.71,50.49 C8.65892751,51.0022521 9.00509736,51.4695814 9.51,51.57 L12.04,52.06 L12.04,52.06 L12.23,52.22 C12.4,52.35 12.61,52.5 12.87,52.67 C13.1200309,52.8534017 13.3880787,53.0108798 13.67,53.14 L13.67,53.14 C16.9086927,54.7457611 20.4976383,55.5158031 24.11,55.38 C26.5048259,55.4080693 28.8916494,55.0983546 31.2,54.46 C33.7671249,56.3448443 36.8753533,57.3481776 40.06,57.32 C47.4,57.32 53.48,52.12 53.62,45.74 C53.6316016,45.3720675 53.5227527,45.0104084 53.31,44.71 Z M13.68,13.71 C12.9838382,14.3177077 12.1380446,14.7285217 11.23,14.9 C11.5650329,14.2256731 11.9706344,13.5887782 12.44,13 C12.5230052,13.0104577 12.6069948,13.0104577 12.69,13 C13.87,13 15.28,11.71 15.78,11.22 C16.28,10.73 18.09,8.75 17.49,7.5 C18.2147588,6.80214039 19.0365903,6.2127121 19.93,5.75 C19.91,7 17.19,11.19 13.68,13.75 L13.68,13.71 Z M12.23,7.71 C12.5869628,7.37187421 12.9025059,6.99255113 13.17,6.58 L15.51,8.35 C15.2063465,8.89471278 14.8219932,9.39032622 14.37,9.82 C13.9507894,10.2558528 13.4688002,10.6266137 12.94,10.92 L11.18,8.57 C11.5627175,8.32192239 11.9151108,8.02993934 12.23,7.7 L12.23,7.71 Z M37.49,8.36 C34.85,8.09 27.03,7.36 21.65,7.06 C21.7,6.89 21.76,6.73 21.8,6.57 C21.8628957,6.31098926 21.8997455,6.04634053 21.91,5.78 C29.44,6.29 35.37,7.09 37.53,7.4 C37.52,7.66 37.5,8 37.49,8.35 L37.49,8.36 Z M10.63,6 C10.8708249,5.70476294 11.1948485,5.48874722 11.56,5.38 C11.3594224,5.71510234 11.1100153,6.01843529 10.82,6.28 C10.5795496,6.5550468 10.3038332,6.79713919 10,7 C10,6.88 10.08,6.55 10.63,6 Z M34.38,43.25 C34.6883855,43.1289838 34.9168234,42.8630971 34.99,42.54 C35.0527704,42.2095128 34.9564668,41.8687463 34.73,41.62 C34.73,41.48 35.23,40.88 37.73,40.56 C40.4671345,40.4826469 43.1962344,40.8923504 45.79,41.77 C44.7414655,42.3076658 43.5651796,42.5463826 42.39,42.46 C41.8377153,42.46 41.39,42.9077153 41.39,43.46 C41.39,44.0122847 41.8377153,44.46 42.39,44.46 L42.39,44.46 C43.9540321,44.5544421 45.5131699,44.207967 46.89,43.46 C47.89,43.9 48.21,44.32 48.21,44.46 C48.1904147,44.5638173 48.1377998,44.6585241 48.06,44.73 C47.7948722,44.9900904 47.69573,45.3756941 47.8025284,45.7314101 C47.9093267,46.087126 48.2044709,46.3543512 48.5690158,46.4253919 C48.9335606,46.4964326 49.3074485,46.3595852 49.54,46.07 C49.7823746,45.8083024 49.9664318,45.4981321 50.08,45.16 C50.5959516,45.3377001 51.0946724,45.5619571 51.57,45.83 L51.57,45.83 C50.72,47.33 46.21,48.89 40.12,48.89 C33.67,48.89 29.5,47.2 28.71,45.89 C29.3567336,45.5924825 30.0253675,45.3450879 30.71,45.15 C30.8249516,45.4926912 31.0125622,45.8065125 31.26,46.07 C31.6304771,46.4777472 32.2609586,46.5090477 32.67,46.14 C33.0777472,45.7695229 33.1090477,45.1390414 32.74,44.73 C32.6585069,44.6599762 32.6022886,44.5651079 32.58,44.46 C32.59,44.27 33,43.74 34.38,43.25 Z M40.09,55.36 C35.09,55.36 30.76,52.57 29.16,48.79 C31.86,50.22 36.16,50.89 40.09,50.89 C44.02,50.89 48.29,50.23 50.98,48.81 C49.38,52.61 45.08,55.36 40.09,55.36 Z"/>
      <path id="Path" fill="#3D454C" fill-rule="nonzero" d="M32.94 35.9C32.981797 36.4208219 33.4175063 36.8216745 33.94 36.8200052L34 36.8200052C34.5449327 36.7722605 34.9503785 36.2955275 34.91 35.75L34.79 34.23C34.54 31.17 34.25 27.7 34.16 23.37 34.16 22.8177153 33.7122847 22.37 33.16 22.37L33.16 22.37C32.6077153 22.37 32.16 22.8177153 32.16 23.37 32.26 27.77 32.54 31.26 32.8 34.37L32.94 35.9zM19.93 22.5C19.93 22.58 19.93 30.41 18.58 43.15 18.5273165 43.6924237 18.9186595 44.1771553 19.46 44.2400128L19.57 44.2400128C20.0854781 44.2425832 20.518458 43.8529013 20.57 43.34 21.92 30.5 21.94 22.57 21.94 22.49 21.94 21.9377153 21.4922847 21.49 20.94 21.49 20.3877153 21.49 19.94 21.9377153 19.94 22.49L19.93 22.5z"/>
    </g>
  </g>
</svg>
