<svg xmlns="http://www.w3.org/2000/svg" width="64" height="64" viewBox="0 0 64 64" style="background:#fff">
  <g id="Curry" fill="none" fill-rule="evenodd" stroke="none" stroke-width="1">
    <rect width="64" height="64" fill="#FFF"/>
    <g transform="translate(2 7)">
      <rect id="Rectangle" width="60" height="60" x="0" y="0"/>
      <path id="Path" fill="#E0673A" fill-rule="nonzero" d="M46.62,27.46 C44.1139899,23.921467 41.3426761,20.578507 38.33,17.46 C35.67,14.55 32.97,12.12 28.73,12.37 C24.83,12.6 22.73,14.95 20.64,18.01 C17.69,22.4 14.87,26.89 11.99,31.33 C9.27,35.51 14.41,38.33 18.58,37.73 C25.03,40.73 32.39,42.56 39.42,41.27 C46.65,39.89 51.08,34.24 46.62,27.46 Z" opacity=".5"/>
      <path id="Shape" fill="#3D454C" fill-rule="nonzero" d="M41.18,21.21 L41.11,21.21 C38.8406968,18.4846091 36.3487848,15.9525589 33.66,13.64 C31.4831538,11.6990625 28.1968462,11.6990625 26.02,13.64 C23.408329,15.9173571 21.002362,18.4203659 18.83,21.12 C10.2,23.51 4.83,28.43 4.83,33.96 C4.93227778,35.7741484 5.45248296,37.5401081 6.35,39.12 C6.35,39.12 6.35,39.12 6.35,39.18 C6.35,39.24 6.35,39.18 6.35,39.18 L11.22,46.82 C12.6649933,49.6381317 15.2262841,51.7205409 18.28,52.56 C22.0551091,53.5365165 25.9406908,54.0205336 29.84,54 C33.7108721,54.0276061 37.5692112,53.5570769 41.32,52.6 C44.3429203,51.7707897 46.8811358,49.7148351 48.32,46.93 L53.15,39.14 L53.15,39.14 C54.2163683,37.6350784 54.8052293,35.8441045 54.84,34 C54.84,28.52 49.6,23.64 41.18,21.21 Z M51.5,38.05 L51.5,38.05 L51.5,38.05 L46.63,45.91 C45.4434091,48.2285557 43.3398495,49.9440447 40.83,50.64 C33.6056832,52.4282448 26.0543168,52.4282448 18.83,50.64 C16.3067031,49.932209 14.1934381,48.203174 13,45.87 L8.14,38.2 C7.3979729,36.9148595 6.95373003,35.4796134 6.84,34 C6.84,30 10.62,26.25 16.69,24 C14.9117015,26.4820231 13.314246,29.0887498 11.91,31.8 C11.6533512,32.2887869 11.8413543,32.8930824 12.33,33.15 C12.5659505,33.2725056 12.8409711,33.2960124 13.094289,33.2153259 C13.3476069,33.1346395 13.5583683,32.9564022 13.68,32.72 C17.0840418,26.0770063 21.7156954,20.1389888 27.33,15.22 C28.7603004,13.9647012 30.8996996,13.9647012 32.33,15.22 C36.6,18.96 42.71,24.95 46.39,33.78 C46.5447874,34.1567941 46.9126565,34.4020401 47.32,34.4 C47.4504598,34.3965118 47.5792073,34.3694071 47.7,34.32 C47.9456665,34.218304 48.1407193,34.0229601 48.2420488,33.7771422 C48.3433783,33.5313244 48.342641,33.2552731 48.24,33.01 C46.9125247,29.8619986 45.2353238,26.8732267 43.24,24.1 C49.24,26.41 52.81,30.1 52.81,34.04 C52.7822771,35.4772742 52.3261358,36.873554 51.5,38.05 Z"/>
      <path id="Path" fill="#3D454C" fill-rule="nonzero" d="M47.94 28.21C47.5522764 28.6000375 47.5522764 29.2299625 47.94 29.62 49.0485574 30.7078017 49.6996139 32.1780446 49.76 33.73 49.76 39.12 40.66 43.73 29.89 43.73 19.12 43.73 10 39.12 10 33.73 10.0511893 32.1759263 10.7036928 30.7024157 11.82 29.62 12.1955536 29.2140707 12.1709293 28.5805536 11.765 28.205 11.3590707 27.8294464 10.7255536 27.8540707 10.35 28.26 8.89985797 29.7183452 8.05957252 31.6742437 8 33.73 8 40.43 17.6 45.73 29.87 45.73 42.14 45.73 51.74 40.48 51.74 33.73 51.6769156 31.677953 50.8369696 29.7264188 49.39 28.27 49.2095639 28.0632352 48.9520853 27.9397077 48.6778954 27.9283619 48.4037054 27.9170161 48.1369015 28.0188492 47.94 28.21zM32.19 24.3C32.5186843 24.1588801 32.7471146 23.8531289 32.7892434 23.49792 32.8313721 23.142711 32.680799 22.792009 32.3942434 22.57792 32.1076878 22.3638309 31.7286843 22.3188801 31.4 22.46 30.891898 22.6781525 30.6568475 23.266898 30.875 23.775 31.0931525 24.283102 31.681898 24.5181525 32.19 24.3L32.19 24.3z"/>
      <path id="Path" fill="#3D454C" fill-rule="nonzero" d="M39.26 30.17C39.7652507 29.9507558 39.9981052 29.364239 39.7808247 28.8581407 39.5635443 28.3520425 38.9779362 28.1169119 38.4709979 28.3322254 37.9640597 28.5475389 37.7266568 29.1322294 37.94 29.64 38.0435151 29.8863727 38.2413358 30.0810631 38.4893281 30.1806358 38.7373203 30.2802084 39.01485 30.2763783 39.26 30.17zM34.32 37.5C34.6893925 37.334414 34.9225175 36.9624599 34.9105119 36.5578299 34.8985064 36.1531999 34.643739 35.7957217 34.2651789 35.6523278 33.8866188 35.5089338 33.4589506 35.6079136 33.1818834 35.9030464 32.9048162 36.1981791 32.8330115 36.6312393 33 37 33.2272126 37.5017535 33.8173867 37.7253043 34.32 37.5L34.32 37.5zM24.32 28.17C24.8252507 27.9507558 25.0581052 27.364239 24.8408247 26.8581407 24.6235443 26.3520425 24.0379362 26.1169119 23.5309979 26.3322254 23.0240597 26.5475389 22.7866568 27.1322294 23 27.64 23.1035151 27.8863727 23.3013358 28.0810631 23.5493281 28.1806358 23.7973203 28.2802084 24.07485 28.2763783 24.32 28.17zM22.86 36.43C23.3650137 36.2085046 23.5954031 35.6199916 23.3749855 35.1145065 23.154568 34.6090214 22.5665478 34.3773771 22.0605936 34.5967157 21.5546394 34.8160544 21.3217412 35.403579 21.54 35.91 21.6454088 36.1545777 21.8440253 36.3470041 22.0918168 36.444619 22.3396083 36.5422338 22.6161019 36.536972 22.86 36.43z"/>
    </g>
  </g>
</svg>
