<svg xmlns="http://www.w3.org/2000/svg" width="64" height="64" viewBox="0 0 64 64" style="background:#fff">
  <g id="Datteln" fill="none" fill-rule="evenodd" stroke="none" stroke-width="1">
    <rect width="64" height="64" fill="#FFF"/>
    <g transform="translate(2 4)">
      <rect id="Rectangle" width="60" height="60" x="0" y="0"/>
      <path id="Path" d="M18.33 9.14C18.8749338 10.0319079 19.8447954 10.5759028 20.89 10.5759028 21.9352046 10.5759028 22.9050662 10.0319079 23.45 9.14 21.44 7.87 20.34 7.87 18.33 9.14zM32.49 18.75C30.49 18.67 29.68 19.14 28.74 20.91 29.5234527 21.2257222 30.4085387 21.1638846 31.1404777 20.7422878 31.8724168 20.3206909 32.3700024 19.5861096 32.49 18.75zM36.61 27.83C34.92 25.83 34.01 25.26 33.72 25.2 33.62 25.48 33.63 26.54 34.55 29.02 36.7360735 34.5045788 39.7034186 39.6443842 43.36 44.28 45.05 46.28 45.96 46.85 46.25 46.92 46.35 46.63 46.34 45.57 45.42 43.09 43.2339265 37.6054212 40.2665814 32.4656158 36.61 27.83z"/>
      <path id="Path" d="M32.62,27 C32.4624134,27.946821 32.4624134,28.913179 32.62,29.86 C33.53,36.9 39.75,45.51 44.17,47 C40.19,43.33 33.81,32.37 32.62,27 Z"/>
      <path id="Path" d="M36.61,27.83 C34.92,25.83 34.01,25.26 33.72,25.2 C33.62,25.48 33.63,26.54 34.55,29.02 C36.7360735,34.5045788 39.7034186,39.6443842 43.36,44.28 C45.05,46.28 45.96,46.85 46.25,46.92 C46.35,46.63 46.34,45.57 45.42,43.09 C43.2339265,37.6054212 40.2665814,32.4656158 36.61,27.83 Z"/>
      <path id="Path" d="M32.62,27 C32.4624134,27.946821 32.4624134,28.913179 32.62,29.86 C33.53,36.9 39.75,45.51 44.17,47 C40.19,43.33 33.81,32.37 32.62,27 Z"/>
      <path id="Shape" fill="#C17953" fill-rule="nonzero" d="M51.11,29.24 C47.59,21.31 39.65,16.08 30.91,18.09 C28.81,17.88 26.43,18.54 25.57,20.3 C23.2353263,25.2062027 22.8354175,30.8120669 24.45,36 C22.6765667,36.2205422 21.0338462,37.0472015 19.8,38.34 C19.5635335,36.2751467 19.4466718,34.1983466 19.45,32.12 C19.45,26.12 19.07,17.33 24.79,13.68 C27.6,11.88 27.04,8.26 24.66,6.45 C21.79,4.27 17.6,4.81 14.76,6.63 C8.76,10.43 6.76,16.77 5.95,23.48 C5,31.27 5.14,39.48 7.55,47 C9.7,53.66 15.48,57.38 22.55,55.7 C26.5432772,54.8475608 29.8094378,51.9863587 31.18,48.14 C36,53.77 43.69,59.44 50.73,54.3 C58,49 54.11,36 51.11,29.24 Z M42.89,48.65 C41.35,48.3 39.2,45.09 38.23,43.91 C36.6143396,41.9411946 35.2690944,39.7652604 34.23,37.44 C32.3268662,33.3689805 32.0025896,28.7364576 33.32,24.44 C38.62,23.25 42,29.29 43.42,33.44 C44.16,35.78 48.42,49.89 42.89,48.65 Z" opacity=".5"/>
      <path id="Shape" fill="#3D454C" fill-rule="nonzero" d="M53.94,43.58 C53.6828042,42.6019288 53.5782379,41.5899969 53.63,40.58 C53.63,39.49 53.89,39.36 53.45,38.17 C53.2895392,37.7539542 52.8956868,37.474319 52.45,37.46 C52.3209441,37.459607 52.1926564,37.4798629 52.07,37.52 C51.7743736,37.614061 51.5316006,37.8275455 51.400513,38.1087189 C51.2694254,38.3898923 51.2619869,38.7130935 51.38,39 C51.68,39.8 51.38,39.69 51.38,40.63 C51.3559429,41.76647 51.4905742,42.9007386 51.78,44 C52.22,46.08 52.27,46.54 51,48.8 C50.71,49.31 50.47,49.8 50.25,50.23 C49.9218591,51.1636668 49.3316511,51.9830143 48.55,52.59 C48.0447108,52.8511727 47.4774726,52.9687709 46.91,52.93 C46.52,52.93 46.11,52.93 45.66,52.93 C45.21,52.93 44.66,52.87 44.05,52.86 C41.46,52.86 41.05,52.56 39.5,51.14 C38.6669758,50.3475046 37.7280239,49.6744208 36.71,49.14 C35.3169855,48.5294494 34.2135646,47.4045333 33.63,46 C33.0446099,44.8732307 32.2661525,43.8578514 31.33,43 C30.1870875,42.0465342 29.4212968,40.7170364 29.17,39.25 C28.8763894,37.9973904 28.36531,36.8059999 27.66,35.73 C26.767732,34.5190545 26.3707687,33.0134548 26.55,31.52 C26.5922123,30.368716 26.4710065,29.2172609 26.19,28.1 C25.9954889,27.3834675 25.9078769,26.6421347 25.93,25.9 C26.0883853,24.9726855 26.4282104,24.085742 26.93,23.29 C27.04,23.09 27.16,22.89 27.26,22.69 C27.7300532,22.8513155 28.2230549,22.9357336 28.72,22.94 C30.893046,22.935005 32.7620524,21.4004964 33.19,19.27 L33.88,19.27 C34.8239516,19.2192851 35.7686389,19.3552114 36.66,19.67 C37.3254849,20.0218642 37.9353907,20.470027 38.47,21 C38.89,21.37 39.33,21.76 39.81,22.12 C40.275308,22.4481117 40.759474,22.7486285 41.26,23.02 C41.9534695,23.3715354 42.5960037,23.8155904 43.17,24.34 C43.6335673,24.8706426 44.0268069,25.4588215 44.34,26.09 C44.63881,26.6634101 44.9727802,27.2178006 45.34,27.75 C45.7283037,28.2442479 46.1492439,28.7119593 46.6,29.15 C47.1396169,29.6476779 47.6134515,30.2122468 48.01,30.83 C48.3386957,31.4623383 48.5840718,32.1346016 48.74,32.83 C48.9405723,33.6569454 49.2253946,34.4611496 49.59,35.23 C49.7829586,35.6030983 50.1699916,35.835318 50.59,35.83 C50.7624708,35.828222 50.9327074,35.79077 51.09,35.72 C51.6325992,35.4399071 51.8470719,34.774148 51.57,34.23 C51.2702012,33.588489 51.0356876,32.91845 50.87,32.23 C50.6953883,31.3576911 50.4026944,30.5132523 50,29.72 C49.5145467,28.9349337 48.9259635,28.2185439 48.25,27.59 C47.8698681,27.2251445 47.5156736,26.8341939 47.19,26.42 C46.8509197,25.9684729 46.5435176,25.4940044 46.27,25 C45.862523,24.1998154 45.3514646,23.4567633 44.75,22.79 C44.0405402,22.1124869 43.2352484,21.5430546 42.36,21.1 C41.91,20.84 41.49,20.6 41.12,20.34 C40.75,20.08 40.35,19.71 39.95,19.34 C39.2625184,18.6443349 38.465188,18.0666082 37.59,17.63 C36.4445574,17.1978042 35.2229796,17.0038489 34,17.06 C33.69,17.06 33.39,17.06 33.11,17.06 L32.54,17.06 C32.11,17.06 31.66,17 31.22,16.99 C30.8629757,16.2515193 30.5653671,15.4857623 30.33,14.7 C30.0528293,13.6405426 29.6035146,12.6338073 29,11.72 C28.1244657,10.6389023 27.0350327,9.75033343 25.8,9.11 C25.34,8.83 24.8,8.54 24.33,8.19 C23.0972162,7.17207856 21.5904712,6.54223826 20,6.38 L19.88,6.38 C18.2637147,6.52315349 16.7291693,7.15440965 15.48,8.19 C14.96,8.54 14.48,8.83 14.02,9.11 C12.7797635,9.74672984 11.6863673,10.6357529 10.81,11.72 C10.2044305,12.6424517 9.74878573,13.6549957 9.46,14.72 C9.15304596,15.8370831 8.68118782,16.9021344 8.06,17.88 C6.80955103,19.6363312 6.23114008,21.7831939 6.43,23.93 C6.51164245,25.1989377 6.36602335,26.4722582 6,27.69 C5.30032258,29.6905888 5.30032258,31.8694112 6,33.87 C6.37159068,35.0833398 6.52397301,36.3531925 6.45,37.62 C6.25114008,39.7668061 6.82955103,41.9136688 8.08,43.67 C8.52946802,44.3715912 8.89528925,45.1233706 9.17,45.91 C9.32631552,46.332204 9.72024279,46.6197709 10.17,46.64 C10.2957847,46.6403696 10.420778,46.6201004 10.54,46.58 C11.1080497,46.3686992 11.4049571,45.7438643 11.21,45.17 C10.8612459,44.2041642 10.4156423,43.2761025 9.88,42.4 C9.41674072,41.6840042 9.05654242,40.9063798 8.81,40.09 C8.64756717,39.2841287 8.59042312,38.4605822 8.64,37.64 C8.66596181,36.8926064 8.64257768,36.1443142 8.57,35.4 C8.46626912,34.6941692 8.31594064,33.995977 8.12,33.31 C7.86425535,32.4889333 7.71306284,31.6388954 7.67,30.78 C7.71306284,29.9211046 7.86425535,29.0710667 8.12,28.25 C8.31695561,27.5642773 8.46729881,26.8660167 8.57,26.16 C8.64257768,25.4156858 8.66596181,24.6673936 8.64,23.92 C8.59076114,23.0994193 8.64790216,22.2759165 8.81,21.47 C9.09018766,20.5954592 9.49069408,19.7641559 10,19 C10.3347785,18.4472988 10.6385803,17.8764184 10.91,17.29 C11.18,16.66 11.39,16.03 11.59,15.41 C11.8036855,14.5715403 12.1406943,13.7694596 12.59,13.03 C13.311874,12.1978703 14.1923579,11.51796 15.18,11.03 L16.04,10.51 C16.9605834,11.6966828 18.3781045,12.391074 19.88,12.391074 C21.3818955,12.391074 22.7994166,11.6966828 23.72,10.51 L24.58,11.03 C25.5676421,11.51796 26.448126,12.1978703 27.17,13.03 C27.6210188,13.7721546 27.9581061,14.5777931 28.17,15.42 C28.37,16.04 28.58,16.67 28.85,17.29 C27.14,17.96 26.4,19.47 25.67,20.93 L25.43,21.42 C25.3,21.67 25.16,21.92 25.01,22.19 C24.3361951,23.2363638 23.8867296,24.411103 23.69,25.64 C23.6340156,26.6164956 23.7353067,27.5956434 23.99,28.54 C24.1064155,29.0382507 24.1965401,29.5422804 24.26,30.05 C24.2909722,30.5295004 24.2909722,31.0104996 24.26,31.49 C24.2160368,32.4744077 24.3068781,33.4602042 24.53,34.42 C24.7300766,35.0762415 25.0123142,35.7045562 25.37,36.29 C25.37,36.75 25.37,37.13 25.37,37.47 C25.4525419,38.9831414 25.1998568,40.4958372 24.63,41.9 C24.2410357,42.9666283 23.9563714,44.0684465 23.78,45.19 C23.6662148,45.9670486 23.4752712,46.7308229 23.21,47.47 C22.9731394,48.0306059 23.2318555,48.6773961 23.79,48.92 C23.9278374,48.9705751 24.0731963,48.9976187 24.22,49 C24.6576067,48.9976556 25.0513848,48.7338242 25.22,48.33 C25.5753773,47.449995 25.8368271,46.5349205 26,45.6 C26.1,45.07 26.2,44.53 26.33,44.01 C26.46,43.49 26.61,43.06 26.78,42.58 C26.95,42.1 27.16,41.46 27.31,40.84 C27.6349267,41.9721467 28.2402799,43.0039987 29.07,43.84 C28.7123758,44.5965974 28.4115452,45.3787568 28.17,46.18 C27.9608239,47.0105437 27.6234391,47.803398 27.17,48.53 C26.4461241,49.3600076 25.5660953,50.0395665 24.58,50.53 C24,50.87 23.49,51.21 23.02,51.53 C21.78,52.34 20.89,52.93 19.88,52.93 C18.87,52.93 17.98,52.34 16.73,51.52 C16.26,51.21 15.73,50.88 15.18,50.52 C14.0120596,49.9704798 13.0187992,49.1087312 12.31,48.03 C12.1150852,47.6612688 11.7268466,47.4360904 11.31,47.45 C11.128392,47.4480699 10.9493341,47.4928344 10.79,47.58 C10.5326236,47.7177971 10.3405817,47.9522559 10.2561764,48.2317311 C10.1717712,48.5112064 10.2019265,48.8127718 10.34,49.07 C11.2175925,50.5196656 12.5003345,51.6807384 14.03,52.41 C14.53,52.71 15.03,53.02 15.45,53.32 C16.91,54.32 18.18,55.12 19.85,55.12 C21.52,55.12 22.79,54.28 24.26,53.32 C24.7,53.02 25.17,52.71 25.68,52.41 C26.9547853,51.7958564 28.0859858,50.9201981 29,49.84 C29.6087796,48.9180198 30.067792,47.9054926 30.36,46.84 C30.49,46.42 30.62,46.01 30.77,45.62 C31.1404953,46.1361583 31.4746352,46.6774649 31.77,47.24 C32.163303,48.0066137 32.6540342,48.7191824 33.23,49.36 C33.9463706,50.0153439 34.7508185,50.56735 35.62,51 C36.4969069,51.4684134 37.2990615,52.0649738 38,52.77 C40,54.56 40.91,55.02 44,55.06 C44.52,55.06 45,55.06 45.47,55.12 C45.94,55.18 46.47,55.18 46.88,55.18 L46.88,55.18 C47.8378156,55.2207685 48.7886089,54.999493 49.63,54.54 C50.8115151,53.7212373 51.7123149,52.558577 52.21,51.21 L52.47,50.7 C52.59,50.45 52.74,50.19 52.89,49.92 C53.5584591,48.874577 54.0075428,47.7042376 54.21,46.48 C54.2713781,45.5051741 54.1802825,44.5267403 53.94,43.58 Z M19.94,10.13 C19.1772613,10.1405899 18.4475011,9.8194954 17.94,9.25 C18.5357399,8.85529164 19.2263456,8.62739174 19.94,8.59 C20.6536544,8.62739174 21.3442601,8.85529164 21.94,9.25 C21.4210891,9.83297787 20.6700564,10.1553724 19.89,10.13 L19.94,10.13 Z M31.03,19.13 C30.7075124,20.0740617 29.8176029,20.7062598 28.82,20.7 C28.6770832,20.7154531 28.5329168,20.7154531 28.39,20.7 C28.8359966,19.674586 29.8856498,19.047207 31,19.14 L31.03,19.13 Z"/>
      <path id="Path" fill="#3D454C" fill-rule="nonzero" d="M11.8,31.88 C11.8542562,32.4496917 12.3327305,32.8847622 12.905,32.8847622 C13.4772695,32.8847622 13.9557438,32.4496917 14.01,31.88 C14.0298669,31.0580981 14.1134509,30.2389751 14.26,29.43 C14.4844335,28.1327134 14.5749091,26.8157911 14.53,25.5 C14.4202357,23.8845915 14.6730707,22.2650808 15.27,20.76 C15.6589643,19.6933717 15.9436286,18.5915535 16.12,17.47 C16.2407721,16.6943492 16.4315515,15.9312317 16.69,15.19 C16.8045014,14.9217059 16.8045014,14.6182941 16.69,14.35 C16.5828432,14.0759342 16.3703426,13.8562302 16.1,13.74 C15.9624264,13.6884697 15.8169011,13.6613952 15.67,13.66 C15.2339985,13.667519 14.8427903,13.9296285 14.67,14.33 C14.3564794,15.2154677 14.1320357,16.129992 14,17.06 C13.842457,18.0828563 13.5845452,19.0877076 13.23,20.06 C12.5482228,21.7987381 12.258007,23.6663616 12.38,25.53 C12.4210736,26.7325044 12.3339151,27.9359628 12.12,29.12 C11.945075,30.0307973 11.8381135,30.9533405 11.8,31.88 L11.8,31.88 Z"/>
      <path id="Shape" fill="#3D454C" fill-rule="nonzero" d="M38.2,27.5 C38.6398097,27.52281 39.042768,27.2552073 39.1923477,26.8409867 C39.3419274,26.426766 39.2029117,25.9634505 38.85,25.7 C36.98,24.12 35.19,23.29 33.68,23.29 C33.0575821,23.2822543 32.4439558,23.4373845 31.9,23.74 C29.66,25 29.73,28.23 30,30 C31,37.76 38.61,48.78 44.33,48.78 L44.33,48.78 C44.9647341,48.7898923 45.5902691,48.6274605 46.14,48.31 C47.2054452,47.59624 47.8895559,46.4376654 48,45.16 C48.71,40.65 45.63,33.03 41,27.83 C40.8081337,27.61158 40.5307122,27.4874704 40.24,27.49 C39.9887168,27.4881497 39.7459478,27.5809731 39.56,27.75 C39.356801,27.9278553 39.2341701,28.1803307 39.22,28.45 C39.1995698,28.7203581 39.2897948,28.9874241 39.47,29.19 C43,33.13 45.63,38.71 46,42.69 C43.7408809,36.9250506 40.6295817,31.5316825 36.77,26.69 C37.01,26.87 37.26,27.06 37.51,27.27 C37.7029779,27.4305562 37.949284,27.5126582 38.2,27.5 Z M32,29.78 C32.0054868,29.6700684 32.0054868,29.5599316 32,29.45 C34.291409,35.2014484 37.4037127,40.5907188 41.24,45.45 C37.3,42.58 32.77,35.7 32,29.78 Z M44.05,43.23 C44.4418504,44.193769 44.7171351,45.2009083 44.87,46.23 C44.0508151,45.576555 43.3122905,44.8279596 42.67,44 C39.0428363,39.3951065 36.0960669,34.2929857 33.92,28.85 C33.5281496,27.886231 33.2528649,26.8790917 33.1,25.85 C33.9205389,26.5019389 34.6592338,27.2507069 35.3,28.08 C38.9278532,32.6844263 41.8746824,37.7866505 44.05,43.23 Z"/>
      <path id="Path" fill="#3D454C" fill-rule="nonzero" d="M12.94,35.25 C12.4950915,35.25 12.0939916,35.5180064 11.9237325,35.9290482 C11.7534734,36.3400901 11.8475847,36.8132197 12.1621825,37.1278175 C12.4767803,37.4424153 12.9499099,37.5365266 13.3609518,37.3662675 C13.7719936,37.1960084 14.04,36.7949085 14.04,36.35 C14.04,35.7424868 13.5475132,35.25 12.94,35.25 L12.94,35.25 Z"/>
    </g>
  </g>
</svg>
