<svg xmlns="http://www.w3.org/2000/svg" width="64" height="64" viewBox="0 0 64 64" style="background:#fff">
  <g id="Dextrose" fill="none" fill-rule="evenodd" stroke="none" stroke-width="1">
    <rect width="64" height="64" fill="#FFF"/>
    <g id="18-Dextrose" fill-rule="nonzero" transform="translate(5 8)">
      <path id="Path" fill="#3D454C" d="M34.16,28.86 C34.7122847,28.86 35.16,28.4122847 35.16,27.86 C35.16,27.3077153 34.7122847,26.86 34.16,26.86 C33.6077153,26.86 33.16,27.3077153 33.16,27.86 C33.16,28.4122847 33.6077153,28.86 34.16,28.86 Z"/>
      <path id="Path" fill="#CCC" d="M52.53,41.92 C49.5781016,36.7814277 46.0885092,31.9710866 42.12,27.57 C38.39,23.41 34.18,23.68 29.27,26.22 C23.12,29.41 16.01,34.22 12.27,40.22 L12.14,40.29 C9,42 7.86,45.29 8.19,48.54 C8.44,50.94 9.94,55.4 13.46,55.16 C25.24,54.37 37.02,54.41 48.82,54.16 C55,54.05 54.49,45.34 52.53,41.92 Z" opacity=".5"/>
      <circle id="Oval" cx="17.04" cy="48" r="1" fill="#3D454C"/>
      <circle id="Oval" cx="28" cy="35.46" r="1" fill="#3D454C"/>
      <circle id="Oval" cx="44.04" cy="47.48" r="1" fill="#3D454C"/>
      <path id="Path" fill="#3D454C" d="M34.16,44.74 C34.7122847,44.74 35.16,44.2922847 35.16,43.74 C35.16,43.1877153 34.7122847,42.74 34.16,42.74 C33.6077153,42.74 33.16,43.1877153 33.16,43.74 C33.16,44.2922847 33.6077153,44.74 34.16,44.74 Z"/>
      <path id="Shape" fill="#3D454C" d="M53,53.07 L52,53.07 C51.69,47.53 48.7,37.5 33.8,26.4 C31.5430961,24.771501 28.4969039,24.771501 26.24,26.4 C11.33,37.5 8.35,47.53 8.05,53.07 L7,53.07 C6.44771525,53.07 6,53.5177153 6,54.07 C6,54.6222847 6.44771525,55.07 7,55.07 L53,55.07 C53.5522847,55.07 54,54.6222847 54,54.07 C54,53.5177153 53.5522847,53.07 53,53.07 Z M27.43,28 C28.9746353,26.8901239 31.0553647,26.8901239 32.6,28 C37.69,31.79 49.33,41.67 50,53.07 L10.05,53.07 C10.7,41.67 22.34,31.79 27.43,28 Z"/>
      <path id="Path" fill="#3D454C" d="M40.28 22.91C40.8322847 22.91 41.28 22.4622847 41.28 21.91 41.28 21.3577153 40.8322847 20.91 40.28 20.91 39.7277153 20.91 39.28 21.3577153 39.28 21.91 39.28 22.4622847 39.7277153 22.91 40.28 22.91zM47.78 31.64C48.3322847 31.64 48.78 31.1922847 48.78 30.64 48.78 30.0877153 48.3322847 29.64 47.78 29.64 47.2277153 29.64 46.78 30.0877153 46.78 30.64 46.78 31.1922847 47.2277153 31.64 47.78 31.64z"/>
      <path id="Path" fill="#31E085" d="M19.8,2.17 C18.38,3.46 17.35,4.66 15.39,5.17 C15.02,5.27 13.6,5.31 12.22,5.4 C12.57,2.5 9.83,-1 7.22,1.81 C6.69773697,2.35514984 6.31966395,3.02193316 6.12,3.75 C4.86,3.52 3.59,3.18 3.12,3.15 C1.85,3.06 2,5.2 2.42,5.84 C3.6169486,7.57282955 5.53046489,8.67466235 7.63,8.84 C8.40533676,9.66964475 9.39523412,10.2684288 10.49,10.57 C15,11.69 20.44,10 22,5.39 C22.43,4.23 21.62,0.51 19.8,2.17 Z" opacity=".5"/>
      <path id="Path" fill="#4885E0" d="M20.08,10.93 C15.57,11.02 10.98,10.55 6.49,10.86 C5.70233371,10.9049551 4.95704858,11.231461 4.39,11.78 C4.09,11.53 3.79,11.3 3.48,11.08 C1.31,9.57 -1.66533454e-16,13 0.52,14.72 C2.32,20.65 5.36,26.16 7.27,32.07 C8.2,34.96 11.2,35.42 12.89,33.07 C15.6723295,28.9281472 18.785861,25.0186752 22.2,21.38 C24.53,19 24.84,10.83 20.08,10.93 Z" opacity=".5"/>
      <path id="Shape" fill="#3D454C" d="M23.51 16.06C23.51 14.214593 22.3247506 12.5779111 20.5713339 12.0025357 18.8179172 11.4271603 16.8932778 12.0433021 15.8 13.53 14.9555756 12.3684786 13.5817025 11.7119333 12.1475089 11.7845507 10.7133153 11.8571681 9.41278418 12.6491263 8.69 13.89 7.63546164 12.1083174 5.45681834 11.3368959 3.51608393 12.058002 1.57534953 12.7790988.429015044 14.7859701.793729893 16.823966 1.15844474 18.8619618 2.92962968 20.3467116 5 20.35L5 20.35C4.20178779 21.669611 4.17719126 23.3171032 4.93565375 24.6599548 5.69411624 26.0028065 7.11775796 26.8323123 8.66 26.83L8.66 26.83C8.25137658 27.4913093 8.03335977 28.2526379 8.03 29.03 8.14047238 31.3161381 10.0261943 33.1129372 12.315 33.1129372 14.6038057 33.1129372 16.4895276 31.3161381 16.6 29.03 16.5966402 28.2526379 16.3786234 27.4913093 15.97 26.83L15.97 26.83C18.3337787 26.83 20.25 24.9137787 20.25 22.55 20.2494144 21.7537719 20.0241113 20.9738762 19.6 20.3 21.8051506 20.1134348 23.5023298 18.2730153 23.51 16.06zM12.36 13.7799781C13.2880261 13.7759563 14.1267374 14.3324092 14.4837481 15.1890259 14.8407588 16.0456426 14.6454726 17.033033 13.9892528 17.6892528 13.333033 18.3454726 12.3456426 18.5407588 11.4890259 18.1837481 10.6324092 17.8267374 10.0759563 16.9880261 10.0799781 16.06 10.0854769 14.8030664 11.1030664 13.7854769 12.36 13.7799781L12.36 13.7799781zM2.71 16.06C2.71552355 14.8034114 3.73671922 13.7881833 4.99331866 13.790022 6.24991809 13.7918657 7.26813434 14.8100819 7.26997803 16.0666813 7.27181671 17.3232808 6.25658864 18.3444765 5 18.35 3.74699915 18.3335837 2.73989247 17.3131084 2.74 16.06L2.71 16.06zM6.37997811 22.55C6.37595626 21.6219739 6.93240922 20.7832626 7.78902591 20.4262519 8.64564261 20.0692412 9.633033 20.2645274 10.2892528 20.9207472 10.9454726 21.576967 11.1407588 22.5643574 10.7837481 23.4209741 10.4267374 24.2775908 9.58802611 24.8340437 8.66 24.8300219 7.41479729 24.8082575 6.41524859 23.7953815 6.41 22.55L6.37997811 22.55zM12.33 31.3100228C11.0719178 31.2934682 10.0628055 30.26504 10.0700883 29.0068704 10.0774502 27.7487009 11.0984644 26.7320877 12.3566538 26.7301976 13.6148432 26.7283128 14.6389028 27.7418581 14.65 29 14.6580543 29.6116124 14.4200237 30.2008123 13.9893954 30.6352015 13.5587672 31.0695907 12.9716593 31.3127358 12.36 31.3100228L12.33 31.3100228zM16 24.8300219C15.0719739 24.8340437 14.2332626 24.2775908 13.8762519 23.4209741 13.5192412 22.5643574 13.7145274 21.576967 14.3707472 20.9207472 15.026967 20.2645274 16.0143574 20.0692412 16.8709741 20.4262519 17.7275908 20.7832626 18.2840437 21.6219739 18.2800219 22.55 18.2745231 23.8069336 17.2569336 24.8245231 16 24.8300219L16 24.8300219zM19.19 18.350022C18.2628822 18.3540486 17.4248009 17.7986822 17.0671995 16.9432963 16.709598 16.0879104 16.9030446 15.1013049 17.5571861 14.4442944 18.2113275 13.787284 19.197077 13.5895214 20.0540197 13.943376 20.9109624 14.2972306 21.4700001 15.1328734 21.4700001 16.06 21.4702969 17.3054604 20.4751635 18.3228066 19.23 18.350022L19.19 18.350022zM7 9.05L7 9.05C7.77178494 9.03913746 8.53862443 8.9247842 9.28 8.71 10.0745529 9.35521695 11.0664688 9.70821192 12.09 9.71L12.14 9.71C13.9871466 9.64954883 15.8060208 9.23894475 17.5 8.5 18.1382736 8.21959395 18.8107368 8.02457961 19.5 7.92 20.0522847 7.92 20.5 7.47228475 20.5 6.92 20.5 6.36771525 20.0522847 5.92 19.5 5.92 18.5980268 6.01767902 17.7171596 6.25730189 16.89 6.63 15.4185694 7.24768221 13.8452335 7.58676323 12.25 7.63 12.0603071 7.64527818 11.8696929 7.64527818 11.68 7.63 12.4142959 7.12245203 12.9511314 6.37723962 13.2 5.52 13.79 3.27 12.77 2.25 12.3 1.92 11.2624516 1.21718233 9.89344828 1.24929971 8.89 2 7.57416201 2.97642591 7.06763022 4.70843785 7.65 6.24 7.72678262 6.49587062 7.820318 6.74641181 7.93 6.99 7.62257843 7.04102039 7.31161856 7.06776963 7 7.07L7 7.07C6.30875192 7.03364359 5.66383397 6.71118462 5.22 6.18 5.07810092 5.99206124 4.95422042 5.79117394 4.85 5.58 5.0835801 5.50149454 5.3364199 5.50149454 5.57 5.58 5.92369294 5.65681211 6.29149746 5.53909649 6.53486516 5.27119547 6.77823286 5.00329445 6.8601904 4.62590858 6.74986516 4.28119546 6.63953992 3.93648234 6.35369294 3.6768121 6 3.6 5.06948888 3.31380256 4.05695988 3.55069614 3.35 4.22 2.79501988 4.88827031 2.70387225 5.82748716 3.12 6.59 3.86075892 8.06273637 5.3519922 9.00820901 7 9.05L7 9.05zM10 3.65C10.2060454 3.51730283 10.4449649 3.4445882 10.69 3.44 10.8207995 3.43341844 10.9503239 3.46842502 11.06 3.54 11.33 3.73 11.38 4.3 11.19 5.02 10.956984 5.62258755 10.4871155 6.10329921 9.89 6.35 9.76507235 6.1316607 9.66447077 5.90027707 9.59 5.66 9.29714717 4.96975228 9.46019856 4.17040282 10 3.65L10 3.65z"/>
    </g>
  </g>
</svg>
