<svg xmlns="http://www.w3.org/2000/svg" width="64" height="64" viewBox="0 0 64 64" style="background:#fff">
  <g id="Dillkraut" fill="none" fill-rule="evenodd" stroke="none" stroke-width="1">
    <rect width="64" height="64" fill="#FFF"/>
    <g transform="translate(2 4)">
      <rect id="Rectangle" width="60" height="60" x="0" y="0"/>
      <path id="Path" fill="#31E085" fill-rule="nonzero" d="M52.57,30.43 C48.1325642,29.0902639 43.5009001,28.5087703 38.87,28.71 C42.6696959,22.010455 45.5776475,14.8431107 47.52,7.39 C48.71,2.8 39.86,1.75 38.81,5.79 C37.6254841,10.3538009 36.0668759,14.8122229 34.15,19.12 C33.6185686,17.1304435 32.9262889,15.1873783 32.08,13.31 C30.36,9.49 21.52,10.95 23.44,15.21 C25.9882891,20.8098043 26.9631818,26.9979528 26.26,33.11 C25.89,33.63 25.51,34.11 25.12,34.68 C24.7258221,33.5475315 24.2164884,32.4584956 23.6,31.43 C22.21,29.06 19.38,25.92 19.93,22.96 C20.8,18.29 11.98,17.31 11.22,21.37 C10.6,24.75 11.42,27.43 13.12,30.37 C14.49,32.74 17.35,35.9 16.85,38.85 C16.6032926,40.3124556 17.3938159,41.7527809 18.76,42.33 C16.3576401,44.8830212 13.7958351,47.2811646 11.09,49.51 C6.78,53 14.26,56.73 17.54,54 C18.47,53.23 19.39,52.45 20.29,51.65 C21.0767285,51.6115844 21.8542376,51.4634875 22.6,51.21 C30.7731851,48.4820249 39.407537,47.4078299 48,48.05 C53.62,48.41 53.4,41.84 47.89,41.48 C41.5944817,41.0792213 35.2735529,41.4824703 29.08,42.68 C30.9,40.55 32.63,38.34 34.24,36.04 C38.8000851,34.850779 43.5948116,34.8991059 48.13,36.18 C50.13,36.78 52.86,36.8 54.26,34.9 C54.7946688,34.1133613 54.9126996,33.1156068 54.5763332,32.2259277 C54.2399668,31.3362486 53.4913603,30.666149 52.57,30.43 Z" opacity=".5"/>
      <path id="Path" fill="#3D454C" fill-rule="nonzero" d="M51 33.79L47 32.21 49.77 31.14C50.2836248 30.9273704 50.5276296 30.3386248 50.315 29.825 50.1023704 29.3113752 49.5136248 29.0673704 49 29.28L44.18 31.14 41.18 29.96 44.47 26.85 49.47 25.54C49.9973492 25.3981832 50.3134141 24.8595374 50.18 24.33 50.0425587 23.8130167 49.5225988 23.495753 49 23.61L45.87 24.43 47.1 21.9C47.3485281 21.4057051 47.1492949 20.8035281 46.655 20.555 46.1607051 20.3064719 45.5585281 20.5057051 45.31 21L43.13 25.34 38.85 29.34 34.27 30.1C36.4064624 26.6503284 38.3689176 23.0958814 40.15 19.45L46.48 15.59C46.8510668 15.4481548 47.102986 15.1001183 47.1218121 14.7033108 47.1406381 14.3065032 46.9228008 13.9361797 46.5668298 13.759841 46.2108589 13.5835023 45.7842648 13.6345913 45.48 13.89L41.66 16.22C42.4312591 14.4366274 43.0990342 12.6102623 43.66 10.75 43.7793169 10.2317441 43.4721266 9.71075876 42.9608757 9.56430667 42.4496248 9.41785459 41.9131806 9.69717377 41.74 10.2 41.1897825 12.1029671 40.5218283 13.969899 39.74 15.79L38.8 11.31C38.7448514 11.0497835 38.5883024 10.8222611 38.3649799 10.6777583 38.1416574 10.5332555 37.8699657 10.483681 37.61 10.54 37.0727584 10.6550218 36.7289301 11.1819275 36.84 11.72L38.34 18.84C36.4860751 22.6090585 34.4400541 26.2805481 32.21 29.84L31.69 26.59 31.69 26.59 31.49 25.33 31 20.5 34.1 16.31C34.2580723 16.0965955 34.3247649 15.829078 34.2853699 15.5664445 34.2459749 15.303811 34.1037281 15.0676345 33.89 14.91 33.6765955 14.7519277 33.409078 14.6852351 33.1464445 14.7246301 32.883811 14.7640251 32.6476345 14.9062719 32.49 15.12L30.74 17.48 30.41 13.63C30.3623274 13.0808543 29.8792747 12.6738377 29.33 12.72 28.7808543 12.7676726 28.3738377 13.2507253 28.42 13.8L28.74 17.55 26.68 15.47C26.4281278 15.2163414 26.060063 15.1163235 25.7144521 15.207622 25.3688412 15.2989204 25.0981907 15.5676649 25.0044521 15.912622 24.9107134 16.257579 25.0081278 16.6263414 25.26 16.88L29 20.66 29.35 24.84 26.66 23.16 25.9 19.61C25.8267606 19.2527344 25.5684856 18.9616802 25.2224648 18.8464746 24.876444 18.731269 24.4952461 18.8094146 24.2224648 19.0514746 23.9496834 19.2935346 23.8267606 19.6627344 23.9 20.02L24.24 21.58 21.8 19.94C21.3449739 19.6959207 20.7789369 19.838415 20.493712 20.2688453 20.2084871 20.6992756 20.2978752 21.2760877 20.7 21.6L23.24 23.31 21.17 23.38C20.6177153 23.38 20.17 23.8277153 20.17 24.38 20.17 24.9322847 20.6177153 25.38 21.17 25.38L21.17 25.38 25.8 25.21 25.8 25.21 25.96 25.21 25.96 25.21 29.56 27.47 30.35 32.39C27.71006 36.2727557 24.73897 39.9197018 21.47 43.29L21 38.33 22.27 34.75 27.36 33.62C27.7258874 33.560621 28.0289132 33.3037228 28.1473702 32.9524859 28.2658272 32.601249 28.1802799 32.2133018 27.9250875 31.9444594 27.669895 31.675617 27.2869275 31.5699891 26.93 31.67L23.61 32.4 25.23 30C25.5392794 29.5416037 25.4183963 28.9192795 24.96 28.61 24.5016036 28.3007206 23.8792795 28.4216037 23.57 28.88L21.75 31.58 21.28 28.88C21.1861116 28.3277153 20.6622847 27.9561116 20.11 28.05 19.5577153 28.1438884 19.1861116 28.6677153 19.28 29.22L20.14 34.22C20.1561131 34.2935775 20.1830744 34.364351 20.22 34.43L19.66 36.03 17.11 32.03 16.35 27.03 19 23.5C19.3049386 23.060276 19.2096779 22.4584231 18.7838486 22.1343643 18.3580192 21.8103055 17.7525468 21.8788961 17.41 22.29L16 24 15.7 21.1C15.6589145 20.7427344 15.4303509 20.4345263 15.1004071 20.2914746 14.7704632 20.1484229 14.3892654 20.1922607 14.1004071 20.4064746 13.8115488 20.6206885 13.6589145 20.9727344 13.7 21.33L14.05 24.33 12.65 22.81C12.4088457 22.5456234 12.0449668 22.4299837 11.6954328 22.5066412 11.3458989 22.5832986 11.0638125 22.8406072 10.9554328 23.1816412 10.8470532 23.5226752 10.9288457 23.8956235 11.17 24.16L14.31 27.58 14.38 27.63C14.38 27.63 14.38 27.68 14.44 27.69L14.44 27.69 14.82 30.28 7.33 25.93C6.86153362 25.6767034 6.27674486 25.8349921 6 26.29 5.72691788 26.7653732 5.8874926 27.3719888 6.36 27.65L8.83 29.09 6.14 29.63C5.58771527 29.6852285 5.18477157 30.1777153 5.24000004 30.73 5.29522852 31.2822847 5.78771527 31.6852284 6.34 31.63L6.54 31.63 11.43 30.63 11.43 30.63 14.43 32.39 9.7 32.87C9.14771525 32.8976142 8.72238576 33.3677153 8.75 33.92 8.77761424 34.4722847 9.24771525 34.8976142 9.8 34.87L9.9 34.87 16.25 34.23 19 38.57 19.82 45 19.72 45.1 19.28 45.53C16.43 48.35 13.2 51.5 9.61 53 9.05771526 53.1076955 8.69730449 53.6427153 8.80500001 54.195 8.91269554 54.7472847 9.44771525 55.1076955 10 55 10.1338089 54.9975019 10.2660137 54.970383 10.39 54.92 14.33 53.24 17.7 49.92 20.68 47.04L21.12 46.61 21.64 46.09 27.07 46.5 27.13 46.57 31.13 49.19 31 54.49C31 55.0422847 31.4477153 55.49 32 55.49L32 55.49C32.5522847 55.49 33 55.0422847 33 54.49L33.1 51.05 36.29 54.28C36.4770714 54.4708556 36.7327541 54.5788906 37 54.58 37.2623399 54.5788954 37.5137394 54.4747442 37.7 54.29 38.0877236 53.8999625 38.0877236 53.2700375 37.7 52.88L34.41 49.54 37.11 49.74C37.4672656 49.7667949 37.8116876 49.6009556 38.0135255 49.3049519 38.2153633 49.0089483 38.2439532 48.6277504 38.0885255 48.3049519 37.9330977 47.9821533 37.6172656 47.7667949 37.26 47.74L32.26 47.37C32.2379048 47.35925 32.2120952 47.35925 32.19 47.37L30.28 46.1 32.55 44.32C32.6595663 44.3744651 32.778198 44.4083598 32.9 44.42L38.72 44.99 40.27 45.2 44.65 50.73C44.8386474 50.9687374 45.125728 51.1085972 45.43 51.11 45.6266971 51.1305023 45.8250568 51.0922224 46 51 46.4321033 50.6595339 46.5080627 50.0339863 46.17 49.6L43.09 45.72 48.81 46.52 48.95 46.52C49.4552593 46.5242854 49.8843321 46.150992 49.95 45.65 50.0212456 45.1068735 49.6422674 44.607514 49.1 44.53L44.1 43.83 47.33 42.08C47.8112266 41.8160303 47.9897488 41.2135179 47.73 40.73 47.469538 40.2450722 46.8661466 40.06182 46.38 40.32L40.76 43.32 38.91 43.06 34.54 42.64 36.12 41.18 36.12 41.18 42.47 41C43.0222847 40.9779086 43.4520914 40.5122847 43.43 39.96 43.4079086 39.4077153 42.9422847 38.9779086 42.39 39L38.39 39.15 41.22 36.52C41.4915218 36.2717004 41.6099521 35.897407 41.5306793 35.5381123 41.4514065 35.1788177 41.186474 34.8891074 40.8356793 34.7781123 40.4848846 34.6671173 40.1015218 34.7517004 39.83 35L37.25 37.4 37.41 34.16C37.4348528 33.6077153 37.0072847 33.1398528 36.455 33.115 35.9027153 33.0901472 35.4348528 33.5177153 35.41 34.07L35.16 39.35 32.25 42 29 44.6 23.49 44.18C26.7512376 40.7750062 29.7122443 37.0946588 32.34 33.18L32.34 33.12 32.82 32.38 39.18 31.38 43.28 32.97 46 38.2C46.1722037 38.5323996 46.5156433 38.7407787 46.89 38.74 47.0499233 38.7406435 47.2076684 38.7029218 47.35 38.63 47.836561 38.3768406 48.0284034 37.7790062 47.78 37.29L46.1 34 50.3 35.63C50.4140861 35.6772572 50.5365182 35.7010635 50.66 35.7 51.1175662 35.668218 51.4948471 35.3292288 51.5752312 34.877659 51.6556154 34.4260892 51.4184909 33.9777293 51 33.79zM43.78 7.46C44.3875132 7.46 44.88 6.96751322 44.88 6.36 44.88 5.75248678 44.3875132 5.26 43.78 5.26 43.1724868 5.26 42.68 5.75248678 42.68 6.36 42.68 6.96751322 43.1724868 7.46 43.78 7.46zM14.31 18C14.9175132 18 15.41 17.5075132 15.41 16.9 15.41 16.2924868 14.9175132 15.8 14.31 15.8 13.7024868 15.8 13.21 16.2924868 13.21 16.9 13.21 17.5075132 13.7024868 18 14.31 18L14.31 18z"/>
    </g>
  </g>
</svg>
