<svg xmlns="http://www.w3.org/2000/svg" width="64" height="64" viewBox="0 0 64 64" style="background:#fff">
  <g id="Dinkelmehl" fill="none" fill-rule="evenodd" stroke="none" stroke-width="1">
    <rect width="64" height="64" fill="#FFF"/>
    <g id="6-Dinkelmehl" transform="translate(2 4)">
      <rect id="Rectangle" width="60" height="60" x="0" y="0"/>
      <path id="Path" fill="#B2B2B2" fill-rule="nonzero" d="M41.8,11.31 C36.89,2.31 23.21,1.14 17.58,10.22 C17.154561,10.7712406 16.9660575,11.4691633 17.0561193,12.1596366 C17.146181,12.85011 17.5073987,13.4763299 18.06,13.9 C18.7426485,14.9779415 19.8587038,15.7073894 21.12,15.9 C26.961202,16.9101704 32.9455687,16.74016 38.72,15.4 C40.29,15 42.88,13.31 41.8,11.31 Z" opacity=".5"/>
      <path id="Path" fill="#EAE43F" fill-rule="nonzero" d="M33.63,29.15 C34.82,25.31 27.04,23.44 24.73,26.79 C22,30.7 19,35.37 20.23,40.35 C21.5273826,45.1436636 25.9789278,48.3939982 30.94,48.17 C35.7395374,48.1058132 39.6193487,44.2392889 39.7,39.44 C39.73,35 36.81,31.82 33.63,29.15 Z" opacity=".5"/>
      <path id="Shape" fill="#3D454C" fill-rule="nonzero" d="M50.14,49.9 C50.1505904,45.0608024 49.9102678,40.2243102 49.42,35.41 C48.9232283,30.5909884 48.1755468,25.801154 47.18,21.06 L48,21.06 C48.715144,21.0580745 49.3851507,20.7102158 49.7981872,20.1264046 C50.2112237,19.5425933 50.3162275,18.7950047 50.08,18.12 L49.74,17.12 C50.0500523,15.9487073 49.8656808,14.7014887 49.23,13.67 C48.8465942,13.1033989 48.2308545,12.7368872 47.55,12.67 L43.37,12.67 L36.37,6.51 C32.6692783,3.19949033 27.0999596,3.10581678 23.29,6.29 L15.55,12.67 L12,12.67 C11.3531671,12.7654765 10.7762143,13.1283399 10.41,13.67 C9.7753855,14.7016796 9.58767001,15.9470997 9.89,17.12 L9.44,18.4 C9.24351968,19.0021249 9.34386284,19.6617296 9.71050905,20.1781882 C10.0771552,20.6946469 10.6667642,21.0069102 11.3,21.02 L13.14,21.02 C12.0636644,25.8228029 11.3218829,30.6945027 10.92,35.6 C10.46,40.33 10.14,45.13 9.98,49.88 C9.07,50.6 7.21,52.51 6.33,56.62 C6.27849593,56.9030205 6.35136909,57.1945132 6.53,57.42 C6.69943003,57.6543413 6.96200807,57.8038649 7.25,57.83 C10.4920912,58.1863183 13.7650389,58.1561064 17,57.74 C20.8248545,57.2528801 24.674523,56.9857739 28.53,56.94 L29,56.94 C29.2930597,56.9579178 29.5869403,56.9579178 29.88,56.94 L30,56.94 C34.3930795,56.9405918 38.7817629,57.217807 43.14,57.77 C44.8779027,57.9921282 46.6279645,58.1056818 48.38,58.11 C49.8501464,58.1075882 51.319042,58.0241282 52.78,57.86 C53.0790833,57.8580222 53.36158,57.722277 53.55,57.49 C53.7403478,57.254693 53.8138846,56.9458385 53.75,56.65 C52.89,52.54 51.05,50.62 50.14,49.9 Z M24.56,7.9 C27.6209743,5.36026668 32.0779616,5.43674501 35.05,8.08 L40.34,12.74 L33.34,12.74 C32.1881981,12.7564711 31.0848982,13.2063604 30.25,14 C27.0458455,13.1934618 23.7541036,12.7870325 20.45,12.79 L18.69,12.79 L24.56,7.9 Z M11.71,17.9 L18.71,17.9 C19.2622847,17.9 19.71,17.4522847 19.71,16.9 C19.71,16.3477153 19.2622847,15.9 18.71,15.9 L11.71,15.9 C11.71,15.2 11.91,14.84 12.12,14.77 L20.42,14.77 C23.7521373,14.7683666 27.0702113,15.2020359 30.29,16.06 C30.6608799,16.1463051 31.0485884,16.0144842 31.29,15.72 C31.7700787,15.1000775 32.5060148,14.7321095 33.29,14.72 L47.49,14.72 C47.5515436,14.7644372 47.6055628,14.8184564 47.65,14.88 C47.8350742,15.178755 47.9159545,15.5304084 47.88,15.88 L45.54,15.88 C44.9877153,15.88 44.54,16.3277153 44.54,16.88 C44.54,17.4322847 44.9877153,17.88 45.54,17.88 L47.91,17.88 L48.22,18.77 C48.2539402,18.8287862 48.2539402,18.9012138 48.22,18.96 C48.1824273,19.0170696 48.11832,19.0510088 48.05,19.05 L11.3,19.1 L11.71,17.9 Z M43.4,55.76 C38.9210666,55.2067439 34.4129559,54.9228999 29.9,54.91 L28.73,54.91 C24.2925424,54.8528241 20.1798174,52.5729848 17.78,48.84 C17.4845277,48.3733194 16.8666806,48.2345277 16.4,48.53 C15.9333194,48.8254723 15.7945277,49.4433194 16.09,49.91 C17.498191,52.1761005 19.5007967,54.012687 21.88,55.22 C20.15,55.35 18.43,55.52 16.73,55.73 C14.0244213,56.0810999 11.2895305,56.1481315 8.57,55.93 C8.95984827,54.3442091 9.7599484,52.8888545 10.89,51.71 C12.1829898,52.8669348 13.6555492,53.8058602 15.25,54.49 C15.3771794,54.5413722 15.5128451,54.5685053 15.65,54.57 C16.0512802,54.569673 16.4135008,54.3295049 16.57,53.96 C16.767185,53.4464146 16.5124931,52.8700067 16,52.67 C14.5199653,52.0222656 13.1658636,51.1184027 12,50 C12.16,45.27 12.47,40.49 12.93,35.78 C13.3169011,30.8219955 14.0655611,25.8988881 15.17,21.05 L45.17,21.05 C46.1926453,25.8556203 46.9570743,30.7125819 47.46,35.6 C47.941645,40.3613761 48.1786233,45.1443328 48.17,49.93 C46.9869238,50.6947563 45.6959205,51.2778988 44.34,51.66 C43.8753988,51.8125877 43.5892995,52.2787993 43.663658,52.7621295 C43.7380165,53.2454598 44.1510187,53.6041173 44.64,53.61 C44.7424384,53.6292326 44.8475616,53.6292326 44.95,53.61 C46.4425182,53.1838516 47.8667966,52.5474719 49.18,51.72 C50.3390131,52.9056453 51.1516659,54.3857109 51.53,56 C48.8189473,56.1993275 46.0945736,56.1189032 43.4,55.76 Z"/>
      <circle id="Oval" cx="41.41" cy="53.61" r="1" fill="#3D454C" fill-rule="nonzero"/>
      <path id="Shape" fill="#3D454C" fill-rule="nonzero" d="M37.29,33.49 C37.29,32.9377153 36.8422847,32.49 36.29,32.49 L34.94,32.49 C34.1928352,32.5196155 33.4573935,32.6856829 32.77,32.98 C33.4050339,30.8165564 32.8753903,28.4785579 31.37,26.8 L30.45,25.8 C30.2632861,25.5930774 29.9986881,25.4734646 29.72,25.4699771 C29.439358,25.4681009 29.1708345,25.5842192 28.98,25.79 L28.06,26.79 C26.5300025,28.4672979 25.9843283,30.8205179 26.62,33 C25.9326065,32.7056829 25.1971648,32.5396155 24.45,32.51 L23.1,32.51 C22.8187524,32.4865115 22.5422849,32.5934123 22.35,32.8 C22.1552502,32.9960087 22.0502808,33.2638616 22.06,33.54 L22.11,34.9 C22.1645915,36.1565484 22.592859,37.3682321 23.34,38.38 L23.1,38.38 C22.8204352,38.3674663 22.5484095,38.4726495 22.35,38.67 C22.1526495,38.8684095 22.0474663,39.1404352 22.06,39.42 L22.11,40.77 C22.2845738,44.1026095 24.9473905,46.7654262 28.28,46.94 L29.64,46.94 L29.71,46.94 L31.07,46.94 C34.4026095,46.7654262 37.0654262,44.1026095 37.24,40.77 L37.24,39.42 C37.24,38.8677153 36.7922847,38.42 36.24,38.42 L36,38.42 C36.747141,37.4082321 37.1754085,36.1965484 37.23,34.94 L37.29,33.49 Z M35,34.5 L35.28,34.5 L35.28,34.77 C35.1535521,37.0709112 33.3022382,38.9005976 31,39 L30.72,39 L30.72,38.72 C30.8513968,36.4230006 32.7013745,34.5989571 35,34.5 L35,34.5 Z M29.71,41.5 L29.42,41.08 L30,41.08 L29.71,41.5 Z M29.51,28.2 L29.71,27.99 L29.9,28.2 C31.4233247,29.9099352 31.4233247,32.4900648 29.9,34.2 L29.71,34.4 L29.52,34.19 C27.9655396,32.4940882 27.9482508,29.8964523 29.48,28.18 L29.51,28.2 Z M24.41,34.52 C26.7037718,34.6442556 28.5357444,36.4762282 28.66,38.77 L28.66,39 L28.38,39 C26.0822101,38.8847722 24.2452278,37.0477899 24.13,34.75 L24.13,34.5 L24.41,34.52 Z M28.41,44.9 C26.1158373,44.7852183 24.2801857,42.953886 24.16,40.66 L24.16,40.38 L24.44,40.38 C26.7321593,40.4992969 28.5653038,42.3281281 28.69,44.62 L28.69,44.9 L28.41,44.9 Z M35.29,40.66 C35.1581768,42.9606611 33.3025183,44.7860408 31,44.88 L30.72,44.88 L30.72,44.6 C30.8418729,42.2970316 32.6957585,40.4648035 35,40.37 L35.28,40.37 L35.29,40.66 Z"/>
    </g>
  </g>
</svg>
