<svg xmlns="http://www.w3.org/2000/svg" width="64" height="64" viewBox="0 0 64 64" style="background:#fff">
  <g id="Distelöl" fill="none" fill-rule="evenodd" stroke="none" stroke-width="1">
    <rect width="64" height="64" fill="#FFF"/>
    <g transform="translate(2 3)">
      <rect id="Rectangle" width="60" height="60" x="0" y="0"/>
      <path id="Path" fill="#EBE53F" fill-rule="nonzero" d="M53,31.38 C47.1,26.87 39,27.51 32.36,29.81 C28.54,31.14 25.72,32.29 21.66,32.26 C19.338152,32.1872905 17.0227933,32.5432388 14.83,33.31 C10.93,32.23 5.89,33.31 4.83,37.09 C3,44.24 2.57,51.94 9.84,56.16 C13.64,58.37 17.71,58.21 21.84,57.26 C25.8730126,56.4398488 29.9857147,56.0775553 34.1,56.18 C41.3,56.11 49.76,54.78 54.5,48.71 C58.74,43.3 58.73,35.74 53,31.38 Z" opacity=".5"/>
      <path id="Shape" fill="#3D454C" fill-rule="nonzero" d="M24.83,46.18 C24.83,45.6277153 24.3822847,45.18 23.83,45.18 C23.2777153,45.18 22.83,45.6277153 22.83,46.18 L22.83,51.92 C22.9599568,52.808607 22.9599568,53.711393 22.83,54.6 C22.1,56.54 19.89,56.87 18.26,57.1 C15.02,57.55 8.69,57.86 7.26,54.41 C6.26,51.88 7.26,46.83 7.26,44.14 L7.26,28.62 C7.26,24.92 6.64,21.54 9.13,18.48 C10.25,17.11 11.71,16.58 12.2,14.74 C12.5208753,13.1805686 12.5783366,11.5784116 12.37,10 L17.7,10 C17.5651873,11.4571542 17.6155888,12.9255194 17.85,14.37 C18.26,16.46 19.71,16.93 20.95,18.47 C22.88,20.87 22.83,23.19 22.83,26.05 L22.83,38.18 C22.83,38.7322847 23.2777153,39.18 23.83,39.18 C24.3822847,39.18 24.83,38.7322847 24.83,38.18 L24.83,25.18 C24.83,22.89 25.07,20.61 23.75,18.6 C22.95,17.37 21.67,16.71 20.8,15.6 C19.64,14.09 19.85,13.22 19.85,11.29 C19.85,8.93 22.42,3.95 18.85,1.73 C15.45,-0.38 10.15,1.06 9.52,5.08 C9.26,6.74 10.21,8.79 10.3,9.19 C11.0465539,11.966804 10.1554452,14.9268345 8,16.83 C4.81,20 5.29,23.25 5.29,27.44 L5.29,46 C5.29,49 4.18,54.65 6.21,57.28 C8.55,60.28 16.3,59.54 19.74,59.15 C26.51,58.34 24.83,51.22 24.83,46.18 Z M18.63,5.48 C18.8603225,6.33996428 18.7110567,7.25740297 18.22,8 L11.8,8 C11.6567806,7.6148088 11.5529179,7.21611009 11.49,6.81 C10.93,2.7 17.45,1.49 18.63,5.48 L18.63,5.48 Z"/>
      <path id="Shape" fill="#3D454C" fill-rule="nonzero" d="M15.78,21.3 C15.4850478,21.2597369 15.1876875,21.2399965 14.89,21.2399965 C14.7024049,21.2500982 14.5154763,21.2701263 14.33,21.3 C11.0672207,21.7512921 8.62846484,24.5262813 8.6,27.82 L8.6,53 C8.6,53.5522847 9.04771525,54 9.6,54 L20.52,54 C21.0722847,54 21.52,53.5522847 21.52,53 L21.52,27.82 C21.4865538,24.5246091 19.0445824,21.7508017 15.78,21.3 Z M19.52,52 L10.6,52 L10.6,27.82 C10.6232914,25.5242374 12.3254562,23.5922803 14.6,23.28 L14.98,23.28 L15.52,23.28 C17.7923902,23.5962894 19.4924602,25.5258689 19.52,27.82 L19.52,52 Z"/>
      <path id="Shape" fill="#3D454C" fill-rule="nonzero" d="M15.93 35.58L15.93 35.51 15.93 35.51 15.93 35.51C15.744432 35.2631508 15.448432 35.1245179 15.14 35.14 14.8308591 35.1208516 14.5332054 35.260259 14.35 35.51L14.3 35.57 14.3 35.57 14.3 35.63 14.3 35.63C13.24 37.25 11.9 39.16 11.61 41.09 11.4541542 42.1233364 11.7284493 43.1754044 12.368984 44.0011085 13.0095188 44.8268126 13.960362 45.3540527 15 45.46 16.0627637 45.4146137 17.0584724 44.9281462 17.7474521 44.1176935 18.4364318 43.3072408 18.7562775 42.2462105 18.63 41.19 18.39 39.19 16.99 37.24 15.92 35.6L15.93 35.58zM15 43.46C12.7 43.46 13.45 40.82 14.05 39.62 14.34 39.04 14.66 38.47 15 37.9 15.3 38.41 15.59 38.9 15.86 39.44 16.5 40.64 17.44 43.46 15 43.46zM56.36 40.07C54.9152606 38.2085531 52.8302993 36.9504482 50.51 36.54 51.3167346 34.4805361 51.8186874 32.3143906 52 30.11 52.0109632 29.7928963 51.8707872 29.4894065 51.622255 29.2921587 51.3737228 29.094911 51.0463299 29.0273143 50.74 29.11 48.4266346 29.6374409 46.2278521 30.5792923 44.25 31.89 43.2719999 29.8413144 42.0315872 27.9285914 40.56 26.2 40.3411833 25.9807893 40.0331393 25.8753468 39.72589 25.9144868 39.4186407 25.9536269 39.1468702 26.1329311 38.99 26.4 37.9427668 28.2311476 37.1201626 30.1818949 36.54 32.21 33.8475832 31.1418915 31.0150062 30.4682704 28.13 30.21 27.8105934 30.1980665 27.5047265 30.3395374 27.3069906 30.5906619 27.1092548 30.8417865 27.0434772 31.172304 27.13 31.48 27.8958498 33.7672321 28.929707 35.955787 30.21 38 27.6885404 38.5531789 25.3921427 39.8529609 23.62 41.73 23.4016686 41.9502186 23.2978577 42.2592674 23.3389705 42.5666345 23.3800833 42.8740017 23.5614672 43.1449033 23.83 43.3 25.13 44.21 30.58 45.49 31.13 46.59 31.25 46.81 29.37 52.35 29.07 53.5 28.9696217 53.8483506 29.0656352 54.2237461 29.3209387 54.4811253 29.5762423 54.7385045 29.9508481 54.8375544 30.3 54.74 31.58 54.31 35.3 51.98 36.57 52.03 38.76 52.13 40.47 55.92 41.46 57.74 41.6625126 58.088968 42.0548988 58.2820504 42.4549456 58.2295853 42.8549924 58.1771201 43.1843208 57.8893866 43.29 57.5 44.07 55.27 44.9 53.08 45.49 50.8 47.3783335 51.4538428 49.314002 51.9619976 51.28 52.32 51.5863299 52.4026857 51.9137228 52.335089 52.162255 52.1378413 52.4107872 51.9405935 52.5509632 51.6371037 52.54 51.32 52.5834085 48.9829093 52.080022 46.6680163 51.07 44.56L56.15 41.56C56.391246 41.4022406 56.5526834 41.1480535 56.5929116 40.8626251 56.6331397 40.5771967 56.5482455 40.2882918 56.36 40.07zM43.81 49.3C43.3674655 51.2174284 42.7927591 53.1019309 42.09 54.94 40.91 53.14 39.56 51.47 38.23 49.76 37.9065948 49.428121 37.3975484 49.3619036 37 49.6 35.22 50.5 33.46 51.39 31.62 52.14 32.41 49.93 33.46 46.95 32.78 45.56 31.93 43.81 28.32 43.13 26.05 42.23 27.7795622 40.8479539 29.8546381 39.9660467 32.05 39.68 32.3502315 39.598158 32.5952513 39.3812124 32.7128478 39.0931011 32.8304442 38.8049898 32.8072127 38.4785539 32.65 38.21 31.42602 36.4090548 30.400074 34.4812152 29.59 32.46 32.0029239 32.7800314 34.35914 33.4364058 36.59 34.41 36.6465639 34.4148254 36.7034361 34.4148254 36.76 34.41L36.89 34.41C36.9498974 34.4149626 37.0101026 34.4149626 37.07 34.41 37.5181524 34.4333915 37.9270061 34.1553709 38.07 33.73 38.6011297 32.0286682 39.2459137 30.364925 40 28.75 41.1572173 30.3771805 42.1614926 32.1078815 43 33.92 43.133628 34.1497442 43.3532172 34.3168418 43.6102702 34.3843886 43.8673232 34.4519353 44.1406913 34.4143739 44.37 34.28 46.0109511 33.0348506 47.8595149 32.0902548 49.83 31.49 49.5620819 33.3341507 49.0369726 35.1316405 48.27 36.83 48.091896 37.1384703 48.0913188 37.5183921 48.2684845 37.8274022 48.4456503 38.1364123 48.7738114 38.3278575 49.13 38.33 51.0116067 38.392822 52.7989811 39.1685425 54.13 40.5L49.26 43.35C49.0302558 43.483628 48.8631582 43.7032172 48.7956114 43.9602702 48.7280647 44.2173232 48.7656261 44.4906913 48.9 44.72 49.7953404 46.4059675 50.3364262 48.2572294 50.49 50.16 48.64 49.75 46.87 49.16 45.03 48.6 44.5002208 48.4595844 43.9561291 48.7717681 43.81 49.3z"/>
      <path id="Path" fill="#3D454C" fill-rule="nonzero" d="M40.53 37.76C41.0822847 37.76 41.53 37.3122847 41.53 36.76 41.53 36.2077153 41.0822847 35.76 40.53 35.76 39.9777153 35.76 39.53 36.2077153 39.53 36.76 39.53 37.3122847 39.9777153 37.76 40.53 37.76zM44.18 39.61C44.7322847 39.61 45.18 39.1622847 45.18 38.61 45.18 38.0577153 44.7322847 37.61 44.18 37.61 43.6277153 37.61 43.18 38.0577153 43.18 38.61 43.18 39.1622847 43.6277153 39.61 44.18 39.61zM45.68 43.21C46.2322847 43.21 46.68 42.7622847 46.68 42.21 46.68 41.6577153 46.2322847 41.21 45.68 41.21 45.1277153 41.21 44.68 41.6577153 44.68 42.21 44.68 42.7622847 45.1277153 43.21 45.68 43.21zM45 45.16L45 45.16C45 44.6077153 44.5522847 44.16 44 44.16 43.4477153 44.16 43 44.6077153 43 45.16L43 45.16C43 45.7122847 43.4477153 46.16 44 46.16 44.5522847 46.16 45 45.7122847 45 45.16zM40.58 45.26L40.58 45.26C40.0277153 45.26 39.58 45.7077153 39.58 46.26 39.58 46.8122847 40.0277153 47.26 40.58 47.26L40.58 47.26C41.1322847 47.26 41.58 46.8122847 41.58 46.26 41.58 45.7077153 41.1322847 45.26 40.58 45.26zM36.68 43.86C36.1277153 43.86 35.68 44.3077153 35.68 44.86 35.68 45.4122847 36.1277153 45.86 36.68 45.86 37.2322847 45.86 37.68 45.4122847 37.68 44.86 37.68 44.3077153 37.2322847 43.86 36.68 43.86zM35.48 40.26L35.48 40.26C34.9277153 40.26 34.48 40.7077153 34.48 41.26 34.48 41.8122847 34.9277153 42.26 35.48 42.26L35.48 42.26C36.0322847 42.26 36.48 41.8122847 36.48 41.26 36.48 40.7077153 36.0322847 40.26 35.48 40.26zM36.83 37.06C36.2777153 37.06 35.83 37.5077153 35.83 38.06 35.83 38.6122847 36.2777153 39.06 36.83 39.06 37.3822847 39.06 37.83 38.6122847 37.83 38.06 37.83 37.5077153 37.3822847 37.06 36.83 37.06z"/>
    </g>
  </g>
</svg>
