<svg xmlns="http://www.w3.org/2000/svg" width="64" height="64" viewBox="0 0 64 64" style="background:#fff">
  <g id="Dorsch" fill="none" fill-rule="evenodd" stroke="none" stroke-width="1">
    <rect width="64" height="64" fill="#FFF"/>
    <g transform="translate(2 4)">
      <rect id="Rectangle" width="60" height="60" x="0" y="0"/>
      <path id="Path" fill="#B3B3B3" fill-rule="nonzero" d="M41.68,10.91 C32,5.22 18.61,7.09 12.29,17 C5.73,27.2 9.72,39.4 17,48 C21.43,53.22 35.36,48.74 29.85,42.25 C26.12,37.83 23.1,32.36 24,26.36 C24.39,23.77 27.41,16.61 31.2,18.84 C34.36,20.7 38.76,21.05 41.8,18.66 C44.35,16.66 44.77,12.73 41.68,10.91 Z" opacity=".5"/>
      <path id="Shape" fill="#3D454C" fill-rule="nonzero" d="M49.43,21.21 C48.14,18.53 44.43,14.97 44.23,14.82 C44.1989752,14.7963825 44.1654389,14.7762607 44.13,14.76 L44.13,14.76 C42.4965533,13.1002576 40.6262546,11.6916362 38.58,10.58 L38.58,10.58 C35.2524354,8.60625845 31.3976627,7.70541485 27.54,8 C26.85,7.15 24.4,4.4 21.48,4 C20.85,3.93 20.8,4 17.94,7 C16.94,8.08 15.65,9.41 15.31,9.68 C14.9775766,9.94960257 14.7952137,10.3627103 14.82,10.79 C14.83176,11.2812044 15.0865321,11.7345488 15.5,12 L16.25,12.45 C13.39,14.85 10.47,18.81 9.55,25.27 C7.47,39.76 20.82,46.27 23.55,47.42 C24.14,47.68 25.95,48.62 26.14,48.75 C26.33,48.88 26.45,48.99 26.45,49.7 C26.45,49.95 26.45,50.24 26.45,50.6 C26.51,52.25 27.28,55.7 28.17,56.89 C28.47,57.28 29.04,58.06 29.83,58.06 C29.9331322,58.0691181 30.0368678,58.0691181 30.14,58.06 C30.7354516,57.868918 31.1395088,57.3153596 31.14,56.69 C31.3859721,55.4838177 31.7859135,54.3142409 32.33,53.21 C33.1035791,51.9336884 34.2143446,50.8955899 35.54,50.21 C36.2616716,49.8512435 37.0192037,49.5696829 37.8,49.37 C38.52,49.17 39.08,49.01 39.36,48.45 C39.5384735,48.1057844 39.5603295,47.7014482 39.42,47.34 C39.3046194,47.0729229 39.1042357,46.8514463 38.85,46.71 C38.0126495,45.9395344 37.0205726,45.3565614 35.94,45 C35.5,44.89 34.83,44.8 34.06,44.7 C33.2586945,44.6244791 32.463501,44.4941743 31.68,44.31 C27.52,43.18 25.06,39.25 24.26,37.11 C23.3066542,34.1704606 23.0970672,31.0403989 23.65,28 C27.65,25.67 32.72,26.58 36.43,27.24 C37.08,27.36 37.66,27.45 38.2,27.53 L38.2,27.53 C38.2,27.53 39.57,27.8 41.64,28.17 C42.2997842,28.2908528 42.9692397,28.3511038 43.64,28.35 C45.0309636,28.3635545 46.3972177,27.9821131 47.58,27.25 C47.971572,27.0345716 48.2045581,26.6133519 48.1789398,26.1671661 C48.1533214,25.7209804 47.8736556,25.3291952 47.46,25.16 L46.62,24.73 C47.2932213,24.5233467 48.0051578,24.4754279 48.7,24.59 C49.0407712,24.6840696 49.4055916,24.6256983 49.7,24.43 C49.9958434,24.2288448 50.1865083,23.9061812 50.22,23.55 C50.1719178,22.7131442 49.8989989,21.9047514 49.43,21.21 Z M17.2,10.65 C17.71,10.14 18.44,9.38 19.39,8.38 C20.15,7.58 21.14,6.53 21.63,6.07 C22.9714294,6.48968708 24.1786107,7.25538492 25.13,8.29 C23.4332999,8.62029315 21.7817638,9.15066451 20.21,9.87 C19.4453709,10.2351694 18.706939,10.6528345 18,11.12 L17.2,10.65 Z M46,22.76 C45.3342702,22.9149604 44.6847056,23.132598 44.06,23.41 C43.6286769,23.6096384 43.3463924,24.0349985 43.33,24.51 C43.3185114,24.9866216 43.5834896,25.4269531 44.01,25.64 L45.01,26.14 C44.0224326,26.3630028 42.9975674,26.3630028 42.01,26.14 L39.01,25.59 C39.01,25.59 38.95,25.59 38.91,25.59 C38.3,25.51 37.59,25.38 36.8,25.24 C32.99,24.56 27.24,23.54 22.61,26.24 C19.6842085,28.0169309 17.6026835,30.9029274 16.84,34.24 C16.7610932,34.5449429 16.8304751,34.8692404 17.0272456,35.1152035 C17.2240161,35.3611666 17.5251737,35.5000435 17.84,35.49 C18.3106972,35.5037136 18.7271845,35.1871833 18.84,34.73 C19.2931563,32.8864173 20.2046885,31.1871837 21.49,29.79 C21.2460132,32.5172159 21.5869415,35.2650975 22.49,37.85 C23.42,40.35 26.31,44.94 31.25,46.29 C32.1265813,46.4944974 33.0149315,46.6447822 33.91,46.74 C34.454153,46.7937438 34.9949603,46.8772017 35.53,46.99 C35.9665695,47.1110777 36.3839772,47.292852 36.77,47.53 C36.0588454,47.7372781 35.369061,48.0118525 34.71,48.35 C33.0491369,49.2244739 31.6642018,50.5436245 30.71,52.16 C30.2360984,53.0847587 29.860703,54.0567646 29.59,55.06 C29.0467935,53.590282 28.710248,52.0522691 28.59,50.49 C28.59,50.16 28.59,49.89 28.59,49.67 C28.7416434,48.6943006 28.3318511,47.7162116 27.53,47.14 C26.5414717,46.557688 25.5234408,46.0269768 24.48,45.55 C22.01,44.49 9.83,38.55 11.7,25.55 C12.62,19.08 15.7,15.39 18.51,13.35 C18.7140598,13.287496 18.8927706,13.1613471 19.02,12.99 C19.7188511,12.5124697 20.4544933,12.0911474 21.22,11.73 C26.0969734,9.42005814 31.7530266,9.42005814 36.63,11.73 C35.8572847,12.9426452 35.35268,14.3064417 35.15,15.73 C34.41,20.05 35.15,22.34 35.15,22.43 C35.2857475,22.8633092 35.6963999,23.1507659 36.15,23.13 C36.2460588,23.1453313 36.3439412,23.1453313 36.44,23.13 C36.6950492,23.0537464 36.9091681,22.8789469 37.0349275,22.6443212 C37.1606869,22.4096954 37.1877061,22.1346104 37.11,21.88 C36.6556022,19.9501245 36.6181011,17.9455205 37,16 C37.1528376,14.7925266 37.5879169,13.6380248 38.27,12.63 C39.889698,13.5546323 41.3737537,14.6988023 42.68,16.03 C42.7308881,16.0731606 42.7843172,16.1132324 42.84,16.15 C42.84,16.15 42.84,16.21 42.9,16.23 C42.96,16.25 46.55,19.69 47.68,22.04 L47.89,22.46 C47.252645,22.5063309 46.6203744,22.6066913 46,22.76 Z"/>
      <path id="Path" fill="#3D454C" fill-rule="nonzero" d="M25.9,14.5 C24.9984234,14.0178777 23.9207465,13.9955809 23,14.44 C22.0806539,15.0648404 21.5127814,16.0892379 21.47,17.2 C21.47,17.3 21.47,17.46 21.19,22.06 C21.1584205,22.5630127 21.3939685,23.0455061 21.81,23.33 C22.0581434,23.5152356 22.3603645,23.6136331 22.67,23.61 C22.8547484,23.611617 23.0380818,23.5776663 23.21,23.51 C24.8961354,22.9267537 26.6576315,22.5899475 28.44,22.51 C28.9922847,22.51 29.44,22.0622847 29.44,21.51 C29.44,20.9577153 28.9922847,20.51 28.44,20.51 C26.6462049,20.575063 24.8682533,20.8708281 23.15,21.39 C23.32,18.23 23.36,17.56 23.37,17.47 C23.47,16.79 23.66,16.32 23.91,16.18 C24.2993373,16.0779345 24.713311,16.1355308 25.06,16.34 C26.640528,17.0907283 28.1218362,18.0346005 29.47,19.15 C29.6795867,19.3374209 29.9583914,19.4279509 30.238103,19.3994089 C30.5178145,19.3708669 30.7725879,19.2258902 30.94,19 C31.1112242,18.7971775 31.1947874,18.5346022 31.1722787,18.2701252 C31.14977,18.0056482 31.0230364,17.7609706 30.82,17.59 C29.3225772,16.3487342 27.6683895,15.3098236 25.9,14.5 Z"/>
      <circle id="Oval" cx="41.05" cy="19.05" r="1" fill="#3D454C" fill-rule="nonzero"/>
    </g>
  </g>
</svg>
