<svg xmlns="http://www.w3.org/2000/svg" width="64" height="64" viewBox="0 0 64 64" style="background:#fff">
  <g id="Ebly" fill="none" fill-rule="evenodd" stroke="none" stroke-width="1">
    <rect width="64" height="64" fill="#FFF"/>
    <g transform="translate(2 12)">
      <rect id="Rectangle" width="60" height="60" x="0" y="0"/>
      <path id="Path" fill="#EBE53F" fill-rule="nonzero" d="M19.35 18.45L18.15 16.85C17.524626 16.146631 16.6712576 15.6863078 15.74 15.55 14.7015071 15.3540051 13.6280378 15.4759902 12.66 15.9 11.8447344 16.2213929 11.1950485 16.8602507 10.86 17.67 10.6195652 18.4463034 10.7848398 19.2914574 11.3 19.92L12.5 21.52C13.1336102 22.2128844 13.9829807 22.671051 14.91 22.82 15.951892 23.0130811 17.0276898 22.8912269 18 22.47 18.8209829 22.1485638 19.4748885 21.5054964 19.81 20.69 20.0395222 19.9133307 19.8670282 19.0733598 19.35 18.45L19.35 18.45zM36.33 18.11C36.1050032 16.5806012 35.4054295 15.1604665 34.33 14.05 33.6849586 13.3719225 32.8409238 12.916634 31.92 12.75 30.8815071 12.5540051 29.8080378 12.6759902 28.84 13.1 28.0247344 13.4213929 27.3750485 14.0602507 27.04 14.87 26.7693327 15.6444081 26.9375483 16.5046018 27.48 17.12 27.6791132 17.3192484 27.8629647 17.5331846 28.03 17.76 28.2046228 18.1103086 28.3388193 18.4793488 28.43 18.86 28.43 18.67 28.35 18.48 28.32 18.29 28.4164458 19.0947976 28.8487068 19.8212866 29.51 20.29 30.3545331 20.8447083 31.3501639 21.1241836 32.36 21.09 33.368139 21.093834 34.3516793 20.7788211 35.17 20.19 35.75 19.72 36.48 18.92 36.33 18.11zM46.91 15.94C46.2139294 17.7944601 44.9684475 19.3923053 43.34 20.52 42.9040217 20.8042748 42.6411302 21.2895298 42.6411302 21.81 42.6411302 22.3304702 42.9040217 22.8157252 43.34 23.1 44.4412274 23.8028841 45.8597264 23.7632612 46.92 23 49.1100885 21.4570785 50.7886793 19.2944127 51.74 16.79 52.67 14.4 47.74 13.76 46.91 15.94zM25.53 27.07C25.1 25.96 23.48 25.56 22.43 25.85 20.09 26.49 18.05 28.43 18.22 31.03 18.3 32.23 19.67 32.86 20.75 32.81 21.83 32.76 23.3 32.19 23.22 30.94 23.2100124 30.7834925 23.2100124 30.6265075 23.22 30.47L23.22 30.4C23.22 30.25 23.32 30.11 23.37 29.96L23.42 29.85C23.42 29.85 23.42 29.85 23.42 29.85 23.42 29.85 23.57 29.65 23.64 29.55L23.64 29.55 23.72 29.47 23.78 29.42C23.95 29.35 24.21 29.27 23.83 29.37L23.83 29.37C24.81 29.07 26 28.25 25.53 27.07zM14.77 43.15C13.52 42.71 13.77 41.27 14.5 40.46 15.23 39.65 14.45 38.35 13.56 37.98 12.3852509 37.4953604 11.0336969 37.776769 10.15 38.69 7.65 41.28 9.15 45.22 12.3 46.35 13.4756519 46.8439825 14.834399 46.5570916 15.71 45.63 16.0066379 45.1932424 16.0718316 44.6393311 15.8847052 44.1456359 15.6975788 43.6519408 15.2816109 43.2804052 14.77 43.15L14.77 43.15zM32.56 43C30.843059 42.4859981 29.2890133 41.5349635 28.05 40.24 27.1402695 39.3508831 25.7775346 39.1125038 24.62 39.64 23.72 40.05 22.9 41.26 23.77 42.15 25.8299941 44.2709985 28.4302516 45.788968 31.29 46.54 32.4925452 46.8608926 33.7581993 46.3149242 34.35 45.22 34.78 44 33.54 43.27 32.56 43zM46.13 40.88C45.9581744 41.1543576 45.756989 41.4091925 45.53 41.64L45.05 42.02C45.15 41.95 44.81 42.14 44.77 42.16L44.5 42.28 44.23 42.36 43.63 42.45C42.63 42.58 41.51 43.64 41.93 44.73 42.35 45.82 43.93 46.09 45.02 45.95 47.2225668 45.6652802 49.2039752 44.4677256 50.48 42.65 52.09 40.29 47.42 39 46.13 40.88zM40.57 28.32C39.6607149 27.428976 38.2947476 27.1940137 37.14 27.73 36.21 28.15 35.45 29.33 36.29 30.24 36.6985866 30.6144101 36.8710189 31.1815207 36.74 31.72 36.74 31.81 36.52 32.17 36.52 32.19 36.35 32.31 36.28 32.36 36.3 32.36L36.22 32.36C35.22 32.58 34.07 33.49 34.51 34.64 34.95 35.79 36.51 36.09 37.61 35.86 39.3153472 35.5529619 40.7636172 34.4331654 41.49 32.86 42.0692451 31.2946632 41.7129347 29.5363489 40.57 28.32L40.57 28.32z" opacity=".5"/>
      <circle id="Oval" cx="38.53" cy="30.85" r="1" fill="#3D454C" fill-rule="nonzero"/>
      <circle id="Oval" cx="29.26" cy="16.92" r="1" fill="#3D454C" fill-rule="nonzero"/>
      <circle id="Oval" cx="21.73" cy="29.05" r="1" fill="#3D454C" fill-rule="nonzero"/>
      <path id="Shape" fill="#3D454C" fill-rule="nonzero" d="M16.32 38.48C14.2673044 36.9576246 11.4356296 37.0529811 9.49 38.71 9.37208404 38.7735321 9.26964677 38.8623111 9.19 38.97 7.58366819 41.0672355 7.70569952 44.0128193 9.48 45.97 10.4386659 47.0081814 11.8024446 47.5766274 13.2146646 47.5266713 14.6268845 47.4767153 15.9470881 46.8133256 16.83 45.71 17.7974484 44.7191239 18.2951758 43.3619445 18.1977319 41.9805334 18.1002879 40.5991224 17.4169679 39.3252533 16.32 38.48L16.32 38.48zM15.45 44.23C14.97734 44.9586721 14.1982006 45.4320409 13.3337002 45.515765 12.4691998 45.5994892 11.6137037 45.2844297 11.01 44.66 9.90294451 43.4984716 9.73358997 41.7305754 10.6 40.38 13.15 37.67 18.06 40.94 15.45 44.23L15.45 44.23zM26.68 27.13C24.9104946 25.0141965 21.8735259 24.4819878 19.49 25.87 19.3693257 25.9426964 19.2667441 26.0418586 19.19 26.16 19.0506778 26.2063279 18.9263497 26.2892133 18.83 26.4 16.9520018 28.4210706 16.8082673 31.5029062 18.49 33.69 19.3440167 34.7611254 20.6001115 35.4349372 21.9648362 35.5540198 23.329561 35.6731024 24.6833746 35.2270251 25.71 34.32 26.8225899 33.5174259 27.5565501 32.2929675 27.7399647 30.9334306 27.9233792 29.5738937 27.5401352 28.1987137 26.68 27.13L26.68 27.13zM24.49 32.74C21.15 35.46 17.49 30.62 20.24 27.81 20.2767642 27.7623743 20.3101779 27.7122538 20.34 27.66L20.5 27.6C23.79 25.53 27.86 30 24.49 32.74zM33.38 40.54C31.29 38.82 27.58 37.38 24.98 38.63 22.6 39.77 21.98 43.17 24.43 44.56 26.43 46.49 30.17 48.1 32.87 46.69 35.57 45.28 35.56 42.33 33.38 40.54zM30.49 45.23C28.7650774 45.0711803 27.1409314 44.346994 25.87 43.17L25.82 43.12 25.74 43.05C25.74 43.05 25.74 43.05 25.74 43.05 25.74 43.05 25.65 42.95 25.58 42.92 24.12 42.17 25.11 40.76 26.16 40.36 26.9511636 40.116773 27.799558 40.1343018 28.58 40.41 29.9894841 40.7271807 31.300565 41.3827211 32.4 42.32 33.75 43.78 32.17 45.31 30.49 45.23L30.49 45.23zM42.48 30.56C42.18 27.21 38.42 26.18 35.62 27.01 32.98 27.52 31.94 30.26 32.09 32.72 32.2012701 34.0996372 32.9051019 35.3633064 34.0194897 36.1842324 35.1338776 37.0051584 36.5493951 37.3027309 37.9 37 40.7694 36.2235376 42.6883401 33.52529 42.48 30.56zM40.48 31.38C40.298967 33.1168439 39.059729 34.559301 37.37 35 33.62 35.71 32.84 29.56 36.16 28.91 38.07 28.37 40.69 28.91 40.47 31.38L40.48 31.38zM44.44 37.43C41.8506337 38.1509972 40.1956868 40.6783193 40.57 43.34 40.5456385 43.4520242 40.5456385 43.5679758 40.57 43.68L40.57 43.68C40.5997753 43.8905033 40.711117 44.0808617 40.88 44.21 42.26 46.21 44.32 47.44 46.88 46.81 49.4682046 46.0747901 51.0105173 43.4232498 50.37 40.81 49.5236362 38.3531793 46.985202 36.9063147 44.44 37.43L44.44 37.43zM45.83 45C44.4459565 45.0974503 43.1395192 44.3514785 42.52 43.11 42.2504717 41.303571 43.4862882 39.6171499 45.29 39.33 46.8598732 39.2171532 48.2637152 40.3023317 48.55 41.85 48.6132921 42.6298253 48.3609875 43.4024308 47.8496511 43.9946035 47.3383146 44.5867762 46.610724 44.9489759 45.83 45L45.83 45zM29.19 23.4C30.5071493 23.7311589 31.902343 23.5122594 33.0547859 22.793633 34.2072288 22.0750066 35.0177546 20.9184901 35.3 19.59 35.7764942 16.7046495 34.0783527 13.9027161 31.3 12.99 29.8932834 12.5786309 28.3765291 12.8131377 27.1597307 13.6301309 25.9429323 14.4471241 25.1517324 15.7622437 25 17.22 24.7656162 20.0100472 26.5113827 22.5849487 29.19 23.4L29.19 23.4zM31.71 15.4C33.2157729 16.4052394 33.7635007 18.3583773 33 20 32.1993694 21.4036302 30.4308382 21.9209255 29 21.17 27.553592 20.3887134 26.7324783 18.8020202 26.93 17.17 27.13 14.87 30.09 14.28 31.71 15.43L31.71 15.4zM46.9 24.51C49.53 23.63 51 20.37 50.9 17.74 50.9570134 16.632614 50.4523651 15.571006 49.5576045 14.9160573 48.6628438 14.2611086 47.4983578 14.1009404 46.46 14.49 46.2912915 14.5066112 46.1312554 14.5727131 46 14.68 45.8667963 14.7322427 45.749581 14.8184305 45.66 14.93 43.58 16.51 41.47 18.47 41.79 21.32 41.9010879 22.4960296 42.5541639 23.553016 43.5562047 24.1785562 44.5582454 24.8040963 45.794655 24.9266518 46.9 24.51zM44.05 19.45C44.7739666 18.1944596 45.8065967 17.1446191 47.05 16.4 49.35 15.33 48.96 18.81 48.54 19.97 48.06 21.33 46.97 22.97 45.31 22.72 43.65 22.47 43.52 20.68 44.05 19.45L44.05 19.45zM17.25 24C18.4647691 23.5020573 19.4307532 22.5401541 19.933834 21.3275039 20.4369149 20.1148537 20.4355349 18.7516292 19.93 17.54 19.4141326 16.2468578 18.3985207 15.2164289 17.1129854 14.6818872 15.8274501 14.1473454 14.3806577 14.1538756 13.1 14.7L13 14.75C12.9534277 14.7458035 12.9065723 14.7458035 12.86 14.75 10.4731071 16.1345858 9.49123716 19.0801956 10.57 21.62 11.1372669 22.8241215 12.1612383 23.752358 13.4150854 24.199088 14.6689325 24.6458179 16.0491522 24.5741644 17.25 24L17.25 24zM13.79 16.58C15.58 15.98 17.39 16.43 18.12 18.35 18.7089335 19.8327701 18.0077817 21.5146468 16.54 22.14 15.8377576 22.5374874 15.0049964 22.6353174 14.2297534 22.4114001 13.4545104 22.1874829 12.8021591 21.6607004 12.42 20.95 11.7069717 19.3504058 12.293752 17.470139 13.79 16.56L13.79 16.58z"/>
    </g>
  </g>
</svg>
