<svg xmlns="http://www.w3.org/2000/svg" width="64" height="64" viewBox="0 0 64 64" style="background:#fff">
  <g id="Edamame" fill="none" fill-rule="evenodd" stroke="none" stroke-width="1">
    <rect width="64" height="64" fill="#FFF"/>
    <g transform="translate(2 6)">
      <rect id="Rectangle" width="60" height="60" x="0" y="0"/>
      <path id="Path" fill="#31E085" fill-rule="nonzero" d="M48.93,45.92 C47.2328219,45.5238666 45.5627408,45.0195021 43.93,44.41 C48.78,44.11 53.09,38.82 47.02,36.29 C36.02,31.69 24.02,26.59 19.24,14.78 C18.4916515,13.2421998 17.0092313,12.1935667 15.31,12 C12.25,8.61 3.13,10.59 4.61,16 C9.92,35.51 26.37,50 45.89,54.42 C52.5,55.91 56.61,47.65 48.93,45.92 Z" opacity=".5"/>
      <path id="Shape" fill="#3D454C" fill-rule="nonzero" d="M45.15,35.64 C44.5977153,35.711797 44.208203,36.2177153 44.28,36.77 C44.351797,37.3222847 44.8577153,37.711797 45.41,37.64 C45.4997317,37.6498276 45.5902683,37.6498276 45.68,37.64 C51.1393196,36.1166287 54.9190113,31.1478664 54.9301669,25.48 C54.935506,25.1783229 54.8045053,24.8902879 54.5735095,24.6961737 C54.3425136,24.5020596 54.0362213,24.4226216 53.74,24.48 C53.51,24.48 30.64,28.67 13.5,12.22 L14.79,10.98 C15.64,10.16 16.54,9.29 17.48,8.36 C17.7336586,8.10634143 17.8327235,7.73662601 17.739878,7.39012196 C17.6470326,7.04361791 17.3763821,6.77296744 17.029878,6.68012196 C16.683374,6.58727648 16.3136586,6.68634143 16.06,6.94 C15.14,7.87 14.25,8.72 13.4,9.54 C8.49,14.26 4.93,17.68 4.93,24.68 C4.93316556,27.3660917 6.06974529,29.9261195 8.06,31.73 C8.4973037,37.6985983 13.0665411,42.5393169 19,43.32 C20.9498491,48.0574507 25.5570264,51.1578285 30.68,51.18 L31.11,51.18 C34.0715123,53.2909512 37.8002231,54.0204787 41.3389315,53.1813048 C44.8776399,52.3421308 47.8817231,50.0159797 49.58,46.8 C49.7215439,46.5346684 49.7361655,46.2197253 49.6198139,45.9424207 C49.5034623,45.6651162 49.2684928,45.4548966 48.98,45.37 C48.92,45.37 47.67,44.97 45.69,44.21 C45.9701269,42.0579831 44.9023993,39.9542819 43,38.91 L42.06,38.4 C40.8514118,37.7621621 39.442313,37.6187424 38.13,38 C38.1909777,36.2722216 37.4533361,34.6125278 36.13,33.5 L35.35,32.84 C33.8460122,31.6078468 31.8162887,31.2305747 29.97,31.84 C30.2504271,29.9014879 29.6277344,27.9412954 28.28,26.52 L27.5,25.7 C26.13628,24.251694 24.1805579,23.5136857 22.2,23.7 C22.273526,23.4073204 22.3269836,23.1099623 22.36,22.81 C22.4046683,22.2019858 22.3506364,21.5907497 22.2,21 C35.34,28.06 48.78,27.11 52.87,26.6 C52.3717104,30.9016734 49.3206304,34.4744406 45.15,35.64 Z M19.06,25.16 L18.28,25.82 C16.6020814,23.6382906 15.2729297,21.2093839 14.34,18.62 C15.8503162,17.7304434 17.7792893,18.0365631 18.94,19.35 L19.48,19.97 C20.1207751,20.7103548 20.4372235,21.6771151 20.3582448,22.6530661 C20.2792661,23.629017 19.8114836,24.5323135 19.06,25.16 L19.06,25.16 Z M38.45,51.5000069 C37.0178175,51.5016308 35.5998544,51.215998 34.28,50.66 C34.49,50.59 34.7,50.54 34.91,50.46 C35.268433,50.3578267 35.5403011,50.0647964 35.6153706,49.6997236 C35.6904401,49.3346508 35.5562523,48.9581237 35.267216,48.722812 C34.9781796,48.4875003 34.582264,48.4324569 34.24,48.58 C33.106067,48.9794852 31.9122424,49.1824016 30.71,49.18 C26.7353434,49.1611981 23.0992848,46.9387344 21.27,43.41 C21.9044335,43.3817477 22.5360398,43.3082274 23.16,43.19 C23.5172656,43.1185469 23.8092728,42.8619226 23.9260254,42.5167949 C24.042778,42.1716673 23.9665384,41.7904694 23.7260254,41.5167949 C23.4855124,41.2431204 23.1172656,41.1185469 22.76,41.19 C17.1293024,42.3296794 11.6131058,38.7851353 10.31,33.19 C11.0736778,33.5616841 11.8844842,33.8274672 12.72,33.98 L12.9,33.98 C13.4522847,34.0297056 13.9402943,33.6222847 13.9899999,33.07 C14.0397056,32.5177153 13.6322847,32.0297057 13.08,31.98 C9.51523062,31.3235969 6.92798795,28.2146988 6.92999883,24.59 C6.92999883,20.12 8.59,17.31 11.31,14.37 C12.45,23.37 18.92,31.81 30.19,38.8 C35.5505931,42.0737686 41.2506275,44.7561377 47.19,46.8 C45.2339901,49.7165093 41.9616146,51.4762535 38.45,51.5000069 L38.45,51.5000069 Z M37.52,40.5 C38.5424639,39.6882604 39.9497799,39.5624668 41.1,40.18 L42.04,40.69 C43.0586153,41.2372048 43.7097853,42.284408 43.75,43.44 C41.94,42.7 39.75,41.74 37.44,40.57 L37.44,40.57 L37.52,40.5 Z M34.1,34.35 L34.88,35.01 C36.2171019,36.1620903 36.5447527,38.1027914 35.66,39.63 C33.1743793,38.3193163 30.7700196,36.8600035 28.46,35.26 L29.16,34.56 C30.5073774,33.2294269 32.6445619,33.1385749 34.1,34.35 L34.1,34.35 Z M21.1,26.06 C22.8103329,25.3014881 24.8129665,25.7020148 26.1,27.06 L26.88,27.88 C28.4576137,29.5599367 28.4837028,32.1688502 26.94,33.88 C26.8942398,33.9395066 26.8540694,34.0031097 26.82,34.07 C24.1540342,32.1115376 21.7125623,29.8645785 19.54,27.37 L20.35,26.69 C20.5706173,26.5010806 20.7746926,26.2936598 20.96,26.07 L21.1,26.06 Z M13.8,16.68 C13.65,16.06 13.53,15.43 13.43,14.8 C13.98,15.29 14.55,15.8 15.11,16.23 C14.6432611,16.3241166 14.1898611,16.4752499 13.76,16.68 L13.8,16.68 Z"/>
    </g>
  </g>
</svg>
