<svg xmlns="http://www.w3.org/2000/svg" width="64" height="64" viewBox="0 0 64 64" style="background:#fff">
  <g id="Eglifilet" fill="none" fill-rule="evenodd" stroke="none" stroke-width="1">
    <rect width="64" height="64" fill="#FFF"/>
    <g transform="translate(2 9)">
      <rect id="Rectangle" width="60" height="60" x="0" y="0"/>
      <path id="Path" fill="#E0A075" fill-rule="nonzero" d="M50,18.52 C51.16,15.62 50,12.85 47,11.23 C44.1536456,9.73747264 40.8039002,9.53721612 37.8,10.68 C35.21,7.8 29.09,7 25.41,8.46 C17.7426534,11.5151125 10.926217,16.3761546 5.54,22.63 C2.63,25.94 5.54,30.18 8.92,31.56 C10.1538816,32.0645607 11.4676808,32.3456054 12.8,32.39 C13.4645346,33.3961755 14.381842,34.2100271 15.46,34.75 C18.267106,36.2343543 21.5745665,36.44903 24.55,35.34 C25.235416,36.3276784 26.1566138,37.1285705 27.23,37.67 C27.38,41.49 32.48,44.48 36.36,44.07 C41.1264189,43.6699996 45.7967441,42.5015741 50.19,40.61 C53.83,39 55.86,35.01 53.27,31.61 L52.97,31.27 C53.74,30.6 54.52,29.95 55.33,29.27 C61.5,24.44 55.93,19.46 50,18.52 Z" opacity=".5"/>
      <path id="Shape" fill="#3D454C" fill-rule="nonzero" d="M55.51,28 C55.5093446,27.8585051 55.4786689,27.7187602 55.42,27.59 C55.42,27.22 55.42,26.85 55.42,26.46 C55.1997301,21.8895147 53.074279,17.6204774 49.56,14.69 C44.56,10.48 36.83,8.42 28.76,9.2 C20.49,10 9.12,15.2 5.38,21.81 C4.41697709,23.3918665 4.01206997,25.2509184 4.23,27.09 C4.68,33.63 4.7,33.79 4.72,33.85 C5.18,36.47 6.42,39.14 12.16,39.14 C15.16,39.14 17.8,39.14 23.32,44.52 C28.84,49.9 32.91,52.15 38,52.15 C38.67,52.15 39.36,52.15 40.07,52.04 C42.218335,51.7594861 44.3119608,51.1560094 46.28,50.25 C51.8509194,47.8489936 55.4706401,42.3762272 55.5,36.31 L55.51,28 Z M28.93,11.21 C29.93,11.11 30.99,11.07 32,11.07 C38.35,11.07 44.38,12.95 48.24,16.24 C51.3406212,18.8181324 53.213418,22.5818732 53.4,26.61 C53.86,33.55 49,38.82 44.07,41 C39.14,43.18 34.23,42.36 31.14,39 C24.45,31.81 17.84,31.24 13.02,30.82 C9.44,30.5 7.53,30.25 6.63,28.33 C6.43234881,27.9069769 6.29114013,27.4598161 6.21,27 C6.21,26.71 6.21,26.43 6.21,26.17 C6.20566466,26.146868 6.20566466,26.123132 6.21,26.1 C6.24002801,24.9237536 6.58538897,23.7771552 7.21,22.78 C10.48,16.89 21.32,12 28.93,11.21 Z M45.52,48.41 C43.7426906,49.2345493 41.8515829,49.7873865 39.91,50.05 C35.04,50.52 31.35,49.58 24.7,43.1 C19,37.57 16,37.16 12.14,37.16 C7.31,37.16 6.94,35.06 6.67,33.57 C6.67,33.44 6.59,32.49 6.5,31.24 C8.12,32.4 10.36,32.6 12.85,32.82 C17.6,33.23 23.51,33.75 29.67,40.38 C31.9847106,42.8427519 35.2306531,44.2151974 38.61,44.16 C40.7669104,44.1417433 42.8972726,43.6823201 44.87,42.81 C48.5364939,41.2033537 51.5750407,38.4388031 53.52,34.94 L53.52,36.31 C53.4965352,41.5752561 50.3554158,46.3261991 45.52,48.41 Z"/>
      <path id="Path" fill="#3D454C" fill-rule="nonzero" d="M11.69 27.5C11.8187602 27.5586689 11.9585051 27.5893446 12.1 27.59 12.4892681 27.5852823 12.8404169 27.3550848 13 27L16.11 20.15C16.2582652 19.8248883 16.2218229 19.4453742 16.0144005 19.1544169 15.8069782 18.8634596 15.4600881 18.7052625 15.1044005 18.7394169 14.748713 18.7735713 14.4382652 18.9948883 14.29 19.32L11.2 26.17C11.087989 26.4112624 11.0767148 26.6872096 11.1686711 26.9368054 11.2606274 27.1864011 11.448236 27.3890758 11.69 27.5zM18.33 27.93C18.4717181 28.0157598 18.6343552 28.0607445 18.8 28.0600091 19.1685937 28.0590165 19.5067616 27.8553472 19.68 27.53L25.44 16.94C25.7161424 16.4567508 25.5482491 15.8411424 25.065 15.565 24.5817508 15.2888576 23.9661424 15.4567509 23.69 15.94L17.92 26.58C17.66182 27.0661466 17.8450722 27.669538 18.33 27.93zM24.71 29.54C24.8872636 29.6869009 25.1097853 29.768139 25.34 29.7700058 25.6425884 29.7710289 25.9293699 29.6349915 26.12 29.4L34.32 19.33C34.4877705 19.1234066 34.5662689 18.8584591 34.5381156 18.5938175 34.5099622 18.3291759 34.3774797 18.0866732 34.17 17.92 33.7412485 17.5773176 33.1164209 17.6442634 32.77 18.07L24.57 28.14C24.224961 28.5661303 24.2874112 29.1906324 24.71 29.54zM30.68 33.34C30.8708345 33.5457808 31.139358 33.6618991 31.42 33.6600229 31.6678358 33.659353 31.9066017 33.5666976 32.09 33.4L46.58 20.16C46.8701471 19.9261334 47.0061794 19.5503285 46.9329521 19.1849292 46.8597248 18.8195298 46.5893877 18.5251627 46.2315301 18.4211585 45.8736726 18.3171543 45.4876699 18.4207693 45.23 18.69L30.74 31.92C30.542537 32.0996397 30.4250961 32.3507741 30.4138266 32.6174856 30.4025571 32.8841972 30.4983946 33.1443433 30.68 33.34zM35.56 37.25C35.7435955 37.5361601 36.0600079 37.7094336 36.4 37.7100856 36.590618 37.7124934 36.7779771 37.6604492 36.94 37.56L49.24 29.77C49.5418894 29.5788629 49.7188763 29.2411889 49.7042915 28.8841764 49.6897066 28.527164 49.4857658 28.2050518 49.1692915 28.0391764 48.8528172 27.873301 48.4718894 27.8888629 48.17 28.08L35.87 35.87C35.6458657 36.0118682 35.4872806 36.2369754 35.4291421 36.4957855 35.3710036 36.7545957 35.4180757 37.0259012 35.56 37.25z"/>
      <circle id="Oval" cx="36.08" cy="15.51" r="1" fill="#3D454C" fill-rule="nonzero"/>
    </g>
  </g>
</svg>
