<svg xmlns="http://www.w3.org/2000/svg" width="64" height="64" viewBox="0 0 64 64" style="background:#fff">
  <g id="Eichblattsalat" fill="none" fill-rule="evenodd" stroke="none" stroke-width="1">
    <rect width="64" height="64" fill="#FFF"/>
    <g transform="translate(2 4)">
      <rect id="Rectangle" width="60" height="60" x="0" y="0"/>
      <path id="Path" fill="#31E085" fill-rule="nonzero" d="M55.45,36.69 C54.35,33.35 50.25,33.05 47.55,33.39 C46.3460294,33.5608277 45.1239706,33.5608277 43.92,33.39 C42.5459916,32.2078877 40.8112829,31.5274024 39,31.46 C32.5,27.25 29.44,17.33 31.56,9.46 C33.41,2.63 20.86,1 19.23,7.07 C18.7035566,9.05335492 18.3686879,11.082659 18.23,13.13 C12.58,17.68 6.61,22.85 4.66,30.43 C2.93,37.15 5,43.91 10.3,48.05 C20.55,56 33.54,51.81 41.46,42.74 C44.6523909,43.227136 47.8973246,43.2641632 51.1,42.85 C53.79,42.51 56.43,39.64 55.45,36.69 Z" opacity=".5"/>
      <path id="Path" fill="#3D454C" fill-rule="nonzero" d="M53.82,37.44 C53.1240171,36.9615812 52.2357586,36.8603872 51.45,37.17 L50.45,37.55 C42.7702493,40.3639619 34.1797409,37.241942 30.0986829,30.1537887 C26.0176248,23.0656353 27.6306436,14.0688574 33.92,8.84 C34.4460031,8.40727345 34.6789486,7.71231931 34.52,7.05 C34.3667047,6.38955811 33.843743,5.87830456 33.18,5.74 L27.82,4.55 L27.82,4.55 C27.6753987,4.51519036 27.5246013,4.51519036 27.38,4.55 C26.9188324,4.65881183 26.5973369,5.0763385 26.61,5.55 C26.6051011,5.6132386 26.6051011,5.6767614 26.61,5.74 C26.5712672,6.12012943 26.4942089,6.49537012 26.38,6.86 L23.74,6.86 C21.90479,6.85999172 20.4155111,8.34479823 20.41,10.18 L20.41,18.7 C20.5212198,22.5267379 21.3382566,26.3000241 22.82,29.83 C22.9795531,30.1955887 23.3411135,30.431389 23.74,30.43 C23.8743113,30.432446 24.0074983,30.4051256 24.13,30.35 C24.3822866,30.2449683 24.5805984,30.0412643 24.6788256,29.7862513 C24.7770528,29.5312384 24.766637,29.2471356 24.65,29 C23.2922996,25.7181076 22.5336449,22.2194901 22.41,18.67 L22.41,10.17 C22.4154936,9.43936952 23.0093489,8.84997935 23.74,8.85 L25.5,8.85 C25.0264967,9.63564782 24.4552734,10.3580773 23.8,11 C23.5463414,11.2536586 23.4472765,11.623374 23.5401219,11.9698781 C23.6329674,12.3163821 23.9036179,12.5870326 24.2501219,12.6798781 C24.596626,12.7727235 24.9663414,12.6736586 25.22,12.42 C26.8223207,10.8717434 27.9556739,8.90310558 28.49,6.74 L32.3,7.58 C26.6699967,12.4673349 24.4578401,20.218561 26.660257,27.3412249 C28.8626739,34.4638887 35.0639541,39.6135748 42.47,40.47 C45.4181619,40.823396 48.4081153,40.4809042 51.2,39.47 L52.2,39.08 C52.3694757,39.0145397 52.5603438,39.0369948 52.71,39.14 C52.869666,39.2551396 52.9600332,39.4434047 52.95,39.64 L52.95,40.58 C52.4022458,40.4191418 51.8107052,40.5261314 51.3539969,40.8686626 C50.8972887,41.2111938 50.6289474,41.7491156 50.63,42.32 L50.63,43.7 L49.31,44.58 L47.87,43.58 C47.4041609,43.2693937 46.8207993,43.1918583 46.29,43.37 L45.23,43.73 C44.7357076,43.8881141 44.3343676,44.2529686 44.13,44.73 C43.9152362,45.2104243 43.9152362,45.7595757 44.13,46.24 L44.44,46.85 C44.6624726,47.2615785 44.5105114,47.7755646 44.1,48 C43.722258,48.2023687 43.2531679,48.0957573 43,47.75 L42.75,47.37 C42.3598578,46.7822747 41.7642792,46.3614466 41.08,46.19 L39.43,45.78 C38.5007031,45.5517516 37.5543031,46.0862923 37.27,47 L36.4,50 C35.7578269,49.5265643 34.8821731,49.5265643 34.24,50 L32.73,51 L32.57,51 C31.9595066,51.0080072 31.4244278,50.5932174 31.28,50 L30.88,48.21 C30.7049043,47.3956682 29.9829318,46.8155862 29.15,46.82 L29.15,46.82 C28.3217865,46.8097174 27.5997907,47.3814713 27.42,48.19 L27.14,49.42 C26.6298541,49.0654132 25.9746496,48.9938679 25.4,49.23 C24.7220867,49.5113193 24.2828778,50.1760679 24.29,50.91 L24.29,51.26 C24.2541635,51.9536982 23.6941735,52.5050063 23,52.53 L22,52.53 L21.76,52 C21.4548856,51.3850072 20.8265148,50.997124 20.14,51 L17.77,51 L17.77,50.4 C17.7612095,49.7462514 17.400538,49.1480574 16.826484,48.8351254 C16.2524299,48.5221935 15.5542323,48.54317 15,48.89 L14.19,49.43 L12.46,49.43 C12.2282083,49.4289077 12.0229697,49.2800091 11.95,49.06 C11.8612899,48.8034073 11.9768834,48.5208454 12.22,48.4 L14.05,47.49 C14.1468007,47.4392519 14.2403182,47.3824734 14.33,47.32 L17.04,45.32 C17.4998479,44.9800661 17.770811,44.4418518 17.77,43.87 L17.77,43.27 C17.7704712,42.6423447 17.4457403,42.0592493 16.9118931,41.7291606 C16.3780459,41.3990718 15.7112978,41.3691153 15.15,41.65 L11.82,43.32 L8.92,43.9 L8.67,43.14 L10,42.21 C10.4981465,41.8729115 10.7975791,41.3114755 10.8,40.71 L10.8,40.59 L12.44,40.59 C13.0793901,40.5945634 13.6732086,40.2595889 14,39.71 L15.9,36.56 C16.1707835,36.1040168 16.2292112,35.5526052 16.06,35.05 L15.77,34.19 C15.5907074,33.6161533 15.136755,33.1697042 14.56,33 C13.9889042,32.8390346 13.3752556,32.9617643 12.91,33.33 L10.2,35.54 L9.45,35.67 C8.82448659,35.7746731 8.18457765,35.5991552 7.7,35.19 C7.1951854,34.7549676 6.91249988,34.1161717 6.93,33.45 C6.90569653,32.4996872 7.55367994,31.6635796 8.48,31.45 L8.84,31.36 C9.44353251,31.2109809 9.92745224,30.7610868 10.12,30.17 L10.49,29.05 C10.6466214,28.5932118 10.6142192,28.092777 10.4,27.66 C10.1815323,27.2317608 9.80494288,26.9053833 9.35,26.75 L8.48,26.47 C8.55200234,25.5641585 9.22562546,24.8207086 10.12,24.66 L12.18,24.32 C14.11,24.01 17.77,22.43 17.77,18.67 C17.77,18.1177153 17.3222847,17.67 16.77,17.67 C16.2177153,17.67 15.77,18.1177153 15.77,18.67 C15.77,21.67 12.02,22.32 11.86,22.34 L9.79,22.69 C7.88730969,23.0231528 6.49451521,24.6684176 6.48,26.6 C6.48218984,27.3797701 6.98088167,28.0715039 7.72,28.32 L8.54,28.59 L8.25,29.44 L8,29.53 C6.17635337,29.9931956 4.909901,31.6486889 4.94,33.53 C4.93775454,34.7552547 5.47576819,35.9191881 6.41052731,36.7113242 C7.34528644,37.5034603 8.58171532,37.8432297 9.79,37.64 L10.55,37.52 C10.8516112,37.4664258 11.1341551,37.3354909 11.37,37.14 L14,35.08 L14.18,35.6 L12.38,38.6 L10.61,38.6 C9.61649932,38.605399 8.81090308,39.4065445 8.8,40.4 L8.8,40.61 L7.44,41.51 C6.7612919,41.9638411 6.47044904,42.8158878 6.73,43.59 L7.08,44.65 C7.36953753,45.5140562 8.25630119,46.028122 9.15,45.85 L12.21,45.24 C12.3707225,45.210919 12.5259228,45.1569363 12.67,45.08 L15.77,43.53 L15.77,43.74 L13.16,45.74 L11.32,46.66 C10.2678468,47.1882111 9.71656629,48.3702043 9.98807221,49.5157687 C10.2595781,50.6613332 11.2827008,51.470183 12.46,51.47 L14.2,51.47 C14.5555643,51.470393 14.903369,51.3660515 15.2,51.17 L15.76,50.79 L15.76,51.21 C15.7709876,52.2057256 16.5842293,53.0055622 17.58,53 L20,53 L20.28,53.55 C20.5887092,54.1617047 21.2148134,54.5481888 21.9,54.55 L22.9,54.55 C24.7252256,54.544666 26.2081487,53.0751025 26.23,51.25 C26.6387292,51.5130399 27.1364635,51.5996023 27.61,51.49 C28.2782172,51.3407309 28.8114294,50.8382071 29,50.18 L29.14,49.56 L29.32,50.38 C29.6466289,51.9125062 31.0030841,53.0060178 32.57,53 L32.78,53 C33.1348892,52.9958759 33.4814462,52.8919088 33.78,52.7 L35.21,51.7 C35.6651738,52.1477255 36.3225637,52.3225228 36.94,52.16 C37.5630722,52.0048612 38.0553187,51.5278782 38.23,50.91 L39.13,47.74 L40.6,48.11 C40.8027102,48.1640868 40.9797962,48.288047 41.1,48.46 L41.35,48.84 C42.173874,50.1061759 43.8447639,50.5058288 45.1523971,49.7494788 C46.4600303,48.9931289 46.946745,47.3454929 46.26,46 L46.05,45.58 L46.82,45.32 L48.28,46.32 C48.8861355,46.7217668 49.6738645,46.7217668 50.28,46.32 L51.79,45.32 C52.2976262,44.9857074 52.6022609,44.4178082 52.6,43.81 L52.6,42.53 C53.1477542,42.6908582 53.7392948,42.5838686 54.1960031,42.2413374 C54.6527113,41.8988062 54.9210526,41.3608844 54.9200031,40.79 L54.9200031,39.54 C54.9207829,38.7017497 54.5095412,37.916652 53.82,37.44 Z"/>
      <path id="Path" fill="#3D454C" fill-rule="nonzero" d="M39.54,35.12 L41.14,34.59 C41.3005117,34.5332096 41.4784063,34.5554464 41.62,34.65 L42.26,35.07 C43.2667817,35.7463051 44.6112429,35.6164662 45.47,34.76 L46.47,33.76 C46.5712598,33.6523527 46.7122142,33.5909111 46.86,33.59 L48.2,33.59 C48.4371272,33.5913239 48.6467087,33.7444796 48.72,33.97 L49.14,35.23 C49.2793947,35.6593385 49.6891389,35.942062 50.14,35.92 C50.2483837,35.9172813 50.3559531,35.9004736 50.46,35.87 C50.9346006,35.6595158 51.1691843,35.1208421 51,34.63 L50.58,33.37 C50.2350248,32.3259064 49.2596086,31.6205434 48.16,31.62 L46.83,31.62 C46.154111,31.6205543 45.5063154,31.8904691 45.03,32.37 L44.03,33.37 C43.8440451,33.5590174 43.5497018,33.5884517 43.33,33.44 L42.73,33 C42.0770043,32.5599831 41.2563648,32.4490859 40.51,32.7 L38.9,33.24 C38.5390002,33.3355756 38.2613328,33.6243343 38.1799625,33.9887988 C38.0985923,34.3532634 38.2270787,34.7326999 38.513149,34.9727401 C38.7992193,35.2127804 39.195203,35.2734244 39.54,35.13 L39.54,35.12 Z"/>
      <circle id="Oval" cx="25.86" cy="32.72" r="1" fill="#3D454C" fill-rule="nonzero"/>
    </g>
  </g>
</svg>
