<svg xmlns="http://www.w3.org/2000/svg" width="64" height="64" viewBox="0 0 64 64" style="background:#fff">
  <g id="Eier-(Bodenhaltung)" fill="none" fill-rule="evenodd" stroke="none" stroke-width="1">
    <rect width="64" height="64" fill="#FFF"/>
    <g id="27-1-Eggs-ground" transform="translate(2 12)">
      <g id="Layer_2">
        <rect id="Rectangle" width="60" height="60" x="0" y="0"/>
        <rect id="Rectangle" width="60" height="60" x="0" y="0"/>
      </g>
      <g id="Layer_1" transform="translate(3 19)">
        <path id="Path" fill="#B3B3B3" fill-opacity=".5" d="M4.53,19 C2.64720872,18.1632099 1.68972705,16.0488259 2.30282888,14.0817908 C2.91593071,12.1147558 4.90519479,10.9188379 6.93,11.3 C20.6402496,14.0200035 34.6854748,14.6303722 48.58,13.11 C50.0215667,12.9313672 51.4489287,13.5353703 52.3244126,14.6944873 C53.1998964,15.8536042 53.3904954,17.3917376 52.8244126,18.7294873 C52.2583298,20.0672371 51.0215667,21.0013672 49.58,21.18 C47.95,21.37 46.32,21.53 44.7,21.66 C45.135541,22.4101736 45.5133007,23.192437 45.83,24 C46.3658984,25.3486776 46.1415781,26.8808055 45.2415382,28.019246 C44.3414983,29.1576864 42.9024764,29.7294832 41.4665381,29.519246 C40.0305998,29.3090088 38.8158984,28.3486776 38.28,27 C37.5315642,25.0020178 36.218237,23.2648125 34.5,22 C33.0466667,22 31.5966667,21.98 30.15,21.94 C30.5165681,22.4726197 30.8505138,23.0269696 31.15,23.6 C31.8002234,24.8968741 31.7091805,26.4421253 30.9111663,27.6536723 C30.1131521,28.8652193 28.7294039,29.5589994 27.2811663,29.4736723 C25.8329286,29.3883452 24.5402233,28.5368741 23.89,27.24 C22.75,24.97 20.18,22.74 18.17,21.24 L18,21.12 L14.81,20.74 C15.22,21.61 15.59,22.45 15.92,23.24 C16.4844797,24.5761733 16.2932404,26.1119947 15.4183202,27.268935 C14.5434,28.4258754 13.11772,29.028168 11.6783201,28.8489351 C10.2389203,28.6697021 9.00447962,27.7361733 8.44,26.4 C7.44189404,23.7837568 6.12889597,21.2987988 4.53,19 Z"/>
        <path id="Shape" fill="#3C454E" d="M51.93,15.12 C51.6279293,14.5687998 51.1329267,14.1485818 50.54,13.94 L50.3,13.86 C50.238664,11.4947915 49.4610746,9.20386652 48.07,7.29 C47.2337363,6.1554458 46.1125732,5.26196502 44.82,4.7 C43.8853856,4.24243621 42.8092464,4.16710647 41.82,4.49 C41.3632411,4.67441078 40.9301679,4.91276893 40.53,5.2 C39.27,2.12 37.46,1.07 35.83,1.07 C34.4420102,1.13117335 33.1402335,1.76036539 32.23,2.81 C31.6591978,3.42638296 31.2172235,4.15054086 30.93,4.94 C30.5625273,4.68209525 30.1665879,4.46734846 29.75,4.3 C28.8519422,3.8949325 27.8412484,3.81365293 26.89,4.07 C26.6617835,4.15118975 26.4381237,4.24465951 26.22,4.35 C25.8528523,3.79396892 25.4450728,3.26586104 25,2.77 C24.6015391,2.30970051 24.1481583,1.89997865 23.65,1.55 C22.0499003,0.35533093 19.8250446,0.473092668 18.36,1.83 C17.4105841,2.6207132 16.6286279,3.5930587 16.06,4.69 C15.5597391,4.29107259 15.0122926,3.95521581 14.43,3.69 C13.5328525,3.29635432 12.5303444,3.21193258 11.58,3.45 C9.15,4.16 7.8,6.82 7.32,7.67 C6.53264415,9.39575468 6.02302237,11.2351181 5.81,13.12 C5.06,13.12 4.43,13.21 3.94,13.28 C2.85552205,13.4793104 1.89292023,14.0970996 1.26,15 C0.937907628,15.439924 0.772440403,15.975052 0.79,16.52 C0.828832972,17.135796 1.1268,17.7062938 1.61,18.09 C2.34164146,18.6467281 3.20117042,19.0111684 4.11,19.15 L4.37,19.2 C5.06250886,21.6785051 5.90404011,24.1129348 6.89,26.49 C7.18089603,27.163236 7.55370987,27.7980272 8,28.38 C8.28343746,28.7435623 8.66012954,29.0234895 9.09,29.19 C11.09,29.82 11.47,30.09 14.63,29.47 C15.1828431,29.3450147 15.6704398,29.0211366 16,28.56 C16.4493304,27.9100737 16.8186622,27.2083434 17.1,26.47 C17.434335,25.6038656 17.8600751,24.7758513 18.37,24 C18.6574752,23.4771752 19.2034184,23.1488457 19.8,23.14 C20.7134748,23.2011631 21.5458533,23.6857924 22.05,24.45 C22.4670216,25.0315616 22.8286036,25.6509383 23.13,26.3 C23.570092,27.4718227 24.3117482,28.5066918 25.28,29.3 C26.96,30.3 29.91,29.9 31.12,29.37 C32.33,28.84 32.76,27.67 33.12,26.3 C33.2527867,25.7021077 33.4265299,25.114054 33.64,24.54 C33.78897,23.9581402 34.3094307,23.5483287 34.91,23.54 C35.58,23.54 36.09,24.1 36.57,24.73 C37.57,26.06 38.3,27.89 38.84,28.61 C39.84,29.98 42.61,30.89 45.38,28.86 C46.5964429,27.8928568 47.4293842,26.5247064 47.73,25 C48.23,23 48.24,20.66 48.73,18.75 C49.4991337,18.5672492 50.2570638,18.3402041 51,18.07 C51.4035705,17.8903618 51.724832,17.5655308 51.9,17.16 C52.2322357,16.5230556 52.2433625,15.7664385 51.93,15.12 Z M42.48,6.18 C43.0276579,6.03282028 43.6108769,6.10080287 44.11,6.37 C45.0809513,6.79808341 45.9273736,7.46558716 46.57,8.31 C47.6589808,9.80949555 48.3098598,11.582102 48.45,13.43 C47.8725088,13.3594816 47.2917044,13.3194261 46.71,13.31 C44.82,13.31 42.82,13.55 41.14,13.54 L38.41,13.54 C38.6450938,11.9492084 39.1064285,10.4002015 39.78,8.94 C40.3050746,7.71599084 41.2678251,6.7318459 42.48,6.18 L42.48,6.18 Z M35.83,2.89 C37.03,2.89 38.15,3.89 39.03,6.31 C39.0596713,6.39059211 39.1037179,6.4651325 39.16,6.53 C38.7703926,7.01528736 38.4350632,7.54175455 38.16,8.1 C37.377581,9.81236311 36.8422391,11.6271386 36.57,13.49 L34.99,13.49 C34.9043203,11.0994526 34.1716247,8.77694573 32.87,6.77 C32.75,6.6 32.6,6.44 32.46,6.27 C32.5837229,5.44053414 32.9650239,4.67093582 33.55,4.07 C34.1181085,3.3832243 34.9412424,2.95721644 35.83,2.89 L35.83,2.89 Z M27.44,5.8 C27.9879771,5.67261787 28.5630212,5.73611966 29.07,5.98 C29.9818103,6.35748599 30.7735084,6.97632421 31.36,7.77 C32.457486,9.46139997 33.0824289,11.4156414 33.17,13.43 L23.08,13.23 C23.2307491,11.8417315 23.6162325,10.4891583 24.22,9.23 C24.6,8.52 25.39,6.45 27.44,5.8 Z M19.52,3.26 C20.3758681,2.44365732 21.6927523,2.35530407 22.65,3.05 C23.0193788,3.31501569 23.3551747,3.62394793 23.65,3.97 C24.0286974,4.41094073 24.3793849,4.87518419 24.7,5.36 C23.8434849,6.21215483 23.1368994,7.20272677 22.61,8.29 C21.879596,9.8361906 21.4067011,11.4913228 21.21,13.19 L19.65,13.19 C19.5448945,10.7180198 18.8229744,8.31161949 17.55,6.19 C17.5154594,6.13891776 17.4751986,6.09194683 17.43,6.05 C17.8988416,4.96932247 18.6146895,4.01371694 19.52,3.26 L19.52,3.26 Z M8.94,8.61 C9.26588071,7.96790802 9.6473363,7.35557142 10.08,6.78 C10.584643,6.06411228 11.3018918,5.52530092 12.13,5.24 C12.6889689,5.11511134 13.2737066,5.18203915 13.79,5.43 C14.7006845,5.79974136 15.4926797,6.41189483 16.08,7.2 C17.1553691,8.99871009 17.7670218,11.036407 17.86,13.13 C13.92,13.07 10.37,13.05 7.71,13.13 C7.86323781,11.5649467 8.27905727,10.0368947 8.94,8.61 Z M50.24,16.41 C46.14,17.77 43.52,17.41 40.33,17.25 C39.8274209,17.2334315 39.4065686,17.6274209 39.39,18.13 C39.3734315,18.6325791 39.7674209,19.0534314 40.27,19.07 C42.4431534,19.2448965 44.6268466,19.2448965 46.8,19.07 C46.53,20.49 46.41,22.07 46.16,23.54 C45.91,25.01 45.49,26.54 44.3,27.4 C42.61,28.64 40.93,28.4 40.3,27.53 C39.67,26.66 39,25 38,23.62 C37.3230993,22.508945 36.148135,21.7965064 34.85,21.71 C32.76,21.71 32,23.22 31.53,24.97 C31.3918473,25.5970555 31.2148392,26.2149142 31,26.82 C30.9017132,27.1717851 30.6679706,27.4702565 30.35,27.65 C29.5407496,27.9467699 28.681332,28.0826462 27.82,28.05 C27.244607,28.0544943 26.6761366,27.9243625 26.16,27.67 C25.8029487,27.3942932 25.5209676,27.0332198 25.34,26.62 C25,26 24.67,25.26 24.28,24.56 C23.35,22.87 22.08,21.38 19.86,21.28 C18.8357317,21.2257635 17.8472185,21.6642768 17.2,22.46 C16.6198523,23.1680858 16.1511266,23.9605358 15.81,24.81 C15.48,25.57 15.19,26.35 14.81,26.96 C14.7188206,27.1414644 14.6081696,27.3124705 14.48,27.47 C14.4,27.57 14.33,27.66 14.23,27.68 C11.59,28.2 11.23,27.97 9.6,27.45 C9.46,27.4 9.36,27.23 9.22,27.04 C8.93184389,26.6140185 8.68410145,26.1620559 8.48,25.69 C7.60792361,23.6399804 6.86970793,21.5355647 6.27,19.39 C8.0113768,19.4604919 9.75554458,19.4103721 11.49,19.24 C19.33,18.55 26.36,19.3 32.64,18.79 C32.8836251,18.769792 33.1088741,18.6524123 33.2650044,18.4643036 C33.4211346,18.2761949 33.4950142,18.0331786 33.47,17.79 C33.4525081,17.5452884 33.3358744,17.3183236 33.1470929,17.161635 C32.9583115,17.0049464 32.7137462,16.9321161 32.47,16.96 C26.19,17.47 19.15,16.72 11.31,17.41 C9.31721651,17.63353 7.30685512,17.6536336 5.31,17.47 C5.2098815,17.4382748 5.10489235,17.4247278 5,17.43 C4.59462971,17.3702995 4.19372732,17.2834373 3.8,17.17 C3.17,16.97 2.8,16.77 2.65,16.48 C2.5,16.19 2.75,16.02 2.95,15.81 C3.29703484,15.4469016 3.75381993,15.2079678 4.25,15.13 C9.17,14.48 28.8,15.29 41.16,15.36 C42.57,15.36 44.16,15.19 45.81,15.14 C47.1884922,15.0207904 48.5768122,15.1841222 49.89,15.62 C50.0441776,15.6753513 50.1841929,15.7641414 50.3,15.88 C50.4,16 50.3,16.3 50.24,16.41 Z"/>
        <path id="Path" fill="#3C454E" d="M35.83,17.4 C35.5772791,17.3836277 35.3286432,17.4699213 35.1404034,17.6393371 C34.9521636,17.8087529 34.8402468,18.0469567 34.83,18.3 C34.8048099,18.5530754 34.8866752,18.8051446 35.055758,18.9951253 C35.2248409,19.1851061 35.465711,19.295661 35.72,19.3 C36.0705623,19.3474174 36.4176706,19.1918409 36.6155507,18.8986077 C36.8134308,18.6053744 36.8278133,18.2252673 36.6526578,17.9179192 C36.4775024,17.610571 36.1431431,17.4292093 35.79,17.45 L35.83,17.4 Z"/>
      </g>
    </g>
  </g>
</svg>
