<svg xmlns="http://www.w3.org/2000/svg" width="64" height="64" viewBox="0 0 64 64" style="background:#fff">
  <g id="Eier-(Freilandhaltung)" fill="none" fill-rule="evenodd" stroke="none" stroke-width="1">
    <rect width="64" height="64" fill="#FFF"/>
    <g id="27-2-Eggs-freerange" transform="translate(2 9)">
      <g id="Layer_2">
        <rect id="Rectangle" width="60" height="60" x="0" y="0"/>
      </g>
      <g id="Layer_1" transform="translate(7 10)">
        <g id="Group" opacity=".5">
          <path id="Path" fill="#3CDE88" d="M4.42,9.08 C3.77159522,8.81990527 3.04242283,8.85271803 2.42,9.17 C1.81138781,9.48472526 1.36712055,10.0455216 1.2,10.71 C0.723281087,13.3718064 0.552172003,16.079356 0.69,18.78 C0.850058482,20.3828564 1.45247868,21.90968 2.43,23.19 C2.80611684,23.63565 3.31372447,23.9507168 3.88,24.09 C4.41777801,24.2220348 4.98500091,24.1582223 5.48,23.91 C6.06495183,23.6422596 6.51103689,23.1417739 6.71,22.53 C6.94,21.83 7.14,20.9 7.41,19.98 C7.54374327,19.4097871 7.7846889,18.8702046 8.12,18.39 C8.69513771,17.9089565 9.32639676,17.4993097 10,17.17 C10.5693847,16.7994246 11.0534294,16.3119712 11.42,15.74 C11.7592875,15.1757543 11.8935062,14.5117252 11.8,13.86 C11.6611236,12.9580445 11.1494338,12.1560342 10.39,11.65 C10.13,11.44 4.42,9.08 4.42,9.08 Z"/>
          <path id="Path" fill="#3CDE88" d="M15.56,0.86 C14.9195351,0.34563654 14.0504098,0.219287927 13.29,0.53 C12.5019253,0.890456207 11.9308242,1.60247831 11.75,2.45 C11.75,2.45 10.81,6.33 10.65,6.87 C10.2,8.41 9.12,10.95 8.85,12.25 C8.6422158,13.1146407 8.70504966,14.0222409 9.03,14.85 C9.5077713,16.0343082 10.8013245,16.6681493 12.03,16.32 C14.531445,15.328847 16.9351559,14.1069049 19.21,12.67 C19.780891,12.2628141 20.1968658,11.6741039 20.39,11 C20.8663736,9.09919229 20.5639829,7.08685431 19.55,5.41 C18.5108593,3.64661596 17.1547489,2.0904793 15.55,0.82 L15.56,0.86 Z"/>
          <path id="Shape" fill="#BF7957" d="M43.2,22.5 C43.6113144,22.5029349 44.0196182,22.5704231 44.41,22.7 C44.9519111,22.8738555 45.4475704,23.1678327 45.86,23.56 L45.86,23.56 C46.2711361,23.9509605 46.5889926,24.4294541 46.79,24.96 C46.935499,25.347951 47.0198382,25.7561529 47.0400207,26.17 L47.0400207,26.33 C47.0413435,26.7441375 46.9772189,27.1558846 46.85,27.55 C46.2464968,29.4183279 45.3956071,31.197461 44.32,32.84 C38.23,42.01 26.32,43.7 16.56,41.11 C12.86,40.11 8.61,38.26 5.78,35.4 C3.38911502,33.1134374 2.03777927,29.9482767 2.04,26.64 L2.04,26.5 C2.02356484,26.1470334 2.0572329,25.7935187 2.14,25.45 C2.37510812,24.4522389 2.99743985,23.5889737 3.86975427,23.0505775 C4.7420687,22.5121813 5.79271595,22.3428767 6.79,22.58 C16.19,24.8 32.47,26.28 41.79,22.73 C42.1729364,22.5792456 42.5787204,22.4947073 42.99,22.48 L43.16,22.48 L43.2,22.5 Z M13.44,31.63 C15.0507248,32.5201253 16.772407,33.1926575 18.56,33.63 C23.73,35 29.83,35.01 34.29,32.13 C27.3411353,32.7119893 20.3494227,32.5309089 13.44,31.59 L13.44,31.63 Z"/>
        </g>
        <path id="Shape" fill="#3C454E" d="M44.91,26.2 C44.6209872,25.2587655 43.8635355,24.5353992 42.91,24.29 C42.6571022,24.2689908 42.4028978,24.2689908 42.15,24.29 C42.0815969,22.0107359 41.3135095,19.8077215 39.95,17.98 C39.1202099,16.8991584 38.0246416,16.0516433 36.77,15.52 C35.9099863,15.0979772 34.9270724,14.9986212 34,15.24 C32.83,12.59 31.21,11.58 29.73,11.47 L29.66,11.47 C29.2016223,10.1063673 28.3403683,8.91386174 27.19,8.05 C25.8660793,7.01092908 24.0592315,6.83531751 22.56,7.6 C21.7921446,8.02051318 21.1316781,8.61253759 20.63,9.33 C20.1490446,7.2676359 19.2468216,5.32700527 17.98,3.63 C16.8686192,2.02780969 15.2744648,0.822558851 13.43,0.19 C12.9421543,0.0706828846 12.4414884,0.331713827 12.26,0.8 C11.82,1.66 10.26,6.25 9.43,8.2 C9.23159963,8.66215718 9.44109736,9.19798191 9.90035394,9.40300717 C10.3596105,9.60803243 10.8983922,9.40626103 11.11,8.95 C11.66,7.7 12.66,5.04 13.3,3.3 C13.6390074,4.33076479 13.7748497,5.41750307 13.7,6.5 C13.6767777,6.82868435 13.8306705,7.14479016 14.1037083,7.32924341 C14.3767462,7.51369666 14.7274482,7.53847452 15.0237084,7.39424341 C15.3199685,7.2500123 15.5167778,6.95868435 15.54,6.63 C15.6147564,5.51659567 15.5066591,4.39846387 15.22,3.32 C15.6929792,3.75606271 16.124802,4.23475006 16.51,4.75 C18.0252846,6.63820423 18.8976953,8.96112912 19,11.38 C17.653441,10.9634525 16.1870371,11.2863653 15.14,12.23 C14.0638396,13.13438 13.2144853,14.2782685 12.66,15.57 L12.61,15.57 C11.34,12.12 8.86,10.12 5.37,8.94 C4.50364908,8.62213668 3.60488181,8.40079847 2.69,8.28 C2.14948303,8.19184475 1.59646183,8.32919642 1.16,8.66 C1.02939043,8.77931797 0.93277105,8.93114842 0.88,9.1 C0.818503276,9.34504866 0.791575867,9.59749312 0.8,9.85 C0.8,10.97 1.07,13.66 0.96,14.99 C0.79,16.99 0.48,18.92 1.37,21.08 C1.95070856,22.420333 2.79395524,23.6308 3.85,24.64 C3.56059696,24.6835164 3.30478107,24.851624 3.15,25.1 C1.8427679,27.5652724 1.6182131,30.4627537 2.53,33.1 C4.04,36.94 9.08,41.19 23.53,41.94 C25.6405434,41.9838476 27.7479283,41.7552955 29.8,41.26 C32.3032158,40.7162175 34.7239945,39.8454096 37,38.67 C39.2855189,37.5804098 41.3527807,36.0824922 43.1,34.25 C44.306141,32.9784742 45.0886871,31.3644728 45.34,29.63 C45.4483521,28.4689922 45.301593,27.2983325 44.91,26.2 Z M36.06,17.09 C37.010801,17.4909459 37.8436935,18.1276613 38.48,18.94 C39.6504197,20.5134607 40.3069385,22.4096823 40.36,24.37 C40.36,24.37 40.36,24.37 40.36,24.37 C39.92,24.44 39.49,24.49 39.11,24.52 C36.76,24.66 34.41,24.66 32.11,24.71 L31.2,24.71 C31.3210335,22.9899462 31.6363741,21.2891195 32.14,19.64 C32.4753678,18.4074946 33.3343363,17.3840427 34.49,16.84 C35.0263397,16.7304412 35.5842151,16.8192748 36.06,17.09 L36.06,17.09 Z M8.3,20.47 C8.6150426,19.8611132 8.97960348,19.2791536 9.39,18.73 C9.87239691,18.0524308 10.5540146,17.5420914 11.34,17.27 C11.871727,17.1470726 12.4295484,17.2106218 12.92,17.45 C13.7858658,17.7966482 14.537514,18.3785694 15.09,19.13 C16.1719005,20.9703231 16.7672789,23.0558683 16.82,25.19 C13.58,25.19 10.35,25.02 7.12,24.83 C7.27474874,23.3223774 7.67326761,21.8498839 8.3,20.47 L8.3,20.47 Z M23.12,17.3 C23.6872736,17.1789717 24.2781965,17.2384136 24.81,17.47 C25.7213366,17.8289712 26.5216702,18.422322 27.13,19.19 C28.2857633,20.8607737 28.9350509,22.8294692 29,24.86 L21.29,25.14 L18.62,25.14 C18.7917181,23.5252856 19.2310571,21.9504242 19.92,20.48 C20.26,19.88 21.06,17.92 23.12,17.3 Z M32.45,16.09 C31.5356084,16.9006458 30.8465994,17.9341594 30.45,19.09 C30.2645551,19.6602508 30.1142727,20.2413425 30,20.83 C29.6639236,19.8743013 29.1924525,18.9717709 28.6,18.15 C28.003581,17.3800334 27.2589226,16.737383 26.41,16.26 C26.41,16.26 26.41,16.26 26.41,16.21 C26.4750513,15.4083012 26.8306626,14.6579613 27.41,14.1 C27.9600023,13.5040629 28.7392322,13.1727082 29.55,13.19 C30.63,13.27 31.64,14.14 32.45,16.09 Z M23.35,9.24 C24.2395446,8.8040864 25.3013567,8.92510175 26.07,9.55 C26.8401403,10.1285879 27.4325742,10.9115707 27.78,11.81 C26.2168318,12.5021418 25.0947698,13.9196801 24.78,15.6 C24.1990306,15.4475573 23.5923022,15.4202886 23,15.52 C23,15.52 23,15.46 23,15.42 C22.5653541,14.594024 22.0350425,13.8220514 21.42,13.12 C21.2368817,12.9135458 21.043294,12.7166204 20.84,12.53 C21.42,11.29 22.13,9.86 23.35,9.24 L23.35,9.24 Z M16.17,13.59 C16.9849176,12.7976308 18.2526389,12.7088904 19.17,13.38 C19.5383741,13.6309385 19.8742623,13.9265201 20.17,14.26 C20.6789163,14.82359 21.1156146,15.4484045 21.47,16.12 L21.47,16.12 C20.155511,16.9792875 19.0981213,18.1783537 18.41,19.59 C18.1806532,19.9855123 17.9865707,20.4004473 17.83,20.83 C17.5415496,19.8805359 17.1171469,18.9778382 16.57,18.15 C15.9658716,17.3204381 15.1833203,16.6369872 14.28,16.15 C14.7081987,15.1646617 15.3544271,14.2893471 16.17,13.59 L16.17,13.59 Z M10.63,15.71 C9.196896,16.3328566 8.01635762,17.4217711 7.28,18.8 C6.83,17.46 6.63,16.03 6.06,14.72 C5.39,13.19 4.41,11.82 3.64,10.34 C4.11,10.47 4.54,10.61 4.74,10.68 C7.35585285,11.3931822 9.51612889,13.238036 10.63,15.71 L10.63,15.71 Z M3,20.38 C2.24,18.52 2.58,16.89 2.73,15.14 C2.78,14.53 2.73,13.5 2.73,12.5 C3.32860723,13.4655022 3.86632087,14.4674531 4.34,15.5 C5.05,17.14 5.18,18.98 5.95,20.58 C6.00871569,20.7095577 6.10217085,20.8203193 6.22,20.9 C5.91484781,21.854029 5.6841559,22.8302904 5.53,23.82 C4.44882359,22.8688678 3.58581702,21.6954518 3,20.38 L3,20.38 Z M43.47,29.38 C43.2806172,30.740296 42.6684309,32.0066472 41.72,33 C40.1302365,34.6571717 38.2532213,36.0124174 36.18,37 C34.0268372,38.0993014 31.7366334,38.9064216 29.37,39.4 C27.4760122,39.8649199 25.5299296,40.083392 23.58,40.05 C16.84,39.7 12.28,38.6 9.22,37.12 C6.37,35.75 4.9,34.12 4.22,32.4 C3.5494881,30.4927657 3.64265456,28.4001037 4.48,26.56 C10.08,26.94 15.68,27.21 21.3,27.03 C24.9,26.91 28.49,26.73 32.09,26.65 C34.47,26.59 36.84,26.65 39.21,26.45 C40.303996,26.2411925 41.4163696,26.1440274 42.53,26.16 C42.86,26.21 43,26.56 43.14,26.91 C43.4342609,27.7087981 43.5569249,28.5606311 43.5,29.41 L43.47,29.38 Z"/>
        <path id="Path" fill="#3C454E" d="M13.94 29.53C13.9453624 29.2859844 13.8535404 29.0498386 13.6847454 28.8735416 13.5159505 28.6972446 13.2840181 28.5952471 13.04 28.59 11.49 28.59 9.94 28.59 8.38 28.59 7.87189803 28.59 7.46 29.001898 7.46 29.51 7.46 30.018102 7.87189803 30.43 8.38 30.43 9.93 30.43 11.48 30.43 13.04 30.43 13.2786948 30.43 13.5076134 30.3351788 13.6763961 30.1663961 13.8451788 29.9976134 13.94 29.7686948 13.94 29.53zM14.93 32.41C13.74 32.41 12.55 32.48 11.37 32.53 10.8177153 32.5520914 10.3879086 33.0177153 10.41 33.57 10.4320914 34.1222847 10.8977153 34.5520914 11.45 34.53 12.6 34.48 13.76 34.4 14.91 34.41 15.4622847 34.41 15.91 33.9622847 15.91 33.41 15.9101089 32.8654324 15.4744587 32.4208913 14.93 32.41zM34.43 28.25C33.51 28.25 32.58 28.34 31.67 28.47 31.1850807 28.5422527 30.8420143 28.9820814 30.89 29.47 30.9574386 29.957711 31.4005458 30.3033346 31.89 30.25 32.75 30.13 33.61 30.09 34.48 30.05 34.7287046 30.034667 34.9608539 29.920172 35.1244049 29.7321823 35.287956 29.5441926 35.3692274 29.2984339 35.35 29.05 35.2936933 28.5869543 34.8963785 28.2414632 34.43 28.25L34.43 28.25zM15.54 9.85C15.5399784 9.46890012 15.3098577 9.12552632 14.9573745 8.98063761 14.6048913 8.8357489 14.1998082 8.91802121 13.9317747 9.18893671 13.6637413 9.45985221 13.585806 9.86579213 13.7344562 10.2167056 13.8831064 10.567619 14.2289217 10.7940543 14.61 10.79 15.1252382 10.7845184 15.5400292 10.3652674 15.54 9.85z"/>
      </g>
    </g>
  </g>
</svg>
