<svg xmlns="http://www.w3.org/2000/svg" width="64" height="64" viewBox="0 0 64 64" style="background:#fff">
  <g id="Eigelb" fill="none" fill-rule="evenodd" stroke="none" stroke-width="1">
    <rect width="64" height="64" fill="#FFF"/>
    <g transform="translate(2 4)">
      <rect id="Rectangle" width="60" height="60" x="0" y="0"/>
      <path id="Path" fill="#EBE53F" fill-rule="nonzero" d="M37.72,42.34 C35.88,38.84 31.53,37.42 27.72,38.29 C25.18,38.88 22.61,40.42 21.94,42.95 C20.459396,44.8879242 20.5344162,47.5969856 22.12,49.45 C24.28,52.09 28.32,52.85 31.51,52.17 C34.262785,51.6724322 36.6015609,49.8670613 37.78,47.33 C38.4762844,45.7349799 38.4544348,43.9178171 37.72,42.34 Z" opacity=".5"/>
      <path id="Path" fill="#3D454C" fill-rule="nonzero" d="M38.06,35 C37.8164559,35.1090754 37.6266101,35.3109678 37.5327055,35.560754 C37.438801,35.8105401 37.448628,36.0874975 37.56,36.33 C38.7859637,38.8532603 39.4673863,41.6062076 39.56,44.41 C39.61,50.27 35.31,55 30,55 C24.69,55 20.4,50.27 20.4,44.45 C20.4,36.77 27.63,27.58 30,24.78 C30.81,25.78 32.19,27.45 33.64,29.57 C33.9520409,30.0283963 34.5766037,30.1470409 35.035,29.835 C35.4933963,29.5229591 35.6120409,28.8983963 35.3,28.44 C33.902902,26.3914201 32.3764653,24.4341075 30.73,22.58 C30.5406844,22.3747888 30.2741989,22.2580671 29.995,22.2580671 C29.7158011,22.2580671 29.4493156,22.3747888 29.26,22.58 C28.82,23.07 18.4,34.58 18.4,44.45 C18.42,51.37 23.62,57 30,57 C36.38,57 41.59,51.37 41.59,44.45 C41.4818265,41.356183 40.7219351,38.3200248 39.36,35.54 C39.1481994,35.033831 38.5680961,34.7928651 38.06,35 Z"/>
      <path id="Shape" fill="#3D454C" fill-rule="nonzero" d="M30 38.6299926C27.2568396 38.625954 24.7815382 40.2752803 23.7289714 42.8084697 22.6764047 45.3416592 23.2540018 48.2594967 25.1922792 50.2006372 27.1305566 52.1417776 30.0475384 52.7236808 32.5822787 51.6748543 35.117019 50.6260277 36.77 48.1531634 36.77 45.41 36.7645106 41.6716866 33.7383012 38.6410072 30 38.6299926L30 38.6299926zM30 50.1900105C28.0657656 50.1940465 26.3197374 49.032006 25.5767324 47.2461665 24.8337274 45.4603271 25.2402119 43.4027258 26.6064922 42.0335811 27.9727725 40.6644365 30.029518 40.2536438 31.8169096 40.9929072 33.6043012 41.7321706 34.77 43.4757614 34.77 45.41 34.7645245 48.0437504 32.6337332 50.1790088 30 50.1900105L30 50.1900105zM13.08 25.05L18.92 25.12 18.92 25.12C19.2123118 25.1200192 19.4899973 24.9921378 19.68 24.77 19.8744278 24.5404997 19.9552251 24.2356734 19.9 23.94L18.83 18.2 24.67 18.27C24.9717105 18.2885587 25.2632876 18.1577228 25.45 17.92 25.6444278 17.6904997 25.7252251 17.3856734 25.67 17.09L24.58 11.35 28.7 11.4 28.7 11.4C29.0928994 11.3991802 29.4489117 11.168359 29.61 10.81 29.7743583 10.4434904 29.7034677 10.0142081 29.43 9.72 28.7625518 8.98752426 28.0512429 8.29625224 27.3 7.65 20.17 1.65 10.46 1.44 5.67 7.15 3.27963148 10.1328672 2.41460758 14.0587448 3.33 17.77 4.2862738 21.9380655 6.60527747 25.6681776 9.92 28.37 10.6862987 29.0057674 11.491167 29.5935551 12.33 30.13 12.4909536 30.2339672 12.6783884 30.2895034 12.87 30.29 13.070491 30.2874987 13.2656002 30.224785 13.43 30.11 13.7543109 29.8881344 13.9186292 29.4969004 13.85 29.11L13.08 25.05zM11.88 23.05C11.5825678 23.049517 11.3003565 23.1814599 11.11 23.41 10.9155722 23.6395003 10.8347749 23.9443266 10.89 24.24L11.42 27 11.21 26.83C8.23997951 24.4181598 6.15718402 21.0863906 5.29 17.36 4.50666536 14.2513968 5.2124471 10.9552853 7.2 8.44 9.22280203 6.16124325 12.1545812 4.90057821 15.2 5 19.1780124 5.09675421 22.9975758 6.57860335 26 9.19L26.22 9.37 23.37 9.37C23.0747194 9.39055727 22.7972159 9.51863581 22.59 9.73 22.3955722 9.95950035 22.3147749 10.2643266 22.37 10.56L23.46 16.3 17.62 16.22C17.3240025 16.2377323 17.0455313 16.3662575 16.84 16.58 16.6491164 16.8111972 16.5720376 17.1158417 16.63 17.41L17.72 23.15 11.88 23.05zM54.92 8.32C50.49 3.05 40.35 4.52 33.49 8.92 33.2608761 9.06764532 33.1019504 9.30242186 33.05 9.57L32.05 14.83C32.0007095 15.114647 32.0769238 15.4067024 32.2590192 15.6309673 32.4411146 15.8552322 32.7112973 15.989792 33 16L33 16 38.85 15.92 37.8 21.68C37.7426216 21.9762213 37.8220596 22.2825136 38.0161737 22.5135095 38.2102879 22.7445053 38.4983229 22.875506 38.8 22.87L38.8 22.87 44.64 22.79 43.55 28.53C43.4947749 28.8256734 43.5755722 29.1304997 43.77 29.36 43.9603565 29.5885401 44.2425678 29.720483 44.54 29.7200013L44.54 29.7200013 49.89 29.65C50.1651892 29.6437815 50.4256464 29.5244053 50.61 29.32 56.13 23.33 59.35 13.6 54.92 8.32zM49.43 27.65L45.74 27.7 46.83 22C46.8852251 21.7043266 46.8044278 21.3995003 46.61 21.17 46.4218882 20.9441345 46.1439305 20.8124704 45.85 20.81L45.85 20.81 40 20.85 41.09 15.11C41.1452251 14.8143266 41.0644278 14.5095003 40.87 14.28 40.6818882 14.0541345 40.4039305 13.9224704 40.11 13.92L40.11 13.92 34.24 14 34.93 10.37C41.09 6.6 49.85 5.37 53.39 9.61 56.93 13.85 54.22 22.24 49.43 27.65z"/>
      <circle id="Oval" cx="36.53" cy="32.45" r="1" fill="#3D454C" fill-rule="nonzero"/>
    </g>
  </g>
</svg>
