<svg xmlns="http://www.w3.org/2000/svg" width="64" height="64" viewBox="0 0 64 64" style="background:#fff">
  <g id="Eisbergsalat" fill="none" fill-rule="evenodd" stroke="none" stroke-width="1">
    <rect width="64" height="64" fill="#FFF"/>
    <g transform="translate(2 8)">
      <rect id="Rectangle" width="60" height="60" x="0" y="0"/>
      <path id="Path" fill="#31E085" fill-rule="nonzero" d="M50.78,18.46 C44.78,9.38 32.05,5.83 22.12,10.14 L21.5,10.42 C17.64,6.82 7.24,8.15 6.59,14.49 C5.37,26.31 6,39.05 15.69,47.32 C24.22,54.58 37.09,55.32 45.93,48.15 C54.61,41.08 57,27.87 50.78,18.46 Z" opacity=".5"/>
      <path id="Shape" fill="#3D454C" fill-rule="nonzero" d="M52.71,25.27 L52.71,25.27 C50.3025616,17.2087395 43.5324028,11.2097664 35.24,9.79 C34.3857385,9.10475906 33.4483137,8.53020839 32.45,8.08 C32.192085,7.96575558 31.897915,7.96575558 31.64,8.08 C31.64,8.08 30.64,8.6 29.77,9.08 C29.2178331,9.38197539 28.6199091,9.59141766 28,9.7 C24.9960163,10.1611109 22.119424,11.2368543 19.55,12.86 C17.3895974,12.5118397 15.1807401,12.6105406 13.06,13.15 C11.6260732,13.4619848 10.1667128,13.6427313 8.7,13.69 C8.27896992,13.6901791 7.9031502,13.9540526 7.76,14.35 C7.60176479,14.7339414 7.69728523,15.1757235 8,15.46 C8,15.46 10.36,17.46 10.36,22.23 C10.3551766,23.4305383 10.1869659,24.6248339 9.86,25.78 C8.05426722,32.3478234 9.34643643,39.3807073 13.3688691,44.8777074 C17.3913019,50.3747074 23.7036608,53.7340649 30.51,54 L30.67,54 L30.76,54 L31.38,54 C43.6757838,53.9835042 53.6424667,44.0257641 53.67,31.73 C53.6638993,29.5415863 53.3405356,27.3656184 52.71,25.27 Z M50.71,25.72 C50.3864796,30.1474898 47.5519269,33.9968822 43.42,35.62 C39.36,32.81 40.81,25.62 40.85,25.45 C41.52,19.39 39.93,15.27 37.85,12.52 C44.033543,14.5718985 48.8407752,19.4909268 50.75,25.72 L50.71,25.72 Z M28.23,11.72 C29.0847027,11.5844563 29.9099308,11.3037435 30.67,10.89 C31.15,10.64 31.67,10.35 32.07,10.17 C32.8038276,10.5475041 33.4945352,11.0035052 34.13,11.53 C36.75,13.67 39.69,17.79 38.87,25.17 C38.8,25.5 37.37,32.55 41.21,36.42 L41.03,36.42 C38.4115416,36.9885958 35.9669409,38.1748957 33.9,39.88 C33.3593036,36.2759557 33.3222826,32.6142397 33.79,29 C34.079252,26.9661097 33.5146493,24.9031383 32.23,23.3 C30.7003566,21.6366486 28.652431,20.5404268 26.42,20.19 C25.18,17.08 23.7,15.02 21.85,13.84 C23.8516221,12.7602122 26.0227537,12.029738 28.27,11.68 L28.23,11.72 Z M31.38,52.0002321 C31.16,52.0002321 30.95,52.0002321 30.73,52.0002321 C21.3,49.17 21,41 21,41 C21,40.4477153 20.5522847,40 20,40 C19.4477153,40 19,40.4477153 19,41 C19.3110781,44.7178128 21.057853,48.1683209 23.87,50.62 C14.232541,46.7851838 9.03614126,36.3018248 11.82,26.31 C12.1947609,24.9822712 12.3865311,23.6096005 12.39,22.23 C12.4526661,19.8886615 11.845537,17.5781019 10.64,15.57 C11.58,15.46 12.5,15.29 13.4,15.12 C15.57,14.72 17.61,14.34 19.4,14.89 C20.75,15.29 22.72,16.37 24.53,20.89 C22.8474076,22.932996 21.9031697,25.4838475 21.85,28.13 C21.8934934,30.4448668 22.7141378,32.6778649 24.18,34.47 C24.3688544,34.7218058 24.6652427,34.87 24.98,34.87 C25.1963702,34.87 25.4069038,34.7998221 25.58,34.67 C25.7921732,34.5108701 25.9324422,34.2739723 25.9699495,34.0114214 C26.0074568,33.7488704 25.9391299,33.4821732 25.78,33.27 C24.601974,31.8312439 23.9244871,30.048014 23.85,28.19 C23.9076663,25.9980962 24.6921039,23.8875017 26.08,22.19 C27.8448102,22.4627735 29.4676162,23.3181788 30.69,24.62 C31.6187222,25.8129903 32.0164452,27.3351845 31.79,28.83 C31.19,34.83 30.93,43.19 35.45,47.25 C37.0796207,48.6688159 39.1692937,49.4471125 41.33,49.44 C38.2887246,51.1349297 34.8616468,52.0166703 31.38,52.0002321 Z M44.63,47 C41.23,47.72 38.63,47.26 36.79,45.65 C35.7484609,44.6509764 34.9747544,43.4061688 34.54,42.03 C35.67,40.78 37.75,39.25 41.54,38.3 C45.9417564,37.3664721 49.6593832,34.4396724 51.6,30.38 C51.6,30.8 51.66,31.23 51.66,31.66 C51.6846743,37.5779275 49.1155164,43.2096092 44.63,47.07 L44.63,47 Z"/>
      <circle id="Oval" cx="19.99" cy="36.88" r="1" fill="#3D454C" fill-rule="nonzero"/>
    </g>
  </g>
</svg>
