<svg xmlns="http://www.w3.org/2000/svg" width="64" height="64" viewBox="0 0 64 64" style="background:#fff">
  <g id="Eiweiss" fill="none" fill-rule="evenodd" stroke="none" stroke-width="1">
    <rect width="64" height="64" fill="#FFF"/>
    <g id="32-Eiweiss" transform="translate(2 4)">
      <g id="Layer_2">
        <rect id="Rectangle" width="60" height="60" x="0" y="0"/>
      </g>
      <g id="Layer_1" transform="translate(10 4)">
        <path id="Path" fill="#B3B3B3" fill-opacity=".5" d="M17.73 3.43C21.73.51 30.13.95 33.88 3.12 37.4 5.12 40.17 8.02 41 12.12 41.3873508 14.1903447 41.1721597 16.3283723 40.38 18.28 39.8064211 19.8067669 38.8814725 21.1770613 37.68 22.28 35.448601 24.2885929 32.4431 25.2074489 29.47 24.79 26.1 24.42 22.37 22.56 19.26 20.23 16.61 18.23 13.45 15.98 12.38 13.94 11.1443505 11.8738765 11.3031739 9.26123137 12.78 7.36 13.05 6.98 16.29 4.45 17.73 3.36L17.73 3.43zM2 22.93C-.39 32.28 0 42.23 10.73 46.8 12.9955559 47.6727368 15.5454334 46.5953941 16.4988806 44.362604 17.4523277 42.1298139 16.46715 39.5429302 14.27 38.51 8.45 36.02 9.44 30.24 10.74 25.16 11.1383511 23.5987494 10.6735255 21.9435765 9.52061833 20.817969 8.36771119 19.6923615 6.7018766 19.2673259 5.15061833 19.702969 3.59936005 20.1386121 2.39835113 21.3687494 2 22.93z"/>
        <path id="Path" fill="#D3BA48" fill-opacity=".5" d="M14.31,29.31 C17.08,29.75 20.98,30.91 22.62,33.31 C23.3959601,34.4670365 24.9629634,34.77596 26.12,34 C27.2770365,33.2240399 27.58596,31.6570366 26.81,30.5 C24.46,27 19.07,25 15.09,24.32 C13.7092882,24.104609 12.4153911,25.0492882 12.2000001,26.43 C11.984609,27.8107119 12.9292882,29.1046089 14.31,29.32 L14.31,29.31 Z"/>
        <path id="Shape" fill="#3C454E" d="M26.39,35.81 C26.5905697,34.7583402 26.6209565,33.6812953 26.48,32.62 C26.0044243,29.4028887 23.750879,26.7311598 20.66,25.72 C18.0292401,24.6809792 15.0787682,24.8230389 12.56,26.11 C9.82,24.65 7.12,23.03 4.56,21.36 C4.56,21.36 4.56,21.36 4.56,21.36 L4.41,21.36 L4.2,21.3 C4.13370881,21.2899937 4.06629119,21.2899937 4,21.3 C3.93373255,21.2896822 3.86626745,21.2896822 3.8,21.3 L3.61,21.38 L3.43,21.48 C3.37511009,21.5248585 3.32485851,21.5751101 3.28,21.63 C3.28,21.63 3.2,21.7 3.17,21.74 C3.14,21.78 3.17,21.74 3.17,21.74 L3.17,21.79 C1.04228747,25.7706543 0.183842546,30.3071518 0.71,34.79 C1.79,41.72 8.06,46.9 14.98,45.79 C14.831694,47.2436028 14.974473,48.7121865 15.4,50.11 C15.7790169,51.2524065 16.5952534,52.1980902 17.67,52.74 C18.1937233,53.0297709 18.8040283,53.1220264 19.39,53 C20.0814318,52.7648175 20.6571949,52.2748824 21,51.63 C21.4105198,50.9027486 21.745596,50.1354242 22,49.34 C22.1417706,48.8266629 22.3466682,48.3328933 22.61,47.87 C23.0656509,47.3368831 23.6188865,46.8956523 24.24,46.57 C25.0616992,46.122936 25.8103248,45.5530364 26.46,44.88 C27.4697625,43.6178779 27.937324,42.0065891 27.76,40.4 C27.6007935,38.7965206 27.1357378,37.2384145 26.39,35.81 L26.39,35.81 Z M19.9,27.73 C22.2378637,28.4610891 23.961127,30.4515551 24.35,32.87 C21.92,30.37 18.51,29.01 15.42,27.53 C15.3,27.47 15.18,27.4 15.06,27.35 C16.6747053,26.985219 18.3620082,27.1176932 19.9,27.73 Z M2.65,34.48 C2.2134174,30.8261794 2.82014432,27.1234117 4.4,23.8 C6.87,25.36 9.4,26.87 12.01,28.23 L12.09,28.28 C12.89,28.7 13.69,29.11 14.5,29.5 L15.23,29.84 C15.39,34.48 15.23,38.99 14.94,43.59 C9,44.84 3.58,40.4 2.65,34.48 Z M24.79,43.48 C24.2863127,43.9859974 23.7099722,44.4140397 23.08,44.75 C22.2288384,45.2110208 21.4749706,45.8324524 20.86,46.58 C20.2931878,47.6827754 19.808538,48.8258803 19.41,50 C19.3011854,50.249667 19.1671567,50.487568 19.01,50.71 C18.9467931,50.8121735 18.8568956,50.8951559 18.75,50.95 C18.6438249,50.9580871 18.5380504,50.9298806 18.45,50.87 C17.7072123,50.4526018 17.2008681,49.7134131 17.08,48.87 C16.9046131,47.825694 16.8776802,46.7618429 17,45.71 C17.35,40.71 17.57,35.83 17.45,30.84 C19.85,31.97 22.19,33.25 23.74,35.43 C24.7964116,36.942936 25.4440061,38.703153 25.62,40.54 C25.7431945,41.5912145 25.4447359,42.6484053 24.79,43.48 Z"/>
        <path id="Path" fill="#3C454E" d="M31.37,2.31 C27.62,0.09 23.71,0.83 20.56,1.85 C15.44,3.51 13.09,6.17 9.94,10.45 C9.60310633,10.9083963 9.70160369,11.5531063 10.16,11.89 C10.6183964,12.2268937 11.2631063,12.1283963 11.6,11.67 C14.46,7.79 16.54,5.31 21.19,3.81 C23.85,2.95 27.19,2.2 30.32,4.08 C33.45,5.96 34.56,9.34 34.58,12.53 C34.548382,15.3825343 33.9394805,18.1991292 32.79,20.81 C32.58,21.25 32.02,22.33 31.67,22.98 L31.67,22.98 C30.9135008,22.6923567 30.1754368,22.3583911 29.46,21.98 C25.6513882,19.9588308 21.9770956,17.6941305 18.46,15.2 C18.2466568,15.0268945 17.971491,14.949188 17.6991139,14.9851266 C17.4267369,15.0210653 17.181143,15.1674831 17.02,15.39 C16.8445915,15.6051519 16.7665086,15.8835352 16.8044383,16.1585258 C16.842368,16.4335163 16.9928971,16.6803669 17.22,16.84 C20.8440915,19.4221833 24.6357793,21.7606691 28.57,23.84 C29.4442258,24.2987012 30.3538035,24.6866094 31.29,25 C31.6120438,25.1071 31.9509261,25.1545436 32.29,25.14 C32.6265846,25.1032202 32.9264393,24.9107209 33.1,24.62 C33.34,24.25 34.31,22.38 34.64,21.62 C35.9223157,18.7343369 36.602841,15.6175314 36.64,12.46 C36.62,8.64 35.34,4.67 31.37,2.31 Z"/>
        <path id="Path" fill="#3C454E" d="M15.31,13.49 C15.2751325,13.212425 15.1309367,12.9602409 14.9094047,12.7893984 C14.6878726,12.6185558 14.4073231,12.5431821 14.13,12.58 C13.5560972,12.6561923 13.1521519,13.1825353 13.2269992,13.756615 C13.3018466,14.3306948 13.8272416,14.7358723 14.4014951,14.6623703 C14.9757487,14.5888684 15.3821562,14.0644242 15.31,13.49 Z"/>
      </g>
    </g>
  </g>
</svg>
