<svg xmlns="http://www.w3.org/2000/svg" width="64" height="64" viewBox="0 0 64 64" style="background:#fff">
  <g id="Emmentaler" fill="none" fill-rule="evenodd" stroke="none" stroke-width="1">
    <rect width="64" height="64" fill="#FFF"/>
    <g transform="translate(2 12)">
      <g id="Layer_2">
        <rect id="Rectangle" width="60" height="60" x="0" y="0"/>
      </g>
      <g id="Layer_1" fill-rule="nonzero" transform="translate(4 12)">
        <path id="Path" fill="#EBE53F" d="M41.05,9.51 C35.41,8.83 29.69,8.51 23.96,8.29 C23.63,3.73 21.06,-0.71 16.71,0.61 C11.7901187,2.07934952 7.40257614,4.94532151 4.08,8.86 C2.08,11.23 1,16.35 2.08,20.06 C1.88,22.22 1.74,24.39 1.52,26.51 C1.3,28.63 1.52,32.38 3.62,33.68 C7.22,35.88 10.56,35.9 14.14,33.55 C15.75,32.49 17.28,30.44 19.14,29.78 C21.67,28.86 23.21,31.47 25.27,32.57 C29.5,34.82 35.21,34.89 39.88,34.67 C44.79,34.45 50.33,34.41 52.71,29.47 C57.29,20 50.64,10.66 41.05,9.51 Z" opacity=".5"/>
        <path id="Shape" fill="#3D454C" d="M51.84,16.19 C52.3922847,16.19 52.84,15.7422847 52.84,15.19 L52.84,12.62 C52.84,12.62 52.84,12.57 52.84,12.54 C52.8447501,12.4667436 52.8447501,12.3932564 52.84,12.32 C52.8261331,12.2709369 52.8059651,12.2238782 52.78,12.18 C52.749295,12.1165542 52.7124526,12.0562667 52.67,12 L52.57,11.88 L52.39,11.77 L52.25,11.69 C52.25,11.69 52.25,11.69 52.25,11.69 L34,5.62 C33.7412957,5.53632176 33.4596712,5.56159576 33.22,5.69 C32.9767979,5.8162418 32.7960529,6.03675066 32.72,6.3 C32.6371573,6.97654882 32.0215488,7.45784271 31.345,7.375 C30.6684512,7.29215729 30.1871573,6.67654882 30.27,6 C30.2696376,5.85293373 30.2967703,5.70709565 30.35,5.57 C30.4613131,5.31494954 30.4613131,5.02505046 30.35,4.77 C30.2347912,4.51956369 30.0213114,4.32779373 29.76,4.24 L18.34,0.44 C18.0930105,0.358499184 17.823985,0.376434216 17.59,0.49 L1.4,8.25 C1.30009462,8.29793646 1.20885137,8.36214467 1.13,8.44 C1.13,8.44 1.13,8.44 1.13,8.44 C1.05214467,8.51885137 0.987936463,8.61009462 0.94,8.71 L0.94,8.82 C0.908170251,8.89957001 0.891222544,8.98430855 0.89,9.07 C0.89,9.07 0.89,9.07 0.89,9.13 L0.89,34.69 C0.89,35.2422847 1.33771525,35.69 1.89,35.69 L14,35.69 C14.5522847,35.69 15,35.2422847 15,34.69 C15,32.8840289 16.4640289,31.42 18.27,31.42 C20.0759711,31.42 21.54,32.8840289 21.54,34.69 C21.54,35.2422847 21.9877153,35.69 22.54,35.69 L43.25,35.69 C43.8022847,35.69 44.25,35.2422847 44.25,34.69 C44.2072297,34.2075278 44.4404593,33.7422399 44.8526122,33.4878019 C45.2647651,33.233364 45.7852349,33.233364 46.1973878,33.4878019 C46.6095407,33.7422399 46.8427703,34.2075278 46.8,34.69 C46.8,35.2422847 47.2477153,35.69 47.8,35.69 L51.8,35.69 C52.3522847,35.69 52.8,35.2422847 52.8,34.69 L52.8,21.79 C52.8,21.2377153 52.3522847,20.79 51.8,20.79 C50.5297451,20.79 49.5,19.7602549 49.5,18.49 C49.5,17.2197451 50.5297451,16.19 51.8,16.19 L51.84,16.19 Z M50.84,22.67 L50.84,33.67 L48.64,33.67 C48.2071706,32.3147215 46.9477161,31.3948241 45.525,31.3948241 C44.1022839,31.3948241 42.8428294,32.3147215 42.41,33.67 L23.41,33.67 C22.9324535,31.1890958 20.7614473,29.39613 18.235,29.39613 C15.7085527,29.39613 13.5375465,31.1890958 13.06,33.67 L2.84,33.67 L2.84,10.22 L15.07,11.07 C15.3353698,11.0892293 15.5974621,11.0019126 15.798277,10.8273725 C15.999092,10.6528324 16.1220712,10.4054608 16.14,10.14 C16.1592293,9.87463021 16.0719126,9.61253795 15.8973725,9.41172299 C15.7228324,9.21090804 15.4754608,9.0879288 15.21,9.07 L5.67,8.41 L18.07,2.41 L28.27,5.8 L28.27,6 C28.2655253,7.41777044 29.1888981,8.67164664 30.5441292,9.08810986 C31.8993604,9.50457308 33.3675252,8.9856176 34.16,7.81 L44,11.07 L25.35,9.78 C24.7977153,9.74134007 24.3186599,10.1577153 24.28,10.71 C24.2413401,11.2622847 24.6577153,11.7413401 25.21,11.78 L50.84,13.56 L50.84,14.31 C48.8990446,14.7681365 47.5278132,16.5007089 47.5278132,18.495 C47.5278132,20.4892911 48.8990446,22.2218635 50.84,22.68 L50.84,22.67 Z"/>
        <path id="Shape" fill="#3D454C" d="M9.85 14.3899877C8.18989173 14.3859559 6.69118547 15.3834035 6.05401998 16.9163731 5.41685449 18.4493428 5.76699707 20.2152483 6.94087436 21.3891256 8.11475166 22.5630029 9.88065721 22.9131455 11.4136269 22.27598 12.9465965 21.6388145 13.9440441 20.1401083 13.9400123 18.48 13.9345029 16.2234363 12.1065637 14.3954971 9.85 14.3899877zM9.85 20.580024C8.99973099 20.5840489 8.23093104 20.0749755 7.90273778 19.2905885 7.57454453 18.5062015 7.75173487 17.6013188 8.35153603 16.9986478 8.95133718 16.3959767 9.85536382 16.2144692 10.6413084 16.5389146 11.427253 16.8633601 11.94 17.6297214 11.94 18.48 11.94 19.6359039 11.0058908 20.5744957 9.85 20.580024zM26.49 23.68C24.6963867 23.6855188 23.2463304 25.1430281 23.2499999 26.9366462 23.2536832 28.7302642 24.7097022 30.1818169 26.5033231 30.1799847 28.296944 30.178149 29.7499999 28.7236218 29.7499999 26.93 29.7444891 25.1334582 28.2865503 23.68 26.49 23.68L26.49 23.68zM26.49 28.18C25.8009727 28.1744876 25.2463501 27.6124262 25.2499996 26.9233866 25.2536853 26.2343471 25.8142598 25.6782216 26.5033067 25.6800399 27.1923536 25.6818672 27.7499996 26.2409507 27.7499996 26.93 27.7499996 27.2632605 27.6169428 27.5827278 27.380355 27.8174379 27.1437673 28.0521479 26.8232499 28.1826661 26.49 28.18zM38.08 15.39C35.1707675 15.3955204 32.8163257 17.7574186 32.8199999 20.666654 32.8236827 23.5758894 35.1840899 25.9318261 38.093327 25.9299905 41.0025642 25.9281528 43.36 23.5692377 43.36 20.66 43.3544845 17.7478425 40.9921627 15.39 38.08 15.39L38.08 15.39zM38.08 23.93C36.2753409 23.9244811 34.8163304 22.4580175 34.8199999 20.6533537 34.8236832 18.8486899 36.2886565 17.388183 38.0933231 17.3900153 39.8979897 17.391851 41.36 18.8553325 41.36 20.66 41.354489 22.4675875 39.8875959 23.93 38.08 23.93L38.08 23.93z"/>
        <path id="Path" fill="#3D454C" d="M20.21,9.58 C19.6577153,9.58 19.21,10.0277153 19.21,10.58 C19.21,11.1322847 19.6577153,11.58 20.21,11.58 C20.7622847,11.58 21.21,11.1322847 21.21,10.58 C21.21,10.0277153 20.7622847,9.58 20.21,9.58 Z"/>
      </g>
    </g>
  </g>
</svg>
