<svg xmlns="http://www.w3.org/2000/svg" width="64" height="64" viewBox="0 0 64 64" style="background:#fff">
  <g id="Endivie" fill="none" fill-rule="evenodd" stroke="none" stroke-width="1">
    <rect width="64" height="64" fill="#FFF"/>
    <g transform="translate(2 4)">
      <rect id="Rectangle" width="60" height="60" x="0" y="0"/>
      <g id="Group" fill="#D4BA39" fill-rule="nonzero" opacity=".5" transform="translate(12 1)">
        <path id="Path" d="M33.7 13.9C36.5 11.44 31.54 9 29.41 10.9 27.9493943 12.16605 26.5824795 13.536307 25.32 15 24.4267079 10.7634215 22.7294009 6.73740948 20.32 3.14 19.9333172 2.52645753 19.4426391 1.98501957 18.87 1.54 17.82.54 15.61.89 14.4 2.05 11.5182039 4.77496974 9.25400692 8.08601689 7.76 11.76 5.54 11.08 2.14 12.66 3.87 14.86 4.67444738 15.8978758 5.41578413 16.9831661 6.09 18.11 6.48343581 18.9898918 6.94832534 19.8360576 7.48 20.64 9.54362237 24.845542 10.6501225 29.4559592 10.72 34.14 10.78 37.06 16.77 36.96 16.72 34.03 16.6257176 28.177208 15.0720979 22.4405016 12.2 17.34 12.843292 13.7390322 14.3457937 10.3463971 16.58 7.45 18.8001273 11.616777 19.9253186 16.2792667 19.85 21 19.8417741 21.5022715 20.0449797 21.9848848 20.41 22.33 19.0118887 25.024006 17.9473718 27.8783888 17.24 30.83 16.5 33.91 22.39 34.6 23.04 31.9 24.6259974 24.9338405 28.3537805 18.6392724 33.7 13.9L33.7 13.9zM4.17 27.7C3.38 26.01-.55 26.7.33 28.54 2.25983593 32.6772908 5.03233913 36.3660144 8.47 39.37 9.89 40.62 13.12 38.9 11.26 37.25 8.26500532 34.5881709 5.85136646 31.3370777 4.17 27.7L4.17 27.7zM32.35 27.77C30.5094469 32.4497614 27.7944029 36.7361371 24.35 40.4 22.82 42.03 26.58 43.14 27.82 41.82 31.4501265 37.9478441 34.3109263 33.4207897 36.25 28.48 37 26.55 33 26 32.35 27.77z"/>
      </g>
      <path id="Shape" fill="#3D454C" fill-rule="nonzero" d="M44.5,12 C44.4064339,11.6891638 44.1678109,11.4430837 43.86,11.34 C43.5519452,11.2359465 43.2125333,11.2881637 42.95,11.48 C42.86,11.55 42.43,11.87 41.78,12.48 C40.6513166,10.3547339 39.2159304,8.40719125 37.52,6.7 C37.2316961,6.41739204 36.8017379,6.33586182 36.4299894,6.49330826 C36.0582408,6.65075471 35.8176285,7.01629126 35.82,7.42 C35.82,7.84 35.75,8.59 35.63,9.59 C34.2668983,7.56532401 32.6239167,5.7439039 30.75,4.18 C30.3884778,3.89803614 29.8815222,3.89803614 29.52,4.18 C27.6460833,5.7439039 26.0031017,7.56532401 24.64,9.59 C24.52,8.59 24.45,7.84 24.45,7.42 C24.4530772,7.00549294 24.200106,6.63205883 23.8140232,6.48117591 C23.4279404,6.33029298 22.9887954,6.4332449 22.71,6.74 C21.1154488,8.46832946 19.6921306,10.3471095 18.46,12.35 C17.83,11.85 17.4,11.56 17.32,11.5 C17.0619079,11.3197676 16.7340146,11.2715851 16.4349837,11.3699505 C16.1359528,11.4683159 15.9006951,11.7017455 15.8,12 C6.53,42.56 21.32,55.87 22,56.42 C22.1823042,56.5807777 22.4169276,56.67 22.66,56.67 L37.69,56.67 C37.9330724,56.67 38.1676958,56.5807777 38.35,56.42 C39,55.87 53.74,42.56 44.5,12 Z M37.62,9.79 C38.677819,11.0369208 39.5593879,12.4232049 40.24,13.91 C39.73,14.41 39.18,14.99 38.6,15.65 C38.2446506,14.5086313 37.7964881,13.3982585 37.26,12.33 C37.41,11.36 37.53,10.51 37.62,9.79 Z M30.14,6.27 C33.4835317,9.28038783 35.8835627,13.1947655 37.05,17.54 C36.5,18.26 35.94,19.03 35.39,19.87 C34.0757533,17.9781555 32.5153651,16.2697994 30.75,14.79 C30.3884778,14.5080361 29.8815222,14.5080361 29.52,14.79 C27.8930063,16.1476197 26.4417932,17.7029708 25.2,19.42 C24.6289566,18.5820367 24.0147968,17.7742831 23.36,17 C24.5963396,12.8706611 26.9413725,9.15942172 30.14,6.27 L30.14,6.27 Z M22.66,9.85 C22.75,10.56 22.87,11.4 23.01,12.34 C22.5322948,13.2937157 22.1213088,14.2794139 21.78,15.29 C21.17,14.67 20.58,14.11 20.03,13.63 C20.7749626,12.2832947 21.6562519,11.0166508 22.66,9.85 L22.66,9.85 Z M37.29,54.67 L23,54.67 C20.3705276,51.8547749 18.3666234,48.5149346 17.12,44.87 C15.4480598,40.0960716 14.6651285,35.0561634 14.81,30 C16.1227848,32.8636589 17.9885226,35.4396686 20.3,37.58 C20.4799121,37.7290812 20.7063478,37.8104565 20.94,37.81 C21.2339305,37.8075296 21.5118882,37.6758655 21.7,37.45 C22.0498442,37.0291222 21.9963653,36.4052027 21.58,36.05 C19.16,34.05 16.74,30.05 15.07,25.53 C15.471621,21.6276 16.2212708,17.7689115 17.31,14 C20,16.15 26.63,22.18 26.63,29.52 C26.63,30.0722847 27.0777153,30.52 27.63,30.52 C28.1822847,30.52 28.63,30.0722847 28.63,29.52 C28.5788745,26.6328866 27.7905893,23.8067635 26.34,21.31 C27.4341928,19.7088627 28.709272,18.2391661 30.14,16.93 C31.6990825,18.3699507 33.0759935,19.9953774 34.24,21.77 C30.8577822,27.6009646 29.0937019,34.2292117 29.13,40.97 C29.13,41.5222847 29.5777153,41.97 30.13,41.97 C30.6822847,41.97 31.13,41.5222847 31.13,40.97 C31.1401011,30.7327884 35.4465391,20.9698359 43,14.06 C44.0868994,17.8487435 44.8299085,21.7277868 45.22,25.65 C44.13,29.04 42.38,33.65 39.51,36.09 C39.1917883,36.3621225 39.0767963,36.8036768 39.2218532,37.1964462 C39.3669101,37.5892157 39.7413004,37.8500322 40.16,37.85 C40.3936522,37.8504565 40.6200879,37.7690812 40.8,37.62 C42.8568956,35.6915128 44.4559954,33.327032 45.48,30.7 C45.5463641,35.5238776 44.757505,40.3213598 43.15,44.87 C41.9081938,48.5127018 39.9113167,51.8521892 37.29,54.67 L37.29,54.67 Z"/>
      <circle id="Oval" cx="30.46" cy="45.25" r="1" fill="#3D454C" fill-rule="nonzero"/>
    </g>
  </g>
</svg>
