<svg xmlns="http://www.w3.org/2000/svg" width="64" height="64" viewBox="0 0 64 64" style="background:#fff">
  <g id="Ente" fill="none" fill-rule="evenodd" stroke="none" stroke-width="1">
    <rect width="64" height="64" fill="#FFF"/>
    <g id="Path" transform="translate(8 17)">
      <path fill="#B3B3B3" fill-rule="nonzero" d="M40.06,19.16 C39.6,16.54 36.76,14.41 34.92,17.24 C33.19,19.88 32.65,22.88 30.1,25.04 C27,27.66 22.76,28.47 18.82,28.5 C12.89,28.5 6.68,25.2 0.88,26.98 C-0.12,27.27 0.05,28.98 0.49,29.59 C10.56,43.63 43.86,40.65 40.06,19.16 Z" opacity=".5"/>
      <path fill="#E0A075" fill-rule="nonzero" d="M41.25,3.09 C40.8733832,1.92921916 40.0127071,0.98831062 38.89,0.51 C37.7010987,0.0271707191 36.3407019,0.268155299 35.39,1.13 C32.87,2.99 32.23,6.64 32.56,9.53 C32.694792,10.7771454 33.4458302,11.8736612 34.56,12.45 C35.6174887,12.7833746 36.7592823,12.2891654 37.24,11.29 C37.5972795,10.6068801 37.8661087,9.88104139 38.04,9.13 C38.0666942,9.03145615 38.0867394,8.93123057 38.1,8.83 L38.2,8.46 L38.2,8.46 C38.11,8.95 38.2,8.69 38.2,8.41 L38.35,8.33 C38.6208703,8.20108835 38.873139,8.03627276 39.1,7.84 L39.2,7.76 L39.6,7.58 C39.8327775,7.5200927 40.0419571,7.39109862 40.2,7.21 C41.7,6.41 41.7,4.42 41.25,3.09 Z" opacity=".5"/>
      <path stroke="#3D454C" stroke-linecap="round" stroke-linejoin="round" stroke-width="2" d="M39,7.87 C37.9896069,8.87659066 37.421146,10.243775 37.42,11.67 C37.4202483,13.0159271 37.7101445,14.3460386 38.27,15.57 L39.58,18.46 C43.4,26.86 39.37,40.77 20.36,39.31 C13.19,38.76 7.21,36.68 1.16,33.98 L8.42,29.98 L2.06,28.29 L7.41,25.77 C10.78,24.21 14.22,22.77 17.69,21.45 L17.76,21.45 C21.2446954,20.1432403 24.9051299,19.3646396 28.62,19.14 C29.9837371,19.050999 31.1002617,18.0219632 31.3,16.67 L33.17,4.55 C33.5100501,2.35012176 35.4864811,0.78293127 37.7059602,0.953257292 C39.9254393,1.12358331 41.64,2.97399502 41.64,5.2 L41.64,7.33 L40.3,7.33 C39.8126562,7.33273791 39.3458546,7.52664011 39,7.87 Z"/>
      <path stroke="#3D454C" stroke-linecap="round" stroke-linejoin="round" stroke-width="2" d="M34.17,27.58 C29.5547913,32.1978048 22.8150519,33.9810672 16.52,32.25 L8.37,30"/>
      <polyline stroke="#3D454C" stroke-linecap="round" stroke-linejoin="round" stroke-width="2" points="23.51 39.64 24.57 46.04 29.11 46.04"/>
      <line x1="41.64" x2="48.11" y1="7.31" y2="7.31" stroke="#3D454C" stroke-linecap="round" stroke-linejoin="round" stroke-width="2"/>
      <line x1="11.77" x2="18.17" y1="30.78" y2="27.58" stroke="#3D454C" stroke-linecap="round" stroke-linejoin="round" stroke-width="2"/>
      <path fill="#3D454C" fill-rule="nonzero" d="M37.53 5.45C38.0822847 5.45 38.53 5.00228475 38.53 4.45 38.53 3.89771525 38.0822847 3.45 37.53 3.45 36.9777153 3.45 36.53 3.89771525 36.53 4.45 36.53 5.00228475 36.9777153 5.45 37.53 5.45zM21.66 26.92C22.2122847 26.92 22.66 26.4722847 22.66 25.92 22.66 25.3677153 22.2122847 24.92 21.66 24.92 21.1077153 24.92 20.66 25.3677153 20.66 25.92 20.66 26.4722847 21.1077153 26.92 21.66 26.92z"/>
    </g>
  </g>
</svg>
