<svg xmlns="http://www.w3.org/2000/svg" width="64" height="64" viewBox="0 0 64 64" style="background:#fff">
  <g id="Erbsen" fill="none" fill-rule="evenodd" stroke="none" stroke-width="1">
    <rect width="64" height="64" fill="#FFF"/>
    <g transform="translate(2 7)">
      <rect id="Rectangle" width="60" height="60" x="0" y="0"/>
      <path id="Path" fill="#31E085" fill-rule="nonzero" d="M49.85,26.15 C44.6833333,29.1433333 39.4,31.87 34,34.33 C34.66,32.67 35.08,30.92 35.77,29.26 C36.69,27.05 38.22,25.41 39.47,23.4 C40.4666194,21.8572658 41.0929391,20.1049397 41.3,18.28 C41.42,17.14 40.99,13.28 41.91,12.85 C44.59,11.58 44.72,9.74 43.64,8.31 C43.3,5.48 37.83,3.66 35.11,6.06 C26.8658322,13.2464756 20.2516341,22.1108647 15.71,32.06 C14.65,34.39 13.91,37.19 12.19,39.14 C10.47,41.09 7.89,41.88 6.3,43.94 C5.08427768,45.3628153 4.52758159,47.2337249 4.76768018,49.0897252 C5.00777878,50.9457254 6.0222364,52.6133851 7.56,53.68 C10.17,55.68 14.9,54.12 15.91,51.78 C16.1970221,51.5544685 16.4496728,51.2883431 16.66,50.99 C17.06,50.43 24.3,51.49 25.71,51.14 C26.9447634,50.839568 28.118578,50.3287726 29.18,49.63 C29.32,49.53 30.5,48.38 31.18,47.63 C32.883976,48.5541149 34.8772423,48.7903009 36.75,48.29 C37.9337806,47.9449202 39.0427649,47.3819496 40.02,46.63 C41.4490572,45.3376579 43.1617326,44.3991118 45.02,43.89 C52.29,41.89 55.39,37.38 57.24,30.19 C58.25,26.32 52.61,24.56 49.85,26.15 Z" opacity=".5"/>
      <path id="Shape" fill="#3D454C" fill-rule="nonzero" d="M55.38,27.15 C55.2601593,26.7510706 54.9055849,26.4682078 54.49,26.44 C50.8628348,26.2510876 47.2405022,26.8941457 43.9,28.32 C42.1747226,29.1930201 40.5048906,30.1715417 38.9,31.25 C36.9376822,32.6727522 34.764701,33.7794879 32.46,34.53 C29.6447585,35.2945408 26.9515254,36.4526311 24.46,37.97 C24.1651385,37.1054401 23.5873402,36.3655765 22.82,35.87 C20.65,34.5 17.49,35.58 15.82,38.28 C14.8643147,39.6807368 14.5045738,41.4038955 14.82,43.07 C12.7806748,43.8762481 10.9659916,45.1626493 9.53,46.82 C9.63277779,45.1045455 10.341585,43.4813771 11.53,42.24 C15.07,38.75 17.48,36.08 18.66,30.91 C19.77,26.06 21.48,24.45 25.13,22.49 C27.34,21.3 28.35,18.78 29.32,16.35 C29.7,15.41 30.08,14.44 30.53,13.58 C31.74,11.25 36.1,8.66 38.53,7.7 C38.7205962,9.38050935 39.0996466,11.0342423 39.66,12.63 C40.9443061,16.4174822 40.0283602,20.6046635 37.28,23.51 C36.1867375,24.6531212 35.4290847,26.0750176 35.09,27.62 L37.01,28.19 C37.2558699,27.007285 37.8036268,25.9083262 38.6,25 C41.9506884,21.5324481 43.0644345,16.4741844 41.48,11.92 C40.8791893,10.0992683 40.5030697,8.2119541 40.36,6.3 C40.3362841,6.01368343 40.1905698,5.75139773 39.96,5.58 C39.7288082,5.40552792 39.4333266,5.33986534 39.15,5.4 C36.92,5.87 30.5,9.19 28.7,12.67 C28.2242875,13.6244991 27.7970769,14.602411 27.42,15.6 C26.54,17.8 25.7,19.88 24.13,20.73 C20.13,22.86 17.92,24.95 16.66,30.47 C15.6,35.12 13.47,37.47 10.08,40.81 C6.69,44.15 7.4,48.81 7.61,50.43 C7.61635144,50.5399083 7.61635144,50.6500917 7.61,50.76 C7.60522962,50.8365925 7.60522962,50.9134075 7.61,50.99 L7.61,50.99 C7.63062724,51.0998247 7.67130579,51.2049109 7.73,51.3 C7.72541925,51.3231085 7.72541925,51.3468915 7.73,51.37 C7.79693809,51.470214 7.89041859,51.5498455 8,51.6 L8.1,51.68 L8.18,51.74 C8.2281855,51.7642676 8.2783708,51.7843417 8.33,51.8 L8.33,51.8 L8.33,51.8 C8.42304348,51.8104026 8.51695652,51.8104026 8.61,51.8 L8.74,51.8 C8.82671119,51.8087355 8.91421594,51.8053699 9,51.79 C9.02639453,51.7953878 9.05360547,51.7953878 9.08,51.79 C9.175665,51.7441697 9.26342876,51.6834102 9.34,51.61 L9.34,51.61 C9.38524623,51.5608107 9.42544724,51.5072094 9.46,51.45 C9.46412713,51.423493 9.46412713,51.396507 9.46,51.37 L9.46,51.37 C9.46,51.37 10.17,49.84 13.28,50.76 C14.13,51.01 14.99,51.31 15.82,51.6 C17.6104038,52.3648775 19.5173151,52.8213191 21.46,52.95 C22.7733374,52.968775 24.0597986,52.5772433 25.14,51.83 C28.24,49.73 30.76,48.15 32.79,48.53 C35.79,49.1 39.27,47.14 42.6,43.03 C43.2473044,42.1917607 44.2510062,41.7065764 45.31,41.72 C47.5084688,41.5874328 49.5163464,40.4279021 50.73,38.59 C51.875418,36.8224079 52.666728,34.8492272 53.06,32.78 C53.55,30.93 54.06,29.01 54.91,28.36 C55.3427274,28.1269686 55.5419684,27.6140289 55.38,27.15 Z M17.43,39.35 C18.53,37.61 20.49,36.79 21.7,37.56 C22.210911,37.9079074 22.5492078,38.457185 22.63,39.07 C22.03,39.46 21.43,39.87 20.81,40.31 C19.5803031,41.0704398 18.2728842,41.6973304 16.91,42.18 L16.65,42.28 C16.5713982,41.2432493 16.8463415,40.2104493 17.43,39.35 L17.43,39.35 Z M51.25,32.14 C50.9008717,33.9448882 50.22294,35.6702244 49.25,37.23 C48.3627111,38.6445362 46.8380546,39.5339192 45.17,39.61 C43.6048435,39.6456496 42.1376136,40.3792646 41.17,41.61 C38.36,45.07 35.49,46.81 33.28,46.39 C30.51,45.87 27.62,47.64 24.14,50.01 C21.99,51.47 19.49,50.58 16.61,49.55 C15.75,49.25 14.87,48.93 13.96,48.67 C13.1890893,48.4294515 12.3874871,48.3014647 11.58,48.29 C11.3159003,48.2907491 11.0520868,48.3074461 10.79,48.34 C12.37,46.14 15,45.07 17.65,44 C19.1756164,43.4859245 20.6356084,42.794526 22,41.94 C25.2959392,39.4506396 29.0259923,37.5957859 33,36.47 C35.5089135,35.6750783 37.8727616,34.4796466 40,32.93 C41.540378,31.8950158 43.1434543,30.9565482 44.8,30.12 C47.2229357,29.0539787 49.8333862,28.4795436 52.48,28.43 C51.9598918,29.6274006 51.5482422,30.8690428 51.25,32.14 L51.25,32.14 Z"/>
      <path id="Path" fill="#3D454C" fill-rule="nonzero" d="M38.56 39.38C38.0243509 39.2478945 37.4829088 39.5745496 37.35 40.11 37.1440278 41.0797506 36.5451474 41.9206721 35.6960482 42.432406 34.8469491 42.9441398 33.8236635 43.0808631 32.87 42.81 32.5169102 42.7186539 32.1420915 42.8267814 31.8919091 43.0921591 31.6417267 43.3575368 31.5558622 43.738073 31.6678451 44.0851701 31.7798281 44.4322671 32.0718969 44.6908718 32.43 44.76 32.9147965 44.8765666 33.4113957 44.9369638 33.91 44.94 36.5077131 44.9330397 38.7504008 43.1189176 39.3 40.58 39.4252036 40.044579 39.0946344 39.5085208 38.56 39.38zM25.82 45.26C25.58796 45.1312546 25.3142625 45.1000168 25.0591798 45.1731655 24.8040971 45.2463142 24.5885481 45.4178507 24.46 45.65 23.9820867 46.5136282 23.1853227 47.156064 22.24 47.44 21.2830751 47.6938707 20.263522 47.5342254 19.43 47 19.1200109 46.8029406 18.726938 46.7916923 18.4061872 46.9707021 18.0854363 47.149712 17.8886447 47.4901615 17.8936161 47.8574501 17.8985875 48.2247387 18.1045216 48.5597371 18.43 48.73 19.3340802 49.282114 20.3707191 49.5792838 21.43 49.59 21.8925574 49.5899269 22.3531225 49.5294147 22.8 49.41 24.2678639 48.9845709 25.5079991 47.9960573 26.25 46.66 26.3889159 46.4194235 26.4214955 46.1319022 26.3399307 45.8663427 26.258366 45.6007832 26.0700087 45.3811211 25.82 45.26zM43 37.28C43 37.8322847 43.4477153 38.28 44 38.28L44 38.28C45.4800221 38.2721238 46.8911746 37.6537538 47.9001578 36.5709425 48.909141 35.4881312 49.4264856 34.0368947 49.33 32.56 49.33 32.0077153 48.8822847 31.56 48.33 31.56 47.7777153 31.56 47.33 32.0077153 47.33 32.56 47.3939072 33.5079302 47.0606131 34.4397251 46.4099931 35.1320757 45.7593732 35.8244264 44.8500692 36.2149298 43.9 36.21 43.3590756 36.2628299 42.9593814 36.7380218 43 37.28z"/>
      <path id="Shape" fill="#3D454C" fill-rule="nonzero" d="M38.49 20.17C39.85 17.28 39.08 14.05 36.77 12.96 35.5403741 12.4097498 34.1224365 12.4765636 32.95 13.14 31.6967304 13.8329788 30.6980475 14.9087531 30.1 16.21 29.4721902 17.4826004 29.2588659 18.9199165 29.49 20.32 29.7131552 21.6745494 30.5827276 22.8352233 31.82 23.43 32.362091 23.6812045 32.9525341 23.8108972 33.55 23.8100046 35.7588251 23.6454061 37.6784738 22.2309281 38.49 20.17zM31.49 19.94C31.3409122 18.9555257 31.5016683 17.9490531 31.95 17.06 32.3675152 16.1490282 33.0693148 15.3981026 33.95 14.92 34.3273814 14.7124009 34.7493844 14.5991806 35.18 14.5899353 35.4569638 14.5876512 35.7307336 14.6492494 35.98 14.77 37.28 15.37 37.63 17.46 36.75 19.32 35.95 21.02 34.31 22.32 32.75 21.62 32.0652145 21.3098106 31.5784142 20.6807148 31.45 19.94L31.49 19.94zM22.87 25.91C20.63 28.54 20.52 31.91 22.62 33.66 23.4046429 34.3226548 24.4031348 34.67799 25.43 34.66 25.8140763 34.6566658 26.1965298 34.6096978 26.57 34.52 28.0052549 34.1376037 29.2849851 33.315919 30.23 32.17 32.39 29.63 32.51 26.17 30.48 24.42 28.45 22.67 25 23.38 22.87 25.91zM28.71 30.91C28.0425604 31.7347561 27.1331954 32.3293409 26.11 32.61 25.348688 32.8236621 24.5310088 32.6519122 23.92 32.15 22.5 30.94 23.08 28.75 24.39 27.22 25.2100017 26.1986777 26.4227068 25.57054 27.73 25.49 28.2562689 25.4754083 28.77046 25.6491694 29.18 25.98 30.35 27 30.13 29.23 28.71 30.9L28.71 30.91z"/>
      <path id="Path" fill="#3D454C" fill-rule="nonzero" d="M27 41.77C26.4659221 41.6457058 25.9313682 41.9746945 25.8016943 42.5074918 25.6720204 43.040289 25.9956016 43.5781335 26.5270641 43.7131739 27.0585265 43.8482143 27.5996068 43.5300736 27.74 43 27.809246 42.7385523 27.7696371 42.4602051 27.6302083 42.2284519 27.4907796 41.9966987 27.2634228 41.8313055 27 41.77L27 41.77zM34.18 32.29C34.5771632 32.3717794 34.9843948 32.2056228 35.2109836 31.8693432 35.4375724 31.5330636 35.4386565 31.0932404 35.2137282 30.7558479 34.9887998 30.4184554 34.5823923 30.2502933 34.1848307 30.3301139 33.7872692 30.4099345 33.4772664 30.7219342 33.4 31.12 33.2956068 31.6578195 33.6434 32.1795093 34.18 32.29z"/>
    </g>
  </g>
</svg>
