<svg xmlns="http://www.w3.org/2000/svg" width="64" height="64" viewBox="0 0 64 64" style="background:#fff">
  <g id="Erdbeeren" fill="none" fill-rule="evenodd" stroke="none" stroke-width="1">
    <rect width="64" height="64" fill="#FFF"/>
    <g transform="translate(2 8)">
      <rect id="Rectangle" width="60" height="60" x="0" y="0"/>
      <path id="Path" fill="#E05362" fill-rule="nonzero" d="M36.25,19.75 C35.5318417,19.18011 34.6997905,18.7709045 33.81,18.55 C33.32,18.3 32.81,18.07 32.3,17.86 C26.0276913,15.4629154 18.9436838,16.7372668 13.9,21.17 C8.35,26.17 8.9,31.77 7.85,38.42 C7.37,41.49 4.52,42.93 4.29,46.11 C4,49.63 6.94,52 10.13,52.74 C14.33,53.74 19.32,52.23 23.47,51.66 C27.2,51.14 31,50.85 34.7,50 C41.15,48.54 47.12,44.27 47.29,37.1 C47.47,29.47 41.68,24.21 36.25,19.75 Z" opacity=".5"/>
      <path id="Path" fill="#31E085" fill-rule="nonzero" d="M52.92,25.24 L48.31,22.45 L51.92,21.5 C56.35,20.33 53.81,15.62 49.92,16.61 C47.8238199,17.1450696 45.6963758,17.5491838 43.55,17.82 L43.78,10 C43.85,6.8 38.7,7.16 37.23,8.82 L36.33,9.82 C35.8102015,8.97735987 35.2460758,8.16288251 34.64,7.38 C32.64,4.85 26.19,6.9 28.64,10.06 C30.1023321,11.9313953 31.2630205,14.0199596 32.08,16.25 C32.73,17.98 34.87,18.36 36.6,17.85 L36.54,20.76 C36.5913858,21.8210689 37.3233765,22.726958 38.35,23 C38.5205931,23.1896194 38.7196383,23.3515545 38.94,23.48 L48,28.94 C50.79,30.62 56.59,27.47 52.92,25.24 Z" opacity=".5"/>
      <path id="Shape" fill="#3D454C" fill-rule="nonzero" d="M23.44 43.11C22.436452 42.1436615 20.8405084 42.1704841 19.87 43.17 19.38 43.65 17.48 46.5 18.73 47.76 19.0468452 48.0529719 19.4691641 48.2045735 19.9 48.18 21.1835505 48.045002 22.3964556 47.5256834 23.38 46.69 24.3835214 45.718821 24.4147898 44.1196655 23.45 43.11L23.44 43.11zM22 45.27C21.5451572 45.6229001 21.0301879 45.8905487 20.48 46.06 20.676016 45.5255819 20.9562194 45.025942 21.31 44.58 21.4238514 44.4654396 21.5784892 44.4007075 21.74 44.4 21.8582967 44.3963627 21.973264 44.4394754 22.06 44.52 22.2461162 44.745088 22.2195341 45.077364 22 45.27zM33.75 39.51C32.746452 38.5436615 31.1505084 38.5704841 30.18 39.57 29.69 40.06 27.79 42.9 29.04 44.16 29.3549761 44.449436 29.7727356 44.6006938 30.2 44.58 31.4868958 44.4463483 32.7033827 43.9269886 33.69 43.09 34.6935214 42.118821 34.7247898 40.5196655 33.76 39.51L33.75 39.51zM32.28 41.67C31.8263783 42.0248028 31.3110433 42.2926413 30.76 42.46 30.9579273 41.9326014 31.2380576 41.4398421 31.59 41 31.6968842 40.884457 31.8431479 40.8131088 32 40.8 32.1182967 40.7963627 32.233264 40.8394754 32.32 40.92 32.5111758 41.139855 32.493476 41.4717265 32.28 41.67L32.28 41.67zM23.88 33.27C23.39 33.76 21.49 36.6 22.74 37.86 23.0580457 38.1509878 23.4794996 38.302279 23.91 38.28 25.1935505 38.145002 26.4064556 37.6256834 27.39 36.79 27.8709268 36.3161233 28.150351 35.6748804 28.17 35 28.1919125 34.3247695 27.935165 33.6702443 27.46 33.19 26.4476171 32.2278948 24.8483947 32.2636316 23.88 33.27zM25.98 35.37C25.5248498 35.7247975 25.0101459 35.9956943 24.46 36.17 24.6513859 35.6334635 24.9319974 35.1330961 25.29 34.69 25.4015225 34.570814 25.5567895 34.5022077 25.72 34.5 25.8403737 34.4954387 25.9569116 34.5427822 26.04 34.63 26.1277131 34.7168892 26.1748848 34.8366328 26.17 34.96 26.1668284 35.1131652 26.1061408 35.2595294 26 35.37L25.98 35.37zM21.16 26.91C20.6775327 26.4427741 20.0290877 26.1865576 19.3575611 26.1978123 18.6860345 26.2090669 18.0465395 26.486869 17.58 26.97 17.09 27.46 15.19 30.3 16.44 31.56 16.7552174 31.8566055 17.1777295 32.0118878 17.61 31.99 18.8981699 31.8541104 20.1149465 31.3311405 21.1 30.49 22.100685 29.5160418 22.1274855 27.9169443 21.16 26.91zM19.68 29.08C19.2216024 29.4273138 18.7076588 29.6944292 18.16 29.87 18.3568278 29.3338863 18.6406274 28.8338585 19 28.39 19.1120865 28.2774827 19.2614894 28.2098957 19.42 28.2L19.42 28.2C19.5406057 28.1940971 19.6576809 28.2416589 19.74 28.33L19.74 28.33C19.8320183 28.4371877 19.8774369 28.5766759 19.8661714 28.7174937 19.854906 28.8583115 19.7878889 28.9888048 19.68 29.08L19.68 29.08zM36 28.9C35.3321093 28.9247242 34.6989168 29.2037581 34.23 29.68 33.74 30.16 31.84 33.01 33.09 34.26 33.4052174 34.5566055 33.8277295 34.7118878 34.26 34.69 35.545796 34.5564745 36.7600503 34.033089 37.74 33.19 38.2162419 32.7210832 38.4952758 32.0878907 38.52 31.42 38.5372469 30.7455819 38.2811914 30.0928207 37.81 29.61 37.3229224 29.1454404 36.6730306 28.8905104 36 28.9L36 28.9zM36.33 31.78C35.8739912 32.1310756 35.3593647 32.398546 34.81 32.57 35.0037659 32.0345493 35.284165 31.5345606 35.64 31.09 35.7356694 30.9885756 35.8622815 30.9217525 36 30.9L36 30.9C36.1195036 30.9001218 36.2342692 30.9467453 36.32 31.03L36.32 31.03C36.4066842 31.1175637 36.4536723 31.2368413 36.45 31.36 36.4483049 31.5145715 36.3915781 31.6634792 36.29 31.78L36.33 31.78zM27.92 28.39C29.205796 28.2564745 30.4200503 27.733089 31.4 26.89 31.8796941 26.4234737 32.1593696 25.7888255 32.18 25.12 32.2019125 24.4447695 31.945165 23.7902443 31.47 23.31 30.4582093 22.3506798 28.8635164 22.381861 27.89 23.38 27.3686237 23.9658867 26.9616053 24.6442507 26.69 25.38 26.19 26.6 26.21 27.46 26.75 28 27.0716454 28.2821179 27.4934129 28.4227071 27.92 28.39L27.92 28.39zM29.3 24.79C29.4120865 24.6774827 29.5614894 24.6098957 29.72 24.6L29.72 24.6C29.8399271 24.5979055 29.9555113 24.6448615 30.04 24.73 30.1266842 24.8175637 30.1736723 24.9368413 30.17 25.06 30.1619998 25.2189756 30.094118 25.3690301 29.98 25.48 29.5239912 25.8310756 29.0093647 26.098546 28.46 26.27 28.6568278 25.7338863 28.9406274 25.2338585 29.3 24.79L29.3 24.79zM21.62 22.09C22.9086525 21.9559605 24.1259568 21.4327638 25.11 20.59 25.5961851 20.1230918 25.8759437 19.4814706 25.8872081 18.8074882 25.8984724 18.1335057 25.6403109 17.4828942 25.17 17 24.6884538 16.5268392 24.0348225 16.2704424 23.36 16.29 22.6932812 16.3110523 22.0599259 16.5865797 21.59 17.06 21.11 17.54 19.2 20.39 20.45 21.64 20.7619186 21.9438956 21.1848314 22.1065544 21.62 22.09L21.62 22.09zM23 18.49C23.1077045 18.3784556 23.2549903 18.3137935 23.41 18.31L23.41 18.31C23.525439 18.3056653 23.6375668 18.3490697 23.72 18.43 23.8120183 18.5371877 23.8574369 18.6766759 23.8461714 18.8174937 23.834906 18.9583115 23.7678889 19.0888048 23.66 19.18 23.2102646 19.5350841 22.6981446 19.8030144 22.15 19.97 22.344195 19.430566 22.6319279 18.9295722 23 18.49z"/>
      <path id="Shape" fill="#3D454C" fill-rule="nonzero" d="M52.71,28.44 C51.8658574,26.5126764 50.4751665,24.8751377 48.71,23.73 C50.7377765,22.2409777 52.1754319,20.0844946 52.77,17.64 C52.8841495,17.1825747 52.663307,16.7075552 52.24,16.5 C49.3004022,15.0478177 45.8599845,15.0110217 42.89,16.4 C42.540558,16.5718371 42.2060642,16.7725334 41.89,17 C42.01,16.79 42.1,16.62 42.16,16.5 C43.5502457,13.5294521 43.5097465,10.0870185 42.05,7.15 C41.8433417,6.73110428 41.3742207,6.51107408 40.92,6.62 C38.4774501,7.21929963 36.3202985,8.65150684 34.82,10.67 C33.6766498,8.90326313 32.0385838,7.51212432 30.11,6.67 C29.681943,6.487364 29.184478,6.62416686 28.91,7 C27.8089271,8.5184306 27.1198889,10.2961493 26.91,12.16 C22.9982568,11.1871933 18.856559,11.993066 15.5949641,14.3616281 C12.3333692,16.7301902 10.2854172,20.4192258 10,24.44 C9.79134896,29.1723924 8.95744561,33.8563737 7.52,38.37 C6.99936645,39.7996123 6.69926609,41.3001142 6.63,42.82 C6.63,46.22 7.51,48.82 9.34,50.71 C11.17,52.6 13.74,53.43 17.06,53.43 L17.23,53.43 C18.7496886,53.3517938 20.2493576,53.0484899 21.68,52.53 C26.2016709,51.1190928 30.8876364,50.3022423 35.62,50.1 C42.7182988,49.6056149 48.2482247,43.7450246 48.33,36.63 C48.3528928,34.9201651 48.04385,33.2221277 47.42,31.63 C49.2292481,31.3979188 50.9497989,30.7096985 52.42,29.63 C52.7767002,29.3458619 52.8959835,28.8563888 52.71,28.44 Z M43.71,18.21 C45.876042,17.2081807 48.3568126,17.1323493 50.58,18 C49.8488444,20.1672297 48.2981507,21.9620141 46.26,23 C46.18,23 46.1,23.09 45.98,23.14 C45.46,23.39 42.84,24.32 41.84,24.62 L39.1,21.79 C40.5585616,20.4908805 42.1056198,19.294667 43.73,18.21 L43.71,18.21 Z M40.6,8.8 C41.4525258,11.0213527 41.3659013,13.49376 40.36,15.65 C40.06,16.28 38.47,18.82 37.53,20.22 L34.46,17.15 C34.7497039,15.8697284 35.1034823,14.6048039 35.52,13.36 L35.65,13.1 C36.6819698,11.0805701 38.4560947,9.53941111 40.6,8.8 Z M30.07,8.88 C31.6178845,9.74613224 32.8636591,11.0651877 33.64,12.66 C33.52,12.96 33.31,13.66 32.82,15.52 C31.6651733,14.3853924 30.308577,13.4764729 28.82,12.84 C28.907742,11.4378604 29.3368597,10.0784154 30.07,8.88 L30.07,8.88 Z M42.91,44.71 C40.9255587,46.7039358 38.2861505,47.9117404 35.48,48.11 C30.5951497,48.3224917 25.7583265,49.1661627 21.09,50.62 C19.8426132,51.0761086 18.5356845,51.3489468 17.21,51.43 C14.34,51.43 12.21,50.73 10.76,49.29 C9.31,47.85 8.6,45.68 8.63,42.84 C8.70534632,41.5265484 8.97841927,40.2319803 9.44,39 C10.9101637,34.320064 11.7705947,29.4700567 12,24.57 C12.4296318,18.4756606 17.4905573,13.746313 23.6,13.73 C26.5461211,13.7390938 29.368678,14.9148595 31.45,17 L43.08,28.6 C45.2015917,30.7167868 46.3742534,33.6033387 46.33,36.6 C46.3050861,39.6487657 45.0757205,42.5640158 42.91,44.71 Z M46.45,29.71 C45.892578,28.7857792 45.2205872,27.9357108 44.45,27.18 L43.39,26.12 C44.61,25.7 46.16,25.12 46.68,24.91 C48.2936433,25.6832781 49.6281347,26.9374206 50.5,28.5 C49.2702506,29.2321294 47.8795261,29.6510637 46.45,29.72 L46.45,29.71 Z"/>
      <circle id="Oval" cx="15.46" cy="38.18" r="1" fill="#3D454C" fill-rule="nonzero"/>
    </g>
  </g>
</svg>
