<svg xmlns="http://www.w3.org/2000/svg" width="64" height="64" viewBox="0 0 64 64" style="background:#fff">
  <g id="Erdnussbutter" fill="none" fill-rule="evenodd" stroke="none" stroke-width="1">
    <rect width="64" height="64" fill="#FFF"/>
    <g transform="translate(2 5)">
      <g id="Layer_2">
        <rect id="Rectangle" width="60" height="60" x="0" y="1.09"/>
        <rect id="Rectangle" width="60" height="60" x="0" y=".79"/>
      </g>
      <g id="Layer_1" fill-rule="nonzero" transform="translate(7 5)">
        <path id="Path" fill="#DF9F75" d="M32.39,32.88 C33.05,29.74 34.33,27.33 32.48,24.27 C30.8,21.48 27.48,19.87 24.42,19.27 C20.68,18.54 17.07,18.52 13.36,17.47 C10.63,16.7 7.36,16.01 4.86,17.97 C4.35813421,18.368847 3.93434358,18.8570538 3.61,19.41 C1.9,19.57 0.55,20.51 0.61,22.47 C0.75,29.47 0.85,37.83 5.61,43.47 C9.83,48.47 19.02,50.98 25.36,49.79 C28.27,49.25 31.17,47.74 32.59,45.04 C34.74,40.86 31.5,37.16 32.39,32.88 Z" opacity=".5"/>
        <path id="Shape" fill="#3D454C" d="M21.25,34.94 C21.9495081,34.4762824 22.7244126,34.1378961 23.54,33.94 C24.3787692,33.7366894 25.179113,33.3989916 25.91,32.94 C26.929285,32.2643143 27.6296786,31.202893 27.85,30 C28.2152105,28.2044585 27.4627949,26.365728 25.9436332,25.3412789 C24.4244716,24.3168299 22.4377686,24.3084314 20.91,25.32 C20.1729905,25.8117927 19.5267659,26.427567 19,27.14 C18.4971122,27.811252 17.8812606,28.3898817 17.18,28.85 C16.5725579,29.2152577 15.8871173,29.4311714 15.18,29.48 C13.9373436,29.6152194 12.7428428,30.0362039 11.69,30.71 C9.9601812,31.8587689 9.0955194,33.9385702 9.50107242,35.975104 C9.90662544,38.0116378 11.5020672,39.6015368 13.54,40 C13.8691197,40.0681132 14.2039441,40.1049439 14.54,40.11 C15.5399959,40.11 16.5176563,39.8142524 17.35,39.26 C18.3853051,38.5579652 19.2415589,37.6229359 19.85,36.53 C20.1918649,35.9019556 20.6702803,35.3586125 21.25,34.94 L21.25,34.94 Z M18.19,35.48 C17.7346048,36.3252181 17.0830279,37.0488113 16.29,37.59 C14.8597634,38.5181195 12.9493426,38.1262383 12,36.71 C11.5415599,36.018451 11.3794716,35.1719898 11.55,34.36 C11.7046462,33.538251 12.1888349,32.8155813 12.89,32.36 C13.6971931,31.8364297 14.6212391,31.5203992 15.58,31.44 C16.5706426,31.3488284 17.526161,31.0268974 18.37,30.5 C19.2345191,29.9260868 19.9981583,29.2131317 20.63,28.39 C21.0060475,27.853585 21.469091,27.3837817 22,27 C22.4164239,26.7279734 22.9026039,26.5821193 23.4,26.58 C23.5696791,26.5652273 23.7403209,26.5652273 23.91,26.58 C24.5678524,26.7204701 25.1452456,27.111376 25.52,27.67 C26.2809327,28.8398981 25.9600602,30.4041517 24.8,31.18 C24.2501385,31.5521778 23.641676,31.8293663 23,32 C21.9917802,32.2557281 21.0346728,32.6818608 20.17,33.26 C19.3432811,33.8325029 18.6646016,34.5934466 18.19,35.48 L18.19,35.48 Z"/>
        <path id="Path" fill="#3D454C" d="M24.14 30.8C24.4121876 30.7989612 24.6721912 30.6870153 24.86 30.49 25.2477236 30.0999625 25.2477236 29.4700375 24.86 29.08 24.1587408 28.3125741 23.1788517 27.8586548 22.14 27.82 21.6112761 27.8517798 21.1990458 28.2903227 21.1999983 28.82 21.1999983 29.3722847 21.6477153 29.82 22.1999983 29.82 22.6968975 29.8920092 23.151266 30.1404919 23.48 30.52 23.6578312 30.6916991 23.8929546 30.7914485 24.14 30.8zM13.64 32.36C13.0877153 32.4815027 12.7384974 33.0277153 12.86 33.58 12.9815027 34.1322847 13.5277153 34.4815026 14.08 34.36 14.9058668 34.2049167 15.7435412 34.5644845 16.2 35.27 16.3839835 35.5493852 16.6954809 35.7182694 17.03 35.72 17.2266006 35.7222477 17.4189572 35.662792 17.58 35.55 18.0397438 35.2480393 18.1693122 34.6314725 17.87 34.17 16.9633096 32.7578235 15.2875509 32.0407731 13.64 32.36L13.64 32.36z"/>
        <path id="Shape" fill="#3D454C" d="M39.88,34.07 C39.2337735,33.4610979 38.6477313,32.7913354 38.13,32.07 L38.13,20.56 C38.2558293,18.187911 37.0174625,15.9518631 34.94,14.8 L34.63,14.58 C34.4476083,14.4780081 34.3168426,14.3036537 34.27,14.1 C35.6,13.39 36.27,12.55 36.27,11.58 C36.3055388,10.9480645 36.0857521,10.3283381 35.66,9.86 C35.6916276,8.48286348 35.5060172,7.10934668 35.11,5.79 C34.66,4.48 32.58,3.53 28.77,2.9 C28.52,2.52 28.27,2.14 28,1.77 C27.301446,0.840987653 26.0375707,0.546083414 25,1.07 L25.42,1.98 L24.97,1.09 L24.97,1.09 C24.4416324,1.35985734 24.0319452,1.81585695 23.82,2.37 C22.61,2.3 21.38,2.26 20.11,2.26 C18.65,2.26 6.45,2.36 5.11,5.71 L5.11,5.71 C4.67592958,7.04543566 4.479618,8.44669419 4.53,9.85 C4.10023732,10.315928 3.87982828,10.9374092 3.92,11.57 C3.92,12.57 4.71,13.44 5.92,14.1 C5.87758352,14.2974106 5.75422282,14.4679386 5.58,14.57 L5.26,14.79 C3.8376161,15.5960479 2.77828829,16.9166288 2.3,18.48 C2.30357146,18.5232597 2.30357146,18.5667403 2.3,18.61 C2.11921635,19.2449775 2.01843657,19.900046 2,20.56 L2,39.37 C2,39.45 2,39.55 2,39.66 C2,39.77 2,39.66 2,39.66 C1.98525308,39.7762007 1.98525308,39.8937993 2,40.01 C2.27,42.71 4.46,50.01 20,50.01 C26,50 30.56,49 33.67,46.92 C34.3563663,47.7671067 35.1382056,48.5321684 36,49.2 C37.23453,50.1617213 38.7367749,50.7172025 40.3,50.7902981 C41.6469945,50.8060474 42.9195576,50.1734868 43.72,49.09 C46.11,46 45.34,39.36 39.88,34.07 Z M36.13,20.56 L36.13,26.23 C35.74,23.66 35.24,20.37 34.41,16.87 C35.6132119,17.6944179 36.2723054,19.1084033 36.13,20.56 Z M33.6,8.42 C33.6,8.93 33.68,9.55 33.68,10.3 C33.6828816,10.5888137 33.8104973,10.8622761 34.03,11.05 C34.29,11.28 34.29,11.28 34.29,11.58 C34.29,11.66 34.03,12 33.18,12.42 C32.82,11.3 32.42,10.17 31.97,9.06 C32.530267,8.89260222 33.0755106,8.67851887 33.6,8.42 L33.6,8.42 Z M33.14,6.34 C32.5393092,6.76276902 31.8588161,7.0587835 31.14,7.21 C30.83,6.53 30.49,5.87 30.14,5.21 C31.2083551,5.37144096 32.2306224,5.75649496 33.14,6.34 L33.14,6.34 Z M20.06,4.26 C21.38,4.26 22.68,4.26 23.93,4.38 C23.98,4.46 24.02,4.55 24.07,4.62 C24.893165,5.72275058 25.6319297,6.88605426 26.28,8.1 C24.2138808,8.31781801 22.1375639,8.42463817 20.06,8.42 C12.48,8.42 7.77,7.14 6.97,6.34 C7.77,5.54 12.48,4.26 20.06,4.26 Z M6.35,16.46 L6.7,16.22 C7.1850252,15.8910739 7.55552544,15.4192103 7.76,14.87 C11.7707403,15.9410618 15.9090011,16.4591855 20.06,16.41 C20.6122847,16.41 21.06,15.9622847 21.06,15.41 C21.06,14.8577153 20.6122847,14.41 20.06,14.41 C13.48,14.41 9.28,13.41 7.26,12.58 C7.1838462,12.5354644 7.10345022,12.4986162 7.02,12.47 C6.27,12.12 5.87,11.8 5.84,11.58 C5.81,11.36 5.84,11.28 6.1,11.05 C6.31950266,10.8622761 6.44711843,10.5888137 6.45,10.3 C6.45,9.54 6.45,8.92 6.53,8.4 C10.19,10.35 18.84,10.4 20.06,10.4 C22.4492302,10.4114151 24.8369517,10.2778363 27.21,10 C28.7089253,13.3549123 29.6318445,16.9384083 29.94,20.6 C26.6771072,21.0936091 23.3798393,21.324351 20.08,21.29 C9.76,21.29 4.74,19.74 4.25,18.91 C4.61967815,17.8598545 5.36874814,16.9859395 6.35,16.46 Z M4,39.71 C4,39.58 4,39.46 4,39.37 L4,21.1 C7.85,23.1 16.8,23.29 20,23.29 C23.345867,23.3210567 26.6891374,23.0937143 30,22.61 C30.0736489,24.5596848 29.996754,26.5121461 29.77,28.45 C29.1529754,32.8409477 29.4941265,37.3134381 30.77,41.56 C27.2216322,42.1559454 23.6279359,42.4403627 20.03,42.41 C10.18,42.41 4.49,40.66 4,39.71 Z M20.1,48 C10.16,48 6.36,45 4.91,42.42 C8.72,43.91 15.49,44.42 20.08,44.42 C23.9260183,44.4417732 27.7657761,44.1070079 31.55,43.42 C31.8448374,44.0502606 32.1788233,44.6614548 32.55,45.25 C29.75,47.1 25.59,48 20.1,48 Z M42.1,47.83 C40.41,50 37.31,47.69 37.18,47.59 C32.71,44.1 30.8,37.37 31.81,28.64 C33.28,15.82 28.59,7.32 25.67,3.4 C25.6003959,3.31665679 25.5778051,3.203703 25.61,3.1 C25.6352063,2.98814756 25.7083554,2.89305376 25.81,2.84 L25.89,2.84 C25.9520465,2.82194436 26.0179535,2.82194436 26.08,2.84 C26.2074945,2.83280425 26.3292599,2.89368695 26.4,3 C31.67,10.21 33.16,20.06 34.14,26.58 C34.23,27.22 34.33,27.83 34.41,28.39 C34.9860146,31.1481299 36.4130603,33.6559529 38.49,35.56 C43.35,40.22 43.72,45.8 42.11,47.86 L42.1,47.83 Z"/>
        <path id="Path" fill="#3D454C" d="M25,16.26 C25.5522847,16.26 26,15.8122847 26,15.26 C26,14.7077153 25.5522847,14.26 25,14.26 C24.4477153,14.26 24,14.7077153 24,15.26 C24,15.8122847 24.4477153,16.26 25,16.26 Z"/>
      </g>
    </g>
  </g>
</svg>
