<svg xmlns="http://www.w3.org/2000/svg" width="64" height="64" viewBox="0 0 64 64" style="background:#fff">
  <g id="Erdnussöl" fill="none" fill-rule="evenodd" stroke="none" stroke-width="1">
    <rect width="64" height="64" fill="#FFF"/>
    <g transform="translate(2 4)">
      <rect id="Rectangle" width="60" height="60" x="0" y="0"/>
      <path id="Path" fill="#E0A075" fill-rule="nonzero" d="M50.25 11.18C43.43 6.83 33.7 11.32 33.7398771 19.69 33.7398771 23.58 41.74 23.46 41.74 19.55 41.74 17.91 42.99 14.17 45.19 15.75 47.04 17.09 46.66 20.61 44.25 20.93 42.56 21.15 40.9 22.81 41.52 24.57 42.2 26.52 44.79 26.74 46.47 26.52 54.38 25.48 57.14 15.58 50.25 11.18zM48.87 32.47C47.92 25.17 32.95 25.6 33.87 32.73 34.66 38.86 32.23 49.04 24.3 48.92 16.68 48.8 14.77 38.69 18.71 33.58 23.91 26.84 9.87 22.84 5.71 28.28-4.29 41.28 5.8 57.86 20.86 59.62 36.77 61.48 51 48.89 48.87 32.47z" opacity=".5"/>
      <path id="Shape" fill="#3D454C" fill-rule="nonzero" d="M25.34,51.45 C25.34,57.05 21.4,56.87 17.1,56.87 C13.46,56.87 9.8,56.62 9.8,52.27 L9.8,27.21 C9.8,23.84 9.27,21.04 11.68,18.21 C14.27,15.21 15.11,14.4 14.78,10.15 C14.78,10.02 14.78,9.88 14.78,9.74 L20.53,9.74 C20.4576686,10.1630155 20.4175533,10.5909115 20.41,11.02 C20.41,12.72 20.12,14.38 21.08,15.88 C22.6,18.25 24.8,18.61 25.39,21.88 C25.98,25.15 25.39,29.17 25.39,32.45 C25.39,33.0022847 25.8377153,33.45 26.39,33.45 C26.9422847,33.45 27.39,33.0022847 27.39,32.45 C27.39,28.77 27.98,24.35 27.25,20.71 C26.65,17.71 24.15,17.21 22.85,14.83 C22.4375056,13.9471524 22.2683407,12.9701392 22.36,12 C22.3099942,11.2908805 22.3099942,10.5791195 22.36,9.87 C22.43,9.39 22.57,8.92 22.53,9.19 C23.12,5.75 24.06,1.61 19.24,0.91 C14.79,0.22 11.7,1.85 12,6.59 C12.1412837,7.57827755 12.4032391,8.54549754 12.78,9.47 C13.39,12.62 12.62,14.47 10.51,16.6 C7.65,19.49 7.8,22 7.8,25.78 L7.8,43.44 C7.8,47 7.27,51 7.8,54.5 C8.61,59.78 14.28,58.87 18.3,58.87 C20.6,58.87 23.36,59.3 25.37,57.93 C27.67,56.36 27.37,53.93 27.37,51.45 C27.37,50.889431 26.915569,50.435 26.355,50.435 C25.794431,50.435 25.34,50.889431 25.34,51.45 Z M17.79,2.87 C21.35,2.87 21.26,5.31 20.79,7.78 L14.4,7.78 C14,5.28 13.77,2.83 17.79,2.87 Z"/>
      <path id="Shape" fill="#3D454C" fill-rule="nonzero" d="M18.71 29.51L18.71 29.44C18.71 29.44 18.71 29.44 18.71 29.44L18.71 29.39C18.5278206 29.1379495 18.2306345 28.9949992 17.92 29.01 17.608721 29.0052351 17.3129791 29.1457125 17.12 29.39L17.12 29.44 17.12 29.44 17.12 29.5C17.12 29.5 17.12 29.5 17.12 29.5 15.37 32.17 13.05 35.39 12.61 38.62 12.3798687 40.2252971 12.8383199 41.853134 13.872386 43.1023924 14.906452 44.3516508 16.4199732 45.10616 18.04 45.18 19.6355492 45.1021114 21.1274081 44.3662383 22.1602871 43.1476306 23.1931661 41.9290228 23.6746238 40.3367444 23.49 38.75 23.1 35.48 20.72 32.19 18.96 29.49L18.71 29.51zM17.81 43.21C13.31 43.21 14.36 38.21 15.61 35.69 16.2693005 34.3612512 17.0003802 33.0693433 17.8 31.82 18.52 32.98 19.22 34.15 19.85 35.37 21.14 37.88 22.52 43.21 17.81 43.21L17.81 43.21zM52.4 15.12C50.7493985 11.806138 47.2662679 9.81167919 43.5727948 10.0654961 39.8793216 10.3193129 36.701766 12.7714966 35.52 16.28 34.9506918 18.0634951 34.6770763 19.9281339 34.71 21.8 34.7460177 23.8646733 34.4315575 25.9204986 33.78 27.88 33.1366814 29.5749034 32.109901 31.0979611 30.78 32.33 28.8365608 34.1915043 27.3628193 36.4877993 26.48 39.03 25.4002182 42.2442805 25.9359362 45.7819598 27.9189727 48.5324314 29.9020092 51.282903 33.0892113 52.9089139 36.48 52.9000365 41.0052958 52.8995393 45.0272772 50.0157786 46.48 45.73 47.2772249 43.1579726 47.4553993 40.43396 47 37.78 46.6744106 35.9925852 46.7702845 34.1538607 47.28 32.41 47.9328433 30.4532465 48.9171747 28.6232696 50.19 27 51.3466027 25.5271171 52.2552001 23.8754289 52.88 22.11 53.6515306 19.8083149 53.478916 17.2946158 52.4 15.12zM51 21.47C50.4422512 23.046134 49.6279548 24.5193009 48.59 25.83 47.1926724 27.6132052 46.1104222 29.622132 45.39 31.77 44.7823281 33.7889879 44.6488641 35.9209904 45 38 45.3919146 40.3744271 45.2136803 42.8080109 44.48 45.1 42.9759308 49.5501464 38.1537584 51.9433396 33.7 50.45 29.2458573 48.9501013 26.8475525 44.1266449 28.34 39.67 29.13739 37.3921122 30.4636894 35.335834 32.21 33.67 33.7481209 32.2378494 34.9325759 30.4680135 35.67 28.5 36.3755161 26.348595 36.7135794 24.0937131 36.67 21.83 36.6287535 20.1584923 36.8687639 18.4919412 37.38 16.9 38.3524958 13.9665732 41.0995891 11.9899569 44.19 11.9999619 44.9691622 11.9983349 45.7431352 12.1267671 46.48 12.38 50.1943634 13.6382356 52.2020296 17.6535679 50.98 21.38L51 21.47z"/>
      <path id="Path" fill="#3D454C" fill-rule="nonzero" d="M48.17 17.35C46.4780946 17.159493 44.7677171 17.2099963 43.09 17.5 43.17 17.34 43.25 17.18 43.35 17.02 43.5905746 16.7224822 43.6402979 16.3137727 43.4780766 15.967251 43.3158553 15.6207293 42.9701294 15.3971461 42.58756 15.3912326 42.2049905 15.38555 41.8526479 15.5985535 41.68 15.94 41.2617052 16.5856304 40.9257668 17.2810228 40.68 18.01 40.68 18.07 40.68 18.12 40.68 18.17 39.7970815 18.4785991 38.969772 18.9277099 38.23 19.5 37.9131408 19.7709249 37.7976023 20.2099981 37.9400727 20.6017917 38.0825431 20.9935854 38.4531269 21.2558869 38.87 21.26 39.1083445 21.2600183 39.3388582 21.1749056 39.52 21.02 39.7064127 20.8751156 39.9036572 20.7447337 40.11 20.63 39.9855962 21.5916948 39.9221363 22.5602946 39.92 23.53 39.92 23.77 39.92 24.02 39.92 24.27 39.0868932 24.6601818 38.3044559 25.1504644 37.59 25.73 37.3884238 25.9023833 37.2635881 26.1477863 37.2429588 26.4122166 37.2223295 26.676647 37.3075966 26.938441 37.48 27.14 37.6700027 27.3621378 37.9476882 27.4900192 38.24 27.49 38.4783445 27.4900183 38.7088582 27.4049056 38.89 27.25 39.1485753 27.029048 39.4263425 26.8315991 39.72 26.66 39.5676467 27.6626779 39.3267036 28.6498754 39 29.61 38.3573296 31.3052392 37.3304553 32.8284361 36 34.06 35.0315688 35.0451294 34.1546318 36.1161974 33.38 37.26 32.0574082 37.8430073 30.8794937 38.7102255 29.93 39.8 29.5792992 40.2280207 29.6419794 40.8592992 30.07 41.21 30.4980207 41.5607008 31.1292992 41.4980207 31.48 41.07L31.66 40.86C31.3564465 41.7949328 31.1847925 42.7676388 31.15 43.75 31.15 44.3022847 31.5977153 44.75 32.15 44.75L32.15 44.75C32.7022847 44.75 33.15 44.3022847 33.15 43.75 33.1819902 42.9266399 33.3301201 42.1119256 33.59 41.33 33.8891658 40.4428517 34.2778346 39.5884504 34.75 38.78 36.4000667 38.1775687 38.2099333 38.1775687 39.86 38.78 40.1994023 38.8925387 40.5730616 38.8154597 40.8402241 38.577798 41.1073866 38.3401363 41.2274639 37.9779984 41.1552241 37.627798 41.0829843 37.2775976 40.8294023 36.9925387 40.49 36.88 39.2046197 36.4430281 37.8428485 36.2762111 36.49 36.39 36.8 36.04 37.12 35.71 37.43 35.39 38.9629932 33.9515726 40.1435883 32.1789691 40.88 30.21 41.4076319 28.7220011 41.743667 27.1728793 41.88 25.6 42.750786 25.3041776 43.6763359 25.2051335 44.59 25.31 44.9472656 25.3546582 45.3012175 25.2053252 45.5185254 24.9182532 45.7358334 24.6311812 45.7834831 24.2499834 45.6435255 23.9182532 45.5035678 23.586523 45.1972656 23.3546582 44.84 23.31 43.8803141 23.1961568 42.9079416 23.2571419 41.97 23.49 41.9586663 22.2089523 42.0928595 20.9307617 42.37 19.68 44.2079435 19.2095069 46.1187935 19.0941092 48 19.34 48.5522847 19.3979899 49.0470101 18.9972847 49.105 18.445 49.1629899 17.8927153 48.7622847 17.3979899 48.21 17.34L48.17 17.35zM32.67 46.38C32.2036564 46.2274275 31.7010393 46.476512 31.54 46.94 31.4037574 47.2520621 31.4552956 47.6142943 31.6731697 47.8759729 31.8910437 48.1376515 32.2379437 48.253965 32.5695253 48.1765157 32.901107 48.0990664 33.1605884 47.8411172 33.24 47.51 33.3156409 47.284597 33.2979499 47.0382993 33.1908713 46.8260207 33.0837927 46.613742 32.8962295 46.4531321 32.67 46.38L32.67 46.38z"/>
    </g>
  </g>
</svg>
