<svg xmlns="http://www.w3.org/2000/svg" width="64" height="64" viewBox="0 0 64 64" style="background:#fff">
  <g id="Erdnüsse" fill="none" fill-rule="evenodd" stroke="none" stroke-width="1">
    <rect width="64" height="64" fill="#FFF"/>
    <g transform="translate(2 4)">
      <rect id="Rectangle" width="60" height="60" x="0" y="0"/>
      <path id="Path" fill="#E0A075" fill-rule="nonzero" d="M55.9,39.67 C54.06,34.53 42.28,36.32 44.37,42.14 C45.78,46.14 42.07,51.69 38.55,46.88 C35.03,42.07 39.22,37.76 41.43,33.59 C43.4904227,30.1815651 43.2604962,25.8605328 40.85,22.69 C39.45,20.69 37.78,19 38.56,16.31 C39.34,13.62 40.81,13.5 42.73,15.2 C46.94,18.94 56.62,13.89 51.1,9 C44.1,2.79 30.72,4.41 27.19,13.61 C25.53,17.94 26.74,21.92 29.35,25.61 C31.55,28.67 30.67,30.01 28.77,33.02 C27.4691684,34.8548855 26.4574094,36.8784034 25.77,39.02 C23.4218872,38.5498823 20.9841188,38.873511 18.84,39.94 C19.8673793,38.0856766 20.5963093,36.0811193 21,34 C21.63,29.93 20.06,26.81 18.22,23.28 C17.22,21.28 14.51,14.28 19.09,13.98 C22.24,13.76 26.5,12.23 26.49,8.51 C26.49,5.01 21.92,3.07 18.9,3.28 C9.68,3.92 0.3,10 1.61,20.12 C2.15,24.35 5.85,27.63 6.23,31.72 C6.58,35.38 3.16,39 2.18,42.4 C-0.26,51 6.59,58.14 15.32,58.47 C21.19,58.7 26.26,56.06 28.75,51.8 C31.867479,55.305638 36.3094451,57.3471294 41,57.43 C50.86,57.63 59.4,49.44 55.9,39.67 Z" opacity=".5"/>
      <path id="Path" fill="#3D454C" fill-rule="nonzero" d="M53.79,39.44 C53.5828932,38.9263752 52.9986248,38.6778933 52.485,38.8850001 C51.9713752,39.0921068 51.7228933,39.6763752 51.93,40.19 C52.3572371,41.3625471 52.6033931,42.5933268 52.66,43.84 C52.7169198,46.3324891 51.7565193,48.7407115 50,50.51 C48.1577876,52.3926664 45.6340411,53.45264 43,53.45 C37.6798807,53.4444812 33.3699971,49.1301222 33.37,43.81 C33.4087698,41.1009163 34.0944866,38.4403353 35.37,36.05 C36.4774938,33.9951452 37.0968352,31.7128211 37.18,29.38 C37.1783255,26.8666202 36.7523394,24.371559 35.92,22 C35.2866764,20.2306223 34.9488295,18.3690863 34.92,16.49 C34.8158254,13.5228508 36.3393474,10.7354019 38.8930157,9.22093667 C41.446684,7.70647142 44.623316,7.70647142 47.1769843,9.22093667 C49.7306526,10.7354019 51.2541746,13.5228508 51.15,16.49 C51.1211705,18.3690863 50.7833236,20.2306223 50.15,22 C49.3120354,24.377306 48.8826334,26.8793331 48.88,29.4 C48.8826797,30.4782724 49.0306786,31.5512644 49.32,32.59 C49.3901124,32.8460417 49.5591555,33.0636979 49.7898766,33.1950026 C50.0205976,33.3263072 50.2940602,33.3604836 50.55,33.29 C50.8082964,33.2200198 51.0277673,33.0494314 51.1593221,32.8163915 C51.2908769,32.5833516 51.323538,32.3073061 51.25,32.05 C51.0033085,31.1883243 50.8787607,30.2962924 50.88,29.4 C50.8639207,27.0763404 51.24264,24.7668292 52,22.57 C52.6980988,20.6105869 53.0697093,18.5498375 53.1,16.47 C53.216024,12.7804169 51.3138939,9.32034529 48.1365575,7.44124502 C44.959221,5.56214475 41.010779,5.56214475 37.8334425,7.44124502 C34.6561061,9.32034529 32.753976,12.7804169 32.87,16.47 C32.9002907,18.5498375 33.2719012,20.6105869 33.97,22.57 C34.7455407,24.7569555 35.1445323,27.0596104 35.15,29.38 C35.0642735,31.4263152 34.5064014,33.4250718 33.52,35.22 C32.1255547,37.8706776 31.3817424,40.8150773 31.35,43.81 C31.3555195,50.2402117 36.5697859,55.45 43,55.45 C46.1641542,55.4432247 49.1934881,54.1680949 51.41,51.91 C53.5427357,49.7529998 54.7084083,46.8225784 54.64,43.79 C54.5764738,42.3055717 54.2899323,40.8391536 53.79,39.44 L53.79,39.44 Z"/>
      <path id="Shape" fill="#3D454C" fill-rule="nonzero" d="M43 50.89C46.910176 50.89 50.08 47.720176 50.08 43.81 50.08 36.81 47.24 32.18 43 32.18 38.76 32.18 36 36.85 36 43.81 35.9997524 47.689146 39.1211017 50.8461679 43 50.89zM43 34.18C46 34.18 48.08 38.05 48.08 43.81 48.1628899 45.6768643 47.2141379 47.4385097 45.6097892 48.3966945 44.0054405 49.3548793 42.0045595 49.3548793 40.4002108 48.3966945 38.7958621 47.4385097 37.8471101 45.6768643 37.93 43.81 38 38.14 40 34.18 43 34.18zM43 27.34C44.3706241 27.3981752 45.7037157 26.8837757 46.68 25.92 48.68 23.83 48.68 20.01 48.58 17.48 48.58 17.11 48.58 16.77 48.58 16.48 48.666609 14.4391672 47.627182 12.5151788 45.8727936 11.4689375 44.1184052 10.4226962 41.9315948 10.4226962 40.1772064 11.4689375 38.422818 12.5151788 37.383391 14.4391672 37.47 16.48 37.47 16.78 37.47 17.12 37.47 17.48 37.41 20.01 37.33 23.83 39.37 25.92 40.3335635 26.8718834 41.6463108 27.3854099 43 27.34L43 27.34zM39.43 17.53C39.43 17.14 39.43 16.78 39.43 16.47 39.360228 15.1549319 40.0221345 13.908772 41.1508072 13.2302661 42.2794799 12.5517602 43.6905201 12.5517602 44.8191928 13.2302661 45.9478655 13.908772 46.609772 15.1549319 46.54 16.47 46.54 16.78 46.54 17.14 46.54 17.52 46.54 19.72 46.66 23.03 45.21 24.52 43.9134854 25.6146431 42.0165146 25.6146431 40.72 24.52 39.32 23 39.4 19.72 39.45 17.53L39.43 17.53zM26.66 35.22C25.6631323 33.4276334 25.0949517 31.4287331 25 29.38 25.0054677 27.0596104 25.4044593 24.7569555 26.18 22.57 26.8780988 20.6105869 27.2497093 18.5498375 27.28 16.47 27.396024 12.7804169 25.4938939 9.32034529 22.3165575 7.44124502 19.139221 5.56214475 15.190779 5.56214475 12.0134425 7.44124502 8.83610607 9.32034529 6.93397595 12.7804169 7.05 16.47 7.08029067 18.5498375 7.45190121 20.6105869 8.15 22.57 8.92554068 24.7569555 9.32453227 27.0596104 9.33 29.38 9.24427353 31.4263152 8.68640137 33.4250718 7.7 35.22 6.30555467 37.8706776 5.56174242 40.8150773 5.53 43.81 5.40573846 48.0481202 7.5957784 52.0185835 11.2467873 54.1743288 14.8977961 56.3300741 19.4322039 56.3300741 23.0832127 54.1743288 26.7342216 52.0185835 28.9242615 48.0481202 28.8 43.81 28.7775214 40.817532 28.0440265 37.8732698 26.66 35.22L26.66 35.22zM17.2 53.45C11.8782598 53.4444881 7.56551191 49.1317402 7.56 43.81 7.5987698 41.1009163 8.28448656 38.4403353 9.56 36.05 10.6674938 33.9951452 11.2868352 31.7128211 11.37 29.38 11.3619 26.8654776 10.9291467 24.3703842 10.09 22 9.45667636 20.2306223 9.11882954 18.3690863 9.09 16.49 8.98582536 13.5228508 10.5093474 10.7354019 13.0630157 9.22093667 15.616684 7.70647142 18.793316 7.70647142 21.3469843 9.22093667 23.9006526 10.7354019 25.4241746 13.5228508 25.32 16.49 25.2911705 18.3690863 24.9533236 20.2306223 24.32 22 23.4672305 24.3680292 23.0209418 26.8631886 23 29.38 23.0831648 31.7128211 23.7025062 33.9951452 24.81 36.05 26.0855134 38.4403353 26.7712302 41.1009163 26.81 43.81 26.81 49.1223312 22.5123055 53.4334678 17.2 53.45z"/>
      <path id="Path" fill="#3D454C" fill-rule="nonzero" d="M20.78,13.21 C18.8418519,13.6188844 16.9771863,14.3202414 15.25,15.29 C15.2869816,15.0038317 15.3404033,14.720029 15.41,14.44 C15.5329051,14.084421 15.4458365,13.6899502 15.1846742,13.4191435 C14.9235118,13.1483367 14.5324562,13.047027 14.1726559,13.1569626 C13.8128556,13.2668981 13.5452053,13.5694729 13.48,13.94 C13.2679151,14.766626 13.1604084,15.6166007 13.16,16.47 L13.16,16.7 C12.3247308,17.3496277 11.5959619,18.1256315 11,19 C10.7166791,19.4723694 10.8686964,20.0849097 11.34,20.37 C11.4985634,20.460235 11.6775658,20.5084279 11.86,20.51 C12.2074864,20.5085504 12.5293085,20.3268156 12.71,20.03 C12.9107819,19.7480436 13.1313369,19.4807043 13.37,19.23 C13.590913,20.3634771 13.8814636,21.4822639 14.24,22.58 C14.33,22.86 14.42,23.15 14.5,23.44 C13.7375461,24.1550602 13.0658462,24.9611 12.5,25.84 C12.2166791,26.3123694 12.3686964,26.9249097 12.84,27.21 C12.9985634,27.300235 13.1775658,27.3484279 13.36,27.35 C13.7110473,27.3520443 14.0374583,27.1698614 14.22,26.87 C14.4662683,26.4662638 14.7473368,26.0848137 15.06,25.73 C15.2903676,26.9362843 15.4042247,28.161923 15.4,29.39 C15.3142735,31.4363152 14.7564014,33.4350718 13.77,35.23 C13.0848217,36.6319794 12.532411,38.0950307 12.12,39.6 C10.9597657,40.6961412 10.0284639,42.01152 9.38,43.47 C9.29088761,43.7218942 9.30628708,43.9989745 9.42276379,44.2394425 C9.53924051,44.4799106 9.74710628,44.663765 10,44.75 C10.1121529,44.7907202 10.2306881,44.8110405 10.35,44.81 C10.7684725,44.8113593 11.1435361,44.5520069 11.29,44.16 C11.392087,43.9099412 11.5089601,43.6661773 11.64,43.43 C11.64,43.56 11.64,43.68 11.64,43.81 C11.6381749,44.937368 11.7998576,46.0590417 12.12,47.14 C12.2520515,47.5772829 12.6636301,47.8695036 13.12,47.85 C13.2127618,47.8646074 13.3072382,47.8646074 13.4,47.85 C13.9189865,47.6620467 14.1875381,47.0891367 14,46.57 C13.7316191,45.6746867 13.5968337,44.744668 13.6,43.81 C13.6263432,42.7458664 13.7603599,41.687134 14,40.65 C15.5570336,39.3820253 17.5122844,38.7054802 19.52,38.74 C20.0722847,38.74 20.52,38.2922847 20.52,37.74 C20.52,37.1877153 20.0722847,36.74 19.52,36.74 C17.9342887,36.7241312 16.3653994,37.0659371 14.93,37.74 C15.16,37.16 15.42,36.61 15.67,36.06 C16.7774938,34.0051452 17.3968352,31.7228211 17.48,29.39 C17.4887349,27.6161098 17.2702919,25.8484021 16.83,24.13 C17.6762592,23.4670671 18.660402,23.002333 19.71,22.77 C20.0672656,22.7003332 20.3602258,22.4453595 20.4785254,22.101125 C20.596825,21.7568906 20.5224914,21.3756927 20.2835254,21.101125 C20.0445594,20.8265574 19.6772656,20.7003332 19.32,20.77 C18.2249069,21.003935 17.1835111,21.4415248 16.25,22.06 L16.25,21.95 C15.7551325,20.559094 15.4196541,19.1165371 15.25,17.65 C17.0690599,16.4314589 19.106382,15.5757836 21.25,15.13 C21.6158874,15.070621 21.9189132,14.8137228 22.0373702,14.4624859 C22.1558272,14.111249 22.0702799,13.7233018 21.8150875,13.4544594 C21.559895,13.185617 21.1769275,13.0799891 20.82,13.18 L20.78,13.21 Z"/>
      <circle id="Oval" cx="14.66" cy="50.38" r="1" fill="#3D454C" fill-rule="nonzero"/>
    </g>
  </g>
</svg>
