<svg xmlns="http://www.w3.org/2000/svg" width="64" height="64" viewBox="0 0 64 64" style="background:#fff">
  <g id="Essiggurken" fill="none" fill-rule="evenodd" stroke="none" stroke-width="1">
    <rect width="64" height="64" fill="#FFF"/>
    <g transform="translate(2 7)">
      <rect id="Rectangle" width="60" height="60" x="0" y="0"/>
      <path id="Path" fill="#E05362" fill-rule="nonzero" d="M31.76,24 C28.76,24 24.85,25.83 24.85,29.24 C24.85,32.65 29.11,34.24 31.94,34.24 C34.77,34.24 38.85,32.4 38.85,29 C38.85,25.6 34.59,24 31.76,24 Z" opacity=".5"/>
      <path id="Path" fill="#BAB41D" fill-rule="nonzero" d="M27.77,40 C25.241549,38.8187458 23.861388,36.0501345 24.44,33.32 C25.04,30.7 22.94,28.9 20.51,28.45 C18.39,28.05 14.4,28.75 13.79,31.37 C12.2767833,37.9925781 15.9471381,44.7022441 22.34,47 C24.75,47.93 28.17,47.63 29.84,45.43 C31.51,43.23 30,40.84 27.77,40 Z" opacity=".5"/>
      <path id="Path" fill="#31E085" fill-rule="nonzero" d="M38.35,33.18 C38.5322858,36.995618 36.6141107,40.6056235 33.35,42.59 C32.6663862,43.0613392 32.264022,43.843526 32.2780938,44.6737611 C32.2921656,45.5039963 32.7208059,46.2720982 33.42,46.72 C35.1544574,47.8302116 37.385843,47.7907878 39.08,46.62 C43.7420662,43.6857116 46.5066508,38.5063935 46.35,33 C46.24,29.14 38.24,29.28 38.35,33.18 Z" opacity=".5"/>
      <path id="Shape" fill="#3D454C" fill-rule="nonzero" d="M45.39,17.23 C45.18,17 44.99,16.8 44.83,16.61 C43.12,14.61 43.89,13.41 44.26,13 C45.6,12.56 46.18,12 46.18,11.22 L46.18,8.22 C46.18,6.97 44.69,6.27 40.86,5.74 C37.2564736,5.30977668 33.628926,5.11269997 30,5.15 C26.3604336,5.12183461 22.7228516,5.32893294 19.11,5.77 C15.27,6.3 13.77,7 13.77,8.25 L13.77,11.25 C13.77,12.04 14.37,12.6 15.77,13.05 C16.0503526,13.375128 16.2186464,13.7818379 16.25,14.21 C16.2333089,15.1286087 15.8519477,16.0028612 15.19,16.64 C15.03,16.83 14.84,17.03 14.63,17.26 C11.42,20.7 4,28.85 15.61,49 C15.8086666,49.3133539 15.9697741,49.6489946 16.09,50 C16.4,51.19 18.32,55.08 30,55.08 C41.68,55.08 43.6,51.19 43.91,50 C44.0302259,49.6489946 44.1913334,49.3133539 44.39,49 C56.05,28.85 48.58,20.7 45.39,17.23 Z M15.77,10.9 L15.77,10.05 C18.4368166,10.7440072 21.1750894,11.1265601 23.93,11.19 L25.32,11.25 L26.2,11.25 L26.25,11.25 C26.8022847,11.25 27.25,10.8022847 27.25,10.25 C27.2506671,9.71666651 26.8326668,9.27666628 26.3,9.25 L25.4,9.25 L24,9.19 C21.5324597,9.10890586 19.0781559,8.79416567 16.67,8.25 C18.67,7.74 23.08,7.15 29.94,7.15 C34.3591623,7.02667197 38.778601,7.38545796 43.12,8.22 C40.2590693,8.82175358 37.3516942,9.17639312 34.43,9.28 C34.1558887,9.27965714 33.8936536,9.39184953 33.7046112,9.59034405 C33.5155689,9.78883856 33.4162942,10.0562314 33.43,10.33 C33.4428732,10.5971684 33.5622421,10.8480439 33.7614305,11.0265618 C33.9606189,11.2050797 34.2230224,11.2963587 34.49,11.28 C39.66,11 42.49,10.51 44.13,9.99 L44.13,10.9 C43.13,11.44 38.3,12.32 29.93,12.32 C22.93,12.32 18.47,11.71 16.56,11.19 L16.56,11.19 C16.2882561,11.1180005 16.0237869,11.0209169 15.77,10.9 L15.77,10.9 Z M18.22,14 C18.2072012,13.8353343 18.1838195,13.6716628 18.15,13.51 L19.09,13.66 C22.7086048,14.1152982 26.3528985,14.3357596 30,14.32 C33.6362429,14.3482087 37.2705013,14.1411094 40.88,13.7 L41.88,13.54 C41.88,13.7 41.82,13.87 41.8,14.04 C41.7682559,15.4901705 42.3278097,16.89086 43.35,17.92 L43.62,18.22 C42.37,18.75 37.79,19.54 30.01,19.54 C22.23,19.54 17.72,18.77 16.43,18.24 L16.71,17.92 C17.7328068,16.8777547 18.2792888,15.459073 18.22,14 Z M42.66,48 C42.3723796,48.4887257 42.1504665,49.0132476 42,49.56 C41.68,50.8 38.76,53.15 30,53.15 C21.24,53.15 18.35,50.8 18,49.56 C17.8495335,49.0132476 17.6276204,48.4887257 17.34,48 C7.53,31 11.8,23.56 15.04,19.73 C17.83,21.43 27.84,21.52 29.98,21.52 C32.12,21.52 42.2,21.43 44.98,19.72 C48.19,23.55 52.48,31 42.66,48 Z"/>
      <path id="Path" fill="#3D454C" fill-rule="nonzero" d="M42.38,32.84 C42.1244792,32.9182264 41.9108975,33.0954689 41.7869024,33.332187 C41.6629072,33.568905 41.6388148,33.8454038 41.72,34.1 C42.3398347,36.4832098 42.0585371,39.0113274 40.93,41.2 C39.14,44.86 35.4,46.2 32.83,45.43 C32.4851066,45.3117 32.1031618,45.390495 31.8332448,45.6356299 C31.5633278,45.8807649 31.4482267,46.2533803 31.5328674,46.6080382 C31.617508,46.9626962 31.8884729,47.2431753 32.24,47.34 C32.9426363,47.5584392 33.674192,47.6696896 34.41,47.67 C38.0139108,47.5196289 41.2286325,45.3597378 42.73,42.08 C44.0983552,39.4349602 44.4197066,36.3714099 43.63,33.5 C43.4668576,32.9727492 42.9074055,32.6773585 42.38,32.84 Z"/>
      <path id="Shape" fill="#3D454C" fill-rule="nonzero" d="M37.38 36.13C36.5987645 35.6886473 35.6737751 35.5770727 34.81 35.82 32.5887132 36.4704592 31.2687412 38.7496108 31.81 41 32.048733 41.8448744 32.6086743 42.5627479 33.37 43 33.8647563 43.2873602 34.4278771 43.4359135 35 43.43 35.3138277 43.4294952 35.6263231 43.3891732 35.93 43.31 36.9994623 43.0038816 37.9027917 42.2840972 38.44 41.31 39.5427426 39.5802611 39.0735717 37.2875201 37.38 36.13L37.38 36.13zM36.75 40.37L36.75 40.37C36.4703078 40.8783678 36.0042648 41.2583722 35.45 41.43 35.0982357 41.5343516 34.7191495 41.4910275 34.4 41.31 34.0866793 41.1271002 33.8624494 40.8233048 33.78 40.47 33.5306807 39.2982407 34.2027097 38.1264979 35.34 37.75 35.4761286 37.7328494 35.6138714 37.7328494 35.75 37.75 35.9703792 37.7473166 36.1876075 37.8024857 36.38 37.91 37.1274037 38.5072202 37.2886586 39.5793477 36.75 40.37L36.75 40.37zM28 29.61C27.1232947 30.6545828 26.9331556 32.1132713 27.5127946 33.3476878 28.0924336 34.5821042 29.3362881 35.3674391 30.7 35.3600524 30.9764491 35.3612505 31.2519536 35.3276524 31.52 35.26 32.5287871 35.0166081 33.3781665 34.3393013 33.84 33.41 33.9594894 33.1681302 34.0501121 32.913044 34.11 32.65 34.4910033 32.7097726 34.8789967 32.7097726 35.26 32.65 36.4352598 32.5040892 37.4616654 31.7848561 38 30.73 38.6026932 29.4578809 38.3870898 27.9487506 37.4522926 26.8962867 36.5174955 25.8438227 35.0443526 25.4516373 33.71 25.9L33.71 25.9C33.6827501 25.8143602 33.6493293 25.730808 33.61 25.65 33.2228476 24.6927279 32.4294745 23.9576094 31.4455115 23.6444424 30.4615484 23.3312754 29.3892294 23.4725979 28.52 24.03 27.7500731 24.490894 27.1957531 25.2398181 26.9798845 26.1108011 26.7640158 26.9817841 26.9044266 27.9028937 27.37 28.67 27.5329346 29.0124372 27.7451915 29.3291379 28 29.61L28 29.61zM29.52 25.75C29.7752424 25.5907316 30.0691732 25.5042813 30.37 25.5 30.5131199 25.4972189 30.6555183 25.520952 30.79 25.57 31.2049056 25.7091249 31.5376746 26.02361 31.7 26.43 31.8797753 26.8202932 31.8797753 27.2697068 31.7 27.66L31.7 27.66C31.4744848 28.1509683 31.6797267 28.7322858 32.1635108 28.9728266 32.647295 29.2133673 33.2346623 29.0261403 33.49 28.55L33.49 28.55C33.6686805 28.1920438 33.9812824 27.9189663 34.36 27.79 34.7383909 27.6601449 35.1532336 27.6890035 35.51 27.87 36.2466548 28.237185 36.553537 29.1266988 36.2 29.87 35.9516015 30.316739 35.4989218 30.6122902 34.99 30.66 34.5543327 30.7657516 34.0955103 30.6281049 33.79 30.3 33.4569836 29.9762387 32.9448838 29.9243863 32.5537274 30.1748219 32.162571 30.4252574 31.9953355 30.91205 32.15 31.35 32.2936234 31.7322826 32.2681789 32.1575688 32.08 32.52 31.8818508 32.9218107 31.5155066 33.2148861 31.08 33.32 30.5590211 33.4521693 30.0071448 33.2954899 29.6333334 32.9092869 29.2595219 32.523084 29.120917 31.9663933 29.27 31.45 29.4169883 30.9715273 29.7915273 30.5969883 30.27 30.45 30.6993385 30.3106053 30.982062 29.9008611 30.96 29.45 30.9231352 28.9857441 30.5706674 28.6083962 30.11 28.54 29.665679 28.496694 29.2812999 28.2122534 29.11 27.8 28.8722269 27.4771879 28.7842633 27.0679258 28.8684001 26.6759249 28.9525369 26.283924 29.2006991 25.946806 29.55 25.75L29.52 25.75z"/>
      <path id="Path" fill="#3D454C" fill-rule="nonzero" d="M28.33 40.36C27.9820537 40.1892242 27.6477373 39.9919775 27.33 39.77 26.8881722 39.4386292 26.2613708 39.5281722 25.93 39.97 25.5986292 40.4118278 25.6881722 41.0386292 26.13 41.37 26.5576098 41.6724811 27.0129889 41.9336544 27.49 42.15 28 42.4 28.85 42.83 28.86 43.15 28.87 43.47 28.49 43.66 27.97 44.15L27.88 44.25C27.34 44.76 27.1 44.95 26.94 44.96 26.78 44.97 26.29 44.06 26.06 43.54 25.58 42.45 24.86 40.77 23.06 41.04 22.33 41.15 21.85 41.83 21.47 42.37L21.24 42.68C20.61 43.37 20.36 43.42 20.29 43.42 20.22 43.42 19.99 43.42 19.4 42.72 17.51 40.61 18.56 37.83 20.33 36.14 21.3109009 35.143645 22.6089681 34.5211387 24 34.38 24.5522847 34.3551472 24.9798528 33.8872847 24.955 33.335 24.9301472 32.7827153 24.4622847 32.3551472 23.91 32.38 22.0246344 32.5189018 20.2511378 33.3276163 18.91 34.66 15.91 37.47 15.53 41.41 17.91 44.03 18.4708088 44.7995622 19.3326162 45.2941015 20.28 45.39L20.28 45.39C21.2528559 45.291166 22.1388531 44.7864381 22.72 44 22.82 43.88 22.95 43.71 23.08 43.52 23.21 43.33 23.33 43.17 23.45 43.04 23.7673453 43.4274039 24.014409 43.8673803 24.18 44.34 24.67 45.44 25.27 46.81 26.72 46.94L26.92 46.94C27.92 46.94 28.53 46.32 29.34 45.55L29.43 45.45C30.27 44.65 30.86 44.05 30.81 43.03 30.75 41.56 29.41 40.9 28.33 40.36zM30.83 11.23C31.3240809 10.9840469 31.5254836 10.3843143 31.28 9.89 31.1000623 9.5276713 30.7195435 9.30945019 30.3159428 9.33712957 29.9123421 9.36480895 29.5651775 9.63293541 29.4363897 10.0164368 29.3076019 10.3999383 29.4225649 10.8232568 29.7276521 11.0889284 30.0327394 11.3546 30.4678424 11.4102818 30.83 11.23z"/>
      <path id="Path" fill="#3D454C" fill-rule="nonzero" d="M26.9,37.74 C27.395306,37.4967448 27.5999548,36.8982561 27.3572942,36.4026586 C27.1146335,35.9070611 26.5163908,35.7016942 26.0205025,35.9437599 C25.5246141,36.1858257 25.3185295,36.7838215 25.56,37.28 C25.6763297,37.5190365 25.8830506,37.7019154 26.1344883,37.7882298 C26.3859259,37.8745442 26.6613838,37.8571894 26.9,37.74 Z"/>
    </g>
  </g>
</svg>
