<svg xmlns="http://www.w3.org/2000/svg" width="64" height="64" viewBox="0 0 64 64" style="background:#fff">
  <g id="Essig" fill="none" fill-rule="evenodd" stroke="none" stroke-width="1">
    <rect width="64" height="64" fill="#FFF"/>
    <g transform="translate(2 4)">
      <rect id="Rectangle" width="60" height="60" x="0" y="0"/>
      <path id="Path" fill="#CCC" fill-rule="nonzero" d="M32.22,56.67 C36.6256747,56.9055683 40.7909062,54.6490792 43,50.83 C48.18,42.54 44.18,31.34 35.49,27.35 C26.48,23.2 15.8,29.64 15,39.47 C14.872767,41.0218449 15.028633,42.5838939 15.46,44.08 C16.17,49.65 19.61,54.8 25.38,56.59 C27.6013171,57.2962469 29.9827724,57.3241002 32.22,56.67 Z" opacity=".5"/>
      <path id="Shape" fill="#3D454C" fill-rule="nonzero" d="M44.15,40.7 C43.47,36.7 41.33,33.18 39.61,29.58 C37.729757,25.7504502 36.4578279,21.6512622 35.84,17.43 C36.3232691,17.1985592 36.7447928,16.855857 37.07,16.43 C38.07,15.16 37.83,13.5 37.83,12.01 C37.8357052,11.9568192 37.8357052,11.9031808 37.83,11.85 C38,10.66 36.18,10.18 35.9,11.4 C35.52,13.08 28.13,13.02 26.02,11.94 C26.09885,11.6577769 26.0629032,11.3558239 25.92,11.1 C26.42,11.9 27.92,11.77 27.77,10.66 C27.61,9.31 27.37,7.95 27.29,6.6 C27.11,3.82 28.66,4 30.7,4 C32.74,4 34.3,3.78 34.15,6.51 C34.07,7.85 33.8,9.2 33.63,10.51 C33.46,11.82 35.47,11.77 35.63,10.51 C35.87,8.66 36.52,6.41 36,4.57 C35.23,1.91 33,2 30.7,2 C28.4,2 26.15,1.88 25.39,4.61 C24.87,6.46 25.51,8.75 25.73,10.61 C25.7447685,10.732452 25.7820627,10.8511153 25.84,10.96 C25.6241684,10.6298642 25.2019159,10.5031884 24.84,10.66 C24.5021699,10.7590932 24.2000948,10.9535324 23.97,11.22 C23.848694,11.3292913 23.7559947,11.4666236 23.7,11.62 C23.6423667,11.7626197 23.6184123,11.9166126 23.63,12.07 C23.63,13.53 23.47,15.14 24.39,16.39 C24.7346636,16.8167471 25.1725372,17.1588358 25.67,17.39 C25.1901734,20.5419757 24.361762,23.6309104 23.2,26.6 C21.78,30.19 19.47,33.37 18.15,36.99 C16.45,41.66 16.51,48.68 20.5,52.36 C20.35,52.23 22.34,53.59 22.32,53.56 C22.59,53.97 22.07,54.75 22.39,55.2 C23.1497412,56.2546659 24.2903316,56.9720184 25.57,57.2 C30.44,58.62 34.7,57.65 38.75,55.62 C39.0536995,55.4399357 39.2399384,55.1130673 39.24,54.76 C39.24,53.12 41.52,51.93 42.51,50.24 C44.1571276,47.3502255 44.7375388,43.973931 44.15,40.7 Z M31.54,14.53 C32.9488887,14.61091 34.3618682,14.4760193 35.73,14.13 C34.97,16.23 32.63,16.25 30.73,16.25 C28.83,16.25 26.23,16.37 25.68,13.99 C27.5890164,14.4985451 29.5701961,14.6811111 31.54,14.53 L31.54,14.53 Z M37.7,52.33 C37.3924555,52.5075523 37.2021435,52.8348889 37.2,53.19 C37.2,54.19 37.33,54.35 37.44,54.24 C36.7,55.24 35.23,55.43 34.14,55.7 C32.04,56.2 26.67,56.62 24.89,54.7 C26.2971926,55.0684826 27.7318621,55.3226432 29.18,55.46 C30.46,55.58 30.45,53.58 29.18,53.46 C27.3124872,53.2769694 25.4730997,52.8741838 23.7,52.26 C15.8,48.12 19.89,37.81 22.89,32.03 C25.1922995,27.6443165 26.7757706,22.917537 27.58,18.03 C28.5730568,18.1766523 29.5762642,18.2435328 30.58,18.23 C30.7416068,21.0877406 31.3037636,23.9086236 32.25,26.61 C32.68,27.82 34.61,27.3 34.18,26.08 C33.2783385,23.5348661 32.7397128,20.875402 32.58,18.18 C33.0328915,18.1441514 33.4835373,18.0840653 33.93,18 C34.6161265,22.3626986 35.9650351,26.5948993 37.93,30.55 C40.83,36.73 46.4,47.9 37.7,52.33 Z"/>
      <path id="Shape" fill="#3D454C" fill-rule="nonzero" d="M32,35.39 C31.9472585,35.2821805 31.8722801,35.1867534 31.78,35.11 C31.5962113,34.9276592 31.3488682,34.8237034 31.09,34.82 L31,34.82 C30.7376601,34.8211046 30.4862606,34.9252558 30.3,35.11 C30.2077199,35.1867534 30.1327415,35.2821805 30.08,35.39 C29.03,36.87 27.75,38.58 27.4,40.39 C27.1373053,41.8297666 27.7503421,43.2887135 28.9625769,44.1087276 C30.1748117,44.9287416 31.7571075,44.9548234 32.9957099,44.1752078 C34.2343122,43.3955922 34.8951001,41.9576423 34.68,40.51 C34.37,38.67 33,36.89 32,35.39 Z M31,42.7 C28,42.7 29.73,39.5 31,37.54 C32.29,39.5 34,42.7 31,42.7 Z"/>
      <path id="Path" fill="#3D454C" fill-rule="nonzero" d="M24.27 38.89C24.72 37.68 22.79 37.16 22.34 38.36 20.7284314 42.3087187 21.3911549 46.8213675 24.07 50.14 24.92 51.14 26.32 49.69 25.49 48.72 23.16 46 23.05 42.12 24.27 38.89zM24.48 34.26C24.133295 34.5562222 24.0309042 35.0494802 24.231065 35.4592211 24.4312257 35.8689621 24.8832346 36.0913927 25.33 36 25.745066 35.9216032 26.0661081 35.5908605 26.1321178 35.1736452 26.1981276 34.75643 25.9948668 34.3427346 25.6242746 34.1400348 25.2536823 33.937335 24.7956944 33.9893527 24.48 34.27L24.48 34.26z"/>
    </g>
  </g>
</svg>
