<svg xmlns="http://www.w3.org/2000/svg" width="64" height="64" viewBox="0 0 64 64" style="background:#fff">
  <g id="Feigen" fill="none" fill-rule="evenodd" stroke="none" stroke-width="1">
    <rect width="64" height="64" fill="#FFF"/>
    <g transform="translate(2 4)">
      <rect id="Rectangle" width="60" height="60" x="0" y="0"/>
      <path id="Path" fill="#4885E0" fill-rule="nonzero" d="M28.65,15.57 C28.39,13.93 26.29,12.19 23.72,12.57 C16.91,13.49 9.72,16.06 6.13,22.35 C3,27.86 4.09,33.84 8.62,38.16 C12.9,42.24 19.94,45.16 24.04,39.16 C25.89,36.45 25.72,33.05 28.4,30.81 C30.73,28.86 34.17,28.33 35.17,25.02 C36.56,20.44 32.74,17 28.65,15.57 Z" opacity=".5"/>
      <polygon id="Path" fill="#4885E0" fill-rule="nonzero" points="53.28 29.11 53.21 29.16 53.21 29.16 53.29 29.1" opacity=".5"/>
      <path id="Path" fill="#4885E0" fill-rule="nonzero" d="M53.28 29.11L53.4 29 53.3 29.08C54.76 28.54 56.3 27.34 55.63 25.58 54.96 23.82 52.33 23.13 50.63 23.58 47.1 24.64 43.96 27.58 44.3 31.51 44.46 33.43 46.59 34.45 48.3 34.36 49.84 34.28 52.41 33.36 52.24 31.36 52.24 31.13 52.24 30.9 52.24 30.67L52.24 30.6C52.24 30.39 52.38 30.18 52.43 29.97 52.4362923 29.9268951 52.4362923 29.8831049 52.43 29.84 52.43 29.84 52.43 29.84 52.43 29.84 52.43 29.84 52.63 29.54 52.75 29.39L53 29.3 53.19 29.16 52.88 29.24 53.28 29.11z" opacity=".5"/>
      <path id="Path" fill="#E05362" fill-rule="nonzero" d="M38.52,33.71 C35.3653089,33.6981245 32.4444879,35.3720676 30.86,38.1 C29.5403894,40.7227517 29.9353924,43.8827755 31.86,46.1 C32.0660695,46.345879 32.3089426,46.5583929 32.58,46.73 C32.863108,47.0005463 33.1674126,47.2480028 33.49,47.47 C37.87,50.47 45.42,48.81 47.13,43.47 C48.84,38.13 43.64,33.55 38.52,33.71 Z" opacity=".5"/>
      <path id="Path" fill="#3D454C" fill-rule="nonzero" d="M29.34,28.36 C29.25,24.55 27.88,21.53 25.87,18.17 C25.6902881,17.8897197 25.3828673,17.7172641 25.05,17.71 C24.8808979,17.7068446 24.7143975,17.7519384 24.57,17.84 C24.3499599,17.9650603 24.1903947,18.1743998 24.1281222,18.4197156 C24.0658497,18.6650314 24.1062496,18.9251313 24.24,19.14 C26.24,22.48 27.48,25.26 27.48,28.78 C27.48,28.96 27.48,29.13 27.48,29.31 C27.48,29.49 27.48,29.55 27.48,29.67 L27.48,30.18 L27.83,29.82 C28.2974124,29.3573281 28.7951854,28.9263702 29.32,28.53 L29.4,28.46 L29.34,28.36 Z"/>
      <path id="Path" fill="#3D454C" fill-rule="nonzero" d="M35.15,25.7 C34.3,21.96 31.4,18.35 26.28,14.7 C24.76,13.59 24,12.1 24.64,8 C24.6892915,7.724816 24.6121753,7.44205671 24.43,7.23 C24.2450703,7.01936773 23.9802298,6.89601736 23.7,6.89 L21,6.89 C20.6422278,6.90179694 20.3180499,7.10393145 20.15,7.42 C18.88,9.97 14.06,14.79 12.23,16.62 C8.82,20 6.55,23.29 6.55,28.1 C6.55551554,36.0782289 13.0217711,42.5444845 21,42.55 C21.6961647,42.5440205 22.3911109,42.4905631 23.08,42.39 L23.27,42.39 L23.27,42.2 C23.2290689,41.5639912 23.2290689,40.9260088 23.27,40.29 L23.27,39.9 L22.96,40.07 C22.6475891,40.2506307 22.3108015,40.3853457 21.96,40.47 L21.96,17.3 C21.96,16.7753295 21.5346705,16.3500001 21.01,16.3500001 C20.4853295,16.3500001 20.06,16.7753295 20.06,17.3 L20.06,40.47 C16.85,39.63 14.54,34.78 14.54,28.78 C14.54,25.26 15.77,22.48 17.77,19.14 C17.9101994,18.9276366 17.950395,18.6645376 17.88,18.42 C17.8206261,18.1766468 17.6655945,17.9675345 17.45,17.84 C17.3024973,17.7506104 17.1324157,17.7054867 16.96,17.71 C16.6276681,17.7093668 16.3197011,17.8842616 16.15,18.17 C13.98,21.78 12.64,24.81 12.64,28.78 C12.64,33.02 13.64,36.78 15.55,39.39 C11.2073498,37.3071715 8.4460416,32.9163025 8.45,28.1 C8.45,23.94 10.45,21.1 13.57,17.98 C15.46,16.09 19.85,11.7 21.57,8.81 L22.57,8.81 C22.15,12.41 22.92,14.64 25.13,16.23 C29.88,19.63 32.54,22.87 33.27,26.16 L33.27,26.37 L33.48,26.31 C33.9795411,26.1590435 34.4869658,26.0355257 35,25.94 L35.2,25.94 L35.15,25.7 Z"/>
      <path id="Shape" fill="#3D454C" fill-rule="nonzero" d="M54.67,26.82 L52.76,24.91 C52.5851934,24.7277429 52.3425104,24.6263232 52.09,24.6299034 C51.9439601,24.6287624 51.7998127,24.6630832 51.67,24.73 C48.05,26.54 43.41,26.54 40.67,26.54 C35.85,26.54 31.94,27.23 28.54,30.64 C22.8984114,36.289873 22.9051272,45.4434112 28.5550002,51.0849998 C34.2048731,56.7265885 43.3584113,56.7198728 49,51.07 C52.4,47.67 53.09,43.76 53.09,38.92 C53.09,36.15 53.09,31.52 54.9,27.92 C55.0560943,27.540855 54.9649276,27.1048404 54.67,26.82 Z M38.73,53.4 C33.6606453,53.3982893 29.0909454,50.3445666 27.1498984,45.6615445 C25.2088513,40.9785223 26.2783023,35.5874506 29.86,32 C32.8,29.05 36.17,28.46 40.65,28.46 C43.41,28.46 48,28.46 51.89,26.75 L52.89,27.75 C51.17,31.63 51.17,36.22 51.17,39 C51.17,43.48 50.58,46.84 47.63,49.79 C45.2649313,52.1342901 42.0598751,53.4343185 38.73,53.4 L38.73,53.4 Z"/>
      <path id="Shape" fill="#3D454C" fill-rule="nonzero" d="M46.42,33.17 C43.3114801,30.0604683 38.6358218,29.1298289 34.5735469,30.8120911 C30.511272,32.4943533 27.8624988,36.4581735 27.8624988,40.855 C27.8624988,45.2518265 30.511272,49.2156467 34.5735469,50.8979089 C38.6358218,52.5801711 43.3114801,51.6495317 46.42,48.54 C48.4750718,46.5108138 49.6318003,43.7430645 49.6318003,40.855 C49.6318003,37.9669355 48.4750718,35.1991862 46.42,33.17 Z M38.73,31.739959 C43.0808521,31.7411317 46.8250377,34.8154759 47.6728182,39.0829322 C48.5205987,43.3503885 46.2358629,47.622449 42.21583,49.2865556 C38.1957971,50.9506623 33.5600665,49.543353 31.1435967,45.9252611 C28.727127,42.3071692 29.2029172,37.4859513 32.28,34.41 C33.987051,32.6941827 36.3096697,31.7327266 38.73,31.739959 L38.73,31.739959 Z"/>
      <path id="Path" fill="#3D454C" fill-rule="nonzero" d="M43.85 35.73C43.6612812 35.5428135 43.405803 35.4384632 43.14 35.4399833 42.6886333 35.4426249 42.2949779 35.7472967 42.1792449 36.1835818 42.063512 36.619867 42.2543947 37.0795987 42.6451133 37.3056028 43.0358318 37.5316069 43.5295166 37.4678509 43.85 37.15 44.0396681 36.9588369 44.144221 36.6992573 44.14 36.43 44.1388954 36.1676601 44.0347442 35.9162606 43.85 35.73zM35 44.56C34.7139095 44.2715401 34.2817332 44.1848381 33.9065185 44.340629 33.5313038 44.49642 33.2876374 44.8637349 33.289983 45.27 33.293757 45.5337693 33.4015857 45.7853695 33.59 45.97 33.9717343 46.3661449 34.6017615 46.3795498 35 46 35.1871865 45.8112812 35.2915368 45.555803 35.29 45.29 35.2969484 45.0172975 35.1921891 44.7535931 35 44.56zM33.56 38.74C33.4298859 38.5102709 33.2142022 38.3413187 32.96 38.27L32.7 38.27C32.2351312 38.2540765 31.8206641 38.5607821 31.7 39.01 31.6298594 39.2673006 31.6654013 39.541959 31.7987262 39.7729304 31.9320511 40.0039018 32.1521125 40.172049 32.41 40.24 32.4963563 40.2503734 32.5836437 40.2503734 32.67 40.24 33.0261886 40.2378575 33.3543497 40.0464123 33.5315155 39.7374022 33.7086812 39.4283921 33.708104 39.0484703 33.53 38.74L33.56 38.74zM45 41.51C44.9138849 41.4961727 44.8261151 41.4961727 44.74 41.51 44.2751312 41.4940765 43.8606641 41.8007821 43.74 42.25 43.6698594 42.5073006 43.7054013 42.781959 43.8387262 43.0129304 43.9720511 43.2439018 44.1921125 43.412049 44.45 43.48 44.5330471 43.4897686 44.6169529 43.4897686 44.7 43.48 45.1677664 43.4948006 45.583234 43.1831999 45.7 42.73 45.8404156 42.2002208 45.5282319 41.6561291 45 41.51L45 41.51zM38.08 34.56C37.9593359 34.1107821 37.5448688 33.8040765 37.08 33.82 36.9936437 33.8096266 36.9063563 33.8096266 36.82 33.82 36.5600913 33.8841614 36.3367616 34.0498577 36.2 34.28 36.0210081 34.5900165 36.0213855 34.9720638 36.2009896 35.281726 36.3805937 35.5913883 36.7120247 35.7814245 37.07 35.78 37.156388 35.7898286 37.243612 35.7898286 37.33 35.78 37.5862014 35.7134451 37.8055629 35.5480249 37.94 35.32 38.0866224 35.095662 38.1370599 34.8218584 38.08 34.56zM41.31 46.62C41.1893359 46.1707821 40.7748688 45.8640765 40.31 45.88 40.2272866 45.8656244 40.1427134 45.8656244 40.06 45.88 39.7027344 45.9246582 39.3964323 46.156523 39.2564746 46.4882532 39.1165169 46.8199834 39.1641667 47.2011812 39.3814746 47.4882532 39.5987825 47.7753252 39.9527344 47.9246582 40.31 47.88 40.3963563 47.8903734 40.4836437 47.8903734 40.57 47.88 40.8402497 47.819413 41.0732695 47.6494598 41.2135271 47.4106429 41.3537846 47.171826 41.3887173 46.8855358 41.31 46.62z"/>
      <circle id="Oval" cx="38.76" cy="40.91" r="1" fill="#3D454C" fill-rule="nonzero"/>
    </g>
  </g>
</svg>
