<svg xmlns="http://www.w3.org/2000/svg" width="64" height="64" viewBox="0 0 64 64" style="background:#fff">
  <g id="Felchen" fill="none" fill-rule="evenodd" stroke="none" stroke-width="1">
    <rect width="64" height="64" fill="#FFF"/>
    <g transform="translate(2 4)">
      <rect id="Rectangle" width="60" height="60" x="0" y="0"/>
      <path id="Path" fill="#BAB41D" fill-rule="nonzero" d="M37.55,13.36 C28.6189828,19.6973582 21.3106757,28.0541144 16.22,37.75 C14.33,41.3 22.22,42.44 23.96,39.16 C28.6078043,30.4915385 35.225245,23.0349296 43.28,17.39 C47.3,14.54 40.6,11.2 37.55,13.36 Z" opacity=".5"/>
      <path id="Path" fill="#B3B3B3" fill-rule="nonzero" d="M49.57 9.08C44.8027053 21.5303781 35.8220432 31.9158167 24.19 38.43 21.34 40.01 24.53 42.78 26.77 41.53 39.4031264 34.5957047 49.1893135 23.4322287 54.41 10 55.34 7.55 50.41 6.9 49.57 9.08zM17.81 41.27C14.3831645 40.0277131 10.645382 39.9329524 7.16 41 5.77 41.45 4.16 42.47 4.77 44.19 5.31 45.7 7.71 46.35 9.11 45.9 10.1971831 45.5147809 11.3473393 45.3383557 12.5 45.38 12.367198 47.7637778 12.0529551 50.1339717 11.56 52.47 10.79 56.09 17.66 56.87 18.34 53.71 19.0709892 50.3322872 19.4894221 46.8944425 19.59 43.44 19.4864617 42.4247684 18.7853807 41.5700797 17.81 41.27z" opacity=".5"/>
      <path id="Shape" fill="#3D454C" fill-rule="nonzero" d="M55.11,8.18 C54.6299213,7.56007752 53.8939852,7.1921095 53.11,7.18 L46.88,7.46 C41.88,7.56 37.34,11.06 37.15,11.21 C36.15,11.92 35.15,12.7 34.23,13.52 C33.31,14.34 32.47,15.08 31.6,15.92 C30.95,16.55 30.28,17.23 29.6,17.92 L26.09,16.66 C25.9774896,16.6206451 25.8591942,16.6003659 25.74,16.6 C25.4658272,16.5956851 25.2019108,16.7041439 25.01,16.9 L19.2,22.71 C18.9152201,22.9620956 18.7980985,23.353914 18.8978111,23.7209415 C18.9975238,24.0879689 19.296807,24.36666 19.67,24.44 L23.5,25.44 C22.87,26.33 22.3,27.16 21.77,27.96 L21.71,28.05 C21.11,28.97 20.5,29.95 19.89,30.97 L19.79,31.07 L19.79,31.07 C18.24,33.66 16.74,36.42 15.33,39.29 L5.52,41.81 C5.151302,41.8860223 4.85653908,42.1626649 4.75730885,42.5258053 C4.65807861,42.8889457 4.77119714,43.2770443 5.05,43.53 C6.79,45.27 11.05,46.97 12.6,47.53 C13.16,49.04 14.86,53.34 16.6,55.09 C16.7919108,55.2858561 17.0558272,55.3943149 17.33,55.39 C17.4197402,55.3996707 17.5102598,55.3996707 17.6,55.39 C17.9586265,55.2958847 18.2357436,55.0110699 18.32,54.65 L20.81,44.88 C21.81,44.4 22.81,43.88 23.74,43.39 L26.07,44.97 C26.2398811,45.0799064 26.4376692,45.1388958 26.64,45.14 C26.7517305,45.1380407 26.8627039,45.1212266 26.97,45.09 C27.2731934,44.9909439 27.5109439,44.7531934 27.61,44.45 L29.01,40.45 C30.54,39.53 32.01,38.6 33.35,37.68 C34.27,37.06 35.18,36.41 36.06,35.75 C37.63,34.59 39.14,33.37 40.54,32.14 C41.43,31.37 42.31,30.55 43.16,29.72 C44.01,28.89 44.82,28 45.68,27 L46.48,27.7 C47.1124635,28.4446426 48.1207486,28.7526319 49.0613521,28.488496 C50.0019555,28.2243601 50.70251,27.4365025 50.8548704,26.4714693 C51.0072307,25.5064362 50.5834765,24.5410717 49.77,24 L48.85,23.19 L48.94,23.07 C49.051415,22.9173685 49.1204209,22.737953 49.14,22.55 C51.3680725,20.3208697 53.105267,17.6503588 54.24,14.71 L55.53,10.6 C55.8020261,9.77374581 55.6445309,8.86627323 55.11,8.18 Z M34.6,15.87 L35.48,17.36 L34,16.45 L34.6,15.87 Z M29.37,24.06 L27.78,23.12 L28.37,22.39 L29.37,24.06 Z M21.89,22.9 L26,18.82 L28.1,19.58 L27.17,20.66 L26.37,21.66 C26.05,22.05 25.75,22.42 25.47,22.78 L24.8,23.66 L21.89,22.9 Z M22.73,30.19 L24.06,31.63 L22.22,31 L22.73,30.19 Z M16.87,52 C15.8954394,50.2030942 15.059671,48.3343162 14.37,46.41 C14.2703201,46.1128831 14.0371169,45.8796799 13.74,45.78 C11.8166445,45.0879422 9.94804442,44.2522534 8.15,43.28 L16.15,41.28 L18.87,44.01 L16.87,52 Z M25.16,40.26 L25,39.62 L25.49,40.08 L25.16,40.26 Z M26.11,42.49 L25.78,42.27 L26.29,41.99 L26.11,42.49 Z M33.11,35.32 L32.53,34.32 L33.6,34.95 L33.11,35.32 Z M40.11,29.73 L39.21,28.22 L40.75,29.14 L40.11,29.73 Z M46.64,22.73 C46.07,23.47 45.46,24.22 44.81,24.96 C44.03,25.87 43.18,26.78 42.28,27.69 L36.78,24.42 C36.6208587,24.321371 36.4372252,24.2693992 36.25,24.27 C35.9758272,24.2656851 35.7119108,24.3741439 35.52,24.57 C35.175812,24.9004328 35.1130066,25.427998 35.37,25.83 L38.54,31.15 C37.54,32.01 36.47,32.87 35.38,33.69 L30.08,30.53 C29.9179784,30.4393553 29.7356503,30.3911932 29.55,30.39 C29.2758272,30.3856851 29.0119108,30.4941439 28.82,30.69 C28.477807,31.0164172 28.411055,31.5379171 28.66,31.94 L31.39,36.52 C30.18,37.33 28.91,38.12 27.64,38.88 L27.31,39.07 L23.31,35.42 C23.1173855,35.2476717 22.8684466,35.1516525 22.61,35.15 C22.268641,35.1267535 21.9390925,35.2796456 21.7364063,35.5552988 C21.5337202,35.8309519 21.4860355,36.191097 21.61,36.51 L23.26,41.31 C22.35,41.79 21.43,42.31 20.49,42.73 L17.39,39.63 C18.56,37.28 19.79,35.01 21.06,32.86 L27.16,34.95 C27.2689975,34.9895611 27.3840452,35.0098636 27.5,35.01 C27.6497636,35.0060069 27.7967162,34.9684144 27.93,34.9 L28.03,34.85 C28.162254,34.7732555 28.2751474,34.6672041 28.36,34.54 C28.6299734,34.1495071 28.5881887,33.6230197 28.26,33.28 L23.82,28.47 C24.51,27.47 25.22,26.47 25.92,25.47 L26.43,24.8 L31.74,27.96 C31.845846,28.0264672 31.9656377,28.0675387 32.09,28.08 L32.09,28.08 L32.22,28.08 L32.29,28.08 C32.374551,28.0701383 32.4581599,28.0534165 32.54,28.03 L32.62,28.03 L32.62,28.03 C32.7406345,27.9840364 32.8498259,27.9123795 32.94,27.82 C33.2789233,27.491042 33.3414717,26.9698054 33.09,26.57 L29.66,20.81 L30.48,19.89 C31.06,19.26 31.67,18.62 32.3,18 L37.8,21.28 C37.9444345,21.359271 38.1053593,21.4037821 38.27,21.41 L38.38,21.41 C38.4686408,21.4060977 38.5562343,21.3892528 38.64,21.36 L38.74,21.36 C38.8576582,21.3139128 38.9635607,21.2421724 39.05,21.15 C39.392193,20.8235828 39.458945,20.3020829 39.21,19.9 L36.06,14.61 C36.54,14.22 37.06,13.84 37.49,13.48 L46.63,22.62 L46.64,22.73 Z M48.46,26.19 C48.3774797,26.2861876 48.25673,26.3410738 48.13,26.34 C48.023186,26.339749 47.9201104,26.3006514 47.84,26.23 L47.03,25.53 L47.03,25.47 C47.21,25.27 47.55,24.84 47.55,24.84 L48.38,25.57 C48.4676486,25.6462728 48.521571,25.7541174 48.53,25.87 C48.5358324,25.9620002 48.5112345,26.0533639 48.46,26.13 L48.46,26.19 Z M53.57,10 L52.29,14 C51.3105685,16.5353865 49.8312387,18.847902 47.94,20.8 L39.31,12.16 C41.568363,10.6396117 44.1773266,9.72062324 46.89,9.49 L53,9.21997752 C53.1762649,9.21842269 53.3429848,9.29993021 53.45,9.44 C53.5876812,9.59156284 53.6334883,9.8053294 53.57,10 Z"/>
      <circle id="Oval" cx="45" cy="11.91" r="1" fill="#3D454C" fill-rule="nonzero"/>
    </g>
  </g>
</svg>
