<svg xmlns="http://www.w3.org/2000/svg" width="64" height="64" viewBox="0 0 64 64" style="background:#fff">
  <g id="Feldsalat" fill="none" fill-rule="evenodd" stroke="none" stroke-width="1">
    <rect width="64" height="64" fill="#FFF"/>
    <g transform="translate(2 7)">
      <rect id="Rectangle" width="60" height="60" x="0" y="0"/>
      <g id="Group" fill="#31E085" fill-rule="nonzero" opacity=".5" transform="translate(6 4)">
        <polygon id="Path" points="24.89 36.4 25.1 36.17 24.89 36.39"/>
        <path id="Path" d="M41.48,20.65 C42.34,20.79 43.21,20.95 44.09,21.13 C52.61,22.83 53.92,6.13 46.78,3.88 C39.64,1.63 30.37,4.06 26.17,10.48 C24.6342581,6.81546185 21.6795697,3.92931935 17.98,2.48 C14.3561605,0.931383784 10.3568866,0.482769582 6.48,1.19 C-1.45,2.78 -0.68,14.46 3.74,19.19 C5.5842107,21.1353659 7.68725529,22.8178016 9.99,24.19 C9.0695432,25.7665941 8.33465367,27.4444241 7.8,29.19 C6.81453212,32.265075 6.61512912,35.5380346 7.22,38.71 C7.73,41.12 9.03,44.43 11.12,45.98 C16.04,49.63 20.02,45.89 22.12,41.29 C22.35,40.78 22.59,40.29 22.77,39.72 L22.77,39.67 C23.47,38.61 24.12,37.57 24.89,36.56 C24.89,36.56 24.89,36.56 24.84,36.61 L24.89,36.55 L24.89,36.55 C25.39,35.89 25.39,36.01 25.07,36.37 C25.38,36.05 25.67,35.73 25.98,35.43 C27.142791,36.9638471 28.4269212,38.4018053 29.82,39.73 C30.35,40.23 30.92,40.68 31.45,41.18 C31.6,41.33 31.73,41.46 31.84,41.59 L32.56,42.59 C33.95,46.98 38.08,53.03 43.5,50.4 C48.92,47.77 50.9,39.56 49.32,34.24 C47.9761825,29.0874563 45.2677682,24.3926413 41.48,20.65 Z"/>
      </g>
      <path id="Shape" fill="#3D454C" fill-rule="nonzero" d="M55.57,19.67 C57.47,16.24 54.57,11.97 51.98,9.8 C48.9702168,7.21442337 44.8012143,6.45016992 41.07,7.8 C36.46,9.58 34.07,14.34 32.14,18.54 C31.9243597,18.3434384 31.6972976,18.1597853 31.46,17.99 C31.492841,17.8933771 31.5097286,17.7920511 31.51,17.69 C31.39,14.43 30.69,12.22 29.26,10.52 C25.81,6.44 20,5.06 11.49,6.3 C9.47928255,6.60003483 7.70724735,7.78145449 6.65702475,9.52215493 C5.60680215,11.2628554 5.38789996,13.381332 6.06,15.3 C7.33,18.9 10.25,23.85 14.29,25.92 C15.4722554,26.4742311 16.7183161,26.8806282 18,27.13 C15.0937722,29.2695848 12.9210169,32.2562501 11.78,35.68 C10.24,40.61 11.46,46.41 15.84,49.51 C19.14,51.85 24.67,52.42 27.96,49.72 C32.96,45.72 29.48,38.14 33.61,33.72 C33.8109871,33.8270712 34.0219988,33.9141554 34.24,33.98 C35.4942001,34.2953462 36.7777432,34.479667 38.07,34.53 L38.42,34.53 C39.3663082,34.5325166 40.2920703,34.2540919 41.08,33.73 C43.9687582,35.484597 45.7317838,38.6201285 45.73,42 C45.73,42.5522847 46.1777153,43 46.73,43 C47.2822847,43 47.73,42.5522847 47.73,42 C47.7220906,38.0864936 45.7597023,34.4356259 42.5,32.27 C42.9179707,31.6168871 43.171849,30.8724062 43.24,30.1 C45.6009011,29.9306743 47.9053735,30.8739174 49.47,32.65 C52.1,35.55 53.47,40.79 53.01,46.65 C52.7627478,48.9192369 51.3484921,50.894645 49.28,51.86 C48.0603067,52.5479007 46.5696933,52.5479007 45.35,51.86 C43.76,50.76 42.44,48.57 41.05,46.25 C39.14,43.06 37.16,39.75 34.05,38.73 C33.7088114,38.6192477 33.3344544,38.6989303 33.0679457,38.9390321 C32.8014371,39.179134 32.6832658,39.5431779 32.7579457,39.8940321 C32.8326257,40.2448863 33.0888114,40.5292477 33.43,40.64 C35.85,41.42 37.63,44.4 39.36,47.28 C40.8,49.68 42.28,52.16 44.24,53.51 C45.0902358,54.0817202 46.0955856,54.3784381 47.12,54.36 C48.1616119,54.3409895 49.1861081,54.0916955 50.12,53.63 C52.8386358,52.3695956 54.6927443,49.7708043 55,46.79 C55.45,40.37 53.94,34.58 51,31.29 C48.93,29 46.57,28.07 43,28.08 C42.9404093,27.8993842 42.8702892,27.7224144 42.79,27.55 C42.5130886,26.9582846 42.1781123,26.3955244 41.79,25.87 C44.7,21.28 52.68,24.91 55.57,19.67 Z M33.82,19.67 C35.18,16.73 36.61,13.47 39.13,11.31 C43.6,7.49 51.4,9.12 53.45,14.94 C55.86,21.78 48.15,20.54 44.08,21.79 C42.5538418,22.1976834 41.2151458,23.1195822 40.29,24.4 C39.0237464,23.3680053 37.354185,22.9736498 35.76,23.33 C38.76,19.17 43.99,16.39 45.67,16.13 C46.2222847,16.0471573 46.6028427,15.5322847 46.52,14.98 C46.4371573,14.4277153 45.9222847,14.0471573 45.37,14.13 C43.14,14.47 37.53,17.49 34.25,21.99 C34.0763706,21.3085455 33.7926378,20.6600133 33.41,20.07 C33.5893101,19.9888207 33.7344187,19.8472513 33.82,19.67 Z M24.37,21.39 C24.0750875,20.7403108 24.1355492,19.9845401 24.53,19.39 C24.8863649,18.8288334 25.5052419,18.4892058 26.17,18.49 L26.26,18.49 C28.0073148,18.4466447 29.7044062,19.0767883 31,20.25 C32.1403589,21.2689405 32.6151601,22.8400305 32.23,24.32 C31.4040762,22.5608968 29.9891032,21.1459238 28.23,20.32 C27.9013157,20.1788801 27.5223122,20.2238309 27.2357566,20.4379199 C26.949201,20.652009 26.7986278,21.002711 26.8407566,21.35792 C26.8828853,21.7131289 27.1113156,22.0188801 27.44,22.16 C28.8783326,22.8408611 30.0169247,24.0257085 30.64,25.49 C30.93,26.09 30.87,26.37 30.85,26.4 C30.83,26.43 30.53,26.59 29.78,26.47 L29.53,26.47 C28.6,26.33 26.88,26.06 26.48,25.38 C25.8,24.25 25,22.79 24.37,21.39 Z M20.15,25.58 L18.75,25.25 C17.5270005,25.0214248 16.3353703,24.6488306 15.2,24.14 C12.35,22.68 9.44,18.86 7.95,14.64 C7.47528407,13.2852105 7.62915654,11.7893273 8.36973152,10.5595474 C9.11030649,9.32976759 10.360502,8.49409147 11.78,8.28 C19.54,7.15 24.78,8.28 27.78,11.82 C28.8951505,13.3151307 29.488857,15.1348939 29.47,17 C28.4607104,16.6707061 27.4108081,16.4822621 26.35,16.44 C25.8041234,16.4096264 25.2581717,16.4983435 24.75,16.7 L24.67,16.57 C20.61,12.3 15.49,11.29 13.03,10.81 C12.57,10.73 12.18,10.65 12.03,10.59 C11.5236903,10.4772217 11.0152023,10.7703068 10.859,11.2649474 C10.7027977,11.7595879 10.9507453,12.2915474 11.43,12.49 C11.74,12.59 12.16,12.67 12.69,12.78 C14.94,13.21 19.58,14.13 23.19,17.86 C23.09,17.98 23,18.09 22.91,18.22 C22.1162224,19.4087282 22.0024143,20.9261696 22.61,22.22 C22.86,22.75 23.13,23.28 23.4,23.81 C22.3116153,24.3376244 21.2533242,24.9251929 20.23,25.57 L20.15,25.58 Z M21.46,49.37 C14.86,48.86 11.85,42.08 13.72,36.21 C15.35,31.07 19.72,27.86 24.29,25.6 C24.44,25.87 24.6,26.15 24.75,26.4 C25.382215,27.2888051 26.3368,27.8952895 27.41,28.09 C22.6669225,30.2927121 19.5469436,34.9553257 19.32,40.18 C19.32,40.7322847 19.7677153,41.18 20.32,41.18 C20.8722847,41.18 21.32,40.7322847 21.32,40.18 C21.6064691,34.9086272 25.3043091,30.4436173 30.43,29.18 C30.7342713,30.3715037 31.2976597,31.4812082 32.08,32.43 C27.47,37.8 31.15,50.13 21.46,49.37 L21.46,49.37 Z M38.22,32.52 C37.0691468,32.4577859 35.9270888,32.2836304 34.81,32 C33.47,31.61 32.2,28.89 32.3,28.2 C32.3305006,28.0650351 32.3305006,27.9249649 32.3,27.79 C32.36,27.72 32.43,27.66 32.47,27.6 L32.47,27.6 L32.64,27.6 C33.5,27.65 36.45,28.69 37.34,30.35 C37.618857,30.7956178 38.195124,30.9492542 38.6588108,30.7016033 C39.1224977,30.4539523 39.3152795,29.889574 39.1,29.41 C38.1,27.64 35.96,26.49 34.33,25.96 C35.3225094,25.2952664 36.5339128,25.0408 37.71,25.25 C38.4344484,25.4452231 39.0893847,25.8402641 39.6,26.39 C39.6931978,26.6110096 39.8543032,26.796631 40.06,26.92 C40.410039,27.3704205 40.7117006,27.8564308 40.96,28.37 C41.4125965,29.2899132 41.3362246,30.3820323 40.76,31.23 C40.2102057,32.0891189 39.2380413,32.5828559 38.22,32.52 L38.22,32.52 Z"/>
      <path id="Path" fill="#3D454C" fill-rule="nonzero" d="M20.92,43.38 C20.3677153,43.38 19.92,43.8277153 19.92,44.38 C19.92,44.9322847 20.3677153,45.38 20.92,45.38 C21.4722847,45.38 21.92,44.9322847 21.92,44.38 C21.92,43.8277153 21.4722847,43.38 20.92,43.38 Z"/>
    </g>
  </g>
</svg>
