<svg xmlns="http://www.w3.org/2000/svg" width="64" height="64" viewBox="0 0 64 64" style="background:#fff">
  <g id="Fenchel-fennel" fill="none" fill-rule="evenodd" stroke="none" stroke-width="1">
    <rect width="64" height="64" fill="#FFF"/>
    <g transform="translate(2 5)">
      <rect id="Rectangle" width="60" height="60" x="0" y="0"/>
      <path id="Path" fill="#CCC" fill-rule="nonzero" d="M30,45.43 C23.46,45.43 20.28,38.73 20.64,32.98 C21,26.26 7,26.36 6.6,33.23 C5.77,46.6 17.6,55.7 30.14,55.64 C33.14,55.64 37.06,53.83 37.0500191,50.41 C37.04,46.99 32.79,45.41 30,45.43 Z" opacity=".5"/>
      <path id="Path" fill="#CCC" fill-rule="nonzero" d="M43.25,20.5 C40.3706113,19.8033309 37.3784756,21.1014198 35.92,23.68 C33.7679148,27.9097421 30.5308659,31.4918921 26.54,34.06 C25.5082314,34.7620667 24.8998982,35.9369499 24.922072,37.1847289 C24.9442457,38.4325079 25.5939385,39.5850353 26.65,40.25 C29.2482008,41.9149142 32.5923065,41.8557614 35.13,40.1 C40.4594321,36.5200245 44.7421566,31.588507 47.54,25.81 C48.86,23.14 45.4,20.89 43.25,20.5 Z" opacity=".5"/>
      <path id="Path" fill="#31E085" fill-rule="nonzero" d="M33,5.91 C32.2620277,7.04136037 31.5941082,8.21689863 31,9.43 C30.4119014,8.24262774 29.7436914,7.09664764 29,6 C27.46,3.73 21.93,5.45 23.85,8.3 C26.7935482,12.6872339 28.0672218,17.984155 27.44,23.23 C27.15,26.08 33.14,26.07 33.44,23.13 C33.51,22.47 33.54,21.81 33.56,21.13 C33.6749677,20.9082976 33.7494678,20.6678655 33.78,20.42 C34.1994102,15.9694297 35.7370383,11.697094 38.25,8 C40.18,5.19 34.58,3.63 33,5.91 Z" opacity=".5"/>
      <path id="Shape" fill="#3D454C" fill-rule="nonzero" d="M49.78,18.54 L44.57,16.27 L44.66,15.27 C44.7110725,14.7577479 44.3649026,14.2904186 43.86,14.19 L38.35,13.14 C38.0854566,13.0887603 37.8114298,13.1464501 37.59,13.3 C37.3722107,13.4534069 37.2246331,13.6873715 37.18,13.95 C36.12,19.95 35.47,22.71 34.3,24.56 C34.2346692,23.4536049 34.0672917,22.3556083 33.8,21.28 C34.4531008,20.1461487 34.9572584,18.9328095 35.3,17.67 L35.48,17.12 C35.6496351,16.6059992 35.3795127,16.050327 34.8705156,15.8662216 C34.3615185,15.6821163 33.7984283,15.9364138 33.6,16.44 C33.55,16.58 33.49,16.78 33.4,17.03 C33.31,17.28 33.11,17.9 32.9,18.47 C32.77,18.09 32.62,17.67 32.46,17.22 C33.02,16.65 33.38,15.5 33.83,13.63 L33.92,13.24 C33.9938884,12.9840482 33.9625936,12.7091936 33.8330572,12.4764036 C33.7035209,12.2436137 33.486452,12.0721334 33.23,12 C32.7000015,11.8525095 32.1504033,12.1608207 32,12.69 C32,12.79 31.96,12.95 31.88,13.17 C31.74,13.76 31.62,14.23 31.51,14.6 C30.88,12.85 30.32,11.32 30.24,11.11 C30.0439389,10.5936138 29.4663862,10.3339389 28.95,10.53 C28.4336138,10.7260611 28.1739389,11.3036138 28.37,11.82 C28.46,12.05 28.9,13.25 29.42,14.69 C28.9,14.41 28.52,14.23 28.51,14.22 C28.0076823,14.0334711 27.44761,14.2760221 27.24,14.77 C27.023856,15.2753686 27.2561019,15.8604496 27.76,16.08 C28.09,16.23 29.96,17.41 30.53,17.79 C31.08,19.32 31.53,20.57 31.53,20.72 C31.9941968,22.2140691 32.2466535,23.765836 32.28,25.33 C32.28,25.74 32.33,26.1 32.38,26.46 C31.66,25.9 31.02,25.46 30.44,25.03 C27.66,23.03 26.82,22.45 27.13,16.21 C27.1423665,15.9353296 27.0410955,15.6676848 26.85,15.47 C26.6521119,15.2818636 26.392795,15.1717428 26.12,15.16 L21.58,15.22 C21.58,14.89 21.51,14.54 21.47,14.22 C21.4429632,13.952851 21.3096261,13.7077989 21.1,13.54 C20.8886528,13.3715202 20.6181067,13.2957673 20.35,13.33 L13.09,14.23 C12.821808,14.2621758 12.5780391,14.4014783 12.4141674,14.6162067 C12.2502957,14.8309351 12.1802607,15.102824 12.22,15.37 L12.69,18.42 L9.46,19.42 C8.94187235,19.5874338 8.65293616,20.1386352 8.81,20.66 L12.11,31.53 L12.54,42.4 C12.5877398,43.5920625 12.8205197,44.7694564 13.23,45.89 C13.3532566,46.2258297 13.6463134,46.4703924 13.9987788,46.5315639 C14.3512441,46.5927354 14.7095701,46.4612221 14.9387788,46.1865639 C15.1679875,45.9119057 15.2332566,45.5358297 15.11,45.2 C14.7701708,44.2758244 14.5778203,43.3039482 14.54,42.32 L14.1,31.32 C14.1143756,31.2372866 14.1143756,31.1527134 14.1,31.07 L11.1,21.07 L14.94,19.81 C16.55,30.81 17.88,32.22 23.23,36.66 C26.8982982,39.6486329 30.3595813,42.8827275 33.59,46.34 C35.34,48.2 36.12,49.81 35.73,50.76 C35.34,51.71 33.47,52.38 30.65,52.48 L27.22,52.6 C24.7742891,52.7608989 22.336383,52.1862497 20.22,50.95 C19.7420208,50.6786117 19.1346085,50.8438636 18.86,51.32 C18.726455,51.5505237 18.6904163,51.8248063 18.7598783,52.0820037 C18.8293404,52.339201 18.9985603,52.5580488 19.23,52.69 C21.4398977,53.9992688 23.9719498,54.6643221 26.54,54.61 L27.31,54.61 L30.74,54.49 C34.54,54.35 36.85,53.36 37.6,51.49 C37.6538423,51.3432374 37.697283,51.1928655 37.73,51.04 C41.44,50.26 45.23,47.48 45.3,43.58 L45.55,30.9 L50.3,19.85 C50.516144,19.3446314 50.2838981,18.7595504 49.78,18.54 Z M39,15.32 L42.62,16.01 L42.41,18.29 C39.5,28.63 38.75,29.94 33.21,33.85 C31.98,32.7 30.9,31.75 29.94,30.94 L31.24,30.02 C36.11,26.58 37.1,25.62 39,15.32 Z M25.14,17.21 C24.97,23.32 26.29,24.52 29.33,26.69 C29.8,27.02 30.33,27.39 30.87,27.81 L30.06,28.38 L28.31,29.63 L27.6,29.05 C23.6,25.85 22.83,25.21 21.86,17.25 L25.14,17.21 Z M24.47,35.12 C19.41,30.92 18.36,30.05 16.71,18.36 C16.6692564,18.0669348 16.5008212,17.8069586 16.25,17.65 C16.0001299,17.4906818 15.6924675,17.4503927 15.41,17.54 L14.66,17.79 L14.4,16.09 L19.64,15.44 C20.79,25.77 21.57,26.78 26.34,30.61 C27.7,31.7 29.34,33.05 31.5,35.02 L31.27,35.18 L27.58,37.76 C26.41,36.73 25.38,35.88 24.47,35.12 L24.47,35.12 Z M43.57,30.31 C43.518759,30.4302223 43.49158,30.5593227 43.49,30.69 L43.24,43.57 C43.19,46.22 40.45,48.32 37.6,49.03 C37.0591357,47.5024527 36.1687978,46.1224289 35,45 C32.74,42.59 30.8,40.71 29.11,39.16 L32.41,36.85 C40.07,31.55 40.89,30.98 44.41,18.42 L48.07,20 L43.57,30.31 Z"/>
      <path id="Path" fill="#3D454C" fill-rule="nonzero" d="M34.26 10.3C34.7049085 10.3 35.1060084 10.0319936 35.2762675 9.62095178 35.4465266 9.20990995 35.3524153 8.73678034 35.0378175 8.42218254 34.7232197 8.10758475 34.2500901 8.01347341 33.8390482 8.18373251 33.4280064 8.35399161 33.16 8.75509153 33.16 9.2 33.16 9.80751322 33.6524868 10.3 34.26 10.3zM16.49 48.1C15.8824868 48.1 15.39 48.5924868 15.39 49.2 15.39 49.8075132 15.8824868 50.3 16.49 50.3 17.0975132 50.3 17.59 49.8075132 17.59 49.2 17.59 48.5924868 17.0975132 48.1 16.49 48.1zM27.61 8.75C28.2175132 8.75 28.71 8.25751322 28.71 7.65 28.71 7.04248678 28.2175132 6.55 27.61 6.55 27.0024868 6.55 26.51 7.04248678 26.51 7.65 26.51 8.25751322 27.0024868 8.75 27.61 8.75L27.61 8.75z"/>
    </g>
  </g>
</svg>
