<svg xmlns="http://www.w3.org/2000/svg" width="64" height="64" viewBox="0 0 64 64" style="background:#fff">
  <g id="Fenchelsamen" fill="none" fill-rule="evenodd" stroke="none" stroke-width="1">
    <rect width="64" height="64" fill="#FFF"/>
    <g transform="translate(2 4)">
      <rect id="Rectangle" width="60" height="60" x="0" y="0"/>
      <path id="Path" fill="#BAB41D" fill-rule="nonzero" d="M49.05 50.65L39.94 42.24C37.57 40.05 33.33 40.08 31.73 43.17 30.39 45.74 28.94 49.17 25.73 48.17 23.59 47.48 22.66 46.25 20.18 46.17 15.86 46.08 12.81 48.64 10.46 52.01 7.51 56.22 15.91 58.58 18.28 55.19 20.28 52.38 20.88 54.39 23.64 55.19 25.8823021 55.771851 28.2436282 55.7059696 30.45 55 33.1276785 54.1509788 35.4621662 52.46496 37.11 50.19L41.34 54.09C42.9886767 55.6732922 45.4320564 56.1002906 47.52 55.17 49 54.46 50.73 52.2 49.05 50.65zM25.39 26.28C27.71 23.87 28.25 20.13 25.82 17.49 25.51668 17.1642243 25.1816965 16.8694387 24.82 16.61 24.6874065 16.4722448 24.547186 16.3420401 24.4 16.22 21.1980762 13.7897181 16.8359659 13.5636814 13.4 15.65 12.4060005 16.2919904 11.5879468 17.1719137 11.02 18.21L10.9 18.33C8.99428632 20.3902945 8.67271754 23.4594446 10.11 25.87 10.22 27.56 11.76 28.52 13.55 28.74 15.2954463 29.5344323 17.2367325 29.7953579 19.13 29.49 21.5555845 29.2778257 23.802128 28.1258442 25.39 26.28z" opacity=".5"/>
      <path id="Shape" fill="#3D454C" fill-rule="nonzero" d="M57.6,18.56 L57.15,16.56 C57.1545273,16.5101025 57.1545273,16.4598975 57.15,16.41 C56.5809198,14.6809603 54.7541326,13.7037392 53,14.19 L44.31,16 C43.52,16.14 42.73,16.29 41.95,16.45 L41.41,16.55 C40.7990658,16.7343969 40.149872,16.7516627 39.53,16.6 C39.21,16.38 38.88,16.16 38.53,15.96 C38.0544174,15.6797028 37.5636648,15.4259803 37.06,15.2 C35.833476,14.6511917 34.4902858,14.4141581 33.15,14.51 L32.35,14.58 C31.7,14.66 31.01,14.78 30.2,14.94 L26.32,15.58 C25.7677153,15.671127 25.393873,16.1927153 25.485,16.745 C25.576127,17.2972847 26.0977153,17.671127 26.65,17.58 L30.55,16.94 L31.73,16.73 L34,25.55 C27.8882799,25.7589132 21.8152034,26.6068649 15.88,28.08 C10.71,29.37 8.32,31.35 7.21,32.83 C7.21,32.76 7.21,32.68 7.21,32.61 L7.36,26.2 C7.35435943,25.1309688 7.94952193,24.1493372 8.9,23.66 C9.39266995,23.4563998 9.63901373,22.9021263 9.46,22.4 C9.27204668,21.8810135 8.69913674,21.6124619 8.18,21.8 L8.08,21.8 C6.42746246,22.6024864 5.37323795,24.2729672 5.36,26.11 L5.2,32.61 L5.2,32.72 C5.29406679,33.832541 5.78784315,34.8733789 6.59,35.65 C7.44841704,36.4858716 8.60188796,36.949416 9.8,36.94 C10.1057764,36.9448851 10.4111044,36.9146879 10.71,36.85 L36.28,31.62 C37.6970699,31.4000146 39.0410579,30.844591 40.2,30 C40.3553825,29.891066 40.5024543,29.7707346 40.64,29.64 C40.6435107,29.6235182 40.6435107,29.6064818 40.64,29.59 C42.0058188,28.3592401 42.9970545,26.7684108 43.5,25 C43.56,24.78 43.6,24.59 43.63,24.42 L43.63,24.23 C43.6404441,24.1670972 43.6404441,24.1029028 43.63,24.04 L43.63,23.04 L56.51,20.3 C56.9136499,20.2092552 57.2197413,19.8793126 57.28,19.47 C57.5355878,19.2415637 57.6563555,18.8981307 57.6,18.56 Z M42.6,21.15 C42.1526524,21.2457426 41.8273179,21.6328494 41.81,22.09 L41.74,23.82 L41.74,23.96 C41.74,24.1 41.67,24.26 41.63,24.43 C41.2479772,25.8328871 40.4908498,27.1051376 39.44,28.11 L39.37,28.17 L39.07,28.41 C38.1587861,29.0664519 37.101874,29.491962 35.99,29.65 L10.32,34.89 C9.69064896,35.0199284 9.03548635,34.9131084 8.48,34.59 C9.01,33.59 10.78,31.42 16.4,30.02 C22.5844467,28.4733696 28.9258968,27.6412639 35.3,27.54 C35.615599,27.5543197 35.9168851,27.4074427 36.1,27.15 C36.2894691,26.906457 36.3558959,26.5890845 36.28,26.29 L33.75,16.45 C34.6156074,16.4384499 35.4729564,16.6194837 36.26,16.98 C36.65,17.15 37.06,17.37 37.53,17.63 C37.82,17.81 38.11,17.99 38.37,18.18 C39.07,18.68 40.19,18.77 41.79,18.47 L42.34,18.36 C43.11,18.21 43.88,18.06 44.68,17.92 L53.39,16.15 C53.7504829,16.0199817 54.148213,16.0411815 54.4928322,16.2087832 C54.8374514,16.3763849 55.0997003,16.6761585 55.22,17.04 L55.52,18.4 L42.6,21.15 Z"/>
      <path id="Path" fill="#3D454C" fill-rule="nonzero" d="M10.14,28.32 C10.2130085,28.3297619 10.2869915,28.3297619 10.36,28.32 C10.8396928,28.3306736 11.2593583,27.9991379 11.36,27.53 C11.43,27.24 11.5,26.92 11.57,26.58 C11.9831693,24.3854437 12.5854145,22.2307443 13.37,20.14 C14.37,17.69 15.37,16.36 16.54,15.82 C17.71,15.28 19.18,16.1 21.64,17.76 C23.9428495,19.3577101 25.9467143,21.3480352 27.56,23.64 C27.7625373,23.9460926 28.1164818,24.116633 28.482088,24.0842878 C28.8476941,24.0519427 29.1662,23.8219107 29.3118521,23.4850138 C29.4575042,23.1481168 29.4068926,22.7585027 29.18,22.47 C27.4310026,19.9886686 25.2576441,17.8356219 22.76,16.11 C20.16,14.35 18.1,12.95 15.76,13.99 C13.42,15.03 12.33,17.39 11.53,19.4 C10.705632,21.5952185 10.0699951,23.8567476 9.63,26.16 C9.56,26.5 9.5,26.82 9.43,27.1 C9.29027534,27.6328045 9.60772322,28.1782783 10.14,28.32 Z"/>
      <circle id="Oval" cx="18.96" cy="19.61" r="1" fill="#3D454C" fill-rule="nonzero"/>
      <circle id="Oval" cx="15.36" cy="23.71" r="1" fill="#3D454C" fill-rule="nonzero"/>
      <circle id="Oval" cx="21.56" cy="23.71" r="1" fill="#3D454C" fill-rule="nonzero"/>
      <path id="Shape" fill="#3D454C" fill-rule="nonzero" d="M51.92,55 C48.25,50.58 44.75,45.93 40.87,41.69 C34.93,35.19 30.29,41.86 26.36,46.69 C23.06,44.12 21.25,44.99 17.67,47.82 C14.67,50.22 11.56,52.58 8.5,54.96 C7.79,55.51 8.41,56.66 9.21,56.66 L51.21,56.66 C51.5952833,56.6443668 51.9372512,56.4086059 52.0888888,56.0540729 C52.2405264,55.6995399 52.1748132,55.2894094 51.92,55 Z M12.11,54.7 L15.87,51.78 C19.01,49.33 22.11,45.56 25.87,48.91 L33.32,54.7 L12.11,54.7 Z M36.54,54.7 L27.89,47.97 C28.9954359,46.3673083 30.2474912,44.8708679 31.63,43.5 C36.06,39.64 38.89,42.43 41.17,45.17 C43.8366667,48.35 46.4733333,51.5266667 49.08,54.7 L36.54,54.7 Z"/>
      <circle id="Oval" cx="37.81" cy="46.26" r="1" fill="#3D454C" fill-rule="nonzero"/>
      <circle id="Oval" cx="33.51" cy="48.36" r="1" fill="#3D454C" fill-rule="nonzero"/>
      <circle id="Oval" cx="19.86" cy="52.11" r="1" fill="#3D454C" fill-rule="nonzero"/>
      <circle id="Oval" cx="25.46" cy="52.11" r="1" fill="#3D454C" fill-rule="nonzero"/>
      <circle id="Oval" cx="39.56" cy="51.81" r="1" fill="#3D454C" fill-rule="nonzero"/>
    </g>
  </g>
</svg>
