<svg xmlns="http://www.w3.org/2000/svg" width="64" height="64" viewBox="0 0 64 64" style="background:#fff">
  <g id="Feta-(aus-Kuhmilch)" fill="none" fill-rule="evenodd" stroke="none" stroke-width="1">
    <rect width="64" height="64" fill="#FFF"/>
    <g transform="translate(2 7)">
      <g id="Layer_2">
        <rect id="Rectangle" width="60" height="60" x="0" y="0"/>
        <rect id="Rectangle" width="60" height="60" x="0" y="0"/>
      </g>
      <g id="Layer_1" fill-rule="nonzero" transform="translate(4 8)">
        <path id="Path" fill="#CCC" d="M47.83,22.9 C43.83,19.9 39.3,21.59 34.83,22.61 C37.18,17.36 36.04,9.61 30.74,7.53 C27.04,6.1 22.6,6.2 18.64,6.13 C14.6256054,5.89850241 10.5979145,6.14016387 6.64,6.85 C-0.19,8.35 -1.14,21.52 5.54,24.06 C9.39865747,25.3484151 13.3850568,26.2167729 17.43,26.65 C18.68,26.84 20,27.08 21.34,27.29 L21.34,27.29 C16.91,31.06 16.84,43.61 23.34,45.61 C28.34,47.14 33.51,44.73 38.16,42.77 C43.24,40.62 47.63,38.1 49.82,32.87 C51,30 50.49,24.94 47.83,22.9 Z" opacity=".5"/>
        <path id="Shape" fill="#3D454C" d="M51.38,7.23 L51.38,7.23 C51.38,7.23 51.38,7.23 51.38,7.23 C51.367629,7.14397899 51.3440975,7.05993759 51.31,6.98 C51.3038446,6.96390166 51.3038446,6.94609834 51.31,6.93 C51.2600124,6.82581183 51.1923442,6.73107633 51.11,6.65 L51,6.49 C50.9361612,6.43742488 50.8655249,6.39369761 50.79,6.36 L50.67,6.36 L50.56,6.36 C49.91,6.23 34.56,3.17 31.1,2.7 C28.5532755,2.23173316 26.0459967,1.56981156 23.6,0.72 C22.9301653,0.504984093 22.2098347,0.504984093 21.54,0.72 C19.16,1.48 13.39,3.34 11.17,4.35 C8.55,5.55 3.51,7.17 3.46,7.19 C3.20565166,7.2703872 2.99806648,7.4561213 2.89,7.7 L2.89,7.75 C2.85229759,7.84262281 2.82870175,7.94037703 2.82,8.04 C2.81407256,8.06295689 2.81407256,8.08704311 2.82,8.11 C2.82,8.62 2.41,20.57 2.82,24.59 C2.86460612,25.014649 3.17391666,25.3641297 3.59,25.46 C3.71,25.46 14.77,28.09 19.36,29.46 C14.27,31.13 8.73,32.89 8.65,32.91 L8.65,32.91 L8.65,32.91 C8.55020879,32.9398797 8.45808944,32.9910571 8.38,33.06 L8.3,33.15 C8.24800241,33.2020575 8.20112083,33.2589851 8.16,33.32 L8.1,33.45 C8.0694503,33.5235198 8.04925748,33.6009257 8.04,33.68 L8.04,33.76 C7.89650247,36.481443 7.89650247,39.208557 8.04,41.93 C8.06285586,42.3585514 8.35660812,42.7247357 8.77,42.84 C8.9,42.84 12.07,43.84 14.68,44.3 C17.0501929,44.8786866 19.3870072,45.5864075 21.68,46.42 C21.7858375,46.4584365 21.8974065,46.4787218 22.01,46.48 L22,46.48 L22.17,46.48 C25.840469,45.5662802 29.4345722,44.3693602 32.92,42.9 C36.37,41.22 49.79,36.46 49.92,36.41 C50.2836564,36.2808115 50.5405179,35.9538968 50.58,35.57 C50.8329428,32.8425185 50.8329428,30.0974815 50.58,27.37 C50.58,27.37 50.58,27.37 50.58,27.29 C50.5644337,27.2035136 50.5375353,27.1194563 50.5,27.04 C50.4804295,26.9979204 50.4569957,26.9577482 50.43,26.92 C50.3922945,26.8623305 50.3487298,26.8087123 50.3,26.76 L50.18,26.66 C50.1289484,26.6204195 50.0714334,26.5899704 50.01,26.57 C49.9626031,26.544023 49.9122371,26.5238766 49.86,26.51 L49.86,26.51 C49.43,26.41 39.36,24.04 37.27,23.64 C36.5741554,23.5038943 35.8530894,23.5914023 35.21,23.89 C34.74,24.09 33.73,24.48 32.49,24.89 C32.49,21.11 32.44,16.99 32.42,15.41 C34.64,14.47 42.26,11.28 44.42,10.59 C46.07,10.07 48.14,9.23 49.49,8.67 C49.54,11.97 49.65,19.93 49.49,23.46 C49.4764025,23.7253014 49.5689255,23.9851106 49.7471534,24.1820993 C49.9253813,24.3790881 50.1746654,24.4970657 50.44,24.51 L50.49,24.51 C51.0422847,24.51 51.49,24.0622847 51.49,23.51 C51.62,19.07 51.39,7.71 51.38,7.23 Z M9.87,41.23 C9.76,38.69 9.8,36.53 9.87,35.23 L20.87,38.34 C20.87,39.46 20.78,41.66 20.87,44.16 C18.9321889,43.4708062 16.955425,42.8964762 14.95,42.44 C13.11,42.05 11,41.48 9.87,41.18 L9.87,41.23 Z M36,25.74 C36.2722289,25.6162874 36.5755466,25.5779369 36.87,25.63 C38.18,25.88 42.87,26.96 46.08,27.71 C44.5,28.29 42.49,29.02 40.49,29.77 C40.1357303,29.8799478 39.8714271,30.1769638 39.8033763,30.5416069 C39.7353256,30.9062501 39.8747091,31.2786032 40.1654758,31.5089297 C40.4562425,31.7392561 40.8506143,31.7897093 41.19,31.64 C44.19,30.54 47.1,29.47 48.71,28.89 C48.8437506,30.8510554 48.8437506,32.8189446 48.71,34.78 C46.01,35.78 35.27,39.6 32.1,41.14 C29.1312858,42.4135997 26.0688981,43.4566837 22.94,44.26 C22.87,41.68 22.94,39.39 22.94,38.26 C24.76,37.68 29.94,36.01 32.58,35.1 C33.1046705,34.9205075 33.3844925,34.3496705 33.205,33.825 C33.0255075,33.3003295 32.4546705,33.0205075 31.93,33.2 C29.05,34.2 23.29,36.05 21.93,36.48 L12.44,33.81 C16.01,32.66 21.79,30.81 25.31,29.6 C27.56,28.84 34.35,26.45 36,25.74 Z M43.78,8.74 C41.38,9.5 32.88,13.09 31.25,13.74 C30.35,13.61 27.34,13.16 24.57,12.53 C24.0396633,12.4276238 23.5238696,12.7648841 23.4049836,13.2917655 C23.2860975,13.818647 23.6070877,14.34472 24.13,14.48 C26.56,15.03 29.13,15.48 30.4,15.63 C30.4,17.44 30.47,21.8 30.47,25.63 C28.38,26.38 26.11,27.18 24.66,27.63 L22.66,28.3 C22.6255279,28.2762157 22.5886602,28.2561061 22.55,28.24 C22.36,28.18 22.1,28.12 21.83,28.06 C21.6095848,28.0232495 21.3922895,27.9697614 21.18,27.9 C18,26.86 7.56,24.34 4.7,23.67 C4.46,20.09 4.7,12.38 4.7,9.39 C6.43,9.8 9.79,10.61 13.03,11.44 C13.5625786,11.5727367 14.1026083,11.2513968 14.24,10.72 C14.3067762,10.4627189 14.2683746,10.1894383 14.1332779,9.96052449 C13.9981813,9.7316107 13.7775067,9.56590106 13.52,9.5 C11.38,9 9.13,8.39 7.37,8 C8.93,7.45 10.71,6.78 12,6.19 C14.18,5.19 20.31,3.19 22.14,2.65 C22.4161675,2.55988163 22.7138325,2.55988163 22.99,2.65 C25.5548579,3.51716584 28.1826053,4.18580384 30.85,4.65 C33.29,4.98 42.11,6.65 46.95,7.65 C45.89,8 44.72,8.45 43.73,8.77 L43.78,8.74 Z"/>
        <path id="Path" fill="#3D454C" d="M36.58 33.45C37.1322847 33.45 37.58 33.0022847 37.58 32.45 37.58 31.8977153 37.1322847 31.45 36.58 31.45 36.0277153 31.45 35.58 31.8977153 35.58 32.45 35.58 33.0022847 36.0277153 33.45 36.58 33.45zM18.6 11.07C18.0477153 11.07 17.6 11.5177153 17.6 12.07 17.6 12.6222847 18.0477153 13.07 18.6 13.07 19.1522847 13.07 19.6 12.6222847 19.6 12.07 19.6 11.5177153 19.1522847 11.07 18.6 11.07zM12.05 19.51C11.4977153 19.51 11.05 19.9577153 11.05 20.51 11.05 21.0622847 11.4977153 21.51 12.05 21.51 12.6022847 21.51 13.05 21.0622847 13.05 20.51 13.05 19.9577153 12.6022847 19.51 12.05 19.51zM43.25 18.71C43.8022847 18.71 44.25 18.2622847 44.25 17.71 44.25 17.1577153 43.8022847 16.71 43.25 16.71 42.6977153 16.71 42.25 17.1577153 42.25 17.71 42.25 18.2622847 42.6977153 18.71 43.25 18.71z"/>
      </g>
    </g>
  </g>
</svg>
