<svg xmlns="http://www.w3.org/2000/svg" width="64" height="64" viewBox="0 0 64 64" style="background:#fff">
  <g id="Fisch" fill="none" fill-rule="evenodd" stroke="none" stroke-width="1">
    <rect width="64" height="64" fill="#FFF"/>
    <g transform="translate(2 6)">
      <rect id="Rectangle" width="60" height="60" x="0" y="0"/>
      <path id="Path" fill="#E0A075" fill-rule="nonzero" d="M53.71,24.89 C51.62,19.71 39.84,21.61 42.18,27.42 C43.74,31.28 45.94,36.05 44.43,40.25 C43.43,42.93 41,45.06 38.08,44.49 C31.46,43.18 27.3,51.49 35.08,52.99 C41.9,54.33 49.48,52.12 53.82,46.49 C58.85,39.94 56.52,31.86 53.71,24.89 Z" opacity=".5"/>
      <path id="Path" fill="#B3B3B3" fill-rule="nonzero" d="M42,8.57 C35.3180545,5.59023066 27.629983,5.8896219 21.2,9.38 C18.4896964,8.6012252 15.6557018,8.34667479 12.85,8.63 C10.99,8.83 8.37,9.63 8.41,11.99 C8.41,14.08 11.13,15.4 12.97,15.2 C13.27,15.2 13.55,15.2 13.83,15.13 C13.73,15.24 13.62,15.34 13.53,15.45 C6.33,23.76 4.21,35.88 5.62,46.45 C6.4,52.29 18.38,51.94 17.62,46.24 C16.67,39.06 17.28,31.81 20.38,25.24 C23.11,19.29 29,13 36,16.24 C41.58,18.78 49.09,11.84 42,8.57 Z" opacity=".5"/>
      <path id="Shape" fill="#3D454C" fill-rule="nonzero" d="M15.82,40.52 C14.75,28.35 21.92,24 33.81,21 C46.53,17.77 45.6,11.08 45.56,10.8 C45.514167,10.5087972 45.3421843,10.2526526 45.09,10.1 C38.5156415,6.11469041 30.483754,5.34168565 23.27,8 C21.78,7.79 13.69,6.75 10.14,8.83 C9.75712478,9.05221541 9.56591785,9.49972099 9.67,9.93 C9.67,10.03 10.27,12.24 13.15,14.87 C10.1739721,18.1682026 8.13054047,22.199838 7.23,26.55 C6.23,31.38 7.5,37.42 9.08,41.66 C7.27317614,44.1548311 6.30659414,47.1596404 6.31986241,50.24 C6.33992773,50.5404878 6.49421141,50.8159943 6.74,50.99 C6.90999974,51.1086733 7.11268193,51.1715747 7.32,51.1700289 L7.59,51.1700289 C9.81689343,50.5001381 11.8527898,49.3108182 13.53,47.7 C15.6147475,48.7248315 17.9179104,49.2259668 20.24,49.16 C20.5425208,49.1484782 20.8235362,49.000529 21.0042462,48.7576392 C21.1849563,48.5147494 21.2459044,48.2030702 21.17,47.91 C20.2263315,44.9361615 18.3504953,42.3450532 15.82,40.52 Z M11.93,10.16 C13.93,9.45 17.09,9.43 19.7,9.61 C17.8259788,10.6489984 16.0920106,11.9225914 14.54,13.4 C13.4831093,12.4849017 12.5990875,11.3874953 11.93,10.16 L11.93,10.16 Z M13.85,45.58 C13.4296384,45.3262642 12.8872506,45.4152497 12.57,45.79 C11.3939988,47.0474006 9.97093029,48.0483149 8.39,48.73 C8.69971168,46.4333134 9.59889918,44.2559705 11,42.41 C11.2205333,42.1245156 11.2702108,41.7423811 11.13,41.41 C9.56,37.41 8.23,31.53 9.13,26.92 C10.6465139,19.5997337 15.5890337,13.4544972 22.4138648,10.4036293 C29.2386958,7.35276145 37.1139675,7.76812885 43.58,11.52 C43.49,12.83 42.41,16.74 33.31,19.05 C20.61,22.28 12.44,27.27 13.87,41.17 C13.898534,41.4596902 14.0518797,41.7225685 14.29,41.89 C16.1935445,43.2115737 17.7230432,45.0028784 18.73,47.09 C17.0177405,46.9229317 15.3573865,46.4091746 13.85,45.58 Z"/>
      <path id="Path" fill="#3D454C" fill-rule="nonzero" d="M30.11,17.28 C30.2783588,17.39317 30.477155,17.4524601 30.68,17.45 C31.0107551,17.4527557 31.3214745,17.2917806 31.51,17.02 C31.6588534,16.7999718 31.7140417,16.5297579 31.6633875,16.2689823 C31.6127332,16.0082067 31.4603997,15.7783028 31.24,15.63 C29.65,14.54 30,11.77 30,11.72 C30.071797,11.1677153 29.6822847,10.661797 29.13,10.59 C28.5777153,10.518203 28.071797,10.9077153 28,11.46 C28,11.62 27.5,15.49 30.11,17.28 Z"/>
      <path id="Shape" fill="#3D454C" fill-rule="nonzero" d="M50.63,48.15 C54.1367328,44.8610924 56.1820199,40.3060076 56.31,35.5 C56.2997314,31.6405217 55.2866184,27.8499629 53.37,24.5 L53.37,24.5 L53.37,24.5 C53.37,24.5 53.37,24.5 53.37,24.5 C52.58,23.17 50.71,22.69 48.43,23.26 C48.0834524,23.3475301 47.8099259,23.6132921 47.7124554,23.9571762 C47.6149848,24.3010603 47.7083783,24.6708222 47.9574554,24.9271762 C48.2065324,25.1835302 48.5734524,25.2875301 48.92,25.2 C50.4,24.82 51.42,25.08 51.66,25.53 C52.02,26.18 51.1,27.92 48.84,29.14 C46.58,30.36 44.78,30.14 44.34,29.59 L44.28,29.51 C44.05,29.04 44.44,28.15 45.28,27.32 C45.6677236,26.9299625 45.6677236,26.3000375 45.28,25.91 C45.0922334,25.7206873 44.8366375,25.6142017 44.57,25.6142017 C44.3033625,25.6142017 44.0477666,25.7206873 43.86,25.91 C42.37,27.47 41.86,29.17 42.6,30.47 C42.6715651,30.6040288 42.7552475,30.7312261 42.85,30.85 C44.85,33.48 45.01,37.85 43.29,41.28 C41.5003541,44.8935845 37.7599078,47.123767 33.73,46.98 C33.6041767,44.7791391 32.2394974,42.8406743 30.21,41.98 C29.8479472,41.7141641 29.3530694,41.7223439 29,42 C28.89,42.11 26.4,44.39 26.72,47.14 C24.36,48.58 24.11,51.95 24.1,52.14 C24.058181,52.5578508 24.2818808,52.9573146 24.66,53.14 C25.549929,53.5926376 26.5316792,53.8355096 27.53,53.85 C29.148139,53.8171461 30.6843773,53.1319694 31.79,51.95 C33.6771239,52.6681565 35.6716311,53.0636775 37.69,53.12 L38.23,53.12 C41.5113989,53.1214119 44.7307579,52.2258007 47.54,50.53 L47.61,50.53 C48.6979245,49.8455908 49.7102455,49.0478014 50.63,48.15 L50.63,48.15 Z M45,42.07 C46.5870735,38.9237062 46.8288684,35.2679109 45.67,31.94 L45.67,31.94 C47.1065485,31.8948543 48.5104251,31.5001213 49.76,30.79 C51.0044605,30.1406083 52.0797708,29.2091293 52.9,28.07 C53.8273202,30.417047 54.308883,32.9164254 54.32,35.44 C54.2884925,36.5004371 54.1545361,37.5553443 53.92,38.59 C53.3593076,38.760401 52.7759953,38.8446947 52.19,38.84 C51.6377153,38.84 51.19,39.2877153 51.19,39.84 C51.19,40.3922847 51.6377153,40.84 52.19,40.84 L52.19,40.84 C52.5243241,40.8340799 52.8581115,40.8107148 53.19,40.77 C52.3212577,43.0231976 50.9537547,45.0505207 49.19,46.7 C48.416946,47.4250333 47.5764701,48.0746442 46.68,48.64 C46.02,48.64 43.85,48.48 42.68,45.22 C42.68,45.22 42.68,45.22 42.68,45.22 C43.6186768,44.302445 44.4021981,43.2386121 45,42.07 Z M26.22,51.57 C26.42,50.66 26.93,49.11 28.22,48.67 C28.741642,48.4902055 29.0190902,47.9218843 28.84,47.4 C28.39,46.1 29.29,44.75 29.89,44.03 C32.59,45.81 31.48,48.86 31.27,49.36 C31.06,49.86 29.29,52.61 26.18,51.57 L26.22,51.57 Z M37.77,51.08 C36.1695033,51.0346279 34.5850087,50.7480704 33.07,50.23 L33.07,50.23 C33.2514619,49.8111746 33.3921128,49.3758264 33.49,48.93 C36.2359291,48.9687943 38.9262603,48.1547071 41.19,46.6 C41.7750251,48.0410392 42.8330187,49.2400986 44.19,50 C42.1331098,50.7977226 39.9345146,51.1652896 37.73,51.08 L37.77,51.08 Z"/>
      <path id="Path" fill="#3D454C" fill-rule="nonzero" d="M35.13,12.93 C35.6822847,12.93 36.13,12.4822847 36.13,11.93 C36.13,11.3777153 35.6822847,10.93 35.13,10.93 C34.5777153,10.93 34.13,11.3777153 34.13,11.93 C34.13,12.4822847 34.5777153,12.93 35.13,12.93 Z"/>
    </g>
  </g>
</svg>
