<svg xmlns="http://www.w3.org/2000/svg" width="64" height="64" viewBox="0 0 64 64" style="background:#fff">
  <g id="Fleisch" fill="none" fill-rule="evenodd" stroke="none" stroke-width="1">
    <rect width="64" height="64" fill="#FFF"/>
    <g transform="translate(2 9)">
      <rect id="Rectangle" width="60" height="60" x="0" y="0"/>
      <path id="Path" fill="#E05362" fill-rule="nonzero" d="M55.57,27.11 C48.82,18.31 38.74,10.69 27.34,12.05 C23.7,10.71 17.85,14.28 21.98,17.29 C30.78,23.7 33.8,34.48 30.23,44.67 C28.72,48.99 36.51,49.77 38.5,47.06 C40.4806753,44.0866803 43.4899737,41.9499003 46.95,41.06 C49.52,40.43 52.13,40.27 54.41,38.78 C59,35.85 58.64,31.11 55.57,27.11 Z" opacity=".5"/>
      <path id="Path" fill="#E0A075" fill-rule="nonzero" d="M23.48,47.41 C21.7329858,48.377152 19.6621191,48.5730805 17.7647194,47.9507334 C15.8673197,47.3283864 14.3148006,45.9439872 13.48,44.13 C11.8,40.87 12.54,37.82 13.7,34.53 C14.6518845,32.2755017 15.3722501,29.9301253 15.85,27.53 C15.97,26.63 15.85,18.73 15.58,18.69 C19.45,19.31 21.91,14.46 17.36,13.69 C12.81,12.92 9,15.46 8.68,20.14 C8.38,23.9 9.28,26.78 8.02,30.5 C7.15,33.07 6.02,35.5 5.62,38.22 C4,50.21 17.29,56.47 27.09,51.76 C31.21,49.78 26.68,45.87 23.48,47.41 Z" opacity=".5"/>
      <path id="Shape" fill="#3D454C" fill-rule="nonzero" d="M23.74,33.26 C22.5269859,32.4933542 21.0560876,32.2482045 19.66,32.58 C16.9885699,33.2218976 15.2200106,35.7611347 15.5441374,38.4894149 C15.8682643,41.2176952 18.1825343,43.2718814 20.93,43.2700013 C21.340517,43.2673255 21.7495485,43.2203875 22.15,43.13 C25.0148142,42.4050858 26.7859348,39.5358703 26.15,36.65 C25.8325813,35.2430706 24.9645372,34.0220458 23.74,33.26 L23.74,33.26 Z M21.74,41.18 C19.9436429,41.5180569 18.1989977,40.3838063 17.7789972,38.6048232 C17.3589967,36.8258401 18.4121269,35.0310621 20.17,34.53 C20.4222553,34.4699426 20.6806941,34.4397355 20.94,34.4399917 C21.572712,34.4385941 22.1930399,34.6153356 22.73,34.95 C23.9014106,35.6770969 24.5216757,37.0364757 24.3031691,38.3977719 C24.0846625,39.7590681 23.0701198,40.856038 21.73,41.18 L21.74,41.18 Z"/>
      <path id="Shape" fill="#3D454C" fill-rule="nonzero" d="M51.65,24.9 C49.9882832,24.2970089 48.5176567,23.2613564 47.39,21.9 C44.6266405,18.9824818 41.2576658,16.7057785 37.52,15.23 C31.1813569,12.6819714 24.3058514,11.7606537 17.52,12.55 C17.458234,12.5642498 17.3979627,12.5843402 17.34,12.61 C16.5371644,12.7234822 15.7512903,12.9350637 15,13.24 C12.848282,14.0929016 11.1029642,15.7345017 10.12,17.83 C9.45397159,19.492866 9.1604203,21.2814808 9.26,23.07 C9.33558846,26.3015565 8.68993409,29.5093314 7.37,32.46 C6.74499509,33.7488291 6.31689673,35.1241372 6.1,36.54 C5.67880845,39.9925974 6.61455519,43.4738621 8.71,46.25 C10.3758902,48.587406 12.6618687,50.4127252 15.31,51.52 C17.2069703,52.3416373 19.2435191,52.7930723 21.31,52.8500597 L21.85,52.8500597 C23.7875762,52.8552326 25.7107134,52.5166521 27.53,51.85 L27.53,51.85 C34.95,49.27 39.24,45.28 42.7,42.07 C45.39,39.57 47.51,37.59 50.21,37.07 C54.21,36.32 55.85,33.55 55.99,31.21 C56.1595628,28.3608322 54.3712973,25.7608425 51.65,24.9 Z M49.83,35.13 C46.57,35.74 44.14,38 41.32,40.61 C39.5560078,42.3105482 37.6855596,43.8970891 35.72,45.36 C36.3352862,44.4172851 36.8481915,43.4115885 37.25,42.36 C37.864548,40.7621257 38.2027081,39.0713255 38.25,37.36 C38.2017832,35.3288332 37.8925811,33.3122976 37.33,31.36 C36.9723776,29.9732665 36.459118,28.6314114 35.8,27.36 C35.533391,26.9285576 34.9860213,26.7650196 34.526431,26.9794951 C34.0668408,27.1939705 33.8405849,27.7185337 34,28.2 C34.5913487,29.3408327 35.0509715,30.5452457 35.37,31.79 C35.8903509,33.5722579 36.1793872,35.4140241 36.23,37.27 C36.2073608,38.7562157 35.9300075,40.2275411 35.41,41.62 C34.7198316,43.4508094 33.653573,45.1166255 32.28,46.51 C28.0518216,50.7927834 21.634536,52.0540298 16.1,49.69 C13.7901766,48.7211526 11.7957083,47.1283481 10.34,45.09 C8.53192881,42.7286295 7.72389315,39.751467 8.09,36.8 C8.27124339,35.5803464 8.63180822,34.3941892 9.16,33.28 C10.5914548,30.0876341 11.2983707,26.6179405 11.23,23.12 C11.1379026,21.6125844 11.3662505,20.1027616 11.9,18.69 C12.6581832,17.0399406 14.027919,15.7490901 15.72,15.09 C17.3103018,14.4329105 19.0822958,14.3620308 20.72,14.89 C23.61,15.89 26.97,18.5 29.95,22.12 C30.3007008,22.5480207 30.9319793,22.6107008 31.36,22.26 C31.7880207,21.9092992 31.8507008,21.2780207 31.5,20.85 C29.4424599,18.2884464 26.9718584,16.0882254 24.19,14.34 C28.4937307,14.5137433 32.7340735,15.4376169 36.72,17.07 C40.234621,18.4421648 43.4032507,20.5727951 46,23.31 C47.3482258,24.9049839 49.0988047,26.1100176 51.07,26.8 C52.9208168,27.3929748 54.1294265,29.1708274 54,31.11 C53.86,33.16 52.31,34.66 49.83,35.13 Z"/>
      <path id="Path" fill="#3D454C" fill-rule="nonzero" d="M33,23.45 C32.4477153,23.45 32,23.8977153 32,24.45 C32,25.0022847 32.4477153,25.45 33,25.45 C33.5522847,25.45 34,25.0022847 34,24.45 C34,23.8977153 33.5522847,23.45 33,23.45 Z"/>
    </g>
  </g>
</svg>
