<svg xmlns="http://www.w3.org/2000/svg" width="64" height="64" viewBox="0 0 64 64" style="background:#fff">
  <g id="Flunder" fill="none" fill-rule="evenodd" stroke="none" stroke-width="1">
    <rect width="64" height="64" fill="#FFF"/>
    <g transform="translate(2 5)">
      <rect id="Rectangle" width="60" height="60" x="0" y=".82"/>
      <path id="Shape" fill="#C17953" fill-rule="nonzero" d="M51.32,14 C51.26,12.2 49.9,11.07 48.19,10.58 C47.6063074,10.2939861 46.982507,10.0984162 46.34,10 C38.8,8.77 27.34,7.39 21.1,13 C18.3,15.51 17.72,18.83 17.4,22.41 C16.92,27.74 16.6,33.08 16.21,38.41 C16.1177374,39.3475582 16.491477,40.2706951 17.21,40.88 C17.48,42.61 19.1,44.21 22.06,44.21 C27.15,44.21 32.27,44.36 37.36,44.21 C41.11,44.09 45.05,43.39 47.62,40.39 C50.19,37.39 50.31,33.39 50.74,29.81 C51.3297755,24.5620198 51.5236566,19.2770878 51.32,14 L51.32,14 Z M39.68,34.25 C38.79,37.52 35.82,36.56 32.92,36.56 L26.68,36.56 C26.98,31.14 26.84,25.27 28.04,20.08 C29.04,15.56 36.22,16.15 41.04,16.88 C41.18,22.62 41.16,28.84 39.68,34.25 Z" opacity=".5"/>
      <path id="Path" fill="#E05362" fill-rule="nonzero" d="M30.72 47C23.88 47 24.03 55 30.86 55 37.69 55 37.55 47 30.72 47zM18.07 45.84C17.5609863 44.7430686 16.6362436 43.8938886 15.5 43.48 14.1573099 42.9236215 12.6726059 42.8080667 11.26 43.15 9.98591597 43.4997045 8.77691505 44.0535485 7.68 44.79 6.95614434 45.3039777 6.3239777 45.9361443 5.81 46.66 5.1222325 47.5386422 4.92996416 48.7073321 5.3 49.76 5.81293521 50.8518243 6.73675242 51.6965599 7.87 52.11 9.22073839 52.6470813 10.7025457 52.7621393 12.12 52.44 13.3919051 52.2054504 14.5416628 51.5332843 15.37 50.54L15.42 50.54 15.48 50.54 15.42 50.54 15.42 50.54C16.2549771 50.2467623 16.9899499 49.7232676 17.54 49.03 18.2823486 48.1416338 18.4853124 46.9207242 18.07 45.84L18.07 45.84zM8.81 21.83C7.11834422 25.4637581 6.7917556 29.5851645 7.89 33.44 8.61 36.11 14.48 35.24 13.66 32.17 12.8622385 29.0573686 13.2174273 25.7612161 14.66 22.89 15.93 20.13 10 19.3 8.81 21.83z" opacity=".5"/>
      <path id="Shape" fill="#3D454C" fill-rule="nonzero" d="M51.7,17 L51.61,16.36 C51.37,14.53 51.1,12.46 49.75,11.2 C48.75,10.2 47.09,10.04 45.65,9.87 L44.65,9.74 C41.9271965,9.31760275 39.1753556,9.11029517 36.42,9.11967448 C36,9.11967448 35.57,9.11967448 35.2,9.11967448 L35.03,9.11967448 L34.88,9.11967448 C30.46,9.24 22.46,10.03 18.53,13.96 C17.1258165,15.4613401 16.0976865,17.274276 15.53,19.25 C12.71,21.25 10.96,23.41 10.32,25.64 C9.32,29.31 10.85,34.45 14.99,40.88 L15,41 L9.2,44.78 C8.37478047,45.2983469 7.81344156,46.1476454 7.66,47.11 C7.57471425,47.6637581 7.75215435,48.2256518 8.14,48.63 C8.75,49.25 9.5,50 10.26,50.74 L12.51,52.91 C12.850986,53.2211537 13.2984813,53.389412 13.76,53.3803746 L14,53.3803746 C14.9347697,53.237253 15.7661187,52.7072227 16.29,51.92 L19.56,47.18 C24.25,50.05 28.21,51.5 31.34,51.5 C32.140626,51.5082774 32.9384381,51.4039222 33.71,51.19 C35.9,50.56 38.02,48.86 40,46.12 C42.6146991,45.5257756 45.0281314,44.2569998 47,42.44 C52.32,37.14 52.7,24 51.7,17 Z M14.57,23.3 C14.48,23.89 14.41,24.49 14.35,25.1 L14.35,25.56 C14.3,26.17 14.26,26.77 14.23,27.45 C14.2,28.13 14.23,28.67 14.23,29.27 L14.23,29.73 C14.23,30.35 14.23,30.98 14.23,31.73 C14.23,32.48 14.23,32.92 14.31,33.52 L14.31,33.94 C14.31,34.55 14.39,35.16 14.44,35.75 L14.51,36.48 C12.22,32.15 11.38,28.6 12.08,26.15 C12.6120543,24.5869176 13.5675181,23.2021874 14.84,22.15 C14.7,22.48 14.63,22.88 14.57,23.3 Z M33.19,49.43 C32.5879417,49.5988717 31.9652862,49.6830143 31.34,49.68 C29.08,49.68 26.26,48.79 22.95,47.05 L25.24,47.18 C26.68,47.27 28.08,47.32 29.41,47.32 C31.8208359,47.3403893 34.2291756,47.1597638 36.61,46.78 L37.2,46.69 C36.1396789,47.9535469 34.7525005,48.9013945 33.19,49.43 Z M45.75,41.18 C43.899853,42.8249065 41.6466159,43.9497997 39.22,44.44 C38.32,44.66 37.35,44.85 36.33,45.01 C34.0411409,45.3687747 31.7267263,45.5393457 29.41,45.52 C28.12,45.52 26.75,45.52 25.33,45.39 C23.4,45.29 21.44,45.12 19.51,44.88 L19.39,44.88 C19.1130167,44.8850954 18.8527247,45.0134084 18.68,45.23 C18.5776278,45.3009465 18.5061152,45.4082155 18.48,45.53 L14.78,50.87 C14.537273,51.2421979 14.1554575,51.5015442 13.72,51.59 L11.49,49.44 C10.75,48.7 10,48 9.42,47.29 C9.51927909,46.8722107 9.78233143,46.511865 10.15,46.29 L16.44,42.19 C16.7309862,41.9975852 16.8863634,41.6557555 16.84,41.31 L16.71,40.42 C16.0245867,35.8339404 15.7868008,31.1920924 16,26.56 C16.1239736,24.3387553 16.4962934,22.1383783 17.11,20 C17.587709,18.1934892 18.5010354,16.5316472 19.77,15.16 C23.17,11.76 30.24,10.99 34.3,10.84 C35.98,17.13 42.35,26.14 50.24,27.23 C49.82,33.76 48.23,38.7 45.75,41.18 Z M50.33,25.45 C43.63,24.4 37.81,16.34 36.16,10.85 L36.24,10.85 C38.9484376,10.842337 41.6533346,11.0462909 44.33,11.46 C44.68,11.52 45.06,11.56 45.46,11.61 C46.5412277,11.6115435 47.6019464,11.9052278 48.53,12.46 C49.41,13.28 49.63,15.01 49.84,16.62 L49.92,17.2 C50.2873997,19.9336714 50.4245484,22.6933712 50.33,25.45 L50.33,25.45 Z"/>
      <circle id="Oval" cx="26.39" cy="22.07" r="1" fill="#3D454C" fill-rule="nonzero"/>
      <circle id="Oval" cx="31.46" cy="28.47" r="1" fill="#3D454C" fill-rule="nonzero"/>
      <circle id="Oval" cx="36.52" cy="34.87" r="1" fill="#3D454C" fill-rule="nonzero"/>
      <circle id="Oval" cx="42.28" cy="14.12" r="1" fill="#3D454C" fill-rule="nonzero"/>
    </g>
  </g>
</svg>
