<svg xmlns="http://www.w3.org/2000/svg" width="64" height="64" viewBox="0 0 64 64" style="background:#fff">
  <g id="Fohlen" fill="none" fill-rule="evenodd" stroke="none" stroke-width="1">
    <rect width="64" height="64" fill="#FFF"/>
    <g transform="translate(2 8)">
      <rect id="Rectangle" width="60" height="60" x="0" y="0"/>
      <path id="Path" fill="#C17953" fill-rule="nonzero" d="M11.68 24C11.29 21.87 9.91 20.1 9.34 18 8.98364256 16.0162773 8.7498662 14.01248 8.64 12 8.64 11.65 8.1 11 7.72 11.46 6.01 13.46 5.86 16.67 6.08 19.2 6.32 21.95 7.08 25.92 9.66 27.33 11.39 28.19 11.85 25 11.68 24zM54 17.26C51.36 8 38.8 6.21 33 13.13 31.6706791 14.6647466 30.8221326 16.556588 30.56 18.57 30.28 20.62 30.8 22.81 29.97 24.74 28.14 28.99 25.89 26.46 24.97 22.74 23.41 16.51 10.58 18.54 12.37 25.74 14.64 34.86 24.51 39.13 32.58 36.63 36.5200698 35.4228191 39.8300908 32.7195157 41.8 29.1 42.8274825 27.2199501 43.4315823 25.1380244 43.57 23 47.69 25.36 55.52 22.91 54 17.26z" opacity=".5"/>
      <path id="Path" fill="#3D454C" fill-rule="nonzero" d="M50.22,14.45 C50.5590973,13.8450543 50.8211344,13.2000398 51,12.53 C51.1264848,12.000725 50.8065296,11.4674663 50.28,11.33 C48.634181,10.8976897 46.8809339,11.2931029 45.58,12.39 C45.3174098,12.6329406 45.2043737,12.9975172 45.2834713,13.3463973 C45.362569,13.6952774 45.6217835,13.9754578 45.9634713,14.0813973 C46.3051592,14.1873368 46.6774098,14.1029406 46.94,13.86 C47.433932,13.4608755 48.0369651,13.2203594 48.67,13.17 C48.5699302,13.4107275 48.4314644,13.6336237 48.26,13.83 C47.8788571,14.2188435 47.8788571,14.8411565 48.26,15.23 C50.1622589,17.0994589 51.8987677,19.1304047 53.45,21.3 C53.3854207,21.6509086 53.2017544,21.9687926 52.93,22.2 C52.7846389,22.3363065 52.5886874,22.4052524 52.39,22.39 C52.0778561,22.3014642 51.7834753,22.1593493 51.52,21.97 C50.7736106,21.4357715 49.8661966,21.1744928 48.95,21.23 L48.95,21.23 C47.4922535,21.4478754 46.0194608,20.9445159 45,19.88 C44.6506216,19.5747951 44.1372132,19.5499528 43.76,19.82 C43.67,19.89 41.63,21.39 42.05,25.12 C42.29,27.32 42.78,31.78 41.34,32.96 L41.34,32.96 C41.078708,33.0063079 40.846536,33.1545721 40.6946117,33.3721427 C40.5426875,33.5897132 40.48347,33.8587475 40.53,34.12 C40.8953375,36.2663111 40.9927494,38.4496819 40.82,40.62 C40.3740582,42.9352103 40.4046815,45.3170202 40.91,47.62 C41.0259505,47.9660205 41.1732276,48.3007411 41.35,48.62 L39.3,48.62 C38.9160853,46.3782079 38.7619535,44.1030884 38.84,41.83 C39.09,40.51 38.24,38.73 37.26,36.66 C36.5864002,35.4484775 36.0944792,34.1445499 35.8,32.79 C35.8,32.2377153 35.3522847,31.79 34.8,31.79 C34.2477153,31.79 33.8,32.2377153 33.8,32.79 C33.9004114,33.7726118 34.1711195,34.7302417 34.6,35.62 C30.7358195,36.4212923 26.7266001,36.1586194 23,34.86 C23.0979456,34.4293922 23.1581735,33.9910669 23.18,33.55 C23.18,32.9977153 22.7322847,32.55 22.18,32.55 C21.6277153,32.55 21.18,32.9977153 21.18,33.55 C20.853599,36.4778131 19.3432023,39.1444944 17,40.93 C16.7462443,41.125154 16.601257,41.429999 16.61,41.75 C16.6299662,43.460699 16.8549038,45.1628389 17.28,46.82 C17.4834809,47.3682068 17.7485096,47.8915544 18.07,48.38 L15.27,48.38 C14.78,45.9 14.16,42.38 14.16,41.6 C14.372078,39.8093013 14.7061885,38.0351745 15.16,36.29 C15.2207954,36.0428082 15.1850321,35.7817359 15.06,35.56 C15.06,35.5 11.86,29.8 13.25,25.8 C13.7552264,24.3611424 14.8778248,23.2238694 16.31,22.7 C17.7208948,22.2360336 19.2081961,22.049272 20.69,22.15 C21.05,22.22 21.53,22.35 22.09,22.5 C24.53,23.17 28.61,24.29 32.71,22.43 C33.0185825,22.2869688 33.2333093,21.9968992 33.28,21.66 C33.4678741,20.5853231 33.7455131,19.5282881 34.11,18.5 L35.77,19.12 C35.8821529,19.1607202 36.0006881,19.1810405 36.12,19.18 C36.5969157,19.1718027 37.0016539,18.8279156 37.0867657,18.3585845 C37.1718776,17.8892533 36.9136676,17.4251425 36.47,17.25 L34.89,16.65 C35.4367645,15.5001412 36.1475044,14.4357155 37,13.49 L37.87,14.75 C38.0585255,15.0217806 38.3692449,15.1827557 38.7,15.18 C38.8994427,15.1804453 39.0944627,15.1212428 39.26,15.01 C39.7155974,14.6979346 39.831997,14.0756442 39.52,13.62 L38.52,12.16 C39.2797586,11.6439795 40.1169339,11.2523976 41,11 L41.35,12.57 C41.4547542,13.0351526 41.8733401,13.3616496 42.35,13.35 L42.57,13.35 C42.8305186,13.2927191 43.0573554,13.1337298 43.200076,12.9083815 C43.3427967,12.6830332 43.3895712,12.4100045 43.33,12.15 L43,10.6 C44.1597698,10.5316711 45.3234658,10.6191164 46.46,10.86 C46.8216812,10.9691427 47.2139963,10.8651413 47.4741132,10.591162 C47.7342301,10.3171827 47.8177401,9.92000074 47.6899821,9.56446828 C47.5622242,9.20893582 47.2450097,8.95575125 46.87,8.91 C43.6064967,8.06330789 40.1365853,8.65679745 37.34,10.54 C33.11,13.54 31.74,19.02 31.4,20.81 C28.11,22.08 24.83,21.18 22.62,20.57 C22.01,20.41 21.49,20.26 21.04,20.18 C19.2077829,20.016943 17.3617063,20.238336 15.62,20.83 C13.6289646,21.5605079 12.0672264,23.1405765 11.36,25.14 C11.31,25.29 11.27,25.45 11.23,25.6 C9.25084517,25.1963167 7.56428072,23.9111399 6.65,22.11 C5.65,20.05 6.01,17.11 6.39,15.39 C8.32228767,17.3343193 9.38317776,19.9793276 9.33,22.72 C9.33,23.2722847 9.77771525,23.72 10.33,23.72 C10.8822847,23.72 11.33,23.2722847 11.33,22.72 C11.4156511,18.7823354 9.54254976,15.0586098 6.33,12.78 C6.0702301,12.6169701 5.75001517,12.5821575 5.46128013,12.6855558 C5.17254509,12.7889542 4.94722386,13.0191278 4.85,13.31 C4.77,13.55 2.9,19.17 4.85,23.01 C6.0569337,25.3865412 8.29321467,27.0729776 10.91,27.58 C10.9554976,30.5843738 11.7128906,33.5351224 13.12,36.19 C12.6665905,37.9666311 12.3490073,39.7751837 12.17,41.6 C12.17,43.01 13.34,48.91 13.48,49.6 C13.5722491,50.0771082 13.9941358,50.4188364 14.48,50.41 L19.54,50.41 C20.0452593,50.4142854 20.4743321,50.040992 20.54,49.54 C20.5949676,48.7937857 20.3583772,48.0553369 19.88,47.48 C19.6015661,47.0722149 19.3732557,46.6323815 19.2,46.17 C18.8629036,44.8626242 18.6816442,43.5199618 18.66,42.17 C20.3826001,40.7297319 21.7051002,38.8699661 22.5,36.77 C23.3893312,37.1027107 24.3017536,37.3700872 25.23,37.57 C24.6,39.07 23.85,40.83 23.63,41.24 C22.9435213,42.8514824 23.2686294,44.7159577 24.46,46 C24.6732307,46.2470457 24.8703064,46.5075865 25.05,46.78 L23.85,46.96 L21.74,42.58 C21.4909014,42.0992609 20.9044333,41.9040968 20.4169459,42.1397157 C19.9294586,42.3753346 19.7180435,42.9561422 19.94,43.45 L22.37,48.45 C22.5382534,48.793391 22.8876049,49.0107653 23.27,49.01 L23.42,49.01 L26.83,48.5 C27.1531702,48.4532463 27.4331585,48.2516547 27.58,47.96 C27.7260114,47.6742375 27.7260114,47.3357625 27.58,47.05 C27.1264735,46.2324432 26.597505,45.459078 26,44.74 C25.3441866,44.0664382 25.1066507,43.0894759 25.38,42.19 C25.7,41.59 26.77,39.06 27.24,37.93 C28.1629442,38.0352935 29.09107,38.0887108 30.02,38.09 C31.8577022,38.1029818 33.6904726,37.8982217 35.48,37.48 C36.13,38.86 37.02,40.74 36.9,41.42 C36.52,43.42 37.37,49.09 37.47,49.73 C37.5447694,50.2230381 37.9713566,50.5856372 38.47,50.5800648 L42.95,50.5800648 C43.5022847,50.5800648 43.95,50.1322847 43.95,49.58 C43.9108502,49.0038256 43.6981899,48.4530007 43.34,48 C43.1198751,47.6899466 42.9385268,47.3541164 42.8,47 C42.4182439,45.0182172 42.4182439,42.9817828 42.8,41 C43.01001,38.8639644 42.9461593,36.7098465 42.61,34.59 C44.9,32.73 44.39,28.11 44.05,24.97 C43.8649902,23.9585692 44.0196898,22.9143464 44.49,22 C45.7808736,22.9713515 47.394715,23.41149 49,23.23 L49,23.23 C49.5169177,23.2018596 50.0270917,23.3577461 50.44,23.67 C50.8862992,23.9766526 51.3842813,24.2002364 51.91,24.33 C52.0926668,24.3784239 52.281034,24.4019698 52.47,24.4 C53.1047551,24.3882572 53.7145553,24.1507187 54.19,23.73 C54.9746905,23.0863184 55.43,22.1249212 55.43,21.11 C55.37,20.78 55.31,19.81 50.22,14.45 Z"/>
      <path id="Path" fill="#3D454C" fill-rule="nonzero" d="M51.9,35.62 C51.76,33.94 48.61,31.8 46.74,30.67 C46.2727084,30.4588104 45.7213987,30.6353188 45.4636556,31.078637 C45.2059125,31.5219551 45.3252779,32.0883909 45.74,32.39 C47.83,33.64 49.8,35.24 49.95,35.78 C49.9233701,36.8426526 49.7791581,37.8990894 49.52,38.93 C49.3943723,39.4457167 49.310765,39.9707702 49.27,40.5 C49.2723714,40.8068603 49.3264628,41.1111247 49.43,41.4 L48.43,40.97 L48.95,37.69 C49.022893,37.3072029 48.8667826,36.9169269 48.55,36.69 L45.55,34.55 C45.2552559,34.326709 44.8637768,34.2776237 44.523029,34.4212341 C44.1822813,34.5648445 43.9440326,34.8793327 43.898029,35.2462341 C43.8520254,35.6131355 44.0052559,35.976709 44.3,36.2 L46.81,38 L46.26,41.46 C46.1871055,41.9152726 46.4349375,42.3613702 46.86,42.54 L50.2,43.93 C50.3209113,43.9778158 50.4499871,44.0015929 50.58,44.000075 C50.7624342,43.9984279 50.9414366,43.950235 51.1,43.86 C51.3739378,43.6948704 51.5523535,43.4086618 51.58,43.09 L51.64,42.44 C51.666945,41.95923 51.5777664,41.4790379 51.38,41.04 C51.3022259,40.8759123 51.2515688,40.7003008 51.23,40.52 C51.23,40.37 51.35,39.8 51.44,39.35 C51.7529483,38.1315933 51.9075553,36.8779326 51.9,35.62 L51.9,35.62 Z"/>
    </g>
  </g>
</svg>
