<svg xmlns="http://www.w3.org/2000/svg" width="64" height="64" viewBox="0 0 64 64" style="background:#fff">
  <g id="Fruchtsaft" fill="none" fill-rule="evenodd" stroke="none" stroke-width="1">
    <rect width="64" height="64" fill="#FFF"/>
    <g transform="translate(2 4)">
      <rect id="Rectangle" width="60" height="60" x=".69" y="0"/>
      <path id="Path" fill="#EBE53F" fill-rule="nonzero" d="M40.69,28 C40.62,27.11 39.58,24.65 38.35,26.05 C36.84,27.77 36.13,29.91 34.65,31.67 C32.528294,34.1827457 29.5965579,35.8767162 26.36,36.46 C19.83,37.58 16.64,33.46 11.93,30.13 C11.35,29.73 11.15,30.63 11.2,31.03 C13.14,47.43 42,44.49 40.69,28 Z" opacity=".5"/>
      <path id="Path" fill="#E05362" fill-rule="nonzero" d="M51.5,28.18 C47.94,25.4 45,28.37 43.5,31.57 C40.23,38.57 32.07,43.05 24.36,43.35 C20.5180477,43.4946371 16.8091248,41.9312511 14.23,39.08 C11.75,36.55 10.33,32.8 6.85,31.41 C4.56,30.49 3.62,33.8 3.62,35.32 C3.62,46.84 13.93,58.24 25.49,58.82 C37.05,59.4 51,52 53.92,40.33 C54.92,36.42 55.1,31 51.5,28.18 Z" opacity=".5"/>
      <path id="Path" fill="#3D454C" fill-rule="nonzero" d="M11.79 35.4C11.8459814 35.2813206 11.8733801 35.1511765 11.87 35.02 11.8723626 34.6137349 11.6286962 34.24642 11.2534815 34.090629 10.8782668 33.9348381 10.4460905 34.0215401 10.16 34.31 9.97726627 34.5016338 9.87368349 34.755233 9.87 35.02 9.88718967 35.1541546 9.93141478 35.283428 10 35.4 10.0506419 35.5211849 10.1216691 35.6327991 10.21 35.73 10.3987188 35.9171865 10.654197 36.0215368 10.92 36.0200167 11.0506773 36.01842 11.1797777 35.991241 11.3 35.94 11.5512303 35.8490762 11.7490762 35.6512303 11.84 35.4L11.79 35.4zM14.23 33.77C14.1364613 33.8612664 14.0617189 33.9699825 14.01 34.09 13.8283177 34.5303954 13.9825336 35.0378109 14.3785479 35.3026302 14.7745621 35.5674496 15.3024067 35.5161359 15.64 35.18 15.7365064 35.0912711 15.811713 34.9818797 15.86 34.86 15.9125365 34.7366759 15.9397423 34.604048 15.94 34.47 15.93842 34.3393227 15.911241 34.2102223 15.86 34.09 15.811713 33.9681203 15.7365064 33.8587289 15.64 33.77 15.2499625 33.3822764 14.6200375 33.3822764 14.23 33.77L14.23 33.77zM10.1 38.52C9.84876974 38.6109238 9.6509238 38.8087697 9.56 39.06 9.45302321 39.3020399 9.45302321 39.5779601 9.56 39.82 9.61064187 39.9411849 9.68166906 40.0527991 9.77 40.15 9.95871883 40.3371865 10.214197 40.4415368 10.48 40.4400167 10.745803 40.4415368 11.0012812 40.3371865 11.19 40.15 11.2812768 40.053081 11.3556428 39.9415321 11.41 39.82 11.503 39.5752019 11.503 39.3047981 11.41 39.06 11.3556428 38.9384679 11.2812768 38.826919 11.19 38.73 10.9024393 38.4462554 10.4723971 38.3634033 10.1 38.52L10.1 38.52z"/>
      <path id="Shape" fill="#3D454C" fill-rule="nonzero" d="M58.17,18.22 C56.75,13 51.75,11.07 46.87,12.22 C45.14,10.07 39.2,10.64 37.14,10.42 C33.33,10 30.55,6.83 26.25,7.08 C24.2161279,7.17158405 22.2558402,7.86795622 20.62,9.08 C20.3014625,9.40268336 20.239898,9.89930348 20.47,10.29 L24,15.89 C24.06,17.46 24.55,19 24.54,20.6 C24.5321648,23.3580946 23.7302086,26.0555839 22.23,28.37 C21.1629296,28.1931441 20.078371,28.1461353 19,28.23 L18.5,28.23 L17.36,28.37 C16.998312,26.5318753 17.8625578,24.670112 19.5,23.76 C19.8189465,23.5714446 20.0074966,23.2219937 19.9899783,22.851895 C19.9724599,22.4817962 19.7517447,22.1517176 19.4164139,21.994132 C19.0810831,21.8365464 18.6861053,21.8772858 18.39,22.1 C17.5714922,22.622891 16.8645751,23.302619 16.31,24.1 C15.198021,22.2440907 13.403027,20.8978452 11.31,20.35 C9.75879334,20.0673197 8.15935268,20.4283672 6.88,21.35 C6.50722123,21.6419948 6.39034428,22.1554185 6.6,22.58 C8,25.45 9.77,27.16 11.9,27.69 C12.3614404,27.803234 12.8348694,27.8603141 13.31,27.86 C13.9894531,27.8605112 14.664626,27.7524835 15.31,27.54 C15.2896193,27.7762279 15.2896193,28.0137721 15.31,28.25 C12.4499651,27.9994815 9.60410827,28.8668585 7.37,30.67 C5.07420063,32.7445996 3.79632083,35.7165829 3.87,38.81 C3.87,42.6 5.87,47.28 10.35,49.25 C10.81,53.94 15.53,56.03 18.16,56.51 C19.1487035,57.0461853 20.2552666,57.3279809 21.38,57.33 C23.2421693,57.2630878 25.0392803,56.6279923 26.53,55.51 C28.0637836,55.6922302 29.581122,55.0587414 30.53,53.84 C36.46,47.33 31.53,41.52 31.17,41.08 C31.062093,40.9233876 30.9452318,40.7731375 30.82,40.63 C28.35,37.81 23.28,38.14 22.82,38.17 C19.82,38.28 18.82,39.31 18.48,40.17 C17.12,39.64 15.05,40.17 13.48,41.22 C12.707856,41.7269985 12.0697295,42.413156 11.62,43.22 L11.62,43.22 L11.62,43.22 C11.6233027,43.2499091 11.6233027,43.2800909 11.62,43.31 C11.0062901,44.462457 10.5905063,45.7098084 10.39,47 C7.54963847,45.2519711 5.83114733,42.1450302 5.86,38.81 C5.78625228,36.3011536 6.80840157,33.8845006 8.66,32.19 C10.388101,30.8117419 12.5629761,30.1176328 14.77,30.24 C14.7575483,30.4642552 14.8209533,30.6861729 14.95,30.87 C15.1388314,31.1284142 15.4399461,31.2808303 15.76,31.28 C15.9729454,31.277856 16.1796458,31.2077881 16.35,31.08 C17.0141301,30.6500707 17.7656399,30.3733785 18.55,30.27 L19.09,30.27 C19.22,30.27 19.35,30.27 19.48,30.27 C19.5565674,30.2755176 19.6334326,30.2755176 19.71,30.27 C21.3114441,30.1445979 22.9144519,30.492322 24.32,31.27 C25.9040185,32.2212392 26.7962034,34.001713 26.61,35.84 C26.53,37.13 28.53,37.12 28.61,35.84 C28.788002,33.4135114 27.6405328,31.080324 25.61,29.74 C25.61,29.74 25.55,29.66 25.5,29.64 C25.4522757,29.6063607 25.4021403,29.5762794 25.35,29.55 C25.3268915,29.5545808 25.3031085,29.5545808 25.28,29.55 L25.21,29.55 C24.887356,29.3686228 24.5533265,29.2082886 24.21,29.07 C25.4294418,27.0744073 26.1942358,24.8346533 26.45,22.51 C26.67,20.51 26.18,18.62 26.03,16.69 L29.7,16.69 C30.2522847,16.69 30.7,16.2422847 30.7,15.69 C30.7,15.1377153 30.2522847,14.69 29.7,14.69 L25.56,14.69 C24.63,13.22 23.7,11.69 22.74,10.28 C23.1065478,10.0642087 23.4874382,9.87376346 23.88,9.71 C26.0931188,8.97216932 28.5009406,9.07902531 30.64,10.01 C31.0705131,10.1682396 31.4912531,10.351896 31.9,10.56 L28.24,10.56 C27.6877153,10.56 27.24,11.0077153 27.24,11.56 C27.24,12.1122847 27.6877153,12.56 28.24,12.56 L37.11,12.56 C37.1598375,12.5657003 37.2101625,12.5657003 37.26,12.56 L37.56,12.56 C38.3,12.56 45.97,11.79 45.04,14.72 L41.04,14.72 C40.4877153,14.72 40.04,15.1677153 40.04,15.72 C40.04,16.2722847 40.4877153,16.72 41.04,16.72 C42.26,16.72 43.52,16.62 44.74,16.72 L44.53,17.05 C44.3253845,18.1353052 44.2116569,19.2357872 44.19,20.34 C44.11,26.24 47.64,29.44 49.45,34.67 C51.76,41.33 50.12,48.97 44.14,53.12 C40.73,55.5 36.42,55.51 32.4,55.18 C31.11,55.08 31.12,57.08 32.4,57.18 C40.93,57.88 48.93,55.05 51.72,46.09 C52.3138682,44.1481587 52.5676036,42.1182753 52.47,40.09 C55.9,33.9 60.09,25.26 58.17,18.22 Z M12.38,25.75 C10.811671,25.2171966 9.5245619,24.0743014 8.81,22.58 C9.47063888,22.3186803 10.1916717,22.2493502 10.89,22.38 C12.29,22.66 13.62,23.73 14.89,25.58 C14.0892553,25.8868324 13.214805,25.9460582 12.38,25.75 L12.38,25.75 Z M29,52.5 C27.77,53.85 26.75,53.5 26.66,53.5 C26.3205289,53.3708592 25.9377263,53.4359356 25.66,53.67 C25.66,53.67 22.32,56.52 19.01,54.67 C18.9060956,54.6170949 18.7948666,54.5800185 18.68,54.56 C18.44,54.56 12.62,53.49 12.34,48.84 L12.34,48.84 C13.7948735,50.4736392 15.9159387,51.353734 18.1,51.23 C20.88,51.23 22.54,50.99 23.58,50.43 C23.4648026,51.0483157 23.2118832,51.6327647 22.84,52.14 C22.6175684,52.4443905 22.585231,52.8480068 22.7563613,53.1839292 C22.9274915,53.5198515 23.2730007,53.7309799 23.65,53.73 C23.9700539,53.7308303 24.2711686,53.5784142 24.46,53.32 C25.3314207,52.0556467 25.7442621,50.531309 25.63,49 C26.1383887,49.2322855 26.691061,49.35169 27.25,49.35 C27.8725147,49.3411343 28.4885989,49.2226566 29.07,49 C30.0619368,48.5939362 30.8844335,47.8596902 31.4,46.92 C31.3647017,49.0231902 30.50248,51.0278557 29,52.5 Z M22.85,40.17 L22.85,40.17 C22.85,40.17 23.15,40.17 23.6,40.17 C24.96,40.17 27.82,40.38 29.21,41.97 C29.9646252,42.7837033 30.2612599,43.9214289 30,45 C29.8012797,45.9142506 29.1874017,46.6834471 28.34,47.08 C27.7023738,47.3582829 26.9776262,47.3582829 26.34,47.08 C25.8904052,46.8587623 25.553379,46.4601292 25.41,45.98 C24.8632374,43.8207639 23.16533,42.1421071 21,41.62 C20.54,41.49 20.23,41.05 20.25,40.88 C20.27,40.71 20.8,40.24 22.85,40.17 Z M22.85,45.07 C22.47,44.89 22.09,44.74 21.71,44.59 C21.33,44.44 20.97,44.3 20.57,44.12 C20.2191225,43.9924978 19.968484,43.6801636 19.92,43.31 C20.096957,43.4011026 20.2808682,43.478011 20.47,43.54 C21.4091258,43.7636174 22.242549,44.30393 22.83,45.07 L22.85,45.07 Z M14.55,42.87 C16.02,41.87 17.55,41.79 17.75,42 C17.8056183,42.2257132 17.8324978,42.4575487 17.83,42.69 C17.7331719,44.0641096 18.4924046,45.3559977 19.74,45.94 C20.17,46.13 20.59,46.3 20.98,46.45 C22.53,47.06 22.93,47.3 22.98,47.97 C22.98,48.32 22.91,48.43 22.86,48.48 C22.41,48.96 20.86,49.21 18.09,49.21 C14.54,49.21 13.49,47.04 13.43,46.92 C13.37,46.8 13.43,46.92 13.43,46.92 C12.6342647,45.4954976 13.1229581,43.6962173 14.53,42.87 L14.55,42.87 Z M56.21,25.07 C55.3731826,29.0507958 53.9830162,32.894791 52.08,36.49 C51.9233133,35.7399487 51.7263616,34.9988764 51.49,34.27 C53.6,29.93 56.61,23.27 54.3,18.61 C52.9847607,15.8435246 49.8316772,14.4696506 46.91,15.39 C47.0943933,15.0018868 47.2287998,14.591947 47.31,14.17 C54.17,12.55 57.41,18.69 56.19,25.07 L56.21,25.07 Z M46.9,25.07 C46.01,22.43 46.42,20.17 46.66,17.75 C47.6774489,17.2542962 48.8165071,17.0632956 49.94,17.2 C50.7546717,17.4903528 51.4366926,18.0658079 51.86,18.82 C53.31,20.74 53.15,22.73 52.67,25.04 C52.1618227,27.326172 51.4213081,29.5544173 50.46,31.69 C49.31,29.49 47.69,27.5 46.88,25.11 L46.9,25.07 Z"/>
      <path id="Path" fill="#3D454C" fill-rule="nonzero" d="M43.79 48.41C46.5638369 44.9805042 47.2498499 40.31255 45.58 36.23 45.13 35.04 43.19 35.56 43.65 36.76 44.92 40.12 44.8 44.2 42.38 47 41.54 48 43 49.39 43.79 48.41zM43.4 32C43.0378424 31.8197182 42.6027394 31.8754 42.2976521 32.1410716 41.9925649 32.4067432 41.8776019 32.8300617 42.0063897 33.2135632 42.1351775 33.5970646 42.4823421 33.865191 42.8859428 33.8928704 43.2895435 33.9205498 43.6700623 33.7023287 43.85 33.34 44.0954836 32.8456857 43.8940809 32.2459531 43.4 32z"/>
    </g>
  </g>
</svg>
