<svg xmlns="http://www.w3.org/2000/svg" width="64" height="64" viewBox="0 0 64 64" style="background:#fff">
  <g id="Frucht" fill="none" fill-rule="evenodd" stroke="none" stroke-width="1">
    <rect width="64" height="64" fill="#FFF"/>
    <g transform="translate(2 6)">
      <rect id="Rectangle" width="60" height="60" x="0" y="0"/>
      <path id="Path" fill="#E05362" fill-rule="nonzero" d="M23,22.56 C12.59,17.4 -1.49,25.94 2.49,38 C4.08,42.85 14.87,41.19 13.05,35.68 C11.98,32.42 13.99,27.81 17.52,29.57 C19.8,30.7 23.46,30.06 25.02,28 C26.73,25.76 25,23.6 23,22.56 Z" opacity=".5"/>
      <path id="Path" fill="#E0673A" fill-rule="nonzero" d="M55.34,19.25 C45.71,8.05 29.69,15.5 26.11,27.94 C24.81,32.49 33.66,33.56 34.82,29.54 C35.82,26.13 37.5,22.24 41.06,20.8 C44.62,19.36 47.96,22.13 49.26,25.35 C52.26,32.77 45.97,39.3 39.08,40.5 C33.25,41.5 36.64,47.65 41.58,46.79 C53.77,44.67 65.17,30.66 55.34,19.25 Z" opacity=".5"/>
      <path id="Path" fill="#EBE53F" fill-rule="nonzero" d="M27.68,54.22 C29.8473119,53.7662861 31.8494273,52.7289206 33.47,51.22 C35.4686916,49.4709739 36.5287692,46.8840197 36.3321381,44.2353981 C36.1355069,41.5867764 34.7050497,39.1847171 32.47,37.75 C30.4896527,36.4977682 28.1549586,35.9255048 25.82,36.12 C25.5143032,36.0268768 25.2038635,35.9501014 24.89,35.89 C21.6607059,35.3957973 18.3890879,36.4690069 16.08,38.78 C14.1693782,39.7358212 12.7266264,41.4238408 12.08,43.46 C11.22,46.66 13.22,49.75 15.7,51.6 C18.3444165,53.541075 21.5499744,54.5662917 24.83,54.52 C25.5776292,54.5262746 26.3242087,54.4626647 27.06,54.33 L27.06,54.33 L27.68,54.22 Z" opacity=".5"/>
      <path id="Path" fill="#31E085" fill-rule="nonzero" d="M11.91,11.37 L11.65,11.37 C10.2627348,11.3727144 8.91051715,11.8059831 7.78,12.61 C6.84181367,13.2718677 6.26517605,14.332733 6.22,15.48 C6.44,18.22 9.39,19.4 11.79,19.4 L12.05,19.4 C13.438459,19.3950261 14.7909707,18.9581683 15.92,18.15 C16.8602021,17.494478 17.4378871,16.4353889 17.48,15.29 C17.27,12.54 14.31,11.37 11.91,11.37 Z" opacity=".5"/>
      <path id="Shape" fill="#3D454C" fill-rule="nonzero" d="M53,17.39 C53,17.39 53,17.39 53,17.39 L53,17.32 C50.88,14.62 47.48,13.2 43.42,13.32 C37.42,13.53 31.23,17.2 27.6,22.25 C25.4602568,21.2157538 23.0719598,20.8067276 20.71,21.07 C20.49,21.07 20.27,21.07 20.06,21.07 C19.6,21.07 19.13,21.17 18.63,21.24 C18.4,20.24 18.16,17.74 21.16,15.83 C21.3869304,15.6880681 21.5474903,15.4610865 21.6057529,15.1998442 C21.6640156,14.9386018 21.6151175,14.6649066 21.47,14.44 C21.1712901,13.9767672 20.5540673,13.8425884 20.09,14.14 C19.073005,14.7608673 18.2111213,15.6056502 17.57,16.61 C15.83,14.15 13.86,12.68 11.71,12.26 C9.95426607,11.9042286 8.12915402,12.2642112 6.64,13.26 C6.24830326,13.5526273 6.12563914,14.0855817 6.35,14.52 C7.96,17.63 10,19.52 12.4,20.12 C12.945505,20.260556 13.5066791,20.3311228 14.07,20.33 C14.8859678,20.3524138 15.7000926,20.2409361 16.48,20 C16.4705606,20.3707153 16.4872687,20.7416348 16.53,21.11 C11.75,20.87 8.76,22.45 7.04,23.94 C4.51422542,26.2048563 3.1011611,29.4581904 3.17,32.85 C3.14331679,37.8899919 6.10871093,42.4657326 10.72,44.5 C11.3,50.76 18.49,52.39 19.72,52.62 C20.861191,53.2191507 22.1310872,53.5314765 23.42,53.5300052 C25.5830974,53.4614668 27.6747998,52.7398295 29.42,51.46 C31.0816557,51.5411478 32.699486,50.9121935 33.87,49.73 C35.0585535,48.7586462 35.7842805,47.3325925 35.87,45.8 C37.3648192,46.1054045 38.8845443,46.2727751 40.41,46.3 C43.15,46.3 45.53,45.61 49.07,44.04 C49.396898,43.8953074 49.6217717,43.587208 49.6599132,43.2317597 C49.6980548,42.8763114 49.5436697,42.5275154 49.2549132,42.3167597 C48.9661568,42.106004 48.586898,42.0653074 48.26,42.21 C43.26,44.41 41.02,44.74 36.26,43.83 C36.4447482,43.1434472 36.5586763,42.4397739 36.6,41.73 C44.47,41.17 52.44,34.85 54.54,27.35 C54.7511928,26.5970963 54.8983832,25.8276921 54.98,25.05 C56.4201849,29.1054133 55.9573909,33.5937803 53.72,37.27 C53.4225884,37.7340673 53.5567672,38.3512901 54.02,38.65 C54.1822789,38.7510518 54.3688653,38.8063366 54.56,38.81 C54.9019422,38.8072583 55.2187758,38.6299824 55.4,38.34 C59.29,32.24 58.36,24 53,17.39 Z M12.8,18.27 C10.9412333,17.6468441 9.40789059,16.3078688 8.54,14.55 C9.39602619,14.1917404 10.3388078,14.0943313 11.25,14.27 C12.95,14.6 14.55,15.86 16.02,18.02 C15.0082755,18.4319326 13.8935448,18.519294 12.83,18.27 L12.8,18.27 Z M12.11,37.86 L12.11,37.86 L12.05,37.97 C11.3581124,39.3171106 10.9111618,40.7764722 10.73,42.28 C7.27865362,40.3821146 5.14158139,36.7487081 5.16,32.81 C5.07319499,29.9964589 6.23335526,27.2881984 8.33,25.41 C10.4710085,23.7155503 13.1656791,22.8779212 15.89,23.06 C15.8471773,23.3194237 15.9082513,23.5852751 16.06,23.8 C16.2487222,24.0650724 16.5546135,24.2217484 16.88,24.22 C17.083908,24.2195172 17.2827955,24.1567107 17.45,24.04 C18.2769083,23.5295412 19.2050968,23.2053577 20.17,23.09 L20.74,23.09 C20.9065137,23.079902 21.0734863,23.079902 21.24,23.09 C21.3230052,23.1004577 21.4069948,23.1004577 21.49,23.09 C23.2061568,22.977263 24.9236105,23.2898395 26.49,24 C25.7930858,25.1951285 25.2456513,26.4713561 24.86,27.8 C24.4334482,29.2731713 24.2709429,30.8102004 24.38,32.34 C21.38,32.57 20.38,33.6 20.09,34.57 C18.58,33.87 16.09,34.48 14.26,35.68 C13.3764902,36.2282252 12.6469503,36.9921774 12.14,37.9 L12.11,37.86 Z M48,26.27 L42.77,26.44 L47.77,22.54 C47.9225488,22.4200583 48.1066998,22.3470928 48.3,22.33 L48.3,22.33 C48.7536316,23.3633516 48.9194816,24.5001152 48.78,25.62 C48.6575113,25.9623626 48.3588382,26.2112568 48,26.27 Z M48.06,28.27 L48.06,28.27 C47.4113556,29.6695186 46.5056597,30.9347792 45.39,32 C45.2279368,32.1681632 45.0121267,32.2742993 44.78,32.3 L44.78,32.3 L41.72,28.46 L48,28.27 L48.06,28.27 Z M46.52,21 L46.52,21 L41.52,24.92 L42.92,19.92 C43.0642617,19.5758717 43.388121,19.3406881 43.76,19.31 C44.895632,19.4283175 45.9776411,19.8535159 46.89,20.54 C46.8198971,20.7294473 46.6900177,20.890919 46.52,21 L46.52,21 Z M43.18,33.53 C43.1297414,33.756271 42.9838164,33.9496217 42.78,34.06 C41.4599118,34.8689025 40.0023485,35.4282001 38.48,35.71 L38.48,35.71 L40.17,29.71 L40.17,29.71 L43.18,33.53 Z M39.45,27.66 C39.4480976,27.6367054 39.4480976,27.6132946 39.45,27.59 L39.54,27.59 L39.69,27.59 C39.6543967,27.6291734 39.624134,27.6728862 39.6,27.72 C39.6,27.72 39.6,27.77 39.6,27.79 L39.52,27.79 C39.4936055,27.7846122 39.4663945,27.7846122 39.44,27.79 C39.44,27.79 39.46,27.68 39.45,27.66 Z M39.26,25.4 L36.26,21.59 L36.26,21.59 C36.3111336,21.3587089 36.4609491,21.1613909 36.67,21.05 C37.9868335,20.2397421 39.440753,19.6771532 40.96,19.39 L41,19.39 L39.26,25.4 Z M37.67,26.62 L31.39,26.83 L31.39,26.83 C32.0185818,25.4282025 32.903801,24.1563359 34,23.08 C34.1633511,22.899265 34.3963989,22.7973065 34.64,22.8 L37.67,26.62 Z M31.42,28.83 L36.67,28.65 L31.25,33 L31.25,33 C30.8557957,31.8879182 30.6430776,30.7196569 30.62,29.54 C30.7270511,29.1686194 31.0385328,28.8921793 31.42,28.83 Z M32.79,36.3 C33.6766816,37.219445 34.0280221,38.5303606 33.72,39.77 C33.4825451,40.8661982 32.7410103,41.7857014 31.72,42.25 C30.9309998,42.5862597 30.0390002,42.5862597 29.25,42.25 C28.6954543,42.0188489 28.2636154,41.5652367 28.06,41 C27.4182697,38.5552938 25.4663375,36.6727979 23,36.12 C22.41,35.95 22,35.42 22,35.12 C22,34.82 22.66,34.29 25.16,34.21 L25.21,34.21 C25.45,34.21 25.76,34.21 26.11,34.21 C28,34.21 31.22,34.58 32.79,36.3 Z M23.79,39.45 C23.37,39.29 22.91,39.12 22.45,38.91 C21.9025992,38.718071 21.5371848,38.2000659 21.5399838,37.62 C21.8278856,37.8045553 22.1411958,37.9460503 22.47,38.04 C23.7716738,38.311249 24.9039573,39.1071032 25.6,40.24 C24.9987759,39.9344834 24.3773198,39.6705316 23.74,39.45 L23.79,39.45 Z M25.5,43.14 C25.5451646,43.3634025 25.4862901,43.5952209 25.34,43.77 C24.52,44.65 20.83,44.65 19.62,44.65 C15.3,44.65 14,42.13 14,42 C13.5644671,41.199696 13.4662872,40.258684 13.72724,39.3857126 C13.9881927,38.5127412 14.5867027,37.779987 15.39,37.35 C17.13,36.22 19.05,36.07 19.39,36.42 C19.4689826,36.6825466 19.5061045,36.9558984 19.5,37.23 C19.3924712,38.7517459 20.253118,40.1768169 21.65,40.79 C22.14,41 22.65,41.19 23.08,41.36 C24.77,42 25.39,42.29 25.45,43.14 L25.5,43.14 Z M33.96,44.48 C33.8781369,44.7027157 33.8781369,44.9472843 33.96,45.17 C34.1255826,46.3587047 33.6120913,47.5401209 32.63,48.23 C30.86,49.78 29.63,49.46 29.56,49.45 C29.2169579,49.3262563 28.8337532,49.3990652 28.56,49.64 C28.56,49.64 24.56,52.93 20.56,50.78 C20.4603585,50.7273485 20.3518912,50.6934525 20.24,50.68 C20.17,50.68 13.04,49.48 12.7,44.13 C12.7,43.97 12.7,43.82 12.7,43.66 C13.56,44.79 15.58,46.66 19.59,46.66 C23.1,46.66 25.07,46.35 26.21,45.6 C26.0945314,46.4242174 25.7710287,47.2054419 25.27,47.87 C25.1108701,48.0821732 25.0425432,48.3488704 25.0800505,48.6114214 C25.1175578,48.8739723 25.2578268,49.1108701 25.47,49.27 C25.6430962,49.3998221 25.8536298,49.47 26.07,49.47 C26.383008,49.4723716 26.6790686,49.328042 26.87,49.08 C27.9405047,47.6155803 28.4222844,45.8026609 28.22,44 L28.33,44.07 C28.9552719,44.3636212 29.6393017,44.5106876 30.33,44.5 C31.0304329,44.4956074 31.7245282,44.3669459 32.38,44.12 C33.2110022,43.8042549 33.9427992,43.2726665 34.5,42.58 C34.3798489,43.234606 34.1817732,43.8724767 33.91,44.48 L33.96,44.48 Z M35.05,36 C34.9418771,35.8339415 34.8250473,35.6737178 34.7,35.52 L34.7,35.52 C34.56,35.33 34.42,35.15 34.27,34.98 C33.9415985,34.6244746 33.5723771,34.3089582 33.17,34.04 L37.9,30.26 L36.51,35.26 C36.38,35.65 35.89,35.83 35.05,36 Z M52.61,26.84 C50.72,33.57 43.61,39.25 36.5,39.76 C36.4003379,39.1076511 36.2327607,38.4675063 36,37.85 C36.4183953,37.7502743 36.8195062,37.5884817 37.19,37.37 C37.5414271,37.6245824 37.9661222,37.7579578 38.4,37.75 C38.5463144,37.7643752 38.6936856,37.7643752 38.84,37.75 C40.6092624,37.4238043 42.3038614,36.7764675 43.84,35.84 C44.3970557,35.4670457 44.8071286,34.9120332 45,34.27 C45.6626004,34.2038687 46.2831247,33.9147607 46.76,33.45 C48.0360692,32.2003638 49.070113,30.72558 49.81,29.1 C50.0386762,28.5737695 50.0386762,27.9762305 49.81,27.45 C50.2803845,27.0337679 50.5855859,26.4624026 50.67,25.84 L50.67,25.84 C50.8685414,24.3127197 50.6220068,22.7605936 49.96,21.37 C49.7250884,20.8735914 49.2817687,20.5072115 48.75,20.37 C48.7684756,19.8521344 48.56036,19.3519267 48.18,19 C46.9719949,18.0554247 45.5243743,17.4666795 44,17.3 C43.3677318,17.2371191 42.7336146,17.4000766 42.21,17.76 C41.7402578,17.4188641 41.1483783,17.2917734 40.58,17.41 C38.8101898,17.739722 37.1156298,18.390433 35.58,19.33 C35.007777,19.6714439 34.5727384,20.2019788 34.35,20.83 C33.6886552,20.900677 33.0695479,21.1891247 32.59,21.65 C31.3155052,22.9009715 30.2816789,24.375445 29.54,26 C29.2952636,26.5192737 29.277155,27.1168602 29.49,27.65 C29.0230977,28.0689725 28.7186281,28.6389679 28.63,29.26 C28.5817659,30.3448847 28.7169988,31.430129 29.03,32.47 C28.1539251,32.3237358 27.2680979,32.24351 26.38,32.23 C26.2750911,30.9065954 26.4106093,29.5751298 26.78,28.3 C28.72,21.4 36.2,15.59 43.45,15.3 C46.84,15.18 49.67,16.3 51.39,18.51 C53.125367,20.9123696 53.5806632,24.0098766 52.61,26.81 L52.61,26.84 Z"/>
      <path id="Path" fill="#3D454C" fill-rule="nonzero" d="M11.89 27.88C11.6046924 27.5927947 11.1743702 27.5059407 10.8 27.66 10.6781203 27.708287 10.5687289 27.7834936 10.48 27.88 10.3864613 27.9712664 10.3117189 28.0799825 10.26 28.2 10.1059407 28.5743702 10.1927947 29.0046924 10.48 29.29 10.5712664 29.3835387 10.6799825 29.4582811 10.8 29.51 10.9240297 29.5591127 11.0566323 29.5829131 11.19 29.58 11.3200129 29.5815929 11.4490887 29.5578158 11.57 29.51 11.6900175 29.4582811 11.7987336 29.3835387 11.89 29.29 12.1772053 29.0046924 12.2640593 28.5743702 12.11 28.2 12.0582811 28.0799825 11.9835387 27.9712664 11.89 27.88L11.89 27.88zM15.93 29C16.1923399 28.9988954 16.4437394 28.8947442 16.63 28.71 16.8193127 28.5222334 16.9257983 28.2666375 16.9257983 28 16.9257983 27.7333625 16.8193127 27.4777666 16.63 27.29 16.5866515 27.2423289 16.5360239 27.2018269 16.48 27.17 16.4289484 27.1304195 16.3714334 27.0999704 16.31 27.08 16.2504533 27.0495504 16.1862347 27.0292708 16.12 27.02 15.794221 26.9632572 15.460746 27.0632997 15.22 27.29 15.1316691 27.3872009 15.0606419 27.4988151 15.01 27.62 14.8836121 27.9276385 14.918444 28.277982 15.1029311 28.5547126 15.2874182 28.8314433 15.5974153 28.9983432 15.93 29L15.93 29zM11.44 32.84C11.199254 32.6132997 10.865779 32.5132572 10.54 32.57 10.4737653 32.5792708 10.4095467 32.5995504 10.35 32.63 10.2885666 32.6499704 10.2310516 32.6804195 10.18 32.72 10.1239761 32.7518269 10.0733485 32.7923289 10.03 32.84 9.93329607 32.9324871 9.85817889 33.0451629 9.81 33.17 9.64825364 33.5384674 9.72312449 33.9679896 10 34.26 10.1862606 34.4447442 10.4376601 34.5488954 10.7 34.55 10.8295809 34.5470009 10.957856 34.5233712 11.08 34.48 11.2022118 34.4268821 11.3139636 34.3523809 11.41 34.26 11.6972053 33.9746924 11.7840593 33.5443702 11.63 33.17 11.5836111 33.0510764 11.519558 32.9398262 11.44 32.84L11.44 32.84zM52.06 39.8699992C51.5143783 39.8706825 51.0700186 40.3086062 51.0613763 40.8541599 51.052734 41.3997136 51.4829997 41.8514925 52.028326 41.869457 52.5736523 41.8874216 53.0327185 41.4649396 53.06 40.92 53.0737058 40.6462314 52.9744311 40.3788386 52.7853888 40.180344 52.5963464 39.9818495 52.3341113 39.8696571 52.06 39.8699992z"/>
    </g>
  </g>
</svg>
