<svg xmlns="http://www.w3.org/2000/svg" width="64" height="64" viewBox="0 0 64 64" style="background:#fff">
  <g id="Frühkartoffeln" fill="none" fill-rule="evenodd" stroke="none" stroke-width="1">
    <rect width="64" height="64" fill="#FFF"/>
    <g transform="translate(2 8)">
      <rect id="Rectangle" width="60" height="60" x=".48" y="0"/>
      <path id="Path" fill="#D4BA39" fill-rule="nonzero" d="M34.41 9.68C27.1 2.87 16.31 13.36 13.1 19.6 10.3973892 24.9313441 9.1519945 30.8823299 9.49 36.85 9.79 42.36 10.9 51 16.75 53.2 21.24 54.92 23 48.59 23 45.53 23.08 38.19 18.34 33.31 22.47 26.05 25.62 20.51 31.61 17.18 34.6 11.73 34.9878326 11.077747 34.911102 10.249864 34.41 9.68zM50 29.15C48.5 26.71 45.11 23.15 41.92 24.62 40.53 25.27 40.25 27.34 40.53 28.62 40.98 30.72 42.11 32.62 42.53 34.62 42.53 34.73 42.66 35.27 42.72 35.55 42.6860313 35.7686888 42.6860313 35.9913112 42.72 36.21 42.59 36.85 42.32 38.51 42.58 37.59 41.58 41.21 41.58 46.81 45.39 48.96 49.2 51.11 51.72 46.81 52.39 43.56 53.4335809 38.6270204 52.5802338 33.4819444 50 29.15L50 29.15z" opacity=".5"/>
      <path id="Path" fill="#3D454C" fill-rule="nonzero" d="M31.17 19.78C29.3 18.85 26.81 19.63 26.53 19.72 25.9777153 19.8083656 25.6016345 20.3277153 25.69 20.88 25.7783656 21.4322847 26.2977153 21.8083656 26.85 21.72 26.9555576 21.7229671 27.0607281 21.7060041 27.16 21.67 28.1649859 21.3231117 29.2543824 21.3055973 30.27 21.62 30.7643143 21.8654836 31.3640469 21.6640809 31.61 21.17 31.7448672 20.929046 31.7740984 20.6430495 31.6907657 20.3797936 31.6074329 20.1165377 31.4189541 19.8994566 31.17 19.78zM18.78 26.4C17.2807232 25.8585342 15.6392768 25.8585342 14.14 26.4 13.6647577 26.6064979 13.4259745 27.1418129 13.5898332 27.6333889 13.7536918 28.124965 14.2659074 28.409947 14.77 28.29 15.7803089 27.9593994 16.8696911 27.9593994 17.88 28.29 18.0201653 28.3579235 18.1742591 28.3921666 18.33 28.39 18.7908398 28.3872689 19.1901381 28.0699538 19.29688 27.6216381 19.4036218 27.1733224 19.1901627 26.7101126 18.78 26.5L18.78 26.4zM25.75 33.71C23.88 32.78 21.39 33.57 21.11 33.66 20.5853295 33.8339697 20.3010303 34.4003295 20.475 34.925 20.6489697 35.4496705 21.2153295 35.7339697 21.74 35.56 22.7427676 35.2034764 23.8342272 35.1824193 24.85 35.5 24.9893223 35.5713839 25.1434577 35.6090614 25.3 35.61 25.6787855 35.6069645 26.0233412 35.3901654 26.19 35.05 26.4369243 34.5583464 26.240313 33.9595756 25.75 33.71zM17.23 42.66C15.9616637 42.0712293 14.4983363 42.0712293 13.23 42.66 12.7538597 42.9153377 12.5666327 43.502705 12.8071734 43.9864892 13.0477142 44.4702733 13.6290317 44.6755152 14.12 44.45 14.8232022 44.1359797 15.6267978 44.1359797 16.33 44.45 16.4671327 44.5164197 16.6176302 44.5506236 16.77 44.5500084 17.2308398 44.5472689 17.6301381 44.2299538 17.73688 43.7816381 17.8436218 43.3333224 17.6301627 42.8701126 17.22 42.66L17.23 42.66z"/>
      <path id="Shape" fill="#3D454C" fill-rule="nonzero" d="M55.71,38.06 C55.32,32.89 52.81,30.15 50.29,28.7 C50.2715125,28.5692952 50.2273297,28.4435441 50.16,28.33 C48.4863552,25.6964756 46.2535244,23.4636448 43.62,21.79 C42.3849192,21.0883765 41.0591453,20.5600858 39.68,20.22 C39.7784403,18.4101445 39.7014143,16.5950093 39.45,14.8 C39.45,14.72 38.45,6.94 29.17,6.94 C22.51,6.94 18.85,12.35 17.17,14.94 C15.8246502,15.4664617 14.622193,16.3023579 13.66,17.38 C9.3,22.72 5.66,28.25 5.66,42.01 C5.6652851,45.1580303 6.92296836,48.1745811 9.15552174,50.3940018 C11.3880751,52.6134225 14.4119933,53.8532873 17.56,53.8401057 C25.47,53.8401057 28.35,48.41 30.12,43.1 C31.27,39.63 33.74,36.1 35.21,33.96 C35.66,33.31 36.01,32.8 36.21,32.46 C38.0228164,29.3297385 39.1477966,25.8491178 39.51,22.25 C40.584558,22.5323676 41.6168997,22.9560649 42.58,23.51 C44.2576305,24.5582865 45.7509835,25.8759509 47,27.41 C46.2274815,27.2139759 45.4364356,27.1000116 44.64,27.07 C44.0877153,27.07 43.64,27.5177153 43.64,28.07 C43.64,28.6222847 44.0877153,29.07 44.64,29.07 C44.98,29.07 53.02,29.22 53.71,38.13 L53.71,38.91 C53.7462124,41.1718897 52.788516,43.3358448 51.09,44.83 C49.3380812,46.4419903 47.0188364,47.294178 44.64,47.2 C40.5461128,47.061342 36.6399516,45.4491627 33.64,42.66 C33.2331279,42.4005772 32.6990334,42.4687046 32.3703122,42.8219572 C32.041591,43.1752099 32.0120142,43.7128189 32.3,44.1 C35.6703528,47.2283775 40.0543467,49.0387717 44.65,49.2 C47.5424964,49.29458 50.3557403,48.245452 52.48,46.28 C54.5711871,44.4047257 55.7520261,41.7186814 55.72,38.91 L55.71,38.06 Z M34.51,31.43 C34.31,31.75 33.98,32.22 33.57,32.82 C31.3566371,35.7751241 29.5567123,39.018353 28.22,42.46 C26.34,48.09 23.81,51.84 17.56,51.84 C12.1278029,51.8344879 7.72551213,47.4321971 7.72,42 C7.72,28.9 11.12,23.67 15.23,18.64 C16.5,17.09 19.38,16 22,16 L22.13,16 C22.6822847,16 23.13,15.5522847 23.13,15 C23.13,14.4477153 22.6822847,14 22.13,14 C21.5008944,13.9939841 20.8722899,14.0374515 20.25,14.13 C22.37,11.34 25.13,8.99 29.19,8.99 C36.67,8.99 37.46,14.82 37.49,15.12 C37.49,15.16 38.9,24.1 34.51,31.43 L34.51,31.43 Z"/>
      <path id="Path" fill="#3D454C" fill-rule="nonzero" d="M48.52,40.65 C49.0722847,40.65 49.52,40.2022847 49.52,39.65 C49.52,39.0977153 49.0722847,38.65 48.52,38.65 C46.88,38.65 44.86,39.45 44.29,41.22 C44.0353771,41.9488522 44.1549957,42.7562777 44.61,43.38 C44.7988544,43.6318058 45.0952427,43.78 45.41,43.78 C45.6263702,43.78 45.8369038,43.7098221 46.01,43.58 C46.4518278,43.2486292 46.5413708,42.6218278 46.21,42.18 C46.1616022,42.0683527 46.1616022,41.9416473 46.21,41.83 C46.44,41.06 47.58,40.65 48.52,40.65 Z"/>
    </g>
  </g>
</svg>
