<svg xmlns="http://www.w3.org/2000/svg" width="64" height="64" viewBox="0 0 64 64" style="background:#fff">
  <g id="Frühlingszwiebeln" fill="none" fill-rule="evenodd" stroke="none" stroke-width="1">
    <rect width="64" height="64" fill="#FFF"/>
    <g transform="translate(2 4)">
      <rect id="Rectangle" width="60" height="60" x="0" y="0"/>
      <rect id="Rectangle" width="60" height="60" x="0" y="0"/>
      <g id="Group" fill="#31E085" fill-rule="nonzero" opacity=".5" transform="translate(19 3)">
        <path id="Path" d="M34.19,23.22 C30.19,20.76 26.75,20.04 22.13,21.36 C20.1762444,21.8939899 18.2616913,22.5622458 16.4,23.36 C17.4,21.66 18.23,19.92 19.06,18.7 C21.54,15.04 24.3,11.47 25.19,7.07 C25.41,5.96 24.91,3.35 23.27,3.47 C19.39,3.76 16.57,8.08 14.43,10.93 C13.18,12.59 11.73,14.37 10.5,16.27 C10.4222866,11.6424317 9.42280835,7.07678802 7.56,2.84 C6.69,1 5,-0.58 2.91,0.66 C0.82,1.9 0.68,5.14 0.91,7.33 C1.4157287,10.6386574 1.64984336,13.9831526 1.61,17.33 C1.47,20.85 0.61,24.6 3.06,27.57 C4.06,28.78 5.01,29.35 6.58,28.89 L7.04,28.76 C7.6707359,28.5397291 8.21639534,28.1269867 8.6,27.58 C8.90366922,28.141132 9.42416092,28.5531879 10.04,28.72 C10.009469,28.7678411 9.98272097,28.8179936 9.96,28.87 C9.04,30.76 8.44,35.87 11.48,36.52 C15.59,37.43 19.22,34.14 22.95,32.62 C27.13069,31.0510031 30.9605566,28.6722039 34.22,25.62 C34.77,25 34.88,23.64 34.19,23.22 Z"/>
      </g>
      <path id="Shape" fill="#3D454C" fill-rule="nonzero" d="M53.12,31.29 L52.19,27.16 C52.1265208,26.8780916 51.9441975,26.6374249 51.69,26.5 L50.28,25.74 L51.18,23.44 C51.3091408,23.1005289 51.2440644,22.7177263 51.01,22.44 C50.780149,22.1598095 50.4166931,22.0259047 50.06,22.09 C45.2814586,23.1399524 40.6547914,24.7896936 36.29,27 L45.47,13.57 C45.6740302,13.2751194 45.7045544,12.8935674 45.55,12.57 C45.4014553,12.2530948 45.0980402,12.0369116 44.75,12 L41.81,11.7 L41.2,9.56 C41.1448652,9.33628149 41.0141657,9.13846597 40.83,9 L38.23,7.1 C37.9972799,6.96431322 37.7196588,6.92825853 37.46,7 C37.1887503,7.04940987 36.9499359,7.20861946 36.8,7.44 L29.51,18.71 C29.6425081,14.8271103 29.5356389,10.9397448 29.19,7.07 C29.138458,6.55709871 28.7054781,6.16741675 28.19,6.16998723 L24.36,6.16998723 C24.0309175,6.17280294 23.7242809,6.33733962 23.54,6.61 L22.57,8 L20.42,7.21 C20.0858514,7.07259086 19.7035668,7.12611069 19.42,7.35 C19.1512242,7.55537482 19.0044904,7.88270411 19.03,8.22 C19.9,20.08 20.03,26.88 17.84,36.53 C14,36.62 9.46,38.85 8,43.16 C6.85,46.53 9,50.1 10.65,52.16 C10.2063324,52.3351425 9.94812238,52.7992533 10.0332343,53.2685845 C10.1183461,53.7379156 10.5230843,54.0818027 11,54.09 L12.87,54.09 L12.87,54.09 C12.9365789,54.0948373 13.0034211,54.0948373 13.07,54.09 L12.95,55.24 C12.8914759,55.7861142 13.2843589,56.277218 13.83,56.3400128 L13.94,56.3400128 C14.4554781,56.3425832 14.888458,55.9529013 14.94,55.44 L14.94,55.26 C17.25,55.98 22.21,57.06 25.18,54.32 C28.75,51.03 28.51,46.49 27.12,43.27 C34.45,36.87 47.12,33.59 52.35,32.46 C52.61022,32.4030934 52.8369826,32.2447195 52.98,32.02 C53.1187277,31.803693 53.1688611,31.5422829 53.12,31.29 Z M22.6,10.17 C23.028727,10.328574 23.5104049,10.1762485 23.77,9.8 L24.89,8.17 L27.28,8.17 C27.6538095,13.2040164 27.6304037,18.2596606 27.21,23.29 L21.65,23.29 C21.76,19.22 21.56,14.93 21.18,9.65 L22.6,10.17 Z M25.45,42.1 L25.45,42.1 C25.2074522,42.2180113 25.0228639,42.4290011 24.9381318,42.6850804 C24.8533997,42.9411596 24.8757104,43.2206087 25,43.46 C26.36,46.06 26.87,50.08 23.83,52.88 C20.79,55.68 14.54,53.03 14.48,53.01 C14.275485,52.9421222 14.054515,52.9421222 13.85,53.01 C13.8204415,52.7898214 13.7184077,52.585754 13.56,52.43 C13.51,52.43 8.56,47.62 9.9,43.82 C11.31,39.68 16.02,38.41 18.62,38.59 L18.69,38.59 C18.9296226,38.587241 19.160287,38.498524 19.34,38.34 L19.34,38.34 C19.410873,38.2687635 19.4714574,38.1879843 19.52,38.1 C19.5439646,38.0621082 19.5640654,38.0219067 19.58,37.98 C19.58,37.98 19.58,37.9 19.58,37.85 C20.59853,33.7473111 21.2378849,29.5597035 21.49,25.34 L27,25.34 C26.8004491,26.9663892 26.5032457,28.579302 26.11,30.17 C25.9746903,30.7057162 26.2992838,31.2496902 26.835,31.385 C27.3707162,31.5203097 27.9146902,31.1957162 28.05,30.66 C28.6948028,27.9460554 29.1129088,25.1832109 29.3,22.4 C29.4784067,22.3250957 29.6312509,22.2000413 29.74,22.04 L37.9,9.36 L39.37,10.43 L40.07,12.95 C40.1824241,13.3433056 40.5230542,13.6284843 40.93,13.67 L42.87,13.87 L32.47,29.08 C30.135066,30.4339489 27.8812262,31.9231526 25.72,33.54 C25.4020584,33.7402708 25.2232225,34.1018717 25.2570321,34.4761071 C25.2908417,34.8503425 25.5315894,35.1740369 25.8802762,35.3140824 C26.228963,35.4541279 26.6267263,35.3868831 26.91,35.14 C28.08,34.27 29.24,33.46 30.39,32.72 L33.21,36.92 C30.4121701,38.3072136 27.8041552,40.0481308 25.45,42.1 Z M35,36 L32,31.61 C37.1534882,28.4656755 42.7204898,26.0557764 48.54,24.45 L48.01,25.79 C47.8290865,26.2601955 48.0262027,26.7915521 48.47,27.03 L50.26,28.03 L51,30.75 C45.5039565,31.9584756 40.1435797,33.7173492 35,36 L35,36 Z"/>
      <path id="Path" fill="#3D454C" fill-rule="nonzero" d="M23.14 44.34C22.8728316 44.3528732 22.6219561 44.4722421 22.4434382 44.6714305 22.2649203 44.8706189 22.1736413 45.1330224 22.19 45.4 22.2188031 46.5938577 21.7126768 47.7381431 20.81 48.52 19.9537926 49.3684285 18.7845489 49.8245422 17.58 49.78 17.0332605 49.7027669 16.5273971 50.0832837 16.45 50.63 16.3727669 51.1767395 16.7532837 51.6826029 17.3 51.76 17.4931968 51.7702759 17.6868032 51.7702759 17.88 51.76 19.471751 51.7064446 20.9910344 51.0816925 22.16 50 23.5042125 48.8171852 24.2397197 47.0887433 24.16 45.3 24.1383226 44.7555525 23.6847611 44.328671 23.14 44.34zM24.15 37L24.15 36.93C24.15 36.3777153 23.7022847 35.93 23.15 35.93 22.5977153 35.93 22.15 36.3777153 22.15 36.93L22.15 37C22.15 37.5522847 22.5977153 38 23.15 38 23.7022847 38 24.15 37.5522847 24.15 37z"/>
    </g>
  </g>
</svg>
