<svg xmlns="http://www.w3.org/2000/svg" width="64" height="64" viewBox="0 0 64 64" style="background:#fff">
  <g id="Galgant" fill="none" fill-rule="evenodd" stroke="none" stroke-width="1">
    <rect width="64" height="64" fill="#FFF"/>
    <g id="38-Galgant-" transform="translate(2 9)">
      <g id="Layer_2">
        <rect id="Rectangle" width="60" height="60" x="0" y="0"/>
      </g>
      <g id="Layer_1" transform="translate(10 6)">
        <path id="Path" fill="#DFA077" fill-opacity=".5" d="M20.75,18.64 C22.75,16.3 24.54,13.82 24,10.29 C23.7831908,8.99809418 23.3965061,7.74052844 22.85,6.55 C22.2405998,5.21598022 22.3980363,3.65699749 23.2618488,2.47175263 C24.1256613,1.28650778 25.5615534,0.65926996 27.0180952,0.830919211 C28.474637,1.00256846 29.7253809,1.94641859 30.29,3.3 C31.107055,5.13783847 31.6818661,7.07404434 32,9.06 C32.2445938,10.6674152 32.2445938,12.3025848 32,13.91 C32.2352252,13.727264 32.4589814,13.5302249 32.67,13.32 C34.2743872,11.7515113 36.8465113,11.7806128 38.415,13.385 C39.9834887,14.9893872 39.9543872,17.5615113 38.35,19.13 C36.2864521,21.0601684 33.8003248,22.4813017 31.09,23.28 C29.2868346,23.7930779 27.5140228,24.4073856 25.78,25.12 C24.17,26.88 22.48,28.59 21.09,30.45 C20.0103112,31.8669054 19.116384,33.4161552 18.43,35.06 C19.84,34.57 21.28,34.15 22.7,33.58 C23.8911065,33.0578874 24.9452621,32.2672707 25.78,31.27 C26.7318938,30.1451602 28.218528,29.6243857 29.6642727,29.9093223 C31.1100174,30.1942589 32.2878793,31.2401692 32.7417863,32.6420733 C33.1956933,34.0439773 32.8543785,35.5817651 31.85,36.66 C30.1926501,38.5975198 28.1031405,40.1184087 25.75,41.1 C24.5,41.61 23.22,41.97 21.97,42.36 C20.7428168,42.6691693 19.5923221,43.2273975 18.59,44 C17.9290608,44.5594364 17.1044294,44.889289 16.24,44.94 C15.5443241,45.7263193 14.5673881,46.2076039 13.52,46.28 C12.1538892,46.3759598 10.8311063,45.7784527 10,44.69 C8.75261915,44.5528694 7.64189357,43.8383026 7,42.76 C5.79,40.76 5.52,38.26 4.73,36.1 C3.59553751,33.269406 2.22399481,30.5397015 0.63,27.94 C-0.241092272,26.4451551 -0.0691709806,24.5625046 1.05827003,23.2501633 C2.18571103,21.9378219 4.02094972,21.4841382 5.63,22.12 C4.35280849,18.4959961 4.8606056,14.4818043 7,11.29 C8.20674218,9.39842473 10.7184247,8.84325782 12.61,10.05 C14.5015753,11.2567422 15.0567422,13.7684247 13.85,15.66 C13.0103537,16.982621 12.8865456,18.637147 13.52,20.07 C14.2755792,22.1796768 13.1790205,24.5025909 11.07,25.26 C10.2534452,25.5587795 9.36177106,25.5833532 8.53,25.33 C9.53,27.17 10.53,29.02 11.43,30.94 C12.2710344,29.1168295 13.2963717,27.3844786 14.49,25.77 C14.5690072,25.4189617 14.7004846,25.0818401 14.88,24.77 C16.2640896,22.2476776 18.2799898,20.1283979 20.73,18.62 L20.75,18.64 Z"/>
        <path id="Shape" fill="#3C454E" d="M37.36,12.05 C35.3451144,11.387581 33.1385477,11.6744347 31.36,12.83 C29.79,13.77 28.51,15.17 26.84,15.92 C26.3821511,16.124864 26.1764085,16.6615838 26.38,17.12 C26.478144,17.339959 26.6603597,17.5114004 26.8858853,17.5959725 C27.1114109,17.6805446 27.3614253,17.6711895 27.58,17.57 C29.3,16.8 30.64,15.38 32.26,14.41 C32.512969,16.4472633 33.8311192,18.1959077 35.72,19 C34.5834922,19.8434472 33.3303835,20.5171616 32,21 C29.76,21.92 27.34,22.57 25.19,23.57 C23.04,24.57 20.3,26.2 19.44,28.63 C19.2144916,29.1984517 19.2144916,29.8315483 19.44,30.4 C20.0322623,31.4219347 21.1189235,32.0564536 22.3,32.07 C22.6,32.07 22.97,32.07 23.36,32.13 C23.2354764,33.7780346 23.5349869,35.4305065 24.23,36.93 C24.4288225,37.3883963 24.9616037,37.5988225 25.42,37.4 C25.8783963,37.2011775 26.0888225,36.6683963 25.89,36.21 C25.3266576,34.977174 25.0857888,33.6214269 25.19,32.27 C25.7935995,32.3320206 26.389738,32.4525879 26.97,32.63 C27.7233478,32.7681634 28.3514487,33.2865358 28.63,34 C28.989594,35.5362758 28.4971062,37.14736 27.34,38.22 C26.1860981,39.4313436 24.656696,40.2171885 23,40.45 C22.1572677,40.4950264 21.3127323,40.4950264 20.47,40.45 C19.4261302,40.3921863 18.38692,40.6277407 17.47,41.13 C16.6789431,41.6921842 16.1744571,42.5732068 16.09,43.54 C16.0321927,43.937523 15.9520661,44.3314788 15.85,44.72 C15.7836331,45.0424479 15.5390142,45.2987153 15.22,45.38 C14.2523592,45.4533834 13.2862971,45.2188683 12.46,44.71 C11.0565981,44.0884301 9.85724484,43.0831917 9,41.81 C8.36449917,40.5495053 8.0000098,39.169896 7.93,37.76 C7.81693787,36.1411245 7.50457848,34.5423818 7,33 C6.74890567,32.3155358 6.45499164,31.6475494 6.12,31 C5.92,30.63 5.59,30.14 5.23,29.6 C6.80845732,28.7695728 7.97107559,27.3208273 8.44,25.6 C8.55,25.67 8.68,25.72 8.79,25.79 C9.21292328,26.0553971 9.77070725,25.9304535 10.04,25.51 C10.2978209,25.0835567 10.169248,24.5293633 9.75,24.26 C8.92861925,23.7434445 8.04485756,23.3334866 7.12,23.04 C6.43518498,22.8238582 5.71713019,22.7324079 5,22.77 C4.51020465,22.8058596 4.02836455,22.913684 3.57,23.09 C2.76318292,23.3598911 2.10889829,23.959652 1.77,24.74 C1.53374835,25.4406198 1.53374835,26.1993802 1.77,26.9 C2.27,28.69 3.97,30.78 4.56,31.9 C4.85782896,32.4705654 5.12162362,33.0582598 5.35,33.66 C5.77496007,35.070926 6.02680775,36.5282846 6.1,38 C6.20028721,39.6561805 6.64294056,41.2735677 7.4,42.75 C8.44698131,44.3371152 9.9247326,45.5928569 11.66,46.37 C12.8542217,47.0605943 14.2403601,47.3448404 15.61,47.18 C16.6531269,46.9588283 17.4499164,46.1142314 17.61,45.06 C17.75,44.54 17.8,43.97 17.94,43.45 C17.9822178,43.1545631 18.1405999,42.8881933 18.38,42.71 C19.0136187,42.3902772 19.7221509,42.2485708 20.43,42.3 C21.339307,42.3502261 22.250693,42.3502261 23.16,42.3 C25.2466235,42.0161217 27.1751301,41.0324776 28.63,39.51 C30.252947,37.9723067 30.9117987,35.6739871 30.35,33.51 C29.9207279,32.2136143 28.8492542,31.2330076 27.52,30.92 C25.8619509,30.5215123 24.1650503,30.3068845 22.46,30.28 C22.1619761,30.2549719 21.8690352,30.1876292 21.59,30.08 C21.3818982,30.0310705 21.2040263,29.8967591 21.1,29.71 C21.0695704,29.5518465 21.0869783,29.3882119 21.15,29.24 C21.86,27.24 24.15,26.06 25.96,25.24 C28.09,24.24 30.47,23.62 32.7,22.71 C35.1440146,21.8447117 37.2887363,20.2969029 38.88,18.25 C39.292819,17.7194543 39.6294122,17.1337821 39.88,16.51 C40.1580236,15.583978 40.0463172,14.5846183 39.5706922,13.7428376 C39.0950673,12.9010569 38.2966765,12.2896892 37.36,12.05 Z M3.47,25.4 C3.63283472,25.0941617 3.91530849,24.8696313 4.25,24.78 C4.52259674,24.6630402 4.81376751,24.5953261 5.11,24.58 C5.62074008,24.5634516 6.12992041,24.6449204 6.61,24.82 L6.83,24.9 C6.49594952,26.2911527 5.567077,27.4650428 4.29,28.11 C4.11,27.79 3.94,27.48 3.79,27.11 C3.4768536,26.5986785 3.36294069,25.9899564 3.47,25.4 Z M38.15,15.9 C37.9729589,16.354015 37.7340329,16.7813898 37.44,17.17 C37.33,17.32 37.21,17.46 37.1,17.6 C35.3563481,17.0528127 34.1260724,15.4931406 34,13.67 C34.9084713,13.4247965 35.8694332,13.4561322 36.76,13.76 C37.2328438,13.850802 37.6482912,14.1303151 37.9105614,14.5340979 C38.1728316,14.9378808 38.2592887,15.4310839 38.15,15.9 Z"/>
        <path id="Shape" fill="#3C454E" d="M5.11,21.41 C5.35041642,21.4153581 5.58297832,21.3242796 5.75581526,21.1570787 C5.9286522,20.9898777 6.02738774,20.7604619 6.03,20.52 C6.05278397,19.7089278 6.15324318,18.9019055 6.33,18.11 C7.05854182,18.6290455 7.87504559,19.0118875 8.74,19.24 C9.066626,19.3536235 9.42942841,19.2722882 9.67628572,19.0300975 C9.92314303,18.7879069 10.0113869,18.4267226 9.90401706,18.0979829 C9.79664722,17.769253 9.51222212,17.5297882 9.17,17.48 C8.34724573,17.2546421 7.5807986,16.859496 6.92,16.32 C6.92,16.23 6.99,16.13 7.04,16.04 C8.1,13.81 10.68,12.97 12.04,14.64 C12.7407828,15.7599266 13.0174766,17.0937323 12.82,18.4 C12.82,18.84 12.71,19.4 12.72,19.93 C12.7170003,20.4059841 12.8375992,20.8745969 13.07,21.29 C13.4704849,21.9096018 14.1196916,22.3253858 14.85,22.43 C15.7547612,22.5608457 16.678066,22.428945 17.51,22.05 C21.35,20.17 21.86,15.29 20.94,11.63 C20.88,11.38 20.81,11.13 20.73,10.87 C23.6883849,10.5638232 26.2880208,8.77421877 27.63,6.12 C28.88023,7.21353479 29.7693699,8.66056645 30.18,10.27 C30.3341225,10.7130459 30.7997725,10.9663432 31.2554573,10.8550111 C31.711142,10.743679 32.0075343,10.3042009 31.94,9.84 C31.2175636,6.97679967 29.2666094,4.5792855 26.61,3.29 C24.0231097,1.91483537 20.8192137,2.64241335 19.08,5 C18.260091,6.09560772 17.9705403,7.49937891 18.29,8.83 C18.48,9.94 18.93,11.06 19.19,12.11 C19.6101122,13.7016378 19.651212,15.3696027 19.31,16.98 C19.0294133,18.4772932 18.0737207,19.7613898 16.72,20.46 C16.3119577,20.6431469 15.866867,20.7287412 15.42,20.71 C15.11,20.71 14.77,20.66 14.62,20.4 C14.5276927,20.1860178 14.4965381,19.9506281 14.53,19.72 C14.53,19.3 14.62,18.87 14.63,18.52 C14.8443521,16.7646358 14.4221319,14.990601 13.44,13.52 C11.3,10.87 7.09,11.75 5.44,15.28 C4.69058348,16.9234315 4.28885057,18.7039934 4.25999891,20.51 C4.25926155,20.9881672 4.63257069,21.3834357 5.11,21.41 L5.11,21.41 Z M20.51,6.07 C21.7595448,4.41500577 24.0371576,3.93303902 25.85,4.94 C25.95,4.94 26.04,5.04 26.14,5.09 C25.0218776,7.38871671 22.7601824,8.91431213 20.21,9.09 C20.16,8.88 20.11,8.67 20.07,8.46 C19.8583101,7.63738382 20.0192305,6.76329311 20.51,6.07 L20.51,6.07 Z"/>
        <path id="Path" fill="#3C454E" d="M10.5 28.54C10.160698 29.5222506 9.43967036 30.3261964 8.5 30.77 8.18359793 30.9073646 7.97205817 31.2118132 7.95368543 31.5562573 7.9353127 31.9007014 8.11326556 32.2259256 8.41325973 32.3961689 8.71325391 32.5664123 9.08371559 32.5524072 9.37 32.36 10.6855788 31.7276723 11.691181 30.5923149 12.16 29.21 12.3450154 28.7460808 12.1189192 28.2200154 11.655 28.035 11.1910808 27.8499846 10.6650154 28.0760808 10.48 28.54L10.5 28.54zM18.69 36.67C19.1397597 36.4574444 19.3390975 35.925877 19.14 35.47 19.041856 35.250041 18.8596403 35.0785996 18.6341147 34.9940275 18.4085891 34.9094554 18.1585747 34.9188105 17.94 35.02 15.7293889 35.9183659 13.2069045 35.5634627 11.33 34.09 10.9267231 33.8309934 10.3916776 33.9291824 10.1066449 34.3145044 9.82161217 34.6998264 9.88430984 35.2401817 10.25 35.55 12.6593021 37.408937 15.8792541 37.8362292 18.69 36.67zM23.09 14.66C22.8574314 14.7188477 22.6579818 14.8681107 22.5359385 15.0746455 22.4138953 15.2811803 22.3793595 15.5278924 22.44 15.76 22.7658879 17.4312859 23.672765 18.933301 25 20 25.1828484 20.1541808 25.4195475 20.2292386 25.6578315 20.2085998 25.8961155 20.1879611 26.1163843 20.0733233 26.27 19.89 26.5921961 19.5058803 26.5430086 18.9335162 26.16 18.61 25.1167032 17.7747659 24.4071679 16.5933896 24.16 15.28 24.0242678 14.8222183 23.554663 14.5501108 23.09 14.66zM12.59 26.87C12.9679394 26.8740425 13.3107345 26.6489505 13.4572392 26.3005386 13.603744 25.9521266 13.5248149 25.5497027 13.2575561 25.2824439 12.9902973 25.0151851 12.5878734 24.936256 12.2394614 25.0827608 11.8910495 25.2292655 11.6659575 25.5720606 11.67 25.95 11.67 26.458102 12.081898 26.87 12.59 26.87L12.59 26.87z"/>
      </g>
    </g>
  </g>
</svg>
