<svg xmlns="http://www.w3.org/2000/svg" width="64" height="64" viewBox="0 0 64 64" style="background:#fff">
  <g id="Garnelenpaste" fill="none" fill-rule="evenodd" stroke="none" stroke-width="1">
    <rect width="64" height="64" fill="#FFF"/>
    <g transform="translate(2 4)">
      <rect id="Rectangle" width="60" height="60" x=".9" y="0"/>
      <path id="Path" fill="#E05362" fill-rule="nonzero" d="M38.16,10.63 C35.16,7.23 30.07,3.35 25.28,3.74 C23.7,3.87 23.86,6.52 24.74,7.31 C26.74,9.09 29.06,10.37 31.16,12 C32.5165965,12.9389748 33.7350846,14.0632151 34.78,15.34 C35.78,16.76 35.78,16.93 34.41,17.82 C30,20.67 26.16,15.17 23.61,12.76 C21.06,10.35 19.22,14.84 19.27,16.76 C19.48,26.66 33.56,33.08 39.49,23.63 C42.0515932,19.4977462 41.5052893,14.1579342 38.16,10.63 Z" opacity=".5"/>
      <path id="Path" fill="#E05362" fill-rule="nonzero" d="M45.72,31.37 C44.17,30.3 43.26,32.31 43.28,33.62 C43.28,39.74 36.47,40.54 31.7,39.31 C29.3324068,38.7229433 27.0574806,37.8109537 24.94,36.6 C22.2,35 22,33.48 21.15,30.6 C20.46,28.24 18.41,25.09 15.69,27.4 C10.44,31.87 12.77,41 16.56,45.63 C20.56,50.5 27.21,52.86 33.38,52.81 C39.38,52.76 44.77,49.73 47.17,44.1 C48.79,40.29 49.68,34.11 45.72,31.37 Z" opacity=".5"/>
      <path id="Path" fill="#3D454C" fill-rule="nonzero" d="M35.86,30.11 C35.8804449,29.701607 35.6501906,29.3219109 35.2786004,29.1512548 C34.9070101,28.9805987 34.4689568,29.0533686 34.1725013,29.3350013 C33.8760458,29.6166341 33.7809219,30.0503824 33.9323104,30.4302302 C34.0836989,30.8100781 34.4510959,31.0594886 34.86,31.0600008 C35.3933335,31.0606671 35.8333337,30.6426668 35.86,30.11 Z"/>
      <path id="Path" fill="#3D454C" fill-rule="nonzero" d="M30.83,43.07 C22.92,43.07 16.25,39.5 16.25,35.27 C16.2842084,34.0797766 16.7497656,32.9425377 17.56,32.07 C17.8304421,31.805957 17.9289057,31.4119969 17.8144906,31.0517653 C17.7000754,30.6915337 17.392334,30.4265907 17.0190976,30.3669899 C16.6458613,30.3073891 16.2709126,30.4633157 16.05,30.77 C14.9255983,32.0029954 14.2861197,33.6016918 14.25,35.27 C14.25,40.77 21.53,45.07 30.83,45.07 C40.13,45.07 47.41,40.77 47.41,35.27 C47.3738803,33.6016918 46.7344017,32.0029954 45.61,30.77 C45.2435351,30.3729982 44.6279951,30.3388685 44.2198867,30.6929228 C43.8117783,31.0469772 43.7586926,31.6611728 44.1,32.08 C44.9111318,32.947962 45.3770307,34.0824791 45.41,35.27 C45.41,39.5 38.73,43.07 30.83,43.07 Z"/>
      <path id="Shape" fill="#3D454C" fill-rule="nonzero" d="M40.74,25 C40.489462,24.9068192 40.2120468,24.9178222 39.9696758,25.0305529 C39.7273047,25.1432836 39.540155,25.3483574 39.45,25.6 C39.2624619,26.1191367 39.5310135,26.6920467 40.05,26.88 C46.13,29.11 49.05,32 49.05,35.72 L49.05,42.4 C49.05,47.76 40.67,52.3 30.76,52.3 C20.85,52.3 12.46,47.76 12.46,42.4 L12.46,35.69 C12.46,31.69 16.11,28.43 22.46,26.87 C22.9954504,26.7370912 23.3221055,26.1956491 23.19,25.66 C23.0569227,25.1342287 22.5289938,24.8103731 22,24.93 C14.82,26.7 10.5,30.72 10.5,35.69 L10.5,42.4 C10.6106186,44.9829683 11.8364647,47.3908802 13.86,49 L13.86,49.68 C13.8539758,51.4994518 14.802973,53.1886668 16.36,54.13 C20.7877203,56.5308459 25.7643971,57.7371041 30.8,57.63 C35.8326833,57.7395221 40.8067446,56.5330623 45.23,54.13 C46.7899943,53.1915441 47.7400251,51.5004893 47.73,49.68 L47.73,49 C49.7644636,47.386717 50.9919461,44.9646309 51.09,42.37 L51.09,35.69 C51.09,31.09 47.61,27.49 40.74,25 Z M44.22,52.46 C40.0953718,54.6605672 35.4738134,55.7625782 30.8,55.66 C26.124814,55.7528418 21.5040488,54.6441336 17.38,52.44 C16.701773,52.0255474 16.2079709,51.3671446 16,50.6 C20.5067727,53.1520054 25.6224921,54.4309353 30.8,54.3 C35.9777303,54.4329535 41.0939808,53.1538908 45.6,50.6 C45.3934954,51.365279 44.8989971,52.0210268 44.22,52.43 L44.22,52.46 Z"/>
      <path id="Path" fill="#3D454C" fill-rule="nonzero" d="M42,33.46 C41.4477153,33.46 41,33.9077153 41,34.46 C41,36.26 36.67,38.28 30.87,38.28 C25.07,38.28 20.73,36.28 20.73,34.46 C20.73,32.64 25,30.65 30.82,30.65 C31.3722847,30.65 31.82,30.2022847 31.82,29.65 C31.82,29.0977153 31.3722847,28.65 30.82,28.65 C23.9,28.65 18.68,31.15 18.68,34.46 C18.68,37.77 23.9,40.28 30.82,40.28 C37.74,40.28 43,37.78 43,34.46 C43,33.9077153 42.5522847,33.46 42,33.46 Z"/>
      <path id="Shape" fill="#3D454C" fill-rule="nonzero" d="M28,14 C28.5428485,14.4186252 29.2149187,14.6343951 29.9,14.61 C30.4369404,14.6414842 30.9537901,14.8253301 31.39,15.14 C32.0707384,15.5522829 32.5544788,16.2237434 32.73,17 C32.7861303,17.70469 32.5594443,18.4027389 32.1,18.94 C30.85,20.62 28.72,19.66 27.77,19.11 C27.796172,17.2206571 27.1986594,15.3753975 26.07,13.86 C25.89,13.58 25.73,13.32 25.6,13.07 C25.2314422,12.3852584 24.4993935,11.9762236 23.7230703,12.021259 C22.946747,12.0662943 22.2669068,12.5572342 21.98,13.28 L21.58,13.69 L21.51,13.78 L20.71,14.86 C20.3677398,15.3227455 20.2140399,15.8982267 20.28,16.47 C20.5369321,18.7934583 21.4296593,21.0010549 22.86,22.85 L22.86,22.85 C23.5023508,23.6679816 24.2563789,24.3917139 25.1,25 C26.8641171,26.3150374 29.009743,27.0173699 31.21,27 C34.55,27 37.64,25.48 39.02,23.62 C40.4785571,21.6522528 41.3050355,19.2878968 41.39,16.84 L41.39,16.7 L41.39,16.7 C41.39,14.36 40.54,11.02 36.57,8.08 C31.9753587,4.85596765 26.4358617,3.2581712 20.83,3.54 C20.4790434,3.56803206 20.1686856,3.77855555 20.0128754,4.09427619 C19.8570653,4.40999683 19.8787621,4.78439145 20.07,5.08 C22.187401,8.48223976 24.8691229,11.4987542 28,14 L28,14 Z M22.32,16 L23.08,15 L23.58,14.47 C23.7048116,14.3455359 23.7945075,14.1902929 23.84,14.02 C23.99,14.29 24.17,14.58 24.36,14.89 C25.2419457,16.0402586 25.7356894,17.44095 25.77,18.89 C24.9820617,19.2918336 24.2765205,19.8379496 23.69,20.5 C22.9239801,19.1905063 22.4371134,17.7367153 22.26,16.23 C22.2486453,16.1484065 22.2702342,16.065649 22.32,16 Z M26.32,23.37 C25.8193853,23.0004948 25.3570738,22.5817344 24.94,22.12 C25.3922681,21.5218883 25.973273,21.0331606 26.64,20.69 C27.6476792,21.3468608 28.8017029,21.7452738 30,21.85 C30.1576605,22.9802008 30.5752657,24.0584437 31.22,25 C29.4472319,25.0115669 27.7181157,24.4503933 26.29,23.4 L26.32,23.37 Z M37.44,22.37 C36.5363543,23.4295548 35.3224536,24.1781852 33.97,24.51 C33.7429613,24.5039477 33.5259851,24.4150231 33.36,24.26 C32.5994584,23.517181 32.1070384,22.5428929 31.96,21.49 C32.6723059,21.1792544 33.2873409,20.681698 33.74,20.05 C33.74,20.05 33.74,19.96 33.83,19.91 C34.6182973,20.198148 35.4506948,20.3470321 36.29,20.35 C37.1484327,20.3526835 37.9986327,20.1826435 38.79,19.85 C38.4504032,20.766065 37.9860236,21.6308879 37.41,22.42 L37.44,22.37 Z M39.44,16.71 C39.44,16.9 39.22,17.33 38.61,17.71 C37.4223849,18.4085225 35.984977,18.5405293 34.69,18.07 C34.7977265,17.594449 34.821417,17.1037166 34.76,16.62 C34.5068435,15.3058968 33.7261766,14.1529674 32.6,13.43 C32.3453748,13.2399926 32.0703392,13.0789961 31.78,12.95 C33.2333008,12.1089942 34.3074574,10.7412348 34.78,9.13 C35.0133333,9.27666667 35.2433333,9.43666667 35.47,9.61 C38.07,11.66 39.42,14.05 39.39,16.76 L39.44,16.71 Z M32.44,7.83 C32.4945505,7.88754154 32.5588816,7.93494346 32.63,7.97 C32.71,7.97 32.81,8.06 32.81,8.34 C32.5396413,9.69882124 31.636778,10.8469066 30.38,11.43 C29.5130226,11.8838393 28.4538083,11.739401 27.74,11.07 L27.74,11.07 C25.9134088,9.38902801 24.2708323,7.51850213 22.84,5.49 C26.1661527,5.62469588 29.4296467,6.43801713 32.43,7.88 L32.44,7.83 Z"/>
    </g>
  </g>
</svg>
