<svg xmlns="http://www.w3.org/2000/svg" width="64" height="64" viewBox="0 0 64 64" style="background:#fff">
  <g id="Garnelen" fill="none" fill-rule="evenodd" stroke="none" stroke-width="1">
    <rect width="64" height="64" fill="#FFF"/>
    <g transform="translate(2 5)">
      <rect id="Rectangle" width="60" height="60" x="0" y="0"/>
      <path id="Path" fill="#E05362" fill-rule="nonzero" d="M45.86,21.5 C39,14.47 28.93,11.41 19.13,9.13 C12.95,7.69 9.13,14.56 16.27,16.21 C26.57,18.61 39.58,23.21 40.63,34.21 C41.02,38.21 38.63,44.62 33.06,44.53 C27.49,44.44 24.67,37.53 23.89,33.53 C23,28.63 11.74,29 12.64,33.64 C14.11,41.31 18.26,48.35 27,51 C35.35,53.52 45,50.4 49.44,43.62 C54.14,36.48 51.69,27.48 45.86,21.5 Z" opacity=".5"/>
      <path id="Shape" fill="#3D454C" fill-rule="nonzero" d="M53.18,35 L53.18,34.91 C53.18,28.34 50,22.63 43.66,17.91 C41.709512,16.4781251 39.6267215,15.2358176 37.44,14.2 L37.44,14.2 C24.08,7.78 8.51,8.78 7.75,8.83 C7.39273441,8.85500859 7.07594932,9.06871641 6.9189746,9.39062178 C6.76199988,9.71252715 6.78868373,10.093725 6.9889746,10.3906218 C7.18926547,10.6875186 7.53273441,10.8550086 7.89,10.83 C7.94,10.83 9.27,10.74 11.43,10.77 C13.1192945,13.3451031 14.948715,15.8255036 16.91,18.2 C14.5602617,17.5628314 12.0507034,17.9477998 10,19.26 C9.53676723,19.5587099 9.40258836,20.1759327 9.7,20.64 C9.83357725,20.8780769 10.0586789,21.0511952 10.3230678,21.1191809 C10.5874566,21.1871666 10.8681464,21.144109 11.1,21 C12.6295601,20.0001012 14.5060474,19.6813157 16.28,20.12 C14.4506944,20.4155985 12.7053156,21.0973871 11.16,22.12 C10.7780364,22.3566302 10.6007971,22.8189658 10.7266968,23.2502885 C10.8525964,23.6816113 11.2507184,23.9760036 11.7,23.97 C11.8911347,23.9663366 12.0777211,23.9110518 12.24,23.81 C16.76,20.93 20.17,22.32 20.78,22.61 C22.7924287,24.7273057 24.9619353,26.6895559 27.27,28.48 C28.200555,29.1805444 29.3464904,29.5342282 30.51,29.48 C31.8622658,29.5187167 33.1691269,29.9764676 34.25,30.79 C35.4230805,31.5809033 36.3706719,32.6628804 37,33.93 C34.6307458,31.9548836 31.4937364,31.1605178 28.47,31.77 C27.9342838,31.9080712 27.6119289,32.4542838 27.7500001,32.99 C27.8880712,33.5257162 28.4342838,33.8480711 28.97,33.71 C32.2274842,33.0544883 35.5473842,34.5046973 37.28,37.34 C37.214899,37.6054951 37.1313631,37.8661273 37.03,38.12 C34.8201729,35.1542028 30.9336753,33.9777056 27.45,35.22 C26.973293,35.4481822 26.75645,36.0079124 26.9550117,36.497698 C27.1535734,36.9874835 27.6989743,37.2381959 28.2,37.07 C28.39,36.99 32.9,35.26 35.93,40.07 L35.93,40.07 C34.02,42.65 31.36,42.77 29.1,42.18 L28.92,42.18 C27.5314695,41.7680104 26.2107815,41.1548338 25,40.36 C25.67,34.89 22.58,28.24 20.63,24.68 C20.0195906,23.5606778 18.7826454,22.9331394 17.5188854,23.1016407 C16.2551255,23.270142 15.2258129,24.1998481 14.93,25.44 L13.93,29.61 L12.41,31.67 C11.8597052,32.4109749 11.6096787,33.3325013 11.71,34.25 C12.2317164,38.8501975 14.0061859,43.2189206 16.84,46.88 L16.84,46.88 C18.1052575,48.4844639 19.5781538,49.913644 21.22,51.13 C22.879172,52.3713665 24.7256922,53.3401989 26.69,54 L26.81,54 L26.92,54 L26.99,54 L26.99,54 C29.0016929,54.6194744 31.0950895,54.9329783 33.2,54.930021 C34.3888511,54.930021 35.5758585,54.8364368 36.75,54.65 C37.6544021,54.5031199 38.5493043,54.3027686 39.43,54.05 L39.51,54.05 C39.51,54.05 39.59,54.05 39.63,54 C43.41,52.9 46.63,50.9 48.47,48.45 C48.77,48.05 49.16,47.45 49.58,46.8 L49.58,46.8 C51.7906918,43.283222 53.0262582,39.2417465 53.16,35.09 L53.18,35 Z M39.07,52.14 C38.2796632,52.2190822 37.4942449,51.9487522 36.92,51.4 C34.9400504,49.4700761 33.7524294,46.8701492 33.59,44.11 C34.3649909,43.8819438 35.0954479,43.5234788 35.75,43.05 C37.33,45.05 41.33,48.89 45.14,49.1 C43.3408983,50.5099708 41.276654,51.5437933 39.07,52.14 L39.07,52.14 Z M49.84,28.27 C50.7548053,30.3941904 51.2114049,32.6874112 51.18,35 C50.9624323,36.285875 50.1558059,37.3959114 49,38 C45.9464267,39.7833212 42.2162309,39.969831 39,38.5 C39.4252425,37.3854617 39.5628102,36.1817444 39.4,35 C39.3540337,34.699058 39.287206,34.4016747 39.2,34.11 L39.53,34.11 C43.3482492,34.23137 46.979512,32.4569178 49.23,29.37 C49.4618878,29.0199111 49.6658514,28.6521079 49.84,28.27 Z M47.92,45.76 C47.3961347,46.6143046 46.4620762,47.1306947 45.46,47.12 L45.46,47.12 C42.6,47.12 38.73,43.71 37.2,41.65 C37.31,41.52 37.42,41.41 37.53,41.27 C37.76,40.95 37.97,40.62 38.17,40.27 C39.9055541,41.0126643 41.772249,41.4002841 43.66,41.41 C45.9194093,41.4389879 48.1400067,40.8213842 50.06,39.63 C50.26,39.5 50.45,39.36 50.64,39.22 C50.0695496,41.5250962 49.1524325,43.7302235 47.92,45.76 L47.92,45.76 Z M35.37,29.1 C34.0903025,28.1663327 32.578549,27.6024521 31,27.47 C31.8939694,27.262003 32.7529522,26.925147 33.55,26.47 C33.8608211,26.2913672 34.0527321,25.9604826 34.0534421,25.6019873 C34.0541521,25.243492 33.8635532,24.9118498 33.5534421,24.7319873 C33.243331,24.5521247 32.8608211,24.5513672 32.55,24.73 C30.2849231,26.1749966 27.3353584,25.938051 25.33,24.15 C25.33,24.15 25.26,24.15 25.22,24.09 C20.9382551,20.1278257 17.1356481,15.6774666 13.89,10.83 C19.65,11.1 28.64,12.2 36.65,16.04 C37.0237433,16.2143771 37.3119261,16.531378 37.45,16.92 C37.6774818,18.0231244 37.4849075,19.1714378 36.91,20.14 C36.7928106,20.3786162 36.7754558,20.6540741 36.8617702,20.9055117 C36.9480846,21.1569494 37.1309635,21.3636703 37.37,21.48 C37.5071327,21.5464197 37.6576302,21.5806236 37.81,21.58 C38.1923951,21.5807653 38.5417466,21.363391 38.71,21.02 C39.2580796,19.9626084 39.5492821,18.7909464 39.56,17.6 C40.5621143,18.1863392 41.5333981,18.8238486 42.47,19.51 C44.7347241,21.1281839 46.7006961,23.1279936 48.28,25.42 C48.54,25.9 48.43,26.98 47.57,28.25 C46.11,30.41 42.9,32.49 38.23,32.04 C37.4638198,30.8938811 36.4945509,29.8974998 35.37,29.1 L35.37,29.1 Z M14,32.86 L15.64,30.64 C15.7202226,30.532607 15.7780348,30.4101812 15.81,30.28 L16.86,25.91 C16.960189,25.5297551 17.2524486,25.2299044 17.63,25.12 C17.7264238,25.110309 17.8235762,25.110309 17.92,25.12 C18.3144451,25.122212 18.6756832,25.3412606 18.86,25.69 C20.37,28.34 23.65,35 23,40.11 C20.8317876,41.078539 18.9584066,42.6034643 17.57,44.53 C15.4544848,41.3818792 14.1303027,37.7695378 13.71,34 C13.6670331,33.5975333 13.7699377,33.1930119 14,32.86 Z M18.87,46.2 C20.0774628,44.3569892 21.7885425,42.8992742 23.8,42 C24.7437004,42.6272608 25.7488986,43.1566652 26.8,43.58 C25.3310892,45.7604368 24.6631947,48.3825411 24.91,51 C24.046488,50.5732069 23.2202633,50.074796 22.44,49.51 C21.1257005,48.5488014 19.927652,47.4380057 18.87,46.2 L18.87,46.2 Z M27.43,52.09 C27.24,52 27.01,51.61 26.9,50.87 C26.59,48.77 27.48,45.4 28.9,44.2 C29.7793436,44.3946052 30.6800708,44.4752673 31.58,44.44 C31.8096044,47.6258578 33.2094006,50.6142268 35.51,52.83 C32.7946276,53.1565246 30.0408886,52.9043257 27.43,52.09 L27.43,52.09 Z"/>
      <path id="Path" fill="#3D454C" fill-rule="nonzero" d="M22.81 13.46C22.4199625 13.0722764 21.7900375 13.0722764 21.4 13.46 21.3065577 13.5551789 21.2319181 13.6671383 21.18 13.79 21.0529391 14.0992766 21.0888567 14.4515927 21.2757149 14.7288661 21.462573 15.0061394 21.7756444 15.171678 22.11 15.1700126 22.3723399 15.1688954 22.6237394 15.0647442 22.81 14.88 23.0868755 14.5879896 23.1617464 14.1584674 23 13.79 22.9606476 13.6678317 22.8958969 13.5553699 22.81 13.46L22.81 13.46zM36.32 22.46C36.2227991 22.3716691 36.1111849 22.3006419 35.99 22.25 35.6176029 22.0934033 35.1875607 22.1762554 34.9 22.46 34.8087232 22.556919 34.7343572 22.6684679 34.68 22.79 34.5259407 23.1643702 34.6127947 23.5946924 34.9 23.88 34.9951789 23.9734423 35.1071383 24.0480819 35.23 24.1 35.3509113 24.1478158 35.4799871 24.1715929 35.61 24.17 36.1622847 24.17 36.61 23.7222847 36.61 23.17 36.60842 23.0393227 36.581241 22.9102223 36.53 22.79 36.4793581 22.6688151 36.4083309 22.5572009 36.32 22.46z"/>
    </g>
  </g>
</svg>
