<svg xmlns="http://www.w3.org/2000/svg" width="64" height="64" viewBox="0 0 64 64" style="background:#fff">
  <g id="Gelatine" fill="none" fill-rule="evenodd" stroke="none" stroke-width="1">
    <rect width="64" height="64" fill="#FFF"/>
    <g id="7-Gelatine" transform="translate(2 7)">
      <path id="Path" fill="#EBE53F" fill-rule="nonzero" d="M50.39,14.32 C48.58,8.46 43.46,8.15 39.05,8.49 C35.45,8.77 31.69,9.4 28.63,11.49 C23.92,8.83 17.29,9.49 14.72,14.49 C12.92,18.03 13.4,24.24 16.72,26.22 C18.57,27.31 21.23,26.82 23.18,26.85 L31.73,26.97 C36.28,27.03 42.35,28.41 46.73,26.61 C50.76,25 51.78,18.83 50.39,14.32 Z" opacity=".5"/>
      <path id="Path" stroke="#3D454C" stroke-linecap="round" stroke-linejoin="round" stroke-width="2" d="M50 27.6C49.7253075 21.7613837 48.4571365 16.0123419 46.25 10.6 46.0316118 9.85174275 45.3983947 9.2985379 44.6275901 9.18259516 43.8567856 9.06665242 43.0888467 9.40909842 42.66 10.06 42.6174505 10.1232579 42.5806375 10.1901906 42.55 10.26 42.2519552 10.8442212 42.1875933 11.5200215 42.37 12.15L44 18.69 42.37 12.41C42.0171345 11.1432298 40.7828643 10.331772 39.48 10.51 38.6178605 10.5037672 37.7947127 10.8687552 37.2204992 11.5118743 36.6462857 12.1549934 36.376518 13.0140708 36.48 13.87L36.9 17.6 36.48 13.87C35.4816092 12.2835644 33.713134 11.349779 31.84 11.42L31.84 11.42C29.9633533 11.3461494 28.1902004 12.2803913 27.19 13.87L26.77 17.6 27.19 13.87C27.293482 13.0140708 27.0237143 12.1549934 26.4495008 11.5118743 25.8752873 10.8687552 25.0521395 10.5037672 24.19 10.51 22.8871357 10.331772 21.6528655 11.1432298 21.3 12.41L19.67 18.69 21.35 12.2C21.5324067 11.5700215 21.4680448 10.8942212 21.17 10.31 21.1393625 10.2401906 21.1025495 10.1732579 21.06 10.11 20.6311533 9.45909842 19.8632144 9.11665242 19.0924099 9.23259516 18.3216053 9.3485379 17.6883882 9.90174275 17.47 10.65 15.2634773 16.0620714 13.9985849 21.8115823 13.73 27.65M33.18 53.63L38.56 53.63C38.5696542 51.8468425 37.4625945 50.2482003 35.79 49.63 34.612331 49.0938072 33.8519133 47.9239339 33.84 46.63L33.84 40.26M33.18 53.63L25.1799374 53.63C25.1703458 51.8468425 26.2774055 50.2482003 27.95 49.63 29.1472036 49.1086283 29.9291967 47.9356386 29.95 46.63L29.89 45.36"/>
      <path id="Path" stroke="#3D454C" stroke-linecap="round" stroke-linejoin="round" stroke-width="2" d="M52.23,29.27 L52.23,27.6 L11.41,27.6 L11.41,30.2 C11.41,30.2 11.65,35.41 20.16,35.41 L24.94,35.41 C27.618581,35.41 29.79,37.581419 29.79,40.26 L29.79,45.34"/>
      <path id="Path" stroke="#3D454C" stroke-linecap="round" stroke-linejoin="round" stroke-width="2" d="M52.23,27.6 L52.23,30.2 C52.23,30.2 51.98,35.41 43.48,35.41 L38.69,35.41"/>
      <path id="Path" fill="#3D454C" fill-rule="nonzero" d="M35,36 C35,35.3924868 34.5075132,34.9 33.9,34.9 C33.2924868,34.9 32.8,35.3924868 32.8,36 C32.8,36.6075132 33.2924868,37.1 33.9,37.1 C34.5075132,37.1 35,36.6075132 35,36 Z"/>
      <rect id="Rectangle" width="60" height="60" x=".78" y="0"/>
    </g>
  </g>
</svg>
