<svg xmlns="http://www.w3.org/2000/svg" width="64" height="64" viewBox="0 0 64 64" style="background:#fff">
  <g id="Gelbe-Linsen" fill="none" fill-rule="evenodd" stroke="none" stroke-width="1">
    <rect width="64" height="64" fill="#FFF"/>
    <g transform="translate(2 6)">
      <rect id="Rectangle" width="60" height="60" x=".76" y="0"/>
      <g id="Group" fill="#EBE53F" fill-rule="nonzero" opacity=".5" transform="translate(9 6)">
        <path id="Path" d="M37.59 7.46L37.44 6.12C37.2128001 5.08099019 36.679955 4.13371004 35.91 3.4 34.8987387 2.54945764 33.7747703 1.8427709 32.57 1.3 31.57.78 29.91.09 28.77.54 27.368421 1.23083421 26.6331431 2.8010887 27 4.32 27.57 6.7 29.13 7.52 31.06 8.71 32.43 9.57 34.29 11.86 36.06 10.76 37.1358841 10.0232244 37.7228618 8.75719412 37.59 7.46L37.59 7.46zM24.93 20.35C23.48 18.97 21.37 17.56 19.27 17.9 17.58 18.18 17.52 20.71 18.27 21.9 19.37 23.54 20.86 24.9 21.99 26.51 23.12 28.12 23.64 30.8 26.07 31.16 27.45 31.37 28.2 29.3 28.39 28.33 29.05 25.13 27.11 22.41 24.93 20.35zM46.65 32C46.24 29.32 44.31 27.56 42.18 26.1 40.79 25.1 38.33 23.51 36.63 24.64 35.9139483 25.1986171 35.6812607 26.1792291 36.07 27 36.72 29.06 38.58 30.55 39.95 32.14 41.32 33.73 42.3 36 44.62 36.34 46.61 36.68 46.8 33.08 46.65 32zM31.81 36C29.69 35.21 27.19 35.24 25.7 37.11 25.0285892 38.2435217 25.0635394 39.6609464 25.79 40.76 26.79 42.02 28.48 42.54 29.71 43.62 30.94 44.7 31.66 46.62 33.28 47.05 35.7 47.7 36.62 44.83 36.63 42.96 36.6031083 39.8709358 34.6922305 37.11166 31.81 36zM18.56 44.44C18.3584431 43.3926822 18.0011457 42.381463 17.5 41.44 17.32 41.12 17.14 40.79 16.94 40.44 16.94 40.44 16.67 39.96 16.64 39.93 16.4745639 39.4969624 16.3408771 39.0524539 16.24 38.6 15.96 37.6 16.3 38.72 16.11 37.94 16.0099869 37.4872194 15.8864867 37.0399483 15.74 36.6 15.49 35.83 14.49 34.88 13.61 35.36 9 37.86 12.07 50.99 17.21 48.29 18.54 47.66 18.85 45.78 18.56 44.44zM5.58 19.11C3.23 18.77 1.58 21.26.83 23.11-.17 25.72-.66 29.88 1.72 31.9 2.97 32.9 4.38 31.9 4.82 30.57 5.37 28.92 4.95 27.39 5.18 25.75 5.51369297 24.2880421 5.96859944 22.8564247 6.54 21.47 6.81 20.64 6.65 19.26 5.58 19.11zM18.62 10C17.8897071 7.2696622 15.7969814 5.11260316 13.09 4.3 11.09 3.58 8.25 3.36 6.95 5.3 6.73416422 5.656547 6.73416422 6.103453 6.95 6.46 8 8 10.21 8.71 11.71 9.79 13.21 10.87 14.4 13.07 16.23 13.84 18.29 14.72 18.91 11.25 18.62 10z"/>
      </g>
      <path id="Shape" fill="#3D454C" fill-rule="nonzero" d="M53.32 29.82C50.32 26.82 45.96 26.35 43.57 28.74 41.18 31.13 41.67 35.5 44.66 38.48 46.1972297 40.0809783 48.301458 41.0145949 50.52 41.08 51.9635724 41.1177877 53.3617327 40.5736583 54.4 39.57 56.79 37.18 56.3 32.81 53.32 29.82zM53 38.15C51.39 39.76 48.29 39.28 46.08 37.07 43.87 34.86 43.38 31.76 45 30.15 45.6655635 29.5131673 46.5593054 29.1708065 47.48 29.2 49.1630023 29.2671793 50.7544608 29.9840525 51.92 31.2 54.11 33.44 54.6 36.55 53 38.15zM23.37 39.81C19.99 39.81 17.25 43.25 17.25 47.47 17.25 51.69 19.99 55.13 23.37 55.13 26.75 55.13 29.49 51.7 29.49 47.47 29.49 43.24 26.75 39.81 23.37 39.81zM23.37 53.13C21.1 53.13 19.25 50.59 19.25 47.47 19.25 44.35 21.1 41.81 23.37 41.81 25.64 41.81 27.49 44.35 27.49 47.47 27.49 50.59 25.64 53.13 23.37 53.13zM39.13 40.59C37.3934605 40.2904133 35.6181087 40.8363897 34.35 42.06 31.96 44.44 32.45 48.81 35.44 51.8 36.9772297 53.4009783 39.081458 54.3345949 41.3 54.4 42.7435724 54.4377877 44.1417327 53.8936583 45.18 52.89 47.57 50.5 47.08 46.13 44.09 43.14 42.7612893 41.7687402 41.0183637 40.8726797 39.13 40.59L39.13 40.59zM43.77 51.47C42.16 53.08 39.06 52.59 36.85 50.39 34.64 48.19 34.16 45.08 35.76 43.47 36.5996285 42.7014905 37.7497104 42.3686694 38.87 42.57 40.3248847 42.8010441 41.6635427 43.5037517 42.68 44.57 44.89 46.76 45.37 49.87 43.77 51.47L43.77 51.47zM34.87 25.72C31.87 22.72 27.51 22.25 25.13 24.64 23.9080643 25.9050137 23.3621008 27.6766095 23.66 29.41 24.2963423 33.2709626 27.3198864 36.2985275 31.18 36.94 31.4783981 36.9793278 31.7790221 36.9993694 32.08 37 33.5405993 37.045684 34.9565294 36.4930379 36 35.47 38.35 33.08 37.86 28.71 34.87 25.72zM34.55 34.06C33.7109084 34.8291113 32.5589369 35.1587752 31.44 34.95 28.4826517 34.429408 26.1656945 32.1164456 25.64 29.16 25.4370815 28.0396283 25.7701042 26.8888498 26.54 26.05 27.2006437 25.4181738 28.0861684 25.0762029 29 25.1 30.6830023 25.1671793 32.2744608 25.8840525 33.44 27.1 35.67 29.34 36.15 32.45 34.55 34.06zM23.38 20.94C23.6783981 20.9793278 23.9790221 20.9993694 24.28 21 25.7268535 21.0347407 27.1262666 20.4829103 28.16 19.47 30.55 17.08 30.06 12.71 27.07 9.72 24.08 6.73 19.71 6.25 17.33 8.64 14.95 11.03 15.43 15.4 18.41 18.38 19.7430399 19.7526571 21.4884242 20.651688 23.38 20.94L23.38 20.94zM18.74 10.05C19.397342 9.39488963 20.2920908 9.03410383 21.22 9.05 22.9030023 9.1171793 24.4944608 9.83405249 25.66 11.05 27.87 13.25 28.35 16.36 26.75 17.97 25.9109084 18.7391113 24.7589369 19.0687752 23.64 18.86 22.1846412 18.6303858 20.8455496 17.9274507 19.83 16.86 18.7673149 15.8408586 18.065277 14.5034763 17.83 13.05 17.6651016 11.963916 17.9995159 10.8614513 18.74 10.05L18.74 10.05zM17.33 26.56C16.5481415 24.9820193 15.0637818 23.8687496 13.33 23.56 11.6058076 23.3113984 9.86427922 23.8808153 8.62 25.1 5.85015531 27.8609599 5.14640838 32.0794201 6.87 35.59 7.64803512 37.1711554 9.13424097 38.2858098 10.87 38.59 11.147379 38.6381277 11.4284809 38.6615529 11.71 38.6600724 13.1760472 38.6286904 14.5747405 38.038449 15.62 37.01 18.3898447 34.2490401 19.0935916 30.0305799 17.37 26.52L17.33 26.56zM16.17 31.76C15.9445746 33.2224979 15.2413232 34.5692243 14.17 35.59 13.3899045 36.3923839 12.2817934 36.7876102 11.17 36.66 10.0561346 36.42942 9.11542281 35.6887021 8.63 34.66 7.9633409 33.345971 7.74221555 31.8507425 8 30.4 8.22542538 28.9375021 8.92867675 27.5907757 10 26.57 10.7766598 25.7622844 11.8874928 25.3660872 13 25.5 14.1107998 25.7319746 15.0478781 26.4727479 15.53 27.5 16.1979753 28.8135621 16.4225141 30.3081484 16.17 31.76L16.17 31.76zM43.35 19.57C44.7948086 19.6039905 46.1927455 19.0563451 47.23 18.05 49.62 15.66 49.13 11.29 46.14 8.31 44.8017862 6.9279015 43.0436481 6.02773479 41.14 5.75 39.4170558 5.47176829 37.6631701 6.01569487 36.4 7.22 34 9.61 34.5 14 37.48 17 39.0252282 18.5914305 41.1325127 19.5140406 43.35 19.57zM37.81 8.63C38.4759261 8.00123564 39.3645348 7.66306066 40.28 7.69 40.4930876 7.67552007 40.7069124 7.67552007 40.92 7.69 42.3753588 7.91961416 43.7144504 8.62254934 44.73 9.69 46.94 11.9 47.42 15 45.82 16.61 44.22 18.22 41.11 17.73 38.9 15.52 36.69 13.31 36.2 10.24 37.81 8.63z"/>
      <path id="Path" fill="#3D454C" fill-rule="nonzero" d="M22.58 43.74C22.0277153 43.74 21.58 44.1877153 21.58 44.74 21.58 45.2922847 22.0277153 45.74 22.58 45.74 23.1322847 45.74 23.58 45.2922847 23.58 44.74 23.58 44.1877153 23.1322847 43.74 22.58 43.74zM40.34 12C40.8922847 12 41.34 11.5522847 41.34 11 41.34 10.4477153 40.8922847 10 40.34 10 39.7877153 10 39.34 10.4477153 39.34 11 39.34 11.5522847 39.7877153 12 40.34 12z"/>
    </g>
  </g>
</svg>
