<svg xmlns="http://www.w3.org/2000/svg" width="64" height="64" viewBox="0 0 64 64" style="background:#fff">
  <g id="Gemüsebrühe" fill="none" fill-rule="evenodd" stroke="none" stroke-width="1">
    <rect width="64" height="64" fill="#FFF"/>
    <g transform="translate(2 6)">
      <rect id="Rectangle" width="60" height="60" x=".8" y=".93"/>
      <path id="Path" fill="#D4BA39" fill-rule="nonzero" d="M48.38,29.23 C43.52,25.33 36.49,24.51 30.47,25.3 C24.45,26.09 16.08,29.08 12.92,34.55 C12.7309322,34.8708616 12.7757073,35.2779081 13.03,35.55 C17.03,38.55 24.14,37.25 29.03,37.63 C35.33,38.12 39.55,39.99 44.93,43.14 C50.9,46.66 52.22,32.32 48.38,29.23 Z" opacity=".5"/>
      <path id="Shape" fill="#3D454C" fill-rule="nonzero" d="M31.2,23.37 C28,23.37 24.56,23.49 21.72,23.7 L13.14,12.54 C11.7151053,10.8444859 9.18551421,10.6251054 7.49000005,12.0500001 C5.7944859,13.4748947 5.5751054,16.0044858 7,17.7 L13,25 C8.57,26.13 6.31,27.64 6.31,29.51 C6.45793783,34.0735438 7.61571294,38.547542 9.7,42.61 C9.87323836,42.9353472 10.2114063,43.1390165 10.58,43.14 C10.7427997,43.1379308 10.9031909,43.1003924 11.05,43.03 C11.5349278,42.769538 11.71818,42.1661466 11.46,41.68 C10.0031029,38.8206403 9.03313801,35.7383826 8.59,32.56 C12.95,35.01 22.59,35.56 28.84,35.69 L28.93,35.69 L29.03,35.69 C29.82,35.69 30.55,35.69 31.2,35.69 C42.72,35.69 50.27,34.69 53.79,32.69 C52.99,37.89 50.07,48.04 39.44,51.45 C39.2093724,51.5251117 39.0139053,51.6814854 38.89,51.89 C38.6318054,52.3321187 38.3303248,52.747492 37.99,53.13 C35.7656238,53.657395 33.4859881,53.9159104 31.2,53.9 C28.9520364,53.9158008 26.7100008,53.6674316 24.52,53.16 C24.0466654,52.7568227 23.6325842,52.2888772 23.29,51.77 C23.1658834,51.5912078 22.9868236,51.4577907 22.78,51.39 C20.2600807,50.4482502 17.9272546,49.066838 15.89,47.31 C15.4675022,46.9510149 14.8339851,47.0025022 14.475,47.425 C14.1160149,47.8474978 14.1675022,48.4810149 14.59,48.84 C16.749911,50.6778123 19.1998649,52.1444054 21.84,53.18 C22.3517661,54.0167957 23.1047611,54.6791523 24,55.08 C26.374506,55.6471528 28.8087523,55.925832 31.25,55.91 C33.7425577,55.9270931 36.2277951,55.6382682 38.65,55.05 C38.85,54.99 39.45,54.84 40.46,53.25 C55.91,48 56.09,29.72 56.09,29.54 C56.09,25.44 47.72,23.37 31.2,23.37 Z M9.51,30.83 C8.72,30.39 8.31,29.94 8.31,29.54 C8.31,29.14 9.31,27.94 14.01,26.84 C14.1296232,26.8093542 14.2418527,26.7549399 14.34,26.68 L16.23,29 C14.0766376,29.3411816 11.9558167,29.8630239 9.89,30.56 C9.74383215,30.618808 9.61362814,30.7113213 9.51,30.83 Z M12.33,31.9 C14.0255337,31.4482655 15.7448481,31.0910487 17.48,30.83 C17.5414121,30.8145162 17.60158,30.7944603 17.66,30.77 L19.66,33.17 C17.1867824,32.9422586 14.7356742,32.5175782 12.33,31.9 L12.33,31.9 Z M22.4,33.41 L8.57,16.41 C7.86116652,15.5693686 7.96390453,14.3141781 8.8,13.6 C9.19777582,13.2499689 9.72251985,13.0798794 10.25,13.13 C10.7633117,13.1649344 11.2417241,13.4023421 11.58,13.79 L26.84,33.64 C25.25,33.59 23.77,33.51 22.4,33.41 Z M31.2,33.71 L29.4,33.71 L26.66,30.15 C28.14,30.1 29.66,30.06 31.2,30.06 C39.84,30.06 46.49,30.7 50.62,31.9 C47.34,32.88 41.37,33.71 31.2,33.71 L31.2,33.71 Z M54.09,29.54 C54.09,29.92 53.8,30.36 53.09,30.82 C52.9837297,30.6452366 52.8216816,30.5113708 52.63,30.44 C47.37,28.44 38.07,28.04 31.19,28.04 C29.3,28.04 27.44,28.04 25.64,28.16 C25.4958733,28.1676436 25.3555036,28.2087274 25.23,28.28 L23.17,25.61 C25.68,25.45 28.52,25.37 31.17,25.37 C49.24,25.37 54.06,27.99 54.06,29.54 L54.09,29.54 Z"/>
      <path id="Path" fill="#3D454C" fill-rule="nonzero" d="M29.8 11.17C30.268833 11.4981754 30.5746239 12.0114673 30.64 12.58 30.5929758 13.3612952 30.2664214 14.099592 29.72 14.66 29.3322764 15.0500375 29.3322764 15.6799625 29.72 16.07 29.9062606 16.2547442 30.1576601 16.3588954 30.42 16.3600167 30.685803 16.3615368 30.9412812 16.2571865 31.13 16.07 32.0756227 15.1132949 32.6102623 13.8251365 32.62 12.48 32.5397284 11.3430511 31.9661096 10.2981148 31.05 9.62 30.589789 9.29435804 30.2883907 8.78960659 30.22 8.23 30.2698751 7.47481529 30.5934176 6.76373288 31.13 6.23 31.3193127 6.0422334 31.4257983 5.78663754 31.4257983 5.52 31.4257983 5.25336246 31.3193127 4.9977666 31.13 4.81 30.7399625 4.42227641 30.1100375 4.42227641 29.72 4.81 28.7800101 5.75093776 28.2422005 7.02016842 28.22 8.35 28.3139846 9.47428575 28.8902348 10.5027828 29.8 11.17L29.8 11.17zM22.69 15.89C22.92 16.05 23.19 16.28 23.21 16.54 23.1302147 16.9321288 22.91845 17.28507 22.61 17.54 22.3313328 17.7704363 22.1967701 18.1320354 22.2570002 18.4885864 22.3172303 18.8451374 22.5631029 19.1424717 22.9020002 19.2685864 23.2408975 19.3947011 23.6213328 19.3304363 23.9 19.1 24.6933619 18.4386247 25.1693669 17.4720801 25.21 16.44 25.1346158 15.5233825 24.6154435 14.7016709 23.82 14.24 23.59 14.08 23.31 13.85 23.3 13.6 23.3681431 13.2058726 23.5779699 12.850234 23.89 12.6 24.0915762 12.4276167 24.2164119 12.1822137 24.2370412 11.9177834 24.2576705 11.653353 24.1724034 11.391559 24 11.19 23.8304518 10.9854929 23.5864992 10.8568522 23.3219715 10.8324631 23.0574438 10.808074 22.7940826 10.8899411 22.59 11.06 21.7933851 11.706953 21.3127101 12.6646613 21.27 13.69 21.3518568 14.6125342 21.8830367 15.435489 22.69 15.89zM38.47 15.89C38.7 16.05 38.97 16.28 38.99 16.54 38.9133536 16.9333409 38.7009966 17.2872693 38.39 17.54 38.0845123 17.7598482 37.9283386 18.1326027 37.9858807 18.5045501 38.0434227 18.8764975 38.3049336 19.1846343 38.6625734 19.3018935 39.0202132 19.4191526 39.4134021 19.3256718 39.68 19.06 40.4670586 18.4097114 40.9457868 17.4595084 41 16.44 40.9246158 15.5233825 40.4054435 14.7016709 39.61 14.24 39.38 14.08 39.11 13.85 39.09 13.6 39.1581431 13.2058726 39.3679699 12.850234 39.68 12.6 39.8859883 12.4318842 40.0165453 12.1886565 40.0428159 11.9240739 40.0690865 11.6594913 39.9889076 11.3953395 39.82 11.19 39.6504518 10.9854929 39.4064992 10.8568522 39.1419715 10.8324631 38.8774438 10.808074 38.6140826 10.8899411 38.41 11.06 37.6133851 11.706953 37.1327101 12.6646613 37.09 13.69 37.1681324 14.6030247 37.6820099 15.4222497 38.47 15.89zM12.6 44.38C12.0477153 44.38 11.6 44.8277153 11.6 45.38 11.6 45.9322847 12.0477153 46.38 12.6 46.38 13.1522847 46.38 13.6 45.9322847 13.6 45.38 13.6 44.8277153 13.1522847 44.38 12.6 44.38z"/>
    </g>
  </g>
</svg>
