<svg xmlns="http://www.w3.org/2000/svg" width="64" height="64" viewBox="0 0 64 64" style="background:#fff">
  <g id="Gemüsebouillon" fill="none" fill-rule="evenodd" stroke="none" stroke-width="1">
    <rect width="64" height="64" fill="#FFF"/>
    <g fill-rule="nonzero" transform="translate(5 23)">
      <path id="Path" fill="#D4BA39" d="M49.34,17.75 C46.56,17.65 44.61,19.22 41.98,19.94 C39.2899924,20.5823918 36.522188,20.8382959 33.76,20.7 C31.783813,20.5861295 29.8146381,20.3725241 27.86,20.06 C29.461642,19.6338874 31.0293137,19.0890463 32.55,18.43 C39.55,15.37 36.78,-2.42 28.98,1.17 C23.09,3.89 17.25,4.17 10.9,3.17 C8.28,2.77 5.52,1.77 3.23,3.52 C1.15096636,5.28406748 0.248647416,8.0723492 0.9,10.72 C2.72,18.31 9.53,21.16 16.9,21.4 C14.8,23.12 14.64,26.81 16.13,29.03 C23,39.31 45.94,42.21 53.17,31.09 C55.57,27.4 54.92,18 49.34,17.75 Z" opacity=".5"/>
      <path id="Shape" fill="#3D454C" d="M12.13,20.45 C9.26426286,19.5642586 6.34931568,18.8463736 3.4,18.3 C3.24,15.53 3.4,10.01 3.4,7.56 C6.24,8.24 13.34,9.97 15.48,10.75 C17.9735547,11.518332 20.5252243,12.0835117 23.11,12.44 C23.11,12.75 23.11,13.21 23.11,13.86 C23.11,14.4122847 23.5577153,14.86 24.11,14.86 L24.11,14.86 C24.6622847,14.86 25.11,14.4122847 25.11,13.86 C25.11,13.19 25.11,12.65 25.11,12.22 C27.01,11.42 32.73,9.02 34.37,8.5 C35.56,8.12 37.03,7.5 38.08,7.11 C38.08,8.84 38.15,11.81 38.08,14.51 C38.08,15.0622847 38.5277153,15.51 39.08,15.51 L39.08,15.51 C39.6322847,15.51 40.08,15.0622847 40.08,14.51 C40.08,10.4 40,5.63 40,5.58 C40.0009698,5.56334744 40.0009698,5.54665256 40,5.53 C39.9698721,5.30498104 39.8640737,5.09691088 39.7,4.94 C39.6782355,4.91159589 39.6510418,4.88780147 39.62,4.87 C39.5587589,4.81884216 39.4916147,4.7751984 39.42,4.74 L39.28,4.69 L39.2,4.69 C38.69,4.59 26.63,2.19 23.9,1.82 C21.9127239,1.47240491 19.9540044,0.977711258 18.04,0.34 C17.4679179,0.154999617 16.8520821,0.154999617 16.28,0.34 C14.41,0.94 9.87,2.4 8.12,3.2 C6.12,4.13 2.17,5.4 2.12,5.42 C2.04610712,5.44869907 1.97566671,5.48559642 1.91,5.53 L1.81,5.6 C1.76202381,5.6346574 1.71837864,5.67494525 1.68,5.72 C1.63767594,5.77279893 1.60082038,5.82975751 1.57,5.89 C1.54222818,5.92561779 1.52183114,5.96641187 1.51,6.01 C1.47932622,6.09040449 1.45915959,6.17443211 1.45,6.26 C1.44552426,6.28647886 1.44552426,6.31352114 1.45,6.34 C1.45,6.74 1.13,16.14 1.45,19.34 C1.49549799,19.7802666 1.82500406,20.1382485 2.26,20.22 C5.35224426,20.7848597 8.41037873,21.5226848 11.42,22.43 C11.5321529,22.4707202 11.6506881,22.4910405 11.77,22.490038 C12.1848109,22.4871965 12.5548224,22.2285864 12.7,21.84 C12.8278586,21.5823663 12.838597,21.2821541 12.7294726,21.0160436 C12.6203481,20.7499331 12.4019276,20.5436926 12.13,20.45 Z M9,5 C10.7,4.23 15.51,2.68 16.94,2.23 C17.1115348,2.16977923 17.2984652,2.16977923 17.47,2.23 C19.5004167,2.90820292 21.5798442,3.42973137 23.69,3.79 C25.48,4.03 31.69,5.23 35.59,6 C34.96,6.24 34.33,6.47 33.76,6.65 C31.9,7.24 25.36,9.99 23.96,10.59 C21.3253403,10.2471493 18.7232698,9.68860718 16.18,8.92 C14.37,8.26 9.41,7.01 6.03,6.18 C7.09,5.75 8.19,5.33 9,5 Z"/>
      <path id="Shape" fill="#3D454C" d="M53.24,20.72 C53.24,20.72 53.24,20.72 53.24,20.72 C53.24,20.72 53.24,20.72 53.24,20.72 C53.2272985,20.640492 53.2037455,20.5631033 53.17,20.49 C53.17,20.49 53.17,20.49 53.17,20.42 C53.1462145,20.2688371 53.0880551,20.1251491 53,20 L53,20 C52.8681147,19.863905 52.6966338,19.7729151 52.51,19.74 C52,19.63 39.94,17.23 37.21,16.86 C35.2204697,16.5230371 33.2609398,16.0281388 31.35,15.38 C30.7786988,15.1901117 30.1613012,15.1901117 29.59,15.38 C27.73,15.97 23.2,17.43 21.43,18.24 C19.43,19.14 15.67,20.37 15.43,20.45 C15.3298957,20.4816777 15.2354048,20.5289232 15.15,20.59 L15.15,20.59 C15.0927705,20.6322063 15.0422063,20.6827705 15,20.74 L14.9,20.88 C14.8726891,20.9245696 14.8492691,20.9714095 14.83,21.02 C14.8035532,21.0976465 14.7867604,21.1782521 14.78,21.26 C14.7743247,21.2897316 14.7743247,21.3202684 14.78,21.35 C14.78,21.74 14.45,31.14 14.78,34.35 C14.8246061,34.774649 15.1339167,35.1241297 15.55,35.22 C15.65,35.22 26.14,37.71 28.82,38.7 C28.98,38.76 29.62,38.91 33.82,39.88 C35.39,40.25 36.82,40.57 36.97,40.63 C37.0627618,40.6446074 37.1572382,40.6446074 37.25,40.63 L37.41,40.63 L37.57,40.63 C37.672775,40.6451917 37.777225,40.6451917 37.88,40.63 C39.88,39.98 52.29,34.71 52.81,34.49 C53.1633271,34.3409496 53.4002995,34.0029725 53.42,33.62 C53.42,30 53.25,21.09 53.24,20.72 Z M22.24,20.08 C23.96,19.29 28.75,17.75 30.18,17.3 C30.3534511,17.2523312 30.5365489,17.2523312 30.71,17.3 C32.736506,17.9823862 34.8126767,18.5072796 36.92,18.87 C38.72,19.11 44.92,20.31 48.83,21.07 C48.2,21.31 47.56,21.54 47,21.72 C45.14,22.32 38.6,25.07 37.2,25.66 C34.54944,25.3191081 31.9308679,24.7639575 29.37,24 C27.55,23.33 22.59,22.08 19.21,21.26 C20.26,20.88 21.36,20.46 22.19,20.08 L22.24,20.08 Z M51.27,32.89 C48.79,34 39.19,38 37.21,38.68 L34.1,38 L29.37,36.88 C27,36 19,34 16.58,33.45 C16.41,30.69 16.58,25.14 16.58,22.69 C19.42,23.36 26.52,25.09 28.66,25.88 C31.1510415,26.6426636 33.6991985,27.204462 36.28,27.56 C36.28,29.1 36.33,32.48 36.33,35.4 C36.33,35.9522847 36.7777153,36.4 37.33,36.4 L37.33,36.4 C37.8822847,36.4 38.33,35.9522847 38.33,35.4 C38.33,32.4 38.33,28.8 38.27,27.4 C40.16,26.6 45.9,24.2 47.54,23.68 C48.73,23.3 50.19,22.68 51.25,22.28 C51.31,24.79 51.37,30 51.27,32.89 Z"/>
      <path id="Path" fill="#3D454C" d="M21.29 28.44C20.7377153 28.44 20.29 28.8877153 20.29 29.44 20.29 29.9922847 20.7377153 30.44 21.29 30.44 21.8422847 30.44 22.29 29.9922847 22.29 29.44 22.29 28.8877153 21.8422847 28.44 21.29 28.44zM46.33 27.53C45.7777153 27.53 45.33 27.9777153 45.33 28.53 45.33 29.0822847 45.7777153 29.53 46.33 29.53 46.8822847 29.53 47.33 29.0822847 47.33 28.53 47.33 27.9777153 46.8822847 27.53 46.33 27.53zM31.79 32C31.2377153 32 30.79 32.4477153 30.79 33 30.79 33.5522847 31.2377153 34 31.79 34 32.3422847 34 32.79 33.5522847 32.79 33 32.79 32.4477153 32.3422847 32 31.79 32zM30.75 22.75C31.3022847 22.75 31.75 22.3022847 31.75 21.75 31.75 21.1977153 31.3022847 20.75 30.75 20.75 30.1977153 20.75 29.75 21.1977153 29.75 21.75 29.75 22.3022847 30.1977153 22.75 30.75 22.75zM8.78 14C9.33228475 14 9.78 13.5522847 9.78 13 9.78 12.4477153 9.33228475 12 8.78 12 8.22771525 12 7.78 12.4477153 7.78 13 7.78 13.5522847 8.22771525 14 8.78 14zM19 16C19.5522847 16 20 15.5522847 20 15 20 14.4477153 19.5522847 14 19 14 18.4477153 14 18 14.4477153 18 15 18 15.5522847 18.4477153 16 19 16zM20 6.91C20.5522847 6.91 21 6.46228475 21 5.91 21 5.35771525 20.5522847 4.91 20 4.91 19.4477153 4.91 19 5.35771525 19 5.91 19 6.46228475 19.4477153 6.91 20 6.91zM34.14 13.75C34.6922847 13.75 35.14 13.3022847 35.14 12.75 35.14 12.1977153 34.6922847 11.75 34.14 11.75 33.5877153 11.75 33.14 12.1977153 33.14 12.75 33.14 13.3022847 33.5877153 13.75 34.14 13.75z"/>
    </g>
  </g>
</svg>
