<svg xmlns="http://www.w3.org/2000/svg" width="64" height="64" viewBox="0 0 64 64" style="background:#fff">
  <g id="Gemüse" fill="none" fill-rule="evenodd" stroke="none" stroke-width="1">
    <rect width="64" height="64" fill="#FFF"/>
    <g transform="translate(2 5)">
      <rect id="Rectangle" width="60" height="60" x=".46" y="0"/>
      <path id="Path" fill="#31E085" fill-rule="nonzero" d="M27.7 14.61C27.59 13.97 27.14 12.93 26.42 12.76 24.35 12.26 23.49 14.36 22.24 15.61 20.8173245 16.8508932 19.4808932 18.1873245 18.24 19.61 17.57 20.48 17.72 22.72 18.94 23.12 20.94 23.76 23.1 22.71 24.64 21.48 26.8 19.72 28.19 17.47 27.7 14.61zM52.88 32.75C51.88 28.29 47.46 28.62 44.38 30.93 40.7940867 33.6716645 36.8680763 35.9371877 32.7 37.67 29.11 39.13 17.7 41.48 20.16 47.48 22.88 54.21 33.23 50.48 38.16 48.37 44.18 45.86 54.62 40.89 52.88 32.75z" opacity=".5"/>
      <path id="Path" fill="#E05362" fill-rule="nonzero" d="M35.66,23.08 C33.77,19.73 30.8,19.58 28.46,22.52 C26.93,24.44 23.79,25.01 21.55,25.22 C20.2469432,25.3398681 18.9384066,25.3899397 17.63,25.37 C17.26,25.37 16.9,25.37 16.53,25.37 C16.5486986,24.4204773 16.1325164,23.5144524 15.4,22.91 C12.83,21 10,22.1 8.77,25 C7.17,28.88 8.62,34.4 12.05,36.82 C15.05,38.93 19.7,39.02 23.23,38.82 C27.57,38.63 31.72,37.2 34.57,33.82 C37.0837647,30.7948434 37.5147237,26.5485134 35.66,23.08 Z" opacity=".5"/>
      <path id="Path" fill="#3D454C" fill-rule="nonzero" d="M12.58 24.66C11.0590399 25.5004068 9.85714506 26.8182739 9.16 28.41 9.0616208 28.656631 9.06536907 28.9322628 9.17041844 29.1761274 9.27546781 29.4199921 9.47319232 29.6120649 9.72 29.71 9.8377876 29.7565537 9.96334664 29.7803081 10.09 29.780003 10.4998038 29.7803967 10.8683727 29.530721 11.02 29.15 11.5412702 28.0058928 12.4087717 27.0544395 13.5 26.43 13.8438302 26.2816461 14.0759609 25.9536255 14.1015014 25.5800271 14.1270419 25.2064287 13.9417114 24.849869 13.6212698 24.6561031 13.3008281 24.4623373 12.8989824 24.4638412 12.58 24.66L12.58 24.66zM14.32 45.23C14.3963511 45.2398366 14.4736489 45.2398366 14.55 45.23 15.0236615 45.2426631 15.4411882 44.9211676 15.55 44.46L15.65 44.02C15.7742641 43.4815224 15.4384776 42.9442641 14.9 42.82 14.3615224 42.695736 13.8242641 43.0315224 13.7 43.57L13.6 44.01C13.5332238 44.2672811 13.5716254 44.5405617 13.7067221 44.7694755 13.8418187 44.9983893 14.0624933 45.1640989 14.32 45.23zM14.23 50.11L14.33 49.68C14.4103848 49.331666 14.2988294 48.9669074 14.0373557 48.7231252 13.7758821 48.479343 13.4042141 48.3935735 13.0623557 48.4981252 12.7204973 48.6026769 12.4603848 48.881666 12.38 49.23L12.28 49.67C12.2201532 49.9285983 12.2655729 50.2003806 12.4062522 50.4254674 12.5469314 50.6505542 12.7713271 50.8104765 13.03 50.87L13.26 50.87C13.7195536 50.8696448 14.1197072 50.5561224 14.23 50.11L14.23 50.11zM12.63 47.35C12.5358755 47.1020013 12.3470744 46.9015603 12.1051432 46.792785 11.863212 46.6840098 11.5879752 46.6758135 11.34 46.77L10.97 46.91C10.7201806 47.0021513 10.5174293 47.1901309 10.4066791 47.4322796 10.2959289 47.6744283 10.2863266 47.9507473 10.38 48.2 10.4721513 48.4498194 10.6601309 48.6525707 10.9022796 48.7633209 11.1444283 48.8740711 11.4207473 48.8836734 11.67 48.79L12.05 48.64C12.2979987 48.5458755 12.4984397 48.3570744 12.607215 48.1151432 12.7159902 47.873212 12.7241865 47.5979752 12.63 47.35L12.63 47.35zM15.27 46.35C15.4151776 46.7385864 15.7851891 46.9971965 16.2 47 16.3193119 47.0010405 16.4378471 46.9807202 16.55 46.94L16.93 46.79C17.4149663 46.5760725 17.6487626 46.0209021 17.4629392 45.524488 17.2771157 45.0280739 16.7362348 44.7628897 16.23 44.92L15.85 45.07C15.3389327 45.2660218 15.0804332 45.8365034 15.27 46.35zM16.33 47.91C15.9489235 47.5095936 15.3154064 47.4939235 14.915 47.875 14.5145936 48.2560765 14.4989235 48.8895936 14.88 49.29L15.16 49.58C15.3478088 49.7770153 15.6078124 49.8889612 15.88 49.89 16.2770394 49.8887266 16.635718 49.6526809 16.7939495 49.2885316 16.952181 48.9243824 16.8799902 48.5011137 16.61 48.21L16.33 47.91zM11.57 45.79C11.7560941 45.9907051 12.0163208 46.1063614 12.29 46.11 12.5474695 46.1089747 12.7946225 46.0086807 12.98 45.83 13.3677236 45.4399625 13.3677236 44.8100375 12.98 44.42L12.7 44.12C12.3189235 43.7195936 11.6854064 43.7039235 11.285 44.085 10.8845936 44.4660765 10.8689235 45.0995936 11.25 45.5L11.57 45.79z"/>
      <path id="Shape" fill="#3D454C" fill-rule="nonzero" d="M59.12,28.92 C57.7026012,28.0559169 55.9076859,28.114831 54.55,29.07 C53.4797832,28.1448919 52.1753989,27.5324887 50.78,27.3 C50.765839,27.2694163 50.7453953,27.242158 50.72,27.22 C50.0348636,26.5872155 49.0177377,26.4737513 48.21,26.94 C48.093186,27.0055871 47.9937532,27.0981624 47.92,27.21 C46.0139834,27.4105193 44.1919349,28.0993845 42.63,29.21 C40.547245,30.7407316 38.3471013,32.1049544 36.05,33.29 C35.3142333,33.1520162 34.5591283,33.4012008 34.05,33.95 C33.9553141,34.0636111 33.8870069,34.19681 33.85,34.34 C30.3970989,35.9136479 26.7474252,37.0135957 23,37.61 C22.9491518,37.5636946 22.8957337,37.5202924 22.84,37.48 C22.0173844,37.032102 20.9987064,37.1741487 20.33,37.83 C20.3010461,37.868427 20.274335,37.9084937 20.25,37.95 C18.2852178,38.1255756 16.311626,38.1823455 14.34,38.12 L14.34,38.12 C12.3251974,38.1656993 10.4083766,38.9984754 9,40.44 C8.98619304,40.2601495 8.92399681,40.0873822 8.82,39.94 C6.926031,37.2631035 6.05981447,33.9934911 6.38,30.73 C6.72057638,26.0423609 10.2318888,22.2001827 14.87,21.44 C15.1028122,21.7234625 15.3923461,21.9550896 15.72,22.12 L16.17,22.34 C16.22,22.34 16.46,22.5 16.4,22.67 L16.26,23.1 C15.9488839,24.0126192 16.2742367,25.0212129 17.06,25.58 C17.5735967,25.9634516 18.1990913,26.1672644 18.84,26.16 C19.4461889,26.1624025 20.0388847,25.9811073 20.54,25.64 L20.97,25.36 C21.2711093,25.1723074 21.6456783,25.1460876 21.97,25.29 L22.42,25.52 C23.5757051,26.1054815 24.9751751,25.8969644 25.91,25 C26.6191064,24.3481315 26.8217143,23.3107788 26.41,22.44 L26.21,22.03 C26.13,21.87 26.38,21.69 26.41,21.67 L26.83,21.39 C27.1274057,21.1915705 27.3795704,20.9325905 27.57,20.63 C32.110653,20.8468725 35.872164,24.2280529 36.57,28.72 C36.57,29.03 36.63,29.16 36.65,29.26 C36.6643752,29.4063144 36.6643752,29.5536856 36.65,29.7 C36.65,30.2522847 37.0977153,30.7 37.65,30.7 L37.65,30.7 C38.2022847,30.7 38.65,30.2522847 38.65,29.7 C38.6529843,29.4520067 38.6328978,29.2042732 38.59,28.96 C38.5576297,28.8149145 38.5342519,28.667968 38.52,28.52 C37.6668909,23.1426857 33.2030877,19.0733581 27.77,18.72 C27.3163914,17.6172109 26.1843121,16.9510414 25,17.09 L24.46,17.09 C24.1741626,17.1328237 23.8874521,17.0181395 23.71,16.79 L23.51,16.38 C22.9863302,15.4322426 21.9471053,14.8890114 20.87,15 C19.7573687,15.0197887 18.7699225,15.7177426 18.38,16.76 L18.23,17.19 C18.0795839,17.4383368 17.810338,17.5900246 17.52,17.59 L16.97,17.59 C15.8248192,17.6120659 14.8202436,18.3594702 14.47,19.45 C8.9532489,20.4372332 4.80309599,25.0316047 4.38,30.62 C4.03318587,34.3538857 5.04123443,38.0879248 7.22,41.14 C7.40885438,41.3918058 7.7052427,41.54 8.02,41.54 L8.02,41.54 C7.23818224,42.6084302 6.6865557,43.8274568 6.4,45.12 C5.32,49.84 7.83,54.45 12,55.41 C12.5058983,55.5208379 13.0221067,55.5778219 13.54,55.58 L13.54,55.58 C20.6513513,55.7406482 27.733758,54.6229083 34.45,52.28 C34.45,52.28 34.45,52.28 34.52,52.28 C34.7905752,52.4017255 35.0833266,52.4664031 35.38,52.47 C35.9912392,52.4793692 36.5785742,52.2328335 37,51.79 C37.1426536,51.6180671 37.2236251,51.4033166 37.23,51.18 C39.5132255,50.1974782 41.7370236,49.0822401 43.89,47.84 C43.9765973,47.8449025 44.0634027,47.8449025 44.15,47.84 C44.8055322,47.8270468 45.4058229,47.4699118 45.73,46.9 C45.7591627,46.8329484 45.7793373,46.7623373 45.79,46.69 C47.47,45.6566667 49.19,44.5233333 50.95,43.29 L51.17,43.29 C51.9165703,43.2843343 52.6078027,42.89528 53,42.26 C53.0794313,42.1057017 53.1173403,41.9333881 53.11,41.76 C55.0957565,40.2847291 56.4269597,38.0923703 56.82,35.65 C57.0985051,33.9173134 56.7434995,32.1422856 55.82,30.65 C56.4817192,30.2531171 57.3082808,30.2531171 57.97,30.65 C58.4282682,30.9017625 59.0031237,30.7579856 59.2889112,30.3201277 C59.5746987,29.8822697 59.4749264,29.2981669 59.06,28.98 L59.12,28.92 Z M17.12,19.61 L17.66,19.61 C18.7681527,19.5766785 19.7488148,18.8835198 20.15,17.85 L20.29,17.42 C20.4323115,17.1609459 20.7044301,16.9999743 21,17 L21.07,17 C21.3337622,16.9727606 21.5923038,17.0868231 21.75,17.3 L21.94,17.71 C22.461177,18.6855463 23.5194707,19.2502328 24.62,19.14 L25.17,19.14 C25.63,19.14 25.88,19.31 25.93,19.46 C25.98,19.61 25.93,19.67 25.72,19.79 L25.3,20.08 C24.3180917,20.6725802 23.9390206,21.9088689 24.42,22.95 L24.61,23.36 C24.61,23.41 24.67,23.48 24.52,23.63 C24.2004352,23.9038627 23.7491203,23.9627298 23.37,23.78 L22.92,23.55 C21.9369493,23.0680697 20.771958,23.1442129 19.86,23.75 L19.43,24.04 C19.0850066,24.2824621 18.6249934,24.2824621 18.28,24.04 C18.12,23.92 18.14,23.85 18.16,23.79 L18.31,23.36 C18.6539411,22.2669165 18.1253571,21.0894204 17.08,20.62 L16.62,20.39 C16.45,20.3 16.37,20.2 16.39,20.1 C16.41,20 16.63,19.64 17.1,19.61 L17.12,19.61 Z M8.37,45.61 C9.11,42.4 11.67,40.1699995 14.37,40.1699995 C14.7399423,40.1698279 15.1087965,40.2100665 15.47,40.29 C16.9660877,40.6449796 18.2331097,41.6344983 18.94,43 C19.7507441,44.5747009 19.9672885,46.3887043 19.55,48.11 C18.82,51.28 16.3,53.5 13.62,53.55 L13.62,53.55 C13.2368652,53.5496712 12.8548057,53.5094544 12.48,53.43 C9.35,52.75 7.52,49.21 8.35,45.57 L8.37,45.61 Z M54.87,35.36 C54.5559989,37.3117512 53.4761459,39.0575136 51.87,40.21 C40,48.89 30.85,52.64 18.75,53.42 C20.1269664,52.1155548 21.0843122,50.4306262 21.5,48.58 C22.0289794,46.3922454 21.7483678,44.0869681 20.71,42.09 C20.3078221,41.3126925 19.7808208,40.6066459 19.15,40 C28.097296,39.4397057 36.6781892,36.2418789 43.81,30.81 C46.81,28.62 51.73,28.3 53.99,31.34 C54.8192548,32.5039304 55.1371348,33.9560639 54.87,35.36 L54.87,35.36 Z"/>
      <path id="Path" fill="#3D454C" fill-rule="nonzero" d="M29.17 41.64C28.3461851 41.1987565 27.3316803 41.3402213 26.66 41.99 26.3715401 42.2760905 26.2848381 42.7082668 26.440629 43.0834815 26.59642 43.4586962 26.9637349 43.7023626 27.37 43.700017 27.6323399 43.6988954 27.8837394 43.5947442 28.07 43.41 28.07 43.41 28.13 43.35 28.22 43.41 28.7060106 43.6861423 29.3238576 43.5160105 29.6 43.03 29.8761423 42.5439894 29.7060106 41.9261424 29.22 41.65L29.17 41.64zM40.13 37.32C40.170644 37.2864704 40.229356 37.2864704 40.27 37.32 40.612975 37.423607 40.9851706 37.3363689 41.2463844 37.0911474 41.5075982 36.8459258 41.6181456 36.4799759 41.5363844 36.1311474 41.4546232 35.7823188 41.192975 35.503607 40.85 35.4 39.9562085 35.134621 38.9934629 35.4784588 38.47 36.25 38.1667834 36.7062975 38.2871734 37.321624 38.74 37.63 38.9055373 37.7412428 39.1005573 37.8004453 39.3 37.8000025 39.6403349 37.7917115 39.9530743 37.6108502 40.13 37.32zM24.74 49.47C24.6966838 49.4950086 24.6433162 49.4950086 24.6 49.47 24.1775324 49.258016 23.6643367 49.3707802 23.3696522 49.7403436 23.0749676 50.1099069 23.0792839 50.6353277 23.38 51 23.7476179 51.288791 24.2025307 51.4439551 24.67 51.44 25.1092844 51.4425808 25.5387207 51.3099094 25.9 51.06 26.1911715 50.852786 26.3496776 50.5059742 26.3158107 50.1502053 26.2819438 49.7944363 26.0608491 49.4837601 25.7358107 49.3352052 25.4107724 49.1866504 25.0311715 49.2227859 24.74 49.43L24.74 49.47zM41.62 42.25C41.1200522 42.0313332 40.5371095 42.2538304 40.31 42.75 40.25 42.86 40.2 42.85 40.16 42.85 39.6077153 42.8085786 39.1264214 43.2227153 39.085 43.775 39.0435786 44.3272847 39.4577153 44.8085786 40.01 44.85L40.18 44.85C41.0552134 44.8453111 41.8427695 44.3176485 42.18 43.51 42.3590137 43.0078737 42.11267 42.4536002 41.62 42.25zM47.68 31.86C47.2594663 32.1859941 47.1678547 32.7842081 47.4715568 33.2211129 47.775259 33.6580177 48.3679046 33.7805896 48.82 33.5 48.8657818 33.4709545 48.9242182 33.4709545 48.97 33.5 49.406305 33.8396551 50.0353449 33.7613049 50.375 33.325 50.7146551 32.888695 50.6363049 32.2596551 50.2 31.92 49.4621459 31.3549165 48.4439115 31.3306728 47.68 31.86L47.68 31.86z"/>
    </g>
  </g>
</svg>
