<svg xmlns="http://www.w3.org/2000/svg" width="64" height="64" viewBox="0 0 64 64" style="background:#fff">
  <g id="Gerstenmalzextrakt" fill="none" fill-rule="evenodd" stroke="none" stroke-width="1">
    <rect width="64" height="64" fill="#FFF"/>
    <g id="10-Gerstenmalzextrakt" transform="translate(2 6)">
      <path id="Path" fill="#D4BA39" fill-rule="nonzero" d="M52.93 17.54C52.0499325 14.3574134 49.6307629 11.829306 46.49 10.81 45.12 10.33 42.92 10.38 42.33 12.01 41.74 13.64 43.39 15.13 44.75 15.61L45.1 15.76 45.25 15.85 45.35 15.93 45.62 16.2C45.67 16.27 45.73 16.33 45.78 16.41L45.99 16.74C45.99 16.87 46.14 17.1 46.15 17.14 46.2398968 17.3874104 46.3101151 17.6415337 46.36 17.9 46.73 19.52 49.04 20.54 50.55 20.4 52.06 20.26 53.31 19.23 52.93 17.54zM31.55 10.58C31.49 10.51 31.35 10.36 31.24 10.21 31.2171272 10.1483847 31.190408 10.0882664 31.16 10.03 31.16 9.93 31.09 9.83 31.06 9.74L31 9.44C31.005411 9.38012199 31.005411 9.31987801 31 9.26 31 9.06 31 8.83 31 8.72 31.07 7.04 29 5.72 27.57 5.57 26.14 5.42 24.26 5.92 24.19 7.68 24.149873 9.34434616 24.682983 10.9719201 25.7 12.29 26.7519773 13.7365024 28.569177 14.4105613 30.31 14 31.0222911 13.8286423 31.6095988 13.3268288 31.89 12.65 32.1145631 11.9453563 31.988161 11.1757905 31.55 10.58L31.55 10.58zM30 19C28.5805852 18.0161689 26.6796985 18.0979274 25.35 19.2 24.8769098 19.6517826 24.3534773 20.0477122 23.79 20.38 23.45 20.59 23.1 20.77 22.79 20.95 22.48 21.13 22.43 21.12 22.66 20.95 22.48 21.03 22.29 21.09 22.11 21.16 21.4022205 21.3264389 20.825668 21.8377996 20.5758981 22.5206382 20.3261282 23.2034769 20.4366588 23.9661601 20.87 24.55 21.9317219 26.0070357 23.7705156 26.6753284 25.52 26.24 27.6671869 25.5091057 29.6269719 24.3141148 31.26 22.74 32.5 21.6 31.18 19.63 30 19zM13.48 26.43C12.48 26.1 10.22 25.99 9.91 27.43 9.77972697 28.3207951 9.33661133 29.1361279 8.66 29.73 8.40778729 29.9275703 8.14027932 30.1047944 7.86 30.26 7.86 30.26 7.39 30.43 7.38 30.43L7.23 30.48 7 30.48C5.72 30.57 4.51 31.54 5 32.93 5.62711106 34.3277147 7.06223626 35.1831933 8.59 35.07 11.78 34.85 14.91 32.75 15.59 29.48 15.7619597 28.0753439 14.8550601 26.7644227 13.48 26.43L13.48 26.43zM17.29 11.68C17.075228 11.1319922 16.6802038 10.6734819 16.17 10.38 15.6110503 10.0301851 14.9586722 9.85924106 14.3 9.89 13.7475909 9.88715909 13.2201687 10.1199523 12.85 10.53 12.2984935 11.4133806 11.6252014 12.2145983 10.85 12.91 10.1461248 13.4703499 9.37724027 13.9437679 8.56 14.32 8.00312714 14.546228 7.42762264 14.7235637 6.84 14.85 6.3271711 14.9873393 5.90868646 15.3576797 5.71 15.85 5.55954618 16.3489294 5.65211866 16.8895527 5.96 17.31 6.72998052 18.3344255 8.03142364 18.8087466 9.28 18.52 12.4963726 17.8207256 15.3066982 15.8800916 17.1 13.12 17.3982323 12.7012161 17.4694045 12.1618054 17.29 11.68L17.29 11.68z" opacity=".5"/>
      <path id="Path" fill="#C17953" fill-rule="nonzero" d="M55.52,34.19 C54.3432215,32.836826 52.7677552,31.8915463 51.02,31.49 C48.92,30.93 45.3,32.21 43.69,31.43 C42.44,30.82 41.93,29.43 41.21,28.2 C40.34,26.67 38.8,24.2 34.5,25.64 C30.2,27.08 23.69,29.39 20.76,32.82 C18.2,35.82 20.17,39.06 23.27,40.72 C27.8,43.14 34,43.63 39,43.84 C43.38,44.02 50,44.59 54,42.17 C57,40.32 57.75,36.92 55.52,34.19 Z" opacity=".5"/>
      <rect id="Rectangle" width="60" height="60" x=".94" y="0"/>
      <path id="Shape" fill="#3D454C" fill-rule="nonzero" d="M43.87 18.85C44.88681 19.9074732 46.2020062 20.6296102 47.64 20.92 47.9431106 20.9791627 48.2511703 21.009299 48.56 21.01 49.5741191 21.0499724 50.5628225 20.6868487 51.31 20 52.2313589 19.0141675 52.6057094 17.6365576 52.31 16.32 51.6535764 13.4093791 49.3806209 11.1364236 46.47 10.48 45.1566136 10.1877974 43.7836073 10.5619136 42.8 11.48 41.8803456 12.4627327 41.5060025 13.8365719 41.8 15.15 42.1076346 16.5613877 42.8281971 17.8493497 43.87 18.85zM44.19 12.85C44.5511191 12.518272 45.0302626 12.345348 45.52 12.37 45.7111591 12.3684679 45.902027 12.3852107 46.09 12.42 47.1246821 12.6451268 48.0684278 13.1744601 48.8 13.94 49.5636047 14.6730712 50.0925852 15.6161876 50.32 16.65 50.4893569 17.3140994 50.3335006 18.0191638 49.9 18.55 49.3737336 18.9925573 48.6688592 19.1595012 48 19 45.9039465 18.5026308 44.2673692 16.8660535 43.77 14.77 43.5852494 14.0935355 43.7420041 13.3694781 44.19 12.83L44.19 12.85zM22.65 28.32C24.4896308 28.2145911 26.2170188 27.4010701 27.47 26.05 29.9 23.62 30.47 20.38 28.76 18.68 27.05 16.98 23.76 17.53 21.38 19.96 19 22.39 18.38 25.63 20.1 27.33 20.7798741 27.9932412 21.7006987 28.3507378 22.65 28.32zM22.8 21.38C23.677759 20.4070874 24.8939551 19.8061435 26.2 19.7 26.6165964 19.6743206 27.0264296 19.8145267 27.34 20.09 28.11 20.86 27.77 22.92 26.06 24.63 24.35 26.34 22.29 26.69 21.51 25.92 20.73 25.15 21.08 23.09 22.8 21.38L22.8 21.38zM23.84 13.31C24.9975402 14.5255923 26.5827818 15.2428962 28.26 15.31 29.2225058 15.3374963 30.1557111 14.9771853 30.85 14.31 32.53 12.64 32.07 9.56 29.85 7.31 27.63 5.06 24.52 4.61 22.85 6.31 21.9898396 7.24416229 21.6456405 8.54239153 21.93 9.78 22.198766 11.1213998 22.8641692 12.3511763 23.84 13.31zM24.23 7.72C24.5464417 7.42538122 24.9680832 7.27041895 25.4 7.29 26.546951 7.38598826 27.6167725 7.90663474 28.4 8.75 29.81 10.16 30.28 12.07 29.4 12.93 28.52 13.79 26.63 13.31 25.22 11.93 24.5161628 11.2616762 24.0285571 10.3979174 23.82 9.45 23.6671007 8.84097253 23.8200423 8.19563359 24.23 7.72L24.23 7.72zM7.58 27.44C6.51306624 28.4731422 5.77547315 29.7987222 5.46 31.25 5.15552698 32.5760164 5.53035539 33.9666298 6.46 34.96 7.19378451 35.652207 8.17158013 36.0260701 9.18 36 9.51603261 36.0043634 9.85148553 35.9708181 10.18 35.9 11.6325219 35.603824 12.9630325 34.8793575 14 33.82 16.44 31.38 16.94 28.08 15.15 26.29 13.36 24.5 10 25 7.58 27.44zM12.53 32.43C11.7838213 33.2074565 10.828832 33.7526686 9.78 34 9.39410802 34.0800532 8.99589198 34.0800532 8.61 34 9.74843069 33.5978111 10.7761634 32.9332106 11.61 32.06 11.7993127 31.8722334 11.9057983 31.6166375 11.9057983 31.35 11.9057983 31.0833625 11.7993127 30.8277666 11.61 30.64 11.4222334 30.4506873 11.1666375 30.3442017 10.9 30.3442017 10.6333625 30.3442017 10.3777666 30.4506873 10.19 30.64 10.0634019 30.7832782 9.92635994 30.9169777 9.78 31.04L9.58 31.22 9.52 31.27 9.52 31.27 9.52 31.27 9.52 31.27C9.20292949 31.4930127 8.86852998 31.6903084 8.52 31.86L8.3 32 8.3 32 8.3 32C8.13 32.07 7.94 32.13 7.76 32.19L7.44 32.27C7.44174309 32.0553475 7.46181604 31.8412361 7.5 31.63 7.7249907 30.5793718 8.24540506 29.6148705 9 28.85 9.87978398 27.8984945 11.087651 27.3160025 12.38 27.22 12.8697374 27.195348 13.3488809 27.368272 13.71 27.7 14.66 28.67 14.13 30.82 12.55 32.4L12.53 32.43zM7.84 10.59C5.35 13.08 4.75 16.4 6.48 18.13 7.17244144 18.7937256 8.1011225 19.1536795 9.06 19.13 9.43710221 19.1300862 9.81294355 19.0864618 10.18 19 11.6376091 18.6304538 12.9615542 17.8575749 14 16.77 16.49 14.27 17.09 10.96 15.36 9.23 13.63 7.5 10.33 8.1 7.84 10.59zM12.6 15.35C11.8224851 16.1550476 10.8352976 16.7265772 9.75 17 9.11847224 17.2073886 8.42517441 17.0874668 7.9 16.68 7.1 15.89 7.47 13.76 9.25 11.97 11.03 10.18 13.17 9.86 14 10.65 14.83 11.44 14.39 13.57 12.6 15.35z"/>
      <path id="Path" fill="#3D454C" fill-rule="nonzero" d="M9.47 14.29C8.91771525 14.29 8.47 14.7377153 8.47 15.29 8.47 15.8422847 8.91771525 16.29 9.47 16.29 10.0222847 16.29 10.47 15.8422847 10.47 15.29 10.47 14.7377153 10.0222847 14.29 9.47 14.29zM45.64 15.17C46.1922847 15.17 46.64 14.7222847 46.64 14.17 46.64 13.6177153 46.1922847 13.17 45.64 13.17 45.0877153 13.17 44.64 13.6177153 44.64 14.17 44.64 14.7222847 45.0877153 15.17 45.64 15.17z"/>
      <path id="Shape" fill="#3D454C" fill-rule="nonzero" d="M57.74,37.4 C57.59,34.66 53.92,32.99 46.51,32.28 C45.9577153,32.2275329 45.4674671,32.6327153 45.415,33.185 C45.3625329,33.7372847 45.7677153,34.2275329 46.32,34.28 C53.32,34.95 55.75,36.42 55.75,37.58 C55.75,39.79 48.44,42.25 37.94,42.25 C27.24,42.25 20.14,39.44 20.14,37.58 C20.14,36.96 21.26,36.01 24.31,35.23 C24.31,36.23 24.88,37.91 27.7,39.23 C30.06,40.29 33.51,40.83 37.94,40.83 C41.4254657,40.8921205 44.9102273,40.6713967 48.36,40.17 C50.18,39.84 52.28,39.28 52.28,37.81 C52.28,35.57 47.22,35.23 44.17,35.23 C42.6300319,35.2193733 41.1705314,34.5407056 40.17,33.37 C37.81,30.53 38.45,25.37 38.46,25.37 C38.5732183,24.8177153 38.2172847,24.2782184 37.665,24.165 C37.1127153,24.0517817 36.5732184,24.4077153 36.46,24.96 C36.46,25.02 34.75,30.75 30.2,30.75 C28.212683,30.6593097 26.2944197,31.4893275 25,33 C20.63,33.92 18.34,35.37 18.15,37.3 C18.15,37.3 18.15,37.3 18.15,37.3 C18.15,37.3 15.65,48.52 29,52.85 C29.0518626,52.8985534 29.0987607,52.9521512 29.14,53.01 C29.386575,53.3607891 29.7359985,53.626351 30.14,53.77 C30.42,53.84 30.72,53.93 31.04,54.03 C33.2571128,54.7488331 35.5799642,55.0869483 37.91,55.03 C40.0990813,55.0902447 42.282749,54.7826383 44.37,54.12 C44.7,54.02 44.99,53.93 45.28,53.86 C45.6849035,53.7232632 46.0353597,53.460421 46.28,53.11 L46.39,52.97 C57.42,49.73 58.64,41.41 57.74,37.4 Z M30.25,32.69 C32.7834797,32.6433604 35.1318432,31.3532563 36.53,29.24 C36.7257423,31.1792162 37.4523676,33.0269204 38.63,34.58 C39.9904331,36.1914933 41.9813215,37.1358891 44.09,37.17 L44.15,37.17 C45.9884416,37.1154298 47.8256541,37.3139564 49.61,37.76 C48.36,38.16 45.26,38.76 37.94,38.76 C32.77,38.76 29.94,37.98 28.52,37.33 C27.1,36.68 26.31,35.88 26.31,35.08 C26.31,34 27.93,32.69 30.25,32.69 Z M45.77,51.1 C45.3911768,51.2396212 45.063479,51.4906238 44.83,51.82 L44.71,51.96 C44.42,52.03 44.13,52.12 43.82,52.22 C41.9199772,52.8216899 39.9321465,53.0989043 37.94,53.04 C35.8063344,53.0922143 33.6793319,52.7811106 31.65,52.12 C31.35,52.03 31.07,51.94 30.79,51.87 C30.74,51.87 30.7,51.76 30.65,51.7 C30.4087213,51.3782414 30.0835003,51.1291359 29.71,50.98 C21.89,48.48 20.2,43.57 20,40.5 C23.36,42.95 30.83,44.24 38,44.24 C45.17,44.24 52.58,43.09 56,40.61 C55.62,43.78 53.83,48.76 45.77,51.1 Z"/>
      <path id="Path" fill="#3D454C" fill-rule="nonzero" d="M43.14,32 C42.5877153,32 42.14,32.4477153 42.14,33 C42.14,33.5522847 42.5877153,34 43.14,34 C43.6922847,34 44.14,33.5522847 44.14,33 C44.14,32.4477153 43.6922847,32 43.14,32 Z"/>
    </g>
  </g>
</svg>
