<svg xmlns="http://www.w3.org/2000/svg" width="64" height="64" viewBox="0 0 64 64" style="background:#fff">
  <g id="Gerste" fill="none" fill-rule="evenodd" stroke="none" stroke-width="1">
    <rect width="64" height="64" fill="#FFF"/>
    <g transform="translate(2 4)">
      <rect id="Rectangle" width="60" height="60" x=".46" y="0"/>
      <g id="Group" fill="#D4BA39" fill-rule="nonzero" opacity=".5" transform="translate(7 6)">
        <path id="Path" d="M18.19.89C12.84.31 7 5.77 6.89 11 6.89 12.06 7.81 13.68 8.98 12.74 10.7 11.35 11.53 8.85 12.98 7.17 14.6869108 5.41979453 16.5183708 3.79554355 18.46 2.31 18.88 2 18.78 1 18.19.89zM36.65.86C34.75-.04 31.88 2.5 30.65 3.77 28.8 5.69 27.15 8.39 28.07 11.1 28.2 11.49 28.62 11.99 29.07 11.94 30.2 11.82 30.61 10.94 31.07 10.01 31.5550146 9.01541296 32.1097305 8.05635598 32.73 7.14 34 5.33 36.1 3.91 37 1.94 37.1578972 1.54266388 37.0109396 1.08919456 36.65.86L36.65.86zM30.66 18C30.4249098 17.552397 29.892715 17.350678 29.42 17.53 28.35 17.94 27.87 19.67 27.26 20.59 26.407286 21.8068912 25.3064542 22.8293357 24.03 23.59 22.75 24.39 20.96 24.59 19.85 25.65 18.24 27.14 18.38 29.81 19.5 31.5 19.8919483 32.0917727 20.5411759 32.4627599 21.25 32.5 24.54 32.26 27.34 29.77 29.05 27.09 30.53 24.81 32.38 20.56 30.66 18zM18.86 35.14C17.01 34.61 14.86 36.73 13.6 37.85 11.6 39.58 9.05 41.67 9.6 44.61 9.65582003 45.0423585 9.80974087 45.4562345 10.05 45.82 10.64 46.55 12.3 46.49 13.05 46.02 14.0018426 45.2185089 14.8425821 44.2936954 15.55 43.27 17.16 41.37 19.14 39.06 19.43 36.51 19.46 36.08 19.38 35.29 18.86 35.14zM34.73 41C34.47 39.17 34.54 37.07 33.73 35.39 33.56 35.04 33.12 34.47 32.65 34.75 30.65 35.96 30.43 39.16 30.35 41.24 30.25 43.54 30.25 47.98 32.89 48.92 33.89 49.29 34.58 48.39 34.89 47.58 35.88 45.51 35 43.17 34.73 41zM43.39 27.71C42.9577835 26.2710942 42.4333653 24.8615116 41.82 23.49 41.43 22.29 41.42 21.04 40.99 19.86 40.85 19.44 40.29 18.86 39.8 19.16 38.1 20.16 37.8 23.06 37.8 24.83 37.9 27.24 38.62 30.45 40.94 31.62 43.05 32.66 43.61 28.87 43.39 27.71zM12 25C11.9 24.26 11.15 22.86 10.19 23 8.99 23.18 8.29 24.19 7.41 25 6.56624252 25.7534385 5.63647238 26.4046132 4.64 26.94 3.33 27.64 1.81 28.02.94 29.32-.108445685 30.7903341-.232456817 32.7280081.62 34.32 2.45 37.49 6.31 35.45 8.3 33.55 10.57 31.31 12.36 28.25 12 25z"/>
      </g>
      <path id="Shape" fill="#3D454C" fill-rule="nonzero" d="M18.64 29.22C16.44 27 12.33 27.67 9.3 30.7 6.27 33.73 5.6 37.85 7.81 40.05 8.7054888 40.9176385 9.91365899 41.3864807 11.16 41.35 13.447578 41.2391186 15.6010236 40.2377665 17.16 38.56 20.19 35.52 20.84 31.42 18.64 29.22zM9.64 38.9C11.3699223 38.4386102 12.9401958 37.5116646 14.18 36.22 15.08 35.3 13.67 33.88 12.77 34.81 11.654767 35.9886983 10.2012728 36.7923129 8.61 37.11 8.56884366 35.2106371 9.35313136 33.3867122 10.76 32.11 11.9565676 30.8238638 13.5974893 30.0409403 15.35 29.92 16.0612561 29.8845284 16.7568564 30.1368187 17.28 30.62 18.64 31.98 17.96 34.97 15.79 37.14 13.74 39.15 11.06 39.86 9.59 38.9L9.64 38.9zM39.15 39.89C36.55 39.89 34.5 43.26 34.5 47.55 34.5 51.84 36.5 55.21 39.15 55.21 41.8 55.21 43.8 51.85 43.8 47.55 43.8 43.25 41.76 39.89 39.15 39.89zM39.15 53.21C37.9 53.21 36.5 50.79 36.5 47.55 36.5 44.31 37.9 41.89 39.15 41.89 40.4 41.89 41.8 44.31 41.8 47.55 41.8 50.79 40.4 53.21 39.15 53.21zM22.32 40.45C20.5666621 40.9522876 18.9766222 41.9076911 17.71 43.22 14.71 46.22 13.84 50.22 15.8 52.14 16.5453342 52.8545131 17.5481611 53.2368859 18.58 53.2 19.0960854 53.1936614 19.6096262 53.1265319 20.11 53 21.8640255 52.4939998 23.4539587 51.5352115 24.72 50.22 26.0319314 48.9570527 26.9874214 47.3703184 27.49 45.62 28.0057245 44.133652 27.6766778 42.4845926 26.63 41.31 25.45739 40.2593516 23.8060412 39.9298482 22.32 40.45zM25.55 45.12C25.1333967 46.5246225 24.3579111 47.7964188 23.3 48.81 22.2881807 49.8701003 21.0157619 50.6459654 19.61 51.06 18.8048845 51.3680178 17.8978802 51.2395255 17.21 50.72 16.21 49.72 16.77 46.99 19.13 44.63 20.1450336 43.5760945 21.4166239 42.8041806 22.82 42.39 23.1455968 42.2989392 23.4819143 42.2518548 23.82 42.25 24.3236099 42.2212991 24.8185967 42.3898816 25.2 42.72 25.7229032 43.4060438 25.8551956 44.3131918 25.55 45.12L25.55 45.12zM37.27 25.3C35.17 23.2 31.14 23.93 28.1 26.97 25.06 30.01 24.33 34 26.43 36.13 27.2618957 36.9338566 28.3837618 37.366731 29.54 37.33 31.8507414 37.187092 34.0175362 36.1592075 35.59 34.46 38.63 31.42 39.37 27.4 37.27 25.3zM29.52 28.39C30.6268235 27.2098171 32.0864818 26.4203385 33.68 26.14 32.8048351 29.3469258 30.4019634 31.9144803 27.26 33 27.4090493 31.2344275 28.2156126 29.5891811 29.52 28.39zM28 34.84C31.7469397 33.4926802 34.5921305 30.3895155 35.61 26.54 35.686991 26.5917683 35.7604839 26.6485582 35.83 26.71 37.09 27.98 36.33 30.88 34.16 33.05 31.99 35.22 29.36 35.9 28 34.84zM53 30.61C52.29 26.38 49.7 23.4 47.08 23.83 44.46 24.26 42.99 27.93 43.7 32.17 44.36 36.17 46.7 38.99 49.1 38.99 49.2711312 38.9882089 49.4417793 38.9714787 49.61 38.94 52.19 38.51 53.68 34.85 53 30.61zM49.25 37C47.99 37.22 46.19 35.16 45.64 31.87 45.09 28.58 46.12 26.05 47.38 25.87L47.57 25.87C48.82 25.87 50.47 27.87 51 31.02 51.55 34.23 50.52 36.76 49.25 37zM34.68 19.57C37.0507581 19.3787928 39.2584354 18.2874774 40.85 16.52 42.1536955 15.27327 43.1233617 13.7190533 43.67 12 44.2296544 10.5669614 43.9485188 8.94176688 42.94 7.78 41.7883975 6.75432156 40.1621511 6.45373574 38.72 7 36.9973561 7.54512831 35.439544 8.51489207 34.19 9.82 31.19 12.82 30.19 16.7 32.1 18.57 32.7905988 19.2366138 33.7205373 19.5970551 34.68 19.57zM35.6 11.27C36.6207904 10.2313773 37.8759399 9.45291027 39.26 9 39.6146333 8.89857952 39.9811801 8.84477448 40.35 8.84 40.7764461 8.80843092 41.1977846 8.9488771 41.52 9.23 41.9818115 9.88931142 42.0688614 10.7408865 41.75 11.48 41.288437 12.8722898 40.4957316 14.1316964 39.44 15.15 37.08 17.51 34.44 18.15 33.52 17.23 32.6 16.31 33.24 13.63 35.6 11.27z"/>
      <path id="Path" fill="#3D454C" fill-rule="nonzero" d="M15.28,31.83 C14.7277153,31.83 14.28,32.2777153 14.28,32.83 C14.28,33.3822847 14.7277153,33.83 15.28,33.83 C15.8322847,33.83 16.28,33.3822847 16.28,32.83 C16.28,32.2777153 15.8322847,31.83 15.28,31.83 Z"/>
      <path id="Shape" fill="#3D454C" fill-rule="nonzero" d="M17,18.68 C19.3171501,18.5343737 21.4883805,17.4989189 23.06,15.79 C26.06,12.79 26.85,8.79 24.78,6.67 C23.5794508,5.58560788 21.8999626,5.20649091 20.35,5.67 C18.5624364,6.12579266 16.9357895,7.06717126 15.65,8.39 C12.65,11.39 11.87,15.39 13.94,17.52 C14.7636729,18.3005722 15.8658679,18.7183978 17,18.68 Z M17.07,9.8 C18.081213,8.73402558 19.3749522,7.97789917 20.8,7.62 C21.6415172,7.36401066 22.5537396,7.50378668 23.28,8 C21.6340619,8.46677834 20.1515279,9.38470245 19,10.65 C18.12,11.59 19.53,13 20.42,12.07 C21.3492232,11.0086573 22.5697481,10.2436559 23.93,9.87 C23.735498,11.598128 22.9263044,13.1987698 21.65,14.38 C19.48,16.55 16.6,17.33 15.36,16.09 C14.12,14.85 14.91,12 17.08,9.8 L17.07,9.8 Z"/>
      <path id="Path" fill="#3D454C" fill-rule="nonzero" d="M17.54 15.11C18.0922847 15.11 18.54 14.6622847 18.54 14.11 18.54 13.5577153 18.0922847 13.11 17.54 13.11 16.9877153 13.11 16.54 13.5577153 16.54 14.11 16.54 14.6622847 16.9877153 15.11 17.54 15.11zM39.23 43.82C38.6777153 43.82 38.23 44.2677153 38.23 44.82 38.23 45.3722847 38.6777153 45.82 39.23 45.82 39.7822847 45.82 40.23 45.3722847 40.23 44.82 40.23 44.2677153 39.7822847 43.82 39.23 43.82z"/>
    </g>
  </g>
</svg>
