<svg xmlns="http://www.w3.org/2000/svg" width="64" height="64" viewBox="0 0 64 64" style="background:#fff">
  <g id="Gewürze" fill="none" fill-rule="evenodd" stroke="none" stroke-width="1">
    <rect width="64" height="64" fill="#FFF"/>
    <g transform="translate(2 4)">
      <rect id="Rectangle" width="60" height="60" x=".11" y="0"/>
      <path id="Path" fill="#BAB41D" fill-rule="nonzero" d="M54.53,40 C49.34,33.35 43.28,25.84 33.91,26.4 C28.68,26.71 23.91,29.31 19.02,30.99 C14.13,32.67 9.08,33.38 6.71,38.26 L6.59,38.44 C3.92,42.28 3.94,51.23 8.3,54.13 C12.23,56.74 14.3,56.32 18.71,55.53 C22.2470109,54.907051 25.8288031,54.5726166 29.42,54.53 C36.53,54.43 43.42,56.53 50.42,56.580148 C57.42,56.63 57.63,44 54.53,40 Z" opacity=".5"/>
      <path id="Path" fill="#3D454C" fill-rule="nonzero" d="M39.2 45.57C38.7059191 45.8159531 38.5045164 46.4156857 38.75 46.91 38.9957883 47.3983422 39.588193 47.5987799 40.08 47.36 40.3243004 47.2438101 40.5111035 47.0335989 40.5977802 46.7773374 40.6844569 46.521076 40.6636111 46.2406306 40.54 46 40.2868406 45.513439 39.6890062 45.3215966 39.2 45.57zM33.07 38.65C32.8301027 38.7680802 32.6474852 38.9773153 32.5629313 39.2309771 32.4783774 39.4846389 32.4989303 39.7615974 32.62 40 32.7363297 40.2390365 32.9430506 40.4219154 33.1944883 40.5082298 33.4459259 40.5945442 33.7213838 40.5771894 33.96 40.46 34.4540809 40.2140469 34.6554836 39.6143143 34.41 39.12 34.2954768 38.8792 34.0895262 38.6941105 33.8379085 38.6058565 33.5862909 38.5176026 33.309847 38.5334941 33.07 38.65zM25.61 44.24C25.2476713 44.4199377 25.0294502 44.8004565 25.0571296 45.2040572 25.084809 45.6076579 25.3529354 45.9548225 25.7364368 46.0836103 26.1199383 46.2123981 26.5432568 46.0974351 26.8089284 45.7923479 27.0746 45.4872606 27.1302818 45.0521576 26.95 44.69 26.7040469 44.1959191 26.1043143 43.9945164 25.61 44.24z"/>
      <path id="Shape" fill="#3D454C" fill-rule="nonzero" d="M49.94,45.21 C49.384985,44.9457317 48.867198,44.6095065 48.4,44.21 C47.8349499,43.6734222 47.4505667,42.9745437 47.3,42.21 C47.0582871,41.1154252 46.4981062,40.116842 45.69,39.34 C44.9126142,38.5377994 43.9190824,37.9785036 42.83,37.73 C41.3001848,37.3743342 40.1056658,36.1798152 39.75,34.65 C39.34,33.18 38.75,31.91 35.88,30.04 C34.496312,29.1541184 32.723688,29.1541184 31.34,30.04 C28.45,31.9 27.9,33.17 27.5,34.64 C27.1427202,36.1725274 25.9436775,37.3676898 24.41,37.72 C23.3209176,37.9685036 22.3273858,38.5277994 21.55,39.33 C20.7418938,40.106842 20.1817129,41.1054252 19.94,42.2 C19.7894333,42.9645437 19.4050501,43.6634222 18.84,44.2 C18.3766735,44.599802 17.8621472,44.9360937 17.31,45.2 C15.36,46.28 12.93,47.62 12.93,53.2 C12.93,53.7522847 13.3777153,54.2 13.93,54.2 L53.31,54.2 C53.8622847,54.2 54.31,53.7522847 54.31,53.2 C54.31,47.63 51.89,46.29 49.94,45.21 Z M14.94,52.21 C15.17,48.65 16.67,47.83 18.25,46.95 C18.9828392,46.6025657 19.6574911,46.1438024 20.25,45.59 C21.0577139,44.8153293 21.6208889,43.821082 21.87,42.73 C22.0120229,41.9646029 22.3937471,41.2641917 22.96,40.73 C23.4961685,40.1644194 24.1952276,39.7799369 24.96,39.63 C27.1698614,39.0888724 28.893812,37.3610651 29.43,35.15 C29.71,34.15 29.95,33.3 32.43,31.69 C33.1584018,31.2360732 34.0815982,31.2360732 34.81,31.69 C37.29,33.29 37.53,34.15 37.81,35.14 C38.3457911,37.3548814 40.0751186,39.0842089 42.29,39.62 C43.8198152,39.9756658 45.0143342,41.1701848 45.37,42.7 C45.6123078,43.8074605 46.1799049,44.8172959 47,45.6 C47.5911164,46.1662388 48.2656351,46.6384019 49,47 C50.58,47.88 52.08,48.7 52.31,52.26 L14.94,52.21 Z"/>
      <path id="Shape" fill="#3D454C" fill-rule="nonzero" d="M14.82,45.19 C14.82,44.6377153 14.3722847,44.19 13.82,44.19 L9.35,44.19 C8.17701249,37.2810027 8.11287442,30.2291898 9.16,23.3 L9.78,19.12 L24.49,19.12 C25.0422847,19.12 25.49,18.6722847 25.49,18.12 C25.49,17.5677153 25.0422847,17.12 24.49,17.12 L10.08,17.12 L10.37,15.21 L34,15.21 L41.79,23 L41.79,23.28 C42.4110963,27.4191815 42.6387795,31.6078836 42.47,35.79 C42.47,36.3422847 42.9177153,36.79 43.47,36.79 L43.47,36.79 C44.0222847,36.79 44.47,36.3422847 44.47,35.79 C44.649023,31.5154148 44.4280618,27.2334533 43.81,23 L43.72,22.4 C43.6890151,22.1881743 43.5908696,21.9918833 43.44,21.84 L35.1,13.51 L28.1,6.51 C27.9112812,6.32281349 27.655803,6.21846324 27.39,6.21998326 L9.51,6.21998326 C8.95771525,6.21998326 8.51,6.66771525 8.51,7.22 L8.51,14.14 L7.18,23 C6.06263,30.4246428 6.17750503,37.9827445 7.52,45.37 C7.60796733,45.8510925 8.03099627,46.1979763 8.52,46.1901348 L13.83,46.1901348 C14.3783755,46.184516 14.8200274,45.738403 14.82,45.19 Z M10.51,8.19 L27,8.19 L32,13.19 L10.51,13.19 L10.51,8.19 Z"/>
    </g>
  </g>
</svg>
