<svg xmlns="http://www.w3.org/2000/svg" width="64" height="64" viewBox="0 0 64 64" style="background:#fff">
  <g id="Glasnudeln" fill="none" fill-rule="evenodd" stroke="none" stroke-width="1">
    <rect width="64" height="64" fill="#FFF"/>
    <g id="26-4-Glasnudeln" transform="translate(2 6)">
      <g id="Layer_2">
        <rect id="Rectangle" width="60" height="60" x="0" y="0"/>
      </g>
      <g id="Layer_1" transform="translate(4 5)">
        <path id="Path" fill="#B3B3B3" fill-opacity=".5" d="M48.89,10.17 C49.4525655,12.3297075 49.8701627,14.5245984 50.14,16.74 C50.58,20.16 50.75,23.64 50.88,27.07 C51,29.89 51.12,32.79 51.12,35.68 C51.12,37.79 51.06,39.89 50.89,41.95 C50.51,46.6 46.82,50.02 42.66,49.59 C38.5,49.16 35.44,45 35.82,40.4 L35.82,27.81 C35.7,24.94 35.58,22.02 35.22,19.15 C35.0295299,17.6144778 34.7321409,16.0941185 34.33,14.6 C34.13,14.2 33.58,13.04 33.33,12.36 C31.76,8.04 33.63,3.11 37.5,1.36 C40.9683578,-0.136391369 45.0030306,1.31049562 46.73,4.67 C47.1112427,4.58027084 47.5101648,4.60108417 47.88,4.73 C49.1548176,5.26497205 49.8195649,6.67648085 49.42,8 C49.23,8.71 49.06,9.43 48.89,10.15 L48.89,10.17 Z"/>
        <path id="Shape" fill="#3C454E" d="M48.21,35.08 C47.57,29.13 47.86,23.08 47.63,17.14 C47.63,17.14 47.63,17.14 47.63,17.09 L48,17.09 C48.4876415,16.9551739 48.8142032,16.4972276 48.7827941,15.9922664 C48.751385,15.4873052 48.3705907,15.0733571 47.87,15 L46.87,15 C47.34,11.85 47.87,6.62 48.11,3.9 C48.1591386,3.51502697 47.9939636,3.13397816 47.6794106,2.90665627 C47.3648576,2.67933439 46.9512229,2.64208766 46.6011198,2.809559 C46.2510167,2.97703033 46.0204258,3.32244146 46,3.71 C45.75,6.51 45.2,12.02 44.71,15.06 L44.55,15.06 C44.55,12.06 45,6.57 44.81,3.81 C44.7945966,3.52686104 44.6663928,3.26169758 44.454045,3.07377915 C44.2416972,2.88586072 43.9629106,2.79085581 43.68,2.81 C43.0926046,2.84751149 42.6457983,3.35240258 42.68,3.94 C42.87,6.69 42.42,12.19 42.41,15.13 L42.09,15.13 C42.4330819,10.8265194 42.3627602,6.50005743 41.88,2.21 C41.8246238,1.83487112 41.5733253,1.51778058 41.2207661,1.3781733 C40.8682068,1.23856603 40.4679491,1.2976517 40.1707661,1.5331733 C39.873583,1.76869491 39.7246238,2.14487113 39.78,2.52 C40.2668816,6.74944583 40.340563,11.0162655 40,15.26 L39.74,15.26 C39.8370418,10.6674777 39.6232201,6.0736519 39.1,1.51 C39.0040143,0.947784705 38.4803721,0.56230892 37.9150251,0.637688517 C37.3496782,0.713068114 36.9453271,1.22227633 37,1.79 C37.5165289,6.31058832 37.7236776,10.8611791 37.62,15.41 L37.42,15.41 C37.13,11.89 36.42,6.1 36.08,3.11 C36.0977909,2.69165337 35.8676435,2.30203864 35.492664,2.11570346 C35.1176845,1.92936828 34.6681546,1.98123711 34.3454641,2.24807268 C34.0227735,2.51490825 33.8874035,2.94669806 34,3.35 C34.28,5.96 34.88,10.73 35.21,14.22 L35.21,14.22 C35.1161116,13.640101 34.569899,13.2461117 33.99,13.3400001 C33.410101,13.4338885 33.0161116,13.980101 33.11,14.56 C34.39,22.56 34.24,31.56 35.02,39.39 C35.13,40.56 35.09,43.74 35.26,45.89 C35.2828667,46.7207985 35.4556414,47.5406316 35.77,48.31 C36.6197167,49.4196324 37.9141599,50.0997636 39.31,50.17 C42.56,50.63 47.21,49.7 48.31,49.05 C48.645292,48.8354169 48.9042693,48.5204446 49.05,48.15 C49.3290369,47.3508805 49.4512709,46.5054291 49.41,45.66 C49.36,42.62 48.49,37.69 48.21,35.08 Z M47.05,47.28 C45.0355267,47.9424643 42.9190771,48.2404604 40.8,48.16 C40.0389021,48.1475527 39.2826176,48.0366309 38.55,47.83 C38.1518025,47.7532427 37.7958173,47.5325318 37.55,47.21 C37.39528,46.7253608 37.3209634,46.2186568 37.33,45.71 C37.16,43.55 37.2,40.35 37.08,39.18 C36.41,32.38 36.42,24.78 35.62,17.69 C38.9,17.38 42.21,17.27 45.51,17.16 C45.51,17.16 45.51,17.16 45.51,17.22 C45.74,23.22 45.45,29.31 46.1,35.3 C46.37,37.86 47.23,42.69 47.24,45.65 C47.2250305,46.1978856 47.1614476,46.7433603 47.05,47.28 L47.05,47.28 Z"/>
        <path id="Path" fill="#CCC" fill-opacity=".5" fill-rule="nonzero" d="M27.86,38.08 C25.99,36.26 24.16,36.77 21.74,36.9 C19.3393296,37.0600003 16.9306704,37.0600003 14.53,36.9 C13.8569039,36.8666512 13.1878439,36.7763281 12.53,36.63 C13.2797711,34.4630221 13.2797711,32.1069779 12.53,29.94 C11.989218,28.671107 11.3190054,27.4613732 10.53,26.33 C9.85,25.25 9.53,25.06 10.09,23.87 C10.42,23.2 11.09,22.57 11.51,21.87 C11.93,21.17 11.87,19.87 11.05,19.56 C8.53,18.56 6.05,20.38 5.24,22.76 C4.66924228,24.6271728 4.69020072,26.6252106 5.3,28.48 C5.52901955,29.3398294 5.8197743,30.1820156 6.17,31 C6.29,31.26 6.38,31.48 6.46,31.64 C5.67340856,32.7834478 5.31896851,34.1693084 5.46,35.55 C4.09702893,35.4537457 2.72987803,35.6656541 1.46,36.17 C0.46,36.63 0.46,38.37 1.01,39.17 C3.75,43.5 9.5,44.83 14.22,45.62 C18.61,46.35 25.66,47.73 28.52,43.5 C29.531175,41.7574447 29.2878266,39.5591972 27.92,38.08 L27.86,38.08 Z"/>
        <path id="Path" fill="#3D454C" fill-rule="nonzero" d="M15.8,43 L22.17,43 C22.7222847,43 23.17,42.5522847 23.17,42 C23.17,41.4477153 22.7222847,41 22.17,41 L15.8,41 C15.2477153,41 14.8,41.4477153 14.8,42 C14.8,42.5522847 15.2477153,43 15.8,43 Z"/>
        <path id="Shape" fill="#3D454C" fill-rule="nonzero" d="M27.62,37.64 L11.28,37.64 C11.3952502,37.0160495 11.5659265,36.4036227 11.79,35.81 C12.1341181,34.9565214 12.3497963,34.056739 12.43,33.14 C12.3591431,32.2858989 12.1320436,31.4520706 11.76,30.68 L11.76,30.68 L27.62,30.68 C28.1722847,30.68 28.62,30.2322847 28.62,29.68 C28.62,29.1277153 28.1722847,28.68 27.62,28.68 L11.32,28.68 C11.41,28.21 11.6,27.54 11.76,26.95 L27.76,25.5 C28.0330774,25.4825683 28.2870831,25.3539965 28.4628158,25.1442511 C28.6385485,24.9345056 28.7206555,24.6619106 28.69,24.39 C28.6701506,24.1167564 28.5390665,23.8636219 28.3273676,23.6897264 C28.1156687,23.5158309 27.8418959,23.4364043 27.57,23.47 L12.31,24.79 C12.3795311,24.4777672 12.4197061,24.1597154 12.43,23.84 C12.43,23.2877153 11.9822847,22.84 11.43,22.84 C10.8777153,22.84 10.43,23.2877153 10.43,23.84 C10.3824073,24.2343995 10.2953031,24.6230184 10.17,25 L7.77,25.21 C7.77441198,25.1333968 7.77441198,25.0566032 7.77,24.98 C7.77,24.4277153 7.32228475,23.98 6.77,23.98 C6.21771525,23.98 5.77,24.4277153 5.77,24.98 C5.76231056,25.1221623 5.7388329,25.2630283 5.7,25.4 L2,25.73 C1.44771528,25.7576143 1.02238583,26.2277153 1.05000006,26.78 C1.0776143,27.3322847 1.54771527,27.7576142 2.1,27.73 L2.19,27.73 L4.87,27.49 C4.74363883,27.8467741 4.65319082,28.2152659 4.6,28.59 L2.14,28.59 C1.58771525,28.59 1.14,29.0377153 1.14,29.59 C1.14,30.1422847 1.58771525,30.59 2.14,30.59 L4.94,30.59 C5.04,30.86 5.14,31.13 5.25,31.4 C5.49459316,31.9268038 5.66294862,32.4857439 5.75,33.06 C5.65805138,33.7441724 5.48690336,34.4153411 5.24,35.06 C4.93052367,35.8631952 4.72877007,36.7038353 4.64,37.56 L2.1,37.56 C1.78699196,37.5576284 1.4909314,37.701958 1.3,37.95 C1.1004098,38.1925013 1.0263449,38.5146837 1.1,38.82 C1.979063,42.7903989 4.48173843,46.210722 8,48.25 L8,49.68 C8,50.2322847 8.44771525,50.68 9,50.68 L20.67,50.68 C21.2222847,50.68 21.67,50.2322847 21.67,49.68 L21.67,48.25 C25.1771832,46.2319837 27.6848191,42.8437763 28.59,38.9 C28.6664104,38.5962477 28.5960871,38.2742413 28.4,38.03 C28.2133641,37.7875073 27.9259757,37.6438131 27.62,37.64 Z M7.18,35.78 C7.50726782,34.9298479 7.71263544,34.037677 7.79,33.13 C7.72065242,32.2908039 7.50045855,31.4710052 7.14,30.71 L7.14,30.66 L9.59,30.66 C9.67666667,30.92 9.77666667,31.18 9.89,31.44 C10.1413041,31.9790263 10.3130926,32.5516547 10.4,33.14 C10.3032381,33.8253189 10.1253223,34.4966996 9.87,35.14 C9.55872357,35.9403961 9.35038918,36.7770939 9.25,37.63 L6.68,37.63 C6.79364964,37.0002132 6.96092521,36.3812936 7.18,35.78 L7.18,35.78 Z M9.59,27.09 C9.44078301,27.5907458 9.33045507,28.1022663 9.26,28.62 L6.71,28.62 C6.82700975,28.1902239 6.97403762,27.7691895 7.15,27.36 L7.15,27.36 L9.59,27.09 Z M20.2,46.73 C19.8533398,46.8998219 19.6353804,47.2540059 19.64,47.64 L19.64,48.64 L10.07,48.64 L10.07,47.64 C10.076486,47.2562552 9.86277162,46.902655 9.52,46.73 C6.6740406,45.2611861 4.50104539,42.7552608 3.45,39.73 L26.27,39.73 C25.2189546,42.7552608 23.0459594,45.2611861 20.2,46.73 Z"/>
        <path id="Path" fill="#3D454C" fill-rule="nonzero" d="M11.68,43.000005 C11.8411401,43.0005276 11.9996523,42.9591766 12.14,42.88 C12.611235,42.7024598 12.8769408,42.2022132 12.7601892,41.7123642 C12.6434376,41.2225153 12.1806555,40.8958979 11.68,40.95 C11.1277153,40.95 10.68,41.3977153 10.68,41.95 C10.6810533,42.1021805 10.7151743,42.2523133 10.78,42.39 C10.9336022,42.7529043 11.2860136,42.991761 11.68,43.000005 Z"/>
      </g>
    </g>
  </g>
</svg>
