<svg xmlns="http://www.w3.org/2000/svg" width="64" height="64" viewBox="0 0 64 64" style="background:#fff">
  <g id="Gluten-(Weizen)" fill="none" fill-rule="evenodd" stroke="none" stroke-width="1">
    <rect width="64" height="64" fill="#FFF"/>
    <g transform="translate(2 6)">
      <rect id="Rectangle" width="60" height="60" x=".79" y="0"/>
      <path id="Path" fill="#EBE53F" fill-rule="nonzero" d="M42.65,35.18 C41.8302808,34.5452959 40.8035272,34.2386959 39.77,34.32 C41.0675445,32.9007729 41.9949421,31.1833699 42.47,29.32 C42.7374136,28.2131768 42.2762309,27.0582151 41.32,26.44 C40.6100932,26.1346396 39.8194248,26.0713861 39.07,26.26 C41.34,23.9 43.59,20.55 43.49,17.4 C43.5029139,16.9938157 43.2967228,16.6119804 42.95,16.4 C40.84,15.4 36.95,18.09 35.1,19.07 L35.03,19.07 C35.03,18.52 34.95,17.98 34.92,17.44 C34.7891727,14.275993 34.2307725,11.1442423 33.26,8.13 C32.46,5.71 29.62,5.86 28.9,8.24 C27.7212081,12.0952901 27.200584,16.1216755 27.36,20.15 C27.1,19.94 26.83,19.72 26.56,19.48 C25.16,18.24 23.87,16.88 22.4,15.71 C21.19,14.71 20.31,16.55 20.4,17.56 C20.5663972,20.4690206 21.6125871,23.2588603 23.4,25.56 C24.0185872,26.3766775 24.6864984,27.1547941 25.4,27.89 C24.0630552,27.1267876 22.5588134,26.7043635 21.02,26.66 C19.8,26.66 19.39,28.5 19.6,29.48 L19.6,29.48 C19.6,29.48 19.6,29.55 19.6,29.58 L19.6,29.58 C19.6274122,29.7058978 19.664181,29.8295745 19.71,29.95 C19.9130267,30.6670634 20.2053143,31.355787 20.58,32 C21.170838,33.1236109 21.8673139,34.1884155 22.66,35.18 C21.9426024,35.0832261 21.2124729,35.1586385 20.53,35.4 C19.926416,35.793381 19.5972513,36.4943081 19.68,37.21 C20.31,43.4 26.81,48.8 32.92,49.21 C34.77,49.33 35.86,47.82 36.26,45.88 C39.32,43.88 42.35,41.37 43.26,38.06 C43.6283566,37.0626409 43.391078,35.9423746 42.65,35.18 L42.65,35.18 Z" opacity=".5"/>
      <path id="Shape" fill="#3D454C" fill-rule="nonzero" d="M20.12,36.07 C20.12,36.13 20.12,36.19 20.12,36.25 C20.1374727,41.9649763 24.4987879,46.7290743 30.19,47.25 L30.19,50.17 C30.19,50.7222847 30.6377153,51.17 31.19,51.17 C31.7422847,51.17 32.19,50.7222847 32.19,50.17 L32.19,47.26 C37.8794937,46.7387436 42.2377006,41.9733087 42.25,36.26 C42.2549626,36.2001026 42.2549626,36.1398974 42.25,36.08 L41.25,36.08 L42.25,36.08 C42.2361988,35.7866229 42.1024116,35.5118167 41.88,35.32 C41.3421913,34.9071958 40.7499244,34.5706805 40.12,34.32 C41.5067165,32.4248099 42.2560336,30.1383425 42.26,27.79 C42.2643277,27.7200669 42.2643277,27.6499331 42.26,27.58 C42.2550608,27.2844312 42.1196028,27.0061931 41.89,26.82 C41.3542596,26.404087 40.7615362,26.0673124 40.13,25.82 C41.5223586,23.9277105 42.272298,21.6393439 42.2700053,19.29 L42.2700053,13.79 C42.2700053,13.2377153 41.8222847,12.79 41.27,12.79 C40.7177153,12.79 40.27,13.2377153 40.27,13.79 L40.27,17.29 C39.3679227,16.8827604 38.3897401,16.6714457 37.4,16.67 C37.2034585,16.6600763 37.0065415,16.6600763 36.81,16.67 C36.5,11.93 33.91,9.76 32.21,9.11 L32.21,6.05 C32.21,5.49771525 31.7622847,5.05 31.21,5.05 C30.6577153,5.05 30.21,5.49771525 30.21,6.05 L30.21,9.15 C28.51,9.79 25.92,11.97 25.6,16.71 C25.4034676,16.6997246 25.2065324,16.6997246 25.01,16.71 C24.0204223,16.7129507 23.0425506,16.9241982 22.14,17.33 L22.14,13.83 C22.14,13.2777153 21.6922847,12.83 21.14,12.83 C20.5877153,12.83 20.14,13.2777153 20.14,13.83 L20.14,19.25 C20.137702,21.5993439 20.8876414,23.8877105 22.28,25.78 C21.6514802,26.0271663 21.062038,26.3639905 20.53,26.78 C20.3051211,26.9878424 20.1690186,27.274374 20.15,27.58 C20.15,27.63 20.15,27.69 20.15,27.75 C20.1539664,30.0983425 20.9032835,32.3848099 22.29,34.28 C21.663234,34.5308119 21.0742883,34.8673522 20.54,35.28 C20.3042083,35.4800006 20.1539244,35.7626775 20.12,36.07 Z M31.12,10.92 C31.7,10.98 34.57,12.3 34.76,17.15 C33.2472674,17.7350295 31.9732201,18.8084671 31.14,20.2 C30.3007126,18.8097684 29.024081,17.7371165 27.51,17.15 C27.75,12.3 30.62,11 31.16,10.92 L31.12,10.92 Z M24.2,25 C22.9212477,23.4527332 22.1899623,21.5260775 22.12,19.52 C22.9726799,18.9534972 23.9763661,18.6572703 25,18.67 C27.86798,18.6699947 30.1944847,20.9920253 30.2,23.86 C30.2,24.4122847 30.6477153,24.86 31.2,24.86 C31.7522847,24.86 32.2,24.4122847 32.2,23.86 C32.2055026,20.9959245 34.5259245,18.6755026 37.39,18.67 C38.410842,18.6653014 39.4099622,18.9646893 40.26,19.53 C40.1793682,21.5361773 39.4375163,23.4593669 38.15,25 C38.0964042,25.0687687 38.0557443,25.1467001 38.03,25.23 C37.81,25.23 37.59,25.17 37.37,25.17 C34.8251136,25.1696192 32.4701652,26.5163909 31.18,28.71 C29.8862211,26.5262725 27.5382087,25.1850939 25,25.18 C24.78,25.18 24.57,25.18 24.35,25.24 C24.3116309,25.1532933 24.2611252,25.0724842 24.2,25 Z M24.2,33.51 C22.9219898,31.9661855 22.1906559,30.0429181 22.12,28.04 C22.9718125,27.4705334 23.975406,27.1708492 25,27.18 C27.8718807,27.18 30.2,29.5081193 30.2,32.38 C30.2,32.9322847 30.6477153,33.38 31.2,33.38 C31.7522847,33.38 32.2,32.9322847 32.2,32.38 C32.1999947,29.51202 34.5220253,27.1855153 37.39,27.18 C38.4119688,27.177653 39.411348,27.4806008 40.26,28.05 C40.187263,30.054258 39.4522749,31.9778872 38.17,33.52 C38.1164042,33.5887687 38.0757443,33.6667001 38.05,33.75 C37.83,33.75 37.61,33.75 37.39,33.75 C34.8451136,33.7496192 32.4901652,35.0963909 31.2,37.29 C29.9176551,35.0770709 27.5576069,33.7105268 25,33.7 C24.78,33.7 24.57,33.7 24.35,33.7 C24.3072263,33.6343294 24.2568808,33.5739148 24.2,33.52 L24.2,33.51 Z M25,35.6999979 C27.86798,35.6999979 30.1944847,38.0220253 30.2,40.89 C30.2,41.4422847 30.6477153,41.89 31.2,41.89 C31.7522847,41.89 32.2,41.4422847 32.2,40.89 C32.2047188,38.9798297 33.2563465,37.226021 34.9390721,36.3220257 C36.6217977,35.4180305 38.6646922,35.5093973 40.26,36.56 C40.0326124,41.398336 36.0436764,45.2042066 31.2,45.2042066 C26.3563236,45.2042066 22.3673876,41.398336 22.14,36.56 C22.9879749,35.9982284 23.9828236,35.6990781 25,35.6999979 Z"/>
      <path id="Path" fill="#3D454C" fill-rule="nonzero" d="M46.62,19.5 C46.3752731,19.2391961 46.0099988,19.1287636 45.6617726,19.2103014 C45.3135463,19.2918392 45.0352719,19.5529598 44.9317726,19.8953014 C44.8282733,20.2376431 44.9152731,20.6091961 45.16,20.87 C52.2394221,28.4725003 51.9577254,40.335418 44.5254281,47.5933231 C37.0931309,54.8512282 25.2268691,54.8512282 17.7945719,47.5933231 C10.3622746,40.335418 10.0805779,28.4725003 17.16,20.87 C17.4047269,20.6091961 17.4917267,20.2376431 17.3882274,19.8953015 C17.2847281,19.5529598 17.0064537,19.2918393 16.6582274,19.2103015 C16.3100012,19.1287637 15.9447269,19.2391961 15.7,19.5 C7.86052068,27.8910421 8.15760409,41.0069994 16.3689717,49.0344813 C24.5803393,57.0619632 37.6996607,57.0619632 45.9110283,49.0344813 C54.1223959,41.0069994 54.4194793,27.8910421 46.58,19.5 L46.62,19.5 Z"/>
    </g>
  </g>
</svg>
