<svg xmlns="http://www.w3.org/2000/svg" width="64" height="64" viewBox="0 0 64 64" style="background:#fff">
  <g id="Gnocchi-(Kartoffel}" fill="none" fill-rule="evenodd" stroke="none" stroke-width="1">
    <rect width="64" height="64" fill="#FFF"/>
    <g transform="translate(2 4)">
      <rect id="Rectangle" width="60" height="60" x=".7" y="0"/>
      <path id="Path" fill="#C17953" fill-rule="nonzero" d="M51.62,26.39 C49.44,24.81 48.68,28.32 48.86,29.79 C49.3670414,33.6661041 47.4351787,37.4543041 44,39.32 C42.5556087,40.1956866 40.9976914,40.8686531 39.37,41.32 C36.78,42 35.66,41.19 33.48,40.08 C27.32,36.96 26.22,49.08 27.68,52.3 C32.76,63.49 44.96,55.3 50.48,48.62 C55.06,43.11 58.76,31.55 51.62,26.39 Z" opacity=".5"/>
      <path id="Path" fill="#EBE53F" fill-rule="nonzero" d="M40.77 17.89C40.6668019 17.4877361 40.4064963 17.1437092 40.0474368 16.9350411 39.6883774 16.7263731 39.2605995 16.670519 38.86 16.78 36.86 17.47 35.48 19.65 33.75 20.78 31.8074337 22.0611697 29.5368779 22.7555292 27.21 22.78 20.21 22.91 21.42 39.28 28.83 36.99 35.89 34.86 44 25.79 40.77 17.89zM18.47 16.56C17.6767999 15.3671988 16.5139183 14.4678101 15.16 14L14.93 13.91 14.86 13.85 14.18 13.26 14 13.08 13.19 12.17C13.1346809 12.1049677 13.0707598 12.0477751 13 12L13 12 12.85 11.76 12.5 11.12C12.34 10.85 12.36 10.93 12.4 11.04L12.4 10.95C11.86 9.69 10.66 8.89 9.4 9.85 6.4 12.2 6.95 17.78 8.3 20.85 9.76 24.18 14.24 29.01 17.91 25.79 20.45 23.55 20 19.12 18.47 16.56z" opacity=".5"/>
      <path id="Path" fill="#3D454C" fill-rule="nonzero" d="M36.88 46.33L36.88 46.33C36.1679033 46.3483456 35.4681214 46.1419099 34.88 45.74 34.4899625 45.3522764 33.8600375 45.3522764 33.47 45.74 33.0822764 46.1300375 33.0822764 46.7599625 33.47 47.15 34.4213858 47.9242374 35.6134425 48.3416342 36.84 48.33L36.84 48.33C37.3922847 48.33 37.84 47.8822847 37.84 47.33 37.84 46.7777153 37.3922847 46.33 36.84 46.33L36.88 46.33zM46.94 44.59C46.2478174 44.5991259 45.5699002 44.3929552 45 44 44.6078778 43.6078778 43.9721222 43.6078778 43.58 44 43.1878778 44.3921222 43.1878778 45.0278778 43.58 45.42 44.5354066 46.1928507 45.7312535 46.6067978 46.96 46.59L46.96 46.59C47.5122847 46.59 47.96 46.1422847 47.96 45.59 47.9600537 45.3212816 47.8519559 45.0638492 47.6600714 44.8757271 47.4681869 44.6876051 47.2086646 44.5846256 46.94 44.59zM43.81 40C44.3622847 40 44.81 39.5522847 44.81 39 44.81 38.4477153 44.3622847 38 43.81 38L43.81 38C43.0979033 38.0183456 42.3981214 37.8119099 41.81 37.41 41.4132397 37.0702232 40.8218058 37.0930677 40.4524368 37.4624368 40.0830677 37.8318058 40.0602232 38.4232397 40.4 38.82 41.3601735 39.5993651 42.5634503 40.0169729 43.8 40L43.81 40zM51.05 33.57C50.5787605 33.6136093 50.110826 33.4576312 49.76 33.14 49.3678778 32.7506393 48.7343608 32.7528779 48.345 33.145 47.9556393 33.5371222 47.9578779 34.1706392 48.35 34.56 49.0375071 35.2187684 49.9579991 35.5783356 50.91 35.56 51.0497398 35.5720716 51.1902602 35.5720716 51.33 35.56 51.6872656 35.5099828 51.9907088 35.2731661 52.1260255 34.9387565 52.2613421 34.6043468 52.2079744 34.2231489 51.9860254 33.9387564 51.7640765 33.6543639 51.4072656 33.5099828 51.05 33.56L51.05 33.57z"/>
      <path id="Shape" fill="#3D454C" fill-rule="nonzero" d="M51,26.32 C45.34,24.45 42,27.62 39.54,31 C37.9203824,32.9022003 36.0577629,34.5832648 34,36 C33.54,36.34 33.17,36.62 32.95,36.81 C27.76,41.28 26.63,48.16 26.59,48.4 C26.16,50.4 26.75,54.72 32.07,56.48 C32.9459618,56.7777185 33.8648269,56.93 34.79,56.93 C38.19,56.93 40.9,54.93 42.33,53.73 C43.3891463,53.6598322 44.4168841,53.3412335 45.33,52.8 C49.44,50.19 53.4,47.06 56.57,37.49 C58.0845057,32.8696573 55.601612,27.8904971 51,26.32 Z M54.73,36.91 C51.73,45.85 48.26,48.65 44.32,51.15 C42.7237518,51.9174686 40.8860212,52.0111569 39.22,51.41 C38.9671987,51.3067639 38.6831759,51.3113983 38.4338773,51.4228272 C38.1845787,51.5342562 37.9916911,51.7427862 37.9,52 C37.7209098,52.5218843 37.998358,53.0902055 38.52,53.27 C38.7556116,53.3569938 38.9960038,53.4304469 39.24,53.49 C37.3473188,54.8566331 34.9272695,55.2667483 32.69,54.6 C27.86,52.99 28.46,49.24 28.55,48.77 C28.55,48.71 29.62,42.31 34.24,38.34 C34.44,38.17 34.78,37.92 35.19,37.6 C37.433131,36.0587516 39.4522687,34.2146057 41.19,32.12 C43.19,29.51 45.11,27.74 47.85,27.74 C48.7122069,27.7512745 49.5667863,27.9032748 50.38,28.19 C53.9773585,29.408675 55.9066114,33.3119431 54.69,36.91 L54.73,36.91 Z"/>
      <path id="Path" fill="#3D454C" fill-rule="nonzero" d="M27.31,40.25 C27.8622847,40.25 28.31,39.8022847 28.31,39.25 C28.31,38.6977153 27.8622847,38.25 27.31,38.25 L27.31,38.25 C25.6586288,38.3148706 24.0520011,37.7047132 22.86,36.56 C21.5124202,35.2130354 20.7721322,33.3749543 20.81,31.47 L20.81,24.41 C20.8040982,22.2972677 21.77486,20.3003774 23.44,19 L26.79,16.47 C27.584918,15.8685763 28.5038461,15.4518134 29.48,15.25 L35.15,14.09 C35.3807444,14.0405433 35.6146375,14.00713 35.85,13.99 C35.8454571,14.029871 35.8454571,14.070129 35.85,14.11 C36.0706061,14.5821698 36.0706061,15.1278302 35.85,15.6 C35.6625467,16.0392221 35.2999666,16.3800474 34.85,16.54 L33.44,16.82 C32.7644056,17.005468 32.0444278,16.754868 31.63,16.19 C31.4297292,15.8720584 31.0681283,15.6932225 30.6938929,15.7270321 C30.3196575,15.7608417 29.9959631,16.0015894 29.8559176,16.3502762 C29.7158721,16.698963 29.7831169,17.0967263 30.03,17.38 C30.7266551,18.3207896 31.8293603,18.8739986 33,18.87 C33.3113101,18.8709529 33.6211423,18.8271722 33.92,18.74 L35.33,18.47 C37.1212685,17.9712363 38.2641341,16.2205546 38,14.38 C38.5,14.51 39,14.62 39.43,14.72 C41.05,15.06 43.2,16.05 43.2,20.72 L43.2,23.78 C43.2,24.3322847 43.6477153,24.78 44.2,24.78 C44.7522847,24.78 45.2,24.3322847 45.2,23.78 L45.2,20.72 C45.2,15.07 42.28,13.27 39.84,12.72 C39.1302255,12.5846078 38.4290177,12.4076363 37.74,12.19 L37.19,12 L37,12 C36.2617183,11.9192229 35.5151947,11.9596008 34.79,12.12 L29.12,13.28 C27.8546499,13.5436669 26.6630184,14.0831448 25.63,14.86 L22.28,17.39 C20.0951369,19.0567356 18.806186,21.642024 18.79,24.39 L18.79,31.45 C18.7355971,33.8988989 19.681709,36.2641787 21.41,38 C22.9072597,39.4535696 24.9132249,40.264568 27,40.2600192 L27.31,40.25 Z"/>
      <path id="Shape" fill="#3D454C" fill-rule="nonzero" d="M13.64,7.12 L13.82,7.12 C14.0232062,8.81072731 15.1964066,10.2263891 16.82,10.74 L17.82,10.99 C18.127079,11.0691687 18.4428802,11.1094838 18.76,11.11 C19.5587753,11.1187052 20.3408646,10.8812853 21,10.43 C21.736189,9.94174139 22.2638889,9.19654344 22.48,8.34 C22.8,8.56 23.11,8.8 23.41,9.03 L26.86,12 C27.1315218,12.2322226 27.5063077,12.30195 27.8431793,12.1829165 C28.1800509,12.063883 28.4278295,11.7741726 28.4931793,11.4229165 C28.5585291,11.0716604 28.4315218,10.7122226 28.16,10.48 L25,7.73 L24.62,7.44 C23.7973895,6.740951 22.8557242,6.1955981 21.84,5.83 C21.7403585,5.77734855 21.6318912,5.74345251 21.52,5.73 L21.46,5.73 L16.05,5.13 C15.2645526,5.01005799 14.4654474,5.01005799 13.68,5.13 L13.4,5.13 L13.27,5.13 C10.18,5.86 5.69999961,9.28 5.69999961,13.62 L5.69999961,20.45 C5.69885644,24.2585401 8.21977172,27.607523 11.88,28.66 L16.19,29.88 C16.283081,29.8897052 16.376919,29.8897052 16.47,29.88 C17.0222847,29.9545584 17.5304415,29.5672847 17.605,29.015 C17.6795584,28.4627153 17.2922847,27.9545584 16.74,27.88 L12.43,26.67 C9.65380799,25.8671679 7.7318474,23.3397694 7.69999961,20.45 L7.69999961,13.62 C7.69999961,10.24 11.62,7.58 13.64,7.12 Z M20.64,7.62 L20.64,7.62 C20.567971,8.07789299 20.3066632,8.48437187 19.92,8.74 C19.4820034,9.04166437 18.9339722,9.13665646 18.42,9 L17.42,8.76 C16.6563769,8.50148139 16.0860479,7.85891076 15.92,7.07 L20.64,7.62 Z"/>
    </g>
  </g>
</svg>
