<svg xmlns="http://www.w3.org/2000/svg" width="64" height="64" viewBox="0 0 64 64" style="background:#fff">
  <g id="Goldhirse" fill="none" fill-rule="evenodd" stroke="none" stroke-width="1">
    <rect width="64" height="64" fill="#FFF"/>
    <g transform="translate(2 6)">
      <rect id="Rectangle" width="60" height="60" x="0" y="0"/>
      <path id="Path" fill="#EBE53F" fill-rule="nonzero" d="M22.83 14C22.6513813 12.898265 22.1092717 11.8879699 21.29 11.13L21.22 11.07C21.1886772 11.0409129 21.1552534 11.0141738 21.12 10.99L21.12 10.99C20.3196466 10.2246328 19.4012121 9.59320909 18.4 9.12 16.53 8.41 15.23 10.38 14.84 11.92 14.5473618 13.1609192 14.602726 14.4585171 15 15.67 15.0648182 16.7217147 15.4101126 17.7368802 16 18.61 16.35464 19.2053871 16.8714487 19.6875107 17.49 20 17.8988083 20.1208931 18.3237704 20.1782293 18.75 20.17L19.9 20.17 20.74 19.98C21.1774495 19.7918125 21.5496537 19.4787435 21.81 19.08 22.3986351 18.3422602 22.7723431 17.4564337 22.89 16.52 22.9930131 15.6815695 22.972799 14.8325779 22.83 14L22.83 14zM38.32 17.71C38.23 16.13 37.62 13.89 36.07 13.13 35.555908 12.4979429 34.7847308 12.1307157 33.97 12.13L31.06 12.61C28.68 13 27.67 15.67 27.78 17.88 27.8366315 19.3747683 28.3574152 20.8147876 29.27 22 30.0367476 23.0874745 31.3564819 23.6425393 32.67 23.43 33.3714389 23.3059267 34.0473388 23.0659822 34.67 22.72L35.16 22.72C37.48 22.5 38.42 19.69 38.32 17.71zM52.1 11C51.76 9.58 50.89 8.06 49.46 8 49.0018653 7.78400649 48.4766975 7.75882721 48 7.93 47.7742772 7.98722729 47.5585049 8.0782562 47.36 8.2 46.5061033 8.56104972 45.6804589 8.98557135 44.89 9.47 44.08 9.66 43.4 10.94 43.16 11.6 42.7728742 12.7255784 42.6968657 13.9348052 42.94 15.1 43.1103134 15.9384542 43.4731962 16.7258414 44 17.4 44 17.4 44 17.45 44 17.48 44.3323496 18.4735285 45.0542638 19.2892915 46 19.74 46.8832725 20.0436271 47.8622664 19.8230632 48.53 19.17L50.4 17.41C51.3363504 16.4450405 51.9028376 15.1810661 52 13.84 52.2670753 12.916073 52.3014291 11.9404236 52.1 11L52.1 11zM54.57 28.06C53.73 26.49 51.89 25.43 50.34 26.88L50.08 27.15C49.5560451 26.5563437 48.7909239 26.2326386 48 26.27 45.86 26.46 44.82 28.66 44.49 30.54 43.941581 33.5009485 44.2897887 36.5582121 45.49 39.32 45.8960671 40.5541283 46.8957398 41.5011866 48.15 41.84 49.3845259 42.021851 50.5957244 41.3879905 51.15 40.27 52.28 38.38 53.4 36.47 54.52 34.57 55.6363143 32.5480375 55.6551251 30.0988707 54.57 28.06L54.57 28.06zM43.24 44C42.810822 42.5984947 41.6677396 41.5316178 40.24 41.2 39.9391399 41.1452197 39.6308601 41.1452197 39.33 41.2 39.0483197 41.0575045 38.7436021 40.9660892 38.43 40.93 37.9432217 40.5890723 37.3642785 40.404229 36.77 40.4 36.0533115 40.430005 35.3745245 40.7301003 34.87 41.24 33.47 42.5 33.13 44.53 33.1 46.31 33.1 46.87 33.1 47.43 33.1 47.99 33.1036319 48.9640136 33.177154 49.9365111 33.32 50.9 33.57 53.1 35.86 55.76 38.05 54.62 38.8012445 54.8410078 39.6123787 54.7045898 40.25 54.25 41.7945862 53.6945192 42.9681546 52.4163013 43.39 50.83 44.1136753 48.6018585 44.060799 46.1942218 43.24 44zM27.28 48.74C27.69 46.32 27.28 43.32 25.28 41.74 24.4341802 41.0049127 23.3264984 40.6441043 22.21 40.74 21.8413805 40.6947991 21.4686195 40.6947991 21.1 40.74 18.32 41.06 17.29 44.37 17.36 46.74 17.3477258 48.8776272 18.0283799 50.9616918 19.3 52.68 20.3 53.91 21.89 55.29 23.63 55.13 25.55 54.95 26.46 53.2 26.82 51.45 27.1146631 50.5764202 27.2698984 49.6618818 27.28 48.74zM35.56 30.85C35.5387436 30.4748957 35.4986933 30.1010932 35.44 29.73 35.44 29.64 35.44 29.54 35.44 29.46L35.44 29.46C35.2951827 28.6350024 34.9820111 27.8486693 34.52 27.15 33.9761945 26.2719643 33.0319768 25.7211707 32 25.68 31.5073103 25.7158959 31.0336979 25.8852901 30.63 26.17 29.4178209 25.1520593 27.7696144 24.8239266 26.26 25.3 24.5085335 26.2094069 23.3458116 27.9534898 23.18 29.92 22.7228851 32.4303615 23.5048328 35.0070652 25.28 36.84 25.9876746 37.5299648 27.0406193 37.7271455 27.95 37.34 28.59 38.76 30.08 39.96 31.59 38.94 31.9594694 38.6908468 32.2728266 38.3672714 32.51 37.99 32.7988662 37.9746158 33.0814389 37.899717 33.34 37.77 35.06 36.89 35.73 34.64 35.66 32.83 35.61 32.17 35.59 31.51 35.56 30.85zM16.51 35C16.28 33 15.24 30.52 12.92 30.43L8.75 30.26C7.67124542 30.3703082 6.71672852 31.0066528 6.2 31.96 5.63880329 32.947918 5.32007025 34.0549156 5.27 35.19 5.16023267 36.3978026 5.33844138 37.6144198 5.79 38.74 6.21 39.6 7 41 8.05 41.2 8.66 41.32 9.31 41.48 9.94 41.56L10.08 41.68C10.6309703 42.1520269 11.3799504 42.3205475 12.08 42.13 12.5196554 42.2049639 12.9716429 42.1493347 13.38 41.97 14.1551916 41.5938269 14.76923 40.9513937 15.11 40.16 16.2825005 38.7139037 16.7908137 36.8404064 16.51 35z" opacity=".5"/>
      <path id="Shape" fill="#3D454C" fill-rule="nonzero" d="M11.62 41.88C11.2341562 41.8776448 10.8492938 41.8408319 10.47 41.77 7.23033223 41.1015361 5.05162765 38.0513497 5.47 34.77 5.67169541 33.2081519 6.51167184 31.7997432 7.79 30.88 10.528481 29.03642 14.2418448 29.7513878 16.1 32.48 17.0509524 33.7820037 17.4563681 35.4036662 17.23 37 17.0267193 38.5610846 16.1824584 39.9669783 14.9 40.88 13.9384279 41.5487225 12.7910968 41.8985186 11.62 41.88L11.62 41.88zM11.08 31.82C9.23686614 31.8012536 7.67394358 33.1704254 7.45 35 7.17277979 37.2371315 8.65443716 39.3140589 10.86 39.78 11.8616657 39.9866426 12.9041871 39.7694506 13.74 39.18L13.74 39.18C14.5742502 38.5797897 15.1212715 37.6596347 15.25 36.64 15.3900133 35.56097 15.1108413 34.4693361 14.47 33.59 13.6908469 32.4886513 12.4290558 31.8298401 11.08 31.82L11.08 31.82zM38.25 53.13C35.6097571 53.269153 33.1512196 51.7854058 32.0438862 49.3845603 30.9365528 46.9837148 31.4039664 44.1504417 33.2237837 42.232497 35.0436009 40.3145524 37.8484461 39.6991214 40.304086 40.6789575 42.759726 41.6587937 44.3704283 44.0360926 44.37 46.68 44.4484707 50.1462392 41.7155818 53.0264897 38.25 53.13L38.25 53.13zM38.25 42.22C36.4161104 42.0759653 34.6812355 43.0701232 33.8782986 44.7251729 33.0753618 46.3802225 33.3683347 48.358178 34.6165594 49.7094115 35.8647841 51.060645 37.8133544 51.5092145 39.5267506 50.8397592 41.2401468 50.1703039 42.3684677 48.5195365 42.37 46.68 42.454627 44.3141217 40.6151562 42.3228499 38.25 42.22L38.25 42.22zM23.05 52.84C19.6673865 52.83458 16.9219607 50.1025465 16.9 46.72 16.8839825 45.1183307 17.5090454 43.5767478 18.6360044 42.4385192 19.7629634 41.3002906 21.2982506 40.66 22.9 40.66L22.9 40.66C25.3599486 40.6769344 27.5723233 42.1604717 28.5218808 44.4298272 29.4714384 46.6991827 28.9748514 49.3162203 27.26 51.08L27.26 51.08C26.143222 52.1982236 24.6303577 52.83068 23.05 52.84zM22.92 42.66C21.8504139 42.6599164 20.8253469 43.0882004 20.0737474 43.849195 19.3221479 44.6101895 18.9066302 45.6404974 18.92 46.71 18.9001591 48.5632831 20.1290182 50.1982648 21.9147473 50.6944739 23.7004764 51.190683 25.5966763 50.4240765 26.5358138 48.8262427 27.4749513 47.228409 27.2222594 45.1987768 25.92 43.88 25.1460123 43.1036173 24.0962672 42.6650252 23 42.66L22.92 42.66zM30 37.6601007C28.3855624 37.6693476 26.8354798 37.0276854 25.7 35.88 23.9681134 34.0885579 23.4702254 31.4374832 24.4341406 29.1397531 25.3980558 26.842023 27.6383519 25.3396373 30.13 25.3198993L30.18 25.3198993C31.7944376 25.3106524 33.3445202 25.9523146 34.48 27.1 36.8692447 29.5254022 36.842394 33.4277054 34.42 35.82L34.42 35.82C33.2499253 36.9966329 31.6593789 37.6587608 30 37.6601007L30 37.6601007zM30.18 27.319978L30.18 27.319978C29.0538868 27.3227587 27.9749024 27.7723355 27.18 28.57 25.9621142 29.726774 25.5706916 31.5082282 26.1914768 33.0689965 26.8122619 34.6297648 28.3203115 35.6557167 30 35.66 31.127551 35.6545931 32.2067386 35.2013344 33 34.4L33 34.4C34.6236452 32.7723488 34.6236452 30.1376512 33 28.51 32.2451882 27.7453088 31.2144677 27.3164426 30.14 27.319978L30.18 27.319978zM33 24.0001007C31.3855624 24.0093476 29.8354798 23.3676854 28.7 22.22 26.3107553 19.7945978 26.337606 15.8922946 28.76 13.5 29.9184359 12.336475 31.4881952 11.6755237 33.13 11.6599001 34.7591211 11.6506966 36.324716 12.2913308 37.48 13.44 38.6402045 14.5876014 39.2829154 16.1582714 39.26 17.79 39.2488083 19.432698 38.5871912 21.0040387 37.42 22.16L37.42 22.16C36.2499253 23.3366329 34.6593789 23.9987608 33 24.0001007zM33.18 13.66L33.18 13.66C32.0538868 13.6627587 30.9749024 14.1123355 30.18 14.91 28.5356899 16.5217317 28.5043918 19.15971 30.11 20.81 30.8784294 21.5726822 31.9173331 22.000466 33 22.0000004 34.127551 21.9945931 35.2067386 21.5413344 36 20.74L36 20.74C36.7985951 19.9457223 37.2483402 18.8663341 37.25 17.74 37.266133 16.6493863 36.8427608 15.5981509 36.0752675 14.8231331 35.3077742 14.0481154 34.2607192 13.6145076 33.17 13.6199485L33.18 13.66zM49.78 39.1301196C48.4897578 39.1285737 47.234344 38.7112713 46.2 37.94 43.4456711 35.8956227 42.8007469 32.0393292 44.74 29.21 45.6703319 27.8541932 47.1163207 26.9396054 48.74 26.68 52.1226037 26.1531465 55.2920598 28.4675657 55.82 31.85L55.82 31.85C56.4204281 35.2152303 54.1837844 38.4315239 50.82 39.04 50.4768687 39.1021432 50.1287058 39.1322727 49.78 39.1301196zM49.7 28.59C49.4786432 28.5901094 49.2577477 28.6101908 49.04 28.65 47.9577652 28.8280231 46.9961037 29.4426188 46.38 30.35 45.0492274 32.2942979 45.490578 34.9424012 47.38 36.35 48.2585333 37.0072747 49.3684861 37.2748203 50.45 37.09 51.5447037 36.8884251 52.5142093 36.2595449 53.144578 35.3421334 53.7749467 34.4247218 54.0143647 33.2941864 53.81 32.2L53.81 32.2C53.503234 30.1556344 51.7668566 28.6304951 49.7 28.59L49.7 28.59z"/>
      <path id="Path" fill="#3D454C" fill-rule="nonzero" d="M11.09,37.17 C11.6422847,37.17 12.09,36.7222847 12.09,36.17 C12.09,35.6177153 11.6422847,35.17 11.09,35.17 C10.5377153,35.17 10.09,35.6177153 10.09,36.17 C10.09,36.7222847 10.5377153,37.17 11.09,37.17 Z"/>
      <path id="Shape" fill="#3D454C" fill-rule="nonzero" d="M18.74,20.270018 C16.2727852,20.2690324 14.045782,18.7913795 13.0860221,16.5184935 C12.1262622,14.2456076 12.6201822,11.6190044 14.34,9.85 C15.4690345,8.71955003 17.0023077,8.08608504 18.6,8.08996146 L18.6,8.08996146 C20.2490094,8.08418977 21.8323979,8.73553823 23,9.9 C25.3765864,12.2779998 25.3765864,16.1320002 23,18.51 C21.8709655,19.64045 20.3376923,20.273915 18.74,20.270018 L18.74,20.270018 Z M18.6,10.0899784 C17.5304464,10.086484 16.5040336,10.5114549 15.75,11.27 L15.75,11.27 C14.5480519,12.4327546 14.1681999,14.2067095 14.7886361,15.7596861 C15.4090723,17.3126628 16.9066975,18.3365389 18.5789619,18.3510049 C20.2512263,18.3654708 21.7663401,17.3676565 22.4135496,15.8256456 C23.060759,14.2836347 22.7116529,12.503374 21.53,11.32 C20.7631727,10.5438891 19.7209774,10.1018546 18.63,10.0899784 L18.6,10.0899784 Z"/>
      <path id="Path" fill="#3D454C" fill-rule="nonzero" d="M17.35 15.44C17.9022847 15.44 18.35 14.9922847 18.35 14.44 18.35 13.8877153 17.9022847 13.44 17.35 13.44 16.7977153 13.44 16.35 13.8877153 16.35 14.44 16.35 14.9922847 16.7977153 15.44 17.35 15.44zM39 46.16C39.5522847 46.16 40 45.7122847 40 45.16 40 44.6077153 39.5522847 44.16 39 44.16 38.4477153 44.16 38 44.6077153 38 45.16 38 45.7122847 38.4477153 46.16 39 46.16z"/>
      <path id="Shape" fill="#3D454C" fill-rule="nonzero" d="M47.65,19.53 C44.1804742,19.4318737 41.4416035,16.5500276 41.52,13.08 C41.4291774,10.8327151 42.5763253,8.7161562 44.5088025,7.56547387 C46.4412798,6.41479154 48.8487202,6.41479154 50.7811975,7.56547387 C52.7136747,8.7161562 53.8608226,10.8327151 53.77,13.08 C53.8484707,16.5462392 51.1155818,19.4264897 47.65,19.53 L47.65,19.53 Z M47.65,8.62 C45.2808823,8.71751892 43.4354721,10.7103832 43.52,13.08 C43.3870378,14.6377051 44.1428936,16.1374612 45.4740818,16.9572553 C46.8052699,17.7770494 48.4847301,17.7770494 49.8159182,16.9572553 C51.1471064,16.1374612 51.9029622,14.6377051 51.77,13.08 C51.854627,10.7141217 50.0151562,8.7228499 47.65,8.62 Z"/>
      <path id="Path" fill="#3D454C" fill-rule="nonzero" d="M48.44,12.56 C48.9922847,12.56 49.44,12.1122847 49.44,11.56 C49.44,11.0077153 48.9922847,10.56 48.44,10.56 C47.8877153,10.56 47.44,11.0077153 47.44,11.56 C47.44,12.1122847 47.8877153,12.56 48.44,12.56 Z"/>
    </g>
  </g>
</svg>
