<svg xmlns="http://www.w3.org/2000/svg" width="64" height="64" viewBox="0 0 64 64" style="background:#fff">
  <g id="Goldbrasse" fill="none" fill-rule="evenodd" stroke="none" stroke-width="1">
    <rect width="64" height="64" fill="#FFF"/>
    <g transform="translate(2 3)">
      <g id="Layer_2">
        <rect id="Rectangle" width="60" height="60" x=".77" y=".96"/>
      </g>
      <g id="Layer_1" fill-rule="nonzero" transform="translate(6 8)">
        <path id="Path" fill="#E0A075" d="M43,2 C36.69,-0.37 28.62,5.18 24.15,9.22 C19,13.89 13.23,21.11 13.23,28.31 C13.23,29.86 14.87,33.1 16.75,31.23 C18.91,29.07 19.65,25.88 21.16,23.23 C22.868896,20.2857955 24.9492884,17.5735553 27.35,15.16 C32.05,10.4 38.66,7.75 43.12,2.95 C43.33,2.74 43.36,2.16 43,2 Z" opacity=".5"/>
        <path id="Path" fill="#4885E0" d="M18.56 35.88C18.26 35.2 17.56 34.71 16.92 35.27 15.75 36.27 15.42 37.89 14.92 39.27 14.2 41.04 13.42 42.75 13.59 44.7 13.67 45.7 14.37 48.02 15.94 47.3 17.87 46.41 18.36 43.83 18.73 41.93 19.1 40.03 19.39 37.77 18.56 35.88zM13.6 30.26C11.12 27.08 3.82 27.58 1.74 31.1 1.35427673 31.777374 1.46006877 32.6277792 2 33.19 3.39 34.47 5.35 34.38 7.14 34.64 8.93 34.9 11.27 35.85 12.96 34.8 14.3517897 33.7005699 14.6336197 31.7013381 13.6 30.26L13.6 30.26zM24 8.18C23.43 6.91 22.14 6.49 20.79 6.34 19.14 6.17 17.66 5.86 16.32 7.03 15.6553543 7.73116189 15.3359421 8.69100938 15.4479282 9.65061401 15.5599143 10.6102186 16.0917619 11.4707239 16.9 12 17.738267 12.425104 18.719823 12.4652419 19.59 12.11 20.4446301 11.897903 21.2806926 11.616986 22.09 11.27 23.07 10.74 24.59 9.42 24 8.18z" opacity=".5"/>
        <path id="Shape" fill="#3D454C" d="M47.15,1.27 C46.5362177,0.641538987 45.6983787,0.281951436 44.82,0.27 L44.63,0.27 C39.5744615,0.566858515 34.6160185,1.7869812 30,3.87 C28.4256304,4.61841899 26.9227477,5.50876821 25.51,6.53 C24.6128685,6.26993292 23.6840512,6.13532172 22.75,6.13 C18.24,6.13 14.69,9.37 14.54,9.51 C14.1653463,9.89759662 14.1653463,10.5124034 14.54,10.9 C15.879467,12.059622 17.4175306,12.9675538 19.08,13.58 C18.2431522,14.9620298 17.5207439,16.4101909 16.92,17.91 C14.701612,18.4560308 12.644978,19.5220528 10.92,21.02 C10.5453463,21.4075966 10.5453463,22.0224034 10.92,22.41 C12.092217,23.4140676 13.4107086,24.2334882 14.83,24.84 C14.5079874,26.4392588 14.2743002,28.055039 14.13,29.68 C12.4464002,28.7188801 10.5482849,28.1962107 8.61,28.16 C4.13,28.16 0.55,31.4 0.4,31.54 C0.0253463142,31.9275966 0.0253463142,32.5424034 0.4,32.93 C0.55,33.07 4.1,36.31 8.61,36.31 C10.1669294,36.2975382 11.7037191,35.9567867 13.12,35.31 C12.472927,36.7261849 12.1321617,38.2630365 12.12,39.82 C12.12,44.31 15.37,47.87 15.5,48.02 C15.6829754,48.2120951 15.9347836,48.3236102 16.2,48.33 C16.4635338,48.3290972 16.7143113,48.2164291 16.89,48.02 C17.03,47.87 20.27,44.32 20.27,39.82 C20.2354602,37.8783143 19.7127351,35.9765578 18.75,34.29 C20.3707408,34.1427535 21.9828598,33.9124508 23.58,33.6 C24.1831223,35.0066314 24.9993638,36.3119432 26,37.47 C26.1764812,37.6684827 26.4294044,37.7820396 26.695,37.7820396 C26.9605956,37.7820396 27.2135188,37.6684827 27.39,37.47 C28.8737379,35.7582808 29.9385185,33.724584 30.5,31.53 C33.8592832,30.2303641 36.9207507,28.2642216 39.5,25.75 C41.578539,23.6221924 43.2705,21.1485456 44.5,18.44 C46.5932562,13.8234759 47.8170612,8.86045483 48.11,3.8 C48.168997,2.85781145 47.8191755,1.93588596 47.15,1.27 L47.15,1.27 Z M16.69,10.21 C18.4246622,8.89397146 20.5154427,8.13083659 22.69,8.02 C22.9739964,8.02228662 23.2576941,8.03897472 23.54,8.07 C23.22,8.35 22.92,8.63 22.63,8.92 C22.15,9.4 21.63,9.92 21.16,10.54 L20.88,10.91 L20.51,11.39 L20.07,11.96 C18.8649845,11.5423717 17.7265752,10.9529587 16.69,10.21 Z M13.11,21.71 C14.0388765,21.0554933 15.0468942,20.5212439 16.11,20.12 L15.76,21.24 C15.59,21.81 15.44,22.39 15.29,22.97 C14.526352,22.6175086 13.7966309,22.1957432 13.11,21.71 L13.11,21.71 Z M8.63,34.42 C6.45676597,34.3108409 4.36643635,33.5513545 2.63,32.24 C4.36466223,30.9239715 6.45544271,30.1608366 8.63,30.05 C10.5485102,30.1277036 12.4076815,30.7370409 14,31.81 C14,32.14 14,32.43 14,32.68 C12.4041904,33.7430393 10.546,34.3451345 8.63,34.42 L8.63,34.42 Z M16.19,45.84 C14.8783358,44.1029595 14.1157068,42.0135649 14,39.84 C14.0736866,37.9222828 14.6796267,36.0629124 15.75,34.47 L16.62,34.47 C17.6891304,36.0709538 18.2947781,37.9363487 18.37,39.86 C18.2532737,42.0255839 17.4943628,44.1073671 16.19,45.84 L16.19,45.84 Z M26.7,35.31 C26.219428,34.6324448 25.8010605,33.9128526 25.45,33.16 C26.03,33.02 26.61,32.86 27.17,32.69 L28.29,32.34 C27.8927367,33.3955333 27.3581366,34.3941261 26.7,35.31 L26.7,35.31 Z M38.16,24.41 C35.6482438,26.8710468 32.6464729,28.7756892 29.35,30 C27.610467,30.6624335 25.8216457,31.1873773 24,31.57 C21.8983428,32.0244489 19.7657925,32.3219363 17.62,32.46 C17.4061379,32.1607506 17.1757814,31.8736397 16.93,31.6 L16.87,31.54 C16.87,31.54 16.53,31.23 16.01,30.84 C16.138179,28.693213 16.4357717,26.5599086 16.9,24.46 C17.2949491,22.6251213 17.8298466,20.8231854 18.5,19.07 C19.2425268,17.1432696 20.1913842,15.3025533 21.33,13.58 C22.1125948,12.391088 23.0066304,11.2794034 24,10.26 C24.6970701,9.5620001 25.4422313,8.91374331 26.23,8.32 C27.485642,7.38278345 28.8245813,6.56268316 30.23,5.87 L42.55,18.23 C41.4262366,20.5113099 39.9441075,22.5977695 38.16,24.41 Z M43.39,16.41 L32,5 C36.0676891,3.38510725 40.3700349,2.43953676 44.74,2.19999693 L44.83,2.19999693 C45.2147876,2.19919252 45.5826946,2.35792727 45.8461193,2.63840826 C46.109544,2.91888925 46.2449152,3.29601901 46.22,3.68 C45.9736474,8.04230816 45.0177774,12.335279 43.39,16.39 L43.39,16.41 Z"/>
        <path id="Path" fill="#3D454C" d="M40.1 4.61C39.7539614 4.7540974 39.5175677 5.07961514 39.4876183 5.45325912 39.4576689 5.82690311 39.6391939 6.18591907 39.9578617 6.38329594 40.2765295 6.5806728 40.6788192 6.58326073 41 6.39 41.4883422 6.14421172 41.6887799 5.55180702 41.45 5.06 41.3319198 4.82010269 41.1226847 4.63748521 40.8690229 4.55293128 40.6153611 4.46837736 40.3384026 4.48893028 40.1 4.61L40.1 4.61zM29.09 13.63C28.7249835 13.8072211 28.5032416 14.1874437 28.5287348 14.592406 28.5542279 14.9973683 28.8219017 15.3467812 29.2062613 15.4768277 29.5906209 15.6068742 30.0154619 15.4917708 30.2816039 15.185482 30.5477459 14.8791932 30.6024227 14.4424449 30.42 14.08 30.1742117 13.5916578 29.581807 13.3912201 29.09 13.63zM34.48 19.92C34.9683422 19.6742117 35.1687799 19.081807 34.93 18.59 34.7527789 18.2249835 34.3725563 18.0032416 33.967594 18.0287348 33.5626317 18.0542279 33.2132188 18.3219017 33.0831723 18.7062613 32.9531258 19.0906209 33.0682292 19.5154619 33.374518 19.7816039 33.6808068 20.0477459 34.1175551 20.1024227 34.48 19.92zM27.23 20C26.8676713 20.1799377 26.6494502 20.5604565 26.6771296 20.9640572 26.704809 21.3676579 26.9729354 21.7148225 27.3564368 21.8436103 27.7399383 21.9723981 28.1632568 21.8574351 28.4289284 21.5523479 28.6946 21.2472606 28.7502818 20.8121576 28.57 20.45 28.3240469 19.9559191 27.7243143 19.7545164 27.23 20z"/>
      </g>
    </g>
  </g>
</svg>
