<svg xmlns="http://www.w3.org/2000/svg" width="64" height="64" viewBox="0 0 64 64" style="background:#fff">
  <g id="Goldmakrele" fill="none" fill-rule="evenodd" stroke="none" stroke-width="1">
    <rect width="64" height="64" fill="#FFF"/>
    <g transform="translate(2 4)">
      <rect id="Rectangle" width="60" height="60" x="0" y="0"/>
      <path id="Path" fill="#31D4E0" fill-rule="nonzero" d="M46.13,8.62 C37.22,7.62 29.75,14.21 24.33,20.62 C19.13,26.82 12,37.09 13.81,45.58 C14.33,47.94 16.39,50.45 18.81,48.51 C21.6,46.29 21.92,41.92 23.26,38.75 C24.8275768,35.0636787 26.8427126,31.5842109 29.26,28.39 C34.26,21.72 41.12,16.84 46.52,10.53 C47,10 47,8.72 46.13,8.62 Z" opacity=".5"/>
      <path id="Shape" fill="#3D454C" fill-rule="nonzero" d="M51.36,11.76 C51.3483424,11.5749837 51.2822378,11.3975452 51.17,11.25 C50.63,10.54 49.26,8.87 48.24,8.81 L47.59,8.81 C44.0752921,8.96195371 40.6821529,10.1405133 37.83,12.2 C37.56,12.41 35.29,14.13 34.56,14.72 C34.11,15.08 33.68,15.47 33.24,15.85 C29.7117621,14.7652425 25.9284143,16.4810465 24.42,19.85 C24.2474261,20.2353401 24.3354666,20.6875481 24.64,20.98 L24.86,21.18 L19.6,22.68 C19.11883,22.8152134 18.8113821,23.2849255 18.88,23.78 C19.35,27 17.65,30.63 13.88,34.58 C13.6341632,34.8332925 13.5400704,35.1974268 13.6324238,35.538108 C13.7247771,35.8787892 13.9898949,36.1455472 14.33,36.24 C15.1050494,36.4067638 15.8899924,36.5236702 16.68,36.59 L17.16,36.65 C16.8,37.3 16.43,37.95 16.08,38.65 L6.65,38 C6.20184764,37.9766085 5.79299392,38.2546291 5.65,38.68 C5.51578141,39.1014664 5.67439501,39.5610391 6.04,39.81 L14.36,45.29 L19.9,53.67 C20.0839835,53.9493852 20.3954809,54.1182694 20.73,54.12 C20.8328338,54.1343697 20.9371662,54.1343697 21.04,54.12 C21.4614069,53.9734542 21.7347539,53.5654735 21.71,53.12 L21.22,44.36 C23.33,43.26 25.38,42.11 27.31,40.93 C27.8203117,42.4214553 28.2180931,43.9490695 28.5,45.5 C28.5732367,45.9262113 28.9121479,46.2570532 29.34,46.32 L29.48,46.32 C29.8669503,46.3170834 30.2174872,46.0911818 30.38,45.74 L31.12,44.1 C32.0670324,42.0214176 32.5580378,39.7641566 32.56,37.48 C35.7575774,35.2426152 38.7614802,32.7404779 41.54,30 C42.06,31.14 42.35,31.94 42.35,31.95 C42.5000511,32.3674466 42.9071758,32.6361489 43.35,32.61 L43.35,32.61 C43.7850977,32.5900116 44.1572142,32.2907005 44.27,31.87 L44.66,30.35 C45.0204953,28.9807222 45.1688865,27.5642607 45.1,26.15 C45.84,25.27 46.52,24.4 47.1,23.6 C49.9741274,20.3387487 51.4974832,16.1048207 51.36,11.76 Z M31.36,17.52 C31.03,17.83 30.69,18.13 30.36,18.45 C29.5,19.3 28.66,20.2 27.83,21.13 C27.7612227,20.9759294 27.65458,20.8417659 27.52,20.74 C27.172561,20.4986084 26.8387192,20.2382119 26.52,19.96 C27.5516569,18.3020338 29.4238192,17.3601625 31.37,17.52 L31.36,17.52 Z M16.86,34.52 L16.55,34.52 C19.62,30.94 21.09,27.52 20.94,24.32 L26.43,22.76 C23.3291556,26.5093271 20.5651088,30.5248916 18.17,34.76 C17.84,34.65 17.38,34.59 16.87,34.54 L16.86,34.52 Z M16,44.1 C15.9278492,43.9876485 15.8323515,43.8921508 15.72,43.82 L10.26,40.21 L15.45,40.63 C15.45,40.73 19.32,44.58 19.32,44.58 L19.6,49.58 L16,44.1 Z M29.8,42.17 C29.58,41.38 29.34,40.6 29.07,39.84 L30.56,38.84 C30.4463636,39.9773238 30.1910523,41.0959904 29.8,42.17 L29.8,42.17 Z M43.32,25.17 C42.61,26.01 41.87,26.84 41.11,27.64 C38.0292446,30.8035152 34.6427124,33.6540977 31,36.15 C29.82,36.98 28.57,37.8 27.3,38.6 C25.07,39.99 22.66,41.37 20.13,42.68 L17.5,40 C21.1937222,32.5934111 26.0068855,25.8003412 31.77,19.86 C33.07,18.57 34.42,17.36 35.77,16.24 C36.23,15.87 36.69,15.51 37.14,15.17 L45,23 C44.48,23.72 43.91,24.44 43.32,25.14 L43.32,25.17 Z M46.12,20.9 C45.831284,20.8985188 45.5547248,20.7835851 45.35,20.58 L39.64,14.86 C39.3979158,14.6268995 39.2794116,14.2936063 39.32,13.96 C39.3590359,13.61894 39.5550595,13.3156583 39.85,13.14 C42.192957,11.7069041 44.8653687,10.9010479 47.61,10.8 C47.8644251,10.7810724 48.1202475,10.7979029 48.37,10.85 C48.7174908,11.0748301 49.0194393,11.3632079 49.26,11.7 C49.3411441,11.778982 49.3878582,11.8867837 49.39,12 C49.4332721,14.9513465 48.6280198,17.8530312 47.07,20.36 C46.8627147,20.6827151 46.5035119,20.8755502 46.12,20.87 L46.12,20.9 Z"/>
      <path id="Path" fill="#3D454C" fill-rule="nonzero" d="M43.88,12.49 C43.6409635,12.6063297 43.4580846,12.8130506 43.3717702,13.0644883 C43.2854558,13.3159259 43.3028106,13.5913838 43.42,13.83 C43.6659531,14.3240809 44.2656857,14.5254836 44.76,14.28 C45.2118938,14.0150447 45.3827336,13.4462608 45.1516216,12.9761581 C44.9205097,12.5060553 44.3657815,12.2939753 43.88,12.49 Z"/>
    </g>
  </g>
</svg>
