<svg xmlns="http://www.w3.org/2000/svg" width="64" height="64" viewBox="0 0 64 64" style="background:#fff">
  <g id="Grana-Padano" fill="none" fill-rule="evenodd" stroke="none" stroke-width="1">
    <rect width="64" height="64" fill="#FFF"/>
    <g transform="translate(2 10)">
      <g id="Layer_2">
        <rect id="Rectangle" width="60" height="60" x="0" y="0"/>
        <rect id="Rectangle" width="60" height="60" x="0" y="0"/>
      </g>
      <g id="Layer_1" fill-rule="nonzero" transform="translate(6 10)">
        <path id="Path" fill="#E0A075" d="M43.75,13.42 C39,9.62 38.29,3.42 31.27,1.28 C24.79,-0.72 15.5,1.28 9.44,3.28 C2.83,5.48 4.38,9.77 5.79,10.94 C6.41315933,11.4484115 7.08277763,11.8970557 7.79,12.28 C8.58253761,13.1681207 9.7197266,13.6711081 10.91,13.66 C14.69,15.01 19.13,15.66 22.8,16.66 C28.94,18.28 35,20 41.06,21.87 C46.66,23.61 46.1,15.29 43.75,13.42 Z" opacity=".5"/>
        <path id="Path" fill="#EBE53F" d="M46,28.3 C40.25,25.38 32.73,24.59 26.47,23.07 C20.52,21.62 14.54,20.35 8.55,19.07 C7.76,16.07 7.18,13.15 5.46,10.42 C3.74,7.69 1.19,10.15 1,12.36 C0.52,16.64 1.58,20.36 2,24.63 C2.18,26.52 2.81,29.71 5,30.35 C11.79,32.3 18.57,34.25 25.43,35.99 C31.7,37.58 38.73,40.46 45.22,40.450026 C50.77,40.450026 49.67,30.2 46,28.3 Z" opacity=".5"/>
        <path id="Shape" fill="#3D454C" d="M46.72,21.05 C46.7242948,20.4527117 46.5501953,19.8677377 46.22,19.37 L33.88,2.94 C32.7698543,1.42854629 30.9841748,0.563783228 29.11,0.63 C24.03,0.78 11.35,1.85 3.24,8.42 C3.04531653,8.58062582 2.87958659,8.77341371 2.75,8.99 C2.75,8.99 2.75,8.99 2.75,9.04 C2.53390526,9.38882923 2.41640567,9.78971018 2.41,10.2 L2.41,28.2 C2.44328727,29.0812685 3.07560563,29.8251725 3.94,30 C6.26,30.5 14.94,32.94 23.29,35.3 C32.47,37.9 42,40.58 44.64,41.14 C44.7662054,41.1552875 44.8937946,41.1552875 45.02,41.14 C45.4274844,41.145166 45.8238556,41.0071439 46.14,40.75 C46.5072464,40.4548148 46.7235888,40.0111296 46.73,39.54 C46.73,39 46.7,24.15 46.72,21.05 Z M23.83,33.39 C15.1,30.93 6.83,28.61 4.37,28.06 L4.37,10.87 L19.55,14.87 C19.6330471,14.8797686 19.7169529,14.8797686 19.8,14.87 C20.1572656,14.9164445 20.5121705,14.7687621 20.7310254,14.4825833 C20.9498803,14.1964045 20.9994361,13.8152066 20.8610254,13.4825833 C20.7226147,13.14996 20.4172656,12.9164445 20.06,12.87 L5.63,9.07 C13.29,3.64 24.53,2.71 29.17,2.57 C30.3916456,2.54537207 31.5513543,3.10664139 32.29,4.08 L43.53,19.08 L31.27,15.89 C30.9169343,15.773147 30.5281864,15.8618783 30.2607886,16.1203516 C29.9933907,16.3788248 29.8915194,16.7643379 29.9963248,17.1211654 C30.1011302,17.477993 30.3952976,17.7471837 30.76,17.82 L44.76,21.5 C44.76,25.03 44.76,36.6 44.76,39.12 C41.72,38.44 32.63,35.87 23.83,33.39 Z"/>
        <path id="Path" fill="#3D454C" d="M16.47 19.75C16.47 19.66 16.56 19.4 17.13 18.99 17.5745892 18.6586291 17.6663708 18.0295892 17.335 17.585 17.0036291 17.1404108 16.3745892 17.0486292 15.93 17.38 15.1677811 17.8536065 14.6411474 18.6272134 14.48 19.51 14.4908419 20.6332783 14.9735101 21.7002291 15.81 22.45 16.81 23.68 17.42 24.45 16.81 25.76 16.5753835 26.2598225 16.7902596 26.8552085 17.29 27.09 17.4255656 27.1494185 17.5719845 27.1800001 17.72 27.1800001 18.1046594 27.1789111 18.4545973 26.9572838 18.62 26.61 19.79 24.15 18.32 22.36 17.34 21.18 16.92 20.66 16.43 20.06 16.47 19.75zM30.46 23.72C30.46 23.72 30.58 23.29 32.09 22.72 32.6063862 22.5211775 32.8638225 21.9413862 32.665 21.425 32.4661775 20.9086138 31.8863862 20.6511775 31.37 20.85 30.3 21.26 28.84 21.95 28.52 23.23 28.2 24.51 29.12 25.56 30 26.57 31 27.76 31.63 28.57 31.23 29.34 31.0779782 29.6502601 31.0968825 30.0170154 31.2799985 30.3100009 31.4631145 30.6029865 31.7844982 30.7806921 32.13 30.780002 32.5065582 30.7788587 32.8505498 30.5662797 33.02 30.23 34.02 28.17 32.58 26.49 31.51 25.23 31.09 24.78 30.39 24 30.46 23.72zM25.33 14.58C24.7777153 14.58 24.33 15.0277153 24.33 15.58 24.33 16.1322847 24.7777153 16.58 25.33 16.58 25.8822847 16.58 26.33 16.1322847 26.33 15.58 26.33 15.0277153 25.8822847 14.58 25.33 14.58z"/>
      </g>
    </g>
  </g>
</svg>
