<svg xmlns="http://www.w3.org/2000/svg" width="64" height="64" viewBox="0 0 64 64" style="background:#fff">
  <g id="Grapefruitsaft" fill="none" fill-rule="evenodd" stroke="none" stroke-width="1">
    <rect width="64" height="64" fill="#FFF"/>
    <g transform="translate(2 4)">
      <rect id="Rectangle" width="60" height="60" x="0" y="0"/>
      <path id="Path" fill="#E05362" fill-rule="nonzero" d="M38.23,26.71 C32.93,27.64 28.17,30.36 22.88,31.41 C20.3618167,31.7656174 17.8230564,31.9560244 15.28,31.98 C14.1800311,30.6461352 12.5581393,29.8515905 10.83,29.8 C7.63,29.88 6.1,32.72 4.92,35.23 L4.47,36.23 C2.77743016,40.4940507 3.59433558,45.3453899 6.59,48.82 C8.11011404,51.5789931 10.5634501,53.706163 13.51,54.82 C18.1,56.68 24,57 28.91,57.2 C38.59,57.52 51.24,56.08 53.27,44.5 C54.94,35 48.69,24.87 38.23,26.71 Z" opacity=".5"/>
      <path id="Shape" fill="#3D454C" fill-rule="nonzero" d="M57.66,16.88 C56.23,11.65 51.24,9.73 46.36,10.88 C44.63,8.73 38.69,9.3 36.62,9.08 C32.81,8.65 30,5.49 25.74,5.74 C23.7052984,5.82733149 21.743801,6.52413339 20.11,7.74 C19.7786548,8.08053352 19.7326758,8.60720169 20,9 L23.58,14.57 C23.65,15.82 24.05,17.07 24.11,18.33 C24.2453293,20.0665559 24.055412,21.8131169 23.55,23.48 C23.13,24.7 25.06,25.22 25.48,24.01 C25.966531,22.3896428 26.1860682,20.7008951 26.13,19.01 C26.13,17.76 25.77,16.51 25.63,15.28 L29.27,15.28 C29.8222847,15.28 30.27,14.8322847 30.27,14.28 C30.27,13.7277153 29.8222847,13.28 29.27,13.28 L25.05,13.28 C24.12,11.81 23.19,10.28 22.22,8.87 C22.5910617,8.65618549 22.9751463,8.46581308 23.37,8.3 C25.5825588,7.56374582 27.9886237,7.66696458 30.13,8.59 C30.6,8.77 31,8.96 31.39,9.14 L27.73,9.14 C27.1777153,9.14 26.73,9.58771525 26.73,10.14 C26.73,10.6922847 27.1777153,11.14 27.73,11.14 L36.6,11.14 C36.6498375,11.1457003 36.7001625,11.1457003 36.75,11.14 L37.05,11.14 C37.79,11.14 45.46,10.36 44.53,13.3 L40.53,13.3 C39.9777153,13.3 39.53,13.7477153 39.53,14.3 C39.53,14.8522847 39.9777153,15.3 40.53,15.3 C41.67,15.3 42.93,15.18 44.1,15.25 C43.98,15.84 43.88,16.44 43.81,17.04 C43.668153,18.2413684 43.6413647,19.4535381 43.73,20.66 C44.14,25.95 47.84,29.34 49.25,34.26 C51.25,41.37 48.75,49.38 41.85,52.76 C39.16,54.07 32.16,54.69 29.49,53.47 C28.33,52.94 27.31,54.66 28.49,55.19 C31.42,56.53 37.43,56.19 40.49,55.43 C44.58,54.43 48.29,50.92 50.19,47.27 C51.5477422,44.5831553 52.1721119,41.5854909 52,38.58 C55.39,32.55 59.57,23.91 57.66,16.88 Z M55.66,23.72 C54.821418,27.7017053 53.4278086,31.5459128 51.52,35.14 C51.3923278,34.3900423 51.2186668,33.6486437 51,32.92 C53.11,28.58 56.11,21.92 53.81,17.27 C52.5033204,14.4714769 49.3262185,13.07321 46.38,14 C46.5628537,13.615655 46.6939941,13.2087835 46.77,12.79 C53.66,11.21 56.9,17.34 55.68,23.72 L55.66,23.72 Z M46.16,16.41 C47.168682,15.944227 48.2868806,15.7676694 49.39,15.9 C50.2025572,16.1842877 50.8823072,16.7572707 51.3,17.51 C52.76,19.43 52.59,21.43 52.11,23.73 C51.6092016,26.0323795 50.8650186,28.2749851 49.89,30.42 C49.11,28.91 48.16,27.52 47.34,25.99 C45.6,22.68 46,19.71 46.18,16.41 L46.16,16.41 Z"/>
      <path id="Path" fill="#3D454C" fill-rule="nonzero" d="M43.28 47.07C46.0497466 43.6387129 46.7354171 38.9730886 45.07 34.89 44.62 33.7 42.68 34.21 43.14 35.42 44.41 38.78 44.29 42.86 41.87 45.65 41 46.62 42.44 48 43.28 47.07zM42.88 30.63C42.3853683 30.3975434 41.7957345 30.6052524 41.5560053 31.0964005 41.3162761 31.5875486 41.5152628 32.1801829 42.0028204 32.4271325 42.490378 32.6740821 43.0858837 32.483861 43.34 32 43.4668855 31.7583983 43.4895215 31.475436 43.4026584 31.2167351 43.3157954 30.9580343 43.1269797 30.7460703 42.88 30.63L42.88 30.63z"/>
      <path id="Shape" fill="#3D454C" fill-rule="nonzero" d="M8.43,44.91 C8.36893632,45.3104374 8.41021819,45.7198159 8.55,46.1 C9.12948952,47.2471524 10.2682095,48.0062991 11.55,48.1 C11.8789159,48.168233 12.2140858,48.20175 12.55,48.2 C13.4379699,48.2316704 14.3053788,47.9282558 14.98,47.35 C15.1926046,47.1523934 15.3776035,46.9270311 15.53,46.68 C15.59,46.68 15.64,46.75 15.71,46.77 C15.8790134,46.8184661 16.0541868,46.8420472 16.23,46.84 C17.23,46.84 18.4,46.04 19.75,44.42 C20.57,43.42 21.87,41.54 21.33,39.97 L21.33,39.89 C21.4391159,39.8141032 21.5427093,39.7305601 21.64,39.64 C22.84,38.51 22.89,36.42 22.72,34.88 C22.52,33.03 21.86,31.88 20.83,31.56 L20.74,31.56 C20.8015032,31.1595739 20.7602102,30.7500799 20.62,30.37 C20.0405105,29.2228476 18.9017905,28.4637009 17.62,28.37 C16.4286785,28.0671953 15.1643288,28.345278 14.21,29.12 C13.9922771,29.3127349 13.806621,29.5388978 13.66,29.79 C13.603179,29.7540236 13.5428737,29.7238709 13.48,29.7 C12.35,29.38 11.03,30.14 9.48,32.05 C8.66,33.05 7.36,34.93 7.9,36.5 L7.9,36.58 C7.78780931,36.6560102 7.68089778,36.7395348 7.58,36.83 C6.33,37.94 6.28,40 6.45,41.57 C6.65,43.42 7.31,44.57 8.34,44.89 L8.43,44.91 Z M8.9,38.27 C9.03222781,38.1403849 9.2161702,38.0778445 9.4,38.1 C9.49312073,38.0910909 9.58687927,38.0910909 9.68,38.1 L11.55,38.41 L12.74,38.68 L12.74,38.68 L11.99,39.6 L9.72,42.28 C9.51366406,42.5514554 9.27145544,42.7936641 9,43 C8.67158334,42.5232679 8.49390937,41.9588918 8.49,41.38 C8.28,39.89 8.46,38.68 8.9,38.27 L8.9,38.27 Z M13.6,45.91 C13.1055699,46.2486543 12.4853341,46.3477453 11.91,46.18 C11.01,46 10.52,45.67 10.43,45.42 C10.34,45.17 10.56,44.58 11.07,43.96 L13.49,40.96 L13.65,40.77 L13.65,41 L13.95,44.34 C14.0660103,44.8893237 13.938351,45.461967 13.6,45.91 L13.6,45.91 Z M18.17,43.18 C17.6764723,43.88062 17.0257771,44.4559716 16.27,44.86 C16.1772314,44.6474125 16.1198087,44.4210998 16.1,44.19 L15.67,40.78 L15.57,39.78 L17.18,40.05 L18.95,40.45 C19.07,40.45 19.35,40.55 19.4,40.68 C19.5,40.94 19.25,41.88 18.17,43.18 Z M20.17,38.18 C20.1,38.25 19.92,38.42 19.39,38.33 L17.52,38.02 L16.33,37.75 L16.33,37.75 L17.07,36.83 L19.31,34.22 C19.5393523,33.9553262 19.7976291,33.7171749 20.08,33.51 C20.4043379,33.992444 20.5815193,34.5587295 20.59,35.14 C20.82,36.6 20.64,37.81 20.2,38.22 L20.17,38.18 Z M15.47,30.54 C15.7774927,30.3015545 16.1617482,30.1841431 16.55,30.21 C16.7547514,30.2110899 16.9589601,30.231176 17.16,30.27 C18.06,30.45 18.55,30.78 18.64,31.03 C18.73,31.28 18.51,31.87 18,32.49 L15.59,35.49 L15.42,35.69 L15.42,35.47 L15.12,32.13 C15.0184493,31.582744 15.1568459,31.0182316 15.5,30.58 L15.47,30.54 Z M10.9,33.27 L10.9,33.27 C11.3935277,32.56938 12.0442229,31.9940284 12.8,31.59 C12.8931692,31.7983905 12.9473966,32.0220784 12.96,32.25 L13.4,35.68 L13.49,36.68 L11.88,36.42 L10.12,36.02 C10,36.02 9.72,35.92 9.67,35.79 C9.6,35.55 9.85,34.61 10.93,33.31 L10.9,33.27 Z"/>
      <path id="Shape" fill="#3D454C" fill-rule="nonzero" d="M33,41.19 C33.16,32.19 26,26.07 18.83,24.68 L18.71,24.68 C15.5128633,24.2049693 12.2660704,25.1305422 9.8,27.22 C6.9245939,29.5339144 4.82999557,32.6758119 3.8,36.22 C3.59843786,36.8038326 3.42819548,37.3980118 3.29,38 C2.67249029,40.9026972 2.9443147,43.9241301 4.07,46.67 C4.72171515,48.193069 5.75493956,49.5224844 7.07,50.53 C7.07,50.53 7.07,50.6 7.15,50.62 C9.49875805,52.5125545 12.2890332,53.7786719 15.26,54.3 C16.3512628,54.5062509 17.4594173,54.6100358 18.57,54.61 C22.0718378,54.6629744 25.4844059,53.5042556 28.23,51.33 C31.2699301,48.843953 33.0231573,45.1169669 33,41.19 L33,41.19 Z M5.9,45.89 C4.93530157,43.5187221 4.71215474,40.9106934 5.26,38.41 C5.9862729,34.632316 8.01818285,31.2304598 11,28.8 C13.0224336,27.0516402 15.7041627,26.2671888 18.35,26.65 C18.63,26.7 18.88,26.77 19.13,26.84 C21.0681106,27.5078972 22.6195293,28.9863079 23.38,30.89 C24.3380103,33.2633416 24.5541793,35.8713165 24,38.37 C23.2610882,42.1436461 21.2402866,45.5457998 18.28,48 C16.2575664,49.7483598 13.5758373,50.5328112 10.93,50.15 C10.6690376,50.101128 10.4117596,50.0343026 10.16,49.95 C8.21247056,49.2882735 6.65453938,47.8034846 5.9,45.89 L5.9,45.89 Z M27,49.81 C23.7656046,52.2659971 19.6241115,53.1964647 15.65,52.36 C15.2,52.28 14.75,52.17 14.31,52.05 C16.2188164,51.6338838 18.0054315,50.7816479 19.53,49.56 C22.4025218,47.2434502 24.4964624,44.1025392 25.53,40.56 C25.7,39.98 25.85,39.38 25.97,38.77 C26.5925502,35.8676075 26.3205905,32.8446705 25.19,30.1 C25.1,29.89 25,29.7 24.89,29.5 C28.7408795,32.1270452 31.0315785,36.4984936 31,41.16 C31.0497332,44.5012243 29.5779752,47.6839009 27,49.81 Z"/>
    </g>
  </g>
</svg>
