<svg xmlns="http://www.w3.org/2000/svg" width="64" height="64" viewBox="0 0 64 64" style="background:#fff">
  <g id="Grüne-Bohnen" fill="none" fill-rule="evenodd" stroke="none" stroke-width="1">
    <rect width="64" height="64" fill="#FFF"/>
    <g transform="translate(2 4)">
      <rect id="Rectangle" width="60" height="60" x="0" y="0"/>
      <path id="Path" fill="#31E085" fill-rule="nonzero" d="M30.31 7.46C23 7.21 19.87 16.26 17.08 21.71 15.3 25.2 13.58 28.83 11.08 31.84 8.58 34.85 5.16 36.51 3.41 40.37 2.41 42.55 3.15 46.27 5.46 47.37 12.23 50.55 18.46 37.97 20.68 33.25 24.4550073 25.0154486 27.7374568 16.5638925 30.51 7.94 30.56 7.79 30.54 7.47 30.31 7.46zM45.9 9.82C42.33 9.07 38.9 12.59 36.46 14.82 33.1582841 17.837485 30.2729428 21.2810626 27.88 25.06 25.1 29.46 23.71 34.35 21.53 39 20.4877516 41.4693911 18.9453583 43.6961576 17 45.54 15.11 47.19 13.33 47.99 12.18 50.34 11.18 52.34 10.92 55.63 12.93 57.27 21.72 64.42 28.72 43.82 30.33 38.69 31.8916438 33.3643389 34.1941717 28.2846391 37.17 23.6 39.94 19.39 44.54 16.04 46.34 11.32 46.48 10.94 46.45 9.93 45.9 9.82z" opacity=".5"/>
      <path id="Path" fill="#31E085" fill-rule="nonzero" d="M51.82,22.06 C46.16,22.37 41.82,26.91 38.82,31.42 C36.89,34.42 35.25,37.52 33.36,40.51 C31.47,43.5 28.58,46.15 26.78,49.35 C25.43,51.75 25.78,58.41 29.99,57.17 C35.59,55.51 38.73,47.17 40.99,42.31 C44.07,35.61 47.24,29.6 52.26,24.14 C52.66,23.67 52.78,22 51.82,22.06 Z" opacity=".5"/>
      <path id="Shape" fill="#3D454C" fill-rule="nonzero" d="M29.14 40.2C31.87 38.1 32.55 33.61 32.71 32.1 35.52 29.67 36.63 25.28 36.93 23.79 39.0822285 22.374692 40.6158404 20.1940318 41.22 17.69 42.8709536 16.7437028 44.1906856 15.3122474 45 13.59 45.1762997 13.2229061 45.2221562 12.8066696 45.13 12.41 46.1497151 11.5689431 47.5123698 11.271095 48.79 11.61 49.3422847 11.7094112 49.8705887 11.3422847 49.97 10.79 50.0694112 10.2377153 49.7022847 9.70941127 49.15 9.61 47.2279809 9.17025057 45.211996 9.6882208 43.74 11 43.3574395 10.8965515 42.9522402 10.9140169 42.58 11.05 40.7107958 11.7463198 39.0320626 12.8734692 37.68 14.34 35.1415138 15.779118 33.1775853 18.0503518 32.12 20.77 29.6499315 23.0205066 27.9732888 26.0089996 27.34 29.29 24.92 31.4 23.64 35.89 23.28 37.35 20.67 39.8 19.23 43.86 18.8 45.22 16.5400422 46.6204689 14.6908136 48.5938995 13.44 50.94 11.7711732 51.5686947 10.326738 52.6789954 9.29 54.13 8.94974059 54.5495703 8.86895973 55.1227297 9.08 55.62 9.29898306 56.1451299 9.79290353 56.503994 10.36 56.5500415L10.36 56.5500415C10.62 56.5500415 10.88 56.5500415 11.15 56.5500415 13.3824127 56.5562515 15.5595951 55.8561929 17.37 54.55 20.3557894 53.7361219 22.7786569 51.5544281 23.9 48.67 27.44 46.54 28.79 41.77 29.14 40.2zM22.84 47C22.4882856 47.1988799 22.2162262 47.5133382 22.07 47.89 21.1896251 50.2359831 19.2306255 52.0124904 16.81 52.66 16.5153474 52.7343169 16.2460013 52.8862557 16.03 53.1 14.7029656 53.9682901 13.1646911 54.4591552 11.58 54.52 12.2240912 53.7467564 13.0579849 53.1540716 14 52.8 14.4825494 52.6824312 14.8929613 52.3664504 15.13 51.93 16.2233691 49.8777007 17.8417834 48.1523124 19.82 46.93 20.2178876 46.7167325 20.5186121 46.3587272 20.66 45.93 20.91 45.13 22.27 41.01 24.66 38.79 24.9109394 38.559778 25.0883502 38.2606147 25.17 37.93 25.76 35.5 27.03 32.17 28.66 30.79 28.9672213 30.5340154 29.178706 30.1815409 29.26 29.79 29.7855137 26.9061403 31.2435439 24.2746593 33.41 22.3 33.6375829 22.1146102 33.8132849 21.8734506 33.92 21.6 34.8053757 19.3019211 36.4495757 17.375455 38.58 16.14 38.7789497 16.0437694 38.9559573 15.9076097 39.1 15.74 40.2045242 14.5510235 41.5515804 13.6131995 43.05 12.99 42.4199997 14.2475753 41.4363894 15.2937474 40.22 16 39.7683015 16.2283032 39.4367487 16.6400116 39.31 17.13 38.829466 19.1711163 37.5976796 20.9563141 35.86 22.13 35.4188447 22.3738466 35.1051135 22.7970189 35 23.29 34.84 24.14 33.87 28.51 31.36 30.62 31.0072175 30.913051 30.7843986 31.3335319 30.74 31.79 30.65 32.64 30.14 36.96 27.9 38.64 27.5653902 38.8855159 27.3253169 39.2385649 27.22 39.64 27 40.58 25.87 45.19 22.84 47zM13.5 45.33L13.59 45.24C15.8988798 43.3116676 17.3864193 40.5761682 17.75 37.59 17.763805 37.4677662 17.820496 37.3543843 17.91 37.27 19.7346342 35.4937657 20.9077123 33.154655 21.24 30.63 21.2659357 30.5067054 21.3246676 30.3926963 21.41 30.3 22.9816242 28.7147392 23.9537032 26.6327226 24.16 24.41 24.1695005 24.2671042 24.2297991 24.1323192 24.33 24.03 25.9098683 22.5366912 26.9180161 20.5380823 27.18 18.38 27.19962 18.2387136 27.266606 18.1082673 27.37 18.01 28.994308 16.5744325 29.9832222 14.5534515 30.12 12.39 30.1139298 12.2929294 30.1346875 12.1960601 30.18 12.11 30.990003 10.4439235 31.1813966 8.54416522 30.72 6.75 31.5427029 5.62384206 32.8274367 4.92641513 34.22 4.85 34.7533335 4.85066706 35.1933337 4.43266685 35.2200008 3.9 35.2206671 3.36666651 34.8026668 2.92666628 34.27 2.9 32.1567676 2.94548718 30.1949233 4.00644659 29 5.75 27.6183181 6.5414855 26.588885 7.82827698 26.12 9.35 26.0883491 9.46664301 26.0177823 9.5689649 25.92 9.64 24.1198413 10.9148015 22.8805492 12.8346297 22.46 15 22.4427937 15.1703198 22.3559325 15.325946 22.22 15.43 20.3641727 16.7192754 19.1885711 18.7765782 19.02 21.03 19.0274041 21.2009119 18.9576529 21.3661122 18.83 21.48 16.8454124 23.0343862 15.6427409 25.3812406 15.54 27.9 15.5443607 28.0448616 15.490309 28.185396 15.39 28.29 13.6523243 30.0180161 12.6096716 32.3239511 12.46 34.77 12.4601233 34.9045486 12.4142547 35.0350977 12.33 35.14 10.7647546 36.8923578 9.77975264 39.0859082 9.51 41.42 9.50542953 41.5897782 9.42911957 41.7496657 9.3 41.86 8 43 5.66 45.22 5.3 47.76 5.22701419 48.28988 5.58391697 48.7833752 6.11 48.88 6.34616928 48.9016993 6.58383072 48.9016993 6.82 48.88 8.09 48.93 10.89 48.52 13.5 45.33zM12 44.06C10.9502095 45.4802642 9.42351803 46.4743889 7.7 46.86 8.4330231 45.5322156 9.42210354 44.3629933 10.61 43.42 11.1714634 42.9558736 11.5124677 42.2774928 11.55 41.55 11.8069246 39.6536038 12.6253509 37.8774447 13.9 36.45 14.290468 35.9852936 14.5031166 35.3969658 14.5 34.79 14.6628304 32.8584795 15.5062797 31.0475443 16.88 29.68 17.3300212 29.2085986 17.580773 28.5817191 17.58 27.93 17.6645593 25.9964872 18.5884935 24.1960937 20.11 23 20.6649894 22.5190223 20.9886991 21.8243195 21 21.09 21.1563765 19.431473 22.0481809 17.9304523 23.43 17 23.9785577 16.5735299 24.337672 15.948671 24.43 15.26 24.7612428 13.6225886 25.7010973 12.1717105 27.06 11.2 27.499404 10.8863695 27.8284131 10.4418573 28 9.93 28.1972708 9.3023962 28.5398931 8.73021693 29 8.26 29.0873365 9.26963281 28.8935144 10.283738 28.44 11.19 28.2572989 11.5494726 28.1614007 11.9467653 28.16 12.35 28.0027774 13.9744698 27.2299383 15.4772126 26 16.55 25.5359276 16.9855445 25.2477268 17.5761784 25.19 18.21 24.9710649 19.8919237 24.1717286 21.4446169 22.93 22.6 22.4633358 23.0582256 22.1881138 23.6765815 22.16 24.33 21.9744476 26.0616762 21.2139619 27.6812291 20 28.93 19.6094537 29.3352607 19.366444 29.8600208 19.31 30.42 19.021745 32.4822652 18.054039 34.3895256 16.56 35.84 16.1398751 36.2555335 15.8751216 36.8026907 15.81 37.39 15.4918164 39.8463899 14.2644002 42.0942744 12.37 43.69 12.2342099 43.8002135 12.1102135 43.9242099 12 44.06zM54.54 18.4C52.6051189 18.2235658 50.7045776 18.9949619 49.44 20.47 48.1213748 21.0634205 47.0775718 22.1358208 46.52 23.47 46.4865189 23.5476941 46.430863 23.6137854 46.36 23.66 44.6227639 24.6374761 43.3322907 26.2505676 42.76 28.16 42.7369346 28.2830493 42.6647127 28.3913822 42.56 28.46 40.7586822 29.4399893 39.4976845 31.1825925 39.13 33.2 39.126873 33.3196132 39.0675907 33.4307675 38.97 33.5 37.0323191 34.70083 35.7225325 36.6947789 35.39 38.95 35.3828381 39.0504709 35.3360795 39.143988 35.26 39.21 33.5368143 40.5825536 32.3768991 42.5394656 32 44.71 31.9828962 44.8025064 31.9414785 44.8887934 31.88 44.96 30.3059195 46.374628 29.2118577 48.2446697 28.75 50.31 28.7316237 50.4322512 28.6626658 50.5411321 28.56 50.61 27.26 51.47 24.98 53.25 24.42 55.5 24.2904138 56.0173315 24.5896087 56.5453224 25.1 56.7 25.5071885 56.8103499 25.9282641 56.8608789 26.35 56.85 28.5655247 56.7716338 30.6576259 55.8102034 32.16 54.18 34.4067411 52.6672466 36.0023671 50.3648331 36.63 47.73 36.6534244 47.6470205 36.7024129 47.5735377 36.77 47.52 38.5739541 46.1048814 39.8519317 44.1263046 40.4 41.9 40.4254177 41.8098499 40.4777499 41.7296072 40.55 41.67 42.0947485 40.3975004 43.1541467 38.6318367 43.55 36.67 43.5653369 36.5674883 43.6189321 36.47459 43.7 36.41 45.2617877 35.2232391 46.3614477 33.5295505 46.81 31.62 46.8236081 31.5170583 46.8822225 31.4254733 46.97 31.37 48.5595453 30.2286107 49.6369573 28.5083429 49.97 26.58 49.9794249 26.5106074 49.9996707 26.4431213 50.03 26.38 50.9121456 24.9748859 51.2665442 23.3021246 51.03 21.66 51.8392248 20.7897776 52.9934799 20.3244113 54.18 20.39 54.4426171 20.4301398 54.7104129 20.3641293 54.9242896 20.2065359 55.1381664 20.0489425 55.2805432 19.8127206 55.32 19.55 55.4122945 19.0191259 55.0673684 18.510581 54.54 18.4zM48.41 25.26C48.2097111 25.5604986 48.079818 25.9023225 48.03 26.26 47.7484794 27.6554007 46.9479199 28.8919792 45.79 29.72 45.3156961 30.0739744 44.9882239 30.590099 44.87 31.17 44.5096511 32.6086966 43.6702768 33.8818653 42.49 34.78 42.0107742 35.1593163 41.69282 35.7059117 41.6 36.31 41.2629189 37.805967 40.4315091 39.1446778 39.24 40.11 38.8383885 40.4509113 38.5606623 40.91496 38.45 41.43 38.0172851 43.2379344 36.9887554 44.8476538 35.53 46 35.1009225 46.3440773 34.8012602 46.8235369 34.68 47.36 34.1727848 49.4827017 32.8836702 51.3360272 31.07 52.55 30.9391941 52.6324268 30.8183874 52.7297434 30.71 52.84 29.7083011 53.9095612 28.3777835 54.6135387 26.93 54.84 27.6786399 53.8313909 28.6076472 52.9701944 29.67 52.3 30.2379973 51.9264818 30.6226979 51.3312846 30.73 50.66 31.1351607 49.0251033 32.0196732 47.5485944 33.27 46.42 33.6849198 46.0275183 33.9441511 45.4984023 34 44.93 34.3207115 43.2570531 35.2330084 41.7554906 36.57 40.7 37.0296951 40.3015503 37.3224602 39.7445826 37.39 39.14 37.6701375 37.4820354 38.650143 36.0247782 40.08 35.14 40.6459794 34.742392 41.0109858 34.1182309 41.08 33.43 41.3731884 32.0231162 42.2788622 30.8204401 43.55 30.15 44.1062522 29.8144919 44.5057553 29.2710236 44.66 28.64 45.1009856 27.2471698 46.0556242 26.0744302 47.33 25.36 47.7752468 25.0995373 48.1256182 24.7036176 48.33 24.23 48.5130387 23.794355 48.7816806 23.3998935 49.12 23.07 49.0644941 23.8467875 48.8208189 24.5984052 48.41 25.26L48.41 25.26z"/>
    </g>
  </g>
</svg>
