<svg xmlns="http://www.w3.org/2000/svg" width="64" height="64" viewBox="0 0 64 64" style="background:#fff">
  <g id="Grünkohl" fill="none" fill-rule="evenodd" stroke="none" stroke-width="1">
    <rect width="64" height="64" fill="#FFF"/>
    <g transform="translate(2 4)">
      <rect id="Rectangle" width="60" height="60" x="0" y="0"/>
      <path id="Path" fill="#31E085" fill-rule="nonzero" d="M49.32,9.22 C44.32,5.66 36.5,9.06 32,11.78 C26.761671,14.9149802 22.6195425,19.5914643 20.14,25.17 C18.88,28.02 18.62,31.26 18.14,34.4 C15.64,37.17 13.21,40.02 10.77,42.94 C6.77,47.81 13.49,59.31 17.87,52.46 C19.6180087,49.7499562 21.5597411,47.1698918 23.68,44.74 C29.22,47.43 36.36,45.38 41.07,42.06 C47,37.88 50.27,31.47 52.07,24.93 C53.51,20 54.36,12.84 49.32,9.22 Z" opacity=".5"/>
      <path id="Path" fill="#3D454C" d="M50.68,16.13 C50.2183468,15.5936564 50.0400565,14.869352 50.2,14.18 C50.6662326,12.3302668 50.0142647,10.3782671 48.53,9.18 L48.45,9.11 C45.87,7.21 42.92,8.29 41.66,8.75 L41.45,8.82 C40.4552515,8.17607673 39.2666932,7.90016141 38.09,8.04 C36.7983145,8.19552813 35.618116,8.84840388 34.8,9.86 C33.3695176,9.33163176 31.7771897,9.47519969 30.4642868,10.2509179 C29.1513838,11.026636 28.2573711,12.3521024 28.03,13.86 C26.5211679,13.8893572 25.1063127,14.5986223 24.18,15.79 C23.4509699,16.717537 23.0689541,17.8706587 23.1,19.05 C23.1012903,19.5760642 22.6947754,20.013177 22.17,20.05 C20.5724706,20.0795041 19.0690204,20.81111 18.06,22.05 C16.9009169,23.5269666 16.6509564,25.5228055 17.41,27.24 C16.8687557,27.5561918 16.3907051,27.9698243 16,28.46 C14.9888444,29.7973864 14.6905047,31.5426732 15.2,33.14 C15.84,35.39 15.47,36.37 15.05,36.79 C14.8606873,36.9777666 14.7542017,37.2333625 14.7542017,37.5 C14.7542017,37.7666375 14.8606873,38.0222334 15.05,38.21 C15.4400375,38.5977236 16.0699625,38.5977236 16.46,38.21 C17.63,37.04 17.85,35.15 17.11,32.57 C16.7955026,31.5994406 16.962656,30.5370878 17.56,29.71 C17.8505418,29.3547078 18.2158913,29.0678914 18.63,28.87 C18.731627,28.9689407 18.8384445,29.0624061 18.95,29.15 C19.1259393,29.2911606 19.3444358,29.3686916 19.57,29.37 C19.874272,29.3685972 20.1613526,29.2287374 20.35,28.99 C20.5166477,28.7821554 20.5934734,28.516407 20.563436,28.2517023 C20.5333986,27.9869976 20.3989813,27.7452201 20.19,27.58 C20.0042056,27.4336266 19.8363734,27.2657944 19.69,27.08 L19.69,27.08 C18.7997288,25.9585388 18.7997288,24.3714612 19.69,23.25 C20.3602087,22.4722227 21.3435885,22.0355727 22.37,22.06 C23.9403745,21.944534 25.1542392,20.634608 25.15,19.06 C25.1237146,18.1230092 25.5283347,17.2256587 26.2479544,16.6250006 C26.9675741,16.0243424 27.9227995,15.7866456 28.84,15.98 L28.84,15.98 C29.3090469,16.0766978 29.7500879,16.2784143 30.13,16.57 C30.3032517,16.7090545 30.5178744,16.7864594 30.74,16.79 C31.1595888,16.7723744 31.5234607,16.4944647 31.650886,16.0943045 C31.7783113,15.6941443 31.6421375,15.2570021 31.31,15 C30.9165278,14.6916481 30.4780996,14.4454538 30.01,14.27 C30.1070047,13.3871811 30.5901884,12.592718 31.329456,12.1005163 C32.0687237,11.6083146 32.9880827,11.4689699 33.84,11.72 C33.7975469,11.8270274 33.7640975,11.9374103 33.74,12.05 C33.6801532,12.3085983 33.7255729,12.5803806 33.8662522,12.8054674 C34.0069314,13.0305542 34.2313271,13.1904765 34.49,13.25 L34.71,13.25 C35.1836615,13.2626631 35.6011882,12.9411676 35.71,12.48 C35.7778777,12.1852285 35.889087,11.9021505 36.04,11.64 L36.04,11.64 C36.1161491,11.5032876 36.203092,11.3728732 36.3,11.25 C36.7867286,10.615404 37.5066966,10.2014224 38.3,10.1 C39.1123092,9.99448126 39.9324394,10.2257074 40.57,10.74 C41.09,11.15 41.64,10.95 42.32,10.69 C43.87,10.13 45.65,9.62 47.27,10.82 C48.1585453,11.5403234 48.5486422,12.7106142 48.27,13.82 C47.9737167,15.1231753 48.3153146,16.4895669 49.19,17.5 C50.0315056,18.590891 50.1971969,20.058993 49.62,21.31 C48.6440587,20.6714282 47.5062009,20.3245203 46.34,20.31 C45.7877153,20.31 45.34,20.7577153 45.34,21.31 C45.34,21.8622847 45.7877153,22.31 46.34,22.31 C47.3543568,22.342635 48.3246617,22.7321734 49.08,23.41 C50.1500256,24.5188 50.2396089,26.2464782 49.29,27.46 C49.1514857,27.6368181 48.9938632,27.7977943 48.82,27.94 C47.5463488,28.9422519 47.0757658,30.6582571 47.66,32.17 C48.0226113,32.9326494 48.1278859,33.7923917 47.96,34.62 C47.7559284,35.4731059 47.1999905,36.1998221 46.43,36.62 C45.7619569,37.0070758 44.9703985,37.1216906 44.22,36.94 L44.22,36.94 C43.8616315,36.8289792 43.5238378,36.6600823 43.22,36.44 C43.0121554,36.2733523 42.746407,36.1965266 42.4817023,36.226564 C42.2169976,36.2566014 41.9752201,36.3910187 41.81,36.6 C41.4764306,37.0392147 41.5614366,37.6655748 42,38 C42.3095772,38.2289419 42.6452643,38.4202835 43,38.57 C43.0834268,39.6573045 42.5819049,40.7068436 41.6835274,41.3249932 C40.78515,41.9431428 39.6256912,42.0364804 38.64,41.57 C38.3331528,41.4279293 37.9752924,41.4505495 37.6887764,41.6301264 C37.4022604,41.8097034 37.2259018,42.1219106 37.22,42.46 C37.1966646,43.2948859 36.8263407,44.0822503 36.1981324,44.6326443 C35.5699242,45.1830382 34.740707,45.4466313 33.91,45.36 C33.69,45.36 33.37,45.29 32.99,45.23 C31.16,44.92 27.76,44.35 24.71,46.18 C24.3615741,46.4204458 24.2023041,46.8542368 24.3123607,47.2630183 C24.4224173,47.6717998 24.7779513,47.9669896 25.2,48 C25.3794833,48 25.5556443,47.9515893 25.71,47.86 C28.13,46.41 30.95,46.86 32.63,47.16 C33.1,47.24 33.49,47.3 33.77,47.32 C36.1568776,47.551729 38.3642704,46.0322999 39,43.72 C40.4366225,43.9834406 41.9171903,43.6170401 43.0651375,42.7139884 C44.2130847,41.8109366 44.9177829,40.4582611 45,39 C45.837415,38.9705619 46.6561497,38.7444677 47.39,38.34 C48.6542046,37.6280044 49.5586071,36.4148701 49.88,35 C50.1540279,33.764482 50.0207151,32.4734522 49.5,31.32 C49.2353913,30.6237694 49.4638302,29.8364711 50.06,29.39 C50.3493221,29.1573248 50.6110292,28.8922625 50.84,28.6 C52.2106337,26.8618436 52.3035483,24.4379834 51.07,22.6 C52.3281551,20.5795973 52.171736,17.9846442 50.68,16.13 Z"/>
      <path id="Path" fill="#3D454C" d="M30.57 34.26C30.3634066 34.0922295 30.0984591 34.0137311 29.8338175 34.0418844 29.5691759 34.0700378 29.3266732 34.2025203 29.16 34.41L17 49.51C16.4588946 48.9907084 15.858018 48.5375333 15.21 48.16 15.7747096 47.8053457 16.2475706 47.3222052 16.59 46.75 16.8187186 46.2685197 16.6295685 45.6922715 16.16 45.44 15.6790995 45.1786451 15.0774413 45.3524574 14.81 45.83 14.1434997 46.6365624 13.2040567 47.1703368 12.17 47.33 11.24 47.33 10.64 47.33 10.22 46.72 13.48 44.89 25 38 29.59 30.33 30.7623006 28.4043891 30.8531267 26.0088499 29.83 24 29.68745 23.7190096 29.5056261 23.4597422 29.29 23.23 28.9011565 22.8488571 28.2788435 22.8488571 27.89 23.23 27.7006873 23.4177666 27.5942017 23.6733625 27.5942017 23.94 27.5942017 24.2066375 27.7006873 24.4622334 27.89 24.65 27.9589959 24.735267 28.0161778 24.829449 28.06 24.93 28.7675905 26.3145897 28.6993119 27.9684475 27.88 29.29 22.93 37.56 8.61 45.35 8.46 45.42 8.03591242 45.6554876 7.84198903 46.1613747 8 46.62 8.91 49.34 11 49.34 12.33 49.34L12.33 49.34C14.49 49.34 16.25 51.62 16.27 51.65 16.454595 51.8962569 16.7423 52.0437979 17.05 52.05L17.05 52.05C17.354272 52.0485972 17.6413526 51.9087374 17.83 51.67L30.7 35.67C30.8700589 35.4659174 30.951926 35.2025562 30.9275369 34.9380285 30.9031478 34.6735008 30.7745071 34.4295482 30.57 34.26zM31.85 31.27C31.6908701 31.4821732 31.6225432 31.7488704 31.6600505 32.0114214 31.6975578 32.2739723 31.8378268 32.5108701 32.05 32.67 32.2230962 32.7998221 32.4336298 32.87 32.6499959 32.87 32.9647573 32.87 33.2611456 32.7218058 33.45 32.47 33.57 32.3 36.57 28.47 41.33 29.01 41.5940247 29.0439268 41.8606801 28.9711851 42.0709032 28.8078869 42.2811263 28.6445886 42.4175654 28.4042122 42.45 28.14 42.4897393 27.872824 42.4197043 27.6009351 42.2558326 27.3862067 42.0919609 27.1714783 41.848192 27.0321758 41.58 27 35.6499959 26.27 32 31.07 31.85 31.27zM33.45 24.74C33.2606873 24.9277666 33.1542017 25.1833625 33.1542017 25.45 33.1542017 25.7166375 33.2606873 25.9722334 33.45 26.16 33.6387188 26.3471865 33.894197 26.4515368 34.16 26.4500167 34.425803 26.4515368 34.6812812 26.3471865 34.87 26.16 36.2809945 24.6863271 37.1058979 22.7485152 37.19 20.71 37.19 20.1577153 36.7422847 19.71 36.19 19.71L36.19 19.71C35.6377153 19.71 35.19 20.1577153 35.19 20.71 35.1057845 22.2170581 34.4891479 23.6452452 33.45 24.74z"/>
      <circle id="Oval" cx="36.28" cy="16.78" r="1" fill="#3D454C" fill-rule="nonzero"/>
    </g>
  </g>
</svg>
