<svg xmlns="http://www.w3.org/2000/svg" width="64" height="64" viewBox="0 0 64 64" style="background:#fff">
  <g id="Grüntee" fill="none" fill-rule="evenodd" stroke="none" stroke-width="1">
    <rect width="64" height="64" fill="#FFF"/>
    <g transform="translate(2 7)">
      <rect id="Rectangle" width="60" height="60" x="0" y="0"/>
      <path id="Path" fill="#31E085" fill-rule="nonzero" d="M36.46,34.44 C33.32,31.11 27.53,34.97 25.09,37.5 C23.652097,38.8613807 22.614558,40.5906123 22.09,42.5 C21.97,43.06 21.52,45.07 22.32,45.5 C24.07,46.36 27.2,43.5 28.66,42.81 C31.52,41.5 35.06,41.33 36.94,38.69 C37.7612594,37.3281754 37.5643096,35.5843485 36.46,34.44 L36.46,34.44 Z" opacity=".5"/>
      <path id="Path" fill="#3D454C" fill-rule="nonzero" d="M26.84 17.4C27.0668636 17.6768808 27.4242085 17.811699 27.7774261 17.7536697 28.1306438 17.6956404 28.4260721 17.4535798 28.5524261 17.1186697 28.6787801 16.7837596 28.6168636 16.4068808 28.39 16.13 27.2624026 14.736166 27.2624026 12.743834 28.39 11.35 30.1806549 9.40236581 30.1806549 6.40763419 28.39 4.46 28.1399141 4.2045551 27.7725469 4.10193352 27.4262822 4.19079182 27.0800175 4.27965013 26.807461 4.54648862 26.7112822 4.89079183 26.6151034 5.23509504 26.7099141 5.6045551 26.96 5.86 28.055418 7.07336512 28.0204094 8.9288203 26.88 10.1 25.14877 12.2201209 25.1321075 15.2610346 26.84 17.4zM32.76 18.53C33.1079394 18.9607821 33.7392179 19.0279394 34.17 18.68 34.6007821 18.3320606 34.6679394 17.7007821 34.32 17.27 33.7367538 16.561229 33.7367538 15.538771 34.32 14.83 35.5513456 13.4937475 35.5513456 11.4362525 34.32 10.1 33.9389235 9.69959357 33.3054064 9.68392354 32.905 10.065 32.5045936 10.4460765 32.4889235 11.0795936 32.87 11.48 33.4242086 12.0761152 33.3974944 13.0066609 32.81 13.57 31.6464805 15.0121719 31.62579 17.0646655 32.76 18.53L32.76 18.53zM20.58 18.53C20.7481158 18.7359883 20.9913435 18.8665453 21.2559261 18.8928159 21.5205087 18.9190865 21.7846605 18.8389076 21.99 18.67 22.1959883 18.5018842 22.3265453 18.2586565 22.3528159 17.9940739 22.3790865 17.7294913 22.2989076 17.4653395 22.13 17.26 21.5560777 16.5516626 21.5560777 15.5383374 22.13 14.83 23.3445306 13.4781788 23.31843 11.4205786 22.07 10.1 21.8295052 9.81174326 21.4478254 9.68246357 21.0816582 9.76523635 20.7154911 9.84800912 20.4265286 10.1288888 20.3334035 10.4925609 20.2402783 10.8562331 20.3586804 11.2414261 20.64 11.49 21.1796664 12.0893966 21.1487438 13.0082422 20.57 13.57 19.4241377 15.0260941 19.4282757 17.0785381 20.58 18.53z"/>
      <path id="Shape" fill="#3D454C" fill-rule="nonzero" d="M53.18,34.15 C51.927549,32.2818705 49.8291069,31.1577051 47.58,31.15 L47.43,31.15 C47.5378234,29.4342229 47.5177679,27.7127994 47.37,26 C47.3742398,25.9701498 47.3742398,25.9398502 47.37,25.91 C47.37,25.91 47.37,25.86 47.37,25.84 L47.37,25.84 C47.3747341,25.7734174 47.3747341,25.7065826 47.37,25.64 C47.37,24.48 46.3,23.64 40.79,23.01 C36.179613,22.5249499 31.5457215,22.2979292 26.91,22.33 C22.2644585,22.2933418 17.6205124,22.5170257 13,23 C7.49,23.66 6.42,24.47 6.42,25.63 C6.40972156,25.7163619 6.40972156,25.8036381 6.42,25.89 C6.41407256,25.9129569 6.41407256,25.9370431 6.42,25.96 C6.15,29.22 6.02,37.62 10.51,45.18 C10.9777336,45.9849292 11.4954132,46.7597788 12.06,47.5 C15.2483083,51.9004648 20.2450057,54.6356152 25.67,54.95 L27.1,54.95 L28.27,54.95 C34.21,54.68 39.79,51.11 43.19,45.41 C43.4233333,45.03 43.6433333,44.64 43.85,44.24 C45.0325795,41.9985085 45.9263648,39.6162012 46.51,37.15 L47.16,37.15 C47.5855551,37.1456102 47.9858928,37.3513912 48.23,37.7 C48.3771106,37.910454 48.4509036,38.1634585 48.44,38.42 L48.35,41.22 C48.3379586,41.6915092 48.0530297,42.1130478 47.62,42.3 L47.09,42.55 C46.801157,42.6651058 46.4986532,42.7424123 46.19,42.78 C45.6377153,42.78 45.19,43.2277153 45.19,43.78 C45.19,44.3322847 45.6377153,44.78 46.19,44.78 C46.8139306,44.7517898 47.4274037,44.6094369 48,44.36 L48.53,44.12 C49.6493449,43.6157094 50.383018,42.5171407 50.42,41.29 L50.51,38.5 C50.5406231,37.8079885 50.3400872,37.1254626 49.94,36.56 C49.3228547,35.6736818 48.3100081,35.1467026 47.23,35.15 L47,35.15 C47.12,34.48 47.21,33.83 47.28,33.15 L47.61,33.15 C49.1886508,33.1502146 50.6644963,33.933087 51.55,35.24 C52.1181804,36.0679752 52.4056106,37.0564544 52.37,38.06 L52.26,41.71 C52.2152142,43.5189999 51.1443706,45.1446646 49.5,45.9 C47.8428865,46.5811854 46.0938164,47.0125553 44.31,47.18 C43.7577153,47.18 43.31,47.6277153 43.31,48.18 C43.31,48.7322847 43.7577153,49.18 44.31,49.18 C46.3752115,49.01074 48.4004369,48.5145598 50.31,47.71 C52.6140941,46.6342664 54.1151445,44.3517414 54.19,41.81 L54.3,38.16 C54.3571566,36.7388701 53.9652862,35.3358341 53.18,34.15 L53.18,34.15 Z M26.91,24.31 C35.68,24.31 41.91,24.98 44.41,25.63 C41.91,26.27 35.68,26.95 26.91,26.95 C18.14,26.95 11.91,26.27 9.41,25.63 C11.91,25 18.15,24.31 26.91,24.31 Z M42.12,43.31 C41.93,43.68 41.72,44.03 41.51,44.38 C38.51,49.51 33.51,52.72 28.27,52.95 L27.89,52.95 C27.22,52.95 26.52,52.95 25.82,52.95 C20.9837497,52.6665423 16.5322315,50.220411 13.7,46.29 C13.1833665,45.6041988 12.7059373,44.8897244 12.27,44.15 L12.27,44.15 C9.45376816,39.0970537 8.10313619,33.3585994 8.37,27.58 C10.67,28.29 15.74,28.95 26.91,28.95 C31.63,28.95 41.37,28.95 45.47,27.61 C45.751258,33.0466994 44.5958492,38.4616006 42.12,43.31 L42.12,43.31 Z"/>
      <path id="Shape" fill="#3D454C" fill-rule="nonzero" d="M37.27,33.8 C33.6493411,32.127611 29.4220629,32.4414743 26.0880826,34.6302252 C22.7541023,36.8189762 20.7852079,40.572887 20.88,44.56 C20.88,44.56 20.88,44.56 20.88,44.63 C20.3236675,45.380064 19.875923,46.2048565 19.55,47.08 C19.3865367,47.604475 19.6767657,48.1626077 20.2,48.33 C20.2968658,48.361865 20.3980356,48.3787267 20.5,48.38 C20.9352629,48.3782843 21.3194235,48.0952186 21.45,47.68 C21.7110413,47.039463 22.0466914,46.4319363 22.45,45.87 C23.6529562,46.3183393 24.9262127,46.5486091 26.21,46.55 C28.4817409,46.5307828 30.6961263,45.8344352 32.57,44.55 C36.0435626,42.4565265 38.0547244,38.5963311 37.78,34.55 C37.7396639,34.2328485 37.5501158,33.9541013 37.27,33.8 L37.27,33.8 Z M31.51,42.88 C29.2912945,44.4453369 26.4889829,44.9368418 23.87,44.22 C25.5975683,42.5174113 27.6339303,41.1598366 29.87,40.22 C30.1127867,40.1127185 30.3029607,39.9133133 30.3986226,39.6657178 C30.4942845,39.4181224 30.4875849,39.1426524 30.38,38.9 C30.2727185,38.6572133 30.0733133,38.4670393 29.8257178,38.3713774 C29.5781224,38.2757155 29.3026524,38.2824151 29.06,38.39 C26.8957513,39.3182073 24.8964415,40.5914164 23.14,42.16 C23.7544098,39.4646585 25.5078007,37.1683731 27.9461469,35.8657476 C30.384493,34.5631221 33.2679971,34.3822622 35.85,35.37 C35.7846407,38.4513099 34.1471196,41.2849004 31.51,42.88 L31.51,42.88 Z"/>
    </g>
  </g>
</svg>
