<svg xmlns="http://www.w3.org/2000/svg" width="64" height="64" viewBox="0 0 64 64" style="background:#fff">
  <g id="Gruyere" fill="none" fill-rule="evenodd" stroke="none" stroke-width="1">
    <rect width="64" height="64" fill="#FFF"/>
    <g transform="translate(2 8)">
      <rect id="Rectangle" width="60" height="60" x="0" y="0"/>
      <path id="Path" fill="#EBE53F" fill-rule="nonzero" d="M38.12,32.29 C35.97,29.67 32.53,25.75 28.5,27.65 C27.1780489,28.3387002 26.1071857,29.4270611 25.44,30.76 C22,33.5 20,39 20.12,42.32 C20.26,46.04 21.9,50.15 25.81,51.72 C28.92,52.96 33.26,53.72 36.45,52.41 C44.57,49 42.42,37.54 38.12,32.29 Z" opacity=".5"/>
      <path id="Path" fill="#EBE53F" fill-rule="nonzero" d="M47.62,14.75 C42.72,7.62 32.62,8.62 25.02,9.39 C17.89,10.12 10.76,12 9.43,20.1 C8.66,24.75 11.27,35.1 17.86,33.67 C18.42,33.54 18.52,32.8 18.32,32.34 C17.02,29.24 14.2,26.7 14.32,23.12 C14.59,17.77 20.94,17.53 25.16,17.12 C28.6457709,16.7551058 32.1584814,16.7249682 35.65,17.03 C40.43,17.53 47.76,21.18 42.09,26.43 C39.4,28.93 41.8,37.36 45.24,34.07 C50.5,29.15 51.82,20.84 47.62,14.75 Z" opacity=".5"/>
      <path id="Shape" fill="#3D454C" fill-rule="nonzero" d="M50.81,22.08 L50.81,22.08 C50.81,18.66 48.57,15.47 44.48,13.08 C36.42,8.42 23.29,8.42 15.22,13.08 C11.14,15.44 8.89,18.63 8.89,22.08 C8.89,22.08 8.89,22.08 8.89,22.14 L8.89,36 C8.89,36 8.89,36 8.89,36.06 L8.89,36.36 C8.87968217,36.4262675 8.87968217,36.4937325 8.89,36.56 C9.12,39.78 11.31,42.75 15.17,44.98 C16.2857339,45.604776 17.4494049,46.1397971 18.65,46.58 L18.65,51.07 C18.6451627,51.1365789 18.6451627,51.2034211 18.65,51.27 C18.6621319,51.321399 18.6788661,51.3716016 18.7,51.42 C18.7240464,51.4733394 18.7542518,51.5236817 18.79,51.57 C18.8242107,51.6185452 18.8609271,51.6652752 18.9,51.71 L19.04,51.8 L19.2,51.9 L19.2,51.9 C22.5933654,53.0204843 26.146491,53.5811486 29.72,53.56 C33.3316368,53.629273 36.9299585,53.1021949 40.37,52 L40.37,52 C40.4291543,51.9710886 40.4859896,51.937656 40.54,51.9 L40.68,51.81 C40.7188851,51.7675594 40.7524649,51.7205477 40.78,51.67 C40.8223235,51.626615 40.8562305,51.5757543 40.88,51.52 C40.8845273,51.4701025 40.8845273,51.4198975 40.88,51.37 C40.8894367,51.3036673 40.8894367,51.2363327 40.88,51.17 C40.88,51.17 40.88,51.17 40.88,51.17 L40.88,46.59 C42.1237352,46.1569298 43.3309047,45.6252402 44.49,45 C48.57,42.64 50.81,39.45 50.81,36 L50.81,36 C51.3493389,31.3756728 51.3493389,26.7043272 50.81,22.08 Z M16.14,14.69 C23.7,10.33 36.01,10.33 43.56,14.69 C47.05,16.69 48.97,19.33 48.97,22.07 C48.97,24.81 47.05,27.44 43.57,29.45 C42.3966689,30.1119668 41.1647849,30.6643061 39.89,31.1 L38.13,29.28 L38.68,29.15 C39.9898585,28.7305641 41.2531578,28.1776612 42.45,27.5 C45.21,25.91 46.72,23.98 46.72,22.07 C46.72,20.16 45.2,18.24 42.44,16.64 C38.5712619,14.5831773 34.2405971,13.5504274 29.86,13.64 C25.4759844,13.5482681 21.1415526,14.5810954 17.27,16.64 C14.5,18.24 13,20.17 13,22.07 C13,23.97 14.53,25.91 17.29,27.51 C18.4678913,28.1809858 19.7109495,28.7304779 21,29.15 L21.08,29.15 L21.56,29.25 L19.79,31.07 C18.5157974,30.6410423 17.2839058,30.0953946 16.11,29.44 C12.65,27.44 10.73,24.83 10.71,22.11 L10.71,22.05 L10.71,22.05 C10.74,19.32 12.66,16.71 16.14,14.69 Z M30.51,21.43 C30.1440034,21.069104 29.5559966,21.069104 29.19,21.43 L23.1,27.71 L21.54,27.38 C20.3755956,27.011166 19.2528509,26.5218505 18.19,25.92 C16.08,24.7 14.82,23.26 14.82,22.07 C14.82,20.88 16.08,19.45 18.19,18.23 C21.7894184,16.3565179 25.8031751,15.4210065 29.86,15.51 C33.9135013,15.4222625 37.923717,16.3577502 41.52,18.23 C43.62,19.45 44.88,20.89 44.88,22.07 C44.88,23.25 43.63,24.69 41.54,25.91 C40.4718099,26.5107948 39.3462078,27.0032457 38.18,27.38 L36.64,27.75 L30.51,21.43 Z M29.85,23.43 L39.16,33 L39.16,35.47 L30.51,26.56 C30.1440034,26.199104 29.5559966,26.199104 29.19,26.56 L20.55,35.47 L20.55,33 L29.85,23.43 Z M34.6,33.43 C31.4526745,33.8800589 28.2573255,33.8800589 25.11,33.43 L29.85,28.53 L34.6,33.43 Z M23.6,35.03 C25.6779267,35.4149909 27.7867095,35.6091329 29.9,35.61 C32.0133111,35.6095809 34.1221348,35.4154353 36.2,35.03 L37.95,36.83 C32.6703779,38.1701062 27.1396221,38.1701062 21.86,36.83 L23.6,35.03 Z M10.8,36.08 L10.8,27.23 C12.0292542,28.7877945 13.5553887,30.0861985 15.29,31.05 C16.4038278,31.6757301 17.5678542,32.2075697 18.77,32.64 L18.77,44.64 C17.8858178,44.2940255 17.0270366,43.8863551 16.2,43.42 C12.68,41.39 10.77,38.79 10.75,36.06 L10.8,36.08 Z M20.6,50.41 L20.6,38.41 C26.6826129,40.1407447 33.1273871,40.1407447 39.21,38.41 L39.21,50.41 C33.1226241,52.2333639 26.6334533,52.2264087 20.55,50.39 L20.6,50.41 Z M43.6,43.41 C42.7606475,43.8667054 41.8920972,44.2675748 41,44.61 L41,32.61 C42.2046426,32.1758048 43.3718485,31.6440405 44.49,31.02 C46.4037981,29.9733307 48.0525811,28.5024246 49.31,26.72 C49.4502692,29.783379 49.3466088,32.8530624 49,35.9 C49,35.9 49,35.9 49,35.97 L49,35.97 C49,38.75 47.05,41.37 43.57,43.39 L43.6,43.41 Z"/>
    </g>
  </g>
</svg>
