<svg xmlns="http://www.w3.org/2000/svg" width="64" height="64" viewBox="0 0 64 64" style="background:#fff">
  <g id="Gruyer" fill="none" fill-rule="evenodd" stroke="none" stroke-width="1">
    <rect width="64" height="64" fill="#FFF"/>
    <g transform="translate(2 8)">
      <g id="Layer_2">
        <rect id="Rectangle" width="60" height="60" x="0" y="0"/>
      </g>
      <g id="Layer_1" fill-rule="nonzero" transform="translate(5 7)">
        <path id="Path" fill="#E0A075" d="M45.94,5.71 C45.691899,4.61095767 44.8092201,3.76768402 43.7,3.57 C39.93,3.02 36.05,3.13 32.23,2.88 C28.87,2.66 25.51,2 22.14,2 C17,2 10.41,3.92 6.6,6.77 L6.6,6.77 C6.13006248,6.8834507 5.66887685,7.03049539 5.22,7.21 C4.86801565,7.4078572 4.63913598,7.76946878 4.61094019,8.17226581 C4.58274439,8.57506284 4.75901322,8.96503483 5.08,9.21 C7.84,11.3 11.28,11.58 14.85,12.21 C18.61,12.85 22.31,13.68 26.05,14.32 C32.19,15.39 39.12,12.06 44.66,10.17 C46.33,9.58 46.66,7.25 45.94,5.71 Z" opacity=".5"/>
        <path id="Path" fill="#EBE53F" d="M46.07 28.41C37.81 31.3 27.73 32.91 20.24 37.33 20.1810291 37.3666316 20.1242643 37.4067008 20.07 37.45 18.4364434 36.9440744 16.7641832 36.5728327 15.07 36.34 13.176338 35.8278111 11.1941394 35.7322835 9.26 36.06 6.48 36.63 6.13 41.06 8.2 42.64 9.94931787 43.9130831 11.9242142 44.8428452 14.02 45.38 16.02 45.94 18.17 46.87 20.27 46.77 21.87 46.69 22.73 45.24 23.08 43.84 31.34 43.75 40.47 39.78 47.95 37.22 51.78 35.92 50.48 26.87 46.07 28.41zM51.75 16.29C51.16 11.58 46.66 12.47 43.37 13.57 38.85 15.07 33.88 15.85 29.86 18.49 29.2652677 16.8031288 27.7733534 15.5933641 26 15.36 18.91 14.73 9.49 12.36 2.66 14.74-1.44 16.16-.1 23.66 3 25.34 6.24 27.13 10.68 27.34 14.34 27.8 18.34 28.3 22.39 28.67 26.42 29.11 28.42 29.33 29.8 27.77 30.42 25.63 34.88 27.3 39.86 25.78 44.25 24.47 48 23.31 52.35 21.05 51.75 16.29z" opacity=".5"/>
        <path id="Path" fill="#E0A075" d="M36,26.37 C33.06,26.11 30.48,27.6 27.83,28.69 C24.6,30 21.4,31.33 18.3,32.85 C16.66,33.66 17.3,37.66 19.39,37.05 C22.45,36.16 25.39,35.11 28.39,34.05 C31.39,32.99 34.86,32.16 36.94,30.05 C37.8,29.12 37.73,26.52 36,26.37 Z" opacity=".5"/>
        <path id="Shape" fill="#3D454C" d="M50,7.4 L50,7.33 C49.9891148,7.22644484 49.9621229,7.1252251 49.92,7.03 C49.9248892,7.00355744 49.9248892,6.97644256 49.92,6.95 C49.8852013,6.87277626 49.8378993,6.80182334 49.78,6.74 L49.7,6.67 C49.6296571,6.6109156 49.5524303,6.56055033 49.47,6.52 L49.4,6.52 L49.3,6.52 C48.88,6.41 39.03,3.93 35.56,3.46 C32.87,3.09 23.81,1.46 22.39,0.98 C21.7201653,0.764984093 20.9998347,0.764984093 20.33,0.98 C17.97,1.73 12.22,3.59 10.01,4.6 C7.41,5.79 2.39,7.41 2.34,7.42 L2.34,7.42 L2.26,7.42 C2.17784189,7.4569816 2.10058593,7.50400696 2.03,7.56 L1.96,7.64 C1.90183071,7.70012959 1.851437,7.7673212 1.81,7.84 C1.8062557,7.87657108 1.8062557,7.91342892 1.81,7.95 C1.77932622,8.03040449 1.75915959,8.11443211 1.75,8.2 C1.74552426,8.22647886 1.74552426,8.25352114 1.75,8.28 C1.75,8.78 1.34,20.68 1.75,24.68 C1.79460612,25.104649 2.10391666,25.4541297 2.52,25.55 C2.64,25.55 13.63,28.17 18.2,29.55 C13,31.21 7.45,33 7.38,33 C7.24928433,33.0383459 7.12939979,33.1068513 7.03,33.2 C7.03,33.2 7.03,33.2 7.03,33.2 C6.96786607,33.268941 6.91103721,33.3424842 6.86,33.42 C6.86,33.42 6.86,33.49 6.81,33.52 C6.78074527,33.6015608 6.75735244,33.6851066 6.74,33.77 C6.74,33.77 6.74,33.82 6.74,33.85 C6.59634756,36.5580963 6.59634756,39.2719037 6.74,41.98 C6.76147465,42.4058028 7.05055233,42.7711649 7.46,42.89 C7.6,42.89 10.76,43.83 13.35,44.34 C15.7194265,44.9175029 18.0561254,45.6218507 20.35,46.45 C20.4558375,46.4884365 20.5674065,46.5087218 20.68,46.51 L20.77,46.51 C20.8262512,46.519704 20.8837488,46.519704 20.94,46.51 C24.56436,45.6126406 28.1147275,44.4392141 31.56,43 C34.99,41.33 48.35,36.58 48.48,36.54 C48.8466966,36.4092882 49.1042057,36.0776477 49.14,35.69 C49.3927627,32.9758721 49.3927627,30.2441279 49.14,27.53 C49.14,27.53 49.14,27.47 49.14,27.44 C49.1226566,27.3616366 49.0992529,27.2847387 49.07,27.21 L49,27 L48.9,26.88 L48.75,26.75 L48.63,26.69 L48.44,26.61 L48.44,26.61 L45.9,26 C47.7,25.3 49.27,24.61 49.37,24.57 C49.719422,24.4180008 49.9520919,24.0806295 49.97,23.7 C50.2,19.19 50,7.88 50,7.4 Z M10.76,6.34 C12.93,5.34 19.04,3.39 20.86,2.81 C21.1327631,2.71997053 21.4272369,2.71997053 21.7,2.81 C23.31,3.34 32.7,5.03 35.21,5.37 C37.41,5.67 42.52,6.87 45.78,7.66 C44.67,8.1 43.4,8.59 42.35,8.92 C39.96,9.68 31.5,13.25 29.88,13.92 C26.4946942,13.4758616 23.1505839,12.760222 19.88,11.78 C17.43,10.89 10.42,9.14 6.17,8.11 C7.72,7.58 9.49,6.92 10.76,6.34 Z M21.25,28.4 L20.54,28.23 C20.29,28.23 20.04,28.12 19.88,28.07 C16.78,26.93 6.35,24.43 3.5,23.75 C3.27,20.19 3.45,12.53 3.5,9.55 C6.86,10.35 16.35,12.65 19.16,13.68 C22.3746918,14.6683424 25.666046,15.3874899 29,15.83 C29,17.63 29.08,21.97 29.07,25.77 C27,26.52 24.74,27.31 23.29,27.77 L21.29,28.43 C21.2774445,28.4190028 21.2640728,28.4089741 21.25,28.4 Z M8.64,41.19 C8.54,38.66 8.58,36.52 8.64,35.25 L19.64,38.34 C19.64,39.46 19.56,41.64 19.64,44.12 C17.7155659,43.4341439 15.752112,42.8631394 13.76,42.41 C11.87,42.06 9.72,41.49 8.64,41.19 Z M47.21,34.82 C44.52,35.82 33.83,39.62 30.68,41.15 C27.7262387,42.4125941 24.6808047,43.4489108 21.57,44.25 C21.5,41.72 21.57,39.47 21.57,38.36 C23.07,37.96 26.57,36.98 29.47,35.88 C29.9824931,35.6799933 30.237185,35.1035854 30.04,34.59 C29.847988,34.0749785 29.2763058,33.8114688 28.76,34 C25.68,35.19 21.67,36.27 20.62,36.54 L11.15,33.87 C14.72,32.73 20.46,30.87 23.96,29.68 C26.26,28.9 32.96,26.53 34.61,25.82 C34.8774903,25.6924628 35.1778148,25.650557 35.47,25.7 C36.77,25.96 41.39,27.03 44.63,27.78 C42.31,28.61 39.11,29.78 36.3,30.87 C35.8150337,31.0839275 35.5812374,31.6390979 35.7670608,32.135512 C35.9528843,32.6319261 36.4937652,32.8971103 37,32.74 C40.72,31.31 45.13,29.74 47.23,28.97 C47.3571077,30.9181633 47.3504254,32.8727514 47.21,34.82 L47.21,34.82 Z M48,23 C46.86,23.49 44.26,24.57 42.35,25.18 L42.35,25.18 C39.66,24.56 36.87,23.93 35.88,23.73 C35.1838306,23.6038108 34.4657767,23.6909533 33.82,23.98 C33.36,24.19 32.36,24.57 31.12,24.98 C31.12,21.22 31.07,17.13 31.05,15.55 C33.27,14.62 40.85,11.44 42.98,10.76 C44.62,10.24 46.69,9.41 47.98,8.85 C48.05,12 48.14,19.26 48,23 Z"/>
        <path id="Path" fill="#3D454C" d="M32.68,32.45 C32.1277153,32.45 31.68,32.8977153 31.68,33.45 C31.68,34.0022847 32.1277153,34.45 32.68,34.45 C33.2322847,34.45 33.68,34.0022847 33.68,33.45 C33.68,32.8977153 33.2322847,32.45 32.68,32.45 Z"/>
      </g>
    </g>
  </g>
</svg>
