<svg xmlns="http://www.w3.org/2000/svg" width="64" height="64" viewBox="0 0 64 64" style="background:#fff">
  <g id="Grüner-Spargel" fill="none" fill-rule="evenodd" stroke="none" stroke-width="1">
    <rect width="64" height="64" fill="#FFF"/>
    <g transform="translate(2 6)">
      <rect id="Rectangle" width="60" height="60" x="0" y="0"/>
      <path id="Path" fill="#31E085" fill-rule="nonzero" d="M52.29,15.14 C50.29,13.35 47.68,13.68 45.06,15 C45.96,13.66 46.85,12.32 47.72,11 C48.59,9.68 48.21,5.85 45.91,6.59 C42.6900323,7.75386288 39.8197344,9.71901884 37.57,12.3 C38.28,10.74 39.21,9.3 39.79,7.66 C39.99,7.09 39.97,6.02 39.39,5.66 C32.71,1.22 30.54,16.21 29.24,19.55 C27.6101519,23.6196226 25.2363107,27.3499445 22.24,30.55 C19.13,33.92 14.83,35.93 11.86,39.26 C9.86,41.49 8.92,51.18 14.1,50.26 C14.8521772,50.1272293 15.5891817,49.919528 16.3,49.64 L16.3,49.64 C16.76,51.83 19.03,54.79 21.36,52.64 L21.72,52.27 C22.29,54.27 24.1,55.81 26.05,54.34 C27.51311,53.1222659 28.5614831,51.4798148 29.05,49.64 C29.65,48.12 30.11,46.49 30.7,44.94 C32.2852461,40.5130424 34.372171,36.2821546 36.92,32.33 C39.2805815,28.9403453 42.0856469,25.8830258 45.26,23.24 C47.93,20.97 51.09,19.58 52.5,16.24 C52.6611245,15.864845 52.5779967,15.4294136 52.29,15.14 Z" opacity=".5"/>
      <circle id="Oval" cx="26.51" cy="21.46" r="1" fill="#3D454C" fill-rule="nonzero"/>
      <path id="Shape" fill="#3D454C" fill-rule="nonzero" d="M51.14,20 C53.2,15.94 52.35,13.2 52.31,13.08 C52.1760784,12.6829768 51.8088427,12.4115417 51.39,12.4 C50.4268021,12.3578003 49.4640707,12.4933963 48.55,12.8 C48.5021608,12.7322365 48.4486338,12.6686732 48.39,12.61 C48.8946681,10.7706555 48.8946681,8.82934447 48.39,6.99 C48.2703764,6.61460585 47.9414788,6.34443994 47.55,6.3 C47.41,6.3 44.85,6.05 41.06,8.41 C40.9454265,7.37438197 40.6722319,6.36255025 40.25,5.41 C40.0622973,5.00080986 39.6243097,4.76748939 39.18,4.84 C39.06,4.84 36.47,5.33 33.29,8.34 C33.1390185,8.28228085 32.9809146,8.24527782 32.82,8.23 C30.3,8 28.66,13.58 28.09,16 C27.9707248,16.5512406 27.8102748,17.0927593 27.61,17.62 C27.512161,17.8678988 27.5173235,18.1445967 27.6243417,18.3886732 C27.7313599,18.6327498 27.9313792,18.8240105 28.18,18.92 C28.2954829,18.9624407 28.4170281,18.9860745 28.54,18.99 C28.9522928,18.9887821 29.3215757,18.7346519 29.47,18.35 C29.6954671,17.7278928 29.8726583,17.0893357 30,16.44 C30.72,13.44 31.89,10.81 32.5,10.28 C32.7802538,10.9619349 32.9490737,11.6844839 33,12.42 C33.0476726,12.9691457 33.5307253,13.3761623 34.08,13.33 C34.6291457,13.2823274 35.0361623,12.7992747 34.99,12.25 C34.9443378,11.4527062 34.8033333,10.6637526 34.57,9.9 C35.7596506,8.67307758 37.1757434,7.68826483 38.74,7 C38.997902,7.89103766 39.1357848,8.81249826 39.15,9.74 L38.79,10.03 C38.6166883,9.94865782 38.4306115,9.89790961 38.24,9.88 C35.57,9.75 34,15.49 33.36,18 C33.0334457,19.5317316 32.3858769,20.9768327 31.46,22.24 L28.33,26.09 C27.6212194,26.9853952 26.5846913,27.5612441 25.45,27.69 C24.9275063,27.6883255 24.491797,28.0891781 24.45,28.61 C24.4286669,29.2352404 24.5482877,29.8572684 24.8,30.43 L20.11,36.19 C19.2543038,35.43504 18.467838,34.6050676 17.76,33.71 L18.33,33.03 L18.33,33.03 C18.5030962,33.1598221 18.7136298,33.23 18.93,33.23 C19.2447573,33.23 19.5411456,33.0818058 19.73,32.83 C20.0613708,32.3881722 19.9718278,31.7613708 19.53,31.43 C19.2581574,31.2236993 19.0529802,30.9420153 18.94,30.62 C20.1239946,30.2444929 21.1687144,29.5236362 21.94,28.55 L21.94,28.55 L24.67,25.26 C24.8400589,25.0559174 24.921926,24.7925562 24.8975369,24.5280285 C24.8731478,24.2635008 24.7445071,24.0195482 24.54,23.85 C24.3359174,23.6799411 24.0725562,23.598074 23.8080285,23.6224631 C23.5435008,23.6468522 23.2995482,23.7754929 23.13,23.98 L20.39,27.28 L20.39,27.28 C19.7587967,28.1308243 18.8100971,28.6899438 17.76,28.83 C17.2339358,28.8287097 16.796823,29.2352246 16.76,29.76 C16.73656,30.3054886 16.8250432,30.8500009 17.02,31.36 L16.6,32 C16.0938001,31.8595886 15.5652528,32.1347827 15.39,32.63 C15.3149813,32.8913906 15.3149813,33.1686094 15.39,33.43 L8.89,41.15 C7.9892647,42.2905615 8.03561231,43.9127277 9,45 C9.95818994,46.0573212 11.1402483,46.8874952 12.46,47.43 C12.5717199,47.9521893 12.8084955,48.4394666 13.15,48.85 C14.258466,50.0450373 15.6271342,50.9688884 17.15,51.55 C17.5044543,51.7011899 17.8847175,51.7826749 18.27,51.79 C19.172394,52.9275201 20.3167507,53.8498375 21.62,54.49 C22.0252058,54.6739766 22.4649845,54.7694325 22.91,54.7701402 C23.8950394,54.7795103 24.82198,54.304827 25.39,53.5 L28.55,49 L28.93,49 C29.3615785,49.0053692 29.79096,48.9377501 30.2,48.8 C30.680881,48.6256768 30.9526923,48.1165699 30.83,47.62 C30.7129102,46.8227265 30.8456606,46.0087571 31.21,45.29 C31.3862932,45.2886595 31.5614562,45.2617114 31.73,45.21 C32.2489865,45.0220467 32.5175381,44.4491367 32.33,43.93 C32.3012985,43.8571741 32.2607515,43.7895958 32.21,43.73 L37.34,36.35 C37.6025977,36.4309754 37.8752514,36.4747346 38.15,36.48 L38.39,36.48 C38.9026532,36.4032105 39.2716378,35.947406 39.24,35.43 C39.2379207,34.2042096 39.6113347,33.0071908 40.31,32 L40.31,32 L41.65,30.18 C42.5895832,28.96283 43.7754103,27.957603 45.13,27.23 C47.31,26 52.28,22.89 51.39,20.45 C51.3354118,20.2857427 51.2506247,20.1331259 51.14,20 Z M43.4,18.31 C42.430726,18.2234811 41.454884,18.2436015 40.49,18.37 C40.49,17.66 40.49,17 40.49,16.37 C42.0445517,16.0119315 43.5564475,15.4889698 45,14.81 C45.6381206,14.499531 46.3089546,14.2613849 47,14.1 C46.84,15 44.63,17.3 43.4,18.31 Z M46.4,12.18 C45.6454046,12.3781664 44.9119332,12.6494503 44.21,12.99 C42.9966176,13.5553687 41.7348748,14.0105332 40.44,14.35 C40.4026727,13.4453964 40.2549103,12.5487472 40,11.68 C43.13,9.08 45.57,8.46 46.69,8.33 C46.8827043,9.61703767 46.793999,10.9305579 46.43,12.18 L46.4,12.18 Z M38,12 C38.43,12.81 38.64,15.73 38.49,18.67 C37.74,18.8 36.91,18.95 35.99,19.14 C35.7275774,19.1709722 35.4624226,19.1709722 35.2,19.14 L35.13,19.14 C35.2,18.9 35.27,18.67 35.33,18.43 C36.08,15.2 37.34,12.45 38,12 Z M26.09,32 C26.249172,32.0997864 26.432201,32.1550404 26.62,32.16 C27.0504304,32.16 27.4325693,31.8845699 27.5686833,31.4762278 C27.7047973,31.0678856 27.5643443,30.6182582 27.22,30.36 C26.9237165,30.1370208 26.7008442,29.8305714 26.58,29.48 C27.826219,29.1565517 28.943164,28.4584611 29.78,27.48 L29.78,27.48 L29.84,27.4 L29.84,27.4 L29.84,27.4 L33,23.45 C33.4412609,22.8661417 33.8231532,22.2397043 34.14,21.58 C34.163397,21.5524091 34.1835303,21.5222091 34.2,21.49 C34.34,21.17 34.36,21.14 35.12,21.15 C35.5283932,21.170756 35.9378144,21.1439087 36.34,21.07 C41.13,20.07 42.88,20.22 43.46,20.35 C43.0500294,20.8378215 42.5554485,21.2477138 42,21.56 L40.47,22.48 C39.1984783,23.1925115 37.9666583,23.9736656 36.78,24.82 C36.2069237,25.2689813 35.7046385,25.8016059 35.29,26.4 L31.12,32.27 L31.12,32.27 C30.4143292,33.354967 29.9284787,34.5678944 29.69,35.84 C29.35174,35.7267108 29.0415139,35.5426205 28.78,35.3 C28.5156235,35.0588457 28.1426752,34.9770532 27.8016412,35.0854329 C27.4606072,35.1938125 27.2032987,35.4758989 27.1266412,35.8254329 C27.0499837,36.1749668 27.1656235,36.5388457 27.43,36.78 C27.5383618,36.8760889 27.6518623,36.9662216 27.77,37.05 L25.4,40.45 C24.83,40.05 24.2,39.58 23.52,39.05 C22.84,38.52 22.19,38 21.63,37.49 L26.09,32 Z M10.43,42.43 L16.43,35.25 C17.1666129,36.1293933 17.9653272,36.9548428 18.82,37.72 C18.1590328,38.51268 17.2304883,39.0356534 16.21,39.19 C15.6875063,39.1883255 15.251797,39.5891781 15.21,40.11 C15.1878842,40.6841337 15.2866865,41.2565058 15.5,41.79 L13,44.9 C12.8785511,45.0496362 12.7714146,45.210341 12.68,45.38 C11.8361505,44.9763505 11.0787801,44.412568 10.45,43.72 C10.1297521,43.3523715 10.1213026,42.8073796 10.43,42.43 Z M14.65,47.58 C14.2937691,47.1816053 14.268646,46.5870251 14.59,46.16 L16.79,43.45 L16.79,43.45 C16.9630962,43.5798221 17.1736298,43.65 17.39,43.65 C17.703008,43.6523716 17.9990686,43.508042 18.19,43.26 C18.3523027,43.0471731 18.4225146,42.7781657 18.3849261,42.5131665 C18.3473375,42.2481674 18.2050862,42.0092965 17.99,41.85 C17.6894354,41.6205524 17.4633143,41.3074617 17.34,40.95 C18.5034114,40.6002042 19.5436956,39.9274871 20.34,39.01 C20.94,39.51 21.59,40.01 22.29,40.59 C22.99,41.17 23.66,41.59 24.29,42.06 L19.22,49.35 C18.9120544,49.7685027 18.35327,49.9144538 17.88,49.7 C16.6625585,49.2354904 15.5605014,48.5121589 14.65,47.58 Z M23.72,52.37 C23.4127768,52.7780531 22.859979,52.9120647 22.4,52.69 C21.6089654,52.3009828 20.896928,51.7686501 20.3,51.12 C20.5140747,50.9474601 20.7026162,50.7454514 20.86,50.52 L26,43.2 C27.026175,43.8703203 28.1185931,44.4332843 29.26,44.88 C28.9756973,45.5521992 28.8164227,46.2706292 28.79,47 C28.4301151,46.9810588 28.0831473,46.8596201 27.79,46.65 C27.5093427,46.395819 27.1091927,46.321958 26.7562864,46.4591935 C26.4033801,46.5964291 26.1582549,46.92122 26.1230508,47.2982308 C26.0878466,47.6752415 26.2686024,48.0397999 26.59,48.24 L26.59,48.24 L23.72,52.37 Z M44.15,25.46 C42.5499281,26.3390227 41.1529398,27.5452028 40.05,29 L38.68,30.85 L38.68,30.85 C37.984063,31.8500585 37.5257411,32.9958632 37.34,34.2 C37.1535308,34.1027277 36.9761546,33.9889392 36.81,33.86 C36.3681722,33.5286292 35.7413708,33.6181722 35.41,34.06 C35.1022266,34.4826354 35.1719607,35.0710164 35.57,35.41 L30.2,43.11 C29.1091602,42.7173848 28.0685961,42.1971027 27.1,41.56 L29.65,37.9 C29.9400038,37.956579 30.2345469,37.9867027 30.53,37.99 L30.77,37.99 C31.0407286,37.9655736 31.2898478,37.8319879 31.46,37.62 C31.627645,37.4004953 31.7029918,37.1242238 31.67,36.85 C31.7161659,35.6276942 32.1041909,34.442832 32.79,33.43 L32.79,33.43 L37,27.55 C37.2726129,27.117821 37.6098627,26.7299838 38,26.4 C39.1207443,25.6063371 40.2823394,24.8719953 41.48,24.2 L43.04,23.26 C43.98,22.68 46.11,21.16 45.48,19.57 C45.4346265,19.4627487 45.381138,19.3591147 45.32,19.26 C46.4,18.26 48.22,16.49 48.76,14.85 C49.3105267,14.6273153 49.8894484,14.4825849 50.48,14.42 C50.5151306,16.1142811 50.0826282,17.7854702 49.23,19.25 C48.4197599,19.2411209 47.6111655,19.325 46.82,19.5 C46.2677153,19.6076955 45.9073045,20.1427153 46.015,20.695 C46.1226955,21.2472847 46.6577153,21.6076955 47.21,21.5 C47.9288117,21.3213456 48.6707557,21.2538962 49.41,21.3 C49.09,22.07 46.89,23.93 44.15,25.46 Z"/>
    </g>
  </g>
</svg>
