<svg xmlns="http://www.w3.org/2000/svg" width="64" height="64" viewBox="0 0 64 64" style="background:#fff">
  <g id="Grünkernschrot" fill="none" fill-rule="evenodd" stroke="none" stroke-width="1">
    <rect width="64" height="64" fill="#FFF"/>
    <g id="14-Grunkernschrot" transform="translate(2 6)">
      <g id="Layer_2">
        <rect id="Rectangle" width="60" height="60" x="0" y="0"/>
      </g>
      <g id="Layer_1" transform="translate(7 6)">
        <g id="Layer_14" fill-rule="nonzero" transform="translate(20 22)">
          <path id="Path" fill="#31E085" fill-opacity=".5" d="M18.61,2.06 C18.06,2.44 17.38,2.87 16.67,3.35 C14.44,1.04 9.21,0.65 9.48,4.11 C9.81,8.21 4.48,10.25 2.55,13.43 C0.533007932,16.6314493 1.34672307,20.8487686 4.41,23.07 C7.21838158,25.3249767 11.2248353,25.2957325 14,23 C16.79,20.56 16.69,15.44 21.15,15.35 C23.85,15.3 25.26,12.16 22.96,10.35 C22.89,10.35 22.35,9.93 21.68,9.49 C22.61,8.9 23.55,8.02 24.48,7.4 C28.3,4.72 21.78,-0.13 18.61,2.06 Z"/>
          <path id="Shape" fill="#3D454C" d="M24.14,10.62 L23,11.75 C22.7113761,11.23266 22.3435964,10.7636566 21.91,10.36 C24.04,7.84 23.91,5.49 23.46,4.15 L25.46,2.15 C25.6957953,1.91420471 25.7878838,1.57052559 25.7015768,1.24842323 C25.6152697,0.926320878 25.3636791,0.674730299 25.0415768,0.588423234 C24.7194744,0.502116168 24.3757953,0.594204711 24.14,0.83 L22.23,2.75 C21.6309335,2.47543238 20.9789747,2.3354831 20.32,2.34 L20.32,2.34 C18.6448695,2.3936481 17.0445847,3.0465359 15.81,4.18 C15.276424,3.61141668 14.6290271,3.1616462 13.91,2.86 L14.63,2.15 C14.8657953,1.91420471 14.9578839,1.57052558 14.8715768,1.24842322 C14.7852697,0.926320854 14.5336791,0.674730268 14.2115768,0.588423204 C13.8894744,0.50211614 13.5457953,0.594204695 13.31,0.83 L11.31,2.83 C11.2032003,2.94358107 11.1244371,3.08056043 11.08,3.23 C10.1162238,4.35541302 9.46453456,5.71396089 9.19,7.17 C8.77748982,7.01308841 8.34782032,6.90567103 7.91,6.85 C7.69077448,6.82646171 7.47045883,6.88331736 7.29,7.01 C7.19929473,7.06265661 7.11815007,7.13027716 7.05,7.21 C5.84376648,8.417471 5.0314537,9.96191117 4.72,11.64 C4.30748982,11.4830884 3.87782032,11.375671 3.44,11.32 C3.15808462,11.2834599 2.87567508,11.3837896 2.68,11.59 L2.57,11.69 C-0.461237896,14.7208352 -0.724139485,19.5478808 1.96,22.89 L0.54,24.31 C0.180277734,24.6725826 0.180277734,25.2574174 0.54,25.62 C0.713243675,25.7983964 0.951326219,25.8990632 1.2,25.8990632 C1.44867378,25.8990632 1.68675633,25.7983964 1.86,25.62 L3.28,24.21 C4.76609151,25.4104289 6.61963758,26.0635832 8.53,26.060018 C10.7783596,26.0646352 12.9365296,25.1761886 14.53,23.59 C14.5875415,23.5354495 14.6349435,23.4711184 14.67,23.4 L14.74,23.29 C14.8393451,23.1174991 14.8813632,22.9179132 14.86,22.72 C14.8052825,22.2862584 14.7012771,21.860172 14.55,21.45 C16.2257742,21.1402486 17.767491,20.3275336 18.97,19.12 L19.05,19.03 C19.2629513,18.8341085 19.3673827,18.5469221 19.33,18.26 C19.2364315,17.825923 19.0955914,17.4034027 18.91,17 C20.5984236,16.6892312 22.1512964,15.8691748 23.36,14.65 L23.46,14.54 C23.6426587,14.3433274 23.7303194,14.0766928 23.7,13.81 L23.7,13.7 L25.49,11.92 C25.8545079,11.5554921 25.8545079,10.964508 25.49,10.6 C25.125492,10.2354921 24.5345079,10.2354921 24.17,10.6 L24.14,10.62 Z M21.58,4.49 C21.87,4.88 22.51,6.91 20.33,9.35 C19.6571069,9.0606541 18.9324652,8.91096286 18.2,8.91 C17.8373038,8.91191642 17.4756348,8.94875307 17.12,9.02 C17.1971354,8.66527754 17.2340351,8.30298982 17.23,7.94 C17.2306125,7.1998927 17.0773709,6.46773869 16.78,5.79 C19.24,3.61 21.24,4.24 21.58,4.49 L21.58,4.49 Z M8.46,24.25 C4.8409179,24.2444831 1.90989198,21.3090863 1.90989198,17.69 C1.90060687,16.0660964 2.50411314,14.4984085 3.6,13.3 C4.26748542,13.4577927 4.87517831,13.8050458 5.35,14.3 C6.04132878,14.9886291 6.4299591,15.9242206 6.43,16.9 C6.42458079,17.8698037 6.04064254,18.7991496 5.36,19.49 L5.36,19.49 C5.11717629,19.7225379 5.01876686,20.0680299 5.10261518,20.3936165 C5.18646351,20.7192032 5.43951269,20.9741841 5.76445232,21.0605059 C6.08939196,21.1468277 6.4356223,21.0510484 6.67,20.81 L6.67,20.81 C7.6118363,19.8646968 8.9944626,19.5087049 10.2757073,19.88162 C11.5569521,20.2545352 12.5325737,21.2969114 12.82,22.6 C11.6152773,23.6612443 10.0654878,24.2477472 8.46,24.25 L8.46,24.25 Z M13.52,19.74 C13.4869181,19.7457905 13.4530819,19.7457905 13.42,19.74 C12.376732,18.5291205 10.8583221,17.8319659 9.26,17.83 C8.90033852,17.8264616 8.54141884,17.8633599 8.19,17.94 C8.26170203,17.5810597 8.29854,17.2160289 8.3,16.85 C8.2750954,15.404143 7.69085722,14.0241939 6.67,13 C6.58,12.91 6.47,12.84 6.37,12.75 C6.37449834,12.7134713 6.37449834,12.6765287 6.37,12.64 C6.5083242,11.2387753 7.0898187,9.9181523 8.03,8.87 C8.7004433,9.02760986 9.31140068,9.37474474 9.79,9.87 C11.2164615,11.3020538 11.2164615,13.6179462 9.79,15.05 L9.79,15.05 C9.55420471,15.2857953 9.46211617,15.6294744 9.54842323,15.9515768 C9.6347303,16.2736791 9.88632088,16.5252697 10.2084232,16.6115768 C10.5305256,16.6978838 10.8742047,16.6057953 11.11,16.37 L11.11,16.37 C11.7993828,15.6945265 12.7248603,15.3142915 13.69,15.31 C15.396584,15.3085824 16.877651,16.4867982 17.26,18.15 C16.2130712,19.0625315 14.9035442,19.6192556 13.52,19.74 L13.52,19.74 Z M18,15.27 C17.9669181,15.2642095 17.9330819,15.2642095 17.9,15.27 C16.6056787,13.774965 14.6115592,13.0848395 12.67,13.46 C13.0399458,11.6436016 12.4682955,9.76317301 11.15,8.46 C11.06,8.37 10.96,8.3 10.86,8.21 L10.86,8.12 C10.987885,6.71691674 11.5627474,5.39192903 12.5,4.34 C13.8013092,4.63383762 14.8396651,5.61245203 15.2100081,6.89408856 C15.5803512,8.17572508 15.2240129,9.55735176 14.28,10.5 L14.28,10.5 C13.9154921,10.8645079 13.9154921,11.4554921 14.28,11.82 C14.6445079,12.1845079 15.2354921,12.1845079 15.6,11.82 L15.6,11.82 C16.5402904,10.8815461 17.9152682,10.5262856 19.1924704,10.8917939 C20.4696726,11.2573021 21.4485384,12.2861829 21.75,13.58 C20.7167048,14.5356349 19.4003636,15.128866 18,15.27 L18,15.27 Z"/>
        </g>
        <path id="Path" fill="#3CDE88" fill-opacity=".5" d="M21.21 4.29C20.93 4.65 20.65 5.02 20.36 5.38 19.2250548 6.83527032 19.4847297 8.93505484 20.94 10.07 22.3952703 11.2049452 24.4950548 10.9452703 25.63 9.49 25.92 9.13 26.2 8.77 26.48 8.4 27.6149452 6.94472968 27.3552703 4.84494516 25.9 3.71 24.4447297 2.57505484 22.3449452 2.83472968 21.21 4.29L21.21 4.29zM3 5.71C3.5958194 6.73000015 4.10751336 7.79686533 4.53 8.9 4.97300933 10.0093097 5.97417649 10.7980114 7.1563715 10.9690089 8.33856651 11.1400064 9.52218582 10.667321 10.2613715 9.72900888 11.0005572 8.79069672 11.1830093 7.52930966 10.74 6.42 10.1910993 4.98293877 9.52206509 3.59469288 8.74 2.27 7.79007023.684942768 5.73505723.17007023 4.15 1.12 2.56494277 2.06992977 2.05007023 4.12494277 3 5.71L3 5.71zM21.56 19.67C20.56 20.39 19.61 21.13 18.65 21.9 17.7175368 22.6466851 17.254257 23.8341137 17.4346737 25.0149931 17.6150904 26.1958724 18.4117939 27.1907988 19.5246737 27.6249931 20.6375535 28.0591874 21.8975368 27.8666851 22.83 27.12 23.71 26.41 24.61 25.72 25.52 25.06 27.0084074 23.9554305 27.3195695 21.8534074 26.215 20.365 25.1104305 18.8765926 23.0084074 18.5654305 21.52 19.67L21.56 19.67zM9.87 32.57C8.73 34 8.77 34 7.62 35.39 6.4519178 36.8204175 6.66458256 38.9269177 8.09500004 40.0949999 9.52541753 41.2630822 11.6319177 41.0504175 12.8 39.62 14.01 38.14 13.97 38.19 15.16 36.62 15.8888218 35.6750325 16.0581468 34.4130247 15.6041918 33.3093628 15.1502369 32.2057009 14.1419686 31.4280573 12.9591918 31.2693628 11.7764151 31.1106684 10.5988218 31.5950325 9.87 32.54L9.87 32.57zM1.25 21.66C2 22.48 2.7 23.32 3.4 24.19 4.14847141 25.1224632 5.33755071 25.58479 6.51932322 25.4028263 7.70109574 25.2208626 8.69602212 24.4222532 9.12932322 23.3078263 9.56262433 22.1933995 9.36847141 20.9324632 8.62 20 7.84 19 7.04 18 6.18 17.11 5.37257977 16.2293403 4.15666636 15.8463308 2.99028259 16.1052474 1.82389882 16.364164.884246125 17.2256711.525282587 18.3652474.16631905 19.5048237.442579767 20.7493403 1.25 21.63L1.25 21.66z"/>
        <path id="Shape" fill="#3C454E" d="M14 34.3C12.93 32.03 10.21 32.06 8.28 33.3 7.15119996 34.04657 6.30323589 35.1478678 5.87 36.43 5.35281337 37.7646781 5.48202435 39.2635255 6.22 40.49 6.82446485 41.4651214 7.83137181 42.1208248 8.96765067 42.2792855 10.1039295 42.4377461 11.2518136 42.0825407 12.1 41.31 14.2544923 39.677784 15.0353587 36.7967976 14 34.3zM12.31 35.09C12.9950707 36.791983 12.4344439 38.7418098 10.95 39.82 10.5074122 40.2478518 9.89667562 40.4553518 9.28504992 40.3856729 8.67342421 40.3159941 8.12501038 39.976439 7.79 39.46 7.33974115 38.7177681 7.26206178 37.8078097 7.58 37 7.87537484 36.1170126 8.45578315 35.3572053 9.23 34.84 10.23 34.2 11.7 33.84 12.23 35.07L12.31 35.09zM23.83 21C22.76 18.73 20.04 18.76 18.11 20 16.9812 20.74657 16.1332359 21.8478678 15.7 23.13 15.1843491 24.464897 15.3135 25.963047 16.05 27.19 16.6544648 28.1651214 17.6613718 28.8208248 18.7976507 28.9792855 19.9339295 29.1377461 21.0818136 28.7825407 21.93 28.01 24.0797916 26.3790921 24.8601633 23.5040385 23.83 21.01L23.83 21zM22.15 21.79C22.8329845 23.4942341 22.2680809 25.4445946 20.78 26.52 20.3374122 26.9478518 19.7266756 27.1553518 19.1150499 27.0856729 18.5034242 27.0159941 17.9550104 26.676439 17.62 26.16 17.1941102 25.4145993 17.135096 24.5146331 17.46 23.72 17.7553748 22.8370126 18.3357831 22.0772053 19.11 21.56 20.12 20.93 21.58 20.61 22.15 21.8L22.15 21.79zM23.79 4.49C22.5715221 3.78515524 21.0507487 3.87160747 19.92 4.71 18.5392512 5.70570244 17.5434394 7.14645141 17.1 8.79 16.731256 10.1661032 17.1107633 11.6347962 18.1 12.66 19.56004 14.0891935 21.862481 14.1883624 23.44 12.89 24.6585307 11.8746074 25.4713118 10.4549024 25.73 8.89 26.1053751 7.153804 25.2908046 5.37804018 23.73 4.53L23.79 4.49zM22.88 6.12C23.7413218 6.61281459 24.1733687 7.61548949 23.94 8.58 23.7656207 9.69343081 23.1936409 10.7059416 22.33 11.43 21.4889699 12.1322511 20.2553773 12.093567 19.46 11.34 18.9150625 10.7596934 18.7105918 9.93802403 18.92 9.17 19.1920964 8.20448235 19.7249226 7.33258482 20.46 6.65 21.0469804 5.93486114 22.0478452 5.71566348 22.88 6.12L22.88 6.12z"/>
        <path id="Path" fill="#3C454E" d="M3.46,21.83 C4.02304999,23.3304525 5.15485257,24.5484876 6.61,25.22 C7.318758,25.5478163 8.13998355,25.525621 8.83,25.16 C9.68526519,24.5931061 10.0640758,23.5299924 9.76,22.55 C9.62745166,22.0529437 9.92294373,21.5425483 10.42,21.41 C10.9170563,21.2774517 11.4274517,21.5729437 11.56,22.07 C12.0733746,23.8527881 11.3532459,25.7609258 9.79,26.76 C8.63189586,27.4222528 7.23239196,27.5108757 6,27 C4.06385973,26.1431462 2.5463479,24.5537144 1.78,22.58 C1.77566466,22.556868 1.77566466,22.533132 1.78,22.51 C1.42442022,21.420217 1.26858579,20.2751727 1.32,19.13 C1.33812143,17.7801353 2.05304391,16.5356406 3.21,15.84 C4.6459282,15.148465 6.33961964,15.2623904 7.67,16.14 C7.99594211,16.2950985 8.20269697,16.6247926 8.20037779,16.9857475 C8.19805862,17.3467024 7.98708437,17.6737125 7.6591762,17.8246099 C7.33126803,17.9755074 6.9456618,17.923033 6.67,17.69 C5.92504278,17.1740555 4.96283196,17.090385 4.14,17.47 C3.53367494,17.8645359 3.17729294,18.5469695 3.2,19.27 C3.15914299,20.1506721 3.27771354,21.0314818 3.55,21.87 L3.46,21.83 Z"/>
        <path id="Path" fill="#3C454E" d="M8.47,18.83 C8.59966698,18.4357711 8.95935501,18.1626014 9.37392142,18.1435053 C9.78848784,18.1244091 10.1717654,18.3633557 10.337125,18.7439949 C10.5024847,19.124634 10.4155565,19.5678503 10.1186685,19.8578286 C9.82178041,20.147807 9.37664033,20.2242758 9,20.05 C8.53927199,19.8368159 8.31138392,19.3122434 8.47,18.83 Z"/>
        <path id="Shape" fill="#3C454E" d="M4,8 C3.00247367,6.17215981 3.41941527,3.89565867 5,2.54 C6.0899814,1.62467373 7.64684826,1.51953467 8.85,2.28 C10.3667394,3.16796752 11.5345737,4.54749384 12.16,6.19 C13.07,9.29 10.68,12.33 7.62,11.45 C5.97847432,10.8657337 4.66248728,9.61154716 4,8 Z M5.69,7.2 C5.69328283,7.17678213 5.69328283,7.15321787 5.69,7.13 C5.08239368,6.09544886 5.29190137,4.77555036 6.19,3.98 C6.70596912,3.57180268 7.42771437,3.54747419 7.97,3.92 C9.0631872,4.55559298 9.90907792,5.54246549 10.37,6.72 C10.86,8.37 9.76,10.13 8.13,9.66 C7.0193414,9.21445901 6.1479857,8.32131942 5.73,7.2 L5.69,7.2 Z"/>
      </g>
    </g>
  </g>
</svg>
