<svg xmlns="http://www.w3.org/2000/svg" width="64" height="64" viewBox="0 0 64 64" style="background:#fff">
  <g id="Grünkern" fill="none" fill-rule="evenodd" stroke="none" stroke-width="1">
    <rect width="64" height="64" fill="#FFF"/>
    <g transform="translate(2 4)">
      <rect id="Rectangle" width="60" height="60" x="0" y="0"/>
      <g id="Group" fill="#D4BA39" fill-rule="nonzero" opacity=".5" transform="translate(7 6)">
        <path id="Path" d="M0.5,1.79 C0.809446844,0.764379578 1.87207839,0.164720283 2.91,0.43 C6.6,1.25 8.68,5.71 9.99,8.9 C11.53,12.66 13.17,16.9 11.41,20.76 C10.67,22.43 7.96,22.67 6.81,21.35 C4.41,18.6 4.26,14.75 3.05,11.35 C1.94,8.34 -0.1,5.12 0.5,1.79 Z"/>
      </g>
      <g id="Group" fill="#D4BA39" fill-rule="nonzero" opacity=".5" transform="translate(19 8)">
        <path id="Path" d="M3.34,11 C4.86796744,7.07962047 7.08261521,3.4630397 9.88,0.32 C10.57,-0.47 11.68,0.39 11.51,1.27 C10.76,5.2 9.92,9.09 9.12,13.01 C8.4,16.58 8.46,20.84 6.37,23.89 C5.78774719,24.8237382 4.71405269,25.3316907 3.62285731,25.1896416 C2.53166193,25.0475925 1.62379532,24.2816853 1.3,23.23 C2.22044605e-16,19.31 1.89,14.7 3.34,11 Z"/>
      </g>
      <g id="Group" fill="#D4BA39" fill-rule="nonzero" opacity=".5" transform="translate(33 8)">
        <path id="Path" d="M13.66,3 C13.84,6.9 12.26,10.67 10.58,14.11 C9.04,17.26 7.11,21.73 3.23,22.25 C2.5733719,22.3979421 1.88505189,22.2413876 1.35700535,21.8239979 C0.828958808,21.4066082 0.51768684,20.773044 0.51,20.1 C0.27,16.66 3.15,14.16 4.82,11.39 C6.66,8.34 7.88,4.91 9.82,1.96 C10.1889938,1.00468295 11.2200055,0.482449398 12.2084968,0.75016579 C13.1969881,1.01788218 13.8235398,1.98903915 13.66,3 Z"/>
      </g>
      <g id="Group" fill="#D4BA39" fill-rule="nonzero" opacity=".5" transform="translate(42 35)">
        <path id="Path" d="M1.08,2.18 C1.36,0.3 3.85,0.49 4.72,1.7 C6.57,4.27 7.33,7.62 8.18,10.63 C9.14809791,13.5015437 9.42895733,16.5601713 9,19.56 C8.66,21.56 6,21.37 5.07,20.07 C3.07,17.33 2.44,14.36 1.81,11.07 C1.27,8.09 0.64,5.17 1.08,2.18 Z"/>
      </g>
      <g id="Group" fill="#D4BA39" fill-rule="nonzero" opacity=".5" transform="translate(24 33)">
        <path id="Path" d="M2.51,10.32 C3.99,6.91 5.3,3.18 7.86,0.44 C8.26994922,0.053785137 8.86842005,-0.0558230131 9.38863707,0.160034671 C9.90885408,0.375892355 10.2539131,0.877006662 10.27,1.44 C10.51,5.02 9.21,8.6 8.27,12.01 C7.33,15.42 6.61,19.01 3.88,21.21 C2.74,22.15 0.64,21.99 0.29,20.21 C-0.43,16.67 1.1,13.56 2.51,10.32 Z"/>
      </g>
      <g id="Group" fill="#D4BA39" fill-rule="nonzero" opacity=".5" transform="translate(8 29)">
        <path id="Path" d="M0.69,13.88 C0.83,10.15 0.82,6.24 2,2.68 C2.38307609,1.46433045 3.51040212,0.637596149 4.785,0.637596149 C6.05959788,0.637596149 7.18692391,1.46433045 7.57,2.68 C8.8,6.22 8.82,10.16 9.02,13.88 C9.22,17.6 9.76,21.65 8.35,25.25 C7.87412965,26.7430716 6.48707225,27.7567937 4.92,27.7567937 C3.35292775,27.7567937 1.96587035,26.7430716 1.49,25.25 C5.55111512e-17,21.68 0.54,17.65 0.69,13.88 Z"/>
      </g>
      <path id="Shape" fill="#3D454C" fill-rule="nonzero" d="M22.33 15.94C21.79 18.71 19.05 26.67 23.63 27.82 27.77 28.82 29.37 20.87 29.94 18.29 30.51 15.71 33.48 6.36 28.44 5.61 24.36 5 22.86 13.49 22.33 15.94zM24.26 16.47C24.58 15 25.7 8.15 27.6 7.84 30.74 7.32 28.47 15.59 28.16 17.07 27.85 18.55 26.63 25.39 24.83 25.68 21.55 26.2 24.07 17.45 24.26 16.47L24.26 16.47zM38 17.89C36.79 20.54 32 28.38 37.1 30 41.65 31.44 43.93 24.05 45.19 21.18 46.28 18.7 50.83 10.89 46.19 9.18 42.33 7.66 39 15.58 38 17.89zM44.24 11.67C48.16 10.81 43.91 19.2 43.44 20.27 42.86 21.59 41.18 26.92 39.62 27.44 35.28 28.9 37.5 24.13 37.81 23.34 38.41 21.8 39.13 20.34 39.81 18.78 40.49 17.22 42.36 12.08 44.2 11.67L44.24 11.67zM25.76 43.31C24.92 45.81 21 54.06 25.9 55.31 29.79 56.31 32.17 48.95 33.09 46.39 34.01 43.83 38.09 34.9 33.09 33.71 29.09 32.75 26.64 40.8 25.76 43.31zM27.69 43.84C27.84 43.42 31.97 32.66 33.48 37.53 34.08 39.46 31.78 44.13 31.16 45.83 30.86 46.67 27.68 55.7 25.52 51.83 24.7 50.35 27.25 45.15 27.69 43.84zM8.07 18.32C8.65 21.08 9.5 30 14.53 28.5 18.67 27.24 16.88 19.31 16.3 16.42 15.72 13.53 14.82 5.12 10 6.22 5.64 7.21 7.52 15.5 8.07 18.32zM10 17.79C9.75 16.55 8.3 5.08 12.47 9.73 13.82 11.23 14 15 14.37 17 14.57 18 15.94 29.76 12.07 25.36 10.62 23.66 10.43 19.82 10 17.79z"/>
      <path id="Path" fill="#3D454C" fill-rule="nonzero" d="M13,22.36 C13.5522847,22.36 14,22.8077153 14,23.36 C14,23.9122847 13.5522847,24.36 13,24.36 C12.4477153,24.36 12,23.9122847 12,23.36 C12,22.8077153 12.4477153,22.36 13,22.36 Z"/>
      <path id="Shape" fill="#3D454C" fill-rule="nonzero" d="M40.31,44.45 C41.31,47.3 42.97,55.34 47.69,53.94 C52.11,52.63 49.23,44.48 48.32,41.75 C47.32,38.75 45.76,31.57 41.32,32.2 C36.34,32.91 39.46,41.87 40.31,44.45 Z M42.24,43.92 C41.4589817,41.8480629 40.9513721,39.6831585 40.73,37.48 C40.63,35.98 40.28,32.61 43.55,35.38 C45.13,36.72 45.73,40.3 46.39,42.28 C46.8807754,43.6618143 47.278334,45.0749847 47.58,46.51 C47.8099764,47.5816897 47.9305944,48.6739528 47.94,49.77 C48.29,51.28 47.78,51.71 46.42,51.07 C43.74,50.86 43,46.16 42.24,43.92 Z"/>
      <path id="Path" fill="#3D454C" fill-rule="nonzero" d="M45.89,47.94 C46.4422847,47.94 46.89,48.3877153 46.89,48.94 C46.89,49.4922847 46.4422847,49.94 45.89,49.94 C45.3377153,49.94 44.89,49.4922847 44.89,48.94 C44.89,48.3877153 45.3377153,47.94 45.89,47.94 Z"/>
      <path id="Shape" fill="#3D454C" fill-rule="nonzero" d="M10.74,41.89 C10.12,44.69 7.13,53.24 12.39,53.95 C16.62,54.52 18.32,46.55 18.97,43.79 C19.67,40.79 22.31,33.18 17.68,31.85 C13.25,30.59 11.39,39.16 10.74,41.89 Z M11.74,46.64 C12.01,45.22 12.36,43.82 12.67,42.42 C12.94,41.26 15.44,31 18.28,35.9 C19.08,37.29 17.43,41.63 17.05,43.25 C16.760936,44.5716858 16.3902252,45.8741832 15.94,47.15 C15.5995375,48.1348034 15.1746241,49.0883493 14.67,50 C14.37,51 13.74,51.16 12.77,50.3 C10.65,49.57 11.35,48.72 11.74,46.64 Z"/>
      <path id="Path" fill="#3D454C" fill-rule="nonzero" d="M13.11,47.62 C13.6622847,47.62 14.11,48.0677153 14.11,48.62 C14.11,49.1722847 13.6622847,49.62 13.11,49.62 C12.5577153,49.62 12.11,49.1722847 12.11,48.62 C12.11,48.0677153 12.5577153,47.62 13.11,47.62 Z"/>
    </g>
  </g>
</svg>
