<svg xmlns="http://www.w3.org/2000/svg" width="64" height="64" viewBox="0 0 64 64" style="background:#fff">
  <g id="Gurke" fill="none" fill-rule="evenodd" stroke="none" stroke-width="1">
    <rect width="64" height="64" fill="#FFF"/>
    <g transform="translate(2 4)">
      <rect id="Rectangle" width="60" height="60" x="0" y="0"/>
      <path id="Path" fill="#31E085" fill-rule="nonzero" d="M52.42,23.12 C52.2,22.25 51.21,20.27 49.95,21.12 L49.83,21.2 C48.7950003,19.2661564 46.5407702,18.3293335 44.44,18.96 C41.22,19.81 39.29,23.72 37.03,26.04 C34.7358292,28.4235341 32.2287483,30.592544 29.54,32.52 C23.89,36.52 17.54,38.81 10.98,40.93 C4.42,43.05 5.98,57.54 12.91,57.93 C23.3617538,58.5401744 33.6224607,54.9386627 41.4,47.93 C47.83,42 54.78,32.22 52.42,23.12 Z" opacity=".5"/>
      <path id="Shape" fill="#3D454C" fill-rule="nonzero" d="M55.24,28.28 C55.239912,25.2954945 53.9402836,22.4589461 51.68,20.51 L51.82,20.33 C52.6774291,19.2152802 53.2258549,17.8942293 53.41,16.5 C53.7975072,13.4039444 51.9098022,10.4754734 48.93,9.55 C47.8478611,6.48958868 44.870258,4.51539703 41.63,4.71 L39.78,4.71 C39.2277153,4.71 38.78,5.15771525 38.78,5.71 C38.78,6.26228475 39.2277153,6.71 39.78,6.71 L41.63,6.71 C43.2681026,6.61669981 44.864946,7.24520566 46,8.43 L45.82,8.43 C44.0980121,8.40564817 42.5323564,9.4252795 41.8583062,11.0100482 C41.184256,12.5948169 41.5357312,14.4298621 42.7476698,15.6533982 C43.9596083,16.8769342 45.791223,17.2458697 47.3823392,16.5869428 C48.9734555,15.9280159 50.0079512,14.3721418 50,12.65 C50,12.59 50,12.54 50,12.48 C51.0969633,13.4079419 51.6312692,14.8403364 51.41,16.26 C51.2570115,17.3087296 50.8368898,18.3004924 50.19,19.14 L50.03,19.35 C45.3043602,16.627645 39.2744924,18.0823726 36.31,22.66 C34.4657598,22.9057312 33.0887459,24.4794613 33.09,26.34 C33.089781,26.7524185 33.1608261,27.1617736 33.3,27.55 C30.2579159,31.23863 26.3996035,34.1691672 22.03,36.11 C21.5615716,35.8991032 21.0537145,35.7900332 20.54,35.79 C19.0824662,35.8005444 17.76693,36.6658227 17.18,38 C16.0627592,38.3577952 14.9279422,38.6581879 13.78,38.9 C8.26,40 5,43.55 5.25,48.14 C5.59883626,52.8330225 9.54456901,56.4411759 14.25,56.37 L14.25,56.37 C16.03,56.37 17.81,56.29 19.54,56.15 C20.3442384,56.9043578 21.4436899,57.2595232 22.5372581,57.1182303 C23.6308263,56.9769375 24.6039027,56.3539941 25.19,55.42 C29.9624162,54.6184272 34.5768164,53.0622907 38.86,50.81 C39.1845701,50.9058889 39.5215757,50.9530697 39.86,50.95 C41.6803201,50.9395384 43.2272123,49.6166497 43.52,47.82 C47.5124845,44.9208308 50.761222,41.1169293 53,36.72 C54.3803381,36.1481494 55.2829488,34.8040872 55.29,33.31 C55.2873215,32.7147913 55.1433746,32.1287219 54.87,31.6 C55.1184025,30.510872 55.2425284,29.3970932 55.24,28.28 Z M45.8,14.89 C44.8905406,14.9062429 44.0615593,14.3709034 43.7022115,13.5352902 C43.3428638,12.6996771 43.5245091,11.7297268 44.1618761,11.0807712 C44.7992432,10.4318156 45.7657634,10.2327247 46.6077152,10.5769592 C47.4496669,10.9211938 47.999855,11.7403956 48,12.65 C48.0001948,13.8716637 47.021469,14.8681846 45.8,14.89 Z M52.93,32.33 C53.1341361,32.6233151 53.2424297,32.9726495 53.24,33.33 C53.251665,34.102959 52.7432991,34.7876131 52,35 C51.7198891,35.0754714 51.4863579,35.2688645 51.36,35.53 C49.2232909,39.9131932 46.0267622,43.6940335 42.06,46.53 C41.8072161,46.714645 41.655483,47.0070089 41.65,47.32 C41.6335634,48.2605087 40.8605863,49.0111454 39.92,49 C39.6818706,49.0003766 39.4464812,48.9492049 39.23,48.85 C38.9496837,48.7107074 38.6203163,48.7107074 38.34,48.85 C33.9991141,51.192439 29.2923648,52.7816432 24.42,53.55 C24.0884129,53.605003 23.8066386,53.8229085 23.67,54.13 C23.3913194,54.7406047 22.7811915,55.1317123 22.11,55.1300056 C21.5882302,55.1284716 21.0967879,54.884598 20.78,54.47 C20.5891779,54.228508 20.2977803,54.088342 19.99,54.09 L19.91,54.09 C18.07,54.26 16.19,54.34 14.29,54.35 L14.29,54.35 C10.6419817,54.4244256 7.57032402,51.6379933 7.29,48 C7.05,43.8 10.71,41.55 14.22,40.85 C15.6037754,40.5557875 16.9693865,40.1818304 18.31,39.73 C18.6288418,39.6238283 18.8730357,39.364607 18.96,39.04 C19.1551463,38.2935673 19.8284825,37.7721423 20.6,37.77 C20.9255134,37.7746654 21.2435915,37.8680144 21.52,38.04 C21.8044993,38.2223468 22.1618463,38.2486776 22.47,38.11 C26.28,36.4 31.61,33.3 35.32,28.26 C35.5615405,27.9404473 35.5890858,27.5075926 35.39,27.16 C35.2350582,26.9070537 35.1520777,26.6166218 35.15,26.32 C35.148457,25.4077908 35.8593324,24.6530342 36.77,24.6 L36.91,24.6 C37.2793419,24.6124346 37.6254337,24.4201614 37.81,24.1 C39.6752137,20.8340016 43.5073607,19.2354115 47.1405944,20.2077184 C50.7738281,21.1800253 53.2953293,24.4789452 53.2800695,28.24 C53.2574418,29.3345626 53.102994,30.4224129 52.82,31.48 C52.7272333,31.7654824 52.7676168,32.077537 52.93,32.33 Z"/>
      <path id="Path" fill="#3D454C" fill-rule="nonzero" d="M34 37.4C32.2401382 37.5949458 30.7339209 38.7506113 30.09 40.4 29.9247614 40.918689 30.2047722 41.474266 30.72 41.65 30.8257273 41.6700197 30.9342727 41.6700197 31.04 41.65 31.4657633 41.6598592 31.851057 41.3989832 32 41 32.4160538 40.0887323 33.2916998 39.4731035 34.29 39.39 34.6472656 39.3399828 34.9507088 39.1031661 35.0860255 38.7687565 35.2213421 38.4343468 35.1679744 38.0531489 34.9460254 37.7687564 34.7240765 37.4843639 34.3672656 37.3399828 34.01 37.39L34 37.4zM44.84 25.75C43.1238128 25.9509415 41.6742466 27.1168124 41.11 28.75 40.9428145 29.2629998 41.2127415 29.8161289 41.72 30 41.8258375 30.0384365 41.9374065 30.0587218 42.05 30.06 42.4736174 30.0583124 42.8502085 29.7898911 42.99 29.39 43.3153603 28.4966006 44.1158647 27.8623846 45.06 27.75 45.6122847 27.6892487 46.0107513 27.1922847 45.95 26.64 45.8892487 26.0877153 45.3922847 25.6892487 44.84 25.75L44.84 25.75zM44.17 34.63C43.6177153 34.63 43.17 35.0777153 43.17 35.63 43.1841028 36.6917743 42.5206662 37.6447104 41.52 38 40.9677153 38.091127 40.5938731 38.6127153 40.6850001 39.165 40.776127 39.7172847 41.2977153 40.0911269 41.85 40 41.9625935 39.9987218 42.0741625 39.9784365 42.18 39.94 43.9754824 39.3083812 45.177641 37.6133376 45.18 35.71 45.2025394 35.429469 45.105824 35.1524265 44.9135924 34.9468719 44.7213608 34.7413174 44.4514104 34.6262816 44.17 34.63L44.17 34.63zM27.87 46C27.3192945 46.7823009 26.4527535 47.2832128 25.5 47.37 24.9477153 47.3948528 24.5201472 47.8627153 24.545 48.415 24.5698528 48.9672847 25.0377153 49.3948528 25.59 49.37L25.68 49.37C27.2201915 49.234461 28.6219035 48.4256403 29.51 47.16 29.826067 46.7095515 29.7188148 46.0883826 29.27 45.77 29.0541363 45.6139976 28.7849593 45.5505511 28.522148 45.5937272 28.2593368 45.6369033 28.0246069 45.7831345 27.87 46zM18.82 44.4C17.4572649 44.1323365 16.0448406 44.4518567 14.93 45.28 14.4881722 45.6113708 14.3986292 46.2381722 14.73 46.68 14.9188544 46.9318058 15.2152427 47.08 15.53 47.08 15.7463702 47.08 15.9569038 47.0098221 16.13 46.88 16.7883472 46.3886708 17.625676 46.2030022 18.43 46.37 18.6913539 46.4228614 18.9629959 46.3691546 19.1845697 46.2208129 19.4061434 46.0724712 19.5592966 45.8417811 19.61 45.58 19.6628614 45.3186461 19.6091546 45.0470041 19.4608129 44.8254303 19.3124712 44.6038566 19.0817811 44.4507034 18.82 44.4zM35.82 6.88C36.3722847 6.88 36.82 6.43228475 36.82 5.88 36.82 5.32771525 36.3722847 4.88 35.82 4.88 35.2677153 4.88 34.82 5.32771525 34.82 5.88 34.82 6.43228475 35.2677153 6.88 35.82 6.88z"/>
    </g>
  </g>
</svg>
