<svg xmlns="http://www.w3.org/2000/svg" width="64" height="64" viewBox="0 0 64 64" style="background:#fff">
  <g id="Hähnchen-(Flügel)" fill="none" fill-rule="evenodd" stroke="none" stroke-width="1">
    <rect width="64" height="64" fill="#FFF"/>
    <g transform="translate(2 4)">
      <g id="Layer_2">
        <rect id="Rectangle" width="60" height="60" x="0" y="0"/>
        <rect id="Rectangle" width="60" height="60" x="0" y="0"/>
      </g>
      <g id="Layer_1" fill-rule="nonzero" transform="translate(3 3)">
        <g id="Group" opacity=".5" transform="translate(1 9)">
          <path id="Path" fill="#E05362" d="M29,30.32 C19,33.9 11.36,24.67 14.9,15.26 C17.64,7.98 4.9,5.41 2.32,12.37 C-4.58,30.72 14.5,48 32.68,41.5 C40.53,38.71 36.65,27.61 29,30.32 Z"/>
          <path id="Path" fill="#4885E0" d="M23.48,1.73 C22.4048442,6.45145996 20.3242256,10.8855651 17.38,14.73 C15.89,16.73 19.49,18.3 20.87,16.48 C23.990872,12.3658246 26.1998592,7.63422864 27.35,2.6 C27.89,0.28 24,-0.52 23.48,1.73 Z"/>
        </g>
        <path id="Path" fill="#EBE53F" d="M49.57,21.54 C48.9127454,19.7945184 47.0168371,18.8553011 45.23,19.39 C42.87,20.33 41.3,19.12 40.87,16.7 C40.55,14.88 38.07,14.13 36.53,14.55 C35.6779275,14.7548128 34.9446766,15.295048 34.4965741,16.0481616 C34.0484715,16.8012751 33.9234973,17.7034349 34.15,18.55 C35.15,24.36 41.81,27.68 47.15,25.55 C48.82,24.85 50.17,23.42 49.57,21.54 Z" opacity=".5"/>
        <path id="Path" fill="#E05362" d="M48.5,0.7 C41,-2 32.74,4.06 35,12.05 C36.19,16.54 44,14.67 42.73,10 C42.08,7.64 44.73,6.55 46.35,8 C48.41,9.83 47.83,12.83 46.53,14.9 C43.87,19.16 51.12,22.41 53.6,18.45 C57.48,12.25 56,3.44 48.5,0.7 Z" opacity=".5"/>
        <path id="Shape" fill="#3D454C" d="M33.77,40.09 L18.58,30.42 C22.95279,25.7228576 26.2703316,20.1447507 28.31,14.06 C28.887589,12.2816365 28.4246577,10.3296093 27.11,9 C26.9212812,8.81281349 26.665803,8.70846324 26.4,8.70998326 C26.134197,8.70846324 25.8787188,8.81281349 25.69,9 L13,21.7 C12.8477133,20.5996792 12.3423948,19.5785147 11.56,18.79 C11.3722334,18.6006873 11.1166375,18.4942017 10.85,18.4942017 C10.5833625,18.4942017 10.3277666,18.6006873 10.14,18.79 L2.06,26.86 C0.978806375,27.9518071 0.446307867,29.4721822 0.61,31 C1.19566801,35.5693777 3.02561253,39.8899839 5.9,43.49 C10.5830563,48.8880815 17.3163578,52.0733394 24.46,52.27 L25.72,52.27 C29.81,52.27 33.4,51.34 34.89,49.85 C37.3439462,47.3907928 37.3439462,43.4092072 34.89,40.95 C34.5512768,40.6208742 34.1754175,40.332268 33.77,40.09 Z M33.47,48.47 C32.47,49.47 28.99,50.47 24.55,50.27 C21.3,50.12 13.11,49 7.44,42.21 C4.80550761,38.9218496 3.13057106,34.9698299 2.6,30.79 C2.49520324,29.8599244 2.81901047,28.9326582 3.48,28.27 L10.72,21 C10.9237407,21.4305276 11.01983,21.9041102 11,22.38 C11.0074626,23.1956035 10.6825152,23.9790878 10.1,24.55 C9.91068735,24.7377666 9.80420168,24.9933625 9.80420168,25.26 C9.80420168,25.5266375 9.91068735,25.7822334 10.1,25.97 C10.2877666,26.1593127 10.5433625,26.2657983 10.81,26.2657983 C11.0766375,26.2657983 11.3322334,26.1593127 11.52,25.97 L26.28,11.23 C26.6008769,11.9202821 26.6473489,12.7067318 26.41,13.43 C24.3869733,19.4626714 21.0461442,24.9692324 16.63,29.55 L12.33,30.63 C11.9710774,30.7041827 11.681494,30.9687703 11.5753,31.3195571 C11.4691059,31.6703438 11.5633182,32.0511182 11.820832,32.3119154 C12.0783458,32.5727126 12.457896,32.6717414 12.81,32.57 L16.7,31.57 L32.7,41.75 C32.9812902,41.9201542 33.2399982,42.1251047 33.47,42.36 C35.148509,44.0391265 35.148509,46.7608735 33.47,48.44 L33.47,48.47 Z"/>
        <path id="Path" fill="#3D454C" d="M23.75 45.45C23.34 45.45 22.92 45.45 22.47 45.39 18.2285361 45.0773599 14.278967 43.1133469 11.47 39.92 10.4956687 38.7155963 9.71620328 37.3658726 9.16 35.92 9.04064245 35.5723144 8.74014944 35.3181458 8.3774817 35.2581158 8.01481395 35.1980858 7.64844978 35.3418739 7.42342732 35.6325565 7.19840486 35.9232391 7.15100783 36.3139452 7.3 36.65 7.93141545 38.3019088 8.81894595 39.8441196 9.93 41.22 13.0866372 44.8400728 17.5488448 47.0621874 22.34 47.4 22.84 47.4 23.34 47.47 23.77 47.47L23.77 47.47C24.3222847 47.47 24.77 47.0222847 24.77 46.47 24.77 45.9177153 24.3222847 45.47 23.77 45.47L23.75 45.45zM28.14 45.21C27.5877153 45.21 27.14 45.6577153 27.14 46.21 27.14 46.7622847 27.5877153 47.21 28.14 47.21 28.6922847 47.21 29.14 46.7622847 29.14 46.21 29.14 45.6577153 28.6922847 45.21 28.14 45.21z"/>
        <path id="Shape" fill="#3D454C" d="M49.68,8.26 C49.8097053,7.77044459 49.8769063,7.26643696 49.88,6.76 C49.8989876,5.24252479 49.3045529,3.78164915 48.2314519,2.70854814 C47.1583509,1.63544713 45.6974752,1.04101237 44.18,1.06 C43.6277153,1.06 43.18,1.50771525 43.18,2.06 L43.18,2.89 C41.1519608,1.9625537 38.7601092,2.40652615 37.2,4 C36.8188571,4.38884351 36.8188571,5.01115649 37.2,5.4 L37.98,6.17 C35.7715603,7.00081677 34.3067496,9.11046261 34.3,11.47 C34.3,12.0222847 34.7477153,12.47 35.3,12.47 L38,12.47 L34.92,19.96 C34.8381369,20.1827157 34.8381369,20.4272843 34.92,20.65 C36.2290581,24.6350409 40.0294348,27.2626132 44.22,27.08 L49.4,27.08 C49.704272,27.0785972 49.9913526,26.9387374 50.18,26.7 C50.3668363,26.4630127 50.4366584,26.1543254 50.37,25.86 L49.44,21.81 C50.9071734,21.5723149 51.9791281,20.2961784 51.96,18.81 C51.8275489,17.4955685 51.1581112,16.2941992 50.11,15.49 C49.6688519,15.0806525 49.2943394,14.6049203 49,14.08 C49.945039,14.1324845 50.8827611,14.2764918 51.8,14.51 C52.1006235,14.5831129 52.4181599,14.5129595 52.66,14.32 C52.8987374,14.1313526 53.0385972,13.844272 53.04,13.54 C53.0371839,11.2777757 51.7281164,9.2206696 49.68,8.26 L49.68,8.26 Z M47.35,12.49 C47.0359128,12.7288555 46.845154,13.0956992 46.83,13.49 C46.9664219,14.8028103 47.639603,16.000783 48.69,16.8 C49.38,17.49 49.96,18.08 49.96,18.71 C49.9823758,18.9887824 49.8869824,19.2641957 49.6969662,19.4694132 C49.5069501,19.6746306 49.2396775,19.7908965 48.96,19.79 L48.78,19 C48.6557359,18.4477153 48.1072847,18.1007359 47.555,18.225 C47.0027153,18.3492641 46.6557359,18.8977153 46.78,19.45 L48.06,25.01 L44.06,25.01 C40.8747029,25.1624257 37.9464911,23.267937 36.78,20.3 L40.29,11.78 C40.4191452,11.4713412 40.385367,11.1185459 40.2,10.84 C40.0137296,10.5644212 39.7026261,10.3994989 39.37,10.4 L36.37,10.4 C36.8755047,8.82305312 38.3440193,7.75504249 40,7.76 C40.4012767,7.74668458 40.7556818,7.49466319 40.9,7.12 C41.0426314,6.7493069 40.9523581,6.32934021 40.67,6.05 L39.43,4.76 C40.8102493,4.1377971 42.4288187,4.40165147 43.54,5.43 C43.8345643,5.68084761 44.2474005,5.73926783 44.6,5.58 C44.9544542,5.41596087 45.1809665,5.060571 45.18,4.67 L45.18,3.19 C46.8003189,3.60787789 47.9190732,5.0871197 47.88,6.76 C47.8907309,7.29656467 47.7633185,7.82687579 47.51,8.3 C47.3382472,8.572718 47.3084643,8.91149839 47.43,9.21 C47.5477394,9.50718958 47.800463,9.73018102 48.11,9.81 C49.360073,10.1210844 50.3682963,11.042781 50.79,12.26 C49.07,12 47.92,12 47.35,12.49 Z"/>
        <path id="Path" fill="#3D454C" d="M45.33,9.2 C44.7777153,9.2 44.33,9.64771525 44.33,10.2 C44.33,10.7522847 44.7777153,11.2 45.33,11.2 C45.8822847,11.2 46.33,10.7522847 46.33,10.2 C46.33,9.64771525 45.8822847,9.2 45.33,9.2 Z"/>
      </g>
    </g>
  </g>
</svg>
