<svg xmlns="http://www.w3.org/2000/svg" width="64" height="64" viewBox="0 0 64 64" style="background:#fff">
  <g id="Hähnchen-(ganzes-Hähnchen)" fill="none" fill-rule="evenodd" stroke="none" stroke-width="1">
    <rect width="64" height="64" fill="#FFF"/>
    <g id="30-2-Hähnchen-(ganzes-Hähnchen)" transform="translate(2 6)">
      <g id="Layer_2">
        <rect id="Rectangle" width="60" height="60" x="0" y="0"/>
        <rect id="Rectangle" width="60" height="60" x="0" y="0"/>
      </g>
      <g id="Layer_1" fill-rule="nonzero" transform="translate(7 3)">
        <path id="Path" fill="#EBE53F" d="M44,21.76 C43.3388541,20.0184829 41.4440686,19.0841878 39.66,19.62 C37.3,20.55 35.74,19.35 35.3,16.92 C34.98,15.11 32.5,14.36 30.96,14.77 C30.1094075,14.977286 29.3779366,15.5179846 28.9302721,16.2703619 C28.4826076,17.0227392 28.356377,17.9235557 28.58,18.77 C29.58,24.59 36.24,27.91 41.63,25.77 C43.29,25.08 44.64,23.65 44,21.76 Z" opacity=".5"/>
        <path id="Path" fill="#E05362" d="M43,0.93 C35.46,-1.82 27.21,4.28 29.42,12.27 C30.66,16.77 38.5,14.9 37.2,10.2 C36.55,7.85 39.15,6.76 40.82,8.2 C42.89,10.03 42.3,13.03 41.01,15.1 C38.35,19.35 45.6,22.61 48.07,18.65 C52,12.47 50.45,3.67 43,0.93 Z" opacity=".5"/>
        <g id="Group" opacity=".5" transform="translate(0 26)">
          <path id="Path" fill="#E05362" d="M42.31,9.46 C30.31,17.23 16.92,18.95 4.63,10.54 C0.85,8 -0.78,15.76 2,17.81 C14.58,27.26 32.41,28.13 44.69,17.48 C46.84,15.57 45.68,7.27 42.31,9.46 Z"/>
          <path id="Path" fill="#E05362" d="M20.78,4.72 C16.2034883,4.29703815 11.6963418,3.31298903 7.36,1.79 C4.59,0.79 4.02,6.79 6.44,7.68 C11.1234538,9.31143186 15.9901495,10.3593332 20.93,10.8 C23.54,11 23.52,5 20.78,4.72 Z"/>
          <path id="Path" fill="#4885E0" d="M3.5,0.05 C0.82,0.05 0.93,6.14 3.65,6.14 C6.37,6.14 6.22,0.05 3.5,0.05 Z"/>
        </g>
        <path id="Shape" fill="#3D454C" d="M42.34,35.8 L41.12,35.07 C35.1802435,31.4944955 28.6680265,28.9707999 21.87,27.61 C21.4882853,27.5315288 21.0996949,27.4913298 20.71,27.49 C18.9620896,27.4919856 17.3127911,28.3000312 16.24,29.68 L4.24,26.68 C2.6250905,26.269588 0.955417337,27.1159658 0.331804316,28.6611122 C-0.291808705,30.2062586 0.322622333,31.9744889 1.77,32.8 L7.08,35.8 L2.58,37 C1.10486285,37.3808396 0.0705769888,38.7065314 0.059905433,40.23 C0.0531918078,41.1326816 0.414248702,41.9992182 1.06,42.63 L2.41,43.94 C5.45939064,46.8897653 9.05714937,49.2135302 13,50.78 C14.9050846,51.5546862 16.9434473,51.9487696 19,51.9401432 L31.44,51.9401432 C34.2513761,51.9388298 36.9769413,50.9714659 39.16,49.2 C40.3346205,48.2436974 41.4100371,47.171631 42.37,46 L43.79,44.24 C44.8437132,42.9736449 45.2899044,41.3093068 45.0109641,39.6856815 C44.7320237,38.0620563 43.7559419,36.642066 42.34,35.8 Z M2.06,29.89 C2.06268206,29.477996 2.25475024,29.09013 2.58081269,28.8382614 C2.90687515,28.5863928 3.33067879,28.4985254 3.73,28.6 L5.31,29 L3.94,31.73 L2.74,31 C2.33396898,30.7752606 2.07578309,30.3538102 2.06,29.89 Z M13.78,48.89 C10.0535044,47.4121655 6.65525938,45.213501 3.78,42.42 L2.46,41.14 C2.19573752,40.8752533 2.05122148,40.5139631 2.06,40.14 C2.06278592,39.5331743 2.47302499,39.0039659 3.06,38.85 L8.88,37.39 L9.88,39.39 L8.57,42.04 C8.43777776,42.2788023 8.40892051,42.5612761 8.49012372,42.8218817 C8.57132693,43.0824874 8.75553213,43.2985721 9,43.42 C9.13713271,43.4864197 9.28763018,43.5206236 9.44,43.52 C9.82015687,43.5226457 10.1689345,43.3095038 10.34,42.97 L11.87,39.87 C12.0126286,39.5869524 12.0126286,39.2530476 11.87,38.97 L10.17,35.5 C10.0800526,35.3184397 9.93707379,35.1684863 9.76,35.07 L5.67,32.72 L7.29,29.5 L19,32.44 C20.3928055,32.7969233 21.541457,33.7793713 22.11,35.1 C21.9932943,36.3631352 22.3496464,37.6246217 23.11,38.64 L25.23,41.36 L20.23,45.1 C18.697354,46.2090863 18.2412137,48.2918397 19.17,49.9400244 L19,49.9400244 C17.2111253,49.9433546 15.4385164,49.6003786 13.78,48.93 L13.78,48.89 Z M42.24,42.89 L40.81,44.65 C39.9401261,45.7182315 38.9652411,46.6964666 37.9,47.57 C36.0728267,49.0512641 33.7921704,49.8597321 31.44,49.86 L22.58,49.86 C21.8465165,49.8207515 21.2104629,49.3397607 20.972911,48.6447013 C20.7353591,47.9496419 20.9439703,47.1799682 21.5,46.7 L27.3,42.35 C27.5135455,42.1892054 27.653824,41.9496066 27.6895223,41.6846874 C27.7252206,41.4197682 27.6533668,41.1515842 27.49,40.94 L24.75,37.41 C23.9474847,36.3703184 23.895229,34.9352971 24.62,33.84 L32.56,39.34 C33.2996219,39.8501267 33.7408852,40.6915185 33.74,41.59 C33.7356961,41.9082287 33.6747441,42.2231468 33.56,42.52 L32.92,44.27 C32.7805656,44.771404 33.0490173,45.2959354 33.5372705,45.476093 C34.0255237,45.6562506 34.5703374,45.4318011 34.79,44.96 L35.44,43.21 C36.1984254,41.1917981 35.4799453,38.9166111 33.7,37.7 L25.02,31.7 C24.6382422,31.4354716 24.1246017,31.4686097 23.78,31.78 C23.4750907,32.0782722 23.2096014,32.4143346 22.99,32.78 C22.0924637,31.6943484 20.8742605,30.9207193 19.51,30.57 L18.51,30.32 C19.1492524,29.8278092 19.9332193,29.5606276 20.74,29.56 C20.9952446,29.5634046 21.2496409,29.5901832 21.5,29.64 C28.0759654,30.9570147 34.3751591,33.3995592 40.12,36.86 L41.33,37.58 C42.436435,38.2399404 43.1158172,39.4317057 43.12,40.72 C43.1006679,41.5591973 42.789492,42.3654258 42.24,43 L42.24,42.89 Z"/>
        <path id="Path" fill="#3D454C" d="M32.49,46.54 C31.9377153,46.54 31.49,46.9877153 31.49,47.54 C31.49,48.0922847 31.9377153,48.54 32.49,48.54 C33.0422847,48.54 33.49,48.0922847 33.49,47.54 C33.49,46.9877153 33.0422847,46.54 32.49,46.54 Z"/>
        <path id="Shape" fill="#3D454C" d="M45.3,8 C45.4297053,7.51044459 45.4969063,7.00643696 45.5,6.5 C45.5189876,4.98252479 44.9245529,3.52164915 43.8514519,2.44854814 C42.7783509,1.37544713 41.3174752,0.78101237 39.8,0.8 C39.2477153,0.8 38.8,1.24771525 38.8,1.8 L38.8,2.63 C36.7707276,1.68801817 34.3682894,2.12446111 32.8,3.72 C32.4188571,4.10884351 32.4188571,4.73115649 32.8,5.12 L33.57,5.9 C31.361277,6.72476927 29.8951577,8.83231574 29.89,11.19 C29.89,11.7422847 30.3377153,12.19 30.89,12.19 L33.58,12.19 L30.49,19.68 C30.4081369,19.9027157 30.4081369,20.1472843 30.49,20.37 C31.7971777,24.3608966 35.60481,26.9906577 39.8,26.8 L45,26.8 C45.304272,26.7985972 45.5913526,26.6587374 45.78,26.42 C45.9703478,26.184693 46.0438846,25.8758385 45.98,25.58 L45.04,21.58 C46.5001239,21.3273643 47.5674027,20.0618164 47.57,18.58 C47.4339116,17.2643309 46.760948,16.0631272 45.71,15.26 C45.2646896,14.865679 44.8804884,14.4073336 44.57,13.9 C45.5145863,13.9567768 46.4519049,14.1007222 47.37,14.33 C47.6735358,14.4051846 47.9947663,14.3340503 48.2381828,14.1377466 C48.4815993,13.941443 48.6191729,13.6425741 48.61,13.33 C48.6407448,11.0597962 47.3485156,8.97895574 45.3,8 L45.3,8 Z M43,12.23 C42.6760719,12.4817325 42.4875991,12.8697649 42.49,13.28 C42.6224511,14.5944315 43.2918888,15.7958008 44.34,16.6 C45.03,17.28 45.62,17.87 45.62,18.5 C45.6370016,19.072481 45.1920956,19.5529794 44.62,19.58 L44.44,18.79 C44.3596152,18.4327344 44.0947377,18.1454921 43.7451443,18.0364746 C43.3955508,17.927457 43.014353,18.0132266 42.7451443,18.2614746 C42.4759356,18.5097226 42.3596152,18.8827344 42.44,19.24 L43.73,24.8 L39.73,24.8 C36.5474562,24.9511548 33.6228024,23.0563654 32.46,20.09 L36,11.57 C36.1255711,11.2641812 36.0918825,10.9160652 35.91,10.64 C35.7260165,10.3606148 35.4145191,10.1917306 35.08,10.19 L32.08,10.19 C32.5566512,8.60691414 34.0068035,7.51727457 35.66,7.5 C36.0608176,7.49041241 36.4171601,7.2423581 36.5653111,6.86980207 C36.713462,6.49724604 36.6247766,6.07222154 36.34,5.79 L35.05,4.5 C36.4318454,3.87765508 38.0522385,4.14574933 39.16,5.18 C39.4583354,5.42849242 39.8735425,5.48183374 40.2250008,5.31681981 C40.576459,5.15180587 40.8006314,4.79826809 40.8,4.41 L40.8,2.93 C42.4203189,3.34787789 43.5390732,4.8271197 43.5,6.5 C43.5090467,7.03838395 43.3854085,7.57071531 43.14,8.05 C42.9703974,8.32060389 42.9402445,8.65593978 43.0588522,8.9524591 C43.17746,9.24897843 43.430561,9.47101276 43.74,9.55 C44.9874133,9.86603138 45.9936071,10.7858727 46.42,12 C44.7,11.71 43.54,11.79 43,12.23 Z"/>
        <path id="Path" fill="#3D454C" d="M41,8.94 C40.4477153,8.94 40,9.38771525 40,9.94 C40,10.4922847 40.4477153,10.94 41,10.94 C41.5522847,10.94 42,10.4922847 42,9.94 C42,9.38771525 41.5522847,8.94 41,8.94 Z"/>
      </g>
    </g>
  </g>
</svg>
