<svg xmlns="http://www.w3.org/2000/svg" width="64" height="64" viewBox="0 0 64 64" style="background:#fff">
  <g id="Hähnchen" fill="none" fill-rule="evenodd" stroke="none" stroke-width="1">
    <rect width="64" height="64" fill="#FFF"/>
    <g transform="translate(2 7)">
      <rect id="Rectangle" width="60" height="60" x="0" y="0"/>
      <path id="Path" fill="#E0673A" fill-rule="nonzero" d="M46.62,7.33 C46.5491457,6.50276258 45.9358499,5.82404855 45.12,5.67 C44.2269261,5.65684971 43.3341945,5.7136903 42.45,5.84 C41.6021918,5.83516831 40.764391,6.02324602 40,6.39 C39.6045996,6.70799254 39.3617775,7.17809971 39.3313119,7.68459019 C39.3008463,8.19108067 39.4855673,8.68690471 39.84,9.05 C41.2,10.44 43.84,10.72 45.67,10.19 C46.26,10.02 46.67,9.1 46.67,8.56 C46.7085169,8.14961161 46.6916997,7.73590805 46.62,7.33 L46.62,7.33 Z" opacity=".5"/>
      <path id="Path" fill="#B3B3B3" fill-rule="nonzero" d="M50.09,23.41 C49.3677734,21.5338058 48.3774838,19.7721681 47.15,18.18 C45.58,16.03 45.4,15.98 47.75,14.54 C48.2876732,14.1932493 48.5320881,13.5333289 48.35,12.92 C46.97,8.61 42.22,9.24 40.21,12.92 C39.2168597,15.000558 38.973107,17.3603667 39.52,19.6 C40.08,22.42 43.44,25.66 43.2,28.46 C42.77,33.51 30.82,39.46 26.84,34.76 C26.06,33.84 26.05,31.26 25.7,30.08 C25.1432232,28.1877653 24.3360799,26.3784191 23.3,24.7 C22.67,23.7 21.3,21.04 20.24,20.33 C20.24,20.23 20.16,20.16 20.12,20.08 C20.3939003,19.8621555 20.6926499,19.6775349 21.01,19.53 C25.01,16.94 23.16,8.86 18.5,8.11 C6.94,6.25 8.73,23.39 12,28.87 C13.31,31 15.24,33 16.25,35.24 C17.06,37.1 17.25,39.17 18.06,41.05 C19.77,45.17 22.9,48.39 27.72,49.18 C36.39,50.6 46.2,44.18 49.41,36.94 C51.3274603,32.675361 51.5702077,27.8454013 50.09,23.41 Z" opacity=".5"/>
      <path id="Path" fill="#E0673A" fill-rule="nonzero" d="M38.89,29 C38.49,26.9 36.78,25.87 34.79,25.56 C33.890872,25.4167799 32.9786886,25.3731829 32.07,25.43 C30.9296241,25.4622463 29.8294152,25.8581814 28.93,26.56 C27.77,27.44 27.55,29.56 27.71,30.82 C27.7768928,32.2551047 28.5577023,33.5614591 29.79,34.3 C31.4,35.21 34.3,34.64 35.94,33.89 C37.87,33 39.31,31.25 38.89,29 Z" opacity=".5"/>
      <path id="Path" fill="#3D454C" fill-rule="nonzero" d="M34.75,37.58 L25.75,37.58 C25.1977153,37.58 24.75,38.0277153 24.75,38.58 C24.75,39.1322847 25.1977153,39.58 25.75,39.58 L34.75,39.58 C37.2615037,39.6759421 39.6243992,38.3907757 40.9086672,36.2303334 C42.1929353,34.0698911 42.1929353,31.3801089 40.9086672,29.2196666 C39.6243992,27.0592243 37.2615037,25.7740579 34.75,25.87 L34.67,25.87 C34.1177153,25.87 33.67,26.3177153 33.67,26.87 C33.67,27.4222847 34.1177153,27.87 34.67,27.87 C36.4570895,27.7888734 38.1442664,28.6960787 39.0620555,30.2316352 C39.9798446,31.7671916 39.9798446,33.6828084 39.0620555,35.2183648 C38.1442664,36.7539213 36.4570895,37.6611266 34.67,37.58 L34.75,37.58 Z"/>
      <path id="Shape" fill="#3D454C" fill-rule="nonzero" d="M51,13.55 L49,11.55 C48.5752701,11.1373114 48.1017711,10.7779895 47.59,10.48 L47.59,9.14 C47.6064362,7.90571169 46.7331017,6.83830275 45.52,6.61 L41.68,6.61 C40.4668983,6.83830275 39.5935638,7.90571169 39.61,9.14 L39.61,11.07 C39.61,11.07 39.61,11.15 39.61,11.18 C38.697312,11.9516172 38.0069223,12.9526823 37.61,14.08 C37.07,15.63 36.37,17.68 36.37,17.68 L36.37,17.81 C35.7620189,21.032595 32.7967751,23.259677 29.5324192,22.945447 C26.2680633,22.6312171 23.7820933,19.8793961 23.8,16.6 C23.8,12.7340068 20.6659932,9.6 16.8,9.6 L13.9,9.6 C13.3477153,9.6 12.9,10.0477153 12.9,10.6 C12.9,11.1522847 13.3477153,11.6 13.9,11.6 L16.79,11.6 C19.5514237,11.6 21.79,13.8385763 21.79,16.6 C21.816864,20.8606581 25.0509299,24.4159778 29.2900157,24.8450247 C33.5291014,25.2740715 37.4099657,22.438869 38.29,18.27 L39.51,14.74 C40.152631,12.8546586 41.9181851,11.5826571 43.91,11.57 L44.15,11.57 C45.4229789,11.5734583 46.6410647,12.0888023 47.53,13 L49.53,15 C49.7193156,15.2052112 49.9858011,15.3219329 50.265,15.3219329 C50.5441989,15.3219329 50.8106844,15.2052112 51,15 C51.1987308,14.811206 51.3112511,14.5491115 51.3112511,14.275 C51.3112511,14.0008885 51.1987308,13.738794 51,13.55 Z M44.18,9.55 L43.95,9.55 C43.1627975,9.55396624 42.3830816,9.70312927 41.65,9.99 L41.65,9.14 C41.6441888,8.90505879 41.7831672,8.69063494 42,8.6 L45.2,8.6 C45.412911,8.69375103 45.5474827,8.90748255 45.54,9.14 L45.54,9.7 C45.0794531,9.60585934 44.6100066,9.56226788 44.14,9.57 L44.18,9.55 Z"/>
      <path id="Path" fill="#3D454C" fill-rule="nonzero" d="M47,15.67 C47.1822577,15.5413 47.3806182,15.4370767 47.59,15.36 C47.927616,15.2421024 48.1766884,14.9530445 48.243394,14.6017116 C48.3100996,14.2503788 48.1843044,13.8901468 47.913394,13.6567116 C47.6424837,13.4232764 47.267616,13.3521024 46.93,13.47 C46.0397077,13.7831749 45.2771745,14.3805512 44.76,15.17 C44.4974109,15.5741647 44.5604779,16.1081319 44.91,16.44 L46.46,18 C47.2556031,18.758426 47.7040496,19.8108286 47.7,20.91 C47.7041807,21.2854904 47.4497363,21.6146198 47.0852949,21.7051346 C46.7208535,21.7956495 46.3419862,21.6238132 46.17,21.29 L46.06,20.86 L46.06,18.76 C46.06,18.2077153 45.6122847,17.76 45.06,17.76 C44.5077153,17.76 44.06,18.2077153 44.06,18.76 L44.06,20.98 C44.0495423,21.0630052 44.0495423,21.1469948 44.06,21.23 L44.06,21.23 C44.0830014,21.4917438 44.1471218,21.7482254 44.25,21.99 L44.35,22.41 C45.1166421,25.4708638 45.5028904,28.614589 45.5,31.77 L45.5,31.91 C45.5029214,34.2303159 44.7479841,36.4881051 43.35,38.34 L43.22,38.51 C42.0491144,40.0656406 40.4759504,41.2723092 38.67,42 L34.3,43.75 C34.1105527,43.8201029 33.949081,43.9499823 33.84,44.12 L31.64,47.43 C31.3347767,47.8789454 30.822731,48.1424983 30.28,48.13 C29.7122505,48.1292236 29.1935945,47.8079665 28.94,47.3 L28.16,45.74 L28.16,45.74 L27.42,44.16 C27.2723921,43.8297619 26.9579497,43.6049811 26.5977141,43.5721847 C26.2374784,43.5393883 25.8876134,43.7036896 25.6827959,44.0018424 C25.4779784,44.2999952 25.4501412,44.685515 25.61,45.01 L25.61,45.01 C20.3072513,44.2006947 16.3876849,39.6441457 16.38,34.28 L16.38,31.28 C16.3815368,31.014197 16.2771865,30.7587188 16.09,30.57 L12.62,27.1 C11.2335309,25.7367858 10.4518283,23.8743884 10.45,21.93 L10.45,20.13 C10.4483757,18.197227 11.4031145,16.3888393 13,15.3 L14.36,14.38 C14.6565304,14.1799313 14.8238005,13.836863 14.7988011,13.4800258 C14.7738017,13.1231885 14.5603309,12.8067943 14.2388011,12.6500258 C13.9172713,12.4932572 13.5365304,12.5199313 13.24,12.72 L11.88,13.64 C9.72435762,15.0968612 8.43187626,17.5282246 8.43,20.13 L8.43,21.92 C8.43292748,24.3991077 9.43087457,26.7732851 11.2,28.51 L14.36,31.68 L14.36,34.29 C14.3680402,41.1620886 19.7658605,46.8194618 26.63,47.15 L27.15,48.15 C27.5564416,49.0249343 28.3050823,49.6940093 29.22,50 L29.22,50.65 C29.2189866,51.4214522 29.4450458,52.1761418 29.87,52.82 L27.35,52.82 C26.7977153,52.82 26.35,53.2677153 26.35,53.82 C26.35,54.3722847 26.7977153,54.82 27.35,54.82 L35.15,54.82 C35.7022847,54.82 36.15,54.3722847 36.15,53.82 C36.15,53.2677153 35.7022847,52.82 35.15,52.82 L33.76,52.82 C33.5971791,52.6924367 33.3968295,52.6221386 33.19,52.62 C32.0854305,52.62 31.19,51.7245695 31.19,50.62 L31.19,50 C32.0421097,49.7859223 32.783762,49.2617738 33.27,48.53 L35.27,45.53 L39.35,43.9 C41.5171961,43.0307641 43.4053333,41.5852671 44.81,39.72 L44.93,39.55 C46.5882787,37.3522536 47.4836463,34.6731735 47.48,31.92 L47.48,31.78 C47.4770784,29.0660464 47.2023744,26.3592071 46.66,23.7 L46.82,23.7 C47.5679105,23.7 48.2851885,23.4028937 48.8140411,22.8740411 C49.3428937,22.3451885 49.64,21.6279105 49.64,20.88 C49.6365449,19.2346434 48.9652955,17.661177 47.78,16.52 L47,15.67 Z"/>
      <circle id="Oval" cx="22.7" cy="38.58" r="1" fill="#3D454C" fill-rule="nonzero"/>
      <circle id="Oval" cx="43.7" cy="13.58" r="1" fill="#3D454C" fill-rule="nonzero"/>
    </g>
  </g>
</svg>
