<svg xmlns="http://www.w3.org/2000/svg" width="64" height="64" viewBox="0 0 64 64" style="background:#fff">
  <g id="Hähnchen-(Schenkel)" fill="none" fill-rule="evenodd" stroke="none" stroke-width="1">
    <rect width="64" height="64" fill="#FFF"/>
    <g id="30-1-Hähnchen-(Schenkel)" transform="translate(2 4)">
      <g id="Layer_2">
        <rect id="Rectangle" width="60" height="60" x="0" y="0"/>
        <rect id="Rectangle" width="60" height="60" x="0" y="0"/>
      </g>
      <g id="Layer_1" fill-rule="nonzero" transform="translate(5 3)">
        <path id="Path" fill="#E05362" d="M16.41,24.6 C18.85,30.07 19.78,36.34 25.58,39.46 C27.6554289,40.6514992 30.079895,41.0862066 32.44,40.69 C34.5,40.33 36.59,38.3 38.61,38.58 C40.41,38.82 40.88,40.79 40.95,42.33 C41.31,51.03 30.52,54.84 23.62,51.9 C15.12,48.27 10.25,37.8 8.83,29.21 C8,24.1 13.34,17.73 16.41,24.6 Z" opacity=".5"/>
        <path id="Path" fill="#4885E0" d="M3,14.61 C4.85,13.05 6.75,14.21 8.43,15.38 C9.33246031,15.9000684 10.036119,16.7057576 10.43,17.67 C10.86,18.78 11.01,20.54 10.15,21.51 C9.65998297,22.2186819 8.90106656,22.6957151 8.05,22.83 C7.44216289,22.858764 6.83296897,22.8319862 6.23,22.75 C5.53719842,22.6678905 4.86199719,22.4754582 4.23,22.18 C3.212214,21.5881256 2.44447991,20.6462296 2.07,19.53 C1.40285497,17.8481119 1.76498388,15.9323332 3,14.61 L3,14.61 Z" opacity=".5"/>
        <path id="Shape" fill="#3D454C" d="M38.49,34.05 C35.2633245,30.0607408 30.911552,27.1340083 26,25.65 L17.6,23.12 C15.6400916,22.5218568 13.8576209,21.4503138 12.41,20 C11.3606697,18.9502247 10.5846896,17.6592135 10.15,16.24 C9.62234957,14.4823813 8.2089364,13.1319728 6.42909915,12.684963 C4.6492619,12.2379532 2.76550947,12.7602717 1.47,14.06 C0.512296356,15.0519015 -0.0158701974,16.3813003 -0.000347570467,17.76 C-0.0193223847,20.0651717 1.48987109,22.1046223 3.7,22.76 C5.10486953,23.1969786 6.38413096,23.9652214 7.43,25 C8.87733351,26.4464715 9.94257984,28.2299001 10.53,30.19 L13.06,38.56 C14.5381411,43.4798941 17.4655831,47.8396916 21.46,51.07 C23.3005743,52.5340501 25.5882556,53.3213232 27.94,53.3 C31.3069581,53.2494494 34.5172048,51.8690074 36.87,49.46 L36.87,49.46 C41.3,45 42,38.41 38.49,34.05 Z M4.24,20.83 C2.89873232,20.4116239 1.98911605,19.1649623 1.99990338,17.76 C1.9946352,16.9070217 2.33110763,16.0874249 2.93426628,15.4842663 C3.53742492,14.8811076 4.35702174,14.5446352 5.21,14.5499368 C6.62870354,14.5457362 7.87974341,15.4789223 8.28,16.84 C8.79358344,18.5711981 9.72809118,20.1481799 11,21.43 C11.7154975,22.1440571 12.5068581,22.7778162 13.36,23.32 L10.72,26 C10.1756998,25.1480232 9.54576099,24.3538983 8.84,23.63 C7.55898025,22.3341994 5.97941399,21.3727243 4.24,20.83 Z M35.46,48.05 C31.75,51.75 26.28,52.39 22.72,49.53 C19.0489558,46.5475212 16.3592387,42.5303659 15,38 L12.47,29.63 C12.2778727,28.99715 12.0405971,28.3788968 11.76,27.78 L15.21,24.34 C15.7917673,24.598475 16.3896894,24.8189379 17,25 L25.37,27.52 C29.9049378,28.88571 33.9229962,31.5864864 36.9,35.27 C39.79,38.87 39.16,44.35 35.46,48.05 Z"/>
        <path id="Path" fill="#3D454C" d="M33.49 43.7C32.4435033 45.3376247 30.7947832 46.4978351 28.9 46.93 28.6400613 46.9829946 28.4118322 47.1371045 28.2655449 47.358411 28.1192575 47.5797175 28.0669015 47.8500825 28.12 48.11 28.2164736 48.5831232 28.6372392 48.9197357 29.12 48.91 29.1863327 48.9194367 29.2536673 48.9194367 29.32 48.91 31.7330644 48.3717058 33.8377734 46.9063112 35.18 44.83 35.3782824 44.5316832 35.4023528 44.1502448 35.2431441 43.8293688 35.0839354 43.5084928 34.7656352 43.296928 34.4081441 43.2743688 34.050653 43.2518096 33.7082824 43.4216832 33.51 43.72L33.49 43.7zM18.68 35.85L17.68 32.62C17.576393 32.277025 17.2976812 32.0153768 16.9488526 31.9336156 16.6000241 31.8518544 16.2340742 31.9624018 15.9888526 32.2236156 15.7436311 32.4848294 15.656393 32.857025 15.76 33.2L16.76 36.43C17.7754544 39.84076 19.8055019 42.8614149 22.58 45.09 22.8545042 45.3368125 23.2426549 45.4123236 23.5896672 45.2864212 23.9366796 45.1605188 24.1861077 44.8536826 24.238486 44.4882711 24.2908642 44.1228597 24.1376726 43.7583118 23.84 43.54 21.3822016 41.5571978 19.5831131 38.8759981 18.68 35.85L18.68 35.85zM15.4000001 27.88C14.8477153 27.88 14.4000001 28.3277153 14.4000001 28.88 14.4000001 29.4322847 14.8477153 29.88 15.4000001 29.88 15.9522847 29.88 16.4000001 29.4322847 16.4000001 28.88 16.4000001 28.3277153 15.9522847 27.88 15.4000001 27.88L15.4000001 27.88z"/>
        <path id="Path" fill="#EBE53F" d="M45.57,21.74 C44.9127454,19.9945184 43.0168371,19.0553011 41.23,19.59 C38.87,20.53 37.3,19.32 36.87,16.89 C36.55,15.08 34.07,14.33 32.53,14.75 C31.6779275,14.9548128 30.9446766,15.495048 30.4965741,16.2481616 C30.0484715,17.0012751 29.9234973,17.9034349 30.15,18.75 C31.15,24.56 37.81,27.88 43.15,25.75 C44.82,25.05 46.17,23.62 45.57,21.74 Z" opacity=".5"/>
        <path id="Path" fill="#E05362" d="M44.5,0.9 C37,-1.85 28.74,4.26 31,12.24 C32.24,16.74 40.07,14.87 38.78,10.17 C38.13,7.82 40.78,6.73 42.4,8.17 C44.46,10 43.88,13 42.58,15.07 C39.92,19.33 47.17,22.58 49.65,18.62 C53.48,12.45 52,3.64 44.5,0.9 Z" opacity=".5"/>
        <path id="Shape" fill="#3D454C" d="M45.52,26.23 L40.3,26.23 C36.1094348,26.4126132 32.3090581,23.7850409 31,19.8 C30.9181369,19.5772843 30.9181369,19.3327157 31,19.11 L34.08,11.62 L31.43,11.62 C30.8777153,11.62 30.43,11.1722847 30.43,10.62 C30.4367496,8.26046261 31.9015603,6.15081677 34.11,5.32 L33.33,4.54 C32.9553463,4.15240338 32.9553463,3.53759662 33.33,3.15 C34.9011985,1.55996536 37.2999404,1.1241939 39.33,2.06 L39.33,1.23 C39.33,0.67771525 39.7777153,0.229855403 40.33,0.229855403 C41.8405449,0.219181413 43.2920733,0.815836606 44.3583351,1.88585941 C45.4245968,2.95588222 46.0161373,4.40950257 46,5.92 C45.9972138,6.42974908 45.9300147,6.93710238 45.8,7.43 C47.8398136,8.39551761 49.137576,10.453231 49.13,12.71 C49.1383498,13.0203466 49.0020834,13.3169691 48.7611918,13.5128159 C48.5203002,13.7086628 48.2021091,13.7815179 47.9,13.71 C46.9826119,13.4772256 46.0449611,13.3332293 45.1,13.28 C45.403765,13.7892575 45.7850016,14.2480909 46.23,14.64 C47.2785642,15.4408107 47.9512637,16.6379265 48.09,17.95 C48.1091281,19.4361784 47.0371734,20.7123149 45.57,20.95 L46.5,24.95 C46.5715179,25.2521091 46.4986628,25.5703002 46.3028159,25.8111918 C46.1069691,26.0520834 45.8103466,26.1883498 45.5,26.18 L45.52,26.23 Z M33,19.52 C34.1714679,22.4838628 37.0963793,24.3762162 40.28,24.23 L44.28,24.23 L43,18.67 C42.8806374,18.3099542 42.9752582,17.9133695 43.2443162,17.6459966 C43.5133741,17.3786238 43.9105455,17.2864964 44.2698343,17.4081187 C44.6291231,17.529741 44.8886705,17.8441733 44.94,18.22 L45.13,19.01 C45.4115726,19.0111429 45.6805792,18.893524 45.8709324,18.6860389 C46.0612857,18.4785539 46.1553441,18.200432 46.13,17.92 C46.13,17.3 45.54,16.71 44.86,16.02 C43.809603,15.220783 43.1364219,14.0228103 43,12.71 C42.9960504,12.2994149 43.1848395,11.9107316 43.51,11.66 C44.09,11.21 45.24,11.13 46.96,11.43 C46.5185232,10.2111061 45.491843,9.29724793 44.23,9 C43.9174102,8.92208243 43.661502,8.69834299 43.5425408,8.3989573 C43.4235796,8.09957162 43.4561365,7.7612103 43.63,7.49 C43.8879399,7.00781336 44.0154815,6.46662352 44,5.92 C44.0418298,4.24840541 42.9209466,2.7705001 41.3,2.36 L41.3,3.84 C41.3000257,4.23035302 41.0729103,4.58503909 40.7183599,4.74834714 C40.3638095,4.91165519 39.9466426,4.85372947 39.65,4.6 C38.5388187,3.57165147 36.9202493,3.3077971 35.54,3.93 L36.83,5.22 C37.1079026,5.50306946 37.1922121,5.92364311 37.0448874,6.29195496 C36.8975627,6.6602668 36.5464602,6.90667566 36.15,6.92 C34.4984054,6.95127896 33.0540278,8.04061398 32.57,9.62 L35.57,9.62 C35.9026261,9.61949886 36.2137296,9.78442118 36.4,10.06 C36.5886753,10.3368051 36.6262169,10.6896958 36.5,11 L33,19.52 Z"/>
        <path id="Path" fill="#3D454C" d="M41.44,10.37 C41.9922847,10.37 42.44,9.92228475 42.44,9.37 C42.44,8.81771525 41.9922847,8.37 41.44,8.37 C40.8877153,8.37 40.44,8.81771525 40.44,9.37 C40.44,9.92228475 40.8877153,10.37 41.44,10.37 Z"/>
      </g>
    </g>
  </g>
</svg>
