<svg xmlns="http://www.w3.org/2000/svg" width="64" height="64" viewBox="0 0 64 64" style="background:#fff">
  <g id="Haferdrink" fill="none" fill-rule="evenodd" stroke="none" stroke-width="1">
    <rect width="64" height="64" fill="#FFF"/>
    <g transform="translate(2 4)">
      <rect id="Rectangle" width="60" height="60" x="0" y="0"/>
      <path id="Path" fill="#D4BA39" fill-rule="nonzero" d="M37.28,39.65 C37.28,35.05 37.22,30.46 37.09,25.87 C37.02,23.52 35.72,19.21 32.61,19.41 C26.5572406,19.8853024 20.615744,21.3023544 15,23.61 C11.08,25.14 10.71,33.71 14,36.44 C13.9,41.3 14.05,46.17 14,51.02 C14,53.24 15.19,56.21 17.71,56.38 C22.16,56.68 27.22,57.55 31.71,57.03 C34.49,56.7 35.81,55.35 36.6,52.59 C37.74,48.58 37.28,43.77 37.28,39.65 Z" opacity=".5"/>
      <circle id="Oval" cx="42.85" cy="20.38" r="1" fill="#3D454C" fill-rule="nonzero"/>
      <path id="Shape" fill="#3D454C" fill-rule="nonzero" d="M44.15,24.68 C44.15,24.1277153 43.7022847,23.68 43.15,23.68 C42.5977153,23.68 42.15,24.1277153 42.15,24.68 L42.15,54.87 L36.15,54.87 L36.15,19.29 C36.1506233,18.9387402 36.2437465,18.5938396 36.4199971,18.29 L39.14,13.8 L40.88,16.67 C41.0186255,16.8974541 41.2422684,17.060202 41.5013332,17.1221522 C41.7603979,17.1841025 42.0334728,17.140135 42.26,17 C42.727733,16.7115706 42.8751012,16.099769 42.59,15.63 L40.14,11.63 L40.14,8 C40.14,6.28239443 38.7476056,4.89 37.03,4.89 L21,4.89 C19.2902101,4.90099566 17.9099646,6.2901747 17.91,8 L17.91,11.61 L14.7,16.91 C14.1888405,17.7507761 13.9189833,18.7160348 13.9199971,19.7 L13.9199971,55.87 C13.9199971,56.4222847 14.3677153,56.87 14.9199971,56.87 L43.15,56.87 C43.7022847,56.87 44.15,56.4222847 44.15,55.87 C44.15,55.87 44.15,55.8 44.15,55.77 C44.15,55.74 44.15,55.71 44.15,55.68 L44.15,24.68 Z M19.91,8 C19.9046476,7.70559591 20.0164908,7.42112844 20.2209156,7.20920178 C20.4253404,6.99727513 20.7055942,6.8752568 21,6.87 L37,6.87 C37.2956375,6.86616229 37.5803734,6.98149834 37.79,7.19 C38.0025054,7.39695885 38.1185694,7.68349189 38.11,7.98 L38.11,10.87 L19.91,10.87 L19.91,8 Z M19.47,12.89 L37.38,12.89 L34.73,17.28 L34.62,17.49 L16.69,17.49 L19.47,12.89 Z M15.92,19.7 C15.92,19.62 15.92,19.55 15.92,19.47 L34.17,19.47 L34.17,54.87 L15.92,54.87 L15.92,19.7 Z"/>
      <path id="Path" fill="#3D454C" fill-rule="nonzero" d="M26.05 30.67C26.4381684 30.2786355 26.4364418 29.6469625 26.0461397 29.2577258 25.6558377 28.8684892 25.0241623 28.8684892 24.6338603 29.2577258 24.2435582 29.6469625 24.2418316 30.2786355 24.63 30.67 24.8177666 30.8593127 25.0733625 30.9657983 25.34 30.9657983 25.6066375 30.9657983 25.8622334 30.8593127 26.05 30.67zM26.05 26.85C26.4381684 26.4586355 26.4364418 25.8269625 26.0461397 25.4377258 25.6558377 25.0484892 25.0241623 25.0484892 24.6338603 25.4377258 24.2435582 25.8269625 24.2418316 26.4586355 24.63 26.85 24.8177666 27.0393127 25.0733625 27.1457983 25.34 27.1457983 25.6066375 27.1457983 25.8622334 27.0393127 26.05 26.85zM25.34 44.56C24.7877153 44.56 24.34 45.0077153 24.34 45.56L24.34 49.85C24.34 50.4022847 24.7877153 50.85 25.34 50.85 25.8922847 50.85 26.34 50.4022847 26.34 49.85L26.34 45.56C26.34 45.0077153 25.8922847 44.56 25.34 44.56zM29.63 30.76L26.51 33.11C26.0714366 33.4444252 25.9864306 34.0707853 26.32 34.51 26.5088544 34.7618058 26.8052427 34.91 27.12 34.91 27.3375176 34.9071243 27.5481651 34.8333977 27.72 34.7L30.83 32.36C31.2718278 32.0286292 31.3613708 31.4018278 31.03 30.96 30.6986292 30.5181722 30.0718278 30.4286292 29.63 30.76L29.63 30.76zM29.51 34.87L26.39 37.22C26.0610987 37.4837659 25.9329562 37.925478 26.0696348 38.3243106 26.2063133 38.7231432 26.5784492 38.9934115 27 39 27.2163702 39 27.4269038 38.9298221 27.6 38.8L30.72 36.46C31.0058125 36.2456406 31.1555547 35.8950853 31.1128203 35.5403848 31.0700859 35.1856842 30.8413672 34.8807259 30.5128203 34.7403848 30.1842734 34.6000436 29.8058125 34.6456406 29.52 34.86L29.51 34.87zM29.38 39L26.27 41.35C25.9341857 41.6105462 25.7997623 42.0549021 25.9348457 42.4579009 26.0699291 42.8608997 26.445 43.1344754 26.87 43.14 27.0863702 43.14 27.2969038 43.0698221 27.47 42.94L30.59 40.6C31.0318278 40.2658677 31.1191322 39.6368278 30.785 39.195 30.4508677 38.7531722 29.8218278 38.6658678 29.38 39zM23 34.7C23.1718349 34.8333977 23.3824824 34.9071243 23.6 34.91 23.9147573 34.91 24.2111456 34.7618058 24.4 34.51 24.7313708 34.0681722 24.6418278 33.4413708 24.2 33.11L21.09 30.76C20.8771731 30.5976973 20.6081657 30.5274854 20.3431665 30.5650739 20.0781674 30.6026625 19.8392965 30.7449138 19.68 30.96 19.3486292 31.4018278 19.4381722 32.0286292 19.88 32.36L23 34.7zM23.08 38.81C23.2530962 38.9398221 23.4636298 39.0100288 23.68 39.0100288 23.993008 39.0123716 24.2890686 38.868042 24.48 38.62 24.8135694 38.1807853 24.7285634 37.5544252 24.29 37.22L21.17 34.87C20.7281722 34.5386292 20.1013708 34.6281722 19.77 35.07 19.4386292 35.5118278 19.5281722 36.1386292 19.97 36.47L23.08 38.81zM24.41 41.33L21.29 39C20.8481722 38.6686292 20.2213708 38.7581722 19.89 39.2 19.5586292 39.6418278 19.6481722 40.2686292 20.09 40.6L23.21 42.94C23.3830962 43.0698221 23.5936298 43.14 23.81 43.14 24.235 43.1344754 24.6100709 42.8608997 24.7451543 42.4579009 24.8802377 42.0549021 24.7458143 41.6105462 24.41 41.35L24.41 41.33z"/>
    </g>
  </g>
</svg>
