<svg xmlns="http://www.w3.org/2000/svg" width="64" height="64" viewBox="0 0 64 64" style="background:#fff">
  <g id="Hafer" fill="none" fill-rule="evenodd" stroke="none" stroke-width="1">
    <rect width="64" height="64" fill="#FFF"/>
    <g transform="translate(2 8)">
      <rect id="Rectangle" width="60" height="60" x="0" y="0"/>
      <path id="Path" fill="#D4BA39" fill-rule="nonzero" d="M23 9.73C22.1687939 9.02438597 21.0201946 8.82529542 20 9.21 16.48 10.21 14.31 15.72 13.09 18.81 11.2925763 23.4432985 10.6075457 28.4337464 11.09 33.38 11.5 37.38 12.63 42.66 15.57 45.62L15.57 45.62C16.01 47.42 16.95 49.06 18.65 49.62 21.57 50.62 23.83 47.34 24.01 44.75 24.48 38.13 24.82 31.5 25.24 24.87 25.61 19.71 27.22 13.71 23 9.73zM52.69 18.35C47.95 13.82 39.78 23.35 36.75 26.41 33.4034268 29.6910012 30.5503979 33.4400226 28.28 37.54 27.2693447 38.3980565 26.3661257 39.3751447 25.59 40.45 24.2 42.45 24.48 48.71 27.99 48.45 31.84 48.18 35.04 44.95 37.99 42.65 40.94 40.35 44.06 37.71 46.92 35.04 50.82 31.41 58.62 24 52.69 18.35z" opacity=".5"/>
      <path id="Shape" fill="#3D454C" fill-rule="nonzero" d="M28.49,37.3 L27.49,37.3 L28.49,37.3 C28.4866246,37.0508263 28.3903371,36.8118906 28.22,36.63 C27.7613539,36.1406341 27.2239035,35.731631 26.63,35.42 C27.8705649,33.2241474 28.515231,30.7420107 28.5,28.22 L28.5,27.99 C28.4966246,27.7408263 28.4003371,27.5018906 28.23,27.32 C27.77317,26.831298 27.2352379,26.4253115 26.64,26.12 C27.8796542,23.9201514 28.5241952,21.4350495 28.51,18.91 L28.51,18.69 C28.5091275,18.4373651 28.4126652,18.1944231 28.24,18.01 C27.237612,16.8962093 25.8181738,16.2480475 24.32,16.22 L24.01,16.22 C23.7,9.78 20.43,7.74 19.19,7.74 C17.95,7.74 14.69,9.74 14.38,16.22 L14.07,16.22 C12.5663585,16.2399619 11.1388693,16.8848681 10.13,18 C9.9664063,18.2094075 9.87204246,18.4645393 9.86,18.73 L9.86,18.9 C9.84580476,21.4250495 10.4903458,23.9101514 11.73,26.11 C11.1347621,26.4153115 10.59683,26.821298 10.14,27.31 C9.97460533,27.5183986 9.88001844,27.7741335 9.87,28.04 L9.87,28.21 C9.85476904,30.7320107 10.4994351,33.2141474 11.74,35.41 C11.1460965,35.721631 10.6086461,36.1306341 10.15,36.62 C9.98460533,36.8283986 9.89001844,37.0841335 9.88,37.35 L9.88,37.51 C9.88,43.7 13.53,48.8 18.2,49.44 L18.2,52.7 C18.2,53.2522847 18.6477153,53.7 19.2,53.7 C19.7522847,53.7 20.2,53.2522847 20.2,52.7 L20.2,49.39 C24.88,48.75 28.53,43.65 28.53,37.46 L28.49,37.3 Z M19.17,9.73 C19.64,9.95 21.89,11.32 22,16.73 C20.7688515,17.4129256 19.7800269,18.4611496 19.17,19.73 C18.5633036,18.4588639 17.5736244,17.409734 16.34,16.73 C16.46,11.32 18.71,10 19.17,9.73 Z M13.62,25.35 C12.4753452,23.4510583 11.8670915,21.2772424 11.86,19.06 C12.4519462,18.496967 13.2332053,18.1759017 14.05,18.16 C16.32,18.16 18.17,20.75 18.17,23.93 C18.17,24.4822847 18.6177153,24.93 19.17,24.93 C19.7222847,24.93 20.17,24.4822847 20.17,23.93 C20.17,20.75 22.02,18.16 24.3,18.16 C25.1206158,18.1809231 25.9043851,18.5051186 26.5,19.07 C26.487089,21.2846429 25.8755001,23.4545741 24.73,25.35 C24.707397,25.3943287 24.6905923,25.4413818 24.68,25.49 L24.3,25.49 C22.0699973,25.6140088 20.0934356,26.9663931 19.17,29 C18.2619681,26.9564557 16.283188,25.5960444 14.05,25.48 C13.92,25.48 13.8,25.48 13.67,25.48 C13.6586159,25.4348155 13.6418282,25.3911675 13.62,25.35 Z M13.62,34.65 C12.4743016,32.755173 11.8658936,30.5842627 11.86,28.37 C12.4504116,27.8033141 13.2318482,27.4786076 14.05,27.46 C16.32,27.46 18.17,30.05 18.17,33.23 C18.17,33.7822847 18.6177153,34.23 19.17,34.23 C19.7222847,34.23 20.17,33.7822847 20.17,33.23 C20.17,30.05 22.02,27.46 24.3,27.46 C25.1206158,27.4809231 25.9043851,27.8051186 26.5,28.37 C26.4900842,30.5850648 25.8782748,32.7557784 24.73,34.65 C24.7104796,34.6955978 24.6937815,34.7423526 24.68,34.79 L24.3,34.79 C22.0677231,34.9158725 20.0905941,36.2724989 19.17,38.31 C18.2638188,36.2649187 16.2839604,34.9037661 14.05,34.79 L13.67,34.79 C13.6562185,34.7423526 13.6395204,34.6955978 13.62,34.65 L13.62,34.65 Z M19.17,47.46 C15.17,47.46 11.96,43.12 11.86,37.68 C12.4504116,37.1133141 13.2318482,36.7886076 14.05,36.77 C16.32,36.77 18.17,39.36 18.17,42.54 C18.17,43.0922847 18.6177153,43.54 19.17,43.54 C19.7222847,43.54 20.17,43.0922847 20.17,42.54 C20.17,39.36 22.02,36.77 24.3,36.77 C25.1206158,36.7909231 25.9043851,37.1151186 26.5,37.68 C26.41,43.1 23.16,47.46 19.17,47.46 L19.17,47.46 Z"/>
      <path id="Shape" fill="#3D454C" fill-rule="nonzero" d="M48.48,30.44 C51.2,27.44 51.8,25.01 51.8,23.44 C51.8569398,22.5793879 51.6012683,21.7271497 51.08,21.04 C50.3906137,20.5155809 49.5340782,20.2596865 48.67,20.32 L48.67,20.32 C47.09,20.32 44.67,20.92 41.67,23.63 C41.6,23.56 41.54,23.47 41.47,23.4 C40.393863,22.3804689 38.9511647,21.8394571 37.47,21.9 C37.2017726,21.9146558 36.9486341,22.0287465 36.76,22.22 L36.63,22.33 C34.8304053,24.1089764 33.5302633,26.3299088 32.86,28.77 C32.2129366,28.5678572 31.5378289,28.4699666 30.86,28.48 C30.3077153,28.48 29.86,28.9277153 29.86,29.48 C29.86,30.0322847 30.3077153,30.48 30.86,30.48 C31.8062675,30.4103068 32.7384333,30.7403733 33.43,31.39 C34.2072965,32.228366 34.5346632,33.3890299 34.31,34.51 C34.0739385,35.9834496 33.3731885,37.3429046 32.31,38.39 C31.9222764,38.7800375 31.9222764,39.4099625 32.31,39.8 C32.7000375,40.1877236 33.3299625,40.1877236 33.72,39.8 C34.7670954,38.7368115 36.1265504,38.0360615 37.6,37.8 C38.7205663,37.5852593 39.8767933,37.9113746 40.72,38.68 C41.2865124,39.2745553 41.6109798,40.058982 41.63,40.88 C40.0474052,42.4113904 38.0821159,43.4890183 35.94,44 C35.8873722,44.0172296 35.8370099,44.040732 35.79,44.07 C35.7,43.97 35.64,43.87 35.55,43.78 C33.8400697,42.295401 31.4624898,41.8481714 29.33,42.61 C28.7998066,42.772924 28.502076,43.3348066 28.665,43.865 C28.827924,44.3951933 29.3898066,44.692924 29.92,44.53 C31.3450679,43.9946705 32.9464339,44.2451211 34.14,45.19 C34.7024738,45.7871741 35.0262713,46.5699813 35.05,47.39 C32.57,49.8 29.7,51.09 27.15,50.93 C26.5783853,50.8885787 26.0814214,51.3183853 26.04,51.89 C25.9985787,52.4616147 26.4283853,52.9585786 27,53 L27.55,53 C30.55,53 33.85,51.46 36.55,48.71 L36.7,48.55 C36.8763151,48.3671249 36.9764241,48.124003 36.98,47.87 C37.0003376,47.1923017 36.9056635,46.5160582 36.7,45.87 C39.1359139,45.1913909 41.352377,43.8884002 43.13,42.09 L43.29,41.92 C43.4603371,41.7381094 43.5566246,41.4991737 43.56,41.25 C43.5784369,40.5724068 43.483807,39.8964791 43.28,39.25 C45.7179862,38.5816347 47.936149,37.2810945 49.71,35.48 L49.86,35.32 C50.0399761,35.1386967 50.14374,34.8953881 50.15,34.64 C50.2184258,33.1557052 49.6722195,31.7088012 48.64,30.64 C48.5907658,30.5701549 48.5373341,30.5033652 48.48,30.44 L48.48,30.44 Z M49.64,22.44 C49.81,22.93 50.43,25.49 46.64,29.44 C45.3001811,29.0461912 43.871199,29.0776358 42.55,29.53 C43.0030207,28.2089178 43.0344698,26.7797311 42.64,25.44 C46.59,21.67 49.15,22.29 49.64,22.46 L49.64,22.44 Z M42.52,37.44 C42.4665217,37.4550093 42.4158545,37.478654 42.37,37.51 C42.2955529,37.4056814 42.2154322,37.3055306 42.13,37.21 C40.8501198,35.9938479 39.0679653,35.4592016 37.33,35.77 C36.8916025,35.8296456 36.4597293,35.9300812 36.04,36.07 C36.1698585,35.6481405 36.2668157,35.2168483 36.33,34.78 C36.6324967,33.0486249 36.0985351,31.2761689 34.89,30 C34.7943427,29.9178292 34.6941879,29.8410439 34.59,29.77 C34.6206432,29.7187494 34.6473854,29.665265 34.67,29.61 C35.1976322,27.459132 36.3003203,25.4922684 37.86,23.92 C38.6800187,23.9437287 39.4628259,24.2675262 40.06,24.83 C41.66,26.44 41.14,29.58 38.89,31.83 C38.6046238,32.0743899 38.4803181,32.4581184 38.5681899,32.823419 C38.6560617,33.1887195 38.9412805,33.4739383 39.306581,33.5618101 C39.6718816,33.6496819 40.0556101,33.5253762 40.3,33.24 C42.55,30.99 45.69,30.47 47.3,32.08 C47.8723907,32.6707139 48.1978541,33.4575485 48.21,34.28 C46.633578,35.8279478 44.6672773,36.9199531 42.52,37.44 L42.52,37.44 Z"/>
      <path id="Path" fill="#3D454C" fill-rule="nonzero" d="M23.58,50 C23.0277153,50 22.58,50.4477153 22.58,51 C22.58,51.5522847 23.0277153,52 23.58,52 C24.1322847,52 24.58,51.5522847 24.58,51 C24.58,50.4477153 24.1322847,50 23.58,50 Z"/>
    </g>
  </g>
</svg>
