<svg xmlns="http://www.w3.org/2000/svg" width="64" height="64" viewBox="0 0 64 64" style="background:#fff">
  <g id="Hafersahne" fill="none" fill-rule="evenodd" stroke="none" stroke-width="1">
    <rect width="64" height="64" fill="#FFF"/>
    <g transform="translate(2 4)">
      <rect id="Rectangle" width="60" height="60" x="0" y="0"/>
      <path id="Path" fill="#CCC" fill-rule="nonzero" d="M50.54,37.57 C48.54,35.32 44.95,34.57 42.11,33.92 C38.48,33.13 34.78,32.32 31.86,34.92 C31.4454035,35.3229183 31.1066752,35.7971379 30.86,36.32 C28.225124,38.159328 26.9900141,41.427802 27.75,44.55 C29.35,50.94 39.67,50.84 44.89,50.65 C47.99,50.54 50.53,50.01 51.89,46.95 C53.2133872,43.8147982 52.6938175,40.2047512 50.54,37.57 L50.54,37.57 Z" opacity=".5"/>
      <path id="Shape" fill="#D4BA39" fill-rule="nonzero" d="M29.06,14.09 C24.79,14.79 20.24,15.91 17.5,19.34 C16.6359262,20.8143206 16.45353,22.5908598 17,24.21 C17.72,28.76 20,33.12 20.4,37.82 C20.55,39.82 23.15,43.82 24.88,40.5 C28.16,34.21 29.88,27.58 31.76,20.78 C32.23,19.09 32.2,13.58 29.06,14.09 Z M22.47,26.44 C22.47,26.55 22.41,26.66 22.37,26.77 C22.37,26.68 22.29,26.59 22.24,26.5 L22.47,26.44 Z" opacity=".5"/>
      <path id="Shape" fill="#3D454C" fill-rule="nonzero" d="M52.64,44.94 C52.0937679,44.3018511 51.3638798,43.8478537 50.55,43.64 C50.1433491,42.5297578 49.2750616,41.6505254 48.17,41.23 C48.1749577,41.1868085 48.1749577,41.1431915 48.17,41.1 C48.17,41.05 48.17,41.01 48.17,40.98 L48.17,40.98 C48.17,38.53 44.17,37.48 40.65,37.31 C38.71,36.59 38.85,35.94 38.91,35.66 C39.0609253,35.2058121 38.9037353,34.7060285 38.52,34.42 C37.91,33.99 37.43,34.29 36.52,34.84 C35.4511581,35.4007986 34.8535624,36.5759364 35.03,37.77 C32.4,38.39 30.91,39.54 30.91,40.98 C30.91,41.08 30.91,41.18 30.91,41.28 C29.25,42.11 28.66,43.07 28.51,43.86 C27.7960171,44.0343638 27.1342078,44.3772702 26.58,44.86 C26.2654375,45.2148534 26.097437,45.6759613 26.11,46.15 C26.31,52.5 32.2,57.48 39.5,57.48 C46.8,57.48 52.84,52.32 53.0000876,46 C53.003908,45.6160289 52.8769385,45.2421742 52.64,44.94 L52.64,44.94 Z M32.64,42.67 C32.945899,42.5509275 33.1738807,42.2893091 33.25,41.97 C33.3284473,41.6520745 33.2462675,41.3158841 33.03,41.07 C32.9848741,41.0329963 32.9503681,40.9846878 32.93,40.93 C32.93,40.72 33.78,40.03 35.93,39.59 L36.22,39.93 C36.4090592,40.1394794 36.6778218,40.259333 36.96,40.26 C37.3588548,40.262716 37.7211801,40.028149 37.8819637,39.6631269 C38.0427473,39.2981047 37.9712368,38.8724434 37.7,38.58 C37.5398677,38.4166035 37.3989517,38.2354258 37.28,38.04 L37.28,38.04 C37.0717688,37.7348737 37.0198685,37.3493289 37.14,37 C37.8035522,38.1128005 38.8831771,38.9153216 40.14,39.23 C40.2378389,39.2595967 40.3383038,39.2796897 40.44,39.29 C44.12,39.44 45.98,40.48 46.17,40.91 C45.96,41.3 44.92,42.09 41.82,42.14 C41.2677153,42.14 40.82,42.5877153 40.82,43.14 C40.82,43.6922847 41.2677153,44.14 41.82,44.14 L41.82,44.14 C44.51,44.14 46.05,43.55 46.94,42.92 C48.09,43.43 48.6,43.92 48.6,44.31 C48.5834784,44.4845545 48.5055135,44.647572 48.38,44.77 C48.082192,45.0344254 47.9696787,45.4503568 48.0935697,45.8288557 C48.2174607,46.2073546 48.5541352,46.476257 48.9506574,46.5134128 C49.3471796,46.5505686 49.7279492,46.3488938 49.92,46 C50.0262068,45.8773735 50.1231412,45.7470135 50.21,45.61 C50.4588559,45.6897514 50.6922254,45.8115094 50.9,45.97 L50.9,45.97 C50.07,47.45 45.62,48.97 39.61,48.97 C33.22,48.97 29.1,47.28 28.35,45.97 C28.5817757,45.8485246 28.8224728,45.7448911 29.07,45.66 C29.1343384,45.7574484 29.2044643,45.8509496 29.28,45.94 C29.6464649,46.3370018 30.2620049,46.3711315 30.6701133,46.0170772 C31.0782217,45.6630228 31.1313074,45.0488272 30.79,44.63 C30.6622058,44.5080545 30.5808799,44.3454027 30.56,44.17 C30.53,43.88 31.2,43.24 32.68,42.67 L32.64,42.67 Z M39.54,55.45 C34.65,55.45 30.41,52.75 28.82,49.02 C31.49,50.41 35.73,51.02 39.54,51.02 C43.35,51.02 47.6,50.37 50.26,49.02 C48.71,52.76 44.49,55.45 39.58,55.45 L39.54,55.45 Z"/>
      <path id="Shape" fill="#3D454C" fill-rule="nonzero" d="M26.26,53.43 C25.5737681,53.5188902 24.8817878,53.5556621 24.19,53.54 L23.77,53.54 C17.5,53.54 14.37,51.64 13.32,50.83 L13.21,50.73 C12.950735,50.450291 12.5910968,50.2848574 12.21,50.27 L10.65,50 C10.85,47.52 11.38,40 11.38,28.14 C11.38,24.35 11.26,21.69 11.14,19.14 C11.14,18.63 11.09,18.14 11.07,17.6 C11.3883424,17.5975709 11.7047662,17.550444 12.01,17.46 C15.28,16.53 20.7,10.77 21.53,7.34 C21.5932581,7.08784016 21.6301231,6.82978573 21.64,6.57 C29,7 34.86,7.8 37,8.12 C36.79,11.12 36.2,20.95 36.46,30.76 C36.46,31.3122847 36.9077153,31.76 37.46,31.76 L37.46,31.76 C38.0122847,31.76 38.46,31.3122847 38.46,30.76 C38.15,19.16 39.05,7.52 39.06,7.4 C39.0976201,6.88218341 38.7327121,6.42170424 38.22,6.34 C38.16,6.27 30.35,5 20,4.42 C19.8718003,4.38940351 19.7381997,4.38940351 19.61,4.42 C18.66,4.58 17.41,5.42 15.76,6.85 L12.93,4.76 L12.93,4.76 C12.56,4.38 11.18,3.31 9.12,5.36 L9.12,5.36 C8.53364867,5.86039448 8.11193499,6.52607475 7.91,7.27 C7.78229587,7.88693068 7.95274603,8.52797148 8.37,9 L10.81,12.24 C9.63,13.86 9,15 9,15.81 L9,15.89 C8.98959742,15.9830435 8.98959742,16.0769565 9,16.17 C9,17.17 9.08,18.17 9.13,19.17 C9.25,21.72 9.37,24.36 9.37,28.1 C9.37,42.64 8.58,50.59 8.57,50.67 C8.51892751,51.1822521 8.86509736,51.6495814 9.37,51.75 L11.86,52.24 L11.86,52.24 L12.05,52.4 C13.26,53.34 16.83,55.53 23.79,55.53 L24.41,55.53 C25.078728,55.5400041 25.7472658,55.4998918 26.41,55.41 C26.7672656,55.3671281 27.0745208,55.136914 27.2160254,54.806077 C27.3575301,54.4752399 27.3117864,54.0940421 27.0960254,53.8060769 C26.8802645,53.5181118 26.5272656,53.3671281 26.17,53.41 L26.26,53.43 Z M13.4,14.43 C12.7412664,14.9892527 11.9488388,15.3682399 11.1,15.53 C11.429553,14.8570289 11.8283759,14.2202529 12.29,13.63 L12.54,13.63 C12.9729507,13.6104561 13.3948349,13.4869778 13.77,13.27 C14.4374607,12.8842024 15.0496763,12.4099035 15.59,11.86 C16.1366118,11.3315984 16.610744,10.7330486 17,10.08 C17.3904299,9.54594111 17.491508,8.85336875 17.27,8.23 C17.9767059,7.54819347 18.7783439,6.97222668 19.65,6.52 C19.62,7.8 16.89,12 13.4,14.45 L13.4,14.43 Z M12.08,8.43 C12.4291982,8.09373284 12.7379539,7.71785637 13,7.31 L15.3,9.05 C14.9983902,9.58171793 14.621115,10.0667861 14.18,10.49 C13.7704474,10.9157699 13.2983526,11.2765852 12.78,11.56 L11.06,9.28 C11.4287688,9.03308866 11.7706371,8.74819839 12.08,8.43 L12.08,8.43 Z M10.51,6.75 C10.7387884,6.46650798 11.0442533,6.25476527 11.39,6.14 C11.1938306,6.46364515 10.9512485,6.75676518 10.67,7.01 C10.4319083,7.26250958 10.1631536,7.4842322 9.87,7.67 C9.88,7.57 10,7.27 10.51,6.75 Z"/>
      <path id="Path" fill="#3D454C" fill-rule="nonzero" d="M23.52 20C23.7077666 20.1893127 23.9633625 20.2957983 24.23 20.2957983 24.4966375 20.2957983 24.7522334 20.1893127 24.94 20 25.3277236 19.6099625 25.3277236 18.9800375 24.94 18.59 24.7522334 18.4006873 24.4966375 18.2942017 24.23 18.2942017 23.9633625 18.2942017 23.7077666 18.4006873 23.52 18.59 23.1322764 18.9800375 23.1322764 19.6099625 23.52 20L23.52 20zM24.94 16.14C25.3277236 15.7499625 25.3277236 15.1200375 24.94 14.73 24.7522334 14.5406873 24.4966375 14.4342017 24.23 14.4342017 23.9633625 14.4342017 23.7077666 14.5406873 23.52 14.73 23.1322764 15.1200375 23.1322764 15.7499625 23.52 16.14 23.7077666 16.3293127 23.9633625 16.4357983 24.23 16.4357983 24.4966375 16.4357983 24.7522334 16.3293127 24.94 16.14zM24.23 40.14C24.7822847 40.14 25.23 39.6922847 25.23 39.14L25.23 34.86C25.23 34.3077153 24.7822847 33.86 24.23 33.86 23.6777153 33.86 23.23 34.3077153 23.23 34.86L23.23 39.14C23.23 39.6922847 23.6777153 40.14 24.23 40.14zM29.92 20.25C29.5855748 19.8114366 28.9592147 19.7264306 28.52 20.06L25.41 22.4C24.9681722 22.7313708 24.8786292 23.3581722 25.21 23.8 25.3988544 24.0518058 25.6952427 24.2 26.01 24.2 26.2263702 24.2 26.4369038 24.1298221 26.61 24L29.73 21.65C30.1685634 21.3155748 30.2535694 20.6892147 29.92 20.25zM29.8 24.36C29.4655748 23.9214366 28.8392147 23.8364306 28.4 24.17L25.28 26.51C24.9341385 26.7693505 24.7940889 27.2215821 24.9328394 27.63101 25.07159 28.0404378 25.4577224 28.3143522 25.89 28.31 26.1058019 28.3065832 26.3153084 28.2367476 26.49 28.11L29.6 25.76C29.8121732 25.6008701 29.9524422 25.3639723 29.9899495 25.1014214 30.0274568 24.8388704 29.9591299 24.5721732 29.8 24.36zM26.36 32.22L29.48 29.87C29.7658125 29.6556406 29.9155547 29.3050853 29.8728203 28.9503848 29.8300859 28.5956842 29.6013672 28.2907259 29.2728203 28.1503848 28.9442734 28.0100436 28.5658125 28.0556406 28.28 28.27L25.16 30.62C24.7436942 30.9618288 24.6729514 31.5719852 25 32 25.1888544 32.2518058 25.4852427 32.4 25.8 32.4 26.000491 32.3974987 26.1956002 32.334785 26.36 32.22zM19.94 20.06C19.6593427 19.805819 19.2591927 19.731958 18.9062864 19.8691935 18.5533801 20.0064291 18.3082549 20.33122 18.2730508 20.7082308 18.2378466 21.0852415 18.4186024 21.4497999 18.74 21.65L21.85 24C22.0230962 24.1298221 22.2336298 24.2 22.45 24.2 22.8804304 24.2 23.2625693 23.9245699 23.3986833 23.5162278 23.5347973 23.1078856 23.3943443 22.6582582 23.05 22.4L19.94 20.06zM22 28.11C22.1730962 28.2398221 22.3836298 28.31 22.6 28.31 22.9147573 28.31 23.2111456 28.1618058 23.4 27.91 23.5591299 27.6978268 23.6274568 27.4311296 23.5899495 27.1685786 23.5524422 26.9060277 23.4121732 26.6691299 23.2 26.51L20.08 24.17C19.6407853 23.8364306 19.0144252 23.9214366 18.68 24.36 18.5208701 24.5721732 18.4525432 24.8388704 18.4900505 25.1014214 18.5275578 25.3639723 18.6678268 25.6008701 18.88 25.76L22 28.11zM22.1 32.22C22.2730962 32.3498221 22.4836298 32.42 22.7 32.42 23.0147573 32.42 23.3111456 32.2718058 23.5 32.02 23.8313708 31.5781722 23.7418278 30.9513708 23.3 30.62L20.19 28.27C19.9771731 28.1076973 19.7081657 28.0374854 19.4431665 28.0750739 19.1781674 28.1126625 18.9392965 28.2549138 18.78 28.47 18.4486292 28.9118278 18.5381722 29.5386292 18.98 29.87L22.1 32.22z"/>
    </g>
  </g>
</svg>
