<svg xmlns="http://www.w3.org/2000/svg" width="64" height="64" viewBox="0 0 64 64" style="background:#fff">
  <g id="Haferflocken" fill="none" fill-rule="evenodd" stroke="none" stroke-width="1">
    <rect width="64" height="64" fill="#FFF"/>
    <g transform="translate(2 8)">
      <rect id="Rectangle" width="60" height="60" x="0" y="0"/>
      <path id="Path" fill="#CCC" fill-rule="nonzero" d="M51.7,24.05 C47.48,22 44.09,19.48 39.4,18.35 C35.0323425,17.2598656 30.4788126,17.1403951 26.06,18 C20.98,19 14.67,21.69 10.94,26 C10.1862956,26.3678415 9.49192822,26.8464831 8.88,27.42 C6.56,29.55 6.51,34.32 8.33,36.75 C11.03,40.38 13.11,40.43 17.48,40.81 C21.4135228,41.1515575 25.3644661,41.2484107 29.31,41.1 C37,40.83 44.85,39.79 52,36.81 C56.65,34.89 55.75,26 51.7,24.05 Z" opacity=".5"/>
      <circle id="Oval" cx="40.18" cy="30.38" r="1" fill="#3D454C" fill-rule="nonzero"/>
      <circle id="Oval" cx="46.18" cy="32.18" r="1" fill="#3D454C" fill-rule="nonzero"/>
      <circle id="Oval" cx="15.98" cy="29.68" r="1" fill="#3D454C" fill-rule="nonzero"/>
      <path id="Shape" fill="#3D454C" fill-rule="nonzero" d="M54.79,32.33 C54.8361926,30.032156 53.3426413,27.9861953 51.14,27.33 C50.3527337,25.8412917 48.8235015,24.8931677 47.14,24.85 C46.3650308,24.8508908 45.6047754,25.0616889 44.94,25.46 C44.0563711,24.123623 42.5410881,23.3432522 40.94,23.4 C40.699746,23.0234646 40.4029334,22.6861776 40.06,22.4 L49.12,14.53 C50.3806029,13.485477 50.8330139,11.7524109 50.2438053,10.2250009 C49.6545967,8.697591 48.1555021,7.71733116 46.52,7.79 C45.4561673,7.84680977 44.4637474,8.34301972 43.78,9.16 L32.35,22.32 C32.2606401,22.152324 32.1253604,22.0135756 31.96,21.92 C31.0354018,21.4445349 29.9708396,21.3167875 28.96,21.56 C28.1073357,20.5818066 26.8775732,20.0142239 25.58,20 C24.1664352,20.0363118 22.8473402,20.7179671 22,21.85 C21.4718635,21.6705745 20.9177824,21.5793539 20.36,21.58 C18.5809938,21.6063051 16.9224452,22.4839227 15.9,23.94 C13.9881908,23.7365131 12.1508391,24.7408789 11.29,26.46 L11.2,26.46 C8.31,26.46 5.95,29.06 5.85,32.31 L5.85,32.31 C5.85,32.31 5.85,32.37 5.85,32.43 L5.85,32.43 C5.93592725,34.2801961 6.2723248,36.1101987 6.85,37.87 C6.85262651,38.0565616 6.91191519,38.2379152 7.02,38.39 C7.31216747,39.1706565 7.6459799,39.935087 8.02,40.68 C10.02,44.68 14.17,50.02 23.02,52.22 L23.22,52.4 C23.5107485,52.7558627 23.906073,53.0112493 24.35,53.13 C26.3284222,53.5004001 28.3372084,53.6845388 30.35,53.68 C32.5472873,53.6936135 34.7397373,53.4723571 36.89,53.02 C37.3112292,52.9169123 37.6955254,52.6987983 38,52.39 L38.23,52.17 C54.6,47.7 54.79,32.51 54.79,32.35 L54.79,32.35 L54.79,32.33 Z M52,37.15 C49.14,38.97 40.87,40.15 30.34,40.15 C19.25,40.15 11.44,39.15 8.73,37.35 C8.52,36.69 8.36,36.06 8.23,35.49 C11.75,37.3633333 19.12,38.3033333 30.34,38.31 C36.03,38.31 47.52,37.97 52.47,35.36 C52.31,35.87 52.15,36.49 52,37.15 Z M45.3,10.44 C45.6231529,10.0439828 46.0994315,9.80402563 46.61,9.78 C47.1186762,9.75149727 47.614745,9.94481822 47.97,10.31 C48.3389145,10.6709987 48.5340399,11.1736754 48.5053026,11.6890317 C48.4765652,12.2043881 48.2267627,12.6822547 47.82,13 L31.94,26.79 C31.1531756,27.4683175 30.8564971,28.5561387 31.19,29.54 C31.4158467,30.1845131 31.4368045,30.8831074 31.25,31.54 L31.11,31.54 C29.8028713,30.3795009 27.9518362,30.0580868 26.33,30.71 C25.5138914,30.0232802 24.4483892,29.7079786 23.39,29.84 C23.29,29.84 23.2,29.84 23.1,29.9 C23.4234521,29.4528878 23.7811981,29.0316168 24.17,28.64 C25.07,27.74 26.84,26.34 28.66,27.03 C29.669188,27.4155944 30.8116739,27.1369393 31.53,26.33 L45.3,10.44 Z M11.15,28.44 C11.3211312,28.4417911 11.4917793,28.4585213 11.66,28.49 C12.1333344,28.5741178 12.5995386,28.3095154 12.77,27.86 C13.1550768,26.4596505 14.5955519,25.6301509 16,26 C16.4496742,26.1416373 16.9371942,25.9499628 17.17,25.54 C17.5856238,24.7144418 18.3125941,24.0881379 19.1905601,23.7992345 C20.0685261,23.5103312 21.0253567,23.5825639 21.85,24 C22.0855167,24.1289629 22.3630022,24.1577926 22.62,24.08 C22.8777105,24.0039128 23.0939564,23.827312 23.22,23.59 C23.6427319,22.6563894 24.5559685,22.0411156 25.58,22 C26.4834887,22.0330022 27.3083604,22.522652 27.77,23.3 C28.0370783,23.7101845 28.5618173,23.8667599 29.01,23.67 C29.6508257,23.3878876 30.3840716,23.4062188 31.01,23.72 C31.01,23.72 31.06,23.72 31.09,23.72 L30,25 C29.8391985,25.1787601 29.5860061,25.2420582 29.36,25.16 C27.23,24.34 24.88,25.07 22.74,27.21 C21.5880809,28.3526917 20.6738319,29.7121697 20.05,31.21 L20.05,31.21 C19.0366451,31.3497427 18.121675,31.8900794 17.51,32.71 C17.1786292,33.1518278 17.2681722,33.7786292 17.71,34.11 C18.1518278,34.4413708 18.7786292,34.3518278 19.11,33.91 C19.41756,33.4937494 19.8854201,33.2253646 20.4,33.17 C20.6248989,33.1299651 20.8551011,33.1299651 21.08,33.17 C21.514286,33.2857853 21.9724637,33.0976052 22.2,32.71 C22.4913836,32.1913119 23.0178825,31.8477807 23.61,31.79 C24.2651093,31.7101194 24.9141315,31.9795965 25.32,32.5 C25.6321332,32.9014345 26.1958257,33.0047064 26.63,32.74 C26.9565433,32.5331094 27.3258506,32.403168 27.71,32.36 C28.5924586,32.251453 29.4697478,32.5978504 30.04,33.28 C30.3219836,33.6064719 30.7815407,33.7153144 31.18,33.55 C31.3381655,33.4912583 31.5025895,33.4509912 31.67,33.43 C32.4114864,33.3458878 33.1340529,33.7013125 33.52,34.34 C33.7000643,34.6436995 34.0269327,34.8299384 34.38,34.83 C34.5594833,34.8299472 34.7356443,34.7815893 34.89,34.69 C35.3613036,34.4049097 35.5133209,33.7923694 35.23,33.32 C34.7722599,32.5569345 34.0661466,31.974391 33.23,31.67 C33.4278284,30.7311408 33.365591,29.7560877 33.05,28.85 C32.9830326,28.6400897 33.0503127,28.410546 33.22,28.27 L38.47,23.71 C38.9156417,24.0142603 39.2631033,24.4416381 39.47,24.94 C39.6842359,25.3386343 40.1394865,25.5437021 40.58,25.44 C41.9077225,25.2365922 43.1841007,26.0364559 43.58,27.32 C43.7067194,27.6360636 43.9855633,27.8659214 44.32,27.93 C44.6528781,27.9937957 44.9954134,27.8846361 45.23,27.64 C45.6935026,27.1345402 46.3442976,26.8416824 47.03,26.83 C48.1054462,26.8823267 49.0531299,27.5531152 49.46,28.55 C49.577473,28.802508 49.794924,28.9945898 50.06,29.08 C51.84,29.64 52.71,30.7 52.71,32.3 L52.71,32.3 C52.71,33.88 45.56,36.21 30.21,36.21 C12.89,36.26 8,33.87 7.8,32.44 C7.84,30.24 9.32,28.46 11.15,28.46 L11.15,28.44 Z M37.62,50.24 C37.2316956,50.3828426 36.887124,50.6240427 36.62,50.94 C36.54,51.01 36.44,51.12 36.37,51.17 C34.3953559,51.5707802 32.3848877,51.7684762 30.37,51.76 C28.5051017,51.7677344 26.6435973,51.6003329 24.81,51.26 L24.6,51.06 C24.3329638,50.7485559 23.9878026,50.5138463 23.6,50.38 C15.64,48.47 11.72,44 9.76,40 C14.63,41.7 23.27,42.1 30.29,42.1 C39.42,42.1 46.79,41.27 50.9,39.82 C49,43.77 45.21,48.21 37.62,50.26 L37.62,50.24 Z"/>
    </g>
  </g>
</svg>
