<svg xmlns="http://www.w3.org/2000/svg" width="64" height="64" viewBox="0 0 64 64" style="background:#fff">
  <g id="Hartweizengrieß" fill="none" fill-rule="evenodd" stroke="none" stroke-width="1">
    <rect width="64" height="64" fill="#FFF"/>
    <g transform="translate(2 6)">
      <rect id="Rectangle" width="60" height="60" x="0" y="0"/>
      <path id="Path" fill="#D4BA39" fill-rule="nonzero" d="M39.49 29.65C38.3360034 28.4857422 37.1174107 27.3873394 35.84 26.36 33.26 24.41 30.67 26.36 29.71 28.99 29.7057602 29.0198502 29.7057602 29.0501498 29.71 29.08 25.96 33.08 22.64 37.59 19.14 41.79 17.8832838 43.3255914 17.5054471 45.3999151 18.14 47.28 18.55 48.58 19.92 50.66 21.59 49.73 27.0952088 46.7147121 32.8256769 44.1303178 38.73 42 43.3 40.36 42.3 32.33 39.49 29.65zM41 7.72C38.75 4.65 34.1 3.17 29.76 3.78 27.4960362 4.09334771 25.3469937 4.97015704 23.51 6.33 22.5929457 6.72717071 21.845655 7.43550311 21.4 8.33 20.6881607 9.14140612 20.080148 10.0383088 19.59 11 18.83 12.47 19.84 15.92 22.12 15.53 22.9440812 16.4354695 24.1266806 16.9297448 25.35 16.88 30.04 16.8 35.19 16.72 39.61 15.36 43.14 14.24 42.49 9.71 41 7.72z" opacity=".5"/>
      <path id="Shape" fill="#3D454C" fill-rule="nonzero" d="M45.29,34.78 C45.4641217,34.1952393 45.6043548,33.6009181 45.71,33 C45.8474249,32.1501826 45.9176424,31.290854 45.92,30.43 C45.9190054,28.0973479 45.3962425,25.7944578 44.39,23.69 C46.3272549,22.7329826 47.347502,20.5654233 46.8504746,18.4626151 C46.3534472,16.3598068 44.4707185,14.8784055 42.31,14.89 L40.75,14.89 L36.87,9 C36.2260756,8.04320468 35.1532154,7.46378541 34,7.45 C33.3705052,7.45220186 32.7528504,7.62128055 32.21,7.94 L32,7.69 C31.3439319,6.36467154 30.0264377,5.49397972 28.55,5.41 C27.0903594,5.31934101 25.6952174,6.02264546 24.9,7.25 L19.83,14.84 L18.28,14.84 C16.1173895,14.8236725 14.2302779,16.3035489 13.7305439,18.4076917 C13.23081,20.5118345 14.2509909,22.6821928 16.19,23.64 C15.191664,25.7467981 14.6725556,28.0486342 14.67,30.38 C14.6697045,31.2575487 14.7399305,32.133702 14.88,33 C14.981153,33.6182694 15.1214348,34.2294974 15.3,34.83 C12.8584719,38.0805589 11.5357672,42.034639 11.53,46.1 C11.5347492,47.790753 11.7702563,49.4729462 12.23,51.1 C12.3059396,51.368829 12.490864,51.593639 12.74,51.72 C17.42,54.1 23.66,55.41 30.29,55.41 C36.92,55.41 43.18,54.1 47.86,51.72 C48.109136,51.593639 48.2940604,51.368829 48.37,51.1 C48.8164496,49.4706704 49.045105,47.789381 49.0500756,46.1 C49.0615845,42.0180913 47.7414962,38.043783 45.29,34.78 Z M26.56,8.35 C26.9836489,7.71759367 27.7113397,7.35782634 28.4710592,7.40518013 C29.2307788,7.45253392 29.9081616,7.89988037 30.25,8.58 L31,10 C31.1592402,10.3178294 31.4752404,10.5272271 31.83,10.55 C32.1891134,10.5728532 32.5328145,10.4010027 32.73,10.1 C33.0193805,9.6978591 33.4845624,9.45949986 33.98,9.45949986 C34.4754376,9.45949986 34.9406195,9.6978591 35.23,10.1 L38.38,14.82 L22.24,14.82 L26.56,8.35 Z M18.28,16.84 L42.28,16.84 C43.63751,16.8459529 44.7727356,17.8731835 44.9139123,19.2233457 C45.0550889,20.5735078 44.1569152,21.8133562 42.83,22.1 L42.83,22.1 C42.6528229,22.1402069 42.4716816,22.1603337 42.29,22.1600041 L18.29,22.1600041 C16.8209226,22.1600041 15.6300001,20.9690774 15.6300001,19.5 C15.6300001,18.0309226 16.8209226,16.84 18.29,16.84 L18.28,16.84 Z M46.55,50.13 C41.4350888,52.3982892 35.8841321,53.5146255 30.29,53.4 C24.6845166,53.5218302 19.1215274,52.4017195 14,50.12 C13.6596122,48.7901612 13.4882608,47.4227097 13.4899869,46.05 C13.4908081,42.255647 14.7814067,38.5742674 17.15,35.61 C17.3840644,35.3322737 17.4491408,34.9494711 17.32,34.61 C17.0953746,33.9584672 16.9247979,33.2895388 16.81,32.61 C16.6924222,31.8657218 16.6322449,31.1135048 16.63,30.36 C16.6277915,28.19245 17.1456148,26.0560001 18.14,24.13 L42.41,24.13 C43.4043852,26.0560001 43.9222085,28.19245 43.92,30.36 C43.9181175,31.1102022 43.8579363,31.8591236 43.74,32.6 C43.6212103,33.278688 43.4507136,33.9473025 43.23,34.6 C43.1008592,34.9394711 43.1659356,35.3222737 43.4,35.6 C46.6508913,39.6867775 47.8151598,45.0535006 46.55,50.12 L46.55,50.13 Z"/>
      <circle id="Oval" cx="34.92" cy="32.71" r="1" fill="#3D454C" fill-rule="nonzero"/>
      <circle id="Oval" cx="37.78" cy="30.18" r="1" fill="#3D454C" fill-rule="nonzero"/>
      <path id="Path" fill="#3D454C" fill-rule="nonzero" d="M23.18 43L20.18 46C19.9906873 46.1877666 19.8842017 46.4433625 19.8842017 46.71 19.8842017 46.9766375 19.9906873 47.2322334 20.18 47.42 20.3687188 47.6071865 20.624197 47.7115368 20.89 47.7100167 21.155803 47.7115368 21.4112812 47.6071865 21.6 47.42L24.6 44.42C24.9921221 44.0278778 24.9921221 43.3921222 24.6 43 24.2078778 42.6078779 23.5721222 42.6078779 23.18 43zM37.39 36.32L33.53 35.78C32.9777153 35.7026801 32.4673199 36.0877153 32.39 36.64 32.3126801 37.1922847 32.6977153 37.7026801 33.25 37.78L37.11 38.32 37.25 38.32C37.8022847 38.3586599 38.28134 37.9422847 38.3199999 37.39 38.3586599 36.8377153 37.9422847 36.35866 37.39 36.32L37.39 36.32zM34.4 39.14L30.54 38.59C29.9932605 38.5127669 29.4873971 38.8932837 29.41 39.44 29.3327669 39.9867395 29.7132837 40.4926029 30.26 40.57L34.12 41.12 34.26 41.12C34.8122847 41.1586599 35.29134 40.7422847 35.3299999 40.19 35.3686599 39.6377153 34.9522847 39.15866 34.4 39.12L34.4 39.14zM31.4 42L27.54 41.45C27.1827344 41.3999828 26.8259235 41.5443639 26.6039746 41.8287564 26.3820256 42.1131489 26.3286579 42.4943468 26.4639745 42.8287565 26.5992912 43.1631661 26.9027344 43.3999828 27.26 43.45L31.13 44 31.27 44C31.6272656 44.0232223 31.9697815 43.8540816 32.1685254 43.5562917 32.3672693 43.2585017 32.3920471 42.8773039 32.2335254 42.5562917 32.0750037 42.2352794 31.7572656 42.0232223 31.4 42L31.4 42zM30.87 35.25L31 35.25C31.2643709 35.2152406 31.5039111 35.0763368 31.6653971 34.8641518 31.826883 34.6519667 31.8969393 34.3840752 31.86 34.12L31.31 30.26C31.2599828 29.9027344 31.0231661 29.5992912 30.6887564 29.4639746 30.3543468 29.328658 29.9731489 29.3820257 29.6887564 29.6039746 29.404364 29.8259235 29.2599828 30.1827344 29.31 30.54L29.85 34.4C29.9257173 34.9007374 30.3638175 35.2658209 30.87 35.25zM28.06 38.2400009L28.2 38.2400009C28.7467163 38.1626029 29.1272331 37.6567395 29.05 37.11L28.5 33.25C28.4226029 32.7032837 27.9167395 32.3227669 27.37 32.4 26.8232837 32.4773971 26.4427669 32.9832605 26.52 33.53L27.07 37.39C27.1442284 37.8792598 27.5651419 38.2406502 28.06 38.2400009zM24.55 35.39C24.0032837 35.4673971 23.6227669 35.9732605 23.7 36.52L24.25 40.38C24.3202496 40.8770163 24.748068 41.2449401 25.25 41.2400492L25.39 41.2400492C25.9367163 41.1626029 26.3172331 40.6567395 26.24 40.11L25.69 36.25C25.6553661 35.9836278 25.5150247 35.742389 25.3005855 35.5806192 25.0861464 35.4188493 24.8156422 35.3501519 24.55 35.39z"/>
    </g>
  </g>
</svg>
