<svg xmlns="http://www.w3.org/2000/svg" width="64" height="64" viewBox="0 0 64 64" style="background:#fff">
  <g id="Haselnussöl" fill="none" fill-rule="evenodd" stroke="none" stroke-width="1">
    <rect width="64" height="64" fill="#FFF"/>
    <g transform="translate(2 2)">
      <rect id="Rectangle" width="60" height="60" x="0" y="0"/>
      <path id="Path" fill="#E0A075" fill-rule="nonzero" d="M44.71,27.37 C39.24,25.94 34.51,28.77 29.46,30.61 C23.09,32.92 16.13,31.74 9.59,31.1 C4.91,30.64 3.45,38.5 5.24,43.81 C5.48,50 8.58,56.23 14.08,58.08 C20,60.08 27.08,58.8 33.08,58.49 C38.87,58.19 45.33,58.43 49.9,53.91 C57.76,46.19 55.51,30.19 44.71,27.37 Z" opacity=".5"/>
      <path id="Shape" fill="#3D454C" fill-rule="nonzero" d="M53.32,32.89 C51.09,30.24 45.46,28.04 41.92,27.84 C38.8341456,27.7038837 35.7737527,28.4533677 33.1,30 C30.4337796,31.4983109 28.2250236,33.6932406 26.71,36.35 C25.4863439,38.4918016 24.7744714,40.8875264 24.63,43.35 C24.58,44.35 24.56,45.22 24.53,46.1 C24.53,47.25 24.48,48.34 24.35,49.79 L24.29,50.53 C24.0991007,51.6593279 24.0320369,52.8061187 24.09,53.95 C24.1772978,54.4186004 24.429088,54.8406148 24.8,55.14 L24.9,55.21 C24.9829613,55.2691326 25.0698312,55.3225879 25.16,55.37 C25.3494983,55.5633362 25.6092862,55.6715811 25.88,55.67 C27.6636433,55.7660184 29.4345496,56.027135 31.17,56.45 C33.7941149,57.072115 36.4744185,57.4272552 39.17,57.51 C42.5102079,57.5882316 45.7862833,56.585065 48.51,54.65 C51.3740982,52.5204535 53.4776072,49.526459 54.51,46.11 C55.44,43.2 55.86,35.91 53.32,32.89 Z M52.6,45.48 C51.7011267,48.489815 49.8523517,51.1279152 47.33,53 C42.25,56.66 36.58,55.5 31.57,54.47 C30.16,54.18 28.81,53.91 27.57,53.76 C28.13,53.53 28.66,53.32 28.98,53.21 C29.58,53 30.22,52.78 30.89,52.58 C32.2939497,52.1858241 33.7554091,52.0369718 35.21,52.14 C37.7242674,52.3069445 40.2375072,51.7994634 42.49,50.67 C42.83,50.51 43.17,50.33 43.49,50.16 C43.7238677,50.0331631 43.8975519,49.8183615 43.9726217,49.563124 C44.0476916,49.3078865 44.017958,49.0332561 43.89,48.8 C43.7631631,48.5661323 43.5483615,48.3924481 43.293124,48.3173783 C43.0378865,48.2423084 42.7632561,48.272042 42.53,48.4 C42.24,48.56 41.93,48.71 41.63,48.86 C39.6599396,49.8607435 37.4536172,50.3033912 35.25,50.14 C33.5658145,50.0235514 31.8741809,50.1994813 30.25,50.66 C29.56,50.87 28.9,51.1 28.19,51.34 C27.73,51.5 26.87,51.86 26.11,52.18 C26.11,51.66 26.2,51.09 26.24,50.68 L26.3,49.94 C26.44,48.44 26.46,47.31 26.49,46.13 C26.49,45.27 26.49,44.4 26.59,43.44 C26.7071157,41.2758353 27.3304953,39.1693601 28.41,37.29 C29.7459445,34.9487234 31.6916191,33.0134165 34.04,31.69 C36.3882337,30.3505939 39.0698145,29.7088184 41.77,29.84 C45.2295733,30.1905827 48.5177902,31.5190501 51.25,33.67 C51.2761623,33.725403 51.3062384,33.7788717 51.34,33.83 C52.95,35.74 51.05,39.83 48.74,43.02 C48.5839976,43.2358637 48.5205511,43.5050407 48.5637272,43.767852 C48.6069033,44.0306632 48.7531345,44.2653931 48.97,44.42 C49.1388104,44.5422258 49.3415911,44.6086539 49.55,44.61 C49.8718574,44.6085117 50.1733242,44.4521956 50.36,44.19 C51.492554,42.6429905 52.4327881,40.9640011 53.16,39.19 C53.3274027,41.3032351 53.1380941,43.4295754 52.6,45.48 L52.6,45.48 Z"/>
      <path id="Shape" fill="#3D454C" fill-rule="nonzero" d="M40.37,35.42 L39.81,35.59 C36.81,36.48 33.98,37.32 33.27,41.73 C32.9673365,42.6703982 32.585988,43.5836274 32.13,44.46 C31.8611883,44.7497787 31.7882861,45.1707031 31.9439871,45.5340055 C32.0996881,45.8973079 32.4547728,46.1348094 32.85,46.140075 C32.9800129,46.1415929 33.1090887,46.1178158 33.23,46.07 C35.7318656,45.1650137 38.0467502,43.8092979 40.06,42.07 C40.9980417,41.3170584 41.7164402,40.3258066 42.14,39.2 C42.5267086,38.2064535 43.1435983,37.3188177 43.94,36.61 C44.349673,36.2983196 44.4762037,35.7373669 44.24,35.28 C43.76,34.39 42.91,34.65 40.37,35.42 Z M40.37,38.34 C40.0770934,39.1755127 39.5619593,39.9153698 38.88,40.48 C38.8424863,40.5009744 38.8086975,40.5280054 38.78,40.56 C37.6354329,41.6061868 36.3411866,42.4757585 34.94,43.14 C35.0887446,42.7852295 35.2026145,42.4168269 35.28,42.04 C35.79,38.88 37.43,38.39 40.42,37.5 L40.85,37.38 C40.63,37.71 40.48,38 40.33,38.34 L40.37,38.34 Z"/>
      <circle id="Oval" cx="46.52" cy="46.65" r="1" fill="#3D454C" fill-rule="nonzero"/>
      <path id="Shape" fill="#3D454C" fill-rule="nonzero" d="M22.79,56.68 C20.14,57.52 16.05,57.34 13.26,57.04 C8.51,56.52 8.69,54.04 8.69,50.27 L8.69,25.27 C8.69,21.54 9.62,19.84 12.13,16.93 C13.6589409,14.9414356 14.2631993,12.3933577 13.79,9.93 L19.51,9.93 C19.3564034,10.7953915 19.2694812,11.6712993 19.25,12.55 C19.25,17.15 23.73,18.44 24.25,23.07 C24.6,26.4 24.33,29.96 24.4,33.3 C24.4,33.8522847 24.8477153,34.3 25.4,34.3 C25.9522847,34.3 26.4,33.8522847 26.4,33.3 C26.33,29.61 26.55,25.77 26.25,22.09 C26.0901681,20.0217611 25.1109864,18.1029969 23.53,16.76 C21.53,14.69 20.79,13.42 21.27,10.35 C21.55,8.58 23.32,4.46 20.91,2.09 C18.81,0.04 12.67,0.44 11.27,3.09 C10.7130537,4.69680424 10.5990631,6.42393547 10.94,8.09 C11.32,9.84 11.69,9.59 11.69,12.09 C11.69,16.38 7.04,17.68 6.69,22.18 C6,31.54 6.69,41.18 6.69,50.58 C6.69,53.9 6.18,57.58 10.22,58.79 C13.44,59.79 20.15,59.57 23.32,58.57 C24.54,58.23 24,56.29 22.79,56.68 Z M18.86,4 C19.86,4.85 19.92,6.32 19.77,7.91 L13.24,7.91 C13.0601517,7.53823521 12.941943,7.1397028 12.89,6.73 C12.53,3.25 16.59,2 18.86,4 Z"/>
      <path id="Shape" fill="#3D454C" fill-rule="nonzero" d="M17.6,29.67 L17.6,29.61 C17.6,29.61 17.6,29.61 17.6,29.61 L17.55,29.55 C17.364432,29.3031508 17.068432,29.1645179 16.76,29.18 C16.4504303,29.1728201 16.1549981,29.3094575 15.96,29.55 L15.96,29.61 L15.96,29.61 L15.96,29.66 C15.96,29.66 15.96,29.66 15.96,29.66 C14.21,32.34 11.89,35.56 11.45,38.78 C11.2200011,40.3863068 11.6782172,42.0151159 12.7119732,43.2659035 C13.7457291,44.516691 15.2591188,45.2734161 16.88,45.35 C18.4278444,45.2238196 19.8594783,44.4790273 20.8512628,43.2839929 C21.8430472,42.0889584 22.3112399,40.5445859 22.15,39 C21.76,35.73 19.38,32.44 17.62,29.74 L17.6,29.67 Z M16.7,43.38 C12.2,43.38 13.25,38.38 14.5,35.85 C15.1642392,34.5303589 15.8951839,33.2453648 16.69,32 C17.41,33.16 18.12,34.34 18.69,35.56 C20,38.05 21.41,43.38 16.7,43.38 L16.7,43.38 Z"/>
    </g>
  </g>
</svg>
