<svg xmlns="http://www.w3.org/2000/svg" width="64" height="64" viewBox="0 0 64 64" style="background:#fff">
  <g id="Haselnüsse" fill="none" fill-rule="evenodd" stroke="none" stroke-width="1">
    <rect width="64" height="64" fill="#FFF"/>
    <g transform="translate(2 7)">
      <rect id="Rectangle" width="60" height="60" x="0" y="0"/>
      <path id="Path" fill="#C17953" fill-rule="nonzero" d="M43.17 14.16C42.7216826 13.3154873 42.4816833 12.3760615 42.47 11.42 42.25 9.81 41.09 7.52 39.41 6.99 32.1300922 4.57362634 24.1776308 5.24958555 17.41 8.86 14.41 10.45 10.8 12.74 9.41 16 8.97 17.07 8.25 19.38 9.41 20.32 10.85 21.52 13.07 21 15.33 20.12 15.3851932 20.2066911 15.445291 20.2901602 15.51 20.37 18.15 23.62 21.2 23.75 24.58 25.98 25.51 26.59 26.94 27.3 28.08 26.58 31.71 24.29 35.08 23.73 39.2 25.26 45.21 27.52 44.75 16.94 43.17 14.16zM49.83 44C44.35 43.81 39.16 44.43 33.97 42.14 28.78 39.85 27.85 36.14 26.04 31.26 25.87 30.81 25.21 30.08 24.65 30.45 19.19 34 23.08 43.56 26.38 47.3 32.12 53.8 41.84 55.3 50.08 54.03 54.44 53.34 54.39 44.13 49.83 44z" opacity=".5"/>
      <path id="Shape" fill="#3D454C" fill-rule="nonzero" d="M52.81,46.53 L52.74,45.79 C52.62,44.34 52.59,43.25 52.56,42.1 C52.56,41.22 52.51,40.33 52.46,39.35 C52.3155286,36.8875264 51.6036561,34.4918016 50.38,32.35 C48.9191102,29.7909057 46.8122873,27.6599457 44.27,26.17 C44.2712929,24.4721557 44.0046813,22.7847404 43.48,21.17 C43.3,20.56 43.11,20.03 42.93,19.53 C42.6374054,18.7621389 42.4034024,17.9732148 42.23,17.17 C42.14,16.69 42.06,16.17 42.01,15.64 C41.985402,15.0511048 42.0222679,14.4612496 42.12,13.88 L42.12,13.61 C42.12,13.42 42.19,13.24 42.23,13.06 L42.23,12.93 C42.3005726,12.6319235 42.3341589,12.3262887 42.33,12.02 C42.3170054,11.1453828 41.7982932,10.3575642 41,10 C40.6021307,9.79773989 40.1480389,9.73437823 39.71,9.82 L39,9.93 C38.2773005,10.1066386 37.5333394,10.1806981 36.79,10.15 C36.28,10.09 35.79,10.02 35.33,9.92 C34.3866109,9.70278952 33.4580549,9.42555877 32.55,9.09 C30.6463501,8.35906144 28.6371532,7.94033805 26.6,7.85 C24.2573195,7.74268526 21.9171202,8.11004213 19.72,8.93 C13.41,11.28 9.1,15.62 7.59,21.14 C6.71907823,24.4408136 6.87253359,27.9284354 8.03,31.14 C9.1914662,34.3306821 11.022489,37.2357686 13.4,39.66 C15.725429,42.1190667 18.5574305,44.0434629 21.7,45.3 C22.5655226,45.6171807 23.4550246,45.8646362 24.36,46.04 C27.1873874,50.815848 32.3820804,53.6830735 37.93,53.53 C40.6255815,53.4472552 43.3058851,53.092115 45.93,52.47 C47.6653178,52.0464556 49.4362876,51.7853296 51.22,51.69 C51.4907138,51.6915811 51.7505017,51.5833362 51.94,51.39 C52.0301739,51.3425879 52.1170387,51.2891326 52.2,51.23 L52.3,51.16 C52.6651572,50.870023 52.9136554,50.458226 53,50 C53.07,49.73 53.06,49.38 52.81,46.53 Z M48.65,33.31 C49.7208936,35.1924084 50.3404694,37.2975969 50.46,39.46 C50.46,40.46 50.54,41.29 50.56,42.15 C50.56,43.34 50.62,44.46 50.75,45.96 L50.81,46.71 C50.81,47.12 50.9,47.71 50.94,48.21 C50.18,47.88 49.32,47.52 48.85,47.36 C48.2,47.13 47.51,46.9 46.8,46.69 C45.1956697,46.2325887 43.5248491,46.0533306 41.86,46.16 C39.6563192,46.3244184 37.4497229,45.8817157 35.48,44.88 C32.6441721,43.5373183 30.1819169,41.5180629 28.31,39 C26,35.81 24.11,31.72 25.71,29.81 C25.7458239,29.7601586 25.7760084,29.7064971 25.8,29.65 C28.535541,27.5048016 31.8220256,26.1770341 35.28,25.82 L36.02,25.82 C38.475658,25.8284568 40.887275,26.472703 43.02,27.69 C45.3682607,29.0224967 47.3133307,30.9641119 48.65,33.31 L48.65,33.31 Z M20.42,10.8 C22.3651383,10.0588895 24.440047,9.71874053 26.52,9.8 C28.3500163,9.90809574 30.1502292,10.313397 31.85,11 C32.8301224,11.3626585 33.8321041,11.663253 34.85,11.9 C35.37,12.01 35.93,12.09 36.52,12.16 C37.4567334,12.2169435 38.3967526,12.1360816 39.31,11.92 L40.03,11.79 C40.15,11.79 40.36,11.91 40.36,12.06 C40.347848,12.2076303 40.3278195,12.3545062 40.3,12.5 L40.11,13.59 C39.9983794,14.3176607 39.9615207,15.0548343 40,15.79 C40.06,16.39 40.14,16.96 40.25,17.51 C40.4395034,18.4093113 40.7003279,19.2921021 41.03,20.15 C41.2,20.62 41.37,21.15 41.55,21.69 C41.8866155,22.8200091 42.120893,23.9780094 42.25,25.15 C40.0108424,24.191793 37.5824807,23.7574241 35.15,23.88 C32.3431484,24.1642018 29.6223376,25.0110542 27.15,26.37 C26.8137834,25.1285884 25.7236697,24.2396026 24.44,24.16 C24.2710547,22.6331952 22.9760952,21.4806813 21.44,21.49 C21.1590006,21.4898551 20.8794515,21.5302718 20.61,21.61 C20.1080775,20.575936 19.0594409,19.9195671 17.91,19.92 C17.5224663,19.9176202 17.1383355,19.9924067 16.78,20.14 C15.7162884,18.9843328 13.9412513,18.8447722 12.71,19.82 C12.292644,19.6163223 11.8344034,19.5103114 11.37,19.51 C10.9712252,19.5121073 10.5768723,19.5936976 10.21,19.75 C12.51,14.47 17.46,11.9 20.42,10.8 Z M22.42,43.4 C19.5572211,42.2502479 16.9779161,40.4931817 14.86,38.25 C12.688546,36.0297056 11.0117797,33.3748256 9.94,30.46 C9.47298349,29.1246346 9.19037636,27.7317852 9.1,26.32 L9.1,26.32 C9,24.09 9.19,23.62 9.86,23.25 C10.1481658,23.0899469 10.3389463,22.7981649 10.37,22.47 C10.3997625,21.9305238 10.8305238,21.4997625 11.37,21.47 C11.6521782,21.470667 11.9209408,21.5905206 12.11,21.8 C12.3235792,22.0335917 12.6351363,22.1522801 12.95,22.12 C13.2650209,22.0892917 13.5469059,21.911259 13.71,21.64 C13.8867741,21.3255131 14.2192359,21.1306217 14.58,21.13 C15.0336001,21.1092341 15.4442525,21.3966908 15.58,21.83 C15.6983915,22.1540051 15.9754159,22.3941141 16.3129527,22.4652814 C16.6504895,22.5364488 17.0008733,22.4286248 17.24,22.18 C17.4270714,21.9891444 17.6827541,21.8811094 17.95,21.88 C18.2405129,21.9002542 18.5105344,22.0369723 18.6988133,22.2591413 C18.8870921,22.4813103 18.9776698,22.7700994 18.95,23.06 C18.9148155,23.487521 19.1562182,23.8898588 19.55,24.06 C19.9490931,24.2325606 20.4139553,24.1274613 20.7,23.8 C20.8877239,23.5804973 21.1611863,23.4528816 21.45,23.45 C22.0220956,23.4770206 22.4670016,23.957519 22.45,24.53 C22.4500153,24.6812389 22.4193999,24.8309142 22.36,24.97 C22.1947833,25.3634763 22.2974746,25.8184419 22.6156874,26.1028022 C22.9339002,26.3871625 23.3975049,26.4382488 23.77,26.23 C23.9134701,26.1495696 24.0755329,26.1081919 24.24,26.11 C24.8096813,26.1421781 25.2516739,26.6195301 25.24,27.19 C25.2346888,27.3234818 25.2076682,27.4552069 25.16,27.58 C24.6383211,27.964835 24.1589686,28.4039621 23.73,28.89 C21.19,31.89 21.62,39.2 22.55,42.1 C22.7233333,42.62 22.9133333,43.13 23.12,43.63 C22.91,43.57 22.65,43.5 22.4,43.4 L22.42,43.4 Z M45.54,50.49 C40.54,51.49 34.86,52.68 29.78,49.03 C27.2621092,47.1492911 25.4147441,44.5096974 24.51,41.5 C23.9657343,39.4608145 23.7663173,37.3449666 23.92,35.24 C24.6419988,37.014505 25.5789996,38.6937179 26.71,40.24 C28.7861365,43.0136036 31.508368,45.2380753 34.64,46.72 C36.8924928,47.8494634 39.4057326,48.3569445 41.92,48.19 C43.3778837,48.0874162 44.8425519,48.2362509 46.25,48.63 C46.93,48.84 47.6,49.06 48.25,49.28 C48.54,49.38 49.04,49.59 49.58,49.81 C48.29,49.93 46.93,50.2 45.52,50.49 L45.54,50.49 Z"/>
      <path id="Shape" fill="#3D454C" fill-rule="nonzero" d="M37.29,31.61 L36.72,31.44 C34.18,30.67 33.33,30.44 32.86,31.29 C32.6216275,31.7450364 32.7438343,32.305502 33.15,32.62 C33.9625943,33.3250811 34.5965755,34.2126548 35,35.21 C35.4058082,36.3242783 36.0951511,37.3134852 37,38.08 C39.0132498,39.8192979 41.3281344,41.1750137 43.83,42.08 C44.2878286,42.269385 44.8153072,42.0949767 45.07,41.67 C45.300174,41.2859978 45.2470693,40.7958008 44.94,40.47 C44.474948,39.5966256 44.0900391,38.6828853 43.79,37.74 C43.12,33.34 40.29,32.5 37.29,31.61 Z M38.35,36.61 L38.26,36.53 C37.5751168,35.9659572 37.0565987,35.2262048 36.76,34.39 C36.61,34.08 36.46,33.76 36.29,33.39 L36.72,33.52 C39.72,34.4 41.34,34.89 41.85,38.06 C41.9390622,38.4304639 42.0526458,38.7945996 42.19,39.15 C40.790831,38.4863924 39.4969632,37.6204444 38.35,36.58 L38.35,36.61 Z"/>
      <path id="Path" fill="#3D454C" fill-rule="nonzero" d="M21.69,14.54 C21.8866006,14.5422477 22.0789572,14.482792 22.24,14.37 C23.0784772,13.8368525 24.0243191,13.4953933 25.01,13.37 C26.1414048,13.213503 27.2913615,13.4690489 28.25,14.09 C28.7166806,14.3854723 29.3345277,14.2466806 29.63,13.78 C29.9254723,13.3133194 29.7866806,12.6954723 29.32,12.4 C28.7816695,12.0531478 28.1954513,11.7869912 27.58,11.61 C26.6602192,11.3330209 25.6914641,11.2579765 24.74,11.39 C23.4549576,11.5493709 22.2234797,12.0009128 21.14,12.71 C20.7759742,12.9545986 20.6138043,13.4078475 20.7400369,13.8278578 C20.8662695,14.247868 21.2514435,14.5366147 21.69,14.54 L21.69,14.54 Z"/>
      <circle id="Oval" cx="18.38" cy="15.85" r="1" fill="#3D454C" fill-rule="nonzero"/>
    </g>
  </g>
</svg>
