<svg xmlns="http://www.w3.org/2000/svg" width="64" height="64" viewBox="0 0 64 64" style="background:#fff">
  <g id="Hefe-(frisch)" fill="none" fill-rule="evenodd" stroke="none" stroke-width="1">
    <rect width="64" height="64" fill="#FFF"/>
    <g fill-rule="nonzero" transform="translate(6 14)">
      <path id="Path" fill="#E0A075" d="M48.45,23.88 C49.0572584,23.3558191 49.6316777,22.7947583 50.17,22.2 C52.54,19.53 51.17,8.54 44.61,11.47 C38.05,14.4 33.39,17.63 25.47,17.61 C19.19,17.61 12.25,15.67 7.54,12.35 C4.89,10.48 2,12.51 1,14.58 C-0.290229686,17.3858736 0.541150942,20.7113961 3,22.58 C4.50452591,23.839275 6.10244735,24.9825577 7.78,26 C4.57,27.91 4.16,34.8 7.51,37.17 C20.3523281,46.0840736 37.7187489,44.6060803 48.87,33.65 C51.18,31.31 50.75,27 49.04,24.58 C48.8583182,24.3344373 48.6612566,24.1006354 48.45,23.88 Z" opacity=".5"/>
      <path id="Shape" fill="#3D454C" d="M49.47,10.09 C49.47,10.09 49.47,10.09 49.47,10.04 L49.47,10 C49.4546316,9.92875879 49.4345882,9.85860699 49.41,9.79 C49.41,9.79 49.41,9.79 49.41,9.74 C49.3645232,9.63572216 49.3001004,9.54078331 49.22,9.46 L49.15,9.4 C49.0881767,9.34210068 49.0172237,9.29479873 48.94,9.26 L48.84,9.26 L48.79,9.26 C48.15,9.07 33.08,4.52 29.67,3.83 C27.1438357,3.15948568 24.6965957,2.22081829 22.37,1.03 C21.6457434,0.669365014 20.7942566,0.669365014 20.07,1.03 C16.5776414,2.64701189 13.1759376,4.45301952 9.88,6.44 C7.44743992,7.97731228 4.93010893,9.37620045 2.34,10.63 C2.1417983,10.7321192 1.98340935,10.8975477 1.89,11.1 L1.89,11.18 C1.84924587,11.2640992 1.82870002,11.3565555 1.83,11.45 C1.82566392,11.469765 1.82566392,11.490235 1.83,11.51 C1.83,12.26 1.43,29.95 1.83,35.86 C1.85867878,36.246458 2.10805346,36.5815552 2.47,36.72 C11.5,40.1 28.87,46.78 29.47,47 L29.47,47 C29.5815247,47.044134 29.7000795,47.067845 29.82,47.07 L29.82,47.07 C29.9513504,47.0652643 30.0804788,47.0346813 30.2,46.98 L30.2,46.98 C32.87,45.78 48.36,35.63 49,35.2 C49.2735891,35.0199783 49.441689,34.7173984 49.45,34.39 C49.7,27.64 49.47,10.27 49.47,10.09 Z M11,8 C14.2154899,6.08289532 17.5264364,4.3306303 20.92,2.75 C21.091207,2.6556993 21.298793,2.6556993 21.47,2.75 C23.9454361,4.0198733 26.55494,5.00933815 29.25,5.7 C31.83,6.23 41.73,9.16 46.1,10.47 C44.84,11.25 43.1,12.26 41.82,12.9 C39.49,14 31.4,19.14 29.6,20.3 C28.11,20 22.78,18.74 20,17.17 C17.3,15.7 9.21,12.69 5.27,11.26 C7.23902075,10.280516 9.15198104,9.19216508 11,8 L11,8 Z M47.5,33.85 C42.12,37.32 32.42,43.59 29.81,45 L3.71,35 C3.43,29.67 3.64,17.05 3.71,12.86 C7.13,14.09 16.26,17.44 18.97,18.95 C22.53,20.95 29.29,22.31 29.58,22.37 C29.6463023,22.3798575 29.7136977,22.3798575 29.78,22.37 C29.9716116,22.3695034 30.1590464,22.3139672 30.32,22.21 C30.42,22.15 40.21,15.86 42.67,14.68 C44.22,13.93 46.16,12.76 47.48,11.93 C47.54,16.41 47.65,28.16 47.49,33.81 L47.5,33.85 Z"/>
      <path id="Path" fill="#3D454C" d="M29.78 38.8500017L29.78 38.8500017C30.3322847 38.8500017 30.78 38.4022847 30.78 37.85 30.78 30.54 30.78 29.52 30.78 29.48 30.78 28.9277153 30.3322847 28.48 29.78 28.48 29.2277153 28.48 28.78 28.9277153 28.78 29.48 28.78 29.48 28.78 30.48 28.78 37.91 28.8117798 38.4387239 29.2503227 38.8509542 29.78 38.8500017zM29.78 26.38C30.3322847 26.38 30.78 25.9322847 30.78 25.38 30.78 24.8277153 30.3322847 24.38 29.78 24.38 29.2277153 24.38 28.78 24.8277153 28.78 25.38 28.78 25.9322847 29.2277153 26.38 29.78 26.38zM8.72 23.18C8.16771525 23.18 7.72 23.6277153 7.72 24.18 7.72 24.7322847 8.16771525 25.18 8.72 25.18 9.27228475 25.18 9.72 24.7322847 9.72 24.18 9.72 23.6277153 9.27228475 23.18 8.72 23.18zM19.12 30.85C18.5677153 30.85 18.12 31.2977153 18.12 31.85 18.12 32.4022847 18.5677153 32.85 19.12 32.85 19.6722847 32.85 20.12 32.4022847 20.12 31.85 20.12 31.2977153 19.6722847 30.85 19.12 30.85zM17.78 10.18C17.2277153 10.18 16.78 10.6277153 16.78 11.18 16.78 11.7322847 17.2277153 12.18 17.78 12.18 18.3322847 12.18 18.78 11.7322847 18.78 11.18 18.78 10.6277153 18.3322847 10.18 17.78 10.18zM31.18 13.71C31.7322847 13.71 32.18 13.2622847 32.18 12.71 32.18 12.1577153 31.7322847 11.71 31.18 11.71 30.6277153 11.71 30.18 12.1577153 30.18 12.71 30.18 13.2622847 30.6277153 13.71 31.18 13.71zM40.25 20.11C39.6977153 20.11 39.25 20.5577153 39.25 21.11 39.25 21.6622847 39.6977153 22.11 40.25 22.11 40.8022847 22.11 41.25 21.6622847 41.25 21.11 41.25 20.5577153 40.8022847 20.11 40.25 20.11zM37.85 32.51C37.2977153 32.51 36.85 32.9577153 36.85 33.51 36.85 34.0622847 37.2977153 34.51 37.85 34.51 38.4022847 34.51 38.85 34.0622847 38.85 33.51 38.85 32.9577153 38.4022847 32.51 37.85 32.51zM29.92 40.85C29.3677153 40.85 28.92 41.2977153 28.92 41.85 28.92 42.4022847 29.3677153 42.85 29.92 42.85 30.4722847 42.85 30.92 42.4022847 30.92 41.85 30.92 41.2977153 30.4722847 40.85 29.92 40.85z"/>
    </g>
  </g>
</svg>
