<svg xmlns="http://www.w3.org/2000/svg" width="64" height="64" viewBox="0 0 64 64" style="background:#fff">
  <g id="Heilbutt" fill="none" fill-rule="evenodd" stroke="none" stroke-width="1">
    <rect width="64" height="64" fill="#FFF"/>
    <g transform="translate(2 4)">
      <rect id="Rectangle" width="60" height="60" x="0" y="0"/>
      <path id="Path" fill="#C17953" fill-rule="nonzero" d="M47,10.23 C39.18,6.08 29.85,13.81 25.33,19.76 C20.44,26.19 15.8,36.86 18.08,45.03 C18.19,45.41 18.56,45.98 19,45.57 C21,43.68 21.78,41.05 22.76,38.57 C24.0861359,34.7332495 25.8440864,31.0596697 28,27.62 C30.2923352,24.1686842 33.4280724,21.3599449 37.11,19.46 C40.33,17.84 43.91,17.38 47.11,15.83 C49.11,14.87 48.76,11.18 47,10.23 Z" opacity=".5"/>
      <path id="Path" fill="#E0A075" fill-rule="nonzero" d="M38 36.54C35.6799448 37.4870651 33.2566746 38.158331 30.78 38.54 28.41 38.77 26.07 37.84 24.07 39.21 22.9 40 23 42.63 23.8 43.58 24.6691113 44.7858051 26.1239812 45.4251821 27.6 45.25 29.0482739 45.2305042 30.4875362 45.0186502 31.88 44.62 34.8584004 43.8595317 37.4658824 42.0573537 39.23 39.54 39.86 38.67 39.51 36 38 36.54zM35.54 9.12C31.04 7.19 25.54 10.31 22.54 13.64 19.26 17.28 17.04 22.64 17.84 27.57 18.15 29.47 20.58 30.45 21.21 28.15 22.36 24 22.77 20.3 26 17 28.81 14.09 32.5 13 35.74 10.79 35.9516273 10.5487937 36.0507261 10.2289883 36.0125695 9.91038089 35.974413 9.59177349 35.8025996 9.30441268 35.54 9.12zM15.89 41.19C15.34 41.57 14.83 41.96 14.35 42.36 12.12 42.36 9.76 43.17 7.67 43.58 5.97 43.91 5.67 46.58 6.67 47.83 9.07608842 50.5787806 11.3135165 53.4707399 13.37 56.49 14.37 58.03 15.98 57.2 16.47 55.81 17.66 52.47 18.08 48.74 18.76 45.27 18.94 44.12 18 39.79 15.89 41.19z" opacity=".5"/>
      <path id="Path" fill="#3D454C" fill-rule="nonzero" d="M43 12.79C42.7740546 13.0151622 42.6470537 13.3210182 42.6470537 13.64 42.6470537 13.9589818 42.7740546 14.2648378 43 14.49 43.472397 14.961736 44.237603 14.961736 44.71 14.49 45.0585076 14.1945202 45.2108534 13.7279263 45.1038573 13.2837217 44.9968612 12.8395171 44.6487721 12.4934635 44.2039476 12.3890746 43.7591231 12.2846856 43.2934307 12.4397654 43 12.79L43 12.79zM28.62 22.12C28.2735911 22.4659242 28.1697581 22.9864996 28.3569437 23.4388536 28.5441294 23.8912076 28.9854465 24.186198 29.475 24.186198 29.9645535 24.186198 30.4058706 23.8912076 30.5930563 23.4388536 30.7802419 22.9864996 30.6764089 22.4659242 30.33 22.12 29.857603 21.648264 29.092397 21.648264 28.62 22.12L28.62 22.12zM32.74 25.36C32.268264 25.832397 32.268264 26.597603 32.74 27.07 33.0859242 27.4164089 33.6064996 27.5202419 34.0588536 27.3330563 34.5112076 27.1458706 34.806198 26.7045535 34.806198 26.215 34.806198 25.7254465 34.5112076 25.2841294 34.0588536 25.0969437 33.6064996 24.9097581 33.0859242 25.0135911 32.74 25.36zM38.25 30.8C38.5964089 30.4540758 38.7002419 29.9335004 38.5130563 29.4811464 38.3258706 29.0287924 37.8845535 28.733802 37.395 28.733802 36.9054465 28.733802 36.4641294 29.0287924 36.2769437 29.4811464 36.0897581 29.9335004 36.1935911 30.4540758 36.54 30.8 37.012397 31.271736 37.777603 31.271736 38.25 30.8z"/>
      <path id="Shape" fill="#3D454C" fill-rule="nonzero" d="M51.22,8.2 C50.5435822,7.54918764 49.6386156,7.19007392 48.7,7.19979957 L48.5,7.19979957 C46.5875302,7.32266823 44.684123,7.5597593 42.8,7.91 C35.41,7.85 27,6.97 21.65,13.17 C17.22,18.3 16.79,25.37 18.15,31.69 C17.5423723,34.5180846 17.2075046,37.3979476 17.15,40.29 L5.44,43.5 C5.09750833,43.5951627 4.8312777,43.8649847 4.74071253,44.2087207 C4.65014736,44.5524566 4.74886251,44.918432 5,45.17 C9,48.55 12.39,52.49 16.35,55.87 C16.6348091,56.1571614 17.064552,56.2444903 17.4388524,56.0912679 C17.8131528,55.9380455 18.0583042,55.5744441 18.06,55.17 C18.61,50.87 19.26,46.58 19.52,42.26 L19.52,42.26 C22.04,43.11 24.58,43.9 27.11,44.72 C29.03,45.35 31.52,46.79 33.63,46.18 C34.93,45.81 35.63,44.69 36.45,43.68 C38.74,40.68 40.59,37.3 42.63,34.12 C42.89,33.88 43.16,33.64 43.41,33.39 C45.5489978,31.2035935 47.2976227,28.6669036 48.58,25.89 C50.7043385,21.1560098 51.9382694,16.0711297 52.22,10.89 C52.2751496,9.893301 51.912823,8.91864228 51.22,8.2 Z M23.28,14.41 C26.68,10.69 31.28,9.9 35.92,9.8 C35.12,10.1 34.32,10.43 33.53,10.8 C31.7650508,11.6262393 30.089599,12.6315104 28.53,13.8 C26.371622,15.4378566 24.5024859,17.4252925 23,19.68 C21.7492761,21.558395 20.7128186,23.5709337 19.91,25.68 C19.75,26.08 19.63,26.51 19.49,26.92 C19.23,22.42 20.15,17.84 23.28,14.41 Z M17.53,42.23 C17.31,45.89 16.81,49.52 16.33,53.15 C13.4,50.48 10.66,47.61 7.72,44.94 L17.53,42.23 Z M30.26,43.66 C28.179761,43.2456518 26.1389343,42.6534775 24.16,41.89 C25.31,41.74 26.58,41.53 27.94,41.24 C29.9102307,40.8077136 31.8455716,40.2294512 33.73,39.51 C35.4665521,38.8524758 37.1400426,38.0391594 38.73,37.08 C36.54,40.7 33.87,44.3 30.26,43.66 Z M41.79,31.74 C39.248083,34.2091402 36.2159892,36.1169745 32.89,37.34 C31.1184125,38.0317619 29.2964097,38.5867205 27.44,39 C24.8093848,39.5764607 22.1315712,39.9111873 19.44,40 C19.5178031,37.3075722 19.8526577,34.6287354 20.44,32 C20.8342278,30.1398876 21.3759396,28.3141181 22.06,26.54 C22.8086827,24.5909377 23.7747878,22.7325271 24.94,21 C26.2952941,18.9607 27.9858121,17.1653699 29.94,15.69 C31.1506796,14.7738077 32.4427453,13.9704508 33.8,13.29 L46.16,25.63 C45.0330743,27.8834204 43.5583476,29.945338 41.79,31.74 L41.79,31.74 Z M47.18,23.37 L36.05,12.24 C40.0723073,10.6664346 44.3179936,9.73832352 48.63,9.48999717 L48.71,9.48999717 C49.0479142,9.48927266 49.3709944,9.62873057 49.6022344,9.87513384 C49.8334744,10.1215371 49.9521591,10.4528124 49.93,10.79 C49.6816765,15.1020064 48.7535654,19.3476927 47.18,23.37 L47.18,23.37 Z"/>
    </g>
  </g>
</svg>
