<svg xmlns="http://www.w3.org/2000/svg" width="64" height="64" viewBox="0 0 64 64" style="background:#fff">
  <g id="Hering" fill="none" fill-rule="evenodd" stroke="none" stroke-width="1">
    <rect width="64" height="64" fill="#FFF"/>
    <g transform="translate(2 4)">
      <rect id="Rectangle" width="60" height="60" x="0" y="0"/>
      <path id="Path" fill="#4885E0" fill-rule="nonzero" d="M44.84,14.93 C40.09,19.68 36.05,24.93 30.84,29.22 C28.1883697,31.4081112 25.3735197,33.3905412 22.42,35.15 C19.52,36.87 16.78,37.97 14.86,40.82 C14.11,41.95 14.05,45.21 15.86,45.61 C21.66,46.92 29.51,39.35 33.56,35.71 C39,30.79 44.09,24.9 47,18.09 C47.51,17 46.5,13.27 44.84,14.93 Z" opacity=".5"/>
      <path id="Path" fill="#BAB41D" fill-rule="nonzero" d="M35 13.27C30.92 10.62 25.69 14.75 25.12 19.01 24.95 20.29 25.68 24.01 27.82 22.91 29.12 22.24 29.82 20.98 31.04 20.18 32.26 19.38 33.85 18.8 35.11 17.82 36.37 16.84 36.27 14.08 35 13.27zM18 44.82C17.1514763 43.6625828 15.8407278 42.9323608 14.41 42.82 13.9 42.75 13.41 42.71 12.89 42.61L12.69 42.61C12.6560509 42.497893 12.615991 42.3877282 12.57 42.28 11.63 40.28 9.57 38.58 7.47 40.39 4.26 43.22 4.27 49.06 6.67 52.39 8.73814932 54.9910773 12.2401893 55.9743889 15.36 54.83 19.06 53.22 20.31 48 18 44.82zM43.64 25.56C40.86 25.56 40.97 31.87 43.8 31.87 46.63 31.87 46.46 25.56 43.64 25.56zM47.64 20.56C44.91 20.56 45.03 26.74 47.79 26.74 50.55 26.74 50.41 20.56 47.64 20.56z" opacity=".5"/>
      <path id="Path" fill="#3D454C" fill-rule="nonzero" d="M45.58,11.16 C45.1583217,11.5945132 45.1583217,12.2854868 45.58,12.72 C46.0102116,13.1478006 46.7055686,13.146498 47.1341744,12.7170886 C47.5627802,12.2876791 47.5627802,11.5923209 47.1341744,11.1629114 C46.7055686,10.733502 46.0102116,10.7321994 45.58,11.16 L45.58,11.16 Z"/>
      <path id="Shape" fill="#3D454C" fill-rule="nonzero" d="M54.23,8.84 C53.72,8.09 52.76,8.15 51.8,8.38 L51.8,8.31 C51.853403,7.51144154 51.4708885,6.74641271 50.8,6.31 C49.68,5.75 47.8,6.15 41.94,9.82 C41.52,10.08 41.14,10.34 40.74,10.6 L40.74,10.6 C39.74,11.28 38.68,11.97 37.74,12.66 C36,12.1 30.33,10.66 26.2,13.56 L26.07,13.67 C25.2832696,14.4553733 24.9287431,15.5749307 25.12,16.67 C24.1983826,17.4435264 23.8690694,18.7166031 24.3,19.84 C23.7188497,20.5775365 23.4945775,21.5347644 23.6876294,22.4536913 C23.8806812,23.3726182 24.4711895,24.1586738 25.3,24.6 C23.2,27.31 21.52,29.9 19.98,32.28 C17.9,35.5 16.19,38.14 14.06,40.06 C9.62,39.57 6.65,41.5 5.33,43.53 C4.46023816,44.6375539 4.30093333,46.1451215 4.92,47.41 C5.30820548,47.9957346 5.93272277,48.3828623 6.63,48.47 C6.59204979,49.6520697 7.09669682,50.7866047 8,51.55 C8.7345948,52.455436 9.83412197,52.9868741 11,53 C11.0908817,53.6800847 11.4744476,54.2864841 12.05,54.66 C12.484085,54.9316525 12.9880323,55.0706724 13.5,55.06 C14.3930582,55.0400832 15.2612883,54.7622496 16,54.26 C18.08,52.92 20,49.83 19.4,45.18 C20.3659724,44.3412596 21.3957475,43.5789586 22.48,42.9 L22.65,43.46 C22.6462352,43.4898819 22.6462352,43.5201181 22.65,43.55 C23.0285792,44.45844 23.8637628,45.0953151 24.84,45.22 C24.9664572,45.2303019 25.0935428,45.2303019 25.22,45.22 C25.7916857,45.2193676 26.3484168,45.037292 26.81,44.7 C27.728171,45.0038374 28.7392124,44.7461975 29.4,44.04 C30.3150064,44.1577534 31.2333082,43.8479649 31.89,43.2 L32,43.1 C33.3786869,40.9328317 33.8324411,38.3039384 33.26,35.8 C35.4046232,34.1736401 37.4329027,32.3993132 39.33,30.49 C40.8423212,30.6958929 42.3299084,31.054388 43.77,31.56 C44.0686367,31.6817512 44.3875208,31.7462065 44.71,31.75 C45.1987896,31.7701347 45.6713136,31.572334 46,31.21 C47.13,29.97 46.24,26.98 45.5,25.09 C46.2200891,25.2765087 46.9280809,25.50694 47.62,25.78 C47.8975253,25.8894694 48.1918208,25.9503581 48.49,25.96 C48.9777328,25.9680136 49.4448667,25.7636425 49.77,25.4 C51.18,23.86 49.77,19.76 49.04,17.99 C49.96,16.69 50.81,15.53 51.55,14.53 C54.11,11.07 55,9.9 54.23,8.84 Z M26.28,23 C25.8716413,22.8258267 25.5914564,22.4420119 25.55,22 C25.500025,21.5888233 25.6711743,21.181868 26,20.93 C26.4077026,20.6343674 26.5319505,20.0816787 26.29,19.64 C26.0909979,19.3473645 26.0188579,18.9866644 26.09,18.64 C26.2128923,18.3763918 26.4206335,18.1616085 26.68,18.03 C26.9481914,17.9149458 27.1527425,17.6884784 27.24,17.41 C27.3296073,17.1275325 27.2893182,16.8198701 27.13,16.57 C26.8979281,16.1123096 26.9911869,15.5568119 27.36,15.2 C29.97,13.41 33.51,13.78 35.63,14.25 C32.2892777,16.8627745 29.2384893,19.8263975 26.53,23.09 L26.28,23 Z M21.6,33.43 C25.41,27.52 30.1,20.28 40.36,13.24 C41.0317736,16.0279624 43.2519237,18.1780024 46.06,18.76 C45.7,19.29 45.34,19.84 44.96,20.41 C38,31 30,35.87 24.22,39.45 C21.8001801,40.7868797 19.5420296,42.3974477 17.49,44.25 L17.49,44.25 L17.3,44.46 L17.09,44.69 C16.89,44.92 16.69,45.15 16.52,45.39 C15.918852,46.2188476 14.7690391,46.4222761 13.92,45.85 C13.4256532,45.5106616 13.13,44.9496076 13.13,44.35 C13.1320491,43.700928 13.4489546,43.093215 13.98,42.72 C14.34,42.46 14.69,42.18 15.04,41.89 L15.04,41.89 C17.5,39.77 19.42,36.8 21.6,33.43 Z M14.92,52.58 C14.4343923,52.9858516 13.785347,53.1379137 13.17,52.99 C12.95,52.84 12.99,52.38 13.01,52.19 C13.1077388,51.7707835 12.9652989,51.3319148 12.64,51.05 C12.4489919,50.8761983 12.1981521,50.7830293 11.94,50.79 C11.7378776,50.7956144 11.5382572,50.8362152 11.35,50.91 C10.94,51.04 10.35,51.23 9.35,50.2 C8.35,49.17 8.52,48.62 8.65,48.2 C8.82881351,47.7719987 8.76795756,47.2813476 8.49,46.91 C8.20408705,46.5973391 7.77546737,46.4569946 7.36,46.54 C7.2,46.54 6.68,46.62 6.54,46.39 C6.4,46.16 6.39,45.53 6.94,44.68 C8.07891515,43.1111866 9.87300352,42.1496731 11.81,42.07 C11.81,42.07 11.81,42.07 11.81,42.07 C11.71,42.23 11.61,42.39 11.53,42.55 L11.53,42.66 C11.47,42.79 11.41,42.92 11.36,43.06 C11.31,43.2 11.36,43.18 11.31,43.24 C11.2694645,43.3639378 11.2393597,43.4910469 11.22,43.62 C11.22,43.68 11.22,43.73 11.22,43.79 C11.2097237,43.9765252 11.2097237,44.1634748 11.22,44.35 C11.176914,45.5771435 11.7278933,46.7498359 12.7,47.5 C12.8729587,47.6235762 13.0570935,47.7307092 13.25,47.82 L13.43,47.89 C13.5592264,47.9503338 13.6929661,48.0004862 13.83,48.04 L14.06,48.09 C14.1813189,48.1229478 14.3050297,48.1463526 14.43,48.16 L14.68,48.16 L14.9,48.16 L15,48.16 C15.2692237,48.1519725 15.5370841,48.11849 15.8,48.06 L15.8,48.06 C16.0621941,47.9972155 16.3169621,47.9067058 16.56,47.79 L16.76,47.69 C16.9595063,47.5819691 17.1501069,47.4582459 17.33,47.32 L17.46,47.22 L17.51,47.22 C17.5789674,49.3235199 16.6109273,51.326877 14.92,52.58 L14.92,52.58 Z M30.46,41.86 C30.33,41.97 29.95,42.24 29.62,42.02 C29.371692,41.8573001 29.0639316,41.8133343 28.78,41.9 C28.495716,41.9869142 28.2648382,42.1958036 28.15,42.47 C28.0692307,42.6271422 27.9392956,42.7535655 27.78,42.83 C27.5488969,42.8667175 27.3125314,42.812998 27.12,42.68 C26.6830929,42.4418826 26.1375842,42.5612126 25.84,42.96 C25.6734215,43.1657357 25.4128395,43.2714791 25.15,43.24 C24.889442,43.2028666 24.6625433,43.0429216 24.54,42.81 L24.23,41.81 L25.23,41.18 C27.12,40.02 29.23,38.73 31.44,37.18 C31.6527593,38.8059669 31.3072398,40.4559988 30.46,41.86 L30.46,41.86 Z M44.55,29.7 L44.55,29.7 C43.4115812,29.2851611 42.2453636,28.9510013 41.06,28.7 C41.92,27.75 42.77,26.7 43.62,25.7 C44.1656321,26.9673443 44.480575,28.3219376 44.55,29.7 L44.55,29.7 Z M48.34,23.91 L48.34,23.91 C47.4378782,23.5590118 46.5122799,23.2716419 45.57,23.05 C45.93,22.55 46.28,22.05 46.63,21.51 L47.63,19.96 C48.1426062,21.211855 48.3845704,22.5579943 48.34,23.91 L48.34,23.91 Z M47.34,16.91 C44.6727348,16.7176316 42.5104316,14.6724357 42.17,12.02 L42.96,11.51 C47.83,8.51 49.35,8.12 49.77,8.11 C49.77,8.21 49.77,8.36 49.77,8.46 C49.82,8.95 49.95,10.46 51.5,10.46 C51.5897317,10.4698276 51.6802683,10.4698276 51.77,10.46 L52.02,10.39 C51.54,11.14 50.72,12.26 49.92,13.39 C49.12,14.52 48.29,15.58 47.33,16.94 L47.34,16.91 Z"/>
    </g>
  </g>
</svg>
