<svg xmlns="http://www.w3.org/2000/svg" width="64" height="64" viewBox="0 0 64 64" style="background:#fff">
  <g id="Himbeeren" fill="none" fill-rule="evenodd" stroke="none" stroke-width="1">
    <rect width="64" height="64" fill="#FFF"/>
    <g transform="translate(2 4)">
      <rect id="Rectangle" width="60" height="60" x="0" y="0"/>
      <path id="Path" fill="#31E085" fill-rule="nonzero" d="M42.83,14.8 C42.73,13.05 42.77,11.32 42.83,9.57 C42.83,8 42.02,5.57 40.22,5.31 C38.42,5.05 37.24,7 37.09,8.54 C36.72,12.24 37.09,16.54 39.24,19.66 C39.51,20.07 40.24,20.74 40.82,20.61 C41.3902322,20.542227 41.9038221,20.2326161 42.23,19.76 C43.28,18.37 42.92,16.42 42.83,14.8 Z" opacity=".5"/>
      <path id="Path" fill="#E05362" fill-rule="nonzero" d="M30.36,16.26 C29.4411639,15.8608642 28.3919225,15.8938823 27.5,16.35 C25.5867726,16.0459215 23.6470878,16.7087095 22.32,18.12 L13.12,29.36 C9.73165256,33.4259713 8.43037048,38.8381217 9.6,44 C10.36,47.64 13.3,53.83 17.96,53.24 C23.61,52.52 29.25,51.71 34.88,50.86 C40.51,50.01 45.17,48.78 47.32,42.86 C51.64,31 40.69,20.05 30.36,16.26 Z" opacity=".5"/>
      <path id="Shape" fill="#3D454C" fill-rule="nonzero" d="M51.32,35.6 C51.2987051,32.6384123 49.360296,30.032284 46.53,29.16 C46.5349885,29.0767413 46.5349885,28.9932587 46.53,28.91 C46.5239753,25.9614457 44.6048016,23.3580096 41.79,22.48 L41.79,22.48 L44.21,20.06 C47.1321447,17.1341837 49.3364779,13.570968 50.65,9.65 C50.7816786,9.30847244 50.7162407,8.92229171 50.4794005,8.64320924 C50.2425602,8.36412677 49.8721671,8.23674291 49.5137689,8.31111371 C49.1553706,8.38548451 48.866243,8.64972473 48.76,9 C47.7041035,12.1527753 46.0240318,15.0605917 43.82,17.55 C43.9424308,16.8902747 44.006014,16.2209776 44.01,15.55 C44.0012541,12.6337926 42.8820474,9.83041223 40.88,7.71 C40.6904755,7.50148576 40.421776,7.38260687 40.14,7.38260687 C39.858224,7.38260687 39.5895245,7.50148576 39.4,7.71 C37.46,9.84 36.5,11.38 36.34,14.37 C36.3096243,14.9222847 36.7327153,15.3946243 37.285,15.425 C37.8372847,15.4553757 38.3096243,15.0322847 38.34,14.48 C38.3522853,12.7909538 38.9900054,11.1663709 40.13,9.92 C42.5574719,13.1120932 42.6543515,17.5039695 40.37,20.8 C39.3820713,18.1904106 36.8902773,16.4576798 34.1,16.44 L34,16.44 C33.9534694,16.4349597 33.9065306,16.4349597 33.86,16.44 C32.9866059,13.6062026 30.3752888,11.6669454 27.41,11.65 C27.1222782,11.6497262 26.8348964,11.6697761 26.55,11.71 L26.31,11.71 C26.0870056,11.7412253 25.8664677,11.7880061 25.65,11.85 L25.45,11.85 C25.2012366,11.9285088 24.9574569,12.0220134 24.72,12.13 L24.44,12.26 L23.99,12.5 L23.69,12.68 C23.5,12.82 23.3,12.96 23.12,13.11 L22.85,13.35 C22.74,13.46 22.63,13.56 22.53,13.67 L22.28,13.94 C22.1156584,14.1313146 21.9620878,14.3316242 21.82,14.54 L21.72,14.71 C21.6,14.9 21.49,15.1 21.38,15.31 C21.3637393,15.3454389 21.3436175,15.3789752 21.32,15.41 C19.4369044,15.2447669 17.5708097,15.8767316 16.1756099,17.1521799 C14.7804102,18.4276282 13.9839666,20.2296733 13.98,22.12 L13.98,22.38 C11.1497672,23.2503468 9.21353298,25.8589971 9.2,28.82 C9.19813083,29.1550037 9.22489487,29.4895543 9.28,29.82 C9.28,29.95 9.34,30.08 9.37,30.21 C9.40603404,30.4090388 9.45276847,30.6059911 9.51,30.8 C9.51,30.96 9.63,31.12 9.69,31.28 C9.75,31.44 9.81,31.58 9.88,31.72 C9.96682779,31.8986402 10.0636478,32.0722484 10.17,32.24 C10.23,32.34 10.27,32.43 10.33,32.52 C8.99605781,33.7929367 8.24090951,35.5561538 8.24,37.4 C8.24,37.65 8.24,37.9 8.24,38.15 C8.24,38.23 8.24,38.31 8.24,38.39 C8.24,38.47 8.29,38.71 8.33,38.87 C8.37,39.03 8.38,39.07 8.4,39.17 L8.52,39.56 L8.64,39.88 C8.69,39.99 8.73,40.11 8.79,40.22 L8.94,40.55 L9.11,40.83 C9.27824789,41.1122803 9.46533894,41.3828942 9.67,41.64 L9.67,41.64 L9.91,41.91 L10.17,42.18 L10.4,42.39 L10.74,42.68 C10.7790599,42.7069498 10.8158493,42.7370502 10.85,42.77 C10.3161537,43.7519534 10.0376246,44.8523155 10.04,45.97 C10.0509834,49.6878403 13.0621597,52.6990166 16.78,52.71 C17.8989308,52.7123423 19.0000882,52.4301708 19.98,51.89 L20.07,52 C20.16,52.12 20.26,52.23 20.36,52.35 L20.57,52.58 L20.84,52.84 L21.11,53.08 L21.11,53.08 C21.3671058,53.2846611 21.6377197,53.4717521 21.92,53.64 L22.2,53.8 L22.53,53.96 L22.87,54.11 L23.19,54.23 L23.58,54.34 L23.88,54.42 C24.03,54.42 24.19,54.48 24.36,54.51 L24.6,54.51 C24.848782,54.5415791 25.0992277,54.5582755 25.35,54.56 C27.1933672,54.5567623 28.9557086,53.801989 30.23,52.47 C31.9832012,53.6965909 34.2151989,54.016414 36.2422994,53.3315028 C38.2693999,52.6465915 39.8500227,51.0385704 40.5,49 C42.3298309,49.0622151 44.1068411,48.3806435 45.4257367,47.1107355 C46.7446323,45.8408274 47.4929441,44.0908747 47.5,42.26 C47.5,42.06 47.5,41.86 47.5,41.65 C49.830346,40.5351994 51.3153674,38.1832676 51.32,35.6 Z M46.05,40.11 C45.5578062,40.2681764 45.2673202,40.775443 45.38,41.28 C45.4540122,41.6081601 45.4909104,41.9435984 45.49,42.28 C45.4789872,44.8900158 43.3600391,47.0000232 40.75,47 C40.4682855,46.9963103 40.1873464,46.9695542 39.91,46.92 C39.6408828,46.8688065 39.3625469,46.9302573 39.14,47.09 C38.9237254,47.2476147 38.7796495,47.4853399 38.74,47.75 C38.3644257,50.0463381 36.3868101,51.7366078 34.06,51.75 C32.8688155,51.7528854 31.7211638,51.3024053 30.85,50.49 C30.6369054,50.2927449 30.3485926,50.1978572 30.06,50.23 C29.7722131,50.2637018 29.5131929,50.4205732 29.35,50.66 C28.4647031,51.9413915 27.0074684,52.7073739 25.45,52.71 C25.1645573,52.7052839 24.8801011,52.675165 24.6,52.62 L24.39,52.62 C24.140487,52.5645367 23.8962424,52.4875829 23.66,52.39 L23.59,52.39 C23.3363302,52.2764656 23.0922089,52.1427005 22.86,51.99 L22.72,51.89 C22.5302083,51.7599043 22.3527933,51.6126164 22.19,51.45 C22.1477583,51.4158565 22.1076809,51.3791189 22.07,51.34 C21.8831349,51.1450706 21.7094195,50.9379483 21.55,50.72 L21.45,50.54 C20.9652145,49.7816545 20.7083711,48.9000568 20.71,48 C20.71,47.4477153 20.2622847,47 19.71,47 C19.1577153,47 18.71,47.4477153 18.71,48 C18.7100437,48.7635535 18.8419835,49.5213614 19.1,50.24 C18.4088047,50.6249264 17.631148,50.827943 16.84,50.83 C15.1702255,50.8276993 13.6248319,49.9469991 12.771778,48.5115719 C11.9187241,47.0761447 11.8838605,45.2977581 12.68,43.83 C13.4017633,44.0904366 14.1626988,44.225714 14.93,44.23 C15.4822847,44.23 15.93,43.7822847 15.93,43.23 C15.93,42.6777153 15.4822847,42.23 14.93,42.23 C14.0399896,42.2270201 13.1692815,41.9703173 12.42,41.49 L12.24,41.38 C12.0179163,41.2296597 11.8103495,41.0589192 11.62,40.87 L11.51,40.75 C11.3497693,40.5850484 11.202656,40.4078438 11.07,40.22 L10.97,40.08 C10.8151792,39.8455675 10.6813277,39.5979422 10.57,39.34 C10.5656639,39.320235 10.5656639,39.299765 10.57,39.28 C10.4738219,39.0432496 10.3969056,38.799124 10.34,38.55 C10.3352526,38.4800805 10.3352526,38.4099195 10.34,38.34 C10.284835,38.0598989 10.2547161,37.7754427 10.25,37.49 C10.2521733,36.206909 10.7755189,34.9797538 11.7,34.09 C12.3132242,34.6024689 13.0146747,34.9989409 13.77,35.26 C13.8737124,35.291946 13.9814858,35.3087856 14.09,35.31 C14.5354735,35.3347539 14.9434542,35.0614069 15.09,34.64 C15.1755507,34.3880635 15.1571743,34.1124209 15.0389374,33.8740704 C14.9207006,33.63572 14.7123526,33.4543151 14.46,33.37 C13.6887156,33.1037144 12.9996353,32.6420306 12.46,32.03 C12.2968611,31.8497342 12.1496442,31.6556755 12.02,31.45 L11.91,31.27 C11.808092,31.0962043 11.7178917,30.9158038 11.64,30.73 C11.64,30.66 11.57,30.58 11.54,30.5 C11.4726599,30.3142131 11.4191801,30.1236914 11.38,29.93 L11.32,29.7 C11.2764053,29.4287757 11.2530076,29.154689 11.25,28.88 C11.2626423,26.8773849 12.5248542,25.0959086 14.41,24.42 C14.8248218,25.5946209 15.5547877,26.6324871 16.52,27.42 C16.6986159,27.5633043 16.9210047,27.640964 17.15,27.64 C17.4525884,27.6410289 17.7393699,27.5049915 17.93,27.27 C18.2726824,26.8412485 18.2057366,26.2164209 17.78,25.87 C16.8667047,25.1747756 16.2347216,24.1735439 16,23.05 C15.945068,22.7734152 15.9182648,22.4919817 15.92,22.21 C15.9199747,20.9503108 16.4224286,19.742648 17.3159747,18.8547335 C18.2095208,17.966819 19.4203362,17.4720104 20.68,17.48 C20.6364326,17.7814366 20.6130473,18.0854465 20.61,18.39 C20.6168818,19.6167637 20.9629773,20.817715 21.61,21.86 C21.7925417,22.1598614 22.1189527,22.3420443 22.47,22.34 C22.6562584,22.3436121 22.8398227,22.2951234 23,22.2 C23.2274541,22.0613745 23.390202,21.8377316 23.4521522,21.5786668 C23.5141025,21.3196021 23.470135,21.0465272 23.33,20.82 C22.8841693,20.0879511 22.6488758,19.2471226 22.65,18.39 C22.6576999,17.8188538 22.7660242,17.2535365 22.97,16.72 C22.97,16.61 23.06,16.51 23.1,16.4 C23.14,16.29 23.28,16.06 23.38,15.89 C23.4197824,15.8210914 23.4631762,15.7543317 23.51,15.69 C23.8342151,15.2207854 24.2407854,14.8142151 24.71,14.49 L24.85,14.4 C25.0390084,14.2797811 25.2361509,14.1728564 25.44,14.08 L25.68,13.98 C25.8733104,13.9095048 26.0702595,13.8494187 26.27,13.8 L26.52,13.74 C26.8060086,13.6793646 27.0976356,13.6491963 27.39,13.6499844 C29.3926151,13.6626423 31.1740914,14.9248542 31.85,16.81 C30.6347158,17.2298309 29.5656404,17.9899851 28.77,19 C28.4275835,19.4335435 28.5014565,20.0625834 28.935,20.405 C29.3685435,20.7474165 29.9975834,20.6735435 30.34,20.24 C31.0527892,19.3267525 32.0789671,18.7103331 33.22,18.51 C33.4972843,18.4599929 33.778261,18.4332332 34.06,18.43 C36.6755479,18.4355006 38.7944994,20.5544521 38.8,23.17 C38.8,23.7222847 39.2477153,24.17 39.8,24.17 C42.4155479,24.1755006 44.5344994,26.2944521 44.54,28.91 C44.5367369,29.185113 44.5099729,29.4594441 44.46,29.73 C44.2624972,30.877601 43.6460069,31.9110239 42.73,32.63 C42.2964565,32.9807008 42.2292992,33.6164565 42.58,34.05 C42.9307008,34.4835435 43.5664565,34.5507008 44,34.2 C45.0111032,33.4157852 45.7748902,32.3568986 46.2,31.15 C48.1438916,31.8052506 49.4438467,33.6388085 49.4191328,35.6900128 C49.3937062,37.7412172 48.0493258,39.5424554 46.09,40.15 L46.05,40.11 Z"/>
      <path id="Path" fill="#3D454C" fill-rule="nonzero" d="M33.25 33.9C32.0390328 35.0774508 30.1109672 35.0774508 28.9 33.9L28.83 33.83C27.6460526 32.6177902 27.6460526 30.6822098 28.83 29.47 29.2221221 29.0778778 29.2221221 28.4421222 28.83 28.05 28.4378778 27.6578779 27.8021222 27.6578779 27.41 28.05 25.4666385 30.048836 25.4666385 33.231164 27.41 35.23L27.51 35.33C29.5161699 37.2596503 32.69645 37.2329999 34.67 35.27 35.0097768 34.8732397 34.9869323 34.2818058 34.6175632 33.9124368 34.2481942 33.5430677 33.6567603 33.5202232 33.26 33.86L33.25 33.9zM31.05 41.91C29.8205251 43.1183375 27.8494749 43.1183375 26.62 41.91 25.5781725 40.8390251 25.4518695 39.176035 26.32 37.96 26.5792234 37.5803499 26.5462168 37.0728735 26.24 36.73 26.24 36.73 26.24 36.73 26.24 36.73 26.2192527 36.7042166 26.1957834 36.6807473 26.17 36.66 26.17 36.66 26.17 36.6 26.1 36.58 26.03 36.56 26.1 36.58 26.1 36.58 25.7547568 36.276894 25.2474026 36.2480202 24.87 36.51 23.5527929 37.4336531 21.7485727 37.2002704 20.7097437 35.9718552 19.6709148 34.7434399 19.7404147 32.9255159 20.87 31.78 21.2577236 31.3899625 21.2577236 30.7600375 20.87 30.37 20.6822334 30.1806873 20.4266375 30.0742017 20.16 30.0742017 19.8933625 30.0742017 19.6377666 30.1806873 19.45 30.37 17.9085425 31.9303183 17.5373354 34.3014497 18.528185 36.2582076 19.5190346 38.2149655 21.6500037 39.3190621 23.82 39 23.5812547 40.5987977 24.1070531 42.2169238 25.24 43.37 26.1954266 44.3312007 27.4947337 44.8716856 28.85 44.8716856 30.2052663 44.8716856 31.5045734 44.3312007 32.46 43.37 32.7453762 43.1256101 32.8696819 42.7418816 32.7818101 42.376581 32.6939383 42.0112805 32.4087195 41.7260617 32.043419 41.6381899 31.6781184 41.5503181 31.2943899 41.6746238 31.05 41.96L31.05 41.91zM35.82 40.52C36.136247 40.2060317 36.2318184 39.7322798 36.0620268 39.3202614 35.8922353 38.9082431 35.4906325 38.6393753 35.045 38.6393753 34.5993675 38.6393753 34.1977647 38.9082431 34.0279732 39.3202614 33.8581816 39.7322798 33.953753 40.2060317 34.27 40.52 34.4747505 40.7270294 34.7538231 40.8435308 35.045 40.8435308 35.3361769 40.8435308 35.6152495 40.7270294 35.82 40.52z"/>
    </g>
  </g>
</svg>
