<svg xmlns="http://www.w3.org/2000/svg" width="64" height="64" viewBox="0 0 64 64" style="background:#fff">
  <g id="Himbeeressig" fill="none" fill-rule="evenodd" stroke="none" stroke-width="1">
    <rect width="64" height="64" fill="#FFF"/>
    <g transform="translate(2 3)">
      <rect id="Rectangle" width="60" height="60" x="0" y="0"/>
      <path id="Path" fill="#E05362" fill-rule="nonzero" d="M56,36.87 C55.25,34.78 52.67,31.57 50,32.02 C46.22,32.63 45.54,35.6 42.37,36.58 C39.2,37.56 34.12,36.12 31.05,35.58 C23.38,34.21 14.61,30.08 7,32 C2.17,33.19 3.27,41.46 5.11,44.27 C11.35,53.78 25.87,57.27 36.78,58.63 C50.46,60.35 60.84,50.35 56,36.87 Z" opacity=".5"/>
      <path id="Shape" fill="#3D454C" fill-rule="nonzero" d="M33.12,46.7 L33.17,46.64 C33.3334566,46.4038781 33.4740896,46.1527478 33.59,45.89 L33.59,45.79 C33.7008918,45.5239938 33.791158,45.2498519 33.86,44.97 C33.86,44.97 33.86,44.9 33.86,44.87 C33.9342797,44.585123 33.9811596,44.2937982 34,44 C34.036804,42.7323508 33.5816992,41.4996262 32.73,40.56 L32.81,40.41 C32.8692395,40.3167116 32.9226741,40.2198614 32.97,40.12 C33.03,40 33.08,39.88 33.13,39.75 C33.18,39.62 33.21,39.56 33.24,39.47 C33.3036847,39.3170502 33.3571358,39.1600377 33.4,39 L33.46,38.75 C33.5031012,38.5123344 33.526514,38.271517 33.53,38.03 C33.5687961,35.9371114 32.2997896,34.0415828 30.35,33.28 C30.3515589,30.5836257 28.2148158,28.3716763 25.52,28.28 L25.29,28.28 C25.23,28.16 25.15,28.04 25.07,27.91 C25.0504295,27.8679204 25.0269957,27.8277482 25,27.79 C24.8398322,27.5393605 24.6556289,27.30492 24.45,27.09 C24.45,27.09 24.45,27.09 24.4,27.04 C24.2101293,26.8415784 24.0026081,26.6608342 23.78,26.5 L23.67,26.42 C23.4263051,26.2488308 23.1687437,26.0983079 22.9,25.97 L22.9,25.97 C22.6476742,25.8591953 22.3868301,25.7689032 22.12,25.7 L21.9,25.65 C21.6070877,25.5875747 21.3092968,25.550769 21.01,25.54 C18.9171114,25.5012039 17.0215828,26.7702104 16.26,28.72 L16.19,28.72 C14.4761947,28.7013588 12.8722639,29.5618205 11.94,31 C11.3822358,29.9155919 11.1038289,28.7091624 11.13,27.49 C11.1705232,25.955734 11.6839191,24.4714261 12.6,23.24 C13.3844183,24.2167675 13.8019237,25.4374401 13.78,26.69 C13.78,27.2422847 14.2277153,27.69 14.78,27.69 C15.3322847,27.69 15.78,27.2422847 15.78,26.69 C15.78485,24.5443208 14.9145085,22.4894482 13.37,21 C13.1850703,20.7893677 12.9202298,20.6660174 12.64,20.66 C12.358937,20.6500868 12.0866917,20.7589849 11.89,20.96 C10.1818127,22.6838918 9.19483387,24.9939943 9.13,27.42 C9.10506095,27.8296208 9.10506095,28.2403792 9.13,28.65 C7.98104113,27.0954335 7.11139932,25.3527661 6.56,23.5 C6.39707599,22.9698066 5.83519336,22.672076 5.305,22.835 C4.77480665,22.997924 4.47707601,23.5598066 4.64,24.09 C5.50212338,26.8633238 6.99439189,29.3994958 9,31.5 L10.3,32.87 C8.47995077,33.6017733 7.25595049,35.3302337 7.17,37.29 C5.34725341,37.9394529 4.06286984,39.5823147 3.87244943,41.5079144 C3.68202901,43.4335142 4.61976092,45.2961185 6.28,46.29 C6.28,46.37 6.28,46.45 6.28,46.52 C6.18406251,49.2301327 8.29078521,51.5109278 11,51.63 C11.6615691,53.6196399 13.4942571,54.9851722 15.59,55.05 C16.4781791,55.0746611 17.356293,54.8568612 18.13,54.42 C19.0305999,55.3092128 20.2349032,55.8238112 21.5,55.8600143 L21.63,55.8600143 C21.9422106,55.8607666 22.25373,55.8306196 22.56,55.77 L22.63,55.77 C22.9202349,55.7077527 23.2046069,55.6207684 23.48,55.51 L23.56,55.51 C23.8267975,55.3932744 24.0842232,55.2562036 24.33,55.1 L24.39,55.1 C24.6296385,54.9333116 24.8568988,54.7494981 25.07,54.55 L25.07,54.55 L25.33,54.28 C25.9818232,54.6107773 26.6992759,54.7918487 27.43,54.81 C29.1426967,54.869452 30.763847,54.0370155 31.7135117,52.6104806 C32.6631763,51.1839458 32.8056632,49.3671419 32.09,47.81 C32.4907158,47.497715 32.8385049,47.1229132 33.12,46.7 Z M27.62,52.7 L27.54,52.7 C27.1276109,52.6861982 26.7225025,52.5874743 26.35,52.41 C26.5014822,51.9542922 26.5889836,51.4797653 26.61,51 C26.6189317,50.6427344 26.4365859,50.3078424 26.1316507,50.1214746 C25.8267154,49.9351067 25.4455175,49.9255768 25.1316506,50.0964746 C24.8177837,50.2673723 24.6189316,50.5927344 24.61,50.95 C24.5899936,51.4906808 24.4241388,52.0158874 24.13,52.47 C24.1034782,52.5156408 24.0733841,52.55911 24.04,52.6 C23.9476706,52.7321501 23.8439407,52.8559568 23.73,52.97 C23.7082355,52.9984041 23.6810418,53.0221985 23.65,53.04 C23.5491739,53.1406632 23.4386355,53.2311037 23.32,53.31 L23.23,53.37 C22.9248958,53.5652445 22.5855889,53.7009673 22.23,53.77 L22.23,53.77 C22.0554086,53.8053383 21.8780728,53.8254141 21.7,53.83 L21.58,53.83 C20.6068196,53.8008656 19.7082984,53.3012729 19.17,52.49 C19.011062,52.2492238 18.7558796,52.0888235 18.47,52.05 L18.34,52.05 C18.0969276,52.0503498 17.8623042,52.1392223 17.68,52.3 C16.8473712,52.9898375 15.7079417,53.1782411 14.6975731,52.7931416 C13.6872045,52.4080421 12.9622409,51.5090296 12.8,50.44 C12.7653789,50.1733114 12.6248019,49.9318073 12.41,49.77 C12.1930489,49.6059434 11.9186306,49.5373389 11.65,49.58 C11.4736793,49.5956361 11.2963207,49.5956361 11.12,49.58 C9.51018825,49.5155565 8.23871062,48.1911006 8.24,46.58 C8.25389306,46.3845087 8.2839965,46.1905087 8.33,46 C8.45159113,45.5006451 8.17486426,44.9904299 7.69,44.82 C6.58335825,44.3813675 5.84074996,43.3299156 5.79741255,42.1403037 C5.75407515,40.9506919 6.41820799,39.8479926 7.49,39.33 C7.79255376,40.1080355 8.28809982,40.7962939 8.93,41.33 C9.10726356,41.4769009 9.32978534,41.558139 9.56,41.56 C9.86092451,41.5634817 10.1474156,41.4312551 10.34,41.2 C10.5089076,40.9946605 10.5890865,40.7305087 10.5628159,40.4659261 C10.5365453,40.2013435 10.4059883,39.9581158 10.2,39.79 C9.27755346,38.9599022 8.9614037,37.6475373 9.40465218,36.4884425 C9.84790066,35.3293477 10.9590479,34.5627943 12.2,34.56 C12.463039,34.557115 12.7157978,34.4574354 12.91,34.28 C13.1020951,34.0970246 13.2136102,33.8452164 13.22,33.58 C13.2844435,31.9701882 14.6088994,30.6987106 16.22,30.7 L16.29,30.7 C17.1967144,30.7195164 18.0428883,31.1592312 18.58,31.89 C18.9113708,32.3318278 19.5381722,32.4213708 19.98,32.09 C20.1937281,31.9323655 20.3359749,31.696189 20.3753699,31.4335555 C20.4147649,31.170922 20.3480723,30.9034045 20.19,30.69 C19.694528,30.0291856 19.0412777,29.5031472 18.29,29.16 C18.8059832,28.145372 19.8517505,27.5101652 20.99,27.5198874 C21.1687672,27.5229214 21.3466042,27.5464093 21.52,27.59 L21.69,27.59 L22.03,27.7 L22.2,27.78 C22.3174631,27.8356425 22.4310525,27.899119 22.54,27.97 C22.5726981,27.9990515 22.6098342,28.0226835 22.65,28.04 C22.7936843,28.1517638 22.9305928,28.2719761 23.06,28.4 C23.1808753,28.5311027 23.2912177,28.6715385 23.39,28.82 L23.47,28.97 C23.53,29.07 23.58,29.17 23.63,29.27 L23.71,29.48 C23.969997,30.3317949 23.8380998,31.255076 23.35,32 C23.1536432,32.3059953 23.1388379,32.6944548 23.3113342,33.0145082 C23.4838305,33.3345616 23.8164463,33.5357746 24.18,33.54 C24.5235395,33.5428559 24.8444941,33.3691628 25.03,33.08 C25.5145042,32.3198581 25.7808636,31.4412179 25.8,30.54 C25.8098968,30.4435866 25.8098968,30.3464134 25.8,30.25 C26.9585996,30.4430821 27.8979446,31.2945486 28.2035353,32.4286774 C28.509126,33.5628062 28.1247426,34.7709509 27.22,35.52 C26.7846782,35.8574567 26.7041999,36.483399 27.04,36.92 C27.2287926,37.165247 27.5205034,37.3092561 27.83,37.31 C28.0509494,37.3093122 28.2654502,37.2354677 28.44,37.1 C29.0776514,36.6099886 29.5857523,35.9714294 29.92,35.24 C30.9427198,35.7738943 31.5686743,36.8469592 31.53,38 C31.5297952,38.1717486 31.5096606,38.3428933 31.47,38.51 L31.47,38.65 C31.4360427,38.7686518 31.3959895,38.8854735 31.35,39 L31.29,39.15 C31.2377978,39.2640774 31.1776499,39.3743486 31.11,39.48 L31.04,39.59 C30.9485933,39.7200595 30.8483572,39.8436841 30.74,39.96 C30.3957758,40.3235056 29.9660557,40.5950887 29.49,40.75 C29.0253988,40.9025877 28.7392995,41.3687993 28.813658,41.8521295 C28.8880165,42.3354598 29.3010187,42.6941173 29.79,42.7 C29.8894311,42.7150853 29.9905689,42.7150853 30.09,42.7 C30.5495843,42.5326806 30.9811525,42.2966667 31.37,42 C31.8019077,42.5407032 32.0254541,43.2184392 32,43.91 C31.9954141,44.0880728 31.9753383,44.2654086 31.94,44.44 L31.94,44.57 C31.8972002,44.7267968 31.8437425,44.8804876 31.78,45.03 L31.78,45.03 C31.6997201,45.1888353 31.6095426,45.3424711 31.51,45.49 L31.46,45.55 C31.3675691,45.678973 31.2638252,45.7994498 31.15,45.91 L31.15,45.96 C31.0212669,46.0806961 30.8805357,46.1879198 30.73,46.28 L30.67,46.28 C30.1828732,46.5778387 29.6208682,46.7304821 29.05,46.72 C28.4977153,46.72 28.05,47.1677153 28.05,47.72 C28.05,48.2722847 28.4977153,48.72 29.05,48.72 L29.18,48.72 C29.6028486,48.7162647 30.0232776,48.6557229 30.43,48.54 C30.5947434,48.9182818 30.6765778,49.327454 30.67,49.74 C30.6568491,50.5356852 30.3280953,51.2935439 29.756085,51.8467998 C29.1840747,52.4000556 28.4156815,52.7033719 27.62,52.69 L27.62,52.7 Z"/>
      <path id="Shape" fill="#3D454C" fill-rule="nonzero" d="M57,40.5 C56.32,36.5 54.18,32.98 52.45,29.38 C50.5808943,25.5476258 49.3159343,21.4491555 48.7,17.23 C49.1816668,16.9960372 49.602651,16.6537736 49.93,16.23 C50.87,14.96 50.68,13.3 50.68,11.81 C50.6856297,11.7568152 50.6856297,11.7031848 50.68,11.65 C50.85,10.46 49.03,9.98 48.75,11.2 C48.36,12.88 40.98,12.82 38.87,11.74 C38.94885,11.4577769 38.9129032,11.1558239 38.77,10.9 C39.26,11.7 40.77,11.57 40.62,10.46 C40.46,9.11 40.21,7.75 40.14,6.4 C40,3.62 41.52,3.83 43.56,3.83 C45.6,3.83 47.16,3.61 47,6.34 C46.93,7.68 46.66,9.03 46.49,10.34 C46.32,11.65 48.32,11.6 48.49,10.34 C48.72,8.49 49.38,6.24 48.86,4.4 C48.08,1.69 45.86,1.81 43.56,1.81 C41.26,1.81 39,1.71 38.25,4.44 C37.73,6.29 38.37,8.58 38.59,10.44 C38.6047685,10.562452 38.6420627,10.6811153 38.7,10.79 C38.4841684,10.4598642 38.0619159,10.3331884 37.7,10.49 C37.3592588,10.588913 37.0539174,10.7832211 36.82,11.05 C36.700027,11.1584577 36.6104117,11.2963274 36.56,11.45 C36.5023667,11.5926197 36.4784123,11.7466126 36.49,11.9 C36.49,13.36 36.33,14.97 37.25,16.22 C37.6576502,16.7384534 38.1961373,17.1388669 38.81,17.38 C38,22.67 35.62,27.18 33.1,31.86 C32.49,32.99 34.22,34 34.83,32.86 C37.44,28.02 39.91,23.37 40.74,17.86 C41.6416067,17.9790167 42.5506576,18.0324902 43.46,18.02 C43.6216068,20.8777406 44.1837636,23.6986236 45.13,26.4 C45.56,27.61 47.49,27.09 47.06,25.87 C46.1509908,23.3358891 45.6023012,20.6866946 45.43,18 C45.8826372,17.9719449 46.3333448,17.9185277 46.78,17.84 C47.4664322,22.2026263 48.8153263,26.4347814 50.78,30.39 C53.73,36.53 59.29,47.7 50.6,52.13 C50.2924555,52.3075523 50.1021435,52.6348889 50.1,52.99 C50.1,53.99 50.23,54.15 50.34,53.99 C49.6,54.99 48.13,55.18 47.03,55.45 C44.94,55.95 39.57,56.37 37.79,54.45 C39.1937528,54.8187227 40.6251196,55.0728906 42.07,55.21 C43.35,55.33 43.34,53.33 42.07,53.21 C40.1848167,53.0240197 38.3284446,52.6144764 36.54,51.99 C36.046438,51.7922359 35.5847904,51.5226606 35.17,51.19 C34.11,50.46 33.11,52.19 34.17,52.92 C35.52,53.85 34.74,54.29 35.57,55.57 C36.4,56.85 38.57,57.12 39.82,57.37 C43.8596317,58.1515847 48.0455025,57.4822703 51.64,55.48 C51.9436995,55.2999357 52.1299384,54.9730673 52.13,54.62 C52.13,52.98 54.41,51.79 55.39,50.1 C57.0360434,47.1878884 57.6059333,43.7897869 57,40.5 L57,40.5 Z M38.49,13.79 C40.4149927,14.3045779 42.4136271,14.4871943 44.4,14.33 C45.8088887,14.41091 47.2218682,14.2760193 48.59,13.93 C47.83,16.03 45.48,16.05 43.54,16.05 C41.6,16.05 39,16.17 38.49,13.79 Z"/>
      <path id="Path" fill="#3D454C" fill-rule="nonzero" d="M51 49.75C53.5 46.28 53.34 41.62 51.53 37.85 50.97 36.69 49.25 37.71 49.8 38.85 51.4333817 41.9980987 51.2304707 45.784494 49.27 48.74 48.51 49.79 50.24 50.79 51 49.75zM49.11 34.12C48.7336355 33.954573 48.2943741 34.0363466 48.0027517 34.326127 47.7111293 34.6159075 47.6265741 35.054642 47.7896132 35.4320471 47.9526522 35.8094522 48.3300604 36.0486185 48.7409479 36.0349147 49.1518355 36.0212109 49.5124696 35.7574296 49.65 35.37 49.8252873 34.8762075 49.5896896 34.3308424 49.11 34.12z"/>
    </g>
  </g>
</svg>
