<svg xmlns="http://www.w3.org/2000/svg" width="64" height="64" viewBox="0 0 64 64" style="background:#fff">
  <g id="Hirse" fill="none" fill-rule="evenodd" stroke="none" stroke-width="1">
    <rect width="64" height="64" fill="#FFF"/>
    <g transform="translate(2 4)">
      <rect id="Rectangle" width="60" height="60" x="0" y="0"/>
      <path id="Path" fill="#EBE53F" fill-rule="nonzero" d="M38.64 14.22C38.8164997 13.1146873 39.3587743 12.1005634 40.18 11.34L40.25 11.29 40.35 11.2 40.35 11.2C41.1573535 10.4498015 42.083167 9.83822396 43.09 9.39 44.96 8.68 46.26 10.65 46.65 12.19 46.9637843 13.4224253 46.9256748 14.7181471 46.54 15.93 46.4769454 16.9851588 46.1315752 18.0040007 45.54 18.88 45.1710233 19.4744437 44.6355093 19.9473652 44 20.24 43.5933182 20.3705567 43.1667402 20.4281109 42.74 20.41L41.59 20.46 40.75 20.27C40.3125505 20.0818125 39.9403463 19.7687435 39.68 19.37 39.0913649 18.6322602 38.7176569 17.7464337 38.6 16.81 38.4832591 15.9495527 38.4967436 15.0764319 38.64 14.22L38.64 14.22zM23.15 17.94C23.24 16.35 23.85 14.11 25.4 13.36 25.9167669 12.7313548 26.686232 12.3649429 27.5 12.36L30.41 12.84C32.79 13.24 33.81 15.91 33.69 18.11 33.6457592 19.6223951 33.1242108 21.0820306 32.2 22.28 31.4373132 23.3731885 30.1158412 23.9328707 28.8 23.72 28.1001528 23.5899496 27.4251946 23.3503394 26.8 23.01L26.31 23.01C24 22.72 23.05 19.92 23.15 17.94zM9.38 11.2C9.71 9.81 10.58 8.29 12.02 8.26 12.4731863 8.03084624 12.9998016 7.9947767 13.48 8.16 13.7039109 8.21792737 13.9191288 8.30535965 14.12 8.42 14.9710834 8.78703694 15.7963083 9.21134285 16.59 9.69 17.4 9.89 18.08 11.16 18.32 11.82 18.7119391 12.9480673 18.7880149 14.1618217 18.54 15.33 18.3755369 16.1722265 18.0082714 16.9616756 17.47 17.63 17.47 17.63 17.47 17.68 17.47 17.7 17.1379488 18.6961151 16.4163562 19.5151228 15.47 19.97 14.586597 20.2712191 13.6088841 20.0509438 12.94 19.4L11 17.64C10.0717285 16.6725908 9.51559167 15.4079995 9.43 14.07 9.16922267 13.1331979 9.1520122 12.1453172 9.38 11.2zM6.9 28.28C7.74 26.71 9.58 25.66 11.13 27.11 11.22 27.19 11.3 27.29 11.39 27.38 11.9208473 26.7830521 12.6918716 26.4562846 13.49 26.49 15.62 26.69 16.66 28.89 16.99 30.77 17.5438039 33.7274645 17.1953817 36.7831268 15.99 39.54 15.5871166 40.7761441 14.5861011 41.7244746 13.33 42.06 12.0973097 42.2468193 10.8850053 41.616421 10.33 40.5 9.23 38.61 8.11 36.7 7 34.8 5.87345534 32.7814735 5.83588866 30.3321255 6.9 28.28L6.9 28.28zM18.23 44.2C18.6519993 42.8125165 19.7724012 41.7490841 21.18 41.4 21.4816818 41.3552361 21.7883182 41.3552361 22.09 41.4 22.3721791 41.2605737 22.6769402 41.1725316 22.99 41.14 24.0837865 40.3263378 25.6133152 40.4595271 26.55 41.45 27.95 42.71 28.3 44.74 28.32 46.51 28.32 47.07 28.32 47.64 28.32 48.2 28.3163681 49.1740136 28.242846 50.1465111 28.1 51.11 27.85 53.31 25.56 55.97 23.37 54.82 22.6203717 55.0454126 21.8086823 54.9125907 21.17 54.46 19.6233776 53.8912709 18.4562925 52.5970034 18.05 51 17.350706 48.7765859 17.4140576 46.3833049 18.23 44.2zM34.19 49C33.78 46.58 34.19 43.59 36.19 42 37.0310871 41.2565942 38.1424271 40.8945942 39.26 41 39.6282977 40.9498066 40.0017023 40.9498066 40.37 41 43.15 41.31 44.18 44.62 44.11 47 44.1251686 49.1380783 43.4442228 51.223036 42.17 52.94 41.17 54.17 39.58 55.56 37.84 55.39 35.92 55.21 35.01 53.47 34.65 51.72 34.3544631 50.8431952 34.1992183 49.9252264 34.19 49L34.19 49zM25.91 31.08C25.91763 30.7184849 25.9476877 30.3577916 26 30L26 29.72 26 29.72C26.1621898 28.8774722 26.5031914 28.0795283 27 27.38 27.5303683 26.5110175 28.453596 25.9578284 29.47 25.9 29.9606964 25.9451193 30.4319939 26.1136855 30.84 26.39 32.0515314 25.3702456 33.7024091 25.0453589 35.21 25.53 36.9614665 26.4394069 38.1241884 28.1834898 38.29 30.15 38.7488387 32.6574148 37.9664334 35.2319009 36.19 37.06 35.4819852 37.7484795 34.4319255 37.9490527 33.52 37.57 32.88 38.99 31.39 40.19 29.88 39.17 29.51051 38.9034821 29.2005931 38.5629141 28.97 38.17 28.6765042 38.1559687 28.3897052 38.0774404 28.13 37.94 26.41 37.07 25.74 34.81 25.81 33 25.86 32.39 25.89 31.74 25.91 31.08zM45 35.18C45.22 33.18 46.26 30.69 48.58 30.6L52.75 30.44C53.8287546 30.5503082 54.7832715 31.1866528 55.3 32.14 55.8622621 33.1274692 56.1810707 34.2347292 56.23 35.37 56.3448354 36.5779363 56.1664521 37.7957453 55.71 38.92 55.29 39.83 54.54 41.23 53.45 41.43 52.84 41.54 52.19 41.71 51.56 41.79L51.42 41.9C50.8676846 42.3692071 50.1218075 42.5407589 49.42 42.36 48.980231 42.4293036 48.5298398 42.3738709 48.12 42.2 47.3448084 41.8238269 46.73077 41.1813937 46.39 40.39 45.2071681 38.9298601 44.7017085 37.0352957 45 35.18L45 35.18z" opacity=".5"/>
      <path id="Shape" fill="#3D454C" fill-rule="nonzero" d="M46.57 41.06C45.2851722 40.1446936 44.4406314 38.7347093 44.24 37.17 44.0237853 35.5836259 44.4286184 33.9750414 45.37 32.68 47.2313399 29.9548149 50.9441111 29.2444291 53.68 31.09 54.9658128 32.0118054 55.8071219 33.4297014 56 35 56.2068894 36.5858422 55.8029154 38.1910129 54.87 39.49 53.9508271 40.7932572 52.564806 41.692201 51 42 50.6217358 42.0789451 50.2364136 42.1191527 49.85 42.120002 48.6723039 42.1210021 47.5243762 41.7500255 46.57 41.06L46.57 41.06zM47 33.84C46.3594635 34.7232905 46.0804543 35.817865 46.22 36.9 46.3513694 37.9160129 46.8981142 38.8320819 47.73 39.43L47.73 39.43C48.5638335 40.0239925 49.6083354 40.2415971 50.61 40.03 52.8131389 39.5637766 54.2885791 37.4833623 54 35.25 53.8757619 34.2340239 53.3317699 33.3164908 52.5 32.72 51.8786455 32.2771832 51.1329638 32.042626 50.37 32.05 49.0252287 32.0740971 47.7729121 32.7392742 47 33.84L47 33.84zM17.1 46.9C17.0160082 43.4316329 19.7520035 40.5481084 23.22 40.45 26.6428584 40.6406744 29.3206951 43.4718348 29.3206951 46.9 29.3206951 50.3281652 26.6428584 53.1593256 23.22 53.35 19.7520035 53.2518916 17.0160082 50.3683671 17.1 46.9L17.1 46.9zM19.1 46.9C19.0154681 49.2640961 20.8564038 51.2524854 23.22 51.35 25.5620625 51.1928996 27.3815038 49.2473255 27.3815038 46.9 27.3815038 44.5526745 25.5620625 42.6071004 23.22 42.45 20.8564038 42.5475146 19.0154681 44.5359039 19.1 46.9L19.1 46.9zM34.15 51.31L34.15 51.31C32.4351486 49.5462203 31.9385616 46.9291827 32.8881192 44.6598272 33.8376767 42.3904717 36.0500514 40.9069344 38.51 40.89L38.51 40.89C40.1117494 40.89 41.6470366 41.5302906 42.7739956 42.6685192 43.9009546 43.8067478 44.5260175 45.3483307 44.51 46.95 44.4880393 50.3325465 41.7426135 53.06458 38.36 53.07 36.7796423 53.06068 35.266778 52.4282236 34.15 51.31L34.15 51.31zM38.52 42.89C36.8672141 42.8657499 35.3647314 43.8459367 34.7209842 45.3683948 34.0772369 46.890853 34.4207615 48.6515947 35.5895834 49.8204166 36.7584053 50.9892385 38.519147 51.3327631 40.0416052 50.6890158 41.5640633 50.0452686 42.5442501 48.5427859 42.52 46.89 42.52 44.680861 40.729139 42.89 38.52 42.89zM31.46 37.88C29.8103584 37.8637848 28.2361553 37.1865532 27.09 36L27.09 36C24.6856639 33.6205302 24.6455193 29.7488124 27 27.32 28.1371407 26.1759839 29.6870158 25.5380121 31.3 25.55L31.35 25.55C33.8416481 25.5696373 36.0819442 27.072023 37.0458594 29.3697531 38.0097746 31.6674832 37.5118866 34.3185579 35.78 36.11 34.6428593 37.2540161 33.0929842 37.8919879 31.48 37.88L31.46 37.88zM28.46 28.74C26.8528158 30.3841429 26.8796558 33.0189389 28.52 34.63L28.52 34.63C29.3142777 35.4285951 30.3936659 35.8783402 31.52 35.88 32.6162914 35.8899965 33.6711395 35.461577 34.45 34.69 36.0516832 33.0436515 36.0248893 30.4133783 34.39 28.8 33.5957223 28.0014049 32.5163341 27.5516598 31.39 27.55L31.39 27.55C30.2844428 27.5218041 29.216547 27.9525824 28.44 28.74L28.46 28.74zM28.46 24.18C26.8161751 24.1743159 25.2428093 23.5118461 24.09 22.34L24.09 22.34C22.932806 21.1895577 22.2722894 19.6316 22.25 18 22.2310427 16.3684852 22.8707908 14.7982569 24.0245239 13.6445239 25.1782569 12.4907908 26.7484852 11.8510427 28.38 11.87 30.8716481 11.8896373 33.1119442 13.392023 34.0758594 15.6897531 35.0397746 17.9874832 34.5418866 20.6385579 32.81 22.43 31.6728593 23.5740161 30.1229842 24.2119879 28.51 24.2L28.46 24.18zM25.46 15.04C24.6626646 15.8155194 24.2242458 16.888015 24.25 18 24.2538516 19.1258929 24.7032615 20.2044766 25.5 21L25.5 21C26.2942777 21.7985951 27.3736659 22.2483402 28.5 22.25 29.5971915 22.2486998 30.6456811 21.7967646 31.4 21 33.0016832 19.3536515 32.9748893 16.7233783 31.34 15.11 30.5457223 14.3114049 29.4663341 13.8616598 28.34 13.86L28.34 13.86C27.2589778 13.8323795 26.2128303 14.2436236 25.44 15L25.46 15.04zM10.69 39.27C7.32942547 38.6565321 5.09536885 35.4439587 5.69 32.08L5.69 32.08C6.22321734 28.6997009 9.38686967 26.3850513 12.77 26.9 14.3953393 27.1620351 15.8416055 28.0804141 16.77 29.44 18.7092531 32.2693292 18.0643289 36.1256227 15.31 38.17 14.275656 38.9412713 13.0202422 39.3585737 11.73 39.3601196 11.3812942 39.3622727 11.0331313 39.3321432 10.69 39.27L10.69 39.27zM7.69 32.41L7.69 32.41C7.26793528 34.6714243 8.74365619 36.8515679 11 37.3 12.0815139 37.4848203 13.1914667 37.2172747 14.07 36.56 15.959422 35.1524012 16.4007726 32.5042979 15.07 30.56 14.4538963 29.6526188 13.4922348 29.0380231 12.41 28.86 12.1922523 28.8201908 11.9713568 28.8001094 11.75 28.8 9.68917934 28.8460375 7.96162002 30.3708515 7.66 32.41L7.69 32.41z"/>
      <path id="Path" fill="#3D454C" fill-rule="nonzero" d="M50.38,37.39 C49.8277153,37.39 49.38,36.9422847 49.38,36.39 C49.38,35.8377153 49.8277153,35.39 50.38,35.39 C50.9322847,35.39 51.38,35.8377153 51.38,36.39 C51.38,36.9422847 50.9322847,37.39 50.38,37.39 Z"/>
      <path id="Shape" fill="#3D454C" fill-rule="nonzero" d="M38.47,18.74 C36.7551486,16.9762203 36.2585616,14.3591827 37.2081192,12.0898272 C38.1576767,9.82047173 40.3700514,8.33693438 42.83,8.32 L42.83,8.32 C44.4290116,8.30935639 45.9647801,8.94385231 47.09,10.08 C48.8128318,11.8464778 49.3085683,14.4737326 48.3479123,16.7465575 C47.3872562,19.0193825 45.1575031,20.4946532 42.69,20.490011 C41.107602,20.485968 39.5908637,19.8569888 38.47,18.74 Z M42.84,10.32 C41.7502313,10.3281219 40.7078426,10.766644 39.94,11.54 C38.3700823,13.1310703 38.3815063,15.6918285 39.9655572,17.2688285 C41.5496082,18.8458285 44.1103918,18.8458285 45.6944428,17.2688285 C47.2784937,15.6918285 47.2899177,13.1310703 45.72,11.54 L45.72,11.54 C44.9643177,10.7851224 43.9381095,10.3638369 42.87,10.37 L42.84,10.32 Z"/>
      <path id="Path" fill="#3D454C" fill-rule="nonzero" d="M44.12 15.67C43.5677153 15.67 43.12 15.2222847 43.12 14.67 43.12 14.1177153 43.5677153 13.67 44.12 13.67 44.6722847 13.67 45.12 14.1177153 45.12 14.67 45.12 15.2222847 44.6722847 15.67 44.12 15.67zM22.43 46.38C21.8777153 46.38 21.43 45.9322847 21.43 45.38 21.43 44.8277153 21.8777153 44.38 22.43 44.38 22.9822847 44.38 23.43 44.8277153 23.43 45.38 23.43 45.9322847 22.9822847 46.38 22.43 46.38z"/>
      <path id="Shape" fill="#3D454C" fill-rule="nonzero" d="M7.7,13.3 C7.61600817,9.83163289 10.3520035,6.94810841 13.82,6.85 C15.4962748,6.88145233 17.0908731,7.5797662 18.2507785,8.79034708 C19.4106839,10.000928 20.0402134,11.6239124 20,13.3 C20.0839322,16.7721639 17.3419407,19.6572936 13.87,19.75 C12.1954755,19.7159223 10.603444,19.0164584 9.44569243,17.8061671 C8.28794087,16.5958758 7.6597754,14.9743882 7.7,13.3 Z M9.7,13.3 C9.61546811,15.6640961 11.4564038,17.6524854 13.82,17.75 C14.9659466,17.7187209 16.051963,17.2311525 16.8368265,16.3955921 C17.62169,15.5600316 18.0404166,14.4456607 18,13.3 C18.084445,10.9321555 16.2375565,8.94216666 13.87,8.85 C12.7258113,8.88389261 11.6423608,9.37260169 10.8596472,10.2078716 C10.0769336,11.0431415 9.65956707,12.1560238 9.7,13.3 L9.7,13.3 Z"/>
      <path id="Path" fill="#3D454C" fill-rule="nonzero" d="M13,12.78 C12.4477153,12.78 12,12.3322847 12,11.78 C12,11.2277153 12.4477153,10.78 13,10.78 C13.5522847,10.78 14,11.2277153 14,11.78 C14,12.3322847 13.5522847,12.78 13,12.78 Z"/>
    </g>
  </g>
</svg>
