<svg xmlns="http://www.w3.org/2000/svg" width="64" height="64" viewBox="0 0 64 64" style="background:#fff">
  <g id="Hirschfleisch" fill="none" fill-rule="evenodd" stroke="none" stroke-width="1">
    <rect width="64" height="64" fill="#FFF"/>
    <g transform="translate(2 6)">
      <rect id="Rectangle" width="60" height="60" x="0" y="0"/>
      <path id="Path" fill="#C17953" fill-rule="nonzero" d="M51.38,12.51 C48.68,10.36 45.94,11.41 43.64,13.75 C42.19,15.23 41.35,17.16 40.01,18.75 C38.67,20.34 36.76,20.85 35.01,21.93 C33.5184359,21.7552218 32.0115641,21.7552218 30.52,21.93 C26.8,22.19 23.11,22.46 19.39,22.61 C14.21,22.83 10.11,24.61 9.39,30.24 C9.32829102,30.770338 9.35192367,31.3071368 9.46,31.83 C9.02997112,33.7123408 8.7424895,35.6244278 8.6,37.55 C8.14,42.61 7.69,48.3 9.6,53.08 C10.87,56.27 14.08,54.89 14.48,51.99 C15.04,47.99 14.32,43.99 14.62,39.91 C14.75,38.25 14.72,35.91 15.54,34.42 C17.05,31.6 19.22,32.93 21.6,33.53 C24.81,34.34 28.1,34.6 30.8,33.53 C30.42,38.77 29.8,44.11 30.48,49.31 C30.99,53.4 34.93,52.59 35.7,49.18 C36.47,45.77 36.39,42.02 36.5,38.43 C36.4247354,36.4981646 36.4848826,34.5634297 36.68,32.64 C37.18,29.84 37.27,30.18 39.41,28.64 C44.23,25.08 46,19.64 51.16,16.32 C51.7357925,15.8701976 52.0899968,15.1942227 52.1321168,14.464781 C52.1742368,13.7353394 51.9001925,13.0230876 51.38,12.51 L51.38,12.51 Z" opacity=".5"/>
      <path id="Shape" fill="#3D454C" fill-rule="nonzero" d="M53.87,13.52 C53.6021038,13.2199686 53.18052,13.1096476 52.8,13.24 C53.1120042,12.9391872 53.2670981,12.5108326 53.22,12.08 C53.0939562,11.3092239 52.5448181,10.6750081 51.8,10.44 C51.1677656,10.1867284 50.4460189,10.3232751 49.95,10.79 C48.5505195,11.5795101 47.0593521,12.1941129 45.51,12.62 L45.45,12.62 C45.487981,12.3584497 45.5690816,12.1050104 45.69,11.87 C45.81,11.61 45.95,11.36 46.09,11.11 C46.73,9.97 47.52,8.55 46.52,6.9 C46.3712264,6.53907029 46.0260177,6.29771567 45.6359484,6.28191029 C45.2458791,6.26610491 44.8822751,6.47873885 44.7047878,6.82644865 C44.5273005,7.17415846 44.5683843,7.59336391 44.81,7.9 C45.0730023,8.36700949 45.0418103,8.94406147 44.73,9.38 C44.4630977,9.16678889 44.1574893,9.0071934 43.83,8.91 C43.4851066,8.79170001 43.1031618,8.87049497 42.8332448,9.11562992 C42.5633278,9.36076486 42.4482267,9.73338026 42.5328674,10.0880382 C42.617508,10.4426962 42.8884729,10.7231753 43.24,10.82 C43.48518,10.8895306 43.6753376,11.0834913 43.74,11.33 C43.5089584,11.9008774 43.4032405,12.5147235 43.43,13.13 C42.9976866,12.7753247 42.5159483,12.485608 42,12.27 C42.1303582,11.4578692 42.0405741,10.6256402 41.74,9.86 C41.6078117,9.527743 41.3084077,9.29124648 40.9545706,9.23959637 C40.6007335,9.18794627 40.2462195,9.32898948 40.0245706,9.60959637 C39.8029217,9.89020327 39.7478117,10.267743 39.88,10.6 C40.0315765,11.0295713 40.0728386,11.4903318 40,11.94 L39.79,11.94 L39.56,11.94 C38.79,12.08 37.95,12.21 37.08,12.28 C37.2425733,10.8206534 36.7047851,9.37047968 35.63,8.37 C35.3709812,8.09131847 34.9762602,7.98376321 34.6116702,8.09252119 C34.2470803,8.20127918 33.9757916,8.50750663 33.91178,8.88254881 C33.8477684,9.257591 34.0021249,9.63646685 34.31,9.86 C34.9370577,10.5061254 35.2192394,11.4120771 35.07,12.3 C32.9966837,12.2968242 31.0750517,11.2128267 30,9.44 C29.88039,9.19379649 29.6650872,9.00738385 29.4043019,8.92423491 C29.1435166,8.84108597 28.8600469,8.8684697 28.62,9 C28.3861323,9.12683685 28.2124481,9.34163846 28.1373783,9.59687597 C28.0623084,9.85211348 28.092042,10.1267439 28.22,10.36 C31.11,15.61 37.77,14.36 39.95,13.93 L40.17,13.93 C40.9878688,13.9226622 41.7700154,14.264624 42.32,14.87 L42.2,15 C41.3699928,14.7257096 40.4656471,14.786717 39.68,15.17 C39.2080997,15.4203382 38.6668582,15.5082021 38.14,15.42 C37.7669148,15.3094942 37.3636049,15.425436 37.1061634,15.717203 C36.8487219,16.00897 36.7838999,16.4235776 36.94,16.78 C37.4298857,17.716696 38.238567,18.4473467 39.22,18.84 C38.3379145,20.0264814 37.0488245,20.8455165 35.6,21.14 C34.5678274,21.2092642 33.5321726,21.2092642 32.5,21.14 C30.6858598,20.960608 28.8542209,21.158071 27.12,21.72 C24.5011924,22.4439355 21.8244744,22.9391283 19.12,23.2 C18.02,23.34 17.04,23.47 16.34,23.59 C13.94,24 9.05,26.41 8.66,30.09 C8.51,31.5 7.84,32.33 7.27,32.5 C6.9,32.62 6.51,32.44 6.13,31.99 C5.76546947,31.61306 5.17168388,31.581718 4.76949712,31.918188 C4.36731036,32.2546579 4.29333407,32.8446504 4.6,33.27 C5.16365622,34.045283 6.04340766,34.5291463 7,34.59 C7.27853216,34.590869 7.55539451,34.5469762 7.82,34.46 C8.48659149,34.2407956 9.06962201,33.8218515 9.49,33.26 C9.83754942,34.0690538 10.2952095,34.8262119 10.85,35.51 C10.91,35.63 11.41,36.89 8.85,43.94 C8.78,44.16 8.72,44.3 8.7,44.37 C8.68,44.44 8.38,45.18 9,53 C9.04179703,53.5208219 9.47750629,53.9216745 10,53.9200052 L10,53.9200052 L13.64,53.83 C14.1922847,53.83 14.64,53.3822847 14.64,52.83 C14.6945395,52.1166957 14.4923847,51.4073809 14.07,50.83 C13.7744233,50.4168264 13.6232912,49.9177389 13.64,49.41 C13.64,49.17 13.64,48.92 13.64,48.67 C13.52,46.73 13.39,44.73 14.89,43.07 C15.07,42.88 15.25,42.67 15.43,42.47 C15.4884388,43.6441584 15.4180184,44.8211852 15.22,45.98 C15.1902685,46.1184215 15.1902685,46.2615785 15.22,46.4 L16.45,51.4 C16.5628155,51.8571833 16.9793028,52.1737136 17.45,52.16 L20.52,52.16 C20.7956601,52.1617015 21.0597961,52.0495342 21.25,51.85 C21.4400566,51.6482255 21.5378361,51.3766158 21.52,51.1 C21.5097605,50.3371304 21.303117,49.5897698 20.92,48.93 C20.8505059,48.813354 20.787088,48.6931937 20.73,48.57 C20.5181867,47.5137543 20.4276007,46.436787 20.46,45.36 C20.46,45.17 20.68,44.43 20.85,43.84 C21.3407142,42.2291447 21.6755849,40.5748835 21.85,38.9 C21.8663587,38.6330224 21.7750797,38.3706189 21.5965618,38.1714305 C21.4180439,37.9722421 21.1671684,37.8528732 20.9,37.84 C20.6262314,37.8262942 20.3588386,37.9255689 20.160344,38.1146112 C19.9618495,38.3036536 19.8496571,38.5658887 19.85,38.84 C19.6568974,40.3743033 19.322135,41.8874295 18.85,43.36 C18.6241344,44.0078806 18.469882,44.6785431 18.39,45.36 C18.3372061,46.735397 18.4922857,48.1108857 18.85,49.44 C18.93,49.63 19.02,49.78 19.1,49.93 L19.24,50.19 L18.17,50.19 L17.17,46.19 C17.32,45.19 17.68,42.4 17,40.6 C17.9688727,39.4629746 18.8576743,38.2600852 19.66,37 L19.78,36.72 C19.97,36.26 20.15,35.9 20.53,35.72 C21.4132246,35.5742949 22.3195517,35.7442312 23.09,36.2 C24.25071,36.8215261 25.483236,37.2984162 26.76,37.62 C27.2978195,37.7243932 27.8195093,37.3766 27.93,36.84 C27.9830985,36.5800825 27.9307425,36.3097175 27.7844551,36.088411 C27.6381678,35.8671045 27.4099387,35.7129946 27.15,35.66 C26.026696,35.3619822 24.9425201,34.9323397 23.92,34.38 C22.22,33.61 20.92,33.38 19.8,33.85 C18.9312755,34.2324185 18.2584802,34.9558543 17.94,35.85 C17.9172263,35.9084183 17.8904977,35.9652165 17.86,36.02 C16.5055599,38.0368133 15.0013153,39.9488753 13.36,41.74 C11.29,44.02 11.47,46.79 11.6,48.81 C11.6,49.05 11.6,49.28 11.6,49.51 C11.594843,50.3209692 11.8240271,51.1161687 12.26,51.8 L10.87,51.8 C10.63,48.61 10.45,45.34 10.51,44.9 C10.51,44.9 10.57,44.72 10.64,44.54 C13.46,36.91 13.09,35 12.35,34.14 C11.5479906,33.0178217 10.9364585,31.7711071 10.54,30.45 L10.54,30.25 C10.77,28.07 14.31,25.9 16.54,25.51 C17.21,25.39 18.15,25.27 19.23,25.13 C22.0894667,24.8657785 24.9182547,24.3368454 27.68,23.55 C29.1800295,23.0863667 30.7581365,22.9299164 32.32,23.09 C33.4431224,23.1520643 34.5692133,23.1353567 35.69,23.04 C39.24,22.68 41.54,18.85 41.63,18.68 C41.7864448,18.3861946 41.7864448,18.0338054 41.63,17.74 C41.4818,17.4391466 41.1926559,17.2326151 40.86,17.19 C40.6044777,17.1559377 40.3531487,17.0956188 40.11,17.01 L40.42,16.87 C40.8844825,16.6754178 41.4147585,16.7202299 41.84,16.99 C42.0748577,17.1477286 42.3655353,17.1985971 42.64,17.13 C42.9144557,17.061367 43.1469978,16.8796935 43.28,16.63 C43.9169601,15.6102214 44.8732717,14.8297023 46,14.41 C47.4011842,13.9644283 48.7737551,13.4334337 50.11,12.82 C49.6981759,13.3379051 49.4916826,13.9894271 49.53,14.65 C49.5566663,15.1826668 49.9966665,15.6006671 50.53,15.6 C50.6591825,15.594256 50.7855118,15.560113 50.9,15.5 C50.4049431,16.0369297 50.0902481,16.7152723 50,17.44 C49.3296061,19.0405082 48.1938563,20.4027111 46.74,21.35 C46.0627323,21.9767483 45.6303215,22.8238482 45.52,23.74 C44.99,25.74 44.11,29.07 37.87,33.68 C38.7437511,31.8867073 39.4565498,30.0193754 40,28.1 C40.1463555,27.5670452 39.8329548,27.0163555 39.3,26.87 C38.7670452,26.7236445 38.2163555,27.0370452 38.07,27.57 C37.5484617,29.4398087 36.8555249,31.2575122 36,33 C34.69,35.51 34.35,39.84 34.19,41.92 C34.19,42.29 34.19,42.58 34.12,42.77 C34.05,42.96 34.12,43.13 34.04,43.35 C33.6436945,45.4415891 33.6777199,47.5919961 34.14,49.67 C34.1358035,49.7165723 34.1358035,49.7634277 34.14,49.81 L32.44,49.81 C32.55,48.03 32.72,44.86 32.63,44.1 C32.63,43.91 32.58,43.58 32.55,43.1 C32.4850209,40.6926376 32.0982568,38.3047892 31.4,36 C30.8225268,34.5094942 30.3807352,32.9699176 30.08,31.4 C29.9861116,30.8477153 29.4622847,30.4761116 28.91,30.57 C28.3577153,30.6638884 27.9861116,31.1877153 28.08,31.74 C28.3982352,33.4479595 28.8770267,35.1220556 29.51,36.74 C30.1231091,38.8474556 30.4592669,41.025758 30.51,43.22 C30.51,43.72 30.57,44.09 30.6,44.3 C30.68,44.88 30.49,48.38 30.34,50.69 C30.3194821,50.965164 30.413572,51.2365773 30.6,51.44 C30.7908345,51.6457808 31.059358,51.7618991 31.34,51.76 L35.48,51.76 C35.9920317,51.7631062 36.4236849,51.3789349 36.48,50.87 C36.5156805,50.2121796 36.348099,49.5593101 36,49 C35.6617815,47.2226135 35.6617815,45.3973865 36,43.62 C36,43.37 36.07,43.15 36.09,42.97 C36.11,42.79 36.09,42.45 36.17,42.05 C36.2937789,40.2716496 36.5208285,38.5019981 36.85,36.75 L36.99,36.75 C38.13,37.82 39.3,38.98 39.73,39.5 C39.73,39.66 39.63,39.85 39.57,40.08 C38.9714196,41.7723596 38.634216,43.5460502 38.57,45.34 C38.63,45.71 38.77,46.77 41.57,46.77 C41.85,46.77 42.16,46.77 42.5,46.77 C42.7661329,46.7531985 43.0145324,46.6307988 43.19,46.43 C43.6718696,45.8824936 43.8174873,45.1160842 43.57,44.43 C43.57,44.36 43.57,44.26 43.51,44.27 C44.1224239,42.7389946 44.6204565,41.1646767 45,39.56 C45.0048167,39.5134576 45.0048167,39.4665424 45,39.42 C45.19,37.69 43.66,35.35 43.35,34.9 C43.0152601,34.5406179 42.4690918,34.4775099 42.0612158,34.7510853 C41.6533397,35.0246607 41.5044995,35.5539329 41.71,36 C42.3818819,36.9338614 42.8238636,38.013119 43,39.15 C42.6576758,40.5646303 42.2200091,41.9544724 41.69,43.31 C41.4728287,43.7471665 41.4230346,44.2486639 41.55,44.72 C41.2154221,44.7205951 40.8812321,44.6972018 40.55,44.65 C40.7580681,43.2696297 41.0655342,41.9060845 41.47,40.57 C41.5847425,40.1955804 41.678225,39.8149731 41.75,39.43 C41.81,38.97 41.85,38.55 38.67,35.56 C45.82,30.37 46.85,26.43 47.42,24.25 C47.4833794,23.7806092 47.6545092,23.3322491 47.92,22.94 C49.7382367,21.7577964 51.1378163,20.0328145 51.92,18.01 C52.0135839,17.5211482 52.3376635,17.1076673 52.79,16.9 C53.1222627,16.7188877 53.4283928,16.4934952 53.7,16.23 C54.484751,15.5234711 54.5603044,14.31906 53.87,13.52 Z M52.25,14.82 C52.0917188,14.9604039 51.917133,15.081271 51.73,15.18 L51.41,15.38 C51.5948897,15.1831136 51.6922758,14.9198106 51.68,14.65 C51.68,14.3 51.84,14.09 52.22,13.76 C52.0654456,14.0835674 52.0959698,14.4651194 52.3,14.76 L52.25,14.82 Z"/>
    </g>
  </g>
</svg>
