<svg xmlns="http://www.w3.org/2000/svg" width="64" height="64" viewBox="0 0 64 64" style="background:#fff">
  <g id="Hokkaido" fill="none" fill-rule="evenodd" stroke="none" stroke-width="1">
    <rect width="64" height="64" fill="#FFF"/>
    <g transform="translate(2 4)">
      <path id="Path" fill="#E0673A" fill-rule="nonzero" d="M35,17.8 C33.7560193,16.3984591 31.928641,15.6586299 30.06,15.8 C17.88,16.1 5.22,24.16 6.06,37.71 C6.85,51.07 21.06,55.9 32.39,55.71 C43.72,55.52 56.5,50.71 56.88,37.39 C57.13,25.57 46.1,17.16 35,17.8 Z" opacity=".5"/>
      <rect id="Rectangle" width="60" height="60" x="0" y="0"/>
      <path id="Path" fill="#3D454C" fill-rule="nonzero" d="M31.68,30.11 C31.68,29.5577153 31.2322847,29.11 30.68,29.11 C30.1277153,29.11 29.68,29.5577153 29.68,30.11 C29.68,30.6622847 30.1277153,31.11 30.68,31.11 C31.2322847,31.11 31.68,30.6622847 31.68,30.11 Z"/>
      <path id="Path" stroke="#3D454C" stroke-linecap="round" stroke-linejoin="round" stroke-width="2" d="M15 36.6C15 52.6 27.06 56.51 30.67 53.51M30.75 19.86C28.12 17.08 20.75 18.38 17.12 25.98M44.9 26.75C41.37 18.47 33.64 16.99 30.9 19.86M46.7 36.6C46.7731693 33.2286548 46.1607894 29.8775761 44.9 26.75M31 53.5C33.55 55.64 40.38 54.27 44.12 47.6"/>
      <path id="Path" stroke="#3D454C" stroke-linecap="round" stroke-linejoin="round" stroke-width="2" d="M41.05 51.65C44.18 54.27 54.69 50.84 54.69 36.94 54.69 27.94 50.62 23.21 46.78 21.73 45.9423052 21.397986 45.0510147 21.2217612 44.15 21.21M20.33 51.65C17.2 54.27 6.69 50.84 6.69 36.94 6.69 25.76 12.92 21.24 17.23 21.21"/>
      <line id="Path" x1="30.81" x2="30.81" y1="53.4" y2="34.4" stroke="#3D454C" stroke-linecap="round" stroke-linejoin="round" stroke-width="2"/>
      <path id="Path" stroke="#3D454C" stroke-linecap="round" stroke-linejoin="round" stroke-width="2" d="M27.4,18 C26.9,15.74 29.83,8.21 35.54,10.24 L34.89,12.73 C34.1524839,12.4199698 33.3020953,12.7521528 32.97,13.48 C32.658072,14.2112019 32.5676673,15.0178896 32.71,15.8 C32.9091474,16.8678027 33.5823228,17.7874411 34.54,18.3"/>
    </g>
  </g>
</svg>
