<svg xmlns="http://www.w3.org/2000/svg" width="64" height="64" viewBox="0 0 64 64" style="background:#fff">
  <g id="Honig" fill="none" fill-rule="evenodd" stroke="none" stroke-width="1">
    <rect width="64" height="64" fill="#FFF"/>
    <g transform="translate(2 4)">
      <rect id="Rectangle" width="60" height="60" x="0" y="0"/>
      <path id="Path" fill="#E0A075" fill-rule="nonzero" d="M49.91,12.07 C46.91,10.57 43.8,10.92 40.49,10.83 L29.87,10.56 C23.61,10.4 16,9.23 10.14,12 C8.32,12.86 8.69,16.14 10.27,17 C16,20.1 23.76,19.54 30.1,19.87 C36.1,20.18 44.52,22.2 50.1,19.87 C52.94,18.64 52.36,13.29 49.91,12.07 Z" opacity=".5"/>
      <path id="Path" fill="#EBE53F" fill-rule="nonzero" d="M50.5,35.07 C49.35,30.4 46,26.53 40.94,26.6 C36.25,26.67 31.94,28.42 27.11,28.09 C23.55,27.85 19.29,26.84 15.89,28.39 C14.9654122,28.7156317 14.0929841,29.1737406 13.3,29.75 L12.68,30.18 C9.23,32.59 9.41,38.5 9.82,42.05 C11.09,53.11 24.72,57.71 34.49,56.26 C45.15,54.67 53.28,46.38 50.5,35.07 Z" opacity=".5"/>
      <path id="Path" fill="#3D454C" fill-rule="nonzero" d="M41.76,17.1 C42.3122847,17.1 42.76,16.6522847 42.76,16.1 C42.76,15.5477153 42.3122847,15.1 41.76,15.1 L24.32,15.1 C23.7677153,15.1 23.32,15.5477153 23.32,16.1 C23.32,16.6522847 23.7677153,17.1 24.32,17.1 L41.76,17.1 Z"/>
      <path id="Path" fill="#3D454C" fill-rule="nonzero" d="M52.81,24.12 C53.3068351,23.9044598 53.5417957,23.3325746 53.34,22.83 L50.57,15.91 L50.57,14.68 C50.57,11.3662915 47.8837085,8.68 44.57,8.68 L16.21,8.68 C12.8962915,8.68 10.21,11.3662915 10.21,14.68 L10.21,16.1 C10.21,16.6522847 10.6577153,17.1 11.21,17.1 L16.21,17.1 C16.7622847,17.1 17.21,16.6522847 17.21,16.1 C17.21,15.5477153 16.7622847,15.1 16.21,15.1 L12.21,15.1 L12.21,14.68 C12.21,12.470861 14.000861,10.68 16.21,10.68 L44.6,10.68 C46.809139,10.68 48.6,12.470861 48.6,14.68 L48.6,15.1 L46.73,15.1 C46.1777153,15.1 45.73,15.5477153 45.73,16.1 C45.73,16.6522847 46.1777153,17.1 46.73,17.1 L48.89,17.1 L51.1,22.64 C47.8899526,23.7049105 44.359789,23.0890096 41.7,21 C41.3868413,20.7335447 40.9424999,20.6859367 40.58,20.88 L40.29,21.03 C34.1157083,24.3402976 26.6942917,24.3402976 20.52,21.03 L20.23,20.88 C19.8675001,20.6859367 19.4231587,20.7335447 19.11,21 C16.4406378,23.0686936 12.9178412,23.6758138 9.71,22.62 L10.47,20.71 C10.5683792,20.463369 10.5646309,20.1877372 10.4595816,19.9438726 C10.3545322,19.7000079 10.1568077,19.5079351 9.91,19.41 C9.663369,19.3116208 9.38773717,19.3153691 9.14387256,19.4204184 C8.90000795,19.5254678 8.70793511,19.7231923 8.61,19.97 L7.48,22.83 C7.27695064,23.3298698 7.50704824,23.9006888 8,24.12 C11.8726258,25.8738563 16.3841588,25.4478093 19.86,23 C23.121145,24.6864121 26.7386179,25.5676353 30.41,25.57 C34.0949065,25.5740323 37.726842,24.6926278 41,23 C43.7581509,24.933035 47.194506,25.6355144 50.49,24.94 C51.0913616,26.5797621 51.4288865,28.3045143 51.49,30.05 C51.49,36.78 46.88,47.52 45.49,50.65 C45.0353349,51.8170782 43.9659241,52.6316836 42.72,52.76 L18.2,52.76 C16.9555853,52.6356842 15.8857425,51.8246121 15.43,50.66 C14.01,47.53 9.43,36.78 9.43,30.05 C9.43153324,29.4779512 9.47162411,28.9066563 9.55,28.34 C9.62455842,27.7877153 9.23728473,27.2795585 8.685,27.205 C8.13271526,27.1304416 7.62455846,27.5177153 7.55,28.07 C7.45404523,28.7322987 7.4072507,29.400792 7.41,30.07 C7.41,37.2 12.15,48.27 13.6,51.51 C14.37958,53.3874308 16.1609032,54.6564781 18.19,54.78 L42.62,54.78 C44.6531339,54.6594187 46.4373184,53.3844459 47.21,51.5 C48.66,48.27 53.41,37.2 53.41,30.07 C53.3638863,28.1222705 53.0060179,26.1945074 52.35,24.36 L52.81,24.12 Z"/>
      <path id="Shape" fill="#3D454C" fill-rule="nonzero" d="M35.87,31.16 L30.87,28.29 C30.5605989,28.1113672 30.1794011,28.1113672 29.87,28.29 L24.87,31.16 C24.5624555,31.3375523 24.3721435,31.6648889 24.37,32.02 L24.37,37.09 L19.9999921,39.67 C19.6893658,39.849341 19.498576,40.1813152 19.4999921,40.54 L19.4999921,46.28 C19.5021435,46.6351111 19.6924555,46.9624477 19.9999921,47.14 L24.9999921,50.01 C25.1524029,50.0963804 25.3248236,50.1412098 25.4999921,50.1400239 C25.6751764,50.1412098 25.8475971,50.0963804 25.9999921,50.01 L30.47,47.43 L34.87,50 C35.0224029,50.0863804 35.1948236,50.1312098 35.37,50.13 C35.5451764,50.1312098 35.7175971,50.0863804 35.87,50 L40.87,47.13 C41.1775445,46.9524477 41.3678565,46.6251111 41.3700079,46.27 L41.3700079,40.54 C41.371424,40.1813152 41.1806342,39.849341 40.87,39.67 L36.4,37.09 L36.4,32 C36.3847001,31.6458542 36.1830598,31.3262734 35.87,31.16 Z M29.41,45.7 L25.41,47.99 L21.41,45.7 L21.41,41.12 L25.3,38.87 L29.35,41.21 L29.41,45.7 Z M26.41,37.09 L26.41,32.6 L30.41,30.31 L34.41,32.6 L34.41,37.09 L30.41,39.38 L26.41,37.09 Z M39.31,41.09 L39.31,45.7 L35.31,47.99 L31.31,45.7 L31.31,41.21 L35.31,38.87 L39.31,41.09 Z"/>
      <path id="Path" fill="#3D454C" fill-rule="nonzero" d="M21.22,16.15 C21.22,15.5977153 20.7722847,15.15 20.22,15.15 C19.6677153,15.15 19.22,15.5977153 19.22,16.15 C19.22,16.7022847 19.6677153,17.15 20.22,17.15 C20.7722847,17.15 21.22,16.7022847 21.22,16.15 Z"/>
    </g>
  </g>
</svg>
