<svg xmlns="http://www.w3.org/2000/svg" width="64" height="64" viewBox="0 0 64 64" style="background:#fff">
  <g id="Hummer" fill="none" fill-rule="evenodd" stroke="none" stroke-width="1">
    <rect width="64" height="64" fill="#FFF"/>
    <g transform="translate(2 4)">
      <rect id="Rectangle" width="60" height="60" x="0" y="0"/>
      <path id="Path" fill="#E05362" fill-rule="nonzero" d="M37.53 40.5C36.45 34.29 36.53 27.63 34.84 21.59 33.84 18.04 29.73 13.37 26.98 18.51 22.98 26 22.98 35.61 23.31 43.94 23.49 48.56 26 56.41 31.82 55.1 37.64 53.79 38.36 45.26 37.53 40.5zM51.64 12.28C51.0982498 10.8798099 50.2310203 9.62866857 49.11 8.63 48.1643063 7.76838618 46.929326 7.29366832 45.65 7.29993747 45.08 7.4 44.5 7.48 43.94 7.6 42.7259912 7.64565808 41.5733255 8.14526549 40.71 9 39.6922549 10.0027023 38.9278479 11.2332947 38.48 12.59 38.34 13.04 38.24 13.5 38.12 13.97 37.6198187 15.9330325 37.5651502 17.9831 37.96 19.97 38.53 22.92 39.96 25.74 42.81 27.05 43.31 27.29 43.81 27.49 44.34 27.71 46.91 28.82 49.61 27.07 50.89 24.89 53.0911958 21.0331476 53.3685096 16.370578 51.64 12.28L51.64 12.28zM20.87 13.3C20.2170623 11.3766962 18.8242224 9.7931056 17 8.9 16.1561846 8.59156513 15.2751536 8.39652773 14.38 8.32 13.4765651 8.30336942 12.5994048 8.6242817 11.92 9.22 11.063408 9.70171653 10.3677673 10.4251828 9.92 11.3L9.8 11.54C9.0171755 12.8412707 8.50368754 14.2865183 8.29 15.79 8.06506238 17.05004 8.06506238 18.33996 8.29 19.6 8.48626821 22.2033772 9.60708841 24.6507378 11.45 26.5L11.62 26.67C12.2546064 27.3118455 13.0999223 27.7025378 14 27.77 14.8504337 28.0417414 15.7748927 27.9550734 16.56 27.53 17.2409885 27.141315 17.8838306 26.6893166 18.48 26.18 19.3146246 25.3750072 19.9927531 24.4222367 20.48 23.37 21.9586701 20.202305 22.0992458 16.5725696 20.87 13.3L20.87 13.3z" opacity=".5"/>
      <path id="Shape" fill="#3D454C" fill-rule="nonzero" d="M50.8,14.86 C49.9,10.67 47.21,7.86 44.12,7.86 C43.6991528,7.8549097 43.2792937,7.90193392 42.87,8 C42.385195,8.12193097 42.0649097,8.58314172 42.12,9.08 L42.92,16.08 L38.92,14.08 C38.642431,13.943997 38.317569,13.943997 38.04,14.08 C37.762011,14.2102312 37.5592411,14.4609286 37.49,14.76 C37.2615704,15.7774464 37.1475297,16.8172291 37.15,17.86 C37.15,22.72 39.47,26.67 42.64,27.63 L41.24,30.45 C40.7,31.64 40.24,31.86 39.15,31.86 L37.15,31.86 C37.15,27.39 35.53,23.64 33.15,21.86 C33.15,11.76 36.72,8.86 36.75,8.86 C37.1918278,8.52862915 37.2813708,7.9018278 36.95,7.46 C36.6186292,7.0181722 35.9918278,6.92862915 35.55,7.26 C35.37,7.39 31.43,10.5 31.17,20.98 C30.8416613,20.9058275 30.5065655,20.865616 30.17,20.86 C29.8335146,20.8667759 29.4985353,20.9069734 29.17,20.98 C28.91,10.5 24.97,7.39 24.8,7.26 C24.3625093,6.93318033 23.7437345,7.01776107 23.41,7.45 C23.0741999,7.88660098 23.1546782,8.51254326 23.59,8.85 C23.59,8.85 27.16,11.8 27.19,21.9 C24.82,23.64 23.19,27.39 23.19,31.9 L21.19,31.9 C20.12,31.9 19.64,31.68 19.08,30.45 L17.69,27.67 C20.87,26.67 23.19,22.76 23.19,17.9 C23.1867566,16.8575426 23.0727838,15.8183788 22.85,14.8 C22.7807589,14.5009286 22.577989,14.2502312 22.3,14.12 C22.022431,13.983997 21.697569,13.983997 21.42,14.12 L17.42,16.12 L18.21,9.12 C18.2812456,8.57687348 17.9022674,8.07751397 17.36,8 C16.9548124,7.89591195 16.5383379,7.84217331 16.12,7.84 C12.19,7.84 9.12,12.23 9.12,17.84 C9.12,23.14 11.86,27.34 15.48,27.84 L17.21,31.3 C17.7645941,32.9582733 19.3767555,34.0261756 21.12,33.89 L23.28,33.89 C23.4,34.82 23.58,35.89 23.79,36.99 L20.57,36.99 C20.3536298,36.99 20.1430962,37.0601779 19.97,37.19 L15.97,40.19 C15.5281722,40.5213708 15.4386292,41.1481722 15.77,41.59 C15.9567475,41.8455786 16.2534727,41.9976502 16.57,42 C16.7863702,42 16.9969038,41.9298221 17.17,41.8 L20.9,39 L24.2,39 C24.41,40 24.64,41 24.87,42 L21.57,42 C21.3536298,42 21.1430962,42.0701779 20.97,42.2 L16.97,45.2 C16.7578268,45.3591299 16.6175578,45.5960277 16.5800505,45.8585786 C16.5425432,46.1211296 16.6108701,46.3878268 16.77,46.6 C16.9588544,46.8518058 17.2552427,47 17.57,47 C17.7863702,47 17.9969038,46.9298221 18.17,46.8 L21.9,44 L25.35,44 C25.58,44.95 25.79,45.76 25.93,46.32 C22.4967437,47.8154089 20.2340054,51.1569398 20.12,54.9 C20.12,55.4522847 20.5677153,55.9 21.12,55.9 L39.12,55.9 C39.6722847,55.9 40.12,55.4522847 40.12,54.9 C40.0017873,51.1553801 37.7355341,47.8144089 34.3,46.32 C34.45,45.74 34.67,44.89 34.91,43.9 L38.09,43.9 L41.82,46.7 C41.9930962,46.8298221 42.2036298,46.9 42.42,46.9 C42.7347573,46.9 43.0311456,46.7518058 43.22,46.5 C43.5513708,46.0581722 43.4618278,45.4313708 43.02,45.1 L39.02,42.1 C38.8469038,41.9701779 38.6363702,41.9 38.42,41.9 L35.42,41.9 C35.65,40.9 35.87,39.9 36.09,38.9 L39.09,38.9 L42.82,41.7 C42.9930962,41.8298221 43.2036298,41.9 43.42,41.9 C43.7347573,41.9 44.0311456,41.7518058 44.22,41.5 C44.5513708,41.0581722 44.4618278,40.4313708 44.02,40.1 L40.02,37.1 C39.8469038,36.9701779 39.6363702,36.9 39.42,36.9 L36.42,36.9 C36.62,35.82 36.79,34.8 36.91,33.9 L39.07,33.9 C40.8287794,34.0545738 42.4602969,32.9710469 43,31.29 L44.75,27.8 C46.874118,27.4072977 48.681316,26.0202919 49.61,24.07 C49.737958,23.8367439 49.7676916,23.5621135 49.6926217,23.306876 C49.6175519,23.0516385 49.4438677,22.8368369 49.21,22.71 C48.7290995,22.4486451 48.1274413,22.6224574 47.86,23.1 C46.86,24.85 45.53,25.85 44.11,25.85 C41.4,25.85 39.11,22.18 39.11,17.85 C39.1064458,17.3920693 39.1331708,16.9344046 39.19,16.48 L43.66,18.74 C43.9818052,18.8974892 44.3632741,18.8707864 44.66,18.67 C44.9595354,18.4601311 45.1206036,18.1034801 45.08,17.74 L44.19,9.85 C46.25,9.92 48.19,12.14 48.82,15.28 C48.8720741,15.6509999 49.1271493,15.9617738 49.4808755,16.0851855 C49.8346016,16.2085972 50.2276378,16.1239433 50.4991948,15.8658552 C50.7707518,15.6077671 50.8752733,15.2195416 50.77,14.86 L50.8,14.86 Z M11.12,17.86 C11.12,13.58 13.35,9.95 16.01,9.86 L15.12,17.75 C15.0815701,18.1154599 15.2466783,18.4725543 15.55,18.68 C15.8467259,18.8807864 16.2281948,18.9074892 16.55,18.75 L21,16.48 C21.0518544,16.9348468 21.0785617,17.3922092 21.08,17.85 C21.08,22.18 18.79,25.85 16.08,25.85 C13.37,25.85 11.12,22.18 11.12,17.85 L11.12,17.86 Z M38.05,53.86 L34.12,53.86 L34.12,51.86 C34.12,51.3077153 33.6722847,50.86 33.12,50.86 C32.5677153,50.86 32.12,51.3077153 32.12,51.86 L32.12,53.86 L28.12,53.86 L28.12,51.86 C28.12,51.3077153 27.6722847,50.86 27.12,50.86 C26.5677153,50.86 26.12,51.3077153 26.12,51.86 L26.12,53.86 L22.19,53.86 C22.7683665,51.0497364 24.7751607,48.7470443 27.48,47.79 C27.9576519,47.6076063 28.2207848,47.0942814 28.09,46.6 C28.09,46.49 25.09,35.42 25.09,31.86 C25.09,26.98 27.38,22.86 30.09,22.86 C32.8,22.86 35.09,26.98 35.09,31.86 C35.09,35.42 32.15,46.49 32.09,46.6 C31.9592152,47.0942814 32.2223481,47.6076063 32.7,47.79 C35.4254341,48.7278654 37.4572477,51.0293215 38.05,53.85 L38.05,53.86 Z"/>
    </g>
  </g>
</svg>
