<svg xmlns="http://www.w3.org/2000/svg" width="64" height="64" viewBox="0 0 64 64" style="background:#fff">
  <g id="Hähnchen-(Brust-und-Innenfilet)" fill="none" fill-rule="evenodd" stroke="none" stroke-width="1">
    <rect width="64" height="64" fill="#FFF"/>
    <g transform="translate(2 6)">
      <g id="Layer_2">
        <rect id="Rectangle" width="60" height="60" x="0" y="0"/>
        <rect id="Rectangle" width="60" height="60" x="0" y="0"/>
      </g>
      <g id="Layer_1" fill-rule="nonzero" transform="translate(3 2)">
        <path id="Path" fill="#EBE53F" d="M49.57,21.54 C48.9127454,19.7945184 47.0168371,18.8553011 45.23,19.39 C42.87,20.33 41.3,19.12 40.87,16.7 C40.55,14.88 38.07,14.13 36.53,14.55 C35.6779275,14.7548128 34.9446766,15.295048 34.4965741,16.0481616 C34.0484715,16.8012751 33.9234973,17.7034349 34.15,18.55 C35.15,24.36 41.81,27.68 47.15,25.55 C48.82,24.85 50.17,23.42 49.57,21.54 Z" opacity=".5"/>
        <path id="Path" fill="#E05362" d="M48.5.7C41-2 32.74 4.06 35 12.05 36.19 16.54 44 14.67 42.73 10 42.08 7.64 44.73 6.55 46.35 8 48.41 9.83 47.83 12.83 46.53 14.9 43.87 19.16 51.12 22.41 53.6 18.45 57.48 12.25 56 3.44 48.5.7zM48 36.48C45 35.33 43.42 39.48 43.61 41.48 43.61 41.56 43.61 41.63 43.61 41.69 43.4799675 41.4475448 43.2344724 41.2889173 42.96 41.27 41.6081857 41.2918072 40.2568905 41.2014978 38.92 41 36.4 40.46 34.1 39.16 31.74 38.23 26.59 36.23 21.74 36.43 16.25 36.49 13.87 36.49 11.13 36.49 8.95 35.49 4.86 33.49 10.36 32.31 12.57 31.23 13.83 30.61 16.95 28.8 15.81 27.01 11.27 19.89 1.46 27.01.65 33.01-.57 42.14 7.74 47.32 16.54 47.34 21.97 47.34 26.35 47.34 31.38 49.55 35.3 51.26 39.38 53.45 43.88 52.95 51.58 52.14 56.2 39.64 48 36.48z" opacity=".5"/>
        <path id="Path" fill="#3D454C" d="M50.48,43.42 L50.22,43.13 C49.0192672,41.6399609 47.6463829,40.2972868 46.13,39.13 C45.6821456,38.8118479 45.061502,38.9145444 44.74,39.36 C44.5850095,39.5770921 44.5231749,39.8471088 44.5682446,40.1100152 C44.6133143,40.3729216 44.7615524,40.6069259 44.98,40.76 C46.3561311,41.8443484 47.6071799,43.0786271 48.71,44.44 L48.97,44.74 C49.85,45.74 50.39,47.45 49.65,48.62 C49.2057931,49.2143445 48.5922942,49.6605255 47.89,49.9 C44.96,51.02 41.79,49.9 38.44,48.75 C37.44,48.42 36.49,48.07 35.52,47.75 C31.593509,46.7741754 27.5657891,46.2639976 23.52,46.23 C18.31,45.98 13.39,45.75 8.96,43.6 C7.42344783,42.9043381 6.05807008,41.8803047 4.96,40.6 C2.65308443,37.5848468 2.54814686,33.4277046 4.7,30.3 C6.97769846,27.2465338 10.9177308,25.9371816 14.57,27.02 C15.4432568,27.3184911 16.2952195,27.6759813 17.12,28.09 C18.2696256,28.6977878 19.4884513,29.1645007 20.75,29.48 C21.9367271,29.6992612 23.144082,29.786459 24.35,29.74 C25.03,29.74 25.67,29.74 26.35,29.79 C31.5,30.18 34.64,32.11 38.98,35.79 C39.4024978,36.1462237 40.0337763,36.0924978 40.39,35.67 C40.7462237,35.2475022 40.6924978,34.6162237 40.27,34.26 C35.71,30.4 32.16,28.26 26.5,27.81 C25.78,27.75 25.06,27.75 24.39,27.75 C23.3254899,27.7983707 22.2589049,27.7279358 21.21,27.54 C20.0968246,27.2575582 19.0197683,26.8482097 18,26.32 C17.0900792,25.858325 16.1475563,25.463936 15.18,25.14 C10.6763737,23.7791228 5.80316647,25.3915222 3,29.17 C0.344733806,33.0356307 0.482019636,38.1717359 3.34,41.89 C4.62134608,43.4058403 6.22320958,44.6183383 8.03,45.44 C12.83,47.77 18.18,48.02 23.36,48.27 C27.2830567,48.291687 31.1899291,48.7750114 35,49.71 C35.92,49.98 36.85,50.3 37.82,50.64 C40.2019714,51.6217693 42.7288473,52.2061939 45.3,52.3701 C46.4438527,52.3752727 47.5790823,52.171948 48.65,51.77 C49.7555653,51.3849997 50.7087817,50.6560695 51.37,49.69 C52.67,47.58 51.83,45 50.48,43.42 Z"/>
        <path id="Path" fill="#3D454C" d="M12.12 31.21C12.6391477 31.0167003 12.9032997 30.4391477 12.71 29.92 12.5167003 29.4008523 11.9391477 29.1367003 11.42 29.33 8.23184835 30.7307282 6.53564184 34.2418757 7.42 37.61 8.42121454 40.8476761 11.3538124 43.1032125 14.74 43.24L14.79 43.24C15.3422847 43.24 15.79 42.7922847 15.79 42.24 15.79 41.6877153 15.3422847 41.24 14.79 41.24 12.2707537 41.142369 10.0812577 39.4802698 9.31 37.08 8.70157481 34.7010303 9.88542289 32.2280095 12.12 31.21zM18.73 43.31C19.2822847 43.31 19.73 42.8622847 19.73 42.31 19.73 41.7577153 19.2822847 41.31 18.73 41.31 18.1777153 41.31 17.73 41.7577153 17.73 42.31 17.73 42.8622847 18.1777153 43.31 18.73 43.31zM42.57 38.55C43.1222847 38.55 43.57 38.1022847 43.57 37.55 43.57 36.9977153 43.1222847 36.55 42.57 36.55 42.0177153 36.55 41.57 36.9977153 41.57 37.55 41.57 38.1022847 42.0177153 38.55 42.57 38.55z"/>
        <path id="Shape" fill="#3D454C" d="M35.31,12.65 L38,12.65 L34.92,20.14 C34.8381369,20.3627157 34.8381369,20.6072843 34.92,20.83 C36.2290581,24.8150409 40.0294348,27.4426132 44.22,27.26 L49.4,27.26 C49.704272,27.2585972 49.9913526,27.1187374 50.18,26.88 C50.3668363,26.6430127 50.4366584,26.3343254 50.37,26.04 L49.44,22 C50.9230931,21.7801911 52.0162004,20.499206 52,19 C51.8675489,17.6855685 51.1981112,16.4841992 50.15,15.68 C49.6954559,15.2766871 49.3073558,14.8042175 49,14.28 C49.945039,14.3324845 50.8827611,14.4764918 51.8,14.71 C52.1006235,14.7831129 52.4181599,14.7129595 52.66,14.52 C52.8987374,14.3313526 53.0385972,14.044272 53.0400041,13.74 C53.042667,11.4846437 51.7464237,9.4293389 49.71,8.46 C49.8397053,7.97044459 49.9069063,7.46643696 49.91,6.96 C49.9289876,5.44252479 49.3345529,3.98164915 48.2614519,2.90854814 C47.1883509,1.83544713 45.7274752,1.24101237 44.21,1.26 C43.6577153,1.26 43.21,1.70771525 43.21,2.26 L43.21,3.09 C41.1807276,2.14801817 38.7782894,2.58446111 37.21,4.18 C36.8288571,4.56884351 36.8288571,5.19115649 37.21,5.58 L37.99,6.35 C35.7815603,7.18081677 34.3167496,9.29046261 34.31,11.65 C34.31,11.9152165 34.4153568,12.1695704 34.6028932,12.3571068 C34.7904296,12.5446432 35.0447835,12.65 35.31,12.65 Z M40,8 C40.4012767,7.98668458 40.7556818,7.73466319 40.9,7.36 C41.0426314,6.9893069 40.9523581,6.56934021 40.67,6.29 L39.43,5 C40.8102493,4.3777971 42.4288187,4.64165147 43.54,5.67 C43.8345643,5.92084761 44.2474005,5.97926783 44.6,5.82 C44.9544542,5.65596087 45.1809665,5.300571 45.18,4.91 L45.18,3.39 C46.8152799,3.81116274 47.9380547,5.31235432 47.88,7 C47.8907309,7.53656467 47.7633185,8.06687579 47.51,8.54 C47.3382472,8.812718 47.3084643,9.15149839 47.43,9.45 C47.5477394,9.74718958 47.800463,9.97018102 48.11,10.05 C49.360073,10.3610844 50.3682963,11.282781 50.79,12.5 C49.07,12.2 47.92,12.28 47.35,12.73 C47.0223124,12.979678 46.8299851,13.3680312 46.83,13.78 C46.9664219,15.0928103 47.639603,16.290783 48.69,17.09 C49.38,17.74 50,18.33 50,19 C50,19.5522847 49.5522847,20 49,20 L48.82,19.21 C48.6957359,18.6577153 48.1472847,18.3107359 47.595,18.435 C47.0427153,18.5592641 46.6957359,19.1077153 46.82,19.66 L48.1,25.22 L44.1,25.22 C40.9147029,25.3724257 37.9864911,23.477937 36.82,20.51 L40.41,12 C40.5391452,11.6913412 40.505367,11.3385459 40.32,11.06 C40.1337296,10.7844212 39.8226261,10.6194989 39.49,10.62 L36.49,10.62 C36.9883831,9.0923948 38.3937369,8.04338426 40,8 Z"/>
        <path id="Path" fill="#3D454C" d="M45.33,11.4 C45.8822847,11.4 46.33,10.9522847 46.33,10.4 C46.33,9.84771525 45.8822847,9.4 45.33,9.4 C44.7777153,9.4 44.33,9.84771525 44.33,10.4 C44.33,10.9522847 44.7777153,11.4 45.33,11.4 Z"/>
        <path id="Path" fill="#4885E0" d="M12.87,26.61 C12.78,26.61 12.78,26.82 12.87,26.82 C12.96,26.82 13,26.61 12.87,26.61 Z"/>
      </g>
    </g>
  </g>
</svg>
