<svg xmlns="http://www.w3.org/2000/svg" width="64" height="64" viewBox="0 0 64 64" style="background:#fff">
  <g id="Hühnerbrühe" fill="none" fill-rule="evenodd" stroke="none" stroke-width="1">
    <rect width="64" height="64" fill="#FFF"/>
    <g transform="translate(2 4)">
      <rect id="Rectangle" width="60" height="60" x="0" y="0"/>
      <path id="Path" fill="#E05362" fill-rule="nonzero" d="M18.37,2.78 C12.93,2.66 8.21,7 7,12 C6.65,13.39 7.75,17.56 10,16.31 C12.25,15.06 13.7,12.76 16.33,12.1 C18.96,11.44 21.77,12.46 22.47,15.1 C22.9,16.72 23.95,18.81 25.95,18.4 C27.95,17.99 28.45,15.4 28.53,13.7 C28.6777495,7.90225065 24.1633366,3.05014544 18.37,2.78 Z" opacity=".5"/>
      <path id="Path" fill="#EBE53F" fill-rule="nonzero" d="M48.16,26.27 C41.8143545,25.3749921 35.4071418,24.9904256 29,25.12 C22.94,25.26 16.7,24.9 11.88,29 C9.45,31.07 10.26,35.78 12.8,37.31 C17.69,40.24 23.85,39.11 29.35,39.62 C35.357932,40.1929771 41.3103057,41.2463466 47.15,42.77 C55.46,44.93 56.41,27.4 48.16,26.27 Z" opacity=".5"/>
      <path id="Path" fill="#3D454C" fill-rule="nonzero" d="M49.52,45.31 C48.9677153,45.31 48.52,45.7577153 48.52,46.31 C48.52,46.8622847 48.9677153,47.31 49.52,47.31 C50.0722847,47.31 50.52,46.8622847 50.52,46.31 C50.52,45.7577153 50.0722847,45.31 49.52,45.31 Z"/>
      <path id="Shape" fill="#3D454C" fill-rule="nonzero" d="M49.13,25.9 L55.08,18.59 C56.1724101,17.5288642 56.5674661,15.9394585 56.0989903,14.4903555 C55.6305146,13.0412525 54.3797979,11.9839031 52.8729457,11.7630743 C51.3660935,11.5422454 49.8645774,12.1962556 49,13.45 L40.41,24.57 C37.57,24.36 34.13,24.24 30.92,24.24 C14.41,24.24 6,26.31 6,30.41 C6,30.59 6.18,48.87 21.68,54.12 C22.68,55.71 23.29,55.87 23.5,55.92 C25.9187067,56.50885 28.4007083,56.7976891 30.89,56.78 C33.3392743,56.8152225 35.7837829,56.5533109 38.17,56 C39.0454039,55.5934969 39.7799448,54.9355432 40.28,54.11 C42.9213691,53.076919 45.3717216,51.6100873 47.53,49.77 C47.9524978,49.4137763 48.0062236,48.7824978 47.65,48.36 C47.2937763,47.9375022 46.6624978,47.8837764 46.24,48.24 C44.198752,49.996473 41.862719,51.3777795 39.34,52.32 C39.1368515,52.389688 38.9615363,52.5229275 38.84,52.7 C38.5005439,53.170252 38.1153289,53.6057125 37.69,54 C35.4724116,54.5274241 33.1993903,54.7859509 30.92,54.77 C28.6340119,54.7859104 26.3543762,54.527395 24.13,54 C23.7896752,53.617492 23.4881946,53.2021187 23.23,52.76 C23.1060947,52.5514854 22.9106276,52.3951117 22.68,52.32 C12.05,48.92 9.14,38.77 8.34,33.57 C11.86,35.57 19.3866667,36.57 30.92,36.57 C31.57,36.57 32.31,36.57 33.09,36.57 L33.2,36.57 L33.28,36.57 C39.52,36.47 49.18,35.89 53.54,33.44 C53.089908,36.6181121 52.1167498,39.6997798 50.66,42.56 C50.4033512,43.0487869 50.5913543,43.6530824 51.08,43.91 C51.2223316,43.9829218 51.3800767,44.0206435 51.54,44.02 C51.9121807,44.0227242 52.2550804,43.8185255 52.43,43.49 C54.503132,39.4345348 55.6571597,34.972067 55.81,30.42 C55.81,28.54 53.56,27 49.13,25.9 Z M9,31.69 C8.29,31.23 8,30.79 8,30.41 L8,30.41 C8,28.86 12.82,26.24 30.89,26.24 C33.57,26.24 36.41,26.32 38.89,26.48 L36.83,29.15 C36.7044964,29.0787274 36.5641267,29.0376436 36.42,29.03 C34.64,28.95 32.77,28.91 30.87,28.91 C24,28.91 14.7,29.33 9.43,31.31 C9.24864245,31.3857164 9.09744641,31.5193315 9,31.69 Z M32.69,34.56 L30.89,34.56 C20.73,34.56 14.75,33.73 11.47,32.73 C15.6,31.53 22.25,30.89 30.89,30.89 C32.44,30.89 33.95,30.89 35.43,30.98 L32.69,34.56 Z M35.26,34.51 L50.48,14.71 C50.9111019,14.0679553 51.6737229,13.7319877 52.4384393,13.8472226 C53.2031556,13.9624574 53.8329058,14.5082409 54.0556614,15.2488151 C54.278417,15.9893893 54.0542531,16.7920197 53.48,17.31 L39.67,34.31 C38.35,34.38 36.87,34.46 35.29,34.51 L35.26,34.51 Z M42.5,34 L44.5,31.6 C44.561309,31.6259212 44.6249233,31.64601 44.69,31.66 C46.4216811,31.9220141 48.1376141,32.279222 49.83,32.73 C47.4245231,33.3484974 44.9733409,33.7731906 42.5,34 L42.5,34 Z M52.61,31.7 C52.5074186,31.5825253 52.3766568,31.4930568 52.23,31.44 C50.1645301,30.7418335 48.0436076,30.2199662 45.89,29.88 L47.78,27.56 C47.8820584,27.6258951 47.9932461,27.676435 48.11,27.71 C52.76,28.81 53.81,30.06 53.81,30.41 C53.81,30.76 53.4,31.26 52.61,31.7 Z"/>
      <path id="Path" fill="#3D454C" fill-rule="nonzero" d="M35.69 22.440017C36.0962651 22.4423626 36.46358 22.1986962 36.619371 21.8234815 36.7751619 21.4482668 36.6884599 21.0160905 36.4 20.73 35.8652221 20.1667883 35.5434371 19.4348156 35.49 18.66 35.5425417 18.0897382 35.8468986 17.5726982 36.32 17.25 37.2381967 16.5737099 37.8123884 15.5277302 37.89 14.39 37.8698977 13.0597248 37.331768 11.7897389 36.39 10.85 36.1475296 10.551602 35.7554497 10.4186474 35.3814884 10.5080129 35.0075271 10.5973784 34.7179204 10.8932356 34.6365592 11.2690197 34.5551981 11.6448037 34.6964933 12.0339556 35 12.27 35.520881 12.8145055 35.8416879 13.5195757 35.91 14.27 35.8446239 14.8385327 35.538833 15.3518246 35.07 15.68 34.1554008 16.3549847 33.5817955 17.3962428 33.5 18.53 33.5176704 19.8813493 34.0548034 21.1740494 35 22.14 35.1821756 22.3260118 35.4297158 22.433638 35.69 22.440017L35.69 22.440017zM18.13 10.42C17.5777153 10.42 17.13 10.8677153 17.13 11.42 17.13 11.9722847 17.5777153 12.42 18.13 12.42 18.6822847 12.42 19.13 11.9722847 19.13 11.42 19.13 10.8677153 18.6822847 10.42 18.13 10.42z"/>
      <path id="Path" fill="#3D454C" fill-rule="nonzero" d="M7.53,15.35 L10.91,15.35 L7.22,24.35 C7.01286508,24.8580961 7.25383105,25.4381994 7.76,25.65 C7.87933589,25.7040014 8.00902095,25.7313036 8.14,25.7300446 C8.54734353,25.7320401 8.91521263,25.4867941 9.07,25.11 L13.33,14.76 C13.4591452,14.4513412 13.425367,14.0985459 13.24,13.82 C13.0537296,13.5444212 12.7426261,13.3794989 12.41,13.38 L8.65,13.38 C9.15081777,11.3504456 10.9597246,9.91565363 13.05,9.89 C13.4488176,9.87834897 13.8025447,9.63074003 13.95,9.26 C14.0926314,8.8893069 14.0023581,8.46934021 13.72,8.19 L12.07,6.5 C13.7713401,5.62572382 15.8368373,5.90085762 17.25,7.19 C17.5466285,7.4374995 17.9592865,7.4920015 18.31,7.33 C18.6611818,7.16748724 18.8870834,6.81695031 18.89,6.43 L18.89,4.48 C20.9549513,4.90896182 22.4189107,6.75153139 22.37,8.86 C22.3792542,9.52078216 22.2246481,10.1735631 21.92,10.76 C21.7461365,11.0312103 21.7135796,11.3695716 21.8325408,11.6689573 C21.951502,11.968343 22.2074102,12.1920824 22.52,12.27 C24.13034,12.6690318 25.4020692,13.902571 25.85,15.5 C24.19,15.2 22.46,15.08 21.69,15.69 C21.3472316,15.947058 21.1468351,16.3515622 21.15,16.78 C21.15,18.41 22.28,19.54 23.27,20.53 C23.7920029,20.9954234 24.2434107,21.5344177 24.61,22.13 C24.8702914,22.6040006 25.4602415,22.7852079 25.9417342,22.5390516 C26.4232269,22.2928952 26.6218059,21.7085634 26.39,21.22 C25.934156,20.4371161 25.3608093,19.7288643 24.69,19.12 C24.0773464,18.6061756 23.5798677,17.9689941 23.23,17.25 C24.431904,17.2797208 25.6264093,17.4474884 26.79,17.75 C27.0859593,17.8226514 27.398895,17.7563827 27.64,17.57 C27.885247,17.3812074 28.0292561,17.0894966 28.0300029,16.78 C28.0324432,14.1613337 26.4978291,11.7850307 24.11,10.71 C24.2770901,10.1073348 24.3645006,9.48537525 24.37,8.86 C24.3861843,7.13648662 23.7086703,5.47885316 22.4899086,4.26009143 C21.2711468,3.0413297 19.6135134,2.3638157 17.89,2.38 C17.3377153,2.38 16.89,2.82771525 16.89,3.38 L16.89,4.61 C14.5598601,3.42018365 11.7273966,3.8774242 9.89,5.74 C9.51534631,6.12759662 9.51534631,6.74240338 9.89,7.13 L11,8.23 C8.3579747,9.1030158 6.57002178,11.5674914 6.5599999,14.35 C6.5597566,14.890778 6.98946532,15.3337767 7.53,15.35 Z"/>
    </g>
  </g>
</svg>
