<svg xmlns="http://www.w3.org/2000/svg" width="64" height="64" viewBox="0 0 64 64" style="background:#fff">
  <g id="Ingwer" fill="none" fill-rule="evenodd" stroke="none" stroke-width="1">
    <rect width="64" height="64" fill="#FFF"/>
    <g transform="translate(2 4)">
      <rect id="Rectangle" width="60" height="60" x="0" y="0"/>
      <path id="Path" fill="#E0A075" fill-rule="nonzero" d="M6.66,41.91 L6.66,41.91 C6.66,41.78 6.66,41.65 6.74,41.52 C7.23,39.01 8.44,36.81 10.47,35.85 C10.6596618,35.7537571 10.8570108,35.6734796 11.06,35.61 C12.7357467,35.0516617 14.4549969,34.6335561 16.2,34.36 L16.11,34.15 C13.9785102,29.1018208 12.8736905,23.6797057 12.86,18.2 C12.86,13.07 14.38,9.51 16.18,4.89 C16.67,3.64 17.6,4.7 17.65,5.54 C18.11,13.32 24.35,22 29.59,27.35 C31.6553652,29.437684 33.9576497,31.2768266 36.45,32.83 C36.3266416,30.770448 36.4070319,28.7037468 36.69,26.66 C37.15,23.41 37.98,20.1 40.22,17.58 C41.96,15.63 45.02,14.38 46.71,17.31 C48.53,20.44 48.43,24.16 49.26,27.59 C50.4133321,31.8355001 52.0017469,35.9506339 54,39.87 C56.1,44.33 54.87,51.87 51,55.03 C48.23,57.31 45.49,56.49 43.48,54.5 C42.48,55.69 41.14,56.59 39.6,56.24 C35.2561355,55.186085 31.2187415,53.1314316 27.81,50.24 C26.75,50.24 25.7,50.24 24.66,50.24 C20.9584231,50.4748798 17.3054657,51.2081623 13.8,52.42 C9,54 6.38,48.86 6.5,43.8 L6.5,43.87 C6.49345009,43.2131544 6.54700662,42.5570869 6.66,41.91 Z" opacity=".5"/>
      <path id="Path" fill="#3D454C" fill-rule="nonzero" d="M21.12,30.83 C20.7186285,30.9799176 20.2663502,30.8574817 19.9954158,30.5255647 C19.7244813,30.1936476 19.6951011,29.7260121 19.9223622,29.3627948 C20.1496233,28.9995775 20.5830209,28.8214971 21,28.92 C21.404733,28.7767577 21.855734,28.9078483 22.1206218,29.2457263 C22.3855096,29.5836044 22.4051643,30.0528595 22.1694586,30.4117048 C21.9337529,30.7705502 21.4952938,30.9388956 21.08,30.83 L21.12,30.83 Z"/>
      <path id="Shape" fill="#3D454C" fill-rule="nonzero" d="M6,43.61 C6.01101585,48.4363014 9.92368919,52.3445031 14.75,52.35 C18.470277,52.2392896 22.1821121,51.9321954 25.87,51.43 C32.34967,55.0372185 39.6340759,56.9529003 47.05,57.0000217 L47.1,57.0000217 C51.8579206,57.0104142 55.7805792,53.2728698 56,48.52 C56.0630768,46.3525079 55.3181668,44.2389594 53.91,42.59 C51.9021006,40.0913883 50.8397891,36.9646514 50.91,33.76 C50.8948114,31.1660928 51.0484695,28.5739471 51.37,26 C51.386071,25.8408082 51.3655485,25.6800489 51.31,25.53 C52.8561563,22.5689103 52.3997091,18.9588434 50.1652074,16.47577 C47.9307057,13.9926965 44.3885963,13.1593971 41.2814182,14.3858129 C38.1742401,15.6122287 36.1561714,18.6401531 36.22,21.98 C36.22,22.19 36.22,22.44 36.22,22.71 C36.0742033,26.6936617 36.6780061,30.6692621 38,34.43 C33.8150419,30.6269046 31.3869102,25.2640267 31.29,19.61 C31.2879285,16.2227016 29.9242496,12.978432 27.5056741,10.606874 C25.0870987,8.23531594 21.8166864,6.93558164 18.43,7 C11.6,7.11 6,13.09 6,20.33 L6,20.33 L6,20.42 C6.02292349,25.9321072 7.49924023,31.3406695 10.28,36.1 C7.62714518,37.6717878 6,40.5264703 6,43.61 Z M8,43.61 C8.00551707,39.8859838 11.0259797,36.8699959 14.75,36.87 C17.32,36.87 19.02,38.1 20.83,39.4 C23,41 25.49,42.74 29.59,42.28 C30.1422847,42.2192487 30.5407513,41.7222847 30.48,41.17 C30.4192487,40.6177153 29.9222847,40.2192487 29.37,40.28 C26.04,40.64 24.08,39.28 22.02,37.75 C19.96,36.22 18.02,34.85 14.77,34.85 C13.8739273,34.8471522 12.9830022,34.9855156 12.13,35.26 C9.93913931,31.5069488 8.58491767,27.3248941 8.16,23 C10.0289499,24.1167938 12.1850652,24.6593002 14.36,24.56 C15,24.56 15.68,24.56 16.41,24.46 C16.9622847,24.4047715 17.3652285,23.9122847 17.31,23.36 C17.2547715,22.8077153 16.7622847,22.4047715 16.21,22.46 C10.28,23.05 8.44,20.8 8.04,20.14 C8.13,14.09 12.77,9.09 18.46,9 C21.3042046,8.95446452 24.0477895,10.0518441 26.0760503,12.0462693 C28.1043111,14.0406944 29.247686,16.7654318 29.25,19.61 C29.2757164,21.453827 29.5275988,23.2875308 30,25.07 C30,25.47 29.55,28.07 24.69,28.68 C24.1377153,28.7131371 23.7168629,29.1877153 23.75,29.74 C23.7831371,30.2922847 24.2577153,30.7131371 24.81,30.68 L25,30.68 C28.3,30.27 30.05,29.03 31,27.83 C32.6784416,32.023457 35.6349669,35.5817838 39.45,38 C40.3561094,39.868568 41.4059309,41.6639634 42.59,43.37 C42.9052372,43.8221954 43.5269551,43.9340152 43.98,43.62 C44.4321954,43.3047628 44.5440152,42.6830449 44.23,42.23 C43.1243408,40.6404811 42.1414919,38.9689693 41.29,37.23 C41.2603129,37.0691865 41.1916406,36.9181074 41.09,36.79 C39.0002174,32.3932822 38.0117794,27.5540546 38.21,22.69 C38.21,22.4 38.21,22.15 38.21,21.92 C38.186398,18.9480774 40.3420261,16.4067205 43.2779817,15.945152 C46.2139374,15.4835835 49.045372,17.2409124 49.9348161,20.0767139 C50.8242601,22.9125155 49.5036499,25.9721258 46.83,27.27 C46.3538597,27.5253377 46.1666327,28.112705 46.4071734,28.5964892 C46.6477142,29.0802733 47.2290317,29.2855152 47.72,29.06 C48.2129683,28.8084564 48.6787532,28.5068691 49.11,28.16 C48.98,29.63 48.86,31.61 48.87,33.76 L48.87,33.89 C48.3857108,34.8002307 47.5134986,35.4405891 46.5,35.63 C45.9477153,35.63 45.5,36.0777153 45.5,36.63 C45.5,37.1822847 45.9477153,37.63 46.5,37.63 C47.4540892,37.5821501 48.3681971,37.2319172 49.11,36.63 C49.5301375,39.3059386 50.6670363,41.8181739 52.4,43.9 C53.4820205,45.1680379 54.0524938,46.7938869 54,48.46 C53.8182418,52.134072 50.7785337,55.0151866 47.1,55.0000598 L47.1,55.0000598 C40.9587201,54.9515732 34.9016755,53.5661309 29.35,50.94 C31.09,50.67 32.8,50.36 34.35,50.01 C34.6105186,49.9527191 34.8373554,49.7937298 34.980076,49.5683815 C35.1227967,49.3430332 35.1695712,49.0700045 35.11,48.81 C35.0527191,48.5494814 34.8937298,48.3226446 34.6683815,48.179924 C34.4430332,48.0372033 34.1700045,47.9904288 33.91,48.05 C29.5595779,48.9627759 25.158351,49.6139438 20.73,50 C21.0959071,49.6570797 21.4305612,49.2822671 21.73,48.88 C22.0613708,48.4381722 21.9718278,47.8113708 21.53,47.48 C21.0881722,47.1486292 20.4613708,47.2381722 20.13,47.68 C18.3797556,49.9898883 15.3503564,50.9247447 12.602802,50.002853 C9.85524759,49.0809613 8.00280201,46.5080911 8,43.61 Z"/>
    </g>
  </g>
</svg>
