<svg xmlns="http://www.w3.org/2000/svg" width="64" height="64" viewBox="0 0 64 64" style="background:#fff">
  <g id="Jalapeno" fill="none" fill-rule="evenodd" stroke="none" stroke-width="1">
    <rect width="64" height="64" fill="#FFF"/>
    <g transform="translate(2 6)">
      <rect id="Rectangle" width="60" height="60" x="0" y="0"/>
      <path id="Path" fill="#31E085" fill-rule="nonzero" d="M55.62,13.38 C54.48,11.27 51.78,11.02 49.62,10.74 C47.4265228,10.383005 45.1825177,10.9394894 43.41,12.28 C42.989583,12.7412416 42.7881062,13.361164 42.8570259,13.9814416 C42.9259457,14.6017192 43.2585889,15.1622949 43.77,15.52 C45.53,16.46 47.63,16.68 49.56,17.1 C51.3,17.48 53.32,18.93 54.99,18 C56.66,17.07 56.39,14.79 55.62,13.38 Z" opacity=".5"/>
      <path id="Path" fill="#E05362" fill-rule="nonzero" d="M50,18.44 C45.24,16.65 42.6,22.2 41.85,25.84 C39.85,35.65 29.26,37.7 25.28,45.93 C24.42,47.71 24.02,50.43 25.43,52.1 C30.64,58.24 37.98,55.33 43.43,51.1 C49.8,46.07 53.15,38.69 55,31 C56,26.91 54.34,20.07 50,18.44 Z" opacity=".5"/>
      <path id="Path" fill="#31E085" fill-rule="nonzero" d="M30.75,16.81 C28.97,14.37 25.38,13.88 23.83,16.98 C21.873999,21.0986383 19.1051518,24.7790962 15.69,27.8 C12.27,30.8 7.92,33.12 6.12,37.45 C5.53619073,38.9697357 5.87863807,40.6897553 7,41.87 C10.83,45.51 17.05,42.15 20.56,39.61 C24.9727351,36.4154447 28.553243,32.2073191 31,27.34 C32.6,24.14 33,19.87 30.75,16.81 Z" opacity=".5"/>
      <circle id="Oval" cx="50.78" cy="24.15" r="1" fill="#3D454C" fill-rule="nonzero"/>
      <path id="Shape" fill="#3D454C" fill-rule="nonzero" d="M55,20.52 C54.7853556,20.042918 54.5311339,19.5846499 54.24,19.15 C54.7874517,18.277601 54.9604684,17.2214781 54.72,16.22 C54.2168204,14.282713 52.7440064,12.7455343 50.83,12.16 C50.799806,12.0230868 50.7302955,11.8979679 50.63,11.8 C51.0703332,10.2485183 52.1660175,8.96656769 53.63,8.29 C54.77,7.68 53.76,5.95 52.63,6.56 C50.5557274,7.57612337 49.0758575,9.50365393 48.63,11.77 C46.63,11.77 44.17,12.44 43.46,14.52 C43.1397949,15.4297398 43.2657114,16.4370719 43.8,17.24 C41.7802782,18.4137445 40.1866617,20.1999959 39.25,22.34 C39.25,22.34 39.25,22.4 39.25,22.43 C39.25,22.46 39.19,22.52 39.17,22.57 C36.36,31.09 35.23,38.57 27,43.57 C24.25,45.26 22.11,47.48 23.8,50.88 C27.52,58.34 39.26,50.49 43.3,47.4 C50.38,42 59.34,30 55,20.52 Z M45.61,16.28 C45.19,15.36 45.33,14.72 46.04,14.36 C46.3396994,14.1915962 46.6634679,14.0701831 47,14 C47.8068506,13.7757406 48.652002,13.7246226 49.48,13.85 L49.53,13.85 C50.7396719,14.0995291 51.8108623,14.7958029 52.53,15.8 C52.7353511,16.2014849 52.8577829,16.6401987 52.89,17.09 C52.89,17.19 52.89,17.39 52.89,17.55 L52.89,17.55 C50.9678444,15.9622845 48.3596625,15.4853165 46,16.29 C45.8846539,16.2676509 45.7664339,16.2642732 45.65,16.28 L45.61,16.28 Z M53.61,28.6 C52,36.78 45.75,43.8 38.82,48.09 C36.31,49.64 33.44,51.34 30.49,51.77 C26.2,52.4 24.28,48.6 28,45.34 C29.05,44.42 30.56,43.89 31.67,42.97 C37.8,37.9 38.73,30.3 41.07,23.18 C41.9952871,21.0365164 43.6497416,19.2899509 45.74,18.25 C45.8863144,18.2643752 46.0336856,18.2643752 46.18,18.25 C46.3740529,18.2173567 46.5507685,18.1183959 46.68,17.97 C48.1443239,17.5600519 49.7137419,17.7889254 51,18.6 C54.25,20.61 54.35,25.29 53.66,28.6 L53.61,28.6 Z"/>
      <path id="Path" fill="#3D454C" fill-rule="nonzero" d="M49.54,27.92 C47.17,37.65 38.69,45.42 29.32,48.31 C28.09,48.69 28.61,50.62 29.85,50.24 C39.85,47.15 48.93,38.86 51.47,28.45 C51.77,27.2 49.84,26.67 49.54,27.92 Z"/>
      <path id="Shape" fill="#3D454C" fill-rule="nonzero" d="M29.27,32.74 C34.87,25.88 34.46,21.02 33.72,18.74 C33.3727136,17.6040026 32.7471026,16.5727756 31.9,15.74 C32.2917966,15.0155109 32.4089741,14.1739635 32.23,13.37 C31.7129036,11.6119729 30.3380271,10.2370964 28.58,9.72 C28.5857003,9.67016247 28.5857003,9.61983753 28.58,9.57 C28.9591516,8.02364403 30.0233083,6.73487288 31.47,6.07 C32.6,5.46 31.6,3.73 30.47,4.34 C28.4778228,5.31589126 27.0543381,7.16457263 26.62,9.34 C24.5634383,9.33219505 22.694721,10.5349125 21.85,12.41 C21.5342551,13.2846126 21.6070237,14.2524341 22.05,15.07 C20.4848661,15.9910224 19.2603627,17.3944648 18.56,19.07 C17.99,20.43 17.56,21.84 17.13,23.2 C16.5000052,25.7564314 15.434431,28.1852641 13.98,30.38 C12.495111,32.3837821 10.5367234,33.9882856 8.28,35.05 L8.14,35.11 C6.43,35.89 4.49,36.76 3.91,38.5 C3.615793,39.5153445 3.77243225,40.6081765 4.34,41.5 C4.99360341,42.6737648 6.12481567,43.5057531 7.44,43.78 C7.97301021,43.9160551 8.51999229,43.9898809 9.07,44 C14.77,44 22.72,38.69 22.8,38.63 C25.232918,36.9934009 27.4127622,35.0089677 29.27,32.74 L29.27,32.74 Z M23.72,14.22 C23.06,14.34 24.32,12.22 24.72,11.98 C25.4679003,11.4918753 26.3625535,11.2797046 27.25,11.38 C28.2504274,11.6077438 29.1595792,12.1302448 29.86,12.88 C30.1346231,13.2183032 30.3079613,13.6273814 30.36,14.06 C30.3799818,14.2160295 30.3799818,14.3739705 30.36,14.53 L30.36,14.53 C30.313844,14.4966788 30.2633848,14.4697672 30.21,14.45 C30.1057814,14.4048537 29.993572,14.3810517 29.88,14.38 C29.5941915,14.2591547 29.3001084,14.1588991 29,14.08 C27.3550902,13.6547866 25.6246179,13.692857 24,14.19 C23.9056898,14.1858837 23.8112975,14.1959972 23.72,14.22 L23.72,14.22 Z M21.68,37 C18.21,39.35 11.38,42.75 7.84,41.9 C7.06008567,41.7574053 6.3849889,41.2730968 6,40.58 C5.70483804,40.1812559 5.60223857,39.6719229 5.72,39.19 C6.02,38.29 7.6,37.58 8.87,37.01 L9,37 C11.572782,35.7996837 13.8039905,33.9741494 15.49,31.69 C17.1080464,29.3048746 18.2959828,26.6548627 19,23.86 C19.43,22.48 19.83,21.18 20.36,19.91 C21.4466482,17.3547039 23.9949552,15.7326926 26.77,15.83 C27.3465727,15.827648 27.9211292,15.8982076 28.48,16.04 C30.0996459,16.4896437 31.3709923,17.745855 31.84,19.36 C32.84,22.58 31.39,27 27.74,31.48 C26.0017328,33.6073223 23.9598568,35.4672489 21.68,37 L21.68,37 Z"/>
      <path id="Path" fill="#3D454C" fill-rule="nonzero" d="M26.65,23 C26.12,28.72 20.94,33.3 16.08,35.64 C14.92,36.19 15.94,37.92 17.08,37.36 C22.64,34.69 28.08,29.45 28.64,23 C28.77,21.75 26.77,21.76 26.65,23 Z"/>
      <circle id="Oval" cx="27.8" cy="19.15" r="1" fill="#3D454C" fill-rule="nonzero"/>
    </g>
  </g>
</svg>
