<svg xmlns="http://www.w3.org/2000/svg" width="64" height="64" viewBox="0 0 64 64" style="background:#fff">
  <g id="Joghurt-(natur)" fill="none" fill-rule="evenodd" stroke="none" stroke-width="1">
    <rect width="64" height="64" fill="#FFF"/>
    <g transform="translate(2 5)">
      <rect id="Rectangle" width="60" height="60" x="0" y="0"/>
      <path id="Path" fill="#39A0D3" fill-rule="nonzero" d="M49.22,30.85 C48.45,26.52 46.9,20.85 42.74,18.67 C41.63,18.07 41.38,20.17 41.46,20.74 C42.16,25.79 44.11,30.39 43.74,35.59 C43.43,39.89 40.94,44.11 42.11,48.37 C42.39,49.37 43.05,50.93 44.37,50.86 L45,50.86 C46.42,50.78 47.24,49.57 47.71,48.37 C49.8203664,42.7812222 50.3429859,36.7174515 49.22,30.85 L49.22,30.85 Z" opacity=".5"/>
      <path id="Path" fill="#B3B3B3" fill-rule="nonzero" d="M28.86,33.22 C25.861846,31.1020353 22.6471337,29.3086347 19.27,27.87 C16.99,26.98 15.43,28.28 14.58,30.36 C11.08,31.19 7.37,34.69 6.83,37.58 C5.47,44.83 12.41,46.66 18.03,47.51 C23.87,48.4 32.48,50.41 33.4,42.35 C33.87,38.29 32.12,35.41 28.86,33.22 Z" opacity=".5"/>
      <circle id="Oval" cx="46.78" cy="43.58" r="1" fill="#3D454C" fill-rule="nonzero"/>
      <path id="Path" fill="#3D454C" fill-rule="nonzero" d="M49.13,40 C50.6677996,34.1047893 49.7514194,27.838048 46.59,22.63 C45.92,21.53 44.19,22.54 44.86,23.63 C47.7750311,28.3745937 48.6206074,34.1057219 47.2,39.49 C47.0965216,40.0082749 47.4141999,40.5175875 47.9251654,40.6526094 C48.4361309,40.7876314 48.9639413,40.5017382 49.13,40 Z"/>
      <path id="Shape" fill="#3D454C" fill-rule="nonzero" d="M52.09,23.7 C51.66,22.7 51.23,21.82 50.82,21.08 C49.7303553,19.2250378 49.0485453,17.1591534 48.82,15.02 C49.9825184,14.7594183 50.811617,13.731336 50.82,12.54 L50.82,11.14 C50.8144924,9.73005785 49.6699529,8.59 48.26,8.59 L37.29,8.59 C35.8816739,8.59 34.74,9.73167389 34.74,11.14 L34.74,12.54 C34.7446698,13.7326582 35.5754028,14.7627672 36.74,15.02 C36.5078709,17.1583782 35.8263034,19.2235275 34.74,21.08 C34.265722,21.9277081 33.8416581,22.8025487 33.47,23.7 C32.2754114,26.5064252 31.6434589,29.5200911 31.61,32.57 C31.61,33.1222847 32.0577153,33.57 32.61,33.57 L32.61,33.57 C33.1622847,33.57 33.61,33.1222847 33.61,32.57 C33.6426059,29.7784679 34.2200813,27.0201735 35.31,24.45 C35.7,23.54 36.1,22.72 36.48,22.02 C37.7365983,19.8794569 38.5112636,17.4906212 38.75,15.02 L46.85,15.02 C47.0887364,17.4906212 47.8634017,19.8794569 49.12,22.02 C49.5,22.71 49.9,23.53 50.3,24.45 C51.4489422,27.152665 52.0276821,30.0633863 52,33 L52,49.2 C51.9944886,51.0738617 50.4738698,52.59 48.6,52.59 L37,52.59 C36.2035111,52.5885529 35.4325043,52.3091514 34.82,51.8 C34.5508155,51.5396775 34.1587463,51.4515647 33.8040629,51.5716806 C33.4493796,51.6917964 33.1915285,52.000009 33.1359145,52.3703267 C33.0803005,52.7406444 33.2362447,53.1110004 33.54,53.33 C34.5105202,54.1416586 35.734815,54.5875001 37,54.59 L48.6,54.59 C51.5784368,54.59 53.9944844,52.1784317 54.0000422,49.2 L54.0000422,33 C54.0060792,29.8019966 53.3560116,26.636746 52.09,23.7 Z M36.74,11.14 C36.74,10.8362434 36.9862434,10.59 37.29,10.59 L48.21,10.59 C48.5154159,10.5899513 48.7645461,10.8346328 48.77,11.14 L48.77,12.54 C48.77,12.8492795 48.5192795,13.1 48.21,13.1 L37.29,13.1 C36.9846328,13.0945461 36.74,12.8454159 36.74,12.54 L36.74,11.14 Z"/>
      <path id="Shape" fill="#3D454C" fill-rule="nonzero" d="M35.83,40 C35.1760778,39.2395238 34.2969108,38.7071199 33.32,38.48 C33.11,37.59 32.39,36.48 30.44,35.57 C30.444876,35.4934109 30.444876,35.4165891 30.44,35.34 C30.44,35.26 30.44,35.19 30.44,35.16 L30.44,35.1 C30.44,32.49 26.04,31.1 21.63,30.92 C19.14,30 19.32,29.15 19.41,28.73 C19.5662019,28.2658953 19.4141411,27.7536904 19.03,27.45 C18.41,27.01 17.94,27.31 16.89,27.95 C15.6857881,28.5856431 15.0157257,29.913731 15.22,31.26 C15.2155743,31.3165803 15.2155743,31.3734197 15.22,31.43 C12.07,32.14 10.29,33.43 10.29,35.1 C10.2912907,35.2579228 10.3080373,35.4153401 10.34,35.57 C8.24,36.57 7.56,37.75 7.42,38.69 C6.56573037,38.8957309 5.7734585,39.303871 5.11,39.88 C4.76602358,40.2635586 4.58333237,40.7650639 4.6,41.28 C4.84,48.74 11.76,54.59 20.36,54.59 C28.96,54.59 35.96,48.59 36.12,41.15 C36.1521564,40.7452288 36.0502509,40.3411207 35.83,40 L35.83,40 Z M12.13,37 C12.4334483,36.882892 12.6609822,36.6255176 12.74,36.31 C12.8219571,35.9889515 12.7395662,35.6481527 12.52,35.4 C12.4288572,35.3238999 12.3684473,35.2172942 12.35,35.1 C12.35,34.8 13.29,33.87 16.14,33.3 L16.55,33.79 C16.7408345,33.9957808 17.009358,34.1118991 17.29,34.11 C17.5412832,34.1118503 17.7840522,34.0190269 17.97,33.85 C18.3661449,33.4682657 18.3795498,32.8382385 18,32.44 C17.8057374,32.2240671 17.628538,31.9933735 17.47,31.75 L17.47,31.75 C17.05,30.89 17.15,30.38 17.52,30 C17.9,31.2 19.1,32.1533333 21.12,32.86 C21.215209,32.8991131 21.3170713,32.9194856 21.42,32.92 C26.2,33.12 28.42,34.53 28.42,35.08 C28.34,35.27 27.54,36.63 23.03,36.7 C22.4777153,36.7 22.03,37.1477153 22.03,37.7 C22.03,38.2522847 22.4777153,38.7 23.03,38.7 L23.03,38.7 C26.27,38.7 28.08,37.97 29.1,37.21 C30.71,37.91 31.31,38.65 31.31,39.1 C31.2902881,39.3532643 31.1802782,39.5910276 31,39.77 C30.6360289,40.1843967 30.6762956,40.8152422 31.09,41.18 C31.2737501,41.3371606 31.5082198,41.4224223 31.75,41.42 C32.0407122,41.4225296 32.3181337,41.29842 32.51,41.08 C32.6622762,40.894653 32.7993856,40.6973492 32.92,40.49 C33.3567196,40.6143465 33.7577024,40.8405419 34.09,41.15 C34.0383136,41.1950675 33.9914001,41.245332 33.95,41.3 C33,43.11 27.64,45 20.42,45 C12.89,45 7.51,43 6.75,41.16 C7.11885273,40.9381831 7.51569996,40.7666643 7.93,40.65 C8.03044195,40.8004217 8.14068046,40.9440658 8.26,41.08 C8.48215032,41.3874567 8.85913092,41.542757 9.23338446,41.4809937 C9.607638,41.4192304 9.91472925,41.1510374 10.0263108,40.7885047 C10.1378924,40.425972 10.0347533,40.0315168 9.76,39.77 C9.5797218,39.5910276 9.46971192,39.3532643 9.45,39.1 C9.45,38.6 10.15,37.76 12.13,37 Z M20.42,52.59 C14.31,52.59 9.03,49.09 7.28,44.33 C10.37,46.14 15.67,47 20.42,47 C25.98,47 30.77,46 33.56,44.33 C31.82,49.09 26.56,52.59 20.42,52.59 Z"/>
    </g>
  </g>
</svg>
