<svg xmlns="http://www.w3.org/2000/svg" width="64" height="64" viewBox="0 0 64 64" style="background:#fff">
  <g id="Kabeljau" fill="none" fill-rule="evenodd" stroke="none" stroke-width="1">
    <rect width="64" height="64" fill="#FFF"/>
    <g id="Group" transform="translate(2 7)">
      <g id="Kabeljau" transform="translate(1.875 3.75)">
        <rect id="Rectangle" width="56.25" height="56.25" x="0" y="0"/>
        <path id="Path" fill="#39A0D3" fill-rule="nonzero" d="M45.684375,16.0875 C39.88125,18.553125 35.1,23.5875 30.09375,27.3375 C24.571875,31.471875 17.90625,34.921875 13.21875,39.91875 C11.878125,41.325 12.0375,47.259375 15.009375,45.84375 C21.121875,42.909375 26.315625,37.2375 31.396875,32.8125 C36.6375,28.246875 42.646875,24.046875 46.575,18.2625 C46.978125,17.6625 46.78125,15.61875 45.684375,16.0875 Z" opacity=".5"/>
        <path id="Path" fill="#BAB41D" fill-rule="nonzero" d="M32.475 14.390625C30.703125 13.940625 28.415625 14.390625 26.653125 14.75625 24.178125 15.290625 24.6 20.5125 27.234375 19.846875 29.2425168 19.4649379 31.1546215 18.6873487 32.859375 17.559375 33.6 16.959375 33.6 14.68125 32.475 14.390625zM22.14375 21.16875C20.071875 22.725 18.39375 25.425 16.9875 27.553125 15.4314652 29.6496158 14.3211649 32.0425045 13.725 34.584375 13.678125 34.8375 13.809375 35.30625 14.146875 35.203125 16.21875 34.5375 17.821875 32.390625 19.18125 30.80625 20.83125 28.875 22.81875 26.9625 24.065625 24.75 24.759375 23.503125 24.196875 19.63125 22.14375 21.16875zM47.7 9.478125C45.4354558 9.4644166 43.2084739 10.0567679 41.25 11.19375 39.375 12.13125 36.8625 13.490625 35.896875 15.39375 35.409375 16.33125 35.26875 19.275 37.0125 19.14375 38.98125 18.984375 40.9125 16.93125 42.571875 15.9 44.545839 14.8052207 46.4270926 13.5510517 48.196875 12.15 48.9375 11.503125 48.825 9.5625 47.7 9.478125z" opacity=".5"/>
        <circle id="Oval" cx="44.419" cy="13.669" r="1" fill="#3D454C" fill-rule="nonzero"/>
        <circle id="Oval" cx="37.341" cy="28.95" r="1" fill="#3D454C" fill-rule="nonzero"/>
        <path id="Shape" fill="#3D454C" fill-rule="nonzero" d="M51.703125,10.9875 C51.3260869,10.3984721 50.5636467,10.1916399 49.940625,10.509375 L49.7625,10.59375 C49.5176618,10.7034372 49.2526556,10.7609084 48.984375,10.7625 C48.9760361,10.7223029 48.9760361,10.6808221 48.984375,10.640625 C49.0115546,10.4509688 49.0115546,10.2584062 48.984375,10.06875 C48.9799504,9.69141496 48.8209891,9.33240045 48.5445877,9.07548887 C48.2681862,8.81857728 47.8985265,8.68624533 47.521875,8.709375 C43.265625,9.065625 38.94375,11.08125 34.81875,13.93125 C31.875,13.125 28.378125,12.28125 26.615625,13.40625 C26.0545492,13.7603218 25.6774533,14.3431063 25.584375,15 C25.584375,15 25.584375,15.13125 25.584375,15.16875 C25.5587599,15.3986704 25.5212092,15.6271037 25.471875,15.853125 C25.21875,17.109375 24.84375,18.99375 25.8,20.325 C25.9880322,20.5615741 26.2090337,20.7699469 26.45625,20.94375 C26.165625,21.225 25.884375,21.50625 25.603125,21.796875 L25.0125,21.7125 C23.1375,21.440625 19.134375,20.859375 16.978125,24.7875 L15.496875,27.4875 C14.9370805,28.4448737 14.9921551,29.6418275 15.6375,30.54375 C12.825,31.29375 12.009375,32.803125 11.775,33.778125 C11.517907,35.0529103 11.9277786,36.3708594 12.8625,37.275 C12.684375,37.51875 12.525,37.7625 12.365625,37.9875 C10.3931276,37.2960286 8.23590771,37.3493756 6.3,38.1375 C5.55600422,38.4488747 5.05061739,39.1525125 4.9931548,39.9569887 C4.93569221,40.761465 5.33593879,41.5297908 6.028125,41.94375 L6.028125,41.94375 C8.81531071,43.6556504 11.1726418,45.9841162 12.91875,48.75 C12.9243834,48.8025909 12.940311,48.8535593 12.965625,48.9 C13.4137918,49.5945487 14.1738756,50.0253796 15,50.0532505 L15,50.0532505 C15.838794,50.062559 16.5914429,49.539468 16.875,48.75 C17.6568915,46.7454214 17.6568915,44.5202036 16.875,42.515625 L17.559375,42.028125 C18.2938647,42.8035771 19.3043802,43.2583091 20.371875,43.29375 C20.5762916,43.2936487 20.780269,43.27482 20.98125,43.2375 C21.853125,43.078125 23.203125,42.45 24.075,40.246875 C24.6181013,40.7281481 25.3180926,40.9948115 26.04375,40.996875 C26.3002281,40.9948994 26.5554088,40.9602453 26.803125,40.89375 L29.840625,40.125 C34.246875,39 34.725,34.996875 34.959375,33.075 C34.9854193,32.7844888 35.0324166,32.4962386 35.1,32.2125 C35.1320515,32.0737013 35.1320515,31.9294237 35.1,31.790625 C35.2893512,31.4666021 35.267221,31.0608804 35.04375,30.759375 C34.8944095,30.5577317 34.6704681,30.4243711 34.4220314,30.3891318 C34.1735947,30.3538926 33.9214002,30.4197162 33.721875,30.571875 C31.3368908,32.4319581 28.7175373,33.9701585 25.93125,35.146875 C25.321875,35.41875 24.69375,35.709375 24.05625,36.01875 L23.934375,36.084375 C20.8335871,37.5794935 17.8853673,39.3722874 15.13125,41.4375 C15.13125,41.4375 15.075,41.4375 15.05625,41.4375 C14.803125,41.634375 14.578125,41.8125 14.4,41.98125 L14.4,41.98125 C13.9997149,42.3008371 13.4315351,42.3008371 13.03125,41.98125 L13.125,41.86875 C12.7497897,41.493951 12.6872894,40.9080106 12.975,40.4625 C14.85,37.65 17.025,34.621875 19.359375,31.6875 L19.359375,31.6875 C24.825,24.84375 31.275,18.31875 37.621875,14.38125 C38.5091826,17.6226376 40.9802618,20.1925601 44.184375,21.20625 C43.921875,21.515625 43.640625,21.825 43.35,22.14375 L43.275,22.228125 C42.15,23.45625 40.903125,24.721875 39.525,25.978125 C39.1840796,26.2893452 39.1204422,26.802422 39.375,27.1875 L41.015625,31.228125 C41.0996578,31.8103325 41.5992609,32.2419896 42.1875,32.240625 L42.3375,32.240625 C44.11875,31.978125 44.953125,25.4625 44.971875,23.1375 C49.603125,17.934375 52.696875,12.61875 51.703125,10.9875 Z M27.328125,19.21875 C26.85,18.5625 27.140625,17.1 27.328125,16.21875 C27.4093779,15.8898002 27.4595978,15.5539544 27.478125,15.215625 C27.5022377,15.118429 27.5671801,15.0363966 27.65625,14.990625 C28.078125,14.71875 29.30625,14.446875 32.85,15.3375 C31.14375,16.65 29.484375,18.084375 27.890625,19.575 C27.6590337,19.5334001 27.4515531,19.4062346 27.309375,19.21875 L27.328125,19.21875 Z M17.128125,28.3875 L18.609375,25.6875 C19.865625,23.4375 21.9,23.240625 23.971875,23.4375 C21.9375,25.603125 20.0625,27.796875 18.403125,29.85 C18.0172965,29.9996243 17.5792473,29.8993928 17.296875,29.596875 C16.9851618,29.272588 16.9170884,28.7847289 17.128125,28.3875 L17.128125,28.3875 Z M13.59375,34.2 C13.8,33.2625 14.86875,32.625 16.528125,32.259375 C15.590625,33.515625 14.7,34.678125 13.959375,35.7 C13.6277476,35.2757058 13.4945625,34.7293054 13.59375,34.2 L13.59375,34.2 Z M15.15,48 C15.1277003,48.0636712 15.0961087,48.1236953 15.05625,48.178125 C14.9256652,48.1641015 14.8003155,48.1191041 14.690625,48.046875 L14.690625,48.046875 C12.8076266,44.882531 10.1530372,42.2472946 6.975,40.3875 L6.975,40.3875 C6.88645863,40.3406446 6.83748451,40.2426963 6.853125,40.14375 C6.85715584,40.0438577 6.91960376,39.955696 7.0125,39.91875 L7.0125,39.91875 C8.35431811,39.3585974 9.84264747,39.2532289 11.25,39.61875 C11.2320489,39.667358 11.2100987,39.7143941 11.184375,39.759375 L11.090625,39.965625 L11.00625,40.21875 L10.95,40.434375 C10.95,40.51875 10.95,40.603125 10.95,40.6875 C10.9453776,40.7593007 10.9453776,40.8313243 10.95,40.903125 C10.9453031,40.990562 10.9453031,41.078188 10.95,41.165625 C10.9451034,41.2374166 10.9451034,41.3094584 10.95,41.38125 C10.9447377,41.4686709 10.9447377,41.5563291 10.95,41.64375 C10.9447037,41.712398 10.9447037,41.781352 10.95,41.85 C10.9755806,41.9394224 11.0068955,42.027104 11.04375,42.1125 C11.061375,42.179466 11.0832954,42.2452272 11.109375,42.309375 L11.259375,42.58125 L11.34375,42.73125 C11.4363584,42.8704326 11.5398044,43.0020912 11.653125,43.125 C11.6850837,43.1732108 11.7228692,43.2172939 11.765625,43.25625 C11.8715291,43.3586357 11.9877773,43.4497492 12.1125,43.528125 C12.1495787,43.5584761 12.1905712,43.5837023 12.234375,43.603125 L12.553125,43.78125 L12.703125,43.846875 C12.846689,43.9035536 12.9938947,43.9505342 13.14375,43.9875 L13.2375,43.9875 C13.4225462,44.0256781 13.611058,44.0445293 13.8,44.04375 L13.85625,44.04375 C13.9623074,44.0527976 14.0689426,44.0527976 14.175,44.04375 L14.259375,44.04375 C14.424685,44.0153297 14.587639,43.9745912 14.746875,43.921875 L14.86875,43.921875 L15.234375,43.753125 L15.309375,43.753125 C15.7287881,45.1472396 15.6727218,46.6412415 15.15,48 L15.15,48 Z M20.775,41.3625 C20.2297748,41.4297539 19.6808219,41.2704898 19.25625,40.921875 C20.19375,40.3125 21.35625,39.628125 22.66875,38.90625 C22.21875,40.3125 21.5625,41.25 20.7375,41.3625 L20.775,41.3625 Z M26.86875,36.825 C29.0677662,35.885483 31.1712202,34.736432 33.15,33.39375 C32.840625,35.55 32.2125,37.59375 29.5125,38.278125 L26.475,39.05625 C25.9946436,39.1870173 25.4851596,38.9893071 25.21875,38.56875 C25.0512818,38.2786865 25.0512818,37.9213135 25.21875,37.63125 L26.86875,36.825 Z M39.328125,13.3875 C41.7294632,11.9962131 44.3731743,11.0736184 47.11875,10.66875 L47.11875,10.66875 C47.0945731,11.2225972 47.3167269,11.7587521 47.7255366,12.1331928 C48.1343463,12.5076336 48.6878992,12.6819711 49.2375,12.609375 C49.4804642,12.6000099 49.7220785,12.5686314 49.959375,12.515625 C48.8664956,15.0764221 47.3867401,17.4541488 45.571875,19.565625 C42.4258641,18.9382734 39.9557199,16.4976234 39.290625,13.359375 L39.328125,13.3875 Z M42.1875,29.11875 L41.25,26.878125 C41.821875,26.34375 42.375,25.8 42.928125,25.246875 C42.7772308,26.5540228 42.5296779,27.8481916 42.1875,29.11875 Z"/>
      </g>
    </g>
  </g>
</svg>
