<svg xmlns="http://www.w3.org/2000/svg" width="64" height="64" viewBox="0 0 64 64" style="background:#fff">
  <g id="Kängurufleisch" fill="none" fill-rule="evenodd" stroke="none" stroke-width="1">
    <rect width="64" height="64" fill="#FFF"/>
    <g transform="translate(2 9)">
      <rect id="Rectangle" width="60" height="60" x="0" y="0"/>
      <rect id="Rectangle" width="60" height="60" x="0" y="0"/>
      <path id="Path" fill="#E0A075" fill-rule="nonzero" d="M56.83,12.37 C51.01,10.6 49.83,19.14 46.38,21.8 C42.25,25.02 39.25,19.9 36.78,17.16 C34.73,14.88 32.49,12.9 29.39,12.24 C22.39,10.75 18.57,17.06 18.54,23.14 C18.54,26.95 19.61,30.71 19.77,34.52 C19.95,38.82 19.45,43.04 20.01,47.31 C20.57,51.58 26.08,53.49 27.62,48.6 C29.78,41.74 28.62,34.09 27.46,27.12 C27.35,26.51 27.25,25.89 27.14,25.28 C26.54,23.86 26.75,23.58 27.77,24.46 C29.25,24.36 30.55,25.77 31.46,26.68 C33.74,28.95 35.29,31.48 38.12,33.18 C50.33,40.55 54.52,22.12 57.47,14.5 C57.7,13.91 57.61,12.61 56.83,12.37 Z" opacity=".5"/>
      <path id="Shape" fill="#3D454C" fill-rule="nonzero" d="M55.74,23.76 C55.6522845,23.5318487 55.5234894,23.3217092 55.36,23.14 L54.36,22.09 C54.0836844,21.7709598 53.8729983,21.4005601 53.74,21 C53.5405842,20.411172 53.1967777,19.8817099 52.74,19.46 C52.3736642,19.1240852 51.9410476,18.8686029 51.47,18.71 C51.2328787,18.6311464 51.0195838,18.4935368 50.85,18.31 C50.5062328,17.9349604 50.1044469,17.6175833 49.66,17.37 C49.2994044,17.1723851 48.9167618,17.0179855 48.52,16.91 C48.1134895,16.7906438 47.6934573,16.7234386 47.27,16.71 C46.8744947,16.6932257 46.5063235,16.911337 46.3310226,17.2662672 C46.1557217,17.6211974 46.2062935,18.0461269 46.46,18.35 L47,19 C47.1420476,19.1869878 47.2192812,19.4151778 47.22,19.65 C47.2193967,19.872431 47.149489,20.089145 47.02,20.27 C46.6137067,20.8184547 46.2493408,21.3967602 45.93,22 C45.5449372,22.696797 45.2396753,23.4347928 45.02,24.2 C44.9839511,24.3286949 44.9264803,24.4503977 44.85,24.56 C44.7756747,24.664417 44.684417,24.7556747 44.58,24.83 C44.3714349,24.9754925 44.1242593,25.0555634 43.87,25.06 C43.7111096,25.0615659 43.5539,25.0273899 43.41,24.96 C43.261752,24.8954743 43.1313602,24.7959648 43.03,24.67 L43,24.57 L42.72,24.27 C41.6058397,23.2064669 40.4087192,22.2333885 39.14,21.36 C36.9675638,19.8435467 34.5531825,18.7073673 32,18 C31.9102683,17.9901724 31.8197317,17.9901724 31.73,18 C31.1777153,17.928203 30.671797,18.3177153 30.6,18.87 C30.528203,19.4222847 30.9177153,19.928203 31.47,20 C33.7969423,20.6337944 36.0032785,21.6474251 38,23 C39.1828732,23.8020161 40.2937281,24.7054222 41.32,25.7 L41.53,25.93 C41.8357999,26.2834933 42.2144627,26.5666375 42.64,26.76 C43.0425077,26.9403193 43.4789537,27.0323821 43.92,27.03 C44.4273576,27.0292547 44.9274496,26.9093697 45.38,26.68 C45.849187,26.4481717 46.2543555,26.1048085 46.56,25.68 C46.7741365,25.3754676 46.9363332,25.0375579 47.04,24.68 C47.2139732,24.0573436 47.4589128,23.4567384 47.77,22.89 C48.0510402,22.3800842 48.36504,21.8890419 48.71,21.42 C49.0388973,20.9647285 49.2392338,20.4293464 49.29,19.87 L49.29,19.54 L49.53,19.77 C49.9037858,20.1183594 50.3467249,20.3841228 50.83,20.55 L50.83,20.55 C51.037874,20.6240124 51.2284367,20.7397112 51.39,20.89 C51.595675,21.08245 51.7503077,21.3229897 51.84,21.59 C52.0678056,22.2697259 52.4318972,22.8958274 52.91,23.43 L53.79,24.43 L53.28,24.78 C53.228749,24.8114 53.17009,24.8286526 53.11,24.83 L53,24.83 L51.49,24.12 C51.302668,24.0328364 51.1040848,23.9722517 50.9,23.94 L50.58,23.94 C50.0177415,23.9423845 49.4803994,24.1722959 49.0904261,24.5773405 C48.7004529,24.9823852 48.4910726,25.5280551 48.51,26.09 L48.51,26.25 C48.5072236,26.8035521 48.4056293,27.3521614 48.21,27.87 C47.9225321,28.5740955 47.4738359,29.2009002 46.9,29.7 C46.3420343,30.1758889 45.7191075,30.5698481 45.05,30.87 C43.8652271,31.4278 42.9134,32.3831655 42.36,33.57 L42.25,33.79 C42.2048995,33.8953142 42.1746114,34.0063706 42.16,34.12 L41.83,37.39 C41.7416464,37.6335419 41.6976182,37.8909375 41.7,38.15 C41.7035026,38.4518658 41.7506576,38.7516371 41.84,39.04 C41.84,39.24 41.95,39.41 42,39.57 L43.13,42.8 L42.77,42.97 L42.22,43.21 L40.42,38.73 C40.1897066,38.1473168 40.070979,37.5265412 40.07,36.9 C40.069301,36.4985753 40.1197062,36.0986945 40.22,35.71 L40.47,34.71 C40.5013716,34.5857057 40.5181515,34.4581789 40.52,34.33 C40.5179574,34.0196895 40.4240018,33.7169438 40.25,33.46 C40.0822641,33.2114958 39.8460566,33.016972 39.57,32.9 C39.3811015,32.8157643 39.1768237,32.7715041 38.97,32.77 C38.8110303,32.773678 38.653142,32.7971933 38.5,32.84 C37.874426,33.0289272 37.2234036,33.1200029 36.57,33.11 C35.469067,33.0907601 34.3758059,32.9225661 33.32,32.61 C32.3151912,32.3245614 31.3379566,31.9497317 30.4,31.49 C29.99,31.29 29.63,31.09 29.34,30.92 L29.28,30.92 L29.28,30.92 C29.0795892,30.2405053 28.7687735,29.5986033 28.36,29.02 C28.0504993,28.5825617 27.676212,28.1947865 27.25,27.87 C27.0714509,27.7359976 26.8531973,27.6655932 26.63,27.67 C26.2467363,27.7046053 25.917333,27.9560653 25.7829144,28.3166486 C25.6484958,28.6772318 25.7329131,29.0829563 26,29.36 C26.2608115,29.5575466 26.4900946,29.7935733 26.68,30.06 C26.8630554,30.3297495 27.0172365,30.6180013 27.14,30.92 C27.3643601,31.4832737 27.5058329,32.076112 27.56,32.68 C27.56,32.98 27.56,33.26 27.56,33.68 C27.5698919,35.4595223 27.1623129,37.2165642 26.37,38.81 C25.7934916,39.9442797 25.037025,40.9776671 24.13,41.87 C23.8092609,42.1771121 23.5570794,42.5485685 23.39,42.96 C23.2288967,43.3569244 23.1473522,43.7816354 23.15,44.21 C23.1461728,44.8305209 23.3234096,45.4386865 23.66,45.96 L24.89,47.96 C24.9290988,48.0156385 24.9500542,48.0819974 24.95,48.15 C24.9603335,48.1960946 24.9603335,48.2439054 24.95,48.29 L24.87,48.38 L24.77,48.43 L24.72,48.43 C24.6742857,48.4433333 24.6257143,48.4433333 24.58,48.43 L24.5,48.37 L22.69,45.4 C21.8073053,44.0169263 21.8873146,42.2287167 22.89,40.93 C23.4425629,40.1776571 23.8681948,39.3399053 24.15,38.45 C24.3886203,37.7169714 24.5101135,36.9508895 24.51,36.18 C24.5097,35.5424203 24.4290649,34.9074191 24.27,34.29 C24.1310074,33.7598086 23.9118107,33.2539702 23.62,32.79 C23.3437822,32.33969 23.0073379,31.929228 22.62,31.57 C22.3580013,31.3181208 22.1503976,31.0152238 22.01,30.68 C21.8744833,30.361926 21.7901083,30.0244261 21.76,29.68 L21.76,29.68 C21.7365751,29.480329 21.675496,29.2869117 21.58,29.11 C21.488941,28.9418628 21.3667763,28.7925503 21.22,28.67 C20.9399493,28.4351331 20.5854924,28.3075287 20.22,28.31 C19.7447162,28.3084249 19.2964283,28.5307164 19.01,28.91 L15.81,33.09 C14.9117712,34.2169269 13.7876868,35.1434449 12.51,35.81 C11.783846,36.1691303 10.9970403,36.3895716 10.19,36.46 L10.1,36.16 C10.693662,35.859163 11.25636,35.500778 11.78,35.09 C13.4758587,33.7395075 14.6895662,31.8768522 15.24,29.78 C15.34,29.41 15.44,29.06 15.54,28.72 C16.0815053,26.9631517 16.9613498,25.3291549 18.13,23.91 C19.3001473,22.5097562 20.7604782,21.3803881 22.41,20.6 C23.1573829,20.2363328 23.9419587,19.9546902 24.75,19.76 C25.3022847,19.6909644 25.6940356,19.1872847 25.625,18.635 C25.5559644,18.0827153 25.0522847,17.6909644 24.5,17.76 C24.4202901,17.7503652 24.3397099,17.7503652 24.26,17.76 C23.3207711,17.9970165 22.409086,18.3321949 21.54,18.76 C19.6131061,19.6643226 17.9067495,20.9782171 16.54,22.61 C15.1771277,24.2320392 14.1566421,26.1131343 13.54,28.14 L13.54,28.14 C13.43,28.5 13.32,28.88 13.22,29.28 L13.22,29.28 C12.7789572,30.9474085 11.8108496,32.427631 10.46,33.5 C9.12785614,34.5708187 7.46916652,35.1531246 5.76,35.15 L5.15,35.15 C4.70452645,35.1252461 4.29654583,35.3985931 4.15,35.82 C3.99946786,36.267888 4.18297301,36.7600154 4.59,37 C5.03169716,37.3081641 5.50423754,37.5695694 6,37.78 C7.13721019,38.2833243 8.3663915,38.5455042 9.61,38.55 C10.9151222,38.5466302 12.2018545,38.242058 13.37,37.66 C14.91922,36.8558582 16.2820373,35.734941 17.37,34.37 L20,31.05 L20.16,31.48 C20.4112108,32.0728823 20.782315,32.6074086 21.25,33.05 C21.5122124,33.2917932 21.7409066,33.5675715 21.93,33.87 C22.1100024,34.1541917 22.2449329,34.4645321 22.33,34.79 C22.4488187,35.2438028 22.5093061,35.7109005 22.51,36.18 C22.507617,36.7432848 22.4199567,37.3029617 22.25,37.84 C22.0181542,38.5217639 21.6807127,39.1629028 21.25,39.74 C20.4593214,40.7641024 20.0208584,42.0163527 20,43.31 C19.9984823,44.4449537 20.324904,45.5561766 20.94,46.51 L22.75,49.32 C22.9582806,49.6540371 23.2516362,49.9266853 23.6,50.11 C23.9384271,50.2914334 24.3160144,50.3875466 24.7,50.3900001 L24.7,50.3900001 C25.1621731,50.3900001 25.6142029,50.254489 26,50 C26.3186281,49.7784217 26.5792914,49.4834606 26.76,49.14 C26.9191627,48.8058216 27.0011839,48.440144 27,48.07 C26.9994054,47.6170406 26.8711707,47.1734178 26.63,46.79 L25.39,44.79 C25.2642487,44.5929694 25.1982566,44.3637336 25.2,44.13 C25.1989163,43.9657067 25.2294724,43.8027411 25.29,43.65 C25.3549801,43.4959861 25.4501912,43.3565699 25.57,43.24 C26.6409746,42.1947876 27.5298686,40.9780506 28.2,39.64 C29.14561,37.7538637 29.6289168,35.6698176 29.61,33.56 L29.61,33.29 L29.85,33.41 C30.42,33.67 31,33.9 31.57,34.1 C33.1673816,34.7162454 34.8584765,35.0544643 36.57,35.1 C37.0684429,35.103118 37.5664439,35.0696951 38.06,35 L38.3,35 L38.24,35.23 C37.8817302,36.6447569 37.9833045,38.1368487 38.53,39.49 L40.38,44.11 C40.5196122,44.4699046 40.7677476,44.7774528 41.09,44.99 C41.4047447,45.1973747 41.7730829,45.3085711 42.15,45.31 C42.4404754,45.3084189 42.7271202,45.2435826 42.99,45.12 L43.44,44.92 C43.6791969,44.8191587 43.9128603,44.705665 44.14,44.58 C44.3120615,44.4911545 44.4760199,44.3874257 44.63,44.27 C44.733997,44.1992952 44.8310937,44.1189394 44.92,44.03 C45.0558431,43.8839147 45.1642427,43.7145403 45.24,43.53 C45.2914986,43.3889511 45.3185535,43.2401493 45.32,43.09 C45.3203676,42.953588 45.2966712,42.8181803 45.25,42.69 L44,38.92 L43.85,38.46 C43.816828,38.3459779 43.7966992,38.2285603 43.79,38.11 L43.79,38 L43.79,38 C43.8387299,37.8959852 43.8691752,37.7843525 43.88,37.67 L44.2,34.48 L44.2,34.38 C44.5483913,33.6281324 45.1501886,33.0227951 45.9,32.67 C47.1171563,32.1351344 48.1974757,31.3317324 49.06,30.32 C50.0260626,29.1505383 50.5468363,27.6767842 50.53,26.16 L50.53,26 L50.53,26 L50.53,26 L50.64,26 L50.64,26 L52.09,26.67 C52.4018775,26.8195556 52.7441519,26.894856 53.09,26.89 C53.5645617,26.8907594 54.0282343,26.7478227 54.42,26.48 L55,26 C55.2589484,25.8216595 55.4687487,25.5809051 55.61,25.3 C55.7498349,25.0278544 55.8221488,24.7259633 55.82,24.42 C55.8303419,24.1970775 55.8033017,23.973996 55.74,23.76 Z M39.05,34.76 L39.1,34.71 L39.16,34.71 L39.21,35.02 L39.05,34.76 Z"/>
      <polygon id="Path" fill="#3D454C" fill-rule="nonzero" points="24.42 34.25 24.42 34.24 24.42 34.25"/>
      <circle id="Oval" cx="28.07" cy="18.56" r="1" fill="#3D454C" fill-rule="nonzero"/>
    </g>
  </g>
</svg>
