<svg xmlns="http://www.w3.org/2000/svg" width="64" height="64" viewBox="0 0 64 64" style="background:#fff">
  <g id="Käse-(frisch,-0-15%)" fill="none" fill-rule="evenodd" stroke="none" stroke-width="1">
    <rect width="64" height="64" fill="#FFF"/>
    <g id="23-Käse-(frisch,-0-15%)" transform="translate(2 7)">
      <g id="Layer_2" transform="translate(1)">
        <rect id="Rectangle" width="60" height="60" x="0" y="0"/>
      </g>
      <g id="Layer_1">
        <rect id="Rectangle" width="60" height="60" x=".59" y="0"/>
        <path id="Path" fill="#EBE53F" fill-rule="nonzero" d="M48.6,8.52 C45.07,10.14 41.92,14.09 39.26,16.89 C36.6,19.69 33.55,22.8 32,26.38 C31.81,26.81 32,28.03 32.73,27.74 C35.99,26.35 38.73,22.87 41.34,20.49 C44.21,17.82 47.81,15.4 50.11,12.23 C50.85,11.25 50.45,7.67 48.6,8.52 Z" opacity=".5"/>
        <path id="Path" fill="#CCC" fill-rule="nonzero" d="M54.37,30.57 C51.81,24.72 43.65,26.25 38.51,26 C35.66,25.87 34.2,29 34.11,32.33 C32.53,32.6 30.95,32.85 29.35,33.02 C26.2635243,33.4166162 23.1475424,33.5337584 20.04,33.37 C17.55,33.19 15.12,32.48 12.66,32.14 C12.09,31.14 12.11,31.48 13.43,30.91 C15.07,30.2 16.77,29.6 18.43,28.91 C19.9488789,28.3864315 21.4348949,27.7719889 22.88,27.07 C24.3,26.32 25.56,25.17 27.12,24.72 C28.38,24.37 28.22,21.72 27.34,21.08 C24.79,19.19 22.01,21.42 19.34,22.21 C16.14,23.15 12.34,23.73 9.6,25.81 C5.91,28.61 6.23,35.09 9.6,37.71 C9.63421068,37.7585452 9.6709271,37.8052752 9.71,37.85 C18.98,48.09 36.96,45.7 48.71,43.05 C54.19,41.88 56.69,35.84 54.37,30.57 Z" opacity=".3"/>
        <path id="Shape" fill="#3D454C" fill-rule="nonzero" d="M56.08,32.71 C56.08,30.57 54.75,28.98 52.32,28.2 C50.928256,26.1357052 48.2097657,25.4431784 46,26.59 C45.0776266,25.4270207 43.6743493,24.7493225 42.19,24.75 C41.6377153,24.75 41.19,25.1977153 41.19,25.75 C41.19,26.3022847 41.6377153,26.75 42.19,26.75 C43.3131605,26.7531574 44.3320191,27.4089744 44.8,28.43 C44.9325242,28.7168941 45.192863,28.9242618 45.5021287,28.9892666 C45.8113944,29.0542715 46.133188,28.9692629 46.37,28.76 C47.0256537,28.1771325 47.9112237,27.9248872 48.7755994,28.0747902 C49.6399752,28.2246932 50.3888962,28.7603976 50.81,29.53 C50.9404095,29.765607 51.1603311,29.9386601 51.42,30.01 C54.1,30.74 54.1,32.22 54.1,32.71 L54.1,32.71 C54.1,34.33 46.79,36.71 31.1,36.71 C13.29,36.71 8.27,34.25 8.1,32.78 C8.1,30.56 9.66,28.78 11.54,28.78 C11.7163363,28.7647218 11.8936637,28.7647218 12.07,28.78 C12.5406661,28.865421 13.0059139,28.6055529 13.18,28.16 C13.5970813,26.7337996 15.0716757,25.8968676 16.51,26.27 C16.9572846,26.4133943 17.4440839,26.2261638 17.68,25.82 C18.5724607,24.0569198 20.7192764,23.3428023 22.49,24.22 C22.7227519,24.3462309 22.9960659,24.3750008 23.25,24.3 C23.5077105,24.2239128 23.7239564,24.047312 23.85,23.81 C24.2929617,22.8592196 25.2317571,22.2372193 26.28,22.2 C27.2063647,22.22634 28.0550359,22.7242271 28.53,23.52 C28.6767316,23.7420203 28.9059089,23.8963952 29.1667947,23.9489477 C29.4276805,24.0015002 29.6987531,23.9478952 29.92,23.8 C30.376275,23.4948175 30.5012473,22.8788827 30.2,22.42 C29.4103118,21.1035824 28.0124447,20.2715886 26.4787722,20.2051697 C24.9450997,20.1387508 23.4805386,20.8467812 22.58,22.09 C22.0365782,21.9016733 21.4651218,21.8069942 20.89,21.81 C19.086283,21.8332593 17.4025108,22.7178901 16.36,24.19 C14.4153576,23.9789128 12.542014,24.989166 11.65,26.73 C8.65,26.66 6.2,29.31 6.1,32.62 L6.1,32.62 C6.09693912,32.6566028 6.09693912,32.6933972 6.1,32.73 C6.1,32.73 6.1,32.73 6.1,32.79 L6.1,32.79 C6.17,34.73 7.31,49 23.56,53.08 L23.77,53.28 C24.0687006,53.636309 24.4704491,53.8913319 24.92,54.01 C26.9499552,54.3995603 29.0130298,54.5904617 31.08,54.58 C33.3239365,54.5901807 35.5627836,54.3656257 37.76,53.91 C38.2094151,53.7792039 38.6119586,53.5224089 38.92,53.17 C39,53.08 39.13,52.94 39.09,52.96 C55.89,48.42 56.08,32.87 56.08,32.71 Z M38.57,51 C38.1825368,51.1444477 37.8383443,51.3853824 37.57,51.7 C37.4886144,51.7855382 37.4017653,51.8657065 37.31,51.94 C33.3947057,52.7183016 29.3678514,52.7522262 25.44,52.04 C25.3650857,51.9750931 25.2949069,51.9049143 25.23,51.83 C24.9456244,51.5060713 24.5795752,51.2643407 24.17,51.13 C12.73,48.36 9.43,40.32 8.47,35.83 C12.0433333,37.75 19.58,38.7166667 31.08,38.73 C36.9,38.73 48.69,38.38 53.72,35.73 C52.81,40.08 49.64,48 38.57,51 Z"/>
        <path id="Shape" fill="#3D454C" fill-rule="nonzero" d="M23.4,27.48 C22.2325511,28.6394411 21.3019168,30.0150137 20.66,31.53 L20.66,31.53 C19.6268605,31.68111 18.6937591,32.2302043 18.06,33.06 C17.9008701,33.2721732 17.8325432,33.5388704 17.8700505,33.8014214 C17.9075578,34.0639723 18.0478268,34.3008701 18.26,34.46 C18.7018278,34.7913708 19.3286292,34.7018278 19.66,34.26 C19.9890724,33.8416518 20.4713291,33.571732 21,33.51 C21.2411136,33.4867327 21.4844169,33.5036288 21.72,33.56 C22.1511431,33.6708212 22.6036296,33.4833043 22.83,33.1 C23.1580942,32.5592102 23.7292305,32.2123284 24.3603813,32.1705172 C24.991532,32.1287059 25.6034356,32.397216 26,32.89 C26.315005,33.2880341 26.8782467,33.3869238 27.31,33.12 C27.651598,32.9123553 28.0333118,32.7794371 28.43,32.73 C29.3366341,32.6240019 30.2365195,32.976457 30.83,33.67 C31.1006997,34.0316346 31.5802301,34.1668868 32,34 C32.8922508,33.6135536 33.9322747,33.9631051 34.41,34.81 C34.5900643,35.1136995 34.9169327,35.3 35.27,35.3 C35.4494833,35.3 35.6256443,35.2515893 35.78,35.16 C36.2548931,34.878281 36.4115765,34.2649776 36.13,33.79 C35.6761145,33.0146113 34.9702485,32.4181545 34.13,32.1 C34.3321913,31.1380956 34.2699876,30.1393811 33.95,29.21 C33.8832291,28.9889642 33.953927,28.7493769 34.13,28.6 L50.33,14.53 C51.17018,13.8354893 51.6784995,12.8188504 51.73,11.73 C51.7891712,10.6416399 51.3818222,9.5796229 50.61,8.81 C49.8306437,8.05221473 48.7764423,7.64425321 47.69,7.68 C46.6066485,7.7057728 45.5837317,8.18458495 44.87,9 L30.87,25.19 C30.6978093,25.3781056 30.4280014,25.4415898 30.19,25.35 C28,24.55 25.58,25.3 23.4,27.48 Z M32.33,26.53 L46.4,10.32 C46.7323423,9.91448852 47.2203953,9.66807511 47.7440176,9.64141797 C48.26764,9.61476083 48.7781942,9.81033606 49.15,10.18 C49.5238357,10.5514958 49.7235517,11.0634949 49.7,11.59 C49.6815025,12.1391016 49.4262199,12.6533137 49,13 L32.78,27.05 C31.9779757,27.7355824 31.6698055,28.8378834 32,29.84 C32.2213914,30.4853324 32.2423081,31.1825566 32.06,31.84 C32.0067724,31.8352499 31.9532276,31.8352499 31.9,31.84 C30.890902,30.9462272 29.5489887,30.5243791 28.21,30.68 C27.7986914,30.7331658 27.3955953,30.8372989 27.01,30.99 C26.1798771,30.2842407 25.0906998,29.9611181 24.01,30.1 C23.89,30.1 23.77,30.15 23.66,30.17 C24.0004221,29.6939857 24.3782881,29.2458968 24.79,28.83 C25.71,27.91 27.53,26.47 29.4,27.19 C30.4183523,27.6071852 31.5888712,27.3435188 32.33,26.53 Z"/>
        <path id="Path" fill="#3D454C" fill-rule="nonzero" d="M39.87 33.18C40.4222847 33.18 40.87 32.7322847 40.87 32.18 40.87 31.6277153 40.4222847 31.18 39.87 31.18 39.3177153 31.18 38.87 31.6277153 38.87 32.18 38.87 32.7322847 39.3177153 33.18 39.87 33.18zM47.87 31.58C47.3177153 31.58 46.87 32.0277153 46.87 32.58 46.87 33.1322847 47.3177153 33.58 47.87 33.58 48.4222847 33.58 48.87 33.1322847 48.87 32.58 48.87 32.0277153 48.4222847 31.58 47.87 31.58zM13.21 30.78C12.6577153 30.78 12.21 31.2277153 12.21 31.78 12.21 32.3322847 12.6577153 32.78 13.21 32.78 13.7622847 32.78 14.21 32.3322847 14.21 31.78 14.21 31.2277153 13.7622847 30.78 13.21 30.78z"/>
      </g>
    </g>
  </g>
</svg>
