<svg xmlns="http://www.w3.org/2000/svg" width="64" height="64" viewBox="0 0 64 64" style="background:#fff">
  <g id="Käse-(hart,-mehr-als-30%)" fill="none" fill-rule="evenodd" stroke="none" stroke-width="1">
    <rect width="64" height="64" fill="#FFF"/>
    <g transform="translate(2 10)">
      <g id="Layer_2">
        <rect id="Rectangle" width="60" height="60" x="0" y="0"/>
      </g>
      <g id="Layer_1" fill-rule="nonzero" transform="translate(2 15)">
        <path id="Path" fill="#EBE53F" d="M51.23,12 C45.66,9.62 39.92,7.56 34.13,5.7 C28.93,4.02 23.13,1.31 17.62,0.87 C13,0.55 9.37,3 7.13,6.73 C7.13190238,6.75329456 7.13190238,6.77670544 7.13,6.8 C6.52885542,7.0227298 6.05195127,7.49235297 5.82,8.09 C2.89,13.94 2,20.64 0.64,27 C0.14,29.36 1.19,33 4.11,33.27 C18.83,34.67 34.01,34.53 48.6,36.74 C50.11,36.97 51.43,35.05 51.79,33.93 C53.4312396,28.7268078 54.3169421,23.3149295 54.42,17.86 C54.5,15.68 53.38,13 51.23,12 Z" opacity=".5"/>
        <path id="Shape" fill="#3D454C" d="M53.13,14.57 L53.13,12.11 C53.13,12.11 53.13,12.11 53.13,12.11 C53.135411,12.050122 53.135411,11.989878 53.13,11.93 C53.0964279,11.848212 53.0527554,11.7709453 53,11.7 C52.9796392,11.647797 52.9490385,11.6001959 52.91,11.56 C52.8760207,11.4993145 52.835803,11.4423394 52.79,11.39 L52.66,11.3 C52.6026622,11.2538362 52.5385841,11.2167384 52.47,11.19 C52.47,11.19 52.47,11.19 52.41,11.19 L35,5.35 C34.7382746,5.26344811 34.4524288,5.28877622 34.21,5.42 C34.0645713,5.49855734 33.940883,5.61193829 33.85,5.75 C33.0624355,5.90101375 32.2483101,5.82826212 31.5,5.54 C31.5140277,5.46842976 31.5340996,5.39817805 31.56,5.33 C31.6648923,5.07079231 31.6564642,4.7795071 31.5367598,4.52679797 C31.4170555,4.27408885 31.197011,4.08304295 30.93,4 L20,0.36 C19.7530105,0.278499184 19.483985,0.296434216 19.25,0.41 L3.7,7.88 C3.64977411,7.90406469 3.60274469,7.93429789 3.56,7.97 C3.56,7.97 3.48,7.97 3.45,8.04 L3.45,8.04 C3.39773287,8.09673443 3.35394627,8.16073024 3.32,8.23 C3.28650758,8.27432691 3.25642149,8.3211275 3.23,8.37 C3.22519567,8.44992787 3.22519567,8.53007213 3.23,8.61 C3.23,8.61 3.23,8.69 3.23,8.74 L3.23,33.29 C3.23,33.8422847 3.67771525,34.29 4.23,34.29 L15.77,34.29 C16.3222847,34.29 16.77,33.8422847 16.77,33.29 C16.88,33.08 17.94,32.56 19.88,32.56 C20.9604343,32.4542 22.0464413,32.6959242 22.98,33.25 C22.98,33.8022847 23.4277153,34.25 23.98,34.25 L43.88,34.25 C44.339171,34.2682755 44.7516939,33.9712591 44.88,33.53 C45.6790478,33.290094 46.5309522,33.290094 47.33,33.53 C47.4583061,33.9712591 47.870829,34.2682755 48.33,34.25 L52.21,34.25 C52.7622847,34.25 53.2100265,33.8022847 53.2100265,33.25 L53.2100265,20.91 C53.2136739,20.4013743 52.8349651,19.9710234 52.33,19.91 C51.9899948,19.2396967 51.837942,18.4898 51.89,17.74 C51.8400841,16.9871276 51.991976,16.2345726 52.33,15.56 C52.7993713,15.4642159 53.1348831,15.04902 53.13,14.57 Z M51.13,13.89 C50.3,14.47 49.81,15.84 49.81,17.74 C49.81,19.64 50.3,21.01 51.13,21.59 L51.13,32.29 L48.88,32.29 C48.1068474,31.6165302 47.0905542,31.291027 46.07,31.39 C45.0494458,31.291027 44.0331526,31.6165302 43.26,32.29 L24.68,32.29 C24.02,31.29 22.28,30.6 19.87,30.6 C17.46,30.6 15.71,31.24 15.05,32.29 L5.13,32.29 L5.13,9.85 L18.22,10.75 C18.5772656,10.7750086 18.9207345,10.6075186 19.1210254,10.3106218 C19.3213163,10.013725 19.3480001,9.63252715 19.1910254,9.31062178 C19.0340507,8.98871641 18.7172656,8.77500859 18.36,8.75 L8,8 L19.75,2.35 L29.5,5.59 L29.5,5.69 C29.5,6.75 30.5,7.5 32.19,7.69 C33.1253686,7.8654289 34.0920249,7.75026768 34.96,7.36 L44.34,10.48 L26.34,9.23 C26.0746302,9.21077066 25.8125379,9.29808743 25.611723,9.47262753 C25.410908,9.64716763 25.2879288,9.89453918 25.27,10.16 C25.2507707,10.4253698 25.3380874,10.6874621 25.5126275,10.888277 C25.6871676,11.089092 25.9345392,11.2120712 26.2,11.23 L51.2,12.96 L51.13,13.89 Z"/>
        <circle id="Oval" cx="22.3" cy="10.08" r="1" fill="#3D454C"/>
      </g>
    </g>
  </g>
</svg>
