<svg xmlns="http://www.w3.org/2000/svg" width="64" height="64" viewBox="0 0 64 64" style="background:#fff">
  <g id="Kaffee" fill="none" fill-rule="evenodd" stroke="none" stroke-width="1">
    <rect width="64" height="64" fill="#FFF"/>
    <g transform="translate(2 5)">
      <g id="Layer_2">
        <rect id="Rectangle" width="60" height="60" x="0" y=".32"/>
      </g>
      <g id="Layer_1" fill-rule="nonzero" transform="translate(6 4)">
        <path id="Path" fill="#C17953" d="M18.2,45.16 C19.52,47.65 23.02,45.45 24.43,44.16 C26.7333555,42.0705739 28.3303508,39.3168928 29,36.28 C29.31,34.68 29.34,31.96 27.53,31.12 C27.0851198,30.8657572 26.5504227,30.8218094 26.07,31 C24.63,31.52 23.89,33.36 23.81,34.78 C23.6617063,37.0636838 22.5759743,39.1844803 20.81,40.64 C19.78,41.59 17.31,43.47 18.2,45.16 Z" opacity=".5"/>
        <path id="Path" fill="#3D454C" d="M21.27 14.4100058C20.9725678 14.410483 20.6903565 14.2785401 20.5 14.05 18.7766583 11.921794 18.7766583 8.87820596 20.5 6.75 21.6388509 5.57279857 21.6694653 3.71406782 20.57 2.5 20.2350353 2.09851186 20.2659141 1.5067542 20.6408464 1.14230958 21.0157786.777864955 21.608174.763782628 22 1.11 23.785891 3.05948887 23.785891 6.05051113 22 8 20.8724026 9.39383398 20.8724026 11.386166 22 12.78 22.2433413 13.0799599 22.2921765 13.4932418 22.1254501 13.8416571 21.9587238 14.1900725 21.6062502 14.411317 21.22 14.4100058L21.27 14.4100058zM27.2 15.55C26.8974116 15.5510289 26.6106301 15.4149915 26.42 15.18 25.2270115 13.7268166 25.2270115 11.6331834 26.42 10.18 27.0022399 9.61434014 27.0288296 8.68813075 26.48 8.09 26.1468065 7.68620686 26.1814368 7.09377797 26.5594077 6.73155587 26.9373786 6.36933378 27.5307443 6.35993308 27.92 6.71 29.1939823 8.03276675 29.2289088 10.115256 28 11.48 27.422221 12.1869665 27.422221 13.2030335 28 13.91 28.1689076 14.1153395 28.2490865 14.3794913 28.2228159 14.6440739 28.1965453 14.9086565 28.0659883 15.1518842 27.86 15.32 27.6748256 15.4735557 27.4405031 15.5552136 27.2 15.55L27.2 15.55zM15 15.54C14.7025678 15.540483 14.4203565 15.4085401 14.23 15.18 13.0370115 13.7268166 13.0370115 11.6331834 14.23 10.18 14.8122399 9.61434014 14.8388296 8.68813075 14.29 8.09 13.9568065 7.68620686 13.9914368 7.09377797 14.3694077 6.73155587 14.7473786 6.36933378 15.3407443 6.35993308 15.73 6.71 16.9736769 8.032501 16.9997303 10.0863775 15.79 11.44 15.2364038 12.1591319 15.2364038 13.1608681 15.79 13.88 16.0543617 14.1802906 16.114301 14.6092457 15.9423789 14.9704996 15.7704569 15.3317535 15.3997661 15.5557702 15 15.54z"/>
        <path id="Path" fill="#C17953" d="M24.53,29.3 C22.76,26.67 19.09,29.52 17.66,31.12 C15.3396786,33.7146495 13.8886545,36.9698385 13.51,40.43 C13.34,42.25 13.62,45.29 15.75,46.01 C16.2601009,46.2326263 16.8398991,46.2326263 17.35,46.01 C18.9,45.27 19.52,43.12 19.44,41.54 C19.31,38.74 20.36,36.76 22.17,34.66 C23.17,33.45 25.72,31.08 24.53,29.3 Z" opacity=".5"/>
        <path id="Shape" fill="#3D454C" d="M46.83,30.8 C45.5832048,28.9307455 43.4869041,27.8057182 41.24,27.8 L41.09,27.8 C41.178895,26.076647 41.1488236,24.3492148 41,22.63 C41,22.58 41,22.54 41,22.49 C41.0047474,22.4200805 41.0047474,22.3499195 41,22.28 C41,21.11 39.92,20.28 34.42,19.64 C29.8188161,19.1694234 25.1949733,18.9557585 20.57,19 C15.9342895,18.9684492 11.300427,19.1954684 6.69,19.68 C1.19,20.34 0.11,21.15 0.11,22.32 C0.104312455,22.3832056 0.104312455,22.4467944 0.11,22.51 C0.105369331,22.5532096 0.105369331,22.5967904 0.11,22.64 C-0.16,25.9 -0.3,34.3 4.19,41.86 C4.66940465,42.6598699 5.19010874,43.4342504 5.75,44.18 C8.93637511,48.5826582 13.9341999,51.3184256 19.36,51.63 L20.78,51.63 L22,51.63 C27.94,51.36 33.52,47.79 36.91,42.09 C37.14,41.71 37.37,41.32 37.57,40.92 C38.7560364,38.6789926 39.6531884,36.2966675 40.24,33.83 L40.89,33.83 C41.3155551,33.8256102 41.7158928,34.0313912 41.96,34.38 C42.1085483,34.5935353 42.1823752,34.8501716 42.17,35.11 L42.08,37.91 C42.0666821,38.3923752 41.7680199,38.8207197 41.32,39 L40.79,39.25 C40.610849,39.334649 40.4176115,39.3855009 40.22,39.4 C39.6677153,39.4 39.22,39.8477153 39.22,40.4 C39.22,40.9522847 39.6677153,41.4 40.22,41.4 C40.7134907,41.3707585 41.1946689,41.234254 41.63,41 L42.16,40.76 C43.2777433,40.2538199 44.010659,39.1563852 44.05,37.93 L44.14,35.14 C44.1706231,34.4479885 43.9700872,33.7654626 43.57,33.2 C42.9528547,32.3136818 41.9400081,31.7867026 40.86,31.79 L40.63,31.79 C40.75,31.12 40.84,30.47 40.91,29.79 L41.24,29.79 C42.8186508,29.7902146 44.2944963,30.573087 45.18,31.88 C45.7572532,32.7224675 46.0450435,33.7297334 46,34.75 L45.88,38.4 C45.8345709,40.187489 44.7809015,41.7951097 43.16,42.55 C41.5123783,43.2283198 39.7736267,43.659638 38,43.83 C37.4477153,43.83 37,44.2777153 37,44.83 C37,45.3822847 37.4477153,45.83 38,45.83 C40.0650215,45.6595713 42.0900651,45.1634356 44,44.36 C46.3017849,43.2832501 47.7993121,41.0001982 47.87,38.46 L48,34.81 C48.0465914,33.382894 47.6367237,31.9781338 46.83,30.8 Z M35.78,40 C35.58,40.37 35.38,40.72 35.17,41.07 C32.11,46.2 27.17,49.41 21.92,49.64 L21.55,49.64 C20.88,49.64 20.18,49.64 19.48,49.64 C14.645076,49.3603259 10.1933087,46.9177309 7.36,42.99 C6.84014103,42.3043121 6.35937726,41.5898438 5.92,40.85 C3.10076578,35.8084301 1.74325834,30.0805799 2,24.31 C3.64446402,24.6905009 5.31627006,24.9412718 7,25.06 C7.54944011,25.1121958 8.0372823,24.7093903 8.09,24.16 C8.14219575,23.6105599 7.73939027,23.1227177 7.19,23.07 C5.65887608,22.9592687 4.13805214,22.7353232 2.64,22.4 C4.8,21.72 11.25,21 20.57,21 C29.89,21 36.38,21.76 38.51,22.45 C36.29,23.01 29.84,23.64 20.57,23.64 C18.45,23.64 16.68,23.64 14.85,23.56 L14.85,23.56 C14.2977153,23.56 13.85,24.0077153 13.85,24.56 C13.85,25.1122847 14.2977153,25.56 14.85,25.56 C16.7,25.62 18.48,25.65 20.63,25.65 C25.35,25.65 35.08,25.65 39.19,24.31 C39.4509879,29.748714 38.2748707,35.160233 35.78,40 Z"/>
        <path id="Path" fill="#3D454C" d="M11,23.48 C10.4477153,23.48 10,23.9277153 10,24.48 C10,25.0322847 10.4477153,25.48 11,25.48 C11.5522847,25.48 12,25.0322847 12,24.48 C12,23.9277153 11.5522847,23.48 11,23.48 Z"/>
        <path id="Shape" fill="#3D454C" d="M27.66,29.62 C27.66,29.62 27.66,29.62 27.66,29.54 C27.43,28.54 26.33,28.29 23.89,27.91 C19.81,27.28 15.83,30.91 13.89,34.47 C11.7,38.47 11.79,42.47 14.14,45.1 C14.6137736,45.6948984 15.2656044,46.1224433 16,46.32 C16.46,46.95 17.47,47.11 19,47.16 L19.19,47.16 C22.4,47.16 25.96,44.7 28.31,40.83 C30.43,37.32 30.88,33.83 29.52,31.35 C29.1300598,30.5670416 28.4691115,29.9522887 27.66,29.62 Z M15.66,35.42 C17.45,32.13 20.52,29.84 23.02,29.84 C23.2165324,29.8297246 23.4134676,29.8297246 23.61,29.84 C24.18,29.93 24.61,30.01 24.95,30.08 L24.95,30.08 L23.95,30.78 C20.33,33.49 19.48,36.46 18.66,39.32 C18.2992202,40.7851138 17.7724816,42.2042886 17.09,43.55 C16.9582237,43.704302 16.8180094,43.8511933 16.67,43.99 L16.35,44.31 C16.0643713,44.1768773 15.8142417,43.9781443 15.62,43.73 C13.84,41.8 13.85,38.68 15.62,35.42 L15.66,35.42 Z M26.66,39.79 C24.71,43.02 21.75,45.16 19.26,45.16 L19,45.16 L18.43,45.16 C18.5468145,44.9965824 18.6536748,44.8262737 18.75,44.65 C19.5280603,43.1572481 20.122391,41.575724 20.52,39.94 C21.32,37.16 22.01,34.76 25.09,32.45 C25.42,32.2 25.73,31.99 26.01,31.79 L26.01,31.79 C26.2415117,31.5875653 26.5429078,31.4835119 26.85,31.5 C27.11,31.56 27.42,31.87 27.7,32.37 C28.75,34.09 28.29,37 26.57,39.79 L26.66,39.79 Z"/>
      </g>
    </g>
  </g>
</svg>
