<svg xmlns="http://www.w3.org/2000/svg" width="64" height="64" viewBox="0 0 64 64" style="background:#fff">
  <g id="Kaffeesahne" fill="none" fill-rule="evenodd" stroke="none" stroke-width="1">
    <rect width="64" height="64" fill="#FFF"/>
    <g fill-rule="nonzero" transform="translate(7 16)">
      <path id="Path" fill="#C17953" d="M47.7,12.12 C45.08,0.68 25.93,0.52 25.7,0.57 C18.23,2.68 13.7,4.35 11.1,8.99 C9.3,12.24 8.62,15.69 7.65,19.23 C6.57,23.23 3.7,24.23 1.91,27.63 C0.58,30.26 0.15,35.28 3,37.29 L3.91,37.93 C4.94855961,38.8380626 6.40776824,39.0889847 7.69,38.58 C13.97,35.28 15.69,28.52 16.84,22.03 C17.1755891,19.0571336 18.2821356,16.2235472 20.05,13.81 C21.16,12.38 26.05,6.58 27.7,8.65 C29.35,10.72 32.85,15.22 34.36,16.78 C34.36,16.78 35.01,19.57 34.7,19.78 C31.16,22 29.7,31.89 35.11,31.78 C45,31.48 49.52,20.09 47.7,12.12 Z" opacity=".5"/>
      <path id="Shape" fill="#3D454C" d="M49.43,17 C49.43,7.61 40.05,0 28.53,0 C17.01,0 7.62,7.58 7.62,17 C7.62512084,17.6696489 7.67859324,18.3380539 7.78,19 C7.28506951,22.5001443 5.99173063,25.839559 4,28.76 L3.51,29.52 C2.84956202,30.4551622 2.29610206,31.461453 1.86,32.52 C1.17437396,34.0908658 1.28600734,35.8956055 2.16,37.37 C3.07285738,38.6661028 4.57540334,39.4173758 6.16,39.37 C6.70968483,39.3710194 7.25619491,39.2866814 7.78,39.12 C8.79412174,38.7534635 9.74793746,38.2377963 10.61,37.59 L10.98,37.34 C11.79,36.8 12.63,36.34 13.49,35.85 C13.6152158,36.2425753 13.7655254,36.6266999 13.94,37 C16.76,42.47 21.54,45.12 28.53,45.12 C34.63,45.12 40.71,44.12 43.83,36.94 C44.64,35.08 45.18,30.47 45.49,26.94 C47.984619,24.2261878 49.3878977,20.6859365 49.43,17 Z M9.83,35.63 L9.45,35.89 C8.74185541,36.4172193 7.96457481,36.8445554 7.14,37.16 C5.95362216,37.5969259 4.62075371,37.2264609 3.83,36.24 C3.34059414,35.3076602 3.3037675,34.202861 3.73,33.24 C4.12224561,32.3287374 4.60819248,31.4607357 5.18,30.65 L5.69,29.87 C7.86866531,26.6708611 9.26926733,23.0066945 9.78,19.17 C9.78478859,19.126799 9.78478859,19.083201 9.78,19.04 C9.78,18.99 9.78,18.95 9.78,18.91 C9.67970464,18.2816453 9.62954648,17.6463086 9.63,17.01 C9.63,8.72 18.11,2.01 28.54,2.01 C38.97,2.01 47.44,8.76 47.44,17.01 C47.44,25.26 39,32 28.53,32 C26.776956,32.0048994 25.029047,31.8103145 23.32,31.42 L23.27,31.42 C23.0909532,31.3363739 22.9073277,31.2629237 22.72,31.2 C21.3657056,30.9221258 19.9610504,31.0224584 18.66,31.49 C16.9154405,32.009078 15.2191047,32.678244 13.59,33.49 C13.534597,33.5161623 13.4811283,33.5462384 13.43,33.58 C12.1860043,34.1830045 10.9833657,34.8678403 9.83,35.63 L9.83,35.63 Z M28.53,43.09 C22.36,43.09 18.16,40.79 15.71,36.09 C15.5293741,35.7193673 15.3788877,35.3347911 15.26,34.94 C16.5569646,34.3534453 17.8935996,33.8588904 19.26,33.46 C19.9087533,33.2542445 20.5805741,33.1299577 21.26,33.09 C21.26,34.46 21.26,35.81 21.26,37.18 C21.26,37.7322847 21.7077153,38.18 22.26,38.18 C22.8122847,38.18 23.26,37.7322847 23.26,37.18 C23.26,35.95 23.26,34.72 23.26,33.49 C24.9884999,33.8627536 26.7517644,34.0504775 28.52,34.05 L28.52,39.2 C28.52,39.7522847 28.9677153,40.2 29.52,40.2 C30.0722847,40.2 30.52,39.7522847 30.52,39.2 L30.52,33.93 C32.3009543,33.7870629 34.0612057,33.451777 35.77,32.93 C35.77,34.32 35.77,35.72 35.77,37.12 C35.77,37.6722847 36.2177153,38.12 36.77,38.12 C37.3222847,38.12 37.77,37.6722847 37.77,37.12 C37.77,35.48 37.77,33.85 37.77,32.22 C39.7545121,31.4287091 41.6086151,30.3432161 43.27,29 C43.1205824,31.4108435 42.6944505,33.7965112 42,36.11 C39.47,41.93 35,43.09 28.53,43.09 Z"/>
      <path id="Path" fill="#3D454C" d="M16 30.62C16.1620229 30.7204492 16.349382 30.7724934 16.54 30.77 16.9810335 30.7645016 17.3663814 30.4707029 17.4884644 30.0468675 17.6105475 29.623032 17.4405312 29.1692643 17.07 28.93 14.912474 27.5868196 13.0950599 25.7625603 11.76 23.6 11.478281 23.1251069 10.8649776 22.9684235 10.39 23.25 9.91510687 23.531719 9.75842352 24.1450224 10.04 24.62 11.5353104 27.0544852 13.5755712 29.108439 16 30.62L16 30.62zM27.81 25C30.2640765 25.3850601 32.7482352 24.5182313 34.43 22.69 36.66 20.18 35.59 16.62 33.94 14.09 33.23 13.02 31.5 14.02 32.21 15.09 33.36 16.86 34.48 19.5 32.91 21.34 31.7526659 22.6097825 30.0576289 23.2491386 28.35 23.06 20.87 22 23.7 13.1 28 9.91 29 9.15 28 7.41 27 8.18 21.16 12.52 18.61 23.28 27.81 25z"/>
      <path id="Path" fill="#3D454C" d="M30.61,12.65 C31.1622847,12.65 31.61,12.2022847 31.61,11.65 C31.61,11.0977153 31.1622847,10.65 30.61,10.65 C30.0577153,10.65 29.61,11.0977153 29.61,11.65 C29.61,12.2022847 30.0577153,12.65 30.61,12.65 Z"/>
    </g>
  </g>
</svg>
