<svg xmlns="http://www.w3.org/2000/svg" width="64" height="64" viewBox="0 0 64 64" style="background:#fff">
  <g id="Kakaobutter" fill="none" fill-rule="evenodd" stroke="none" stroke-width="1">
    <rect width="64" height="64" fill="#FFF"/>
    <g transform="translate(2 7)">
      <rect id="Rectangle" width="60" height="60" x="0" y="0"/>
      <path id="Path" fill="#C17953" fill-rule="nonzero" d="M29 9.18C25.63 8.26 24 12.25 24.26 15.77 24.0247981 18.0240673 24.5530077 20.2918475 25.76 22.21 26.95 24.15 29.41 25.73 30.04 27.72 30.4510968 29.1410475 31.6875655 30.1674751 33.16 30.31 34.77 30.31 35.56 28.83 36.16 27.57 39.15 21.05 36.46 11.22 29 9.18zM12.73 10.93C12.1111978 10.5727344 11.3488022 10.5727344 10.73 10.93 7.16 11.54 5.85 16.09 6.51 19.21 7 21.49 8.54 23 10 24.76 11.71 26.76 13.48 28.76 15.1 30.85 16.85 33.1 19.56 32.39 20.38 29.68 22.5278818 22.4100952 19.3505036 14.6224036 12.73 10.93zM49.37 12.46C48.48 11.15 47.17 10.16 45.73 11.08 40 14.71 37 22.78 40.12 29.1 41.12 31.16 43.56 32.51 45.06 29.94 47.63 25.57 51.2 20.29 51 15 51 14.35 50.39 12.43 49.37 12.46z" opacity=".5"/>
      <path id="Path" fill="#EBE53F" fill-rule="nonzero" d="M44.75,35.47 C40.19,34.47 34.26,35.95 29.62,36.26 L13.1,37.38 C10.6,36.8 8.91,40.5 8.91,43.88 C7.64,48.66 9.78,54.13 15.39,54.51 C20.47,54.85 25.81,54.32 30.9,54.1 C35.33,53.92 40.47,54.2 44.49,51.99 C50.07,48.91 52.92,37.25 44.75,35.47 Z" opacity=".5"/>
      <circle id="Oval" cx="20.41" cy="44.08" r="1" fill="#3D454C" fill-rule="nonzero"/>
      <path id="Shape" fill="#3D454C" fill-rule="nonzero" d="M50,39.2 C50.0298053,38.9586563 49.9953075,38.7137221 49.9,38.49 C49.58,37.73 48.67,37.34 47.21,37.34 L17.93,37.34 C16.2444033,37.3200393 14.5886163,37.7851871 13.16,38.68 C12.3,39.36 11.56,39.96 10.98,40.47 C10.56,40.84 10.15,41.23 9.77,41.59 C9.35373187,41.9445499 9.10077766,42.4540719 9.07,43 C9.07,43 9.07,43 9.07,43 L9.07,51.41 C9.04872327,51.9410141 9.25199362,52.4564496 9.63,52.83 C10.5341094,53.5808135 11.7000044,53.9406577 12.87,53.83 L39.11,53.83 C41.7321089,53.8402039 44.2740821,52.9267929 46.29,51.25 C46.78,50.76 47.29,50.25 47.67,49.8 C48.31,49.08 49.73,47.45 49.73,47.45 C49.8871606,47.2662499 49.9724223,47.0317802 49.97,46.79 L49.97,39.26 C49.97,39.26 50,39.22 50,39.2 Z M46.22,48.5 C45.83,48.93 45.37,49.41 44.91,49.88 C43.2689277,51.1743183 41.2400662,51.8787841 39.15,51.88 L12.87,51.88 C11.58,51.88 11.11,51.56 11.06,51.48 L11.06,44.93 C11.6553307,45.0534442 12.2620174,45.1137777 12.87,45.11 L16.24,45.11 C16.7922847,45.11 17.24,44.6622847 17.24,44.11 C17.24,43.5577153 16.7922847,43.11 16.24,43.11 L12.87,43.11 C12.3303091,43.123845 11.7914391,43.0598542 11.27,42.92 L12.27,41.98 C12.82,41.49 13.53,40.91 14.36,40.26 C15.4376122,39.6450218 16.6593186,39.3275162 17.9,39.34 L47.46,39.34 C47.03,39.77 46.62,40.15 46.26,40.46 C45.9,40.77 45.43,41.17 44.97,41.53 C43.1953912,42.5842503 41.1639572,43.127581 39.1,43.1 L24.43,43.18 C23.8777153,43.18 23.43,43.6277153 23.43,44.18 C23.43,44.7322847 23.8777153,45.18 24.43,45.18 L24.43,45.18 L39.1,45.1 C41.6067378,45.1308987 44.0689434,44.4363414 46.19,43.1 C46.68,42.72 47.19,42.32 47.57,41.97 C47.7,41.86 47.83,41.73 47.96,41.61 L47.96,46.44 L46.22,48.5 Z"/>
      <path id="Path" fill="#3D454C" fill-rule="nonzero" d="M46,24.52 C46.9461734,23.5399626 47.7203553,22.4074257 48.29,21.17 C48.6115308,20.4148567 48.8496096,19.6268496 49,18.82 C49.0607352,18.4627344 48.9262578,18.1002056 48.6472243,17.8689746 C48.3681908,17.6377436 47.986993,17.57294 47.6472243,17.6989746 C47.3074557,17.8250092 47.0607352,18.1227344 47,18.48 C46.8714084,19.1433965 46.6701972,19.790626 46.4,20.41 C45.9329645,21.4117594 45.3008194,22.3278627 44.53,23.12 C44.3406873,23.3077666 44.2342017,23.5633625 44.2342017,23.83 C44.2342017,24.0966375 44.3406873,24.3522334 44.53,24.54 C44.7178666,24.7210851 44.9690724,24.8215675 45.23,24.82 C45.5179144,24.8356882 45.798588,24.7263348 46,24.52 Z"/>
      <path id="Path" fill="#3D454C" fill-rule="nonzero" d="M51.35,15.88 C51.14,15.24 50.93,14.58 50.75,13.81 C50.6698442,12.8214589 50.138615,11.9250097 49.31,11.38 C49.2005498,11.3187773 49.0869373,11.2653126 48.97,11.22 C48.0212245,10.9489321 47.0000751,11.1457354 46.22,11.75 C45.6734552,12.0294858 45.1048768,12.2636062 44.52,12.45 C41.8822748,13.1376585 39.7511677,15.0780876 38.82,17.64 C38.6735211,17.966898 38.712567,18.3471098 38.9224296,18.6374132 C39.1322921,18.9277167 39.4810882,19.0840078 39.8374296,19.0474132 C40.193771,19.0108187 40.5035211,18.786898 40.65,18.46 C41.359227,16.4044273 43.0665605,14.8516207 45.18,14.34 C45.869766,14.1185321 46.5389559,13.8374724 47.18,13.5 C47.4898623,13.3049178 47.8268287,13.1566526 48.18,13.06 L48.43,13.17 C48.5,13.22 48.62,13.45 48.8,14.25 C48.98,15.05 49.23,15.84 49.44,16.49 C50.01,18.24 50.38,19.4 49.53,21.49 C48.9756899,22.8929248 48.0824079,24.1366482 46.93,25.11 L46.18,25.68 C45.4580961,26.1669644 44.7879365,26.7265477 44.18,27.35 C43.9054071,27.669138 43.6483613,28.0029636 43.41,28.35 C43.1981343,28.6949927 42.9464029,29.0138524 42.66,29.3 C42.34,29.6 41.66,29.48 41.19,29.3 C40.49,28.95 40.35,28.76 40.19,28.38 C40.0601307,28.037272 39.7531776,27.793049 39.3900315,27.7435163 C39.0268855,27.6939836 38.6657386,27.8470784 38.4488257,28.1425058 C38.2319127,28.4379331 38.1939926,28.8283522 38.35,29.16 C38.7178602,30.0703025 39.4396975,30.7921398 40.35,31.16 C40.8873534,31.3772253 41.4604488,31.4925226 42.04,31.5 C42.7494104,31.5235202 43.4406114,31.2728255 43.97,30.8 C44.3672418,30.410712 44.7194541,29.977994 45.02,29.51 C45.2005025,29.2292523 45.4010229,28.9618918 45.62,28.71 C46.1299646,28.1902981 46.6892639,27.7214245 47.29,27.31 L48.08,26.71 C49.5123707,25.522827 50.6202432,23.991761 51.3,22.26 C52.51,19.47 52,17.81 51.35,15.88 Z"/>
      <path id="Shape" fill="#3D454C" fill-rule="nonzero" d="M27.8,25.86 L28.59,26.59 L28.88,26.87 C30.22,28.16 31.72,29.59003 33.69,29.59003 C34.006615,29.5912356 34.3222246,29.5543026 34.63,29.48 C35.8891518,29.2395443 36.9829293,28.4666082 37.63,27.36 C38.1766486,26.064127 38.2579155,24.6189903 37.86,23.27 C37.86,22.97 37.75,22.66 37.71,22.36 C37.6299665,21.6161509 37.5965679,20.8680217 37.61,20.12 C37.7141854,18.4970462 37.4438918,16.8718631 36.82,15.37 C35.7,13.15 33.33,11.97 31.39,11.19 C30.96,11.01 30.53,10.8 30.1,10.59 C28.7888912,9.80617545 27.2874955,9.39796187 25.76,9.41 C25.51589,9.43142743 25.2881449,9.54174144 25.12,9.72 C23.6,11.35 23.27,13.97 23.27,15.89 C23.3149135,17.8552298 23.7252349,19.7949311 24.48,21.61 C25.2168625,23.2802085 26.3578188,24.7407699 27.8,25.86 Z M26.33,11.4 C27.3486744,11.5443948 28.3299328,11.8839305 29.22,12.4 C29.7,12.63 30.22,12.86 30.64,13.05 C32.36,13.74 34.22,14.66 35.03,16.28 C35.5130135,17.5096718 35.7113052,18.8327559 35.61,20.15 C35.5957916,20.9817267 35.6358768,21.8134941 35.73,22.64 C35.73,22.97 35.83,23.3 35.89,23.64 C36.1828434,24.546947 36.1828434,25.523053 35.89,26.43 C35.5103494,27.0191335 34.9008351,27.4218483 34.21,27.54 C32.91,27.84 31.81,26.9 30.29,25.44 L29.99,25.15 C29.72,24.89 29.44,24.64 29.17,24.4 C27.9719974,23.4804065 27.0118462,22.2870757 26.37,20.92 C25.7102988,19.3324512 25.3443626,17.6383019 25.29,15.92 C25.1790773,14.3434052 25.5411968,12.7695782 26.33,11.4 Z"/>
      <path id="Path" fill="#3D454C" fill-rule="nonzero" d="M28.81,15.83 C30.499561,16.1957178 31.7311598,17.6531097 31.81,19.38 C31.81,20.66 33.81,20.67 33.81,19.38 C33.7270918,16.7707473 31.9225523,14.5334449 29.39,13.9 C28.09,13.6 27.56,15.53 28.81,15.83 Z"/>
      <path id="Shape" fill="#3D454C" fill-rule="nonzero" d="M11,26.81 C11.5827369,27.2800288 12.137046,27.7842497 12.66,28.32 C12.87,28.54 13.07,28.78 13.27,29.02 C14.0619883,30.177117 15.2267389,31.0277379 16.57,31.43 C16.8035002,31.4785399 17.0415163,31.5020062 17.28,31.5001185 C18.3107121,31.4871164 19.3086055,31.1357455 20.12,30.5 C22.12,28.96 21.92,26.5 21.75,24.41 L21.75,24 L21.69,22.93 C21.7379656,21.1039771 21.336169,19.2941751 20.52,17.66 C19.5777667,15.9336019 18.3388434,14.3866403 16.86,13.09 C15.38,11.88 13.14,10.46 10.93,10.6 C10.6837362,10.6163614 10.4522218,10.7232142 10.28,10.9 C9.28591786,12.067476 8.63207436,13.4858667 8.39,15 C8.28,15.46 8.16,15.93 8.02,16.37 C7.39,18.37 6.8,20.94 7.81,23.22 C8.57807562,24.6495819 9.67064942,25.8791555 11,26.81 Z M9.93,16.94 C10.08,16.46 10.21,15.94 10.33,15.44 C10.5027272,14.4213467 10.8657177,13.4443256 11.4,12.56 C12.9495115,12.8053348 14.3926918,13.5008433 15.55,14.56 C16.850006,15.6860688 17.9313932,17.0420403 18.74,18.56 C19.3928061,19.9176051 19.7018744,21.4148692 19.64,22.92 C19.64,23.29 19.64,23.66 19.71,24.03 L19.71,24.45 C19.87,26.55 19.9,27.99 18.84,28.81 C18.3100257,29.2725095 17.6079957,29.4871197 16.91,29.4 C16.0203538,29.0598664 15.2608879,28.4473939 14.74,27.65 C14.52,27.39 14.3,27.13 14.07,26.89 C13.4935699,26.2908732 12.8789509,25.7296993 12.23,25.21 C11.1501078,24.4521944 10.2546428,23.4610309 9.61,22.31 C8.9,20.72 9.37,18.7 9.93,16.94 Z"/>
      <path id="Path" fill="#3D454C" fill-rule="nonzero" d="M13,23.69 C14.16,24.23 15.18,22.51 14,21.96 C13.28401,21.6911677 12.7624018,21.0652838 12.6270352,20.3125632 C12.4916685,19.5598425 12.7625336,18.791443 13.34,18.29 C14.26,17.39 12.85,15.98 11.92,16.87 C10.9148233,17.8176639 10.4427874,19.2007614 10.6588607,20.5652244 C10.874934,21.9296875 11.7512066,23.0992698 13,23.69 L13,23.69 Z"/>
    </g>
  </g>
</svg>
