<svg xmlns="http://www.w3.org/2000/svg" width="64" height="64" viewBox="0 0 64 64" style="background:#fff">
  <g id="Kakaopulver" fill="none" fill-rule="evenodd" stroke="none" stroke-width="1">
    <rect width="64" height="64" fill="#FFF"/>
    <g id="5-Kakaopulver" transform="translate(2 4)">
      <rect id="Rectangle" width="60" height="60" x="0" y="0"/>
      <path id="Path" fill="#C17953" fill-rule="nonzero" d="M50.71 48.28C49.2654335 43.4174533 46.4454916 39.0764098 42.59 35.78 39.81 33.31 34.59 28.78 30.3 29.58 26.17 30.32 21.87 35.37 19.22 38.02 16.9527405 40.1978907 14.9122925 42.6001916 13.13 45.19 12.0327492 46.1300008 11.3001824 47.4252638 11.06 48.85 10.8 49.39 10.56 49.95 10.34 50.52 9.83 51.83 10.42 54.97 12.02 55.44 12.87 57.01 14.21 58.35 16.08 58.03 26.0311979 56.4123062 36.1427227 56.0160392 46.19 56.85 50.45 57.17 51.4 50.64 50.71 48.28zM32 4.78C28.62 3.86 27 7.85 27.26 11.37 27.0210461 13.6229788 27.5457727 15.8909249 28.75 17.81 29.94 19.75 32.41 21.33 33.04 23.32 33.444855 24.7410993 34.6791013 25.7689764 36.15 25.91 37.76 25.91 38.55 24.43 39.15 23.17 42.13 16.65 39.45 6.82 32 4.78zM52.35 8.06C51.46 6.75 50.15 5.76 48.71 6.68 43.01 10.31 39.98 18.38 43.11 24.68 44.11 26.74 46.54 28.09 48.05 25.52 50.61 21.15 54.18 15.87 53.99 10.61 54 10 53.37 8 52.35 8.06z" opacity=".5"/>
      <line id="Path" x1="6" x2="52" y1="56.28" y2="56.28" stroke="#3D454C" stroke-linecap="round" stroke-linejoin="round" stroke-width="2"/>
      <path id="Path" stroke="#3D454C" stroke-linecap="round" stroke-linejoin="round" stroke-width="2" d="M8,56.28 C8,44.64 20,34.67 25.82,30.48 C27.7343256,29.1593492 30.2656744,29.1593492 32.18,30.48 C38.05,34.67 50,44.64 50,56.28"/>
      <circle id="Oval" cx="30.02" cy="37.41" r="1" fill="#3D454C" fill-rule="nonzero"/>
      <circle id="Oval" cx="15.96" cy="31.18" r="1" fill="#3D454C" fill-rule="nonzero"/>
      <circle id="Oval" cx="35.74" cy="42.82" r="1" fill="#3D454C" fill-rule="nonzero"/>
      <circle id="Oval" cx="8" cy="24.65" r="1" fill="#3D454C" fill-rule="nonzero"/>
      <circle id="Oval" cx="16.96" cy="47.38" r="1" fill="#3D454C" fill-rule="nonzero"/>
      <circle id="Oval" cx="14.96" cy="17.45" r="1" fill="#3D454C" fill-rule="nonzero"/>
      <circle id="Oval" cx="24.55" cy="42.82" r="1" fill="#3D454C" fill-rule="nonzero"/>
      <circle id="Oval" cx="40.33" cy="51.68" r="1" fill="#3D454C" fill-rule="nonzero"/>
      <circle id="Oval" cx="27.2" cy="50.31" r="1" fill="#3D454C" fill-rule="nonzero"/>
      <path id="Path" stroke="#3D454C" stroke-linecap="round" stroke-linejoin="round" stroke-width="2" d="M48.17,19.42 C49.0255855,18.5428301 49.7285976,17.5288703 50.25,16.42 C50.5432249,15.7313412 50.7644028,15.0141888 50.91,14.28"/>
      <path id="Path" stroke="#3D454C" stroke-linecap="round" stroke-linejoin="round" stroke-width="2" d="M42.67 13.65C44.73 9.04 47.32 9.52 49.67 8.22 50.42 7.8 51.02 7.52 51.55 7.74L51.84 7.87C52.35 8.12 52.54 8.77 52.74 9.63 53.45 12.75 54.74 14.17 53.42 17.49 52.7958082 19.0435175 51.7959412 20.4179051 50.51 21.49 49.5876217 22.1212896 48.7211104 22.8305575 47.92 23.61 47.36 24.23 46.92 25.08 46.34 25.61 45.5795785 26.1472874 44.5809798 26.209216 43.76 25.77 43.0838578 25.5303211 42.541912 25.0138358 42.27 24.35M28.78 6C27.52 7.34 27.2 9.64 27.2 11.48 27.2571917 13.3246028 27.6467667 15.1437487 28.35 16.85 29.09 18.85 30.69 20.01 32.21 21.46 33.73 22.91 35.29 24.56 37.34 24.1 38.3152527 23.9182184 39.1665635 23.3288494 39.68 22.48 40.39 21.16 39.85 19.56 39.68 18.08 39.39 15.85 39.9 13.43 38.89 11.41 37.88 9.39 35.9 8.49 34 7.71 32.26 7 30.58 5.84 28.78 6"/>
      <path id="Path" fill="#3D454C" fill-rule="nonzero" d="M31.74,11.43 L32.11,11.52 C32.2249481,11.5762188 32.3456537,11.6198069 32.47,11.65 C32.47,11.65 32.27,11.56 32.47,11.65 L32.61,11.72 C32.7165132,11.7706645 32.8200182,11.8274253 32.92,11.89 C33.0192238,11.9689586 33.1227133,12.0424027 33.23,12.11 C33.02,11.99 33.17,12.11 33.23,12.11 L33.38,12.24 C33.5624624,12.4042363 33.7329003,12.5813581 33.89,12.77 C34.03,12.93 33.89,12.77 33.89,12.77 C33.9312699,12.8200179 33.9680773,12.873556 34,12.93 C34.0791636,13.0303633 34.1494294,13.1374351 34.21,13.25 L34.39,13.59 L34.46,13.74 C34.46,13.82 34.37,13.52 34.46,13.74 C34.5496454,13.9704072 34.6198895,14.2078994 34.67,14.45 L34.67,14.64 C34.67,14.83 34.67,14.41 34.67,14.64 C34.67,14.87 34.67,14.9 34.67,15.03 C34.67,15.2952165 34.7753568,15.5495704 34.9628932,15.7371068 C35.1504296,15.9246432 35.4047835,16.03 35.67,16.03 C36.2222847,16.03 36.67,15.5822847 36.67,15.03 C36.6287514,12.4015609 34.8219668,10.130761 32.27,9.5 C31.7370452,9.35364454 31.1863555,9.66704522 31.04,10.2 C30.8936445,10.7329548 31.2070452,11.2836445 31.74,11.43 L31.74,11.43 Z"/>
    </g>
  </g>
</svg>
