<svg xmlns="http://www.w3.org/2000/svg" width="64" height="64" viewBox="0 0 64 64" style="background:#fff">
  <g id="Kakaomasse" fill="none" fill-rule="evenodd" stroke="none" stroke-width="1">
    <rect width="64" height="64" fill="#FFF"/>
    <g transform="translate(2 4)">
      <rect id="Rectangle" width="60" height="60" x="0" y="0"/>
      <path id="Path" fill="#C17953" fill-rule="nonzero" d="M18.54 8.06C16.33 3.28 12.29 5.52 11.31 9.69 8.9 19.94 9.86 31.21 9.17 41.7 8.89 45.84 9.37 52.21 14.07 53.92 18.36 55.49 21.76 50.44 22 46.72 22.81 34.44 23.81 19.53 18.54 8.06zM43.31 48.1499245C42.2608133 48.1439919 41.2410989 48.4968343 40.42 49.15 38.61 50.25 36.66 51.32 35.62 53.25 34.92 54.54 34.62 57.9 36.62 58.4 38.62 58.9 40.33 57.9 42 57 44.2 55.85 45.91 54.31 45.81 51.61 45.79 50.16 45 48.34 43.31 48.1499245zM53.9 38C53.408726 37.7321295 52.8296198 37.6756332 52.2958362 37.8435016 51.7620525 38.0113699 51.3195234 38.3891578 51.07 38.89 50.5851609 39.7829568 50.205941 40.7293287 49.94 41.71 49.58 42.63 49.26 43.56 48.94 44.48 48.41 45.81 47.37 47.75 48.1 49.16 49.1 51.16 52.1 49.3 53 48.33 54.7689698 46.5382912 55.7204789 44.0962051 55.63 41.58 55.52 40.33 55.12 38.7 53.9 38zM48.45 30.76C47.1 30.62 46.2 31.6 45.34 32.52 44.3925633 33.4728057 43.7458033 34.682873 43.48 36 43.3014639 36.7661081 43.6161167 37.5626976 44.27 38 45.2416473 38.4329589 46.3644238 38.3581072 47.27 37.8 47.8166492 37.563016 48.3308058 37.2572105 48.8 36.89 49.3992501 36.3412998 49.8557539 35.6548279 50.13 34.89 50.73 33.49 50.2 31 48.45 30.76zM41.4 43.47C40.83 42.8 40.32 42.14 39.71 41.47 39.2169847 40.838504 38.6644471 40.2558279 38.06 39.73 37.67 39.46 36.98 39.15 36.51 39.46 34.15 41.06 34.97 44.75 37.28 45.97 37.8701118 46.2560141 38.5144533 46.4128379 39.17 46.43 39.860644 46.4244171 40.5282093 46.1807028 41.06 45.74 41.748602 45.1881468 41.8966981 44.1993871 41.4 43.47zM32.37 44.79C31.762285 44.5286809 31.0699164 44.5506609 30.48 44.85 29.8848279 45.1926728 29.3590984 45.6437826 28.93 46.18 27.8542817 47.2408163 27.1285242 48.6051009 26.85 50.09 26.6418553 51.0722402 27.0342499 52.0846182 27.85 52.67 28.85 53.26 30.11 52.51 30.95 52 31.4973797 51.6924734 31.9905969 51.297224 32.41 50.83 33.0783814 50.0180843 33.5138618 49.0399816 33.67 48 33.89 47 33.51 45.16 32.37 44.79z" opacity=".5"/>
      <path id="Shape" fill="#3D454C" fill-rule="nonzero" d="M55.14,43.19 C54.81,40.56 52.56,38.19 49.74,38.87 C46.3,39.68 45.93,43.4 45.74,46.31 C45.7768344,47.6010986 46.4112914,48.8018459 47.4571432,49.5597947 C48.502995,50.3177434 49.8415828,50.5468994 51.08,50.18 C54.1,49.37 55.5,46.09 55.14,43.19 Z M52.08,47.34 C50.76,48.76 47.88,48.77 47.77,46.34 C47.85,44.84 47.77,43.1 48.77,41.85 C50.19,40.05 52.53,40.85 53.07,42.94 C53.4678211,44.4805146 53.0993104,46.11834 52.08,47.34 L52.08,47.34 Z"/>
      <path id="Path" fill="#3D454C" fill-rule="nonzero" d="M32,53.29 C29.854625,53.8837573 27.6358222,54.1699458 25.41,54.14 C20.02,54.14 16.95,52.73 15.53,51.83 C15.16,51.47 15.24,50.76 15.68,47.91 C16.7079106,41.3726982 17.3091818,34.7754166 17.48,28.16 C17.4925043,27.8027344 17.3134598,27.4659364 17.0103109,27.2764746 C16.707162,27.0870127 16.3259641,27.0736708 16.0103109,27.2414746 C15.6946577,27.4092783 15.4925043,27.7327344 15.48,28.09 C15.3115718,34.6284393 14.7169771,41.1489386 13.7,47.61 C13.5123227,48.6550972 13.3854428,49.7102037 13.32,50.77 L12.32,50.57 C12.53,48.08 13.05,40.57 13.05,28.71 C13.05,24.04 12.71,14.83 12.53,9.88 L12.53,9.1 C21.44,9.53 34.84,9.1 38.73,8.91 C38.73,9.45 38.73,10.19 38.64,11.07 C36.47,10.99 27.11,10.65 21.5,10.83 C20.9477153,10.83 20.5,11.2777153 20.5,11.83 C20.5,12.3822847 20.9477153,12.83 21.5,12.83 L21.5,12.83 C27.06,12.66 36.35,12.99 38.5,13.07 C38.28,19.07 37.99,29.12 38.19,36.8 C38.19,37.3522847 38.6377153,37.8 39.19,37.8 L39.19,37.8 C39.7422847,37.8 40.19,37.3522847 40.19,36.8 C39.88,25.18 40.71,8.13 40.72,7.96 C40.7325337,7.68043523 40.6273505,7.40840955 40.43,7.21 C40.2315905,7.01264954 39.9595648,6.90746627 39.68,6.92 C39.5,6.92 21.74,7.71 11.49,7.1 L11.4,7.1 C11.3367944,7.09431246 11.2732056,7.09431246 11.21,7.1 L11.06,7.1 C10.9914159,7.12673839 10.9273378,7.16383623 10.87,7.21 L10.74,7.31 C10.6950915,7.34955765 10.6578095,7.39700746 10.63,7.45 C10.5898457,7.50433227 10.5531082,7.56110846 10.52,7.62 C10.52,7.68 10.52,7.74 10.52,7.8 C10.52,7.86 10.52,7.9 10.52,7.96 L10.52,8 C10.5209698,8.01665256 10.5209698,8.03334744 10.52,8.05 L10.52,10 C10.7,14.93 11.04,24.12 11.04,28.75 C11.04,43.29 10.25,51.24 10.24,51.32 C10.1889275,51.8322521 10.5350974,52.2995814 11.04,52.4 L13.54,52.89 L13.54,52.89 L13.73,53.05 C13.9303826,53.2099775 14.140814,53.3569455 14.36,53.49 C14.6059967,53.6769314 14.8707517,53.8377952 15.15,53.97 L15.15,53.97 C18.3653915,55.5441499 21.9231061,56.2900669 25.5,56.14 C27.8919785,56.1642729 30.2754342,55.8511919 32.58,55.21 C33.1101934,55.0498374 33.4101626,54.4901934 33.25,53.96 C33.0898374,53.4298066 32.5301934,53.1298374 32,53.29 Z"/>
      <path id="Shape" fill="#3D454C" fill-rule="nonzero" d="M33 44.33C30.57 43.54 28.1 44.9 26.73 46.88 25.36 48.86 25.6 51.46 27.83 52.56 30.34 53.79 32.93 51.76 34.29 49.77 35.65 47.78 35.44 45.14 33 44.33zM32.57 48.76C31.83 49.82 30.47 51.22 29.04 50.87 27.61 50.52 27.74 48.87 28.45 47.87 29.1185562 46.8437123 30.2283909 46.1889099 31.45 46.1 33.19 46 33.42 47.48 32.54 48.76L32.57 48.76zM44.88 39.44C47.1942226 39.220617 49.1579677 37.6496209 49.88 35.44 50.76 33.26 49.88 30.61 47.33 30.17 44.57 29.68 42.56 32.33 41.76 34.63 40.96 36.93 42.17 39.52 44.88 39.44zM43.74 35.11C44.0816217 33.8655527 44.9410705 32.827659 46.1 32.26 48 31.63 48.51 33.58 47.96 34.94 47.5763538 35.9722532 46.7841065 36.8006761 45.77 37.23 45.3071114 37.428989 44.7960878 37.488087 44.3 37.4 43.16 37 43.43 35.91 43.74 35.11zM34.6 41.84C34.29 44.56 36.92 46.35 39.22 47.01 41.52 47.67 44 46.74 44 44.09 44 41.44 42 39.62 39.7 39 37.4 38.38 34.88 39.29 34.6 41.84zM41.67 42.84C41.98 43.42 42.3 44.38 41.77 44.96 41.24 45.54 40.29 45.28 39.77 45.12 38.619335 44.8811512 37.597341 44.2259356 36.9 43.28 35.9 41.51 37.62 40.44 39.19 40.92 40.239618 41.179811 41.13633 41.8595766 41.67 42.8L41.67 42.84zM45 49.64C42.42 47.64 38.73 48.52 36.55 50.71 34.37 52.9 34.17 56.27 36.66 58.14 39.48 60.26 42.66 58.4 45.13 56.78L45.29 56.64 45.29 56.64C46.3418269 55.7589963 46.9248791 54.439484 46.868086 53.068615 46.8112928 51.697746 46.1210949 50.4309826 45 49.64L45 49.64zM37.37 52.84C38.492332 51.1303307 40.5274305 50.2564586 42.54 50.62 44.63 51.15 45.79 53.62 44 55.13 42.67 56 41.21 57.13 39.54 57.13 38.5316241 57.1143345 37.6160339 56.5379972 37.1658617 55.6355492 36.7156895 54.7331012 36.8059853 53.6549932 37.4 52.84L37.37 52.84z"/>
      <circle id="Oval" cx="16.78" cy="24.18" r="1" fill="#3D454C" fill-rule="nonzero"/>
    </g>
  </g>
</svg>
