<svg xmlns="http://www.w3.org/2000/svg" width="64" height="64" viewBox="0 0 64 64" style="background:#fff">
  <g id="Kalbsbratwurst" fill="none" fill-rule="evenodd" stroke="none" stroke-width="1">
    <rect width="64" height="64" fill="#FFF"/>
    <g transform="translate(2 8)">
      <rect id="Rectangle" width="60" height="60" x="0" y="0"/>
      <rect id="Rectangle" width="60" height="60" x="0" y="0"/>
      <path id="Path" fill="#E0A075" fill-rule="nonzero" d="M51.68,24.77 C49.2,25.5 47.17,27.07 44.6,27.69 C41.6117605,28.3597804 38.5696792,28.7613753 35.51,28.89 C31.6318941,29.0770931 27.7586184,28.4326837 24.15,27 C22.6590905,26.4312119 21.2259162,25.7213218 19.87,24.88 C18.04,23.69 17.57,23.5 17.05,22.31 C15.73,19.25 12.8,16.26 9.23,17.72 C5.66,19.18 4.41,24.38 4.46,27.86 C4.64,42.68 20.56,49.24 33.46,48.45 C44.06,47.8 55.13,40 55,28.46 C55,26.64 53.88,24.12 51.68,24.77 Z" opacity=".5"/>
      <path id="Shape" fill="#3D454C" fill-rule="nonzero" d="M56.86,38.32 C56.5167214,36.7536717 55.5486484,35.3954796 54.18,34.56 C53.619456,34.2194457 53.0085755,33.9696935 52.37,33.82 C52.4985404,33.6735465 52.6187307,33.51997 52.73,33.36 C53.5982593,32.0429967 53.9009303,30.4323544 53.57,28.89 C53.2263925,27.349813 52.2596503,26.0209951 50.9,25.22 C50.3439547,24.8823669 49.7406467,24.6295842 49.11,24.47 C50.2541879,23.0746004 50.7095819,21.2383345 50.35,19.47 C49.67,16.27 46.88,14.47 43.35,14.88 C43.35,14.88 38.27,15.69 32.88,16.72 C32.5227344,16.7878804 32.2288212,17.0412035 32.1089746,17.3845448 C31.989128,17.7278861 32.0615556,18.109084 32.2989746,18.3845448 C32.5363936,18.6600057 32.9027344,18.7878805 33.26,18.72 C38.61,17.72 43.61,16.9 43.64,16.9 C46.07,16.58 47.93,17.77 48.38,19.9 C48.8323084,22.0164083 47.4928744,24.1014606 45.38,24.57 L17.19,30.67 C15.0798889,31.0884565 13.0167088,29.7630731 12.52,27.67 C12.1823646,25.5332384 13.5387538,23.4943072 15.64,22.98 C15.64,22.98 20.05,21.67 25.21,20.44 C25.5816559,20.3823112 25.8895123,20.1209668 26.0067723,19.7636067 C26.1240322,19.4062467 26.0308627,19.0133143 25.7656374,18.7466466 C25.5004121,18.479979 25.1079907,18.3846798 24.75,18.5 C19.5,19.66 15.08,21 15,21 C12.2623649,21.7383414 10.3705612,24.2346997 10.4,27.07 C7.92028706,27.9569094 6.32059673,30.3706915 6.47,33 C3.81906392,34.1036693 2.38591919,36.9912854 3.11,39.77 C3.71149462,42.5026814 6.12199969,44.4568086 8.92,44.48 C9.33352196,44.4818094 9.7459928,44.4382149 10.15,44.35 L10.21,44.35 C10.9971635,46.8085725 13.2686855,48.4880489 15.85,48.52 C16.2634976,48.5213308 16.6759165,48.4777418 17.08,48.39 L17.54,48.3 C18.5434835,50.3197539 20.5948242,51.6061879 22.85,51.6300541 C23.263522,51.6318094 23.6759928,51.5882149 24.08,51.5 L52.27,45.41 C55.4601253,44.7293146 57.5074475,41.6070367 56.86,38.41 L56.86,38.32 Z M51.61,29.32 C52.0681355,31.4374663 50.7262592,33.5263204 48.61,33.99 L20.42,40.09 C18.443917,40.3528355 16.5759272,39.1205154 16.0399173,37.2004425 C15.5039075,35.2803696 16.4635084,33.2586958 18.29,32.46 L45.81,26.51 L46.06,26.44 L46.06,26.44 C47.3453527,26.0844857 48.7199021,26.2648727 49.87,26.94 C50.7486392,27.4552736 51.3775594,28.3082919 51.61,29.3 L51.61,29.32 Z M10.85,29 C11.5805162,30.7361114 13.0838892,32.0284198 14.91,32.49 C14.0254822,33.5922916 13.570704,34.9779439 13.63,36.39 L13.21,36.48 C11.0998889,36.8984565 9.03670879,35.5730731 8.54,33.48 L8.54,33.48 C8.15391321,31.6283297 9.1176146,29.7593331 10.85,29 Z M5.07,39.32 C4.63241025,37.6243395 5.39747438,35.8474164 6.93,35 C7.74163218,36.8921615 9.46676062,38.2360253 11.5,38.56 C10.5226981,39.5924723 9.96018675,40.9489078 9.92,42.37 L9.74,42.37 C7.61431592,42.7853334 5.54420085,41.4333311 5.07,39.32 Z M12,43.32 C11.610119,41.4835204 12.5736159,39.6277415 14.3,38.89 C15.046025,40.3387263 16.349211,41.4217063 17.91,41.89 C17.02188,43.183615 16.6937411,44.7810385 17,46.32 L16.71,46.38 C14.5737494,46.820305 12.4785731,45.4680044 12,43.34 L12,43.32 Z M54.35,41.7 C53.7758781,42.5765587 52.8762361,43.1883152 51.85,43.4 L23.67,49.49 C23.4007295,49.5495893 23.1257851,49.5797661 22.85,49.58 C20.996429,49.5548246 19.4030179,48.2594021 19,46.45 C18.4288402,44.6974941 19.2461794,42.7932222 20.91,42 L49,35.93 C49.1,35.93 49.19,35.86 49.29,35.84 L49.39,35.84 C50.6505818,35.4641649 52.0102497,35.6232749 53.15,36.28 C54.0518071,36.8211187 54.689028,37.7117798 54.91,38.74 C55.1227953,39.7618928 54.9213895,40.8264665 54.35,41.7 Z"/>
      <path id="Path" fill="#3D454C" fill-rule="nonzero" d="M16.91 26.07C16.6827874 25.5682465 16.0926133 25.3446957 15.59 25.57L15.3 25.72C15.1915756 25.6270957 15.0780669 25.5402949 14.96 25.46 14.7375339 25.313047 14.4655951 25.261018 14.2045947 25.3154713 13.9435944 25.3699246 13.7151462 25.5263509 13.57 25.75 13.3045352 26.1747706 13.3942937 26.7304185 13.78 27.05 13.744236 27.0879102 13.7108395 27.127986 13.68 27.17 13.363933 27.6204485 13.4711852 28.2416174 13.92 28.56 14.0888104 28.6822258 14.2915911 28.7486539 14.5 28.75 14.7163893 28.7392709 14.9234414 28.6585557 15.09 28.52 15.0871281 28.5398969 15.0871281 28.5601031 15.09 28.58 15.2962211 28.8728741 15.6433377 29.0330817 16 29 16.1966006 29.0022477 16.3889572 28.942792 16.55 28.83 17.006275 28.5248175 17.1312473 27.9088827 16.83 27.45L16.67 27.22C16.9904655 26.9290125 17.0873289 26.464875 16.91 26.07zM20 35.26C19.6795227 34.9673853 19.2068933 34.914871 18.83 35.13L18.83 35.08C18.6656578 34.753102 18.3394014 34.5387112 17.9741283 34.5175867 17.6088552 34.4964622 17.2600592 34.6718132 17.0591283 34.9775867 16.8581974 35.2833602 16.8356578 35.673102 17 36 17 36 17.07 36.14 17.13 36.25 16.8303235 36.5082187 16.7110299 36.9188222 16.8256908 37.2974194 16.9403516 37.6760165 17.2674129 37.9514382 17.66 38 17.7725024 38.0194079 17.8874976 38.0194079 18 38L18.3 37.89C18.3957685 37.9975321 18.4993865 38.0978076 18.61 38.19 18.789713 38.348524 19.0203774 38.437241 19.26 38.44 19.5523118 38.44 19.8299973 38.3121378 20.02 38.09 20.3458282 37.7141142 20.3458282 37.1558858 20.02 36.78L20.13 36.67C20.3000589 36.4659174 20.381926 36.2025562 20.3575369 35.9380285 20.3331478 35.6735008 20.2045071 35.4295482 20 35.26zM23 45.1L22.72 45.1C22.7862742 44.5477153 22.3922847 44.0462742 21.84 43.98 21.2877153 43.9137258 20.7862742 44.3077153 20.72 44.86 20.72 44.86 20.72 45.01 20.65 45.17 20.5074317 45.1960468 20.3670329 45.2328179 20.23 45.28 19.6777153 45.3656041 19.2993959 45.8827153 19.385 46.435 19.4706042 46.9872847 19.9877153 47.3656041 20.54 47.28L20.72 47.28 20.72 47.42C20.8445106 47.8652375 21.2579962 48.167082 21.72 48.15L21.99 48.15C22.4022516 48.0252519 22.6883112 47.6505541 22.7 47.22L22.76 47.22C23.3122847 47.2724671 23.8025329 46.8672847 23.855 46.315 23.9074671 45.7627153 23.5022847 45.2724671 22.95 45.22L23 45.1zM15.94 42.83L15.94 42.83C16.2015713 42.4250716 16.1370224 41.891165 15.7864869 41.5602398 15.4359514 41.2293147 14.8992163 41.1955756 14.51 41.48L14.4 41.58C14.0329473 41.2395787 13.4707243 41.2230309 13.0842852 41.5412748 12.6978461 41.8595188 12.6062791 42.4144819 12.87 42.84 12.9544535 42.9572363 13.0480809 43.067583 13.15 43.17 13.097905 43.2639508 13.0511638 43.360772 13.01 43.46 12.9116208 43.706631 12.9153691 43.9822628 13.0204184 44.2261274 13.1254678 44.4699921 13.3231923 44.6620649 13.57 44.76 13.6877876 44.8065537 13.8133466 44.8303081 13.94 44.830003 14.2512334 44.8268757 14.5432662 44.679011 14.73 44.43L14.96 44.57C15.1133529 44.6650979 15.2895802 44.7169295 15.47 44.72 15.8230673 44.7199384 16.1499357 44.5336995 16.33 44.23 16.4717734 43.9944243 16.510298 43.7108682 16.4365151 43.4460065 16.3627322 43.1811448 16.1831518 42.9583465 15.94 42.83zM9.78 33.3C9.73181479 33.3944177 9.68842625 33.4912076 9.65 33.59 9.4505914 34.0980407 9.69536025 34.6721349 10.2 34.88 10.6175587 35.0490378 11.0965938 34.9180196 11.37 34.56L11.6 34.7C11.7543557 34.7915893 11.9305167 34.8399472 12.11 34.84 12.4610473 34.8420443 12.7874583 34.6598614 12.97 34.36 13.2465779 33.8898122 13.0953041 33.2847173 12.63 33 12.6136679 33.0047226 12.5963321 33.0047226 12.58 33 12.8319556 32.6506934 12.8319556 32.1793066 12.58 31.83 12.2395339 31.3978967 11.6139863 31.3219373 11.18 31.66L11.07 31.76C10.7134763 31.3822976 10.1271473 31.3404128 9.72055504 31.6636015 9.31396275 31.9867902 9.22247734 32.5674506 9.51 33 9.59489433 33.1044798 9.68500902 33.2046072 9.78 33.3zM9.16 39.16C9.14366787 39.1647226 9.12633213 39.1647226 9.11 39.16 9.36195561 38.8106934 9.36195561 38.3393066 9.11 37.99 8.7695339 37.5578967 8.14398625 37.4819373 7.71 37.82 7.66873321 37.847893 7.63168807 37.8815704 7.6 37.92 7.38206799 37.6341875 7.02821137 37.4863513 6.6717245 37.5321797 6.31523764 37.5780081 6.01027936 37.8105388 5.8717245 38.1421797 5.73316965 38.4738206 5.78206799 38.8541875 6 39.14 6.08141927 39.2567498 6.17168469 39.3670742 6.27 39.47 6.2 39.63 6.15 39.73 6.14 39.77 6.0416208 40.016631 6.04536907 40.2922628 6.15041844 40.5361274 6.25546781 40.7799921 6.45319232 40.9720649 6.7 41.07 6.81892457 41.1124992 6.94376938 41.1361185 7.07 41.14 7.38123339 41.1368757 7.67326624 40.989011 7.86 40.74L8.09 40.88C8.24435568 40.9715893 8.42051666 41.0199472 8.6 41.02 8.95104725 41.0220443 9.27745829 40.8398614 9.46 40.54 9.75741164 40.0759327 9.62323277 39.4587099 9.16 39.16L9.16 39.16zM29.13 19.56C29.6822847 19.56 30.13 19.1122847 30.13 18.56 30.13 18.0077153 29.6822847 17.56 29.13 17.56 28.5777153 17.56 28.13 18.0077153 28.13 18.56 28.13 19.1122847 28.5777153 19.56 29.13 19.56z"/>
    </g>
  </g>
</svg>
