<svg xmlns="http://www.w3.org/2000/svg" width="64" height="64" viewBox="0 0 64 64" style="background:#fff">
  <g id="Kalb-(Kotelett)" fill="none" fill-rule="evenodd" stroke="none" stroke-width="1">
    <rect width="64" height="64" fill="#FFF"/>
    <g transform="translate(2 4)">
      <g id="Layer_2">
        <rect id="Rectangle" width="60" height="60" x="0" y="0"/>
        <rect id="Rectangle" width="60" height="60" x="0" y="0"/>
      </g>
      <g id="Layer_1" fill-rule="nonzero" transform="translate(4 2)">
        <path id="Path" fill="#E05362" d="M20.25 40.14C18.25 38.06 15.19 37.01 12.67 35.71 10.15 34.41 7.37 33 4.6 31.91 1.17 30.57.52 37.72 2.77 39.2 5.38 40.91 8.1 42.4 10.86 43.86 13.43 45.22 16.19 47.3 19.12 47.51 22.62 47.76 21.63 41.6 20.25 40.14zM30.3 35.56C27.8328324 33.78409 25.212494 32.2312968 22.47 30.92 19.73 29.42 16.97 27.92 14.11 26.68 11.25 25.44 10.82 31.47 12.59 32.74 15.07 34.53 17.67 36.17 20.28 37.74 22.89 39.31 25.66 41.38 28.57 42.44 32 43.7 32.17 37.08 30.3 35.56zM38.08 31.28C36.08 29.63 33.41 28.71 31.08 27.52 29.92 26.92 29 28.45 28.78 29.33 28.51 30.43 28.59 32.33 29.68 33.08 31.87 34.5 34.06 36.49 36.52 37.41 39.58 38.55 39.74 32.62 38.08 31.28z" opacity=".5"/>
        <path id="Path" fill="#C17953" d="M35 2.2C34.3682238 1.46415707 33.3161945 1.25375122 32.45 1.69 31.56 2.2 31.28 3.21 30.7 4 29.57 5.67 28 6 26.27 6.68 24.01 7.53 24.64 12.37 26.93 12.68 28.505753 12.7531873 30.0568005 12.2680423 31.31 11.31 31.52 11.16 31.71 11 31.91 10.84 31.7886039 11.2200608 31.6917379 11.6075247 31.62 12 31.29 14 32.67 17.82 35.05 16 36.84 14.61 37.21 11.14 37.17 9 37.13 6.86 36.64 3.78 35 2.2zM52 8.93C51.73 7 49.9 6.49 48.34 5.67 47.1942377 5.11559147 46.2857431 4.16805992 45.78 3 45.5459751 2.14763847 44.8345629 1.51126033 43.9614919 1.37329355 43.0884209 1.23532677 42.2154467 1.62133275 41.73 2.36 39.0520581 5.93086661 38.6222987 10.7085528 40.62 14.7 41.28 16.02 42.83 17.15 44.26 15.95 45.4797954 14.6765181 45.8433506 12.8079225 45.19 11.17 45.7018876 11.5011747 46.2443739 11.7824639 46.81 12.01 49.54 13.1 52.37 12 52 8.93z" opacity=".5"/>
        <path id="Path" fill="#3D454C" d="M40.48 18.36C39.3257249 18.36 38.39 19.2957249 38.39 20.45 38.39 21.0022847 38.8377153 21.45 39.39 21.45 39.9422847 21.45 40.39 21.0022847 40.39 20.45 40.39 20.35 40.57 20.35 40.57 20.45 40.57 21.0022847 41.0177153 21.45 41.57 21.45 42.1222847 21.45 42.57 21.0022847 42.57 20.45 42.5645272 19.2979994 41.6320006 18.3654728 40.48 18.36L40.48 18.36zM36.11 18.38C35.551432 18.3719362 35.013098 18.5888913 34.6162131 18.9820142 34.2193283 19.3751371 33.9972561 19.9113805 33.9999749 20.47 33.9999749 21.0222847 34.4477153 21.47 35 21.47 35.5522847 21.47 36 21.0222847 36 20.47 36 20.37 36.18 20.37 36.18 20.47 36.18 21.0222847 36.6277153 21.47 37.18 21.47 37.7322847 21.47 38.18 21.0222847 38.18 20.47 38.1800525 19.3234905 37.256457 18.3909714 36.11 18.38L36.11 18.38z"/>
        <path id="Shape" fill="#3D454C" d="M51,9.34 L45.55,3.74 C43.6419277,1.77680624 40.9963948,0.706254506 38.26,0.79 C35.5527134,0.693481126 32.9318197,1.75128984 31.05,3.7 L25.58,9.34 C25.2647346,9.66510424 25.207301,10.1614949 25.44,10.55 C26.3708601,11.9081566 27.9238403,12.705328 29.57,12.67 L30.32,12.67 C30.5425213,13.5222722 30.8507598,14.3498255 31.24,15.14 C31.41,15.52 31.59,15.92 31.72,16.25 C30.7496444,17.195812 30.2047223,18.4949641 30.21,19.85 C30.21,23.11 33.84,25.76 38.3,25.76 C42.76,25.76 46.39,23.11 46.39,19.85 C46.3952777,18.4949641 45.8503556,17.195812 44.88,16.25 C45,15.92 45.18,15.52 45.35,15.14 C45.7392402,14.3498255 46.0474787,13.5222722 46.27,12.67 L47,12.67 C48.6470069,12.7090153 50.2016421,11.9109943 51.13,10.55 C51.365322,10.1636863 51.3120137,9.66750903 51,9.34 Z M38.3,23.76 C34.99,23.76 32.21,21.97 32.21,19.85 C32.2147115,18.8651848 32.681191,17.9396301 33.47,17.35 C33.5577805,17.2874958 33.6297012,17.2053007 33.68,17.11 C34.9350844,15.9994169 36.5646755,15.4061886 38.24,15.45 C39.9830075,15.3941018 41.6757636,16.0387898 42.94,17.24 L43.12,17.36 C43.9122447,17.9433401 44.3829338,18.8661873 44.39,19.85 C44.39,22 41.6,23.76 38.3,23.76 Z M47,10.67 L45.39,10.67 C44.8377153,10.67 44.39,11.1177153 44.39,11.67 C44.2667668,12.5950909 43.9753004,13.4898249 43.53,14.31 L43.26,14.92 C40.2323586,12.9831017 36.3607799,12.9597555 33.31,14.86 L33.06,14.31 C32.6175564,13.4894061 32.3294518,12.5945874 32.21,11.67 C32.21,11.1177153 31.7622847,10.67 31.21,10.67 L29.57,10.67 C28.8852409,10.681042 28.216451,10.4628053 27.67,10.05 L32.54,5.05 C34.04434,3.52111557 36.1273017,2.70319869 38.27,2.8 C40.4322741,2.71514816 42.5315504,3.53818049 44.06,5.07 L44.06,5.13 L48.87,10.06 C48.3304385,10.4629224 47.6733649,10.6772619 47,10.67 L47,10.67 Z"/>
        <path id="Path" fill="#3D454C" d="M34.63 7.61C34.0777153 7.61 33.63 8.05771525 33.63 8.61 33.63 9.16228475 34.0777153 9.61 34.63 9.61 35.1822847 9.61 35.63 9.16228475 35.63 8.61 35.63 8.05771525 35.1822847 7.61 34.63 7.61zM41.89 7.68C41.3377153 7.68 40.89 8.12771525 40.89 8.68 40.89 9.23228475 41.3377153 9.68 41.89 9.68 42.4422847 9.68 42.89 9.23228475 42.89 8.68 42.89 8.12771525 42.4422847 7.68 41.89 7.68z"/>
        <path id="Shape" fill="#3D454C" d="M37.9,32.68 C37.39,30 34.77,28.45 32.68,28 C30.59,27.55 19.68,26.52 15.45,27.19 C11.92,27.75 4.45,30.52 2.08,32.74 L1.98,32.81 L1.98,32.81 L1.98,32.81 L1.8,33 L1.8,33 L1.8,33 C1.77085117,33.0363116 1.74726019,33.0767533 1.73,33.12 C0.87103337,34.2693467 0.452393689,35.6884643 0.55,37.12 C0.539735291,37.1829174 0.539735291,37.2470826 0.55,37.31 C0.14,41.19 -0.07,45.57 2.69,48.54 C4.20537504,49.9885498 6.06870767,51.0218211 8.1,51.54 C12.3051281,52.8693888 16.6897436,53.543945 21.1,53.5400172 C21.99,53.5400172 22.89,53.5400172 23.79,53.46 C24.9478296,53.4066354 26.0988288,53.2527227 27.23,53 C34.5462004,51.246041 39.0606902,43.8993687 37.32,36.58 C37.3252318,36.5502281 37.3252318,36.5197719 37.32,36.49 C37.9104976,35.3130109 38.1135167,33.979385 37.9,32.68 Z M34,45.85 C32.380214,48.4757495 29.7888829,50.3554529 26.79,51.08 C25.7533415,51.3046791 24.6996325,51.4418285 23.64,51.49 C18.5691265,51.8132854 13.4823947,51.189313 8.64,49.65 C6.9373304,49.2319407 5.3684514,48.3890123 4.08,47.2 C2.8418318,45.6745714 2.19560035,43.7536307 2.26,41.79 C3.24423854,43.1568943 4.61197408,44.2009672 6.19,44.79 C8.36366214,45.4554099 10.5698643,46.0094637 12.8,46.45 C13.8,46.6 14.87,46.71 15.97,46.79 L16,46.79 C16.5522847,46.80933 17.01567,46.3772847 17.035,45.825 C17.05433,45.2727153 16.6222847,44.80933 16.07,44.79 C15.02,44.72 14.01,44.61 13.07,44.47 C11.77,44.27 7.61,43.18 6.83,42.91 C4.96948156,42.2030777 3.50914543,40.7208366 2.83,38.85 C2.34,37.53 2.16,35.54 3.29,34.29 C4.77,32.7 11.85,29.79 15.7,29.18 C19.55,28.57 30.12,29.51 32.2,29.96 C33.8,30.31 35.57,31.41 35.87,33.06 C36.14,34.48 35.28,36.06 34.45,37.38 C33.6295942,38.8390287 32.6209539,40.1838824 31.45,41.38 C30.0266276,42.6781502 28.3116382,43.6145344 26.45,44.11 C25.9208207,44.2604033 25.6125095,44.8100015 25.76,45.34 C25.8321334,45.596452 26.0036137,45.8135209 26.2364036,45.9430572 C26.4691936,46.0725936 26.7440482,46.1038884 27,46.03 C29.1712013,45.450006 31.1708697,44.3558479 32.83,42.84 C33.9237437,41.7674118 34.8779307,40.5612388 35.67,39.25 C35.7786482,41.5667787 35.1974562,43.8637053 34,45.85 Z"/>
        <path id="Path" fill="#3D454C" d="M22.51 40.09C17.84 38.26 13.03 36.63 8.19 35.27 7.65704523 35.1208832 7.10411693 35.4320453 6.95500006 35.965 6.80588318 36.4979548 7.11704525 37.0508831 7.65 37.2 12.42 38.54 17.17 40.14 21.78 41.95 21.8940861 41.9972572 22.0165182 42.0210635 22.14 42.0200341 22.620605 42.0211766 23.0340741 41.680295 23.1245632 41.2082841 23.2150524 40.7362733 22.9569654 40.2666478 22.51 40.09L22.51 40.09zM26.87 38.68C26.9515936 38.426727 26.9288801 38.1513788 26.8068869 37.9148996 26.6848937 37.6784205 26.4736818 37.5003135 26.22 37.42 25.63 37.24 23.64 36.42 21.53 35.57 18.77 34.45 15.65 33.19 13.95 32.57 13.6084724 32.4383214 13.2222917 32.5037593 12.9432092 32.7405995 12.6641268 32.9774398 12.5367429 33.3478329 12.6111137 33.7062311 12.6854845 34.0646294 12.9497247 34.353757 13.3 34.46 14.95 35.04 18.04 36.29 20.77 37.4 23.11 38.35 24.95 39.1 25.61 39.31 25.7068658 39.341865 25.8080356 39.3587267 25.91 39.36 26.3435861 39.3654445 26.7312757 39.090831 26.87 38.68zM18.54 32.71L28 36.09C28.1125024 36.1094079 28.2274976 36.1094079 28.34 36.09 28.8252422 36.089431 29.240049 35.7405851 29.3238148 35.2626273 29.4075806 34.7846696 29.1361283 34.3155514 28.68 34.15L19.23 30.78C18.891331 30.6465541 18.506899 30.7076781 18.2263202 30.9395835 17.9457414 31.1714888 17.8133397 31.5375405 17.8806441 31.895276 17.9479486 32.2530114 18.204327 32.5459179 18.55 32.66L18.54 32.71zM21.38 44.85C20.8277153 44.85 20.38 45.2977153 20.38 45.85 20.38 46.4022847 20.8277153 46.85 21.38 46.85 21.9322847 46.85 22.38 46.4022847 22.38 45.85 22.38 45.2977153 21.9322847 44.85 21.38 44.85z"/>
      </g>
    </g>
  </g>
</svg>
