<svg xmlns="http://www.w3.org/2000/svg" width="64" height="64" viewBox="0 0 64 64" style="background:#fff">
  <g id="Kalb-(Schnitzel)" fill="none" fill-rule="evenodd" stroke="none" stroke-width="1">
    <rect width="64" height="64" fill="#FFF"/>
    <g transform="translate(2 4)">
      <g id="Layer_2">
        <rect id="Rectangle" width="60" height="60" x="0" y="0"/>
        <rect id="Rectangle" width="60" height="60" x="0" y="0"/>
      </g>
      <g id="Layer_1" fill-rule="nonzero" transform="translate(7 5)">
        <path id="Path" fill="#E05362" d="M39.81,36.49 C35.99,36.37 32.81,36.95 29.04,35.78 C25.7485843,34.6158753 22.5551478,33.1913685 19.49,31.52 C14.81,29.21 7.54,25.34 3,29.43 C1.61,30.68 1.79,33.52 3.13,34.72 C5.57,36.89 8.69,37.11 11.67,38.35 C15.18,39.8 18.44,41.82 21.81,43.57 C27.18,46.35 35.25,49.77 40.93,46.11 C43.75,44.27 44.33,36.63 39.81,36.49 Z" opacity=".5"/>
        <path id="Path" fill="#C17953" d="M32.51 2.2C31.8839969 1.48356054 30.8559628 1.27467712 30 1.69 29 2.21 28.74 3.21 28.17 4 27.03 5.63 25.45 6 23.74 6.64 21.48 7.49 22.11 12.33 24.39 12.64 25.9660884 12.7157935 27.51801 12.2303751 28.77 11.27 28.99 11.12 29.18 10.96 29.38 10.8 29.2516995 11.1916868 29.1547276 11.5929498 29.09 12 28.76 14 30.09 17.82 32.52 16 34.31 14.61 34.67 11.14 34.64 9 34.61 6.86 34.11 3.78 32.51 2.2zM49.44 8.93C49.19 7.03 47.37 6.49 45.81 5.67 44.6620933 5.11854592 43.7527011 4.17007818 43.25 3 43.0016786 2.17366636 42.3026742 1.56211958 41.4506721 1.42579925 40.59867 1.28947891 39.7437511 1.65239797 39.25 2.36 36.5511943 5.91923822 36.1017717 10.7001654 38.09 14.7 38.75 16.02 40.29 17.15 41.72 15.95 42.9409278 14.6774821 43.3081578 12.8100786 42.66 11.17 43.1718876 11.5011747 43.7143739 11.7824639 44.28 12.01 47 13.1 49.84 12 49.44 8.93z" opacity=".5"/>
        <path id="Shape" fill="#3D454C" d="M39.85,33.57 C36.28,32.67 33.04,32.12 29.7,30.46 C27.5303889,29.1991215 25.2035477,28.2307252 22.78,27.58 C19.9804721,26.9865551 17.2242045,26.2047774 14.53,25.24 C12.37,24.48 10.36,23.93 8.11,24.62 C5.86,25.31 1.11,28.77 0.84,31.38 C0.56,34.38 6.33,37.01 8.37,38.38 C13.0619773,41.4722494 18.0953079,44.0124036 23.37,45.95 C26.4627426,47.0872107 29.6389037,47.9832224 32.87,48.63 C34.43,48.94 38.01,50.01 39.55,49.27 C41.48,48.35 44.44,41.13 44.71,39.01 C45,36.16 42.12,34.47 39.85,33.57 Z M41.68,40.8 C41.45,41.34 41.2,42.17 40.93,43.04 C37.4,44.31 34.74,40.94 31.14,41.19 C29.86,41.28 29.86,43.28 31.14,43.19 C33.45,43.03 34.8,44.33 36.82,45.05 C37.8648238,45.4206636 38.9872727,45.5170703 40.08,45.33 C39.8848578,45.8061351 39.5957708,46.2380651 39.23,46.6 C36.95,48.54 31.36,46.3 28.56,45.52 C21.2163541,43.391488 14.2710362,40.0742204 8,35.7 C7.19,35.14 3,32.45 2.91,31.89 C2.8,31 4.91,29.11 5.63,28.49 C10.28,24.3 15.09,28.15 19.99,29.16 C23.5203448,30.0009799 26.9281761,31.2915195 30.13,33 C33.13,34.42 36.13,34.75 39.31,35.55 C44.13,37.41 42.93,37.84 41.68,40.8 Z"/>
        <path id="Path" fill="#3D454C" d="M33.52 36.47C29.3251675 35.7401099 25.2236819 34.5495724 21.29 32.92 20.1 32.42 19.59 34.36 20.76 34.85 23.5002499 36.0206517 26.3334147 36.96058 29.23 37.66 31.69 38.24 35.86 38.1 37.52 40.32 38.28 41.32 40.02 40.32 39.24 39.32 37.78 37.34 35.86 36.89 33.52 36.47zM17.59 33.89C18.1422847 33.89 18.59 33.4422847 18.59 32.89 18.59 32.3377153 18.1422847 31.89 17.59 31.89 17.0377153 31.89 16.59 32.3377153 16.59 32.89 16.59 33.4422847 17.0377153 33.89 17.59 33.89zM23 38.7C20.73 39.2 18.92 37.36 17.2 36.19 15.9488027 35.2642815 14.4455823 34.7411189 12.89 34.69 12.3377153 34.69 11.89 35.1377153 11.89 35.69 11.89 36.2422847 12.3377153 36.69 12.89 36.69 16.97 36.74 19.08 41.62 23.53 40.62 24.81 40.35 24.28 38.42 23 38.7zM37.8 18.0899758C37.2456975 18.0899758 36.7140979 18.3101958 36.3221468 18.7021468 35.9301958 19.0940979 35.71 19.6256975 35.71 20.18 35.71 20.7322847 36.1577153 21.18 36.71 21.18 37.2622847 21.18 37.71 20.7322847 37.71 20.18 37.71 20.08 37.89 20.08 37.89 20.18 37.89 20.7322847 38.3377153 21.18 38.89 21.18 39.4422847 21.18 39.8900242 20.7322847 39.8900242 20.18 39.8926753 19.6248817 39.6733387 19.0917262 39.2808063 18.6991937 38.8882738 18.3066613 38.3551183 18.0873247 37.8 18.0899758L37.8 18.0899758zM33.43 18.1C32.2741092 18.1055043 31.34 19.0440961 31.34 20.2 31.34 20.7522847 31.7877153 21.2 32.34 21.2 32.8922847 21.2 33.34 20.7522847 33.34 20.2 33.34 20.1 33.52 20.1 33.52 20.2 33.52 20.7522847 33.9677153 21.2 34.52 21.2 35.0722847 21.2 35.520024 20.7522847 35.520024 20.2 35.5226605 19.6439669 35.3036397 19.1097946 34.9114 18.7156781 34.5191602 18.3215616 33.9860394 18.1 33.43 18.1z"/>
        <path id="Shape" fill="#3D454C" d="M48.34,9.06 L42.89,3.47 C40.987062,1.49364846 38.3428042,0.405476546 35.6,0.47 C32.8886052,0.36676599 30.2619961,1.42541318 28.38,3.38 L22.9,9.07 C22.5879863,9.39750903 22.534678,9.8936863 22.77,10.28 C23.6951532,11.6393975 25.2460816,12.437448 26.89,12.4 L27.65,12.4 C27.8736638,13.24731 28.1784036,14.0711122 28.56,14.86 C28.74,15.25 28.92,15.65 29.04,15.98 C28.0696444,16.925812 27.5247223,18.2249641 27.53,19.58 C27.53,22.84 31.16,25.49 35.62,25.49 C40.08,25.49 43.71,22.84 43.71,19.58 C43.7098682,18.2319001 43.1653714,16.9409738 42.2,16 C42.33,15.67 42.5,15.27 42.68,14.88 C43.0689255,14.0931601 43.3771648,13.2689549 43.6,12.42 L44.35,12.42 C45.9961597,12.455328 47.5491399,11.6581566 48.48,10.3 C48.7285876,9.90467996 48.6704721,9.38994233 48.34,9.06 Z M35.62,23.49 C32.32,23.49 29.53,21.7 29.53,19.58 C29.5386284,18.5938039 30.0086463,17.6685717 30.8,17.08 C30.8802819,17.0096153 30.950895,16.9289145 31.01,16.84 C33.6883755,14.5435777 37.6571458,14.5992948 40.27,16.97 C40.3238151,17.0159414 40.3845679,17.0530682 40.45,17.08 C41.238809,17.6696301 41.7052885,18.5951848 41.71,19.58 C41.71,21.7 38.92,23.49 35.62,23.49 Z M44.35,10.4 L42.71,10.4 C42.1577153,10.4 41.71,10.8477153 41.71,11.4 C41.585817,12.3108433 41.2978446,13.1916999 40.86,14 L40.58,14.61 C37.5567238,12.6583986 33.6765923,12.6350008 30.63,14.55 C30.56,14.37 30.47,14.19 30.39,14 C29.9446996,13.1798249 29.6532332,12.2850909 29.53,11.36 C29.53,10.8077153 29.0822847,10.36 28.53,10.36 L26.89,10.36 C26.2125632,10.3857669 25.546371,10.1813269 25,9.78 L29.87,4.78 C31.3733142,3.24852573 33.4560007,2.4270822 35.6,2.52 C37.7601003,2.43053668 39.8580832,3.25448499 41.38,4.79 L41.38,4.84 L46.19,9.78 C45.6623524,10.18492 45.0151038,10.4030146 44.35,10.4 Z"/>
        <path id="Path" fill="#3D454C" d="M32 7.34C31.4477153 7.34 31 7.78771525 31 8.34 31 8.89228475 31.4477153 9.34 32 9.34 32.5522847 9.34 33 8.89228475 33 8.34 33 7.78771525 32.5522847 7.34 32 7.34zM39.22 7.4C38.6677153 7.4 38.22 7.84771525 38.22 8.4 38.22 8.95228475 38.6677153 9.4 39.22 9.4 39.7722847 9.4 40.22 8.95228475 40.22 8.4 40.22 7.84771525 39.7722847 7.4 39.22 7.4z"/>
      </g>
    </g>
  </g>
</svg>
