<svg xmlns="http://www.w3.org/2000/svg" width="64" height="64" viewBox="0 0 64 64" style="background:#fff">
  <g id="Kalb-(Wurstfleisch)" fill="none" fill-rule="evenodd" stroke="none" stroke-width="1">
    <rect width="64" height="64" fill="#FFF"/>
    <g transform="translate(2 4)">
      <g id="Layer_2">
        <rect id="Rectangle" width="60" height="60" x="0" y="0"/>
        <rect id="Rectangle" width="60" height="60" x="0" y="0"/>
      </g>
      <g id="Layer_1" fill-rule="nonzero" transform="translate(2 4)">
        <path id="Path" fill="#E05362" d="M28.79,24.32 C28.1290583,22.0961433 26.2800667,20.4285769 24,20 C22.354508,19.7869832 20.6843086,20.1133036 19.24,20.93 C18.9582426,20.2258282 18.5363796,19.5862295 18,19.05 C16.9278721,17.8493588 15.409741,17.1416635 13.8008341,17.0925077 C12.1919272,17.0433519 10.6334245,17.657049 9.49,18.79 C6.13,21.74 5.32,27 6.22,31.15 C6.98,34.74 9.31,38.66 13.05,39.72 C14.3573275,40.0924217 15.7426725,40.0924217 17.05,39.72 C18.56,45.31 23,51.91 29.2,52.73 C43.75,54.65 42.27,26.18 28.79,24.32 Z" opacity=".5"/>
        <path id="Path" fill="#C17953" d="M38.93 1.44C38.3021343.697501982 37.2451445.48610402 36.38.93 35.45 1.44 35.17 2.44 34.59 3.27 33.46 4.91 31.87 5.27 30.16 5.91 27.9 6.76 28.54 11.6 30.82 11.91 32.3968665 11.9794721 33.9477515 11.4908371 35.2 10.53 35.41 10.39 35.61 10.22 35.8 10.07 35.6785765 10.4391452 35.5849812 10.8168691 35.52 11.2 35.19 13.2 36.52 17.02 38.94 15.2 40.74 13.81 41.1 10.34 41.06 8.2 41.02 6.06 40.54 3 38.93 1.44zM55.87 8.17C55.62 6.27 53.79 5.72 52.24 4.91 51.0845214 4.34619764 50.1717778 3.38373266 49.67 2.2 49.4434294 1.34130483 48.7309595.697550064 47.8537615.558931114 46.9765635.420312164 46.1003086.813009185 45.62 1.56 42.924492 5.14001146 42.497926 9.94081727 44.52 13.94 45.17 15.25 46.72 16.39 48.15 15.19 49.3721353 13.9177314 49.7359747 12.0476749 49.08 10.41 49.5918876 10.7411747 50.1343739 11.0224639 50.7 11.25 53.43 12.33 56.26 11.23 55.87 8.17z" opacity=".5"/>
        <path id="Shape" fill="#3D454C" d="M40.46,34.64 C39.05,31.9 35.66,26.4 30.58,24.81 L30.47,24.81 L30.22,24.76 C30.03,24.71 29.85,24.64 29.66,24.6 C28.4235664,22.9465453 26.5827216,21.8499483 24.54,21.55 L24.49,21.55 L23.43,21.4 C21.7476444,19.1125877 19.058935,17.7850141 16.22,17.84 C15.15,17.25 11.05,15.23 7.02,16.92 C5.43198327,16.94623 3.9088996,17.5547517 2.74,18.63 C1.54648425,19.9068068 0.947313982,21.6280596 1.09,23.37 C0.81,24.3 0.09,27.87 3.93,31.51 C4.1084669,32.4348324 4.44687091,33.3214509 4.93,34.13 C4.9337469,34.3907631 5.06436122,34.6333325 5.28,34.78 C8.84,37.6 12.28,40.55 15.55,43.69 C16.48,44.58 17.9,43.17 16.97,42.28 C13.73,39.17 10.33,36.28 6.82,33.47 C6.79945284,33.4042606 6.77266417,33.3406375 6.74,33.28 C6.39656519,32.7137448 6.14669106,32.0958128 6,31.45 C5.91,30.9 5.2,26.06 7.89,22.82 C9.57,20.82 12.28,19.76 15.95,19.76 L16.07,19.76 C17.6556198,19.7169844 19.2105285,20.2024536 20.49,21.14 C18.0350457,21.1082259 15.6429194,21.9161859 13.71,23.43 C10.3,26.25 9.77,30.71 9.76,33.12 C9.76,33.6722847 10.2077153,34.12 10.76,34.12 L10.76,34.12 C11.3122847,34.12 11.76,33.6722847 11.76,33.12 C11.76,31.06 12.2,27.26 14.98,24.96 C16.8,23.46 19.34,22.87 22.52,23.2 C22.6126228,23.2377024 22.710377,23.2612983 22.81,23.27 C23.0208942,23.2791216 23.2311753,23.2991484 23.44,23.33 L24.04,23.42 C25.0455002,23.578011 26.0044461,23.953399 26.85,24.52 C25.6167077,24.6074948 24.4016578,24.8666606 23.24,25.29 C20.2840474,26.2685803 17.9871939,28.6213636 17.08,31.6 C16.77,32.6 16.52,33.6 16.34,34.45 C16.283681,34.7099657 16.3332555,34.9816574 16.4777583,35.2049799 C16.6222611,35.4283024 16.8497835,35.5848514 17.11,35.64 L17.32,35.64 C17.8027608,35.6497357 18.2235264,35.3131232 18.32,34.84 C18.49,34.02 18.72,33.12 19.01,32.16 C20.61,26.88 26.81,25.97 29.9,26.65 C30.716265,26.8922833 31.4940184,27.2491744 32.21,27.71 C31.2746725,27.4762442 30.3140942,27.3586909 29.35,27.36 C26.9650597,27.2500515 24.6664525,28.2642518 23.14,30.1 C20.37,33.46 20.65,38.7 20.99,40.44 C21.601089,43.3429705 22.920203,46.0499025 24.83,48.32 C23.7030048,47.6873633 22.6353488,46.9543957 21.64,46.13 C21.3649055,45.90135 20.9887244,45.8368299 20.6531604,45.9607437 C20.3175965,46.0846576 20.0736299,46.3781799 20.0131604,46.7307437 C19.952691,47.0833076 20.0849055,47.44135 20.36,47.67 C22.18,49.19 27.11,52.67 33.45,52.67 C33.5065639,52.6748254 33.5634361,52.6748254 33.62,52.67 C33.81,52.67 34,52.67 34.2,52.67 C36.6990655,52.7915935 39.0842156,51.6160283 40.51,49.56 C43.35,45.4 42.21,38.56 41.25,36.15 C41.0173526,35.6311988 40.7535375,35.1269447 40.46,34.64 L40.46,34.64 Z M6.34,21.54 C4.83375315,23.4740083 3.9701048,25.8306844 3.87,28.28 C2.90263538,27.0054792 2.58126465,25.3542986 3,23.81 C3.05321392,23.6766486 3.07708838,23.5334018 3.07,23.39 C2.90267839,22.162804 3.26641217,20.9224718 4.07,19.98 C4.91222015,19.2384211 5.99785027,18.8326445 7.12,18.84 C7.27850251,18.8497659 7.43686553,18.8187818 7.58,18.75 C8.839567,18.2088394 10.2292983,18.045546 11.58,18.28 C9.53332116,18.7870498 7.69929072,19.9280687 6.34,21.54 L6.34,21.54 Z M38.83,48.54 C37.7815222,50.0575447 36.0099952,50.9090942 34.17,50.78 C25.11,50.78 22.94,40.22 22.92,40.11 C22.58,38.38 22.56,33.97 24.65,31.43 C25.8032386,30.0629306 27.5347721,29.3213745 29.32,29.43 C34.49,29.43 37.38,33.26 38.61,35.43 C39.08,36.31 39.33,36.89 39.35,36.95 C40.26,39.27 41.07,45.23 38.83,48.51 L38.83,48.54 Z"/>
        <path id="Path" fill="#3D454C" d="M18.56 44.07C18.0077153 44.07 17.56 44.5177153 17.56 45.07 17.56 45.6222847 18.0077153 46.07 18.56 46.07 19.1122847 46.07 19.56 45.6222847 19.56 45.07 19.56 44.5177153 19.1122847 44.07 18.56 44.07zM28 36C27.4477153 36 27 36.4477153 27 37 27 37.5522847 27.4477153 38 28 38 28.5522847 38 29 37.5522847 29 37 29 36.4477153 28.5522847 36 28 36zM35.65 37.58C35.0977153 37.58 34.65 38.0277153 34.65 38.58 34.65 39.1322847 35.0977153 39.58 35.65 39.58 36.2022847 39.58 36.65 39.1322847 36.65 38.58 36.65 38.0277153 36.2022847 37.58 35.65 37.58zM31.87 42.59C31.3177153 42.59 30.87 43.0377153 30.87 43.59 30.87 44.1422847 31.3177153 44.59 31.87 44.59 32.4222847 44.59 32.87 44.1422847 32.87 43.59 32.87 43.0377153 32.4222847 42.59 31.87 42.59zM43.8 17.69C42.6479994 17.6954728 41.7154728 18.6279994 41.71 19.78 41.71 20.3322847 42.1577153 20.78 42.71 20.78 43.2622847 20.78 43.71 20.3322847 43.71 19.78 43.71 19.68 43.89 19.68 43.89 19.78 43.89 20.3322847 44.3377153 20.78 44.89 20.78 45.4422847 20.78 45.89 20.3322847 45.89 19.78 45.89 18.6257249 44.9542751 17.69 43.8 17.69zM39.43 17.71C38.2779994 17.7154728 37.3454728 18.6479994 37.34 19.8 37.34 20.3522847 37.7877153 20.8 38.34 20.8 38.8922847 20.8 39.34 20.3522847 39.34 19.8 39.34 19.7 39.52 19.7 39.52 19.8 39.52 20.3522847 39.9677153 20.8 40.52 20.8 41.0722847 20.8 41.52 20.3522847 41.52 19.8 41.52 18.6457249 40.5842751 17.71 39.43 17.71L39.43 17.71z"/>
        <path id="Shape" fill="#3D454C" d="M54.34,8.67 L48.89,3.07 C46.9760092,1.11673189 44.3335663,0.0510553558 41.6,0.13 C38.8947015,0.0163768799 36.2690115,1.06010684 34.38,3 L28.9,8.67 C28.5879863,8.99750903 28.534678,9.4936863 28.77,9.88 C29.6951532,11.2393975 31.2460816,12.037448 32.89,12 L33.65,12 C33.8719653,12.8510685 34.1767535,13.6783509 34.56,14.47 C34.74,14.85 34.92,15.25 35.04,15.59 C34.0696444,16.535812 33.5247223,17.8349641 33.53,19.19 C33.53,22.44 37.16,25.09 41.62,25.09 C46.08,25.09 49.71,22.44 49.71,19.19 C49.7152777,17.8349641 49.1703556,16.535812 48.2,15.59 C48.33,15.25 48.5,14.86 48.68,14.47 C49.0708458,13.6805188 49.3791466,12.8527982 49.6,12 L50.35,12 C51.993022,12.0321222 53.5431774,11.2401543 54.48,9.89 C54.7179255,9.49919217 54.6602686,8.99675277 54.34,8.67 Z M41.62,23.09 C38.32,23.09 35.53,21.3 35.53,19.19 C35.5386284,18.2038039 36.0086463,17.2785717 36.8,16.69 C36.8802819,16.6196153 36.950895,16.5389145 37.01,16.45 C39.6954237,14.1772144 43.6443741,14.2283887 46.27,16.57 C46.3260242,16.6156645 46.3863004,16.6558486 46.45,16.69 C47.238809,17.2796301 47.7052885,18.2051848 47.71,19.19 C47.71,21.3 44.92,23.09 41.62,23.09 Z M50.35,10 L48.71,10 C48.1577153,10 47.71,10.4477153 47.71,11 C47.5921165,11.9249374 47.3039215,12.8200369 46.86,13.64 C46.76,13.85 46.67,14.06 46.58,14.26 C45.1011259,13.2728643 43.3579119,12.756873 41.58,12.78 C39.8294337,12.7565863 38.1109232,13.2505711 36.64,14.2 C36.57,14.02 36.48,13.83 36.4,13.64 C35.9499591,12.8210586 35.6550139,11.9260526 35.53,11 C35.53,10.4477153 35.0822847,10 34.53,10 L32.89,10 C32.2078248,10.0142792 31.5411614,9.79558535 31,9.38 L35.87,4.38 C37.3750515,2.85219282 39.4575133,2.03447222 41.6,2.13 C43.7575638,2.04411394 45.8529215,2.86340607 47.38,4.39 L47.38,4.45 L52.19,9.38 C51.6623524,9.78491996 51.0151038,10.0030146 50.35,10 L50.35,10 Z"/>
        <path id="Path" fill="#3D454C" d="M38 6.94C37.4477153 6.94 37 7.38771525 37 7.94 37 8.49228475 37.4477153 8.94 38 8.94 38.5522847 8.94 39 8.49228475 39 7.94 39 7.38771525 38.5522847 6.94 38 6.94zM45.22 7C44.6677153 7 44.22 7.44771525 44.22 8 44.22 8.55228475 44.6677153 9 45.22 9 45.7722847 9 46.22 8.55228475 46.22 8 46.22 7.44771525 45.7722847 7 45.22 7z"/>
      </g>
    </g>
  </g>
</svg>
