<svg xmlns="http://www.w3.org/2000/svg" width="64" height="64" viewBox="0 0 64 64" style="background:#fff">
  <g id="Kalb-(Steaks)" fill="none" fill-rule="evenodd" stroke="none" stroke-width="1">
    <rect width="64" height="64" fill="#FFF"/>
    <g transform="translate(2 4)">
      <g id="Layer_2">
        <rect id="Rectangle" width="60" height="60" x="0" y="0"/>
        <rect id="Rectangle" width="60" height="60" x="0" y="0"/>
      </g>
      <g id="Layer_1" fill-rule="nonzero" transform="translate(4 3)">
        <path id="Path" fill="#E05362" d="M33 39C30.25 45.11 22.43 41.59 18.74 38.54 14.4 35 10.87 30.27 6.14 27.14 1.89 24.33.82 32.14 2.58 34.61 5.53458583 38.4812381 8.82755326 42.0820846 12.42 45.37 15.49 48.37 18.92 51.37 23.12 52.69 30.8 55.07 38.19 51 39.6 43 40.38 38.56 35.69 33.09 33 39zM26.05 23.88C21.25 18.14 8.19 15 1.78 19.47.38 20.47.64 24.02 2.34 24.59 5.87 25.77 9.76 25.14 13.42 25.99 17.08 26.84 20.11 29.51 23.72 30.47 27 31.34 27.58 25.7 26.05 23.88z" opacity=".5"/>
        <path id="Path" fill="#C17953" d="M36.93 2.76C36.2982238 2.02415707 35.2461945 1.81375122 34.38 2.25 33.45 2.77 33.17 3.77 32.59 4.6 31.46 6.23 29.87 6.6 28.16 7.24 25.9 8.09 26.54 12.93 28.82 13.24 30.395753 13.3131873 31.9468005 12.8280423 33.2 11.87 33.41 11.72 33.61 11.56 33.8 11.4 33.6797174 11.7694728 33.5861431 12.1471121 33.52 12.53 33.19 14.53 34.52 18.36 36.94 16.53 38.74 15.14 39.1 11.67 39.06 9.53 39.02 7.39 38.54 4.34 36.93 2.76zM53.87 9.49C53.62 7.59 51.79 7.05 50.24 6.23 49.0852042 5.67013816 48.1722427 4.71099572 47.67 3.53 47.4434294 2.67130483 46.7309595 2.02755006 45.8537615 1.88893111 44.9765635 1.75031216 44.1003086 2.14300918 43.62 2.89 40.9239595 6.4660127 40.4972664 11.2643712 42.52 15.26 43.17 16.58 44.72 17.71 46.15 16.51 47.3744884 15.2389537 47.7386145 13.367424 47.08 11.73 47.589649 12.0650118 48.1325277 12.3465045 48.7 12.57 51.43 13.66 54.26 12.56 53.87 9.49z" opacity=".5"/>
        <path id="Shape" fill="#3D454C" d="M8.72,17.68 C3.92,17.68 0.01,20.68 0.01,24.46 L0.01,31.07 C0.122371072,33.4291241 1.50937092,35.5402759 3.63,36.58 C7.50417267,38.6343677 10.5519637,41.961157 12.26,46 C14.17,50.51 19.61,53.55 25.79,53.55 C33.63,53.55 40,48.66 40,42.64 L40,36 C39.9584499,33.4772176 38.8979932,31.0785655 37.06,29.35 C29,21.3 17,17.68 8.72,17.68 Z M8.72,19.68 C14.2766949,19.8096218 19.7470889,21.0827564 24.79,23.42 L24.79,31.2 C24.7970326,32.5510216 24.978534,33.8954769 25.33,35.2 C21.5130932,32.0827132 16.9681748,29.9839999 12.12,29.1 L3.71,27.62 C3.15796309,27.1818742 2.70759639,26.6291514 2.39,26 L4.66,25.52 C8.19577313,24.7595799 11.8800674,25.1088022 15.21,26.52 C15.3325017,26.5751256 15.4656887,26.602446 15.6,26.6 C15.9988865,26.601389 16.3604469,26.3655887 16.52,26 C16.6979538,25.5115101 16.4719139,24.968145 16,24.75 C12.2941311,23.1700368 8.19188054,22.7685399 4.25,23.6 L2,24.07 C2.32,21.62 5.21,19.68 8.72,19.68 Z M28.8,41.75 L30.91,44.11 C29.2601382,44.6645216 27.5305499,44.9449041 25.79,44.9400632 C20.49,44.9400632 15.68,42.34 14.1,38.61 C12.7378012,35.3926971 10.5885942,32.5694988 7.85,30.4 L11.77,31.12 C17.8280638,32.2211123 23.3302824,35.3531444 27.37,40 L27.87,40.57 C28.1597533,40.9788765 28.4701559,41.3727206 28.8,41.75 Z M38.01,42.64 C38.01,47.55 32.53,51.55 25.79,51.55 C20.49,51.55 15.68,48.95 14.1,45.21 C12.1999482,40.774167 8.85059863,37.1145618 4.6,34.83 C3.10660717,34.1516236 2.10747459,32.7067241 2,31.07 L2,28.78 C2.48828977,29.255443 3.03619532,29.6655318 3.63,30 C7.50417267,32.0543677 10.5519637,35.381157 12.26,39.42 C14.17,43.94 19.61,46.97 25.79,46.97 C30.99,46.97 35.53,44.81 38.01,41.61 L38.01,42.64 Z M32.86,43.29 L29.45,39.35 C27.7230628,36.9833522 26.7916972,34.1297322 26.79,31.2 L26.79,24.4 C30.0563711,26.0674845 33.0477883,28.2258915 35.66,30.8 C37.1089287,32.1471355 37.9526808,34.0221402 38,36 C38,39 36,41.67 32.86,43.29 Z"/>
        <path id="Path" fill="#3D454C" d="M20.51 27.3L20.51 27C20.51 26.4477153 20.0622847 26 19.51 26 18.9577153 26 18.51 26.4477153 18.51 27L18.51 27.27C18.5017157 27.8222847 18.9427153 28.2767157 19.495 28.285 20.0472847 28.2932843 20.5017157 27.8522847 20.51 27.3L20.51 27.3zM41.8 18.2599758C40.6457249 18.2599758 39.71 19.1957249 39.71 20.35 39.71 20.9022847 40.1577153 21.35 40.71 21.35 41.2622847 21.35 41.71 20.9022847 41.71 20.35 41.71 20.25 41.89 20.25 41.89 20.35 41.89 20.9022847 42.3377153 21.35 42.89 21.35 43.4422847 21.35 43.8900242 20.9022847 43.8900242 20.35 43.8926753 19.7948817 43.6733387 19.2617262 43.2808063 18.8691937 42.8882738 18.4766613 42.3551183 18.2573247 41.8 18.2599758zM37.43 18.27C36.2741092 18.2755043 35.34 19.2140961 35.34 20.37 35.34 20.9222847 35.7877153 21.37 36.34 21.37 36.8922847 21.37 37.34 20.9222847 37.34 20.37 37.34 20.27 37.52 20.27 37.52 20.37 37.52 20.9222847 37.9677153 21.37 38.52 21.37 39.0722847 21.37 39.520024 20.9222847 39.520024 20.37 39.5226605 19.8139669 39.3036397 19.2797946 38.9114 18.8856781 38.5191602 18.4915616 37.9860394 18.27 37.43 18.27L37.43 18.27z"/>
        <path id="Shape" fill="#3D454C" d="M52.34,9.23 L46.89,3.64 C44.9784227,1.68202392 42.3352848,0.612441355 39.6,0.69 C36.8886052,0.58676599 34.2619961,1.64541318 32.38,3.6 L26.9,9.24 C26.5879863,9.56750903 26.534678,10.0636863 26.77,10.45 C27.6951532,11.8093975 29.2460816,12.607448 30.89,12.57 L31.65,12.57 C31.8754818,13.4070588 32.1801915,14.2207343 32.56,15 C32.74,15.39 32.92,15.79 33.04,16.12 C32.0696444,17.065812 31.5247223,18.3649641 31.53,19.72 C31.53,22.98 35.16,25.63 39.62,25.63 C44.08,25.63 47.71,22.98 47.71,19.72 C47.7152777,18.3649641 47.1703556,17.065812 46.2,16.12 C46.33,15.79 46.5,15.39 46.68,15 C47.0689255,14.2131601 47.3771648,13.3889549 47.6,12.54 L48.35,12.54 C49.9961597,12.575328 51.5491399,11.7781566 52.48,10.42 C52.70245,10.03619 52.6454517,9.55170394 52.34,9.23 Z M39.62,23.66 C36.32,23.66 33.53,21.87 33.53,19.75 C33.5386284,18.7638039 34.0086463,17.8385717 34.8,17.25 C34.8774457,17.1758932 34.9447009,17.0918241 35,17 C37.6783755,14.7035777 41.6471458,14.7592948 44.26,17.13 C44.3138151,17.1759414 44.3745679,17.2130682 44.44,17.24 C45.228809,17.8296301 45.6952885,18.7551848 45.7000268,19.74 C45.71,21.87 42.92,23.66 39.62,23.66 Z M48.35,10.57 L46.71,10.57 C46.1577153,10.57 45.71,11.0177153 45.71,11.57 C45.5905482,12.4945874 45.3024436,13.3894061 44.86,14.21 L44.58,14.82 C41.5567238,12.8683986 37.6765923,12.8450008 34.63,14.76 C34.56,14.58 34.47,14.4 34.39,14.21 C33.9446996,13.3898249 33.6532332,12.4950909 33.53,11.57 C33.53,11.0177153 33.0822847,10.57 32.53,10.57 L30.89,10.57 C30.2137371,10.5986545 29.5476576,10.3977734 29,10 L33.87,5 C35.3645791,3.45016761 37.4484048,2.61009129 39.6,2.69 C41.7661204,2.61099153 43.8649934,3.44981447 45.38,5 L45.38,5 L50.24,10 C49.6923424,10.3977734 49.0262629,10.5986545 48.35,10.57 L48.35,10.57 Z"/>
        <path id="Path" fill="#3D454C" d="M36 7.51C35.4477153 7.51 35 7.95771525 35 8.51 35 9.06228475 35.4477153 9.51 36 9.51 36.5522847 9.51 37 9.06228475 37 8.51 37 7.95771525 36.5522847 7.51 36 7.51zM43.22 7.57C42.6677153 7.57 42.22 8.01771525 42.22 8.57 42.22 9.12228475 42.6677153 9.57 43.22 9.57 43.7722847 9.57 44.22 9.12228475 44.22 8.57 44.22 8.01771525 43.7722847 7.57 43.22 7.57z"/>
      </g>
    </g>
  </g>
</svg>
