<svg xmlns="http://www.w3.org/2000/svg" width="64" height="64" viewBox="0 0 64 64" style="background:#fff">
  <g id="Kalb-(Schulterbraten)" fill="none" fill-rule="evenodd" stroke="none" stroke-width="1">
    <rect width="64" height="64" fill="#FFF"/>
    <g transform="translate(2 4)">
      <g id="Layer_2">
        <rect id="Rectangle" width="60" height="60" x="0" y="0"/>
        <rect id="Rectangle" width="60" height="60" x="0" y="0"/>
      </g>
      <g id="Layer_1" fill-rule="nonzero" transform="translate(3 3)">
        <path id="Path" fill="#E05362" d="M41.3,35 C40.69,31.62 36.37,29.76 35.22,33.94 C34.07,38.12 32.78,41.94 27.81,42.84 C23.9258664,43.5996281 20.0013001,41.7327196 18.14,38.24 C15.38,33.65 10.67,22.75 3.44,27.24 C1.19,28.64 0.33,34.63 3.64,35.48 C6.37,36.17 8.58,36.72 10.23,39.2 C11.88,41.68 12.72,44.78 14.51,47.28 C17.0637609,50.9116092 21.0414241,53.2858451 25.45,53.81 C35.62,54.88 43,44.33 41.3,35 Z" opacity=".5"/>
        <path id="Path" fill="#E05362" d="M32.66,25.63 C26.56,17.74 10.75,12.9 2.84,20.8 C2.02,21.62 2.04,24.05 3.52,24.15 C8.73,24.5 13.14,22.5 18.52,24 C23.13,25.3 26.52,27.87 30.23,30.78 C32.93,32.92 33.93,27.27 32.66,25.63 Z" opacity=".5"/>
        <path id="Path" fill="#C17953" d="M37.93 3.09C37.3021343 2.34750198 36.2451445 2.13610402 35.38 2.58 34.45 3.09 34.17 4.1 33.59 4.92 32.46 6.56 30.87 6.92 29.16 7.57 26.9 8.41 27.54 13.25 29.82 13.57 31.3968665 13.6394721 32.9477515 13.1508371 34.2 12.19 34.4083758 12.0479122 34.6086854 11.8943416 34.8 11.73 34.6785765 12.0991452 34.5849812 12.4768691 34.52 12.86 34.19 14.86 35.52 18.68 37.94 16.86 39.74 15.47 40.1 12 40.06 9.86 40.02 7.72 39.54 4.66 37.93 3.09zM54.87 9.82C54.62 7.92 52.79 7.37 51.24 6.56 50.0845214 5.99619764 49.1717778 5.03373266 48.67 3.85 48.4434294 2.99130483 47.7309595 2.34755006 46.8537615 2.20893111 45.9765635 2.07031216 45.1003086 2.46300918 44.62 3.21 41.924492 6.79001146 41.497926 11.5908173 43.52 15.59 44.17 16.91 45.72 18.04 47.15 16.84 48.3721353 15.5677314 48.7359747 13.6976749 48.08 12.06 48.5918876 12.3911747 49.1343739 12.6724639 49.7 12.9 52.43 14 55.26 12.88 54.87 9.82z" opacity=".5"/>
        <path id="Shape" fill="#3D454C" d="M9.47,17.59 C4.67,17.59 0.76,20.59 0.76,24.37 L0.76,31 C0.87659975,33.3577468 2.26231393,35.4669415 4.38,36.51 C8.24430177,38.559942 11.2873646,41.8748329 13,45.9 C14.92,50.42 20.36,53.46 26.54,53.46 C34.38,53.46 40.75,48.56 40.75,42.55 L40.75,35.94 C40.7121944,33.4184486 39.6552549,31.0195926 37.82,29.29 C29.74,21.21 17.76,17.59 9.47,17.59 Z M38.76,42.59 C38.76,47.5 33.28,51.5 26.55,51.5 C21.24,51.5 16.44,48.89 14.85,45.16 C12.9641389,40.7082317 9.61659019,37.0326302 5.36,34.74 C3.87407349,34.0632418 2.87673208,32.6286046 2.76,31 L2.76,28.69 C3.2496052,29.1510612 3.79362267,29.550679 4.38,29.88 C8.25399139,31.9315729 11.2993972,35.259615 13,39.3 C14.92,43.81 20.36,46.85 26.54,46.85 C31.73,46.85 36.27,44.69 38.75,41.49 L38.76,42.59 Z M26.55,44.89 C21.24,44.89 16.44,42.29 14.85,38.55 C12.9614122,34.0999789 9.61459637,30.4251822 5.36,28.13 C3.86807145,27.4498725 2.86962988,26.0059724 2.76,24.37 C2.76,21.74 5.76,19.59 9.47,19.59 C17.35,19.59 28.73,23.03 36.47,30.71 C37.9234658,32.066374 38.7673161,33.9524157 38.81,35.94 C38.76,40.85 33.28,44.85 26.55,44.85 L26.55,44.89 Z"/>
        <path id="Shape" fill="#3D454C" d="M28.35,30.92 C26.62,30.52 26.53,30.44 25.96,29.92 L25.8,29.77 C24.7467859,28.879587 23.1866839,28.9458571 22.2127736,29.9223785 C21.2388633,30.8988998 21.1767703,32.4591737 22.07,33.51 L22.21,33.67 C22.7,34.24 22.78,34.33 23.21,36.06 C23.689571,38.1345359 25.6121826,39.5479911 27.7353262,39.3869048 C29.8584698,39.2258185 31.5458185,37.5384698 31.7069048,35.4153262 C31.8679911,33.2921826 30.4545359,31.369571 28.38,30.89 L28.35,30.92 Z M27.35,37.42 C26.2772638,37.4187201 25.347867,36.6760325 25.11,35.63 C24.64,33.63 24.45,33.25 23.69,32.39 L23.56,32.23 C23.4542654,32.1160173 23.3969035,31.9654421 23.4,31.81 C23.4,31.4510149 23.6910149,31.16 24.05,31.16 C24.2054421,31.1569035 24.3560173,31.2142654 24.47,31.32 L24.63,31.45 C25.49,32.21 25.84,32.39 27.88,32.87 C29.0046321,33.152834 29.7452605,34.2256476 29.6110874,35.3775113 C29.4769143,36.5293749 28.5095306,37.4032333 27.35,37.42 L27.35,37.42 Z"/>
        <path id="Path" fill="#3D454C" d="M42.8 18.15C41.6479994 18.1554728 40.7154728 19.0879994 40.71 20.24 40.71 20.7922847 41.1577153 21.24 41.71 21.24 42.2622847 21.24 42.71 20.7922847 42.71 20.24 42.71 20.14 42.89 20.14 42.89 20.24 42.89 20.7922847 43.3377153 21.24 43.89 21.24 44.4422847 21.24 44.89 20.7922847 44.89 20.24 44.89 19.0857249 43.9542751 18.15 42.8 18.15zM38.43 18.1699758C37.2757249 18.1699758 36.34 19.1057249 36.34 20.26 36.34 20.8122847 36.7877153 21.26 37.34 21.26 37.8922847 21.26 38.34 20.8122847 38.34 20.26 38.34 20.16 38.52 20.16 38.52 20.26 38.52 20.8122847 38.9677153 21.26 39.52 21.26 40.0722847 21.26 40.5200242 20.8122847 40.5200242 20.26 40.5226753 19.7048817 40.3033387 19.1717262 39.9108063 18.7791937 39.5182738 18.3866613 38.9851183 18.1673247 38.43 18.1699758L38.43 18.1699758z"/>
        <path id="Shape" fill="#3D454C" d="M53.34,9.13 L47.89,3.53 C45.9784227,1.57202392 43.3352848,0.502441355 40.6,0.58 C37.8886052,0.47676599 35.2619961,1.53541318 33.38,3.49 L27.9,9.13 C27.5879863,9.45750903 27.534678,9.9536863 27.77,10.34 C28.6951532,11.6993975 30.2460816,12.497448 31.89,12.46 L32.65,12.46 C32.8719722,13.3078438 33.1767719,14.1318078 33.56,14.92 C33.74,15.31 33.92,15.71 34.04,16.04 C33.0696444,16.985812 32.5247223,18.2849641 32.53,19.64 C32.53,22.9 36.16,25.55 40.62,25.55 C45.08,25.55 48.71,22.9 48.71,19.64 C48.7262005,18.2711136 48.1804185,16.9554537 47.2,16 C47.33,15.67 47.5,15.27 47.68,14.89 C48.0692402,14.0998255 48.3774787,13.2722722 48.6,12.42 L49.35,12.42 C50.9961597,12.455328 52.5491399,11.6581566 53.48,10.3 C53.6924666,9.92099988 53.6358888,9.44817127 53.34,9.13 Z M40.62,23.55 C37.32,23.55 34.53,21.76 34.53,19.64 C34.5386284,18.6538039 35.0086463,17.7285717 35.8,17.14 C35.8788285,17.070972 35.9463186,16.9899839 36,16.9 C38.6909943,14.6387035 42.6335459,14.6940525 45.26,17.03 C45.3127989,17.0723241 45.3697575,17.1091796 45.43,17.14 L45.43,17.14 C46.2238148,17.7264925 46.6945022,18.6530424 46.7000268,19.64 C46.71,21.76 43.92,23.55 40.62,23.55 Z M49.35,10.46 L47.71,10.46 C47.1577153,10.46 46.71,10.9077153 46.71,11.46 C46.5905482,12.3845874 46.3024436,13.2794061 45.86,14.1 L45.58,14.71 C42.5523586,12.7731017 38.6807799,12.7497555 35.63,14.65 C35.56,14.47 35.47,14.29 35.39,14.1 C34.9446996,13.2798249 34.6532332,12.3850909 34.53,11.46 C34.53,10.9077153 34.0822847,10.46 33.53,10.46 L31.89,10.46 C31.2078248,10.4742792 30.5411614,10.2555853 30,9.84 L34.87,4.84 C36.3689905,3.30201301 38.4547144,2.47937148 40.6,2.58 C42.7601003,2.49053668 44.8580832,3.31448499 46.38,4.85 L46.38,4.91 L51.19,9.84 C50.6623524,10.24492 50.0151038,10.4630146 49.35,10.46 L49.35,10.46 Z"/>
        <path id="Path" fill="#3D454C" d="M37 7.4C36.4477153 7.4 36 7.84771525 36 8.4 36 8.95228475 36.4477153 9.4 37 9.4 37.5522847 9.4 38 8.95228475 38 8.4 38 7.84771525 37.5522847 7.4 37 7.4zM44.22 7.47C43.6677153 7.47 43.22 7.91771525 43.22 8.47 43.22 9.02228475 43.6677153 9.47 44.22 9.47 44.7722847 9.47 45.22 9.02228475 45.22 8.47 45.22 7.91771525 44.7722847 7.47 44.22 7.47z"/>
      </g>
    </g>
  </g>
</svg>
