<svg xmlns="http://www.w3.org/2000/svg" width="64" height="64" viewBox="0 0 64 64" style="background:#fff">
  <g id="Kalb" fill="none" fill-rule="evenodd" stroke="none" stroke-width="1">
    <rect width="64" height="64" fill="#FFF"/>
    <g transform="translate(2 4)">
      <rect id="Rectangle" width="60" height="60" x="0" y="0"/>
      <path id="Path" fill="#C17953" fill-rule="nonzero" d="M50 22C47.4459764 20.1719938 45.0538355 18.1278007 42.85 15.89 42.2248189 15.2355983 41.3052494 14.9517805 40.42 15.14 37.08 13.61 34.17 16.3 33.56 20 32.65 25.5 35.87 31 36.13 36.46 36.27 39.26 39.81 44.46 42.13 40.06 42.8605457 38.796431 43.3425469 37.4047376 43.55 35.96 43.55 35.78 43.68 34.81 43.75 33.82L43.93 33.82C44.55 33.82 45.18 33.82 45.8 33.76 47.0281761 33.6822448 48.2252545 33.3411968 49.31 32.76 52.51 30.88 53.29 24.16 50 22zM21 14.35C19.8466896 14.0458767 18.6175546 14.3260747 17.71 15.1 17.1822454 15.3190288 16.6901532 15.6156323 16.25 15.98 14.95 17.05 14.01 18.52 12.75 19.65 11.0787068 21.0752134 9.17863441 22.2078188 7.13 23 3.93 24.34 4.13 32.77 8.2 32.48 11.71 32.22 16.32 33.71 17.2 37.6 17.86 40.51 21.2 43.6 23.42 39.93 26.87 34.14 30.9 16.53 21 14.35z" opacity=".5"/>
      <path id="Path" fill="#3D454C" fill-rule="nonzero" d="M33.65 42.31C31.9931458 42.31 30.65 43.6531458 30.65 45.31 30.65 45.8622847 31.0977153 46.31 31.65 46.31 32.2022847 46.31 32.65 45.8622847 32.65 45.31 32.65 44.7577153 33.0977153 44.31 33.65 44.31 34.2022847 44.31 34.65 44.7577153 34.65 45.31 34.65 45.8622847 35.0977153 46.31 35.65 46.31 36.2022847 46.31 36.65 45.8622847 36.65 45.31 36.65 43.6531458 35.3068542 42.31 33.65 42.31L33.65 42.31zM22.64 45.34C22.64 45.8922847 23.0877153 46.34 23.64 46.34 24.1922847 46.34 24.64 45.8922847 24.64 45.34 24.64 44.7877153 25.0877153 44.34 25.64 44.34 26.1922847 44.34 26.64 44.7877153 26.64 45.34 26.64 45.8922847 27.0877153 46.34 27.64 46.34 28.1922847 46.34 28.64 45.8922847 28.64 45.34 28.64 43.6831458 27.2968542 42.34 25.64 42.34 23.9831458 42.34 22.64 43.6831458 22.64 45.34zM37.25 37.51C35.0116873 35.994344 32.3518378 35.2243876 29.65 35.31 26.9512875 35.2244504 24.2946383 35.9944936 22.06 37.51 21.6154108 37.8386094 21.5213906 38.4654108 21.85 38.91 22.1786094 39.3545892 22.8054108 39.4486094 23.25 39.12 25.1392355 37.8571877 27.3792167 37.223693 29.65 37.31 31.9239156 37.2236274 34.1670978 37.8570377 36.06 39.12 36.2315792 39.244224 36.4381735 39.3107544 36.65 39.31 37.0804304 39.31 37.4625693 39.0345699 37.5986833 38.6262278 37.7347973 38.2178856 37.5943443 37.7682582 37.25 37.51L37.25 37.51z"/>
      <path id="Path" fill="#3D454C" fill-rule="nonzero" d="M52.37,26.61 L42.3,16.28 C41.9134007,15.8851164 41.2798836,15.8784007 40.885,16.265 C40.4901164,16.6515993 40.4834007,17.2851164 40.87,17.68 L50.32,27.38 C49.1051046,28.6530374 47.4091661,29.3539284 45.65,29.31 L42.65,29.31 C42.0977153,29.31 41.65,29.7577153 41.65,30.31 C41.65,31.86 40.78,33.79 40.01,35.5 C39.4179693,36.6582619 38.9680427,37.8838083 38.67,39.15 C38.6097256,39.5034199 38.7432629,39.8620631 39.02,40.09 C40.6711943,41.3175593 41.6460754,43.2524945 41.65,45.31 C41.65,49.72 36.27,53.31 29.65,53.31 C23.03,53.31 17.65,49.72 17.65,45.31 C17.6586426,43.2536235 18.6325207,41.3206791 20.28,40.09 C20.5604452,39.8643037 20.6979396,39.5052905 20.64,39.15 C20.3374151,37.8851757 19.8876827,36.6601583 19.3,35.5 C18.423071,33.8914744 17.8629436,32.1296192 17.65,30.31 C17.65,29.7577153 17.2022847,29.31 16.65,29.31 L13.65,29.31 C11.8977369,29.348258 10.2101679,28.6478261 9,27.38 L18.42,17.67 C18.732103,17.2686968 18.6934425,16.6970931 18.3301448,16.3414708 C17.9668471,15.9858484 17.3945483,15.9594004 17,16.28 L7,26.62 C6.68798627,26.947509 6.63467797,27.4436863 6.87,27.83 C8.41796676,30.0736942 10.9951069,31.3829567 13.72,31.31 L15.8,31.31 C16.1498867,33.0480491 16.7352859,34.7302308 17.54,36.31 C17.9329553,37.1833601 18.2670348,38.0820339 18.54,39 C16.7076241,40.6063055 15.6548029,42.9232408 15.65,45.36 C15.65,50.88 21.93,55.36 29.65,55.36 C37.37,55.36 43.65,50.88 43.65,45.36 C43.6491088,42.9223913 42.5955885,40.6039176 40.76,39 C41.0626129,38.102301 41.4199492,37.2239885 41.83,36.37 C42.6335523,34.78877 43.222099,33.107208 43.58,31.37 L45.65,31.37 C48.3763316,31.4371938 50.9538922,30.1296266 52.51,27.89 C52.780779,27.4860508 52.7216962,26.945866 52.37,26.61 Z"/>
      <path id="Path" fill="#3D454C" fill-rule="nonzero" d="M21.46,15.75 C26.46,11.39 32.69,11.48 37.74,15.75 C38.74,16.58 40.14,15.17 39.16,14.34 C33.21,9.34 25.96,9.19 20.04,14.34 C19.07,15.18 20.49,16.59 21.46,15.75 Z"/>
      <circle id="Oval" cx="21.92" cy="24.08" r="1" fill="#3D454C" fill-rule="nonzero"/>
      <circle id="Oval" cx="37.22" cy="24.18" r="1" fill="#3D454C" fill-rule="nonzero"/>
      <path id="Path" fill="#3D454C" fill-rule="nonzero" d="M36.59 33.91C34.59 28.91 32.25 22.43 37.26 18.4 38.26 17.59 36.84 16.19 35.84 16.99 30.27 21.47 32.39 28.8 34.66 34.44 35.14 35.62 37.07 35.1 36.59 33.91zM22.53 33.91C22.05 35.1 23.98 35.62 24.46 34.44 26.74 28.79 28.86 21.44 23.28 16.99 22.28 16.19 20.86 17.59 21.86 18.4 26.86 22.42 24.53 28.94 22.53 33.91z"/>
    </g>
  </g>
</svg>
