<svg xmlns="http://www.w3.org/2000/svg" width="64" height="64" viewBox="0 0 64 64" style="background:#fff">
  <g id="Kalb-(Hackfleisch)" fill="none" fill-rule="evenodd" stroke="none" stroke-width="1">
    <rect width="64" height="64" fill="#FFF"/>
    <g transform="translate(2 4)">
      <g id="Layer_2">
        <rect id="Rectangle" width="60" height="60" x="0" y="0"/>
        <rect id="Rectangle" width="60" height="60" x="0" y="0"/>
      </g>
      <g id="Layer_1" fill-rule="nonzero" transform="translate(5 3)">
        <path id="Path" fill="#E05362" d="M45.64,36.23 C41.94,35.35 38.09,35.53 34.3,35.42 C30.86,35.33 27.43,34.98 24.06,35.79 C17.53,37.36 10.59,33.79 4.77,38.64 C3.77,39.49 3.89,42.39 5.57,42.42 C9.57,42.5 13.09,41.65 17.15,42.59 C19.46,43.12 20.91,43.59 23.28,43.17 C30.55,41.97 38.01,43.77 45.22,42.54 C47.72,42.12 48.25,36.85 45.64,36.23 Z" opacity=".5"/>
        <path id="Path" fill="#CCC" d="M38.39,28.1 C35.52,27.1 34.39,28.72 31.81,29.1 C29.81,29.38 29.19,28.54 27.46,28.41 C25.73,28.28 25.17,28.86 23.73,29.14 C18.96,30.06 12.2,24.66 9.73,30.36 C9.31,31.36 10.09,34.19 12.13,32.94 C14.69,31.37 17.31,33.75 19.66,34.45 C22.39,35.27 23.76,34.31 26.44,34.22 C28.38,34.15 29.81,35.01 31.86,34.81 C34.1,34.6 35.54,33.28 37.92,33.51 C41.15,33.81 40.6,28.87 38.39,28.1 Z" opacity=".5"/>
        <path id="Path" fill="#C17953" d="M35.93 1.79C35.3021343 1.04750198 34.2451445.83610402 33.38 1.28 32.45 1.79 32.17 2.79 31.59 3.62 30.46 5.26 28.87 5.62 27.16 6.26 24.9 7.11 25.54 11.95 27.82 12.26 29.3968665 12.3294721 30.9477515 11.8408371 32.2 10.88 32.41 10.74 32.61 10.57 32.8 10.42 32.6785765 10.7891452 32.5849812 11.1668691 32.52 11.55 32.19 13.55 33.52 17.37 35.94 15.55 37.74 14.15 38.1 10.69 38.06 8.55 38.02 6.41 37.54 3.36 35.93 1.79zM52.87 8.51C52.62 6.62 50.79 6.07 49.24 5.26 48.0845214 4.69619764 47.1717778 3.73373266 46.67 2.55 46.4434294 1.69130483 45.7309595 1.04755006 44.8537615.908931114 43.9765635.770312164 43.1003086 1.16300918 42.62 1.91 39.924492 5.49001146 39.497926 10.2908173 41.52 14.29 42.17 15.6 43.72 16.74 45.15 15.53 46.3744884 14.2589537 46.7386145 12.387424 46.08 10.75 46.5893685 11.0882287 47.1322358 11.3730665 47.7 11.6 50.43 12.68 53.26 11.58 52.87 8.51z" opacity=".5"/>
        <path id="Path" fill="#3D454C" d="M49.68,43.12 C47.52,43.19 45.68,45.6 44.19,47.55 C43.9,47.92 43.64,48.26 43.41,48.55 C42.13,50.1 33.31,50.19 27.48,50.26 L27.17,50.26 C21.0914224,50.2624525 15.0200583,49.8414333 9,49 C8,48.82 7.23,48 6.58,46.4 C5.91595878,44.3826413 4.00279408,43.043426 1.88,43.11 C1.32771525,43.11 0.88,43.5577153 0.88,44.11 C0.88,44.6622847 1.32771525,45.11 1.88,45.11 C3.19200202,45.0552052 4.37049103,45.9070253 4.73,47.17 C5.66,49.42 6.94,50.66 8.64,50.97 C14.5452202,51.7896798 20.4982528,52.2172826 26.46,52.25 L27.5,52.25 C36.91,52.15 43.21,51.92 44.95,49.82 C45.2,49.52 45.47,49.15 45.78,48.76 C46.78,47.41 48.53,45.15 49.78,45.11 C50.3322847,45.11 50.78,44.6622847 50.78,44.11 C50.7785951,43.8282537 50.6584001,43.5601727 50.4489772,43.371692 C50.2395542,43.1832114 49.9603371,43.0918215 49.68,43.12 Z"/>
        <path id="Path" fill="#3D454C" d="M24.59,43.27 L26.78,43.27 C28.34,43.27 30.24,43.27 32.24,43.33 C34.45,43.33 36.81,43.41 38.98,43.41 C41.15,43.41 43.22,43.41 44.7,43.24 L45.01,43.24 C45.92,43.24 47.29,43.1 48.01,42.24 C48.3416987,41.8537351 48.4942999,41.3450645 48.43,40.84 C48.1133472,39.2414928 47.5712675,37.6960606 46.82,36.25 C46.27,35.44 43.65,32.36 40.88,32.25 C40.3385082,32.275226 39.905226,32.7085082 39.88,33.25 C39.88,33.8022847 40.3277153,34.25 40.88,34.25 C42.52,34.25 44.62,36.45 45.22,37.34 C45.7580916,38.5103141 46.1607027,39.7382779 46.42,41 C45.9247441,41.156762 45.409395,41.2409693 44.89,41.25 L44.53,41.25 C41.7,41.49 36.69,41.41 32.28,41.33 C30.28,41.33 28.35,41.27 26.78,41.27 L24.56,41.27 C12.86,41.44 6.19,41.33 4.71,40.95 C4.46,40.1 5.31,38.11 6.1,37.1 C7.41,35.42 8.46,34.45 9.96,34.45 L9.96,34.45 C10.5122847,34.45 10.96,34.0022847 10.96,33.45 C10.96,32.8977153 10.5122847,32.45 9.96,32.45 L9.96,32.45 C7.41,32.45 5.82,34.21 4.52,35.87 C3.73,36.87 1.77,40.25 3.14,42.26 C3.63,43 4.05,43.57 24.59,43.27 Z"/>
        <path id="Path" fill="#3D454C" d="M7.75 38.07C7.54252029 38.2366732 7.4100378 38.4791759 7.38188444 38.7438175 7.35373108 39.0084591 7.4322295 39.2734066 7.6 39.48 7.76667319 39.6874797 8.0091759 39.8199622 8.27381749 39.8481156 8.53845909 39.8762689 8.80340657 39.7977705 9.01 39.63L9.4 39.31C10.64 38.31 11.06 37.94 12.77 38.31 13.3769415 38.4545427 13.9719951 38.6450936 14.55 38.88 16.01 39.43 17.67 40.06 19.55 39 22.02 37.62 22.89 37.81 25.55 39.22 28.21 40.63 29.62 39.85 31.17 39.06 31.7121486 38.7759066 32.269676 38.5221816 32.84 38.3 33.84 37.92 34.84 38.44 36.02 39.05 36.9253826 39.6189936 37.9542978 39.9619654 39.02 40.05 39.4022075 40.0499157 39.7813855 39.9822054 40.14 39.85 40.5461184 39.6068929 40.7261729 39.1123577 40.5714275 38.6650467 40.4166821 38.2177358 39.9695263 37.9401813 39.5 38 38.85 38.24 38.11 37.89 36.97 37.28 35.66 36.59 34.03 35.73 32.17 36.42 31.5242975 36.6708224 30.8932908 36.9579471 30.28 37.28 28.85 38 28.2 38.34 26.5 37.44 23.5 35.89 21.9 35.44 18.59 37.25 17.59 37.83 16.69 37.55 15.25 37.01 14.578764 36.734987 13.8865426 36.5142787 13.18 36.35 10.53 35.81 9.47 36.68 8.18 37.78L7.75 38.07zM31.92 32.37C31.2459301 32.398753 30.5895812 32.5946268 30.01 32.94 29.7118197 33.1339738 29.3656144 33.2412975 29.01 33.25 28.5161839 33.1391058 28.047899 32.9355037 27.63 32.65 27.3074865 32.4566082 26.9735401 32.2829561 26.63 32.13 24.8425168 31.259862 22.7416214 31.3234122 21.01 32.3 20.0534809 32.5279702 19.05069 32.4652958 18.13 32.12 16.36 31.68 14.13 31.12 12.5 33.3 12.2645514 33.5825711 12.2032256 33.9715841 12.3403239 34.3128853 12.4774223 34.6541864 12.7908126 34.8926785 13.1563082 34.9338544 13.5218037 34.9750303 13.8804013 34.812243 14.09 34.51 14.91 33.44 15.87 33.62 17.65 34.06 18.987146 34.5437072 20.4473014 34.5683363 21.8 34.13 23.48 33.41 24.25 33.29 25.8 33.97 26.04 34.08 26.3 34.23 26.56 34.38 27.2295339 34.8389564 27.9962055 35.1367262 28.8 35.25L29 35.25C29.6380793 35.2269667 30.2602764 35.0447764 30.81 34.72 31.1108917 34.5257449 31.4536427 34.405782 31.81 34.37 32.3892468 34.3860073 32.9640008 34.4767579 33.52 34.64 35.0696536 35.2323783 36.8241335 34.8066882 37.93 33.57 38.1193127 33.3822334 38.2257983 33.1266375 38.2257983 32.86 38.2257983 32.5933625 38.1193127 32.3377666 37.93 32.15 37.5399625 31.7622764 36.9100375 31.7622764 36.52 32.15 35.9087839 32.9135742 34.8513512 33.1540883 33.97 32.73 33.2578655 32.5233634 32.5214046 32.4123899 31.78 32.4L31.92 32.37zM13.42 30.19C15.25 28.35 16.94 28.68 18.94 29.67 19.7351279 30.2047286 20.7164027 30.3857756 21.65 30.17 23.43 29.69 24.35 27.93 26.49 28.74 27.82 29.24 28.4 30.12 29.91 30.28 31.19 30.42 31.18 28.42 29.91 28.28 28.22 28.1 27.25 26.34 25.48 26.28 23.09 26.19 22.21 28.58 19.6 27.72 17.99 27.18 17.8 26.51 15.93 26.79 14.4404975 27.0213134 13.0636956 27.721976 12 28.79 11.6628347 29.1891459 11.6897846 29.780578 12.0618532 30.1474061 12.4339217 30.5142342 13.0256765 30.5327927 13.42 30.19zM34.31 28.08C33.7577153 28.08 33.31 28.5277153 33.31 29.08 33.31 29.6322847 33.7577153 30.08 34.31 30.08 34.8622847 30.08 35.31 29.6322847 35.31 29.08 35.31 28.5277153 34.8622847 28.08 34.31 28.08zM41.38 17.879974C40.8196167 17.877202 40.2818118 18.1006403 39.8883897 18.4997097 39.4949676 18.898779 39.2792163 19.4397135 39.29 20 39.29 20.5522847 39.7377153 21 40.29 21 40.8422847 21 41.29 20.5522847 41.29 20 41.29 19.9 41.47 19.9 41.47 20 41.47 20.5522847 41.9177153 21 42.47 21 43.0222847 21 43.47 20.5522847 43.47 20 43.4780317 19.440518 43.2613867 18.9011787 42.8685617 18.5027151 42.4757368 18.1042515 41.9395397 17.8799424 41.38 17.879974L41.38 17.879974zM37 17.89C36.4439502 17.892635 35.9118735 18.1167462 35.5215078 18.5127423 35.131142 18.9087383 34.9146726 19.4439695 34.92 20 34.92 20.5522847 35.3677153 21 35.92 21 36.4722847 21 36.92 20.5522847 36.92 20 36.92 19.9502944 36.9602944 19.91 37.01 19.91 37.0597056 19.91 37.1 19.9502944 37.1 20 37.1 20.5522847 37.5477153 21 38.1 21 38.6522847 21 39.1000238 20.5522847 39.1000238 20 39.1026604 19.4413148 38.8825861 18.9045989 38.488471 18.5086071 38.0943559 18.1126152 37.5586916 17.89 37 17.89z"/>
        <path id="Shape" fill="#3D454C" d="M51.91,8.85 L46.46,3.26 C44.5484227,1.30202392 41.9052848,0.232441355 39.17,0.31 C36.4764708,0.22491713 33.8723691,1.28181198 32,3.22 L26.53,8.86 C26.2147346,9.18510424 26.157301,9.68149491 26.39,10.07 C27.3208601,11.4281566 28.8738403,12.225328 30.52,12.19 L31.27,12.19 C31.4928352,13.0389549 31.8010745,13.8631601 32.19,14.65 C32.36,15.04 32.54,15.44 32.66,15.77 C31.6896444,16.715812 31.1447223,18.0149641 31.15,19.37 C31.15,22.63 34.78,25.28 39.24,25.28 C43.7,25.28 47.34,22.63 47.34,19.37 C47.3452777,18.0149641 46.8003556,16.715812 45.83,15.77 C45.95,15.44 46.13,15.04 46.3,14.65 C46.6889255,13.8631601 46.9971648,13.0389549 47.22,12.19 L47.97,12.19 C49.6161597,12.225328 51.1691399,11.4281566 52.1,10.07 C52.325259,9.6681185 52.2468028,9.1643473 51.91,8.85 Z M39.19,23.28 C35.89,23.28 33.1,21.49 33.1,19.37 C33.1086284,18.3838039 33.5786463,17.4585717 34.37,16.87 C34.4523876,16.8017486 34.523289,16.7207184 34.58,16.63 C35.8395936,15.5302693 37.4686911,14.9479384 39.14,15 C40.8844329,14.9467805 42.5773831,15.5951444 43.84,16.8 C43.8938151,16.8459414 43.9545679,16.8830682 44.02,16.91 C44.8113537,17.4985717 45.2813716,18.4238039 45.29,19.41 C45.29,21.49 42.5,23.28 39.19,23.28 Z M47.92,10.19 L46.29,10.19 C45.7377153,10.19 45.29,10.6377153 45.29,11.19 C45.1667668,12.1150909 44.8753004,13.0098249 44.43,13.83 C44.34,14.04 44.24,14.24 44.16,14.44 C41.1367238,12.4883986 37.2565923,12.4650008 34.21,14.38 C34.13,14.2 34.04,14.02 33.96,13.83 C33.5146996,13.0098249 33.2232332,12.1150909 33.1,11.19 C33.1,10.6377153 32.6522847,10.19 32.1,10.19 L30.47,10.19 C29.7844185,10.2065722 29.1138533,9.98775624 28.57,9.57 L33.44,4.57 C34.9467856,3.04585838 37.0290238,2.23185951 39.17,2.33 C41.342986,2.22854819 43.4585681,3.04502495 45,4.58 L49.81,9.52 C49.2719975,9.94722539 48.6069636,10.1829782 47.92,10.19 Z"/>
        <path id="Path" fill="#3D454C" d="M35.53 7.13C34.9777153 7.13 34.53 7.57771525 34.53 8.13 34.53 8.68228475 34.9777153 9.13 35.53 9.13 36.0822847 9.13 36.53 8.68228475 36.53 8.13 36.53 7.57771525 36.0822847 7.13 35.53 7.13zM42.79 7.19C42.2377153 7.19 41.79 7.63771525 41.79 8.19 41.79 8.74228475 42.2377153 9.19 42.79 9.19 43.3422847 9.19 43.79 8.74228475 43.79 8.19 43.79 7.63771525 43.3422847 7.19 42.79 7.19z"/>
      </g>
    </g>
  </g>
</svg>
