<svg xmlns="http://www.w3.org/2000/svg" width="64" height="64" viewBox="0 0 64 64" style="background:#fff">
  <g id="Kalb-(Brust)" fill="none" fill-rule="evenodd" stroke="none" stroke-width="1">
    <rect width="64" height="64" fill="#FFF"/>
    <g transform="translate(2 4)">
      <g id="Layer_2">
        <rect id="Rectangle" width="60" height="60" x="0" y="0"/>
        <rect id="Rectangle" width="60" height="60" x="0" y="0"/>
      </g>
      <g id="Layer_1" fill-rule="nonzero" transform="translate(5 3)">
        <path id="Path" fill="#E05362" d="M39.37 46.35C33.76 41.47 24.73 39.7 17.78 37.35 12.78 35.61 6.16 33.35 3.08 39.35.96 43.5 2.17 49.35 6.83 51.09 12.3906767 52.9350335 18.5002868 51.9776129 23.23 48.52L23.82 48.72C28.38 50.17 33.67 52.66 38.51 52.02 40.94 51.68 40.86 47.65 39.37 46.35zM30.26 29.32C29.0952805 27.8102209 27.2070039 27.0457365 25.32 27.32 24.4724687 27.441872 23.6531788 27.7127117 22.9 28.12 21.7424577 28.7256659 20.8488163 29.736798 20.39 30.96 19.8973749 32.2788237 19.9332013 33.7369606 20.49 35.03 20.84 35.86 21.72 37.13 22.82 36.97 24.19 36.75 24.96 35.88 26.25 35.47 27.344777 35.2844361 28.4219349 35.0067835 29.47 34.64 31.22 33.71 31.34 30.77 30.26 29.32z" opacity=".5"/>
        <path id="Path" fill="#CCC" d="M8.42,19.85 C3.93,20.85 1,26.11 1.36,30.5 C1.51,32.08 2,34.38 3.75,35 C5.29,35.54 6.82,34.21 7.19,32.75 C7.49,31.58 7.5,30.6 8.53,29.84 C9.45215938,29.2215644 10.5714789,28.9684698 11.67,29.13 C12.8,29.24 14.09,30.13 15.2,30.04 C16.92,29.92 17.46,28.12 17.55,26.69 C17.85,22 12.63,18.92 8.42,19.85 Z" opacity=".5"/>
        <path id="Path" fill="#4885E0" d="M39,39.14 C38.62,36.91 37.84,34.88 37.67,32.6 C37.59,31.39 37.12,29.6 35.67,29.35 C34.22,29.1 33.41,30.61 33.32,31.81 C33.05,35.3 33.25,39.59 35.32,42.58 C35.583732,43.0537296 36.0479723,43.3823896 36.5824169,43.4737311 C37.1168614,43.5650725 37.6639043,43.4092499 38.07,43.05 C38.9965009,41.9749951 39.3432815,40.5170248 39,39.14 Z" opacity=".5"/>
        <g id="Group" fill="#C17953" opacity=".5" transform="translate(25)">
          <path id="Path" d="M10.59,1.59 C9.96548496,0.849112705 8.91210285,0.637606848 8.05,1.08 C7.12,1.59 6.83,2.6 6.25,3.43 C5.12,5.06 3.53,5.43 1.82,6.07 C-0.43,6.91 0.2,11.76 2.48,12.07 C4.05743466,12.1438211 5.60977889,11.6547263 6.86,10.69 C7.07,10.55 7.27,10.39 7.47,10.23 C7.34056417,10.5974886 7.24352754,10.9755969 7.18,11.36 C6.85,13.36 8.18,17.18 10.6,15.36 C12.4,13.97 12.76,10.5 12.73,8.36 C12.7,6.22 12.2,3.16 10.59,1.59 Z"/>
        </g>
        <g id="Group" fill="#C17953" opacity=".5" transform="translate(39)">
          <path id="Path" d="M13.53,8.32 C13.28,6.42 11.46,5.88 9.9,5.06 C8.74233548,4.4991817 7.82868212,3.53575734 7.33,2.35 C7.08167857,1.52366636 6.38267423,0.912119584 5.53067212,0.775799247 C4.67867001,0.639478909 3.82375114,1.00239797 3.33,1.71 C0.634491954,5.29001146 0.20792601,10.0908173 2.23,14.09 C2.89,15.41 4.43,16.54 5.86,15.34 C7.0821353,14.0677314 7.44597473,12.1976749 6.79,10.56 C7.30537743,10.8912102 7.85118454,11.172485 8.42,11.4 C11.09,12.49 13.92,11.38 13.53,8.32 Z"/>
        </g>
        <path id="Path" fill="#3D454C" d="M41.18 17.62C40.0279994 17.6254728 39.0954728 18.5579994 39.09 19.71 39.09 20.2622847 39.5377153 20.71 40.09 20.71 40.6422847 20.71 41.09 20.2622847 41.09 19.71 41.09 19.61 41.27 19.61 41.27 19.71 41.27 20.2622847 41.7177153 20.71 42.27 20.71 42.8222847 20.71 43.27 20.2622847 43.27 19.71 43.2645272 18.5579994 42.3320006 17.6254728 41.18 17.62L41.18 17.62zM36.81 17.64C35.6579994 17.6454728 34.7254728 18.5779994 34.72 19.73 34.72 20.2822847 35.1677153 20.73 35.72 20.73 36.2722847 20.73 36.72 20.2822847 36.72 19.73 36.72 19.63 36.9 19.63 36.9 19.73 36.9 20.2822847 37.3477153 20.73 37.9 20.73 38.4522847 20.73 38.9 20.2822847 38.9 19.73 38.8945272 18.5779994 37.9620006 17.6454728 36.81 17.64L36.81 17.64z"/>
        <path id="Shape" fill="#3D454C" d="M51.72,8.6 L46.26,3 C44.3566348,1.04932975 41.7243421,-0.0166400269 39,0.06 C36.2761941,-0.0300253863 33.6417849,1.03827295 31.75,3 L26.28,8.6 C25.9647346,8.92510424 25.907301,9.42149491 26.14,9.81 C27.0733337,11.1653451 28.6246829,11.9616793 30.27,11.93 L31,11.93 C31.2225213,12.7822722 31.5307598,13.6098255 31.92,14.4 C32.1,14.78 32.28,15.18 32.4,15.52 C31.4321405,16.4633943 30.8874314,17.7584312 30.89,19.11 C30.91,22.37 34.54,25 39,25 C43.46,25 47.09,22.35 47.09,19.09 C47.0925686,17.7384312 46.5478595,16.4433943 45.58,15.5 C45.7,15.16 45.88,14.76 46.06,14.38 C46.4551671,13.5971289 46.7701045,12.7762814 47,11.93 L47.76,11.93 C49.4039184,11.967448 50.9548468,11.1693975 51.88,9.81 C52.1075312,9.41711144 52.04183,8.92024577 51.72,8.6 Z M39,23 C35.7,23 32.91,21.21 32.91,19.09 C32.9122774,18.1050245 33.3840024,17.1801463 34.18,16.6 C34.2596604,16.5279486 34.3271924,16.4435337 34.38,16.35 C37.0742275,14.087237 41.0202843,14.1425754 43.65,16.48 C43.7023394,16.525803 43.7593145,16.5660207 43.82,16.6 C44.6122447,17.1833401 45.0829338,18.1061873 45.09,19.09 C45.09,21.23 42.3,23 39,23 Z M47.73,9.91 L46.09,9.91 C45.5377153,9.91 45.09,10.3577153 45.09,10.91 C44.9681003,11.8353938 44.6765564,12.7303656 44.23,13.55 L43.96,14.17 C40.9249315,12.1971103 37.0185238,12.1736719 33.96,14.11 C33.88,13.93 33.8,13.74 33.71,13.55 C33.2660785,12.7300369 32.9778835,11.8349374 32.86,10.91 C32.86,10.3577153 32.4122847,9.91 31.86,9.91 L30.27,9.91 C29.5878248,9.92427916 28.9211614,9.70558535 28.38,9.29 L33.24,4.29 C34.7591574,2.76695014 36.8513015,1.95697074 39,2.06 C41.1605786,1.97374905 43.2591633,2.79288573 44.79,4.32 L44.84,4.38 L49.65,9.31 C49.100774,9.73213603 48.4223862,9.95119877 47.73,9.93 L47.73,9.91 Z"/>
        <path id="Path" fill="#3D454C" d="M35.33 6.87C34.7777153 6.87 34.33 7.31771525 34.33 7.87 34.33 8.42228475 34.7777153 8.87 35.33 8.87 35.8822847 8.87 36.33 8.42228475 36.33 7.87 36.33 7.31771525 35.8822847 6.87 35.33 6.87zM42.59 6.94C42.0377153 6.94 41.59 7.38771525 41.59 7.94 41.59 8.49228475 42.0377153 8.94 42.59 8.94 43.1422847 8.94 43.59 8.49228475 43.59 7.94 43.59 7.38771525 43.1422847 6.94 42.59 6.94zM16.93 48.19C13.53 49.86 9.39 48.5 6.51 47.07 5.67899785 46.7101502 4.92265364 46.1980068 4.28 45.56 3.03450333 44.0848369 3.05576488 41.9204113 4.33 40.47 5.79 38.93 8.33 38.81 10.45 38.88 15.69 39.03 19.21 40.29 21.19 42.73 21.3581158 42.9359883 21.6013435 43.0665453 21.8659261 43.0928159 22.1305087 43.1190865 22.3946605 43.0389076 22.6 42.87 23.0225888 42.5206324 23.085039 41.8961303 22.74 41.47 20.37 38.56 16.37 37.05 10.51 36.88 8.11 36.81 5.13 36.99 3.12 38.88 3.12 38.71 3.12 38.53 3.12 38.35 2.97 37.07 2.83 35.74 2.8 34.45 2.62627224 32.1542001 2.81867402 29.8453787 3.37 27.61 3.87957746 25.5502374 5.34424392 23.8588079 7.31 23.06 9.24 22.42 11.44 23.06 13.52 23.78 18.5647575 25.4981359 23.4976355 27.5287316 28.29 29.86 28.7870563 30.1030053 29.3869947 29.8970563 29.63 29.4 29.8730053 28.9029437 29.6670563 28.3030053 29.17 28.06 24.3000365 25.7004062 19.2907439 23.6399171 14.17 21.89 11.87 21.1 9.17 20.33 6.68 21.16 4.08572984 22.1449314 2.12426006 24.3185526 1.41 27 .795008064 29.4358006.572212935 31.9540607.75 34.46.75 35.84.93 37.22 1.08 38.55 1.23 39.88 1.37 41.16 1.4 42.45 1.4 42.45 1.4 42.45 1.4 42.5 1.22854747 44.101187 1.73639154 45.7008958 2.8 46.91 3.60548301 47.7485154 4.56230071 48.4271095 5.62 48.91 8.02732794 50.191887 10.6944807 50.9099666 13.42 51.0101004 14.9405587 51.0168351 16.4424166 50.6747262 17.81 50.01 18.3040809 49.7640469 18.5054836 49.1643143 18.26 48.67 18.0252085 48.1702596 17.4298225 47.9553835 16.93 48.19z"/>
        <path id="Path" fill="#3D454C" d="M33.87 48.63C29.39 46.39 24.55 45.93 19.87 45.49 16.3954683 45.2779134 12.9512846 44.7150507 9.59 43.81 9.06911376 43.666527 8.5284547 43.96274 8.36899512 44.4789566 8.20953554 44.9951732 8.48894351 45.5447053 9 45.72 12.4909935 46.667833 16.0694687 47.2575443 19.68 47.48 24.39 47.93 28.84 48.35 32.98 50.42 33.1201653 50.4879235 33.2742591 50.5221666 33.43 50.52 33.889008 50.5127838 34.2841471 50.1939729 34.3882358 49.7468644 34.4923246 49.299756 34.2786243 48.8392046 33.87 48.63L33.87 48.63zM23.71 37.09C23.5224619 37.6091367 23.7910135 38.1820467 24.31 38.37 24.8291367 38.5575381 25.4020467 38.2889865 25.59 37.77 26.3745307 35.6811445 28.135269 34.1110595 30.3 33.57 30.8522847 33.4429745 31.1970254 32.8922847 31.0699999 32.34 30.9429744 31.7877153 30.3922847 31.4429746 29.84 31.57 27.0022511 32.2693296 24.7018649 34.3408029 23.71 37.09zM42.23 49.73C41.96 46.73 39.76 39.65 38.57 35.84 38.29 34.94 38.03 34.09 37.99 33.93 37.3870747 31.4958899 35.1770705 29.8051536 32.67 29.86 32.1177153 29.8848528 31.6901472 30.3527153 31.715 30.905 31.7398528 31.4572847 32.2077153 31.8848528 32.76 31.86 34.2879496 31.8542489 35.6237563 32.8890869 36 34.37 36.05 34.59 36.23 35.16 36.62 36.44 37.67 39.8 39.81 46.68 40.17 49.64 39.1639591 49.6824001 38.1565046 49.6018038 37.17 49.4 36.62897 49.2960885 36.1058045 49.649337 36 50.19 35.8960885 50.73103 36.249337 51.2541955 36.79 51.36 37.7508352 51.5563994 38.7293042 51.6535762 39.71 51.65L40.38 51.65C40.8908873 51.7054617 41.3980134 51.5167524 41.7483686 51.1408095 42.0987238 50.7648666 42.251277 50.2457177 42.16 49.74L42.23 49.73zM6 44.3C6.55228475 44.3 7 43.8522847 7 43.3 7 42.7477153 6.55228475 42.3 6 42.3 5.44771525 42.3 5 42.7477153 5 43.3 5 43.8522847 5.44771525 44.3 6 44.3z"/>
      </g>
    </g>
  </g>
</svg>
