<svg xmlns="http://www.w3.org/2000/svg" width="64" height="64" viewBox="0 0 64 64" style="background:#fff">
  <g id="Kalb-(Halsbraten)-" fill="none" fill-rule="evenodd" stroke="none" stroke-width="1">
    <rect width="64" height="64" fill="#FFF"/>
    <g id="37-Kalb-(Halsbraten)" transform="translate(2 4)">
      <g id="Layer_2">
        <rect id="Rectangle" width="60" height="60" x="0" y="0"/>
        <rect id="Rectangle" width="60" height="60" x="0" y="0"/>
      </g>
      <g id="Layer_1" fill-rule="nonzero" transform="translate(1 4)">
        <path id="Path" fill="#E05362" d="M31.8 39.92C28.02 36.6 21.58 35.72 16.7 35.32 11.82 34.92 5.7 35.16 1.56 38.32.14 39.38.1 43.82 2.22 44.26 6.76 45.19 11.64 44.14 16.29 44.57 18.8050589 44.796426 21.2909294 45.2755088 23.71 46 26.04 46.71 28.12 47.86 30.56 48.09 34.25 48.43 33.55 41.45 31.8 39.92zM32.06 26.09C23.36 23.39 10.86 21.37 2.26 25.22.01 26.22-.33 32.02 2.45 32.62 6.89 33.62 11.51 33.3 16.03 33.62 20.9107272 34.0778748 25.7485764 34.9137161 30.5 36.12 35.43 37.24 36.2 27.37 32.06 26.09z" opacity=".5"/>
        <path id="Path" fill="#E05362" d="M20.07,46.38 C17.18,46.55 14.64,47.77 11.63,47.6 C8.62,47.43 5.84,46.18 3.05,44.94 C1.05,44.05 1.22,48.04 2.05,48.94 C6.33,53.31 16.05,55.29 20.98,50.94 C22.07,49.94 22.06,46.26 20.07,46.38 Z" opacity=".5"/>
        <path id="Shape" fill="#3D454C" d="M34,34 C34.1363063,34.0698814 34.2868443,34.1075159 34.44,34.11 C34.8223951,34.1107653 35.1717466,33.893391 35.34,33.55 C35.5854836,33.0556857 35.3840809,32.4559531 34.89,32.21 C33.1337813,31.3440068 31.2163392,30.8535776 29.26,30.77 L29.26,27.54 C30.9084643,27.6229511 32.5220926,28.0450817 34,28.78 C34.1371327,28.8464197 34.2876302,28.8806236 34.44,28.88 C34.8201569,28.8826457 35.1689345,28.6695038 35.34,28.33 C35.452011,28.0887376 35.4632852,27.8127904 35.3713289,27.5631946 C35.2793726,27.3135989 35.091764,27.1109242 34.85,27 C33.0285356,26.0946486 31.0330756,25.5932253 29,25.53 C28.6160824,24.347041 27.5420692,23.5236308 26.3,23.46 L22,23.2 C16.966772,22.900011 11.9192974,22.9300753 6.89,23.29 L4.61,23.46 C3.01652458,23.5849442 1.78552189,24.9116432 1.78,26.51 L1.78,47.13 L1.78,47.13 C1.78600288,48.4091637 2.582036,49.5514712 3.78,50 L11.22,52.74 C14.5940634,53.9952428 18.319251,53.920167 21.64,52.53 L21.79,52.46 L22.14,52.33 L27.43,49.91 C28.1648115,49.5581019 28.7296095,48.92855 29,48.16 C30.7356762,48.2145632 32.4399601,48.6372256 34,49.4 C34.1343616,49.4749237 34.2861874,49.5128802 34.44,49.51 C34.8201569,49.5126457 35.1689345,49.2995038 35.34,48.96 C35.5854836,48.4656857 35.3840809,47.8659531 34.89,47.62 C33.1354695,46.7480406 31.2174536,46.2540579 29.26,46.17 L29.26,43.12 C30.9068923,43.2054269 32.5193701,43.6238547 34,44.35 C34.1343616,44.4249237 34.2861874,44.4628802 34.44,44.46 C34.8201569,44.4626457 35.1689345,44.2495038 35.34,43.91 C35.5854836,43.4156857 35.3840809,42.8159531 34.89,42.57 C33.1354695,41.6980406 31.2174536,41.2040579 29.26,41.12 L29.26,37.86 C30.9077498,37.9398292 32.5213427,38.3585463 34,39.09 C34.1363063,39.1598814 34.2868443,39.1975159 34.44,39.2 C34.8223951,39.2007653 35.1717466,38.983391 35.34,38.64 C35.5854836,38.1456857 35.3840809,37.5459531 34.89,37.3 C33.1337813,36.4340068 31.2163392,35.9435776 29.26,35.86 L29.26,32.86 C30.9006064,32.9172281 32.5127894,33.3049683 34,34 Z M4.76,25.45 L7,25.28 C11.9395515,24.9300511 16.8965673,24.8999883 21.84,25.19 L26.18,25.45 C26.7396114,25.4866741 27.1759592,25.9492027 27.18,26.51 L27.18,44.28 C26.8975094,44.1723551 26.6012674,44.1050274 26.3,44.08 L22,43.82 C16.9664244,43.5283332 11.9192743,43.5617359 6.89,43.92 L4.61,44.09 C4.3254252,44.1117121 4.0456806,44.17575 3.78,44.28 L3.78,26.51 C3.78321328,25.9563304 4.20828237,25.4965618 4.76,25.45 Z M11.92,50.88 L4.47,48.13 C4.00382087,47.9559924 3.72143054,47.4811427 3.79112821,46.9884523 C3.86082588,46.4957618 4.26384753,46.1178729 4.76,46.08 L7,45.91 C9.7,45.7233333 12.41,45.6266667 15.13,45.62 C16.01,45.62 16.89,45.62 17.77,45.62 L18.03,45.82 C19.4667351,46.9297666 20.3056621,48.6445779 20.3000285,50.46 L20.3000285,50.87 C17.5947017,51.8583739 14.6276495,51.8619145 11.92,50.88 Z M26.6,48.1 L22.32,50.1 C22.2388367,48.5465531 21.695629,47.0527321 20.76,45.81 L21.88,45.81 L26.22,46.07 C26.7780276,46.10162 27.2156223,46.5610944 27.2200399,47.12 C27.2236152,47.5400475 26.9811154,47.9233535 26.6,48.1 L26.6,48.1 Z"/>
        <polygon id="Path" fill="#3D454C" points="20.46 27.96 20.48 27.63 20.5 26.96"/>
        <path id="Path" fill="#3D454C" d="M21 29L25.21 29.2500017 25.27 29.2500017C25.7996773 29.2509542 26.2382202 28.8387239 26.2700031 28.31 26.2712903 27.7839358 25.8647754 27.346823 25.34 27.31L21.14 27 20.52 27 20.52 27.67 20.52 29 21 29zM25.34 32.75L21.14 32.49 20.52 32.49 20.52 33.16 20.52 34.49 21.08 34.49 25.29 34.7400017 25.35 34.7400017C25.8796773 34.7409542 26.3182202 34.3287239 26.35 33.8 26.3638105 33.5244854 26.2631943 33.2555038 26.0719551 33.0566908 25.880716 32.8578778 25.615843 32.7468955 25.34 32.75z"/>
        <polygon id="Path" fill="#3D454C" points="20.46 33.46 20.48 33.13 20.5 32.46"/>
        <path id="Path" fill="#3D454C" d="M25.34,38.25 L21.14,38 L20.52,38 L20.52,38.67 L20.52,40 L21,40 L25.21,40.2500017 L25.27,40.2500017 C25.7996773,40.2509542 26.2382202,39.8387239 26.27,39.31 C26.3042777,38.7610285 25.8887653,38.2874337 25.34,38.25 Z"/>
        <polygon id="Path" fill="#3D454C" points="20.46 38.96 20.48 38.63 20.5 37.96"/>
        <path id="Path" fill="#3D454C" d="M17.54 28.83C18.0922847 28.83 18.54 28.3822847 18.54 27.83 18.54 27.2777153 18.0922847 26.83 17.54 26.83 16.9877153 26.83 16.54 27.2777153 16.54 27.83 16.54 28.3822847 16.9877153 28.83 17.54 28.83zM17.66 32.36C17.1077153 32.36 16.66 32.8077153 16.66 33.36 16.66 33.9122847 17.1077153 34.36 17.66 34.36 18.2122847 34.36 18.66 33.9122847 18.66 33.36 18.66 32.8077153 18.2122847 32.36 17.66 32.36zM17.6 37.86C17.0477153 37.86 16.6 38.3077153 16.6 38.86 16.6 39.4122847 17.0477153 39.86 17.6 39.86 18.1522847 39.86 18.6 39.4122847 18.6 38.86 18.6 38.3077153 18.1522847 37.86 17.6 37.86z"/>
        <path id="Path" fill="#C17953" d="M38 1.81C37.3682238 1.07415707 36.3161945.863751221 35.45 1.3 34.52 1.82 34.24 2.82 33.66 3.65 32.53 5.28 30.94 5.65 29.23 6.29 26.97 7.14 27.6 11.98 29.89 12.29 31.465753 12.3631873 33.0168005 11.8780423 34.27 10.92 34.48 10.77 34.67 10.61 34.87 10.45 34.7498307 10.8202411 34.6529743 11.1976469 34.58 11.58 34.25 13.58 35.63 17.41 38.01 15.58 39.8 14.19 40.17 10.72 40.13 8.58 40.09 6.44 39.64 3.39 38 1.81zM55 8.54C54.76 6.64 52.93 6.1 51.37 5.28 50.220042 4.71673095 49.3113004 3.75829253 48.81 2.58 48.5834294 1.72130483 47.8709595 1.07755006 46.9937615.938931114 46.1165635.800312164 45.2403086 1.19300918 44.76 1.94 42.0676051 5.51668917 41.6373858 10.3111152 43.65 14.31 44.31 15.63 45.86 16.76 47.29 15.56 48.5097954 14.2865181 48.8733506 12.4179225 48.22 10.78 48.729649 11.1150118 49.2725277 11.3965045 49.84 11.62 52.54 12.71 55.37 11.61 55 8.54z" opacity=".5"/>
        <path id="Path" fill="#3D454C" d="M43.48 18C42.3257249 18 41.39 18.9357249 41.39 20.09 41.39 20.6422847 41.8377153 21.09 42.39 21.09 42.9422847 21.09 43.39 20.6422847 43.39 20.09 43.39 19.99 43.57 19.99 43.57 20.09 43.57 20.6422847 44.0177153 21.09 44.57 21.09 45.1222847 21.09 45.57 20.6422847 45.57 20.09 45.5645272 18.9379994 44.6320006 18.0054728 43.48 18L43.48 18zM39.11 18C38.5539695 17.9946726 38.0187383 18.211142 37.6227423 18.6015078 37.2267462 18.9918735 37.002635 19.5239502 37 20.08 37 20.6322847 37.4477153 21.08 38 21.08 38.5522847 21.08 39 20.6322847 39 20.08 39 19.98 39.18 19.98 39.18 20.08 39.18 20.6322847 39.6277153 21.08 40.18 21.08 40.7322847 21.08 41.18 20.6322847 41.18 20.08 41.1692543 18.9396126 40.2503224 18.0162413 39.11 18L39.11 18z"/>
        <path id="Shape" fill="#3D454C" d="M54,9 L48.55,3.4 C46.6394941,1.44152714 43.9946672,0.374889146 41.26,0.46 C38.5519042,0.364351061 35.9295151,1.41766527 34.04,3.36 L28.58,9 C28.2647346,9.32510424 28.207301,9.82149491 28.44,10.21 C29.3708601,11.5681566 30.9238403,12.365328 32.57,12.33 L33.32,12.33 C33.5425213,13.1822722 33.8507598,14.0098255 34.24,14.8 C34.41,15.18 34.59,15.58 34.72,15.92 C33.7521405,16.8633943 33.2074314,18.1584312 33.21,19.51 C33.21,22.77 36.84,25.42 41.3,25.42 C45.76,25.42 49.39,22.77 49.39,19.51 C49.3925686,18.1584312 48.8478595,16.8633943 47.88,15.92 C48,15.58 48.18,15.18 48.35,14.8 C48.7392402,14.0098255 49.0474787,13.1822722 49.27,12.33 L50,12.33 C51.6470069,12.3690153 53.2016421,11.5709943 54.13,10.21 C54.365322,9.8236863 54.3120137,9.32750903 54,9 Z M41.3,23.37 C37.99,23.37 35.21,21.58 35.21,19.46 C35.2225353,18.4881644 35.6886819,17.5780688 36.47,17 C36.5560503,16.9315859 36.6274657,16.8465676 36.68,16.75 C37.9350844,15.6394169 39.5646755,15.0461886 41.24,15.09 C42.9830075,15.0341018 44.6757636,15.6787898 45.94,16.88 L46.12,17 C46.9122447,17.5833401 47.3829338,18.5061873 47.39,19.49 C47.39,21.58 44.6,23.37 41.3,23.37 Z M50,10.28 L48.39,10.28 C47.8377153,10.28 47.39,10.7277153 47.39,11.28 C47.2681003,12.2053938 46.9765564,13.1003656 46.53,13.92 L46.26,14.54 C43.2367238,12.5883986 39.3565923,12.5650008 36.31,14.48 C36.23,14.29 36.15,14.11 36.06,13.92 C35.6160785,13.1000369 35.3278835,12.2049374 35.21,11.28 C35.21,10.7277153 34.7622847,10.28 34.21,10.28 L32.57,10.28 C31.8844185,10.2965722 31.2138533,10.0777562 30.67,9.66 L35.54,4.66 C37.0502919,3.14119655 39.1300675,2.32816036 41.27,2.42 C43.4305786,2.33374905 45.5291633,3.15288573 47.06,4.68 L47.06,4.74 L51.87,9.67 C51.3329327,10.0777092 50.6741731,10.2925987 50,10.28 Z"/>
        <path id="Path" fill="#3D454C" d="M37.63 7.22C37.0777153 7.22 36.63 7.66771525 36.63 8.22 36.63 8.77228475 37.0777153 9.22 37.63 9.22 38.1822847 9.22 38.63 8.77228475 38.63 8.22 38.63 7.66771525 38.1822847 7.22 37.63 7.22zM44.89 7.29C44.3377153 7.29 43.89 7.73771525 43.89 8.29 43.89 8.84228475 44.3377153 9.29 44.89 9.29 45.4422847 9.29 45.89 8.84228475 45.89 8.29 45.89 7.73771525 45.4422847 7.29 44.89 7.29z"/>
      </g>
    </g>
  </g>
</svg>
