<svg xmlns="http://www.w3.org/2000/svg" width="64" height="64" viewBox="0 0 64 64" style="background:#fff">
  <g id="Kalb-(Filet)" fill="none" fill-rule="evenodd" stroke="none" stroke-width="1">
    <rect width="64" height="64" fill="#FFF"/>
    <g transform="translate(2 4)">
      <g id="Layer_2">
        <rect id="Rectangle" width="60" height="60" x="0" y="0"/>
        <rect id="Rectangle" width="60" height="60" x="0" y="0"/>
      </g>
      <g id="Layer_1" fill-rule="nonzero" transform="translate(3 4)">
        <path id="Path" fill="#E05362" d="M29.45,29.54 C25.94,29.21 26.93,34.88 28.32,36.14 C29.23,36.97 23.38,39.05 22.47,39.27 C19.32,40.01 15.35,40.11 12.8,38.02 C8.24,34.28 18.03,29.82 20.41,32.56 C23.58,36.23 26.59,31.82 26.67,28.87 C26.9660552,24.2358893 23.7550115,20.1104709 19.19,19.26 C14.63,18.39 9.75,20.8 6.75,23.69 C0.13,30.08 0.06,41.41 6.96,47.69 C13.62,53.69 24.79,51.69 31.32,46.5 C36.45,42.42 39,30.43 29.45,29.54 Z" opacity=".5"/>
        <g id="Group" fill="#C17953" opacity=".5" transform="translate(27 1)">
          <path id="Path" d="M10.59,1 C9.96350253,0.262470424 8.9126355,0.0514695625 8.05,0.49 C7.12,1 6.83,2 6.25,2.84 C5.12,4.47 3.53,4.84 1.82,5.48 C-0.43,6.33 0.2,11.17 2.48,11.48 C4.05575304,11.5531873 5.60680053,11.0680423 6.86,10.11 C7.07,9.96 7.27,9.8 7.47,9.64 C7.34056417,10.0074886 7.24352754,10.3855969 7.18,10.77 C6.85,12.77 8.18,16.6 10.6,14.77 C12.4,13.38 12.76,9.91 12.73,7.77 C12.7,5.63 12.2,2.58 10.59,1 Z"/>
        </g>
        <g id="Group" fill="#C17953" opacity=".5" transform="translate(41 1)">
          <path id="Path" d="M13.53,7.73 C13.28,5.83 11.46,5.29 9.9,4.47 C8.74233548,3.9091817 7.82868212,2.94575734 7.33,1.76 C7.08167857,0.933666355 6.38267423,0.322119584 5.53067212,0.185799247 C4.67867001,0.0494789095 3.82375114,0.412397967 3.33,1.12 C0.634491954,4.70001146 0.20792601,9.50081727 2.23,13.5 C2.89,14.82 4.43,15.95 5.86,14.75 C7.05498999,13.4739849 7.398574,11.6194122 6.74,10 C7.25331748,10.334765 7.79948492,10.6162256 8.37,10.84 C11.09,11.9 13.92,10.8 13.53,7.73 Z"/>
        </g>
        <path id="Path" fill="#3D454C" d="M43.18 17.9C42.6239606 17.9 42.0908398 18.1215616 41.6986 18.5156781 41.3063603 18.9097946 41.0873395 19.4439669 41.089976 20 41.089976 20.5522847 41.5377153 21 42.09 21 42.6422847 21 43.09 20.5522847 43.09 20 43.09 19.9 43.27 19.9 43.27 20 43.27 20.5522847 43.7177153 21 44.27 21 44.8222847 21 45.270024 20.5522847 45.270024 20 45.2726605 19.4439669 45.0536397 18.9097946 44.6614 18.5156781 44.2691602 18.1215616 43.7360394 17.9 43.18 17.9L43.18 17.9zM38.81 17.91C37.6579994 17.9154728 36.7254728 18.8479994 36.72 20 36.72 20.5522847 37.1677153 21 37.72 21 38.2722847 21 38.72 20.5522847 38.72 20 38.72 19.9502944 38.7602944 19.91 38.81 19.91 38.8597056 19.91 38.9 19.9502944 38.9 20 38.9 20.5522847 39.3477153 21 39.9 21 40.4522847 21 40.9 20.5522847 40.9 20 40.8945272 18.8479994 39.9620006 17.9154728 38.81 17.91L38.81 17.91z"/>
        <path id="Shape" fill="#3D454C" d="M53.72,8.87 L48.26,3.28 C46.3590578,1.32461758 43.7260663,0.254738092 41,0.33 C38.289723,0.233157615 35.665623,1.29079348 33.78,3.24 L28.31,8.88 C27.9947346,9.20510424 27.937301,9.70149491 28.17,10.09 C29.1033337,11.4453451 30.6546829,12.2416793 32.3,12.21 L33,12.21 C33.2228352,13.0589549 33.5310745,13.8831601 33.92,14.67 C34.1,15.06 34.28,15.46 34.4,15.79 C33.4296444,16.735812 32.8847223,18.0349641 32.89,19.39 C32.89,22.65 36.52,25.3 40.98,25.3 C45.44,25.3 49.07,22.65 49.07,19.39 C49.0752777,18.0349641 48.5303556,16.735812 47.56,15.79 C47.68,15.46 47.86,15.06 48.04,14.67 C48.4431148,13.8849111 48.7647919,13.0606134 49,12.21 L49.76,12.21 C51.4039184,12.247448 52.9548468,11.4493975 53.88,10.09 C54.1127789,9.69476623 54.0468219,9.1918435 53.72,8.87 Z M41,23.3 C37.7,23.3 34.91,21.51 34.91,19.39 C34.9154978,18.4030424 35.3861852,17.4764925 36.18,16.89 C36.2600032,16.8221273 36.3276668,16.740931 36.38,16.65 C39.069577,14.3742228 43.0252979,14.4296968 45.65,16.78 C45.7002559,16.8257348 45.7576883,16.8628969 45.82,16.89 C46.6113537,17.4785717 47.0813716,18.4038039 47.09,19.39 C47.09,21.51 44.3,23.3 41,23.3 Z M49.73,10.21 L48.09,10.21 C47.5377153,10.21 47.09,10.6577153 47.09,11.21 C46.9667668,12.1350909 46.6753004,13.0298249 46.23,13.85 L45.96,14.46 C42.9249315,12.4871103 39.0185238,12.4636719 35.96,14.4 L35.71,13.85 C35.2675564,13.0294061 34.9794518,12.1345874 34.86,11.21 C34.86,10.6577153 34.4122847,10.21 33.86,10.21 L32.27,10.21 C31.5878248,10.2242792 30.9211614,10.0055853 30.38,9.59 L35.24,4.59 C36.7539747,3.05595984 38.8467838,2.23482291 41,2.33 C43.1519832,2.25359957 45.2387367,3.07598335 46.76,4.6 C46.76,4.6 46.76,4.6 46.81,4.65 L51.62,9.59 C51.0788386,10.0055853 50.4121752,10.2242792 49.73,10.21 L49.73,10.21 Z"/>
        <path id="Path" fill="#3D454C" d="M37.33 7.15C36.7777153 7.15 36.33 7.59771525 36.33 8.15 36.33 8.70228475 36.7777153 9.15 37.33 9.15 37.8822847 9.15 38.33 8.70228475 38.33 8.15 38.33 7.59771525 37.8822847 7.15 37.33 7.15zM44.59 7.21C44.0377153 7.21 43.59 7.65771525 43.59 8.21 43.59 8.76228475 44.0377153 9.21 44.59 9.21 45.1422847 9.21 45.59 8.76228475 45.59 8.21 45.59 7.65771525 45.1422847 7.21 44.59 7.21z"/>
        <path id="Shape" fill="#3D454C" d="M36.93,36 C36.9394609,35.8564705 36.9154996,35.7127028 36.86,35.58 C36.8287796,35.4306264 36.763787,35.2903793 36.67,35.17 C36.082039,33.6986829 35.1693265,32.3791808 34,31.31 C33.9764414,31.2481238 33.9426358,31.1906543 33.9,31.14 C27.36,24.01 20.52,16.4 10.1,20.14 C6.23960705,21.5618243 3.15492102,24.5412681 1.6,28.35 C0.73183524,30.2521056 0.713655369,32.4336901 1.55,34.35 C0.86,37.35 0.27,41.4 2.11,44.04 C4.39,47.31 8.82,49.48 12.3,51.19 L12.44,51.19 C15.52,54.75 24.17,49.78 27.44,48.37 C33.5,45.81 38.3,43.37 36.93,36 Z M3.09,37 C3.71315615,37.8225298 4.38081933,38.6103723 5.09,39.36 C5.96,40.36 7.37,38.89 6.5,37.95 C2.44,33.5 2,29.29 6.16,25 C8.82014691,22.4116838 12.3688789,20.9378153 16.08,20.88 C21.42,20.88 25.85,25.15 29.51,29.2 C20.75,27.9 8.88,38.28 11.26,48.4 C8.91744061,47.2532979 6.75467297,45.7710273 4.84,44 C2.91,42.14 2.73,39.53 3.09,37 Z M28.59,45.78 C25.18,47.23 20.73,50 17,50.11 C9.11,50.33 14.89,38.05 17.83,35.47 C22.64,31.25 32.01,28.55 34.98,36.06 C36.08,41.49 32.9,43.86 28.59,45.74 L28.59,45.78 Z"/>
        <path id="Path" fill="#3D454C" d="M7.77,40.68 L7.77,40.92 C7.77,41.4722847 8.21771525,41.92 8.77,41.92 C9.32228475,41.92 9.77,41.4722847 9.77,40.92 L9.77,40.68 C9.77,40.1277153 9.32228475,39.68 8.77,39.68 C8.21771525,39.68 7.77,40.1277153 7.77,40.68 Z"/>
      </g>
    </g>
  </g>
</svg>
