<svg xmlns="http://www.w3.org/2000/svg" width="64" height="64" viewBox="0 0 64 64" style="background:#fff">
  <g id="Kalb-(Leber)" fill="none" fill-rule="evenodd" stroke="none" stroke-width="1">
    <rect width="64" height="64" fill="#FFF"/>
    <g transform="translate(2 4)">
      <g id="Layer_2">
        <rect id="Rectangle" width="60" height="60" x="0" y="0"/>
        <rect id="Rectangle" width="60" height="60" x="0" y="0"/>
      </g>
      <g id="Layer_1" fill-rule="nonzero" transform="translate(5 4)">
        <path id="Path" fill="#E05362" d="M35.24,33.88 C34.67,36.98 24.81,38.83 22.51,39.58 C19.02,40.71 13.68,43.58 10.06,43.09 C5.32,42.43 11.19,38.01 13.15,36.91 C16.56,35 20.15,34.82 23.89,34.23 C26.5,33.82 26.81,29.16 24.89,27.77 C12.47,18.77 -5.55,37.19 2.3,49.86 C6.78,57.12 16.63,52.51 22.79,50.57 C30.73,48.06 40.79,46.31 42.17,36.57 C43,30.92 36.55,26.78 35.24,33.88 Z" opacity=".5"/>
        <path id="Path" fill="#C17953" d="M35.93 1.11C35.2982238.374157073 34.2461945.163751221 33.38.6 32.45 1.12 32.17 2.12 31.59 2.95 30.46 4.58 28.87 4.95 27.16 5.59 24.9 6.44 25.54 11.28 27.82 11.59 29.395753 11.6631873 30.9468005 11.1780423 32.2 10.22 32.41 10.07 32.61 9.91 32.8 9.75 32.6785765 10.1191452 32.5849812 10.4968691 32.52 10.88 32.19 12.88 33.52 16.7 35.94 14.88 37.74 13.49 38.1 10.02 38.06 7.88 38.02 5.74 37.54 2.69 35.93 1.11zM52.87 7.84C52.62 5.94 50.79 5.4 49.24 4.58 48.0823355 4.0191817 47.1686821 3.05575734 46.67 1.87 46.4359751 1.01763847 45.7245629.381260327 44.8514919.243293549 43.9784209.105326772 43.1054467.491332755 42.62 1.23 39.924492 4.81001146 39.497926 9.61081727 41.52 13.61 42.17 14.93 43.72 16.06 45.15 14.86 46.3744884 13.5889537 46.7386145 11.717424 46.08 10.08 46.5918876 10.4111747 47.1343739 10.6924639 47.7 10.92 50.43 12 53.26 10.91 52.87 7.84z" opacity=".5"/>
        <path id="Shape" fill="#3D454C" d="M28.29,29.1 L28.29,29.1 C21.69,25.36 13.53,25.29 7.29,29.93 C2.34,33.58 -1.87,41.9 1.12,48 C5.87,57.69 23.36,49.37 29.66,44.75 C35.78,43.92 42.55,39.67 42.31,34.55 C42,28.85 33.36,26.88 28.29,29.1 Z M40.29,35.53 C39.73,38.81 34.43,41.92 29.72,42.73 C29.4649875,42.6729679 29.1978952,42.7121414 28.97,42.84 C26.7,43.12 24.63,42.84 23.4,41.68 C22.4,40.81 21.03,42.22 21.98,43.1 C23.150078,44.0826734 24.5969913,44.6768166 26.12,44.8 C20.02,48.62 9.61,52.92 4.39,48.8 C-0.67,44.8 3.84,35.58 7.44,32.35 C12.75,27.56 20.24,27.2 26.44,30.29 C26.1158771,30.5863932 25.8303044,30.9223611 25.59,31.29 C24.88,32.37 26.59,33.37 27.32,32.29 C29.77,28.51 41.19,30 40.24,35.53 L40.29,35.53 Z"/>
        <path id="Path" fill="#3D454C" d="M9.21 33.72C6.27552717 35.3607362 4.41588805 38.4196528 4.31 41.78 4.31 42.3322847 4.75771525 42.78 5.31 42.78 5.86228475 42.78 6.31 42.3322847 6.31 41.78 6.40954633 39.1266751 7.89374535 36.720071 10.22 35.44 10.6510563 35.1423428 10.7793536 34.5624798 10.5141001 34.110761 10.2488466 33.6590422 9.6799501 33.4885778 9.21 33.72L9.21 33.72zM6.41 44.48C5.85771525 44.48 5.41 44.9277153 5.41 45.48 5.41 46.0322847 5.85771525 46.48 6.41 46.48 6.96228475 46.48 7.41 46.0322847 7.41 45.48 7.41 44.9277153 6.96228475 44.48 6.41 44.48zM40.8 17.8C39.6479994 17.8054728 38.7154728 18.7379994 38.71 19.89 38.71 20.4422847 39.1577153 20.89 39.71 20.89 40.2622847 20.89 40.71 20.4422847 40.71 19.89 40.71 19.79 40.89 19.79 40.89 19.89 40.89 20.4422847 41.3377153 20.89 41.89 20.89 42.4422847 20.89 42.89 20.4422847 42.89 19.89 42.89 18.7357249 41.9542751 17.8 40.8 17.8zM36.43 17.82C35.2779994 17.8254728 34.3454728 18.7579994 34.34 19.91 34.34 20.4622847 34.7877153 20.91 35.34 20.91 35.8922847 20.91 36.34 20.4622847 36.34 19.91 36.34 19.81 36.52 19.81 36.52 19.91 36.52 20.4622847 36.9677153 20.91 37.52 20.91 38.0722847 20.91 38.52 20.4622847 38.52 19.91 38.52 18.7557249 37.5842751 17.82 36.43 17.82L36.43 17.82z"/>
        <path id="Shape" fill="#3D454C" d="M51.34,8.78 L45.89,3.18 C43.9760092,1.22673189 41.3335663,0.161055356 38.6,0.24 C35.8914626,0.141825238 33.2680868,1.19553576 31.38,3.14 L25.9,8.78 C25.5829773,9.10918275 25.5294618,9.61140502 25.77,10 C26.7011784,11.3513562 28.2492414,12.1441749 29.89,12.11 L30.65,12.11 C30.8736445,12.9605406 31.1783739,13.7876631 31.56,14.58 C31.74,14.96 31.92,15.36 32.04,15.7 C31.0721405,16.6433943 30.5274314,17.9384312 30.53,19.29 C30.53,22.55 34.16,25.2 38.62,25.2 C43.08,25.2 46.71,22.55 46.71,19.29 C46.7125686,17.9384312 46.1678595,16.6433943 45.2,15.7 C45.33,15.36 45.5,14.96 45.68,14.58 C46.0692402,13.7898255 46.3774787,12.9622722 46.6,12.11 L47.35,12.11 C48.993022,12.1421222 50.5431774,11.3501543 51.48,10 C51.7179255,9.60919217 51.6602686,9.10675277 51.34,8.78 Z M38.62,23.2 C35.32,23.2 32.53,21.41 32.53,19.29 C32.5401956,18.3069538 33.0102131,17.3854233 33.8,16.8 C33.8779646,16.7273351 33.9483275,16.6469204 34.01,16.56 C36.6954237,14.2872144 40.6443741,14.3383887 43.27,16.68 C43.3202559,16.7257348 43.3776883,16.7628969 43.44,16.79 L43.44,16.79 C44.2334867,17.3722849 44.7045173,18.2958015 44.71,19.28 C44.71,21.41 41.92,23.2 38.62,23.2 Z M47.35,10.11 L45.71,10.11 C45.1577153,10.11 44.71,10.5577153 44.71,11.11 C44.5921165,12.0349374 44.3039215,12.9300369 43.86,13.75 C43.76,13.96 43.67,14.17 43.58,14.37 C42.1011259,13.3828643 40.3579119,12.866873 38.58,12.89 C36.8294337,12.8665863 35.1109232,13.3605711 33.64,14.31 C33.57,14.13 33.48,13.94 33.4,13.75 C32.9534436,12.9303656 32.6618997,12.0353938 32.54,11.11 C32.54,10.5577153 32.0922847,10.11 31.54,10.11 L29.89,10.11 C29.2078248,10.1242792 28.5411614,9.90558535 28,9.49 L32.87,4.49 C34.3750515,2.96219282 36.4575133,2.14447222 38.6,2.24 C40.7575638,2.15411394 42.8529215,2.97340607 44.38,4.5 L44.38,4.56 L49.19,9.49 C48.6623524,9.89491996 48.0151038,10.1130146 47.35,10.11 Z"/>
        <path id="Path" fill="#3D454C" d="M35 7.05C34.4477153 7.05 34 7.49771525 34 8.05 34 8.60228475 34.4477153 9.05 35 9.05 35.5522847 9.05 36 8.60228475 36 8.05 36 7.49771525 35.5522847 7.05 35 7.05zM42.22 7.12C41.6677153 7.12 41.22 7.56771525 41.22 8.12 41.22 8.67228475 41.6677153 9.12 42.22 9.12 42.7722847 9.12 43.22 8.67228475 43.22 8.12 43.22 7.56771525 42.7722847 7.12 42.22 7.12z"/>
      </g>
    </g>
  </g>
</svg>
