<svg xmlns="http://www.w3.org/2000/svg" width="64" height="64" viewBox="0 0 64 64" style="background:#fff">
  <g id="Kalb-(Haxen)" fill="none" fill-rule="evenodd" stroke="none" stroke-width="1">
    <rect width="64" height="64" fill="#FFF"/>
    <g id="37-Kalb-(Haxen)" transform="translate(2 4)">
      <g id="Layer_2">
        <rect id="Rectangle" width="60" height="60" x="0" y="0"/>
        <rect id="Rectangle" width="60" height="60" x="0" y="0"/>
      </g>
      <g id="Layer_1" fill-rule="nonzero" transform="translate(3 3)">
        <path id="Path" fill="#4885E0" d="M17.18,25.07 C14.94,23.97 12.58,25.89 11.39,27.71 C10.06,29.71 9.39,33.71 11.57,35.43 C11.874713,35.6559102 12.266615,35.7285904 12.6320708,35.6269663 C12.9975267,35.5253422 13.2956509,35.2607831 13.44,34.91 C13.6760154,34.4102653 13.8345011,33.8774833 13.91,33.33 C13.91,33.16 13.91,33.13 13.91,33.13 L14,33 C14.45,32.25 13.72,33.4 14.18,32.64 C14.2792145,32.4531621 14.4000432,32.2786317 14.54,32.12 C15.32,31.23 16.54,30.97 17.6,30.44 C18.54,29.98 18.79,28.58 18.72,27.65 C18.7053549,26.5763787 18.1180453,25.5924444 17.18,25.07 L17.18,25.07 Z" opacity=".5"/>
        <path id="Path" fill="#E05362" d="M33.82,28.93 C29.29,25.22 21.9,27.15 18.11,31 C16.1173057,33.0609815 14.7569449,35.6498312 14.19,38.46 C13.69,40.88 13.26,45.21 15.82,46.71 C16.2722502,47.0886624 16.9002246,47.1778193 17.44,46.94 C20.11,45.28 19.68,41.13 22.19,39.01 C25.52,36.19 28.9,37.52 32.73,37.77 C36.74,38.07 35.77,30.53 33.82,28.93 Z" opacity=".5"/>
        <path id="Path" fill="#E05362" d="M34.18,38.83 C33.32,38.73 32.5,39.63 32.08,40.23 C31.1175481,41.8493153 29.6587441,43.1152486 27.92,43.84 C27.1080305,44.1578029 26.2418346,44.3140579 25.37,44.3 C25.1849314,44.2817871 25.0012211,44.2517254 24.82,44.21 C24.7006189,43.6912376 24.412158,43.2268858 24,42.89 C20.54,40.21 18.89,45.77 19.4,48.41 C20.13,52.14 23.4,54.08 26.99,53.72 C30.4781691,53.3473067 33.624625,51.4557745 35.59,48.55 C37.33,46 38.74,39.37 34.18,38.83 Z" opacity=".5"/>
        <path id="Shape" fill="#3D454C" d="M38.84,31.4 L38.43,31.05 L38.37,31 C33.2952269,26.736181 27.2910933,23.7221265 20.84,22.2 L12.37,20.2 C11.3441832,19.9708268 10.406522,19.4499039 9.67,18.7 C8.87443665,17.9556129 8.23825803,17.0574784 7.8,16.06 C7.13007232,14.3581967 5.39122122,13.3275226 3.57672304,13.5567251 C1.76222486,13.7859276 0.33428717,15.216622 0.108584601,17.0315588 C-0.117117967,18.8464957 0.916907858,20.5833557 2.62,21.25 C3.61729153,21.6840881 4.51559141,22.3169812 5.26,23.11 C6.00311368,23.8556428 6.52271037,24.7943808 6.76,25.82 L8.76,34.31 C10.2664955,40.7478774 13.2635954,46.7420772 17.51,51.81 L17.59,51.87 C17.71,52.01 17.82,52.15 17.95,52.28 C19.5707632,53.8405488 21.7509747,54.6838041 24,54.62 C27.79,54.62 32.16,52.72 35.7,49.18 C41.47,43.42 42.88,35.44 38.84,31.4 Z M3.38,19.4 C2.52548935,19.0597723 2.01318236,18.1806154 2.13846659,17.2694363 C2.26375082,16.3582573 2.99432329,15.6499924 3.90894824,15.5530152 C4.82357318,15.456038 5.68642587,15.9953529 6,16.86 C6.54415861,18.0965125 7.32557685,19.2142803 8.3,20.15 C8.73790164,20.5758487 9.22461272,20.9484344 9.75,21.26 C9.00355349,21.7765061 8.35650608,22.4235535 7.84,23.17 C7.52755156,22.6482673 7.15500827,22.1649679 6.73,21.73 C5.77996518,20.7451455 4.64042025,19.9627714 3.38,19.43 L3.38,19.4 Z M8.75,25.57 C9.33061949,24.0070686 10.5653551,22.775986 12.13,22.2 L20.39,24.12 C24.6339018,25.1272825 28.6864602,26.8158485 32.39,29.12 C28.0775824,29.4588815 24.0457571,31.3910206 21.08,34.54 C19.2471175,36.3546081 17.7894013,38.5122998 16.79,40.89 C15.5685183,38.4071474 14.6325382,35.7937836 14,33.1 L14,33 C13.8508709,32.4838977 13.3206127,32.1778392 12.7991219,32.3068678 C12.2776311,32.4358965 11.9512654,32.9539032 12.06,33.48 L12.06,33.56 C12.880749,37.0594324 14.190277,40.4258285 15.95,43.56 C15.7865506,44.3032508 15.689502,45.0595612 15.66,45.82 C13.3553763,42.1167035 11.6667773,38.0640658 10.66,33.82 L8.75,25.57 Z M34.29,47.77 C29.29,52.77 22.6,54.16 19.34,50.9 C17.64,49.2 17.22,46.57 17.91,43.73 C17.91,43.73 17.91,43.66 17.91,43.62 C18.7280338,40.720852 20.3017257,38.0911301 22.47,36 C24.7249322,33.6585671 27.6180539,32.0311861 30.79,31.32 C31.4490351,31.1927045 32.1187842,31.1290784 32.79,31.13 C34.518005,31.0540475 36.2029859,31.6818562 37.46,32.87 C39,34.34 39.5,36.7 39,39.46 C38.2819796,42.6331453 36.6435612,45.523858 34.29,47.77 Z"/>
        <path id="Path" fill="#3D454C" d="M32.74,32.47 C31.2199895,32.4957065 29.721808,32.8362023 28.34,33.47 C27.8346595,33.6964368 27.6085633,34.2896595 27.835,34.795 C28.0614368,35.3003405 28.6546595,35.5264367 29.16,35.3 C30.2796907,34.763757 31.4990877,34.4674231 32.74,34.43 C33.5711056,34.3783551 34.3904685,34.6467054 35.03,35.18 C35.98,36.18 35.82,37.84 35.64,38.78 C35.049801,41.2800681 33.7471844,43.5553052 31.89,45.33 C29.5,47.72 26.48,49.21 24.02,49.21 C23.1920106,49.2611027 22.3759605,48.9926652 21.74,48.46 C20.74,47.46 20.98,45.62 21.13,44.86 C21.3700138,43.6838301 21.8024915,42.5553337 22.41,41.52 C22.64835,41.0411587 22.4676955,40.4595393 22,40.2 C21.5220208,39.9286117 20.9146085,40.0938636 20.64,40.57 C19.9231249,41.8126459 19.4131334,43.1636166 19.13,44.57 C18.88,45.9 18.69,48.36 20.29,49.97 C21.3114592,50.8658181 22.643465,51.3253781 24,51.25 C27,51.25 30.53,49.54 33.29,46.78 C35.4276829,44.7210282 36.9185397,42.0833585 37.58,39.19 C37.84,37.87 38.02,35.4 36.42,33.8 C35.414398,32.8925871 34.0933755,32.4151523 32.74,32.47 Z"/>
        <path id="Path" fill="#3D454C" d="M27.45 43.6200167C27.715803 43.6215368 27.9712812 43.5171865 28.16 43.33L29.85 41.63C30.1353762 41.3856101 30.2596819 41.0018816 30.1718101 40.636581 30.0839383 40.2712805 29.7987195 39.9860617 29.433419 39.8981899 29.0681184 39.8103181 28.6843899 39.9346238 28.44 40.22L26.74 41.92C26.3522764 42.3100375 26.3522764 42.9399625 26.74 43.33 26.9287188 43.5171865 27.184197 43.6215368 27.45 43.6200167L27.45 43.6200167zM12.37 30.91C12.506182 30.921092 12.6424498 30.8896456 12.76 30.82 12.8806078 30.7787872 12.9901042 30.710352 13.08 30.62 13.2671865 30.4312812 13.3715368 30.175803 13.3700167 29.91L13.3700167 29.64C13.322908 29.4732886 13.2333153 29.3216703 13.11 29.2L12.91 29.05C12.7556443 28.9584107 12.5794833 28.9100528 12.4 28.91L12.2 28.91C12.063818 28.898908 11.9275502 28.9303544 11.81 29 11.6893922 29.0412128 11.5798958 29.109648 11.49 29.2 11.3028135 29.3887188 11.1984632 29.644197 11.1999833 29.91L11.1999833 30.18C11.2509204 30.3450452 11.3399909 30.49578 11.46 30.62L11.66 30.77C11.8143557 30.8615893 11.9905167 30.9099472 12.17 30.91L12.37 30.91zM24.55 38.32C25.1022847 38.32 25.55 37.8722847 25.55 37.32 25.55 36.7677153 25.1022847 36.32 24.55 36.32 23.9977153 36.32 23.55 36.7677153 23.55 37.32 23.55 37.8722847 23.9977153 38.32 24.55 38.32z"/>
        <path id="Path" fill="#C17953" d="M36 2C35.3721343 1.25750198 34.3151445 1.04610402 33.45 1.49 32.56 2 32.28 3 31.7 3.84 30.57 5.48 28.98 5.84 27.27 6.48 25.01 7.33 25.64 12.17 27.93 12.48 29.5068665 12.5494721 31.0577515 12.0608371 32.31 11.1 32.52 10.96 32.71 10.79 32.91 10.64 32.7898307 11.0102411 32.6929743 11.3876469 32.62 11.77 32.29 13.77 33.67 17.59 36.05 15.77 37.84 14.38 38.21 10.91 38.17 8.77 38.13 6.63 37.64 3.58 36 2zM53 8.74C52.76 6.84 50.93 6.29 49.37 5.48 48.2193578 4.91280526 47.310828 3.95104133 46.81 2.77 46.5834294 1.91130483 45.8709595 1.26755006 44.9937615 1.12893111 44.1165635.990312164 43.2403086 1.38300918 42.76 2.13 40.0658319 5.70980073 39.6356194 10.5080273 41.65 14.51 42.31 15.82 43.86 16.96 45.29 15.76 46.4890051 14.4827865 46.8399267 12.6268014 46.19 11 46.7018876 11.3311747 47.2443739 11.6124639 47.81 11.84 50.54 12.9 53.37 11.8 53 8.74z" opacity=".5"/>
        <path id="Path" fill="#3D454C" d="M41.48 18.16C40.9239606 18.16 40.3908398 18.3815616 39.9986 18.7756781 39.6063603 19.1697946 39.3873395 19.7039669 39.389976 20.26 39.389976 20.8122847 39.8377153 21.26 40.39 21.26 40.9422847 21.26 41.39 20.8122847 41.39 20.26 41.39 20.15 41.57 20.16 41.57 20.26 41.57 20.8122847 42.0177153 21.26 42.57 21.26 43.1222847 21.26 43.57 20.8122847 43.57 20.26 43.57 19.1040961 42.6358908 18.1655043 41.48 18.16L41.48 18.16zM37.11 18.18C36.5522404 18.1746623 36.0154882 18.3924995 35.6192009 18.7850306 35.2229136 19.1775616 35 19.7122148 35 20.27 35 20.8222847 35.4477153 21.27 36 21.27 36.5522847 21.27 37 20.8222847 37 20.27 37 20.17 37.18 20.17 37.18 20.27 37.18 20.8222847 37.6277153 21.27 38.18 21.27 38.7322847 21.27 39.18 20.8222847 39.18 20.27 39.1746675 19.1257131 38.2541827 18.1963347 37.11 18.18z"/>
        <path id="Shape" fill="#3D454C" d="M52,9.14 L46.56,3.55 C44.6519277,1.58680624 42.0063948,0.516254506 39.27,0.6 C36.5592766,0.500610526 33.9341783,1.55864877 32.05,3.51 L26.58,9.14 C26.2597314,9.46675277 26.2020745,9.96919217 26.44,10.36 C27.3745599,11.713949 28.9251024,12.5098691 30.57,12.48 L31.32,12.48 C31.5428352,13.3289549 31.8510745,14.1531601 32.24,14.94 C32.41,15.33 32.59,15.72 32.72,16.06 C31.7496444,17.005812 31.2047223,18.3049641 31.21,19.66 C31.21,22.92 34.84,25.57 39.3,25.57 C43.76,25.57 47.39,22.92 47.39,19.66 C47.3952777,18.3049641 46.8503556,17.005812 45.88,16.06 C46,15.72 46.18,15.33 46.35,14.94 C46.7389255,14.1531601 47.0471648,13.3289549 47.27,12.48 L48,12.48 C49.6457379,12.5134989 51.1978996,11.7167476 52.13,10.36 C52.3705382,9.97140502 52.3170227,9.46918275 52,9.14 Z M39.3,23.57 C35.99,23.57 33.21,21.78 33.21,19.66 C33.2147115,18.6751848 33.681191,17.7496301 34.47,17.16 C34.5555871,17.0951074 34.6270428,17.0134438 34.68,16.92 C37.3583755,14.6235777 41.3271458,14.6792948 43.94,17.05 C43.9977201,17.0902733 44.0578305,17.1270075 44.12,17.16 C44.9113537,17.7485717 45.3813716,18.6738039 45.39,19.66 C45.39,21.78 42.6,23.57 39.3,23.57 Z M48,10.48 L46.39,10.48 C45.8377153,10.48 45.39,10.9277153 45.39,11.48 C45.2652383,12.4047425 44.97386,13.2992061 44.53,14.12 L44.26,14.73 C41.2367238,12.7783986 37.3565923,12.7550008 34.31,14.67 C34.23,14.49 34.15,14.3 34.06,14.12 C33.6188015,13.2988759 33.3307725,12.4042916 33.21,11.48 C33.21,10.9277153 32.7622847,10.48 32.21,10.48 L30.57,10.48 C29.8852409,10.491042 29.216451,10.2728053 28.67,9.86 L33.54,4.86 C35.0468478,3.33386715 37.1270647,2.51339764 39.27,2.6 C41.4331082,2.51018915 43.5343089,3.33397596 45.06,4.87 L45.06,4.87 L49.87,9.81 C49.3381396,10.2343943 48.6803583,10.47007 48,10.48 L48,10.48 Z"/>
        <path id="Path" fill="#3D454C" d="M35.63 7.42C35.0777153 7.42 34.63 7.86771525 34.63 8.42 34.63 8.97228475 35.0777153 9.42 35.63 9.42 36.1822847 9.42 36.63 8.97228475 36.63 8.42 36.63 7.86771525 36.1822847 7.42 35.63 7.42zM42.89 7.48C42.3377153 7.48 41.89 7.92771525 41.89 8.48 41.89 9.03228475 42.3377153 9.48 42.89 9.48 43.4422847 9.48 43.89 9.03228475 43.89 8.48 43.89 7.92771525 43.4422847 7.48 42.89 7.48z"/>
      </g>
    </g>
  </g>
</svg>
