<svg xmlns="http://www.w3.org/2000/svg" width="64" height="64" viewBox="0 0 64 64" style="background:#fff">
  <g id="Kalb-(Ragout)" fill="none" fill-rule="evenodd" stroke="none" stroke-width="1">
    <rect width="64" height="64" fill="#FFF"/>
    <g transform="translate(2 4)">
      <g id="Layer_2">
        <rect id="Rectangle" width="60" height="60" x="0" y="0"/>
        <rect id="Rectangle" width="60" height="60" x="0" y="0"/>
      </g>
      <g id="Layer_1" fill-rule="nonzero" transform="translate(5 3)">
        <path id="Path" fill="#E05362" d="M10.78 30.54C9.64 29.76 8.41 29.84 7.06 29.81 5.80609149 29.7217084 4.54647406 29.8571511 3.34 30.21 1.71 30.76 2.14 33.9 3.45 34.53 4.564114 34.9877307 5.74728845 35.2547901 6.95 35.32 8.11 35.46 9.44 35.81 10.49 35.23 11.91 34.46 12.17 31.51 10.78 30.54zM16.43 25.56C15.1386335 25.2320928 13.819663 25.0245391 12.49 24.94 11.15 24.71 10.05 24.36 8.87 25.17 8.12 25.69 8.1 27.29 8.46 28.01 9.16920731 29.32285 10.3944731 30.2798623 11.84 30.65 13.1637246 31.2312304 14.6069924 31.4883446 16.05 31.4 18.4 30.92 18.66 26.43 16.43 25.56z" opacity=".5"/>
        <path id="Path" fill="#E05362" d="M24.31 24.05C23.17 23.21 21.87 23.25 20.5 23.18 19.273676 23.0414666 18.0371685 23.3311626 17 24 15.83 24.81 16.31 26.92 17.09 27.77 17.9928195 28.5842649 19.1104164 29.1222386 20.31 29.32 21.52 29.63 22.76 30.09 23.96 29.61 25.82 28.84 25.78 25.13 24.31 24.05zM24.27 31C23.37 30.08 22.27 30.28 21.09 30.42 20.053048 30.4400966 19.0315345 30.6750447 18.09 31.11 16.42 32.11 16.46 35.27 18.22 36.18 19.1935462 36.5605445 20.2356581 36.7342298 21.28 36.69 22.44 36.75 23.58 36.88 24.42 35.92 25.6217862 34.4781829 25.5573882 32.3659276 24.27 31L24.27 31zM32.59 33.67L32.59 33.54C32.59 33.54 32.59 33.46 32.59 33.41 32.59 33.36 32.59 33.31 32.59 33.26 32.5617001 32.9201284 32.4945969 32.5846121 32.39 32.26 32.2720586 31.8874023 32.1074161 31.5312368 31.9 31.2 31.5071024 30.6061138 31.0474366 30.0592123 30.53 29.57 29.71 28.72 28.75 27.77 27.48 28.17 26.62 28.44 26.42 29.75 26.4 30.48 26.4423046 31.7803146 26.8513694 33.0421757 27.58 34.12 28.0782445 34.9991844 28.6718245 35.8208065 29.35 36.57 30.35 37.62 31.72 36.57 32.18 35.63L32.18 35.51C32.3483272 35.1996382 32.456875 34.8604265 32.5 34.51L32.5 34.32C32.5492439 34.1064361 32.5793629 33.8889095 32.59 33.67L32.59 33.67zM44.8 29.4C43.68 28.46 42.72 28.9 41.5 29.17 40.4365923 29.2334168 39.3868594 29.4420176 38.38 29.79 36.49 30.79 36.54 34.13 38.03 35.45 39.1096653 36.2906246 40.4866687 36.6520428 41.84 36.45 43.5434864 36.4763028 45.0766894 35.4207207 45.66 33.82 46.2592152 32.3049692 45.9235549 30.5798312 44.8 29.4L44.8 29.4z" opacity=".5"/>
        <path id="Path" fill="#C17953" d="M35.93 2.41C35.2963193 1.67741905 34.2466979 1.46749476 33.38 1.9 32.45 2.42 32.17 3.42 31.59 4.25 30.46 5.88 28.87 6.25 27.16 6.89 24.9 7.74 25.54 12.58 27.82 12.89 29.3963126 12.9675457 30.9488242 12.4819428 32.2 11.52 32.41 11.37 32.61 11.21 32.8 11.05 32.6797174 11.4194728 32.5861431 11.7971121 32.52 12.18 32.19 14.18 33.52 18.01 35.94 16.18 37.74 14.79 38.1 11.32 38.06 9.18 38.02 7.04 37.54 4 35.93 2.41zM52.87 9.14C52.62 7.24 50.79 6.7 49.24 5.88 48.0852042 5.32013816 47.1722427 4.36099572 46.67 3.18 46.4434294 2.32130483 45.7309595 1.67755006 44.8537615 1.53893111 43.9765635 1.40031216 43.1003086 1.79300918 42.62 2.54 39.9239595 6.1160127 39.4972664 10.9143712 41.52 14.91 42.17 16.23 43.72 17.37 45.15 16.16 46.3744884 14.8889537 46.7386145 13.017424 46.08 11.38 46.5916171 11.7144163 47.1340951 11.9990499 47.7 12.23 50.43 13.31 53.26 12.21 52.87 9.14z" opacity=".5"/>
        <path id="Shape" fill="#3D454C" d="M45.42,30.4 C45.0291783,29.1805288 43.8801043,28.3655828 42.6,28.4 L40.24,28.33 C39.4439469,28.2955317 38.6691868,28.5924024 38.1,29.15 C38.0609271,29.1947248 38.0242107,29.2414548 37.99,29.29 C37.3866086,28.9250568 36.6951685,28.7314535 35.99,28.73 C34.5753223,28.677025 33.1786638,29.0611061 31.99,29.83 C31.3683278,28.7408532 30.4444156,27.8551479 29.33,27.28 C28.6240065,27.0612295 27.8549109,27.2496579 27.33,27.77 C27.21,27.86 27.07,27.99 26.93,28.12 C26.4453905,27.927401 25.947409,27.7703196 25.44,27.65 C25.94,26.75 26.49,25.58 25.9,24.65 C25.18,23.52 23.15,23.65 22.01,23.4 C20.552337,23.0205962 19.0418664,22.8854311 17.54,23 C16.21,23.23 15.43,24.45 14.76,25.55 C13.5297717,25.1058128 12.2742234,24.7351589 11,24.44 C8.28,23.85 5.95,27.59 4.37,29.36 C4.06750326,29.6735117 4.00278229,30.1467838 4.21,30.53 C0.59,31.36 0,32.28 0,33.16 L0,33.16 C0,33.32 0.3,49.3 17.57,53.6 C17.6448813,53.6577199 17.7150985,53.7212498 17.78,53.79 C18.0787006,54.146309 18.4804491,54.4013319 18.93,54.52 C20.1556882,54.7557116 21.3946817,54.9160127 22.64,55 L22.75,55 L23.3,55 C23.66,55 24.02,55 24.38,55 L24.91,55 L25.09,55 L25.62,55 C25.98,55 26.34,55 26.7,55 L27.25,55 L27.36,55 C28.6053183,54.9160127 29.8443118,54.7557116 31.07,54.52 C31.5195509,54.4013319 31.9212994,54.146309 32.22,53.79 C32.2849015,53.7212498 32.3551187,53.6577199 32.43,53.6 C49.71,49.31 50,33.33 50,33.17 L50,33.17 C50,31.91 48.65,31.1 45.42,30.4 Z M45.73,33.81 L45.62,32.49 C46.3345864,32.6455914 47.031503,32.8734295 47.7,33.17 C47.070153,33.4584402 46.4091094,33.6731955 45.73,33.81 L45.73,33.81 Z M40.19,30.29 L42.55,30.36 C42.9277688,30.3340848 43.2877729,30.5237644 43.48,30.85 L43.74,34 C43.744601,34.0735114 43.7650703,34.1451539 43.8,34.21 C42.66,34.41 41.32,34.6 39.8,34.76 C39.8,34.76 39.8,34.76 39.8,34.69 L39.52,30.53 C39.54,30.46 39.76,30.27 40.19,30.29 L40.19,30.29 Z M35.99,30.69 C36.6757603,30.6626004 37.3076779,31.0600329 37.58,31.69 C37.58,31.69 37.58,31.69 37.58,31.69 L37.79,34.79 C37.7855757,34.8365618 37.7855757,34.8834382 37.79,34.93 L37.33,34.93 L37.33,34.22 C37.2974376,33.1391179 36.5284799,32.2213296 35.47,32 L34,31.72 C33.7877092,31.6901738 33.5722908,31.6901738 33.36,31.72 C33.29,31.57 33.25,31.45 33.28,31.41 C34.0779443,30.8666519 35.0377371,30.6125891 36,30.69 L35.99,30.69 Z M33.25,33.93 C33.2943115,33.7581424 33.4666133,33.6521105 33.64,33.69 L35.11,33.95 C35.270331,33.978729 35.3877628,34.1171308 35.39,34.28 L35.39,35.14 C34.59,35.2 33.75,35.24 32.88,35.28 L33.25,33.93 Z M28.81,29.18 C29.63,29.63 30.57,31.18 31.41,32.51 L31.59,32.8 C31.472158,32.9898341 31.3812877,33.1951336 31.32,33.41 L30.79,35.41 L29.22,35.46 C28.3216432,34.0727654 27.7127981,32.5183397 27.43,30.89 C27.713103,30.197445 28.1928513,29.6029742 28.81,29.18 L28.81,29.18 Z M11.42,34.88 L11.15,33.65 C11.3548358,33.506438 11.5858759,33.4045085 11.83,33.35 L11.88,33.35 L14.18,32.85 C14.4439453,32.7961224 14.7160547,32.7961224 14.98,32.85 L15.55,35.24 C14.07,35.11 12.69,35 11.42,34.88 Z M18.36,28.5 C18.7401975,28.8039362 19.0077393,29.2263706 19.12,29.7 C18.7391334,30.9192623 18.0004986,31.9958574 17,32.79 L16.85,32.17 C16.6696327,31.5069193 16.1255934,31.005626 15.45,30.88 L18.36,28.5 Z M21.06,29.22 C22.6346274,29.136836 24.2122344,29.3125011 25.73,29.74 C25.5505593,30.0761038 25.451305,30.4491629 25.44,30.83 C24.2711556,30.505047 23.0207478,30.6636002 21.97,31.27 L20.66,31.35 C20.9111033,30.8675281 21.0672619,30.3413416 21.12,29.8 C21.1242604,29.6049212 21.104104,29.4100755 21.06,29.22 L21.06,29.22 Z M17.56,35.3 C17.5794079,35.1874976 17.5794079,35.0725024 17.56,34.96 C18.160619,34.5075251 18.7164933,33.9985318 19.22,33.44 L22.35,33.25 C22.5649059,33.2387631 22.7576892,33.3812551 22.81,33.59 L23.19,35.46 C21.18,35.44 19.31,35.38 17.56,35.3 L17.56,35.3 Z M25.22,35.47 L24.75,33.19 C24.7066177,33.0113531 24.6463465,32.8372362 24.57,32.67 C25.189889,32.773764 25.735799,33.137704 26.07,33.67 C26.1044066,33.724229 26.1446463,33.7745286 26.19,33.82 C26.44,34.43 26.7,34.97 26.93,35.41 L25.22,35.47 Z M18.68,24.94 C19.3927658,24.9423108 20.1033222,25.0193995 20.8,25.17 C21.43,25.27 22.06,25.43 22.69,25.52 C23.1934952,25.5494941 23.6927091,25.6299043 24.18,25.76 C23.9834545,26.2180992 23.7562736,26.6624384 23.5,27.09 C23.5,27.16 23.5,27.22 23.44,27.28 C22.3188471,27.1810182 21.1911529,27.1810182 20.07,27.28 L20,27.28 C19.8024311,27.0742057 19.5808417,26.8929053 19.34,26.74 C18.7774793,26.3530703 18.043206,26.32199 17.45,26.66 L17.45,26.66 C17.21,26.52 16.94,26.39 16.67,26.26 C17.0814522,25.515575 17.8333748,25.0217752 18.68,24.94 L18.68,24.94 Z M9,27.38 C10.12,26.21 10.2,26.27 11.66,26.79 C12.96,27.24 14.43,27.55 15.74,28.09 L12.74,30.59 C12.4975625,30.750118 12.3010927,30.9707156 12.17,31.23 L11.74,31.32 C10.12,30.87 8.43,30.32 6.81,29.67 C7.51,28.9 8.25,28.14 9,27.38 Z M7,32 C7.05541932,31.9860785 7.10909182,31.9659513 7.16,31.94 C7.88,32.2 8.6,32.45 9.33,32.69 C9.10833317,33.0370017 9.03284674,33.457569 9.12,33.86 L9.3,34.64 C6.91261715,34.463265 4.55898032,33.9723636 2.3,33.18 C3.80906402,32.5851283 5.38890744,32.1884868 7,32 L7,32 Z M31.88,51.68 C31.4704248,51.8143407 31.1043756,52.0560713 30.82,52.38 L30.61,52.59 C29.2891688,52.8373773 27.9525053,52.9910936 26.61,53.05 C26.29,53.05 25.96,53.05 25.61,53.05 L25.02,53.05 L24.43,53.05 C24.1,53.05 23.77,53.05 23.43,53.05 C22.0874496,52.9916624 20.750746,52.8379415 19.43,52.59 L19.22,52.38 C18.9356244,52.0560713 18.5695752,51.8143407 18.16,51.68 C5.76,48.68 2.89,39.33 2.23,35.18 C7.69,37.34 21.69,37.47 25.03,37.47 C28.37,37.47 42.37,37.34 47.83,35.18 C47.15,39.33 44.28,48.63 31.88,51.68 Z"/>
        <path id="Path" fill="#3D454C" d="M40.8 18C39.6479994 18.0054728 38.7154728 18.9379994 38.71 20.09 38.71 20.6422847 39.1577153 21.09 39.71 21.09 40.2622847 21.09 40.71 20.6422847 40.71 20.09 40.71 19.99 40.89 19.99 40.89 20.09 40.89 20.6422847 41.3377153 21.09 41.89 21.09 42.4422847 21.09 42.89 20.6422847 42.89 20.09 42.89 18.9357249 41.9542751 18 40.8 18zM36.43 18.0599758C35.2757249 18.0599758 34.34 18.9957249 34.34 20.15 34.34 20.7022847 34.7877153 21.15 35.34 21.15 35.8922847 21.15 36.34 20.7022847 36.34 20.15 36.34 20.05 36.52 20.05 36.52 20.15 36.52 20.7022847 36.9677153 21.15 37.52 21.15 38.0722847 21.15 38.5200242 20.7022847 38.5200242 20.15 38.5226753 19.5948817 38.3033387 19.0617262 37.9108063 18.6691937 37.5182738 18.2766613 36.9851183 18.0573247 36.43 18.0599758L36.43 18.0599758z"/>
        <path id="Shape" fill="#3D454C" d="M51.34,9 L45.89,3.4 C43.9725802,1.45407122 41.3305771,0.395820316 38.6,0.48 C35.8914626,0.381825238 33.2680868,1.43553576 31.38,3.38 L25.9,9 C25.5879863,9.32750903 25.534678,9.8236863 25.77,10.21 C26.6951532,11.5693975 28.2460816,12.367448 29.89,12.33 L30.65,12.33 C30.8736445,13.1805406 31.1783739,14.0076631 31.56,14.8 C31.74,15.18 31.92,15.58 32.04,15.91 C31.0696444,16.855812 30.5247223,18.1549641 30.53,19.51 C30.53,22.77 34.16,25.42 38.62,25.42 C43.08,25.42 46.71,22.77 46.71,19.51 C46.7152777,18.1549641 46.1703556,16.855812 45.2,15.91 C45.33,15.58 45.5,15.18 45.68,14.8 C46.0692402,14.0098255 46.3774787,13.1822722 46.6,12.33 L47.35,12.33 C48.9961597,12.365328 50.5491399,11.5681566 51.48,10.21 C51.712699,9.82149491 51.6552654,9.32510424 51.34,9 Z M38.62,23.44 C35.32,23.44 32.5299501,21.65 32.5299501,19.53 C32.5243663,18.5320934 32.9964209,17.591701 33.8,17 C33.8725483,16.9394865 33.9394865,16.8725483 34,16.8 C36.6854237,14.5272144 40.6343741,14.5783887 43.26,16.92 C43.3160242,16.9656645 43.3763004,17.0058486 43.44,17.04 C44.2297124,17.6243982 44.6968626,18.5475759 44.7000268,19.53 C44.71,21.65 41.92,23.44 38.62,23.44 Z M47.35,10.35 L45.71,10.35 C45.1577153,10.35 44.71,10.7977153 44.71,11.35 C44.5933225,12.2783724 44.3050935,13.1769685 43.86,14 C43.76,14.21 43.67,14.41 43.58,14.62 C42.1011259,13.6328643 40.3579119,13.116873 38.58,13.14 C36.8294337,13.1165863 35.1109232,13.6105711 33.64,14.56 C33.57,14.37 33.48,14.19 33.4,14 C32.9546996,13.1798249 32.6632332,12.2850909 32.54,11.36 C32.54,10.8077153 32.0922847,10.36 31.54,10.36 L29.89,10.36 C29.2066291,10.3714229 28.5398429,10.1491609 28,9.73 L32.87,4.73 C34.3721904,3.19786498 36.4566652,2.37935396 38.6,2.48 C40.7583927,2.38916346 42.8556704,3.2092063 44.38,4.74 L44.38,4.8 L49.19,9.73 C48.6623524,10.13492 48.0151038,10.3530146 47.35,10.35 L47.35,10.35 Z"/>
        <path id="Path" fill="#3D454C" d="M35 7.29C34.4477153 7.29 34 7.73771525 34 8.29 34 8.84228475 34.4477153 9.29 35 9.29 35.5522847 9.29 36 8.84228475 36 8.29 36 7.73771525 35.5522847 7.29 35 7.29zM42.22 7.36C41.6677153 7.36 41.22 7.80771525 41.22 8.36 41.22 8.91228475 41.6677153 9.36 42.22 9.36 42.7722847 9.36 43.22 8.91228475 43.22 8.36 43.22 7.80771525 42.7722847 7.36 42.22 7.36z"/>
      </g>
    </g>
  </g>
</svg>
