<svg xmlns="http://www.w3.org/2000/svg" width="64" height="64" viewBox="0 0 64 64" style="background:#fff">
  <g id="Kalb-(Geschnetzeltes)" fill="none" fill-rule="evenodd" stroke="none" stroke-width="1">
    <rect width="64" height="64" fill="#FFF"/>
    <g transform="translate(2 4)">
      <g id="Layer_2">
        <rect id="Rectangle" width="60" height="60" x="0" y="0"/>
        <rect id="Rectangle" width="60" height="60" x="0" y="0"/>
      </g>
      <g id="Layer_1" fill-rule="nonzero" transform="translate(3 4)">
        <path id="Path" fill="#E05362" d="M48.6 31.66C45.37 30.66 41.95 31.18 38.6 30.66 35.0169596 29.9014956 31.4782944 28.9467236 28 27.8 21.91 26.07 15.25 24.18 9 26 6.73 26.65 6.94 32 9.16 32.57 16.1 34.42 22.8 36.39 29.64 38.63 35.09 40.42 43.34 43.56 48.83 40.76 51.59 39.31 52 32.66 48.6 31.66zM42.6 46.89C36.6 45.6 30.21 45.67 24.09 44.78 17.54 43.78 11.14 42.12 4.59 41.21 2.59 40.93 2.82 45.21 4.29 45.85 10 48.34 16.21 49.6 22.36 50.69 28.68 51.81 35.83 53.31 42.24 52.53 44.47 52.26 44.81 47.36 42.6 46.89z" opacity=".5"/>
        <path id="Path" fill="#C17953" d="M38.12 1.71C37.4882238.974157073 36.4361945.763751221 35.57 1.2 34.64 1.72 34.35 2.72 33.78 3.55 32.64 5.18 31.06 5.55 29.35 6.19 27.09 7.04 27.72 11.88 30 12.19 31.5790261 12.2647049 33.1337288 11.7795243 34.39 10.82 34.6 10.67 34.79 10.51 34.99 10.35 34.865189 10.718878 34.7682499 11.0966063 34.7 11.48 34.37 13.48 35.7 17.31 38.13 15.48 39.92 14.09 40.28 10.62 40.25 8.48 40.22 6.34 39.72 3.29 38.12 1.71zM55.05 8.44C54.8 6.54 53 6 51.42 5.18 50.2678722 4.61968797 49.3582322 3.66030194 48.86 2.48 48.6141772 1.65223083 47.9163109 1.03816807 47.0639917.899666211 46.2116726.761164355 45.3552781 1.12265972 44.86 1.83 42.1449389 5.39811669 41.6950404 10.1996197 43.7 14.21 44.36 15.53 45.91 16.66 47.33 15.46 48.5532545 14.1886928 48.9207697 12.3198391 48.27 10.68 48.779649 11.0150118 49.3225277 11.2965045 49.89 11.52 52.62 12.61 55.45 11.51 55.05 8.44z" opacity=".5"/>
        <path id="Shape" fill="#3D454C" d="M47.92,30.56 C46.75,30.33 45.55,30.2 44.38,30.08 C43.38,29.97 42.32,29.87 41.33,29.69 C39.5142357,29.3143291 37.7317753,28.7926334 36,28.13 C33.9901951,27.3580968 31.9105423,26.7820899 29.79,26.41 C28.96,26.28 28.12,26.21 27.31,26.14 C26.5,26.07 25.62,25.99 24.82,25.87 C23.6280396,25.6460113 22.449534,25.3555581 21.29,25 C19.1274485,24.2979615 16.8632992,23.9600288 14.59,24 C10.74,24.25 7.94,26.34 5.59,28.28 C4.64,29.07 4.7,29.78 4.92,30.23 C5.12958508,30.5996371 5.45702814,30.8883503 5.85,31.05 C18.2758385,37.4984251 31.8868107,41.3435248 45.85,42.35 C46.07,42.35 46.29,42.35 46.52,42.35 C46.9035977,42.3580731 47.2857572,42.3005801 47.65,42.18 C48.2620595,41.9691219 48.7817381,41.5519649 49.12,41 L53,35.2 L53.17,35.01 C53.4248763,34.7444056 53.5132301,34.3602589 53.4,34.01 C52.63,31.74 49.31,30.84 47.92,30.56 Z M48.32,38.56 C46.76,37 44.8,36.56 42.5,36.15 C37.6971779,35.3103375 33.0019642,33.942018 28.5,32.07 C27.32,31.58 26.8,33.51 27.97,34 C31.1129398,35.3493097 34.3645744,36.4298426 37.69,37.23 C40.52,37.9 45.19,37.76 47.19,40.23 C47.1511402,40.2608268 47.1071269,40.2845263 47.06,40.3 C46.7293284,40.3595736 46.3906716,40.3595736 46.06,40.3 C32.5341746,39.3475591 19.3386031,35.6813668 7.26,29.52 C9.34,27.81 11.65,26.19 14.71,25.9999416 C16.7682236,25.9948325 18.8129119,26.3327975 20.76,27 C21.9937013,27.3588984 23.2454315,27.6526378 24.51,27.88 C25.39,28.02 26.28,28.1 27.15,28.17 C28.02,28.24 28.74,28.31 29.5,28.42 C31.4953563,28.7614895 33.4540378,29.2905009 35.35,30 C37.1861884,30.7001784 39.0755801,31.2519476 41,31.65 C42.06,31.85 43.15,31.96 44.21,32.07 C45.27,32.18 46.48,32.3 47.55,32.52 C48.9201847,32.6952995 50.2041348,33.2849396 51.23,34.21 L48.32,38.56 Z"/>
        <path id="Path" fill="#3D454C" d="M40.49 44.1C39.42 43.94 38.31 43.85 37.24 43.76 36.17 43.67 35.32 43.61 34.41 43.48 32.7387743 43.2163969 31.0855776 42.8490199 29.46 42.38 27.5876007 41.8242985 25.6753207 41.4130914 23.74 41.15 23 41.07 22.23 41 21.46 41 20.69 41 19.89 40.89 19.14 40.8 18.04 40.67 16.93 40.43 15.86 40.21 13.8466255 39.7026555 11.7761888 39.4572953 9.7 39.48 6.7261954 39.7011384 3.87123843 40.7393046 1.45 42.48.2 43.28.61 44.14.77 44.38.99339123 44.6975253 1.31763512 44.930135 1.69 45.04 4.28 46.04 7.02 47.04 9.81 47.91 10.1511886 48.0171797 10.5236396 47.9341958 10.7870543 47.6923076 11.0504689 47.4504194 11.1648283 47.0863755 11.0870543 46.7373076 11.0092803 46.3882397 10.7511886 46.1071797 10.41 46 8.02 45.27 5.69 44.46 3.41 43.59 5.30329553 42.3340277 7.49269649 41.5961823 9.76 41.45 11.6649302 41.4292796 13.5643843 41.6578865 15.41 42.13 16.52 42.37 17.67 42.61 18.86 42.76 19.67 42.86 20.49 42.91 21.29 42.96 22.09 43.01 22.76 43.06 23.47 43.14 25.3073351 43.3901205 27.1226956 43.7812755 28.9 44.31 30.6046268 44.8000046 32.3379382 45.1840716 34.09 45.46 35.09 45.6 36.09 45.68 37.04 45.76 37.99 45.84 39.15 45.92 40.15 46.08 41.2423969 46.2053134 42.2992871 46.5451495 43.26 47.08L40.07 50.79C39.91 50.97 39.85 51.02 39.71 51.06 39.3779402 51.1012077 39.0420598 51.1012077 38.71 51.06 32.2287128 50.6947826 25.787654 49.8052075 19.45 48.4 18.9116869 48.2821838 18.3795113 48.6220607 18.26 49.16 18.141023 49.6920695 18.4701775 50.2213856 19 50.35 25.458259 51.7865715 32.0237174 52.6896147 38.63 53.05 38.83 53.05 39.03 53.05 39.24 53.05 39.5767404 53.0579334 39.9130358 53.0209409 40.24 52.94 40.7799364 52.7976449 41.2579173 52.4813341 41.6 52.04L45.15 48 45.3 47.88C45.6426468 47.6000691 45.7606032 47.1282434 45.59 46.72 44.91 45 42.11 44.35 40.49 44.1zM24.27 30.91C23.7177153 30.91 23.27 31.3577153 23.27 31.91 23.27 32.4622847 23.7177153 32.91 24.27 32.91 24.8222847 32.91 25.27 32.4622847 25.27 31.91 25.27 31.3577153 24.8222847 30.91 24.27 30.91z"/>
        <path id="Path" fill="#3D454C" d="M14.51 47.44C13.9577153 47.44 13.51 47.8877153 13.51 48.44 13.51 48.9922847 13.9577153 49.44 14.51 49.44 15.0622847 49.44 15.51 48.9922847 15.51 48.44 15.51 47.8877153 15.0622847 47.44 14.51 47.44zM43.46 17.65C42.3040961 17.65 41.3655043 18.5841092 41.36 19.74 41.36 20.2922847 41.8077153 20.74 42.36 20.74 42.9122847 20.74 43.36 20.2922847 43.36 19.74 43.36 19.64 43.55 19.64 43.55 19.74 43.55 20.2922847 43.9977153 20.74 44.55 20.74 45.1022847 20.74 45.55 20.2922847 45.55 19.74 45.5445272 18.5879994 44.6120006 17.6554728 43.46 17.65zM39.09 17.67C37.9379994 17.6754728 37.0054728 18.6079994 37 19.76 37 20.3122847 37.4477153 20.76 38 20.76 38.5522847 20.76 39 20.3122847 39 19.76 39 19.66 39.19 19.66 39.19 19.76 39.19 20.3122847 39.6377153 20.76 40.19 20.76 40.7422847 20.76 41.19 20.3122847 41.19 19.76 41.1844957 18.6041092 40.2459039 17.67 39.09 17.67L39.09 17.67z"/>
        <path id="Shape" fill="#3D454C" d="M54,8.63 L48.54,3 C46.6260092,1.04673189 43.9835663,-0.0189446442 41.25,0.06 C38.5243834,-0.0402556674 35.8859588,1.02967101 34,3 L28.53,8.63 C28.2097314,8.95675277 28.1520745,9.45919217 28.39,9.85 C29.3210684,11.227187 30.888025,12.0370323 32.55,12 L33.3,12 C33.5208534,12.8527982 33.8291542,13.6805188 34.22,14.47 C34.39,14.86 34.57,15.25 34.69,15.59 C33.7196444,16.535812 33.1747223,17.8349641 33.18,19.19 C33.18,22.44 36.81,25.09 41.27,25.09 C45.73,25.09 49.36,22.44 49.36,19.19 C49.3679056,17.8364309 48.8266808,16.5374915 47.86,15.59 C47.98,15.25 48.16,14.86 48.33,14.47 C48.7208458,13.6805188 49.0291466,12.8527982 49.25,12 L50,12 C51.643022,12.0321222 53.1931774,11.2401543 54.13,9.89 C54.3921051,9.49259731 54.3377237,8.96551559 54,8.63 Z M41.27,23.05 C37.97,23.05 35.18,21.26 35.18,19.15 C35.1870693,18.163424 35.6574201,17.2375366 36.45,16.65 C36.5323876,16.5817486 36.603289,16.5007184 36.66,16.41 C39.3454237,14.1372144 43.2943741,14.1883887 45.92,16.53 C45.9760242,16.5756645 46.0363004,16.6158486 46.1,16.65 C46.888809,17.2396301 47.3552885,18.1651848 47.36,19.15 C47.36,21.26 44.58,23.05 41.27,23.05 Z M50,10 L48.36,10 C47.8077153,10 47.36,10.4477153 47.36,11 C47.2408532,11.9278245 46.9527662,12.825978 46.51,13.65 C46.42,13.85 46.32,14.06 46.24,14.26 C43.2049315,12.2871103 39.2985238,12.2636719 36.24,14.2 C36.16,14.02 36.07,13.83 35.99,13.64 C35.5608397,12.8169337 35.2862966,11.9221267 35.18,11 C35.18,10.4477153 34.7322847,10 34.18,10 L32.55,10 C31.8644185,10.0165722 31.1938533,9.79775624 30.65,9.38 L35.52,4.38 C37.0267856,2.85585838 39.1090238,2.04185951 41.25,2.14 C43.3887014,2.05656283 45.467725,2.85563101 47,4.35 L47.05,4.41 L51.85,9.34 C51.3248661,9.76136312 50.6732566,9.99382921 50,10 L50,10 Z"/>
        <path id="Path" fill="#3D454C" d="M37.61 6.9C37.0577153 6.9 36.61 7.34771525 36.61 7.9 36.61 8.45228475 37.0577153 8.9 37.61 8.9 38.1622847 8.9 38.61 8.45228475 38.61 7.9 38.61 7.34771525 38.1622847 6.9 37.61 6.9zM44.87 7C44.3177153 7 43.87 7.44771525 43.87 8 43.87 8.55228475 44.3177153 9 44.87 9 45.4222847 9 45.87 8.55228475 45.87 8 45.87 7.44771525 45.4222847 7 44.87 7z"/>
      </g>
    </g>
  </g>
</svg>
