<svg xmlns="http://www.w3.org/2000/svg" width="64" height="64" viewBox="0 0 64 64" style="background:#fff">
  <g id="Kaninchenfleisch" fill="none" fill-rule="evenodd" stroke="none" stroke-width="1">
    <rect width="64" height="64" fill="#FFF"/>
    <g id="33-Kaninchenfleisch" transform="translate(2 4)">
      <g id="Layer_2">
        <rect id="Rectangle" width="60" height="60" x="0" y="0"/>
        <rect id="Rectangle" width="60" height="60" x="0" y="0"/>
      </g>
      <g id="Layer_1" transform="translate(3 3)">
        <path id="Path" fill="#E05564" fill-opacity=".5" d="M11.05,43.88 L10.64,44.09 C8.67077562,45.1903388 6.49516204,45.871282 4.25,46.09 C3.7,46.09 0.17,45.87 0.11,42.25 C0.11,41.81 0.32,39.61 0.33,39.54 C0.767973565,36.5251347 1.92750355,33.6606153 3.71,31.19 C8.31,24.76 16.1,21.56 23.58,23.6 C25.5108474,24.255659 26.6016792,26.2970553 26.0736422,28.2666333 C25.5456052,30.2362113 23.5798831,31.4581561 21.58,31.06 C17.29,29.89 12.89,31.85 10.19,35.48 C11.5367931,34.6374113 12.9439503,33.8953949 14.4,33.26 C16.3204326,32.471605 18.3387628,31.9468391 20.4,31.7 C20.98,31.63 21.4,31.58 21.97,31.55 L21.72,31.55 C22.304199,31.4821924 22.8918802,31.4488014 23.48,31.45 C23.9120752,31.5104496 24.3311102,31.6422429 24.72,31.84 C25.8992996,32.3987044 26.6945195,33.5401683 26.81,34.84 C26.9916258,35.9768146 26.6201558,37.1320863 25.81,37.95 C24.47,39.48 23.06,40.95 21.74,42.49 L21.74,42.49 C23.5500743,41.8115693 25.4223901,41.3125084 27.33,41 C28.7436905,40.7250617 30.1931186,41.2578773 31.092148,42.3829808 C31.9911775,43.5080842 32.1910815,45.0393493 31.6110207,46.3575455 C31.0309599,47.6757417 29.7668938,48.5627994 28.33,48.66 C26.0970065,49.1010619 23.9154626,49.7712751 21.82,50.66 C19.0806875,51.7662274 16.1792424,52.4181237 13.23,52.59 C11.4658582,52.7368546 9.85926258,51.5722853 9.45,49.85 C9.27921756,49.3109018 9.224685,48.7417183 9.29,48.18 C9.51000079,47.236582 9.8180168,46.315882 10.21,45.43 C10.46,44.9 10.72,44.43 11.01,43.88 L11.05,43.88 Z"/>
        <path id="Shape" fill="#3D454C" fill-rule="nonzero" d="M34.27,38.14 C34.2455016,38.0390258 34.201325,37.9438761 34.14,37.86 C33.6108602,36.3655384 32.7008781,35.0350344 31.5,34 L31.5,34 C28.94,31.29 26.77,28.15 23.59,26.12 C21.27,24.65 18.4,22.64 15.59,22.56 C12.6828086,22.5636861 9.82148885,23.2850272 7.26,24.66 C4.43831484,26.3470797 2.28676063,28.9579148 1.17,32.05 C0.518380013,33.7259365 0.601855232,35.5986848 1.4,37.21 C1.04561797,38.7814603 0.877792342,40.3892297 0.9,42 C0.798248306,43.6257132 1.30035779,45.2317514 2.31,46.51 C3.60811448,47.9128099 5.10385047,49.1188313 6.75,50.09 C8.20588018,51.0240281 9.71512172,51.8721417 11.27,52.63 C11.3095998,52.7054763 11.3529885,52.7789033 11.4,52.85 C12.2445152,53.6536688 13.425154,54.0000392 14.57,53.78 C17.5779466,53.3345484 20.499047,52.4271858 23.23,51.09 C25.0433333,50.3433333 26.8433333,49.5733333 28.63,48.78 C30.42,47.99 32.05,47.37 33.19,45.78 C34.6157753,43.5012211 35.0082691,40.7246909 34.27,38.14 Z M3.94,45.57 C3.5244039,45.1690178 3.20330158,44.6805324 3,44.14 C2.82067457,43.4413346 2.73989293,42.7210317 2.76,42 C2.7433883,41.2186655 2.77678987,40.4370686 2.86,39.66 C3.41166414,40.3758164 3.99907685,41.0633563 4.62,41.72 C5.44,42.6 6.76,41.27 5.94,40.4 L5.94,40.4 C4.87780765,39.3542846 3.9657853,38.1662998 3.23,36.87 C3.21038917,36.7991286 3.18003712,36.7316796 3.14,36.67 C2.49227902,35.4321674 2.40493297,33.9763999 2.9,32.67 C3.88298948,29.9580774 5.79656772,27.6830455 8.3,26.25 C10.5411175,25.0800724 13.0318905,24.469387 15.56,24.4699995 C17.95,24.57 20.47,26.42 22.43,27.65 C24.3133475,28.9336237 25.9979861,30.4868605 27.43,32.26 C25.6645879,32.1368099 23.8924824,32.3715034 22.22,32.95 C17,34.55 12.11,38.12 10.65,43.63 C10.1704553,45.7898692 10.1296482,48.0240597 10.53,50.2 C8.09654865,49.0246548 5.87074964,47.4608537 3.94,45.57 Z M31.94,44.26 C31.2229757,45.3869284 30.138375,46.2312919 28.87,46.65 C25.66,48.12 22.35,49.59 19.05,50.78 C17.9123246,51.2075217 16.7418114,51.5419541 15.55,51.78 C14.84,51.91 13.3,52.28 12.78,51.53 C12.78,51.53 12.78,51.53 12.78,51.45 C12.5377338,50.7348005 12.4127859,49.9851129 12.41,49.23 C12.2964775,48.2677585 12.2530298,47.2985395 12.28,46.33 C12.38,41.48 16.07,37.7 20.28,35.73 C22.51,34.73 25.51,33.58 28.01,34.14 C28.7278025,34.3659212 29.4010766,34.7143998 30,35.17 L30.18,35.36 C30.2737485,35.4646566 30.3899921,35.5467109 30.52,35.6 C31.4249328,36.4052364 32.0923527,37.4426766 32.45,38.6 C32.4519024,38.6232946 32.4519024,38.6467054 32.45,38.67 C32.9672275,40.5369783 32.7711709,42.5296262 31.9,44.26 L31.94,44.26 Z"/>
        <path id="Path" fill="#3D454C" fill-rule="nonzero" d="M8.72,42.28 C8.54768654,42.107401 8.31388989,42.0102854 8.07,42.01 L7.82,42.01 C7.66411165,42.0513723 7.52239578,42.1343279 7.41,42.25 L7.26,42.44 C7.18203262,42.5844437 7.14082019,42.7458591 7.14,42.91 L7.14,43.14 C7.13314886,43.260724 7.15724356,43.3811975 7.21,43.49 C7.24889941,43.6059585 7.31792266,43.7094934 7.41,43.79 C7.48853832,43.8821526 7.59311968,43.9483874 7.71,43.98 C7.82040836,44.0400889 7.94430371,44.0710628 8.07,44.07 L8.31,44.07 C8.46588835,44.0286277 8.60760422,43.9456721 8.72,43.83 L8.87,43.64 C8.95830787,43.499393 9.00350137,43.3360011 9,43.17 L9,42.94 C8.99967871,42.815627 8.9723846,42.6928034 8.92,42.58 C8.88110059,42.4640415 8.81207734,42.3605066 8.72,42.28 L8.72,42.28 Z"/>
        <path id="Path" fill="#B3B3B3" fill-opacity=".5" d="M41.49,16.43 C43.03,13.75 44.69,8.18 45.34,6.55 C46.17,4.45 47.34,0.87 49.72,1.61 C52.1,2.35 52.81,5.13 52,7.23 C51.1231994,9.52480107 50.0631098,11.7453044 48.83,13.87 C48.4718462,14.6688794 48.2423424,15.5193937 48.15,16.39 C48.8815019,17.2260103 49.5500016,18.1151149 50.15,19.05 C51.45,21.35 51.74,23.84 49.15,26.57 C47.39,28.39 43.99,29.57 40.6,29.31 C37.05,29.09 33.83,27.44 32.45,25.06 C31.3551597,23.3547921 31.3241403,21.1756805 32.37,19.44 C32.7901381,18.6939862 33.304344,18.0050175 33.9,17.39 C34.12,17.15 34.49,16.72 34.69,16.49 C34.3345197,14.9661464 33.7260874,13.5126692 32.89,12.19 C31.57,9.72 30.84,10.04 30.38,7.87 C29.92,5.7 30.72,1.62 33.17,1.2 C35.62,0.78 35.95,2.73 36.42,4.92 C36.83,6.85 40.42,14.23 41.57,16.43 L41.49,16.43 Z"/>
        <path id="Shape" fill="#3C454E" d="M51.23,9.18 C52.202754,6.46676668 51.8938787,3.45890917 50.39,1 C50.206256,0.694190165 49.849385,0.537808477 49.5,0.61 C49.3801524,0.622159842 49.2642583,0.659655008 49.16,0.72 C46.8010913,2.17999129 45.0743882,4.47037016 44.32,7.14 C44.16,7.59 43.51,10.02 43.17,11.27 C41.8363437,10.9436287 40.4436563,10.9436287 39.11,11.27 C38.84,10.14 38.38,7.97 38.11,7.08 C37.3732165,5.31683304 36.3900936,3.66707193 35.19,2.18 C34.7718016,1.62712101 34.2649474,1.14729905 33.69,0.76 C33.4447725,0.568582879 33.1130946,0.530367257 32.8307609,0.660999268 C32.5484272,0.79163128 32.362847,1.06917529 32.35,1.38 C32.2314353,1.84178829 32.0672962,2.2906583 31.86,2.72 C30.6801246,5.25419656 30.5542432,8.15306507 31.51,10.78 C31.85,11.71 32.4,12.68 32.86,13.67 C33.2767776,14.4524627 33.4996862,15.323521 33.51,16.21 C33.3108425,17.4583639 32.7904816,18.6334834 32,19.62 C31.0161112,20.9127728 30.5362573,22.5193948 30.65,24.14 C30.7252687,24.6990217 30.8978771,25.2405381 31.16,25.74 C31.4542067,26.3365505 31.8578755,26.8725142 32.35,27.32 C34.2332548,28.889169 36.7319693,29.5083195 39.13,29 C39.7019523,28.8391241 40.2381279,28.5710363 40.71,28.21 C40.8988087,28.049492 41.0759251,27.8757175 41.24,27.69 C41.3794491,27.8627179 41.5297531,28.0263822 41.69,28.18 C42.1161209,28.5470487 42.6130394,28.8227364 43.15,28.99 C45.3643635,29.5174865 47.6954434,28.8933586 49.35,27.33 C49.7982162,26.8735912 50.1576587,26.3378185 50.41,25.75 C50.6441924,25.2545496 50.7961796,24.7242832 50.86,24.18 C50.9718117,22.6274692 50.5444208,21.0839172 49.65,19.81 C48.9144357,18.8534741 48.4483057,17.7174983 48.3,16.52 C48.362849,15.6067926 48.6184612,14.7172621 49.05,13.91 C49.82,12.14 50.87,10.3 51.23,9.18 Z M48.23,20.64 C48.9486644,21.5919636 49.3033385,22.7694814 49.23,23.96 C49.1822368,24.3068246 49.0810369,24.6441575 48.93,24.96 C48.7616052,25.3658701 48.5172251,25.7358343 48.21,26.05 C47.0242596,27.1903595 45.3437612,27.656538 43.74,27.29 C43.4325684,27.1931772 43.1471608,27.0368826 42.9,26.83 C42.7226342,26.6644431 42.5679581,26.4761417 42.44,26.27 C41.81,25.22 42.62,24.53 43.5,23.92 C43.7500859,23.7413672 43.8858754,23.4428844 43.8562178,23.1369873 C43.8265602,22.8310901 43.6359613,22.5642516 43.3562178,22.4369873 C43.0764743,22.3097229 42.7500859,22.3413672 42.5,22.52 C42.0439273,22.8238704 41.6303001,23.1870552 41.27,23.6 C40.8542602,23.1740435 40.3873745,22.8012067 39.88,22.49 C39.463025,22.2469947 38.9280053,22.388025 38.685,22.805 C38.4419947,23.221975 38.583025,23.7569947 39,24 C40,24.6 40.9,25.25 40.2,26.28 C40.0564585,26.4951793 39.8811344,26.6873615 39.68,26.85 C39.3807871,27.0730688 39.0411999,27.2360707 38.68,27.33 C36.8547367,27.7173887 34.9523547,27.2537521 33.51,26.07 C33.1725967,25.7648867 32.8916296,25.402676 32.68,25 C32.5153785,24.6880693 32.4070531,24.3495526 32.36,24 C32.287501,22.764382 32.6758827,21.54579 33.45,20.58 C34.3969456,19.3549776 35.0071254,17.9036461 35.22,16.37 C35.2307059,15.2015895 34.9560941,14.04822 34.42,13.01 C33.98,12.07 33.42,11.14 33.12,10.25 C32.3244084,8.01558792 32.4430031,5.55744509 33.45,3.41 C33.51,3.25 33.57,3.11 33.63,2.96 L33.89,3.28 C34.9605322,4.58711613 35.8424549,6.0379126 36.51,7.59 C36.83,8.71 37.51,11.81 37.65,12.41 C37.7585082,12.8614225 38.1894549,13.1587758 38.65,13.1 C41.26,12.66 41.38,12.64 43.65,13.1 C44.1036001,13.1207659 44.5142525,12.8333092 44.65,12.4 C44.84,11.72 45.75,8.27 45.94,7.73 C46.5157348,5.72388123 47.713198,3.95219592 49.36,2.67 C50.2354081,4.55617438 50.3359431,6.7104959 49.64,8.67 C49.3,9.75 48.27,11.51 47.53,13.17 C46.9934381,14.2271266 46.6867158,15.3858554 46.63,16.57 C46.7919569,18.0364495 47.3254551,19.4373126 48.18,20.64 L48.23,20.64 Z"/>
        <circle id="Oval" cx="38.08" cy="18.18" r="1" fill="#3C454E" fill-rule="nonzero"/>
        <circle id="Oval" cx="44.37" cy="18.18" r="1" fill="#3C454E" fill-rule="nonzero"/>
      </g>
    </g>
  </g>
</svg>
