<svg xmlns="http://www.w3.org/2000/svg" width="64" height="64" viewBox="0 0 64 64" style="background:#fff">
  <g id="Kapern" fill="none" fill-rule="evenodd" stroke="none" stroke-width="1">
    <rect width="64" height="64" fill="#FFF"/>
    <g transform="translate(2 4)">
      <rect id="Rectangle" width="60" height="60" x="0" y="0"/>
      <rect id="Rectangle" width="60" height="60" x="0" y="0"/>
      <path id="Path" fill="#BAB41D" fill-rule="nonzero" d="M24.14 33.48C22.86 30.53 18.63 29.03 16.54 32.35L16.1 33.08C12.96314 34.4939046 10.277742 36.746732 8.34 39.59 5.23 43.93 3.91 50.39 8.73 54.3 13.55 58.21 21.14 56.7 24.4 52.16 28.54 46.4 26.7 39.39 24.14 33.48zM44.62 29.13C43.8482772 28.664353 42.9707258 28.4028083 42.07 28.37 41.7481948 28.2125108 41.3667259 28.2392136 41.07 28.44 40.91 28.52 40.77 28.62 40.62 28.7 40.4878239 28.7671712 40.3608091 28.8440486 40.24 28.93 31.39 34.61 31.19 51.49 43.1 54.32 49.9 55.93 54.1 50.1 54.72 44.94 55.56 38.06 50.89 32.69 44.62 29.13z" opacity=".5"/>
      <path id="Path" fill="#3D454C" fill-rule="nonzero" d="M18,37.12 C17.8273171,37.1235672 17.6585021,37.1718001 17.51,37.26 C14.973263,39.1526928 13.0246826,41.7253737 11.89,44.68 C11.7110198,45.1410734 11.9330744,45.6606812 12.39,45.85 C12.4958375,45.8884365 12.6074065,45.9087218 12.72,45.9100067 C13.0853905,45.9114116 13.4145198,45.6893484 13.55,45.35 C14.530626,42.7250505 16.2454382,40.4374772 18.49,38.76 C18.8974187,38.4847762 19.0125475,37.9357006 18.75,37.52 C18.5814557,37.2709267 18.3007378,37.1212105 18,37.12 L18,37.12 Z"/>
      <path id="Shape" fill="#3D454C" fill-rule="nonzero" d="M22.67,6.88 C22.3162971,6.60925751 21.8853463,6.4585999 21.44,6.45 C20.9084359,6.45404111 20.4034284,6.6829294 20.05,7.08 C19.85,7.29 19.69,7.42 19.54,7.42 L19.54,7.42 L19.29,7.42 C18.66,7.42 18.23,7.76 17.82,8.54 C17.5420885,9.06581339 17.6134444,9.70801628 18,10.16 C18.72,11.02 20.63,11.54 22.07,11.54 L22.46,11.54 C24.1733379,14.6387119 24.8957807,18.1881047 24.53,21.71 C24.1533943,25.0473118 23.3778553,28.3274054 22.22,31.48 C19.27,32.41 10.81,36.83 8.76,43.17 C6.88,49 10,53.23 12.81,54.34 C14.0805158,54.8568047 15.4384052,55.1249878 16.81,55.1301296 C18.1696548,55.1372948 19.5132911,54.8364297 20.74,54.25 C23.0347468,53.0417216 24.6967359,50.9022751 25.3,48.38 C26.4512727,44.2629329 26.3643209,39.8979516 25.05,35.83 C24.99,35.63 24.94,35.45 24.91,35.3 C24.6611858,34.3247093 24.263156,33.3937242 23.73,32.54 L23.73,32.54 C25.0171184,29.1222857 25.8769672,25.5586153 26.29,21.93 C26.7672835,17.7726443 25.845375,13.5747937 23.67,10 C24.0244127,8.8531967 23.6250264,7.60711127 22.67,6.88 L22.67,6.88 Z M21.89,9.66 L21.84,9.75 C21.0878362,9.7169061 20.3499504,9.53328473 19.67,9.21 L19.67,9.21 C20.3346873,9.15259003 20.9461877,8.82332061 21.36,8.3 C21.36,8.3 21.42,8.23 21.45,8.23 C21.513056,8.24016961 21.5719724,8.26789497 21.62,8.31 C22.0187606,8.63902834 22.1315373,9.20291207 21.89,9.66 Z M23.6,47.89 C23.1450465,49.922718 21.8320537,51.6587863 20,52.65 C19.0207967,53.1208498 17.9464766,53.3603479 16.86,53.35 C15.7121475,53.3388586 14.5763005,53.1150797 13.51,52.69 C11.8,52.01 8.83,48.93 10.51,43.69 C12.07,38.86 18.75,34.69 22.17,33.37 C22.6675188,34.0897047 23.0238314,34.8973467 23.22,35.75 L23.39,36.37 C24.5885362,40.106261 24.6615673,44.1125392 23.6,47.89 L23.6,47.89 Z"/>
      <path id="Path" fill="#3D454C" fill-rule="nonzero" d="M40.85,37.17 C40.725005,37.0988358 40.5838304,37.0609597 40.44,37.06 C40.1083381,37.0622113 39.8047716,37.2466568 39.65,37.54 C38.3462067,40.4264782 37.9018104,43.6275199 38.37,46.76 C38.425342,47.2043569 38.802213,47.5384016 39.25,47.54 L39.37,47.54 C39.4818912,47.5265475 39.5903585,47.4926515 39.69,47.44 C40.0093588,47.2597045 40.1873789,46.9036643 40.14,46.54 C39.7215236,43.7716763 40.0995841,40.9414251 41.23,38.38 C41.3395886,38.1703185 41.3611787,37.9256315 41.29,37.7 C41.2282467,37.4673087 41.0673575,37.2735104 40.85,37.17 Z"/>
      <path id="Shape" fill="#3D454C" fill-rule="nonzero" d="M52.06,42.65 C51.0610426,38.50977 48.8625729,34.7563699 45.74,31.86 L45.32,31.43 C44.6459322,30.7009647 43.8633885,30.0803266 43,29.59 L43,29.59 C42.4565939,25.9463172 41.4483784,22.3873167 40,19 C38.367688,15.1848235 35.5152311,12.0193349 31.89,10 C31.6379026,8.81887013 30.6756394,7.92049155 29.48,7.75 L29.18,7.75 C28.2777634,7.71956278 27.4825883,8.33803233 27.29,9.22 C27.17,9.71 27.09,9.74 27.01,9.78 C26.28,10.08 26.01,10.59 26.01,11.58 C26.031685,12.1868308 26.4316984,12.7148485 27.01,12.9 C27.330435,12.9970063 27.6666384,13.0309662 28,13 C29.2914619,12.9409462 30.5455708,12.5481759 31.64,11.86 C34.6449698,13.7304868 37.004298,16.4772196 38.4,19.73 C39.7056342,22.8236487 40.6323615,26.0638365 41.16,29.38 C39.04,31.63 33.82,39.62 35.16,46.15 C36.24,51.55 40.16,54 43.42,54 L43.42,54 C43.6630869,54.015489 43.9069131,54.015489 44.15,54 C45.5112495,53.822483 46.8272437,53.3917323 48.03,52.73 C51.6080391,50.8018184 53.3313412,46.6190463 52.15,42.73 L52.06,42.65 Z M30.16,10.65 C29.4827147,10.9770015 28.7499877,11.1737523 28,11.23 C28.551214,10.8547871 28.9152595,10.261393 29,9.6 C29,9.52 29,9.49 29.16,9.49 L29.24,9.49 C29.7326351,9.5796397 30.1025686,9.99067695 30.14,10.49 L30.16,10.65 Z M49.47,49 C48.1153205,50.8078996 46.0671743,51.9679116 43.82,52.2 C43.6735392,52.2109905 43.5264608,52.2109905 43.38,52.2 C41.55,52.2 37.84,50.86 36.82,45.78 C35.8,40.7 39.6,33.9 42,31.1 C42.7554964,31.4948105 43.4331281,32.0233632 44,32.66 L44.45,33.12 C47.3301236,35.7882877 49.3611867,39.2452684 50.29,43.06 C50.8974862,45.0647203 50.5979065,47.2348457 49.47,49 L49.47,49 Z"/>
      <path id="Path" fill="#3D454C" fill-rule="nonzero" d="M43.64,33.54 C43.4879518,33.3983598 43.2877992,33.3197284 43.08,33.3199993 C42.8430952,33.3217258 42.6179344,33.4234113 42.46,33.6 C42.3111656,33.7630288 42.2353167,33.97974 42.25,34.2 C42.2569623,34.419245 42.3547685,34.6257246 42.52,34.77 C44.4369844,36.6804195 45.7839828,39.0870104 46.41,41.72 C47.41,45.96 46.47,47.88 46.47,47.9 C46.2676343,48.295871 46.4131419,48.7808961 46.8,49 C46.9239263,49.063498 47.0607718,49.0977094 47.2,49.1 C47.3406862,49.0991434 47.4786585,49.061201 47.6,48.99 C47.7366865,48.9183027 47.8483027,48.8066865 47.92,48.67 C48.06,48.43 49.2,46.16 48.02,41.3 C47.2945137,38.3624917 45.7799428,35.6791424 43.64,33.54 Z"/>
      <circle id="Oval" cx="12.73" cy="48.8" r="1" fill="#3D454C" fill-rule="nonzero"/>
    </g>
  </g>
</svg>
