<svg xmlns="http://www.w3.org/2000/svg" width="64" height="64" viewBox="0 0 64 64" style="background:#fff">
  <g id="Kardamom" fill="none" fill-rule="evenodd" stroke="none" stroke-width="1">
    <rect width="64" height="64" fill="#FFF"/>
    <g transform="translate(2 6)">
      <rect id="Rectangle" width="60" height="60" x="0" y="0"/>
      <rect id="Rectangle" width="60" height="60" x="0" y="0"/>
      <path id="Path" fill="#BAB41D" fill-rule="nonzero" d="M51,5.59 C47.2,5.69 43.39,8.35 39.44,8.93 C35.49,9.51 31.29,9.81 27.26,10.58 C20.32,11.92 14,14.84 10.32,21.15 C9.17,23.15 8.99,30.44 12.9,29.79 C24.64,27.84 36.9,24.86 47.32,18.96 C48.75,18.15 49.52,16.26 49.71,14.23 C50.9039932,13.3000067 51.8744317,12.1142949 52.55,10.76 C53.22,9.36 53.44,5.52 51,5.59 Z" opacity=".5"/>
      <path id="Path" fill="#C17953" fill-rule="nonzero" d="M15.63,33.7 C15.3254362,33.9935488 15.0659622,34.330528 14.86,34.7 C14.01242,34.7940316 13.1815117,35.0025997 12.39,35.32 C11.56,35.66 11.53,37.19 12.03,37.8 C12.7358064,38.6558038 13.5377478,39.4275465 14.42,40.1 C14.8144399,41.5832726 16.0228136,42.710052 17.53,43 C18.3071001,43.0951187 19.0928999,43.0951187 19.87,43 C23.3863995,44.2486991 27.0028175,45.195458 30.68,45.83 C35.54,46.83 41.33,47.83 42.9,41.6 C46.38,28 22.24,27.5 15.63,33.7 Z" opacity=".5"/>
      <path id="Path" fill="#BAB41D" fill-rule="nonzero" d="M44.77,46.63 C41.06,46 36.83,47.69 33,47.94 C29.1541535,48.2919899 25.2765189,47.8981146 21.58,46.78 C18.2377342,45.5505972 15.266475,43.4848318 12.95,40.78 C11.4117039,38.9401774 9.3988939,37.5568028 7.13,36.78 C6.25,36.51 6.13,38.16 6.69,38.55 C9.83,41 11.28,44.81 14.11,47.55 C16.4073154,49.7544576 19.1677828,51.4182541 22.19,52.42 C28.82,54.69 39.33,54.92 45.24,51.04 C46.72,50.14 46.76,47 44.77,46.63 Z" opacity=".5"/>
      <path id="Shape" fill="#3D454C" fill-rule="nonzero" d="M52.45,9.82 C52.1329772,8.57755049 51.2122472,7.57790074 50,7.16 C49.0812326,6.93348445 48.1108495,7.20261414 47.44,7.87 C46.3893807,8.65529074 45.8804536,9.97228532 46.13,11.26 C45.78,11.26 45.23,11.2 44.37,11.09 C38.08,10.32 11,14.23 9.2,22.88 C9.07,23.52 8.92,24.05 8.8,24.51 C8.09,27.13 8.15,28.29 11.63,30.12 C12.8,30.74 14.38,31.43 15.94,32.12 L15.72,32.28 C15.1166236,32.7465554 14.4410528,33.1113637 13.72,33.36 C13.2689458,33.4536335 12.8104917,33.5071755 12.35,33.52 C10.71,33.63 8.46,33.77 7,36.62 C6.94439033,36.715601 6.90708666,36.8207295 6.89,36.93 C6.89,37.01 6.89,37.1 6.81,37.19 C6.4581965,37.8868604 6.60445534,38.7319114 7.17,39.27 C9.19981684,40.91622 10.7904744,43.0393871 11.8,45.45 C12.8,47.45 13.71,49.35 15.95,50.45 C20.9016776,52.6979855 26.2928872,53.8117589 31.73,53.71 C35.9579304,53.7687421 40.1638864,53.0919993 44.16,51.71 C48.03,50.24 48.55,47.93 49.22,45 C49.32,44.54 49.43,44 49.56,43.54 C49.5695335,43.4803787 49.5695335,43.4196213 49.56,43.36 C49.8079755,42.8144507 49.9989874,42.2447663 50.13,41.66 C50.83,38.52 49.68,35.54 46.91,33.27 L46.82,33.2 C44.6754358,32.1086982 42.4004021,31.2954661 40.05,30.78 C45.57,27.68 47.34,23.1 48.49,19.36 C48.4930931,19.3267384 48.4930931,19.2932616 48.49,19.26 L48.78,18.26 C49.1240181,16.8454546 49.648308,15.4809565 50.34,14.2 C50.7081865,13.6199175 51.1446386,13.086103 51.64,12.61 C52.5442564,11.9946727 52.8841584,10.8238993 52.45,9.82 Z M45.75,34.82 C47.7564633,36.2720045 48.7298653,38.7621936 48.24,41.19 C47.3502712,44.3608576 44.7996897,46.7925398 41.59,47.53 C36.94,48.7 32.3,48.24 26.76,47.2 C26.4986931,47.1503199 26.2283605,47.2067906 26.008793,47.3569222 C25.7892255,47.5070539 25.6385168,47.7384746 25.59,48 C25.492215,48.5375558 25.8439873,49.0540823 26.38,49.16 C31.38,50.16 36.79,50.8 42.08,49.47 C43.6944543,49.055034 45.2037179,48.3055126 46.51,47.27 C45.9247436,48.5109524 44.8304835,49.437426 43.51,49.81 C36.78,52.36 24.99,52.61 16.9,48.6 C15.27,47.8 14.56,46.35 13.66,44.51 C12.7867204,42.5457315 11.6014075,40.735681 10.15,39.15 C10.7980531,39.2396663 11.4152398,39.4831121 11.95,39.86 C12.4439381,40.3322424 12.8413154,40.8960428 13.12,41.52 C14.0700316,43.6816833 15.919146,45.3188438 18.18,46 C18.4345962,46.0811852 18.711095,46.0570928 18.947813,45.9330976 C19.1845311,45.8091025 19.3617736,45.5955208 19.44,45.34 C19.6026415,44.8125945 19.3072508,44.2531424 18.78,44.09 C17.0062562,43.5692666 15.5622299,42.2758895 14.85,40.57 C14.4482946,39.6888263 13.861685,38.9044064 13.13,38.27 C12.1838362,37.6055808 11.0810069,37.1989125 9.93,37.09 C9.67,37.09 9.29,36.99 9.12,36.94 C10.01,35.62 11.12,35.55 12.51,35.46 C13.0889763,35.4409221 13.6648613,35.3672624 14.23,35.24 C15.1763838,34.9466028 16.0609927,34.4822678 16.84,33.87 C18.9,32.48 21.7,30.54 29,30.71 C32.18,30.78 43.17,33.24 45.75,34.84 L45.75,34.82 Z M37.05,30 C36.05,29.78 35.05,29.58 34.14,29.4 C38.0961162,27.8966556 41.7682918,25.7325742 45,23 C43.314282,26.2420152 40.4793149,28.7382127 37.05,30 Z M50.32,11.21 C49.7245907,11.7911848 49.1978142,12.4387508 48.75,13.14 C47.9639289,14.5777603 47.3752935,16.1149398 47,17.71 L46.76,18.5 C42.3093609,23.3387087 36.5995381,26.8428571 30.27,28.62 C30.1587698,28.6516967 30.0538814,28.7024492 29.96,28.77 L29.06,28.71 C23.54,28.6 20.25,29.65 18.06,30.79 C17.24,30.45 15.7,29.79 14.29,29.18 C20.06,28.33 31.29,25.85 36.6,23.18 C36.8420596,23.053314 37.0217465,22.8331065 37.0973011,22.5705543 C37.1728557,22.308002 37.1376985,22.0259689 37,21.79 C36.7468406,21.303439 36.1490062,21.1115966 35.66,21.36 C29.9,24.3 15.86,27.18 11.66,27.48 C11.5009886,27.4901499 11.3467045,27.5381494 11.21,27.62 C10.69,27.29 10.46,27.02 10.4,26.62 C10.4867067,26.5816309 10.5675158,26.5311252 10.64,26.47 C16.28,21.72 30.87,18.16 38.05,17.88 C38.6022847,17.88 39.05,17.4322847 39.05,16.88 C39.05,16.3277153 38.6022847,15.88 38.05,15.88 C31.05,16.15 17.89,19.27 11.1,23.71 C11.1,23.57 11.16,23.41 11.2,23.26 C12.6,16.58 37.95,12.26 44.12,13.04 C46.52,13.33 47.42,13.33 47.96,12.7 C48.2952788,12.2509145 48.3711473,11.6591401 48.16,11.14 C48.01,10.59 47.88,10.14 48.78,9.3 C49.14,8.96 49.41,9.03 49.5,9.06 C49.83,9.14 50.3,9.54 50.6,10.43 C50.69,10.69 50.7,10.8 50.71,10.81 C50.5939677,10.9562726 50.4632886,11.0903024 50.32,11.21 Z"/>
      <path id="Shape" fill="#3D454C" fill-rule="nonzero" d="M28.63,34 C28.075957,32.7420596 26.7784294,31.9804673 25.41,32.11 L25.41,32.11 C23.670538,32.2430123 22.3679458,33.760465 22.5,35.5 L22.5,35.75 C21.9800767,35.5863582 21.4326345,35.5285538 20.89,35.58 C19.8060849,35.6761425 18.8003381,36.1843847 18.08,37 C17.3589443,37.8156834 17.0015194,38.8900351 17.0902127,39.975113 C17.178906,41.060191 17.706054,42.0622385 18.55,42.75 C20.3344912,44.2211243 22.9648778,44.0085678 24.49,42.27 C24.6778852,42.0454525 24.8452241,41.8044845 24.99,41.55 C24.9498667,41.8553536 24.9498667,42.1646464 24.99,42.47 C25.0779215,43.4852909 25.5763446,44.4207372 26.37,45.06 C28.0317082,46.3591703 30.4166802,46.1447417 31.82,44.57 C32.0326075,44.3326436 32.2109996,44.0667384 32.35,43.78 C32.5355908,45.5805524 34.0599677,46.9446965 35.87,46.9301176 L36.2,46.9301176 C37.1285608,46.8521344 37.9898762,46.4142991 38.6,45.71 C39.2122756,45.0084367 39.5120158,44.0875484 39.43,43.16 C39.4000969,42.856252 39.3329253,42.5573386 39.23,42.27 C40.4692798,42.2119029 41.5757005,41.4756312 42.1078587,40.3549182 C42.6400169,39.2342053 42.5113052,37.9114445 41.7730727,36.9143474 C41.0348401,35.9172504 39.8072324,35.4080922 38.58,35.59 C37.8388618,35.6567663 37.1382925,35.9580111 36.58,36.45 C36.5949892,36.23693 36.5949892,36.02307 36.58,35.81 C36.474421,34.6781626 35.9177333,33.636453 35.0354274,32.919697 C34.1531215,32.202941 33.0194611,31.8714681 31.89,32 C30.7711607,32.092023 29.7332675,32.619948 29,33.47 C28.8632352,33.6368999 28.7395357,33.8140911 28.63,34 Z M23,41 C22.1898524,41.9204166 20.7951889,42.0311042 19.85,41.25 C19.4297647,40.9078885 19.1663355,40.4098991 19.12,39.87 C19.0678923,39.3158312 19.2490817,38.7650155 19.62,38.35 C19.9989454,37.9071546 20.5387877,37.6336345 21.12,37.59 C22.2957106,37.4665365 23.353926,38.306884 23.5,39.48 C23.5426849,40.0330689 23.3626827,40.5802757 23,41 Z M24.51,35.34 C24.4296693,34.8530206 24.6557053,34.3665215 25.0796884,34.1138552 C25.5036716,33.8611889 26.0391191,33.8938934 26.4292001,34.1962818 C26.8192811,34.4986702 26.9844282,35.0090623 26.8454275,35.4826452 C26.7064268,35.9562281 26.2916311,36.2964019 25.8,36.34 C25.4861563,36.3792721 25.1697832,36.2898053 24.9229851,36.09199 C24.676187,35.8941748 24.5199926,35.604866 24.49,35.29 L24.51,35.34 Z M25.44,40.34 C25.4811057,40.0079339 25.4811057,39.6720661 25.44,39.34 C25.4141591,38.9988994 25.3435532,38.662681 25.23,38.34 C26.3049869,38.4900032 27.3824847,38.0831159 28.09,37.26 C28.1935104,37.6582387 28.3552546,38.0390115 28.57,38.39 L28.46,38.39 C27.1980754,38.4995552 26.0663159,39.2106278 25.42,40.3 L25.44,40.34 Z M30.3,43.34 C29.6163017,44.1271703 28.4326836,44.233166 27.62,43.58 C27.2461874,43.2875401 27.0107426,42.8528728 26.97,42.38 C26.9734414,41.4127374 27.7066252,40.6041804 28.6689396,40.5064051 C29.6312539,40.4086299 30.5120813,41.0531964 30.71,42 C30.7366826,42.457009 30.5821876,42.9061223 30.28,43.25 L30.3,43.34 Z M38.74,37.64 C39.2926354,37.6278066 39.7976735,37.9513172 40.0176606,38.4584269 C40.2376476,38.9655367 40.1288138,39.5553484 39.7423296,39.9505503 C39.3558454,40.3457522 38.7686076,40.4677129 38.2567178,40.2590902 C37.7448281,40.0504674 37.4101345,39.5527699 37.41,39 C37.3866448,38.2433811 37.9649014,37.6033261 38.72,37.55 L38.74,37.64 Z M35.74,42.07 C36.1394085,42.0221762 36.5413899,42.1356966 36.8567813,42.3853815 C37.1721727,42.6350664 37.3749012,43.0002746 37.42,43.4 C37.4506016,43.7860205 37.3244439,44.1680983 37.07,44.46 C36.7961209,44.7709971 36.4128711,44.9644129 36,45 C35.4641016,45.0482309 34.9431802,44.8068996 34.6334619,44.3669134 C34.3237435,43.9269272 34.2722818,43.3551305 34.4984619,42.8669134 C34.7246419,42.3786964 35.1941016,42.0482308 35.73,42 L35.74,42.07 Z M35.43,39.3 C35.4513694,39.5622836 35.505111,39.8209153 35.59,40.07 L35.59,40.07 C34.3875847,40.1717196 33.3185535,40.875624 32.75,41.94 C32.75,41.94 32.75,41.88 32.75,41.85 C32.7064037,41.3456918 32.5600686,40.8556394 32.32,40.41 L32.69,40.41 C33.7395888,40.291726 34.7083754,39.7895241 35.41,39 C35.4093499,39.070133 35.4126887,39.1402461 35.42,39.21 L35.43,39.3 Z M30.52,34.87 C30.9021262,34.3874192 31.4590146,34.0748431 32.07,34 C32.6636799,33.9328929 33.2594592,34.1068207 33.7237887,34.482796 C34.1881181,34.8587712 34.4821592,35.4053458 34.54,36 C34.570001,36.5614281 34.3757587,37.1117812 34,37.53 C33.6056601,37.9901976 33.0443278,38.2744621 32.44,38.32 C31.8468521,38.3843306 31.2525486,38.2093738 30.7888676,37.8339236 C30.3251866,37.4584734 30.0304459,36.9135564 29.97,36.32 C29.9395204,35.755491 30.1336524,35.2018553 30.51,34.78 L30.52,34.87 Z"/>
      <path id="Path" fill="#3D454C" fill-rule="nonzero" d="M22.61,46 C22.0577153,46 21.61,46.4477153 21.61,47 C21.61,47.5522847 22.0577153,48 22.61,48 C23.1622847,48 23.61,47.5522847 23.61,47 C23.61,46.4477153 23.1622847,46 22.61,46 Z"/>
    </g>
  </g>
</svg>
