<svg xmlns="http://www.w3.org/2000/svg" width="64" height="64" viewBox="0 0 64 64" style="background:#fff">
  <g id="Karotten" fill="none" fill-rule="evenodd" stroke="none" stroke-width="1">
    <rect width="64" height="64" fill="#FFF"/>
    <g transform="translate(2 4)">
      <rect id="Rectangle" width="60" height="60" x="0" y="0"/>
      <rect id="Rectangle" width="60" height="60" x="0" y="0"/>
      <path id="Path" fill="#E0673A" fill-rule="nonzero" d="M43.07,23.42 C38.99,21.42 36.31,18.07 32.2,17.09 C32.04,16.93 31.88,16.76 31.73,16.59 C30.19,14.88 27.83,16.18 26.83,17.68 C20.48,27.19 14.31,36.86 7.7,46.19 C5.26,49.63 7.55,59.78 12.91,55.88 C18.27,51.98 23.49,48.47 28.91,44.96 C34,41.64 39.76,38.68 44.3,34.57 C47.29,31.88 46.75,25.25 43.07,23.42 Z" opacity=".5"/>
      <path id="Path" fill="#31E085" fill-rule="nonzero" d="M54.93,18.82 C54.0325223,17.943844 52.9634378,17.2628985 51.79,16.82 C52.3262889,15.8886399 52.7047358,14.8749427 52.91,13.82 C53.22,12.12 52.97,8.48 50.51,8.48 C49.7904854,8.54998495 49.1530683,8.97367988 48.81,9.61 C47.81,11.67 47.12,13.55 45.16,14.87 C45.1717433,14.7890528 45.1884413,14.7089023 45.21,14.63 C45.75,12.16 46.39,7.37 43.72,5.79 C41.31,4.33 40.26,8.25 40,9.92 C39.57,12.66 38.63,15.54 38.7,18.32 C38.7,19.57 39.57,21.83 41.21,21.32 C42.1307799,21.8053529 43.1746655,22.0071708 44.21,21.9 C45.11,22.16 46.05,22.34 46.92,22.68 C48.8687278,23.5411432 50.7221271,24.60358 52.45,25.85 C54.04,26.85 55.45,25.94 56.06,24.31 C56.7416513,22.4128202 56.305488,20.2937613 54.93,18.82 L54.93,18.82 Z" opacity=".5"/>
      <path id="Shape" fill="#3D454C" fill-rule="nonzero" d="M53.14,20.41 C52.1916936,20.1503061 51.3313029,19.6389092 50.65,18.93 C50.2343784,18.536101 49.786106,18.1781522 49.31,17.86 C50.5427159,17.6198929 51.7942675,17.4893835 53.05,17.47 C53.6022847,17.47 54.05,17.0222847 54.05,16.47 C54.05,15.9177153 53.6022847,15.47 53.05,15.47 L53.05,15.47 C51.799025,15.4897904 50.551669,15.6101787 49.32,15.83 C50.1352178,14.2230193 50.4288558,12.4017642 50.16,10.62 C50.16,10.37 50.16,10.13 50.16,9.88 C50.16,9.32771525 49.7122847,8.88 49.16,8.88 C48.6077153,8.88 48.16,9.32771525 48.16,9.88 C48.16,10.14 48.16,10.4 48.16,10.66 C48.31,13 48.43,15.02 45.32,16.8 C45.32,16.8 45.32,16.8 45.26,16.85 C43.5343836,17.4945803 41.8845485,18.3262044 40.34,19.33 C42.5617128,15.9909755 43.9347866,12.1600995 44.34,8.17 C44.3952284,7.61771527 43.9922847,7.12522852 43.44,7.07000004 C42.8877153,7.01477157 42.3952285,7.41771527 42.34,7.97 C42.1426318,9.97276449 41.6785247,11.940175 40.96,13.82 C40.3859241,11.8486664 39.4574245,9.99844443 38.22,8.36 C37.8858677,7.9181722 37.2568278,7.83086773 36.815,8.165 C36.3731722,8.49913227 36.2858677,9.1281722 36.62,9.57 C38.2462142,11.7313671 39.2336096,14.3055242 39.47,17 C38.9960498,17.8334865 38.4682638,18.6351867 37.89,19.4 C37.1290981,18.7827408 36.3198272,18.2276211 35.47,17.74 C31.34,15.39 28.71,15 25.78,19 L24.6,20.66 C24.33,21.08 23.07,23.16 20.86,26.84 C17.42,32.58 11.92,41.84 11.67,42.29 C10.58,44.42 9.67,46.29 9.06,47.8 C8.15,49.96 7.58,51.57 8.51,52.55 C8.89244399,52.9249011 9.41534695,53.1209897 9.95,53.09 C10.9453111,53.017425 11.9217935,52.7809068 12.84,52.39 C18.61,49.76 24.17,46.91 29.37,43.92 L33.19,41.66 C35.98,39.96 38.75,38.16 41.43,36.32 C46.68,32.69 45.76,29.12 42.37,24.17 C42.15,23.85 41.91,23.53 41.66,23.17 C43.7547812,22.9861743 45.8622428,23.329969 47.79,24.17 C47.9156863,24.2273047 48.0518817,24.2579487 48.19,24.26 C48.5888865,24.261389 48.9504469,24.0255887 49.11,23.66 C49.216972,23.4161019 49.2222338,23.1396083 49.124619,22.8918168 C49.0270041,22.6440253 48.8345777,22.4454088 48.59,22.34 C46.250043,21.3246884 43.6844156,20.9419133 41.15,21.23 C42.6470999,20.240518 44.250455,19.422069 45.93,18.79 C46.039207,18.8491275 46.1574873,18.8896807 46.28,18.91 C47.4313798,19.0054766 48.5035963,19.5344368 49.28,20.39 C50.1952029,21.3194399 51.3409747,21.9889572 52.6,22.33 C52.686388,22.3398286 52.773612,22.3398286 52.86,22.33 C53.4122847,22.3990356 53.9159644,22.0072847 53.985,21.455 C54.0540355,20.9027153 53.6622847,20.3990356 53.11,20.33 L53.14,20.41 Z M40.29,34.67 C37.65,36.49 34.91,38.27 32.16,39.94 L31.93,40.08 C30.9369294,38.1231891 29.4857537,36.4352968 27.7,35.16 C27.4128784,34.9141441 27.0116659,34.8511964 26.663047,34.9973086 C26.314428,35.1434209 26.0779898,35.4736191 26.051961,35.8507218 C26.0259322,36.2278245 26.2147617,36.587376 26.54,36.78 C28.0892332,37.9038806 29.3390945,39.3906661 30.18,41.11 L28.36,42.19 C23.23,45.19 17.73,47.97 12.09,50.54 C11.4363285,50.8199736 10.7460287,51.005176 10.04,51.09 C10.237766,50.2209385 10.5294818,49.3759685 10.91,48.57 C11.53,47.1 12.38,45.29 13.45,43.2 C13.56,42.99 14.65,41.14 16.17,38.58 C17.341258,39.1295925 18.3683968,39.944456 19.17,40.96 C19.3587926,41.205247 19.6505034,41.3492561 19.96,41.35 C20.3406023,41.3490869 20.6876891,41.1321985 20.8553486,40.7905127 C21.0230081,40.4488268 20.9821692,40.0415898 20.75,39.74 C19.7988026,38.5247601 18.5852332,37.5402305 17.2,36.86 C18.86,34.08 20.81,30.8 22.57,27.86 L24.09,25.34 C26.2902419,26.2767392 28.2169714,27.7561923 29.69,29.64 C29.8987685,29.9478935 30.26119,30.1144549 30.6308003,30.0723723 C31.0004105,30.0302898 31.3161131,29.7865195 31.450324,29.4395755 C31.584535,29.0926316 31.5150693,28.6998637 31.27,28.42 C29.6514515,26.3347197 27.5421128,24.6822898 25.13,23.61 C25.75,22.61 26.13,21.95 26.26,21.77 C26.64,21.23 27.02,20.69 27.4,20.17 C29.4,17.41 30.65,17.29 34.49,19.45 C35.4035112,19.969403 36.2671692,20.5719551 37.07,21.25 L39.19,23.32 C39.7358457,23.9584647 40.2465985,24.6261154 40.72,25.32 C44.07,30.2 44,32.13 40.29,34.67 Z"/>
      <path id="Path" fill="#3D454C" fill-rule="nonzero" d="M33.12 31.29C32.5677153 31.29 32.12 31.7377153 32.12 32.29 32.12 32.8422847 32.5677153 33.29 33.12 33.29 33.6722847 33.29 34.12 32.8422847 34.12 32.29 34.12 31.7377153 33.6722847 31.29 33.12 31.29zM23.92 32.68L23.84 32.68C23.2877153 32.68 22.84 33.1277153 22.84 33.68 22.84 34.2322847 23.2877153 34.68 23.84 34.68L23.92 34.68C24.4722847 34.68 24.92 34.2322847 24.92 33.68 24.92 33.1277153 24.4722847 32.68 23.92 32.68z"/>
    </g>
  </g>
</svg>
