<svg xmlns="http://www.w3.org/2000/svg" width="64" height="64" viewBox="0 0 64 64" style="background:#fff">
  <g id="Kartoffeln" fill="none" fill-rule="evenodd" stroke="none" stroke-width="1">
    <rect width="64" height="64" fill="#FFF"/>
    <g transform="translate(2 7)">
      <rect id="Rectangle" width="60" height="60" x="0" y="0"/>
      <rect id="Rectangle" width="60" height="60" x="0" y="0"/>
      <path id="Path" fill="#C17953" fill-rule="nonzero" d="M34.05 10.26C26.74 3.45 16 13.93 12.74 20.18 10.0364858 25.5110267 8.79103964 31.4622583 9.13 37.43 9.43 42.94 10.54 51.53 16.39 53.78 20.88 55.5 22.65 49.16 22.68 46.11 22.76 38.77 18.02 33.88 22.15 26.63 25.3 21.08 31.29 17.75 34.28 12.31 34.6570382 11.6493068 34.5640743 10.8207147 34.05 10.26zM49.6 29.72C48.1 27.28 44.71 23.72 41.53 25.2 40.13 25.84 39.85 27.91 40.13 29.2 40.58 31.3 41.71 33.2 42.13 35.2 42.13 35.31 42.26 35.85 42.32 36.12 42.2918544 36.3390998 42.2918544 36.5609002 42.32 36.78 42.19 37.43 41.92 39.08 42.18 38.16 41.18 41.79 41.18 47.39 44.99 49.54 48.8 51.69 51.32 47.39 51.99 44.14 53.0272198 39.2036396 52.1743336 34.0577743 49.6 29.72z" opacity=".5"/>
      <path id="Path" fill="#3D454C" fill-rule="nonzero" d="M30.81 20.35C28.94 19.42 26.45 20.21 26.17 20.3 25.6496026 20.4757093 25.368329 21.0382565 25.54 21.56 25.6740978 21.971264 26.0574261 22.2496813 26.49 22.25 26.5961738 22.2495368 26.7013209 22.2291857 26.8 22.19 27.8049859 21.8431117 28.8943824 21.8255973 29.91 22.14 30.4043143 22.3854836 31.0040469 22.1840809 31.25 21.69 31.4969243 21.1983464 31.300313 20.5995756 30.81 20.35zM18.42 27C16.55 26.06 14.06 26.85 13.78 26.94 13.2553295 27.1139697 12.9710303 27.6803295 13.145 28.205 13.3189697 28.7296705 13.8853295 29.0139697 14.41 28.84 15.4169669 28.4876614 16.5102311 28.4666371 17.53 28.78 17.6643616 28.8549237 17.8161874 28.8928802 17.97 28.89 18.4308398 28.8872689 18.8301381 28.5699538 18.93688 28.1216381 19.0436218 27.6733224 18.8301627 27.2101126 18.42 27L18.42 27zM25.39 34.29C23.52 33.36 21.03 34.14 20.75 34.23 20.4976474 34.3143151 20.2892994 34.49572 20.1710626 34.7340704 20.0528257 34.9724209 20.0344493 35.2480635 20.12 35.5 20.2957093 36.0203974 20.8582565 36.301671 21.38 36.13 22.3839838 35.777462 23.4752024 35.7599183 24.49 36.08 24.6301653 36.1479235 24.7842591 36.1821666 24.94 36.18 25.3165582 36.1788587 25.6605498 35.9662797 25.83 35.63 26.0769243 35.1383464 25.880313 34.5395756 25.39 34.29zM16.87 43.23C15.600474 42.6466427 14.139526 42.6466427 12.87 43.23 12.5075359 43.3625727 12.2537172 43.6918957 12.2178312 44.0761716 12.1819452 44.4604475 12.3703986 44.8310725 12.7020486 45.0284658 13.0336985 45.225859 13.4493364 45.2147804 13.77 45 14.4812676 44.691225 15.2887324 44.691225 16 45 16.1363063 45.0698814 16.2868443 45.1075159 16.44 45.11 16.9088133 45.116715 17.3193454 44.7968087 17.4274022 44.3405689 17.535459 43.8843292 17.3120233 43.4142726 16.89 43.21L16.87 43.23z"/>
      <path id="Shape" fill="#3D454C" fill-rule="nonzero" d="M55.36,38.63 C54.96,33.46 52.45,30.72 49.93,29.28 C49.9110402,29.1462633 49.86693,29.0173258 49.8,28.9 C48.124693,26.2705141 45.8920464,24.0412813 43.26,22.37 C42.0249192,21.6683765 40.6991453,21.1400858 39.32,20.8 C39.4187111,18.9868186 39.3416853,17.1683395 39.09,15.37 C39.09,15.29 38.09,7.52 28.81,7.52 C22.15,7.52 18.49,12.93 16.81,15.52 C15.4677223,16.0552967 14.2740783,16.9059396 13.33,18 C8.97,23.33 5.33,28.87 5.33,42.63 C5.36304891,49.158941 10.6709848,54.4311031 17.2,54.4200175 C25.11,54.4200175 28,49 29.76,43.67 C31.0416504,40.4100596 32.7534884,37.3361501 34.85,34.53 C35.3,33.89 35.65,33.38 35.85,33.03 C37.6684894,29.9022665 38.7938761,26.4203884 39.15,22.82 C40.224558,23.1023676 41.2568997,23.5260649 42.22,24.08 C43.9001216,25.1369215 45.3964612,26.4609963 46.65,28 C45.876433,27.8093097 45.0859357,27.6954245 44.29,27.66 C43.7377153,27.66 43.29,28.1077153 43.29,28.66 C43.29,29.2122847 43.7377153,29.66 44.29,29.66 C44.63,29.66 52.67,29.81 53.36,38.73 L53.36,39.5 C53.3962124,41.7618897 52.438516,43.9258448 50.74,45.42 C48.9880812,47.0319903 46.6688364,47.884178 44.29,47.79 C40.1974223,47.6540797 36.2914248,46.0455189 33.29,43.26 C33.0682638,42.895733 32.6399201,42.7121616 32.2232206,42.8028199 C31.8065212,42.8934782 31.4931615,43.2384167 31.4428063,43.6618806 C31.392451,44.0853446 31.6161809,44.4941499 32,44.68 C35.3662988,47.8071206 39.7479783,49.6144747 44.34,49.77 C47.2339238,49.873348 50.0504026,48.8230136 52.17,46.85 C54.2644438,44.9770869 55.4459677,42.2894847 55.41,39.48 L55.36,38.63 Z M34.15,32 C33.95,32.32 33.62,32.8 33.21,33.39 C31.0031403,36.3385059 29.2036186,39.5709177 27.86,43 C26,48.67 23.45,52.42 17.2,52.42 C11.7678029,52.4144879 7.36551213,48.0121971 7.36,42.58 C7.36,29.48 10.76,24.24 14.87,19.22 C16.15,17.67 19.03,16.52 21.61,16.52 C21.6531864,16.5250468 21.6968136,16.5250468 21.74,16.52 C22.2922847,16.52 22.74,16.0722847 22.74,15.52 C22.74,14.9677153 22.2922847,14.52 21.74,14.52 C21.1071456,14.5122077 20.4747993,14.5590482 19.85,14.66 C21.97,11.87 24.73,9.52 28.79,9.52 C36.27,9.52 37.06,15.35 37.09,15.65 C37.13,15.74 38.54,24.68 34.15,32 Z"/>
      <path id="Path" fill="#3D454C" fill-rule="nonzero" d="M48.17,41.23 C48.7222847,41.23 49.17,40.7822847 49.17,40.23 C49.17,39.6777153 48.7222847,39.23 48.17,39.23 C46.52,39.23 44.5,40.03 43.93,41.79 C43.6630083,42.534094 43.7829147,43.3621977 44.25,44 C44.4388544,44.2518058 44.7352427,44.4 45.05,44.4 C45.2663702,44.4 45.4769038,44.3298221 45.65,44.2 C46.0918278,43.8686292 46.1813708,43.2418278 45.85,42.8 C45.8065789,42.6908256 45.8065789,42.5691744 45.85,42.46 C46.08,41.64 47.22,41.23 48.17,41.23 Z"/>
    </g>
  </g>
</svg>
