<svg xmlns="http://www.w3.org/2000/svg" width="64" height="64" viewBox="0 0 64 64" style="background:#fff">
  <g id="Kefen" fill="none" fill-rule="evenodd" stroke="none" stroke-width="1">
    <rect width="64" height="64" fill="#FFF"/>
    <g transform="translate(2 4)">
      <rect id="Rectangle" width="60" height="60" x="0" y="0"/>
      <rect id="Rectangle" width="60" height="60" x="0" y="0"/>
      <path id="Path" fill="#31E085" fill-rule="nonzero" d="M51.39,21 C47.89,19.17 43.84,21.64 40.05,22 C36.0289406,22.3804108 31.9725469,22.0829419 28.05,21.12 C24.8918232,20.3277398 21.8019928,19.2844204 18.81,18 C16.45,17 14,15.4 11.36,15.55 C11.29,15.55 11.28,15.66 11.28,15.72 C11.33,16 11.4,16.26 11.46,16.54 C11.34,16.77 11.25,17.02 11.15,17.27 C10.99,16.47 10.84,15.67 10.71,14.88 C10.71,14.83 10.65,14.79 10.61,14.88 C4.85,24.2 8.79,36.66 15.21,44.78 C18.6201807,49.0777565 22.9675452,52.53923 27.92,54.9 C32.43,57.05 40.44,59.9 44.27,55.61 C45.57995,54.1811372 46.1790169,52.2395507 45.9018936,50.3210043 C45.6247702,48.4024578 44.5007513,46.7097615 42.84,45.71 C44.02,42.61 44.1,39.1 41.53,36.49 C39.84,34.77 37.47,34.92 35.22,34.38 C34.0857037,34.1088594 32.9673194,33.7750133 31.87,33.38 C39.35,34.91 49.33,34.69 52.87,28.61 C54.27,26.27 54,22.37 51.39,21 Z" opacity=".5"/>
      <path id="Shape" fill="#3D454C" fill-rule="nonzero" d="M55.15,24.44 C54.9443456,24.1400309 54.592044,23.9753682 54.23,24.01 C25.35,26.9 14.89,18.13 14.06,17.38 C14.2034657,16.431511 14.5007026,15.5127787 14.94,14.66 C15.5665721,13.2679188 16.7271295,12.1866541 18.16,11.66 L18.4,11.66 C17.474647,12.9581641 17.4820828,14.7023607 18.4184706,15.9925879 C19.3548584,17.282815 21.0108257,17.830583 22.5318964,17.3532446 C24.0529672,16.8759063 25.0990362,15.4801924 25.1303338,13.8862889 C25.1616314,12.2923853 24.1711596,10.8566823 22.67,10.32 C24.22,8.57 26.92,8.95 27.07,8.98 C27.4272656,9.03716249 27.7878884,8.89938389 28.0160254,8.61856406 C28.2441624,8.33774424 28.305154,7.95654639 28.1760254,7.61856406 C28.0468968,7.28058174 27.7472656,7.03716249 27.39,6.98 C25.68,6.69 22.26,6.98 20.56,9.8 C19.6243714,9.51186833 18.626817,9.49108594 17.68,9.74 C15.7140939,10.3745923 14.0946535,11.7879879 13.2,13.65 C13.09,13.84 10.52,18.37 12.88,24.94 C17,36.31 32.5,44.41 45.44,49.35 L44.16,50.48 C40.2122998,53.898697 34.5068689,54.3717908 30.05,51.65 L17.16,43.65 C11.023817,39.8890042 7.29676562,33.1969943 7.33,26 C7.32472801,22.4821343 8.33518622,19.0375482 10.24,16.08 L12.47,12.62 C13.6855315,10.7082868 13.8144481,8.30057824 12.81,6.27 L12.64,6 C12.3846623,5.52385965 11.797295,5.33663271 11.3135108,5.57717344 C10.8297267,5.81771417 10.6244848,6.39903172 10.85,6.89 L11.02,7.23 C11.711569,8.62456299 11.6204568,10.2797687 10.78,11.59 L8.56,15 C6.44621112,18.2789781 5.32458793,22.0987475 5.3296649,26 C5.2870524,33.900642 9.37487306,41.2496183 16.11,45.38 L29,53.38 C34.1993482,56.5783895 40.8753886,56.0190127 45.47,52 L48,49.76 C48.265687,49.5254998 48.3874233,49.1678995 48.32,48.82 C48.2533007,48.4748968 48.0103166,48.1901498 47.68,48.07 C46.4466667,47.61 45.2566667,47.15 44.11,46.69 C48.85,45.23 52.57,40.59 52.77,40.33 C52.9938893,40.0464332 53.0474091,39.6641486 52.91,39.33 C52.7834195,38.9981639 52.4903306,38.7583638 52.14,38.7 C51.82,38.7 22.31,33.91 15.37,20.75 C20.09,23.54 31.22,27.99 52.61,26.15 L51.76,27.84 C50.2,31 47.63,32 43.45,32.8 C42.8977153,32.8994113 42.5305887,33.4277153 42.63,33.98 C42.7294113,34.5322847 43.2577153,34.8994113 43.81,34.8 C47.73,34.08 51.42,33.08 53.57,28.8 L55.22,25.5 C55.4017865,25.1624605 55.3745949,24.750703 55.15,24.44 Z M21.42,15.44 C20.4755931,15.44 19.71,14.6744069 19.71,13.73 C19.71,12.7855931 20.4755931,12.02 21.42,12.02 C22.3644069,12.02 23.13,12.7855931 23.13,13.73 C23.1407387,14.1913335 22.9656515,14.6376331 22.6440862,14.9686008 C22.322521,15.2995686 21.8814513,15.4874421 21.42,15.49 L21.42,15.44 Z M33.75,35.91 C39.0641382,37.8263748 44.5210291,39.3210012 50.07,40.38 C48.13,42.38 44.07,45.92 40.07,44.98 C22.81,37.4 16.75,29.72 14.79,24.34 C14.61,23.86 14.48,23.4 14.36,22.95 C17.6,28 24.09,32.35 33.75,35.91 Z"/>
      <path id="Path" fill="#3D454C" fill-rule="nonzero" d="M31.57,9.62 C32.1222847,9.62 32.57,9.17228475 32.57,8.62 C32.57,8.06771525 32.1222847,7.62 31.57,7.62 C31.0177153,7.62 30.57,8.06771525 30.57,8.62 C30.57,9.17228475 31.0177153,9.62 31.57,9.62 Z"/>
    </g>
  </g>
</svg>
