<svg xmlns="http://www.w3.org/2000/svg" width="64" height="64" viewBox="0 0 64 64" style="background:#fff">
  <g id="Kerbel" fill="none" fill-rule="evenodd" stroke="none" stroke-width="1">
    <rect width="64" height="64" fill="#FFF"/>
    <g transform="translate(2 4)">
      <rect id="Rectangle" width="60" height="60" x="0" y="0"/>
      <rect id="Rectangle" width="60" height="60" x="0" y="0"/>
      <path id="Path" fill="#31E085" fill-rule="nonzero" d="M28.08 13.39C27.7 11.74 25.65 9.79 24.42 12.02 24.11 12.6 23.84 13.2 23.58 13.79 21.1559344 9.76693461 17.7359504 6.43649705 13.65 4.12 10.65 2.44 10.34 9.02 11.4 10.45 13.3742274 13.0765313 15.0511395 15.9138666 16.4 18.91 13.86 17.86 11 17.56 8.95 19.66 7.95609183 20.8696052 7.85512657 22.5819761 8.7 23.9 10.32 26.53 13.17 27.78 15.47 29.72 17.77 31.66 18.65 34.02 20.47 36.18 21.17 37.76 22.34 39.07 24.12 39.03 27.38 38.95 28.12 34.78 28.27 32.35 28.3550009 31.038042 28.3550009 29.721958 28.27 28.41 28.27 27.65 28.35 26.91 28.4 26.19 28.66 21.92 29 17.6 28.08 13.39zM51.41 30.18C49.9604554 29.0271565 48.3041372 28.1616623 46.53 27.63L48.09 26.16C49.09 25.24 54.25 20.41 52.58 18.66 49.79 15.77 44.83 18.59 42.15 20.31 40.6432324 21.2970984 39.2034215 22.3828027 37.84 23.56 37.4850838 21.750502 36.938676 19.9838949 36.21 18.29 35 15.5 32.12 16.56 31.78 19.29 31.26 23.42 30.55 27.49 29.91 31.6 29.6733971 33.2552376 29.8556204 34.9433817 30.44 36.51 30.79 39 32.14 41 35 40.17 39.85 38.73 44 40.7 48.21 42.85 54 45.82 54.85 32.93 51.41 30.18z" opacity=".5"/>
      <path id="Shape" fill="#3D454C" fill-rule="nonzero" d="M23.62 30.74L23.55 29.87C23.64 29.67 23.78 29.38 23.94 29.05 24.3945296 28.2704111 24.7314946 27.4279986 24.94 26.55 25.6500216 24.4007692 26.6926872 22.3761758 28.03 20.55 29.19 19.09 31.03 16.4 30.43 14.77 30.2116031 14.228573 29.7187768 13.846537 29.14 13.77 28.9602781 13.7558503 28.7797219 13.7558503 28.6 13.77 28.2913773 13.7709601 27.9846397 13.8181505 27.69 13.91 27.5817548 13.5362807 27.3864077 13.1935666 27.12 12.91 26.7279826 12.5205004 26.1922768 12.3105617 25.64 12.33 25.4418969 12.3316361 25.2443769 12.3517229 25.05 12.39 24.05 12.58 23.23 13.54 22.54 15.3 21.99 10.47 21.08 7.86 19.77 7.36 19.4535235 7.22554406 19.1138285 7.15420811 18.77 7.15 18.3571678 7.14896444 17.953365 7.27080149 17.61 7.5 17.4327156 7.61506077 17.2741937 7.75671864 17.14 7.92 16.19 5.5 15.14 4.22 14.07 4.12L13.86 4.12C12.4704615 4.1695946 11.1486366 4.73252811 10.15 5.7 9.49 6.57 9.74 8.19 10.88 10.53L10.82 10.53C10.6312601 10.5316843 10.4433471 10.5551734 10.26 10.6 9.5178134 10.8043345 8.92795016 11.3678981 8.69 12.1 8.19 13.4 9.53 15.89 12.69 19.51 11.9220455 19.2024334 11.106715 19.0298946 10.28 19 9.77168373 18.979649 9.27030925 19.1233997 8.85 19.41 8.21097153 19.8187957 7.83180972 20.5316199 7.85 21.29 7.87867337 21.689713 8.00951939 22.0753644 8.23 22.41 7.79798412 22.6449685 7.43575052 22.9899529 7.18 23.41 6.86192809 23.8815874 6.81631087 24.4860156 7.06 25 7.85 26.56 11.06 27 12.95 27.13 15.1897133 27.3860077 17.3778063 27.9793888 19.44 28.89 20.1645936 29.4358729 20.9417642 29.9082051 21.76 30.3L21.76 30.87C22.1195009 36.3781983 21.6543708 41.9092023 20.38 47.28 20.04 48.86 19.92 49.4 20.74 49.69 20.8368658 49.721865 20.9380356 49.7387267 21.04 49.74 21.4263066 49.737394 21.7698373 49.4937269 21.9 49.13 21.9513711 48.9963454 21.9685575 48.8519794 21.95 48.71 21.95 48.53 22.06 48.16 22.14 47.77L22.14 47.66C23.478111 42.125979 23.9770148 36.4222944 23.62 30.74zM23.15 26.22C22.9382404 26.9514556 22.6429625 27.656096 22.27 28.32L22.18 28.51C21.5804114 28.1806928 21.0025589 27.8132721 20.45 27.41L20.31 27.33C18.024086 26.2669666 15.577443 25.5910983 13.07 25.33 10.37 25.15 9.07 24.56 8.76 24.28 8.99919916 23.9715176 9.36969536 23.7936794 9.76 23.8L10.07 23.8C10.4512185 23.8005061 10.7932588 23.5658506 10.93 23.21 11.0831986 22.7972677 10.9189686 22.3340549 10.54 22.11 10.14 21.86 9.65 21.39 9.64 21.11 9.64 21.11 9.7 20.95 9.92 20.79 10.0319776 20.7254133 10.1613426 20.6974425 10.29 20.71 11.48 20.71 14.29 22.05 16.85 23.83 17.0017711 23.937553 17.184019 23.9936293 17.37 23.99 17.641129 23.9910554 17.8982857 23.8698244 18.07 23.66 18.3302646 23.3036776 18.3008928 22.8127489 18 22.49 13.27 17.85 10.07 13.49 10.37 12.75 10.45 12.52 10.56 12.39 10.67 12.36L10.79 12.36C11.371462 12.4636265 11.9140022 12.7228018 12.36 13.11 12.5237602 13.251984 12.7332585 13.3301021 12.95 13.33 13.1695554 13.3289887 13.3818305 13.2511545 13.55 13.11 13.8883246 12.8115529 13.9603213 12.3118114 13.72 11.93 12 9.2 11.43 7.1 11.6 6.79 12.2428178 6.22986716 13.042225 5.88078105 13.89 5.79L13.89 5.79C14.24 5.88 15.38 7.73 16.24 10.84 16.3513595 11.2344094 16.7101781 11.5076008 17.12 11.51L17.22 11.51C17.6682743 11.4607683 18.0128725 11.0906443 18.03 10.64 18.03 10.15 18.24 9.14 18.61 8.89 18.6620075 8.87318178 18.7179925 8.87318178 18.77 8.89 18.8871489 8.89651409 19.0022375 8.92359375 19.11 8.97 19.58 9.15 20.68 12.13 21.11 20.2 21.1207608 20.469507 21.2531597 20.7195939 21.47 20.88 21.6303213 20.9730467 21.8152348 21.0149138 22 21L22.2 21C22.3857851 21.0022524 22.5676169 20.9463042 22.72 20.84 22.9210528 20.6981454 23.0576948 20.4823948 23.1 20.24 24 15.37 25.07 14.09 25.4 14L25.64 14C25.6984812 13.980908 25.7615188 13.980908 25.82 14 26.0055352 14.4147329 26.0443306 14.8802782 25.93 15.32 25.8555583 15.7411637 26.0844505 16.1573314 26.48 16.32 26.5883859 16.3629761 26.7034525 16.3866663 26.82 16.39 27.1321341 16.3930032 27.4235352 16.2340572 27.59 15.97 27.8234778 15.6423941 28.1891459 15.4339633 28.59 15.4L28.71 15.4C28.71 15.82 28.26 17.17 26.57 19.3 25.0805196 21.3281943 23.9289763 23.5840035 23.16 25.98 23.1464167 26.0592431 23.1430559 26.1399015 23.15 26.22zM53.32 22.21C52.8882504 20.7853345 51.8954831 19.5976239 50.57 18.92 50.378639 18.8461336 50.1751192 18.8088216 49.97 18.8099729 48.97 18.8099729 47.71 19.53 46.14 20.96 46.0826506 20.7580528 46.0021144 20.5634238 45.9 20.38 45.4957782 19.7159311 44.7773836 19.3075804 44 19.3L43.86 19.3C42.47 19.3 40.54 21.23 38 25.2 38.16 23.32 37.84 22.09 37 21.48 36.5821036 21.1429915 36.0664786 20.9500706 35.53 20.93 35.3511234 20.9313991 35.1731062 20.9549108 35 21 34.6126295 21.1347069 34.2676776 21.3692741 34 21.68 33.6438986 21.3563648 33.2151721 21.1231376 32.75 21 32.580845 20.9522131 32.4057702 20.9286454 32.23 20.93 31.8249829 20.9283289 31.43479 21.0822582 31.14 21.36 29.86 22.55 30.33 25.79 30.73 27.61 31.1131581 29.8344786 31.1468972 32.1051194 30.83 34.34 30.6335612 35.2426361 30.559563 36.1676138 30.61 37.09 30.61 37.43 30.61 37.76 30.61 37.99L30.16 38.73C27.2901719 43.6776716 25.1767763 49.0268883 23.89 54.6 23.79 55 23.7 55.37 23.64 55.55 23.4430412 55.8144884 23.4045831 56.1648356 23.5394767 56.4657518 23.6743702 56.7666681 23.9615044 56.9710601 24.29 57L24.46 57C25.17 57 25.31 56.45 25.68 55 26.904597 49.6226267 28.9269917 44.4587788 31.68 39.68L31.98 39.19 32.28 39.19C33.0653516 39.1757854 33.8481138 39.095502 34.62 38.95 36.889678 39.0366567 39.132543 39.4717388 41.27 40.24 42.715607 40.8840356 44.2617423 41.2731068 45.84 41.39 46.4276687 41.4257014 47.0108215 41.2676178 47.5 40.94 47.9693913 40.57945 48.212872 39.9973791 48.14 39.41 48.1045768 38.906409 47.9391965 38.4206044 47.66 38 48.010195 37.8003069 48.3003069 37.510195 48.5 37.16 48.8529294 36.4871084 48.8263478 35.6782675 48.43 35.03 47.98 34.15 46.81 33.62 44.93 33.44 49.37 31.58 51.67 29.94 51.8 28.56 51.9576361 27.5743201 51.4380155 26.6046345 50.53 26.19 52.59 24.62 53.53 23.27 53.32 22.21zM47.32 26.21C46.9653784 26.458569 46.8321224 26.9208006 47 27.32 47.1390877 27.6609194 47.4718099 27.8827342 47.84 27.88 47.912965 27.8903938 47.987035 27.8903938 48.06 27.88 48.3885118 27.8081122 48.7237169 27.7712396 49.06 27.77 49.3576658 27.7406621 49.6566465 27.8110105 49.91 27.97 50.01 28.04 50.04 28.2 50.02 28.45 49.94 29.28 45.16 31.74 38.86 33.8 38.4267629 33.9326981 38.1571519 34.3639073 38.2275608 34.8115073 38.2979698 35.2591072 38.6869459 35.5867184 39.14 35.58L39.28 35.58C40.640276 35.3724887 42.0139982 35.2655322 43.39 35.26 45.85 35.26 46.72 35.67 46.84 35.92 46.96 36.17 46.97 36.3 46.95 36.33 46.6021439 36.623124 46.1647554 36.7889083 45.71 36.8 45.2776794 36.8446868 44.9356066 37.1858201 44.8897311 37.6180161 44.8438555 38.0502122 45.1066935 38.4555539 45.52 38.59 45.9499891 38.7334432 46.2752683 39.0889809 46.38 39.53 46.2304457 39.5463528 46.0795543 39.5463528 45.93 39.53 44.5821746 39.4430677 43.2626515 39.1038587 42.04 38.53 39.6791444 37.6634057 37.1937948 37.1838953 34.68 37.11L34.51 37.11C33.8494727 37.2312067 33.1810803 37.3047299 32.51 37.33L32.51 37C32.4671608 36.2670222 32.5141769 35.5315564 32.65 34.81 32.65 34.76 32.65 34.71 32.65 34.66 33.0219972 32.1706905 32.9848412 29.6373292 32.54 27.16 31.97 24.5 32.17 23.1 32.36 22.71 32.7733381 22.8864452 33.065052 23.2652944 33.13 23.71 33.1980781 24.1626699 33.5823385 24.5004812 34.04 24.51 34.4538279 24.5097933 34.8154062 24.2303919 34.92 23.83 35.04 23.37 35.37 22.78 35.63 22.7 35.7654254 22.7155504 35.8919513 22.7752988 35.99 22.87 36.25 23.07 36.69 24.71 35.28 29.45 35.2099243 29.6877795 35.238769 29.9437762 35.36 30.16 35.471535 30.344908 35.6399286 30.4887442 35.84 30.57 35.9862894 30.6644152 36.1559269 30.716345 36.33 30.72L36.51 30.72C36.7739536 30.671174 37.0017702 30.5058232 37.13 30.27 41.03 23.33 43.37 21.08 43.9 21.08 44.0711728 21.0711288 44.2369817 21.141137 44.35 21.27 44.4799264 21.8895628 44.395293 22.5348922 44.11 23.1 43.9790612 23.3810189 44.0019778 23.7096464 44.1706529 23.9697719 44.3393281 24.2298975 44.6300118 24.3848947 44.94 24.38 45.1987705 24.3800827 45.4456112 24.2711824 45.62 24.08 47.55 21.92 49.43 20.59 49.95 20.59 50.6784453 21.0410548 51.2428122 21.7140886 51.56 22.51 51.55 22.9 50.08 24.51 47.33 26.19L47.32 26.21z"/>
      <circle id="Oval" cx="20.01" cy="52.93" r="1" fill="#3D454C" fill-rule="nonzero"/>
    </g>
  </g>
</svg>
