<svg xmlns="http://www.w3.org/2000/svg" width="64" height="64" viewBox="0 0 64 64" style="background:#fff">
  <g id="Ketchup" fill="none" fill-rule="evenodd" stroke="none" stroke-width="1">
    <rect width="64" height="64" fill="#FFF"/>
    <g transform="translate(2 2)">
      <rect id="Rectangle" width="60" height="60" x="0" y="0"/>
      <rect id="Rectangle" width="60" height="60" x="0" y="0"/>
      <path id="Path" fill="#E05362" fill-rule="nonzero" d="M52.57 45C51.95 40.3 48.57 35.06 43.3 37.23 42.2122877 37.853946 41.5072088 38.9790719 41.42 40.23 41.3450699 40.8109271 41.3450699 41.3990729 41.42 41.98 41.6767188 43.0928766 42.1051862 44.1589844 42.69 45.14 42.0148251 45.4276087 41.3108195 45.6421628 40.59 45.78 37.29 46.29 31.46 45.25 30 41.78 28.93 39.24 26.43 37.16 23.76 38.85 21.09 40.54 20.44 44.94 21.12 47.79 23.69 58.58 36.56 63.69 46.18 58.17 50.8734541 55.566106 53.4294448 50.2981252 52.57 45zM15.34 33.6C15.17 28.82 16.49 21.54 13.57 17.44 13.2736658 16.9122826 12.6396625 16.6755881 12.07 16.88 7.4 19.26 7.91 29.37 7.87 33.79 7.8 40.79 7.58 50.24 10.87 56.54 13.53 61.72 17.52 57.92 17.63 53.54 17.76 47 15.57 40.26 15.34 33.6z" opacity=".5"/>
      <path id="Shape" fill="#3D454C" fill-rule="nonzero" d="M25.26,55.91 C23.5760651,56.4991031 21.803994,56.7967028 20.02,56.79 C15.02,56.79 11.57,54.5 11.57,53.79 L11.57,46 C14.2163162,47.1873706 17.1018033,47.7452999 20,47.63 C20.5522847,47.63 21,47.1822847 21,46.63 L21,30.39 C21,29.8377153 20.5522847,29.39 20,29.39 C19.39,29.39 18.79,29.39 18.21,29.33 C17.6577153,29.2913401 17.1786599,29.7077153 17.14,30.26 C17.1013401,30.8122847 17.5177153,31.2913401 18.07,31.33 C18.37,31.33 18.68,31.33 19,31.38 L19,45.62 C14.08,45.44 11.55,43.95 11.55,43.29 L11.55,21.29 C13.55,22.29 16.86,22.83 20,22.83 C23.14,22.83 26.41,22.34 28.44,21.29 L28.44,34.77 C28.44,35.3222847 28.8877153,35.77 29.44,35.77 C29.9922847,35.77 30.44,35.3222847 30.44,34.77 L30.44,19 C30.44,19 30.44,19 30.44,18.92 C30.44,18.84 30.44,18.84 30.44,18.79 C30.44,18.02 29.98,16.92 27.91,16.03 L27.91,13.72 C27.91,13.72 27.91,13.72 27.91,13.67 C27.91,13.62 27.91,13.61 27.91,13.58 C27.91,11.63 24.81,10.9 22.91,10.65 L21.81,4.12 C21.7568356,3.82881567 21.577403,3.57614535 21.32,3.43 C20.4803218,2.90948547 19.4117933,2.93698437 18.6,3.5 C18.4037591,3.65337741 18.2718184,3.87446724 18.23,4.12 L17.08,10.65 C15.21,10.9 12.08,11.65 12.08,13.58 C12.0753165,13.6098172 12.0753165,13.6401828 12.08,13.67 C12.08,13.67 12.08,13.67 12.08,13.72 L12.08,16 C10.01,16.89 9.55,18 9.55,18.76 C9.55,18.76 9.55,18.85 9.55,18.89 C9.55,18.93 9.55,18.94 9.55,18.97 L9.55,53.74 C9.55,56.33 14.63,58.740037 20,58.740037 C22.0124444,58.744107 24.010933,58.4059533 25.91,57.74 C26.268433,57.6378267 26.5403011,57.3447964 26.6153706,56.9797236 C26.6904401,56.6146508 26.5562523,56.2381237 26.267216,56.002812 C25.9781796,55.7675003 25.582264,55.7124569 25.24,55.86 L25.26,55.91 Z M14.1,15.77 C16.0038031,16.4246187 18.0070612,16.7427036 20.02,16.71 C22.0296763,16.7427655 24.0296609,16.424663 25.93,15.77 L25.93,16.52 C25.43,16.89 23.34,17.52 20.02,17.52 C16.7,17.52 14.6,16.91 14.1,16.52 L14.1,15.77 Z M20,5.49 L21.07,11.64 C20.3561615,11.7300416 19.6338385,11.7300416 18.92,11.64 L20,5.49 Z M16.92,12.69 C17.24,13.37 18.26,13.69 20,13.69 C21.74,13.69 22.75,13.34 23.07,12.69 C24.0366733,12.7863412 24.9712263,13.0899004 25.81,13.58 C25.28,13.99 23.3,14.71 20,14.71 C16.7,14.71 14.73,14 14.2,13.58 C15.0395395,13.0916109 15.9737122,12.7881752 16.94,12.69 L16.92,12.69 Z M12.67,17.92 C14.31,19.41 18.91,19.5 20,19.5 C21.09,19.5 25.69,19.41 27.32,17.92 C28.23,18.34 28.44,18.7 28.44,18.76 C28.44,19.29 25.54,20.82 20,20.82 C14.46,20.82 11.55,19.29 11.55,18.76 C11.57,18.7 11.78,18.34 12.69,17.92 L12.67,17.92 Z"/>
      <path id="Shape" fill="#3D454C" fill-rule="nonzero" d="M46.3,38.64 C45.8194053,38.370269 45.2111716,38.5402166 44.94,39.02 C44.8080608,39.252962 44.7750473,39.5291017 44.8483501,39.7866011 C44.9216528,40.0441005 45.0951494,40.2614526 45.33,40.39 C47.7300097,41.6607749 49.2307548,44.1543206 49.23,46.87 C49.314623,49.8667891 48.1006542,52.7540661 45.9,54.79 C43.099017,56.9846345 39.5208667,57.9351936 36,57.42 C32,56.98 28.45,55.14 26.57,52.5 C24.9511999,50.0906444 24.4825091,47.0880937 25.29,44.3 C26.2270515,40.8253874 29.4016115,38.429027 33,38.48 C33.1583522,38.7139421 33.3543341,38.920061 33.58,39.09 L33.91,39.33 L33.97,39.33 L33.83,39.59 C33.4241892,40.3193178 33.5418403,41.2280712 34.12,41.83 C34.8960683,42.6362594 36.0879064,42.8825726 37.12,42.45 L37.49,42.29 C37.7147413,42.2026731 37.9677624,42.2287193 38.17,42.36 L38.5,42.6 C38.9640062,42.9301794 39.5205324,43.1051876 40.09,43.1 C40.6223214,43.1046843 41.1429616,42.9439498 41.58,42.64 C42.2780438,42.1772911 42.59081,41.3121068 42.35,40.51 L42.24,40.26 C42.2697316,40.2543247 42.3002684,40.2543247 42.33,40.26 L42.71,40.09 C43.5674992,39.7704886 44.0987714,38.9097454 44,38 C43.7980225,36.9527721 42.9053571,36.1799553 41.84,36.13 L41.4,36.08 C41.2411427,36.074542 41.0920891,36.0018329 40.99,35.88 L40.89,35.54 C40.5622397,34.6263616 39.745956,33.9766734 38.7820703,33.8622782 C37.8181846,33.747883 36.8725068,34.1884592 36.34,35 L36.18,35.3 C36.0559823,35.398247 35.8956613,35.4383272 35.74,35.41 L35.3,35.41 C34.3626569,35.2659249 33.4287995,35.6896921 32.92,36.49 C28.4175905,36.5038186 24.4796156,39.524843 23.3,43.87 C22.3740101,47.2166873 22.9586042,50.8009801 24.9,53.68 C27.1,56.78 31.16,58.93 35.74,59.42 C36.4039657,59.4954642 37.0717631,59.532193 37.74,59.53 C41.172879,59.6269352 44.5264116,58.4877987 47.19,56.32 C49.814363,53.9169935 51.2726238,50.4973719 51.19,46.94 C51.2270747,43.480115 49.3443303,40.2844548 46.3,38.64 Z M35.08,37.38 L35.52,37.38 C36.4740088,37.5152668 37.4182768,37.0764369 37.93,36.26 L38.1,36 C38.2231417,35.9000694 38.3857628,35.86311 38.54,35.9 C38.78,35.9 38.93,36.04 38.94,36.09 L38.94,36.09 L39.04,36.43 C39.3769673,37.3200402 40.2006732,37.9329398 41.15,38 L41.59,38 C41.7298169,38.0283229 41.8669763,38.0684671 42,38.12 L41.91,38.12 L41.54,38.28 C40.5933861,38.6481502 40.0730293,39.6673615 40.33,40.65 L40.41,40.93 C40.1745846,41.058593 39.8859772,41.0390925 39.67,40.88 L39.34,40.65 C38.567411,40.1084553 37.5717233,39.9990805 36.7,40.36 L36.33,40.52 C36.0808971,40.6265865 35.7926547,40.5798445 35.59,40.4 L35.73,40.15 C36.1958362,39.2448168 35.9074066,38.1341473 35.06,37.57 L34.73,37.34 L34.73,37.34 C34.8480802,37.3192112 34.9696551,37.3331055 35.08,37.38 L35.08,37.38 Z"/>
      <path id="Path" fill="#3D454C" fill-rule="nonzero" d="M45.24,51 C45.3625017,51.0551256 45.4956887,51.082446 45.63,51.08 C46.0288865,51.081389 46.3904469,50.8455887 46.55,50.48 C47.2330873,48.6548268 47.3275048,46.6615696 46.82,44.78 C46.73708,44.4240876 46.4666169,44.1417509 46.1145931,44.0436253 C45.7625693,43.9454997 45.385053,44.0472139 45.1299762,44.3089107 C44.8748994,44.5706074 44.7828891,44.9506053 44.89,45.3 C45.2758229,46.7478104 45.2130555,48.2786356 44.71,49.69 C44.4950568,50.1981056 44.7322174,50.7842949 45.24,51 Z"/>
      <circle id="Oval" cx="14.37" cy="29.96" r="1" fill="#3D454C" fill-rule="nonzero"/>
    </g>
  </g>
</svg>
