<svg xmlns="http://www.w3.org/2000/svg" width="64" height="64" viewBox="0 0 64 64" style="background:#fff">
  <g id="Kichererbsenmehl" fill="none" fill-rule="evenodd" stroke="none" stroke-width="1">
    <rect width="64" height="64" fill="#FFF"/>
    <g transform="translate(2 4)">
      <path id="Path" fill="#D4BA39" fill-rule="nonzero" d="M39.87,30.61 C39.9398701,28.6845992 39.4048162,26.7856826 38.34,25.18 C36.5,22.58 33.34,22.59 31.63,25.35 C29.8766623,28.1519045 27.0361335,30.0975218 23.79,30.72 C18.79,31.77 17.86,39.54 20.74,43.14 C24.94,48.41 32.35,50.23 37.26,44.69 C40.91,40.58 41.28,35.44 39.87,30.61 Z" opacity=".5"/>
      <rect id="Rectangle" width="60" height="60" x="0" y="0"/>
      <g id="Group" fill="#D4BA39" fill-rule="nonzero" opacity=".5" transform="translate(17 3)">
        <path id="Path" d="M24.8,8.31 C19.89,-0.69 6.21,-1.86 0.58,7.22 C0.154560976,7.77124062 -0.0339424932,8.46916325 0.0561192502,9.15963662 C0.146180993,9.85010998 0.507398702,10.4763299 1.06,10.9 C1.74264855,11.9779415 2.8587038,12.7073894 4.12,12.9 C9.96120204,13.9101704 15.9455687,13.74016 21.72,12.4 C23.29,12 25.88,10.31 24.8,8.31 Z"/>
      </g>
      <path id="Shape" fill="#3D454C" fill-rule="nonzero" d="M50.14,49.9 C50.1505904,45.0608024 49.9102678,40.2243102 49.42,35.41 C48.9232283,30.5909884 48.1755468,25.801154 47.18,21.06 L48,21.06 C48.715144,21.0580745 49.3851507,20.7102158 49.7981872,20.1264046 C50.2112237,19.5425933 50.3162275,18.7950047 50.08,18.12 L49.74,17.12 C50.0500523,15.9487073 49.8656808,14.7014887 49.23,13.67 C48.8465942,13.1033989 48.2308545,12.7368872 47.55,12.67 L43.37,12.67 L36.37,6.51 C32.6692783,3.19949033 27.0999596,3.10581678 23.29,6.29 L15.55,12.67 L12,12.67 C11.3531671,12.7654765 10.7762143,13.1283399 10.41,13.67 C9.7753855,14.7016796 9.58767001,15.9470997 9.89,17.12 L9.44,18.4 C9.24351968,19.0021249 9.34386284,19.6617296 9.71050905,20.1781882 C10.0771552,20.6946469 10.6667642,21.0069102 11.3,21.02 L13.14,21.02 C12.0636644,25.8228029 11.3218829,30.6945027 10.92,35.6 C10.46,40.33 10.14,45.13 9.98,49.88 C9.07,50.6 7.21,52.51 6.33,56.62 C6.27849593,56.9030205 6.35136909,57.1945132 6.53,57.42 C6.69943003,57.6543413 6.96200807,57.8038649 7.25,57.83 C10.4920912,58.1863183 13.7650389,58.1561064 17,57.74 C20.8248545,57.2528801 24.674523,56.9857739 28.53,56.94 L29,56.94 C29.2930597,56.9579178 29.5869403,56.9579178 29.88,56.94 L30,56.94 C34.3930795,56.9405918 38.7817629,57.217807 43.14,57.77 C44.8779027,57.9921282 46.6279645,58.1056818 48.38,58.11 C49.8501464,58.1075882 51.319042,58.0241282 52.78,57.86 C53.0790833,57.8580222 53.36158,57.722277 53.55,57.49 C53.7403478,57.254693 53.8138846,56.9458385 53.75,56.65 C52.89,52.54 51.05,50.62 50.14,49.9 Z M24.56,7.9 C27.6209743,5.36026668 32.0779616,5.43674501 35.05,8.08 L40.34,12.74 L33.34,12.74 C32.1881981,12.7564711 31.0848982,13.2063604 30.25,14 C27.0458455,13.1934618 23.7541036,12.7870325 20.45,12.79 L18.69,12.79 L24.56,7.9 Z M43,14.75 L47.46,14.75 C47.5215436,14.7944372 47.5755628,14.8484564 47.62,14.91 C47.8050742,15.208755 47.8859545,15.5604084 47.85,15.91 L45.54,15.91 C44.9877153,15.91 44.54,16.3577153 44.54,16.91 C44.54,17.4622847 44.9877153,17.91 45.54,17.91 L47.91,17.91 L48.22,18.8 C48.2539402,18.8587862 48.2539402,18.9312138 48.22,18.99 C48.1824273,19.0470696 48.11832,19.0810088 48.05,19.08 L11.3,19.13 L11.73,17.91 L18.73,17.91 C19.2822847,17.91 19.73,17.4622847 19.73,16.91 C19.73,16.3577153 19.2822847,15.91 18.73,15.91 L11.73,15.91 C11.73,15.21 11.93,14.85 12.14,14.78 L20.44,14.78 C23.7721373,14.7783666 27.0902113,15.2120359 30.31,16.07 C30.6808799,16.1563051 31.0685884,16.0244842 31.31,15.73 M43.31,55.78 C38.8310666,55.2267439 34.3229559,54.9428999 29.81,54.93 L28.64,54.93 C24.2025424,54.8728241 20.0898174,52.5929848 17.69,48.86 C17.3945277,48.3933194 16.7766806,48.2545277 16.31,48.55 C15.8433194,48.8454723 15.7045277,49.4633194 16,49.93 C17.408191,52.1961005 19.4107967,54.032687 21.79,55.24 C20.06,55.37 18.34,55.54 16.64,55.75 C13.9344213,56.1010999 11.1995305,56.1681315 8.48,55.95 C8.86984827,54.3642091 9.6699484,52.9088545 10.8,51.73 C12.0929898,52.8869348 13.5655492,53.8258602 15.16,54.51 C15.2871794,54.5613722 15.4228451,54.5885053 15.56,54.59 C15.9612802,54.589673 16.3235008,54.3495049 16.48,53.98 C16.7013477,53.4854056 16.4884964,52.9044989 16,52.67 C14.5199653,52.0222656 13.1658636,51.1184027 12,50 C12.16,45.27 12.47,40.49 12.93,35.78 C13.3169011,30.8219955 14.0655611,25.8988881 15.17,21.05 L45.17,21.05 C46.1926453,25.8556203 46.9570743,30.7125819 47.46,35.6 C47.941645,40.3613761 48.1786233,45.1443328 48.17,49.93 C46.9869238,50.6947563 45.6959205,51.2778988 44.34,51.66 C43.8753988,51.8125877 43.5892995,52.2787993 43.663658,52.7621295 C43.7380165,53.2454598 44.1510187,53.6041173 44.64,53.61 C44.7424384,53.6292326 44.8475616,53.6292326 44.95,53.61 C46.4425182,53.1838516 47.8667966,52.5474719 49.18,51.72 C50.3390131,52.9056453 51.1516659,54.3857109 51.53,56 C48.8189473,56.1993275 46.0945736,56.1189032 43.4,55.76 L43.31,55.78 Z"/>
      <circle id="Oval" cx="41.41" cy="53.61" r="1" fill="#3D454C" fill-rule="nonzero"/>
      <circle id="Oval" cx="23.81" cy="11.08" r="1" fill="#3D454C" fill-rule="nonzero"/>
      <circle id="Oval" cx="26.61" cy="9.01" r="1" fill="#3D454C" fill-rule="nonzero"/>
      <circle id="Oval" cx="28.85" cy="11.41" r="1" fill="#3D454C" fill-rule="nonzero"/>
      <circle id="Oval" cx="29.98" cy="8.01" r="1" fill="#3D454C" fill-rule="nonzero"/>
      <circle id="Oval" cx="32.51" cy="10.21" r="1" fill="#3D454C" fill-rule="nonzero"/>
      <circle id="Oval" cx="35.91" cy="11.21" r="1" fill="#3D454C" fill-rule="nonzero"/>
      <path id="Shape" fill="#3D454C" fill-rule="nonzero" d="M30.26,45.42 C28.5006271,45.5707832 26.8221597,44.6527482 26,43.09 C25.7958412,42.9879542 25.5762111,42.9203757 25.35,42.89 C24.29,42.65 22.7,42.3 20.86,39.37 C19.29,36.86 19.79,35.59 20.66,34.07 C20.9604531,33.5928026 21.2053761,33.0828259 21.39,32.55 C22.2,30.1 28.44,25.79 31.12,26.34 C32.12,26.54 32.12,26.52 32.85,26.01 C33.3268074,25.6479887 33.8243184,25.3140887 34.34,25.01 C34.4284485,24.954531 34.5270144,24.9171439 34.63,24.9 C35.2069887,24.7726558 35.8109554,24.888386 36.3,25.22 C37.0481857,25.797102 37.5487244,26.637292 37.7,27.57 C38.0483151,28.6913205 38.4967889,29.7790366 39.04,30.82 L39.21,31.19 C40.5671817,33.9055608 40.5261941,37.1100406 39.1,39.79 C37.492472,42.7283582 34.6169177,44.7585955 31.31,45.29 C30.9641141,45.3617937 30.6129511,45.4052711 30.26,45.42 Z M35.81,36.16 L36.01,36.16 C36.2699387,36.2129946 36.4981678,36.3671045 36.6444551,36.588411 C36.7907425,36.8097175 36.8430985,37.0800825 36.79,37.34 C36.38,39.34 33.28,42.34 30.45,43.34 C30.6512586,43.3356761 30.8518705,43.3156149 31.05,43.28 C33.7308127,42.8521976 36.0635398,41.2096919 37.37,38.83 C38.5136751,36.7073965 38.5435701,34.1588469 37.45,32.01 L37.27,31.65 C36.6481093,30.4882924 36.1487551,29.2650424 35.78,28 C35.7162624,27.5971381 35.5190488,27.2273626 35.22,26.95 C35.22,26.95 35.22,26.95 35.22,26.95 C34.74,27.23 34.4,27.48 34.11,27.68 C33.2072083,28.4818686 31.9435704,28.7376503 30.8,28.35 C29.52,28 24,31.21 23.33,33.17 C23.1007783,33.8327894 22.8024701,34.469627 22.44,35.07 C21.8,36.17 21.54,36.62 22.6,38.31 C24,40.53 25,40.74 25.82,40.93 C26.3668924,41.0147343 26.885053,41.2309205 27.33,41.56 L27.39,41.56 L27.39,41.56 C28.0733836,41.8688873 28.8566164,41.8688873 29.54,41.56 C32.02,40.68 34.54,38.05 34.79,36.92 C34.9043008,36.4552056 35.331931,36.1365792 35.81,36.16 L35.81,36.16 Z"/>
      <path id="Path" fill="#3D454C" fill-rule="nonzero" d="M25.79,35.25 C25.6675416,35.2496389 25.5459561,35.2293746 25.43,35.19 C24.9175069,34.9899933 24.662815,34.4135854 24.86,33.9 C25.6360976,32.2952645 26.9951712,31.0470626 28.66,30.41 C28.783545,30.3514331 28.9149009,30.3110159 29.05,30.29 C29.3172276,30.2378495 29.5941661,30.2969154 29.8168621,30.4535575 C30.0395581,30.6101996 30.1887555,30.8508734 30.23,31.12 C30.3163736,31.6473724 29.9728409,32.1494587 29.45,32.26 L29.45,32.26 C28.2908396,32.6833042 27.3291646,33.5203176 26.75,34.61 C26.5977409,35.005041 26.2132144,35.261392 25.79,35.25 Z"/>
    </g>
  </g>
</svg>
