<svg xmlns="http://www.w3.org/2000/svg" width="64" height="64" viewBox="0 0 64 64" style="background:#fff">
  <g id="Kichererbsen" fill="none" fill-rule="evenodd" stroke="none" stroke-width="1">
    <rect width="64" height="64" fill="#FFF"/>
    <g transform="translate(2 4)">
      <rect id="Rectangle" width="60" height="60" x="0" y="0"/>
      <rect id="Rectangle" width="60" height="60" x="0" y="0"/>
      <path id="Path" fill="#D4BA39" fill-rule="nonzero" d="M36.24 8.92C33.6003617 7.77452148 30.5931807 7.83291334 28 9.08 25.61 10.08 22.82 12.93 20.08 12.08 18.7320534 11.6220259 17.241152 11.9580581 16.22 12.95 14.9652727 14.1646267 14.1791592 15.7828873 14 17.52 13.7291633 18.4661609 13.6812435 19.4622091 13.86 20.43 13.94 20.79 14.04 21.15 14.15 21.5 14.15 21.5 14.15 21.58 14.15 21.62 14.4232107 23.6108974 15.5094052 25.3994977 17.15 26.56 23.15 33.04 34.87 34.22 40.15 25.79 43.36 20.56 42.19 11.78 36.24 8.92zM22.22 32C16.15 28.69 8.77 31.42 7.1 38.21 7.02698446 38.5393349 7.02698446 38.8806651 7.1 39.21 6.53 43.64 8.24 48.21 12.62 49.92 16.1 51.3 18.93 52.02 21.68 54.78 23.84 56.94 26.17 54.37 27.05 52.49 30.09 45.93 29.11 35.71 22.22 32zM51.94 34.16C48.43 35.88 46.23 38.42 42.14 39.07 40.4721105 39.3893873 38.76388 39.4400266 37.08 39.22 35.37 38.88 34.56 37.49 33 37 32.4332393 36.8761122 31.8404676 36.9854199 31.3551708 37.3033081 30.8698741 37.6211963 30.5328525 38.1209392 30.42 38.69 29.5224127 41.7882444 29.9929211 45.1224623 31.7128035 47.8513423 33.4326859 50.5802224 36.2376757 52.4431284 39.42 52.97 45.63 53.97 53.53 51.19 56.57 45.37 58 42.53 57.82 31.27 51.94 34.16z" opacity=".5"/>
      <path id="Shape" fill="#3D454C" fill-rule="nonzero" d="M56.2,37.22 C56.0597178,36.5645355 55.6590622,35.994233 55.09,35.64 C54.9978597,35.5898346 54.9006466,35.5496085 54.8,35.52 C54.0879183,35.3469784 53.3668188,35.2134414 52.64,35.12 C51.54,34.97 51.4,34.95 50.64,33.81 C49,31.45 40,29.36 36.72,31.11 C36.0817448,31.4351164 35.4114929,31.6931634 34.72,31.88 C32.94,32.41 31.26,32.88 30.49,36.67 C29.65,40.83 30.75,42.47 31.49,43.57 C31.7057874,43.8299787 31.862717,44.1336033 31.95,44.46 L31.95,44.46 C31.04,47.12 32.76,49.46 34.72,50.87 C36.9615199,52.4030829 39.614351,53.2222883 42.33,53.2200293 C43.6890559,53.2229227 45.0397028,53.0068192 46.33,52.58 C49.8649204,51.3890923 52.6088514,48.5669761 53.7,45 L53.86,44.5 C54.2670409,43.0637208 54.8129493,41.6704821 55.49,40.34 C56.1071118,39.4247777 56.3603093,38.3121354 56.2,37.22 L56.2,37.22 Z M53.81,39.29 C53.041401,40.7600282 52.4345184,42.3090874 52,43.91 L51.83,44.41 C50.9216389,47.3753417 48.6393907,49.7208823 45.7,50.71 C42.3701892,51.7647262 38.7401125,51.2261173 35.86,49.25 C35.2614117,48.8342485 34.7373697,48.3203494 34.31,47.73 C34.6320129,47.9184066 34.966067,48.0854337 35.31,48.23 C38.69,49.74 44.25,49.8 46.31,48.35 C46.71452,48.0167103 46.7930635,47.4276341 46.49,47 C46.1747628,46.5478046 45.5530449,46.4359848 45.1,46.75 C43.84,47.63 39.19,47.84 36.05,46.44 C35.0780873,46.1229551 34.2975425,45.3900492 33.92,44.44 L33.92,44.44 C33.92,44.44 33.92,44.35 33.92,44.31 C33.8087136,43.6650746 33.5408835,43.0573063 33.14,42.54 C32.49,41.54 31.76,40.54 32.44,37.16 C32.97,34.57 33.69,34.36 35.28,33.89 C36.114265,33.6670313 36.9222167,33.3552491 37.69,32.96 C40.09,31.57 48,33.55 49,35 C50.24,36.79 51,37 52.41,37.15 C52.87,37.22 53.41,37.29 54.17,37.47 C54.2329625,37.5362965 54.2747403,37.6198521 54.29,37.71 C54.3081627,38.2751291 54.1394501,38.8304748 53.81,39.29 L53.81,39.29 Z"/>
      <path id="Path" fill="#3D454C" fill-rule="nonzero" d="M44.91,34.57 C43.51,34.07 40.82,33.39 38.63,34.44 C38.2718507,34.5683868 38.0175832,34.8888878 37.9740225,35.2668515 C37.9304617,35.6448153 38.1051553,36.0147545 38.4247094,36.2212473 C38.7442635,36.4277402 39.1533111,36.435009 39.48,36.24 C41.01,35.52 43.07,36.04 44.2,36.44 L44.26,36.44 C44.4129615,36.5451129 44.5944062,36.6009421 44.78,36.6000117 C45.1109636,36.5949552 45.4179873,36.4264665 45.6,36.15 C45.7534241,35.9260324 45.8091958,35.649312 45.7545046,35.3833998 C45.6998135,35.1174875 45.5393602,34.8852389 45.31,34.74 C45.1846933,34.6660479 45.0502075,34.6088915 44.91,34.57 Z"/>
      <path id="Shape" fill="#3D454C" fill-rule="nonzero" d="M13.21 31.81C10.21 32.12 4.27 37.69 4.27 41.73 4.27 46.55 4.44 48.23 8.03 51.58 9.1 52.58 13.71 54.13 17.8 52.58L18.57 52.27C19.34 51.96 19.34 51.96 20.43 52.66L21 53C22.39 53.89 22.87 54.19 23.38 54.19L23.43 54.19C26.06 54.09 26.14 51.19 26.19 49.19 26.1625516 48.3520213 26.2500316 47.5142324 26.45 46.7 27 45.19 27.66 40.58 26.67 38.64 23.8 33.07 19.92 31.09 13.21 31.81zM23.43 52.19C23.14 52.04 22.54 51.65 22.03 51.33L21.51 51C20.8873372 50.4632159 20.1238485 50.1161755 19.31 50 18.7927377 50.0392658 18.2873825 50.1749317 17.82 50.4L17.1 50.68C14.5576299 51.5549677 11.7663998 51.3377514 9.39 50.08 6.69 47.55 6.33 46.34 6.28 43.25 6.47225807 43.7555238 6.73121717 44.2330847 7.05 44.67 8.41931459 46.3594423 10.4960534 47.3165159 12.67 47.26 13.7295926 47.3329634 14.783767 47.0553641 15.67 46.47 15.7320496 46.4227649 15.7991222 46.3825214 15.87 46.35 16.3946705 46.1760303 16.6789697 45.6096705 16.505 45.085 16.3310303 44.5603295 15.7646705 44.2760303 15.24 44.45 15.0148252 44.5353348 14.800107 44.6460489 14.6 44.78 14.0408693 45.1540921 13.3697172 45.3236463 12.7 45.26 11.1622803 45.310532 9.68691887 44.6503078 8.7 43.47 7.7 42.16 7.58 40.16 8.28 37.68 9.94 35.68 12.23 33.88 13.47 33.75 19.35 33.13 22.47 34.68 24.89 39.49 25.2058466 40.6327771 25.2672892 41.8309083 25.07 43 23.38 38.64 19.86 34.59 15.18 34.59 14.6277153 34.59 14.18 35.0377153 14.18 35.59 14.18 36.1422847 14.6277153 36.59 15.18 36.59 20.41 36.59 24.01 43.41 24.18 48.1L24.18 48.1C24.18 48.45 24.18 48.8 24.18 49.1 24.09 51.09 24 52.05 23.43 52.19zM37.4 12.58C35.29 9.33 32.27 8.19 29.32 7.46 21.9 5.59 20.39 8.25 17.88 12.64 17.54 13.24 17.18 13.88 16.77 14.56L16.77 14.56C16.6490102 14.7643206 16.5453156 14.9783997 16.46 15.2 16.3763256 15.4385236 16.2656039 15.6666774 16.13 15.88 15.0282162 17.71867 14.6941513 19.9170329 15.2 22 15.4642786 23.9312933 16.4681636 25.6845067 18 26.89 18.956142 27.5053122 19.877547 28.172997 20.76 28.89 22.48 30.28 23.57 31.05 26.03 31.05 26.8667895 31.0376341 27.7018874 30.9708263 28.53 30.85 31.16 30.51 35.29 26.85 36.26 25.85 38.82 23.24 38.92 14.93 37.4 12.58zM28.23 28.9C24.49 29.39 23.86 28.9 21.98 27.37 21.046063 26.5937694 20.0677424 25.8725501 19.05 25.21 18.0025801 24.2815294 17.333402 23.0001244 17.17 21.61 16.7646678 20.0547561 16.9760591 18.4030376 17.76 17 17.979468 16.6878558 18.163912 16.3525032 18.31 16 18.3571932 15.8693043 18.4140157 15.7422892 18.48 15.62 18.9 14.92 19.27 14.27 19.62 13.62 22.07 9.34 22.9 7.9 28.83 9.38 31.83 10.12 34.09 11.13 35.72 13.65 36.49 14.85 36.63 18.82 35.99 21.7 33.5 24.65 28.92 25.27 26.49 23.85 25.7535917 23.3877771 25.0637018 22.8552892 24.43 22.26 23.784666 21.5641983 22.9774114 21.038624 22.08 20.73 20.49 20.36 19.64 19.42 19.66 18.92 19.66 18.59 20.26 18.18 21.51 18.01L22.22 17.92C24.02 17.69 25.72 17.48 26.61 16.6 26.8654449 16.3481278 26.9671135 15.97911 26.8767082 15.6319521 26.7863029 15.2847942 26.5175584 15.0122377 26.1717082 14.9169521 25.825858 14.8216664 25.4554449 14.9181278 25.2 15.17 24.8 15.58 23.09 15.79 21.97 15.93L21.24 16.03C18.11 16.45 17.7 18.12 17.67 18.82 17.59 20.5 19.25 22.13 21.67 22.68 22.2212635 22.9481683 22.7193228 23.3140894 23.14 23.76 23.873747 24.4379108 24.6707168 25.0440097 25.52 25.57 26.7886893 26.2599401 28.2162614 26.6047642 29.66 26.57 30.8322367 26.5647353 31.9951985 26.3618931 33.1 25.97 31.44 27.35 29.39 28.75 28.23 28.9z"/>
      <path id="Path" fill="#3D454C" fill-rule="nonzero" d="M29.62,14.83 C30.1722847,14.83 30.62,14.3822847 30.62,13.83 C30.62,13.2777153 30.1722847,12.83 29.62,12.83 C29.0677153,12.83 28.62,13.2777153 28.62,13.83 C28.62,14.3822847 29.0677153,14.83 29.62,14.83 Z"/>
    </g>
  </g>
</svg>
