<svg xmlns="http://www.w3.org/2000/svg" width="64" height="64" viewBox="0 0 64 64" style="background:#fff">
  <g id="Kidneybohnen" fill="none" fill-rule="evenodd" stroke="none" stroke-width="1">
    <rect width="64" height="64" fill="#FFF"/>
    <g transform="translate(2 7)">
      <rect id="Rectangle" width="60" height="60" x="0" y="0"/>
      <rect id="Rectangle" width="60" height="60" x="0" y="0"/>
      <path id="Path" fill="#E05362" fill-rule="nonzero" d="M50.45 11.51C47.45 7.31 40.11 4.51 35.57 8.51 33.46 10.41 33.81 13.93 35.77 15.78 36.69 16.65 37.89 17.12 38.77 17.98 39.4228891 18.6385647 40.0309176 19.3401361 40.59 20.08 40.3581957 20.5723171 40.1610496 21.0802189 40 21.6 38.5816684 25.1872503 39.0666697 29.247726 41.29 32.4 42.99 34.59 46.8 36.08 49.12 33.62 54.56 27.8 55.08 18 50.45 11.51zM37.7 33.13C34.14 33.66 31.45 35.64 27.76 35.74 24.5317762 35.9081617 21.3468534 34.9385296 18.76 33 17.6707854 32.2075475 16.6833481 31.2839242 15.82 30.25 16.44 30.41 17.65 29.59 18.02 29.25 19.5133397 27.7506646 20.0320181 25.5366045 19.36 23.53 17.52 17.72 11.59 19.46 8.54 23.3 4.29 28.65 5.35 37.14 8.78 42.66 15.43 53.31 33.62 59.87 42 47.43 44.18 44.14 44 32.18 37.7 33.13z" opacity=".5"/>
      <path id="Shape" fill="#3D454C" fill-rule="nonzero" d="M36.67,31.34 C35.7950697,31.1392658 34.8963698,31.0618497 34,31.11 C33.0619397,31.1387699 32.1326946,31.3003778 31.24,31.59 C30.5291507,31.8443029 29.7659252,31.9164999 29.02,31.8 L28.91,31.8 C27.2322507,31.3961309 25.7557202,30.4023123 24.75,29 C24.3681236,28.4589581 24.0807195,27.8571 23.9,27.22 L23.9,27.22 C23.83,27.02 23.77,26.81 23.7,26.6 C23.4781381,25.7103974 23.1420097,24.8532702 22.7,24.05 C21.455559,22.0586608 19.3409037,20.7750279 17,20.59 C14.3118705,20.2739257 11.6232118,21.1762587 9.67,23.05 C8.2288949,24.5392161 7.24351958,26.4093474 6.83,28.44 C5.58812146,33.7754861 6.86352389,39.3857824 10.29,43.66 C14.62,49.13 22.29,52.66 30.21,52.85 L30.72,52.85 C35.51,52.85 39.72,51.14 42.27,48.1 C44.5216955,45.3126181 45.1931954,41.5680167 44.0503528,38.1719099 C42.9075102,34.7758032 40.108758,32.1989954 36.63,31.34 L36.67,31.34 Z M27,33.25 C26.0331215,33.8186082 24.829805,33.8003363 23.8806364,33.2026337 C22.9314679,32.6049311 22.39502,31.527653 22.49,30.41 C22.5191964,30.1030507 22.5968248,29.8026627 22.72,29.52 C22.8530003,29.7692368 23.0068843,30.0067535 23.18,30.23 C24.1662948,31.5544047 25.4837417,32.5959465 27,33.25 Z M40.78,46.81 C38.55,49.45 34.64,50.96 30.3,50.81 C22.92,50.62 15.87,47.39 11.9,42.38 C8.86933116,38.5729983 7.73583505,33.5937118 8.82,28.85 C9.15942556,27.1976859 9.96040328,25.6754815 11.13,24.46 L11.13,24.46 C12.4341147,23.1977809 14.1852754,22.503789 16,22.53 C16.2764736,22.5153821 16.5535264,22.5153821 16.83,22.53 C18.5254983,22.6764006 20.0542906,23.609223 20.96,25.05 C21.3235012,25.7136399 21.6055423,26.4187427 21.8,27.15 L21.8,27.2 C21.0277693,28.0192315 20.5585317,29.077662 20.47,30.2 C20.3624983,31.5286116 20.789955,32.8451492 21.6574297,33.8572031 C22.5249045,34.869257 23.7605776,35.4930376 25.09,35.59 L25.47,35.59 C26.9571612,35.5924151 28.3682175,34.9327005 29.32,33.79 C30.1882833,33.8299808 31.0564186,33.7078993 31.88,33.43 C32.5991478,33.2009746 33.3458526,33.0697967 34.1,33.04 C34.815109,33.0156033 35.5304995,33.0794175 36.23,33.23 C39.0275614,33.9349437 41.274807,36.0138468 42.1950116,38.7481692 C43.1152163,41.4824915 42.5821278,44.497084 40.78,46.75 L40.78,46.81 Z"/>
      <path id="Path" fill="#3D454C" fill-rule="nonzero" d="M50.37 12.13C49.4379003 10.6094345 48.1555415 9.33393316 46.63 8.41 45.3648909 7.6392566 43.9290891 7.19271535 42.45 7.11 40.2731112 7.03138323 38.1614333 7.8608416 36.62 9.4 35.1790818 10.7596936 34.3708196 12.6589286 34.39 14.64 34.3965886 15.02457 34.3731844 15.4090684 34.32 15.79L34.32 15.79C34.0355722 18.0218445 32.6386906 19.9571467 30.61 20.93 29.9097492 21.2385992 29.1411217 21.3592358 28.38 21.28L28.13 21.28C27.749311 21.2673553 27.3708041 21.2171111 27 21.13 26.651666 21.0496152 26.2869074 21.1611706 26.0431252 21.4226443 25.799343 21.684118 25.7135735 22.0557859 25.8181252 22.3976443 25.922677 22.7395027 26.201666 22.9996152 26.55 23.08 27.025493 23.1917514 27.5116154 23.2520976 28 23.26L28.2 23.26C29.3165459 23.3792091 30.4443675 23.1889325 31.46 22.71 33.4821419 21.7082 35.0427532 19.9686195 35.82 17.85 35.82 17.85 35.82 17.9 35.82 17.93 36.4997026 19.2970703 35.9451114 20.9563715 34.58 21.64 34.1597747 21.8435143 33.9363148 22.3107422 34.0416542 22.7656169 34.1469936 23.2204916 34.5530914 23.5419273 35.02 23.54 35.1762755 23.5369598 35.3299448 23.4993962 35.47 23.43 37.8168211 22.2543607 38.776604 19.4062606 37.62 17.05 37.3024463 16.4094555 36.8443958 15.8488565 36.28 15.41 36.28 15.13 36.28 14.86 36.28 14.58 36.2995853 13.1435415 36.924097 11.7819608 38 10.83 39.1527175 9.69680788 40.7139027 9.07666042 42.33 9.11 43.4831418 9.16576691 44.6039334 9.50956803 45.59 10.11 46.834032 10.8524614 47.8830522 11.8809126 48.65 13.11 52.47 19.29 50.14 26.32 46.65 30.84 46.4866332 31.0515842 46.4147794 31.3197682 46.4504777 31.5846874 46.486176 31.8496066 46.6264545 32.0892054 46.84 32.25 47.0130962 32.3798221 47.2236298 32.4500288 47.44 32.4500288 47.753008 32.4523716 48.0490686 32.308042 48.24 32.06 53.22 25.68 54 18 50.37 12.13zM45.09 33C44.5377153 33 44.09 33.4477153 44.09 34 44.09 34.5522847 44.5377153 35 45.09 35 45.6422847 35 46.09 34.5522847 46.09 34 46.09 33.4477153 45.6422847 33 45.09 33zM23.27 22C23.8222847 22 24.27 21.5522847 24.27 21 24.27 20.4477153 23.8222847 20 23.27 20 22.7177153 20 22.27 20.4477153 22.27 21 22.27 21.5522847 22.7177153 22 23.27 22z"/>
    </g>
  </g>
</svg>
