<svg xmlns="http://www.w3.org/2000/svg" width="64" height="64" viewBox="0 0 64 64" style="background:#fff">
  <g id="Kirsche" fill="none" fill-rule="evenodd" stroke="none" stroke-width="1">
    <rect width="64" height="64" fill="#FFF"/>
    <g transform="translate(2 3)">
      <rect id="Rectangle" width="60" height="60" x="0" y="0"/>
      <rect id="Rectangle" width="60" height="60" x="0" y="0"/>
      <path id="Path" fill="#31E085" fill-rule="nonzero" d="M33.52,8.65 C29.64,5.73 24.29,6.58 20.25,8.93 C18.25,10.1 16.47,11.5 14.5,12.69 C12.35,14 9.94,14.8 7.81,16.08 C6.90141325,16.7517853 6.56732512,17.9561524 7,19 C7.03629103,19.2088752 7.10370772,19.4111253 7.2,19.6 L7.3,19.71 C7.45314631,20.0112613 7.66377152,20.2796386 7.92,20.5 L7.92,20.5 C8.21851688,20.8747871 8.59352216,21.1816096 9.02,21.4 C10.9060424,22.2345268 13.0136678,22.4277258 15.02,21.95 C20.79,20.95 24.35,17.53 30.58,18.72 C36.59,19.79 36.76,11.09 33.52,8.65 Z" opacity=".5"/>
      <path id="Path" fill="#E05362" fill-rule="nonzero" d="M54.9,29 C53.26,26.6 49.8,24.24 46.9,25.83 C45.5505566,26.6178437 44.5232994,27.8576369 44,29.33 C41.51,28.57 38.86,28.01 36.71,28.7 C33.26,29.8 31.79,33.3 31.57,36.8 C29.1,34.8 25.7,34.33 22.57,34.74 C21.3651094,33.991779 19.9871191,33.568047 18.57,33.51 C13.79,33.33 10.97,37.81 10.33,42.02 C8.91,50.9 16.83,60.37 26.16,57.9 C31.24,56.55 34.62,51.9 35.16,46.9 C39.0549151,50.7920681 45.066842,51.6100173 49.86,48.9 C56.32,45.05 59.29,35.38 54.9,29 Z" opacity=".5"/>
      <path id="Shape" fill="#3D454C" fill-rule="nonzero" d="M53,30.2 C51.592199,28.2498056 49.1558432,27.3287922 46.81,27.86 C45.5328526,28.2292625 44.3967326,28.975059 43.55,30 C43.3,30.25 43.06,30.5 42.83,30.71 C40.34,25.12 39.21,16.56 40.29,11 C40.3533284,10.6098326 40.1808896,10.2189748 39.8500197,10.0027199 C39.5191497,9.78646503 39.0919451,9.78539903 38.76,10 C37.86,10.59 37.01,11.2 36.2,11.83 C34.9044326,11.4573679 33.6404678,10.9825452 32.42,10.41 C21.36,5.2 14.71,11.62 10.3,15.86 C9.30913328,16.9089706 8.2019957,17.8416501 7,18.64 C6.87,18.69 6.47,18.79 6.44,18.8 C5.94948225,18.7164534 5.47216209,19.0062549 5.32,19.48 C5.16846672,19.9485482 5.3806021,20.4576731 5.82,20.68 C8.22847208,21.9099985 10.8956377,22.5476499 13.6,22.54 C18.51,22.54 23.26,20.54 27.91,18.68 L30.12,17.78 C26.69,22.2 24.53,27.53 23.22,34.49 C23.07,35.33 22.97,36.11 22.89,36.74 L22.83,37.22 C22.59,37.08 22.35,36.92 22.09,36.75 C21.0536882,35.9247343 19.7914905,35.4331048 18.47,35.34 L18.47,35.34 C16.0658112,35.3196377 13.8816238,36.7364079 12.92,38.94 C11.2454328,43.0656252 11.7722889,47.7584076 14.32,51.41 C16.1698677,53.7377107 18.8741775,55.228502 21.83,55.55 C22.2415759,55.5979437 22.6556432,55.6213185 23.07,55.6200528 C25.619145,55.6231822 28.0914222,54.7472897 30.07,53.14 C32.84,50.9 34.61,46.37 34.34,42.64 C35.4590804,44.7825332 37.1795032,46.5516144 39.29,47.73 C41.9481255,49.0602023 45.0273487,49.2740033 47.8438022,48.3239197 C50.6602557,47.373836 52.9807772,45.3385211 54.29,42.67 C56.0021846,38.5634843 55.5165545,33.86906 53,30.2 Z M27.19,16.83 C20.97,19.38 15.05,21.83 8.91,19.83 C9.88685316,19.0577959 10.8152735,18.2262251 11.69,17.34 C15.94,13.25 21.76,7.64 31.56,12.28 C32.4636727,12.7080494 33.3919742,13.0820414 34.34,13.4 C33.89,13.8 33.45,14.2 33.02,14.62 C31.05,15.25 29.09,16.05 27.19,16.83 Z M28.82,51.58 C26.9242664,53.1150468 24.4935831,53.8286276 22.0689083,53.5619321 C19.6442335,53.2952367 17.4267617,52.0703948 15.91,50.16 C13.8468958,47.1099181 13.4132918,43.2411237 14.75,39.81 C15.3626189,38.2852256 16.8572278,37.3007766 18.5,37.34 L18.5,37.34 C19.4204254,37.4499754 20.289016,37.8252065 21,38.42 C21.7554838,39.0083598 22.6396406,39.4093146 23.58,39.59 C24.5469804,39.6188934 25.5068968,39.4166253 26.38,39 C27.2113431,38.5717238 28.1504242,38.3978199 29.08,38.5 C30.6842329,38.8311904 31.9244078,40.1070253 32.21,41.72 C32.7649398,45.3636871 31.498249,49.0479264 28.82,51.58 L28.82,51.58 Z M29.53,36.58 C28.2143055,36.371347 26.8662757,36.5739007 25.67,37.16 L24.86,37.45 L24.92,37 C24.99,36.41 25.08,35.66 25.23,34.88 C26.75,26.79 29.46,21.01 34.13,16.33 L34.37,16.25 C35.2985914,15.8638663 36.2035079,15.4230952 37.08,14.93 L37.91,14.5 C37.7304276,20.2379808 38.7522806,25.9501394 40.91,31.27 L40.21,31.18 C38.913836,30.8677249 37.553241,30.9584313 36.31,31.44 C34.1175906,32.4263963 32.7359296,34.6370538 32.81,37.04 C32.8043887,37.5828155 32.8478993,38.1250256 32.94,38.66 C32.0852182,37.5812664 30.8780103,36.8378245 29.53,36.56 L29.53,36.58 Z M52.53,41.81 C51.4552372,44.0022189 49.5489209,45.6739883 47.2351605,46.45338 C44.9214,47.2327717 42.3921114,47.0551387 40.21,45.96 C37.0310758,44.0536395 34.9988345,40.7002542 34.78,37 C34.710375,35.3635795 35.6454296,33.8500589 37.14,33.18 C37.5349473,33.0290817 37.9584429,32.9676065 38.38,33 C38.8860192,33.0177161 39.3903846,33.0678187 39.89,33.15 C40.8193149,33.379992 41.7906851,33.379992 42.72,33.15 L42.82,33.15 L42.82,33.15 C43.6648787,32.7359443 44.408941,32.1420598 45,31.41 C45.5720952,30.6692029 46.3519344,30.1156564 47.24,29.82 C48.8324327,29.4465 50.4918265,30.0801588 51.43,31.42 C53.461739,34.4929302 53.8649351,38.3643592 52.51,41.79 L52.53,41.81 Z"/>
      <path id="Path" fill="#3D454C" fill-rule="nonzero" d="M48.12 33.35C49.3091321 34.8837056 49.413003 36.997078 48.38 38.64 47.7 39.74 49.38 40.75 50.1 39.64 51.5033741 37.3771901 51.4046893 34.4916449 49.85 32.33 49.1 31.31 47.37 32.31 48.12 33.35zM47 41C46.4477153 41 46 41.4477153 46 42 46 42.5522847 46.4477153 43 47 43 47.5522847 43 48 42.5522847 48 42 48 41.4477153 47.5522847 41 47 41z"/>
    </g>
  </g>
</svg>
