<svg xmlns="http://www.w3.org/2000/svg" width="64" height="64" viewBox="0 0 64 64" style="background:#fff">
  <g id="Kiwi" fill="none" fill-rule="evenodd" stroke="none" stroke-width="1">
    <rect width="64" height="64" fill="#FFF"/>
    <g transform="translate(2 7)">
      <path id="Path" fill="#C17953" fill-rule="nonzero" d="M34.85,42.9 C31.85,41.44 28.55,42.9 25.3,42.47 C21.24,41.92 16.44,39.66 14.4,35.95 C9.9,27.74 22,21.49 23.73,14.42 C23.84,13.93 23.65,13.03 23.1,12.85 C18.45,11.34 12.67,18.47 10.48,21.92 C7.06629739,27.2159867 6.21097175,33.7649178 8.15,39.76 C10.1235269,45.4477534 14.5871429,49.922418 20.27,51.91 C25.53,53.75 32.61,54.42 36.16,49.5 C37.51,47.62 37,44 34.85,42.9 Z" opacity=".5"/>
      <path id="Path" fill="#31E085" fill-rule="nonzero" d="M50.06,22 C46.65,14.23 35.52,5.17 27.78,12.72 C25.78,14.67 25.85,19.58 28.68,20.82 C32.68,22.57 36.68,24.05 39.47,27.55 C39.7860655,28.0376557 40.070001,28.5453992 40.32,29.07 L38.75,29.69 C35.24,30.85 34.49,36.44 34.86,39.42 C35.18,41.93 37.05,47.66 40.71,46.89 C51.45,44.63 54,30.9 50.06,22 Z" opacity=".5"/>
      <rect id="Rectangle" width="60" height="60" x="0" y="0"/>
      <rect id="Rectangle" width="60" height="60" x="0" y="0"/>
      <path id="Shape" fill="#3D454C" fill-rule="nonzero" d="M51.93,28.64 C50.7000874,22.4166647 47.150322,16.8936159 42,13.19 C37.66,10.12 32.8,8.91 28.3,9.79 C27.7831194,9.88715072 27.2722714,10.014028 26.77,10.17 C26.43,10.28 26.1,10.41 25.77,10.54 C18.89,12.56 12.74,17 9.35,22.4 C6.41998547,27.0034891 5.59070605,32.6374971 7.07,37.89 C9.35,46.26 15.65,51.36 24.81,52.26 C25.72,52.35 26.64,52.39 27.57,52.39 C33.3030721,52.3744637 38.9226239,50.7906147 43.82,47.81 C46.7395832,46.4112679 49.0981604,44.0632673 50.51,41.15 C52.3332641,37.2459696 52.8318659,32.8533577 51.93,28.64 L51.93,28.64 Z M40.93,14.82 C44.9776887,17.7329783 47.9597329,21.8916831 49.42,26.66 C49.6536007,27.429464 49.8471933,28.2105101 50,29 C50.771392,32.6230301 50.4010739,36.3960823 48.94,39.8 C48.94,39.8 48.88,39.86 48.87,39.9 C47.4299394,42.4986448 45.3021807,44.6506219 42.72,46.12 C42.3172773,46.3033455 41.9030723,46.4603426 41.48,46.59 C41.0499169,46.7246551 40.6125492,46.8348317 40.17,46.92 C35.8666547,47.6168974 31.4660533,46.5140351 28,43.87 C23.9421671,40.9477066 20.9503485,36.7795274 19.48,32 C19.239958,31.2248168 19.0429903,30.4369461 18.89,29.64 C18.0677861,25.8573732 18.5068219,21.9095627 20.14,18.4 C21.4325327,15.7017627 23.6656547,13.5682067 26.42,12.4 C27.26,12.16 28.11,11.95 28.97,11.78 C29.1029157,11.752336 29.2288065,11.6978967 29.34,11.62 C29.9723261,11.5249627 30.6105901,11.4748373 31.25,11.47 C34.7292898,11.5634082 38.0939219,12.7338669 40.88,14.82 L40.93,14.82 Z M25,50.27 C20.21,49.8 11.76,47.5 9,37.36 C7.6743466,32.6427705 8.41985263,27.5842394 11.05,23.45 C13.2415968,20.0836257 16.2121039,17.2949164 19.71,15.32 C19.1916818,16.0181727 18.7365518,16.7611055 18.35,17.54 C16.5233648,21.4429053 16.0212469,25.8355595 16.92,30.05 C17.0930327,30.9204082 17.3099765,31.7815081 17.57,32.63 C19.170587,37.8123221 22.4182421,42.3309514 26.82,45.5 C29.5173246,47.4734316 32.6802359,48.7137889 36,49.1 C32.4409809,50.1853864 28.7077004,50.5824717 25,50.27 L25,50.27 Z"/>
      <path id="Path" fill="#3D454C" fill-rule="nonzero" d="M42.8 33L39.05 31.18C38.5561422 30.9580435 37.9753346 31.1694586 37.7397157 31.6569459 37.5040968 32.1444333 37.6992609 32.7309014 38.18 32.98L41.93 34.8C42.0684523 34.8625749 42.218102 34.8965862 42.37 34.9 42.8350414 34.8972774 43.2368277 34.5743292 43.3394796 34.1207507 43.4421316 33.6671721 43.2185524 33.2026939 42.8 33zM26.62 25L29.71 27C29.8738098 27.1058223 30.0649873 27.1614376 30.26 27.1600272 30.6985565 27.1566147 31.0837305 26.867868 31.2099631 26.4478578 31.3361957 26.0278475 31.1740258 25.5745986 30.81 25.33L27.72 23.33C27.4975339 23.183047 27.2255951 23.131018 26.9645947 23.1854713 26.7035944 23.2399246 26.4751462 23.3963509 26.33 23.62 26.0306878 24.0814725 26.1602562 24.6980393 26.62 25zM30.19 18.78L31.32 23.18 28.82 19.94C28.4831063 19.5009336 27.8540664 19.4181063 27.415 19.755 26.9759336 20.0918937 26.8931063 20.7209336 27.23 21.16L29.78 24.46C29.9709314 24.708042 30.266992 24.8523716 30.58 24.85 30.8009494 24.8493122 31.0154502 24.7754677 31.19 24.64 31.5076997 24.3882364 31.6419836 23.9695866 31.53 23.58 31.71842 23.812277 32.0009167 23.9480222 32.3 23.95L32.55 23.95C32.8930917 23.8548263 33.1597022 23.5844071 33.25 23.24L33.31 24.12C33.346823 24.6447754 33.7839358 25.0512903 34.31 25.0500031L34.38 25.0500031C34.9246425 25.0125337 35.3385836 24.5451808 35.31 24L35 19.79C34.9749914 19.4327344 34.7612836 19.1159493 34.4393782 18.9589746 34.1174728 18.8019999 33.736275 18.8286837 33.4393782 19.0289746 33.1424814 19.2292655 32.9749914 19.5727344 33 19.93L33.18 22.41 32.12 18.29C32.0324699 17.9434524 31.7667079 17.6699259 31.4228238 17.5724554 31.0789397 17.4749848 30.7091778 17.5683783 30.4528238 17.8174554 30.1964698 18.0665324 30.0924699 18.4334524 30.18 18.78L30.19 18.78zM39.85 34.08C39.5125433 33.6446782 38.886601 33.5641999 38.45 33.9 38.3632089 33.9704511 38.2888447 34.054956 38.23 34.15L38.23 34.08C38.1250659 33.5277153 37.5922847 33.1650659 37.04 33.27 36.4877153 33.3749341 36.1250659 33.9077153 36.23 34.46L37.04 38.55C37.1322491 39.0271082 37.5541358 39.3688364 38.04 39.36L38.24 39.36C38.7779393 39.2404887 39.1178162 38.7083131 39 38.17L38.5 35.63 40.79 38.63C41.1380706 39.0274888 41.7352983 39.0856194 42.1534877 38.7627136 42.5716771 38.4398079 42.6665127 37.8472993 42.37 37.41L39.85 34.08z"/>
      <path id="Path" fill="#3D454C" fill-rule="nonzero" d="M44 27.88C43.9703141 27.6099924 43.8320651 27.3636787 43.6170418 27.1976958 43.4020186 27.0317129 43.1287243 26.9603442 42.86 27L38.73 27.56C38.1836856 27.632572 37.7990672 28.1334703 37.87 28.68 37.9356679 29.180992 38.3647407 29.5542854 38.87 29.55L38.95 29.55C38.6534695 29.7958353 38.524493 30.1901284 38.6184156 30.5636841 38.7123382 30.9372398 39.0124616 31.2236449 39.39 31.3L43.39 32.04 43.57 32.04C44.1222847 32.0897056 44.6102944 31.6822847 44.66 31.13 44.7097056 30.5777153 44.3022847 30.0897056 43.75 30.04L40.1 29.37 43.1 28.96C43.6451308 28.9071979 44.0463658 28.4257159 44 27.88L44 27.88zM38 26.85C38.260462 27.3349278 38.8638534 27.51818 39.35 27.26L43.13 25.26C43.618772 25.0004262 43.8045738 24.393772 43.545 23.905 43.2854262 23.416228 42.678772 23.2304262 42.19 23.49L38.41 25.49C38.1744079 25.6151081 37.9985651 25.8291576 37.9215705 26.0845543 37.8445759 26.3399511 37.8728118 26.6155243 38 26.85L38 26.85zM26.41 29.05C25.8577153 29.0858985 25.4391015 29.5627153 25.475 30.115 25.5108985 30.6672847 25.9877153 31.0858985 26.54 31.05L26.68 31.05 30.81 30.49C31.3622847 30.4154416 31.7495584 29.9072847 31.675 29.355 31.6004416 28.8027153 31.0922847 28.4154416 30.54 28.49L26.41 29.05z"/>
      <path id="Path" fill="#3D454C" fill-rule="nonzero" d="M28.74 28.69C29.2922847 28.7645584 29.8004416 28.3772847 29.875 27.825 29.9495584 27.2727153 29.5622847 26.7645584 29.01 26.69L25.2 25.69C24.6670452 25.5436445 24.1163555 25.8570452 23.97 26.39 23.8236445 26.9229548 24.1370452 27.4736445 24.67 27.62L28.47 28.62C28.557132 28.6532538 28.6476867 28.6767309 28.74 28.69L28.74 28.69zM35.91 24.19C36.0309113 24.2378158 36.1599871 24.2615929 36.29 24.26 36.6973435 24.2620401 37.0652126 24.0167941 37.22 23.64L38.8 19.78C38.900873 19.3135507 38.6580883 18.8408243 38.2202015 18.6510734 37.7823147 18.4613224 37.2713679 18.6074319 37 19L35.42 22.86C35.307989 23.1012624 35.2967148 23.3772096 35.3886711 23.6268054 35.4806274 23.8764011 35.668236 24.0790758 35.91 24.19z"/>
      <path id="Path" fill="#3D454C" fill-rule="nonzero" d="M36.05 26.18C36.2395698 26.3957843 36.5127728 26.5196363 36.8 26.52 37.0430724 26.5196502 37.2776958 26.4307777 37.46 26.27L40.59 23.53C41.0124978 23.1682535 41.0617465 22.5324978 40.7 22.11 40.3382535 21.6875022 39.7024978 21.6382535 39.28 22L36.14 24.75C35.9352609 24.9257274 35.8102193 25.1767314 35.7932717 25.4460101 35.7763241 25.7152888 35.8689087 25.9799895 36.05 26.18zM34.83 33C34.3091781 33.041797 33.9083255 33.4775063 33.91 34 33.8190639 33.9132479 33.7142925 33.8422737 33.6 33.79 33.2892971 33.6731673 32.9408697 33.7181257 32.67 33.91L33.4 33.27C33.8137044 32.9052422 33.8539711 32.2743967 33.49 31.86 33.1252422 31.4462956 32.4943967 31.4060289 32.08 31.77L31.5 32.28C31.5702358 32.0656058 31.5702358 31.8343942 31.5 31.62 31.3201723 31.1087616 30.7658326 30.8338091 30.25 31L26 32.47C25.4477153 32.5583656 25.0716345 33.0777153 25.16 33.63 25.2483656 34.1822847 25.7677153 34.5583655 26.32 34.47 26.4325935 34.4687218 26.5441625 34.4484365 26.65 34.41L30.73 33 28.94 34.56C28.6203552 34.8333043 28.5058664 35.2773952 28.6535338 35.6711748 28.8012012 36.0649545 29.1794648 36.3242632 29.6 36.32 29.8430724 36.3196502 30.0776958 36.2307777 30.26 36.07L32.47 34.14C32.396733 34.2107466 32.3388587 34.2958558 32.3 34.39L30.71 38.25C30.5742391 38.5804707 30.6250948 38.9582658 30.8434103 39.2410735 31.0617259 39.5238813 31.4143339 39.6687365 31.7684103 39.6210735 32.1224868 39.5734106 32.4242391 39.3404707 32.56 39.01L34 35.47 34.2 38.25C34.236823 38.7747754 34.6739358 39.1812903 35.2 39.18L35.27 39.18C35.5354608 39.1620712 35.7828324 39.039092 35.9573725 38.838277 36.1319126 38.6374621 36.2192293 38.3753698 36.2 38.11L35.9 34C35.9006815 33.7221975 35.785771 33.4566312 35.5828077 33.2669458 35.3798443 33.0772604 35.1071218 32.9805529 34.83 33zM34.55 42.37C33.9977153 42.37 33.55 42.8177153 33.55 43.37 33.55 43.9222847 33.9977153 44.37 34.55 44.37 35.1022847 44.37 35.55 43.9222847 35.55 43.37 35.55 42.8177153 35.1022847 42.37 34.55 42.37zM33.58 16C34.1322847 16 34.58 15.5522847 34.58 15 34.58 14.4477153 34.1322847 14 33.58 14 33.0277153 14 32.58 14.4477153 32.58 15 32.58 15.5522847 33.0277153 16 33.58 16zM46.93 36.55C47.4822847 36.55 47.93 36.1022847 47.93 35.55 47.93 34.9977153 47.4822847 34.55 46.93 34.55 46.3777153 34.55 45.93 34.9977153 45.93 35.55 45.93 36.1022847 46.3777153 36.55 46.93 36.55z"/>
    </g>
  </g>
</svg>
