<svg xmlns="http://www.w3.org/2000/svg" width="64" height="64" viewBox="0 0 64 64" style="background:#fff">
  <g id="Knoblauch" fill="none" fill-rule="evenodd" stroke="none" stroke-width="1">
    <rect width="64" height="64" fill="#FFF"/>
    <g transform="translate(2 4)">
      <rect id="Rectangle" width="60" height="60" x="0" y="0"/>
      <rect id="Rectangle" width="60" height="60" x="0" y="0"/>
      <path id="Path" fill="#CCC" fill-rule="nonzero" d="M48.06,36.87 C47.71,31.39 44.76,27.09 41.06,23.25 C39.5,21.63 36.97,19.85 36.28,17.59 C35.69,15.59 36.49,12.93 36.59,10.92 C36.74,7.93 33,1 29.48,5 C28.1045519,6.61344092 27.0825775,8.49728029 26.48,10.53 C26.2335317,10.1043925 25.952591,9.69970415 25.64,9.32 C24.9,8.47 24.21,9.16 24,10.03 C22.67,15.64 22.36,19.91 18.12,24.31 C15.02,27.52 12.77,30.47 12.49,35.1 C11.88,45.1 19.33,52.46 28.91,53.47 C39.49,54.59 48.78,48.14 48.06,36.87 Z" opacity=".5"/>
      <path id="Path" fill="#3D454C" fill-rule="nonzero" d="M31.19 22.580003C31.3166534 22.5803081 31.4422124 22.5565537 31.56 22.51 31.8068077 22.4120649 32.0045322 22.2199921 32.1095816 21.9761274 32.2146309 21.7322628 32.2183792 21.456631 32.12 21.21 30.59 17.42 30.25 12.78 31.12 7.02 31.1599817 6.7558774 31.0926259 6.48673741 30.9329487 6.27258213 30.7732715 6.05842685 30.5345483 5.91706075 30.27 5.88 29.7232605 5.80276695 29.2173971 6.18328367 29.14 6.73 28.27 12.85 28.65 17.83 30.31 21.96 30.4575841 22.3203881 30.8009654 22.5623159 31.19 22.580003zM41.92 40.26C41.92 34.67 39.4 31.59 36.73 28.34L36.39 27.92C36.0336697 27.5236904 35.4291459 27.4764698 35.0155999 27.8126427 34.6020538 28.1488156 34.524817 28.7502416 34.84 29.18L35.19 29.61C37.73 32.71 39.92 35.38 39.92 40.26 39.92 46.06 35.51 50.78 30.08 50.78 24.65 50.78 20.25 46.06 20.25 40.26 20.25 35.79 22.01 33.09 23.97 30.5 24.1843594 30.2141875 24.2299564 29.8357266 24.0896152 29.5071797 23.9492741 29.1786328 23.6443158 28.9499141 23.2896152 28.9071797 22.9349147 28.8644453 22.5843594 29.0141875 22.37 29.3 20.28 32.05 18.25 35.17 18.25 40.3 18.1761679 45.5858443 21.4354465 50.3466333 26.39 52.19 25.609719 52.8012051 24.9773586 53.5805465 24.54 54.47 24.3222622 54.9566719 24.5246302 55.5285816 25 55.77 25.4943143 56.0154836 26.0940469 55.8140809 26.34 55.32 26.8948172 54.2022934 27.8861154 53.362946 29.08 53L29.08 54.1C29.08 54.6522847 29.5277153 55.1 30.08 55.1 30.6322847 55.1 31.08 54.6522847 31.08 54.1L31.08 53C32.2881215 53.3642763 33.2866008 54.2211531 33.83 55.36 33.9982534 55.703391 34.3476049 55.9207653 34.73 55.920002 34.8862755 55.9169598 35.0399448 55.8793962 35.18 55.81 35.670313 55.5604244 35.8669243 54.9616536 35.62 54.47 35.1893796 53.57911 34.5598573 52.7990497 33.78 52.19 38.7485578 50.3417216 42.0109055 45.5604185 41.92 40.26L41.92 40.26z"/>
      <path id="Path" fill="#3D454C" fill-rule="nonzero" d="M19.49 49.7C18.9821145 49.5688453 18.4841933 49.4017576 18 49.2 12.7343949 46.7926353 10.3038939 40.6612444 12.49 35.3 13.43 32.97 15.71 30.57 18.13 28.04 22.74 23.21 27.97 17.74 24.77 11.09 24.4909685 10.6582789 23.9300773 10.5084309 23.4729138 10.7434697 23.0157503 10.9785086 22.811251 11.5218624 23 12 25.59 17.41 21.08 22.14 16.72 26.71 14.16 29.39 11.72 31.92 10.66 34.6 8.13248469 40.9439954 11.021568 48.1557103 17.23 51 17.8002783 51.2478518 18.3886567 51.4517784 18.99 51.61L19.24 51.61C19.7922847 51.6790356 20.2959644 51.2872847 20.365 50.735 20.4340356 50.1827153 20.0422847 49.6790356 19.49 49.61L19.49 49.7zM49.51 34.55C48.43 31.87 46.02 29.34 43.51 26.66 39.15 22.09 34.63 17.36 37.23 11.95 37.41509 11.6246147 37.402946 11.2231018 37.1985294 10.9094973 36.9941128 10.5958929 36.6316605 10.4227212 36.2592505 10.4607308 35.8868405 10.4987403 35.5668464 10.741565 35.43 11.09 32.23 17.74 37.43 23.21 42.06 28.09 44.48 30.62 46.77 33.02 47.71 35.34 49.8474936 40.7034649 47.4015654 46.8006887 42.15 49.2 41.6728566 49.4023118 41.1815438 49.569425 40.68 49.7 40.1277153 49.7662742 39.7337259 50.2677153 39.8 50.82 39.8662742 51.3722847 40.3677153 51.7662742 40.92 51.7 41.0030471 51.7097686 41.0869529 51.7097686 41.17 51.7 41.7776037 51.5139002 42.3694651 51.2798308 42.94 51 49.1791071 48.1582308 52.0747999 40.9079801 49.51 34.55L49.51 34.55zM27 27.21C27.5522847 27.21 28 26.7622847 28 26.21 28 25.6577153 27.5522847 25.21 27 25.21 26.4477153 25.21 26 25.6577153 26 26.21 26 26.7622847 26.4477153 27.21 27 27.21z"/>
    </g>
  </g>
</svg>
