<svg xmlns="http://www.w3.org/2000/svg" width="64" height="64" viewBox="0 0 64 64" style="background:#fff">
  <g id="Knollensellerie" fill="none" fill-rule="evenodd" stroke="none" stroke-width="1">
    <rect width="64" height="64" fill="#FFF"/>
    <g id="19-Knollensellerie" transform="translate(2 4)">
      <rect id="Rectangle" width="60" height="60" x="0" y="0"/>
      <rect id="Rectangle" width="60" height="60" x="0" y="0"/>
      <path id="Path" fill="#31E085" fill-rule="nonzero" d="M54.25,13 C50.3480575,10.4709666 45.4486044,10.0330475 41.16,11.83 C41.1323363,9.37396822 40.3271333,6.98986729 38.86,5.02 C37.52,3.39 35.33,2.35 33.57,4.11 C33.2380142,4.45604135 32.9461653,4.8384641 32.7,5.25 L32.7,5.21 C32.7,5.31 32.61,5.4 32.57,5.5 C32.419927,5.75986722 32.2895611,6.03062705 32.18,6.31 L32.06,6.57 C31.7182666,7.49072913 31.5553535,8.46820755 31.58,9.45 C31.5608117,10.193861 31.6177749,10.9377337 31.75,11.67 L31.75,11.56 C31.941847,12.6413285 32.2537778,13.697868 32.68,14.71 C33.3355917,16.6438169 34.7058267,18.2537536 36.51,19.21 C37.1483188,19.5338644 37.911049,19.4919142 38.51,19.1 C40.1566342,19.4383335 41.8296404,19.6324022 43.51,19.68 C46.57,20.06 49.11,21.42 51.78,22.89 C56,25.21 57.23,15.14 54.25,13 Z" opacity=".5"/>
      <path id="Path" fill="#D4BA39" fill-rule="nonzero" d="M35.59,28 C34.83,27.26 33.01,26.16 31.88,26.53 C30.28,26.21 28.56,27.1 27.19,30 C25.19,34.22 20.67,33.73 16.9,33.93 C12,34.18 9.2,38 8.55,42.68 C7.14,52.74 16.19,59.68 25.55,57.58 C34.27,55.65 39.55,47.35 39.29,38.67 C39.22,34.93 38.34,30.72 35.59,28 Z" opacity=".5"/>
      <g id="radish-beetroot" fill="#3D454C" fill-rule="nonzero" transform="translate(7 5)">
        <path id="Shape" d="M17.81 18.34C13.3574527 18.0524973 8.98453111 19.6210101 5.72982212 22.6730102 2.47511312 25.7250103.629020917 29.9881804.629999611 34.45.629999611 34.45.629999611 34.51.629999611 34.54.635875173 36.830179 1.13735503 39.0919555 2.1 41.17 4.18 45.7 5.7 46.81 8.2 48.39 10.7431419 49.9102052 13.6685032 50.6701745 16.6299996 50.58L16.78 50.58C21.2351782 50.5782338 25.4927407 48.7406453 28.55 45.5 32.8309394 40.9442112 34.0960028 34.3259946 31.7971409 28.5124855 29.4982791 22.6989765 24.0489869 18.7358473 17.81 18.34zM27.09 44.13C24.4597858 46.9550829 20.7798801 48.5688862 16.92 48.59L16.78 48.59C14.1475749 48.7023871 11.5390012 48.0493753 9.27 46.71 7.14 45.37 5.85 44.55 3.92 40.35 3.35910252 39.1183342 2.98175884 37.8111079 2.8 36.47L2.8 36.47C4.11870461 37.5402183 5.65407954 38.3113177 7.3 38.73L7.55 38.73C7.90726559 38.7746582 8.26121747 38.6253252 8.4785254 38.3382532 8.69583333 38.0511812 8.74348306 37.6699834 8.6035254 37.3382532 8.46356774 37.006523 8.15726559 36.7746582 7.8 36.73 6.43375987 36.3818056 5.15829956 35.7440755 4.06 34.86 3.55296678 34.4462138 3.08743622 33.9840324 2.67 33.48 3.1000181 27.2718662 7.53822633 22.0746342 13.602457 20.6778708 19.6666876 19.2811074 25.931241 22.0131915 29.0336753 27.4077019 32.1361097 32.8022123 31.3470431 39.5909004 27.09 44.13L27.09 44.13zM42 4.89C36.7412078 4.8545066 31.9898493 8.02207896 30 12.89 28.3 10.7 26.58 7.49 26.58 5.89 26.581562 4.47925476 27.5295791 3.24508016 28.8922239 2.87983518 30.2548686 2.5145902 31.693065 3.10916116 32.4 4.33 32.5702629 4.65547839 32.9052613 4.86141249 33.2725499 4.86638389 33.6398385 4.87135529 33.980288 4.67456366 34.1592979 4.35381282 34.3383077 4.03306198 34.3270594 3.63998907 34.13 3.33 32.9695685 1.32737853 30.6099275.352310212 28.3743174.951594189 26.1387072 1.55087817 24.5831617 3.57546246 24.58 5.89 24.58 8.62 27.65 13.49 29.68 15.52 29.68 15.52 29.68 15.52 29.68 15.52L29.68 15.52C29.7579669 15.5863261 29.8456552 15.6402881 29.94 15.68L30.01 15.68C30.0967412 15.7110199 30.1879029 15.7279018 30.28 15.73L30.28 15.73 30.33 15.73C30.4252969 15.7206199 30.5192271 15.700492 30.61 15.67L30.67 15.67 30.67 15.67C33.89 14.24 35.26 15.08 36.99 16.14 38.44102 17.2219903 40.190683 17.8296577 42 17.88 45.5898509 17.88 48.5 14.9698509 48.5 11.38 48.5 7.79014913 45.5898509 4.88 42 4.88L42 4.89zM42 15.89C40.5941043 15.8314325 39.238493 15.3505215 38.11 14.51 36.9332007 13.6626499 35.5531845 13.1416938 34.11 13 37.47 10.75 39.75 11 39.81 11 40.3622847 11.0883656 40.8816344 10.7122847 40.97 10.16 41.0583655 9.60771525 40.6822847 9.08836557 40.13 9 39.98 9 37.13 8.57 33.13 11.24 35.2577922 8.49991428 38.5307715 6.89478916 42 6.89 44.4852814 6.89 46.5 8.90471863 46.5 11.39 46.5 13.8752814 44.4852814 15.89 42 15.89z"/>
        <path id="Path" d="M22.4 42.05C21.4775872 42.9952866 20.293503 43.6430503 19 43.91 17.74 44.18 18.28 46.1 19.53 45.84 21.1737908 45.4916427 22.6772468 44.6633499 23.85 43.46 24.76 42.54 23.34 41.13 22.44 42.05L22.4 42.05zM25.88 41.28C26.4322847 41.28 26.88 40.8322847 26.88 40.28 26.88 39.7277153 26.4322847 39.28 25.88 39.28 25.3277153 39.28 24.88 39.7277153 24.88 40.28 24.88 40.8322847 25.3277153 41.28 25.88 41.28zM26.35 23L31.88 19.08C32.88 18.35 31.88 16.61 30.88 17.36L25.35 21.27C24.35 22.01 25.35 23.75 26.35 23zM24.76 20.89L27 16.11C27.54 14.95 25.82 13.94 25.27 15.11L23 19.88C22.46 21.04 24.18 22.06 24.73 20.88L24.76 20.89z"/>
      </g>
      <path id="Path" fill="#3D454C" fill-rule="nonzero" d="M13.83 36.83C15.7880999 38.8105741 18.4014617 40.0088094 21.18 40.2 21.7322847 40.2 22.18 39.7522847 22.18 39.2 22.18 38.6477153 21.7322847 38.2 21.18 38.2 20.6458634 38.1672765 20.1164573 38.0801591 19.6 37.94 19.3066667 37.86 19.0166667 37.77 18.73 37.67L18.33 37.52 18.27 37.52 18 37.39C16.9541877 36.9018329 16.0081435 36.223665 15.21 35.39 14.8132397 35.0502232 14.2218058 35.0730677 13.8524368 35.4424368 13.4830677 35.8118058 13.4602232 36.4032397 13.8 36.8L13.83 36.83zM22.94 31.56C23.1326846 34.3488826 25.0197399 36.7325313 27.69 37.56 28.2199985 37.7074905 28.7695967 37.3991793 28.92 36.87 28.9904836 36.6140602 28.9563072 36.3405976 28.8250026 36.1098766 28.6936979 35.8791555 28.4760417 35.7101124 28.22 35.64L27.81 35.5 27.81 35.5 27.62 35.41C27.3832687 35.294567 27.1559112 35.1608273 26.94 35.01L26.79 34.91C26.61 34.78 26.92 35.02 26.79 34.91 26.66 34.8 26.57 34.73 26.47 34.63 26.2681078 34.4310739 26.077795 34.2207283 25.9 34 25.78 33.85 25.97 34.1 25.9 34L25.78 33.82C25.7028958 33.7146854 25.6327467 33.6044512 25.57 33.49L25.38 33.14C25.38 33.07 25.31 33.01 25.28 32.94 25.25 32.87 25.28 32.89 25.28 32.94 25.28 32.99 25.16 32.62 25.13 32.53 25.1 32.44 25.06 32.3 25.04 32.19 25.02 32.08 24.98 31.91 24.95 31.76 24.92 31.61 24.95 31.97 24.95 31.76 24.954939 31.6900871 24.954939 31.6199129 24.95 31.55 24.95 30.9977153 24.5022847 30.55 23.95 30.55 23.3977153 30.55 22.95 30.9977153 22.95 31.55L22.94 31.56zM23.24 28.8C23.7922847 28.8 24.24 28.3522847 24.24 27.8 24.24 27.2477153 23.7922847 26.8 23.24 26.8 22.6877153 26.8 22.24 27.2477153 22.24 27.8 22.24 28.3522847 22.6877153 28.8 23.24 28.8zM18.17 47.41C20.2588371 47.6105722 22.3399897 46.9577323 23.94 45.6 24.3277236 45.2099625 24.3277236 44.5800375 23.94 44.19 23.5499625 43.8022764 22.9200375 43.8022764 22.53 44.19L22.4 44.29C22.5 44.22 22.5 44.22 22.4 44.29L22.13 44.48 21.56 44.82 21.26 44.96 21.11 45.03C21.23 44.98 21.23 44.98 21.11 45.03 20.9204247 45.1071035 20.726807 45.1738682 20.53 45.23 20.33 45.29 20.13 45.34 19.93 45.38L19.61 45.44 19.46 45.44C19.0244974 45.4850911 18.5855026 45.4850911 18.15 45.44 17.5977153 45.44 17.15 45.8877153 17.15 46.44 17.15 46.9922847 17.5977153 47.44 18.15 47.44L18.17 47.41z"/>
    </g>
  </g>
</svg>
