<svg xmlns="http://www.w3.org/2000/svg" width="64" height="64" viewBox="0 0 64 64" style="background:#fff">
  <g id="Kohlrabi" fill="none" fill-rule="evenodd" stroke="none" stroke-width="1">
    <rect width="64" height="64" fill="#FFF"/>
    <g id="12-Kohlrabi" transform="translate(2 4)">
      <rect id="Rectangle" width="60" height="60" x="0" y="0"/>
      <rect id="Rectangle" width="60" height="60" x="0" y="0"/>
      <path id="Path" fill="#31E085" fill-rule="nonzero" d="M51.07,20 C50.75,20 50.43,19.91 50.07,19.86 C50.6092082,19.2843258 51.2679832,18.8337647 52,18.54 C55.64,17.13 55.12,8.32 50.85,8.25 C49.075328,8.19905154 47.3090281,8.51215288 45.66,9.17 C45.0019941,9.43399111 44.3749144,9.76932783 43.79,10.17 C42.85,10.85 42.71,11.78 42.66,10.75 C42.5,7.64 39.66,3.75 37.04,7.34 C34.94,10.21 32.41,12.97 31.9,16.63 C31.56,19.12 32.11,22.7 34.18,24.44 C34.0416203,26.5837413 34.8278962,28.6841173 36.34,30.21 C40.98,34.31 46.14,30.32 51.34,30.56 C55.94,30.79 55.66,20.46 51.07,20 Z" opacity=".5"/>
      <path id="Path" fill="#CCC" fill-rule="nonzero" d="M23.67,34.44 C22.35,34.26 21.97,36.44 21.94,37.22 C21.89,38.27 22.38,41.3 22.09,41.57 C20.45,43.09 15.21,40.16 13.65,39.57 C10.49,38.46 8.5,42.01 8.09,44.57 C7.57,47.87 8.56,51.4 11.53,53.13 C14.4229035,54.7311067 17.6953736,55.5189876 21,55.41 C24.474378,55.1876269 27.488239,52.9311554 28.68,49.66 C30.54,45.09 30,35.36 23.67,34.44 Z" opacity=".5"/>
      <path id="Path" fill="#3D454C" fill-rule="nonzero" d="M51.91,26.23 C51.1842559,26.0745693 50.520121,25.709469 50,25.18 C49.8049642,25.0097276 49.6013661,24.8495192 49.39,24.7 C50.2541571,23.5951099 50.9299156,22.3550932 51.39,21.03 C51.9893964,19.1599845 53.0891153,17.4896567 54.57,16.2 C56.1005974,14.8935072 56.8141637,12.8672844 56.44,10.89 C56.2082715,9.47977709 55.2029699,8.3198137 53.84,7.89 C51.77,7.25 50.49,8.53 49.47,9.55 C48.906025,10.1923694 48.2279139,10.7246866 47.47,11.12 C46.3853739,11.5781739 45.2265937,11.8356806 44.05,11.88 C43.2383343,11.8653562 42.4363603,12.0581053 41.72,12.44 C41.1947268,11.7491742 40.9260479,10.8971791 40.96,10.03 C41.1767846,8.01894603 40.4361311,6.02288486 38.96,4.64 C38.090517,3.94380644 36.9285018,3.73321469 35.87,4.08 C33.99,4.67 33.72,6.35 33.53,7.57 C33.4954102,8.40829743 33.201958,9.215291 32.69,9.88 C32.2526522,10.3093537 31.7659184,10.6853136 31.24,11 C29.89,11.89 28.24,13 29.53,16.2 C30.82,19.4 30.75,19.83 29.53,22.2 C29.3006917,22.6945567 29.5097344,23.2816552 30,23.52 C30.4916536,23.7669243 31.0904244,23.570313 31.34,23.08 C32.88,20.08 32.88,19 31.4,15.41 C30.71,13.73 31.09,13.48 32.4,12.65 C33.0162097,12.2656701 33.5894797,11.816441 34.11,11.31 C34.9349529,10.3596627 35.4265929,9.1656797 35.51,7.91 C35.72,6.58 35.85,6.21 36.51,6.02 C36.9398533,5.87135919 37.4159513,5.9544874 37.77,6.24 C38.6820282,7.26575274 39.0954578,8.64141238 38.9,10 C38.8417444,11.3837337 39.2737922,12.7436218 40.12,13.84 C40.67,14.68 40.93,15.12 40.77,15.84 C40.5629077,16.5397371 40.1349158,17.1536599 39.55,17.59 C38.6583989,18.2598629 38.0772816,19.2632829 37.94,20.37 C37.83,21.84 37.11,22.88 36.11,24.32 L35.69,24.94 C35.4209956,25.3981016 35.5571371,25.9865841 36,26.28 C36.1655373,26.3912428 36.3605573,26.4504453 36.56,26.45 C36.8926261,26.4505011 37.2037296,26.2855788 37.39,26.01 L37.81,25.41 C38.9881703,24.0019788 39.7439421,22.2893582 39.99,20.47 C39.99,19.9 40.35,19.57 40.99,19 C41.8762316,18.2978597 42.5083914,17.325036 42.79,16.23 C42.9453902,15.5671928 42.9107306,14.8740011 42.69,14.23 C43.153235,13.9819581 43.675159,13.8644387 44.2,13.89 C45.5772719,13.8301534 46.9323872,13.5218646 48.2,12.98 C49.2150436,12.4990113 50.1230323,11.81887 50.87,10.98 C51.94,9.91 52.39,9.56 53.24,9.82 C53.894445,10.0471906 54.3709178,10.6158838 54.48,11.3 C54.6880521,12.5641244 54.221845,13.8452464 53.25,14.68 C51.5335445,16.1801126 50.246328,18.109212 49.52,20.27 C49.0427511,21.7604123 48.200565,23.1079102 47.07,24.19 C46.9482638,24.208145 46.8279636,24.2348783 46.71,24.27 C45.6144846,24.6508035 44.4296362,24.6926216 43.31,24.39 L42.51,24.25 C41.9577153,24.1643959 41.4406042,24.5427153 41.355,25.095 C41.2693959,25.6472847 41.6477153,26.1643959 42.2,26.25 C42.47,26.25 42.72,26.33 42.95,26.38 C44.394024,26.7379846 45.9103084,26.675529 47.32,26.2 C47.85,26.02 48.01,26.14 48.68,26.71 C49.479723,27.48208 50.4877496,28.0034731 51.58,28.21 C52.7341545,28.3431757 53.7702358,28.980201 54.41,29.95 C54.5704458,30.2700418 54.547562,30.6514387 54.35,30.95 C54.1,31.37 53.85,31.42 52.65,31.33 C51.5335631,31.1371061 50.3846731,31.3162907 49.38,31.84 C48.8359533,32.193522 48.3299279,32.6023637 47.87,33.06 C46.87,33.96 46.68,34.18 45.47,33.3 C44.0149106,32.0432009 42.0091447,31.6374978 40.18,32.23 L39.39,32.39 C39.1284746,32.4385168 38.8970539,32.5892255 38.7469222,32.808793 C38.5967906,33.0283605 38.5403199,33.2986931 38.59,33.56 C38.6385168,33.8215254 38.7892255,34.0529461 39.008793,34.2030778 C39.2283605,34.3532094 39.4986931,34.4096801 39.76,34.36 L40.61,34.18 C41.8825684,33.7082727 43.3125549,33.9989204 44.3,34.93 C44.9768099,35.4808286 45.8090403,35.8060279 46.68,35.86 C47.6789557,35.7685089 48.6002577,35.2826661 49.24,34.51 C49.5968339,34.1504958 49.9926082,33.8318639 50.42,33.56 C51.0689415,33.2691793 51.7917317,33.1853776 52.49,33.32 C53.61,33.41 55.14,33.53 56.07,31.97 C56.6080103,31.1028178 56.6682867,30.0216099 56.23,29.1 C55.3182491,27.5202178 53.7196755,26.4582024 51.91,26.23 Z"/>
      <path id="Path" fill="#3D454C" fill-rule="nonzero" d="M42.56,22.76 C43.3855106,21.6804856 44.4024039,20.761892 45.56,20.05 C47.0527768,19.0752648 48.3375351,17.8142983 49.34,16.34 C49.5311371,16.0381106 49.546699,15.6571828 49.3808236,15.3407085 C49.2149482,15.0242342 48.8928361,14.8202934 48.5358236,14.8057085 C48.1788111,14.7911236 47.8411371,14.9681106 47.65,15.27 C46.8109351,16.4984689 45.7369535,17.5486598 44.49,18.36 C43.1008755,19.2145503 41.8889014,20.3280727 40.92,21.64 C40.6259758,22.0871924 40.736162,22.6866058 41.17,23 C41.3355373,23.1112428 41.5305573,23.1704453 41.73,23.17 C42.0570773,23.1773327 42.3670581,23.0242097 42.56,22.76 Z"/>
      <path id="Shape" fill="#3D454C" fill-rule="nonzero" d="M47.23,30.37 C48.49,30.58 49.03,28.65 47.76,28.44 C43.38,27.7 37.02,27.88 33.76,31.44 C32.35,32.98 32.27,34.37 32.44,36.38 C32.59,38.07 33.32,39.62 33.21,41.38 C33.08,43.46 31.66,47.79 28.98,48.27 C29.5673931,47.2216487 29.9635674,46.0771453 30.15,44.89 C30.76,41 29,37 25.35,34.18 C22.8253598,32.2576658 19.6687763,31.3578252 16.51,31.66 C14.6619887,31.8362251 12.8944982,32.5024862 11.39,33.59 C12.3350974,29.8906873 15.5769258,27.2364403 19.39,27.04 C22.31,26.94 24.92,28.53 27.79,28.7 C30.7723462,29.0856055 33.5982874,27.2650066 34.48,24.39 C36.2272561,21.1389345 37.3275617,17.5799214 37.72,13.91 C37.7807513,13.3577153 37.3822847,12.8607514 36.83,12.8000001 C36.2777153,12.7392487 35.7807514,13.1377153 35.72,13.69 C35.3461322,17.0942433 34.3280324,20.3962802 32.72,23.42 C32.7157309,23.4699089 32.7157309,23.5200911 32.72,23.57 C32.72,23.57 32.72,23.62 32.67,23.66 C30.86,29.55 24.32,25.38 20.75,25.09 C18.8146783,24.9194146 16.8687013,25.264446 15.11,26.09 C11.4,27.86 9.51,31.33 9.11,35.29 C9.07294605,35.4241551 9.07294605,35.5658449 9.11,35.7 C8.87,35.99 8.65,36.27 8.44,36.58 C6.38662003,39.7392524 5.90686218,43.6695764 7.14,47.23 C7.70004309,49.059978 7.3263017,51.0482823 6.14,52.55 C5.95006615,52.7482324 5.84998397,53.015833 5.86322209,53.2900513 C5.87646022,53.5642697 6.00185422,53.8209853 6.21,54 C6.37924064,54.1710834 6.60935801,54.2681642 6.85,54.27 C7.17293937,54.2504754 7.47812807,54.1156246 7.71,53.89 L8.31,53.39 C9.07920261,52.8043073 10.0961355,52.656871 11,53 C14.9123456,54.5045321 19.2271081,54.5964861 23.2,53.26 C24.8739987,52.6371693 26.3658456,51.6059388 27.54,50.26 C31.54,50.96 34.32,46.4 34.97,42.89 C35.51,40.02 33.97,37.89 34.23,35.16 C34.72,29.83 43.53,29.74 47.23,30.37 Z M11.73,51.09 C11.1830911,50.8864573 10.6035338,50.7847806 10.02,50.79 C9.72853251,50.7884296 9.43746689,50.8118487 9.15,50.86 C9.51691556,49.4722405 9.4822374,48.0088222 9.05,46.64 C8.67545888,45.4628405 8.4832347,44.2353037 8.48,43 C9.26956298,43.0135539 10.0324901,43.2877857 10.65,43.78 C11.65,44.59 13.06,43.18 12.06,42.36 C11.1113593,41.5573647 9.9300173,41.0806213 8.69,41 C9.03803394,39.3087994 9.8600303,37.7515151 11.06,36.51 C11.9831909,36.5035167 12.8713402,36.8630913 13.53,37.51 C13.946975,37.8883151 14.5916849,37.856975 14.97,37.44 C15.3483151,37.023025 15.316975,36.3783151 14.9,36 C14.3683367,35.4967623 13.7385337,35.1086674 13.05,34.86 C14.1438783,34.1758116 15.3845667,33.7611064 16.67,33.65 C19.3040879,33.4084592 21.9356849,34.1374827 24.07,35.7 L24.07,35.7 C27.15,38.1 28.63,41.33 28.12,44.57 C27.8061494,46.5495108 26.7997094,48.3533063 25.28,49.66 L25.18,49.66 C23.7391837,49.6627533 22.3595825,49.0776868 21.36,48.04 C20.46,47.12 19.04,48.53 19.95,49.45 C20.7329629,50.2520776 21.691463,50.8614097 22.75,51.23 L22.51,51.33 C18.9971328,52.4996844 15.1873299,52.4148651 11.73,51.09 Z"/>
      <path id="Path" fill="#3D454C" fill-rule="nonzero" d="M18.7,44.49 C18.1477153,44.49 17.7,44.9377153 17.7,45.49 C17.7,46.0422847 18.1477153,46.49 18.7,46.49 C19.2522847,46.49 19.7,46.0422847 19.7,45.49 C19.7,44.9377153 19.2522847,44.49 18.7,44.49 Z"/>
    </g>
  </g>
</svg>
