<svg xmlns="http://www.w3.org/2000/svg" width="64" height="64" viewBox="0 0 64 64" style="background:#fff">
  <g id="Kokos" fill="none" fill-rule="evenodd" stroke="none" stroke-width="1">
    <rect width="64" height="64" fill="#FFF"/>
    <g transform="translate(2 6)">
      <rect id="Rectangle" width="60" height="60" x="0" y="0"/>
      <rect id="Rectangle" width="60" height="60" x="0" y="0"/>
      <path id="Path" fill="#C17953" fill-rule="nonzero" d="M47.25,25.49 C44.73,24.11 42.57,26.03 41.69,28.49 C40.5750785,31.1590881 38.1495479,33.0540338 35.29,33.49 C31.92,34.15 29.11,32.58 25.84,32.28 C22.57,31.98 19.18,33.38 16.19,31.56 C16.19,31.44 16.14,31.32 16.12,31.2 C15.74,28.2 13.02,24.7 9.75,25.95 C6.18,27.32 6.06,32.54 6.43,35.55 C7.81,46.58 17.16,56.89 29,55.58 C40.47,54.3 48.32,44.38 50.07,33.58 C50.48,30.87 49.84,26.92 47.25,25.49 Z" opacity=".5"/>
      <path id="Path" fill="#C17953" fill-rule="nonzero" d="M42,19.07 C36.67,15.9 28.71,14.07 22.64,16.4 C19.26,13.47 14.04,16.25 13.64,21.4 C13.58,22.17 13.75,23.47 14.77,23.52 C15.79,23.57 19.77,20.9 20.21,22.28 C20.4919148,23.2210712 21.3127306,23.8998227 22.29,24 C28.9,24.1 33.98,23.74 39.89,27.42 C44.35,30.2 45.6,21.22 42,19.07 Z" opacity=".5"/>
      <circle id="Oval" cx="16.96" cy="32.1" r="1" fill="#3D454C" fill-rule="nonzero"/>
      <path id="Shape" fill="#3D454C" fill-rule="nonzero" d="M47.91,26 C47.5703079,25.6381498 47.2024913,25.3037711 46.81,25 L46.27,24.57 C45.6102812,24.0794438 44.9761174,23.5554242 44.37,23 C43.54,22.19 42.81,21.48 42.21,21 C41.6586321,20.5024715 41.0472238,20.0758295 40.39,19.73 C39.3954499,19.2776315 38.35182,18.9420591 37.28,18.73 C37.17,18.73 36.98,18.67 35.79,18.51 L34.53,18.34 L35,16.75 L35,16.75 C35.0423491,16.7039034 35.0933058,16.6665352 35.15,16.64 L46.63,10.64 C47.1047607,10.3761603 47.2821157,9.78159797 47.0294827,9.30078029 C46.7768497,8.8199626 46.1866102,8.62871264 45.7,8.87 L34.28,14.87 C33.6818603,15.1031983 33.214688,15.5849697 33,16.19 L33,16.32 L32.67,17.54 C32.6109305,17.5064125 32.5467414,17.4827638 32.48,17.47 C31.81,17.31 31.48,17.24 30.79,17.12 C29.9670904,16.9574988 29.1358199,16.8406536 28.3,16.77 C27.5121119,16.688307 26.7178881,16.688307 25.93,16.77 C25.53,16.82 25.17,16.87 24.83,16.93 C24.49,16.99 24.15,17.06 23.89,17.12 L23.89,17.12 C23.6437293,16.8432389 23.36117,16.6010452 23.05,16.4 C22.4174075,15.9972791 21.689323,15.7695371 20.94,15.74 C20.314783,15.7266964 19.6911262,15.8076032 19.09,15.98 C18.5741746,16.1254099 18.0722193,16.3161529 17.59,16.55 C17.0064899,16.8479929 16.4420681,17.1819702 15.9,17.55 C15.26,17.97 14.51,18.49 13.74,19.06 C12.97,19.63 12.34,20.11 11.84,20.53 C11.3781456,20.8798676 10.9556671,21.2788752 10.58,21.72 C10.0893935,22.3355407 9.67317907,23.0068543 9.34,23.72 C8.16,26.35 7.51,32.13 7.7,34.52 C8.12934122,40.2456263 10.7428581,45.5872252 15,49.44 C18.6886461,52.8134183 23.5014259,54.6921849 28.5,54.71 C29.04,54.71 29.58,54.71 30.13,54.64 C40.35,53.81 47.4,45.12 48.98,31.4 C49.15,29.56 48.52,26.72 47.91,26 Z M46.91,31.15 C45.45,43.85 39.08,51.88 29.91,52.63 C24.9271827,53.0439213 19.9967113,51.3666191 16.3,48 C12.4246044,44.4880963 10.0533259,39.6165876 9.68,34.4 C9.51,32.31 10.12,26.86 11.14,24.58 C11.4076633,24.0021214 11.7433731,23.4582715 12.14,22.96 C12.4477315,22.6387938 12.7822751,22.3443954 13.14,22.08 C13.62,21.69 14.26,21.19 14.95,20.68 C15.64,20.17 16.41,19.68 17.02,19.24 C17.4855938,18.9304391 17.9698475,18.6499059 18.47,18.4 C18.8379632,18.2345647 19.2193396,18.1007484 19.61,18 C19.9709533,17.8949437 20.3441497,17.8377875 20.72,17.83 L20.84,17.83 C21.5834126,17.8466082 22.2649117,18.2479355 22.64,18.89 C22.8920842,19.3000791 23.4005565,19.4723714 23.85,19.3 C24.0205131,19.2378984 24.1940699,19.1844963 24.37,19.14 L25.16,18.98 L26.16,18.83 C26.8083009,18.7635349 27.4616991,18.7635349 28.11,18.83 C28.79,18.89 29.53,18.99 30.39,19.15 C31.02,19.27 31.39,19.34 32,19.49 L32.12,19.49 L31.72,21 L31.61,21 C27.68,20.06 25.38,20.18 24.22,21.38 C23.68,21.66 23.34,21.52 22.42,20.91 L21.91,20.58 C21.77,20.49 21.63,20.41 21.53,20.33 L21.48,20.33 L21.23,20.16 L21.11,20 C20.2,19.55 18.85,20 16.58,21.51 C12.8,24.04 11.58,27.1 13.22,29.91 C13.4000643,30.2136995 13.7269327,30.3999384 14.08,30.4 C14.2585582,30.4029827 14.4346576,30.3580947 14.59,30.27 C15.0648931,29.988281 15.2215765,29.3749776 14.94,28.9 C13.59,26.59 15.69,24.51 17.69,23.18 C18.4557598,22.5714742 19.3317847,22.1164845 20.27,21.84 C20.4623998,21.9813345 20.6627271,22.1115472 20.87,22.23 L21.31,22.52 C22.31,23.16 23.6,24.05 25.38,22.97 C25.475044,22.9111553 25.5595489,22.8367911 25.63,22.75 C25.82,22.52 26.78,21.86 31.15,22.89 L31.15,22.89 L28.8,31.44 C28.7295164,31.6959398 28.7636928,31.9694024 28.8949974,32.2001234 C29.0263021,32.4308445 29.2439583,32.5998876 29.5,32.67 C29.5894112,32.6845589 29.6805888,32.6845589 29.77,32.67 C30.2348688,32.6859235 30.6493359,32.3792179 30.77,31.93 L33.06,23.62 L35,24 L36.43,24.24 C36.9571967,24.3237259 37.4714225,24.4749687 37.96,24.69 C38.7041615,25.1861671 39.3770498,25.7816733 39.96,26.46 L40.43,26.91 C40.9607537,27.4228403 41.5517332,27.8694327 42.19,28.24 L42.76,28.6 L42.66,29.04 L42.66,29.18 L42.66,29.18 C42.55,29.66 42.38,30.37 42.19,31.05 L42.06,31 C41.71,30.86 41.29,30.69 40.85,30.55 C38.76,29.87 37.96,30.16 37.26,31.82 C37.2,31.97 37.14,32.13 37.06,32.31 C36.89,32.66 36.72,33.02 36.55,33.31 C36.38,33.6 36.22,33.95 36.05,34.24 C35.88,34.53 35.73,34.75 35.59,35.01 L35.59,35.01 C34.4945064,35.1365044 33.4063603,35.3200873 32.33,35.56 L30.84,35.85 C30.5379512,35.0144799 29.9994125,34.2848468 29.29,33.75 C26.1,31.28 24.84,31.54 23.29,32.21 C22.4529035,32.6435405 21.489583,32.7674972 20.57,32.56 C20.0177153,32.4633502 19.4916499,32.8327153 19.3950001,33.385 C19.2983502,33.9372847 19.6677153,34.4633501 20.22,34.56 C21.5242699,34.8330763 22.8823341,34.6641978 24.08,34.08 C25.02,33.68 25.59,33.43 28.08,35.36 C28.5107911,35.6821102 28.8319996,36.129009 29,36.64 C29.287217,37.3860729 29.9911357,37.8894338 30.79,37.92 C30.9313738,37.9182256 31.0721609,37.9014652 31.21,37.87 L32.75,37.57 C33.7400846,37.3460917 34.7415444,37.1758436 35.75,37.06 L35.83,37.06 C36.3993702,37.0130227 36.9155669,36.7069917 37.23,36.23 C37.43,35.94 37.63,35.64 37.82,35.32 C38.01,35 38.2,34.64 38.39,34.32 L38.93,33.19 C39.02,32.99 39.09,32.81 39.16,32.64 C39.23,32.47 39.28,32.36 39.33,32.26 C39.6706964,32.3054163 40.0058017,32.3858416 40.33,32.5 C40.72,32.63 41.1,32.78 41.43,32.91 L41.66,33.01 C42.6401023,33.3875607 43.7421943,32.9120613 44.14,31.94 C44.1710379,31.865893 44.1944909,31.7888332 44.21,31.71 C44.42,31.03 44.6,30.26 44.73,29.71 C44.73,29.71 44.82,29.29 44.85,29.17 C44.9876602,28.673301 44.9153562,28.1418668 44.65,27.7 C44.3353388,27.2352488 43.9089533,26.8570037 43.41,26.6 C42.8975211,26.3062951 42.4209797,25.9539229 41.99,25.55 L41.43,25 C40.7055219,24.1758896 39.8590303,23.4676694 38.92,22.9 C38.2869198,22.5953654 37.6133818,22.3832009 36.92,22.27 L35.37,22 L33.59,21.7 L34,20.22 L35.52,20.42 L36.81,20.6 C37.7281374,20.7763513 38.623694,21.0547453 39.48,21.43 C39.9961248,21.698 40.4737604,22.0343631 40.9,22.43 C41.41,22.87 42.02,23.43 42.97,24.43 C43.6168319,25.0345054 44.2943978,25.6052629 45,26.14 L45.52,26.56 C45.8052506,26.7786809 46.0758328,27.0158578 46.33,27.27 C46.8323488,28.5063628 47.0609232,29.83687 47,31.17 L46.91,31.15 Z"/>
    </g>
  </g>
</svg>
