<svg xmlns="http://www.w3.org/2000/svg" width="64" height="64" viewBox="0 0 64 64" style="background:#fff">
  <g id="Kokosraspel" fill="none" fill-rule="evenodd" stroke="none" stroke-width="1">
    <rect width="64" height="64" fill="#FFF"/>
    <g transform="translate(2 4)">
      <rect id="Rectangle" width="60" height="60" x="0" y="0"/>
      <path id="Path" fill="#C17953" fill-rule="nonzero" d="M24.87,12.32 C23.5,14.83 22.96,17.32 20.34,18.87 C17.6451077,20.3914227 14.3711818,20.4775787 11.6,19.1 C5,15.53 9.67,8.94 12.69,4.66 C12.86,4.41 12.85,3.76 12.49,3.66 C7.91,2.4 5,5.67 3.47,10 C1.74326945,15.2606713 2.85907735,21.040178 6.42,25.28 C15.1,35.83 29.8,27.8 30.35,15.6 C30.47,12.86 26.94,8.53 24.87,12.32 Z" opacity=".5"/>
      <g id="Group" fill="#CCC" fill-rule="nonzero" opacity=".5" transform="translate(7 27)">
        <path id="Path" d="M45.3,17.69 C42.3481016,12.5514277 38.8585092,7.74108663 34.89,3.34 C31.16,-0.82 27,-0.56 22,2 C15.85,5.19 8.74,10 5,16 L4.87,16.06 C1.73,17.78 0.59,21.06 0.92,24.31 C1.17,26.72 2.67,31.17 6.19,30.94 C17.97,30.15 29.75,30.19 41.55,29.94 C47.76,29.81 47.26,21.11 45.3,17.69 Z"/>
      </g>
      <path id="Path" fill="#3D454C" fill-rule="nonzero" d="M17.77,20.07 C17.3128316,20.3792833 17.1927035,21.0004853 17.5016058,21.4579113 C17.810508,21.9153373 18.4316097,22.035983 18.8892929,21.7274621 C19.3469762,21.4189412 19.4681394,20.7979402 19.16,20.34 C19.0116972,20.1196003 18.7817933,19.9672668 18.5210177,19.9166125 C18.2602421,19.8659583 17.9900282,19.9211466 17.77,20.07 L17.77,20.07 Z"/>
      <path id="Path" fill="#3D454C" fill-rule="nonzero" d="M16.58,18.87 C16.827471,18.7702232 17.0248032,18.5756828 17.1280958,18.3296585 C17.2313884,18.0836343 17.232074,17.8065323 17.13,17.56 C16.75,16.64 15.87,16.04 14.13,15.56 C13.6161207,15.3973129 13.0702131,15.3629791 12.54,15.46 L12.3,14.87 C12.06,14.27 11.81,13.66 11.52,13.1 L11.7,12.72 C11.79,12.53 11.91,12.33 12.02,12.13 L12.42,11.48 L12.61,11.2 C13.4,10.05 13.22,9.31 11.95,8.34 L11.49,8 C11.69,7.78 11.89,7.56 12.08,7.37 L12.22,7.22 L12.4,7.3 C12.8633215,7.50817963 13.3502233,7.65928712 13.85,7.75 L14.26,7.82 C14.8035852,7.8751719 15.3379038,7.9995102 15.85,8.19 C16.1141901,8.34695356 16.35349,8.54243797 16.56,8.77 C16.63,8.83 16.89,9.1 17.19,9.42 C17.86,10.11 18.35,10.61 18.53,10.77 C18.7044947,10.9241304 18.9273006,11.0125454 19.16,11.02 L19.16,11.02 C21.16,12.82 21.08,13.46 21.08,13.47 C21.0472336,13.5769513 21.0303864,13.6881427 21.03,13.8 C21.0746684,14.9365241 21.8867246,15.8969763 23,16.13 L23.3,16.25 L23.57,16.36 C23.6674435,16.867152 23.7010379,17.384505 23.67,17.9 C23.67,19.32 23.29,21.03 21.76,21.17 C21.2077153,21.1920914 20.7779086,21.6577153 20.8,22.21 C20.8220914,22.7622847 21.2877153,23.1920914 21.84,23.17 L21.93,23.17 C24.25,22.96 25.61,21.06 25.67,17.95 C25.67,16.01 25.43,15.05 24.67,14.64 L24.55,14.58 L24.37,14.52 L24.37,14.52 L24.15,14.43 L23.78,14.28 C23.26,14.09 23.16,14.03 23.13,13.9 C23.44,12.38 21.95,10.8 20.59,9.57 C20.4114782,9.41731128 20.1849008,9.33234474 19.95,9.33 L19.95,9.33 C19.72,9.15 19,8.44 18.63,8 C18.26,7.56 18,7.34 17.93,7.28 C17.5897257,6.92455483 17.198846,6.62128611 16.77,6.38 C16.078992,6.08512845 15.3474053,5.89633188 14.6,5.82 L14.19,5.75 C13.8443277,5.68168116 13.5084408,5.57083849 13.19,5.42 C12.8200263,5.24061087 12.4105832,5.15803411 12,5.18 C11.5732349,5.20645914 11.1742369,5.40056628 10.89,5.72 L10.72,5.9 L10.63,6 L10.63,6 C10.35,6.28 9.98,6.67 9.74,7 C9.67804889,7.06198817 9.62119794,7.12887164 9.57,7.2 C9.32993096,7.54323633 9.23307793,7.96651994 9.3,8.38 C9.37949833,8.78998152 9.62107067,9.15053725 9.97,9.38 L10.14,9.48 L10.7,9.87 L10.9,10.04 C10.84,10.13 10.77,10.23 10.7,10.35 C10.63,10.47 10.4,10.82 10.26,11.06 C10.12,11.3 9.98,11.54 9.87,11.77 C9.76602055,11.9668539 9.67580455,12.1706752 9.6,12.38 C9.3753181,12.8266703 9.3753181,13.3533297 9.6,13.8 L9.6,13.8 C9.87,14.31 10.11,14.92 10.35,15.51 L10.7,16.35 C10.9711461,17.1418171 11.8157613,17.5817208 12.62,17.35 C12.8934972,17.2646587 13.1865028,17.2646587 13.46,17.35 C14.19,17.57 15.08,17.9 15.22,18.25 C15.3747874,18.6267941 15.7426565,18.8720401 16.15,18.87 C16.2916375,18.9011813 16.4383625,18.9011813 16.58,18.87 Z"/>
      <path id="Shape" fill="#3D454C" fill-rule="nonzero" d="M22.89 27.19C25.002492 25.8701985 26.8562282 24.1757414 28.36 22.19 28.6476773 21.7115483 28.8792073 21.2015111 29.05 20.67 29.1652872 20.2762236 29.2324431 19.8699302 29.25 19.46 29.3 19.02 29.33 18.46 29.36 17.85 29.39 17.24 29.36 16.6 29.36 16.07 29.3584029 15.6185557 29.3283433 15.1676612 29.27 14.72 29.2142833 14.3359575 29.1239145 13.9577474 29 13.59 28.8654315 13.1604988 28.6628598 12.7553555 28.4 12.39 28.0660093 11.9484435 27.6208739 11.6033773 27.11 11.39 26.9198294 11.3104711 26.7221782 11.2501707 26.52 11.21 26.47 11.08 26.41 10.93 26.33 10.77 26.25 10.61 26.13 10.33 26 10.09 25.7515883 9.59834494 25.4497677 9.13555335 25.1 8.71 24.78 8.31 24.4 7.9 23.96 7.44 23.52 6.98 23.46 6.95 23.12 6.63 22.9355769 6.45733478 22.6926349 6.36087248 22.44 6.36L22.44 6.36 22.39 6.3C22.26 6.18 21.79 5.64 21.39 5.19 20.99 4.74 20.72 4.45 20.67 4.41 20.1437576 3.87324313 19.5564175 3.40001479 18.92 3 18.4613811 2.75475008 17.9744118 2.56667918 17.47 2.44 16.98 2.31 16.37 2.17 15.47 2 14.9160332 1.87800041 14.3686544 1.72780502 13.83 1.55L13.46 1.43C13.1332864 1.32457413 12.7989744 1.24433924 12.46 1.19 11.1395729 1.32891742 9.88840776 1.85023624 8.86 2.69 1.75 8.8-.45 16.09 3 22.19 5.5372434 26.5858884 10.2549702 29.264241 15.33 29.19 17.9802268 29.1858252 20.5844065 28.4968887 22.89 27.19zM4.73 21.19C1.8 16 3.83 9.65 10.16 4.21 10.8039583 3.73856769 11.5345624 3.39875181 12.31 3.21 12.5177567 3.24476173 12.7219281 3.2983149 12.92 3.37L13.35 3.5C13.9278113 3.69639461 14.5152366 3.86327681 15.11 4 15.91 4.16 16.49 4.28 16.95 4.41 17.2988441 4.49132065 17.6351846 4.61913004 17.95 4.79 18.4423876 5.10172518 18.8985317 5.46731125 19.31 5.88L19.9 6.54C20.66 7.39 20.9 7.69 21.05 7.8 21.2323042 7.96077773 21.4669276 8.04965022 21.71 8.05L21.71 8.05 21.77 8.11C22.09 8.41 22.25 8.56 22.54 8.86 22.83 9.16 23.27 9.64 23.54 9.98 23.7963031 10.292187 24.0238938 10.6268792 24.22 10.98 24.33 11.19 24.42 11.39 24.51 11.59 24.5816238 11.7397763 24.6450508 11.8933363 24.7 12.05 24.7378348 12.1508959 24.767922 12.2545296 24.79 12.36 24.8947542 12.8251526 25.3133401 13.1516496 25.79 13.14 25.9639951 13.1242303 26.1391904 13.1517119 26.3 13.22 26.4851411 13.3023098 26.644222 13.4337244 26.76 13.6 26.8981624 13.7996858 27.0059983 14.0187274 27.08 14.25 27.1572395 14.5023289 27.2173759 14.7595792 27.26 15.02 27.3100828 15.3744118 27.333482 15.732084 27.33 16.09 27.33 16.59 27.33 17.17 27.33 17.75 27.33 18.33 27.27 18.84 27.23 19.25 27.2186393 19.5129451 27.1818001 19.7741682 27.12 20.03 26.9990527 20.4077652 26.8346166 20.7701959 26.63 21.11 25.3076118 22.8278523 23.6970321 24.3030892 21.87 25.47 15.72 28.93 8 27 4.73 21.21L4.73 21.19zM52.79 55.84L51.79 55.84C51.49 50.3 48.51 40.26 33.6 29.17 31.3471641 27.5289595 28.2928359 27.5289595 26.04 29.17 11.1 40.26 8.12 50.3 7.82 55.84L6.82 55.84C6.26771525 55.84 5.82 56.2877153 5.82 56.84 5.82 57.3922847 6.26771525 57.84 6.82 57.84L52.82 57.84C53.3722847 57.84 53.82 57.3922847 53.82 56.84 53.82 56.2877153 53.3722847 55.84 52.82 55.84L52.79 55.84zM9.79 55.84C10.45 44.43 22.09 34.56 27.17 30.77 28.7116144 29.6507818 30.7983856 29.6507818 32.34 30.77 37.43 34.56 49.07 44.43 49.73 55.84L9.79 55.84z"/>
      <circle id="Oval" cx="18.77" cy="51.18" r="1" fill="#3D454C" fill-rule="nonzero"/>
      <circle id="Oval" cx="26.69" cy="38.8" r="1" fill="#3D454C" fill-rule="nonzero"/>
      <circle id="Oval" cx="43.81" cy="50.24" r="1" fill="#3D454C" fill-rule="nonzero"/>
      <path id="Path" fill="#3D454C" fill-rule="nonzero" d="M35.69 38.6L34.15 40.87C33.42 41.94 35.15 42.94 35.87 41.87L37.41 39.6C38.14 38.54 36.41 37.54 35.69 38.6zM21.82 42.19C21.686372 41.9602558 21.4667828 41.7931582 21.2097298 41.7256114 20.9526768 41.6580647 20.6793087 41.6956261 20.45 41.83 20.2202558 41.963628 20.0531582 42.1832172 19.9856114 42.4402702 19.9180647 42.6973232 19.9556261 42.9706913 20.09 43.2 20.56 43.89 21.03 44.58 21.51 45.26 21.6672029 45.6078371 22.0087108 45.8358412 22.3902382 45.8476816 22.7717657 45.8595219 23.1267546 45.653133 23.3052238 45.3157132 23.4836931 44.9782934 23.4545083 44.5687061 23.23 44.26L21.82 42.19zM33.21 49.37C32.7 50.12 32.21 50.88 31.67 51.63 30.95 52.7 32.67 53.7 33.4 52.63L34.94 50.37C35.66 49.31 33.93 48.31 33.21 49.37zM40.05 25.68C40.6022847 25.68 41.05 25.2322847 41.05 24.68 41.05 24.1277153 40.6022847 23.68 40.05 23.68 39.4977153 23.68 39.05 24.1277153 39.05 24.68 39.05 25.2322847 39.4977153 25.68 40.05 25.68zM46.14 21.6C46.427496 22.0522526 47.0203968 22.1974802 47.4843602 21.9292932 47.9483237 21.6611063 48.1184017 21.0748504 47.87 20.6 47.54 20.06 47.21 19.52 46.87 18.97 46.582504 18.5177474 45.9896032 18.3725198 45.5256398 18.6407068 45.0616763 18.9088937 44.8915983 19.4951496 45.14 19.97L46.14 21.6zM46.51 32.33C46.1178779 32.7193608 46.1156393 33.3528778 46.505 33.745 46.8943608 34.1371221 47.5278778 34.1393607 47.92 33.75L49.23 32.66C49.6177236 32.2699625 49.6177236 31.6400375 49.23 31.25 49.0422334 31.0606873 48.7866375 30.9542017 48.52 30.9542017 48.2533625 30.9542017 47.9977666 31.0606873 47.81 31.25L46.51 32.33z"/>
    </g>
  </g>
</svg>
