<svg xmlns="http://www.w3.org/2000/svg" width="64" height="64" viewBox="0 0 64 64" style="background:#fff">
  <g id="Kokoswasser" fill="none" fill-rule="evenodd" stroke="none" stroke-width="1">
    <rect width="64" height="64" fill="#FFF"/>
    <g transform="translate(2 3)">
      <g id="Layer_2">
        <rect id="Rectangle" width="60" height="60" x="0" y=".09"/>
      </g>
      <g id="Layer_1" fill-rule="nonzero" transform="translate(6 1)">
        <path id="Shape" fill="#C17953" d="M28.5,38.08 C28.35,34.08 26.73,30.26 22.5,28.81 C16.93,26.91 8.73,29.63 4.57,34.06 C1.48,31.64 0.1,38.17 0.32,40.06 C1.1,47 5.35,54.27 12.73,55.49 C19.52,56.62 24.57,52.18 26.97,46.35 C27.07,46.31 30,40.4 28.5,38.08 Z M20.28,33.13 C22.485274,33.400354 24.1747018,35.2207125 24.28,37.44 C21.28,38.83 17.54,41.2 14.51,41.57 C11.73,41.91 9.07,39.05 6.91,36.57 C9.09846172,35.5924191 11.338431,34.7344875 13.62,34 C15.49,33.44 18.28,32.74 20.28,33.13 L20.28,33.13 Z" opacity=".5"/>
        <path id="Path" fill="#3D454C" d="M23,40.06 L22.79,39.9 C22.6385672,39.8101234 22.4660862,39.7618287 22.29,39.76 L22.16,39.76 C22.0280651,39.7601021 21.8979653,39.7909152 21.78,39.85 C21.537493,39.9455448 21.3455448,40.137493 21.25,40.38 C21.1909152,40.4979653 21.1601021,40.6280651 21.16,40.76 C21.1648441,40.8499348 21.1648441,40.9400652 21.16,41.03 C21.2043669,41.1978644 21.2943601,41.3501605 21.42,41.47 L21.62,41.63 C21.7724029,41.7163804 21.9448236,41.7612098 22.12,41.76 L22.25,41.76 C22.515803,41.7615368 22.7712812,41.6571865 22.96,41.47 C23.050352,41.3801042 23.1187872,41.2706078 23.16,41.15 C23.2296456,41.0324498 23.261092,40.896182 23.25,40.76 C23.2548185,40.6734003 23.2548185,40.5865997 23.25,40.5 C23.2094367,40.3328469 23.1228263,40.1804127 23,40.06 Z"/>
        <path id="Shape" fill="#3D454C" d="M30.11,34.94 C29.9387945,34.4086484 29.7072854,33.8986574 29.42,33.42 C29.2017744,33.0560907 28.9398267,32.7202604 28.64,32.42 C28.34,32.1 27.93,31.7 27.49,31.28 C27.05,30.86 26.57,30.44 26.16,30.1 C25.8250544,29.8024462 25.4672911,29.531616 25.09,29.29 C24.7725822,29.0876398 24.4379555,28.9136339 24.09,28.77 C23.677426,28.5902403 23.2383598,28.4787851 22.79,28.44 C22.2304652,28.3881152 21.6673037,28.4883096 21.16,28.73 C20.9752554,28.8208938 20.8009043,28.9315396 20.64,29.06 L20.19,29 L19.46,28.8 C18.9253638,28.6724873 18.3793108,28.5987869 17.83,28.58 C17.2570301,28.5511305 16.6829699,28.5511305 16.11,28.58 L15.11,28.65 L15.04,28.17 C15.04,28.17 15.04,28.09 15.04,28.06 C14.9614766,27.570298 14.6777128,27.1373762 14.26,26.87 L7.15,21.94 C6.70088551,21.6691997 6.11886382,21.7913614 5.81653168,22.2198843 C5.51419953,22.6484073 5.59427833,23.2376951 6,23.57 L13.07,28.48 L13.15,29.03 L12.7,29.03 L11.7,29.03 C10.9500579,29.0815424 10.208525,29.2191118 9.49,29.44 C9.00433267,29.6244904 8.54399977,29.8697773 8.12,30.17 C7.7,30.45 7.19,30.83 6.5,31.36 C6.04,31.71 5.5,32.01 5.14,32.26 L4.74,32.51 C4.44205285,32.6884499 4.15792127,32.8890134 3.89,33.11 C3.12549898,34.2032666 2.69790192,35.496487 2.66,36.83 C2.59,46.21 6.66,52.65 13.51,54.07 C14.404628,54.256605 15.3161179,54.3504348 16.23,54.3500015 C23.1768778,54.1784234 29.0603784,49.1782813 30.35,42.35 C30.7223665,39.886021 30.6410288,37.3747192 30.11,34.94 Z M28.36,41.94 C26.92,48.94 20.43,53.47 13.88,52.11 C8.03,50.9 4.57,45.2 4.63,36.85 C4.68399273,36.048903 4.89822338,35.266791 5.26,34.55 C5.42432926,34.4204832 5.59815118,34.3034877 5.78,34.2 L6.15,33.97 C6.67911835,33.6668761 7.18999616,33.3329691 7.68,32.97 C8.33,32.47 8.8,32.11 9.2,31.85 C9.48965294,31.6421906 9.80578608,31.4740347 10.14,31.35 C10.7002917,31.1841624 11.277066,31.0802089 11.86,31.04 L12.72,31.04 L13.47,31.04 L13.75,33 L13,33 L12,33 C11.5115503,33.0249061 11.0295629,33.1226518 10.57,33.29 C9.89042344,33.6092475 9.26595456,34.0345615 8.72,34.55 L8.39,34.82 C8.11001543,35.0394455 7.8044515,35.224127 7.48,35.37 C7.08968567,35.5188798 6.74499098,35.76706 6.48,36.09 C6.21873441,36.4280347 6.10351179,36.8565189 6.16,37.28 L6.16,37.5 C6.16,37.55 6.16,37.59 6.16,37.64 L6.16,37.64 C6.16,38.02 6.25,38.55 6.32,39 C6.3161003,39.0732815 6.3161003,39.1467185 6.32,39.22 C6.41844775,39.6410082 6.68616023,40.0027819 7.06,40.22 C7.42038988,40.4385991 7.85689002,40.4931617 8.26,40.37 L8.41,40.37 L9.11,40.19 L9.37,40.14 L9.47,40.51 C9.55,40.78 9.63,41.04 9.72,41.31 L9.99,42.06 C10.09,42.29 10.19,42.52 10.27,42.67 C10.4688906,43.1287059 10.8731528,43.4662091 11.36,43.58 L11.42,43.58 C11.98,43.72 12.6,43.93 13.2,44.14 L14.07,44.43 C14.2570086,44.5079322 14.457407,44.5486912 14.66,44.55 C15.2713828,44.5448032 15.8263537,44.1916399 16.09,43.64 C16.2054039,43.3792117 16.3971745,43.1595472 16.64,43.01 C17.91,42.21 18.11,42.23 18.41,42.26 C18.9622847,42.3069442 19.4480558,41.8972847 19.495,41.345 C19.5419442,40.7927153 19.1322847,40.3069442 18.58,40.26 C17.72,40.19 17.13,40.34 15.58,41.32 C15.1266692,41.6046127 14.7464728,41.9916595 14.47,42.45 L13.86,42.25 C13.26,42.04 12.64,41.82 12.02,41.67 C11.96,41.55 11.91,41.42 11.86,41.29 C11.81,41.16 11.7,40.88 11.62,40.66 C11.54,40.44 11.47,40.17 11.39,39.93 C11.31,39.69 11.33,39.7 11.31,39.6 C10.96,38.26 10.31,37.89 8.71,38.22 L8.21,38.34 C8.21,38.05 8.15,37.75 8.13,37.49 L8.13,37.28 L8.31,37.19 C8.76597319,36.9774075 9.19555112,36.7122774 9.59,36.4 L9.93,36.12 C10.3218341,35.7484866 10.7625737,35.4322306 11.24,35.18 C11.5308647,35.0841385 11.8339177,35.0302624 12.14,35.02 L13.03,35.02 L14,35 L14.56,38.81 C14.6347694,39.3030381 15.0613566,39.6656372 15.56,39.66 L15.71,39.66 C16.2526636,39.5776883 16.6275603,39.0733631 16.55,38.53 L16,34.53 C18.39,34.28 18.81,34.71 18.81,34.72 C18.8609621,34.8211549 18.9248281,34.9152732 19,35 C19.8731015,35.6913099 21.0999554,35.7158469 22,35.06 L22.31,34.9 L22.55,34.78 C22.9969795,35.0372066 23.4073262,35.3533754 23.77,35.72 C24.82,36.72 25.88,38.06 24.98,39.3 C24.7575684,39.6043905 24.725231,40.0080068 24.8963613,40.3439292 C25.0674915,40.6798515 25.4130007,40.8909799 25.79,40.89 C26.1100539,40.8908303 26.4111686,40.7384142 26.6,40.48 C27.96,38.6 27.42,36.32 25.12,34.23 C23.68,32.93 22.78,32.52 21.95,32.83 L21.84,32.88 L21.69,32.96 L21.63,32.96 L21.42,33.07 L21.06,33.25 C20.58,33.51 20.46,33.55 20.35,33.49 C19.45,32.31 17.42,32.34 15.66,32.49 L15.38,30.56 L16.19,30.5 C16.76,30.5 17.25,30.5 17.69,30.5 C18.1330001,30.5150496 18.5726903,30.5821779 19,30.7 L19.65,30.88 C19.81422,30.9197217 19.9747909,30.9732454 20.13,31.04 C20.230815,31.0734128 20.3279793,31.1169692 20.42,31.17 C20.8474014,31.4008735 21.3788994,31.2911993 21.68,30.91 C21.785682,30.7702232 21.9226872,30.657194 22.08,30.58 C22.2618488,30.4872245 22.4677364,30.4523283 22.67,30.48 C22.9103907,30.5081164 23.145865,30.5686669 23.37,30.66 C23.5863039,30.7612425 23.7966467,30.8747608 24,31 C24.2986263,31.1922265 24.5827245,31.4061357 24.85,31.64 C25.23,31.96 25.67,32.36 26.09,32.75 C26.51,33.14 26.88,33.51 27.16,33.81 C27.3452685,33.9965028 27.5157807,34.1971053 27.67,34.41 C27.8823193,34.7457009 28.0472133,35.1091408 28.16,35.49 C28.6065482,37.6316431 28.6742392,39.834984 28.36,42 L28.36,41.94 Z"/>
        <path id="Path" fill="#B3B3B3" d="M38.62.62C37.4062627.370309584 36.1599991.319648463 34.93.47 33.7427575.363563915 32.5464404.510121285 31.42.9 30.42 1.32 30.6 4.33 31.26 5.1 33.11 7.26 36.5 8.23 38.72 7 40.07 6.29 40.11 1.1 38.62.62zM43.47 35C43.24 34.33 43.05 33.65 42.87 33 43.05 33.38 43.27 32.88 43.51 31.51 47.05 23.43 41.2 7.16 31.32 13.81 31.08 13.68 30.83 13.81 30.57 13.65 27.05 12.21 26.36 17.91 26.38 20.32 26.38 21.15 26.19 22.51 26.25 23.32 28.49 28.43 31.58 32.76 32.45 38.32 33.06 42.23 31.64 45.23 29.98 48.32 29.19 50.13 27.19 51.32 27.54 54.37 30.62 58.19 36.03 59.59 40.59 55.25 43.73 52.25 44.95 47.49 44.95 43.25 44.8665383 40.442028 44.3677976 37.6618851 43.47 35L43.47 35z" opacity=".5"/>
        <path id="Shape" fill="#3D454C" d="M45.11,22.24 L45.11,16.4 C45.1074395,15.0111671 44.5407858,13.6829596 43.54,12.72 L43.46,12.65 L39.62,9.65 L39.62,7.87 C40.2574304,7.63228328 40.6933145,7.03932386 40.73,6.36 L40.73,2.92 C40.73,2.92 40.73,2.92 40.73,2.85 C40.73,2.78 40.73,2.77 40.73,2.73 C40.73,0.58 36.39,0.48 35.52,0.48 C34.65,0.48 30.31,0.58 30.31,2.73 L30.31,6.36 C30.3466855,7.03932386 30.7825696,7.63228328 31.42,7.87 L31.42,9.65 L27.57,12.65 L27.5,12.72 C26.4992142,13.6829596 25.9325605,15.0111671 25.9299559,16.4 L25.9299559,22.24 C25.9259087,23.4579329 26.2067202,24.659943 26.75,25.75 C27.3592533,26.9577247 27.7615063,28.2591315 27.94,29.6 C28.0056679,30.100992 28.4347407,30.4742854 28.94,30.47 L29.07,30.47 C29.3342122,30.4375654 29.5745886,30.3011263 29.7378869,30.0909032 C29.9011851,29.8806801 29.9739268,29.6140247 29.94,29.35 C29.7963938,28.282268 29.5278881,27.2350956 29.14,26.23 C29.922397,26.465783 30.7212753,26.6429401 31.53,26.76 L31.68,26.76 C32.2322847,26.8014213 32.7135786,26.3872847 32.755,25.835 C32.7964213,25.2827153 32.3822847,24.8014214 31.83,24.76 C30.5003707,24.6593377 29.2143364,24.2409479 28.08,23.54 C27.9879201,23.1060081 27.9410035,22.6636516 27.94,22.22 L27.94,17.46 C29.94,18.46 33.25,18.78 35.53,18.78 C37.81,18.78 41.12,18.46 43.12,17.46 L43.12,22.24 C43.1255774,22.6829589 43.0853638,23.1253085 43,23.56 C41.959628,24.2269308 40.7716248,24.6286544 39.54,24.73 C38.9877153,24.7741828 38.5758173,25.2577153 38.6200001,25.81 C38.6641828,26.3622847 39.1477153,26.7741827 39.7,26.73 L39.87,26.73 C40.565418,26.6145185 41.2533114,26.4575719 41.93,26.26 C40.571227,29.5469392 40.777201,33.2728614 42.49,36.39 C42.6590487,36.7091193 42.7963734,37.0440577 42.9,37.39 C42.1,38.01 39.48,38.8 35.55,38.8 C34.76,38.8 33.98,38.8 33.22,38.7 C32.6677153,38.6530558 32.1819442,39.0627153 32.135,39.615 C32.0880558,40.1672847 32.4977153,40.6530558 33.05,40.7 C33.86,40.77 34.7,40.81 35.55,40.81 C38.136493,40.8801277 40.7125972,40.4558682 43.14,39.56 L43.14,54.36 C42.79,54.87 41.14,56.51 35.57,56.51 C29.73,56.51 28.22,54.69 27.98,54.31 L27.98,52.39 C27.98,51.8377153 27.5322847,51.39 26.98,51.39 C26.4277153,51.39 25.98,51.8377153 25.98,52.39 L25.98,54.28 C25.9741458,54.6812432 26.0891277,55.074969 26.31,55.41 C27.08,56.56 29.31,58.48 35.57,58.48 C41.83,58.48 43.98,56.61 44.77,55.48 C45.0302226,55.1270808 45.1672524,54.6984235 45.16,54.26 L45.16,39.07 C45.1767572,37.7868789 44.867059,36.5205574 44.26,35.39 C42.6616089,32.3682222 42.6916785,28.7448341 44.34,25.75 C44.8660015,24.6557547 45.1296461,23.4539458 45.11,22.24 Z M32.31,6.09 L32.31,4.58 C33.3591733,4.84645806 34.4375196,4.98083142 35.52,4.98 C36.6024804,4.98083142 37.6808267,4.84645806 38.73,4.58 L38.73,6.09 C37.7085745,6.48751134 36.6146833,6.66471489 35.52,6.61 C34.4253167,6.66471489 33.3314255,6.48751134 32.31,6.09 L32.31,6.09 Z M35.52,2.48 C36.3336083,2.46973276 37.1456731,2.55362375 37.94,2.73 C37.1456092,2.90807702 36.3341046,2.99861679 35.52,3 C34.7066293,3.00518504 33.8951333,2.92135281 33.1,2.75 C33.8935417,2.56689742 34.705616,2.47629409 35.52,2.48 L35.52,2.48 Z M35.52,8.61 C36.2231,8.61147437 36.9252392,8.55797805 37.62,8.45 L37.62,10.13 C37.618342,10.4377803 37.758508,10.7291779 38,10.92 L39.56,12.14 C36.8825249,11.7266641 34.1574751,11.7266641 31.48,12.14 L33,10.92 C33.241492,10.7291779 33.381658,10.4377803 33.38,10.13 L33.38,8.45 C34.0879527,8.56007684 34.8035496,8.61357942 35.52,8.61 Z M35.52,16.78 C31.11,16.78 28.68,15.78 28.23,15.31 C28.68,14.81 31.11,13.83 35.52,13.83 C39.93,13.83 42.35,14.83 42.8,15.31 C42.36,15.8 39.93,16.78 35.52,16.78 Z"/>
        <path id="Path" fill="#3D454C" d="M35.64,25.11 C35.0877153,25.11 34.64,25.5577153 34.64,26.11 C34.64,26.6622847 35.0877153,27.11 35.64,27.11 C36.1922847,27.11 36.64,26.6622847 36.64,26.11 C36.64,25.5577153 36.1922847,25.11 35.64,25.11 Z"/>
      </g>
    </g>
  </g>
</svg>
