<svg xmlns="http://www.w3.org/2000/svg" width="64" height="64" viewBox="0 0 64 64" style="background:#fff">
  <g id="Kokosnussmilch" fill="none" fill-rule="evenodd" stroke="none" stroke-width="1">
    <rect width="64" height="64" fill="#FFF"/>
    <g id="24-Kokosnussmilch" transform="translate(2 4)">
      <rect id="Rectangle" width="60" height="60" x="0" y="0"/>
      <rect id="Rectangle" width="60" height="60" x="0" y="0"/>
      <path id="Shape" fill="#C17953" fill-rule="nonzero" d="M29.62,40.55 C29.47,36.55 27.85,32.73 23.62,31.28 C18,29.38 9.82,32.1 5.66,36.53 C2.57,34.1 1.19,40.64 1.41,42.53 C2.22,49.49 6.47,56.74 13.85,58 C20.64,59.12 25.69,54.69 28.09,48.86 C28.19,48.78 31.1,42.87 29.62,40.55 Z M21.4,35.6 C23.605274,35.870354 25.2947018,37.6907125 25.4,39.91 C22.4,41.3 18.66,43.67 15.63,44.04 C12.85,44.38 10.19,41.52 8.03,39.04 C10.2028134,38.0315539 12.4295188,37.1435425 14.7,36.38 C16.61,35.91 19.4,35.21 21.4,35.6 Z" opacity=".5"/>
      <path id="Path" fill="#CBCBCB" fill-rule="nonzero" d="M17.24,16.64 C18.24,17.14 19.24,17.64 20.24,18.04 C20.1180618,17.45828 20.0876961,16.8610882 20.15,16.27 C20.41,13.6 22.79,11.6 25.28,10.59 C26.284945,10.2045734 27.3224349,9.91006013 28.38,9.71 C25.16,4.71 35.07,0.58 39.38,4.52 C41.93,6.84 43.38,9.62 42.38,12.83 L43.09,12.83 C47.26,12.93 52.27,13.97 54.85,17.34 C61.38,25.83 47.15,29.98 40.85,30.55 C30.268121,31.5453495 19.6212598,29.5130822 10.15,24.69 C2.26,20.6 11.06,13.44 17.24,16.64 Z" opacity=".5"/>
      <path id="Path" fill="#3D454C" fill-rule="nonzero" d="M23.05,42.53 L22.85,42.37 C22.6956443,42.2784107 22.5194833,42.2300528 22.34,42.23 L22.22,42.23 C22.084731,42.22891 21.9511125,42.2597451 21.83,42.32 C21.7069661,42.3611458 21.596709,42.433502 21.51,42.53 C21.4112239,42.6147289 21.3384226,42.7256641 21.3,42.85 C21.2385387,42.9667712 21.2108357,43.0983602 21.22,43.23 L21.22,43.5 C21.2709204,43.6650452 21.3599909,43.81578 21.48,43.94 C21.5509396,43.9877612 21.6178316,44.0412748 21.68,44.1 C21.8353424,44.1880947 22.0114418,44.2329827 22.19,44.23 L22.31,44.23 C22.8622847,44.23 23.31,43.7822847 23.31,43.23 L23.31,42.97 C23.2656331,42.8021356 23.1756399,42.6498395 23.05,42.53 L23.05,42.53 Z"/>
      <path id="Shape" fill="#3D454C" fill-rule="nonzero" d="M30.17,37.41 C30.0050571,36.8762487 29.7732144,36.3655228 29.48,35.89 C29.2647233,35.5267507 29.0061673,35.1909636 28.71,34.89 C28.4,34.57 27.99,34.17 27.55,33.76 C27.11,33.35 26.64,32.91 26.23,32.57 C25.8900538,32.2742478 25.5291071,32.0035378 25.15,31.76 C24.831677,31.5592121 24.4971882,31.3852779 24.15,31.24 C23.732319,31.0908847 23.2933912,31.0098518 22.85,31 C22.2936707,30.9474272 21.7335429,31.047697 21.23,31.29 C21.0420844,31.3808098 20.8644093,31.4914377 20.7,31.62 L20.25,31.47 L19.52,31.27 C18.9872304,31.1249489 18.4410845,31.034483 17.89,31 C17.3203691,30.9709896 16.7496309,30.9709896 16.18,31 L15.18,31.07 L15.11,30.6 C15.1149577,30.5568085 15.1149577,30.5131915 15.11,30.47 C15.0276697,29.9817355 14.7400674,29.5521523 14.32,29.29 L7.23,24.4 C6.7937793,24.1996219 6.27671694,24.3374838 5.99816092,24.7284397 C5.71960491,25.1193955 5.7581542,25.6531308 6.09,26 L13.16,31 L13.24,31.55 L12.8,31.55 L11.74,31.55 C10.9900579,31.6015424 10.248525,31.7391118 9.53,31.96 C9.0420163,32.1462887 8.57859071,32.3914341 8.15,32.69 C7.73,32.97 7.23,33.35 6.53,33.88 C6.09234031,34.2030377 5.63841155,34.5034318 5.17,34.78 L4.78,35 C4.47855988,35.1806266 4.19406843,35.388138 3.93,35.62 C3.1614686,36.7074826 2.73335645,37.9987802 2.7,39.33 C2.63,48.71 6.7,55.15 13.54,56.57 C14.4353582,56.7518635 15.3463689,56.845644 16.26,56.85 C23.2083196,56.6822033 29.0938762,51.6803139 30.38,44.85 C30.7709782,42.378371 30.6997721,39.8556401 30.17,37.41 L30.17,37.41 Z M28.42,44.41 C27,51.4 20.5,56 14,54.61 C8.09,53.4 4.63,47.7 4.7,39.35 C4.75272694,38.5499085 4.96345063,37.7681916 5.32,37.05 C5.45,36.95 5.64,36.83 5.85,36.7 L6.22,36.46 C6.74796781,36.1550015 7.25874096,35.8211629 7.75,35.46 C8.4,34.96 8.87,34.6 9.26,34.34 C9.55183519,34.1357286 9.86750012,33.9678218 10.2,33.84 C10.7623488,33.6684937 11.3430884,33.5644305 11.93,33.53 L12.82,33.53 L13.53,33.53 L13.82,35.46 L13.12,35.46 L12.12,35.52 C11.6315503,35.5449061 11.1495629,35.6426518 10.69,35.81 C10.0125439,36.1329513 9.38862438,36.557891 8.84,37.07 L8.52,37.34 C8.23610039,37.5537148 7.9311977,37.7379966 7.61,37.89 C7.21762261,38.035027 6.87199147,38.2838814 6.61,38.61 C6.35227283,38.9495344 6.24068816,39.3778756 6.3,39.8 L6.3,40.01 C6.29563121,40.0599046 6.29563121,40.1100954 6.3,40.16 L6.3,40.16 C6.3,40.55 6.39,41.09 6.45,41.49 C6.45,41.57 6.45,41.65 6.45,41.74 C6.54844775,42.1610082 6.81616023,42.5227819 7.19,42.74 C7.55432029,42.9578534 7.99351211,43.0122986 8.4,42.89 L8.6,42.89 C8.79,42.83 9.01,42.77 9.25,42.72 L9.5,42.67 C9.5,42.78 9.56,42.9 9.6,43.03 C9.64,43.16 9.76,43.57 9.85,43.83 C9.94,44.09 10.03,44.35 10.13,44.59 C10.2121415,44.7982864 10.3056145,45.0019239 10.41,45.2 C10.6062264,45.6606917 11.0116746,45.9991851 11.5,46.11 L11.57,46.11 C12.1691759,46.2623828 12.7599811,46.4459664 13.34,46.66 L14.21,46.95 C14.396698,47.0289398 14.5972993,47.0697401 14.8,47.07 C15.40991,47.0682371 15.9636062,46.7134036 16.22,46.16 C16.3417114,45.9032874 16.5320643,45.6852469 16.77,45.53 C18.04,44.74 18.24,44.75 18.55,44.78 C19.1022847,44.8241828 19.5858172,44.4122847 19.63,43.86 C19.6741828,43.3077153 19.2622847,42.8241828 18.71,42.78 C17.86,42.71 17.27,42.86 15.71,43.84 C15.2515859,44.1215711 14.8674853,44.5091012 14.59,44.97 L13.99,44.77 C13.39,44.56 12.76,44.34 12.15,44.19 C12.09,44.07 12.03,43.94 11.98,43.81 C11.93,43.68 11.82,43.4 11.75,43.18 C11.68,42.96 11.59,42.7 11.52,42.45 C11.45,42.2 11.46,42.22 11.43,42.12 C11.08,40.77 10.43,40.41 8.84,40.74 L8.34,40.86 C8.34,40.57 8.28,40.27 8.25,40.01 L8.25,39.8 L8.43,39.71 C8.88812183,39.4956097 9.32081416,39.2306276 9.72,38.92 L10.05,38.65 C10.4455486,38.275743 10.8895063,37.956228 11.37,37.7 C11.6560382,37.5987979 11.9566239,37.54476 12.26,37.54 L13.17,37.54 L14.05,37.54 L14.61,41.35 C14.6847694,41.8430381 15.1113566,42.2056372 15.61,42.2 L15.75,42.2 C16.2967163,42.1226029 16.6772331,41.6167395 16.6,41.07 L16.07,37 C18.46,36.74 18.88,37.18 18.88,37.18 C18.9365122,37.2796038 19.0111238,37.3677811 19.1,37.44 C19.9754967,38.12461 21.19783,38.1490567 22.1,37.5 C22.2,37.5 22.29,37.39 22.39,37.35 L22.65,37.22 C23.0959275,37.4787771 23.5060759,37.7947931 23.87,38.16 C24.92,39.16 25.98,40.5 25.08,41.74 C24.9229703,41.9546346 24.8579044,42.2229786 24.899189,42.4856989 C24.9404736,42.7484191 25.0847078,42.9838731 25.3,43.14 C25.7452621,43.4602702 26.3654037,43.3621183 26.69,42.92 C28.06,41.04 27.52,38.76 25.21,36.67 C23.8,35.4 22.9,34.98 22.14,35.23 L22.03,35.23 L21.93,35.23 L21.76,35.33 C21.6799812,35.3794296 21.5964205,35.4228812 21.51,35.46 L21.16,35.64 C20.67,35.9 20.56,35.94 20.45,35.88 C19.55,34.69 17.52,34.73 15.76,34.93 L15.47,33 L16.3,33 C16.87,33 17.36,33 17.81,33 C18.221172,33.0101495 18.6301157,33.0637814 19.03,33.16 C19.26,33.22 19.47,33.27 19.68,33.34 C19.839671,33.3840631 19.9966092,33.4374889 20.15,33.5 C20.2539666,33.5335355 20.3544366,33.5770725 20.45,33.63 C20.8749751,33.8552113 21.4000749,33.7459906 21.7,33.37 C21.8093195,33.2297851 21.9496612,33.1168272 22.11,33.04 C22.2874095,32.9447562 22.490939,32.9096649 22.69,32.94 C22.9303907,32.9681164 23.165865,33.0286669 23.39,33.12 C23.633164,33.2237629 23.8673004,33.3475207 24.09,33.49 C24.3870356,33.6881356 24.6709602,33.9052545 24.94,34.14 C25.33,34.46 25.76,34.85 26.18,35.25 C26.6,35.65 26.97,36.01 27.25,36.31 C27.7358363,36.7598587 28.0828234,37.3393271 28.25,37.98 C28.6797087,40.1073119 28.7372276,42.2930319 28.42,44.44 L28.42,44.41 Z"/>
      <path id="Shape" fill="#3D454C" fill-rule="nonzero" d="M57.06,19.66 C56.94,17.35 54.2,15.66 48.89,14.53 C47.3921375,12.6820292 45.1064248,11.6542006 42.73,11.76 C37.15,11.76 35.05,4.76 35.02,4.67 C34.8600238,4.17338259 34.3451223,3.88321885 33.8374503,4.0035947 C33.3297782,4.12397055 32.999972,4.61442578 33.08,5.13 C33.4564269,7.22610251 33.398566,9.37716471 32.91,11.45 C28.52,10.92 25.18,11.45 23.49,12.92 C23.2258931,13.1496823 22.9997673,13.4196833 22.82,13.72 C14.33,14.58 10.12,16.51 9.94,19.63 C9.58186312,21.3302726 9.60234771,23.0885327 10,24.78 C10.0964736,25.2531232 10.5172392,25.5897357 11,25.58 L11.2,25.58 C11.467885,25.531975 11.7046241,25.3768399 11.8555889,25.1503926 C12.0065538,24.9239454 12.0587019,24.6457496 12,24.38 C11.9,23.92 11.85,23.51 11.8,23.12 C15.64,26.2 24.8,27.64 33.52,27.64 C42.44,27.64 51.58,25.9 55.33,22.88 C55.18,26.58 53.33,32.94 43.46,36.11 C43.0591444,36.2839314 42.7133803,36.5640004 42.46,36.92 L42.24,37.17 C41.89,37.26 41.54,37.36 41.16,37.48 C38.6900882,38.2911213 36.0987459,38.6700121 33.5,38.6 C32.9477153,38.6 32.5,39.0477153 32.5,39.6 C32.5,40.1522847 32.9477153,40.6 33.5,40.6 C36.2819658,40.6612526 39.0542946,40.252165 41.7,39.39 C42.08,39.27 42.44,39.17 42.78,39.08 C43.2420164,38.9224203 43.6438004,38.6254495 43.93,38.23 C43.9923711,38.1436331 44.0626768,38.0632838 44.14,37.99 C59.42,33.05 57.28,20.71 57.06,19.66 Z M24.81,14.42 C25.25,14.04 27.01,12.88 31.92,13.35 C31.2430221,14.0816811 30.2753661,14.473875 29.28,14.42 C28.7277153,14.42 28.28,14.8677153 28.28,15.42 C28.28,15.9722847 28.7277153,16.42 29.28,16.42 C30.9225793,16.4878926 32.5036708,15.7897003 33.56,14.53 C34.6062064,13.0887881 35.2013152,11.3695848 35.27,9.59 C36.9074381,12.1351945 39.7042041,13.6985342 42.73,13.76 C45.64,13.76 47.67,15.39 47.67,16.85 C47.67,17.85 46.67,18.95 44.89,19.74 C42.38,20.86 38.44,21.46 33.51,21.46 C23.32,21.46 19.32,20.37 18.24,19.74 C19.01,19.34 21.17,18.74 25,18.74 C27.2005662,19.4850604 29.5182405,19.8239016 31.84,19.74 C33.4485647,19.7460449 35.0513858,19.5477924 36.61,19.15 C36.9565476,19.0588973 37.2281681,18.7898339 37.3225446,18.4441635 C37.4169212,18.0984931 37.3197157,17.7287312 37.0675446,17.4741635 C36.8153736,17.2195958 36.4465476,17.1188973 36.1,17.21 C34.708507,17.56811 33.2768218,17.7462304 31.84,17.74 C29.95,17.74 27.21,17.6 25.62,16.85 L25.62,16.85 C24.86,16.5 24.37,16 24.37,15.32 C24.3784386,14.9701986 24.539134,14.6415036 24.81,14.42 Z M33.5,25.64 C20.6,25.64 11.93,22.64 11.93,19.82 C11.93,19.13 12.71,16.82 22.39,15.77 C22.4311195,16.1386293 22.5360147,16.4973032 22.7,16.83 C19.7,17.03 16.01,17.69 16.01,19.73 C16.01,21.03 17.49,21.93 20.67,22.56 C24.9145103,23.2430553 29.2117058,23.5442606 33.51,23.46 C38.8,23.46 42.9,22.82 45.71,21.56 C49.15,20.02 49.71,17.95 49.71,16.85 C49.71,16.85 49.71,16.78 49.71,16.75 C53.71,17.75 55.13,18.95 55.13,19.82 C55.08,22.19 46.67,25.64 33.5,25.64 Z"/>
      <path id="Path" fill="#3D454C" fill-rule="nonzero" d="M39.17,17.32 C39.2409396,17.3677612 39.3078316,17.4212748 39.37,17.48 C39.5253424,17.5680947 39.7014418,17.6129827 39.88,17.61 L40,17.61 C40.1315663,17.6181311 40.2628794,17.5904862 40.38,17.53 C40.622507,17.4344552 40.8144552,17.242507 40.91,17 C40.9702549,16.8788875 41.00109,16.745269 41,16.61 C40.9951815,16.5234003 40.9951815,16.4365997 41,16.35 C40.9556331,16.1821356 40.8656399,16.0298395 40.74,15.91 L40.54,15.75 C40.3885672,15.6601234 40.2160862,15.6118287 40.04,15.61 L39.91,15.61 C39.774731,15.60891 39.6411125,15.6397451 39.52,15.7 C39.3969661,15.7411458 39.286709,15.813502 39.2,15.91 C39.1012239,15.9947289 39.0284226,16.1056641 38.99,16.23 C38.9295138,16.3471206 38.9018689,16.4784337 38.91,16.61 L38.91,16.88 C38.957092,17.0467114 39.0466847,17.1983297 39.17,17.32 L39.17,17.32 Z"/>
    </g>
  </g>
</svg>
