<svg xmlns="http://www.w3.org/2000/svg" width="64" height="64" viewBox="0 0 64 64" style="background:#fff">
  <g id="Kokosnussöl" fill="none" fill-rule="evenodd" stroke="none" stroke-width="1">
    <rect width="64" height="64" fill="#FFF"/>
    <g transform="translate(2 3)">
      <rect id="Rectangle" width="60" height="60" x="0" y=".44"/>
      <rect id="Rectangle" width="60" height="60" x="0" y="0"/>
      <g id="Group" fill="#C17953" fill-rule="nonzero" opacity=".5" transform="translate(13 24)">
        <path id="Shape" d="M31.63,8.51 C28.5542839,8.55387981 25.4794626,8.37340117 22.43,7.97 C20.3636467,7.43506137 18.1832754,7.54320779 16.18,8.28 C15.037201,8.78700399 14.0624929,9.60908873 13.37,10.65 C12.0530227,8.63835223 10.8607804,6.54775365 9.8,4.39 C9.04,2.88 7.56,0.39 5.44,0.77 C0.3,1.62 0.25,8.22 1.44,12.19 C3.20287533,17.4669656 6.17139933,22.26043 10.11,26.19 C17.35,33.68 28.11,39.07 35.69,29.27 C40.17,23.5 42.25,8.86 31.63,8.51 Z M31.81,19.12 C30.81,20.91 28.64,21.31 26.87,21.12 C23.48,20.77 20.48,18.87 17.87,16.32 C20.54,15.63 27.08,17.48 28.79,17.47 C31,17.46 33.18,16.56 31.81,19.12 Z"/>
      </g>
      <path id="Shape" fill="#3D454C" fill-rule="nonzero" d="M27.88,19.25 C26.65,17.4 24.54,16.64 23.98,14.45 C23.49,12.55 24.26,10.9 24.5,9.88 C25.36,6.17 24.69,2.71 20.43,2.34 C16.63,2 13.82,2.82 13.62,7 C13.44,10.75 16.12,13.54 12.79,16.94 C10.24,19.55 9.42,21.31 9.42,24.83 C9.42,34.23 8.91,43.83 9.42,53.16 C9.66,57.67 12.85,58.35 16.85,58.35 C20.54,58.35 25.15,59.35 27.61,56.05 C28.38,55.05 26.61,54.05 25.89,55.05 C24.18,57.36 19.46,56.36 16.89,56.36 C14.78,56.36 12.48,56.21 11.46,53.88 C11.15,53.18 11.46,51.67 11.46,50.88 L11.46,27.42 C11.46,24.42 11,21.86 13.08,19.42 C15.62,16.42 16.44,16.33 16.44,12.19 C16.4249328,11.7902508 16.3781188,11.3923314 16.3,11 L21.86,11 C21.4,14.25 22.28,16.3 24.5,18.63 C27.66,22 27,26.47 27.05,30.78 C27.05,31.3322847 27.4977153,31.78 28.05,31.78 C28.6022847,31.78 29.05,31.3322847 29.05,30.78 C29,27.32 29.89,22.23 27.88,19.25 Z M18.35,4.34 C19.4327273,4.04684305 20.5903652,4.2903987 21.4631777,4.99498208 C22.3359903,5.69956545 22.8182148,6.77979889 22.76,7.9 C22.716804,8.28347887 22.6050266,8.6560703 22.43,9 L15.91,9 C15.52,6.94 15.43,5.05 18.35,4.34 Z"/>
      <path id="Shape" fill="#3D454C" fill-rule="nonzero" d="M20.2,24.57 C20.0058533,24.3489041 19.7241878,24.2245322 19.43,24.23 C19.1374067,24.2220085 18.8560015,24.3426107 18.66,24.56 C18.5892882,24.6252172 18.5316002,24.7032656 18.49,24.79 C16.94,27.07 14.9,29.79 14.49,32.6 C14.2998981,34.040781 14.7285924,35.4947014 15.6699652,36.6018626 C16.6113381,37.7090238 17.9773998,38.3659398 19.43,38.41 C20.8579822,38.3678762 22.2037208,37.7322054 23.1432527,36.6560143 C24.0827847,35.5798232 24.5310005,34.1606007 24.38,32.74 C24.04,29.92 21.93,27.09 20.38,24.74 C20.3288368,24.6746527 20.2681619,24.6173487 20.2,24.57 L20.2,24.57 Z M19.43,36.41 C15.6,36.41 16.43,32.31 17.56,30.18 C18.1284381,29.0886611 18.7525949,28.0272608 19.43,27 C20.03,27.94 20.62,28.9 21.15,29.88 C22.29,32 23.45,36.41 19.43,36.41 Z"/>
      <circle id="Oval" cx="32.35" cy="44.87" r="1" fill="#3D454C" fill-rule="nonzero"/>
      <path id="Shape" fill="#3D454C" fill-rule="nonzero" d="M52,38.68 C51.7633023,38.4189354 51.5021059,38.1811797 51.22,37.97 L50.86,37.68 C50.49,37.38 50.03,37.01 49.63,36.62 C49,36 48.55,35.62 48.17,35.24 C47.7799196,34.889274 47.3463656,34.5901553 46.88,34.35 C46.1972532,34.0364286 45.4785211,33.8080465 44.74,33.67 C44.69,33.67 44.24,33.59 43.74,33.52 L43.28,33.46 L43.42,32.92 L51.04,28.92 C51.5147607,28.6561603 51.6921157,28.061598 51.4394827,27.5807803 C51.1868497,27.0999626 50.5966102,26.9087126 50.11,27.15 L42.52,31.15 C42.0383717,31.3531427 41.6719604,31.7598592 41.52,32.26 L41.52,32.37 L41.39,32.84 C41.05,32.76 40.81,32.72 40.39,32.65 C39.8314891,32.539098 39.2673049,32.4589772 38.7,32.41 C38.1514232,32.3540438 37.5985768,32.3540438 37.05,32.41 L36.3,32.52 L35.84,32.61 C35.689051,32.4692404 35.528679,32.3389381 35.36,32.22 C34.8855824,31.9205758 34.3405908,31.7515595 33.78,31.73 C33.3306962,31.7205276 32.8824759,31.7778189 32.45,31.9 C32.0879884,32.0090932 31.7338341,32.1427363 31.39,32.3 C30.9790673,32.5081857 30.581618,32.7419794 30.2,33 C29.75,33.3 29.2,33.66 28.74,34 C28.28,34.34 27.8,34.71 27.46,35 C27.1308783,35.243484 26.832086,35.5254901 26.57,35.84 C26.22539,36.2812213 25.9334175,36.7611302 25.7,37.27 C24.8780396,39.6303251 24.4983584,42.1219831 24.58,44.62 C24.8788671,48.517716 26.6698775,52.1498852 29.58,54.76 C32.0983474,57.0653995 35.3857915,58.3490003 38.8,58.36 C39.17,58.36 39.54,58.36 39.91,58.31 C46.91,57.74 51.7,51.84 52.78,42.53 C52.9086522,41.1976548 52.6370815,39.8572096 52,38.68 L52,38.68 Z M50.78,42.29 C49.78,50.58 45.69,55.82 39.78,56.29 C36.54054,56.5459185 33.3409037,55.4407214 30.95,53.24 C28.4372018,50.965463 26.8972331,47.8103179 26.65,44.43 C26.6079459,42.2612367 26.9464015,40.1018899 27.65,38.05 C27.8151709,37.6948362 28.0197922,37.3593914 28.26,37.05 C28.26,37.05 28.38,36.91 28.85,36.52 C29.16,36.26 29.59,35.94 30.04,35.6 C30.49,35.26 30.99,34.92 31.41,34.6 C31.7033767,34.4037266 32.0071536,34.2234634 32.32,34.06 C32.5621965,33.9469666 32.8129843,33.8533392 33.07,33.78 C33.2808789,33.7162344 33.4997062,33.6825687 33.72,33.68 L33.79,33.68 C33.991546,33.6861626 34.1880047,33.7447556 34.36,33.85 C34.503524,33.949005 34.6231055,34.0788363 34.71,34.23 C34.9629978,34.6449805 35.4777335,34.8179655 35.93,34.64 C36.0307936,34.5992537 36.1343959,34.5658336 36.24,34.54 L36.73,34.44 L37.4,34.35 C37.8087197,34.304178 38.2212803,34.304178 38.63,34.35 C39.129878,34.390047 39.6272554,34.456809 40.12,34.55 L40.91,34.71 L40.4,36.59 C38.67,36.17 36.67,35.9 35.63,36.96 C35.51,37.01 35.4,36.96 34.95,36.64 L34.62,36.41 C34.5396655,36.3658631 34.4627801,36.3157204 34.39,36.26 C34.3255665,36.1997311 34.2552093,36.1461256 34.18,36.1 L34.08,36.1 C33.35,35.71 32.4,36.01 30.81,37.1 C28.27,38.89 27.46,41.1 28.58,43.1 C28.7567741,43.4144869 29.0892359,43.6093783 29.45,43.61 C29.6205631,43.609626 29.7885655,43.5684825 29.94,43.49 C30.1721493,43.3614519 30.3436858,43.1459029 30.4168345,42.8908202 C30.4899832,42.6357375 30.4587454,42.36204 30.33,42.13 C29.59,40.78 30.81,39.53 31.96,38.71 C32.3371296,38.4312689 32.7427262,38.1932742 33.17,38 L33.41,38.16 L33.68,38.35 C34.4950535,39.1193829 35.7248426,39.2464611 36.68,38.66 C36.7694421,38.5938356 36.8500912,38.5165469 36.92,38.43 C36.92,38.43 37.39,38.05 39.74,38.59 L38.68,42.43 C38.6095164,42.6859398 38.6436928,42.9594024 38.7749974,43.1901234 C38.9063021,43.4208445 39.1239583,43.5898876 39.38,43.66 L39.65,43.66 C40.1120038,43.677082 40.5254894,43.3752375 40.65,42.93 L41.65,39.21 L42.52,39.37 L43.42,39.53 C43.7182942,39.5720945 44.0083469,39.6597848 44.28,39.79 C44.7287649,40.1035238 45.1325109,40.4769889 45.48,40.9 L45.77,41.21 C46.1283213,41.5649278 46.5239518,41.880091 46.95,42.15 L47.12,42.26 L47.12,42.44 L47.12,42.44 C47.12,42.44 47.12,42.44 47.12,42.44 C47.07,42.67 47.01,42.96 46.93,43.26 L46.45,43.08 C44.94,42.56 44.22,42.83 43.71,44.08 L43.58,44.4 L43.27,45.09 C43.17,45.3 43.06,45.5 42.96,45.69 C42.86,45.88 42.83,45.92 42.75,46.04 C42.12,46.12 41.47,46.26 40.84,46.4 L40.22,46.53 C39.9953286,46.0313871 39.6520011,45.5953612 39.22,45.26 C37.78,44.09 36.8,43.69 35.82,43.9 C35.2677153,44.0132184 34.9117816,44.5527153 35.025,45.105 C35.1382184,45.6572847 35.6777153,46.0132184 36.23,45.9 C36.59,45.82 37.37,46.38 37.96,46.9 C38.1834579,47.0807943 38.3472455,47.3247334 38.43,47.6 C38.6408448,48.2371659 39.229062,48.6733269 39.9,48.69 C40.018363,48.688865 40.1360538,48.6720521 40.25,48.64 L41.25,48.44 C41.87,48.31 42.52,48.17 43.09,48.11 L43.15,48.11 C43.6227518,48.0646442 44.0476371,47.8023237 44.3,47.4 C44.4416072,47.1974111 44.5718093,46.9870848 44.69,46.77 C44.82,46.55 44.94,46.3 45.06,46.05 C45.18,45.8 45.3,45.54 45.41,45.29 C45.52,45.04 45.51,45.05 45.55,44.94 L45.8,45.02 C46.027722,45.0987014 46.2513383,45.1888155 46.47,45.29 L46.62,45.35 C47.0064401,45.515089 47.4435599,45.515089 47.83,45.35 C48.2226145,45.1762015 48.5289018,44.8518973 48.68,44.45 C48.7032777,44.3911427 48.7233078,44.3310524 48.74,44.27 C48.86,43.84 48.97,43.35 49.07,42.9 L49.15,42.55 C49.2516578,42.1442329 49.1944209,41.7149566 48.99,41.35 C48.7663066,40.9928513 48.4569426,40.6972368 48.09,40.49 C47.7879303,40.3034625 47.5063735,40.0855911 47.25,39.84 L46.96,39.53 C46.4644181,38.9350653 45.8810527,38.419141 45.23,38 C44.7951198,37.7817653 44.3299327,37.6300738 43.85,37.55 L42.85,37.37 L42.16,37.25 L42.68,35.36 L43.42,35.46 L44.24,35.57 C44.8223592,35.6871214 45.3917724,35.8612948 45.94,36.09 C46.2578179,36.2595225 46.5534036,36.467776 46.82,36.71 C47.18,37.02 47.6,37.43 48.18,38 C48.6399914,38.439873 49.124071,38.8538445 49.63,39.24 L49.92,39.48 C50.09,39.61 50.27,39.77 50.4,39.89 C50.6745627,40.6589002 50.7935351,41.4747105 50.75,42.29 L50.78,42.29 Z"/>
    </g>
  </g>
</svg>
