<svg xmlns="http://www.w3.org/2000/svg" width="64" height="64" viewBox="0 0 64 64" style="background:#fff">
  <g id="Kopfsalat" fill="none" fill-rule="evenodd" stroke="none" stroke-width="1">
    <rect width="64" height="64" fill="#FFF"/>
    <g transform="translate(2 4)">
      <rect id="Rectangle" width="60" height="60" x="0" y="0"/>
      <rect id="Rectangle" width="60" height="60" x="0" y="0"/>
      <g id="Group" fill="#31E085" fill-rule="nonzero" opacity=".5" transform="translate(10 8)">
        <path id="Path" d="M36.92,4.47 C34.6422126,3.25688738 32.0772345,2.68650816 29.5,2.82 C28.18,2.82 26.04,3.64 24.65,3.41 C23.13,1.41 20.9,-0.1 18.29,0.54 C16.312581,1.06481414 14.6687425,2.4377305 13.8,4.29 C10.07,2.94 6.31,3.67 3.38,7.85 C-0.54,13.45 -0.48,20.93 1.2,27.33 C2.58,32.57 4.57,37.94 8.07,42.15 C10.69,45.3 15.91,50.15 20.27,47.37 C20.4,47.29 20.51,47.19 20.62,47.11 C21.6103317,47.2457293 22.6151688,46.99899 23.43,46.42 C28.49,43.04 32.75,38.65 37.21,34.52 C41.67,30.39 44.73,25.4 44.57,18.89 C44.44,13.36 41.9,7.23 36.92,4.47 Z"/>
      </g>
      <path id="Shape" fill="#3D454C" fill-rule="nonzero" d="M53.84,22 C53.3961256,20.2444863 52.0820581,18.8397934 50.36,18.28 C49.7024317,18.0961275 49.1625577,17.6260331 48.89,17 C48.7210234,16.5617621 48.6035683,16.1053651 48.54,15.64 C48.2412391,13.2336039 46.3217964,11.3514722 43.91,11.1 C42.3920125,10.8472016 40.8388433,11.2628385 39.65,12.24 L38,11.67 C37.2645979,11.4249234 36.6964366,10.8343346 36.48,10.09 C35.7291335,7.45688357 33.3230837,5.64103391 30.585,5.64103391 C27.8469163,5.64103391 25.4408665,7.45688357 24.69,10.09 C24.4786392,10.8338071 23.9134727,11.4251733 23.18,11.67 L21.48,12.24 C20.3143128,11.2707761 18.7871296,10.8516208 17.29,11.09 C14.8516398,11.3159945 12.8997635,13.2096059 12.6,15.64 C12.5196222,16.1072565 12.3853945,16.5636308 12.2,17 C11.9372112,17.6413425 11.395821,18.1274888 10.73,18.32 C9.01793725,18.8723064 7.70587382,20.2597758 7.25,22 C6.72,24.17 7.54,26.14 9.61,27.69 C11.1054169,28.8131305 11.7569075,30.7397948 11.25,32.54 C11.0775684,33.1822621 10.9934613,33.8450259 11,34.51 C11,36.66 12.57,38.63 15.42,40.06 C17.1618641,40.9254088 18.4890279,42.4467917 19.11,44.29 L20.72,49.13 C22.0067181,53.0104888 25.6317507,55.6325958 29.72,55.64 L31.37,55.64 C35.4592567,55.6356998 39.0859146,53.0124172 40.37,49.13 L42,44.29 C42.6263752,42.4474507 43.9515635,40.9247412 45.69,40.05 C48.55,38.63 50.12,36.66 50.12,34.51 C50.1102291,33.8598614 50.0126805,33.214022 49.83,32.59 C49.3215066,30.7867932 49.9729068,28.8564245 51.47,27.73 C53.55,26.18 54.37,24.21 53.84,22 Z M23.77,13.57 C25.12908,13.1143241 26.1764298,12.0183474 26.57,10.64 C27.0392173,8.81435203 28.6850185,7.53805642 30.57,7.53805642 C32.4549815,7.53805642 34.1007827,8.81435203 34.57,10.64 C34.9635702,12.0183474 36.01092,13.1143241 37.37,13.57 L38.37,13.89 L38.31,13.98 C37.9706685,14.6207125 37.2171466,14.9212746 36.53,14.69 C34.13,13.89 32.05,14.28 30.62,15.81 C29.18,14.28 27.1,13.89 24.7,14.69 C24.000459,14.9639824 23.2068986,14.6663973 22.86,14 C22.8404295,13.9579204 22.8169957,13.9177482 22.79,13.88 L23.77,13.57 Z M50.28,26.13 C48.1186056,27.7488313 47.1766158,30.5310794 47.91,33.13 C48.0438779,33.5817021 48.1178438,34.0490326 48.13,34.52 C48.13,36.34 46.05,37.66 44.81,38.27 C42.5961888,39.3816832 40.9107064,41.322324 40.12,43.67 L38.5,48.5 C37.4841353,51.5743384 34.6078196,53.6478675 31.37,53.6400223 L29.72,53.6400223 C26.4821804,53.6478675 23.6058647,51.5743384 22.59,48.5 L21,43.66 C20.2160676,41.3084523 18.5285933,39.3655181 16.31,38.26 C15,37.65 13,36.33 13,34.51 C13.0084406,34.039437 13.0790523,33.5720547 13.21,33.12 C13.9433842,30.5210794 13.0013944,27.7388313 10.84,26.12 C9.42,25.06 8.84,23.87 9.22,22.5 C9.50310589,21.4117874 10.3270298,20.5462894 11.4,20.21 C12.642944,19.8258868 13.6414997,18.8936557 14.11,17.68 C14.328396,17.1019711 14.4826539,16.5017065 14.57,15.89 C14.7883162,14.3628206 16.0326943,13.1889573 17.57,13.06 C17.7516799,13.0284904 17.9356164,13.0117689 18.12,13.01 C19.4003293,13.0200099 20.5636886,13.7568041 21.12,14.91 C21.9180563,16.4189617 23.6927784,17.1263092 25.31,16.58 C27.04,16 28.38,16.25 29.31,17.33 C29.3821563,17.412302 29.4489601,17.4991469 29.51,17.59 C29.0085473,19.1295718 29.1867602,20.8098653 30,22.21 C30.8517134,23.8735109 30.5892142,25.8899826 29.34,27.28 C28.9003132,27.7651259 28.5270459,28.3065317 28.23,28.89 C27.29,30.82 27.83,33.28 29.76,35.8 C31.0467837,37.5917126 31.4986801,39.8511946 31,42 L30.31,45.11 C30.1921838,45.6483131 30.5320607,46.1804887 31.07,46.3 C31.3300045,46.3595712 31.6030332,46.3127967 31.8283815,46.170076 C32.0537298,46.0273554 32.2127191,45.8005186 32.27,45.54 L33,42.46 C33.6110352,39.7203618 32.997621,36.8504598 31.32,34.6 C30.48,33.5 29.19,31.41 29.99,29.77 C30.2025831,29.3462568 30.4754148,28.9555348 30.8,28.61 C32.5979879,26.6036077 32.9718793,23.6960059 31.74,21.3 C31.14315,20.3493067 31.0142046,19.1777455 31.39,18.12 C31.4399378,18.0418122 31.4802306,17.9578687 31.51,17.87 C31.613733,17.6828148 31.7342264,17.5054218 31.87,17.34 C32.76,16.26 34.1,16 35.87,16.59 C37.4763165,17.0894436 39.2107376,16.3755172 40,14.89 C40.663577,13.547666 42.1373822,12.8087221 43.61,13.08 C45.1157261,13.2332857 46.3195013,14.3998307 46.52,15.9 C46.6138088,16.5124773 46.774779,17.1127618 47,17.69 C47.4710081,18.9019597 48.4685759,19.8332685 49.71,20.22 C50.7829702,20.5562894 51.6068941,21.4217874 51.89,22.51 C52.23,23.88 51.7,25.07 50.28,26.13 Z"/>
      <path id="Path" fill="#3D454C" fill-rule="nonzero" d="M20.67 25.73C20.5236445 25.1970452 19.9729548 24.8836445 19.44 25.03 18.9070452 25.1763555 18.5936445 25.7270452 18.74 26.26 20.3593942 31.9067037 22.453526 37.4063085 25 42.7 25.1666588 43.0401654 25.5112145 43.2569645 25.89 43.26 26.0462755 43.2569598 26.1999448 43.2193962 26.34 43.15 26.8340809 42.9040469 27.0354836 42.3043143 26.79 41.81 24.295406 36.6342339 22.2479481 31.2546388 20.67 25.73L20.67 25.73zM41.54 25C40.9964021 24.91606 40.4870643 25.2868937 40.4 25.83 39.4267409 31.3064405 37.8919753 36.668067 35.82 41.83 35.6050568 42.3381056 35.8422174 42.9242949 36.35 43.14 36.4739863 43.190383 36.6061911 43.2175019 36.74 43.22 37.1437019 43.2179849 37.5065964 42.9734255 37.66 42.6 39.8155917 37.2877252 41.3946395 31.7593815 42.37 26.11 42.4361861 25.5771776 42.0697922 25.0871809 41.54 25zM41.81 21C41.2577153 21 40.81 21.4477153 40.81 22 40.81 22.5522847 41.2577153 23 41.81 23 42.3622847 23 42.81 22.5522847 42.81 22 42.81 21.4477153 42.3622847 21 41.81 21z"/>
    </g>
  </g>
</svg>
