<svg xmlns="http://www.w3.org/2000/svg" width="64" height="64" viewBox="0 0 64 64" style="background:#fff">
  <g id="Koriander" fill="none" fill-rule="evenodd" stroke="none" stroke-width="1">
    <rect width="64" height="64" fill="#FFF"/>
    <g transform="translate(2 8)">
      <rect id="Rectangle" width="60" height="60" x="0" y="0"/>
      <rect id="Rectangle" width="60" height="60" x="0" y="0"/>
      <g id="Group" fill="#C17953" fill-rule="nonzero" opacity=".5" transform="translate(37 5)">
        <path id="Path" d="M15.07 29.38C14.9149561 28.6723515 14.6410764 27.9961053 14.26 27.38 13.89 26.82 12.91 25.96 12.13 26.11 11.2805099 26.2107542 10.4976102 26.6199972 9.93 27.26 9.39910093 27.8040452 8.92034211 28.3966348 8.5 29.03 7.73 30.31 7.03 31.74 7.63 33.25 8.16 34.57 9.69 35.1 10.94 35.25 11.25 35.25 11.57 35.33 11.94 35.34 12.6681227 35.2921891 13.3556221 34.9874213 13.88 34.48 15.19 33.54 15.42 30.85 15.07 29.38zM16.16 39.06C15.9469567 38.1773978 15.4730447 37.3794136 14.8 36.77 14.1039199 36.2147165 13.1727794 36.0526151 12.33 36.34 11.5806636 36.6242341 10.9259285 37.1126872 10.44 37.75 9.85779217 38.2939692 9.33792633 38.9010384 8.89 39.56 7.74302246 41.1070786 7.54304404 43.1607031 8.37 44.9 8.91 46.06 10.55 46.44 11.69 46.29 12.06 46.29 12.43 46.2 12.79 46.14 13.6159392 46.0563383 14.391952 45.7052013 15 45.14 16.62 43.74 16.73 40.93 16.16 39.06zM7.52 3.11C7.3893449 2.52676573 7.16294493 1.96921355 6.85 1.46 6.54.99 5.72.28 5.07.46 4.51850307.493559913 3.99250461.703959299 3.57 1.06 3.35 1.26 3.15 1.49 2.95 1.7 2.53 2.14 2.11 2.57 1.73 3.04.78 4.22.13 5.99.97 7.4 1.53685471 8.17504957 2.49361095 8.56240027 3.44 8.4 3.81 8.4 4.17 8.3 4.53 8.24 5.27361225 8.20751243 5.98188994 7.91357719 6.53 7.41 7.5461168 6.22621426 7.91616395 4.61893875 7.52 3.11L7.52 3.11zM15.55 6.71C15.1209141 5.62655695 14.1032356 4.88961732 12.94 4.82 11.55 4.82 10.6 6.15 10.19 7.34 9.74096474 8.39453288 9.43492073 9.50436281 9.28 10.64 9.21 11.83 9.21 13.53 10.28 14.31L10.58 14.5 11.29 14.93C11.7303368 15.1202113 12.2296632 15.1202113 12.67 14.93L14.09 14.58C14.6753688 14.2858879 15.1619926 13.8270712 15.49 13.26 15.8884768 12.5643386 16.1434982 11.7958744 16.24 11 16.4772857 9.53300729 16.2353184 8.02860184 15.55 6.71zM15.05 16.94C14.46 16.2 13.31 15.24 12.29 15.94 11.7965905 16.2342097 11.3283312 16.5686806 10.89 16.94 10.4735687 17.3590714 10.1168796 17.8335351 9.83 18.35 9.36530968 19.1408473 9.12341795 20.0427578 9.13 20.96 9.16782591 21.6596527 9.35900486 22.3424347 9.69 22.96L11 24.13 11.31 24.24C11.6282424 24.3716846 11.9662045 24.4494158 12.31 24.47 12.8858817 24.4253699 13.4537609 24.3077618 14 24.12 14.5036127 23.8759593 14.9218483 23.4856061 15.2 23 15.5512134 22.4156693 15.7792179 21.7656863 15.87 21.09 16.1932728 19.6529161 15.8955476 18.1461363 15.05 16.94z"/>
      </g>
      <g id="Group" fill="#31E085" fill-rule="nonzero" opacity=".5" transform="translate(7 8)">
        <path id="Path" d="M31.34,26.64 C29.2840909,23.8910455 25.9989939,22.3402699 22.57,22.5 C24.18,19.72 26.21,17.22 27.69,14.15 C28.54,12.4 28.78,7.69 25.78,7.73 C23.5627793,7.90490519 21.5039171,8.94691225 20.05,10.63 C19.99,7.47 19.54,4.32 17.7,1.91 C16,-0.31 14,0.74 13,2.94 C12.0166641,5.54799003 11.7272235,8.36659012 12.16,11.12 C9.35,8.73 4.84,6.04 2.25,8.61 C1.5752363,9.4151461 1.40198382,10.527812 1.8,11.5 C2.97,14.84 6.65,16.86 8.73,19.65 C10.2739865,21.6522737 11.4243042,23.9291563 12.12,26.36 C8.48,25.76 4.73,25.82 1.87,28.51 C0.69,29.63 0.46,32.76 2,33.73 C4.57,35.35 7.59,35.73 10.55,36.3 C10.958497,37.9502761 12.3194697,39.1929033 14,39.45 C16.57,39.77 19,36.6 21.35,35.63 C24.16,34.48 27.35,34.78 30.27,33.8 C32.76,33 32.69,28.3 31.34,26.64 Z"/>
      </g>
      <path id="Shape" fill="#3D454C" fill-rule="nonzero" d="M39.9 35.35C39.7652583 35.2609652 39.62104 35.1871791 39.47 35.13 39.58 35.01 39.7 34.88 39.81 34.74 40.0522102 34.4360639 40.2107829 34.0741045 40.27 33.69 40.3174023 33.2410226 40.1764659 32.7924948 39.8807826 32.4513218 39.5850993 32.1101487 39.1611566 31.906893 38.71 31.89 38.4117068 31.844744 38.1082932 31.844744 37.81 31.89 38.0081801 31.3269637 37.9610184 30.706606 37.68 30.18 37.43 29.78 36.77 29.23 35.14 29.97 34.6710331 30.201259 34.2227291 30.4722488 33.8 30.78L33.7 30.85C33.0060251 31.3518309 32.3384669 31.8892152 31.7 32.46L31.5 32.63C30.64 33.37 29.91 33.94 29.22 34.45L29.22 34.45C28.7056961 34.6778391 28.1024545 34.5309409 27.7504844 34.0921515 27.3985143 33.6533621 27.3860003 33.0326183 27.72 32.58L27.77 32.52C28.3906877 31.7148396 29.125018 31.0040887 29.95 30.41 30.9855196 29.7303616 32.0720991 29.131907 33.2 28.62 34.7262892 27.9537286 36.1639521 27.1005362 37.48 26.08 37.9370025 25.7062563 38.3618272 25.2948119 38.75 24.85L38.75 24.85C39.3131159 24.3331571 39.6476805 23.6136633 39.68 22.85 39.6583449 22.3117945 39.4116087 21.8074368 39 21.46 38.3252436 20.8942379 37.4048579 20.7200085 36.57 21L36.37 21.06C36.46 20.9 36.56 20.74 36.64 20.57 37.1027599 19.7101352 37.1931072 18.6982458 36.89 17.77 36.577841 17.0746652 35.8452928 16.667694 35.09 16.77L35.09 16.77C34.2221454 16.8079386 33.3902291 17.1273664 32.72 17.68 32.7603556 17.5293646 32.7871294 17.3754154 32.8 17.22 32.9666016 16.3661975 32.7051939 15.4848801 32.1 14.86 31.3172423 14.3063148 30.2516728 14.3860227 29.56 15.05 29.8578039 14.1118496 30.0128703 13.1342573 30.02 12.15 30.0613869 11.1666222 29.6302984 10.2226869 28.86 9.61 28.28178 9.26390554 27.5547124 9.28735933 27 9.67 26.4485771 10.0085285 25.9555432 10.4340236 25.54 10.93 25.463984 10.4704966 25.3365157 10.0210034 25.16 9.59 24.8399623 8.62383696 23.9275744 7.97908285 22.91 8 22.2057359 8.05061526 21.5539834 8.39097493 21.11 8.94 20.6238283 9.57887616 20.2825914 10.3159478 20.11 11.1 20.0823801 11.0525572 20.0487709 11.0088652 20.01 10.97 19.4625101 10.2127473 18.6886344 9.64897359 17.8 9.36L17.8 9.36C16.9524642 9.13670582 16.0678949 9.55994473 15.71 10.36 15.5714693 10.6765098 15.4902093 11.0150931 15.47 11.36 15.4151426 12.5064061 15.5606564 13.6535958 15.9 14.75 15.9 14.82 15.9 14.89 15.95 14.96 15.4092834 14.3126401 14.6718747 13.8596605 13.85 13.67 13.3227536 13.5492724 12.7695229 13.6866519 12.36 14.04 11.8234483 14.5609353 11.5482815 15.2947133 11.61 16.04 11.6183622 16.1853726 11.6418218 16.3294812 11.68 16.47 10.6491757 15.7631949 9.3148798 15.6750087 8.2 16.24 7.47476062 16.7516173 7.17344557 17.6799934 7.46 18.52 7.59035577 19.0419405 7.79941791 19.5409921 8.08 20 7.3920366 19.7813475 6.64933439 19.8096409 5.98 20.08 5.04379657 20.5389584 4.61725078 21.6401429 5 22.61 5.27319023 23.3189063 5.72849934 23.9432317 6.32 24.42 6.94903343 24.9174741 7.61795996 25.3623103 8.32 25.75 8.57 25.9 8.82 26.04 9.05 26.19 9.88 26.72 10.87 27.35 11.85 28.01 13.6541017 29.2012745 15.3747691 30.5143274 17 31.94L17.65 32.52 17.65 32.52C18.1381496 32.9225069 18.2178884 33.6401556 17.83 34.14 17.4418739 34.6483515 16.7289215 34.7744224 16.19 34.43 15.55 33.96 14.94 33.5 14.38 33.03 14.08 32.79 13.8 32.54 13.51 32.27 13.22 32 12.95 31.76 12.66 31.52 12.1999909 31.125251 11.70456 30.7737629 11.18 30.47L11.18 30.47C10.6569121 30.1279786 10.087896 29.8619888 9.49 29.68 9.12335115 29.5800892 8.73664885 29.5800892 8.37 29.68 8.19290716 29.7214522 8.03252898 29.8155872 7.91 29.95 7.54624096 30.4015032 7.40984966 30.9949897 7.54 31.56 7.5548022 31.6683557 7.57820952 31.7753605 7.61 31.88 7.33477449 31.8400641 7.05522551 31.8400641 6.78 31.88 6.1469777 31.9244994 5.57739129 32.2804909 5.26 32.83 5.1246595 33.0951745 5.06908376 33.393894 5.1 33.69 5.13069432 33.9016607 5.20200155 34.1053957 5.31 34.29L5.31 34.29C5.46846612 34.5888893 5.66696257 34.8647657 5.9 35.11L5.9 35.11C5.62532685 35.218902 5.37158013 35.3745333 5.15 35.57 5.02348316 35.6878909 4.90953977 35.8185906 4.81 35.96 4.72783844 36.0920812 4.66075232 36.232962 4.61 36.38 4.46758026 36.9597787 4.70849659 37.5660848 5.21 37.89 5.69602476 38.2399214 6.23668367 38.5068717 6.81 38.68 6.75864996 38.7179992 6.71169362 38.7616015 6.67 38.81 6.32769824 39.1658642 6.17542876 39.6635254 6.26 40.15L6.26 40.15C6.27373567 40.2982417 6.31086221 40.4433728 6.37 40.58 6.5286664 40.9411262 6.81290096 41.2324666 7.17 41.4 7.07173388 41.4847401 6.97825623 41.5748793 6.89 41.67 6.7221091 41.8349652 6.58943293 42.0322785 6.5 42.25 6.38287596 42.5310892 6.34483776 42.8388529 6.39 43.14 6.41181415 43.2586199 6.44188734 43.3755712 6.48 43.49 6.51539577 43.5836107 6.55889415 43.6739535 6.61 43.76L6.61 43.76C6.67482641 43.8884798 6.76299365 44.0037754 6.87 44.1 7.20493092 44.4027677 7.63855446 44.5733737 8.09 44.58L8.34 44.58C8.21917984 44.8986802 8.17134009 45.2403926 8.2 45.58 8.21339056 45.7369991 8.24700191 45.8916113 8.3 46.04 8.38248366 46.2419299 8.50887203 46.4229727 8.67 46.57 8.95420044 46.7940889 9.30824538 46.9109238 9.67 46.9L9.72 46.9C9.8396951 46.9120977 9.9603049 46.9120977 10.08 46.9 10.5382096 46.8099503 10.9822016 46.6585894 11.4 46.45 11.74 46.29 12.1 46.1 12.48 45.88 13.4998611 45.2789255 14.4786812 44.6107889 15.41 43.88L15.79 43.6 17.9 42.06 17.9 42.06C18.7738481 41.3277316 19.9767424 41.1285262 21.04 41.54L21.04 41.54C21.2600373 41.6376706 21.4874024 41.7179171 21.72 41.78 21.78 45.97 21.72 46.12 20.19 50.07L20.19 50.15C20.0834909 50.4039412 20.0864129 50.6905647 20.1980768 50.9422817 20.3097408 51.1939987 20.5202629 51.3885289 20.78 51.48 20.8977876 51.5265537 21.0233466 51.5503081 21.15 51.55 21.5928242 51.5761489 21.9999489 51.3074466 22.15 50.89L22.15 50.82C23.73 46.76 23.88 46.38 23.82 41.82 24.0246283 41.7599649 24.2250651 41.6864714 24.42 41.6L24.42 41.6C25.4546319 41.164895 26.6469038 41.3590761 27.49 42.1L27.49 42.1 27.49 42.1C28.18 42.6 28.99 43.21 29.83 43.84 31.0956094 44.8330292 32.4593557 45.6941663 33.9 46.41L33.9 46.41C34.2839448 46.6377648 34.6851774 46.8350375 35.1 47 35.293069 47.0485798 35.4909658 47.0754132 35.69 47.08 36.0970175 47.0927251 36.4912954 46.9371842 36.78 46.65 36.95748 46.4626788 37.0817556 46.2313881 37.14 45.98 37.2426229 45.5400539 37.1932777 45.0783231 37 44.67 37.5932273 44.7414887 38.183757 44.5172369 38.58 44.07 38.7845868 43.8073536 38.909529 43.4915273 38.94 43.16 39.0162072 42.7594253 38.937582 42.344856 38.72 42 38.5745958 41.7771278 38.3919316 41.5809329 38.18 41.42 38.3111164 41.3566271 38.4351431 41.2795294 38.55 41.19 38.8698326 40.9495867 39.0761083 40.5876996 39.12 40.19 39.185042 39.7409712 39.0539097 39.2856507 38.76 38.94 38.7011266 38.8629709 38.6340673 38.7925587 38.56 38.73L38.79 38.65C39.1738568 38.5234471 39.5401126 38.3487195 39.88 38.13 40.5468484 37.8408165 40.9156421 37.1199925 40.76 36.41 40.6265848 35.955896 40.3168586 35.5741405 39.9 35.35zM38.19 36.93C37.8634595 37.0460838 37.5293422 37.1396366 37.19 37.21L36.6 37.33 36.16 37.41 36.06 37.41C35.7137197 37.4656759 35.377053 37.5700425 35.06 37.72 34.7144449 37.8985925 34.5038059 38.2613596 34.52 38.65 34.513624 39.1453928 34.8709422 39.5707716 35.36 39.65 35.4681469 39.6838014 35.5783801 39.7105246 35.69 39.73L35.78 39.73 35.87 39.73 36.68 39.9 36.78 39.9 37 40 36.83 40.05 36.37 40.2C36.0426001 40.3112895 35.7798012 40.5594884 35.65 40.88 35.5394905 41.1712563 35.5613976 41.4962119 35.71 41.77 35.7906806 41.9135725 35.8955559 42.0421293 36.02 42.15 36.219324 42.3322427 36.4371778 42.4931194 36.67 42.63 36.7875667 42.7038277 36.9010649 42.7839441 37.01 42.87L36.77 42.87C36.5734797 42.859268 36.3765203 42.859268 36.18 42.87L36.18 42.87C35.9773821 42.845878 35.7726179 42.845878 35.57 42.87 35.2538753 42.9053478 34.9689646 43.0770247 34.79 43.34 34.634458 43.5681408 34.5801694 43.8504414 34.64 44.12 34.7104828 44.3907349 34.8441363 44.640907 35.03 44.85L35.1 44.93 35.23 45.15 34.73 44.92 34.73 44.92C33.4038229 44.2331012 32.1536061 43.4085614 31 42.46 30.17 41.83 29.35 41.24 28.67 40.72 27.2817861 39.5442323 25.3439696 39.2646275 23.68 40L23.68 40C23.0998307 40.2697904 22.4301693 40.2697904 21.85 40L21.85 40C20.1920458 39.3235952 18.2969804 39.6074714 16.91 40.74 16.19 41.26 15.48 41.74 14.79 42.3L14.41 42.57C13.5388546 43.2421441 12.6271277 43.8599811 11.68 44.42 11.31 44.62 10.99 44.79 10.68 44.94 10.5400441 45.0107167 10.3965184 45.0741351 10.25 45.13 10.3443734 44.9836031 10.4479135 44.8433229 10.56 44.71 10.910359 44.3445227 10.9832172 43.7940388 10.74 43.35 10.6174145 43.1320416 10.4176159 42.9679214 10.18 42.89 10.0535108 42.8464241 9.92279323 42.8162585 9.79 42.8L9.17 42.8C9.01 42.8 8.84 42.8 8.63 42.85L8.49 42.85 8.4 42.85 8.55 42.74 8.7 42.63C8.97028873 42.4599567 9.22465666 42.2658338 9.46 42.05 9.70668449 41.8329524 9.84561575 41.5185291 9.84 41.19 9.82835066 40.7434189 9.54777026 40.3482352 9.13 40.19L9.13 40.19 8.9 40.1 8.48 40 8.41 40C8.4628158 39.9894925 8.5171842 39.9894925 8.57 40L8.79 40 8.9 40 9.67 39.84 9.74 39.84C9.88402328 39.8209094 10.0251088 39.7839585 10.16 39.73 10.6744162 39.5795427 10.9787451 39.0502751 10.85 38.53 10.7277218 38.1491118 10.4178185 37.858105 10.03 37.76L10.03 37.76C9.88920756 37.7140342 9.74557005 37.6772897 9.6 37.65L9 37.4 8 37.18C7.57580877 37.0903085 7.16316791 36.9527615 6.77 36.77L7 36.72 7.18 36.72C7.53278059 36.7028718 7.87604837 36.5998914 8.18 36.42 8.43457697 36.2544537 8.60013825 35.9821974 8.63 35.68 8.63883357 35.3172159 8.48024955 34.9705439 8.2 34.74L8.2 34.74C8.03566149 34.573014 7.85844882 34.4192068 7.67 34.28 7.51 34.15 7.36 34.02 7.24 33.9 7.17804889 33.8380118 7.12119794 33.7711284 7.07 33.7 7.19253896 33.6802038 7.31746104 33.6802038 7.44 33.7L7.77 33.79C8.01544247 33.8651716 8.26613314 33.9219948 8.52 33.96 8.89159107 34.0260796 9.27072122 33.8933841 9.52 33.61 9.79542235 33.2423867 9.86335413 32.7593163 9.7 32.33 9.7 32.19 9.61 32.07 9.57 31.96 9.53 31.85 9.52 31.86 9.5 31.82 9.48 31.78 9.45 31.65 9.43 31.58 9.71821514 31.7178299 9.99863796 31.8713948 10.27 32.04L10.27 32.04C10.7052602 32.3011441 11.1198134 32.5953432 11.51 32.92 11.77 33.14 12.03 33.37 12.3 33.62 12.57 33.87 12.91 34.18 13.24 34.45 13.84 34.94 14.49 35.45 15.17 35.93L15.17 35.93C15.6654805 36.2672662 16.250628 36.4483833 16.85 36.45 17.8019174 36.4470071 18.6989614 36.0040224 19.28 35.25 20.2367304 33.9917307 20.0530053 32.206973 18.86 31.17L18.22 30.59C16.5322545 29.1090265 14.7447084 27.7458138 12.87 26.51 11.87 25.84 10.87 25.2 10.04 24.67 9.78 24.5 9.52 24.35 9.26 24.19 8.66544162 23.8533398 8.09715878 23.4722561 7.56 23.05 7.21688627 22.7882791 6.94520018 22.4443726 6.77 22.05 6.73797306 21.9594141 6.73797306 21.8605859 6.77 21.77 6.77 21.77 6.77 21.77 6.77 21.77 7.25269506 21.7094256 7.74281451 21.7784565 8.19 21.97L8.83 22.15C9.29425006 22.2943152 9.79970173 22.1442592 10.11 21.77 10.4484966 21.2141446 10.4484966 20.5158554 10.11 19.96 9.98802955 19.6939022 9.84769061 19.4366141 9.69 19.19 9.48244567 18.8816542 9.3207592 18.5448074 9.21 18.19 9.17951966 18.0685499 9.17951966 17.9414501 9.21 17.82 9.37517605 17.7307719 9.56753248 17.7058368 9.75 17.75 10.1055893 17.7823811 10.4483665 17.8989253 10.75 18.09 10.8446349 18.1533614 10.9318489 18.2271578 11.01 18.31 11.3369833 18.6498032 11.747263 18.8980397 12.2 19.03 12.6115562 19.1267075 13.0437435 19.0016007 13.34 18.7 13.94 18.09 13.7 17.05 13.5 16.23L13.44 15.98C13.4378334 15.8242591 13.4720765 15.6701653 13.54 15.53 14.43 15.75 14.95 16.6 15.54 17.58 15.7954802 18.0190503 16.0759411 18.4430804 16.38 18.85 16.6395951 19.2262485 17.121273 19.378574 17.55 19.22 18.31 18.93 18.27 18.03 18.25 17.59 18.2029551 17.0813267 18.1194065 16.5766929 18 16.08L18 15.77C17.92 15.27 17.8 14.77 17.68 14.32 17.4052015 13.4128215 17.276922 12.4676046 17.3 11.52 17.3096988 11.373157 17.3399954 11.2284069 17.39 11.09L17.39 11.09C17.8963056 11.2925289 18.3312706 11.6405009 18.64 12.09 18.64 12.09 18.72 12.22 18.76 12.29 19.17 12.98 19.68 13.84 20.53 13.77 20.9952216 13.7240278 21.3884236 13.4055342 21.53 12.96 21.6648829 12.5833699 21.7783968 12.1994258 21.87 11.81 21.9784862 11.1965359 22.2171788 10.6134439 22.57 10.1 22.6750022 9.95396505 22.8266943 9.84813336 23 9.8 23.12 9.8 23.32 9.8 23.55 10.33 23.7536493 10.9253827 23.8845987 11.5431952 23.94 12.17 23.94 12.4 24 12.62 24.03 12.81 24.0582138 13.3252338 24.4261635 13.7585967 24.93 13.87 25.71 14.02 26.15 13.32 26.39 12.95L26.39 12.95C26.7862003 12.2732017 27.3381447 11.7006879 28 11.28L28 11.28C28.1330807 11.5719075 28.2013136 11.8891905 28.2 12.21 28.1628945 13.1620456 27.9808007 14.1028632 27.66 15 27.637945 15.0913027 27.6112436 15.1814199 27.58 15.27 27.45 15.69 27.33 16.12 27.22 16.57 27.22 16.64 27.22 16.72 27.15 16.81 26.9464522 17.3629346 26.894659 17.9602831 27 18.54 27.0933695 18.9497868 27.4330078 19.2574591 27.85 19.31 28.58 19.42 29.07 18.78 29.51 18.11L29.51 18.11C29.66 17.9 29.79 17.69 29.92 17.47 30.0790491 17.1678151 30.2737735 16.8858005 30.5 16.63 30.6315816 16.5148439 30.7799535 16.4204254 30.94 16.35 31.0059138 16.5599511 31.0263673 16.7815307 31 17 30.9674219 17.1758462 30.9240058 17.3495107 30.87 17.52 30.674312 18.0678877 30.6260332 18.6575792 30.73 19.23 30.8455597 19.620455 31.1440617 19.9301509 31.53 20.06 32.29 20.3 33.02 19.71 33.42 19.4L33.42 19.4C33.8619177 18.941345 34.4479254 18.6483412 35.08 18.57L35.27 18.57C35.314792 18.9983771 35.2200962 19.4297691 35 19.8 34.9097017 19.9787524 34.8095475 20.1523529 34.7 20.32 34.3281724 20.811691 34.0873103 21.3897602 34 22 33.9526949 22.3757605 34.0950889 22.7504817 34.38 23 34.7447172 23.2804111 35.2271268 23.3557876 35.66 23.2L36.46 22.98 37.06 22.81C37.3018504 22.7091228 37.5775604 22.7314777 37.8 22.87 37.8287088 22.899228 37.852364 22.9330211 37.87 22.97 37.87 23.15 37.58 23.47 37.38 23.7L37.38 23.7C37.0531913 24.0603738 36.6987842 24.3947202 36.32 24.7 35.1121539 25.6238599 33.7956828 26.3962792 32.4 27 31.1816591 27.571867 30.0112277 28.2406849 28.9 29 27.895567 29.7187928 27.0055189 30.585241 26.26 31.57 26.2209615 31.6101959 26.1903608 31.657797 26.17 31.71 25.2721648 32.8828203 25.361589 34.5346599 26.3807897 35.6036993 27.3999905 36.6727387 29.0456833 36.840863 30.26 36 30.3392883 35.9514894 30.4130567 35.8944866 30.48 35.83 31.16 35.32 31.87 34.76 32.7 34.04L32.91 33.87C33.54 33.33 34.13 32.82 34.77 32.37L34.87 32.3C35.2039563 32.0532132 35.5586081 31.835738 35.93 31.65L36.05 31.6 36.05 31.6C36.0163034 31.6615153 35.9862516 31.7249581 35.96 31.79 35.7767402 32.0918835 35.6766828 32.4369091 35.67 32.79 35.6691754 33.1572652 35.8438181 33.5028349 36.14 33.72 36.5166542 33.9533003 36.9838089 33.9869355 37.39 33.81L37.47 33.81C37.7616072 33.7185678 38.0645017 33.6680853 38.37 33.66 38.2246532 33.8403806 38.0603806 34.0046532 37.88 34.15L37.81 34.2C37.6263807 34.3274348 37.4494776 34.4642844 37.28 34.61 36.786475 34.9546962 36.6616952 35.632072 37 36.13 37.3346056 36.5353829 37.8460338 36.7518999 38.37 36.71L38.51 36.71 38.65 36.71 38.19 36.93zM40.23 5.6C38.020861 5.6 36.23 7.390861 36.23 9.6 36.23 11.809139 38.020861 13.6 40.23 13.6 42.439139 13.6 44.23 11.809139 44.23 9.6 44.23 8.53913404 43.8085726 7.52171839 43.0584271 6.77157288 42.3082816 6.02142736 41.290866 5.6 40.23 5.6zM40.23 11.6C39.1254305 11.6 38.23 10.7045695 38.23 9.6 38.23 8.4954305 39.1254305 7.6 40.23 7.6 41.3345695 7.6 42.23 8.4954305 42.23 9.6 42.23 10.7045695 41.3345695 11.6 40.23 11.6zM49 19.33C51.209139 19.33 53 17.539139 53 15.33 53 13.120861 51.209139 11.33 49 11.33 46.790861 11.33 45 13.120861 45 15.33 45 17.539139 46.790861 19.33 49 19.33zM49 13.33C50.1045695 13.33 51 14.2254305 51 15.33 51 16.4345695 50.1045695 17.33 49 17.33 47.8954305 17.33 47 16.4345695 47 15.33 47 14.2254305 47.8954305 13.33 49 13.33zM49.43 21.33C47.220861 21.33 45.43 23.120861 45.43 25.33 45.43 27.539139 47.220861 29.33 49.43 29.33 51.639139 29.33 53.43 27.539139 53.43 25.33 53.43 23.120861 51.639139 21.33 49.43 21.33zM49.43 27.33C48.3254305 27.33 47.43 26.4345695 47.43 25.33 47.43 24.2254305 48.3254305 23.33 49.43 23.33 50.5345695 23.33 51.43 24.2254305 51.43 25.33 51.43 26.4345695 50.5345695 27.33 49.43 27.33zM47.56 32C45.350861 32 43.56 33.790861 43.56 36 43.56 38.209139 45.350861 40 47.56 40 49.769139 40 51.56 38.209139 51.56 36 51.56 33.790861 49.769139 32 47.56 32zM47.56 38C46.4554305 38 45.56 37.1045695 45.56 36 45.56 34.8954305 46.4554305 34 47.56 34 48.6645695 34 49.56 34.8954305 49.56 36 49.56 37.1045695 48.6645695 38 47.56 38zM47.48 42C45.270861 42 43.48 43.790861 43.48 46 43.48 48.209139 45.270861 50 47.48 50 49.689139 50 51.48 48.209139 51.48 46 51.48 43.790861 49.689139 42 47.48 42zM47.48 48C46.3754305 48 45.48 47.1045695 45.48 46 45.48 44.8954305 46.3754305 44 47.48 44 48.5845695 44 49.48 44.8954305 49.48 46 49.48 47.1045695 48.5845695 48 47.48 48z"/>
      <path id="Path" fill="#3D454C" fill-rule="nonzero" d="M19,53 C18.4477153,53 18,53.4477153 18,54 C18,54.5522847 18.4477153,55 19,55 C19.5522847,55 20,54.5522847 20,54 C20,53.4477153 19.5522847,53 19,53 Z"/>
    </g>
  </g>
</svg>
