<svg xmlns="http://www.w3.org/2000/svg" width="64" height="64" viewBox="0 0 64 64" style="background:#fff">
  <g id="Kräutertee" fill="none" fill-rule="evenodd" stroke="none" stroke-width="1">
    <rect width="64" height="64" fill="#FFF"/>
    <g transform="translate(2 4)">
      <rect id="Rectangle" width="60" height="60" x="0" y="0"/>
      <rect id="Rectangle" width="60" height="60" x="0" y="0"/>
      <g id="Group" fill="#BAB41D" fill-rule="nonzero" opacity=".5" transform="translate(22 34)">
        <path id="Path" d="M16.15,1.47 C12.58,-0.78 8.6,0.77 5.33,2.99 C3.6,4.16 1.49,5.55 0.74,7.6 C-0.01,9.65 0.12,12.87 2.04,14.17 C2.95762629,14.9898912 4.35462444,14.9548567 5.23,14.09 C8.68,10.53 13.53,8.35 16.47,4.41 C17,3.72 17,2 16.15,1.47 Z"/>
      </g>
      <path id="Path" fill="#3D454C" fill-rule="nonzero" d="M27.94 18.33C28.12842 18.562277 28.4109167 18.6980222 28.71 18.7000019 28.9436522 18.7004565 29.1700879 18.6190812 29.35 18.47 29.5559883 18.3018842 29.6865453 18.0586565 29.7128159 17.7940739 29.7390865 17.5294913 29.6589076 17.2653395 29.49 17.06 28.358571 15.6675241 28.358571 13.6724759 29.49 12.28 31.2665854 10.3193957 31.2448526 7.32461416 29.44 5.39 29.0534007 4.992355 28.417645 4.98340071 28.02 5.37000002 27.622355 5.75659934 27.6134007 6.39235498 28 6.79 29.0871207 7.99192866 29.0609315 9.82954002 27.94 11 26.2004078 13.1336968 26.2004078 16.1963032 27.94 18.33L27.94 18.33zM33.86 19.46C34.0281158 19.6659883 34.2713435 19.7965453 34.5359261 19.8228159 34.8005087 19.8490865 35.0646605 19.7689076 35.27 19.6 35.6925888 19.2506324 35.755039 18.6261303 35.41 18.2 34.8345021 17.4884693 34.8345021 16.4715307 35.41 15.76 36.6458977 14.406387 36.6240591 12.3273529 35.36 11 34.9764468 10.6442828 34.3835532 10.6442828 34 11 33.6122764 11.3900375 33.6122764 12.0199625 34 12.41 34.5488296 13.0081308 34.5222399 13.9343401 33.94 14.5 32.7414227 15.9255141 32.7080185 17.9965737 33.86 19.46zM21.68 19.46C21.8481158 19.6659883 22.0913435 19.7965453 22.3559261 19.8228159 22.6205087 19.8490865 22.8846605 19.7689076 23.09 19.6 23.5125888 19.2506324 23.575039 18.6261303 23.23 18.2 22.6545021 17.4884693 22.6545021 16.4715307 23.23 15.76 24.461003 14.4045219 24.4392047 12.3293205 23.18 11 22.7911565 10.6188571 22.1688435 10.6188571 21.78 11 21.3922764 11.3900375 21.3922764 12.0199625 21.78 12.41 22.3288296 13.0081308 22.3022399 13.9343401 21.72 14.5 20.533219 15.9350458 20.5165178 18.0060004 21.68 19.46L21.68 19.46z"/>
      <path id="Shape" fill="#3D454C" fill-rule="nonzero" d="M54.27,35.09 C53.0256803,33.2180233 50.9278042,32.0921506 48.68,32.09 L48.53,32.09 C48.6356916,30.3541594 48.6156393,28.6129462 48.47,26.88 C48.47,26.83 48.47,26.79 48.47,26.74 C48.4747474,26.6700805 48.4747474,26.5999195 48.47,26.53 C48.47,25.36 47.39,24.53 41.89,23.9 C37.2759634,23.4207147 32.6386936,23.2003693 28,23.24 C23.364092,23.2112508 18.7302,23.44161 14.12,23.93 C8.62,24.58 7.54,25.39 7.54,26.56 C7.53529933,26.6265838 7.53529933,26.6934162 7.54,26.76 C7.5354571,26.799871 7.5354571,26.840129 7.54,26.88 C7.27,30.14 7.13,38.54 11.62,46.1 C12.0994046,46.8998699 12.6201087,47.6742504 13.18,48.42 C16.3683083,52.8204648 21.3650057,55.5556152 26.79,55.87 C27.27,55.87 27.79,55.87 28.21,55.87 L29.06,55.87 L29.39,55.87 C35.33,55.61 40.91,52.04 44.3,46.33 C44.53,45.95 44.76,45.56 44.97,45.16 C46.1541598,42.9192187 47.0480222,40.5367057 47.63,38.07 L48.28,38.07 C48.7069899,38.0696162 49.1069443,38.2789381 49.35,38.63 C49.498493,38.839789 49.5724267,39.0932761 49.56,39.35 L49.47,42.15 C49.4541301,42.6178477 49.1698244,43.0345699 48.74,43.22 L48.21,43.47 C48.0325823,43.5593158 47.8383999,43.6104164 47.64,43.62 C47.0877153,43.62 46.64,44.0677153 46.64,44.62 C46.64,45.1722847 47.0877153,45.62 47.64,45.62 C48.1276087,45.6074793 48.6074793,45.4951691 49.05,45.29 L49.58,45.04 C50.6993449,44.5357094 51.433018,43.4371407 51.47,42.21 L51.56,39.42 C51.5928794,38.7354334 51.3957469,38.0595505 51,37.5 C50.3862662,36.6085511 49.3722859,36.0772403 48.29,36.08 L48.06,36.08 C48.18,35.41 48.27,34.76 48.34,34.08 L48.67,34.08 C50.2486508,34.0802146 51.7244963,34.863087 52.61,36.17 C53.1824859,37.000158 53.47342,37.9921382 53.44,39 L53.33,42.65 C53.2726149,44.4390543 52.2184529,46.0453964 50.6,46.81 C48.9413537,47.486485 47.1929878,47.9176812 45.41,48.09 C44.8577153,48.09 44.41,48.5377153 44.41,49.09 C44.41,49.6422847 44.8577153,50.09 45.41,50.09 C47.4744312,49.9159533 49.4989162,49.4199545 51.41,48.62 C53.7133524,47.5398125 55.2107323,45.2531161 55.28,42.71 L55.4,39.06 C55.451886,37.6505576 55.056329,36.2608573 54.27,35.09 L54.27,35.09 Z M43.22,44.24 C43.02,44.61 42.82,44.96 42.61,45.31 C39.55,50.44 34.61,53.65 29.36,53.88 L28.99,53.88 C28.32,53.88 27.62,53.88 26.92,53.88 C22.0833433,53.597953 17.6312585,51.1515103 14.8,47.22 C14.280141,46.5343121 13.7993773,45.8198438 13.36,45.08 C10.5538081,40.0521914 9.20335322,34.3421913 9.46,28.59 C11.1034657,28.975722 12.7756926,29.226556 14.46,29.34 C15.0094401,29.3921958 15.4972823,28.9893903 15.55,28.44 C15.6021958,27.8905599 15.1993903,27.4027177 14.65,27.35 C13.118394,27.2436957 11.5972377,27.0197013 10.1,26.68 C12.25,26 18.7,25.24 28.02,25.24 C37.34,25.24 43.82,26 46,26.69 C43.78,27.26 37.33,27.88 28.06,27.88 C25.93,27.88 24.16,27.88 22.34,27.8 L22.34,27.8 C21.7877153,27.8 21.34,28.2477153 21.34,28.8 C21.34,29.3522847 21.7877153,29.8 22.34,29.8 C24.18,29.86 25.97,29.88 28.12,29.88 C32.84,29.88 42.57,29.88 46.68,28.54 C46.9273606,33.9865417 45.7338925,39.4019893 43.22,44.24 L43.22,44.24 Z"/>
      <path id="Path" fill="#3D454C" fill-rule="nonzero" d="M18.48,27.77 C17.9277153,27.77 17.48,28.2177153 17.48,28.77 C17.48,29.3222847 17.9277153,29.77 18.48,29.77 C19.0322847,29.77 19.48,29.3222847 19.48,28.77 C19.48,28.2177153 19.0322847,27.77 18.48,27.77 Z"/>
      <path id="Shape" fill="#3D454C" fill-rule="nonzero" d="M38.37,34.73 C34.7495888,33.0660854 30.5272079,33.3857238 27.1985394,35.5756908 C23.8698709,37.7656578 21.9050237,41.5166636 22,45.5 C22,45.5 22,45.5 22,45.57 C21.4354504,46.309165 20.9838535,47.1281055 20.66,48 C20.4965367,48.524475 20.7867657,49.0826077 21.31,49.25 C21.4058176,49.2859403 21.5077054,49.3029216 21.61,49.3 C22.0452629,49.2982843 22.4294235,49.0152186 22.56,48.6 C22.8160176,47.9539516 23.1519671,47.3425235 23.56,46.78 C24.7639988,47.2382475 26.0417456,47.4721057 27.33,47.47 C29.6009784,47.4459689 31.8139965,46.7500512 33.69,45.47 C37.1649373,43.3788257 39.1737633,39.5156987 38.89,35.47 C38.8444898,35.1545637 38.65135,34.879711 38.37,34.73 Z M32.6,43.81 C30.3919609,45.3645635 27.6065547,45.8556746 25,45.15 C26.7284958,43.4485514 28.764626,42.0911313 31,41.15 C31.5017535,40.9227874 31.7253043,40.3326133 31.5,39.83 C31.3927185,39.5872133 31.1933133,39.3970393 30.9457178,39.3013774 C30.6981224,39.2057155 30.4226524,39.2124151 30.18,39.32 C28.015155,40.2514141 26.0158291,41.5280107 24.26,43.1 C24.788746,40.6908195 26.24803,38.5881567 28.32,37.25 C30.877269,35.5417364 34.1007046,35.1695152 36.98,36.25 C36.9231619,39.3571979 35.267321,42.2152247 32.6,43.81 L32.6,43.81 Z"/>
      <path id="Path" fill="#3D454C" fill-rule="nonzero" d="M33.81,39.58 C34.3622847,39.58 34.81,39.1322847 34.81,38.58 C34.81,38.0277153 34.3622847,37.58 33.81,37.58 C33.2577153,37.58 32.81,38.0277153 32.81,38.58 C32.81,39.1322847 33.2577153,39.58 33.81,39.58 Z"/>
    </g>
  </g>
</svg>
