<svg xmlns="http://www.w3.org/2000/svg" width="64" height="64" viewBox="0 0 64 64" style="background:#fff">
  <g id="Kreuzkümmel" fill="none" fill-rule="evenodd" stroke="none" stroke-width="1">
    <rect width="64" height="64" fill="#FFF"/>
    <g id="3-1-Kreuzkümmel" transform="translate(2 4)">
      <rect id="Rectangle" width="60" height="60" x="0" y="0"/>
      <rect id="Rectangle" width="60" height="60" x="0" y="0"/>
      <path id="Path" fill="#E0A075" fill-rule="nonzero" d="M14 11.71C13.5712381 10.9582594 12.6682006 10.6180452 11.85 10.9 11.0118578 11.4137465 10.4637763 12.2914174 10.37 13.27 10.1864702 14.0467157 10.0925244 14.8418997 10.09 15.64 10.0993894 16.5062919 10.3190161 17.3573454 10.73 18.12 11.0130638 18.7631668 11.5268332 19.2769362 12.17 19.56L12.29 19.56C13.2240808 19.8574381 14.2360662 19.4340132 14.68 18.56 16.16 16.44 15.52 13.59 14 11.71zM22.5 13.3C22.42 13.09 22.33 12.88 22.24 12.68L22.24 12.68C22.24 11.59 21.42 10.08 20.33 9.9 18.87 9.65 18.09 11.6 17.75 12.68 17 15 17.17 18.1 19.08 19.87 19.8685166 20.5899553 21.083516 20.5635423 21.84 19.81 22.7372807 18.8218151 23.1955246 17.5120314 23.11 16.18 23.1095187 15.1879877 22.9017448 14.2070225 22.5 13.3zM32.8 10.9C32.7378972 10.6141146 32.654327 10.3333187 32.55 10.06 32.3116654 9.50275747 31.8971484 9.03906047 31.37 8.74 30.04 7.74 28.11 9.85 27.56 10.83 26.26 13.19 25.39 16.55 27.29 18.83 27.855292 19.8601729 29.0680915 20.3494748 30.19 20L30.28 20C31.88 19.47 32.34 17.25 32.44 15.74 32.44 15.68 32.44 15.63 32.44 15.55 32.44 15.47 32.49 15.16 32.53 14.96 32.63 14.47 32.68 13.96 32.76 13.47 32.9492326 12.6251171 32.9628474 11.7503628 32.8 10.9L32.8 10.9z" opacity=".5"/>
      <g id="Group" fill="#E0A075" fill-rule="nonzero" opacity=".5" transform="translate(34 7)">
        <path id="Path" d="M8.57,3.33 C8.47170847,2.85274102 8.27781406,2.40032075 8,2 C7.78462613,1.65834995 7.47086367,1.38990873 7.1,1.23 C6.1,0.31 4.72,1.23 3.95,1.8 C3.30410491,2.28670956 2.76327193,2.89897331 2.36,3.6 C0.89,5.93 0,9 1.3,11.65 C2.04,13.17 3.14,14.25 4.89,13.75 C5.7455744,13.4017943 6.41396724,12.7079735 6.73,11.84 C7.00082588,11.1564568 7.23450019,10.458772 7.43,9.75 L7.61,9.21 C7.74,8.85 7.86,8.5 7.98,8.14 C8.3063136,7.23435194 8.53102461,6.29526113 8.65,5.34 C8.7336491,4.67014256 8.70662214,3.99109043 8.57,3.33 Z"/>
      </g>
      <g id="Group" fill="#E0A075" fill-rule="nonzero" opacity=".5" transform="translate(43 8)">
        <path id="Path" d="M5.26,0.5 C4.3795538,0.912631323 3.62397909,1.5509022 3.07,2.35 C1.66662537,3.76825884 0.916682712,5.70651644 1,7.7 C1.14,9.3 1.83,12.04 4,11.97 L4.16,11.97 C5.05640338,11.8874541 5.85210012,11.361994 6.28,10.57 C6.78196965,9.60250549 7.21310084,8.59987481 7.57,7.57 C7.7,7.18 7.84,6.79 7.95,6.39 C8.15277661,5.55094772 8.26673688,4.69289391 8.29,3.83 C8.31,2.27 7.12,-0.2 5.26,0.5 Z"/>
      </g>
      <g id="Group" fill="#E0A075" fill-rule="nonzero" opacity=".5" transform="translate(41 28)">
        <path id="Path" d="M11.8,14 C11.03,10.13 12.18,2.46 7.34,0.69 C1.85,-1.31 -0.16,9.08 0.19,12.64 C0.215447807,13.2355889 0.425087938,13.8086053 0.79,14.28 C0.849807199,15.2254083 1.04166906,16.1577897 1.36,17.05 C2.35765693,19.925659 4.96518373,21.9362821 8,22.17 C11.68,22.27 12.28,16.44 11.8,14 Z"/>
      </g>
      <path id="Path" fill="#3D454C" fill-rule="nonzero" d="M51.6,43.17 C51.4803237,42.7924686 51.0782063,42.582474 50.7,42.7 C49.450983,42.935275 48.169017,42.935275 46.92,42.7 C46.06,42.6 45.09,42.49 44.1,42.45 C43.5025394,42.1337126 42.8805189,41.8661768 42.24,41.65 C43.63,41.35 45.24,41.1 47.24,40.8 L50.67,40.28 C51.0630818,40.2135757 51.330183,39.8440857 51.27,39.45 C51.2407379,39.2604244 51.136014,39.0907552 50.9796689,38.9796183 C50.8233238,38.8684815 50.6286624,38.8253345 50.44,38.86 L47.03,39.38 C45.75,39.57 44.64,39.73 43.63,39.91 L44.04,39.38 L44.1,39.3 C44.656457,38.5882196 45.1077363,37.8001646 45.44,36.96 C45.44,36.85 45.58,36.67 45.69,36.46 C46.0487719,35.9434859 46.2722575,35.345232 46.34,34.72 C46.3184568,34.313629 45.9767813,33.9985776 45.57,34.01 C45.3842889,34.0177882 45.2093004,34.0991181 45.0836157,34.2360582 C44.9579309,34.3729983 44.8918707,34.5543035 44.9,34.74 C44.764736,35.0846518 44.6043031,35.4188869 44.42,35.74 C44.3054931,35.9477382 44.2020162,36.1613679 44.11,36.38 C44.03,35.92 43.94,35.46 43.83,34.99 C43.83,34.81 43.76,34.68 43.75,34.6 C43.685299,34.2405399 43.3648954,33.984217 43,34 C42.8104244,34.0292621 42.6407552,34.133986 42.5296183,34.2903311 C42.4184815,34.4466762 42.3753345,34.6413376 42.41,34.83 C42.41,34.92 42.41,35.08 42.51,35.3 C42.7964938,36.3620282 42.9245424,37.4605504 42.89,38.56 C42.68,38.83 42.47,39.09 42.28,39.31 C41.9946743,39.6202508 41.7370263,39.9548587 41.51,40.31 C40.4135019,40.5543501 39.3446767,40.9095083 38.32,41.37 L38.32,41.37 L38.32,41.37 C36.14,42.37 34.15,44.05 31.32,47.12 L31.32,33.56 C39,33.21 45.47,27.4 47.91,19.38 C48.3104998,19.2987387 48.684843,19.1201529 49,18.86 C50.3,17.86 51.3,15.6 51.62,12.95 C51.6425529,12.7603685 51.5888464,12.5695451 51.4706967,12.4195138 C51.3525471,12.2694825 51.1796337,12.1725346 50.99,12.15 C50.5967101,12.1086451 50.2420041,12.3879761 50.19,12.78 C50.0809481,14.5300095 49.419165,16.200224 48.3,17.55 C48.6826853,15.8362859 48.8771703,14.0859202 48.88,12.33 C48.9126542,12.0543649 48.7839617,11.7845047 48.5492247,11.6363846 C48.3144877,11.4882646 48.0155123,11.4882646 47.7807753,11.6363846 C47.5460383,11.7845047 47.4173458,12.0543649 47.45,12.33 C47.4451009,14.0880736 47.2370542,15.839692 46.83,17.55 C46.17,16.75 45.66,14.81 45.98,12.17 C45.9807522,11.8048939 45.7081058,11.4970216 45.3455876,11.4536215 C44.9830693,11.4102215 44.6454536,11.6450342 44.56,12 C44.15,15.37 44.93,18.17 46.42,19.09 C44.56,25.09 40.31,29.71 35.02,31.43 C37.42,28.98 39.26,24.61 40.11,19.21 C40.5338645,19.1075996 40.9256165,18.9014143 41.25,18.61 C42.48,17.54 43.36,15.22 43.53,12.61 C43.5437314,12.4189352 43.4807587,12.230275 43.3550163,12.085765 C43.2292739,11.9412551 43.0511288,11.8528098 42.86,11.84 C42.4713071,11.8326061 42.1413978,12.1234472 42.1,12.51 C41.93,15.04 41.1,16.85 40.34,17.51 C40.5387789,15.7971683 40.638944,14.0743272 40.64,12.35 C40.64,12.0927688 40.5027688,11.8550773 40.28,11.7264617 C40.0572312,11.597846 39.7827688,11.597846 39.56,11.7264617 C39.3372312,11.8550773 39.2,12.0927688 39.2,12.35 C39.198064,14.0211054 39.0978912,15.6906519 38.9,17.35 C37.9897998,15.7790335 37.6373908,13.9465068 37.9,12.15 C37.9414213,11.7413093 37.6436907,11.3764214 37.235,11.335 C36.8263093,11.2935787 36.4614214,11.5913093 36.42,12 C36.2,15.38 37.13,18.12 38.67,19 C37.52,26.08 34.62,31.41 31.24,32.08 L31.24,18.88 C32.84,18.17 33.96,15.49 33.96,12.09 C33.96,11.692355 33.637645,11.37 33.24,11.37 C32.842355,11.37 32.52,11.692355 32.52,12.09 C32.634142,13.8502137 32.1859005,15.6011571 31.24,17.09 L31.24,12.33 C31.24,11.932355 30.917645,11.61 30.52,11.61 C30.122355,11.61 29.8,11.932355 29.8,12.33 L29.8,17.33 C29.04,16.65 28.27,14.79 28.27,12.09 C28.27,11.692355 27.947645,11.37 27.55,11.37 C27.152355,11.37 26.83,11.692355 26.83,12.09 C26.83,15.66 28.07,18.44 29.83,18.97 L29.83,32.08 C26.46,31.41 23.58,26.13 22.42,19.08 C24.06,18.37 25.08,15.54 24.85,12.08 C24.8130654,11.6870673 24.4742662,11.392268 24.08,11.41 C23.6886038,11.4418889 23.392565,11.7776941 23.41,12.17 C23.59,14.92 22.92,16.85 22.19,17.55 C21.9797865,15.8312913 21.8729277,14.101514 21.87,12.37 C21.87,11.972355 21.547645,11.65 21.15,11.65 C20.752355,11.65 20.43,11.972355 20.43,12.37 C20.4318824,14.0136503 20.5220121,15.6560141 20.7,17.29 C19.7290989,15.8790013 19.1968105,14.2125559 19.17,12.5 C19.1332385,12.1110667 18.8004733,11.817708 18.41,11.83 C18.2188712,11.8428098 18.0407261,11.9312551 17.9149837,12.075765 C17.7892413,12.220275 17.7262686,12.4089352 17.74,12.6 C17.91,15.26 18.79,17.6 20.02,18.6 C20.290493,18.8407626 20.6068131,19.0244323 20.95,19.14 C21.8,24.57 23.64,28.96 26.05,31.42 C20.7,29.71 16.44,25 14.59,19 C16,18 16.73,15.26 16.34,12 C16.2880363,11.6036435 15.9269519,11.3228002 15.53,11.37 C15.1391473,11.4219214 14.8627568,11.7785543 14.91,12.17 C15.2461862,13.9472518 14.9860503,15.7857798 14.17,17.4 C13.7873031,15.7370715 13.5927483,14.036394 13.59,12.33 C13.59,11.932355 13.267645,11.61 12.87,11.61 C12.472355,11.61 12.15,11.932355 12.15,12.33 C12.1549836,14.1441677 12.362944,15.9520818 12.77,17.72 L12.77,17.72 C12,17.1 11,15.33 10.69,12.78 C10.6292487,12.3851164 10.2598836,12.1142487 9.865,12.175 C9.4701164,12.2357513 9.19924868,12.6051164 9.26,13 C9.59,15.65 10.59,17.91 11.88,18.91 C12.2610144,19.2161425 12.7234115,19.4038827 13.21,19.45 C15.66,27.45 22.13,33.26 29.8,33.61 L29.8,50.37 C29.8,50.767645 30.122355,51.09 30.52,51.09 C30.917645,51.09 31.24,50.767645 31.24,50.37 L31.24,49.3 C34.47,45.66 36.46,43.83 38.74,42.74 C40.0225362,42.4804593 41.3551865,42.6637868 42.52,43.26 C43.99,45.66 44.52,46.74 44.12,48.2 C44.0639571,48.3829999 44.0830806,48.5807827 44.1731461,48.7496554 C44.2632115,48.9185281 44.4168066,49.0445928 44.6,49.1 L44.81,49.1 C45.126178,49.0973716 45.4047211,48.8914919 45.5,48.59 C45.8675756,47.2349791 45.6614397,45.7884113 44.93,44.59 C46.2281426,45.4339039 47.4465322,46.3945573 48.57,47.46 C48.7035589,47.582811 48.8785611,47.6506691 49.06,47.65 C49.2597523,47.6545078 49.4521586,47.574641 49.59,47.43 C49.8592355,47.1510325 49.8592355,46.7089675 49.59,46.43 C48.7075807,45.6113703 47.7794223,44.8434695 46.81,44.13 C47.6820917,44.2487393 48.5601162,44.3188477 49.44,44.34 C50.021063,44.3522201 50.6007193,44.278078 51.16,44.12 C51.3460854,44.0547103 51.497839,43.9169099 51.5807189,43.7379646 C51.6635989,43.5590192 51.6705536,43.3541541 51.6,43.17 L51.6,43.17 Z"/>
      <path id="Path" fill="#3D454C" fill-rule="nonzero" d="M46.46 30.18C45.9077153 30.18 45.46 30.6277153 45.46 31.18 45.46 31.7322847 45.9077153 32.18 46.46 32.18L46.58 32.18C47.1322847 32.18 47.58 31.7322847 47.58 31.18 47.58 30.6277153 47.1322847 30.18 46.58 30.18L46.46 30.18zM14 42.81C14.1871865 42.6212812 14.2915368 42.365803 14.2900167 42.1 14.2810409 41.8393015 14.1780301 41.5906548 14 41.4L12.24 39.4C12.0512812 39.2128135 11.795803 39.1084632 11.53 39.1099833 11.265233 39.1136835 11.0116338 39.2172663 10.82 39.4 10.6328135 39.5887188 10.5284632 39.844197 10.5299833 40.11 10.5400982 40.3734203 10.6427895 40.6248369 10.82 40.82 11.41 41.48 12 42.15 12.58 42.82 12.7687188 43.0071865 13.024197 43.1115368 13.29 43.1100167 13.55614 43.1036224 13.8099218 42.9963906 14 42.81L14 42.81zM14.7 32.84C14.1477153 32.84 13.7 33.2877153 13.7 33.84 13.7 34.3922847 14.1477153 34.84 14.7 34.84 15.2522847 34.84 15.7 34.3922847 15.7 33.84 15.7 33.2877153 15.2522847 32.84 14.7 32.84zM17.21 40.3500167C17.4723399 40.3488954 17.7237394 40.2447442 17.91 40.06 18.0931331 39.8677685 18.1998078 39.6153051 18.21 39.35L18.3300167 37.22C18.3315368 36.954197 18.2271865 36.6987188 18.04 36.51 17.8512812 36.3228135 17.595803 36.2184632 17.33 36.2199833 17.0676601 36.2211046 16.8162606 36.3252558 16.63 36.51 16.4498802 36.7041934 16.3436993 36.9554881 16.33 37.22L16.2099833 39.35C16.2084632 39.615803 16.3128135 39.8712812 16.5 40.06 16.6887188 40.2471865 16.944197 40.3515368 17.21 40.3500167zM19.51 44.94C19.3253695 44.7515857 19.0737693 44.643757 18.81 44.64 18.5427541 44.6411094 18.2870714 44.7491444 18.1 44.94 17.9094096 45.1223156 17.8041813 45.3763149 17.81 45.64 17.8183604 45.9037932 17.9212876 46.1557872 18.1 46.35L19.74 48.22C19.9246305 48.4084143 20.1762307 48.516243 20.44 48.52 20.7072459 48.5188906 20.9629286 48.4108556 21.15 48.22 21.3405904 48.0376844 21.4458187 47.7836851 21.44 47.52 21.4316396 47.2562068 21.3287124 47.0042128 21.15 46.81L19.51 44.94zM22.72 40.23C22.1677153 40.23 21.72 40.6777153 21.72 41.23 21.72 41.7822847 22.1677153 42.23 22.72 42.23 23.2722847 42.23 23.72 41.7822847 23.72 41.23 23.72 40.6777153 23.2722847 40.23 22.72 40.23zM14.85 46.28C14.5940602 46.2095164 14.3205976 46.2436928 14.0898766 46.3749974 13.8591555 46.5063021 13.6901124 46.7239583 13.62 46.98 13.33 47.85 13.05 48.71 12.76 49.57 12.6108831 50.1029548 12.9220452 50.6558831 13.455 50.805 13.9879548 50.9541169 14.5408831 50.6429548 14.69 50.11L15.55 47.51C15.6204836 47.2540602 15.5863072 46.9805976 15.4550026 46.7498766 15.3236979 46.5191555 15.1060417 46.3501124 14.85 46.28zM17.33 52.14C16.7777153 52.14 16.33 52.5877153 16.33 53.14 16.33 53.6922847 16.7777153 54.14 17.33 54.14 17.8822847 54.14 18.33 53.6922847 18.33 53.14 18.33 52.5877153 17.8822847 52.14 17.33 52.14zM7.06 44.74C6.50771525 44.74 6.06 45.1877153 6.06 45.74 6.06 46.2922847 6.50771525 46.74 7.06 46.74 7.61228475 46.74 8.06 46.2922847 8.06 45.74 8.06 45.1877153 7.61228475 44.74 7.06 44.74zM9.06 32.84C8.50771525 32.84 8.06 33.2877153 8.06 33.84 8.06 34.3922847 8.50771525 34.84 9.06 34.84 9.61228475 34.84 10.06 34.3922847 10.06 33.84 10.06 33.2877153 9.61228475 32.84 9.06 32.84z"/>
    </g>
  </g>
</svg>
