<svg xmlns="http://www.w3.org/2000/svg" width="64" height="64" viewBox="0 0 64 64" style="background:#fff">
  <g id="Kräuter" fill="none" fill-rule="evenodd" stroke="none" stroke-width="1">
    <rect width="64" height="64" fill="#FFF"/>
    <g transform="translate(2 6)">
      <rect id="Rectangle" width="60" height="60" x="0" y="0"/>
      <rect id="Rectangle" width="60" height="60" x="0" y="0"/>
      <g id="Group" fill="#E0673A" fill-rule="nonzero" opacity=".5" transform="translate(33 10)">
        <path id="Path" d="M5.55,8.32 C5.4,6.25 5.13,3.74 3.89,1.98 C3.61,1.58 2.23,-0.02 1.6,0.64 C-0.2,2.47 0.12,6.12 0.18,8.45 C0.18,10 1.04,12.52 2.97,12.45 C4.9,12.38 5.66,9.83 5.55,8.32 Z"/>
      </g>
      <path id="Path" fill="#E0673A" fill-rule="nonzero" d="M17.87,24.93 C15.2,23.57 13.39,20.67 10.62,19.61 C10.3,19.49 10.13,19.86 10.08,20.1 C9.08,24.76 12.62,29.32 16.08,31.97 C19.43,34.49 21.27,26.66 17.87,24.93 Z" opacity=".5"/>
      <path id="Path" fill="#31E085" fill-rule="nonzero" d="M33.53,23.19 C33,17.86 31.33,12.62 26.77,9.36 C22.89,6.58 18.63,7.22 14.29,6 C13.3819422,5.66289385 12.3699399,6.10481625 12,7 L11.89,7.07 C8.44,9.77 10,15.84 12,18.89 C13.382696,20.7492328 14.991769,22.4288497 16.79,23.89 C17.93,24.89 20.21,26.37 20.87,27.77 C22.13,30.45 24.71,32.22 27.08,30.31 C27.6253837,30.5944218 28.2353101,30.7322583 28.85,30.71 C32.19,30.67 33.8,25.93 33.53,23.19 Z" opacity=".5"/>
      <g id="Group" fill="#CCC" fill-rule="nonzero" opacity=".5" transform="translate(5 24)">
        <path id="Path" d="M48.77,6.63 C48.27,4.33 45.6,-0.64 42.39,1.38 C34.85,6.14 26.51,8.62 17.56,7.61 C14.93,7.31 0.19,1.93 0.88,8.22 C1.88,16.78 12.07,20.12 19.4,21.22 C28.4046627,22.6905979 37.6390371,20.9188454 45.46,16.22 C48.62,14.24 49.54,10.15 48.77,6.63 Z"/>
      </g>
      <path id="Path" fill="#3D454C" fill-rule="nonzero" d="M12.23,28.26 C12.23,27.7077153 11.7822847,27.26 11.23,27.26 C10.6777153,27.26 10.23,27.7077153 10.23,28.26 C10.23,32.14 20.38,33.91 29.81,33.91 C39.24,33.91 49.39,32.14 49.39,28.26 C49.39,27.7077153 48.9422847,27.26 48.39,27.26 C47.8377153,27.26 47.39,27.7077153 47.39,28.26 C47.39,29.35 41.39,31.91 29.81,31.91 C18.23,31.91 12.23,29.35 12.23,28.26 Z"/>
      <path id="Path" fill="#3D454C" fill-rule="nonzero" d="M48.09,21.6 L49.31,18.35 C52.7078915,17.8743574 55.1312562,14.8110813 54.8121714,11.3949303 C54.4930867,7.97877925 51.5443415,5.41728379 48.1171406,5.57913735 C44.6899396,5.74099091 41.9957192,8.568982 42,12 C41.9982831,13.1482479 42.3094238,14.2752686 42.9,15.26 L35.13,29.33 C34.8686451,29.8109005 35.0424574,30.4125587 35.52,30.68 C35.6694557,30.7647023 35.8382117,30.8094743 36.01,30.81 C36.3728678,30.8073572 36.7058284,30.6083462 36.88,30.29 L44.88,15.69 C45.0660266,15.3499129 45.0387488,14.9329523 44.81,14.62 C44.2652242,13.8565221 43.981168,12.9377231 44,12 C44.0046752,10.1013504 45.2240443,8.41881735 47.0269076,7.8233547 C48.829771,7.22789204 50.8113843,7.85318165 51.9459765,9.37554582 C53.0805687,10.89791 53.1134228,12.9755768 52.0275321,14.5330534 C50.9416415,16.0905301 48.9807893,16.7781619 47.16,16.24 C46.6327756,16.0845967 46.0789585,16.3838366 45.92,16.91 C45.8422939,17.1646104 45.8693131,17.4396954 45.9950725,17.6743212 C46.1208319,17.9089469 46.3349508,18.0837464 46.59,18.16 C46.8,18.22 47.01,18.25 47.22,18.29 L43.62,27.91 C43.5258135,28.1579752 43.5340098,28.433212 43.642785,28.6751432 C43.7515603,28.9170744 43.9520013,29.1058755 44.2,29.2 C44.3127335,29.2384855 44.4308849,29.25874 44.55,29.26 C44.9684725,29.2613593 45.3435361,29.0020069 45.49,28.61 L47.41,23.48 C50.91,24.54 52.84,25.95 52.84,27.48 C52.84,27.64 52.73,42.24 43.49,48.22 C43.4370587,48.2108553 43.3829413,48.2108553 43.33,48.22 C41.0165324,49.2199286 38.5202555,49.7273573 36,49.71 C35.4477153,49.71 35,50.1577153 35,50.71 C35,51.2622847 35.4477153,51.71 36,51.71 C36.92957,51.7097436 37.8581585,51.6496192 38.78,51.53 L38.02,52.53 C37.8222467,52.7923367 37.5331436,52.9707954 37.21,53.03 C34.7626959,53.4444337 32.2815319,53.6252473 29.8,53.57 C27.3208663,53.6141654 24.8431252,53.4233123 22.4,53 C22.0779068,52.9380816 21.7897086,52.7601814 21.59,52.5 L20.84,51.5 C21.7618415,51.6196192 22.69043,51.6797436 23.62,51.68 C24.1722847,51.68 24.62,51.2322847 24.62,50.68 C24.62,50.1277153 24.1722847,49.68 23.62,49.68 C21.1134125,49.7084134 18.6280331,49.2181468 16.32,48.24 C16.2687026,48.2174068 16.2150342,48.2006354 16.16,48.19 C7,42.26 6.81,27.65 6.81,27.49 C6.81,26 8.59,24.91 10.09,24.25 C10.5953405,24.0263247 10.8236753,23.4353405 10.6,22.93 C10.3763247,22.4246595 9.78534054,22.1963247 9.28,22.42 C6.28,23.72 4.81,25.42 4.81,27.49 C4.90205409,30.9416748 5.47076911,34.3640605 6.5,37.66 C8.72,44.66 12.81,49.48 18.35,51.55 L20,53.74 C20.4920456,54.388382 21.2027246,54.8361097 22,55 C24.5734409,55.430589 27.1812911,55.6214073 29.79,55.57 C32.4053914,55.62317 35.0200431,55.432344 37.6,55 C38.4008843,54.8388185 39.1135148,54.3862982 39.6,53.73 L41.24,51.54 C46.79,49.47 50.88,44.67 53.09,37.65 C54.1192309,34.3540605 54.6879459,30.9316748 54.78,27.48 C54.81,25 52.55,23 48.09,21.6 Z"/>
      <path id="Path" fill="#3D454C" fill-rule="nonzero" d="M30.83,15.29 C32.4483249,14.8098672 33.8953455,13.8764175 35,12.6 C35.77,15.03 36.62,19.6 33.7,22.96 C33.3382535,23.3797364 33.3852636,24.0132535 33.805,24.375 C34.2247364,24.7367465 34.8582535,24.6897364 35.22,24.27 C40.22,18.41 36.3,10.35 36.13,10.01 C35.9608365,9.67058549 35.6142341,9.45606614 35.235,9.45606614 C34.8557659,9.45606614 34.5091635,9.67058549 34.34,10.01 C33.4965226,11.6071641 32.0604045,12.809913 30.34,13.36 C29.9648758,13.4185969 29.6552916,13.6845745 29.5408467,14.0465885 C29.4264018,14.4086024 29.5268389,14.8042018 29.8001128,15.0677793 C30.0733867,15.3313569 30.4723549,15.417443 30.83,15.29 L30.83,15.29 Z"/>
      <path id="Path" fill="#3D454C" fill-rule="nonzero" d="M15.26,27.5 C15.5422398,27.7197184 15.9202585,27.7721733 16.2516601,27.6376057 C16.5830617,27.503038 16.8174984,27.2018917 16.8666601,26.8476056 C16.9158219,26.4933196 16.7722398,26.1397183 16.49,25.92 C12.15,22.54 12.79,14.24 14.39,8.71 C16.07,10.47 18.51,11.71 21.07,12.99 C24.16,14.55 27.36,16.16 28.97,18.73 C30.6772452,21.2982386 30.5026144,24.6812019 28.54,27.06 C27.2962471,23.3079287 25.0315452,19.97667 22,17.44 C21.7213328,17.1970594 21.3342265,17.1212402 20.9845002,17.2411027 C20.6347739,17.3609653 20.3755593,17.6582996 20.3045002,18.0211027 C20.233441,18.3839059 20.3613328,18.7570594 20.64,19 C26.42,24 27,29.17 27,29.22 C27.0306881,29.591879 27.2658717,29.9157383 27.61,30.06 C27.7345083,30.1074099 27.8667757,30.1311502 28,30.1300399 C28.2336522,30.1304565 28.4600879,30.0490812 28.64,29.9 C30.84,28.07 34.11,23.15 30.64,17.67 C28.74,14.62 25.29,12.88 21.95,11.2 C18.95,9.69 16.11,8.26 14.95,6.09 C14.7599525,5.74921701 14.3890463,5.55009898 14,5.58 C13.6110907,5.61038009 13.2753481,5.86413902 13.14,6.23 C11.16,11.48 9.1,22.69 15.26,27.5 Z"/>
    </g>
  </g>
</svg>
