<svg xmlns="http://www.w3.org/2000/svg" width="64" height="64" viewBox="0 0 64 64" style="background:#fff">
  <g id="Kurkuma" fill="none" fill-rule="evenodd" stroke="none" stroke-width="1">
    <rect width="64" height="64" fill="#FFF"/>
    <g transform="translate(2 9)">
      <rect id="Rectangle" width="60" height="60" x="0" y="0"/>
      <rect id="Rectangle" width="60" height="60" x="0" y="0"/>
      <g id="Group" fill="#EBE53F" fill-rule="nonzero" opacity=".5" transform="translate(13 10)">
        <path id="Path" d="M19.29,1.39 C17.67,0.34 15.44,-0.25 13.95,1.52 L6.76,10.1 C6.58,10.32 6.41,10.56 6.24,10.81 C3.83,13.6 1.16,16.6 0.45,20.22 C-1.18,28.48 8,32.78 14.82,33.54 C22.53,34.41 31.82,32.06 32.82,23.28 C33.88,14.32 26.27,5.91 19.29,1.39 Z"/>
      </g>
      <path id="Shape" fill="#3D454C" fill-rule="nonzero" d="M53.81,33.08 C53.81,27.87 48.81,23.19 40.81,20.85 C38.9180688,18.4317986 36.783615,16.2135751 34.44,14.23 L33.44,13.38 C31.4838289,11.5522714 28.4461711,11.5522714 26.49,13.38 C23.9420426,15.6089612 21.5993087,18.0621383 19.49,20.71 C19.4136419,20.7002724 19.3363581,20.7002724 19.26,20.71 C11,23 5.81,27.75 5.81,33.08 C5.90626807,34.8380012 6.40948609,36.5496271 7.28,38.08 L7.28,38.14 L12,45.46 C13.3866871,48.1768245 15.8501516,50.1867794 18.79,51 C22.3832191,51.9240009 26.0799065,52.3844065 29.79,52.3703279 C33.5000935,52.3844065 37.1967809,51.9240009 40.79,51 C43.7016939,50.2043779 46.1486845,48.2286596 47.54,45.55 L52.17,38.08 L52.17,38.08 C53.2121145,36.61874 53.7841898,34.8746078 53.81,33.08 Z M45.81,44.54 C44.6754443,46.7480708 42.6711285,48.3826936 40.28,49.05 C33.3826006,50.7449388 26.1773994,50.7449388 19.28,49.05 C16.8642839,48.3640825 14.8449999,46.7000764 13.71,44.46 L9.05,37.12 C8.34734064,35.8941658 7.92393433,34.528339 7.81,33.12 C7.81,29.25 11.6,25.56 17.64,23.39 C15.8170359,26.1222387 14.4649679,29.1407305 13.64,32.32 C13.5382586,32.672104 13.6372874,33.0516542 13.8980846,33.309168 C14.1588818,33.5666818 14.5396562,33.6608941 14.8904429,33.5547 C15.2412297,33.448506 15.5058173,33.1589226 15.58,32.8 C17.73,24.05 24.58,17.87 27.83,14.9 C29.0257167,13.7810497 30.8842833,13.7810497 32.08,14.9 L33.08,15.76 C36.79,19.06 41.87,23.59 44.36,32.82 C44.4806641,33.2692179 44.8951312,33.5759235 45.36,33.56 C45.446388,33.5698286 45.533612,33.5698286 45.62,33.56 C45.8778875,33.492049 46.0979489,33.3239018 46.2312738,33.0929304 C46.3645987,32.861959 46.4001406,32.5873006 46.33,32.33 C45.517622,29.2780077 44.2787482,26.3558815 42.65,23.65 C48.38,25.85 51.83,29.37 51.83,33.15 C51.7917211,34.5345127 51.3388584,35.875683 50.53,37 L50.53,37 L45.81,44.54 Z"/>
      <path id="Path" fill="#3D454C" fill-rule="nonzero" d="M46.84 27.53C46.4322528 27.9004771 46.4009523 28.5309586 46.77 28.94 47.8116861 29.980807 48.4193038 31.3783278 48.47 32.85 48.47 38 39.93 42.35 29.81 42.35 19.69 42.35 11.14 38 11.14 32.85 11.1903676 31.3762544 11.8021048 29.9774867 12.85 28.94 13.1814223 28.5272957 13.1338425 27.9278151 12.7414683 27.5725574 12.3490941 27.2172997 11.7478487 27.2293304 11.37 27.6 9.99050756 29.0056993 9.19385724 30.8812214 9.14 32.85 9.14 39.3 18.22 44.35 29.81 44.35 41.4 44.35 50.47 39.3 50.47 32.85 50.4158878 30.8832353 49.6233231 29.0089269 48.25 27.6 47.8795229 27.1922528 47.2490414 27.1609523 46.84 27.53zM27.34 21.55C26.7877153 21.55 26.34 21.9977153 26.34 22.55 26.34 23.1022847 26.7877153 23.55 27.34 23.55 27.8922847 23.55 28.34 23.1022847 28.34 22.55 28.34 21.9977153 27.8922847 21.55 27.34 21.55z"/>
      <path id="Path" fill="#3D454C" fill-rule="nonzero" d="M37.21 27.41C36.6577153 27.41 36.21 27.8577153 36.21 28.41 36.21 28.9622847 36.6577153 29.41 37.21 29.41 37.7622847 29.41 38.21 28.9622847 38.21 28.41 38.21 27.8577153 37.7622847 27.41 37.21 27.41zM22 31C21.4477153 31 21 31.4477153 21 32 21 32.5522847 21.4477153 33 22 33 22.5522847 33 23 32.5522847 23 32 23 31.4477153 22.5522847 31 22 31z"/>
    </g>
  </g>
</svg>
