<svg xmlns="http://www.w3.org/2000/svg" width="64" height="64" viewBox="0 0 64 64" style="background:#fff">
  <g id="Käse-(weich,-20-25%)" fill="none" fill-rule="evenodd" stroke="none" stroke-width="1">
    <rect width="64" height="64" fill="#FFF"/>
    <g transform="translate(2 14)">
      <g id="Layer_2">
        <rect id="Rectangle" width="60" height="60" x="0" y="0"/>
      </g>
      <g id="Layer_1" fill-rule="nonzero" transform="translate(3 18)">
        <path id="Path" fill="#E0A075" d="M45.71,1.58 C42.44,0.79 39.45,2.58 36.11,2.85 C32.3476268,2.9539344 28.5851884,2.64542787 24.89,1.93 C18.14,0.93 9.57,-0.62 4.21,4.78 C3.85,5.14 3.8,6.17 4.39,6.37 C8.02,7.61 12.05,7.8 15.81,8.68 C19.81,9.63 23.81,10.76 27.88,11.45 C33.83,12.45 43.34,13.39 46.88,7.31 C47.67,5.9 47.9,2.11 45.71,1.58 Z" opacity=".5"/>
        <path id="Path" fill="#CCC" d="M49,8.89 C46.7477649,9.26992689 44.5466563,9.90744309 42.44,10.79 C40.28,11.52 37.91,12.02 35.81,12.89 C34.9757847,13.2381047 34.2026707,13.717503 33.52,14.31 C33.0650739,13.5414713 32.3244752,12.9842247 31.46,12.76 C26.28,11.76 -1.79,6.14 0.78,17.97 C1.78,22.83 6.39,23.44 10.78,24.16 C16.93,25.16 23.12,25.94 29.21,27.25 C30.9772648,27.7797069 32.8775719,27.0319774 33.81,25.44 C35.88,26.6 38.4,26.34 41.05,25.8 C44.77,25 48.54,24 51.56,21.57 C54.58,19.14 54.48,8.34 49,8.89 Z" opacity=".5"/>
        <path id="Path" fill="#3D454C" d="M44.19,21.27 C43.6377153,21.27 43.19,21.7177153 43.19,22.27 C43.19,22.8222847 43.6377153,23.27 44.19,23.27 C44.7422847,23.27 45.19,22.8222847 45.19,22.27 C45.19,21.7177153 44.7422847,21.27 44.19,21.27 Z"/>
        <path id="Shape" fill="#3D454C" d="M54,14.58 C54,14.58 54,14.58 54,14.58 C54,14.58 54,14.51 54,14.48 C53.8772418,12.9933439 53.8438484,11.5006586 53.9,10.01 C53.9962215,8.77903889 53.9526098,7.54113779 53.77,6.32 C53.5213933,5.53717326 52.819448,4.98592812 52,4.93 C46.8592554,4.39399042 41.7781726,3.38982385 36.82,1.93 C31.52,0.32 24.36,0.93 24.05,0.93 C4.13,3 0.66,6.11 0.33,6.46 C0.315613186,6.48802556 0.298887183,6.51478717 0.28,6.54 L0.22,6.59 C0.224239816,6.6198502 0.224239816,6.6501498 0.22,6.68 C0.179632964,6.7592286 0.149395468,6.84322164 0.13,6.93 C0.125174602,6.98656394 0.125174602,7.04343606 0.13,7.1 C0.125091396,7.16657631 0.125091396,7.23342369 0.13,7.3 C0.119555912,7.36290276 0.119555912,7.42709724 0.13,7.49 C0.95,9.74 0.71,19 0.55,22.38 C0.55,22.9322847 0.99771525,23.38 1.55,23.38 C6.52606756,23.6511006 11.4815343,24.2187753 16.39,25.08 C22.51,26.29 29.08,27.24 31,27.5 C31.1231332,27.5099364 31.2468668,27.5099364 31.37,27.5 C31.6805084,27.5020791 31.9888233,27.4478699 32.28,27.34 C33.28,26.97 36.72,25.69 40.19,24.64 C40.7201934,24.477076 41.017924,23.9151934 40.855,23.385 C40.692076,22.8548066 40.1301934,22.557076 39.6,22.72 C37.27,23.43 34.95,24.24 33.36,24.81 C33.5852903,23.7034423 33.5268072,22.557862 33.19,21.48 C32.7,19.85 33.26,14.41 33.81,10.78 C35.6816755,10.2204303 37.5850536,9.7729695 39.51,9.44 C42,9 48.2,7.68 51.64,6.92 C51.6697887,6.91496479 51.7002113,6.91496479 51.73,6.92 L51.89,6.92 C51.96,7.41 51.89,8.85 51.89,9.92 C51.8320346,11.5007794 51.868767,13.0836113 52,14.66 C52.09,16 52,17.34 52,18.66 C50.75,18.98 49.51,19.35 48.29,19.77 C47.07,20.19 47.59,22.11 48.82,21.69 C50.29,21.19 51.82,20.75 53.29,20.38 C53.7352375,20.2554894 54.037082,19.8420038 54.02,19.38 C53.92,17.83 54.14,16.2 54,14.58 Z M31.2,22.07 C31.5999042,23.1865579 31.5276879,24.4178463 31,25.48 C28.84,25.18 22.6,24.26 16.74,23.16 C12.0557074,22.3317292 7.32805774,21.7708217 2.58,21.48 C2.69,18.75 2.89,11.64 2.31,8.11 C5.31,8.04 13.31,7.99 18.16,9.26 C22.6085872,10.2834511 27.1471615,10.8662643 31.71,11 C31.33,13.63 30.55,19.84 31.23,22.07 L31.2,22.07 Z M39.1,7.49 C36.9442094,7.8611875 34.8134671,8.36548546 32.72,9 C28.007758,8.90956962 23.3169407,8.33997037 18.72,7.3 C14.5377413,6.42696496 10.2719565,6.01782523 6,6.08 C9.23,5.08 14.79,3.93 24.2,2.95 C24.28,2.95 31.28,2.37 36.2,3.86 C39.387192,4.81199331 42.6299993,5.56675586 45.91,6.12 C43.3,6.68 40.58,7.24 39.13,7.49 L39.1,7.49 Z"/>
        <path id="Path" fill="#3D454C" d="M10.19 15.56C9.63771525 15.56 9.19 16.0077153 9.19 16.56 9.19 17.1122847 9.63771525 17.56 10.19 17.56 10.7422847 17.56 11.19 17.1122847 11.19 16.56 11.19 16.0077153 10.7422847 15.56 10.19 15.56zM22.75 14.7C22.1977153 14.7 21.75 15.1477153 21.75 15.7 21.75 16.2522847 22.1977153 16.7 22.75 16.7 23.3022847 16.7 23.75 16.2522847 23.75 15.7 23.75 15.1477153 23.3022847 14.7 22.75 14.7zM39.2 17.13C39.7522847 17.13 40.2 16.6822847 40.2 16.13 40.2 15.5777153 39.7522847 15.13 39.2 15.13 38.6477153 15.13 38.2 15.5777153 38.2 16.13 38.2 16.6822847 38.6477153 17.13 39.2 17.13zM47.87 11.23C47.3177153 11.23 46.87 11.6777153 46.87 12.23 46.87 12.7822847 47.3177153 13.23 47.87 13.23 48.4222847 13.23 48.87 12.7822847 48.87 12.23 48.87 11.6777153 48.4222847 11.23 47.87 11.23z"/>
      </g>
    </g>
  </g>
</svg>
