<svg xmlns="http://www.w3.org/2000/svg" width="64" height="64" viewBox="0 0 64 64" style="background:#fff">
  <g id="Käse-(halbhart,-25-30%)" fill="none" fill-rule="evenodd" stroke="none" stroke-width="1">
    <rect width="64" height="64" fill="#FFF"/>
    <g transform="translate(2 13)">
      <g id="Layer_2">
        <rect id="Rectangle" width="60" height="60" x="0" y="0"/>
      </g>
      <g id="Layer_1" fill-rule="nonzero" transform="translate(4 12)">
        <path id="Path" fill="#EBE53F" d="M50.74,16.71 C50.69,13.21 48.94,8.65 44.94,8.34 C32.52,7.34 20.13,6.26 7.69,5.44 C6,5.33 4,7 3.3,8.36 C2.00156014,10.4903968 1.30998419,12.9351178 1.3,15.43 C0.799805894,19.2667091 0.539300585,23.1308711 0.52,27 C0.42,29.59 1.98,33.22 4.93,33.37 C18.39,34 31.85,34.47 45.32,35 C48.25,35.11 49.74,31.37 50.16,29.1 C50.7499257,24.9981285 50.9441525,20.8490438 50.74,16.71 Z" opacity=".5"/>
        <path id="Shape" fill="#3D454C" d="M51.13,14.37 L51.13,11.91 C51.13,11.91 51.13,11.91 51.13,11.91 C51.1348203,11.8467584 51.1348203,11.7832416 51.13,11.72 C51.0941734,11.6424825 51.0506196,11.5687762 51,11.5 C50.9737206,11.4478597 50.9436393,11.3977243 50.91,11.35 C50.8732324,11.2943172 50.8331606,11.2408881 50.79,11.19 L50.66,11.1 C50.6112841,11.0597926 50.5574889,11.0261706 50.5,11 C50.5,11 50.5,11 50.44,11 L33,5.15 C32.7382746,5.06344811 32.4524288,5.08877622 32.21,5.22 C32.0633939,5.3013607 31.9395986,5.41827843 31.85,5.56 C31.0615049,5.70783531 30.2473548,5.631617 29.5,5.34 C29.5106627,5.26766273 29.5308373,5.19705157 29.56,5.13 C29.6623548,4.87459049 29.6549469,4.58829144 29.5395208,4.3385169 C29.4240947,4.08874235 29.2108504,3.89756469 28.95,3.81 L18,0.16 C17.7530105,0.0784991836 17.483985,0.0964342162 17.25,0.21 L1.7,7.67 C1.65167543,7.70094903 1.60494894,7.7343251 1.56,7.77 C1.56,7.77 1.48,7.77 1.45,7.84 L1.45,7.84 C1.39773287,7.89673443 1.35394627,7.96073024 1.32,8.03 C1.28650758,8.07432691 1.25642149,8.1211275 1.23,8.17 C1.22519567,8.24992787 1.22519567,8.33007213 1.23,8.41 C1.23,8.41 1.23,8.49 1.23,8.54 L1.23,33.09 C1.23,33.6422847 1.67771525,34.09 2.23,34.09 L13.77,34.09 C14.3222847,34.09 14.77,33.6422847 14.77,33.09 C14.88,32.88 15.94,32.36 17.88,32.36 C18.9604343,32.2542 20.0464413,32.4959242 20.98,33.05 C20.98,33.6022847 21.4277153,34.05 21.98,34.05 L41.88,34.05 C42.339171,34.0682755 42.7516939,33.7712591 42.88,33.33 C43.6790478,33.090094 44.5309522,33.090094 45.33,33.33 C45.4583061,33.7712591 45.870829,34.0682755 46.33,34.05 L50.21,34.05 C50.7622847,34.05 51.2100265,33.6022847 51.2100265,33.05 L51.2100265,20.71 C51.2136739,20.2013743 50.8349651,19.7710234 50.33,19.71 C49.9899948,19.0396967 49.837942,18.2898 49.89,17.54 C49.8400841,16.7871276 49.991976,16.0345726 50.33,15.36 C50.7993713,15.2642159 51.1348831,14.84902 51.13,14.37 Z M49.13,13.69 C48.3,14.27 47.81,15.64 47.81,17.54 C47.81,19.44 48.3,20.81 49.13,21.39 L49.13,32.09 L46.88,32.09 C46.1068474,31.4165302 45.0905542,31.091027 44.07,31.19 C43.0494458,31.091027 42.0331526,31.4165302 41.26,32.09 L22.68,32.09 C22,31 20.28,30.4 17.87,30.4 C15.46,30.4 13.71,31.04 13.05,32.09 L3.13,32.09 L3.13,9.65 L16.22,10.55 C16.7689715,10.5842777 17.2425663,10.1687653 17.28,9.62 C17.3144514,9.07465139 16.9047705,8.60262774 16.36,8.56 L6,7.84 L17.75,2.19 L27.5,5.43 L27.5,5.53 C27.5,6.59 28.5,7.34 30.19,7.53 C31.1253686,7.7054289 32.0920249,7.59026768 32.96,7.2 L42.34,10.32 L24.34,9.07 C23.7877153,9.03134007 23.3086599,9.44771525 23.27,10 C23.2313401,10.5522847 23.6477153,11.0313401 24.2,11.07 L49.2,12.8 L49.13,13.69 Z"/>
        <circle id="Oval" cx="20.3" cy="9.88" r="1" fill="#3D454C"/>
        <path id="Path" fill="#3D454C" d="M9.28 20.51C8.72771525 20.51 8.28 20.9577153 8.28 21.51 8.28 22.0622847 8.72771525 22.51 9.28 22.51 9.83228475 22.51 10.28 22.0622847 10.28 21.51 10.28 20.9577153 9.83228475 20.51 9.28 20.51zM31.14 23.05C31.6922847 23.05 32.14 22.6022847 32.14 22.05 32.14 21.4977153 31.6922847 21.05 31.14 21.05 30.5877153 21.05 30.14 21.4977153 30.14 22.05 30.14 22.6022847 30.5877153 23.05 31.14 23.05zM22.61 22.65C22.0577153 22.65 21.61 23.0977153 21.61 23.65 21.61 24.2022847 22.0577153 24.65 22.61 24.65 23.1622847 24.65 23.61 24.2022847 23.61 23.65 23.61 23.0977153 23.1622847 22.65 22.61 22.65zM21 14.65C20.4477153 14.65 20 15.0977153 20 15.65 20 16.2022847 20.4477153 16.65 21 16.65 21.5522847 16.65 22 16.2022847 22 15.65 22 15.0977153 21.5522847 14.65 21 14.65zM42.88 24.65C43.4322847 24.65 43.88 24.2022847 43.88 23.65 43.88 23.0977153 43.4322847 22.65 42.88 22.65 42.3277153 22.65 41.88 23.0977153 41.88 23.65 41.88 24.2022847 42.3277153 24.65 42.88 24.65z"/>
      </g>
    </g>
  </g>
</svg>
