<svg xmlns="http://www.w3.org/2000/svg" width="64" height="64" viewBox="0 0 64 64" style="background:#fff">
  <g id="Kümmel" fill="none" fill-rule="evenodd" stroke="none" stroke-width="1">
    <rect width="64" height="64" fill="#FFF"/>
    <g id="3-2-Kümmel" transform="translate(2 6)">
      <rect id="Rectangle" width="60" height="60" x="0" y="0"/>
      <rect id="Rectangle" width="60" height="60" x="0" y="0"/>
      <g id="Group" fill="#E0A075" fill-rule="nonzero" opacity=".5" transform="translate(11 13)">
        <path id="Path" d="M22.11,1.55 C20.5049084,0.0952157471 18.0403927,0.156828639 16.51,1.69 L13,5.28 C10.9330253,6.96344526 9.07033582,8.88319013 7.45,11 L7.01,11.44 C6.51863642,11.9579787 6.10438886,12.5439874 5.78,13.18 C4.09,15.47 2.72,17.58 1.91,18.78 C0.52,20.86 0.54,25.4 2.81,26.98 C10,32 23.29,37.81 31.37,30.84 C41.44,22.16 29.19,7.44 22.11,1.55 Z"/>
      </g>
      <path id="Shape" fill="#3D454C" fill-rule="nonzero" d="M40.8,23.82 C38.9021032,21.4007242 36.7645768,19.1794389 34.42,17.19 C34.09,16.9 33.77,16.62 33.42,16.34 C31.4652284,14.5184919 28.4347716,14.5184919 26.48,16.34 C23.9344738,18.5714996 21.5919563,21.02445 19.48,23.67 C19.4000767,23.6650468 19.3199233,23.6650468 19.24,23.67 C11,26 5.82,30.72 5.82,36.05 C5.91428282,37.807005 6.41399224,39.5183387 7.28,41.05 L7.28,41.11 C7.28,41.11 7.28,41.11 7.28,41.11 L12,48.43 C13.3794156,51.1628052 15.8490688,53.1857417 18.8,54 C26.0203855,55.8202021 33.5796145,55.8202021 40.8,54 C43.7142978,53.2046308 46.1645049,51.229242 47.56,48.55 L52.22,41 L52.22,41 C53.2479047,39.5340859 53.8059055,37.7903334 53.82,36 C53.82,30.84 48.83,26.16 40.8,23.82 Z M45.85,47.51 C44.7130673,49.712028 42.7085839,51.339538 40.32,52 C33.4230342,53.6985165 26.2169658,53.6985165 19.32,52 C16.9001974,51.321892 14.8781154,49.6555803 13.75,47.41 L9.06,40.09 C8.35302836,38.8660471 7.92931406,37.4992268 7.82,36.09 C7.82,32.21 11.61,28.53 17.65,26.35 C15.82469,29.0845619 14.4724825,32.1067457 13.65,35.29 C13.5400318,35.6455247 13.6365827,36.0327066 13.9006073,36.2949694 C14.164632,36.5572321 14.5524517,36.6511885 14.9072321,36.5388424 C15.2620125,36.4264963 15.5250607,36.1264337 15.59,35.76 C17.74,27.02 24.59,20.84 27.83,17.87 C29.0290511,16.7497368 30.8909489,16.7497368 32.09,17.87 L33.09,18.73 C36.8,22.03 41.89,26.55 44.38,35.79 C44.5006641,36.2392179 44.9151312,36.5459235 45.38,36.53 C45.4694112,36.5445589 45.5605888,36.5445589 45.65,36.53 C46.1782319,36.3838709 46.4904156,35.8397792 46.35,35.31 C45.544461,32.2572743 44.3087488,29.3346635 42.68,26.63 C48.4,28.83 51.86,32.35 51.86,36.13 C51.8393444,37.5267461 51.3927746,38.8838998 50.58,40.02 L50.58,40.02 L50.58,40.02 L45.85,47.51 Z"/>
      <path id="Path" fill="#3D454C" fill-rule="nonzero" d="M46.84,30.5 C46.4322528,30.8704771 46.4009523,31.5009586 46.77,31.91 C47.8153569,32.9492264 48.4266319,34.3469371 48.48,35.82 C48.48,40.97 39.93,45.32 29.81,45.32 C19.69,45.32 11.14,41 11.14,35.82 C11.1933681,34.3469371 11.8046431,32.9492264 12.85,31.91 C13.0911543,31.6456235 13.1729468,31.2726752 13.0645671,30.9316412 C12.9561875,30.5906072 12.6741011,30.3332987 12.3245671,30.2566412 C11.9750332,30.1799837 11.6111543,30.2956235 11.37,30.56 C9.99567906,31.9731948 9.20014564,33.8496548 9.14,35.82 C9.14,42.27 18.22,47.32 29.81,47.32 C41.4,47.32 50.48,42.32 50.48,35.82 C50.4261428,33.8512214 49.6294924,31.9756993 48.25,30.57 C47.8795229,30.1622528 47.2490414,30.1309523 46.84,30.5 Z"/>
      <path id="Path" fill="#3D454C" fill-rule="nonzero" d="M24.08 32.49C24.2120972 32.7159426 24.4275096 32.8810921 24.68 32.95 24.9401884 33.013275 25.2146053 32.9776364 25.45 32.85 25.6718703 32.7133399 25.8356283 32.4997424 25.9100239 32.25L25.9100239 31.98C25.9112098 31.8048236 25.8663804 31.6324029 25.78 31.48L24.58 28.68C24.446372 28.4502558 24.2267828 28.2831582 23.9697298 28.2156114 23.7126768 28.1480647 23.4393087 28.1856261 23.21 28.32 22.9840574 28.4520972 22.8189079 28.6675096 22.75 28.92 22.75 29 22.75 29.09 22.75 29.18 22.756412 29.3585678 22.8043461 29.5331849 22.89 29.69L24.08 32.49zM32 31.05C32.0768397 31.2984752 32.2399942 31.5112855 32.46 31.65 32.6953947 31.7776364 32.9698116 31.813275 33.23 31.75 33.4860417 31.6798876 33.7036979 31.5108445 33.8350026 31.2801234 33.9663072 31.0494024 34.0004836 30.7759398 33.93 30.52 33.66 29.72 33.4 28.92 33.13 28.12 33.0610921 27.8675096 32.8959426 27.6520972 32.67 27.52 32.4372799 27.3843132 32.1596588 27.3482585 31.9 27.42 31.6439583 27.4901124 31.4263021 27.6591555 31.2949974 27.8898766 31.1636928 28.1205976 31.1295164 28.3940602 31.2 28.65L32 31.05zM33.8399833 35.9C33.8411046 36.1623399 33.9452558 36.4137394 34.13 36.6 34.3170714 36.7908556 34.5727541 36.8988906 34.84 36.9 35.1072459 36.8988906 35.3629286 36.7908556 35.55 36.6L37.16 34.6C37.250352 34.5101042 37.3187872 34.4006078 37.36 34.28 37.4282402 34.1655524 37.4596585 34.0328973 37.45 33.9 37.4515368 33.634197 37.3471865 33.3787188 37.16 33.19 36.9712812 33.0028135 36.715803 32.8984632 36.45 32.8999833 36.184197 32.8984632 35.9287188 33.0028135 35.74 33.19L34.13 35.19C33.9428135 35.3787188 33.8384632 35.634197 33.8399833 35.9L33.8399833 35.9zM27.48 25.35C27.7401884 25.413275 28.0146053 25.3776364 28.25 25.25L30.65 23.65C30.8700058 23.5112855 31.0331603 23.2984752 31.11 23.05 31.2191232 22.6573561 31.0790635 22.2377719 30.7559673 21.9894054 30.432871 21.7410389 29.9913807 21.7135813 29.64 21.92L27.24 23.52C27.0140574 23.6520972 26.8489079 23.8675096 26.78 24.12 26.7082585 24.3796588 26.7443132 24.6572799 26.88 24.89 27.0120972 25.1159426 27.2275096 25.2810921 27.48 25.35zM25.58 38.12C25.545127 38.2476613 25.545127 38.3823387 25.58 38.51 25.5893235 38.644386 25.6304537 38.7746317 25.7 38.89 25.833628 39.1197442 26.0532172 39.2868418 26.3102702 39.3543886 26.5673232 39.4219353 26.8406913 39.3843739 27.07 39.25L28.47 38.25C28.5834459 38.1878879 28.6796662 38.0985405 28.75 37.99 28.8385407 37.8942443 28.9005817 37.7770557 28.93 37.65 28.9647692 37.5189334 28.9647692 37.3810666 28.93 37.25 28.9206465 37.1187506 28.879459 36.9917558 28.81 36.88 28.6779028 36.6540574 28.4624904 36.4889079 28.21 36.42 27.9503412 36.3482585 27.6727201 36.3843132 27.44 36.52L26.04 37.52C25.8234271 37.6624408 25.6613295 37.8738726 25.58 38.12L25.58 38.12zM44 20.32C44.2327201 20.4556868 44.5103412 20.4917415 44.77 20.42 45.0146862 20.3359655 45.225321 20.1744788 45.37 19.96L46.51 18.18C46.6456868 17.9472799 46.6817415 17.6696588 46.61 17.41 46.5410921 17.1575096 46.3759426 16.9420972 46.15 16.81 45.9172799 16.6743132 45.6396588 16.6382585 45.38 16.71 45.1315248 16.7868397 44.9187145 16.9499942 44.78 17.17L43.64 19C43.5043132 19.2327201 43.4682585 19.5103412 43.54 19.77 43.6200767 20.003891 43.7839528 20.1998298 44 20.32zM40.44 11.7C40.5793694 11.9194072 40.7919328 12.0823725 41.04 12.16 41.3001884 12.223275 41.5746053 12.1876364 41.81 12.06 42.0318703 11.9233399 42.1956283 11.7097424 42.27 11.46 42.3417415 11.2003412 42.3056868 10.9227201 42.17 10.69 41.8 10.07 41.44 9.44 41.08 8.82 40.9433399 8.59812968 40.7297424 8.43437167 40.48 8.36 40.2203412 8.28825853 39.9427201 8.32431322 39.71 8.46 39.4802558 8.59362798 39.3131582 8.81321715 39.2456114 9.07027016 39.1780647 9.32732316 39.2156261 9.60069135 39.35 9.83 39.71 10.45 40.08 11.07 40.44 11.7zM16.19 17.46C16.2676275 17.7080672 16.4305928 17.9206306 16.65 18.06 17.1231107 18.3263928 17.7223527 18.1665949 18 17.7 18.1356868 17.4672799 18.1717415 17.1896588 18.1 16.93L17.24 14.5C17.1687793 14.2512239 17.003895 14.0397419 16.78 13.91 16.5460001 13.7681614 16.2640994 13.7284061 16 13.8 15.4976375 13.9629586 15.2086039 14.4884742 15.34 15 15.62 15.84 15.91 16.65 16.19 17.46zM22.25 12.16C22.5096588 12.2317415 22.7872799 12.1956868 23.02 12.06L23.22 11.9C23.3456399 11.7801605 23.4356331 11.6278644 23.48 11.46 23.78 10.72 24.07 9.97 24.37 9.23 24.4387457 8.96900589 24.3990743 8.69130554 24.26 8.46 24.1302581 8.23610497 23.9187761 8.0712207 23.67 8 23.4103412 7.92825853 23.1327201 7.96431322 22.9 8.1L22.69 8.26C22.5671737 8.38041274 22.4805633 8.53284691 22.44 8.7 22.14 9.44 21.85 10.18 21.55 10.93 21.4782585 11.1896588 21.5143132 11.4672799 21.65 11.7 21.7866601 11.9218703 22.0002576 12.0856283 22.25 12.16L22.25 12.16zM9.2 21C9.75228475 21 10.2 20.5522847 10.2 20 10.2 19.4477153 9.75228475 19 9.2 19 8.64771525 19 8.2 19.4477153 8.2 20 8.2 20.5522847 8.64771525 21 9.2 21zM31.57 8.07C32.1222847 8.07 32.57 7.62228475 32.57 7.07 32.57 6.51771525 32.1222847 6.07 31.57 6.07 31.0177153 6.07 30.57 6.51771525 30.57 7.07 30.57 7.62228475 31.0177153 8.07 31.57 8.07zM53.18 21.86C52.6277153 21.86 52.18 22.3077153 52.18 22.86 52.18 23.4122847 52.6277153 23.86 53.18 23.86 53.7322847 23.86 54.18 23.4122847 54.18 22.86 54.18 22.3077153 53.7322847 21.86 53.18 21.86zM10.15 10.32C10.7022847 10.32 11.15 9.87228475 11.15 9.32 11.15 8.76771525 10.7022847 8.32 10.15 8.32 9.59771525 8.32 9.15 8.76771525 9.15 9.32 9.15 9.87228475 9.59771525 10.32 10.15 10.32z"/>
    </g>
  </g>
</svg>
