<svg xmlns="http://www.w3.org/2000/svg" width="64" height="64" viewBox="0 0 64 64" style="background:#fff">
  <g id="Kürbiskerne" fill="none" fill-rule="evenodd" stroke="none" stroke-width="1">
    <rect width="64" height="64" fill="#FFF"/>
    <g transform="translate(2 5)">
      <rect id="Rectangle" width="60" height="60" x="0" y="0"/>
      <rect id="Rectangle" width="60" height="60" x="0" y="0"/>
      <g id="Group" fill="#E0A075" fill-rule="nonzero" opacity=".5" transform="translate(20 6)">
        <path id="Path" d="M27,0.65 C20.67,0.27 22,10.23 20.2,13.72 C18.7345573,16.3095472 16.1469408,18.0691264 13.2,18.48 C12.7484813,18.5299106 12.2941598,18.5499542 11.84,18.54 C12.1,17.26 12.25,16 12.29,15.6 C12.56,12.43 11.29,5.1 6.35,7.03 C0.23,9.43 -0.83,19.34 0.54,24.85 C2.2,31.48 7.61,34.95 14.21,33.25 C19.9190355,31.6190955 24.5501428,27.4348495 26.75,21.92 C29.19,15.92 27.39,9.8 28.63,3.66 C28.85,2.57 28.38,0.73 27,0.65 Z"/>
      </g>
      <g id="Group" fill="#E0A075" fill-rule="nonzero" opacity=".5" transform="translate(7 30)">
        <path id="Path" d="M35.23,8.91 C32.58,6.91 29.68,8.91 28.77,11.58 C27.41,15.64 19.54,13.46 16.96,12.32 C14.6494534,11.2513271 12.4346915,9.98670477 10.34,8.54 C9.29190082,7.94286913 8.3297717,7.20613389 7.48,6.35 C6.25,4.85 6.56,5.72 7.14,4.02 C7.46631776,3.14673834 7.26428479,2.16377023 6.62,1.49 C3.05,-2.15 0.31,4.09 0.25,6.94 C0.13,12.79 5.11,17.73 9.45,21.29 C17.85,28.19 32.57,30.51 37.19,18.45 C38.3,15.54 38,11 35.23,8.91 Z"/>
      </g>
      <path id="Shape" fill="#3D454C" fill-rule="nonzero" d="M49,10.2 L47.7,9.27 C47.4769829,8.51784104 46.9813171,7.87597167 46.31,7.47 C45.682588,6.92683052 44.8892102,6.61300549 44.06,6.58 L42.81,5.66 C41.8345073,4.94212784 40.4622486,5.14774316 39.74,6.12 C38.82,7.36 38.82,7.36 36.33,8.12 L34.94,8.53 C30.3118941,9.74195644 26.2217931,12.4663439 23.32,16.27 C20.9193688,19.4359384 19.6136825,23.2968389 19.6,27.27 C19.68,31.85 21.21,35.38 24.02,37.46 C25.8664324,38.7998912 28.0990221,39.5019635 30.38,39.46 C31.9624657,39.4460665 33.5348961,39.2070032 35.05,38.75 C38.8680981,37.5909353 42.1991599,35.2085936 44.53,31.97 C48.73,26.3 49,21.64 48.77,18.22 C48.71,17.34 48.64,16.68 48.58,16.16 C48.42,14.66 48.42,14.66 49.41,13.32 C49.7733464,12.8533874 49.9345172,12.2606133 49.8574643,11.6742595 C49.7804114,11.0879057 49.471564,10.5568968 49,10.2 Z M47.8,12.09 C46.44,13.93 46.38,14.38 46.6,16.34 C46.6,16.84 46.72,17.47 46.78,18.34 C46.98,21.43 46.73,25.62 42.92,30.77 C40.8476684,33.6503931 37.8909979,35.7748417 34.5,36.82 C30.72,37.9 27.5,37.58 25.21,35.88 C22.92,34.18 21.67,31.2 21.6,27.27 C21.6129432,23.7216994 22.7819744,20.274286 24.93,17.45 C27.5638747,13.9876619 31.2933771,11.5201272 35.51,10.45 L36.89,10 C39.48,9.25 40.02,9.09 41.34,7.31 C41.4197162,7.23869968 41.5402838,7.23869968 41.62,7.31 L42.32,7.83 C42.08,8.1 41.84,8.38 41.62,8.67 C41.2426618,9.19876731 40.7674104,9.65025607 40.22,10 C39.42,10.27 38.48,10.56 37.48,10.86 C35.0647097,11.4919959 32.7194634,12.3664377 30.48,13.47 C28.7471384,14.4337674 27.2401732,15.7566237 26.06,17.35 C24.36,19.66 22.58,23.84 22.63,27.05 C22.69,30.62 23.82,33.31 25.9,34.85 C27.2657911,35.8151327 28.9083645,36.3100106 30.58,36.26 C31.8409042,36.2492006 33.0937115,36.0572382 34.3,35.69 C35.947749,35.1491528 37.4877806,34.3232897 38.85,33.25 C39.2918278,32.9186292 39.3813708,32.2918278 39.05,31.85 C38.8907035,31.6349138 38.6518326,31.4926625 38.3868335,31.4550739 C38.1218343,31.4174854 37.8528269,31.4876973 37.64,31.65 C36.4796629,32.5822839 35.162378,33.3001872 33.75,33.77 C30.95,34.58 28.65,34.39 27.09,33.24 C25.53,32.09 24.68,29.94 24.63,27.02 C24.8258688,23.9701528 25.8644168,21.0345237 27.63,18.54 C28.6484936,17.1725648 29.9431775,16.0346059 31.43,15.2 C33.5343266,14.1830218 35.7309646,13.3693281 37.99,12.77 C38.99,12.46 39.99,12.17 40.8,11.88 C41.7477683,11.419315 42.5504249,10.7066113 43.12,9.82 C43.448713,9.36236796 43.8277523,8.94307667 44.25,8.57 C44.7678587,8.81021054 45.233373,9.15000204 45.62,9.57 C45.3927318,10.008908 45.117735,10.4214032 44.8,10.8 C44.1026234,11.536525 43.6457407,12.4677286 43.49,13.47 C43.49,14.41 43.49,15.47 43.55,16.68 C43.7296798,18.9039014 43.6626046,21.1408598 43.35,23.35 C43.0771529,24.5964898 42.6222755,25.7960181 42,26.91 C41.866455,27.1405237 41.8304163,27.4148063 41.8998783,27.6720037 C41.9693404,27.929201 42.1385603,28.1480488 42.37,28.28 C42.8479792,28.5513883 43.4553915,28.3861364 43.73,27.91 C44.4786518,26.6366104 45.0315032,25.2578528 45.37,23.82 C45.7279106,21.4407701 45.8117919,19.0283434 45.62,16.63 C45.62,15.49 45.54,14.42 45.56,13.53 C45.7610849,12.9799315 46.0667015,12.4739663 46.46,12.04 C46.66,11.78 46.85,11.53 47.02,11.26 L47.76,11.81 C47.8048598,11.8399958 47.8348482,11.8876523 47.8424799,11.9410743 C47.8501116,11.9944963 47.8346666,12.0486433 47.8,12.09 L47.8,12.09 Z"/>
      <path id="Path" fill="#3D454C" fill-rule="nonzero" d="M40.75 37.68C40.2710892 37.9291134 40.0763394 38.5133628 40.31 39 41.75 41.85 42 44.58 41.05 46.88 40.05 49.39 37.58 51.33 34.05 52.49 30.6541924 53.5267263 27.0125609 53.424887 23.68 52.2 17.68 50.08 15.08 46.74 13.52 44.07 13.09 43.34 12.8 42.78 12.52 42.33 11.61 40.59 11.3 40.25 9.14 39.49 9.04536902 39.461353 8.98587178 39.3678574 9 39.27L9.31 38.4C9.6 38.52 9.9 38.63 10.2 38.73 10.7722335 38.8681846 11.3122143 39.1161003 11.79 39.46 12.3 40.18 12.87 41.1 13.47 42.06 14.6594047 44.1530906 16.0854279 46.1025482 17.72 47.87 19.3151169 49.3313724 21.1990031 50.4419455 23.25 51.13 24.9150699 51.6794625 26.6481836 51.9957978 28.4 52.07 28.72 52.07 29.08 52.07 29.46 52.07 30.8367226 52.0943723 32.2091267 51.9089123 33.53 51.52 36.59 50.52 38.74 48.88 39.74 46.77 40.607763 44.7839849 40.607763 42.5260151 39.74 40.54 39.5299264 40.0704221 38.9978638 39.8368337 38.51 40 38.2620013 40.0941245 38.0615603 40.2829256 37.952785 40.5248568 37.8440098 40.766788 37.8358135 41.0420248 37.93 41.29 38.5851517 42.7742522 38.5851517 44.4657478 37.93 45.95 37.16 47.55 35.42 48.83 32.93 49.66 31.4948339 50.0513627 30.0037353 50.1967532 28.52 50.09 26.9819888 50.0110155 25.4616382 49.7251089 24 49.24 22.2049281 48.6441701 20.5557037 47.6764434 19.16 46.4 17.6420775 44.7562227 16.3168261 42.9444866 15.21 41 14.59 40 14 39.08 13.46 38.31 12.7732886 37.562302 11.8720958 37.0453387 10.88 36.83 10.4031255 36.6971996 9.94335625 36.5092648 9.51 36.27 9.59474473 35.7095936 9.79203889 35.1721371 10.09 34.69 10.6496004 34.7632216 11.1995284 34.8973504 11.73 35.09 12.698888 35.509256 13.7651751 35.6511968 14.81 35.5 15.63 35.28 16.59 34.99 17.67 34.65L17.38 33.7 17 32.77C16 33.07 15.1 33.35 14.29 33.57 13.6206803 33.5694741 12.9580359 33.4369452 12.34 33.18 11.9933333 33.0733333 11.6433333 32.9733333 11.29 32.88L11.58 32.06C11.6175731 31.9593423 11.727962 31.9063556 11.83 31.94 13.92 32.68 14.46 32.5 17.02 31.68L17.74 31.45C17.9936818 31.3696865 18.2048937 31.1915795 18.3268869 30.9551004 18.4488801 30.7186212 18.4715936 30.443273 18.39 30.19 18.3096865 29.9363182 18.1315795 29.7251063 17.8951004 29.6031131 17.6586212 29.4811199 17.383273 29.4584064 17.13 29.54L16.41 29.77C13.95 30.57 13.95 30.57 12.49 30.06 11.9410601 29.8650151 11.3370553 29.8967715 10.8115886 30.1482449 10.2861219 30.3997182 9.88249923 30.8501835 9.69 31.4L9.17 32.87C8.49837958 33.3587108 8.01759272 34.0657503 7.81 34.87 7.48255672 35.5864293 7.43266869 36.3988915 7.67 37.15L7.15 38.62C6.75667888 39.7655801 7.35874306 41.0143058 8.5 41.42 10.07 41.97 10.07 41.97 10.77 43.3 11.02 43.77 11.33 44.36 11.77 45.12 13.5 48.12 16.34 51.79 22.99 54.12 25.0489087 54.8483462 27.2160694 55.2236267 29.4 55.230121 31.1783557 55.2367225 32.9466784 54.9633749 34.64 54.42 38.76 53.07 41.64 50.74 42.88 47.68 44.07 44.82 43.79 41.52 42.08 38.13 41.8342117 37.6416578 41.241807 37.4412201 40.75 37.68L40.75 37.68zM40.75 29.05C40.1977153 29.05 39.75 29.4977153 39.75 30.05 39.75 30.6022847 40.1977153 31.05 40.75 31.05 41.3022847 31.05 41.75 30.6022847 41.75 30.05 41.75 29.4977153 41.3022847 29.05 40.75 29.05z"/>
    </g>
  </g>
</svg>
