<svg xmlns="http://www.w3.org/2000/svg" width="64" height="64" viewBox="0 0 64 64" style="background:#fff">
  <g id="Kürbis" fill="none" fill-rule="evenodd" stroke="none" stroke-width="1">
    <rect width="64" height="64" fill="#FFF"/>
    <g transform="translate(2 4)">
      <rect id="Rectangle" width="60" height="60" x="0" y="0"/>
      <g id="Group" fill="#E0673A" fill-rule="nonzero" opacity=".5" transform="translate(6 17)">
        <path id="Path" d="M17.46,20 C16.4450011,18.6189084 15.3285818,17.3153051 14.12,16.1 L14.06,16.04 C15.41,13.57 16.97,11.19 18.36,8.73 C19.59,6.56 19.8,1.89 16.72,0.85 C9.14,-1.73 3.94,5.59 2.08,11.85 C-0.37,20.05 1.08,32.14 8.73,37.62 C18.57,44.68 22.17,25.69 17.46,20 Z"/>
      </g>
      <g id="Group" fill="#E0673A" fill-rule="nonzero" opacity=".5" transform="translate(33 16)">
        <path id="Path" d="M21,15.42 C19.56,8.74 12.16,-3.25 3.71,1.42 C-1.21,4.13 -0.9,12.42 2.82,15.96 C3.43,16.55 4.77,17.79 6.03,18.78 C0.03,22.68 -0.48,31.39 3.03,37.23 C4.40815611,39.6806684 7.36079506,40.7693746 10,39.8 C19.28,36.81 22.87,24 21,15.42 Z"/>
      </g>
      <path id="Path" fill="#3D454C" fill-rule="nonzero" d="M22 31.87C22 31.3177153 21.5522847 30.87 21 30.87 20.4477153 30.87 20 31.3177153 20 31.87 20 32.4222847 20.4477153 32.87 21 32.87 21.5522847 32.87 22 32.4222847 22 31.87zM20.42 34.78C19.8677153 34.78 19.42 35.2277153 19.42 35.78 19.3629605 37.3603327 19.4399023 38.9426571 19.65 40.51 19.7156679 41.010992 20.1447407 41.3842854 20.65 41.3800365L20.78 41.3800365C21.3263144 41.307428 21.7109328 40.8065297 21.64 40.26 21.4463736 38.80185 21.3761244 37.3299626 21.43 35.86 21.4525394 35.579469 21.355824 35.3024265 21.1635924 35.0968719 20.9713608 34.8913174 20.7014104 34.7762816 20.42 34.78z"/>
      <path id="Shape" fill="#3D454C" fill-rule="nonzero" d="M33.39,20.59 C33.4781999,20.4414979 33.5264328,20.2726829 33.53,20.1 L33.53,19.41 C33.53,18.69 33.53,17.94 33.53,17.18 C34.83,16.8 37.41,15.85 38.7,13.92 C38.8982824,13.6163242 38.9194938,13.2299339 38.7556441,12.9063784 C38.5917944,12.5828229 38.2677762,12.3712581 37.9056441,12.3513784 C37.543512,12.3314987 37.1982824,12.5063242 37,12.81 C36.0430794,13.9382111 34.7671729,14.7504685 33.34,15.14 C33.2164682,13.9233382 32.8778793,12.7382768 32.34,11.64 C31.5601766,10.1003725 30.2751379,8.87534938 28.7,8.17 C26.8902601,7.42292791 24.8298468,7.60582692 23.18,8.66 C21.5019146,9.78562427 20.6098799,11.7674927 20.88,13.77 C21.3,16.41 23.11,17.85 26.24,18.11 L26.24,20.11 C26.2462021,20.4177 26.3937431,20.705405 26.64,20.89 C24.7411169,22.0549104 23.1984088,23.718683 22.18,25.7 C21.9038576,26.1832492 22.0717508,26.7988576 22.555,27.075 C23.0382492,27.3511424 23.6538576,27.1832492 23.93,26.7 C25.61,23.65 27.93,21.9 30.27,21.9 C35.08,21.9 39.14,29.09 39.14,37.6 C39.14,46.11 35.08,53.3 30.27,53.3 C26.86,53.3 23.7,49.72 22.27,44.17 C22.2120696,43.8955831 22.0415626,43.6581064 21.8000651,43.5154898 C21.5585675,43.3728731 21.2682791,43.3382265 21,43.42 C20.7421125,43.487951 20.5220511,43.6560982 20.3887262,43.8870696 C20.2554013,44.118041 20.2198594,44.3926994 20.29,44.65 C22,51.09 25.92,55.26 30.29,55.26 C36.39,55.26 41.16,47.48 41.16,37.56 C41.12,29.42 37.91,22.73 33.39,20.59 Z M28.2,20.19 C28.2,20.19 28.2,20.13 28.2,20.1 L28.2,15.64 C28.2,14.06 27.41,12.36 25.68,12.36 C25.1277153,12.36 24.68,12.8077153 24.68,13.36 C24.68,13.9122847 25.1277153,14.36 25.68,14.36 C26.07,14.36 26.2,15.36 26.2,15.64 L26.2,16.11 C23.58,15.87 23.01,14.65 22.82,13.46 C22.6679636,12.2276552 23.2205516,11.01428 24.25,10.32 C25.3441942,9.63956593 26.6991677,9.52789228 27.89,10.02 C29.038596,10.5437826 29.9711322,11.4480602 30.53,12.58 C31.53,14.48 31.53,17.1 31.53,19.4 L31.53,20 C31.1084187,19.9161906 30.6798229,19.8726613 30.25,19.87 C29.554407,19.8722689 28.8631926,19.9801658 28.2,20.19 L28.2,20.19 Z"/>
      <path id="Path" fill="#3D454C" fill-rule="nonzero" d="M40.88 18.34C39.3490763 18.3549727 37.8389018 18.6958699 36.45 19.34 35.9446595 19.5636753 35.7163247 20.1546595 35.94 20.66 36.1636753 21.1653405 36.7546595 21.3936753 37.26 21.17 38.3976935 20.6550535 39.6312077 20.3858612 40.88 20.38 47.44 20.38 52.78 27.76 52.78 36.84 52.78 45.92 47.44 53.3 40.88 53.3 40.0543028 53.2979903 39.2329685 53.1801759 38.44 52.95 37.9127756 52.7945967 37.3589585 53.0938366 37.2 53.62 37.1226735 53.8759485 37.1510651 54.1522039 37.2788344 54.3870741 37.4066038 54.6219443 37.6231086 54.795866 37.88 54.87 38.8553704 55.1510639 39.86495 55.2957703 40.88 55.3 48.55 55.3 54.78 47.02 54.78 36.84 54.78 26.66 48.55 18.34 40.88 18.34zM22.07 52.91C21.2768931 53.1395338 20.4556495 53.2573351 19.63 53.26 13.06 53.26 7.72 45.88 7.72 36.8 7.72 27.72 13.06 20.34 19.63 20.34 20.8783987 20.3494092 22.1111861 20.6184429 23.25 21.13 23.576898 21.2746926 23.9561568 21.233996 24.2449133 21.0232403 24.5336697 20.8124846 24.6880549 20.4636886 24.6499133 20.1082403 24.6117717 19.752792 24.386898 19.4446926 24.06 19.3 22.6710982 18.6558699 21.1609237 18.3149727 19.63 18.3 12 18.34 5.72 26.62 5.72 36.8 5.72 46.98 12 55.26 19.63 55.26 20.64505 55.2557703 21.6546296 55.1110639 22.63 54.83 22.8868914 54.755866 23.1033962 54.5819443 23.2311656 54.3470741 23.3589349 54.1122039 23.3873265 53.8359485 23.31 53.58 23.1510415 53.0538366 22.5972244 52.7545967 22.07 52.91z"/>
    </g>
  </g>
</svg>
