<svg xmlns="http://www.w3.org/2000/svg" width="64" height="64" viewBox="0 0 64 64" style="background:#fff">
  <g id="Lachsforelle" fill="none" fill-rule="evenodd" stroke="none" stroke-width="1">
    <rect width="64" height="64" fill="#FFF"/>
    <g transform="translate(2 4)">
      <rect id="Rectangle" width="60" height="60" x="0" y="0"/>
      <rect id="Rectangle" width="60" height="60" x="0" y="0"/>
      <g id="Group" fill="#B3B3B3" fill-rule="nonzero" opacity=".5" transform="translate(1 6)">
        <path id="Path" d="M50,0.84 C42.13,-0.9 33.34,7.37 28,12.24 C21.5,18.3 14.22,26.4 11.29,35 C11.1841701,35.3505225 11.1269693,35.7139161 11.12,36.08 C7.5900987,34.6455259 3.53748678,35.6748893 1.12,38.62 C0.31429444,39.8857045 0.649462372,41.5615441 1.88,42.42 C3.88,43.48 6.34,42.42 8.45,43.22 C8.51,43.22 8.91,43.51 9.25,43.74 C8.39,46.35 10.38,52.44 13.65,49.63 C16.31,47.34 16.32,43 14.76,39.79 C14.9061821,39.6454203 15.0431194,39.4917832 15.17,39.33 C17.72,36.08 19.5,32.19 21.95,28.83 C24.7464644,24.9642374 27.864195,21.3413809 31.27,18 C37.17,12.23 45.54,8.09 50.1,1.15 C50.16,1.1 50.17,0.87 50,0.84 Z"/>
      </g>
      <g id="Group" fill="#E05362" fill-rule="nonzero" opacity=".5" transform="translate(22 12)">
        <path id="Path" d="M27.61,0.56 C22.68,3.08 18.68,7.8 14.55,11.42 C10.23,15.21 4,18.8 1.18,23.85 C0.44,25.19 0.24,30.31 2.96,29.85 C8.49,28.85 13.58,22.1 17.32,18.16 C21.64,13.56 26.25,8.71 28.9,3 C29.22,2.25 28.8,0 27.61,0.56 Z"/>
      </g>
      <path id="Shape" fill="#3D454C" fill-rule="nonzero" d="M55.49,7.66 C55.5919852,7.10464354 55.3712892,6.53935207 54.92,6.2 C54.18,5.67 53.32,6.06 52.49,6.43 L52,6.64 C51.9848409,5.77473686 51.5853581,4.96111141 50.91,4.42 C50.3597631,4.07242898 49.6709132,4.02725849 49.08,4.3 C46.1608074,5.45369786 43.3664453,6.90113718 40.74,8.62 C39.81,9.22 38.91,9.86 38.03,10.51 C36.686768,10.0045775 35.3774034,9.41335927 34.11,8.74 C32.89,8.1 32.11,7.68 31.19,7.98 C30.27,8.28 29.75,9.3 28.65,11.65 C28.01,13.03 27.14,14.92 25.81,17.45 C25.5271415,17.9539432 25.4760915,18.5556038 25.67,19.1 C25.9588791,19.7700727 26.4762756,20.3158197 27.13,20.64 C25,23.06 23,25.53 21.18,28 C20.18,27.59 18.18,26.75 17.08,28.54 L13.54,34.11 C12.9808087,35.0803691 13.2242425,36.3146208 14.11,37 C14.2389366,37.1175387 14.3796856,37.2214248 14.53,37.31 C13.16,39.31 11.94,41.01 10.83,42.44 C6.91,41.66 3.77,42.81 2.34,44.44 C1.6487401,45.0967538 1.37242727,46.0791995 1.62,47 C1.9939181,47.8896421 2.8552488,48.4769131 3.82,48.5 C6.98180969,48.7464831 9.49351692,51.2581903 9.74,54.42 C9.88706137,55.5501572 10.7635217,56.4470003 11.89,56.62 C12.0264735,56.630277 12.1635265,56.630277 12.3,56.62 C13.26494,56.623755 14.1437137,56.0652456 14.55,55.19 C15.7664163,52.8187822 16.1905075,50.1200201 15.76,47.49 C19.8890026,46.0395007 23.8840508,44.232695 27.7,42.09 C28.51,41.64 31.87,42.87 34.98,44.77 C35.1372706,44.8633382 35.3171259,44.9117608 35.5,44.91 C35.7383445,44.9100183 35.9688582,44.8249056 36.15,44.67 C38.9458541,42.1611969 39.9731607,38.225156 38.76,34.67 C40.5624152,34.8186527 42.3003739,35.4094213 43.82,36.39 C43.9753424,36.4780947 44.1514418,36.5229827 44.33,36.52 C44.6172272,36.5196363 44.8904302,36.3957843 45.08,36.18 C49.02,31.68 47.22,26.18 46.68,24.77 C48.17,22.61 49.49,20.46 50.68,18.36 C53.52,14.22 55.26,10.33 55.49,7.66 Z M30.49,12.5 C30.8539845,11.5921775 31.2921328,10.7158811 31.8,9.88 C32.2894233,10.0352478 32.7592199,10.2466562 33.2,10.51 C33.91,10.88 34.89,11.38 36.2,11.93 C33.4775856,14.1327352 30.9207019,16.5325293 28.55,19.11 C27.83,18.76 27.62,18.54 27.61,18.38 C28.94,15.8 29.83,13.89 30.48,12.5 L30.49,12.5 Z M18.77,29.56 C18.92,29.33 19.23,29.34 19.95,29.61 C18.42,31.69 17,33.71 15.69,35.61 L15.69,35.61 C15.5754286,35.5785455 15.4716699,35.5162902 15.39,35.43 C15.3136559,35.3557899 15.2584333,35.2626018 15.23,35.16 L18.77,29.56 Z M12.77,54.29 C12.6828877,54.5094486 12.4516673,54.6355688 12.22,54.59 C11.960036,54.5615505 11.7578195,54.3509083 11.74,54.09 C11.3462903,50.0483684 8.14264971,46.8531143 4.1,46.47 C3.88362979,46.47 3.67309617,46.3998221 3.5,46.27 C3.5,46.22 3.5,45.92 3.99,45.51 C5.2253901,44.529897 6.77495781,44.0323294 8.35,44.11 C8.89588657,44.1108962 9.44087204,44.1543613 9.98,44.24 C9.91272515,44.8959258 10.030507,45.5575826 10.32,46.15 L10.42,46.34 L10.53,46.53 L10.66,46.73 L10.87,47 L10.87,47 L10.87,47 L10.96,47.09 C10.9915471,47.1257628 11.0286984,47.1561593 11.07,47.18 L11.25,47.31 C11.3507414,47.3945913 11.4577106,47.4714754 11.57,47.54 C12.2311335,47.9648065 13.0199399,48.1452061 13.8,48.05 C14.0934764,50.1883913 13.7271501,52.365416 12.75,54.29 L12.77,54.29 Z M35.36,42.67 C33.8167476,41.7495195 32.1768753,41.001684 30.47,40.44 C32.757704,38.9968244 34.9398753,37.3927782 37,35.64 C37.7250868,38.1087561 37.1026395,40.7769297 35.36,42.67 Z M44.07,34.2 C42.8162817,33.5158046 41.4684148,33.0204635 40.07,32.73 C41.918315,30.8497017 43.6356675,28.84501 45.21,26.73 C45.9347228,29.2672804 45.5185386,31.994382 44.07,34.2 L44.07,34.2 Z M14.29,45.88 C13.7731884,46.0864516 13.1968116,46.0864516 12.68,45.88 C12.5820224,45.8248374 12.49132,45.7576504 12.41,45.68 L12.32,45.6 C12.1751285,45.422847 12.0664097,45.2189993 12,45 L12,45 L12,44.84 C12,44.84 12,44.77 12,44.74 L12,44.6 C11.9957265,44.5467523 11.9957265,44.4932477 12,44.44 C11.9961998,44.406775 11.9961998,44.373225 12,44.34 C12.0122025,44.2744632 12.0323512,44.210659 12.06,44.15 L12.06,44.05 C12.102056,43.9537775 12.1557931,43.863096 12.22,43.78 C13.57,42.06 15.04,39.94 16.75,37.49 C22.43,29.32 30.15,18.23 40.75,10.98 C40.7705861,11.0112252 40.7873715,11.044796 40.8,11.08 C40.91,11.32 41.03,11.58 41.17,11.84 C41.17,11.84 41.17,11.89 41.17,11.92 C41.3,12.17 41.45,12.42 41.61,12.67 L41.73,12.86 C41.92,13.14 42.11,13.42 42.33,13.71 L42.44,13.84 C42.65,14.1 42.86,14.36 43.1,14.62 L43.24,14.77 C43.5185644,15.0682352 43.8122859,15.3519434 44.12,15.62 L44.31,15.78 C44.62,16.04 44.94,16.3 45.31,16.55 L45.43,16.64 C45.8200663,16.9138663 46.2239308,17.1675332 46.64,17.4 L46.92,17.57 C47.37,17.82 47.84,18.06 48.34,18.28 L48.34,18.28 C42.6,28.09 34.46,38.92 14.29,45.88 Z M49.29,16.5 L49,16.37 C48.81,16.28 48.61,16.19 48.43,16.09 C48.3337662,16.0493749 48.2402404,16.002612 48.15,15.95 L47.63,15.66 L47.38,15.51 C47.2,15.4 47.02,15.29 46.85,15.17 L46.68,15.06 L46.04,14.58 C46.0119251,14.5542917 45.981828,14.5308829 45.95,14.51 L45.47,14.1 L45.29,13.93 L45,13.61 L44.82,13.42 C44.72,13.31 44.62,13.21 44.53,13.1 L44.36,12.91 C44.27,12.81 44.19,12.7 44.1,12.59 C44.01,12.48 44.01,12.47 43.96,12.42 L43.68,12.02 L43.61,11.93 C43.5033333,11.77 43.4033333,11.61 43.31,11.45 C43.2711462,11.396767 43.23765,11.3398234 43.21,11.28 C43.15,11.18 43.09,11.08 43.04,10.98 C42.99,10.88 42.97,10.86 42.94,10.79 C42.8907131,10.7064401 42.8472758,10.6195654 42.81,10.53 L42.72,10.34 C42.6773521,10.2594286 42.6405894,10.1758772 42.61,10.09 C42.61,10.04 42.56,9.98 42.53,9.92 C42.5,9.86 42.53,9.92 42.53,9.87 C44.8442145,8.40834025 47.2918403,7.16945992 49.84,6.17 L49.84,6.17 C49.971617,6.54234116 50.0359524,6.93512593 50.03,7.33 C50.0278778,7.53195498 50.0652448,7.7323781 50.14,7.92 C50.2959535,8.27707624 50.587295,8.55762731 50.95,8.7 C51.7548813,8.87320198 52.5955942,8.72230479 53.29,8.28 L53.38,8.28 C52.5862854,11.2733992 51.2582907,14.0987757 49.46,16.62 L49.29,16.5 Z"/>
      <path id="Path" fill="#3D454C" fill-rule="nonzero" d="M47.35 9.05C46.7977153 9.05 46.35 9.49771525 46.35 10.05 46.35 10.6022847 46.7977153 11.05 47.35 11.05 47.9022847 11.05 48.35 10.6022847 48.35 10.05 48.35 9.49771525 47.9022847 9.05 47.35 9.05zM20.68 37.58C20.1277153 37.58 19.68 38.0277153 19.68 38.58 19.68 39.1322847 20.1277153 39.58 20.68 39.58 21.2322847 39.58 21.68 39.1322847 21.68 38.58 21.68 38.0277153 21.2322847 37.58 20.68 37.58zM25 31C24.4477153 31 24 31.4477153 24 32 24 32.5522847 24.4477153 33 25 33 25.5522847 33 26 32.5522847 26 32 26 31.4477153 25.5522847 31 25 31zM30 25.18C29.4477153 25.18 29 25.6277153 29 26.18 29 26.7322847 29.4477153 27.18 30 27.18 30.5522847 27.18 31 26.7322847 31 26.18 31 25.6277153 30.5522847 25.18 30 25.18z"/>
    </g>
  </g>
</svg>
