<svg xmlns="http://www.w3.org/2000/svg" width="64" height="64" viewBox="0 0 64 64" style="background:#fff">
  <g id="Lachs" fill="none" fill-rule="evenodd" stroke="none" stroke-width="1">
    <rect width="64" height="64" fill="#FFF"/>
    <g transform="translate(2 4)">
      <rect id="Rectangle" width="60" height="60" x="0" y="0"/>
      <rect id="Rectangle" width="60" height="60" x="0" y="0"/>
      <path id="Path" fill="#BAB41D" fill-rule="nonzero" d="M14.32 52.94C13.87 49.62 11.77 45.83 8.32 44.85 6.87806394 44.4732675 5.34602885 44.6741901 4.05 45.41 2.75325396 46.2615599 2.31964127 47.9613216 3.05 49.33 3.91 50.64 5.56 51.21 6.79 52.17 7.33348902 52.5573428 7.78150941 53.0635032 8.1 53.65 8.1 53.74 8.19 53.86 8.23 53.98L8.23 54.35C8.23 56.25 9.43 59.45 11.88 58.92 14.33 58.39 14.58 54.91 14.32 52.94zM23 22.49C22.17 21 20.66 20.75 19.64 22.22 18.09 24.45 15.81 27.35 16.06 30.22 16.0363283 30.8198931 16.338411 31.3858204 16.85 31.7 17.85 32.12 19.07 31.2 19.79 30.56 20.7773053 29.6391835 21.6839503 28.6355174 22.5 27.56 23.6912242 26.1327052 23.8894701 24.1224915 23 22.49L23 22.49z" opacity=".5"/>
      <g id="Group" fill="#BAB41D" fill-rule="nonzero" opacity=".5" transform="translate(41 26)">
        <path id="Path" d="M6,2.88 C6,1.93 5.43,0.47 4.32,0.46 C4.13346626,0.450037355 3.94653374,0.450037355 3.76,0.46 C2.97638552,0.584249305 2.28608185,1.04445175 1.87,1.72 C0.854801984,3.14051392 0.491243717,4.92558501 0.87,6.63 C1.00476939,7.75890454 1.69016643,8.74767404 2.7,9.27 C3.6448573,9.55942249 4.66252947,9.14062736 5.13,8.27 C5.54766268,7.64368665 5.81149124,6.92758058 5.9,6.18 C5.9,5.93 5.9,5.68 5.9,5.44 C5.9,5.36 5.9,5.28 5.9,5.21 C6,4.4 5.91,3.66 6,2.88 Z"/>
      </g>
      <g id="Group" fill="#B3B3B3" fill-rule="nonzero" opacity=".5" transform="translate(11 9)">
        <path id="Path" d="M30.89,4 C29.3150503,4.05816298 27.7976538,4.60708291 26.55,5.57 C26.6570574,4.79487985 26.6333961,4.00729536 26.48,3.24 C26.09,1.65 24.85,-0.52 22.87,0.24 C19.87,1.46 16.36,3.83 16.03,7.38 C15.7940543,8.53456414 16.2752337,9.71779209 17.25,10.38 C18.3,10.99 19.87,10.3 20.91,9.93 C21.25,9.81 21.59,9.69 21.91,9.55 C19.19,12 16.52,14.5 13.96,17.1 C8.9,22.25 3.46,28.57 0.88,35.38 C0.59,36.13 0.88,38.26 2.15,37.75 C8.08,35.28 13.42,29.25 18.08,24.94 C23.08,20.32 30.42,16.11 33.25,9.82 C34.07,8.11 33.46,4 30.89,4 Z"/>
      </g>
      <g id="Group" fill="#B3B3B3" fill-rule="nonzero" opacity=".5" transform="translate(32 35)">
        <path id="Path" d="M4.5,0 C3.40891419,0.0681329646 2.37754782,0.521792397 1.59,1.28 C0.890114783,1.85962797 0.415883519,2.66652893 0.25,3.56 C-0.00805058841,4.74973551 0.37065195,5.98809282 1.25,6.83 C1.65437385,7.189771 2.22721676,7.29040556 2.73,7.09 C4.18523333,6.14958169 5.27272917,4.73724944 5.81,3.09 C6.1,2.06 5.93,0.08 4.5,0 Z"/>
      </g>
      <path id="Shape" fill="#3D454C" fill-rule="nonzero" d="M55.49,8.72 C55.5872203,8.16510882 55.3674695,7.6022383 54.92,7.26 C54.18,6.74 53.32,7.13 52.49,7.5 L52,7.71 C51.9756324,6.84416727 51.5782248,6.03112227 50.91,5.48 C50.3537129,5.14945143 49.6718767,5.10846674 49.08,5.37 C46.1602909,6.51848862 43.3657416,7.96267416 40.74,9.68 C39.81,10.28 38.91,10.92 38.03,11.58 C36.6914473,11.0672912 35.3856548,10.4728384 34.12,9.8 C32.9,9.17 32.12,8.75 31.2,9.05 C30.28,9.35 29.76,10.36 28.66,12.72 C28,14.1 27.15,16 25.82,18.51 C25.534139,19.0166411 25.4830308,19.6226382 25.68,20.17 C25.9648125,20.8403152 26.4837476,21.3841307 27.14,21.7 L25.88,23.14 L25.8,23.14 C24.8,22.82 22.74,22.14 21.39,24.06 L16.66,30.8 C15.9793452,31.7547112 16.1258132,33.0686154 17,33.85 C17.1272488,33.9739883 17.2721531,34.0784542 17.43,34.16 C16.64,35.28 15.88,36.37 15.16,37.41 C13.52,39.76 12.1,41.8 10.82,43.41 C6.9,42.64 3.76,43.78 2.33,45.36 C1.61658913,46.0369888 1.34240493,47.0564906 1.62,48 C1.9939181,48.8896421 2.8552488,49.4769131 3.82,49.5 C6.98180969,49.7464831 9.49351692,52.2581903 9.74,55.42 C9.88799866,56.5478237 10.7650957,57.4412389 11.89,57.61 C12.0262399,57.625274 12.1637601,57.625274 12.3,57.61 C13.2672586,57.6119593 14.1466504,57.0491485 14.55,56.17 C15.7847989,53.7615472 16.2024877,51.0167356 15.74,48.35 C17.21,47.55 18.66,46.72 20.07,45.89 C20.4178371,45.7327971 20.6458412,45.3912892 20.6576816,45.0097618 C20.6695219,44.6282343 20.463133,44.2732454 20.1257132,44.0947762 C19.7882934,43.9163069 19.3787061,43.9454917 19.07,44.17 C17.48,45.11 15.82,46.05 14.16,46.95 C13.5910385,47.2558111 12.8891079,47.154376 12.43,46.7 L12.34,46.62 C12.20509,46.4468202 12.1033788,46.2501787 12.04,46.04 L12.04,45.99 L12.04,45.84 C12.04,45.84 12.04,45.77 12.04,45.73 L12.04,45.61 C12.0351415,45.5567773 12.0351415,45.5032227 12.04,45.45 C12.0353478,45.416829 12.0353478,45.383171 12.04,45.35 C12.0508379,45.2841297 12.0710426,45.2201484 12.1,45.16 L12.1,45.05 C12.1445319,44.9582159 12.198132,44.8711157 12.26,44.79 C13.61,43.07 15.08,40.95 16.79,38.49 C22.47,30.33 30.19,19.24 40.79,11.99 C40.8125895,12.0200275 40.8295317,12.0539118 40.84,12.09 C40.95,12.33 41.07,12.58 41.21,12.84 C41.2064285,12.8665471 41.2064285,12.8934529 41.21,12.92 C41.34,13.16 41.49,13.41 41.65,13.66 L41.77,13.86 C41.95,14.14 42.14,14.42 42.36,14.7 C42.3957267,14.7414386 42.4291119,14.7848394 42.46,14.83 C42.66,15.08 42.88,15.33 43.11,15.59 L43.27,15.76 C43.53,16.04 43.82,16.32 44.13,16.6 L44.32,16.76 C44.6,17.01 44.91,17.25 45.23,17.49 L45.41,17.62 C45.77,17.88 46.17,18.13 46.59,18.38 L46.88,18.54 C47.2933333,18.7666667 47.7233333,18.9866667 48.17,19.2 C48.2032385,19.2035562 48.2367615,19.2035562 48.27,19.2 C47.58,20.2 46.78,21.2 45.88,22.28 L45.88,22.28 C43.2983154,25.3990298 40.479961,28.3143383 37.45,31 L37.45,31 C33.6284944,34.3479273 29.586029,37.4349009 25.35,40.24 C24.893725,40.5451825 24.7687527,41.1611173 25.07,41.62 C25.3751825,42.076275 25.9911173,42.2012473 26.45,41.9 C27.45,41.26 28.33,40.63 29.23,40 L29.23,40 C30.08,39.45 33.23,40.88 35.58,42.49 C35.9355556,42.7566667 36.4244444,42.7566667 36.78,42.49 C40.53,39.49 40.27,35.02 39.4,32.39 C40.62,32.39 42.96,33.23 44.81,34.33 C44.9643557,34.4215893 45.1405167,34.4699472 45.32,34.47 C45.600642,34.4718991 45.8691655,34.3557808 46.06,34.15 C49.92,30 48.49,24.94 47.84,23.22 C48.96,21.84 49.91,20.57 50.69,19.43 C53.51,15.31 55.26,11.41 55.49,8.72 Z M12.75,55.36 C12.6598085,55.5766998 12.4310232,55.7014918 12.2,55.66 C11.9436891,55.6242646 11.7452483,55.4175555 11.72,55.16 C11.3316716,51.1233577 8.13664233,47.9283284 4.1,47.54 C3.88580579,47.5277057 3.67873194,47.4586811 3.5,47.34 C3.5,47.29 3.5,46.99 3.99,46.58 C5.22318126,45.5957699 6.77435108,45.0976879 8.35,45.18 C8.89588657,45.1808962 9.44087204,45.2243613 9.98,45.31 C9.91136247,45.9627429 10.0292573,46.6215672 10.32,47.21 C10.32,47.28 10.39,47.34 10.42,47.4 C10.45,47.46 10.49,47.54 10.53,47.6 L10.65,47.79 L10.87,48.07 L10.87,48.07 L10.87,48.07 L10.96,48.16 L11.07,48.25 L11.23,48.36 L11.62,48.65 L11.84,48.76 C11.97884,48.8302152 12.1225429,48.8903699 12.27,48.94 L12.5,49.01 C12.6510804,49.0505461 12.8047789,49.0806175 12.96,49.1 L13.2,49.1 L13.41,49.1 L13.58,49.1 C13.6532476,49.1050162 13.7267524,49.1050162 13.8,49.1 C14.097648,51.2449332 13.7312149,53.4295725 12.75,55.36 L12.75,55.36 Z M36.06,40.46 C34.6986508,39.543872 33.2226416,38.8109107 31.67,38.28 C33.85,36.66 35.84,35.07 37.67,33.53 C38.4347543,35.9608517 37.8180737,38.6152598 36.06,40.46 L36.06,40.46 Z M45.06,32.2 C43.7578039,31.4692574 42.3614263,30.9208006 40.91,30.57 C42.99,28.57 44.76,26.75 46.27,25.03 C46.9887211,27.4750099 46.5543658,30.1142708 45.09,32.2 L45.06,32.2 Z M49.79,7.2 L49.79,7.2 C49.921617,7.57234116 49.9859524,7.96512593 49.98,8.36 C49.977885,8.55871111 50.0152757,8.75586186 50.09,8.94 C50.2431284,9.29903339 50.5354458,9.58052419 50.9,9.72 C51.7048813,9.89320198 52.5455942,9.74230479 53.24,9.3 L53.33,9.3 C52.5386589,12.2973492 51.2105198,15.1264209 49.41,17.65 L49.27,17.59 L49,17.42 L48.48,17.17 L48.17,17 L47.69,16.73 L47.41,16.56 C47.2481063,16.4648184 47.0912311,16.3613476 46.94,16.25 L46.71,16.11 L46.09,15.65 L45.94,15.52 L45.52,15.16 L45.31,15 L45,14.7 L44.8,14.49 L44.53,14.2 L44.35,14 L44.1,13.7 L44,13.48 L43.73,13.11 C43.6830098,13.0778875 43.6394473,13.0410269 43.6,13 C43.49,12.84 43.39,12.69 43.3,12.53 L43.19,12.35 L43,12.05 L42.9,11.86 L42.77,11.6 L42.68,11.41 C42.68,11.32 42.6,11.24 42.57,11.16 L42.52,11 C42.5190302,10.9833474 42.5190302,10.9666526 42.52,10.95 C44.830463,9.48513809 47.2747591,8.24289992 49.82,7.24 L49.79,7.2 Z M18.35,32.38 C18.2476456,32.2800455 18.2269856,32.1230293 18.3,32 L23,25.18 C23.33,24.71 23.72,24.64 24.46,24.81 C22.34,27.39 20.46,29.97 18.64,32.43 C18.6,32.48 18.49,32.5 18.35,32.38 Z M28.54,20.17 C27.82,19.82 27.61,19.61 27.6,19.44 C28.94,16.87 29.83,14.96 30.48,13.56 C30.8509107,12.6727767 31.2923235,11.8167034 31.8,11 C32.2911488,11.1507002 32.7614791,11.3623489 33.2,11.63 C33.91,12 34.89,12.5 36.2,13.05 C33.4784383,15.2356569 30.9184336,17.6151912 28.54,20.17 L28.54,20.17 Z"/>
      <path id="Path" fill="#3D454C" fill-rule="nonzero" d="M22.71 42.28C22.1577153 42.28 21.71 42.7277153 21.71 43.28 21.71 43.8322847 22.1577153 44.28 22.71 44.28 23.2622847 44.28 23.71 43.8322847 23.71 43.28 23.71 42.7277153 23.2622847 42.28 22.71 42.28zM47.35 12.11C47.9022847 12.11 48.35 11.6622847 48.35 11.11 48.35 10.5577153 47.9022847 10.11 47.35 10.11 46.7977153 10.11 46.35 10.5577153 46.35 11.11 46.35 11.6622847 46.7977153 12.11 47.35 12.11z"/>
    </g>
  </g>
</svg>
