<svg xmlns="http://www.w3.org/2000/svg" width="64" height="64" viewBox="0 0 64 64" style="background:#fff">
  <g id="Lamm-(Keule-ohne-Schlossbein)" fill="none" fill-rule="evenodd" stroke="none" stroke-width="1">
    <rect width="64" height="64" fill="#FFF"/>
    <g transform="translate(2 4)">
      <g id="Layer_2">
        <rect id="Rectangle" width="60" height="60" x="0" y="0"/>
        <rect id="Rectangle" width="60" height="60" x="0" y="0"/>
      </g>
      <g id="Layer_1" fill-rule="nonzero" transform="translate(2 3)">
        <path id="Path" fill="#E05362" d="M41.3,41 C39.18,40.6 37.38,41.13 35.3,41.35 C33.22,41.57 31.09,41.23 29.01,41.58 C25.45,42.18 23.01,44.81 22.01,48.18 C21.47,49.92 21.71,53.57 24.22,53.64 C30.22,53.8 38.61,54.37 41.22,47.74 C41.5041148,46.9789255 41.5563124,46.1507232 41.37,45.36 C41.5,45.25 41.63,45.15 41.75,45.03 C42.58,44.24 42.84,41.28 41.3,41 Z" opacity=".5"/>
        <path id="Path" fill="#4885E0" d="M13,28.29 C9.76495154,26.7647866 5.94270695,27.2231452 3.16,29.47 C1.48,30.86 2.05,36 4.86,35.12 C7.15776353,34.2959462 9.65777655,34.2224164 12,34.91 C15.31,35.83 15.37,29.54 13,28.29 Z" opacity=".5"/>
        <path id="Path" fill="#E05362" d="M31.45,35.56 C29.67,33.31 26.64,32.14 24.01,31.14 C21.85,30.32 18.26,28.56 16.5,30.65 C15.8182101,31.4949051 15.6461094,32.6422428 16.05,33.65 C17.27,36.31 20.05,36.59 22.56,37.65 C25.07,38.71 27.56,40.65 30.15,40.86 C32.45,41.06 32.38,36.75 31.45,35.56 Z" opacity=".5"/>
        <path id="Path" fill="#E0A075" d="M45.58,8.35 C43.18,6.53 38.48,5.85 35.64,7.16 C34.629051,7.55999524 33.7251695,8.18997326 33,9 C30.81,12.29 31.5,16 33.16,19.18 C34.38,21.56 36.1,25.18 39.39,25.18 C42.9,25.18 46.09,21.09 47.39,18.34 C48.88,15.09 48.72,10.71 45.58,8.35 Z" opacity=".5"/>
        <path id="Shape" fill="#3D454C" d="M55.37,10.57 C55.37,8.47 52.73,7.3 49.49,6.65 C49.6922742,5.11357787 49.0676221,3.58463669 47.8473715,2.62938999 C46.6271209,1.6741433 44.992934,1.43480144 43.55,2 C42.7542258,0.739141541 41.3608697,-0.0181171957 39.87,1.6844165e-15 L39.87,1.6844165e-15 C38.37559,-0.0216155978 36.9776425,0.736079505 36.18,2 C34.7409654,1.43905987 33.1127105,1.67939484 31.8971042,2.63216739 C30.6814978,3.58493993 30.0591098,5.10862236 30.26,6.64 C27.03,7.29 24.38,8.46 24.38,10.56 C24.3681303,11.1900017 24.639781,11.7920383 25.12,12.2 C25.3960057,12.4186926 25.7118512,12.5817096 26.05,12.68 C25.5533044,14.2140067 25.8904485,15.8959392 26.94,17.12 C25.8949473,18.3671336 25.5675973,20.0653335 26.0741923,21.6115673 C26.5807873,23.157801 27.8495722,24.3330568 29.43,24.72 C29.31598,26.3436641 30.0483547,27.9111265 31.3669006,28.8654444 C32.6854464,29.8197623 34.4032689,30.0256679 35.91,29.41 C36.757241,30.8037142 38.2791558,31.6445721 39.91,31.62 L39.91,31.62 C41.5454147,31.6424233 43.0692079,30.7929086 43.91,29.39 C45.4197413,29.9935363 47.1338272,29.7775422 48.4466449,28.8183318 C49.7594626,27.8591213 50.4861661,26.2917523 50.37,24.67 C51.9472621,24.2742632 53.208822,23.092908 53.707163,21.5449999 C54.205504,19.9970918 53.8701265,18.3016109 52.82,17.06 C53.3378461,16.4368667 53.6827127,15.688506 53.82,14.89 C53.9494278,14.1121503 53.8806409,13.3142231 53.62,12.57 C53.9908728,12.4652234 54.3329075,12.2771043 54.62,12.02 C55.0766115,11.6751233 55.3523921,11.1419475 55.37,10.57 Z M33.18,4.18 C34.0123647,3.52210678 35.1876353,3.52210678 36.02,4.18 C36.2814518,4.38157037 36.6255406,4.44111333 36.9395228,4.33911912 C37.253505,4.2371249 37.4969159,3.98673806 37.59,3.67 C37.8771037,2.66067484 38.8109665,1.97364805 39.86,2 L39.86,2 C40.9147083,1.97605506 41.8504727,2.67272544 42.13,3.69 C42.2227396,4.0069639 42.4659912,4.25770025 42.78,4.36 C43.0942685,4.46191652 43.4385925,4.40203408 43.7,4.2 C44.4516494,3.61596076 45.4797888,3.53829388 46.3106457,4.0027887 C47.1415026,4.46728352 47.6138392,5.38379911 47.51,6.33 C44.9723112,6.01585615 42.4170182,5.8655448 39.86,5.88 C37.3029892,5.86582142 34.7477139,6.01613173 32.21,6.33 C32.1155133,5.48982327 32.4875746,4.66515125 33.18,4.18 L33.18,4.18 Z M39.87,7.87 C50.17,7.87 53.37,9.87 53.4,10.5 C53.23,10.69 51.98,11.1 48.55,10.56 L48.42,10.56 L48.32,10.56 C48.2272788,10.5448823 48.1327212,10.5448823 48.04,10.56 L48.04,10.56 C47.7147567,10.6876278 47.4797083,10.9757516 47.42,11.32 C47.4005921,11.4325024 47.4005921,11.5474976 47.42,11.66 C47.36,18.53 44.21,23.49 39.87,23.49 C35.53,23.49 32.36,18.49 32.36,11.49 C32.36,11.49 32.36,11.43 32.36,11.4 C32.3551108,11.3735574 32.3551108,11.3464426 32.36,11.32 C32.36,11.32 32.36,11.25 32.36,11.21 C32.3445217,11.1472339 32.3209934,11.0867324 32.29,11.03 C32.29,10.97 32.22,10.91 32.18,10.86 L32,10.8 C31.9464819,10.7510403 31.8857774,10.7105707 31.82,10.68 L31.67,10.61 L31.46,10.61 L31.35,10.61 L31.18,10.61 C27.49,11.25 26.6,10.91 26.3899069,10.73 C26.3899069,10.73 26.3899069,10.73 26.3899069,10.62 C26.37,9.84 29.57,7.87 39.87,7.87 Z M51.87,14.55 C51.7375767,15.2456935 51.3301851,15.8585835 50.74,16.25 C50.4682194,16.4385255 50.3072443,16.7492449 50.31,17.08 C50.3105385,17.4072236 50.4711378,17.7134827 50.74,17.9 C51.7104688,18.5640137 52.1371725,19.7814172 51.793613,20.9060019 C51.4500535,22.0305867 50.4158634,22.8016886 49.24,22.81 L49.14,22.81 C48.8181426,22.8114883 48.5166758,22.9678044 48.33,23.23 C48.1381806,23.4966967 48.089586,23.8405964 48.2,24.15 C48.5726623,25.2672371 48.1752108,26.4969869 47.2191651,27.1847895 C46.2631194,27.8725922 44.970814,27.8584948 44.03,27.15 C43.7668151,26.9513879 43.4226424,26.8952728 43.11,27 C42.7959912,27.1022997 42.5527396,27.3530361 42.46,27.67 C42.1511613,28.8291864 41.0893278,29.6265944 39.89,29.6 L39.89,29.6 C38.694701,29.6241458 37.6358192,28.8330746 37.32,27.68 C37.2272604,27.3630361 36.9840088,27.1122997 36.67,27.01 C36.3557315,26.9080835 36.0114075,26.9679659 35.75,27.17 C34.8095907,27.8874554 33.5108616,27.9064238 32.5499004,27.2167388 C31.5889392,26.5270537 31.1912562,25.2905646 31.57,24.17 C31.680414,23.8605964 31.6318194,23.5166967 31.44,23.25 C31.2450321,22.9828299 30.9305735,22.8293442 30.6,22.84 L30.5,22.84 C29.3638879,22.792032 28.3806599,22.0348643 28.0440407,20.9487064 C27.7074215,19.8625485 28.0901339,18.6820522 29,18 C29.2726604,17.8157191 29.4371971,17.5090825 29.44,17.18 C29.4577568,16.8298126 29.290804,16.495907 29,16.3 C27.8817542,15.5678434 27.4939166,14.1112975 28.1,12.92 C28.8736502,12.8986515 29.6451828,12.8285122 30.41,12.71 C30.76,20.33 34.55,25.56 39.88,25.56 C45.21,25.56 49,20.21 49.39,12.69 C50.1291626,12.7885761 50.8743124,12.8353568 51.62,12.83 C51.8837958,13.3622279 51.974698,13.9635811 51.88,14.55 L51.87,14.55 Z"/>
        <path id="Path" fill="#3D454C" d="M37.82 16.47C38.1485282 16.6950252 38.5048274 16.8765361 38.88 17.01 38.8749803 17.0498425 38.8749803 17.0901575 38.88 17.13 38.8267493 17.5484167 38.6569585 17.9434401 38.39 18.27 38.11 18.51 37.5 18.35 37.18 18.16 36.7051496 17.9115983 36.1188937 18.0816763 35.8507068 18.5456398 35.5825198 19.0096032 35.7277474 19.602504 36.18 19.89 37.1761902 20.512335 38.4311819 20.5467708 39.46 19.98 39.6138399 19.8733269 39.7547824 19.7491633 39.88 19.61 40.0052176 19.7491633 40.1461601 19.8733269 40.3 19.98 41.3288181 20.5467708 42.5838098 20.512335 43.58 19.89 44.0322526 19.602504 44.1774802 19.0096032 43.9092932 18.5456398 43.6411063 18.0816763 43.0548504 17.9115983 42.58 18.16 42.26 18.35 41.65 18.51 41.38 18.27 41.1055767 17.946985 40.9317568 17.5506757 40.88 17.13L40.88 17.13C41.3651259 16.9822402 41.8030231 16.7098475 42.15 16.34 43.03 15.41 41.62 13.99 40.73 14.93 40.11 15.58 39.48 15.19 38.85 14.76 37.76 14 36.76 15.75 37.82 16.47zM36.53 13.26C37.0822847 13.26 37.53 12.8122847 37.53 12.26 37.53 11.7077153 37.0822847 11.26 36.53 11.26 35.9777153 11.26 35.53 11.7077153 35.53 12.26 35.53 12.8122847 35.9777153 13.26 36.53 13.26zM43.21 13.26C43.7622847 13.26 44.21 12.8122847 44.21 12.26 44.21 11.7077153 43.7622847 11.26 43.21 11.26 42.6577153 11.26 42.21 11.7077153 42.21 12.26 42.21 12.8122847 42.6577153 13.26 43.21 13.26z"/>
        <path id="Shape" fill="#3D454C" d="M22.43,31.19 C21.9243863,31.1370161 21.4594868,31.4718204 21.3494741,31.9681566 C21.2394615,32.4644929 21.5193522,32.9643795 22,33.13 C30.7,35.25 36.69,37.96 40.27,41.4 C39.3341074,41.2826238 38.3840363,41.3609451 37.48,41.63 C36.97,41.77 36.48,41.94 35.98,42.12 C35.153998,42.4562503 34.2860021,42.6782957 33.4,42.78 C32.997213,42.8096898 32.592787,42.8096898 32.19,42.78 L31.56,42.78 C29.2619863,42.7169983 26.9893092,43.2730788 24.98,44.39 C24.0913364,44.8342406 23.325526,45.4901589 22.75,46.3 C21.8709322,47.8134897 21.6026771,49.6054338 22,51.31 C19,50.24 16.37,47.88 16.26,44.79 C16.2474015,44.3294052 16.2641019,43.8684754 16.31,43.41 C16.4077854,42.561605 16.3909678,41.7039097 16.26,40.86 C15.76,38.33 13.55,36.72 11.79,35.86 C10.0274974,34.9283653 8.12093755,34.2996062 6.15,34 C5.89,34 5.62,33.94 5.34,33.91 C4.55300697,33.9461205 3.77714802,33.7133628 3.14,33.25 C2.67,32.72 2.86,31.82 3.59,31.04 C5.94,29.29 10.82,29.91 14.31,31.42 C14.5538981,31.526972 14.8303917,31.5322338 15.0781832,31.434619 C15.3259747,31.3370041 15.5245912,31.1445777 15.63,30.9 C15.736972,30.6561019 15.7422338,30.3796083 15.644619,30.1318168 C15.5470041,29.8840253 15.3545777,29.6854088 15.11,29.58 C10.9,27.77 5.11,27.19 2.18,29.58 C2.07218438,29.6715516 1.98378171,29.783755 1.92,29.91 C0.66,31.43 0.52,33.29 1.64,34.56 C2.59037641,35.4399088 3.84510945,35.9167074 5.14,35.89 L5.87,35.97 C7.61372447,36.222966 9.30335876,36.7636489 10.87,37.57 C12.23,38.28 13.94,39.49 14.29,41.23 C14.3794078,41.893669 14.3794078,42.566331 14.29,43.23 C14.29,43.75 14.22,44.28 14.24,44.83 C14.42,49.66 19.02,52.97 23.47,53.75 C26.6662343,54.139762 29.9031204,54.0419811 33.07,53.46 C34.07,53.33 35.17,53.19 36.22,53.09 C36.5562632,53.0619935 36.8903186,53.0118852 37.22,52.94 C37.6255202,52.8520842 38.0074521,52.6781688 38.34,52.43 C38.7069424,52.1157897 39.0121475,51.7359789 39.24,51.31 L42.85,45.31 C43.3587864,44.6047008 43.6158725,43.748921 43.58,42.88 C43.4580543,42.1416614 43.1084264,41.459887 42.58,40.93 C37.62,35.39 28.7,32.72 22.43,31.19 Z M37.55,50.31 C37.4399337,50.5173468 37.2982343,50.7062792 37.13,50.87 C36.7947792,51.0385523 36.4252023,51.1275245 36.05,51.13 C34.98,51.23 33.91,51.37 32.84,51.51 C29.9571823,52.0350574 27.014203,52.1461767 24.1,51.84 C24.1,51.79 24.1,51.75 24.1,51.7 C23.81,50.05 23.61,48.47 24.36,47.36 C24.7635268,46.8187864 25.2918517,46.3830899 25.9,46.09 C27.5952477,45.1489037 29.5117134,44.6792832 31.45,44.73 L32.03,44.73 C32.5128612,44.7602118 32.9971388,44.7602118 33.48,44.73 C34.5483543,44.6296602 35.5980297,44.3840631 36.6,44 C37.05,43.84 37.5,43.68 37.96,43.56 C38.64,43.38 40.29,43.04 41.22,43.92 C41.2551812,43.9455895 41.2919186,43.9689679 41.33,43.99 L41.15,44.3 L37.55,50.31 Z"/>
        <path id="Path" fill="#3D454C" d="M18.66,32.34 C19.1645291,32.1839429 19.4607332,31.6624655 19.3363855,31.1492004 C19.2120378,30.6359354 18.7100102,30.3078439 18.19,30.4 C17.6854709,30.5560571 17.3892668,31.0775345 17.5136145,31.5907996 C17.6379622,32.1040646 18.1399898,32.4321561 18.66,32.34 Z"/>
      </g>
    </g>
  </g>
</svg>
