<svg xmlns="http://www.w3.org/2000/svg" width="64" height="64" viewBox="0 0 64 64" style="background:#fff">
  <g id="Lamm-(Rücken-ohne-Filet)" fill="none" fill-rule="evenodd" stroke="none" stroke-width="1">
    <rect width="64" height="64" fill="#FFF"/>
    <g transform="translate(2 4)">
      <g id="Layer_2">
        <rect id="Rectangle" width="60" height="60" x="0" y="0"/>
        <rect id="Rectangle" width="60" height="60" x="0" y="0"/>
      </g>
      <g id="Layer_1" fill-rule="nonzero" transform="translate(4 2)">
        <g id="Group" fill="#E05362" opacity=".5" transform="translate(0 20)">
          <path id="Path" d="M36.59,28 C35.49,24.61 30.15,23.87 27.2,23 C22.1507223,21.6181179 16.9968718,20.651562 11.79,20.11 C11.3913411,20.0617307 10.9883072,20.1536507 10.65,20.37 C10.7259211,18.7352383 10.6757727,17.0970568 10.5,15.47 C10.0570935,10.6290371 8.36148212,5.98678384 5.58,2 C3.63,-0.78 1.01,2.5 1.28,4.86 C1.28,5.22 1.35,5.59 1.4,5.95 C0.502459438,9.89476159 0.454735646,13.9853724 1.26,17.95 C1.8,20.44 3.73,26.95 7.33,26.22 C7.33620063,27.2319014 7.72569352,28.2038469 8.42,28.94 L8.42,28.94 C15.27,33.78 28.12,38.21 35.89,32.86 C37.29,31.92 37,29.36 36.59,28 Z"/>
          <path id="Path" d="M12.46,14.25 C14.33,15.41 16.31,15.34 18.38,15.9 C20.0322982,16.3209262 21.4367478,17.4068409 22.26,18.9 C22.5142518,19.350728 22.9579282,19.6630262 23.4680091,19.7503024 C23.97809,19.8375786 24.5003574,19.6905559 24.89,19.35 C25.7812833,18.3283275 26.1173055,16.935702 25.79,15.62 C24.65,10 17.05,7 12.36,10.29 C11.34,11 11.38,13.59 12.46,14.25 Z"/>
        </g>
        <path id="Path" fill="#E0A075" d="M43.58,8.15 C41.18,6.33 36.48,5.65 33.64,6.96 C32.6236856,7.36428806 31.7185911,8.00539663 31,8.83 C28.81,12.12 29.5,15.83 31.16,19.01 C32.38,21.39 34.1,25.01 37.39,25.01 C40.9,25.01 44.09,20.91 45.39,18.17 C46.88,14.89 46.72,10.51 43.58,8.15 Z" opacity=".5"/>
        <path id="Shape" fill="#3D454C" d="M53.37,10.9 C53.37,8.8 50.73,7.63 47.49,6.98 C47.7290074,5.38213712 47.0435358,3.78657613 45.72,2.86 C44.5218671,1.95874889 42.9381798,1.75366708 41.55,2.32 C40.7542258,1.05914154 39.3608697,0.301882804 37.87,0.32 L37.87,0.32 C36.3765513,0.302283049 34.9803843,1.05901314 34.18,2.32 C32.73254,1.74906786 31.0906808,1.99085249 29.8692532,2.95481225 C28.6478255,3.91877201 28.0310912,5.45948618 28.25,7 C25.02,7.65 22.37,8.82 22.37,10.92 C22.3552402,11.5505917 22.6274263,12.1538149 23.11,12.56 C23.3751114,12.7633395 23.677463,12.9128167 24,13 C23.5035671,14.5372286 23.8405124,16.2219555 24.89,17.45 C23.8441553,18.6952494 23.5163193,20.3926473 24.0232256,21.9377955 C24.530132,23.4829438 25.799749,24.6562761 27.38,25.04 C27.26598,26.6636641 27.9983547,28.2311265 29.3169006,29.1854444 C30.6354464,30.1397623 32.3532689,30.3456679 33.86,29.73 C34.707241,31.1237142 36.2291558,31.9645721 37.86,31.94 L37.86,31.94 C39.4964579,31.9665639 41.0221815,31.1159731 41.86,29.71 C43.3723147,30.3369371 45.1016935,30.1336136 46.4273612,29.1730144 C47.7530289,28.2124152 48.4848004,26.6323512 48.36,25 C49.9372621,24.6042632 51.198822,23.422908 51.697163,21.8749999 C52.195504,20.3270918 51.8601265,18.6316109 50.81,17.39 C51.3254792,16.7692003 51.6701535,16.0247037 51.81,15.23 C51.9394073,14.4488359 51.8706389,13.6476838 51.61,12.9 C51.9808728,12.7952234 52.3229075,12.6071043 52.61,12.35 C53.0715245,12.0081336 53.3514579,11.4740503 53.37,10.9 Z M31.18,4.51 C32.0136256,3.85574568 33.1863744,3.85574568 34.02,4.51 C34.2814075,4.71203408 34.6257315,4.77191652 34.94,4.67 C35.2540088,4.56770025 35.4972604,4.3169639 35.59,4 C35.8618623,2.97477329 36.7995603,2.26840173 37.86,2.29 L37.86,2.29 C38.9229613,2.26738184 39.8640843,2.9732241 40.14,4 C40.2355623,4.31313924 40.4783561,4.55966836 40.79,4.66 C41.1042685,4.76191652 41.4485925,4.70203408 41.71,4.5 C42.465228,3.92427602 43.4904282,3.85261503 44.3184064,4.31767366 C45.1463846,4.78273229 45.6186553,5.69549241 45.52,6.64 C42.9824686,6.32314602 40.4272156,6.16949682 37.87,6.18 C35.3127921,6.16977134 32.7575566,6.32341949 30.22,6.64 C30.130902,5.80857888 30.4980735,4.99391711 31.18,4.51 Z M37.87,8.2 C48.17,8.2 51.37,10.2 51.4,10.83 C51.23,11.02 49.98,11.44 46.55,10.89 L46.42,10.89 L46.31,10.89 C46.2204731,10.8945103 46.13245,10.9148233 46.05,10.95 L46.05,10.95 C45.7313032,11.078577 45.5009545,11.3617926 45.44,11.7 C45.4194246,11.8157595 45.4194246,11.9342405 45.44,12.05 C45.38,18.91 42.23,23.87 37.89,23.87 C33.55,23.87 30.38,18.82 30.38,11.87 C30.38,11.87 30.38,11.81 30.38,11.79 C30.3749648,11.7602113 30.3749648,11.7297887 30.38,11.7 C30.3816677,11.6666875 30.3816677,11.6333125 30.38,11.6 C30.363776,11.5327597 30.3367589,11.4685941 30.3,11.41 C30.2726358,11.3531604 30.2391007,11.2995043 30.2,11.25 L30,11.12 L29.84,11.02 L29.67,10.94 L29.47,10.94 L29.36,10.94 L29.28,10.94 L29.19,10.94 C25.5,11.58 24.61,11.24 24.3997914,11.06 C24.3997914,11.06 24.3997914,11.06 24.3997914,10.95 C24.37,10.18 27.57,8.2 37.87,8.2 Z M49.87,14.88 C49.7419403,15.5774655 49.3335082,16.1919208 48.74,16.58 C48.4678361,16.7664348 48.3051327,17.0751044 48.3051327,17.405 C48.3051327,17.7348956 48.4678361,18.0435652 48.74,18.23 C49.7232763,18.9021631 50.1474668,20.1409142 49.7826163,21.2747217 C49.4177658,22.4085293 48.3507491,23.1674215 47.16,23.14 C46.8305485,23.1215158 46.5155286,23.277128 46.33,23.55 C46.1381806,23.8166967 46.089586,24.1605964 46.2,24.47 C46.5726623,25.5872371 46.1752108,26.8169869 45.2191651,27.5047895 C44.2631194,28.1925922 42.970814,28.1784948 42.03,27.47 C41.7671709,27.2686157 41.4216991,27.2103863 41.1073796,27.3144921 C40.7930601,27.4185979 40.5506511,27.6715394 40.46,27.99 C40.183427,29.1773165 39.1190338,30.0130315 37.9,30 L37.9,30 C36.676498,30.0235632 35.6021721,29.1907524 35.32,28 C35.2272604,27.6830361 34.9840088,27.4322997 34.67,27.33 C34.3557315,27.2280835 34.0114075,27.2879659 33.75,27.49 C32.8123371,28.2240297 31.5027938,28.2513206 30.5353639,27.5569929 C29.5679341,26.8626653 29.1746747,25.6132672 29.57,24.49 C29.6839629,24.1776646 29.6352407,23.8291134 29.44,23.56 C29.2450321,23.2928299 28.9305735,23.1393442 28.6,23.15 C27.4290017,23.1605239 26.3857343,22.4122735 26.020218,21.2997333 C25.6547017,20.1871931 26.0509269,18.9660088 27,18.28 C27.2726604,18.0957191 27.4371971,17.7890825 27.44,17.46 C27.4405011,17.1273739 27.2755788,16.8162704 27,16.63 C25.8817542,15.8978434 25.4939166,14.4412975 26.1,13.25 C26.8711845,13.2154213 27.6393961,13.1319201 28.4,13 C28.75,20.62 32.54,25.85 37.87,25.85 C43.2,25.85 47,20.54 47.39,13 C48.1291626,13.0985761 48.8743124,13.1453568 49.62,13.14 C49.8879959,13.6780672 49.979,14.2870943 49.88,14.88 L49.87,14.88 Z"/>
        <path id="Path" fill="#3D454C" d="M35.82 16.8C36.1505284 17.0242906 36.5063097 17.2088941 36.88 17.35 36.8749343 17.3864917 36.8749343 17.4235083 36.88 17.46 36.8288864 17.8789967 36.6588499 18.2745918 36.39 18.6 36.11 18.84 35.5 18.68 35.18 18.49 34.7051496 18.2415983 34.1188937 18.4116763 33.8507068 18.8756398 33.5825198 19.3396032 33.7277474 19.932504 34.18 20.22 35.1761902 20.842335 36.4311819 20.8767708 37.46 20.31 37.6138399 20.2033269 37.7547824 20.0791633 37.88 19.94 38.0052176 20.0791633 38.1461601 20.2033269 38.3 20.31 39.3288181 20.8767708 40.5838098 20.842335 41.58 20.22 42.0322526 19.932504 42.1774802 19.3396032 41.9092932 18.8756398 41.6411063 18.4116763 41.0548504 18.2415983 40.58 18.49 40.26 18.68 39.65 18.84 39.38 18.6 39.1055767 18.276985 38.9317568 17.8806757 38.88 17.46L38.88 17.46C39.3651259 17.3122402 39.8030231 17.0398475 40.15 16.67 41.03 15.74 39.62 14.32 38.73 15.26 38.11 15.91 37.48 15.52 36.85 15.09 35.76 14.35 34.76 16.08 35.82 16.8zM34.53 13.59C35.0822847 13.59 35.53 13.1422847 35.53 12.59 35.53 12.0377153 35.0822847 11.59 34.53 11.59 33.9777153 11.59 33.53 12.0377153 33.53 12.59 33.53 13.1422847 33.9777153 13.59 34.53 13.59zM41.21 13.59C41.7622847 13.59 42.21 13.1422847 42.21 12.59 42.21 12.0377153 41.7622847 11.59 41.21 11.59 40.6577153 11.59 40.21 12.0377153 40.21 12.59 40.21 13.1422847 40.6577153 13.59 41.21 13.59z"/>
        <path id="Shape" fill="#3D454C" d="M37.85,46.24 C37.178878,45.6855173 36.3703718,45.322726 35.51,45.19 L34.81,45.01 C32.5010348,44.4646008 30.342258,43.4125387 28.49,41.93 C26.7330406,40.5231092 25.6775816,38.4194953 25.6,36.17 C25.6,35.82 25.6,35.46 25.68,35.11 C25.8675827,34.0206086 25.7711461,32.9012548 25.4,31.86 C24.5095459,30.1966138 22.7865329,29.1474904 20.9,29.12 C20.0328698,29.0727358 19.1633309,29.0961464 18.3,29.19 C17.64,29.19 17.01,29.29 16.4,29.28 C13.6018668,29.1891391 11.0202709,27.7511939 9.47,25.42 C9.21,25.02 8.97,24.6 8.74,24.17 C8.23954056,23.1343942 7.56279117,22.1937125 6.74,21.39 C5.80216801,20.5574066 4.55713659,20.1581254 3.31,20.29 C2.43779716,20.3954242 1.65564035,20.877876 1.17,21.61 C0.757315859,22.3649582 0.566639849,23.2212668 0.62,24.08 C0.572198396,28.4674236 0.906797232,32.8506683 1.62,37.18 C2.28,41.18 3.62,46.95 7.92,50.18 C10.1082898,51.6306584 12.5355591,52.6834906 15.09,53.29 C16.7171545,53.8240359 18.391331,54.2023998 20.09,54.42 C20.5849948,54.4718389 21.0823003,54.4985399 21.58,54.5 C23.8454094,54.4220913 26.0970093,54.1138366 28.3,53.58 L35.3,52.11 C35.7,52.06 37.78,51.77 38.7,50.52 C39.62,49.27 39.05,47.27 37.85,46.24 Z M37.13,49.32 C36.5213929,49.7979757 35.78227,50.0803765 35.01,50.13 L27.91,51.61 C25.4285228,52.2612785 22.8629702,52.5343531 20.3,52.42 C18.7234606,52.2132575 17.1699213,51.8583541 15.66,51.36 C13.3366413,50.8198921 11.1263307,49.8755175 9.13,48.57 C8.84,48.35 8.57,48.11 8.3,47.86 C9.9,45.79 10.53,43.25 11.13,40.78 C11.3983551,39.5760334 11.7321844,38.3876013 12.13,37.22 C12.3095869,36.5461835 12.689717,35.9428577 13.22,35.49 C13.8045265,35.2163574 14.4448206,35.0828202 15.09,35.1 C15.3575558,35.0772778 15.6047321,34.9479084 15.7758925,34.7410111 C15.947053,34.5341138 16.027815,34.2670744 16,34 C15.948458,33.4870987 15.5154781,33.0974168 15,33.1 C14.0117271,33.0822224 13.0360285,33.3235612 12.17,33.8 C11.256259,34.4810569 10.5920856,35.4439326 10.28,36.54 C9.86070189,37.7737929 9.50687551,39.0288752 9.22,40.3 C8.84922892,42.4193773 8.09342654,44.4529263 6.99,46.3 C4.99,43.53 4.13,39.91 3.63,36.83 C2.92704456,32.6171036 2.59244628,28.3509755 2.63,24.08 C2.59351717,23.594201 2.67589048,23.1068256 2.87,22.66 C3.0302549,22.4156631 3.29809354,22.2631439 3.59,22.25 L3.82,22.25 C4.40472865,22.2626613 4.96684599,22.4783163 5.41,22.86 C6.06089858,23.5243525 6.59807106,24.2912591 7,25.13 C7.26,25.6 7.51,26.07 7.8,26.52 C9.71470695,29.3986346 12.9044173,31.172352 16.36,31.28 C17.0680033,31.2875506 17.775851,31.2541616 18.48,31.18 C19.2373802,31.1026548 19.9993015,31.0792625 20.76,31.11 C21.9043061,31.1061525 22.9699362,31.6918711 23.58,32.66 C23.7970078,33.3936736 23.8347313,34.1687196 23.69,34.92 C23.69,35.33 23.62,35.74 23.61,36.14 C23.6860606,38.9778932 24.9927459,41.6423633 27.19,43.44 C29.261793,45.1164143 31.6799956,46.3118534 34.27,46.94 L35.07,47.14 C35.6139747,47.2066887 36.1292884,47.4211145 36.56,47.76 C37.05,48.19 37.4,49 37.13,49.32 Z"/>
        <path id="Path" fill="#3D454C" d="M22 38.35C21.4753618 38.1792085 20.9115258 38.4656015 20.74 38.99 20.2969759 40.0757846 19.4864045 40.9713068 18.45 41.52 17.87 41.88 17.26 42.18 16.61 42.52 15.96 42.86 15.39 43.13 14.78 43.52 13.1112587 44.5247629 11.6705515 45.8666983 10.55 47.46 10.3950095 47.6770921 10.3331749 47.9471088 10.3782446 48.2100152 10.4233143 48.4729216 10.5715524 48.7069259 10.79 48.86 10.9599997 48.9786733 11.1626819 49.0415747 11.37 49.0400289 11.6972236 49.0394615 12.0034827 48.8788622 12.19 48.61 13.1471104 47.2453442 14.3804556 46.0971747 15.81 45.24 16.34 44.92 16.91 44.64 17.5 44.34 18.09 44.04 18.85 43.67 19.5 43.27 20.937605 42.4796069 22.0470994 41.2035111 22.63 39.67 22.7315601 39.4119511 22.7214031 39.1233158 22.6019552 38.8730441 22.4825074 38.6227724 22.2644959 38.4333404 22 38.35zM13.55 43.25C13.7978358 43.249353 14.0366017 43.1566976 14.22 42.99 15.8460722 41.5133136 17.0592668 39.6383764 17.74 37.55 17.8875676 37.0329195 17.5998069 36.4917166 17.08861 36.324905 16.577413 36.1580933 16.0258221 36.4254025 15.84 36.93 15.2557953 38.6918145 14.2216867 40.2705536 12.84 41.51 12.4322528 41.8804771 12.4009523 42.5109586 12.77 42.92 12.9682836 43.1401067 13.2539543 43.2609674 13.55 43.25zM23 42.38C22.4615224 42.255736 21.9242641 42.5915224 21.8000001 43.13 21.675736 43.6684776 22.0115224 44.2057359 22.55 44.33 24.8968571 44.90723 26.7437019 46.7157585 27.37 49.05 27.486766 49.5031999 27.9022336 49.8148006 28.37 49.8 28.4530471 49.8097686 28.5369529 49.8097686 28.62 49.8 29.1513968 49.6626083 29.4727367 49.1225786 29.34 48.59 28.5245989 45.5144368 26.0917942 43.1315162 23 42.38zM7.08 33.05C7.13001718 32.6927344 6.98563604 32.3359235 6.70124356 32.1139746 6.41685107 31.8920257 6.03565322 31.838658 5.70124356 31.9739746 5.36683389 32.1092912 5.13001718 32.4127344 5.08 32.77 4.70177572 35.4419158 5.01863491 38.166216 6 40.68 6.1516273 41.060721 6.52019615 41.3103967 6.93 41.3100005 7.05245839 41.3096389 7.17404386 41.2893746 7.29 41.25 7.53862078 41.1540105 7.73864007 40.9627498 7.84565826 40.7186732 7.95267645 40.4745967 7.95783902 40.1978988 7.86 39.95 7.01395071 37.7546126 6.74538666 35.3788536 7.08 33.05L7.08 33.05z"/>
      </g>
    </g>
  </g>
</svg>
