<svg xmlns="http://www.w3.org/2000/svg" width="64" height="64" viewBox="0 0 64 64" style="background:#fff">
  <g id="Lamm" fill="none" fill-rule="evenodd" stroke="none" stroke-width="1">
    <rect width="64" height="64" fill="#FFF"/>
    <g id="35-Lamm" fill-rule="nonzero" transform="translate(9 14)">
      <path id="Path" fill="#E0A075" d="M33.14,10.8 C29.14,7.74 21.14,6.59 16.41,8.8 C15.56,9.19 13.06,10.36 12,11.96 C8.31,17.51 9.48,23.7 12.27,29.14 C14.33,33.14 17.22,39.22 22.75,39.24 C28.65,39.24 34.03,32.33 36.17,27.69 C38.7,22.19 38.42,14.8 33.14,10.8 Z" opacity=".5"/>
      <path id="Shape" fill="#3D454C" d="M46.7302522,15.93 C46.7302522,13.4 43.5,11.49 37.73,10.38 C38.2331156,8.09299985 37.3871174,5.71940167 35.5509123,4.26618256 C33.7147072,2.81296344 31.210237,2.53491628 29.1,3.55 C28.0465537,1.56211701 25.9695696,0.330596649 23.72,0.36 L23.72,0.36 C21.463886,0.336413253 19.3852666,1.58049401 18.34,3.58 C16.2362191,2.57736549 13.7452941,2.85880262 11.9182577,4.30556044 C10.0912214,5.75231826 9.24629857,8.11240725 9.74,10.39 C3.96,11.49 0.739765707,13.39 0.739765707,15.93 C0.729538319,16.7233905 1.06988136,17.4809282 1.67,18 C2.17765616,18.4000439 2.77469253,18.6711121 3.41,18.79 C2.41648759,21.2238431 2.96695097,24.0154788 4.81,25.89 C3.10493897,27.6585331 2.51564625,30.2239567 3.2780285,32.5592759 C4.04041074,34.8945951 6.02987669,36.6181638 8.45,37.04 C8.05764027,39.4870554 9.06708104,41.9479906 11.0647993,43.4146699 C13.0625176,44.8813491 15.7128218,45.1073153 17.93,44 C19.0402132,46.1977831 21.3080218,47.5685647 23.77,47.53 L23.77,47.53 C26.2380305,47.5605136 28.5063888,46.1777472 29.61,43.97 C31.8276346,45.0601432 34.4678268,44.8244075 36.4572499,43.3586275 C38.446673,41.8928475 39.4541085,39.4410604 39.07,37 C41.4881755,36.5692039 43.4700265,34.8368017 44.2203043,32.4979471 C44.970582,30.1590924 44.3663247,27.5970963 42.65,25.84 C43.5764657,24.9202991 44.1948752,23.7358877 44.42,22.45 C44.6582492,21.1564592 44.5122333,19.8214568 44,18.61 C44.6862375,18.4791433 45.3330194,18.1916846 45.89,17.77 C46.431963,17.3138215 46.7403446,16.6383189 46.7302522,15.93 Z M13.29,5.78 C14.7498078,4.669673 16.7777035,4.69440343 18.21,5.84 C18.4714075,6.04203408 18.8157315,6.10191652 19.13,6 C19.4401706,5.89493365 19.6792426,5.64465508 19.77,5.33 C20.2320275,3.53950765 21.8611148,2.29908585 23.71,2.33 L23.71,2.33 C25.5751519,2.28936195 27.22677,3.52807548 27.71,5.33 C27.8027396,5.6469639 28.0459912,5.89770025 28.36,6 C28.6742685,6.10191652 29.0185925,6.04203408 29.28,5.84 C30.7034803,4.69062719 32.7253542,4.65356636 34.19,5.75 C35.5616565,6.72317707 36.1934683,8.4397978 35.78,10.07 C31.8029663,9.53453249 27.792757,9.28389441 23.78,9.32 C19.7672475,9.28406473 15.7570504,9.53470205 11.78,10.07 C11.362882,8.4659363 11.9601183,6.76915239 13.29,5.78 L13.29,5.78 Z M42.45,22.09 C42.2270124,23.2785831 41.5350141,24.3273931 40.53,25 C40.2573396,25.1842809 40.0928029,25.4909175 40.09,25.82 C40.0928029,26.1490825 40.2573396,26.4557191 40.53,26.64 C42.2137039,27.7939777 42.9405723,29.9161071 42.3179602,31.8600406 C41.695348,33.8039741 39.870835,35.1089351 37.83,35.07 C37.4962141,35.0510839 37.1750553,35.2002211 36.9741411,35.4674369 C36.7732269,35.7346528 36.7191383,36.0845947 36.83,36.4 C37.5524874,38.3288431 36.8827862,40.5022904 35.2,41.69 C33.5763424,42.9349427 31.3113279,42.9060101 29.72,41.62 C29.4568151,41.4213879 29.1126424,41.3652728 28.8,41.47 C28.4859912,41.5722997 28.2427396,41.8230361 28.15,42.14 C27.5998104,44.1122572 25.7975251,45.4721634 23.75,45.4602016 L23.75,45.4602016 C21.7044072,45.4791791 19.8986428,44.1279268 19.34,42.16 C19.2472604,41.8430361 19.0040088,41.5922997 18.69,41.49 C18.3757315,41.3880835 18.0314075,41.4479659 17.77,41.65 C16.1811448,42.9429657 13.9148882,42.9842454 12.28,41.75 C10.5974606,40.5669592 9.92046234,38.4005649 10.63,36.47 C10.740414,36.1605964 10.6918194,35.8166967 10.5,35.55 C10.3050321,35.2828299 9.99057346,35.1293442 9.66,35.14 C7.62170733,35.1884778 5.79262765,33.895088 5.1589517,31.9571918 C4.52527576,30.0192955 5.23684485,27.8951347 6.91,26.73 C7.18216386,26.5435652 7.34486727,26.2348956 7.34486727,25.905 C7.34486727,25.5751044 7.18216386,25.2664348 6.91,25.08 C4.93003444,23.7701757 4.28627375,21.160335 5.43,19.08 C5.43331276,19.0434082 5.43331276,19.0065918 5.43,18.97 C6.89476186,18.9334501 8.35508948,18.7930983 9.8,18.55 C10.16,30.16 15.8,38.18 23.68,38.18 C31.56,38.18 37.3,30 37.67,18.58 C39.0510524,18.7764838 40.4451412,18.8667486 41.84,18.85 C42.424482,19.822213 42.6409168,20.9718014 42.45,22.09 Z M44.57,16.25 C43.89,16.83 41.49,17.19 36.81,16.44 L36.7,16.44 L36.59,16.44 C36.2969095,16.4635153 36.0290211,16.6148281 35.8575721,16.8537009 C35.686123,17.0925737 35.6284904,17.3947959 35.7,17.68 C35.61,28.44 30.61,36.22 23.7,36.22 C16.79,36.22 11.79,28.32 11.79,17.42 C11.7946835,17.3901828 11.7946835,17.3598172 11.79,17.33 C11.7948892,17.3035574 11.7948892,17.2764426 11.79,17.25 C11.79,17.25 11.79,17.18 11.79,17.14 C11.7710919,17.075123 11.7477023,17.011637 11.72,16.95 L11.62,16.8 C11.5784479,16.7484846 11.5315154,16.7015521 11.48,16.66 L11.34,16.56 L11.15,16.48 L10.96,16.48 L10.85,16.48 L10.76,16.48 L10.68,16.48 C6.41,17.23 3.82,17.25 2.99,16.55 C2.82101911,16.407399 2.73467217,16.1896545 2.76,15.97 C2.76,14.18 8.46,11.34 23.76,11.34 C39.06,11.34 44.76,14.18 44.76,15.97 C44.7455549,16.0885229 44.6748018,16.1927906 44.57,16.25 Z"/>
      <polygon id="Path" fill="#3D454C" points="21.36 27.57 21.35 27.57 21.36 27.57"/>
      <path id="Path" fill="#3D454C" d="M26,27.47 L25.94,27.47 L26,27.47 Z"/>
      <path id="Shape" fill="#3D454C" d="M28.21,27.18 C28.0847645,27.2367731 27.9643657,27.3036613 27.85,27.38 L27.78,27.38 L27.58,27.44 C27.4290726,27.4860838 27.2754479,27.5228201 27.12,27.55 L27.12,27.55 L26.85,27.55 L26.42,27.55 L26.42,27.55 L26.23,27.55 L26,27.47 L26,27.47 L26,27.47 L26,27.47 L25.91,27.47 L25.91,27.47 L25.81,27.36 L25.81,27.36 L25.81,27.36 L25.6,27.03 L25.41,26.67 L25.3,26.44 L25.3,26.44 C25.19,26.15 25.1,25.86 25.01,25.57 C25.7815962,25.3675929 26.4769325,24.9434377 27.01,24.35 C27.2618722,24.0963414 27.3592866,23.727579 27.2655479,23.382622 C27.1718093,23.0376649 26.9011588,22.7689204 26.5555479,22.677622 C26.209937,22.5863235 25.8418722,22.6863414 25.59,22.94 L25.41,23.13 C25.3687332,23.157893 25.3316881,23.1915704 25.3,23.23 C25.1437629,23.3381837 24.9800148,23.4350958 24.81,23.52 L24.74,23.52 C24.74,23.52 24.81,23.52 24.74,23.52 L24.74,23.52 C24.6486916,23.5559687 24.5551654,23.5860307 24.46,23.61 L24.19,23.68 L23.68,23.68 L23.41,23.62 L23.25,23.56 L23.18,23.56 L23,23.41 L22.85,23.33 L22.56,23.16 C22.34,23.03 22.13,22.88 21.92,22.74 C21.6906913,22.6056261 21.4173232,22.5680647 21.1602702,22.6356114 C20.9032172,22.7031582 20.683628,22.8702558 20.55,23.1 C20.4156261,23.3293087 20.3780647,23.6026768 20.4456114,23.8597298 C20.5131582,24.1167828 20.6802558,24.336372 20.91,24.47 C21.4973386,24.9017951 22.1485212,25.2391954 22.84,25.47 C22.76,25.75 22.66,26.03 22.56,26.31 L22.56,26.31 L22.46,26.51 C22.4,26.63 22.34,26.76 22.27,26.88 L22.05,27.23 L21.93,27.36 L21.87,27.36 L21.82,27.36 L21.82,27.36 L21.66,27.36 L21.45,27.41 L21.45,27.41 C21.32,27.41 21.39,27.41 21.45,27.41 L21.01,27.41 L20.74,27.41 L20.74,27.41 C20.5810311,27.3839789 20.4240056,27.3472283 20.27,27.3 L20,27.4 L19.92,27.4 C19.92,27.4 19.6,27.23 19.56,27.2 C19.3306913,27.0656261 19.0573232,27.0280647 18.8002702,27.0956114 C18.5432172,27.1631582 18.323628,27.3302558 18.19,27.56 C18.0556261,27.7893087 18.0180647,28.0626768 18.0856114,28.3197298 C18.1531582,28.5767828 18.3202558,28.796372 18.55,28.93 C19.2535645,29.355878 20.0576809,29.5871046 20.88,29.6 C21.7283054,29.6718055 22.5721276,29.4179437 23.24,28.89 C23.4998465,28.6550729 23.7223981,28.3819413 23.9,28.08 C24.0806882,28.3797825 24.3028912,28.6524862 24.56,28.89 C25.2309419,29.4194888 26.0784507,29.6733838 26.93,29.6 C27.7489845,29.5858176 28.5495473,29.3546206 29.25,28.93 C29.4797442,28.796372 29.6468418,28.5767828 29.7143886,28.3197298 C29.7819353,28.0626768 29.7443739,27.7893087 29.61,27.56 C29.4798925,27.3185466 29.2563221,27.1411314 28.9916228,27.0692845 C28.7269235,26.9974375 28.4443326,27.037466 28.21,27.18 Z"/>
      <path id="Path" fill="#3D454C" d="M18.66 17.51C18.1077153 17.51 17.66 17.9577153 17.66 18.51 17.66 19.0622847 18.1077153 19.51 18.66 19.51 19.2122847 19.51 19.66 19.0622847 19.66 18.51 19.66 17.9577153 19.2122847 17.51 18.66 17.51zM28.8 17.51C28.2477153 17.51 27.8 17.9577153 27.8 18.51 27.8 19.0622847 28.2477153 19.51 28.8 19.51 29.3522847 19.51 29.8 19.0622847 29.8 18.51 29.8 17.9577153 29.3522847 17.51 28.8 17.51z"/>
    </g>
  </g>
</svg>
