<svg xmlns="http://www.w3.org/2000/svg" width="64" height="64" viewBox="0 0 64 64" style="background:#fff">
  <g id="Lamm-(Hals-und-Brust-mit-Bein)" fill="none" fill-rule="evenodd" stroke="none" stroke-width="1">
    <rect width="64" height="64" fill="#FFF"/>
    <g transform="translate(2 4)">
      <g id="Layer_2">
        <rect id="Rectangle" width="60" height="60" x="0" y="0"/>
        <rect id="Rectangle" width="60" height="60" x="0" y="0"/>
      </g>
      <g id="Layer_1" fill-rule="nonzero" transform="translate(3 2)">
        <path id="Path" fill="#E05362" d="M29.11,47.35 C26.74,45.95 23.76,45.35 21.16,44.52 C18.8451287,43.6023046 16.4474482,42.9091204 14,42.45 C12.93,42.31 13,44.45 13.62,44.93 C15.9245931,46.4581505 18.419059,47.6784889 21.04,48.56 C23.51,49.56 26.17,50.79 28.84,50.89 C30.58,50.94 30.09,47.92 29.11,47.35 Z" opacity=".5"/>
        <path id="Path" fill="#E05362" d="M45.58,38.62 C38.26,40.06 31.88,35 24.9,33.78 C24.02,32.78 23.04,33.31 22.39,34.28 C20.34,31.72 17.48,31.2 14.31,31.7 C10.92,32.23 6.31,32.63 3.77,35.12 C2.63,36.25 2.77,38.76 4.26,39.53 C9.05,42.04 14.79,37.15 19.55,40.29 C19.9470218,40.6563248 20.4875777,40.82497 21.0224678,40.7493877 C21.557358,40.6738054 22.0300224,40.3619877 22.31,39.9 C22.4088526,40.0994445 22.5295958,40.2872673 22.67,40.46 C26.45,49.2 39.05,51.74 47,45.24 C48.58,44 48.72,38 45.58,38.62 Z" opacity=".5"/>
        <path id="Path" fill="#E0A075" d="M44.58,9 C42.18,7.18 37.48,6.5 34.64,7.81 C33.6310316,8.20422458 32.7273235,8.82723546 32,9.63 C29.81,12.92 30.5,16.63 32.16,19.81 C33.38,22.19 35.1,25.81 38.39,25.81 C41.9,25.81 45.09,21.71 46.39,18.97 C47.88,15.69 47.72,11.31 44.58,9 Z" opacity=".5"/>
        <path id="Shape" fill="#3D454C" d="M54.37,11.3 C54.37,9.2 51.73,8.03 48.49,7.38 C48.6900361,5.84362032 48.0654028,4.31556662 46.8464109,3.35925308 C45.6274189,2.40293953 43.9946013,2.15999635 42.55,2.72 C41.7542258,1.45914154 40.3608697,0.701882804 38.87,0.72 L38.87,0.72 C37.3765513,0.702283049 35.9803843,1.45901314 35.18,2.72 C33.7409654,2.15905987 32.1127105,2.39939484 30.8971042,3.35216739 C29.6814978,4.30493993 29.0591098,5.82862236 29.26,7.36 C26,8 23.37,9.2 23.37,11.3 C23.3537696,11.9308893 23.6262301,12.5347206 24.11,12.94 C24.3836383,13.1623352 24.7002535,13.3257495 25.04,13.42 C24.5435671,14.9572286 24.8805124,16.6419555 25.93,17.87 C24.8841553,19.1152494 24.5563193,20.8126473 25.0632256,22.3577955 C25.570132,23.9029438 26.839749,25.0762761 28.42,25.46 C28.30598,27.0836641 29.0383547,28.6511265 30.3569006,29.6054444 C31.6754464,30.5597623 33.3932689,30.7656679 34.9,30.15 C35.747241,31.5437142 37.2691558,32.3845721 38.9,32.36 L38.9,32.36 C40.5364579,32.3865639 42.0621815,31.5359731 42.9,30.13 C44.4097673,30.7395075 46.1272565,30.5260496 47.4418909,29.5655117 C48.7565253,28.6049739 49.481847,27.0335917 49.36,25.41 C50.9372621,25.0142632 52.198822,23.832908 52.697163,22.2849999 C53.195504,20.7370918 52.8601265,19.0416109 51.81,17.8 C52.3254792,17.1792003 52.6701535,16.4347037 52.81,15.64 C52.9394073,14.8588359 52.8706389,14.0576838 52.61,13.31 C52.977987,13.203272 53.3189283,13.0191637 53.61,12.77 C54.0734718,12.4208805 54.3531084,11.8800045 54.37,11.3 L54.37,11.3 Z M32.18,4.91 C33.0136256,4.25574568 34.1863744,4.25574568 35.02,4.91 C35.2814075,5.11203408 35.6257315,5.17191652 35.94,5.07 C36.2540088,4.96770025 36.4972604,4.7169639 36.59,4.4 C36.8618623,3.37477329 37.7995603,2.66840173 38.86,2.69 L38.86,2.69 C39.916407,2.67083864 40.8511633,3.37087637 41.13,4.39 C41.2255623,4.70313924 41.4683561,4.94966836 41.78,5.05 C42.0942685,5.15191652 42.4385925,5.09203408 42.7,4.89 C43.455228,4.31427602 44.4804282,4.24261503 45.3084064,4.70767366 C46.1363846,5.17273229 46.6086553,6.08549241 46.51,7.03 C43.9724686,6.71314602 41.4172156,6.55949682 38.86,6.57 C36.3027921,6.55977134 33.7475566,6.71341949 31.21,7.03 C31.1268626,6.20003288 31.4976241,5.38970867 32.18,4.91 L32.18,4.91 Z M38.87,8.6 C49.17,8.6 52.37,10.6 52.4,11.24 C52.23,11.42 50.99,11.84 47.55,11.24 L47.55,11.24 L47.47,11.24 L47.36,11.24 C47.2704731,11.2445103 47.18245,11.2648233 47.1,11.3 L47.1,11.3 C46.7813032,11.428577 46.5509545,11.7117926 46.49,12.05 C46.4694246,12.1657595 46.4694246,12.2842405 46.49,12.4 C46.43,19.26 43.28,24.22 38.94,24.22 C34.6,24.22 31.43,19.17 31.43,12.22 C31.43,12.22 31.43,12.16 31.43,12.14 C31.4249648,12.1102113 31.4249648,12.0797887 31.43,12.05 C31.4316677,12.0166875 31.4316677,11.9833125 31.43,11.95 C31.413776,11.8827597 31.3867589,11.8185941 31.35,11.76 C31.3226358,11.7031604 31.2891007,11.6495043 31.25,11.6 L31,11.52 L30.84,11.42 L30.67,11.34 L30.47,11.34 L30.36,11.34 L30.28,11.34 L30.19,11.34 C26.5,11.98 25.61,11.64 25.3997914,11.46 C25.3997914,11.46 25.3997914,11.46 25.3997914,11.35 C25.37,10.58 28.57,8.6 38.87,8.6 Z M50.87,15.28 C50.7450301,15.9813615 50.3408794,16.6020215 49.75,17 C49.4778361,17.1864348 49.3151327,17.4951044 49.3151327,17.825 C49.3151327,18.1548956 49.4778361,18.4635652 49.75,18.65 C50.7332763,19.3221631 51.1574668,20.5609142 50.7926163,21.6947217 C50.4277658,22.8285293 49.3607491,23.5874215 48.17,23.56 C47.8362141,23.5410839 47.5150553,23.6902211 47.3141411,23.9574369 C47.1132269,24.2246528 47.0591383,24.5745947 47.17,24.89 C47.5479811,26.0090758 47.1546679,27.243939 46.1991029,27.9382704 C45.243538,28.6326018 43.9475721,28.6252004 43,27.92 C42.7385925,27.7179659 42.3942685,27.6580835 42.08,27.76 C41.7659912,27.8622997 41.5227396,28.1130361 41.43,28.43 C41.1211613,29.5891864 40.0593278,30.3865944 38.86,30.36 L38.86,30.36 C37.6598553,30.3924347 36.5935604,29.5989129 36.28,28.44 C36.1869159,28.1232619 35.943505,27.8728751 35.6295228,27.7708809 C35.3155406,27.6688867 34.9714518,27.7284296 34.71,27.93 C33.7723371,28.6640297 32.4627938,28.6913206 31.4953639,27.9969929 C30.5279341,27.3026653 30.1346747,26.0532672 30.53,24.93 C30.6439629,24.6176646 30.5952407,24.2691134 30.4,24 C30.2050321,23.7328299 29.8905735,23.5793442 29.56,23.59 C28.3730122,23.6082496 27.3143999,22.8462542 26.9549339,21.7148581 C26.595468,20.5834619 27.0201481,19.3501964 28,18.68 C28.2726604,18.4957191 28.4371971,18.1890825 28.44,17.86 C28.4507057,17.5168046 28.2845859,17.192116 28,17 C26.8842346,16.2613769 26.4975306,14.8047916 27.1,13.61 C27.8736755,13.5890798 28.6452352,13.518938 29.41,13.4 C29.76,21.02 33.55,26.25 38.88,26.25 C44.21,26.25 48,20.94 48.39,13.43 C49.1297916,13.5209423 49.8746524,13.5643647 50.62,13.56 C50.8837958,14.0922279 50.974698,14.6935811 50.88,15.28 L50.87,15.28 Z"/>
        <path id="Path" fill="#3D454C" d="M36.82 17.2C37.1505284 17.4242906 37.5063097 17.6088941 37.88 17.75 37.8749343 17.7864917 37.8749343 17.8235083 37.88 17.86 37.8288864 18.2789967 37.6588499 18.6745918 37.39 19 37.11 19.24 36.5 19.08 36.18 18.89 35.7051496 18.6415983 35.1188937 18.8116763 34.8507068 19.2756398 34.5825198 19.7396032 34.7277474 20.332504 35.18 20.62 36.1761902 21.242335 37.4311819 21.2767708 38.46 20.71 38.6138399 20.6033269 38.7547824 20.4791633 38.88 20.34 39.0052176 20.4791633 39.1461601 20.6033269 39.3 20.71 40.3288181 21.2767708 41.5838098 21.242335 42.58 20.62 43.0322526 20.332504 43.1774802 19.7396032 42.9092932 19.2756398 42.6411063 18.8116763 42.0548504 18.6415983 41.58 18.89 41.26 19.08 40.65 19.25 40.38 19 40.1055767 18.676985 39.9317568 18.2806757 39.88 17.86L39.88 17.86C40.3651259 17.7122402 40.8030231 17.4398475 41.15 17.07 42.03 16.14 40.62 14.72 39.73 15.66 39.11 16.31 38.48 15.92 37.85 15.49 36.76 14.75 35.76 16.48 36.82 17.2zM35.53 14C36.0822847 14 36.53 13.5522847 36.53 13 36.53 12.4477153 36.0822847 12 35.53 12 34.9777153 12 34.53 12.4477153 34.53 13 34.53 13.5522847 34.9777153 14 35.53 14zM42.21 14C42.7622847 14 43.21 13.5522847 43.21 13 43.21 12.4477153 42.7622847 12 42.21 12 41.6577153 12 41.21 12.4477153 41.21 13 41.21 13.5522847 41.6577153 14 42.21 14z"/>
        <path id="Shape" fill="#3D454C" d="M51.83,48.29 L51.83,48.29 C51.6636999,47.4437076 51.2813145,46.6548225 50.72,46 C50.63,45.88 50.54,45.76 50.46,45.63 C49.3301705,43.9864301 48.908556,41.9576356 49.29,40 C49.3751097,39.5748213 49.176507,39.1432378 48.7982155,38.9313034 C48.4199241,38.7193691 47.9481507,38.7753805 47.63,39.07 C46.5039357,39.964945 45.0276903,40.289719 43.63,39.95 C42.2104233,39.630005 40.8387922,39.1257289 39.55,38.45 L39.09,38.23 C32.6410913,35.2321245 25.8103731,33.1358007 18.79,32 C18.0488155,31.8586283 17.2940117,31.8015987 16.54,31.83 C15.7837766,31.9139965 15.0392159,32.0816903 14.32,32.33 L13.67,32.52 C12.1281805,32.9027223 10.5552697,33.1470255 8.97,33.25 C6.4,33.49 3.74,33.74 1.39,35.09 C1.15391067,35.2270463 0.984109882,35.4546516 0.92,35.72 C0.854328212,35.9868182 0.901342402,36.2689034 1.05,36.5 C1.63,37.41 6.57,44.14 9.99,45.5 L27.34,52.19 C29.3150828,53.0210312 31.364161,53.6638792 33.46,54.11 C34.6153496,54.314451 35.78671,54.4148533 36.96,54.4101679 C40.3383968,54.2870336 43.6925047,53.7872715 46.96,52.92 C50.29,52.15 52.11,50.42 51.83,48.29 Z M46.51,51 C42.51,51.9 38.02,52.93 33.81,52.17 C31.837044,51.7457975 29.9085017,51.1364317 28.05,50.35 L10.71,43.62 C8.49,42.77 4.93,38.44 3.38,36.37 C5.24190157,35.7203885 7.18963998,35.3497117 9.16,35.27 C10.8636869,35.1592634 12.5538882,34.8948556 14.21,34.48 C14.45,34.42 14.68,34.34 14.91,34.27 C15.4863511,34.0679473 16.0833337,33.93044 16.69,33.86 C17.2866853,33.8406831 17.8836716,33.8876371 18.47,34 C21.03,34.42 23.56,34.9633333 26.06,35.63 L24.43,37.92 C24.2750095,38.1370921 24.2131749,38.4071088 24.2582446,38.6700152 C24.3033143,38.9329216 24.4515524,39.1669259 24.67,39.32 C24.8399997,39.4386733 25.0426819,39.5015747 25.25,39.5 C25.5718574,39.4985117 25.8733242,39.3421956 26.06,39.08 L28.06,36.22 C28.87,36.46 29.67,36.71 30.47,36.98 L28.04,40.42 C27.8850095,40.6370921 27.8231749,40.9071088 27.8682446,41.1700152 C27.9133143,41.4329216 28.0615524,41.6669259 28.28,41.82 C28.4499997,41.9386733 28.6526819,42.0015747 28.86,42 C29.1853865,42.0017484 29.4912778,41.8450724 29.68,41.58 L32.43,37.67 L34.18,38.34 C33.6269408,40.0677003 32.91733,41.7413105 32.06,43.34 C31.8617849,43.6567507 31.8566987,44.0575853 32.0468127,44.3792636 C32.2369267,44.7009419 32.5905214,44.8897936 32.9635952,44.8689088 C33.3366691,44.848024 33.6669766,44.6208872 33.82,44.28 C34.7118305,42.6029113 35.4514596,40.8492205 36.03,39.04 C36.6966667,39.3333333 37.3633333,39.6333333 38.03,39.94 C37.3539249,41.7254814 37.0148579,43.6208662 37.03,45.53 C37.03,46.0822847 37.4777153,46.53 38.03,46.53 L38.03,46.53 C38.5822847,46.53 39.03,46.0822847 39.03,45.53 C39.0202397,43.9162719 39.3014004,42.3139948 39.86,40.8 C40.4340598,41.0609434 41.021551,41.2912667 41.62,41.49 C41.6757192,42.6072615 41.8432222,43.7161311 42.12,44.8 C42.236766,45.2531999 42.6522336,45.5648006 43.12,45.55 C43.206388,45.5598286 43.293612,45.5598286 43.38,45.55 C43.9122768,45.4082783 44.2297247,44.8628045 44.09,44.33 C43.9075925,43.5634569 43.7805977,42.7847782 43.71,42 C44.8650122,42.1713814 46.044236,42.0651142 47.15,41.69 C47.1905057,43.525413 47.7675835,45.308792 48.81,46.82 L49.11,47.23 C49.4578294,47.6112651 49.7082831,48.071002 49.84,48.57 C50,49.73 48.15,50.58 46.51,51 Z"/>
        <path id="Path" fill="#3D454C" d="M43.44 46.74C40.9437875 47.621976 38.3337718 48.1406114 35.69 48.28 34.5057199 48.3933456 33.3106922 48.2779168 32.17 47.94 31.3364248 47.6155096 30.5548131 47.1707995 29.85 46.62 26.1492762 43.8763787 23.2940675 40.1479752 21.61 35.86 21.5158755 35.6120013 21.3270744 35.4115603 21.0851432 35.302785 20.843212 35.1940098 20.5679752 35.1858135 20.32 35.28 20.0713792 35.3759895 19.8713599 35.5672502 19.7643417 35.8113268 19.6573235 36.0554033 19.652161 36.3321012 19.75 36.58 21.567199 41.2229109 24.6550304 45.260311 28.66 48.23 29.5250232 48.9022809 30.4856243 49.4415658 31.51 49.83 32.5592107 50.1691572 33.6575419 50.3313722 34.76 50.31 35.13 50.31 35.47 50.31 35.76 50.31 38.5989698 50.1615528 41.4014356 49.602407 44.08 48.65 44.438433 48.5478267 44.7103011 48.2547964 44.7853706 47.8897236 44.8604401 47.5246508 44.7262523 47.1481237 44.437216 46.912812 44.1481796 46.6775003 43.752264 46.6224569 43.41 46.77L43.44 46.74zM12.18 36.17C11.7424078 35.9326437 11.1968656 36.053305 10.9001887 36.4530646 10.6035117 36.8528241 10.6460581 37.4099285 11 37.76 13.48 39.67 15.91 41.7 18.23 43.81 18.4133983 43.9766976 18.6521642 44.069353 18.9 44.07 19.3126786 44.0689257 19.6823124 43.8144578 19.8306042 43.4293418 19.978896 43.0442258 19.8753846 42.6075699 19.57 42.33 17.19 40.19 14.71 38.12 12.18 36.17zM22.24 44.81C21.7483464 44.5630757 21.1495756 44.759687 20.9 45.25L20.8 45.45C20.5545164 45.9443143 20.7559191 46.5440469 21.25 46.79 21.3871327 46.8564197 21.5376302 46.8906236 21.69 46.89 22.0701569 46.8926457 22.4189345 46.6795038 22.59 46.34L22.68 46.16C22.8017785 45.9228256 22.8238052 45.6468414 22.741187 45.3933539 22.6585688 45.1398663 22.478147 44.9298653 22.24 44.81z"/>
      </g>
    </g>
  </g>
</svg>
