<svg xmlns="http://www.w3.org/2000/svg" width="64" height="64" viewBox="0 0 64 64" style="background:#fff">
  <g id="Lamm-(Fleisch-ohne-Knochen)" fill="none" fill-rule="evenodd" stroke="none" stroke-width="1">
    <rect width="64" height="64" fill="#FFF"/>
    <g transform="translate(2 4)">
      <g id="Layer_2">
        <rect id="Rectangle" width="60" height="60" x="0" y="0"/>
        <rect id="Rectangle" width="60" height="60" x="0" y="0"/>
      </g>
      <g id="Layer_1" fill-rule="nonzero" transform="translate(4 1)">
        <path id="Path" fill="#E05362" d="M29.59,38.71 C29.1891859,38.4455122 28.7202044,38.3030808 28.24,38.3 C27.8988233,37.9690536 27.4674021,37.7463846 27,37.66 C22.5222315,36.6114096 17.8132618,37.7756335 14.34,40.79 C10.68,43.96 7.34,51.79 12.16,55.5 C14.58,57.38 17.41,55.5 19.74,54.5 C22.4860673,53.3317589 25.1577668,51.9959092 27.74,50.5 C29.8057134,49.4445568 31.264842,47.4904326 31.69,45.21 C32.06,43 31.63,40 29.59,38.71 Z" opacity=".5"/>
        <path id="Path" fill="#E05362" d="M22.47,31 C18.67,25.61 10.41,26.53 6.08,30.43 C1,35 -0.56,43.27 2,49.45 C2.74,51.22 4.55,52.64 6.43,51.45 C8.31,50.26 8.78,47.23 8.3,45.26 C7.53,42.16 8.1,39.76 11.18,38 C12.6561822,37.1896535 14.3161102,36.7729495 16,36.79 C17.75,36.79 19.57,37.53 21.27,37.21 C24.27,36.64 23.92,33 22.47,31 Z" opacity=".5"/>
        <path id="Path" fill="#E0A075" d="M43.58,9.15 C41.18,7.33 36.48,6.65 33.64,7.96 C32.6260532,8.3686368 31.7219079,9.00907308 31,9.83 C28.81,13.12 29.5,16.83 31.16,20.01 C32.38,22.39 34.1,26.01 37.39,26.01 C40.9,26.01 44.09,21.92 45.39,19.17 C46.88,15.89 46.72,11.51 43.58,9.15 Z" opacity=".5"/>
        <path id="Shape" fill="#3D454C" d="M33,41.47 C32.963421,41.3255293 32.8988701,41.1896325 32.81,41.07 C32.274564,39.768095 31.4585049,38.6003452 30.42,37.65 C30.3937206,37.5978597 30.3636393,37.5477243 30.33,37.5 C24.58,31.2 18.5,24.43 9.33,27.5 C5.5209501,28.7823387 2.500584,31.7254482 1.12,35.5 C0.516673149,37.100479 0.563330761,38.8734683 1.25,40.44 C0.63,43.15 0.12,46.77 1.77,49.15 C3.82,52.09 7.77,54.04 10.92,55.57 C10.9564375,55.5757979 10.9935625,55.5757979 11.03,55.57 C13.83,58.77 21.59,54.33 24.59,53.05 C30,50.78 34.31,48.54 33.1,41.9 C33.099117,41.7510067 33.0649512,41.6040937 33,41.47 L33,41.47 Z M2.8,43.05 C3.3,43.7 3.8,44.34 4.43,44.97 C5.3,45.97 6.71,44.51 5.84,43.56 C2.09,39.45 2.25,34.99 6.33,31.41 C8.86977828,29.3729511 12.0814655,28.3630539 15.33,28.58 C19.64,29.1 23.15,32.44 26.14,35.73 C18.3,34.8 8,43.86 9.89,52.82 C7.8730816,51.8234795 6.01327764,50.5364412 4.37,49 C2.73,47.43 2.53,45.23 2.8,43.05 Z M25.47,50.55 C22.47,51.88 18.47,54.34 15.09,54.44 C8.22,54.65 13.37,43.78 15.93,41.54 C20.16,37.82 28.47,35.37 31.1,42.01 C32.12,46.82 29.29,48.88 25.47,50.55 L25.47,50.55 Z"/>
        <path id="Path" fill="#3D454C" d="M6.8,46.11 L6.8,46.32 C6.8,46.8722847 7.24771525,47.32 7.8,47.32 C8.35228475,47.32 8.8,46.8722847 8.8,46.32 L8.8,46.11 C8.8,45.5577153 8.35228475,45.11 7.8,45.11 C7.24771525,45.11 6.8,45.5577153 6.8,46.11 Z"/>
        <path id="Shape" fill="#3D454C" d="M53.37,11.5 C53.37,9.4 50.73,8.23 47.49,7.58 C47.6900361,6.04362032 47.0654028,4.51556662 45.8464109,3.55925308 C44.6274189,2.60293953 42.9946013,2.35999635 41.55,2.92 C40.7542258,1.65914154 39.3608697,0.901882804 37.87,0.92 L37.87,0.92 C36.3765513,0.902283049 34.9803843,1.65901314 34.18,2.92 C32.7411268,2.36548751 31.1166688,2.60845459 29.9030092,3.55970135 C28.6893495,4.51094812 28.0653128,6.03031471 28.26,7.56 C25.03,8.21 22.38,9.38 22.38,11.48 C22.3637696,12.1108893 22.6362301,12.7147206 23.12,13.12 C23.3936383,13.3423352 23.7102535,13.5057495 24.05,13.6 C23.5535671,15.1372286 23.8905124,16.8219555 24.94,18.05 C23.8949473,19.2971336 23.5675973,20.9953335 24.0741923,22.5415673 C24.5807873,24.087801 25.8495722,25.2630568 27.43,25.65 C27.31967,27.2719433 28.0535659,28.8361236 29.3714802,29.7879506 C30.6893945,30.7397775 32.4049933,30.9446768 33.91,30.33 C34.757241,31.7237142 36.2791558,32.5645721 37.91,32.54 L37.91,32.54 C39.5464579,32.5665639 41.0721815,31.7159731 41.91,30.31 C43.4197673,30.9195075 45.1372565,30.7060496 46.4518909,29.7455117 C47.7665253,28.7849739 48.491847,27.2135917 48.37,25.59 C49.938154,25.1884615 51.1902359,24.0097731 51.6856529,22.4687013 C52.1810699,20.9276296 51.8503992,19.2401248 50.81,18 C51.3254792,17.3792003 51.6701535,16.6347037 51.81,15.84 C51.9343804,15.0586463 51.8657178,14.2587273 51.61,13.51 C51.977987,13.403272 52.3189283,13.2191637 52.61,12.97 C53.0734718,12.6208805 53.3531084,12.0800045 53.37,11.5 L53.37,11.5 Z M31.18,5.11 C32.0160803,4.46288824 33.1839197,4.46288824 34.02,5.11 C34.2814075,5.31203408 34.6257315,5.37191652 34.94,5.27 C35.2540088,5.16770025 35.4972604,4.9169639 35.59,4.6 C35.8618623,3.57477329 36.7995603,2.86840173 37.86,2.89 L37.86,2.89 C38.916407,2.87083864 39.8511633,3.57087637 40.13,4.59 C40.2227396,4.9069639 40.4659912,5.15770025 40.78,5.26 C41.0958998,5.35912775 41.4403851,5.29547287 41.7,5.09 C42.455228,4.51427602 43.4804282,4.44261503 44.3084064,4.90767366 C45.1363846,5.37273229 45.6086553,6.28549241 45.51,7.23 C42.9724686,6.91314602 40.4172156,6.75949682 37.86,6.77 C35.3027921,6.75977134 32.7475566,6.91341949 30.21,7.23 C30.1311282,6.40074707 30.5009533,5.59246948 31.18,5.11 L31.18,5.11 Z M37.87,8.8 C48.17,8.8 51.37,10.8 51.4,11.44 C51.23,11.62 49.98,12.04 46.55,11.49 L46.42,11.49 L46.32,11.49 C46.2240168,11.4945784 46.1294315,11.5148467 46.04,11.55 L46.04,11.55 C45.7174311,11.6758092 45.4828927,11.9595251 45.42,12.3 C45.3994246,12.4157595 45.3994246,12.5342405 45.42,12.65 C45.36,19.51 42.21,24.47 37.87,24.47 C33.53,24.47 30.36,19.47 30.36,12.47 C30.36,12.47 30.36,12.42 30.36,12.39 C30.3549648,12.3602113 30.3549648,12.3297887 30.36,12.3 C30.36,12.3 30.36,12.23 30.36,12.19 C30.3410265,12.1283944 30.3176324,12.0682382 30.29,12.01 L30.18,11.85 C30.1418064,11.8018149 30.0981851,11.7581936 30.05,11.72 C30.0007422,11.6777322 29.9471037,11.6408556 29.89,11.61 L29.72,11.53 L29.53,11.53 L29.41,11.53 L29.33,11.53 L29.24,11.53 C25.55,12.16 24.66,11.82 24.45,11.65 C24.45,11.65 24.45,11.65 24.45,11.53 C24.37,10.78 27.57,8.8 37.87,8.8 Z M49.87,15.48 C49.7375767,16.1756935 49.3301851,16.7885835 48.74,17.18 C48.4678361,17.3664348 48.3051327,17.6751044 48.3051327,18.005 C48.3051327,18.3348956 48.4678361,18.6435652 48.74,18.83 C49.7104688,19.4940137 50.1371725,20.7114172 49.793613,21.8360019 C49.4500535,22.9605867 48.4158634,23.7316886 47.24,23.74 L47.14,23.74 C46.8199461,23.7391697 46.5188314,23.8915858 46.33,24.15 C46.1347593,24.4191134 46.0860371,24.7676646 46.2,25.08 C46.5726623,26.1972371 46.1752108,27.4269869 45.2191651,28.1147895 C44.2631194,28.8025922 42.970814,28.7884948 42.03,28.08 C41.7685482,27.8784296 41.4244594,27.8188867 41.1104772,27.9208809 C40.796495,28.0228751 40.5530841,28.2732619 40.46,28.59 C40.1511613,29.7491864 39.0893278,30.5465944 37.89,30.52 L37.89,30.52 C36.6935434,30.54776 35.6326816,29.7552096 35.32,28.6 C35.2272604,28.2830361 34.9840088,28.0322997 34.67,27.93 C34.3541002,27.8308723 34.0096149,27.8945271 33.75,28.1 C32.8095907,28.8174554 31.5108616,28.8364238 30.5499004,28.1467388 C29.5889392,27.4570537 29.1912562,26.2205646 29.57,25.1 C29.6839629,24.7876646 29.6352407,24.4391134 29.44,24.17 C29.2314756,23.9195489 28.9257326,23.7703172 28.6,23.76 L28.5,23.76 C27.347289,23.7280436 26.3431729,22.9649283 26.0037287,21.8628659 C25.6642844,20.7608035 26.0650309,19.5649791 27,18.89 C27.2721639,18.7035652 27.4348673,18.3948956 27.4348673,18.065 C27.4348673,17.7351044 27.2721639,17.4264348 27,17.24 C25.8842346,16.5013769 25.4975306,15.0447916 26.1,13.85 C26.8731904,13.8275508 27.6444568,13.7607745 28.41,13.65 C28.76,21.26 32.55,26.49 37.88,26.49 C43.21,26.49 47,21.14 47.39,13.63 C48.1301017,13.7186472 48.8746226,13.7653884 49.62,13.77 C49.8843019,14.2984859 49.9752798,14.8968409 49.88,15.48 L49.87,15.48 Z"/>
        <path id="Path" fill="#3D454C" d="M35.82 17.4C36.1482254 17.6281307 36.504496 17.8129881 36.88 17.95 36.8749343 17.9864917 36.8749343 18.0235083 36.88 18.06 36.8269921 18.4814968 36.6572796 18.8798016 36.39 19.21 36.11 19.44 35.5 19.28 35.18 19.09 34.7051496 18.8415983 34.1188937 19.0116763 33.8507068 19.4756398 33.5825198 19.9396032 33.7277474 20.532504 34.18 20.82 35.1756324 21.4412932 36.4283682 21.4794863 37.46 20.92 37.6116706 20.8068622 37.7522972 20.6796286 37.88 20.54 38.0077028 20.6796286 38.1483294 20.8068622 38.3 20.92 39.3316318 21.4794863 40.5843676 21.4412932 41.58 20.82 42.0322526 20.532504 42.1774802 19.9396032 41.9092932 19.4756398 41.6411063 19.0116763 41.0548504 18.8415983 40.58 19.09 40.26 19.28 39.65 19.45 39.38 19.21 39.1072455 18.8820875 38.9337808 18.4831185 38.88 18.06L38.88 18.06C39.3651259 17.9122402 39.8030231 17.6398475 40.15 17.27 41.03 16.34 39.62 14.92 38.73 15.86 38.11 16.51 37.48 16.12 36.85 15.69 35.76 15 34.76 16.68 35.82 17.4zM34.53 14.19C35.0822847 14.19 35.53 13.7422847 35.53 13.19 35.53 12.6377153 35.0822847 12.19 34.53 12.19 33.9777153 12.19 33.53 12.6377153 33.53 13.19 33.53 13.7422847 33.9777153 14.19 34.53 14.19zM41.21 14.19C41.7622847 14.19 42.21 13.7422847 42.21 13.19 42.21 12.6377153 41.7622847 12.19 41.21 12.19 40.6577153 12.19 40.21 12.6377153 40.21 13.19 40.21 13.7422847 40.6577153 14.19 41.21 14.19z"/>
      </g>
    </g>
  </g>
</svg>
