<svg xmlns="http://www.w3.org/2000/svg" width="64" height="64" viewBox="0 0 64 64" style="background:#fff">
  <g id="Lamm-(Kotelett,-geschnitten)" fill="none" fill-rule="evenodd" stroke="none" stroke-width="1">
    <rect width="64" height="64" fill="#FFF"/>
    <g transform="translate(2 4)">
      <g id="Layer_2">
        <rect id="Rectangle" width="60" height="60" x="0" y="0"/>
        <rect id="Rectangle" width="60" height="60" x="0" y="0"/>
      </g>
      <g id="Layer_1" fill-rule="nonzero" transform="translate(3 3)">
        <path id="Path" fill="#E05362" d="M5,36.07 C3.45,33.92 1.22,36.21 1.21,38.63 C1.21,45.06 7.72,46.63 13.06,47.23 C18.06,47.76 27.6,47.77 30,42.13 C35.43,29.3 9.73,26.25 5,36.07 Z" opacity=".5"/>
        <path id="Path" fill="#E05362" d="M28.91,46.21 C24.91,47.09 21.34,48.78 17.19,49.09 C12.7,49.42 8.44,48.51 4.13,47.36 C2.4,46.89 2.43,50.02 3.61,50.66 C10.97,54.71 22.74,55.36 29.72,50.17 C30.69,49.45 30.59,45.83 28.91,46.21 Z" opacity=".5"/>
        <path id="Path" fill="#E0A075" d="M44.58,8.15 C42.18,6.33 37.48,5.65 34.64,6.96 C33.6260532,7.3686368 32.7219079,8.00907308 32,8.83 C29.81,12.12 30.5,15.83 32.16,19.01 C33.38,21.39 35.1,25.01 38.39,25.01 C41.9,25.01 45.09,20.92 46.39,18.17 C47.88,14.89 47.72,10.51 44.58,8.15 Z" opacity=".5"/>
        <path id="Shape" fill="#3D454C" d="M33.6,35.69 C33.14,33.23 30.79,31.88 28.92,31.47 C27.05,31.06 17.46,30.17 13.73,30.77 C10.61,31.26 3.98,33.71 1.91,35.68 L1.82,35.68 L1.82,35.68 L1.69,35.82 L1.69,35.82 C1.66300429,35.8577482 1.63957045,35.8979204 1.62,35.94 C0.832611144,36.9671061 0.454843938,38.250089 0.56,39.54 C0.554342663,39.5831487 0.554342663,39.6268513 0.56,39.67 C0.2,43.11 0.02,47 2.48,49.67 C3.82265271,50.9573754 5.47664683,51.8739638 7.28,52.33 C10.9595556,53.5286135 14.8003568,54.1591928 18.67,54.2 C19.46,54.2 20.25,54.2 21.04,54.13 C22.0799671,54.0770247 23.1136225,53.9365279 24.13,53.71 C27.2648586,52.976457 29.9776611,51.0228455 31.6671068,48.2821891 C33.3565525,45.5415328 33.8830862,42.2402213 33.13,39.11 C33.13,39.11 33.13,39.11 33.13,39.11 C33.6462425,38.0489486 33.810876,36.850977 33.6,35.69 Z M29.93,47.22 C28.5244695,49.5023517 26.2747347,51.1375423 23.67,51.77 C22.7648379,51.9656793 21.8450302,52.0860905 20.92,52.13 C16.481506,52.4073355 12.0299935,51.8614912 7.79,50.52 C6.31647368,50.1500867 4.95870186,49.4179211 3.84,48.39 C2.84115172,47.1870967 2.29301877,45.6735425 2.29,44.11 C3.14575041,45.1764035 4.27639759,45.9889481 5.56,46.46 C7.48060615,47.0455389 9.42979978,47.5328373 11.4,47.92 C12.29,48.06 13.23,48.16 14.19,48.22 L14.26,48.22 C14.7896773,48.2209542 15.2282202,47.8087239 15.26,47.28 C15.2942777,46.7310285 14.8787653,46.2574337 14.33,46.22 C13.42,46.16 12.53,46.06 11.69,45.93 C10.55,45.76 6.91,44.81 6.23,44.57 C4.64091656,43.9509917 3.39741099,42.6746663 2.82,41.07 C2.25486807,39.8033275 2.39928469,38.3325583 3.2,37.2 C4.49,35.82 10.67,33.27 14.04,32.74 C17.41,32.21 26.67,33.03 28.49,33.43 C29.87,33.73 31.37,34.66 31.63,36.05 C31.86,37.26 31.12,38.61 30.4,39.77 C29.6738285,41.0568313 28.7829878,42.2434983 27.75,43.3 C26.5088559,44.4276142 25.0127694,45.2374225 23.39,45.66 C22.8570452,45.8118783 22.5481217,46.3670452 22.7,46.9 C22.8518783,47.4329548 23.4070452,47.7418783 23.94,47.59 C25.8685571,47.0755368 27.6451515,46.1049263 29.12,44.76 C29.990167,43.9046912 30.7585957,42.9517054 31.41,41.92 C31.4156698,43.7894548 30.903397,45.623945 29.93,47.22 Z"/>
        <path id="Path" fill="#3D454C" d="M20 42.11C15.89 40.5 11.65 39.11 7.41 37.87 6.88000146 37.7225095 6.33040327 38.0308207 6.18 38.56 6.03250949 39.0899985 6.34082067 39.6395967 6.87 39.79 11 41 15.21 42.38 19.26 44 19.3777876 44.0465537 19.5033466 44.0703081 19.63 44.07 20.1504882 44.129172 20.6284304 43.7766488 20.7256024 43.2618994 20.8227745 42.7471501 20.50624 42.2446491 20 42.11zM23.9 41C24.0634633 40.475525 23.7732343 39.9173923 23.25 39.75 22.74 39.58 20.99 38.87 19.13 38.12 16.71 37.12 13.97 36.02 12.47 35.5 11.9480909 35.3177461 11.377254 35.5930909 11.195 36.115 11.0127461 36.6369091 11.2880909 37.207746 11.81 37.39 13.26 37.91 16 39 18.38 40 20.43 40.84 22.05 41.49 22.64 41.68 22.7394311 41.6950853 22.8405689 41.6950853 22.94 41.68 23.3735861 41.6854445 23.7612757 41.410831 23.9 41L23.9 41zM16.42 35.85L24.73 38.85C24.8389975 38.8895611 24.9540452 38.9098636 25.07 38.91 25.4272656 38.9707352 25.7897944 38.8362578 26.0210254 38.5572243 26.2522564 38.2781908 26.31706 37.896993 26.1910254 37.5572243 26.0649908 37.2174557 25.7672656 36.9707352 25.41 36.91L17.1 34C16.5859992 33.8303649 16.030327 34.1004873 15.8462216 34.6094844 15.6621163 35.1184815 15.9164138 35.6815717 16.42 35.88L16.42 35.85zM19 46.28C18.4477153 46.28 18 46.7277153 18 47.28 18 47.8322847 18.4477153 48.28 19 48.28 19.5522847 48.28 20 47.8322847 20 47.28 20 46.7277153 19.5522847 46.28 19 46.28z"/>
        <path id="Shape" fill="#3D454C" d="M54.37,10.57 C54.37,8.47 51.73,7.3 48.49,6.65 C48.6922742,5.11357787 48.0676221,3.58463669 46.8473715,2.62938999 C45.6271209,1.6741433 43.992934,1.43480144 42.55,2 C41.7542258,0.739141541 40.3608697,-0.0181171957 38.87,1.6844165e-15 L38.87,1.6844165e-15 C37.37559,-0.0216155978 35.9776425,0.736079505 35.18,2 C33.7409654,1.43905987 32.1127105,1.67939484 30.8971042,2.63216739 C29.6814978,3.58493993 29.0591098,5.10862236 29.26,6.64 C26.03,7.29 23.38,8.46 23.38,10.56 C23.3681303,11.1900017 23.639781,11.7920383 24.12,12.2 C24.3960057,12.4186926 24.7118512,12.5817096 25.05,12.68 C24.5533044,14.2140067 24.8904485,15.8959392 25.94,17.12 C24.8949473,18.3671336 24.5675973,20.0653335 25.0741923,21.6115673 C25.5807873,23.157801 26.8495722,24.3330568 28.43,24.72 C28.31598,26.3436641 29.0483547,27.9111265 30.3669006,28.8654444 C31.6854464,29.8197623 33.4032689,30.0256679 34.91,29.41 C35.757241,30.8037142 37.2791558,31.6445721 38.91,31.62 L38.91,31.62 C40.5454147,31.6424233 42.0692079,30.7929086 42.91,29.39 C44.4197413,29.9935363 46.1338272,29.7775422 47.4466449,28.8183318 C48.7594626,27.8591213 49.4861661,26.2917523 49.37,24.67 C50.9472621,24.2742632 52.208822,23.092908 52.707163,21.5449999 C53.205504,19.9970918 52.8701265,18.3016109 51.82,17.06 C52.3378461,16.4368667 52.6827127,15.688506 52.82,14.89 C52.9439465,14.1119434 52.8752759,13.315365 52.62,12.57 C52.9908728,12.4652234 53.3329075,12.2771043 53.62,12.02 C54.0766115,11.6751233 54.3523921,11.1419475 54.37,10.57 Z M32.18,4.18 C33.0123647,3.52210678 34.1876353,3.52210678 35.02,4.18 C35.2814518,4.38157037 35.6255406,4.44111333 35.9395228,4.33911912 C36.253505,4.2371249 36.4969159,3.98673806 36.59,3.67 C36.8771037,2.66067484 37.8109665,1.97364805 38.86,2 L38.86,2 C39.9147083,1.97605506 40.8504727,2.67272544 41.13,3.69 C41.2227396,4.0069639 41.4659912,4.25770025 41.78,4.36 C42.0942685,4.46191652 42.4385925,4.40203408 42.7,4.2 C43.4516494,3.61596076 44.4797888,3.53829388 45.3106457,4.0027887 C46.1415026,4.46728352 46.6138392,5.38379911 46.51,6.33 C43.9723112,6.01585615 41.4170182,5.8655448 38.86,5.88 C36.3029892,5.86582142 33.7477139,6.01613173 31.21,6.33 C31.1155133,5.48982327 31.4875746,4.66515125 32.18,4.18 L32.18,4.18 Z M38.87,7.87 C49.17,7.87 52.37,9.87 52.4,10.5 C52.23,10.69 50.98,11.1 47.55,10.56 L47.42,10.56 L47.31,10.56 C47.2236437,10.5496266 47.1363563,10.5496266 47.05,10.56 L47.05,10.56 C46.7313032,10.688577 46.5009545,10.9717926 46.44,11.31 C46.4205921,11.4225024 46.4205921,11.5374976 46.44,11.65 C46.38,18.51 43.23,23.48 38.89,23.48 C34.55,23.48 31.38,18.48 31.38,11.48 C31.38,11.48 31.38,11.42 31.38,11.39 C31.3751108,11.3635574 31.3751108,11.3364426 31.38,11.31 C31.38,11.31 31.38,11.24 31.38,11.2 C31.3619705,11.1333671 31.3350627,11.0694611 31.3,11.01 C31.2701779,10.9577462 31.2367642,10.9076257 31.2,10.86 L31,10.79 C30.9575594,10.7511149 30.9105477,10.7175351 30.86,10.69 L30.67,10.61 L30.49,10.61 L30.37,10.61 L30.2,10.61 C26.51,11.25 25.62,10.91 25.41,10.73 C25.41,10.73 25.41,10.73 25.41,10.62 C25.37,9.84 28.57,7.87 38.87,7.87 Z M50.87,14.55 C50.7375767,15.2456935 50.3301851,15.8585835 49.74,16.25 C49.4682194,16.4385255 49.3072443,16.7492449 49.31,17.08 C49.3105385,17.4072236 49.4711378,17.7134827 49.74,17.9 C50.7287638,18.5675178 51.1572491,19.8082452 50.7911321,20.9436712 C50.4250152,22.0790972 49.3524559,22.8358143 48.16,22.8 C47.8310943,22.7949671 47.5207491,22.9520093 47.33,23.22 C47.1381806,23.4866967 47.089586,23.8305964 47.2,24.14 C47.5726623,25.2572371 47.1752108,26.4869869 46.2191651,27.1747895 C45.2631194,27.8625922 43.970814,27.8484948 43.03,27.14 C42.7668151,26.9413879 42.4226424,26.8852728 42.11,26.99 C41.7959912,27.0922997 41.5527396,27.3430361 41.46,27.66 C41.1511613,28.8191864 40.0893278,29.6165944 38.89,29.59 L38.89,29.59 C37.6910113,29.6187899 36.6267198,28.8267589 36.31,27.67 C36.2172604,27.3530361 35.9740088,27.1022997 35.66,27 C35.3457315,26.8980835 35.0014075,26.9579659 34.74,27.16 C33.7995907,27.8774554 32.5008616,27.8964238 31.5399004,27.2067388 C30.5789392,26.5170537 30.1812562,25.2805646 30.56,24.16 C30.670414,23.8505964 30.6218194,23.5066967 30.43,23.24 C30.2350321,22.9728299 29.9205735,22.8193442 29.59,22.83 C28.4430999,22.8131586 27.4330401,22.0709227 27.0743821,20.9814146 C26.7157242,19.8919065 27.0873742,18.694822 28,18 C28.2755788,17.8137296 28.4405011,17.5026261 28.44,17.17 C28.4542061,16.823303 28.2876734,16.4940223 28,16.3 C26.8817542,15.5678434 26.4939166,14.1112975 27.1,12.92 C27.8736755,12.8990798 28.6452352,12.828938 29.41,12.71 C29.76,20.33 33.55,25.56 38.88,25.56 C44.21,25.56 48,20.21 48.39,12.69 C49.1291626,12.7885761 49.8743124,12.8353568 50.62,12.83 C50.8837958,13.3622279 50.974698,13.9635811 50.88,14.55 L50.87,14.55 Z"/>
        <path id="Path" fill="#3D454C" d="M36.82 16.47C37.1485282 16.6950252 37.5048274 16.8765361 37.88 17.01 37.8749803 17.0498425 37.8749803 17.0901575 37.88 17.13 37.8267493 17.5484167 37.6569585 17.9434401 37.39 18.27 37.11 18.51 36.5 18.35 36.18 18.16 35.7127084 17.9488104 35.1613987 18.1253188 34.9036556 18.568637 34.6459125 19.0119551 34.7652779 19.5783909 35.18 19.88 36.1730576 20.5097364 37.4304239 20.5480707 38.46 19.98 38.6138399 19.8733269 38.7547824 19.7491633 38.88 19.61 39.0052176 19.7491633 39.1461601 19.8733269 39.3 19.98 40.3295761 20.5480707 41.5869424 20.5097364 42.58 19.88 42.9947221 19.5783909 43.1140875 19.0119551 42.8563444 18.568637 42.5986013 18.1253188 42.0472916 17.9488104 41.58 18.16 41.26 18.35 40.65 18.51 40.38 18.27 40.1055767 17.946985 39.9317568 17.5506757 39.88 17.13L39.88 17.13C40.3651259 16.9822402 40.8030231 16.7098475 41.15 16.34 42.03 15.41 40.62 13.99 39.73 14.93 39.11 15.58 38.48 15.19 37.85 14.76 36.76 14 35.76 15.75 36.82 16.47zM35.53 13.26C36.0822847 13.26 36.53 12.8122847 36.53 12.26 36.53 11.7077153 36.0822847 11.26 35.53 11.26 34.9777153 11.26 34.53 11.7077153 34.53 12.26 34.53 12.8122847 34.9777153 13.26 35.53 13.26zM42.21 13.26C42.7622847 13.26 43.21 12.8122847 43.21 12.26 43.21 11.7077153 42.7622847 11.26 42.21 11.26 41.6577153 11.26 41.21 11.7077153 41.21 12.26 41.21 12.8122847 41.6577153 13.26 42.21 13.26z"/>
      </g>
    </g>
  </g>
</svg>
