<svg xmlns="http://www.w3.org/2000/svg" width="64" height="64" viewBox="0 0 64 64" style="background:#fff">
  <g id="Lamm-(Schulter-ohne-Bein)" fill="none" fill-rule="evenodd" stroke="none" stroke-width="1">
    <rect width="64" height="64" fill="#FFF"/>
    <g transform="translate(2 4)">
      <g id="Layer_2">
        <rect id="Rectangle" width="60" height="60" x="0" y="0"/>
        <rect id="Rectangle" width="60" height="60" x="0" y="0"/>
      </g>
      <g id="Layer_1" fill-rule="nonzero" transform="translate(3 1)">
        <g id="Group" fill="#E05362" opacity=".5" transform="translate(2 34)">
          <path id="Path" d="M44.11 7.41C33 3.65 14.92 5.55 9.5 17.76 8.98 18.94 9.58 21.69 11.31 21.13 13.5 20.42 15.14 18.78 17.09 17.57 19.2329213 16.250222 21.5215064 15.1831105 23.91 14.39 23.7338104 15.3707193 24.0560543 16.3749212 24.77 17.07 26.1933172 17.9032901 27.6736601 18.6351075 29.2 19.26 29.85 19.61 30.5 19.95 31.12 20.34 31.79584 20.9340395 32.7363336 21.1244228 33.59 20.84 35.22 20.37 35.06 17.56 34.65 16.44 33.9143402 14.8985763 32.6040336 13.7067357 31 13.12 35.0473459 13.0051756 39.0794342 13.6636143 42.88 15.06 46.5 16.33 47.28 8.48 44.11 7.41zM13.7 6.12C15.16 5.25 15.64 2 14 1 9.44-1.85 1 3.36.46 8.43.36 9.28.61 11.15 1.88 11.1 3.8 11 5.46 8.85 7.13 8 8.08275671 7.52263951 9.09020133 7.1633176 10.13 6.93 11.34 6.66 12.58 6.78 13.7 6.12z"/>
        </g>
        <path id="Path" fill="#E0A075" d="M44.58,9 C42.18,7.18 37.48,6.5 34.64,7.81 C33.6310316,8.20422458 32.7273235,8.82723546 32,9.63 C29.81,12.92 30.5,16.63 32.16,19.81 C33.38,22.19 35.1,25.81 38.39,25.81 C41.9,25.81 45.09,21.71 46.39,18.97 C47.88,15.69 47.72,11.31 44.58,9 Z" opacity=".5"/>
        <path id="Shape" fill="#3D454C" d="M54.37,11.5 C54.37,9.4 51.73,8.23 48.49,7.58 C48.6900361,6.04362032 48.0654028,4.51556662 46.8464109,3.55925308 C45.6274189,2.60293953 43.9946013,2.35999635 42.55,2.92 C41.7542258,1.65914154 40.3608697,0.901882804 38.87,0.92 L38.87,0.92 C37.3765513,0.902283049 35.9803843,1.65901314 35.18,2.92 C33.7820659,2.36113365 32.192959,2.58163173 31,3.5 C29.6962606,4.42304541 29.0202166,5.99919359 29.25,7.58 C26.02,8.23 23.37,9.4 23.37,11.5 C23.3537696,12.1308893 23.6262301,12.7347206 24.11,13.14 C24.3836383,13.3623352 24.7002535,13.5257495 25.04,13.62 C24.5455653,15.157343 24.882313,16.8410813 25.93,18.07 C24.8841553,19.3152494 24.5563193,21.0126473 25.0632256,22.5577955 C25.570132,24.1029438 26.839749,25.2762761 28.42,25.66 C28.30598,27.2836641 29.0383547,28.8511265 30.3569006,29.8054444 C31.6754464,30.7597623 33.3932689,30.9656679 34.9,30.35 C35.747241,31.7437142 37.2691558,32.5845721 38.9,32.56 L38.9,32.56 C40.5364579,32.5865639 42.0621815,31.7359731 42.9,30.33 C44.4097673,30.9395075 46.1272565,30.7260496 47.4418909,29.7655117 C48.7565253,28.8049739 49.481847,27.2335917 49.36,25.61 C50.9372621,25.2142632 52.198822,24.032908 52.697163,22.4849999 C53.195504,20.9370918 52.8601265,19.2416109 51.81,18 C52.3278461,17.3768667 52.6727127,16.628506 52.81,15.83 C52.9339465,15.0519434 52.8652759,14.255365 52.61,13.51 C52.9808728,13.4052234 53.3229075,13.2171043 53.61,12.96 C54.074234,12.6159827 54.3544886,12.0775989 54.37,11.5 Z M32.18,5.11 C33.0136256,4.45574568 34.1863744,4.45574568 35.02,5.11 C35.2814075,5.31203408 35.6257315,5.37191652 35.94,5.27 C36.2540088,5.16770025 36.4972604,4.9169639 36.59,4.6 C36.8618623,3.57477329 37.7995603,2.86840173 38.86,2.89 L38.86,2.89 C39.916407,2.87083864 40.8511633,3.57087637 41.13,4.59 C41.2255623,4.90313924 41.4683561,5.14966836 41.78,5.25 C42.0942685,5.35191652 42.4385925,5.29203408 42.7,5.09 C43.455228,4.51427602 44.4804282,4.44261503 45.3084064,4.90767366 C46.1363846,5.37273229 46.6086553,6.28549241 46.51,7.23 C43.9724686,6.91314602 41.4172156,6.75949682 38.86,6.77 C36.3027921,6.75977134 33.7475566,6.91341949 31.21,7.23 C31.1290074,6.40039062 31.4992971,5.59109777 32.18,5.11 L32.18,5.11 Z M38.87,8.8 C49.17,8.8 52.37,10.8 52.4,11.44 C52.23,11.62 50.98,12.04 47.55,11.49 L47.42,11.49 L47.31,11.49 C47.2216236,11.4960399 47.134313,11.5128304 47.05,11.54 L47.05,11.54 C46.7313032,11.668577 46.5009545,11.9517926 46.44,12.29 C46.4194246,12.4057595 46.4194246,12.5242405 46.44,12.64 C46.38,19.5 43.23,24.46 38.89,24.46 C34.55,24.46 31.38,19.46 31.38,12.46 C31.38,12.46 31.38,12.4 31.38,12.37 C31.38,12.34 31.38,12.32 31.38,12.29 C31.38,12.26 31.38,12.22 31.38,12.18 C31.3610265,12.1183944 31.3376324,12.0582382 31.31,12 L31.2,11.84 L31,11.72 L30.85,11.62 L30.66,11.54 L30.48,11.54 L30.36,11.54 L30.28,11.54 L30.19,11.54 C26.5,12.18 25.61,11.84 25.3997914,11.66 C25.3997914,11.66 25.3997914,11.66 25.3997914,11.55 C25.37,10.78 28.57,8.8 38.87,8.8 Z M50.87,15.48 C50.7375767,16.1756935 50.3301851,16.7885835 49.74,17.18 C49.4678361,17.3664348 49.3051327,17.6751044 49.3051327,18.005 C49.3051327,18.3348956 49.4678361,18.6435652 49.74,18.83 C50.7104688,19.4940137 51.1371725,20.7114172 50.793613,21.8360019 C50.4500535,22.9605867 49.4158634,23.7316886 48.24,23.74 L48.14,23.74 C47.8199461,23.7391697 47.5188314,23.8915858 47.33,24.15 C47.1347593,24.4191134 47.0860371,24.7676646 47.2,25.08 C47.5726623,26.1972371 47.1752108,27.4269869 46.2191651,28.1147895 C45.2631194,28.8025922 43.970814,28.7884948 43.03,28.08 C42.7671709,27.8786157 42.4216991,27.8203863 42.1073796,27.9244921 C41.7930601,28.0285979 41.5506511,28.2815394 41.46,28.6 C41.1511613,29.7591864 40.0893278,30.5565944 38.89,30.53 L38.89,30.53 C37.6935434,30.55776 36.6326816,29.7652096 36.32,28.61 C36.2269159,28.2932619 35.983505,28.0428751 35.6695228,27.9408809 C35.3555406,27.8388867 35.0114518,27.8984296 34.75,28.1 C33.8123371,28.8340297 32.5027938,28.8613206 31.5353639,28.1669929 C30.5679341,27.4726653 30.1746747,26.2232672 30.57,25.1 C30.6839629,24.7876646 30.6352407,24.4391134 30.44,24.17 C30.2376542,23.9117932 29.9280459,23.7606749 29.6,23.76 L29.5,23.76 C28.3416167,23.7336918 27.330237,22.9685859 26.9898039,21.8610439 C26.6493709,20.7535018 27.0563877,19.5524134 28,18.88 C28.2726604,18.6957191 28.4371971,18.3890825 28.44,18.06 C28.4371971,17.7309175 28.2726604,17.4242809 28,17.24 C26.8842346,16.5013769 26.4975306,15.0447916 27.1,13.85 C27.8736502,13.8286515 28.6451828,13.7585122 29.41,13.64 C29.76,21.26 33.55,26.49 38.88,26.49 C44.21,26.49 48,21.14 48.39,13.62 C49.1291626,13.7185761 49.8743124,13.7653568 50.62,13.76 C50.8837958,14.2922279 50.974698,14.8935811 50.88,15.48 L50.87,15.48 Z"/>
        <path id="Path" fill="#3D454C" d="M36.82 17.4C37.1505284 17.6242906 37.5063097 17.8088941 37.88 17.95 37.8749343 17.9864917 37.8749343 18.0235083 37.88 18.06 37.8288864 18.4789967 37.6588499 18.8745918 37.39 19.2 37.11 19.44 36.5 19.28 36.18 19.09 35.7051496 18.8415983 35.1188937 19.0116763 34.8507068 19.4756398 34.5825198 19.9396032 34.7277474 20.532504 35.18 20.82 36.1761902 21.442335 37.4311819 21.4767708 38.46 20.91 38.6138399 20.8033269 38.7547824 20.6791633 38.88 20.54 39.0052176 20.6791633 39.1461601 20.8033269 39.3 20.91 40.3288181 21.4767708 41.5838098 21.442335 42.58 20.82 43.0322526 20.532504 43.1774802 19.9396032 42.9092932 19.4756398 42.6411063 19.0116763 42.0548504 18.8415983 41.58 19.09 41.26 19.28 40.65 19.44 40.38 19.2 40.1055767 18.876985 39.9317568 18.4806757 39.88 18.06L39.88 18.06C40.3651259 17.9122402 40.8030231 17.6398475 41.15 17.27 42.03 16.34 40.62 14.92 39.73 15.86 39.11 16.51 38.48 16.12 37.85 15.69 36.76 15 35.76 16.68 36.82 17.4zM35.53 14.19C36.0822847 14.19 36.53 13.7422847 36.53 13.19 36.53 12.6377153 36.0822847 12.19 35.53 12.19 34.9777153 12.19 34.53 12.6377153 34.53 13.19 34.53 13.7422847 34.9777153 14.19 35.53 14.19zM42.21 14.19C42.7622847 14.19 43.21 13.7422847 43.21 13.19 43.21 12.6377153 42.7622847 12.19 42.21 12.19 41.6577153 12.19 41.21 12.6377153 41.21 13.19 41.21 13.7422847 41.6577153 14.19 42.21 14.19z"/>
        <path id="Shape" fill="#3D454C" d="M27.77,33.32 C26.82,33.32 25.87,33.25 24.92,33.21 C20.92,33.02 16.84,32.83 12.87,33.88 C9.22432421,34.8307086 5.81797236,36.5338845 2.87,38.88 C2.16105459,39.3925871 1.59900847,40.0822143 1.24,40.88 L1.24,40.88 C1.03318626,41.4907825 0.951561932,42.1369751 1,42.78 C1.30704522,49.6986143 6.33456747,55.4964159 13.14,56.7800705 L13.29,56.7800705 C13.5270817,56.7828146 13.7574509,56.7012993 13.94,56.55 C16.6344858,54.0733786 19.6156838,51.9281246 22.82,50.16 C23.16,49.99 23.5,49.84 23.82,49.69 L23.82,49.69 C27.01,53.54 32.09,55.07 36.17,56.29 C36.2261956,56.3003334 36.2838044,56.3003334 36.34,56.29 C36.5547899,56.4326584 36.8191667,56.4797392 37.07,56.42 C42.8,55.22 48.82,50.13 48.9701486,43.7 C48.9743895,43.445278 48.8813948,43.1984845 48.71,43.01 C48.35,42.67 40.11,33.68 27.77,33.32 Z M3,42.74 C2.97468089,42.3684427 3.01876549,41.9954191 3.13,41.64 C3.37230973,41.1861359 3.71417971,40.7929854 4.13,40.49 C6.85542746,38.2996061 10.0100206,36.7052761 13.39,35.81 C17.06,34.81 20.84,35.02 24.83,35.21 L27.72,35.32 C32.1680381,35.518217 36.49739,36.8170226 40.32,39.1 C34.53,38.64 28.43,39.44 24.15,41.33 C18.4218482,43.880192 13.8929478,48.534398 11.5,54.33 C6.5792493,52.5468425 3.22202097,47.9691629 3,42.74 Z M25.87,48.94 C28.1675574,48.1929001 30.6246182,48.0823151 32.98,48.62 C34.2376751,48.8559418 35.3535531,49.5735483 36.09,50.62 C36.537942,51.7585979 36.5733199,53.0180521 36.19,54.18 C32.63,53.17 28.52,51.8 25.82,48.94 L25.87,48.94 Z M38.26,54.08 C38.6307546,52.6313514 38.4930854,51.0993404 37.87,49.74 C36.897908,48.151975 35.3062911,47.0425563 33.48,46.68 C29.5528292,45.8452487 25.4566337,46.441059 21.93,48.36 C19.0093618,49.916574 16.280822,51.8094356 13.8,54 C16.1578766,49.1932346 20.1187926,45.3596338 25,43.16 C30,40.96 37.63,40.35 44.12,41.62 C45.1232523,42.3908597 46.0783721,43.2224151 46.98,44.11 C46.61,48.79 42.53,52.59 38.21,54.08 L38.26,54.08 Z"/>
        <path id="Path" fill="#3D454C" d="M35.93,43.39 C35.6012403,43.5824156 35.410353,43.9449007 35.4377031,44.3248463 C35.4650532,44.7047919 35.7058899,45.0361997 36.0588191,45.1795444 C36.4117483,45.3228891 36.8154644,45.253271 37.1,45 C38.9460395,43.7562559 41.3919681,43.8826289 43.1,45.31 C43.2837501,45.4671606 43.5182198,45.5524223 43.76,45.55 C44.1756318,45.5494029 44.5475631,45.2917756 44.6942317,44.9028817 C44.8409003,44.5139877 44.7317246,44.0749144 44.42,43.8 C42.006381,41.7641262 38.5285633,41.5961751 35.93,43.39 L35.93,43.39 Z"/>
      </g>
    </g>
  </g>
</svg>
