<svg xmlns="http://www.w3.org/2000/svg" width="64" height="64" viewBox="0 0 64 64" style="background:#fff">
  <g id="Languste" fill="none" fill-rule="evenodd" stroke="none" stroke-width="1">
    <rect width="64" height="64" fill="#FFF"/>
    <g transform="translate(2 4)">
      <rect id="Rectangle" width="60" height="60" x="0" y="0"/>
      <rect id="Rectangle" width="60" height="60" x="0" y="0"/>
      <g id="Group" fill="#E05362" fill-rule="nonzero" opacity=".5" transform="translate(4 4)">
        <path id="Path" d="M48.31,10.87 C47.47,8.42 45.58,10.56 45.5,12.11 C45,21 34.81,25.06 27.93,20 C27.6252041,19.7689855 27.2883194,19.5836989 26.93,19.45 C27.02,19.11 27.11,18.79 27.21,18.5 C28.1131931,15.4404097 29.8723222,12.7028302 32.28,10.61 C33.5044011,9.63271048 34.8743416,8.85326161 36.34,8.3 C37.56,7.83 39.19,7.76 40.34,7.09 C41.5527861,6.4214712 42.1291836,4.99300783 41.72,3.67 C39.34,-2.84 30.3,1.28 27.1,4.77 C23.44,8.77 18.56,17.55 20.63,23.18 C18.427731,25.3608557 16.4201058,27.7298535 14.63,30.26 C14.01,31.12 12.99,33.26 11.8,35.08 C11.3119366,34.8349566 10.7608487,34.7442713 10.22,34.82 C7.92553521,35.2136248 5.67952979,35.8505517 3.52,36.72 C-1.31,38.49 -0.35,47 2.68,49.85 C7.22,54.06 12.91,50.8 15.91,46.47 C19.53,41.23 22.45,36.17 26.78,31.57 C32.51,34.13 38.98,33.76 43.93,29.22 C48.9613583,24.5488991 50.6892378,17.3099517 48.31,10.87 Z"/>
      </g>
      <path id="Path" fill="#3D454C" fill-rule="nonzero" d="M32.11,9.13 L32.11,9.13 C32.11,8.57771525 31.6622847,8.13 31.11,8.13 C30.5577153,8.13 30.11,8.57771525 30.11,9.13 L30.11,9.13 C30.11,9.68228475 30.5577153,10.13 31.11,10.13 C31.6622847,10.13 32.11,9.68228475 32.11,9.13 Z"/>
      <path id="Shape" fill="#3D454C" fill-rule="nonzero" d="M50.53,11.12 C50.2791188,10.9542385 49.9669647,10.9101697 49.68,11 C49.3953631,11.0938228 49.1678131,11.3103624 49.06,11.59 C47.94,14.41 45.87,19.24 45.06,20.18 C44.3139775,21.1176526 43.8772356,22.2636633 43.81,23.46 C42.1546631,24.1337077 40.8712949,25.4899946 40.29,27.18 C39.9751379,27.1137704 39.6476415,27.2030876 39.41,27.42 C38.4247252,28.264608 37.2577541,28.8703379 36,29.19 C36.1954079,28.6129099 36.3262075,28.0159272 36.39,27.41 L36.66,27.41 C37.2087653,27.3725663 37.6242777,26.8989715 37.59,26.35 C37.5720712,26.0845392 37.449092,25.8371676 37.248277,25.6626275 C37.0474621,25.4880874 36.7853698,25.4007707 36.52,25.42 L36.2,25.42 C35.9182042,24.6162279 35.3016801,23.9741673 34.51,23.66 L34.51,23.4 C34.5350086,23.0427344 34.3675186,22.6992654 34.0706218,22.4989745 C33.773725,22.2986837 33.3925271,22.2719998 33.0706218,22.4289745 C32.7487164,22.5859493 32.5350086,22.9027344 32.51,23.26 L32.51,23.42 C31.8272958,23.4745626 31.1548021,23.6191488 30.51,23.85 C30.8392392,22.6169086 31.4444895,21.4747979 32.28,20.51 C32.4969124,20.2723585 32.5862296,19.9448621 32.52,19.63 C34.2066074,19.0486483 35.5617338,17.770021 36.24,16.12 C37.4405016,16.0581157 38.5912788,15.6208903 39.53,14.87 C40.47,14.08 45.3,12.01 48.12,10.87 C48.3990978,10.7613234 48.614789,10.5332692 48.7077574,10.2485534 C48.8007259,9.96383768 48.7611818,9.65244134 48.6,9.4 C48.6,9.34 44.37,3.04 34.97,6.11 L34.26,6.36 C33.9205977,6.49218826 33.6774986,6.79540424 33.6222758,7.1554294 C33.5670531,7.51545456 33.7080963,7.87759252 33.9922759,8.10542941 C34.2764554,8.3332663 34.6605977,8.39218828 35,8.26 C35.2,8.18 35.42,8.11 35.64,8.04 C41.38,6.16 44.7,8.23 46.12,9.57 C43.85,10.5 39.44,12.36 38.28,13.34 C37.5482481,13.8853845 36.6519976,14.1641396 35.74,14.13 C35.64,14.13 35.5,14.05 35.48,14.07 C35.46,14.09 35.48,13.88 35.88,13.47 C37.1346136,12.2551404 38.6809311,11.3838301 40.37,10.94 C40.9057162,10.7908831 41.2191169,10.2357162 41.07,9.7 C40.9208831,9.16428379 40.3657162,8.85088312 39.83,9 C37.7873526,9.54427523 35.9224048,10.6129144 34.42,12.1 C33.6953657,12.7071439 33.367877,13.6664932 33.57,14.59 C33.7067368,14.9949035 33.969579,15.3453597 34.32,15.59 C33.7813218,16.7098975 32.7680642,17.5285802 31.56,17.82 C30.8118072,16.9773995 29.8187652,16.3899662 28.72,16.14 C28.6791365,14.8459527 28.9865055,13.564673 29.61,12.43 C29.8713549,11.9490995 29.6975426,11.3474413 29.22,11.08 C28.98796,10.9512546 28.7142625,10.9200168 28.4591798,10.9931655 C28.2040971,11.0663142 27.9885481,11.2378507 27.86,11.47 C27.0935389,12.8560011 26.6974524,14.4162374 26.71,16 L26.6,16 C26.2977575,16.0222797 26.0219256,16.1804234 25.85,16.43 C25.7,16.65 22.32,21.68 24.74,27.04 C20.94,29.51 18.57,31.48 18.5,33.89 C17.9277319,34.0178815 17.3934279,34.2781834 16.94,34.65 C16.1998037,35.2877798 15.7077159,36.1657494 15.55,37.13 C14.2049091,37.4986755 13.1643854,38.5659773 12.83,39.92 C11.1157898,40.2110957 9.37857102,40.3449854 7.64,40.32 L7.52,40.32 C6.48267209,40.4520164 5.57343714,41.078047 5.08,42 C4.57283982,42.873697 4.51701744,43.9380438 4.93,44.86 C5.36835484,45.7876027 5.94865748,46.6411874 6.65,47.39 C5.6674944,48.0715221 5.29627693,49.3478428 5.76,50.45 C6.11807925,51.247508 6.62361193,51.9701822 7.25,52.58 C7.86400417,53.1835368 8.58673368,53.6653564 9.38,54 C9.69534285,54.1369416 10.0362444,54.2051219 10.38,54.2 C11.2097516,54.1982184 11.9863237,53.7912648 12.46,53.11 C13.2098266,53.8227138 14.0669361,54.413242 15,54.86 C15.4067538,55.039261 15.8455308,55.1344994 16.29,55.14 C16.8410003,55.1392727 17.382234,54.994484 17.86,54.72 C18.7756211,54.1944183 19.3822815,53.2602357 19.49,52.21 C19.5410844,50.4662053 19.6913271,48.7267285 19.94,47 C21.2556754,46.6460155 22.2862796,45.6230173 22.65,44.31 C23.6153434,44.1488233 24.493239,43.653237 25.13,42.91 C25.502172,42.4592427 25.7656355,41.928894 25.9,41.36 C28.33,41.29 30.31,38.88 32.83,35.03 C34.1187866,35.6237148 35.5210329,35.9307761 36.94,35.93 C39.2628621,35.8800607 41.5265177,35.1878112 43.48,33.93 C43.726981,33.7602318 43.884798,33.4886398 43.91,33.19 C43.91,33.19 43.91,33.1 43.91,33.06 L43.91,33.06 C46.05,33.06 51.32,32.26 53.78,24.77 C56.89,15.36 50.6,11.16 50.53,11.12 Z M27.24,18 C28.5326517,17.9248757 29.7606489,18.5715952 30.43,19.68 C29.2532103,21.1406955 28.5548864,22.9284047 28.43,24.8 C27.97,25.04 27.49,25.3 26.98,25.62 L26.43,25.97 C25.5034549,23.3248187 25.8002309,20.4046902 27.24,18 L27.24,18 Z M19.09,45.06 L19.09,45.06 L18.91,45.06 C18.7160062,45.1007238 18.5384916,45.1981828 18.4,45.34 L18.4,45.34 C18.3249214,45.4301427 18.2642066,45.5313341 18.22,45.64 L18.22,45.64 C17.7751484,47.7329563 17.5174651,49.8613538 17.45,52 C17.4106051,52.3962667 17.178756,52.74778 16.83,52.94 C16.5217963,53.1085159 16.1534761,53.1269319 15.83,52.99 C14.995767,52.5913313 14.2376811,52.0498414 13.59,51.39 C14.2188228,50.3400151 14.9634819,49.363908 15.81,48.48 C16.0953762,48.2356101 16.2196819,47.8518816 16.1318101,47.486581 C16.0439383,47.1212805 15.7587195,46.8360617 15.393419,46.7481899 C15.0281184,46.6603181 14.6443899,46.7846238 14.4,47.07 C13.2635961,48.2602095 12.2701906,49.5791567 11.44,51 C11.23,51.33 11.03,51.65 10.83,52 C10.6892469,52.2256979 10.4071493,52.318327 10.16,52.22 C9.59729244,51.9650068 9.08824048,51.6052768 8.66,51.16 C8.21707332,50.7297445 7.85767726,50.2211651 7.6,49.66 C7.50720544,49.4156725 7.59916788,49.1397852 7.82,49 L8.73,48.42 C10.1777323,47.5823875 11.5205269,46.5752915 12.73,45.42 C13.1221222,45.0306392 13.1243607,44.3971222 12.735,44.005 C12.3456392,43.6128778 11.7121222,43.6106393 11.32,44 C10.403575,44.8554059 9.3977887,45.6097456 8.32,46.25 C7.67173133,45.597574 7.14363911,44.8359025 6.76,44 C6.60941044,43.6608207 6.63175349,43.2698172 6.82,42.95 C7.00590459,42.6239707 7.32946839,42.3996821 7.7,42.34 C8.95,42.34 12.7,42.27 14.07,41.61 L14.07,41.61 L14.19,41.55 L14.25,41.5 C14.311386,41.4519143 14.3682856,41.3983618 14.42,41.34 C14.4620252,41.2978043 14.4989451,41.2508153 14.53,41.2 C14.56259,41.1463147 14.5894061,41.0893306 14.61,41.03 C14.6313585,40.9645948 14.6480668,40.8977615 14.66,40.83 L14.66,40.73 C14.6867765,40.0061419 15.1616755,39.3756036 15.85,39.15 C16.8993656,41.1889356 18.5555009,42.8520587 20.59,43.91 C20.3578042,44.5536048 19.7718189,45.0028601 19.09,45.06 L19.09,45.06 Z M23.59,41.59 C23.1866788,42.0182627 22.6368454,42.278898 22.05,42.32 C20.0153647,41.4105768 18.3905103,39.7785957 17.49,37.74 C17.71,36.37 18.43,35.94 18.98,35.83 C20.0552352,37.9984623 21.8115377,39.7547648 23.98,40.83 C23.9168045,41.1123981 23.7825666,41.3739897 23.59,41.59 Z M32.51,31.77 C29.03,37.3 27.15,39.69 25.28,39.24 C23.1598929,38.3229775 21.4735431,36.6258867 20.57,34.5 C20.19,32.84 22.06,31.17 26.37,28.38 L26.54,28.31 C26.6043928,28.26552 26.6646374,28.2153162 26.72,28.16 C27.14,27.88 27.58,27.6 28.05,27.31 C31.92,24.89 33.67,25.31 33.98,25.61 C34.0461644,25.6994421 34.1234531,25.7800912 34.21,25.85 C34.21,25.85 35.33,27.29 32.51,31.77 L32.51,31.77 Z M33.92,33.27 C34.01,33.13 34.1,32.98 34.2,32.84 C34.54,32.29 34.82,31.78 35.08,31.3 C36.9732928,31.1912608 38.7848799,30.4918063 40.26,29.3 C41.3684048,29.9693511 42.0151243,31.1973483 41.94,32.49 C40.79,33.14 37.41,34.71 33.92,33.27 L33.92,33.27 Z M51.92,24.12 C49.72,30.8 45.18,31.12 43.78,31.04 C43.5338807,29.9368739 42.9459719,28.9395288 42.1,28.19 C42.3988123,26.9825363 43.2198646,25.9708826 44.34,25.43 C44.5797761,25.785086 44.9319801,26.049239 45.34,26.18 C45.5206151,26.2399075 45.709709,26.2702976 45.9,26.27 C46.6409392,26.2162359 47.3340557,25.8839687 47.84,25.34 C49.5375078,23.591534 50.6938508,21.3899682 51.17,19 C51.2468121,18.6427344 51.1271905,18.2716286 50.8561955,18.0264746 C50.5852004,17.7813206 50.2040026,17.699363 49.8561955,17.8114746 C49.5083883,17.9235862 49.2468121,18.2127344 49.17,18.57 C48.7797925,20.5664932 47.8254297,22.409281 46.42,23.88 C46.258088,24.0275574 46.0841519,24.1613545 45.9,24.28 C45.8412052,24.194655 45.7972532,24.0999893 45.77,24 C45.7404451,23.0947866 46.0189665,22.2063385 46.56,21.48 C47.56,20.32 49.41,15.93 50.35,13.65 C51.72,15.08 53.78,18.42 51.9,24.12 L51.92,24.12 Z"/>
      <path id="Path" fill="#3D454C" fill-rule="nonzero" d="M25,33.58 C24.4477153,33.58 24,34.0277153 24,34.58 C24,35.1322847 24.4477153,35.58 25,35.58 C25.5522847,35.58 26,35.1322847 26,34.58 C26,34.0277153 25.5522847,33.58 25,33.58 Z"/>
    </g>
  </g>
</svg>
