<svg xmlns="http://www.w3.org/2000/svg" width="64" height="64" viewBox="0 0 64 64" style="background:#fff">
  <g id="Lattich" fill="none" fill-rule="evenodd" stroke="none" stroke-width="1">
    <rect width="64" height="64" fill="#FFF"/>
    <g transform="translate(2 4)">
      <rect id="Rectangle" width="60" height="60" x="0" y="0"/>
      <rect id="Rectangle" width="60" height="60" x="0" y="0"/>
      <g id="Group" fill="#31E085" fill-rule="nonzero" opacity=".5" transform="translate(3 3)">
        <path id="Path" d="M45.11,18.89 C40.4649819,19.3257459 35.90211,20.3991649 31.55,22.08 C32.8332924,21.331044 34.0751086,20.5131812 35.27,19.63 C38.06,17.4 38.91,14.73 39.7,11.41 C40.42,8.41 39.36,4.06 36.85,1.97 L36,1.29 C34.5483305,0.0556618617 32.5378034,-0.285820801 30.76,0.4 C22.44,3.31 14.76,11.91 9.76,18.74 C4.76,25.57 0.47,35.34 2,43.86 C-0.1,47.69 -0.44,51.74 3.18,55.33 C6.4,58.54 12.58,52.41 15,50.8 C18.0256834,48.8379163 21.2379804,47.1798485 24.59,45.85 C31.53,43.02 38.28,42.17 45.66,41.23 C51.06,40.55 53.03,34.51 52.92,29.88 C52.83,26 50.52,18.42 45.11,18.89 Z"/>
      </g>
      <path id="Shape" fill="#3D454C" fill-rule="nonzero" d="M21.92,42.12 L21.47,41.31 L32.09,39.31 C33.683805,39.0669476 34.8585046,37.6922086 34.85,36.08 C34.8462783,34.3781342 33.5452458,32.9600088 31.85,32.81 L28.29,32.45 C27.9950887,32.4262056 27.7373895,32.2415853 27.62,31.97 C27.4935786,31.7014625 27.5283426,31.384724 27.71,31.15 C27.844275,30.9753344 28.0417962,30.860413 28.26,30.83 L37.18,29.53 C38.6092677,29.3397548 39.6775864,28.1218716 39.68,26.68 C39.693662,25.3069672 38.7197348,24.1222332 37.37,23.87 L35.25,23.3 L40.7,21.58 C42.0142806,21.2469536 42.9284045,20.0556971 42.9102729,18.7 C42.9069227,17.2423164 41.8564694,15.9978035 40.42,15.75 C40.27,15.75 40.02,15.75 39.16,15.68 L38.16,15.68 C37.9510384,15.6436467 37.7743948,15.5045868 37.69,15.31 C37.6085467,15.1158996 37.6311403,14.8937296 37.75,14.72 L40.06,11.39 C40.712997,10.4776931 40.9687964,9.33986896 40.7690957,8.23586324 C40.569395,7.13185752 39.9312109,6.1557437 39,5.53 C37.3571817,4.44218527 35.1759338,4.65947434 33.78,6.05 L30.5,9.3 C30.3712209,9.4351148 30.1844481,9.49861758 30,9.47 C29.8165069,9.4538475 29.6506019,9.35430451 29.55,9.2 L28.93,8.28 C28.3844946,7.45704517 27.523334,6.89591515 26.5501585,6.72930144 C25.576983,6.56268773 24.5782023,6.80538422 23.79,7.4 C22.8863086,8.07776176 22.3531411,9.14039415 22.35,10.27 L22.35,16.66 L20.72,13.93 C19.7574824,12.372033 17.7852117,11.7749994 16.1202304,12.5375863 C14.455249,13.3001732 13.6190371,15.1835346 14.17,16.93 C14.6,18.2 14.97,19.75 15.33,21.25 C15.69,22.75 16,24 16.33,25 C16.4306732,25.3179396 16.3030775,25.6636827 16.02,25.84 C15.697048,26.0347434 15.2824258,25.9808425 15.02,25.71 C14.56,25.19 14.17,24.71 13.76,24.24 C13.35,23.77 12.82,23.13 12.21,22.44 C11.5619165,21.7200824 10.6280064,21.324544 9.66,21.36 C8.66422342,21.3957986 7.74111738,21.8905835 7.16,22.7 C6.47066105,23.611964 6.30762004,24.8177092 6.73,25.88 L10.52,35.35 C10.5828597,35.499795 10.5833729,35.6684759 10.5214258,35.8186507 C10.4594787,35.9688254 10.340189,36.0880876 10.19,36.15 L8.32,37 C6.52565267,37.763393 5.48801022,39.6567804 5.81,41.58 L7,48.48 L4.66,55.48 C4.55653792,55.7834923 4.60488334,56.1181913 4.79,56.38 C4.97883138,56.6384142 5.27994607,56.7908303 5.6,56.7900079 L10.45,56.7900079 C10.8086848,56.791424 11.140659,56.6006342 11.32,56.29 L14.43,50.84 L19.08,47.74 C20.58,46.76 23.43,44.87 21.92,42.12 Z M13.1,49.35 C12.9691554,49.4336591 12.8595945,49.5466438 12.78,49.68 L9.84,54.83 L7,54.83 L9,48.88 C9.03896948,48.7223728 9.03896948,48.5576272 9,48.4 L7.8,41.21 C7.63049522,40.1928529 8.18047275,39.1921419 9.13,38.79 L11,38 C12.3131676,37.4519671 12.9382985,35.9471879 12.4,34.63 L8.59,25.13 C8.42316003,24.7029804 8.49549247,24.2194951 8.78,23.86 C9.00398467,23.5706088 9.34435885,23.3949318 9.71,23.38 C10.0905274,23.3435469 10.4645851,23.4969105 10.71,23.79 C11.31,24.47 11.78,25.02 12.23,25.55 C12.68,26.08 13.06,26.55 13.53,27.06 C14.4732797,28.0997185 16.0376801,28.2872761 17.2,27.5 C18.2197537,26.8252285 18.6587186,25.5493584 18.27,24.39 C17.95,23.39 17.64,22.15 17.32,20.8 C16.95,19.26 16.57,17.67 16.11,16.31 C15.8664972,15.5855618 16.1624223,14.7894816 16.82,14.4 C17.5891674,13.975975 18.5561299,14.2421114 19,15 L21,18.33 C21.4183032,19.0237902 22.2466834,19.3551218 23.0280594,19.1411736 C23.8094355,18.9272253 24.3534793,18.220111 24.36,17.41 L24.36,10.31 C24.3520643,9.79622323 24.5898439,9.30951817 25,9 C25.3520327,8.74061297 25.7948884,8.63660695 26.2255846,8.71216769 C26.6562808,8.78772843 27.0372858,9.03627141 27.28,9.4 L27.9,10.32 C28.3338219,10.9649614 29.0325348,11.3830045 29.8059653,11.4603475 C30.5793957,11.5376905 31.3470536,11.2662845 31.9,10.72 L35.15,7.47 C35.9305708,6.62598787 37.2385256,6.54950495 38.1121476,7.29678782 C38.9857697,8.04407069 39.1128727,9.34808 38.4,10.25 L36.1,13.58 C35.5864126,14.3156767 35.4866971,15.2635815 35.8359561,16.0900259 C36.1852152,16.9164703 36.9344843,17.5055905 37.82,17.65 C38.2451054,17.6962371 38.6723877,17.7196041 39.1,17.72 L40.1,17.72 C40.5810925,17.8079673 40.9279763,18.2309963 40.9201348,18.72 C40.8974489,19.1607799 40.5885989,19.534651 40.16,19.64 L34.16,21.54 C33.3248794,21.7445107 32.7509936,22.5110882 32.79,23.37 C32.7987622,24.196792 33.3881591,24.9032323 34.2,25.06 L36.98,25.8 C37.4013931,25.8687053 37.7106567,26.2330432 37.71,26.66 C37.7084426,27.1022976 37.3788316,27.4747152 36.94,27.53 L28,28.89 C27.2533357,28.9951147 26.5798665,29.3948745 26.13,30 C25.5139319,30.8140544 25.389748,31.8988918 25.8059163,32.8311088 C26.2220845,33.7633258 27.1126377,34.3951556 28.13,34.48 L31.69,34.84 C32.3337869,34.9010019 32.8309541,35.4326049 32.848769,36.07903 C32.8665838,36.7254551 32.3994499,37.2836333 31.76,37.38 L20.95,39.38 C20.4239994,39.4413552 19.9517052,39.7312242 19.6588442,40.1724424 C19.3659831,40.6136606 19.2822738,41.1614549 19.43,41.67 C19.4522668,41.7415979 19.4789855,41.8117346 19.51,41.88 L20.18,43.09 C20.45,43.59 20.8,44.22 17.96,46.09 L13.1,49.35 Z"/>
      <path id="Path" fill="#3D454C" fill-rule="nonzero" d="M21.12 35.64C21.12 35.0877153 20.6722847 34.64 20.12 34.64L19 34.64C22.2864858 29.5820822 25.8833851 24.7327807 29.77 20.12 29.9400589 19.9159174 30.021926 19.6525562 29.9975369 19.3880285 29.9731478 19.1235008 29.8445071 18.8795482 29.64 18.71 29.216494 18.3625737 28.5922946 18.4205351 28.24 18.84 26.35 21.1 24.71 23.18 23.24 25.12L22.64 23.89C22.3909014 23.4092609 21.8044333 23.2140968 21.3169459 23.4497157 20.8294586 23.6853346 20.6180435 24.2661422 20.84 24.76L21.89 26.92C14.96 36.3 12.89 41.46 12.73 41.73 12.6316208 41.976631 12.6353691 42.2522628 12.7404184 42.4961274 12.8454678 42.7399921 13.0431923 42.9320649 13.29 43.03 13.4077876 43.0765537 13.5333466 43.1003081 13.66 43.100003 14.0698038 43.1003967 14.4383727 42.850721 14.59 42.47 15.5016683 40.4569267 16.5508142 38.5089901 17.73 36.64L20.13 36.64C20.6783755 36.634516 21.1200274 36.188403 21.12 35.64zM56.47 34C55.8713074 32.1160858 54.0242778 30.918239 52.06 31.14L46.74 31.74 46.9 29.88C46.9781273 28.5400193 46.4361209 27.2384665 45.43 26.35 44.489233 25.5555417 43.2176942 25.2750552 42.03 25.6 41.6635663 25.6649393 41.3635037 25.9279875 41.2511576 26.2827679 41.1388115 26.6375483 41.2327679 27.025368 41.4950306 27.2893927 41.7572934 27.5534173 42.1444753 27.6499682 42.5 27.54 43.0611959 27.3719113 43.6692745 27.4957792 44.12 27.87 44.6355458 28.3412857 44.9233571 29.0116309 44.91 29.71L44.65 32.79C44.6253126 33.0881147 44.7353793 33.3816259 44.95 33.59 45.1642957 33.8001658 45.4616612 33.9029588 45.76 33.87L52.28 33.12C53.2950097 33.0093721 54.2478324 33.6278711 54.56 34.6 54.7394002 35.1542837 54.6850613 35.7577513 54.4095295 36.271071 54.1339976 36.7843906 53.6610921 37.1631864 53.1 37.32L46.76 39.23C46.431605 39.329413 46.177107 39.5902473 46.0857984 39.9209873 45.9944898 40.2517273 46.0791216 40.6061864 46.31 40.86L48.47 43.26C48.7958282 43.6358858 48.7958282 44.1941142 48.47 44.57 48.2047509 44.9030949 47.7455851 45.0106472 47.36 44.83L40.15 41.5C39.3697467 41.1482984 38.4497979 41.3911722 37.9448287 42.0821825 37.4398596 42.7731929 37.4879065 43.7234482 38.06 44.36L41 47.61C41.2478324 47.8867564 41.2844339 48.2934396 41.09 48.61L41.02 48.7C40.7361064 49.0459881 40.2394385 49.1273389 39.86 48.89L32.26 44.66C31.026461 43.9473003 29.4550964 44.2665533 28.5974731 45.4041129 27.7398499 46.5416725 27.8653552 48.140221 28.89 49.13L31.25 51.3C31.7294558 51.7597585 31.781388 52.5084489 31.37 53.03 30.9844703 53.5254921 30.2912266 53.6581498 29.75 53.34L29.62 53.28 21.62 50.15C21.3010127 50.0263183 20.9621204 49.9619288 20.62 49.96L19.31 49.96C18.7577153 49.96 18.31 50.4077153 18.31 50.96 18.31 51.5122847 18.7577153 51.96 19.31 51.96L20.58 51.96C20.6794311 51.9449147 20.7805689 51.9449147 20.88 51.96L28.82 55.07C29.2952002 55.3294257 29.8286095 55.4636383 30.37 55.460072 31.36851 55.4618731 32.3124606 55.004647 32.93 54.22 33.9791622 52.8792756 33.8362272 50.960481 32.6 49.79L30.24 47.61C30.0205916 47.4094263 29.9304912 47.1037326 30.0060413 46.8162225 30.0815914 46.5287125 30.3103323 46.3068019 30.6 46.24 30.8212528 46.1836074 31.0559289 46.2197114 31.25 46.34L38.84 50.57C40.0485629 51.3182262 41.6217886 51.0765177 42.55 50L42.55 50C43.4410744 48.9095708 43.3985211 47.3308444 42.45 46.29L40.14 43.73 46.52 46.63C47.7557111 47.1972318 49.2193995 46.8364928 50.05 45.76 50.9845892 44.6285269 50.9634357 42.987014 50 41.88L48.89 40.65 53.7 39.2C54.7625505 38.8862065 55.6544695 38.1586572 56.1753541 37.1808232 56.6962387 36.2029893 56.8024055 35.0568758 56.47 34zM31.75 16.78C32.3022847 16.78 32.75 16.3322847 32.75 15.78 32.75 15.2277153 32.3022847 14.78 31.75 14.78 31.1977153 14.78 30.75 15.2277153 30.75 15.78 30.75 16.3322847 31.1977153 16.78 31.75 16.78z"/>
    </g>
  </g>
</svg>
