<svg xmlns="http://www.w3.org/2000/svg" width="64" height="64" viewBox="0 0 64 64" style="background:#fff">
  <g id="Lauch" fill="none" fill-rule="evenodd" stroke="none" stroke-width="1">
    <rect width="64" height="64" fill="#FFF"/>
    <g transform="translate(1 3)">
      <rect id="Rectangle" width="60" height="60" x=".87" y=".11"/>
      <path id="Path" fill="#31E085" fill-rule="nonzero" d="M61.8,26.91 C58.31,24.72 53.94,24.34 49.64,24.66 C53.64,21.92 57.52,18.92 60.08,15.22 C60.48,14.63 60.36,13.12 59.44,13.1 C53,12.91 45.7,18.49 40.18,22.39 C44.76,16.7 49.53,10.76 52.56,4.18 C52.7,3.87 52.5,2.73 51.95,3.05 C45.54,6.83 40.28,13.68 35.41,19.2 C34.68,20.03 33.92,20.86 33.16,21.69 C34.51,16.55 35.16,10.87 33.71,6.07 C33.35,4.89 32.14,5.15 31.76,6.07 C29.57,11.66 29.16,17.75 26.69,23.36 C24.37,28.64 18.8,33.56 18.23,39.28 C18.1673204,39.9000989 18.2147158,40.5263956 18.37,41.13 C18.03,42.88 18.65,45.59 20.66,44.9 C25.07,43.38 29.16,40.2 33.06,36.9 C36.41,35.71 39.72,34.27 42.99,33.4 C48.99,31.79 56.6,31.31 61.82,27.66 C61.9936154,27.4374082 61.9852318,27.1230225 61.8,26.91 Z" opacity=".5"/>
      <path id="Shape" fill="#3D454C" fill-rule="nonzero" d="M55,22.12 C54.8670912,21.5845496 54.3256491,21.2578945 53.79,21.39 C53.3,21.52 42.9,24.13 36.44,27.09 C37.5534441,24.7598575 38.5186965,22.3617563 39.33,19.91 L39.47,19.86 C43.7509899,17.2454051 48.1782422,14.878194 52.73,12.77 L55.21,17.72 L54.42,18.11 C53.9313543,18.3669176 53.7433512,18.9712131 54,19.46 C54.1694502,19.7962797 54.5134418,20.0088587 54.89,20.01 C55.0462755,20.0069598 55.1999448,19.9693962 55.34,19.9 L57,19.07 C57.2331177,18.9457264 57.4114302,18.7388839 57.5,18.49 C57.5839226,18.235655 57.5623086,17.958275 57.44,17.72 L54.1,11 C53.8585816,10.5246302 53.2866719,10.3222622 52.8,10.54 C48.4913833,12.5003567 44.2858861,14.6798722 40.2,17.07 C40.73,15.13 41.2,13.07 41.58,10.94 L44.43,5.24 L49.35,7.71 L49,8.5 C48.7545164,8.9943143 48.9559191,9.5940469 49.45,9.84 C49.9443143,10.0854836 50.5440469,9.88408087 50.79,9.39 L51.63,7.72 C51.7517785,7.48282559 51.7738052,7.20684143 51.691187,6.95335386 C51.6085688,6.69986629 51.428147,6.48986533 51.19,6.37 L44.43,3 C44.1915974,2.87893028 43.9146389,2.85837736 43.6609771,2.94293128 C43.4073153,3.02748521 43.1980802,3.21010269 43.08,3.45 L40.13,9.38 L29.22,5.49 C28.9196587,5.38074123 28.5851856,5.42162127 28.32,5.6 C28.0558479,5.77819416 27.8924289,6.0716056 27.88,6.39 C27.09,28.64 12.79,41.51 8.56,42.39 C7.18658222,42.7604148 6.13622725,43.8686938 5.84,45.26 C5.84,45.4 5.77,45.57 5.73,45.73 L4.56,45.73 C4.00771525,45.73 3.56,46.1777153 3.56,46.73 C3.56,47.2822847 4.00771525,47.73 4.56,47.73 L5.56,47.73 C5.5815042,48.2323026 5.65183562,48.7313207 5.77,49.22 L4.71,50.22 C4.30130929,50.5927922 4.27220779,51.2263093 4.645,51.635 C5.01779221,52.0436907 5.65130929,52.0727922 6.06,51.7 L6.56,51.25 C6.8769281,51.8209913 7.27058824,52.3458715 7.73,52.81 C7.77431922,52.8557946 7.82105244,52.8991897 7.87,52.94 L7.2,53.61 C6.81227641,54.0000375 6.81227641,54.6299625 7.2,55.02 C7.59003745,55.4077236 8.21996255,55.4077236 8.61,55.02 L9.45,54.18 L9.45,54.18 C9.85466189,54.4257072 10.2795335,54.6364703 10.72,54.81 L10.35,55.55 C10.1045164,56.0443143 10.3059191,56.6440469 10.8,56.89 C10.9401653,56.9579235 11.0942591,56.9921666 11.25,56.9900968 C11.6265582,56.9888587 11.9705498,56.7762797 12.14,56.44 L12.73,55.26 L13.06,55.26 C13.2730617,55.2752235 13.4869383,55.2752235 13.7,55.26 C15.1004867,55.1331534 16.3650753,54.369976 17.13,53.19 C18.5934019,51.1122305 20.2220162,49.1558868 22,47.34 C22.86,46.41 23.78,45.4 24.73,44.34 L24.73,44.34 C24.8789933,44.339117 25.0259063,44.3049512 25.16,44.24 C25.37,44.14 46.09,34.24 56.68,33.44 C56.973297,33.4142903 57.2403601,33.2606375 57.41,33.02 C57.5804283,32.783107 57.6388714,32.4835857 57.57,32.2 L55,22.12 Z M20.48,46 C18.6524889,47.8602917 16.980244,49.8669857 15.48,52 C15.0325123,52.6778369 14.2909344,53.1042442 13.48,53.15 C11.827517,53.2126773 10.2342564,52.5298513 9.14,51.29 C7.73640744,49.8193777 7.20859263,47.7195102 7.75,45.76 C8,45 8.45,44.41 9,44.31 C13.66,43.38 28.5,30.67 29.87,7.82 L39.54,11.28 C36.24,28.79 26.77,39.12 20.48,46 Z M27.62,40.89 C30.4141777,37.4980552 32.8849404,33.8521736 35,30 C35.1055411,29.9864472 35.2074355,29.9524824 35.3,29.9 C40.08,27.17 50.2,24.38 53.37,23.55 L55.37,31.55 C46.8,32.61 33.74,38.13 27.62,40.88 L27.62,40.89 Z"/>
    </g>
  </g>
</svg>
