<svg xmlns="http://www.w3.org/2000/svg" width="64" height="64" viewBox="0 0 64 64" style="background:#fff">
  <g id="Laugenbretzel" fill="none" fill-rule="evenodd" stroke="none" stroke-width="1">
    <rect width="64" height="64" fill="#FFF"/>
    <g transform="translate(2 4)">
      <rect id="Rectangle" width="60" height="60" x="0" y="0"/>
      <rect id="Rectangle" width="60" height="60" x="0" y="0"/>
      <g id="Group" fill="#C17953" fill-rule="nonzero" opacity=".5" transform="translate(7 10)">
        <path id="Shape" d="M39.27,5.62 C34.61,2.03 28.42,2.24 24.37,6.62 L24.15,6.89 C24.1316602,6.78469489 24.1049078,6.6810295 24.07,6.58 C21.85,1.32 16.57,-0.42 11.34,1.67 C5.82,3.86 2.2,9.34 0.87,15 C-1.96,27 5.36,39.59 17.47,42.46 C30.19,45.46 43.13,35.46 45.24,22.96 C46.3,16.62 44.48,9.64 39.27,5.62 Z M22.81,8.62 L22.88,8.62 C21.445629,11.0478716 20.8483569,13.879644 21.18,16.68 C19.4764538,17.8203475 17.5623759,18.6090972 15.55,19 C13.4599218,19.4100488 11.3100782,19.4100488 9.22,19 C7.61,18.64 6.32,17.87 4.83,17.56 C6.6,9.72 15.1,3.69 22.81,8.59 L22.81,8.62 Z M25.08,34.5 C17.78,35.88 8.8,32.69 5.63,25.64 C10.96,28.18 18.34,25.51 22.38,20.75 C22.8956184,21.7944988 23.5703256,22.752583 24.38,23.59 C28.12,27.49 32.86,27.8 37.38,26.41 C34.12,30.46 28.94,33.77 25.08,34.5 Z M28.32,17.5 C25.71,15.5 27.12,13.21 29.81,12.01 C31.9867893,11.0946263 34.4817816,11.3668073 36.41,12.73 C37.9557619,13.6713474 39.1715927,15.0688541 39.89,16.73 C36.34,18.73 31.79,20.21 28.32,17.49 L28.32,17.5 Z"/>
      </g>
      <path id="Shape" fill="#3D454C" fill-rule="nonzero" d="M53.48,25.32 C52.61,19.24 48.06,14.12 42.66,13.14 C39.4576267,12.6305359 36.193617,13.5599736 33.74,15.68 C32.2937473,16.8823819 31.2244525,18.475909 30.66,20.27 C29.6819988,19.3895382 28.5207285,18.7371775 27.26,18.36 C24.7360488,17.5298381 21.9797839,17.7945846 19.66,19.09 C16.1979648,21.4691982 14.5153167,25.7034677 15.4,29.81 C13.4,30.26 11.4,30.81 9.67,31.34 C9.69320243,29.7036231 9.89098926,28.074396 10.26,26.48 C11.45,21.41 14.26,17.36 18.03,15.38 C19.82,14.38 25.92,11.67 29.46,15.99 C29.8207145,16.375731 30.4191914,16.4144744 30.8266287,16.078471 C31.2340659,15.7424676 31.309989,15.1475631 31,14.72 C28,11.02 22.76,10.6 17.08,13.61 C12.84,15.87 9.64,20.39 8.32,26 C7.81100583,28.1748058 7.59575677,30.4080147 7.68,32.64 L7.68,32.64 C7.77194033,35.9160192 8.56293804,39.1345616 10,42.08 C12.4875508,47.0983946 16.8870322,50.9069546 22.21,52.65 C24.0244283,53.2072745 25.9119208,53.4900004 27.81,53.4900004 C36.38,53.4900004 44.61,47.9 49.11,41.25 C52.65,36 54.2,30.37 53.48,25.32 Z M47.48,40.13 C42.39,47.62 32.3,53.67 22.8,50.74 C18.0006167,49.1613078 14.0369805,45.7201509 11.8,41.19 C10.6113573,38.7621853 9.90497577,36.1268388 9.72,33.43 C11.7823997,32.7546895 13.8785723,32.1872542 16,31.73 C17.664282,35.5139147 20.872445,38.4016256 24.81,39.66 C26.819408,40.3260679 28.9230793,40.6637359 31.04,40.66 C33.1660552,40.6485638 35.2835836,40.3901649 37.35,39.89 C42.35,38.7 46.06,36.37 47.92,33.17 C49.8049477,29.9175728 49.8092648,25.9060567 47.9313219,22.6495799 C46.053379,19.3931031 42.5791628,17.3875853 38.82,17.39 L38.82,17.39 C38.2677153,17.39 37.82,17.8377153 37.82,18.39 C37.82,18.9422847 38.2677153,19.39 38.82,19.39 L38.82,19.39 C41.8618999,19.388923 44.6730572,21.011586 46.1935798,23.6461956 C47.7141023,26.2808051 47.7127375,29.52667 46.19,32.16 C44.19,35.6 40.03,37.16 36.89,37.94 C33.1380057,38.9593464 29.1759253,38.9108594 25.45,37.8 C22.1820507,36.754935 19.487903,34.4115689 18,31.32 C21.6758004,30.5640978 25.4092814,30.1225033 29.16,30 L29.78,30 C31.3166747,30.0573815 32.8540303,29.9060007 34.35,29.55 C36.3061372,29.1204004 37.9039744,27.7152103 38.58,25.83 C38.8881953,24.6888267 38.6758679,23.4697749 38,22.5 C37.4197891,21.6506714 36.4935699,21.1015296 35.47,21 C34.9207253,20.9538377 34.4376726,21.3608543 34.39,21.91 C34.3650255,22.1754479 34.4470888,22.4398782 34.6179595,22.6445475 C34.7888302,22.8492169 35.0343585,22.9771764 35.3,23 C35.7359827,23.0601822 36.1235369,23.3088019 36.36,23.68 C36.6881039,24.1518189 36.7973926,24.741978 36.66,25.3 C36.1528344,26.5052025 35.0886298,27.3864386 33.81,27.66 C32.4982724,27.9557609 31.1537227,28.0801317 29.81,28.03 L29.18,28.03 C25.21996,28.1586301 21.2785313,28.6303971 17.4,29.44 C16.7061508,26.1621409 18.021733,22.7848254 20.75,20.84 C22.5891521,19.8348142 24.7653368,19.6462115 26.75,20.32 C28.3316001,20.7227128 29.6686752,21.7763861 30.43,23.22 L30.49,23.3 C30.5302347,23.3879976 30.5842463,23.4690151 30.65,23.54 C30.7110343,23.5835293 30.7744677,23.6235925 30.84,23.66 C30.8810164,23.6902604 30.9245027,23.7170212 30.97,23.74 C31.0666097,23.7742669 31.1676422,23.7944734 31.27,23.8 L31.35,23.8 L31.35,23.8 C31.4219375,23.7928976 31.4925805,23.7760778 31.56,23.75 C31.6195611,23.7602632 31.6804389,23.7602632 31.74,23.75 L31.74,23.75 L31.8,23.75 C31.8942275,23.701732 31.9816531,23.6412066 32.06,23.57 L32.16,23.42 C32.2645098,23.2973461 32.3213138,23.1411352 32.32,22.98 C32.32,22.98 32.32,22.9 32.32,22.86 C32.3017182,20.6657973 33.2891779,18.5840259 35,17.21 C37.0022903,15.4854432 39.6565388,14.7187415 42.27,15.11 C46.85,15.94 50.72,20.35 51.47,25.61 C52.15,30.16 50.72,35.31 47.46,40.13 L47.48,40.13 Z"/>
      <path id="Path" fill="#3D454C" fill-rule="nonzero" d="M33.94 31.05C33.6900795 31.5363717 33.8771748 32.1332948 34.36 32.39 36.103908 33.3469185 38.0608024 33.849039 40.05 33.85 40.98983 33.8406119 41.9269215 33.7469028 42.85 33.57 43.4022847 33.4705887 43.7694112 32.9422847 43.6699999 32.39 43.5705887 31.8377153 43.0422847 31.4705888 42.49 31.57 40.0482657 32.1237074 37.4884176 31.7681729 35.29 30.57 35.0478854 30.4509451 34.7679363 30.434775 34.5137241 30.5251616 34.2595119 30.6155481 34.0526093 30.8048211 33.94 31.05zM26.55 23.71C25.9977153 23.71 25.55 24.1577153 25.55 24.71 25.55 25.2622847 25.9977153 25.71 26.55 25.71 27.1022847 25.71 27.55 25.2622847 27.55 24.71 27.55 24.1577153 27.1022847 23.71 26.55 23.71zM14.55 36C13.9977153 36 13.55 36.4477153 13.55 37 13.55 37.5522847 13.9977153 38 14.55 38 15.1022847 38 15.55 37.5522847 15.55 37 15.55 36.4477153 15.1022847 36 14.55 36zM16.68 39.18C16.1277153 39.18 15.68 39.6277153 15.68 40.18 15.68 40.7322847 16.1277153 41.18 16.68 41.18 17.2322847 41.18 17.68 40.7322847 17.68 40.18 17.68 39.6277153 17.2322847 39.18 16.68 39.18zM19.61 42.38C19.0577153 42.38 18.61 42.8277153 18.61 43.38 18.61 43.9322847 19.0577153 44.38 19.61 44.38 20.1622847 44.38 20.61 43.9322847 20.61 43.38 20.61 42.8277153 20.1622847 42.38 19.61 42.38z"/>
    </g>
  </g>
</svg>
