<svg xmlns="http://www.w3.org/2000/svg" width="64" height="64" viewBox="0 0 64 64" style="background:#fff">
  <g id="Laugengebäck" fill="none" fill-rule="evenodd" stroke="none" stroke-width="1">
    <rect width="64" height="64" fill="#FFF"/>
    <g id="40-Laugengebäck" transform="translate(2 9)">
      <g id="Layer_2">
        <rect id="Rectangle" width="60" height="60" x="0" y="0"/>
      </g>
      <g id="Layer_1" transform="translate(5 5)">
        <path id="Shape" fill="#DFA077" fill-opacity=".5" d="M32.05,14.6 C34.0672785,14.8186978 36.0594336,15.2271733 38,15.82 C41.4273643,16.8369192 44.5842497,18.6066883 47.24,21 C50.1966898,23.8178725 51.7031598,27.8326702 51.33,31.9 C51.0499178,35.8656063 49.1157034,39.5308156 46,42 C44.0465729,43.4699494 41.8685188,44.6146941 39.55,45.39 C36.3419345,46.466375 32.9924285,47.0628162 29.61,47.16 C27.1457999,47.2602889 24.6779958,47.0926391 22.25,46.66 C19.7023353,46.1990808 17.2360746,45.3668863 14.93,44.19 C12.7168375,43.0647964 10.6595544,41.656297 8.81,40 C6.89889825,38.2903757 5.27487151,36.2848208 4,34.06 C1.87827059,30.3040096 0.788048987,26.0535253 0.84,21.74 C0.880101667,17.4666054 2.00162203,13.272945 4.1,9.55 C4.93987134,8.00205518 5.94579985,6.55016504 7.1,5.22 C8.04919914,4.13894799 9.16286496,3.21426789 10.4,2.48 C13.4275745,0.737153801 17.0801367,0.454208843 20.34,1.71 C24.3315037,3.25806336 27.6803849,6.11342522 29.84,9.81 C30.6082003,11.1973346 31.2765597,12.6376492 31.84,14.12 L32.02,14.6 L32.05,14.6 Z M23.43,18.87 L21.69,14.41 C20.8076607,12.9166769 19.5309444,11.6953195 18,10.88 C17.1424699,10.2674615 16.0264261,10.1497834 15.06,10.57 C14.5428941,10.8963563 14.09173,11.3169905 13.73,11.81 C13.160124,12.5435476 12.6517333,13.3228571 12.21,14.14 C10.9048893,16.4934121 10.2168462,19.1389378 10.21,21.83 C10.1711399,24.4905607 10.8406989,27.1135752 12.15,29.43 C12.9321179,30.7934422 13.9281341,32.0224249 15.1,33.07 C16.341545,34.1717455 17.7194907,35.1094207 19.2,35.86 C20.6912684,36.6164535 22.2846025,37.1520563 23.93,37.45 C25.6923503,37.7573913 27.4826043,37.87473 29.27,37.8 C31.3255228,37.7381808 33.366453,37.4327126 35.35,36.89 C37.1277634,36.4287559 38.8033478,35.6384499 40.29,34.56 C41.3089563,33.7145281 41.928781,32.482128 42,31.16 C42.1433104,29.9328418 41.7200414,28.7072019 40.85,27.83 C39.2143417,26.3973685 37.2812371,25.3454317 35.19,24.75 C33.7877672,24.3232337 32.3478451,24.0319006 30.89,23.88 C30.5468885,24.0653496 30.1802088,24.203275 29.8,24.29 C28.0241781,24.7106199 26.1664829,24.0535825 25.05,22.61 C24.0240027,21.7388424 23.4258099,20.4658588 23.41,19.12 L23.41,18.87 L23.43,18.87 Z"/>
        <path id="Path" fill="#3D454C" fill-rule="nonzero" d="M42.65,28.24 C42.4577944,25.7706404 41.006436,23.5747048 38.81,22.43 C36.6307552,21.480551 34.1683904,21.4124506 31.94,22.24 C31.5934524,22.348966 31.3313618,22.6345357 31.2524554,22.9891377 C31.1735489,23.3437398 31.2898142,23.7135017 31.5574554,23.9591377 C31.8250965,24.2047738 32.2034524,24.288966 32.55,24.18 C34.282596,23.5130026 36.2053788,23.5380668 37.92,24.25 C39.5006597,25.1009257 40.5293563,26.7082641 40.64,28.5 C40.8413901,29.9923529 40.5387199,31.5092236 39.78,32.81 C38.8971534,34.2800013 37.6896784,35.5285236 36.25,36.46 C36.3507587,36.0722778 36.4242714,35.6779821 36.47,35.28 C36.5699805,34.4898167 36.5699805,33.6901833 36.47,32.9 C36.4356912,32.4818579 36.1440205,32.1295903 35.7396195,32.0178773 C35.3352186,31.9061644 34.9040824,32.0587615 34.66,32.4 C34.4950689,32.6128732 34.4229634,32.8832687 34.46,33.15 C34.5986982,34.3673672 34.4654958,35.6003435 34.07,36.76 C33.9796969,37.0379279 33.9095156,37.3219952 33.86,37.61 C33.7880397,38.0517675 33.8921571,38.5041396 34.15,38.87 C34.3451044,39.1304376 34.6547304,39.279655 34.98,39.27 L35.23,39.27 C35.4951993,39.2064826 35.753208,39.116012 36,39 C37.8651806,38.0342292 39.4939874,36.6683535 40.77,35 C42.2916935,33.0970143 42.9707291,30.6553754 42.65,28.24 Z"/>
        <path id="Shape" fill="#3D454C" fill-rule="nonzero" d="M20.45 19.08C21.4715741 18.7776469 22.5196502 18.5733892 23.58 18.47 23.8665937 18.4539739 24.132482 18.3155663 24.31 18.09 24.4886309 17.8645132 24.5615041 17.5730205 24.51 17.29 24.3233799 16.176487 23.986997 15.0933339 23.51 14.07 23.0121112 13.0210142 22.3353325 12.0667563 21.51 11.25 20.5053767 10.1475127 19.2298173 9.32701766 17.81 8.87 16.2970181 8.46276126 14.6868288 8.63019244 13.29 9.34 10.3519733 10.5393968 8.20371198 13.1225591 7.56 16.23 7.10965499 18.9219083 7.39291578 21.6854282 8.38 24.23 8.52 24.61 8.63 24.87 8.69 25 8.75 25.13 8.75 25.11 8.75 25.12L8.86 25.28C9.04424595 25.5133495 9.32277286 25.6526129 9.62 25.6600809L9.62 25.6600809C9.99002958 25.6646951 10.3324013 25.4646577 10.51 25.14 11.4240255 24.1345616 12.4662928 23.2536776 13.61 22.52 14.7814781 21.6674323 16.0225086 20.9147858 17.32 20.27 18.3289063 19.7881045 19.3757759 19.3900934 20.45 19.08L20.45 19.08zM22.29 16.59C21.480494 16.7247871 20.6792245 16.9050728 19.89 17.13 18.7468134 17.4661514 17.6303667 17.8873259 16.55 18.39 14.8669418 19.2337758 13.2694953 20.2384591 11.78 21.39 11.16 21.86 10.58 22.33 10.1 22.76 9.23660019 20.327681 9.23660019 17.672319 10.1 15.24 10.9215119 13.4103344 12.4089814 11.962197 14.26 11.19 14.9096715 10.8767077 15.618916 10.7062163 16.34 10.69 16.6786475 10.6937471 17.0151569 10.7442235 17.34 10.84 18.425167 11.2003589 19.3972959 11.8381031 20.16 12.69 20.8040552 13.3399708 21.3287209 14.0981974 21.71 14.93 21.959091 15.4622473 22.1534235 16.0184404 22.29 16.59L22.29 16.59zM26.5 23.91L26.5 23.91C26.273663 23.6507359 25.9299099 23.5260782 25.59 23.58 23.3867054 23.9202685 21.2272113 24.500381 19.15 25.31 17.6178506 25.8400548 16.2544766 26.7685297 15.2 28 13.9782184 29.4720517 13.5763548 31.4588355 14.13 33.29 15 36.11 18 38.1 19.5 38.75 20.8733204 39.3364603 22.3469582 39.6522398 23.84 39.68 24.7064334 39.6959618 25.5671069 39.5360738 26.37 39.21 28.54 38.31 29.7 36.28 29.82 33.16 29.8619226 31.4762666 29.583658 29.7998921 29 28.22 28.427394 26.6471275 27.5810157 25.1879712 26.5 23.91L26.5 23.91zM27.79 33.08C27.7 35.34 26.96 36.77 25.59 37.34 23.84 38.07 21.46 37.41 20.33 36.9 19.2 36.39 16.72 34.81 16.06 32.7 15.7266719 31.4808384 16.0146203 30.1757218 16.83 29.21 17.6722611 28.2903433 18.7360771 27.6017893 19.92 27.21 21.6658516 26.5323082 23.4747446 26.0298379 25.32 25.71 26.0814241 26.6887547 26.6822685 27.7824265 27.1 28.95 27.5967258 30.2686054 27.831114 31.6715376 27.79 33.08L27.79 33.08z"/>
        <path id="Shape" fill="#3D454C" fill-rule="nonzero" d="M48.56,25.44 C47.8161982,21.113335 44.7356827,17.5553395 40.56,16.2 C39.170081,15.8255567 37.7392724,15.6240344 36.3,15.6 C34.5162888,15.5399028 32.7306805,15.5699411 30.95,15.69 C30.3278449,14.1459344 29.5398951,12.673977 28.6,11.3 C26.86,8.69 23.21,4.12 18.3,2.89 C14.2,1.89 10.21,3.33 6.43,7.26 C4.04220607,9.70173503 2.53318971,12.8675036 2.14,16.26 C1.82453379,19.5568923 2.24112202,22.8827688 3.36,26 C4.9673475,31.1954253 7.92466713,35.8712341 11.93,39.55 C16.0876024,43.1727091 21.415503,45.1688959 26.93,45.1704069 L27.48,45.1704069 C30.7972581,45.1880517 34.0903754,44.605319 37.2,43.45 C40.5528194,42.2385053 43.5145162,40.1407808 45.77,37.38 C48.4160278,34.0065454 49.4371216,29.636703 48.56,25.44 L48.56,25.44 Z M27,43.14 C21.9485718,43.1476654 17.0661346,41.3211933 13.26,38 C9.51917213,34.5629889 6.75838203,30.1940385 5.26,25.34 C4.22726581,22.5009585 3.84121421,19.4672079 4.13,16.46 C4.47649638,13.5140732 5.79209197,10.7668001 7.87,8.65 C10.46,5.95 13.12,4.58998474 15.79,4.58998474 C16.4645403,4.58868238 17.1365391,4.67268222 17.79,4.84 C22.03,5.9 25.32,10.04 26.9,12.41 C27.88416,13.7600952 28.6532763,15.2544748 29.18,16.84 C29.2027222,17.1075558 29.3320916,17.3547321 29.5389889,17.5258925 C29.7458862,17.697053 30.0129256,17.777815 30.28,17.75 C32.2526667,17.5958585 34.232257,17.5491228 36.21,17.61 C37.46554,17.6272119 38.7144746,17.7950795 39.93,18.11 C43.4010738,19.2513196 45.95144,22.2254626 46.55,25.83 C47.3205631,29.4292267 46.4603265,33.1849829 44.2,36.09 C42.1667732,38.5668507 39.5032778,40.4496068 36.49,41.54 C33.4572134,42.6720311 30.2363024,43.2150719 27,43.14 Z"/>
        <path id="Path" fill="#3C454E" d="M35 27.12C35.4261741 27.3277791 35.6848192 27.7722166 35.6549392 28.2454012 35.6250593 28.7185859 35.3125622 29.1269577 34.8636365 29.2794773 34.4147108 29.4319969 33.9181199 29.2985076 33.6061727 28.9414565 33.2942255 28.5844055 33.2286014 28.0743903 33.44 27.65 33.7263763 27.0750892 34.4226728 26.8385269 35 27.12L35 27.12zM19.56 21.26C19.98304 21.4722902 20.2365007 21.9185521 20.2021527 22.3906222 20.1678048 22.8626923 19.8524153 23.2675645 19.403101 23.416382 18.9537867 23.5651995 18.4590705 23.4286426 18.1497177 23.0704096 17.8403649 22.7121767 17.7773236 22.202846 17.99 21.78 18.2801581 21.203104 18.9828392 20.9703688 19.56 21.26zM26.4 20.27C26.8362227 20.4076668 27.1522108 20.786927 27.2088702 21.2408345 27.2655297 21.6947421 27.0524678 22.1400414 26.663472 22.3807168 26.2744763 22.6213922 25.7808962 22.6132991 25.4 22.36 24.9146794 22.0372577 24.7409116 21.4065289 24.9924687 20.8807745 25.2440258 20.3550201 25.8441849 20.0945912 26.4 20.27z"/>
      </g>
    </g>
  </g>
</svg>
