<svg xmlns="http://www.w3.org/2000/svg" width="64" height="64" viewBox="0 0 64 64" style="background:#fff">
  <g id="Leinsamen" fill="none" fill-rule="evenodd" stroke="none" stroke-width="1">
    <rect width="64" height="64" fill="#FFF"/>
    <g transform="translate(2 9)">
      <rect id="Rectangle" width="60" height="60" x="0" y="0"/>
      <rect id="Rectangle" width="60" height="60" x="0" y="0"/>
      <g id="Group" fill="#C17953" fill-rule="nonzero" opacity=".5" transform="translate(12 10)">
        <path id="Path" d="M31.59,11.9 C28.66,7.68 22.88,-0.19 16.9,0.23 C10.92,0.65 5.61,9.08 2.9,13.49 C-0.5,18.99 -0.21,27.55 6.35,30.8 C11.69,33.44 20.22,33.85 25.94,32.2 C28.8730246,31.3944818 31.2374297,29.2236973 32.29,26.37 C35.29,22.19 34.47,16.05 31.59,11.9 Z"/>
      </g>
      <path id="Shape" fill="#3D454C" fill-rule="nonzero" d="M53.61,32.88 C53.61,27.67 48.61,22.99 40.61,20.65 C38.7161772,18.2179073 36.5746692,15.9892644 34.22,14 L33.27,13.14 C31.3030016,11.2909122 28.2369984,11.2909122 26.27,13.14 C23.7246194,15.3716515 21.3821147,17.8245884 19.27,20.47 C19.1900767,20.4650468 19.1099233,20.4650468 19.03,20.47 C10.72,22.77 5.56,27.47 5.56,32.83 C5.65770963,34.5877529 6.16083262,36.2990556 7.03,37.83 L7.03,37.89 L11.7,45.21 C13.0880859,47.9215904 15.552128,49.9247587 18.49,50.73 C22.0832191,51.6540009 25.7799065,52.1144065 29.49,52.1003279 C33.2000935,52.1144065 36.8967809,51.6540009 40.49,50.73 C43.403403,49.9377201 45.8515915,47.9610345 47.24,45.28 L52,37.86 L52,37.86 C53.0276033,36.4008477 53.5889337,34.6645588 53.61,32.88 Z M45.61,44.34 C44.4845182,46.5514279 42.481422,48.1880155 40.09,48.85 C33.1930342,50.5485165 25.9869658,50.5485165 19.09,48.85 C16.6705391,48.1665433 14.6472491,46.5022241 13.51,44.26 L8.85,36.92 C8.14734064,35.6941658 7.72393433,34.328339 7.61,32.92 C7.61,29.04 11.4,25.36 17.44,23.18 C15.6188292,25.9168462 14.266944,28.9383096 13.44,32.12 C13.3768613,32.3786349 13.4194619,32.6517704 13.5583635,32.8788934 C13.6972652,33.1060164 13.9210001,33.2683754 14.18,33.33 C14.715421,33.4552036 15.2514792,33.1246344 15.38,32.59 C17.53,23.85 24.38,17.67 27.63,14.7 C28.8257167,13.5810497 30.6842833,13.5810497 31.88,14.7 L32.88,15.56 C36.59,18.86 41.67,23.38 44.16,32.62 C44.2806641,33.0692179 44.6951312,33.3759235 45.16,33.36 C45.2460563,33.3745462 45.3339437,33.3745462 45.42,33.36 C45.9522768,33.2182783 46.2697247,32.6728045 46.13,32.14 C45.3214505,29.0866953 44.0823534,26.1640423 42.45,23.46 C48.17,25.66 51.63,29.18 51.63,32.96 C51.6093444,34.3567461 51.1627746,35.7138998 50.35,36.85 C50.35,36.85 50.35,36.85 50.35,36.85 L50.35,36.85 L45.61,44.34 Z"/>
      <path id="Path" fill="#3D454C" fill-rule="nonzero" d="M46.64 27.33C46.2322528 27.7004771 46.2009523 28.3309586 46.57 28.74 47.6116861 29.780807 48.2193038 31.1783278 48.27 32.65 48.27 37.8 39.72 42.15 29.61 42.15 19.5 42.15 10.94 37.8 10.94 32.65 10.9903676 31.1762544 11.6021048 29.7774867 12.65 28.74 13.0227922 28.3313093 12.9936907 27.6977922 12.585 27.325 12.1763093 26.9522078 11.5427922 26.9813093 11.17 27.39 9.79153886 28.8004416 8.9952882 30.6785934 8.94 32.65 8.94 39.1 18.02 44.15 29.61 44.15 41.2 44.15 50.27 39.15 50.27 32.65 50.2158878 30.6832353 49.4233231 28.8089269 48.05 27.4 47.6795229 26.9922528 47.0490414 26.9609523 46.64 27.33zM27.14 23.35C27.6922847 23.35 28.14 22.9022847 28.14 22.35 28.14 21.7977153 27.6922847 21.35 27.14 21.35 26.5877153 21.35 26.14 21.7977153 26.14 22.35 26.14 22.9022847 26.5877153 23.35 27.14 23.35z"/>
      <path id="Path" fill="#3D454C" fill-rule="nonzero" d="M37 29.21C37.5522847 29.21 38 28.7622847 38 28.21 38 27.6577153 37.5522847 27.21 37 27.21 36.4477153 27.21 36 27.6577153 36 28.21 36 28.7622847 36.4477153 29.21 37 29.21zM21.81 32.81C22.3622847 32.81 22.81 32.3622847 22.81 31.81 22.81 31.2577153 22.3622847 30.81 21.81 30.81 21.2577153 30.81 20.81 31.2577153 20.81 31.81 20.81 32.3622847 21.2577153 32.81 21.81 32.81zM28 28.18L28.54 28.97C28.673628 29.1997442 28.8932172 29.3668418 29.1502702 29.4343886 29.4073232 29.5019353 29.6806913 29.4643739 29.91 29.33 30.3796575 29.0666572 30.55648 28.4787225 30.31 28L29.77 27.21C29.636372 26.9802558 29.4167828 26.8131582 29.1597298 26.7456114 28.9026768 26.6780647 28.6293087 26.7156261 28.4 26.85 27.9303425 27.1133428 27.75352 27.7012775 28 28.18zM33.73 36.75C33.9593087 36.8843739 34.2326768 36.9219353 34.4897298 36.8543886 34.7467828 36.7868418 34.966372 36.6197442 35.1 36.39L35.64 35.59C35.9130821 35.1146268 35.7525074 34.5080112 35.28 34.23 34.8072238 33.9551879 34.2013806 34.1111034 33.92 34.58L33.37 35.38C33.2356261 35.6093087 33.1980647 35.8826768 33.2656114 36.1397298 33.3331582 36.3967828 33.5002558 36.616372 33.73 36.75L33.73 36.75zM24.77 38.75C25.1593608 39.1421221 25.7928778 39.1443607 26.185 38.755 26.5771221 38.3656392 26.5793607 37.7321222 26.19 37.34L25.12 36.27C24.7278778 35.8806393 24.0943607 35.8828778 23.705 36.275 23.3156393 36.6671222 23.3178778 37.3006393 23.71 37.69L24.77 38.75z"/>
    </g>
  </g>
</svg>
