<svg xmlns="http://www.w3.org/2000/svg" width="64" height="64" viewBox="0 0 64 64" style="background:#fff">
  <g id="Liebstöckel" fill="none" fill-rule="evenodd" stroke="none" stroke-width="1">
    <rect width="64" height="64" fill="#FFF"/>
    <g transform="translate(2 4)">
      <rect id="Rectangle" width="60" height="60" x="0" y="0"/>
      <rect id="Rectangle" width="60" height="60" x="0" y="0"/>
      <g id="Group" fill="#31E085" fill-rule="nonzero" opacity=".5" transform="translate(5 5)">
        <path id="Path" d="M43.63,22.94 C41.2487737,19.8742802 37.5918049,18.0716011 33.71,18.05 C33.5616335,18.0290106 33.4146918,17.9989543 33.27,17.96 C33.2,17.25 32.69,15.9 32.58,15.21 C32.13,12.15 31.71,9.09 31.29,6.02 C31,3.56 28.86,0 26,0.14 C19.66,0.41 16.6,7.05 16.37,12.68 C16.2530972,14.3722594 16.3201564,16.0722079 16.57,17.75 L16.47,17.75 C14.54,16.31 11.47,17.03 9.87,18.57 C8.29667172,20.0854339 7.34169019,22.1308048 7.19,24.31 L4.66,25.19 C-2,27.41 -1,43.81 6.72,43.58 L8.31,43.58 C8.91854127,45.2440319 10.1946437,46.578139 11.83,47.26 C15.66,48.79 18.91,46.85 21.19,43.93 C23.0478375,44.2265114 24.9518092,43.9763545 26.67,43.21 C27.4973515,42.8994543 28.0908911,42.1642311 28.22,41.29 C29.1132633,41.9632906 29.9494348,42.7091555 30.72,43.52 C31.59,44.52 32.39,45.65 33.16,46.69 C35.28,50.3 39.6,49.63 41.69,46.48 C43.3748058,43.620196 43.8259426,40.198774 42.94,37 C46.32,34.08 46,25.79 43.63,22.94 Z"/>
      </g>
      <path id="Path" fill="#3D454C" fill-rule="nonzero" d="M24 47.83C23.7613838 47.7128106 23.4859259 47.6954558 23.2344883 47.7817702 22.9830506 47.8680846 22.7763297 48.0509635 22.66 48.29 21.6131713 50.3473326 19.9951748 52.0590757 18 53.22 17.5986846 52.8242547 17.3597247 52.2928364 17.33 51.73 17.3306815 51.4521975 17.215771 51.1866312 17.0128077 50.9969458 16.8098443 50.8072604 16.5371218 50.7105529 16.26 50.73 15.5679938 50.7207565 14.878351 50.6471054 14.2 50.51 15.1099081 49.7579469 16.1194766 49.1353797 17.2 48.66 17.9095083 48.3314558 18.431748 47.6988837 18.62 46.94 18.8225312 46.1574619 18.6568304 45.3252758 18.17 44.68 16.98 43.23 14.67 43.57 12.43 43.89 10.19 44.21 8.43 44.39 7.9 43.56 8.18582033 43.1317724 8.52150638 42.7390197 8.9 42.39 9.15926405 42.163663 9.28392178 41.8199099 9.23 41.48 9.17543362 41.1342666 8.94407634 40.8422255 8.62 40.71 7.62513127 40.0443301 6.84653802 39.1023713 6.38 38 7.483235 37.6585981 8.65860695 37.6240283 9.78 37.9 10.1021205 38.0377745 10.4728513 37.9969266 10.7572479 37.7923246 11.0416446 37.5877227 11.1982271 37.2492086 11.17 36.9 11.1292289 36.3654252 11.1561081 35.8278417 11.25 35.3 12.75 34.91 15.7 36.65 16.95 37.6L17.04 37.66C19.52 39.56 20.14 39.4 20.65 39.02 21.0780812 38.6826665 21.2222794 38.0976336 21 37.6 20.6200427 36.6735584 20.377481 35.6965737 20.28 34.7 20.7932024 34.9431135 21.268202 35.2597799 21.69 35.64 21.8731186 35.8543518 22.1382093 35.9814501 22.42 35.99 22.6994695 36.0078357 22.9718473 35.8974123 23.16 35.69 23.4388538 35.4015289 23.7325874 35.1278226 24.04 34.87 24.6673079 36.1761836 25.0082538 37.6013375 25.04 39.05 25.04 39.6022847 25.4877153 40.05 26.04 40.05 26.5922847 40.05 27.04 39.6022847 27.04 39.05 27.0131666 36.8611377 26.3983785 34.7197413 25.26 32.85 24.9880892 32.4331924 24.4510679 32.2797578 24 32.49 23.414106 32.794342 22.8752151 33.1816699 22.4 33.64 21.5675614 33.0974245 20.6872252 32.6321518 19.77 32.25 19.5035743 32.1266988 19.1964257 32.1266988 18.93 32.25 18.6681653 32.3829747 18.4780152 32.624319 18.41 32.91 18.1928653 34.0096004 18.2236111 35.1437782 18.5 36.23 18.4009144 36.147768 18.2974281 36.0709879 18.19 36L18.09 36C17.31 35.42 13.03 32.37 10.26 33.58 9.52730364 34.0638058 9.11104261 34.9039657 9.17 35.78 7.56567991 35.6713086 5.95909839 35.9562365 4.49 36.61 4.20602517 36.8060996 4.03169096 37.1250941 4.01989864 37.47 4.01813798 37.5967923 4.04194901 37.7226507 4.09 37.84 4.67738954 39.3306385 5.55426907 40.6901417 6.67 41.84 5.98751753 42.4221509 5.68665478 43.3363108 5.89 44.21 6.97 46.74 10.13 46.28 12.66 45.92 14.18 45.69 16.09 45.42 16.53 45.92 16.6414709 46.0763881 16.6780779 46.2740658 16.63 46.46 16.5828536 46.6402109 16.4583736 46.790319 16.29 46.87 14.3644757 47.6736768 12.6872017 48.974772 11.43 50.64 11.2548529 50.9152553 11.224993 51.2586444 11.35 51.56 11.4763009 51.8606752 11.7412853 52.0808735 12.06 52.15 13.1792529 52.3991607 14.3108084 52.5894222 15.45 52.72 15.7075048 53.8285191 16.4386937 54.7680968 17.45 55.29 17.719234 55.4164089 18.030766 55.4164089 18.3 55.29 20.9577372 53.9719836 23.1133194 51.8234228 24.44 49.17 24.6869243 48.6783464 24.490313 48.0795756 24 47.83zM56 37.44C55.988309 37.0950941 55.8139748 36.7760996 55.53 36.58 54.0612606 35.9250648 52.4543859 35.6400849 50.85 35.75 50.9089574 34.8739657 50.4926964 34.0338058 49.76 33.55 47 32.35 42.77 35.36 42 36L41.89 36.08 41.59 36.31C41.8516562 35.2239931 41.8687344 34.0934147 41.64 33 41.5719848 32.714319 41.3818347 32.4729747 41.12 32.34 40.8535743 32.2166988 40.5464257 32.2166988 40.28 32.34 39.3627748 32.7221518 38.4824386 33.1874245 37.65 33.73 37.1766363 33.2694555 36.6374028 32.8818814 36.05 32.58 35.609584 32.392564 35.0981048 32.5434923 34.83 32.94 33.6916215 34.8097413 33.0768334 36.9511377 33.05 39.14 33.05 39.6922847 33.4977153 40.14 34.05 40.14 34.6022847 40.14 35.05 39.6922847 35.05 39.14 35.0817462 37.6913375 35.4226921 36.2661836 36.05 34.96 36.3574126 35.2178226 36.6511462 35.4915289 36.93 35.78 37.1190011 35.986194 37.39077 36.0963705 37.67 36.08 37.9517907 36.0714501 38.2168814 35.9443518 38.4 35.73 38.821798 35.3497799 39.2967976 35.0331135 39.81 34.79 39.712519 35.7865737 39.4699573 36.7635584 39.09 37.69 38.910261 38.1467485 39.0294009 38.666993 39.39 39 39.9 39.38 40.52 39.54 42.99 37.64L43.09 37.58C44.34 36.58 47.31 34.88 48.79 35.28 48.8842121 35.8078053 48.9110933 36.3454294 48.87 36.88 48.8417729 37.2292086 48.9983554 37.5677227 49.2827521 37.7723246 49.5671487 37.9769266 49.9378795 38.0177745 50.26 37.88 51.381393 37.6040283 52.556765 37.6385981 53.66 37.98 53.1938285 39.0799261 52.4149445 40.0187596 51.42 40.68 51.0959237 40.8122255 50.8645664 41.1042666 50.81 41.45 50.7560782 41.7899099 50.8807359 42.133663 51.14 42.36 51.5392143 42.7058353 51.8951324 43.0986883 52.2 43.53 51.63 44.36 49.95 44.19 47.67 43.86 45.39 43.53 43.12 43.2 41.89 44.7 41.4308955 45.3387893 41.2805775 46.1490405 41.48 46.91 41.668252 47.6688837 42.1904917 48.3014558 42.9 48.63 43.9784854 49.109252 44.9875468 49.7315065 45.9 50.48 45.221649 50.6171054 44.5320062 50.6907565 43.84 50.7 43.5628782 50.6805529 43.2901557 50.7772604 43.0871923 50.9669458 42.884229 51.1566312 42.7693185 51.4221975 42.77 51.7 42.7422067 52.2633026 42.5029458 52.7953902 42.1 53.19 40.0897791 52.0386458 38.4596822 50.3251324 37.41 48.26 37.1669947 47.7629438 36.5670563 47.5569948 36.07 47.8 35.5729438 48.0430053 35.3669947 48.6429437 35.61 49.14 36.9366806 51.7934228 39.0922628 53.9419836 41.75 55.26 42.019234 55.3864089 42.330766 55.3864089 42.6 55.26 43.6113063 54.7380968 44.3424952 53.7985191 44.6 52.69 45.7423675 52.5630712 46.8772684 52.3761463 48 52.13 48.3149411 52.0579568 48.5756737 51.8381965 48.7 51.54 48.8279891 51.2402506 48.8018673 50.8969343 48.63 50.62 47.3727983 48.954772 45.6955243 47.6536768 43.77 46.85 43.6016264 46.770319 43.4771464 46.6202109 43.43 46.44 43.3817358 46.2742035 43.4072433 46.0956506 43.5 45.95 43.97 45.37 45.87 45.65 47.4 45.87 49.93 46.23 53.08 46.69 54.16 44.16 54.3728872 43.2879266 54.0747948 42.3704214 53.39 41.79 54.5084629 40.6423156 55.3857176 39.2822308 55.97 37.79 56.0019043 37.676255 56.012082 37.5575153 56 37.44L56 37.44z"/>
      <path id="Path" fill="#3D454C" fill-rule="nonzero" d="M36.67 44.87C37.2066 44.7595093 37.5543932 44.2378195 37.45 43.7 37.3441955 43.159337 36.82103 42.8060885 36.28 42.91 34.3512456 43.3592791 32.5472797 44.2339293 31 45.47L31 36.64C31 36.0877153 30.5522847 35.64 30 35.64 29.4477153 35.64 29 36.0877153 29 36.64L29 45.47C27.4585668 44.2365843 25.6617089 43.3620679 23.74 42.91 23.1877153 42.8023045 22.6526956 43.1627153 22.545 43.715 22.4373045 44.2672847 22.7977153 44.8023045 23.35 44.91 25.5313198 45.4348327 27.501682 46.6100753 29 48.28L29 54.38C29 54.9322847 29.4477153 55.38 30 55.38 30.5522847 55.38 31 54.9322847 31 54.38L31 48.28C32.4981757 46.5918889 34.4765649 45.402064 36.67 44.87zM10.67 31.92C10.9168077 31.8220649 11.1145322 31.6299921 11.2195816 31.3861274 11.3246309 31.1422628 11.3283792 30.866631 11.23 30.62 11.1368836 30.3855689 11.0600348 30.1449989 11 29.9 11.9490846 29.6692812 12.9233431 29.5584173 13.9 29.57 14.2455015 29.5706914 14.5668845 29.3929855 14.75 29.1 14.9286328 28.7905989 14.9286328 28.4094011 14.75 28.1 14.3084225 26.7777733 14.0789162 25.3939851 14.07 24 15.5290925 24.2956 16.8784963 24.9876019 17.97 26 18.21 26.22 18.47 26.48 18.73 26.74 20.03 28.04 22.19 30.22 24.19 28.45 24.7705675 27.9899132 25.1329834 27.3085713 25.19 26.57 25.25 25.02 23.9 23.57 22.46 22.07 21.02 20.57 19.46 18.91 19.68 17.51 20.22 17.27 22.28 17.58 24.05 18.17 24.4441398 18.3005282 24.8779365 18.1739315 25.1400038 17.8518996 25.4020711 17.5298678 25.4378875 17.0793975 25.23 16.72 24.2547409 15.0877703 23.4600601 13.3542261 22.86 11.55 23.7908271 11.7220754 24.6907471 12.0321603 25.53 12.47 25.8317748 12.6312815 26.1950617 12.6270705 26.4930169 12.4588372 26.7909722 12.290604 26.9822256 11.9817073 27 11.64 27 8.64 29.25 5.41 30 5.38 30.75 5.35 33 8.61 33 11.64 33.0010489 11.9865932 33.1814922 12.3079286 33.4768822 12.4892369 33.7722721 12.6705453 34.1404818 12.6859692 34.45 12.53 35.2919987 12.0985741 36.1909608 11.7888193 37.12 11.61 36.5255653 13.4164382 35.7306066 15.1505884 34.75 16.78 34.5137035 17.1521341 34.5489544 17.6351022 34.8367814 17.9689816 35.1246084 18.3028609 35.5971116 18.4088874 36 18.23 37.77 17.64 39.83 17.33 40.37 17.57 40.56 18.97 38.98 20.65 37.59 22.13 36.2 23.61 34.8 25.08 34.86 26.63 34.9170166 27.3685713 35.2794325 28.0499132 35.86 28.51 37.86 30.28 40.02 28.11 41.32 26.8 41.58 26.54 41.84 26.28 42.08 26.06 43.1715037 25.0476019 44.5209075 24.3556 45.98 24.06 45.9760682 25.4544072 45.7464312 26.8389829 45.3 28.16 45.1213672 28.4694011 45.1213672 28.8505989 45.3 29.16 45.4831155 29.4529855 45.8044985 29.6306914 46.15 29.63 47.1266569 29.6184173 48.1009154 29.7292812 49.05 29.96 48.9867046 30.2052489 48.9065131 30.4458236 48.81 30.68 48.7116208 30.926631 48.7153691 31.2022628 48.8204184 31.4461274 48.9254678 31.6899921 49.1231923 31.8820649 49.37 31.98 49.4877876 32.0265537 49.6133466 32.0503081 49.74 32.050003 50.1498038 32.0503967 50.5183727 31.800721 50.67 31.42 50.9202382 30.8144406 51.0916412 30.1792412 51.18 29.53 51.207274 29.2334553 51.1009631 28.9401838 50.89 28.73 49.8964858 28.0440941 48.717283 27.6777737 47.51 27.68 47.8253124 26.1160487 47.9894019 24.525385 48 22.93 48 22.3777153 47.5522847 21.93 47 21.93 44.6508501 21.9921905 42.4116871 22.9385672 40.73 24.58 40.46 24.82 40.18 25.1 39.89 25.39 38.48 26.81 37.67 27.46 37.18 27.02 37.0159541 26.9102683 36.90675 26.7355416 36.88 26.54 36.88 25.84 38.02 24.59 39.06 23.54 40.82 21.67 42.82 19.54 42.33 17.12 42.2316654 16.6027931 41.9044444 16.1579196 41.44 15.91 40.2390582 15.4560508 38.9233629 15.403423 37.69 15.76 39.96 11.29 39.19 10.52 38.83 10.16 37.98 9.31 36.34 9.67 34.96 10.16 34.36 7 32.18 3.38 30 3.38 27.82 3.38 25.68 7 25.12 10.16 23.74 9.62 22.12 9.27 21.25 10.16 20.89 10.52 20.12 11.29 22.39 15.76 21.1566371 15.403423 19.8409418 15.4560508 18.64 15.91 18.1755556 16.1579196 17.8483346 16.6027931 17.75 17.12 17.26 19.56 19.26 21.67 21.02 23.54 22.02 24.63 23.23 25.88 23.2 26.54 23.2 26.6 23.2 26.77 22.91 27.02 22.41 27.45 21.6 26.81 20.19 25.39 19.9 25.1 19.62 24.82 19.35 24.58 17.6702725 22.9417132 15.4354544 21.995664 13.09 21.93 12.5377153 21.93 12.09 22.3777153 12.09 22.93 12.0861201 24.5038173 12.2334637 26.0743668 12.53 27.62 11.322717 27.6177737 10.1435142 27.9840941 9.15 28.67 8.93903692 28.8801838 8.83272602 29.1734553 8.86 29.47 8.94835879 30.1192412 9.1197618 30.7544406 9.37 31.36 9.46793511 31.6068077 9.66000795 31.8045322 9.90387256 31.9095816 10.1477372 32.0146309 10.423369 32.0183792 10.67 31.92z"/>
      <path id="Path" fill="#3D454C" fill-rule="nonzero" d="M30,33.85 C30.5522847,33.85 31,33.4022847 31,32.85 C31,32.2977153 30.5522847,31.85 30,31.85 C29.4477153,31.85 29,32.2977153 29,32.85 C29,33.4022847 29.4477153,33.85 30,33.85 Z"/>
    </g>
  </g>
</svg>
