<svg xmlns="http://www.w3.org/2000/svg" width="64" height="64" viewBox="0 0 64 64" style="background:#fff">
  <g id="Limette" fill="none" fill-rule="evenodd" stroke="none" stroke-width="1">
    <rect width="64" height="64" fill="#FFF"/>
    <g transform="translate(2 7)">
      <rect id="Rectangle" width="60" height="60" x="0" y="0"/>
      <path id="Shape" fill="#31E085" fill-rule="nonzero" d="M50.89,20.81 C50.3636187,20.1070173 49.7250775,19.4955044 49,19 C48.92,18.81 48.85,18.62 48.76,18.43 C47.4979878,15.7269487 45.5839504,13.3799333 43.19,11.6 C38.5086968,7.96852765 32.4675104,6.5789085 26.67,7.8 C21,9 16.25,12.7 13,17.37 C11.3228157,19.7904153 10.0370806,22.4597497 9.19,25.28 C8.58,27.13 8.4,31.5 7,33.06 C4.81298776,35.591146 3.84453984,38.9533049 4.35,42.26 C4.65,44.67 5.92,49.17 8.85,49.78 C20,52.09 33.26,58.39 44.35,53 C56.05,47.41 58.46,30.74 50.89,20.81 Z M42.47,47.86 C38.33,49.56 26.93,46.58 23.78,38.39 C23.52,37.72 23.16,37.14 22.98,36.52 C22.11,35.7 20.17,32.45 20.35,31.97 C20.2001517,31.3835549 20.1063966,30.7841917 20.07,30.18 C19.79,25.6 19.73,20.56 21.86,16.32 C24.36,11.32 30.44,9.82 35.49,11.21 C43.76,13.48 47.43,22.21 48.49,29.84 C49.35,36.16 49.49,45 42.47,47.86 Z" opacity=".5"/>
      <path id="Shape" fill="#3D454C" fill-rule="nonzero" d="M52.52,28.77 C52.34,27.87 52.12,26.97 51.86,26.11 C50.3049229,20.8234102 47.1631857,16.1422217 42.86,12.7 C38.7,9.47 34.05,8.14 29.78,8.94 L29.6,8.94 C22.9554977,10.2491882 17.0073268,13.9139717 12.85,19.26 C12.5186292,19.7018278 12.6081722,20.3286292 13.05,20.66 C13.2230962,20.7898221 13.4336298,20.86 13.65,20.86 C13.9647573,20.86 14.2611456,20.7118058 14.45,20.46 C16.4866377,17.8284948 19.0300654,15.6318982 21.93,14 C21.268835,14.8919148 20.7087375,15.8544776 20.26,16.87 C18.5829872,20.9342346 18.1819017,25.4124415 19.11,29.71 C19.29,30.61 19.51,31.5 19.77,32.37 C21.3197382,37.6590924 24.4624755,42.3417709 28.77,45.78 C31.6293472,48.1406467 35.1598593,49.540255 38.86,49.78 C33.4022703,51.8884424 27.3681473,51.9629815 21.86,49.99 C20.6126331,49.5071943 19.4166812,48.9008433 18.29,48.18 C16.58,47.12 15.72,46.7 11.5,46.93 C10.6815972,47.0164791 9.8856311,46.6282029 9.45,45.93 C8.84853013,44.8800367 8.84853013,43.5899633 9.45,42.54 C11.35,39 11.24,37.77 10.86,35.72 C10.7069674,34.9739627 10.6000979,34.2191962 10.54,33.46 C10.4129965,31.5709036 10.5680302,29.6734254 11,27.83 C11.0598468,27.5714017 11.0144271,27.2996194 10.8737478,27.0745326 C10.7330686,26.8494458 10.5086729,26.6895235 10.25,26.63 C9.9914017,26.5701532 9.7196194,26.6155729 9.4945326,26.7562522 C9.26944581,26.8969314 9.10952349,27.1213271 9.05,27.38 C8.58912252,29.3919554 8.42738359,31.4608659 8.57,33.52 C8.62044101,34.3524224 8.72398502,35.1807744 8.88,36 C9.19,37.67 9.33,38.43 7.68,41.52 C6.72762772,43.1998601 6.75053723,45.2617159 7.74,46.92 C8.5612607,48.2276307 10.0406213,48.9711636 11.58,48.85 C15.35,48.65 15.86,48.96 17.21,49.85 C18.4379942,50.6425303 19.7409268,51.3124185 21.1,51.85 C23.8589663,52.9125701 26.7935977,53.4452142 29.75,53.42 C35.954906,53.4522398 41.9845995,51.3635455 46.84,47.5 C46.8830052,47.4524801 46.9230793,47.4023875 46.96,47.35 C48.8883025,45.8740992 50.4065278,43.9289807 51.37,41.7 C53.0543249,37.6060159 53.4553606,33.0969801 52.52,28.77 L52.52,28.77 Z M49.52,40.77 C48.2943237,43.7800669 45.8309182,46.1159292 42.76,47.1799974 C42.3534397,47.3113741 41.9393621,47.4182328 41.52,47.5 C37.79,48.22 33.69,47.03 29.97,44.13 C25.9889051,40.9512747 23.0866603,36.6206086 21.66,31.73 C21.42,30.92 21.22,30.09 21.05,29.26 C20.2035682,25.3645052 20.5520868,21.3042635 22.05,17.61 C23.2833693,14.6015858 25.7487449,12.2673085 28.82,11.2 C29.2237259,11.0731999 29.6344024,10.9696961 30.05,10.89 C30.7681893,10.7498291 31.4982599,10.6795012 32.23,10.6799974 C35.6663716,10.7952686 38.9665707,12.0513145 41.61,14.25 C45.5866662,17.4350331 48.4849108,21.7684326 49.91,26.66 C50.1543854,27.4692716 50.3579751,28.2903057 50.52,29.12 C51.3846722,33.0226738 51.0429054,37.0959757 49.54,40.8 L49.52,40.77 Z"/>
      <path id="Shape" fill="#3D454C" fill-rule="nonzero" d="M46.33,26.45 C46.4501986,26.2537307 46.5506878,26.046053 46.63,25.83 C47.45,23.42 45.13,20.26 44.09,19.01 C41.65,16.08 39.61,14.83 38.02,15.29 C37.7338164,15.3696796 37.4679069,15.5094526 37.24,15.7 C36.9941131,15.1154275 36.6258505,14.5903123 36.16,14.16 C34.7057768,13.0082826 32.7957784,12.6048139 31,13.07 C28.64,13.53 27.05,14.59 26.51,16.07 C26.2538992,16.8324011 26.2538992,17.6575989 26.51,18.42 C26.2533353,18.4047378 25.9960008,18.4352116 25.75,18.51 C23.81,19.11 23.22,21.9 23.05,23.51 C22.83,25.51 22.75,29.13 24.64,30.92 C24.9333448,31.1901671 25.2718071,31.406783 25.64,31.56 C25.5123633,31.757142 25.4083175,31.9685898 25.33,32.19 C24.51,34.6 26.83,37.76 27.87,39.01 C29.98,41.54 31.79,42.82 33.27,42.82 C33.4963619,42.8202279 33.7217225,42.7899556 33.94,42.73 C34.2245821,42.6463265 34.4897114,42.5069637 34.72,42.32 C34.9657598,42.9017453 35.334141,43.4236188 35.8,43.85 C36.8051312,44.7026504 38.0928263,45.1485282 39.41,45.1 C39.924185,45.1001847 40.4369777,45.0465593 40.94,44.94 C43.3,44.48 44.94,43.43 45.43,41.94 C45.6860623,41.1810154 45.6860623,40.3589846 45.43,39.6 L45.48,39.6 C45.7240051,39.5977005 45.9664392,39.5606619 46.2,39.49 C48.13,38.89 48.72,36.1 48.89,34.49 C49.11,32.49 49.19,28.87 47.3,27.07 C47.0123371,26.8122183 46.6847455,26.6028299 46.33,26.45 Z M38.58,17.21 L38.7,17.21 C39.26,17.21 40.63,17.99 42.55,20.3 C44.19,22.3 45.06,24.23 44.73,25.19 C44.73,25.34 44.53,25.8 43.49,26.03 L40.49,26.7 L37.36,27.22 C37.2340362,27.2427013 37.1102498,27.276157 36.99,27.32 C36.9546463,27.2545972 36.9309587,27.1835345 36.92,27.11 C36.92,27.03 36.92,26.95 36.92,26.85 L37.11,24.68 L37.85,18.95 C38.05,17.77 38.36,17.28 38.58,17.21 Z M28.41,16.74 C28.69,15.98 29.81,15.35 31.41,15.04 C31.7947181,14.9591158 32.1868727,14.9188948 32.58,14.92 C33.3943141,14.8778887 34.1955178,15.1378348 34.83,15.65 C35.6122173,16.5175926 35.9319166,17.7071714 35.69,18.85 L35.18,24.47 L34.94,26.37 L34.94,26.37 L33.66,24.88 L29.6,19.88 C28.87,18.94 28.07,17.67 28.41,16.74 L28.41,16.74 Z M25.04,23.74 C25.25,21.74 25.85,20.59 26.34,20.44 C26.66,20.34 27.34,20.65 28.34,21.83 L32.08,26.19 L33.35,27.76 C33.5161825,27.9721132 33.7038465,28.1664795 33.91,28.34 C33.9984142,28.4485088 34.0754829,28.5657874 34.14,28.69 L31,29.39 L27.88,29.91 C27.2174606,30.0780045 26.5146649,29.9097821 26,29.46 C25.1,28.6 24.74,26.45 25,23.71 L25.04,23.74 Z M33.34,40.83 C32.88,40.95 31.45,40.25 29.34,37.75 C27.71,35.75 26.83,33.82 27.16,32.85 C27.16,32.7 27.36,32.25 28.4,32.02 L31.4,31.35 L34.55,30.83 C34.6729853,30.8039291 34.7934468,30.7671214 34.91,30.72 C34.9476457,30.7853093 34.9746505,30.856197 34.99,30.93 C34.9843695,31.0199119 34.9843695,31.1100881 34.99,31.2 L34.8,33.37 L34,39.07 C33.88,40.24 33.56,40.73 33.34,40.8 L33.34,40.83 Z M43.51,41.29 C43.23,42.05 42.12,42.69 40.51,43 C39.3355937,43.3051794 38.0864783,43.0823839 37.09,42.39 C36.309251,41.5216095 35.9897538,40.3327829 36.23,39.19 L36.74,33.57 L36.98,31.67 L36.98,31.67 L38.25,33.16 L42.32,38.16 C43.05,39.06 43.85,40.33 43.51,41.26 L43.51,41.29 Z M46.88,34.29 C46.66,36.36 46.05,37.45 45.59,37.6 C45.13,37.75 44.59,37.38 43.59,36.21 L39.8,31.83 L38.54,30.27 C38.3806151,30.0675058 38.1995359,29.8830733 38,29.72 C37.9042215,29.6055491 37.8204488,29.4815655 37.75,29.35 L40.87,28.65 L44,28.13 C44.6608058,27.9539092 45.3659674,28.1106117 45.89,28.55 C46.82,29.41 47.18,31.56 46.88,34.29 L46.88,34.29 Z"/>
      <path id="Path" fill="#3D454C" fill-rule="nonzero" d="M11.28,24.48 C11.8322847,24.48 12.28,24.0322847 12.28,23.48 C12.28,22.9277153 11.8322847,22.48 11.28,22.48 C10.7277153,22.48 10.28,22.9277153 10.28,23.48 C10.28,24.0322847 10.7277153,24.48 11.28,24.48 Z"/>
    </g>
  </g>
</svg>
