<svg xmlns="http://www.w3.org/2000/svg" width="64" height="64" viewBox="0 0 64 64" style="background:#fff">
  <g id="Limettensaft" fill="none" fill-rule="evenodd" stroke="none" stroke-width="1">
    <rect width="64" height="64" fill="#FFF"/>
    <g transform="translate(2 4)">
      <rect id="Rectangle" width="60" height="60" x="0" y="0"/>
      <path id="Path" fill="#BAB41D" fill-rule="nonzero" d="M49.58,29.84 C47.2602137,27.492799 44.1098365,26.1529008 40.81,26.11 C37.3,26.11 34.02,27.81 30.5,27.87 C23.3,28.01 16.84,24.24 9.9,27.92 C2.96,31.6 -0.65,40.36 3.05,47.5 C4.13,49.59 5.84,51.42 7.85,51.5 C8.26318341,51.8209333 8.70123037,52.1085061 9.16,52.36 C12,53.9 15.78,54.18 18.92,54.8 C23.03,55.62 27.2,56.27 31.37,56.68 C38.24,57.37 45.66,58.31 50.37,52.2 C55.08,46.09 55.39,35.54 49.58,29.84 Z" opacity=".5"/>
      <path id="Shape" fill="#3D454C" fill-rule="nonzero" d="M7.24,45.84 L7.24,45.84 C7.19673928,46.2339463 7.25170871,46.6324747 7.4,47 C7.92749559,48.1254165 9.01227273,48.8866636 10.25,49 L10.25,49 C10.5630029,49.0619149 10.8809656,49.0953846 11.2,49.1 C12.0490459,49.1288592 12.8776662,48.8359847 13.52,48.28 C13.7162609,48.1066409 13.8848742,47.904305 14.02,47.68 C14.0647534,47.7041984 14.1116126,47.724281 14.16,47.74 C14.3217033,47.7916254 14.4902615,47.8185948 14.66,47.82 C15.66,47.82 16.75,47.06 18.03,45.51 C18.81,44.57 20.03,42.76 19.53,41.25 L19.53,41.25 L19.8,41.03 C20.94,39.95 20.99,37.96 20.8,36.49 C20.63,34.6 20,33.5 19,33.19 L19,33.19 C19.0426587,32.8182132 18.9981499,32.4416003 18.87,32.09 C18.3441243,30.9632241 17.2584548,30.2013507 16.02,30.09 C14.8773925,29.8046436 13.6670903,30.0711322 12.75,30.81 C12.5541609,30.987561 12.3856699,31.19312 12.25,31.42 C12.210076,31.3908246 12.1663339,31.3672712 12.12,31.35 C11.03,31.03 9.76,31.76 8.25,33.58 C7.46,34.58 6.25,36.33 6.74,37.84 L6.74,37.84 C6.6444906,37.9026133 6.55419678,37.9728419 6.47,38.05 C5.32,39.14 5.28,41.12 5.47,42.59 C5.61,44.44 6.24,45.54 7.24,45.84 Z M7.82,39.58 C7.93800601,39.4686111 8.09852769,39.4138878 8.26,39.43 L8.51,39.43 L10.28,39.72 L11.28,39.95 L10.59,40.8 L8.51,43.29 C8.32388915,43.5381528 8.08909995,43.7457201 7.82,43.9 C7.57400452,43.4544796 7.43372506,42.9583693 7.41,42.45 C7.18297225,41.4757222 7.32925559,40.4517389 7.82,39.58 L7.82,39.58 Z M17.72,35.75 C17.9091336,35.5019372 18.1431945,35.2916216 18.41,35.13 C18.6670179,35.5751123 18.8112113,36.076356 18.83,36.59 C19.054007,37.5655204 18.9041453,38.5895751 18.41,39.46 C18.36,39.46 18.2,39.66 17.72,39.58 L16,39.29 L15,39.05 L15.68,38.21 L17.72,35.75 Z M12.18,46.75 C11.728624,47.0568736 11.1633513,47.1449681 10.64,46.99 C9.81,46.83 9.36,46.53 9.28,46.31 C9.2,46.09 9.33,45.66 9.88,44.98 L12.16,42.15 L12.23,42.07 L12.23,42.16 L12.52,45.31 C12.6065092,45.8036499 12.4832917,46.3110161 12.18,46.71 L12.18,46.75 Z M16.49,44.18 C16.0329173,44.8126553 15.446642,45.3409848 14.77,45.73 C14.7045697,45.5491618 14.6609285,45.361169 14.64,45.17 L14.23,41.95 L14.15,41.05 L15.6,41.29 L17.26,41.66 C17.47,41.71 17.62,41.78 17.64,41.85 C17.74,42.09 17.44,43 16.49,44.14 L16.49,44.18 Z M14.05,32.32 C14.320988,32.1082656 14.6561329,31.9953746 15,32 C15.189743,31.9860249 15.380257,31.9860249 15.57,32 L15.57,32 C16.39,32.17 16.84,32.46 16.93,32.69 C17.02,32.92 16.88,33.33 16.33,34.01 L14.04,36.85 L14,37 L14,36.91 L13.71,33.75 C13.6159748,33.2466994 13.7395106,32.7271223 14.05,32.32 Z M9.74,34.89 C10.2054258,34.2612133 10.7940593,33.7338249 11.47,33.34 C11.5350426,33.5243877 11.5786626,33.7156444 11.6,33.91 L12,37.13 L12.08,38.02 L10.64,37.78 L9,37.41 C8.85415999,37.3930222 8.71753786,37.3299658 8.61,37.23 C8.5,37 8.79,36 9.74,34.89 Z"/>
      <path id="Shape" fill="#3D454C" fill-rule="nonzero" d="M32.13,51.59 C32.850685,50.3847985 32.8735577,48.8866403 32.19,47.66 C31.19,45.72 31.19,45.28 31.42,44.22 C31.5312382,43.6619142 31.6080498,43.0975156 31.65,42.53 C32.27,33.64 24.77,27.31 17.4,25.87 C17.4,25.87 17.32,25.87 17.27,25.87 C14.0603485,25.3954597 10.8019937,26.3285009 8.33,28.43 L8.33,28.43 C4.95505394,31.1833313 2.64582341,35.0273337 1.8,39.3 C1.17437115,42.2129744 1.44990742,45.2473612 2.59,48 C3.23955838,49.5298816 4.27286226,50.866288 5.59,51.88 C5.60993113,51.9155899 5.63338184,51.949091 5.66,51.98 C8.94864198,54.5919628 13.0303593,56.0031011 17.23,55.98 C19.2294659,55.9995458 21.2145123,55.6398622 23.08,54.92 C24.0006375,54.5624042 24.8847147,54.1170168 25.72,53.59 C26.58,53.06 26.87,52.88 29.26,53.01 C30.4064316,53.1079267 31.512326,52.5607594 32.13,51.59 L32.13,51.59 Z M4.41,47.21 C3.43665293,44.823531 3.21001049,42.1979655 3.76,39.68 C3.87,39.14 4,38.6 4.16,38.08 C5.08474193,34.8947332 6.97068449,32.0728043 9.56,30 L9.56,30 C11.2490323,28.5882071 13.3600565,27.7789811 15.56,27.7 C16.0228796,27.7036256 16.4845865,27.7471197 16.94,27.83 C17.21,27.89 17.47,27.95 17.72,28.03 C19.6734844,28.7006138 21.2367387,30.1908188 22,32.11 C22.9727298,34.4966179 23.1993558,37.1219936 22.65,39.64 C22.54,40.18 22.41,40.72 22.25,41.25 C21.3230705,44.4261523 19.4412527,47.2401507 16.86,49.31 C14.8222993,51.067761 12.1242735,51.8589388 9.46,51.48 C9.19550036,51.4323075 8.93481442,51.3654649 8.68,51.28 C6.735173,50.6044911 5.17795582,49.1202115 4.41,47.21 L4.41,47.21 Z M24.68,51.91 C23.947981,52.377028 23.170712,52.7690128 22.36,53.08 C19.289152,54.2019997 15.9409066,54.3175772 12.8,53.41 C14.7405095,52.999226 16.5565076,52.1357703 18.1,50.89 C21.0181752,48.5683372 23.14565,45.3998321 24.19,41.82 C24.36,41.23 24.51,40.63 24.63,40.03 C25.2580324,37.1080316 24.9860883,34.0643494 23.85,31.3 C23.74,31.05 23.61,30.82 23.49,30.59 C27.26,33.19 30.01,37.31 29.66,42.4 C29.6218285,42.8901469 29.555048,43.3776444 29.46,43.86 C29.2,45.25 29.11,46.16 30.46,48.61 C30.7994023,49.197862 30.7994023,49.922138 30.46,50.51 C30.2426151,50.8746297 29.8317799,51.078091 29.41,51.03 C26.48,50.87 25.85,51.19 24.68,51.91 L24.68,51.91 Z"/>
      <path id="Shape" fill="#3D454C" fill-rule="nonzero" d="M57.76,18.48 C56.33,13.25 51.34,11.33 46.46,12.48 C44.73,10.33 38.79,10.9 36.72,10.68 C32.91,10.27 30.14,7.11 25.84,7.36 C23.8052984,7.44733149 21.843801,8.14413339 20.21,9.36 C19.88817,9.68024577 19.8224688,10.1771114 20.05,10.57 L23.63,16.14 C23.7,17.39 24.1,18.64 24.16,19.9 C24.2953293,21.6365559 24.105412,23.3831169 23.6,25.05 C23.18,26.27 25.11,26.79 25.53,25.58 C26.016531,23.9596428 26.2360682,22.2708951 26.18,20.58 C26.18,19.33 25.82,18.08 25.68,16.85 L29.32,16.85 C29.8722847,16.85 30.32,16.4022847 30.32,15.85 C30.32,15.2977153 29.8722847,14.85 29.32,14.85 L25.15,14.85 C24.22,13.38 23.29,11.85 22.32,10.44 C22.6910617,10.2261855 23.0751463,10.0358131 23.47,9.87 C25.6825588,9.13374582 28.0886237,9.23696458 30.23,10.16 C30.7,10.34 31.1,10.53 31.49,10.71 L27.83,10.71 C27.2777153,10.71 26.83,11.1577153 26.83,11.71 C26.83,12.2622847 27.2777153,12.71 27.83,12.71 L36.7,12.71 C36.7498375,12.7157003 36.8001625,12.7157003 36.85,12.71 L37.15,12.71 C37.89,12.71 45.56,11.93 44.63,14.87 L40.63,14.87 C40.0777153,14.87 39.63,15.3177153 39.63,15.87 C39.63,16.4222847 40.0777153,16.87 40.63,16.87 C41.77,16.87 43.03,16.75 44.2,16.82 C44.08,17.41 43.98,18.01 43.91,18.61 C43.768153,19.8113684 43.7413647,21.0235381 43.83,22.23 C44.24,27.52 47.94,30.91 49.35,35.83 C51.35,42.94 48.85,50.95 41.95,54.33 C39.26,55.64 32.26,56.26 29.59,55.04 C28.43,54.51 27.41,56.23 28.59,56.76 C31.52,58.1 37.53,57.76 40.59,57 C44.68,56 48.39,52.49 50.29,48.84 C51.6305193,46.1760592 52.2510493,43.2078576 52.09,40.23 C55.49,34.15 59.67,25.51 57.76,18.48 Z M55.76,25.32 C54.921418,29.3017053 53.5278086,33.1459128 51.62,36.74 C51.4726374,35.9887462 51.278934,35.2473297 51.04,34.52 C53.15,30.18 56.15,23.52 53.85,18.87 C52.531812,16.106277 49.3837446,14.7303288 46.46,15.64 C46.6428537,15.255655 46.7739941,14.8487835 46.85,14.43 C53.76,12.81 57,18.94 55.78,25.32 L55.76,25.32 Z M46.28,18 C47.288682,17.534227 48.4068806,17.3576694 49.51,17.49 C50.3225572,17.7742877 51.0023072,18.3472707 51.42,19.1 C52.88,21.02 52.71,23.02 52.23,25.32 C51.7253057,27.6193499 50.977778,29.8585807 50,32 C49.22,30.49 48.27,29.1 47.45,27.57 C45.7,24.28 46.09,21.31 46.28,18 Z"/>
      <path id="Path" fill="#3D454C" fill-rule="nonzero" d="M43.38 48.67C46.1497466 45.2387129 46.8354171 40.5730886 45.17 36.49 44.72 35.3 42.78 35.81 43.24 37.02 44.51 40.38 44.39 44.46 41.97 47.25 41.13 48.22 42.54 49.64 43.38 48.67zM43 32.23C42.5038215 31.9885295 41.9058257 32.1946141 41.6637599 32.6905025 41.4216942 33.1863908 41.6270611 33.7846335 42.1226586 34.0272942 42.6182561 34.2699548 43.2167448 34.065306 43.46 33.57 43.5771894 33.3313838 43.5945442 33.0559259 43.5082298 32.8044883 43.4219154 32.5530506 43.2390365 32.3463297 43 32.23z"/>
    </g>
  </g>
</svg>
