<svg xmlns="http://www.w3.org/2000/svg" width="64" height="64" viewBox="0 0 64 64" style="background:#fff">
  <g id="Linsenmehl" fill="none" fill-rule="evenodd" stroke="none" stroke-width="1">
    <rect width="64" height="64" fill="#FFF"/>
    <g transform="translate(2 4)">
      <rect id="Rectangle" width="60" height="60" x="0" y="0"/>
      <path id="Path" fill="#E0673A" fill-rule="nonzero" d="M33.34 31.09C32.9758947 30.0636334 32.2211382 29.2226191 31.24 28.75L31.05 28.68C28.05 27.61 26.75 31.68 26.8 33.87 26.86 36.19 28.35 39.87 31.3 38.87L31.49 38.8 32.29 38.26C32.7035896 37.8850095 33.019396 37.4147327 33.21 36.89 33.6866 35.9069981 33.9132995 34.8215885 33.87 33.73 33.8330486 32.82763 33.6541901 31.9367122 33.34 31.09L33.34 31.09zM26.18 43.72C25.6694046 42.9053266 24.7992755 42.3847366 23.84 42.32 22.8851133 42.4305847 22.0410481 42.9920553 21.57 43.83 20.3570171 46.022483 20.4220178 48.6989833 21.74 50.83 22.252857 51.6408551 23.1226065 52.1575012 24.08 52.22 25.0348867 52.1094153 25.8789519 51.5479447 26.35 50.71 27.5672582 48.5185676 27.5022014 45.8397598 26.18 43.71L26.18 43.72zM42.06 44.6C41.8622475 43.5201945 41.3748966 42.5143851 40.65 41.69 40.4475035 41.3744798 40.1548421 41.1271112 39.81 40.98 39.400217 40.6525662 38.8835968 40.4886729 38.36 40.52 37.9389923 40.4904179 37.5184951 40.5842479 37.15 40.79 36.0603672 41.3954412 35.2470017 42.3987114 34.88 43.59 34.1786145 45.5978974 34.221196 47.7908441 35 49.77 35.2874545 50.5355304 35.7537461 51.2212532 36.36 51.77L37.24 52.3C38.790198 52.7538893 40.4485646 52.0781049 41.24 50.67 42.2271205 48.808768 42.51788 46.656438 42.06 44.6zM39.79 9C36.79 6 33.59 3.29 29.05 4.31 26.2422519 5.00630162 23.8084686 6.75289907 22.25 9.19 20.03 11.19 19.32 16.24 22.1 18.06 24.66 19.73 26.87 19.39 29.82 19.33 32.77 19.27 35.46 19.33 38.25 19.09 42.79 18.62 42.17 11.31 39.79 9z" opacity=".5"/>
      <path id="Shape" fill="#3D454C" fill-rule="nonzero" d="M25.47 40.71C22.91 40.71 20.83 43.29 20.83 46.46 20.83 49.63 22.91 52.2 25.47 52.2 28.03 52.2 30.12 49.62 30.12 46.46 30.12 43.3 28 40.71 25.47 40.71zM25.47 50.2C24.04 50.2 22.83 48.49 22.83 46.46 22.83 44.43 24.04 42.71 25.47 42.71 26.9 42.71 28.12 44.43 28.12 46.46 28.12 48.49 26.91 50.2 25.47 50.2zM40.44 43.17C39.4458861 42.1459653 38.1419392 41.4781758 36.73 41.27 35.4078267 41.0467614 34.0579768 41.4620998 33.09 42.39 31.28 44.21 31.63 47.5 33.86 49.74 35.0113037 50.9387698 36.5884972 51.6357528 38.25 51.68 39.3660607 51.7169333 40.4491069 51.2981555 41.25 50.52 42.1860147 49.5524609 42.6056003 48.1971624 42.38 46.87 42.158101 45.4567905 41.4761975 44.1562529 40.44 43.17zM39.8 49.1C38.8 50.1 36.71 49.76 35.28 48.33 33.85 46.9 33.49 44.82 34.5 43.81 34.9188095 43.4104526 35.4816076 43.1975995 36.06 43.22L36.48 43.22C38.4593748 43.5710229 40.0089771 45.1206252 40.36 47.1 40.5004554 47.8177262 40.2927396 48.5595684 39.8 49.1L39.8 49.1zM33.87 30.76C31.63 28.52 28.33 28.17 26.52 29.99 24.71 31.81 25.06 35.1 27.3 37.34 28.4511296 38.5317947 30.0236717 39.2247185 31.68 39.27 32.7954718 39.3034757 33.8772166 38.8852011 34.68 38.11 36.46 36.3 36.11 33 33.87 30.76zM33.23 36.7C32.23 37.7 30.15 37.36 28.71 35.92 27.27 34.48 26.92 32.42 27.94 31.4 28.3579776 31.0066245 28.9164585 30.7976445 29.49 30.82 30.6276717 30.8620492 31.704023 31.3464073 32.49 32.17 33.89 33.61 34.25 35.68 33.23 36.7z"/>
      <path id="Path" fill="#3D454C" fill-rule="nonzero" d="M25.11,43.78 C24.5577153,43.78 24.11,44.2277153 24.11,44.78 C24.11,45.3322847 24.5577153,45.78 25.11,45.78 C25.6622847,45.78 26.11,45.3322847 26.11,44.78 C26.11,44.2277153 25.6622847,43.78 25.11,43.78 Z"/>
      <path id="Shape" fill="#3D454C" fill-rule="nonzero" d="M46.47,36.17 C46.6552383,35.5394553 46.8021732,34.8982849 46.91,34.25 C47.0556867,33.3640859 47.1292614,32.4678128 47.13,31.57 C47.1249764,29.1465885 46.578315,26.7549449 45.53,24.57 C47.5438321,23.5935796 48.6130943,21.352788 48.1052978,19.1730955 C47.5975013,16.993403 45.6480164,15.4558799 43.41,15.47 L41.77,15.47 L37.71,9.35 C37.0417617,8.34585376 35.9161712,7.74178683 34.71,7.74 C34.048236,7.74302609 33.3992584,7.92253055 32.83,8.26 L32.67,8 C31.9920539,6.6390478 30.6401405,5.74259669 29.1226404,5.64775293 C27.6051404,5.55290918 26.1521273,6.27405239 25.31,7.54 L20,15.44 L18.38,15.44 C16.1419836,15.4258799 14.1924987,16.963403 13.6847022,19.1430955 C13.1769057,21.322788 14.2461679,23.5635796 16.26,24.54 C15.2103997,26.7244958 14.6636708,29.1164346 14.66,31.54 C14.6607386,32.4378128 14.7343133,33.3340859 14.88,34.22 C14.9867181,34.8685034 15.1336685,35.5097413 15.32,36.14 C12.7654089,39.5280129 11.3856278,43.6568233 11.3899896,47.9 C11.3906219,49.6719665 11.6362821,51.4353351 12.12,53.14 C12.1959396,53.408829 12.380864,53.633639 12.63,53.76 C17.5,56.24 24,57.6 30.89,57.6 C37.78,57.6 44.3,56.24 49.17,53.76 C49.419136,53.633639 49.6040604,53.408829 49.68,53.14 C51.310393,47.2824204 50.1240765,40.9997474 46.47,36.14 L46.47,36.17 Z M18.38,17.44 L27.45,17.44 C28.0022847,17.44 28.45,16.9922847 28.45,16.44 C28.45,15.8877153 28.0022847,15.44 27.45,15.44 L22.45,15.44 L27,8.61 C27.4421256,7.94554342 28.2031594,7.56502656 29,7.61 C29.8075678,7.65313327 30.5277919,8.13200568 30.88,8.86 L31.63,10.35 C31.7910016,10.6707999 32.1115843,10.8807052 32.47,10.9 C32.8236662,10.9213582 33.1622305,10.7539781 33.36,10.46 C33.6699828,10.0285544 34.1687424,9.77275646 34.7,9.77275646 C35.2312576,9.77275646 35.7300172,10.0285544 36.04,10.46 L39.36,15.46 L36.05,15.46 C35.4977153,15.46 35.05,15.9077153 35.05,16.46 C35.05,17.0122847 35.4977153,17.46 36.05,17.46 L43.41,17.46 C44.8468079,17.453013 46.0557123,18.5347033 46.2078711,19.9634487 C46.3600299,21.3921941 45.4060528,22.7042275 44,23 L44,23 C43.8127659,23.0407845 43.6216225,23.0609048 43.43,23.06 L18.43,23.06 C17.3879016,23.1222495 16.3971888,22.6016501 15.8573346,21.7081169 C15.3174805,20.8145837 15.3174805,19.6954163 15.8573346,18.8018831 C16.3971888,17.9083499 17.3879016,17.3877505 18.43,17.45 L18.38,17.44 Z M47.87,52.18 C42.5238732,54.5565573 36.7192429,55.7243123 30.87,55.6 C25.0205814,55.7262913 19.2155236,54.5584503 13.87,52.18 C13.5098312,50.7818902 13.3283844,49.3437555 13.3299893,47.9 C13.3524912,43.9322645 14.7203661,40.0895232 17.21,37 C17.4440644,36.7222737 17.5091408,36.3394711 17.38,36 C17.1471252,35.3085849 16.969894,34.5996603 16.85,33.88 C16.7241666,33.0996186 16.6606328,32.3104611 16.66,31.52 C16.6622158,29.2509371 17.2073976,27.015349 18.25,25 L43.54,25 C44.5841538,27.0183526 45.1293809,29.2575555 45.13,31.53 C45.1352061,33.0525498 44.8920127,34.5657533 44.41,36.01 C44.2808592,36.3494711 44.3459356,36.7322737 44.58,37.01 C47.0508304,40.1053143 48.3945147,43.9494504 48.3900113,47.91 C48.3907085,49.3491687 48.2160889,50.7830643 47.87,52.18 L47.87,52.18 Z"/>
      <path id="Path" fill="#3D454C" fill-rule="nonzero" d="M31.78,17.52 C32.3322847,17.52 32.78,17.0722847 32.78,16.52 C32.78,15.9677153 32.3322847,15.52 31.78,15.52 C31.2277153,15.52 30.78,15.9677153 30.78,16.52 C30.78,17.0722847 31.2277153,17.52 31.78,17.52 Z"/>
    </g>
  </g>
</svg>
