<svg xmlns="http://www.w3.org/2000/svg" width="64" height="64" viewBox="0 0 64 64" style="background:#fff">
  <g id="Linsen" fill="none" fill-rule="evenodd" stroke="none" stroke-width="1">
    <rect width="64" height="64" fill="#FFF"/>
    <g transform="translate(2 6)">
      <rect id="Rectangle" width="60" height="60" x="0" y="0"/>
      <path id="Path" fill="#E0673A" fill-rule="nonzero" d="M25 10.33C24.6381148 9.93343156 24.2163343 9.59600712 23.75 9.33 23.5065421 9.20569392 23.2561275 9.09551151 23 9 22.4195483 8.6705909 21.7671494 8.48860596 21.1 8.47 18.87 8.56 18.51 11.78 18.8 13.37 19.0821808 14.8039905 19.814317 16.110626 20.89 17.1 21.6303918 17.8977665 22.710493 18.2888376 23.79 18.15 24.4425773 18.0669288 25.0357652 17.7289915 25.44 17.21 25.94425 16.5748571 26.2657807 15.8142468 26.37 15.01 26.6660662 13.3218295 26.1596903 11.5920196 25 10.33L25 10.33zM13.27 30.12C13.2 29.76 13.12 29.41 13.04 29.05 12.7895083 27.9833399 12.4790145 26.9316676 12.11 25.9 11.62 24.46 9.85 22.79 8.22 23.62 6.59 24.45 5.74 26.83 5.84 28.67 5.89347675 29.7848766 6.00361901 30.8963121 6.17 32 6.28008273 33.064464 6.56031384 34.1043577 7 35.08 7.72 36.47 8.79 37.99 10.59 37.57 12.22 37.2 13.32 35.22 13.44 33.64 13.5489073 32.4645052 13.4916784 31.279529 13.27 30.12L13.27 30.12zM26.9 48.53C26.8822374 46.9678248 26.4397673 45.4399204 25.62 44.11 25.4575068 43.8789843 25.2804827 43.6585392 25.09 43.45 24.3921866 42.3831903 23.6025186 41.379375 22.73 40.45 20.26 38.32 17.89 41.45 17.63 43.8 17.3316244 46.2115471 17.7856657 48.6563847 18.93 50.8 19.99 52.8 21.61 55.26 24.23 54.18 26.2 53.4 27 50.44 26.9 48.53zM45.05 48.07L45.05 47.78C45.0327524 47.4403704 44.9722645 47.1043266 44.87 46.78 44.6493352 45.5426866 44.0188569 44.4155746 43.08 43.58 42.2799061 42.9267187 41.3489527 42.4527168 40.35 42.19 38.6659641 41.452824 36.7867717 41.2877361 35 41.72 33.73 42.14 33.11 43.9 32.93 45.05 32.8635539 45.4665258 32.8367672 45.8884153 32.85 46.31L32.85 46.31 32.92 46.91C32.9301137 47.0843317 32.9501461 47.257946 32.98 47.43L32.98 47.55C33.1549921 48.3731201 33.4951894 49.1521719 33.98 49.84 34.5304268 50.6392872 35.2056989 51.3449466 35.98 51.93 37.22 52.87 38.81 54.27 40.33 54.62 43.57 55.34 45.1 52.31 45.14 49.16 45.1786794 48.7942383 45.1481476 48.424464 45.05 48.07L45.05 48.07zM52.59 31.65C51.59 29.9 50.04 29.34 48.29 28.75 47.0233711 28.2976912 45.694223 28.0446808 44.35 28 42.87 28 41.98 29.67 41.68 30.87 41.2556536 32.5689412 41.5217375 34.3668049 42.42 35.87 43.34541 37.4751185 44.6721128 38.8121592 46.27 39.75 47.0072344 40.2748968 47.8392579 40.6518544 48.72 40.86 49.9424764 41.1009674 51.2054181 40.727316 52.1 39.86 54.44 37.93 53.86 33.92 52.59 31.65zM35 29.53C34.8321028 28.4693995 34.3105251 27.4967275 33.52 26.77 32.2230034 25.9535192 30.7118615 25.5426557 29.18 25.59 27.8895096 25.6334297 26.6095432 25.8383587 25.37 26.2 24.26 26.48 23.82 28.31 23.77 29.2 23.71 30.32 23.95 32 24.97 32.71 26.89 34.05 29.68 35.99 32.18 35.53 33.7934014 35.1005965 34.9375378 33.6683974 35 32 35.1278685 31.1816313 35.1278685 30.3483687 35 29.53zM44.36 8.6C43.2800362 7.80998669 41.9358382 7.46945652 40.61 7.65 39.5252666 7.7376301 38.45459 7.95243668 37.42 8.29 35.96 8.78 35.42 11.11 35.42 12.43 35.3709334 14.0650075 36.1882326 15.604571 37.57 16.48 39.25 17.41 41.94 18.4 43.77 17.48 45.31 16.75 45.9 15 46 13.4 46.1 11.8 45.74 9.59 44.36 8.6z" opacity=".5"/>
      <path id="Shape" fill="#3D454C" fill-rule="nonzero" d="M54.58 34.19C53.9455139 30.3299745 50.9200255 27.3044861 47.06 26.67 45.3233447 26.33771 43.5348069 26.8866059 42.2835287 28.1358821 41.0322505 29.3851583 40.4804913 31.1728149 40.81 32.91 41.4561569 36.7695919 44.4804081 39.7938431 48.34 40.44 48.6383414 40.4798969 48.9390027 40.499941 49.24 40.5 50.6790962 40.5400151 52.0737916 39.9994354 53.11 39 54.3429621 37.7251531 54.8896615 35.9362932 54.58 34.19L54.58 34.19zM51.7 37.56C50.8616997 38.3305236 49.7090126 38.6603923 48.59 38.45 45.6322522 37.9338484 43.3161516 35.6177478 42.8 32.66 42.5896077 31.5409874 42.9194764 30.3883003 43.69 29.55 44.3555635 28.9131673 45.2493054 28.5708065 46.17 28.6 47.8530023 28.6671793 49.4444608 29.3840525 50.61 30.6 51.6726851 31.6191414 52.374723 32.9565237 52.61 34.41 52.8218825 35.5448257 52.484412 36.7129927 51.7 37.56zM22.08 39.21C18.71 39.21 15.96 42.65 15.96 46.87 15.96 51.09 18.71 54.53 22.08 54.53 25.45 54.53 28.2 51.1 28.2 46.87 28.2 42.64 25.46 39.21 22.08 39.21zM22.08 52.53C19.81 52.53 18 50 18 46.87 18 43.74 19.85 41.21 22.12 41.21 24.39 41.21 26.24 43.75 26.24 46.87 26.24 49.99 24.35 52.53 22.08 52.53zM42.8 42.54C39.8 39.54 35.45 39.07 33.06 41.46 31.8465375 42.7300028 31.3019125 44.4972554 31.59 46.23 32.2348932 50.0865692 35.2542912 53.1099824 39.11 53.76 39.411726 53.7995634 39.7156915 53.8196051 40.02 53.82 41.4634127 53.8520251 42.8587076 53.3003969 43.89 52.29 45.105132 51.0169057 45.6497719 49.2458995 45.36 47.51 45.0759641 45.6170409 44.1762662 43.8703616 42.8 42.54zM42.48 50.88C41.6409084 51.6491113 40.4889369 51.9787752 39.37 51.77 37.9146412 51.5403858 36.5755496 50.8374507 35.56 49.77 33.35 47.56 32.87 44.46 34.47 42.85 36.07 41.24 39.18 41.73 41.39 43.94 42.4526851 44.9591414 43.154723 46.2965237 43.39 47.75 43.5952545 48.8783581 43.2582298 50.037575 42.48 50.88zM36.14 30.09C35.4899824 26.2342912 32.4665692 23.2148932 28.61 22.57 26.8728149 22.2404913 25.0851583 22.7922505 23.8358821 24.0435287 22.5866059 25.2948069 22.03771 27.0833447 22.37 28.82 23.0044861 32.6800255 26.0299745 35.7055139 29.89 36.34 30.1883981 36.3793278 30.4890221 36.3993694 30.79 36.4 32.2368535 36.4347407 33.6362666 35.8829103 34.67 34.87 35.885132 33.5969057 36.4297719 31.8258995 36.14 30.09zM33.26 33.46C32.4180715 34.224402 31.2700405 34.5566296 30.15 34.36 27.1939304 33.8299288 24.8800712 31.5160696 24.35 28.56 24.1486694 27.4397104 24.4814905 26.2896285 25.25 25.45 26.0883003 24.6794764 27.2409874 24.3496077 28.36 24.56 31.3177478 25.0761516 33.6338484 27.3922522 34.15 30.35 34.3587752 31.4689369 34.0291113 32.6209084 33.26 33.46L33.26 33.46zM23 20.39C24.4448086 20.4239905 25.8427455 19.8763451 26.88 18.87 28.095132 17.5969057 28.6397719 15.8258995 28.35 14.09 28.0715396 12.1865837 27.1714863 10.4286671 25.79 9.09 24.4517862 7.7079015 22.6936481 6.80773479 20.79 6.53 19.0506274 6.23366675 17.2737139 6.77898259 16 8 13.61 10.39 14.1 14.76 17.08 17.75 18.6265178 19.3783175 20.755175 20.3275836 23 20.39L23 20.39zM17.45 9.45C18.2883003 8.67947639 19.4409874 8.34960775 20.56 8.56 22.0153588 8.78961416 23.3544504 9.49254934 24.37 10.56 25.4374507 11.5755496 26.1403858 12.9146412 26.37 14.37 26.5787752 15.4889369 26.2491113 16.6409084 25.48 17.48 23.87 19.09 20.77 18.6 18.56 16.39 16.35 14.18 15.84 11.06 17.45 9.45zM12.08 22.92C8.75 22.36 5.47 25.3 4.77 29.47 4.42820112 31.3523163 4.71272138 33.2947818 5.58 35 6.35674839 36.5822219 7.84357747 37.6973437 9.58 38 9.85737905 38.0481277 10.1384809 38.0715529 10.42 38.0700724 11.884024 38.0383708 13.2814707 37.4522295 14.33 36.43 15.708447 35.0890857 16.6079395 33.3322642 16.89 31.43 17.55 27.33 15.41 23.48 12.08 22.92zM14.88 31.16C14.6545746 32.6224979 13.9513232 33.9692243 12.88 34.99 12.105099 35.8004325 10.9928648 36.1971294 9.88 36.06 8.76476795 35.832362 7.8228835 35.0907207 7.34 34.06 6.6856417 32.74192 6.47516617 31.2475437 6.74 29.8 7.22 26.95 9.18 24.86 11.24 24.86 11.4096746 24.8451257 11.5803254 24.8451257 11.75 24.86 14 25.27 15.39 28.08 14.88 31.16L14.88 31.16zM41.16 18.92C41.461726 18.9595634 41.7656915 18.9796051 42.07 18.98 43.5134127 19.0120251 44.9087076 18.4603969 45.94 17.45 48.33 15.07 47.84 10.69 44.85 7.71 41.86 4.73 37.5 4.23 35.11 6.62 32.72 9.01 33.21 13.38 36.19 16.37 37.5240058 17.7395821 39.2694506 18.6351322 41.16 18.92L41.16 18.92zM36.52 8C37.1920184 7.37772775 38.0849937 7.05006346 39 7.09 40.6832465 7.15614293 42.2750752 7.87318286 43.44 9.09 45.65 11.3 46.13 14.4 44.53 16.01 43.6903715 16.7785095 42.5402896 17.1113306 41.42 16.91 39.9665237 16.674723 38.6291414 15.9726851 37.61 14.91 36.5455415 13.8921935 35.8431711 12.5541779 35.61 11.1 35.41459 9.98137001 35.7509537 8.83551539 36.52 8z"/>
      <path id="Path" fill="#3D454C" fill-rule="nonzero" d="M21.29 43.15C20.7377153 43.15 20.29 43.5977153 20.29 44.15 20.29 44.7022847 20.7377153 45.15 21.29 45.15 21.8422847 45.15 22.29 44.7022847 22.29 44.15 22.29 43.5977153 21.8422847 43.15 21.29 43.15zM39.05 11.38C39.6022847 11.38 40.05 10.9322847 40.05 10.38 40.05 9.82771525 39.6022847 9.38 39.05 9.38 38.4977153 9.38 38.05 9.82771525 38.05 10.38 38.05 10.9322847 38.4977153 11.38 39.05 11.38z"/>
    </g>
  </g>
</svg>
