<svg xmlns="http://www.w3.org/2000/svg" width="64" height="64" viewBox="0 0 64 64" style="background:#fff">
  <g id="Lollo" fill="none" fill-rule="evenodd" stroke="none" stroke-width="1">
    <rect width="64" height="64" fill="#FFF"/>
    <g transform="translate(2 6)">
      <rect id="Rectangle" width="60" height="60" x="0" y="0"/>
      <path id="Shape" fill="#31E085" fill-rule="nonzero" d="M50,7.11 C43.63,2.11 33.7,3.51 26.48,5.91 C19.76,8.15 12.8,12 10,18.93 C7,26.35 9.29,34.24 14.37,40.08 C17.2691821,43.2247808 20.3441035,46.2028806 23.58,49 C27.16,52.27 29.97,55.61 35.05,54.26 C38.36,53.39 38.87,47.43 38.27,44.94 C36.91,39.3 33.55,36.12 29.41,32.63 C29.99,31.63 30.41,30.43 30.87,29.41 C31.7329894,27.5239498 32.7814867,25.7284401 34,24.05 C35.4386687,22.1657177 36.9810519,20.3629322 38.62,18.65 C42.34,18.16 46.14,17.91 49.47,16.23 C52.41,14.74 52.51,9.09 50,7.11 Z M21.08,25.4 C21.08,25.5 21.08,25.6 21.08,25.7 L20.91,25.54 L21.08,25.4 Z" opacity=".5"/>
      <path id="Path" fill="#3D454C" fill-rule="nonzero" d="M53.21,14.93 L52.9,13.78 C52.7369755,13.2234033 52.3223629,12.7754736 51.78,12.57 C51.2564255,12.3801271 50.6748803,12.4390178 50.2,12.73 L49.86,11.51 C49.7025906,10.9231975 49.2582809,10.4562958 48.68,10.27 L47,9.71 C46.3055807,9.48090092 45.5414773,9.68965083 45.06,10.24 L43.92,11.57 L43.12,11.57 L43.21,11.11 C43.3387112,10.3721833 43.1697001,9.61343119 42.74,9 C42.3226698,8.37279051 41.6702002,7.94021394 40.93,7.8 C39.5291949,7.53035177 38.1447957,8.33791797 37.69,9.69 L37.55,10.13 C37.4883326,10.3271106 37.3519265,10.4922339 37.17,10.59 L35.86,11.34 L34.15,8.54 C33.8233369,8.00275722 33.2387486,7.67629882 32.61,7.67996886 L32.61,7.67996886 C31.9766912,7.68819027 31.3948588,8.03044462 31.08,8.58 L29.41,8 C29.0637434,7.89999092 28.6962566,7.89999092 28.35,8 L28.15,8.06 C26.6457641,8.46847254 25.6324628,9.87375041 25.72,11.43 L25.77,12.26 L25.42,11.62 C25.0732451,11.0963781 24.4774377,10.7927819 23.85,10.82 C23.3635607,10.8337217 22.9042283,11.0471124 22.58,11.41 C22.3506069,10.5633631 21.792623,9.84338375 21.03,9.41 C20.2628749,8.9810541 19.3582146,8.86976652 18.51,9.1 L17.51,9.38 C16.8494932,9.56458763 16.3500424,10.1066273 16.22,10.78 L16.1,11.38 L13.75,12 C13.2870259,12.1283618 12.8940799,12.4355243 12.6577381,12.8538117 C12.4213964,13.2720991 12.3610519,13.7671889 12.49,14.23 L12.6,14.62 L12,14.44 C11.6578692,14.3350383 11.2921308,14.3350383 10.95,14.44 L9.28,14.9 C8.14524259,15.2148521 7.37571458,16.2683975 7.42097448,17.4451548 C7.46623437,18.6219121 8.31441129,19.6132382 9.47,19.84 L11.47,20.22 L14.53,21.42 L14.53,21.61 L11.14,20.95 C10.9810099,20.9245774 10.8189901,20.9245774 10.66,20.95 L7.56,21.18 C6.64870095,21.2443427 5.9282047,21.977705 5.88,22.89 L5.88,23.99 C5.83425304,24.8072601 6.34268518,25.5535073 7.12,25.81 L8.67,26.32 L8.72,26.51 C8.99198658,27.4704995 9.98690584,28.0326512 10.95,27.77 L12.6,27.31 L15.12,29.7 L15.12,30.25 L12.12,28.95 C11.8368271,28.8276555 11.5262197,28.78279 11.22,28.82 L10.46,28.9 C9.24534099,29.0262074 8.14792537,29.6809987 7.46,30.69 C6.76382161,31.7277413 6.56589541,33.0215922 6.92,34.22 C7.38706416,36.0327998 9.04893424,37.2792023 10.92,37.22 L11.18,37.22 L11.68,37.96 L10.97,38.44 C10.3135497,38.87377 10.0173234,39.6853487 10.24,40.44 C10.7461939,42.3122444 12.5425175,43.5352733 14.47,43.32 L16.41,43 C16.57,43 20.36,42.63 21.15,45.49 C21.2991169,46.0229548 21.8520452,46.3341168 22.385,46.185 C22.9179548,46.0358831 23.2291169,45.4829548 23.08,44.95 C22.08,41.39 18.29,40.79 16.2,41.01 L14.13,41.23 C13.2308362,41.3144258 12.3866523,40.7857864 12.07,39.94 L12.83,39.43 C13.2266923,39.163491 13.5003407,38.7494177 13.59,38.28 C13.6840881,37.8087992 13.5869525,37.3195236 13.32,36.92 L12.65,35.92 C12.302056,35.4093506 11.7176449,35.1114895 11.1,35.13 L10.73,35.13 C9.77365601,35.1523138 8.93540964,34.4942904 8.73,33.56 C8.5507804,32.9527701 8.64964271,32.2973496 9,31.77 C9.34896108,31.24105 9.9190624,30.8989892 10.55,30.84 L11.21,30.74 L14.5,32.15 C15.0433862,32.3749638 15.6621963,32.3218959 16.1593451,32.0076979 C16.6564938,31.6934999 16.9699945,31.1573474 17,30.57 L17,29.67 C17.0315893,29.140223 16.8264623,28.6237423 16.44,28.26 L13.78,25.73 C13.3149673,25.2999635 12.6622538,25.1377284 12.05,25.3 L10.48,25.74 L10.48,25.63 C10.3238935,25.0549215 9.89329778,24.5943712 9.33,24.4 L7.82,23.9 L7.82,23.11 L10.71,22.89 L14.4,23.61 C15.0153928,23.7297497 15.6489303,23.5225162 16.074591,23.0622324 C16.5002517,22.6019486 16.6574108,21.9541704 16.49,21.35 L16.33,20.77 C16.1768105,20.2234784 15.7774215,19.7797129 15.25,19.57 L12.1,18.34 C11.9969972,18.2982369 11.8896717,18.2680516 11.78,18.25 L9.78,17.85 C9.57678885,17.7671058 9.44396078,17.569468 9.44396078,17.35 C9.44396078,17.130532 9.57678885,16.9328942 9.78,16.85 L11.4,16.4 L12.32,16.7 C12.9535742,16.9081434 13.6502783,16.7510301 14.1331974,16.2911072 C14.6161164,15.8311843 14.8070082,15.1429681 14.63,14.5 L14.48,13.94 L16.75,13.31 C17.4047087,13.1098374 17.8891862,12.5555952 18,11.88 L18.12,11.28 L19,11 C19.3362556,10.9084416 19.6949532,10.9514853 20,11.12 C20.3054964,11.292837 20.5288545,11.581041 20.62,11.92 L20.72,12.26 C20.8936223,12.9123389 21.4176442,13.4126958 22.0773048,13.5560086 C22.7369654,13.6993215 23.4213593,13.4614958 23.85,12.94 L24.45,14.03 C24.8323425,14.7507717 25.6620372,15.1116888 26.45,14.9 C27.246324,14.6730763 27.7810052,13.9270096 27.74,13.1 L27.64,11.26 C27.6046361,10.6321976 28.0270686,10.0703624 28.64,9.93 L28.78,9.93 L30.51,10.49 C31.2685143,10.7371135 32.0995471,10.4614539 32.56,9.81 L34.2,12.5 C34.7095843,13.3346815 35.7900273,13.6136483 36.64,13.13 L38.11,12.29 C38.7227183,11.9434968 39.1830741,11.3796501 39.4,10.71 L39.54,10.28 C39.6784331,9.8628792 40.1120191,9.62007104 40.54,9.72 C40.7556647,9.76280609 40.9459486,9.88846525 41.07,10.07 C41.1912851,10.2560694 41.2377239,10.4811193 41.2,10.7 L41.06,11.37 C40.9610443,11.8862683 41.0901411,12.4201081 41.414062,12.8341135 C41.7379829,13.2481189 42.2250878,13.5018505 42.75,13.53 L43.86,13.58 C44.4120764,13.6162025 44.9513787,13.4034166 45.33,13 L46.46,11.69 L47.96,12.19 L48.34,13.56 C48.5059526,14.0896959 48.9057815,14.5139549 49.4247165,14.7109941 C49.9436516,14.9080333 50.5243045,14.8560626 51,14.57 L51.26,15.52 C51.311863,15.6913195 51.270115,15.8772879 51.15,16.01 C51.0357447,16.1490118 50.8587622,16.220558 50.68,16.2 L49.61,16.09 C40.5860135,15.3494626 32.3207533,21.1599151 29.9629108,29.9018432 C27.6050682,38.6437713 31.8275336,47.8223697 40,51.72 L36.56,53.55 C35.4668677,51.6241972 33.8513615,50.0468253 31.9,49 C31.5891789,48.8213672 31.206669,48.8221248 30.8965579,49.0019873 C30.5864468,49.1818498 30.3958479,49.513492 30.3965579,49.8719873 C30.3972679,50.2304826 30.5891789,50.5613672 30.9,50.74 C31.6998721,51.1872476 32.4392121,51.7350313 33.1,52.37 L31.41,52.83 C30.7117959,53.0224526 29.9889158,52.6163903 29.79,51.92 L27.52,43.73 C26.6901496,40.2843823 26.486913,36.7175799 26.92,33.2 C26.9782237,32.9283042 26.9207766,32.644633 26.7614318,32.4169977 C26.6020871,32.1893624 26.3552135,32.0382897 26.08,32 C25.5368735,31.9287544 25.037514,32.3077326 24.96,32.85 C24.4763981,36.6377716 24.6967631,40.4822941 25.61,44.19 L27.89,52.37 C28.2858205,53.8052443 29.591175,54.7996052 31.08,54.8 C31.3806596,54.7994106 31.6799208,54.7590608 31.97,54.68 L34.53,54 C34.7194235,54.3169317 34.8768646,54.6519129 35,55 L35,55.19 C35.0922491,55.6671082 35.5141358,56.0088364 36,56.0001675 L36,56.0001675 C36.1502268,55.990979 36.2968106,55.9500719 36.43,55.88 L36.43,55.88 L41.26,53.31 C41.8569148,52.9907225 42.2194484,52.3589503 42.1939217,51.6824935 C42.168395,51.0060367 41.7592794,50.4033834 41.14,50.13 C33.7067006,46.7739024 29.7657192,38.5565947 31.8018121,30.6590219 C33.8379051,22.761449 41.2606217,17.4738447 49.39,18.13 L50.39,18.24 C51.2292453,18.3322862 52.0589414,17.9981552 52.6,17.35 C53.2076459,16.7028261 53.4382727,15.7878806 53.21,14.93 Z"/>
      <path id="Path" fill="#3D454C" fill-rule="nonzero" d="M49.82 19.6999992C49.2866665 19.6993329 48.8466663 20.1173332 48.82 20.65L48.7 22C48.6937898 22.2374764 48.5303211 22.4418123 48.3 22.5L47 22.83C46.8653017 22.8844881 46.7146983 22.8844881 46.58 22.83L45.39 22.15C44.3340537 21.5539493 43.004414 21.7839184 42.21 22.6999992L41.71 23.28C41.6064271 23.4156336 41.4397461 23.4876095 41.27 23.47L39.59 23.38C39.2327344 23.3621367 38.8930774 23.5362293 38.6989746 23.8366987 38.5048717 24.1371682 38.4858118 24.518366 38.6489746 24.8366987 38.8121373 25.1550315 39.1327344 25.3621367 39.49 25.38L41.17 25.47 41.3 25.47C42.039742 25.4669203 42.7425753 25.1464574 43.23 24.59L43.73 24.01C43.8981394 23.8113718 44.1840298 23.7609206 44.41 23.89L45.6 24.57C46.1859764 24.9038491 46.8819783 24.9867924 47.53 24.8L48.82 24.45C49.8767363 24.1544194 50.6258914 23.2159616 50.68 22.12L50.75 20.8C50.7777419 20.5297072 50.6943016 20.2597623 50.5188754 20.052269 50.3434493 19.8447757 50.0911421 19.7176 49.82 19.6999992L49.82 19.6999992zM27.32 27.58C26.7677153 27.58 26.32 28.0277153 26.32 28.58 26.32 29.1322847 26.7677153 29.58 27.32 29.58 27.8722847 29.58 28.32 29.1322847 28.32 28.58 28.32 28.0277153 27.8722847 27.58 27.32 27.58zM23.05 48.38C22.4977153 48.38 22.05 48.8277153 22.05 49.38 22.05 49.9322847 22.4977153 50.38 23.05 50.38 23.6022847 50.38 24.05 49.9322847 24.05 49.38 24.05 48.8277153 23.6022847 48.38 23.05 48.38z"/>
    </g>
  </g>
</svg>
