<svg xmlns="http://www.w3.org/2000/svg" width="64" height="64" viewBox="0 0 64 64" style="background:#fff">
  <g id="Lorbeer" fill="none" fill-rule="evenodd" stroke="none" stroke-width="1">
    <rect width="64" height="64" fill="#FFF"/>
    <g transform="translate(2 7)">
      <rect id="Rectangle" width="60" height="60" x="0" y="0"/>
      <path id="Path" fill="#31E085" fill-rule="nonzero" d="M51,6.41 C49.2304319,6.65261782 47.6023218,7.5091453 46.4,8.83 C46.1510431,8.82742197 45.9026538,8.85427487 45.66,8.91 C41.8354643,9.84728856 38.1212979,11.1881429 34.58,12.91 C33.0846511,13.6861031 31.479442,14.2290415 29.82,14.52 C28.9040625,14.6916415 27.9590835,14.6192161 27.08,14.31 C25.73,7.92 18.72,4 15.4,12.1 C13.64,16.37 9.92,19.58 8,23.84 C5.93145961,28.3506589 5.2995863,33.3881903 6.19,38.27 C7.89,47.39 15,52.15 24,50.09 C31.75,48.3 39.46,44.64 45,38.76 C51.39,31.93 52.24,24.23 54.82,15.76 C55.49,13.36 55.34,5.7 51,6.41 Z" opacity=".5"/>
      <path id="Shape" fill="#3D454C" fill-rule="nonzero" d="M52.43,11.22 C52.91,10.42 53.37,9.66 53.01,8.79 C52.8463806,8.38835034 52.4425121,8.13795187 52.01,8.17 C50.4104868,8.36293497 48.8415405,8.75601146 47.34,9.34 C45.7713398,9.98257158 44.0950709,10.3218973 42.4,10.34 L42.4,10.34 C41.4951493,10.4192299 40.6463309,10.8118084 40,11.45 C38.7437722,12.6475229 37.0266405,13.2357318 35.3,13.06 C32.76,12.86 31.05,15.06 29.68,16.81 L29.34,17.23 C29.3621527,16.6477375 29.2843602,16.0659846 29.11,15.51 C28.7637901,14.702649 28.0971343,14.0758476 27.27,13.78 C26.7708346,13.6180056 26.3614969,13.2557599 26.14,12.78 C25.8,12.17 25.52,11.64 25.27,11.19 C23.97,8.8 23.62,8.19 22.73,8.11 C21.84,8.03 21.54,8.68 21.13,9.27 C20.0779867,10.8758993 18.6088438,12.1652882 16.88,13 C16.231251,13.4039013 15.7406295,14.0180606 15.49,14.74 C14.9556079,16.1056048 13.8643926,17.1786331 12.49,17.69 C10.31,18.63 9.95,20.84 9.66,22.6 C9.5,23.6 9.34,24.6 8.93,24.86 C7.73,25.7 7.52,28.08 8.2,33.33 C8.2,33.33 8.2,33.43 8.2,33.47 C7.20225051,35.0995722 7.00338409,37.0956017 7.66,38.89 C7.79574747,39.3233092 8.2063999,39.6107659 8.66,39.59 C8.75615315,39.6040911 8.85384685,39.6040911 8.95,39.59 C9.47725077,39.4268576 9.77264146,38.8674055 9.61,38.34 C9.08774109,37.0107113 9.26806814,35.5079858 10.09,34.34 C10.32,34.01 10.29,33.8 10.2,33.12 C9.5,27.63 10.02,26.65 10.1,26.55 C11.2,25.77 11.43,24.35 11.65,22.98 C11.94,21.23 12.21,20.05 13.31,19.57 C15.1254412,18.8686484 16.5721196,17.4509035 17.31,15.65 C17.4236115,15.3446521 17.5931775,15.0631725 17.81,14.82 C19.7693163,13.8735547 21.4453456,12.428583 22.67,10.63 C22.91,11.03 23.2,11.63 23.53,12.18 C23.86,12.73 24.07,13.18 24.41,13.78 C24.8391594,14.6564747 25.5867114,15.3360674 26.5,15.68 C26.8487517,15.772352 27.1360936,16.0191713 27.28,16.35 C27.28,16.54 27.35,17.06 27.37,17.41 C27.37,18.08 27.44,18.62 27.51,19.05 C27.4739846,19.0597738 27.4360154,19.0597738 27.4,19.05 C24.8,19.44 24.7,21 24.64,22.05 C24.58,23.1 24.54,23.68 22.83,24.36 C21.62,24.84 21.5,26.36 21.4,27.44 C21.3837428,27.7146674 21.353705,27.9883452 21.31,28.26 L20.7,28.75 C18.83,30.26 17.59,31.26 17.99,33.58 C18.0641532,34.4463577 17.7825563,35.3055891 17.21,35.96 C16.8061954,36.4803148 16.5258128,37.0855308 16.39,37.73 C16.2275303,39.4803647 16.3422747,41.2454032 16.73,42.96 C16.9844739,44.1772115 17.1184539,45.416526 17.13,46.66 C17.0256909,46.597966 16.9101389,46.557183 16.79,46.54 C15.4740145,46.2129824 14.2777405,45.5194902 13.34,44.54 C13.1522334,44.3506873 12.8966375,44.2442017 12.63,44.2442017 C12.3633625,44.2442017 12.1077666,44.3506873 11.92,44.54 C11.7279903,44.7399329 11.6275851,45.0105968 11.6427515,45.2873835 C11.6579179,45.5641702 11.787295,45.8222433 12,46 C13.2062735,47.2120531 14.726482,48.0639239 16.39,48.46 C15.0755004,49.964713 13.5128908,51.2330649 11.77,52.21 C11.3581867,52.4209688 11.1448865,52.8869081 11.2543088,53.336491 C11.3637311,53.7860739 11.7672966,54.1018765 12.23,54.1000083 C12.389619,54.0981054 12.5467916,54.0605207 12.69,53.99 C14.8668444,52.7635871 16.7990981,51.1465959 18.39,49.22 C19.5623504,49.3484621 20.7406421,49.4152208 21.92,49.42 C23.4789695,49.409281 25.0343407,49.2687959 26.57,49 L27.3,48.9 C28.6039537,48.6532309 29.8088961,48.0351336 30.77,47.12 C31.4428166,46.4985978 32.2406197,46.0280986 33.11,45.74 C35.1469241,45.4307779 36.8951035,44.1252706 37.77,42.26 C38.25,41.41 38.54,40.96 39.23,40.75 C40.8229575,40.445732 41.9812397,39.0616475 42,37.44 C42.08,36.7 42.11,36.57 42.6,36.44 C45.99,35.25 46.03,33.33 46.06,31.93 C46.06,30.93 46.06,30.28 47.17,29.64 C48.9834868,28.6581232 50.0810256,26.7306434 50,24.67 C49.9446577,23.9349403 50.1539156,23.2043112 50.59,22.61 C51.88,21.23 51.52,19.61 51.21,18.17 C50.9659102,17.2578681 50.8680276,16.3127955 50.92,15.37 C51.0789308,13.8845871 51.5971945,12.4602199 52.43,11.22 Z M49,15.17 C48.9158452,16.3237613 49.0274185,17.4834465 49.33,18.6 C49.63,19.97 49.75,20.66 49.2,21.25 C48.4130039,22.1562405 47.9860033,23.3198172 48,24.52 C47.9,25.84 47.83,26.88 46.16,27.88 C44.7181757,28.6676444 43.8931675,30.2466074 44.07,31.88 C44.07,33.08 44.07,33.81 41.95,34.54 C40.7843071,34.9113852 39.9947011,35.9965872 40,37.22 C39.91,38.05 39.86,38.48 38.61,38.85 C37.4347306,39.2586986 36.4868109,40.1448765 36,41.29 C35.4209379,42.6611949 34.1564061,43.6210203 32.68,43.81 C31.5043865,44.1383822 30.4221081,44.7377452 29.52,45.56 C28.8326236,46.2169035 27.9895666,46.6883272 27.07,46.93 C26.85,46.93 26.57,47 26.24,47.05 C24.1351709,47.3940715 21.9973857,47.4913961 19.87,47.34 C22,44.71 24,41.63 26,38.44 C26.7658271,38.5401231 27.5376865,38.5869024 28.31,38.58 C30.9698835,38.5414107 33.6194363,38.2399445 36.22,37.68 C36.7232884,37.4921347 36.9882218,36.9401902 36.82,36.43 C36.6484109,35.9107735 36.0915697,35.6256708 35.57,35.79 C32.8177427,36.3592095 30.0097689,36.6141749 27.2,36.55 C28.37,34.72 29.57,32.85 30.83,30.99 C31.6833913,31.1234837 32.546261,31.1870283 33.41,31.18 C36.0740251,31.1459776 38.7276817,30.8410751 41.33,30.27 C41.8281927,30.0822809 42.0919655,29.5371505 41.93,29.03 C41.7626077,28.5067657 41.204475,28.2165367 40.68,28.38 C37.8635803,28.9716506 34.9863758,29.2234479 32.11,29.13 C33.49,27.18 34.94,25.26 36.48,23.46 C37.1119595,23.55821 37.7504569,23.6083538 38.39,23.61 C40.5100122,23.5829737 42.6214283,23.3349661 44.69,22.87 C45.1881927,22.6822809 45.4519655,22.1371505 45.29,21.63 C45.2059759,21.3728749 45.0213684,21.1607585 44.7783007,21.042051 C44.5352329,20.9233435 44.2544428,20.9081726 44,21 C42.0607955,21.3931453 40.0885617,21.6007488 38.11,21.62 C39.8170585,19.7716171 41.7029228,18.096782 43.74,16.62 C44.0768867,16.2791323 44.1245733,15.7471787 43.8536844,15.3518273 C43.5827955,14.956476 43.0695032,14.8088969 42.63,15 C35.2,20.24 29.74,28.82 24.92,36.4 C22.92,39.51 21.01,42.54 19.06,45.16 C18.98,44.28 18.84,43.42 18.69,42.58 C18.3414182,41.0799464 18.2300673,39.5345317 18.36,38 C18.4768174,37.6421131 18.6488974,37.3047015 18.87,37 C19.7541923,35.9431541 20.1630423,34.5682604 20,33.2 C19.81,32.12 20.1,31.79 22,30.27 L22.76,29.66 C23.31,29.21 23.37,28.45 23.45,27.57 C23.4610571,27.0875652 23.5418954,26.6092718 23.69,26.15 C26.51,25 26.62,23.21 26.69,22.15 C26.74,21.27 26.75,21.15 27.75,21.03 C28.3823993,20.912243 28.968418,20.6174998 29.44,20.18 L29.44,20.18 L29.44,20.18 C30.1184355,19.5163884 30.7281897,18.7860235 31.26,18 C32.45,16.48 33.68,14.88 35.15,15 C37.3690615,15.2027148 39.5731817,14.4788658 41.24,13 C41.5508576,12.7033316 41.918115,12.4720955 42.32,12.32 L42.32,12.32 C44.2663447,12.3208623 46.1946948,11.9474143 48,11.22 C48.8471653,10.9063145 49.7119801,10.6425293 50.59,10.43 C49.7032059,11.8670155 49.159155,13.488903 49,15.17 L49,15.17 Z"/>
      <path id="Path" fill="#3D454C" fill-rule="nonzero" d="M10.38,41.18 C9.82771525,41.18 9.38,41.6277153 9.38,42.18 C9.38,42.7322847 9.82771525,43.18 10.38,43.18 C10.9322847,43.18 11.38,42.7322847 11.38,42.18 C11.38,41.6277153 10.9322847,41.18 10.38,41.18 Z"/>
    </g>
  </g>
</svg>
