<svg xmlns="http://www.w3.org/2000/svg" width="64" height="64" viewBox="0 0 64 64" style="background:#fff">
  <g id="Maisgrieß" fill="none" fill-rule="evenodd" stroke="none" stroke-width="1">
    <rect width="64" height="64" fill="#FFF"/>
    <g transform="translate(2 7)">
      <rect id="Rectangle" width="60" height="60" x="0" y="0"/>
      <path id="Path" fill="#EBE53F" fill-rule="nonzero" d="M23.24 19.15C22.9918789 18.0271518 22.2596718 17.0716216 21.24 16.54 19.56 15.74 17.06 17.09 15.84 18.24 14.03 19.93 13.84 22.98 14.52 25.24 14.7596782 26.2500442 15.3001462 27.1636093 16.07 27.86 16.8387971 28.5576906 17.9413861 28.7485982 18.9 28.35 19.739021 27.8665537 20.4980323 27.2559712 21.15 26.54 22.0899587 25.6336352 22.7937723 24.5109668 23.2 23.27 23.616133 21.9301576 23.6300406 20.4976693 23.24 19.15L23.24 19.15zM36.05 21.89C35.9666085 21.3713269 35.779552 20.874777 35.5 20.43 35.1803662 19.7699715 34.6535703 19.2326397 34 18.9 33.3823333 18.6411437 32.6833565 18.6593462 32.08 18.95 31.86 19.07 31.66 19.24 31.45 19.38 31.0309195 19.6219476 30.6358062 19.9032147 30.27 20.22 29.8572437 20.665336 29.4950392 21.1549829 29.19 21.68 28.6954937 22.5138806 28.4234687 23.4608031 28.4 24.43 28.3077351 25.4507142 28.4585165 26.4787689 28.84 27.43 29.1095188 28.0653703 29.5039979 28.6400856 30 29.12 30.6527304 29.7179167 31.59349 29.8818665 32.41 29.54 32.74 29.35 33.05 29.15 33.41 28.94 33.9780315 28.4999056 34.4623895 27.9613536 34.84 27.35 35.01 27.11 35.2 26.88 35.35 26.63 35.9334772 25.5272694 36.2357501 24.2975686 36.23 23.05L36.05 21.89zM48.07 22C48.2559161 21.6826418 48.4099989 21.3476791 48.53 21 49.2773097 19.247908 49.0006587 17.2268188 47.81 15.74 46.9117829 14.57014 45.2964435 14.2267213 44 14.93 42.9558178 15.5007709 42.1689155 16.4486304 41.8 17.58 41.2768688 18.909785 41.165382 20.366081 41.48 21.76 41.6681691 22.6158359 42.0514636 23.4166476 42.6 24.1 42.7602997 24.3559908 42.9936856 24.5580263 43.27 24.68 43.5995867 24.9379043 44.0123081 25.0659902 44.43 25.04 45.0159292 25.008628 45.5719563 24.7713425 46 24.37L46.29 24.15 46.07 24.3C46.470592 24.0127216 46.8104401 23.6490841 47.07 23.23 47.1608367 23.0804867 47.2610366 22.9368668 47.37 22.8 47.16 23.05 46.96 23.31 46.75 23.57 46.97 23.31 47.17 23.04 47.37 22.78 47.6262002 22.541467 47.8604734 22.2804196 48.07 22zM36.82 10.89L36.82 10.89C36.82 10.99 36.77 11.09 36.74 11.19L36.82 10.89z" opacity=".5"/>
      <path id="Path" fill="#EBE53F" fill-rule="nonzero" d="M36.88 10.65L36.82 10.89 36.91 10.57 37.09 10.08C37.5150129 9.30278602 37.7223067 8.42524222 37.69 7.54 37.7297568 6.31574855 37.250327 5.13170219 36.37 4.28L36.17 4.13 36.17 4.13C35.8631479 3.81852095 35.4955392 3.57344849 35.09 3.41 34.4004287 3.16764437 33.6435599 3.20351493 32.98 3.51 31.9054007 4.04878133 31.0966018 5.00200866 30.74 6.15 30.2464765 7.59488045 30.1531786 9.14639057 30.47 10.64 30.72 12.13 31.73 13.9 33.31 14.19 34.89 14.48 36.17 13.09 36.55 11.7 36.5661236 11.6200631 36.5930366 11.5426883 36.63 11.47L36.44 11.86C36.5759674 11.5337388 36.6928316 11.1998409 36.79 10.86 36.79 10.78 36.79 10.7 36.79 10.62 36.79 10.54 36.88 10.67 36.88 10.65zM16.46 35.74C16.2362059 35.0775484 15.7472291 34.5378628 15.11 34.25 14.6883102 34.0925087 14.2306032 34.057834 13.79 34.15 13.4712996 34.2161651 13.1598216 34.3132926 12.86 34.44 11.9803146 34.8954476 11.2458759 35.5883143 10.74 36.44 9.86059017 37.9852266 9.74972099 39.8515245 10.44 41.49 10.6678079 42.0440335 11.0083519 42.5446333 11.44 42.96 12.0124215 43.4814158 12.8343399 43.6254873 13.55 43.33 14.0651496 43.0598066 14.5261641 42.6970968 14.91 42.26 15.1822492 41.9463798 15.4296637 41.6120358 15.65 41.26 16.1872018 40.3338838 16.5498759 39.3170406 16.72 38.26 16.8511027 37.4116085 16.7615619 36.5437515 16.46 35.74zM23.11 44.29C22.560642 44.3020765 22.0155467 44.389561 21.49 44.55 21.0651306 44.6706084 20.6835147 44.9099856 20.39 45.24 19.300006 46.4832711 18.8198962 48.1471632 19.08 49.78 19.1537824 50.8363981 19.5558558 51.8433297 20.23 52.66 20.71 53.39 21.44 53.36 22.4 52.54 23.54 52.79 24.24 52.48 24.5 51.64 24.6241531 51.3934104 24.7246042 51.135586 24.8 50.87 25.0295417 50.0887263 25.2098952 49.293835 25.34 48.49 25.54 47 25.06 44.36 23.11 44.29zM31.07 33.77C30.62 32.77 29.55 31.54 28.34 32.17 27.8105597 32.4258082 27.3246274 32.7632612 26.9 33.17 26.2944402 33.8147575 25.9062386 34.6331286 25.79 35.51 25.6170297 36.5211758 25.7313664 37.5606006 26.12 38.51 26.3834358 39.2770166 26.9461871 39.9047008 27.68 40.25 28.3573621 40.4905086 29.1126751 40.3192005 29.62 39.81 30.0836493 39.3396984 30.4806748 38.808088 30.8 38.23 31.5862065 36.8684681 31.6862177 35.216432 31.07 33.77L31.07 33.77zM39.57 44.08C39.1764448 43.1088191 38.2651536 42.4457094 37.22 42.37 36.8022181 42.3662887 36.3877527 42.4444256 36 42.6 35.5895759 42.8354949 35.1983631 43.1029908 34.83 43.4 33.27 44.47 32.83 46.61 32.83 48.4 32.83 50.19 33.58 52.4 35.34 53.14L35.44 53.14C36.3478217 53.4629615 37.3604913 53.2331634 38.04 52.55 38.3699319 52.1961106 38.6646534 51.8109633 38.92 51.4 39.01 51.21 39.1 51.03 39.2 50.84 39.6875398 49.9371336 40.0252664 48.9611038 40.2 47.95 40.4223697 46.6258225 40.2008853 45.2652756 39.57 44.08L39.57 44.08zM45.59 32.56C44.9409862 32.7980862 44.3509189 33.1732736 43.86 33.66 43.0417638 34.4608932 42.4071496 35.429874 42 36.5L41.72 37.65C41.604995 38.2814732 41.604995 38.9285268 41.72 39.56 41.7833927 40.5330787 42.1043555 41.4718088 42.65 42.28 43.0113541 42.7924405 43.4963768 43.2052257 44.06 43.48 44.9006485 43.7731145 45.8348017 43.5638021 46.47 42.94 47.2716025 42.1180032 47.8916497 41.1368298 48.29 40.06 48.6121915 39.2211703 48.8402552 38.3491619 48.97 37.46 49.27 35.44 48.35 31.71 45.59 32.56z" opacity=".5"/>
      <path id="Shape" fill="#3D454C" fill-rule="nonzero" d="M13.83 44.68C12.1108886 44.6630708 10.504227 43.8225488 9.51 42.42 7.80938719 40.1526582 8.25585773 36.9380703 10.51 35.22 11.6110202 34.4294731 12.9926098 34.1357494 14.32 34.41 17.0957717 34.9871112 18.9654731 37.5959967 18.62 40.41 18.316532 42.8443156 16.2431427 44.6687265 13.79 44.66L13.83 44.68zM13.38 36.32C12.7815945 36.3176054 12.1975113 36.5029732 11.71 36.85 10.3389864 37.9084374 10.083949 39.8771474 11.14 41.25 12.0961286 42.7015125 14.0472649 43.10427 15.5 42.15 16.1575174 41.6793322 16.585977 40.9531294 16.68 40.15 16.7949006 39.2949345 16.5764855 38.4284351 16.07 37.73 15.5741543 37.0339617 14.8356846 36.5487836 14 36.37 13.7956241 36.3318956 13.5878409 36.3151389 13.38 36.32L13.38 36.32zM36 54C33.7363938 54.1145522 31.6313089 52.83872 30.6854616 50.7790093 29.7396144 48.7192986 30.1437938 46.2911781 31.7058607 44.648929 33.2679276 43.0066799 35.6727943 42.4815639 37.7772337 43.3232109 39.8816732 44.1648579 41.2611945 46.2034975 41.26 48.47 41.3327135 51.4488652 38.9787738 53.9236345 36 54zM36 45C34.5427549 44.8805584 33.1613308 45.6667918 32.5198742 46.9807031 31.8784176 48.2946144 32.1081495 49.8674204 33.0986219 50.942964 34.0890943 52.0185076 35.6376888 52.3767678 36.9998886 51.845504 38.3620884 51.3142402 39.2592319 50.0021317 39.26 48.54 39.3333404 46.6636938 37.875984 45.0811657 36 45L36 45zM23.33 53.79L23.33 53.79C20.4395724 53.7682256 18.1017744 51.4304276 18.08 48.54 18.0666353 47.1611051 18.6057464 45.8342282 19.5770535 44.8554062 20.5483605 43.8765842 21.871043 43.3272628 23.25 43.329972L23.25 43.329972C25.385543 43.3230601 27.3141591 44.6055995 28.1336587 46.5776574 28.9531583 48.5497153 28.5015136 50.8213852 26.99 52.33 26.0099698 53.2798134 24.6946959 53.8044855 23.33 53.79zM23.22 45.33C22.3732069 45.3272524 21.5607405 45.6644843 20.9647907 46.2660739 20.368841 46.8676636 20.0392766 47.6832703 20.05 48.53 20.0637265 49.3963377 20.4238777 50.221084 21.05 50.82 21.6545148 51.4288477 22.4770177 51.7712614 23.335 51.7712614 24.1929823 51.7712614 25.0154852 51.4288477 25.62 50.82L25.62 50.82C26.5208347 49.8781146 26.7763317 48.4912206 26.2702768 47.2901546 25.7642218 46.0890886 24.5932561 45.3032178 23.29 45.29L23.22 45.33zM32.16 15.8000331C30.7599321 15.8003354 29.4175003 15.2424884 28.43 14.25 27.4401958 13.2729848 26.8821096 11.9407791 26.88 10.55 26.8625107 9.16326145 27.407228 7.82852379 28.39 6.85 30.4444993 4.79550073 33.7755007 4.79550073 35.83 6.85 37.8844993 8.90449927 37.8844993 12.2355007 35.83 14.29L35.83 14.29C34.8562473 15.2615032 33.5354958 15.8049187 32.16 15.8000331zM32.05 7.33998334C31.2032069 7.33725236 30.3907405 7.67448432 29.7947907 8.27607395 29.198841 8.87766358 28.8692766 9.69327031 28.88 10.54 28.8839288 11.8477854 29.6690073 13.0266412 30.8741909 13.534431 32.0793745 14.0422209 33.4713615 13.7806459 34.41 12.87L34.41 12.87C35.0101776 12.2675409 35.3449618 11.4503797 35.3400544 10.6 35.3181516 8.79698887 33.8531356 7.3453317 32.05 7.33998334L32.05 7.33998334zM29.08 41.1700103C27.6860306 41.172768 26.3490882 40.6168094 25.3681104 39.6264352 24.3871326 38.6360611 23.8439438 37.2938797 23.86 35.9 23.8924386 32.975387 26.255387 30.6124386 29.18 30.58 30.5848922 30.5384876 31.9423814 31.0901944 32.92 32.1 34.9724791 34.1829341 34.9501044 37.5346532 32.87 39.59L32.87 39.59C31.8781493 40.5918836 30.5297654 41.1600026 29.12 41.1700103L29.08 41.1700103zM29.23 32.58L29.23 32.58C27.3943894 32.6015977 25.9115977 34.0843894 25.89 35.92 25.8737516 36.7816164 26.2067965 37.6131519 26.8133276 38.2253339 27.4198587 38.8375159 28.24827 39.1782576 29.11 39.17L29.11 39.17C29.9937432 39.1557644 30.8369818 38.7969395 31.46 38.17L31.46 38.17C32.7526134 36.8935721 32.7749278 34.8138694 31.51 33.51 30.9044682 32.908297 30.0836233 32.5734787 29.23 32.58L29.23 32.58zM31.57 29.7800904C30.1743585 29.7882336 28.8342171 29.2340182 27.8520474 28.2424407 26.8698777 27.2508633 26.3284626 25.9054996 26.35 24.51 26.3026343 22.0906534 27.8999276 19.9464305 30.2316012 19.2992987 32.5632749 18.6521669 35.0371841 19.6664697 36.2434774 21.764168 37.4497707 23.8618662 37.0821015 26.5102349 35.35 28.2L35.35 28.2C34.3631085 29.2031509 33.0171953 29.7717453 31.61 29.7800904L31.57 29.7800904zM31.72 21.19C30.8251565 21.1931086 29.9685194 21.5530401 29.34 22.19 28.0419432 23.4641139 28.0195804 25.5483274 29.29 26.85 29.9185547 27.4743223 30.7717402 27.8196953 31.6575912 27.8084106 32.5434422 27.7971258 33.387553 27.4301312 34 26.79 35.2841338 25.5020636 35.2841338 23.4179364 34 22.13 33.3973876 21.5227256 32.5755036 21.1838787 31.72 21.19zM45.55 42.39C44.4427368 42.3950939 43.3630901 42.0445593 42.47 41.39 40.116779 39.6341414 39.5655504 36.3355896 41.22 33.91 42.0090287 32.7458474 43.2421742 31.9575022 44.63 31.73 47.5307662 31.2805215 50.2489614 33.2610486 50.71 36.16L50.71 36.16C51.2254448 39.0531616 49.301925 41.8176621 46.41 42.34 46.1253056 42.3813766 45.8375713 42.3981053 45.55 42.39zM45.49 33.64C44.4407862 33.6238166 43.4532711 34.1344708 42.86 35 41.8183978 36.5368078 42.1709396 38.6212113 43.66 39.73 44.3533786 40.2464931 45.2267104 40.4594129 46.08 40.32 47.7678988 39.9746194 48.928292 38.4181351 48.7773846 36.7018842 48.6264773 34.9856333 47.212271 33.6555296 45.49 33.61L45.49 33.64zM19.75 26.72L19.75 26.72C17.6344205 26.7110529 15.7292588 25.4378504 14.9116986 23.4866067 14.0941384 21.5353631 14.5226752 19.284354 16 17.77L16 17.77C18.0544993 15.7155007 21.3855007 15.7155007 23.44 17.77 25.4944993 19.8244993 25.4944993 23.1555007 23.44 25.21 22.460728 26.1854934 21.1322002 26.7291457 19.75 26.72L19.75 26.72zM17.39 19.18C16.4907975 20.1256446 16.2376785 21.5143625 16.7454185 22.7164478 17.2531585 23.918533 18.4251656 24.7053024 19.73 24.7200544 20.5803797 24.7249618 21.3975409 24.3901776 22 23.79 22.6040028 23.1900881 22.9394745 22.3712484 22.93 21.52 22.9116387 20.2193799 22.1264422 19.0524979 20.9285242 18.5456031 19.7306062 18.0387084 18.3463352 18.2875878 17.4 19.18L17.39 19.18zM43.78 26.1C40.8036419 26.0182028 38.4528323 23.5467241 38.52 20.57 38.4356956 18.6378843 39.4184464 16.8153397 41.0790682 15.8241213 42.7396899 14.832903 44.8103101 14.832903 46.4709318 15.8241213 48.1315536 16.8153397 49.1143044 18.6378843 49.03 20.57 49.1027671 23.5450641 46.7548301 26.0182244 43.78 26.1zM43.78 17.04C41.9055732 17.1158143 40.4467395 18.6954717 40.52 20.57 40.4010584 21.8075106 40.9941443 23.005424 42.050399 23.6610959 43.1066536 24.3167678 44.4433464 24.3167678 45.499601 23.6610959 46.5558557 23.005424 47.1489416 21.8075106 47.03 20.57 47.0761571 19.6646639 46.7588656 18.7783814 46.1486125 18.1080418 45.5383594 17.4377023 44.6856805 17.0388173 43.78 17L43.78 17.04z"/>
    </g>
  </g>
</svg>
