<svg xmlns="http://www.w3.org/2000/svg" width="64" height="64" viewBox="0 0 64 64" style="background:#fff">
  <g id="Maismehl" fill="none" fill-rule="evenodd" stroke="none" stroke-width="1">
    <rect width="64" height="64" fill="#FFF"/>
    <g transform="translate(2 4)">
      <rect id="Rectangle" width="60" height="60" x="0" y="0"/>
      <path id="Path" fill="#EBE53F" fill-rule="nonzero" d="M38.91 31.71C36.326157 27.9676154 31.4728151 26.5487536 27.28 28.31 26.7123826 28.5568106 26.188838 28.8945813 25.73 29.31 23.12 29.36 21.45 33.31 20.66 35.31 19.17 38.89 18.24 43 20 46.79 23.07 53.48 30.06 51.31 36 51.79 37.51 51.91 39.5 50.32 40.11 49.06 42.66 43.58 42.7 36.75 38.91 31.71zM37.39 7.16C35.21 5.52 32.87 6.16 30.39 5.84 28.29 5.58 26.63 5.07 24.88 6.64 24.2383579 7.23524135 23.6979497 7.93101693 23.28 8.7 19.49 9.2 19.76 18.07 23.84 18.0400759 28.3 18.0400759 32.75 17.98 37.21 17.82 39.37 17.75 40.07 14.9 40.07 13.22 40.1814818 10.8905503 39.1883319 8.64484559 37.39 7.16z" opacity=".5"/>
      <path id="Shape" fill="#3D454C" fill-rule="nonzero" d="M45.47,36.51 C45.6552383,35.8794553 45.8021732,35.2382849 45.91,34.59 C46.0556725,33.7074454 46.1292489,32.8144957 46.13,31.92 C46.1246392,29.4966269 45.5779947,27.1050568 44.53,24.92 C46.5438321,23.9435796 47.6130943,21.702788 47.1052978,19.5230955 C46.5975013,17.343403 44.6480164,15.8058799 42.41,15.82 L40.77,15.82 L36.71,9.69 C36.0417617,8.68585376 34.9161712,8.08178683 33.71,8.08 C33.048236,8.08302609 32.3992584,8.26253055 31.83,8.6 L31.68,8.3 C31.0020539,6.9390478 29.6501405,6.04259669 28.1326404,5.94775293 C26.6151404,5.85290918 25.1621273,6.57405239 24.32,7.84 L19,15.78 L17.38,15.78 C15.1419836,15.7658799 13.1924987,17.303403 12.6847022,19.4830955 C12.1769057,21.662788 13.2461679,23.9035796 15.26,24.88 C14.2120053,27.0650568 13.6653608,29.4566269 13.66,31.88 C13.6607511,32.7744957 13.7343275,33.6674454 13.88,34.55 C13.9867181,35.1985034 14.1336685,35.8397413 14.32,36.47 C11.7735416,39.8508434 10.3943226,43.9674436 10.39,48.2 C10.3906219,49.9719665 10.6362821,51.7353351 11.12,53.44 C11.1959396,53.708829 11.380864,53.933639 11.63,54.06 C16.5,56.58 23,58 29.89,58 C36.78,58 43.3,56.58 48.17,54.1 C48.419136,53.973639 48.6040604,53.748829 48.68,53.48 C50.310393,47.6224204 49.1240765,41.3397474 45.47,36.48 L45.47,36.51 Z M17.38,17.78 L26.45,17.78 C27.0022847,17.78 27.45,17.3322847 27.45,16.78 C27.45,16.2277153 27.0022847,15.78 26.45,15.78 L21.45,15.78 L26,9 C26.4435084,8.33711041 27.2035833,7.95707298 28,8 C28.7954133,8.03740795 29.5111719,8.49427514 29.88,9.2 L30.63,10.69 C30.7884055,11.0108044 31.1061321,11.2225381 31.4631927,11.2452414 C31.8202534,11.2679447 32.1622385,11.098158 32.36,10.8 C32.6699828,10.3685544 33.1687424,10.1127565 33.7,10.1127565 C34.2312576,10.1127565 34.7300172,10.3685544 35.04,10.8 L38.36,15.8 L35.05,15.8 C34.6927344,15.8 34.3626074,15.9905989 34.1839746,16.3 C34.0053418,16.6094011 34.0053418,16.9905989 34.1839746,17.3 C34.3626074,17.6094011 34.6927344,17.8 35.05,17.8 L42.41,17.8 C43.8293303,17.815918 45.0122138,18.8913662 45.1627982,20.3027756 C45.3133825,21.714185 44.3840234,23.01499 43,23.33 L43,23.33 C42.8115959,23.3615158 42.6210137,23.3782335 42.43,23.38 L17.43,23.38 C16.3879016,23.4422495 15.3971888,22.9216501 14.8573346,22.0281169 C14.3174805,21.1345837 14.3174805,20.0154163 14.8573346,19.1218831 C15.3971888,18.2283499 16.3879016,17.7077505 17.43,17.77 L17.38,17.78 Z M46.87,52.52 C41.5246543,54.8999927 35.7199918,56.0711687 29.87,55.95 C24.0198313,56.0731481 18.2147412,54.9018858 12.87,52.52 C12.5098312,51.1218902 12.3283844,49.6837555 12.3299893,48.24 C12.3354583,44.279463 13.6819122,40.4374871 16.15,37.34 C16.3840644,37.0622737 16.4491408,36.6794711 16.32,36.34 C16.0871252,35.6485849 15.909894,34.9396603 15.79,34.22 C15.6645691,33.44293 15.6010361,32.6571274 15.6,31.87 C15.5994094,29.5942209 16.1446597,27.3514932 17.19,25.33 L42.54,25.33 C43.584241,27.3519041 44.1294254,29.5943605 44.13,31.87 C44.1341193,33.3891959 43.89094,34.8989344 43.41,36.34 C43.2808592,36.6794711 43.3459356,37.0622737 43.58,37.34 C46.0508304,40.4353143 47.3945147,44.2794504 47.3900191,48.24 C47.3921225,49.6825501 47.217488,51.1199259 46.87,52.52 L46.87,52.52 Z"/>
      <path id="Path" fill="#3D454C" fill-rule="nonzero" d="M30.78,17.86 C31.3322847,17.86 31.78,17.4122847 31.78,16.86 C31.78,16.3077153 31.3322847,15.86 30.78,15.86 C30.2277153,15.86 29.78,16.3077153 29.78,16.86 C29.78,17.4122847 30.2277153,17.86 30.78,17.86 Z"/>
      <path id="Shape" fill="#3D454C" fill-rule="nonzero" d="M38.64,42.82 C39.0082075,42.321939 39.2078913,41.7193844 39.21,41.1 L39.21,39.87 C39.2147474,38.5644762 38.6078,37.332077 37.57,36.54 C37.8837277,36.0616935 38.0505882,35.5020156 38.05,34.93 L38.05,34.31 C38.0714695,33.4108453 37.734742,32.5400134 37.1139435,31.8892066 C36.4931451,31.2383998 35.6391665,30.8609688 34.74,30.84 L33.21,30.84 C32.6011727,30.0663151 31.6744556,29.6103114 30.69,29.6 L29.54,29.6 C28.5485114,29.6042474 27.6131941,30.060859 27,30.84 L25.49,30.84 C24.5908335,30.8609688 23.7368549,31.2383998 23.1160565,31.8892066 C22.495258,32.5400134 22.1585305,33.4108453 22.18,34.31 L22.18,34.93 C22.1794118,35.5020156 22.3462723,36.0616935 22.66,36.54 C21.614671,37.3279242 20.9999953,38.5609785 21,39.87 L21,41.1 C20.9999268,41.5940109 21.127371,42.0796769 21.37,42.51 C20.4048531,43.1671836 19.830996,44.262388 19.8398956,45.43 L19.8398956,47.28 C19.8398956,47.8322847 20.2877153,48.28 20.84,48.28 C21.3922847,48.28 21.84,47.8322847 21.84,47.28 L21.84,45.43 C21.8229765,44.6680572 22.4185592,44.0324727 23.18,44 L25.78,44 C25.6960752,44.2756209 25.6522922,44.5618941 25.65,44.85 L25.65,47.32 C25.6339148,48.0600028 25.912542,48.7760698 26.4245526,49.3105864 C26.9365633,49.845103 27.6399899,50.154257 28.38,50.17 L31.85,50.17 C32.5900101,50.154257 33.2934367,49.845103 33.8054474,49.3105864 C34.317458,48.7760698 34.5960852,48.0600028 34.58,47.32 L34.58,44.81 C34.5777078,44.5218941 34.5339248,44.2356209 34.45,43.96 L36.45,43.96 C37.2156872,44.0082833 37.7998812,44.6638293 37.76,45.43 L37.76,47.28 C37.76,47.8322847 38.2077153,48.28 38.76,48.28 C39.3122847,48.28 39.7601326,47.8322847 39.7601326,47.28 L39.7601326,45.43 C39.7685614,44.4415608 39.362295,43.494815 38.64,42.82 Z M34.74,32.82 C35.108873,32.8406172 35.4543627,33.0072358 35.7001603,33.2830544 C35.9459579,33.5588731 36.071839,33.9211973 36.05,34.29 L36.05,34.91 C36.0788285,35.3448805 35.7542461,35.7228189 35.32,35.76 L33.87,35.76 C33.9573152,35.4848771 34.0044679,35.198593 34.01,34.91 L34.01,33.07 C34.014876,32.9934109 34.014876,32.9165891 34.01,32.84 L34.74,32.82 Z M32,41.1 C32.0288134,41.5403939 31.699765,41.9228015 31.26,41.96 L29,41.96 C28.560235,41.9228015 28.2311866,41.5403939 28.26,41.1 L28.26,38.63 C28.2313683,38.1915205 28.561755,37.8120222 29,37.78 L31.31,37.78 C31.748245,37.8120222 32.0786317,38.1915205 32.05,38.63 L32,41.1 Z M23.75,42 C23.5292223,41.985036 23.3241785,41.8803988 23.1825158,41.7104035 C23.0408531,41.5404083 22.9749063,41.3198568 23,41.1 L23,39.87 C22.9489585,38.7724506 23.7928628,37.8392443 24.89,37.78 L26.34,37.78 C26.2526848,38.0551229 26.2055321,38.341407 26.2,38.63 L26.2,41.1 C26.2045664,41.3919522 26.2517304,41.6816739 26.34,41.96 L23.75,42 Z M29.54,31.6 L30.69,31.6 C31.4556872,31.6482833 32.0398812,32.3038293 32,33.07 L32,34.93 C32.0286317,35.3684795 31.698245,35.7479778 31.26,35.78 L29,35.78 C28.561755,35.7479778 28.2313683,35.3684795 28.26,34.93 L28.26,33.07 C28.2194881,32.3146708 28.7862764,31.6637499 29.54,31.6 Z M24.18,34.93 L24.18,34.31 C24.158161,33.9411973 24.2840421,33.5788731 24.5298397,33.3030544 C24.7756373,33.0272358 25.121127,32.8606172 25.49,32.84 L26.25,32.84 C26.245124,32.9165891 26.245124,32.9934109 26.25,33.07 L26.25,34.93 C26.2555321,35.218593 26.3026848,35.5048771 26.39,35.78 L24.91,35.78 C24.4757539,35.7428189 24.1511715,35.3648805 24.18,34.93 L24.18,34.93 Z M32.58,44.81 L32.58,47.28 C32.6088285,47.7148805 32.2842461,48.0928189 31.85,48.13 L28.38,48.13 C27.9457539,48.0928189 27.6211715,47.7148805 27.65,47.28 L27.65,44.81 C27.6211715,44.3751195 27.9457539,43.9971811 28.38,43.96 L31.85,43.96 C32.2842461,43.9971811 32.6088285,44.3751195 32.58,44.81 L32.58,44.81 Z M35.9,42 L33.9,42 C33.9786791,41.7067878 34.0123964,41.4033317 34,41.1 L34,38.63 C33.9944679,38.341407 33.9473152,38.0551229 33.86,37.78 L35.31,37.78 C36.4071372,37.8392443 37.2510415,38.7724506 37.2,39.87 L37.2,41.1 C37.229071,41.5368424 36.9057629,41.9177259 36.47,41.96 L35.9,42 Z"/>
    </g>
  </g>
</svg>
