<svg xmlns="http://www.w3.org/2000/svg" width="64" height="64" viewBox="0 0 64 64" style="background:#fff">
  <g id="Mais" fill="none" fill-rule="evenodd" stroke="none" stroke-width="1">
    <rect width="64" height="64" fill="#FFF"/>
    <g transform="translate(2 8)">
      <rect id="Rectangle" width="60" height="60" x="0" y="0"/>
      <path id="Path" fill="#31E085" fill-rule="nonzero" d="M29.79,35.24 C28.1278749,34.5570955 26.3638791,34.1549585 24.57,34.05 C25.1,31.8 24.73,29.43 24.72,27.05 C24.72,21.77 22.89,12.87 16.35,12.37 C14.12,12.19 13.05,15.78 13.22,17.37 C13.54,20.37 14.54,23.57 14.01,26.62 C13.39,30.18 11.19,33.45 9.42,36.52 C7,40.84 7.22,50.92 13.82,51.31 C19.21,51.62 24.98,52.71 30.18,51.08 C36,49.26 34.81,37.22 29.79,35.24 Z" opacity=".5"/>
      <path id="Path" fill="#EBE53F" fill-rule="nonzero" d="M43.19,6.68 C37.85,5.91 31.87,7.93 29,12.52 C28.7952367,12.4803333 28.5847633,12.4803333 28.38,12.52 C27.2403524,12.5790292 26.1952607,13.1719889 25.56,14.12 C23.3,17.79 24.63,22.12 24.43,26.12 C24.27,29.12 27.03,35.46 31.32,33.46 C33.49,32.46 36.19,33.76 38.49,33.86 C40.8743953,33.9343207 43.2462743,33.4872471 45.44,32.55 C50.9323544,30.280278 54.4285391,24.8284649 54.2,18.89 C54.1301092,12.6274847 49.4119482,7.3950827 43.19,6.68 Z" opacity=".5"/>
      <path id="Shape" fill="#3D454C" fill-rule="nonzero" d="M52,18.09 L50.34,16.43 C50.4794288,15.1640107 50.0382433,13.9029554 49.14,13 L48,11.82 C47.2066019,11.0213048 46.1257731,10.5745622 45,10.58 C44.8391231,10.5867672 44.6788178,10.6034657 44.52,10.63 L42.87,9 C42.0760057,8.20123883 40.9962533,7.75209658 39.87,7.75209658 C38.7437467,7.75209658 37.6639943,8.20123883 36.87,9 L36.3,9.57 C35.7294566,10.1342405 35.3754795,10.8811321 35.3,11.68 C33.6166906,11.2807226 31.8465853,11.7799831 30.62,13 L29.48,14.1 C28.9898718,14.5936878 28.6619533,15.2251053 28.54,15.91 C28.1506528,15.7917315 27.7468389,15.7277943 27.34,15.72 C26.2163217,15.7152541 25.1369321,16.1578038 24.34,16.95 L23.48,17.81 C22.153651,15.1578474 20.4040663,12.7395024 18.3,10.65 C17.9252086,10.3255996 17.3693343,10.3247154 16.9935129,10.6479219 C16.6176914,10.9711284 16.535357,11.520872 16.8,11.94 C18.91,15.1 19.33,21.94 14.64,26.65 L14.46,26.83 C14.2117004,27.0890176 14.1204464,27.4608259 14.2206123,27.8053684 C14.3207783,28.1499109 14.5971468,28.4148434 14.9456123,28.5003684 C15.2940779,28.5858934 15.6617004,28.4790176 15.91,28.22 L16.06,28.06 C19.221812,24.9147995 20.7566649,20.4873392 20.22,16.06 C24.6632824,22.4281995 25.7020492,30.5701887 23,37.85 C22.9104227,38.1005974 22.9244292,38.3765642 23.0389187,38.6168044 C23.1534081,38.8570446 23.3589357,39.0417396 23.61,39.13 C23.7189975,39.1695611 23.8340452,39.1898636 23.95,39.19 C24.3710301,39.1898209 24.7468498,38.9259474 24.89,38.53 C25.15,37.78 25.37,37.04 25.57,36.32 C25.6530052,36.3304577 25.7369948,36.3304577 25.82,36.32 C33.66,35.01 40.4,38.04 44.54,40.68 C40.2239118,40.2732752 35.9526501,41.8217911 32.9,44.9 C28.7364658,49.302852 21.8781847,49.7394071 17.19,45.9 C16.9126439,45.6631664 16.5283466,45.5961133 16.1871744,45.7250245 C15.8460023,45.8539358 15.6020688,46.1583648 15.5506289,46.5194333 C15.4991891,46.8805018 15.6484017,47.2409407 15.94,47.46 C16.7293602,48.0793066 17.5805373,48.6154812 18.48,49.06 L16.94,50.6 C16.6965528,50.8323817 16.3134472,50.8323817 16.07,50.6 L10.37,44.9 C10.1323815,44.6586746 10.1323815,44.2713254 10.37,44.03 L12,42.45 C12.1837887,42.6323408 12.4311318,42.7362966 12.69,42.74 C12.8359502,42.7404534 12.979914,42.7061763 13.11,42.64 C13.6040805,42.4053245 13.8179343,41.8172264 13.59,41.32 C12.5652054,39.1380295 12.2571676,36.6877293 12.71,34.32 C12.7760941,33.9627344 12.6465687,33.5973466 12.3702147,33.3614746 C12.0938607,33.1256026 11.7126628,33.055081 11.3702147,33.1764746 C11.0277666,33.2978682 10.7760941,33.5927344 10.71,33.95 C10.3027647,36.1090559 10.4367559,38.3353711 11.1,40.43 L9,42.62 C7.98146298,43.6391428 7.98146298,45.2908572 9,46.31 L14.7,52.01 C15.1898273,52.5021988 15.8556007,52.7789134 16.55,52.7789134 C17.2443993,52.7789134 17.9101727,52.5021988 18.4,52.01 L20.55,49.86 C21.8431962,50.2724977 23.1926099,50.4816568 24.55,50.48 C28.2578909,50.4584035 31.8036955,48.9572862 34.4,46.31 C39,41.63 45.87,42.05 49,44.15 C49.4255181,44.4137209 49.9804812,44.3221539 50.2987252,43.9357148 C50.6169691,43.5492757 50.6004213,42.9870527 50.26,42.62 C47.9093796,40.4042572 45.2396738,38.5536657 42.34,37.13 L43.42,36.05 C44.3540557,35.1084014 44.7910981,33.7824594 44.6,32.47 C45.4467131,32.4338509 46.2477867,32.0762287 46.84,31.47 L48,30.34 C48.9469333,29.4013333 49.4797333,28.1233333 49.48,26.79 C49.4780179,26.3913957 49.424234,25.9947396 49.32,25.61 C50.1176828,25.5407988 50.8634855,25.1856547 51.42,24.61 L51.99,24.04 C53.6233898,22.3945653 53.6278498,19.7409158 52,18.09 Z M46.6,13.24 L47.74,14.38 C48.1564672,14.7963489 48.3904459,15.3611101 48.3904459,15.95 C48.3904459,16.5388899 48.1564672,17.1036511 47.74,17.52 L46,19.24 C45.4441987,19.7837287 44.5558013,19.7837287 44,19.24 L41.73,17 C41.1808889,16.4464045 41.1808889,15.5535955 41.73,15 L43.44,13.29 C44.3078104,12.4339565 45.6954577,12.4119303 46.59,13.24 L46.6,13.24 Z M43,21.65 C42.9962851,22.0235079 42.8495549,22.3813865 42.59,22.65 L40.31,24.93 C39.7541987,25.4737287 38.8658013,25.4737287 38.31,24.93 L36,22.66 C35.7331974,22.395371 35.5821674,22.0357758 35.58,21.66 C35.58,21.2837735 35.7313205,20.9233586 36,20.66 L38.28,18.38 C38.84,17.8466667 39.72,17.8466667 40.28,18.38 L42.56,20.66 C42.830833,20.91952 42.9888526,21.2750642 43,21.65 Z M37.87,27.92 C37.8678326,28.2957758 37.7168026,28.655371 37.45,28.92 L35.17,31.2 C34.612065,31.7384711 33.727935,31.7384711 33.17,31.2 L33.17,31.2 L29.75,27.78 C29.2008889,27.2264045 29.2008889,26.3335955 29.75,25.78 L32,23.5 C32.2633245,23.2312455 32.6237437,23.0797959 33,23.0797959 C33.3762563,23.0797959 33.7366755,23.2312455 34,23.5 L34.57,24.07 L36.85,26.35 L37.42,26.92 C37.7015448,27.1779302 37.8673508,27.5383778 37.88,27.92 L37.87,27.92 Z M37.3099731,11.92 C37.3076494,11.5433145 37.4593848,11.1820398 37.73,10.92 L38.3,10.34 C39.1832618,9.50316039 40.5667382,9.50316039 41.45,10.34 L42.45,11.34 C42.2821753,11.4559335 42.1248996,11.5864388 41.98,11.73 L40.27,13.44 C39.9216381,13.7867909 39.6551483,14.2070249 39.49,14.67 L38.26,13.44 L38.26,13.44 L37.74,13 C37.4713205,12.7366414 37.3199463,12.3762265 37.32,12 L37.3099731,11.92 Z M30.9,15.52 L32,14.38 C32.5640578,13.8058748 33.3351516,13.4824747 34.14,13.4824747 C34.9448484,13.4824747 35.7159422,13.8058748 36.28,14.38 L38.1,16.19 C37.6327108,16.3487493 37.2059913,16.6081948 36.85,16.95 L34.57,19.24 C34.2263844,19.5867185 33.9604945,20.0025975 33.79,20.46 L30.9,17.52 C30.6312455,17.2566755 30.4797959,16.8962563 30.4797959,16.52 C30.4797959,16.1437437 30.6312455,15.7833245 30.9,15.52 L30.9,15.52 Z M24.39,19.74 L25.76,18.37 C26.6412352,17.5280901 28.0287648,17.5280901 28.91,18.37 L29.48,18.94 L29.48,18.94 L31.85,21.31 C31.3870249,21.4751483 30.9667909,21.7416381 30.62,22.09 L28.34,24.37 C27.8218462,24.8848274 27.4879355,25.5561635 27.39,26.28 C26.9964177,26.2100436 26.5935823,26.2100436 26.2,26.28 C25.8878116,24.0296995 25.2791948,21.8306091 24.39,19.74 L24.39,19.74 Z M26,34.28 C26.3666272,32.3024365 26.4975406,30.2883844 26.39,28.28 C26.8764151,28.1448374 27.3980186,28.2780938 27.76,28.63 L32.32,33.19 C32.5813469,33.4566578 32.7253493,33.8166637 32.72,34.19 C30.4859519,33.9212683 28.2260499,33.9515348 26,34.28 L26,34.28 Z M42,34.63 L40.39,36.24 C38.5576242,35.4675035 36.6510345,34.8844691 34.7,34.5 C34.735384,34.194354 34.735384,33.885646 34.7,33.58 C35.4285229,33.4633931 36.099116,33.1122972 36.61,32.58 L38.89,30.3 C39.2360449,29.9513549 39.5021866,29.53167 39.67,29.07 L42,31.48 L42,31.48 C42.8575715,32.3548979 42.8575715,33.7551021 42,34.63 L42,34.63 Z M46.56,28.93 L45.42,30.07 C44.86,30.6033333 43.98,30.6033333 43.42,30.07 L42.85,29.5 L42.85,29.5 L40.5,27.13 C40.9611104,26.9610501 41.3805655,26.6950542 41.73,26.35 L44,24.07 C44.3460449,23.7213549 44.6121866,23.30167 44.78,22.84 L46.58,24.64 C47.1572382,25.2044214 47.4826266,25.9776739 47.4826266,26.785 C47.4826266,27.5923261 47.1572382,28.3655786 46.58,28.93 L46.56,28.93 Z M50.56,22.66 L49.99,23.23 C49.4260633,23.7533991 48.5539367,23.7533991 47.99,23.23 L47.99,23.23 L47.42,22.66 L47.42,22.66 L46.2,21.43 C46.6611104,21.2610501 47.0805655,20.9950542 47.43,20.65 L49.14,18.94 C49.2813267,18.7895457 49.4116622,18.6291328 49.53,18.46 L50.53,19.51 C51.412378,20.3665941 51.4347469,21.7758325 50.58,22.66 L50.56,22.66 Z"/>
      <path id="Path" fill="#3D454C" fill-rule="nonzero" d="M12.88,31.45 C13.4322847,31.45 13.88,31.0022847 13.88,30.45 C13.88,29.8977153 13.4322847,29.45 12.88,29.45 C12.3277153,29.45 11.88,29.8977153 11.88,30.45 C11.88,31.0022847 12.3277153,31.45 12.88,31.45 Z"/>
    </g>
  </g>
</svg>
