<svg xmlns="http://www.w3.org/2000/svg" width="64" height="64" viewBox="0 0 64 64" style="background:#fff">
  <g id="Majoran" fill="none" fill-rule="evenodd" stroke="none" stroke-width="1">
    <rect width="64" height="64" fill="#FFF"/>
    <g transform="translate(2 4)">
      <rect id="Rectangle" width="60" height="60" x="0" y="0"/>
      <path id="Path" fill="#31E085" fill-rule="nonzero" d="M53.88,24.57 C53.7329528,23.5284537 53.4851234,22.5036456 53.14,21.51 C55,14.74 51.8,3.07 45.6,7 C42.02,9.28 38.4566667,11.5766667 34.91,13.89 C33.11,12.16 30.45,11.4 28.37,13.21 C25.0812891,10.9029106 21.5785305,8.91712107 17.91,7.28 C14.16,5.54 11.36,10.65 11.01,13.55 C10.5216518,17.2471746 10.5654297,20.9952405 11.14,24.68 C3,24.39 1.71,43 9.7,45.57 C15.27,47.35 25.29,48.69 28.84,53.91 C31.3,57.54 36.32,57.84 38.55,53.68 C40.78,49.52 42.14,43.89 41,39.1 L41.31,38.94 C44.03,37.74 46.8,37.18 49.45,35.75 C53.28,33.66 54.39,28.62 53.88,24.57 Z" opacity=".5"/>
      <path id="Path" fill="#3D454C" fill-rule="nonzero" d="M23.9,26.88 C22.3691639,26.8935272 20.8804223,27.382785 19.64,28.28 C18.5586846,29.0742737 17.5692458,29.9865698 16.69,31 C16.180473,31.39551 15.9152503,32.0289456 15.990971,32.6695018 C16.0666917,33.3100581 16.4722983,33.8641943 17.06,34.13 C18.6304693,35.1779795 20.3740273,35.9397282 22.21,36.38 L22.44,36.38 C22.9106972,36.3937136 23.3271845,36.0771833 23.44,35.62 C23.5031387,35.3613651 23.4605381,35.0882296 23.3216365,34.8611066 C23.1827348,34.6339836 22.9589999,34.4716246 22.7,34.41 C21.0924137,34.0088868 19.5665023,33.3322076 18.19,32.41 L18.12,32.41 L18.18,32.35 C18.9601664,31.4361037 19.8388195,30.6111089 20.8,29.89 C21.6851679,29.2143785 22.766468,28.8457535 23.88,28.84 C24.4214918,28.814774 24.854774,28.3814918 24.88,27.84 C24.8589229,27.3110509 24.4292712,26.8901676 23.9,26.88 Z"/>
      <path id="Path" fill="#3D454C" fill-rule="nonzero" d="M17.94 40.49C14.1492024 39.5867247 10.6985058 37.6114266 8 34.8 7.63445246 34.4813526 7.36734322 34.0650785 7.23 33.6 7.18 33.17 7.47 32.6 8.14 31.92 11.4006704 28.5273403 15.866122 26.5550693 20.57 26.43 21.1222847 26.43 21.57 25.9822847 21.57 25.43 21.57 24.8777153 21.1222847 24.43 20.57 24.43 15.3091449 24.526894 10.3064232 26.7275153 6.68 30.54 5.73499037 31.3716526 5.21060523 32.5817722 5.25 33.84 5.41006578 34.7432153 5.86768216 35.5669248 6.55 36.18 9.51678868 39.2727243 13.311233 41.4459376 17.48 42.44L17.71 42.44C18.2622847 42.5035127 18.7614872 42.1072847 18.825 41.555 18.8885127 41.0027153 18.4922847 40.5035128 17.94 40.44L17.94 40.49zM24.42 43.81C24.8923339 44.2619112 25.5078987 44.5343163 26.16 44.58 26.2630958 44.5899096 26.3669042 44.5899096 26.47 44.58 27.0253543 44.4521509 27.5238809 44.1467156 27.89 43.71 30.0757403 41.3771578 31.5952705 38.500411 32.29 35.38 32.3900109 35.0230725 32.284383 34.640105 32.0155406 34.3849125 31.7466982 34.1297201 31.358751 34.0441728 31.0075141 34.1626298 30.6562772 34.2810868 30.399379 34.5841126 30.34 34.95 29.720625 37.7185361 28.3704357 40.2704283 26.43 42.34 26.3462259 42.4329079 26.2560019 42.5197902 26.16 42.6 26.16 42.6 26.03 42.6 25.73 42.32 24.4010066 41.1629905 23.4499602 39.6336521 23 37.93 22.9088973 37.5834524 22.6398339 37.3118319 22.2941635 37.2174554 21.9484931 37.1230788 21.5787312 37.2202843 21.3241635 37.4724554 21.0695958 37.7246264 20.9688973 38.0934524 21.06 38.44 21.6203424 40.5246184 22.790307 42.3944725 24.42 43.81L24.42 43.81zM26.57 26.08C26.8550903 26.5513036 27.4676306 26.7033209 27.94 26.42 30.3807616 24.975976 33.1640672 24.2128116 36 24.21L36.38 24.21C36.4407573 24.3728732 36.4679688 24.5463462 36.46 24.72 36.5367905 26.4805562 36.0801982 28.2232748 35.15 29.72 34.8612319 30.1845899 34.9993509 30.7949863 35.46 31.09 35.6180887 31.1921485 35.8017963 31.2476075 35.99 31.250002 36.3355015 31.2506914 36.6568845 31.0729855 36.84 30.78 37.9820639 28.9488568 38.5465474 26.8163638 38.46 24.66 38.4969118 23.8964164 38.1796005 23.1584833 37.6 22.66 37.1290738 22.3432775 36.5662527 22.1920193 36 22.23 32.8029682 22.2270482 29.6649626 23.0910365 26.92 24.73 26.4570187 25.0109822 26.301856 25.6094668 26.57 26.08L26.57 26.08zM22.26 24.66C22.3759561 24.6993746 22.4975416 24.7196389 22.62 24.72 23.0322928 24.7187821 23.4015757 24.4646519 23.55 24.08 24.9984685 20.3554873 27.6116018 17.198682 31 15.08 31.49 14.77 31.66 14.76 31.73 14.77 31.8 14.78 31.91 14.85 32.19 15.32 32.9924166 16.6680836 33.4684264 18.1851507 33.58 19.75 33.6050086 20.1072656 33.8187164 20.4240507 34.1406218 20.5810255 34.4625271 20.7380002 34.843725 20.7113163 35.1406218 20.5110255 35.4375186 20.3107346 35.6050086 19.9672656 35.58 19.61 35.4411199 17.7315955 34.8695507 15.910788 33.91 14.29 33.5623842 13.5986207 32.9545402 13.073501 32.22 12.83 31.4168539 12.6963449 30.5938777 12.8948698 29.94 13.38 26.1803091 15.7353515 23.282886 19.2431276 21.68 23.38 21.4904332 23.8934966 21.7489327 24.4639782 22.26 24.66z"/>
      <path id="Path" fill="#3D454C" fill-rule="nonzero" d="M53.55 30.18C50.8757868 25.8570487 46.3065129 23.0620339 41.24 22.65 40.9746302 22.6307707 40.7125379 22.7180874 40.511723 22.8926275 40.310908 23.0671676 40.1879288 23.3145392 40.17 23.58 40.1298101 24.1291179 40.5410621 24.6074218 41.09 24.65 45.2818658 24.9865045 49.1004273 27.1895208 51.49 30.65 47.2723587 36.3797748 40.1828332 39.2395779 33.17 38.04 32.8127344 37.9739059 32.4473466 38.1034313 32.2114746 38.3797853 31.9756026 38.6561393 31.905081 39.0373372 32.0264746 39.3797853 32.1478682 39.7222334 32.4427344 39.9739059 32.8 40.04 33.9638824 40.2592636 35.1456442 40.3697399 36.33 40.37 43.2124463 40.3460049 49.6432282 36.9399338 53.53 31.26 53.7472496 30.9348735 53.755063 30.5129471 53.55 30.18zM13.33 25.07L13.53 25.07C13.7899387 25.0170054 14.0181678 24.8628955 14.1644551 24.641589 14.3107425 24.4202825 14.3630985 24.1499175 14.31 23.89 13.2526629 18.7489256 13.4274285 13.4305684 14.82 8.37 14.8233019 8.31338143 14.8233019 8.25661857 14.82 8.2L15.1 8.26C18.8389909 9.30780466 21.988464 11.8360514 23.82 15.26 24.098857 15.7056178 24.675124 15.8592542 25.1388108 15.6116033 25.6024977 15.3639523 25.7952795 14.799574 25.58 14.32 23.4754591 10.4128511 19.8610528 7.53939803 15.58 6.37 14.9135749 6.13380267 14.1754119 6.21869141 13.58 6.6 13.1929431 6.93160156 12.9258547 7.38143464 12.82 7.88 11.347464 13.2443556 11.1624438 18.8806201 12.28 24.33 12.4043553 24.798574 12.8468967 25.1104604 13.33 25.07L13.33 25.07zM37.8 15.76C40.8472211 12.3610594 45.2370305 10.4770996 49.8 10.61 50.0836486 10.5918801 50.3669328 10.6506098 50.62 10.78 50.82 10.95 50.84 11.57 50.85 11.87 50.9744746 13.8336523 50.8873063 15.8049979 50.59 17.75 50.2644834 19.4500581 49.4714654 21.0257052 48.3 22.3 48.1310924 22.5053395 48.0509135 22.7694913 48.0771841 23.0340739 48.1034547 23.2986565 48.2340117 23.5418842 48.44 23.71 48.6186159 23.8533043 48.8410047 23.930964 49.07 23.9300089 49.3674322 23.930483 49.6496435 23.7985401 49.84 23.57 51.2192068 22.0393891 52.1469174 20.156275 52.52 18.13 52.8551231 16.0410548 52.9524106 13.9208574 52.81 11.81 52.8784329 10.8843631 52.5597674 9.97182091 51.93 9.29 51.3402095 8.82204576 50.6023178 8.58081193 49.85 8.61 44.6832262 8.42625497 39.706453 10.569644 36.29 14.45 35.9486926 14.8688272 36.0017783 15.4830228 36.4098867 15.8370772 36.8179951 16.1911315 37.4335351 16.1570018 37.8 15.76L37.8 15.76zM34.84 41.05C34.3017796 41.1323891 33.9283918 41.6302395 34 42.17 34.4712486 46.0227427 33.8654961 49.9307119 32.25 53.46 31.97 54.06 31.81 54.16 31.75 54.18 31.4702158 54.1299684 31.2043086 54.0208783 30.97 53.86 28.618305 52.6273522 26.4254936 51.1128684 24.44 49.35 22.5753416 47.6971286 21.3949398 45.4076485 21.13 42.93 21.1103504 42.5727344 20.9015945 42.2530903 20.5823686 42.0914746 20.2631427 41.9298589 19.8819449 41.9508247 19.5823686 42.1464746 19.2827923 42.3421245 19.1103504 42.6827344 19.13 43.04 19.4100549 46.0150762 20.7900476 48.7786275 23 50.79 25.0997867 52.6693862 27.4241236 54.281643 29.92 55.59 30.4414873 55.9367549 31.0450149 56.1402299 31.67 56.18 31.8417486 56.1797952 32.0128933 56.1596606 32.18 56.12 33.0314681 55.8154761 33.7001462 55.143124 34 54.29 35.7986832 50.4312397 36.4910473 46.1489674 36 41.92 35.9682033 41.647739 35.8260399 41.400466 35.6067507 41.2359991 35.3874615 41.0715322 35.1102737 41.0042917 34.84 41.05zM24 33.15C24.5008005 33.617835 25.0506543 34.0302253 25.64 34.38 26.1593544 34.7647523 26.7758468 34.9968028 27.42 35.05 27.6517015 35.0474308 27.8814145 35.0068932 28.1 34.93 28.5816636 34.7380161 29.0005574 34.4160564 29.31 34 30.3409074 32.8027559 31.1807995 31.4535317 31.8 30 32.0186419 29.6696984 32.0217127 29.2414743 31.8078302 28.908071 31.5939477 28.5746678 31.2034309 28.3989352 30.8120511 28.4599704 30.4206713 28.5210056 30.1022075 28.8073029 30 29.19 29.4680114 30.471864 28.739244 31.6628589 27.84 32.72 27.78 32.79 27.59 33.02 27.5 33.05 27.2200838 32.9597147 26.9566638 32.8246275 26.72 32.65 26.2675182 32.3827398 25.8450895 32.0675946 25.46 31.71 25.2027688 31.4491961 24.8259401 31.3454346 24.4714617 31.4378014 24.1169833 31.5301683 23.8387089 31.8046307 23.7414617 32.1578014 23.6442145 32.5109722 23.7427688 32.8891961 24 33.15L24 33.15z"/>
    </g>
  </g>
</svg>
