<svg xmlns="http://www.w3.org/2000/svg" width="64" height="64" viewBox="0 0 64 64" style="background:#fff">
  <g id="Makrele" fill="none" fill-rule="evenodd" stroke="none" stroke-width="1">
    <rect width="64" height="64" fill="#FFF"/>
    <g transform="translate(2 4)">
      <rect id="Rectangle" width="60" height="60" x="0" y="0"/>
      <path id="Path" fill="#BAB41D" fill-rule="nonzero" d="M40.46,13.45 C36.2,13 30.78,18.88 28,21.62 C24.4,25.16 20.15,29.52 18.35,34.3 C17.74,35.93 18.95,41.04 21.45,38.77 C25.05,35.49 27.45,30.77 30.99,27.3 C34.27,24.06 39.42,21.36 41.62,17.3 C42.28,16.14 42.2,13.64 40.46,13.45 Z" opacity=".5"/>
      <path id="Shape" fill="#3D454C" fill-rule="nonzero" d="M56.6,8.16 C55.05,6.16 51.11,6.72 43.8,9.96 C42.58,10.5 41.42,11.07 40.31,11.65 C36.8821659,10.6652846 33.257596,10.5860402 29.79,11.42 C28.2348093,11.8279587 26.9435856,12.9100922 26.27,14.37 C24.3196769,18.606994 22.8343363,23.0428985 21.84,27.6 C19.92,27.35 17.76,27.45 16.34,29.13 C15.43437,30.1502252 15.0342926,31.5229679 15.25,32.87 C15.428801,33.919934 15.9574414,34.8785352 16.75,35.59 L15.45,37.59 C15.0467054,38.2358559 14.6794768,38.9035443 14.35,39.59 C13.42,41.4 12.62,42.96 10.83,43.59 C9.90596347,43.8699418 8.95892026,44.0673819 8,44.18 C5.94,44.48 3.62,44.82 2,46.61 C1.75967357,46.8719293 1.67646223,47.2417506 1.78143676,47.5813741 C1.88641129,47.9209976 2.1637897,48.1793639 2.51,48.26 C6.85007132,49.3369635 10.2647969,52.682782 11.43,57 C11.5192048,57.3598375 11.8001625,57.6407952 12.16,57.73 L12.4,57.73 C12.6821782,57.729333 12.9509408,57.6094794 13.14,57.4 C14.4474581,55.8272139 15.2368202,53.8887433 15.4,51.85 C15.5418202,50.2691933 16.0932856,48.7526633 17,47.45 L17,47.45 C17.7279685,46.5592148 18.6339841,45.8303151 19.66,45.31 L19.83,45.25 C21.5960271,44.6021883 23.3223517,43.8508865 25,43 C25.9348944,44.125793 27.2455841,44.8752659 28.69,45.11 C29.0010128,45.1579477 29.3153158,45.1813533 29.63,45.18 C30.9986517,45.1854042 32.3245047,44.7032758 33.37,43.82 C35.37,42.14 36.2,39.4 35.78,36.26 C37.3,35.1 38.88,33.83 40.49,32.4 L41.6,33 C42.4646939,33.425478 43.4163059,33.6445541 44.38,33.64 C46.2121279,33.6402671 47.9713372,32.9222225 49.28,31.64 C50.39,30.54 52.63,27.45 50.34,22.21 L51.53,20.72 C59,11.2 57.19,8.91 56.6,8.16 Z M44.6,11.79 C53.3,7.94 54.81,9.11 55,9.39 C55.52,10.06 55,12.93 49.94,19.46 C49.55,19.96 49.15,20.46 48.76,20.92 C43.92,19.92 42,15.27 41.41,13.32 C42.45,12.79 43.49,12.28 44.61,11.79 L44.6,11.79 Z M28.08,15.22 C28.5033752,14.2962396 29.3177371,13.6102681 30.3,13.35 C31.6530862,13.0067062 33.0440519,12.8353554 34.44,12.8399081 C35.5222134,12.8421107 36.6024552,12.9324096 37.67,13.11 L37.34,13.32 L36.91,13.58 C36.35,13.93 35.8,14.29 35.26,14.65 L35.15,14.72 C33.3095595,15.9836423 31.5617746,17.3771916 29.92,18.89 C29.8413412,18.9430506 29.7706323,19.0070253 29.71,19.08 C27.9295961,20.7606227 26.2594616,22.5543472 24.71,24.45 C25.5833054,21.2877177 26.710294,18.2010396 28.08,15.22 L28.08,15.22 Z M17.22,32.55 C17.1066819,31.7832645 17.3413427,31.0059505 17.86,30.43 C18.31,29.9 19.04,29.43 20.86,29.52 C19.86,30.89 18.86,32.34 17.86,33.87 C17.5267044,33.4989906 17.3048704,33.0414579 17.22,32.55 L17.22,32.55 Z M12.69,54.55 C11.1796031,51.1111583 8.39955873,48.3884344 4.93,46.95 C6.01382183,46.5399984 7.14687944,46.2743855 8.3,46.16 C9.37509797,46.0403486 10.436483,45.8193662 11.47,45.5 C11.7839119,45.39622 12.088358,45.2657431 12.38,45.11 C12.5222926,45.5094007 12.7319959,45.8814549 13,46.21 C13.4458557,46.7470819 14.0303501,47.1517319 14.69,47.38 C14.0386778,48.6991828 13.6160076,50.1193546 13.44,51.58 C13.3087233,52.5930047 13.0569405,53.5867074 12.69,54.54 L12.69,54.55 Z M19.17,43.37 L18.79,43.52 C17.7323512,44.0815534 16.7704126,44.8072264 15.94,45.67 C15.4137685,45.6221334 14.9230837,45.3839024 14.56,45 C14.2811353,44.6283096 14.1334239,44.1746246 14.1397896,43.71 C14.9384697,42.7497316 15.6106091,41.6911121 16.14,40.56 C16.47,39.91 16.78,39.3 17.14,38.72 C17.67,37.87 18.2,37.05 18.72,36.25 C18.735723,36.6136241 18.6814042,36.9768809 18.56,37.32 C18.11,38.53 20.04,39.05 20.49,37.85 C20.9267627,36.6190016 20.7872478,35.2568949 20.11,34.14 C21.23,32.44 22.3333333,30.8466667 23.42,29.36 L23.42,29.36 L24.04,28.53 L24.31,28.18 C25.0316207,28.9311359 25.3800203,29.9653326 25.26,31 C25.13,32.27 27.13,32.27 27.26,31 C27.4123337,29.343287 26.7793847,27.7109447 25.55,26.59 L25.66,26.46 C26.93,24.88 28.2,23.46 29.49,22.12 C29.6396939,22.4943952 29.838068,22.8474338 30.08,23.17 C31.42,24.98 32.68,26.25 31.86,28.68 C31.45,29.9 33.38,30.43 33.79,29.21 C34.302926,27.7871152 34.2780304,26.225808 33.72,24.82 C33.22,23.59 30.79,21.7 31.27,20.4 C32.02,19.7 32.79,19.04 33.57,18.4 L33.93,18.11 C34.32,17.81 34.71,17.51 35.1,17.23 C35.0989726,17.9094939 35.2070133,18.5847484 35.42,19.23 C35.82,20.45 37.75,19.93 37.35,18.7 C37.0200619,17.7477702 37.0200619,16.7122298 37.35,15.76 C37.35,15.76 37.35,15.76 37.35,15.71 L37.49,15.61 C38,15.29 38.49,14.98 39.05,14.67 L39.63,14.33 C40.4,16.66 42.5,21.17 47.34,22.68 C35.15,36.83 22.84,42.05 19.17,43.36 L19.17,43.37 Z M32.11,42.3 C31.2635336,43.0167187 30.1426124,43.3207594 29.05,43.13 C28.2274711,42.986046 27.469545,42.5913656 26.88,42 C29.3167569,40.6734728 31.6710549,39.2007843 33.93,37.59 C34.078849,39.3532535 33.4075454,41.0868396 32.11,42.29 L32.11,42.3 Z M47.87,30.2 C46.4780709,31.6115397 44.3660912,32.0315582 42.54,31.26 L42.09,31 C44.4783087,28.7976783 46.7386683,26.4605266 48.86,24 C49.7,26.47 49.38,28.7 47.87,30.19 L47.87,30.2 Z"/>
      <path id="Path" fill="#3D454C" fill-rule="nonzero" d="M49.05,13.18 C49.6022847,13.18 50.05,12.7322847 50.05,12.18 C50.05,11.6277153 49.6022847,11.18 49.05,11.18 C48.4977153,11.18 48.05,11.6277153 48.05,12.18 C48.05,12.7322847 48.4977153,13.18 49.05,13.18 Z"/>
    </g>
  </g>
</svg>
