<svg xmlns="http://www.w3.org/2000/svg" width="64" height="64" viewBox="0 0 64 64" style="background:#fff">
  <g id="Mandarinen" fill="none" fill-rule="evenodd" stroke="none" stroke-width="1">
    <rect width="64" height="64" fill="#FFF"/>
    <g transform="translate(2 4)">
      <rect id="Rectangle" width="60" height="60" x="0" y="0"/>
      <path id="Path" fill="#E0673A" fill-rule="nonzero" d="M41.11,36.83 C40.43,33.11 35.59,28.9 33.02,33.83 C32.02,35.65 31.63,37.67 29.96,38.95 C27.85,40.53 25,40.86 22.45,41 C20.2461436,41.2451039 18.0164801,41.1063843 15.86,40.59 C15.1343318,40.2427768 14.4357084,39.8416533 13.77,39.39 C13.87,39.21 13.98,39.01 14.1,38.77 C15.64,37.25 16.1,31.89 13.28,31.28 C7.7,30.09 4.66,35.28 4.49,40.35 C4.2145183,46.5744543 7.89294993,52.296459 13.67,54.63 C26.4,59.58 44,52.53 41.11,36.83 Z" opacity=".5"/>
      <path id="Path" fill="#E0673A" fill-rule="nonzero" d="M51.6,15.18 C49.5,9.52 44.31,4.12 37.85,4.32 C35.0615712,4.55349551 32.3877056,5.53460385 30.11,7.16 C28.72,8 27.39,9.21 26,10 C24.22,10.94 22.59,10.43 20.65,10.91 C14.28,12.49 13.06,20.45 14.56,25.91 C16.06,31.37 21.56,31.75 22.56,25.72 C23.14,21.83 22.73,25.08 22.74,25.08 C24.1635961,25.2803624 25.613092,25.188493 27,24.81 C30.17,24.12 32.24,22.65 35.07,21.19 C37.13,20.13 40.56,19.49 42.07,22.05 C43.32,24.2 41.77,27.4 41.82,29.87 C41.9,33.3 44.99,39.44 49.05,35.87 C54.23,31.29 53.82,21.18 51.6,15.18 Z" opacity=".5"/>
      <path id="Shape" fill="#3D454C" fill-rule="nonzero" d="M37.7,30.47 C37.5049465,30.191895 37.2946237,29.9248184 37.07,29.67 C33.15,25.28 24.92,25.85 24.29,25.89 C18.72,26.09 17.64,28.15 17.48,29.36 L17.48,29.41 C15.59,28.05 11.8,28.96 9.11,30.72 C7.90009172,31.4924054 6.90577822,32.5589701 6.22,33.82 L6.22,33.82 L6.16,33.92 C4.74575266,36.6658218 4.07680804,39.7346914 4.22,42.82 C4.78,51.87 15.31,54.26 16.82,54.55 C18.4087439,55.416055 20.1905487,55.8666658 22,55.8600729 C25.0459547,55.7529089 27.9839443,54.7048746 30.41,52.86 C31.46,52.99 33.83,52.93 36.58,50.47 C38.5806731,48.8960328 39.6030853,46.3837115 39.27,43.86 C41.1617992,39.4345824 40.5641893,34.33777 37.7,30.47 Z M37.43,42.9 C35.8368792,43.3121417 34.1580258,43.2495757 32.6,42.72 C33.2520235,42.6394438 33.8927935,42.4851223 34.51,42.26 C36.1566872,41.5900634 37.4988285,40.3369236 38.28,38.74 C38.2302353,40.1643175 37.9429504,41.5703238 37.43,42.9 L37.43,42.9 Z M24.43,27.9 L24.48,27.9 C24.48,27.9 25,27.9 25.78,27.9 C28.15,27.9 33.13,28.25 35.63,31.06 C36.9780005,32.5245615 37.4935402,34.5716682 37,36.5 C36.6243818,38.2288594 35.4414383,39.6721993 33.82,40.38 C32.5990999,40.8967784 31.2209001,40.8967784 30,40.38 C29.109785,39.9430662 28.4349717,39.1636027 28.13,38.22 C27.247556,34.8330989 24.5456146,32.2237955 21.13,31.46 C20.13,31.18 19.34,30.26 19.43,29.58 C19.52,28.9 20.9,28 24.38,27.89 L24.43,27.9 Z M20.66,33.42 C24.24,34.47 25.34,36.29 26.11,38.42 C24.9922503,37.4705075 23.6923536,36.7593075 22.29,36.33 C21.68,36.1 21.03,35.84 20.36,35.55 C18.96,34.92 18.83,33.98 18.74,32.49 C18.7449821,32.4234264 18.7449821,32.3565736 18.74,32.29 C19.2702782,32.8003849 19.9097602,33.1833902 20.61,33.41 L20.66,33.42 Z M6.26,42.72 C6.19946739,42.0046115 6.19946739,41.2853885 6.26,40.57 C6.26,40.57 6.26,40.57 6.26,40.57 C6.43,40.96 7.06,42.06 9.39,43.95 C9.59659343,44.1177705 9.86154091,44.1962689 10.1261825,44.1681156 C10.3908241,44.1399622 10.6333268,44.0074797 10.8,43.8 C11.1426824,43.3712485 11.0757366,42.7464209 10.65,42.4 C9.66113013,41.6999146 8.80448853,40.8297293 8.12,39.83 L8.12,39.83 C8.10948016,39.7845461 8.09265023,39.7407883 8.07,39.7 C7.19232529,38.1977778 7.13585538,36.3530942 7.92,34.8 L7.92,34.8 C7.92,34.8 7.92,34.8 7.92,34.8 C8.47718595,33.8292168 9.25904736,33.0062048 10.2,32.4 C12.87,30.65 15.76,30.4 16.41,31.12 C16.6324376,31.5765841 16.7323718,32.0831474 16.7,32.59 C16.78,34.03 16.91,36.2 19.49,37.35 C20.19,37.67 20.88,37.93 21.49,38.18 C23.92,39.12 25.1,39.64 25.21,41.18 C25.3052887,41.7598873 25.1407193,42.3523372 24.76,42.8 C23.9,43.74 21.6,44.24 17.95,44.3 C17.3977153,44.3 16.95,44.7477153 16.95,45.3 C16.95,45.8522847 17.3977153,46.3 17.95,46.3 L17.95,46.3 C22.18,46.23 24.68,45.61 26.03,44.3 C25.9386141,46.1572924 25.3136531,47.9488472 24.23,49.46 C22.75,51.38 20.37,52.46 17.14,52.57 C16.12,52.4 6.68,50.4 6.21,42.71 L6.26,42.72 Z M21.46,53.83 C23.2072542,53.2456297 24.7442611,52.1606837 25.88,50.71 C27.3337827,48.6644572 28.1196597,46.2195064 28.13,43.71 C29.53,45.91 31.18,49.29 29.41,51.1 C27.1517945,52.89533 24.344761,53.8592547 21.46,53.83 Z M35.2,49 C34.2758007,49.8965135 33.1300811,50.5314906 31.88,50.84 C32.66,48.68 31.75,46.08 30.63,44.01 C32.0274092,44.8066627 33.6115466,45.217365 35.22,45.2 C35.9211273,45.1936639 36.6203954,45.1267483 37.31,45 C37.197833,46.569976 36.4324359,48.0209658 35.2,49 L35.2,49 Z"/>
      <path id="Path" fill="#3D454C" fill-rule="nonzero" d="M13.9 43.87C13.3477153 43.87 12.9 44.3177153 12.9 44.87 12.9 45.4222847 13.3477153 45.87 13.9 45.87 14.4522847 45.87 14.9 45.4222847 14.9 44.87 14.9 44.3177153 14.4522847 43.87 13.9 43.87zM51.08 21.74C50.1090964 15.5003846 45.9997929 10.1975701 40.2 7.7 27.07 1.91 14.68 12.22 15.2 25.84 15.25 27.12 17.2 27.13 17.2 25.84 16.73 13.64 27.55 4.32 39.41 9.57 44.5644396 11.7619906 48.2185582 16.4639258 49.07 22 49.95 28.24 46.63 33.38 42.21 37.46 41.21 38.34 42.68 39.75 43.63 38.88 48.47 34.41 52 28.57 51.08 21.74z"/>
      <path id="Path" fill="#3D454C" fill-rule="nonzero" d="M37.14 13.83C38.01 14.77 39.43 13.36 38.55 12.41 37.3776677 11.1424806 35.8210465 10.2956505 34.12 10 32.86 9.78 32.32 11.7 33.59 11.93 34.9530084 12.147046 36.2033891 12.8162639 37.14 13.83zM25.39 15.76C25.8678162 14.5636645 26.8092032 13.611457 28 13.12 28.2560417 13.0498876 28.4736979 12.8808445 28.6050026 12.6501234 28.7363072 12.4194024 28.7704836 12.1459398 28.7 11.89 28.6298876 11.6339583 28.4608445 11.4163021 28.2301234 11.2849974 27.9994024 11.1536928 27.7259398 11.1195164 27.47 11.19 25.7851178 11.8242136 24.4239856 13.1061265 23.69 14.75 23.4415983 15.2248504 23.6116763 15.8111063 24.0756398 16.0792932 24.5396032 16.3474802 25.132504 16.2022526 25.42 15.75L25.39 15.76zM32.55 17.25C32.9092443 15.6770213 32.6816542 14.0269927 31.91 12.61 31.3 11.48 29.57 12.49 30.18 13.61 30.6998843 14.554935 30.8597521 15.6562468 30.63 16.71 30.35 18 32.28 18.51 32.55 17.25z"/>
    </g>
  </g>
</svg>
