<svg xmlns="http://www.w3.org/2000/svg" width="64" height="64" viewBox="0 0 64 64" style="background:#fff">
  <g id="Mandeln" fill="none" fill-rule="evenodd" stroke="none" stroke-width="1">
    <rect width="64" height="64" fill="#FFF"/>
    <g transform="translate(2 4)">
      <rect id="Rectangle" width="60" height="60" x="0" y="0"/>
      <path id="Path" fill="#C17953" fill-rule="nonzero" d="M52.26,27.5 C47.05,27.34 40.53,29.08 35.31,31.45 C36.4212753,25.7265317 35.3511349,19.7943865 32.31,14.82 C33.18,11.27 32.31,4.82 27.81,6.51 C21.13,9 15,17.16 12.1,23.37 C8.93,30.16 8.24,39.28 14.1,44.94 C16.3431599,47.2621522 19.7326066,48.06656 22.78,47 C22.7858409,47.5718839 22.8259126,48.1429053 22.9,48.71 C24.07,56.61 30.71,57.17 36.78,54.03 C43.3682534,50.5868992 48.789469,45.2700716 52.36,38.75 C53.1078924,37.3344194 53.479767,35.7505094 53.44,34.15 L53.59,34.03 C55.34,32.59 55,27.59 52.26,27.5 Z" opacity=".5"/>
      <path id="Path" fill="#3D454C" fill-rule="nonzero" d="M46.1,34.54 C45.53,34.76 44.78,35.09 44.19,35.35 L43.57,35.62 C42.001376,36.1655492 40.3306196,36.3534666 38.68,36.17 C36,36.08 32.9,36 30.56,39.29 C29.9783548,40.0413402 29.3433806,40.7498377 28.66,41.41 C28.11,41.97 27.55,42.54 27.1,43.07 C26.9299411,43.2740826 26.848074,43.5374438 26.8724631,43.8019715 C26.8968522,44.0664992 27.0254929,44.3104518 27.23,44.48 C27.4099121,44.6290812 27.6363478,44.7104565 27.87,44.7100503 C28.1658006,44.7129649 28.4477348,44.584813 28.64,44.36 C29.03,43.89 29.54,43.36 30.09,42.81 C30.8492939,42.0752159 31.5544657,41.2864929 32.2,40.45 C33.73,38.28 35.54,38.1 37.78,38.14 L36.55,39.25 C36.09,39.66 35.73,40 35.55,40.12 C35.08,40.49 34.92,40.63 34.55,40.97 C34.18,41.31 33.68,41.76 32.55,42.76 C32.2303552,43.0333043 32.1158664,43.4773952 32.2635338,43.8711748 C32.4112012,44.2649545 32.7894648,44.5242632 33.21,44.52 C33.4496226,44.517241 33.680287,44.428524 33.86,44.27 C35.03,43.27 35.57,42.77 35.92,42.46 C36.27,42.15 36.4,42.02 36.82,41.68 C36.98,41.55 37.39,41.18 37.89,40.68 C38.63,40.01 40.14,38.68 40.55,38.39 C40.6915685,38.3327228 40.8181378,38.2437822 40.92,38.13 C42.0968035,38.0937887 43.2579665,37.850046 44.35,37.41 L45,37.13 C45.56,36.88 46.26,36.57 46.81,36.37 C47.3291476,36.1739389 47.591061,35.5941477 47.3949999,35.075 C47.1989389,34.5558524 46.6191477,34.293939 46.1,34.49 L46.1,34.54 Z"/>
      <path id="Shape" fill="#3D454C" fill-rule="nonzero" d="M54.15,29.05 C53.34,28.2 52.15,28.43 50.46,28.74 C49.86,28.85 49.17,28.98 48.38,29.09 L46.49,29.32 C43.239537,29.6162987 40.0187824,30.1781748 36.86,31 C36.86,30.83 36.94,30.65 36.97,30.48 C37.5471733,27.2709269 37.3968122,23.9732333 36.53,20.83 C35.6945197,17.8111596 34.5518849,14.8858805 33.12,12.1 L32.93,11.71 C31.19,8.09 30.65,7.31 30.13,7.03 C29.651631,6.76184225 29.0860829,6.6954956 28.5586392,6.84565752 C28.0311954,6.99581945 27.5853971,7.35009388 27.32,7.83 C26.8198557,8.63465614 26.2293547,9.37949266 25.56,10.05 C24.6030248,11.0628712 23.5772518,12.0084535 22.49,12.88 C12.62,20.73 7.36,29.7 8.06,37.53 C8.28825714,40.8849359 9.84705887,44.0097394 12.39,46.21 C14.3980521,47.886896 16.9338692,48.8006402 19.55,48.79 C20.1357859,48.7911072 20.7208073,48.7476484 21.3,48.66 C21.4046709,48.6427891 21.5059368,48.6090338 21.6,48.56 C22.1909875,51.4300746 24.1422278,53.832749 26.83,55 C28.1529897,55.5696176 29.5796235,55.8590302 31.02,55.850205 C34.93,55.850205 39.3,53.85 43.54,50.15 C47.78,46.45 52.76,39.82 54.25,33.6 C54.8,31.29 55,29.89 54.15,29.05 Z M21,46.69 C18.379443,47.1121852 15.7041515,46.3832229 13.66,44.69 C11.5268495,42.8293039 10.2239236,40.1946581 10.04,37.37 C9.4,30.23 14.39,21.9 23.72,14.5 C24.8846767,13.5772311 25.9839789,12.5748279 27.01,11.5 C27.79026,10.6852938 28.4995046,9.80542899 29.13,8.87 C29.8885362,10.079206 30.55701,11.3426214 31.13,12.65 L31.33,13.05 C32.7027528,15.7153149 33.8017069,18.5129573 34.61,21.4 C35.3863938,24.2552009 35.5195948,27.247101 35,30.16 L34.82,31 C34.7743978,31.2120345 34.7989659,31.4331473 34.89,31.63 C34.34,31.81 33.78,32 33.2,32.21 L31.82,32.84 L31.82,32.84 C25.16,36.22 21.27,41.39 21.39,46.68 C21.2610886,46.6519097 21.1273024,46.6553401 21,46.69 Z M52.3,33.09 C50.91,38.86 46.09,45.18 42.2,48.61 C37,53.23 31.66,54.88 27.62,53.13 C25.0473868,52.0357224 23.3725764,49.5156437 23.36,46.72 C23.22,42.2 26.7,37.72 32.67,34.65 L33.97,34.06 C38.0859739,32.6037871 42.3702703,31.6763629 46.72,31.3 L48.65,31.07 C49.47,30.96 50.2,30.82 50.83,30.71 C51.4393445,30.5607541 52.0628733,30.4769464 52.69,30.46 C52.7143015,31.3519257 52.5857797,32.241432 52.31,33.09 L52.3,33.09 Z"/>
      <path id="Path" fill="#3D454C" fill-rule="nonzero" d="M27.56 32.16C31.19 25.48 30.7 21 30.13 15.77L30 14.38C29.974766 14.1142458 29.8443231 13.8696125 29.6377155 13.7005699 29.431108 13.5315274 29.1654886 13.4521097 28.9 13.48 28.6360525 13.5077136 28.3939476 13.6392149 28.2270134 13.8455381 28.0600791 14.0518613 27.9820092 14.3160818 28.01 14.58L28.14 16C28.7 21.07 29.14 25.08 25.81 31.21 23.81 34.89 20.3 38.13 15.09 41.12 14.6937873 41.3445181 14.4993119 41.808381 14.6169454 42.2483301 14.7345788 42.6882792 15.1346071 42.9931839 15.59 42.9900247 15.7617883 42.9894743 15.9305443 42.9447023 16.08 42.86 21.63 39.67 25.38 36.17 27.56 32.16zM44.91 38.54L43.46 39.48C42.83 39.88 42.19 40.3 41.56 40.74 40.83 40.57 39.77 41.02 38.14 41.9 37.4905196 42.294658 36.9261972 42.8147864 36.48 43.43 36.2437834 43.7625634 35.9569808 44.0561143 35.63 44.3 34.5534728 45.0039674 33.5276245 45.7825428 32.56 46.63 32.2902645 46.8657953 32.1668139 47.2275813 32.2361508 47.5790768 32.3054878 47.9305722 32.5570783 48.2183766 32.8961508 48.3340768 33.2352233 48.4497769 33.6102645 48.3757953 33.88 48.14 34.7385933 47.3829079 35.6473268 46.6846531 36.6 46.05 37.1465257 45.6909363 37.6213066 45.233112 38 44.7 38.2891214 44.3045735 38.648416 43.9656162 39.06 43.7L39.19 43.63 38.43 44.54C37.6682771 45.379118 36.975999 46.278745 36.36 47.23 36.2312546 47.46204 36.2000168 47.7357375 36.2731655 47.9908202 36.3463142 48.2459029 36.5178507 48.4614519 36.75 48.59 36.8974224 48.6695752 37.0624742 48.7108382 37.23 48.7100343 37.5943389 48.713009 37.9314803 48.5176202 38.11 48.2 38.6813816 47.3523755 39.3130125 46.5469626 40 45.79 40.8872298 44.8384936 41.662303 43.7882862 42.31 42.66 43.03 42.14 43.77 41.66 44.55 41.16 45.05 40.84 45.55 40.53 46.03 40.16 46.2520203 40.0132684 46.4063952 39.7840911 46.4589477 39.5232053 46.5115002 39.2623195 46.4578952 38.9912469 46.31 38.77 46.1553931 38.5531345 45.9206632 38.4069033 45.657852 38.3637272 45.3950407 38.3205511 45.1258637 38.3839976 44.91 38.54L44.91 38.54z"/>
      <path id="Path" fill="#3D454C" fill-rule="nonzero" d="M18.74 33.18C22.81 31.08 24.28 26.76 25.45 22.63 25.5963555 22.0970452 25.2829548 21.5463555 24.75 21.4 24.2170452 21.2536445 23.6663555 21.5670452 23.52 22.1 22.52 25.73 21.33 29.6 17.73 31.45 16.59 32 17.6 33.77 18.74 33.18zM23.18 19.88C23.7322847 19.88 24.18 19.4322847 24.18 18.88 24.18 18.3277153 23.7322847 17.88 23.18 17.88 22.6277153 17.88 22.18 18.3277153 22.18 18.88 22.18 19.4322847 22.6277153 19.88 23.18 19.88zM13.88 34.78L13.88 34.68C13.88 34.1277153 13.4322847 33.68 12.88 33.68 12.3277153 33.68 11.88 34.1277153 11.88 34.68L11.88 34.78C11.88 35.3322847 12.3277153 35.78 12.88 35.78 13.4322847 35.78 13.88 35.3322847 13.88 34.78zM15.18 38.08L15.18 37.88C15.18 37.3277153 14.7322847 36.88 14.18 36.88 13.6277153 36.88 13.18 37.3277153 13.18 37.88L13.18 38.08C13.18 38.6322847 13.6277153 39.08 14.18 39.08 14.7322847 39.08 15.18 38.6322847 15.18 38.08z"/>
    </g>
  </g>
</svg>
