<svg xmlns="http://www.w3.org/2000/svg" width="64" height="64" viewBox="0 0 64 64" style="background:#fff">
  <g id="Mandarinensaft" fill="none" fill-rule="evenodd" stroke="none" stroke-width="1">
    <rect width="64" height="64" fill="#FFF"/>
    <g transform="translate(2 4)">
      <rect id="Rectangle" width="60" height="60" x="0" y="0"/>
      <path id="Path" fill="#E0673A" fill-rule="nonzero" d="M52.08,35 C49.62,27.89 43.97,26.15 37.14,27.53 C25.58,29.87 11.44,22.81 4.14,36.04 C1.8,40.29 1.6,46.22 4.49,50.3 C5.3551947,51.5752939 6.66301088,52.4839945 8.16,52.85 C10.4678961,54.9476731 13.410139,56.2146676 16.52,56.45 C19.52,56.73 22.37,55.98 25.31,55.9 C28.25,55.82 31.31,56.56 34.31,57.06 C39.97,57.98 45.89,57.19 49.58,52.33 C53.27,47.47 54,40.61 52.08,35 Z" opacity=".5"/>
      <path id="Shape" fill="#3D454C" fill-rule="nonzero" d="M33.9,45.81 C35.6052829,41.8181811 35.0687818,37.2217749 32.49,33.73 L32.49,33.73 C32.3208859,33.4890166 32.1372106,33.2585876 31.94,33.04 C28.4,29.04 21,29.58 20.41,29.62 C15.75,29.79 14.47,31.36 14.24,32.7 C12.47,31.57 9.24,32.37 6.77,33.96 C5.62904302,34.6847819 4.70080035,35.6992925 4.08,36.9 C2.81601639,39.3706382 2.21638606,42.1275593 2.34,44.9 C2.84,53.04 12.26,55.21 13.69,55.49 C15.1156159,56.2589902 16.7102082,56.6610749 18.33,56.6600021 C21.063073,56.5691581 23.7022036,55.6405751 25.89,54 C26.89,54.11 29.01,54 31.45,51.83 C33.274876,50.398612 34.206734,48.1089037 33.9,45.81 Z M18.44,54.64 C19.8120373,54.0814488 21.0124312,53.1708052 21.92,52 C23.1754587,50.2469316 23.8725259,48.1557299 23.92,46 C25.16,48.05 26.29,50.78 24.92,52.21 C23.0569441,53.6593558 20.7966733,54.5069573 18.44,54.64 L18.44,54.64 Z M18.63,39 C18.08,38.79 17.5,38.56 16.9,38.29 C15.72,37.77 15.6,37.01 15.52,35.73 C15.9820784,36.1243488 16.519688,36.4203743 17.1,36.6 C20.02,37.45 21.1,38.89 21.75,40.6 C20.7963542,39.9128422 19.7445253,39.3734427 18.63,39 Z M32.11,44.9 C30.8697838,45.2157691 29.5702162,45.2157691 28.33,44.9 C28.7627009,44.8159155 29.1875397,44.6954888 29.6,44.54 C30.9616066,44.0008396 32.0954303,43.0083023 32.81,41.73 C32.7277624,42.8014719 32.4920211,43.8555724 32.11,44.86 L32.11,44.9 Z M20.51,31.62 L20.51,31.62 C20.51,31.62 20.96,31.62 21.65,31.62 C23.74,31.62 28.19,31.93 30.4,34.41 C31.618186,35.6825612 32.1076857,37.4861792 31.7,39.2 C31.3659735,40.7105616 30.3341039,41.9725605 28.92,42.6 C27.8535589,43.0569756 26.6464411,43.0569756 25.58,42.6 C24.8217779,42.226281 24.2504809,41.5573574 24,40.75 C23.203192,37.6981632 20.7747993,35.3430078 17.7,34.64 C16.9,34.4 16.18,33.64 16.25,33.07 C16.32,32.5 17.24,31.73 20.51,31.62 Z M4.34,44.78 C4.30986788,44.2637727 4.30986788,43.7462273 4.34,43.23 C5.06394473,44.2968687 5.96332567,45.2334421 7,46 C7.27450423,46.2468125 7.66265486,46.3223236 8.00966724,46.1964212 C8.35667962,46.0705188 8.60610774,45.7636826 8.65848597,45.3982711 C8.71086421,45.0328597 8.55767257,44.6683118 8.26,44.45 C7.40445228,43.8268227 6.65773215,43.0665873 6.05,42.2 C6.05560883,42.1601966 6.05560883,42.1198034 6.05,42.08 C4.81037042,39.7828321 5.64282476,36.9159839 7.92,35.64 C10.26,34.1 12.79,33.87 13.34,34.47 C13.5155006,34.8658182 13.5943368,35.2977036 13.57,35.73 C13.65,37.04 13.76,39.02 16.14,40.08 C16.76,40.36 17.38,40.6 17.95,40.82 C20.09,41.65 21.12,42.11 21.22,43.44 C21.30815,43.9306869 21.168315,44.4348289 20.84,44.81 C20.09,45.63 18.06,46.07 14.84,46.11 C14.2877153,46.11 13.84,46.5577153 13.84,47.11 C13.84,47.6622847 14.2877153,48.11 14.84,48.11 L14.84,48.11 C18.45,48.11 20.67,47.55 21.94,46.49 C21.8252202,48.0394964 21.2854413,49.5273482 20.38,50.79 C19.08,52.47 16.97,53.4 14.12,53.53 C13.11,53.35 4.76,51.55 4.34,44.78 Z M30.12,50.31 C29.3418102,51.0527856 28.3945605,51.5950518 27.36,51.89 C27.93,50.07 27.25,47.95 26.36,46.18 C27.5639294,46.7827029 28.8936819,47.0911506 30.24,47.08 C30.8298081,47.0788217 31.4184991,47.0286492 32,46.93 C31.8521035,48.2632382 31.1746938,49.4811343 30.12,50.31 L30.12,50.31 Z"/>
      <path id="Path" fill="#3D454C" fill-rule="nonzero" d="M11.12,45.71 C10.5677153,45.71 10.12,46.1577153 10.12,46.71 C10.12,47.2622847 10.5677153,47.71 11.12,47.71 C11.6722847,47.71 12.12,47.2622847 12.12,46.71 C12.12,46.1577153 11.6722847,45.71 11.12,45.71 Z"/>
      <path id="Shape" fill="#3D454C" fill-rule="nonzero" d="M58,18.08 C56.57,12.85 51.58,10.93 46.7,12.08 C44.97,9.93 39.03,10.5 36.96,10.28 C33.11,9.85 30.34,6.69 26,6.94 C23.9652984,7.02733149 22.003801,7.72413339 20.37,8.94 C20.04817,9.26024577 19.9824688,9.75711144 20.21,10.15 C21.4033333,12.05 22.6033333,13.91 23.81,15.73 C23.88,17.53 24.45,19.28 24.36,21.12 C24.1411685,23.2075105 23.5519512,25.2392942 22.62,27.12 C22.14,28.32 24.07,28.84 24.55,27.66 C25.4188187,25.85615 26.0088691,23.9308997 26.3,21.95 C26.3178795,20.1001546 26.1672575,18.2525244 25.85,16.43 L29.52,16.43 C30.0722847,16.43 30.52,15.9822847 30.52,15.43 C30.52,14.8777153 30.0722847,14.43 29.52,14.43 L25.35,14.43 C24.42,12.96 23.49,11.43 22.52,10.02 C22.8910617,9.80618549 23.2751463,9.61581308 23.67,9.45 C25.8825588,8.71374582 28.2886237,8.81696458 30.43,9.74 C30.9,9.92 31.3,10.11 31.69,10.29 L28,10.29 C27.4477153,10.29 27,10.7377153 27,11.29 C27,11.8422847 27.4477153,12.29 28,12.29 L36.87,12.29 C36.9198375,12.2957003 36.9701625,12.2957003 37.02,12.29 L37.32,12.29 C38.06,12.29 45.73,11.51 44.8,14.45 L40.8,14.45 C40.2477153,14.45 39.8,14.8977153 39.8,15.45 C39.8,16.0022847 40.2477153,16.45 40.8,16.45 C41.94,16.45 43.2,16.33 44.37,16.4 C44.25,16.99 44.15,17.59 44.08,18.19 C43.940058,19.3814576 43.9132717,20.5834912 44,21.78 C44.41,27.07 48.11,30.46 49.52,35.38 C51.52,42.49 49.02,50.5 42.12,53.88 C39.43,55.19 32.43,55.81 29.76,54.59 C28.6,54.06 27.58,55.78 28.76,56.31 C31.69,57.65 37.7,57.31 40.76,56.55 C44.85,55.55 48.56,52.04 50.46,48.39 C51.8005193,45.7260592 52.4210493,42.7578576 52.26,39.78 C55.69,33.75 59.87,25.11 58,18.08 Z M56,24.92 C55.161418,28.9017053 53.7678086,32.7459128 51.86,36.34 C51.7126374,35.5887462 51.518934,34.8473297 51.28,34.12 C53.39,29.78 56.39,23.12 54.09,18.47 C52.771812,15.706277 49.6237446,14.3303288 46.7,15.24 C46.8812455,14.8541155 47.0155385,14.4478792 47.1,14.03 C54,12.41 57.2,18.54 56,24.92 Z M46.5,17.61 C47.508682,17.144227 48.6268806,16.9676694 49.73,17.1 C50.5425572,17.3842877 51.2223072,17.9572707 51.64,18.71 C53.1,20.63 52.93,22.63 52.45,24.93 C51.9492016,27.2323795 51.2050186,29.4749851 50.23,31.62 C49.45,30.11 48.5,28.72 47.68,27.19 C45.9,23.88 46.29,20.91 46.48,17.61 L46.5,17.61 Z"/>
      <path id="Path" fill="#3D454C" fill-rule="nonzero" d="M43.58 48.27C46.3497466 44.8387129 47.0354171 40.1730886 45.37 36.09 44.92 34.9 42.98 35.41 43.44 36.62 44.71 39.98 44.59 44.06 42.17 46.85 41.33 47.82 42.74 49.24 43.58 48.27zM43.18 31.83C42.6838215 31.5885295 42.0858257 31.7946141 41.8437599 32.2905025 41.6016942 32.7863908 41.8070611 33.3846335 42.3026586 33.6272942 42.7982561 33.8699548 43.3967448 33.665306 43.64 33.17 43.7571894 32.9313838 43.7745442 32.6559259 43.6882298 32.4044883 43.6019154 32.1530506 43.4190365 31.9463297 43.18 31.83z"/>
    </g>
  </g>
</svg>
