<svg xmlns="http://www.w3.org/2000/svg" width="64" height="64" viewBox="0 0 64 64" style="background:#fff">
  <g id="Mangold" fill="none" fill-rule="evenodd" stroke="none" stroke-width="1">
    <rect width="64" height="64" fill="#FFF"/>
    <g transform="translate(2 10)">
      <rect id="Rectangle" width="60" height="60" x="0" y="0"/>
      <path id="Path" fill="#EBE53F" fill-rule="nonzero" d="M22.82,29.09 C19.11,31.38 18.64,33.24 15.56,36.28 C12.5914614,39.1635641 9.87800722,42.2985907 7.45,45.65 C6.73,46.65 7.45,49.65 8.98,48.48 C12.27,45.86 15.08,42.59 18.17,39.74 C21.26,36.89 21.28,36.36 24.06,33.18 C24.88,32.24 24.74,27.9 22.82,29.09 Z" opacity=".5"/>
      <path id="Path" fill="#E05362" fill-rule="nonzero" d="M28,37.24 C24.8,38.96 20.79,40.6 18.22,43.24 C17.6,43.87 17.42,46.58 18.85,46.36 C20.5824754,45.9681931 22.2381739,45.2923978 23.75,44.36 C25.47,43.45 27.19,42.54 28.9,41.59 C30.61,40.64 29.85,36.23 28,37.24 Z" opacity=".5"/>
      <path id="Path" fill="#31E085" fill-rule="nonzero" d="M48.58,17.76 C48.9982288,16.6006959 49.094981,15.3498286 48.86,14.14 C48.5408567,11.3928277 46.7222845,9.05026006 44.14,8.06 C41,7.06 38.23,8.91 35.74,10.6 C31.4852475,13.3152297 27.4435507,16.3506811 23.65,19.68 C22.83,20.45 22.52,22.38 22.78,24 C22.67,26.52 23.53,29 25.78,29.45 C30.19,30.45 28.91,32.73 29.68,36.45 C30.17,38.79 31.36,41.3 33.48,42.58 C38.03,45.33 42.89,41.84 45.55,38.17 C47.41,35.61 48.66,33.48 51.3,31.67 C53.2851401,30.4935915 54.625308,28.4759762 54.94,26.19 C55.68,20.74 52.34,19.14 48.58,17.76 Z" opacity=".5"/>
      <path id="Path" fill="#3D454C" fill-rule="nonzero" d="M24.37,25.63 C24.7111886,25.521034 24.9683273,25.2383233 25.0445543,24.8883623 C25.1207813,24.5384012 25.0045159,24.1743573 24.7395543,23.9333622 C24.4745926,23.6923672 24.1011886,23.611034 23.76,23.72 C23.4330138,23.8136721 23.0814259,23.7081957 22.86,23.45 C22.6663242,23.176083 22.6431274,22.816533 22.8,22.52 C23.1695454,22.1044304 23.647328,21.7997575 24.18,21.64 C25.0331788,21.3491654 25.7905217,20.8304374 26.37,20.14 C26.6054213,19.78446 26.7968208,19.4016611 26.94,19 C27.0159529,18.7826983 27.1096001,18.571992 27.22,18.37 C27.6945111,17.8325566 28.3117303,17.4407264 29,17.24 C29.929132,16.9248114 30.7739642,16.4014943 31.47,15.71 C31.6803934,15.4619986 31.8709796,15.1978528 32.04,14.92 C32.1756325,14.6668413 32.3512221,14.4372241 32.56,14.24 C32.8975229,14.0296154 33.2758617,13.8932771 33.67,13.84 L34.18,13.72 C35.2358697,13.3971795 36.2445634,12.9365427 37.18,12.35 C37.6,12.11 38.03,11.87 38.46,11.66 C39.9470339,10.8939596 41.6283495,10.5876329 43.29,10.78 C44.8668819,10.9881107 46.2718135,11.8808277 47.13,13.22 C47.913024,14.5118052 47.8818796,16.1391021 47.05,17.4 C46.526653,18.0287659 45.905346,18.5690329 45.21,19 C44.453605,19.4881374 43.761521,20.0693536 43.15,20.73 C42.6468307,21.3465243 42.2141449,22.017355 41.86,22.73 C41.77,22.91 41.67,23.1 41.56,23.28 C40.7407717,24.6824981 39.8146975,26.0197893 38.79,27.28 L36.08,30.76 C35.3548051,31.8140346 34.4592357,32.7400195 33.43,33.5 C32.5603756,34.1259739 31.4380938,34.2830934 30.43,33.92 C30.1327611,33.7737342 29.9163874,33.5023502 29.84,33.18 C29.7068913,32.7567768 29.7653364,32.2965219 30,31.92 C30.1419243,31.6959012 30.1889964,31.4245957 30.1308579,31.1657855 C30.0727194,30.9069754 29.9141343,30.6818682 29.69,30.54 C29.2259327,30.2425884 28.6087099,30.3767672 28.31,30.84 C27.7643298,31.691716 27.6079048,32.7357616 27.88,33.71 C28.117294,34.5857582 28.7229378,35.3154494 29.54,35.71 C30.1253681,35.9832007 30.7640248,36.123227 31.41,36.1200545 C32.5016562,36.103425 33.5662078,35.7774711 34.48,35.18 C35.7134582,34.3089461 36.7889461,33.2334582 37.66,32 L40.37,28.52 C41.4527482,27.1912914 42.4354444,25.7840973 43.31,24.31 C43.42,24.12 43.52,23.92 43.63,23.72 C43.9002202,23.1372643 44.2357001,22.5870773 44.63,22.08 C45.138647,21.5441413 45.7093372,21.0708042 46.33,20.67 C47.2152163,20.1168745 48.002566,19.4207628 48.66,18.61 C49.9719469,16.7046009 50.0424308,14.2063377 48.84,12.23 C47.6722267,10.3797559 45.7473865,9.13922199 43.58,8.84 C41.5248079,8.5527651 39.4309434,8.90174251 37.58,9.84 C37.11,10.07 36.65,10.33 36.19,10.59 C35.4068353,11.0883221 34.5633797,11.4848471 33.68,11.77 L33.24,11.87 C32.5460407,11.9760302 31.887629,12.2469392 31.32,12.66 C30.9211269,12.984936 30.5826198,13.3776043 30.32,13.82 C30.2073447,14.0150356 30.0767816,14.199163 29.93,14.37 C29.4316777,14.8234832 28.8416786,15.1645232 28.2,15.37 C27.1102036,15.7004876 26.1539907,16.3694864 25.47,17.28 C25.2827557,17.5966641 25.1286098,17.931764 25.01,18.28 C24.9293347,18.5180156 24.8219845,18.7461346 24.69,18.96 C24.307505,19.3460676 23.8375565,19.6342112 23.32,19.8 C22.388863,20.1014703 21.5813969,20.6982931 21.02,21.5 C20.4167876,22.508535 20.5022387,23.7854201 21.2344557,24.7045862 C21.9666727,25.6237522 23.1921404,25.9924885 24.31,25.63 L24.37,25.63 Z"/>
      <path id="Path" fill="#3D454C" fill-rule="nonzero" d="M28.75 29.05C28.8355116 29.0471575 28.9199729 29.0302652 29 29 31.0190734 28.2431339 33.214058 28.0868454 35.32 28.55 35.5785983 28.6098468 35.8503806 28.5644271 36.0754674 28.4237478 36.3005542 28.2830686 36.4604765 28.0586729 36.52 27.8 36.5795712 27.5399955 36.5327967 27.2669668 36.390076 27.0416185 36.2473554 26.8162702 36.0205186 26.6572809 35.76 26.6 34.2992213 26.2778026 32.7937924 26.2101429 31.31 26.4 32.31 25.4 33.31 24.4 34.31 23.47L34.31 23.47C34.5221251 23.2896167 34.7225317 23.0958903 34.91 22.89 36.25 21.64 37.62 20.42 39.07 19.24 40.535673 18.6130834 42.1299856 18.3456503 43.72 18.46 44.2694401 18.5121958 44.7572823 18.1093903 44.81 17.56 44.8621958 17.0105599 44.4593903 16.5227177 43.91 16.47 43.5202732 16.4493572 43.1297268 16.4493572 42.74 16.47 43.38 16.01 44.03 15.56 44.74 15.11 45.1641552 14.7909737 45.2651973 14.1961618 44.9701824 13.7549684 44.6751676 13.313775 44.0868739 13.1799044 43.63 13.45 41.63 14.78 39.79 16.15 38.05 17.56 37.8219114 17.6757981 37.6014616 17.8060639 37.39 17.95 37.5035095 17.3054249 37.5736669 16.6539634 37.6 16 37.6267949 15.6427344 37.4609555 15.2983125 37.1649519 15.0964746 36.8689483 14.8946367 36.4877504 14.8660469 36.1649519 15.0214746 35.8421534 15.1769023 35.6267949 15.4927344 35.6 15.85 35.4870883 17.9321582 34.7089317 19.9231173 33.38 21.53 32.71 22.16 32.05 22.8 31.38 23.44 31.5236533 22.1801278 31.4764557 20.9057941 31.24 19.66 31.1870054 19.4000613 31.0328955 19.1718322 30.811589 19.0255449 30.5902825 18.8792575 30.3199175 18.8269015 30.06 18.88 29.5581452 19.0034386 29.2330246 19.4889519 29.31 20 29.6927103 21.9788237 29.4876047 24.0264031 28.72 25.89 28.6857331 25.9866097 28.6655266 26.0876422 28.66 26.19 26.72 28.19 24.79 30.34 22.78 32.55L9.22 47.5C8.92872109 47.3705599 8.65625848 47.2023731 8.41 47 8.14588663 46.7762069 7.99552697 46.4461491 8 46.1 8.1532211 45.7067201 8.40868896 45.3614933 8.74 45.1 11.46 42.43 14.16 39.6 16.74 36.86 19.32 34.12 22.05 31.31 24.74 28.67 24.9954449 28.4199141 25.0980665 28.0525469 25.0092082 27.7062822 24.9203499 27.3600175 24.6535114 27.087461 24.3092082 26.9912822 23.964905 26.8951034 23.5954449 26.9899141 23.34 27.24 20.63 29.91 17.92 32.74 15.34 35.48 12.76 38.22 10 41 7.34 43.66 6.70992419 44.1758809 6.25565999 44.8747489 6.04 45.66 5.88065278 46.6815188 6.25852329 47.7131053 7.04 48.39 7.63328124 48.9012308 8.30972285 49.3070957 9.04 49.59 9.1687602 49.6486689 9.30850513 49.6793446 9.45 49.68 9.73217824 49.679333 10.0009408 49.5594794 10.19 49.35L24.26 33.94C25.79 32.25 27.27 30.63 28.75 29.05zM52.55 21.41C51.9410321 21.3161552 51.326127 21.266027 50.71 21.26 49.9380322 21.2864706 49.1663844 21.19886 48.42 21 48.082384 20.8821024 47.7075163 20.9532764 47.436606 21.1867116 47.1656956 21.4201468 47.0399004 21.7803788 47.106606 22.1317116 47.1733116 22.4830445 47.422384 22.7721024 47.76 22.89 48.6933029 23.1725397 49.6650248 23.307501 50.64 23.29 51.1719372 23.2978497 51.7029101 23.3379231 52.23 23.41 53.23 23.58 54.33 24.28 54.28 25.07 54.23 25.86 53 26.51 52.63 26.68L52 27C50.9598455 27.3357957 50.0186704 27.9231714 49.26 28.71 48.7340097 29.3803574 48.3465025 30.1485735 48.12 30.97 47.9952317 31.3529825 47.8448937 31.7271571 47.67 32.09 46.96 33.5 45.46 34.36 43.88 35.28 43.44 35.54 42.99 35.79 42.57 36.06 41.72 36.6 40.91 37.2 40.14 37.78 39.37 38.36 38.87 38.78 38.22 39.17 36.9268957 40.1229656 35.4061504 40.7195392 33.81 40.9 32.3748401 41.0407489 30.9719799 40.4134537 30.12 39.25 29.8315706 38.782267 29.219769 38.6348988 28.75 38.92 28.5225459 39.0586255 28.359798 39.2822684 28.2978478 39.5413332 28.2358975 39.8003979 28.279865 40.0734728 28.42 40.3 29.5680327 41.977846 31.4876061 42.960216 33.52 42.91L33.93 42.91C35.881396 42.709731 37.7447543 41.9954437 39.33 40.84 40.02 40.38 40.69 39.84 41.33 39.39 41.97 38.94 42.84 38.26 43.63 37.76 44.03 37.51 44.45 37.26 44.87 37.02 46.64 36.02 48.46 34.94 49.45 33.02 49.6658395 32.5530545 49.8495987 32.0719393 50 31.58 50.1598464 31.0132664 50.417009 30.4786388 50.76 30 51.332583 29.4700573 52.0156872 29.0738569 52.76 28.84 53 28.75 53.24 28.65 53.47 28.54 55.22 27.75 56.22 26.54 56.3 25.19 56.39 23.13 54.44 21.71 52.55 21.41z"/>
      <path id="Path" fill="#3D454C" fill-rule="nonzero" d="M26.12 41.33C24.56 42.33 23.34 43.22 22.17 44.1 21.32 44.73 20.5 45.34 19.56 45.98 19.5913087 44.6344592 20.1391607 43.3525571 21.09 42.4 22.9368479 40.958739 24.9515307 39.7465716 27.09 38.79L28.53 38.07C29.0040006 37.8097086 29.1852079 37.2197585 28.9390516 36.7382658 28.6928952 36.2567731 28.1085634 36.0581941 27.62 36.29L26.21 37C23.9232004 38.0231822 21.7704741 39.3228781 19.8 40.87 17.71 42.62 17.05 46.38 18 48.11 18.1349877 48.3498876 18.3628878 48.5235258 18.63 48.59 18.8954564 48.6586228 19.1774455 48.6152398 19.41 48.47 20.97 47.47 22.19 46.58 23.36 45.7 24.53 44.82 25.69 44 27.19 43 27.6566806 42.7045277 27.7954723 42.0866806 27.5 41.62 27.2045277 41.1533194 26.5866806 41.0145277 26.12 41.31L26.12 41.33zM39.25 32.32C39.6147578 32.7337044 40.2456033 32.7739711 40.66 32.41 43.58 29.83 45.34 28.47 48.95 27.16 49.295673 27.0459179 49.5520514 26.7530114 49.6193559 26.395276 49.6866603 26.0375405 49.5542586 25.6714888 49.2736798 25.4395835 48.993101 25.2076781 48.608669 25.1465541 48.27 25.28 44.51 26.64 42.56 28.06 39.34 30.91 38.9262956 31.2747578 38.8860289 31.9056033 39.25 32.32L39.25 32.32z"/>
    </g>
  </g>
</svg>
