<svg xmlns="http://www.w3.org/2000/svg" width="64" height="64" viewBox="0 0 64 64" style="background:#fff">
  <g id="Mangosaft" fill="none" fill-rule="evenodd" stroke="none" stroke-width="1">
    <rect width="64" height="64" fill="#FFF"/>
    <g id="Mango-saft" transform="translate(2 4)">
      <g id="Layer_2">
        <rect id="Rectangle" width="60" height="60" x="0" y="1.09"/>
        <rect id="Rectangle" width="60" height="60" x="0" y=".79"/>
        <rect id="Rectangle" width="60" height="60" x="0" y=".87"/>
        <rect id="Rectangle" width="60" height="60" x="0" y=".94"/>
      </g>
      <g id="Layer_1" fill-rule="nonzero" transform="translate(2 6)">
        <path id="Path" fill="#EBE53F" d="M37.28,19.63 C33.45,17.68 29.42,18.28 25.72,20.31 C23.89,21.31 20.28,21.86 18.53,23.87 C17.24,25.35 16.91,28.05 15.66,29.47 C13.8013414,31.6524008 11.164156,33.0230196 8.31,33.29 C6.79,33.43 5.31,33.1 3.76,33.17 C2.76,33.17 1.83,33.37 0.87,33.43 C2.13582092,41.1854624 7.79056898,47.499736 15.36,49.61 C23.58,51.69 34.64,51.49 41.06,44.34 C47.48,37.19 45.56,23.85 37.28,19.63 Z" opacity=".5"/>
        <path id="Shape" fill="#3D454C" d="M54.65,13.11 C54.3773245,9.8676589 52.2879287,7.06112354 49.26,5.87 C47.1757959,5.12937678 44.9102214,5.06984855 42.79,5.7 C42.5869993,5.32314646 42.3196359,4.98471172 42,4.7 C41.0424568,4.00264184 39.8556861,3.69522534 38.68,3.84 L31.79,3.84 C27.55,0.72 21.33,-1.16 16.79,2.54 C16.466465,2.86430655 16.404661,3.36697943 16.64,3.76 C17.82,5.61333333 19.0066667,7.46333333 20.2,9.31 C20.26,11.01 20.77,12.65 20.75,14.31 C20.7216827,16.1815701 20.2559408,18.0205654 19.39,19.68 C17.74,23 15.85,26 15.06,29.63 C14.78,30.89 16.71,31.42 16.99,30.17 C17.83,26.34 20.07,23.3 21.61,19.77 C22.3514152,18.0648881 22.7457545,16.2291706 22.77,14.37 C22.6859242,12.9045855 22.5156295,11.4453933 22.26,10 L25.92,10 C26.4722847,10 26.92,9.55228475 26.92,9 C26.92,8.44771525 26.4722847,8 25.92,8 L21.75,8 L18.9,3.58 L19.2,3.41 C20.0600499,2.98094196 20.9864284,2.70032365 21.94,2.58 C23.5140331,2.40649177 25.1068145,2.60516127 26.59,3.16 C27.1416476,3.36499078 27.6794399,3.60549413 28.2,3.88 L24.43,3.88 C23.8777153,3.88 23.43,4.32771525 23.43,4.88 C23.43,5.43228475 23.8777153,5.88 24.43,5.88 L31.74,5.88 C33.52,6.06 35.44,5.88 37.21,5.88 C37.99,5.88 38.8,5.82 39.58,5.88 C40.1004069,5.88914816 40.5883168,6.13481642 40.9055695,6.5474395 C41.2228221,6.96006258 41.3348756,7.4947148 41.21,8 L37.21,8 C36.6577153,8 36.21,8.44771525 36.21,9 C36.21,9.55228475 36.6577153,10 37.21,10 L40.8,10 C40.72,10.33 40.64,10.67 40.59,11 C40.4086355,12.1439799 40.331652,13.3020797 40.36,14.46 C40.3956453,16.6169973 40.8720745,18.7439135 41.76,20.71 C42.54,22.41 43.76,23.88 44.6,25.52 C45.2185454,26.7216608 45.6983001,27.9898235 46.03,29.3 C47.272977,33.4867914 46.7717122,37.9981741 44.64,41.81 C42.9272081,44.7223567 40.243622,46.9386164 37.06,48.07 C35.2546794,48.4848666 33.3978244,48.6297754 31.55,48.5 C30.55,48.5 29.45,48.5 28.4,48.4 C27.8671342,48.4221241 27.3335092,48.3818505 26.81,48.28 C26.47,48.15 26.11,47.84 25.81,47.67 C24.68,47.07 23.66,48.8 24.81,49.4 C25.3337527,49.7545884 25.9064556,50.0308333 26.51,50.22 C27.7297697,50.4166687 28.9647041,50.5036831 30.2,50.48 C32.2927785,50.5736008 34.3897038,50.4966801 36.47,50.25 C39.47,49.86 42.29,47.75 44.27,45.63 C47.3114413,42.2967317 48.895458,37.8866852 48.67,33.38 C50.5363892,30.1155438 52.0611222,26.6673014 53.22,23.09 C54.4403958,19.9130147 54.9291695,16.5018529 54.65,13.11 Z M42.58,16.51 C42.3300878,14.9479977 42.3098741,13.3578502 42.52,11.79 C42.52,11.66 42.52,11.53 42.58,11.41 C42.64,11.29 42.64,11.41 42.67,11.35 C43.8851602,10.2724235 45.6862656,10.1850719 47,11.14 C48.5411853,12.1811324 49.3771158,13.9916733 49.17,15.84 C49.0489639,17.8416386 48.6275848,19.8136924 47.92,21.69 C47.52,22.85 47.09,24.02 46.61,25.16 C46.2696284,24.4359664 45.8890343,23.7315333 45.47,23.05 C44.065329,21.0929897 43.0813187,18.8661981 42.58,16.51 Z M51,23.37 C50.2188659,25.6157805 49.2970406,27.8101255 48.24,29.94 C48.08,29.19 47.88,28.46 47.65,27.73 C48.6507255,25.6440617 49.4898571,23.4843845 50.16,21.27 C50.9813388,18.9988822 51.2953609,16.5754507 51.08,14.17 C50.8205402,11.9327063 49.409381,9.99425912 47.36,9.06 C46.0099018,8.40983562 44.4583307,8.31645402 43.04,8.8 C43.168523,8.42624686 43.2393359,8.03508966 43.25,7.64 C44.9604464,7.13085845 46.7859262,7.15878166 48.48,7.72 C51.48,8.72 52.73,11.8 52.76,14.72 C52.6859995,17.6843325 52.0902234,20.6124365 51,23.37 L51,23.37 Z"/>
        <path id="Path" fill="#3D454C" d="M40 41.87C41.9004408 39.7086908 42.8423206 36.8686164 42.61 34 42.5569115 32.5217624 42.273503 31.0608592 41.77 29.67 41.6998876 29.4139583 41.5308445 29.1963021 41.3001234 29.0649974 41.0694024 28.9336928 40.7959398 28.8995164 40.54 28.97 40.2839583 29.0401124 40.0663021 29.2091555 39.9349974 29.4398766 39.8036928 29.6705976 39.7695164 29.9440602 39.84 30.2 41.1 33.45 41.08 37.71 38.57 40.43 37.7 41.4 39.11 42.82 40 41.87zM39.59 25.43C39.2331247 25.2361725 38.794468 25.2774258 38.4799873 25.5343907 38.1655066 25.7913556 38.0376649 26.212993 38.1564864 26.6013362 38.2753079 26.9896795 38.6171918 27.2675949 39.0216173 27.304596 39.4260428 27.341597 39.8126817 27.1303345 40 26.77 40.2514751 26.2862503 40.0691057 25.6902138 39.59 25.43zM34.15 33.59L34.15 33.59 34.08 33.59C33.9059578 33.4298759 33.6764148 33.3437972 33.44 33.35 22.86 33.55 12.29 32.85 1.71 33.05 1.56729257 33.0499804 1.42667289 33.0842779 1.3 33.15L1.19 33.22C1.12407972 33.2400498 1.06040813 33.2668589 1 33.3L.94 33.38C.812766866 33.5567611.733523306 33.7634834.71 33.98.373022726 37.3155424 1.3247213 40.6536431 3.37 43.31 5.2 45.66 7.44 47.47 10.52 47.62 11.81 47.68 11.81 45.68 10.52 45.62 8 45.5 6.23 43.83 4.8 41.94 3.31072467 39.9167522 2.54630115 37.4508698 2.63 34.94 12.39 34.8 22.14 35.37 31.9 35.26 29.1745558 40.9626099 23.769916 44.9174992 17.51 45.79 16.9770453 45.9391169 16.6658832 46.4920452 16.8150001 47.025 16.9641169 47.5579547 17.5170452 47.8691168 18.05 47.72 25.4760056 46.6096518 31.7219645 41.5723415 34.38 34.55 34.537314 34.2155936 34.4417728 33.8168127 34.15 33.59L34.15 33.59z"/>
        <path id="Path" fill="#3D454C" d="M21.58 42.1C22.63 41.37 21.63 39.64 20.58 40.37 18.4497649 41.8981946 15.7781138 42.4673252 13.21 41.94 10.8211362 41.3651557 8.72151955 39.9440954 7.3 37.94 6.56 36.94 4.82 37.94 5.57 38.94 7.26122416 41.3916663 9.7896137 43.1412692 12.68 43.86 15.7623504 44.5348262 18.9865077 43.89724 21.58 42.1zM14.11 46C13.5577153 46 13.11 46.4477153 13.11 47 13.11 47.5522847 13.5577153 48 14.11 48 14.6622847 48 15.11 47.5522847 15.11 47 15.11 46.4477153 14.6622847 46 14.11 46z"/>
      </g>
    </g>
  </g>
</svg>
