<svg xmlns="http://www.w3.org/2000/svg" width="64" height="64" viewBox="0 0 64 64" style="background:#fff">
  <g id="Mangomark" fill="none" fill-rule="evenodd" stroke="none" stroke-width="1">
    <rect width="64" height="64" fill="#FFF"/>
    <g transform="translate(2 6)">
      <rect id="Rectangle" width="60" height="60" x="0" y="0"/>
      <path id="Path" fill="#EBE53F" fill-rule="nonzero" d="M36.57,4.2 C28.43,8.2 21.09,7.26 12.78,4.66 C6,2.55 4.65,16.81 9.24,19.91 C18.5,26.13 30.05,26.03 39.83,21.21 C46.09,18.11 43.76,0.7 36.57,4.2 Z" opacity=".5"/>
      <path id="Path" fill="#EBE53F" fill-rule="nonzero" d="M53.72,30.25 C43.79,26.4 28.12,22.66 18.72,29.49 C18.3584969,29.7623691 18.0529165,30.1019029 17.82,30.49 C16.8148685,30.4677846 15.8099982,30.5448247 14.82,30.72 C11.11,31.41 10.4,38.19 13.38,40.21 C19,44.05 27.38,44.9 34.02,45.41 C40.8109788,46.0023057 47.6480041,45.0519592 54.02,42.63 C58.37,41 57.85,31.85 53.72,30.25 Z" opacity=".5"/>
      <path id="Shape" fill="#3D454C" fill-rule="nonzero" d="M56.75,37.92 C56.56,35.22 52.55,33.62 44.17,32.92 C43.995116,32.6633248 43.7903466,32.4283435 43.56,32.22 C41.79,30.61 38.32,30 34,30.44 C33.6427344,30.4775129 33.3326203,30.7027751 33.1864746,31.0309327 C33.0403289,31.3590902 33.0803547,31.740288 33.2914746,32.0309327 C33.5025945,32.3215773 33.8527344,32.4775129 34.21,32.44 C39.65,31.85 41.7,33.26 42.21,33.71 C42.4371273,33.8713493 42.5916001,34.1156319 42.64,34.39 C42.64,34.78 42.28,35.18 41.43,35.5 L41.43,35.5 C39.4606243,36.0750979 37.4092661,36.3184221 35.36,36.22 C29.84,36.22 28.2,34.89 28.12,34.82 C27.7324034,34.4453463 27.1175966,34.4453463 26.73,34.82 C26.3422764,35.2100375 26.3422764,35.8399625 26.73,36.23 C26.92,36.44 28.84,38.23 35.38,38.23 C37.6048363,38.30611 39.8279967,38.0362271 41.97,37.43 C44.0659241,37.3643008 46.1612087,37.5795467 48.2,38.07 C46.64,38.6 42.54,39.31 33.75,39.31 C27.65,39.31 24.32,38.53 22.6,37.88 C20.88,37.23 20,36.41 20,35.66 C20,34.66 21.82,33.29 24.79,33.29 C26.5431862,33.2194556 28.2931138,33.4946869 29.94,34.1 C32.510614,34.9816837 35.2257516,35.3651969 37.94,35.23 C38.4922847,35.23 38.94,34.7822847 38.94,34.23 C38.94,33.6777153 38.4922847,33.23 37.94,33.23 C33.58,33.23 32.03,32.71 30.53,32.23 C28.6792545,31.5598335 26.7171323,31.250918 24.75,31.32 C22.5154808,31.1837586 20.3301391,32.0141885 18.75,33.6 C13.5,34.52 10.88,35.95 10.75,37.96 C10.2094884,40.5963799 10.6542128,43.3394403 12,45.67 C14,49.2 17.85,51.76 23.46,53.29 L23.66,53.48 C23.95071,53.8154349 24.3330112,54.0587174 24.76,54.18 C25.1,54.25 25.45,54.35 25.83,54.44 C28.4344626,55.1575152 31.1290555,55.4943393 33.83,55.44 C36.3498746,55.5047772 38.8658834,55.2050118 41.3,54.55 C41.69,54.45 42.04,54.36 42.39,54.29 C42.8169262,54.1748801 43.1977104,53.9303398 43.48,53.59 L43.65,53.43 C49.42,52 53.4,49.43 55.49,45.91 C56.8897325,43.4962889 57.3390052,40.6473293 56.75,37.92 Z M18,35.76 C18,36.76 18.61,38.47 21.92,39.76 C24.65,40.76 28.64,41.32 33.78,41.32 C37.9594375,41.3922962 42.138285,41.1449085 46.28,40.58 C49.5,40.04 50.87,39.29 50.87,38.07 C50.87,36.34 47.79,35.7 44.46,35.5 C44.5268822,35.3396662 44.5738981,35.1717523 44.6,35 C54.48,35.92 54.77,37.93 54.77,38.16 C54.77,40.05 47.28,42.79 33.77,42.79 C20.26,42.79 12.77,39.73 12.77,38.16 C12.72,37.65 13.86,36.61 18,35.76 Z M43,51.5 C42.6133577,51.6260237 42.2678825,51.8540372 42,52.16 C41.9485689,52.224737 41.8916949,52.2849565 41.83,52.34 C41.48,52.41 41.12,52.5 40.73,52.6 C38.4497378,53.2171179 36.09135,53.4967553 33.73,53.43 C31.2119974,53.4843201 28.6993606,53.1744507 26.27,52.51 C25.89,52.41 25.55,52.32 25.21,52.25 L25,52.05 C24.7292866,51.7450093 24.3850353,51.5143609 24,51.38 C18.91,50 15.45,47.76 13.71,44.73 C13.0247047,43.5289696 12.6180222,42.1893097 12.52,40.81 C16.25,43.38 25.2,44.74 33.74,44.74 C42.46,44.74 51.24,43.55 54.94,40.96 C54.8175012,42.3442627 54.3869962,43.6836115 53.68,44.88 C51.87,48 48.27,50.21 43,51.5 Z"/>
      <path id="Path" fill="#3D454C" fill-rule="nonzero" d="M18.15,22.81 C11.5018115,22.3295472 6.43439125,16.6602325 6.7,10 C19.6,9.85 32.49,10.49 45.38,10.37 C41.5051078,17.7742932 34.0496034,22.6220766 25.71,23.16 C24.43,23.24 24.42,25.24 25.71,25.16 C35.3577101,24.5984275 43.8918444,18.7162735 47.85,9.9 C47.8556573,9.85685131 47.8556573,9.81314869 47.85,9.77 C47.8545429,9.73012899 47.8545429,9.68987101 47.85,9.65 C47.8589288,9.58363229 47.8589288,9.51636771 47.85,9.45 C47.9024513,8.95018697 47.5398099,8.50248148 47.04,8.45 C46.8933464,8.40519098 46.7366536,8.40519098 46.59,8.45 C33,8.59 19.39,7.85 5.74,8.05 C5.37455939,8.04518949 5.04092428,8.25714592 4.89,8.59 L4.89,8.67 L4.89,8.75 C4.85281783,8.84689554 4.82600162,8.94745631 4.81,9.05 C4.43060421,12.921364 5.63468597,16.7814123 8.14784986,19.7504875 C10.6610138,22.7195627 14.2691468,24.5447097 18.15,24.81 C19.44,24.9 19.43,22.9 18.15,22.81 Z"/>
      <path id="Path" fill="#3D454C" fill-rule="nonzero" d="M35.34 18.92C35.7922526 18.632504 35.9374802 18.0396032 35.6692932 17.5756398 35.4011063 17.1116763 34.8148504 16.9415983 34.34 17.19 26.5741881 21.9444937 16.4835098 20.1741241 10.8 13.06 9.97 12.06 8.56 13.49 9.38 14.47 15.6972786 22.2461703 26.7935331 24.1482632 35.34 18.92zM21.88 25.35C22.4322847 25.35 22.88 24.9022847 22.88 24.35 22.88 23.7977153 22.4322847 23.35 21.88 23.35 21.3277153 23.35 20.88 23.7977153 20.88 24.35 20.88 24.9022847 21.3277153 25.35 21.88 25.35z"/>
    </g>
  </g>
</svg>
