<svg xmlns="http://www.w3.org/2000/svg" width="64" height="64" viewBox="0 0 64 64" style="background:#fff">
  <g id="Mango" fill="none" fill-rule="evenodd" stroke="none" stroke-width="1">
    <rect width="64" height="64" fill="#FFF"/>
    <g transform="translate(2 4)">
      <rect id="Rectangle" width="60" height="60" x="0" y="0"/>
      <path id="Path" fill="#EBE53F" fill-rule="nonzero" d="M38.77,32.81 C34.34092,35.3142195 29.3747186,36.7169656 24.29,36.9 C19.29,37.07 14.56,35.39 9.66,35.57 C4,35.79 5,45.18 7.78,47.86 C16.49,56.34 32.34,53.86 42.03,48.58 C48.13,45.27 45.53,29.11 38.77,32.81 Z" opacity=".5"/>
      <path id="Path" fill="#E05362" fill-rule="nonzero" d="M51.58,23.16 C47.2461868,17.1613266 40.3947788,13.4885589 33,13.2 C25.49,13 17.06,16.81 14.45,24.2 C13.64,26.49 14.07,31.85 17.52,31.79 C22.46,31.7 26.52,28.11 31.8,28.34 C36.6842866,28.6433803 41.2372817,30.9126623 44.42,34.63 C50.88,42 55.6,28.46 51.58,23.16 Z" opacity=".5"/>
      <path id="Path" fill="#31E085" fill-rule="nonzero" d="M50.81,13.2 C45.69,4 32.57,3.08 25.34,10 C24.87,10.45 25.02,12.39 25.91,11.91 C35.07,7 42.38,9.11 49.5,16 C50.93,17.36 51.26,14 50.81,13.2 Z" opacity=".5"/>
      <path id="Shape" fill="#3D454C" fill-rule="nonzero" d="M44.73,15.8 C46.9031682,15.4740538 49.1241958,15.7651089 51.14,16.64 C51.84,16.95 52.94,16.41 52.61,15.51 C50,8.56 43.54,4.74 36.2,5 C28.86,5.26 24.76,8.54 22.09,14.38 C13.43,18.54 10.46,28.5 15.09,36.84 C15.72,37.97 17.45,36.96 16.82,35.84 C13.0404712,29.5479915 14.8824262,21.3957983 21,17.34 C21,17.34 21,17.34 21,17.34 C21.0074704,17.628236 21.1622523,17.8924979 21.41,18.04 L21.5,18.12 C27.8,22.6 34.38,18.6 40.96,16.61 C41.079585,16.7319114 41.2327578,16.8154602 41.4,16.85 C51.49,18.98 56.4,30.55 49.23,38.64 C48.38,39.64 49.79,41.02 50.64,40.06 C58,31.74 54.36,19.67 44.73,15.8 Z M23.73,17.14 C28.11,13.34 32.73,9.5 38.93,11.46 C40.16,11.85 40.69,9.92 39.47,9.53 C33.61,7.69 28.96,10.34 24.68,13.76 C27,9.63 30.56,7.24 36.2,7 C41.84,6.76 47.14,9.23 49.82,14.15 C41,12.36 31.69,21.35 23.7,17.14 L23.73,17.14 Z"/>
      <path id="Path" fill="#3D454C" fill-rule="nonzero" d="M46.93,38.83 C46.7833464,38.785191 46.6266536,38.785191 46.48,38.83 C32.83,39.02 19.19,38.28 5.54,38.48 C5.17381334,38.4725413 4.83884401,38.6853453 4.69,39.02 C4.6864285,39.0465471 4.6864285,39.0734529 4.69,39.1 L4.69,39.18 C4.65281783,39.2768955 4.62600162,39.3774563 4.61,39.48 C4.23933272,43.3545835 5.45404169,47.2140644 7.9769988,50.1779266 C10.4999559,53.1417889 14.1159446,54.9572052 18,55.21 C19.29,55.3 19.28,53.3 18,53.21 C11.3480284,52.7555072 6.25774327,47.1030775 6.5,40.44 C19.4,40.29 32.28,40.93 45.18,40.81 C41.2948003,48.1988383 33.8412089,53.0302207 25.51,53.56 C24.23,53.64 24.22,55.64 25.51,55.56 C35.1569475,54.9962072 43.6900409,49.1147707 47.65,40.3 C47.6556573,40.2568513 47.6556573,40.2131487 47.65,40.17 C47.6545429,40.130129 47.6545429,40.089871 47.65,40.05 C47.6589288,39.9836323 47.6589288,39.9163677 47.65,39.85 C47.7127364,39.3742588 47.3992822,38.9301986 46.93,38.83 Z"/>
      <path id="Path" fill="#3D454C" fill-rule="nonzero" d="M35.14 49.32C35.5922526 49.032504 35.7374802 48.4396032 35.4692932 47.9756398 35.2011063 47.5116763 34.6148504 47.3415983 34.14 47.59 26.3795678 52.3726822 16.2688556 50.5987977 10.6 43.46 9.77 42.46 8.36 43.89 9.18 44.87 15.4972786 52.6461703 26.5935331 54.5482632 35.14 49.32L35.14 49.32zM21.68 53.75C21.1277153 53.75 20.68 54.1977153 20.68 54.75 20.68 55.3022847 21.1277153 55.75 21.68 55.75 22.2322847 55.75 22.68 55.3022847 22.68 54.75 22.68 54.1977153 22.2322847 53.75 21.68 53.75z"/>
    </g>
  </g>
</svg>
