<svg xmlns="http://www.w3.org/2000/svg" width="64" height="64" viewBox="0 0 64 64" style="background:#fff">
  <g id="Maniok" fill="none" fill-rule="evenodd" stroke="none" stroke-width="1">
    <rect width="64" height="64" fill="#FFF"/>
    <g id="9-Maniok" transform="translate(2 9)">
      <g id="Layer_2">
        <rect id="Rectangle" width="60" height="60" x="0" y="0"/>
        <rect id="Rectangle" width="60" height="60" x="0" y="0"/>
      </g>
      <g id="Layer_1" transform="translate(7 12)">
        <path id="Path" fill="#3CDE88" fill-opacity=".5" d="M25.38,10.42 C26.5691552,12.3126497 27.4785538,14.3672168 28.08,16.52 C28.7677363,18.5635592 30.4934566,20.0849828 32.6070989,20.5111653 C34.7207412,20.9373478 36.9011929,20.203542 38.3270989,18.5861653 C39.7530049,16.9687886 40.2077363,14.7135592 39.52,12.67 C38.4971511,9.32617126 36.9984599,6.14692523 35.07,3.23 C33.0845363,0.554180387 29.3058196,-0.00546367564 26.63,1.98 C23.9541804,3.96546368 23.3945363,7.74418039 25.38,10.42 L25.38,10.42 Z"/>
        <path id="Path" fill="#C17953" fill-opacity=".5" fill-rule="nonzero" d="M43.9,23.73 C39.54,21.73 34.68,21.59 30.37,19.52 C26.06,17.45 22.37,13.92 17.37,12.93 C6,10.66 -0.35,23.47 4.92,32.74 C5.86,34.39 8.27,35.67 10.11,34.69 C11.4216378,34.0066981 12.5135663,32.9667662 13.26,31.69 C17,28.88 23.26,34.69 27,35.89 C32.8256998,37.6232407 39.1203683,36.6779413 44.18,33.31 C47,31.3 47.4,25.41 43.9,23.73 Z"/>
        <path id="Shape" fill="#3C454E" d="M46.18,28.67 C46.1201524,27.5460586 45.8593635,26.4419392 45.41,25.41 C45.0629235,24.4193149 44.1297139,23.7544531 43.08,23.75 C41.1246649,23.6295561 39.1619569,23.7606274 37.24,24.14 C33.3097903,23.1832775 29.4341417,22.014908 25.63,20.64 C25.57,15.94 27.46,11.51 29.04,7.16 C29.47,5.97 29.88,4.77 30.32,3.58 C30.32,3.51 30.39,3.36 30.44,3.2 L30.52,3.25 C31.4566354,3.8491209 32.2934766,4.59148006 33,5.45 C36,9 38.44,13.2 38,18 C37.9750255,18.2654479 38.0570888,18.5298782 38.2279595,18.7345475 C38.3988302,18.9392169 38.6443585,19.0671764 38.91,19.09 C39.455912,19.1424141 39.9421839,18.7453664 40,18.2 C40.5,12.83 37.92,8.1 34.48,4.13 C33.6503198,3.11803497 32.6686421,2.24093457 31.57,1.53 C31.57,1.53 31.12,1.23 30.78,1.05 C30.5786157,0.938827563 30.3634181,0.854765999 30.14,0.8 C29.8736704,0.757334045 29.6008394,0.810482931 29.37,0.95 C29.0951837,1.15135897 28.886356,1.42979579 28.77,1.75 C28.62,2.12 28.51,2.67 28.43,2.88 C27.99,4.07 27.58,5.28 27.15,6.47 C25.57,10.81 23.76,15.24 23.62,19.9 C21.5,19.1 19.4,18.25 17.33,17.32 C16.55,16.99 15.83,16.67 15.21,16.37 C12.01,14.92 6.29,15.37 3.7,18.04 C1.05732508,20.8039683 0.0122474497,24.7277255 0.93,28.44 C1.93,33.61 6.87,36.28 15.09,36.28 C16.33,36.28 17.65,36.22 19.04,36.1 C23.4098625,35.7067125 27.8046579,35.6732666 32.18,36 C33.12,36.06 33.98,36.11 34.8,36.13 L35.12,36.13 C38.2322416,36.1880568 41.3082928,35.4551721 44.06,34 C44.9363223,33.6936424 45.6057319,32.9756165 45.85,32.08 C46.1892055,30.9772926 46.301464,29.8172883 46.18,28.67 Z M35.18,34.07 C34.8698401,33.4835683 34.731209,32.8216047 34.78,32.16 C34.78,31.6077153 34.3322847,31.16 33.78,31.16 C33.2277153,31.16 32.78,31.6077153 32.78,32.16 C32.7696329,32.7963532 32.8401984,33.4314433 32.99,34.05 L32.45,34.05 C29.6868227,33.8100711 26.9132851,33.7099434 24.14,33.75 L24.14,33.75 C23.4030666,33.8204321 22.6875037,33.478039 22.28,32.86 C21.5494977,31.3644357 21.5494977,29.6155643 22.28,28.12 C22.3529218,27.9776684 22.3906435,27.8199233 22.39,27.66 C22.4206148,27.1729883 22.0952598,26.7349962 21.6201613,26.623645 C21.1450628,26.5122937 20.6589731,26.7601035 20.47,27.21 C19.4215081,29.3421478 19.4699497,31.849934 20.6,33.94 L19.27,34 C19.0734047,34.0100332 18.8851396,33.919666 18.77,33.76 C18.2010365,32.8295857 17.977985,31.7284903 18.14,30.65 C18.14,30.0977153 17.6922847,29.65 17.14,29.65 C16.7678193,29.6472758 16.4249196,29.8514745 16.25,30.18 C16.0239701,31.5344945 16.2013303,32.9255547 16.76,34.18 C10.69,34.44 4.08,33.4 3,28 C2.18327599,24.9575262 2.99634907,21.7090156 5.15,19.41 C6.96,17.51 11.41,17.11 13.96,18.04 C12.4284588,19.4092947 11.5129188,21.3376958 11.42,23.39 C11.42,23.9422847 11.8677153,24.39 12.42,24.39 C12.9722847,24.39 13.42,23.9422847 13.42,23.39 C13.5233715,21.7989806 14.2976579,20.326746 15.55,19.34 C15.8293828,19.1116153 16.2023479,19.0332926 16.55,19.13 C23.1433214,22.1348289 30.0075855,24.5055113 37.05,26.21 C37.1951417,26.2399102 37.3448583,26.2399102 37.49,26.21 C38.5907498,25.9869701 39.7077139,25.8532019 40.83,25.81 C41.95,25.81 40.83,25.81 40.83,25.87 C40.5671612,26.9595767 40.5027996,28.0875982 40.64,29.2 C40.6812975,30.4928361 40.9804869,31.7643911 41.52,32.94 C39.4966031,33.761627 37.3225041,34.1466947 35.14,34.07 L35.18,34.07 Z M44,31.39 L44,31.39 C43.93,31.59 43.74,32.05 43.47,32.07 C43.2,32.09 42.93,32.07 42.66,28.99 C42.557822,28.1421269 42.6017925,27.2830109 42.79,26.45 C42.79,26.31 42.97,25.86 43.16,25.84 C43.35,25.82 43.57,26.25 43.63,26.37 C43.9640946,27.1777648 44.1569001,28.0369332 44.2,28.91 C44.3049983,29.741615 44.2369061,30.5859579 44,31.39 Z"/>
        <path id="Path" fill="#3C454E" d="M12.65 26.16C12.0977153 26.16 11.65 26.6077153 11.65 27.16 11.65 27.7122847 12.0977153 28.16 12.65 28.16 13.2022847 28.16 13.65 27.7122847 13.65 27.16 13.65 26.6077153 13.2022847 26.16 12.65 26.16zM31.16 20.43C31.4228321 20.4858525 31.6970831 20.4335816 31.9209448 20.2849675 32.1448066 20.1363534 32.2994417 19.9039017 32.35 19.64 33.0987161 16.3603436 33.2444226 12.9718213 32.78 9.64 32.6971573 9.08771527 32.1822847 8.70715733 31.63 8.79000004 31.0777153 8.87284275 30.6971573 9.38771526 30.78 9.94 31.2055329 13.0331341 31.0632028 16.1779509 30.36 19.22 30.2982099 19.4871992 30.3488696 19.7680493 30.5001228 19.9968196 30.6513759 20.22559 30.8899469 20.3822013 31.16 20.43zM37.65 20.92C37.4789534 21.1358864 37.4045245 21.4127636 37.4442715 21.6853146 37.4840185 21.9578655 37.6344217 22.2019548 37.86 22.36 38.0771553 22.5300406 38.354898 22.6028426 38.6275427 22.5611885 38.9001874 22.5195345 39.1435226 22.3671233 39.3 22.14 39.6368937 21.6843651 39.5406349 21.0418937 39.085 20.705 38.6293651 20.3681064 37.9868937 20.4643651 37.65 20.92z"/>
      </g>
    </g>
  </g>
</svg>
