<svg xmlns="http://www.w3.org/2000/svg" width="64" height="64" viewBox="0 0 64 64" style="background:#fff">
  <g id="Maracuja" fill="none" fill-rule="evenodd" stroke="none" stroke-width="1">
    <rect width="64" height="64" fill="#FFF"/>
    <g transform="translate(2 4)">
      <rect id="Rectangle" width="60" height="60" x="0" y="0"/>
      <path id="Path" fill="#D4BA39" fill-rule="nonzero" d="M27.19,31.91 C25.6454163,30.509217 23.7345024,29.5763026 21.68,29.22 C20.3789959,28.662971 18.9585755,28.4428574 17.55,28.58 C14.7249856,28.707461 12.0095603,29.7104559 9.78,31.45 C3.61,36.7 5.11,47 11.15,51.8 C15.75,55.42 22.77,55.71 27.04,51.46 C32.38,46.14 32.66,36.82 27.19,31.91 Z" opacity=".5"/>
      <path id="Path" fill="#E05362" fill-rule="nonzero" d="M43.29,8.21 C42.8222058,8.07026935 42.3263594,8.05305247 41.85,8.16 C41.5221043,8.07295931 41.1876661,8.01276043 40.85,7.98 C31.08,7.17 21.11,13.92 23.64,24.62 C24.1005737,27.3093278 25.5219828,29.7399374 27.64,31.46 C29.16,32.58 31.12,32.56 32.59,33.57 C34.25,34.71 34.67,39.65 37.06,41.75 C44.86,48.63 51.06,35.58 52.06,29.51 C53.34,22.36 51.56,10.55 43.29,8.21 Z" opacity=".5"/>
      <path id="Path" fill="#3D454C" fill-rule="nonzero" d="M26.15 40.87C25.7227519 40.8296739 25.3095338 41.0348455 25.0834095 41.3995851 24.8572851 41.7643246 24.8572851 42.2256754 25.0834095 42.5904149 25.3095338 42.9551545 25.7227519 43.1603261 26.15 43.12 26.730367 43.0652217 27.1738162 42.5779464 27.1738162 41.995 27.1738162 41.4120536 26.730367 40.9247783 26.15 40.87zM22 39.45C21.5411628 39.4459571 21.1254372 39.7197798 20.9479752 40.1429289 20.7705131 40.5660779 20.8665537 41.0545273 21.1910132 41.3789868 21.5154727 41.7034463 22.0039221 41.7994869 22.4270711 41.6220248 22.8502202 41.4445628 23.1240429 41.0288372 23.12 40.57 23.1145698 39.9537044 22.6162956 39.4554302 22 39.45L22 39.45z"/>
      <circle id="Oval" cx="19.1" cy="36.15" r="1.12" fill="#3D454C" fill-rule="nonzero"/>
      <circle id="Oval" cx="16.17" cy="40.72" r="1.12" fill="#3D454C" fill-rule="nonzero"/>
      <path id="Path" fill="#3D454C" fill-rule="nonzero" d="M20.34 44C19.8820694 43.9959474 19.4669713 44.2686787 19.2889136 44.6905937 19.1108559 45.1125087 19.2050499 45.6001728 19.527426 45.9254273 19.8498021 46.2506818 20.3366098 46.3492068 20.7600908 46.1749064 21.1835718 46.000606 21.4599821 45.5879485 21.46 45.13 21.4626677 44.8312287 21.3458468 44.5437765 21.1355162 44.331568 20.9251856 44.1193595 20.6387832 43.9999881 20.34 44zM25.51 35.62C25.5099821 35.1620515 25.2335718 34.749394 24.8100908 34.5750936 24.3866098 34.4007932 23.8998021 34.4993182 23.577426 34.8245727 23.2550499 35.1498272 23.1608559 35.6374913 23.3389136 36.0594063 23.5169713 36.4813213 23.9320694 36.7540526 24.39 36.75 24.6887832 36.7500119 24.9751856 36.6306405 25.1855162 36.418432 25.3958468 36.2062235 25.5126677 35.9187713 25.51 35.62L25.51 35.62z"/>
      <path id="Shape" fill="#3D454C" fill-rule="nonzero" d="M21.57,29.35 C15.6670904,29.396319 10.8633642,34.1134099 10.7096338,40.0144991 C10.5559034,45.9155883 15.1075089,50.8763968 21,51.23 C27.42,51.54 32.17,46.47 32.5,40.3 C32.21,34.36 27.78,29.35 21.57,29.35 Z M12.57,40.3 C12.57,28.73 29.86,28.83 30.48,40.3 C29.91,51.77 12.62,51.87 12.62,40.3 L12.57,40.3 Z"/>
      <path id="Shape" fill="#3D454C" fill-rule="nonzero" d="M21.57,24.23 C12.8481765,24.4475532 5.89096758,31.5804637 5.89096758,40.305 C5.89096758,49.0295363 12.8481765,56.1624468 21.57,56.38 C30.57,56.38 37.26,49.01 37.65,40.3 C37.26,31.57 30.61,24.23 21.57,24.23 Z M21.57,54.38 C13.9426811,54.1766771 7.86519995,47.9350284 7.86519995,40.305 C7.86519995,32.6749716 13.9426811,26.4333229 21.57,26.23 C29.51,26.23 35.31,32.63 35.65,40.3 C35.31,48 29.5,54.38 21.57,54.38 L21.57,54.38 Z"/>
      <path id="Path" fill="#3D454C" fill-rule="nonzero" d="M46.21 10.47C45.21 9.71 44.21 11.47 45.21 12.2 56.07 20.2 56.29 39 40.43 40.82 39.16 40.97 39.15 42.97 40.43 42.82 58.2 40.78 58.84 19.76 46.21 10.47zM37.58 9.15C31.4874112 10.8774116 26.382703 15.0516872 23.48 20.68 22.88 21.82 24.6 22.83 25.2 21.68 27.8470759 16.5052183 32.5277663 12.6650234 38.12 11.08 38.6529548 10.9308831 38.9641168 10.3779548 38.815 9.84500001 38.6658831 9.31204524 38.1129548 9.00088314 37.58 9.15zM42 13.47C42.3182526 10.6226655 43.6789731 7.99383893 45.82 6.09 46.77 5.21 45.35 3.8 44.4 4.67 41.8973845 6.95966022 40.3301589 10.0941115 40 13.47 39.88 14.75 41.88 14.74 42 13.47z"/>
    </g>
  </g>
</svg>
