<svg xmlns="http://www.w3.org/2000/svg" width="64" height="64" viewBox="0 0 64 64" style="background:#fff">
  <g id="Margarine" fill="none" fill-rule="evenodd" stroke="none" stroke-width="1">
    <rect width="64" height="64" fill="#FFF"/>
    <g transform="translate(2 9)">
      <rect id="Rectangle" width="60" height="60" x="0" y="0"/>
      <g id="Group" fill="#EBE53F" fill-rule="nonzero" opacity=".5" transform="translate(0 20)">
        <path id="Path" d="M39.57,8.12 C31.95,8.72 24.18,8.23 16.63,9.3 C13,9.82 12.89,16 15.31,18 L15.5,18.14 C14.97,18.14 14.45,18.14 13.92,18.14 C9.68,18.19 5.76,17.14 2.25,19.88 C0.25,21.43 0.49,25.49 1.8,27.33 C7.11,34.75 21.46,32.93 29.08,30.52 C31.52,29.74 32.57,26.18 32.35,22.82 C34.85,22.82 37.35,22.65 39.93,22.49 C46.36,22.13 45.88,7.62 39.57,8.12 Z"/>
        <path id="Path" d="M49.75,0.52 C45.2433333,0.98 40.73,1.34333333 36.21,1.61 C34.21,1.73 34.4,5.45 35.92,6.1 C40.3102636,8.05567843 45.1475518,8.78818208 49.92,8.22 C53.36,7.8 53.12,0.18 49.75,0.52 Z"/>
      </g>
      <path id="Shape" fill="#3D454C" fill-rule="nonzero" d="M58,27 C57.5916151,26.7259927 57.0446162,26.7895972 56.71,27.15 C55.15,28.85 52.53,28.51 51.32,28.23 C51.4,24.46 50.62,23.01 50.32,22.59 C49.75,21.69 48.32,21.3 45.52,21.3 L37.52,21.3 C36.5350718,21.2965648 35.5605053,21.5010193 34.66,21.9 L32.66,22.75 L26.66,19.34 L26.66,19.34 L14,12.11 C13.054103,11.3924128 11.7739992,11.3001821 10.7350025,11.8747589 C9.69600589,12.4493357 9.09361767,13.5826057 9.19856776,14.7652459 C9.30351785,15.9478862 10.0960585,16.9573671 11.22,17.34 L23.3,23.68 C23.209069,24.5949336 23.6276897,25.4859427 24.39,26 L16,29.91 C15.7861009,29.9903835 15.5788043,30.0873448 15.38,30.2 L15.3,30.2 L15.3,30.2 C13.9792434,30.973002 13.1483419,32.3704271 13.1,33.9 C13.1,34.57 13.1,35.27 13.1,35.9 C13.1,36.53 13.1,37.23 13.16,37.99 L8.34,37.99 C6.9784046,37.9744498 5.64136371,38.3529887 4.49,39.08 C3.95,39.5 3.31,40.01 2.77,40.49 C2.44,40.78 2.11,41.08 1.82,41.37 C1.4495127,41.6788327 1.22477378,42.1283105 1.2,42.61 L1.2,49.21 C1.1851671,49.686994 1.36577724,50.1493559 1.7,50.49 C2.4502865,51.1155292 3.41651078,51.4208417 4.39,51.34 L24.9,51.34 C27.0109798,51.3459846 29.056893,50.609739 30.68,49.26 C31.06,48.87 31.45,48.47 31.77,48.12 L33.38,46.27 C33.5349056,46.0888582 33.6200183,45.8583445 33.62,45.62 L33.62,42.27 L39.27,42.27 C40.1123813,42.264288 40.9194189,41.9307125 41.52,41.34 C44.8782134,38.7987159 47.8873824,35.826531 50.47,32.5 C50.8356097,32.0276415 51.06397,31.4636607 51.13,30.87 C51.13,30.64 51.13,30.43 51.19,30.21 C52.3477221,30.4569949 53.5411684,30.4875091 54.71,30.3 C52.1350651,33.9704642 49.2655874,37.4252084 46.13,40.63 C46.13,40.41 46.13,40.19 46.05,39.95 C45.9643959,39.3977153 45.4472847,39.0193959 44.895,39.105 C44.3427153,39.1906042 43.9643959,39.7077153 44.05,40.26 C44.3409118,41.3327138 44.1314134,42.4794418 43.48,43.38 C42.48,44.52 40.36,44.38 39.67,44.38 L36.67,44.38 C36.1177153,44.38 35.67,44.8277153 35.67,45.38 C35.67,45.9322847 36.1177153,46.38 36.67,46.38 L39.6,46.38 L40.27,46.38 C42.0080837,46.5023394 43.7195678,45.9016917 45,44.72 C45.0984845,44.6101317 45.1887294,44.4931476 45.27,44.37 C55.27,34.42 58.27,28.47 58.33,28.22 C58.5234927,27.786553 58.3856099,27.2768044 58,27 Z M43.67,31.25 L43.67,31.25 L45.09,32.06 C44.3739273,32.7395072 43.472735,33.1918431 42.5,33.36 C42.1434646,31.2061074 40.2831965,29.6248795 38.1,29.62 L34.33,29.62 L25.54,24.37 C25.2916086,24.2263011 25.2065768,23.9085507 25.35,23.66 L26.56,21.53 L43.67,31.25 Z M30.43,29.62 L21.35,29.62 L26.44,27.24 L30.43,29.62 Z M11.63,15 C11.5452129,14.7470501 11.5744022,14.4697515 11.71,14.24 C11.9714094,13.7925681 12.5313109,13.6189552 13,13.84 L24.79,20.54 L24.06,21.83 L12.06,15.55 C11.8485019,15.4319918 11.6934914,15.2337226 11.63,15 L11.63,15 Z M30.27,46.83 C29.97,47.16 29.62,47.53 29.27,47.89 C28.0219836,48.8561847 26.4883085,49.3803076 24.91,49.38 L4.39,49.38 C3.98317506,49.4068318 3.57570213,49.3383489 3.2,49.18 L3.2,44.44 C3.59289937,44.5086879 3.99114752,44.5421541 4.39,44.54 L6.25,44.54 C6.80228475,44.54 7.25,44.0922847 7.25,43.54 C7.25,42.9877153 6.80228475,42.54 6.25,42.54 L4.39,42.54 C4.12220611,42.5400878 3.85478497,42.5200312 3.59,42.48 L4.09,42.03 C4.6,41.58 5.2,41.1 5.72,40.7 C6.51677689,40.2408022 7.42037201,39.9993837 8.34,39.9999988 L30.91,39.9999988 L30.36,40.4999988 C30.06,40.76 29.71,41.05 29.36,41.33 C28.0114678,42.1204345 26.473006,42.5283862 24.91,42.51 L14.23,42.57 C13.6777153,42.57 13.23,43.0177153 13.23,43.57 C13.23,44.1222847 13.6777153,44.57 14.23,44.57 L14.23,44.57 L24.9,44.51 C26.9124215,44.5346422 28.8888409,43.9754094 30.59,42.9 C30.95,42.61 31.31,42.32 31.59,42.05 L31.59,45.26 L30.27,46.83 Z M33.62,40.27 L33.62,39.75 C33.62,39.75 33.62,39.69 33.62,39.65 C33.6386144,39.4498072 33.6112517,39.2480076 33.54,39.06 C33.25,38.37 32.47,38.06 31.23,38.06 L15.11,38.06 C15.11,37.3 15.05,36.59 15.05,35.97 C15.05,35.35 15.05,34.65 15.05,34.02 C15.0704187,33.2118577 15.4850062,32.4648532 16.16,32.02 L16.74,31.75 C16.9943803,31.6622636 17.2609613,31.6150214 17.53,31.6099995 L38.1,31.6099995 C39.4352752,31.6091205 40.5315427,32.6656041 40.58,34 C40.58,34.67 40.64,35.36 40.64,36 C40.64,36.84 40.64,37.94 40.5,39.18 C40.478186,39.449374 40.3653301,39.7032998 40.18,39.9 L39.88,40.1099995 C39.8515959,40.1317645 39.8278015,40.1589582 39.81,40.19 C39.6426005,40.2761114 39.4581513,40.3239316 39.27,40.33 L33.62,40.27 Z M49.14,30.67 C49.1101252,30.8883003 49.0239701,31.0950727 48.89,31.27 C46.9968367,33.7015227 44.8846571,35.954291 42.58,38 C42.58,37.34 42.64,36.64 42.64,36 C42.64,35.82 42.64,35.63 42.64,35.44 C44.16,35.13 46.13,34.37 46.9,33.02 C47.4101095,32.1083071 47.0884815,30.955807 46.18,30.44 L44.84,29.67 L44.84,29.67 L34.84,24 L35.43,23.75 C36.0783866,23.4621513 36.7806041,23.3155719 37.49,23.32 L45.49,23.32 C46.4557103,23.2754474 47.4227231,23.3731595 48.36,23.61 C48.1302916,23.8400539 47.8791532,24.0476616 47.61,24.23 L45.8,25.42 C45.3444026,25.7320654 45.228003,26.3543558 45.54,26.81 C45.7262704,27.0855788 46.0373739,27.2505011 46.37,27.25 C46.570491,27.2474987 46.7656002,27.184785 46.93,27.07 L48.77,25.81 L49.17,25.51 C49.3640334,27.2251373 49.353963,28.9572348 49.14,30.67 L49.14,30.67 Z"/>
      <path id="Path" fill="#3D454C" fill-rule="nonzero" d="M10.18,42.58 L10,42.58 C9.44771525,42.58 9,43.0277153 9,43.58 C9,44.1322847 9.44771525,44.58 10,44.58 L10.2,44.58 C10.7522847,44.5744772 11.1955228,44.1222847 11.19,43.57 C11.1844772,43.0177153 10.7322847,42.5744772 10.18,42.58 Z"/>
    </g>
  </g>
</svg>
