<svg xmlns="http://www.w3.org/2000/svg" width="64" height="64" viewBox="0 0 64 64" style="background:#fff">
  <g id="Marmelade" fill="none" fill-rule="evenodd" stroke="none" stroke-width="1">
    <rect width="64" height="64" fill="#FFF"/>
    <g transform="translate(2 4)">
      <rect id="Rectangle" width="60" height="60" x="0" y="0"/>
      <path id="Path" fill="#E05362" fill-rule="nonzero" d="M38.45,28 C36.75,24.47 33.76,22.37 30.13,24.92 C28.22,26.26 28.66,27 26.51,25.74 C24.9156439,24.6266883 22.9907152,24.0872852 21.05,24.21 C19.16,24.42 17.7,25.14 15.78,25.1 C13.46,25.05 12.11,25.24 10.52,27.1 C7.39,30.7 6.89,36.68 7.75,41.15 C9.59727658,50.236629 17.2800053,56.9743575 26.53,57.62 C31.27,57.96 34.93,55.04 36.68,50.75 C38.68,45.84 37.25,41.18 38.08,36.22 C38.2090918,35.3457256 38.2258946,34.4585355 38.13,33.58 C38.84,31.64 39,29.09 38.45,28 Z" opacity=".5"/>
      <path id="Shape" fill="#3D454C" fill-rule="nonzero" d="M47.54,39.68 C45.7843866,38.0888689 44.5651097,35.9926908 44.05,33.68 C43.97,33.12 43.88,32.52 43.78,31.88 C43.39,29.31 42.89,26.02 42.07,22.52 C43.263671,23.3532852 43.9229285,24.7594473 43.8,26.21 C43.8,26.7622847 44.2477153,27.21 44.8,27.21 C45.3522847,27.21 45.8,26.7622847 45.8,26.21 C45.929215,23.8397486 44.6893906,21.6049554 42.61,20.46 L42.29,20.23 C42.1096884,20.1278292 41.9821472,19.9529156 41.94,19.75 C43.27,19.05 43.94,18.2 43.94,17.23 C43.9801717,16.5974092 43.7597627,15.975928 43.33,15.51 C43.3708552,14.1323646 43.1850463,12.7573784 42.78,11.44 C42.34,10.13 40.26,9.18 36.45,8.55 C36.2,8.17 35.94,7.79 35.67,7.42 C34.9791117,6.48013725 33.7088709,6.17951359 32.67,6.71 L33.07,7.63 L32.62,6.74 L32.62,6.74 C32.0816603,6.99591128 31.6600986,7.44605337 31.44,8 C30.23,7.93 28.99,7.89 27.73,7.89 C26.26,7.89 14.07,7.99 12.73,11.34 L12.73,11.34 C12.2959296,12.6754357 12.099618,14.0766942 12.15,15.48 C11.7242479,15.9483381 11.5044612,16.5680645 11.54,17.2 C11.54,18.2 12.33,19.07 13.59,19.73 C13.546443,19.9297511 13.4188937,20.1010316 13.24,20.2 L12.92,20.43 C10.8406094,21.5749554 9.60078501,23.8097486 9.73,26.18 L9.73,45 C9.73,45.08 9.73,45.18 9.73,45.29 C9.73,45.4 9.73,45.29 9.73,45.29 C9.72021408,45.4064615 9.72021408,45.5235385 9.73,45.64 C10.01,48.34 12.2,55.64 27.73,55.64 C31.1170733,55.7165658 34.494174,55.2437717 37.73,54.24 C38.0909998,54.1444244 38.3686672,53.8556657 38.4500375,53.4912012 C38.5314077,53.1267366 38.4029213,52.7473001 38.116851,52.5072599 C37.8307807,52.2672196 37.434797,52.2065756 37.09,52.35 C34.0469851,53.2852347 30.8724614,53.7208875 27.69,53.64 C17.75,53.64 13.94,50.64 12.49,48.06 C16.3,49.55 23.07,50.06 27.67,50.06 C31.5157611,50.0755127 35.354946,49.7407973 39.14,49.06 C40.119382,51.3046487 41.6334646,53.2753594 43.55,54.8 C44.78453,55.7617213 46.2867749,56.3172025 47.85,56.3903618 C49.1973724,56.4077031 50.4706493,55.7747876 51.27,54.69 C53.77,51.6 53,45 47.54,39.68 Z M40.89,12 C40.9027701,12.1368659 40.9436204,12.2696293 41.01,12.39 C41.2613258,13.5356145 41.3721422,14.7075819 41.34,15.88 C41.3428816,16.1688137 41.4704973,16.4422761 41.69,16.63 C41.95,16.86 41.95,16.86 41.95,17.16 C41.95,17.24 41.7,17.58 40.84,18 C40.0670726,15.5083558 39.0626947,13.0945011 37.84,10.79 C39.91,11.31 40.73,11.82 40.89,12 Z M27.73,9.87 C29.0633333,9.87 30.3533333,9.91 31.6,9.99 C31.6368825,10.0753202 31.6838863,10.155898 31.74,10.23 C33.7563697,12.9888381 35.2913709,16.0689838 36.28,19.34 C33.4543934,19.8083351 30.5941125,20.0358194 27.73,20.02 C21.14,20.02 16.94,19.02 14.92,18.19 C14.8481443,18.1465428 14.7707892,18.1129102 14.69,18.09 C13.93,17.74 13.53,17.41 13.5,17.19 C13.47,16.97 13.5,16.89 13.76,16.66 C13.9795027,16.4722761 14.1071184,16.1988137 14.11,15.91 C14.11,15.15 14.11,14.53 14.19,14.01 C17.85,16.01 26.51,16.01 27.73,16.01 C28.2822847,16.01 28.73,15.5622847 28.73,15.01 C28.73,14.4577153 28.2822847,14.01 27.73,14.01 C20.14,14.01 15.44,12.73 14.63,11.93 C15.44,11.15 20.14,9.87 27.73,9.87 Z M11.73,26.17 C11.6020849,24.4731005 12.4939509,22.8622413 14,22.07 L14.35,21.83 C14.8397772,21.5061995 15.2116321,21.0326108 15.41,20.48 C19.4281821,21.5458777 23.5732463,22.0572817 27.73,22 C30.7689064,22.0124963 33.8033089,21.7649265 36.8,21.26 C37.3775412,23.6723098 37.6927042,26.1399686 37.74,28.62 C34.4300351,29.115838 31.0868566,29.3565468 27.74,29.34 C17.74,29.34 12.07,27.57 11.68,26.62 L11.73,26.17 Z M27.75,48 C17.84,48 12.16,46.25 11.75,45.3 C11.75,45.17 11.75,45.05 11.75,44.96 L11.75,29 C15.31,30.8 22.83,31.35 27.81,31.35 C31.1560844,31.3651078 34.4986521,31.1311281 37.81,30.65 C37.81,31.75 37.71,32.87 37.58,34.05 C36.9578579,38.4407838 37.2990931,42.9143763 38.58,47.16 C35.0016092,47.7569756 31.3776456,48.0380586 27.75,48 L27.75,48 Z M49.75,53.45 C48.05,55.62 44.95,53.31 44.83,53.21 C40.39,49.74 38.48,43 39.48,34.28 C41,21.46 36.27,13 33.34,9 C33.275039,8.91449857 33.2529212,8.8039094 33.28,8.7 C33.3110187,8.5880145 33.3870467,8.49388449 33.49,8.44 L33.56,8.44 C33.7331112,8.34082066 33.9531607,8.38836238 34.07,8.55 C39.34,15.76 40.82,25.61 41.8,32.13 C41.9,32.77 41.99,33.38 42.08,33.94 C42.6520007,36.6973708 44.0756736,39.2054138 46.15,41.11 C51,45.83 51.38,51.41 49.78,53.47 L49.75,53.45 Z"/>
      <path id="Path" fill="#3D454C" fill-rule="nonzero" d="M43.86,47 C43.133216,45.7688565 42.6447083,44.4118907 42.42,43 C42.34,42.16 42.5,41.67 42.69,41.57 C43.0026074,41.3913672 43.1961691,41.0595296 43.1977723,40.6994873 C43.1993754,40.3394449 43.0087765,40.0058968 42.6977722,39.8244873 C42.386768,39.6430777 42.0026074,39.6413672 41.69,39.82 C41.11,40.13 40.17,40.99 40.39,43.19 C40.6471501,44.8894093 41.2312551,46.5228658 42.11,48 C42.8945099,49.5225253 43.9638373,50.8804013 45.26,52 C45.9342756,52.5974701 46.7904998,52.9498257 47.69,53.0001153 C48.0779523,53.0039275 48.4603286,52.9074722 48.8,52.72 C49.7185338,52.156747 50.2408927,51.1236372 50.15,50.05 C50.15,49.4977153 49.7022847,49.05 49.15,49.05 C48.5977153,49.05 48.15,49.4977153 48.15,50.05 C48.15,50.53 48.02,50.9 47.85,50.99 C47.68,51.08 47.16,50.99 46.5,50.45 C45.4079054,49.4790052 44.5117795,48.3079316 43.86,47 L43.86,47 Z"/>
      <path id="Shape" fill="#3D454C" fill-rule="nonzero" d="M32.88,34.29 C31.6198184,33.4818853 30.0811156,33.2320723 28.63,33.6 C28.3008109,33.6743343 27.9591891,33.6743343 27.63,33.6 L27.63,33.6 C26.1788844,33.2320723 24.6401816,33.4818853 23.38,34.29 C22.2132129,35.2428846 21.5284546,36.6636665 21.51,38.17 C21.2130753,40.1801423 21.8042644,42.2201098 23.13,43.76 C24.4466227,45.1037724 26.2487187,45.8610205 28.13,45.8610205 C30.0112813,45.8610205 31.8133773,45.1037724 33.13,43.76 C34.4557356,42.2201098 35.0469247,40.1801423 34.75,38.17 C34.7274404,36.6646335 34.0434732,35.2454931 32.88,34.29 Z M31.65,42.41 C29.7057824,44.3157144 26.5942176,44.3157144 24.65,42.41 C23.7127629,41.2795749 23.308255,39.8000237 23.54,38.35 C23.5209004,37.4181748 23.9077441,36.5240551 24.6,35.9 C25.0712763,35.5823005 25.6322096,35.4245381 26.2,35.45 C26.5528516,35.4504585 26.9047144,35.4873203 27.25,35.56 C27.8395976,35.6898903 28.4504024,35.6898903 29.04,35.56 C29.9332277,35.3139636 30.887815,35.436439 31.69,35.9 C32.3859598,36.5222209 32.7765641,37.4165952 32.76,38.35 C32.991745,39.8000237 32.5872371,41.2795749 31.65,42.41 L31.65,42.41 Z"/>
      <path id="Path" fill="#3D454C" fill-rule="nonzero" d="M26.42,36.25 C25.0029851,36.6708174 24.1373645,38.0990914 24.42,39.55 C24.5164736,40.0231232 24.9372392,40.3597357 25.42,40.35 C25.4829572,40.3597619 25.5470428,40.3597619 25.61,40.35 C26.150663,40.2441955 26.5039115,39.72103 26.4,39.18 C26.3363736,38.7182883 26.6357652,38.2843874 27.09,38.18 C27.5792399,37.9859499 27.834327,37.4458893 27.6734394,36.9447642 C27.5125519,36.4436391 26.9907652,36.1529958 26.48,36.28 L26.42,36.25 Z"/>
    </g>
  </g>
</svg>
