<svg xmlns="http://www.w3.org/2000/svg" width="64" height="64" viewBox="0 0 64 64" style="background:#fff">
  <g id="Maronen" fill="none" fill-rule="evenodd" stroke="none" stroke-width="1">
    <rect width="64" height="64" fill="#FFF"/>
    <g transform="translate(2 11)">
      <rect id="Rectangle" width="60" height="60" x="0" y="0"/>
      <path id="Path" fill="#C17953" fill-rule="nonzero" d="M36.47 30.08C34.54 24.32 30.07 20.19 25.2 16.82 24.3333277 16.1806165 23.4208742 15.6057374 22.47 15.1 22.32 13.74 21.62 12.42 20.32 12.99 15.4628315 15.2599152 11.2742402 18.7458152 8.16 23.11 5.54402993 26.1591595 3.76585303 29.836126 3 33.78 2.83467308 34.8337994 2.93082546 35.9120797 3.28 36.92 3.28203908 38.4943287 3.5248462 40.0590857 4 41.56 6.16 48.17 10.28 43.02 13.12 40.51 16.0592556 37.9839984 20.0571955 37.0743547 23.8 38.08 26.63 38.85 28.92 41.72 31.89 41.84 38 42.1 37.82 34.09 36.47 30.08zM50.89 21.7C48.01 18.86 43.03 15.7 38.79 16.7 33.89 17.81 34.07 25.96 38.06 28.12 40.92 29.67 43.79 30.4 46.18 32.77 48.57 35.14 49 37.87 50.47 40.57 50.9005514 41.3688685 51.6437244 41.9528855 52.5217412 42.1823457 53.399758 42.4118058 54.333644 42.2660698 55.1 41.78 57 40.5 57.47 38.01 57.54 35.87 57.69 30.61 54.5 25.27 50.89 21.7z" opacity=".5"/>
      <path id="Path" fill="#E0A075" fill-rule="nonzero" d="M46 39.65C44.53 38.81 42.36 37.96 40.65 38.23 39.4361038 38.429663 38.4551304 39.3282346 38.15 40.52 37.58 42.52 37.6 45.21 39.37 46.66 40.43 47.53 41.86 47.58 43.15 47.84 44.3771284 48.1539877 45.6455864 48.2754358 46.91 48.2 48.4764131 47.8570961 49.5563807 46.4199739 49.45 44.82 49.3112665 42.6023656 47.9945628 40.6292183 46 39.65zM28.1 43.09C26.8563724 40.6040995 24.2993316 39.0496674 21.52 39.09 18.83 38.98 15.72 40.01 14.44 42.5 13.44 44.39 13.12 48.75 15.85 49.58 17.85 50.2 19.74 49.05 21.76 48.79 23.78 48.53 25.54 48.52 27.44 47.54 29 46.72 28.81 44.42 28.1 43.09z" opacity=".5"/>
      <path id="Shape" fill="#3D454C" fill-rule="nonzero" d="M32.91,24.66 C29.55,20.78 24.91,18.22 20.75,15.97 C20.4225051,15.7805693 20.0161449,15.7921796 19.7,16 C15.29,19.08 10.29,22.58 7.27,27.64 C4.47,32.34 3.43,39.64 7.78,44.44 L7.91,44.56 C11.37,47.3 15.57,48 19.62,48 C20.88,48 22.13,47.94 23.34,47.84 C29.42,47.37 34.52,44.01 36.34,39.28 C38,34.79 36.7,29.06 32.91,24.66 Z M23.19,45.83 C19.08,46.15 14.49,46.15 10.73,44.06 C10.8136817,44.0181649 10.888408,43.9604218 10.95,43.89 C13.388557,40.9455131 16.9582745,39.1691836 20.777675,38.9996442 C24.5970754,38.8301047 28.3101421,40.2831585 31,43 C28.7062486,44.6432125 26.0039558,45.6224044 23.19,45.83 L23.19,45.83 Z M34.46,38.55 C34.0048787,39.7054168 33.3250946,40.7590822 32.46,41.65 C29.4059216,38.5949055 25.2390183,36.9158674 20.92,37 C16.461053,37.1607047 12.2788676,39.2027448 9.41,42.62 C9.30686497,42.7509835 9.23811378,42.9056737 9.21,43.07 L9.21,43.07 C5.77,39.16 6.49,32.89 9,28.69 C11.68,24.19 16.23,20.91 20.34,18.02 C24.34,20.21 28.42,22.51 31.4,26.02 C34.71,29.81 35.92,34.75 34.46,38.55 Z"/>
      <path id="Path" fill="#3D454C" fill-rule="nonzero" d="M56.09,35.48 C55.6871833,33.0558498 54.7884411,30.7409078 53.45,28.68 C51.5841558,25.8693909 49.2779811,23.3775068 46.62,21.3 C45.0196261,20.1341469 43.3079789,19.1292659 41.51,18.3 C41.2715065,18.2101993 41.0084935,18.2101993 40.77,18.3 C40.29,18.47 36.05,19.95 34.91,22.09 C34.7117849,22.4067507 34.7066987,22.8075853 34.8968127,23.1292636 C35.0869267,23.4509419 35.4405214,23.6397936 35.8135952,23.6189088 C36.1866691,23.598024 36.5169766,23.3708872 36.67,23.03 C37.21,22.03 39.49,20.9 41.03,20.33 C42.5412708,21.0293179 43.9813164,21.8732516 45.33,22.85 C47.8210004,24.7895099 49.9851036,27.1156676 51.74,29.74 C52.9342364,31.5557214 53.741051,33.5982901 54.11,35.74 C54.4553889,37.7958555 54.0125798,39.906341 52.87,41.65 C52.7954147,41.7478416 52.7152834,41.8413282 52.63,41.93 C49.3333289,38.7439591 44.9894948,36.8670815 40.41,36.65 C39.8766665,36.6493329 39.4366663,37.0673332 39.41,37.6 C39.3962942,37.8737686 39.4955689,38.1411614 39.6846112,38.339656 C39.8736536,38.5381505 40.1358887,38.6503429 40.41,38.65 C44.4578612,38.8427327 48.3000552,40.4904019 51.23,43.29 C49.6275392,44.3583816 47.7553422,44.951244 45.83,45 C42.9422678,44.981613 40.073649,44.5299151 37.32,43.66 C36.8017251,43.5565216 36.2924125,43.8741999 36.1573906,44.3851654 C36.0223686,44.8961309 36.3082618,45.4239413 36.81,45.59 C39.5290061,46.4126646 42.3415356,46.8864599 45.18,47 L45.93,47 C49.2696472,46.9965679 52.4237662,45.463725 54.49,42.84 C55.9380497,40.6786227 56.5100366,38.047483 56.09,35.48 Z"/>
      <path id="Path" fill="#3D454C" fill-rule="nonzero" d="M48.88 34.59C48.9456679 35.090992 49.3747407 35.4642854 49.88 35.4600365L50 35.4600365C50.2643709 35.4252406 50.5039111 35.2863368 50.6653971 35.0741518 50.826883 34.8619667 50.8969393 34.5940752 50.86 34.33 50.3878817 31.0282481 48.6076188 28.0551371 45.92 26.08 45.6288285 25.8709996 45.2482746 25.8332134 44.9216893 25.9808751 44.5951039 26.1285368 44.3721031 26.4392131 44.3366893 26.7958751 44.3012754 27.1525372 44.4588285 27.5009996 44.75 27.71 46.9984077 29.352297 48.4878103 31.8334326 48.88 34.59L48.88 34.59zM42.3 25.5500167C42.565803 25.5515368 42.8212812 25.4471865 43.01 25.26 43.3977236 24.8699625 43.3977236 24.2400375 43.01 23.85L42.89 23.73C42.4932397 23.3902232 41.9018058 23.4130677 41.5324368 23.7824368 41.1630677 24.1518058 41.1402232 24.7432397 41.48 25.14L41.6 25.26C41.7862606 25.4447442 42.0376601 25.5488954 42.3 25.5500167zM11 29.14L11 29.14C10.6106393 29.5321222 10.6128779 30.1656392 11.005 30.555 11.3971222 30.9443607 12.0306392 30.9421221 12.42 30.55L12.42 30.55C12.8093607 30.1578778 12.8071222 29.5243607 12.415 29.135 12.0228778 28.7456393 11.3893607 28.7478778 11 29.14zM9.41 34.54L9.41 34.62C9.41 35.1722847 9.85771525 35.62 10.41 35.62 10.9622847 35.62 11.41 35.1722847 11.41 34.62L11.41 34.54C11.41 33.9877153 10.9622847 33.54 10.41 33.54 9.85771525 33.54 9.41 33.9877153 9.41 34.54z"/>
    </g>
  </g>
</svg>
