<svg xmlns="http://www.w3.org/2000/svg" width="64" height="64" viewBox="0 0 64 64" style="background:#fff">
  <g id="Mascarpone" fill="none" fill-rule="evenodd" stroke="none" stroke-width="1">
    <rect width="64" height="64" fill="#FFF"/>
    <g transform="translate(2 7)">
      <g id="Layer_2">
        <rect id="Rectangle" width="60" height="60" x="0" y="0"/>
        <rect id="Rectangle" width="60" height="60" x="0" y="0"/>
      </g>
      <g id="Layer_1" fill-rule="nonzero" transform="translate(3 6)">
        <path id="Path" fill="#CCC" d="M49.85,18.78 L41.18,16.84 C38.18,16.16 36.24,18.32 35.49,21.11 C30.0209101,21.6393113 24.5067191,21.4712981 19.08,20.61 C21.1239019,19.5941482 23.0660611,18.3853215 24.88,17 C26.57,15.59 26.34,11.76 24.16,10.86 C16.72,7.74 7.76,13.1 2.66,17.93 C-0.34,20.79 -0.34,27.93 4.04,29.78 C18.7188883,35.754995 34.9936515,36.5590353 50.19,32.06 C54.92,30.75 54.68,19.86 49.85,18.78 Z" opacity=".5"/>
        <path id="Shape" fill="#3D454C" d="M52.61,25.89 C52.6057495,25.7052107 52.5503663,25.5252152 52.45,25.37 C52.45,25.37 52.45,25.29 52.45,25.25 C51.4252691,21.3013587 47.4051113,18.9205319 43.45,19.92 C42.7735234,18.4482081 41.48162,17.3502732 39.92,16.92 C39.5627344,16.8574785 39.1992526,16.9903052 38.9664746,17.2684456 C38.7336966,17.5465859 38.666987,17.9277837 38.7914746,18.2684456 C38.9159622,18.6091074 39.2127344,18.8574785 39.57,18.92 C40.68,19.12 41.44,20.43 42.07,21.64 C42.3050902,22.087603 42.837285,22.289322 43.31,22.11 C44.7527082,21.5563271 46.3629803,21.6435738 47.7374209,22.3498836 C49.1118616,23.0561934 50.1202605,24.3146526 50.51,25.81 C50.5320067,25.8799831 50.5622167,25.9471164 50.6,26.01 C50.42,27.63 43.11,29.96 27.6,29.96 C9.74,29.96 4.74,27.48 4.6,26.02 L4.6,26.02 L4.6,25.95 C4.6,25.95 4.6,25.95 4.6,25.88 C5.77457975,23.2054109 7.47494346,20.7942952 9.6,18.79 C11.5483906,20.0212375 14.0437183,19.9700714 15.94,18.66 C16.1820081,18.4839454 16.3324452,18.2087557 16.35,17.91 L16.55,14.54 C18.2363698,13.6574295 20.219461,13.5373525 22,14.21 C23.2366685,14.6076008 24.3965862,15.2129223 25.43,16 C25.6470921,16.1549905 25.9171088,16.2168251 26.1800152,16.1717554 C26.4429216,16.1266857 26.6769259,15.9784476 26.83,15.76 C27.146067,15.3095515 27.0388148,14.6883826 26.59,14.37 C25.4033596,13.4904415 24.0785894,12.8145383 22.67,12.37 C20.1456657,11.3590329 17.2882995,11.6309856 15,13.1 C14.7579919,13.2760546 14.6075548,13.5512443 14.59,13.85 L14.39,17.21 C13.0279847,17.8959406 11.3859068,17.6862295 10.24,16.68 C9.85789091,16.3304236 9.27210909,16.3304236 8.89,16.68 C6.23528931,19.0264088 4.1347333,21.9330318 2.74,25.19 C2.66817086,25.3710744 2.65079269,25.5691856 2.69,25.76 C2.68429972,25.8098375 2.68429972,25.8601625 2.69,25.91 C2.77990169,27.8268169 3.13667087,29.7217325 3.75,31.54 C3.73754734,31.7954381 3.82343367,32.0459399 3.99,32.24 C5.77,37.24 9.99,43.75 20.17,46.24 C20.2415624,46.297972 20.3084368,46.3615026 20.37,46.43 C20.6695667,46.7853188 21.0709766,47.0401268 21.52,47.16 C23.5533328,47.5495163 25.6197206,47.7404144 27.69,47.73 C29.9306306,47.7402153 32.1661661,47.5156563 34.36,47.06 C34.8094151,46.9292039 35.2119586,46.6724089 35.52,46.32 C35.61,46.23 35.74,46.09 35.7,46.11 C52.42,41.59 52.61,26 52.61,25.89 Z M27.61,31.89 C33.43,31.89 45.21,31.54 50.24,28.89 C50.12,29.48 49.96,30.13 49.75,30.82 C46.83,32.68 38.38,33.82 27.61,33.82 C16.27,33.82 8.28,32.82 5.52,30.96 C5.29,30.25 5.13,29.59 5,28.96 C8.56,30.9066667 16.0966667,31.8866667 27.61,31.9 L27.61,31.89 Z M35.1,44.2 C34.6907956,44.3401772 34.3253701,44.5849433 34.04,44.91 C33.9617497,44.9920142 33.8782395,45.0688436 33.79,45.14 C31.7571203,45.5596809 29.6857003,45.7641414 27.61,45.75 C25.7014942,45.7598176 23.7963396,45.5890568 21.92,45.24 L21.7,45 C21.4215305,44.6762 21.0577154,44.4371215 20.65,44.31 C12.65,42.31 8.65,37.74 6.65,33.63 C11.65,35.38 20.46,35.79 27.65,35.79 C37.01,35.79 44.56,34.93 48.74,33.45 C46.77,37.52 42.89,42.09 35.1,44.2 Z"/>
        <path id="Shape" fill="#3D454C" d="M26.67,18.55 C24.5,17.72 22.11,18.47 19.93,20.65 C18.8789829,21.6973505 18.0223455,22.923053 17.4,24.27 C16.85,23.93 16.32,23.54 15.77,23.13 C15.22,22.72 14.64,22.28 14.02,21.89 C13.7157755,21.64763 13.2986125,21.603659 12.9505411,21.7772738 C12.6024698,21.9508886 12.3866522,22.3105846 12.3972609,22.6994074 C12.4078697,23.0882303 12.6429796,23.4356231 13,23.59 C13.54,23.93 14.06,24.31 14.61,24.73 C15.6318421,25.5832524 16.7741855,26.2807894 18,26.8 C19.3816263,27.3086162 20.9076692,27.2547559 22.25,26.65 C22.8115555,26.3861907 23.3018636,25.991887 23.68,25.5 C24.6181639,26.0007917 25.4746387,26.6414617 26.22,27.4 C26.4053993,27.5945357 26.6612937,27.7062642 26.93,27.71 C27.01935,27.7252972 27.11065,27.7252972 27.2,27.71 L37.33,24.87 C37.8220617,24.6912765 38.0929979,24.1632946 37.9512588,23.6593335 C37.8095198,23.1553723 37.303085,22.846026 36.79,22.95 L30.7,24.65 C30.7785257,23.8841666 30.6933079,23.1103892 30.45,22.38 C30.3804397,22.1589813 30.4515937,21.9178483 30.63,21.77 L46.81,7.66 C47.942559,6.73025252 48.4510222,5.23939842 48.1225933,3.81137369 C47.7941644,2.38334895 46.6854815,1.26441949 45.2605386,0.922867434 C43.8355956,0.581315377 42.340127,1.07604211 41.4,2.2 L27.34,18.4 C27.1734267,18.5910149 26.9021189,18.6517555 26.67,18.55 Z M28.85,19.71 L42.92,3.49 C43.2541917,3.08397207 43.7438996,2.83742373 44.2690977,2.81078325 C44.7942958,2.78414277 45.3064381,2.97987261 45.68,3.35 C46.0545721,3.72685257 46.2511442,4.24525668 46.220614,4.77571879 C46.1900839,5.3061809 45.9353343,5.79860967 45.52,6.13 L29.31,20.22 C28.5192669,20.9086368 28.2195798,22.0048608 28.55,23 C28.7809111,23.7151561 28.7809111,24.4848439 28.55,25.2 L27.2,25.58 C26.1488265,24.5970507 24.9294094,23.8112041 23.6,23.26 C23.3449495,23.1486869 23.0550505,23.1486869 22.8,23.26 C22.5495637,23.3752088 22.3577937,23.5886886 22.27,23.85 C22.1305613,24.3021256 21.7970106,24.6686648 21.36,24.85 C20.6887161,25.1509235 19.9384683,25.2280518 19.22,25.07 C19.7479936,23.9575077 20.4615192,22.9430163 21.33,22.07 C22.25,21.14 24.08,19.71 25.95,20.42 C26.9697547,20.8172593 28.1291011,20.5334193 28.85,19.71 Z"/>
      </g>
    </g>
  </g>
</svg>
