<svg xmlns="http://www.w3.org/2000/svg" width="64" height="64" viewBox="0 0 64 64" style="background:#fff">
  <g id="Mayonnaise" fill="none" fill-rule="evenodd" stroke="none" stroke-width="1">
    <rect width="64" height="64" fill="#FFF"/>
    <g transform="translate(2 5)">
      <rect id="Rectangle" width="60" height="60" x="0" y="0"/>
      <path id="Path" fill="#CCC" fill-rule="nonzero" d="M47.22 37.47C45.55 37.15 43.83 37.67 42.14 37.32 39.99 36.88 39.44 35.65 38.02 34.19 35.8 31.91 33.88 36.19 34.02 37.87 34.0729688 38.5243868 34.1800007 39.1732678 34.34 39.81 33.062591 39.9205424 31.7975823 40.1447635 30.56 40.48 28.41 41.08 28.61 46.14 30.71 46.69 34.62 47.69 38.71 47.4 42.71 47.39 46.12 47.39 49.64 47.9 50.71 43.88 51.4 41.15 50.09 38 47.22 37.47zM20.91 19.45C20.17 17.9 18.78 18.54 18.49 20 17.57 24.48 18.02 29.21 17.49 33.76 16.96 38.31 15.63 42.64 15.57 47.13 15.57 49.13 18.02 52.36 19.65 49.56 22.16 45.26 22.49 39.56 22.65 34.7 22.81 29.84 23.08 24 20.91 19.45z" opacity=".5"/>
      <path id="Shape" fill="#3D454C" fill-rule="nonzero" d="M52.25,43.6 C51.582465,42.8431091 50.6684206,42.347116 49.67,42.2 L49.67,42.2 C49.2224759,41.7296329 48.6940818,41.3434987 48.11,41.06 L48.11,40.94 C48.1140408,40.9202041 48.1140408,40.8997959 48.11,40.88 L48.11,40.88 L48.11,40.88 C48.11,38.55 44.33,37.54 41.03,37.38 C39.28,36.73 39.4,36.17 39.45,35.93 C39.6042413,35.4758442 39.4464359,34.9741041 39.06,34.69 C38.47,34.27 37.97,34.58 37.15,35.08 C36.154705,35.615978 35.5907338,36.7081759 35.73,37.83 C33.26,38.42 31.87,39.51 31.87,40.83 C31.8658593,40.9099464 31.8658593,40.9900536 31.87,41.07 C31.2050721,41.3846981 30.6177768,41.8422422 30.15,42.41 C29.295989,42.5589876 28.4979672,42.9355433 27.84,43.5 C27.5324612,43.8418792 27.3709412,44.2905457 27.39,44.75 C27.58,50.75 33.11,55.41 39.97,55.41 C46.83,55.41 52.43,50.58 52.56,44.64 C52.5730631,44.2687754 52.4641796,43.9034888 52.25,43.6 L52.25,43.6 Z M33.55,42.51 C33.8597515,42.3936149 34.091875,42.13154 34.17,41.81 C34.2457779,41.490433 34.1598079,41.1540284 33.94,40.91 C33.94,40.91 33.87,40.83 33.87,40.82 C33.95,40.61 34.71,40.02 36.54,39.63 C36.6173566,39.734833 36.7008352,39.8350072 36.79,39.93 C36.9790592,40.1394794 37.2478218,40.259333 37.53,40.26 C37.9288548,40.262716 38.2911801,40.028149 38.4519637,39.6631269 C38.6127473,39.2981047 38.5412368,38.8724434 38.27,38.58 C38.1264221,38.4279504 37.9959574,38.2640332 37.88,38.09 L37.88,38.09 C37.7358106,37.8458451 37.6727881,37.562244 37.7,37.28 C38.3564229,38.2632056 39.3480761,38.9740681 40.49,39.28 C40.5834004,39.311952 40.6812923,39.3288299 40.78,39.33 C44.12,39.47 45.85,40.4 46.07,40.77 C45.87,41.13 44.89,41.83 42.07,41.87 C41.5177153,41.87 41.07,42.3177153 41.07,42.87 C41.07,43.4222847 41.5177153,43.87 42.07,43.87 L42.07,43.87 C43.7459511,43.9693739 45.4143916,43.5765952 46.87,42.74 C48.03,43.26 48.35,43.74 48.35,43.97 C48.35,44.5222847 48.7977153,44.97 49.35,44.97 C49.6847942,44.9605393 49.9926219,44.7841015 50.17,44.5 C50.2661007,44.5463435 50.3566722,44.6033701 50.44,44.67 C49.69,46 45.56,47.43 40,47.43 C34.13,47.43 30.33,45.92 29.55,44.72 L29.85,44.58 C30.0361931,44.8096028 30.3144312,44.9450608 30.61,44.95 C31.1622847,44.95 31.61,44.5022847 31.61,43.95 C31.59,43.71 32,43.1 33.55,42.51 Z M40,53.4 C35.53,53.4 31.64,50.97 30.11,47.59 C33.2409598,48.8907607 36.6107232,49.5176934 40,49.43 C43.52,49.43 47.38,48.85 49.89,47.6 C48.34,51 44.47,53.4 40,53.4 Z"/>
      <path id="Shape" fill="#3D454C" fill-rule="nonzero" d="M26.93,51.56 C26.4,51.56 25.84,51.56 25.2,51.56 C20.2,51.56 17.34,50.27 16.01,49.42 C15.68,49.1 15.75,48.42 16.16,45.81 C17.1249376,39.6968994 17.6861525,33.526876 17.84,27.34 C17.84,26.7877153 17.3922847,26.34 16.84,26.34 C16.2877153,26.34 15.84,26.7877153 15.84,27.34 C15.6891134,33.4499315 15.1345715,39.5432109 14.18,45.58 C14.0139352,46.5367063 13.8971147,47.5013101 13.83,48.47 L13,48.29 C13.19,45.9 13.68,38.89 13.68,27.9 C13.68,24.35 13.56,21.9 13.45,19.45 L13.39,18.09 C13.6713652,18.0775862 13.9501303,18.0305655 14.22,17.95 C16.63,17.27 20.28,13.79 22.12,10.77 C27,11 34.79,11.73 37.35,12 C37.11,16.38 36.79,24.05 36.98,31.31 C36.98,31.5752165 37.0853568,31.8295704 37.2728932,32.0171068 C37.4604296,32.2046432 37.7147835,32.31 37.98,32.31 L37.98,32.31 C38.5322847,32.31 38.98,31.8622847 38.98,31.31 C38.7,20.46 39.57,8.65 39.57,8.53 C39.6082257,8.01545225 39.2486979,7.55629623 38.74,7.47 C38.66,7.47 31.36,6.3 21.68,5.73 C21.5872934,5.71470418 21.4927066,5.71470418 21.4,5.73 C20.49,5.85 19.29,6.59 17.72,8 L15.1,6 L15.1,6 C14.6311119,5.52454239 13.9558636,5.31446513 13.3,5.44 C12.581949,5.61893083 11.9340483,6.00906458 11.44,6.56 C9.57,8.42 10.44,9.72 10.79,10.15 L13.02,13.15 C12.1743339,14.0809047 11.5911151,15.2197343 11.33,16.45 L11.33,16.54 C11.3198148,16.6263674 11.3198148,16.7136326 11.33,16.8 C11.33,17.8 11.41,18.68 11.45,19.59 C11.56,21.98 11.68,24.44 11.68,27.95 C11.68,41.54 10.93,48.95 10.93,49.05 C10.8789275,49.5622521 11.2250974,50.0295814 11.73,50.13 L14.06,50.58 L14.06,50.58 L14.22,50.71 C14.38,50.83 14.58,50.98 14.82,51.13 C14.8960448,51.1890402 14.9762533,51.2425126 15.06,51.29 L15.53,51.56 L15.53,51.56 L15.53,51.56 C18.5313469,53.0425298 21.8547626,53.7539538 25.2,53.63 C25.83,53.63 26.42,53.63 26.99,53.57 C27.5422847,53.5368629 27.9631371,53.0622847 27.93,52.51 C27.8968629,51.9577153 27.4222847,51.5368629 26.87,51.57 L26.93,51.56 Z M15.09,15.32 C14.6043464,15.6821187 14.0495826,15.9407816 13.46,16.08 C13.744891,15.5083943 14.0795142,14.9629586 14.46,14.45 L14.66,14.45 C15.73,14.45 16.97,13.35 17.56,12.77 C18.15,12.19 19.69,10.46 19.18,9.3 C19.8060128,8.71717007 20.5012131,8.2134017 21.25,7.8 C21.08,9.19 18.29,13.22 15.09,15.32 Z M14.31,9.54 C14.6213444,9.23430497 14.9026338,8.89943668 15.15,8.54 L17.15,10.09 C16.8774722,10.5578615 16.5408821,10.9853309 16.15,11.36 C15.7860594,11.7503203 15.3685628,12.0870112 14.91,12.36 L13.38,10.36 C13.7168317,10.1186933 14.0284147,9.8439642 14.31,9.54 L14.31,9.54 Z M37.47,10 C35,9.74 28,9 23.06,8.81 C23.06,8.69 23.14,8.56 23.17,8.45 C23.2219248,8.23016324 23.2520704,8.00574656 23.26,7.78 C30.08,8.25 35.46,8.96 37.52,9.26 C37.5,9.47 37.49,9.72 37.47,10 Z M12.84,8 C13.0234431,7.8023645 13.2358708,7.63377102 13.47,7.5 C13.3033209,7.73605666 13.1122693,7.95392244 12.9,8.15 C12.7214038,8.33606147 12.5273778,8.50667057 12.32,8.66 C12.4546949,8.41213201 12.6305312,8.18895523 12.84,8 L12.84,8 Z"/>
      <path id="Path" fill="#3D454C" fill-rule="nonzero" d="M33.18 21C32.6277153 21 32.18 21.4477153 32.18 22 32.27 26.06 32.53 29.3 32.77 32.15L32.88 33.53C32.921797 34.0508219 33.3575063 34.4516745 33.88 34.4500052L34 34.4500052C34.265544 34.4296115 34.5119851 34.3041396 34.6846882 34.1014011 34.8573914 33.8986626 34.9420876 33.6354081 34.92 33.37L34.78 32C34.55 29.17 34.29 26 34.2 22 34.2000537 21.7312816 34.0919559 21.4738492 33.9000714 21.2857271 33.7081869 21.0976051 33.4486646 20.9946256 33.18 21zM21.29 23.14C21.29 23.22 21.29 30.45 20.04 42.14 20.0120092 42.4039182 20.0900791 42.6681387 20.2570134 42.8744619 20.4239476 43.0807851 20.6660525 43.2122864 20.93 43.2400128L21 43.2400128C21.5154781 43.2425832 21.948458 42.8529013 22 42.34 23.24 30.48 23.26 23.16 23.26 23.08 23.26 22.5277153 22.8122847 22.08 22.26 22.08 21.7077153 22.08 21.26 22.5277153 21.26 23.08L21.29 23.14z"/>
    </g>
  </g>
</svg>
