<svg xmlns="http://www.w3.org/2000/svg" width="64" height="64" viewBox="0 0 64 64" style="background:#fff">
  <g id="Meerrettich" fill="none" fill-rule="evenodd" stroke="none" stroke-width="1">
    <rect width="64" height="64" fill="#FFF"/>
    <g transform="translate(2 4)">
      <rect id="Rectangle" width="60" height="60" x="0" y="0"/>
      <path id="Path" fill="#31E085" fill-rule="nonzero" d="M49.75,6.23 C47.85,6.81 46.02,8.23 44.32,9.23 C42.4948638,10.2414497 40.8328165,11.5225408 39.39,13.03 C38.58,13.93 38.22,17.7 40.28,17.41 C42.2878453,17.0433013 44.2082457,16.3002489 45.94,15.22 C47.8959692,14.3008315 49.7495527,13.1779554 51.47,11.87 C53.08,10.48 52.61,5.35 49.75,6.23 Z" opacity=".5"/>
      <path id="Path" fill="#EBE53F" fill-rule="nonzero" d="M41.23,20.91 C38.23,11.99 29.36,12.5 23.7,18.52 C17.66,24.94 12.62,33.3 10.78,42 C10.78,42.22 10.7,42.44 10.67,42.66 C9.26479027,43.9734612 8.08267605,45.5068322 7.17,47.2 C5.94,49.6 5.59,54.77 8.9,55.9 C16.47,58.49 25.49,48.85 30.48,44.16 C37.07,37.91 44.6,30.86 41.23,20.91 Z" opacity=".5"/>
      <path id="Shape" fill="#3D454C" fill-rule="nonzero" d="M49.61,9.71 L38.7,18.13 C38.42,17.82 38.12,17.52 37.83,17.25 C37.9707324,17.1820806 38.0913558,17.0786891 38.18,16.95 L45.11,7.89 C45.9,6.89 44.11,5.89 43.39,6.89 L36.45,15.95 L36.34,16.14 C34.680246,15.0990401 32.7687961,14.5287159 30.81,14.49 L30.68,14.49 C27,14.49 22.81,18.15 21.6,21.37 C21.36,22.02 21.09,22.74 20.78,23.53 L20.78,23.53 C18.3254283,30.0403404 15.2688514,36.3074947 11.65,42.25 C10.0470468,43.3300996 8.5856749,44.6067003 7.3,46.05 C6.54,46.76 5.81,48.38 8.55,51.66 C9.93,53.3 11.4,54.17 12.64,54.17 C12.9864003,54.17 13.3282398,54.0909929 13.64,53.94 C16.6240209,53.0140692 19.3201739,51.3371516 21.47,49.07 L21.64,48.89 C22.2,48.3 22.76,47.67 23.38,46.97 C26.2234848,43.6756079 29.3376858,40.6249621 32.69,37.85 C40.78,31.07 43.3,24.85 40,19.85 L39.91,19.73 L50.61,11.47 C51.62,10.66 50.63,8.92 49.61,9.71 Z M10.08,50.37 C8.67,48.69 8.47,47.67 8.68,47.5 C8.72182028,47.4838055 8.76817972,47.4838055 8.81,47.5 C9.00410008,47.5263135 9.19104611,47.5908949 9.36,47.69 C10.0877759,48.1535467 10.730465,48.7387321 11.26,49.42 C13.26,51.77 12.86,52.14 12.86,52.14 C12.54,52.37 11.37,51.9 10.08,50.37 Z M33,34.89 C32.5192794,33.6310551 31.6773871,32.5421613 30.58,31.76 C30.112824,31.4730829 29.501737,31.6158186 29.21,32.08 C28.9212319,32.5445899 29.0593509,33.1549863 29.52,33.45 C30.3829764,34.0963547 30.9945222,35.0225107 31.25,36.07 C31.2900794,36.2602836 31.2206398,36.457029 31.07,36.58 L31.07,36.58 L30.18,37.34 C29.5068729,35.0870083 27.7856318,33.2987059 25.56,32.54 C25.0429195,32.3924324 24.5017166,32.6801931 24.334905,33.19139 C24.1680933,33.702587 24.4354025,34.2541779 24.94,34.44 C26.4874065,34.9897213 27.6990179,36.2160635 28.23,37.77 C28.3958818,38.4886197 28.1354763,39.2387429 27.56,39.7 L27.56,39.7 C24.98,42.13 23.25,44.07 21.9,45.6 L21.54,46.01 C21.2125548,45.4733168 20.8195286,44.9795147 20.37,44.54 C20.1091961,44.295273 19.7376431,44.2082732 19.3953014,44.3117725 C19.0529597,44.4152719 18.7918392,44.6935463 18.7103014,45.0417726 C18.6287636,45.3899988 18.7391961,45.7552731 19,46 C19.4956225,46.4341587 19.8652225,46.9937399 20.07,47.62 C18.5934708,49.1987083 16.8013263,50.4491209 14.81,51.29 C14.3663752,50.0902575 13.6862535,48.9918609 12.81,48.06 C12.1270875,47.1864602 11.2940864,46.4414999 10.35,45.86 L10.29,45.86 C11.1018226,45.1026719 11.974788,44.4136647 12.9,43.8 C13.0286216,43.7220456 13.1380027,43.6160826 13.22,43.49 C16.9631065,37.3849326 20.1204949,30.9395745 22.65,24.24 C22.8136562,23.9230728 23.1337324,23.7173095 23.49,23.7 C25.0532525,23.5128646 26.6226847,23.9960463 27.81,25.03 C28.2000375,25.4177236 28.8299625,25.4177236 29.22,25.03 C29.6077236,24.6399625 29.6077236,24.0100375 29.22,23.62 C27.7010932,22.2560404 25.6973243,21.5604875 23.66,21.69 C24.8,19.24 28.2,16.41 30.79,16.48 C33.4012012,16.5174631 35.858847,17.7206091 37.49,19.76 C37.5216494,20.1747062 37.7907439,20.5334988 38.18,20.68 C38.24,20.76 38.3,20.83 38.36,20.92 C41.34,25.48 37.46,30.81 33,34.89 Z"/>
    </g>
  </g>
</svg>
