<svg xmlns="http://www.w3.org/2000/svg" width="64" height="64" viewBox="0 0 64 64" style="background:#fff">
  <g id="Mehrkornmehl" fill="none" fill-rule="evenodd" stroke="none" stroke-width="1">
    <rect width="64" height="64" fill="#FFF"/>
    <g transform="translate(2 4)">
      <rect id="Rectangle" width="60" height="60" x="0" y="0"/>
      <path id="Path" fill="#BAB41D" fill-rule="nonzero" d="M43.37,41.09 C43.179111,40.1137634 42.7949101,39.1855612 42.24,38.36 C41.7930472,37.6644573 41.1489784,37.1178692 40.39,36.79 C39.969612,36.6649591 39.5372298,36.5845159 39.1,36.55 C38.6206359,36.5839792 38.1488987,36.6884352 37.7,36.86 C37.1013847,37.0995292 36.5470653,37.4375288 36.06,37.86 C35.2281365,38.4115143 34.5419709,39.156004 34.06,40.03 C33.2854578,41.4710418 32.9713434,43.1149074 33.16,44.74 C33.19679,45.4539572 33.362812,46.1553158 33.65,46.81 C33.9388258,47.5748188 34.4049119,48.2602395 35.01,48.81 L35.76,49.26 C36.101979,49.5101792 36.5074016,49.6591807 36.93,49.69 C37.3944123,49.7548705 37.8655877,49.7548705 38.33,49.69 C38.9452802,49.6465751 39.5496176,49.5047752 40.12,49.27 C41.0497989,48.7862052 41.8412749,48.0738768 42.42,47.2 C42.9305714,46.3470036 43.270221,45.4027779 43.42,44.42 C43.5995452,43.3157153 43.5826185,42.1883963 43.37,41.09 Z" opacity=".5"/>
      <path id="Path" fill="#EBE53F" fill-rule="nonzero" d="M30.54,24.9 C26.7,24.9 26.87,33.6 30.76,33.6 C34.65,33.6 34.44,24.9 30.54,24.9 Z" opacity=".5"/>
      <path id="Path" fill="#C17953" fill-rule="nonzero" d="M28.41 42.9C27.6449805 41.4225864 26.7337565 40.0255995 25.69 38.73 25.45 38.41 25.17 38.12 24.91 37.82L24.58 37.42C23.9553064 36.5000913 22.9481583 35.9119756 21.84 35.82 20.32 35.62 19.48 37.82 19.27 38.95 18.9687223 41.2255731 19.3589649 43.5391544 20.39 45.59 21.1164138 47.4469929 22.2352426 49.1252361 23.67 50.51 24.3477071 51.0522211 25.2361517 51.2547829 26.081914 51.0599068 26.9276764 50.8650307 27.6378996 50.2941122 28.01 49.51 29.1570063 47.4866816 29.3046501 45.0468679 28.41 42.9L28.41 42.9zM37.79 7C35.2 4 31.65 2.58 27.73 3.65 23.9481754 4.85233674 21.4192734 8.41319391 21.53 12.38 21.53 13.32 22.23 15.72 23.64 15.38 25.36 15.01 26.77 13.86 28.51 13.54 30.68 13.14 32.2 14.07 33.71 15.54 35.22 17.01 37.45 15.7 38.24 14.04 39.18 12.14 39.33 8.79 37.79 7z" opacity=".5"/>
      <path id="Shape" fill="#3D454C" fill-rule="nonzero" d="M45.78,34.38 C45.9663608,33.7463648 46.1133087,33.1017982 46.22,32.45 C46.3607175,31.5668404 46.4342617,30.6742815 46.44,29.78 C46.4328699,27.3557068 45.8827324,24.9638047 44.83,22.78 C46.8347481,21.7972584 47.8971981,19.5620117 47.3934184,17.386925 C46.8896387,15.2118384 44.9526653,13.671299 42.72,13.67 L41.08,13.67 L37,7.55 C36.3158065,6.57135269 35.1940703,5.99178901 34,6 C33.3360299,5.9968602 32.6845611,6.18051896 32.12,6.53 L32,6.17 C31.3220539,4.8090478 29.9701405,3.91259669 28.4526404,3.81775293 C26.9351404,3.72290918 25.4821273,4.44405239 24.64,5.71 L19.35,13.64 L17.69,13.64 C15.4554634,13.6366404 13.5141723,15.1756651 13.0077028,17.3520505 C12.5012333,19.5284359 13.5635676,21.7664382 15.57,22.75 C14.5203997,24.9344958 13.9736708,27.3264346 13.97,29.75 C13.971132,30.6477965 14.0447041,31.5440379 14.19,32.43 C14.2978268,33.0782849 14.4447617,33.7194553 14.63,34.35 C12.0774718,37.7352815 10.6978034,41.8602446 10.6999974,46.1 C10.700596,47.8752537 10.9462478,49.641928 11.43,51.35 C11.5036206,51.6169881 11.684669,51.8414881 11.93,51.97 C16.81,54.45 23.29,55.81 30.1999974,55.81 C37.11,55.81 43.61,54.45 48.48,52 C48.7313029,51.8713992 48.9165439,51.6425721 48.99,51.37 C49.460362,49.6630315 49.6991664,47.9005878 49.7000103,46.13 C49.7043503,41.8915082 48.328305,37.7668825 45.78,34.38 Z M17.69,15.64 L26.76,15.64 C27.3122847,15.64 27.76,15.1922847 27.76,14.64 C27.76,14.0877153 27.3122847,13.64 26.76,13.64 L21.76,13.64 L26.31,6.82 C26.7591703,6.15090516 27.5294126,5.77011347 28.3337783,5.8194863 C29.1381441,5.86885914 29.8560328,6.34099391 30.22,7.06 L30.97,8.56 C31.1292402,8.87782936 31.4452404,9.08722711 31.8,9.11 C32.1591134,9.13285321 32.5028145,8.96100266 32.7,8.66 C33.0125892,8.23249313 33.5104019,7.9797959 34.04,7.9797959 C34.5695981,7.9797959 35.0674108,8.23249313 35.38,8.66 L38.7,13.66 L35.36,13.66 C34.8077153,13.66 34.36,14.1077153 34.36,14.66 C34.36,15.2122847 34.8077153,15.66 35.36,15.66 L42.72,15.66 C43.7239163,15.66 44.6515733,16.1955829 45.1535315,17.065 C45.6554896,17.934417 45.6554896,19.005583 45.1535315,19.875 C44.6515733,20.7444171 43.7239163,21.28 42.72,21.28 L17.72,21.28 C16.1680799,21.28 14.91,20.0219201 14.91,18.47 C14.91,16.9180799 16.1680799,15.66 17.72,15.66 L17.69,15.64 Z M47.18,50.38 C41.8361697,52.7647366 36.0304344,53.936129 30.18,53.81 C24.3293882,53.9381242 18.5232202,52.7666444 13.18,50.38 C12.8198312,48.9818902 12.6383844,47.5437555 12.6399893,46.1 C12.6437699,42.1422188 13.9905404,38.3028653 16.46,35.21 C16.6940644,34.9322737 16.7591408,34.5494711 16.63,34.21 C16.3971252,33.5185849 16.219894,32.8096603 16.1,32.09 C16.006883,31.3237526 15.973449,30.5514278 16,29.78 C16.0006191,27.5075555 16.5458462,25.2683526 17.59,23.25 L42.85,23.25 C43.8941538,25.2683526 44.4393809,27.5075555 44.44,29.78 C44.4397741,30.5671605 44.3762359,31.3530276 44.25,32.13 C44.1312678,32.8531732 43.9540189,33.5655132 43.72,34.26 C43.5908592,34.5994711 43.6559356,34.9822737 43.89,35.26 C47.2820333,39.5318107 48.4976139,45.1367826 47.18,50.43 L47.18,50.38 Z"/>
      <path id="Path" fill="#3D454C" fill-rule="nonzero" d="M31,15.68 L31.1,15.68 C31.6522847,15.68 32.1,15.2322847 32.1,14.68 C32.1,14.1277153 31.6522847,13.68 31.1,13.68 L31,13.68 C30.4477153,13.68 30,14.1277153 30,14.68 C30,15.2322847 30.4477153,15.68 31,15.68 Z"/>
      <path id="Shape" fill="#3D454C" fill-rule="nonzero" d="M24.91 37.83C23.31 36.25 22.13 36.45 21.57 36.7 21.01 36.95 20.1 37.7 20.25 39.97 20.4058837 41.5349138 20.8322112 43.0608956 21.51 44.48 22.1416454 45.9192115 23.0217457 47.235977 24.11 48.37 24.7471247 49.1222541 25.6574445 49.5900074 26.64 49.6700024 26.9188998 49.6704305 27.1948067 49.6125241 27.45 49.5 29.51 48.5 28.93 44.8 27.51 41.72 26.8758155 40.2821817 25.995996 38.9658363 24.91 37.83zM26.64 47.67C26.27 47.67 24.64 46.54 23.33 43.67 22.02 40.8 22.15 38.8 22.39 38.56L22.39 38.56C22.8 38.56 24.39 39.74 25.67 42.56 26.95 45.38 26.88 47.43 26.64 47.67zM35.28 31.25C35.6438566 28.6778605 33.8564905 26.2967578 31.2850509 25.9279877 28.7136113 25.5592176 26.3290981 27.3420312 25.9554159 29.9127616 25.5817336 32.483492 27.3599883 34.871407 29.93 35.25 30.1597595 35.2648751 30.3902405 35.2648751 30.62 35.25 32.9438546 35.239269 34.917225 33.5453888 35.28 31.25L35.28 31.25zM33.28 30.96C33.0616504 32.3866241 31.7635388 33.391828 30.3276719 33.246161 28.8918049 33.1004939 27.8220171 31.8550693 27.8946261 30.41366 27.9672352 28.9722507 29.1567632 27.8406361 30.6 27.84 30.7298109 27.8300833 30.8601891 27.8300833 30.99 27.84 31.7212673 27.9403826 32.3803376 28.3336492 32.8159382 28.9295357 33.2515387 29.5254222 33.4262603 30.2727539 33.3 31L33.28 30.96zM33.13 40.22C32.0886435 41.2335898 31.4103289 42.5621024 31.2 44 30.970255 45.3413876 31.3936806 46.7119494 32.34 47.69 33.1378453 48.4761656 34.2201949 48.9054976 35.34 48.88 35.5697595 48.8948751 35.8002405 48.8948751 36.03 48.88 37.459745 48.6689366 38.7806884 47.9944123 39.79 46.96 42.06 44.69 42.42 41.34 40.58 39.5 38.74 37.66 35.4 38 33.13 40.22zM38.38 45.47C37.6833134 46.1981282 36.7659286 46.6761524 35.77 46.83 35.0508159 46.9645574 34.3101935 46.75348 33.77 46.26 32.77 45.26 33.1 43.1 34.56 41.64 35.3455869 40.8102627 36.4190977 40.3128694 37.56 40.25 38.1489713 40.2289581 38.7217597 40.4451047 39.15 40.85 40.2 41.89 39.84 44 38.38 45.47z"/>
      <path id="Path" fill="#3D454C" fill-rule="nonzero" d="M37.53,41.36 C36.9777153,41.36 36.53,41.8077153 36.53,42.36 C36.53,42.9122847 36.9777153,43.36 37.53,43.36 C38.0822847,43.36 38.53,42.9122847 38.53,42.36 C38.53,41.8077153 38.0822847,41.36 37.53,41.36 Z"/>
    </g>
  </g>
</svg>
