<svg xmlns="http://www.w3.org/2000/svg" width="64" height="64" viewBox="0 0 64 64" style="background:#fff">
  <g id="Melasse" fill="none" fill-rule="evenodd" stroke="none" stroke-width="1">
    <rect width="64" height="64" fill="#FFF"/>
    <g transform="translate(2 4)">
      <rect id="Rectangle" width="60" height="60" x="0" y="0"/>
      <path id="Path" fill="#C17953" fill-rule="nonzero" d="M46.84,39.31 C46.32,34.23 46.58,26.96 43.66,22.6 C42.2983123,20.2703666 39.6768088,18.9792958 37,19.32 C35.68,19.48 34.56,20.18 33.27,20.39 C31.917556,20.4848689 30.5586954,20.4244751 29.22,20.21 C24,19.84 20.43,22 18.36,26.78 C17.6799844,28.8172351 17.7509222,31.0304923 18.56,33.02 C17.1182948,35.9904815 16.4313489,39.2706481 16.56,42.57 C16.75,48.32 19.61,55.02 25.71,56.41 C30.24,57.41 36.35,56.07 40.48,54.12 C46.1,51.48 47.42,44.93 46.84,39.31 Z" opacity=".5"/>
      <path id="Shape" fill="#3D454C" fill-rule="nonzero" d="M41.61,18.82 C41.29,17.55 40.92,15.37 41.95,14.95 L41.95,14.95 C42.87,14.53 43.45,13.95 43.45,13.28 C43.532739,11.9913267 43.532739,10.6986733 43.45,9.41 C43.45,9.35 43.45,9.31 43.45,9.26 C42.96,6.64 34.45,6.34 30.72,6.34 C26.99,6.34 18.44,6.61 18,9.25 C18,9.3 18,9.34 18,9.39 C17.9236981,10.6555176 17.9236981,11.9244824 18,13.19 C18.0516856,13.8242269 18.4308597,14.3854047 19,14.67 C19.097143,14.7657543 19.2128485,14.8406226 19.34,14.89 C20.34,15.31 20,17.5 19.68,18.76 L19.2,20.66 C17.96,25.53 17.2,28.57 18.42,30.59 L18.42,46.85 C18.421294,47.7396367 18.5083635,48.6270761 18.68,49.5 L19.35,52.83 C19.61,56.2 29.49,56.31 30.63,56.31 L30.63,56.31 C33.1590234,56.3435685 35.6831647,56.0783994 38.15,55.52 C40.64,54.89 41.86,53.99 41.91,52.78 L42.56,49.56 C42.731147,48.6870043 42.8182119,47.7996121 42.82,46.91 L42.82,30.65 C44.06,28.65 43.28,25.59 42.04,20.71 L41.61,18.82 Z M20.25,13.1 L20.12,13 L20.12,13 L19.97,12.91 C19.97,12.64 19.97,12.05 19.92,11.32 C22.77,12.43 28.03,12.59 30.75,12.59 C33.47,12.59 38.75,12.43 41.58,11.32 C41.58,12 41.58,12.59 41.58,12.91 C41.4889217,12.9701349 41.3917088,13.0204174 41.29,13.06 L41.29,13.06 L41.23,13.06 C40.01,13.59 36.49,14.28 30.8,14.28 C25.11,14.28 21.43,13.63 20.25,13.1 Z M30.72,8.31 C36.18,8.31 39.65,8.95 41,9.46 C39.65,9.98 36.18,10.62 30.72,10.62 C25.26,10.62 21.79,10 20.44,9.46 C21.79,9 25.26,8.31 30.72,8.31 Z M30.72,16.31 C33.6095351,16.3393968 36.4964105,16.1253064 39.35,15.67 C39.2260608,16.8794262 39.3346804,18.1013968 39.67,19.27 L40.15,21.18 C41.23,25.4 42.01,28.46 41.07,29.72 C40.9422119,29.8903542 40.872144,30.0970546 40.87,30.31 L40.87,46.91 C40.87,47.18 40.87,47.44 40.87,47.71 L40.87,47.71 C40.87,47.71 38.06,49.71 30.75,49.71 C23.44,49.71 20.69,47.79 20.62,47.71 L20.62,47.71 C20.62,47.43 20.62,47.14 20.62,46.85 L20.62,30.29 C20.62,30.0736298 20.5498221,29.8630962 20.42,29.69 C19.76,28.81 19.96,27.02 20.5,24.58 C20.5973649,24.4605677 20.6658124,24.3202504 20.7,24.17 C21.23,21.8 25.86,24.28 27.07,24.36 C28.7,24.46 31.07,22.58 32.41,23.04 C33.63,23.45 34.16,21.52 32.94,21.11 C31.9347758,20.7578704 30.8277762,20.8449786 29.89,21.35 C28.51,21.94 27.64,22.56 26.14,22.13 C25.22,21.87 24.38,21.38 23.44,21.13 C22.7478925,20.9813426 22.0321075,20.9813426 21.34,21.13 L21.82,19.25 C22.1083385,18.0791508 22.1694422,16.8638661 22,15.67 C24.8814682,16.1480094 27.7993297,16.3722028 30.72,16.34 L30.72,16.31 Z M30.72,54.31 L30.72,54.31 C25.29,54.31 21.89,53.24 21.42,52.61 C21.42,52.61 21.42,52.61 21.42,52.54 L20.95,50.17 C24.0778344,51.3198955 27.3996447,51.8497549 30.73,51.73 C34.0601051,51.8456859 37.3811376,51.3159507 40.51,50.17 L40,52.56 C39.9948333,52.5830473 39.9948333,52.6069527 40,52.63 C39.47,53.25 36.08,54.31 30.68,54.31 L30.72,54.31 Z"/>
      <path id="Path" fill="#3D454C" fill-rule="nonzero" d="M37.05,22.78 L37.32,22.78 C37.8722847,22.78 38.32,22.3322847 38.32,21.78 C38.32,21.2277153 37.8722847,20.78 37.32,20.78 L37.05,20.78 C36.4977153,20.78 36.05,21.2277153 36.05,21.78 C36.05,22.3322847 36.4977153,22.78 37.05,22.78 Z"/>
    </g>
  </g>
</svg>
