<svg xmlns="http://www.w3.org/2000/svg" width="64" height="64" viewBox="0 0 64 64" style="background:#fff">
  <g id="Melone" fill="none" fill-rule="evenodd" stroke="none" stroke-width="1">
    <rect width="64" height="64" fill="#FFF"/>
    <g transform="translate(2 7)">
      <rect id="Rectangle" width="60" height="60" x="0" y="0"/>
      <path id="Path" fill="#EBE53F" fill-rule="nonzero" d="M49,35 C45.86,31.68 42.53,33.17 38.55,32.43 C35.309553,31.8263822 32.2610314,30.454719 29.66,28.43 C27.3030169,26.5109444 25.4952739,24.0028735 24.42,21.16 C23.35,18.36 23.16,15.04 21.23,12.64 C20.55,11.8 19.23,10.7 18.06,11.46 C8.81,17.36 15.76,35.21 20.92,41.66 C26.73,48.93 43.63,58.91 50.45,48.23 C52.9101634,43.9770706 52.3229336,38.6191055 49,35 Z" opacity=".5"/>
      <path id="Shape" fill="#3D454C" fill-rule="nonzero" d="M54.51,42 C54.51,42 54.51,41.94 54.51,41.91 C54.51,41.88 54.51,41.91 54.51,41.82 C54.4980799,41.7489542 54.4813752,41.6787946 54.46,41.61 C54.4078813,41.4926156 54.3369484,41.3845274 54.25,41.29 C54.25,41.29 54.25,41.23 54.18,41.21 L47.18,35.33 C46.805776,35.0099123 46.254224,35.0099123 45.88,35.33 C41.81,38.88 35.28,36.67 30.61,32.9 C25.79,29 21.88,22.5 24.68,17.44 C24.9176535,17.0195644 24.8208695,16.489356 24.45,16.18 L17.54,10.5 C17.3292663,10.3217301 17.0542191,10.2384922 16.78,10.27 C16.5080942,10.3045095 16.262271,10.4491114 16.1,10.67 C16.0532889,10.7309549 16.0098928,10.79438 15.97,10.86 C12.12,14.04 6.97,18.42 8.97,30.39 C9.25627632,31.9643884 9.69156761,33.5079983 10.27,35 C10.8365327,36.4866179 11.5360348,37.919091 12.36,39.28 C13.1795679,40.642987 14.112891,41.9342512 15.15,43.14 C17.2357181,45.5553396 19.6973229,47.6184954 22.44,49.25 C23.8054698,50.0627667 25.23724,50.7585803 26.72,51.33 C28.199788,51.9063301 29.7296093,52.3448565 31.29,52.64 C32.8356046,52.9378415 34.4059603,53.0885153 35.98,53.09 L36.05,53.09 C44.87,53.09 50.05,50.09 54.39,42.49 C54.39,42.49 54.39,42.43 54.39,42.41 L54.45,42.23 L54.51,42 Z M36.05,51.09 C34.580758,51.0829293 33.11503,50.9457264 31.67,50.68 C30.2251883,50.4055122 28.8090752,49.9970824 27.44,49.46 C26.0541953,48.9316176 24.7160073,48.2859419 23.44,47.53 C20.878704,46.0161947 18.5845899,44.0903552 16.65,41.83 C15.6820314,40.713627 14.8121419,39.5158561 14.05,38.25 C13.2850196,36.9788594 12.6389481,35.6398512 12.12,34.25 C11.6149142,32.8884965 11.2399066,31.4822179 11,30.05 C9.88,23.62 11,19.73 12.81,16.96 C11.7355154,20.0984661 11.4302939,23.4490437 11.92,26.73 C12.92,33.35 16.92,39.73 23.03,44.18 C23.3158812,44.4182493 23.7104148,44.4780416 24.0540515,44.3351968 C24.3976881,44.1923521 24.6335785,43.8705017 24.6663284,43.4998021 C24.6990783,43.1291024 24.5232699,42.77088 24.21,42.57 C18.58,38.42 14.82,32.57 13.9,26.44 C13.1893183,21.6235834 14.3407794,16.7173579 17.12,12.72 L22.57,17.25 C19.94,23.18 24.14,30.25 29.37,34.48 C34.41,38.59 41.56,41 46.5,37.41 L52.05,42.06 C46.66,47.26 39.67,48.88 32.25,46.65 C31.9953896,46.5722939 31.7203046,46.5993131 31.4856788,46.7250725 C31.2510531,46.8508319 31.0762536,47.0649508 31,47.32 C30.8445967,47.8472244 31.1438366,48.4010415 31.67,48.56 C33.8952275,49.2280605 36.2066582,49.5650038 38.53,49.56 C41.8667394,49.5592499 45.1548955,48.7603548 48.12,47.23 C45,50 41.3,51.08 36.05,51.09 Z"/>
      <path id="Shape" fill="#3D454C" fill-rule="nonzero" d="M41.93 36.39C42.0063126 36.4004205 42.0836874 36.4004205 42.16 36.39 42.3816055 36.3920959 42.5995305 36.3332907 42.79 36.22 43.3577232 35.7693526 43.7788532 35.1602803 44 34.47 44.1044913 34.0753757 44.0413454 33.6551161 43.825498 33.3086242 43.6096506 32.9621323 43.260272 32.7201815 42.86 32.64 42.4594504 32.5259561 42.0297194 32.5801239 41.67 32.79 41.3179721 33.0144811 41.0780068 33.378065 41.01 33.79 41.01 33.79 40.64 36.07 41.93 36.39zM42.42 34.45L42.42 34.45C42.4927835 34.4686917 42.5632282 34.4955278 42.63 34.53 42.5386534 34.5572343 42.4413466 34.5572343 42.35 34.53 42.2707642 34.4994221 42.2015408 34.4475046 42.15 34.38 42.2432095 34.3884856 42.3344087 34.4121299 42.42 34.45L42.42 34.45zM37.39 35.62C37.5414992 35.6857407 37.7048523 35.7197726 37.87 35.72 37.9991792 35.7220668 38.127742 35.7017674 38.25 35.66 38.9041275 35.3285197 39.4414236 34.8051794 39.79 34.16 39.9685612 33.7994662 39.9915475 33.3815017 39.8535992 33.0035613 39.715651 32.6256208 39.4288253 32.3207377 39.06 32.16 38.7003637 31.9590607 38.2725734 31.9194101 37.882132 32.050827 37.4916906 32.1822439 37.1749407 32.4724957 37.01 32.85 37.01 32.85 36.19 35 37.39 35.62zM38.27 33.82L38.46 33.94C38.3665612 33.9753286 38.2634388 33.9753286 38.17 33.94 38.0973842 33.8957976 38.0412 33.8290788 38.01 33.75 38.0994261 33.7615054 38.1868854 33.7850522 38.27 33.82zM32.8 33.24L32.8 33.24C33.0077235 33.3871784 33.2554339 33.4674226 33.51 33.47L33.63 33.47C34.3397685 33.2812877 34.9748402 32.8800062 35.45 32.32 35.7038518 32.0019268 35.8155311 31.5933603 35.7587738 31.190384 35.7020166 30.7874077 35.4818315 30.4255826 35.15 30.19 34.8397625 29.9163256 34.4273998 29.7881981 34.0166953 29.8378647 33.6059907 29.8875313 33.2360574 30.110262 33 30.45 33 30.45 31.76 32.41 32.8 33.24zM34.2 31.82C34.1166084 31.8427062 34.0273865 31.8241183 33.96 31.77L34.04 31.67C34.1001316 31.712215 34.1539973 31.7627141 34.2 31.82L34.2 31.82zM34 31.67L33.92 31.77C33.92 31.77 33.92 31.77 33.92 31.77 33.8553743 31.7115345 33.8100386 31.6348125 33.79 31.55 33.8660313 31.5783751 33.9369533 31.6189019 34 31.67zM29.09 30L29.09 30C29.2947601 30.2138996 29.5664076 30.3514873 29.86 30.39L30 30.39C30.6979961 30.3263812 31.3636931 30.0663432 31.92 29.64 32.2255176 29.373417 32.4073554 28.9924787 32.4225027 28.5872898 32.4376499 28.1821009 32.2847612 27.7886494 32 27.5 31.7560649 27.1825076 31.3967124 26.9740832 31 26.92 30.5966707 26.8899493 30.1987783 27.0274031 29.9 27.3 29.9 27.3 28.24 29 29.09 30zM30.63 28.71C30.6748549 28.7701337 30.7149753 28.8336577 30.75 28.9 30.6577851 28.8820096 30.571716 28.8406965 30.5 28.78 30.453147 28.7051162 30.4288457 28.6183258 30.43 28.53 30.5036579 28.5817448 30.5708091 28.6421808 30.63 28.71L30.63 28.71zM27.44 23.58C27.44 23.58 25.44 24.87 26.11 26.05L26.11 26.05C26.2650604 26.3074861 26.505788 26.5021922 26.79 26.6 26.9498737 26.6420397 27.1147064 26.6622233 27.28 26.66 27.844354 26.6521555 28.400359 26.5225347 28.91 26.28 29.2725548 26.0961302 29.5427819 25.7703334 29.6564605 25.380037 29.770139 24.9897407 29.7171187 24.5697941 29.51 24.22 29.3256402 23.8447036 28.9974732 23.5598114 28.6 23.43 28.208966 23.3209732 27.7904391 23.3750931 27.44 23.58L27.44 23.58zM27.74 25.15C27.713974 25.0686987 27.713974 24.9813013 27.74 24.9 27.8031053 24.965703 27.8569366 25.039721 27.9 25.12L27.78 25.18C27.78 25.18 27.74 25.16 27.74 25.15L27.74 25.15zM27.74 25.15L27.86 25.08C27.8953355 25.1463828 27.9222116 25.2169326 27.94 25.29 27.8756329 25.2652182 27.8150465 25.231559 27.76 25.19L27.74 25.15zM24.37 21.22L24.37 21.22C24.4638359 21.5063925 24.6595513 21.7483679 24.92 21.9 25.6048712 22.1535813 26.3494693 22.1988139 27.06 22.03 27.6390958 21.8260908 28.0476381 21.3051795 28.1076667 20.6941743 28.1676953 20.083169 27.8683402 19.4927099 27.34 19.18 26.9822476 18.9929414 26.5644878 18.9569276 26.18 19.08 26.18 19.08 24 19.94 24.37 21.22zM26.37 20.9C26.3002391 20.8569052 26.2446187 20.7943323 26.21 20.72L26.33 20.72C26.3358201 20.7798589 26.3358201 20.8401411 26.33 20.9L26.37 20.9zM26.22 20.43C26.2663011 20.5087531 26.3032193 20.592658 26.33 20.68L26.2 20.68C26.2 20.68 26.2 20.68 26.2 20.68 26.1652331 20.6013314 26.1581823 20.5131954 26.18 20.43L26.22 20.43z"/>
      <path id="Path" fill="#3D454C" fill-rule="nonzero" d="M27.45,44.72 C26.8977153,44.72 26.45,45.1677153 26.45,45.72 C26.45,46.2722847 26.8977153,46.72 27.45,46.72 C28.0022847,46.72 28.45,46.2722847 28.45,45.72 C28.45,45.1677153 28.0022847,44.72 27.45,44.72 Z"/>
    </g>
  </g>
</svg>
