<svg xmlns="http://www.w3.org/2000/svg" width="64" height="64" viewBox="0 0 64 64" style="background:#fff">
  <g id="Milch-(UHT,-teilentrahmt,-bis-2.5%)" fill="none" fill-rule="evenodd" stroke="none" stroke-width="1">
    <rect width="64" height="64" fill="#FFF"/>
    <g transform="translate(2 4)">
      <g id="Layer_2">
        <rect id="Rectangle" width="60" height="60" x="0" y="0"/>
        <rect id="Rectangle" width="60" height="60" x="0" y="0"/>
      </g>
      <g id="Layer_1" fill-rule="nonzero" transform="translate(13 5)">
        <path id="Path" fill="#CCC" d="M32.06,41.14 C31.3833673,37.852005 31.104699,34.4945555 31.23,31.14 C31.39,28.04 32.17,24.99 30.9,21.99 C28.58,16.52 22.9,16.52 18.65,19.53 C16.14,21.32 15.85,21.69 13.04,20.8 C10.9310634,20.1209691 8.64994943,20.2095216 6.6,21.05 C1.53,23.11 -0.75,29.21 0.44,34.4 C0.714873136,35.484262 1.20080443,36.5036983 1.87,37.4 C1.35028316,39.0162061 1.08050493,40.70232 1.07,42.4 C1.16,46 3.07,52.3 7.65,52.09 C14.15,51.8 20.76,52.52 27.22,51.69 C31.84,51.05 32.78,44.9 32.06,41.14 Z" opacity=".5"/>
        <circle id="Oval" cx="30.98" cy="15.57" r="1" fill="#3D454C"/>
        <path id="Shape" fill="#3D454C" d="M32.28,19.87 C32.28,19.3177153 31.8322847,18.87 31.28,18.87 C30.7277153,18.87 30.28,19.3177153 30.28,19.87 L30.28,50.05 L24.28,50.05 L24.28,14.47 C24.279706,14.1172752 24.3765831,13.7712857 24.56,13.47 L27.29,9 L29,11.85 C29.1487736,12.2109297 29.4939823,12.4522843 29.8840516,12.4680897 C30.2741209,12.4838951 30.6377249,12.2712612 30.8152122,11.9235513 C30.9926995,11.5758415 30.9516157,11.1566361 30.71,10.85 L28.25,6.85 L28.25,3.17 C28.2526577,2.34344545 27.9261716,1.54983334 27.3426452,0.964430598 C26.7591187,0.379027858 25.9665588,0.0499357058 25.14,0.0499357058 L9.14,0.0499357058 C8.31079498,0.0446802691 7.51358219,0.369671179 6.92442595,0.953198544 C6.3352697,1.53672591 6.0026407,2.33078212 6,3.16 L6,6.77 L2.79,12.09 C2.27675526,12.9303767 2.00353418,13.8952967 2,14.88 L2,22.55 C2,23.1022847 2.44771525,23.55 3,23.55 C3.55228475,23.55 4,23.1022847 4,22.55 L4,14.88 C3.99507576,14.8067493 3.99507576,14.7332507 4,14.66 L22.29,14.66 L22.29,50.05 L4,50.05 L4,31.38 C4,30.8277153 3.55228475,30.38 3,30.38 C2.44771525,30.38 2,30.8277153 2,31.38 L2,51.05 C2,51.6022847 2.44771525,52.05 3,52.05 L31.28,52.05 C31.8322847,52.05 32.28,51.6022847 32.28,51.05 C32.28,51.05 32.28,50.99 32.28,50.96 C32.28,50.93 32.28,50.9 32.28,50.86 L32.28,19.87 Z M8,3.16 C8.00548817,2.54534987 8.50532537,2.05 9.12,2.05 L25.12,2.05 C25.4161311,2.05 25.6999901,2.16830579 25.9084453,2.37863901 C26.1169006,2.58897222 26.2326678,2.87388088 26.2300451,3.17 L26.2300451,6.05 L8,6.05 L8,3.16 Z M7.57,8.05 L25.51,8.05 L22.86,12.44 L22.75,12.66 L4.82,12.66 L7.57,8.05 Z"/>
        <path id="Path" fill="#3D454C" d="M3 27.91C3.55228475 27.91 4 27.4622847 4 26.91 4 26.3577153 3.55228475 25.91 3 25.91 2.44771525 25.91 2 26.3577153 2 26.91 2 27.4622847 2.44771525 27.91 3 27.91zM7.52 26.910037C7.01396394 26.9126728 6.5177426 26.7703995 6.09 26.5 5.62226701 26.2115706 5.47489876 25.599769 5.76 25.13 6.04842942 24.662267 6.66023095 24.5148988 7.13 24.8 7.75 25.18 8.81 24.48 9.53 23.68L9.69 23.5C10.69 22.39 11.9 21.01 13.69 21.12 14.7018134 21.2567109 15.6475225 21.6999031 16.4 22.39 16.61 22.55 16.81 22.71 17.03 22.85 17.4166138 23.114402 17.8837619 23.234728 18.35 23.19 18.5 23.19 18.54 23.1 18.56 23.06 18.8688724 22.668008 19.4194723 22.5637494 19.8502746 22.8156805 20.2810768 23.0676117 20.4601866 23.5986011 20.27 24.06 19.9334983 24.5855356 19.3938511 24.947715 18.78 25.06 17.8171414 25.2327357 16.8245484 25.0363594 16 24.51 15.7479601 24.3456472 15.5043207 24.1687584 15.27 23.98 14.8157831 23.5527512 14.2570384 23.2526846 13.65 23.11 12.82 23.11 11.99 23.96 11.21 24.84L11 25C10.1478269 26.0832061 8.89139027 26.7728021 7.52 26.910037L7.52 26.910037z"/>
      </g>
    </g>
  </g>
</svg>
