<svg xmlns="http://www.w3.org/2000/svg" width="64" height="64" viewBox="0 0 64 64" style="background:#fff">
  <g id="Milch-(UHT,-teilentrahmt,-bis-0.5%)" fill="none" fill-rule="evenodd" stroke="none" stroke-width="1">
    <rect width="64" height="64" fill="#FFF"/>
    <g id="Milch-(UHT,-teilentrahmt,-bis-2.5%)" fill-rule="nonzero" transform="translate(16 9)">
      <g id="Layer_1">
        <path id="Path" fill="#CCC" d="M32.38,40.62 C32.38,36.41 32.84,29.54 25.78,27.97 C20.26,26.75 16.95,31.87 12.02,28.46 C8.77,26.22 4.87,28.69 3.69,31.06 L3.61,31.24 C-0.39,34.5 0.99,41.74 1.47,45.56 C1.76,47.77 2.8,50.32 6.31,50.64 C10.18,50.99 14.03,51.27 17.91,51.51 C20.75,51.68 24.02,52.28 26.85,52.02 C33.79,51.37 32.36,44.16 32.38,40.62 Z" opacity=".5"/>
        <circle id="Oval" cx="30.98" cy="16.17" r="1" fill="#3D454C"/>
        <path id="Shape" fill="#3D454C" d="M32.28,20.47 C32.28,19.9177153 31.8322847,19.47 31.28,19.47 C30.7277153,19.47 30.28,19.9177153 30.28,20.47 L30.28,50.65 L24.28,50.65 L24.28,15.07 C24.279706,14.7172752 24.3765831,14.3712857 24.56,14.07 L27.28,9.57 L29,12.45 C29.3088724,12.841992 29.8594723,12.9462506 30.2902746,12.6943195 C30.7210768,12.4423883 30.9001866,11.9113989 30.71,11.45 L28.25,7.4 L28.25,3.77 C28.2500088,2.05076928 26.8592219,0.655510355 25.14,0.649935706 L9.14,0.649935706 C8.31079498,0.644680269 7.51358219,0.969671179 6.92442595,1.55319854 C6.3352697,2.13672591 6.0026407,2.93078212 6,3.76 L6,7.37 L2.79,12.69 C2.27675526,13.5303767 2.00353418,14.4952967 2,15.48 L2,23.15 C2,23.7022847 2.44771525,24.15 3,24.15 C3.55228475,24.15 4,23.7022847 4,23.15 L4,15.48 C3.99507576,15.4067493 3.99507576,15.3332507 4,15.26 L22.29,15.26 L22.29,50.65 L4,50.65 L4,32 C4,31.4477153 3.55228475,31 3,31 C2.44771525,31 2,31.4477153 2,32 L2,51.65 C2,52.2022847 2.44771525,52.65 3,52.65 L31.28,52.65 C31.8322847,52.65 32.28,52.2022847 32.28,51.65 C32.28,51.65 32.28,51.59 32.28,51.56 C32.28,51.53 32.28,51.5 32.28,51.46 L32.28,20.47 Z M8,3.76 C8.00548817,3.14534987 8.50532537,2.65 9.12,2.65 L25.12,2.65 C25.4161311,2.65 25.6999901,2.76830579 25.9084453,2.97863901 C26.1169006,3.18897222 26.2326678,3.47388088 26.2300451,3.77 L26.2300451,6.65 L8,6.65 L8,3.76 Z M7.57,8.65 L25.51,8.65 L22.86,13 L22.75,13.22 L4.82,13.22 L7.57,8.65 Z"/>
        <path id="Path" fill="#3D454C" d="M3 28.52C3.55228475 28.52 4 28.0722847 4 27.52 4 26.9677153 3.55228475 26.52 3 26.52 2.44771525 26.52 2 26.9677153 2 27.52 2 28.0722847 2.44771525 28.52 3 28.52zM7.52 35.680037C7.01396394 35.6826728 6.5177426 35.5403995 6.09 35.27 5.71600874 34.9560609 5.6234285 34.4179336 5.8710014 33.9970596 6.11857431 33.5761857 6.63389809 33.395649 7.09 33.57 7.71 33.95 8.77 33.25 9.49 32.45L9.65 32.27C10.65 31.16 11.88 29.78 13.65 29.89 14.6618134 30.0267109 15.6075225 30.4699031 16.36 31.16 16.57 31.32 16.77 31.48 16.99 31.62 17.3953038 31.9198585 17.8989041 32.0555806 18.4 32 18.55 32 18.59 31.91 18.61 31.87 18.9188724 31.478008 19.4694723 31.3737494 19.9002746 31.6256805 20.3310768 31.8776117 20.5101866 32.4086011 20.32 32.87 19.9891404 33.4102717 19.4500803 33.7901462 18.83 33.92 17.8396 34.0744203 16.8275791 33.8455534 16 33.28 15.7479601 33.1156472 15.5043207 32.9387584 15.27 32.75 14.8157831 32.3227512 14.2570384 32.0226846 13.65 31.88 12.76 31.88 11.99 32.74 11.21 33.61L11.04 33.79C10.174819 34.8752421 8.90256678 35.5583548 7.52 35.680037z"/>
      </g>
    </g>
  </g>
</svg>
