<svg xmlns="http://www.w3.org/2000/svg" width="64" height="64" viewBox="0 0 64 64" style="background:#fff">
  <g id="Milchpulver" fill="none" fill-rule="evenodd" stroke="none" stroke-width="1">
    <rect width="64" height="64" fill="#FFF"/>
    <g transform="translate(2 4)">
      <rect id="Rectangle" width="60" height="60" x="0" y="0"/>
      <path id="Path" fill="#CCC" fill-rule="nonzero" d="M42.4,40.56 C41.18,34.36 37.24,27.83 30.26,27.67 C23.28,27.51 14.52,30.11 9.33,34.67 C8.41213221,35.5749555 7.89679629,36.8110409 7.9,38.1 C7.57524018,38.6186799 7.32606775,39.1810015 7.16,39.77 L6.77,41.28 C5.59,45.92 5.45,52.93 10.34,55.7 C11.6334114,56.5548864 13.2736493,56.6906302 14.69,56.06 C20.06,58 26,57.86 31.56,56.8 C35.36,56.09 38.63,55.58 40.84,52.07 C42.93,48.74 43.14,44.32 42.4,40.56 Z" opacity=".5"/>
      <path id="Shape" fill="#3D454C" fill-rule="nonzero" d="M34.92 19C31.127287 18.5460896 27.3096781 18.3323302 23.49 18.36 19.6703219 18.3323302 15.852713 18.5460896 12.06 19 9.25 19.38 7.67 19.83 6.97 20.5 6.69641088 20.6800217 6.52831095 20.9826016 6.52 21.31L6.52 53.77C6.52 57.77 21.75 57.88 23.52 57.88 25.29 57.88 40.5200911 57.76 40.5200911 53.77L40.5200911 22.87C40.5128672 22.6593679 40.4393694 22.456374 40.31 22.29 40.4500144 22.072499 40.5230385 21.8186532 40.5200911 21.56 40.46 20.27 39 19.59 34.92 19zM38.46 48.84C37.81 49.62 32.76 51.06 23.46 51.06 14.16 51.06 9.15 49.62 8.46 48.84L8.46 27.81C9.61949464 28.1393835 10.8031662 28.3767865 12 28.52 15.792713 28.9739104 19.6103219 29.1876698 23.43 29.16 27.2496781 29.1876698 31.067287 28.9739104 34.86 28.52 36.0568338 28.3767865 37.2405054 28.1393835 38.4 27.81L38.46 48.84zM38.46 25.64C37.4 26.2 32.38 27.12 23.46 27.12 14.54 27.12 9.55 26.2 8.46 25.64L8.46 23.37C9.61854081 23.7011213 10.8026262 23.9352625 12 24.07 15.7922711 24.5289277 19.6102009 24.742705 23.43 24.71 27.2497991 24.742705 31.0677289 24.5289277 34.86 24.07 36.0573738 23.9352625 37.2414592 23.7011213 38.4 23.37L38.46 25.64zM23.46 20.36C30.39 20.36 35.4 20.95 37.53 21.52 35.4 22.09 30.39 22.67 23.46 22.67 16.53 22.67 11.52 22.09 9.39 21.52 11.55 21 16.56 20.4 23.49 20.4L23.46 20.36zM23.46 55.84C14.2 55.84 9.15 54.4 8.46 53.63L8.46 51.14C12.65 53.03 22.08 53.14 23.46 53.14 24.84 53.14 34.24 53.07 38.46 51.14L38.46 53.67C37.8 54.44 32.75 55.88 23.49 55.88L23.46 55.84zM54.41 5C53.9914549 4.25146726 53.186791 3.80271238 52.33 3.84L35.58 5.29C33.8317931 4.6174342 31.9730815 4.27825325 30.1 4.29 27.73 4.29 24.75 4.66 23.58 5.88 23.2275001 6.22234136 23.0382516 6.69910205 23.06 7.19 23.0704295 7.36137464 23.1075428 7.53007147 23.17 7.69L23.57 9.58C24.45 13.84 26.98 16.52 30.15 16.58L30.23 16.58C33.4 16.58 36.23 13.95 36.92 10.46L52.69 9.12C53.4547902 9.12153054 54.1534932 8.68678203 54.49 8 55.0013679 7.05755924 54.9708689 5.91384778 54.41 5L54.41 5zM30.07 6.29C31.8259086 6.20525181 33.5761147 6.54842947 35.17 7.29 33.6347301 7.94589123 31.9654024 8.22696899 30.3 8.11 28.5469053 8.20044457 26.7985749 7.8569612 25.21 7.11 26.740447 6.44968425 28.4076234 6.16839111 30.07 6.29L30.07 6.29zM30.22 14.56L30.22 14.56C28.1 14.56 26.37 12.56 25.64 9.47 27.1609645 9.91009128 28.7366466 10.1323029 30.32 10.13L30.56 10.13C32.0620941 10.1485054 33.5585509 9.94291113 35 9.52L35 9.57C34.66 12.7 32.3 14.56 30.22 14.56L30.22 14.56zM52.81 6.87C52.81 7.04 52.69 7.12 52.61 7.13L37.19 8.41 37.29 7.6C37.2991027 7.47683462 37.2991027 7.35316538 37.29 7.23L37.29 7.23C37.2855243 7.20352114 37.2855243 7.17647886 37.29 7.15L52.49 5.88C52.49 5.88 52.6 5.88 52.69 6.08 52.8380432 6.31521605 52.8815191 6.60143273 52.81 6.87z"/>
      <path id="Path" fill="#3D454C" fill-rule="nonzero" d="M16.53 37.12C15.9777153 37.12 15.53 37.5677153 15.53 38.12 15.53 38.6722847 15.9777153 39.12 16.53 39.12 17.0822847 39.12 17.53 38.6722847 17.53 38.12 17.53 37.5677153 17.0822847 37.12 16.53 37.12zM24.43 34.29C23.8777153 34.29 23.43 34.7377153 23.43 35.29 23.43 35.8422847 23.8777153 36.29 24.43 36.29 24.9822847 36.29 25.43 35.8422847 25.43 35.29 25.43 34.7377153 24.9822847 34.29 24.43 34.29zM32.34 37.4C31.7877153 37.4 31.34 37.8477153 31.34 38.4 31.34 38.9522847 31.7877153 39.4 32.34 39.4 32.8922847 39.4 33.34 38.9522847 33.34 38.4 33.34 37.8477153 32.8922847 37.4 32.34 37.4zM29 42.77C28.4477153 42.77 28 43.2177153 28 43.77 28 44.3222847 28.4477153 44.77 29 44.77 29.5522847 44.77 30 44.3222847 30 43.77 30 43.2177153 29.5522847 42.77 29 42.77zM20.76 42.2C20.2077153 42.2 19.76 42.6477153 19.76 43.2 19.76 43.7522847 20.2077153 44.2 20.76 44.2 21.3122847 44.2 21.76 43.7522847 21.76 43.2 21.76 42.6477153 21.3122847 42.2 20.76 42.2z"/>
    </g>
  </g>
</svg>
