<svg xmlns="http://www.w3.org/2000/svg" width="64" height="64" viewBox="0 0 64 64" style="background:#fff">
  <g id="Milch-(UHT,-Vollrahm,-3.5%)" fill="none" fill-rule="evenodd" stroke="none" stroke-width="1">
    <rect width="64" height="64" fill="#FFF"/>
    <g id="Milch-(UHT,-teilentrahmt,-bis-3.5%)" fill-rule="nonzero" transform="translate(15 8)">
      <g id="Layer_1">
        <path id="Path" fill="#CCC" d="M34.37,37.13 C34.37,30.95 34.86,20.85 27.37,18.54 C21.47,16.74 17.93,24.28 12.66,19.27 C9.19,15.96 5.02,19.6 3.76,23.08 L3.67,23.35 C-0.59,28.14 0.86,38.79 1.39,44.35 C1.69,47.61 2.8,51.35 6.56,51.82 C10.69,52.33 14.81,52.75 18.95,53.1 C21.95,53.36 25.49,54.23 28.51,53.85 C35.88,52.94 34.35,42.33 34.37,37.13 Z" opacity=".5"/>
        <circle id="Oval" cx="32.98" cy="16.17" r="1" fill="#3D454C"/>
        <path id="Shape" fill="#3D454C" d="M34.28,20.47 C34.28,19.9177153 33.8322847,19.47 33.28,19.47 C32.7277153,19.47 32.28,19.9177153 32.28,20.47 L32.28,50.65 L26.28,50.65 L26.28,15.07 C26.279706,14.7172752 26.3765831,14.3712857 26.56,14.07 L29.28,9.57 L31,12.45 C31.3088724,12.841992 31.8594723,12.9462506 32.2902746,12.6943195 C32.7210768,12.4423883 32.9001866,11.9113989 32.71,11.45 L30.25,7.4 L30.25,3.77 C30.2500088,2.05076928 28.8592219,0.655510355 27.14,0.649935706 L11.14,0.649935706 C10.310795,0.644680269 9.51358219,0.969671179 8.92442595,1.55319854 C8.3352697,2.13672591 8.0026407,2.93078212 8,3.76 L8,7.37 L4.79,12.69 C4.27675526,13.5303767 4.00353418,14.4952967 4,15.48 L4,23.15 C4,23.7022847 4.44771525,24.15 5,24.15 C5.55228475,24.15 6,23.7022847 6,23.15 L6,15.48 C5.99507576,15.4067493 5.99507576,15.3332507 6,15.26 L24.29,15.26 L24.29,50.65 L6,50.65 L6,32 C6,31.4477153 5.55228475,31 5,31 C4.44771525,31 4,31.4477153 4,32 L4,51.65 C4,52.2022847 4.44771525,52.65 5,52.65 L33.28,52.65 C33.8322847,52.65 34.28,52.2022847 34.28,51.65 C34.28,51.65 34.28,51.59 34.28,51.56 C34.28,51.53 34.28,51.5 34.28,51.46 L34.28,20.47 Z M10,3.76 C10.0054882,3.14534987 10.5053254,2.65 11.12,2.65 L27.12,2.65 C27.4161311,2.65 27.6999901,2.76830579 27.9084453,2.97863901 C28.1169006,3.18897222 28.2326678,3.47388088 28.2300451,3.77 L28.2300451,6.65 L10,6.65 L10,3.76 Z M9.57,8.65 L27.51,8.65 L24.86,13 L24.75,13.22 L6.82,13.22 L9.57,8.65 Z"/>
        <path id="Path" fill="#3D454C" d="M5,28.52 C5.55228475,28.52 6,28.0722847 6,27.52 C6,26.9677153 5.55228475,26.52 5,26.52 C4.44771525,26.52 4,26.9677153 4,27.52 C4,28.0722847 4.44771525,28.52 5,28.52 Z"/>
      </g>
    </g>
  </g>
</svg>
