<svg xmlns="http://www.w3.org/2000/svg" width="64" height="64" viewBox="0 0 64 64" style="background:#fff">
  <g id="Mineralwasser(ohne-Kohlensäure)" fill="none" fill-rule="evenodd" stroke="none" stroke-width="1">
    <rect width="64" height="64" fill="#FFF"/>
    <g transform="translate(2 3)">
      <rect id="Rectangle" width="60" height="60" x="0" y="0"/>
      <path id="Path" fill="#31D4E0" fill-rule="nonzero" d="M35.43 2.13C33.5498952 1.88654241 31.6492872 1.84296586 29.76 2 27.9459158 1.88848815 26.1251376 2.02984247 24.35 2.42 22.85 2.85 23.08 5.85 24.09 6.63 27 8.78 32.17 9.75 35.58 8.54 37.66 7.8 37.72 2.61 35.43 2.13zM39.46 36.92C39.22 36.24 39.02 35.55 38.83 34.86 39.02 35.24 39.25 34.74 39.5 33.34 43.16 25.11 37.07 9.28 26.87 16L26.1 15.65C22.46 14.18 20.92 19.48 20.94 21.94 20.94 26.01 21.85 29.57 21.28 33.67 20.63 38.47 19.38 43.16 20.16 48.03 21.37 55.55 28.99 64.52 36.47 57.49 39.72 54.48 41 49.63 41 45.31 40.904646 42.4525383 40.3856568 39.6250581 39.46 36.92L39.46 36.92z" opacity=".5"/>
      <path id="Shape" fill="#3D454C" fill-rule="nonzero" d="M40,22.82 L40,17 C39.9946714,15.5750939 39.3969339,14.2165998 38.35,13.25 L34.5,10.25 L34.5,8.44 C35.1413536,8.20545813 35.5816698,7.61181753 35.62,6.93 L35.62,3.5 C35.62,3.5 35.62,3.5 35.62,3.42 C35.62,3.34 35.62,3.34 35.62,3.3 C35.62,1.16 31.28,1.05 30.41,1.05 C29.54,1.05 25.2,1.16 25.2,3.3 L25.2,6.93 C25.2366855,7.60932386 25.6725696,8.20228328 26.31,8.44 L26.31,10.22 L22.46,13.22 L22.39,13.28 C21.3875165,14.256647 20.8275864,15.6004792 20.84,17 L20.84,22.84 C20.838343,24.0533095 21.1154717,25.2507791 21.65,26.34 C23.3013999,29.3402858 23.3352122,32.9694663 21.74,36 C21.1329373,37.1269505 20.8231843,38.3900547 20.84,39.67 L20.84,54.86 C20.8321232,55.2646361 20.9471905,55.6621415 21.17,56 C21.94,57.14 24.17,59.06 30.43,59.06 C36.69,59.06 38.84,57.19 39.63,56.06 C39.8772156,55.7054691 40.0066568,55.2821613 40,54.85 L40,39.64 C40.0154973,38.3602056 39.7058241,37.0974267 39.1,35.97 C37.501648,32.9446818 37.5317104,29.3184031 39.18,26.32 C39.722112,25.2330906 40.0029016,24.0345983 40,22.82 L40,22.82 Z M37.37,36.94 C37.5399709,37.2574841 37.6741278,37.5928764 37.77,37.94 C36.97,38.56 34.36,39.35 30.43,39.35 C26.74,39.35 23.98,38.64 23.08,37.94 C23.1792971,37.5925412 23.3168034,37.25716 23.49,36.94 C25.1985103,33.821635 25.4043752,30.0976854 24.05,26.81 C24.8301529,27.0389487 25.6254508,27.2127113 26.43,27.33 L26.58,27.33 C27.1322847,27.3686599 27.6113401,26.9522847 27.65,26.4 C27.6886599,25.8477153 27.2722847,25.3686599 26.72,25.33 C25.4007871,25.2388715 24.1237907,24.8269372 23,24.13 C22.9078951,23.6993916 22.8609743,23.2603476 22.86,22.82 L22.86,18 C24.86,19 28.17,19.32 30.45,19.32 C32.73,19.32 36,19 38.0000065,18 L38.0000065,22.79 C38.0006651,23.2309889 37.9503307,23.6705755 37.85,24.1 C36.8143955,24.770771 35.6294733,25.1760488 34.4,25.28 C33.8477153,25.3241828 33.4358172,25.8077153 33.48,26.36 C33.5241828,26.9122847 34.0077153,27.3241828 34.56,27.28 L34.72,27.28 C35.4158431,27.1666864 36.1038686,27.0097097 36.78,26.81 C35.4362837,30.1024158 35.6531465,33.8258404 37.37,36.94 L37.37,36.94 Z M37.71,15.88 C37.26,16.37 34.84,17.35 30.43,17.35 C26.02,17.35 23.59,16.35 23.14,15.88 C23.59,15.38 26.02,14.41 30.43,14.41 C34.84,14.41 37.26,15.38 37.71,15.88 L37.71,15.88 Z M27.22,6.66 L27.22,5.15 C28.2682007,5.42158332 29.3472047,5.55603865 30.43,5.55 C31.5127953,5.55603865 32.5917993,5.42158332 33.64,5.15 L33.64,6.66 C32.6194716,7.06150609 31.5254299,7.24214226 30.43,7.19 C29.3344286,7.2446021 28.2398717,7.06388087 27.22,6.66 Z M30.43,3.05 C31.2436083,3.03973276 32.0556731,3.12362375 32.85,3.3 C32.0556731,3.47637625 31.2436083,3.56026724 30.43,3.55 C29.613024,3.56167747 28.7974851,3.47777429 28,3.3 C28.7974851,3.12222571 29.613024,3.03832253 30.43,3.05 L30.43,3.05 Z M30.43,9.19 C31.1303036,9.17654023 31.8287496,9.11304513 32.52,9 L32.52,10.68 C32.5238131,10.9859757 32.6675073,11.2733641 32.91,11.46 L34.47,12.68 C31.7915211,12.2799606 29.0684789,12.2799606 26.39,12.68 L28,11.49 C28.2387374,11.3013526 28.3785972,11.014272 28.38,10.71 L28.38,9 C29.0581027,9.11077829 29.7430884,9.17426477 30.43,9.19 L30.43,9.19 Z M30.43,57.05 C24.59,57.05 23.08,55.24 22.84,54.86 L22.84,40.1 C25.2672136,40.9965837 27.8434567,41.4208661 30.43,41.35 C33.0100692,41.4215199 35.5798874,40.9971774 38,40.1 L38,54.91 C37.64,55.41 36,57.05 30.43,57.05 Z"/>
      <path id="Path" fill="#3D454C" fill-rule="nonzero" d="M30.55,25.68 C29.9977153,25.68 29.55,26.1277153 29.55,26.68 C29.55,27.2322847 29.9977153,27.68 30.55,27.68 C31.1022847,27.68 31.55,27.2322847 31.55,26.68 C31.55,26.1277153 31.1022847,25.68 30.55,25.68 Z"/>
    </g>
  </g>
</svg>
