<svg xmlns="http://www.w3.org/2000/svg" width="64" height="64" viewBox="0 0 64 64" style="background:#fff">
  <g id="Mineralwasser(mit-Kohlensäure)" fill="none" fill-rule="evenodd" stroke="none" stroke-width="1">
    <rect width="64" height="64" fill="#FFF"/>
    <g transform="translate(2 4)">
      <rect id="Rectangle" width="60" height="60" x="0" y="0"/>
      <path id="Path" fill="#31D4E0" fill-rule="nonzero" d="M40.56,43.18 C40.12,40.93 38.29,38.46 38.09,36.24 C37.94,34.6 39.09,32.62 39.44,31.01 C40.1071831,27.9790472 40.0729793,24.8357171 39.34,21.82 C37.88,16.02 33.66,12.13 27.67,13.75 C27.0335203,13.9254568 26.445329,14.2434904 25.95,14.68 C22.08,14.47 20.3,18.18 19.95,21.94 C19.7384516,24.5029601 20.2293739,27.0751162 21.37,29.38 C21.7315363,30.2194683 22.1595648,31.0287096 22.65,31.8 C19.4,35.68 18.87,43.56 19.65,48.18 C20.48,53.33 23.27,57.84 28.76,58.51 C33.9,59.14 38.21,57 40.05,52 C40.9971534,49.1568645 41.1731386,46.1133564 40.56,43.18 Z" opacity=".5"/>
      <path id="Path" fill="#E05362" fill-rule="nonzero" d="M35.23,2.25 C33.4649508,2.46649689 31.6824897,2.50335228 29.91,2.36 C28.2,2.19 26.54,1.57 24.83,1.51 C22.61,1.44 23.08,5.36 24.1,6.34 C26.88,9 31.74,9.62 35.4,9 C38.32,8.49 38.21,1.93 35.23,2.25 Z" opacity=".5"/>
      <path id="Shape" fill="#3D454C" fill-rule="nonzero" d="M40,22.57 L40,16.73 C39.9907624,15.3158331 39.4015157,13.9674341 38.37,13 L34.52,10 L34.52,8.2 C35.1613536,7.96545813 35.6016698,7.37181753 35.64,6.69 L35.64,3.25 C35.64,3.25 35.64,3.25 35.64,3.17 C35.64,3.09 35.64,3.1 35.64,3.05 C35.64,0.91 31.3,0.8 30.43,0.8 C29.56,0.8 25.22,0.91 25.22,3.05 L25.22,6.69 C25.2566855,7.36932386 25.6925696,7.96228328 26.33,8.2 L26.33,10 L22.48,13 L22.41,13.07 C21.4092142,14.0329596 20.8425605,15.3611671 20.84,16.75 L20.84,22.59 C20.836185,23.8035535 21.1134259,25.001508 21.65,26.09 C23.2960198,29.0881325 23.3298146,32.7116887 21.74,35.74 C21.1341759,36.8674267 20.8245027,38.1302056 20.84,39.41 L20.84,54.61 C20.8341458,55.0112432 20.9491277,55.404969 21.17,55.74 C21.94,56.89 24.17,58.8 30.43,58.8 C36.69,58.8 38.84,56.93 39.63,55.8 C39.875216,55.4482554 40.0045607,55.0287591 40,54.6 L40,39.4 C40.0167572,38.1168789 39.707059,36.8505574 39.1,35.72 C37.501648,32.6946818 37.5317104,29.0684031 39.18,26.07 C39.7242239,24.983854 40.0051329,23.7848524 40,22.57 L40,22.57 Z M37.37,36.7 C37.5434183,37.0158668 37.6777396,37.3516701 37.77,37.7 C36.97,38.32 34.36,39.11 30.43,39.11 C26.74,39.11 23.98,38.4 23.08,37.7 C23.1756239,37.3512788 23.3133012,37.0154805 23.49,36.7 C25.1985103,33.581635 25.4043752,29.8576854 24.05,26.57 C24.8303349,26.7958287 25.6256476,26.9662528 26.43,27.08 L26.58,27.08 C27.081932,27.0849401 27.5097504,26.7170163 27.58,26.22 C27.6575603,25.6766369 27.2826636,25.1723117 26.74,25.09 C25.4158717,24.9919373 24.1339963,24.5806404 23,23.89 C22.9079201,23.4560081 22.8610035,23.0136516 22.86,22.57 L22.86,17.79 C24.86,18.79 28.17,19.11 30.45,19.11 C32.73,19.11 36,18.79 38.0000059,17.79 L38.0000059,22.57 C38.0006344,23.0142879 37.9503055,23.4571825 37.85,23.89 C36.8127406,24.5557592 35.6282615,24.9574521 34.4,25.06 C33.8477153,25.1041828 33.4358172,25.5877153 33.48,26.14 C33.5241828,26.6922847 34.0077153,27.1041828 34.56,27.06 L34.72,27.06 C35.416574,26.9550022 36.1049286,26.8012919 36.78,26.6 C35.4458698,29.8837664 35.6626008,33.5939071 37.37,36.7 L37.37,36.7 Z M37.71,15.63 C37.26,16.13 34.84,17.11 30.43,17.11 C26.02,17.11 23.59,16.11 23.14,15.63 C23.59,15.14 26.02,14.16 30.43,14.16 C34.84,14.16 37.26,15.14 37.71,15.63 L37.71,15.63 Z M27.22,6.42 L27.22,4.9 C28.2682007,5.17158332 29.3472047,5.30603865 30.43,5.3 C31.5127953,5.30603865 32.5917993,5.17158332 33.64,4.9 L33.64,6.42 C32.6168836,6.81126593 31.524316,6.98825507 30.43,6.94 C29.3355507,6.99056086 28.2425149,6.81349587 27.22,6.42 L27.22,6.42 Z M30.43,2.8 C31.2433707,2.79481496 32.0548667,2.87864719 32.85,3.05 C32.0556731,3.22637625 31.2436083,3.31026724 30.43,3.3 C29.613024,3.31167747 28.7974851,3.22777429 28,3.05 C28.7982969,2.87727648 29.6132576,2.79343279 30.43,2.8 L30.43,2.8 Z M30.43,8.94 C31.1295864,8.93646775 31.8280282,8.88299852 32.52,8.78 L32.52,10.46 C32.5207439,10.7694966 32.664753,11.0612074 32.91,11.25 L34.47,12.47 C31.7925249,12.0566641 29.0674751,12.0566641 26.39,12.47 L28,11.25 C28.241492,11.0591779 28.381658,10.7677803 28.38,10.46 L28.38,8.78 C29.0588048,8.8807315 29.7437864,8.93419348 30.43,8.94 L30.43,8.94 Z M30.43,56.8 C24.59,56.8 23.08,54.99 22.84,54.61 L22.84,39.85 C25.266549,40.7499894 27.842812,41.1776694 30.43,41.11 C33.009732,41.176601 35.5786253,40.7524112 38,39.86 L38,54.66 C37.64,55.16 36,56.8 30.43,56.8 Z"/>
      <path id="Path" fill="#3D454C" fill-rule="nonzero" d="M30.55 25.44C29.9977153 25.44 29.55 25.8877153 29.55 26.44 29.55 26.9922847 29.9977153 27.44 30.55 27.44 31.1022847 27.44 31.55 26.9922847 31.55 26.44 31.55 25.8877153 31.1022847 25.44 30.55 25.44zM27.18 43.71L26.92 43.71C26.3677153 43.71 25.92 44.1577153 25.92 44.71 25.92 45.2622847 26.3677153 45.71 26.92 45.71L27.18 45.71C27.7322847 45.71 28.18 45.2622847 28.18 44.71 28.18 44.1577153 27.7322847 43.71 27.18 43.71zM33.32 45.85C32.7677153 45.85 32.32 46.2977153 32.32 46.85 32.32 47.4022847 32.7677153 47.85 33.32 47.85 33.8722847 47.85 34.32 47.4022847 34.32 46.85 34.32 46.2977153 33.8722847 45.85 33.32 45.85zM29.05 50.38C28.4977153 50.38 28.05 50.8277153 28.05 51.38 28.05 51.9322847 28.4977153 52.38 29.05 52.38 29.6022847 52.38 30.05 51.9322847 30.05 51.38 30.05 50.8277153 29.6022847 50.38 29.05 50.38z"/>
    </g>
  </g>
</svg>
