<svg xmlns="http://www.w3.org/2000/svg" width="64" height="64" viewBox="0 0 64 64" style="background:#fff">
  <g id="Minze" fill="none" fill-rule="evenodd" stroke="none" stroke-width="1">
    <rect width="64" height="64" fill="#FFF"/>
    <g transform="translate(2 6)">
      <rect id="Rectangle" width="60" height="60" x="0" y="0"/>
      <path id="Path" fill="#31E085" fill-rule="nonzero" d="M52.49,10.41 C44.36,4.07 34.49,9.7 28.56,16.74 C25.055399,13.1502084 20.3296575,11.0086337 15.32,10.74 C10.89,10.58 9.1,17.05 9.32,20.44 C9.55,24.6 11.2,29.11 15.71,29.81 C10.83,33.02 6.96,38.96 6.64,43.81 C6.42,47.17 6.64,51.28 9.52,53.62 C11.89,55.62 14.93,54.62 16.45,52.09 C18.45,48.83 18.3,47.09 20.98,44.09 C23.34,41.5 26.48,39.86 28.78,37.23 C29.0644887,36.8799903 29.3061973,36.4972851 29.5,36.09 C33.9,38.37 36.94,40.43 38.76,45.58 C39.92,48.87 43.37,51.31 46.6,49.26 C49.83,47.21 50.79,41.55 49.88,38 C48.4727007,32.5734808 45.5974902,27.6396057 41.57,23.74 C45.22,21.61 49.37,20.04 52.67,17.68 C54.67,16.25 54.3,11.82 52.49,10.41 Z" opacity=".5"/>
      <path id="Shape" fill="#3D454C" fill-rule="nonzero" d="M55.34,12 C55.2333502,11.6113938 54.9155753,11.3168707 54.52,11.24 C54.4272648,11.2250564 54.3327352,11.2250564 54.24,11.24 C53.8881181,11.1399903 53.5308866,11.0598636 53.17,11 C52.2823783,10.8559807 51.4304417,10.5437171 50.66,10.08 C49.7499881,9.63917932 48.7600465,9.38744159 47.75,9.34 C47.8197907,9.21730616 47.9036942,9.1031974 48,9 C48.2111912,8.7213571 48.2615169,8.35264756 48.1327244,8.02759978 C48.0039318,7.70255201 47.7147261,7.46837381 47.37,7.41 C45.7026436,7.16295111 44.0027399,7.25134611 42.37,7.67 C42.3103131,7.36913712 42.1838736,7.08550253 42,6.84 C41.789572,6.54759478 41.4381309,6.39097432 41.08,6.43 C37.68,6.8 36.75,7.35 35.37,9.12 C35.2992017,8.88195473 35.1423581,8.67877106 34.93,8.55 C34.5369203,8.30677861 34.0283658,8.36466286 33.7,8.69 C33.52,8.87 33.32,9.05 33.09,9.25 C31.108735,10.8150725 29.7564358,13.0405097 29.28,15.52 L28.76,14.71 C28.62,14.5 28.51,14.33 28.43,14.19 C28.2191456,13.8161209 27.8524925,13.5557972 27.43,13.48 C26.8356908,13.4608984 26.2663871,13.7196729 25.89,14.18 C23.3,11.1 19.8,11.39 18.5,12.28 C18.1104342,12.5096375 17.8709469,12.9277898 17.87,13.38 L17.5,13.33 C16.4346581,13.0783413 15.3299198,13.0409502 14.25,13.22 C14.2,13.22 9.53,14.5 9.14,15.66 C8.75,16.82 11.19,20.66 11.21,20.66 C11.4156987,20.9759301 11.6394016,21.2797653 11.88,21.57 C11.3,21.8 10.72,22.15 10.78,22.91 C10.96,24.91 13.15,26.06 14.88,26.8 C14.540419,26.9458279 14.2989825,27.2551684 14.24,27.62 C14.1894648,28.0617615 14.3852905,28.4956499 14.75,28.75 C14.9542525,28.9116567 15.135875,29.100006 15.29,29.31 L15.58,29.66 C14.1274095,29.73617 12.7323412,30.2523453 11.58,31.14 C11.01,31.5 10.31,31.94 9.38,32.45 C8.95007492,32.6708202 8.73960879,33.1675203 8.88,33.63 C8.95327119,33.8696779 9.11387109,34.0731045 9.33,34.2 C7.4,35.2 6.7,36 5.69,39.15 C5.57417691,39.4984439 5.65863357,39.8823378 5.91,40.15 C6.10728375,40.3546292 6.34591919,40.5148558 6.61,40.62 C5.89392741,42.1073346 5.47929492,43.7216825 5.38962463,45.37 C5.3804794,45.7179802 5.55260723,46.0458712 5.84443155,46.235659 C6.13625586,46.4254469 6.50577792,46.4498177 6.82,46.3 C6.94208407,46.2467209 7.06945856,46.2064974 7.2,46.18 C7.05020062,47.1433714 7.10127029,48.1273135 7.35,49.07 C7.64544787,49.8965554 7.77458985,50.7733615 7.73,51.65 C7.71047817,52.0030637 7.71047817,52.3569363 7.73,52.71 C7.71470418,52.8027066 7.71470418,52.8972934 7.73,52.99 C7.71552423,53.4096908 7.94564205,53.799721 8.32,53.99 C8.46482672,54.0770588 8.63103337,54.1220731 8.8,54.1200685 C8.99603344,54.1184692 9.18729326,54.0593525 9.35,53.95 C9.49513701,53.8602011 9.61276437,53.7321948 9.69,53.58 L9.84,53.44 C10.293356,53.3221667 10.7644456,53.2882754 11.23,53.34 C12.0959385,53.4220932 12.9646454,53.2145883 13.7,52.75 C14.5967939,52.2763473 15.4189471,51.6732103 16.14,50.96 C16.0120109,51.2597494 16.0381327,51.6030657 16.21,51.88 C16.466083,52.2912561 16.9801295,52.4597959 17.43,52.28 C19.3819842,51.6674747 20.9449017,50.1930243 21.67,48.28 C21.7831102,48.4610847 21.8865874,48.6480112 21.98,48.84 C22.1147045,49.1165438 22.3691879,49.3157047 22.67,49.38 C22.97055,49.4443484 23.2839959,49.3669088 23.52,49.17 C24.52,48.34 24.82,46.78 25.12,45.26 C25.12,45.13 25.17,45 25.2,44.85 C25.3503859,45.0643494 25.4809257,45.2919572 25.59,45.53 C25.7675332,45.9029463 26.1560928,46.1283665 26.5679737,46.0973647 C26.9798546,46.0663629 27.3302933,45.7853192 27.45,45.39 C27.89,43.94 28.26,42.69 28.45,41.58 C28.67,41.72 28.89,41.86 29.14,42 C29.3704726,42.1240102 29.5853247,42.2750781 29.78,42.45 C30.0739082,42.7829242 30.5320975,42.9188278 30.96,42.8 C31.4202804,42.6246927 31.7391439,42.2008375 31.78,41.71 C33.02,43.34 34.84,45.61 36.94,45.51 C37.76,45.51 38,44.74 38.14,44.09 C38.7642557,44.3425748 39.4059216,44.5497794 40.06,44.71 C41.34,45.06 42.94,45.51 43.58,46.23 C43.7695698,46.4457843 44.0427728,46.5696363 44.33,46.57 L44.5,46.57 C44.8419731,46.5122161 45.1295875,46.2813676 45.26,45.96 C46.2603063,43.645345 46.5188274,41.0776018 46,38.61 L45.88,37.76 C45.76,36.76 46.01,36.67 46.63,36.37 C47.2021272,36.1645649 47.6624924,35.7295742 47.9,35.17 C48.0521068,34.585231 47.9581519,33.9636833 47.64,33.45 C47.1027418,32.6890754 46.384468,32.0739031 45.55,31.66 C45.0306819,31.3821194 44.5442875,31.0466749 44.1,30.66 L44.16,30.6 C44.4994626,30.3348599 44.7159617,29.9426211 44.7593823,29.5140784 C44.8028029,29.0855357 44.6693807,28.6578423 44.39,28.33 C44.0314061,27.8822505 43.6104547,27.48824 43.14,27.16 L43.14,27.16 C44.72,27.16 46.36,27.16 47.38,26.36 C47.6242875,26.1670209 47.7647649,25.871279 47.76,25.56 C47.7537979,25.2523 47.6062569,24.964595 47.36,24.78 C47.1742565,24.6374485 46.9972693,24.4838369 46.83,24.32 C48.8946974,23.9725449 50.6859617,22.6972826 51.69,20.86 C51.9525891,20.4558353 51.8895221,19.9218681 51.54,19.59 C51.2723378,19.3386336 50.8884439,19.2541769 50.54,19.37 L50.54,19.37 C51.4698304,18.7695979 52.2998885,18.0272696 53,17.17 C53.6102955,16.5278731 53.9901604,15.7013151 54.08,14.82 C54.1296629,14.3301887 54.2650573,13.8529234 54.48,13.41 L54.64,13.3 C54.8156702,13.2393485 54.9736694,13.1363055 55.1,13 C55.3584022,12.7364932 55.4506609,12.352082 55.34,12 Z M13,23.32 C13.68,23.09 14.36,22.84 14.59,22.19 C14.695623,21.8537502 14.6480843,21.4880679 14.46,21.19 C14.3077893,20.9563262 14.0649159,20.7968272 13.79,20.75 C13.14,20.35 11.68,17.75 11.21,16.5 C12.3361311,15.9482296 13.5155561,15.5126465 14.73,15.2 C15.5453518,15.1066822 16.3706725,15.1540366 17.17,15.34 C18.38,15.54 19.44,15.71 19.98,14.88 C20.1832974,14.5584365 20.2379699,14.1647951 20.13,13.8 C21.9258801,13.5184554 23.7143231,14.3475349 24.66,15.9 C24.8863982,16.238366 25.2543469,16.4554558 25.66,16.49 C26.2149769,16.4984506 26.7441139,16.2559295 27.1,15.83 L27.1,15.83 C28.31,17.68 31.53,22.61 29.01,25.54 C28.9333031,25.6326915 28.8724808,25.7374411 28.83,25.85 C28.7580435,25.6323956 28.6745929,25.4187621 28.58,25.21 C26.48,20.69 24.3,19.41 22.24,18.49 C21.913102,18.3435211 21.5328902,18.382567 21.2425868,18.5924296 C20.9522833,18.8022921 20.7959922,19.1510882 20.8325868,19.5074296 C20.8691813,19.863771 21.093102,20.1735211 21.42,20.32 C23.21,21.12 24.96,22.16 26.76,26.05 C26.8656205,26.2633093 26.946158,26.4881432 27,26.72 C26.66,27.86 26.42,28.63 26.32,28.9 C25.1464618,30.1026724 23.4934305,30.7124573 21.82,30.56 C21.294482,30.5491725 20.7701418,30.5057558 20.25,30.43 C20.0962953,30.1433959 19.8128183,29.949438 19.49,29.91 L18.49,29.82 C17.8652034,29.3602111 17.3182483,28.8031272 16.87,28.17 L17.56,27.85 C17.9481781,27.6693327 18.1946313,27.2781372 18.19,26.85 C18.19,26.07 17.54,25.85 16.41,25.35 C15.1432245,24.9206658 13.9812621,24.2289404 13,23.32 L13,23.32 Z M26.08,42.85 C25.9605333,42.6739923 25.866286,42.4821316 25.8,42.28 C25.6751981,41.9508797 25.3865545,41.7116093 25.04,41.65 C24.6884351,41.5873666 24.3301507,41.7169589 24.1,41.99 C23.5467154,42.8515846 23.2041333,43.8313695 23.1,44.85 C22.99,45.36 22.87,45.97 22.72,46.49 C22.4652764,46.2436382 22.1668411,46.0469422 21.84,45.91 C21.6358374,45.7333997 21.3689493,45.6468414 21.1,45.67 C20.7583663,45.7008758 20.4563996,45.9047033 20.3,46.21 C20.16,46.49 20.04,46.79 19.91,47.11 C19.5911234,48.1984527 18.8780574,49.1290038 17.91,49.72 C17.83,49.49 17.75,49.29 17.67,49.11 C17.48,48.68 17.02,47.68 16.12,47.79 C15.6438905,47.8452152 15.2611304,48.2076158 15.18,48.68 C15.05,49.3 13.77,50.36 12.71,50.9 C12.3059317,51.1938756 11.8065006,51.3258681 11.31,51.27 C10.7722805,51.2190223 10.2300171,51.245967 9.7,51.35 C9.69779772,50.3808914 9.53908747,49.4184995 9.23,48.5 C9.01538226,47.6940429 9.01538226,46.8459571 9.23,46.04 C9.45476131,45.8169034 9.5605634,45.5005291 9.51522543,45.1871058 C9.46988746,44.8736824 9.27876871,44.6002589 9,44.45 C8.53150516,44.2265304 8.01906255,44.1103767 7.5,44.11 C7.74,42.73 8.24,41.38 8.65,41.19 C8.96022051,41.0406325 9.17178214,40.7421795 9.21,40.4 C9.2472071,40.0595478 9.10759949,39.7237349 8.84,39.51 C8.53798646,39.2696699 8.20068057,39.0774055 7.84,38.94 C8.6,36.74 9.02,36.55 11.18,35.55 L12.4,35 C12.7338434,34.8366069 12.9495213,34.5015359 12.96,34.13 C12.9742131,33.7550019 12.7772802,33.4036118 12.45,33.22 L12.24,33.12 L12.63,32.87 C14.33,31.81 14.8,31.51 17.85,31.76 C18.9289983,32.2672547 20.1077346,32.5269184 21.3,32.52 C17.1,35.16 15.39,39.07 14.36,41.43 C14.138548,41.9941809 13.8779122,42.5421843 13.58,43.07 C13.4389787,43.2953123 13.3934623,43.5674983 13.4535053,43.8264336 C13.5135482,44.0853688 13.6742096,44.3097455 13.9,44.45 C14.0591413,44.548629 14.2427748,44.6006008 14.43,44.6 C14.7755015,44.6006914 15.0968845,44.4229855 15.28,44.13 C15.6295163,43.5183245 15.9368965,42.8835174 16.2,42.23 C17.47,39.28 19.35,35 25,32.89 C24.8814989,33.9366565 24.8814989,34.9933435 25,36.04 C25.1431453,37.5306456 25.7086098,38.9495106 26.63,40.13 C26.5036983,41.0472712 26.3200046,41.9557202 26.08,42.85 Z M44.53,33.36 C45.0325213,33.6254901 45.4939714,33.962315 45.9,34.36 L45.96,34.47 L45.8,34.55 C44.4106351,35.0800764 43.6192581,36.547953 43.94,38 L44.06,38.89 C44.4103784,40.5473477 44.341635,42.2659328 43.86,43.89 C42.8247461,43.3775331 41.734346,42.984989 40.61,42.72 C39.9602379,42.5702131 39.3270866,42.3558127 38.72,42.08 C38.623504,41.8449585 38.4411577,41.6554614 38.21,41.55 C37.8796519,41.3841306 37.4903481,41.3841306 37.16,41.55 C36.54,41.87 36.39,42.55 36.26,43.3 C35.2,42.81 33.92,41.11 33.26,40.23 C32.41,39.1 31.97,38.53 31.21,38.67 C30.8013094,38.7374509 30.4672029,39.0327078 30.35,39.43 C30.26,39.7 30.19,39.94 30.13,40.15 C28,39 27.51,38.3 27.05,35.69 C26.8807391,34.1552316 26.9754399,32.6028142 27.33,31.1 C27.3641883,30.9519481 27.3641883,30.7980519 27.33,30.65 C27.5414318,30.4537957 27.735489,30.2396637 27.91,30.01 C28.034671,29.842128 28.1262971,29.6520887 28.18,29.45 C28.3341484,29.5753488 28.5221419,29.6519388 28.72,29.67 C28.98,29.67 30.27,30 30.78,30.15 C35.49,31.56 38.68,36.43 39,37 C39.1418682,37.2241343 39.3669754,37.3827194 39.6257855,37.4408579 C39.8845957,37.4989964 40.1559012,37.4519243 40.38,37.31 C40.6041343,37.1681318 40.7627194,36.9430246 40.8208579,36.6842145 C40.8789964,36.4254043 40.8319243,36.1540988 40.69,35.93 C40.06,34.93 36.63,29.84 31.35,28.25 L30.14,27.94 C30.5080328,27.2299659 31.0186908,26.6035587 31.64,26.1 C31.8088856,26.0428069 31.9580209,25.938759 32.07,25.8 C33.0684915,25.1581038 34.2653857,24.8988359 35.44,25.07 C35.1079296,25.4523619 35.0119706,25.9858935 35.19,26.46 C35.3807219,26.8450513 35.7613469,27.10007 36.19,27.13 C39.53,27.48 41.54,28.13 42.63,29.31 C42.1287851,29.7837801 41.9423582,30.5023004 42.15,31.16 C42.48,32.09 43.52,32.74 44.53,33.36 Z M52.1,14.57 C52.0531246,15.0857461 51.8182153,15.5662423 51.44,15.92 C50.68,16.92 49.34,17.92 48.69,17.92 C48.2083799,17.9113474 47.7761486,18.2143132 47.62,18.67 C47.34,19.55 48.24,20.19 48.62,20.47 C48.8079359,20.6067369 49.0050693,20.7303629 49.21,20.84 C48.4151844,21.708904 47.3231487,22.2477844 46.15,22.35 C45.8129853,22.4011531 45.4791223,22.4712643 45.15,22.56 C44.824484,22.6537445 44.5685564,22.9059084 44.47,23.23 C44.3924037,23.4913966 44.424913,23.7731438 44.56,24.01 L44.56,24.01 C44.6380801,24.3660828 44.7804057,24.7049532 44.98,25.01 C44.41,25.01 43.76,25.06 43.21,25.01 C42.1727863,24.9045168 41.1252486,25.0414498 40.15,25.41 C40.059069,25.4623332 39.9778727,25.5299968 39.91,25.61 C39.159811,25.4139802 38.3984093,25.2637035 37.63,25.16 C37.7608712,24.818785 37.7608712,24.441215 37.63,24.1 C37.4159235,23.5797889 36.9529544,23.2033912 36.4,23.1 C35.6724816,22.9125499 34.9192631,22.8449967 34.17,22.9 C36.2671423,20.2710656 39.075076,18.2996116 42.26,17.22 C42.6142697,17.1100522 42.8785729,16.8130362 42.9466237,16.4483931 C43.0146744,16.0837499 42.8752909,15.7113968 42.5845242,15.4810703 C42.2937575,15.2507439 41.8993857,15.2002907 41.56,15.35 C37.668141,16.7048279 34.2858551,19.221472 31.87,22.56 C31.7793823,21.2031445 31.4404307,19.8744542 30.87,18.64 C30.9191625,18.5229825 30.9430179,18.3968895 30.94,18.27 C30.85,14.53 32.2,12.65 33.5,11.38 C33.57,11.66 33.63,11.85 33.64,11.87 C33.753396,12.2240273 34.0538177,12.4859334 34.42,12.55 C34.7987619,12.627261 35.1881315,12.4793006 35.42,12.17 L36.23,11.08 C37.68,9.08 37.96,8.72 40.35,8.41 C40.4115859,8.80733901 40.5365059,9.19222771 40.72,9.55 C40.8763996,9.85529665 41.1783663,10.0591242 41.52,10.09 C41.8625745,10.1167123 42.1948712,9.96566835 42.4,9.69 C42.69,9.31 44.19,9.09 45.63,9.13 C45.4904603,9.65420615 45.4904603,10.2057938 45.63,10.73 C45.7200836,11.0337564 45.9487854,11.2768525 46.2464852,11.3852861 C46.5441849,11.4937198 46.8756583,11.4546611 47.14,11.28 C48.0029482,11.2217089 48.8658521,11.3942897 49.64,11.78 C50.5091792,12.2633934 51.4516489,12.6011962 52.43,12.78 C52.2282279,13.3560464 52.1169079,13.9598725 52.1,14.57 Z"/>
      <path id="Path" fill="#3D454C" fill-rule="nonzero" d="M46.52,14.25 C45.9677153,14.25 45.52,14.6977153 45.52,15.25 C45.52,15.8022847 45.9677153,16.25 46.52,16.25 C47.0722847,16.25 47.52,15.8022847 47.52,15.25 C47.52,14.6977153 47.0722847,14.25 46.52,14.25 Z"/>
    </g>
  </g>
</svg>
