<svg xmlns="http://www.w3.org/2000/svg" width="64" height="64" viewBox="0 0 64 64" style="background:#fff">
  <g id="Molke" fill="none" fill-rule="evenodd" stroke="none" stroke-width="1">
    <rect width="64" height="64" fill="#FFF"/>
    <g transform="translate(2 4)">
      <rect id="Rectangle" width="60" height="60" x="0" y="0"/>
      <path id="Path" fill="#CCC" fill-rule="nonzero" d="M50.91,46.31 C46.81,41.31 40.45,42.81 34.48,42.61 C32.99,42.55 31.48,42.53 30.03,42.49 C31.24,37.07 30.68,30.49 30.09,25.37 C29.09,16.99 19.45,17.49 18.62,25.65 C18.376935,28.1354472 18.3034316,30.6345635 18.4,33.13 L18.4,33.94 C17.3029071,33.8183262 16.1924942,33.9273238 15.14,34.26 C12.82,35.26 11.14,37.64 10.36,39.93 C8.14,46.11 10.56,54.18 16.57,57.21 C21.45,59.68 27.7,59.21 33,59.06 C39.26,58.92 47.45,59.9 51.07,53.91 C52.35,51.83 52.51,48.27 50.91,46.31 Z" opacity=".5"/>
      <path id="Shape" fill="#3D454C" fill-rule="nonzero" d="M27.75 19.47L26.58 16.37 26.58 16.37 24.82 11.73 24.82 9.1C25.3130381 9.02523058 25.6756372 8.59864337 25.67 8.1L25.67 6.1C25.67 4.75794806 24.5820519 3.67 23.24 3.67L16.73 3.67C16.0820437 3.67 15.4609133 3.92873878 15.0046206 4.38878698 14.5483279 4.84883518 14.294667 5.47206564 14.3 6.12L14.3 8.12C14.3 8.67228475 14.7477153 9.12 15.3 9.12L15.3 11.72 12.38 19.47C11.2011668 22.5888763 10.5980637 25.8957784 10.5999954 29.23L10.5999954 52.89C10.5985417 54.1583799 11.213988 55.3482427 12.25 56.08 12.5776905 56.303873 12.9342872 56.4821714 13.31 56.61 13.68 56.73 14.05 56.82 14.42 56.92L14.98 57.08 15.16 57.08C15.66 57.19 16.16 57.3 16.66 57.38L17.46 57.47 18.36 57.58C18.93 57.58 19.51 57.65 20.09 57.65L20.36 57.65C22.5627541 57.6261406 24.7485755 57.2618371 26.84 56.57 28.4531944 56.0531205 29.5482562 54.5539768 29.55 52.86L29.55 29.23C29.5320416 25.8976019 28.9295757 22.5941933 27.77 19.47L27.75 19.47zM20.31 55.68C18.1364084 55.697905 15.9745266 55.360111 13.91 54.68 13.6747685 54.5944955 13.4576765 54.4655971 13.27 54.3 12.8374554 53.9463731 12.5846034 53.418682 12.58 52.86L12.58 30.34C12.6340504 29.6929588 12.9347973 29.091465 13.42 28.66 13.6136132 28.5042736 13.8692091 28.4487093 14.11 28.51 14.4392039 28.5918861 14.7250977 28.7955854 14.91 29.08 15.44 29.8 15.23 30.61 14.84 31.85L14.7 32.3C14.357536 33.2605832 14.2345263 34.2856642 14.34 35.3 14.4480271 36.18615 14.878803 37.0014201 15.55 37.59 16.2633975 38.1934915 17.2172599 38.4301085 18.13 38.23 19.2452778 37.9815585 20.1913877 37.24814 20.71 36.23 21.41 34.85 21.33 33.07 20.48 30.95 20.1279056 30.2105553 19.9273024 29.4081427 19.89 28.59 19.903239 28.098386 20.1432249 27.6405668 20.54 27.35 20.8433372 27.1672613 21.2169891 27.1448421 21.54 27.29 22.506539 27.6788598 23.5897821 27.6571949 24.54 27.23 25.3254369 26.8673879 25.9236233 26.1930687 26.19 25.37 26.88 23.3 25.36 21.91 24.35 20.99L24.04 20.69C23.710784 20.4672376 23.5243053 20.0866687 23.55 19.69 23.5274372 18.7926619 24.1296162 17.9994467 25 17.78L25.91 20.17C26.4697348 21.6711055 26.8882145 23.2211544 27.16 24.8 27.4242745 26.2619053 27.5581342 27.7444009 27.56 29.23L27.56 52.89C27.5516283 53.725948 27.0005925 54.4593118 26.2 54.7L25.82 54.81C24.0346758 55.3632398 22.1789282 55.6562526 20.31 55.68zM16.31 6.12C16.31 5.88251756 16.5025176 5.69 16.74 5.69L23.25 5.69C23.4874824 5.69 23.68 5.88251756 23.68 6.12L23.68 7.12 16.3 7.12 16.31 6.12zM17.22 12.25C17.268137 12.1396951 17.2920092 12.0203342 17.29 11.9L17.29 9.16 22.83 9.16 22.83 11.9C22.832155 12.0199205 22.855866 12.1384753 22.9 12.25L24.28 15.91C24.0520429 15.9791689 23.8310754 16.0695647 23.62 16.18 22.2539025 16.9431888 21.4689315 18.4424834 21.62 20 21.6720081 20.83557 22.0707985 21.6113986 22.72 22.14L23.05 22.45C24.12 23.45 24.59 23.97 24.34 24.74 24.2469286 25.0399482 24.0279025 25.2845274 23.74 25.41 23.2917798 25.5955624 22.7882202 25.5955624 22.34 25.41 21.4115891 25.0173364 20.3493494 25.1071031 19.5 25.65 18.5562157 26.2839328 17.9755322 27.3336299 17.94 28.47 17.9509802 29.5723703 18.1964154 30.6597849 18.66 31.66 19.29 33.24 19.39 34.47 18.97 35.31 18.7361331 35.8032825 18.2973687 36.1689196 17.77 36.31 17.4520745 36.3884473 17.1158841 36.3062675 16.87 36.09 16.5855369 35.8286447 16.4045267 35.4737228 16.36 35.09 16.2984804 34.3632015 16.401004 33.6318664 16.66 32.95L16.79 32.52C17.2 31.2 17.71 29.52 16.58 27.98 16.103899 27.2954995 15.3915923 26.811131 14.58 26.62 13.9657278 26.4893624 13.3254516 26.5667584 12.76 26.84 12.9708333 24.5811991 13.4854758 22.3611725 14.29 20.24L17.22 12.25zM50.38 45.83L50.38 39.09C50.3847226 39.0736679 50.3847226 39.0563321 50.38 39.04 50.3 36.64 44.16 36.38 41.5 36.38 38.84 36.38 32.65 36.64 32.61 39.07L32.61 53.45C32.61 55.79 34.24 57.69 36.24 57.69L46.75 57.69C47.4795772 57.6773544 48.1838189 57.4203062 48.75 56.96 49.7902712 56.0948938 50.3793196 54.802669 50.35 53.45L50.35 45.84 50.38 45.83zM46.75 55.69L36.23 55.69C35.35 55.69 34.6 54.69 34.6 53.45L34.6 46.58C34.9010697 46.298489 35.2817638 46.1168735 35.69 46.06 36.1333447 46.0253519 36.5741366 46.1533237 36.93 46.42 37.0535405 46.5161766 37.1614803 46.6308626 37.25 46.76 37.4858894 47.0894482 37.7466512 47.4003565 38.03 47.69 38.6430688 48.4570394 39.4464092 49.0500631 40.36 49.41 40.9525036 49.5946686 41.5822353 49.625639 42.19 49.5 43.37413 49.1638646 44.3638877 48.3481302 44.92 47.25 45.4 46.53 45.82 45.9 46.5 45.7 46.8858215 45.5755839 47.3047044 45.6042254 47.67 45.78 47.9249157 45.9151685 48.1631927 46.0796132 48.38 46.27L48.38 53.45C48.3963472 54.1380141 48.1371355 54.804044 47.66 55.3 47.4164392 55.5397143 47.0915592 55.6789486 46.75 55.69zM45.94 43.78C44.7883089 44.2075032 43.8343077 45.0440341 43.26 46.13 42.72 46.93 42.36 47.43 41.78 47.55 41.5108114 47.6173172 41.2291886 47.6173172 40.96 47.55 40.376587 47.2806353 39.8683396 46.871977 39.48 46.36 39.2547081 46.1232546 39.0443048 45.8727745 38.85 45.61 38.6425083 45.3118067 38.3854556 45.0513717 38.09 44.84 37.3369395 44.2903711 36.4077139 44.0375932 35.48 44.13 35.1786614 44.1607215 34.8827395 44.2313392 34.6 44.34L34.6 41C36.8468482 41.5942445 39.1665953 41.8669579 41.49 41.81 43.8136176 41.8716088 46.1340233 41.598818 48.38 41L48.38 44C47.6185404 43.639453 46.7536712 43.561473 45.94 43.78zM41.49 38.38C43.5997575 38.3190939 45.7074723 38.5581478 47.75 39.09 45.7067206 39.6170248 43.5992217 39.8526876 41.49 39.79 39.3808385 39.8512209 37.2735447 39.615581 35.23 39.09 37.2727986 38.559606 39.3803051 38.3205757 41.49 38.38L41.49 38.38z"/>
      <path id="Path" fill="#3D454C" fill-rule="nonzero" d="M24.78 30.78C24.2277153 30.78 23.78 31.2277153 23.78 31.78 23.78 32.3322847 24.2277153 32.78 24.78 32.78 25.3322847 32.78 25.78 32.3322847 25.78 31.78 25.78 31.2277153 25.3322847 30.78 24.78 30.78zM23.58 36.78L23.58 37C23.58 37.5522847 24.0277153 38 24.58 38 25.1322847 38 25.58 37.5522847 25.58 37L25.58 36.8C25.5855228 36.2477153 25.1422847 35.7955229 24.59 35.79 24.0377153 35.7844772 23.5855229 36.2277153 23.58 36.78z"/>
    </g>
  </g>
</svg>
