<svg xmlns="http://www.w3.org/2000/svg" width="64" height="64" viewBox="0 0 64 64" style="background:#fff">
  <g id="Molkepulver" fill="none" fill-rule="evenodd" stroke="none" stroke-width="1">
    <rect width="64" height="64" fill="#FFF"/>
    <g transform="translate(2 4)">
      <rect id="Rectangle" width="60" height="60" x="0" y="0"/>
      <path id="Path" fill="#CCC" fill-rule="nonzero" d="M35.59,25 C27.59,26.94 19.45,26.95 11.3,27.2 C8.96,27.27 7.75,29.31 7.48,31.7 C5.31,36.02 5.93,42.7 9.58,45.17 C15.43,49 22.83,51.73 29.9,50.18 C37.35,48.55 41.42,42.68 42.9,35.51 C43.86,30.85 41.36,23.55 35.59,25 Z" opacity=".5"/>
      <path id="Shape" fill="#3D454C" fill-rule="nonzero" d="M40.81 21.14C40.11 20.47 38.53 20.02 35.72 19.64 31.927287 19.1860896 28.1096781 18.9723302 24.29 19 20.4703219 18.9723302 16.652713 19.1860896 12.86 19.64 10.05 20.02 8.47 20.47 7.77 21.14 7.49641088 21.3200217 7.32831095 21.6226016 7.32 21.95L7.32 54.37C7.32 58.37 22.55 58.48 24.32 58.48 26.09 58.48 41.32 58.36 41.32 54.37L41.32 22C41.3157988 21.642821 41.1213964 21.3150051 40.81 21.14zM39.26 49.48C38.6 50.26 33.56 51.7 24.26 51.7 14.96 51.7 10 50.26 9.32 49.48L9.32 28.41C10.4794946 28.7393835 11.6631662 28.9767865 12.86 29.12 16.652713 29.5739104 20.4703219 29.7876698 24.29 29.76 28.1096781 29.7876698 31.927287 29.5739104 35.72 29.12 36.9168338 28.9767865 38.1005054 28.7393835 39.26 28.41L39.26 49.48zM39.26 26.27C38.2 26.84 33.18 27.76 24.26 27.76 15.34 27.76 10.35 26.84 9.26 26.27L9.26 24C10.4185408 24.3311213 11.6026262 24.5652625 12.8 24.7 16.592713 25.1539104 20.4103219 25.3676698 24.23 25.34 28.0463618 25.3680228 31.8606664 25.1542614 35.65 24.7 36.8507857 24.5660874 38.0382614 24.3319373 39.2 24L39.26 26.27zM24.29 21C31.22 21 36.23 21.59 38.36 22.16 36.23 22.73 31.22 23.31 24.29 23.31 17.36 23.31 12.35 22.73 10.22 22.16 12.35 21.59 17.36 21 24.29 21zM24.29 56.48C15 56.48 10 55 9.32 54.26L9.32 51.74C13.51 53.62 22.94 53.74 24.32 53.74 25.7 53.74 35.1 53.66 39.32 51.74L39.32 54.26C38.6 55 33.55 56.48 24.29 56.48zM55.21 5.64C54.788079 4.89485607 53.9856821 4.44736548 53.13 4.48L36.38 5.89C34.6317931 5.2174342 32.7730815 4.87825325 30.9 4.89 28.5 4.89 25.54 5.27 24.38 6.47 24.0291477 6.81755689 23.8404608 7.29653129 23.86 7.79 23.8704295 7.96137464 23.9075428 8.13007147 23.97 8.29L24.37 10.18C25.25 14.44 27.78 17.12 30.96 17.18L31 17.18C34.18 17.18 37 14.55 37.7 11.06L53.49 9.72C54.2458398 9.7094951 54.935853 9.28782034 55.29 8.62 55.793674 7.68276441 55.7632336 6.54886223 55.21 5.64L55.21 5.64zM30.87 6.89C32.6257917 6.80685178 34.3756187 7.14995511 35.97 7.89 34.4369553 8.5534459 32.7657738 8.8348358 31.1 8.71 29.3469053 8.80044457 27.5985749 8.4569612 26.01 7.71 27.5446334 7.06397248 29.2083568 6.78326194 30.87 6.89L30.87 6.89zM31 15.16L31 15.16C28.88 15.16 27.15 13.16 26.42 10.05 27.9410857 10.4918235 29.5160736 10.7206679 31.1 10.73L31.34 10.73C32.8688526 10.7565426 34.3928774 10.5508667 35.86 10.12L35.86 10.17C35.46 13.3 33.1 15.16 31 15.16zM53.61 7.47C53.61 7.64 53.49 7.72 53.41 7.73L38 9 38.1 8.19C38.104397 8.12674298 38.104397 8.06325702 38.1 8L38.1 8C38.1 8 38.1 7.88 38.1 7.83 38.0955243 7.80352114 38.0955243 7.77647886 38.1 7.75L53.29 6.48C53.29 6.48 53.4 6.48 53.49 6.68 53.6380432 6.91521605 53.6815191 7.20143273 53.61 7.47z"/>
      <path id="Path" fill="#3D454C" fill-rule="nonzero" d="M17.33 37.72C16.7777153 37.72 16.33 38.1677153 16.33 38.72 16.33 39.2722847 16.7777153 39.72 17.33 39.72 17.8822847 39.72 18.33 39.2722847 18.33 38.72 18.33 38.1677153 17.8822847 37.72 17.33 37.72zM25.23 34.89C24.6777153 34.89 24.23 35.3377153 24.23 35.89 24.23 36.4422847 24.6777153 36.89 25.23 36.89 25.7822847 36.89 26.23 36.4422847 26.23 35.89 26.23 35.3377153 25.7822847 34.89 25.23 34.89zM33.14 38C32.5877153 38 32.14 38.4477153 32.14 39 32.14 39.5522847 32.5877153 40 33.14 40 33.6922847 40 34.14 39.5522847 34.14 39 34.14 38.4477153 33.6922847 38 33.14 38zM29.75 43.37C29.1977153 43.37 28.75 43.8177153 28.75 44.37 28.75 44.9222847 29.1977153 45.37 29.75 45.37 30.3022847 45.37 30.75 44.9222847 30.75 44.37 30.75 43.8177153 30.3022847 43.37 29.75 43.37zM21.56 42.8C21.0077153 42.8 20.56 43.2477153 20.56 43.8 20.56 44.3522847 21.0077153 44.8 21.56 44.8 22.1122847 44.8 22.56 44.3522847 22.56 43.8 22.56 43.2477153 22.1122847 42.8 21.56 42.8z"/>
    </g>
  </g>
</svg>
