<svg xmlns="http://www.w3.org/2000/svg" width="64" height="64" viewBox="0 0 64 64" style="background:#fff">
  <g id="Mozzarella-(aus-Kuhmilch)" fill="none" fill-rule="evenodd" stroke="none" stroke-width="1">
    <rect width="64" height="64" fill="#FFF"/>
    <g id="28-Mozzarella" transform="translate(2 7)">
      <g id="Layer_2">
        <rect id="Rectangle" width="60" height="60" x="0" y="0"/>
      </g>
      <g id="Layer_1" transform="translate(7 9)">
        <path id="Path" fill="#B3B3B3" fill-opacity=".5" d="M30.58 5.53C34.4115734 6.6958098 37.6392462 9.30663849 39.58 12.81 41.12 15.81 41.17 19.48 39.16 23.37L37.21 26C36.1305919 27.1943556 34.8120537 28.1483367 33.34 28.8 31.7569072 29.5092061 30.0674667 29.9518396 28.34 30.11 27.5790243 30.1492992 26.8968196 30.5915889 26.5503658 31.2702628 26.2039121 31.9489367 26.2458438 32.7608881 26.6603658 33.4002628 27.0748878 34.0396375 27.7990243 34.4092993 28.56 34.37 30.8077719 34.3657673 33.0388475 33.9837801 35.16 33.24 37.3677247 32.4653518 39.3880397 31.2354467 41.09 29.63L44.19 25.73C46.79 20.01 46.36 14.73 43.87 10.55 41.1069972 6.18874714 36.7453328 3.08352926 31.72 1.9 30.7044325 1.61312387 29.6407234 2.16467676 29.29 3.16 29.1388122 3.64539336 29.1906542 4.17132483 29.4337036 4.61785751 29.6767531 5.0643902 30.0902869 5.39345146 30.58 5.53L30.58 5.53zM1.8 24.92C1.02810928 26.2620583.480887799 27.7213156.18 29.24-.456582307 33.4205679 1.07239936 37.6384484 4.24 40.44 6.79522452 42.9137631 10.2694035 44.2047941 13.82 44 15.8288222 43.8405346 17.7963902 43.3435716 19.64 42.53 21.2256613 42.207449 22.2698002 40.6854839 22 39.09 21.8705341 38.3265864 21.4421518 37.6462501 20.8096664 37.199569 20.177181 36.7528879 19.3927534 36.5766998 18.63 36.71 17.1830333 36.5773801 15.7507258 36.3163521 14.35 35.93 12.7526937 35.7225591 11.2456044 35.0712194 10 34.05 8.52 32.73 8 30.72 7.34 27.88 7.13 27 6.62 26.48 6.34 25.52 6.51212271 24.2695562 5.63995804 23.1156153 4.39 22.94 3.78826335 22.8640475 3.18125098 23.0331453 2.70545162 23.4092713 2.22965226 23.7853973 1.92500112 24.3369821 1.86 24.94L1.8 24.92z"/>
        <path id="Path" fill="#3C454E" d="M8,22.88 C7.9,18.79 8.32,15.14 10.63,11.67 C12.4200588,8.78076412 14.9695084,6.43886812 18,4.9 C20.788997,3.5823346 23.8354019,2.89928418 26.92,2.9 C34.1176967,3.0875519 40.3738493,7.89376343 42.41,14.8 C43.25,17.62 43.91,22.12 43.13,25.01 C42.2603208,27.7720898 40.3235437,30.0724627 37.75,31.4 C33.6432016,33.7352592 28.7976716,34.4080507 24.21,33.28 C23.7034446,33.2324246 23.2345356,33.5514682 23.0928266,34.0401197 C22.9511177,34.5287713 23.1765844,35.0491839 23.63,35.28 C28.761522,36.5642492 34.190042,35.8342439 38.8,33.24 C41.8663815,31.6388855 44.1640268,28.8766693 45.18,25.57 C46.05,22.34 45.38,17.34 44.45,14.2 C42.1568243,6.41584649 35.1118189,0.993816567 27,0.77 C23.5852514,0.771430454 20.2136664,1.53319687 17.13,3 C13.729866,4.69591961 10.8644363,7.29833884 8.85,10.52 C6.27,14.38 5.74,18.42 5.85,22.96 C5.8720914,23.5537061 6.3712939,24.0170914 6.965,23.995 C7.5587061,23.9729086 8.02209138,23.4737061 8,22.88 Z"/>
        <path id="Path" fill="#3C454E" d="M20.14,13.46 C28.48,16.61 30.69,28.31 23.66,33.46 C23.2156213,33.8141613 23.1295653,34.4557364 23.4649067,34.9144834 C23.8002481,35.3732304 24.4376812,35.4859392 24.91,35.17 C33.23,29.1 30.77,15.22 20.91,11.49 C20.5527344,11.3560254 20.1511328,11.4228267 19.8564746,11.6652405 C19.5618164,11.9076543 19.4188672,12.2888521 19.4814746,12.6652405 C19.544082,13.0416288 19.8027344,13.3560254 20.16,13.49 L20.14,13.46 Z"/>
        <path id="Shape" fill="#3C454E" d="M4.66,22.37 C3.71,22.68 3.13,23.59 3.39,25.11 C3.73,27.17 5.86,30.86 9.57,34.7 C14.94,40.25 19.49,40.36 21.28,40.33 C23.28,40.33 24.36,39.7 24.9,38.91 C25.5283533,37.8693235 25.5662891,36.57571 25,35.5 C24.15,33.43 21.86,30.7 19.12,28.03 C12.54,21.61 8.43,21.15 4.7,22.37 L4.66,22.37 Z M5.46,24.37 C5.46,24.45 5.46,24.58 5.46,24.67 C5.50710832,24.9660079 5.58073813,25.2571803 5.68,25.54 C6.96348627,28.4406176 8.80512777,31.0603696 11.1,33.25 C15.77,38.08 19.69,38.25 21.24,38.25 C21.7334764,38.243476 22.2228306,38.1591046 22.69,38 C22.8719411,37.9465833 23.034945,37.8425383 23.16,37.7 C23.2597776,37.5312944 23.2885489,37.3298951 23.24,37.14 C23.1966076,36.8540357 23.1159203,36.5749924 23,36.31 C22.22,34.43 20.09,31.98 17.6,29.55 C12.03,24.11 8.6,23.36 5.46,24.34 L5.46,24.37 Z"/>
        <path id="Path" fill="#3C454E" d="M3.69,23.37 C0.59,28.56 -1.46,36.37 3.06,41.52 C5.28410414,44.033267 8.56615426,45.346087 11.91,45.06 C16.6886877,44.6341446 21.1725934,42.5670959 24.6,39.21 C25.0157265,38.7925087 25.0157265,38.1174913 24.6,37.7 C24.4011736,37.5009257 24.1313583,37.3890661 23.85,37.3890661 C23.5686417,37.3890661 23.2988264,37.5009257 23.1,37.7 C20.5589739,40.1911349 17.3725576,41.9228829 13.9,42.7 C10.53,43.39 7.08,42.91 4.66,40.15 C2.92553725,38.0173283 2.19646769,35.2395733 2.66,32.53 C3.07333612,29.6940599 4.0600654,26.9720481 5.56,24.53 C5.85823375,24.0246595 5.69034053,23.3732338 5.18499999,23.075 C4.67965945,22.7767663 4.02823377,22.9446595 3.73,23.45 L3.69,23.37 Z"/>
        <circle id="Oval" cx="16.79" cy="10.96" r="1" fill="#3C454E" fill-rule="nonzero"/>
      </g>
    </g>
  </g>
</svg>
