<svg xmlns="http://www.w3.org/2000/svg" width="64" height="64" viewBox="0 0 64 64" style="background:#fff">
  <g id="Mu-Err-Pilze" fill="none" fill-rule="evenodd" stroke="none" stroke-width="1">
    <rect width="64" height="64" fill="#FFF"/>
    <g transform="translate(2 4)">
      <rect id="Rectangle" width="60" height="60" x="0" y="0"/>
      <path id="Path" fill="#C17953" fill-rule="nonzero" d="M37,29.32 C36.55,27.17 35.1,23.42 32.55,22.88 C28.4,22 24.23,22.22 20,22.23 C18.3971992,22.2250814 16.8827589,22.9638328 15.9,24.23 C14.7312039,25.3614508 14.0496027,26.9040219 14,28.53 C13.7897599,29.4997313 13.6758731,30.487867 13.66,31.48 C12.155889,33.8662454 11.4388446,36.6644676 11.61,39.48 C11.83,44.91 15,48.81 20.32,49.54 C24.26,50.08 29.07,50.82 32.2,47.75 C33.8359705,45.9686521 34.96809,43.7837995 35.48,41.42 C35.8110487,40.1873557 36.0154409,38.9241453 36.09,37.65 C37.3044424,35.0498856 37.6244051,32.1209969 37,29.32 L37,29.32 Z" opacity=".5"/>
      <path id="Shape" fill="#3D454C" fill-rule="nonzero" d="M34.85,33.2 C35.62,31.71 36.79,29.45 35.71,27.78 C35.2725986,27.0721774 34.6897142,26.4654322 34,26 C33.3636854,25.7155026 32.6363146,25.7155026 32,26 C31.6813762,26.1307982 31.3846162,26.3095287 31.12,26.53 C30.7770408,26.2952212 30.39901,26.1163317 30,26 C29.246782,25.7764017 28.4336707,25.8894351 27.77,26.31 C27.3853657,26.5461711 26.9412899,26.6675981 26.49,26.66 C26.0383567,26.6704463 25.5934893,26.5488029 25.21,26.31 C24.5506922,25.8977628 23.7472819,25.7850672 23,26 C22.598374,26.1081706 22.2168125,26.2803798 21.87,26.51 C21.605747,26.2994655 21.3127918,26.1277332 21,26 C20.362629,25.720497 19.637371,25.720497 19,26 C18.3079059,26.4616766 17.7216604,27.0649641 17.28,27.77 C16.2,29.44 17.37,31.7 18.14,33.2 L18.14,33.3 C18.3371048,33.650178 18.5611118,33.9845169 18.81,34.3 C17.98,34.97 16.63,36.91 18.36,42.01 C18.6668259,43.0613692 19.6153042,43.7959353 20.71,43.83 L21.02,43.83 C21.23577,43.802721 21.4473613,43.7489836 21.65,43.67 C21.8705413,43.9866279 22.1528736,44.2553538 22.48,44.46 C22.8238198,44.6683731 23.2179672,44.779011 23.62,44.78 C23.8324033,44.7780241 24.0438441,44.7511744 24.25,44.7 C24.5642321,44.6096242 24.8689847,44.4890628 25.16,44.34 C25.9560138,43.9404695 26.8939862,43.9404695 27.69,44.34 C27.9837836,44.490625 28.2920101,44.6112354 28.61,44.7 C28.812872,44.7505825 29.0209329,44.7774291 29.23,44.78 C29.6320328,44.779011 30.0261802,44.6683731 30.37,44.46 C30.704849,44.257597 30.9915133,43.9845834 31.21,43.66 C31.4106705,43.7468447 31.6228819,43.8041082 31.84,43.83 L32.15,43.83 C33.2424773,43.7897905 34.1877795,43.0576841 34.5,42.01 C36.22,36.92 34.88,35.01 34.04,34.3 C34.3000358,33.9692204 34.5277452,33.6142617 34.72,33.24 L34.85,33.2 Z M33.07,32.29 L33.07,32.39 C32.6268884,33.2375818 31.9810513,33.9624308 31.19,34.5 C30.8307084,34.7507595 30.6764967,35.2062062 30.8095331,35.6236653 C30.9425695,36.0411243 31.3318682,36.3233644 31.77,36.32 C31.9773181,36.3215747 32.1800003,36.2586733 32.35,36.14 L32.68,35.88 L32.68,35.88 C32.68,35.88 32.76,35.88 32.84,35.88 C33.32,36.21 33.91,37.79 32.68,41.42 C32.6311874,41.6842025 32.3986366,41.8744713 32.13,41.87 C31.9674908,41.8343106 31.8350542,41.7170096 31.78,41.56 C31.5628368,41.0376053 31.4572463,40.4755912 31.47,39.91 C31.4731142,39.8348089 31.4973766,39.7620214 31.54,39.7 C31.837808,39.4355746 31.9503213,39.0196432 31.8264303,38.6411443 C31.7025393,38.2626454 31.3658648,37.993743 30.9693426,37.9565872 C30.5728204,37.9194314 30.1920508,38.1211062 30,38.47 C29.6672679,38.894563 29.4907224,39.4206686 29.5,39.96 C29.5043502,40.7175266 29.6396777,41.4685945 29.9,42.18 C29.77,42.47 29.54,42.88 29.22,42.8 C29.0198752,42.7417105 28.8256846,42.6647039 28.64,42.57 C27.9909022,42.2365784 27.2696305,42.0682816 26.54,42.08 C25.8072172,42.0686856 25.0828037,42.2369144 24.43,42.57 C24.2451864,42.6666176 24.050802,42.7437011 23.85,42.8 C23.53,42.88 23.3,42.47 23.18,42.18 C23.4266747,41.4800064 23.5485248,40.7421367 23.54,40 C23.5492776,39.4606686 23.3727321,38.934563 23.04,38.51 C22.8184953,38.2295465 22.4641964,38.0885681 22.1105642,38.14017 C21.756932,38.1917719 21.4576917,38.4281146 21.3255642,38.76017 C21.1934367,39.0922255 21.2484953,39.4695465 21.47,39.75 C21.5168151,39.809853 21.5415403,39.8840285 21.54,39.96 C21.5595681,40.5251559 21.4572507,41.0879021 21.24,41.61 C21.1652846,41.7910046 20.9952194,41.9146884 20.8,41.93 C20.5715995,41.8730788 20.3918193,41.6971238 20.33,41.47 C19.11,37.84 19.69,36.26 20.18,35.93 C20.26,35.87 20.32,35.93 20.33,35.93 L20.4,35.93 C20.5021261,36.0221102 20.6089346,36.1088921 20.72,36.19 C20.8872045,36.3067107 21.086092,36.3695172 21.29,36.37 C21.7281318,36.3733644 22.1174305,36.0911243 22.2504669,35.6736653 C22.3835033,35.2562062 22.2292916,34.8007595 21.87,34.55 C21.078009,33.995305 20.4355833,33.2532518 20,32.39 L19.95,32.29 C19.49,31.41 18.54,29.56 18.95,28.87 C19.2030963,28.5033053 19.4984602,28.1676644 19.83,27.87 C19.9522411,27.8469366 20.078671,27.8644964 20.19,27.92 C20.2875221,27.9504514 20.3789184,27.997842 20.46,28.06 C19.8713,29.3126547 19.7784136,30.7416767 20.2,32.06 C20.3431502,32.4559474 20.7189699,32.7198209 21.14,32.72 C21.2559548,32.7198636 21.3710025,32.6995611 21.48,32.66 C21.997658,32.4760856 22.2700268,31.9090228 22.09,31.39 C21.8402359,30.5890223 21.8936213,29.7241788 22.24,28.96 C22.485809,28.4602509 22.939519,28.0943557 23.48,27.96 C23.79,27.88 23.87,27.96 24.26,28.12 C24.930304,28.5104952 25.6943243,28.7110073 26.47,28.7 C27.2427289,28.7127578 28.0039959,28.5120601 28.67,28.12 C29.06,27.92 29.14,27.88 29.46,27.96 C29.9992453,28.096835 30.4520299,28.4619838 30.7,28.96 C31.0365828,29.7265827 31.089747,30.5878414 30.85,31.39 C30.6689937,31.9061842 30.9363158,32.472016 31.45,32.66 C31.5592928,32.6984466 31.6741493,32.7187154 31.79,32.72 C32.2110301,32.7198209 32.5868498,32.4559474 32.73,32.06 C33.1659881,30.7443657 33.0764096,29.3111094 32.48,28.06 C32.563405,28.0015856 32.6541988,27.9545073 32.75,27.92 C32.8493691,27.8709399 32.9592229,27.8469094 33.07,27.85 C33.4225886,28.1485765 33.7351702,28.491408 34,28.87 C34.48,29.56 33.53,31.4 33.07,32.29 L33.07,32.29 Z"/>
      <path id="Shape" fill="#3D454C" fill-rule="nonzero" d="M47.75,38.7 C45.9066774,37.0233829 44.630994,34.8145284 44.1,32.38 C44.01,31.8 43.92,31.18 43.82,30.52 C43.41,27.81 42.88,24.34 42.01,20.65 C43.3412937,21.5241232 44.077135,23.0651521 43.92,24.65 C43.92,25.2022847 44.3677153,25.65 44.92,25.65 C45.4722847,25.65 45.92,25.2022847 45.92,24.65 C46.0601012,22.1829986 44.7784815,19.8527809 42.62,18.65 L42.28,18.42 C42.0730221,18.3075889 41.9319191,18.1033608 41.9,17.87 C43.28,17.13 44,16.26 44,15.26 C44.0389308,14.6071249 43.8074732,13.9670002 43.36,13.49 C43.4009508,12.0518374 43.2084533,10.6165484 42.79,9.24 C42.33,7.89 40.16,6.91 36.21,6.24 C35.94,5.84 35.68,5.43 35.39,5.04 C34.6671387,4.05200263 33.3240664,3.75259161 32.25,4.34 L32.25,4.34 C31.6774818,4.61556626 31.2307774,5.09800704 31,5.69 C29.74,5.62 28.44,5.57 27.11,5.57 C25.59,5.57 12.9,5.68 11.49,9.14 L11.49,9.14 C11.0423787,10.5344539 10.8426894,11.9965855 10.9,13.46 C10.4483312,13.9344159 10.2161911,14.5764283 10.26,15.23 C10.26,16.31 11.09,17.17 12.4,17.85 C12.3600446,18.082953 12.2166158,18.2852243 12.01,18.4 L11.68,18.62 C9.51796503,19.8192436 8.23500852,22.1518918 8.38,24.62 L8.38,44.18 C8.38,46.03 9.28,55.26 27.16,55.26 C30.791672,55.3477722 34.4122235,54.8237895 37.87,53.71 C38.35,53.54 38.79,53.36 39.21,53.17 C39.4535441,53.0609246 39.6433899,52.8590322 39.7372945,52.609246 C39.831199,52.3594599 39.821372,52.0825025 39.71,51.84 C39.4790349,51.3420902 38.8899117,51.1234005 38.39,51.35 C38.02,51.51 37.62,51.67 37.2,51.82 C33.9710455,52.8575608 30.5905108,53.3443578 27.2,53.26 C11.2,53.26 10.42,45.7 10.42,44.18 L10.42,24.6 C10.2885295,22.805157 11.2462359,21.1065089 12.85,20.29 L13.21,20.04 C13.7231748,19.7008664 14.1098918,19.20165 14.31,18.62 C18.4998654,19.7401779 22.8232869,20.2818673 27.16,20.23 C30.3366797,20.2464286 33.508727,19.9854374 36.64,19.45 C37.6732913,23.8248617 37.9204717,28.3486003 37.37,32.81 C36.24,42.64 38.51,50.31 43.75,54.4 C45.0283918,55.3736408 46.5744954,55.9320529 48.18,56.0004518 C49.5700365,56.0201011 50.8844225,55.3684933 51.71,54.25 C54.23,51.07 53.42,44.19 47.75,38.7 Z M40.89,9.78 C40.8924416,9.94075019 40.9336047,10.0985421 41.01,10.24 C41.2749435,11.4446322 41.3924721,12.6770039 41.36,13.91 C41.3628816,14.1988137 41.4904973,14.4722761 41.71,14.66 C42,14.91 42,14.91 42,15.24 C42,15.33 41.75,15.71 40.77,16.18 C39.9548806,13.5366559 38.8865968,10.978133 37.58,8.54 C40,9.08 40.79,9.65 40.89,9.78 Z M27.14,18.23 C20.47,18.23 15.92,17.23 13.75,16.3 C13.6816143,16.2567082 13.6075831,16.2230576 13.53,16.2 C12.71,15.83 12.28,15.49 12.28,15.2 C12.28,14.91 12.28,14.87 12.57,14.62 C12.7857843,14.4304302 12.9096363,14.1572272 12.91,13.87 C12.9075886,13.2020258 12.9409698,12.5344021 13.01,11.87 C16.76,13.92 25.86,14 27.14,14 C27.6922847,14 28.14,13.5522847 28.14,13 C28.14,12.4477153 27.6922847,12 27.14,12 C19.14,12 14.19,10.62 13.44,9.78 C14.19,8.94 19.11,7.57 27.14,7.57 C28.53,7.57 29.88,7.57 31.19,7.7 C31.2373853,7.79339453 31.2908329,7.88358732 31.35,7.97 C33.4660265,10.8557062 35.0725523,14.0822865 36.1,17.51 C33.1397146,18.0081763 30.1418503,18.2490761 27.14,18.23 L27.14,18.23 Z M50.14,53.06 C48.35,55.35 45.14,52.92 44.96,52.82 C40.29,49.18 38.29,42.15 39.34,33 C40.88,19.7 36,10.86 33,6.78 C32.9256922,6.67573779 32.9017103,6.54378569 32.9345791,6.42004444 C32.9674478,6.29630318 33.0537482,6.19364481 33.17,6.14 L33.25,6.14 C33.293553,6.07936743 33.3521412,6.03111833 33.42,5.99997135 C33.562018,5.99838144 33.696084,6.06541446 33.78,6.18 C39.27,13.71 40.78,23.98 41.84,30.77 C41.94,31.44 42.04,32.07 42.13,32.65 C42.723709,35.5126736 44.2036814,38.1157456 46.36,40.09 C51.44,45.06 51.82,50.9 50.14,53.06 Z"/>
      <path id="Path" fill="#3D454C" fill-rule="nonzero" d="M43.91 46.36C43.138541 45.0533866 42.6258762 43.6104558 42.4 42.11 42.31 41.21 42.49 40.7 42.7 40.58 43.0126074 40.4013672 43.2061691 40.0695296 43.2077723 39.7094873 43.2093754 39.3494449 43.0187765 39.0158968 42.7077722 38.8344873 42.396768 38.6530777 42.0126074 38.6513672 41.7 38.83 41.11 39.15 40.15 40.03 40.37 42.3 40.6223677 44.0632236 41.2132066 45.7610366 42.11 47.3 43.93 50.63 46.11 52.53 47.88 52.53 48.2812987 52.5289748 48.6762021 52.4293905 49.03 52.24 49.9748118 51.6596915 50.5094305 50.5943282 50.41 49.49 50.41 48.9377153 49.9622847 48.49 49.41 48.49L49.41 48.49C48.8577153 48.49 48.41 48.9377153 48.41 49.49 48.41 50.02 48.28 50.4 48.07 50.49 47.68 50.74 45.84 49.9 43.91 46.36zM31.08 14C31.6322847 14 32.08 13.5522847 32.08 13 32.08 12.4477153 31.6322847 12 31.08 12 30.5277153 12 30.08 12.4477153 30.08 13 30.08 13.5522847 30.5277153 14 31.08 14z"/>
    </g>
  </g>
</svg>
