<svg xmlns="http://www.w3.org/2000/svg" width="64" height="64" viewBox="0 0 64 64" style="background:#fff">
  <g id="Mungobohne" fill="none" fill-rule="evenodd" stroke="none" stroke-width="1">
    <rect width="64" height="64" fill="#FFF"/>
    <g transform="translate(2 6)">
      <rect id="Rectangle" width="60" height="60" x="0" y="0"/>
      <g id="Group" fill="#BAB41D" fill-rule="nonzero" opacity=".5" transform="translate(4 3)">
        <path id="Path" d="M13.56 13.65C14.3743288 13.950623 15.2507722 14.0434229 16.11 13.92 16.7090625 13.8887077 17.2995385 13.7638642 17.86 13.55 18.4666363 13.2458419 19.0258201 12.855087 19.52 12.39L20.33 11.39C20.7258856 10.7825803 20.9977656 10.1028802 21.13 9.39 21.7625073 7.08324094 21.3998254 4.61700425 20.13 2.59 19.59 1.76 18.29.67 17.18.83 16.5831833.864362923 15.9941242.98217473 15.43 1.18 14.8208274 1.48405051 14.261161 1.87851421 13.77 2.35 12.9791562 2.99139001 12.3028894 3.76233417 11.77 4.63 10.90713 6.24690356 10.6348438 8.11400928 11 9.91 11.2294214 11.4853287 12.1744852 12.866008 13.56 13.65L13.56 13.65zM38.59 3.24C37.5750106 2.35544237 36.1693242 2.07050592 34.89 2.49 34.0528897 2.88232022 33.2752435 3.39065177 32.58 4 31.0183857 4.98053848 29.8396608 6.4662965 29.24 8.21 28.62 10.5 28.62 13.56 30.63 15.21 32.17 16.5 33.99 16.14 35.74 15.52 36.4064639 15.3263925 37.045093 15.0474124 37.64 14.69 38.869858 13.8649706 39.7637757 12.6269655 40.16 11.2 40.6469769 9.74373961 40.7435218 8.18522934 40.44 6.68 40.2242713 5.35908995 39.573084 4.14823353 38.59 3.24zM50.61 25.72C49.9334772 23.9560552 48.6003003 22.5225316 46.89 21.72 46.5294819 21.5203467 46.136953 21.3849919 45.73 21.32 45.515485 21.2037722 45.2632826 21.1785519 45.03 21.25L44 21.51 43.69 21.6C42.69 21.89 41.81 23.39 41.52 24.28L41.17 25.65C41.0197949 26.6469085 41.0468777 27.6625135 41.25 28.65 41.4760871 30.2154878 42.0464387 31.7113802 42.92 33.03 43.09 33.3 43.27 33.56 43.45 33.82 43.7871901 34.2920601 44.1726 34.7277409 44.6 35.12L45.7 35.79 47.05 36.03C47.8955492 35.9889404 48.6949081 35.6320838 49.29 35.03 49.9929373 34.3333964 50.5207035 33.4800601 50.83 32.54 51.5417921 30.3088235 51.4641095 27.9006635 50.61 25.72L50.61 25.72zM35.55 38.73L34.55 38.12C34.0330513 37.8537181 33.4297093 37.8103642 32.88 38 32.5034119 38.0327412 32.1499108 38.1953517 31.88 38.46 31.3242105 38.7689626 30.8719825 39.2351052 30.58 39.8 29.9170511 40.8898224 29.5165106 42.1188314 29.41 43.39 29.0629122 45.3735971 29.2669937 47.4144123 30 49.29 30.3627052 50.2009146 30.9267837 51.0179738 31.65 51.68L32.73 52.33C33.2848046 52.5953289 33.9235219 52.6241975 34.5 52.41 34.9139507 52.3854456 35.3048753 52.2113065 35.6 51.92 36.0166145 51.7327473 36.3656805 51.4220786 36.6 51.03 37.4002815 49.9972879 37.9173055 48.7736644 38.1 47.48 38.427336 45.5040862 38.2023941 43.4761485 37.45 41.62 37.1016227 40.4968858 36.4429871 39.4950663 35.55 38.73zM19 38C17.9166043 37.9903452 16.8609237 38.3422387 16 39 14.4901513 39.8915736 13.324252 41.2652918 12.69 42.9 11.802236 45.3430359 12.3412943 48.0768314 14.09 50 15.069772 50.8074291 16.3418061 51.169832 17.6 51 18.2329188 50.9540857 18.8576933 50.8298026 19.46 50.63 20.1602972 50.3264349 20.8004409 49.8996724 21.35 49.37 23.09 47.73 23.58 44.63 23.03 42.37 22.53 40.31 21.38 38.16 19 38zM31.88 28.51C32.0673921 27.1705612 31.9650878 25.8065028 31.58 24.51 31.3157854 23.3905634 30.7156268 22.378668 29.86 21.61L28.86 21.02C28.1737445 20.7247394 27.3962555 20.7247394 26.71 21.02 26.0126217 21.2713577 25.3582433 21.6289047 24.77 22.08 21.8767291 23.6063716 20.3833833 26.8974919 21.14 30.08 21.3663434 31.6306244 22.306571 32.9854405 23.68 33.74 24.857776 34.1226044 26.1328882 34.0765587 27.28 33.61 27.62 33.5 27.95 33.37 28.28 33.25 28.9313711 32.9902662 29.5411788 32.6365103 30.09 32.2 31.0815315 31.2040765 31.7115999 29.9052203 31.88 28.51L31.88 28.51zM6.52 21.45C5 21.29 3.65 22.61 2.91 23.77 2.31041233 24.8806616 1.86625951 26.0684339 1.59 27.3.940473844 29.5796937.574381099 31.930748.5 34.3.41 35.79 2.05 40.03 4.37 38.57 8.59 36 11.85 31 10.52 25.86 10 23.73 8.89 21.7 6.52 21.45z"/>
      </g>
      <path id="Shape" fill="#3D454C" fill-rule="nonzero" d="M18.39 33.64C18.6888967 31.9052932 18.1471548 30.1316451 16.93 28.86 15.6608676 27.6385632 13.8850155 27.0961481 12.15 27.4 10.2480792 27.6764528 8.49053888 28.5727983 7.15 29.95 5.7727983 31.2905389 4.87645276 33.0480792 4.6 34.95 4.30114678 36.6816598 4.8430982 38.4522819 6.06 39.72 7.11458126 40.735184 8.53729322 41.2768257 10 41.22 10.3009856 41.2195941 10.6016241 41.1995515 10.9 41.16 12.8019208 40.8835472 14.5594611 39.9872017 15.9 38.61 17.2475669 37.267601 18.1215907 35.5230635 18.39 33.64L18.39 33.64zM10.61 39.18C9.49270198 39.382825 8.34497688 39.0496145 7.51 38.28 6.74177917 37.4442376 6.40877266 36.2972151 6.61 35.18 6.84038729 33.7220174 7.54302534 32.3799787 8.61 31.36 9.62417581 30.2907317 10.9639254 29.5874511 12.42 29.36 12.6297575 29.3457271 12.8402425 29.3457271 13.05 29.36 13.9669771 29.3239609 14.8589944 29.6634331 15.52 30.3 16.2981648 31.1301297 16.6326417 32.2822168 16.42 33.4 16.1882445 34.8546485 15.4856498 36.1930914 14.42 37.21 13.3984008 38.2640269 12.060635 38.9557326 10.61 39.18L10.61 39.18zM37.13 39.94C33.75 39.94 31 43.38 31 47.6 31 51.82 33.75 55.26 37.13 55.26 40.51 55.26 43.25 51.82 43.25 47.6 43.25 43.38 40.5 39.94 37.13 39.94zM37.13 53.26C34.85 53.26 33 50.72 33 47.6 33 44.48 34.85 41.94 37.13 41.94 39.41 41.94 41.25 44.48 41.25 47.6 41.25 50.72 39.4 53.26 37.13 53.26zM16.4 43.27C13.4 46.27 12.93 50.63 15.32 53.01 16.3572545 54.0163451 17.7551914 54.5639905 19.2 54.53 21.418542 54.4645949 23.5227703 53.5309783 25.06 51.93 26.438447 50.5890857 27.3379395 48.8322642 27.62 46.93 27.9097719 45.1941005 27.365132 43.4230943 26.15 42.15 23.76 39.79 19.39 40.28 16.4 43.27zM25.63 46.7C25.4025489 48.1560746 24.6992683 49.4958242 23.63 50.51 21.42 52.72 18.32 53.21 16.71 51.6 15.1 49.99 15.59 46.89 17.8 44.68 18.9649248 43.4631829 20.5567535 42.7461429 22.24 42.68 23.1648871 42.6645228 24.0563787 43.0254505 24.71 43.68 25.4706622 44.4882185 25.8108616 45.6049597 25.63 46.7L25.63 46.7zM36.84 29.54C37.1746707 27.8018619 36.6246234 26.0109696 35.3719971 24.7603475 34.1193707 23.5097254 32.3275999 22.9625465 30.59 23.3 26.7299745 23.9344861 23.7044861 26.9599745 23.07 30.82 22.7769852 32.5561139 23.3220651 34.3285505 24.54 35.6 25.5782673 36.6036583 26.9764276 37.1477877 28.42 37.11 30.638542 37.0445949 32.7427703 36.1109783 34.28 34.51 35.6544552 33.1782937 36.5538178 31.4322655 36.84 29.54L36.84 29.54zM26 34.18C25.2303855 33.3450231 24.897175 32.197298 25.1 31.08 25.6219084 28.1196737 27.9396737 25.8019084 30.9 25.28 31.1130834 25.265396 31.3269166 25.265396 31.54 25.28 32.4564058 25.2474321 33.3471134 25.5864058 34.01 26.22 35.61 27.83 35.13 30.93 32.92 33.14 30.71 35.35 27.56 35.79 26 34.18zM36.22 21.11C38.438542 21.0445949 40.5427703 20.1109783 42.08 18.51 45.08 15.51 45.56 11.15 43.17 8.76 41.8983549 7.54284518 40.1247068 7.0011033 38.39 7.3 36.4873883 7.57427882 34.7291848 8.47096262 33.39 9.85 32.0060561 11.1868466 31.1055467 12.9456541 30.83 14.85 30.5369852 16.5861139 31.0820651 18.3585505 32.3 19.63 33.3529713 20.6328032 34.7670202 21.1666788 36.22 21.11zM32.85 15.11C33.0853092 13.6536506 33.7871717 12.3130933 34.85 11.29 35.8682531 10.2261345 37.2060566 9.5238754 38.66 9.29 38.8730834 9.27539602 39.0869166 9.27539602 39.3 9.29 40.2164058 9.25743206 41.1071134 9.59640581 41.77 10.23 43.37 11.84 42.89 14.94 40.68 17.15 38.47 19.36 35.37 19.84 33.76 18.23 32.9712788 17.3854325 32.6331712 16.2150598 32.85 15.08L32.85 15.11zM54.44 30.19C53.74 26.03 50.44 23.09 47.13 23.65 45.3981757 23.9632467 43.9156276 25.0751577 43.13 26.65 42.2654132 28.3561369 41.9843787 30.2987878 42.33 32.18 42.97 36 45.78 38.7900716 48.82 38.7900716 49.0915749 38.7915443 49.3627164 38.7681124 49.63 38.72 53 38.2 55.13 34.36 54.44 30.19zM49.33 36.79C47.09 37.17 44.85 34.96 44.33 31.89 44.0600241 30.4425662 44.2707301 28.9465541 44.93 27.63 45.4171034 26.6067084 46.3519039 25.8677358 47.46 25.63 47.6263537 25.6155554 47.7936463 25.6155554 47.96 25.63 50.03 25.63 51.96 27.73 52.46 30.57 53 33.6 51.57 36.41 49.33 36.79zM17.14 19.7C17.4409973 19.699941 17.7416586 19.6798969 18.04 19.64 19.9426117 19.3657212 21.7008152 18.4690374 23.04 17.09 26.04 14.09 26.52 9.73 24.13 7.34 21.74 4.95 17.37 5.45 14.38 8.43 11.39 11.41 10.91 15.79 13.3 18.18 14.3249671 19.1802009 15.708151 19.7277112 17.14 19.7L17.14 19.7zM15.77 9.85C17.97 7.64 21.08 7.15 22.69 8.76 23.4602635 9.5944131 23.7903244 10.7440633 23.58 11.86 23.3503253 13.3182182 22.6475743 14.6604726 21.58 15.68 20.5617469 16.7438655 19.2239434 17.4461246 17.77 17.68 16.6491483 17.8926738 15.4940459 17.5583998 14.66 16.78 13.07 15.16 13.56 12.05 15.77 9.85z"/>
      <path id="Path" fill="#3D454C" fill-rule="nonzero" d="M37.92 43.87C37.3677153 43.87 36.92 44.3177153 36.92 44.87 36.92 45.4222847 37.3677153 45.87 37.92 45.87 38.4722847 45.87 38.92 45.4222847 38.92 44.87 38.92 44.3177153 38.4722847 43.87 37.92 43.87zM20.16 12.11C20.7122847 12.11 21.16 11.6622847 21.16 11.11 21.16 10.5577153 20.7122847 10.11 20.16 10.11 19.6077153 10.11 19.16 10.5577153 19.16 11.11 19.16 11.6622847 19.6077153 12.11 20.16 12.11z"/>
    </g>
  </g>
</svg>
