<svg xmlns="http://www.w3.org/2000/svg" width="64" height="64" viewBox="0 0 64 64" style="background:#fff">
  <g id="Muscheln" fill="none" fill-rule="evenodd" stroke="none" stroke-width="1">
    <rect width="64" height="64" fill="#FFF"/>
    <g transform="translate(2 4)">
      <rect id="Rectangle" width="60" height="60" x="0" y="0"/>
      <path id="Path" fill="#EBE53F" fill-rule="nonzero" d="M29.84,22.84 C28.8764009,21.4451885 27.3047147,20.5943229 25.61,20.55 C25.5286993,19.8131731 25.3400347,19.0922049 25.05,18.41 C22.91,13.73 17.05,9.41 11.99,12.81 C6.62,16.39 7.78,23.19 7.57,28.66 C7.48,31.03 9.22,36.17 12.45,35.71 C16.81,35.08 21.76,34.31 25.64,32.11 C28.59,30.44 32.32,26.46 29.84,22.84 Z" opacity=".5"/>
      <path id="Path" fill="#E0A075" fill-rule="nonzero" d="M49,11.77 C43.17,5.77 34.34,4.86 27.92,10.31 C26.18,11.79 26.26,17.56 29.35,17.38 C37.35,16.91 51.1,22.76 44.35,32.61 C41.68,36.48 37.11,38.47 32.54,38.85 C26.93,39.33 22.83,36.38 17.54,35.85 C12.09,35.34 11.95,45.85 14.38,48.68 C20.11,55.23 30.81,56.43 38.76,53.48 C46.818873,50.3471196 52.8081694,43.4332257 54.76,35.01 C56.5,27.07 54.76,17.77 49,11.77 Z" opacity=".5"/>
      <path id="Shape" fill="#3D454C" fill-rule="nonzero" d="M56.2201474,27.82 L56.2201474,25.82 C56.2387974,20.9358632 54.4589558,16.2157231 51.22,12.56 C50.8523745,12.149287 50.2217224,12.1135053 49.81,12.48 C49.399287,12.8476255 49.3635053,13.4782776 49.73,13.89 C52.6579897,17.1736208 54.2741675,21.4205373 54.27,25.82 L54.27,27.82 C54.276788,32.4099463 53.0060452,36.9112151 50.6,40.82 C46.5059698,39.7758386 43.0249184,37.087251 40.98,33.39 C40.8013672,33.0791789 40.4704826,32.8872678 40.1119873,32.8865578 C39.7534919,32.8858478 39.4218498,33.0764468 39.2419872,33.3865578 C39.0621247,33.6966689 39.0613672,34.0791789 39.24,34.39 C41.4499135,38.3287645 45.0977998,41.2599737 49.42,42.57 C46.7439723,46.1754471 43.1438876,48.9912523 39,50.72 L38.69,50.42 C35.3781706,47.0598404 33.7770371,42.3742246 34.34,37.69 C34.3792992,37.3327344 34.2250143,36.9816415 33.9352628,36.7689746 C33.6455113,36.5563077 33.2643135,36.5143759 32.9352628,36.6589746 C32.6062121,36.8035733 32.3792992,37.1127344 32.34,37.47 C31.7269307,42.585566 33.407152,47.7104241 36.93,51.47 C31.9525302,53.0571008 26.6005898,53.0290985 21.64,51.39 C21.3408769,47.1343427 22.826304,42.9461627 25.74,39.83 C26.0051278,39.5699096 26.10427,39.1843059 25.9974716,38.8285899 C25.8906733,38.472874 25.5955291,38.2056488 25.2309842,38.1346081 C24.8664394,38.0635674 24.4925515,38.2004148 24.26,38.49 C21.2120559,41.7868514 19.5504584,46.1306397 19.62,50.62 C16.9451158,49.4798254 14.4911945,47.8788533 12.37,45.89 C13.15,44.16 15.73,39.05 20.46,36.07 C24.4285333,33.6401197 28.573456,31.5108328 32.86,29.7 C34.5465798,28.9777043 35.6523628,27.3329768 35.6847355,25.4985247 C35.7171082,23.6640727 34.6700448,21.9813538 33.01,21.2 C29.2246555,19.3899742 25.995353,16.5958504 23.66,13.11 C28.9592299,7.7993374 37.0102336,6.36165817 43.82,9.51 C44.3225791,9.74195958 44.9180404,9.5225791 45.15,9.01999999 C45.3819596,8.51742088 45.1625791,7.92195961 44.66,7.69 C37.0949597,4.20668157 28.1609768,5.8027482 22.27,11.69 C19.7300995,9.76299403 16.859698,8.31593211 13.8,7.42 C12.7710685,7.17254134 11.6856241,7.36068503 10.8,7.94 C10.1746982,8.33825172 9.75183434,8.98712905 9.64,9.72 C9.59017791,11.3426842 10.7561226,12.7486763 12.36,13 C14.6920176,13.6847571 16.8689448,14.8156725 18.77,16.33 C18.77,16.38 18.77,16.43 18.7,16.48 C18.51,16.84 18.34,17.2 18.17,17.57 L17.89,18.21 C17.82,18.39 17.74,18.56 17.68,18.73 C13.3138389,17.7607616 8.75826521,18.108781 4.59,19.73 C3.58624601,20.11687 2.79145979,20.9080271 2.4,21.91 C2.12708816,22.5870283 2.1598977,23.3489388 2.49,24 C3.03336618,24.9474936 4.05864931,25.5140974 5.15,25.47 C5.65367705,25.4646772 6.15203799,25.3663611 6.62,25.18 C9.76272842,23.9925288 13.1868405,23.7628628 16.46,24.52 C16.46,24.94 16.4,25.36 16.4,25.79 C16.4,26.22 16.4,26.62 16.4,27.04 C16.395061,27.1099129 16.395061,27.1800871 16.4,27.25 C12.0956858,28.1660919 8.18008106,30.3911054 5.19,33.62 C4.44861771,34.3936582 4.06118946,35.4400766 4.12,36.51 C4.16888243,37.245378 4.53354046,37.9236419 5.12,38.37 C5.58962105,38.7223524 6.1629573,38.9087746 6.75,38.9 C7.74923927,38.8721598 8.69305433,38.4346057 9.36,37.69 C11.6648988,35.3805127 14.5661155,33.7568007 17.74,33 L17.8,33.14 L18,33.65 L18.3,34.29 C18.37,34.46 18.45,34.62 18.53,34.78 L18.61,34.95 C14.8848826,37.7480379 11.9943036,41.5099397 10.25,45.83 C10.1117387,46.1978332 10.2017238,46.6125475 10.48,46.89 C17.9954081,54.3940483 29.235123,56.7479153 39.13,52.89 L39.19,52.89 C44.3650451,50.8218554 48.7733351,47.2030055 51.81,42.53 C51.8390515,42.4973019 51.8626835,42.4601658 51.88,42.42 C54.714616,38.0784416 56.2227503,33.0049946 56.2201474,27.82 Z M32.16,23 C33.1136109,23.4410659 33.7165837,24.4038666 33.69709,25.4543584 C33.6775964,26.5048501 33.0393182,27.4446173 32.07,27.85 C28.0197416,29.5837121 24.0908505,31.5882484 20.31,33.85 C20.31,33.85 20.31,33.85 20.31,33.77 L20.16,33.46 C20.05,33.23 19.95,33 19.85,32.76 C19.75,32.52 19.74,32.5 19.69,32.37 L19.45,31.72 C19.4,31.58 19.35,31.44 19.31,31.3 C19.27,31.16 19.18,30.88 19.12,30.66 C19.0699085,30.5094781 19.0298211,30.3558098 19,30.2 C18.94,29.99 18.89,29.77 18.85,29.55 C18.81,29.33 18.78,29.26 18.75,29.11 C18.72,28.96 18.68,28.66 18.64,28.44 L18.54,28 C18.54,27.75 18.49,27.5 18.47,27.25 C18.45,27 18.47,27.01 18.47,26.89 C18.47,26.5233333 18.47,26.1533333 18.47,25.78 C18.47,25.21 18.47,24.64 18.55,24.09 C18.55,23.9 18.6,23.72 18.62,23.54 C18.67,23.16 18.72,22.79 18.79,22.43 C18.86,22.07 18.88,22.02 18.92,21.82 C18.96,21.62 19.09,21.13 19.19,20.82 C19.29,20.51 19.3,20.44 19.36,20.25 C19.48,19.88 19.62,19.52 19.76,19.16 C19.82,19.01 19.87,18.87 19.93,18.73 C20.1433333,18.2366667 20.3733333,17.7566667 20.62,17.29 L20.62,17.29 C21.1242736,16.3836056 21.7029276,15.5206417 22.35,14.71 C24.8564831,18.2674948 28.2343004,21.1219399 32.16,23 L32.16,23 Z M11.63,10 C11.6652396,9.83936569 11.7670145,9.70124259 11.91,9.62 C12.339912,9.35279739 12.8616822,9.2767059 13.35,9.41 C16.0785221,10.2134048 18.6419611,11.4968174 20.92,13.2 L20.79,13.38 C20.52,13.71 20.27,14.06 20.02,14.38 L19.81,14.66 C17.7280185,13.0308216 15.3512428,11.818666 12.81,11.09 C12.09,10.93 11.57,10.42 11.63,10 Z M5.86,23.32 C5.2,23.59 4.48,23.48 4.26,23.06 C4.19608574,22.909852 4.19608574,22.740148 4.26,22.59 C4.44194424,22.1335376 4.80353765,21.7719442 5.26,21.59 C9.00096328,20.1497927 13.0803581,19.8301127 17,20.67 C17,20.84 16.93,21.01 16.89,21.17 C16.85,21.33 16.76,21.67 16.71,21.92 C16.66,22.17 16.64,22.31 16.61,22.51 C13.0225816,21.7517517 9.29329245,22.0327493 5.86,23.32 L5.86,23.32 Z M7.86,36.32 C7.37,36.85 6.67,37.05 6.3,36.76 C6.18081404,36.6484775 6.1122077,36.4932105 6.11,36.33 C6.10365889,35.8320572 6.29833161,35.3525855 6.65,35 C9.30690487,32.0933309 12.801331,30.0840359 16.65,29.25 C16.6714849,29.3390407 16.6881756,29.4291703 16.7,29.52 C16.7,29.69 16.78,29.86 16.81,30.03 C16.84,30.2 16.92,30.5 16.98,30.74 C17.04,30.98 16.98,30.96 17.06,31.07 C13.565186,31.9369944 10.3800354,33.7580697 7.86,36.33 L7.86,36.32 Z"/>
      <path id="Path" fill="#3D454C" fill-rule="nonzero" d="M28 25.33C28.5522847 25.33 29 24.8822847 29 24.33 29 23.7777153 28.5522847 23.33 28 23.33 27.4477153 23.33 27 23.7777153 27 24.33 27 24.8822847 27.4477153 25.33 28 25.33zM38.36 31.18C38.9122847 31.18 39.36 30.7322847 39.36 30.18 39.36 29.6277153 38.9122847 29.18 38.36 29.18 37.8077153 29.18 37.36 29.6277153 37.36 30.18 37.36 30.7322847 37.8077153 31.18 38.36 31.18zM47.58 11.58C48.1322847 11.58 48.58 11.1322847 48.58 10.58 48.58 10.0277153 48.1322847 9.58 47.58 9.58 47.0277153 9.58 46.58 10.0277153 46.58 10.58 46.58 11.1322847 47.0277153 11.58 47.58 11.58z"/>
    </g>
  </g>
</svg>
