<svg xmlns="http://www.w3.org/2000/svg" width="64" height="64" viewBox="0 0 64 64" style="background:#fff">
  <g id="Muskat" fill="none" fill-rule="evenodd" stroke="none" stroke-width="1">
    <rect width="64" height="64" fill="#FFF"/>
    <g transform="translate(2 6)">
      <rect id="Rectangle" width="60" height="60" x="0" y="0"/>
      <path id="Path" fill="#E0A075" fill-rule="nonzero" d="M53.07,34.55 C50.35,33.18 47.07,32.24 44.22,31.1 C40.8281702,29.607619 37.0129333,29.3840284 33.47,30.47 C32.99,30.63 32.53,30.8 32.08,30.99 C32.7017105,30.1349372 33.1594505,29.1719879 33.43,28.15 C34.2359858,28.3724316 35.0995002,28.151798 35.7,27.57 C41.7,22.05 38.26,10.65 32.95,5.9 C26.54,0.17 16.9,1.14 10.34,6.1 C3.1,11.58 0.74,22.74 5.77,30.5 C7.89457366,33.8619315 11.3418294,36.1685779 15.26,36.85 C17.2372959,37.1591763 19.2574577,37.0501625 21.19,36.53 C23.13,36.06 24.99,34.61 26.81,34 C22.68,36.85 18.93,40.13 13.38,40.55 C8.74,40.9 8.73,49.25 11.71,51.55 C18.76,56.91 25.84,51.9 32.71,48.94 C36.54,47.29 39.08,47.81 42.71,49.68 C46.34,51.55 49.51,53.42 53.52,51.68 C59.66,48.89 58.5,37.3 53.07,34.55 Z" opacity=".5"/>
      <path id="Path" fill="#3D454C" fill-rule="nonzero" d="M25.23 17.44C25.3306417 17.9091379 25.7503072 18.2406736 26.23 18.23L26.44 18.23C26.7034228 18.1686945 26.9307796 18.0033013 27.0702083 17.7715481 27.2096371 17.5397949 27.249246 17.2614477 27.18 17L26 11.41C25.8840202 10.8577153 25.3422847 10.5040202 24.79 10.62 24.2377153 10.7359798 23.8840202 11.2777153 24 11.83L25.23 17.44zM28.35 19.85C28.4524384 19.8692326 28.5575616 19.8692326 28.66 19.85 29.0925739 19.8496813 29.4759022 19.571264 29.61 19.16L31.3 14C31.4265461 13.6563658 31.3551443 13.2710462 31.1138738 12.9955704 30.8726033 12.7200946 30.5000571 12.5985269 30.1427411 12.6786745 29.785425 12.7588221 29.5004945 13.0278647 29.4 13.38L27.71 18.6C27.5456708 19.1215697 27.8307735 19.6784109 28.35 19.85zM33.53 27.43L33 27.06C32.3202569 26.5037721 31.5904758 26.011672 30.82 25.59 30.3258253 25.4030725 29.7715041 25.6328292 29.5544691 26.114541 29.3374341 26.5962529 29.5325832 27.163683 30 27.41 30.23 27.55 31.35 28.35 31.83 28.69 32.31 29.03 32.51 29.16 32.53 29.17 32.6671327 29.2364197 32.8176302 29.2706236 32.97 29.2700084 33.4128695 29.2688568 33.802237 28.9765535 33.9269502 28.5516049 34.0516633 28.1266564 33.8820131 27.6702935 33.51 27.43L33.53 27.43zM24.86 22.91L19.86 23.75C19.3077153 23.7941828 18.8958173 24.2777153 18.9400001 24.83 18.9841828 25.3822847 19.4677153 25.7941827 20.02 25.75L20.19 25.75 25.19 24.91C25.4575782 24.8641488 25.6950153 24.7114782 25.8477734 24.4870559 26.0005315 24.2626335 26.0554809 23.9857486 26 23.72 25.9033555 23.1850055 25.3970039 22.8252294 24.86 22.91L24.86 22.91zM20.43 17L21.76 18.71 19.09 18.2C18.5377153 18.0950659 18.0049341 18.4577153 17.9 19.01 17.7950659 19.5622847 18.1577153 20.0950659 18.71 20.2L23.98 21.2 24.17 21.2C24.5853038 21.2424242 24.9832635 21.0223952 25.1681751 20.6481163 25.3530867 20.2738373 25.2860375 19.8240717 25 19.52L22 15.72C21.6465378 15.2864565 21.0085435 15.2215378 20.575 15.575 20.1414565 15.9284622 20.0765378 16.5664565 20.43 17z"/>
      <path id="Shape" fill="#3D454C" fill-rule="nonzero" d="M55.23,45.4 C55.09,44.61 54.32,44.4 53.81,44.28 C52.87,44.05 52.25,43.82 52.1,42.83 C51.84,41.07 50.03,40.83 48.91,40.68 C49.1216843,40.3586971 49.2071594,39.9704978 49.15,39.59 C49.01,38.87 48.38,38.59 47.88,38.34 C47.1071378,38.0899901 46.5057003,37.4773456 46.27,36.7 C44.49,30.78 42.06,30.54 39.73,30.83 C39.4259282,30.8788171 39.1175714,30.8955757 38.81,30.88 L38.71,30.83 C38.9440644,30.5522737 39.0091408,30.1694711 38.88,29.83 C38.25,28.2 38.88,26.83 39.43,25.58 C39.98,24.33 40.92,22.31 38.91,20.8 C38.91,20.66 38.91,20.38 38.91,20.17 C39.2076137,18.5185379 38.6770802,16.8260614 37.49,15.64 L37.12,15.32 C35.9717998,14.5813794 35.232596,13.3506051 35.12,11.99 C35.12,9.65 30.04,7.51 27.35,7.16 C27.2794141,7.10400696 27.2021581,7.0569816 27.12,7.02 C26.3184291,6.75462082 25.4675011,6.67260367 24.63,6.78 C24.3136252,6.79922801 23.9963748,6.79922801 23.68,6.78 C10.42,5.78 5.84,12.65 4.29,16.78 C1.68,24 4.19,33.53 9.82,37.71 C12.1523897,39.4359347 14.9784717,40.3651056 17.88,40.36 L18,40.36 C17.35,40.71 16.66,41.11 15.91,41.59 C14.8891173,42.087987 13.8157934,42.4703587 12.71,42.73 C12.0749566,42.8702441 11.4577319,43.0815764 10.87,43.36 C10.4985132,43.5737719 10.1106255,43.7576842 9.71,43.91 C8.22424447,44.2702626 7.17851483,45.6011912 7.18,47.13 C7.16800029,47.4534819 7.31332503,47.7627628 7.57,47.96 C8.31974192,48.3717865 9.18723228,48.5163683 10.03,48.37 C10.3261173,48.344467 10.6238827,48.344467 10.92,48.37 C11.7586431,48.4375229 12.6013569,48.4375229 13.44,48.37 C14.81,48.37 17.9,48.25 18.77,48.62 C18.7901964,49.1468405 18.995579,49.6496737 19.35,50.04 C20.27,51.04 21.95,51.04 23.73,51.04 C24.6538756,51.0325175 25.576855,51.0994 26.49,51.24 L26.49,51.24 C26.4740136,51.4451555 26.4439428,51.6489693 26.4,51.85 C26.1480321,52.6337969 26.2618611,53.4893503 26.71,54.18 C27.2247526,54.7314991 27.9565501,55.027877 28.71,54.99 C29.91,54.99 31.01,55.04 32.01,55.04 C39.91,55.04 41.83,54.04 42.63,53.04 C43.1341977,52.2989129 43.2211152,51.3503787 42.86,50.53 L42.8,50.34 C44.01,49.44 45.33,49.34 46.98,49.34 C49.2762466,49.4127971 51.541216,48.7925439 53.48,47.56 C54.49,46.92 55.39,46.31 55.23,45.4 Z M22.23,10.64 C24.07,10.33 24.69,9.93 25.23,9.27 C25.7355413,9.1389948 26.2596998,9.09503312 26.78,9.14 C29,9.14 32.99,11.22 33.24,12.02 C33.256165,13.4198113 33.7988365,14.7622093 34.76,15.78 L31.41,18 C31.1899614,18.1515284 31.0397066,18.3848051 30.9927412,18.6478109 C30.9457759,18.9108168 31.0060058,19.1816801 31.16,19.4 C31.3465173,19.6688622 31.6527764,19.8294615 31.98,19.83 C32.183908,19.8295172 32.3827955,19.7667107 32.55,19.65 L36.18,17.15 C36.9036143,17.9083617 37.2099417,18.9730363 37,20 C36.7621914,20.8668699 37.0374846,21.7935611 37.71,22.39 C38.4,22.88 38.4,23.15 37.71,24.78 C36.6789668,26.5313885 36.4600007,28.6444112 37.11,30.57 C37.1340464,30.6233394 37.1642518,30.6736817 37.2,30.72 C37.0025693,30.7893529 36.8117965,30.8763721 36.63,30.98 C36.3600879,30.802927 36.1146481,30.591109 35.9,30.35 C34.61,29.02 33.68,29.47 31.33,31.1 L29.78,32 L29.47,28.66 C29.4471764,28.3943585 29.3192169,28.1488302 29.1145475,27.9779595 C28.9098782,27.8070888 28.6454479,27.7250255 28.38,27.75 C27.8306097,27.8027177 27.4278042,28.2905599 27.48,28.84 L27.88,33.13 L27.43,33.4 C26.2,34.13 26.2,34.13 26.08,34.32 C25.74508,34.8215173 25.3846045,35.3054891 25,35.77 C24.2750441,35.871211 23.5382914,35.8509334 22.82,35.71 C22.6622133,34.6913004 22.081022,33.7868215 21.22,33.22 L26,28 C26.3314223,27.5872957 26.2838425,26.9878151 25.8914683,26.6325574 C25.4990941,26.2772997 24.8978487,26.2893304 24.52,26.66 L19.65,32 C17.12,29.72 17.12,28.93 17.11,28.93 L17.21,28.82 C17.5210453,28.5828794 17.6995454,28.2110042 17.69,27.82 C17.5947652,26.6370183 17.0069433,25.5484591 16.07,24.82 C15.56,24.34 15.3,24.09 15.24,23.5 C14.98,21 15.62,19.5 15.91,19.25 C17.55,18.49 17.67,16.87 17.76,15.68 C17.87,14.19 17.91,13.68 19.47,13.68 C21.22,13.68 21.61,12.27 21.82,11.51 C22.03,10.75 22.08,10.66 22.18,10.64 L22.23,10.64 Z M11,36.11 C6,32.41 3.83,23.92 6.2,17.55 C8.33,11.82 13.66,8.74 21.32,8.74 L21.56,8.74 C20.6596203,9.08301587 20.0214535,9.89417965 19.9,10.85 C19.8479148,11.0915869 19.7602953,11.3241155 19.64,11.54 C19.5835564,11.5471112 19.5264436,11.5471112 19.47,11.54 C16.05,11.54 15.87,13.94 15.76,15.38 C15.68,16.55 15.59,17.05 15.06,17.29 C13.68,17.94 12.94,20.51 13.25,23.56 C13.3698028,24.5837778 13.9003629,25.514965 14.72,26.14 C15.177025,26.471069 15.5027672,26.952601 15.64,27.5 C15.2954275,27.8638226 15.1085307,28.3490353 15.12,28.85 C15.12,30.04 16.12,31.46 18.36,33.47 C18.72,33.79 19.09,34.08 19.44,34.35 C20.3,35.02 20.82,35.45 20.8,35.92 C20.7837762,36.489132 21.0789066,37.0218998 21.57,37.31 C21.7356443,37.4149378 21.9136715,37.4989128 22.1,37.56 C18.3938289,38.9929028 14.2137255,38.4468533 11,36.11 L11,36.11 Z M47,47.33 C45.13,47.41 43.2,47.5 41.42,48.99 C40.8251271,49.5378359 40.6550308,50.4085671 41,51.14 C41.12,51.56 41.17,51.75 41.09,51.85 C40.75,52.3 38.88,53.32 28.82,53.04 C28.6501361,53.0496197 28.4798639,53.0496197 28.31,53.04 L28.31,53.04 C28.3105425,52.7945092 28.3373619,52.5497817 28.39,52.31 C28.52,51.61 28.86,49.76 26.87,49.37 C25.8447929,49.2078436 24.8079123,49.1309137 23.77,49.14 C22.66,49.14 21.15,49.09 20.77,48.74 C20.7272768,48.6677207 20.7096948,48.5833269 20.72,48.5 C20.7407707,48.0700489 20.5770574,47.6516706 20.27,47.35 C19.27,46.35 16.78,46.35 13.34,46.44 C12.48,46.44 11.51,46.44 11.23,46.44 C10.7878736,46.3937372 10.3421264,46.3937372 9.9,46.44 L9.35,46.44 C9.65281672,46.1393747 10.0283487,45.9223241 10.44,45.81 C10.9247725,45.6226782 11.3930647,45.395222 11.84,45.13 C12.01,45.05 12.68,44.86 13.22,44.71 C14.5358454,44.391846 15.8059931,43.9079802 17,43.27 C18.2149062,42.4889138 19.4811133,41.7906623 20.79,41.18 C23.5716636,40.0652387 25.9448832,38.1247827 27.59,35.62 L28.43,35.12 C30.3,34 32,33 32.37,32.75 C32.9478102,32.3051031 33.5713202,31.9229518 34.23,31.61 L34.36,31.75 C34.8228065,32.266513 35.3792873,32.6906599 36,33 C36.4880685,33.1989119 37.0443447,33.1307965 37.47,32.82 C37.5757238,32.7553914 37.686016,32.6985742 37.8,32.65 C37.8893475,32.7105152 37.987042,32.7576781 38.09,32.79 C38.717337,32.9541832 39.3736356,32.9746925 40.01,32.85 C41.52,32.67 42.95,32.5 44.39,37.32 C44.7617416,38.5695693 45.6708003,39.5885948 46.87,40.1 C46.4530245,40.5152424 46.2958174,41.1248992 46.46,41.69 C46.77,42.53 47.68,42.61 48.55,42.69 C49.13,42.75 50.12,42.84 50.16,43.16 C50.3113518,44.4528862 51.1896455,45.5449239 52.42,45.97 C50.7879287,46.9501917 48.9014949,47.4235404 47,47.33 L47,47.33 Z"/>
      <path id="Path" fill="#3D454C" fill-rule="nonzero" d="M14.47 50.76C13.9177153 50.6964873 13.4185128 51.0927153 13.355 51.645 13.2914873 52.1972847 13.6877153 52.6964872 14.24 52.76 14.7162951 52.9553044 15.2630426 52.7571061 15.5035464 52.3019592 15.7440502 51.8468122 15.5997218 51.2834432 15.17 51 14.9662373 50.8511839 14.7222082 50.7675168 14.47 50.76L14.47 50.76zM10.41 50.47C9.85771526 50.4037258 9.3562742 50.7977153 9.29000003 51.35 9.22372586 51.9022847 9.61771527 52.4037258 10.17 52.47 10.2902223 52.521241 10.4193227 52.54842 10.55 52.5500117 10.8880647 52.5516321 11.2040662 52.3823456 11.39 52.1 11.6912473 51.6411173 11.566275 51.0251825 11.11 50.72 10.9086757 50.5652872 10.6637839 50.4778259 10.41 50.47L10.41 50.47zM30 22.43C29.9313708 22.8169004 30.0956891 23.2081344 30.42 23.43L34.49 26.15C34.6510428 26.262792 34.8433994 26.3222477 35.04 26.32 35.4803997 26.3209866 35.8696015 26.0337436 35.9984701 25.6126193 36.1273388 25.1914949 35.9655338 24.7356378 35.6 24.49L33.5 23.13 34.75 22.88C35.1072656 22.8085469 35.3992728 22.5519226 35.5160254 22.2067949 35.632778 21.8616673 35.5565384 21.4804694 35.3160254 21.2067949 35.0755124 20.9331204 34.7072656 20.8085469 34.35 20.88L30.75 21.61C30.3571597 21.7064818 30.0611381 22.0301321 30 22.43z"/>
    </g>
  </g>
</svg>
