<svg xmlns="http://www.w3.org/2000/svg" width="64" height="64" viewBox="0 0 64 64" style="background:#fff">
  <g id="Nektarine" fill="none" fill-rule="evenodd" stroke="none" stroke-width="1">
    <rect width="64" height="64" fill="#FFF"/>
    <g id="15-Nektarine" transform="translate(2 6)">
      <rect id="Rectangle" width="60" height="60" x=".47" y="0"/>
      <rect id="Rectangle" width="60" height="60" x="1" y="0"/>
      <path id="Path" fill="#E05362" fill-rule="nonzero" d="M39.62,30.33 C38.89,25.88 36.62,21.03 32.77,18.62 C32.4262237,17.2615028 31.4290415,16.1631029 30.11,15.69 C16.17,11.46 5.41,25.31 6.45,38.21 C7.52,51.49 21.2,61.23 32.35,51 C38.014351,45.7177882 40.7305664,37.9950686 39.62,30.33 L39.62,30.33 Z" opacity=".6"/>
      <path id="Path" fill="#31E085" fill-rule="nonzero" d="M44.87,15.46 C39.78,14.36 39.15,22.46 41.34,25.46 C43.34,28.1 45.53,30.57 46.97,33.57 C48.58,36.93 48.44,41.04 51.55,43.69 C52.4504801,44.4198724 53.6348475,44.6988376 54.7664192,44.4475937 C55.897991,44.1963497 56.8530134,43.4423736 57.36,42.4 C61.85,33.53 55.08,17.66 44.87,15.46 Z" opacity=".5"/>
      <path id="Shape" fill="#3D454C" fill-rule="nonzero" d="M52.55,21.08 C51.241348,19.6191153 49.7048008,18.3797465 48,17.41 C45.87,16.04 43.86,14.75 43,12.51 C43,12.51 43,12.51 43,12.51 C42.83,12.1 42,10.28 41.32,8.98 C41.32,8.68 41.32,8.39 41.32,8.09 C41.32,6.9854305 40.4245695,6.09 39.32,6.09 C38.2154305,6.09 37.32,6.9854305 37.32,8.09 C37.32,10.51 34.75,16.32 32.47,19.09 C31.3302832,17.3339026 29.4763695,16.1674362 27.4,15.9 C21.52,14.81 14,19 10.94,23.4 C7.21,28.74 4.48,37.71 6.47,44.53 C7.40562943,48.0255674 9.92673258,50.879856 13.28,52.24 C13.8293602,52.4321428 14.4080482,52.5268987 14.99,52.52 C15.535559,52.520012 16.079249,52.4562459 16.61,52.33 C18.17,53.91 20.42,55 23.93,55 C24.51,55 25.13,55 25.79,54.9 C26.4643911,54.8328542 27.1328852,54.7158677 27.79,54.55 C28.3257162,54.4146902 28.6503097,53.8707162 28.515,53.335 C28.3796902,52.7992838 27.8357162,52.4746903 27.3,52.61 C26.740845,52.7486849 26.1728499,52.8489193 25.6,52.91 C19.68,53.49 17.43,51.13 15.87,47.4 C15.6542949,46.8922174 15.0681056,46.6550568 14.56,46.87 C14.3056912,46.96754 14.1021727,47.1645931 13.9964765,47.4156217 C13.8907803,47.6666502 13.8920528,47.9499312 14,48.2 C14.3331034,48.9993106 14.7276166,49.7716203 15.18,50.51 C14.7819549,50.5438528 14.381129,50.499694 14,50.38 C11.2255737,49.2611727 9.1447519,46.8947479 8.39,44 C6.59,37.85 9.21,29.4 12.58,24.57 C15.3,20.68 22.06,16.98 27.06,17.86 C28.6700703,18.0351184 30.1001481,18.9674548 30.91,20.37 C22.19,21.04 15.82,30.97 13.75,37.51 C13.6684064,37.763273 13.6911199,38.0386212 13.8131131,38.2751004 C13.9351063,38.5115795 14.1463182,38.6896865 14.4,38.77 C14.4994311,38.7850853 14.6005689,38.7850853 14.7,38.77 C15.1508611,38.792062 15.5606053,38.5093385 15.7,38.08 C17.89,31.19 24.58,21.71 32.61,22.31 C36.55,22.59 38.67,23.24 39.95,24.56 C39.6983037,27.4069181 40.2019063,30.2698643 41.41,32.86 L41.76,33.53 C42.0677099,34.1156472 42.4292697,34.6713781 42.84,35.19 C42.744434,35.3081225 42.6822772,35.4497019 42.66,35.6 C42.37,37.25 41.35,38.85 39.31,42.03 C38.85,42.75 38.31,43.55 37.83,44.38 C37.33,45.05 36.83,45.7 36.32,46.3 C36.1487758,46.5028225 36.0652126,46.7653978 36.0877213,47.0298748 C36.11023,47.2943518 36.2369636,47.5390294 36.44,47.71 C36.5905023,47.8645363 36.7869407,47.9662634 37,48 C37.2974322,48.000483 37.5796435,47.8685401 37.77,47.64 C38.3,47 38.84,46.32 39.4,45.55 C39.96,44.78 40.46,43.87 40.92,43.16 C42.68,40.41 43.77,38.69 44.29,37 C45.74,38.48 47.47,39.92 49.08,41.26 C50.69,42.6 52.95,44.46 53.08,45.1 C53.131542,45.6129013 53.5645219,46.0025832 54.08,46 L54.15,46 C54.6946425,45.9625337 55.1085836,45.4951808 55.08,44.95 C55.02,43.95 55.17,41.95 55.26,40.59 L55.26,40.13 C55.26,39.39 55.37,38.66 55.43,37.92 C56,32 56.45,25.94 52.55,21.08 Z M33.93,20.43 L33.93,20.43 C36.27,17.64 39.23,11.43 39.29,8.2 C39.29,8.49 39.29,8.78 39.29,9.07 C39.2686368,9.26791321 39.3106549,9.46749907 39.41,9.64 C40.01,10.73 40.79,12.44 41.06,13.06 C41.01,15.01 40.74,17.06 40.49,19.06 C40.35,20.06 40.22,21.16 40.11,22.21 C38.216038,21.1451397 36.1002168,20.5357284 33.93,20.43 L33.93,20.43 Z M53.5,37.72 C53.44,38.46 53.38,39.21 53.33,39.95 L53.33,40.41 C53.33,40.92 53.26,41.5 53.22,42.08 C52.5,41.4 51.56,40.62 50.43,39.68 C47.88,37.57 44.71,34.94 43.53,32.68 L43.14,32 C41.27,28.34 41.84,24 42.44,19.34 C42.58,18.23 42.73,17.11 42.84,15.99 C44.0651059,17.2053647 45.4394038,18.2604491 46.93,19.13 C48.4242514,19.9946301 49.7739262,21.0878667 50.93,22.37 C54.39,26.57 54,32 53.5,37.72 Z"/>
      <path id="Path" fill="#3D454C" fill-rule="nonzero" d="M32.58,49.58 L32.18,49.58 C31.6277153,49.58 31.18,50.0277153 31.18,50.58 C31.18,51.1322847 31.6277153,51.58 32.18,51.58 L32.58,51.58 C33.1322847,51.58 33.58,51.1322847 33.58,50.58 C33.58,50.0277153 33.1322847,49.58 32.58,49.58 Z"/>
    </g>
  </g>
</svg>
