<svg xmlns="http://www.w3.org/2000/svg" width="64" height="64" viewBox="0 0 64 64" style="background:#fff">
  <g id="Nelken" fill="none" fill-rule="evenodd" stroke="none" stroke-width="1">
    <rect width="64" height="64" fill="#FFF"/>
    <g transform="translate(2 7)">
      <rect id="Rectangle" width="60" height="60" x="0" y="0"/>
      <path id="Path" fill="#C17953" fill-rule="nonzero" d="M33.05 31.22C29.18 21.41 15.37 21.33 13.2 10.1 12.81 8.1 10.7 9.65 10.33 10.8 9.01776883 15.2802752 10.208656 20.1201629 13.45 23.48 15.73 26.03 18.69 27.73 21.45 29.64 24.21 31.55 26.45 33.96 29.08 36.02 31.51 37.89 33.8 33.11 33.05 31.22zM48.1 26.74C45.2 28.74 43.64 32.98 41.78 35.9 39.2876988 39.665861 36.5763635 43.2820878 33.66 46.73 32.5096838 48.1095463 32.227856 50.0167096 32.93 51.67 33.47 52.82 34.99 54.23 36.2 52.89 41.88 46.56 49.43 37.05 49.91 28.25 50 27.24 49.12 26 48.1 26.74zM31.06 41.79C28.65 41.01 25.78 42.54 23.19 42.47 20.6 42.4 18.19 41.06 15.58 40.81 13.97 40.65 14.29 43.48 14.73 44.26 17.59 49.31 28.29 52.26 32.11 47.03 33.07 45.71 32.9 42.38 31.06 41.79z" opacity=".5"/>
      <path id="Shape" fill="#3D454C" fill-rule="nonzero" d="M50.52,33.52 C51.1085326,31.7978934 51.273185,29.9592754 51,28.16 C50.6,26.4 49.07,23.61 43.29,24.82 C42.0139564,25.2540295 40.9147921,26.0933274 40.16,27.21 L40.16,27.21 C39.94,26.57 39.59,25.48 38.51,25.61 C37.6568513,25.7189445 36.9296835,26.2815427 36.61,27.08 C35.66,29.08 36.26,33.25 36.93,34.26 C38.21,36.19 37.8,38.81 35.57,43.04 C35.57,43.13 35.48,43.21 35.43,43.3 C33.8425565,43.1438041 32.2662393,42.8899904 30.71,42.54 C29.71,42.1 28.78,40.98 27.18,38.26 C26.2383988,36.8520623 24.7455739,35.9076962 23.07,35.66 L23.01,35.66 C22.4821947,35.6524721 21.9950237,35.9424548 21.75,36.41 C21.535488,36.9290241 21.5800184,37.5190509 21.87,38 C16.99,37.5 15.26,39.64 14.65,41.09 C14.4350568,41.5981056 14.6722174,42.1842949 15.18,42.4 C15.3039863,42.450383 15.4361911,42.4775019 15.57,42.48 C15.9737019,42.4779849 16.3365964,42.2334255 16.49,41.86 C17.49,39.51 20.97,39.78 23.24,40.24 C23.35,40.5 23.47,40.77 23.6,41.03 C23.7458725,41.3180938 23.8728083,41.6153909 23.98,41.92 C23.0011342,42.1132689 22.0721134,42.5046146 21.25,43.07 C20.5542571,43.61757 20.3409228,44.5796656 20.74,45.37 C21.0624481,46.0045555 21.5198051,46.5608928 22.08,47 L22.42,47.31 C22.5159623,47.3973943 22.6061518,47.4909242 22.69,47.59 L22.61,47.67 C21.4846578,48.483821 19.9831848,48.5506404 18.79,47.84 C18.3732914,47.6183289 17.9923511,47.335152 17.66,47 C17.2513093,46.6272078 16.6177922,46.6563093 16.245,47.065 C15.8722078,47.4736907 15.9013093,48.1072078 16.31,48.48 C16.7892749,48.9095394 17.3240523,49.2727844 17.9,49.56 C18.6504602,49.9313808 19.465168,50.1554255 20.3,50.22 C20.1707065,50.467765 20.0700577,50.729452 20,51 C19.7898934,51.7535577 19.9826075,52.5622015 20.51,53.14 C20.7814797,53.3904095 21.1409111,53.5233991 21.51,53.51 C21.7044437,53.5109317 21.8974855,53.4770647 22.08,53.41 L22.24,53.41 C23.24,53.06 25.73,52.25 26.65,50.41 C27.28,49.12 28.29,49.14 30.2,49.3 L32.2,49.43 C31.41,51.09 31.2,52.15 31.85,52.86 C32.443877,53.5683186 33.3157945,53.9842123 34.24,54 C34.435333,53.9982785 34.6298662,53.9748004 34.82,53.93 C36.54,53.56 37.74,51.69 38.37,50.43 C38.4030819,50.4357905 38.4369181,50.4357905 38.47,50.43 C38.94,50.51 40.47,50.7 42.12,50.89 L43.12,51.01 C43.6434187,51.0864297 44.171128,51.1298488 44.7,51.14 C45.4986561,51.2619606 46.2982675,50.925892 46.77,50.27 C47.2746733,49.4711162 47.3991943,48.4895983 47.11,47.59 C46.6496959,46.5475829 45.7533726,45.7610135 44.66,45.44 C43.6108457,45.1622222 42.5405406,44.9715741 41.46,44.87 C41.78,44.39 42.08,43.87 42.36,43.44 C42.95,42.44 43.3,41.68 43.55,41.14 C43.98,40.25 43.98,40.25 45.42,40.01 C46.13,39.9 47.09,39.73 48.42,39.45 C50.0880341,38.9245481 51.4132373,37.6474668 52,36 C52.2948906,35.3250902 52.1613487,34.5395491 51.66,34 C51.3516159,33.7057743 50.945964,33.5349735 50.52,33.52 Z M43.74,26.78 C46.33,26.24 48.01,26.54 48.74,27.69 C49.93,29.58 48.59,33.31 48.1,34.13 C46.89,34.68 46.64,34.57 46.31,33.94 C45.46,32.33 44.86,31.41 42.43,31.15 C42.0927228,31.1239314 41.7535462,31.1612408 41.43,31.26 C41.2469609,30.8546153 41.1029765,30.4327076 41,30 C41.4497913,28.6055611 42.4355165,27.4471542 43.74,26.78 L43.74,26.78 Z M30.31,47.24 C28.54,47.09 26.1,46.89 24.84,49.47 C24.37,50.47 22.89,51.04 22,51.35 C22.2205972,50.8128162 22.5836458,50.3460394 23.05,50 C23.5328094,49.5787542 23.9717155,49.1096942 24.36,48.6 C24.82,47.98 25.09,46.98 23.79,45.76 L23.41,45.41 C23.0839438,45.1675252 22.8030092,44.8696669 22.58,44.53 L22.58,44.53 C23.1774628,44.1793594 23.8300394,43.9325299 24.51,43.8 C25.0865897,43.6902625 25.5807085,43.3215171 25.85,42.8 C26.1050429,41.8906381 25.9399689,40.9148675 25.4,40.14 C25.29,39.92 25.18,39.69 25.09,39.46 C24.9873034,39.2360966 24.8703983,39.0189872 24.74,38.81 L24.74,38.81 L24.36,38.21 C24.8171098,38.4787236 25.2069781,38.8480725 25.5,39.29 C27.38,42.46 28.5,43.74 29.96,44.38 C30.15,44.46 30.7,44.7 34.46,45.19 L34.06,45.92 C33.76,46.46 33.48,46.92 33.23,47.43 C32.27,47.37 30.58,47.27 30.31,47.24 Z M45.25,48.24 C45.3222788,48.528146 45.279223,48.8331248 45.13,49.09 C44.5485152,49.1325808 43.9639885,49.1023467 43.39,49 L42.39,48.88 L39.22,48.49 C39.5374868,47.8643474 39.8948914,47.2597657 40.29,46.68 L41.18,46.81 C42,46.93 43.7,47.17 44,47.27 C44.5337815,47.4339016 44.9823614,47.7999428 45.25,48.29 L45.25,48.24 Z M48.05,37.47 C46.74,37.74 45.8,37.89 45.11,38.01 C42.93,38.37 42.6,38.52 41.77,40.25 C41.53,40.76 41.2,41.45 40.64,42.41 C40.23,43.13 39.72,43.88 39.22,44.62 C38.3020327,45.8499052 37.5489716,47.1946571 36.98,48.62 C36.65,49.62 35.44,51.73 34.4,51.96 C34.28,51.96 33.97,52.05 33.48,51.59 C34.09789,49.944917 34.8749087,48.3640858 35.8,46.87 C36.31,46 36.85,45 37.38,44 C39.23,40.5 40.82,36.48 38.64,33.2 C38.1152293,31.5574168 38.029046,29.806172 38.39,28.12 C38.39,28.23 38.47,28.35 38.52,28.46 C38.625131,28.7882576 38.7119316,29.1221061 38.78,29.46 C38.9722053,30.5816777 39.3507669,31.6632821 39.9,32.66 C40.3465187,33.3020487 41.1879698,33.5334477 41.9,33.21 C42.0087677,33.1683158 42.123612,33.1446714 42.24,33.14 C43.72,33.3 43.87,33.57 44.56,34.88 C45.89,37.4 48.19,36.31 49.17,35.88 C49.3673561,35.7799309 49.5711375,35.6930733 49.78,35.62 L50.07,35.56 C49.6740779,36.4490043 48.9505349,37.1510559 48.05,37.52 L48.05,37.47 Z"/>
      <path id="Shape" fill="#3D454C" fill-rule="nonzero" d="M21.5,27.18 C21.95,27.59 22.45,28.06 23.04,28.57 C23.9706594,29.3876975 24.7759491,30.337872 25.43,31.39 C25.69,31.77 25.96,32.16 26.27,32.57 L26.44,32.81 C27.56,34.33 28.76,35.75 30.08,36.1 C30.369798,36.1780964 30.6715561,36.2018302 30.97,36.17 C31.9923516,35.9981593 32.8291562,35.2620812 33.13,34.27 C33.96,32.36 30.25,27.7 27.72,25.2 C25.9786458,23.606357 24.4221832,21.8217921 23.08,19.88 C22.467195,18.9373362 22.2548969,17.789487 22.49,16.69 C22.92,15.06 22.06,13.56 21.49,12.56 C21.3730009,12.3656844 21.2661899,12.1654138 21.17,11.96 C21.0104194,11.2665631 20.4785954,10.7193239 19.79,10.54 C19.2284066,10.4479793 18.6621432,10.6752551 18.32,11.13 C18.1651063,11.3245342 18.0526911,11.5493645 17.99,11.79 C17.3985973,11.3920352 16.7561138,11.0758391 16.08,10.85 C14.03,10.16 11.16,10.04 9.22,11.85 C8.13785875,13.1161703 7.63073475,14.7751902 7.82,16.43 C7.93043799,18.1087385 8.57124737,19.7090111 9.65,21 C9.21842069,21.1248233 8.85694541,21.421233 8.65,21.82 C8.43302139,22.2987966 8.50253771,22.8587892 8.83,23.27 C10.0340655,24.4827622 11.7048308,25.1138591 13.41,25 C18.47,24.38 19,24.86 21.5,27.18 Z M10.58,13.28 C11.87,12.1 14.01,12.28 15.45,12.74 C16.4454873,12.9649244 17.2992543,13.6007083 17.8,14.49 L17.8,14.59 C17.8,16.31 17.8,17.67 16.17,19.15 C15.3332256,19.8429878 14.3239877,20.2957624 13.25,20.46 L12.53,20.66 C12.4118849,20.688193 12.2913276,20.7049371 12.17,20.71 C10.7870405,19.6360035 9.93425942,18.017906 9.83,16.27 C9.69198622,15.2142982 9.96005947,14.1455795 10.58,13.28 Z M11.58,22.77 L11.86,22.77 L11.86,22.77 C12.2468225,22.7518956 12.6314756,22.7017234 13.01,22.62 L13.71,22.43 C15.0901858,22.183809 16.3805785,21.5765653 17.45,20.67 C19.76,18.59 19.76,16.48 19.75,14.62 C19.75,14.3 19.75,13.98 19.75,13.62 C20.2920384,14.3549653 20.5543999,15.2590487 20.49,16.17 C20.1285864,17.7687515 20.4086396,19.4454805 21.27,20.84 C22.691884,22.9655227 24.37131,24.9069392 26.27,26.62 C29.44,29.75 31.17,32.77 31.21,33.54 C31,33.99 30.81,34.16 30.7,34.17 C30.41,34.17 29.7,33.91 28.01,31.62 L27.82,31.37 C27.53,30.97 27.28,30.61 27.04,30.25 C26.2850235,29.0632192 25.3659126,27.9892398 24.31,27.06 C23.74,26.56 23.25,26.06 22.81,25.7 C21.28,24.28 20.25,23.41 18.76,23.01 C16.8964399,22.6583918 14.9835601,22.6583918 13.12,23.01 C12.6053676,23.0375004 12.0907453,22.9557061 11.61,22.77 L11.58,22.77 Z"/>
      <path id="Path" fill="#3D454C" fill-rule="nonzero" d="M15.18,43.58 C14.6277153,43.58 14.18,44.0277153 14.18,44.58 C14.18,45.1322847 14.6277153,45.58 15.18,45.58 C15.7322847,45.58 16.18,45.1322847 16.18,44.58 C16.18,44.0277153 15.7322847,43.58 15.18,43.58 Z"/>
    </g>
  </g>
</svg>
