<svg xmlns="http://www.w3.org/2000/svg" width="64" height="64" viewBox="0 0 64 64" style="background:#fff">
  <g id="Nudeln" fill="none" fill-rule="evenodd" stroke="none" stroke-width="1">
    <rect width="64" height="64" fill="#FFF"/>
    <g id="26-3-Nudeln" transform="translate(2 6)">
      <g id="Layer_2">
        <rect id="Rectangle" width="60" height="60" x="0" y="0"/>
      </g>
      <g id="Layer_1" transform="translate(5 4)">
        <path id="Path" fill="#EBE350" fill-opacity=".5" d="M46.42,10.63 C46.8754203,12.8433987 47.2092537,15.0800827 47.42,17.33 C47.79,20.82 47.93,24.33 48.04,27.87 C48.13,30.75 48.24,33.71 48.24,36.65 C48.24,38.8 48.24,40.95 48.05,43.05 C47.72,47.79 44.64,51.28 41.16,50.85 C37.68,50.42 35.16,46.21 35.44,41.47 L35.44,28.63 C35.34,25.69 35.24,22.72 34.93,19.79 C34.780881,18.2293455 34.5337262,16.679618 34.19,15.15 C34.03,14.74 33.57,13.56 33.36,12.86 C32.05,8.45 33.62,3.42 36.86,1.64 C39.74,0.05 43,1.56 44.58,5 C44.9114136,4.90713706 45.2647559,4.93187102 45.58,5.07 C46.7157084,5.7691313 47.2535324,7.1340634 46.9,8.42 C46.74,9.15 46.59,9.88 46.45,10.62 L46.42,10.63 Z"/>
        <path id="Shape" fill="#3C454E" d="M48.7,36 C48.05,29.94 48.34,23.79 48.11,17.7 L48.45,17.7 C49.0464675,17.6779086 49.5120913,17.1764675 49.4899999,16.58 C49.4679086,15.9835325 48.9664675,15.5179086 48.37,15.54 L47.37,15.54 C47.86,12.33 48.37,6.99 48.64,4.22 C48.7007513,3.62353247 48.2664675,3.09075132 47.67,3.03 C47.0735325,2.96924868 46.5407513,3.40353247 46.48,4 C46.22,6.86 45.66,12.49 45.16,15.59 L45,15.59 C45,12.59 45.47,6.94 45.27,4.12 C45.2432051,3.73415315 45.0125987,3.39191087 44.6650481,3.22219252 C44.3174975,3.05247417 43.9058038,3.08106401 43.5850481,3.29719252 C43.2642924,3.51332104 43.0832051,3.88415315 43.11,4.27 C43.3,7.07 42.85,12.67 42.84,15.67 L42.5,15.67 C42.8531122,11.2801071 42.7827879,6.86641493 42.29,2.49 C42.2043959,1.89905532 41.6559447,1.48939586 41.065,1.575 C40.4740553,1.66060414 40.0643959,2.20905532 40.15,2.8 C40.6303107,7.1174307 40.6872483,11.4714858 40.32,15.8 L40.06,15.8 C40.1608794,11.1242613 39.9470632,6.44703273 39.42,1.8 C39.3399187,1.20629389 38.7937061,0.789918711 38.2,0.87 C37.6062939,0.950081289 37.1899187,1.49629389 37.27,2.09 C37.7889964,6.70743284 37.9928016,11.3548607 37.88,16 L37.68,16 C37.39,12.41 36.68,6.5 36.32,3.46 C36.2126922,2.90395663 35.6974549,2.52270776 35.1343352,2.58266958 C34.5712155,2.6426314 34.1478127,3.12382806 34.16,3.69 C34.45,6.35 35.06,11.21 35.39,14.77 C35.2961116,14.1790554 34.7409447,13.7761117 34.15,13.8700001 C33.5590554,13.9638885 33.1561116,14.5190553 33.25,15.11 C34.56,23.26 34.41,32.41 35.25,40.45 C35.37,41.64 35.32,44.88 35.5,47.08 C35.5194652,47.9166834 35.688812,48.7430959 36,49.52 C36.8677369,50.6558205 38.1923097,51.3510382 39.62,51.42 C42.93,51.9 47.68,50.95 48.79,50.28 C49.1339128,50.0654965 49.4002162,49.7466332 49.55,49.37 C49.828965,48.5501243 49.9510917,47.6850602 49.91,46.82 C49.87,43.74 49,38.7 48.7,36 Z M47.52,48.48 L47.52,48.48 C45.4657371,49.165389 43.3036972,49.4703789 41.14,49.38 C40.3653882,49.3723234 39.5952622,49.2613446 38.85,49.05 C38.4540125,48.9615469 38.1007488,48.7389908 37.85,48.42 C37.6941454,47.9253132 37.6198408,47.4085581 37.63,46.89 C37.45,44.68 37.49,41.41 37.38,40.22 C36.69,33.28 36.7,25.53 35.89,18.3 C39.23,17.98 42.61,17.87 45.97,17.76 C45.97,17.76 45.97,17.76 45.97,17.82 C46.21,23.96 45.97,30.16 46.57,36.27 C46.85,38.88 47.73,43.81 47.74,46.83 C47.7155006,47.3854144 47.6418799,47.9375696 47.52,48.48 L47.52,48.48 Z"/>
        <path id="Path" fill="#EBE350" fill-opacity=".5" fill-rule="nonzero" d="M27.94,39.11 C26.03,37.24 24.16,37.76 21.69,37.9 C19.2426126,38.0600098 16.7873874,38.0600098 14.34,37.9 C13.6407138,37.8640782 12.9452821,37.7738058 12.26,37.63 C13.0196198,35.4166959 13.0196198,33.0133041 12.26,30.8 C11.6919005,29.5046431 10.9915172,28.2714322 10.17,27.12 C9.49,26.01 9.17,25.82 9.72,24.61 C10.07,23.92 10.72,23.28 11.17,22.61 C11.62,21.94 11.55,20.53 10.7,20.24 C8.13,19.24 5.63,21.09 4.78,23.51 C4.19957116,25.4166048 4.220521,27.455723 4.84,29.35 C5.10929329,30.2140209 5.44358095,31.0564258 5.84,31.87 L6.13,32.52 C5.3346259,33.6933451 4.98036174,35.1104018 5.13,36.52 C3.72658208,36.4127713 2.31724327,36.628277 1.01,37.15 C0.01,37.63 0.01,39.4 0.56,40.22 C3.28,44.63 9.14,46 14,46.79 C18.48,47.54 25.67,48.95 28.59,44.63 C29.6183452,42.8551488 29.3710676,40.6174886 27.98,39.11 L27.94,39.11 Z"/>
        <path id="Path" fill="#3D454C" fill-rule="nonzero" d="M15.63,44.09 L22.13,44.09 C22.7071376,44.09 23.175,43.6221376 23.175,43.045 C23.175,42.4678624 22.7071376,42 22.13,42 L15.63,42 C15.0528624,42 14.585,42.4678624 14.585,43.045 C14.585,43.6221376 15.0528624,44.09 15.63,44.09 Z"/>
        <path id="Shape" fill="#3D454C" fill-rule="nonzero" d="M27.69,38.66 L11,38.66 C11.1183791,38.0194147 11.292371,37.3903673 11.52,36.78 C11.8721366,35.9146295 12.0912846,35.0009512 12.17,34.07 C12.1001481,33.1965229 11.8731746,32.3428317 11.5,31.55 L27.69,31.55 C28.2671376,31.55 28.735,31.0821376 28.735,30.505 C28.735,29.9278624 28.2671376,29.46 27.69,29.46 L11.06,29.46 C11.15,28.98 11.34,28.3 11.52,27.7 L27.78,26.22 C28.1515562,26.1878461 28.4777344,25.9599118 28.6356664,25.6220577 C28.7935984,25.2842036 28.7592906,24.8877579 28.5456664,24.5820577 C28.3320422,24.2763575 27.9715562,24.1078461 27.6,24.14 L12.07,25.54 C12.1420777,25.2113034 12.1822639,24.8764176 12.19,24.54 C12.19,23.9656239 11.7243761,23.5 11.15,23.5 C10.5756239,23.5 10.11,23.9656239 10.11,24.54 C10.0788118,24.9334821 10.0050473,25.3224222 9.89,25.7 L7.44,26 C7.44430728,25.9167223 7.44430728,25.8332777 7.44,25.75 C7.44,25.1728624 6.97213756,24.705 6.395,24.705 C5.81786244,24.705 5.35,25.1728624 5.35,25.75 C5.3431267,25.898816 5.31964772,26.0463981 5.28,26.19 L1.6,26.5 C1.02562386,26.5248528 0.580147186,27.0106239 0.605,27.585 C0.629852814,28.1593761 1.11562386,28.6048528 1.69,28.58 L1.79,28.58 L4.53,28.33 C4.39568765,28.6953134 4.30179439,29.0742397 4.25,29.46 L1.69,29.46 C1.11286244,29.46 0.645,29.9278624 0.645,30.505 C0.645,31.0821376 1.11286244,31.55 1.69,31.55 L4.56,31.55 C4.65,31.82 4.76,32.1 4.87,32.37 C5.12333588,32.9082505 5.29521593,33.481184 5.38,34.07 C5.27951819,34.7535129 5.10516437,35.4241045 4.86,36.07 C4.54331482,36.8894194 4.33488921,37.7466537 4.24,38.62 L1.65,38.62 C1.33349043,38.6144663 1.03305197,38.7591218 0.84,39.01 C0.637240611,39.2548652 0.56299367,39.5815517 0.64,39.89 C1.56168402,43.9146099 4.12050569,47.3722811 7.7,49.43 L7.7,50.9 C7.69965714,51.1741113 7.81184953,51.4363464 8.01034405,51.6253888 C8.20883856,51.8144311 8.47623139,51.9137058 8.75,51.9 L20.6,51.9 C21.1522847,51.9 21.6,51.4522847 21.6,50.9 L21.6,49.47 C25.184954,47.416229 27.7482336,43.9574331 28.67,39.93 C28.7363439,39.6215261 28.6631554,39.2994968 28.47,39.05 C28.2833641,38.8075073 27.9959757,38.6638131 27.69,38.66 Z M6.84,36.75 C7.17701196,35.8879045 7.38915442,34.9820899 7.47,34.06 C7.40241406,33.2021303 7.17518418,32.3644321 6.8,31.59 L6.8,31.54 L9.3,31.54 C9.39,31.8 9.5,32.06 9.6,32.32 C9.86218645,32.873933 10.040795,33.4636783 10.13,34.07 C10.0245573,34.7545938 9.84344834,35.4253678 9.59,36.07 C9.26785481,36.88547 9.05273056,37.7392444 8.95,38.61 L6.35,38.61 C6.45668141,37.9764431 6.62068851,37.3538855 6.84,36.75 L6.84,36.75 Z M9.3,27.89 C9.16590809,28.4028607 9.06569181,28.9239854 9,29.45 L6.4,29.45 C6.52798373,29.0126332 6.67817861,28.5820746 6.85,28.16 L6.85,28.16 L9.3,27.89 Z M20.12,47.89 C19.7666688,48.0628789 19.5475088,48.426841 19.56,48.82 L19.56,49.82 L9.79,49.82 L9.79,48.82 C9.78828434,48.4306833 9.57328927,48.0736379 9.23,47.89 C6.30995565,46.3980155 4.07827206,43.8367735 3,40.74 L26.31,40.74 C25.2483862,43.8436962 23.0314101,46.4188267 20.12,47.93 L20.12,47.89 Z"/>
        <path id="Path" fill="#3D454C" fill-rule="nonzero" d="M11.43,44.1 C11.5924658,44.1053624 11.7537897,44.0710381 11.9,44 C12.3038819,43.7526553 12.4788674,43.2559123 12.3191814,42.810042 C12.1594954,42.3641717 11.7089355,42.0914643 11.2398559,42.156766 C10.7707763,42.2220677 10.411833,42.6074679 10.38,43.08 C10.3824841,43.2331557 10.4201186,43.3836937 10.49,43.52 C10.6584534,43.8845369 11.0286322,44.112945 11.43,44.1 L11.43,44.1 Z"/>
      </g>
    </g>
  </g>
</svg>
