<svg xmlns="http://www.w3.org/2000/svg" width="64" height="64" viewBox="0 0 64 64" style="background:#fff">
  <g id="Nudeln-(mit-Ei)" fill="none" fill-rule="evenodd" stroke="none" stroke-width="1">
    <rect width="64" height="64" fill="#FFF"/>
    <g id="26-2-Nudeln-mit-ei" transform="translate(2 6)">
      <g id="Layer_2">
        <rect id="Rectangle" width="60" height="60" x="0" y="0"/>
      </g>
      <g id="Layer_1" transform="translate(5 4)">
        <path id="Path" fill="#D3BA48" fill-opacity=".5" d="M47.81,11.07 C48.3336849,13.2721607 48.7310003,15.5024687 49,17.75 C49.4,21.23 49.56,24.75 49.68,28.25 C49.78,31.12 49.9,34.07 49.9,37 C49.9,39.14 49.9,41.28 49.69,43.38 C49.33,48.1 45.92,51.57 42.08,51.14 C38.24,50.71 35.4,46.52 35.76,41.8 L35.67,29 C35.57,26.08 35.46,23.12 35.12,20.2 C34.9482192,18.6436924 34.674295,17.1003635 34.3,15.58 C34.12,15.17 33.61,13.99 33.38,13.3 C31.93,8.91 33.66,3.9 37.24,2.12 C40.43,0.54 44,2 45.78,5.48 C46.1315535,5.39541291 46.5002374,5.41628181 46.84,5.54 C48.0758681,6.15370673 48.6917804,7.56693006 48.3,8.89 C48.12,9.61 47.96,10.34 47.81,11.07 Z"/>
        <path id="Path" fill="#DFA077" fill-opacity=".5" d="M15.58,9.51 C15.2900638,11.3229705 13.6274756,12.5887121 11.8027297,12.3856657 C9.9779839,12.1826193 8.63430653,10.5823592 8.75,8.75 C9.05,5.75 10.31,3.85 12.12,2.97 C13.7570343,2.24905713 15.613729,2.20947643 17.28,2.86 C18.9973223,3.42681811 19.9825339,5.22656295 19.5346282,6.97866436 C19.0867226,8.73076577 17.3586571,9.83689093 15.58,9.51 L15.58,9.51 Z"/>
        <path id="Shape" fill="#3C454E" d="M48.53,35.85 C47.88,29.85 48.17,23.69 47.94,17.63 C47.94,17.63 47.94,17.63 47.94,17.57 L48.27,17.57 C48.6558469,17.5557094 49.0047601,17.3366575 49.1853075,16.995359 C49.3658549,16.6540605 49.350607,16.2423668 49.1453075,15.915359 C48.940008,15.5883511 48.5758468,15.3957094 48.19,15.41 L47.19,15.41 C47.68,12.21 48.19,6.9 48.46,4.14 C48.4565962,3.57328535 48.0157236,3.105594 47.4501964,3.06876898 C46.8846693,3.03194395 46.3868681,3.43851236 46.31,4 C46.06,6.85 45.5,12.45 45.01,15.54 L44.84,15.54 C44.84,12.54 45.3,6.91 45.11,4.1 C44.974542,3.60725764 44.5122742,3.2768972 44.0022189,3.30832241 C43.4921637,3.33974762 43.0739461,3.72435597 43,4.23 C43.19,7.03 42.74,12.61 42.73,15.6 L42.4,15.6 C42.7430652,11.2264681 42.6727537,6.83032381 42.19,2.47 C42.1016344,1.86524823 41.5397518,1.4466345 40.935,1.53500006 C40.3302482,1.62336561 39.9116345,2.18524822 40,2.79 C40.4782786,7.08079201 40.535217,11.4081094 40.17,15.71 L39.91,15.71 C40.0136235,11.0342286 39.7997989,6.35681491 39.27,1.71 C39.2253187,1.32151823 38.9741324,0.987534362 38.6132965,0.836829646 C38.2524605,0.68612493 37.8383464,0.742243197 37.5306329,0.983545736 C37.2229194,1.22484827 37.0696791,1.61363762 37.13,2 C37.6511986,6.59386294 37.8583464,11.2179349 37.75,15.84 L37.55,15.84 C37.26,12.25 36.55,6.37 36.19,3.34 C36.1807327,2.93248312 35.9428122,2.564901 35.5748253,2.38956828 C35.2068385,2.21423556 34.7714841,2.26102598 34.4491595,2.51055105 C34.1268349,2.76007612 33.9724589,3.16982096 34.05,3.57 C34.33,6.22 34.94,11.06 35.27,14.57 C35.1777062,13.9825272 34.6278592,13.5802001 34.04,13.67 C33.4510946,13.7672015 33.0498936,14.3199674 33.14,14.91 C34.44,23.03 34.29,32.14 35.08,40.15 C35.2,41.33 35.15,44.56 35.33,46.75 C35.3517758,47.5938711 35.5245023,48.4270224 35.84,49.21 C36.7052517,50.3368765 38.0210978,51.0276957 39.44,51.1 C42.74,51.57 47.44,50.62 48.58,49.96 C48.9239128,49.7454965 49.1902162,49.4266332 49.34,49.05 C49.614225,48.2359006 49.7362582,47.3782788 49.7,46.52 C49.69,43.52 48.81,38.51 48.53,35.85 Z M47.35,48.25 C45.3062146,48.9359379 43.1539012,49.2409901 41,49.15 C40.224919,49.1393088 39.4547528,49.024961 38.71,48.81 C38.312828,48.730633 37.9576987,48.5104529 37.71,48.19 C37.5602612,47.6939391 37.4860959,47.1781533 37.49,46.66 C37.32,44.46 37.36,41.21 37.24,40.02 C36.56,33.11 36.56,25.39 35.75,18.18 C39.09,17.87 42.45,17.76 45.75,17.64 C45.75,17.64 45.75,17.69 45.75,17.71 C45.99,23.82 45.7,30 46.35,36.08 C46.63,38.68 47.5,43.59 47.51,46.6 C47.4953719,47.1545214 47.4317915,47.7066671 47.32,48.25 L47.35,48.25 Z"/>
        <path id="Path" fill="#D3BA48" fill-opacity=".5" fill-rule="nonzero" d="M27.85,38.91 C25.94,37.05 24.08,37.57 21.62,37.71 C19.1826234,37.8700143 16.7373766,37.8700143 14.3,37.71 C13.6007679,37.6734806 12.9053822,37.5832142 12.22,37.44 C12.9897526,35.2352554 12.9897526,32.8347446 12.22,30.63 C11.6607136,29.3500002 10.9668069,28.1331493 10.15,27 C9.46,25.9 9.15,25.7 9.7,24.5 C10.05,23.81 10.7,23.17 11.15,22.5 C11.6,21.83 11.52,20.43 10.68,20.15 C8.12,19.15 5.68,20.99 4.77,23.41 C4.19782678,25.3081413 4.22226116,27.336195 4.84,29.22 C5.11187752,30.0798622 5.44609716,30.9187535 5.84,31.73 C5.97,32 6.06,32.22 6.13,32.38 C5.3346259,33.5533451 4.98036174,34.9704018 5.13,36.38 C3.72386007,36.2629653 2.30979398,36.4752464 1,37 C-2.77555756e-17,37.48 -2.77555756e-17,39.24 0.54,40.06 C3.32,44.46 9.16,45.82 13.97,46.62 C18.43,47.36 25.59,48.76 28.49,44.46 C29.5210517,42.6941614 29.2775423,40.4619919 27.89,38.96 L27.85,38.91 Z"/>
        <path id="Path" fill="#3D454C" fill-rule="nonzero" d="M15.59,43.87 L22.06,43.87 C22.6343761,43.87 23.1,43.4043761 23.1,42.83 C23.1,42.2556239 22.6343761,41.79 22.06,41.79 L15.59,41.79 C15.0156239,41.79 14.55,42.2556239 14.55,42.83 C14.55,43.4043761 15.0156239,43.87 15.59,43.87 L15.59,43.87 Z"/>
        <path id="Shape" fill="#3D454C" fill-rule="nonzero" d="M27.6,38.46 L11,38.46 C11.1157393,37.8231221 11.2863759,37.1974547 11.51,36.59 C11.861892,35.7280275 12.0810496,34.8176807 12.16,33.89 C12.0889636,33.0199297 11.8620176,32.1697287 11.49,31.38 L27.6,31.38 C28.1743761,31.38 28.64,30.9143761 28.64,30.34 C28.64,29.7656239 28.1743761,29.3 27.6,29.3 L11,29.3 C11.09,28.82 11.28,28.14 11.45,27.54 L27.7,26.06 C28.2688533,26.0075329 28.6874671,25.5038533 28.635,24.935 C28.5825329,24.3661467 28.0788533,23.9475329 27.51,24 L12,25.4 C12.0714748,25.0712016 12.1116541,24.7363738 12.12,24.4 C12.12,23.8283853 11.6566147,23.365 11.085,23.365 C10.5133853,23.365 10.05,23.8283853 10.05,24.4 C10.0129085,24.7926681 9.93925591,25.1810183 9.83,25.56 L7.39,25.78 C7.3949532,25.7000767 7.3949532,25.6199233 7.39,25.54 C7.39,24.9683853 6.92661472,24.505 6.355,24.505 C5.78338528,24.505 5.32,24.9683853 5.32,25.54 C5.30913338,25.6858269 5.28230634,25.8300223 5.24,25.97 L1.55,26.31 C0.978385305,26.3348528 0.535147238,26.8183853 0.560000051,27.39 C0.584852864,27.9616147 1.0683853,28.4048528 1.64,28.38 L1.74,28.38 L4.46,28.13 C4.33040044,28.4933195 4.2366213,28.868436 4.18,29.25 L1.7,29.25 C1.12562386,29.25 0.66,29.7156239 0.66,30.29 C0.66,30.8643761 1.12562386,31.33 1.7,31.33 L4.55,31.33 L4.86,32.15 C5.1158444,32.6845612 5.29108013,33.2540774 5.38,33.84 C5.28160036,34.5249865 5.10373478,35.1961773 4.85,35.84 C4.54193019,36.6580357 4.33701753,37.5112786 4.24,38.38 L1.66,38.38 C1.3458349,38.3847679 1.04964314,38.5273788 0.85,38.77 C0.647240611,39.0148652 0.57299367,39.3415517 0.65,39.65 C1.56176656,43.6543884 4.0975027,47.0993671 7.65,49.16 L7.65,50.7 C7.65,51.2522847 8.09771525,51.7 8.65,51.7 L20.54,51.7 C21.0922847,51.7 21.54,51.2522847 21.54,50.7 L21.54,49.24 C25.0974649,47.1849124 27.6350045,43.7374836 28.54,39.73 C28.6265228,39.422304 28.5607452,39.0917865 28.3630094,38.8406619 C28.1652735,38.5895374 27.8594066,38.4480665 27.54,38.46 L27.6,38.46 Z M6.8,28 L6.8,28 L9.26,27.78 C9.11150951,28.2883232 8.99791182,28.806195 8.92,29.33 L6.35,29.33 C6.4747599,28.8785233 6.62500069,28.4344784 6.8,28 Z M6.8,36.55 C7.13518545,35.6913511 7.34402715,34.788616 7.42,33.87 C7.35479187,33.0161091 7.13096832,32.1818577 6.76,31.41 L6.76,31.36 L9.25,31.36 C9.33666667,31.62 9.43666667,31.88 9.55,32.14 C9.81193482,32.690524 9.99055462,33.2769362 10.08,33.88 C9.97661357,34.5661156 9.79198329,35.2374985 9.53,35.88 C9.21467014,36.6929341 9.00626028,37.5433808 8.91,38.41 L6.31,38.41 C6.42780911,37.7790583 6.60183631,37.1599231 6.83,36.56 L6.8,36.55 Z M20.06,47.7 C19.7100265,47.8713639 19.491472,48.2304178 19.5,48.62 L19.5,49.62 L9.77,49.62 L9.77,48.62 C9.77852802,48.2304178 9.55997347,47.8713639 9.21,47.7 C6.2929659,46.2049325 4.0675919,43.6391228 3,40.54 L26.23,40.54 C25.1693003,43.630552 22.9599562,46.1943939 20.06,47.7 L20.06,47.7 Z"/>
        <path id="Path" fill="#3D454C" fill-rule="nonzero" d="M11.4,43.88 C11.5629592,43.879262 11.7236387,43.8416562 11.87,43.77 C12.2774387,43.5267928 12.4578611,43.0307384 12.3018735,42.5826047 C12.1458859,42.1344709 11.696443,41.8576617 11.2260512,41.9200121 C10.7556594,41.9823626 10.393852,42.366703 10.36,42.84 C10.3578334,42.9957409 10.3920765,43.1498347 10.46,43.29 C10.6254371,43.6584469 10.9962711,43.8912044 11.4,43.88 Z"/>
        <path id="Shape" fill="#3D454C" d="M8.89,3.6 C9.8586741,2.50157379 11.2456363,1.86255454 12.71,1.84 C15.069514,1.78410559 17.3897723,2.45052564 19.36,3.75 C19.5997982,3.90243867 19.7634232,4.14969422 19.81,4.43 L20.26,6.84 C20.3279051,7.14066373 20.2533601,7.45584207 20.0579604,7.6942298 C19.8625606,7.93261753 19.5681435,8.06757283 19.26,8.06 L17.3,8.06 L17.67,10.06 C17.7289204,10.3636563 17.6440015,10.6774873 17.44,10.91 C17.2491779,11.151492 16.9577803,11.291658 16.65,11.29 L14.7,11.29 L15.07,13.24 C15.1218843,13.5464661 15.0379393,13.8603472 14.84,14.1 C14.6471772,14.3377465 14.356084,14.4740813 14.05,14.47 L11.63,14.47 C11.3255929,14.4765261 11.0347954,14.3440108 10.84,14.11 C9.24674954,12.3242258 8.20477652,10.115243 7.84,7.75 C7.60211484,6.2810329 7.98212786,4.7790767 8.89,3.6 Z M17.89,5.26 C16.385,4.34513378 14.6509407,3.87693778 12.89,3.91 C12.0033312,3.89564185 11.1524428,4.25926934 10.55,4.91 L10.55,4.91 C10.0256121,5.65284016 9.8236572,6.5760625 9.99,7.47 C10.2696002,9.26349737 11.0259688,10.9489214 12.18,12.35 L12.86,12.35 L12.49,10.35 C12.4283764,10.0479019 12.5095522,9.73426791 12.71,9.5 C12.9029791,9.2557125 13.198721,9.11523512 13.51,9.12 L15.45,9.12 L15,7.22 C14.9383764,6.91790186 15.0195522,6.60426791 15.22,6.37 C15.4129791,6.1257125 15.708721,5.98523512 16.02,5.99 L18,5.99 L17.87,5.26 L17.89,5.26 Z"/>
      </g>
    </g>
  </g>
</svg>
