<svg xmlns="http://www.w3.org/2000/svg" width="64" height="64" viewBox="0 0 64 64" style="background:#fff">
  <g id="Nüsse" fill="none" fill-rule="evenodd" stroke="none" stroke-width="1">
    <rect width="64" height="64" fill="#FFF"/>
    <g transform="translate(2 6)">
      <rect id="Rectangle" width="60" height="60" x="0" y="0"/>
      <path id="Path" fill="#E0A075" fill-rule="nonzero" d="M51,31.85 C49.24,29.64 46.44,28.65 44.08,30.71 C42.08,32.43 41.32,35.41 41.43,38.07 C41.2607291,38.1467833 41.0870971,38.2135648 40.91,38.27 C38.16,39.07 35.43,38.27 32.67,39.09 C28.77,40.24 28.96,47.37 31.02,49.79 C35.3780872,54.6482542 42.6935268,55.4495921 48,51.65 C53.7,47.5 55.45,37.35 51,31.85 Z" opacity=".5"/>
      <path id="Path" fill="#31E085" fill-rule="nonzero" d="M25.84,25.67 C25.7042353,25.4634843 25.5089507,25.3030719 25.28,25.21 C23.28,23.99 20.67,25.78 19.28,27.41 C17.47,29.58 16.82,32.33 16.21,35.02 C15.85,36.61 17.3,40.29 19.32,38.48 C21.9275141,36.3103632 24.0616089,33.6282791 25.59,30.6 L25.77,30.48 C27.07,29.45 26.94,26.83 25.84,25.67 Z" opacity=".5"/>
      <path id="Path" fill="#E0A075" fill-rule="nonzero" d="M14,23.49 C12.2430817,25.6527513 10.6582364,27.9497738 9.26,30.36 C7.76,32.82 6,35.35 5,38.09 C4.46439079,39.5890859 4.64494481,41.2509198 5.49,42.6 C6.19,43.54 7.49,44.09 8.49,43.11 C10.49,41.11 11.72,38.31 13.09,35.88 C14.5953996,33.3270307 15.9316051,30.6780032 17.09,27.95 C17.71,26.43 16.21,20.94 14,23.49 Z" opacity=".5"/>
      <path id="Path" fill="#E0A075" fill-rule="nonzero" d="M20 40.06C18.14 39.32 16.23 40.13 14.34 40.47 12.4054903 40.736473 10.5132955 41.2506929 8.71 42 6.71 42.92 6.82 47.07 8.86 47.88 10.7763317 48.5874244 12.8415314 48.7939444 14.86 48.48 16.93 48.24 19.17 48.02 20.66 46.48 22.15 44.94 22.32 41 20 40.06zM46.74 12.89C46.4462184 12.4462741 46.1114152 12.0311181 45.74 11.65 46.8564756 9.76631083 46.6173749 7.37530413 45.15 5.75 41.76 2 35.39 5.93 33 9 29.45 13.6 29.1 21.21 33.79 25.23 37.79 28.66 44.11 28.67 46.97 23.85 48.8802679 20.4237156 48.7923267 16.2331278 46.74 12.89z" opacity=".5"/>
      <path id="Shape" fill="#3D454C" fill-rule="nonzero" d="M28.21,30.69 C27.8848958,30.3747346 27.3885051,30.317301 27,30.55 L26.89,30.64 L26.84,30.64 C27.39,28.56 27.62,26.24 26.38,25.09 C25.38,24.09 23.38,24.09 20.38,24.87 C20.3578666,24.4899312 20.266359,24.1171225 20.11,23.77 C19.9620164,23.4413 19.7133784,23.1681483 19.4,22.99 C19.0969949,22.8171627 18.7403801,22.7636705 18.4,22.84 C17.7564064,23.0191378 17.2033507,23.4330375 16.85,24 C15.5113003,24.2630242 14.2155986,24.7106303 13,25.33 C10.1461294,26.7986165 7.74415158,29.0139658 6.05,31.74 C2.51,37.5 3.78,42.26 6.14,44.81 C7.88926717,46.66327 10.3422217,47.6880599 12.89,47.63 C14.9316783,47.6033765 16.9374145,47.0890851 18.74,46.13 C21.7632524,44.4576222 24.2732752,41.9925447 26,39 C26.6575293,37.9035871 27.2195981,36.7526844 27.68,35.56 C28.2209453,34.3250229 28.5196886,32.9976517 28.56,31.65 C28.5715,31.2968382 28.4461023,30.9528902 28.21,30.69 L28.21,30.69 Z M25,26.58 C25.59,27.14 25.28,29.84 23.78,33.28 C21.5560816,35.1869579 19.1704134,36.8967426 16.65,38.39 C14.5464357,39.6854486 12.3187054,40.767489 10,41.62 C12.2593286,39.786997 14.2756019,37.6732705 16,35.33 C17.8693402,32.8524586 19.2598173,30.0477645 20.1,27.06 C23.25,26.09 24.65,26.28 25,26.58 Z M6.67,42.16 C5.3,39.62 5.67,36.16 7.75,32.78 C9.25855019,30.369955 11.3857498,28.4085112 13.91,27.1 C14.9953175,26.5398141 16.1529783,26.1326136 17.35,25.89 C17.7570126,25.8033894 18.1150888,25.5634783 18.35,25.22 L18.35,25.22 C18.3541462,25.5946517 18.3070433,25.9681109 18.21,26.33 C17.4322596,29.156498 16.1258741,31.8099873 14.36,34.15 C12.3723288,36.8320745 9.98448778,39.1929342 7.28,41.15 C6.95840498,41.3993293 6.74098838,41.7593142 6.67,42.16 L6.67,42.16 Z M25.82,34.83 C25.3933827,35.9266375 24.8783544,36.9867932 24.28,38 C22.7449008,40.6730021 20.5119228,42.8783271 17.82,44.38 C14.35,46.17 10.75,46.06 8.35,44.17 C8.48513311,44.1647602 8.61927672,44.1446386 8.75,44.11 C11.8822932,43.1894345 14.873507,41.8435565 17.64,40.11 C20.7193341,38.3085662 23.5901006,36.1722598 26.2,33.74 C26.1,34.07 26,34.43 25.82,34.83 Z"/>
      <path id="Path" fill="#3D454C" fill-rule="nonzero" d="M13.34,30.21 C13.0947269,30.107359 12.8186756,30.1066217 12.5728578,30.2079512 C12.3270399,30.3092807 12.131696,30.5043335 12.03,30.75 C11.3078056,32.610177 10.1963034,34.294478 8.77,35.69 L7.77,36.78 C7.53241837,37.0479492 7.45583308,37.4222927 7.56909308,37.7620191 C7.68235307,38.1017454 7.96825147,38.355242 8.31909309,38.4270191 C8.66993472,38.4987962 9.03241839,38.3779492 9.27,38.11 L10.27,37.04 C11.8500002,35.4738797 13.083309,33.5932542 13.89,31.52 C13.992074,31.2734677 13.9913884,30.9963657 13.8880958,30.7503415 C13.7848032,30.5043172 13.587471,30.3097768 13.34,30.21 Z"/>
      <path id="Shape" fill="#3D454C" fill-rule="nonzero" d="M54.11,37.14 C54.11,36.87 54.04,36.59 53.98,36.29 L53.91,35.94 L53.91,35.94 L53.84,35.63 C53.4802794,33.9502514 52.7566204,32.3698074 51.72,31 C50.8737893,29.8246706 49.5981499,29.0305401 48.17,28.79 C47.900577,28.7650379 47.629423,28.7650379 47.36,28.79 C47.2122276,28.800824 47.0652751,28.820863 46.92,28.85 C45.8868826,28.9273749 44.972809,29.5481832 44.52,30.48 L44.43,30.48 C43.9331495,30.5226109 43.4500909,30.6654873 43.01,30.9 C42.1171296,31.5042078 41.6080887,32.5336861 41.67,33.61 C41.67,33.7366667 41.67,33.9066667 41.67,34.12 C41.85,36.93 41.67,40.29 39.09,41.37 C37.9357874,41.7868386 36.6794718,41.8288324 35.5,41.49 C34.8034404,41.3347689 34.0934276,41.2476919 33.38,41.23 L33.38,41.23 C32.1793574,41.1710091 30.9875155,41.4628888 29.95,42.07 C28.69538,42.9206965 28.0294184,44.4074945 28.23,45.91 C28.3442729,47.9797912 29.2715676,49.9206406 30.81,51.31 C32.4825557,52.7574244 34.5526219,53.6669989 36.75,53.92 C37.6116115,54.0386057 38.4802643,54.0987432 39.35,54.1 C40.0413757,54.1079188 40.7326071,54.074526 41.42,54 C48.0003721,53.3283773 53.2503017,48.2110426 54.09,41.65 C54.2918415,40.1538689 54.2985644,38.6378624 54.11,37.14 L54.11,37.14 Z M52.11,41.37 C51.7508589,44.1072342 50.491409,46.6472421 48.53,48.59 C46.5226867,50.5055205 43.9388193,51.7042944 41.18,52 C39.8091806,52.17944 38.4208194,52.17944 37.05,52 C35.2525871,51.8050418 33.5555567,51.0732628 32.18,49.9 C31.0179596,48.8604552 30.3225044,47.397477 30.25,45.84 C30.1063656,45.0723672 30.4226792,44.291346 31.06,43.84 C31.7794394,43.4612757 32.5882115,43.2850048 33.4,43.33 L33.4,43.33 C33.9893311,43.3507095 34.5753316,43.4277267 35.15,43.56 C36.713571,43.9708453 38.3660447,43.8869989 39.88,43.32 C44.15,41.56 43.82,36.14 43.69,34.1 C43.69,33.9066667 43.69,33.7566667 43.69,33.65 C43.619252,33.26516 43.7794589,32.8744115 44.1,32.65 C44.3074289,32.5795549 44.5221038,32.5325948 44.74,32.51 C45.31,32.43 46.02,32.33 46.26,31.62 C46.4,31.2 46.46,31.01 47.26,30.86 C47.3365674,30.8544824 47.4134326,30.8544824 47.49,30.86 C47.6262491,30.8448913 47.7637509,30.8448913 47.9,30.86 C48.8075766,31.0508383 49.6084746,31.580003 50.14,32.34 C50.9847133,33.4591866 51.5751056,34.7491767 51.87,36.12 L52,36.7 C52,36.96 52.08,37.2 52.11,37.43 C52.2808224,38.7377787 52.2808224,40.0622213 52.11,41.37 L52.11,41.37 Z"/>
      <path id="Path" fill="#3D454C" fill-rule="nonzero" d="M47.63,34.88 C47.3909635,34.9963297 47.2080846,35.2030506 47.1217702,35.4544883 C47.0354558,35.7059259 47.0528106,35.9813838 47.17,36.22 C48.1639065,38.1799566 48.2801969,40.4694223 47.49,42.52 C46.9586035,43.867004 46.1033782,45.0622587 45,46 C43.923625,46.9290759 42.6246565,47.5630552 41.23,47.84 C39.3980658,48.2201351 37.491235,47.7899132 36,46.66 C35.5581722,46.3258677 34.9291323,46.4131722 34.595,46.855 C34.2608678,47.2968278 34.3481722,47.9258677 34.79,48.26 C36.2612905,49.389922 38.0648944,50.0016708 39.92,50.0000034 C40.470352,49.9958286 41.0192196,49.9422805 41.56,49.84 C43.2999782,49.5036504 44.9228802,48.7214874 46.27,47.57 C47.640562,46.4028782 48.7019369,44.9155794 49.36,43.24 C50.3560643,40.6729979 50.2105691,37.8031043 48.96,35.35 C48.7215024,34.8540741 48.1271358,34.6440347 47.63,34.88 Z"/>
      <path id="Shape" fill="#3D454C" fill-rule="nonzero" d="M34.73,26.14 L34.73,26.14 C36.0252775,26.9756237 37.511964,27.4677445 39.05,27.57 C39.2430187,27.5855994 39.4369813,27.5855994 39.63,27.57 C43.97,26.95 45.46,26.57 48.01,22.93 C48.77,21.83 49.58,17.47 47.67,13.98 L47.3,13.33 C47.1860713,13.1511364 47.0857872,12.9639394 47,12.77 C47.1021304,12.4074778 47.2394499,12.0558059 47.41,11.72 L47.64,11.21 C48.29,9.8 48.49,9.33 48.4,8.84 C48,6.38 45.26,6.69 43.47,6.9 C42.7378416,7.03281547 41.9911343,7.06645093 41.25,7 C39.81,6.7 35.58,6.71 33.96,7.84 C29.33,11.1 28.05,14.84 29.55,20.78 C30,22.34 32.2,24.66 34.73,26.14 Z M35.11,9.47 C35.9663633,9.0869074 36.8919404,8.88273597 37.83,8.87 C34.46,10.98 31.67,14.56 32.26,18.66 C32.3302496,19.1570163 32.758068,19.5249401 33.26,19.52 L33.4,19.52 C33.9467163,19.4426029 34.3272331,18.9367395 34.25,18.39 C33.58,13.72 38.85,9.71 42.77,9 L42.77,9 L43.7,8.9 C45.33,8.71 46.19,8.68 46.4,9.05 C46.3,9.33 46.05,9.89 45.84,10.35 L45.6,10.87 L45.6,10.87 C44.82,12.59 44.82,13.01 45.6,14.32 C45.69,14.49 45.81,14.69 45.94,14.92 C47.0162912,17.0432877 47.1788384,19.5140064 46.39,21.76 C44.63,24.28 43.62,24.86 41.28,25.28 C41.5394094,25.096717 41.7835415,24.8927161 42.01,24.67 C43.3746283,23.2156698 43.978064,21.2054515 43.64,19.24 C43.5554569,18.2774574 43.166685,17.3668205 42.53,16.64 L42.41,16.5 C42.1614719,16.0057051 41.5592949,15.8064719 41.065,16.055 C40.5707051,16.3035281 40.3714719,16.9057051 40.62,17.4 C40.727204,17.5984773 40.858167,17.7831687 41.01,17.95 C41.4033294,18.3813894 41.6332875,18.9368265 41.66,19.52 C41.9078429,20.860611 41.5158217,22.2400819 40.6,23.25 C39.6,24.25 37.83,24.64 35.6,24.33 C33.6,23.13 31.81,21.33 31.54,20.33 C30.2,15.16 31.18,12.23 35.11,9.47 Z"/>
      <path id="Path" fill="#3D454C" fill-rule="nonzero" d="M38.92,15.72 C39.4722847,15.72 39.92,15.2722847 39.92,14.72 C39.92,14.1677153 39.4722847,13.72 38.92,13.72 C38.3677153,13.72 37.92,14.1677153 37.92,14.72 C37.92,15.2722847 38.3677153,15.72 38.92,15.72 Z"/>
    </g>
  </g>
</svg>
