<svg xmlns="http://www.w3.org/2000/svg" width="64" height="64" viewBox="0 0 64 64" style="background:#fff">
  <g id="Olivenöl" fill="none" fill-rule="evenodd" stroke="none" stroke-width="1">
    <rect width="64" height="64" fill="#FFF"/>
    <g transform="translate(2 2)">
      <rect id="Rectangle" width="60" height="60" x="0" y="0"/>
      <path id="Path" fill="#31E085" fill-rule="nonzero" d="M53.88,36 C51.2,33.76 47.52,32.61 44.25,31.49 L43.69,31.3 C45.31,30.94 46.92,30.56 48.51,30.18 C50.51,29.72 50,24.52 47.91,24.94 C43.2624986,25.7476579 38.6752619,26.8702446 34.18,28.3 C33.6239833,28.5690834 33.2459931,29.1058295 33.18,29.72 C32.28,30.63 32.63,33.12 33.76,33.6 C36.88,34.93 40.2,35.79 43.39,36.95 C46.58,38.11 49.51,40.03 52.7,40.71 C55.1,41.22 55.24,37.15 53.88,36 Z" opacity=".5"/>
      <g id="Group" fill="#BAB41D" fill-rule="nonzero" opacity=".5" transform="translate(3 22)">
        <path id="Path" d="M22.83 5.94C20.52 4.54 17.92 1.57 15.42.48 13.3782683-.237659349 11.1263247-.0408875851 9.24 1.02 5.49 2.02 3.24 7.77 2 10.93-1.83186799e-15 15.93-.43 22.05 1.68 27.09 3.33028244 31.5802212 7.41633687 34.7206459 12.18 35.16 13.664875 35.2966798 15.1601457 35.2732114 16.64 35.09 17.49 35 18.34 34.89 19.17 34.73L21.45 34.24C22.41 33.96 22.29 34 21.09 34.36 25.16 34.9 28.31 30.06 29.42 27.19 31.05 23 31.27 17.06 29.05 13 27.4 10 25.81 7.75 22.83 5.94zM46.64 24C46.2683064 22.9408326 45.7643178 21.9328553 45.14 21 43.42 18.76 40.88 16.47 37.84 17.76 35.76 18.65 34.72 20.92 34.21 22.97 33.5548738 25.5741246 33.72612 28.3175586 34.7 30.82 35.65 33.37 37.45 34.82 39.6 36.05 40.1014266 36.4057419 40.6545505 36.6823038 41.24 36.87 45.77 38.1 47.7 32.64 47.61 29.1 47.5855409 27.3565437 47.2572925 25.6307017 46.64 24z"/>
      </g>
      <path id="Shape" fill="#3D454C" fill-rule="nonzero" d="M54.6,36.25 C53.6555861,35.7498213 52.7467662,35.1851501 51.88,34.56 C49.79,33.15 47.42,31.56 45.4,31.34 L45.2,31.34 C46.411094,30.8163009 47.5316331,30.1041511 48.52,29.23 C49.93,27.95 50.96,27.03 50.52,25.94 C50.08,24.85 48.87,24.79 47.36,24.72 C40.49,24.41 29.88,28.55 28.55,30.46 C27.3951351,30.1281663 26.2234911,29.8577869 25.04,29.65 C24.4877153,29.5533502 23.9616498,29.9227153 23.865,30.475 C23.7683502,31.0272847 24.1377153,31.5533502 24.69,31.65 C30.11,32.6 37.12,35.34 39.13,39.88 C36.59,41.78 35.7,46.15 37.13,50.71 C37.8347377,53.0319899 39.1753021,55.1103844 41,56.71 C42.1439772,57.7386046 43.612639,58.3331472 45.15,58.3901126 C45.6557693,58.3934897 46.1588248,58.3158368 46.64,58.16 C48.577693,57.4254928 49.9992141,55.7431074 50.4,53.71 C51.4483509,48.8911744 49.8475069,43.879008 46.2,40.56 C44.8063465,39.2548211 42.881956,38.677504 41,39 C40.6398008,38.2116824 40.1756778,37.4751393 39.62,36.81 C43.75,38.27 49,39.93 53,40.24 C53.38,40.24 53.72,40.24 54,40.24 C55.74,40.24 56.7,39.81 56.93,38.92 C57.32,37.52 55.34,36.6 54.6,36.25 Z M47.32,26.7 L48.21,26.76 C47.85,27.12 47.4,27.52 47.21,27.76 C45.03,29.76 40.68,31.76 32.33,30.35 C35.62,28.74 42.23,26.46 47.32,26.7 Z M45,42.06 C46.5317534,43.4187786 47.6538522,45.1781186 48.24,47.14 C48.9021918,49.0720034 49.0061705,51.1515785 48.54,53.14 C48.3204279,54.516913 47.3997053,55.6801305 46.11,56.21 C44.7528176,56.5109522 43.3357944,56.1001662 42.35,55.12 C40.8173931,53.7638029 39.6979503,52.0031933 39.12,50.04 C37.8,45.91 38.77,41.75 41.24,40.96 L41.24,40.96 C42.5994026,40.6458105 44.024288,41.0626653 45,42.06 Z M53.14,38.25 C47.27,37.78 37.94,34.06 34.88,32.83 L34.31,32.61 C34.84,32.67 35.31,32.71 35.84,32.74 L35.92,32.74 C37.53,32.89 38.73,32.93 40.01,32.98 C41.47,32.98 43.01,33.08 45.2,33.31 C46.73,33.46 48.97,34.98 50.77,36.2 C51.724503,36.8846002 52.7270996,37.4995261 53.77,38.04 L54.21,38.26 C53.8500747,38.2756674 53.4895734,38.2723294 53.13,38.25 L53.14,38.25 Z"/>
      <path id="Shape" fill="#3D454C" fill-rule="nonzero" d="M28.56,33.85 C26.489087,33.7616555 24.5192465,34.7484662 23.35,36.46 C21.9064491,38.414736 21.0434188,40.7369462 20.86,43.16 C20.33,48.74 22.86,53.4 26.67,53.75 L27.13,53.75 C29.0373432,53.6552138 30.7924292,52.6797554 31.88,51.11 C33.3235509,49.155264 34.1865812,46.8330538 34.37,44.41 C34.9,38.86 32.34,34.2 28.56,33.85 Z M32.38,44.25 C32.2319377,46.2914943 31.5109979,48.2498165 30.3,49.9 C29.5552237,51.0764731 28.2522428,51.7809918 26.86,51.76 C24.28,51.52 22.44,47.67 22.86,43.35 C23.0101927,41.3089661 23.7309225,39.3512144 24.94,37.7 C25.6527233,36.617328 26.8273946,35.9265622 28.12,35.83 L28.38,35.83 C31,36.08 32.79,39.93 32.38,44.25 L32.38,44.25 Z"/>
      <path id="Path" fill="#3D454C" fill-rule="nonzero" d="M27.25 47.78C26.6977153 47.78 26.25 48.2277153 26.25 48.78 26.25 49.3322847 26.6977153 49.78 27.25 49.78 27.8022847 49.78 28.25 49.3322847 28.25 48.78 28.25 48.2277153 27.8022847 47.78 27.25 47.78zM45.25 54.18C45.8022847 54.18 46.25 53.7322847 46.25 53.18 46.25 52.6277153 45.8022847 52.18 45.25 52.18 44.6977153 52.18 44.25 52.6277153 44.25 53.18 44.25 53.7322847 44.6977153 54.18 45.25 54.18z"/>
      <path id="Shape" fill="#3D454C" fill-rule="nonzero" d="M22.72,54.63 C21.03,56.92 16.26,55.94 13.72,55.94 C11.65,55.94 9.39,55.83 8.29,53.55 C8.15999303,52.7317988 8.15999303,51.8982012 8.29,51.08 L8.29,28.58 C8.29,26.58 7.92,24.16 8.29,22.18 C8.97,18.59 12.78,17.8 13.29,14.35 C13.4547563,13.0997487 13.3972041,11.8302158 13.12,10.6 L18.87,10.6 C18.58,12.6 18.52,14.93 19.55,16.51 C20.58,18.09 22.25,18.76 23.14,20.73 C24.03,22.7 23.83,24.78 23.81,27.03 C23.81,27.5822847 24.2577153,28.03 24.81,28.03 C25.3622847,28.03 25.81,27.5822847 25.81,27.03 C25.81,22.21 25.81,20.14 22.48,16.53 C19.48,13.31 21.48,10.82 21.65,7.53 C22.11,-0.69 8.8,0.09 10.45,8.59 C10.82,10.46 11.2,9.59 11.23,11.76 C11.29,14.97 10.57,15.36 8.46,17.58 C6.08,20.09 6.25,22.44 6.25,25.63 C6.25,34.72 5.47,44.17 6.25,53.22 C6.64,57.71 10.37,57.94 14.11,57.94 C17.85,57.94 22.04,58.94 24.45,55.64 C25.21,54.6 23.48,53.61 22.72,54.63 Z M16.86,3.94 C20.06,4.72 19.6,6.55 19.17,8.6 L12.64,8.6 C12.57,8.24 12.5,7.88 12.45,7.5 C12.14,5.06 14.58,3.39 16.86,3.94 Z"/>
      <path id="Shape" fill="#3D454C" fill-rule="nonzero" d="M17,24.16 C16.8062968,23.9452875 16.5291311,23.8249392 16.24,23.83 C15.9439543,23.8190326 15.6582836,23.9398933 15.46,24.16 C15.395464,24.2305255 15.3384869,24.3076121 15.29,24.39 C13.74,26.67 11.71,29.39 11.29,32.2 C11.0992862,33.6448618 11.532124,35.102645 12.4804263,36.2093157 C13.4287286,37.3159864 14.8029779,37.9670775 16.26,38 C17.6967867,37.9715966 19.0557841,37.3418436 20.0062646,36.2639988 C20.9567451,35.1861539 21.411551,33.7590539 21.26,32.33 C20.91,29.51 18.8,26.68 17.26,24.33 C17.1812036,24.2621232 17.0937795,24.2049614 17,24.16 Z M16.26,36 C12.44,36 13.26,31.9 14.4,29.77 C14.96,28.68 15.6,27.64 16.26,26.61 C16.87,27.55 17.46,28.51 17.98,29.49 C19.12,31.64 20.28,36 16.26,36 Z"/>
    </g>
  </g>
</svg>
