<svg xmlns="http://www.w3.org/2000/svg" width="64" height="64" viewBox="0 0 64 64" style="background:#fff">
  <g id="Oliven" fill="none" fill-rule="evenodd" stroke="none" stroke-width="1">
    <rect width="64" height="64" fill="#FFF"/>
    <g transform="translate(2 7)">
      <rect id="Rectangle" width="60" height="60" x="0" y="0"/>
      <g id="Group" fill="#BAB41D" fill-rule="nonzero" opacity=".5" transform="translate(15 27)">
        <path id="Path" d="M17.28,4.61 C16.45,2.73 14.55,0.16 12.05,0.43 C6.53,1 3.21,7.74 1.6,12.23 C0.753527583,14.6728834 0.587602535,17.30003 1.12,19.83 C1.54,21.76 2.62,24.41 4.35,25.65 C5.83,26.71 7.74,27.4 9.54,26.52 C11.41405,25.5742745 12.8221813,23.9061805 13.44,21.9 C13.6338061,21.1886217 13.8641109,20.4876939 14.13,19.8 L14.2,19.65 C14.15,19.65 14.2,19.54 14.49,19.03 L14.49,19.03 C14.524222,18.949276 14.5509999,18.8655951 14.57,18.78 L14.51,19 C15.59,17.17 16.9,15.45 17.51,13.4 C18.4859925,10.5366257 18.4044011,7.41841521 17.28,4.61 L17.28,4.61 Z"/>
        <path id="Path" d="M14.2,19.65 C14.3438245,19.4550762 14.4490475,19.2344474 14.51,19 L14.51,19 C14.41,19.24 14.29,19.45 14.2,19.65 Z"/>
      </g>
      <path id="Path" fill="#BAB41D" fill-rule="nonzero" d="M48,21.18 C47.2461653,20.3316299 46.1996128,19.799424 45.07,19.69 C44.695826,19.5528871 44.2980842,19.491696 43.9,19.51 C37.72,19.7 35.97,27.62 36.03,32.51 C36.0834671,38.2873488 38.4074679,43.8117897 42.5,47.89 C45.27,50.72 48.85,48.58 50.69,46.07 C56.2,38.59 54.1,27.55 48,21.18 Z" opacity=".5"/>
      <path id="Path" fill="#31E085" fill-rule="nonzero" d="M39.16,12.57 C35.36,11.22 31.35,10.28 27.43,9.3 C24.06,8.47 20.19,7.11 16.76,7.83 C15,8.2 14.87,11.09 16.1,12.12 C18.68,14.28 21.98,15.27 25.19,16.27 C24.12,16.44 23.07,16.63 22.03,16.9 C17.16,18.18 11.96,20.17 8.44,23.9 C7.58,24.81 7.27,28.77 9.36,28.42 C14.83,27.49 19.83,25 25.43,24.27 C30.05,23.67 34.2,23.71 38.15,21 C38.4974609,20.7451992 38.7674636,20.399042 38.93,20 C41.73,19.48 41.9,13.54 39.16,12.57 Z" opacity=".5"/>
      <path id="Shape" fill="#3D454C" fill-rule="nonzero" d="M29.64,28.55 C29.6891942,28.492963 29.7296362,28.4289298 29.76,28.36 C32.57,21.85 42.5,18 50.15,16.61 C50.7022847,16.5133502 51.0716498,15.9872847 50.975,15.435 C50.8783501,14.8827153 50.3522847,14.5133502 49.8,14.61 C48.0672103,14.9215348 46.3516067,15.3220648 44.66,15.81 L44.66,15.69 C43.27,13.21 28.37,7.38 18.74,7.8 C16.41,7.91 15.08,8.17 14.74,9.24 C14.4,10.31 15.44,11.55 17.48,13.39 C19.2279275,14.9337567 21.2683439,16.1103968 23.48,16.85 L21.56,17 C18.84,17.28 15.56,19.48 12.73,21.42 C11.509024,22.3056142 10.2294247,23.1074519 8.9,23.82 C7.4,24.52 5.45,25.62 5.85,27.13 C6.12,28.13 7.33,28.68 9.52,28.68 C9.96,28.68 10.44,28.66 10.96,28.62 C16.84,28.15 24.96,25.49 30.86,23.32 C29.6332316,24.5452293 28.6373148,25.9815175 27.92,27.56 C27.9152499,27.6132276 27.9152499,27.6667724 27.92,27.72 C23.2,26.34 17.58,30.84 15.34,37.87 C14.270871,40.9944713 14.1113456,44.3583761 14.88,47.57 C15.7,50.57 17.46,52.72 19.88,53.48 C20.5265921,53.6852003 21.2016588,53.7864603 21.88,53.7802907 C23.9248192,53.6994388 25.8772706,52.9071397 27.4,51.54 C29.8873031,49.3637766 31.70752,46.5277053 32.65,43.36 C34.52,37.14 33.2,31 29.64,28.55 Z M16.83,10 C17.4908654,9.88441705 18.1593333,9.81757026 18.83,9.8 C26.49,9.45 36.74,13.22 40.97,15.43 C40.6742793,15.455255 40.3803914,15.4986702 40.09,15.56 C28.09,17.64 21.9,14.72 18.78,11.91 C18.0955801,11.3094513 17.444603,10.6718277 16.83,10 Z M10.83,26.62 C9.93811805,26.7224727 9.0364023,26.702285 8.15,26.56 C8.65480371,26.1923655 9.19797739,25.8805435 9.77,25.63 C11.1964882,24.8820754 12.569741,24.0367397 13.88,23.1 C16.55,21.29 19.58,19.24 21.79,19.01 C24.9,18.69 27,18.62 29.04,18.55 C30.8,18.49 32.47,18.43 34.7,18.22 C34.7365287,18.2244983 34.7734713,18.2244983 34.81,18.22 C36.4114087,18.1259025 38.0068754,17.9489993 39.59,17.69 C38.9233333,17.97 38.2833333,18.27 37.67,18.59 C37.5,18.64 37.2,18.76 36.31,19.11 C32,20.79 19,26 10.8,26.62 L10.83,26.62 Z M30.62,42.76 C29.7947007,45.5612397 28.1928841,48.0714457 26,50 C24.11,51.56 22.12,52.12 20.41,51.57 C18.7,51.02 17.41,49.42 16.77,47.05 C16.1075015,44.2061215 16.2564845,41.2333906 17.2,38.47 C18.9,33.15 22.66,29.47 26.06,29.47 C26.5181022,29.4704099 26.9734193,29.541237 27.41,29.68 C31.11,30.84 32.55,36.71 30.62,42.76 Z"/>
      <path id="Shape" fill="#3D454C" fill-rule="nonzero" d="M22.9 44.07L22.9 44.07C20.63 43.35 18.42 44.07 17.9 45.84 17.38 47.61 18.7 49.46 20.97 50.19 21.5166054 50.3642427 22.0863141 50.4552612 22.66 50.46 24.0898818 50.5909646 25.4403406 49.7823067 26 48.46 26.52 46.71 25.17 44.79 22.9 44.07zM24.06 47.81C23.89 48.36 22.77 48.68 21.55 48.29 20.33 47.9 19.6 47 19.78 46.45 19.9 46.07 20.47 45.8 21.21 45.8 21.5765429 45.8015085 21.9407183 45.8588324 22.29 45.97 23.52 46.37 24.24 47.27 24.06 47.81zM42.71 20.2C40.22 20.43 38.05 22.11 36.6 24.91 35.175526 27.8890605 34.6209272 31.2097208 35 34.49 35.2454407 37.781497 36.4172476 40.9363616 38.38 43.59 40.18 45.88 42.38 47.11 44.67 47.11 44.87 47.11 45.07 47.11 45.27 47.11 47.75 46.88 49.92 45.2 51.38 42.4 52.8174709 39.4141775 53.37918 36.0820634 53 32.79 52.27 25.38 47.66 19.71 42.71 20.2zM49.58 41.45C48.45 43.63 46.85 44.92 45.06 45.09 43.27 45.26 41.45 44.29 39.94 42.36 38.2007125 40.0095752 37.1607809 37.2156258 36.94 34.3 36.6009842 31.401192 37.0862167 28.4655354 38.34 25.83 39.47 23.65 41.08 22.36 42.86 22.19 42.9998281 22.180188 43.1401719 22.180188 43.28 22.19 46.98 22.19 50.38 26.91 50.95 33 51.2945152 35.8894027 50.8197886 38.8174607 49.58 41.45L49.58 41.45z"/>
      <path id="Shape" fill="#3D454C" fill-rule="nonzero" d="M44.42,37.15 L44.42,37.15 C43.4085408,37.2285892 42.4437794,37.6082245 41.65,38.24 C40.8680351,38.8301299 40.4327389,39.7720207 40.49,40.75 C40.65,42.4 42.35,43.58 44.49,43.58 L45.04,43.58 C46.0510447,43.4996134 47.0152991,43.1201776 47.81,42.49 C48.5986106,41.9116448 49.0453329,40.9769065 49,40 C48.78,38.16 46.8,36.94 44.42,37.15 Z M46.52,40.92 C46.0321361,41.2953776 45.4441335,41.5180531 44.83,41.56 C43.55,41.67 42.54,41.13 42.48,40.56 C42.5042419,40.2477679 42.665311,39.9622363 42.92,39.78 C43.4094658,39.4143663 43.9913237,39.1927061 44.6,39.14 C45.89,39.02 46.9,39.57 46.96,40.14 C46.9357581,40.4522321 46.774689,40.7377637 46.52,40.92 L46.52,40.92 Z"/>
      <path id="Path" fill="#3D454C" fill-rule="nonzero" d="M54.19,14.12 C53.6377153,14.12 53.19,14.5677153 53.19,15.12 C53.19,15.6722847 53.6377153,16.12 54.19,16.12 C54.7422847,16.12 55.19,15.6722847 55.19,15.12 C55.19,14.5677153 54.7422847,14.12 54.19,14.12 L54.19,14.12 Z"/>
    </g>
  </g>
</svg>
