<svg xmlns="http://www.w3.org/2000/svg" width="64" height="64" viewBox="0 0 64 64" style="background:#fff">
  <g id="Orangensaft" fill="none" fill-rule="evenodd" stroke="none" stroke-width="1">
    <rect width="64" height="64" fill="#FFF"/>
    <g transform="translate(2 4)">
      <rect id="Rectangle" width="60" height="60" x="0" y="0"/>
      <path id="Path" fill="#E0673A" fill-rule="nonzero" d="M38.76,27.17 C33.47,28.1 28.76,30.83 23.41,31.87 C20.8915544,32.2245342 18.3530799,32.4182599 15.81,32.45 C14.7141908,31.1149761 13.0962231,30.3169244 11.37,30.26 C8.16,30.34 6.63,33.19 5.45,35.69 L5,36.69 C3.30743016,40.9540507 4.12433558,45.8053899 7.12,49.28 C8.64287049,52.0367626 11.0952674,54.1631183 14.04,55.28 C18.63,57.11 24.55,57.45 29.44,57.62 C39.13,58 51.77,56.55 53.8,45 C55.47,35.48 49.22,25.33 38.76,27.17 Z" opacity=".5"/>
      <path id="Shape" fill="#3D454C" fill-rule="nonzero" d="M58.19,17.34 C56.77,12.12 51.77,10.19 46.89,11.34 C45.16,9.19 39.22,9.76 37.16,9.54 C33.35,9.11 30.57,6 26.27,6.2 C24.2361279,6.29158405 22.2758402,6.98795622 20.64,8.2 C20.3214625,8.52268336 20.259898,9.01930348 20.49,9.41 L24.06,15 C24.13,16.25 24.53,17.5 24.59,18.77 C24.7121341,20.5083516 24.5121118,22.2543096 24,23.92 C23.57,25.14 25.5,25.67 25.92,24.46 C26.4153621,22.8415419 26.6350913,21.1513171 26.57,19.46 C26.4735414,18.2049496 26.3066114,16.9563134 26.07,15.72 L29.71,15.72 C30.2622847,15.72 30.71,15.2722847 30.71,14.72 C30.71,14.1677153 30.2622847,13.72 29.71,13.72 L25.58,13.72 C24.65,12.25 23.72,10.72 22.76,9.31 C23.1254208,9.08052178 23.5063372,8.87669812 23.9,8.7 C26.1137781,7.96690851 28.5198641,8.07368747 30.66,9 C31.13,9.18 31.54,9.37 31.92,9.56 L28.26,9.56 C27.7077153,9.56 27.26,10.0077153 27.26,10.56 C27.26,11.1122847 27.7077153,11.56 28.26,11.56 L37.13,11.56 C37.1798375,11.5657003 37.2301625,11.5657003 37.28,11.56 L37.58,11.56 C38.32,11.56 45.99,10.78 45.06,13.72 L41.06,13.72 C40.5077153,13.72 40.06,14.1677153 40.06,14.72 C40.06,15.2722847 40.5077153,15.72 41.06,15.72 C42.2,15.72 43.46,15.6 44.63,15.72 C44.51,16.31 44.41,16.91 44.34,17.51 C44.2144318,18.6690338 44.1910083,19.8368633 44.27,21 C44.68,26.3 48.38,29.68 49.79,34.6 C51.79,41.71 49.3,49.72 42.4,53.1 C39.7,54.41 32.7,55.03 30.03,53.81 C28.87,53.28 27.85,55 29.03,55.54 C31.96,56.88 37.97,56.54 41.03,55.77 C45.13,54.77 48.83,51.26 50.73,47.62 C52.0609966,44.9499715 52.6711532,41.9784746 52.5,39 C55.92,33 60.11,24.38 58.19,17.34 Z M56.19,24.19 C55.3595005,28.1665878 53.9760587,32.0072376 52.08,35.6 C51.92,34.85 51.73,34.11 51.5,33.38 C53.6,29.04 56.61,22.38 54.31,17.73 C52.9915471,14.966848 49.8414312,13.594267 46.92,14.51 C47.097155,14.1199427 47.2280455,13.7104902 47.31,13.29 C54.2,11.67 57.43,17.81 56.21,24.19 L56.19,24.19 Z M46.69,16.87 C47.7001867,16.4092067 48.8169834,16.2328704 49.92,16.36 C50.7468177,16.6486613 51.437758,17.2327552 51.86,18 C53.31,19.92 53.15,21.91 52.67,24.22 C52.1600274,26.5166268 51.4161451,28.7549754 50.45,30.9 C49.66,29.4 48.71,28 47.9,26.47 C46.13,23.14 46.52,20.17 46.71,16.87 L46.69,16.87 Z"/>
      <path id="Path" fill="#3D454C" fill-rule="nonzero" d="M43.82 47.53C46.5863707 44.0967651 47.2681865 39.4313065 45.6 35.35 45.15 34.16 43.21 34.68 43.67 35.88 44.94 39.24 44.82 43.32 42.4 46.12 41.56 47.08 43 48.5 43.82 47.53zM43.42 31.1C43.0578424 30.9197182 42.6227394 30.9754 42.3176521 31.2410716 42.0125649 31.5067432 41.8976019 31.9300617 42.0263897 32.3135632 42.1551775 32.6970646 42.5023421 32.965191 42.9059428 32.9928704 43.3095435 33.0205498 43.6900623 32.8023287 43.87 32.44 44.1154836 31.9456857 43.9140809 31.3459531 43.42 31.1L43.42 31.1z"/>
      <path id="Shape" fill="#3D454C" fill-rule="nonzero" d="M9,45.37 C8.93893632,45.7704374 8.98021819,46.1798159 9.12,46.56 C9.69638994,47.7098957 10.8368694,48.4702153 12.12,48.56 C12.4490143,48.6275889 12.7841169,48.6610992 13.12,48.66 C14.0048606,48.6911091 14.8689452,48.3876084 15.54,47.81 C15.7577229,47.6172651 15.943379,47.3911022 16.09,47.14 C16.146821,47.1759764 16.2071263,47.2061291 16.27,47.23 C16.4390134,47.2784661 16.6141868,47.3020472 16.79,47.3 C17.79,47.3 18.96,46.51 20.31,44.88 C21.13,43.88 22.43,42 21.89,40.43 C21.89,40.43 21.89,40.43 21.89,40.35 C22.0021907,40.2739898 22.1091022,40.1904652 22.21,40.1 C23.4,38.97 23.45,36.89 23.28,35.34 C23.08,33.49 22.43,32.34 21.39,32.02 L21.3,32.02 C21.3610637,31.6195626 21.3197818,31.2101841 21.18,30.83 C20.6020543,29.6814801 19.462459,28.9217499 18.18,28.83 C16.9854576,28.5303207 15.7195119,28.8079404 14.76,29.58 C14.550745,29.7780849 14.3691134,30.0034427 14.22,30.25 C14.15,30.25 14.1,30.18 14.04,30.16 C12.9,29.84 11.58,30.6 9.99,32.51 C9.17,33.51 7.88,35.39 8.41,36.96 L8.41,37.04 C8.30059581,37.1191595 8.19699779,37.2060482 8.1,37.3 C6.86,38.4 6.81,40.49 7,42 C7.2,43.85 7.86,45 8.89,45.31 L9,45.37 Z M9.47,38.73 C9.60442741,38.6040051 9.78663307,38.5420552 9.97,38.56 L10.25,38.56 L12.12,38.88 L13.31,39.14 L13.31,39.19 L12.57,40.11 L10.33,42.72 C10.107524,42.9912514 9.84837024,43.2302114 9.56,43.43 C9.21843585,42.9604113 9.02357726,42.4001928 9,41.82 C8.81,40.36 9,39.14 9.43,38.73 L9.47,38.73 Z M14.17,46.37 C13.6755699,46.7086543 13.0553341,46.8077453 12.48,46.64 C11.59,46.46 11.09,46.13 11,45.88 C10.91,45.63 11.14,45.05 11.64,44.42 L14.07,41.42 L14.22,41.24 L14.22,41.46 L14.52,44.81 C14.6231279,45.3619745 14.4807479,45.9314945 14.13,46.37 L14.17,46.37 Z M18.74,43.64 C18.2493091,44.3431543 17.597945,44.9190973 16.84,45.32 C16.7517124,45.1099728 16.6976926,44.8871412 16.68,44.66 L16.24,41.24 L16.15,40.24 L17.75,40.5 L19.52,40.9 C19.64,40.9 19.93,41 19.97,41.14 C20.01,41.28 19.78,42.35 18.7,43.64 L18.74,43.64 Z M20.74,38.64 C20.68,38.7 20.49,38.87 19.96,38.78 L18.1,38.47 L16.9,38.2 C16.9,38.2 16.9,38.2 16.95,38.2 L17.69,37.28 L19.92,34.68 C20.1439422,34.4065216 20.406731,34.1673165 20.7,33.97 C21.0208023,34.4535418 21.1944841,35.0197445 21.2,35.6 C21.35,37.06 21.17,38.27 20.73,38.69 L20.74,38.64 Z M16,31 C16.310371,30.767164 16.6924968,30.6504033 17.08,30.67 C17.2853537,30.6697089 17.4900504,30.6931987 17.69,30.74 C18.59,30.91 19.08,31.24 19.17,31.5 C19.26,31.76 19.04,32.33 18.53,32.96 L16.13,35.96 L15.95,36.16 L16,36 L15.7,32.66 C15.5503395,32.0894999 15.6601233,31.4820295 16,31 Z M11.43,33.73 L11.43,33.73 C11.9259852,33.0315844 12.5761099,32.4567373 13.33,32.05 C13.4227686,32.2625875 13.4801913,32.4889002 13.5,32.72 L14,36.18 L14.1,37.18 L12.49,36.91 L10.72,36.51 C10.6,36.51 10.32,36.41 10.27,36.28 C10.14,36 10.38,35.07 11.46,33.77 L11.43,33.73 Z"/>
      <path id="Shape" fill="#3D454C" fill-rule="nonzero" d="M33.52,41.66 C33.67,32.66 26.52,26.53 19.34,25.14 C19.3001575,25.1349803 19.2598425,25.1349803 19.22,25.14 C16.0258816,24.663963 12.7817373,25.5898199 10.32,27.68 C7.42609082,29.9867325 5.31352237,33.1293963 4.27,36.68 C4.0916646,37.2684336 3.94478999,37.8659463 3.83,38.47 C3.20218465,41.3753883 3.47425904,44.4030879 4.61,47.15 C5.26741481,48.6669249 6.29976102,49.9917692 7.61,51 L7.69,51.1 C10.0395636,52.9893396 12.8298562,54.2520244 15.8,54.77 C16.8912628,54.9762509 17.9994173,55.0800358 19.11,55.08 C22.6156432,55.1377732 26.0329367,53.9786498 28.78,51.8 C31.8087187,49.3080834 33.550511,45.5819707 33.52,41.66 Z M6.43,46.35 C5.46530157,43.9787221 5.24215474,41.3706934 5.79,38.87 C5.90333333,38.33 6.03333333,37.8 6.18,37.28 C7.10690564,34.1281294 8.97758101,31.3360766 11.54,29.28 C13.5650097,27.5363759 16.2445448,26.7525663 18.89,27.13 C19.1544996,27.1776925 19.4151856,27.2445351 19.67,27.33 C21.605241,27.9785207 23.1610525,29.4393766 23.93,31.33 C24.8940816,33.7014262 25.1172122,36.3092653 24.57,38.81 C24.46,39.35 24.33,39.89 24.18,40.41 C23.2545273,43.565092 21.3794849,46.3584513 18.81,48.41 C16.7919414,50.1591089 14.1128383,50.9438598 11.47,50.56 C11.2067659,50.5107696 10.9463859,50.4473437 10.69,50.37 C8.75559845,49.7088951 7.20204005,48.2428611 6.43,46.35 Z M27.51,50.28 C24.2727607,52.729874 20.134063,53.6597136 16.16,52.83 C15.71,52.74 15.26,52.63 14.82,52.52 C16.7155911,52.0841553 18.487042,51.2223684 20,50 C22.8939092,47.6932675 25.0064776,44.5506037 26.05,41 C26.2283354,40.4115664 26.37521,39.8140537 26.49,39.21 C27.1176503,36.30792 26.8455529,33.2834527 25.71,30.54 C25.62,30.33 25.52,30.14 25.42,29.95 C29.2548422,32.5903278 31.5261777,36.9643354 31.48,41.62 C31.5299746,44.9575727 30.0712828,48.1395049 27.51,50.28 L27.51,50.28 Z"/>
    </g>
  </g>
</svg>
