<svg xmlns="http://www.w3.org/2000/svg" width="64" height="64" viewBox="0 0 64 64" style="background:#fff">
  <g id="Orangen" fill="none" fill-rule="evenodd" stroke="none" stroke-width="1">
    <rect width="64" height="64" fill="#FFF"/>
    <g transform="translate(2 3)">
      <g id="Layer_2">
        <rect id="Rectangle" width="60" height="60" x=".47" y=".54"/>
      </g>
      <g id="Layer_1" transform="translate(1 1)">
        <path id="Shape" fill="#E0673A" fill-rule="nonzero" d="M51.85,16.7 C48.21,10.14 41.85,4.45 34.26,3.18 C29.9393981,2.40080836 25.5025011,3.68011366 22.26,6.64 C21.47,6.15 18.13,8.42 17.58,9.25 C12.36,11.09 7.4,17.31 5.71,21.74 C3.06212221,29.2032516 4.1595366,37.4840802 8.66,44 C12.91,50.26 19.66,53.95 26.98,55.49 C33.57,56.89 39.7,57.49 44.64,53.34 C45.74,53 51.73,46.92 51.64,43.28 C52.2614469,42.3766867 52.8130486,41.4272631 53.29,40.44 C56.85,32.86 55.85,23.9 51.85,16.7 Z M45.62,22.14 C48.36,26.86 48.2,31.61 45.88,34.96 C45.3907663,35.0390329 44.9178163,35.1978089 44.48,35.43 L43.77,35.76 C42.51,35.28 41,35.55 39.4,37 C34.590983,37.5538375 29.8340557,35.6019871 26.8,31.83 C22.8,26.91 23.6,21.56 24.18,16.01 C30.45,8.18 41.25,14.63 45.62,22.14 L45.62,22.14 Z" opacity=".5"/>
        <rect id="Rectangle" width="60" height="60" x="0" y="0"/>
        <path id="Shape" fill="#3D454C" fill-rule="nonzero" d="M54.62,26.45 C54.4288601,25.4371155 54.1818158,24.4355844 53.88,23.45 C52.142171,17.4973744 48.6076593,12.2270403 43.76,8.36 C39.08,4.72 33.86,3.22 29.06,4.13 L28.87,4.13 C20.6614745,5.73271654 13.4749061,10.6443219 9,17.71 C8.85986503,17.9365272 8.8158975,18.2096021 8.87784776,18.4686668 C8.93979803,18.7277316 9.10254592,18.9513745 9.33,19.09 C9.55652719,19.230135 9.82960209,19.2741025 10.0886668,19.2121522 C10.3477316,19.150202 10.5713745,18.9874541 10.71,18.76 C13.1844076,14.8048222 16.6260657,11.545572 20.71,9.29 C19.7811841,10.4204078 19.0045672,11.6677015 18.4,13 C16.5180035,17.5752333 16.0681982,22.6137494 17.11,27.45 C17.31,28.45 17.56,29.45 17.85,30.45 C19.6074361,36.3927759 23.1511533,41.6507445 28,45.51 C31.3442447,48.2768516 35.5119467,49.8560062 39.85,50 C38.0603508,50.7115877 36.2046279,51.2441869 34.31,51.59 C26.91,52.96 19.43,51.27 14.31,47.07 C9.71705229,43.2933452 7.08693529,37.6358348 7.16,31.69 C7.11747661,29.6709286 7.3325438,27.6546736 7.8,25.69 C7.8628555,25.4299672 7.81889994,25.1555913 7.6779593,24.928207 C7.53701866,24.7008228 7.31084575,24.5393915 7.05,24.48 C6.51457904,24.3547964 5.97852084,24.6853656 5.85,25.22 C5.34914808,27.3425144 5.11732767,29.5196104 5.16,31.7 C5.07302087,38.2340802 7.95693801,44.4543658 13,48.61 C17.5776915,52.2369862 23.2703935,54.1663564 29.11,54.07 C30.9720776,54.0681958 32.8299953,53.8941207 34.66,53.55 C39.6355367,52.6768749 44.3100342,50.5614842 48.25,47.4 C48.3019976,47.3479425 48.3488792,47.2910149 48.39,47.23 C50.5760379,45.5837421 52.2985982,43.3995356 53.39,40.89 C55.2523377,36.3121673 55.6812451,31.2768637 54.62,26.45 Z M51.51,40.08 C50.0963411,43.5115427 47.2834191,46.1752669 43.78,47.4 C43.3166535,47.544697 42.8460003,47.6648638 42.37,47.76 C38.12,48.59 33.44,47.23 29.2,43.93 C24.6808789,40.3101618 21.3850789,35.3874097 19.76,29.83 C19.49,28.92 19.26,27.98 19.07,27.04 C18.1075095,22.6084776 18.5084078,17.9894322 20.22,13.79 C21.6359918,10.3419599 24.4721614,7.67348156 28,6.47 C28.4610084,6.31719274 28.9321637,6.19689776 29.41,6.11 C30.2303553,5.95014349 31.0642148,5.86999951 31.9,5.86999951 C35.7988776,6.01409787 39.5402881,7.44525768 42.54,9.94 C47.0588014,13.5472793 50.3609554,18.4551319 52,24 C52.27,24.91 52.51,25.86 52.69,26.8 C53.6492228,31.2441055 53.237774,35.8746488 51.51,40.08 Z"/>
        <path id="Shape" fill="#3D454C" fill-rule="nonzero" d="M48,23.73 C48.1992162,23.4703434 48.3546025,23.1798387 48.46,22.87 C49.4,20.1 46.7,16.43 45.46,14.98 C42.63,11.57 40.28,10.11 38.46,10.63 C38.0650102,10.7487108 37.7047095,10.9614598 37.41,11.25 C37.1357539,10.4851721 36.6792501,9.79870023 36.08,9.25 C34.4227922,7.95442493 32.2616254,7.49342519 30.22,8 C27.5,8.54 25.66,9.75 25.05,11.42 C24.7342029,12.3652168 24.7589661,13.3911205 25.12,14.32 C24.7437455,14.2772555 24.3627304,14.3112747 24,14.42 C21.81,15.1 21.14,18.32 20.94,20.18 C20.68,22.51 20.58,26.74 22.77,28.8 C23.1410858,29.1516738 23.5754014,29.4299072 24.05,29.62 C23.8527241,29.8845461 23.6975562,30.1780158 23.59,30.49 C22.64,33.25 25.35,36.93 26.59,38.38 L26.59,38.38 C29.05,41.38 31.15,42.83 32.84,42.83 C33.0906797,42.8291989 33.339926,42.7921488 33.58,42.72 C33.9751422,42.6068212 34.3359582,42.3972042 34.63,42.11 C34.9042461,42.8748279 35.3607499,43.5612998 35.96,44.11 C37.1199,45.0806632 38.5985938,45.5866259 40.11,45.53 C40.707749,45.5275299 41.3038578,45.4672492 41.89,45.35 C44.61,44.82 46.45,43.61 47.06,41.94 C47.3861272,40.9834015 47.3648842,39.9424963 47,39 C47.11,39 47.21,39 47.32,39 C47.5911574,39.0000997 47.8608055,38.9596525 48.12,38.88 C50.31,38.2 50.98,34.98 51.18,33.12 C51.43,30.79 51.53,26.56 49.35,24.5 C48.953493,24.1592054 48.4951797,23.897797 48,23.73 Z M39.08,12.55 L39.28,12.55 C40.11,12.55 41.8,13.66 43.98,16.28 L43.98,16.28 C45.98,18.69 46.98,21.03 46.59,22.28 C46.52,22.48 46.31,23.09 44.98,23.39 L41.44,24.18 L37.72,24.8 C37.5393619,24.8347222 37.3620426,24.8849069 37.19,24.95 C37.0810884,24.818718 37.0117275,24.6591881 36.99,24.49 C36.9963501,24.3834278 36.9963501,24.2765722 36.99,24.17 L37.23,21.6 L38.09,14.81 C38.3,13.5 38.65,12.68 39.08,12.55 Z M26.93,12.12 C27.28,11.12 28.62,10.36 30.6,9.98 C31.43,9.82 33.5,9.57 34.81,10.75 C35.69,11.54 36.05,12.87 35.89,14.69 L35.29,21.31 L35,23.59 C35,23.75 35,23.9 35,24.05 L33.17,21.92 L28.38,15.92 C27.47,14.86 26.5,13.3 26.93,12.12 Z M22.93,20.4 C23.2,17.87 23.93,16.54 24.59,16.34 L24.79,16.34 C25.37,16.34 26.25,16.96 27.19,18.06 L31.62,23.23 L33.12,25.09 C33.3167934,25.3320432 33.5379568,25.5532066 33.78,25.75 C33.9505182,25.9546188 34.0826426,26.1883773 34.17,26.44 L34,26.44 L30.24,27.28 L26.53,27.9 C25.692987,28.1229902 24.7998342,27.92119 24.14,27.36 C23,26.3 22.57,23.7 22.93,20.4 Z M33,40.81 C32.28,41.03 30.48,39.96 28.11,37.11 L28.11,37.11 C26.11,34.7 25.11,32.36 25.5,31.11 C25.57,30.9 25.78,30.29 27.11,30 L30.63,29.21 L34.36,28.59 C34.5416155,28.5546972 34.7191883,28.5010903 34.89,28.43 C35.0045158,28.5588242 35.0776792,28.7190868 35.1,28.89 C35.0944289,28.9999295 35.0944289,29.1100705 35.1,29.22 L34.86,31.79 L34,38.58 C33.77,39.87 33.41,40.69 33,40.81 Z M45.16,41.25 C44.8,42.25 43.46,43 41.49,43.39 C40.65,43.55 38.58,43.8 37.28,42.62 C36.4,41.83 36.04,40.5 36.2,38.68 L36.8,32.06 L37.09,29.78 C37.09,29.62 37.09,29.47 37.09,29.32 L38.91,31.45 L43.71,37.4 C44.6,38.51 45.57,40.07 45.14,41.25 L45.16,41.25 Z M49.16,32.96 C48.88,35.5 48.16,36.83 47.5,37.02 C46.84,37.21 45.96,36.56 44.9,35.33 L40.45,30.14 L39,28.3 C38.8065138,28.0613306 38.5886694,27.8434862 38.35,27.65 C38.1748736,27.4431667 38.0392845,27.2058858 37.95,26.95 L38.11,26.95 L41.86,26.11 L45.59,25.49 C45.823794,25.4434095 46.0616089,25.419963 46.3,25.42 C46.9181489,25.3962893 47.5210697,25.615207 47.98,26.03 C49.05,27.07 49.5,29.67 49.14,33 L49.16,32.96 Z"/>
        <path id="Path" fill="#3D454C" fill-rule="nonzero" d="M8.49,22.61 C8.73790054,22.5029017 8.93194822,22.3000951 9.02800493,22.0477108 C9.12406165,21.7953265 9.11396083,21.5148217 9,21.27 C8.7540469,20.7759191 8.1543143,20.5745164 7.66,20.82 C7.31242964,20.9602531 7.07246795,21.283088 7.03835672,21.6563339 C7.00424549,22.0295798 7.18171245,22.3905638 7.49810155,22.5914967 C7.81449066,22.7924296 8.21667583,22.7995721 8.54,22.61 L8.49,22.61 Z"/>
      </g>
    </g>
  </g>
</svg>
