<svg xmlns="http://www.w3.org/2000/svg" width="64" height="64" viewBox="0 0 64 64" style="background:#fff">
  <g id="Oregano" fill="none" fill-rule="evenodd" stroke="none" stroke-width="1">
    <rect width="64" height="64" fill="#FFF"/>
    <g transform="translate(2 4)">
      <rect id="Rectangle" width="60" height="60" x="0" y="0"/>
      <path id="Path" fill="#31E085" fill-rule="nonzero" d="M52.19,6.82 C48.43,3.28 42.51,4.74 38.29,6.72 C34.6806788,8.44690763 31.5417228,11.0198223 29.14,14.22 C28.7866667,13.8266667 28.4266667,13.4466667 28.06,13.08 C24.84,9.9 20,6.79 15.29,7.57 C8.75,8.66 9.7,18.36 13.08,22 C14.19,23.21 15.48,24.41 16.7,25.57 C14.2609149,27.2044631 12.1255871,29.2518059 10.39,31.62 C5.98145355,37.3707778 4.28495978,44.7514378 5.74,51.85 C6.38,54.79 8,58.31 11,59.46 C13.9,60.54 16.46,58.82 18,56.46 C18.6848406,55.3771313 19.2865663,54.2438812 19.8,53.07 C18.53,55.73 19.66,53.5 19.94,53.01 C20.22,52.52 20.52,52.1 20.79,51.64 C20.95,51.48 21.1,51.31 21.27,51.16 C21.7268443,50.7267654 22.2075973,50.3194607 22.71,49.94 L22.9,49.79 L23.27,49.61 C24.72,48.9 26.04,48.05 27.43,47.25 C29.3366164,46.0737606 30.8211037,44.323186 31.67,42.25 L34.29,44.7 L35.37,45.7 C35.46,45.82 35.56,45.93 35.66,46.04 C37.66,48.37 39.22,51.47 42.3,52.22 C45.96,53.39 48.76,49.62 49.3,45.8 C48.71,48.05 48.79,47.73 49.53,44.8 C49.7012581,43.7088285 49.7482248,42.6017556 49.67,41.5 C49.5966612,39.4501572 49.1983711,37.4249531 48.49,35.5 C47.7359398,33.4208027 46.7283347,31.442538 45.49,29.61 C44.7593646,28.539943 43.9362051,27.5360899 43.03,26.61 L43.33,26.42 C46.33,24.7 50.33,24.08 52.52,21.37 C55.89,17.35 56.23,10.61 52.19,6.82 Z" opacity=".5"/>
      <path id="Shape" fill="#3D454C" fill-rule="nonzero" d="M54.73,9.05 C54.6192496,8.71720309 54.3422397,8.46675578 54,8.39 C46.87,6.73 36.78,5.25 31.5,11.49 C30.4789023,12.7552851 29.8158667,14.2712882 29.58,15.88 C25.17,11.2 16,10.82 10.21,12.69 C9.70278943,12.8531096 9.41253227,13.3852477 9.55,13.9 C11.1736564,18.8685806 13.3647926,23.6333792 16.08,28.1 L16.21,28.28 L16.43,28.61 C14.1129359,28.7807155 11.9568109,29.858778 10.43,31.61 C5.38,37.25 5.78,48.22 8,54 C8.10161363,54.2615563 8.30844368,54.4683864 8.57,54.57 C9.36218713,54.8523154 10.1992008,54.9878642 11.04,54.97 C13.3501301,54.8811392 15.6215136,54.3480941 17.73,53.4 C25.03,50.34 29.2,45.91 29.93,40.5 C30.1702552,40.6736845 30.4283884,40.8211892 30.7,40.94 C34.11,42.41 42.57,45.54 45.55,45.54 C45.783301,45.5464566 46.0161608,45.5160836 46.24,45.45 C46.5741916,45.3327429 46.8214326,45.0474648 46.89,44.7 C47.89,39.93 47.04,31.83 42.5,27.7 C43.7288607,27.4573788 44.9241013,27.0679184 46.06,26.54 C52,23.44 56.22,13.65 54.73,9.05 Z M37.41,19.5 C36.8013712,21.6728564 35.7831078,23.7093831 34.41,25.5 C33.5016261,26.2894355 32.3433431,26.7322042 31.14,26.75 C29.77,26.84 29.14,26.35 28.64,24.86 C28.2969215,23.4504713 28.7582371,21.9665728 29.84,21 C31.51,19.15 35,19 37.41,19.5 Z M28.41,30.5 C27.964967,31.4366294 27.1190049,32.1207553 26.11,32.36 C23.804245,32.8033131 21.4571004,32.9944377 19.11,32.93 C19.3,30.28 20.56,27.18 22.57,26.15 C23.97,25.43 25.57,25.77 27.48,27.15 C28.43,28.5 28.75,29.62 28.44,30.51 L28.41,30.5 Z M11.77,14.32 C17.77,12.75 26.56,13.7 29.27,18.82 C28.9436642,19.059304 28.6391434,19.3270147 28.36,19.62 C27.5556695,20.4636903 26.9747624,21.4948863 26.67,22.62 C24.04,19.17 19.73,16.87 17.99,16.62 C17.4377153,16.5371573 16.9228427,16.9177153 16.84,17.47 C16.7571573,18.0222847 17.1377153,18.5371573 17.69,18.62 C18.95,18.81 22.83,20.86 25.13,23.94 C23.9577295,23.7066011 22.7409232,23.8794228 21.68,24.43 C20.2621149,25.2387194 19.1353538,26.4739575 18.46,27.96 C18.2247039,27.7404043 18.0225894,27.4877611 17.86,27.21 L17.73,27 C15.3188541,22.9861805 13.3219251,18.7376804 11.77,14.32 Z M17,51.53 C14.11,52.74 11.39,53.21 9.75,52.81 C7.89,47.54 7.6,37.81 11.96,32.99 C13.3604622,31.3840487 15.3995636,30.4798152 17.53,30.52 C17.2481601,31.6375239 17.1169981,32.7877134 17.14,33.94 C17.1393329,34.4733335 17.5573332,34.9133337 18.09,34.94 C18.45,34.94 18.96,34.94 19.56,34.94 L19.56,34.94 C16.9100508,37.6173349 14.843314,40.814478 13.49,44.33 C13.3958135,44.5779752 13.4040098,44.853212 13.512785,45.0951432 C13.6215603,45.3370744 13.8220013,45.5258755 14.07,45.62 C14.1827335,45.6584855 14.3008849,45.67874 14.42,45.68 C14.8384725,45.6813593 15.2135361,45.4220069 15.36,45.03 C16.8852447,41.0852526 19.3743293,37.5854071 22.6,34.85 C23.9673012,34.7980485 25.3266545,34.6172478 26.66,34.31 C27.0122461,35.6500031 27.5014911,36.9501885 28.12,38.19 C28.1153478,38.223171 28.1153478,38.256829 28.12,38.29 C28.28,43.91 24.55,48.36 17,51.53 Z M45.11,43.53 C43.01,43.28 36.61,41.29 31.54,39.1 C29.93,38.41 29.07,35.46 28.49,33.48 C29.3471318,32.9444346 30.0015479,32.1387288 30.35,31.19 C30.5105408,30.7069087 30.5817032,30.1986055 30.56,29.69 C35.5,30.98 37.73,35.4 38.8,37.55 C38.99,37.92 39.15,38.23 39.28,38.44 C39.4575523,38.7475445 39.7848889,38.9378565 40.14,38.94 C40.3190982,38.9371732 40.4945593,38.8890074 40.65,38.8 C40.8835842,38.6646797 41.0525366,38.44067 41.1184522,38.1788908 C41.1843678,37.9171117 41.1416467,37.6398029 41,37.41 C40.89,37.22 40.75,36.95 40.59,36.63 C39.59,34.69 37.51,30.51 33.12,28.47 C34.223937,28.2276218 35.2282458,27.6557237 36,26.83 L36.18,26.59 C37.7202577,26.872744 39.1725832,27.5132744 40.42,28.46 C44.76,31.55 45.75,39 45.09,43.51 L45.11,43.53 Z M41.73,25.77 C41.29,25.88 40.83,25.98 40.39,26.1 C39.4375224,25.5223556 38.4069949,25.0845498 37.33,24.8 C38.68,22.45 39.69,19.55 39.49,18.56 C39.416393,18.213949 39.1654136,17.9325478 38.83,17.82 L38.52,17.72 C40.8099105,15.9422556 43.5213308,14.7880933 46.39,14.37 C46.87,14.28 47.25,14.2 47.49,14.13 C48.0174319,13.9615532 48.3084468,13.3974319 48.14,12.87 C47.9715532,12.3425681 47.4074319,12.0515532 46.88,12.22 C46.5904109,12.2995783 46.296625,12.3630093 46,12.41 C42.259724,12.9470638 38.7845255,14.651416 36.07,17.28 C34.4863662,17.1346836 32.8896042,17.3011546 31.3699892,17.77 C31.3670861,15.9659057 31.9534836,14.2102246 33.04,12.77 C37.48,7.54 46.39,8.72 53,10.2 C53.74,14.2 50,22.26 45.22,24.71 C44.1027646,25.2003375 42.9312163,25.5561659 41.73,25.77 L41.73,25.77 Z"/>
      <path id="Path" fill="#3D454C" fill-rule="nonzero" d="M12.92,47.48 C12.3677153,47.48 11.92,47.9277153 11.92,48.48 C11.92,49.0322847 12.3677153,49.48 12.92,49.48 C13.4722847,49.48 13.92,49.0322847 13.92,48.48 C13.92,47.9277153 13.4722847,47.48 12.92,47.48 Z"/>
    </g>
  </g>
</svg>
