<svg xmlns="http://www.w3.org/2000/svg" width="64" height="64" viewBox="0 0 64 64" style="background:#fff">
  <g id="Pak-choi" fill="none" fill-rule="evenodd" stroke="none" stroke-width="1">
    <rect width="64" height="64" fill="#FFF"/>
    <g transform="translate(2 4)">
      <rect id="Rectangle" width="60" height="60" x="0" y="0"/>
      <path id="Path" fill="#31E085" fill-rule="nonzero" d="M53.71,15.56 C52.2407832,14.0226363 50.0797672,13.3565438 48,13.8 C47.594358,11.1878664 46.3146324,8.79058434 44.37,7 C42.9037427,5.62650608 41.0051084,4.80623947 39,4.68 C37.5685545,4.72088316 36.1615989,5.06155039 34.87,5.68 C33.2117005,6.46450097 31.7417308,7.59682099 30.56,9 C30.2213204,7.97302277 29.7435451,6.99728451 29.14,6.1 C27.4705784,3.11495468 23.8460981,1.83119544 20.67,3.1 C18.7369784,4.03803433 17.115515,5.51367015 16,7.35 C14.6344144,9.66007615 13.759552,12.226793 13.43,14.89 C13.0796675,17.318459 13.1303412,19.7879567 13.58,22.2 C13.9862549,24.4517984 14.8917564,26.5839981 16.23,28.44 C18.17,30.64 20.07,32.44 23.23,31.71 C25.4205198,31.0966302 27.2550099,29.5956838 28.29,27.57 C28.5984083,28.2651655 28.9629478,28.9340454 29.38,29.57 C29.8017472,30.4163875 30.4715242,31.1140719 31.3,31.57 C31.84,36.1 33.47,41.05 38,43 C42.72,45.08 48.67,42.35 52,38.94 C58,32.9 60.18,22.16 53.71,15.56 Z" opacity=".5"/>
      <path id="Shape" fill="#3D454C" fill-rule="nonzero" d="M57.47,23.79 C57.03,20.86 54.56,18.86 53.77,18.29 C52.7654213,16.2145843 50.8428379,14.7328244 48.58,14.29 C48.8957017,13.2492756 48.757723,12.1236595 48.2,11.19 C46.99,9.19 44.11,8.68 42.83,8.53 C42.4566266,7.92656576 41.9043024,7.45464322 41.25,7.18 C39.97,6.63 38.37,6.82 36.5,7.74 C35.0082315,8.44611319 33.6695877,9.43820451 32.56,10.66 C32.4009715,9.92132517 32.091174,9.22342974 31.65,8.61 C29.86,6.14 26.4,5.61 25.48,5.5 C22.27,3.86 19.14,6 17.72,7.6 C14.2,8.75 11.93,14.84 11.9,17.79 C11.9,19.74 12.9,21.16 13.9,22.54 C14.572324,23.3816061 15.1026415,24.3273954 15.47,25.34 C15.8826955,27.1219969 15.9303189,28.969104 15.61,30.77 C14.7923521,33.3514591 13.5374467,35.7733249 11.9,37.93 L11.81,38.07 C11.46,38.56 11.09,39.07 10.73,39.54 C9.60436852,40.7847395 8.76171489,42.2585304 8.26,43.86 C8.17085433,44.374992 8.49332392,44.8717695 9,45 C9.06290276,45.0104441 9.12709724,45.0104441 9.19,45 C9.67900373,45.0079763 10.1020327,44.6610925 10.19,44.18 C10.6647406,42.9003853 11.3734731,41.7202948 12.28,40.7 C12.66,40.2 13.05,39.7 13.41,39.17 L13.5,39.04 C15.2778815,36.6894128 16.631554,34.0463672 17.5,31.23 C17.5,31.23 17.5,31.23 17.5,31.23 L17.5,31.23 C17.9005368,29.095107 17.8391601,26.8991871 17.32,24.79 C16.89796,23.5641811 16.2725527,22.4181645 15.47,21.4 C14.61,20.18 13.87,19.13 13.88,17.83 C13.88,15.08 16.15,10.02 18.49,9.47 C18.7059267,9.42070168 18.8993775,9.30111388 19.04,9.13 C19.04,9.13 21.82,5.78 24.69,7.35 C24.8194466,7.42046132 24.9628677,7.46143878 25.11,7.47 C25.11,7.47 28.55,7.75 30.01,9.77 C30.7504793,10.9057068 30.9204926,12.3212522 30.47,13.6 C30.4065318,13.8503256 30.442366,14.115499 30.57,14.34 C31.1570451,15.5862162 31.3855759,16.9712513 31.23,18.34 C31.2020092,18.6039182 31.2800791,18.8681387 31.4470134,19.0744619 C31.6139476,19.2807851 31.8560525,19.4122864 32.12,19.44 C32.665912,19.4924141 33.1521839,19.0953664 33.21,18.55 C33.3729712,17.0736302 33.1845099,15.5796463 32.66,14.19 C32.6837843,14.1555279 32.7038939,14.1186602 32.72,14.08 C32.72,13.97 33.55,11.43 37.36,9.56 C38.2679544,8.96265489 39.3798892,8.76048494 40.44,9 C40.796491,9.14311678 41.0833688,9.41923667 41.24,9.77 C41.3658326,10.171562 41.7295964,10.4513803 42.15,10.47 C43.09,10.52 45.7,10.92 46.5,12.23 C46.78626,12.8134458 46.78626,13.4965542 46.5,14.08 C45.7609177,14.0871728 45.0254761,14.18456 44.31,14.37 C41.13,14 38.54,16.66 37.61,17.78 C36.61,17.86 34.98,18.69 32.41,21.24 C28.48,25.14 23.41,37.24 23.16,37.73 C23.16,37.73 23.16,37.81 23.16,37.85 C11.24,44.27 9.56,46.72 9.35,47.15 C9.35,47.15 9.35,47.15 9.35,47.15 C9.27710274,47.202987 9.212987,47.2671027 9.16,47.34 L7.36,50.11 C7.113496,50.480955 7.14203659,50.9702223 7.43,51.31 L8.58,52.65 C8.77000268,52.8721378 9.04768818,53.0000464 9.34,53.0000464 C9.52287413,53.0017608 9.70272944,52.9533382 9.86,52.86 L11.57,51.86 L11.73,51.86 C12.08,51.77 20.51,49.49 25.57,44.02 C27.98,42.57 30.57,42.2 34.84,41.59 C37.26,41.25 40.27,40.82 44.02,40.07 C53.81,38.07 55.52,30.9 55.78,29.23 C57.1087298,27.7493391 57.7258331,25.762924 57.47,23.79 L57.47,23.79 Z M54.06,28.09 C53.92896,28.2570819 53.8490794,28.4585199 53.83,28.67 C53.83,28.97 53.13,36.15 43.63,38.04 C39.93,38.78 36.95,39.2 34.56,39.54 C32.46,39.84 30.71,40.09 29.14,40.46 C32.8593937,37.2185764 37.0085823,34.5062925 41.47,32.4 L41.47,32.4 C44.8025919,30.5476065 47.9213418,28.3343001 50.77,25.8 C51.0182996,25.5427688 51.1105066,25.1726111 51.0118877,24.8289617 C50.9132687,24.4853123 50.6388062,24.2203798 50.2918877,24.1339617 C49.9449691,24.0475436 49.5782996,24.1527688 49.33,24.41 C47.14,26.68 41.33,30.25 40.69,30.57 L40.69,30.57 C38.841125,31.4196855 37.0475776,32.384928 35.32,33.46 C35.61,28.76 38.37,26.52 41.52,23.95 L42.24,23.36 C42.6625888,23.0106324 42.725039,22.3861303 42.38,21.96 C42.0352653,21.5468801 41.4254439,21.4805952 41,21.81 L40.29,22.39 C36.8,25.23 33.19,28.16 33.29,34.63 C33.29,34.63 33.29,34.7 33.29,34.73 C29.9658308,36.9391053 26.9175536,39.5375266 24.21,42.47 C19.56,47.59 11.29,49.83 11.21,49.86 L11.21,49.86 C11.0385003,49.8626615 10.8702638,49.9072957 10.72,49.99 L9.59,50.69 L9.48,50.56 L10.88,48.46 L10.88,48.37 C10.9895676,48.288263 11.0785869,48.1821246 11.14,48.06 C11.2,47.97 12.77,45.7 24.24,39.52 C24.4881168,39.3826209 24.6662301,39.1463482 24.73,38.87 C24.8769338,38.7693256 24.9943121,38.6312335 25.07,38.47 C25.12,38.35 30.23,26.25 33.88,22.62 C36.48,20.04 37.61,19.77 37.82,19.74 C38.2310719,19.8685822 38.6782919,19.7195089 38.93,19.37 C38.93,19.37 41.49,15.87 44.28,16.37 C44.428562,16.3993738 44.581438,16.3993738 44.73,16.37 C44.94,16.3 49.95,14.88 52.09,19.42 C52.1681204,19.5910655 52.2928948,19.7366357 52.45,19.84 C52.45,19.84 55.13,21.63 55.5,24.12 C55.6298316,25.5910535 55.1027251,27.0442567 54.06,28.09 L54.06,28.09 Z"/>
      <path id="Path" fill="#3D454C" fill-rule="nonzero" d="M18.22 38.36C18.7308544 38.5659887 19.312097 38.3200784 19.52 37.81 20.701197 34.9684026 21.6607281 32.0396596 22.39 29.05 22.5318041 29.0324466 22.6682 28.984708 22.79 28.91 22.95 28.81 26.72 26.33 28.24 23.08 28.474721 22.5774209 28.2575791 21.979721 27.755 21.745 27.2524209 21.510279 26.654721 21.7274209 26.42 22.23 25.5736212 23.8028525 24.4088814 25.1821497 23 26.28 23.7696736 22.388778 23.8205115 18.3895294 23.15 14.48 23.0839059 14.1227344 22.8322335 13.8278682 22.4897853 13.7064746 22.1473372 13.5850809 21.7661393 13.6556026 21.4897853 13.8914746 21.2134313 14.1273466 21.0839058 14.4927344 21.15 14.85 21.5368258 16.9902244 21.6644116 19.1692563 21.53 21.34 20.3822125 20.6232257 19.4763601 19.5780113 18.93 18.34 18.8200522 17.9857303 18.5230362 17.7214271 18.1583931 17.6533763 17.7937499 17.5853256 17.4213968 17.7247091 17.1910703 18.0154758 16.9607439 18.3062425 16.9102907 18.7006143 17.06 19.04 17.9065637 20.9844409 19.4015901 22.5748945 21.29 23.54L21.35 23.54C20.7288724 28.1890386 19.4843498 32.733228 17.65 37.05 17.5490004 37.2990715 17.552514 37.5783145 17.6597486 37.8247659 17.7669832 38.0712172 17.9689103 38.2641276 18.22 38.36zM33.84 43L33.43 43.36C24.35 51.62 16.91 53.1 12.2599992 52.87 11.7266665 52.8693329 11.2866663 53.2873332 11.2599992 53.82 11.2593329 54.3533335 11.6773332 54.7933337 12.21 54.82 12.5166667 54.82 12.85 54.82 13.21 54.82 18.27 54.82 25.87 52.95 34.87 44.82L35.23 44.49C35.4961629 44.2417004 35.6096413 43.8702659 35.527689 43.5156123 35.4457367 43.1609587 35.1808041 42.8769663 34.8326889 42.7706123 34.4845738 42.6642583 34.1061629 42.7517004 33.84 43zM21.45 10.11C20.8977153 10.11 20.45 10.5577153 20.45 11.11 20.45 11.6622847 20.8977153 12.11 21.45 12.11 22.0022847 12.11 22.45 11.6622847 22.45 11.11 22.45 10.5577153 22.0022847 10.11 21.45 10.11zM28.38 17.58C27.8277153 17.58 27.38 18.0277153 27.38 18.58 27.38 19.1322847 27.8277153 19.58 28.38 19.58 28.9322847 19.58 29.38 19.1322847 29.38 18.58 29.38 18.0277153 28.9322847 17.58 28.38 17.58zM44.92 19.05C44.3677153 19.05 43.92 19.4977153 43.92 20.05 43.92 20.6022847 44.3677153 21.05 44.92 21.05 45.4722847 21.05 45.92 20.6022847 45.92 20.05 45.92 19.4977153 45.4722847 19.05 44.92 19.05z"/>
    </g>
  </g>
</svg>
