<svg xmlns="http://www.w3.org/2000/svg" width="64" height="64" viewBox="0 0 64 64" style="background:#fff">
  <g id="Palmöl" fill="none" fill-rule="evenodd" stroke="none" stroke-width="1">
    <rect width="64" height="64" fill="#FFF"/>
    <g transform="translate(2 2)">
      <rect id="Rectangle" width="60" height="60" x="0" y="0"/>
      <path id="Path" fill="#D4BA39" fill-rule="nonzero" d="M34.19,29.19 C30.6,27.42 27.98,29.43 24.92,30.78 C24.6512841,30.0607216 24.3441761,29.3563763 24,28.67 C20.5,21.56 12.49,19.97 7.8,26.83 C5.91,29.64 5.65,33.73 6.33,37 C6.471153,37.6470151 6.65148521,38.2848568 6.87,38.91 C6.10432347,41.4380352 5.87275414,44.0976771 6.19,46.72 C6.6,50.31 8.41,56.13 12.5,57.25 C22.04,59.87 36.3,58.46 39.5,47.25 C41.19,41.07 40.71,32.39 34.19,29.19 Z" opacity=".5"/>
      <path id="Path" fill="#31E085" fill-rule="nonzero" d="M52.29,13.72 C49.9169344,13.0641342 47.3767011,13.7987527 45.72,15.62 C45.0868017,13.0810115 43.2013238,11.0409244 40.72,10.21 C38.23,9.29 35.11,9.64 33.65,12.04 C32.5462594,14.0047711 32.6828092,16.431455 34,18.26 C32.0370739,19.7583218 30.5956158,21.8365404 29.88,24.2 C29.59,25.51 30.51,29.1 32.55,28.07 C34.59,27.04 35.86,24.64 38.02,23.47 C40.18,22.3 42.72,22.03 44.6,20.58 C44.67,20.52 44.73,20.44 44.79,20.38 C44.865164,20.7823244 45.0180129,21.1661449 45.24,21.51 C46.24,23.04 47.77,24.51 48.3,26.36 C48.83,28.21 48.06,30.27 47.98,32.22 C47.91,33.8 49.65,36.98 51.48,35.14 C54.39,32.2 54.48,25.85 52.33,21.34 C53.4,22.07 54.33,23.23 55.64,23.07 C57.1,22.9 57.75,21.12 57.64,19.82 C57.4681687,16.799721 55.262058,14.2843424 52.29,13.72 Z" opacity=".5"/>
      <path id="Shape" fill="#3D454C" fill-rule="nonzero" d="M23.11,54.87 C21.72,56.76 14.22,56.87 11.93,56.18 C7.4,54.84 8.65,50.72 8.65,47 L8.65,32.32 C8.65,29.22 8.09,25.54 8.65,22.47 C9.16,19.65 11.08,19.07 12.6,17.13 C13.74,15.67 13.6,14.74 13.6,12.96 C13.579246,12.2493186 13.5090767,11.5409419 13.39,10.84 L19.39,10.84 C19.2476312,11.6992957 19.1773864,12.5689941 19.18,13.44 C19.35,17.94 23.69,19.15 24.18,23.8 C24.94,31.38 24.18,39.37 24.12,46.98 C24.12,47.5322847 24.5677153,47.98 25.12,47.98 C25.6722847,47.98 26.12,47.5322847 26.12,46.98 C26.12,42.2533333 26.12,37.5266667 26.12,32.8 C26.12,29.3 26.97,24.12 25.91,20.74 C25.09,18.13 22.02,17.26 21.17,14.89 C20.48,12.98 21.46,10.71 21.69,9.71 C22.76,5.11 21.25,2.18 16.38,2.18 C11.51,2.18 10,5.11 11.1,9.71 C11.35,10.8 12.18,12.55 11.63,14.59 C10.94,17.09 7.69,18.07 6.88,20.74 C5.88,24.21 6.65,28.79 6.65,32.32 L6.65,50.4 C6.65,54.53 6.89,57.72 11.93,58.18 C15.81,58.53 22.3,59.32 24.84,55.88 C25.61,54.84 23.87,53.84 23.11,54.87 Z M16.42,4.18 C19.62,4.18 19.91,6.37 19.68,8.84 L13.13,8.84 C12.86,6.39 13.09,4.18 16.42,4.18 Z"/>
      <path id="Shape" fill="#3D454C" fill-rule="nonzero" d="M17.42 24.4C17.2281337 24.18158 16.9507122 24.0574704 16.66 24.06 16.3658122 24.0545322 16.0841467 24.1789041 15.89 24.4 15.8219063 24.4637461 15.7645068 24.5380277 15.72 24.62 14.16 26.91 12.13 29.62 11.72 32.44 11.5298724 33.8781199 11.9574982 35.3295066 12.8969986 36.4348012 13.836499 37.5400958 15.2000353 38.1959586 16.65 38.24 18.0867867 38.2115966 19.4457841 37.5818436 20.3962646 36.5039988 21.3467451 35.4261539 21.801551 33.9990539 21.65 32.57 21.31 29.75 19.2 26.92 17.65 24.62 17.5875137 24.5331476 17.5095425 24.4585664 17.42 24.4L17.42 24.4zM16.65 36.24C12.83 36.24 13.65 32.15 14.79 30.01 15.35 28.93 15.99 27.88 16.65 26.85 17.26 27.8 17.85 28.75 18.37 29.74 19.51 31.88 20.67 36.24 16.65 36.24L16.65 36.24zM58.08 20.34C57.6147082 17.5711199 55.6418483 15.2940199 52.9674802 14.4390644 50.2931121 13.5841089 47.3651948 14.2945038 45.38 16.28 44.9864893 13.4729357 43.0420911 11.1284903 40.3562282 10.2226201 37.6703653 9.31674986 34.703232 10.0046661 32.69 12 31.75 12.88 33.17 14.3 34.1 13.41 35.6485274 11.8777453 37.9544404 11.4017025 39.9831589 12.1954548 42.0118775 12.9892072 43.3824696 14.903712 43.48 17.08 40.2095394 16.1001108 36.6664271 16.7878035 34 18.92 33.9554112 18.9513227 33.9150745 18.988298 33.88 19.03 33.88 19.03 33.82 19.03 33.8 19.03 31.2019012 21.4087652 29.4471258 24.5673609 28.8 28.03 28.65 28.7 29.28 29.57 30.03 29.26 32.77 28.15 35.26 25.86 37.61 24.12L38.48 23.47C38.6806644 24.0158106 39.0480186 24.4846244 39.53 24.81 35.7568299 34.2345811 30.9579447 43.2153041 25.22 51.59 24.49 52.66 26.22 53.66 26.95 52.59 32.7665784 44.0669236 37.6322505 34.9324709 41.46 25.35 41.6411176 25.3323475 41.8123085 25.2589799 41.95 25.14L42.17 25.06C42.3372375 25.2957739 42.5246061 25.5166012 42.73 25.72 38.9091531 35.3391835 36.5008483 45.4608002 35.58 55.77 35.46 57.05 37.46 57.04 37.58 55.77 38.4968003 45.7772407 40.8301649 35.9656615 44.51 26.63 45.1314007 26.7143674 45.762973 26.5838189 46.3 26.26 46.63 27.51 46.97 28.75 47.4 29.97 47.93 32.11 48.78 34.17 49.3 36.31 49.4056792 36.6993866 49.7350076 36.9871201 50.1350544 37.0395853 50.5351012 37.0920504 50.9274874 36.898968 51.13 36.55 52.79 32.91 54.58 28.34 53.07 24.35 52.4582762 22.800151 51.4722609 21.4259137 50.2 20.35 52.44 20.67 54.67 21.07 56.85 21.59 57.2013574 21.6894344 57.5789784 21.5894493 57.8350923 21.3291709 58.0912063 21.0688924 58.1850882 20.6897081 58.08 20.34zM55.64 19.27C52.6656818 18.6557902 49.6617027 18.1951801 46.64 17.89 47.8611158 16.5137234 49.6970482 15.8509155 51.5157011 16.1297756 53.3343539 16.4086357 54.8873478 17.591079 55.64 19.27zM37.07 22.05C35.29 23.36 33.37 25.13 31.35 26.37 32.0886334 24.1376848 33.3946387 22.1356028 35.14 20.56 36.9483576 19.1357916 39.2404642 18.4721926 41.53 18.71 40.05 19.83 38.56 21 37.07 22.05zM45.49 24.25C44.86 25.52 43.66 23.75 43.35 23.14 43.1931298 22.8729311 42.9213593 22.6936269 42.61411 22.6544868 42.3068607 22.6153468 41.9988167 22.7207893 41.78 22.94 41.5278592 23.2054267 41.1353224 23.2821337 40.8018097 23.1311516 40.468297 22.9801695 40.2669264 22.634599 40.3 22.27 40.3 22.22 40.3 22.18 40.3 22.13 41.52 21.21 42.75 20.31 43.96 19.38 44.0440177 19.4322935 44.1348838 19.4726784 44.23 19.5 44.8251608 20.963584 45.3163789 22.4673131 45.7 24 45.6184665 24.0729218 45.547754 24.1571033 45.49 24.25zM51.43 25.75C52.03 28.11 51.35 30.75 50.43 33.11 50.03 31.89 49.62 30.68 49.32 29.44 48.25 26.44 47.67 23.32 46.64 20.33 48.9389121 21.3676926 50.6828083 23.3409531 51.43 25.75z"/>
      <path id="Path" fill="#3D454C" fill-rule="nonzero" d="M35.72,14.11 C35.1677153,14.11 34.72,14.5577153 34.72,15.11 C34.72,15.6622847 35.1677153,16.11 35.72,16.11 C36.2722847,16.11 36.72,15.6622847 36.72,15.11 C36.72,14.5577153 36.2722847,14.11 35.72,14.11 Z"/>
    </g>
  </g>
</svg>
