<svg xmlns="http://www.w3.org/2000/svg" width="64" height="64" viewBox="0 0 64 64" style="background:#fff">
  <g id="Paneer" fill="none" fill-rule="evenodd" stroke="none" stroke-width="1">
    <rect width="64" height="64" fill="#FFF"/>
    <g transform="translate(2 8)">
      <rect id="Rectangle" width="60" height="60" x="0" y="0"/>
      <path id="Path" fill="#CCC" fill-rule="nonzero" d="M51.9,30.37 C47.9,27.37 43.37,29.05 38.9,30.07 C41.25,24.82 40.1,17.07 34.81,15 C31.1,13.56 26.67,13.67 22.71,13.59 C18.6956123,13.3631872 14.6684679,13.6048159 10.71,14.31 C3.86,15.81 2.92,29 9.59,31.53 C13.448946,32.8173657 17.4352309,33.6856985 21.48,34.12 C22.73,34.31 24.06,34.55 25.4,34.76 L25.4,34.76 C20.97,38.53 20.91,51.08 27.4,53.07 C32.4,54.61 37.57,52.19 42.21,50.23 C47.3,48.09 51.69,45.57 53.87,40.34 C55.09,37.44 54.56,32.41 51.9,30.37 Z" opacity=".5"/>
      <path id="Shape" fill="#3D454C" fill-rule="nonzero" d="M55.45,14.7 C55.45,14.7 55.45,14.7 55.45,14.7 C55.45,14.7 55.45,14.7 55.45,14.65 C55.4453803,14.5637097 55.4250471,14.4789877 55.39,14.4 C55.39,14.4 55.39,14.4 55.39,14.4 C55.3422045,14.2915933 55.2743464,14.1931991 55.19,14.11 L55.08,14 C55.0193013,13.9453402 54.9521342,13.8983233 54.88,13.86 L54.76,13.86 C54.76,13.86 54.69,13.86 54.65,13.86 C53.99,13.73 38.65,10.67 35.18,10.2 C32.630491,9.76564581 30.1193282,9.13033165 27.67,8.3 C26.9975211,8.08009479 26.2724789,8.08009479 25.6,8.3 C23.22,9.05 17.45,10.92 15.24,11.93 C12.62,13 7.58,14.63 7.53,14.65 C7.27798309,14.7331085 7.06933351,14.9129788 6.95,15.15 C6.94566392,15.169765 6.94566392,15.190235 6.95,15.21 C6.90886249,15.3020796 6.88189069,15.3998523 6.87,15.5 C6.87,15.5 6.87,15.5 6.87,15.57 C6.87,16.07 6.46,28.02 6.87,32.04 C6.91460612,32.464649 7.22391666,32.8141297 7.64,32.91 C7.76,32.91 18.82,35.54 23.4,36.96 C18.32,38.62 12.77,40.39 12.7,40.41 L12.7,40.41 L12.7,40.41 C12.6015001,40.4474751 12.5101715,40.5015958 12.43,40.57 L12.34,40.65 C12.2911055,40.7057806 12.2475795,40.7660474 12.21,40.83 C12.1822282,40.8656178 12.1618311,40.9064119 12.15,40.95 C12.1220756,41.0251936 12.0987001,41.101999 12.08,41.18 C12.08,41.18 12.08,41.24 12.08,41.27 C11.9303802,43.9912783 11.9303802,46.7187217 12.08,49.44 C12.1014747,49.8658028 12.3905523,50.2311649 12.8,50.35 C12.94,50.35 16.11,51.3 18.72,51.81 C21.0911074,52.3853355 23.4281056,53.0931121 25.72,53.93 C25.8094574,53.9667502 25.9037728,53.9903291 26,54 L26,54 L26.17,54 C29.8650634,53.0771094 33.4853162,51.8770441 37,50.41 C40.44,48.73 53.86,43.96 54,43.91 C54.3636564,43.7808115 54.6205179,43.4538968 54.66,43.07 C54.9126,40.3425026 54.9126,37.5974974 54.66,34.87 C54.66,34.87 54.66,34.87 54.66,34.79 C54.643601,34.7069359 54.6167192,34.6262907 54.58,34.55 C54.5588736,34.5087528 54.5355053,34.4686929 54.51,34.43 C54.4722945,34.3723305 54.4287298,34.3187123 54.38,34.27 L54.26,34.17 L54.09,34.07 L53.88,34 L53.88,34 C53.46,33.9 43.39,31.54 41.3,31.13 C40.6007083,30.9985035 39.8778793,31.0858017 39.23,31.38 C38.77,31.59 37.76,31.98 36.51,32.43 C36.51,28.65 36.51,24.54 36.44,22.96 C38.67,22.02 46.29,18.82 48.44,18.14 C50.08,17.61 52.16,16.78 53.51,16.22 C53.56,19.52 53.66,27.47 53.51,31.01 C53.4964025,31.2753014 53.5889255,31.5351106 53.7671534,31.7320993 C53.9453813,31.9290881 54.1946654,32.0470657 54.46,32.06 L54.51,32.06 C55.0622847,32.06 55.51,31.6122847 55.51,31.06 C55.68,26.54 55.46,15.18 55.45,14.7 Z M13.93,48.7 C13.83,46.16 13.86,44 13.93,42.7 L24.93,45.8 C24.93,46.93 24.85,49.13 24.93,51.62 C22.9887198,50.9255827 21.0087132,50.3446027 19,49.88 C17.18,49.52 15,49 13.93,48.65 L13.93,48.7 Z M40,33.21 C40.2678621,33.0837057 40.5677974,33.0418542 40.86,33.09 C42.17,33.35 46.86,34.42 50.08,35.18 C48.5,35.75 46.49,36.49 44.49,37.24 C44.1357303,37.3499478 43.8714271,37.6469638 43.8033763,38.0116069 C43.7353256,38.3762501 43.8747091,38.7486032 44.1654758,38.9789297 C44.4562425,39.2092561 44.8506143,39.2597093 45.19,39.11 C48.19,38 51.1,36.94 52.71,36.36 C52.8437299,38.3177189 52.8437299,40.2822811 52.71,42.24 C50,43.24 39.26,47.07 36.1,48.61 C33.1290177,49.877687 30.0670855,50.9206158 26.94,51.73 C26.87,49.15 26.94,46.86 26.94,45.73 C28.77,45.14 33.94,43.48 36.59,42.56 C36.9402753,42.453757 37.2045155,42.1646294 37.2788863,41.8062311 C37.3532571,41.4478329 37.2258732,41.0774398 36.9467908,40.8405995 C36.6677083,40.6037593 36.2815276,40.5383214 35.94,40.67 C33.06,41.67 27.3,43.52 25.94,43.95 L16.44,41.27 C20.02,40.13 25.8,38.27 29.32,37.06 C31.63,36.31 38.42,33.92 40,33.21 Z M47.78,16.21 C45.38,16.98 36.87,20.56 35.25,21.21 C34.35,21.08 31.33,20.64 28.57,20.01 C28.3114017,19.9501532 28.0396194,19.9955729 27.8145326,20.1362522 C27.5894458,20.2769314 27.4295235,20.5013271 27.37,20.76 C27.3104288,21.0200045 27.3572033,21.2930332 27.499924,21.5183815 C27.6426446,21.7437298 27.8694814,21.9027191 28.13,21.96 C30.56,22.51 33.13,22.96 34.4,23.11 C34.4,24.91 34.47,29.28 34.46,33.11 C32.38,33.86 30.11,34.65 28.66,35.11 L26.66,35.77 L26.55,35.71 L25.83,35.54 C25.6106019,35.4984489 25.393617,35.4450372 25.18,35.38 C22.06,34.24 11.58,31.72 8.72,31.04 C8.48,27.46 8.66,19.75 8.72,16.76 C10.45,17.18 13.81,17.99 17.04,18.82 C17.3865476,18.9093164 17.7544206,18.8069672 18.0050447,18.5515064 C18.2556688,18.2960455 18.3509682,17.9262836 18.2550447,17.5815063 C18.1591211,17.2367291 17.8865476,16.9693164 17.54,16.88 C15.36,16.32 13.12,15.77 11.36,15.34 C12.91,14.79 14.7,14.13 15.99,13.54 C18.17,12.54 24.3,10.54 26.13,9.99 C26.4035927,9.905288 26.6964073,9.905288 26.97,9.99 C29.5370982,10.8611002 32.168477,11.5298115 34.84,11.99 C37.28,12.32 46.1,13.99 50.94,14.99 C50,15.48 48.79,15.92 47.8,16.23 L47.78,16.21 Z"/>
      <path id="Path" fill="#3D454C" fill-rule="nonzero" d="M40.65 40.91C41.2022847 40.91 41.65 40.4622847 41.65 39.91 41.65 39.3577153 41.2022847 38.91 40.65 38.91 40.0977153 38.91 39.65 39.3577153 39.65 39.91 39.65 40.4622847 40.0977153 40.91 40.65 40.91zM22.67 18.53C22.1177153 18.53 21.67 18.9777153 21.67 19.53 21.67 20.0822847 22.1177153 20.53 22.67 20.53 23.2222847 20.53 23.67 20.0822847 23.67 19.53 23.67 18.9777153 23.2222847 18.53 22.67 18.53zM16.12 27C15.5677153 27 15.12 27.4477153 15.12 28 15.12 28.5522847 15.5677153 29 16.12 29 16.6722847 29 17.12 28.5522847 17.12 28 17.12 27.4477153 16.6722847 27 16.12 27zM47.32 26.18C47.8722847 26.18 48.32 25.7322847 48.32 25.18 48.32 24.6277153 47.8722847 24.18 47.32 24.18 46.7677153 24.18 46.32 24.6277153 46.32 25.18 46.32 25.7322847 46.7677153 26.18 47.32 26.18z"/>
    </g>
  </g>
</svg>
