<svg xmlns="http://www.w3.org/2000/svg" width="64" height="64" viewBox="0 0 64 64" style="background:#fff">
  <g id="Pangasius" fill="none" fill-rule="evenodd" stroke="none" stroke-width="1">
    <rect width="64" height="64" fill="#FFF"/>
    <g transform="translate(2 4)">
      <rect id="Rectangle" width="60" height="60" x="0" y="0"/>
      <path id="Path" fill="#E0673A" fill-rule="nonzero" d="M20 43.25C19.0977896 42.9308449 18.0959167 43.2955434 17.61 44.12L17.4 43.79C17.5848593 43.6282594 17.7554863 43.4509411 17.91 43.26 18.6334801 42.0144514 18.5948149 40.4678412 17.81 39.26 14.87 35.64 10.04 39.26 8.14 42.18 7.04 43.87 7.14 49.04 10.14 48.86 11.14 48.8 13.14 48.46 13.9 49.45 14.26 49.94 14.15 50.99 14.18 51.54 14.27 53.63 15.79 56.54 18.18 54.84 20.2373936 53.1852603 21.6002766 50.8198378 22 48.21 22.34 46.59 21.73 43.88 20 43.25zM49.05 28.65C48.6650027 28.0495603 48.0365524 27.6476444 47.33 27.55 46.824713 27.5424076 46.3215315 27.6167029 45.84 27.77 44.9925891 27.9842551 44.2122363 28.4070894 43.57 29 41.7628409 30.6159193 40.7450718 32.9359952 40.78 35.36 40.88 36.61 41.23 38.18 42.43 38.84 42.9032851 39.0993267 43.4612849 39.1563787 43.9772576 38.9981973 44.4932302 38.8400159 44.9233784 38.4800281 45.17 38 45.441136 37.5797481 45.656285 37.1259182 45.81 36.65 45.81 36.56 45.87 36.47 45.91 36.38L46.21 35.9C46.21 35.9 46.43 35.66 46.53 35.56 47.69 34.42 48.85 33.93 49.46 32.39 49.9157989 31.1478233 49.7640883 29.7639271 49.05 28.65z" opacity=".5"/>
      <path id="Path" fill="#B3B3B3" fill-rule="nonzero" d="M43.2,10.84 C38.84,8.33 32.83,13.56 30.11,16.61 C26.56,20.61 23.52,26.39 23.88,31.87 C24.13,35.73 27.94,39 30.04,34.23 C31.65,30.58 32.26,27.29 35.22,24.31 C38.02,21.49 42.11,20.31 44.43,17.04 C45.7349659,14.9752605 45.1943487,12.250198 43.2,10.84 Z" opacity=".5"/>
      <path id="Shape" fill="#3D454C" fill-rule="nonzero" d="M55.45,13 C54.73,10.11 51.68,7.22 41.45,9.44 L29.45,8.68 C29.0963338,8.65864178 28.7577695,8.82602187 28.56,9.12 C28.3559698,9.41488065 28.3254456,9.79643258 28.48,10.12 C29.0617505,11.1786789 29.0617505,12.4613211 28.48,13.52 C27.4937901,15.0229887 25.8713162,15.9890982 24.08,16.14 C23.7741479,16.1744381 23.5011932,16.3478012 23.34,16.61 C23.1780436,16.87081 23.1448626,17.1915596 23.25,17.48 C23.7933968,18.9642587 23.6732135,20.6104053 22.92,22 C22.128294,23.4250473 20.7624566,24.4412303 19.17,24.79 C18.822902,24.8704331 18.544817,25.1294711 18.44,25.47 C18.3241769,25.8184439 18.4086336,26.2023378 18.66,26.47 C20.4632571,28.7979741 21.3011942,31.7307541 21,34.66 C20.3536038,35.9487687 19.4070419,37.0633796 18.24,37.91 C16.01,38.22 8.04,39.65 5.71,44.46 C5.48545367,44.9236871 5.64994365,45.4820873 6.09,45.75 C7.95640786,46.8167764 10.0365376,47.4555027 12.18,47.62 C12.8594407,47.6456664 13.4043336,48.1905593 13.43,48.87 C13.5967811,51.0283674 14.2424273,53.1224476 15.32,55 C15.5025417,55.2998614 15.8289527,55.4820443 16.18,55.480017 C16.3323698,55.4806236 16.4828673,55.4464197 16.62,55.38 C21.48,53 23,45.26 23.28,43 C24.4920258,41.638195 26.0667555,40.6496532 27.82,40.15 C32.1120445,38.9580477 36.1913148,37.1023002 39.91,34.65 C40.6234355,37.2600318 42.7546339,39.2401088 45.41,39.76 L45.55,39.76 C46.1022847,39.76 46.55,39.3122847 46.55,38.76 L46.55,37.11 C46.5525563,36.6402027 46.7653653,36.196239 47.13,35.9 C47.4956469,35.6004832 47.980447,35.4894603 48.44,35.6 L49.31,35.79 C49.5933266,35.8501347 49.8888082,35.7844721 50.12,35.61 C50.3530861,35.4363606 50.4990914,35.169901 50.52,34.88 C50.71,32.01 49.07,29.25 48.16,27.95 C53.39,22.62 56.42,16.83 55.45,13 Z M21,26.29 C22.5556775,25.6327875 23.8473261,24.4748791 24.67,23 C25.5209027,21.4514382 25.7904412,19.6497864 25.43,17.92 C27.4145658,17.4602356 29.1324085,16.2249735 30.2,14.49 C30.8463984,13.3643795 31.056386,12.0403901 30.79,10.77 L36.64,11.14 L36.38,11.29 L36,11.51 C35.67,11.7 35.34,11.9 35,12.12 L34.7,12.32 C34.29,12.61 33.89,12.91 33.49,13.24 L33.23,13.46 C32.91,13.72 32.6,14.01 32.23,14.3 L32,14.6 C31.66,14.93 31.33,15.28 31,15.6 L30.85,15.76 C30.47,16.18 30.1,16.62 29.74,17.08 C29.64,17.2 29.55,17.33 29.46,17.45 C29.1666667,17.8233333 28.8866667,18.2033333 28.62,18.59 L28.33,18.99 C27.98,19.51 27.63,19.99 27.33,20.6 L27.26,20.72 C26.94,21.24 26.63,21.78 26.32,22.34 L26.05,22.84 C25.78,23.33 25.52,23.84 25.26,24.35 L25,24.8 C24.69,25.45 24.37,26.12 24.06,26.8 L23.88,27.22 C23.63,27.79 23.38,28.38 23.14,28.98 C23.06,29.19 22.97,29.39 22.89,29.6 L22.68,30.11 C22.3173192,28.7587121 21.7508152,27.47059 21,26.29 Z M16.58,53 C15.9415445,51.6668039 15.5615072,50.2246978 15.46,48.75 C15.3934001,47.0331232 14.0168768,45.6565999 12.3,45.59 C10.8277229,45.4950861 9.38622689,45.1253848 8.05,44.5 C9.7,42.29 13.15,41.07 15.72,40.44 L15.72,40.49 L15.72,40.58 C15.6382249,40.703307 15.5679305,40.8338537 15.51,40.97 L15.45,41.12 C15.45,41.24 15.36,41.37 15.32,41.49 C15.28,41.61 15.32,41.59 15.32,41.65 C15.2841317,41.8278811 15.2640536,42.008584 15.26,42.19 L15.26,42.19 C15.2700472,43.2807456 15.7647688,44.3104993 16.61,45 C16.8162235,45.1829048 17.0332837,45.3532136 17.26,45.51 L17.46,45.62 C17.5889102,45.7041144 17.722455,45.7809027 17.86,45.85 L18.09,45.93 L18.43,46.05 L18.67,46.05 L18.98,46.05 L19.05,46.05 L19.21,46.05 L19.48,46.05 L19.71,45.99 L19.96,45.92 L20.18,45.83 L20.42,45.71 L20.62,45.59 L20.73,45.52 C20,48.31 18.67,51.48 16.58,53 Z M27.31,38.24 C25.0962613,38.8673597 23.1147125,40.1292934 21.61,41.87 L21.61,41.87 L21,42.5 C20.58,42.95 20.26,43.3 20,43.56 C19.17,44.32 18.79,44.23 17.94,43.46 C17.812789,43.3509873 17.6925521,43.2340904 17.58,43.11 C17.328093,42.8728007 17.1686152,42.5538452 17.13,42.21 C17.13,41.49 18.26,40.53 19.34,39.61 C20.75,38.41 22.34,37.05 22.95,35.2 C27.33,22 32.81,14.35 39.7,12 C40.2566856,16.1616475 42.5445373,19.8948405 46,22.28 C46.1610428,22.392792 46.3533994,22.4522477 46.55,22.45 C46.8880647,22.4516321 47.2040662,22.2823456 47.39,22 C47.536953,21.7775339 47.588982,21.5055951 47.5345287,21.2445947 C47.4800754,20.9835944 47.3236491,20.7551462 47.1,20.61 C42.93,17.87 41.9,13.26 41.65,11.42 C43.6712875,10.9274792 45.7400783,10.6558875 47.82,10.61 C51.07,10.61 53.04,11.61 53.51,13.46 C54.56,17.62 48.78,26 40.1,32.11 L40,32.18 C36.1511894,34.9168109 31.8578652,36.9670509 27.31,38.24 L27.31,38.24 Z M48.48,33.58 C47.4787529,33.4753666 46.4800136,33.7995379 45.7310769,34.472247 C44.9821401,35.1449562 44.553031,36.1033051 44.55,37.11 L44.55,37.41 C43.0158494,36.6340849 41.9480453,35.1681796 41.68,33.47 C43.4355682,32.2118781 45.1058898,30.8388738 46.68,29.36 C47.578059,30.6199768 48.1921736,32.0597344 48.48,33.58 L48.48,33.58 Z"/>
      <path id="Path" fill="#3D454C" fill-rule="nonzero" d="M46.17 12.52C45.6177153 12.52 45.17 12.9677153 45.17 13.52 45.17 14.0722847 45.6177153 14.52 46.17 14.52 46.7222847 14.52 47.17 14.0722847 47.17 13.52 47.17 12.9677153 46.7222847 12.52 46.17 12.52zM37.45 15.49C33.7451743 18.0470527 30.9061039 21.6708784 29.31 25.88 28.85 27.08 30.78 27.6 31.24 26.41 32.6676403 22.6875662 35.1836363 19.4815879 38.46 17.21 39.51 16.48 38.51 14.75 37.45 15.49zM29.11 29.17C28.5577153 29.17 28.11 29.6177153 28.11 30.17 28.11 30.7222847 28.5577153 31.17 29.11 31.17 29.6622847 31.17 30.11 30.7222847 30.11 30.17 30.11 29.6177153 29.6622847 29.17 29.11 29.17z"/>
    </g>
  </g>
</svg>
