<svg xmlns="http://www.w3.org/2000/svg" width="64" height="64" viewBox="0 0 64 64" style="background:#fff">
  <g id="Paniermehl-(Brot)" fill="none" fill-rule="evenodd" stroke="none" stroke-width="1">
    <rect width="64" height="64" fill="#FFF"/>
    <g transform="translate(2 4)">
      <rect id="Rectangle" width="60" height="60" x="0" y="0"/>
      <path id="Path" fill="#C17953" fill-rule="nonzero" d="M36.45,9.81 C34.7266032,8.40543226 32.6516361,7.49936331 30.45,7.19 C29.6544906,5.61409419 28.1802648,4.48999707 26.45,4.14 C21.1436922,3.22253553 15.7096729,3.34480096 10.45,4.5 C3,6.13 4.21,21.94 12.22,20 C13.6579733,19.6489459 15.1179371,19.3950391 16.59,19.24 C16.8210048,20.1953743 17.2316367,21.0980858 17.8,21.9 C19.22,23.82 21.8,24.83 23.8,22.9 C26.8,19.9 32.05,19.69 35.96,18.5 C39,17.55 38.56,11.44 36.45,9.81 Z" opacity=".5"/>
      <path id="Path" fill="#E0A075" fill-rule="nonzero" d="M54,35.85 L54,35.73 C53.16,35.53 52.35,35.39 51.56,35.28 C43.16,33.1 41.07,16.56 30.89,21 C25.82,23.14 25,29 24,33.69 C22.86,39.15 18.59,41.36 13.58,42.76 C10.45,43.64 10.58,51.48 13.81,52.1 C15.8573382,52.5031069 17.9667512,52.4690292 20,52 C20.91,54.16 22.47,56.12 24.8,55.82 C29.8,55.17 34.8,57.26 39.71,55.82 C42.05,55.15 43.51,53.56 45.55,52.37 C47.86,51.01 50.42,51.52 53.01,51.54 C59.73,51.58 59.7,38.34 54,35.85 Z" opacity=".5"/>
      <path id="Shape" fill="#3D454C" fill-rule="nonzero" d="M21.81,37.4 L21.98,37.59 C22.0822758,37.678806 22.1890858,37.7622512 22.3,37.84 L22.3,37.84 L22.3,37.84 C22.8842551,38.2542354 23.583813,38.4745961 24.3,38.4700705 L24.62,38.4700705 C25.1691457,38.4223274 25.5761623,37.9392747 25.53,37.39 C25.5071764,37.1243585 25.3792169,36.8788302 25.1745475,36.7079595 C24.9698782,36.5370888 24.7054479,36.4550255 24.44,36.48 C24.1383097,36.512509 23.8340223,36.449553 23.57,36.3 C23.44,36.17 23.28,36.04 23.14,35.91 C22.9263144,35.6182312 22.8013187,35.2710209 22.78,34.91 L22.88,34.52 C23.0180448,33.378855 23.0581913,32.2279904 23,31.08 C22.7410783,28.8427957 22.8016853,26.5801355 23.18,24.36 C23.1994576,24.1256801 23.1357259,23.8919972 23,23.7 C22.81,23.36 23.29,22.33 24,21.85 C24.4061251,21.6168722 24.835022,21.4258791 25.28,21.28 C26.6104071,20.8748748 27.8197511,20.1465199 28.8,19.16 C29.49,18.4 30.41,18.3 33.21,18.11 L33.54,18.11 C37.73,17.81 38.86,18.43 40.17,19.11 C41.0864688,19.6438183 42.0773416,20.0381452 43.11,20.28 C43.142847,20.2719477 43.177153,20.2719477 43.21,20.28 L43.42,20.5 C43.648869,20.8970935 43.7566243,21.3524463 43.73,21.81 L43.73,21.89 C43.4022811,24.5449152 43.2153528,27.2153192 43.17,29.89 C43.1696571,30.1641113 43.2818495,30.4263464 43.480344,30.6153888 C43.6788386,30.8044311 43.9462314,30.9037058 44.22,30.89 C44.7526668,30.8633337 45.1706671,30.4233335 45.17,29.89 C45.2178874,27.3961761 45.3914409,24.9063508 45.69,22.43 L45.69,22.26 C45.6948817,22.2101192 45.6948817,22.1598808 45.69,22.11 C45.8127725,20.9015349 45.3610348,19.705541 44.47,18.88 C39.8991402,14.2030937 35.0000037,9.85870251 29.81,5.88 C28.7920259,5.1106589 27.5939486,4.61490279 26.33,4.44 C15,2.76 9.6,6.08 7.52,7.35 C5.14,8.8 3.36,11.54 4.39,14.07 L4.06,19.72 C3.99121974,20.6986125 4.33162469,21.6618861 5,22.38 C7.93,25.44 12.49,29.38 16.52,32.79 C18.48,34.47 20.33,36.06 21.81,37.4 Z M6.43,21 C6.14789513,20.6827928 6.01025875,20.2626396 6.05,19.84 L6.41,14 C6.41666711,13.8277711 6.38239613,13.6564162 6.31,13.5 C5.48,11.76 7.25,9.86 8.6,9 C10.65,7.74 15.47,4.79 26.09,6.29 C27.0108367,6.40253303 27.888141,6.74657391 28.64,7.29 C32.3768531,10.1615825 35.9617029,13.2257278 39.38,16.47 C37.4308784,15.9170115 35.3906385,15.7605931 33.38,16.01 L33.05,16.01 C30.05,16.22 28.56,16.32 27.3,17.71 C26.5313514,18.4595071 25.5904982,19.0089104 24.56,19.31 C23.9597433,19.5021692 23.3854245,19.7674978 22.85,20.1 C21.72,20.88 20.56,22.71 21.1,24.23 C20.7418088,26.5129561 20.6913592,28.8336345 20.95,31.13 C20.95,32.22 20.95,33.56 20.95,33.88 L17.8,31.17 C13.82,27.86 9.3,24 6.43,21 Z"/>
      <path id="Path" fill="#3D454C" fill-rule="nonzero" d="M18.1 17.39C15.6343593 15.2352093 13.0250033 13.2506288 10.29 11.45 9.98788279 11.2290304 9.58765769 11.1952808 9.25280275 11.3625367 8.9179478 11.5297926 8.70453342 11.8700476 8.69964927 12.2443194 8.6949305 12.6185911 8.89954594 12.9642089 9.23 13.14 11.878893 14.8891322 14.4078671 16.8134243 16.8 18.9 16.979713 19.058524 17.2103774 19.147241 17.45 19.15 17.8686996 19.15 18.2430899 18.8892157 18.3881468 18.4964462 18.5332037 18.1036768 18.4182117 17.6621225 18.1 17.39zM37.57 38.11C37.0177153 38.11 36.57 38.5577153 36.57 39.11 36.57 39.6622847 37.0177153 40.11 37.57 40.11 38.1222847 40.11 38.57 39.6622847 38.57 39.11 38.57 38.5577153 38.1222847 38.11 37.57 38.11zM45.39 42.08C44.8377153 42.08 44.39 42.5277153 44.39 43.08 44.39 43.6322847 44.8377153 44.08 45.39 44.08 45.9422847 44.08 46.39 43.6322847 46.39 43.08 46.39 42.5277153 45.9422847 42.08 45.39 42.08zM30.33 45.86C29.7777153 45.86 29.33 46.3077153 29.33 46.86 29.33 47.4122847 29.7777153 47.86 30.33 47.86 30.8822847 47.86 31.33 47.4122847 31.33 46.86 31.33 46.3077153 30.8822847 45.86 30.33 45.86zM39.33 45.15C38.7777153 45.15 38.33 45.5977153 38.33 46.15 38.33 46.7022847 38.7777153 47.15 39.33 47.15 39.8822847 47.15 40.33 46.7022847 40.33 46.15 40.33 45.5977153 39.8822847 45.15 39.33 45.15z"/>
      <path id="Shape" fill="#3D454C" fill-rule="nonzero" d="M58,47 C57.86,46.21 57.1,46 56.6,45.89 C55.69,45.66 55.09,45.44 54.95,44.49 C54.69,42.77 52.95,42.49 51.84,42.37 C52.0411602,42.0594561 52.1195809,41.6851754 52.06,41.32 C51.92,40.6 51.3,40.32 50.81,40.08 C50.0600786,39.8412726 49.4739613,39.251422 49.24,38.5 C47.5,32.69 45.12,32.5 42.83,32.73 C42.5357134,32.7764762 42.2378618,32.7965561 41.94,32.79 C41.2371277,32.386091 40.3640847,32.4250661 39.7,32.89 C39.4420479,32.720652 39.2068072,32.5190171 39,32.29 C37.74,30.98 36.77,31.44 34.51,33.01 C34.16,33.25 31.98,34.55 30.81,35.24 C29.64,35.93 29.59,35.97 29.46,36.16 C28.0410517,38.407087 25.9377001,40.1388464 23.46,41.1 C22.099888,41.7311738 20.7836053,42.4527908 19.52,43.26 C18.5251291,43.7463368 17.4784894,44.118699 16.4,44.37 C15.7773213,44.5151658 15.170907,44.7228878 14.59,44.99 C14.2330317,45.2021367 13.8582857,45.3828178 13.47,45.53 C12.009536,45.8834936 10.9857414,47.1974323 11,48.7 C10.9846957,49.0269522 11.1303637,49.3406988 11.39,49.54 C12.1282469,49.9430905 12.9813096,50.0840926 13.81,49.94 C14.0996725,49.9205104 14.3903275,49.9205104 14.68,49.94 C15.4985216,50.009636 16.3214784,50.009636 17.14,49.94 C18.46,49.94 21.46,49.82 22.32,50.18 C22.3452399,50.6938464 22.5505761,51.1824049 22.9,51.56 C23.8,52.56 25.45,52.56 27.2,52.56 C28.1002228,52.5539298 28.9995681,52.6174523 29.89,52.75 L29.89,52.75 C29.8767296,52.9449457 29.8499992,53.138741 29.81,53.33 C29.5590842,54.099473 29.6693444,54.9411259 30.11,55.62 C30.626575,56.1678161 31.3581242,56.4604357 32.11,56.42 C33.28,56.42 34.35,56.42 35.33,56.42 C43.06,56.42 44.94,55.48 45.73,54.42 C46.2206868,53.7098609 46.3221084,52.8008229 46,52 L46,51.87 C47.18,51 48.46,50.95 50.07,50.87 C52.3160574,50.9370106 54.5308706,50.3310712 56.43,49.13 C57.31,48.51 58.19,47.92 58,47 Z M49.9,48.87 C48.07,48.95 46.18,49.03 44.42,50.5 C43.8570785,51.0565827 43.7158516,51.9120142 44.07,52.62 C44.19,53.02 44.23,53.21 44.16,53.3 C43.83,53.73 42,54.72 32.16,54.45 C31.9939822,54.4528926 31.8285672,54.4292619 31.67,54.38 C31.6779296,54.1542534 31.7080752,53.9298368 31.76,53.71 C31.88,53.03 32.22,51.2 30.25,50.82 C29.2582214,50.6593225 28.2546811,50.5823844 27.25,50.59 C26.18,50.59 24.7,50.54 24.38,50.2 C24.3576939,50.1283629 24.3576939,50.0516371 24.38,49.98 C24.3966367,49.5536862 24.2333421,49.1400064 23.93,48.84 C22.93,47.84 20.51,47.84 17.15,47.95 C16.4604468,47.9851161 15.7695532,47.9851161 15.08,47.95 C14.6478997,47.9037695 14.2121003,47.9037695 13.78,47.95 L13.28,47.95 C13.566156,47.6871188 13.9079957,47.4922701 14.28,47.38 C14.7544046,47.1914802 15.2154645,46.9709733 15.66,46.72 C16.0981803,46.5569974 16.5456304,46.4200911 17,46.31 C18.2736894,46.0298728 19.5068158,45.5897105 20.67,45 C21.858115,44.246951 23.0978568,43.5786266 24.38,43 C27.1019141,41.8797616 29.4131724,39.949058 31,37.47 L31.83,36.97 C33.63,35.91 35.28,34.97 35.65,34.67 C36.2076445,34.2404918 36.8073742,33.8685924 37.44,33.56 L37.56,33.69 C38.0084718,34.1767986 38.5401188,34.5797667 39.13,34.88 C39.6161506,35.0783293 40.170802,35.0061486 40.59,34.69 L40.9,34.53 C40.9854048,34.5910768 41.0798957,34.6383223 41.18,34.67 C41.7944646,34.8291587 42.4366372,34.8496535 43.06,34.73 C44.53,34.56 45.92,34.39 47.33,39.08 C47.686915,40.3010249 48.5708392,41.2986488 49.74,41.8 C49.3330995,42.2046383 49.1830537,42.8009744 49.35,43.35 C49.66,44.19 50.55,44.27 51.41,44.35 C51.94,44.35 52.92,44.49 52.97,44.79 C53.1160303,46.0428812 53.9554225,47.106627 55.14,47.54 C53.572103,48.487409 51.7604378,48.9533651 49.93,48.88 L49.9,48.87 Z"/>
      <path id="Path" fill="#3D454C" fill-rule="nonzero" d="M18.86 52.44C18.6527966 52.30183 18.4090432 52.2287039 18.16 52.23 17.6077153 52.1664873 17.1085128 52.5627153 17.045 53.115 16.9814873 53.6672847 17.3777153 54.1664872 17.93 54.23 18.0502223 54.281241 18.1793227 54.30842 18.31 54.31 18.7547253 54.3133163 19.1481997 54.0225288 19.2755691 53.5964201 19.4029385 53.1703115 19.233592 52.7112894 18.86 52.47L18.86 52.44zM29.88 28.18C30.4322847 28.18 30.88 27.7322847 30.88 27.18 30.88 26.6277153 30.4322847 26.18 29.88 26.18 29.3277153 26.18 28.88 26.6277153 28.88 27.18 28.88 27.7322847 29.3277153 28.18 29.88 28.18zM37.18 24.79C37.7322847 24.79 38.18 24.3422847 38.18 23.79 38.18 23.2377153 37.7322847 22.79 37.18 22.79 36.6277153 22.79 36.18 23.2377153 36.18 23.79 36.18 24.3422847 36.6277153 24.79 37.18 24.79z"/>
    </g>
  </g>
</svg>
