<svg xmlns="http://www.w3.org/2000/svg" width="64" height="64" viewBox="0 0 64 64" style="background:#fff">
  <g id="Paprika" fill="none" fill-rule="evenodd" stroke="none" stroke-width="1">
    <rect width="64" height="64" fill="#FFF"/>
    <g transform="translate(5 8)">
      <path id="Path" fill="#E05362" fill-rule="nonzero" d="M26.42,11 C24.99,7.44 20.35,6 16.82,7.83 C15.7091391,8.41311665 14.5347063,8.86611217 13.32,9.18 C11.53,4.67 2.55,4 0.78,9.63 C-1.8,17.91 4.39,26.14 13.57,26.51 C22.16,26.85 29.64,19 26.42,11 Z" opacity=".5"/>
      <path id="Shape" stroke="#3D454C" stroke-linecap="round" stroke-linejoin="round" stroke-width="2" d="M18,7.85 C18.5,7.67 15.34,7.58 15.58,5.16 C15.6541339,4.04384746 16.2558347,3.02987018 17.2,2.43 C17.5412396,2.17822952 17.9145296,1.97308821 18.31,1.82 C20,1.23 15.22,-0.48 15,0.39 C14.0127052,1.29374074 13.2580206,2.42233726 12.8,3.68 C12.57,4.59 13.06,7.1 9.96,7.68 M17.15,8.87 C19.86,7 24.91,6 25.32,10.18 C25.62,13.25 23.73,20.48 22.96,22.86 C22.43,24.48 21.32,25.62 19.14,24.77 M8.05,20.65 C8.28641655,21.8373943 8.69755204,22.9831817 9.27,24.05 C10.283835,25.9356362 12.5303941,26.7882203 14.54,26.05 C15.342221,25.8598632 16.177779,25.8598632 16.98,26.05 C18.2,26.55 18.81,23.51 19.07,22.84 C19.6,21.47 20.31,13.7 19.26,11.24 C18.72,9.98 16.52,8.24 14.95,8.9 C12.45,9.95 12.09,8.9 10.25,8.47 L10.25,8.47 C9.17,8.25 8.19,9.47 7.67,10.32 C7.06336223,11.3059112 6.85256151,12.4849661 7.08,13.62 M8.68,24.28 C4.2,27.84 0.91,10.6 3.68,7.58 C6.73,4.29 9.78,7.75 10.22,8.47"/>
      <path id="Path" fill="#E05362" fill-rule="nonzero" d="M51.87,41.8 C48.9157293,36.6598681 45.4263386,31.8464532 41.46,27.44 C37.73,23.28 33.52,23.55 28.61,26.09 C22.46,29.28 15.35,34.09 11.61,40.09 L11.48,40.16 C8.34,41.87 7.2,45.16 7.53,48.41 C7.78,50.82 9.28,55.27 12.8,55.03 C24.58,54.24 36.36,54.28 48.16,54.03 C54.33,53.92 53.83,45.21 51.87,41.8 Z" opacity=".5"/>
      <line id="Path" x1="6.36" x2="52.36" y1="53.94" y2="53.94" stroke="#3D454C" stroke-linecap="round" stroke-linejoin="round" stroke-width="2"/>
      <path id="Path" stroke="#3D454C" stroke-linecap="round" stroke-linejoin="round" stroke-width="2" d="M8.36,53.94 C8.36,41.83 20.3,31.44 26.18,27.07 C28.078202,25.6985603 30.641798,25.6985603 32.54,27.07 C38.41,31.44 50.36,41.83 50.36,53.94"/>
      <circle id="Oval" cx="18.34" cy="48.28" r="1" fill="#3D454C" fill-rule="nonzero"/>
      <circle id="Oval" cx="26.26" cy="35.9" r="1" fill="#3D454C" fill-rule="nonzero"/>
      <circle id="Oval" cx="43.38" cy="47.35" r="1" fill="#3D454C" fill-rule="nonzero"/>
      <path id="Path" fill="#3D454C" fill-rule="nonzero" d="M39.62 22.79C40.1722847 22.79 40.62 22.3422847 40.62 21.79 40.62 21.2377153 40.1722847 20.79 39.62 20.79 39.0677153 20.79 38.62 21.2377153 38.62 21.79 38.62 22.3422847 39.0677153 22.79 39.62 22.79zM25.78 44.85C26.3322847 44.85 26.78 44.4022847 26.78 43.85 26.78 43.2977153 26.3322847 42.85 25.78 42.85 25.2277153 42.85 24.78 43.2977153 24.78 43.85 24.78 44.4022847 25.2277153 44.85 25.78 44.85zM36.72 43.78C37.2722847 43.78 37.72 43.3322847 37.72 42.78 37.72 42.2277153 37.2722847 41.78 36.72 41.78 36.1677153 41.78 35.72 42.2277153 35.72 42.78 35.72 43.3322847 36.1677153 43.78 36.72 43.78zM47.12 31.51C47.6722847 31.51 48.12 31.0622847 48.12 30.51 48.12 29.9577153 47.6722847 29.51 47.12 29.51 46.5677153 29.51 46.12 29.9577153 46.12 30.51 46.12 31.0622847 46.5677153 31.51 47.12 31.51zM7.52 18.05C8.07228475 18.05 8.52 17.6022847 8.52 17.05 8.52 16.4977153 8.07228475 16.05 7.52 16.05 6.96771525 16.05 6.52 16.4977153 6.52 17.05 6.52 17.6022847 6.96771525 18.05 7.52 18.05z"/>
    </g>
  </g>
</svg>
