<svg xmlns="http://www.w3.org/2000/svg" width="64" height="64" viewBox="0 0 64 64" style="background:#fff">
  <g id="Pariser-Karotten" fill="none" fill-rule="evenodd" stroke="none" stroke-width="1">
    <rect width="64" height="64" fill="#FFF"/>
    <g transform="translate(2 4)">
      <rect id="Rectangle" width="60" height="60" x="0" y="0"/>
      <path id="Path" fill="#E0673A" fill-rule="nonzero" d="M52.8,28.05 C49.96,25.28 46.42,25.31 43.06,27.16 C41.42,28.06 40.33,29.65 38.4,29.91 C36.76,30.12 34.53,28.91 32.85,28.73 C29.22,28.32 25.85,31.35 22.72,30.24 C20.82,29.57 19.48,27.96 17.41,27.45 C15.5178001,26.959008 13.5105381,27.1907522 11.78,28.1 C10.897729,28.5207617 10.1498634,29.1786065 9.62,30 C9.07012617,30.6253462 8.6851434,31.378125 8.5,32.19 C8.43,32.49 8.39,32.81 8.33,33.11 C8.20771284,33.6706432 8.12087412,34.2384348 8.07,34.81 C7.57,38.9 7.81,43.08 7.72,47.18 C7.65,50.68 10.72,55.84 14.52,52.83 C16.59,51.19 18.81,49.21 21.52,48.59 C22.5522454,48.3387391 23.6263311,48.3114607 24.67,48.51 C26,48.81 26.84,50.32 26.84,48.76 C26.84,52.99 32.21,60.16 35.57,53.98 C36.33,52.57 37.34,49.52 39.48,49.83 C40.76,50.01 42.34,52.18 43.65,52.7 C46.81,53.94 49.87,52.64 52.01,50.24 C56.65,45 58.16,33.29 52.8,28.05 Z" opacity=".5"/>
      <path id="Path" fill="#31E085" fill-rule="nonzero" d="M43.1,3.63 C42.7,2.85 41.67,1.45 40.57,2.14 C37.92,3.83 37.64,7.74 36.38,10.48 C34.91,13.68 32.28,16.48 31.21,19.85 C31.1606438,19.5956599 31.0835151,19.3475069 30.98,19.11 C29.8507995,16.9879547 29.0100354,14.7246177 28.48,12.38 C28.2362741,10.0545184 28.1994629,7.71199146 28.37,5.38 C28.42,3.2 26.17,0.54 24.48,3 C20.29,9.11 21.48,19.7 25.87,25.41 C28.16,28.41 30.14,26.41 30.96,23.77 C31.29,25.71 32.33,27.39 34.51,26.77 C38.24,25.72 40.51,19.71 41.77,16.42 C43.11,12.86 45,7.25 43.1,3.63 Z" opacity=".5"/>
      <path id="Shape" fill="#3D454C" fill-rule="nonzero" d="M52.9,31.33 C51.5903655,29.5941484 49.4440541,28.7027214 47.29,29 C45.9137503,29.1592334 44.5670204,29.51275 43.29,30.05 C41.1116036,25.2128158 39.2998344,20.2187509 37.87,15.11 C38.77,12.55 39.69,10 40.65,7.46 C41.1,6.26 39.17,5.74 38.72,6.93 C38.12,8.52 37.54,10.1 36.96,11.69 C36.64,10.38 36.33,9.06 36.05,7.69 C35.77,6.32 33.86,6.97 34.12,8.23 C34.6,10.52 35.12,12.78 35.78,15.02 C34.08,20 32.45,24.91 31,29.91 C30.9664088,30.0513652 30.9664088,30.1986348 31,30.34 L30.82,30.34 C30.0222398,26.9667729 29.4146157,23.5513916 29,20.11 C30.82,17.99 32.65,15.88 34.47,13.77 C35.3,12.77 33.9,11.38 33.05,12.36 L28.73,17.36 C28.4396097,14.0584575 28.3294462,10.7435376 28.4,7.43 C28.4,6.87771525 27.9522847,6.43 27.4,6.43 C26.8477153,6.43 26.4,6.87771525 26.4,7.43 C26.3157241,11.4367639 26.4860671,15.444835 26.91,19.43 L18.29,29.43 C18.133546,29.5831337 18.0316672,29.7833783 18,30 C16.7135,29.5014333 15.3697667,29.1655 14,29 C11.8426028,28.6989106 9.69148829,29.5907428 8.38,31.33 C7.54317502,32.8792993 7.24088422,34.661409 7.52,36.4 C7.89568054,41.3399341 8.75990212,46.2304903 10.1,51 C10.1799353,51.284028 10.3812251,51.5182561 10.65,51.64 C10.7787602,51.6986689 10.9185051,51.7293446 11.06,51.73 C11.2152447,51.7276583 11.3683748,51.6936294 11.51,51.63 C14.35,50.25 17.57,48.69 20.51,47.14 C20.9960106,46.8776647 21.1773353,46.2710106 20.915,45.785 C20.6526647,45.2989894 20.0460106,45.1176647 19.56,45.38 C17,46.68 14.26,48 11.71,49.27 C10.749466,45.5274521 10.0807922,41.7160114 9.71,37.87 C10.2436784,38.1935392 10.8020821,38.4744129 11.38,38.71 C11.7247613,38.8046754 12.0938426,38.7082311 12.3482145,38.4569967 C12.6025864,38.2057624 12.7036039,37.8379065 12.6132145,37.4919967 C12.5228252,37.146087 12.2547613,36.8746754 11.91,36.78 C11.0105483,36.4124554 10.1918008,35.8722858 9.5,35.19 C9.42252071,34.2352957 9.62771116,33.2788995 10.09,32.44 C11.0034585,31.3268987 12.4370819,30.7793078 13.86,31 C16.2036413,31.3080651 18.4357165,32.1871593 20.36,33.56 C20.6386672,33.7850773 21.0162436,33.8443902 21.3504998,33.715596 C21.6847561,33.5868019 21.9249108,33.2894675 21.9804999,32.935596 C22.036089,32.5817245 21.8986672,32.2250773 21.62,32 C21.0360545,31.5338637 20.4061351,31.1284368 19.74,30.79 L27.2,22.15 C27.5933333,25.0233333 28.12,27.88 28.78,30.72 C27.8623181,30.994973 26.9897601,31.4026159 26.19,31.93 C23.923965,33.3488077 22.3623799,35.658501 21.89,38.29 C21.5272423,41.4989369 22.4194656,44.7238405 24.38,47.29 C26.1488487,49.6052324 28.2092129,51.6824022 30.51,53.47 C30.8791707,54.5359789 31.6027556,55.4431072 32.56,56.04 C33.65,56.73 34.65,55.04 33.56,54.32 C33.0650701,53.9996138 32.6755153,53.5404956 32.44,53 C32.75,50.85 34.19,49.46 35.85,47.86 C37.3852819,46.5529313 38.6520726,44.9601033 39.58,43.17 C40.6204276,40.7580947 40.5435833,38.0099955 39.37,35.66 C38.2694301,33.2227943 36.1515146,31.3938517 33.58,30.66 C33.35,30.6 33.11,30.56 32.88,30.52 L32.88,30.52 C34.1,26.46 35.3933333,22.4266667 36.76,18.42 C38.1033538,22.7068119 39.706316,26.9079087 41.56,31 C41.2503209,31.2035437 40.9621686,31.4380862 40.7,31.7 C40.4146238,31.9443899 40.2903181,32.3281184 40.3781899,32.693419 C40.4660617,33.0587195 40.7512805,33.3439383 41.116581,33.4318101 C41.4818816,33.5196819 41.8656101,33.3953762 42.11,33.11 C43.6604782,31.9060044 45.5246296,31.1735352 47.48,31 C48.8997413,30.7743615 50.3313741,31.3279262 51.23,32.45 C51.8037464,33.6359278 51.9925456,34.9715073 51.77,36.27 C51.77,36.38 51.77,36.5 51.77,36.61 C51.6799931,36.6561708 51.5960257,36.7132686 51.52,36.78 C50.7246589,37.5657445 49.636771,37.9827682 48.52,37.93 C47.9677153,37.93 47.52,38.3777153 47.52,38.93 C47.52,39.4822847 47.9677153,39.93 48.52,39.93 C49.563879,39.9617335 50.5979631,39.7204472 51.52,39.23 C51.1264146,42.6274984 50.4914766,45.9926698 49.62,49.3 C46.85,48.04 43.95,46.56 41.7,45.3 C41.4694763,45.166455 41.1951937,45.1304163 40.9379963,45.1998783 C40.680799,45.2693404 40.4619512,45.4385603 40.33,45.67 C40.0767034,46.1384664 40.2349921,46.7232551 40.69,47 C43.14,48.42 46.33,50 49.31,51.37 C49.7005063,52.4294358 50.2912484,53.4038209 51.05,54.24 C51.92,55.24 53.33,53.78 52.47,52.83 C51.9576857,52.2674525 51.5511634,51.6170168 51.27,50.91 C52.5700211,46.165846 53.4039733,41.3061489 53.76,36.4 C54.0391158,34.661409 53.736825,32.8792993 52.9,31.33 Z M37.56,36.48 C38.4798185,38.2996063 38.5529585,40.4316364 37.76,42.31 C36.9333641,43.8671833 35.8126904,45.2493475 34.46,46.38 C32.9028165,47.6706967 31.6640851,49.3029477 30.84,51.15 C29.030221,49.6918299 27.4108666,48.0120016 26.02,46.15 C24.5239138,44.1771927 23.7412729,41.7552361 23.8,39.28 C25.0899007,39.5633366 26.4343197,39.466066 27.67,39 C28.86,38.56 28.35,36.63 27.13,37.07 C26.2034588,37.4310755 25.1902953,37.507672 24.22,37.29 C25.4149447,34.3332308 28.251866,32.3686039 31.44,32.2899882 C31.9868545,32.2889403 32.5314905,32.3595412 33.06,32.5 C35.066264,33.1111864 36.7082632,34.5634435 37.56,36.48 L37.56,36.48 Z"/>
      <path id="Path" fill="#3D454C" fill-rule="nonzero" d="M31.08 35.78C30.5277153 35.78 30.08 36.2277153 30.08 36.78 30.08 37.3322847 30.5277153 37.78 31.08 37.78L31.22 37.78C31.7722847 37.78 32.22 37.3322847 32.22 36.78 32.22 36.2277153 31.7722847 35.78 31.22 35.78L31.08 35.78zM15.34 40.33C15.8922847 40.33 16.34 39.8822847 16.34 39.33 16.34 38.7777153 15.8922847 38.33 15.34 38.33 14.7877153 38.33 14.34 38.7777153 14.34 39.33 14.34 39.8822847 14.7877153 40.33 15.34 40.33z"/>
    </g>
  </g>
</svg>
