<svg xmlns="http://www.w3.org/2000/svg" width="64" height="64" viewBox="0 0 64 64" style="background:#fff">
  <g id="Parmesan" fill="none" fill-rule="evenodd" stroke="none" stroke-width="1">
    <rect width="64" height="64" fill="#FFF"/>
    <g transform="translate(2 10)">
      <g id="Layer_2">
        <rect id="Rectangle" width="60" height="60" x="0" y="0"/>
        <rect id="Rectangle" width="60" height="60" x="0" y="0"/>
      </g>
      <g id="Layer_1" fill-rule="nonzero" transform="translate(7 9)">
        <path id="Path" fill="#D4BA39" d="M43.08,11.27 C41,8.4 36,8.51 33.62,5.4 C31.56,2.74 31.25,1.09 23.32,1.91 C15.39,2.73 7.1,4 3.1,9.35 C2.1,10.69 1.76,14.46 4.54,14.92 C10.79,15.92 16.81,12.6 23.05,14.18 C28.58,15.58 34.05,21.42 40.05,20.74 C45.61,20.12 45.1,14.07 43.08,11.27 Z" opacity=".5"/>
        <path id="Path" fill="#EBE53F" d="M45.89,29.05 C43.72,24.73 41.16,23.05 36.81,21.29 C33.0794934,19.7650486 29.2165283,18.5867438 25.27,17.77 C17.8,16.22 9.48,15 2.45,18.77 C-0.78,20.49 -0.34,26.31 2.67,27.97 C9.06,31.49 16.67,32.28 23.53,34.55 C26.83,35.64 30.13,36.87 33.32,38.27 C36.87,39.82 39.32,41.82 43.21,40.17 C46.91,38.58 47.45,32.14 45.89,29.05 Z" opacity=".5"/>
        <path id="Shape" fill="#3D454C" d="M45.7200776,20.85 C45.7242948,20.2527117 45.5501953,19.6677377 45.22,19.17 L32.88,2.73 C31.7510665,1.24247926 29.9769123,0.387017066 28.11,0.43 C23,0.58 10.35,1.65 2.24,8.22 C2.04531653,8.38062582 1.87958659,8.57341371 1.75,8.79 C1.75,8.79 1.75,8.79 1.75,8.84 C1.51979735,9.18471884 1.38837899,9.58589065 1.37,10 L1.37,28 C1.3935144,28.9049865 2.04911168,29.669154 2.94,29.83 C5.26,30.33 13.94,32.77 22.29,35.13 C31.47,37.7 41,40.38 43.64,40.94 C43.7572795,40.9738388 43.8780852,40.9939731 44,41.0001399 C44.4074844,41.005166 44.8038556,40.8671439 45.12,40.61 C45.4872464,40.3148148 45.7035888,39.8711296 45.71,39.4 C45.73,38.75 45.7,24 45.7200776,20.85 Z M28.17,2.43 C29.3963986,2.38315783 30.5658269,2.94913118 31.29,3.94 L42.53,18.94 L4.63,8.94 C12.29,3.5 23.53,2.57 28.17,2.43 Z M22.83,33.19 C14.1,30.73 5.83,28.41 3.37,27.86 L3.37,10.67 L43.72,21.3 C43.72,24.83 43.72,36.4 43.72,38.92 C40.72,38.24 31.63,35.67 22.83,33.19 Z"/>
        <path id="Path" fill="#3D454C" d="M30.55 25C29.5267296 25.1522068 28.4825182 24.9398248 27.6 24.4 26.8711049 24.0233887 26.0986326 23.7379098 25.3 23.55 24.1589232 23.3404687 22.9935826 23.2966842 21.84 23.42 20.9893076 23.5149434 20.1306924 23.5149434 19.28 23.42 17.9703128 23.0943764 16.7590667 22.4561561 15.75 21.56 13.87 20.17 11.75 18.56 8.75 19.9 8.3928358 20.0204553 8.13374677 20.3315098 8.07984696 20.7045655 8.02594716 21.0776213 8.18639484 21.4492912 8.49485683 21.6659175 8.80331882 21.8825438 9.20738344 21.9073189 9.54 21.73 11.4 20.93 12.67 21.73 14.54 23.17 15.8214661 24.261473 17.3540417 25.017452 19 25.37 19.9955206 25.4912325 21.0009924 25.5079904 22 25.42 22.972638 25.3104282 23.9559563 25.3407359 24.92 25.51 25.570368 25.6635096 26.1986935 25.8987117 26.79 26.21 27.7434091 26.7299644 28.8047219 27.0209695 29.89 27.06 30.2251655 27.0560292 30.5595116 27.0259381 30.89 26.97 31.2472656 26.9074785 31.5440378 26.6591074 31.6685254 26.3184456 31.793013 25.9777837 31.7263034 25.5965859 31.4935254 25.3184456 31.2607474 25.0403052 30.8972656 24.9074785 30.54 24.97L30.55 25zM34.93 23.58C34.3777153 23.58 33.93 24.0277153 33.93 24.58 33.93 25.1322847 34.3777153 25.58 34.93 25.58 35.4822847 25.58 35.93 25.1322847 35.93 24.58 35.93 24.0277153 35.4822847 23.58 34.93 23.58z"/>
      </g>
    </g>
  </g>
</svg>
