<svg xmlns="http://www.w3.org/2000/svg" width="64" height="64" viewBox="0 0 64 64" style="background:#fff">
  <g id="Pastinaken" fill="none" fill-rule="evenodd" stroke="none" stroke-width="1">
    <rect width="64" height="64" fill="#FFF"/>
    <g transform="translate(2 6)">
      <rect id="Rectangle" width="60" height="60" x="0" y="0"/>
      <path id="Path" fill="#E0A075" fill-rule="nonzero" d="M45.38,9.82 C39.92,15.77 35.98,22.82 30.05,28.43 C27.0463727,31.2690298 23.8486335,33.8953861 20.48,36.29 C17.05,38.77 13.22,40.44 10.77,43.95 C8.71,46.89 9.35,54.52 14,54.68 C17.9,54.81 21.86,51.14 24.86,48.83 C28.6135418,45.9037938 32.0913815,42.6401809 35.25,39.08 C41.12,32.57 47.35,24.69 49.78,16.13 C50.31,14.14 48.76,6.13 45.38,9.82 Z" opacity=".5"/>
      <path id="Path" fill="#3D454C" fill-rule="nonzero" d="M52.32,7.72 C52.73,6.78 51.54,5.55 50.75,6.51 C47.2,10.79 42.75,14.33 38.32,17.71 C36.9964464,18.6644802 35.8059713,19.7910597 34.78,21.06 C32.7114481,23.6352592 30.1690259,25.7907172 27.29,27.41 C26.2,28.08 27.2,29.81 28.29,29.14 C30.1358279,28.0936431 31.8918293,26.8962174 33.54,25.56 C33.9286334,26.1609378 34.4233555,26.6861565 35,27.11 C35.4392147,27.4435694 36.0655748,27.3585634 36.4,26.92 C36.7335694,26.4807853 36.6485634,25.8544252 36.21,25.52 C35.57,25.03 35.03,24.29 35.08,24.06 C35.08,24.06 35.08,24 35.08,23.97 L35.14,23.9 C36.4072035,22.1665768 37.8890125,20.6007649 39.55,19.24 C42.5545193,16.9965435 45.4416661,14.6000447 48.2,12.06 C46.37,16.21 44.53,20.36 42.72,24.52 C42.6648723,24.6038296 42.6211546,24.6946278 42.59,24.79 C41.7380327,27.3343085 40.37707,29.6785668 38.59,31.68 L38.59,31.68 C37.9579894,31.5266174 37.3824063,31.1972174 36.93,30.73 C36.5399625,30.3422764 35.9100375,30.3422764 35.52,30.73 C35.3306873,30.9177666 35.2242017,31.1733625 35.2242017,31.44 C35.2242017,31.7066375 35.3306873,31.9622334 35.52,32.15 C36.0017499,32.5865581 36.5398814,32.9565236 37.12,33.25 C36.45,33.97 35.75,34.69 35.03,35.45 C33.7835847,36.7920687 32.615007,38.2043783 31.53,39.68 C31.1112826,40.204096 30.4416634,40.4604645 29.78,40.35 C28.2214833,39.9362738 26.9388421,38.8305487 26.3,37.35 C26.0956546,36.8363752 25.5136248,36.5856547 25,36.79 C24.4863752,36.9943454 24.2356547,37.5763752 24.44,38.09 C25.327418,40.2528196 27.2109582,41.8491665 29.49,42.37 L29.49,42.37 C29.19,42.77 28.89,43.17 28.58,43.56 C28.4642033,43.6307268 28.3624915,43.7222674 28.28,43.83 C28.1685555,43.9793544 27.9845232,44.0560346 27.8,44.03 C26.7510209,43.8465147 25.7993399,43.3016862 25.11,42.49 C24.9074627,42.1839074 24.5535182,42.013367 24.187912,42.0457122 C23.8223059,42.0780573 23.5038,42.3080893 23.3581479,42.6449862 C23.2124958,42.9818832 23.2631074,43.3714973 23.49,43.66 C24.329742,44.687525 25.4529468,45.4456013 26.72,45.84 C24.9865247,47.9632578 22.8656234,49.7380281 20.47,51.07 C17.6202029,52.7686954 13.9828419,52.3289241 11.62,50 C6.12,44.94 9.2,40.51 13.62,37.15 C13.7747466,38.9560332 14.5690716,40.6475197 15.86,41.92 C16.0433983,42.0866976 16.2821642,42.179353 16.53,42.18 C16.8121782,42.179333 17.0809408,42.0594794 17.27,41.85 C17.450366,41.6530474 17.5444579,41.3921316 17.5313088,41.1253932 C17.5181598,40.8586549 17.3988623,40.6082583 17.2,40.43 C16.1016483,39.3296405 15.526587,37.8119154 15.62,36.26 C15.6452443,36.0190978 15.7312674,35.7885558 15.87,35.59 C17.47,34.59 19.09,33.68 20.44,32.95 C21.57,32.33 20.57,30.61 19.44,31.22 C13.62,34.34 4.71,38.43 7.21,46.62 C8.36,50.37 12,53.88 16.06,54.19 C21.63,54.62 25.81,50.1 29.25,45.67 C29.5047493,45.512176 29.7312241,45.3127429 29.92,45.08 C30.0308677,44.9324745 30.0937056,44.7544337 30.1,44.57 C30.84,43.57 31.56,42.64 32.24,41.77 C32.6160077,41.5330403 32.9532919,41.239603 33.24,40.9 C33.3641171,40.7429664 33.434258,40.550079 33.44,40.35 C35.6,37.82 37.92,35.61 39.96,33.2 C40.0111146,33.1365601 40.0578876,33.0697415 40.1,33 C42.0063785,30.8186409 43.485427,28.2981521 44.46,25.57 C47.06,19.6 49.72,13.67 52.32,7.72 Z"/>
      <path id="Path" fill="#3D454C" fill-rule="nonzero" d="M19.68 42.62C19.1277153 42.62 18.68 43.0677153 18.68 43.62 18.68 44.1722847 19.1277153 44.62 19.68 44.62 20.2322847 44.62 20.68 44.1722847 20.68 43.62 20.68 43.0677153 20.2322847 42.62 19.68 42.62zM23.88 31.18C24.4322847 31.18 24.88 30.7322847 24.88 30.18 24.88 29.6277153 24.4322847 29.18 23.88 29.18 23.3277153 29.18 22.88 29.6277153 22.88 30.18 22.88 30.7322847 23.3277153 31.18 23.88 31.18z"/>
    </g>
  </g>
</svg>
