<svg xmlns="http://www.w3.org/2000/svg" width="64" height="64" viewBox="0 0 64 64" style="background:#fff">
  <g id="Peperoni" fill="none" fill-rule="evenodd" stroke="none" stroke-width="1">
    <rect width="64" height="64" fill="#FFF"/>
    <g fill-rule="nonzero" transform="translate(7 12)">
      <path id="Path" fill="#31E085" d="M35.57,5.55 C35.41,4.01 34.69,1.55 33.08,1.03 C30.55,0.27 28.42,1.57 26.41,3.15 C24.1109555,4.83788652 22.546871,7.34328517 22.04,10.15 C21.7721077,11.7339629 22.0136991,13.3620787 22.73,14.8 C23.2,15.72 24.14,17.05 25.31,16.8 C26.3718722,16.5698466 27.3402795,16.0264238 28.09,15.24 C28.36,14.99 28.61,14.7 28.89,14.45 C28.89,14.45 29.6,13.89 29.54,13.92 C31.05,12.92 32.76,12.34 34.1,11.01 C35.44,9.68 35.76,7.39 35.57,5.55 Z" opacity=".5"/>
      <path id="Path" fill="#E05362" d="M48.67,22.52 C46.06,16 37.61,13.33 31.18,16.74 C29.1586774,17.8029932 27.0211241,18.6284847 24.81,19.2 C21.55,11.08 5.21,9.78 1.99,20.11 C-2.72,35.19 8.56,50.16 25.26,50.83 C40.9,51.46 54.53,37.09 48.67,22.52 Z" opacity=".5"/>
      <path id="Shape" fill="#3D454C" d="M47.65,21 C47.5740635,18.6206049 46.1613327,16.4879621 44,15.49 C41.22,14.22 37.43,14.81 34.21,16.23 C33.9213444,15.9062814 33.5352783,15.6851709 33.11,15.6 C31.3,15.02 29.65,14.19 29.86,12.07 C29.9656509,10.3169063 30.9265653,8.72784555 32.43,7.82 C32.9761791,7.41445007 33.5707585,7.07852948 34.2,6.82 C35.55,6.34 35.53,5.37 35.48,5.09 C35.24,3.21 30.9,2 29.19,1.86 C27.87,1.79 27.29,2.24 27.04,2.67 C26.04,3.54 23.54,6.47 22.9,9.04 C22.8055541,9.47768192 22.7486806,9.92263379 22.73,10.37 C22.56,12.37 22.36,14.87 18.51,15.6 L18.45,15.6 C16.9756068,14.132554 15.0615641,13.1878247 13,12.91 C10.5268602,12.7517238 8.13154925,13.8076008 6.58,15.74 C2.28,20.38 4.89,40.74 10.58,46.88 C12.58,49 14.88,49.27 16.97,47.62 C18.6131099,50.075239 21.4073142,51.5082613 24.36,51.41 C25.3780778,51.4168829 26.3907571,51.2616054 27.36,50.95 C28.5902031,50.6944597 29.8597969,50.6944597 31.09,50.95 C31.6687866,51.210107 32.3312134,51.210107 32.91,50.95 C33.8336497,50.4001855 34.5398814,49.5491764 34.91,48.54 L35.09,48.63 C36.6673175,49.3641822 38.479278,49.4076693 40.09,48.75 C41.7049774,47.8565566 42.8752261,46.331248 43.32,44.54 C44.67,40.29 48.23,26.88 47.65,21 Z M24.72,10.53 C24.7352984,10.1941646 24.7754078,9.8599201 24.84,9.53 C25.4,7.3 27.97,4.46 28.44,4.11 C28.532273,4.03938449 28.613208,3.95507724 28.68,3.86 C30.2328034,3.93727127 31.7462013,4.37554035 33.1,5.14 C32.4662881,5.43268194 31.8633106,5.7877687 31.3,6.2 C29.3319182,7.45352903 28.0714708,9.56292489 27.9,11.89 C27.54,15.5 30.57,16.84 32.08,17.37 C31.78,17.55 31.49,17.74 31.21,17.94 L31.21,17.94 C29.9886923,17.460606 28.6313077,17.460606 27.41,17.94 C24.64,19.1 23.65,18.67 22.16,18.02 C21.5090712,17.7327207 20.8411534,17.4855911 20.16,17.28 C24.29,15.88 24.56,12.45 24.72,10.53 Z M34.35,43.83 C34.26,44.06 34.14,44.44 34.01,44.89 C33.7,45.89 32.88,48.71 32.01,49.11 C32.01,49.11 31.92,49.11 31.82,49.11 C30.144774,48.6652996 28.3851872,48.6446795 26.7,49.05 C23.7,50.05 19.76,49.13 18.32,45.95 C17.1975308,43.3884258 16.3818689,40.703119 15.89,37.95 C15.8063726,37.4649242 15.3821797,37.1128441 14.89,37.12 L14.72,37.12 C14.2030167,37.2574413 13.885753,37.7774012 14,38.3 C14.4655995,40.8848205 15.1961185,43.4148291 16.18,45.85 C16.039375,45.8886868 15.9071407,45.9531087 15.79,46.04 C14.93,46.73 13.73,47.29 12.1,45.52 C7.28,40.32 4.55,20.93 8.1,17.1 C9.2393559,15.6367802 11.0173776,14.8167283 12.87,14.9 C14.5868672,15.1783617 16.1626736,16.0190263 17.35,17.29 C15.8102678,18.1075971 14.5445603,19.3593958 13.71,20.89 C12.15,23.52 12.44,27.67 12.64,29.33 C12.6828719,29.6872656 12.913086,29.9945208 13.243923,30.1360254 C13.5747601,30.2775301 13.9559579,30.2317864 14.2439231,30.0160254 C14.5318882,29.8002645 14.6828719,29.4472656 14.64,29.09 C14.36,26.75 14.43,23.63 15.45,21.91 C16.47,20.19 17.74,18.77 19,19 L19,19 C19.7962367,19.1838356 20.5706108,19.4520171 21.31,19.8 C22.99,20.53 24.57,21.22 28.13,19.73 C30.43,18.73 33.89,21.59 34.68,23.44 C36.5,27.66 35.19,41.66 34.35,43.83 Z M41.35,43.89 C41.0674376,45.1475242 40.2787668,46.232851 39.17,46.89 C38.0462048,47.3143412 36.7966333,47.2527681 35.72,46.72 C35.6495073,46.690753 35.5755807,46.6705912 35.5,46.66 C35.63,46.26 35.75,45.85 35.88,45.44 C36.01,45.03 36.08,44.73 36.16,44.53 C37.16,42.02 38.6,27.58 36.5,22.65 C35.7538708,21.167378 34.6292508,19.9082176 33.24,19 C36.24,17.18 40.57,16.1 43.24,17.31 C44.7332521,18.0434557 45.6851352,19.5564081 45.7,21.22 C46.21,26.7 42.68,39.94 41.4,43.89 L41.35,43.89 Z"/>
      <path id="Path" fill="#3D454C" d="M14.25,32.61 C13.6977153,32.61 13.25,33.0577153 13.25,33.61 C13.25,34.1622847 13.6977153,34.61 14.25,34.61 C14.8022847,34.61 15.25,34.1622847 15.25,33.61 C15.25,33.0577153 14.8022847,32.61 14.25,32.61 Z"/>
    </g>
  </g>
</svg>
