<svg xmlns="http://www.w3.org/2000/svg" width="64" height="64" viewBox="0 0 64 64" style="background:#fff">
  <g id="Peperoncini" fill="none" fill-rule="evenodd" stroke="none" stroke-width="1">
    <rect width="64" height="64" fill="#FFF"/>
    <g transform="translate(2 4)">
      <rect id="Rectangle" width="60" height="60" x="0" y="0"/>
      <path id="Path" fill="#E05362" fill-rule="nonzero" d="M50.19,40.94 C45,39 39.48,38 34.25,36 C31.9031777,35.0938871 29.6124492,34.0487005 27.39,32.87 C26.3433107,32.3553112 25.3400302,31.7566872 24.39,31.08 C22.54,29.69 23.39,29.03 23.11,31.7 C23.68,26.75 19.56,18.05 14.51,24.45 C7.67,33.1 14.45,44.65 22.51,49.28 C30.72,54.03 41.74,56.14 50.51,51.88 C54,50.19 54.12,42.36 50.19,40.94 Z" opacity=".5"/>
      <path id="Path" fill="#31E085" fill-rule="nonzero" d="M22.63,13.72 C19.08,11.84 14.13,13.41 11.19,15.81 C9.29,17.37 9.95,23.49 13.19,22.36 C14.6961715,21.7438391 16.2561649,21.2684764 17.85,20.94 C19.53,20.69 21.13,20.69 22.8,20.29 C24,20 24.37,17.94 24.35,17 C24.4194963,15.6744232 23.7599151,14.4166172 22.63,13.72 Z" opacity=".5"/>
      <path id="Shape" fill="#3D454C" fill-rule="nonzero" d="M55.82,46.26 C55.6694307,44.9212268 54.6989213,43.8189198 53.39,43.5 C48.61,42.77 35.61,37.86 31.82,30.07 C31.35,29.07 30.82,28.15 30.3,27.21 C30.166372,26.9802558 29.9467828,26.8131582 29.6897298,26.7456114 C29.4326768,26.6780647 29.1593087,26.7156261 28.93,26.85 C28.4574926,27.1280112 28.2969179,27.7346268 28.57,28.21 C29.09,29.11 29.57,30.03 30.02,30.94 C34.02,39.24 47.25,44.58 53.09,45.48 C53.4942143,45.6614308 53.7746556,46.0404055 53.83,46.48 C53.88,47.1 53.19,47.72 51.93,48.19 C36.84,53.71 27.66,50 22.6,45.86 C15.43,40 13.14,31 13.82,26.49 C13.8379568,26.3381501 13.8208518,26.1842045 13.77,26.04 C14.89,23.34 15.92,22.71 16.44,22.58 C16.8208247,22.4962791 17.2190012,22.5921364 17.52,22.84 C17.7654193,23.0726831 18.111816,23.1655589 18.440722,23.0868636 C18.7696279,23.0081683 19.0364745,22.7685656 19.15,22.45 C19.3405801,21.735754 19.8496768,21.149186 20.53,20.86 C21.8,20.37 23.62,21.1 24.21,21.42 C24.5485541,21.6034831 24.9623847,21.5762695 25.2739955,21.3500316 C25.5856063,21.1237936 25.7396284,20.7387305 25.67,20.36 C25.184642,17.9295866 23.6002401,15.8613698 21.38,14.76 C19.7282738,13.9893285 17.8355717,13.9172256 16.13,14.56 C15.49,12.66 13.86,8.62 11.27,8.2 C9.94,8 8.68,8.71 7.55,10.36 C7.32351185,10.6521707 7.27668691,11.0454584 7.42824428,11.3826393 C7.57980166,11.7198201 7.90501459,11.9458828 8.2738734,11.9704546 C8.6427322,11.9950264 8.99505713,11.8140985 9.19,11.5 C9.65,10.83 10.32,10.07 10.95,10.17 C12.19,10.38 13.62,13.29 14.31,15.45 C12.5625217,16.4318539 11.2779118,18.0691017 10.74,20 C10.3082234,22.1689592 10.6966256,24.4209798 11.83,26.32 C11.14,31.32 13.61,41.12 21.34,47.41 C25.9980173,51.1520263 31.8265079,53.1314468 37.8,53 C42.8703613,52.9088277 47.8844885,51.9202219 52.61,50.08 C55.62,49 55.91,47.2 55.82,46.26 Z M12.68,20.49 C13.1597027,18.8979493 14.2942237,17.5852503 15.8,16.88 C16.6301419,16.3976311 17.5700209,16.1359799 18.53,16.1199995 C19.2218046,16.1196845 19.9050006,16.2734036 20.53,16.57 C21.5603991,17.0788264 22.4191121,17.8784377 23,18.87 C21.9541007,18.6013135 20.852593,18.6430109 19.83,18.99 C18.9695071,19.3206099 18.2443555,19.9295964 17.77,20.72 C17.2141293,20.5250525 16.6146307,20.4903994 16.04,20.6199995 C14.6033192,21.0764663 13.4264956,22.1188995 12.8,23.49 C12.5015197,22.517156 12.4601765,21.4835762 12.68,20.49 L12.68,20.49 Z"/>
      <path id="Path" fill="#3D454C" fill-rule="nonzero" d="M22.71 39C22.4879797 39.1467316 22.3336048 39.3759089 22.2810523 39.6367947 22.2284998 39.8976805 22.2821048 40.1687531 22.43 40.39 27.43 47.9 35.75 49.08 40.43 49.08 41.6245927 49.0865318 42.8179769 49.0029615 44 48.83 44.5435969 48.7382279 44.9103856 48.2238292 44.82 47.68 44.7282279 47.1364031 44.2138292 46.7696144 43.67 46.86 43.54 46.86 30.49 48.93 24.05 39.27 23.7441621 38.8411175 23.1580633 38.723023 22.71 39zM27.05 25.05C27.6022847 25.05 28.05 24.6022847 28.05 24.05 28.05 23.4977153 27.6022847 23.05 27.05 23.05 26.4977153 23.05 26.05 23.4977153 26.05 24.05 26.05 24.6022847 26.4977153 25.05 27.05 25.05zM21.32 34.65C20.7677153 34.65 20.32 35.0977153 20.32 35.65 20.32 36.2022847 20.7677153 36.65 21.32 36.65 21.8722847 36.65 22.32 36.2022847 22.32 35.65 22.32 35.0977153 21.8722847 34.65 21.32 34.65z"/>
    </g>
  </g>
</svg>
