<svg xmlns="http://www.w3.org/2000/svg" width="64" height="64" viewBox="0 0 64 64" style="background:#fff">
  <g id="Peperoni-Wurst" fill="none" fill-rule="evenodd" stroke="none" stroke-width="1">
    <rect width="64" height="64" fill="#FFF"/>
    <g id="Peperoni" transform="translate(2 4)">
      <rect id="Rectangle" width="60" height="60" x="0" y="0"/>
      <path id="Path" fill="#E05362" fill-rule="nonzero" d="M52.82,30.41 C43.53,19.12 24.7,8.73 9.7,13.14 C5.76,14.29 6,23.8 10,24.74 C16.67,26.32 23.17,26.63 29.57,29.45 C35.97,32.27 41.07,36.86 45.5,42.2 C51.86,49.88 57.25,35.79 52.82,30.41 Z" opacity=".5"/>
      <path id="Path" fill="#E05362" fill-rule="nonzero" d="M41.39,39.69 C38.03,37.25 34.39,38.96 30.39,38.97 C26.66,38.97 23.25,37.64 19.59,37.47 C17.45,37.37 16.28,40.17 16,41.85 C15.5983523,44.2155047 16.3063073,46.634351 17.92,48.41 C22.98,54.05 37.92,57.52 42.5,50.05 C44.21,47.31 44.3,41.81 41.39,39.69 Z" opacity=".5"/>
      <path id="Shape" fill="#3D454C" fill-rule="nonzero" d="M54.72,34.49 C53.8019607,28.9510206 49.985361,24.3291184 44.72,22.38 L44.66,22.38 L18.34,12.93 C15.3456874,11.8600372 12.0073396,12.4826352 9.6,14.56 L8.11,13.71 C7.85399258,13.5640341 7.54663615,13.5384211 7.27,13.64 C5.45031705,14.4009576 4.15566913,16.0514444 3.85,18 C3.75875555,18.5372834 4.11452191,19.0486975 4.65,19.15 L6.71,19.53 C5.95302711,23.3086079 7.73397243,27.141688 11.11,29 L26.43,37.44 C20.93,37.88 16.12,39.54 16.12,42.32 L16.12,45.91 C16.12,49.2 22.83,50.91 29.47,50.91 C36.11,50.91 42.6,49.22 42.8,46 C43.5421279,46.2001492 44.3027263,46.3241233 45.07,46.37 L45.64,46.37 C48.1891115,46.4168373 50.6359088,45.3682099 52.36,43.49 C54.4557364,40.9953028 55.3219145,37.6920812 54.72,34.49 Z M6.1,17.37 C6.41623337,16.6811167 6.9317667,16.1028834 7.58,15.71 L8.22,16.07 L8.1,16.22 C7.80424418,16.6553287 7.54980528,17.1173362 7.34,17.6 L6.1,17.37 Z M8.72,22.81 C8.13387145,20.3610845 8.94275316,17.7883117 10.8247907,16.1153895 C12.7068282,14.4424673 15.3566921,13.9407995 17.72,14.81 L38.36,22.18 C36.8634911,22.6304204 35.5184266,23.4810268 34.47,24.64 C32.372006,27.1336691 31.5022717,30.4364574 32.1,33.64 C32.3032666,34.9486834 32.6834105,36.2236794 33.23,37.43 C32.3,37.34 31.36,37.29 30.4,37.27 L30.4,37.27 L12.17,27.27 C10.4356238,26.3445025 9.17999588,24.721285 8.72,22.81 Z M29.47,48.89 C22.12,48.89 18.12,46.89 18.12,45.89 L18.12,45.06 C20.5479343,46.2765691 23.1987854,46.9843702 25.91,47.14 L26,47.14 C26.5522847,47.1676142 27.0223857,46.7422847 27.0499999,46.19 C27.0776142,45.6377153 26.6522847,45.1676143 26.1,45.14 C20.53,44.61 18.1,43 18.1,42.29 C18.1,41.29 22.1,39.29 29.45,39.29 C36.8,39.29 40.8000746,41.29 40.8000746,42.29 C40.8000746,42.97 38.63,44.49 33.4,45.08 C33.1360525,45.1077136 32.8939476,45.2392149 32.7270134,45.4455381 C32.5600791,45.6518613 32.4820092,45.9160818 32.51,46.18 C32.5376201,46.4458829 32.6705424,46.6896394 32.8790959,46.856858 C33.0876493,47.0240765 33.3544708,47.1008352 33.62,47.07 C36.1245671,46.8992902 38.5678559,46.2187084 40.8000746,45.07 L40.8000746,45.89 C40.82,46.9 36.82,48.89 29.47,48.89 Z M50.88,42.18 C49.4209708,43.7549434 47.3199057,44.5732529 45.18,44.4 C44.3769841,44.3475616 43.5839268,44.1929826 42.82,43.94 L42.82,42.29 C42.82,40.04 39.68,38.53 35.57,37.79 L35.57,37.79 C34.7829989,36.4240471 34.2510078,34.9263397 34,33.37 C33.5008815,30.7528629 34.1977806,28.049628 35.9,26 C37.3567881,24.4279348 39.4534881,23.6098902 41.59,23.78 C46.85,24.06 51.85,29.01 52.75,34.78 C53.2682265,37.4022918 52.5817803,40.11871 50.88,42.18 L50.88,42.18 Z"/>
      <path id="Path" fill="#3D454C" fill-rule="nonzero" d="M27.38 20.72L16 16.23C15.4863752 16.0256546 14.9043454 16.2763752 14.7 16.79 14.4956546 17.3036248 14.7463752 17.8856546 15.26 18.09L26.62 22.58C26.7377876 22.6265537 26.8633466 22.6503081 26.99 22.650003 27.470605 22.6511766 27.8840741 22.310295 27.9745632 21.8382841 28.0650524 21.3662733 27.8069654 20.8966478 27.36 20.72L27.38 20.72zM30.72 22.08C30.1677153 22.08 29.72 22.5277153 29.72 23.08 29.72 23.6322847 30.1677153 24.08 30.72 24.08 31.2722847 24.08 31.72 23.6322847 31.72 23.08 31.72 22.5277153 31.2722847 22.08 30.72 22.08zM29.62 45.18C29.0677153 45.18 28.62 45.6277153 28.62 46.18 28.62 46.7322847 29.0677153 47.18 29.62 47.18 30.1722847 47.18 30.62 46.7322847 30.62 46.18 30.62 45.6277153 30.1722847 45.18 29.62 45.18z"/>
    </g>
  </g>
</svg>
