<svg xmlns="http://www.w3.org/2000/svg" width="64" height="64" viewBox="0 0 64 64" style="background:#fff">
  <g id="Petersilienwurzel" fill="none" fill-rule="evenodd" stroke="none" stroke-width="1">
    <rect width="64" height="64" fill="#FFF"/>
    <g transform="translate(2 4)">
      <rect id="Rectangle" width="60" height="60" x="0" y="0"/>
      <path id="Path" fill="#31E085" fill-rule="nonzero" d="M55.61,11.1 C52.69,9.84 48,10.36 44.09,12 C46.1630792,10.7621638 48.1388009,9.36812662 50,7.83 C50.9,7 51,3.32 49.1,3.57 C46.1,3.96 43.1,6.47 41.1,8.57 C38.9004775,10.7826111 37.3359265,13.5456152 36.57,16.57 C36.57,16.76 36.68,17.34 36.98,17.17 C37.28,17 37.73,16.7 38.09,16.46 C37.71,17.34 37.91,18.85 39.01,18.98 C41.58,19.3 44.34,17.41 46.82,16.74 C49.75,15.95 52.94,15.99 55.71,14.74 C57,14.2 56.86,11.64 55.61,11.1 Z" opacity=".5"/>
      <path id="Path" fill="#D4BA39" fill-rule="nonzero" d="M38.58,20.82 C37.9,18.66 35.65,17.43 33.88,18.98 C31.95,20.66 32.03,24.28 32.83,26.48 C33.54,28.48 25.18,35.04 24,36.16 C20.72,39.29 16.8,42.16 14.45,46.16 C14.16,46.65 14.1,48.03 14.84,48.16 C21.15,49.67 28.43,43.53 32.84,39.44 C38.27,34.48 41,28.33 38.58,20.82 Z" opacity=".5"/>
      <path id="Shape" fill="#3D454C" fill-rule="nonzero" d="M51.15,12 C46.0587681,12.1541797 41.1514357,13.9383456 37.15,17.09 C39.4890859,13.285727 42.8408141,10.2075387 46.83,8.2 C47.98,7.62 46.97,5.89 45.83,6.47 C41.2494747,8.78231742 37.4514497,12.392528 34.91,16.85 C33.6239244,16.308202 32.2454037,16.0195955 30.85,16 C27.1,15.88 22.85,19.62 21.64,22.87 C21.4,23.52 21.12,24.25 20.82,25.03 L20.82,25.03 C18.3621024,31.5438433 15.3021915,37.8143172 11.68,43.76 C10.0843089,44.8456228 8.62689497,46.1216995 7.34,47.56 C6.57,48.27 5.84,49.9 8.59,53.17 C9.96,54.81 11.43,55.69 12.67,55.69 C13.0164003,55.69 13.3582398,55.6109929 13.67,55.46 C16.659611,54.5348314 19.3599664,52.853998 21.51,50.58 L21.67,50.41 C22.23,49.82 22.79,49.18 23.41,48.48 C26.2560865,45.1880516 29.3700753,42.1376136 32.72,39.36 C40.81,32.58 43.34,26.36 40.03,21.36 C39.4619331,20.4736438 38.7905601,19.6579256 38.03,18.93 C41.7333961,15.8733656 46.3501091,14.1385793 51.15,14 C52.44,13.93 52.44,11.93 51.15,12 Z M10.15,51.9 C8.71,50.18 8.51,49.16 8.71,49 C8.75212432,48.9855237 8.79787568,48.9855237 8.84,49 C9.03905807,49.0248631 9.23022731,49.0931378 9.4,49.2 C10.1280185,49.6632294 10.7707582,50.2484609 11.3,50.93 C13.3,53.28 12.89,53.64 12.89,53.65 C12.58,53.86 11.4,53.4 10.12,51.87 L10.15,51.9 Z M38.37,22.41 C41.37,26.97 37.5,32.3 33.06,36.41 C32.575485,35.1532727 31.7386923,34.0630116 30.65,33.27 C30.3409653,33.0806492 29.954388,33.07055 29.635888,33.2435065 C29.317388,33.4164631 29.1153532,33.7461992 29.105888,34.1085065 C29.0964228,34.4708139 29.2809652,34.8106492 29.59,35 C30.4548778,35.6426859 31.0642262,36.5708794 31.31,37.62 C31.3463173,37.8050414 31.2815805,37.9954438 31.14,38.12 L31.14,38.12 L30.26,38.88 C29.58392,36.6287332 27.8637954,34.8415907 25.64,34.08 C25.297025,33.965675 24.9191114,34.0430093 24.6486156,34.2828719 C24.3781198,34.5227344 24.2561365,34.8886843 24.3286156,35.2428719 C24.4010948,35.5970594 24.657025,35.885675 25,36 C26.5536717,36.5432841 27.7707983,37.7714754 28.3,39.33 C28.4611038,40.050439 28.1971284,40.7996635 27.62,41.26 L27.62,41.26 C25.03,43.69 23.31,45.63 21.95,47.16 L21.59,47.57 C21.2654732,47.0282635 20.8722077,46.5307995 20.42,46.09 C20.0195936,45.6978778 19.3771222,45.7045936 18.985,46.105 C18.5928779,46.5054065 18.5995936,47.1478778 19,47.54 C19.4994494,47.9688695 19.8670076,48.5306093 20.06,49.16 C18.5873647,50.7386949 16.7984708,51.9892169 14.81,52.83 C14.3673249,51.6268216 13.6871704,50.5249714 12.81,49.59 C12.1243639,48.7217725 11.2917475,47.9805408 10.35,47.4 L10.29,47.4 C11.1039173,46.6409565 11.9803516,45.9518516 12.91,45.34 C13.0339292,45.2637451 13.1397239,45.1613631 13.22,45.04 C16.9691422,38.9382535 20.1268184,32.492308 22.65,25.79 C22.8212629,25.4785224 23.1360258,25.2724277 23.49,25.24 C25.0552967,25.0491181 26.6274996,25.5367922 27.81,26.58 C27.9977666,26.7693127 28.2533625,26.8757983 28.52,26.8757983 C28.7866375,26.8757983 29.0422334,26.7693127 29.23,26.58 C29.6177236,26.1899625 29.6177236,25.5600375 29.23,25.17 C27.7097754,23.8073436 25.7079504,23.1088651 23.67,23.23 C24.81,20.79 28.2,17.99 30.8,18.019761 C33.9127844,18.0755306 36.7758043,19.7358553 38.37,22.41 Z"/>
      <path id="Path" fill="#3D454C" fill-rule="nonzero" d="M30.29,28.45 L30.29,28.58 C30.29,29.1322847 30.7377153,29.58 31.29,29.58 C31.8422847,29.58 32.29,29.1322847 32.29,28.58 L32.29,28.45 C32.29,27.8977153 31.8422847,27.45 31.29,27.45 C30.7377153,27.45 30.29,27.8977153 30.29,28.45 Z"/>
    </g>
  </g>
</svg>
