<svg xmlns="http://www.w3.org/2000/svg" width="64" height="64" viewBox="0 0 64 64" style="background:#fff">
  <g id="Petersilie" fill="none" fill-rule="evenodd" stroke="none" stroke-width="1">
    <rect width="64" height="64" fill="#FFF"/>
    <g transform="translate(2 3)">
      <rect id="Rectangle" width="60" height="60" x="0" y="0"/>
      <path id="Path" fill="#31E085" fill-rule="nonzero" d="M22.85 22.86C22.8556768 19.9253037 22.0003657 17.0534052 20.39 14.6 16.74 9.6 10.71 10.93 7.88 15.9 4.94 21.06 5.56 28.92 9 33.73 11.34 36.99 16 40.09 19.61 36.73 19.9762588 36.3766515 20.2804997 35.964236 20.51 35.51 21.7967823 33.6685971 22.411139 31.4406713 22.25 29.2 22.2535896 28.9324526 22.2368749 28.6650184 22.2 28.4 22.27 28 22.34 27.59 22.43 27.2 22.7166434 25.7712941 22.8573662 24.3171584 22.85 22.86zM48.08 10C43.98 6.21 36.08 6.17 31.24 8.57 23.42 12.42 23.54 23.57 28.01 29.81 29.51 31.92 31.17 32.02 32.53 31.12 35.05 33.12 38.53 34.12 41.53 35.12 43.34 35.73 45.37 36.54 47.27 35.82 49.1513022 35.0253521 50.66731 33.5557163 51.52 31.7 54.56 25.54 53.15 14.66 48.08 10zM32 37.84C30.7056581 38.6548607 29.6986356 39.8541964 29.12 41.27 28.6472598 41.1035185 28.1576535 40.9895006 27.66 40.93 24 40.67 24.16 46.81 24.89 48.86 27.29 55.77 39.91 64.51 45.56 56 51.57 47 43.2 31.36 32 37.84z" opacity=".5"/>
      <path id="Path" fill="#3D454C" fill-rule="nonzero" d="M49.16,23.77 C48.3480966,23.6533788 47.5222347,23.8500126 46.85,24.32 C46.4691689,24.5850012 46.0230286,24.7406315 45.56,24.77 C45.1568916,24.7756707 44.7564014,24.7043971 44.38,24.56 C44.5105655,24.2227049 44.7407841,23.9331875 45.04,23.73 C45.3531527,23.4353892 45.7529096,23.2495373 46.18,23.2 C47.9303684,23.7160217 49.8221258,23.2014946 51.07,21.87 C51.8676684,21.0715826 52.1497448,19.8930442 51.8,18.82 C51.3995779,17.8855827 50.5049334,17.2581697 49.49,17.2 C49.0135224,17.1579701 48.5395503,17.0912135 48.07,17 C48.54,16.68 49.23,16.29 49.75,16 C50.27,15.71 50.75,15.41 51.3,15.1 C52.2443397,14.5431584 52.7180386,13.4378609 52.47,12.37 C51.9332406,10.3468754 50.3531246,8.76675936 48.33,8.23 C47.2739624,7.97905444 46.1755247,8.42969556 45.6,9.35 C45.31,9.83 45.02,10.35 44.73,10.86 C44.44,11.37 44.03,12.12 43.73,12.6 C43.6203756,12.1249371 43.5369166,11.6442136 43.48,11.16 C43.4044755,10.2454765 42.8696339,9.43191456 42.06,9 C41.2066933,8.61297901 40.2166215,8.67673364 39.42,9.17 C38.9395123,9.44614239 38.7738577,10.0595123 39.05,10.54 C39.3261424,11.0204877 39.9395123,11.1861423 40.42,10.91 C40.6384174,10.7572208 40.9148174,10.7129968 41.17,10.79 C41.3684118,10.9513418 41.4825198,11.1942813 41.48,11.45 C41.72,13.45 42.12,14.84 43.26,15.06 C44.57,15.31 45.42,13.8 46.49,11.88 C46.76,11.4 47.04,10.88 47.31,10.45 C47.4382522,10.2095389 47.7255786,10.1023276 47.98,10.2 C49.1882905,10.5814433 50.1333261,11.5302142 50.51,12.74 C50.6065597,12.9915643 50.4989935,13.2755392 50.26,13.4 C49.78,13.7 49.26,13.98 48.78,14.26 C46.78,15.38 45.38,16.18 45.64,17.47 C45.86,18.59 47.25,18.99 49.26,19.23 C49.48,19.23 49.85,19.34 49.94,19.58 C49.9922304,19.9523021 49.8575486,20.3264183 49.58,20.58 C48.8250208,21.352684 47.6960069,21.6281479 46.67,21.29 C45.47,21 43.95,21.88 43.12,22.86 C42.451364,23.5020879 42.2205599,24.4761591 42.53,25.35 C42.91,26.22 43.9,26.71 45.46,26.8 C46.2990965,26.8088435 47.1214299,26.5649311 47.82,26.1 C48.18,25.91 48.54,25.7 48.74,25.75 C49.7919631,26.2789632 50.3819875,27.4266819 50.2,28.59 C50,29.91 48.58,30.07 47.43,30 C46.28,29.93 44.28,29.7 44,31.26 C43.9683932,32.0272471 44.2499289,32.7743997 44.78,33.33 L45.09,33.8 C43.09,34.73 41.93,33.8 40.31,32.6 C39.3020257,31.7086494 38.1254803,31.0285653 36.85,30.6 L36.34,30.46 C34.8825816,29.9685324 33.325615,29.848237 31.81,30.11 C34.67,27.11 37.39,24.28 39.92,21.97 C40.3286907,21.5972078 40.3577922,20.9636907 39.985,20.555 C39.6122078,20.1463093 38.9786907,20.1172078 38.57,20.49 C36.06,22.79 33.38,25.57 30.57,28.49 C30.7632154,27.0639807 30.6228674,25.6125774 30.16,24.25 C30.11,24.08 30.06,23.91 30.02,23.75 C29.6120831,22.4751539 28.9523824,21.2951737 28.08,20.28 C26.85,18.66 25.94,17.47 26.87,15.5 C27.03,15.6 27.21,15.72 27.34,15.82 C27.8986571,16.3451877 28.6436789,16.6259206 29.41,16.6 C30.97,16.31 30.78,14.18 30.69,13.15 C30.6,12.12 30.76,10.61 32.11,10.4 C33.2777499,10.2066373 34.4346776,10.799309 34.96,11.86 C34.9172087,12.1884647 34.7935056,12.5011585 34.6,12.77 C34.1463725,13.4738105 33.9034893,14.2926739 33.9,15.13 C33.99,16.69 34.47,17.67 35.34,18.05 C36.1950217,18.3668693 37.1563081,18.1558552 37.8,17.51 C38.1207239,17.2959066 38.2897712,16.9164805 38.2344621,16.5348515 C38.179153,16.1532225 37.9093438,15.8373994 37.541036,15.7231667 C37.1727282,15.608934 36.7715565,15.7166486 36.51,16 C36.3,16.17 36.15,16.23 36.15,16.26 C35.956461,15.8869533 35.8634074,15.4699355 35.88,15.05 C35.9152903,14.5866172 36.0741347,14.1411623 36.34,13.76 C36.8027261,13.0845265 36.9986795,12.2615225 36.89,11.45 C36.46,9.53 34.02,8.1 31.79,8.45 C30.1,8.71 28.4,10.14 28.68,13.35 C28.6998826,13.6830368 28.6998826,14.0169632 28.68,14.35 L28.43,14.18 C27.8430453,13.6212712 27.0484735,13.3346449 26.24,13.39 C25.8143587,13.4908769 25.4511586,13.766909 25.24,14.15 C23.37,17.49 25.05,19.71 26.4,21.49 C27.1063747,22.2981785 27.6496943,23.2354047 28,24.25 L28.16,24.81 C28.63,26.44 29.28,28.68 26.61,32.52 C22,37.4 17,42.34 11.91,46 C11.5611702,46.2524287 11.4130897,46.6998066 11.5424262,47.1105067 C11.6717627,47.5212067 12.049473,47.8030041 12.48,47.8100289 C12.6873181,47.8115747 12.8900003,47.7486733 13.06,47.63 C18.36,43.89 23.51,38.81 28.23,33.92 C31.97,31.39 34.17,32.02 35.77,32.48 L36.33,32.64 C37.3455526,32.9882095 38.2831649,33.5317529 39.09,34.24 C40.3146872,35.3873767 41.8883905,36.0914945 43.56,36.24 C44.5737165,36.2161407 45.5633919,35.9264796 46.43,35.4 C46.8183153,35.1949459 47.0964035,34.8290404 47.19,34.4 C47.244328,33.5935057 46.9619135,32.8005727 46.41,32.21 C46.345291,32.1301602 46.2851932,32.0466911 46.23,31.96 C46.5630333,31.939998 46.8969667,31.939998 47.23,31.96 C50.43,32.24 51.87,30.54 52.13,28.86 C52.51,26.63 51.08,24.2 49.16,23.77 Z"/>
      <path id="Shape" fill="#3D454C" fill-rule="nonzero" d="M13 34.23C16 34.1 17.84 34.23 18.78 36.38 18.9395531 36.7455887 19.3011135 36.981389 19.7 36.980075 19.8300129 36.9815929 19.9590887 36.9578158 20.08 36.91 20.5900784 36.702097 20.8359887 36.1208544 20.63 35.61 19.75 33.4 21.02 32.05 23.22 30.09 24.56 28.88 25.84 27.75 26.01 26.22 26.247234 25.1371785 25.9197427 24.0078983 25.14 23.22 23.94 22.16 22.14 22.59 21.19 22.81 21.3056612 22.5398276 21.4358514 22.276109 21.58 22.02 22.13 21.02 23.15 19.14 21.33 17.51 20.7552058 16.8764155 19.9238815 16.5380003 19.07 16.59 18.12 16.75 17.68 17.59 17.32 18.25 17.1929154 18.4982553 17.0457592 18.735712 16.88 18.96 16.88 18.66 16.81 18.27 16.79 17.96 16.69 16.46 16.56 14.6 15.11 13.96 13.91 13.41 12.38 13.96 10.11 15.57 9.13325181 16.1737171 8.46305767 17.1680812 8.27 18.3 8.30289379 19.5791651 8.88606111 20.7819477 9.87 21.6L10.1 21.85 9.86 21.91C9.51696427 21.8989065 9.17852037 21.8278333 8.86 21.7 8.08786757 21.3305359 7.18628105 21.3490871 6.43 21.75 5.77273233 22.3009542 5.40421637 23.1227448 5.43 23.98 5.29 26.41 7.34 27.03 8.43 27.36 8.71678748 27.4398669 8.99750216 27.5401221 9.27 27.66 8.45 28.14 6.87 29.1 6.76 30.66 6.75798235 31.7725707 7.32349784 32.8093492 8.26 33.41 9.47 34.39 11.18 34.32 13 34.23zM9.52 31.87C9.02 31.47 8.75 31.09 8.77 30.82 8.77 30.25 9.97 29.57 10.35 29.35 10.73 29.13 10.98 28.98 11.12 28.62 11.3846056 28.0491734 11.3846056 27.3908266 11.12 26.82 10.6387533 26.084198 9.86854956 25.586472 9 25.45 7.7 25.05 7.36 24.84 7.4 24.09 7.40689575 23.8667995 7.4404676 23.6452253 7.5 23.43 7.73368919 23.4748446 7.96418426 23.5349738 8.19 23.61 8.82555338 23.858215 9.51210795 23.9474671 10.19 23.87 11.02 23.71 12 23.42 12.29 22.56 12.58 21.7 11.93 20.93 11.29 20.24 10.79 19.7 10.17 19.03 10.22 18.48 10.27 17.93 10.81 17.48 11.22 17.17 13.49 15.49 14.13 15.75 14.16 15.77 14.53 15.94 14.64 17.41 14.68 18.12 14.77 19.41 14.86 20.62 15.81 21.12 16.453246 21.3801237 17.187475 21.2647998 17.72 20.82 18.2583998 20.4022612 18.6873479 19.8600708 18.97 19.24 19.0751581 19.028265 19.1954711 18.8244014 19.33 18.63 19.5703018 18.7197394 19.7960619 18.8444129 20 19 20.57 19.51 20.48 19.87 19.83 21.07 19.3017499 21.7728973 19.1013873 22.6690642 19.28 23.53 19.5079228 24.1200986 19.9830687 24.5806245 20.58 24.79 20.9188881 24.9147261 21.2911119 24.9147261 21.63 24.79 22.07 24.68 23.39 24.36 23.83 24.74 24.0559984 25.1192862 24.1174002 25.5743822 24 26 23.91 26.77 22.92 27.65 21.87 28.59 20.58 29.74 18.98 31.17 18.48 33.08 17.2269034 32.4258911 15.8217416 32.1186198 14.41 32.19 13.89 32.19 13.41 32.19 12.89 32.24 11.47 32.3 10.13 32.36 9.52 31.87zM42.61 44.13C42.31 44.13 41.93 44.08 41.61 44.04 41.8363825 43.8721319 42.0773451 43.7248769 42.33 43.6 43.1337515 43.3105624 43.7531111 42.6578242 44 41.84 44.0489142 40.9895403 43.7107655 40.1625462 43.08 39.59 41.44 37.77 39.57 38.79 38.56 39.34 38.308038 39.4890625 38.0437323 39.6161968 37.77 39.72 38 38.81 38.42 36.98 37.36 35.78 36.5750314 34.9952855 35.4430063 34.6669982 34.36 34.91 32.83 35.08 31.69 36.35 30.49 37.7 28.49 39.9 27.18 41.17 24.96 40.29 24.4672161 40.1399174 23.9410474 40.3887406 23.7443906 40.864857 23.5477338 41.3409734 23.7449414 41.8885825 24.2 42.13 26.39 43.08 26.47 44.95 26.34 47.91 26.26 49.72 26.19 51.43 27.15 52.63 27.7476931 53.5684078 28.787477 54.1317816 29.9 54.12 31.47 54.01 32.44 52.43 32.9 51.62 33.0148428 51.8899771 33.1117205 52.1672478 33.19 52.45 33.52 53.52 34.11 55.45 36.35 55.45L36.58 55.45C37.4283974 55.4966281 38.2509856 55.1498869 38.81 54.51 39.1936899 53.7419181 39.1936899 52.8380819 38.81 52.07 38.6819681 51.7515399 38.6108874 51.4130605 38.6 51.07 38.6 50.98 38.6 50.9 38.65 50.82L39 51C39.79 51.72 40.88 52.72 42.3 52.58 43.4172592 52.3969194 44.4012875 51.7409005 45 50.78 46.67 48.53 47.17 47 46.62 45.78 46 44.36 44.11 44.23 42.61 44.13zM43.43 49.59C43.1 50.03 42.6 50.59 42.12 50.59 41.64 50.59 40.89 50.02 40.35 49.53 39.66 48.89 38.95 48.23 38.04 48.53 37.13 48.83 36.88 49.8 36.73 50.63 36.6468813 51.3070825 36.7327723 51.9942108 36.98 52.63 37.0572766 52.8551431 37.1174475 53.0857984 37.16 53.32 36.9506864 53.3914927 36.7311821 53.4286396 36.51 53.43 35.77 53.43 35.51 53.13 35.15 51.83 35.0140597 50.953332 34.5124868 50.1755305 33.77 49.69 33.5219028 49.5773422 33.2524767 49.5193645 32.98 49.52 32.6365282 49.5273815 32.2974264 49.5985928 31.98 49.73 31.6599089 49.8979636 31.4061273 50.169369 31.26 50.5 31.04 50.89 30.35 52.05 29.78 52.09 29.3657029 51.971632 29.0096365 51.7045822 28.78 51.34 28.29 50.72 28.35 49.34 28.41 47.96 28.49 46.23 28.58 44.08 27.57 42.37 29.48 41.88 30.9 40.27 32.05 38.99 32.99 37.94 33.88 36.94 34.65 36.85 35.27 36.79 35.74 36.85 35.91 37.06 36.3 37.5 35.98 38.82 35.91 39.25 35.7854284 39.5923536 35.7854284 39.9676464 35.91 40.31 36.1228469 40.9047783 36.5821618 41.3786747 37.17 41.61 38.032361 41.7844633 38.9281295 41.5805485 39.63 41.05 40.82 40.4 41.19 40.32 41.7 40.89 41.8609119 41.0515973 41.9958424 41.2371268 42.1 41.44 41.9105437 41.5767567 41.7098235 41.6971888 41.5 41.8 40.874808 42.0788069 40.3285065 42.5082892 39.91 43.05 39.4085273 43.5667605 39.2524687 44.3275464 39.51 45 39.98 46 41.19 46 42.51 46.12 43.22 46.17 44.7 46.27 44.87 46.65 44.84 46.67 45.11 47.32 43.43 49.59z"/>
      <path id="Path" fill="#3D454C" fill-rule="nonzero" d="M43,18.68 L43,18.58 C43,18.0277153 42.5522847,17.58 42,17.58 C41.4477153,17.58 41,18.0277153 41,18.58 L41,18.68 C41,19.2322847 41.4477153,19.68 42,19.68 C42.5522847,19.68 43,19.2322847 43,18.68 Z"/>
    </g>
  </g>
</svg>
