<svg xmlns="http://www.w3.org/2000/svg" width="64" height="64" viewBox="0 0 64 64" style="background:#fff">
  <g id="Pfeffer" fill="none" fill-rule="evenodd" stroke="none" stroke-width="1">
    <rect width="64" height="64" fill="#FFF"/>
    <g id="34-Pfeffer" transform="translate(2 8)">
      <rect id="Rectangle" width="60" height="60" x=".35" y=".34"/>
      <path id="Path" fill="#333" fill-rule="nonzero" d="M30.94,36.05 C33.8652188,34.8443216 36.5178807,33.0622769 38.74,30.81 C41.45,28.16 43.92,25.42 41.3,21.35 C39.9924091,19.4592156 38.2855415,17.8786563 36.3,16.72 L36.19,16.59 C33.68,13.97 30.07,12.59 26.48,11.59 C20.21,9.89 12.72,11 9.38,14.82 C7.85185008,16.5118076 7.02269223,18.7205125 7.06,21 C7.02914028,21.7682376 7.09295334,22.5373529 7.25,23.29 C7.51501279,24.2008704 7.84932158,25.0901317 8.25,25.95 C8.57,26.87 8.65,26.95 8.5,26.23 C11.13,33.09 23.52,39 30.94,36.05 Z" opacity=".5"/>
      <path id="Shape" fill="#3D454C" fill-rule="nonzero" d="M42.92,30.18 L40.69,28 C41.0940137,27.0553045 41.011903,25.9729363 40.47,25.1 L30.34,8.64 C28.7908225,6.1759891 25.7888562,5.04718433 23,5.88 C14.7392869,8.38030127 8.25773917,14.8168903 5.7,23.06 C4.82423414,25.865637 5.94960605,28.9090698 8.44,30.47 L24.88,40.65 C25.3781575,40.9595808 25.9534891,41.1224759 26.54,41.12 C26.9731855,41.1187018 27.4016841,41.0302815 27.8,40.86 L30,43.09 C32.2797477,45.5204996 35.702608,46.5158841 38.9302148,45.68695 C42.1578217,44.8580159 44.6774364,42.336448 45.5038692,39.1081998 C46.3303019,35.8799515 45.3322654,32.4578636 42.9,30.18 L42.92,30.18 Z M25.92,38.94 L9.49,28.76 C7.77119209,27.6800346 6.9984818,25.5756321 7.61,23.64 C9.95416532,16.0422014 15.9204885,10.1058598 23.53,7.8 C25.4648204,7.19919028 27.5617923,7.97478263 28.64,9.69 L38.77,26.11 C39.0544671,26.5661554 38.9882474,27.1579944 38.61,27.54 L27.37,38.78 C26.9847328,39.1598702 26.3892566,39.2260342 25.93,38.94 L25.92,38.94 Z M41.5,41.67 C40.1660136,43.0079598 38.3543533,43.7599527 36.465,43.7599527 C34.5756467,43.7599527 32.7639864,43.0079598 31.43,41.67 L29.37,39.6 L39.44,29.53 L41.51,31.6 C44.2855548,34.3829052 44.2855548,38.8870948 41.51,41.67 L41.5,41.67 Z"/>
      <path id="Path" fill="#3D454C" fill-rule="nonzero" d="M34.27,28.65 C35.5422137,27.3863595 35.7705203,25.4104691 34.82,23.89 L34.27,22.99 L34.27,22.99 C34.2249715,22.923103 34.1711565,22.8625611 34.11,22.81 C34.0780026,22.7747077 34.0409296,22.7443753 34,22.72 C33.9341281,22.6786116 33.8636515,22.6450514 33.79,22.62 L33.65,22.57 L33.27,22.57 C33.2435574,22.5651108 33.2164426,22.5651108 33.19,22.57 C32.4815459,22.7976284 31.8601628,23.2374839 31.41,23.83 C30.98,24.32 30.78,24.52 30.3,24.53 C29.82,24.54 29.62,24.36 29.15,23.91 C28.5133864,23.1209927 27.543261,22.6766604 26.53,22.71 C25.5257859,22.7538038 24.5954857,23.250209 24,24.06 C23.57,24.55 23.37,24.75 22.89,24.76 C22.41,24.77 22.2,24.59 21.74,24.14 C21.0954359,23.3556442 20.124858,22.9127949 19.11,22.94 C18.0995511,22.9884483 17.1655072,23.4922436 16.57,24.31 C16.15,24.79 15.94,25 15.46,25.01 C14.98,25.02 14.76,24.83 14.3,24.39 C13.7804893,23.7902492 13.0773879,23.3789349 12.3,23.22 L12.3,23.22 C11.8239713,23.1371497 11.3567905,23.4065152 11.19,23.86 C11.07,24.19 10.95,24.53 10.85,24.86 C10.4131906,26.1377569 10.8838983,27.5498801 12,28.31 L14.31,29.74 C14.777176,30.0269171 15.388263,29.8841814 15.68,29.42 C15.8332421,29.1903358 15.8847124,28.9075341 15.8222148,28.638605 C15.7597172,28.369676 15.5888136,28.1385526 15.35,28 L13,26.61 C12.6756891,26.3881344 12.5113708,25.9969004 12.58,25.61 L12.81,25.83 C13.4682749,26.6157954 14.4560696,27.0486492 15.48,27 C16.4823781,26.9508452 17.408728,26.4509103 18,25.64 C18.42,25.16 18.63,24.95 19.11,24.94 C19.59,24.93 19.8,25.11 20.27,25.56 C20.901575,26.3554638 21.8751413,26.8013721 22.89,26.76 C23.90125,26.7144398 24.8364662,26.2100121 25.43,25.39 C25.86,24.9 26.05,24.7 26.54,24.69 C27.03,24.68 27.22,24.86 27.69,25.31 C28.3246241,26.1015629 29.2961034,26.5465153 30.31,26.51 C31.32125,26.4644398 32.2564662,25.9600121 32.85,25.14 L33.07,24.89 L33.07,24.94 C33.5303119,25.6751626 33.4180546,26.6314283 32.8,27.24 L26.66,33.38 C26.0496937,33.9944994 25.0960266,34.1064517 24.36,33.65 L22.6,32.53 C22.132824,32.2430829 21.521737,32.3858186 21.23,32.85 C21.0889787,33.0753123 21.0434623,33.3474983 21.1035053,33.6064336 C21.1635482,33.8653688 21.3242096,34.0897455 21.55,34.23 L23.35,35.35 C24.8752848,36.2944349 26.849677,36.0667796 28.12,34.8 L34.27,28.65 Z"/>
      <path id="Path" fill="#3D454C" fill-rule="nonzero" d="M18.36 30.12L18.3 30.12C17.7477153 30.12 17.3 30.5677153 17.3 31.12 17.3 31.6722847 17.7477153 32.12 18.3 32.12L18.36 32.12C18.9122847 32.12 19.36 31.6722847 19.36 31.12 19.36 30.5677153 18.9122847 30.12 18.36 30.12zM41.68 48.85C41.1277153 48.85 40.68 49.2977153 40.68 49.85 40.68 50.4022847 41.1277153 50.85 41.68 50.85 42.2322847 50.85 42.68 50.4022847 42.68 49.85 42.68 49.2977153 42.2322847 48.85 41.68 48.85zM47.41 45C46.8577153 45 46.41 45.4477153 46.41 46 46.41 46.5522847 46.8577153 47 47.41 47 47.9622847 47 48.41 46.5522847 48.41 46 48.41 45.4477153 47.9622847 45 47.41 45zM46.67 51.09C46.1177153 51.09 45.67 51.5377153 45.67 52.09 45.67 52.6422847 46.1177153 53.09 46.67 53.09 47.2222847 53.09 47.67 52.6422847 47.67 52.09 47.67 51.5377153 47.2222847 51.09 46.67 51.09z"/>
    </g>
  </g>
</svg>
