<svg xmlns="http://www.w3.org/2000/svg" width="64" height="64" viewBox="0 0 64 64" style="background:#fff">
  <g id="Pferd" fill="none" fill-rule="evenodd" stroke="none" stroke-width="1">
    <rect width="64" height="64" fill="#FFF"/>
    <g transform="translate(2 5)">
      <rect id="Rectangle" width="60" height="60" x="0" y="0"/>
      <path id="Path" fill="#C17953" fill-rule="nonzero" d="M46.12,8 C41.36,7.06 37.31,10 35.34,14.33 C34.8180398,15.5323751 34.422578,16.7857877 34.16,18.07 C34.01,18.7 33.9,19.34 33.79,19.99 C31.24,21.36 27.24,19.47 24.7,18.99 C18.7,17.99 13.47,20.7 11.7,26.7 C10.65,30.32 11.27,34.12 11.58,37.8 C11.89,41.48 11.93,45.58 14.5,48.6 C15.96,50.32 18.29,50.81 19.6,48.47 C20.948642,46.0556265 21.5962956,43.3126227 21.47,40.55 C21.47,39.23 21.28,37.88 21.19,36.55 L21.05,34.55 C21.05,34.24 21.05,33.98 21.1,33.74 C21.86,33.74 22.84,33.57 22.83,33.57 C23.9349016,33.6929658 25.0261599,33.9172428 26.09,34.24 C28.3659271,34.8811351 30.7527127,35.0277519 33.09,34.67 C37.2615233,33.8653835 40.4877953,30.5432817 41.17,26.35 C41.66,24.04 40.5,21.17 41.02,19.1 C41.43,17.47 44.66,15.8 46.25,14.84 C48.13,13.85 48.93,8.6 46.12,8 Z" opacity=".5"/>
      <path id="Path" fill="#3D454C" fill-rule="nonzero" d="M52,14.09 C52.3584717,13.4320319 52.627514,12.7291588 52.8,12 C52.9203221,11.4740519 52.6017254,10.9474824 52.08,10.81 C50.3287028,10.3535326 48.4647949,10.7747758 47.08,11.94 C46.6740707,12.3155536 46.6494464,12.9490707 47.025,13.355 C47.4005537,13.7609292 48.0340707,13.7855536 48.44,13.41 C49.0313776,12.9397935 49.7553783,12.6669817 50.51,12.63 C50.3884096,12.9449275 50.212397,13.2360253 49.99,13.49 C49.6022764,13.8800375 49.6022764,14.5099625 49.99,14.9 C52.47,17.47 55.29,20.69 55.64,21.51 C55.5700608,21.9226082 55.3577623,22.297669 55.04,22.57 C54.8659109,22.7348257 54.6284092,22.8152109 54.39,22.79 C54.0311491,22.6996538 53.6921101,22.5436959 53.39,22.33 C52.5924119,21.7641244 51.6264239,21.4856096 50.65,21.54 L50.65,21.54 C49.0637154,21.7264783 47.4820917,21.1560566 46.38,20 C46.0165552,19.7128024 45.5034448,19.7128024 45.14,20 C45.05,20.06 42.88,21.66 43.32,25.66 C43.61,28.25 44.13,32.97 42.5,34.25 L42.5,34.25 C41.9564031,34.3417721 41.5896144,34.8561708 41.68,35.4 C42.0805145,37.7274313 42.1880174,40.0958552 42,42.45 C41.57,45.24 41.55,51.37 42.11,52.97 C42.2515801,53.3782964 42.4359384,53.7704769 42.66,54.14 L40.23,54.14 C39.85,50.33 39.43,44.97 39.67,43.68 C39.91,42.39 39,40.36 38,38.13 C37.2593524,36.8094496 36.7264427,35.3827356 36.42,33.9 C36.42,33.3477153 35.9722847,32.9 35.42,32.9 C34.8677153,32.9 34.42,33.3477153 34.42,33.9 C34.530518,34.9855474 34.8353705,36.0423694 35.32,37.02 C31.070228,37.9170229 26.6555029,37.6263984 22.56,36.18 C22.6699725,35.6965471 22.7402068,35.2049071 22.77,34.71 C22.7920914,34.1577153 22.3622847,33.6920914 21.81,33.67 C21.2577153,33.6479086 20.7920914,34.0777153 20.77,34.63 C20.4275417,37.8624636 18.7624163,40.8090115 16.17,42.77 C15.9191218,42.963052 15.7744663,43.2634904 15.78,43.58 C15.78,44.26 15.89,50.32 16.51,52.03 C16.7425388,52.6638225 17.0550666,53.2653546 17.44,53.82 L14.2,53.82 C13.65,49.82 12.93,44.38 12.93,43.43 C13.1546692,41.5042852 13.5121881,39.5964043 14,37.72 C14.0607954,37.4728082 14.0250321,37.2117359 13.9,36.99 C13.9,36.93 10.41,30.72 11.9,26.34 C12.455432,24.757895 13.6928796,23.5094315 15.27,22.94 C16.8126255,22.4311596 18.4395288,22.2273721 20.06,22.34 C20.44,22.41 20.97,22.55 21.58,22.72 C24.21,23.44 28.58,24.65 33.02,22.65 C33.3686661,22.4935079 33.597648,22.1519755 33.61,21.77 C33.6812693,20.5555376 33.8653964,19.3503419 34.16,18.17 C34.2191381,18.2213855 34.2868302,18.2620008 34.36,18.29 L36.36,19.06 C36.4725104,19.0993549 36.5908058,19.1196341 36.71,19.12 C37.1869157,19.1118027 37.5916539,18.7679156 37.6767657,18.2985845 C37.7618776,17.8292533 37.5036676,17.3651425 37.06,17.19 L35.06,16.42 C34.9440439,16.3806254 34.8224584,16.3603611 34.7,16.36 C35.2354619,14.7463903 36.1004155,13.2616667 37.24,12 C37.2644868,12.1023802 37.3049855,12.2002519 37.36,12.29 L38.76,14.29 C38.9485255,14.5617806 39.2592449,14.7227557 39.59,14.72 C39.790491,14.7174987 39.9856002,14.654785 40.15,14.54 C40.6055974,14.2279346 40.721997,13.6056442 40.41,13.15 L39.01,11.15 C38.8986625,11.0077378 38.7545649,10.8945183 38.59,10.82 C39.6262639,10.1193658 40.8103891,9.6676186 42.05,9.5 C42.0450365,9.54653469 42.0450365,9.59346531 42.05,9.64 L42.56,11.94 C42.6647542,12.4051526 43.0833401,12.7316496 43.56,12.72 L43.77,12.72 C44.0305186,12.6627191 44.2573554,12.5037298 44.400076,12.2783815 C44.5427967,12.0530332 44.5895712,11.7800045 44.53,11.52 L44.07,9.43 C45.258767,9.48434895 46.4369419,9.67903313 47.58,10.01 C48.0734139,10.0707868 48.5365575,9.75987788 48.6671523,9.2801933 C48.7977471,8.80050871 48.5561314,8.29772814 48.1,8.1 C43.7,6.86 40,7.29 37.22,9.36 C32.75,12.64 31.86,19 31.68,21.06 C28.1,22.43 24.54,21.45 22.14,20.79 C21.48,20.61 20.91,20.46 20.43,20.37 C18.4599749,20.2017678 16.4763256,20.4365393 14.6,21.06 C13.5290103,21.4918335 12.5537264,22.1306954 11.73,22.94 C8.51544534,23.0126067 5.67203645,25.0430465 4.56,28.06 C2.74,32.25 4.56,38.18 4.56,38.43 C4.66045135,38.7565358 4.92065163,39.009194 5.25,39.1 C5.33635626,39.1103734 5.42364374,39.1103734 5.51,39.1 C5.75651402,39.1021006 5.99511672,39.0130698 6.18,38.85 C6.31,38.73 9.3,35.97 9.44,32.41 C9.46209139,31.8577153 9.03228475,31.3920914 8.48,31.37 C7.92771525,31.3479086 7.46209139,31.7777153 7.44,32.33 C7.35096223,33.6590789 6.87856647,34.9338527 6.08,36 C5.73,34.09 5.43,31.09 6.39,28.87 C7.04088228,27.1061822 8.46874132,25.7410457 10.26,25.17 C10.1764382,25.3422452 10.1029805,25.5192116 10.04,25.7 C8.44,30.3 11.19,36.13 11.97,37.63 C11.4869483,39.5581945 11.1526327,41.5206268 10.97,43.5 C10.93,45 12.19,54 12.34,55 C12.4102496,55.4970163 12.838068,55.8649401 13.34,55.86 L18.82,55.86 C19.321932,55.8649401 19.7497504,55.4970163 19.82,55 C19.8737361,54.2089114 19.6193086,53.4277116 19.11,52.82 C18.8040096,52.3748625 18.5522297,51.8948021 18.36,51.39 C17.939371,48.9764891 17.7385481,46.5297966 17.76,44.08 C19.6693392,42.5179631 21.1320399,40.4791515 22,38.17 C23.0398431,38.5657841 24.1100001,38.8767985 25.2,39.1 C24.8011506,40.3779252 24.2856474,41.6164718 23.66,42.8 C23.3689711,43.00599 23.1712506,43.3187478 23.11,43.67 C22.81,45.15 24.26,49.8 25.2,50.9 C25.4334386,51.2221191 25.5720042,51.6031744 25.6,52 L24.43,52.14 L21.18,44.7 C21.0499125,44.353785 20.7393572,44.1076406 20.3725841,44.0600468 C20.0058111,44.012453 19.6427179,44.1711823 19.4285745,44.4727286 C19.2144311,44.774275 19.1842091,45.169393 19.35,45.5 L22.89,53.57 C23.0495531,53.9355887 23.4111135,54.171389 23.81,54.17 L23.93,54.17 L26.76,53.83 C27.2290331,53.7753952 27.5959477,53.4001416 27.64,52.93 C27.7181979,51.7327465 27.3632716,50.5472926 26.64,49.59 C25.7821924,47.9137556 25.2270079,46.0992502 25,44.23 C25.4,43.79 26.06,42.66 27.14,39.43 C28.1358403,39.5461306 29.1374183,39.6062253 30.14,39.61 C32.1601905,39.6277755 34.1750259,39.3994275 36.14,38.93 L36.14,38.99 C36.85,40.49 37.83,42.55 37.69,43.31 C37.29,45.44 38.21,54.25 38.32,55.25 C38.3763151,55.7589349 38.8079683,56.1431062 39.32,56.1400187 L44.18,56.1400187 C44.7322847,56.1400187 45.18,55.6922847 45.18,55.14 C45.1471842,54.5333992 44.930984,53.9510534 44.56,53.47 C44.326069,53.1079861 44.1379651,52.7183423 44,52.31 C43.65,51.31 43.52,45.71 44,42.75 C44.2290424,40.417267 44.1584686,38.0648076 43.79,35.75 C44.8053328,34.8180763 45.4275213,33.5343655 45.53,32.16 C48.59,34.16 51.59,36.48 51.87,37.16 C51.7924508,38.786165 51.5918774,40.4041236 51.27,42 C51.1376824,42.6942476 51.0442038,43.3953372 50.99,44.1 C51.0013718,44.4870607 51.0791705,44.8692891 51.22,45.23 L49.85,44.65 L50.55,39.24 C50.6084344,38.8425181 50.4233198,38.4486574 50.08,38.24 L47.19,36.47 C46.9634728,36.329865 46.6903979,36.2858975 46.4313332,36.3478478 C46.1722684,36.409798 45.9486255,36.5725459 45.81,36.8 C45.5248988,37.269769 45.672267,37.8815706 46.14,38.17 L48.49,39.61 L47.77,45.14 C47.736399,45.5700031 47.9822871,45.9730984 48.38,46.14 L52,47.68 C52.1239863,47.730383 52.2561911,47.7575019 52.39,47.76 C52.5694833,47.7599472 52.7456443,47.7115893 52.9,47.62 C53.1739378,47.4548704 53.3523535,47.1686618 53.38,46.85 L53.45,46.15 C53.474307,45.6382823 53.3784122,45.1279852 53.17,44.66 C53.0833027,44.4732559 53.0259604,44.2742446 53,44.07 C53,43.88 53.14,43.07 53.26,42.28 C53.6082345,40.540904 53.7956916,38.7734518 53.82,37 C53.69,35.39 49.41,32.31 45.64,29.89 C45.6078268,28.3886286 45.4976784,26.8899423 45.31,25.4 C45.1176718,24.2867708 45.3080096,23.1412193 45.85,22.15 C47.2287343,23.199873 48.956716,23.6828493 50.68,23.5 L50.68,23.5 C51.2547392,23.4669917 51.822309,23.6408099 52.28,23.99 C52.7559502,24.3111744 53.2836647,24.5479694 53.84,24.69 C54.0329708,24.7378858 54.2311815,24.7614023 54.43,24.76 C55.0997705,24.7462289 55.7436227,24.4985934 56.25,24.06 C57.08747,23.3860735 57.5821106,22.3748083 57.6,21.3 C57.58,21 57.52,19.92 52,14.09 Z"/>
      <circle id="Oval" cx="47.5" cy="16.43" r="1" fill="#3D454C" fill-rule="nonzero"/>
    </g>
  </g>
</svg>
