<svg xmlns="http://www.w3.org/2000/svg" width="64" height="64" viewBox="0 0 64 64" style="background:#fff">
  <g id="Pfifferlinge" fill="none" fill-rule="evenodd" stroke="none" stroke-width="1">
    <rect width="64" height="64" fill="#FFF"/>
    <g transform="translate(2 4)">
      <rect id="Rectangle" width="60" height="60" x="0" y="0"/>
      <path id="Path" fill="#E0673A" fill-rule="nonzero" d="M49,16.11 C47.82,11.59 45.17,9.24 40.79,8.35 C38.6021686,7.87952476 36.3218875,8.10685339 34.27,9 C32.14,9.94 30.76,11.63 28.27,11.52 C24.11,11.33 20.8,7.73 16.39,8.52 C12.62,9.16 10.39,13.44 11.26,17.33 C12.14,21.56 15.46,20.78 18.57,21.13 C22.86,21.61 26.41,24.65 30.9,23.56 C33.07,23.04 34.49,21.47 36.49,20.61 C39.21,19.45 41.55,20.75 44.27,20.8 C46.48,20.77 49.76,19 49,16.11 Z" opacity=".5"/>
      <path id="Shape" fill="#3D454C" fill-rule="nonzero" d="M54.31,16.25 L54.31,16.25 C54.3256765,16.1539689 54.3256765,16.0560311 54.31,15.96 C54.3157003,15.9101625 54.3157003,15.8598375 54.31,15.81 C54.2899015,15.7536279 54.2630386,15.6999021 54.23,15.65 L54.23,15.65 L54.23,15.65 C53.99,15.38 48.4,9.03 41.31,9.03 C38.7147239,8.99959257 36.1357245,9.44354647 33.7,10.34 C31.5648756,11.1535728 29.2051244,11.1535728 27.07,10.34 C24.6342755,9.44354647 22.0552761,8.99959257 19.46,9.03 C12.37,9.03 6.78,15.38 6.55,15.65 L6.47,15.75 L6.41,15.87 L6.41,16 L6.41,16 C6.39491466,16.0994311 6.39491466,16.2005689 6.41,16.3 L6.41,16.42 L6.41,16.42 C6.43570395,16.5125757 6.47622837,16.6003786 6.53,16.68 C6.55820153,16.7210233 6.59184208,16.7580279 6.63,16.79 C6.6708097,16.8429223 6.72181459,16.8871266 6.78,16.92 C6.95,17.04 23.78,28.29 23.78,35.92 L23.78,47 C23.6855015,49.435515 24.9309575,51.727577 27.0258328,52.9734344 C29.1207081,54.2192918 31.7292919,54.2192918 33.8241672,52.9734344 C35.9190425,51.727577 37.1644985,49.435515 37.07,47 L37.07,35.84 C37.07,28.32 53.91,17.01 54.07,16.9 C54.1301316,16.857785 54.1839973,16.8072859 54.23,16.75 L54.29,16.69 L54.29,16.69 C54.3695867,16.566049 54.4208072,16.4260463 54.44,16.28 L54.31,16.25 Z M35.11,35.84 L35.11,47 C35.1910455,48.7834628 34.2857285,50.4672538 32.7532993,51.3832061 C31.2208702,52.2991585 29.3091298,52.2991585 27.7767007,51.3832061 C26.2442715,50.4672538 25.3389545,48.7834628 25.42,47 L25.42,35.84 C25.42,30.21 18.05,23.37 12.79,19.2 C14.9311893,19.7445899 17.1306807,20.0266621 19.34,20.04 C20.8668515,20.1368584 22.3771228,20.4120634 23.84,20.86 C25.9308097,21.4813202 28.0906525,21.8407342 30.27,21.93 C32.4491785,21.8391003 34.6088211,21.4797196 36.7,20.86 C38.1576331,20.3977363 39.6647181,20.1090742 41.19,20 C43.3993193,19.9866621 45.5988107,19.7045899 47.74,19.16 C42.48,23.37 35.11,30.21 35.11,35.84 Z M41.19,18.23 C39.5111547,18.3278196 37.8496916,18.6231908 36.24,19.11 C34.2893286,19.6913806 32.2737856,20.0273044 30.24,20.11 C28.2067524,20.0221267 26.1918418,19.6863083 24.24,19.11 C22.6411047,18.6209198 20.9892963,18.3254744 19.32,18.23 C15.6348325,18.165003 12.00001,17.3625538 8.63,15.87 C10.26,14.31 14.52,10.74 19.34,10.74 C21.7255017,10.7066635 24.0972552,11.1064733 26.34,11.92 C28.8913965,12.9059406 31.7186035,12.9059406 34.27,11.92 C36.5127448,11.1064733 38.8844983,10.7066635 41.27,10.74 C46.08,10.74 50.35,14.31 51.98,15.87 C48.5786569,17.3743342 44.9087832,18.1770128 41.19,18.23 L41.19,18.23 Z"/>
      <path id="Path" fill="#3D454C" fill-rule="nonzero" d="M23.32 22.16C22.9827873 21.7961845 22.4147715 21.7738217 22.05 22.11 21.8726816 22.2683625 21.7678942 22.4923908 21.76 22.73 21.7477454 22.9703703 21.8344778 23.2052704 22 23.38 23.8687242 25.3788071 25.2662364 27.7706373 26.09 30.38 26.1875216 30.7864396 26.5520305 31.0722477 26.97 31.07 27.0396627 31.0797176 27.1103373 31.0797176 27.18 31.07 27.4122107 31.0132236 27.6122937 30.8663976 27.7361111 30.6619113 27.8599284 30.457425 27.8973066 30.2120805 27.84 29.98 26.960652 27.0578674 25.4131486 24.3805496 23.32 22.16zM30.27 31.06C30.7647988 31.0545919 31.1645919 30.6547988 31.17 30.16L31.17 24C31.1212484 23.5368583 30.7307005 23.1852628 30.265 23.1852628 29.7992995 23.1852628 29.4087516 23.5368583 29.36 24L29.36 30.13C29.3546186 30.3747934 29.4481124 30.6114269 29.6193572 30.7864354 29.7906021 30.9614439 30.0251475 31.06 30.27 31.06L30.27 31.06zM37.87 21.87C37.6186821 21.8679843 37.3784945 21.9735213 37.21 22.16 35.1150509 24.3637244 33.5668326 27.0285781 32.69 29.94 32.5836405 30.4142777 32.8774598 30.8861693 33.35 31 33.4197107 31.0090005 33.4902893 31.0090005 33.56 31 33.9779695 31.0022477 34.3424784 30.7164396 34.44 30.31 35.2587342 27.6984107 36.6568667 25.305519 38.53 23.31 38.6955222 23.1352704 38.7822546 22.9003703 38.77 22.66 38.7485849 22.1786306 38.3518453 21.7995239 37.87 21.7999996L37.87 21.87z"/>
      <circle id="Oval" cx="30.34" cy="33.9" r="1" fill="#3D454C" fill-rule="nonzero"/>
    </g>
  </g>
</svg>
