<svg xmlns="http://www.w3.org/2000/svg" width="64" height="64" viewBox="0 0 64 64" style="background:#fff">
  <g id="Pfirsich" fill="none" fill-rule="evenodd" stroke="none" stroke-width="1">
    <rect width="64" height="64" fill="#FFF"/>
    <g transform="translate(2 7)">
      <rect id="Rectangle" width="60" height="60" x="0" y="0"/>
      <path id="Path" fill="#31E085" fill-rule="nonzero" d="M47.59,9.38 C46.51,7.54 43.78,7.28 41.77,7.17 C39.3217965,7.02681444 36.8768778,7.50135562 34.66,8.55 C28.77,11.14 32.66,24.1 38.22,19.78 C40.51,18 42.79,16.23 45,14.39 C46.49,13.21 48.8,11.44 47.59,9.38 Z" opacity=".5"/>
      <path id="Path" fill="#EBE53F" fill-rule="nonzero" d="M33.85,29.49 C34.57,26.57 34.34,22.87 32.49,20.36 C29.14,15.81 22.82,13.25 17.33,15.56 C11.1,18.17 9.06,25.56 9.45,31.75 C10,40.25 21.07,58.1 31.23,51 C33.32,49.54 33.23,45.37 32.35,43.37 C30.51,39.12 27.05,36.75 24.07,33.58 C25.6777756,34.1116945 27.3267121,34.5097137 29,34.77 C31.58,35.15 33.39,31.37 33.85,29.49 Z" opacity=".5"/>
      <path id="Path" fill="#E0673A" fill-rule="nonzero" d="M50.8,25.88 C50.44,23.8 48.8,20.93 46.37,20.99 C43.94,21.05 42.37,23.99 42.18,26.09 C41.8,30.39 40.18,32.74 38.18,36.51 C36.81,39.1 34.85,43.03 37.18,45.66 C40.52,49.5 46.4,42.6 48,40.21 C50.6938319,35.9520825 51.6929471,30.8387536 50.8,25.88 Z" opacity=".5"/>
      <path id="Shape" fill="#3D454C" fill-rule="nonzero" d="M45.64,17.75 C45.2202636,17.3910149 44.5889851,17.4402636 44.23,17.86 C43.8710149,18.2797364 43.9202636,18.9110149 44.34,19.27 C47.2898926,21.7675354 48.9937421,25.4348338 49,29.3 C49,42.59 40.09,46.63 34.19,49.3 C32.7733624,49.8781788 31.4140763,50.5879538 30.13,51.42 C28.8224143,50.5861615 27.4397302,49.876406 26,49.3 C20.1,46.63 11.19,42.59 11.19,29.3 C11.19,22.0153641 17.0953641,16.11 24.38,16.11 C31.6646359,16.11 37.57,22.0153641 37.57,29.3 C37.57,29.8522847 38.0177153,30.3 38.57,30.3 C39.1222847,30.3 39.57,29.8522847 39.57,29.3 C39.5722218,26.0153353 38.5012192,22.819885 36.52,20.2 C38.0755971,20.122652 39.5994805,19.7314766 41,19.05 C46.14,16.37 47.94,10.05 48,9.8 C48.1393889,9.29097469 47.8592069,8.76125563 47.36,8.59 C47.1,8.5 40.9,6.38 35.76,9.07 C33.4808735,10.4645223 31.6271641,12.4565682 30.4,14.83 C28.25,13 28.25,11 28.25,8.72 C28.25,8.16771525 27.8022847,7.72 27.25,7.72 C26.6977153,7.72 26.25,8.16771525 26.25,8.72 C26.0851926,10.6841809 26.4841365,12.654617 27.4,14.4 C26.4120779,14.2030631 25.4073567,14.1025909 24.4,14.1 C16.0153692,14.116536 9.22549628,20.9153547 9.22,29.3 C9.22,43.88 19.22,48.41 25.22,51.12 C26.7167545,51.6815214 28.1246075,52.4561774 29.4,53.42 C29.5870714,53.6108556 29.8427541,53.7188906 30.11,53.72 C30.3772459,53.7188906 30.6329286,53.6108556 30.82,53.42 C32.0953925,52.4561774 33.5032455,51.6815214 35,51.12 C41,48.41 51,43.88 51,29.3 C50.9910687,24.8508137 49.0319599,20.6292266 45.64,17.75 Z M36.64,10.84 C39.91,9.13 43.89,9.78 45.69,10.21 C45,11.93 43.3,15.57 40,17.28 C38.4696792,17.9990045 36.7896812,18.3418612 35.1,18.28 L35.04,18.28 C34.9734162,18.2752993 34.9065838,18.2752993 34.84,18.28 C33.9575455,17.4389422 32.9771782,16.7070241 31.92,16.1 C33,14.22 34.59,11.92 36.66,10.84 L36.64,10.84 Z"/>
      <path id="Path" fill="#3D454C" fill-rule="nonzero" d="M38.75,32.4 L38.75,32.4 L38.69,32.4 C38.1377153,32.4 37.69,32.8477153 37.69,33.4 C37.69,33.9522847 38.1377153,34.4 38.69,34.4 L38.8,34.4 C39.3522847,34.3861929 39.7888071,33.9272847 39.775,33.375 C39.7611929,32.8227153 39.3022847,32.3861929 38.75,32.4 L38.75,32.4 Z"/>
    </g>
  </g>
</svg>
