<svg xmlns="http://www.w3.org/2000/svg" width="64" height="64" viewBox="0 0 64 64" style="background:#fff">
  <g id="Pfirsichsaft" fill="none" fill-rule="evenodd" stroke="none" stroke-width="1">
    <rect width="64" height="64" fill="#FFF"/>
    <g transform="translate(2 5)">
      <rect id="Rectangle" width="60" height="60" x="0" y="0"/>
      <path id="Path" fill="#E0673A" fill-rule="nonzero" d="M43.93,26.68 C35.93,20.06 25.3,24.49 19.03,30.5 C16.6504105,32.7702059 15.2692765,35.8921441 15.19,39.18 C10.42,38.57 5.79,38.52 5.85,40.91 C6.04,47.91 15.1,53.19 22.23,54.85 C30.37,56.75 39.95,56.58 45.17,50.05 C50.6,43.25 51.22,32.7 43.93,26.68 Z" opacity=".5"/>
      <path id="Shape" fill="#3D454C" fill-rule="nonzero" d="M54.77,16.54 C53.35,11.32 48.35,9.4 43.47,10.54 C41.74,8.37 35.8,9 33.74,8.72 C29.93,8.31 27.16,5.16 22.85,5.4 C20.8188666,5.48992193 18.8613059,6.18656273 17.23,7.4 C16.90817,7.72024577 16.8424688,8.21711144 17.07,8.61 L20.64,14.19 C20.71,15.44 21.11,16.69 21.17,17.95 C21.3085655,19.6859329 21.1220409,21.4324814 20.62,23.1 C20.19,24.31 22.12,24.84 22.55,23.63 C23.0379454,22.0101036 23.2542055,20.3205717 23.19,18.63 C23.0928972,17.3750174 22.925972,16.1264172 22.69,14.89 L26.33,14.89 C26.8822847,14.89 27.33,14.4422847 27.33,13.89 C27.33,13.3377153 26.8822847,12.89 26.33,12.89 L22.17,12.89 C21.23,11.42 20.31,9.89 19.34,8.49 C19.7033238,8.26833224 20.0846715,8.07765836 20.48,7.92 C22.6945154,7.17356315 25.1074284,7.27692279 27.25,8.21 C27.71,8.39 28.12,8.57 28.5,8.76 L24.85,8.76 C24.2977153,8.76 23.85,9.20771525 23.85,9.76 C23.85,10.3122847 24.2977153,10.76 24.85,10.76 L33.72,10.76 C33.77,10.76 33.81,10.76 33.87,10.76 L34.16,10.76 C34.9,10.76 42.57,9.99 41.64,12.92 L37.64,12.92 C37.0877153,12.92 36.64,13.3677153 36.64,13.92 C36.64,14.4722847 37.0877153,14.92 37.64,14.92 C38.79,14.92 40.04,14.81 41.21,14.87 C41.1,15.47 41,16.06 40.93,16.66 C40.7851233,17.8610716 40.7549872,19.0732129 40.84,20.28 C41.26,25.58 44.96,28.96 46.37,33.88 C48.37,41 45.87,49.01 38.97,52.38 C36.28,53.7 29.27,54.31 26.6,53.09 C25.44,52.56 24.42,54.29 25.6,54.82 C28.53,56.16 34.54,55.82 37.6,55.06 C41.69,54.06 45.39,50.54 47.29,46.9 C48.6343591,44.2335468 49.258319,41.2619808 49.1,38.28 C52.5,32.22 56.69,23.58 54.77,16.54 Z M52.77,23.39 C51.9331826,27.3707958 50.5430162,31.214791 48.64,34.81 C48.48,34.05 48.29,33.31 48.06,32.58 C50.17,28.25 53.17,21.58 50.87,16.93 C49.5483527,14.1701561 46.4011833,12.798859 43.48,13.71 C43.65559,13.3228096 43.786436,12.9168517 43.87,12.5 C50.78,10.87 54,17 52.79,23.39 L52.77,23.39 Z M43.3,16.07 C44.3065958,15.6090571 45.4202312,15.4326739 46.52,15.56 C47.336058,15.8479363 48.0188414,16.4240348 48.44,17.18 C49.89,19.1 49.73,21.09 49.25,23.4 C48.72887,25.7005481 47.9749867,27.9420944 47,30.09 C46.21,28.58 45.27,27.19 44.45,25.65 C42.71,22.34 43.1,19.38 43.3,16.07 Z"/>
      <path id="Path" fill="#3D454C" fill-rule="nonzero" d="M40.4 46.73C43.1663707 43.2967651 43.8481865 38.6313065 42.18 34.55 41.73 33.36 39.8 33.88 40.25 35.09 41.53 38.44 41.4 42.52 38.98 45.32 38.14 46.29 39.55 47.71 40.4 46.73zM40 30.3C39.6378424 30.1197182 39.2027394 30.1754 38.8976521 30.4410716 38.5925649 30.7067432 38.4776019 31.1300617 38.6063897 31.5135632 38.7351775 31.8970646 39.0823421 32.165191 39.4859428 32.1928704 39.8895435 32.2205498 40.2700623 32.0023287 40.45 31.64 40.6954836 31.1456857 40.4940809 30.5459531 40 30.3z"/>
      <path id="Shape" fill="#3D454C" fill-rule="nonzero" d="M32.29,39.46 C32.2844882,34.1824425 28.0075575,29.9055118 22.73,29.9 C22.355665,29.9027634 21.981766,29.9261321 21.61,29.97 C21.9219346,29.0297293 22.0542344,28.0391768 22,27.05 C22,26.4977153 21.5522847,26.05 21,26.05 C20.4477153,26.05 20,26.4977153 20,27.05 C20.1593968,28.1347108 19.8665775,29.2373021 19.19,30.1 C18.4461267,28.7826704 17.3705031,27.6829142 16.07,26.91 C12.82,25.21 8.92,26.54 8.76,26.6 C8.26079309,26.7712556 7.98061111,27.3009747 8.12,27.81 C8.55137398,29.1688927 9.22935069,30.4367091 10.12,31.55 C7.79872761,33.5349928 6.42256447,36.4071433 6.33,39.46 C6.33,48.46 12.51,51.31 16.2,52.98 C17.0596934,53.3038923 17.8706541,53.744705 18.61,54.29 C19.0000375,54.6777236 19.6299625,54.6777236 20.02,54.29 C20.7573972,53.7525147 21.564891,53.3184868 22.42,53 C26.11,51.31 32.29,48.51 32.29,39.46 Z M15.16,28.68 C16.2120535,29.3421696 17.0709204,30.2700218 17.65,31.37 C17.1719261,31.6636629 16.7202323,31.9982509 16.3,32.37 C15.3366275,32.4064932 14.3779885,32.2181892 13.5,31.82 C12.1091391,30.9760553 11.0313459,29.7016613 10.43,28.19 C12.0181202,27.8366731 13.6780323,28.0086302 15.16,28.68 L15.16,28.68 Z M21.59,51.16 C20.8020559,51.4890951 20.0399164,51.8768503 19.31,52.32 C18.5689615,51.878169 17.7969491,51.4904918 17,51.16 C13.33,49.5 8.3,47.22 8.3,39.46 C8.3,37.26 9.67,34.17 11.55,32.99 C11.8665005,33.2285574 12.200812,33.4425168 12.55,33.63 C13.2220169,33.964684 13.9453662,34.1843929 14.69,34.28 C13.685501,35.8209303 13.1504715,37.6205751 13.15,39.46 C13.15,40.0122847 13.5977153,40.46 14.15,40.46 C14.7022847,40.46 15.15,40.0122847 15.15,39.46 C15.15,35.2847273 18.5347273,31.9 22.71,31.9 C26.8852727,31.9 30.2700595,35.2847273 30.2700595,39.46 C30.29,47.22 25.26,49.5 21.59,51.16 Z"/>
      <path id="Path" fill="#3D454C" fill-rule="nonzero" d="M14.55,42.45 C13.9977153,42.45 13.55,42.8977153 13.55,43.45 C13.55,44.0022847 13.9977153,44.45 14.55,44.45 C15.1022847,44.45 15.55,44.0022847 15.55,43.45 C15.55,42.8977153 15.1022847,42.45 14.55,42.45 Z"/>
    </g>
  </g>
</svg>
