<svg xmlns="http://www.w3.org/2000/svg" width="64" height="64" viewBox="0 0 64 64" style="background:#fff">
  <g id="Pflanzenfett" fill="none" fill-rule="evenodd" stroke="none" stroke-width="1">
    <rect width="64" height="64" fill="#FFF"/>
    <g transform="translate(2 4)">
      <rect id="Rectangle" width="60" height="60" x="0" y="0"/>
      <path id="Path" fill="#EBE53F" fill-rule="nonzero" d="M34,41.48 C29.48,41.83 24.94,42.11 20.42,42.21 C16.17,42.31 11.74,41.71 7.88,43.74 C4.81,45.36 4.39,51.6 7.27,53.65 C14.27,58.65 26.27,57.11 34.36,56.35 C40.94,55.72 40.5,41 34,41.48 Z" opacity=".5"/>
      <path id="Path" fill="#31E085" fill-rule="nonzero" d="M46.55,2.74 C44.74,2.91 43.87,3.9 42.78,5.23 L42.78,5.23 L42.45,5.61 C42.1,6.01 41.75,6.41 41.38,6.79 C39.83,8.44 38,9.77 36.89,11.75 C35.8915639,13.5880242 35.6753001,15.7506622 36.29,17.75 C36.74,19.25 37.87,21.09 39.68,21.05 C42.1,21.05 44.08,19.1 45.78,17.55 C48.08,15.46 50,13.34 50.49,10.13 C50.84,7.93 50,2.42 46.55,2.74 Z" opacity=".5"/>
      <circle id="Oval" cx="14.74" cy="48.07" r="1" fill="#3D454C" fill-rule="nonzero"/>
      <path id="Shape" fill="#3D454C" fill-rule="nonzero" d="M54.75,27.11 C54.19,26.21 52.75,25.82 49.95,25.82 L42,25.82 C41.0150718,25.8165648 40.0405053,26.0210193 39.14,26.42 L37.14,27.27 L31.14,23.87 L31.14,23.87 L18.46,16.67 C17.3994559,16.1040853 16.1035069,16.2258721 15.1669633,16.979463 C14.2304196,17.7330539 13.8341371,18.9729232 14.16,20.13 C14.3974754,20.9031159 14.9439526,21.5436885 15.67,21.9 L27.74,28.24 C27.7068854,28.5456461 27.7340655,28.8548198 27.82,29.15 C27.9739611,29.7218174 28.329025,30.2189069 28.82,30.55 L20.47,34.47 C20.2504186,34.5522386 20.0366047,34.649123 19.83,34.76 L19.76,34.76 L19.76,34.76 C18.4486787,35.5197584 17.6154559,36.8958957 17.55,38.41 C17.55,39.08 17.55,39.78 17.55,40.41 C17.55,41.04 17.55,41.74 17.55,42.5 L12.8,42.5 C11.4352393,42.4842274 10.0949316,42.862708 8.94,43.59 C8.4,44.01 7.77,44.52 7.22,45 C6.89,45.29 6.57,45.59 6.22,45.88 C5.85461442,46.1959713 5.63424334,46.6475513 5.61,47.13 L5.61,53.7 C5.59747811,54.1765928 5.77774824,54.6380844 6.11,54.98 C6.85815076,55.6094236 7.82602104,55.9152562 8.8,55.83 L29.36,55.83 C31.4709798,55.8359846 33.516893,55.099739 35.14,53.75 C35.52,53.36 35.9,52.97 36.22,52.61 C36.72,52.05 37.83,50.77 37.83,50.77 C37.9907777,50.5876958 38.0796502,50.3530724 38.08,50.11 L38.08,46.83 L43.73,46.83 C44.5797368,46.8316631 45.3956845,46.4973761 46,45.9 C49.3786836,43.365415 52.4052234,40.3926803 55,37.06 C55.3712482,36.590903 55.6002893,36.025241 55.66,35.43 C56.18,29.63 55.12,27.62 54.75,27.11 Z M48.12,35.81 L48.12,35.81 L49.55,36.62 C48.844842,37.2925646 47.9585201,37.7444149 47,37.92 C46.639012,35.764555 44.7754607,34.1841283 42.59,34.18 L38.78,34.18 L30,28.93 C29.8769267,28.8646948 29.785929,28.7518812 29.7481523,28.617774 C29.7103757,28.4836668 29.7290465,28.339943 29.8,28.22 L31,26.09 L48.12,35.81 Z M34.88,34.18 L25.81,34.18 L30.9,31.8 L34.88,34.18 Z M16.08,19.53 C15.937242,19.0091299 16.2338614,18.4690171 16.75,18.31 C16.9959308,18.2461719 17.2569363,18.2783507 17.48,18.4 L29.27,25.1 L28.54,26.39 L16.54,20.12 C16.316105,19.9902581 16.1512207,19.7787761 16.08,19.53 L16.08,19.53 Z M34.73,51.39 C34.43,51.72 34.07,52.09 33.73,52.45 C32.4812574,53.4148356 30.9480571,53.9387962 29.37,53.94 L8.84,53.94 C8.43324979,53.9653741 8.02610804,53.8969469 7.65,53.74 L7.65,49 C8.04295325,49.0682699 8.44116416,49.101733 8.84,49.1 L10.7,49.1 C11.2522847,49.1 11.7,48.6522847 11.7,48.1 C11.7,47.5477153 11.2522847,47.1 10.7,47.1 L8.84,47.1 C8.55783524,47.08844 8.27699257,47.0550064 8,47 L8.5,46.55 C9.02,46.1 9.62,45.62 10.13,45.22 C10.9327894,44.7700127 11.8397623,44.5389588 12.76,44.55 L35.36,44.55 C35.17,44.73 34.99,44.9 34.81,45.05 C34.63,45.2 34.16,45.6 33.81,45.88 C32.4583543,46.6717228 30.9163279,47.0797029 29.35,47.06 L18.67,47.12 C18.1177153,47.12 17.67,47.5677153 17.67,48.12 C17.67,48.6722847 18.1177153,49.12 18.67,49.12 L18.67,49.12 L29.35,49.06 C31.3621938,49.0829266 33.3381359,48.5238288 35.04,47.45 C35.4,47.16 35.75,46.87 36.04,46.6 L36.04,49.81 C35.72,50.25 35.07,51 34.73,51.39 Z M38.07,44.83 L38.07,44.31 C38.0746522,44.276829 38.0746522,44.243171 38.07,44.21 C38.0933211,44.0097356 38.0658076,43.8068232 37.99,43.62 C37.7,42.93 36.92,42.62 35.69,42.62 L19.56,42.62 C19.56,41.86 19.56,41.15 19.56,40.53 C19.56,39.91 19.56,39.22 19.56,38.53 C19.575243,37.7204566 19.9910792,36.9712022 20.67,36.53 L21.25,36.26 C21.5043803,36.1722636 21.7709613,36.1250214 22.04,36.12 L42.55,36.12 C43.8768931,36.1456915 44.9524716,37.2037096 45,38.53 C45,39.19 45.06,39.88 45.06,40.53 C45.06,41.37 45.01,42.44 44.92,43.72 C44.8916604,43.9847042 44.7795508,44.2334473 44.6,44.43 L44.29,44.65 L44.22,44.72 C44.053497,44.8084386 43.8684985,44.8564012 43.68,44.86 L38.07,44.83 Z M53.59,35.23 C53.5658736,35.4480593 53.4829148,35.6554561 53.35,35.83 C51.4388275,38.2433592 49.3135219,40.4791137 47,42.51 C47,41.75 47.06,41.07 47.06,40.51 C47.06,40.33 47.06,40.14 47.06,39.95 C48.58,39.64 50.55,38.88 51.31,37.54 C51.8285394,36.6286537 51.5107856,35.4695236 50.6,34.95 L49.25,34.18 L49.25,34.18 L39.25,28.51 L39.83,28.26 C40.5113614,27.9530063 41.2528738,27.8026535 42,27.82 L50,27.82 C50.9657103,27.7754474 51.9327231,27.8731595 52.87,28.11 C52.6444321,28.3406175 52.3965528,28.5483001 52.13,28.73 L50.26,30 C49.8944662,30.2456378 49.7326612,30.7014949 49.8615299,31.1226193 C49.9903985,31.5437436 50.3796003,31.8309866 50.82,31.83 C51.023908,31.8295172 51.2227955,31.7667107 51.39,31.65 L53.22,30.39 L53.63,30.09 C53.8175546,31.7990105 53.8041297,33.5241155 53.59,35.23 Z"/>
      <path id="Shape" fill="#3D454C" fill-rule="nonzero" d="M33.88,23.33 C33.9496536,23.3398485 34.0203464,23.3398485 34.09,23.33 C35.8342118,22.7965842 37.4184092,21.8378183 38.7,20.54 L39.3,20.54 C43.0532819,20.553299 46.566888,18.6972295 48.6714788,15.5894972 C50.7760695,12.481765 51.1954316,8.53023904 49.79,5.05 C49.6526771,4.74939252 49.3757012,4.53604622 49.05,4.48 C45.1160432,4.00564931 41.2496772,5.78417767 39.05,9.08 C36.8372676,11.9151486 36.198446,15.6729228 37.35,19.08 C36.3036456,20.1200973 35.0401111,20.9157825 33.65,21.41 C33.0977153,21.4679899 32.6970101,21.9627153 32.755,22.515 C32.8129899,23.0672847 33.3077153,23.4679899 33.86,23.41 L33.88,23.33 Z M40.69,10.25 C42.3487432,7.76353999 45.1724444,6.30821876 48.16,6.4 C49.0856384,9.22869844 48.5904451,12.330172 46.83,14.73 C45.3745722,16.7566997 43.1515653,18.0977331 40.68,18.44 C41.5064162,17.4537785 42.2584827,16.4075705 42.93,15.31 C43.1365339,15.0059026 43.159573,14.613007 42.9899964,14.2868548 C42.8204197,13.9607026 42.4855708,13.7538842 42.1180112,13.7482758 C41.7504516,13.7426674 41.4094485,13.9391734 41.23,14.26 C40.5650873,15.3443851 39.8196567,16.3772911 39,17.35 C38.519791,14.8505028 39.1351885,12.265105 40.69,10.25 L40.69,10.25 Z"/>
    </g>
  </g>
</svg>
