<svg xmlns="http://www.w3.org/2000/svg" width="64" height="64" viewBox="0 0 64 64" style="background:#fff">
  <g id="Pflaumen" fill="none" fill-rule="evenodd" stroke="none" stroke-width="1">
    <rect width="64" height="64" fill="#FFF"/>
    <g transform="translate(2 4)">
      <g id="Layer_2">
        <rect id="Rectangle" width="60" height="60" x="0" y="0"/>
      </g>
      <g id="Layer_1" fill-rule="nonzero" transform="translate(2 7)">
        <path id="Path" fill="#31E085" d="M13.56 3.42C12.5393621 2.39267159 11.3307702 1.57110068 10 1 9 .59 8 1.58 7.73 2.49 7.31494431 3.74015752 7.46461146 5.10906438 8.14 6.24 8.99259166 7.58751568 10.0483957 8.79511267 11.27 9.82 12.57 10.93 14.08 9.82 14.53 8.43 15.1751511 6.71051992 14.8002999 4.7744327 13.56 3.42zM48.53 1.81C48.02 1.18 46.82 1.36 46.16 1.57 45.4997129 1.78432443 44.8759002 2.09791672 44.31 2.5 43.0648707 3.25818789 41.9164585 4.16482913 40.89 5.2 39.9865015 6.28137243 39.7100281 7.75463441 40.16 9.09 40.45 9.97 41.42 11.51 42.6 10.82 44.4852912 9.61608758 46.1022532 8.03657101 47.35 6.18 48 5.19 49.49 3 48.53 1.81z" opacity=".5"/>
        <path id="Path" fill="#4885E0" d="M19.25 21.81C18 17.68 15.64 13 10.92 12.24 4.04 11.24 1.92 19 1.65 24.24 1.59404262 25.5523893 1.76315139 26.8646734 2.15 28.12 2.07254151 28.9442616 2.04249202 29.772292 2.06 30.6 2.2 36.53 7.38 49.13 15.33 45.6 19.33 43.82 20.5 38.54 20.75 34.6 21.0177745 30.2812997 20.5097511 25.9495535 19.25 21.81zM54.07 20.61C51.57 15.55 47 12 41 11.85 36.61 11.76 30 16 32.42 20.85 33.78 23.54 36.28 24.74 38.74 26.1 38.2663613 26.3773728 37.8295836 26.7133556 37.44 27.1 33.6 30.75 32.71 38.91 36.44 42.98 39.34 46.15 42.07 47.37 46.32 45.91 49.1605345 44.7675887 51.5199459 42.6801454 53 40 56.654941 34.1467882 57.0587133 26.8298291 54.07 20.61L54.07 20.61z" opacity=".5"/>
        <path id="Shape" fill="#3D454C" d="M44,13.14 C43.3018821,13.0770517 42.6007601,13.0536809 41.9,13.07 C41.9,12.31 41.82,11.59 41.74,10.96 C44.82,10.52 47.08,9.36 48.45,7.5 C49.6331989,5.81864163 50.0908408,3.73222717 49.72,1.71 C49.6052632,1.20007909 49.1171926,0.864530577 48.6,0.94 C44.72,1.51 42.02,2.94 40.6,5.11 C40.4022207,5.40917352 40.2283482,5.72348163 40.08,6.05 C39.5219692,5.13524797 38.6027991,4.49945842 37.55,4.3 C37.1927344,4.26605976 36.8445005,4.42529661 36.6364746,4.71772758 C36.4284487,5.01015854 36.3922349,5.3913564 36.5414746,5.71772759 C36.6907143,6.04409879 37.0027344,6.26605978 37.36,6.3 C37.36,6.3 38.82,6.7 39.55,9.93 C39.55,10.18 39.63,10.33 39.63,10.36 C39.63,10.39 39.63,10.36 39.63,10.36 C39.7867633,11.2189047 39.8836633,12.0876631 39.92,12.96 C39.0522993,12.7212081 38.1657172,12.557274 37.27,12.47 C32.27,11.97 28.14,13.57 25.27,17.11 C24.1682295,15.4887158 22.7069287,14.1437715 21,13.18 C19.0732186,12.171058 16.8233779,11.973072 14.75,12.63 C14.8755839,11.9546473 15.0391773,11.2869192 15.24,10.63 C15.24,10.63 15.24,10.63 15.24,10.63 C15.24,10.63 15.31,10.42 15.39,10.13 C16.39,7.26 17.78,7.04 17.87,7.03 C18.4222847,7.03 18.87,6.58228475 18.87,6.03 C18.87,5.47771525 18.4222847,5.03 17.87,5.03 C16.8536014,5.10794901 15.9137208,5.59957886 15.27,6.39 C15.176097,6.08020834 15.0556507,5.77909258 14.91,5.49 C13.77,3.21 11.34,1.56 7.69,0.57 C7.18417442,0.4366275 6.66103294,0.715636291 6.49,1.21 C5.89270496,3.10529107 6.07627555,5.16056181 7,6.92 C8.09,8.84 10.12,10.21 13,10.98 C12.85,11.58 12.72,12.26 12.6,12.98 C10.94,12.5 8.54,12.6 5.6,14.98 C2,18.53 0.08,24.83 0.82,31 C1.88,40 8.41,46.74 15.71,46.74 C16.1781063,46.74 16.6457237,46.709758 17.11,46.65 C20.4683385,46.2035519 23.5116324,44.4408876 25.57,41.75 C27.8875761,43.8786599 30.8605323,45.155303 34,45.37 C34.62,45.43 35.22,45.46 35.81,45.46 C36.4,45.46 36.88,45.46 37.39,45.37 C38.4880266,45.7037867 39.6171808,45.9249267 40.76,46.03 C41.3843886,46.0974124 42.0119833,46.1307951 42.64,46.13 C46.2360298,46.267633 49.712976,44.8286448 52.16,42.19 C54.53,39.6 56.03,35.72 56.5,30.99 C57.54,20.69 52.86,14 44,13.14 Z M42.24,6.21 C43.24,4.7 45.12,3.65 47.84,3.1 C47.8596639,4.25885746 47.5093707,5.39380754 46.84,6.34 C45.84,7.74 43.99,8.63 41.47,8.98 C41.4504841,7.99845149 41.7256612,7.03358994 42.26,6.21 L42.24,6.21 Z M8.77,6 C8.24751274,5.04135888 8.03443578,3.94453647 8.16,2.86 C10.65,3.69 12.3,4.86 13.08,6.41 C13.4948643,7.24181075 13.6548877,8.1775997 13.54,9.1 C11.2,8.43 9.6,7.39 8.77,6 Z M16.88,44.76 C10.13,45.52 3.81,39.27 2.8,30.8 C2.14,25.19 3.8,19.55 6.96,16.48 C8.05677882,15.4636641 9.46828461,14.8531878 10.96,14.75 C11.4973929,14.7493388 12.02891,14.8617751 12.52,15.08 L12.77,15.19 L12.83,15.19 C15.8,16.77 18,22 18.3,26.15 C18.3476726,26.6991457 18.8307253,27.1061623 19.38,27.06 C19.9247705,27.0173723 20.3344514,26.5453486 20.3,26 C20.03,22.72 18.46,17.32 15.3,14.53 C16.866881,14.0559274 18.5580221,14.2250415 20,15 C23.59,16.84 26.58,22.15 27.26,27.93 C28.31,36.36 23.63,43.9 16.88,44.71 L16.88,44.76 Z M54.54,30.79 C54.12,35.09 52.79,38.57 50.71,40.84 C48.458736,43.2026218 45.2492827,44.4038638 42,44.1 C46,42.1 48.63,37.98 49.58,32.02 C49.6656041,31.4677153 49.2872847,30.9506042 48.735,30.865 C48.1827153,30.7793959 47.6656041,31.1577153 47.58,31.71 C46.77,36.81 44.32,42.61 37.46,43.37 L37.46,43.37 C36.392587,43.4752263 35.317413,43.4752263 34.25,43.37 C31.4434631,43.2113294 28.7849313,42.0592989 26.75,40.12 C28.9706507,36.3653478 29.8717795,31.9758648 29.31,27.65 C28.959369,24.5797569 28.0043408,21.6093135 26.5,18.91 C28.91,15.51 32.5,14 37.09,14.46 C41.09,14.85 44.09,16.55 45.89,19.46 C46.0731155,19.7529855 46.3944985,19.9306914 46.74,19.93 C46.9246176,19.9345342 47.1061612,19.8821659 47.26,19.78 C47.727733,19.4915706 47.8751012,18.879769 47.59,18.41 C46.8194949,17.1750192 45.8378904,16.0850997 44.69,15.19 C48.61,15.87 55.73,18.67 54.54,30.79 Z"/>
        <path id="Path" fill="#3D454C" d="M9.81 16.33C7.26857052 17.8731179 5.55426732 20.4757753 5.14 23.42 5.08085799 23.9592344 5.46242722 24.4472881 6 24.5200187L6.11 24.5200187C6.62203175 24.5231062 7.05368489 24.1389349 7.11 23.63 7.46402891 21.3275566 8.80405495 19.2937841 10.78 18.06 11.2597834 17.7888284 11.429731 17.1805947 11.16 16.7 10.8857206 16.2297735 10.2856974 16.0653227 9.81 16.33zM49 26.58C48.4477153 26.58 48 27.0277153 48 27.58 48 28.1322847 48.4477153 28.58 49 28.58 49.5522847 28.58 50 28.1322847 50 27.58 50 27.0277153 49.5522847 26.58 49 26.58z"/>
      </g>
    </g>
  </g>
</svg>
