<svg xmlns="http://www.w3.org/2000/svg" width="64" height="64" viewBox="0 0 64 64" style="background:#fff">
  <g id="Pflanzliches-Öl" fill="none" fill-rule="evenodd" stroke="none" stroke-width="1">
    <rect width="64" height="64" fill="#FFF"/>
    <g transform="translate(2 2)">
      <rect id="Rectangle" width="60" height="60" x="0" y="0"/>
      <path id="Path" fill="#31E085" fill-rule="nonzero" d="M49.33,24.08 C46.82,22.02 44.01,24.08 43.15,26.73 C41.35,32.26 36.41,34.62 32.95,38.91 C31.48,40.73 32.15,44.58 34.28,45.6 C37.69,47.23 41.65,45.17 44.42,43.13 C47.5635275,40.6597532 49.9194792,37.3273673 51.2,33.54 C52.32,30.62 51.87,26.18 49.33,24.08 Z" opacity=".5"/>
      <path id="Path" fill="#EBE53F" fill-rule="nonzero" d="M31.2,31.34 C31.04,28.23 29.25,24.12 25.2,25.15 C22.66,25.8 20.04,24.15 17.37,24.8 C16.018401,25.0495456 14.7934514,25.7555683 13.9,26.8 C9.9,26.8 8.03,33.49 8.3,36.05 C9.17,44.33 9.42,61.91 23.3,57.99 C35.31,54.64 31.68,40.3 31.2,31.34 Z" opacity=".5"/>
      <path id="Shape" fill="#3D454C" fill-rule="nonzero" d="M28.07,52.18 C28.07,57.78 24.13,57.6 19.83,57.6 C16.19,57.6 12.53,57.36 12.53,53 L12.53,28 C12.53,24.62 12,21.83 14.41,19 C17,16 17.84,15.19 17.51,11 C17.51,10.86 17.51,10.72 17.46,10.58 L23.21,10.58 C23.138083,11.0030702 23.0979707,11.4309348 23.09,11.86 C23.09,13.56 22.81,15.22 23.76,16.72 C25.28,19.1 27.48,19.45 28.07,22.72 C28.66,25.99 28.07,30.01 28.07,33.3 C28.07,33.8522847 28.5177153,34.3 29.07,34.3 C29.6222847,34.3 30.07,33.8522847 30.07,33.3 C30.07,29.61 30.66,25.19 29.93,21.55 C29.33,18.55 26.84,18.05 25.54,15.68 C25.1201294,14.7642793 24.9642782,13.7495148 25.09,12.75 C25.0399866,12.0375433 25.0399866,11.3224567 25.09,10.61 C25.16,10.13 25.3,9.67 25.26,9.94 C25.85,6.45 26.8,2.31 22,1.6 C17.55,0.95 14.47,2.6 14.76,7.33 C14.9008921,8.31512227 15.1628738,9.27908073 15.54,10.2 C16.15,13.36 15.38,15.2 13.28,17.33 C10.41,20.23 10.56,22.76 10.56,26.51 L10.56,44.17 C10.56,47.71 10.03,51.72 10.56,55.23 C11.34,60.51 17,59.6 21,59.6 C23.3,59.6 26.06,60.03 28.07,58.66 C30.37,57.1 30.07,54.66 30.07,52.18 C30.07,51.6277153 29.6222847,51.18 29.07,51.18 C28.5177153,51.18 28.07,51.6277153 28.07,52.18 Z M20.52,3.6 C24.08,3.6 23.99,6.04 23.52,8.51 L17.13,8.51 C16.69,6 16.5,3.56 20.52,3.6 Z"/>
      <path id="Shape" fill="#3D454C" fill-rule="nonzero" d="M21.44 30.24L21.44 30.17C21.44 30.17 21.44 30.17 21.44 30.17L21.39 30.12C21.2008336 29.8720854 20.9068422 29.7266094 20.595 29.7266094 20.2831578 29.7266094 19.9891664 29.8720854 19.8 30.12L19.8 30.18C19.8 30.18 19.8 30.18 19.8 30.18L19.8 30.24 19.8 30.24C18.05 32.92 15.74 36.13 15.29 39.36 15.0630784 40.9647315 15.5227125 42.5908123 16.556133 43.8392908 17.5895535 45.0877694 19.1011285 45.8431124 20.72 45.92 22.2823651 45.7999583 23.7283919 45.0485693 24.7246583 43.8390867 25.7209248 42.6296042 26.181433 41.0664308 26 39.51 25.62 36.25 23.23 32.95 21.47 30.26L21.44 30.24zM20.54 43.94C16.05 43.94 17.09 38.94 18.34 36.42 19 35.09 19.74 33.81 20.53 32.55 21.26 33.71 21.96 34.89 22.53 36.1 23.87 38.62 25.25 43.94 20.54 43.94L20.54 43.94zM50.31 23.7C50.1746218 23.4019752 49.9019573 23.1890727 49.58 23.13 49.21 23.06 40.46 21.61 34.17 30.26 30.7106153 34.6734284 29.7311965 40.5424067 31.57 45.84 30.5209741 46.5921702 29.3646817 47.1821153 28.14 47.59 27.5877153 47.661797 27.198203 48.1677153 27.27 48.72 27.341797 49.2722847 27.8477153 49.661797 28.4 49.59 28.4830471 49.5997686 28.5669529 49.5997686 28.65 49.59 30.0783119 49.1331527 31.427535 48.4585411 32.65 47.59 32.7318827 47.6284229 32.8198947 47.6521184 32.91 47.66 33.3017784 47.7035937 33.6958204 47.7236298 34.09 47.72 39.9012099 47.7304733 45.337677 44.8522877 48.5957802 40.0403199 51.8538834 35.2283521 52.507581 29.111833 50.34 23.72L50.31 23.7zM46.61 39.32C43.922209 43.0620319 39.6894501 45.391519 35.09 45.66 38.2111079 42.8482599 40.749203 39.4505423 42.56 35.66 42.6817785 35.4228256 42.7038052 35.1468414 42.621187 34.8933539 42.5385688 34.6398663 42.358147 34.4298653 42.12 34.31 41.6256857 34.0645164 41.0259531 34.2659191 40.78 34.76 38.984401 38.5126083 36.4227409 41.8475355 33.26 44.55 31.9255508 40.0202078 32.8644121 35.1247166 35.78 31.41 40.55 24.87 46.78 24.85 48.69 25 50.4148166 29.8228577 49.6356452 35.1871535 46.61 39.32L46.61 39.32z"/>
      <path id="Path" fill="#3D454C" fill-rule="nonzero" d="M44,30.18 C43.4477153,30.18 43,30.6277153 43,31.18 C43,31.7322847 43.4477153,32.18 44,32.18 C44.5522847,32.18 45,31.7322847 45,31.18 C45,30.6277153 44.5522847,30.18 44,30.18 Z"/>
    </g>
  </g>
</svg>
