<svg xmlns="http://www.w3.org/2000/svg" width="64" height="64" viewBox="0 0 64 64" style="background:#fff">
  <g id="Pinienkerne" fill="none" fill-rule="evenodd" stroke="none" stroke-width="1">
    <rect width="64" height="64" fill="#FFF"/>
    <g transform="translate(2 4)">
      <rect id="Rectangle" width="60" height="60" x="0" y="0"/>
      <path id="Path" fill="#E0A075" fill-rule="nonzero" d="M37.06 9.64C36.9115522 9.04299564 36.7278977 8.45530128 36.51 7.88 36.1652862 7.08440066 35.6771642 6.3589972 35.07 5.74 34.5329367 5.24187362 33.7800164 5.04987893 33.07 5.23 32.3280011 5.41863215 31.6956043 5.90286739 31.32 6.57 30.9511064 7.22880457 30.6974587 7.94578212 30.57 8.69 30.3505966 9.91655574 30.4894761 11.1803594 30.97 12.33 31.5010193 13.5521034 32.4320327 14.5571747 33.61 15.18 34.1101272 15.540716 34.7134445 15.7301296 35.33 15.72 36.96 15.58 37.43 13.62 37.46 12.29 37.4525599 11.392203 37.3178868 10.4999937 37.06 9.64zM51 14C50.5735405 13.6065473 50.0199101 13.3794169 49.44 13.36 48.8149404 13.3525737 48.1951622 13.4751672 47.62 13.72 46.4022734 14.3118174 45.3660953 15.2202002 44.62 16.35 43.7277432 17.8562041 43.7743467 19.7397648 44.74 21.2 45.0667778 21.7808897 45.6877881 22.1336662 46.3540731 22.1169043 47.020358 22.1001424 47.6228442 21.7165862 47.92 21.12 49.06 19.41 50.58 18.12 51.45 16.17 51.7376011 15.420933 51.5617489 14.5729345 51 14zM52.6 29.36C51.14 27 48 25.79 45.31 25.84 42.62 25.89 41.73 29.36 41.84 31.42 41.96 33.76 42.93 36.53 45.58 36.82 48.314661 37.1339643 51.0146242 35.9963394 52.7 33.82 53.5053491 32.4321285 53.4667449 30.7103806 52.6 29.36z" opacity=".5"/>
      <path id="Path" fill="#C17953" fill-rule="nonzero" d="M34.82,29.14 C30.43,25.75 26,29.27 24.35,33.34 C23.35,35.77 18.89,36.58 15.75,35.84 C13.2,35.24 9.07,30.53 6.5,32.84 C3.14,35.84 3.79,41.66 5.14,45.36 C6.75747049,50.1562025 10.2144178,54.1131661 14.75,56.36 C24.64,61.16 35.16,52.78 38,44.17 C39.56,39.36 39.31,32.61 34.82,29.14 Z" opacity=".5"/>
      <path id="Shape" fill="#3D454C" fill-rule="nonzero" d="M33.08 16.48C33.6400136 16.7170788 34.2418706 16.8394903 34.85 16.8400886 36.6753254 16.8514861 38.3216923 15.7446514 39 14.05 39.4594676 12.9389624 39.4594676 11.6910376 39 10.58 38.3471083 9.21626088 37.4253205 7.99854861 36.29 7 34.69 5.59 33.22 5.09 32 5.58L32 5.58C29.46 6.64 29.8 12 30.64 14 31.0963896 15.1148219 31.9727459 16.0055447 33.08 16.48zM32.8 7.48C33.12 7.35 33.92 7.64 34.95 8.57 35.845052 9.36197275 36.5785155 10.31955 37.11 11.39 37.3755604 12.0302208 37.3755604 12.7497792 37.11 13.39 36.8624687 14.0058244 36.3766007 14.4954983 35.7627264 14.747827 35.1488521 15.0001557 34.4590646 14.9937267 33.85 14.73 33.2288945 14.4588936 32.7375909 13.9568315 32.48 13.33 31.74 11.42 31.94 7.78 32.8 7.43L32.8 7.48zM45.68 22.66C45.986102 22.7229127 46.2975205 22.7563986 46.61 22.76 47.4930739 22.7538125 48.3550834 22.4896482 49.09 22 50.96 20.81 54.28 16.66 52.77 14.3 51.26 11.94 46.1 13.24 44.24 14.43 43.2241187 15.0717361 42.5048213 16.0907943 42.2403864 17.2629352 41.9759514 18.4350761 42.1880461 19.6642563 42.83 20.68 43.4677453 21.7034118 44.4983831 22.4194338 45.68 22.66L45.68 22.66zM45.32 16.14C46.6516298 15.4106967 48.1418595 15.0192538 49.66 15 50.37 15 50.91 15.12 51.09 15.39 51.59 16.18 49.67 19.27 48.01 20.33 47.4396589 20.7006837 46.7456244 20.8301409 46.08 20.69 45.4332742 20.5544937 44.8678064 20.1655095 44.51 19.61 43.7815377 18.4271153 44.1431184 16.8781214 45.32 16.14L45.32 16.14zM48 26.53C45.6179978 25.8150072 43.104985 27.1540905 42.37 29.53 42.0291711 30.6799693 42.1737014 31.9193167 42.77 32.96 43.360237 34.0112523 44.3411754 34.7873794 45.5 35.12 46.2946489 35.3171106 47.1113464 35.4112156 47.93 35.4 50.29 35.4 53.16 34.73 53.71 32.82L53.71 32.82C54.48 30.18 50.12 27.15 48 26.53zM51.79 32.31C51.53 33.21 47.94 33.79 46.05 33.24 45.3891616 33.0489107 44.8314907 32.6027739 44.5 32 44.170016 31.4233708 44.0905158 30.7367782 44.28 30.1 44.6004914 29.034116 45.5870352 28.3084763 46.7 28.32 46.946829 28.31878 47.1925921 28.3524462 47.43 28.42 49.32 29 52 31.41 51.78 32.31L51.79 32.31zM38.22 42.84C37.8231403 42.6235242 37.3887771 42.4843922 36.94 42.43 37.5503036 41.5724951 38.0887979 40.6660855 38.55 39.72 39.44 37.81 39.55 36.29 38.78 35.19 37.78 33.78 35.88 33.53 34.24 33.54L34.5 33.06C35.5 31.25 36.57 29.2 35.3 27.7 34.6524117 27.0548498 33.7740915 26.6948825 32.86 26.7 33.4274735 25.861965 33.6561718 24.8399696 33.5 23.84 33.31 22.12 32.39 20.01 30.41 19.71 29.5432982 19.6208825 28.668465 19.6511652 27.81 19.8 27.9285335 19.400999 27.9525 18.9798728 27.88 18.57 27.65 17.72 26.66 17.02 24.88 16.01L24.76 15.95C23.8873783 15.4127337 22.9010237 15.0873737 21.88 15 21.3310285 14.9657223 20.8574337 15.3812347 20.82 15.93 20.8007707 16.1953698 20.8880874 16.4574621 21.0626275 16.658277 21.2371676 16.859092 21.4845392 16.9820712 21.75 17 22.4773044 17.0692842 23.1788244 17.3054055 23.8 17.69L23.92 17.76C24.6294035 18.1276493 25.2995264 18.5665799 25.92 19.07 25.8500191 19.5286318 25.6717631 19.9639876 25.4 20.34 25.4 20.34 25.4 20.34 25.4 20.4 24.5427579 20.6734816 23.7331306 21.0782952 23 21.6 22.6337247 21.5255054 22.2629103 21.4753953 21.89 21.45L21.74 21.45 21.58 21.45C21.2070897 21.4753953 20.8362753 21.5255054 20.47 21.6 18.2531161 20.1698691 15.6312648 19.4994895 13 19.69 11 19.99 10.1 22.1 9.91 23.82 9.75382822 24.8199696 9.98252648 25.841965 10.55 26.68 9.63676474 26.6792664 8.76005498 27.0385737 8.11 27.68 6.83 29.18 7.94 31.23 8.91 33.04L9.16 33.52C7.53 33.52 5.58 33.76 4.63 35.17 3.89 36.27 3.97 37.79 4.86 39.7 5.3189323 40.6473085 5.85753677 41.5539036 6.47 42.41 6.0167228 42.4645254 5.57849181 42.6072052 5.18 42.83 4.58865037 43.1629897 4.18308446 43.7492168 4.08 44.42 4.0111114 45.0459475 4.11485956 45.6788113 4.38 46.25 4.66977526 46.8805108 5.04312958 47.4691324 5.49 48 7.06 49.94 8.49 50.95 9.68 51 9.81545342 52.5549648 10.8241181 53.8972647 12.28 54.46 12.9939685 54.8220393 13.7797307 55.0201881 14.58 55.04 15.0694723 55.0440013 15.5539735 54.9416419 16 54.74 16.427578 55.511704 17.1488382 56.0778932 18 56.31 19.1509962 56.7126031 20.3606481 56.9220959 21.58 56.93L21.58 56.93 21.69 56.93 21.8 56.93 21.8 56.93C23.0160908 56.9220968 24.2224539 56.7125883 25.37 56.31 26.2196099 56.074814 26.9397993 55.5094653 27.37 54.74 27.8160265 54.9416419 28.3005277 55.0440013 28.79 55.04 29.5900868 55.0188575 30.3755612 54.8207813 31.09 54.46 32.5458819 53.8972647 33.5545466 52.5549648 33.69 51 34.9 50.9 36.31 49.89 37.88 48 38.3288771 47.4759086 38.7055574 46.8940721 39 46.27 39.2673141 45.6995558 39.3678496 45.0651423 39.29 44.44 39.1951098 43.7717379 38.8013518 43.1829409 38.22 42.84zM22 47.83C21.9000734 47.8245809 21.7999266 47.8245809 21.7 47.83L21.4 47.83C21.2887352 47.83685 21.1783001 47.8535825 21.07 47.88 20.1193058 46.9630291 18.969305 46.2785048 17.71 45.88 17.06 45.4 16.36 44.72 16.53 44.07 16.75 43.2 18.1 42.34 19.39 41.74L19.5 41.74C20.1742733 41.4122768 20.8816174 41.1574988 21.61 40.98L21.71 40.98 21.81 40.98C22.4989029 41.1396315 23.1692172 41.37089 23.81 41.67 23.8940177 41.7222935 23.9848838 41.7626784 24.08 41.79 25.36 42.39 26.71 43.25 26.93 44.12 27.09 44.77 26.4 45.45 25.75 45.93 24.4890405 46.3313814 23.3364023 47.0154397 22.38 47.93 22.2571741 47.8834846 22.129812 47.8499682 22 47.83L22 47.83zM11.28 42.83C11.010985 42.6379201 10.8878049 42.3001683 10.97 41.98 11.15 40.28 13.48 37.91 13.97 37.67 15.5 37.28 18.34 38.46 18.83 39.46 18.88 39.57 18.91 39.68 18.67 39.9 16.96 40.67 15.03 41.9 14.6 43.61 14.4890777 44.0531646 14.4890777 44.5168354 14.6 44.96 13.8518031 44.1443852 12.9040028 43.537793 11.85 43.2 11.6464045 43.0794565 11.4554442 42.9387489 11.28 42.78L11.28 42.83zM15.83 35.49C16.2120132 35.0655866 16.6414922 34.6864372 17.11 34.36 19.44 32.59 20.7 31.67 21.69 31.58L21.69 31.58C22.69 31.67 23.94 32.58 26.26 34.35 26.7318431 34.6798468 27.1646262 35.0623063 27.55 35.49 27.2302635 35.665807 26.8956314 35.8130451 26.55 35.93 24.9885953 36.2954517 23.6278179 37.2479958 22.75 38.59 22.6723169 38.7566981 22.611999 38.9309497 22.57 39.11 22.3759137 39.0530599 22.178977 39.0063292 21.98 38.97 21.8735678 38.9599976 21.7664322 38.9599976 21.66 38.97L21.38 38.97C21.1670744 39.0110686 20.9567188 39.0644922 20.75 39.13 20.7116057 38.947985 20.6546409 38.7703887 20.58 38.6 19.6991958 37.2608932 18.3397045 36.3092492 16.78 35.94 16.4494724 35.8011142 16.1316145 35.6338206 15.83 35.44L15.83 35.49zM20.68 29.49C19.09 27.91 17.24 27.49 15.27 27.11 15.61 26.04 17.15 25.11 18.75 24.33 19.6377984 23.8298111 20.6240979 23.5294846 21.64 23.45L21.7 23.45 21.77 23.45C22.7859021 23.5294846 23.7722016 23.8298111 24.66 24.33 26.26 25.15 27.8 26.04 28.14 27.11 26.14 27.5 24.32 27.91 22.73 29.49 22.6746516 29.5538064 22.6276103 29.6243682 22.59 29.7 22.367437 29.6374321 22.1399475 29.5939415 21.91 29.57 21.8437325 29.5596822 21.7762675 29.5596822 21.71 29.57 21.6403464 29.5601515 21.5696536 29.5601515 21.5 29.57 21.2699201 29.5930368 21.0423524 29.6365424 20.82 29.7 20.780709 29.6159195 20.7338491 29.5355883 20.68 29.46L20.68 29.49zM28.83 44.94C28.9409223 44.4968354 28.9409223 44.0331646 28.83 43.59 28.39 41.88 26.46 40.59 24.76 39.88 24.52 39.66 24.55 39.55 24.6 39.44 25.2727123 38.621259 26.1974449 38.0481358 27.23 37.81L27.23 37.81C27.9237503 37.5715531 28.6652761 37.5063263 29.39 37.62 29.94 37.89 32.27 40.26 32.45 41.96 32.5292838 42.2800188 32.406691 42.6161603 32.14 42.81 31.9686781 42.9503118 31.7845331 43.0741912 31.59 43.18 30.5326552 43.5012515 29.579986 44.0983957 28.83 44.91L28.83 44.94zM37.12 36.33C37.43 36.8 37.29 37.71 36.74 38.91 36.0644507 40.2041879 35.285239 41.4415627 34.41 42.61 34.4840715 42.1932658 34.4840715 41.7667342 34.41 41.35 33.8116381 39.3865245 32.6418885 37.6458257 31.05 36.35 31.8146462 35.8195209 32.7298588 35.5495156 33.66 35.58 36.15 35.44 36.89 36 37.12 36.3L37.12 36.33zM32.74 32.14C32.44 32.69 32.16 33.25 31.91 33.81 31.0409855 33.9736982 30.2344149 34.3752527 29.58 34.97 29.0967956 34.0552907 28.3789031 33.2856271 27.5 32.74 26.31 31.84 25.36 31.12 24.5 30.59 25.7614696 29.6988724 27.2329164 29.1509566 28.77 29L29.01 29C29.996067 28.7908931 31.0020518 28.6902947 32.01 28.7 32.5 28.7 33.53 28.75 33.78 29.05 34.17 29.46 33.34 31 32.74 32.11L32.74 32.14zM30.1 21.66C30.87 21.78 31.39 22.94 31.51 24.03 31.6 24.92 31.59 25.4 30.18 26.67 30.18 26.67 30.18 26.67 30.18 26.73 29.69 24.63 27.18 23.34 25.61 22.52L25.5 22.47C26.9566138 21.8701737 28.5261088 21.5938061 30.1 21.66L30.1 21.66zM11.9 24C12.02 22.91 12.54 21.75 13.31 21.63 14.8972575 21.5579532 16.4810332 21.8344312 17.95 22.44L17.84 22.49C16.24 23.31 13.76 24.6 13.27 26.7L13.27 26.64C11.82 25.4 11.81 24.92 11.9 24zM9.64 29C9.89 28.7 10.96 28.66 11.41 28.65 12.4179482 28.6402947 13.423933 28.7408931 14.41 28.95L14.65 28.95C16.1843003 29.0990146 17.6546092 29.63962 18.92 30.52 18.06 31.05 17.1 31.77 15.92 32.67 15.0385996 33.2125824 14.3199934 33.9830111 13.84 34.9 13.1855851 34.3052527 12.3790145 33.9036982 11.51 33.74 11.26 33.18 10.97 32.62 10.68 32.07 10.07 31 9.24 29.46 9.64 29zM6.29 36.3C6.51 35.97 7.29 35.44 9.79 35.56 10.7201412 35.5295156 11.6353538 35.7995209 12.4 36.33 10.8081115 37.6258257 9.63836191 39.3665245 9.04 41.33 8.96592848 41.7467342 8.96592848 42.1732658 9.04 42.59 8.16258471 41.4230608 7.38325785 40.1855032 6.71 38.89 6.12 37.68 6 36.77 6.29 36.3zM7 46.77C6.66989029 46.3788384 6.39406874 45.944924 6.18 45.48 6.06379877 45.2548266 6.00863317 45.0031335 6.02 44.75 6.03154442 44.669461 6.08478084 44.6010142 6.16 44.57 6.4937444 44.4130818 6.86210805 44.3442288 7.23 44.37 7.59158748 44.3743834 7.95114541 44.4247887 8.3 44.52 8.73 44.59 9.23 44.69 9.79 44.74 10.207802 44.7788272 10.6201913 44.8626461 11.02 44.99 11.2092329 45.0871801 11.4066636 45.1674909 11.61 45.23 11.9095856 45.3656682 12.1972611 45.5262313 12.47 45.71 11.4333418 46.5420039 10.6133521 47.6124507 10.08 48.83L10.08 48.83C10.03 48.94 9.95 49.06 9.89 49.07 9.67 49.13 8.67 48.77 7 46.77zM13.09 52.77C11.71 52.12 11.59 51.31 11.62 50.77 11.9000607 49.198958 12.8439826 47.8249868 14.21 47 15.1267989 47.0737823 16.0236366 47.3072985 16.86 47.69 17.6992881 47.9767812 18.4938169 48.3807789 19.22 48.89 18.84 49.19 18.45 49.52 18.04 49.89L17.64 50.24C17.0237593 50.7565141 16.514237 51.3883217 16.14 52.1L16.14 52.1C15.51 53.06 14.79 53.51 13.13 52.73L13.09 52.77zM24.75 54.5C23.8052045 54.8324046 22.8115508 55.0047731 21.81 55.01L21.7 55.01 21.6 55.01C20.5984492 55.0047731 19.6047955 54.8324046 18.66 54.5 18.27 54.37 17.8 54.13 17.73 53.77 17.66 53.41 18 52.56 18.94 51.77L19.36 51.4C19.9736609 50.7897174 20.6746601 50.2740786 21.44 49.87L21.59 49.87C21.7053404 49.894878 21.8246596 49.894878 21.94 49.87 22.7024006 50.2567234 23.3978883 50.7631465 24 51.37L24.43 51.74C25.37 52.56 25.72 53.36 25.64 53.74 25.56 54.12 25.13 54.37 24.75 54.5zM30.28 52.73C28.62 53.51 27.9 53.06 27.28 52.09L27.28 52.09C26.905763 51.3783217 26.3962407 50.7465141 25.78 50.23L25.38 49.88C24.97 49.51 24.57 49.18 24.2 48.88 24.9340946 48.3694384 25.7349347 47.9622886 26.58 47.67 27.4058589 47.300699 28.2883751 47.0741527 29.19 47 30.5341388 47.8216272 31.4623073 49.1793011 31.74 50.73 31.78 51.27 31.66 52.08 30.28 52.73zM37.19 45.48C36.9759313 45.944924 36.7001097 46.3788384 36.37 46.77 34.74 48.77 33.76 49.13 33.5 49.1 33.5 49.1 33.37 48.97 33.32 48.86L33.32 48.86C32.7866479 47.6424507 31.9666582 46.5720039 30.93 45.74 31.2027389 45.5562313 31.4904144 45.3956682 31.79 45.26 31.9933364 45.1974909 32.1907671 45.1171801 32.38 45.02 32.779293 44.890673 33.1919026 44.8068093 33.61 44.77 34.17 44.72 34.66 44.63 35.1 44.55 35.4467155 44.4610373 35.802214 44.410731 36.16 44.4 36.5311694 44.3733971 36.9029702 44.4422491 37.24 44.6 37.3152192 44.6310142 37.3684556 44.699461 37.38 44.78 37.3769915 45.0256617 37.3116127 45.2665309 37.19 45.48L37.19 45.48z"/>
      <path id="Path" fill="#3D454C" fill-rule="nonzero" d="M18.19 18.8C18.7422847 18.8 19.19 18.3522847 19.19 17.8 19.19 17.2477153 18.7422847 16.8 18.19 16.8 17.6377153 16.8 17.19 17.2477153 17.19 17.8 17.19 18.3522847 17.6377153 18.8 18.19 18.8zM21.72 44.56C21.1677153 44.56 20.72 45.0077153 20.72 45.56 20.72 46.1122847 21.1677153 46.56 21.72 46.56 22.2722847 46.56 22.72 46.1122847 22.72 45.56 22.72 45.0077153 22.2722847 44.56 21.72 44.56zM21.72 37.61C22.2722847 37.61 22.72 37.1622847 22.72 36.61 22.72 36.0577153 22.2722847 35.61 21.72 35.61 21.1677153 35.61 20.72 36.0577153 20.72 36.61 20.72 37.1622847 21.1677153 37.61 21.72 37.61zM21.72 26.25C21.1677153 26.25 20.72 26.6977153 20.72 27.25 20.72 27.8022847 21.1677153 28.25 21.72 28.25 22.2722847 28.25 22.72 27.8022847 22.72 27.25 22.72 26.6977153 22.2722847 26.25 21.72 26.25z"/>
    </g>
  </g>
</svg>
