<svg xmlns="http://www.w3.org/2000/svg" width="64" height="64" viewBox="0 0 64 64" style="background:#fff">
  <g id="Pistazien" fill="none" fill-rule="evenodd" stroke="none" stroke-width="1">
    <rect width="64" height="64" fill="#FFF"/>
    <g transform="translate(2 4)">
      <rect id="Rectangle" width="60" height="60" x="0" y="0"/>
      <path id="Path" fill="#E0A075" fill-rule="nonzero" d="M33.89,7.66 C27.26,8.76 19.53,9.59 14.37,14.33 C8.51,19.72 5.6,28.69 6.37,36.49 C6.69,39.71 7.96,44.78 12.09,44.760059 C16.09,44.760059 17.49,39.26 17.4,36.22 C17.06,23.88 33.22,23.34 35.9,12.63 C36.22,11.38 36.25,7.27 33.89,7.66 Z" opacity=".5"/>
      <path id="Path" fill="#E0A075" fill-rule="nonzero" d="M50.4,24.9 C46.13,24.61 43.89,29.82 41.45,32.62 C38.77,35.69 35.89,38.77 32.34,40.84 C26.34,44.32 18.23,44.71 11.55,43.54 C10.89,43.42 10.96,44.63 11.06,44.95 C18.55,69.19 53.33,48 54,30.12 C54.09,28 52.81,25.07 50.4,24.9 Z" opacity=".5"/>
      <path id="Path" fill="#31E085" fill-rule="nonzero" d="M46.5,7.35 C36.19,8 34.07,18.82 29.4,26.07 C27.17,29.54 24.03,32.17 21.75,35.54 C20.92,36.77 19.23,39.48 20.62,40.9 C24.39,44.72 30.85,40.5 34.21,37.9 C36.4169831,36.0806265 38.3148679,33.9159573 39.83,31.49 C41.71,28.68 43,24.56 46.92,24.32 C54.47,23.83 54,6.89 46.5,7.35 Z" opacity=".5"/>
      <path id="Shape" fill="#3D454C" fill-rule="nonzero" d="M52.63,23.29 C52.6590104,22.8422151 52.5118793,22.4008217 52.22,22.06 C51.8932472,21.7397314 51.3908078,21.6820745 51,21.92 C50.9274287,21.9654079 50.8631671,22.0229051 50.81,22.09 C49.9506785,22.5261905 49.1618543,23.0891548 48.47,23.76 C49.9,19.59 51.23,13.76 48.66,11.33 C46.8,9.59 42.83,9.64 36.88,11.45 C36.977424,10.4510683 36.8227021,9.44365632 36.43,8.52 C36.2197992,8.05527842 35.8703451,7.66738437 35.43,7.41 C35.0361531,7.19564637 34.5789242,7.12830259 34.14,7.22 C33.0779863,7.5144259 32.1646997,8.19582333 31.58,9.13 C31.5386937,9.1839293 31.4833379,9.22544614 31.42,9.25 L31.42,9.25 C28.8322313,9.76879537 26.3308093,10.650858 23.99,11.87 C18.6596471,14.6328124 14.1697326,18.7773489 10.99,23.87 C4.32,34.59 6.61,43.37 10.94,48 C14.1512136,51.3873955 18.6435154,53.2613063 23.31,53.16 C27.0981236,53.1046546 30.8181481,52.1446482 34.16,50.36 C39.8410922,47.2319389 44.560681,42.6126198 47.81,37 C49.0585959,34.9118591 50.1258385,32.720499 51,30.45 C51.67,28.7 52.78,25.44 52.63,23.29 Z M47.25,12.79 C48.93,14.35 48,20.3 45,27 C40.6412839,30.7682611 35.9561734,34.1415407 31,37.08 C26.71,39.62 20.41,43 14.54,44.42 C14.4236795,44.4577745 14.2964944,44.4126443 14.23,44.31 C14.1859918,44.2492023 14.1647541,44.1748703 14.17,44.1 C14.1857153,44.0242423 14.2283459,43.9567438 14.29,43.91 C19.7509746,39.9631503 24.576684,35.2048862 28.6,29.8 C32.2399409,24.9762056 34.9247389,19.50139 36.51,13.67 L36.51,13.67 C41.94,11.9 45.94,11.57 47.25,12.79 Z M49.13,29.73 C48.3101225,31.8790786 47.3064024,33.9534334 46.13,35.93 C43.0759439,41.2576017 38.6170441,45.6438585 33.24,48.61 C25.43,52.61 17.24,51.89 12.41,46.67 C7.58,41.45 7.59,33.09 12.59,25 C15.5759227,20.1782899 19.8127632,16.2559294 24.85,13.65 C26.9962695,12.5302332 29.2884084,11.7156992 31.66,11.23 L31.74,11.23 C32.3263675,11.1217852 32.8449748,10.7832498 33.18,10.29 C33.4988612,9.82118443 33.9236646,9.43406519 34.42,9.16 C34.4902098,9.23327153 34.5476692,9.31777072 34.59,9.41 C34.78,9.78 35.14,10.9 34.59,13.2 C33.0725244,18.7792702 30.4956812,24.014438 27,28.62 C23.096843,33.8635042 18.4123528,38.4771705 13.11,42.3 C12.6199616,42.6561803 12.2918212,43.1927404 12.1980124,43.7912402 C12.1042037,44.38974 12.2524401,45.0009673 12.61,45.49 C13.1710457,46.260781 14.1509278,46.6033414 15.07,46.35 C21.13,44.84 27.62,41.41 32,38.8 C38.0112225,35.2937711 43.5981169,31.1061169 48.65,26.32 C49.2574313,25.6883821 49.905478,25.097123 50.59,24.55 C50.2999951,26.3261469 49.8102215,28.0638369 49.13,29.73 Z"/>
      <path id="Path" fill="#3D454C" fill-rule="nonzero" d="M16.16 37.74C16.4472272 37.7396363 16.7204302 37.6157843 16.91 37.4 18.16 35.99 19.28 34.75 20.31 33.62 25.76 27.62 28.49 24.62 32.56 14.96 32.7296468 14.6257904 32.6981649 14.2247757 32.4784432 13.9211337 32.2587215 13.6174917 31.8876542 13.4622081 31.5171585 13.5188569 31.1466629 13.5755058 30.8389503 13.834575 30.72 14.19 26.78 23.51 24.12 26.44 18.83 32.28 17.83 33.41 16.67 34.66 15.41 36.08 15.1509443 36.3748776 15.0883519 36.7940403 15.2499607 37.1517346 15.4115696 37.5094289 15.7674922 37.7395035 16.16 37.74L16.16 37.74zM41.39 35C38.5985109 38.8881395 34.7443307 41.88815 30.29 43.64 29.11 44.11 29.63 46.04 30.82 45.57 35.7613273 43.6403433 40.0348476 40.315336 43.12 36 43.88 35 42.14 34 41.39 35zM26.29 44.11C25.7377153 44.11 25.29 44.5577153 25.29 45.11 25.29 45.6622847 25.7377153 46.11 26.29 46.11 26.8422847 46.11 27.29 45.6622847 27.29 45.11 27.29 44.5577153 26.8422847 44.11 26.29 44.11z"/>
    </g>
  </g>
</svg>
