<svg xmlns="http://www.w3.org/2000/svg" width="64" height="64" viewBox="0 0 64 64" style="background:#fff">
  <g id="Pommes" fill="none" fill-rule="evenodd" stroke="none" stroke-width="1">
    <rect width="64" height="64" fill="#FFF"/>
    <g transform="translate(2 4)">
      <rect id="Rectangle" width="60" height="60" x="0" y="0"/>
      <path id="Path" fill="#E05362" fill-rule="nonzero" d="M43.72,42.92 C41.19,39.52 38.88,39.02 34.39,39.03 C32.48,39.03 30.57,39.19 28.67,39.28 L24.86,39.44 C24.64,39.44 24.46,39.44 24.31,39.44 L24.31,39.44 C23.9654102,38.7214841 23.6810994,37.9755863 23.46,37.21 C22.93,35.66 22.54,34.08 22.16,32.49 C21.265255,29.248793 20.1355992,26.0770672 18.78,23 C17.19,18.91 13.94,20.93 13.12,24 C11.87,28.71 12.6,33.8 13.33,38.55 C13.99,42.84 14.33,48.28 17.13,52.01 C19.73,55.5 23.67,56.07 28.13,56.23 C30.95,56.34 33.89,56.65 36.72,56.49 C40.41,56.28 42.07,55.12 43.97,52.49 C45.9110899,49.5658803 45.8111135,45.7387853 43.72,42.92 Z" opacity=".5"/>
      <path id="Path" fill="#EBE53F" fill-rule="nonzero" d="M40.78,10.32 C39.482626,9.2167272 37.567065,9.25101017 36.31,10.4 L36.31,10.33 C36.17,7.72 35.12,3.92 32.08,3.42 C29.21,2.94 27.32,6.16 27.08,8.65 C26.96,9.8 26.85,11.08 26.77,12.41 C25.99,10.73 24.94,9.23 23.16,8.75 C20.59,8.06 19.05,9.89 18.16,12.05 C16.41,16.12 17.79,20.7 19.87,24.32 C21.09,26.44 22.71,28.94 25.22,29.56 C26.9347683,30.049343 28.7470428,29.1944965 29.46,27.56 C30.22,28.56 31.91,29.27 32.9,28.08 L33.02,27.92 C33.95,30.07 35.74,32 37.83,29.92 C40.53,27.05 42.63,21.93 43,18 C43.32,15.44 43,12.11 40.78,10.32 Z" opacity=".5"/>
      <path id="Shape" fill="#3D454C" fill-rule="nonzero" d="M47,21.13 C46.808611,20.917924 46.5356593,20.7978253 46.25,20.8 L40.16,20.8 C39.6077153,20.8 39.16,21.2477153 39.16,21.8 L39.16,23.8 C39.1545111,25.5042811 37.7742811,26.8845111 36.07,26.89 L28.9,26.89 L28.9,7.48 L34.05,7.48 L34.05,21.8 C34.05,22.3522847 34.4977153,22.8 35.05,22.8 C35.6022847,22.8 36.05,22.3522847 36.05,21.8 L36.05,11.7 L41.46,12.35 L40.64,16.57 C40.5360885,17.11103 40.889337,17.6341955 41.43,17.74 L41.63,17.74 C42.1158642,17.7488364 42.5377509,17.4071082 42.63,16.93 L43.63,11.65 C43.6811935,11.3808828 43.6197427,11.1025469 43.46,10.88 C43.2973427,10.6529784 43.0471612,10.5043198 42.77,10.47 L36.06,9.66 L36.06,6.48 C36.06,5.92771525 35.6122847,5.48 35.06,5.48 L27.9,5.48 C27.3477153,5.48 26.9,5.92771525 26.9,6.48 L26.9,26.93 L25.9,26.93 C24.1957189,26.9245111 22.8154889,25.5442811 22.81,23.84 L22.81,21.84 C22.81,21.2877153 22.3622847,20.84 21.81,20.84 L19.16,20.84 L16.83,12.18 L21.83,9.89 L22.83,13.89 C22.9629088,14.4254504 23.5043509,14.7521055 24.04,14.62 C24.5754504,14.4870912 24.9021055,13.9456491 24.77,13.41 L23.5,8.2 C23.4365208,7.9180916 23.2541975,7.67742487 23,7.54 C22.730766,7.41359113 22.419234,7.41359113 22.15,7.54 L15.27,10.69 C14.8253205,10.893128 14.5926933,11.3879896 14.72,11.86 L17.13,20.86 L14.62,20.86 C14.3326202,20.8579224 14.0582376,20.9795851 13.8668331,21.1939581 C13.6754286,21.4083311 13.585506,21.6946903 13.62,21.98 L17.72,54.6 C17.7810234,55.1049651 18.2113743,55.4836739 18.72,55.4800265 L42.62,55.4800265 C43.1320317,55.4831062 43.5636849,55.0989349 43.62,54.59 L47.3,21.91 C47.3186427,21.618675 47.2090557,21.3337488 47,21.13 Z M41.71,53.48 L19.59,53.48 L15.76,22.8 L20.76,22.8 L20.76,23.8 C20.76,26.6111294 23.0388706,28.89 25.85,28.89 L36.07,28.89 C38.8811294,28.89 41.16,26.6111294 41.16,23.8 L41.16,22.8 L45.16,22.8 L41.71,53.48 Z"/>
      <path id="Path" fill="#3D454C" fill-rule="nonzero" d="M23.68 42.85L21.82 32.19C21.6 30.92 19.67 31.46 19.89 32.72L21.75 43.39C22 44.65 23.9 44.12 23.68 42.85zM23.82 46.38C23.2677153 46.38 22.82 46.8277153 22.82 47.38 22.82 47.9322847 23.2677153 48.38 23.82 48.38 24.3722847 48.38 24.82 47.9322847 24.82 47.38 24.82 46.8277153 24.3722847 46.38 23.82 46.38z"/>
    </g>
  </g>
</svg>
