<svg xmlns="http://www.w3.org/2000/svg" width="64" height="64" viewBox="0 0 64 64" style="background:#fff">
  <g id="Portulak" fill="none" fill-rule="evenodd" stroke="none" stroke-width="1">
    <rect width="64" height="64" fill="#FFF"/>
    <g transform="translate(2 6)">
      <rect id="Rectangle" width="60" height="60" x="0" y="0"/>
      <path id="Path" fill="#31E085" fill-rule="nonzero" d="M27.16 19.44C24.33 13.44 16.83 8.71 10.09 10.93 7.2 11.93 7.54 17.57 9.58 19.14 11.62 20.71 13.92 21.93 15.85 23.69 17.78 25.45 19.21 27.54 21.11 29.17 23.01 30.8 25.42 29.87 26.65 27.94 28.1452135 25.3439165 28.334074 22.1962407 27.16 19.44zM50.75 21.73C50.5125836 16.9702559 46.5137068 13.2735164 41.75 13.41 36.18 13.41 32.28 17.41 31.31 22.69 30.87 25.1 31.61 30.83 34.81 31.4 38.41 32.05 40.95 29.7 44.18 28.45 47.41 27.2 51.09 25.9 50.75 21.73zM28.29 32.76C19.4 34 17.79 45 20.2 52.14 20.91 54.25 23.2 56.26 25.53 55.27 28.11 54.15 28.66 50.8 28.78 48.35 29 43.69 28.02 38.98 29.08 34.26 29.18 33.83 29 32.67 28.29 32.76zM41.07 36.35C39.8314199 35.2367858 38.3082595 34.4890525 36.67 34.19 35.9655688 34.0298552 35.2270067 34.129277 34.59 34.47 34.02 34.81 33.59 35.66 32.94 35.79 32.69 35.84 32.69 36.19 32.8 36.36 33.1058052 37.0971056 33.2784784 37.8825992 33.31 38.68 33.4914561 39.4095586 33.760054 40.114628 34.11 40.78 34.75 42.14 35.55 43.38 36.21 44.72 37.63 47.62 38.62 52.1 42.37 52.52 43.91 52.69 45.01 50.84 45.46 49.68 47.27 45.06 44.85 39.31 41.07 36.35z" opacity=".5"/>
      <path id="Path" fill="#31E085" fill-rule="nonzero" d="M25.68,30.09 C21.51,22.61 8.76,27.49 6.88,34.44 C6.29,36.63 6.34,42.76 10.1,42.44 C13.25,42.13 15.48,39.15 18.26,37.8 C21.04,36.45 23.93,35.54 25.75,33.02 C26.2781785,32.1075386 26.2511498,30.9761976 25.68,30.09 Z" opacity=".5"/>
      <path id="Shape" fill="#3D454C" fill-rule="nonzero" d="M51.33,19.39 L51.33,19.39 C49.8729623,16.9213177 47.4707805,15.1549013 44.68,14.5 C42.164652,13.8990709 39.5128185,14.3621468 37.35,15.78 C32.6,18.89 31.68,21.64 30.7,24.56 C30.1797348,26.2821771 29.458079,27.9369506 28.55,29.49 C28.69,26.17 28.38,16.54 23.76,11.94 C19.76,7.94 13.95,7.37 10.76,10.59 C9.14166099,12.2802019 8.40237145,14.6274462 8.76,16.94 C9.10891192,19.499646 10.3102185,21.8670303 12.17,23.66 C14.3179887,25.5021799 16.8440635,26.8505577 19.57,27.61 C20.23,27.83 20.89,28.06 21.57,28.31 C18.8483512,27.6470375 16.0030528,27.6848831 13.3,28.42 C11.3240306,28.9917455 9.62447281,30.2646361 8.52,32 C7.45337991,33.6246518 7.15704116,35.6368284 7.71,37.5 C8.3696835,39.5414768 9.96316983,41.1461064 12,41.82 C12.1092928,41.8584466 12.2241493,41.8787154 12.34,41.88 C12.7636174,41.8783124 13.1402085,41.6098911 13.28,41.21 C13.4610063,40.6938158 13.1936842,40.127984 12.68,39.94 C11.2459066,39.4789478 10.1146917,38.3662773 9.63,36.94 C9.21830386,35.6064768 9.43148511,34.1583145 10.21,33 C11.0598195,31.6942876 12.3465934,30.7336382 13.84,30.29 C17.39,29.21 21.92,29.89 26.12,32.07 C22.4054658,33.6379875 19.2339424,36.2635359 17,39.62 C13.45,45.71 16.1,51.05 20.06,53.42 C21.209359,54.1265938 22.5308296,54.5036627 23.88,54.51 C24.6835068,54.51 25.4812568,54.3744467 26.24,54.11 C28.66316,53.2056538 30.562823,51.2767089 31.43,48.84 C32.71,45.49 31.88,39.84 30.48,35.84 L30.17,34.84 C30.07,34.49 29.96,34.15 29.85,33.84 L30.85,34.44 C30.8462352,34.4698819 30.8462352,34.5001181 30.85,34.53 C31.9457074,36.6200299 32.644191,38.8951875 32.91,41.24 C33.44,44.24 34,47.37 36.29,49.48 C37.6031803,50.9480647 39.3977454,51.8985458 41.35,52.16 C41.645025,52.199544 41.9423369,52.2195875 42.24,52.22 C43.8011602,52.2382839 45.3117475,51.6669034 46.47,50.62 C49.22,48.11 49.12,43.52 46.25,40.38 C44.25,38.14 40.17,35.11 32.59,33.21 C31.8333827,32.68603 31.0415008,32.2149104 30.22,31.8 C32.12,31.52 33.71,32.17 35.5,32.92 C37.422247,33.8744494 39.5253455,34.4095977 41.67,34.49 C43.7281074,34.4290313 45.7482484,33.9205837 47.59,33 C49.9426981,31.6872026 51.6661423,29.4806172 52.37,26.88 C53.0508455,24.3454456 52.6756303,21.6431746 51.33,19.39 Z M13.5,22.2 C10.31,19 9.71,14.44 12.15,12 C13.1812988,11.0055706 14.5677749,10.4653852 16,10.5 C18.4007199,10.5890453 20.6718784,11.6116048 22.33,13.35 C26.04,17.05 26.58,25.12 26.5701345,28.57 C24.554878,27.3579658 22.3988053,26.3974723 20.15,25.71 C17.7015843,25.0447911 15.4306556,23.8461505 13.5,22.2 L13.5,22.2 Z M29.5,48.13 C28.8352903,50.0166457 27.3713911,51.5134827 25.5,52.22 C23.9957792,52.730553 22.3422251,52.5435657 20.99,51.71 C17.74,49.71 15.75,45.58 18.63,40.63 C20.3864012,38.0616625 22.7587316,35.9746993 25.53,34.56 C24.121655,37.3485059 23.0121519,40.2781304 22.22,43.3 C22.1547589,43.5657239 22.2012486,43.8465749 22.3486349,44.0771022 C22.4960213,44.3076296 22.7314298,44.4676964 23,44.52 C23.086388,44.5298286 23.173612,44.5298286 23.26,44.52 C23.7248688,44.5359235 24.1393359,44.2292179 24.26,43.78 C25.0948099,40.539378 26.3522622,37.4226446 28,34.51 C28.11,34.81 28.21,35.15 28.29,35.42 C28.37,35.69 28.5,36.11 28.62,36.42 C29.81,40.07 30.64,45.26 29.54,48.13 L29.5,48.13 Z M44.8,41.71 C46.92,44.03 47.08,47.36 45.14,49.12 C44.1714162,49.9558693 42.8833735,50.3217905 41.62,50.12 C40.1147993,49.8982533 38.7367142,49.1507573 37.73,48.01 C35.87,46.29 35.4,43.64 34.9,40.83 C34.6824322,39.4827419 34.3953827,38.1476279 34.04,36.83 C35.9124659,38.5603583 37.4869037,40.5875313 38.7,42.83 C38.8732384,43.1553472 39.2114063,43.3590165 39.58,43.36 C39.7471778,43.3580497 39.9115724,43.316951 40.06,43.24 C40.2938677,43.1131631 40.4675519,42.8983615 40.5426217,42.643124 C40.6176916,42.3878865 40.587958,42.1132561 40.46,41.88 C39.3841872,39.8695097 38.0383752,38.0156537 36.46,36.37 C39.6234239,37.4649046 42.4817722,39.2950701 44.8,41.71 Z M50.44,26.4 C49.8917653,28.454527 48.5403956,30.2022985 46.69,31.25 C41.93,33.43 39.19,32.25 36.3,31.06 C34.9198996,30.397845 33.4458908,29.9526067 31.93,29.74 C37.26,22.74 42.16,23.11 42.39,23.14 C42.9361142,23.1985241 43.427218,22.8056411 43.49,22.26 C43.5546967,21.7136794 43.1659565,21.2177005 42.62,21.15 C42.39,21.15 37.62,20.63 32.21,26.3 C32.35,25.93 32.47,25.56 32.59,25.2 C33.53,22.4 34.28,20.2 38.45,17.45 C40.1553062,16.3312694 42.2479616,15.9692183 44.23,16.45 C46.495104,16.9910298 48.4395242,18.4366954 49.61,20.45 C50.6786748,22.239918 50.9780376,24.3859524 50.44,26.4 L50.44,26.4 Z"/>
      <path id="Path" fill="#3D454C" fill-rule="nonzero" d="M17.78 17.45L17.78 17.58C17.78 18.1322847 18.2277153 18.58 18.78 18.58 19.3322847 18.58 19.78 18.1322847 19.78 17.58L19.78 17.45C19.78 16.8977153 19.3322847 16.45 18.78 16.45 18.2277153 16.45 17.78 16.8977153 17.78 17.45zM22.4 46.07C21.8477153 46.07 21.4 46.5177153 21.4 47.07 21.4 47.6222847 21.8477153 48.07 22.4 48.07 22.9522847 48.07 23.4 47.6222847 23.4 47.07 23.4 46.5177153 22.9522847 46.07 22.4 46.07z"/>
    </g>
  </g>
</svg>
