<svg xmlns="http://www.w3.org/2000/svg" width="64" height="64" viewBox="0 0 64 64" style="background:#fff">
  <g id="Portwein" fill="none" fill-rule="evenodd" stroke="none" stroke-width="1">
    <rect width="64" height="64" fill="#FFF"/>
    <g transform="translate(2 3)">
      <rect id="Rectangle" width="60" height="60" x="0" y="0"/>
      <path id="Path" fill="#C17953" fill-rule="nonzero" d="M27.83 32.11C27.28 28.5 26.01 24.69 22.05 23.71 17.9 22.71 14.05 25.41 12.79 29.18 12.6804981 29.535717 12.639772 29.9090397 12.67 30.28 12.6492706 30.3146807 12.632499 30.3515783 12.62 30.39 10.71 35.17 11 42.7 11.36 47.77 11.72 52.84 14.51 58.91 20.28 59.45 34 60.74 28.93 39.41 27.83 32.11zM46 29C44.07 29 42.14 29.34 40.19 29.35 38.2346664 29.3546059 36.2871101 29.5963715 34.39 30.07 31.12 30.87 31.46 37.85 33.81 39.42 37.4971175 41.8198242 41.9535553 42.7411071 46.29 42 49.29 41.4 50.46 38.26 50.39 35.41 50.33 32.91 49.05 29.06 46 29z" opacity=".5"/>
      <path id="Shape" fill="#3D454C" fill-rule="nonzero" d="M24.12 18.87L24.12 9.87C24.1232828 9.84678213 24.1232828 9.82321787 24.12 9.8 24.1246522 9.76682899 24.1246522 9.73317101 24.12 9.7 24.1085768 9.22502497 23.8892239 8.77900748 23.52 8.48L23.52 5.82C23.52 4.72 22.3 3.98 20.52 3.98 18.74 3.98 17.52 4.72 17.52 5.82L17.52 8.45C17.1507761 8.74900748 16.9314232 9.19502497 16.92 9.67 16.92 9.67 16.92 9.74 16.92 9.77 16.92 9.8 16.92 9.82 16.92 9.84L16.92 18.84C15.02 19.61 12.3799924 21.84 12.3799924 26.31L12.3799924 53.2C12.3773428 54.5136592 13.0695796 55.7307787 14.2 56.4 16.1181503 57.480519 18.2886921 58.0326441 20.49 58 22.7097383 58.0494438 24.9022598 57.503903 26.84 56.42 27.9704204 55.7507787 28.6626572 54.5336592 28.6600076 53.22L28.6600076 26.34C28.6600076 21.85 26 19.64 24.12 18.87zM19.46 11.68C20.1434927 11.7733687 20.8365073 11.7733687 21.52 11.68L21.52 12.57C20.849855 12.7830247 20.130145 12.7830247 19.46 12.57L19.46 11.68zM21.52 7.56L21.52 9.64C21.1915622 9.7123387 20.8563088 9.74921657 20.52 9.75 20.1836563 9.74984348 19.8483355 9.71295819 19.52 9.64L19.52 7.56C20.2014259 7.67997721 20.8985741 7.67997721 21.58 7.56L21.52 7.56zM25.83 54.67C24.201529 55.584314 22.3570774 56.0436999 20.49 56 18.6246058 56.0512801 16.7798846 55.5987361 15.15 54.69 14.6308908 54.3831672 14.3145978 53.8229855 14.3199319 53.22L14.3199319 46.68C16.2921855 47.410949 18.387902 47.7506113 20.49 47.68 22.5920329 47.7495888 24.6875534 47.4099582 26.6600681 46.68L26.6600681 53.2C26.6654022 53.8029855 26.3491092 54.3631672 25.83 54.67L25.83 54.67zM26.66 27.92C26.55 28.1 25.77 28.74 23.42 29.1 22.8677153 29.1414214 22.4535787 29.6227153 22.495 30.175 22.5364214 30.7272847 23.0177153 31.1414213 23.57 31.1L23.73 31.1C24.7382903 30.9667631 25.7239053 30.6976532 26.66 30.3L26.66 44.3C26.44 44.71 24.33 45.7 20.49 45.7 16.65 45.7 14.49 44.7 14.32 44.35L14.32 30.28C14.869862 30.5233208 15.4427243 30.7109248 16.03 30.84 16.1097099 30.8496348 16.1902901 30.8496348 16.27 30.84 16.7436615 30.8526631 17.1611882 30.5311676 17.27 30.07 17.3952036 29.534579 17.0646344 28.9985208 16.53 28.87 15.7295326 28.7798405 14.9671173 28.4797042 14.32 28L14.32 26.34C14.32 21.54 17.93 20.6 18.08 20.57 18.5451526 20.4652458 18.8716496 20.0466599 18.86 19.57L18.86 14.48C19.9211161 14.8132563 21.0588839 14.8132563 22.12 14.48L22.12 19.59C22.1073369 20.0636615 22.4288324 20.4811882 22.89 20.59 23.04 20.59 26.66 21.59 26.66 26.37L26.66 27.92zM41.84 50.94L41.84 41.81C44.97 41.61 47.25 40.48 48.63 38.41 51.92 33.41 48.56 25 48.23 24.19 47.73 21.93 42.02 21.81 40.84 21.81 39.66 21.81 33.94 21.93 33.45 24.19 33.11 25 29.75 33.45 33.05 38.41 34.42 40.48 36.7 41.61 39.84 41.81L39.84 50.94C36.06 51.11 32.34 52.22 32.34 54.45 32.34 56.87 36.74 57.98 40.84 57.98 44.94 57.98 49.33 56.87 49.33 54.45 49.33 52.22 45.61 51.11 41.84 50.94zM34.84 26.24C36.7626621 26.9349903 38.7958633 27.2738572 40.84 27.24 42.88422 27.2749781 44.9176226 26.9360776 46.84 26.24 47.1649718 27.224341 47.4353828 28.2258633 47.65 29.24 45.4390706 28.5901584 43.1443665 28.2700455 40.84 28.29 38.5323053 28.2693529 36.2342022 28.5894698 34.02 29.24 34.2346172 28.2258633 34.5050282 27.224341 34.83 26.24L34.84 26.24zM40.84 23.81C42.5335852 23.7576541 44.2238921 23.9909165 45.84 24.5 44.2259503 25.0189599 42.5345107 25.2557614 40.84 25.2 39.1455105 25.2553617 37.4541391 25.0185697 35.84 24.5 37.4561916 23.991289 39.1464351 23.7580354 40.84 23.81zM34.71 37.3C33.9890002 36.1091985 33.6117342 34.7420418 33.619867 33.35 34.9028287 33.848802 36.2492768 34.1652173 37.62 34.29 37.8839182 34.3179908 38.1481387 34.2399209 38.3544619 34.0729866 38.5607851 33.9060524 38.6922864 33.6639475 38.72 33.4 38.7785241 32.8538858 38.3856411 32.362782 37.84 32.3 36.5367383 32.2178119 35.2592877 31.8992964 34.07 31.36 34.84 30.91 37.17 30.27 40.83 30.27 44.49 30.27 46.83 30.91 47.58 31.36 46.3631402 31.9303432 45.0508348 32.2694402 43.71 32.36 43.1577153 32.3903757 42.7346243 32.8627153 42.765 33.415 42.7953757 33.9672847 43.2677153 34.3903757 43.82 34.36L43.92 34.36C45.3330238 34.2505624 46.7217258 33.9303519 48.04 33.41 48.0523776 34.7769691 47.6928913 36.1215861 47 37.3 45.88 38.99 43.82 39.85 40.88 39.85 37.94 39.85 35.84 39 34.71 37.3zM40.84 56C36.66 56 34.49 54.88 34.34 54.5 34.48 54.1 36.24 53.17 39.6 52.98 39.4236777 53.2415469 39.1499792 53.4216117 38.84 53.48 38.2877153 53.5269442 37.8780558 54.0127153 37.925 54.565 37.9719442 55.1172847 38.4577153 55.5269442 39.01 55.48L39.2 55.48C39.8183359 55.3640376 40.388773 55.0683842 40.84 54.63 41.2874491 55.0681142 41.8546363 55.3638867 42.47 55.48L42.66 55.48C43.2122847 55.5297056 43.7002943 55.1222847 43.7499999 54.57 43.7997056 54.0177153 43.3922847 53.5297057 42.84 53.48 42.5259307 53.4252032 42.2478241 53.2446144 42.07 52.98 45.43 53.17 47.19 54.1 47.33 54.44 47.18 54.86 45 56 40.84 56z"/>
      <path id="Path" fill="#3D454C" fill-rule="nonzero" d="M19.82,29.38 C19.2677153,29.38 18.82,29.8277153 18.82,30.38 C18.82,30.9322847 19.2677153,31.38 19.82,31.38 C20.3722847,31.38 20.82,30.9322847 20.82,30.38 C20.82,29.8277153 20.3722847,29.38 19.82,29.38 Z"/>
    </g>
  </g>
</svg>
