<svg xmlns="http://www.w3.org/2000/svg" width="64" height="64" viewBox="0 0 64 64" style="background:#fff">
  <g id="Prinzessbohnen" fill="none" fill-rule="evenodd" stroke="none" stroke-width="1">
    <rect width="64" height="64" fill="#FFF"/>
    <g transform="translate(2 4)">
      <rect id="Rectangle" width="60" height="60" x="0" y="0"/>
      <path id="Path" fill="#31E085" fill-rule="nonzero" d="M52.53 43.68C51.34 39.35 49.36 36.13 47.48 32.14 45.88 28.73 45.8 24.74 44.03 21.46 43.31 20.13 42.03 19.46 41.25 18.28 41.02 17.93 40.67 15.56 40.33 14.55 39.41 11.79 37.66 8.15 34.57 7.55 32.4 7.11 31.7 9.87 32.09 11.55 32.54 13.55 33.47 15.27 33.96 17.22 34.45 19.17 34.26 20.91 34.72 22.7 35.53 25.77 37.95 27.1 38.46 29.95 39.61 36.37 42.3 46.81 49.66 48.34 52.11 48.81 53.06 45.6 52.53 43.68zM48.36 52.43C46.42 48.85 42.73 45.75 39.71 43.04 35.71 39.47 34.71 35.67 32.47 31.04 30.53 27.04 27.55 24.04 24.3 21.12 21.57 18.65 18.15 14.4 14.18 15.46 13.4 15.66 13.34 17.01 13.44 17.59 14.38 22.79 18.62 26.48 21.86 30.44 25.41 34.77 26.99 38.82 28.86 44 30.2054448 47.9783116 32.5626288 51.5382108 35.7 54.33 38.38 56.68 43.26 59.17 46.89 58.33 49.52 57.74 49.37 54.31 48.36 52.43z" opacity=".5"/>
      <path id="Shape" fill="#3D454C" fill-rule="nonzero" d="M45.64 51.51C44.2317986 49.2859481 42.2058309 47.5206109 39.81 46.43 39.36 45.08 37.94 41.43 35.14 39.26 34.78 37.8 33.57 33.72 30.94 31.86 30.3658873 28.702869 28.5690776 25.8998459 25.94 24.06 24.7564164 21.4058332 22.5706119 19.3278809 19.86 18.28 18.2967039 16.9172673 16.4268038 15.9531537 14.41 15.47 13.9780102 15.3708513 13.5265734 15.398632 13.11 15.55 12.19 14.87 10.27 13.95 7.11 14.55 6.75273441 14.6196668 6.45977417 14.8746405 6.34147458 15.218875 6.223175 15.5631094 6.29750858 15.9443073 6.53647458 16.218875 6.77544059 16.4934426 7.14273441 16.6196668 7.5 16.55 8.92829979 16.1342123 10.4630284 16.299546 11.77 17.01 11.6755718 17.3910341 11.7254387 17.793531 11.91 18.14 12.809298 19.8077289 14.2527524 21.1170726 16 21.85 16.6464237 24.2679037 18.3152431 26.283633 20.57 27.37 20.86 28.87 21.89 32.84 24.92 34.96 25.03 36.52 25.59 40.62 28.55 42.45 28.91 44.04 30.21 48.4 34.1 50.2 35.4427495 53.0642049 38.1765867 55.0256006 41.32 55.38 43.2148243 56.4154921 45.3517154 56.9264127 47.51 56.86 48.071361 56.8559968 48.6321279 56.8226179 49.19 56.76 49.8203937 56.6940866 50.3609071 56.2809799 50.59 55.69 50.7609855 55.2006008 50.6366235 54.6565171 50.27 54.29 49.0527103 52.9051256 47.4345215 51.9335134 45.64 51.51zM42.49 53.78C42.2470781 53.5872985 41.9570749 53.4630114 41.65 53.42 39.1198871 53.186851 36.909458 51.6139722 35.86 49.3 35.6922595 48.8999182 35.3719516 48.5832092 34.97 48.42 31.63 46.91 30.61 42.69 30.44 41.86 30.3408864 41.4043026 30.049049 41.01397 29.64 40.79 27.22 39.38 26.91 35.42 26.88 34.63 26.8414091 34.1261474 26.5670621 33.6701383 26.14 33.4 23.49 31.63 22.66 27.9 22.47 26.79 22.3558103 26.2491507 21.9813913 25.7998479 21.47 25.59 19.6543385 24.745887 18.3244999 23.1176636 17.86 21.17 17.7253192 20.6301992 17.3321379 20.1920829 16.81 20 15.5524562 19.4849247 14.4985833 18.5715682 13.81 17.4 13.8656942 17.3851536 13.9243058 17.3851536 13.98 17.4 15.6889235 17.8158633 17.2732148 18.6354426 18.6 19.79 18.7698361 19.9393472 18.9667205 20.0547621 19.18 20.13 21.4177262 21.0134309 23.2151554 22.7461526 24.18 24.95 24.3042806 25.241477 24.51333 25.4888521 24.78 25.66 27.0310099 27.2433632 28.5515387 29.6646792 29 32.38 29.0747692 32.8157015 29.3286519 33.2001525 29.7 33.44 32 35 33 39.08 33.23 39.88 33.3132305 40.2459712 33.5264226 40.5693125 33.83 40.79 36.44 42.72 37.73 46.48 37.96 47.22 38.1275717 47.685753 38.494247 48.0524283 38.96 48.22 41.0481689 49.1692646 42.8037562 50.72282 44 52.68 44.2815383 53.1193646 44.742607 53.4121066 45.26 53.48 46.2404119 53.7014864 47.1465954 54.1735287 47.89 54.85 46.0287698 54.9515603 44.1718706 54.5836191 42.49 53.78L42.49 53.78zM49.54 41.71C49.4423769 41.6130287 49.3944855 41.4767223 49.41 41.34 49.37155 39.032768 48.5697797 36.8032838 47.13 35 47.0712426 34.896942 47.0467313 34.7778869 47.06 34.66 47.1891244 32.2110673 46.3319604 29.8124489 44.68 28 44.6065022 27.8990615 44.5743107 27.7738723 44.59 27.65 44.7711215 25.1565583 43.7445234 22.7276867 41.83 21.12 41.7373572 21.0168605 41.7001257 20.8753809 41.73 20.74 41.8196232 18.5163714 40.7959991 16.3941324 39 15.08 38.9090981 14.990381 38.8585588 14.8676426 38.86 14.74 38.7131429 12.5724054 37.6148499 10.5808339 35.86 9.3 35.8067431 9.24784384 35.7687129 9.18215533 35.75 9.11 35.4597567 7.5817104 34.5127516 6.25809719 33.16 5.49 32.0415691 3.69502017 30.0058929 2.6849223 27.9 2.88 27.6303537 2.90498117 27.3823676 3.03825308 27.2127403 3.24934484 27.0431129 3.46043661 26.9663492 3.73129797 27 4 27.0677005 4.54595654 27.5636794 4.93469672 28.11 4.87 29.3663151 4.80207038 30.5673731 5.39312732 31.28 6.43 30.6543151 8.24085922 30.6933067 10.215256 31.39 12 31.4093941 12.0956939 31.4093941 12.1943061 31.39 12.29 31.2935049 14.440609 32.1408674 16.5261434 33.71 18 33.7863031 18.0846707 33.825868 18.1961718 33.82 18.31 33.8401728 20.4593261 34.6933603 22.5170138 36.2 24.05 36.2790332 24.1406148 36.3154399 24.260757 36.3 24.38 36.2807967 26.5914882 37.0865791 28.7307336 38.56 30.38 38.6255669 30.4584735 38.661021 30.5577451 38.66 30.66 38.7113131 33.1752398 39.7031756 35.5799711 41.44 37.4 41.5032413 37.4713321 41.5356078 37.5648356 41.53 37.66 41.5618622 40.6496147 42.8678879 43.4835813 45.12 45.45 46.4529276 47.472683 48.6979898 48.7074671 51.12 48.75 51.5410412 48.7591891 51.9614239 48.7121062 52.37 48.61 52.8152375 48.4854894 53.117082 48.0720038 53.1 47.61 52.93 44.94 50.79 42.77 49.54 41.71zM46.72 44.26C46.6104452 44.1238313 46.4900524 43.99675 46.36 43.88 44.5710725 42.3021695 43.5413413 40.0353054 43.53 37.65 43.5309246 37.0373759 43.2985073 36.4473934 42.88 36 41.4949328 34.5462921 40.7031389 32.6274403 40.66 30.62 40.6531137 30.0419582 40.4403801 29.4853053 40.06 29.05 38.9254655 27.7945399 38.2981686 26.1621422 38.3 24.47 38.342443 23.8009685 38.1031326 23.144678 37.64 22.66 36.4948682 21.4990913 35.8427664 19.9404961 35.82 18.31 35.8285386 17.6578198 35.5723705 17.0300277 35.11 16.57 33.9680747 15.494652 33.3480154 13.9773304 33.41 12.41 33.4470358 12.001355 33.3853017 11.5897944 33.23 11.21 32.8308101 10.1599576 32.7507934 9.01537099 33 7.92 33.3927679 8.37386565 33.6614692 8.92160292 33.78 9.51 33.8829375 10.0670121 34.1939876 10.5639772 34.65 10.9 35.9242723 11.8283734 36.7281912 13.2681191 36.85 14.84 36.8692973 15.5564535 37.2064764 16.2271466 37.77 16.67 39.0835553 17.5677364 39.8399441 19.0805139 39.77 20.67 39.7120342 21.4246625 40.0075679 22.1634967 40.57 22.67 42.0110742 23.8469207 42.7843677 25.6550081 42.64 27.51 42.5739752 28.1737501 42.7836967 28.8354577 43.22 29.34 44.4940943 30.7305783 45.1725906 32.5650314 45.11 34.45 45.0518411 35.06296 45.2228471 35.6757316 45.59 36.17 46.7590582 37.6209237 47.4164086 39.4172127 47.46 41.28 47.4031073 42.0406866 47.7112168 42.783119 48.29 43.28 49.4561017 44.2086874 50.3649686 45.4205099 50.93 46.8 49.2062526 46.6595946 47.6479469 45.7194291 46.72 44.26L46.72 44.26z"/>
    </g>
  </g>
</svg>
