<svg xmlns="http://www.w3.org/2000/svg" width="64" height="64" viewBox="0 0 64 64" style="background:#fff">
  <g id="Quark" fill="none" fill-rule="evenodd" stroke="none" stroke-width="1">
    <rect width="64" height="64" fill="#FFF"/>
    <g transform="translate(2 6)">
      <rect id="Rectangle" width="60" height="60" x="0" y="0"/>
      <path id="Path" fill="#39A0D3" fill-rule="nonzero" d="M48,8.52 C44.47,10.14 41.32,14.09 38.66,16.89 C36,19.69 33,22.8 31.43,26.38 C31.25,26.81 31.43,28.03 32.16,27.74 C35.42,26.35 38.21,22.87 40.77,20.49 C43.64,17.82 47.25,15.4 49.54,12.23 C50.26,11.25 49.86,7.67 48,8.52 Z" opacity=".5"/>
      <path id="Path" fill="#CCC" fill-rule="nonzero" d="M53.79,30.57 C51.22,24.72 43.06,26.25 37.93,26 C35.08,25.87 33.61,29 33.52,32.33 C31.94,32.6 30.36,32.85 28.77,33.02 C25.6834928,33.4162364 22.5675453,33.5333773 19.46,33.37 C16.96,33.19 14.54,32.48 12.08,32.14 C11.5,31.14 11.52,31.48 12.85,30.91 C14.48,30.2 16.18,29.6 17.85,28.91 C19.3695587,28.3882281 20.8556824,27.773741 22.3,27.07 C23.72,26.32 24.98,25.17 26.54,24.72 C27.81,24.37 27.64,21.72 26.76,21.08 C24.21,19.19 21.43,21.42 18.76,22.21 C15.56,23.15 11.76,23.73 9.03,25.81 C5.34,28.61 5.66,35.09 9.03,37.71 C9.05753508,37.7605477 9.09111489,37.8075594 9.13,37.85 C18.4,48.09 36.39,45.7 48.13,43.05 C53.61,41.88 56.1,35.84 53.79,30.57 Z" opacity=".3"/>
      <path id="Shape" fill="#3D454C" fill-rule="nonzero" d="M55.5,32.71 C55.5,30.57 54.16,28.98 51.73,28.2 C50.8312036,26.83225 49.3066238,26.0061231 47.67,26 C46.8787424,25.9967123 46.0989434,26.1890856 45.4,26.56 C44.4726198,25.3978096 43.066849,24.7206845 41.58,24.72 C41.0277153,24.72 40.58,25.1677153 40.58,25.72 C40.58,26.2722847 41.0277153,26.72 41.58,26.72 C42.7038993,26.7206525 43.7239931,27.3772647 44.19,28.4 C44.3239322,28.6891222 44.5876311,28.89711 44.9,28.96 C45.2068656,29.0221964 45.5251486,28.9370742 45.76,28.73 C46.4156537,28.1471325 47.3012237,27.8948872 48.1655994,28.0447902 C49.0299752,28.1946932 49.7788962,28.7303976 50.2,29.5 C50.3304095,29.735607 50.5503311,29.9086601 50.81,29.98 C53.49,30.71 53.5,32.19 53.5,32.68 L53.5,32.68 C53.5,34.3 46.19,36.68 30.5,36.68 C12.69,36.68 7.67,34.22 7.5,32.75 C7.5,30.53 9.07,28.75 10.94,28.75 C11.1163363,28.7347218 11.2936637,28.7347218 11.47,28.75 C11.9406661,28.835421 12.4059139,28.5755529 12.58,28.13 C13.0015243,26.7024138 14.4791647,25.866264 15.92,26.24 C16.3642681,26.3781003 16.8450887,26.1915751 17.08,25.79 C17.9724607,24.0269198 20.1192764,23.3128023 21.89,24.19 C22.1255167,24.3189629 22.4030022,24.3477926 22.66,24.27 C22.9109325,24.1860329 23.1213865,24.0112491 23.25,23.78 C23.6929617,22.8292196 24.6317571,22.2072193 25.68,22.17 C26.6083682,22.1985127 27.4590858,22.6953919 27.94,23.49 C28.2451825,23.946275 28.8611173,24.0712473 29.32,23.77 C29.7797438,23.4680393 29.9093122,22.8514725 29.61,22.39 C28.7564357,21.0364533 27.2798791,20.2023679 25.68,20.17 C24.2122037,20.2129724 22.8496772,20.9423684 22,22.14 C21.4562023,21.9531566 20.8849993,21.8585194 20.31,21.86 C18.5031513,21.8816991 16.8156788,22.7663213 15.77,24.24 C13.8259304,24.0318346 11.9541406,25.0412499 11.06,26.78 C8.06,26.71 5.62,29.36 5.52,32.67 L5.52,32.91 C5.58,34.73 6.72,49 23,53.08 L23.21,53.28 C23.5104151,53.6343462 23.9114956,53.8889451 24.36,54.01 C28.6066324,54.8023913 32.9662246,54.768438 37.2,53.91 C37.6494151,53.7792039 38.0519586,53.5224089 38.36,53.17 C38.45,53.08 38.57,52.94 38.53,52.96 C55.3,48.42 55.5,32.87 55.5,32.71 Z M38,51 C37.6137511,51.1467499 37.2700919,51.3873114 37,51.7 L36.75,51.94 C32.8347057,52.7183016 28.8078514,52.7522262 24.88,52.04 L24.66,51.83 C24.3796946,51.5060608 24.0168305,51.2641515 23.61,51.13 C12.21,48.33 8.91,40.29 7.96,35.8 C11.52,37.72 19.0566667,38.6866667 30.57,38.7 C36.38,38.7 48.17,38.35 53.2,35.7 C52.22,40.08 49.05,48 38,51 Z"/>
      <path id="Shape" fill="#3D454C" fill-rule="nonzero" d="M22.81,27.48 C21.6425511,28.6394411 20.7119168,30.0150137 20.07,31.53 L20.07,31.53 C19.0368605,31.68111 18.1037591,32.2302043 17.47,33.06 C17.3119277,33.2734045 17.2452351,33.540922 17.2846301,33.8035555 C17.3240251,34.066189 17.4662719,34.3023655 17.68,34.46 C18.1200808,34.7846043 18.7392882,34.6955097 19.07,34.26 C19.3954488,33.8341519 19.8782029,33.5567484 20.41,33.49 C20.6478009,33.4671045 20.8877549,33.4840027 21.12,33.54 C21.5511431,33.6508212 22.0036296,33.4633043 22.23,33.08 C22.5540708,32.5186696 23.1370655,32.1562642 23.7838532,32.1140824 C24.4306409,32.0719006 25.0557674,32.3555155 25.45,32.87 C25.765005,33.2680341 26.3282467,33.3669238 26.76,33.1 C27.1022342,32.8937076 27.4836532,32.7608921 27.88,32.71 C28.7868688,32.6021784 29.6875857,32.9549592 30.28,33.65 C30.5554155,33.9791276 31.0101279,34.0958237 31.41,33.94 C31.573242,33.8715085 31.7446682,33.8244503 31.92,33.8 C32.6972133,33.7322775 33.4428658,34.1226714 33.83,34.8 C34.0100643,35.1036995 34.3369327,35.29 34.69,35.29 C34.8690982,35.2871732 35.0445593,35.2390074 35.2,35.15 C35.6748931,34.868281 35.8315765,34.2549776 35.55,33.78 C35.0918151,33.0082395 34.3873884,32.412999 33.55,32.09 C33.7620987,31.12884 33.6997261,30.1274131 33.37,29.2 C33.3032291,28.9789642 33.373927,28.7393769 33.55,28.59 L49.7,14.49 C50.5389987,13.7934143 51.0499168,12.7788253 51.11,11.69 C51.1654754,10.6041342 50.7627884,9.54481346 50,8.77 C49.2206437,8.01221473 48.1664423,7.60425321 47.08,7.64 C45.9974526,7.68144478 44.9818386,8.17474297 44.28,9 L30.28,25.19 C30.1125767,25.3789913 29.8447524,25.4429494 29.61,25.35 C27.39,24.55 25,25.3 22.81,27.48 Z M31.74,26.53 L45.81,10.32 C46.3179759,9.696002 47.1695894,9.4693815 47.9205191,9.75837564 C48.6714487,10.0473698 49.1514151,10.7864468 49.11,11.59 C49.0802586,12.1249347 48.8260532,12.6224509 48.41,12.96 L32.19,27.05 C31.3939202,27.7397125 31.0970432,28.8440948 31.44,29.84 C31.6374755,30.492043 31.6374755,31.187957 31.44,31.84 C31.3867724,31.8352499 31.3332276,31.8352499 31.28,31.84 C30.270902,30.9462272 28.9289887,30.5243791 27.59,30.68 C27.1786914,30.7331658 26.7755953,30.8372989 26.39,30.99 C25.5598771,30.2842407 24.4706998,29.9611181 23.39,30.1 C23.27,30.1 23.16,30.15 23.04,30.17 C23.3804221,29.6939857 23.7582881,29.2458968 24.17,28.83 C25.09,27.91 26.91,26.47 28.78,27.19 C29.8066628,27.6214301 30.9938695,27.3567151 31.74,26.53 Z"/>
      <path id="Path" fill="#3D454C" fill-rule="nonzero" d="M39.29 33.18C39.8422847 33.18 40.29 32.7322847 40.29 32.18 40.29 31.6277153 39.8422847 31.18 39.29 31.18 38.7377153 31.18 38.29 31.6277153 38.29 32.18 38.29 32.7322847 38.7377153 33.18 39.29 33.18zM47.29 31.58C46.7377153 31.58 46.29 32.0277153 46.29 32.58 46.29 33.1322847 46.7377153 33.58 47.29 33.58 47.8422847 33.58 48.29 33.1322847 48.29 32.58 48.29 32.0277153 47.8422847 31.58 47.29 31.58zM12.62 30.78C12.0677153 30.78 11.62 31.2277153 11.62 31.78 11.62 32.3322847 12.0677153 32.78 12.62 32.78 13.1722847 32.78 13.62 32.3322847 13.62 31.78 13.62 31.2277153 13.1722847 30.78 12.62 30.78z"/>
    </g>
  </g>
</svg>
