<svg xmlns="http://www.w3.org/2000/svg" width="64" height="64" viewBox="0 0 64 64" style="background:#fff">
  <g id="Quinoa" fill="none" fill-rule="evenodd" stroke="none" stroke-width="1">
    <rect width="64" height="64" fill="#FFF"/>
    <g transform="translate(2 7)">
      <rect id="Rectangle" width="60" height="60" x="0" y="0"/>
      <path id="Path" fill="#E0A075" fill-rule="nonzero" d="M14.33 19C16.05 18.93 18.14 18.5 19.33 17.12 20.8019423 15.3812177 21.3655165 13.0490586 20.85 10.83 20.42 9.06 19.34 6.88 17.24 6.83 16.4605094 6.86927656 15.6976997 7.07019519 15 7.42 14.697168 7.54551967 14.3821558 7.63935311 14.06 7.7 12.98 7.87 11.88 7.7 10.8 7.82 6.8 8.11 6.66 15.52 9.33 17.47 10.7620341 18.5576939 12.5345097 19.1000715 14.33 19L14.33 19zM35 15.33C36.4810127 15.2659159 37.7693371 14.2956962 38.24 12.89 38.8537658 11.185061 38.6471554 9.29236279 37.68 7.76 37.2497008 7.05698932 36.5027973 6.60884721 35.68 6.56 34.8 6.56 34.05 6.89 33.14 6.98 32.2375518 7.02457665 31.3407678 7.14838638 30.46 7.35 29.6 7.59 29.16 8.92 29 9.7 28.7942176 10.8092772 29.023402 11.9551989 29.64 12.9 30.8689996 14.6035973 32.9087449 15.5283325 35 15.33zM44.61 25.63C46.01 26.23 46.99 26.42 48.5 27 49.2887988 27.2775071 50.1668236 27.0793688 50.76 26.49 52.92 24.02 52.67 19.08 49.12 17.94 47.2401083 17.3245443 45.175415 17.9332112 43.93 19.47 42.62 21.07 42.32 24.63 44.61 25.63zM51.61 32.26C49.88 32 49 33.84 47.72 34.64 46.44 35.44 45 36.11 43.73 37 42.78 37.7 42.8 39.83 43.51 40.66 44.9701477 42.4453142 47.355767 43.1854074 49.57 42.54 52.69 41.69 54.18 39.27 54.27 36.08 54.32 34.44 53.39 32.49 51.61 32.26zM39.6 45.47C37.78 44.77 36.74 46.1 35.36 47 34.0801018 47.8254968 32.9728959 48.8919466 32.1 50.14 31.6429503 50.9169356 31.6662051 51.8858847 32.16 52.64 33.1202765 54.0489386 34.7474785 54.8530571 36.45 54.76 38.73 54.59 40.62 53.5 41.28 51.21 41.8 49.44 41.73 46.28 39.6 45.47zM19.62 37.15C17.96 35.76 16.01 36.15 14.27 37.15 13.66 37.52 13.06 37.93 12.46 38.33 11.5762636 38.9371941 10.8132691 39.7035797 10.21 40.59 8.88 42.41 9.34 46.17 11.52 47.17 14.28 48.42 19.06 47.64 20.46 44.72 21.55 42.46 21.83 39 19.62 37.15zM34.18 36.29C35.3576273 36.0780613 36.3859636 35.3669777 37 34.34 38.23 32.78 37.88 29.85 36.85 28.34 36.3039968 27.4187419 35.4281639 26.7395246 34.4 26.44 33.6877488 26.3081875 32.9600504 26.2812357 32.24 26.36 30.5639305 26.3046661 28.9717368 27.0932526 28 28.46 27 29.88 27.24 32.25 28.12 33.64 29.0045626 34.9577006 30.4231119 35.8205295 32 36 32.7118231 36.1867251 33.4441169 36.2841403 34.18 36.29zM17.81 22.85C16.2363956 23.5300624 15.0609629 24.893417 14.62 26.55 14.08 28.36 14.3 30.76 16.14 31.74 16.9581292 32.1096377 17.8424591 32.3103125 18.74 32.33 18.02 32.24 19.2 32.51 19.34 32.55 19.9190852 32.7107055 20.519415 32.7815309 21.12 32.76 22.94 32.57 24 30.67 24.2 29 24.44 27.07 24.1 24.72 22.55 23.38 21.2195377 22.2680982 19.3531878 22.0594135 17.81 22.85L17.81 22.85z" opacity=".5"/>
      <path id="Shape" fill="#3D454C" fill-rule="nonzero" d="M41.46 45.69C40.5446936 44.4051722 39.1347093 43.5606314 37.57 43.36 34.2886503 42.9416276 31.2384639 45.1203322 30.57 48.36 30.2515592 49.9017414 30.5884444 51.5064745 31.5 52.79 32.5938065 54.3023756 34.3536392 55.1897489 36.22 55.17 37.5281367 55.165273 38.8028916 54.756653 39.87 54 42.5951851 52.1386601 43.3055709 48.4258889 41.46 45.69L41.46 45.69zM38.71 52.37C36.9626705 53.7041843 34.4661113 53.3781578 33.12 51.64 32.524358 50.8030894 32.3067306 49.7548507 32.52 48.75 32.7323915 47.6841939 33.3487046 46.7418081 34.24 46.12 34.9631724 45.5917276 35.8344404 45.304804 36.73 45.3 36.9198704 45.2900757 37.1101296 45.2900757 37.3 45.3 38.3160129 45.4313694 39.2320819 45.9781142 39.83 46.81 40.4215806 47.6949876 40.636001 48.779278 40.4257908 49.8228212 40.2155807 50.8663644 39.5980813 51.7830737 38.71 52.37zM47.3 28.47C50.7721639 28.5539322 53.6572936 25.8119407 53.75 22.34 53.5593256 18.9171416 50.7281652 16.2393049 47.3 16.2393049 43.8718348 16.2393049 41.0406744 18.9171416 40.85 22.34 40.9427064 25.8119407 43.8278361 28.5539322 47.3 28.47L47.3 28.47zM47.3 18.22C49.6640961 18.1354681 51.6524854 19.9764038 51.75 22.34 51.5928996 24.6820625 49.6473255 26.5015038 47.3 26.5015038 44.9526745 26.5015038 43.0071004 24.6820625 42.85 22.34 42.9475146 19.9764038 44.9359039 18.1354681 47.3 18.22L47.3 18.22zM47.44 31.51L47.44 31.51C45.8213202 31.5236029 44.2730444 32.1738068 43.13 33.32 40.7534136 35.6979998 40.7534136 39.5520002 43.13 41.93 44.2590345 43.06045 45.7923077 43.693915 47.39 43.690018 50.7726431 43.690018 53.5225435 40.9625317 53.55 37.58 53.5687075 35.9766073 52.9448348 34.432439 51.8175825 33.2920354 50.6903302 32.1516319 49.1535018 31.51 47.55 31.51L47.44 31.51zM50.25 40.51C48.9308796 41.7662048 46.9365526 41.9900671 45.3717527 41.057581 43.8069527 40.125095 43.0547578 38.2645421 43.5318372 36.5065533 44.0089166 34.7485646 45.5984769 33.5235125 47.42 33.51L47.42 33.51C48.4895861 33.5099164 49.5146531 33.9382004 50.2662526 34.699195 51.0178521 35.4601895 51.4333698 36.4904974 51.42 37.56 51.4267417 38.6459062 51.0065549 39.6909863 50.25 40.47L50.25 40.51zM36.51 34.93C38.2321381 33.1353254 38.723983 30.489299 37.7617833 28.1956581 36.7995836 25.9020173 34.5671236 24.3988574 32.08 24.3699656 30.4571216 24.3645356 28.8998629 25.0102373 27.7570169 26.1624817 26.6141709 27.3147261 25.9812446 28.8772208 26 30.5 26.007451 32.1414848 26.665555 33.7130229 27.83 34.87 28.991277 36.0280429 30.5600602 36.6849933 32.2 36.7000251 33.8144895 36.7046282 35.3647483 36.0679791 36.51 34.93L36.51 34.93zM29.2 33.45C28.3976345 32.6582602 27.9472029 31.5772243 27.9499506 30.45 27.9446838 29.3714908 28.3687121 28.3351867 29.1285232 27.5697473 29.8883344 26.8043079 30.9214809 26.3726434 32 26.37L32 26.37C33.1258929 26.3738516 34.2044766 26.8232615 35 27.62 36.60991 29.22991 36.60991 31.84009 35 33.45 33.39009 35.05991 30.77991 35.05991 29.17 33.45L29.2 33.45zM14 23.15C12.843464 24.2992769 12.2044496 25.8697362 12.23 27.5 12.237451 29.1414848 12.895555 30.7130229 14.06 31.87 15.2384855 33.0450711 16.8357859 33.7034179 18.5 33.7000251 20.1144895 33.7046282 21.6647483 33.0679791 22.81 31.93 23.9690597 30.778303 24.6082846 29.2037151 24.58 27.57 24.564062 25.0715764 23.0570613 22.824343 20.7516808 21.8612256 18.4463003 20.8981083 15.7885314 21.4054285 14 23.15zM21.37 30.52C20.1524972 31.6744853 18.3677256 32.0002424 16.8208794 31.350307 15.2740332 30.7003716 14.2575449 29.1976145 14.23 27.52 14.1997824 26.4279498 14.6175405 25.3710577 15.3862455 24.5947978 16.1549505 23.818538 17.2077065 23.3904638 18.3 23.41 19.4261132 23.4127587 20.5050976 23.8623355 21.3 24.66 22.9236525 26.2616771 22.9637 28.8692168 21.39 30.52L21.37 30.52zM29.84 15.85C30.8861123 16.5934939 32.1366018 16.9951874 33.42 17 33.7818661 16.9998391 34.1430985 16.9697364 34.5 16.91 37.877902 16.3819127 40.1907837 13.2190357 39.67 9.84 39.4079649 8.21466074 38.4895859 6.76839449 37.13 5.84 35.7662705 4.91228313 34.0942933 4.55348974 32.47 4.84 29.0906685 5.37302539 26.7789349 8.53880365 27.3 11.92 27.5798893 13.5197735 28.4963428 14.9377508 29.84 15.85L29.84 15.85zM32.84 6.78C33.0837679 6.73241203 33.3316326 6.70896537 33.58 6.7099672 34.4458906 6.71655208 35.2895301 6.98498283 36 7.48 36.9111624 8.09415679 37.5295529 9.05609764 37.71 10.14 38.0443796 12.4299704 36.4677092 14.5604853 34.18 14.91 33.0660112 15.1041701 31.9203348 14.8527677 30.99 14.21 30.0788376 13.5958432 29.4604471 12.6339024 29.28 11.55 28.9452654 9.26338101 30.5163447 7.13439003 32.8 6.78L32.84 6.78z"/>
      <path id="Path" fill="#3D454C" fill-rule="nonzero" d="M36.79,48.5 C36.2377153,48.5 35.79,48.9477153 35.79,49.5 C35.79,50.0522847 36.2377153,50.5 36.79,50.5 C37.3422847,50.5 37.79,50.0522847 37.79,49.5 C37.79,48.9477153 37.3422847,48.5 36.79,48.5 Z"/>
      <path id="Shape" fill="#3D454C" fill-rule="nonzero" d="M10.53,37.64 C9.36691336,38.7921521 8.71484977,40.3628688 8.72,42 C8.7039825,43.6016693 9.32904538,45.1432522 10.4560044,46.2814808 C11.5829634,47.4197094 13.1182506,48.0600801 14.72,48.06 L14.72,48.06 C17.4907656,48.0972461 19.9373639,46.2592801 20.6732082,43.587752 C21.4090526,40.916224 20.2486065,38.0847354 17.8495419,36.6980061 C15.4504773,35.3112768 12.4176966,35.7189579 10.47,37.69 L10.53,37.64 Z M17.67,44.79 C16.9005255,45.559687 15.8583378,45.9945308 14.77,46 L14.77,46 C12.560861,46 10.77,44.209139 10.77,42 C10.7972641,39.7187684 12.6486309,37.8807528 14.93,37.8699982 C15.9716581,37.8690198 16.9726104,38.2744234 17.72,39 C18.4822317,39.7738806 18.9053127,40.8191846 18.8959329,41.9053708 C18.8865531,42.9915569 18.4454828,44.0293984 17.67,44.79 L17.67,44.79 Z"/>
      <path id="Path" fill="#3D454C" fill-rule="nonzero" d="M15.07 42.24C14.5177153 42.24 14.07 42.6877153 14.07 43.24 14.07 43.7922847 14.5177153 44.24 15.07 44.24 15.6222847 44.24 16.07 43.7922847 16.07 43.24 16.07 42.6877153 15.6222847 42.24 15.07 42.24zM45.78 22.55C46.3322847 22.55 46.78 22.1022847 46.78 21.55 46.78 20.9977153 46.3322847 20.55 45.78 20.55 45.2277153 20.55 44.78 20.9977153 44.78 21.55 44.78 22.1022847 45.2277153 22.55 45.78 22.55z"/>
      <path id="Shape" fill="#3D454C" fill-rule="nonzero" d="M13.7,19.07 C17.1721639,19.1539322 20.0572936,16.4119407 20.15,12.94 C20.0518916,9.4720035 17.1683671,6.73600817 13.7,6.82 C10.2316329,6.73600817 7.34810841,9.4720035 7.25,12.94 C7.34270639,16.4119407 10.2278361,19.1539322 13.7,19.07 Z M13.7,8.82 C16.0640961,8.73546811 18.0524854,10.5764038 18.15,12.94 C18.0578333,15.3075565 16.0678445,17.154445 13.7,17.07 C11.3321555,17.154445 9.34216666,15.3075565 9.25,12.94 C9.3475146,10.5764038 11.3359039,8.73546811 13.7,8.82 Z"/>
      <path id="Path" fill="#3D454C" fill-rule="nonzero" d="M12.18,13.15 C12.7322847,13.15 13.18,12.7022847 13.18,12.15 C13.18,11.5977153 12.7322847,11.15 12.18,11.15 C11.6277153,11.15 11.18,11.5977153 11.18,12.15 C11.18,12.7022847 11.6277153,13.15 12.18,13.15 Z"/>
    </g>
  </g>
</svg>
