<svg xmlns="http://www.w3.org/2000/svg" width="64" height="64" viewBox="0 0 64 64" style="background:#fff">
  <g id="Quitte" fill="none" fill-rule="evenodd" stroke="none" stroke-width="1">
    <rect width="64" height="64" fill="#FFF"/>
    <g transform="translate(2 7)">
      <rect id="Rectangle" width="60" height="60" x="0" y="0"/>
      <path id="Path" fill="#31E085" fill-rule="nonzero" d="M29.15,8.68 C28.15,5.85 24.92,4.75 22.21,4.15 C21.0291245,3.82966581 19.7837693,4.36931973 19.21,5.45 C17.8796871,7.51910231 17.9470689,10.1905938 19.38,12.19 C20.44,13.69 22.27,13.72 23.95,13.64 C25.3539699,13.7208543 26.749252,13.3720337 27.95,12.64 C29.1850362,11.7329658 29.6738085,10.1200174 29.15,8.68 Z" opacity=".5"/>
      <path id="Path" fill="#EBE53F" fill-rule="nonzero" d="M47.42,23.6 C44.93,20.39 40.8,19.35 38.31,16.41 C35.62,13.24 31.92,14.07 30.6,18.12 C30.4220874,18.6653862 30.2718953,19.2194284 30.15,19.78 C21.76,16.59 13.26,24.3 11.37,32.91 C8.91,44.12 14.55,56.14 27.2,55.05 C36.6,54.24 46.67,51.51 50.03,41.64 C52,35.84 51.22,28.51 47.42,23.6 Z" opacity=".5"/>
      <path id="Shape" fill="#2E3C56" fill-rule="nonzero" d="M48.39,28.57 C48.356635,28.4818505 48.3130009,28.3979388 48.26,28.32 C46.43,25.8 44.13,23.78 42.15,21.4 C40.17,19.02 39,15.27 36.32,13.56 C34.3804306,12.5626379 32.1662346,12.2322658 30.02,12.62 C29.9516162,10.2434206 28.8098095,8.02589142 26.9150128,6.58973272 C25.0202162,5.15357403 22.5766247,4.65355524 20.27,5.23 C19.9697685,5.31184202 19.7247487,5.52878756 19.6071522,5.81689887 C19.4895558,6.10501018 19.5127873,6.43144607 19.67,6.7 C21.1485713,9.5474461 23.3660925,11.9445796 26.09,13.64 C25.6252041,13.82449 25.1740731,14.0417012 24.74,14.29 C22.53,15.58 21.04,18.24 19.59,20.24 C17.46,23.24 15.26,26.18 13.41,29.33 C10.64,34.06 8.65,40 11.34,45.21 C15.96,54.21 32.56,55.6 40.85,52.12 C50,48.3 53.15,37 48.39,28.57 Z M22.16,7 C25.2471234,6.96261865 27.8186175,9.35798302 28,12.44 C25.6235161,11.1512409 23.6138552,9.27922812 22.16,7 L22.16,7 Z M38.68,50.8 C31.09,53.24 14.53,51.54 12.31,42.14 C11.06,36.81 14.11,31.8 16.92,27.55 C20,22.86 23.05,16.85 28.73,15.4 C30.2,15.03 32.54,14.27 34.06,14.7 C36.69,15.45 37.47,18.2 38.79,20.23 C40.97,23.6 44.18,26.09 46.53,29.33 C51.26,37.33 47.64,47.91 38.68,50.8 Z"/>
      <path id="Path" fill="#2E3C56" fill-rule="nonzero" d="M42 31.22C44.9252104 34.891727 44.8116409 40.1285421 41.73 43.67 40.88 44.67 42.29 46.05 43.14 45.08 46.8697924 40.9031926 47.1171402 34.6691874 43.73 30.21 43 29.21 41.21 30.2 42 31.22zM37.75 46.58L37.75 46.85C37.75 47.4022847 38.1977153 47.85 38.75 47.85 39.3022847 47.85 39.75 47.4022847 39.75 46.85L39.75 46.58C39.75 46.0277153 39.3022847 45.58 38.75 45.58 38.1977153 45.58 37.75 46.0277153 37.75 46.58zM20.68 44.39C18.6251596 43.5621677 17.1103343 41.7747895 16.6306089 39.6120276 16.1508835 37.4492657 16.7678996 35.1890206 18.28 33.57 19.13 32.57 17.72 31.19 16.87 32.16 14.8761096 34.2895893 14.0747109 37.2728207 14.733043 40.1148883 15.391375 42.956956 17.4228349 45.2839885 20.15 46.32 21.33 46.82 21.85 44.88 20.68 44.39z"/>
    </g>
  </g>
</svg>
