<svg xmlns="http://www.w3.org/2000/svg" width="64" height="64" viewBox="0 0 64 64" style="background:#fff">
  <g id="Quorn" fill="none" fill-rule="evenodd" stroke="none" stroke-width="1">
    <rect width="64" height="64" fill="#FFF"/>
    <g transform="translate(2 5)">
      <rect id="Rectangle" width="60" height="60" x="0" y="0"/>
      <path id="Path" fill="#31E085" fill-rule="nonzero" d="M21.25,3.89 C18.83,3.55 16.95,7.23 15.44,8.73 C13.44,10.68 11.44,12.45 10.27,15.03 C9.61,16.54 10.01,19.46 11.76,20.14 C14.44,21.14 17.37,19.05 19.34,17.43 C22.24,15.04 24.44,12.5 24.47,8.54 C24.49,6.49 23.43,4.2 21.25,3.89 Z" opacity=".5"/>
      <path id="Path" fill="#E0A075" fill-rule="nonzero" d="M57.66,38.42 C53.86,35 49,36.18 44.36,36.84 C39.5252917,37.5205981 34.7413464,38.5228212 30.04,39.84 C25.79,41 22.36,42.25 18.3,39.8 L17.83,39.49 C21.2140327,37.3851815 24.8447813,35.7058343 28.64,34.49 C35.38,32.29 45.15,32.12 49.64,25.56 C50.09798,24.7364182 49.9942105,23.7146875 49.38,23 C43.57,17.13 32.28,20.66 25.49,22.69 C17.88,24.95 10.57,28.69 4.78,34.48 C2.07,37.21 1.78,45.74 6.09,47.17 C9.97,48.45 12.82,51.41 16.31,53.49 C19.8208791,55.6150245 24.0643855,56.1631592 28,55 C33,53.77 37.86,52.32 42.94,51.53 C48.02,50.74 54.08,51.63 57.89,47.73 C60.05,45.49 60,40.52 57.66,38.42 Z" opacity=".5"/>
      <path id="Shape" fill="#3D454C" fill-rule="nonzero" d="M56.69,42.72 C56.3376458,41.165277 55.3660707,39.8216861 54,39 C53.439456,38.6594457 52.8285755,38.4096935 52.19,38.26 C52.31,38.1 52.45,37.97 52.56,37.8 C53.4205843,36.47986 53.7193061,34.8710816 53.39,33.33 C53.0463925,31.789813 52.0796503,30.4609951 50.72,29.66 C50.159414,29.3149501 49.5488776,29.0585923 48.91,28.9 C49.05,28.72 49.21,28.56 49.34,28.36 C50.2005843,27.03986 50.4993061,25.4310816 50.17,23.89 C49.49,20.69 46.68,18.83 43.17,19.3 C43.17,19.3 38.09,20.11 32.7,21.14 C32.3427344,21.2078805 32.0488212,21.4612035 31.9289746,21.8045448 C31.809128,22.1478861 31.8815556,22.529084 32.1189746,22.8045448 C32.3563936,23.0800057 32.7227344,23.2078805 33.08,23.14 C38.43,22.14 43.43,21.32 43.46,21.32 C45.88,21 47.75,22.19 48.2,24.32 C48.6581355,26.4374663 47.3162592,28.5263204 45.2,28.99 L17,35 C14.8898889,35.4184565 12.8267088,34.0930731 12.33,32 C11.9973602,29.864333 13.3516938,27.8284918 15.45,27.31 C15.45,27.31 19.85,26 25,24.76 C25.3716559,24.7023112 25.6795123,24.4409668 25.7967723,24.0836067 C25.9140322,23.7262467 25.8208627,23.3333143 25.5556374,23.0666466 C25.2904121,22.799979 24.8979907,22.7046798 24.54,22.82 C19.33,24.06 14.91,25.37 14.85,25.38 C12.0990001,26.1132416 10.198974,28.6232544 10.24,31.47 C7.75386894,32.3269059 6.14300412,34.7350262 6.3,37.36 C3.64906392,38.4636693 2.21591919,41.3512854 2.94,44.13 C3.54149462,46.8626814 5.95199969,48.8168086 8.75,48.84 C9.17014147,48.8419906 9.5892594,48.7984023 10,48.71 L10,48.71 C10.7871635,51.1685725 13.0586855,52.8480489 15.64,52.88 C16.0535506,52.8823808 16.4660842,52.8387797 16.87,52.75 L17.33,52.66 C18.3371735,54.6964243 20.4081486,55.9893322 22.68,56.000027 C23.0967998,56.0012701 23.5125262,55.9576859 23.92,55.87 L52.1,49.76 C55.2901253,49.0793146 57.3374475,45.9570367 56.69,42.76 L56.69,42.72 Z M51.44,33.72 C51.668006,34.7532652 51.4697213,35.8348181 50.89,36.72 C50.3231049,37.5991608 49.4252313,38.2121669 48.4,38.42 L20.21,44.52 C19.9396406,44.5713553 19.6651873,44.5981313 19.39,44.6 C17.5394147,44.5759052 15.9470064,43.2854341 15.54,41.48 C15.1251129,39.5308992 16.2081856,37.573693 18.08,36.89 L45.6,30.89 C45.67,30.89 45.73,30.84 45.8,30.83 L45.87,30.83 C47.1549349,30.4685909 48.5318268,30.6492854 49.68,31.33 C50.5684285,31.8434489 51.2053132,32.701072 51.44,33.7 L51.44,33.72 Z M8.92,34.9 C9.34644552,34.2426306 9.95921654,33.7273459 10.68,33.42 C11.4105162,35.1561114 12.9138892,36.4484198 14.74,36.91 C13.8554822,38.0122916 13.400704,39.3979439 13.46,40.81 L13,40.9 C10.8898889,41.3184565 8.82670879,39.9930731 8.33,37.9 C8.11132822,36.8613702 8.32429865,35.7784698 8.92,34.9 L8.92,34.9 Z M8.75,46.84 C6.89941472,46.8159052 5.30700642,45.5254341 4.9,43.72 C4.66934583,42.7033243 4.81500794,41.637504 5.31,40.72 C5.64416815,40.1325147 6.15017278,39.661407 6.76,39.37 C7.57163218,41.2621615 9.29676062,42.6060253 11.33,42.93 C10.3526981,43.9624723 9.79018675,45.3189078 9.75,46.74 L9.57,46.74 C9.30025511,46.7980738 9.02579588,46.8315444 8.75,46.84 L8.75,46.84 Z M15.68,50.84 C14.2348767,50.8393834 12.9060582,50.0476819 12.2175686,48.7771057 C11.529079,47.5065294 11.5914173,45.9609992 12.38,44.75 C12.803911,44.0966457 13.4132817,43.5847742 14.13,43.28 C14.8685528,44.7347078 16.174698,45.8201471 17.74,46.28 C16.8463782,47.5713856 16.5044717,49.1657493 16.79,50.71 L16.5,50.77 C16.2311834,50.8334293 15.9561819,50.8669661 15.68,50.87 L15.68,50.84 Z M54.18,46.06 C53.60943,46.9419284 52.7087818,47.5579719 51.68,47.77 L23.5,53.89 C21.3898889,54.3084565 19.3267088,52.9830731 18.83,50.89 C18.2588402,49.1374941 19.0761794,47.2332222 20.74,46.44 L48.81,40.37 C48.92,40.37 49.01,40.3 49.11,40.28 L49.21,40.28 C50.4700468,39.8980838 51.8321743,40.0574818 52.97,40.72 C53.8718071,41.2611187 54.509028,42.1517798 54.73,43.18 C54.9353185,44.1845935 54.7378013,45.2296388 54.18,46.09 L54.18,46.06 Z"/>
      <path id="Path" fill="#3D454C" fill-rule="nonzero" d="M29,24 C29.5522847,24 30,23.5522847 30,23 C30,22.4477153 29.5522847,22 29,22 C28.4477153,22 28,22.4477153 28,23 C28,23.5522847 28.4477153,24 29,24 Z"/>
      <path id="Shape" fill="#3D454C" fill-rule="nonzero" d="M6.75,24.13 L6.96,24.13 C8.69916792,23.5853556 10.2808011,22.6281416 11.57,21.34 L12.17,21.34 C15.9232819,21.353299 19.436888,19.4972295 21.5414788,16.3894972 C23.6460695,13.281765 24.0654316,9.33023904 22.66,5.85 C22.5246218,5.55197516 22.2519573,5.33907269 21.93,5.28 C18.021833,4.83103865 14.1901399,6.60218383 12,9.87 C9.78384354,12.7033324 9.14123683,16.4612664 10.29,19.87 C9.25016045,20.9159174 7.98441708,21.7095727 6.59,22.19 C6.05681895,22.3096243 5.7183869,22.8350846 5.83,23.37 C5.93534903,23.7985989 6.30922013,24.1074489 6.75,24.13 Z M13.56,11.05 C15.2248617,8.58480594 18.0258554,7.13160219 21,7.19 C21.9100719,10.0185593 21.4199738,13.1113759 19.68,15.52 C18.2216209,17.5452167 16.0007995,18.8885428 13.53,19.24 C14.3500474,18.2488479 15.1017798,17.2031046 15.78,16.11 C16.0727109,15.6377965 15.9272034,15.0177109 15.455,14.725 C14.9827965,14.4322891 14.3627109,14.5777966 14.07,15.05 C13.4044355,16.142059 12.6520033,17.1787433 11.82,18.15 C11.356442,15.6433588 11.9899711,13.0582692 13.56,11.05 L13.56,11.05 Z"/>
      <path id="Path" fill="#3D454C" fill-rule="nonzero" d="M14.75 32.78C15.3022847 32.78 15.75 32.3322847 15.75 31.78 15.75 31.2277153 15.3022847 30.78 14.75 30.78 14.1977153 30.78 13.75 31.2277153 13.75 31.78 13.75 32.3322847 14.1977153 32.78 14.75 32.78zM10.89 38.65C11.4422847 38.65 11.89 38.2022847 11.89 37.65 11.89 37.0977153 11.4422847 36.65 10.89 36.65 10.3377153 36.65 9.89 37.0977153 9.89 37.65 9.89 38.2022847 10.3377153 38.65 10.89 38.65zM7.29 42.51C6.73771525 42.51 6.29 42.9577153 6.29 43.51 6.29 44.0622847 6.73771525 44.51 7.29 44.51 7.84228475 44.51 8.29 44.0622847 8.29 43.51 8.29 42.9577153 7.84228475 42.51 7.29 42.51zM17.11 40.27L16.98 40.41C16.6402232 40.8067603 16.6630677 41.3981942 17.0324368 41.7675632 17.4018058 42.1369323 17.9932397 42.1597768 18.39 41.82L18.53 41.69C18.9221221 41.2978778 18.9221221 40.6621222 18.53 40.27 18.1378778 39.8778779 17.5021222 39.8778779 17.11 40.27zM20 50.31L20 50.45C20 51.0022847 20.4477153 51.45 21 51.45 21.5522847 51.45 22 51.0022847 22 50.45L22 50.31C22 49.7577153 21.5522847 49.31 21 49.31 20.4477153 49.31 20 49.7577153 20 50.31z"/>
    </g>
  </g>
</svg>
