<svg xmlns="http://www.w3.org/2000/svg" width="64" height="64" viewBox="0 0 64 64" style="background:#fff">
  <g id="Raclette" fill="none" fill-rule="evenodd" stroke="none" stroke-width="1">
    <rect width="64" height="64" fill="#FFF"/>
    <g id="31-Raclette" transform="translate(2 8)">
      <g id="Layer_2">
        <rect id="Rectangle" width="60" height="60" x="0" y="0"/>
      </g>
      <g id="Layer_1" transform="translate(5 7)">
        <path id="Path" fill="#DFA077" fill-opacity=".5" d="M16.9,13.26 C21.0933152,12.4223402 25.3349357,11.8478845 29.6,11.54 C33.27,11.22 37.19,10.87 40.82,11.67 C42.1901135,11.9718894 43.6172068,11.5198999 44.5637075,10.4842915 C45.5102082,9.44868307 45.8323203,7.98678931 45.4087075,6.64929146 C44.9850946,5.31179361 43.8801136,4.30188941 42.51,4 C38.11,3 33.37,3.33 28.93,3.71 C24.3378417,4.04926168 19.7719405,4.68053845 15.26,5.6 C13.2227627,6.12310485 11.9614461,8.16078809 12.4017871,10.2175025 C12.842128,12.2742169 14.8271693,13.6168575 16.9,13.26 L16.9,13.26 Z"/>
        <path id="Path" fill="#EBE350" fill-opacity=".5" d="M24.54 29.38C28.06 28.75 36.54 28.08 39.08 28.75 42.0488771 29.5199073 45.2029733 28.647454 47.3541711 26.4612847 49.505369 24.2751155 50.3268503 21.1073614 49.5091711 18.1512847 48.6914919 15.1952081 46.3588771 12.8999073 43.39 12.13 39.52 11.13 26.82 11.54 21.52 12.48 18.5011057 13.0158983 15.9974308 15.1216498 14.9520852 18.0040381 13.9067397 20.8864264 14.4785365 24.1075482 16.4520852 26.4540382 18.425634 28.8005281 21.5011057 29.9158984 24.52 29.38L24.54 29.38zM2.2 24.87C3.66 27.75 4.49 30.94 5.65 33.95 6.74 36.79 8.2 39.5 9.49 42.26 9.91900822 43.2347806 10.8416383 43.9013337 11.9018386 44.0024302 12.9620389 44.1035268 13.994016 43.6233573 14.5995201 42.7472238 15.2050243 41.8710903 15.2893671 40.7360019 14.82 39.78 13.6 37.14 12.19 34.55 11.14 31.78 9.91 28.59 9 25.22 7.45 22.16 6.96590514 21.2221778 6.01826085 20.6138559 4.96403557 20.5641832 3.90981029 20.5145106 2.90916592 21.0310337 2.33903553 21.9191833 1.76890514 22.8073328 1.71590509 23.9321778 2.2 24.87z"/>
        <path id="Path" fill="#EBE350" fill-opacity=".5" d="M7.59,14 C8.13,20.6 10.45,27 11.17,33.64 C11.4472289,35.1572269 12.8497977,36.2022968 14.3829341,36.0339936 C15.9160705,35.8656905 17.05852,34.5412361 17,33 C16.3,26.39 14,20 13.45,13.48 C13.3755095,12.4243605 12.7394246,11.4902078 11.7845112,11.0340674 C10.8295978,10.5779271 9.70321732,10.6701903 8.83526044,11.2756443 C7.96730356,11.8810982 7.4917126,12.9063097 7.59,13.96 L7.59,14 Z"/>
        <path id="Shape" fill="#3C454E" d="M44.73,8.19 C44.2152794,7.74206505 43.6594886,7.34363675 43.07,7 C42.5267576,5.25997705 41.6429552,3.64533807 40.47,2.25 C39.6415874,1.22324385 38.4821309,0.516258193 37.19,0.25 C35.3007953,0.149858765 33.418315,0.546351883 31.73,1.4 C29.2359466,2.58481393 26.8059246,3.89996321 24.45,5.34 C22.02,5.47 19.64,5.87 17.21,6.11 C15.6225147,6.12330439 14.1064122,6.77151924 13,7.91 C12.6923601,8.32053442 12.5432237,8.82830838 12.58,9.34 C12.58,9.62 12.65,9.91 12.66,10.2 C12.6654863,10.2565339 12.6654863,10.3134661 12.66,10.37 C11.52,10.87 9.74,11.6 8.81,12.06 C8.51167884,12.2002136 8.23270668,12.3783524 7.98,12.59 C6.85875172,13.7197579 6.24817832,15.2588364 6.29,16.85 C4.0252333,18.1431172 2.07247006,19.9183565 0.57,22.05 C0.317714624,22.5022655 0.186801584,23.0121373 0.189942769,23.53 C0.193523614,24.3884406 0.311222511,25.2425983 0.54,26.07 C1.71583553,30.0737972 3.42446408,33.9013942 5.62,37.45 C6.55,38.9 8.86,43.75 10.42,45.69 C10.8221803,46.2879815 11.4373382,46.7100084 12.14,46.87 C12.4810164,46.8903018 12.8223423,46.8356897 13.14,46.71 C14.0483814,46.3591591 14.9249384,45.9309175 15.76,45.43 C21.59,42.1 33.49,33.49 36,31 C37.74,30.93 39.11,30.86 39.61,30.76 C44.61,29.76 46.39,26.56 47.61,21.97 C48.85,17.13 48.64,11.77 44.73,8.19 Z M32.57,3.19 C33.8897416,2.49203749 35.3676642,2.14753337 36.86,2.19 C37.6604352,2.40025056 38.365659,2.87627658 38.86,3.54 C39.3925805,4.14918796 39.849253,4.82076527 40.22,5.54 C38.4568748,4.97611482 36.620809,4.6729113 34.77,4.64 C32.9178684,4.59306674 31.0645856,4.65651246 29.22,4.83 C30.3089046,4.24038561 31.4270069,3.7063666 32.57,3.23 L32.57,3.19 Z M14.72,43.61 C13.9740741,44.0215211 13.2062682,44.392071 12.42,44.72 C12.1030309,44.3667464 11.8059075,43.9961768 11.53,43.61 C10.06,41.39 8.22,37.61 7.42,36.32 C5.34319915,32.9629939 3.72230926,29.3445758 2.6,25.56 C2.45179843,24.9969568 2.35803433,24.4209774 2.32,23.84 C2.27609054,23.6080713 2.30040655,23.3683849 2.39,23.15 C3.48044567,21.525406 4.91417693,20.1599477 6.59,19.15 C6.95205207,20.6165066 7.42336878,22.0538554 8,23.45 C8.29,24.24 11.52,35.11 12.36,37.45 C12.4607572,37.7886763 12.6426936,38.0976249 12.89,38.35 C13.4971718,38.7703402 14.2625416,38.891769 14.97,38.68 C16.0929303,38.2707205 17.1856347,37.7828463 18.24,37.22 C19.92,36.6 29.88,32.41 32.6,31.22 C26.8947595,35.7060436 20.9238987,39.8435696 14.72,43.61 L14.72,43.61 Z M45.57,21.4 C44.57,25.13 43.32,27.84 39.22,28.66 C37.65,28.97 27.38,29.04 24.46,29.13 C24.1803225,29.1291035 23.9130499,29.2453694 23.7230338,29.4505868 C23.5330176,29.6558043 23.4376242,29.9312176 23.46,30.21 C23.4921781,30.7796813 23.9695301,31.2216739 24.54,31.21 C25.17,31.21 26.15,31.21 27.3,31.14 C23.43,32.77 18.6,34.79 17.48,35.2 C16.88,35.42 15.8,36.12 14.82,36.48 C14.646054,36.5474986 14.4648301,36.5944826 14.28,36.62 L14.28,36.62 C13.4,34.17 10.23,23.48 9.93,22.7 C9.28547817,21.1885423 8.80278801,19.6130953 8.49,18 C8.17089355,16.6323131 8.52385496,15.1944598 9.44,14.13 C9.52,14.13 9.9,13.88 10.23,13.74 C11,13.38 12,13 12.88,12.57 C12.94,13.16 13,13.75 13.04,14.34 C13.39,19.53 14.47,24.97 14.44,30.16 C14.44,30.7371376 14.9078624,31.205 15.485,31.205 C16.0621376,31.205 16.53,30.7371376 16.53,30.16 C16.53,24.92 15.48,19.43 15.13,14.16 C15.06,13.1 14.94,12.05 14.85,10.99 C14.85,10.94 14.85,10.88 14.85,10.83 C14.85,10.56 14.79,10.3 14.78,10.03 C14.77,9.76 14.78,9.65 14.72,9.47 C14.7150468,9.39007667 14.7150468,9.30992333 14.72,9.23 C14.7057371,9.20169524 14.7057371,9.16830476 14.72,9.14 C15.4479465,8.42784761 16.4318598,8.0386072 17.45,8.06 C19.92,7.82 22.36,7.4 24.85,7.28 C27.85,7.14 31.38,6.64 34.76,6.76 C37.92,6.87 40.97,7.52 43.34,9.69 C46.63,12.77 46.63,17.34 45.57,21.4 Z"/>
        <path id="Path" fill="#3C454E" d="M19.14,29 C18.8416832,29.2393679 18.6937285,29.6197031 18.7518688,29.997737 C18.8100091,30.3757709 19.0654117,30.6940711 19.4218688,30.832737 C19.7783259,30.9714029 20.1816832,30.9093679 20.48,30.67 C20.9378861,30.295434 21.0092215,29.6222065 20.64,29.16 C20.2690254,28.7033388 19.598953,28.6318644 19.14,29 L19.14,29 Z"/>
      </g>
    </g>
  </g>
</svg>
