<svg xmlns="http://www.w3.org/2000/svg" width="64" height="64" viewBox="0 0 64 64" style="background:#fff">
  <g id="Radieschen" fill="none" fill-rule="evenodd" stroke="none" stroke-width="1">
    <rect width="64" height="64" fill="#FFF"/>
    <g transform="translate(2 4)">
      <rect id="Rectangle" width="60" height="60" x="0" y="0"/>
      <path id="Path" fill="#31E085" fill-rule="nonzero" d="M53.23 21.6C50.05 19.49 46.14 18.89 42.68 20.82 40.43 22.07 39.77 25.23 40.34 27.59 40.76 29.31 42.49 32.59 44.84 31.29 46.3546483 30.3404821 48.2609958 30.2718536 49.84 31.11 54.8 34.39 57 24.08 53.23 21.6zM30.44 7.8C29.8839315 6.9000981 28.9257866 6.32595678 27.87 6.26 26.8206429 6.37879242 25.8932534 6.99705207 25.38 7.92 24.443101 9.60349719 24.1786943 11.5794013 24.64 13.45 23.6402517 15.4116678 23.5633179 17.716019 24.43 19.74 25.3 21.64 27.43 23.42 29.37 21.57 33 18.12 33.17 11.82 30.44 7.8z" opacity=".5"/>
      <path id="Path" fill="#E05362" fill-rule="nonzero" d="M45.42,34.18 C44.8,32.3 43.72,30.43 42.79,31.42 C42.42,29.91 41.17,28.42 39.93,29.26 L39.85,29.14 C39.5837164,28.7106473 39.2027129,28.3642805 38.75,28.14 L38,28.1 C37.2490858,27.8105748 36.4359115,27.7209878 35.64,27.84 C35.0578091,26.202535 33.6890369,24.9691359 32,24.56 C31.1197036,24.3645769 30.2103856,24.3374331 29.32,24.48 C29.32,24.34 29.32,24.19 29.27,24.05 C28.8742897,22.4293211 28.0565911,20.9422827 26.9,19.74 C26.4142574,19.2492639 25.8817274,18.8071635 25.31,18.42 C23.78,15.42 20.64,14.31 17.31,14.95 C14.011524,15.6869786 11.2349461,17.8993913 9.78,20.95 C7.9697771,24.5761209 7.34700908,28.6800922 8,32.68 C8.3050984,34.0663957 8.68566479,35.4350994 9.14,36.78 C9.3,37.49 8.89,38.64 9.66,39.16 C10.83,39.96 11.95,39.42 12.95,38.51 C15.03,36.6 14.95,34.09 15.21,31.51 C15.41,29.69 15.92,27.98 17.89,27.44 C19.86,26.9 21.65,28.38 23.83,27.67 C23.8747534,27.6458016 23.9216126,27.625719 23.97,27.61 C22.3493175,29.4134098 21.1654287,31.5656239 20.51,33.9 C19.45,37.73 19.08,47.9 24.17,49.22 L24.31,49.22 C24.5681302,48.8853777 25.0003664,48.7360597 25.41,48.84 C29.069633,51.9488863 34.2803376,52.4440031 38.46,50.08 C43.57,47.07 47.23,39.74 45.42,34.18 Z" opacity=".5"/>
      <path id="Path" fill="#464646" fill-rule="nonzero" d="M31.18,42.15 C30.9120779,41.9026862 30.530784,41.8207994 30.1849435,41.9363011 C29.839103,42.0518029 29.5835396,42.3463837 29.5180038,42.7050638 C29.452468,43.0637438 29.5873488,43.4296641 29.87,43.66 C30.8837038,44.5388268 31.7042901,45.6181873 32.28,46.83 C32.4469502,47.1805545 32.8017306,47.4027797 33.19,47.4000258 C33.3389933,47.399117 33.4859063,47.3649512 33.62,47.3 C34.0991711,47.0621394 34.3062774,46.489292 34.09,46 C33.4001236,44.527158 32.4087455,43.2155409 31.18,42.15 L31.18,42.15 Z"/>
      <path id="Shape" fill="#464646" fill-rule="nonzero" d="M50.35,20.73 C45.9968007,20.6809939 42.0327017,23.2293433 40.27,27.21 C38.88,25.36 37.62,22.86 37.62,21.73 C37.6299872,20.6346043 38.36877,19.6801269 39.4266802,19.3958427 C40.4845904,19.1115585 41.6022922,19.5671567 42.16,20.51 C42.3302629,20.8354784 42.6652613,21.0414125 43.0325499,21.0463839 C43.3998385,21.0513553 43.740288,20.8545637 43.9192979,20.5338128 C44.0983077,20.213062 44.0870594,19.8199891 43.89,19.51 C42.8885604,17.769061 40.8412042,16.919658 38.901458,17.4403637 C36.9617118,17.9610695 35.6149629,19.7215866 35.62,21.73 C35.8204715,23.4463437 36.4309884,25.0892515 37.4,26.52 C36.3144999,26.1656708 35.1892447,25.9473377 34.05,25.87 C30.2904998,25.6211564 26.5975078,26.9512134 23.86,29.54 C21.1247967,32.1197226 19.5700142,35.7101854 19.56,39.47 L19.56,39.56 C19.5727291,40.1927803 19.6261729,40.8240852 19.72,41.45 C19.7161109,41.4865635 19.7161109,41.5234365 19.72,41.56 C19.90298,42.8005097 20.2598202,44.0090535 20.78,45.15 C22.96,49.89 21.12,51.68 19.55,52.62 C19.4124872,52.7013383 19.2686965,52.7715617 19.12,52.83 C18.650576,52.9816289 18.361855,53.4529234 18.44,53.94 C18.5192284,54.4290578 18.9446072,54.786376 19.44,54.780084 L19.44,54.780084 C21.6845751,54.6171714 23.8231284,53.7610512 25.56,52.33 C25.8778817,52.066134 26.1753935,51.7786508 26.45,51.47 L26.54,51.38 C28.5279373,52.4796699 30.7582926,53.067329 33.03,53.09 L33.17,53.09 C36.9298146,53.0799858 40.5202774,51.5252033 43.1,48.79 C48.2343528,43.3174788 47.9749971,34.7229675 42.52,29.57 C43.7958856,29.3115497 45.1204595,29.6381067 46.13,30.46 C47.3551986,31.3452116 48.8190002,31.8401159 50.33,31.88 C53.4117489,31.88 55.91,29.3817489 55.91,26.3 C55.91,23.2182511 53.4117489,20.72 50.33,20.72 L50.35,20.73 Z M44.79,38.73 C44.9902945,41.9139185 43.8750218,45.0405035 41.704891,47.3788762 C39.5347601,49.7172489 36.4999912,51.0624421 33.31,51.1 L33.19,51.1 C31.5980651,51.0839111 30.0260973,50.7436584 28.57,50.1 L28.71,50.1 C29.2622847,50.0420101 29.6629899,49.5472847 29.605,48.995 C29.5470101,48.4427153 29.0522847,48.0420101 28.5,48.1 C27.5283337,48.2188528 26.6169392,48.6343928 25.89,49.29 L25.89,49.29 C25.5734604,49.5188382 25.2848256,49.7839795 25.03,50.08 C24.8157087,50.3124017 24.5886935,50.53274 24.35,50.74 C24.0084274,51.0078082 23.651121,51.2549173 23.28,51.48 C24.04,49.81 24.11,47.48 22.63,44.28 C22.3057071,43.5637548 22.054437,42.8166451 21.88,42.05 C23.2444204,41.5710008 24.71316,41.4707809 26.13,41.76 C26.6614964,41.8654987 27.1803215,41.5284841 27.3,41 C27.3530985,40.7400825 27.3007425,40.4697175 27.1544551,40.248411 C27.0081678,40.0271045 26.7799387,39.8729946 26.52,39.82 C24.8839226,39.4824555 23.1895085,39.5580683 21.59,40.04 C21.59,39.85 21.59,39.66 21.59,39.46 L21.59,39.38 C21.6754617,33.1479746 26.6585164,28.0911685 32.8886137,27.9141619 C39.1187111,27.7371552 44.380839,32.5028799 44.82,38.72 L44.79,38.73 Z M50.35,29.89 C49.2059166,29.8452323 48.1030471,29.4508517 47.19,28.76 C46.1088551,27.9697872 44.8179132,27.5174356 43.48,27.46 C43.077173,27.4632385 42.6754915,27.5034067 42.28,27.58 C43.84242,24.5729879 46.961448,22.6984791 50.35,22.73 C52.3271794,22.73 53.93,24.3328206 53.93,26.31 C53.93,28.2871794 52.3271794,29.89 50.35,29.89 L50.35,29.89 Z"/>
      <path id="Shape" fill="#464646" fill-rule="nonzero" d="M19.34,18.14 C23.1002407,18.3955215 26.3867142,20.7701635 27.81,24.26 C28.0198682,24.7736248 28.6063752,25.0198682 29.12,24.81 C29.6336248,24.6001318 29.8798682,24.0136248 29.67,23.5 C29.1165503,22.1557866 28.3198876,20.9251971 27.32,19.87 C30.7753595,18.31301 32.9730247,14.8494267 32.91,11.06 C32.8881781,8.35900062 30.7010383,6.17631522 28,6.16 L28,6.16 C26.6863642,6.16783606 25.430415,6.70068342 24.5119061,7.63985413 C23.5933971,8.57902484 23.0886163,9.84651492 23.11,11.16 C23.1539995,12.4817257 23.5928555,13.7599808 24.37,14.83 C25.0706682,15.7270407 25.304418,16.9032103 25,18 C23.3289283,16.9267551 21.4119736,16.2969477 19.43,16.17 C16.1793628,15.9688487 12.9897681,17.1178665 10.6141845,19.3458042 C8.23860095,21.573742 6.88755915,24.6831539 6.88,27.94 C6.88,27.94 6.88,28 6.88,28.02 C6.87942565,28.5622413 6.91953825,29.1037614 7,29.64 C7,29.64 7,29.69 7,29.71 C7.18182318,30.8054184 7.51852846,31.8694071 8,32.87 C9.82,36.87 8.3,38.32 7,39.09 C6.88913601,39.1579077 6.77191474,39.2148438 6.65,39.26 C6.09771526,39.3456041 5.71939589,39.8627153 5.80500002,40.415 C5.89060416,40.9672847 6.40771526,41.3456041 6.96,41.26 L7,41.26 C8.951202,41.1184071 10.8102163,40.3741025 12.32,39.13 C12.6016445,38.9000237 12.8657128,38.6493259 13.11,38.38 L13.11,38.38 C14.2189766,38.9835959 15.4174998,39.4056112 16.66,39.63 C16.9212525,39.67653 17.1902868,39.6173125 17.4078573,39.4653883 C17.6254279,39.313464 17.7736921,39.081292 17.82,38.82 C17.8815346,38.5498483 17.8282267,38.2662749 17.67279,38.0369109 C17.5173532,37.8075469 17.2737215,37.6529533 17,37.61 C16.3954675,37.4998902 15.8027929,37.332468 15.23,37.11 C15.6520535,36.8956959 15.8660407,36.4148357 15.7427235,35.9578365 C15.6194062,35.5008374 15.1925684,35.1928982 14.72,35.22 C13.8647035,35.3048456 13.0571864,35.6544201 12.41,36.22 L12.41,36.22 C12.1347876,36.4209909 11.8831888,36.6524618 11.66,36.91 C11.4792064,37.1092323 11.2854514,37.2963062 11.08,37.47 C10.9132802,37.6054773 10.7397187,37.7323107 10.56,37.85 C11.06,36.43 11,34.53 9.83,31.98 C9.57656994,31.4129275 9.37572736,30.8237893 9.23,30.22 C10.3431621,29.8550931 11.5321283,29.7861675 12.68,30.02 C12.9399175,30.0730985 13.2102825,30.0207425 13.431589,29.8744551 C13.6528955,29.7281678 13.8070054,29.4999387 13.86,29.24 C13.8969393,28.9759248 13.826883,28.7080333 13.6653971,28.4958482 C13.5039111,28.2836632 13.2643709,28.1447594 13,28.11 C11.6319008,27.8262549 10.2157438,27.8742602 8.87,28.25 C8.87,28.15 8.87,28.05 8.87,27.94 C8.87485594,27.9169193 8.87485594,27.8930807 8.87,27.87 C8.88902615,25.1664614 10.0218357,22.5903659 12.0014018,20.748953 C13.9809679,18.9075402 16.6321467,17.9637307 19.33,18.14 L19.34,18.14 Z M25.06,11.14 C25.0308095,10.3409921 25.3350872,9.56580848 25.9,9 C26.4580988,8.44829178 27.215371,8.14538289 28,8.16 L28,8.16 C29.6104159,8.15996248 30.9190074,9.45962162 30.93,11.07 C30.9674586,13.8181621 29.5182556,16.3724303 27.14,17.75 C27.3073637,16.32436 26.9128031,14.8895941 26.04,13.75 C25.4498437,12.9877685 25.1077826,12.0628074 25.06,11.1 L25.06,11.14 Z"/>
      <path id="Path" fill="#464646" fill-rule="nonzero" d="M16.58,31.32 C17.1322847,31.32 17.58,30.8722847 17.58,30.32 C17.58,29.7677153 17.1322847,29.32 16.58,29.32 C16.0277153,29.32 15.58,29.7677153 15.58,30.32 C15.58,30.8722847 16.0277153,31.32 16.58,31.32 Z"/>
    </g>
  </g>
</svg>
