<svg xmlns="http://www.w3.org/2000/svg" width="64" height="64" viewBox="0 0 64 64" style="background:#fff">
  <g id="Radicchio" fill="none" fill-rule="evenodd" stroke="none" stroke-width="1">
    <rect width="64" height="64" fill="#FFF"/>
    <g transform="translate(2 6)">
      <g id="Layer_2">
        <rect id="Rectangle" width="60" height="60" x="0" y="0"/>
        <rect id="Rectangle" width="60" height="60" x="0" y="0"/>
      </g>
      <g id="Layer_1" fill-rule="nonzero" transform="translate(7 7)">
        <path id="Path" fill="#E05362" d="M41.17 4C38.29 2.56 34.68 4.25 32.11 5.75 29.0698314 7.36712317 26.6194883 9.90497858 25.11 13 24.32 14.7 25.45 21 28.43 19.19 30.71 17.82 32.43 15.73 34.7 14.35 36.97 12.97 39.9 12.35 41.91 10.43 43.53 8.77 43.34 5 41.17 4zM42.74 10.57C39.74 12.52 38.21 16.45 35.84 19.09 33.13 22.09 29.6 24.16 26.84 27.09 24.76 29.29 25 36.55 29.34 35.35 33.34 34.23 37.01 30.12 39.58 27 42.31 23.7 45.51 19.45 45.79 15 45.88 13.81 45.12 9 42.74 10.57zM26.41 1.42C22.1 1.29 17.41 4.97 14.21 7.54 10.2675974 10.5687214 6.943991 14.3268749 4.42 18.61 3.37125456 20.489485 3.33743764 22.7702485 4.33 24.68 5.1 26 6.91 27.3 8.27 25.77 11.19 22.51 13.81 19.12 17.15 16.25 20.49 13.38 24.88 11.35 27.78 8.15 29.26 6.51 29.51 1.51 26.41 1.42z" opacity=".5"/>
        <path id="Shape" fill="#3D454C" d="M46.15,19.07 C46.0051321,18.7809575 45.7294577,18.5797897 45.41,18.53 C45.3,18.53 44.8,18.44 43.99,18.38 C44.6534723,16.1640264 44.9903479,13.8631655 44.99,11.55 C44.9879849,11.1462981 44.7434255,10.7834036 44.37,10.63 C43.9956298,10.4759407 43.5653076,10.5627947 43.28,10.85 C42.7883097,11.3122701 42.2708131,11.7462995 41.73,12.15 C42.1777226,9.8450334 42.2955677,7.48813111 42.08,5.15 C42.0238281,4.69480198 41.665198,4.33617186 41.21,4.28 C36.7879188,3.89715697 32.3434236,4.69426753 28.33,6.59 C28.3583948,4.71822341 28.2211937,2.84760283 27.92,1 C27.85711,0.687631114 27.6491222,0.423932226 27.36,0.29 C27.0769524,0.147371407 26.7430476,0.147371407 26.46,0.29 C-0.8,14.87 0.22,34.12 0.27,34.93 C0.286068837,35.171389 0.389100299,35.3987688 0.56,35.57 L10.88,45.89 C11.0512312,46.0608997 11.278611,46.1639312 11.52,46.18 L12.13,46.18 C15.62,46.18 32.82,44.86 46.13,19.98 C46.2823313,19.697457 46.2897707,19.3589628 46.15,19.07 Z M42.89,13.81 C42.761548,15.348297 42.4251516,16.8620807 41.89,18.31 C41.23,18.31 40.48,18.31 39.68,18.39 C40.2025389,17.3799784 40.6439302,16.3300022 41,15.25 C41.59,14.8 42.27,14.29 42.89,13.81 L42.89,13.81 Z M40.19,6.24 C40.400563,10.569224 39.3590001,14.8674068 37.19,18.62 C36.35,18.73 35.46,18.88 34.53,19.07 C34.9151363,16.88881 35.0126338,14.6665384 34.82,12.46 C34.7638281,12.004802 34.405198,11.6461719 33.95,11.59 C31.919553,11.4041313 29.8738771,11.4713127 27.86,11.79 C28.0373454,10.8474475 28.1641929,9.89609093 28.24,8.94 C31.9059684,6.9761561 36.0358192,6.04305174 40.19,6.24 L40.19,6.24 Z M37.27,29.77 C34.21,31.34 29.85,33.31 26.27,33 C25.7177153,32.9530558 25.2319442,33.3627153 25.185,33.915 C25.1380558,34.4672847 25.5477153,34.9530558 26.1,35 C26.41,35 26.73,35 27.04,35 C29.392876,34.9089491 31.7100084,34.3940308 33.88,33.48 C23.7,43.57 14,44.18 12,44.19 L2.26,34.44 C2.26,32.44 2.85,22.44 13.4,12.1 C12.3642732,14.9244712 11.8887483,17.9236749 12,20.93 C12.046703,21.4468638 12.4810348,21.8421057 13,21.84 L13.09,21.84 C13.3556415,21.8171764 13.6011698,21.6892169 13.7720405,21.4845475 C13.9429112,21.2798782 14.0249745,21.0154479 14,20.75 C13.73,17.75 14.76,13.37 16.74,9.11 C19.678094,6.7177811 22.8239175,4.59267692 26.14,2.76 C26.52,6.09 26.91,14.68 21.91,19.67 C21.7206873,19.8577666 21.6142017,20.1133625 21.6142017,20.38 C21.6142017,20.6466375 21.7206873,20.9022334 21.91,21.09 C22.3000375,21.4777236 22.9299625,21.4777236 23.32,21.09 C25.2607887,19.0800427 26.6579912,16.609128 27.38,13.91 C29.2032371,13.5758829 31.057916,13.4450828 32.91,13.52 C32.9905251,15.5528197 32.8226168,17.5878686 32.41,19.58 C26.1081802,21.2560474 20.3696897,24.5879627 15.79,29.23 C15.5046238,29.4743899 15.3803181,29.8581184 15.4681899,30.223419 C15.5560617,30.5887195 15.8412805,30.8739383 16.206581,30.9618101 C16.5718816,31.0496819 16.9556101,30.9253762 17.2,30.64 C24.1918957,23.6685042 33.7858805,19.9469812 43.65,20.38 C41.8077185,23.6940633 39.6725348,26.8365986 37.27,29.77 L37.27,29.77 Z"/>
        <path id="Path" fill="#3D454C" d="M14.35,32 L14.16,32 C13.6077153,32 13.16,32.4477153 13.16,33 C13.16,33.5522847 13.6077153,34 14.16,34 L14.35,34 C14.9022847,34 15.35,33.5522847 15.35,33 C15.35,32.4477153 14.9022847,32 14.35,32 Z"/>
      </g>
    </g>
  </g>
</svg>
