<svg xmlns="http://www.w3.org/2000/svg" width="64" height="64" viewBox="0 0 64 64" style="background:#fff">
  <g id="Räucherschinken" fill="none" fill-rule="evenodd" stroke="none" stroke-width="1">
    <rect width="64" height="64" fill="#FFF"/>
    <g id="1-5-Räucherschinken" fill-rule="nonzero" transform="translate(5 9)">
      <path id="Path" fill="#C17953" d="M26.77,31.53 C26.1154914,31.3499404 25.4245086,31.3499404 24.77,31.53 C22.6975558,30.4636841 20.2244332,30.5277742 18.21,31.7 C14.6,33.81 12.82,37.63 12.09,41.61 C11.74,43.53 12.2,46.61 13.94,47.91 C18.19,50.98 24.83,52.91 29.58,49.62 C35.32,45.67 33.82,33.32 26.77,31.53 Z" opacity=".5"/>
      <path id="Path" fill="#C17953" d="M11.87,40.71 C12.0907277,39.0406397 11.51712,37.3642248 10.32,36.18 C8.61,34.65 6.27,35.47 4.32,35.89 C2,36.38 1,38.48 0.89,40.7 C0.78,42.92 1.43,45.55 3.59,46.61 C4.26,46.93 4.91,47.27 5.59,47.61 L6.47,48.11 L6.68,48.23 L6.95,48.39 C7.75610776,49.0411532 8.84118422,49.2301909 9.82,48.89 C11.16,48.41 11.82,46.81 12.15,45.56 C12.5461877,43.9519307 12.4486127,42.2617922 11.87,40.71 L11.87,40.71 Z" opacity=".5"/>
      <path id="Shape" fill="#3D454C" d="M33.05,40.12 C32.5409608,39.35498 31.9091349,38.6792305 31.18,38.12 C29.7039932,36.9636099 28.5531843,35.4441287 27.84,33.71 C27.4359468,32.6331323 26.7649644,31.6765523 25.89,30.93 C24.5930501,29.9752792 23.0090186,29.4919555 21.4,29.56 C20.8376504,29.5731612 20.2781004,29.6435238 19.73,29.77 C19.6634278,29.7649804 19.5965722,29.7649804 19.53,29.77 C15.5438947,30.7929128 11.7509366,32.4580316 8.3,34.7 C7.3,35.31 6.4,35.82 5.6,36.27 C3.48,37.46 1.95,38.27 1.19,39.87 C-0.68,43.71 -0.2,44.79 2.19,46.11 C3.15833206,46.6114046 4.05056931,47.2477549 4.84,48 C7.84,50.86 11.24,54.06 19.76,54.06 C20.5,54.06 21.29,54.06 22.12,53.99 L22.12,53.99 C23.6527915,53.8971269 25.161335,53.5630199 26.59,53 C27.9448789,52.4995598 29.2083628,51.779982 30.33,50.87 C31.8390026,49.7028957 32.9866177,48.1322926 33.64,46.34 C34.4405156,44.2903743 34.2216071,41.9825594 33.05,40.12 Z M3.14,44.35 C1.72,43.57 1.64,43.52 2.99,40.75 C3.47,39.75 4.71,39.06 6.58,38.02 C7.4,37.56 8.33,37.02 9.36,36.39 C10.8874584,35.4427734 12.4702939,34.5879086 14.1,33.83 C11.72,37.03 10.1,41.47 10.44,44.83 C10.5155079,46.0719346 10.7994729,47.2923081 11.28,48.44 C11.7424688,49.4130808 12.3953337,50.2835673 13.2,51 L13.36,51.14 C10.6319565,50.2045614 8.17865463,48.6068227 6.22,46.49 C5.29613066,45.6390445 4.25978373,44.9189853 3.14,44.35 Z M31.74,45.71 C31.210778,47.1479272 30.2850387,48.4065165 29.07,49.34 C28.1144702,50.1107655 27.0406168,50.721984 25.89,51.15 C24.6459465,51.6356252 23.3332253,51.9224666 22,52 C20.5196779,52.0870322 19.0363694,51.8901629 17.63,51.42 C16.4762994,51.0383015 15.4140391,50.4220543 14.51,49.61 C13.9005981,49.0422253 13.4050783,48.363431 13.05,47.61 C12.902357,47.2573516 12.7852604,46.8926795 12.7,46.52 C14.7232666,47.3304221 16.8805164,47.7544099 19.06,47.77 C21.9076153,47.6558713 24.6988083,46.9401808 27.25,45.67 C28.42,45.13 27.4,43.41 26.25,43.94 C24.0130021,45.0508668 21.5658129,45.6745933 19.07,45.77 C16.756031,45.7461004 14.4743312,45.2242767 12.38,44.24 C12.28,40.76 14.68,35 18.07,32.61 C19.0615886,31.9572208 20.2228318,31.6095432 21.41,31.61 L21.55,31.61 C22.6666719,31.583274 23.7594398,31.9357798 24.65,32.61 C25.2529124,33.159592 25.7157655,33.8453004 26,34.61 C26.8410392,36.619197 28.1797488,38.3812003 29.89,39.73 C30.4525509,40.1546961 30.9422783,40.6680655 31.34,41.25 C32.1688022,42.5905363 32.3170392,44.2433793 31.74,45.71 L31.74,45.71 Z"/>
      <path id="Path" fill="#3D454C" d="M29.44 42.09C28.8877153 42.09 28.44 42.5377153 28.44 43.09 28.44 43.6422847 28.8877153 44.09 29.44 44.09 29.9922847 44.09 30.44 43.6422847 30.44 43.09 30.44 42.5377153 29.9922847 42.09 29.44 42.09zM19.22 23.61C19.4522156 23.7664675 19.6081919 24.0131278 19.65 24.29 19.6106931 24.7149695 19.4272028 25.1137082 19.13 25.42 18.847392 25.7083039 18.7658618 26.1382621 18.9233083 26.5100106 19.0807547 26.8817592 19.4462913 27.1223715 19.85 27.1200174 20.1172459 27.1188906 20.3729286 27.0108556 20.56 26.82 21.2476398 26.1166927 21.6349184 25.1735974 21.64 24.19 21.5857226 23.3438617 21.1613534 22.5646321 20.48 22.06 20.2477844 21.9035325 20.0918081 21.6568722 20.05 21.38 20.0910169 20.9712284 20.2669299 20.587738 20.55 20.29 20.9377236 19.8999625 20.9377236 19.2700375 20.55 18.88 20.3622334 18.6906873 20.1066375 18.5842017 19.84 18.5842017 19.5733625 18.5842017 19.3177666 18.6906873 19.13 18.88 18.451005 19.5776808 18.061535 20.5066917 18.04 21.48 18.1145496 22.3248832 18.5432527 23.0987287 19.22 23.61L19.22 23.61zM14.54 26.75C14.6091712 26.7959886 14.6729108 26.849664 14.73 26.91L14.73 26.91C14.6741181 27.0716404 14.5777135 27.2162473 14.45 27.33 14.0367098 27.6880925 13.9877078 28.3117546 14.34 28.73 14.5281118 28.9558655 14.8060695 29.0875296 15.1 29.09 15.3349008 29.0876553 15.5614782 29.0026887 15.74 28.85 16.3488139 28.3608776 16.7139904 27.6305245 16.74 26.85 16.6841956 26.1367995 16.2851018 25.4952655 15.67 25.13 15.6033138 25.0807801 15.5398504 25.0273373 15.48 24.97L15.48 24.97C15.5323472 24.8203973 15.625952 24.6886573 15.75 24.59 16.1890664 24.2337763 16.2562237 23.5890664 15.9 23.15 15.5437763 22.7109336 14.8990664 22.6437763 14.46 23 13.8553807 23.4924945 13.4912241 24.2208078 13.46 25 13.5084375 25.7260441 13.9127436 26.3811699 14.54 26.75L14.54 26.75zM25 26.75C25.0720087 26.7920875 25.1362721 26.8462041 25.19 26.91L25.19 26.91C25.1371721 27.0731364 25.040269 27.218491 24.91 27.33 24.4967098 27.6880925 24.4477078 28.3117546 24.8 28.73 24.9709706 28.9330364 25.2156482 29.05977 25.4801252 29.0822787 25.7446022 29.1047874 26.0071775 29.0212242 26.21 28.85 26.8146193 28.3575055 27.1787759 27.6291922 27.21 26.85 27.1575325 26.1357081 26.7575556 25.4927546 26.14 25.13 26.0733138 25.0807801 26.0098504 25.0273373 25.95 24.97L25.95 24.97C26.0062805 24.8224657 26.0991994 24.691691 26.22 24.59 26.6590664 24.2254921 26.7195079 23.5740664 26.355 23.135 25.9904921 22.6959336 25.3390664 22.6354921 24.9 23 24.2953807 23.4924945 23.9312241 24.2208078 23.9 25 23.9527454 25.7299916 24.3650657 26.3859557 25 26.75L25 26.75z"/>
      <path id="Path" fill="#E05362" d="M48.66,18 C48.1360246,16.922253 47.2038122,16.0980189 46.07,15.71 C44.8604873,15.3212668 43.6077449,15.0828091 42.34,15 C41.2280879,14.9204427 40.1119121,14.9204427 39,15 C37.13,15.11 36.18,15.47 35.24,16.94 C34.3,18.41 34,20.74 35.38,22 C36.33,22.92 37,23.59 38.5,23.51 C39.72,23.45 40.97,23.24 42.2,23.15 C43.43,23.06 44.44,22.99 45.53,22.81 C46.6736198,22.7072012 47.7235379,22.1351769 48.43,21.23 C49.1031247,20.2805109 49.1917939,19.0352883 48.66,18 L48.66,18 Z" opacity=".5"/>
      <path id="Path" fill="#E0A075" d="M41.6,3.89 C34.31,3.51 28.15,10.76 28.6,17.75 C28.75,20.07 31.89,24.8 33.84,20.88 C35.51,17.5 37.02,14.23 41.32,13.94 C45.15,13.67 47.83,16.35 50.05,19.09 C51.34,20.68 53.05,19.51 53.26,17.71 C53.6183325,14.3160753 52.5767842,10.9228314 50.3760448,8.31440792 C48.1753054,5.7059844 45.0058128,4.10809734 41.6,3.89 Z" opacity=".5"/>
      <path id="Shape" fill="#3D454C" d="M50.87,9 L51.04,8.83 C53.04,6.72 53.44,4.71 53.44,1.74 C53.44,1.18771525 52.9922847,0.74 52.44,0.74 C49.54,0.74 47.59,1.14 45.57,3.25 C45.3110957,3.51957983 45.0673859,3.80335144 44.84,4.1 C42.30311,3.28984954 39.57689,3.28984954 37.04,4.1 C36.77,3.76 36.53,3.48 36.31,3.25 C34.31,1.14 32.31,0.74 29.44,0.74 C28.8877153,0.74 28.44,1.18771525 28.44,1.74 C28.44,4.74 28.82,6.74 30.84,8.83 L31,9 C31.27,9.29 31.62,9.66 32,10 C31,11.9 28.43,17.05 28.43,18.91 C28.43,23.17 33.56,27.91 40.93,27.91 C48.3,27.91 53.43,23.16 53.43,18.91 C53.43,17.05 50.85,11.91 49.86,10 C50.25,9.69 50.58,9.33 50.87,9 Z M51.44,19 C51.44,21.93 47.44,26 40.94,26 C34.44,26 30.44,21.92 30.44,19 C30.44,17.94 32.44,13.55 34.15,10.31 C34.4082388,9.86853787 34.2917543,9.30337194 33.88,9 C33.3662923,8.59092816 32.8879363,8.13933336 32.45,7.65 L32.28,7.48 C31.0499488,6.24030128 30.3906702,4.54501355 30.46,2.8 C32.1332274,2.73459796 33.749003,3.41608152 34.87,4.66 C35.2278189,5.05647397 35.5617417,5.47387751 35.87,5.91 C36.1392359,6.27993427 36.6252018,6.41995837 37.05,6.25 C39.5494022,5.26289339 42.3305978,5.26289339 44.83,6.25 C45.2519918,6.41476472 45.732034,6.27526527 46,5.91 C46.3048014,5.47128765 46.6388956,5.05366997 47,4.66 C48.1207603,3.40981033 49.7425623,2.72733255 51.42,2.8 C51.483888,4.54306606 50.8211175,6.23439861 49.59,7.47 L49.42,7.65 C48.9859677,8.13960995 48.5109077,8.59125157 48,9 C47.6100467,9.2994057 47.4955738,9.83785218 47.73,10.27 C49.48,13.49 51.44,17.89 51.44,19 Z"/>
      <path id="Path" fill="#3D454C" d="M38.41 17.38C37.2541092 17.3855043 36.32 18.3240961 36.32 19.48 36.32 20.0322847 36.7677153 20.48 37.32 20.48 37.8722847 20.48 38.32 20.0322847 38.32 19.48 38.32 19.37 38.51 19.37 38.51 19.48 38.51 20.0322847 38.9577153 20.48 39.51 20.48 40.0622847 20.48 40.51 20.0322847 40.51 19.48 40.51 18.320202 39.569798 17.38 38.41 17.38zM43.36 17.38C42.2041092 17.3855043 41.27 18.3240961 41.27 19.48 41.27 20.0322847 41.7177153 20.48 42.27 20.48 42.8222847 20.48 43.27 20.0322847 43.27 19.48 43.27 19.37 43.46 19.37 43.46 19.48 43.46 20.0322847 43.9077153 20.48 44.46 20.48 45.0122847 20.48 45.46 20.0322847 45.46 19.48 45.46 18.320202 44.519798 17.38 43.36 17.38z"/>
      <path id="Shape" fill="#3D454C" d="M40.94,13.94 C36.38,13.94 32.81,16.26 32.81,19.22 C32.81,22.18 36.38,24.5 40.94,24.5 C45.5,24.5 49.07,22.18 49.07,19.22 C49.07,16.26 45.5,13.94 40.94,13.94 Z M40.94,22.5 C37.32,22.5 34.81,20.77 34.81,19.22 C34.81,17.67 37.32,15.94 40.94,15.94 C44.56,15.94 47.07,17.67 47.07,19.22 C47.07,20.77 44.55,22.5 40.94,22.5 Z"/>
      <path id="Path" fill="#3D454C" d="M37.49 12.15C38.0422847 12.15 38.49 11.7022847 38.49 11.15 38.49 10.5977153 38.0422847 10.15 37.49 10.15 36.9377153 10.15 36.49 10.5977153 36.49 11.15 36.49 11.7022847 36.9377153 12.15 37.49 12.15zM44 12.15C44.5522847 12.15 45 11.7022847 45 11.15 45 10.5977153 44.5522847 10.15 44 10.15 43.4477153 10.15 43 10.5977153 43 11.15 43 11.7022847 43.4477153 12.15 44 12.15z"/>
    </g>
  </g>
</svg>
