<svg xmlns="http://www.w3.org/2000/svg" width="64" height="64" viewBox="0 0 64 64" style="background:#fff">
  <g id="Rapsöl" fill="none" fill-rule="evenodd" stroke="none" stroke-width="1">
    <rect width="64" height="64" fill="#FFF"/>
    <g transform="translate(2 2)">
      <rect id="Rectangle" width="60" height="60" x="0" y="0"/>
      <path id="Path" fill="#D4BA39" fill-rule="nonzero" d="M50.7,39.07 C49.79,35.07 47.21,31.07 43.31,29.37 C39.41,27.67 35.31,30.37 31.75,29.37 C29.59,26.32 28.33,23.08 24.16,21.7 C19.9996047,20.3983402 15.4678949,21.8080285 12.78,25.24 C11.5458154,26.7572722 10.7289052,28.5703301 10.41,30.5 C9.13,33.5 8.92,37.35 8.41,40.23 C7.57,44.65 6.95,49.85 9.87,53.73 C12.67,57.45 18.01,58.11 22.29,58.8 C27.6079062,59.5043439 33.0121386,59.1646687 38.2,57.8 C47.31,55.76 52.88,48.71 50.7,39.07 Z" opacity=".5"/>
      <path id="Shape" fill="#3D454C" fill-rule="nonzero" d="M27.77,50.18 C27.71,53.11 28.1,55.6 24.6,56.94 C23.39,57.4 21.24,56.94 19.92,56.94 C18.6,56.94 16.69,57.32 15.43,56.94 C12.43,56.03 12.43,54.94 12.15,52.84 C11.62,49.1 12.15,44.84 12.15,41.12 L12.15,27.67 C12.15,24.2 11.57,21.17 14.02,18.32 C16.47,15.47 17.67,14.19 17.13,9.9 L17.13,9.84 L22.93,9.84 C22.8025649,10.5534588 22.7290237,11.2754993 22.71,12 C22.71,17 27.25,18.39 27.71,23.35 C28.02,26.98 27.71,30.78 27.71,34.42 C27.71,34.9722847 28.1577153,35.42 28.71,35.42 C29.2622847,35.42 29.71,34.9722847 29.71,34.42 C29.71,30.32 30.19,25.83 29.71,21.75 C29.38,19.07 28.11,17.89 26.33,16.02 C24.55,14.15 24.2,11.65 24.73,9.02 C24.58,9.76 25.45,8.14 25.47,8.02 C25.6247404,6.98240419 25.6247404,5.92759581 25.47,4.89 C25.18,2.57 24.22,1.41 21.86,1 C17.59,0.2 14.32,1.66 14.35,6.22 C14.35,10.35 16.66,12.86 12.86,16.7 C9.91,19.7 10.15,22.36 10.15,26.22 L10.15,44 C10.15,47.45 9.56,51.48 10.15,54.88 C11.15,60.22 17.77,58.97 21.8,58.97 C24.18,58.97 26.93,59.23 28.65,57.2 C30.18,55.4 29.7,52.38 29.74,50.2 C29.6611724,49.7206137 29.249202,49.367239 28.763403,49.362307 C28.2776039,49.357375 27.8585441,49.7023129 27.77,50.18 Z M20.35,2.94 C23.3,3.44 23.49,5.53 23.22,7.84 L16.79,7.84 C16.35,5.21 16.19,2.22 20.35,2.94 Z"/>
      <path id="Shape" fill="#3D454C" fill-rule="nonzero" d="M21.06 29.57L21.06 29.51 21.06 29.51C21.0628719 29.4901031 21.0628719 29.4698969 21.06 29.45 20.8708336 29.2020854 20.5768422 29.0566094 20.265 29.0566094 19.9531578 29.0566094 19.6591664 29.2020854 19.47 29.45L19.42 29.51 19.42 29.51 19.42 29.57C17.66 32.25 15.35 35.47 14.9 38.69 14.6732011 40.2957435 15.1325973 41.9228037 16.165711 43.1728142 17.1988247 44.4228247 18.7102745 45.1803794 20.33 45.26 21.926644 45.185032 23.4203429 44.4499763 24.4538387 43.2306409 25.4873344 42.0113055 25.9676844 40.4173459 25.78 38.83 25.4 35.56 23.02 32.27 21.25 29.57L21.06 29.57zM20.15 43.28C15.66 43.28 16.7 38.28 17.95 35.75 18.61 34.43 19.36 33.14 20.15 31.88 20.87 33.04 21.57 34.22 22.2 35.44 23.49 38 24.86 43.28 20.15 43.28zM47.92 36.75C47.1920927 36.4394941 46.3972175 36.3190585 45.61 36.4 45.8 33.4 42.87 30.4 39.41 30.53 37.0295652 30.5865764 34.8801261 31.968083 33.84 34.11 33.5340709 34.8145587 33.4135802 35.5856993 33.49 36.35 30.39 36.01 27.24 39.01 27.41 42.55 27.469902 44.9297354 28.8557641 47.0760845 31 48.11 31.7661629 48.4470718 32.6108745 48.5647775 33.44 48.45 33.4947311 50.0416317 34.1799932 51.5462077 35.3448129 52.6322473 36.5096326 53.7182869 38.0584365 54.2966808 39.65 54.24 42.024724 54.1729929 44.1662456 52.7940995 45.21 50.66 45.5039593 49.9870664 45.6276028 49.2520749 45.57 48.52 48.63 48.75 51.68 45.8 51.51 42.32 51.4470101 39.9387241 50.062668 37.7908729 47.92 36.75zM44.73 46.2C44.3916815 45.7221714 43.963754 45.3146213 43.47 45 42.56 44.41 41.7 45.55 42.11 46.34 42.1383912 46.5248986 42.218076 46.6981265 42.34 46.84 42.6781371 47.2258013 43.0685883 47.5623972 43.5 47.84 44.5 49.84 41.3 52.36 39.14 52.26 36.56 52.14 34.53 49.48 35.85 47.32 36.155318 47.0492078 36.4242274 46.739962 36.65 46.4 36.6773109 46.3554304 36.7007309 46.3085905 36.72 46.26 36.9446099 45.8211715 36.8159101 45.2841221 36.4167959 44.9947643 36.0176817 44.7054065 35.4672361 44.7500754 35.12 45.1 34.731422 45.4239102 34.39425 45.8049146 34.12 46.23 32.01 47.8 29.26 44.35 29.37 42.07 29.5 39.36 32.42 37.25 34.63 39.01 34.896529 39.3062798 35.1988458 39.5682877 35.53 39.79 36.62 40.48 37.62 38.79 36.53 38.06L36.53 38.06C36.2784889 37.7804939 36.0005275 37.5259751 35.7 37.3 34.14 35.19 37.59 32.44 39.87 32.55 42.42 32.68 44.44 35.28 43.2 37.43 42.810977 37.7341203 42.4733413 38.098767 42.2 38.51 41.66 39.36 42.59 40.15 43.35 39.95 43.5419371 39.9252648 43.7225735 39.8453679 43.87 39.72 44.256352 39.3899969 44.5931449 39.006053 44.87 38.58 46.96 37.26 49.59 40.58 49.48 42.85 49.38 45.33 46.86 47.32 44.73 46.2z"/>
      <path id="Path" fill="#3D454C" fill-rule="nonzero" d="M39.3,41.52 C38.7477153,41.52 38.3,41.9677153 38.3,42.52 C38.3,43.0722847 38.7477153,43.52 39.3,43.52 C39.8522847,43.52 40.3,43.0722847 40.3,42.52 C40.3,41.9677153 39.8522847,41.52 39.3,41.52 Z"/>
    </g>
  </g>
</svg>
