<svg xmlns="http://www.w3.org/2000/svg" width="64" height="64" viewBox="0 0 64 64" style="background:#fff">
  <g id="Reis" fill="none" fill-rule="evenodd" stroke="none" stroke-width="1">
    <rect width="64" height="64" fill="#FFF"/>
    <g id="25-Reis" transform="translate(2 4)">
      <rect id="Rectangle" width="60" height="60" x="0" y="0"/>
      <path id="Path" fill="#CCC" d="M55,37 C55.21,35.78 54.9,28.95 54,26.94 C50.18,17.94 34.41,24.22 34.31,24.21 C31.15,23.84 28.57,25.27 25.98,26.86 C24.69,27.66 20.82,28.47 20.75,26.37 C20.62,21.95 18.01,13.93 12.08,14.64 C6.15,15.35 4.93,23.65 4.68,28.34 C4.51,31.45 5.86,36.34 6.96,38.92 C5.5,42.8 5,45.88 7.21,49.26 C11.58,56 20.48,54.92 27.5,54.93 C34.98,54.93 47.16,56.79 52.79,50.64 C57.38,45.62 55.05,37.07 55,37 Z" opacity=".5"/>
      <path id="Path" fill="#3D454C" fill-rule="nonzero" d="M48.12,32.1 C48.6722847,32.1 49.12,31.6522847 49.12,31.1 C49.12,30.5477153 48.6722847,30.1 48.12,30.1 C47.5677153,30.1 47.12,30.5477153 47.12,31.1 C47.12,31.6522847 47.5677153,32.1 48.12,32.1 Z"/>
      <path id="Shape" fill="#3D454C" fill-rule="nonzero" d="M55.7,10.26 C55.7,10.26 55.7,10.26 55.7,10.2 C55.688737,10.0932923 55.6617796,9.98883244 55.62,9.89 C55.62,9.89 55.62,9.89 55.62,9.84 C55.5215698,9.56424659 55.286655,9.3596434 55,9.3 C49.4433574,8.62177105 43.8474148,8.31775267 38.25,8.39 C35.61,8.39 32.96,8.34 30.32,8.45 C28.7044971,8.34081121 27.101759,8.80075811 25.79,9.75 C23.52,11.48 20.54,14.23 19.99,17.18 C19.9950352,17.2097887 19.9950352,17.2402113 19.99,17.27 C19.984589,17.329878 19.984589,17.390122 19.99,17.45 C19.99,20.45 19.9,23.36 19.89,26.32 C19.89,26.8722847 20.3377153,27.32 20.89,27.32 C21.4422847,27.32 21.89,26.8722847 21.89,26.32 C21.89,23.69 21.96,21.07 21.98,18.44 C27.22,18.44 32.47,18.34 37.72,18.31 C40.16,18.31 42.6,18.31 45.04,18.31 C45.78,18.31 46.52,18.31 47.25,18.38 L47.25,18.38 C47.2791084,18.4751807 47.3024837,18.5720212 47.32,18.67 C47.7,21.26 47.32,23.9 47.45,26.49 C47.53,27.77 49.53,27.78 49.45,26.49 C49.3,23.98 49.6,21.49 49.35,18.94 C49.3242067,18.5742893 49.2774633,18.2103586 49.21,17.85 C50.8860906,16.625672 52.449016,15.2535104 53.88,13.75 C54.14,24.75 53.24,35.75 53.75,46.75 C52.29,48.23 50.83,49.75 49.46,51.28 C49.64,46.05 49.59,40.81 49.36,35.58 C49.3,34.3 47.3,34.29 47.36,35.58 C47.62,41.48 47.65,47.38 47.36,53.28 C42.27,53.72 37.16,53.8 32.05,53.81 L24.11,53.81 C23.35,53.81 22.16,53.67 21.87,52.96 C21.7430504,52.0991074 21.7228979,51.2258323 21.81,50.36 C21.81,49.8077153 21.3622847,49.36 20.81,49.36 C20.2577153,49.36 19.81,49.8077153 19.81,50.36 C19.81,52.27 19.55,54.15 21.46,55.22 C22.27517,55.6487673 23.1899221,55.8524291 24.11,55.81 L29.06,55.81 C35.48,55.81 41.9,55.81 48.3,55.21 C48.3365287,55.2144983 48.3734713,55.2144983 48.41,55.21 C48.4830379,55.2193094 48.5569621,55.2193094 48.63,55.21 C48.6864971,55.1860084 48.7401586,55.1558239 48.79,55.12 C48.8367241,55.0992824 48.8804494,55.0723745 48.92,55.04 L49.06,54.9 L49.16,54.8 C51.0555865,52.3830022 53.1243719,50.107004 55.35,47.99 C55.5985035,47.8164882 55.7326715,47.5213186 55.7,47.22 C55.09,34.83 56.31,22.54 55.7,10.26 Z M47.76,16.43 C47.44,16.43 47.12,16.43 46.83,16.37 C41.51,16.09 36.13,16.31 30.83,16.37 L22.35,16.44 C23.4401356,14.5223389 24.9223783,12.8560937 26.7,11.55 C28.07,10.44 28.84,10.5 30.6,10.44 C35.9,10.25 41.24,10.38 46.54,10.62 C48.79,10.72 51.07,10.82 53.31,11.09 C52.13,13.28 49.67,14.91 47.76,16.43 L47.76,16.43 Z"/>
      <path id="Path" fill="#3D454C" fill-rule="nonzero" d="M13.71 24.09L13.6 24.09C13.636247 24.0821548 13.673753 24.0821548 13.71 24.09L13.71 24.09zM8.62 35.09C8.62 35.03 8.68 35.09 8.67 35.09L8.62 35.09zM11.43 30.64L11.43 30.64C11.49 30.69 11.45 30.66 11.43 30.64zM22.84 45.59L22.84 45.59C22.84 45.59 22.9 45.49 22.84 45.59zM22.6 43.81C22.51 43.64 22.55 43.69 22.6 43.75 22.6043361 43.769765 22.6043361 43.790235 22.6 43.81L22.6 43.81zM22.62 45.8C22.62 45.8 22.62 45.74 22.67 45.74L22.62 45.8z"/>
      <path id="Shape" fill="#3D454C" fill-rule="nonzero" d="M29.62 34.94C23.78 36.49 24.43 24.04 30.01 26.19 32.84 27.64 32.73 33.92 29.62 34.94zM29.12 27.94L28.6 33.02C30.28 33.02 30.48 29.6 29.4 28.24 29.2376761 28.0244138 28.9604562 27.929367 28.7 28 27.19 28.44 27.18 31.95 28.22 32.88 28.3207035 32.9825491 28.4564305 33.0432691 28.6 33.05L29.12 27.94zM13.91 27.35C9 30.8 5.32 18.88 11.29 19 14.45 19.39 16.49 25.32 13.91 27.35zM12.31 26C13.89 25.42 12.91 22.14 11.42 21.23 11.1980301 21.0857995 10.9119699 21.0857995 10.69 21.23 9.42 22.16 10.62 25.47 11.91 25.99 12.0474149 26.0130341 12.1885741 25.9883312 12.31 25.92L12.31 26zM34.32 47.26C29.37 50.71 25.73 38.79 31.7 38.91 34.86 39.3 36.9 45.24 34.32 47.26zM31.47 40.88L32.72 45.83C34.3 45.26 33.32 41.98 31.84 41.07 31.6165305 40.9187127 31.3234695 40.9187127 31.1 41.07 29.83 42 31.03 45.31 32.32 45.82 32.447349 45.8734352 32.59014 45.877005 32.72 45.83L31.47 40.88z"/>
      <path id="Path" fill="#3D454C" fill-rule="nonzero" d="M12.54,43.39 C12.54,43.39 12.54,43.32 12.54,43.31 L12.54,43.39 Z"/>
      <path id="Shape" fill="#3D454C" fill-rule="nonzero" d="M11.22,50 C5.92,50.14 9.01,37.91 13.56,41.52 C16,43.41 14.62,49.85 11.22,50 Z M12.68,45.28 C12.97,41.78 10.68,42.92 10.43,45.61 C10.08,48.85 12.44,48.12 12.68,45.23 L12.68,45.28 Z"/>
      <path id="Shape" fill="#3D454C" fill-rule="nonzero" d="M13.24 38.46C9.1 41.77 4.24 30.14 10.01 30.28 13.14 30.36 15.9 36.34 13.24 38.46zM11.58 33.82C9.7 30.82 8.58 33.11 9.98 35.44 11.68 38.27 13.12 36.27 11.58 33.82zM35.6 37.49C30.7 35.49 38.49 25.55 41.18 30.69 42.64 33.47 38.75 38.78 35.6 37.49zM38.85 33.78C40.54 30.7 38.02 30.78 36.66 33.17 35 36 37.46 36.32 38.85 33.78z"/>
      <path id="Path" fill="#3D454C" fill-rule="nonzero" d="M11.37 47.89L11.37 47.89C11.3 47.92 11.42 47.86 11.37 47.89zM10.85 44L10.85 44.09 10.85 44zM31.26 45.45C31.2796136 45.4444401 31.3003864 45.4444401 31.32 45.45L31.26 45.45zM21.61 32.58L21.61 32.58C21.62 32.68 21.6 32.5 21.61 32.58zM19.36 36C19.36 36 19.42 36 19.44 36L19.36 36z"/>
      <path id="Shape" fill="#3D454C" fill-rule="nonzero" d="M18.38,37.74 C15.95,36.05 16.53,30.8 18.94,29.45 C25.31,25.89 24.69,40.7 18.38,37.74 Z M18.9,33.87 C18.77,37.72 22.05,35.87 21.62,32.61 C21.22,29.75 19,31.38 18.9,33.87 Z"/>
      <path id="Shape" fill="#3D454C" fill-rule="nonzero" d="M25.07,40.18 C26.72,42.64 24.26,47.32 21.53,47.7 C14.3,48.69 20.27,35.12 25.07,40.18 Z M23.17,43.59 C24.7,40.06 20.98,40.59 20.17,43.77 C19.51,46.59 22.18,45.88 23.17,43.59 L23.17,43.59 Z"/>
      <path id="Path" fill="#3D454C" fill-rule="nonzero" d="M20 31.17C19.9 31.27 19.9 31.26 19.93 31.23L20 31.17zM19.63 31.49C19.6648466 31.4652733 19.6952733 31.4348466 19.72 31.4 19.6979198 31.4369931 19.6669931 31.4679198 19.63 31.49L19.63 31.49zM19.12 35.63C19.12 35.63 19.12 35.63 19.12 35.63 19.12 35.63 19.09 35.53 19.12 35.63z"/>
    </g>
  </g>
</svg>
