<svg xmlns="http://www.w3.org/2000/svg" width="64" height="64" viewBox="0 0 64 64" style="background:#fff">
  <g id="Reisdrink" fill="none" fill-rule="evenodd" stroke="none" stroke-width="1">
    <rect width="64" height="64" fill="#FFF"/>
    <g transform="translate(2 4)">
      <rect id="Rectangle" width="60" height="60" x="0" y="0"/>
      <path id="Path" fill="#CCC" fill-rule="nonzero" d="M53.31,35.67 C52.5,29.18 49.92,22.43 43.61,19.13 C38.4690174,16.5394562 32.4393757,16.3817466 27.17,18.7 C24.0527228,18.2524869 20.8753131,18.4913899 17.86,19.4 C10.3,21.6 10.12,29 6.08,34.29 C1.86,39.85 0.38,48.11 6,53.48 C11.83,59.09 20,55.68 27.14,55.32 C31.3786958,55.1257564 35.6260224,55.3838812 39.81,56.09 C43.26,56.66 46.42,57.85 49.47,55.7 C55.15,51.66 54.05,41.57 53.31,35.67 Z" opacity=".5"/>
      <path id="Shape" fill="#3D454C" fill-rule="nonzero" d="M23.07 36.7C22.64 34.77 21.32 31.7 18.81 32.64 16.54 33.51 17.13 36.07 17.54 37.93 17.95 39.79 19.23 42.83 21.69 42.05 24.15 41.27 23.45 38.62 23.07 36.7zM21.16 40.12C20.16 40.51 19.6 37.98 19.46 37.4 19.32 36.82 18.8 35.32 19.18 34.77 20.09 33.43 21.03 36.77 21.18 37.23 21.33 37.69 22 39.8 21.16 40.12L21.16 40.12zM13.51 31.16C11.22 30.02 9.81 32.42 8.75 34.05 7.6 35.83 6.27 38.05 8.36 39.69 10.74 41.57 12.36 38.86 13.55 37.07 14.74 35.28 15.85 32.33 13.51 31.16zM9.39 38C8.78 37.19 10.05 35.77 10.48 35.11 10.91 34.45 11.63 32.79 12.43 32.93 13.59 33.13 12.11 35.65 11.83 36.11 11.55 36.57 10.29 39.15 9.39 38zM17.27 44.15C14.83 45.07 15.61 47.63 16.27 49.51 16.93 51.39 18.36 53.99 20.63 53.22 23.23 52.33 22.34 49.76 21.68 47.83 21.06 46.08 19.57 43.28 17.27 44.15zM20.38 51.15C19.56 52.26 18.38 49.46 18.2 49.01 18.02 48.56 17.2 46.77 17.63 46.26 18.51 45.26 19.58 47.87 19.76 48.39 19.94 48.91 20.81 50.53 20.38 51.12L20.38 51.15zM29 26.61C26.46 26.4 25.91 29 25.52 31 25.13 33 25.06 36.38 27.71 36.75 30.36 37.12 30.92 34.44 31.35 32.38 31.78 30.32 31.82 26.83 29 26.61zM28.36 34.76C26.87 35.29 27.29 32.12 27.41 31.51 27.53 30.9 27.64 29.34 28.17 28.83 29.7 27.35 29.49 31.26 29.38 31.83 29.27 32.4 29.19 34.48 28.4 34.76L28.36 34.76zM9.39 42.5C6.88 42.07 6.04 44.65 5.39 46.56 4.74 48.47 4.39 51.87 6.99 52.49 9.59 53.11 10.41 50.38 11.09 48.44 11.77 46.5 12.17 43 9.39 42.5zM7.54 50.56C6.28 50.3 7.11 47.81 7.34 47.09 7.57 46.37 7.86 44.84 8.55 44.51 10.24 43.69 9.35 47.38 9.18 47.91 9.01 48.44 8.56 50.78 7.54 50.56zM27.87 40.45C25.3 41.39 26.11 44.45 26.6 46.45 27.09 48.45 28.37 51.84 30.98 51.14 33.86 50.36 32.91 47.14 32.44 45.07 31.97 43 30.57 39.45 27.87 40.45zM30.78 49.08C29.62 50.02 28.66 46.42 28.53 45.91 28.35 45.2 27.61 43.1 28.23 42.5 29.39 41.41 30.36 45.01 30.51 45.6 30.66 46.19 31.54 48.45 30.78 49.08L30.78 49.08zM19.18 31C22.06 30.22 21.11 27 20.64 24.93 20.17 22.86 18.77 19.31 16.07 20.31 13.37 21.31 14.31 24.31 14.8 26.31 15.29 28.31 16.57 31.74 19.18 31zM16.43 22.4C17.59 21.31 18.56 24.91 18.71 25.5 18.86 26.09 19.71 28.35 18.98 28.98 17.82 29.92 16.86 26.32 16.73 25.81 16.55 25.1 15.81 23 16.43 22.4z"/>
      <circle id="Oval" cx="51.71" cy="19.64" r="1" fill="#3D454C" fill-rule="nonzero"/>
      <path id="Shape" fill="#3D454C" fill-rule="nonzero" d="M53,23.94 C53,23.3877153 52.5522847,22.94 52,22.94 C51.4477153,22.94 51,23.3877153 51,23.94 L51,54.13 L45,54.13 L45,18.55 C45.0036575,18.1978276 45.1002468,17.8528656 45.28,17.55 L48,13.06 L49.75,15.93 C50.0588724,16.321992 50.6094723,16.4262506 51.0402746,16.1743195 C51.4710768,15.9223883 51.6501866,15.3913989 51.46,14.93 L49,10.93 L49,7.25 C49.0026577,6.42344545 48.6761716,5.62983334 48.0926452,5.0444306 C47.5091187,4.45902786 46.7165588,4.13 45.89,4.13 L29.89,4.13 C28.1723944,4.13 26.78,5.52239443 26.78,7.24 L26.78,10.85 L23.57,16.17 C23.0461618,17.02094 22.7691843,18.0007479 22.7699982,19 L22.7699982,26.67 C22.7699982,27.2222847 23.2177153,27.67 23.7699982,27.67 C24.3222847,27.67 24.7699982,27.2222847 24.7699982,26.67 L24.7699982,19 C24.7650694,18.9234126 24.7650694,18.8465874 24.7699982,18.77 L43,18.77 L43,54.17 L24.7699982,54.17 L24.7699982,53.87 C24.7699982,53.3177153 24.3222847,52.87 23.7699982,52.87 C23.2177153,52.87 22.7699982,53.3177153 22.7699982,53.87 L22.7699982,55.17 C22.7699982,55.7222847 23.2177153,56.17 23.7699982,56.17 L52,56.17 C52.5522847,56.17 53,55.7222847 53,55.17 C53.0046522,55.136829 53.0046522,55.103171 53,55.07 C53.0046835,55.0401828 53.0046835,55.0098172 53,54.98 L53,23.94 Z M28.76,7.24 C28.76,6.62696393 29.2569639,6.12999134 29.87,6.12999134 L45.87,6.12999134 C46.1621808,6.12884122 46.4428179,6.24397443 46.65,6.45 C46.8575771,6.66104597 46.9757767,6.94400878 46.98,7.24 L46.98,10.1299913 L28.76,10.1299913 L28.76,7.24 Z M28.33,12.13 L46.24,12.13 L43.59,16.52 C43.5494452,16.5878935 43.5127211,16.6580031 43.48,16.73 L25.55,16.73 L28.33,12.13 Z"/>
    </g>
  </g>
</svg>
