<svg xmlns="http://www.w3.org/2000/svg" width="64" height="64" viewBox="0 0 64 64" style="background:#fff">
  <g id="Reismehl" fill="none" fill-rule="evenodd" stroke="none" stroke-width="1">
    <rect width="64" height="64" fill="#FFF"/>
    <g transform="translate(2 4)">
      <rect id="Rectangle" width="60" height="60" x="0" y="0"/>
      <path id="Path" fill="#CCC" fill-rule="nonzero" d="M34 29.83C33.61 29.11 32.75 28.34 31.87 28.83 31.0113063 29.3476166 30.3577832 30.1459744 30.02 31.09 29.7759575 31.5346892 29.5556486 31.9919969 29.36 32.46 29.1652782 33.1077402 29.087397 33.7849674 29.13 34.46 29.0144808 35.4572925 29.6562219 36.385678 30.63 36.63 31.49 36.75 32.01 36.22 32.63 35.69 33.3956674 35.0577943 33.9675497 34.2224995 34.28 33.28 34.65607 32.1393364 34.5550878 30.8950913 34 29.83zM29.81 46.55C29.5105688 44.5860323 28.4910953 42.8037359 26.95 41.55 26.5987326 41.2724373 26.1359047 41.179609 25.704771 41.3002473 25.2736373 41.4208856 24.9262008 41.7404393 24.77 42.16 24.7821714 42.1118479 24.7989141 42.0649684 24.82 42.02L24.69 42.28 24.69 42.33 24.57 42.57 24.57 42.7C24.5408024 42.7917686 24.5174227 42.8852877 24.5 42.98 24.4787195 43.0386218 24.4620031 43.0988011 24.45 43.16 24.45 43.16 24.45 43.16 24.45 43.22L24.45 43.22C24.45 43.37 24.45 43.52 24.38 43.67 24.2599773 44.5425587 24.2599773 45.4274413 24.38 46.3 24.5181319 47.7790643 24.9462831 49.2164291 25.64 50.53 25.9294715 51.0871247 26.4637577 51.4759853 27.0828941 51.5801574 27.7020305 51.6843296 28.3341511 51.4917216 28.79 51.06 29.8266479 49.8038186 30.2052022 48.1300145 29.81 46.55L29.81 46.55zM40.57 45.16C40.35 44.54 40.1 43.93 39.88 43.31 39.5624199 42.0244763 39.0462118 40.7963735 38.35 39.67 36.88 37.74 34.92 38.58 34.13 40.61 33.4987144 42.707826 33.4537563 44.9384408 34 47.06 34.46 49.25 35.16 51.65 37.26 52.74 39.36 53.83 40.88 50.85 40.99 49.35 41.1575299 47.9394195 41.0141731 46.5092642 40.57 45.16L40.57 45.16zM37.74 8.33C35.9489711 8.0112 34.1379316 7.81739872 32.32 7.75 31.82 5.5 30.6 3.5 28.52 4.75 25.63 6.42 23.38 8.38 22.21 11.58 21.59 13.27 22.33 18.74 25.27 17.29L25.35 17.29C25.8893356 17.7797459 26.5669879 18.0906277 27.29 18.18 30.5193041 18.7335928 33.7944407 18.9747072 37.07 18.9 39.33 18.75 40.28 16.1 40.39 14.19 40.48 12.4 39.94 8.74 37.74 8.33z" opacity=".5"/>
      <path id="Shape" fill="#3D454C" fill-rule="nonzero" d="M25.17 41.14C22.39 42.14 23.33 45.14 24.08 47.22 24.77 49.14 26.43 52.31 28.97 51.43 31.9 50.43 30.82 47.5 30.09 45.34 29.39 43.41 27.73 40.19 25.17 41.14zM28.83 49.26C27.69 50.71 26.25 47.34 26.01 46.68 25.77 46.02 24.8 44.05 25.38 43.3 26.5 41.88 27.92 45.22 28.16 45.87 28.4 46.52 29.42 48.5 28.83 49.26L28.83 49.26zM31.88 28.23C29.31 28.02 28.75 30.6 28.36 32.6 27.97 34.6 27.9 38 30.55 38.35 33.2 38.7 33.76 36 34.19 34 34.62 32 34.66 28.45 31.88 28.23zM31.24 36.38C29.75 36.92 30.18 33.74 30.29 33.13 30.4 32.52 30.52 30.96 31.05 30.45 32.58 28.97 32.37 32.88 32.26 33.45 32.15 34.02 32 36.1 31.24 36.38zM35.27 39.64C32.71 40.58 33.52 43.64 34.01 45.64 34.5 47.64 35.78 51.03 38.38 50.33 41.27 49.56 40.32 46.33 39.85 44.26 39.38 42.19 38 38.64 35.27 39.64zM38.19 48.26C37.03 49.26 36.07 45.61 35.94 45.1 35.76 44.38 35.02 42.29 35.64 41.69 36.79 40.59 37.77 44.2 37.92 44.79 38.07 45.38 39 47.64 38.19 48.26L38.19 48.26z"/>
      <path id="Shape" fill="#3D454C" fill-rule="nonzero" d="M46.72,35.45 C46.909707,34.8199608 47.0599978,34.17872 47.17,33.53 C47.3111454,32.6435329 47.3846907,31.7476178 47.39,30.85 C47.3815181,28.4258625 46.8314485,26.0342552 45.78,23.85 C47.7938321,22.8735796 48.8630943,20.632788 48.3552978,18.4530955 C47.8475013,16.273403 45.8980164,14.7358799 43.66,14.75 L42,14.75 L38,8.63 C37.3388955,7.61548844 36.210903,7.00261254 35,7 C34.3366795,7.00157895 33.6864718,7.18488218 33.12,7.53 L32.97,7.22 C32.2891819,5.85940951 30.9358438,4.96384424 29.4173783,4.86906892 C27.8989129,4.7742936 26.4447182,5.49462616 25.6,6.76 L20.32,14.7 L18.63,14.7 C16.3938733,14.6906115 14.4487725,16.2296572 13.9436812,18.4080129 C13.4385899,20.5863686 14.5079153,22.8243637 16.52,23.8 C15.4685515,25.9842552 14.9184819,28.3758625 14.91,30.8 C14.9153093,31.6976178 14.9888546,32.5935329 15.13,33.48 C15.2426174,34.1306248 15.3894882,34.7748538 15.57,35.41 C13.0291658,38.7893624 11.6536051,42.9020081 11.6499767,47.13 C11.6472402,48.9015098 11.8895363,50.6648873 12.37,52.37 C12.4459396,52.638829 12.630864,52.863639 12.88,52.99 C17.75,55.47 24.24,56.83 31.15,56.83 C38.06,56.83 44.56,55.52 49.43,53 C49.679136,52.873639 49.8640604,52.648829 49.94,52.38 C50.410362,50.6730315 50.6491664,48.9105878 50.65,47.14 C50.6420764,42.9203039 49.2627814,38.8175154 46.72,35.45 Z M18.63,16.72 L27.71,16.72 C28.2622847,16.72 28.71,16.2722847 28.71,15.72 C28.71,15.1677153 28.2622847,14.72 27.71,14.72 L22.71,14.72 L27.26,7.89 C27.6934419,7.21579315 28.4605694,6.83222941 29.26,6.89 C30.0691462,6.93587119 30.7911012,7.41335468 31.15,8.14 L31.9,9.63 C32.0592402,9.94782936 32.3752404,10.1572271 32.73,10.18 C33.0871331,10.2050108 33.4303903,10.0371962 33.63,9.74 C33.9399828,9.30855443 34.4387424,9.05275646 34.97,9.05275646 C35.5012576,9.05275646 36.0000172,9.30855443 36.31,9.74 L39.63,14.74 L36.31,14.74 C35.7577153,14.74 35.31,15.1877153 35.31,15.74 C35.31,16.2922847 35.7577153,16.74 36.31,16.74 L43.66,16.74 C44.7020984,16.6777505 45.6928112,17.1983499 46.2326654,18.0918831 C46.7725195,18.9854163 46.7725195,20.1045837 46.2326654,20.9981169 C45.6928112,21.8916501 44.7020984,22.4122495 43.66,22.35 L18.66,22.35 C17.1758018,22.2613418 16.017556,21.0318439 16.017556,19.545 C16.017556,18.0581561 17.1758018,16.8286582 18.66,16.74 L18.63,16.72 Z M48.12,51.46 C42.7739736,53.8368724 36.9692722,55.0046417 31.12,54.88 C25.2708156,55.003654 19.4663274,53.8359276 14.12,51.46 C12.784863,46.1638863 14.0019828,40.5481178 17.41,36.28 C17.6406551,36.0003116 17.701874,35.617693 17.57,35.28 C17.3405149,34.5883006 17.166629,33.8793811 17.05,33.16 C16.9205637,32.3799182 16.8536841,31.5907388 16.85,30.8 C16.8552603,28.5269215 17.4038392,26.2880339 18.45,24.27 L43.79,24.27 C44.8361608,26.2880339 45.3847397,28.5269215 45.39,30.8 C45.3867288,31.5874412 45.3198446,32.373331 45.19,33.15 C45.074532,33.8728897 44.9006286,34.5852246 44.67,35.28 C44.538126,35.617693 44.5993449,36.0003116 44.83,36.28 C47.3037129,39.3743749 48.650879,43.2183828 48.6500004,47.18 C48.6487513,48.6229554 48.4707593,50.0603251 48.12,51.46 Z"/>
      <path id="Path" fill="#3D454C" fill-rule="nonzero" d="M31.93,16.75 L32,16.75 C32.5522847,16.75 33,16.3022847 33,15.75 C33,15.1977153 32.5522847,14.75 32,14.75 L31.9,14.75 C31.3477153,14.7582843 30.9067157,15.2127153 30.915,15.765 C30.9232843,16.3172847 31.3777153,16.7582843 31.93,16.75 L31.93,16.75 Z"/>
    </g>
  </g>
</svg>
