<svg xmlns="http://www.w3.org/2000/svg" width="64" height="64" viewBox="0 0 64 64" style="background:#fff">
  <g id="Reisessig" fill="none" fill-rule="evenodd" stroke="none" stroke-width="1">
    <rect width="64" height="64" fill="#FFF"/>
    <g transform="translate(2 4)">
      <rect id="Rectangle" width="60" height="60" x="0" y="0"/>
      <path id="Shape" fill="#CCC" fill-rule="nonzero" d="M56.72,39.74 C56.48,35.18 56.98,28.53 53.3,25.12 C49.46,21.57 44.1,25.12 40.2,26.66 C33.93,29.16 29.36,29.21 23.45,26.02 C19.61,23.94 15.9,22.81 12.31,25.6 C7.05,28.29 4.11,35.13 4.4,41.22 C4.78,49.36 10.12,57.22 18.55,58.4 C23.21,59.07 26.81,57.4 29.76,53.84 C30.86,52.52 31.76,50.84 33.41,50.12 C35.93,49.05 39.06,50.47 41.49,51.19 C44.85,52.19 49.06,53.41 52.39,51.66 C56.73,49.38 57,44 56.72,39.74 Z M47.51,38 C47.18,37.92 46.8,37.85 46.42,37.79 C46.7653784,37.6683472 47.0998946,37.5178149 47.42,37.34 C47.46,37.5733333 47.49,37.7933333 47.51,38 Z" opacity=".5"/>
      <path id="Shape" fill="#3D454C" fill-rule="nonzero" d="M42.81 30.77C40.54 31.64 41.12 34.2 41.53 36.06 41.94 37.92 43.22 40.97 45.69 40.18 48.16 39.39 47.45 36.76 47.07 34.84 46.69 32.92 45.32 29.81 42.81 30.77zM45.16 38.25C44.16 38.65 43.59 36.12 43.46 35.53 43.33 34.94 42.8 33.46 43.17 32.91 44.09 31.57 45.03 34.91 45.17 35.37 45.31 35.83 46 37.93 45.16 38.25L45.16 38.25zM38.18 29.23C35.88 28.09 34.47 30.49 33.41 32.12 32.35 33.75 30.93 36.12 33.02 37.76 35.4 39.64 37.02 36.92 38.22 35.13 39.42 33.34 40.51 30.4 38.18 29.23zM34.05 36C33.44 35.19 34.71 33.77 35.14 33.11 35.57 32.45 36.29 30.79 37.14 30.93 38.29 31.13 36.81 33.65 36.53 34.11 36.25 34.57 35 37.22 34.05 36zM41.27 42.28C38.83 43.21 39.6 45.77 40.27 47.65 40.94 49.53 42.37 52.13 44.64 51.35 47.23 50.47 46.34 47.9 45.64 45.96 45.05 44.21 43.57 41.42 41.27 42.28zM44.37 49.28C43.55 50.4 42.37 47.59 42.2 47.15 42.03 46.71 41.2 44.91 41.63 44.39 42.51 43.39 43.57 46.01 43.76 46.52 43.95 47.03 44.8 48.67 44.37 49.25L44.37 49.28zM51.38 35.2C54.1 35.58 54.58 32.89 55.01 30.83 55.44 28.77 55.48 25.3 52.7 25.07 50.13 24.87 49.57 27.45 49.18 29.45 48.79 31.45 48.72 34.83 51.38 35.2zM51.11 30C51.23 29.34 51.34 27.83 51.87 27.32 53.4 25.84 53.19 29.74 53.09 30.32 52.99 30.9 52.86 32.97 52.09 33.25 50.57 33.76 51 30.59 51.11 30zM34.05 40.57C31.54 40.14 30.7 42.72 30.05 44.63 29.4 46.54 29.05 49.94 31.64 50.56 34.23 51.18 35.06 48.45 35.74 46.51 36.42 44.57 36.83 41.05 34.05 40.57zM32.2 48.63C30.95 48.37 31.77 45.88 32.01 45.16 32.25 44.44 32.53 42.91 33.22 42.58 34.91 41.75 34.01 45.45 33.84 45.97 33.61 46.64 33.22 48.85 32.2 48.63zM55.83 44.07C55.34 42.07 53.97 38.45 51.26 39.45 48.7 40.4 49.51 43.45 50 45.45 50.49 47.45 51.76 50.84 54.37 50.14 57.26 49.36 56.31 46.18 55.83 44.07zM54.17 48.07C53.02 49.01 52.05 45.41 51.93 44.91 51.75 44.19 51.01 42.09 51.63 41.5 52.78 40.4 53.76 44 53.91 44.59 54.06 45.18 54.94 47.45 54.17 48.08L54.17 48.07z"/>
      <path id="Path" fill="#3D454C" fill-rule="nonzero" d="M17.32,9.31 C17.16,7.92 16.91,6.5 16.83,5.1 C16.68,2.22 18.31,2.42 20.44,2.42 C22.57,2.42 24.21,2.2 24.05,5.06 C23.97,6.45 23.69,7.85 23.52,9.23 C23.35,10.61 25.35,10.49 25.52,9.23 C25.76,7.32 26.44,4.98 25.9,3.08 C25.11,0.29 22.8,0.42 20.44,0.42 C18.08,0.42 15.76,0.29 15,3.1 C14.47,5.02 15.13,7.39 15.35,9.31 C15.47,10.58 17.47,10.59 17.32,9.31 Z"/>
      <path id="Shape" fill="#3D454C" fill-rule="nonzero" d="M29,52.9 C26.45,57.29 18,57.48 14.28,54.75 C10.56,52.02 7.85,48.2 8,43.4 C8.4,33.91 15.5,26.23 17.16,17 C18.1256074,17.1536776 19.1022671,17.2272615 20.08,17.22 C20.2341277,20.261677 20.8234541,23.2655575 21.83,26.14 C22.26,27.34 24.2,26.82 23.76,25.61 C22.8018492,22.8976683 22.2361333,20.0623542 22.08,17.19 C22.6433284,17.160716 23.20436,17.097266 23.76,17 C24.27,22.51 26.6,27.48 29.09,32.38 C29.68,33.53 31.4,32.52 30.82,31.38 C28.4,26.62 26.08,21.81 25.7,16.38 C26.2117567,16.1175804 26.6564954,15.741263 27,15.28 C28,13.97 27.77,12.28 27.77,10.71 C27.7747501,10.6567724 27.7747501,10.6032276 27.77,10.55 C27.96,9.36 26.12,8.87 25.84,10.09 C25.43,11.87 17.7,11.8 15.52,10.66 C15.73,9.96 15.23,9.08 14.37,9.4 C14.0188861,9.49928493 13.7054684,9.70126516 13.47,9.98 C13.3504082,10.084754 13.2606991,10.2193176 13.21,10.37 C13.1523667,10.5126197 13.1284123,10.6666126 13.14,10.82 C13.14,12.34 12.97,14 13.92,15.29 C14.2772982,15.7526409 14.7402117,16.1229718 15.27,16.37 C13.57,26.53 0.26,41.38 8,51.5 C11.12,55.57 14.22,58.18 19.66,58.43 C23.82,58.63 28.48,57.66 30.66,53.91 C30.7995665,53.4705602 30.6205898,52.9926582 30.2266981,52.7530012 C29.8328064,52.5133442 29.3261149,52.5740625 29,52.9 Z M21.31,13.31 C22.8012759,13.4000871 24.2973005,13.2481207 25.74,12.86 C24.98,15.16 22.49,15.16 20.42,15.17 C18.35,15.18 15.66,15.29 15.13,12.72 C17,13.46 19.68,13.33 21.31,13.31 Z"/>
      <path id="Path" fill="#3D454C" fill-rule="nonzero" d="M11.13 38.37C9.46181354 42.4513065 10.1436293 47.1167651 12.91 50.55 13.76 51.55 15.17 50.11 14.33 49.14 11.91 46.34 11.79 42.26 13.06 38.91 13.51 37.7 11.58 37.18 11.13 38.37zM14.65 34.57C14.4700623 34.2076713 14.0895435 33.9894502 13.6859428 34.0171296 13.2823421 34.044809 12.9351775 34.3129354 12.8063897 34.6964368 12.6776019 35.0799383 12.7925649 35.5032568 13.0976521 35.7689284 13.4027394 36.0346 13.8378424 36.0902818 14.2 35.91 14.6940809 35.6640469 14.8954836 35.0643143 14.65 34.57z"/>
    </g>
  </g>
</svg>
