<svg xmlns="http://www.w3.org/2000/svg" width="64" height="64" viewBox="0 0 64 64" style="background:#fff">
  <g id="Rettich" fill="none" fill-rule="evenodd" stroke="none" stroke-width="1">
    <rect width="64" height="64" fill="#FFF"/>
    <g transform="translate(2 6)">
      <rect id="Rectangle" width="60" height="60" x="0" y="0"/>
      <path id="Path" fill="#31E085" fill-rule="nonzero" d="M56.35,12.5 C55.4617598,11.9712858 54.4435151,11.7011393 53.41,11.72 C53.8615312,10.3052977 53.5926435,8.75919365 52.69,7.58 C52.32,7.08 51.53,6.32 50.8,6.45 C47.07,7.14 42.02,9.2 39.53,12.15 C38.33,13.57 38.02,17.77 40.7,17.88 C41.0063496,17.8997224 41.3136504,17.8997224 41.62,17.88 C41.7049597,18.0332605 41.805491,18.1773553 41.92,18.31 C43.7,20.25 46.68,19.56 49.08,19.31 C51.48,19.06 54.58,19.25 56.47,17.4 C57.53,16.28 57.8,13.4 56.35,12.5 Z" opacity=".5"/>
      <path id="Path" fill="#CCC" fill-rule="nonzero" d="M38.31,15.15 C36.94,14.04 34.73,13.77 33.46,15.27 C33.25,15.52 33.03,15.77 32.82,16.03 C30.6715057,18.6607885 30.3164532,22.3257199 31.92,25.32 L28.1,28.44 C25.6594808,30.3748801 23.1121294,32.1710466 20.47,33.82 C15.95,36.75 10.47,38.82 6.31,42.01 C4.13,43.69 4.97,48.01 7.11,49.22 C11.31,51.68 16.25,48.68 20.02,46.55 C24.3159736,44.2240549 28.4131476,41.5483495 32.27,38.55 C38.82,33.28 47.41,22.53 38.31,15.15 Z" opacity=".5"/>
      <path id="Path" fill="#3D454C" fill-rule="nonzero" d="M53.61,16.37 C50.0782664,15.818532 46.468167,16.0576114 43.04,17.07 C45.680584,15.4441322 48.5120634,14.1509892 51.47,13.22 C52.7,12.84 52.18,10.91 50.94,11.3 C46.8968723,12.5458188 43.0860571,14.447848 39.66,16.93 C39.4120049,16.7776358 39.1548503,16.6407093 38.89,16.52 C41.4215291,13.3437625 44.4628897,10.6099173 47.89,8.43 C49,7.74 48,6 46.87,6.71 C43.0278191,9.17689578 39.6440471,12.2933498 36.87,15.92 C35.4356719,15.7184853 33.9832874,15.6782345 32.54,15.8 C31.26,15.88 31.25,17.88 32.54,17.8 C36.45,17.57 41.38,18.98 39.99,23.8 C39.3,26.21 38.41,27.01 36.73,28.8 C34.19,31.46 31.63,34.11 28.98,36.66 C25.27,40.15 13,53 8,49 C5.67,47.09 6.44,46.19 7.7,43.19 C8.34,41.7 9.1,40.24 9.86,38.82 C11.0640105,36.5174981 12.4837016,34.3343883 14.1,32.3 C17.6,27.98 22.18,24.69 26.64,21.44 C27.64,20.69 26.64,18.96 25.64,19.72 C18.39,25 12.09,30.31 7.86,38.35 C5.31,43.21 1.11,54.06 11.32,51.83 C16.23,50.76 20.94,46.33 24.69,43.16 C29.6044911,38.8924917 34.2783452,34.3555148 38.69,29.57 C41.44,26.67 43.94,24.01 42.09,19.8 C42.09,19.71 42,19.63 41.96,19.55 C45.4956578,18.1765081 49.3276451,17.7457541 53.08,18.3 C54.33,18.49 54.88,16.56 53.61,16.37 Z"/>
      <path id="Path" fill="#3D454C" fill-rule="nonzero" d="M22.28 36.24C21.11 36.78 22.12 38.51 23.28 37.97 29.8974296 34.9219629 34.371329 28.55849 35 21.3 35.13 20.02 33.13 20.03 33 21.3 32.3757952 27.8463453 28.2816541 33.5521726 22.28 36.24L22.28 36.24zM28.84 19.38C29.3922847 19.38 29.84 18.9322847 29.84 18.38 29.84 17.8277153 29.3922847 17.38 28.84 17.38 28.2877153 17.38 27.84 17.8277153 27.84 18.38 27.84 18.9322847 28.2877153 19.38 28.84 19.38z"/>
    </g>
  </g>
</svg>
