<svg xmlns="http://www.w3.org/2000/svg" width="64" height="64" viewBox="0 0 64 64" style="background:#fff">
  <g id="Rhabarber" fill="none" fill-rule="evenodd" stroke="none" stroke-width="1">
    <rect width="64" height="64" fill="#FFF"/>
    <g transform="translate(2 4)">
      <rect id="Rectangle" width="60" height="60" x="0" y="0"/>
      <path id="Path" fill="#E05362" fill-rule="nonzero" d="M31.28,35.11 C30.4553183,35.3184945 29.6593613,35.6274736 28.91,36.03 C30.53,33.62 31.8,30.92 31.7,28.2 C31.7,27.68 31.39,26.99 30.77,27.2 C29.24,27.63 28.31,29.28 27.32,30.44 C25.9990889,31.9992432 24.6006588,33.4911244 23.13,34.91 C22.1007292,35.866067 21.0190573,36.7641218 19.89,37.6 C22.71,34.32 25.71,31.01 27.33,27.14 C27.44,26.87 27.33,26.08 26.91,26.14 C23.58,26.49 20.43,29.14 17.77,32.02 C18.3366045,31.1232367 18.780551,30.1546262 19.09,29.14 C19.2,28.75 19.15,28.05 18.63,28 C15.63,27.72 12.37,31.12 10.35,32.93 C7.52,35.39 4.07,37.84 2,41 C1.22,42.19 1.58,46.77 3.9,45.62 C7.18,44 9.9,40.51 12.5,37.99 L12.68,37.81 C9.32,41.72 5.82,46.06 4.76,51.06 C4.42,52.67 5.61,55.41 7.5,54.11 C8.07224399,53.7082498 8.60768034,53.2564754 9.1,52.76 C9.1,54.09 9.47,55.48 10.66,55.76 C15.08,56.7 20.48,51.31 23.52,48.45 C27.25,44.95 30.68,40.88 31.77,35.78 C31.8,35.48 31.64,35 31.28,35.11 Z" opacity=".5"/>
      <g id="Group" fill="#31E085" fill-rule="nonzero" opacity=".5" transform="translate(12 3)">
        <path id="Path" d="M15.45.63C12.91-.7 10 .63 7.64 2.42 2.45 5.52-1.54 11.77.93 17.55 2.72 21.73 6.53 21.69 10.22 20.06 14.1157564 18.4989409 17.0844213 15.2429858 18.28 11.22 19.29 7.77 19.08 2.54 15.45.63zM39.72 24.27C42.58 27.27 43.89 20.41 43.19 18.68 38.33 6.61 22.68 9.23 16.7 18.8 16.24 19.53 16.21 22.3 17.7 22.05 21.7 21.34 25.01 18.66 29.25 18.56 33.92 18.46 36.7 21.09 39.72 24.27z"/>
        <path id="Path" d="M43.61,31.77 L43.79,32.11 C43.8553893,30.558396 43.1707235,29.0699921 41.95,28.11 C41.8231456,28.0115483 41.6856133,27.9276871 41.54,27.86 C36.86,25.69 33.37,22.69 28.03,24.86 C26.12,25.62 21.19,29.11 23.56,31.75 C23.8003273,32.0083 24.1211152,32.1775068 24.47,32.23 C24.47,32.23 24.47,32.32 24.47,32.35 C25.96,40.27 35.47,42.49 41.6,38.35 C43.2377192,37.1612007 44.0215552,35.1193077 43.6,33.14 C43.6421613,32.6844424 43.6455067,32.2261245 43.61,31.77 L43.61,31.77 Z"/>
      </g>
      <path id="Path" fill="#464646" fill-rule="nonzero" d="M32.05 25.64C31.799462 25.5468192 31.5220468 25.5578222 31.2796758 25.6705529 31.0373047 25.7832836 30.850155 25.9883574 30.76 26.24 28.69 31.85 22.47 38.76 12.27 46.76 11.8378967 47.1004661 11.7619373 47.7260137 12.1 48.16 12.2637561 48.3704929 12.504808 48.5068544 12.76958 48.5387773 13.0343521 48.5707002 13.3009067 48.4955394 13.51 48.33 24 40.1 30.44 32.9 32.64 26.93 32.7336734 26.6807473 32.7240711 26.4044283 32.6133209 26.1622796 32.5025707 25.9201309 32.2998194 25.7321513 32.05 25.64zM29 23.34C28.8122334 23.1506873 28.5566375 23.0442017 28.29 23.0442017 28.0233625 23.0442017 27.7677666 23.1506873 27.58 23.34 10.64 40.53 7.12 49.36 7 49.73 6.8134711 50.2323177 7.05602212 50.79239 7.55 51 7.66548286 51.0424407 7.78702808 51.0660745 7.91 51.070025 8.32594435 51.0729275 8.70026663 50.8180698 8.85 50.43 8.85 50.34 12.43 41.54 29.02 24.73 29.389131 24.3370337 29.3802842 23.7221833 29 23.34zM19.12 29.3C20.74 27.53 22.36 25.77 23.96 24 24.82 23 23.41 21.62 22.55 22.58L19.69 25.72 20.39 20.2C20.4590356 19.6477153 20.0672847 19.1440356 19.515 19.075 18.9627153 19.0059645 18.4590356 19.3977153 18.39 19.95L17.39 28.29C12.59 33.5 7.81 38.68 3 43.82 2.12 44.75 3.53 46.17 4.42 45.23 9.31333333 40.05 14.1533333 34.8233333 18.94 29.55 19.0142328 29.4778986 19.0751663 29.3932688 19.12 29.3zM29.58 21.85C30.115421 21.9752036 30.6514792 21.6446344 30.78 21.11 30.9422405 19.811181 31.6755807 18.6525034 32.78 17.95 33.23 17.59 33.78 17.13 34.45 16.49 34.6386529 16.2987185 34.8675217 16.1518325 35.12 16.06 35.1410088 16.1015359 35.1577608 16.1450911 35.17 16.19 35.223422 16.3760153 35.2937137 16.5567653 35.38 16.73 35.6690128 17.30733 36.1883044 17.7358364 36.81 17.91 37.6830022 18.1468445 38.6142799 18.0281875 39.4 17.58 39.9594587 17.2356362 40.4734771 16.8224058 40.93 16.35 41.1922345 16.0776975 41.4728976 15.8237643 41.77 15.59 42.3 15.21 42.98 15.08 43.24 15.32 43.403139 15.5385926 43.537569 15.7772058 43.64 16.03 43.8846012 16.8412963 44.5011058 17.4875119 45.3 17.77 46.0584644 17.9090791 46.8409528 17.7359941 47.47 17.29 47.66 17.18 47.99 17 48.05 16.98 48.1551267 17.1149442 48.2425066 17.2628179 48.31 17.42 48.4597121 17.7900147 48.6767106 18.1290748 48.95 18.42 49.5038066 18.9160404 50.2080848 19.2118372 50.95 19.26 51.1622208 19.2960422 51.372488 19.3427682 51.58 19.4 52.4720851 19.8486412 53.0251842 20.7717714 53 21.77 53.007389 22.6060653 52.8616533 23.4364197 52.57 24.22 45.57 19.7 39.71 19.22 31.87 22.22 31.3805076 22.4370198 31.1488143 23.0010923 31.3444349 23.4995229 31.5400555 23.9979534 32.0935663 24.2538544 32.6 24.08 40.22 21.08 45.6 21.75 52.5 26.55 52.6672045 26.6667107 52.866092 26.7295172 53.07 26.73 53.1694311 26.7450853 53.2705689 26.7450853 53.37 26.73 53.6643564 26.6392438 53.9004615 26.4178953 54.01 26.13 54.6389012 24.7324336 54.9790356 23.2222369 55.01 21.69 55.0072976 19.843989 53.8774434 18.1868695 52.16 17.51 51.8643492 17.4225194 51.5638364 17.3523997 51.26 17.3 50.9514899 17.2869849 50.651672 17.1939379 50.39 17.03 50.2761859 16.8864787 50.1820224 16.7284185 50.11 16.56 49.8908993 15.9575742 49.4512882 15.4607779 48.88 15.17 48.0753002 14.9026137 47.1907671 15.0444376 46.51 15.55 46.2916969 15.6749999 46.0603052 15.775605 45.82 15.85 45.6712731 15.6558322 45.5532319 15.4399854 45.47 15.21 45.2741186 14.719469 44.9855208 14.2712936 44.62 13.89 43.4301361 12.9752132 41.7626668 13.0168999 40.62 13.99 40.2444818 14.2737622 39.8902048 14.5845902 39.56 14.92 39.2245418 15.2758748 38.8486613 15.5913459 38.44 15.86 38.1347813 16.0267163 37.7792673 16.0764883 37.44 16 37.3461016 15.9834172 37.2630335 15.9292423 37.21 15.85 37.1788534 15.7715637 37.1521445 15.691437 37.13 15.61 37.0462769 15.2432307 36.8785395 14.9009093 36.64 14.61 36.3015027 14.2238795 35.8134847 14.001722 35.3 14 34.4558151 14.0467352 33.6584065 14.4027212 33.06 15 32.5697062 15.4724752 32.0557095 15.919719 31.52 16.34 30.0736307 17.3260086 29.1027081 18.8693408 28.84 20.6 28.7644822 20.8641913 28.8009996 21.1478165 28.9409756 21.3842625 29.0809516 21.6207084 29.3120521 21.7891404 29.58 21.85L29.58 21.85zM57.08 34.56C56.14 34.08 55.13 33.51 54.94 32.7 54.9095143 32.5752129 54.8894453 32.4481093 54.88 32.32 54.8523612 31.9782314 54.778349 31.6418124 54.66 31.32 54.37 30.6 53.66 29.54 51.3 29.57 51.2560658 29.4348132 51.199133 29.3042027 51.13 29.18 50.7025217 28.3877215 49.8982176 27.8703991 49 27.81 48.3781423 27.8122109 47.767775 27.9777342 47.23 28.29 47.0389564 27.9390304 46.7684049 27.6376566 46.44 27.41 45.5491217 26.7851437 44.3742473 26.742065 43.44 27.3 43.1171527 27.5056999 42.8185909 27.7472331 42.55 28.02 42.37 28.19 42.08 28.46 42.02 28.5 41.9230897 28.4393683 41.8326209 28.3690037 41.75 28.29 41.5809999 28.1424238 41.4004192 28.0086604 41.21 27.89 39.9950758 27.2812772 38.5195662 27.6114904 37.68 28.68 37.0822352 29.4850904 36.684618 30.4208619 36.52 31.41 36.4568613 31.6686349 36.4994619 31.9417704 36.6383635 32.1688934 36.7772652 32.3960164 37.0010001 32.5583754 37.26 32.62 37.795421 32.7452036 38.3314792 32.4146344 38.46 31.88 38.5553163 31.2102592 38.7940879 30.5689871 39.16 30 39.3966952 29.6981329 39.7852091 29.5582679 40.16 29.64 40.2476392 29.7010986 40.3311538 29.7679102 40.41 29.84 40.8810593 30.3342082 41.553322 30.5841781 42.23283 30.5177894 42.912338 30.4514006 43.523505 30.0760383 43.89 29.5 44.0534683 29.3282574 44.2344531 29.1740852 44.43 29.04 44.6850285 28.8852544 45.0049715 28.8852544 45.26 29.04 45.4989184 29.2182558 45.6153491 29.5170945 45.56 29.81 45.4499727 30.2354772 45.6306261 30.6829235 46.0052225 30.9127373 46.379819 31.142551 46.8605539 31.1008644 47.19 30.81 47.6367053 30.3003279 48.2367692 29.9494134 48.9 29.81L48.9 29.81C49.1035286 29.8500885 49.2831232 29.9686209 49.4 30.14 49.1917586 30.4716218 49.1962365 30.8942744 49.4114571 31.2214098 49.6266777 31.5485452 50.0130348 31.7199615 50.4 31.66 51.4 31.5 52.58 31.52 52.79 32.06 52.8403053 32.2189439 52.8705398 32.383554 52.88 32.55 52.88 32.76 52.88 32.96 52.98 33.17 53.175972 33.879403 53.5758279 34.5156954 54.13 35L53.78 35C52.1305283 34.8955169 50.6398886 35.9788551 50.23 37.58 50.1838258 37.7370095 50.1270281 37.8906974 50.06 38.04 49.8867616 38.3653472 49.5485937 38.5690165 49.18 38.57L49.18 38.57C48.8003216 38.5594783 48.4593804 38.334767 48.3 37.99 48.1203899 37.607975 47.7202304 37.3798841 47.3 37.42 46.8613444 37.4760753 46.5116086 37.813611 46.44 38.25 46.3419206 38.830583 45.8631588 39.2710752 45.2764326 39.3205582 44.6897064 39.3700411 44.143932 39.0159556 43.95 38.46 43.7895471 37.9898697 43.3083126 37.7087947 42.82 37.8 42.3389075 37.8879673 41.9920237 38.3109963 42 38.8 41.8367524 38.9888709 41.5852734 39.0765075 41.34 39.03 40.7203621 38.7746534 40.1837731 38.3523059 39.79 37.81 39.4154736 37.4323049 38.8108204 37.4138909 38.4140047 37.7680955 38.017189 38.1223001 37.9670919 38.7251557 38.3 39.14 38.9279426 40.0051836 39.8081923 40.6548917 40.82 41 41.5705367 41.1809122 42.3625817 41.0355828 43 40.6 43.5989555 41.0975917 44.3513488 41.373116 45.13 41.38L45.39 41.38C46.2640967 41.2933136 47.0688607 40.8657827 47.63 40.19 48.0753219 40.4659045 48.5862765 40.61781 49.11 40.63 50.2567783 40.6532349 51.3164324 40.0205476 51.84 39 51.9571478 38.7549635 52.0541354 38.5007893 52.13 38.24 52.1788773 38.071423 52.2424545 37.9074607 52.32 37.75 52.59 37.28 53.38 37.1 54 37.04L54.47 37.04C55.4057131 37.0280407 56.324851 36.791397 57.15 36.35 57.4566256 36.1601563 57.6372781 35.8199187 57.6227814 35.459572 57.6082847 35.0992254 57.4008848 34.774599 57.08 34.61L57.08 34.56z"/>
      <path id="Path" fill="#464646" fill-rule="nonzero" d="M15.32,22.91 C15.4958972,23.2314804 15.8335461,23.4310002 16.2,23.4300125 C16.3675258,23.4308382 16.5325776,23.3895752 16.68,23.31 C16.9138677,23.1831631 17.0875519,22.9683615 17.1626217,22.713124 C17.2376916,22.4578865 17.207958,22.1832561 17.08,21.95 C16.2874891,20.4989884 15.7496942,18.9228096 15.49,17.29 C15.3818246,16.8628656 15.4062402,16.4129208 15.56,16 C15.6041799,15.946919 15.6634768,15.9085504 15.73,15.89 C16.0720739,16.2267048 16.6051279,16.2728749 17,16 C17.4293359,15.7117562 17.5680922,15.1437225 17.32,14.69 C16.9651913,14.1189212 16.7051618,13.4941751 16.55,12.84 C16.4450297,12.3991811 16.5648248,11.9349749 16.87,11.6 C16.9909296,11.5112825 17.1411075,11.4719502 17.29,11.49 C17.3364789,11.4969194 17.3808635,11.5139904 17.42,11.54 C17.4557267,11.5814386 17.4891119,11.6248394 17.52,11.67 C17.845848,12.1173506 18.4726493,12.215848 18.92,11.89 C19.3673506,11.564152 19.465848,10.9373506 19.14,10.49 C19.0823112,10.4025238 19.0188362,10.3190041 18.95,10.24 C18.5984195,9.68438806 18.4731621,9.01515549 18.6,8.37 C18.6736979,7.94823912 18.8411493,7.54840627 19.09,7.2 L19.27,7.3 C20.0167659,7.63985076 20.8875001,7.56000178 21.56,7.09 C22.167206,6.60529995 22.6276879,5.96131773 22.89,5.23 C22.95,5.1 23,4.98 23.06,4.86 C23.31,4.36 23.62,4.09 23.78,4.09 L23.78,4.09 C24.01,4.09 24.33,4.65 24.42,5.38 L24.42,5.58 C24.55,6.58 24.72,8.02 25.9,8.76 C26.1597699,8.92302989 26.4799848,8.95784253 26.7687199,8.85444417 C27.0574549,8.75104581 27.2827761,8.52087225 27.38,8.23 C27.38,8.23 27.45,8.16 27.54,8.13 C27.695802,8.07960395 27.8662412,8.10554035 28,8.2 C28.320872,8.5656246 28.4026101,9.08329927 28.21,9.53 C27.906649,10.1823464 27.4462377,10.7492707 26.87,11.18 C26.5717717,11.4341547 26.4494574,11.839069 26.5571028,12.2158278 C26.6647482,12.5925866 26.9825169,12.8717628 27.37,12.93 C27.5243623,12.9664235 27.6490734,13.0797972 27.7,13.23 C27.8807533,13.5990566 27.8807533,14.0309434 27.7,14.4 C27.0752592,15.2026771 26.2205713,15.7957258 25.25,16.1 C24.7706531,16.2907552 24.5150983,16.8148591 24.66,17.31 C24.792139,17.7935957 25.2805345,18.088393 25.77,17.98 C25.8924218,18.0867905 25.9494374,18.2502354 25.92,18.41 C25.6353395,18.8729014 25.1507567,19.176228 24.61,19.23 C24.34,19.29 24.05,19.34 23.77,19.38 C23.1416558,19.449107 22.5238934,19.5934754 21.93,19.81 C21.4163752,20.0171068 21.1678932,20.6013752 21.375,21.115 C21.5821068,21.6286248 22.1663752,21.8771068 22.68,21.67 C23.1284927,21.50876 23.5954959,21.4046082 24.07,21.36 C24.4033333,21.3133333 24.7366667,21.2533333 25.07,21.18 C26.2732697,21.0002546 27.3021659,20.2201025 27.8,19.11 C28.0454078,18.452525 27.9868135,17.7200972 27.64,17.11 C28.3888169,16.6898753 29.0132489,16.0792429 29.45,15.34 C29.9465308,14.4073621 29.972491,13.2947818 29.52,12.34 C29.4203529,12.1356335 29.2960981,11.944214 29.15,11.77 C29.5754397,11.315149 29.9143218,10.7864929 30.15,10.21 C30.6379407,8.96968643 30.3165384,7.55710343 29.34,6.65 C28.6777053,6.13107779 27.8014199,5.97379579 27,6.23 C26.8594778,6.27287087 26.7224165,6.3263582 26.59,6.39 C26.5154148,6.06041614 26.4619726,5.72640187 26.43,5.39 L26.43,5.19 C26.21,3.36 25.2,2.19 23.86,2.14 C22.6953074,2.17927409 21.6672583,2.91190676 21.25,4 C21.18,4.13 21.12,4.27 21.05,4.41 C20.9144002,4.81753657 20.6848932,5.18748804 20.38,5.49 C20.3082709,5.51169244 20.2317291,5.51169244 20.16,5.49 C20.078158,5.18976853 19.8612124,4.94474869 19.5731011,4.82715223 C19.2849898,4.70955578 18.9585539,4.73278728 18.69,4.89 C17.5724072,5.5696693 16.8113768,6.70755603 16.61,8 C16.5304723,8.51025315 16.5304723,9.02974685 16.61,9.54 C16.2415559,9.63528219 15.8996019,9.81309828 15.61,10.06 C14.7663062,10.8445516 14.3880854,12.0094717 14.61,13.14 C14.6708214,13.4588917 14.7543678,13.7730261 14.86,14.08 C14.4768479,14.2570687 14.1536531,14.5420361 13.93,14.9 C13.4874517,15.7125662 13.3627088,16.6606128 13.58,17.56 C13.846724,19.4304274 14.4354264,21.2405181 15.32,22.91 Z"/>
      <path id="Path" fill="#464646" fill-rule="nonzero" d="M20.44 15.38C19.8877153 15.38 19.44 15.8277153 19.44 16.38 19.44 16.9322847 19.8877153 17.38 20.44 17.38 20.9922847 17.38 21.44 16.9322847 21.44 16.38 21.44 15.8277153 20.9922847 15.38 20.44 15.38L20.44 15.38zM43 35.38C43.5522847 35.38 44 34.9322847 44 34.38 44 33.8277153 43.5522847 33.38 43 33.38 42.4477153 33.38 42 33.8277153 42 34.38 42 34.9322847 42.4477153 35.38 43 35.38zM39.7 36C40.97 35.76 40.43 33.83 39.17 34.07 36.64926 34.5541794 34.1787287 35.2705665 31.79 36.21 36 30 35.74 29.45 35.5 29 35.2877078 28.6442884 34.8780785 28.4562911 34.4699597 28.5272683 34.0618409 28.5982455 33.7397339 28.9135013 33.66 29.32 31.0512195 33.8877913 28.0747114 38.2354998 24.76 42.32 18.89 49.63 14.07 53.32 11.23 52.77 10.9686461 52.7171386 10.6970041 52.7708454 10.4754303 52.9191871 10.2538566 53.0675288 10.1007034 53.2982189 10.05 53.56 9.94608848 54.10103 10.299337 54.6241955 10.84 54.73 11.1683362 54.8019451 11.5039189 54.8355033 11.84 54.83 17.18 54.83 24.24 46.76 29.67 39.22 29.67 39.22 29.74 39.22 29.77 39.22 32.9223532 37.7105427 36.2617156 36.627688 39.7 36z"/>
    </g>
  </g>
</svg>
