<svg xmlns="http://www.w3.org/2000/svg" width="64" height="64" viewBox="0 0 64 64" style="background:#fff">
  <g id="Ricotta" fill="none" fill-rule="evenodd" stroke="none" stroke-width="1">
    <rect width="64" height="64" fill="#FFF"/>
    <g transform="translate(2 8)">
      <g id="Layer_2">
        <rect id="Rectangle" width="60" height="60" x="0" y="0"/>
        <rect id="Rectangle" width="60" height="60" x="0" y="0"/>
      </g>
      <g id="Layer_1" fill-rule="nonzero" transform="translate(4 5)">
        <path id="Path" fill="#CCC" d="M49.55,23.47 C46.55,15.85 37.78,18.47 31.88,21.14 C27.82,22.95 24.21,24.05 19.71,23.72 C18.5891118,23.6276835 17.4741127,23.4741207 16.37,23.26 C17.0985821,22.4791209 17.9668592,21.84148 18.93,21.38 C20.44,20.73 21.93,21.16 23.43,20.82 C26.01,20.25 26.18,17.1 25.43,15.03 C24.31,11.75 21.87,10.33 18.35,10.86 C14.83,11.39 12.9,14.23 10,15.81 C6.91,17.46 4,17.5 2.42,21.13 C1.12982978,24.3065641 1.60861871,27.9278803 3.68,30.66 C5.87,33.33 9.68,33.93 12.91,34.66 C16.91,35.58 21.1,36.32 25.23,35.77 C29.36,35.22 32.83,33.31 36.7,31.86 C38.6776275,30.9784448 40.8388525,30.5873659 43,30.72 C45.17,30.97 45.7,31.72 47.82,30.72 C50.33,29.55 50.42,25.67 49.55,23.47 Z" opacity=".5"/>
        <path id="Path" fill="#31D4E0" d="M43.75,1.21 C40.34,2.02 37.39,5.29 34.89,7.58 C32.19,10.04 28.5,12.65 26.89,15.96 C26.17,17.42 26.19,22.08 28.99,21.08 C32.19,19.93 34.92,15.97 37.39,13.66 C40.2,11.03 43.46,8.5 45.39,5.09 C46,3.82 45.82,0.72 43.75,1.21 Z" opacity=".5"/>
        <path id="Shape" fill="#3D454C" d="M50.68,25.71 C50.68,23.57 49.35,21.98 46.92,21.2 C45.5266416,19.1248232 42.7946428,18.4310506 40.58,19.59 C39.6576266,18.4270207 38.2543493,17.7493225 36.77,17.75 C36.2177153,17.75 35.77,18.1977153 35.77,18.75 C35.77,19.3022847 36.2177153,19.75 36.77,19.75 C37.8931605,19.7531574 38.9120191,20.4089744 39.38,21.43 C39.5125242,21.7168941 39.772863,21.9242618 40.0821287,21.9892666 C40.3913944,22.0542715 40.713188,21.9692629 40.95,21.76 C41.6056537,21.1771325 42.4912237,20.9248872 43.3555994,21.0747902 C44.2199752,21.2246932 44.9688962,21.7603976 45.39,22.53 C45.5224406,22.7618142 45.7420788,22.9310436 46,23 C48.68,23.73 48.68,25.21 48.68,25.7 L48.68,25.7 C48.68,27.32 41.37,29.7 25.68,29.7 C7.87,29.7 2.86,27.24 2.68,25.77 C2.68,23.55 4.24,21.77 6.12,21.77 C6.29633635,21.7547218 6.47366365,21.7547218 6.65,21.77 C7.12066614,21.855421 7.58591387,21.5955529 7.76,21.15 C8.18148336,19.7272901 9.6524156,18.8924367 11.09,19.26 C11.5372846,19.4033943 12.0240839,19.2161638 12.26,18.81 C13.1524607,17.0469198 15.2992764,16.3328023 17.07,17.21 C17.3027519,17.3362309 17.5760659,17.3650008 17.83,17.29 C18.0877105,17.2139128 18.3039564,17.037312 18.43,16.8 C18.8729617,15.8492196 19.8117571,15.2272193 20.86,15.19 C21.7883682,15.2185127 22.6390858,15.7153919 23.12,16.51 C23.4251825,16.966275 24.0411173,17.0912473 24.5,16.79 C24.9597438,16.4880393 25.0893122,15.8714725 24.79,15.41 C23.9364357,14.0564533 22.4598791,13.2223679 20.86,13.19 C19.4000461,13.2110766 18.0328049,13.9094782 17.16,15.08 C16.6165782,14.8916733 16.0451218,14.7969942 15.47,14.8 C13.6767167,14.8560529 12.0170868,15.7619806 11,17.24 C9.05593042,17.0318346 7.1841406,18.0412499 6.29,19.78 C3.14960174,19.9150623 0.688321597,22.5271235 0.74,25.67 C0.74,25.67 0.74,25.67 0.74,25.67 C0.736939121,25.7066028 0.736939121,25.7433972 0.74,25.78 C0.74,25.78 0.74,25.78 0.74,25.84 C0.74,25.9 0.74,25.84 0.74,25.84 C0.77,27.74 1.92,42 18.16,46.08 L18.37,46.28 C18.6687006,46.636309 19.0704491,46.8913319 19.52,47.01 C21.5499552,47.3995603 23.6130298,47.5904617 25.68,47.58 C27.9239365,47.5901807 30.1627836,47.3656257 32.36,46.91 C32.8108373,46.7769543 33.2136481,46.5165163 33.52,46.16 C33.6,46.08 33.74,45.94 33.69,45.96 C50.49,41.42 50.68,25.87 50.68,25.71 Z M33.17,44 C32.7644629,44.1367954 32.4022485,44.3782717 32.12,44.7 C32.0386144,44.7855382 31.9517653,44.8657065 31.86,44.94 C29.8265195,45.3557191 27.755515,45.5601386 25.68,45.55 C23.7757565,45.5697402 21.8739256,45.4090221 20,45.07 C19.9217564,45.0053317 19.8482357,44.9351528 19.78,44.86 C19.4956244,44.5360713 19.1295752,44.2943407 18.72,44.16 C7.33,41.36 4,33.32 3.07,28.83 C6.64333333,30.75 14.18,31.7166667 25.68,31.73 C31.5,31.73 43.29,31.38 48.32,28.73 C47.41,33.08 44.24,41 33.17,44 Z"/>
        <path id="Shape" fill="#3D454C" d="M24.74,18.38 C22.58,17.55 20.18,18.3 18,20.48 C16.8325511,21.6394411 15.9019168,23.0150137 15.26,24.53 L15.26,24.53 C14.2268605,24.68111 13.2937591,25.2302043 12.66,26.06 C12.3286292,26.5018278 12.4181722,27.1286292 12.86,27.46 C13.3018278,27.7913708 13.9286292,27.7018278 14.26,27.26 C14.5830935,26.8364485 15.0618113,26.5592961 15.59,26.49 C15.8283564,26.4502778 16.0716436,26.4502778 16.31,26.49 C16.7411431,26.6008212 17.1936296,26.4133043 17.42,26.03 C17.7226273,25.4903191 18.2580028,25.1210946 18.87,25.03 C19.5513882,24.9474819 20.2253346,25.2330524 20.64,25.78 C20.955005,26.1780341 21.5182467,26.2769238 21.95,26.01 C22.291598,25.8023553 22.6733118,25.6694371 23.07,25.62 C23.9763999,25.5158087 24.8754643,25.8679423 25.47,26.56 C25.7046295,26.9443686 26.1672286,27.1244957 26.6,27 C26.7646958,26.9380237 26.9357326,26.8944261 27.11,26.87 C27.8837422,26.8063097 28.6244374,27.1961492 29.01,27.87 C29.1900643,28.1736995 29.5169327,28.36 29.87,28.36 C30.0494833,28.36 30.2256443,28.3115893 30.38,28.22 C30.8548931,27.938281 31.0115765,27.3249776 30.73,26.85 C30.2761145,26.0746113 29.5702485,25.4781545 28.73,25.16 C28.9321913,24.1980956 28.8699876,23.1993811 28.55,22.27 C28.4832291,22.0489642 28.553927,21.8093769 28.73,21.66 L44.93,7.59 C46.4736359,6.08226263 46.5027374,3.60863588 44.995,2.065 C43.4872626,0.521364124 41.0136359,0.492262633 39.47,2 L25.47,18.19 C25.3067043,18.4245268 24.9969122,18.5051577 24.74,18.38 Z M26.93,19.53 L41,3.32 C41.3303519,2.91396893 41.817247,2.66688784 42.34,2.64 C42.8668418,2.60187315 43.3834046,2.79970573 43.75,3.18 C44.1238357,3.55149579 44.3235517,4.06349493 44.3,4.59 C44.2815025,5.13910162 44.0262199,5.65331373 43.6,6 L27.38,20.05 C26.5851725,20.7403618 26.2851113,21.8419019 26.62,22.84 C26.8413914,23.4853324 26.8623081,24.1825566 26.68,24.84 C26.6267724,24.8352499 26.5732276,24.8352499 26.52,24.84 C25.510902,23.9462272 24.1689887,23.5243791 22.83,23.68 C22.4186914,23.7331658 22.0155953,23.8372989 21.63,23.99 C20.7974874,23.2886636 19.7102909,22.9661287 18.63,23.1 C18.51,23.1 18.39,23.15 18.28,23.17 C18.6204221,22.6939857 18.9982881,22.2458968 19.41,21.83 C20.33,20.91 22.15,19.48 24.02,20.19 C25.0327676,20.5978077 26.1922635,20.3348292 26.93,19.53 Z"/>
        <path id="Path" fill="#3D454C" d="M34.48 26.18C35.0322847 26.18 35.48 25.7322847 35.48 25.18 35.48 24.6277153 35.0322847 24.18 34.48 24.18 33.9277153 24.18 33.48 24.6277153 33.48 25.18 33.48 25.7322847 33.9277153 26.18 34.48 26.18zM42.48 24.58C41.9277153 24.58 41.48 25.0277153 41.48 25.58 41.48 26.1322847 41.9277153 26.58 42.48 26.58 43.0322847 26.58 43.48 26.1322847 43.48 25.58 43.48 25.0277153 43.0322847 24.58 42.48 24.58zM7.81 23.78C7.25771525 23.78 6.81 24.2277153 6.81 24.78 6.81 25.3322847 7.25771525 25.78 7.81 25.78 8.36228475 25.78 8.81 25.3322847 8.81 24.78 8.81 24.2277153 8.36228475 23.78 7.81 23.78z"/>
      </g>
    </g>
  </g>
</svg>
