<svg xmlns="http://www.w3.org/2000/svg" width="64" height="64" viewBox="0 0 64 64" style="background:#fff">
  <g id="Rind-(Innereien)" fill="none" fill-rule="evenodd" stroke="none" stroke-width="1">
    <rect width="64" height="64" fill="#FFF"/>
    <g transform="translate(2 3)">
      <g id="Layer_2">
        <rect id="Rectangle" width="60" height="60" x=".86" y=".93"/>
        <rect id="Rectangle" width="60" height="60" x=".86" y=".93"/>
      </g>
      <g id="Layer_1" fill-rule="nonzero" transform="translate(5 3)">
        <g id="Group" opacity=".5" transform="translate(2 23)">
          <path id="Path" fill="#E05362" d="M24.8 6C23.7785929 4.99422106 22.4916404 4.30044614 21.09 4 20.4785012 3.80715353 19.81249 3.90282364 19.28 4.26 18.6755353 4.68544135 18.2261816 5.29628145 18 6 17.4268848 7.70954785 17.6315433 9.58436643 18.56 11.13 19.5416101 12.7555464 20.9173784 14.1072388 22.56 15.06 23.4136142 15.3531672 24.3596476 15.1360448 25 14.5 25.6311118 13.8417388 26.0672788 13.0213296 26.26 12.13 26.8806247 9.97198827 26.3267708 7.64656028 24.8 6zM42 6.77C41.6187586 6.45121257 41.1459248 6.26207904 40.65 6.23 40.3091775 6.21340114 39.968629 6.2678889 39.65 6.39 39.1249559 6.56511319 38.6439712 6.85165724 38.24 7.23 37.5609674 7.96277006 37.1274914 8.88915025 37 9.88 36.819984 11.0203293 36.9512729 12.1881093 37.38 13.26 37.6704275 14.1413805 38.3104614 14.8645828 39.15 15.26 39.9212623 15.5365596 40.7828959 15.3416198 41.36 14.76 42.0639595 14.0175451 42.5904827 13.1251909 42.9 12.15 43.1410216 11.4212484 43.2592984 10.657518 43.25 9.89 43.3022699 8.71848544 42.8466887 7.58135483 42 6.77L42 6.77zM16.14 5.45C15.7734176 4.2178643 14.699012 3.32910966 13.42 3.2 11.33553 2.93556058 9.22102646 3.03367355 7.17 3.49 5.79 3.89 5.27 6.21 5.34 7.39 5.26852231 8.92556576 6.03377296 10.379542 7.34 11.19 9.23 12.13 11.57 12.28 13.63 12.56 14.91 12.74 15.88 11.13 16.23 10.18 16.7498389 8.64066721 16.7180207 6.96844328 16.14 5.45L16.14 5.45z"/>
          <path id="Path" fill="#4885E0" d="M33.83 5.43C32.4344016 5.00357586 30.9221577 5.2081306 29.69 5.99 28.7767733 6.49685802 28.0693419 7.30686706 27.69 8.28 27.0698069 9.80105756 27.2186403 11.5275246 28.09 12.92 28.8356119 13.8945008 30.0148232 14.4373124 31.24 14.37 32.1694686 14.4644808 33.1084433 14.3692225 34 14.09 35.54 13.51 36.14 11.15 36.06 9.71 35.98 8.27 35.46 6.06 33.83 5.43zM23 .41C21.8112297.268354524 20.6069407.332628377 19.44.6 18.2361415.699054139 17.0551937.985855753 15.94 1.45 14.94 1.98 14.73 4.45 16.03 4.83 17.1875059 5.05494314 18.3754823 5.07525043 19.54 4.89 20.7480847 4.88434318 21.9471591 4.68168271 23.09 4.29 24.22 3.78 24.43.68 23 .41zM44.81 15.17C37.7897858 16.7909719 30.6048167 17.5896747 23.4 17.55 16.24 17.47 9.21 15.76 2.1 15.68-.05 15.68.41 19.6 1.8 20.32 14.28 26.85 31.8 25.32 44.99 22.32 48.11 21.57 47.73 14.51 44.81 15.17z"/>
        </g>
        <g id="Group" fill="#C17953" opacity=".5" transform="translate(25 1)">
          <path id="Path" d="M10.59,1.69 C9.95684586,0.927316482 8.87503735,0.714296273 8,1.18 C7.07,1.69 6.79,2.69 6.21,3.52 C5.08,5.16 3.49,5.52 1.78,6.16 C-0.48,7.01 0.15,11.85 2.44,12.16 C4.01686647,12.2294721 5.5677515,11.7408371 6.82,10.78 C7.03,10.64 7.22,10.47 7.42,10.32 C7.29983067,10.6902411 7.2029743,11.0676469 7.13,11.45 C6.8,13.45 8.13,17.27 10.56,15.45 C12.35,14.06 12.72,10.59 12.68,8.45 C12.64,6.31 12.19,3.26 10.59,1.69 Z"/>
        </g>
        <g id="Group" fill="#C17953" opacity=".5" transform="translate(39 1)">
          <path id="Path" d="M13.52,8.42 C13.28,6.52 11.45,6 9.9,5.16 C8.74452136,4.59619764 7.83177781,3.63373266 7.33,2.45 C7.08835633,1.61783213 6.38841417,0.999684192 5.53275539,0.862778788 C4.67709662,0.725873384 3.8192271,1.09477145 3.33,1.81 C0.635831934,5.38980073 0.205619374,10.1880273 2.22,14.19 C2.88,15.5 4.43,16.64 5.86,15.44 C7.07746864,14.1653136 7.440742,12.2981667 6.79,10.66 C7.30188756,10.9911747 7.84437389,11.2724639 8.41,11.5 C11.09,12.58 13.92,11.48 13.52,8.42 Z"/>
        </g>
        <path id="Path" fill="#3D454C" d="M41.07 18.4C39.9654305 18.4 39.07 19.2954305 39.07 20.4 39.07 20.9771376 39.5378624 21.445 40.115 21.445 40.6921376 21.445 41.16 20.9771376 41.16 20.4 41.16 20.9522847 41.6077153 21.4 42.16 21.4 42.7122847 21.4 43.16 20.9522847 43.16 20.4 43.1326928 19.2716598 42.1984492 18.3776468 41.07 18.4zM36.49 18.42C35.9509577 18.4065197 35.4293096 18.6112672 35.0433522 18.987811 34.6573948 19.3643548 34.4398315 19.8807892 34.4399999 20.42 34.4399999 20.9971375 34.9078625 21.4649999 35.485 21.4649999 36.0621375 21.4649999 36.53 20.9971375 36.53 20.42 36.53 20.9722847 36.9777153 21.42 37.53 21.42 38.0822847 21.42 38.53 20.9722847 38.53 20.42 38.5301075 19.8825633 38.3139118 19.3676984 37.9301429 18.9914543 37.5463739 18.6152102 37.0273292 18.4092513 36.49 18.42z"/>
        <path id="Shape" fill="#3D454C" d="M48.17,7.55 C50.07,6.11 51.78,3.82 51.78,1.66 C51.7589621,0.829397428 51.0906026,0.161037945 50.26,0.14 C49.30794,0.233398633 48.3818893,0.504768817 47.53,0.94 C46.0052263,1.66936135 44.3562293,2.10366509 42.67,2.22 C40.2654022,0.83408256 37.3045978,0.83408256 34.9,2.22 C33.1999571,2.10988825 31.536701,1.67540501 30,0.94 C29.1445947,0.504677636 28.2152549,0.233337561 27.26,0.14 C26.4293974,0.161037945 25.7610379,0.829397428 25.74,1.66 C25.74,3.82 27.46,6.11 29.35,7.55 L26.56,10.35 C26.236465,10.6743066 26.174661,11.1769794 26.41,11.57 C27.3228574,12.8661028 28.8254033,13.6173758 30.41,13.57 L31.09,13.57 C31.3065925,14.4098871 31.611631,15.2244407 32,16 C32.17,16.36 32.33,16.73 32.45,17 C31.523259,17.9046957 31.0005048,19.1448849 31,20.44 C31,23.58 34.49,26.14 38.78,26.14 C43.07,26.14 46.57,23.58 46.57,20.44 C46.5676454,19.1472447 46.0492795,17.9089263 45.13,17 C45.24,16.69 45.41,16.32 45.57,16 C45.9355154,15.252546 46.2301383,14.4724649 46.45,13.67 L47.13,13.67 C48.713797,13.7137562 50.2147268,12.9632913 51.13,11.67 C51.4266884,11.2604304 51.3708862,10.6938236 51,10.35 L48.17,7.55 Z M38.78,24.14 C35.65,24.14 33,22.45 33,20.44 C33.0155439,19.5133634 33.4584887,18.6459298 34.2,18.09 C34.2675489,18.034271 34.328001,17.9704604 34.38,17.9 C34.5736363,17.8935774 34.7612374,17.8310437 34.92,17.72 C36.0859869,16.9503339 37.4639503,16.5656233 38.86,16.62 C40.2762075,16.5535576 41.6769079,16.9387502 42.86,17.72 C42.9691061,17.801565 43.0958412,17.8563694 43.23,17.88 C43.2796169,17.9612858 43.3440689,18.0325223 43.42,18.09 C44.1615113,18.6459298 44.6044561,19.5133634 44.62,20.44 C44.57,22.45 41.92,24.14 38.78,24.14 Z M47.13,11.62 L45.57,11.62 C45.0177153,11.62 44.57,12.0677153 44.57,12.62 C44.4505533,13.4961692 44.1726955,14.3432965 43.75,15.12 C43.65,15.35 43.55,15.57 43.46,15.79 C42.058983,14.9954136 40.4704024,14.5913616 38.86,14.62 C37.2005146,14.5852765 35.5647783,15.0184694 34.14,15.87 L33.82,15.13 C33.3940589,14.3511293 33.116038,13.500114 33,12.62 C33,12.0677153 32.5522847,11.62 32,11.62 L30.44,11.62 C29.8158211,11.6294011 29.2053771,11.4364447 28.7,11.07 L31.7,8.07 L31.7,8.07 L31.86,7.86 C31.86,7.86 31.86,7.81 31.86,7.79 C31.8859212,7.72869102 31.90601,7.66507673 31.92,7.6 C31.9246622,7.54009057 31.9246622,7.47990943 31.92,7.42 C31.9254304,7.35678307 31.9254304,7.29321693 31.92,7.23 C31.9293064,7.16700854 31.9293064,7.10299146 31.92,7.04 C31.9014783,6.98296874 31.874512,6.92903613 31.84,6.88 C31.8128969,6.81768831 31.7757348,6.76025589 31.73,6.71 C31.73,6.71 31.73,6.71 31.73,6.65 C31.6948188,6.62441045 31.6580814,6.60103206 31.62,6.58 L31.52,6.49 C29.8369871,5.54687161 28.5566788,4.02117099 27.92,2.2 C28.32,2.32 28.82,2.53 29.34,2.74 C31.1732603,3.61999007 33.1679122,4.11354729 35.2,4.19 C35.359619,4.18810542 35.5167916,4.15052066 35.66,4.08 C36.6230776,3.4936434 37.7228541,3.16957133 38.85,3.14 C39.9799791,3.17151272 41.082497,3.49537736 42.05,4.08 C42.1923316,4.15292181 42.3500767,4.19064348 42.51,4.19 C44.5153702,4.11550427 46.4849138,3.63587449 48.3,2.78 C48.82,2.57 49.3,2.36 49.71,2.24 C49.0799258,4.06491998 47.7978515,5.5927253 46.11,6.53 C46.11,6.53 46.05,6.59 46.01,6.62 C45.9748188,6.64558955 45.9380814,6.66896794 45.9,6.69 L45.9,6.75 C45.854197,6.80233942 45.8139793,6.85931447 45.78,6.92 C45.7493568,6.97125064 45.7226146,7.02473505 45.7,7.08 C45.6953296,7.14324723 45.6953296,7.20675277 45.7,7.27 C45.7,7.33 45.7,7.39 45.7,7.46 C45.6906329,7.51963441 45.6906329,7.58036559 45.7,7.64 C45.7092708,7.70623471 45.7295504,7.77045332 45.76,7.83 C45.76,7.83 45.76,7.88 45.76,7.9 C45.76,7.92 45.82,7.96 45.85,7.99 C45.8695705,8.03207955 45.8930043,8.07225185 45.92,8.11 L48.92,11.11 C48.3965544,11.4741252 47.7667541,11.6535655 47.13,11.62 L47.13,11.62 Z"/>
        <path id="Path" fill="#3D454C" d="M36.38 9.25C35.8277153 9.25 35.38 9.69771525 35.38 10.25 35.38 10.8022847 35.8277153 11.25 36.38 11.25 36.9322847 11.25 37.38 10.8022847 37.38 10.25 37.38 9.69771525 36.9322847 9.25 36.38 9.25zM41.39 9.25C40.8377153 9.25 40.39 9.69771525 40.39 10.25 40.39 10.8022847 40.8377153 11.25 41.39 11.25 41.9422847 11.25 42.39 10.8022847 42.39 10.25 42.39 9.69771525 41.9422847 9.25 41.39 9.25z"/>
        <path id="Shape" fill="#3D454C" d="M46.14,31 C45.7491783,29.7805288 44.6001043,28.9655828 43.32,29 L41,28.92 C40.2062597,28.8993668 39.4367113,29.1942405 38.86,29.74 C38.8209271,29.7847248 38.7842107,29.8314548 38.75,29.88 C38.1484835,29.5107446 37.4558055,29.3167948 36.75,29.32 C35.3353223,29.267025 33.9386638,29.6511061 32.75,30.42 C32.1310913,29.3287 31.2064502,28.4422959 30.09,27.87 C29.3840065,27.6512295 28.6149109,27.8396579 28.09,28.36 C27.97,28.45 27.83,28.58 27.68,28.72 C27.1903316,28.5374992 26.6892649,28.3871792 26.18,28.27 C26.69,27.36 27.25,26.18 26.66,25.27 C25.94,24.14 23.9,24.27 22.77,24.02 C21.2940931,23.6277656 19.7628614,23.4857971 18.24,23.6 C16.91,23.83 16.13,25.05 15.46,26.15 C14.2223668,25.7185842 12.9601307,25.3612845 11.68,25.08 C8.96,24.49 6.68,28.23 5.05,30 C4.75218223,30.3117463 4.68769603,30.7792713 4.89,31.16 C1.29,32 0.71,32.92 0.71,33.8 L0.71,33.8 C0.71,33.96 1.01,49.94 18.28,54.24 C18.3548813,54.2977199 18.4250985,54.3612498 18.49,54.43 C18.7864861,54.7840973 19.1843381,55.0388622 19.63,55.16 C20.8591516,55.3950842 22.1014338,55.5553787 23.35,55.64 L23.45,55.64 L24.01,55.64 C24.37,55.64 24.73,55.64 25.09,55.64 L25.62,55.64 L25.8,55.64 L26.33,55.64 C26.69,55.64 27.05,55.64 27.41,55.64 L27.96,55.64 L28.07,55.64 C29.3185662,55.5553787 30.5608484,55.3950842 31.79,55.16 C32.2609966,55.0522644 32.6850687,54.7964192 33,54.43 C33.0649015,54.3612498 33.1351187,54.2977199 33.21,54.24 C50.43,49.94 50.73,34 50.73,33.8 L50.73,33.8 C50.73,32.54 49.37,31.73 46.14,31 Z M46.45,34.41 L46.34,33.09 C47.0545864,33.2455914 47.751503,33.4734295 48.42,33.77 C47.7914464,34.0687488 47.1303624,34.2935844 46.45,34.44 L46.45,34.41 Z M40.91,30.89 L43.27,30.96 C43.83,30.96 44.19,31.3 44.2,31.45 L44.46,34.59 C44.4497368,34.6596238 44.4497368,34.7303762 44.46,34.8 C43.33,35 41.99,35.19 40.46,35.35 C40.46,35.35 40.46,35.35 40.46,35.28 L40.18,31.12 C40.3715119,30.9300833 40.6484327,30.8542146 40.91,30.92 L40.91,30.89 Z M36.71,31.29 C37.3937223,31.2610363 38.0235555,31.6596649 38.29,32.29 L38.29,32.29 L38.5,35.39 C38.4953216,35.4365494 38.4953216,35.4834506 38.5,35.53 L38.05,35.53 L38.05,34.82 C38.0490349,33.6904041 37.2412521,32.7227476 36.13,32.52 L34.65,32.26 C34.4377092,32.2301738 34.2222908,32.2301738 34.01,32.26 C34,32.18 34,32.06 34,32 C34.8002385,31.4729285 35.7557214,31.2331763 36.71,31.32 L36.71,31.29 Z M34,34.56 C34.0443115,34.3881424 34.2166133,34.2821105 34.39,34.32 L35.86,34.58 C36.020331,34.608729 36.1377628,34.7471308 36.14,34.91 L36.14,35.77 C35.34,35.83 34.5,35.87 33.63,35.91 L34,34.56 Z M29.56,29.81 C30.38,30.26 31.33,31.81 32.17,33.15 L32.34,33.43 C32.2018376,33.6040448 32.0874969,33.7957336 32,34 L31.47,36 L29.9,36 C28.9996631,34.613782 28.3906543,33.0589383 28.11,31.43 C28.4185904,30.7652628 28.9114213,30.2030191 29.53,29.81 L29.56,29.81 Z M22.19,35.44 C21.57,33.54 20.96,31.64 20.34,29.74 C22.4001964,29.6887321 24.4581041,29.9106633 26.46,30.4 C26.2591431,30.7739594 26.1656943,31.1962095 26.19,31.62 C26.4102443,33.1883201 26.9152034,34.7031974 27.68,36.09 L25.73,36.09 C24.49,36.09 23.3,36.09 22.14,36.09 C22.2246704,35.8828 22.2317716,35.6520136 22.16,35.44 L22.19,35.44 Z M19.4,25.57 C20.1127658,25.5723108 20.8233222,25.6493995 21.52,25.8 C22.15,25.9 22.78,26.06 23.41,26.15 C23.9134066,26.1802998 24.4125402,26.2606971 24.9,26.39 C24.7034545,26.8480992 24.4762736,27.2924384 24.22,27.72 C24.1921818,27.7884244 24.1688,27.8585696 24.15,27.93 C22.4062712,27.7482966 20.6515577,27.6948196 18.9,27.77 C18.9,27.77 18.9,27.77 18.9,27.77 C18.8598701,27.7257011 18.8125356,27.6885098 18.76,27.66 C18.3240359,27.3739134 17.8659117,27.1231155 17.39,26.91 C17.7965822,26.15788 18.5493576,25.6560297 19.4,25.57 L19.4,25.57 Z M9.7,28 C10.82,26.84 10.9,26.9 12.36,27.42 C14.12,28.03 16.17,28.37 17.74,29.42 C17.8622844,29.5028921 18.0030937,29.5544077 18.15,29.57 L20.23,36 C20.23,36 20.23,36 20.23,36 L18.23,35.92 C18.2496249,35.7974473 18.2496249,35.6725527 18.23,35.55 L17.6,32.8 C17.36,31.71 16.04,31.17 14.47,31.51 L12.47,31.95 C10.85,31.5 9.16,30.95 7.54,30.3 L9.7,28 Z M12.14,35.51 L11.87,34.28 C12.0748358,34.136438 12.3058759,34.0345085 12.55,33.98 L12.61,33.98 L14.9,33.48 C15.1639453,33.4261224 15.4360547,33.4261224 15.7,33.48 L16.27,35.87 C14.79,35.74 13.4,35.63 12.14,35.51 Z M7.75,32.64 C7.80541932,32.6260785 7.85909182,32.6059513 7.91,32.58 C8.63,32.84 9.35,33.09 10.08,33.33 C9.85891814,33.6735098 9.78337694,34.090785 9.87,34.49 L10.05,35.28 C7.66243764,35.1045423 5.30863426,34.6136062 3.05,33.82 C4.55906402,33.2251283 6.13890744,32.8284868 7.75,32.64 L7.75,32.64 Z M32.6,52.31 C32.1904248,52.4443407 31.8243756,52.6860713 31.54,53.01 C31.4717643,53.0851528 31.3982436,53.1553317 31.32,53.22 C29.9993251,53.4684112 28.6625878,53.622136 27.32,53.68 C27,53.68 26.6666667,53.68 26.32,53.68 L25.74,53.68 L25.16,53.68 C24.82,53.68 24.4866667,53.68 24.16,53.68 C22.8174496,53.6216624 21.480746,53.4679415 20.16,53.22 C20.0850857,53.1550931 20.0149069,53.0849143 19.95,53.01 C19.6656244,52.6860713 19.2995752,52.4443407 18.89,52.31 C6.46,49.26 3.59,40 2.93,35.81 C8.39,38 22.39,38.1 25.73,38.1 C29.07,38.1 43,38 48.51,35.82 C48.1754424,37.8072702 47.5592414,39.7366864 46.68,41.55 C44,47.05 39.26,50.67 32.6,52.31 Z"/>
      </g>
    </g>
  </g>
</svg>
