<svg xmlns="http://www.w3.org/2000/svg" width="64" height="64" viewBox="0 0 64 64" style="background:#fff">
  <g id="Rind-(Schulterbraten)" fill="none" fill-rule="evenodd" stroke="none" stroke-width="1">
    <rect width="64" height="64" fill="#FFF"/>
    <g transform="translate(2 4)">
      <g id="Layer_2">
        <rect id="Rectangle" width="60" height="60" x="0" y="0"/>
        <rect id="Rectangle" width="60" height="60" x="0" y="0"/>
      </g>
      <g id="Layer_1" fill-rule="nonzero" transform="translate(2 3)">
        <path id="Path" fill="#E05362" d="M32.82,26.9 C25.82,24.6 25.82,37.96 30.54,40.81 L30.54,40.81 C28.54,41.15 27.42,42.01 25.24,41.18 C20.83,39.49 20.95,34.28 18.11,31.08 C18.4064776,31.0949774 18.7035224,31.0949774 19,31.08 C22.47,30.78 22.87,24.86 21.06,22.69 C14.19,14.43 1.36,15.93 0.22,27.8 C-0.21,32.35 1.63,37 5.72,39.21 C7.53,40.21 9.78,40.21 11.52,41.28 C13.43,42.39 13.52,44.28 14.47,46.28 C18.62,54.76 29.67,59.28 36.98,51.66 C43.2,45.2 42.35,30.05 32.82,26.9 Z" opacity=".5"/>
        <g id="Group" fill="#C17953" opacity=".5" transform="translate(27 2)">
          <path id="Path" d="M10.73,1.35 C10.0956251,0.617612428 9.04397884,0.411407271 8.18,0.85 C7.25,1.36 6.96,2.36 6.39,3.19 C5.25,4.82 3.67,5.19 1.96,5.83 C-0.3,6.68 0.33,11.52 2.61,11.83 C4.18765708,11.9191992 5.7450719,11.4402676 7,10.48 C7.22,10.33 7.41,10.17 7.61,10.01 C7.48639819,10.3792361 7.38948207,10.7568748 7.32,11.14 C6.99,13.14 8.32,16.97 10.75,15.14 C12.54,13.75 12.9,10.28 12.87,8.14 C12.84,6 12.33,2.93 10.73,1.35 Z"/>
        </g>
        <g id="Group" fill="#C17953" opacity=".5" transform="translate(42 2)">
          <path id="Path" d="M12.66,8.08 C12.41,6.18 10.59,5.64 9.03,4.83 C7.8793578,4.26280526 6.97082804,3.30104133 6.47,2.12 C6.22835633,1.28783213 5.52841417,0.669684192 4.67275539,0.532778788 C3.81709662,0.395873384 2.9592271,0.76477145 2.47,1.48 C-0.229295036,5.05403049 -0.659877447,9.85250294 1.36,13.85 C2.02,15.17 3.56,16.31 4.99,15.1 C6.2132545,13.8286928 6.58076967,11.9598391 5.93,10.32 C6.44161705,10.6544163 6.98409512,10.9390499 7.55,11.17 C10.23,12.25 13.06,11.15 12.66,8.08 Z"/>
        </g>
        <path id="Path" fill="#3D454C" d="M43.21 18.54C42.1054305 18.54 41.21 19.4354305 41.21 20.54 41.21 21.1143761 41.6756239 21.58 42.25 21.58 42.8243761 21.58 43.29 21.1143761 43.29 20.54 43.29 21.0922847 43.7377153 21.54 44.29 21.54 44.8422847 21.54 45.2900006 21.0922847 45.2900006 20.54 45.2904359 19.9954107 45.0687762 19.4741929 44.6762181 19.0967332 44.28366 18.7192735 43.7541536 18.5182162 43.21 18.54zM38.6199999 18.55C37.5073895 18.5771449 36.6196689 19.4870585 36.6199999 20.6 36.6199999 21.1771376 37.0878624 21.645 37.665 21.645 38.2421376 21.645 38.71 21.1771376 38.71 20.6 38.71 21.1522847 39.1577153 21.6 39.71 21.6 40.2622847 21.6 40.71 21.1522847 40.71 20.6 40.7101048 20.0493043 40.4886411 19.521724 40.0954964 19.1361036 39.7023518 18.7504832 39.1705909 18.5392547 38.6199999 18.55z"/>
        <path id="Shape" fill="#3D454C" d="M50.31,7.68 C52.2,6.24 53.92,4 53.92,1.8 C53.8992006,0.967629103 53.2322166,0.296257073 52.4,0.27 C51.4447451,0.363337561 50.5154053,0.634677636 49.66,1.07 C48.1347536,1.79967291 46.4863343,2.23721631 44.8,2.36 C42.3954022,0.97408256 39.4345978,0.97408256 37.03,2.36 C35.3441328,2.23443695 33.6962192,1.7970278 32.17,1.07 C31.3185546,0.633654295 30.3922879,0.362220815 29.44,0.27 C28.6077834,0.296257073 27.9407994,0.967629103 27.92,1.8 C27.92,3.96 29.63,6.24 31.53,7.68 L28.73,10.48 C28.4046629,10.8083658 28.3467786,11.3169203 28.59,11.71 C29.5028574,13.0061028 31.0054033,13.7573758 32.59,13.71 L33.28,13.71 C33.4902819,14.5173634 33.7817684,15.3013615 34.15,16.05 C34.31,16.4 34.48,16.77 34.59,17.05 C33.6713472,17.9667208 33.1565977,19.2121986 33.16,20.51 C33.16,23.65 36.65,26.2 40.94,26.2 C45.23,26.2 48.72,23.65 48.72,20.51 C48.725248,19.2098635 48.2061203,17.962515 47.28,17.05 C47.4,16.74 47.57,16.37 47.73,16.05 C48.0999206,15.3055637 48.3914863,14.5247041 48.6,13.72 L49.29,13.72 C50.8745967,13.7673758 52.3771426,13.0161028 53.29,11.72 C53.5306456,11.3246861 53.4685978,10.815894 53.14,10.49 L50.31,7.68 Z M40.92,24.27 C37.78,24.27 35.14,22.58 35.14,20.58 C35.152466,19.6498301 35.5957346,18.7780685 36.34,18.22 C36.4045411,18.1641793 36.4616719,18.1003271 36.51,18.03 C36.7026174,18.0265315 36.8901329,17.9674988 37.05,17.86 C38.2339547,17.080653 39.6340242,16.6956339 41.05,16.76 C42.4662075,16.6935576 43.8669079,17.0787502 45.05,17.86 C45.1611935,17.9378967 45.2870843,17.992336 45.42,18.02 C45.4717448,18.0936579 45.5321808,18.1608091 45.6,18.22 C46.3442654,18.7780685 46.787534,19.6498301 46.8,20.58 C46.7,22.58 44.05,24.27 40.92,24.27 Z M49.27,11.75 L47.7,11.75 C47.1477153,11.75 46.7,12.1977153 46.7,12.75 C46.5861801,13.6292535 46.3116125,14.480074 45.89,15.26 L45.59,15.92 C42.6791061,14.3450627 39.1633995,14.3752729 36.28,16 C36.18,15.76 36.07,15.51 35.95,15.26 C35.5283875,14.480074 35.2538199,13.6292535 35.14,12.75 C35.14,12.1977153 34.6922847,11.75 34.14,11.75 L32.57,11.75 C31.9502483,11.7608593 31.3435304,11.5714792 30.84,11.21 L33.79,8.21 L33.79,8.21 C33.872056,8.15319459 33.9431946,8.08205603 34,8 L34,8 C34.0277546,7.93496402 34.0511398,7.86814902 34.07,7.8 C34.0747864,7.74009546 34.0747864,7.67990454 34.07,7.62 C34.0798848,7.56040712 34.0798848,7.49959288 34.07,7.44 C34.0756875,7.37679436 34.0756875,7.31320564 34.07,7.25 C34.0493988,7.19384358 34.0225644,7.14017482 33.99,7.09 C33.959295,7.02655423 33.9224526,6.96626672 33.88,6.91 C33.88,6.91 33.88,6.91 33.88,6.86 C33.8473019,6.83094854 33.8101658,6.80731645 33.77,6.79 C33.77,6.79 33.71,6.72 33.67,6.7 C31.954382,5.76357928 30.6468059,4.22441615 30,2.38 C30.4809216,2.53007316 30.951863,2.71043367 31.41,2.92 C33.2476477,3.79624681 35.2454652,4.28634174 37.28,4.36 C37.4365423,4.35906142 37.5906777,4.32138386 37.73,4.25 C39.6852442,3.01724135 42.1747558,3.01724135 44.13,4.25 C44.2693223,4.32138386 44.4234577,4.35906142 44.58,4.36 C46.6115373,4.28781604 48.6063842,3.79761475 50.44,2.92 C50.902161,2.7118913 51.3763385,2.53157028 51.86,2.38 C51.2160764,4.1970392 49.9376864,5.72045402 48.26,6.67 C48.26,6.67 48.2,6.73 48.16,6.75 C48.12,6.77 48.08,6.75 48.05,6.83 C48.02,6.91 48.05,6.83 48.05,6.88 C48.0098457,6.93433227 47.9731082,6.99110846 47.94,7.05 C47.909268,7.10466297 47.8825315,7.16147798 47.86,7.22 C47.8553378,7.27990943 47.8553378,7.34009057 47.86,7.4 C47.8502381,7.46295717 47.8502381,7.52704283 47.86,7.59 C47.8552136,7.64990454 47.8552136,7.71009546 47.86,7.77 C47.8788602,7.83814902 47.9022454,7.90496402 47.93,7.97 C47.93,7.97 47.93,7.97 47.93,8.03 C47.93,8.09 47.99,8.09 48.01,8.13 C48.03,8.17 48.01,8.21 48.09,8.24 L51.09,11.24 C50.5579806,11.6099015 49.916765,11.7895828 49.27,11.75 L49.27,11.75 Z"/>
        <path id="Path" fill="#3D454C" d="M38.52 9.39C37.9677153 9.39 37.52 9.83771525 37.52 10.39 37.52 10.9422847 37.9677153 11.39 38.52 11.39 39.0722847 11.39 39.52 10.9422847 39.52 10.39 39.52 9.83771525 39.0722847 9.39 38.52 9.39zM43.52 9.39C42.9677153 9.39 42.52 9.83771525 42.52 10.39 42.52 10.9422847 42.9677153 11.39 43.52 11.39 44.0722847 11.39 44.52 10.9422847 44.52 10.39 44.52 9.83771525 44.0722847 9.39 43.52 9.39z"/>
        <path id="Shape" fill="#3D454C" d="M10.38,19.71 C5.58,19.71 1.67,22.71 1.67,26.49 L1.67,33.1 C1.78237107,35.4591241 3.16937092,37.5702759 5.29,38.61 C9.15905512,40.6568285 12.2062184,43.9723398 13.92,48 C15.83,52.51 21.27,55.55 27.45,55.55 C35.29,55.55 41.67,50.66 41.67,44.64 L41.67,38.06 C41.6303242,35.5397044 40.5693357,33.1434583 38.73,31.42 C30.65,23.33 18.67,19.71 10.38,19.71 Z M3.67,33.1 L3.67,30.81 C4.06377177,31.1918281 4.49994214,31.5273438 4.97,31.81 L4.97,35.92 C4.16793177,35.1983081 3.69785333,34.1785995 3.67,33.1 L3.67,33.1 Z M39.67,44.67 C39.67,49.58 34.19,53.58 27.45,53.58 C22.15,53.58 17.34,50.98 15.76,47.24 C13.9835907,43.0716758 10.9119614,39.5862883 7,37.3 L7,33.05 C10.1127084,35.082999 12.5495773,37.996798 14,41.42 C15.83,45.94 21.27,49 27.45,49 C32.65,49 37.19,46.84 39.67,43.64 L39.67,44.67 Z M27.45,47 C22.15,47 17.34,44.4 15.76,40.67 C13.8626545,36.2324217 10.5125761,32.5720203 6.26,30.29 C4.7718678,29.6019239 3.77845701,28.1559167 3.67,26.52 C3.67,23.89 6.67,21.74 10.38,21.74 C18.25,21.74 29.64,25.18 37.32,32.86 C38.7781062,34.2139901 39.6258518,36.100675 39.67,38.09 C39.67,43 34.19,47 27.45,47 Z"/>
        <path id="Shape" fill="#3D454C" d="M29.25,33 C27.52,32.6 27.44,32.52 26.87,32 L26.71,31.86 C25.660659,30.8355118 23.9794882,30.855659 22.955,31.905 C21.9305118,32.954341 21.950659,34.6355118 23,35.66 L23.14,35.82 C23.64,36.39 23.71,36.48 24.14,38.21 C24.6397478,40.2739083 26.5712998,41.6639487 28.6870661,41.4822935 C30.8028323,41.3006383 32.4691705,39.6016908 32.6097922,37.4828017 C32.7504139,35.3639126 31.3232049,33.4596595 29.25,33 L29.25,33 Z M28.25,39.5 C27.1841137,39.511426 26.2512976,38.7859024 26,37.75 C25.52,35.75 25.33,35.37 24.58,34.51 L24.44,34.35 C24.2546153,34.1513553 24.2148675,33.8573061 24.3408595,33.6165713 C24.4668515,33.3758366 24.7311169,33.2408971 25,33.28 C25.158349,33.2773905 25.3118721,33.3345154 25.43,33.44 L25.58,33.57 C26.45,34.33 26.79,34.57 28.83,34.99 C29.953095,35.2721192 30.6937629,36.342191 30.5622774,37.4926888 C30.430792,38.6431867 29.4677883,39.5185532 28.31,39.54 L28.25,39.5 Z"/>
      </g>
    </g>
  </g>
</svg>
