<svg xmlns="http://www.w3.org/2000/svg" width="64" height="64" viewBox="0 0 64 64" style="background:#fff">
  <g id="Rind-(Hohrücken)" fill="none" fill-rule="evenodd" stroke="none" stroke-width="1">
    <rect width="64" height="64" fill="#FFF"/>
    <g transform="translate(2 4)">
      <g id="Layer_2">
        <rect id="Rectangle" width="60" height="60" x="0" y="0"/>
        <rect id="Rectangle" width="60" height="60" x="0" y="0"/>
      </g>
      <g id="Layer_1" fill-rule="nonzero" transform="translate(4 3)">
        <path id="Path" fill="#E05362" d="M41.28,36.58 C39.23,36.44 37.18,39 35.85,40.31 C34.33,41.81 32.39,43.31 31.2,45.16 C30.8675555,44.9103866 30.4655893,44.7705723 30.05,44.76 C26.795458,44.8115105 23.5453353,44.4995792 20.36,43.83 C18.06,43.25 15.95,42.04 13.59,41.74 C12.14,41.55 12.07,44.24 12.44,45.02 C15.58,51.6 23.87,51.91 30.23,52.09 C30.5442122,52.097877 30.8548547,52.0219421 31.13,51.87 C31.6517904,52.7402086 32.7295405,53.100873 33.67,52.72 C35.84,51.59 37.46,49.07 39.04,47.23 C40.83,45.14 42.73,43.13 43.29,40.37 C43.57,39 43,36.7 41.28,36.58 Z" opacity=".5"/>
        <path id="Path" fill="#E05362" d="M26.51,40.83 C31,43.15 32.28,32.14 28.15,30 C23.09,27.42 17.41,25 11.69,26.63 C7.06958184,27.8298542 3.80468211,31.9477089 3.69,36.72 C3.61,38.2 4.78,40.79 6.61,40.03 C9.48,38.84 11.11,36.76 14.51,36.64 C18.73,36.52 22.82,38.91 26.51,40.83 Z" opacity=".5"/>
        <g id="Group" fill="#C17953" opacity=".5" transform="translate(25 3)">
          <path id="Path" d="M10.73,0.76 C10.1021343,0.0175019819 9.04514449,-0.19389598 8.18,0.25 C7.25,0.76 6.96,1.76 6.39,2.59 C5.25,4.23 3.67,4.59 1.96,5.23 C-0.3,6.08 0.33,10.92 2.61,11.23 C4.18690012,11.3130203 5.74222615,10.834731 7,9.88 C7.22,9.73 7.41,9.57 7.61,9.41 C7.4875985,9.77958948 7.39070422,10.1571431 7.32,10.54 C6.99,12.54 8.32,16.37 10.75,14.54 C12.54,13.14 12.9,9.68 12.87,7.54 C12.84,5.4 12.33,2.33 10.73,0.76 Z"/>
        </g>
        <g id="Group" fill="#C17953" opacity=".5" transform="translate(40 2)">
          <path id="Path" d="M12.66,8.48 C12.41,6.59 10.59,6 9,5.23 C7.84719038,4.66574559 6.93776918,3.703038 6.44,2.52 C6.19835633,1.68783213 5.49841417,1.06968419 4.64275539,0.932778788 C3.78709662,0.795873384 2.9292271,1.16477145 2.44,1.88 C-0.258762761,5.45803152 -0.689216764,10.2589509 1.33,14.26 C1.99,15.57 3.53,16.71 4.96,15.5 C6.1832545,14.2286928 6.55076967,12.3598391 5.9,10.72 C6.40936854,11.0582287 6.95223581,11.3430665 7.52,11.57 C10.23,12.65 13.06,11.55 12.66,8.48 Z"/>
        </g>
        <path id="Path" fill="#3D454C" d="M41.21 19.07C40.1054305 19.07 39.21 19.9654305 39.21 21.07 39.21 21.6443761 39.6756239 22.11 40.25 22.11 40.8243761 22.11 41.29 21.6443761 41.29 21.07 41.29 21.6222847 41.7377153 22.07 42.29 22.07 42.8422847 22.07 43.2900006 21.6222847 43.2900006 21.07 43.2904359 20.5254107 43.0687762 20.0041929 42.6762181 19.6267332 42.28366 19.2492735 41.7541536 19.0482162 41.21 19.07zM36.62 19.09C35.5154305 19.09 34.62 19.9854305 34.62 21.09 34.62 21.6671376 35.0878624 22.135 35.665 22.135 36.2421376 22.135 36.71 21.6671376 36.71 21.09 36.71 21.6422847 37.1577153 22.09 37.71 22.09 38.2622847 22.09 38.710001 21.6422847 38.710001 21.09 38.7105535 20.5435989 38.4875307 20.0207613 38.0927602 19.6429906 37.6979898 19.2652198 37.1658479 19.0654117 36.62 19.09z"/>
        <path id="Shape" fill="#3D454C" d="M48.31,8.22 C50.2,6.78 51.92,4.49 51.92,2.33 C51.8989621,1.49939743 51.2306026,0.831037945 50.4,0.81 C49.4447451,0.903337561 48.5154053,1.17467764 47.66,1.61 C46.1356449,2.34050102 44.4864263,2.77486312 42.8,2.89 C40.3954022,1.50408256 37.4345978,1.50408256 35.03,2.89 C33.3440058,2.77223968 31.6952713,2.33800509 30.17,1.61 C29.3185546,1.17365429 28.3922879,0.902220815 27.44,0.81 C26.6093974,0.831037945 25.9410379,1.49939743 25.92,2.33 C25.92,4.49 27.63,6.78 29.53,8.22 L26.73,11 C26.4046629,11.3283658 26.3467786,11.8369203 26.59,12.23 C27.5028574,13.5261028 29.0054033,14.2773758 30.59,14.23 L31.28,14.23 C31.4920098,15.0335975 31.7834452,15.8141082 32.15,16.56 C32.31,16.92 32.48,17.29 32.59,17.56 C31.6700327,18.4717453 31.1548034,19.714781 31.16,21.01 C31.16,24.15 34.65,26.71 38.94,26.71 C43.23,26.71 46.72,24.15 46.72,21.01 C46.7259637,19.7126521 46.206515,18.4681394 45.28,17.56 C45.4,17.25 45.57,16.88 45.73,16.56 C46.0965548,15.8141082 46.3879902,15.0335975 46.6,14.23 L47.29,14.23 C48.8745967,14.2773758 50.3771426,13.5261028 51.29,12.23 C51.5206105,11.8257409 51.441844,11.3158311 51.1,11 L48.31,8.22 Z M38.92,24.81 C35.78,24.81 33.14,23.12 33.14,21.11 C33.1531649,20.1850989 33.5922558,19.3179865 34.33,18.76 C34.3975489,18.704271 34.458001,18.6404604 34.51,18.57 C34.7036363,18.5635774 34.8912374,18.5010437 35.05,18.39 C36.2339547,17.610653 37.6340242,17.2256339 39.05,17.29 C40.4662075,17.2235576 41.8669079,17.6087502 43.05,18.39 C43.1591061,18.471565 43.2858412,18.5263694 43.42,18.55 C43.4689494,18.6287626 43.5296504,18.6995804 43.6,18.76 C44.3415113,19.3159298 44.7844561,20.1833634 44.8,21.11 C44.7,23.12 42.05,24.81 38.92,24.81 Z M47.27,12.29 L45.7,12.29 C45.1477153,12.29 44.7,12.7377153 44.7,13.29 C44.5845468,14.1657182 44.3100381,15.0129673 43.89,15.79 L43.59,16.46 C42.1919181,15.667148 40.6070241,15.2631554 39,15.29 C37.3403851,15.2541919 35.7043539,15.6874629 34.28,16.54 C34.18,16.3 34.07,16.05 33.95,15.8 C33.531272,15.0188443 33.2568791,14.1685651 33.14,13.29 C33.14,12.7377153 32.6922847,12.29 32.14,12.29 L30.57,12.29 C29.9491213,12.2979548 29.3422984,12.1050342 28.84,11.74 L31.79,8.74 L31.79,8.74 C31.8541959,8.67898483 31.9082124,8.60808816 31.95,8.53 C31.95,8.53 31.95,8.53 31.95,8.47 C31.9777023,8.40836296 32.0010919,8.34487699 32.02,8.28 C32.0247864,8.22009546 32.0247864,8.15990454 32.02,8.1 C32.0302647,8.03708258 32.0302647,7.97291742 32.02,7.91 C32.0256875,7.84679436 32.0256875,7.78320564 32.02,7.72 C31.9993988,7.66384358 31.9725644,7.61017482 31.94,7.56 C31.9091796,7.49975751 31.8723241,7.44279893 31.83,7.39 L31.83,7.33 C31.7948188,7.30441045 31.7580814,7.28103206 31.72,7.26 C31.72,7.26 31.66,7.19 31.62,7.17 C29.9344483,6.2386748 28.6471179,4.7237501 28,2.91 C28.4,3.03 28.9,3.24 29.41,3.45 C31.243743,4.32864635 33.2381118,4.82213353 35.27,4.9 C35.4265423,4.89906142 35.5806777,4.86138386 35.72,4.79 C37.6694859,3.53746983 40.1705141,3.53746983 42.12,4.79 C42.2593223,4.86138386 42.4134577,4.89906142 42.57,4.9 C44.6022883,4.82497106 46.5972263,4.33134305 48.43,3.45 C48.95,3.24 49.43,3.03 49.85,2.91 C49.2060764,4.7270392 47.9276864,6.25045402 46.25,7.2 C46.25,7.2 46.19,7.26 46.15,7.29 C46.1119186,7.31103206 46.0751812,7.33441045 46.04,7.36 C46.04,7.36 46.04,7.36 46.04,7.42 C45.9976759,7.47279893 45.9608204,7.52975751 45.93,7.59 C45.8974356,7.64017482 45.8706012,7.69384358 45.85,7.75 C45.8443125,7.81320564 45.8443125,7.87679436 45.85,7.94 C45.8397353,8.00291742 45.8397353,8.06708258 45.85,8.13 C45.8452136,8.18990454 45.8452136,8.25009546 45.85,8.31 C45.8689081,8.37487699 45.8922977,8.43836296 45.92,8.5 C45.92,8.5 45.92,8.5 45.92,8.56 C45.9441738,8.59525338 45.9709129,8.62867724 46,8.66 C46.0231343,8.70224544 46.049902,8.74239698 46.08,8.78 L49.08,11.78 C48.5507251,12.1477312 47.9134021,12.3273084 47.27,12.29 L47.27,12.29 Z"/>
        <path id="Path" fill="#3D454C" d="M36.52 9.92C35.9677153 9.92 35.52 10.3677153 35.52 10.92 35.52 11.4722847 35.9677153 11.92 36.52 11.92 37.0722847 11.92 37.52 11.4722847 37.52 10.92 37.52 10.3677153 37.0722847 9.92 36.52 9.92zM41.52 9.92C40.9677153 9.92 40.52 10.3677153 40.52 10.92 40.52 11.4722847 40.9677153 11.92 41.52 11.92 42.0722847 11.92 42.52 11.4722847 42.52 10.92 42.52 10.3677153 42.0722847 9.92 41.52 9.92z"/>
        <path id="Shape" fill="#3D454C" d="M41.56,35.62 C41.4511964,35.5194198 41.3214012,35.4442752 41.18,35.4 C36.47,33.94 32.74,30.71 28.24,28.8 C25.1895011,27.4433599 22.0404622,26.3201358 18.82,25.44 C12.82,23.96 8.37,28.19 4.07,31.82 C3.07,32.65 4.5,34.06 5.48,33.23 C8.12,31.01 10.9,28.33 14.32,27.49 C17.74,26.65 21.04,28.3 24.32,29.49 C29.21,31.25 33.38,34.37 38.09,36.38 C33.46,38.8 29.79,47.08 29.8,51.98 C26.27,52.3 22.47,51.23 18.63,50.08 C12,48.1 5.73,45.12 2,39 C1.71250402,38.5477474 1.11960322,38.4025198 0.655639753,38.6707068 C0.191676287,38.9388937 0.0215982754,39.5251496 0.27,40 C5.42,48.46 15,51.48 24.13,53.58 C32.38,55.48 38.46,51.88 42.26,44.46 C43.66,41.72 44.89,36.13 41.56,35.62 Z M40.95,42.62 C40.1262527,44.4189153 39.0669706,46.1003154 37.8,47.62 C36.2786289,49.5600235 34.1759337,50.9618203 31.8,51.62 C31.96,47.49 34.73,42.35 37.45,39.55 C38.3,38.68 41.13,36.98 42.05,38.93 C42.42,39.7 41.29,41.86 41,42.6 L40.95,42.62 Z"/>
        <path id="Path" fill="#3D454C" d="M9.54 35.66C8.66 34.71 7.25 36.13 8.12 37.07 11.45 40.68 12.69 45.35 17.18 47.91 17.6472916 48.1211896 18.1986013 47.9446812 18.4563444 47.501363 18.7140875 47.0580449 18.5947221 46.4916091 18.18 46.19 14 43.77 12.7 39.08 9.54 35.66zM27.31 47.13C27.8622847 47.13 28.31 46.6822847 28.31 46.13 28.31 45.5777153 27.8622847 45.13 27.31 45.13 25.18 45.08 23.7 42.7 22.49 41.22 21.38515 39.630657 19.8954124 38.3473496 18.16 37.49 16.98 37 16.46 38.93 17.63 39.42 21.53 41.06 22.51 47 27.31 47.13zM2 36.58C2.55228475 36.58 3 36.1322847 3 35.58 3 35.0277153 2.55228475 34.58 2 34.58 1.44771525 34.58 1 35.0277153 1 35.58 1 36.1322847 1.44771525 36.58 2 36.58z"/>
      </g>
    </g>
  </g>
</svg>
