<svg xmlns="http://www.w3.org/2000/svg" width="64" height="64" viewBox="0 0 64 64" style="background:#fff">
  <g id="Rind-(Keule)" fill="none" fill-rule="evenodd" stroke="none" stroke-width="1">
    <rect width="64" height="64" fill="#FFF"/>
    <g transform="translate(2 4)">
      <g id="Layer_2">
        <rect id="Rectangle" width="60" height="60" x="0" y="0"/>
        <rect id="Rectangle" width="60" height="60" x="0" y="0"/>
      </g>
      <g id="Layer_1" fill-rule="nonzero" transform="translate(1 4)">
        <g id="Group" opacity=".5" transform="translate(3 10)">
          <path id="Path" fill="#E05362" d="M38.31,25 C38.1031447,24.4031803 37.7608672,23.8623818 37.31,23.42 C36.94,21.42 35.88,19.83 34.13,19.83 C30.8,19.83 30.19,25.95 32.13,28.59 C32.2086549,29.2437071 32.3561398,29.8872775 32.57,30.51 C32.72,30.93 26.29,33.03 25.97,33.08 C23.6308418,33.4873798 21.2275087,33.3157131 18.97,32.58 C15.5029447,31.3768381 12.5548774,29.0183842 10.62,25.9 C8.63335582,22.5633797 7.35672749,18.8526467 6.87,15 C6.17,10.64 6.81,5.8 5,1.74 C4.13,-0.26 2.35,-0.11 1.56,1.82 C-1,8.09 0.83,18.13 2.63,24.45 C4.43,30.77 7.85,36.85 13.26,40.45 C24.42,47.89 43.85,41.08 38.31,25 Z"/>
          <path id="Path" fill="#4885E0" d="M27.76,19.24 C22.9165183,18.631305 18.0033894,18.8886433 13.25,20 C10.75,20.63 11.02,27.09 13.43,27.69 C18.2109583,28.7617586 23.1443741,28.9750772 28,28.32 C31.79,27.8 31.48,19.75 27.76,19.24 Z"/>
        </g>
        <g id="Group" fill="#C17953" opacity=".5" transform="translate(28 2)">
          <path id="Path" d="M10.73,1.15 C10.0963193,0.417419045 9.0466979,0.207494755 8.18,0.64 C7.25,1.16 7,2.16 6.39,3 C5.25,4.63 3.67,5 1.96,5.64 C-0.3,6.49 0.33,11.33 2.61,11.64 C4.18889924,11.7263524 5.74644297,11.2438331 7,10.28 C7.22,10.13 7.41,9.97 7.61,9.81 C7.48639819,10.1792361 7.38948207,10.5568748 7.32,10.94 C6.99,12.94 8.32,16.77 10.75,14.94 C12.54,13.55 12.9,10.08 12.87,7.94 C12.84,5.8 12.33,2.73 10.73,1.15 Z"/>
        </g>
        <g id="Group" fill="#C17953" opacity=".5" transform="translate(43 2)">
          <path id="Path" d="M12.66,7.88 C12.41,5.98 10.59,5.44 9.03,4.62 C7.87787224,4.05968797 6.96823215,3.10030194 6.47,1.92 C6.22835633,1.08783213 5.52841417,0.469684192 4.67275539,0.332778788 C3.81709662,0.195873384 2.9592271,0.56477145 2.47,1.28 C-0.229295036,4.85403049 -0.659877447,9.65250294 1.36,13.65 C2.02,14.97 3.56,16.11 4.99,14.9 C6.2132545,13.6286928 6.58076967,11.7598391 5.93,10.12 C6.42452684,10.4620023 6.95018421,10.7566382 7.5,11 C10.23,12.05 13.06,11 12.66,7.88 Z"/>
        </g>
        <path id="Path" fill="#3D454C" d="M44.21 18.94C43.1054305 18.94 42.21 19.8354305 42.21 20.94 42.21 21.5143761 42.6756239 21.98 43.25 21.98 43.8243761 21.98 44.29 21.5143761 44.29 20.94 44.29 21.4922847 44.7377153 21.94 45.29 21.94 45.8422847 21.94 46.2900006 21.4922847 46.2900006 20.94 46.2904359 20.3954107 46.0687762 19.8741929 45.6762181 19.4967332 45.28366 19.1192735 44.7541536 18.9182162 44.21 18.94zM39.6199999 19C38.5073895 19.0271449 37.6196689 19.9370585 37.6199999 21.05 37.6199999 21.6271376 38.0878624 22.095 38.665 22.095 39.2421376 22.095 39.71 21.6271376 39.71 21.05 39.71 21.6022847 40.1577153 22.05 40.71 22.05 41.2622847 22.05 41.71 21.6022847 41.71 21.05 41.7101048 20.4993043 41.4886411 19.971724 41.0954964 19.5861036 40.7023518 19.2004832 40.1705909 18.9892547 39.6199999 19z"/>
        <path id="Shape" fill="#3D454C" d="M51.31,8.09 C53.2,6.64 54.92,4.36 54.92,2.2 C54.8989621,1.36939743 54.2306026,0.701037945 53.4,0.68 C52.4461381,0.774065773 51.5175252,1.04180453 50.66,1.47 C49.141139,2.20736929 47.4944899,2.64534397 45.81,2.76 C44.6173749,2.10657454 43.279894,1.76274912 41.92,1.76 C40.5605921,1.76654101 39.2240279,2.11013079 38.03,2.76 C36.3425111,2.64414926 34.6928108,2.20626587 33.17,1.47 C32.316476,1.04063821 31.3909166,0.772802347 30.44,0.68 C29.6093974,0.701037945 28.9410379,1.36939743 28.92,2.2 C28.92,4.36 30.63,6.64 32.53,8.09 L29.73,10.88 C29.4046629,11.2083658 29.3467786,11.7169203 29.59,12.11 C30.5028574,13.4061028 32.0054033,14.1573758 33.59,14.11 L34.28,14.11 C34.4902819,14.9173634 34.7817684,15.7013615 35.15,16.45 C35.31,16.81 35.48,17.17 35.59,17.45 C34.6375035,18.3825465 34.1127543,19.6672771 34.14,21 C34.14,24.14 37.63,26.7 41.92,26.7 C46.21,26.7 49.7,24.12 49.7,21 C49.7059637,19.7026521 49.186515,18.4581394 48.26,17.55 C48.38,17.23 48.55,16.87 48.71,16.55 C49.0782316,15.8013615 49.3697181,15.0173634 49.58,14.21 L50.27,14.21 C51.8545967,14.2573758 53.3571426,13.5061028 54.27,12.21 C54.5106456,11.8146861 54.4485978,11.305894 54.12,10.98 L51.31,8.09 Z M41.92,24.68 C38.78,24.68 36.14,22.98 36.14,20.98 C36.15009,20.0515696 36.5895017,19.1801313 37.33,18.62 C37.399571,18.5704021 37.4604021,18.509571 37.51,18.44 C37.7036363,18.4335774 37.8912374,18.3710437 38.05,18.26 C39.2339547,17.480653 40.6340242,17.0956339 42.05,17.16 C43.4662075,17.0935576 44.8669079,17.4787502 46.05,18.26 C46.1611935,18.3378967 46.2870843,18.392336 46.42,18.42 C46.4665019,18.4976796 46.527631,18.5656008 46.6,18.62 C47.312283,19.2026376 47.717762,20.0799466 47.7,21 C47.7,23 45.05,24.68 41.92,24.68 Z M50.27,12.15 L48.7,12.15 C48.1477153,12.15 47.7,12.5977153 47.7,13.15 C47.5861801,14.0292535 47.3116125,14.880074 46.89,15.66 L46.59,16.33 C43.6824603,14.7416293 40.1598149,14.771899 37.28,16.41 C37.17,16.16 37.07,15.92 36.95,15.66 C36.5283875,14.880074 36.2538199,14.0292535 36.14,13.15 C36.14,12.5977153 35.6922847,12.15 35.14,12.15 L33.57,12.15 C32.9502483,12.1608593 32.3435304,11.9714792 31.84,11.61 L34.79,8.61 L34.79,8.61 C34.8541959,8.54898483 34.9082124,8.47808816 34.95,8.4 C34.95,8.4 34.95,8.4 34.95,8.34 C34.9777023,8.27836296 35.0010919,8.21487699 35.02,8.15 C35.0255818,8.08678965 35.0255818,8.02321035 35.02,7.96 C35.0298848,7.90040712 35.0298848,7.83959288 35.02,7.78 C35.0256875,7.71679436 35.0256875,7.65320564 35.02,7.59 C34.9993988,7.53384358 34.9725644,7.48017482 34.94,7.43 C34.9070075,7.36783052 34.8702733,7.30772008 34.83,7.25 C34.83,7.25 34.83,7.25 34.83,7.25 C34.7973019,7.22094854 34.7601658,7.19731645 34.72,7.18 C34.72,7.18 34.66,7.11 34.62,7.09 C32.9275175,6.14357653 31.6398832,4.61050918 31,2.78 C31.4793712,2.9345063 31.9500555,3.11476838 32.41,3.32 C34.2476477,4.19624681 36.2454652,4.68634174 38.28,4.76 C38.4371322,4.76418146 38.5925163,4.72619867 38.73,4.65 C40.6852442,3.41724135 43.1747558,3.41724135 45.13,4.65 C45.2674837,4.72619867 45.4228678,4.76418146 45.58,4.76 C47.6115373,4.68781604 49.6063842,4.19761475 51.44,3.32 C51.9039536,3.11624088 52.377889,2.93601193 52.86,2.78 C52.2160764,4.5970392 50.9376864,6.12045402 49.26,7.07 C49.26,7.07 49.2,7.13 49.16,7.16 C49.1198342,7.17731645 49.0826981,7.20094854 49.05,7.23 C49.05,7.23 49.05,7.23 49.05,7.29 C49.0076759,7.34279893 48.9708204,7.39975751 48.94,7.46 C48.9074356,7.51017482 48.8806012,7.56384358 48.86,7.62 C48.8543125,7.68320564 48.8543125,7.74679436 48.86,7.81 C48.8501152,7.86959288 48.8501152,7.93040712 48.86,7.99 C48.8551797,8.05324161 48.8551797,8.11675839 48.86,8.18 C48.8789081,8.24487699 48.9022977,8.30836296 48.93,8.37 C48.93,8.37 48.93,8.37 48.93,8.43 C48.9541738,8.46525338 48.9809129,8.49867724 49.01,8.53 C49.01,8.53 49.01,8.61 49.09,8.64 L52.09,11.64 C51.5579806,12.0099015 50.916765,12.1895828 50.27,12.15 L50.27,12.15 Z"/>
        <path id="Path" fill="#3D454C" d="M39.52 9.79C38.9677153 9.79 38.52 10.2377153 38.52 10.79 38.52 11.3422847 38.9677153 11.79 39.52 11.79 40.0722847 11.79 40.52 11.3422847 40.52 10.79 40.52 10.2377153 40.0722847 9.79 39.52 9.79zM44.52 9.79C43.9677153 9.79 43.52 10.2377153 43.52 10.79 43.52 11.3422847 43.9677153 11.79 44.52 11.79 45.0722847 11.79 45.52 11.3422847 45.52 10.79 45.52 10.2377153 45.0722847 9.79 44.52 9.79z"/>
        <path id="Shape" fill="#3D454C" d="M35.89,27.68 C33.9160687,26.8549931 31.6939313,26.8549931 29.72,27.68 L27.27,28.68 C25.5931393,29.3933972 23.7814881,29.7345744 21.96,29.68 C20.6189824,29.6227387 19.3247898,29.1704671 18.24,28.38 L14.1,25.38 C13.746497,25.1183009 13.263503,25.1183009 12.91,25.38 L11.56,26.43 C8.84091999,22.4124456 6.91626662,17.9114044 5.89,13.17 C5.69855286,12.1914018 4.99765199,11.3902934 4.0531585,11.0705459 C3.10866502,10.7507984 2.06526356,10.9613932 1.31873034,11.6224488 C0.572197117,12.2835045 0.236891722,13.2937554 0.44,14.27 C1.63983818,19.868203 3.92266128,25.1778049 7.16,29.9 L4.89,31.66 C4.45776107,31.9937345 4.37318033,32.6125093 4.7,33.05 L15,47 C18.2157784,51.3363329 23.2914006,53.898243 28.69,53.9102389 L30.4,53.9102389 C36.7459304,53.950232 41.9567097,48.9039568 42.12,42.56 C42.1617466,38.9778623 41.5062378,35.4218121 40.19,32.09 C39.402686,30.1050218 37.854462,28.5171921 35.89,27.68 Z M2.4,13.86 C2.35866682,13.6629373 2.39830657,13.4575313 2.51,13.29 C2.63028029,13.1342765 2.80561274,13.0305083 3,13 C3.42232985,12.9207233 3.82923137,13.1979529 3.91,13.62 C5.01663358,18.6640772 7.08428179,23.4478479 10,27.71 L8.76,28.71 C5.69522102,24.2202816 3.53494221,19.1762344 2.4,13.86 L2.4,13.86 Z M30.4,51.93003 L28.72,51.93003 C23.9558244,51.9190274 19.4770173,49.6573781 16.64,45.83 L6.89,32.64 L11.89,28.75 L11.89,28.75 L13.52,27.49 L17.08,30 C18.4834162,31.0276888 20.1618423,31.6127004 21.9,31.68 C23.9906479,31.7186422 26.0669311,31.3272117 28,30.53 L30.45,29.53 C31.9306717,28.9255224 33.5913978,28.9371976 35.0634243,29.5624334 C36.5354508,30.1876691 37.6969435,31.3747169 38.29,32.86 C39.5059688,35.9513174 40.1137547,39.2483011 40.08,42.57 C39.9335879,47.7905468 35.6525835,51.9428992 30.43,51.93003 L30.4,51.93003 Z"/>
        <path id="Path" fill="#3D454C" d="M34.08,30.45 C34.0108718,30.0918969 33.7522671,29.7998281 33.4051701,29.6878451 C33.058073,29.5758622 32.6775368,29.6617267 32.4121591,29.9119091 C32.1467814,30.1620915 32.0386539,30.5369102 32.13,30.89 L33.05,35 L26.49,35 C24.4222202,34.9987301 22.357102,34.851699 20.31,34.56 C18.522261,34.3063526 16.8655613,33.4780028 15.59,32.2 L13.34,30 C12.9478778,29.6078778 12.3121222,29.6078778 11.92,30 C11.5278778,30.3921222 11.5278778,31.0278778 11.92,31.42 L14.17,33.67 C15.7547185,35.2296345 17.7983667,36.2391897 20,36.55 C22.1428308,36.8584227 24.3050881,37.0121535 26.47,37.01 L33.47,37.01 L35.67,46.91 C35.7706417,47.3791379 36.1903072,47.7106736 36.67,47.7 L36.88,47.7 C37.4179393,47.5804887 37.7578162,47.0483131 37.64,46.51 L34.08,30.45 Z"/>
        <path id="Path" fill="#3D454C" d="M32.78 43.28C32.1743979 40.5291187 29.7367538 38.5698518 26.92 38.57L20.21 38.57C19.6577153 38.57 19.21 39.0177153 19.21 39.57 19.21 40.1222847 19.6577153 40.57 20.21 40.57L26.92 40.57C28.7990845 40.5683354 30.4259974 41.8748587 30.83 43.71L32.13 49.58C32.2306417 50.0491379 32.6503072 50.3806736 33.13 50.37 33.202965 50.3803938 33.277035 50.3803938 33.35 50.37 33.8879393 50.2504887 34.2278162 49.7183131 34.11 49.18L32.78 43.28zM16.46 38.57C15.9077153 38.57 15.46 39.0177153 15.46 39.57 15.46 40.1222847 15.9077153 40.57 16.46 40.57 17.0122847 40.57 17.46 40.1222847 17.46 39.57 17.46 39.0177153 17.0122847 38.57 16.46 38.57z"/>
      </g>
    </g>
  </g>
</svg>
