<svg xmlns="http://www.w3.org/2000/svg" width="64" height="64" viewBox="0 0 64 64" style="background:#fff">
  <g id="Rind-(Hackfleisch)" fill="none" fill-rule="evenodd" stroke="none" stroke-width="1">
    <rect width="64" height="64" fill="#FFF"/>
    <g transform="translate(2 4)">
      <g id="Layer_2">
        <rect id="Rectangle" width="60" height="60" x="0" y="0"/>
        <rect id="Rectangle" width="60" height="60" x="0" y="0"/>
      </g>
      <g id="Layer_1" fill-rule="nonzero" transform="translate(5 3)">
        <path id="Path" fill="#E05362" d="M44.11,34.22 C41.37,34.22 38.59,34.28 35.86,34.13 C34.22,34.05 32.37,34.13 30.86,33.38 C30.1,33 29.55,32.15 28.79,31.73 C27.4434389,30.8086168 25.7054206,30.6825627 24.24,31.4 C25.0713236,30.5885461 25.6333347,29.5413205 25.85,28.4 C26.09,27.21 25.34,24.32 23.56,25.1 C22.19,25.7 21.44,27.01 19.76,26.91 C18.08,26.81 17.11,25 15.49,24.42 C12.07,23.22 9.66,26.51 9.86,29.61 C9.92,30.61 11.16,32.45 11.99,30.89 C13.34,28.34 14.99,30.07 16.36,31.32 C17.3353111,32.2258703 18.5841653,32.7816984 19.91,32.9 C20.5814829,32.9560382 21.2576086,32.8985675 21.91,32.73 L21.4,33.02 C17.98,34.93 14.46,31.21 10.26,32.48 C6.7576147,33.6311937 3.95921794,36.2973827 2.64,39.74 C2.17,40.89 2.64,43.49 4.46,42.97 C6.61,42.34 7.77,40.8 9.82,39.9 C12.82,38.56 14.13,39.83 16.76,40.9 C19.22,41.85 20.45,42 22.76,40.63 C24.28,39.74 25.29,38.63 27.31,39.33 C28.97,39.93 29.68,41.33 31.63,41.8 C35.63,42.67 40.29,42.1 44.33,42.17 C48,42.17 47.84,34.26 44.11,34.22 Z" opacity=".5"/>
        <g id="Group" fill="#C17953" opacity=".5" transform="translate(24 2)">
          <path id="Path" d="M10.73,1.16 C10.1021343,0.417501982 9.04514449,0.20610402 8.18,0.65 C7.25,1.16 7,2.16 6.39,3 C5.25,4.64 3.67,5 1.96,5.64 C-0.3,6.49 0.33,11.33 2.61,11.64 C4.18812906,11.7201661 5.74358095,11.2382949 7,10.28 C7.22,10.14 7.41,9.97 7.61,9.82 C7.47932875,10.2048926 7.37902167,10.5994338 7.31,11 C6.98,13 8.31,16.82 10.74,15 C12.53,13.6 12.89,10.14 12.86,8 C12.83,5.86 12.33,2.73 10.73,1.16 Z"/>
        </g>
        <g id="Group" fill="#C17953" opacity=".5" transform="translate(39 2)">
          <path id="Path" d="M12.66,7.88 C12.41,6 10.59,5.44 9,4.63 C7.84719038,4.06574559 6.93776918,3.103038 6.44,1.92 C6.19835633,1.08783213 5.49841417,0.469684192 4.64275539,0.332778788 C3.78709662,0.195873384 2.9292271,0.56477145 2.44,1.28 C-0.258762761,4.85803152 -0.689216764,9.65895093 1.33,13.66 C1.99,14.97 3.53,16.11 4.96,14.9 C6.1832545,13.6286928 6.55076967,11.7598391 5.9,10.12 C6.40175118,10.4674148 6.93790575,10.7622998 7.5,11 C10.23,12.05 13.06,11 12.66,7.88 Z"/>
        </g>
        <path id="Path" fill="#3D454C" d="M40.21 18.51C39.1054305 18.51 38.21 19.4054305 38.21 20.51 38.21 21.0843761 38.6756239 21.55 39.25 21.55 39.8243761 21.55 40.29 21.0843761 40.29 20.51 40.29 21.0622847 40.7377153 21.51 41.29 21.51 41.8422847 21.51 42.2900006 21.0622847 42.2900006 20.51 42.2904359 19.9654107 42.0687762 19.4441929 41.6762181 19.0667332 41.28366 18.6892735 40.7541536 18.4882162 40.21 18.51zM35.6199999 18.52C34.5073895 18.5471449 33.6196689 19.4570585 33.6199999 20.57 33.6199999 21.1471376 34.0878624 21.615 34.665 21.615 35.2421376 21.615 35.71 21.1471376 35.71 20.57 35.71 21.1222847 36.1577153 21.57 36.71 21.57 37.2622847 21.57 37.71 21.1222847 37.71 20.57 37.7101048 20.0193043 37.4886411 19.491724 37.0954964 19.1061036 36.7023518 18.7204832 36.1705909 18.5092547 35.6199999 18.52z"/>
        <path id="Shape" fill="#3D454C" d="M47.31,7.66 C49.2,6.21 50.92,3.93 50.92,1.77 C50.8989621,0.939397428 50.2306026,0.271037945 49.4,0.25 C48.4486946,0.331504695 47.5201994,0.585654844 46.66,1 C45.1408751,1.7524589 43.4905855,2.20408135 41.8,2.33 C39.3954022,0.94408256 36.4345978,0.94408256 34.03,2.33 C32.3398416,2.20160946 30.690016,1.75011397 29.17,1 C28.316476,0.57063821 27.3909166,0.302802347 26.44,0.21 C25.6093974,0.231037945 24.9410379,0.899397428 24.92,1.73 C24.92,3.89 26.63,6.17 28.53,7.61 L25.73,10.41 C25.4046629,10.7383658 25.3467786,11.2469203 25.59,11.64 C26.5028574,12.9361028 28.0054033,13.6873758 29.59,13.64 L30.28,13.64 C30.4902819,14.4473634 30.7817684,15.2313615 31.15,15.98 C31.31,16.34 31.48,16.7 31.59,16.98 C30.6700327,17.8917453 30.1548034,19.134781 30.16,20.43 C30.16,23.57 33.65,26.13 37.94,26.13 C42.23,26.13 45.72,23.57 45.72,20.43 C45.7259637,19.1326521 45.206515,17.8881394 44.28,16.98 C44.4,16.66 44.57,16.3 44.73,15.98 C45.0982316,15.2313615 45.3897181,14.4473634 45.6,13.64 L46.29,13.64 C47.8745967,13.6873758 49.3771426,12.9361028 50.29,11.64 C50.5306456,11.2446861 50.4685978,10.735894 50.14,10.41 L47.31,7.66 Z M37.92,24.25 C34.78,24.25 32.14,22.55 32.14,20.55 C32.152466,19.6198301 32.5957346,18.7480685 33.34,18.19 C33.4039042,18.1372737 33.4610084,18.0768104 33.51,18.01 C33.7036363,18.0035774 33.8912374,17.9410437 34.05,17.83 C35.2339547,17.050653 36.6340242,16.6656339 38.05,16.73 C39.4662075,16.6635576 40.8669079,17.0487502 42.05,17.83 C42.1611935,17.9078967 42.2870843,17.962336 42.42,17.99 C42.4691346,18.0656981 42.5298779,18.1331907 42.6,18.19 C43.3442654,18.7480685 43.787534,19.6198301 43.8,20.55 C43.7,22.55 41.05,24.25 37.92,24.25 Z M46.27,11.72 L44.7,11.72 C44.1477153,11.72 43.7,12.1677153 43.7,12.72 C43.5861801,13.5992535 43.3116125,14.450074 42.89,15.23 L42.59,15.9 C39.6824603,14.3116293 36.1598149,14.341899 33.28,15.98 C33.18,15.73 33.07,15.49 32.95,15.23 C32.5283875,14.450074 32.2538199,13.5992535 32.14,12.72 C32.14,12.1677153 31.6922847,11.72 31.14,11.72 L29.57,11.72 C28.9502483,11.7308593 28.3435304,11.5414792 27.84,11.18 L30.84,8.18 L30.84,8.18 C30.9018008,8.12809781 30.9557014,8.06745963 31,8 C31,8 31,8 31,7.94 C31.029284,7.8755675 31.0527118,7.80863102 31.07,7.74 C31.075411,7.68012199 31.075411,7.61987801 31.07,7.56 C31.0798848,7.50040712 31.0798848,7.43959288 31.07,7.38 C31.0756875,7.31679436 31.0756875,7.25320564 31.07,7.19 C31.0548082,7.12395748 31.0312865,7.06011288 31,7 C30.969295,6.93655423 30.9324526,6.87626672 30.89,6.82 C30.89,6.82 30.89,6.82 30.89,6.82 C30.8556963,6.79314595 30.8188552,6.76970164 30.78,6.75 C30.78,6.75 30.72,6.68 30.68,6.66 C28.9649173,5.72492967 27.6547228,4.19043559 27,2.35 C27.4793712,2.5045063 27.9500555,2.68476838 28.41,2.89 C30.2476477,3.76624681 32.2454652,4.25634174 34.28,4.33 C34.4371322,4.33418146 34.5925163,4.29619867 34.73,4.22 C36.6852442,2.98724135 39.1747558,2.98724135 41.13,4.22 C41.2674837,4.29619867 41.4228678,4.33418146 41.58,4.33 C43.6115373,4.25781604 45.6063842,3.76761475 47.44,2.89 C47.9039536,2.68624088 48.377889,2.50601193 48.86,2.35 C48.2160764,4.1670392 46.9376864,5.69045402 45.26,6.64 C45.26,6.64 45.2,6.7 45.16,6.73 C45.1022584,6.74157188 45.0476872,6.76544677 45,6.8 C45,6.8 45,6.8 45,6.8 C44.9597267,6.85772008 44.9229925,6.91783052 44.89,6.98 C44.8574356,7.03017482 44.8306012,7.08384358 44.81,7.14 C44.8043125,7.20320564 44.8043125,7.26679436 44.81,7.33 C44.8001152,7.38959288 44.8001152,7.45040712 44.81,7.51 C44.804589,7.56987801 44.804589,7.63012199 44.81,7.69 C44.8227391,7.7599149 44.8463591,7.82740072 44.88,7.89 C44.88,7.89 44.88,7.89 44.88,7.95 C44.9041738,7.98525338 44.9309129,8.01867724 44.96,8.05 C44.9841393,8.0884398 45.0108677,8.12519146 45.04,8.16 L48.04,11.16 C47.5279868,11.5369222 46.9056389,11.7338232 46.27,11.72 L46.27,11.72 Z"/>
        <path id="Path" fill="#3D454C" d="M35.52 9.36C34.9677153 9.36 34.52 9.80771525 34.52 10.36 34.52 10.9122847 34.9677153 11.36 35.52 11.36 36.0722847 11.36 36.52 10.9122847 36.52 10.36 36.52 9.80771525 36.0722847 9.36 35.52 9.36zM40.52 9.36C39.9677153 9.36 39.52 9.80771525 39.52 10.36 39.52 10.9122847 39.9677153 11.36 40.52 11.36 41.0722847 11.36 41.52 10.9122847 41.52 10.36 41.52 9.80771525 41.0722847 9.36 40.52 9.36zM48.83 44C46.67 44.07 44.83 46.49 43.34 48.43 43.06 48.8 42.8 49.14 42.56 49.43 41.28 50.98 32.46 51.07 26.63 51.13L26.32 51.13C20.2284776 51.1325782 14.1440335 50.71492 8.11 49.88 7.11 49.71 6.34 48.88 5.7 47.29 5.03877283 45.2705521 3.12379393 43.9300668 1 44 .44771525 44 0 44.4477153 0 45 0 45.5522847.44771525 46 1 46 2.30917019 45.9440146 3.48669312 46.7910047 3.85 48.05 4.78 50.3 6.05 51.54 7.75 51.85 13.6552661 52.6692432 19.6082697 53.0968439 25.57 53.13L26.65 53.13C36.06 53.03 42.36 52.81 44.1 50.7 44.35 50.4 44.63 50.04 44.93 49.64 45.93 48.29 47.68 46.04 48.93 46 49.4822847 46 49.9300126 45.5522847 49.9300126 45 49.9314214 44.7165122 49.812452 44.445743 49.6026854 44.2550461 49.3929188 44.0643492 49.11207 43.9716473 48.83 44z"/>
        <path id="Path" fill="#3D454C" d="M23.75,44.19 L25.93,44.19 C27.5,44.19 29.4,44.19 31.4,44.26 C33.61,44.26 35.97,44.33 38.14,44.33 C40.31,44.33 42.37,44.33 43.85,44.17 L44.17,44.17 C45.07,44.11 46.44,44.03 47.17,43.17 C47.4983788,42.7819271 47.650533,42.2747464 47.59,41.77 C47.2845486,40.1616525 46.7490516,38.60568 46,37.15 C45.45,36.33 42.83,33.25 40.07,33.15 C39.5177153,33.1334315 39.0565685,33.5677153 39.04,34.12 C39.0234315,34.6722847 39.4577153,35.1334315 40.01,35.15 C41.65,35.15 43.74,37.35 44.34,38.24 C44.9020042,39.3944564 45.3314091,40.608867 45.62,41.86 C45.1229953,42.0079187 44.608425,42.0886356 44.09,42.1 L43.73,42.1 C40.89,42.33 35.89,42.25 31.47,42.18 C29.47,42.18 27.55,42.11 25.97,42.11 L23.76,42.11 C12.06,42.29 5.38,42.18 3.9,41.79 C3.61,41 4.46,39 5.25,38 C6.56,36.32 7.62,35.35 9.12,35.35 L9.12,35.35 C9.67228475,35.35 10.12,34.9022847 10.12,34.35 C10.12,33.7977153 9.67228475,33.35 9.12,33.35 L9.12,33.35 C6.56,33.35 4.97,35.12 3.68,36.77 C2.88,37.77 0.92,41.15 2.3,43.16 C2.78,43.89 3.2,44.5 23.75,44.19 Z"/>
        <path id="Path" fill="#3D454C" d="M6.9 39C6.62133284 39.2250773 6.48391109 39.5817245 6.53950019 39.935596 6.59508928 40.2894675 6.83524393 40.5868018 7.16950019 40.715596 7.50375644 40.8443902 7.88133284 40.7850773 8.16 40.56L8.55 40.24C9.8 39.24 10.22 38.87 11.93 39.24 12.5336734 39.3845814 13.1254002 39.5751375 13.7 39.81 15.16 40.36 16.82 40.99 18.7 39.93 21.16 38.56 22.04 38.74 24.7 40.15 27.36 41.56 28.77 40.78 30.31 40 30.8569612 39.7000376 31.4212925 39.4328985 32 39.2 33 38.82 34 39.35 35.17 39.96 36.0780016 40.5234302 37.1055406 40.8659432 38.17 40.9600065 38.5522827 40.9607681 38.93161 40.8930311 39.29 40.76 39.6258297 40.6367434 39.8703925 40.3436866 39.9315639 39.9912212 39.9927354 39.6387559 39.8612221 39.2804299 39.5865639 39.0512212 39.3119057 38.8220125 38.9358297 38.7567433 38.6 38.88 37.96 39.12 37.22 38.77 36.08 38.17 34.77 37.48 33.08 36.61 31.27 37.31 30.6260532 37.5534468 29.9981351 37.837346 29.39 38.16 27.96 38.89 27.31 39.22 25.61 38.33 22.61 36.77 21.01 36.28 17.69 38.13 16.69 38.71 15.8 38.43 14.36 37.89 13.6858392 37.6136073 12.9901824 37.39287 12.28 37.23 9.63 36.69 8.57 37.56 7.28 38.66L6.9 39zM31.07 33.3C30.3963187 33.3227518 29.7393121 33.515382 29.16 33.86 28.8647445 34.0601317 28.5166856 34.16803 28.16 34.17 27.6678461 34.0635 27.2020141 33.859486 26.79 33.57 26.4672988 33.3799121 26.1333507 33.2095986 25.79 33.06 24.0060552 32.1780207 21.9008765 32.2379546 20.17 33.22 19.2289784 33.4278836 18.2473969 33.3513063 17.35 33 15.58 32.56 13.35 32 11.73 34.19 11.4945514 34.4725711 11.4332256 34.8615841 11.5703239 35.2028853 11.7074223 35.5441864 12.0208126 35.7826785 12.3863082 35.8238544 12.7518037 35.8650303 13.1104013 35.702243 13.32 35.4 14.13 34.33 15.1 34.5 16.88 34.94 18.2160312 35.4269691 19.6761937 35.4551168 21.03 35.02 22.7 34.29 23.48 34.17 25.03 34.85 25.27 34.96 25.52 35.11 25.78 35.26 26.4511987 35.715794 27.2171116 36.0132691 28.02 36.13L28.23 36.13C28.8658192 36.103967 29.4848484 35.9182582 30.03 35.59 30.3314661 35.3985756 30.6743302 35.2820018 31.03 35.25 31.6133762 35.2465461 32.1937096 35.3342709 32.75 35.51 34.2996536 36.1023783 36.0541335 35.6766882 37.16 34.44 37.5063741 34.2295613 37.691478 33.8308665 37.6286998 33.4304688 37.5659217 33.0300711 37.2676776 32.7071602 36.8735188 32.6128292 36.4793601 32.5184983 36.0672426 32.6714039 35.83 33 35.2221643 33.7619682 34.1683294 34.0026077 33.29 33.58 32.5762447 33.3822161 31.8405057 33.2747108 31.1 33.26L31.07 33.3zM12.57 31.11C14.4 29.28 16.09 29.6 18.09 30.6 18.8922342 31.1264175 19.8730005 31.3067055 20.81 31.1 22.59 30.62 23.51 28.85 25.65 29.66 26.97 30.16 27.56 31.04 29.07 31.2 30.34 31.34 30.33 29.34 29.07 29.2 27.37 29.02 26.4 27.26 24.64 27.2 22.24 27.11 21.37 29.51 18.76 28.64 17.14 28.1 16.95 27.43 15.09 27.71 13.5987436 27.9358657 12.2203237 28.6373517 11.16 29.71 10.8453302 30.1090784 10.8800344 30.6807077 11.2406719 31.0387875 11.6013095 31.3968674 12.1731713 31.4275022 12.57 31.11zM33.47 29C32.9177153 29 32.47 29.4477153 32.47 30 32.47 30.5522847 32.9177153 31 33.47 31 34.0222847 31 34.47 30.5522847 34.47 30 34.47 29.4477153 34.0222847 29 33.47 29z"/>
      </g>
    </g>
  </g>
</svg>
