<svg xmlns="http://www.w3.org/2000/svg" width="64" height="64" viewBox="0 0 64 64" style="background:#fff">
  <g id="Rind-(Kopf-und-Füsse)" fill="none" fill-rule="evenodd" stroke="none" stroke-width="1">
    <rect width="64" height="64" fill="#FFF"/>
    <g id="Rind-(Kopf-und-Füsse)" transform="translate(2 5)">
      <g id="Layer_2">
        <rect id="Rectangle" width="60" height="60" x="0" y="1.09"/>
        <rect id="Rectangle" width="60" height="60" x="0" y=".79"/>
        <rect id="Rectangle" width="60" height="60" x="0" y=".87"/>
      </g>
      <g id="Layer_1" fill-rule="nonzero" transform="translate(3 5)">
        <path id="Shape" fill="#E05362" d="M38.66,34 C38.66,32.55 37.66,31 35.36,30.16 C25.4863963,26.3504158 14.5921164,26.1098928 4.56,29.48 C1.35,30.57 1.77,33.09 3.56,34.9 C1.87,35.07 0.56,36 0.56,37.96 C0.72,45.69 7.31,51.82 14.95,52.15 C23.89,52.54 32.74,44.46 39.84,39.97 C42.63,38.14 41.15,35.42 38.66,34 Z M10.28,39.38 C10.2323583,38.3962694 9.80164691,37.4702398 9.08,36.8 L9.44,36.7 C15.8305011,34.4440801 22.7484831,34.1446606 29.31,35.84 C26.21,37.84 23.12,39.79 19.99,41.71 C16,44.16 10.41,46.23 10.28,39.38 Z" opacity=".5"/>
        <g id="Group" fill="#C17953" opacity=".5" transform="translate(26 2)">
          <path id="Path" d="M10.79,1.17 C10.1621343,0.427501982 9.10514449,0.21610402 8.24,0.66 C7.31,1.17 7,2.17 6.45,3 C5.31,4.63 3.73,5 2.02,5.64 C-0.24,6.49 0.39,11.33 2.67,11.64 C4.24676261,11.7210861 5.80047178,11.2351085 7.05,10.27 C7.27,10.12 7.46,9.96 7.66,9.8 C7.53440858,10.1924515 7.43748695,10.5935066 7.37,11 C7.04,13 8.42,16.83 10.8,15 C12.59,13.6 12.95,10.14 12.92,8 C12.89,5.86 12.39,2.74 10.79,1.17 Z"/>
        </g>
        <g id="Group" fill="#C17953" opacity=".5" transform="translate(41 2)">
          <path id="Path" d="M12.72,7.89 C12.47,5.99 10.65,5.45 9.09,4.64 C7.9393578,4.07280526 7.03082804,3.11104133 6.53,1.93 C6.30342944,1.07130483 5.59095955,0.427550064 4.7137615,0.288931114 C3.83656346,0.150312164 2.96030859,0.543009185 2.48,1.29 C-0.219295036,4.86403049 -0.649877447,9.66250294 1.37,13.66 C2,15 3.57,16.12 5,14.91 C6.2232545,13.6386928 6.59076967,11.7698391 5.94,10.13 C6.44936854,10.4682287 6.99223581,10.7530665 7.56,10.98 C10.29,12.06 13.12,11 12.72,7.89 Z"/>
        </g>
        <path id="Path" fill="#3D454C" d="M42.39 19C41.2854305 19 40.39 19.8954305 40.39 21 40.39 21.5771376 40.8578624 22.045 41.435 22.045 42.0121376 22.045 42.48 21.5771376 42.48 21 42.48 21.5522847 42.9277153 22 43.48 22 44.0322847 22 44.48 21.5522847 44.48 21 44.4526928 19.8716598 43.5184492 18.9776468 42.39 19zM37.8 19C36.6954305 19 35.8 19.8954305 35.8 21 35.8 21.5771376 36.2678624 22.045 36.845 22.045 37.4221376 22.045 37.89 21.5771376 37.89 21 37.89 21.5522847 38.3377153 22 38.89 22 39.4422847 22 39.890001 21.5522847 39.890001 21 39.8905535 20.4535989 39.6675307 19.9307613 39.2727602 19.5529906 38.8779898 19.1752198 38.3458479 18.9754117 37.8 19z"/>
        <path id="Shape" fill="#3D454C" d="M49.49,8.1 C51.39,6.66 53.1,4.37 53.1,2.21 C53.0789621,1.37939743 52.4106026,0.711037945 51.58,0.69 C50.6277121,0.782220815 49.7014454,1.05365429 48.85,1.49 C47.328315,2.21814649 45.6828243,2.65242034 44,2.77 C41.5954022,1.38408256 38.6345978,1.38408256 36.23,2.77 C34.5435737,2.65486312 32.8943551,2.22050102 31.37,1.49 C30.5145947,1.05467764 29.5852549,0.783337561 28.63,0.69 C27.7954951,0.705780432 27.1212522,1.3756165 27.1,2.21 C27.1,4.37 28.82,6.66 30.71,8.1 L27.92,10.89 C27.5914022,11.215894 27.5293544,11.7246861 27.77,12.12 C28.6715104,13.4350686 30.1760045,14.2061218 31.77,14.17 L32.46,14.17 C32.6720098,14.9735975 32.9634452,15.7541082 33.33,16.5 C33.49,16.86 33.66,17.23 33.78,17.5 C32.8335561,18.416813 32.3056296,19.6823901 32.32,21 C32.32,24.14 35.81,26.7 40.1,26.7 C44.39,26.7 47.88,24.14 47.88,21 C47.8851966,19.704781 47.3699673,18.4617453 46.45,17.55 C46.56,17.24 46.73,16.87 46.89,16.55 C47.2565548,15.8041082 47.5479902,15.0235975 47.76,14.22 L48.45,14.22 C50.0423176,14.2488446 51.5435619,13.4794569 52.45,12.17 C52.6906456,11.7746861 52.6285978,11.265894 52.3,10.94 L49.49,8.1 Z M40.1,24.69 C36.97,24.69 34.32,22.99 34.32,20.99 C34.3355439,20.0633634 34.7784887,19.1959298 35.52,18.64 C35.5845411,18.5841793 35.6416719,18.5203271 35.69,18.45 C35.887067,18.4455188 36.0784143,18.3828961 36.24,18.27 C37.4059869,17.5003339 38.7839503,17.1156233 40.18,17.17 C41.5962075,17.1035576 42.9969079,17.4887502 44.18,18.27 C44.2891061,18.351565 44.4158412,18.4063694 44.55,18.43 C44.5996169,18.5112858 44.6640689,18.5825223 44.74,18.64 C45.461708,19.2102975 45.8818978,20.0801641 45.8800064,21 C45.8800064,23 43.24,24.69 40.1,24.69 Z M48.45,12.17 L46.88,12.17 C46.3277153,12.17 45.88,12.6177153 45.88,13.17 C45.7631209,14.0485651 45.488728,14.8988443 45.07,15.68 C44.97,15.9 44.87,16.12 44.78,16.34 C43.378983,15.5454136 41.7904024,15.1413616 40.18,15.17 C38.5205146,15.1352765 36.8847783,15.5684694 35.46,16.42 C35.36,16.17 35.25,15.93 35.13,15.68 C34.711272,14.8988443 34.4368791,14.0485651 34.32,13.17 C34.32,12.6177153 33.8722847,12.17 33.32,12.17 L31.75,12.17 C31.1223119,12.1823076 30.5077941,11.9891734 30,11.62 L33,8.62 C33.030098,8.58239698 33.0568657,8.54224544 33.08,8.5 L33.17,8.4 C33.17,8.4 33.17,8.4 33.17,8.34 C33.1959208,8.27525481 33.2160008,8.20832166 33.23,8.14 C33.235411,8.08012199 33.235411,8.01987801 33.23,7.96 C33.2349173,7.90010075 33.2349173,7.83989925 33.23,7.78 C33.2404441,7.71709724 33.2404441,7.65290276 33.23,7.59 C33.2135948,7.53212491 33.186457,7.47784921 33.15,7.43 C33.1073061,7.37889213 33.0566572,7.33499638 33,7.3 L33,7.24 C32.9673019,7.21094854 32.9301658,7.18731645 32.89,7.17 C32.8615953,7.13493894 32.8278491,7.10456729 32.79,7.08 C31.1123136,6.13045402 29.8339236,4.6070392 29.19,2.79 C29.59,2.91 30.09,3.12 30.61,3.33 C32.4436158,4.20761475 34.4384627,4.69781604 36.47,4.77 C36.6299233,4.77064348 36.7876684,4.73292181 36.93,4.66 C37.8960812,4.08178683 38.9945453,3.76154493 40.12,3.73 C41.248379,3.7629456 42.3497294,4.08302554 43.32,4.66 C43.4579993,4.7348719 43.6130224,4.77276643 43.77,4.77 C45.8045348,4.69634174 47.8023523,4.20624681 49.64,3.33 C50.15,3.12 50.64,2.91 51.05,2.79 C50.4141381,4.61163564 49.1336123,6.13759552 47.45,7.08 C47.45,7.08 47.39,7.14 47.35,7.17 C47.3111448,7.18970164 47.2743037,7.21314595 47.24,7.24 C47.24,7.24 47.24,7.24 47.24,7.3 C47.1976759,7.35279893 47.1608204,7.40975751 47.13,7.47 C47.0974356,7.52017482 47.0706012,7.57384358 47.05,7.63 C47.0443125,7.69320564 47.0443125,7.75679436 47.05,7.82 C47.0450374,7.87989739 47.0450374,7.94010261 47.05,8 C47.044589,8.05987801 47.044589,8.12012199 47.05,8.18 C47.0672882,8.24863102 47.090716,8.3155675 47.12,8.38 C47.12,8.38 47.12,8.38 47.12,8.44 C47.1617876,8.51808816 47.2158041,8.58898483 47.28,8.65 L47.28,8.65 L50.28,11.65 C49.7444896,12.02136 49.1007726,12.2042741 48.45,12.17 L48.45,12.17 Z"/>
        <path id="Path" fill="#3D454C" d="M37.7 9.8C37.1477153 9.8 36.7 10.2477153 36.7 10.8 36.7 11.3522847 37.1477153 11.8 37.7 11.8 38.2522847 11.8 38.7 11.3522847 38.7 10.8 38.7 10.2477153 38.2522847 9.8 37.7 9.8zM42.71 9.8C42.1577153 9.8 41.71 10.2477153 41.71 10.8 41.71 11.3522847 42.1577153 11.8 42.71 11.8 43.2622847 11.8 43.71 11.3522847 43.71 10.8 43.71 10.2477153 43.2622847 9.8 42.71 9.8z"/>
        <path id="Shape" fill="#3D454C" d="M37.84,32.4 C37.9090351,31.7353382 37.7541819,31.0666537 37.4,30.5 C36.5,29 34.45,28 31.47,27.36 C26.99,26.48 15.03,27.36 11.14,28.36 L10.48,28.52 C7.97,29.16 6.16,29.62 4.89,30.79 L4.82,30.85 C3.82,31.79 2.64,32.85 2.69,34.64 C2.69,34.64 2.69,34.64 2.69,34.64 L2.69,42.57 C2.69,44.86 6.36,47.57 7.69,48.39 L8.16,48.67 C9.95554525,49.871582 11.9114367,50.8141803 13.97,51.47 C15.9183595,52.0490475 17.9375654,52.3552938 19.97,52.3800875 C21.8251308,52.3861845 23.6667666,52.0645753 25.41,51.43 C27.6,50.65 29.67,48.34 31.34,46.49 C31.8977447,45.808173 32.5133683,45.1758206 33.18,44.6 L33.81,44.16 C35.98,42.69 37.92,41.24 37.92,39.69 L37.92,32.53 C37.8988817,32.483488 37.8720046,32.4398128 37.84,32.4 L37.84,32.4 Z M6.17,32.34 L6.24,32.28 C7.14,31.45 8.75,31.05 10.97,30.48 L11.64,30.31 C15.26,29.39 27.05,28.52 31.08,29.31 C33.4,29.77 35.08,30.6 35.69,31.53 C35.8477286,31.7648577 35.8985971,32.0555353 35.83,32.33 C35.54,33.33 33.62,34.65 32.58,35.33 L31.91,35.8 C31.1235692,36.4617507 30.4034994,37.1985663 29.76,38 C28.34,39.59 26.39,41.78 24.69,42.38 C22.57,43.13 19.5,43.81 14.47,42.38 C12.6578146,41.7950105 10.9374516,40.9567123 9.36,39.89 L8.72,39.5 C7.06,38.5 5.1,36.61 4.72,35.11 C4.48,34 5,33.42 6.17,32.34 Z M32.64,42.56 L32,43 C31.2167046,43.6541309 30.4968503,44.3806815 29.85,45.17 C28.41,46.77 26.45,48.96 24.74,49.57 C22.62,50.32 19.55,51 14.52,49.57 C12.6162327,48.9747373 10.8077848,48.1092417 9.15,47 L8.67,46.71 C6.52,45.41 4.67,43.37 4.67,42.61 L4.67,38.77 C5.55098512,39.7252561 6.56067763,40.553204 7.67,41.23 L8.3,41.62 C10.0288422,42.7816024 11.9144867,43.6907524 13.9,44.32 C15.8488365,44.8956621 17.8680329,45.1985416 19.9,45.22 C21.7544811,45.2287616 23.5959899,44.9105597 25.34,44.28 C27.53,43.5 29.58,41.19 31.23,39.34 C31.7936568,38.6603781 32.4088084,38.0251672 33.07,37.44 L33.69,37.02 C34.4406946,36.5257921 35.1619197,35.9882122 35.85,35.41 L35.85,39.74 C35.81,40.2 34.72,41.15 32.64,42.56 Z"/>
        <path id="Path" fill="#3D454C" d="M8.21,35.55 C9.21,36.17 10.67,36.95 12.38,37.85 L14.19,38.85 C15.75,39.69 18.06,40.7 19.59,41.37 L19.81,41.47 C19.9374391,41.5204989 20.0729413,41.5475993 20.21,41.5500337 C20.6867253,41.5538901 21.0999068,41.2207078 21.1971402,40.7539875 C21.2943736,40.2872673 21.0486178,39.8168064 20.61,39.63 L20.4,39.54 C19.4,39.08 17.94,38.46 16.67,37.86 C19.5028182,36.3599861 22.4816581,35.1537067 25.56,34.26 C26.0984776,34.1302131 26.4297869,33.5884776 26.3,33.05 C26.1702131,32.5115224 25.6284776,32.1802131 25.09,32.31 C21.4133073,33.3540746 17.8848266,34.8629202 14.59,36.8 L13.32,36.12 C11.65,35.23 10.2,34.46 9.26,33.88 C8.95573521,33.6245913 8.5291411,33.5735023 8.17317016,33.749841 C7.81719922,33.9261797 7.59936186,34.2965032 7.61818795,34.6933108 C7.63701403,35.0901183 7.88893318,35.4381548 8.26,35.58 L8.21,35.55 Z"/>
      </g>
    </g>
  </g>
</svg>
