<svg xmlns="http://www.w3.org/2000/svg" width="64" height="64" viewBox="0 0 64 64" style="background:#fff">
  <g id="Rind-(Filet)" fill="none" fill-rule="evenodd" stroke="none" stroke-width="1">
    <rect width="64" height="64" fill="#FFF"/>
    <g transform="translate(2 4)">
      <g id="Layer_2">
        <rect id="Rectangle" width="60" height="60" x="0" y="0"/>
        <rect id="Rectangle" width="60" height="60" x="0" y="0"/>
      </g>
      <g id="Layer_1" fill-rule="nonzero" transform="translate(3 3)">
        <path id="Path" fill="#E05362" d="M32,32.22 C30.48,31.93 29.61,32.94 29.24,34.22 C24.9260937,37.7090704 20.2921669,40.78273 15.4,43.4 C14.5377439,43.9448962 13.8910322,44.771839 13.57,45.74 C14.0362439,42.5051262 15.600298,39.5288335 18,37.31 C19.3517214,36.129279 20.9024925,35.1981392 22.58,34.56 C24.37,33.86 26.27,33.87 27.92,32.9 C30.02,31.66 30.23,27.75 28.33,26.19 C27.1932537,25.2662673 25.7927153,24.72706 24.33,24.65 C23.81,22.82 22.64,21.47 20.87,21.65 C7.72,23.24 1.87,37.74 6.87,49.23 C8.43,52.77 12.09,52.06 13.09,48.93 C13.16,51.82 14.63,54.5 17.55,53.6 C22.93,51.95 30.97,50.47 34.55,45.6 C37,42.25 37.59,33.26 32,32.22 Z" opacity=".5"/>
        <g id="Group" fill="#C17953" opacity=".5" transform="translate(26 2)">
          <path id="Path" d="M10.73,1.42 C10.0982238,0.684157073 9.04619454,0.473751221 8.18,0.91 C7.25,1.43 6.96,2.43 6.39,3.26 C5.25,4.89 3.67,5.26 1.96,5.9 C-0.3,6.75 0.33,11.59 2.61,11.9 C4.1870079,11.9838941 5.74262795,11.5055143 7,10.55 C7.22,10.4 7.41,10.24 7.61,10.08 C7.48518899,10.448878 7.38824986,10.8266063 7.32,11.21 C6.99,13.21 8.32,17.04 10.75,15.21 C12.54,13.82 12.9,10.35 12.87,8.21 C12.84,6.07 12.33,3 10.73,1.42 Z"/>
        </g>
        <g id="Group" fill="#C17953" opacity=".5" transform="translate(41 2)">
          <path id="Path" d="M12.66,8.15 C12.41,6.25 10.59,5.71 9.03,4.89 C7.87787224,4.32968797 6.96823215,3.37030194 6.47,2.19 C6.22417722,1.36223083 5.52631085,0.748168067 4.67399174,0.609666211 C3.82167263,0.471164355 2.96527807,0.83265972 2.47,1.54 C-0.228762761,5.11803152 -0.659216764,9.91895093 1.36,13.92 C2.02,15.24 3.56,16.37 4.99,15.17 C6.21092785,13.8974821 6.57815783,12.0300786 5.93,10.39 C6.43964904,10.7250118 6.98252771,11.0065045 7.55,11.23 C10.23,12.32 13.06,11.22 12.66,8.15 Z"/>
        </g>
        <path id="Path" fill="#3D454C" d="M42.21 19.07C41.1054305 19.07 40.21 19.9654305 40.21 21.07 40.21 21.6443761 40.6756239 22.11 41.25 22.11 41.8243761 22.11 42.29 21.6443761 42.29 21.07 42.29 21.6222847 42.7377153 22.07 43.29 22.07 43.8422847 22.07 44.2900006 21.6222847 44.2900006 21.07 44.2904359 20.5254107 44.0687762 20.0041929 43.6762181 19.6267332 43.28366 19.2492735 42.7541536 19.0482162 42.21 19.07zM37.62 19.09C36.5154305 19.09 35.62 19.9854305 35.62 21.09 35.62 21.6671376 36.0878624 22.135 36.665 22.135 37.2421376 22.135 37.71 21.6671376 37.71 21.09 37.71 21.6422847 38.1577153 22.09 38.71 22.09 39.2622847 22.09 39.710001 21.6422847 39.710001 21.09 39.7105535 20.5435989 39.4875307 20.0207613 39.0927602 19.6429906 38.6979898 19.2652198 38.1658479 19.0654117 37.62 19.09z"/>
        <path id="Shape" fill="#3D454C" d="M49.31,8.22 C51.2,6.78 52.92,4.49 52.92,2.33 C52.8989621,1.49939743 52.2306026,0.831037945 51.4,0.81 C50.4447451,0.903337561 49.5154053,1.17467764 48.66,1.61 C47.1387324,2.3392815 45.4930214,2.77361348 43.81,2.89 C42.6173749,2.23657454 41.279894,1.89274912 39.92,1.89 C38.5605921,1.89654101 37.2240279,2.24013079 36.03,2.89 C34.3440058,2.77223968 32.6952713,2.33800509 31.17,1.61 C30.3185546,1.17365429 29.3922879,0.902220815 28.44,0.81 C27.6093974,0.831037945 26.9410379,1.49939743 26.92,2.33 C26.92,4.49 28.63,6.78 30.53,8.22 L27.73,11 C27.4046629,11.3283658 27.3467786,11.8369203 27.59,12.23 C28.5028574,13.5261028 30.0054033,14.2773758 31.59,14.23 L32.28,14.23 C32.4920098,15.0335975 32.7834452,15.8141082 33.15,16.56 C33.31,16.92 33.48,17.29 33.59,17.56 C32.6700327,18.4717453 32.1548034,19.714781 32.16,21.01 C32.16,24.15 35.65,26.71 39.94,26.71 C44.23,26.71 47.72,24.15 47.72,21.01 C47.7259637,19.7126521 47.206515,18.4681394 46.28,17.56 C46.4,17.24 46.57,16.88 46.73,16.56 C47.0965548,15.8141082 47.3879902,15.0335975 47.6,14.23 L48.29,14.23 C49.8745967,14.2773758 51.3771426,13.5261028 52.29,12.23 C52.5206105,11.8257409 52.441844,11.3158311 52.1,11 L49.31,8.22 Z M39.92,24.81 C36.78,24.81 34.14,23.12 34.14,21.11 C34.1531649,20.1850989 34.5922558,19.3179865 35.33,18.76 C35.3975489,18.704271 35.458001,18.6404604 35.51,18.57 C35.7036363,18.5635774 35.8912374,18.5010437 36.05,18.39 C37.2339547,17.610653 38.6340242,17.2256339 40.05,17.29 C41.4662075,17.2235576 42.8669079,17.6087502 44.05,18.39 C44.1591061,18.471565 44.2858412,18.5263694 44.42,18.55 C44.4689494,18.6287626 44.5296504,18.6995804 44.6,18.76 C45.3415113,19.3159298 45.7844561,20.1833634 45.8,21.11 C45.7,23.12 43.05,24.81 39.92,24.81 Z M48.27,12.29 L46.7,12.29 C46.1477153,12.29 45.7,12.7377153 45.7,13.29 C45.5845468,14.1657182 45.3100381,15.0129673 44.89,15.79 L44.59,16.46 C43.1919181,15.667148 41.6070241,15.2631554 40,15.29 C38.3403851,15.2541919 36.7043539,15.6874629 35.28,16.54 C35.17,16.29 35.07,16.05 34.95,15.79 C34.5299619,15.0129673 34.2554532,14.1657182 34.14,13.29 C34.14,12.7377153 33.6922847,12.29 33.14,12.29 L31.57,12.29 C30.9491213,12.2979548 30.3422984,12.1050342 29.84,11.74 L32.79,8.74 L32.79,8.74 C32.8541959,8.67898483 32.9082124,8.60808816 32.95,8.53 C32.95,8.53 32.95,8.53 32.95,8.47 C32.9777023,8.40836296 33.0010919,8.34487699 33.02,8.28 C33.0247864,8.22009546 33.0247864,8.15990454 33.02,8.1 C33.0302647,8.03708258 33.0302647,7.97291742 33.02,7.91 C33.0256875,7.84679436 33.0256875,7.78320564 33.02,7.72 C32.9993988,7.66384358 32.9725644,7.61017482 32.94,7.56 C32.9091796,7.49975751 32.8723241,7.44279893 32.83,7.39 L32.83,7.33 C32.7948188,7.30441045 32.7580814,7.28103206 32.72,7.26 C32.72,7.26 32.66,7.19 32.62,7.17 C30.9344483,6.2386748 29.6471179,4.7237501 29,2.91 C29.4,3.03 29.9,3.24 30.41,3.45 C32.243743,4.32864635 34.2381118,4.82213353 36.27,4.9 C36.4265423,4.89906142 36.5806777,4.86138386 36.72,4.79 C38.6694859,3.53746983 41.1705141,3.53746983 43.12,4.79 C43.2593223,4.86138386 43.4134577,4.89906142 43.57,4.9 C45.6022883,4.82497106 47.5972263,4.33134305 49.43,3.45 C49.95,3.24 50.43,3.03 50.85,2.91 C50.2060764,4.7270392 48.9276864,6.25045402 47.25,7.2 C47.25,7.2 47.19,7.26 47.15,7.29 C47.1119186,7.31103206 47.0751812,7.33441045 47.04,7.36 C47.04,7.36 47.04,7.36 47.04,7.42 C46.9976759,7.47279893 46.9608204,7.52975751 46.93,7.59 C46.8974356,7.64017482 46.8706012,7.69384358 46.85,7.75 C46.8443125,7.81320564 46.8443125,7.87679436 46.85,7.94 C46.8397353,8.00291742 46.8397353,8.06708258 46.85,8.13 C46.8452136,8.18990454 46.8452136,8.25009546 46.85,8.31 C46.8689081,8.37487699 46.8922977,8.43836296 46.92,8.5 C46.92,8.5 46.92,8.5 46.92,8.56 C46.9441738,8.59525338 46.9709129,8.62867724 47,8.66 C47.0231343,8.70224544 47.049902,8.74239698 47.08,8.78 L50.08,11.78 C49.5507251,12.1477312 48.9134021,12.3273084 48.27,12.29 L48.27,12.29 Z"/>
        <path id="Path" fill="#3D454C" d="M37.52 9.92C36.9677153 9.92 36.52 10.3677153 36.52 10.92 36.52 11.4722847 36.9677153 11.92 37.52 11.92 38.0722847 11.92 38.52 11.4722847 38.52 10.92 38.52 10.3677153 38.0722847 9.92 37.52 9.92zM42.52 9.92C41.9677153 9.92 41.52 10.3677153 41.52 10.92 41.52 11.4722847 41.9677153 11.92 42.52 11.92 43.0722847 11.92 43.52 11.4722847 43.52 10.92 43.52 10.3677153 43.0722847 9.92 42.52 9.92z"/>
        <path id="Shape" fill="#3D454C" d="M36.46,37 C36.4317984,36.8526507 36.3663942,36.7149578 36.27,36.6 C35.6758585,35.1461022 34.7674973,33.8416134 33.61,32.78 C33.5820225,32.7203486 33.5485442,32.6634357 33.51,32.61 C26.98,25.48 20.13,17.88 9.71,21.61 C5.84960705,23.0318243 2.76492102,26.0112681 1.21,29.82 C0.36030589,31.7297525 0.36030589,33.9102475 1.21,35.82 C0.52,38.82 -0.07,42.82 1.77,45.5 C4,48.79 8.43,51 11.91,52.67 L12.05,52.67 C15.13,56.22 23.78,51.26 27.05,49.85 C33.05,47.28 37.87,44.85 36.5,37.41 C36.5174834,37.2720615 36.5038147,37.1319582 36.46,37 Z M2.69,38.46 C3.31050252,39.28783 3.9782802,40.0791466 4.69,40.83 C5.56,41.83 6.97,40.36 6.1,39.41 C2,35 1.62,30.79 5.76,26.52 C8.41499742,23.9238803 11.9669849,22.4486597 15.68,22.4 C21.02,22.4 25.45,26.67 29.11,30.72 C20.35,29.4 8.49,39.79 10.86,49.91 C8.52164347,48.768511 6.35952915,47.2967915 4.44,45.54 C2.51,43.65 2.33,41 2.69,38.46 Z M28.19,47.25 C24.78,48.74 20.33,51.51 16.55,51.61 C8.66,51.83 14.44,39.61 17.38,36.98 C22.19,32.75 31.56,30.05 34.53,37.56 C35.68,43 32.5,45.36 28.19,47.25 Z"/>
        <path id="Path" fill="#3D454C" d="M7.37,42.18 L7.37,42.42 C7.37,42.9722847 7.81771525,43.42 8.37,43.42 C8.92228475,43.42 9.37,42.9722847 9.37,42.42 L9.37,42.18 C9.37,41.6277153 8.92228475,41.18 8.37,41.18 C7.81771525,41.18 7.37,41.6277153 7.37,42.18 Z"/>
      </g>
    </g>
  </g>
</svg>
