<svg xmlns="http://www.w3.org/2000/svg" width="64" height="64" viewBox="0 0 64 64" style="background:#fff">
  <g id="Rind-(Wurstfleisch)" fill="none" fill-rule="evenodd" stroke="none" stroke-width="1">
    <rect width="64" height="64" fill="#FFF"/>
    <g transform="translate(2 4)">
      <g id="Layer_2">
        <rect id="Rectangle" width="60" height="60" x="0" y="0"/>
        <rect id="Rectangle" width="60" height="60" x="0" y="0"/>
      </g>
      <g id="Layer_1" fill-rule="nonzero" transform="translate(1 3)">
        <g id="Group" fill="#E05362" opacity=".5" transform="translate(0 19)">
          <path id="Path" d="M30.67,15.75 C35.87,15.91 35.13,6.51 31.41,4.98 C29.2842377,4.04294136 26.9291691,3.75421064 24.64,4.15 C24.2270857,3.59192481 23.6849033,3.14239384 23.06,2.84 C21.2645745,1.96365618 19.250451,1.6366655 17.27,1.9 C16.6880628,1.16900138 15.8309445,0.709701701 14.9,0.63 C8.09,0.11 0.43,3.63 0.8,10.85 C0.87,12.24 1.8,14.5 3.74,13.85 C4.12981954,13.7229275 4.50789932,13.5623273 4.87,13.37 C4.68357271,15.0314534 4.68357271,16.7085466 4.87,18.37 C5.28,21.63 8.37,22.78 10.43,21.11 C10.52,21.69 10.64,22.28 10.79,22.86 C11.64,26.14 14.92,27.79 16.98,25.43 C17.1517056,26.8905191 17.4392786,28.3350719 17.84,29.75 C19.84,36.75 27.02,32.42 25.32,26.64 C24,22 23.53,15.53 30.67,15.75 Z"/>
          <path id="Path" d="M37.06,18 C35.06,18 34.01,20.08 33.88,22.34 C33.5278769,22.0741628 33.1157713,21.899018 32.68,21.83 C32.9,19.09 31.74,16 29.26,16 C25.01,16 25.05,25.33 29.09,25.93 C28.87,28.67 30.02,31.76 32.51,31.76 C34.51,31.76 35.56,29.68 35.69,27.42 C36.1556238,27.7738202 36.7252089,27.9636819 37.31,27.96 C41.7,28 41.52,18 37.06,18 Z"/>
        </g>
        <g id="Group" fill="#C17953" opacity=".5" transform="translate(28 1)">
          <path id="Path" d="M10.73,1.55 C10.1087254,0.800249719 9.05508484,0.572993921 8.18,1 C7.25,1.52 6.96,2.52 6.39,3.35 C5.25,5 3.67,5.39 2,6 C-0.26,6.85 0.37,11.69 2.65,12 C4.2104569,12.0881191 5.75165879,11.620444 7,10.68 C7.22,10.53 7.41,10.37 7.61,10.21 C7.48639819,10.5792361 7.38948207,10.9568748 7.32,11.34 C6.99,13.34 8.32,17.17 10.75,15.34 C12.54,13.95 12.9,10.48 12.87,8.34 C12.84,6.2 12.33,3.13 10.73,1.55 Z"/>
        </g>
        <g id="Group" fill="#C17953" opacity=".5" transform="translate(43 1)">
          <path id="Path" d="M12.66,8.28 C12.41,6.38 10.59,5.84 9,5 C7.84787224,4.43968797 6.93823215,3.48030194 6.44,2.3 C6.19835633,1.46783213 5.49841417,0.849684192 4.64275539,0.712778788 C3.78709662,0.575873384 2.9292271,0.94477145 2.44,1.66 C-0.259295036,5.23403049 -0.689877447,10.0325029 1.33,14.03 C1.99,15.35 3.53,16.49 4.96,15.28 C6.1832545,14.0086928 6.55076967,12.1398391 5.9,10.5 C6.41161705,10.8344163 6.95409512,11.1190499 7.52,11.35 C10.23,12.45 13.06,11.35 12.66,8.28 Z"/>
        </g>
        <path id="Path" fill="#3D454C" d="M44.21 18.8C43.1054305 18.8 42.21 19.6954305 42.21 20.8 42.21 21.3743761 42.6756239 21.84 43.25 21.84 43.8243761 21.84 44.29 21.3743761 44.29 20.8 44.29 21.3522847 44.7377153 21.8 45.29 21.8 45.8422847 21.8 46.2900006 21.3522847 46.2900006 20.8 46.2904359 20.2554107 46.0687762 19.7341929 45.6762181 19.3567332 45.28366 18.9792735 44.7541536 18.7782162 44.21 18.8zM39.62 18.82C38.5154305 18.82 37.62 19.7154305 37.62 20.82 37.62 21.3971376 38.0878624 21.865 38.665 21.865 39.2421376 21.865 39.71 21.3971376 39.71 20.82 39.71 21.3722847 40.1577153 21.82 40.71 21.82 41.2622847 21.82 41.710001 21.3722847 41.710001 20.82 41.7105535 20.2735989 41.4875307 19.7507613 41.0927602 19.3729906 40.6979898 18.9952198 40.1658479 18.7954117 39.62 18.82z"/>
        <path id="Shape" fill="#3D454C" d="M51.31,8 C53.2,6.56 54.9200361,4.27 54.9200361,2.11 C54.9257282,1.25993635 54.2498039,0.561777699 53.4,0.54 C52.4447451,0.633337561 51.5154053,0.904677636 50.66,1.34 C49.1387324,2.0692815 47.4930214,2.50361348 45.81,2.62 C44.6173749,1.96657454 43.279894,1.62274912 41.92,1.62 C40.5605921,1.62654101 39.2240279,1.97013079 38.03,2.62 C36.3440058,2.50223968 34.6952713,2.06800509 33.17,1.34 C32.3185546,0.903654295 31.3922879,0.632220815 30.44,0.54 C29.6093974,0.561037945 28.9410379,1.22939743 28.92,2.06 C28.92,4.22 30.63,6.51 32.53,7.95 L29.73,10.75 C29.3943255,11.0814816 29.3359746,11.602472 29.59,12 C30.4991793,13.3003709 32.0041957,14.0528791 33.59,14 L34.28,14 C34.4903332,14.8041293 34.7818303,15.5848054 35.15,16.33 C35.31,16.69 35.48,17.06 35.59,17.33 C34.6709825,18.2423829 34.1559257,19.4850023 34.16,20.78 C34.16,23.92 37.65,26.48 41.94,26.48 C46.23,26.48 49.7,24 49.7,20.84 C49.7048227,19.5428782 49.1855518,18.2987916 48.26,17.39 C48.38,17.08 48.55,16.71 48.71,16.39 C49.080315,15.6249048 49.3718163,14.8241137 49.58,14 L50.27,14 C51.8558043,14.0528791 53.3608207,13.3003709 54.27,12 C54.505339,11.6069794 54.443535,11.1043066 54.12,10.78 L51.31,8 Z M41.92,24.54 C38.78,24.54 36.14,22.85 36.14,20.84 C36.1531649,19.9150989 36.5922558,19.0479865 37.33,18.49 C37.3975489,18.434271 37.458001,18.3704604 37.51,18.3 C37.7036363,18.2935774 37.8912374,18.2310437 38.05,18.12 C39.2175854,17.3437376 40.598734,16.9521208 42,17 C43.4162075,16.9335576 44.8169079,17.3187502 46,18.1 C46.1091061,18.181565 46.2358412,18.2363694 46.37,18.26 C46.4189494,18.3387626 46.4796504,18.4095804 46.55,18.47 C47.2915113,19.0259298 47.7344561,19.8933634 47.75,20.82 C47.7,22.85 45.05,24.54 41.92,24.54 Z M50.27,12 L48.7,12 C48.1477153,12 47.7,12.4477153 47.7,13 C47.5845468,13.8757182 47.3100381,14.7229673 46.89,15.5 L46.59,16.17 C45.1919181,15.377148 43.6070241,14.9731554 42,15 C40.3403851,14.9641919 38.7043539,15.3974629 37.28,16.25 C37.18,16.01 37.07,15.76 36.95,15.51 C36.531272,14.7288443 36.2568791,13.8785651 36.14,13 C36.14,12.4477153 35.6922847,12 35.14,12 L33.57,12 C32.9484746,12.0123609 32.3402819,11.8190049 31.84,11.45 L34.79,8.45 L34.79,8.45 C34.8642904,8.40629675 34.9345649,8.35610071 35,8.3 C35,8.3 35,8.25 35,8.23 C35.0292869,8.1690218 35.0527251,8.10540368 35.07,8.04 C35.0747864,7.98009546 35.0747864,7.91990454 35.07,7.86 C35.0802647,7.79708258 35.0802647,7.73291742 35.07,7.67 C35.0746704,7.60675277 35.0746704,7.54324723 35.07,7.48 L35,7.32 C34.9691796,7.25975751 34.9323241,7.20279893 34.89,7.15 C34.89,7.15 34.89,7.15 34.89,7.09 C34.8548188,7.06441045 34.8180814,7.04103206 34.78,7.02 L34.68,6.93 C32.9644343,6.00501852 31.6531285,4.47634956 31,2.64 C31.4,2.76 31.9,2.97 32.41,3.18 C34.246811,4.05997162 36.2447184,4.55349217 38.28,4.63 C38.4365423,4.62906142 38.5906777,4.59138386 38.73,4.52 C40.6794859,3.26746983 43.1805141,3.26746983 45.13,4.52 C45.2693223,4.59138386 45.4234577,4.62906142 45.58,4.63 C47.6122883,4.55497106 49.6072263,4.06134305 51.44,3.18 C51.96,2.97 52.44,2.76 52.86,2.64 C52.2233212,4.46117099 50.9430129,5.98687161 49.26,6.93 C49.26,6.93 49.2,6.99 49.16,7.02 C49.1219186,7.04103206 49.0851812,7.06441045 49.05,7.09 C49.05,7.09 49.05,7.09 49.05,7.15 C49.0076759,7.20279893 48.9708204,7.25975751 48.94,7.32 C48.9093568,7.37125064 48.8826146,7.42473505 48.86,7.48 C48.8553296,7.54324723 48.8553296,7.60675277 48.86,7.67 C48.8497353,7.73291742 48.8497353,7.79708258 48.86,7.86 C48.8552136,7.91990454 48.8552136,7.98009546 48.86,8.04 C48.8772749,8.10540368 48.9007131,8.1690218 48.93,8.23 C48.93,8.23 48.93,8.23 48.93,8.29 C48.9541738,8.32525338 48.9809129,8.35867724 49.01,8.39 C49.0331343,8.43224544 49.059902,8.47239698 49.09,8.51 L52.09,11.51 C51.5554648,11.8728448 50.9144539,12.0454247 50.27,12 L50.27,12 Z"/>
        <path id="Path" fill="#3D454C" d="M39.52 9.65C38.9677153 9.65 38.52 10.0977153 38.52 10.65 38.52 11.2022847 38.9677153 11.65 39.52 11.65 40.0722847 11.65 40.52 11.2022847 40.52 10.65 40.52 10.0977153 40.0722847 9.65 39.52 9.65zM44.52 9.65C43.9677153 9.65 43.52 10.0977153 43.52 10.65 43.52 11.2022847 43.9677153 11.65 44.52 11.65 45.0722847 11.65 45.52 11.2022847 45.52 10.65 45.52 10.0977153 45.0722847 9.65 44.52 9.65z"/>
        <path id="Shape" fill="#3D454C" d="M42.05,38.51 L42.05,38.51 C41.8338118,37.9922941 41.5866995,37.4880514 41.31,37 C39.9,34.26 36.51,28.75 31.42,27.16 L31.31,27.11 L31.08,27.11 C30.88,27.05 30.7,26.98 30.5,26.94 C29.2628233,25.2873709 27.4223494,24.1909949 25.38,23.89 L25.33,23.89 C24.97,23.82 24.63,23.78 24.33,23.73 C22.6434343,21.4434407 19.9506314,20.1194171 17.11,20.18 C16.04,19.58 11.94,17.56 7.92,19.25 C6.32719296,19.276521 4.79996632,19.8888356 3.63,20.97 C2.44061045,22.2447503 1.8449975,23.9625852 1.99,25.7 C1.7,26.63 0.99,30.2 4.82,33.84 C4.99533763,34.768861 5.33390647,35.6592971 5.82,36.47 C5.82625652,36.7249635 5.95223016,36.9620904 6.16,37.11 C9.72,39.93 13.16,42.88 16.44,46.03 C17.37,46.92 18.78,45.5 17.85,44.61 C14.61,41.51 11.22,38.61 7.7,35.8 C7.67760715,35.7349509 7.65088061,35.6714753 7.62,35.61 C7.2744596,35.0686803 7.01156888,34.4788613 6.84,33.86 C6.75,33.31 6.04,28.48 8.73,25.23 C10.41,23.23 13.12,22.18 16.8,22.18 C16.8398425,22.1749803 16.8801575,22.1749803 16.92,22.18 C18.5051982,22.1400152 20.0591508,22.6251859 21.34,23.56 C18.8803557,23.5177806 16.4816766,24.3267607 14.55,25.85 C11.14,28.66 10.61,33.13 10.6,35.54 C10.6,36.0922847 11.0477153,36.54 11.6,36.54 L11.6,36.54 C12.1522847,36.54 12.6,36.0922847 12.6,35.54 C12.6,33.48 13.05,29.68 15.83,27.38 C17.65,25.87 20.18,25.29 23.37,25.62 C23.4628892,25.6551972 23.5607703,25.6754484 23.66,25.68 L24.27,25.74 L24.96,25.84 C25.9389902,26.0095642 26.872054,26.3807466 27.7,26.93 C26.4641294,27.0222354 25.2464188,27.2812512 24.08,27.7 C21.1258773,28.6815066 18.8301634,31.0331226 17.92,34.01 C17.62,35.01 17.37,36.01 17.18,36.86 C17.095669,37.4002833 17.4609503,37.9081133 18,38 L18.2,38 C18.6796928,38.0106736 19.0993583,37.6791379 19.2,37.21 C19.38,36.37 19.61,35.47 19.9,34.52 C21.5,29.23 27.72,28.33 30.81,29.02 C31.5824284,29.2647422 32.3188826,29.6111111 33,30.05 C32.0646725,29.8162442 31.1040942,29.6986909 30.14,29.7 C27.7824097,29.6173473 25.5179325,30.6241915 24,32.43 C21.24,35.79 21.51,41.03 21.85,42.77 C22.4684975,45.6704236 23.786774,48.375637 25.69,50.65 C24.5687592,50.016971 23.5047441,49.2875518 22.51,48.47 C22.0875022,48.0999692 21.4450308,48.1425022 21.075,48.565 C20.7049693,48.9874978 20.7475022,49.6299692 21.17,50 C23,51.52 27.92,55.06 34.26,55.06 C34.3165243,55.0656809 34.3734757,55.0656809 34.43,55.06 C34.63,55.06 34.81,55.06 35.01,55.06 C37.4987826,55.1889391 39.8801704,54.0340981 41.32,52 C44.17,47.83 43.02,41 42.06,38.58 L42.05,38.51 Z M7.18,23.84 C5.67656862,25.7786384 4.81649019,28.1386097 4.72,30.59 C3.76351106,29.3065289 3.45009047,27.6546181 3.87,26.11 C3.92321392,25.9766486 3.94708838,25.8334018 3.94,25.69 C3.78160339,24.4634894 4.1442938,23.2267151 4.94,22.28 C5.77210895,21.5544923 6.83606934,21.1501874 7.94,21.14 C8.09885221,21.1559897 8.25888723,21.1246785 8.4,21.05 C9.66101102,20.5138962 11.0502129,20.354138 12.4,20.59 C10.3618452,21.0982001 8.53547358,22.2353088 7.18,23.84 L7.18,23.84 Z M39.67,50.84 C38.6162944,52.3547706 36.8399593,53.1991954 35,53.06 C26,53.06 23.78,42.49 23.76,42.39 C23.42,40.65 23.39,36.25 25.49,33.7 C26.6412881,32.3302988 28.3742131,31.5881467 30.16,31.7 C35.32,31.7 38.16,35.53 39.45,37.7 C39.91,38.58 40.16,39.17 40.19,39.23 C41.1,41.58 41.91,47.54 39.67,50.82 L39.67,50.84 Z"/>
        <path id="Path" fill="#3D454C" d="M19.41 46.37C18.8577153 46.37 18.41 46.8177153 18.41 47.37 18.41 47.9222847 18.8577153 48.37 19.41 48.37 19.9622847 48.37 20.41 47.9222847 20.41 47.37 20.41 46.8177153 19.9622847 46.37 19.41 46.37zM28.85 38.32C28.2977153 38.32 27.85 38.7677153 27.85 39.32 27.85 39.8722847 28.2977153 40.32 28.85 40.32 29.4022847 40.32 29.85 39.8722847 29.85 39.32 29.85 38.7677153 29.4022847 38.32 28.85 38.32zM36.49 39.88C35.9377153 39.88 35.49 40.3277153 35.49 40.88 35.49 41.4322847 35.9377153 41.88 36.49 41.88 37.0422847 41.88 37.49 41.4322847 37.49 40.88 37.49 40.3277153 37.0422847 39.88 36.49 39.88zM32.71 44.9C32.1577153 44.9 31.71 45.3477153 31.71 45.9 31.71 46.4522847 32.1577153 46.9 32.71 46.9 33.2622847 46.9 33.71 46.4522847 33.71 45.9 33.71 45.3477153 33.2622847 44.9 32.71 44.9z"/>
      </g>
    </g>
  </g>
</svg>
