<svg xmlns="http://www.w3.org/2000/svg" width="64" height="64" viewBox="0 0 64 64" style="background:#fff">
  <g id="Rind-(Schnitzel)" fill="none" fill-rule="evenodd" stroke="none" stroke-width="1">
    <rect width="64" height="64" fill="#FFF"/>
    <g transform="translate(2 4)">
      <g id="Layer_2">
        <rect id="Rectangle" width="60" height="60" x="0" y="0"/>
        <rect id="Rectangle" width="60" height="60" x="0" y="0"/>
      </g>
      <g id="Layer_1" fill-rule="nonzero" transform="translate(5 3)">
        <path id="Path" fill="#E05362" d="M34.87,33 C31.97,31.16 30.23,34.18 30.28,37.27 L30.1,37.36 C28.91,37.73 27.72,38.09 26.52,38.44 C24.44,39.07 22.34,39.67 20.25,40.27 C17.42,41.08 7.88,45.04 7.25,39.79 C6.85,37 3.92,36.34 2.83,39 C1.17039817,43.050882 2.60204445,47.7100116 6.25,50.13 C10.72,53.13 16.57,50.88 21.25,49.6 C25.69,48.39 33.74,47.76 36.5,43.53 C38.48,40.44 38.11,35 34.87,33 Z" opacity=".5"/>
        <path id="Path" fill="#E05362" d="M25.69,29.14 C23.29,28.98 20.69,29.96 18.45,30.7 C15.9963066,31.4501066 13.6450487,32.5014547 11.45,33.83 C8.87,35.47 9,42.44 13,41.33 C15.27,40.69 17.47,39.77 19.74,39.07 C22.01,38.37 24.5,38.07 26.63,37.07 C29.33,35.74 29.11,29.37 25.69,29.14 Z" opacity=".5"/>
        <g id="Group" fill="#C17953" opacity=".5" transform="translate(24 2)">
          <path id="Path" d="M10.73,1.49 C10.0968759,0.754402337 9.04066727,0.551444607 8.18,1 C7.25,1.51 6.96,2.52 6.39,3.34 C5.25,5 3.67,5.33 2,6 C-0.26,6.84 0.37,11.68 2.65,12 C4.21826793,12.0620802 5.75831885,11.569972 7,10.61 C7.21155561,10.4678855 7.41519216,10.3143235 7.61,10.15 C7.48518899,10.518878 7.38824986,10.8966063 7.32,11.28 C6.99,13.28 8.32,17.1 10.75,15.28 C12.54,13.89 12.9,10.42 12.87,8.28 C12.84,6.14 12.33,3.06 10.73,1.49 Z"/>
        </g>
        <g id="Group" fill="#C17953" opacity=".5" transform="translate(39 2)">
          <path id="Path" d="M12.66,8.22 C12.41,6.32 10.59,5.77 9.03,4.96 C7.87719038,4.39574559 6.96776918,3.433038 6.47,2.25 C6.22835633,1.41783213 5.52841417,0.799684192 4.67275539,0.662778788 C3.81709662,0.525873384 2.9592271,0.89477145 2.47,1.61 C-0.249136305,5.18033127 -0.699154187,9.98698778 1.31,14 C1.97,15.32 3.51,16.45 4.94,15.25 C6.16092785,13.9774821 6.52815783,12.1100786 5.88,10.47 C6.39188756,10.8011747 6.93437389,11.0824639 7.5,11.31 C10.23,12.38 13.06,11.28 12.66,8.22 Z"/>
        </g>
        <path id="Path" fill="#3D454C" d="M40.21 18.93C39.1054305 18.93 38.21 19.8254305 38.21 20.93 38.21 21.5043761 38.6756239 21.97 39.25 21.97 39.8243761 21.97 40.29 21.5043761 40.29 20.93 40.29 21.4822847 40.7377153 21.93 41.29 21.93 41.8422847 21.93 42.2900006 21.4822847 42.2900006 20.93 42.2904359 20.3854107 42.0687762 19.8641929 41.6762181 19.4867332 41.28366 19.1092735 40.7541536 18.9082162 40.21 18.93zM35.62 19C34.5154305 19 33.62 19.8954305 33.62 21 33.62 21.5771376 34.0878624 22.045 34.665 22.045 35.2421376 22.045 35.71 21.5771376 35.71 21 35.71 21.5522847 36.1577153 22 36.71 22 37.2622847 22 37.710001 21.5522847 37.710001 21 37.7105535 20.4535989 37.4875307 19.9307613 37.0927602 19.5529906 36.6979898 19.1752198 36.1658479 18.9754117 35.62 19z"/>
        <path id="Shape" fill="#3D454C" d="M47.31,8.08 C49.2,6.64 50.92,4.35 50.92,2.19 C50.8989621,1.35939743 50.2306026,0.691037945 49.4,0.67 C48.4447451,0.763337561 47.5154053,1.03467764 46.66,1.47 C45.1356449,2.20050102 43.4864263,2.63486312 41.8,2.75 C39.3954022,1.36408256 36.4345978,1.36408256 34.03,2.75 C32.3440058,2.63223968 30.6952713,2.19800509 29.17,1.47 C28.3185546,1.03365429 27.3922879,0.762220815 26.44,0.67 C25.6093974,0.691037945 24.9410379,1.35939743 24.92,2.19 C24.92,4.35 26.63,6.64 28.53,8.08 L25.73,10.87 C25.4046629,11.1983658 25.3467786,11.7069203 25.59,12.1 C26.5028574,13.3961028 28.0054033,14.1473758 29.59,14.1 L30.28,14.1 C30.4903332,14.9041293 30.7818303,15.6848054 31.15,16.43 C31.31,16.79 31.48,17.16 31.59,17.43 C30.6333894,18.3680203 30.1083912,19.660602 30.14,21 C30.14,24.14 33.63,26.7 37.92,26.7 C42.21,26.7 45.7,24.11 45.7,21 C45.7048227,19.7028782 45.1855518,18.4587916 44.26,17.55 C44.38,17.24 44.55,16.87 44.71,16.55 C45.0765548,15.8041082 45.3679902,15.0235975 45.58,14.22 L46.27,14.22 C47.8545967,14.2673758 49.3571426,13.5161028 50.27,12.22 C50.5106456,11.8246861 50.4485978,11.315894 50.12,10.99 L47.31,8.08 Z M37.92,24.67 C34.78,24.67 32.14,22.98 32.14,20.97 C32.1555439,20.0433634 32.5984887,19.1759298 33.34,18.62 C33.4018208,18.5614742 33.4586822,18.4979232 33.51,18.43 C33.7036363,18.4235774 33.8912374,18.3610437 34.05,18.25 C35.2339547,17.470653 36.6340242,17.0856339 38.05,17.15 C39.4662075,17.0835576 40.8669079,17.4687502 42.05,18.25 C42.1591061,18.331565 42.2858412,18.3863694 42.42,18.41 C42.4689494,18.4887626 42.5296504,18.5595804 42.6,18.62 C43.312283,19.2026376 43.717762,20.0799466 43.7,21 C43.7,23 41.05,24.67 37.92,24.67 Z M46.27,12.15 L44.7,12.15 C44.1477153,12.15 43.7,12.5977153 43.7,13.15 C43.5831209,14.0285651 43.308728,14.8788443 42.89,15.66 L42.59,16.32 C41.1919181,15.527148 39.6070241,15.1231554 38,15.15 C36.3403851,15.1141919 34.7043539,15.5474629 33.28,16.4 C33.18,16.16 33.07,15.91 32.95,15.66 C32.531272,14.8788443 32.2568791,14.0285651 32.14,13.15 C32.14,12.5977153 31.6922847,12.15 31.14,12.15 L29.57,12.15 C28.9491213,12.1579548 28.3422984,11.9650342 27.84,11.6 L30.84,8.6 L30.92,8.48 C30.9490871,8.44867724 30.9758262,8.41525338 31,8.38 L31,8.32 C31.0277023,8.25836296 31.0510919,8.19487699 31.07,8.13 C31.0747864,8.07009546 31.0747864,8.00990454 31.07,7.95 C31.0802647,7.88708258 31.0802647,7.82291742 31.07,7.76 C31.0746704,7.69675277 31.0746704,7.63324723 31.07,7.57 C31.0493988,7.51384358 31.0225644,7.46017482 30.99,7.41 C30.9591796,7.34975751 30.9223241,7.29279893 30.88,7.24 L30.88,7.18 C30.88,7.18 30.8,7.18 30.77,7.11 C30.74,7.04 30.71,7.04 30.67,7.02 C28.965093,6.10354832 27.6582977,4.59022952 27,2.77 C27.4,2.89 27.9,3.1 28.41,3.31 C30.246811,4.18997162 32.2447184,4.68349217 34.28,4.76 C34.4365423,4.75906142 34.5906777,4.72138386 34.73,4.65 C36.6794859,3.39746983 39.1805141,3.39746983 41.13,4.65 C41.2693223,4.72138386 41.4234577,4.75906142 41.58,4.76 C43.6122883,4.68497106 45.6072263,4.19134305 47.44,3.31 C47.96,3.1 48.44,2.89 48.86,2.77 C48.2233212,4.59117099 46.9430129,6.11687161 45.26,7.06 C45.26,7.06 45.2,7.12 45.16,7.15 C45.1219186,7.17103206 45.0851812,7.19441045 45.05,7.22 C45.05,7.22 45.05,7.22 45.05,7.28 C45.0076759,7.33279893 44.9708204,7.38975751 44.94,7.45 C44.9074356,7.50017482 44.8806012,7.55384358 44.86,7.61 C44.8543125,7.67320564 44.8543125,7.73679436 44.86,7.8 C44.8497353,7.86291742 44.8497353,7.92708258 44.86,7.99 C44.8552136,8.04990454 44.8552136,8.11009546 44.86,8.17 C44.8743938,8.23627759 44.8979537,8.30022594 44.93,8.36 C44.93,8.36 44.93,8.36 44.93,8.42 C44.9717876,8.49808816 45.0258041,8.56898483 45.09,8.63 L45.09,8.63 L48.09,11.63 C47.5592475,12.0034371 46.9179265,12.1866717 46.27,12.15 L46.27,12.15 Z"/>
        <path id="Path" fill="#3D454C" d="M35.52 9.78C34.9677153 9.78 34.52 10.2277153 34.52 10.78 34.52 11.3322847 34.9677153 11.78 35.52 11.78 36.0722847 11.78 36.52 11.3322847 36.52 10.78 36.52 10.2277153 36.0722847 9.78 35.52 9.78zM40.52 9.78C39.9677153 9.78 39.52 10.2277153 39.52 10.78 39.52 11.3322847 39.9677153 11.78 40.52 11.78 41.0722847 11.78 41.52 11.3322847 41.52 10.78 41.52 10.2277153 41.0722847 9.78 40.52 9.78zM39.4 36.45L33.52 32.16C32.6061503 31.4203944 31.5707555 30.8451751 30.46 30.46 28.32 29.83 26.29 30.54 24.32 31.22 23.0008789 31.7882082 21.5857487 32.1004191 20.15 32.14 19.94 32.14 19.73 32.14 19.53 32.08 18.9953628 32.0139954 18.4546372 32.0139954 17.92 32.08 17.3680895 32.1698584 16.8302326 32.3312155 16.32 32.56L4.42 37.26C3.61720659 37.5431993 2.8594174 37.9406176 2.17 38.44.796856064 39.527119.116480218 41.2701043.39 43 .481126998 43.5522847 1.00271526 43.926127 1.555 43.835 2.10728473 43.743873 2.48112697 43.2222847 2.39 42.67 2.24087886 41.6817383 2.62032939 40.6875779 3.39 40.05 3.92989458 39.6747112 4.51871605 39.3752535 5.14 39.16L17.04 34.42C17.4028888 34.2373268 17.7853357 34.0964253 18.18 34 18.5554267 33.9567779 18.9345733 33.9567779 19.31 34 19.55 34 19.8 34 20.05 34.06 21.7427671 34.0508253 23.4174476 33.7111335 24.98 33.06 26.72 32.45 28.37 31.88 29.9 32.33 30.7864924 32.6556673 31.611475 33.129018 32.34 33.73L38.23 38.02C38.41 38.16 38.98 38.57 38.99 38.82 39 39.07 38.21 39.43 37.64 39.66 37.31 39.79 36.99 39.93 36.71 40.07 35.579162 40.7637486 34.6296691 41.7166694 33.94 42.85 33.16 43.94 32.49 44.85 31.51 45.06 31.1215898 45.1098 30.7284102 45.1098 30.34 45.06 30.0081829 45.0207147 29.6740809 45.0040096 29.34 45.01 28.085332 44.9417879 26.9330967 45.7004781 26.5 46.88 26.4225267 47.2073085 26.3955484 47.5445375 26.42 47.88 26.4301282 48.0064642 26.4301282 48.1335358 26.42 48.26 26.35 48.67 25.64 48.94 25.05 48.94L25.05 48.94C24.6543695 48.9272673 24.2600943 48.8871716 23.87 48.82 23.211556 48.6919332 22.5394822 48.6482484 21.87 48.69 20.8069898 48.8423583 19.7862022 49.2098418 18.87 49.77 18.49 49.97 18.12 50.17 17.73 50.33 14.1185653 51.5433184 10.1320084 50.6449937 7.39 48 6.97729571 47.6685777 6.37781513 47.7161575 6.0225574 48.1085317 5.66729966 48.5009059 5.67933037 49.1021513 6.05 49.48 8.36127852 51.6521437 11.4082772 52.8702287 14.58 52.89 15.9245679 52.9103729 17.2599829 52.6657168 18.51 52.17 18.95 51.99 19.38 51.76 19.81 51.54 20.4842315 51.1361184 21.2263126 50.8582615 22 50.72 22.4996186 50.7030092 22.99954 50.7432714 23.49 50.84 23.9882703 50.9334535 24.4932094 50.986957 25 51L25 51C26.525468 51.115363 27.9215164 50.141473 28.34 48.67 28.3686025 48.4041003 28.3686025 48.1358997 28.34 47.87 28.3239352 47.7338054 28.3239352 47.5961946 28.34 47.46 28.34 47.28 28.79 47.08 29.34 47.07 29.6164649 47.0550585 29.8935351 47.0550585 30.17 47.07 30.7338518 47.1498778 31.3061482 47.1498778 31.87 47.07 33.65 46.75 34.67 45.32 35.57 44.07 36.0649895 43.2082 36.7487658 42.4697216 37.57 41.91 37.81 41.79 38.08 41.68 38.35 41.57 39.4 41.14 41 40.48 40.94 38.81 40.8135625 37.8295972 40.2464722 36.9605497 39.4 36.45z"/>
        <path id="Path" fill="#3D454C" d="M12.93 48.0000736C13.3703997 48.0009866 13.7596015 47.7137436 13.8884701 47.2926193 14.0173388 46.8714949 13.8555338 46.4156378 13.49 46.17 10.9936283 44.4704087 8.60566176 42.6168122 6.34 40.62 5.92302501 40.2499692 5.28503078 40.288025 4.915 40.705 4.54496922 41.121975 4.58302501 41.7599692 5 42.13 7.33533226 44.1776661 9.7932163 46.0811905 12.36 47.83 12.5283588 47.94317 12.727155 48.0024601 12.93 48.0000736zM16.4 47.46C17.3215592 47.3244278 18.1779438 46.9049742 18.85 46.26 19.44 45.8 19.85 45.5 20.12 45.59 20.2725319 45.6671249 20.4138337 45.7646905 20.54 45.88 20.7711588 46.0705002 21.0226897 46.2348337 21.29 46.37 22.3819339 46.8337912 23.6426119 46.6359617 24.54 45.86 25.2192523 45.2563747 25.7789727 44.5304343 26.19 43.72 26.3686328 43.4091789 26.3678753 43.026669 26.1880127 42.7165559 26.0081502 42.4064468 25.676508 42.2158479 25.3180127 42.2165559 24.9595174 42.2172679 24.6286328 42.4091789 24.45 42.72 24.1586934 43.3104426 23.7660778 43.8452122 23.29 44.3 22.988792 44.5857337 22.5578434 44.6887037 22.16 44.57 22.0222249 44.4967555 21.8944992 44.4060031 21.78 44.3 21.4811815 44.047413 21.1434913 43.8447989 20.78 43.7 19.46 43.24 18.39 44.08 17.61 44.7 17.2347841 45.0669107 16.7743454 45.3349272 16.27 45.48 15.7177153 45.49933 15.2856701 45.9627153 15.3050001 46.515 15.32433 47.0672847 15.7877153 47.4993299 16.34 47.48L16.4 47.46zM3.65 44.72C3.09771525 44.72 2.65 45.1677153 2.65 45.72 2.65 46.2722847 3.09771525 46.72 3.65 46.72 4.20228475 46.72 4.65 46.2722847 4.65 45.72 4.65 45.1677153 4.20228475 44.72 3.65 44.72z"/>
      </g>
    </g>
  </g>
</svg>
