<svg xmlns="http://www.w3.org/2000/svg" width="64" height="64" viewBox="0 0 64 64" style="background:#fff">
  <g id="Rind-(Siedfleisch-durchzogen)" fill="none" fill-rule="evenodd" stroke="none" stroke-width="1">
    <rect width="64" height="64" fill="#FFF"/>
    <g transform="translate(2 5)">
      <g id="Layer_2">
        <rect id="Rectangle" width="60" height="60" x=".7" y=".06"/>
        <rect id="Rectangle" width="60" height="60" x=".7" y=".06"/>
      </g>
      <g id="Layer_1" fill-rule="nonzero" transform="translate(5 4)">
        <path id="Path" fill="#31D4E0" d="M46.92,7.73 C45.13,3.93 41.12,-0.4 36.41,1.55 C35.4571877,2.0342715 34.6185524,2.71608885 33.95,3.55 C33.8304285,3.66155398 33.7231499,3.78559485 33.63,3.92 C32.25,2.85 31.91,1.22 29.84,1 C27.59,0.77 26.92,2.42 25.33,3.45 C23.4,4.7 24.9,4.45 23.03,3.08 C22.1981171,2.44774861 21.2222478,2.0319733 20.19,1.87 C16.04,1.17 13.46,4.87 12.95,8.53 C12.66,10.65 15.3,15.97 17.29,12.19 C19.28,8.41 21.94,14.87 24.92,14.56 C25.9368379,14.3667208 26.8831204,13.9039403 27.66,13.22 C28.21,12.64 28.72,12.03 29.21,11.4 C28.8633333,10.4066667 28.9433333,10.4466667 29.45,11.52 C31.54,12.67 31.4,15.03 34.45,14.4 C36.03,14.08 36.31,13.02 37.45,12.18 C39.92,10.43 40.88,12.58 42.99,13.98 C46.68,16.41 48.06,10.17 46.92,7.73 Z" opacity=".5"/>
        <path id="Path" fill="#E05362" d="M38,19.85 C29.72,13.63 21.5,21 20.86,29.3 C19.45,25.8 18.24,21.83 14.62,19.99 C13.2424779,19.184599 11.5953885,18.9779382 10.0615909,19.418055 C8.52779331,19.8581718 7.24088408,20.9067312 6.5,22.32 C5.69,23.81 5.55,28.42 8.26,28.21 C12.02,27.92 13.36,29.13 14.8,32.77 C15.86,35.45 16.65,38 18.44,40.33 C21.72,44.59 27.04,47.11 32.44,46.02 C43.8,43.72 47.16,26.77 38,19.85 Z" opacity=".5"/>
        <path id="Shape" fill="#3D454C" d="M7.4,18.52 L7.4,24.52 C7.50434848,26.7032916 8.78773526,28.6571043 10.75,29.62 C14.2636748,31.4872141 17.0282862,34.5060426 18.58,38.17 C20.34,42.32 25.34,45.12 31.01,45.12 C38.21,45.12 44.07,40.61 44.07,35.12 L44.07,29.12 C44.0293516,26.7999769 43.0561549,24.5940644 41.37,23 C34,15.56 23,12.25 15.44,12.25 C11,12.25 7.4,15.06 7.4,18.52 Z M42.07,35.1 C42.07,39.54 37.07,43.1 31.01,43.1 C26.21,43.1 21.85,40.74 20.42,37.37 C18.6851676,33.303321 15.6165888,29.9490469 11.72,27.86 C10.3902157,27.248764 9.5004146,25.9600865 9.4,24.5 L9.4,22.67 C9.81572522,23.0327693 10.268176,23.3511606 10.75,23.62 C14.2636748,25.4872141 17.0282862,28.5060426 18.58,32.17 C20.34,36.33 25.34,39.12 31.01,39.12 C35.2130262,39.2473764 39.2588172,37.517124 42.07,34.39 L42.07,35.1 Z M42.07,29.1 C42.07,33.54 37.07,37.1 31.01,37.1 C26.21,37.1 21.85,34.74 20.42,31.37 C18.6851676,27.303321 15.6165888,23.9490469 11.72,21.86 C10.3902157,21.248764 9.5004146,19.9600865 9.4,18.5 C9.4,16.15 12.11,14.23 15.4,14.23 C22.6,14.25 33,17.38 40,24.36 C41.2949111,25.5880321 42.0409843,27.285619 42.07,29.07 L42.07,29.1 Z"/>
        <path id="Path" fill="#3D454C" d="M40.54,3.37 C39.9877153,3.37 39.54,3.81771525 39.54,4.37 C39.54,4.92228475 39.9877153,5.37 40.54,5.37 C45.0333136,5.37550989 48.6744901,9.01668639 48.68,13.51 L48.68,41.11 C48.6744901,45.6033136 45.0333136,49.2444901 40.54,49.25 L10.82,49.25 C6.32668639,49.2444901 2.68550989,45.6033136 2.68,41.11 L2.68,13.51 C2.68550989,9.01668639 6.32668639,5.37550989 10.82,5.37 L23.16,5.37 C23.7122847,5.37 24.16,4.92228475 24.16,4.37 C24.16,3.81771525 23.7122847,3.37 23.16,3.37 L10.82,3.37 C5.22211756,3.37551244 0.685512444,7.91211756 0.68,13.51 L0.68,41.11 C0.685512444,46.7078824 5.22211756,51.2444876 10.82,51.25 L40.54,51.25 C46.1378824,51.2444876 50.6744876,46.7078824 50.68,41.11 L50.68,13.51 C50.6744876,7.91211756 46.1378824,3.37551244 40.54,3.37 Z"/>
        <path id="Path" fill="#3D454C" d="M27.42 5.47C27.9722847 5.47 28.42 5.02228475 28.42 4.47 28.42 3.91771525 27.9722847 3.47 27.42 3.47 26.8677153 3.47 26.42 3.91771525 26.42 4.47 26.42 5.02228475 26.8677153 5.47 27.42 5.47zM31.6 5.52C32.1522847 5.52 32.6 5.07228475 32.6 4.52 32.6 3.96771525 32.1522847 3.52 31.6 3.52 31.0477153 3.52 30.6 3.96771525 30.6 4.52 30.6 5.07228475 31.0477153 5.52 31.6 5.52zM35.83 5.47C36.3822847 5.47 36.83 5.02228475 36.83 4.47 36.83 3.91771525 36.3822847 3.47 35.83 3.47 35.2777153 3.47 34.83 3.91771525 34.83 4.47 34.83 5.02228475 35.2777153 5.47 35.83 5.47z"/>
        <path id="Shape" fill="#3D454C" d="M33.15,25 C31.42,24.59 31.33,24.52 30.77,24 L30.6,23.86 C29.5580817,22.9049077 27.9487731,22.9398759 26.9493245,23.9393245 C25.9498759,24.9387731 25.9149077,26.5480817 26.87,27.59 L27.01,27.76 C27.5,28.32 27.58,28.41 28.01,30.14 C28.4782628,32.2182549 30.397652,33.6403407 32.5221972,33.4831112 C34.6467424,33.3258817 36.3358817,31.6367424 36.4931112,29.5121972 C36.6503407,27.387652 35.2282549,25.4682628 33.15,25 L33.15,25 Z M32.15,31.49 C31.0802418,31.4897924 30.1518584,30.7520591 29.91,29.71 C29.44,27.71 29.25,27.32 28.49,26.46 L28.36,26.3 C28.2568439,26.1844324 28.1998829,26.0349098 28.1999998,25.88 C28.1999998,25.5210149 28.4910149,25.2299998 28.85,25.2299998 C29.0049098,25.2298829 29.1544324,25.2868439 29.27,25.39 L29.43,25.53 C30.29,26.28 30.64,26.47 32.68,26.94 C33.8046321,27.222834 34.5452605,28.2956476 34.4110874,29.4475113 C34.2769143,30.5993749 33.3095306,31.4732333 32.15,31.49 L32.15,31.49 Z"/>
      </g>
    </g>
  </g>
</svg>
