<svg xmlns="http://www.w3.org/2000/svg" width="64" height="64" viewBox="0 0 64 64" style="background:#fff">
  <g id="Rind-(Geschnetzeltes)" fill="none" fill-rule="evenodd" stroke="none" stroke-width="1">
    <rect width="64" height="64" fill="#FFF"/>
    <g transform="translate(2 4)">
      <g id="Layer_2">
        <rect id="Rectangle" width="60" height="60" x="0" y="0"/>
        <rect id="Rectangle" width="60" height="60" x="0" y="0"/>
      </g>
      <g id="Layer_1" fill-rule="nonzero" transform="translate(2 4)">
        <path id="Path" fill="#E05362" d="M45.47 31.45C39.05 29.45 32.11 28.73 25.47 27.69 18.55 26.6 11.3 25.15 4.3 25.69 1.21 25.94 1.07 32.83 3.82 33.74 10.26 35.86 17.14 36.48 23.82 37.58 30.82 38.74 37.88 40.58 44.9 41.15 48.66 41.46 48.66 32.45 45.47 31.45zM42.63 44.5C36.72 42.5 29.48 43.1 23.28 42.79 17.08 42.48 10.41 41.94 4.2 43.38 2.01 43.89 2.51 48.61 4.34 49.28 10.09 51.36 16.47 51.61 22.53 52.09 28.59 52.57 36.08 54.2 42.09 52.91 45.37 52.2 45.94 45.64 42.63 44.5z" opacity=".5"/>
        <g id="Group" fill="#C17953" opacity=".5" transform="translate(27 2)">
          <path id="Path" d="M10.59,1 C9.96548496,0.259112705 8.91210285,0.0476068484 8.05,0.49 C7.12,1 6.83,2 6.25,2.79 C5.12,4.43 3.53,4.79 1.82,5.43 C-0.43,6.28 0.2,11.12 2.48,11.43 C4.05686647,11.4994721 5.6077515,11.0108371 6.86,10.05 C7.07,9.91 7.27,9.74 7.47,9.59 C7.34056417,9.95748863 7.24352754,10.3355969 7.18,10.72 C6.85,12.72 8.18,16.54 10.6,14.72 C12.4,13.32 12.76,9.86 12.73,7.72 C12.7,5.58 12.2,2.53 10.59,1 Z"/>
        </g>
        <g id="Group" fill="#C17953" opacity=".5" transform="translate(41 2)">
          <path id="Path" d="M13.53,7.68 C13.28,5.79 11.46,5.24 9.9,4.43 C8.74452136,3.86619764 7.83177781,2.90373266 7.33,1.72 C7.08835633,0.887832128 6.38841417,0.269684192 5.53275539,0.132778788 C4.67709662,-0.00412661613 3.8192271,0.36477145 3.33,1.08 C0.634491954,4.66001146 0.20792601,9.46081727 2.23,13.46 C2.89,14.77 4.43,15.91 5.86,14.7 C7.08274753,13.4321152 7.44690159,11.5643573 6.79,9.93 C7.30537743,10.2612102 7.85118454,10.542485 8.42,10.77 C11.09,11.85 13.92,10.75 13.53,7.68 Z"/>
        </g>
        <path id="Path" fill="#3D454C" d="M43.21 18.37C42.6707892 18.3698315 42.1543548 18.5873948 41.777811 18.9733522 41.4012672 19.3593096 41.1965197 19.8809577 41.21 20.42 41.21 20.9943761 41.6756239 21.46 42.25 21.46 42.8243761 21.46 43.29 20.9943761 43.29 20.42 43.29 20.9722847 43.7377153 21.42 44.29 21.42 44.8422847 21.42 45.29 20.9722847 45.29 20.42 45.3042852 19.866787 45.0887134 19.3323822 44.6945702 18.9439238 44.3004271 18.5554655 43.7629471 18.3476797 43.21 18.37L43.21 18.37zM38.62 18.39C37.5154305 18.39 36.62 19.2854305 36.62 20.39 36.62 20.9671376 37.0878624 21.435 37.665 21.435 38.2421376 21.435 38.71 20.9671376 38.71 20.39 38.71 20.9422847 39.1577153 21.39 39.71 21.39 40.2622847 21.39 40.71 20.9422847 40.71 20.39 40.6826928 19.2616598 39.7484492 18.3676468 38.62 18.39z"/>
        <path id="Shape" fill="#3D454C" d="M50.31,7.52 C52.2,6.08 53.92,3.79 53.92,1.63 C53.8989621,0.799397428 53.2306026,0.131037945 52.4,0.11 C51.4447451,0.203337561 50.5154053,0.474677636 49.66,0.91 C48.1347536,1.63967291 46.4863343,2.07721631 44.8,2.2 C42.3917525,0.787829498 39.4082475,0.787829498 37,2.2 C35.3141328,2.07443695 33.6662192,1.6370278 32.14,0.91 C31.2885546,0.473654295 30.3622879,0.202220815 29.41,0.11 C28.5793974,0.131037945 27.9110379,0.799397428 27.89,1.63 C27.89,3.79 29.6,6.08 31.5,7.52 L28.7,10.32 C28.3797314,10.6467528 28.3220745,11.1491922 28.56,11.54 C29.457737,12.8593484 30.9647338,13.6316842 32.56,13.59 L33.25,13.59 C33.4603332,14.3941293 33.7518303,15.1748054 34.12,15.92 C34.28,16.28 34.45,16.65 34.56,16.92 C33.6394573,17.8354565 33.1243667,19.0817597 33.13,20.38 C33.13,23.52 36.62,26.07 40.91,26.07 C45.2,26.07 48.69,23.52 48.69,20.38 C48.6777005,19.1088429 48.1637335,17.8940119 47.26,17 C47.38,16.69 47.55,16.32 47.71,16 C48.0781697,15.2548054 48.3696668,14.4741293 48.58,13.67 L49.27,13.67 C50.8652662,13.7116842 52.372263,12.9393484 53.27,11.62 C53.505339,11.2269794 53.443535,10.7243066 53.12,10.4 L50.31,7.52 Z M40.92,24.11 C37.78,24.11 35.14,22.42 35.14,20.42 C35.15009,19.4915696 35.5895017,18.6201313 36.33,18.06 C36.3975489,18.004271 36.458001,17.9404604 36.51,17.87 C36.7047332,17.87 36.8942134,17.8068399 37.05,17.69 C38.2339547,16.910653 39.6340242,16.5256339 41.05,16.59 C42.4662075,16.5235576 43.8669079,16.9087502 45.05,17.69 C45.1585392,17.7744976 45.2851868,17.832687 45.42,17.86 C45.4717448,17.9336579 45.5321808,18.0008091 45.6,18.06 C46.3442654,18.6180685 46.787534,19.4898301 46.8,20.42 C46.7,22.42 44.05,24.11 40.92,24.11 Z M49.27,11.59 L47.7,11.59 C47.1477153,11.59 46.7,12.0377153 46.7,12.59 C46.5846353,13.4689066 46.3101563,14.3194524 45.89,15.1 L45.59,15.76 C42.6824603,14.1716293 39.1598149,14.201899 36.28,15.84 C36.18,15.6 36.07,15.35 35.95,15.1 C35.5298437,14.3194524 35.2553647,13.4689066 35.14,12.59 C35.14,12.0377153 34.6922847,11.59 34.14,11.59 L32.57,11.59 C31.9438224,11.5908602 31.3351687,11.3832846 30.84,11 L33.79,8 L33.79,8 C33.8541959,7.93898483 33.9082124,7.86808816 33.95,7.79 C33.95,7.79 33.95,7.79 33.95,7.72 C33.9792869,7.6590218 34.0027251,7.59540368 34.02,7.53 C34.0247864,7.47009546 34.0247864,7.40990454 34.02,7.35 C34.0297619,7.28704283 34.0297619,7.22295717 34.02,7.16 C34.0237172,7.09672121 34.0237172,7.03327879 34.02,6.97 L34,6.89 C33.9691796,6.82975751 33.9323241,6.77279893 33.89,6.72 C33.89,6.72 33.89,6.72 33.89,6.67 C33.89,6.62 33.82,6.62 33.78,6.59 L33.68,6.5 C31.9644343,5.57501852 30.6531285,4.04634956 30,2.21 C30.479379,2.36831561 30.9500381,2.551906 31.41,2.76 C33.2461799,3.63042892 35.2395211,4.1202602 37.27,4.2 C37.4265423,4.19906142 37.5806777,4.16138386 37.72,4.09 C39.6694859,2.83746983 42.1705141,2.83746983 44.12,4.09 C44.2593223,4.16138386 44.4134577,4.19906142 44.57,4.2 C46.6007119,4.12191473 48.5943805,3.632003 50.43,2.76 C50.95,2.54 51.43,2.33 51.85,2.21 C51.2133212,4.03117099 49.9330129,5.55687161 48.25,6.5 L48.15,6.59 C48.15,6.59 48.07,6.59 48.04,6.67 C48.01,6.75 48.04,6.67 48.04,6.72 C47.9976759,6.77279893 47.9608204,6.82975751 47.93,6.89 C47.8993568,6.94125064 47.8726146,6.99473505 47.85,7.05 C47.8462828,7.11327879 47.8462828,7.17672121 47.85,7.24 C47.8400761,7.30294458 47.8400761,7.36705542 47.85,7.43 C47.8452136,7.48990454 47.8452136,7.55009546 47.85,7.61 C47.8672749,7.67540368 47.8907131,7.7390218 47.92,7.8 C47.92,7.8 47.92,7.8 47.92,7.87 C47.92,7.94 47.98,7.93 48,7.97 C48.02,8.01 48,8.05 48.08,8.08 L51.08,11.08 C50.5527873,11.4520801 49.9139138,11.6320942 49.27,11.59 L49.27,11.59 Z"/>
        <path id="Path" fill="#3D454C" d="M38.52 9.22C37.9677153 9.22 37.52 9.66771525 37.52 10.22 37.52 10.7722847 37.9677153 11.22 38.52 11.22 39.0722847 11.22 39.52 10.7722847 39.52 10.22 39.52 9.66771525 39.0722847 9.22 38.52 9.22zM43.52 9.22C42.9677153 9.22 42.52 9.66771525 42.52 10.22 42.52 10.7722847 42.9677153 11.22 43.52 11.22 44.0722847 11.22 44.52 10.7722847 44.52 10.22 44.52 9.66771525 44.0722847 9.22 43.52 9.22z"/>
        <path id="Shape" fill="#3D454C" d="M43.5,28 C42.31,27.92 41.1,28 39.93,28 C38.76,28 37.86,28.07 36.86,28 C35.0114995,27.8752313 33.1757701,27.604386 31.37,27.19 C29.27762,26.7129161 27.1447696,26.4350094 25,26.36 C24.16,26.36 23.31,26.36 22.49,26.43 C21.67,26.5 20.81,26.52 20,26.5 C18.7877205,26.4575891 17.5789754,26.3440605 16.38,26.16 C14.1422663,25.7423231 11.8501053,25.7051346 9.6,26.05 C5.82,26.82 3.33,29.27 1.3,31.51 C0.46,32.43 0.62,33.12 0.9,33.51 C1.15036032,33.8416562 1.50107762,34.0836511 1.9,34.2 C12.992206,38.1613032 24.6816779,40.1907254 36.46,40.2 C38.6733333,40.2 40.8766667,40.13 43.07,39.99 C43.6763067,39.9834703 44.2750095,39.8542049 44.83,39.61 C45.4034664,39.3037158 45.8498748,38.8041636 46.09,38.2 L49.09,31.94 L49.23,31.73 C49.4372932,31.4369751 49.4716414,31.055329 49.32,30.73 C48.33,28.54 44.92,28.1 43.5,28 Z M45,35.9 C43.18,34.53 41.13,34.4 38.78,34.3 C33.9869117,34.1267274 29.227823,33.4224225 24.59,32.2 C24.2452387,32.1053246 23.8761574,32.2017689 23.6217855,32.4530033 C23.3674136,32.7042376 23.2663961,33.0720935 23.3567855,33.4180033 C23.4471748,33.763913 23.7152387,34.0353246 24.06,34.13 C26.9745065,34.9265537 29.9420006,35.5147057 32.94,35.89 C36.27,36.29 41.39,35.42 44.06,37.73 L43.96,37.8 C43.6525899,37.9170141 43.3285629,37.9845197 43,38 C29.4597737,38.8666968 15.8835968,36.9996324 3.08,32.51 C4.91,30.53 7,28.62 10,28 C12.036467,27.7041148 14.1079081,27.7480443 16.13,28.13 C17.3988024,28.3225693 18.6775371,28.4427637 19.96,28.49 C20.86,28.49 21.74,28.49 22.6,28.42 C23.46,28.35 24.19,28.34 24.98,28.35 C27.001696,28.436871 29.0106429,28.7147753 30.98,29.18 C32.8883048,29.6136376 34.8275143,29.8978321 36.78,30.03 C37.86,30.03 38.95,30.03 40.01,30.03 C41.07,30.03 42.29,29.96 43.39,30.03 C44.769701,30.0121967 46.1212519,30.4208052 47.26,31.2 L45,35.9 Z"/>
        <path id="Path" fill="#3D454C" d="M20.26 31.57C19.7077153 31.57 19.26 32.0177153 19.26 32.57 19.26 33.1222847 19.7077153 33.57 20.26 33.57 20.8122847 33.57 21.26 33.1222847 21.26 32.57 21.26 32.0177153 20.8122847 31.57 20.26 31.57zM45 46.05C42.33 45.21 39.53 44.46 36.68 43.81 36.1496633 43.7076238 35.6338696 44.0448841 35.5149836 44.5717655 35.3960975 45.098647 35.7170877 45.62472 36.24 45.76 38.67 46.31 41.06 46.94 43.36 47.64 41.5651268 49.0332548 39.4389593 49.9361007 37.19 50.26 35.290141 50.4233656 33.3770433 50.3359482 31.5 50 30.37 49.85 29.21 49.7 28.01 49.65 27.2 49.65 26.38 49.65 25.58 49.65 24.78 49.65 24.11 49.65 23.38 49.65 21.529976 49.5431654 19.6910823 49.2924072 17.88 48.9 16.1443084 48.5389196 14.3874404 48.2884156 12.62 48.15 11.62 48.08 10.62 48.08 9.62 48.08 8.62 48.08 7.53 48 6.53 48 5.43369176 47.9657099 4.35415796 47.7212872 3.35 47.28L6.25 43.33C6.4 43.14 6.45 43.08 6.59 43.03 6.91842006 42.9585834 7.25394141 42.9250313 7.59 42.93 14.0799343 42.7798901 20.5713283 43.1578023 27 44.06 27.5522847 44.1373198 28.0626801 43.7522847 28.1399999 43.2 28.2173198 42.6477153 27.8322847 42.1373199 27.28 42.06 20.7304068 41.1214254 14.1150221 40.7200876 7.5 40.86 6.95909959 40.8483898 6.41958422 40.9192012 5.9 41.07 5.37549839 41.2593087 4.92407908 41.6092462 4.61 42.07L1.41 46.42 1.27 46.55C.95064607 46.851558.865453294 47.3262034 1.06 47.72 1.87 49.34 4.72 49.79 6.34 49.92 7.42 50 8.54 50.01 9.61 50.01 10.68 50.01 11.54 50.01 12.46 50.07 14.1404071 50.207528 15.8104168 50.4513494 17.46 50.8 19.3679744 51.2032946 21.3033207 51.4640148 23.25 51.58 24.01 51.58 24.78 51.58 25.55 51.58 26.32 51.58 27.11 51.58 27.87 51.58 28.98 51.58 30.1 51.78 31.19 51.92 32.6129691 52.1447517 34.0496687 52.2717158 35.49 52.3 36.1218793 52.299246 36.7530994 52.2591685 37.38 52.18 40.3320323 51.7236718 43.1005706 50.4605263 45.38 48.53 46.56 47.64 46.09 46.81 45.91 46.53 45.6601747 46.2843961 45.3437697 46.1175011 45 46.05z"/>
        <path id="Path" fill="#3D454C" d="M32,42.65 C31.4477153,42.65 31,43.0977153 31,43.65 C31,44.2022847 31.4477153,44.65 32,44.65 C32.5522847,44.65 33,44.2022847 33,43.65 C33,43.0977153 32.5522847,42.65 32,42.65 Z"/>
      </g>
    </g>
  </g>
</svg>
