<svg xmlns="http://www.w3.org/2000/svg" width="64" height="64" viewBox="0 0 64 64" style="background:#fff">
  <g id="Rind-(Ragout)" fill="none" fill-rule="evenodd" stroke="none" stroke-width="1">
    <rect width="64" height="64" fill="#FFF"/>
    <g transform="translate(2 4)">
      <g id="Layer_2">
        <rect id="Rectangle" width="60" height="60" x="0" y="0"/>
        <rect id="Rectangle" width="60" height="60" x="0" y="0"/>
      </g>
      <g id="Layer_1" fill-rule="nonzero" transform="translate(5 3)">
        <g id="Group" fill="#C17953" opacity=".5" transform="translate(24 2)">
          <path id="Path" d="M10.73,1.12 C10.0875239,0.400721015 9.04330507,0.20006721 8.18,0.63 C7.25,1.12 6.96,2.09 6.39,2.89 C5.25,4.47 3.67,4.82 2,5.44 C-0.26,6.26 0.37,10.93 2.65,11.25 C4.20968473,11.3191718 5.74567112,10.8495484 7,9.92 C7.22,9.78 7.41,9.63 7.61,9.48 C7.4839193,9.83486317 7.38693241,10.1994001 7.32,10.57 C6.99,12.5 8.32,16.19 10.75,14.41 C12.54,13.07 12.9,9.72 12.87,7.63 C12.84,5.54 12.33,2.64 10.73,1.12 Z"/>
        </g>
        <g id="Group" fill="#C17953" opacity=".5" transform="translate(39 2)">
          <path id="Path" d="M12.66,7.61 C12.41,5.78 10.59,5.25 9.03,4.47 C7.88766399,3.93532778 6.97806893,3.0044141 6.47,1.85 C6.20184965,1.03915428 5.50128765,0.447431917 4.65701378,0.31868015 C3.8127399,0.189928384 2.96764868,0.54593863 2.47,1.24 C-0.227545921,4.6507259 -0.662597213,9.33046683 1.36,13.18 C2.02,14.45 3.56,15.55 4.99,14.39 C6.20709256,13.1808806 6.57786576,11.3585698 5.93,9.77 C6.44245907,10.0946435 6.98495723,10.3692414 7.55,10.59 C10.23,11.63 13.06,10.57 12.66,7.61 Z"/>
        </g>
        <path id="Path" fill="#4885E0" d="M47.63,33.34 C40.14,35.54 33.8,38.23 25.63,38.41 C17.9487524,38.5812481 10.3102762,37.2214838 3.16,34.41 C0.26,33.31 -0.17,38.58 2,39.72 C15.45,46.94 36.83,48.72 49.45,39.31 C51.19,38 51.09,32.33 47.63,33.34 Z" opacity=".5"/>
        <path id="Path" fill="#3D454C" d="M40.3899999 18.66C39.2773895 18.6871449 38.3896689 19.5970585 38.3899999 20.71 38.3899999 21.2871376 38.8578624 21.755 39.435 21.755 40.0121376 21.755 40.48 21.2871376 40.48 20.71 40.48 21.2622847 40.9277153 21.71 41.48 21.71 42.0322847 21.71 42.48 21.2622847 42.48 20.71 42.4801048 20.1593043 42.2586411 19.631724 41.8654964 19.2461036 41.4723518 18.8604832 40.9405909 18.6492547 40.3899999 18.66L40.3899999 18.66zM35.81 18.68C34.6970585 18.6796689 33.7871449 19.5673895 33.76 20.68 33.76 21.2571376 34.2278624 21.725 34.805 21.725 35.3821376 21.725 35.85 21.2571376 35.85 20.68 35.85 21.2322847 36.2977153 21.68 36.85 21.68 37.4022847 21.68 37.85 21.2322847 37.85 20.68 37.8501075 20.1425633 37.6339118 19.6276984 37.2501429 19.2514543 36.8663739 18.8752102 36.3473292 18.6692513 35.81 18.68z"/>
        <path id="Shape" fill="#3D454C" d="M47.49,7.81 C49.39,6.37 51.1,4.08 51.1,1.92 C51.0789621,1.08939743 50.4106026,0.421037945 49.58,0.4 C48.62794,0.493398633 47.7018893,0.764768817 46.85,1.2 C45.3273574,1.92714792 43.6826937,2.36459453 42,2.49 C39.5954022,1.10408256 36.6345978,1.10408256 34.23,2.49 C32.5402598,2.36845035 30.8883371,1.9308774 29.36,1.2 C28.5075868,0.766086902 27.5817896,0.494791012 26.63,0.4 C25.7954951,0.415780432 25.1212522,1.0856165 25.1,1.92 C25.1,4.09 26.82,6.37 28.72,7.81 L25.92,10.61 C25.596465,10.9343066 25.534661,11.4369794 25.77,11.83 C26.6804127,13.1289414 28.1845993,13.8810347 29.77,13.83 L30.45,13.83 C30.6585137,14.6347041 30.9500794,15.4155637 31.32,16.16 C31.49,16.52 31.65,16.89 31.77,17.16 C30.8438797,18.072515 30.324752,19.3198635 30.33,20.62 C30.33,23.76 33.82,26.31 38.11,26.31 C42.4,26.31 45.9,23.76 45.9,20.62 C45.8996461,19.3209772 45.3813824,18.0757046 44.46,17.16 C44.57,16.85 44.74,16.48 44.9,16.16 C45.2687888,15.413965 45.5635325,14.6335641 45.78,13.83 L46.46,13.83 C48.0454007,13.8810347 49.5495873,13.1289414 50.46,11.83 C50.695339,11.4369794 50.633535,10.9343066 50.31,10.61 L47.49,7.81 Z M38.1,24.4 C34.97,24.4 32.32,22.71 32.32,20.71 C32.332466,19.7798301 32.7757346,18.9080685 33.52,18.35 C33.589903,18.296843 33.6506964,18.2326722 33.7,18.16 C33.8926174,18.1565315 34.0801329,18.0974988 34.24,17.99 C35.4048159,17.2168094 36.7828689,16.8285762 38.18,16.88 C39.5972221,16.8172031 40.9978018,17.205864 42.18,17.99 C42.2911935,18.0678967 42.4170843,18.122336 42.55,18.15 C42.6025537,18.2261365 42.6666569,18.2936135 42.74,18.35 C43.4842654,18.9080685 43.927534,19.7798301 43.94,20.71 C43.89,22.71 41.24,24.4 38.1,24.4 Z M46.45,11.88 L44.89,11.88 C44.3377153,11.88 43.89,12.3277153 43.89,12.88 C43.7721758,13.7597072 43.4942592,14.6104031 43.07,15.39 L42.78,16.05 C41.378983,15.2554136 39.7904024,14.8513616 38.18,14.88 C36.5210939,14.8500927 34.8866586,15.282941 33.46,16.13 L33.14,15.39 C32.7112436,14.6123494 32.4330453,13.7607913 32.32,12.88 C32.32,12.3277153 31.8722847,11.88 31.32,11.88 L29.76,11.88 C29.1301542,11.8966666 28.5121171,11.7070416 28,11.34 L31,8.34 C31,8.34 31.05,8.26 31.08,8.23 L31.17,8.13 C31.17,8.13 31.17,8.13 31.17,8.07 C31.1945609,8.0047875 31.2146081,7.9379632 31.23,7.87 C31.2346622,7.81009057 31.2346622,7.74990943 31.23,7.69 C31.234397,7.62674298 31.234397,7.56325702 31.23,7.5 C31.2340695,7.43673204 31.2340695,7.37326796 31.23,7.31 C31.23,7.26 31.23,7.21 31.15,7.15 C31.1054597,7.09482312 31.0551769,7.04454028 31,7 C31,7 30.93,6.95 30.89,6.92 L30.79,6.83 C29.1069871,5.88687161 27.8266788,4.36117099 27.19,2.54 C27.59,2.66 28.09,2.87 28.61,3.09 C30.4440989,3.96626394 32.4386606,4.45639514 34.47,4.53 C34.6299233,4.53064348 34.7876684,4.49292181 34.93,4.42 C35.8940532,3.83715398 36.9937659,3.51654807 38.12,3.49 C39.2490761,3.51848496 40.3515317,3.83888612 41.32,4.42 C41.4623316,4.49292181 41.6200767,4.53064348 41.78,4.53 C43.8111817,4.4552656 45.8055173,3.96518995 47.64,3.09 C48.0828275,2.86995154 48.5367706,2.67302032 49,2.5 C48.3699258,4.32491998 47.0878515,5.8527253 45.4,6.79 L45.3,6.88 C45.3,6.88 45.22,6.88 45.19,6.96 L45.19,6.96 C45.144197,7.01233942 45.1039793,7.06931447 45.07,7.13 C45.07,7.19 45.01,7.24 44.99,7.29 C44.9862828,7.35327879 44.9862828,7.41672121 44.99,7.48 C44.99,7.55 44.99,7.61 44.99,7.67 C44.9806329,7.72963441 44.9806329,7.79036559 44.99,7.85 C45.000703,7.91910968 45.0208935,7.98641139 45.05,8.05 C45.05,8.05 45.05,8.05 45.05,8.11 C45.0917876,8.18808816 45.1458041,8.25898483 45.21,8.32 L45.21,8.32 L48.21,11.32 C47.7024681,11.6982391 47.0827843,11.8954113 46.45,11.88 Z"/>
        <path id="Path" fill="#3D454C" d="M35.7 9.52C35.1477153 9.52 34.7 9.96771525 34.7 10.52 34.7 11.0722847 35.1477153 11.52 35.7 11.52 36.2522847 11.52 36.7 11.0722847 36.7 10.52 36.7 9.96771525 36.2522847 9.52 35.7 9.52zM40.71 9.52C40.1577153 9.52 39.71 9.96771525 39.71 10.52 39.71 11.0722847 40.1577153 11.52 40.71 11.52 41.2622847 11.52 41.71 11.0722847 41.71 10.52 41.71 9.96771525 41.2622847 9.52 40.71 9.52z"/>
        <path id="Path" fill="#E05362" d="M11 30C9.86 29.21 8.63 29.29 7.28 29.26 6.02609937 29.1721344 4.76655693 29.3075691 3.56 29.66 1.94 30.22 2.36 33.35 3.67 33.98 4.784114 34.4377307 5.96728845 34.7047901 7.17 34.77 8.33 34.91 9.66 35.26 10.71 34.68 12.09 33.87 12.35 30.92 11 30zM16.61 25C15.3186335 24.6720928 13.999663 24.4645391 12.67 24.38 11.33 24.15 10.23 23.8 9.06 24.61 8.3 25.13 8.28 26.73 8.64 27.45 9.35288429 28.7455009 10.5684224 29.6897135 12 30.06 13.3239494 30.6404903 14.767037 30.8975724 16.21 30.81 18.58 30.33 18.84 25.84 16.61 25z" opacity=".5"/>
        <path id="Path" fill="#E05362" d="M24.49 23.46C23.35 22.62 22.05 22.66 20.68 22.59 19.4606046 22.4474149 18.2291192 22.7261752 17.19 23.38 16.03 24.19 16.5 26.3 17.28 27.15 18.1840747 27.9623934 19.3010963 28.5000901 20.5 28.7 21.71 29.01 22.95 29.47 24.15 28.99 26 28.25 26 24.54 24.49 23.46zM24.45 30.39C23.55 29.47 22.45 29.67 21.28 29.81 20.2433668 29.8326683 19.2223713 30.0674973 18.28 30.5 16.6 31.5 16.64 34.66 18.4 35.58 19.375472 35.952701 20.4166316 36.1228251 21.46 36.08 22.62 36.14 23.76 36.27 24.6 35.31 25.8017862 33.8681829 25.7373882 31.7559276 24.45 30.39L24.45 30.39zM32.77 33.08L32.77 33C32.77 33 32.77 32.92 32.77 32.87 32.77 32.82 32.77 32.77 32.77 32.72 32.7433308 32.3799003 32.6761899 32.0441956 32.57 31.72 32.4539952 31.3435033 32.289266 30.9837884 32.08 30.65 31.6852235 30.0485823 31.22214 29.4948956 30.7 29 29.89 28.15 28.92 27.2 27.7 27.6 26.83 27.87 26.63 29.18 26.61 29.91 26.6523046 31.2103146 27.0613694 32.4721757 27.79 33.55 28.2756748 34.4272622 28.8557866 35.2488079 29.52 36 30.52 37 31.89 36 32.36 35.06 32.36 35.06 32.36 34.98 32.36 34.94 32.5283272 34.6296382 32.636875 34.2904265 32.68 33.94L32.68 33.75C32.7237348 33.5287275 32.7537917 33.3049701 32.77 33.08L32.77 33.08zM45 28.81C43.88 27.87 42.92 28.31 41.71 28.58 40.643201 28.6423849 39.5900257 28.8510011 38.58 29.2 36.69 30.2 36.74 33.54 38.23 34.86 39.3122054 35.7033147 40.6933972 36.0648833 42.05 35.86 43.7498375 35.8820175 45.2778994 34.8272136 45.86 33.23 46.4592152 31.7149692 46.1235549 29.9898312 45 28.81z" opacity=".5"/>
        <path id="Shape" fill="#3D454C" d="M45.6,29.81 C45.2130544,28.5920858 44.067472,27.7767247 42.79,27.81 L40.42,27.75 C39.6274685,27.7070709 38.8537444,28.001304 38.29,28.56 C38.2448014,28.6019468 38.2045406,28.6489178 38.17,28.7 C37.5668116,28.3345879 36.8752385,28.1409474 36.17,28.14 C34.7550191,28.0844005 33.3575823,28.4686956 32.17,29.24 C31.5447338,28.150146 30.6174354,27.2645239 29.5,26.69 C28.7940065,26.4712295 28.0249109,26.6596579 27.5,27.18 C27.38,27.27 27.24,27.4 27.1,27.53 C26.6397262,27.3201433 26.1652137,27.1430365 25.68,27 C26.18,26.1 26.73,24.93 26.14,24 C25.42,22.87 23.39,23 22.25,22.75 C20.7741929,22.3572048 19.2428663,22.2152275 17.72,22.33 C16.39,22.56 15.61,23.78 14.94,24.88 C13.7027732,24.447297 12.4404592,24.0899753 11.16,23.81 C8.44,23.22 6.11,26.96 4.53,28.73 C4.22750326,29.0435117 4.16278229,29.5167838 4.37,29.9 C0.77,30.73 0.19,31.65 0.19,32.53 L0.19,32.53 C0.19,32.69 0.49,48.67 17.76,52.97 C17.8348813,53.0277199 17.9050985,53.0912498 17.97,53.16 C18.2650467,53.5204558 18.6682515,53.7764032 19.12,53.89 C20.344998,54.1299831 21.5842621,54.2903192 22.83,54.37 L22.94,54.37 C23.12,54.37 23.31,54.37 23.49,54.37 L24.57,54.37 L25.1,54.37 L25.28,54.37 L25.81,54.37 L26.89,54.37 C27.07,54.37 27.27,54.37 27.45,54.37 L27.55,54.37 C28.7958004,54.2909665 30.0351064,54.130625 31.26,53.89 C31.7111855,53.7750962 32.1140102,53.5193901 32.41,53.16 C32.4749015,53.0912498 32.5451187,53.0277199 32.62,52.97 C49.89,48.67 50.19,32.69 50.19,32.53 L50.19,32.53 C50.19,31.32 48.84,30.51 45.6,29.81 Z M45.91,33.22 L45.8,31.91 C46.5176781,32.0540203 47.2158435,32.2822667 47.88,32.59 C47.2476355,32.8695374 46.5872233,33.0807352 45.91,33.22 L45.91,33.22 Z M40.37,29.71 L42.73,29.77 C43.1077688,29.7440848 43.4677729,29.9337644 43.66,30.26 L43.92,33.4 C43.9293562,33.4726127 43.9495825,33.5434048 43.98,33.61 C42.85,33.81 41.51,34 39.98,34.16 C39.98,34.16 39.98,34.16 39.98,34.09 L39.7,29.93 C39.72,29.87 39.94,29.68 40.37,29.71 L40.37,29.71 Z M36.18,30.1 C36.862171,30.0767969 37.489013,30.4735323 37.76,31.1 C37.76,31.1 37.76,31.1 37.76,31.1 L37.97,34.2 C37.9655757,34.2465618 37.9655757,34.2934382 37.97,34.34 L37.51,34.34 L37.51,33.63 C37.5090349,32.5004041 36.7012521,31.5327476 35.59,31.33 L34.11,31.07 C33.8977184,31.0400423 33.6822816,31.0400423 33.47,31.07 C33.4120145,30.9773842 33.3840726,30.8691095 33.39,30.76 C34.2151511,30.222712 35.2015766,29.989364 36.18,30.1 L36.18,30.1 Z M33.43,33.34 C33.4743115,33.1681424 33.6466133,33.0621105 33.82,33.1 L35.29,33.36 C35.450331,33.388729 35.5677628,33.5271308 35.57,33.69 L35.57,34.55 C34.77,34.61 33.93,34.65 33.06,34.69 L33.43,33.34 Z M29,28.59 C29.82,29.04 30.77,30.59 31.6,31.93 L31.78,32.21 C31.662158,32.3998341 31.5712877,32.6051336 31.51,32.82 L30.98,34.82 L29.41,34.82 C28.5096631,33.433782 27.9006543,31.8789383 27.62,30.25 C27.9113218,29.5757959 28.3903518,28.9995713 29,28.59 Z M11.6,34.29 L11.34,33.06 C11.5425718,32.9124649 11.7744677,32.8101579 12.02,32.76 L12.07,32.76 L14.36,32.26 C14.6239453,32.2061224 14.8960547,32.2061224 15.16,32.26 L15.73,34.65 C14.25,34.52 12.87,34.41 11.6,34.29 Z M18.54,27.91 C18.9184786,28.2154723 19.1856158,28.6372679 19.3,29.11 C18.9312496,30.3273712 18.2026333,31.4046078 17.21,32.2 L17.06,31.58 C16.8791065,30.9210053 16.340643,30.4212801 15.67,30.29 L18.54,27.91 Z M21.24,28.63 C22.8146432,28.5462916 24.3923388,28.7219664 25.91,29.15 C25.7305593,29.4861038 25.631305,29.8591629 25.62,30.24 C24.4511556,29.915047 23.2007478,30.0736002 22.15,30.68 L20.84,30.76 C21.0954466,30.2792948 21.2518658,29.7522302 21.3,29.21 C21.3042604,29.0149212 21.284104,28.8200755 21.24,28.63 Z M17.74,34.71 C17.7548844,34.5971554 17.7548844,34.4828446 17.74,34.37 C18.3374178,33.9173545 18.8899571,33.4083485 19.39,32.85 L22.52,32.66 C22.7421799,32.6386046 22.9464659,32.7833071 23,33 L23.38,34.86 C21.36,34.85 19.49,34.79 17.74,34.71 L17.74,34.71 Z M25.4,34.88 L24.93,32.6 C24.8912135,32.4200353 24.8307735,32.2454307 24.75,32.08 C25.3788138,32.1954244 25.926316,32.5786759 26.25,33.13 C26.2878581,33.1844945 26.3314396,33.2347808 26.38,33.28 C26.5937646,33.8247005 26.8408998,34.3557073 27.12,34.87 L25.4,34.88 Z M18.86,24.35 C19.5734032,24.3507314 20.2844878,24.4312315 20.98,24.59 C21.61,24.68 22.24,24.84 22.87,24.93 C23.3734952,24.9594941 23.8727091,25.0399043 24.36,25.17 C24.1634545,25.6280992 23.9362736,26.0724384 23.68,26.5 C23.68,26.57 23.68,26.63 23.62,26.69 C22.498838,26.5912252 21.371162,26.5912252 20.25,26.69 L20.19,26.69 C19.9867345,26.4864309 19.7621017,26.3053835 19.52,26.15 C18.9574793,25.7630703 18.223206,25.73199 17.63,26.07 L17.63,26.07 C17.38,25.93 17.12,25.8 16.84,25.67 C17.2573046,24.9264665 18.0114781,24.4336403 18.86,24.35 Z M9.16,26.79 C10.28,25.62 10.36,25.68 11.82,26.2 C13.13,26.66 14.59,26.96 15.9,27.5 L12.9,30 C12.6598914,30.1627923 12.4640178,30.3827205 12.33,30.64 L11.9,30.73 C10.28,30.28 8.59,29.73 6.98,29.08 C7.69,28.31 8.43,27.55 9.16,26.79 L9.16,26.79 Z M7.21,31.42 C7.26814941,31.4044793 7.32499068,31.3844177 7.38,31.36 C8.09,31.62 8.82,31.87 9.54,32.11 C9.32578631,32.4599312 9.25418782,32.8787823 9.34,33.28 L9.51,34.06 C7.1215228,33.8910909 4.766855,33.3999745 2.51,32.6 C4.01808148,32.002074 5.59833073,31.6053306 7.21,31.42 L7.21,31.42 Z M32.06,51.1 C31.6508592,51.2240927 31.286255,51.4636898 31.01,51.79 L30.79,52 C29.4687638,52.2465106 28.1323915,52.4035344 26.79,52.47 L25.79,52.47 L25.2,52.47 L24.62,52.47 L23.62,52.47 C22.2776438,52.4031117 20.9412998,52.2460912 19.62,52 L19.41,51.79 C19.1297852,51.4681923 18.7665792,51.229514 18.36,51.1 C5.92,48 3.05,38.74 2.39,34.59 C7.85,36.75 21.85,36.88 25.19,36.88 C28.53,36.88 42.53,36.75 47.99,34.59 C47.33,38.74 44.46,48 32.06,51.1 Z"/>
      </g>
    </g>
  </g>
</svg>
