<svg xmlns="http://www.w3.org/2000/svg" width="64" height="64" viewBox="0 0 64 64" style="background:#fff">
  <g id="Rind-(Roastbeef)" fill="none" fill-rule="evenodd" stroke="none" stroke-width="1">
    <rect width="64" height="64" fill="#FFF"/>
    <g transform="translate(2 4)">
      <g id="Layer_2">
        <rect id="Rectangle" width="60" height="60" x="0" y="0"/>
        <rect id="Rectangle" width="60" height="60" x="0" y="0"/>
      </g>
      <g id="Layer_1" fill-rule="nonzero" transform="translate(3 2)">
        <path id="Path" fill="#E05362" d="M37.94,33 L34.44,34 C34.7,31.15 33.44,27.84 30.54,28.75 L27.82,29.61 C27.55,27.47 26.47,25.55 24.56,25.73 C24.14,25.73 23.73,25.82 23.32,25.87 C22.72,23.87 21.32,22.35 19.21,22.87 C18.21,23.12 17.15,23.4 16.12,23.69 C15.6177288,22.4898507 14.5335673,21.6323432 13.25,21.42 C9.71803719,20.9398401 6.12520858,21.6058279 3,23.32 C0.13,24.81 -7.77156117e-16,30.78 2.34,32.71 C2.34,35.78 3.8,39.01 6.6,37.71 L7.12,37.49 C7.34219896,38.5675589 7.9822231,39.5132125 8.9,40.12 C9.17,42.4 10.44,44.47 12.52,44.12 C12.2,47.01 13.41,50.2 16.22,49.12 C17.7866667,48.5333333 19.3633333,47.96 20.95,47.4 C20.75,49.69 21.5,52.31 23.8,51.32 C29.38,48.94 34.45,44.88 39.73,41.85 C43,40.05 42.48,31.75 37.94,33 Z" opacity=".5"/>
        <g id="Group" fill="#C17953" opacity=".5" transform="translate(26 2)">
          <path id="Path" d="M10.73,1.22 C10.0982238,0.484157073 9.04619454,0.273751221 8.18,0.71 C7.25,1.23 6.96,2.23 6.39,3.06 C5.25,4.69 3.67,5.06 1.96,5.7 C-0.3,6.55 0.33,11.39 2.61,11.7 C4.1870079,11.7838941 5.74262795,11.3055143 7,10.35 C7.22,10.2 7.41,10.04 7.61,9.88 C7.48228084,10.2453516 7.38200243,10.6197243 7.31,11 C6.98,13 8.31,16.82 10.74,15 C12.53,13.61 12.89,10.14 12.86,8 C12.83,5.86 12.33,2.8 10.73,1.22 Z"/>
        </g>
        <g id="Group" fill="#C17953" opacity=".5" transform="translate(41 2)">
          <path id="Path" d="M12.66,8 C12.41,6.1 10.59,5.56 9.03,4.74 C7.86959936,4.17141408 6.95854692,3.19630327 6.47,2 C6.22167857,1.17366636 5.52267423,0.562119584 4.67067212,0.425799247 C3.81867001,0.289478909 2.96375114,0.652397967 2.47,1.36 C-0.228762761,4.93803152 -0.659216764,9.73895093 1.36,13.74 C2,15 3.51,16.17 4.94,15 C6.16092785,13.7274821 6.52815783,11.8600786 5.88,10.22 C6.39421173,10.530473 6.93662517,10.791635 7.5,11 C10.23,12.12 13.06,11 12.66,8 Z"/>
        </g>
        <path id="Path" fill="#3D454C" d="M42.21 18.74C41.1054305 18.74 40.21 19.6354305 40.21 20.74 40.21 21.3143761 40.6756239 21.78 41.25 21.78 41.8243761 21.78 42.29 21.3143761 42.29 20.74 42.29 21.2922847 42.7377153 21.74 43.29 21.74 43.8422847 21.74 44.2900006 21.2922847 44.2900006 20.74 44.2904359 20.1954107 44.0687762 19.6741929 43.6762181 19.2967332 43.28366 18.9192735 42.7541536 18.7182162 42.21 18.74zM37.6199999 18.75C36.5073895 18.7771449 35.6196689 19.6870585 35.6199999 20.8 35.6199999 21.3771376 36.0878624 21.845 36.665 21.845 37.2421376 21.845 37.71 21.3771376 37.71 20.8 37.71 21.3522847 38.1577153 21.8 38.71 21.8 39.2622847 21.8 39.71 21.3522847 39.71 20.8 39.7101048 20.2493043 39.4886411 19.721724 39.0954964 19.3361036 38.7023518 18.9504832 38.1705909 18.7392547 37.6199999 18.75L37.6199999 18.75z"/>
        <path id="Shape" fill="#3D454C" d="M49.31,7.88 C51.2,6.44 52.92,4.16 52.92,2 C52.8992006,1.1676291 52.2322166,0.496257073 51.4,0.47 C50.4447451,0.563337561 49.5154053,0.834677636 48.66,1.27 C47.1395061,2.00296829 45.4937205,2.44071333 43.81,2.56 C42.6173749,1.90657454 41.279894,1.56274912 39.92,1.56 C38.5605921,1.56654101 37.2240279,1.91013079 36.03,2.56 C34.3433114,2.43933466 32.6945036,2.00168815 31.17,1.27 C30.3185546,0.833654295 29.3922879,0.562220815 28.44,0.47 C27.6077834,0.496257073 26.9407994,1.1676291 26.92,2 C26.92,4.16 28.63,6.44 30.53,7.88 L27.73,10.68 C27.4046629,11.0083658 27.3467786,11.5169203 27.59,11.91 C28.5028574,13.2061028 30.0054033,13.9573758 31.59,13.91 L32.28,13.91 C32.4902819,14.7173634 32.7817684,15.5013615 33.15,16.25 C33.31,16.6 33.48,16.97 33.59,17.25 C32.6700327,18.1617453 32.1548034,19.404781 32.16,20.7 C32.16,23.84 35.65,26.39 39.94,26.39 C44.23,26.39 47.72,23.84 47.72,20.7 C47.7259637,19.4026521 47.206515,18.1581394 46.28,17.25 C46.4,16.93 46.57,16.56 46.73,16.25 C47.0879706,15.5303591 47.3727339,14.7765738 47.58,14 L48.27,14 C49.8545967,14.0473758 51.3571426,13.2961028 52.27,12 C52.5106456,11.6046861 52.4485978,11.095894 52.12,10.77 L49.31,7.88 Z M39.92,24.47 C36.78,24.47 34.14,22.78 34.14,20.78 C34.15009,19.8515696 34.5895017,18.9801313 35.33,18.42 C35.399903,18.366843 35.4606964,18.3026722 35.51,18.23 C35.7026174,18.2265315 35.8901329,18.1674988 36.05,18.06 C37.2245586,17.3048592 38.6051819,16.9343628 40,17 C41.4162075,16.9335576 42.8169079,17.3187502 44,18.1 C44.1111935,18.1778967 44.2370843,18.232336 44.37,18.26 C44.4217448,18.3336579 44.4821808,18.4008091 44.55,18.46 C45.2942654,19.0180685 45.737534,19.8898301 45.75,20.82 C45.7,22.78 43.05,24.47 39.92,24.47 Z M48.27,12 L46.7,12 C46.1477153,12 45.7,12.4477153 45.7,13 C45.5861801,13.8792535 45.3116125,14.730074 44.89,15.51 L44.59,16.17 C41.6791061,14.5950627 38.1633995,14.6252729 35.28,16.25 C35.17,16.01 35.07,15.76 34.95,15.51 C34.5283875,14.730074 34.2538199,13.8792535 34.14,13 C34.14,12.4477153 33.6922847,12 33.14,12 L31.57,12 C30.9502483,12.0108593 30.3435304,11.8214792 29.84,11.46 L32.79,8.46 L32.79,8.46 C32.8541959,8.39898483 32.9082124,8.32808816 32.95,8.25 C32.95,8.25 32.95,8.25 32.95,8.19 C32.9777546,8.12496402 33.0011398,8.05814902 33.02,7.99 C33.0247864,7.93009546 33.0247864,7.86990454 33.02,7.81 C33.0298848,7.75040712 33.0298848,7.68959288 33.02,7.63 C33.0256875,7.56679436 33.0256875,7.50320564 33.02,7.44 C33.0201683,7.37943638 33.0134586,7.31904952 33,7.26 C32.969295,7.19655423 32.9324526,7.13626672 32.89,7.08 C32.89,7.08 32.89,7.08 32.89,7.03 C32.8268842,7.00345687 32.7581258,6.99314312 32.69,7 C32.69,7 32.63,6.93 32.59,6.91 C30.9050691,5.95307715 29.6282237,4.41303799 29,2.58 C29.4809216,2.73007316 29.951863,2.91043367 30.41,3.12 C32.2476477,3.99624681 34.2454652,4.48634174 36.28,4.56 C36.4365423,4.55906142 36.5906777,4.52138386 36.73,4.45 C38.6852442,3.21724135 41.1747558,3.21724135 43.13,4.45 C43.2693223,4.52138386 43.4234577,4.55906142 43.58,4.56 C45.6115373,4.48781604 47.6063842,3.99761475 49.44,3.12 C49.902161,2.9118913 50.3763385,2.73157028 50.86,2.58 C50.2160764,4.3970392 48.9376864,5.92045402 47.26,6.87 C47.26,6.87 47.2,6.93 47.16,6.95 L47,7 C47,7 47,7 47,7.05 C46.9598457,7.10433227 46.9231082,7.16110846 46.89,7.22 C46.859268,7.27466297 46.8325315,7.33147798 46.81,7.39 C46.8053378,7.44990943 46.8053378,7.51009057 46.81,7.57 C46.8002381,7.63295717 46.8002381,7.69704283 46.81,7.76 C46.8052136,7.81990454 46.8052136,7.88009546 46.81,7.94 C46.8288602,8.00814902 46.8522454,8.07496402 46.88,8.14 C46.88,8.14 46.88,8.14 46.88,8.2 C46.88,8.26 46.94,8.26 46.96,8.3 C46.98,8.34 46.96,8.38 47.04,8.41 L50.04,11.41 C49.5318129,11.7976219 48.9091228,12.0051853 48.27,12 L48.27,12 Z"/>
        <path id="Path" fill="#3D454C" d="M37.52 9.59C36.9677153 9.59 36.52 10.0377153 36.52 10.59 36.52 11.1422847 36.9677153 11.59 37.52 11.59 38.0722847 11.59 38.52 11.1422847 38.52 10.59 38.52 10.0377153 38.0722847 9.59 37.52 9.59zM42.52 9.59C41.9677153 9.59 41.52 10.0377153 41.52 10.59 41.52 11.1422847 41.9677153 11.59 42.52 11.59 43.0722847 11.59 43.52 11.1422847 43.52 10.59 43.52 10.0377153 43.0722847 9.59 42.52 9.59z"/>
        <path id="Shape" fill="#3D454C" d="M40.64,37.2 C40.4447815,34.9299531 39.4023496,32.8165295 37.72,31.28 C29.64,23.43 17.66,19.91 9.38,19.91 C4.58,19.91 0.67,22.91 0.67,26.53 C0.67,26.53 0.67,26.61 0.67,26.65 C0.67,26.69 0.67,26.65 0.67,26.65 L0.67,32.75 C0.67,34.8 2.03,36.75 4.32,37.91 C8.10487096,39.7095919 11.1479702,42.7668286 12.93,46.56 C14.85,50.73 20.28,53.56 26.45,53.56 C34.29,53.56 40.67,49.01 40.67,43.42 L40.67,37.35 C40.6638445,37.2993074 40.6538152,37.2491607 40.64,37.2 Z M38.64,43.44 C38.64,47.93 33.16,51.58 26.42,51.58 C21.1,51.58 16.29,49.19 14.72,45.76 C12.7322768,41.5718371 9.37348868,38.1883519 5.2,36.17 C3.78651556,35.6044318 2.80145832,34.3038484 2.64,32.79 L2.64,30.79 C3.14423995,31.2313862 3.70194128,31.6076666 4.3,31.91 C7.11085064,33.3828874 9.51515092,35.5261493 11.3,38.15 C11.6175637,38.619442 12.255558,38.7425637 12.725,38.425 C13.194442,38.1074363 13.3175637,37.469442 13,37 C11.0181351,34.1048643 8.35726488,31.7392649 5.25,30.11 C3.78460327,29.475929 2.79120267,28.0820878 2.67,26.49 C2.67,23.94 5.67,21.87 9.38,21.87 C17.26,21.87 28.65,25.21 36.33,32.67 C37.7620138,33.9457377 38.6078831,35.7531506 38.67,37.67 C38.67,42.43 33.19,46.3 26.45,46.3 C23.83,46.3 20.35,45.58 18.45,43.54 C18.1891961,43.2809824 17.8100192,43.1807775 17.4553014,43.2771316 C17.1005837,43.3734856 16.8242153,43.65176 16.7303014,44.0071316 C16.6363876,44.3625031 16.7391961,44.7409825 17,45 C19,47.12 22.53,48.39 26.46,48.39 C31.66,48.39 36.2,46.29 38.68,43.17 L38.64,43.44 Z"/>
        <path id="Path" fill="#3D454C" d="M22.47 43.8C26.6891475 41.3279264 31.0613134 39.1268131 35.56 37.21 36.74 36.71 35.72 34.99 34.56 35.49 30.0594325 37.4027586 25.6870109 39.6040006 21.47 42.08 21.0552779 42.3816091 20.9359125 42.9480449 21.1936556 43.391363 21.4513987 43.8346812 22.0027084 44.0111896 22.47 43.8zM21.29 39.65C24.5078262 37.646823 27.8476656 35.8466496 31.29 34.26 32.45 33.72 31.44 31.99 30.29 32.53 26.8495872 34.1204951 23.509982 35.9205423 20.29 37.92 19.19 38.6 20.19 40.33 21.29 39.65zM19.43 35.34L27.55 31C28.69 30.38 27.68 28.66 26.55 29.27L18.42 33.65C17.29 34.23 18.3 36 19.43 35.34zM21.32 27.61C19.3198532 28.4000457 17.4118932 29.406 15.63 30.61 14.57 31.34 15.57 33.07 16.63 32.34 18.25781 31.208752 20.0049535 30.2597279 21.84 29.51 23 29.07 22.51 27.13 21.32 27.61zM15.69 25.74C14.2052058 26.3804037 12.7881586 27.1676522 11.46 28.09 10.41 28.82 11.41 30.55 12.46 29.82 13.7858683 28.8939804 15.2032983 28.1065193 16.69 27.47 17.88 27 16.86 25.23 15.69 25.74zM15.05 40C14.4977153 40 14.05 40.4477153 14.05 41 14.05 41.5522847 14.4977153 42 15.05 42 15.6022847 42 16.05 41.5522847 16.05 41 16.05 40.4477153 15.6022847 40 15.05 40zM9.45 24.38C8.89771525 24.38 8.45 24.8277153 8.45 25.38 8.45 25.9322847 8.89771525 26.38 9.45 26.38 10.0022847 26.38 10.45 25.9322847 10.45 25.38 10.45 24.8277153 10.0022847 24.38 9.45 24.38z"/>
      </g>
    </g>
  </g>
</svg>
