<svg xmlns="http://www.w3.org/2000/svg" width="64" height="64" viewBox="0 0 64 64" style="background:#fff">
  <g id="Rind" fill="none" fill-rule="evenodd" stroke="none" stroke-width="1">
    <rect width="64" height="64" fill="#FFF"/>
    <g transform="translate(2 6)">
      <rect id="Rectangle" width="60" height="60" x="0" y="0"/>
      <path id="Path" fill="#C17953" fill-rule="nonzero" d="M48.93 20.85C41.13 21.03 37.93 10.15 29.39 11.34 25.69 11.86 23.24 14.75 20.63 17.09 17.2 20.15 13.12 22.24 9.74 25.4 8.48 26.58 8.26 30.54 10.38 31.1 14.38 32.17 17.53 31.38 21.03 29.16 23.83 27.39 26.79 23.32 30.2 23.04 34.11 22.73 36.88 26.98 39.59 29.18 42.3 31.38 45.53 33.18 49.22 32.72 54.41 32.05 54.26 20.73 48.93 20.85zM41 39.2C36.92 35.47 30.43 34.95 25.4 36.78 25.1574231 36.8653917 24.9203114 36.9655798 24.69 37.08 20.28 38.57 16.69 42.08 16.96 46.88 17.58 56.89 36.41 59 42 52.47 45.17 48.84 44.47 42.39 41 39.2z" opacity=".5"/>
      <path id="Path" fill="#3D454C" fill-rule="nonzero" d="M34.38 43.11C32.7231458 43.11 31.38 44.4531458 31.38 46.11 31.38 46.6622847 31.8277153 47.11 32.38 47.11 32.9322847 47.11 33.38 46.6622847 33.38 46.11 33.38 45.5577153 33.8277153 45.11 34.38 45.11 34.9322847 45.11 35.38 45.5577153 35.38 46.11 35.38 46.6622847 35.8277153 47.11 36.38 47.11 36.9322847 47.11 37.38 46.6622847 37.38 46.11 37.38 44.4531458 36.0368542 43.11 34.38 43.11zM26.36 43.15C24.7031458 43.15 23.36 44.4931458 23.36 46.15 23.36 46.7022847 23.8077153 47.15 24.36 47.15 24.9122847 47.15 25.36 46.7022847 25.36 46.15 25.36 45.5977153 25.8077153 45.15 26.36 45.15 26.9122847 45.15 27.36 45.5977153 27.36 46.15 27.36 46.7022847 27.8077153 47.15 28.36 47.15 28.9122847 47.15 29.36 46.7022847 29.36 46.15 29.36 44.4931458 28.0168542 43.15 26.36 43.15L26.36 43.15zM30.38 36.11C27.6779896 36.0230132 25.0177245 36.79309 22.78 38.31 22.3354108 38.6468937 22.2481063 39.2804108 22.585 39.725 22.9218937 40.1695892 23.5554108 40.2568937 24 39.92 25.8929022 38.6570377 28.1360844 38.0236274 30.41 38.11 32.6807833 38.023693 34.9207645 38.6571877 36.81 39.92 37.0234045 40.0780723 37.290922 40.1447649 37.5535555 40.1053699 37.816189 40.0659749 38.0523655 39.9237281 38.21 39.71 38.3680723 39.4965955 38.4347649 39.229078 38.3953699 38.9664445 38.3559749 38.703811 38.2137281 38.4676345 38 38.31 35.7569905 36.7883883 33.0888635 36.0180629 30.38 36.11L30.38 36.11z"/>
      <path id="Shape" fill="#3D454C" fill-rule="nonzero" d="M47,21.29 C50.81,18.71 54.41,14.13 54.41,10.11 C54.3642007,9.02496718 53.4950328,8.15579934 52.41,8.11 C50.7047197,8.29496143 49.0475435,8.78974206 47.52,9.57 C44.4267055,11.0607794 41.068749,11.9240597 37.64,12.11 C35.4382886,10.8417444 32.9504937,10.1535577 30.41,10.11 C27.8661054,10.1518684 25.3746627,10.8401122 23.17,12.11 C19.741251,11.9240597 16.3832945,11.0607794 13.29,9.57 C11.7570529,8.78550627 10.0925293,8.29055628 8.38,8.11 C7.29289487,8.15106618 6.42106618,9.02289487 6.38,10.11 C6.38,14.11 9.98,18.71 13.79,21.29 L7.67,27.41 C7.346465,27.7343066 7.28466096,28.2369794 7.52,28.63 C9.07364546,30.872452 11.652843,32.1808496 14.38,32.11 L16.45,32.11 C16.807901,33.847208 17.3964477,35.52877 18.2,37.11 C18.6100508,37.9639885 18.9673871,38.842301 19.27,39.74 C17.4344115,41.3439176 16.3808912,43.6623913 16.38,46.1 C16.38,51.62 22.66,56.1 30.38,56.1 C38.1,56.1 44.38,51.62 44.38,46.1 C44.3751971,43.6632408 43.3223759,41.3463055 41.49,39.74 C41.7882444,38.8406839 42.1456925,37.9620965 42.56,37.11 C43.3647141,35.5302308 43.9501133,33.8480491 44.3,32.11 L46.38,32.11 C49.1048931,32.1829567 51.6820332,30.8736942 53.23,28.63 C53.465339,28.2369794 53.403535,27.7343066 53.08,27.41 L47,21.29 Z M46.41,30.11 L43.41,30.11 C42.8577153,30.11 42.41,30.5577153 42.41,31.11 C42.41,32.67 41.53,34.6 40.76,36.3 C40.1583016,37.4746756 39.6984068,38.7167272 39.39,40 C39.3297256,40.3534199 39.4632629,40.7120631 39.74,40.94 C41.3912497,42.168586 42.368999,44.101863 42.38,46.16 C42.38,50.58 36.99,54.16 30.38,54.16 C23.77,54.16 18.38,50.58 18.38,46.16 C18.3689294,44.0874185 19.340939,42.1322694 21,40.89 C21.2767371,40.6620631 21.4102744,40.3034199 21.35,39.95 C21.0487708,38.6833648 20.5954806,37.4578025 20,36.3 C19.1274684,34.6903699 18.5708041,32.9287309 18.36,31.11 C18.36,30.5577153 17.9122847,30.11 17.36,30.11 L14.36,30.11 C12.6032706,30.1515477 10.90949,29.4551754 9.69,28.19 L15.8,22.1 C20.12,21.84 22.38,17.61 22.38,16.1 C22.38,15.5477153 21.9322847,15.1 21.38,15.1 C20.8277153,15.1 20.38,15.5477153 20.38,16.1 C20.38,16.65 18.84,19.92 15.63,20.1 C12.1,17.99 8.38,13.66 8.38,10.1 C9.81167696,10.3121829 11.1996034,10.7545634 12.49,11.41 C15.8957478,13.047795 19.6033751,13.9636368 23.38,14.1 C23.5371322,14.1041815 23.6925163,14.0661987 23.83,13.99 C25.815871,12.8104395 28.0710003,12.1597228 30.38,12.1 C32.6867602,12.1626781 34.9387381,12.8169225 36.92,14 C37.061127,14.0761277 37.2197006,14.1140475 37.38,14.11 C41.1536347,13.9751426 44.8583007,13.0591912 48.26,11.42 C49.5532405,10.7628826 50.944734,10.3204417 52.38,10.11 C52.38,13.66 48.66,17.99 45.12,20.11 C41.92,19.94 40.41,16.67 40.38,16.11 C40.38,15.5577153 39.9322847,15.11 39.38,15.11 C38.8277153,15.11 38.38,15.5577153 38.38,16.11 C38.38,17.61 40.64,21.84 44.95,22.11 L51,28.19 C49.7952076,29.4463764 48.1203897,30.1424047 46.38,30.11 L46.41,30.11 Z"/>
      <path id="Path" fill="#3D454C" fill-rule="nonzero" d="M25.77 27.58C26.3222847 27.58 26.77 27.1322847 26.77 26.58 26.77 26.0277153 26.3222847 25.58 25.77 25.58 25.2177153 25.58 24.77 26.0277153 24.77 26.58 24.77 27.1322847 25.2177153 27.58 25.77 27.58zM35.37 27.58C35.9222847 27.58 36.37 27.1322847 36.37 26.58 36.37 26.0277153 35.9222847 25.58 35.37 25.58 34.8177153 25.58 34.37 26.0277153 34.37 26.58 34.37 27.1322847 34.8177153 27.58 35.37 27.58z"/>
    </g>
  </g>
</svg>
