<svg xmlns="http://www.w3.org/2000/svg" width="64" height="64" viewBox="0 0 64 64" style="background:#fff">
  <g id="Rinderbrühe" fill="none" fill-rule="evenodd" stroke="none" stroke-width="1">
    <rect width="64" height="64" fill="#FFF"/>
    <g transform="translate(2 7)">
      <rect id="Rectangle" width="60" height="60" x="0" y="0"/>
      <path id="Path" fill="#EBE53F" fill-rule="nonzero" d="M33.3,29.27 C31.3,26.01 26.93,26 23.41,25.77 C19.54,25.51 14.66,24.34 11.55,26.92 C10.25,27.99 10.48,30.64 11.66,31.69 C14.66,34.33 19.77,33.46 23.6,33.43 C27.04,33.43 31.35,33.64 33.33,30.43 C33.523944,30.064787 33.5125624,29.6246999 33.3,29.27 Z" opacity=".5"/>
      <path id="Path" fill="#E0A075" fill-rule="nonzero" d="M52.69,11.76 C51.7002514,11.3215441 50.6210075,11.1228262 49.54,11.18 C49.277818,11.2148238 49.012182,11.2148238 48.75,11.18 L48.75,11.18 C48.41,9.68 47.42,8.08 45.88,8.11 C45.2388051,8.12893366 44.6371435,8.42429481 44.23,8.92 L44.11,8.92 C43.4,9.09 42.92,10.29 42.87,10.92 C42.6911776,12.0851187 42.815152,13.2766505 43.23,14.38 L43.32,14.56 C43.4756,15.261303 43.735133,15.9354148 44.09,16.56 C43.97,16.76 43.76,17.03 43.45,17.45 C40.65,21.17 37.37,24.64 34.96,28.64 C33.8,30.56 35.18,37.34 38.08,34.44 C39.9409428,32.4127944 41.6615944,30.2611445 43.23,28 C44.93,25.79 47.07,23.48 48.23,21 C48.5523512,20.38834 48.8103982,19.7448981 49,19.08 C51.2235412,18.7969252 53.070549,17.228341 53.71,15.08 C54.1961949,13.8712992 53.7709668,12.4872234 52.69,11.76 L52.69,11.76 Z" opacity=".5"/>
      <path id="Path" fill="#3D454C" fill-rule="nonzero" d="M29.93 16.140017C30.3362651 16.1423626 30.70358 15.8986962 30.859371 15.5234815 31.0151619 15.1482668 30.9284599 14.7160905 30.64 14.43 30.1052221 13.8667883 29.7834371 13.1348156 29.73 12.36 29.7966375 11.807852 30.0994196 11.311727 30.56 11 31.4813715 10.3264939 32.0564416 9.27891402 32.13 8.14 32.1073589 6.81223094 31.5736848 5.54430714 30.64 4.6 30.4522334 4.41068735 30.1966375 4.30420168 29.93 4.30420168 29.6633625 4.30420168 29.4077666 4.41068735 29.22 4.6 28.8322764 4.99003745 28.8322764 5.61996255 29.22 6.01 29.740881 6.5545055 30.0616879 7.25957565 30.13 8.01 30.0616093 8.56960659 29.760211 9.07435804 29.3 9.4 28.3854008 10.0749847 27.8117955 11.1162428 27.73 12.25 27.7500886 13.593014 28.283189 14.8774641 29.22 15.84 29.4070714 16.0308556 29.6627541 16.1388906 29.93 16.140017zM36.46 18.88C36.6446002 19.0276472 36.8736206 19.1086852 37.11 19.11 37.5268731 19.1058869 37.8974569 18.8435854 38.0399273 18.4517917 38.1823977 18.0599981 38.0668592 17.6209249 37.75 17.35 37.446863 17.0905405 37.2362822 16.7395724 37.15 16.35 37.15 16.1 37.44 15.86 37.67 15.7 38.4654435 15.2383291 38.9846158 14.4166175 39.06 13.5 39.024947 12.4749548 38.5470431 11.5154988 37.75 10.87 37.4749055 10.64135 37.0987244 10.5768299 36.7631604 10.7007437 36.4275965 10.8246576 36.1836299 11.1181799 36.1231604 11.4707437 36.062691 11.8233076 36.1949055 12.18135 36.47 12.41 36.63 12.54 37.08 13.04 37.06 13.41 37.04 13.78 36.77 13.89 36.55 14.05 35.7520945 14.5091098 35.232014 15.3322588 35.16 16.25 35.2064388 17.2698986 35.677914 18.2237293 36.46 18.88L36.46 18.88zM20.68 18.88C20.8646002 19.0276472 21.0936206 19.1086852 21.33 19.11 21.7523801 19.1185839 22.1345871 18.860807 22.2848902 18.4659809 22.4351933 18.0711549 22.3211624 17.6244692 22 17.35 21.84 17.21 21.38 16.69 21.4 16.35 21.42 16.01 21.69 15.86 21.92 15.7 22.7154435 15.2383291 23.2346158 14.4166175 23.31 13.5 23.2864975 12.4608378 22.8074778 11.4845151 22 10.83 21.5747407 10.4765378 20.9434622 10.5347407 20.59 10.96 20.2365378 11.3852593 20.2947407 12.0165378 20.72 12.37 20.88 12.5 21.33 13 21.31 13.37 21.29 13.74 21.02 13.85 20.79 14.01 19.9971676 14.4727694 19.4815404 15.2947838 19.41 16.21 19.4377783 17.2392939 19.899012 18.2089744 20.68 18.88L20.68 18.88z"/>
      <path id="Shape" fill="#3D454C" fill-rule="nonzero" d="M54.35,11.3 C53.4547917,10.4524835 52.2188062,10.0650851 51,10.25 C50.7105636,10.2973209 50.4260502,10.3709597 50.15,10.47 C50.0911908,10.180023 50.0075492,9.89564166 49.9,9.62 C49.4250641,8.48077928 48.4508044,7.62461173 47.26,7.3 C45.6932534,6.91638976 44.0442172,7.4505846 43,8.68 C41.7667166,10.0422513 41.4602417,12.0068342 42.22,13.68 C42.6504483,14.507362 42.6504483,15.492638 42.22,16.32 L38.22,23.41 C35.49,23.22 32.22,23.11 29.22,23.11 C12.71,23.11 4.33,25.18 4.33,29.28 C4.27,29.5 4.45,47.77 20,53 C21,54.59 21.61,54.75 21.82,54.8 C24.2387067,55.38885 26.7207083,55.6776891 29.21,55.66 C31.6515756,55.6819973 34.086568,55.4032327 36.46,54.83 C37.3088328,54.4315081 38.0242581,53.7959603 38.52,53 C41.1613691,51.966919 43.6117216,50.5000873 45.77,48.66 C46.1924978,48.3037763 46.2462237,47.6724978 45.89,47.25 C45.5337763,46.8275022 44.9024978,46.7737763 44.48,47.13 C42.4403636,48.8887184 40.1039099,50.2702736 37.58,51.21 C37.3768515,51.279688 37.2015363,51.4129275 37.08,51.59 C36.7409606,52.0790051 36.3558694,52.5344173 35.93,52.95 C33.7124116,53.4774241 31.4393903,53.7359509 29.16,53.72 C26.8772826,53.736463 24.6008905,53.4779347 22.38,52.95 C22.032659,52.5708389 21.7275358,52.1550665 21.47,51.71 C21.3460947,51.5014854 21.1506276,51.3451117 20.92,51.27 C10.29,47.82 7.38,37.67 6.58,32.47 C10.1,34.47 17.6266667,35.47 29.16,35.47 C34.98,35.47 46.82,35.11 51.78,32.32 C51.3346332,35.4991832 50.3612332,38.5816167 48.9,41.44 C48.6433512,41.9287869 48.8313543,42.5330824 49.32,42.79 C49.4623316,42.8629218 49.6200767,42.9006435 49.78,42.9 C50.1521807,42.9027242 50.4950804,42.6985255 50.67,42.37 C52.743132,38.3145348 53.8971597,33.852067 54.05,29.3 C54.05,27.35 51.61,25.79 46.81,24.65 L46.75,24.65 L49.26,20.35 C49.741481,19.5612783 50.5777081,19.0573021 51.5,19 C53.3384134,18.7913894 54.8739925,17.5038654 55.4,15.73 C55.9295463,14.1742119 55.5214912,12.4526077 54.35,11.3 Z M6.27,29.3 L6.27,29.3 C6.27,27.75 11.09,25.13 29.16,25.13 C31.79,25.13 34.58,25.21 37.04,25.36 L35.58,28 C33.67,27.92 30.88,27.84 29.16,27.84 C22.29,27.84 12.99,28.26 7.72,30.24 C7.53316529,30.3151893 7.37541901,30.4483973 7.27,30.62 C6.56,30.13 6.27,29.69 6.27,29.31 L6.27,29.3 Z M9.75,31.64 C13.87,30.44 20.53,29.8 29.16,29.8 C30.56,29.8 32.7,29.86 34.47,29.92 L32.47,33.43 C31.4,33.43 30.31,33.43 29.15,33.43 C19,33.48 13,32.65 9.75,31.65 L9.75,31.64 Z M43.23,30.64 C44.8464001,30.8890892 46.4486059,31.2228821 48.03,31.64 C46.0504357,32.1708453 44.0352287,32.5585136 42,32.8 L43.23,30.64 Z M46.35,26.59 C51,27.69 52.05,28.94 52.05,29.29 C52.05,29.64 51.64,30.14 50.85,30.58 C50.7474186,30.4625253 50.6166568,30.3730568 50.47,30.32 C48.4663098,29.6391981 46.4091196,29.1274094 44.32,28.79 L45.81,26.23 C45.9417825,26.4141544 46.1321666,26.5481284 46.35,26.61 L46.35,26.59 Z M53.49,15.07 C53.2279347,16.0995488 52.3637222,16.8646543 51.31,17 C49.7320557,17.1378828 48.3208646,18.0376105 47.53,19.41 L39.53,33.1 C38.1,33.23 36.53,33.33 34.84,33.41 L39.47,25.21 C39.5908282,25.092023 39.6772527,24.9433729 39.72,24.78 L43.91,17.37 C44.6777347,15.9803214 44.7151031,14.3024812 44.01,12.88 C43.5682534,11.9151133 43.7496716,10.7792775 44.47,10 C45.0206864,9.34180468 45.8920091,9.04493808 46.73,9.23 C47.3254022,9.39230586 47.812532,9.82038964 48.05,10.39 C48.2585058,10.901658 48.2901809,11.4682912 48.14,12 C47.9928344,12.1847656 47.8623244,12.3822038 47.75,12.59 C47.6204126,12.8213777 47.588039,13.0947547 47.66,13.35 C47.7313187,13.6042022 47.9002709,13.8198859 48.13,13.95 L48.26,14.02 C48.7405947,14.289731 49.3488284,14.1197834 49.62,13.64 C49.73,13.43 49.83,13.22 49.92,13 C50.289851,12.6150238 50.7736386,12.3591072 51.3,12.27 C51.9102524,12.1746162 52.5303396,12.3665479 52.98,12.79 C53.5595441,13.4047992 53.755352,14.2878543 53.49,15.09 L53.49,15.07 Z"/>
      <path id="Path" fill="#3D454C" fill-rule="nonzero" d="M47.7,44.11 L47.57,44.11 C47.0177153,44.11 46.57,44.5577153 46.57,45.11 C46.57,45.6622847 47.0177153,46.11 47.57,46.11 L47.7,46.11 C48.2522847,46.11 48.7,45.6622847 48.7,45.11 C48.7,44.5577153 48.2522847,44.11 47.7,44.11 Z"/>
    </g>
  </g>
</svg>
