<svg xmlns="http://www.w3.org/2000/svg" width="64" height="64" viewBox="0 0 64 64" style="background:#fff">
  <g id="Rind-(Hüfte)" fill="none" fill-rule="evenodd" stroke="none" stroke-width="1">
    <rect width="64" height="64" fill="#FFF"/>
    <g transform="translate(2 4)">
      <g id="Layer_2">
        <rect id="Rectangle" width="60" height="60" x="0" y="0"/>
        <rect id="Rectangle" width="60" height="60" x="0" y="0"/>
      </g>
      <g id="Layer_1" fill-rule="nonzero" transform="translate(6 4)">
        <path id="Path" fill="#E05362" d="M23.89,24.32 C20.03,19.75 13.89,17.46 9.49,13.32 C7.59,11.54 7.08,15.67 7.39,16.68 C8.48128264,19.7192884 10.4951596,22.341524 13.15,24.18 C13.78,24.65 21.46,30.31 20.99,30.57 C18.06,32.17 19.16,40.05 22.58,38.29 C27.86,35.63 27.25,28.3 23.89,24.32 Z" opacity=".5"/>
        <path id="Path" fill="#4885E0" d="M26.34,48.63 C25.7220423,45.9766694 24.184513,43.6278631 22,42 C20,40.55 16.49,38.57 14.73,41.32 C13.8094486,42.8272245 13.8094486,44.7227755 14.73,46.23 C15.51,47.56 16.79,47.96 18.14,48.51 C20.25,49.37 21.58,50.87 23.33,52.24 C25.57,54 26.69,50.2 26.34,48.63 Z" opacity=".5"/>
        <path id="Path" fill="#E05362" d="M15.65,32.32 L10.46,25 C9.28524354,23.1551816 7.99255248,21.3881698 6.59,19.71 C6.68,19.29 6.76,18.89 6.8,18.53 C6.95,17.33 6.31,14.03 4.34,14.98 C-0.24,17.18 -0.43,25.88 0.53,30.12 C1.97,36.47 7.53,38.19 12.7,40.66 C16.88,42.62 17,34.28 15.65,32.32 Z" opacity=".5"/>
        <g id="Group" fill="#C17953" opacity=".5" transform="translate(23 2)">
          <path id="Path" d="M10.73,1 C10.1021343,0.257501982 9.04514449,0.0461040196 8.18,0.49 C7.25,1 7,2 6.39,2.79 C5.25,4.42 3.67,4.79 1.96,5.43 C-0.3,6.28 0.33,11.12 2.61,11.43 C4.18765708,11.5191992 5.7450719,11.0402676 7,10.08 C7.22,9.93 7.41,9.77 7.61,9.61 C7.4875985,9.97958948 7.39070422,10.3571431 7.32,10.74 C6.99,12.74 8.32,16.57 10.75,14.74 C12.54,13.34 12.9,9.88 12.87,7.74 C12.84,5.6 12.33,2.53 10.73,1 Z"/>
        </g>
        <g id="Group" fill="#C17953" opacity=".5" transform="translate(38 2)">
          <path id="Path" d="M12.66,7.68 C12.41,5.78 10.59,5.24 9.03,4.43 C7.8793578,3.86280526 6.97082804,2.90104133 6.47,1.72 C6.22835633,0.887832128 5.52841417,0.269684192 4.67275539,0.132778788 C3.81709662,-0.00412661613 2.9592271,0.36477145 2.47,1.08 C-0.228762761,4.65803152 -0.659216764,9.45895093 1.36,13.46 C2.02,14.77 3.56,15.91 4.99,14.7 C6.2132545,13.4286928 6.58076967,11.5598391 5.93,9.92 C6.43936854,10.2582287 6.98223581,10.5430665 7.55,10.77 C10.23,11.85 13.06,10.75 12.66,7.68 Z"/>
        </g>
        <path id="Path" fill="#3D454C" d="M39.21 18.34C38.1054305 18.34 37.21 19.2354305 37.21 20.34 37.21 20.9143761 37.6756239 21.38 38.25 21.38 38.8243761 21.38 39.29 20.9143761 39.29 20.34 39.29 20.8922847 39.7377153 21.34 40.29 21.34 40.8422847 21.34 41.2900006 20.8922847 41.2900006 20.34 41.2904359 19.7954107 41.0687762 19.2741929 40.6762181 18.8967332 40.28366 18.5192735 39.7541536 18.3182162 39.21 18.34L39.21 18.34zM34.62 18.35C33.5265352 18.3763599 32.6463599 19.2565352 32.62 20.35 32.62 20.9271376 33.0878624 21.395 33.665 21.395 34.2421376 21.395 34.71 20.9271376 34.71 20.35 34.71 20.9022847 35.1577153 21.35 35.71 21.35 36.2622847 21.35 36.71 20.9022847 36.71 20.35 36.6826928 19.2216598 35.7484492 18.3276468 34.62 18.35z"/>
        <path id="Shape" fill="#3D454C" d="M46.31,7.48 C48.2,6 49.92,3.76 49.92,1.6 C49.8989621,0.769397428 49.2306026,0.101037945 48.4,0.08 C47.4461381,0.174065773 46.5175252,0.441804527 45.66,0.87 C44.141139,1.60736929 42.4944899,2.04534397 40.81,2.16 C39.6173749,1.50657454 38.279894,1.16274912 36.92,1.16 C35.5605921,1.16654101 34.2240279,1.51013079 33.03,2.16 C31.3425111,2.04414926 29.6928108,1.60626587 28.17,0.87 C27.316476,0.44063821 26.3909166,0.172802347 25.44,0.08 C24.6093974,0.101037945 23.9410379,0.769397428 23.92,1.6 C23.92,3.76 25.63,6.04 27.53,7.48 L24.73,10.28 C24.4046629,10.6083658 24.3467786,11.1169203 24.59,11.51 C25.5028574,12.8061028 27.0054033,13.5573758 28.59,13.51 L29.28,13.51 C29.4902819,14.3173634 29.7817684,15.1013615 30.15,15.85 C30.31,16.21 30.48,16.57 30.59,16.85 C29.6700327,17.7617453 29.1548034,19.004781 29.16,20.3 C29.16,23.44 32.65,26 36.94,26 C41.23,26 44.72,23.44 44.72,20.3 C44.7259637,19.0026521 44.206515,17.7581394 43.28,16.85 C43.4,16.53 43.57,16.16 43.73,15.8 C44.0999206,15.0555637 44.3914863,14.2747041 44.6,13.47 L45.29,13.47 C46.8745967,13.5173758 48.3771426,12.7661028 49.29,11.47 C49.5306456,11.0746861 49.4685978,10.565894 49.14,10.24 L46.31,7.48 Z M36.92,24.08 C33.78,24.08 31.14,22.38 31.14,20.38 C31.1438938,19.4445205 31.5839527,18.5644027 32.33,18 C32.399903,17.946843 32.4606964,17.8826722 32.51,17.81 C32.7026174,17.8065315 32.8901329,17.7474988 33.05,17.64 C34.2339547,16.860653 35.6340242,16.4756339 37.05,16.54 C38.4662075,16.4735576 39.8669079,16.8587502 41.05,17.64 C41.1611935,17.7178967 41.2870843,17.772336 41.42,17.8 C41.4717448,17.8736579 41.5321808,17.9408091 41.6,18 C42.3442654,18.5580685 42.787534,19.4298301 42.8,20.36 C42.7,22.38 40.05,24.08 36.92,24.08 Z M45.27,11.55 L43.7,11.55 C43.1477153,11.55 42.7,11.9977153 42.7,12.55 C42.5861801,13.4292535 42.3116125,14.280074 41.89,15.06 L41.59,15.73 C38.6822533,14.1462406 35.1636034,14.1726966 32.28,15.8 C32.17,15.56 32.07,15.31 31.95,15.06 C31.5283875,14.280074 31.2538199,13.4292535 31.14,12.55 C31.14,11.9977153 30.6922847,11.55 30.14,11.55 L28.57,11.55 C27.9491213,11.5579548 27.3422984,11.3650342 26.84,11 L29.79,8 L29.79,8 C29.8541959,7.93898483 29.9082124,7.86808816 29.95,7.79 C29.95,7.79 29.95,7.79 29.95,7.73 C29.95,7.67 30,7.6 30.02,7.54 C30.0248203,7.47675839 30.0248203,7.41324161 30.02,7.35 C30.0298848,7.29040712 30.0298848,7.22959288 30.02,7.17 C30.0179271,7.11288683 30.0112386,7.05603485 30,7 C29.9793988,6.94384358 29.9525644,6.89017482 29.92,6.84 C29.889295,6.77655423 29.8524526,6.71626672 29.81,6.66 C29.81,6.66 29.81,6.66 29.81,6.66 C29.7773019,6.63094854 29.7401658,6.60731645 29.7,6.59 C29.7,6.59 29.64,6.52 29.6,6.5 C27.9131779,5.54738682 26.6328155,4.01095195 26,2.18 C26.4793712,2.3345063 26.9500555,2.51476838 27.41,2.72 C29.2476477,3.59624681 31.2454652,4.08634174 33.28,4.16 C33.4365423,4.15906142 33.5906777,4.12138386 33.73,4.05 C35.6852442,2.81724135 38.1747558,2.81724135 40.13,4.05 C40.2693223,4.12138386 40.4234577,4.15906142 40.58,4.16 C42.6115373,4.08781604 44.6063842,3.59761475 46.44,2.72 C46.9039536,2.51624088 47.377889,2.33601193 47.86,2.18 C47.2160764,3.9970392 45.9376864,5.52045402 44.26,6.47 C44.26,6.47 44.2,6.53 44.16,6.55 L44.05,6.63 C44.05,6.63 44.05,6.63 44.05,6.63 C44.0098457,6.68433227 43.9731082,6.74110846 43.94,6.8 C43.909268,6.85466297 43.8825315,6.91147798 43.86,6.97 C43.8543125,7.03320564 43.8543125,7.09679436 43.86,7.16 C43.8501152,7.21959288 43.8501152,7.28040712 43.86,7.34 C43.8552136,7.39990454 43.8552136,7.46009546 43.86,7.52 C43.8772882,7.58863102 43.900716,7.6555675 43.93,7.72 C43.93,7.72 43.93,7.72 43.93,7.78 C43.93,7.84 43.99,7.84 44.01,7.88 C44.03,7.92 44,8 44,8 L47,11 C46.4977016,11.3650342 45.8908787,11.5579548 45.27,11.55 L45.27,11.55 Z"/>
        <path id="Path" fill="#3D454C" d="M34.52 9.19C33.9677153 9.19 33.52 9.63771525 33.52 10.19 33.52 10.7422847 33.9677153 11.19 34.52 11.19 35.0722847 11.19 35.52 10.7422847 35.52 10.19 35.52 9.63771525 35.0722847 9.19 34.52 9.19zM39.52 9.19C38.9677153 9.19 38.52 9.63771525 38.52 10.19 38.52 10.7422847 38.9677153 11.19 39.52 11.19 40.0722847 11.19 40.52 10.7422847 40.52 10.19 40.52 9.63771525 40.0722847 9.19 39.52 9.19z"/>
        <path id="Shape" fill="#3D454C" d="M20.53,23 C16.43,20.78 12.32,15.75 12.32,15.75 C11.63,14.75 9.81,12.51 7.86,12.98 C7.48370792,13.0538799 7.13658828,13.2343821 6.86,13.5 C2.96,14.1 0.77,17.39 0.36,23.28 L0.36,23.76 C-1.66533454e-16,29.14 -0.34,33.81 4.83,37.26 C9.37,40.26 12.38,42.31 15.83,46.48 C20.56,52.18 22.93,53.08 24.1,53.08 C24.3625979,53.0757782 24.6227223,53.0284828 24.87,52.94 C25.99,52.56 26.61,51.41 26.71,49.5 C26.615304,47.9594937 26.0141298,46.4934723 25,45.33 C24.38493,44.5911622 23.9531945,43.7174116 23.74,42.78 C23.7148524,41.8234232 24.1138397,40.9046543 24.83,40.27 C25.9376488,39.1692006 26.504587,37.6366385 26.38,36.08 C26.7884148,35.2527889 27.0005781,34.3425402 27.0000012,33.42 C26.8750433,29.0356066 24.4042536,25.056375 20.53,23 Z M10.72,17 C10.9,17.22 15.12,22.4 19.58,24.81 C22.771315,26.5311851 24.8279098,29.7982112 25,33.42 C25.125643,34.9087229 24.2293668,36.2942508 22.82,36.79 C20.3352478,37.5367036 17.6412951,36.8478214 15.82,35 C13.82,32.76 12.39,29.19 11.13,26 C10.73,25 10.34,24 9.95,23.13 C9.73,22.63 9.47,22.13 9.21,21.59 C8.37,19.89 7.5,18.14 7.73,16.4 C7.89,15.21 8.23,14.88 8.34,14.85 L8.41,14.85 C8.79,14.88 9.71,15.47 10.72,16.92 L10.72,17 Z M24.72,49.48 C24.66,50.67 24.38,51.08 24.24,51.12 C23.7,51.32 21.56,50.32 17.38,45.28 C13.74,40.89 10.47,38.7 5.95,35.68 C1.74,32.79 2,29.05 2.36,23.87 L2.36,23.39 C2.64,19.3 3.73,16.86 5.75,15.87 C5.75,15.97 5.75,16.07 5.75,16.17 C5.43,18.52 6.49,20.65 7.42,22.52 C7.67,23.01 7.91,23.52 8.12,23.98 C8.5,24.84 8.88,25.8 9.28,26.79 C10.6,30.09 12.09,33.79 14.28,36.33 C15.9894464,38.1232713 18.3625272,39.1325542 20.84,39.12 C21.7545546,39.1284952 22.6629132,38.9691936 23.52,38.65 L23.61,38.65 L23.3,39.03 C22.2520103,40.061962 21.6921189,41.4907757 21.76,42.96 C21.969023,44.2612932 22.5213378,45.4832895 23.36,46.5 C24.0909838,47.3091824 24.5614007,48.3197075 24.71,49.4 L24.72,49.48 Z"/>
        <path id="Shape" fill="#3D454C" d="M18.5,34.54 C20.1816744,34.9622766 21.8873226,33.9415737 22.31,32.26 C22.92,30.45 21.85,28.55 20.5,27.39 C19.15,26.23 17.14,25.29 15.67,26.44 C15.457588,26.5943238 15.2887722,26.801037 15.18,27.04 C13.82,29.48 16.05,33.72 18.5,34.54 Z M19.68,29.39 C20.38,30.2 21.07,32.08 19.61,32.64 C18.73,32.99 17.84,31.54 17.51,30.93 C17.18,30.32 16.41,28.62 16.83,28.09 C17.55,27.34 19.24,28.88 19.68,29.39 Z"/>
      </g>
    </g>
  </g>
</svg>
