<svg xmlns="http://www.w3.org/2000/svg" width="64" height="64" viewBox="0 0 64 64" style="background:#fff">
  <g id="Risottoreis" fill="none" fill-rule="evenodd" stroke="none" stroke-width="1">
    <rect width="64" height="64" fill="#FFF"/>
    <g id="25-Risottoreis" transform="translate(2 6)">
      <rect id="Rectangle" width="60" height="60" x="0" y="0"/>
      <g id="Group" fill="#CCC" opacity=".5" transform="translate(6 7)">
        <path id="Path" d="M8.88 7.59L7.79 4.59 7.23 3.06C7.02164184 2.29778789 6.64199314 1.59321462 6.12 1 5.15315996.0787909908 3.69380194-.0924186091 2.54.58 1.61282375 1.21586803 1.05612673 2.26574629 1.05 3.39 1.04444732 4.00137126 1.10479573 4.61156074 1.23 5.21 1.31235382 5.64746066 1.43624825 6.07606843 1.6 6.49 2.06332168 7.77499284 2.80816772 8.94009605 3.78 9.9 4.04836811 10.158179 4.36887749 10.3559401 4.72 10.48L4.85 10.59C5.08784742 10.8115208 5.38180872 10.963689 5.7 11.03 6.02708351 11.1212858 6.37291649 11.1212858 6.7 11.03 7.03085354 11.0127918 7.3514571 10.9093712 7.63 10.73L8.14 10.34C8.44465065 10.0346806 8.66512761 9.65573583 8.78 9.24L8.78 9.09C8.9851299 8.61644796 9.0204537 8.08659095 8.88 7.59L8.88 7.59zM20 10.72C19.57 9.58 19.13 8.44 18.69 7.3 18.6213374 6.98264974 18.4694764 6.68928193 18.25 6.45 18.0742127 6.17753268 17.829187 5.95666448 17.54 5.81 17.2686147 5.62350564 16.949155 5.51933396 16.62 5.51 16.2920444 5.42532223 15.9479556 5.42532223 15.62 5.51 14.9911481 5.6870347 14.4542281 6.09867341 14.12 6.66 13.7815927 7.24390286 13.6915355 7.93914483 13.87 8.59L15.18 12.01C15.2562766 12.3266132 15.4110322 12.6189292 15.63 12.86 15.8019207 13.1320775 16.0436462 13.3530837 16.33 13.5 16.6077213 13.6811006 16.9288026 13.7846752 17.26 13.8 17.5918083 13.8730417 17.9371325 13.8557755 18.26 13.75 18.8839473 13.5740679 19.4170114 13.1662202 19.75 12.61 20.087306 12.0403566 20.1775975 11.3577523 20 10.72L20 10.72zM9.06 17.76C8.94632704 17.5904742 8.81565006 17.4329916 8.67 17.29 8.66141646 17.1683741 8.64132666 17.0478353 8.61 16.93 8.22218775 15.6123669 6.86042358 14.8386372 5.53 15.18 3.92996414 15.6691976 2.57086447 16.7393548 1.72 18.18.816506882 19.7678486.624091425 21.6629593 1.19 23.4 1.48065227 24.3143547 1.98846515 25.1446974 2.67 25.82 3.49850692 26.6027109 4.58130437 27.060681 5.72 27.11 7.85559104 27.0789159 9.6604371 25.5186518 10 23.41 10.4387485 21.4762415 10.1012287 19.4475322 9.06 17.76L9.06 17.76zM21.15 22.79C20.9567141 22.1694262 20.5491133 21.6377729 20 21.29 19.7866163 21.1742199 19.5575641 21.0900095 19.32 21.04 19.1312874 20.7814806 18.8891359 20.5666137 18.61 20.41 18.0284664 20.0753797 17.3378314 19.9854532 16.69 20.16 16.0741205 20.3622623 15.5452227 20.7677506 15.19 21.31 14.4544496 22.350788 13.8968634 23.5065121 13.54 24.73 12.9391778 26.3086328 12.960625 28.0565844 13.6 29.62 14.0740063 30.5376099 14.9145719 31.2114512 15.9133236 31.4744812 16.9120754 31.7375113 17.9755078 31.5651045 18.84 31 20.0996652 30.0786802 20.9896041 28.7384535 21.35 27.22 21.7384032 25.7576777 21.6685926 24.2113744 21.15 22.79zM9.56 33.57C9.56 33.57 9.48 33.51 9.44 33.47L9.44 33.47C9.06568563 32.1417328 7.69264899 31.3615983 6.36 31.72 5.73847485 31.9064012 5.20779649 32.3159852 4.87 32.87L4.87 32.87C4.59420729 33.1657414 4.29305811 33.4367757 3.97 33.68L4.47 33.29C3.46309128 33.9312828 2.63691581 34.8194214 2.07 35.87 1.90313252 36.1866372 1.77552294 36.5224519 1.69 36.87 1.57013227 37.4606464 1.57013227 38.0693536 1.69 38.66L1.75 38.9C1.84178598 39.1736677 1.95896277 39.4381525 2.1 39.69 2.26768889 40.001749 2.48753387 40.2824741 2.75 40.52 3.81945071 41.4652669 5.29348901 41.8074543 6.67 41.43 7.26232057 41.2753817 7.81469069 40.9957869 8.29 40.61 8.81530958 40.2170111 9.24586159 39.7112833 9.55 39.13 9.85172198 38.5537846 10.0577435 37.9323426 10.16 37.29 10.2661442 36.6284665 10.3229674 35.959958 10.33 35.29 10.2993933 34.6400858 10.0243631 34.0257326 9.56 33.57L9.56 33.57z"/>
      </g>
      <path id="Path" fill="#CCC" d="M47.61,42.47 C47.928267,39.4955574 46.5283468,36.5987698 44,35 C42.508019,34.0744312 40.7094616,33.7794678 39,34.18 C37.1529695,34.7343419 35.6977865,36.163339 35.11,38 C34.97,38.36 34.85,38.73 34.74,39.12 C34.2184872,40.1270394 33.9865546,41.2590089 34.07,42.39 C34.1566464,43.417709 34.4745754,44.4125191 35,45.3 C35.2032962,45.8551411 35.4754201,46.3825912 35.81,46.87 C37.6648021,49.6656652 41.2734795,50.7033717 44.33,49.32 C46.756891,47.9553459 48.0684574,45.2162515 47.61,42.47 L47.61,42.47 Z" opacity=".5"/>
      <path id="Shape" fill="#3D454C" fill-rule="nonzero" d="M14.88 39.38C12.41 38.19 10.38 40.31 9.12 42.22 8.04292849 43.873359 7.77789197 45.927392 8.4 47.8 8.69692569 48.6304088 9.36155813 49.2765792 10.2 49.55 11.1685638 49.891521 12.2363298 49.8079882 13.14 49.32 14.0753954 48.7939862 14.8789754 48.0622154 15.49 47.18 16.1519339 46.3413178 16.6628877 45.3938538 17 44.38 17.3278397 43.3981481 17.2815451 42.3298119 16.87 41.38 16.4491938 40.5094074 15.7484724 39.8051648 14.88 39.38zM15.17 43.52C14.9792873 44.2855388 14.6394704 45.0059506 14.17 45.64 13.9634559 45.9393604 13.739748 46.2265078 13.5 46.5 13.2566838 46.7768304 12.9889362 47.0311907 12.7 47.26L12.25 47.55 12.1 47.62 11.96 47.67C11.8325779 47.712682 11.7022386 47.7461024 11.57 47.77 11.57 47.77 11.11 47.77 11.26 47.77 11.0036832 47.6945499 10.753052 47.6009809 10.51 47.49L10.51 47.49C10.4772789 47.4592201 10.4471751 47.4257714 10.42 47.39L10.48 47.46C10.456603 47.4324091 10.4364697 47.4022091 10.42 47.37L10.32 47.19 10.23 46.92C10.23 46.76 10.16 46.61 10.13 46.45L10.13 46.45 10.13 46.09C10.1200171 45.8967955 10.1200171 45.7032045 10.13 45.51 10.1619637 45.1509933 10.228949 44.7959714 10.33 44.45 10.4610877 44.0357523 10.6495879 43.6419216 10.89 43.28 11.2898329 42.6090086 11.8003805 42.0105521 12.4 41.51L12.57 41.39 12.74 41.28 12.97 41.17 12.97 41.17 13.03 41.17 13.2 41 13.56 41 13.62 41C13.8953312 41.0634444 14.1521096 41.1901217 14.37 41.37 14.6226574 41.5459031 14.8341811 41.7744851 14.99 42.04 15.2502659 42.4878264 15.3153356 43.0228437 15.17 43.52L15.17 43.52zM27 15.92C26.7233564 14.8286917 26.1765712 13.8245327 25.41 13 24.7542799 12.2990363 23.921747 11.7877713 23 11.52 22.1325394 11.2788556 21.2036814 11.4131046 20.44 11.89 18.21 13.17 18.33 15.89 19.03 17.99 19.6498468 19.9200809 21.1852049 21.4179912 23.13 21.99 24.0608535 22.1878361 25.0320594 21.9900529 25.8114097 21.4439388 26.5907599 20.8978247 27.108195 20.0524727 27.24 19.11 27.3928979 18.0418648 27.3109947 16.9532341 27 15.92L27 15.92zM25.41 18.54C25.41 18.54 25.41 18.59 25.41 18.61L25.41 18.61C25.3982567 18.6909472 25.3815587 18.7710977 25.36 18.85 25.3112342 19.0936461 25.2010917 19.3208149 25.04 19.51 24.8717465 19.7112009 24.6548938 19.8660957 24.41 19.96L24.2 20.03 23.89 20.03 23.59 20 23.38 19.93 23.3 19.93 23.24 19.93C23.0647604 19.8465452 22.8944778 19.7530567 22.73 19.65 22.65 19.65 22.37 19.4 22.43 19.45 21.7625302 18.947058 21.2637978 18.2530178 21 17.46 20.8676561 17.0774812 20.7607561 16.6866283 20.68 16.29 20.611324 15.9612844 20.581121 15.6256955 20.59 15.29 20.59 15.2 20.59 15.12 20.59 15.03L20.59 14.96C20.6193578 14.800807 20.6594493 14.643782 20.71 14.49 20.8049128 14.2866458 20.9333736 14.1007157 21.09 13.94 21.1648617 13.8457963 21.2607591 13.7704484 21.37 13.72 21.5 13.65 21.66 13.56 21.74 13.53L22.04 13.44 22.22 13.44 22.52 13.51 22.77 13.59C22.77 13.59 22.6 13.51 22.77 13.59 23.047679 13.7328408 23.3120604 13.9001708 23.56 14.09 24.6624046 15.1303049 25.2941621 16.5743221 25.31 18.09 25.3303017 18.2392988 25.3436495 18.389461 25.35 18.54L25.41 18.54zM9.74 34.35C11.471744 35.3817993 13.7096546 34.8554922 14.8 33.16 15.3209364 32.3175201 15.6898731 31.3901012 15.89 30.42 16.231223 29.1567075 16.268915 27.830635 16 26.55 15.7842155 25.4517766 15.2361434 24.4463959 14.43 23.67 13.579884 23.0104388 12.4842301 22.7547863 11.43 22.97 9.05 23.36 7.98 25.83 7.51 27.97 6.98074377 30.3476289 7.84483383 32.8197789 9.74 34.35L9.74 34.35zM11.33 25.06C11.5438938 24.9728943 11.7698278 24.9189399 12 24.9 12.1665174 24.890023 12.3334826 24.890023 12.5 24.9L12.77 24.9 12.9 24.95C13.0880759 25.0458232 13.2495355 25.186671 13.37 25.36 13.5797296 25.6484566 13.7480306 25.9648625 13.87 26.3 14.3799492 27.9538789 14.2478356 29.7391972 13.5 31.3 13.3735004 31.6009871 13.2124179 31.8862374 13.02 32.15L13.02 32.21 12.84 32.4 12.74 32.49 12.57 32.6C12.3951075 32.7019013 12.2010548 32.7665856 12 32.79 11.6852114 32.832398 11.3650368 32.8085552 11.06 32.72 11.22 32.72 10.93 32.64 10.83 32.58 10.7894589 32.5550747 10.7524597 32.5248026 10.72 32.49L10.48 32.25C10.2046863 31.9545938 9.97848567 31.6169809 9.81 31.25 9.39256276 30.3723786 9.26643088 29.3843456 9.45 28.43 9.59764262 27.6597581 9.85704995 26.9152253 10.22 26.22 10.4498575 25.7200765 10.8406823 25.311647 11.33 25.06L11.33 25.06z"/>
      <path id="Path" fill="#3D454C" fill-rule="nonzero" d="M12,28.13 C12.5522847,28.13 13,27.6822847 13,27.13 C13,26.5777153 12.5522847,26.13 12,26.13 C11.4477153,26.13 11,26.5777153 11,27.13 C11,27.6822847 11.4477153,28.13 12,28.13 Z"/>
      <path id="Shape" fill="#3D454C" fill-rule="nonzero" d="M11.1 18.8C12.0184987 19.053515 13.0006555 18.9215934 13.819703 18.4346942 14.6387505 17.947795 15.2238827 17.1480102 15.44 16.22 15.6848517 15.0897758 15.6848517 13.9202242 15.44 12.79 15.2526162 11.6266069 14.8010531 10.5216458 14.12 9.56 13.5510168 8.71765074 12.7811762 8.03029303 11.88 7.56 11.0045057 7.10970967 9.96549425 7.10970967 9.09 7.56 6.6 8.79 6.5 11.85 7 14.18 7.51238851 16.3064892 9.04947526 18.0385235 11.1 18.8zM8.79 11.23C8.82226169 10.93217 8.89284526 10.6397524 9 10.36 9.1224072 10.0624125 9.32276914 9.80332383 9.58 9.61 9.83633127 9.45200463 10.1119276 9.32765018 10.4 9.24L10.57 9.24 10.81 9.31 10.81 9.31 11.05 9.43C11.1725734 9.49727713 11.2896082 9.57418574 11.4 9.66 11.6903923 9.88361325 11.9553174 10.138478 12.19 10.42 13.2033042 11.7593556 13.6842767 13.4267269 13.54 15.1 13.5547481 15.6440518 13.3616503 16.1732827 13 16.58 12.8022822 16.7459348 12.5699389 16.8655233 12.32 16.93L12.15 16.98 12 16.98 11.88 16.98C11.5894032 16.9039624 11.312654 16.7824628 11.06 16.62 10.7498661 16.4408286 10.4641699 16.2223551 10.21 15.97 9.56155563 15.3465822 9.10966174 14.5470776 8.91 13.67 8.72346923 12.8705183 8.68281718 12.0439266 8.79 11.23L8.79 11.23zM24 27.75C21.57 27.43 20.21 29.7 19.45 31.66 18.81 33.4 18.45 35.98 20.08 37.33 20.8224817 37.8797118 21.7164559 38.1870154 22.64 38.21 23.4444588 38.2570169 24.2360573 37.9919568 24.85 37.47 25.4626912 36.8871243 25.9346197 36.172392 26.23 35.38 26.7650373 34.2608122 27.0548363 33.0402472 27.08 31.8 27.0972665 30.8021233 26.8037051 29.8235853 26.24 29 25.7053387 28.2834377 24.8905727 27.8287691 24 27.75L24 27.75zM24.63 34C24.5079226 34.3405806 24.3677225 34.6743904 24.21 35 24.13 35.16 24.04 35.32 23.95 35.47 23.9201779 35.5222538 23.8867642 35.5723743 23.85 35.62L23.77 35.74 23.77 35.74 23.5 36.01 23.5 36.01 23.38 36.1 23.26 36.16 23.26 36.16 23.13 36.16 23.03 36.16 22.55 36.16 22.42 36.16 21.95 36.05 21.65 35.95 21.6 35.95 21.45 35.86 21.45 35.86C21.45 35.86 21.45 35.86 21.45 35.86 21.4153426 35.8120238 21.3750547 35.7683786 21.33 35.73L21.33 35.66C21.3071453 35.611256 21.2803917 35.5644371 21.25 35.52L21.2 35.42 21.2 35.42C21.15 35.24 21.1 35.07 21.07 34.9 21.07 34.76 21.07 34.62 21.07 34.48 21.07 34.34 21.07 34.02 21.07 33.93 21.1565564 33.3754433 21.3041183 32.8321473 21.51 32.31 21.651304 31.9339183 21.8218247 31.5694722 22.02 31.22 22.12 31.05 22.22 30.88 22.34 30.71 22.3767676 30.6543172 22.4168394 30.6008881 22.46 30.55L22.58 30.41C22.68 30.31 22.78 30.21 22.89 30.12L23.14 29.96 23.2 29.96C23.2436471 29.9358529 23.2909311 29.9189658 23.34 29.91L23.48 29.91 23.6 29.91 23.9 29.91 24.24 29.98 24.44 30.05 24.44 30.05 24.51 30.1C24.5570781 30.131997 24.6006521 30.1688674 24.64 30.21L24.71 30.29 24.79 30.39C24.859769 30.4978857 24.9199971 30.6116499 24.97 30.73 24.9942343 30.7850821 25.0142909 30.8419091 25.03 30.9L25.09 31.09C25.1373919 31.2433426 25.1708607 31.4006462 25.19 31.56 25.1790968 32.403917 24.9881763 33.235785 24.63 34z"/>
      <path id="Path" fill="#3D454C" fill-rule="nonzero" d="M10.61 12.17C11.1622847 12.17 11.61 11.7222847 11.61 11.17 11.61 10.6177153 11.1622847 10.17 10.61 10.17 10.0577153 10.17 9.61 10.6177153 9.61 11.17 9.61 11.7222847 10.0577153 12.17 10.61 12.17zM49.69 37.85C49.1377153 37.85 48.69 38.2977153 48.69 38.85 48.69 39.4022847 49.1377153 39.85 49.69 39.85 50.2422847 39.85 50.69 39.4022847 50.69 38.85 50.69 38.2977153 50.2422847 37.85 49.69 37.85z"/>
      <path id="Shape" fill="#3D454C" fill-rule="nonzero" d="M55.5,25 C55.5,25 55.5,25 55.5,24.94 C55.4880631,24.8290592 55.4576429,24.7208985 55.41,24.62 C55.4138381,24.6035543 55.4138381,24.5864457 55.41,24.57 C55.3071329,24.2992372 55.0734692,24.0994924 54.79,24.04 C49.8844943,23.4379707 44.9394071,23.220641 40,23.39 C38.56,23.39 36.68,23.19 35.4,23.98 C33.64,25.07 31.4,27.22 30.9,29.32 C30.7426642,29.5929432 30.706416,29.9191768 30.8,30.22 C30.7684751,30.3035972 30.7482955,30.3910422 30.74,30.48 C30.74,36.17 30.74,41.85 30.74,47.53 C30.74,49.42 30.74,51.32 30.74,53.21 C30.82,55.64 33.01,55.91 35.03,55.91 C40.03,55.91 45.03,55.97 50.03,55.51 C50.4731575,55.6641707 50.9639103,55.489496 51.21,55.09 L51.66,54.48 C51.66,54.48 51.75,54.37 51.8,54.31 L51.8,54.31 C51.88,54.21 51.96,54.1 52.05,54 C52.37,53.59 52.7,53.19 53.05,52.79 C53.71,52.01 54.4,51.26 55.12,50.53 C55.3613874,50.3559403 55.4911121,50.0659674 55.46,49.77 C55.1,41.5 55.9,33.24 55.5,25 Z M34.61,27.27 C35.1734828,26.5838409 35.8498426,25.9987896 36.61,25.54 C36.81,25.46 36.71,25.54 37.06,25.49 L38.06,25.43 C39.06,25.43 39.97,25.43 40.92,25.38 C44.9512351,25.2768149 48.985038,25.4137238 53,25.79 C52.1399303,26.9717787 51.0928483,28.00535 49.9,28.85 C49.5538674,28.7841143 49.2023469,28.7506362 48.85,28.75 C45.27,28.63 41.68,28.75 38.1,28.8 L33.26,28.85 C33.6586029,28.2815015 34.1106607,27.7524263 34.61,27.27 L34.61,27.27 Z M53.49,49.38 C52.71,50.1866667 51.96,51.0266667 51.24,51.9 C51.24,48.8 51.02,45.71 50.88,42.61 C50.82,41.33 48.82,41.32 48.88,42.61 C49.05,46.27 49.31,49.92 49.21,53.61 C45.52,53.9 41.81,53.94 38.11,53.94 L35,53.94 C34.265488,54.0237769 33.5215864,53.9312178 32.83,53.67 L32.73,53.67 C32.734378,53.6401597 32.734378,53.6098403 32.73,53.58 C32.7150105,53.3302247 32.7150105,53.0797753 32.73,52.83 C32.65,48.33 32.73,43.83 32.73,39.32 C32.73,36.52 32.73,33.71 32.73,30.91 C36.01,30.91 39.28,30.83 42.55,30.8 C44.23,30.8 45.9,30.8 47.55,30.8 C48.0366667,30.8 48.5266667,30.8 49.02,30.8 C49.02,31.5 48.91,32.8 48.89,33 C48.7351826,33.8339579 48.6948107,34.6851326 48.77,35.53 C48.96,36.8 50.88,36.26 50.7,35 C50.7,35.15 50.7,34.78 50.7,34.72 C50.7,34.66 50.7,34.38 50.7,34.22 C50.7,33.74 50.81,33.22 50.87,32.78 C50.9899418,32.0195015 51.0401505,31.249635 51.02,30.48 C51.8978776,29.788163 52.7327597,29.0434482 53.52,28.25 C53.71,35.27 53.17,42.32 53.49,49.38 Z"/>
      <path id="Path" fill="#3D454C" fill-rule="nonzero" d="M38.05 36.37C37.4977153 36.37 37.05 36.8177153 37.05 37.37 37.05 37.9222847 37.4977153 38.37 38.05 38.37 38.6022847 38.37 39.05 37.9222847 39.05 37.37 39.05 36.8177153 38.6022847 36.37 38.05 36.37zM41.47 41.28C40.9177153 41.28 40.47 41.7277153 40.47 42.28 40.47 42.8322847 40.9177153 43.28 41.47 43.28 42.0222847 43.28 42.47 42.8322847 42.47 42.28 42.47 41.7277153 42.0222847 41.28 41.47 41.28zM43.37 46.6C42.8177153 46.6 42.37 47.0477153 42.37 47.6 42.37 48.1522847 42.8177153 48.6 43.37 48.6 43.9222847 48.6 44.37 48.1522847 44.37 47.6 44.37 47.0477153 43.9222847 46.6 43.37 46.6zM43.14 38.37C43.6922847 38.37 44.14 37.9222847 44.14 37.37 44.14 36.8177153 43.6922847 36.37 43.14 36.37 42.5877153 36.37 42.14 36.8177153 42.14 37.37 42.14 37.9222847 42.5877153 38.37 43.14 38.37zM38.05 43.4C37.4977153 43.4 37.05 43.8477153 37.05 44.4 37.05 44.9522847 37.4977153 45.4 38.05 45.4 38.6022847 45.4 39.05 44.9522847 39.05 44.4 39.05 43.8477153 38.6022847 43.4 38.05 43.4z"/>
    </g>
  </g>
</svg>
