<svg xmlns="http://www.w3.org/2000/svg" width="64" height="64" viewBox="0 0 64 64" style="background:#fff">
  <g id="Rispentomaten" fill="none" fill-rule="evenodd" stroke="none" stroke-width="1">
    <rect width="64" height="64" fill="#FFF"/>
    <g transform="translate(2 8)">
      <rect id="Rectangle" width="60" height="60" x="0" y="0"/>
      <path id="Path" fill="#31E085" fill-rule="nonzero" d="M23.15 25.62C21.67 25.43 20.04 26.55 18.73 27.16 17.2049016 27.711135 15.9160217 28.7704883 15.08 30.16 14.66 31.01 14.49 32.59 15.42 33.24 16.78 34.24 18.22 33.89 19.75 33.48 21.28 33.07 23.15 32.8 24.37 31.63 26 30.08 25.72 25.94 23.15 25.62zM45.66 13.92C43.95 13.21 42.66 15.09 41.34 15.85 39.81 16.71 38.06 16.85 36.52 17.53 34.65 18.4 35.09 21.69 36.64 22.59 38.47 23.65 41.09 23.06 42.91 22.27 45.42 21.2 47 19.4 47.08 16.6 47.1511163 15.5101101 46.6017268 14.4732342 45.66 13.92z" opacity=".5"/>
      <path id="Path" fill="#E05362" fill-rule="nonzero" d="M26.47 34.58C24.75 33.87 23.14 34.97 22.22 36.42 20.61 38.95 22.03 39.78 18.64 40.42 14.64 41.23 12.18 39.97 10.01 36.76 9.62589233 36.0436581 8.77041553 35.7228543 8.01 36.01 5.27 37.43 5.18 41.59 5.77 44.23 6.72901308 47.9677786 9.4437144 51.0069016 13.05 52.38 21.05 55.38 28.05 50.64 29.75 42.74 30.35 40 29.32 35.77 26.47 34.58zM51.66 20.44C49.17 17.85 45.95 20.79 45.06 23.26 44.5389692 24.8719825 44.3651575 26.5760184 44.55 28.26 44.31 28.35 44.09 28.46 43.85 28.54 42.6838214 28.9275891 41.4750433 29.1727025 40.25 29.27 37.62 29.52 36.53 28.74 35.1 26.65 33.88 24.87 32.1 25.78 31.42 27.47 28.24 35.75 37.28 42.28 44.71 40.57 48.44 39.71 51.66 38.07 53.71 34.73 56.59 30.17 55.22 24.14 51.66 20.44z" opacity=".5"/>
      <path id="Path" fill="#3D454C" fill-rule="nonzero" d="M44,34.82 C43.4477153,34.8448528 43.0201472,35.3127153 43.045,35.865 C43.0698528,36.4172847 43.5377153,36.8448528 44.09,36.82 L44.19,36.82 C51.61,36.13 51.53,31.61 51.52,31.42 C51.4933337,30.8873332 51.0533335,30.4693329 50.52,30.4699992 L50.52,30.4699992 C49.9677153,30.4699992 49.52,30.9177153 49.52,31.4699992 C49.56,31.58 49.49,34.31 44,34.82 Z"/>
      <path id="Shape" fill="#3D454C" fill-rule="nonzero" d="M55.94,10.8 C53.8758202,11.7222756 51.9177128,12.8656225 50.1,14.21 C48.1,15.74 46.82,17.43 44.19,17.21 C44.223398,16.653326 44.34841,16.1059759 44.56,15.59 C44.8074553,15.0745047 44.7264549,14.4614345 44.3536107,14.0278948 C43.9807666,13.594355 43.3867287,13.422497 42.84,13.59 C41.3266614,14.0054229 40.0307339,14.9863183 39.22,16.33 C37.8087054,15.583966 36.2609172,15.1315355 34.67,15 L34.59,15 C33.90927,15.0095771 33.3156046,15.4649916 33.13,16.12 C32.9292738,16.7762059 33.1809288,17.4865224 33.75,17.87 L35.65,19.16 L32.5,20.45 C32.0983503,20.6136194 31.8479519,21.0174879 31.88,21.45 C31.9127577,21.7485656 32.0779814,22.0165952 32.33,22.18 C30.48,24.39 27.69,25.62 25.14,27.11 C24.8877218,26.6577206 24.4262306,26.3613156 23.91,26.32 C22.2871157,26.0942443 20.6396499,26.5025293 19.31,27.46 C18.2113398,26.2797544 16.8800137,25.3399948 15.4,24.7 C14.761382,24.4759011 14.0512998,24.6950121 13.65,25.24 C13.2399701,25.7922078 13.2399701,26.5477922 13.65,27.1 L14.48,28.25 C11.1366129,27.8841601 7.83943876,27.1771441 4.64,26.14 C3.41,25.74 2.88,27.67 4.1,28.06 C6.89452765,28.9694002 9.7616105,29.6384978 12.67,30.06 C10.9716068,30.6418665 9.44542706,31.6386957 8.23,32.96 C5.44745432,35.8607394 4.12121204,39.861509 4.62,43.85 C5.01,46.35 6.49,49.85 11.32,52.08 C13.4000206,53.1021105 15.6825465,53.6454063 18,53.67 C23.1974678,53.6602399 27.9175357,50.6370559 30.1,45.92 C31.61,42.24 32,37 25.91,32.69 C25.8227575,32.4910364 25.6930614,32.3135575 25.53,32.17 C24.9124978,31.6134748 24.2427264,31.1178439 23.53,30.69 C25.53,28.89 27.98,27.78 30.23,26.4 C29.2858099,29.7098084 29.7034432,33.2596912 31.39,36.26 C32.73,38.54 35.49,41.26 41.04,41.55 L42.04,41.55 C45.6926825,41.7146861 49.2701591,40.4768792 52.04,38.09 C54.3432278,35.9286223 55.7014331,32.9463196 55.82,29.79 C55.95,25.92 54.6,21.07 47.82,19.01 L47.34,18.8 C47.8240475,18.5893724 48.280724,18.3207392 48.7,18 C51.223274,15.8317592 54.012371,13.9936435 57,12.53 C58.12,12 57.1,10.28 55.94,10.8 Z M39.24,18.54 C39.5124195,18.6952828 39.8419021,18.713793 40.13,18.59 C40.4156646,18.464649 40.6264661,18.2131665 40.7,17.91 C40.9465487,17.0421549 41.5448216,16.3169756 42.35,15.91 C42.1794458,16.7520207 42.1122827,17.6117081 42.15,18.47 C42.1590007,18.5760554 42.182555,18.6803675 42.22,18.78 L42.36,19.12 C42.4299265,19.3039916 42.5558457,19.4613907 42.72,19.57 L41.63,19.57 C40.8063025,19.6383306 40.1766416,20.3335811 40.19,21.16 L40.19,21.65 C40.06,21.46 39.94,21.27 39.85,21.11 C39.5801248,20.6091065 39.0589492,20.2948683 38.49,20.29 C38.266078,20.2920754 38.0449217,20.3397091 37.84,20.43 C37.7019727,20.4870271 37.5576109,20.5273141 37.41,20.55 C37.8545141,20.2625746 38.1229463,19.7693451 38.1229463,19.24 C38.1229463,18.7106549 37.8545141,18.2174254 37.41,17.93 L36.52,17.32 C37.4630902,17.6400338 38.3738094,18.0485181 39.24,18.54 L39.24,18.54 Z M18.55,29.61 C18.7511467,29.8459211 19.0503427,29.9752034 19.36,29.96 C19.6709237,29.9395037 19.9566833,29.7819696 20.14,29.53 C20.7787543,28.7381237 21.7532694,28.2934781 22.77,28.33 C22.2305675,28.9700567 21.7581027,29.6636752 21.36,30.4 C21.2790931,30.5501557 21.2410389,30.7196698 21.25,30.89 L21.25,31.25 C21.2362864,31.7206972 21.5528167,32.1371845 22.01,32.25 C22.2768663,32.3311265 22.5297808,32.4525255 22.76,32.61 C21.93,32.43 21.18,32.25 20.76,32.14 C20.074858,31.9705548 19.3612984,32.2822245 19.02,32.9 C18.8388082,33.2066397 18.6418785,33.5037031 18.43,33.79 C18.32,33.52 18.19,33.22 18.05,32.87 C17.8051562,32.27181 17.2263089,31.8780363 16.58,31.87 L16.37,31.87 C15.9481025,31.8844917 15.5264907,31.8338983 15.12,31.72 L16.6,31 C17.0205511,30.8017479 17.3316022,30.4272928 17.4493556,29.9775137 C17.5671089,29.5277345 17.4794521,29.0488967 17.21,28.67 L16.43,27.58 C17.197859,28.1897239 17.9075603,28.8692963 18.55,29.61 L18.55,29.61 Z M28.25,45.16 C27.0415058,47.8126125 24.8295572,49.8770978 22.1,50.9 C18.8503938,52.1010075 15.2449758,51.8758958 12.17,50.28 C8.93,48.75 7.06,46.48 6.59,43.54 C6.16929286,40.1704486 7.26858667,36.788288 9.59,34.31 C10.3793189,33.4626698 11.3098145,32.7588768 12.34,32.23 C12.4711928,32.7305051 12.8479792,33.1298986 13.34,33.29 C14.2767883,33.6173377 15.2581388,33.799444 16.25,33.83 C16.78,35.13 17.13,35.93 17.25,36.21 C17.4144135,36.497084 17.7101711,36.6842723 18.04,36.71 L18.12,36.71 C18.424272,36.7085972 18.7113526,36.5687374 18.9,36.33 C19.02,36.18 19.96,34.98 20.5,34.11 C21.35,34.32 22.89,34.69 24.13,34.89 C24.4740599,34.9417406 24.8255775,34.8784674 25.13,34.71 C28.92,37.55 29.93,41.06 28.25,45.16 Z M53.75,29.74 C53.6624642,32.3660263 52.5325201,34.8490245 50.61,36.64 C48.37,38.72 45.1,39.73 41.14,39.55 C37.4,39.38 34.71,37.94 33.14,35.24 C31.5501802,32.4281053 31.3292857,29.044737 32.54,26.05 C33.0699327,24.7298874 33.914426,23.5592687 35,22.64 C36.1125402,22.7562466 37.2364728,22.6954935 38.33,22.46 C38.9506742,23.4262773 39.671309,24.3245571 40.48,25.14 C40.6599121,25.2890812 40.8863478,25.3704565 41.12,25.37 C41.254048,25.3697423 41.3866759,25.3425365 41.51,25.29 C41.8563167,25.1395914 42.0883923,24.8069498 42.11,24.43 C42.11,24.35 42.22,22.73 42.23,21.61 C42.67,21.61 43.23,21.61 43.82,21.61 C45.2805584,21.6870998 46.7450431,21.5829736 48.18,21.3 C51.7876664,22.4570483 54.1047093,25.9679715 53.75,29.74 L53.75,29.74 Z"/>
      <path id="Path" fill="#3D454C" fill-rule="nonzero" d="M22.75 45.82C20.0352323 48.0607662 16.174773 48.2637346 13.24 46.32 12.15 45.64 11.15 47.32 12.24 48.05 15.7899792 50.3706881 20.4244404 50.1695396 23.76 47.55 24.76 46.78 23.77 45 22.75 45.82zM25.78 45C26.3322847 45 26.78 44.5522847 26.78 44 26.78 43.4477153 26.3322847 43 25.78 43 25.2277153 43 24.78 43.4477153 24.78 44 24.78 44.5522847 25.2277153 45 25.78 45zM50.85 28.68C51.4022847 28.68 51.85 28.2322847 51.85 27.68 51.85 27.1277153 51.4022847 26.68 50.85 26.68 50.2977153 26.68 49.85 27.1277153 49.85 27.68 49.85 28.2322847 50.2977153 28.68 50.85 28.68z"/>
    </g>
  </g>
</svg>
