<svg xmlns="http://www.w3.org/2000/svg" width="64" height="64" viewBox="0 0 64 64" style="background:#fff">
  <g id="Roggenmehl" fill="none" fill-rule="evenodd" stroke="none" stroke-width="1">
    <rect width="64" height="64" fill="#FFF"/>
    <g transform="translate(2 6)">
      <rect id="Rectangle" width="60" height="60" x="0" y="0"/>
      <path id="Path" fill="#E0A075" fill-rule="nonzero" d="M38 10.5C36.6219859 9.12498839 34.7753767 8.32133833 32.83 8.25 31.49 8.25 32.41 8.86 31.38 7.78 31.0055309 7.26207998 30.580069 6.78301664 30.11 6.35 27.46 4.49 25.21 7.21 23.7 9.88 21.48 11.15 21.14 16.31 23.9 17.24 25.96 17.93 28.09 17.53 30.25 17.53 32.41 17.53 34.72 17.82 36.9 17.67 40.06 17.45 39.8 12.05 38 10.5zM38.1 27.51C36.1 25.39 33.92 25.98 31.7 27.39 30.4 28.21 29.1066667 29.04 27.82 29.88 27.2801405 30.2147085 26.7860122 30.6180786 26.35 31.08 26.2115785 31.0502685 26.0684215 31.0502685 25.93 31.08 23.93 31.61 23.62 34.61 23.64 36.28 23.6609209 37.213176 23.8123912 38.1388275 24.09 39.03 21.93 40.9 19.78 42.78 17.67 44.71 14.94 47.22 18.42 52.92 20.29 50.33 22.67 48.11 25 45.83 27.29 43.54 30.7 45.84 35.2 44.82 38 41.87 41.813001 37.8578781 41.8567548 31.574836 38.1 27.51z" opacity=".5"/>
      <path id="Shape" fill="#3D454C" fill-rule="nonzero" d="M45.21,35 C45.6305697,33.5712762 45.8427566,32.0893364 45.84,30.6000072 C45.8390054,28.2673479 45.3162425,25.9644578 44.31,23.86 C46.3238092,22.9427961 47.4096988,20.7311599 46.9039542,18.5768821 C46.3982095,16.4226043 44.4415834,14.9252381 42.23,15 L40.67,15 L36.79,9.21 C35.7539853,7.65809795 33.6848336,7.18803587 32.08,8.14 L32,7.89 C31.3407015,6.56752745 30.0250768,5.69807116 28.55,5.61 C27.0769059,5.50662194 25.663843,6.21123864 24.86,7.45 L19.75,15 L18.2,15 C16.0373895,14.9836725 14.1502779,16.4635489 13.6505439,18.5676917 C13.15081,20.6718345 14.1709909,22.8421928 16.11,23.8 C15.1068882,25.9051478 14.5875338,28.2080749 14.59,30.54 C14.5923576,31.400854 14.6625751,32.2601826 14.8,33.11 C14.893511,33.7494382 15.0338891,34.3811395 15.22,35 C12.7784719,38.2505589 11.4557672,42.204639 11.45,46.27 C11.4547492,47.960753 11.6902563,49.6429462 12.15,51.27 C12.2259396,51.538829 12.410864,51.763639 12.66,51.89 C17.34,54.27 23.57,55.58 30.21,55.58 C36.85,55.58 43.1,54.27 47.78,51.89 C48.029136,51.763639 48.2140604,51.538829 48.29,51.27 C48.7357596,49.6405297 48.9644024,47.9593323 48.9700003,46.27 C48.9707239,42.2051922 47.6511943,38.2501128 45.21,35 Z M26.48,8.55 C26.9073419,7.92290689 27.632414,7.5660651 28.39,7.61 C29.1490721,7.65602874 29.8266969,8.10143382 30.17,8.78 L30.89,10.22 C31.0492402,10.5378294 31.3652404,10.7472271 31.72,10.77 C32.0791134,10.7928532 32.4228145,10.6210027 32.62,10.32 C32.9093805,9.9178591 33.3745624,9.67949986 33.87,9.67949986 C34.3654376,9.67949986 34.8306195,9.9178591 35.12,10.32 L38.27,15 L22.16,15 L26.48,8.55 Z M18.2,17 L42.2,17 C43.6690774,17 44.86,18.1909226 44.86,19.66 C44.86,21.1290774 43.6690774,22.32 42.2,22.32 L18.2,22.32 C16.7309226,22.32 15.54,21.1290774 15.54,19.66 C15.54,18.1909226 16.7309226,17 18.2,17 Z M46.47,50.33 C41.3550888,52.5982892 35.8041321,53.7146255 30.21,53.6 C24.6326347,53.7076111 19.099467,52.59142 14,50.33 C13.6602383,48.996643 13.4889034,47.6259643 13.4899948,46.25 C13.4908081,42.455647 14.7814067,38.7742674 17.15,35.81 C17.3840644,35.5322737 17.4491408,35.1494711 17.32,34.81 C17.0965229,34.158124 16.9259703,33.4892902 16.81,32.81 C16.6924222,32.0657218 16.6322449,31.3135048 16.63,30.56 C16.6277915,28.39245 17.1456148,26.2560001 18.14,24.33 L42.33,24.33 C43.3200152,26.2576283 43.837578,28.3930032 43.84,30.56 C43.8396629,31.3106766 43.7761049,32.0599912 43.65,32.8 C43.5390458,33.4793708 43.3718031,34.1483414 43.15,34.8 C43.0208592,35.1394711 43.0859356,35.5222737 43.32,35.8 C46.5708913,39.8867775 47.7351598,45.2535006 46.47,50.32 L46.47,50.33 Z"/>
      <circle id="Oval" cx="34.84" cy="32.91" r="1" fill="#3D454C" fill-rule="nonzero"/>
      <circle id="Oval" cx="37.7" cy="30.38" r="1" fill="#3D454C" fill-rule="nonzero"/>
      <circle id="Oval" cx="27.55" cy="12.08" r="1" fill="#3D454C" fill-rule="nonzero"/>
      <path id="Path" fill="#3D454C" fill-rule="nonzero" d="M23.1 43.24L20.1 46.24C19.9106873 46.4277666 19.8042017 46.6833625 19.8042017 46.95 19.8042017 47.2166375 19.9106873 47.4722334 20.1 47.66 20.2877666 47.8493127 20.5433625 47.9557983 20.81 47.9557983 21.0766375 47.9557983 21.3322334 47.8493127 21.52 47.66L24.52 44.66C24.9121222 44.2678778 24.9121222 43.6321222 24.52 43.24 24.1278778 42.8478778 23.4921222 42.8478778 23.1 43.24L23.1 43.24zM37.31 36.52L33.45 36C32.8977153 35.9226801 32.3873199 36.3077153 32.31 36.86 32.2326801 37.4122847 32.6177153 37.9226801 33.17 38L37 38.5 37.14 38.5C37.4972656 38.5250086 37.8407345 38.3575186 38.0410254 38.0606218 38.2413163 37.763725 38.2680001 37.3825272 38.1110254 37.0606218 37.9540507 36.7387164 37.6372656 36.5250086 37.28 36.5L37.31 36.52zM34.32 39.34L30.46 38.79C29.9132605 38.7127669 29.4073971 39.0932837 29.33 39.64 29.2527669 40.1867395 29.6332837 40.6926029 30.18 40.77L34.04 41.32 34.18 41.32C34.7322847 41.3586599 35.21134 40.9422847 35.2499999 40.39 35.2886599 39.8377153 34.8722847 39.35866 34.32 39.32L34.32 39.34zM31.32 42.16L27.46 41.61C27.1027344 41.5599828 26.7459235 41.7043639 26.5239746 41.9887564 26.3020256 42.2731489 26.2486579 42.6543468 26.3839745 42.9887565 26.5192912 43.3231661 26.8227344 43.5599828 27.18 43.61L31.04 44.16 31.18 44.16C31.7322847 44.1986599 32.21134 43.7822847 32.2499999 43.23 32.2886599 42.6777153 31.8722847 42.19866 31.32 42.16L31.32 42.16zM30.79 35.45L30.93 35.45C31.1943709 35.4152406 31.4339111 35.2763368 31.5953971 35.0641518 31.756883 34.8519667 31.8269393 34.5840752 31.79 34.32L31.24 30.46C31.1626801 29.9077153 30.6522847 29.5226802 30.1 29.6000001 29.5477153 29.6773199 29.1626802 30.1877153 29.24 30.74L29.79 34.6C29.8647694 35.0930381 30.2913566 35.4556372 30.79 35.45zM28 38.4400492L28.14 38.4400492C28.4063722 38.4053661 28.647611 38.2650247 28.8093808 38.0505855 28.9711507 37.8361464 29.0398481 37.5656422 29 37.3L28.45 33.44C28.3726801 32.8877153 27.8622847 32.5026801 27.31 32.58 26.7577153 32.6573199 26.3726801 33.1677153 26.45 33.72L27 37.58C27.0702496 38.0770163 27.498068 38.4449401 28 38.4400492zM24.47 35.59C23.9232837 35.6673971 23.5427669 36.1732605 23.62 36.72L24.17 40.58C24.2402496 41.0770163 24.668068 41.4449401 25.17 41.4400492L25.31 41.4400492C25.8567163 41.3626029 26.2372331 40.8567395 26.16 40.31L25.61 36.45C25.5753661 36.1836278 25.4350247 35.942389 25.2205855 35.7806192 25.0061464 35.6188493 24.7356422 35.5501519 24.47 35.59z"/>
    </g>
  </g>
</svg>
