<svg xmlns="http://www.w3.org/2000/svg" width="64" height="64" viewBox="0 0 64 64" style="background:#fff">
  <g id="Roggenschrot" fill="none" fill-rule="evenodd" stroke="none" stroke-width="1">
    <rect width="64" height="64" fill="#FFF"/>
    <g transform="translate(2 6)">
      <rect id="Rectangle" width="60" height="60" x="0" y="0"/>
      <path id="Path" fill="#C17953" fill-rule="nonzero" d="M41 13.21C39.7428791 11.2748366 37.9882049 9.71359108 35.92 8.69 34.1 7.95 30.84 8.81 29.67 7.19 27.32 3.93 24.93 7.1 24.62 10.36L24.62 10.36C23.1591558 11.8646969 21.5734882 13.2429565 19.88 14.48 18.57 15.48 18.73 20.01 20.93 19.67 26.7484869 18.6879155 32.7114414 18.9916951 38.4 20.56 42.12 21.64 42.48 15.24 41 13.21zM40.08 30.84C39.13 27.01 35.3 25.72 31.76 26.84 28.0955605 28.1540836 25.1951388 31.0142725 23.83 34.66 22.085099 36.0020742 21.3359985 38.2731569 21.94 40.39 20.8 41.29 19.63 42.17 18.45 43.01 15.65 45.01 17.67 52.88 21.45 50.21 23.3 48.9 25.05 47.51 26.75 46.05 27.5500844 46.5362049 28.4742298 46.7794011 29.41 46.75 31.47 46.6 33.46 44.51 34.66 43.06 37.25 39.88 41.2 35.35 40.08 30.84z" opacity=".5"/>
      <path id="Shape" fill="#3D454C" fill-rule="nonzero" d="M45.21,34.58 C45.3838433,33.9782646 45.5240601,33.3673198 45.63,32.75 C45.7674139,31.8968213 45.8376296,31.0341706 45.84,30.17 C45.8363591,27.7999694 45.2961905,25.4615177 44.26,23.33 C45.3535605,22.8340411 46.0788777,21.7692139 46.14,20.57 C46.14,19.02 44.82,17.76 42.97,17.34 L36.79,8.81 C35.7539853,7.25809795 33.6848336,6.78803587 32.08,7.74 L32,7.49 C31.3439319,6.16467154 30.0264377,5.29397972 28.55,5.21 C27.0761434,5.08247432 25.6500145,5.76870302 24.83,7 L17.76,17.24 C15.62,17.51 14.04,18.87 14.04,20.57 C14.1135736,21.8483506 14.9265081,22.9661355 16.12,23.43 C15.1150388,25.5349031 14.5923425,27.8374995 14.59,30.17 C14.5919563,31.034188 14.6621747,31.8968712 14.8,32.75 C14.8963508,33.3692026 15.0367063,33.9807515 15.22,34.58 C12.7784719,37.8305589 11.4557672,41.784639 11.45,45.85 C11.4547492,47.540753 11.6902563,49.2229462 12.15,50.85 C12.2259396,51.118829 12.410864,51.343639 12.66,51.47 C17.34,53.85 23.58,55.16 30.21,55.16 C36.84,55.16 43.1,53.85 47.78,51.47 C48.029136,51.343639 48.2140604,51.118829 48.29,50.85 C48.7357596,49.2205297 48.9644024,47.5393323 48.9700003,45.85 C48.9707239,41.7851922 47.6511943,37.8301128 45.21,34.58 L45.21,34.58 Z M26.48,8.15 C26.9036489,7.51759367 27.6313397,7.15782634 28.3910592,7.20518013 C29.1507788,7.25253392 29.8281616,7.69988037 30.17,8.38 L30.89,9.82 C31.0492402,10.1378294 31.3652404,10.3472271 31.72,10.37 C32.0791134,10.3928532 32.4228145,10.2210027 32.62,9.92 C32.9077869,9.50549599 33.3803864,9.25827957 33.885,9.25827957 C34.3896136,9.25827957 34.8622131,9.50549599 35.15,9.92 L40.38,17.14 L20.24,17.14 L26.48,8.15 Z M18.55,19.15 L41.62,19.15 C43.06,19.15 44.14,19.88 44.14,20.54 C44.14,21.2 43.06,22 41.62,22 L18.55,22 C17.11,22 16,21.22 16,20.57 C16,19.92 17.11,19.18 18.55,19.18 L18.55,19.15 Z M46.47,49.93 C41.3550888,52.1982892 35.8041321,53.3146255 30.21,53.2 C24.6313884,53.3100167 19.0969957,52.1901643 14,49.92 C13.6596122,48.5901612 13.4882608,47.2227097 13.4899869,45.85 C13.4908081,42.055647 14.7814067,38.3742674 17.15,35.41 C17.3658344,35.1434413 17.4300005,34.784866 17.32,34.46 C17.0965229,33.808124 16.9259703,33.1392902 16.81,32.46 C16.6920286,31.7124097 16.6318504,30.9568389 16.63,30.2 C16.6334924,28.025562 17.1545182,25.8831861 18.15,23.95 C18.3,23.95 18.44,23.95 18.59,23.95 L41.62,23.95 C41.86,23.95 42.08,23.95 42.31,23.9 C43.314519,25.8338194 43.8392713,27.9808452 43.84,30.16 C43.8400825,30.9140098 43.7765236,31.6666814 43.65,32.41 C43.5390458,33.0893708 43.3718031,33.7583414 43.15,34.41 C43.0399995,34.734866 43.1041656,35.0934413 43.32,35.36 C46.5708913,39.4467775 47.7351598,44.8135006 46.47,49.88 L46.47,49.93 Z"/>
      <path id="Path" fill="#3D454C" fill-rule="nonzero" d="M23.1 42.84L20.1 45.84C19.9106873 46.0277666 19.8042017 46.2833625 19.8042017 46.55 19.8042017 46.8166375 19.9106873 47.0722334 20.1 47.26 20.2877666 47.4493127 20.5433625 47.5557983 20.81 47.5557983 21.0766375 47.5557983 21.3322334 47.4493127 21.52 47.26L24.52 44.26C24.7736586 44.0063414 24.8727235 43.636626 24.7798781 43.2901219 24.6870326 42.9436179 24.4163821 42.6729674 24.0698781 42.5801219 23.723374 42.4872765 23.3536586 42.5863414 23.1 42.84zM36.76 29.23L33.76 32.23C33.3722764 32.6200375 33.3722764 33.2499625 33.76 33.64 33.9446305 33.8284143 34.1962307 33.936243 34.46 33.94 34.7272459 33.9388906 34.9829286 33.8308556 35.17 33.64L38.17 30.64C38.5577236 30.2499625 38.5577236 29.6200375 38.17 29.23 37.7799625 28.8422764 37.1500375 28.8422764 36.76 29.23L36.76 29.23zM37.31 36.12L33.45 35.58C32.9032605 35.5027669 32.3973971 35.8832837 32.32 36.43 32.2427669 36.9767395 32.6232837 37.4826029 33.17 37.56L37 38.1 37.14 38.1C37.4972656 38.1250086 37.8407345 37.9575186 38.0410254 37.6606218 38.2413163 37.363725 38.2680001 36.9825272 38.1110254 36.6606218 37.9540507 36.3387164 37.6372656 36.1250086 37.28 36.1L37.31 36.12zM34.32 38.94L30.46 38.39C30.1027344 38.3399828 29.7459235 38.4843639 29.5239745 38.7687564 29.3020256 39.0531489 29.2486579 39.4343468 29.3839745 39.7687565 29.5192912 40.1031661 29.8227344 40.3399828 30.18 40.39L34.04 40.94 34.18 40.94C34.7322847 40.9786599 35.2113401 40.5622847 35.25 40.01 35.2886599 39.4577153 34.8722847 38.9786599 34.32 38.94L34.32 38.94zM31.32 41.76L27.46 41.21C27.1027344 41.1599828 26.7459235 41.3043639 26.5239746 41.5887564 26.3020256 41.8731489 26.2486579 42.2543468 26.3839745 42.5887565 26.5192912 42.9231661 26.8227344 43.1599828 27.18 43.21L31.04 43.76 31.18 43.76C31.7322847 43.7986599 32.21134 43.3822847 32.2499999 42.83 32.2886599 42.2777153 31.8722847 41.79866 31.32 41.76L31.32 41.76zM30.79 35.05L30.93 35.05C31.1943709 35.0152406 31.4339111 34.8763368 31.5953971 34.6641518 31.756883 34.4519667 31.8269393 34.1840752 31.79 33.92L31.24 30.06C31.1899828 29.7027344 30.9531661 29.3992912 30.6187565 29.2639745 30.2843468 29.1286579 29.9031489 29.1820256 29.6187564 29.4039745 29.3343639 29.6259235 29.1899828 29.9827344 29.24 30.34L29.79 34.2C29.8647694 34.6930381 30.2913566 35.0556372 30.79 35.05L30.79 35.05zM28 38L28.14 38C28.6775728 37.9272881 29.059142 37.4392344 29 36.9L28.42 33C28.3426801 32.4477153 27.8322847 32.0626801 27.28 32.14 26.7277153 32.2173199 26.3426801 32.7277153 26.42 33.28L27 37.18C27.0879673 37.6610925 27.5109963 38.0079763 28 38zM24.47 35.19C23.9232837 35.2673971 23.5427669 35.7732605 23.62 36.32L24.17 40.18C24.2402496 40.6770163 24.668068 41.0449401 25.17 41.0400492L25.31 41.0400492C25.8567163 40.9626029 26.2372331 40.4567395 26.16 39.91L25.6 36C25.5033375 35.4694897 25.0034507 35.1111638 24.47 35.19zM27.57 12.28C27.703628 12.5097442 27.9232172 12.6768418 28.1802702 12.7443886 28.4373232 12.8119353 28.7106913 12.7743739 28.94 12.64 29.1697442 12.506372 29.3368418 12.2867828 29.4043886 12.0297298 29.4719353 11.7726768 29.4343739 11.4993087 29.3 11.27L28.58 10.27C28.446372 10.0402558 28.2267828 9.87315821 27.9697298 9.80561144 27.7126768 9.73806466 27.4393087 9.77562606 27.21 9.91 26.7351069 10.191719 26.5784235 10.8050224 26.86 11.28 27.09 11.63 27.33 12 27.57 12.28zM24.32 15.83C24.453628 16.0597442 24.6732172 16.2268418 24.9302702 16.2943886 25.1873232 16.3619353 25.4606913 16.3243739 25.69 16.19L26.49 15.59C26.7197442 15.456372 26.8868418 15.2367828 26.9543886 14.9797298 27.0219353 14.7226768 26.9843739 14.4493087 26.85 14.22 26.568281 13.7451069 25.9549776 13.5884235 25.48 13.87L24.68 14.47C24.2074926 14.7480112 24.0469179 15.3546268 24.32 15.83L24.32 15.83zM33.53 15.09C33.9221222 15.4793607 34.5556392 15.4771221 34.945 15.085 35.3343607 14.6928778 35.3321221 14.0593608 34.94 13.67L33.65 12.37C33.2606393 11.9778778 32.6271222 11.9756393 32.235 12.365 31.8428778 12.7543607 31.8406393 13.3878778 32.23 13.78L33.53 15.09z"/>
    </g>
  </g>
</svg>
