<svg xmlns="http://www.w3.org/2000/svg" width="64" height="64" viewBox="0 0 64 64" style="background:#fff">
  <g id="Rohschinken" fill="none" fill-rule="evenodd" stroke="none" stroke-width="1">
    <rect width="64" height="64" fill="#FFF"/>
    <g id="1-4-Rohschinken" transform="translate(2 4)">
      <g id="Layer_2">
        <rect id="Rectangle" width="60" height="60" x="0" y="0"/>
      </g>
      <g id="Layer_1" transform="translate(4 4)">
        <g id="pig1" fill-rule="nonzero" transform="translate(28)">
          <path id="Path" fill="#E05362" fill-opacity=".5" d="M18.81,16.51 C18.3202296,15.5090219 17.4535754,14.7430578 16.4,14.38 C15.2771966,14.0074617 14.1107848,13.7822467 12.93,13.71 C11.8911782,13.6399897 10.8488218,13.6399897 9.81,13.71 C8.07,13.81 7.18,14.15 6.3,15.51 C5.42,16.87 5.18,19.03 6.44,20.23 C7.38,21.08 7.95,21.71 9.34,21.64 C10.49,21.58 11.65,21.39 12.8,21.3 C13.95,21.21 14.89,21.16 15.9,20.99 C16.9647191,20.8949931 17.9423679,20.3627177 18.6,19.52 C19.2187814,18.6318331 19.2994568,17.4754858 18.81,16.51 L18.81,16.51 Z"/>
          <path id="Path" fill="#E0A075" fill-opacity=".5" d="M12.43,3.55 C5.64,3.2 -0.1,10 0.32,16.48 C0.45,18.63 3.32,23.03 5.22,19.39 C6.78,16.25 8.22,13.21 12.22,12.93 C15.79,12.69 18.29,15.18 20.36,17.74 C21.56,19.22 23.15,18.13 23.36,16.45 C23.4,16.0433333 23.42,15.6333333 23.42,15.22 C23.4007066,9.04315564 18.5945726,3.93964482 12.43,3.55 Z"/>
          <path id="Shape" fill="#3D454C" d="M21.23,8.35 C23.11,6.35 23.47,4.52 23.47,1.76 C23.47,1.24637518 23.0536248,0.83 22.54,0.83 C19.84,0.83 18.02,1.2 16.13,3.18 C15.8900239,3.42809023 15.6630534,3.68843871 15.45,3.96 C13.0912205,3.19018543 10.5487795,3.19018543 8.19,3.96 C7.97,3.69 7.75,3.43 7.51,3.17 C5.62,1.17 3.8,0.83 1.1,0.83 C0.586375183,0.83 0.17,1.24637518 0.17,1.76 C0.17,4.53 0.53,6.39 2.39,8.34 C2.73963922,8.73297643 3.11017509,9.10685046 3.5,9.46 C2.58,11.23 0.17,16.04 0.17,17.77 C0.17,21.77 4.96,26.16 11.82,26.16 C18.68,26.16 23.47,21.74 23.47,17.77 C23.47,16.02 21.06,11.23 20.13,9.46 C20.5189317,9.11274896 20.8862828,8.7420583 21.23,8.35 Z M21.6,17.77 C21.6,20.5 17.88,24.3 11.82,24.3 C5.76,24.3 2,20.5 2,17.77 C2,16.77 3.82,12.69 5.45,9.68 C5.66632766,9.28569143 5.56948944,8.79307957 5.22,8.51 C4.68061954,8.07289906 4.17578645,7.59481209 3.71,7.08 C2.56609608,5.92412099 1.95395619,4.34487251 2.02,2.72 C3.57109775,2.66880094 5.06643733,3.30130399 6.11,4.45 C6.44796112,4.80985212 6.75881107,5.19423646 7.04,5.6 C7.28515522,5.95870354 7.74600413,6.09986447 8.15,5.94 C10.4791616,5.02028141 13.0708384,5.02028141 15.4,5.94 C15.7987357,6.1004564 16.2554352,5.96344656 16.5,5.61 C16.7882252,5.20681157 17.1022133,4.82267725 17.44,4.46 C18.4798976,3.29913313 19.9825771,2.66141061 21.54,2.72 C21.6042611,4.34354186 20.988078,5.92024584 19.84,7.07 L19.84,7.07 C19.3780013,7.57533202 18.8800337,8.04656307 18.35,8.48 C18.0005106,8.76307957 17.9036723,9.25569143 18.12,9.65 C19.77,12.68 21.6,16.77 21.6,17.77 L21.6,17.77 Z"/>
          <path id="Path" fill="#3D454C" d="M9.47 16.4C8.46846355 16.4184164 7.63502685 17.1749205 7.52 18.17 7.47948954 18.6769349 7.85368146 19.1224015 8.36 19.17L8.45 19.17C8.92843191 19.171812 9.32840036 18.8066234 9.37 18.33 9.37 18.24 9.55 18.24 9.56 18.33 9.59215389 18.662257 9.79912232 18.9521212 10.1029423 19.0904037 10.4067622 19.2286861 10.7612762 19.1943783 11.0329423 19.0004037 11.3046084 18.8064291 11.4521539 18.482257 11.42 18.15 11.2957777 17.1628325 10.4648059 16.4170886 9.47 16.4L9.47 16.4zM14.08 16.4C13.0784636 16.4184164 12.2450269 17.1749205 12.13 18.17 12.0949318 18.6751792 12.4663502 19.1173439 12.97 19.17L13.06 19.17C13.5386544 19.1676235 13.9390846 18.8059447 13.99 18.33 13.99 18.24 14.16 18.24 14.17 18.33 14.1442012 18.6964897 14.3365787 19.0438175 14.6609374 19.2163623 14.9852961 19.3889071 15.3808334 19.3543246 15.6703279 19.1281096 15.9598223 18.9018945 16.0890069 18.526452 16 18.17 15.8866381 17.1859376 15.0700167 16.4331148 14.08 16.4z"/>
          <path id="Shape" fill="#3D454C" d="M11.82,13.1 C7.57,13.1 4.24,15.26 4.24,18.02 C4.24,20.78 7.57,23 11.82,23 C16.07,23 19.4,20.78 19.4,18 C19.4,15.22 16.07,13.1 11.82,13.1 Z M11.82,21.1 C8.45,21.1 6.11,19.49 6.11,18.04 C6.11,16.59 8.45,15 11.82,15 C15.19,15 17.53,16.61 17.53,18.05 C17.53,19.49 15.19,21.08 11.82,21.08 L11.82,21.1 Z"/>
          <path id="Path" fill="#3D454C" d="M8.61 11.44C8.99019451 11.44 9.33295262 11.2109764 9.47844676 10.8597224 9.6239409 10.5084685 9.54351849 10.1041577 9.27468037 9.83531963 9.00584226 9.56648151 8.6015315 9.4860591 8.25027757 9.63155324 7.89902365 9.77704738 7.67 10.1198055 7.67 10.5 7.67 11.0191477 8.09085234 11.44 8.61 11.44L8.61 11.44zM14.67 11.44C15.0510783 11.4440543 15.3968936 11.217619 15.5455438 10.8667056 15.694194 10.5157921 15.6162587 10.1098522 15.3482253 9.83893671 15.0801918 9.56802121 14.6751087 9.4857489 14.3226255 9.63063761 13.9701423 9.77552632 13.7400216 10.1189001 13.74 10.5 13.7399708 11.0152674 14.1547618 11.4345184 14.67 11.44L14.67 11.44z"/>
        </g>
        <path id="Path" fill="#E05362" fill-opacity=".5" fill-rule="nonzero" d="M23.9,25.77 C23.1535766,23.9005077 21.7728866,22.3534268 20,21.4 C18.5367862,20.7793845 16.9769872,20.4173488 15.39,20.33 C12.8872167,20.0019369 10.3576395,19.9282274 7.84,20.11 C2.68,20.44 1.65,27.22 2.41,30.8 C3.01,33.47 3.15,36.15 4.85,38.5 C6.65,41.03 9.47,40.5 11.27,38.35 C11.6178567,37.9400325 11.9103583,37.4861506 12.14,37 C13.23,37.07 14.3,37.17 15.38,37.3 C16.5318535,37.5300334 17.7058016,37.6306575 18.88,37.6 C21.1,37.35 22.06,36.16 23.38,34.6 C25.19,32.39 25.04,28.21 23.9,25.76 L23.9,25.77 Z"/>
        <path id="Path" fill="#E05564" fill-opacity=".5" d="M24.36,38.3 C25.0779449,38.18534 25.8137134,38.2790464 26.48,38.57 C28.2875927,39.3173664 30.0564897,40.1550893 31.78,41.08 C32.9511173,41.6945731 33.9380708,42.6090579 34.64,43.73 C34.8697595,44.3356071 34.8697595,45.0043929 34.64,45.61 C34.3797611,46.3020971 33.9778477,46.9322156 33.46,47.46 C32.8882247,48.0701143 32.2106076,48.5715509 31.46,48.94 C30.9304963,49.1568107 30.3620392,49.2623326 29.79,49.25 C27.5308322,48.985686 25.3904075,48.0955741 23.61,46.68 C22.08,45.46 21.2,43.68 20.08,42.14 C19.6260421,41.5359136 19.4749009,40.7567081 19.6700881,40.026708 C19.8652753,39.296708 20.3851329,38.696914 21.08,38.4 C22.0976173,37.8693656 23.3018599,37.8325386 24.35,38.3 L24.36,38.3 Z"/>
        <path id="Path" fill="#3D454C" fill-rule="nonzero" d="M14.37,31.68 C14.8836248,31.68 15.3,31.2636248 15.3,30.75 C15.3,30.2363752 14.8836248,29.82 14.37,29.82 C13.8563752,29.82 13.44,30.2363752 13.44,30.75 C13.44,31.2636248 13.8563752,31.68 14.37,31.68 Z"/>
        <path id="Path" fill="#3C454E" d="M27.48,34.69 C27.75,31.23 28.09,29.18 27.2,25.8 C27.0213749,24.5133443 26.549203,23.285013 25.82,22.21 C24.26,20.51 21.63,20.28 19.49,20.5 C16.4780322,20.7098753 13.5198357,21.4055242 10.73,22.56 C8.76584218,23.3739705 7.17077516,24.8835875 6.25,26.8 C5.8184295,28.0541334 5.60862679,29.3738601 5.63,30.7 C5.49,33.47 5.57,37 7,39.54 C8.0658128,40.9369419 9.63979765,41.8568965 11.38,42.1 C14.18,42.72 17.56,42.45 19.25,41.42 C19.5340262,41.2413672 19.7011777,40.9247776 19.6884902,40.5894873 C19.6758028,40.254197 19.4852038,39.9511447 19.1884902,39.7944873 C18.8917766,39.6378298 18.5340261,39.6513672 18.25,39.83 C16.86,40.68 14.06,40.83 11.75,40.28 C10.5171353,40.1467657 9.38243653,39.5454112 8.58,38.6 C7.28,36.38 7.3,33.24 7.42,30.79 C7.41903449,29.6808402 7.61542855,28.5803563 8,27.54 C8.74617567,26.0425704 10.0167404,24.8716577 11.57,24.25 C14.1667347,23.1822596 16.918796,22.5406748 19.72,22.35 C21.32,22.19 23.32,22.2 24.48,23.47 C24.7362285,23.8101713 24.9138258,24.2029346 25,24.62 C25.16,25.18 25.26,25.77 25.4,26.27 C26.22,29.42 25.87,31.32 25.62,34.55 C25.5813401,35.0636248 25.9663752,35.51134 26.48,35.55 C26.9936248,35.5886599 27.4413401,35.2036248 27.48,34.69 L27.48,34.69 Z"/>
        <path id="Path" fill="#3C454E" d="M20.38,20.42 C14.64,19.1 8.8,17.64 3.53,21.42 C1.63567099,22.5816007 0.521334809,24.6800757 0.62,26.9 C0.62,28.08 0.82,29.35 0.91,30.75 C0.98,31.75 0.72,33.34 0.75,34.75 C0.702200038,35.7927327 0.98194162,36.8242798 1.55,37.7 C2.29126552,38.4766445 3.20637172,39.0661511 4.22,39.42 C5.67,40.02 7.38,40.49 8.31,40.95 C8.77550321,41.1417608 9.31098179,40.9575561 9.56,40.52 C9.78250748,40.058774 9.59028289,39.5044519 9.13,39.28 C8.13,38.81 6.43,38.28 4.93,37.7 C4.20683395,37.4651119 3.54676341,37.0683856 3,36.54 C2.6782891,35.9867189 2.53511105,35.3476559 2.59,34.71 C2.59,33.28 2.82,31.66 2.75,30.63 C2.66,29.27 2.46,28.04 2.46,26.9 C2.39140835,25.2789061 3.20665033,23.7479352 4.59,22.9 C9.39,19.47 14.72,21 19.94,22.2 C20.2696082,22.2924032 20.6233323,22.1962651 20.8608213,21.9497313 C21.0983103,21.7031974 21.1811661,21.3461286 21.076513,21.0202027 C20.97186,20.6942768 20.6966188,20.4521909 20.36,20.39 L20.38,20.42 Z"/>
        <path id="Shape" fill="#3C454E" d="M18.27,40.15 C19.3642317,38.3894327 21.0362607,37.0638283 23,36.4 C23.8613427,36.2144821 24.7611055,36.3800384 25.5,36.86 C26.37,37.35 27.22,38.15 27.93,38.46 C28.6999124,38.7477658 29.5092254,38.9163727 30.33,38.96 C31.3384769,39.0238824 32.3289947,39.2571443 33.26,39.65 C33.755526,39.9029546 34.165841,40.2958834 34.44,40.78 C34.7746569,41.3782374 34.9982616,42.0321117 35.1,42.71 C35.3949792,45.2999047 34.3648068,47.8640563 32.36,49.53 C31.7114093,50.0133978 30.9185711,50.2635823 30.11,50.24 C29.1140501,50.1726889 28.1317969,49.9708561 27.19,49.64 C25.29,49.05 22.71,47.84 21.46,46.22 C20.9236721,45.4163339 20.4808071,44.5540892 20.14,43.65 C19.9662491,43.076852 19.6163559,42.5730057 19.14,42.21 C18.1447142,43.9154485 16.8147064,45.4019278 15.23,46.58 C14.7346787,46.8864876 14.184455,47.0936706 13.61,47.19 C13.1862003,47.2599495 12.7537997,47.2599495 12.33,47.19 C11.5266954,47.1292497 10.8013675,46.6866137 10.38,46 C10.0668402,45.3819869 9.98866543,44.6713075 10.16,44 C10.4289152,42.9414384 10.8571372,41.9298904 11.43,41 C11.5839565,40.6942594 11.8934265,40.4978119 12.2356182,40.4886043 C12.5778099,40.4793966 12.8973964,40.6589174 13.067572,40.9559363 C13.2377475,41.2529552 13.2309974,41.619449 13.05,41.91 C12.5791808,42.6765697 12.22529,43.5090556 12,44.38 C11.9238065,44.6036897 11.9238065,44.8463103 12,45.07 C12.09,45.24 12.3,45.31 12.61,45.36 C12.8248302,45.3998952 13.0451698,45.3998952 13.26,45.36 C13.5951799,45.3075017 13.9154989,45.1848263 14.2,45 C15.4641436,44.0804577 16.5204086,42.904937 17.3,41.55 C17.2289271,41.4316718 17.1877404,41.2978151 17.18,41.16 C17.1456479,40.6441331 17.5343421,40.1973582 18.05,40.16 L18.27,40.15 Z M20.21,40.67 C20.7655834,41.0772799 21.2149169,41.6123641 21.52,42.23 C21.9097344,43.2158955 22.3779015,44.1689501 22.92,45.08 C23.92,46.43 26.15,47.37 27.72,47.85 C28.3688006,48.0813754 29.0386464,48.2488368 29.72,48.35 C30.2258521,48.4447831 30.7487729,48.3409153 31.18,48.06 C32.6561404,46.8133575 33.4074901,44.9086861 33.18,42.99 C33.1249484,42.6198886 33.0171884,42.2595659 32.86,41.92 C32.7715498,41.6745836 32.6022874,41.4665319 32.38,41.33 C31.6353435,41.0245491 30.8439387,40.8486814 30.04,40.81 C29.0333306,40.7461652 28.0421131,40.53039 27.1,40.17 C26.3684904,39.7376507 25.6669054,39.2565638 25,38.73 C24.7185938,38.5314945 24.4127311,38.3701603 24.09,38.25 C23.9053907,38.1859927 23.7046093,38.1859927 23.52,38.25 C22.1807914,38.6825555 21.0256878,39.5524048 20.24,40.72 L20.21,40.67 Z"/>
        <path id="Path" fill="#3C454E" d="M15 46.72C17.3979908 46.5135457 19.8121402 46.5974869 22.19 46.97 22.6979736 47.0412997 23.1677607 46.6878409 23.24 46.18 23.2933346 45.6905458 22.947711 45.2474386 22.46 45.18 19.9169606 44.7790128 17.3343159 44.6916932 14.77 44.92 14.2783831 44.9872972 13.9237428 45.4251247 13.96 45.92 14.0225589 46.4142703 14.4635131 46.7714432 14.96 46.73L15 46.72zM11.89 38.65C14.43 37.65 16.89 36.65 17.45 33.77 17.5414196 33.2679449 17.2111991 32.7860015 16.71 32.69 16.466984 32.6403213 16.2142043 32.6908753 16.008987 32.8301971 15.8037697 32.969519 15.6635041 33.1858031 15.62 33.43 15.3942183 34.5013168 14.6747083 35.4025588 13.68 35.86 12.8786573 36.262522 12.0538355 36.6164941 11.21 36.92 10.8893029 37.0331719 10.655952 37.3123659 10.6014889 37.6480567 10.5470258 37.9837474 10.6801365 38.3223969 10.948603 38.5311558 11.2170695 38.7399147 11.5780749 38.7854889 11.89 38.65L11.89 38.65zM21.25 24.15C20.3042631 25.1279443 19.5990074 26.3125 19.19 27.61 18.8882634 28.6342359 18.3186679 29.5593972 17.54 30.29 17.1451164 30.6186094 17.0913906 31.2051164 17.42 31.6 17.7486094 31.9948836 18.3351164 32.0486094 18.73 31.72 19.7539382 30.7914923 20.5131129 29.6078699 20.93 28.29 21.2329224 27.2536791 21.7779099 26.3042355 22.52 25.52 22.898315 25.1692992 22.9207008 24.5783151 22.57 24.2 22.2192992 23.821685 21.6283151 23.7992992 21.25 24.15L21.25 24.15zM19.16 33.84C20.3897924 34.4922027 21.827387 34.6323682 23.16 34.23 23.6598177 34.1084974 23.9665026 33.6048177 23.845 33.105 23.7234974 32.6051823 23.2198177 32.2984974 22.72 32.42 21.8491889 32.7057657 20.9009157 32.6375187 20.08 32.23 19.8655903 32.1035764 19.6094505 32.068377 19.3688861 32.132277 19.1283217 32.1961769 18.9234116 32.3538427 18.8 32.57 18.6756018 32.7853333 18.6436756 33.0418547 18.7114963 33.2811113 18.7793171 33.5203678 18.9411072 33.7219775 19.16 33.84z"/>
      </g>
    </g>
  </g>
</svg>
