<svg xmlns="http://www.w3.org/2000/svg" width="64" height="64" viewBox="0 0 64 64" style="background:#fff">
  <g id="Rollgerste" fill="none" fill-rule="evenodd" stroke="none" stroke-width="1">
    <rect width="64" height="64" fill="#FFF"/>
    <g transform="translate(2 4)">
      <rect id="Rectangle" width="60" height="60" x="0" y="0"/>
      <path id="Path" fill="#E0A075" fill-rule="nonzero" d="M6.54 10.62C4.96 11.91 4.92 14.36 5.54 16.11 7.21977913 20.5641981 10.9421323 23.9366501 15.54 25.17 19.64 26.17 20.54 18.32 16.96 17.43 14.0486413 16.8127091 11.6432909 14.7719196 10.56 12 10.3236788 11.1882766 9.70744644 10.5421364 8.90782521 10.2676396 8.10820398 9.99314276 7.22504657 10.124567 6.54 10.62zM31.91 25.44C30.2268042 27.4852276 28.1617739 29.1834433 25.83 30.44 24.1485605 31.4702642 23.3530066 33.4897472 23.88 35.39 24.19 36.79 25.75 39.08 27.52 38.12 30.8401765 36.3464238 33.7712275 33.9254165 36.14 31 38.52 28.09 35 21.58 31.91 25.44zM48.46 33.45C46.884703 34.6820629 44.7122186 34.8133669 43 33.78 41.24 32.86 39.72 35.23 39.46 36.63 38.9939088 38.550656 39.85953 40.547301 41.58 41.52 44.8572082 43.1420655 48.7842459 42.666894 51.58 40.31 53.11 39.07 53.3 36.52 52.53 34.82 51.76 33.12 50 32.22 48.46 33.45zM23.77 51.69C26.9215289 54.0729721 31.0776579 54.666165 34.77 53.26 38.26 51.96 37.02 44.11 33.09 45.57 30.939892 46.4174579 28.5055075 46.104196 26.64 44.74 22.92 42.05 20.81 49.53 23.77 51.69zM15.19 36.35C14.19 38.15 11.82 39.12 9.84 39.2 5.94 39.35 6.08 47.35 9.98 47.2 14.62 47.02 18.15 44.27 20.3 40.3 21.1313358 38.4239696 20.6725541 36.2266468 19.16 34.84 17.48 33.58 16 34.86 15.19 36.35zM35.32 7.26C35.0447843 8.30082257 34.4063202 9.20886031 33.52 9.82 32.6069001 10.4952204 31.5143025 10.8849368 30.38 10.94 26.47 11.17 26.64 19.17 30.52 18.94 35.0868019 18.6154418 39.0034303 15.5603927 40.43 11.21 41.02 9.42 40.93 7 39.29 5.76 38.591873 5.28349183 37.7051493 5.17762046 36.9144596 5.47636971 36.1237699 5.77511896 35.5286021 6.44089899 35.32 7.26zM49.44 13.92C48.5 17.23 45.56 19.68 42.44 20.84 39 22.14 40.21 30 44.14 28.52 49.81 26.4 53.49 21.65 55.14 15.94 55.61 14.27 54.77 11.67 53.01 11.06 51 10.37 49.88 12.36 49.44 13.92z" opacity=".5"/>
      <path id="Shape" fill="#3D454C" fill-rule="nonzero" d="M34.16 4.62C30.2998864 5.26147254 27.2763423 8.28903736 26.64 12.15 26.3470391 13.8830688 26.8923271 15.6524724 28.11 16.92 30.49 19.31 34.87 18.82 37.85 15.84 39.442675 14.3051894 40.3752067 12.2105798 40.45 10 40.4877877 8.55642765 39.9436583 7.15826735 38.94 6.12 37.6724522 4.89403885 35.900738 4.3380616 34.16 4.62zM36.44 14.42C34.23 16.63 31.13 17.12 29.52 15.51 28.7501042 14.6711502 28.4170815 13.5203717 28.62 12.4 28.8510441 10.9451153 29.5537517 9.60645728 30.62 8.59 31.6341758 7.52073174 32.9739254 6.8174511 34.43 6.59 35.1258764 6.49122914 35.8354678 6.57389998 36.49 6.83 36.1806379 8.44376111 35.372684 9.91976347 34.18 11.05 33.25 11.95 34.67 13.36 35.59 12.47 36.7663296 11.3373436 37.6396608 9.92763581 38.13 8.37 38.91 10.09 38.29 12.57 36.44 14.42zM39.18 37.12C39.18 40.5 42.62 43.24 46.84 43.24 51.06 43.24 54.5 40.5 54.5 37.12 54.5 33.74 51.07 31 46.84 31 42.61 31 39.18 33.75 39.18 37.12zM52.5 37.12C52.5 39.39 49.96 41.24 46.84 41.24 43.72 41.24 41.18 39.39 41.18 37.12 41.18 34.85 43.72 33 46.84 33 49.96 33 52.5 34.85 52.5 37.12zM42.51 16.4C41.1327983 17.7405389 40.2364528 19.4980792 39.96 21.4 39.6315587 23.1351238 40.1821734 24.9204166 41.4308784 26.1691216 42.6795834 27.4178266 44.4648762 27.9684413 46.2 27.64 48.1026117 27.3657212 49.8608152 26.4690374 51.2 25.09 52.578447 23.7490857 53.4779395 21.9922642 53.76 20.09 53.7993278 19.7916019 53.8193694 19.4909779 53.82 19.19 53.8547407 17.7431465 53.3029103 16.3437334 52.29 15.31 51.0169057 14.094868 49.2458995 13.5502281 47.51 13.84 45.6077358 14.1220605 43.8509143 15.021553 42.51 16.4zM50.84 16.73C51.6138488 17.5625824 51.9476832 18.7124567 51.74 19.83 51.2260544 22.7725376 48.9370343 25.0854847 46 25.63 44.8796283 25.8329185 43.7288498 25.4998958 42.89 24.73 42.2612356 24.0640739 41.9230607 23.1754652 41.95 22.26 41.95 22.05 41.95 21.84 41.95 21.63 42.1853092 20.1736506 42.8871717 18.8330933 43.95 17.81 44.9641758 16.7407317 46.3039254 16.0374511 47.76 15.81 48.874558 15.609317 50.0181056 15.9508961 50.84 16.73L50.84 16.73zM25.09 25.62C22.09 28.62 21.62 32.98 24.01 35.37 25.2816451 36.5871548 27.0552932 37.1288967 28.79 36.83 30.6926117 36.5557212 32.4508152 35.6590374 33.79 34.28 35.3919899 32.7425387 36.3287773 30.6392535 36.4 28.42 36.4355621 26.9719522 35.8878831 25.5703262 34.88 24.53 32.45 22.15 28.08 22.63 25.09 25.62zM26.51 27C28.34 25.18 30.76 24.55 32.46 25.29 31.4520649 28.9981176 28.4084962 31.8006886 24.63 32.5 24.5339994 32.1547176 24.4835717 31.7983619 24.48 31.44 24.5561228 29.7529524 25.2838599 28.1612514 26.51 27L26.51 27zM34.32 29C33.799408 31.9573483 31.4864456 34.2743055 28.53 34.8 27.6091023 34.9481087 26.665897 34.7523491 25.88 34.25 29.6279958 33.2421383 32.6681831 30.5029964 34.06 26.88 34.3464252 27.5651733 34.4364525 28.3165557 34.32 29.05L34.32 29zM25.93 43.16C24.3520193 43.9418585 23.2387496 45.4262182 22.93 47.16 22.6867542 48.9001157 23.2713339 50.6538549 24.51 51.9 27.281494 54.6516659 31.4917016 55.3460091 35 53.63 36.5758844 52.8456228 37.6882455 51.3624747 38 49.63 38.0476804 49.3592933 38.0711067 49.0848715 38.0700374 48.81 38.0700374 45.81 35.28 42.96 31.46 42.32 29.5744102 41.9874143 27.631779 42.2824976 25.93 43.16L25.93 43.16zM31.13 44.33C34.21 44.84 36.42 47.07 36.03 49.33 35.79657 50.4401186 35.0562533 51.3766192 34.03 51.86 31.3207009 53.1535001 28.0916487 52.6139926 25.95 50.51 25.276564 49.8423863 24.8770759 48.9471051 24.83 48 24.8151484 47.8370043 24.8151484 47.6729957 24.83 47.51 25.057638 46.3947679 25.7992793 45.4528835 26.83 44.97 28.1535332 44.2883017 29.6653089 44.0632932 31.13 44.33z"/>
      <path id="Path" fill="#3D454C" fill-rule="nonzero" d="M31.13,14.0000001 C31.13,14.5522847 31.5777153,15.0000001 32.13,15.0000001 C32.6822847,15.0000001 33.13,14.5522847 33.13,14.0000001 C33.13,13.4477153 32.6822847,13.0000001 32.13,13.0000001 C31.5777153,13.0000001 31.13,13.4477153 31.13,14.0000001 L31.13,14.0000001 Z"/>
      <path id="Shape" fill="#3D454C" fill-rule="nonzero" d="M20.45,38.37 C20.4877877,36.9264276 19.9436583,35.5282673 18.94,34.49 C16.55,32.1 12.18,32.59 9.19,35.58 C6.2,38.57 5.72,42.94 8.11,45.32 C10.5,47.7 14.87,47.22 17.85,44.24 C19.4498002,42.6978241 20.3829432,40.5910742 20.45,38.37 L20.45,38.37 Z M9.52,43.91 C8.89123564,43.2440739 8.55306066,42.3554652 8.58,41.44 C8.56539602,41.2269166 8.56539602,41.0130834 8.58,40.8 C8.8110441,39.3451153 9.51375175,38.0064573 10.58,36.99 C12.38,35.19 14.76,34.56 16.45,35.25 C16.1406379,36.8637611 15.332684,38.3397635 14.14,39.47 C13.21,40.37 14.63,41.78 15.55,40.89 C16.7230189,39.7546727 17.5957951,38.3458608 18.09,36.79 C18.399405,37.4863216 18.5034873,38.2565307 18.39,39.01 C18.1603858,40.4653588 17.4574507,41.8044504 16.39,42.82 C15.3708586,43.8826851 14.0334763,44.584723 12.58,44.82 C11.4742941,45.0039989 10.3454782,44.6683053 9.52,43.91 L9.52,43.91 Z"/>
      <path id="Path" fill="#3D454C" fill-rule="nonzero" d="M11.13,42.36 C11.13,42.9122847 11.5777153,43.36 12.13,43.36 C12.6822847,43.36 13.13,42.9122847 13.13,42.36 C13.13,41.8077153 12.6822847,41.36 12.13,41.36 C11.5777153,41.36 11.13,41.8077153 11.13,42.36 Z"/>
      <path id="Shape" fill="#3D454C" fill-rule="nonzero" d="M21.2,19.88 C21.139797,17.6544661 20.2057669,15.5421213 18.6,14 C17.2604303,12.6197338 15.5029542,11.719906 13.6,11.44 C11.8672554,11.1519125 10.1000028,11.6965375 8.83,12.91 C7.6092391,14.1797877 7.06371379,15.9536727 7.36,17.69 C7.63427882,19.5926117 8.53096262,21.3508152 9.91,22.69 C11.2509143,24.068447 13.0077358,24.9679395 14.91,25.25 C16.6458995,25.5397719 18.4169057,24.995132 19.69,23.78 C20.6986871,22.7368342 21.2432139,21.3304403 21.2,19.88 L21.2,19.88 Z M15.2,23.25 C13.7458221,23.0168289 12.4078065,22.3144585 11.39,21.25 C10.3237517,20.2335427 9.6210441,18.8948847 9.39,17.44 C9.37539602,17.2269166 9.37539602,17.0130834 9.39,16.8 C9.36306066,15.8845348 9.70123564,14.9959261 10.33,14.33 C11.94,12.73 15.04,13.21 17.25,15.42 C19.05,17.22 19.68,19.6 18.99,21.29 C17.3558501,21.0019868 15.8563604,20.1996897 14.71,19 C13.81,18.07 12.4,19.49 13.29,20.42 C14.4259112,21.5900408 15.8348049,22.4594313 17.39,22.95 C16.6917709,23.252617 15.9235066,23.3564365 15.17,23.25 L15.2,23.25 Z"/>
      <path id="Path" fill="#3D454C" fill-rule="nonzero" d="M12.82 17C12.82 16.4477153 12.3722847 16 11.82 16 11.2677153 16 10.82 16.4477153 10.82 17 10.82 17.5522847 11.2677153 18 11.82 18 12.3722847 18 12.82 17.5522847 12.82 17zM43.11 37.91C43.11 38.4622847 43.5577153 38.91 44.11 38.91 44.6622847 38.91 45.11 38.4622847 45.11 37.91 45.11 37.3577153 44.6622847 36.91 44.11 36.91 43.5577153 36.91 43.11 37.3577153 43.11 37.91z"/>
    </g>
  </g>
</svg>
