<svg xmlns="http://www.w3.org/2000/svg" width="64" height="64" viewBox="0 0 64 64" style="background:#fff">
  <g id="Romanesco" fill="none" fill-rule="evenodd" stroke="none" stroke-width="1">
    <rect width="64" height="64" fill="#FFF"/>
    <g transform="translate(2 6)">
      <rect id="Rectangle" width="60" height="60" x="0" y="0"/>
      <path id="Path" fill="#31E085" fill-rule="nonzero" d="M54.91,29.56 L54.52,29.4 C53.5912778,29.0644606 52.5613897,29.1597528 51.71,29.66 C51.3392736,27.5434255 50.3268878,25.5919648 48.81,24.07 C43.28,18.63 35.11,7.31 26.18,8.87 C21.97,9.61 19.18,13.13 16.64,16.32 C13.9145788,19.6494516 11.5042304,23.2248018 9.44,27 C7.75,26 5.65,26.34 4.77,29.22 C2.77,35.75 4.91,43.38 10.77,47.22 C15.4605029,50.1077124 21.1403856,50.9155018 26.45,49.45 C31.83,54.82 41.71,54.65 48.23,50.71 C51.8750036,48.5644564 54.7990944,45.3827671 56.63,41.57 C58.11,38.46 59.29,31.35 54.91,29.56 Z" opacity=".5"/>
      <path id="Shape" fill="#3D454C" fill-rule="nonzero" d="M53.91,33.56 C52.21,32.25 49.91,33.25 49.04,33.63 C46.3733333,34.7966667 43.7333333,36.0766667 41.12,37.47 L40.47,34 C40.2080548,32.6300141 39.0938524,31.5844401 37.71,31.41 C37.6634653,31.4050365 37.6165347,31.4050365 37.57,31.41 L35.49,31.41 L35,31 C35.4211899,31.1116262 35.8661744,30.9376777 36.1,30.57 L37.31,28.57 C37.5324196,28.1799537 37.9630773,27.9567947 38.41,28 L40.19,28.2 C40.4007285,28.2212538 40.6130245,28.1794906 40.8,28.08 L44.14,26.17 C44.5526617,25.9421112 45.0708095,26.0630123 45.34,26.45 L47.65,29.86 C47.7801414,30.0478913 47.97072,30.1855314 48.19,30.25 L51.67,31.3 C51.7663863,31.3104128 51.8636137,31.3104128 51.96,31.3 C52.3979833,31.2969191 52.7829925,31.0091753 52.91,30.59 C52.9877061,30.3353896 52.9606869,30.0603046 52.8349275,29.8256788 C52.7091681,29.5910531 52.4950492,29.4162536 52.24,29.34 L49.11,28.4 L47,25.34 C46.1435286,24.0938062 44.4773608,23.7076371 43.16,24.45 L40.09,26.2 L38.63,26 C37.4281307,25.8727649 36.2603976,26.4488465 35.63,27.48 L34.43,29.48 C34.2887361,29.7181336 34.2525279,30.0041783 34.33,30.27 L31.61,27.65 C30.203399,26.412318 28.0649916,26.5279076 26.8,27.91 L25.38,29.47 L24.17,27.47 C23.5430638,26.4350647 22.372764,25.8577168 21.17,25.99 L19.71,26.15 L16.65,24.4 C15.3326392,23.6576371 13.6664714,24.0438062 12.81,25.29 L10.69,28.41 L7.56,29.35 C7.30310862,29.424134 7.08660383,29.5980557 6.95883444,29.8329259 C6.83106505,30.0677961 6.80267348,30.3440515 6.88,30.6 C7.01205152,31.0372829 7.42363007,31.3295036 7.88,31.31 C7.97642378,31.319691 8.07357622,31.319691 8.17,31.31 L11.65,30.26 C11.86928,30.1955314 12.0598586,30.0578913 12.19,29.87 L14.5,26.46 C14.7691905,26.0730123 15.2873383,25.9521112 15.7,26.18 L19,28.1 C19.182549,28.2017087 19.3923745,28.2436738 19.6,28.22 L21.39,28.02 C21.8257027,27.9821321 22.246149,28.1904266 22.48,28.56 L23.68,30.56 C23.7833643,30.7171052 23.9289345,30.8418796 24.1,30.92 L23.56,31.52 L21.49,31.77 C19.9616437,31.9602422 18.7968745,33.2308995 18.74,34.77 L18.67,37.49 C16.0833333,36.11 13.4466667,34.8333333 10.76,33.66 C9.89,33.28 7.58,32.28 5.89,33.59 C4.89,34.36 4.45,35.68 4.57,37.5 C4.94226299,42.542949 7.76339562,47.0829174 12.12,49.65 C16.5087563,52.1600482 21.850416,52.3544263 26.41,50.17 C26.9070562,49.9269947 27.1130052,49.3270563 26.8699999,48.83 C26.6269947,48.3329438 26.0270563,48.1269948 25.53,48.37 C21.5636761,50.2342771 16.9408833,50.0666497 13.12,47.92 C9.34161102,45.6681609 6.88903222,41.7246527 6.54,37.34 C6.54,36.57 6.54,35.56 7.09,35.14 C7.64,34.72 8.5,34.84 9.93,35.46 C16.6883612,38.4068529 23.1283828,42.0356476 29.15,46.29 C29.3594441,46.4366229 29.6170927,46.4974566 29.87,46.46 L29.87,46.46 C30.1229073,46.4974566 30.3805559,46.4366229 30.59,46.29 C36.6211126,42.0338697 43.0712659,38.4050302 49.84,35.46 C51.26,34.84 52.17,34.74 52.68,35.14 C53.19,35.54 53.28,36.57 53.23,37.34 C52.9431099,41.7384451 50.4813183,45.704018 46.6666997,47.9124814 C42.8520812,50.1209447 38.187269,50.2813003 34.23,48.34 C33.7361422,48.1180435 33.1553346,48.3294586 32.9197157,48.8169459 C32.6840968,49.3044333 32.8792609,49.8909014 33.36,50.14 C37.919584,52.3244263 43.2612437,52.1300482 47.65,49.62 C52.0066044,47.0529174 54.827737,42.512949 55.2,37.47 C55.35,35.65 54.91,34.33 53.91,33.56 Z M20.71,34.8 C20.7310271,34.2425044 21.1557664,33.7837859 21.71,33.72 L24.16,33.43 C24.3983824,33.4012275 24.6184536,33.2876423 24.78,33.11 L28.28,29.26 C28.7993716,28.6806913 29.6849856,28.6186983 30.28,29.12 L34.45,33.12 C34.6387188,33.3071865 34.894197,33.4115368 35.16,33.41 L37.57,33.41 C38.0882849,33.484541 38.495459,33.8917151 38.57,34.41 L39.35,38.52 C36.1185259,40.3221752 32.9811136,42.2880644 29.95,44.41 C26.9633333,42.3233333 23.8733333,40.38 20.68,38.58 L20.71,34.8 Z"/>
      <path id="Path" fill="#3D454C" fill-rule="nonzero" d="M18.19,22.9 L20.19,21.2 C20.4069074,21.0145709 20.5342622,20.7453066 20.54,20.46 L20.66,16.32 C20.6810271,15.7625044 21.1057664,15.3037859 21.66,15.24 L24.14,15 C24.3783824,14.9712275 24.5984536,14.8576423 24.76,14.68 L28.26,10.83 C28.7793716,10.2506913 29.6649856,10.1886983 30.26,10.69 L34.43,14.69 C34.6221745,14.8718971 34.8754326,14.9753406 35.14,14.98 L37.55,14.98 C38.0682849,15.054541 38.475459,15.4617151 38.55,15.98 L39.44,20.7 C39.4838299,20.9368268 39.611661,21.1498786 39.8,21.3 L41.93,23 C42.1059393,23.1411606 42.3244358,23.2186916 42.55,23.2200891 C42.856084,23.2240813 43.1471772,23.0877465 43.34,22.85 C43.5066477,22.6421554 43.5834734,22.376407 43.553436,22.1117023 C43.5233986,21.8469976 43.3889813,21.6052201 43.18,21.44 L41.34,19.97 L40.52,15.61 C40.2580548,14.2400141 39.1438524,13.1944401 37.76,13.02 L37.62,13.02 L35.54,13.02 L31.64,9.25 C30.235303,8.00684016 28.0925082,8.12266691 26.83,9.51 L23.53,13 L21.46,13.25 C19.9316437,13.4402422 18.7668745,14.7108995 18.71,16.25 L18.61,20 L16.91,21.41 C16.4847408,21.7634622 16.4265378,22.3947407 16.78,22.82 C17.1334623,23.2452592 17.7647407,23.3034622 18.19,22.95 L18.19,22.9 Z"/>
      <path id="Path" fill="#3D454C" fill-rule="nonzero" d="M25.55 20.4C26.1022847 20.4 26.55 19.9522847 26.55 19.4 26.55 18.8477153 26.1022847 18.4 25.55 18.4 24.9977153 18.4 24.55 18.8477153 24.55 19.4 24.55 19.9522847 24.9977153 20.4 25.55 20.4zM36.85 23.36C37.4022847 23.36 37.85 22.9122847 37.85 22.36 37.85 21.8077153 37.4022847 21.36 36.85 21.36 36.2977153 21.36 35.85 21.8077153 35.85 22.36 35.85 22.9122847 36.2977153 23.36 36.85 23.36zM26 36.05C25.4477153 36.05 25 36.4977153 25 37.05 25 37.6022847 25.4477153 38.05 26 38.05 26.5522847 38.05 27 37.6022847 27 37.05 27 36.4977153 26.5522847 36.05 26 36.05zM28.9 49.25L28.9 52.85C28.9 53.4022847 29.3477153 53.85 29.9 53.85 30.4522847 53.85 30.9 53.4022847 30.9 52.85L30.9 49.25C30.9 48.6977153 30.4522847 48.25 29.9 48.25 29.3477153 48.25 28.9 48.6977153 28.9 49.25z"/>
    </g>
  </g>
</svg>
