<svg xmlns="http://www.w3.org/2000/svg" width="64" height="64" viewBox="0 0 64 64" style="background:#fff">
  <g id="Rosenkohl" fill="none" fill-rule="evenodd" stroke="none" stroke-width="1">
    <rect width="64" height="64" fill="#FFF"/>
    <g id="20-Rosenkohl" transform="translate(2 4)">
      <rect id="Rectangle" width="60" height="60" x="0" y="0"/>
      <path id="Path" fill="#31E085" fill-rule="nonzero" d="M29.57 13.42C24.4 5.65 14.45 10.09 12.57 17.42L12.33 17.42C10.7115651 17.5923981 9.21308876 18.3540939 8.12 19.56 5.12 22.56 4.88 27.89 6.56 31.56 8.24 35.23 11.69 38.14 15.88 37.01 19.05 36.15 20.07 33.59 22.57 32.01 24.85 30.53 27.85 30.22 29.75 27.53 32.53 23.5 32.26 17.45 29.57 13.42zM54.55 27C53.87 25.38 51.45 23.24 49.83 25.24 48.8053395 26.3500236 47.3383093 26.9441709 45.83 26.86 48.24 26.37 49.16 23.86 49.1 21.58 49.09 20 48 16 45.58 16.5 38.24 18 33.52 26.93 38 33.61 41.16 38.37 50 38.61 53.54 34.19 55.1904475 32.1689089 55.5797433 29.3975853 54.55 27L54.55 27zM32.45 34.36C29.3 32.36 27.39 36.17 27.6 39.44 27.5331658 40.1049916 27.5331658 40.7750084 27.6 41.44L27.52 41.44C26.96 41.44 26.34 41.62 25.76 41.63 24.2749813 41.5797594 22.7882648 41.6298735 21.31 41.78 18.59 42.21 17.66 45.84 18.31 48.17 19.26 51.55 21.19 54.27 24.82 54.97 28.4981761 55.4491701 32.2355549 54.8152438 35.55 53.15 43.54 49.05 38 37.82 32.45 34.36z" opacity=".5"/>
      <g id="brussels_sprouts" stroke="#3D454C" stroke-linecap="round" stroke-linejoin="round" stroke-width="2" transform="translate(4 8)">
        <path id="Path" d="M15.05,22.44 C10.83,19.15 5.66,21.5 5.66,21.5 C4.14015361,20.9583294 2.47984639,20.9583294 0.96,21.5 C2.08,21.97 2.58,23.82 3.31,24.79 C5.56107104,27.7703838 9.36445458,29.1332842 12.9961177,28.2609131 C16.6277808,27.388542 19.3971323,24.446788 20.0488548,20.7691167 C20.7005773,17.0914454 19.1107404,13.3771968 16,11.31 C15.0103639,10.7022844 14.1994957,9.84310919 13.65,8.82 C11.2904677,10.5321061 10.1838918,13.4895384 10.84,16.33 C10.0164692,17.6197512 10.0164692,19.2702488 10.84,20.56"/>
        <path id="Path" d="M2.15,21.19 C1.98773329,20.5355907 1.90381148,19.8642162 1.9,19.19 C1.88529256,16.596555 3.00636787,14.1265858 4.96813999,12.4302299 C6.92991211,10.733874 9.53584018,9.98108149 12.1,10.37"/>
        <path id="Path" d="M5.43 12.06C5.27406394 12.6099136 5.19333008 13.1784145 5.19 13.75 5.18418755 15.0042935 5.55711894 16.2311332 6.26 17.27M37.47 24.66C40.76 20.43 38.41 15.26 38.41 15.26 38.9550845 13.7441801 38.9550845 12.0858199 38.41 10.57 37.94 11.68 36.09 12.19 35.12 12.91 32.1317228 15.1587545 30.7627974 18.9664006 31.6351277 22.6031213 32.507458 26.2398419 35.4547061 29.0121792 39.1379347 29.6606579 42.8211633 30.3091365 46.5380461 28.7101031 48.6 25.59 49.2079696 24.6031247 50.0673008 23.7955605 51.09 23.25 49.3804375 20.8867344 46.4225282 19.7760415 43.58 20.43 42.2909783 19.6039747 40.6390217 19.6039747 39.35 20.43"/>
        <path id="Path" d="M38.72,11.75 C39.3758446,11.5968781 40.046548,11.5163937 40.72,11.51 C45.64638,11.51 49.64,15.50362 49.64,20.43 C49.6373226,20.8551903 49.6039021,21.2796305 49.54,21.7"/>
        <path id="Path" d="M47.85 15C47.3002412 14.8433341 46.73164 14.762586 46.16 14.76 44.9067877 14.7615051 43.6820409 15.1338003 42.64 15.83M43.58 20.43C43.5753883 21.2362157 43.415826 22.0340272 43.11 22.78M27.36 40.23C24.61909 38.893136 21.4237974 38.8527822 18.65 40.12 17.0106636 39.5347769 15.2193364 39.5347769 13.58 40.12 14.78 40.63 15.33 42.63 16.12 43.67 18.5445248 46.9058342 22.6597336 48.3919781 26.5923187 47.4519156 30.5249038 46.5118532 33.5231266 43.3252833 34.2221489 39.3427828 34.9211712 35.3602822 33.1873704 31.3431311 29.81 29.12 28.7374106 28.4673518 27.8601007 27.5382323 27.27 26.43 24.7326054 28.285964 23.5512558 31.4795457 24.27 34.54 23.378809 35.9329907 23.378809 37.7170093 24.27 39.11"/>
        <path id="Path" d="M14.86,39.79 C14.6835529,39.069881 14.592923,38.3314152 14.59,37.59 C14.622965,32.2877963 18.9276966,28.0053921 24.23,28 C24.6919298,28.0060351 25.152947,28.0427828 25.61,28.11"/>
        <path id="Path" d="M18.4 29.93C18.2311738 30.5254774 18.1437134 31.1410639 18.14 31.76 18.1096673 32.8061601 18.3581634 33.8415606 18.86 34.76M24.23 34.54C25.0983638 34.5449362 25.9575399 34.7181298 26.76 35.05M22.57 13.05C23.7794284 12.6669878 24.7890932 11.8226062 25.38 10.7 27.73 10.23 30.08 12.11 30.08 12.11 29.14 13.52 28.46 14.43 27.73 15.4 26.57 17 26 17.27 24 18.25"/>
        <path id="Path" d="M11.61 6C12.0559326 4.68976399 12.8894026 3.54592237 14 2.72 14.94 1.88 16 1.31 16.92.37 16.92.37 20.68 1.78 20.21 6.94 22.3957565 7.74741942 23.887689 9.78258857 24 12.11M29 11.41C30.2785787 7.29686475 28.3512332 2.86779922 24.47 1M20.22 6.94C20.1962128 7.59259432 20.0361145 8.23298752 19.75 8.82"/>
      </g>
      <path id="Path" fill="#3D454C" fill-rule="nonzero" d="M34.08 50.35C34.6322847 50.35 35.08 49.9022847 35.08 49.35 35.08 48.7977153 34.6322847 48.35 34.08 48.35 33.5277153 48.35 33.08 48.7977153 33.08 49.35 33.08 49.9022847 33.5277153 50.35 34.08 50.35zM25.25 8.8C25.8022847 8.8 26.25 8.35228475 26.25 7.8 26.25 7.24771525 25.8022847 6.8 25.25 6.8 24.6977153 6.8 24.25 7.24771525 24.25 7.8 24.25 8.35228475 24.6977153 8.8 25.25 8.8z"/>
    </g>
  </g>
</svg>
