<svg xmlns="http://www.w3.org/2000/svg" width="64" height="64" viewBox="0 0 64 64" style="background:#fff">
  <g id="Rosmarin" fill="none" fill-rule="evenodd" stroke="none" stroke-width="1">
    <rect width="64" height="64" fill="#FFF"/>
    <g transform="translate(2 4)">
      <rect id="Rectangle" width="60" height="60" x="0" y="0"/>
      <path id="Path" fill="#31E085" fill-rule="nonzero" d="M56,13.77 C50.3024403,14.5365618 44.8414963,16.5400456 40,19.64 C40.8483109,16.1568623 41.2780145,12.5849513 41.28,9 C41.28,6.9 38.56,4.69 37.72,7.63 C35.78,14.46 33.51,20.9 29.64,26.91 C27.7184686,29.8335123 25.4927226,32.5453022 23,35 C25.5079426,28.942501 26.9035848,22.4825747 27.12,15.93 C27.19,13.45 23.88,10.93 22.98,14.34 C21.9715183,18.5068084 20.6887222,22.6024023 19.14,26.6 C18.1199171,28.9391654 16.9508506,31.2104945 15.64,33.4 C15.3710045,30.0581004 14.699478,26.7609052 13.64,23.58 C12.33,19.75 9.44,23.75 9.8,26.18 C10.4356114,30.0250626 10.3542416,33.9545461 9.56,37.77 C8.9,40.77 7.56,43.44 6.78,46.34 L5.78,46.68 C2.78,47.84 3.06,55.68 6.78,55.39 C11.44,54.98 15.93,54.31 20.62,54.86 C25.03,55.39 29.33,56.66 33.71,57.4 C36.18,57.81 35.5,53.03 34.52,52.07 C33.2114746,50.7964203 31.754314,49.6850836 30.18,48.76 C35.1498627,48.4741802 40.1356451,48.6616912 45.07,49.32 C47.92,49.63 47.07,44.32 45.45,43.32 C43.1762791,41.9758845 40.6962744,41.0163187 38.11,40.48 C38.88,40.33 39.66,40.18 40.45,40.08 C44.78,39.51 49.09,39.97 53.45,39.72 C56.45,39.54 55.94,34.26 53.87,33.22 C49.26,30.92 43.56,30.41 38.06,31.22 C38.77,30.65 39.5,30.08 40.24,29.54 C45.43,25.75 51.19,23.12 56.68,19.86 C58.37,18.8 58.77,13.46 56,13.77 Z" opacity=".5"/>
      <path id="Shape" fill="#3D454C" fill-rule="nonzero" d="M54.6,15.88 C55.0094744,15.659721 55.2130984,15.1862748 55.0913641,14.7375289 C54.9696298,14.2887829 54.5546592,13.983147 54.09,14 C49.8587575,15.3226675 45.9957607,17.617178 42.81,20.7 C42.11,21.41 41.4,22.14 40.68,22.86 C42.7910338,19.8124167 44.3138476,16.3971083 45.17,12.79 C45.2360941,12.4327344 45.1065687,12.0673466 44.8302147,11.8314746 C44.5538607,11.5956026 44.1726628,11.525081 43.8302147,11.6464746 C43.4877666,11.7678682 43.2360941,12.0627344 43.17,12.42 C42.32,17.11 38.83,22.16 36,26 C38.6282021,20.3248485 39.9538908,14.1337453 39.88,7.88 C39.88,7.32771525 39.4322847,6.88 38.88,6.88 L38.88,6.88 C38.3277153,6.88 37.88,7.32771525 37.88,7.88 C37.75,20.44 33.88,26.88 28.88,34.06 C30.63,28.48 31.33,20.39 31,9.09 C31,8.53771525 30.5522847,8.09 30,8.09 C29.4477153,8.09 29,8.53771525 29,9.09 C29.34,22.09 28.31,31 25.83,36.14 C25.9328263,33.9339667 25.5505091,31.7322294 24.71,29.69 C25.4635806,26.0951011 25.7559358,22.4188184 25.58,18.75 C25.58,18.1977153 25.1322847,17.75 24.58,17.75 C24.0277153,17.75 23.58,18.1977153 23.58,18.75 C23.6936151,21.4226667 23.5664353,24.1001357 23.2,26.75 C22.382103,25.4594814 21.4766444,24.2265876 20.49,23.06 C20.2452731,22.7938371 19.8771399,22.6784527 19.5242726,22.757311 C19.1714053,22.8361693 18.8874129,23.0972899 18.7792726,23.4423111 C18.6711322,23.7873322 18.755273,24.1638371 19,24.43 C20.4537275,26.1179682 21.6776855,27.9908929 22.64,30 C21.59,34.38 19.73,38.48 16.98,43.66 C15.5866667,44.6733333 14.1633333,45.6733333 12.71,46.66 C14.92,41.59 16.39,34.43 12.58,24.85 C12.4820649,24.6031923 12.2899921,24.4054678 12.0461274,24.3004184 C11.8022628,24.1953691 11.526631,24.1916208 11.28,24.29 C10.7699216,24.497903 10.5240113,25.0791456 10.73,25.59 C14.09,34.05 13.13,40.34 11.19,45.13 C11.41,41.61 11.1,37.29 10.1,34.6 C9.97674337,34.2641703 9.68368656,34.0196076 9.33122124,33.9584361 C8.97875591,33.8972647 8.62042993,34.0287779 8.39122124,34.3034361 C8.16201254,34.5780943 8.09674337,34.9541703 8.22,35.29 C9.59,38.97 9.54,46.69 8.47,49.15 C8.43138366,49.2527407 8.407807,49.3605197 8.4,49.47 C7.52,50 6.63,50.5 5.72,51 C5.24510687,51.281719 5.08842352,51.8950224 5.37,52.37 C5.55006432,52.6736995 5.87693271,52.8599384 6.23,52.86 C6.40948334,52.8599472 6.58564432,52.8115893 6.74,52.72 C8.4,51.72 10.01,50.72 11.59,49.72 L11.68,49.72 C16.68,49.18 24.17,49.11 31.24,54.82 C31.4172636,54.9669009 31.6397853,55.048139 31.87,55.050009 C32.295209,55.0517994 32.6750556,54.7845067 32.8169283,54.38366 C32.958801,53.9828133 32.8316698,53.5360847 32.5,53.27 C27.547183,49.2524976 21.2905532,47.1954259 14.92,47.49 L16.44,46.42 C16.6352853,46.4814144 16.8447147,46.4814144 17.04,46.42 C19.59,45.59 27.28,46.27 30.81,47.99 C30.9484523,48.0525749 31.098102,48.0865862 31.25,48.09 C31.7169086,48.0919273 32.1230064,47.7704916 32.2283458,47.3156169 C32.3336852,46.8607422 32.1102253,46.3935143 31.69,46.19 C28.69,44.73 23.37,43.99 19.62,44.09 L19.78,43.97 C19.8995209,43.9851652 20.0204791,43.9851652 20.14,43.97 C27.88,42.85 37.07,44.31 43.54,47.72 C43.6868091,47.7903924 43.8472003,47.8279308 44.01,47.83 C44.4327269,47.7911689 44.7848693,47.4896741 44.8883566,47.0779749 C44.9918438,46.6662756 44.8241203,46.2341041 44.47,46 C37.7224835,42.6975543 30.22489,41.2283847 22.73,41.74 L24.22,40.54 L24.22,40.54 C29.1,39.48 40.44,39.95 46.43,43.1 C46.5714579,43.1763953 46.7292498,43.2175584 46.89,43.22 C47.2643567,43.2207787 47.6077963,43.0123996 47.78,42.68 C48.0366488,42.1912131 47.8486457,41.5869176 47.36,41.33 C42.02,38.53 33.07,37.7 27.12,38.14 C28.2733333,37.1733333 29.4033333,36.1966667 30.51,35.21 C35.69,33.79 43.56,32.45 52.65,36.79 C52.7849188,36.8525857 52.9313101,36.8866302 53.08,36.89 C53.539008,36.8827838 53.9341471,36.5639729 54.0382358,36.1168644 C54.1423246,35.669756 53.9286243,35.2092046 53.52,35 C47.3104737,31.9885707 40.2838152,31.0996984 33.52,32.47 C34.02,32.02 34.52,31.56 34.99,31.11 C35.2430718,31.126278 35.4969282,31.126278 35.75,31.11 C39.32,31.11 46.17,29.26 49.49,26.91 C49.8106497,26.7166595 49.9964264,26.3603891 49.9714027,25.9867976 C49.946379,25.6132062 49.714748,25.2848944 49.3711779,25.1360442 C49.0276078,24.9871941 48.6296689,25.0427477 48.34,25.28 C45.78,27.09 40.5,28.67 37.13,29.03 C38.07,28.13 38.98,27.24 39.88,26.35 C43.06,24.77 50.4,22.35 53.72,22.93 C54.2607885,23.0273173 54.7787916,22.6700738 54.88,22.13 C54.9296801,21.8686931 54.8732094,21.5983605 54.7230778,21.378793 C54.5729461,21.1592255 54.3415254,21.0085168 54.08,20.96 C51.45,20.48 47.08,21.48 43.49,22.72 L44.19,22 C47.1455863,19.1897772 50.7071464,17.0959494 54.6,15.88 Z M23.73,33.48 C23.9589616,35.1406591 23.9353612,36.8264014 23.66,38.48 C22.66,39.28 21.66,40.08 20.66,40.87 C21.8510984,38.4797583 22.8768391,36.0106298 23.73,33.48 L23.73,33.48 Z"/>
      <path id="Path" fill="#3D454C" fill-rule="nonzero" d="M24.29,15.92 C24.8422847,15.92 25.29,15.4722847 25.29,14.92 C25.29,14.3677153 24.8422847,13.92 24.29,13.92 C23.7377153,13.92 23.29,14.3677153 23.29,14.92 C23.29,15.4722847 23.7377153,15.92 24.29,15.92 Z"/>
    </g>
  </g>
</svg>
