<svg xmlns="http://www.w3.org/2000/svg" width="64" height="64" viewBox="0 0 64 64" style="background:#fff">
  <g id="Rote-Beete-Saft" fill="none" fill-rule="evenodd" stroke="none" stroke-width="1">
    <rect width="64" height="64" fill="#FFF"/>
    <g transform="translate(2 7)">
      <rect id="Rectangle" width="60" height="60" x="0" y="0"/>
      <path id="Path" fill="#E05362" fill-rule="nonzero" d="M40.57,24.1898887 C35.76,24.1898887 34.26,30.74 34.24,34.36 C34.24,32.42 34.42,33.97 33.48,34.29 C32.54,34.61 31.63,35.36 30.42,35.46 C27.36,35.71 23.93,33.54 21.23,32.38 C15.23,29.82 8.41,29.14 4.95,35.77 C3.78,38.01 3.65,41.52 5.77,43.33 C9.21,46.24 13.7,47.88 17.55,50.19 C21.68,52.69 25.86,55.31 30.9,55.19 C41.9,54.92 47.24,43.61 47.4,34.05 C47.46,30.2 45.2,24.16 40.57,24.1898887 Z" opacity=".5"/>
      <path id="Shape" fill="#3D454C" fill-rule="nonzero" d="M53.85,15.4 C52.43,10.18 47.43,8.25 42.55,9.4 C40.83,7.25 34.89,7.82 32.82,7.6 C29,7.17 26.24,4 21.93,4.26 C19.8992228,4.35174185 17.9421795,5.04819854 16.31,6.26 C15.98817,6.58024577 15.9224688,7.07711144 16.15,7.47 L19.72,13.04 C19.79,14.29 20.2,15.54 20.25,16.81 C20.3952821,18.5592008 20.2086742,20.320101 19.7,22 C19.27,23.22 21.21,23.74 21.63,22.53 C22.1184888,20.9102195 22.3347605,19.2205964 22.27,17.53 C22.1735414,16.2749496 22.0066114,15.0263134 21.77,13.79 L25.42,13.79 C25.9722847,13.79 26.42,13.3422847 26.42,12.79 C26.42,12.2377153 25.9722847,11.79 25.42,11.79 L21.25,11.79 C20.31,10.32 19.39,8.79 18.42,7.38 C18.7886638,7.16812609 19.1693026,6.97780669 19.56,6.81 C21.7759894,6.07402027 24.1850655,6.17721555 26.33,7.1 C26.7558081,7.26555281 27.1730037,7.45245646 27.58,7.66 L23.93,7.66 C23.3777153,7.66000002 22.93,8.10771526 22.93,8.66 C22.93,9.21228474 23.3777153,9.65999998 23.93,9.66 L32.8,9.66 C32.8498375,9.66570028 32.9001625,9.66570028 32.95,9.66 L33.25,9.66 C33.99,9.66 41.65,8.88 40.72,11.82 L36.72,11.82 C36.1677153,11.82 35.72,12.2677153 35.72,12.82 C35.72,13.3722847 36.1677153,13.82 36.72,13.82 C37.86,13.82 39.11,13.7 40.28,13.77 C40.17,14.36 40.07,14.96 40,15.56 C39.858153,16.7613684 39.8313647,17.9735381 39.92,19.18 C40.33,24.47 44.03,27.86 45.44,32.78 C47.44,39.89 44.94,47.9 38.04,51.28 C35.35,52.59 28.34,53.21 25.68,51.99 C24.51,51.46 23.5,53.18 24.68,53.72 C27.61,55.05 33.61,54.72 36.68,53.95 C40.77,52.95 44.47,49.44 46.38,45.8 C47.7147797,43.1304787 48.33494,40.1605996 48.18,37.18 C51.59,31.07 55.77,22.44 53.85,15.4 Z M51.85,22.25 C51.005108,26.226719 49.6117874,30.0667645 47.71,33.66 C47.5566938,32.9101166 47.3630796,32.1690417 47.13,31.44 C49.24,27.1 52.24,20.44 49.94,15.79 C48.6247607,13.0235246 45.4716772,11.6496506 42.55,12.57 C42.7524667,12.1846555 42.9037457,11.7745212 43,11.35 C49.86,9.73 53.1,15.87 51.88,22.25 L51.85,22.25 Z M42.35,14.93 C43.358682,14.464227 44.4768806,14.2876694 45.58,14.42 C46.3983378,14.691316 47.0886465,15.2535262 47.52,16 C49,18 48.81,20 48.33,22.25 C47.8246192,24.5511221 47.0805936,26.7932534 46.11,28.94 C45.33,27.44 44.38,26.04 43.56,24.51 C41.79,21.2 42.18,18.23 42.38,14.93 L42.35,14.93 Z"/>
      <path id="Path" fill="#3D454C" fill-rule="nonzero" d="M39.48 45.59C42.2497466 42.1587129 42.9354171 37.4930886 41.27 33.41 40.81 32.22 38.88 32.74 39.34 33.94 40.61 37.3 40.49 41.38 38.07 44.17 37.23 45.14 38.64 46.56 39.48 45.59zM39.08 29.16C38.7513157 29.0028031 38.3637353 29.0328983 38.0632566 29.2389488 37.762778 29.4449994 37.5950509 29.7957014 37.6232566 30.1589488 37.6514623 30.5221962 37.8713157 30.8428031 38.2 31 38.4386162 31.1171894 38.7140741 31.1345442 38.9655117 31.0482298 39.2169494 30.9619154 39.4236703 30.7790365 39.54 30.54 39.6702033 30.2974521 39.6946603 30.0119568 39.6076073 29.7507976 39.5205542 29.4896384 39.3296914 29.2759163 39.08 29.16L39.08 29.16z"/>
      <path id="Shape" fill="#3D454C" fill-rule="nonzero" d="M31.28,45.79 C34.0517916,44.2016477 35.5067379,41.0264886 34.9,37.89 C34.2,34.24 31.02,31.39 26.81,30.62 C26.2998385,30.4963575 25.7730696,30.4558368 25.25,30.5 L25.68,29.68 C26.21,28.68 26.68,27.68 26.94,27.17 C27.06,26.88 27.19,26.62 27.31,26.39 C27.66,25.7 28.02,25 27.58,24.3 C27.1613346,23.7952811 26.507829,23.5483167 25.86,23.65 L24.13,23.76 C24.0502901,23.7503652 23.9697099,23.7503652 23.89,23.76 C23.0927234,24.0850715 22.4735465,24.7370284 22.19,25.55 C22.13,25.67 22.08,25.79 22.02,25.89 C21.83,26.22 21.35,26.96 20.88,27.69 L20.74,27.91 C20.65,27.72 20.56,27.54 20.48,27.4 L20.32,27.09 C19.47,25.49 18.86,24.82 16.22,24.75 L16,24.75 C15,24.75 14.42,24.7 14.06,25.32 C13.8289082,25.799923 13.8992627,26.3705764 14.24,26.78 C14.3,26.89 14.38,27.01 14.46,27.17 L16.16,30.38 C15.7162539,30.3077642 15.2637461,30.3077642 14.82,30.38 C8.82,31 5.54,34.72 5,38.16 C4.46,41.6 6.27,45 10,46.78 C11.5895519,47.5243039 13.2225114,48.1721447 14.89,48.72 C17.68,49.72 17.68,49.72 16.62,52.89 C16.3922682,53.4645414 16.6506695,54.1171142 17.21,54.38 C17.3628956,54.4523112 17.5309965,54.4866175 17.7,54.48 C18.77,54.48 20.09,53.22 20.7,52.11 C22.45,49.11 23.88,48.72 26.04,48.05 C27.8866325,47.5536443 29.6516261,46.7924066 31.28,45.79 Z M22.56,28.79 C23.06,28.02 23.56,27.24 23.76,26.89 C23.84,26.75 23.92,26.59 24,26.42 C24.0978887,26.1563775 24.2474861,25.9149816 24.44,25.71 L25.44,25.65 C25.3109164,25.8856827 25.197342,26.1295336 25.1,26.38 C24.91,26.85 24.4,27.8 23.92,28.72 C23.44,29.64 23,30.47 22.76,31 C22.57,31 22.39,31.08 22.2,31.1 C22.06,30.82 21.9,30.46 21.73,30.1 C21.94,29.77 22.25,29.3 22.56,28.82 L22.56,28.79 Z M18.56,28.04 L18.73,28.36 C18.94,28.75 19.31,29.55 19.65,30.36 L20.02,31.17 C19.5882133,31.1586922 19.1574674,31.1219619 18.73,31.06 C18.73,31.06 18.73,30.99 18.73,30.95 L16.53,26.8 C17.91,26.86 18,27 18.55,28.07 L18.56,28.04 Z M19.23,50.75 C19.51,48.47 18.38,47.75 15.56,46.75 C13.9631791,46.2606809 12.3970502,45.6763045 10.87,45 C7.93,43.61 6.46,41.19 6.92,38.53 C7.38,35.87 10.06,32.91 14.98,32.43 C15.1631999,32.4201072 15.3468001,32.4201072 15.53,32.43 C15.7055651,32.4328982 15.8788489,32.4702732 16.04,32.54 L16.52,32.69 C19.0818276,33.4238158 21.7904315,33.4789527 24.38,32.85 C24.68,32.78 24.9,32.71 25.08,32.66 C25.5251377,32.5148805 26.0048623,32.5148805 26.45,32.66 C29.84,33.28 32.39,35.51 32.93,38.35 C33.3701024,40.6706515 32.2793386,43.0131776 30.22,44.17 C28.7501406,45.0584358 27.1606926,45.7319307 25.5,46.17 C22.8362447,46.7211271 20.5440127,48.4038005 19.22,50.78 L19.23,50.75 Z"/>
    </g>
  </g>
</svg>
