<svg xmlns="http://www.w3.org/2000/svg" width="64" height="64" viewBox="0 0 64 64" style="background:#fff">
  <g id="Rote-Beete" fill="none" fill-rule="evenodd" stroke="none" stroke-width="1">
    <rect width="64" height="64" fill="#FFF"/>
    <g transform="translate(2 4)">
      <rect id="Rectangle" width="60" height="60" x="0" y="0"/>
      <path id="Path" fill="#E05362" fill-rule="nonzero" d="M42.43,18.93 C38.75,18.02 35.65,21.85 31.62,21.88 C26.56,21.88 20.55,18.39 15.95,19.39 C6.52,21.39 1.59,33.27 7.87,40.93 C11.41,45.23 16.03,42.7 17.33,38.37 C18.3579832,38.2325796 19.3765642,38.032203 20.38,37.77 L21.3,37.66 C20.1410364,40.4030202 19.5491576,43.352209 19.56,46.33 C19.56,49.93 21.31,55.16 25.2,56.57 C29.09,57.98 32.25,54.63 33.35,51.43 C33.51,50.96 33.8,50.49 33.75,50.43 C34.2051605,50.1011043 34.6988223,49.8290866 35.22,49.62 C37.08,48.79 39.22,48.75 41.22,48.53 C46.02,47.98 50.11,46.96 52.87,42.78 C59,33.54 52.75,21.49 42.43,18.93 Z" opacity=".5"/>
      <path id="Path" fill="#31E085" fill-rule="nonzero" d="M39.91,4.48 L37.83,7.67 L38,7.31 C39.2,4.55 34.3,3.54 33.15,6.18 L29.29,15 C27.6706345,12.1289268 26.5131446,9.02091445 25.86,5.79 C25.27,2.95 20.44,4.12 21.06,7.09 C22.0123147,11.6585805 23.8761295,15.9882087 26.54,19.82 C27.0559231,20.5557659 27.9396496,20.9416727 28.83,20.82 C29.7820513,21.2061578 30.8604329,21.1209249 31.74,20.59 C32.3181651,21.0170179 33.0422866,21.1968616 33.7530554,21.0899649 C34.4638242,20.9830683 35.1030136,20.5981884 35.53,20.02 L44.27,6.7 C46,4.09 41.5,2.05 39.91,4.48 Z" opacity=".5"/>
      <path id="Shape" fill="#3D454C" fill-rule="nonzero" d="M55.07,28.85 C53.94,23 48.81,18.4 42,17.15 C40.8471423,16.8126258 39.6185332,16.8370583 38.48,17.22 L38.4,17.22 L41.4,11.04 C41.76,10.27 42.22,9.32 41.74,8.52 C41.26,7.72 40.18,7.68 39.24,7.65 C38.763446,7.62721134 38.2859714,7.66756132 37.82,7.77 C37.8581244,7.41611785 37.7656631,7.06049738 37.56,6.77 C37.0602,6.20453777 36.3044692,5.93625332 35.56,6.06 L33.21,6.24 C33.1140168,6.24457844 33.0194315,6.26484672 32.93,6.3 C32.235938,6.59247985 31.6736099,7.12989468 31.35,7.81 C31.3185524,7.37085761 31.1995495,6.94244741 31,6.55 C30.35,5.55 26.72,6.12 26.55,6.23 C25.8474994,6.56921359 25.3547616,7.2299302 25.23,8 C24.6777398,7.85542825 24.1106753,7.77489838 23.54,7.76 L23.26,7.76 C22.26,7.76 21.66,7.69 21.26,8.27 C20.9562421,8.81283639 20.9793638,9.47951254 21.32,10 C21.39,10.18 21.48,10.39 21.58,10.65 L23.82,16.78 C23.199088,16.7023 22.570912,16.7023 21.95,16.78 C12.53,17.74 7.69,23.18 6.3,28 C4.91,32.82 6.57,37.72 10.81,41 C11.2322195,41.1913033 11.7305603,41.0673718 12.0139887,40.7005822 C12.297417,40.3337925 12.291627,39.8203054 12,39.46 C8.55574603,36.9777926 7.04278834,32.5990209 8.22,28.52 C9.43,24.36 13.72,19.63 22.15,18.8 C22.8358207,18.6378078 23.5549092,18.6901686 24.21,18.95 L25,19.2 C29.1962212,20.3947264 33.6305467,20.4808632 37.87,19.45 C38.35,19.34 38.72,19.23 39.02,19.15 C39.8664099,18.8634803 40.7835901,18.8634803 41.63,19.15 C47.63,20.24 52.13,24.21 53.1,29.26 C53.8802818,33.4481626 51.9214784,37.6708288 48.22,39.78 C45.6960792,41.3297017 42.9657233,42.5147637 40.11,43.3 C36.19,44.51 33.11,45.46 29.61,51.3 C29.1758066,52.0134946 28.632559,52.6545942 28,53.2 C29.77,47.06 28.18,46.2 22.9,44.41 L20.56,43.59 C20.0408523,43.3994618 19.4655383,43.6658524 19.275,44.185 C19.0844618,44.7041477 19.3508524,45.2794617 19.87,45.47 C20.74,45.79 21.54,46.06 22.25,46.3 C27.39,48.06 27.59,48.13 25.59,54.2 C25.3243014,54.8356604 25.6006555,55.5682181 26.22,55.87 C26.3941963,55.9428699 26.5811766,55.9800014 26.77,55.9800014 C28.15,55.9800014 30.16,54.22 31.29,52.32 C34.38,47.11 37.01,46.32 40.66,45.18 C43.6854736,44.3538476 46.5754356,43.0941205 49.24,41.44 C53.86,38.57 56,33.86 55.07,28.85 Z M39.76,9.71 L39.53,10.21 L36.17,17.21 C36.095601,17.3760952 36.0679407,17.559345 36.09,17.74 C35.2662953,17.8888024 34.4350456,17.9922913 33.6,18.05 C33.94,17.2 34.47,16.05 34.98,14.86 C35.6,13.47 36.18,12.15 36.52,11.27 L36.52,11.27 C36.8730834,10.1755845 37.9608665,9.49255787 39.1,9.65 L39.76,9.71 Z M27.33,8.09 C27.88,8.09 28.76,7.99 29.33,7.98 C29.33,8.35 29.39,8.88 29.42,9.37 C29.45,9.86 29.47,10.58 29.52,11.31 C29.5142948,11.3631808 29.5142948,11.4168192 29.52,11.47 L29,12.53 C28.89,12.73 28.79,12.93 28.68,13.12 C28.52,12.62 28.37,12.18 28.25,11.86 L28.07,11.36 C27.8856606,10.8223804 27.665157,10.2978492 27.41,9.79 C27.1552371,9.25729208 27.1263894,8.64427844 27.33,8.09 L27.33,8.09 Z M23.39,9.78 L23.46,9.78 C25.37,9.86 25.46,10.11 26.17,12.05 L26.36,12.56 C26.6,13.22 27.01,14.56 27.36,15.79 C27.59,16.53 27.81,17.23 28.01,17.85 C27.37,17.74 26.76,17.6 26.15,17.44 L23.46,10 C23.43,9.89 23.41,9.83 23.39,9.78 Z M30.24,18.1 C30.04,17.53 29.77,16.68 29.49,15.79 C29.79,15.23 30.25,14.38 30.74,13.49 C31.4,12.27 32.09,11.01 32.36,10.44 C32.47,10.22 32.57,9.97 32.67,9.72 C32.822879,9.17924665 33.1121251,8.68683969 33.51,8.29 L35.64,8.13 L35.64,8.13 C35.56,8.34 35.45,8.6 35.36,8.81 C35.17,9.24 34.96,9.73 34.78,10.27 C34.78,10.36 34.71,10.46 34.67,10.56 L34.67,10.56 C34.35,11.39 33.74,12.75 33.16,14.07 C32.43,15.7 31.75,17.24 31.45,18.07 L31.45,18.07 C31,18.15 30.64,18.13 30.24,18.1 L30.24,18.1 Z"/>
      <path id="Path" fill="#3D454C" fill-rule="nonzero" d="M48.35 36.09C50.3435454 34.2486245 51.192029 31.4769762 50.5709162 28.8351765 49.9498034 26.1933767 47.9551934 24.0901673 45.35 23.33 44.12 22.94 43.59 24.87 44.81 25.26 46.7433959 25.813198 48.2218602 27.3757636 48.6673563 29.3367789 49.1128523 31.2977943 48.4546165 33.3457673 46.95 34.68 46 35.57 47.42 37 48.35 36.09zM44.24 38.78C44.7922847 38.78 45.24 38.3322847 45.24 37.78 45.24 37.2277153 44.7922847 36.78 44.24 36.78 43.6877153 36.78 43.24 37.2277153 43.24 37.78 43.24 38.3322847 43.6877153 38.78 44.24 38.78zM15.64 41.78C15.0877153 41.78 14.64 42.2277153 14.64 42.78 14.64 43.3322847 15.0877153 43.78 15.64 43.78 16.1922847 43.78 16.64 43.3322847 16.64 42.78 16.64 42.2277153 16.1922847 41.78 15.64 41.78z"/>
    </g>
  </g>
</svg>
