<svg xmlns="http://www.w3.org/2000/svg" width="64" height="64" viewBox="0 0 64 64" style="background:#fff">
  <g id="Rote-Linsen" fill="none" fill-rule="evenodd" stroke="none" stroke-width="1">
    <rect width="64" height="64" fill="#FFF"/>
    <g transform="translate(2 4)">
      <rect id="Rectangle" width="60" height="60" x="0" y="0"/>
      <g id="Group" fill="#E05362" fill-rule="nonzero" opacity=".5" transform="translate(8 6)">
        <path id="Path" d="M37.83 7.46C37.83 7.01 37.74 6.56 37.68 6.12 37.4611253 5.07783974 36.9269706 4.12823129 36.15 3.4 35.1418555 2.54519433 34.0172617 1.83811439 32.81 1.3 31.81.78 30.16.09 29.02.54 27.618421 1.23083421 26.8831431 2.8010887 27.25 4.32 27.82 6.7 29.39 7.52 31.31 8.71 32.69 9.57 34.54 11.86 36.31 10.76 37.3786723 10.0179232 37.9606222 8.75447915 37.83 7.46L37.83 7.46zM25.18 20.35C23.73 18.97 21.61 17.56 19.51 17.9 17.82 18.18 17.76 20.71 18.51 21.9 19.62 23.54 21.11 24.9 22.23 26.51 23.35 28.12 23.88 30.8 26.31 31.16 27.69 31.37 28.44 29.3 28.63 28.33 29.29 25.13 27.35 22.41 25.18 20.35zM46.89 32C46.48 29.32 44.55 27.56 42.43 26.1 41.04 25.1 38.57 23.51 36.88 24.64 36.1605797 25.19645 35.9272776 26.1796518 36.32 27 36.96 29.06 38.82 30.55 40.19 32.14 41.56 33.73 42.54 35.96 44.87 36.35 46.86 36.68 47.05 33.08 46.89 32zM32.06 36C29.93 35.21 27.43 35.24 25.94 37.11 25.2553628 38.2402585 25.278683 39.6627899 26 40.77 27 42.03 28.7 42.55 29.92 43.63 31.14 44.71 31.92 46.63 33.49 47.06 35.92 47.71 36.84 44.84 36.85 42.97 36.8292653 39.885624 34.932006 37.1248939 32.06 36L32.06 36zM18.81 44.44C18.6048559 43.3922577 18.2442019 42.3810783 17.74 41.44 17.56 41.12 17.38 40.79 17.19 40.44 17.19 40.44 16.91 39.96 16.88 39.93 16.7145639 39.4969624 16.5808771 39.0524539 16.48 38.6 16.2 37.6 16.54 38.72 16.36 37.94 16.25 37.49 16.13 37.05 15.99 36.6 15.74 35.83 14.73 34.88 13.86 35.36 9.24 37.86 12.31 50.99 17.45 48.29 18.79 47.66 19.09 45.78 18.81 44.44zM5.82 19.11C3.48 18.77 1.82 21.26 1.08 23.11.08 25.72-.42 29.88 1.97 31.9 3.21 32.9 4.63 31.9 5.06 30.57 5.62 28.92 5.2 27.39 5.42 25.75 5.75228504 24.2864674 6.21066345 22.8544531 6.79 21.47 7.06 20.64 6.9 19.26 5.82 19.11zM18.87 10C18.1343703 7.26919543 16.0387591 5.11306124 13.33 4.3 11.33 3.58 8.49 3.36 7.19 5.3 6.97416422 5.656547 6.97416422 6.103453 7.19 6.46 8.19 8.03 10.42 8.73 11.92 9.81 13.42 10.89 14.62 13.09 16.44 13.86 18.54 14.72 19.16 11.25 18.87 10z"/>
      </g>
      <path id="Shape" fill="#3D454C" fill-rule="nonzero" d="M52.56 29.82C49.56 26.82 45.2 26.35 42.81 28.74 40.42 31.13 40.91 35.5 43.9 38.48 45.4378557 40.0800855 47.5416998 41.0135317 49.76 41.08 51.2068107 41.1193613 52.608661 40.5751983 53.65 39.57 56 37.18 55.55 32.81 52.56 29.82zM52.23 38.15C50.63 39.76 47.52 39.28 45.31 37.07 43.1 34.86 42.62 31.76 44.23 30.15 44.8949457 29.5121925 45.7891139 29.1696684 46.71 29.2 48.3925155 29.269241 49.9832393 29.9857832 51.15 31.2 53.35 33.44 53.84 36.55 52.23 38.15L52.23 38.15zM22.61 39.81C19.24 39.81 16.49 43.25 16.49 47.47 16.49 51.69 19.24 55.13 22.61 55.13 25.98 55.13 28.74 51.7 28.74 47.47 28.74 43.24 26 39.81 22.61 39.81zM22.61 53.13C20.34 53.13 18.49 50.59 18.49 47.47 18.49 44.35 20.34 41.81 22.61 41.81 24.88 41.81 26.74 44.35 26.74 47.47 26.74 50.59 24.89 53.13 22.61 53.13zM38.37 40.59C36.6334605 40.2904133 34.8581087 40.8363897 33.59 42.06 31.21 44.44 31.69 48.81 34.68 51.8 36.2178557 53.4000855 38.3216998 54.3335317 40.54 54.4 41.9866146 54.4382307 43.3880429 53.8942315 44.43 52.89 46.81 50.5 46.32 46.13 43.34 43.14 42.0073259 41.7686164 40.2612361 40.8727353 38.37 40.59L38.37 40.59zM43 51.47C41.39 53.08 38.29 52.59 36.08 50.39 33.87 48.19 33.4 45.08 35 43.47 35.8349769 42.7003855 36.982702 42.367175 38.1 42.57 39.5555968 42.7988956 40.8949066 43.5019454 41.91 44.57 44.13 46.76 44.62 49.87 43 51.47zM34.12 25.72C31.12 22.72 26.76 22.25 24.37 24.64 23.1565375 25.9100028 22.6119125 27.6772554 22.9 29.41 23.5461569 33.2695919 26.5704081 36.2938431 30.43 36.94 30.7283414 36.9798969 31.0290027 36.999941 31.33 37 32.7734127 37.0320251 34.1687076 36.4803969 35.2 35.47 37.59 33.08 37.1 28.71 34.12 25.72zM33.79 34.06C32.9516997 34.8305236 31.7990126 35.1603923 30.68 34.95 27.7222522 34.4338484 25.4061516 32.1177478 24.89 29.16 24.6796077 28.0409874 25.0094764 26.8883003 25.78 26.05 26.4455635 25.4131673 27.3393054 25.0708065 28.26 25.1 29.9430023 25.1671793 31.5344608 25.8840525 32.7 27.1 34.91 29.34 35.4 32.45 33.79 34.06zM22.63 20.94C22.9283414 20.9798969 23.2290027 20.999941 23.53 21 24.9738215 21.034314 26.3699745 20.4823465 27.4 19.47 29.79 17.08 29.3 12.71 26.32 9.72 23.34 6.73 19 6.25 16.57 8.64 14.14 11.03 14.67 15.4 17.66 18.38 18.9917063 19.7544552 20.7377345 20.6538178 22.63 20.94L22.63 20.94zM18 10.05C18.6523127 9.39347924 19.5446815 9.03219634 20.47 9.05 22.1530023 9.1171793 23.7444608 9.83405249 24.91 11.05 27.12 13.25 27.61 16.36 26 17.97 25.1647886 18.7388435 24.0158602 19.0686972 22.9 18.86 21.4410712 18.6324773 20.0981635 17.9293843 19.08 16.86 18.0125493 15.8444504 17.3096142 14.5053588 17.08 13.05 16.9087321 11.9617114 17.2480701 10.8551746 18 10.05L18 10.05zM16.58 26.56C15.7943724 24.9851577 14.3118243 23.8732467 12.58 23.56 10.8553984 23.3066377 9.11179687 23.8767324 7.87 25.1 6.49207671 26.4426061 5.5897633 28.1980797 5.3 30.1 4.95745877 31.9790413 5.24206541 33.9185829 6.11 35.62 6.89312086 37.1969305 8.37687285 38.3097445 10.11 38.62 10.387379 38.6681277 10.6684809 38.6915529 10.95 38.6900724 12.4129985 38.6581744 13.8083835 38.0678193 14.85 37.04 17.6175268 34.278441 18.3246912 30.0635804 16.61 26.55L16.58 26.56zM15.41 31.76C15.195362 33.2152531 14.5105307 34.560332 13.46 35.59 12.6669787 36.4045942 11.5381282 36.8006172 10.41 36.66 9.29713504 36.432454 8.35828966 35.6902837 7.88 34.66 7.21574736 33.3485919 7.00475228 31.8540434 7.28 30.41 7.50830428 28.9484485 8.21109858 27.6025974 9.28 26.58 10.0566598 25.7722844 11.1674928 25.3760872 12.28 25.51 13.3935607 25.7360487 14.3330066 26.4786937 14.81 27.51 15.4720766 28.8220911 15.6829676 30.3159026 15.41 31.76L15.41 31.76zM42.59 19.57C44.0348086 19.6039905 45.4327455 19.0563451 46.47 18.05 48.86 15.66 48.37 11.29 45.39 8.31 44.0490857 6.93155302 42.2922642 6.03206045 40.39 5.75 38.6541005 5.46022806 36.8830943 6.00486802 35.61 7.22 33.25 9.61 33.74 14 36.73 17 38.2702859 18.5926223 40.3750557 19.5157039 42.59 19.57L42.59 19.57zM37.06 8.63C37.7235039 7.99738407 38.6137835 7.65857321 39.53 7.69 39.7397636 7.67590969 39.9502364 7.67590969 40.16 7.69 41.6160746 7.9174511 42.9558242 8.62073174 43.97 9.69 46.18 11.9 46.67 15 45.06 16.61 43.45 18.22 40.35 17.73 38.14 15.52 35.93 13.31 35.45 10.24 37.06 8.63z"/>
      <path id="Path" fill="#3D454C" fill-rule="nonzero" d="M21.82 43.74C21.2677153 43.74 20.82 44.1877153 20.82 44.74 20.82 45.2922847 21.2677153 45.74 21.82 45.74 22.3722847 45.74 22.82 45.2922847 22.82 44.74 22.82 44.1877153 22.3722847 43.74 21.82 43.74zM39.58 12C40.1322847 12 40.58 11.5522847 40.58 11 40.58 10.4477153 40.1322847 10 39.58 10 39.0277153 10 38.58 10.4477153 38.58 11 38.58 11.5522847 39.0277153 12 39.58 12z"/>
      <ellipse id="Oval" cx="48.332" cy="34.153" stroke="#3D454C" stroke-width="2" rx="5.12" ry="6.66" transform="rotate(-45 48.332 34.153)"/>
      <ellipse id="Oval" cx="22.72" cy="47.47" stroke="#3D454C" stroke-width="2" rx="5.12" ry="6.66"/>
      <ellipse id="Oval" cx="39.111" cy="47.471" stroke="#3D454C" stroke-width="2" rx="5.12" ry="6.66" transform="rotate(-45 39.111 47.471)"/>
      <ellipse id="Oval" cx="29.884" cy="30.053" stroke="#3D454C" stroke-width="2" rx="5.12" ry="6.66" transform="rotate(-45 29.884 30.053)"/>
      <ellipse id="Oval" cx="22.085" cy="14.045" stroke="#3D454C" stroke-width="2" rx="5.12" ry="6.66" transform="rotate(-45 22.085 14.045)"/>
      <ellipse id="Oval" cx="11.443" cy="31.082" stroke="#3D454C" stroke-width="2" rx="6.66" ry="5.12" transform="rotate(-80.49 11.443 31.082)"/>
      <ellipse id="Oval" cx="41.162" cy="12.633" stroke="#3D454C" stroke-width="2" rx="5.12" ry="6.66" transform="rotate(-45 41.162 12.633)"/>
      <path id="Path" fill="#3D454C" fill-rule="nonzero" d="M21.92 45.74C22.4722847 45.74 22.92 45.2922847 22.92 44.74 22.92 44.1877153 22.4722847 43.74 21.92 43.74 21.3677153 43.74 20.92 44.1877153 20.92 44.74 20.92 45.2922847 21.3677153 45.74 21.92 45.74zM39.69 12C40.2422847 12 40.69 11.5522847 40.69 11 40.69 10.4477153 40.2422847 10 39.69 10 39.1377153 10 38.69 10.4477153 38.69 11 38.69 11.5522847 39.1377153 12 39.69 12z"/>
    </g>
  </g>
</svg>
