<svg xmlns="http://www.w3.org/2000/svg" width="64" height="64" viewBox="0 0 64 64" style="background:#fff">
  <g id="Rotkohl" fill="none" fill-rule="evenodd" stroke="none" stroke-width="1">
    <rect width="64" height="64" fill="#FFF"/>
    <g transform="translate(2 4)">
      <rect id="Rectangle" width="60" height="60" x="0" y="0"/>
      <path id="Path" fill="#4885E0" fill-rule="nonzero" d="M54.7 14.72C54.65 14.29 54.64 14.4 54.7 14.72 54.76 15.04 54.76 15.33 54.7 14.72zM54.66 14.77C54.55 14.07 54.32 12.58 54.25 12.32 53.7677536 10.9566864 53.0200054 9.70250872 52.05 8.63L51.16 7.63C49.6333478 6.27942813 47.4806542 5.89364073 45.58 6.63 41.85 8.16 39.67 12.14 38.44 15.8 37.59 18.35 37.68 20.52 36.04 21.72 35.1799658 22.3223358 34.2411676 22.8035119 33.25 23.15 33.11 18.41 31.59 13.72 28.25 11.61 22.92 8.28 18.47 8.25 13.82 12.8 8.93 17.59 7.23 25.75 7.67 32.28 8.46 44.06 16.74 57.28 30.17 55.28 41.0501805 53.5631639 49.8457585 45.5002225 52.5 34.81 53.5 30.81 53.6 25.96 54.22 22.66 54.5378961 21.2880725 54.7518365 19.8941167 54.86 18.49 54.88 18 54.71 15.66 54.66 14.77z" opacity=".5"/>
      <path id="Shape" fill="#3D454C" fill-rule="nonzero" d="M53.76,13.07 C53.6168498,12.6740526 53.2410301,12.4101791 52.82,12.41 C51.2792895,12.3582325 49.7463997,12.1674581 48.24,11.84 C46.0249884,11.2727211 43.7164587,11.1705738 41.46,11.54 C38.7773663,9.83955444 35.7703347,8.71574874 32.63,8.24 C31.9655817,8.12250427 31.3241786,7.89970107 30.73,7.58 C29.87,7.12 28.78,6.58 28.78,6.58 C28.522085,6.46575558 28.227915,6.46575558 27.97,6.58 C26.9254814,7.04190011 25.9469278,7.64046551 25.06,8.36 C13.1862971,10.4438462 4.87484929,21.257502 5.91581542,33.2676487 C6.95678154,45.2777954 17.0048294,54.5001624 29.06,54.51 L29.8,54.51 L29.97,54.51 C37.0911374,54.2521 43.6999532,50.7401322 47.8985716,44.9826402 C52.09719,39.2251481 53.4210595,31.8591632 51.49,25 C51.1624371,23.7906208 50.9976507,22.5429525 51,21.29 C51,16.38 53.39,14.29 53.49,14.18 C53.8032779,13.9028748 53.9109907,13.4600554 53.76,13.07 Z M28.32,8.58 L29.8,9.35 C30.5903474,9.77374125 31.4451395,10.064303 32.33,10.21 C34.7154561,10.5733279 37.0196923,11.3481739 39.14,12.5 C37.14,13.72 35.6,15.89 34.29,19.18 C31.9571123,19.545001 29.8171136,20.6907994 28.22,22.43 C26.8828784,24.0935348 26.2962042,26.2374304 26.6,28.35 C27.0787483,32.1661679 27.0181543,36.0307174 26.42,39.83 C24.2566544,38.0233455 21.6859495,36.7705988 18.93,36.18 L18.66,36.1 C22.73,32.1 21.23,24.69 21.17,24.43 C20.3,16.59 23.38,12.27 26.12,10 C26.8000845,9.44886013 27.5376932,8.97276727 28.32,8.58 Z M22.37,11.05 C20.18,13.92 18.47,18.27 19.2,24.75 C19.2,24.83 20.76,32.39 16.45,35.34 C12.0973357,33.6405656 9.10926462,29.5903287 8.77,24.93 C10.7807645,18.3695744 15.8519085,13.1940245 22.37,11.05 L22.37,11.05 Z M15.2,47.3 C10.5129592,43.2725503 7.81758402,37.3997004 7.81999838,31.22 C7.81999838,30.7 7.81999838,30.22 7.89,29.69 C9.88112409,34.010035 13.7961973,37.1354201 18.45,38.12 C22.45,39.12 24.65,40.74 25.83,42.05 C25.3662806,43.5041537 24.5484358,44.8202654 23.45,45.88 C21.55,47.58 18.78,48.06 15.2,47.3 Z M49.57,25.54 C52.4684031,36.0795334 46.8903253,47.0972109 36.68,51 C39.7305466,48.4614155 41.6448447,44.8127345 42,40.86 C42,40.3077153 41.5522847,39.86 41,39.86 C40.4477153,39.86 40,40.3077153 40,40.86 C40,40.95 39.71,49.48 29.83,52.44 C29.6,52.44 29.37,52.44 29.13,52.44 C25.4021846,52.467221 21.7339463,51.5044378 18.5,49.65 C20.8047981,49.6913511 23.0428188,48.8752576 24.78,47.36 C26.2016778,45.9856595 27.2363714,44.26117 27.78,42.36 C27.8471398,42.2356141 27.8911847,42.1000914 27.91,41.96 C29.41,36.89 28.8,30.72 28.55,28.19 C28.3122346,26.6135901 28.7315413,25.0086576 29.71,23.75 C31.0013809,22.3778444 32.7166084,21.4797273 34.58,21.2 C36.0839002,22.9846147 36.9371571,25.2270585 37,27.56 C36.916946,29.488966 36.2157626,31.3400902 35,32.84 C34.6686292,33.2818278 34.7581722,33.9086292 35.2,34.24 C35.3703542,34.3677881 35.5770546,34.437856 35.79,34.44 C36.1047573,34.44 36.4011456,34.2918058 36.59,34.04 C38.0952898,32.1908412 38.9430846,29.8937043 39,27.51 C38.9562805,24.7245138 37.9652055,22.0369723 36.19,19.89 C37.64,16.27 39.36,14.24 41.59,13.56 C43.48,13 45.59,13.39 47.9,13.81 C48.9,13.99 49.85,14.17 50.85,14.29 C49.570582,16.3962725 48.9248476,18.826456 48.99,21.29 C48.9864618,22.726632 49.1816445,24.1568499 49.57,25.54 L49.57,25.54 Z"/>
      <path id="Path" fill="#3D454C" fill-rule="nonzero" d="M41.09,35.58 C40.5377153,35.58 40.09,36.0277153 40.09,36.58 C40.09,37.1322847 40.5377153,37.58 41.09,37.58 C41.6422847,37.58 42.09,37.1322847 42.09,36.58 C42.09,36.0277153 41.6422847,35.58 41.09,35.58 Z"/>
    </g>
  </g>
</svg>
