<svg xmlns="http://www.w3.org/2000/svg" width="64" height="64" viewBox="0 0 64 64" style="background:#fff">
  <g id="Ruchmehl" fill="none" fill-rule="evenodd" stroke="none" stroke-width="1">
    <rect width="64" height="64" fill="#FFF"/>
    <g transform="translate(2 6)">
      <rect id="Rectangle" width="60" height="60" x="0" y="0"/>
      <path id="Path" fill="#C17953" fill-rule="nonzero" d="M35.2 26.92C34.1619844 26.9470552 33.1237914 26.873377 32.1 26.7 31.0914373 26.4678908 30.0339938 26.5842096 29.1 27.03 27.1223679 26.954463 25.2274991 27.8275888 24 29.38 23.1296659 30.4124337 22.3782719 31.5395247 21.76 32.74 21.46 33.29 21.07 33.85 20.82 34.42 20.7500051 34.5678565 20.6514457 34.7004019 20.53 34.81L19.43 35.3 19.43 35.43C17 36.62 16.05 39.54 16.12 42.28 16.18 44.74 17.63 49.67 20.99 49.28 27.25 48.65 33.28 44.95 38.09 41.12 41.93 38.11 41.23 27 35.2 26.92zM36.06 7.5C34.31 7.35 32.91 5.66 31.47 4.79 29.9405426 3.69257328 28.0045109 3.32659374 26.18 3.79 24.23 4.4 22.97 5.98 21.76 7.59 20.905726 8.04279713 20.2709199 8.82187733 20 9.75L19.9 9.87C18.5 11.33 18.36 15.94 21.15 16.01 21.418493 16.0182578 21.6870212 15.9947616 21.95 15.94L22 16C24.09 17.15 26.65 16.78 29 16.83 31.35 16.88 33.87 16.83 36.32 16.78 40.45 16.63 40.13 7.86 36.06 7.5z" opacity=".5"/>
      <path id="Shape" fill="#3D454C" fill-rule="nonzero" d="M44.39,34.72 C44.5732656,34.1173518 44.7136168,33.50248 44.81,32.88 C44.9411009,32.0296949 45.004633,31.1703399 45,30.31 C45.0011172,27.9782246 44.4818291,25.6755916 43.48,23.57 C45.4070983,22.6063128 46.4172525,20.4428304 45.9188424,18.3466461 C45.4204322,16.2504619 43.5446124,14.7731781 41.39,14.78 L39.86,14.78 L36,9 C34.9647153,7.45480636 32.9059532,6.98172911 31.3,7.92 L31.17,7.67 C30.5221745,6.33394681 29.2084596,5.447139 27.7270862,5.34590149 C26.2457129,5.24466399 24.8235661,5.94450217 24,7.18 L18.94,14.78 L17.38,14.78 C15.2272631,14.777843 13.3557641,16.2566444 12.8600461,18.3515297 C12.3643281,20.446415 13.3745975,22.6071366 15.3,23.57 C14.2950388,25.6749031 13.7723425,27.9774995 13.77,30.31 C13.7793509,31.1746779 13.8562516,32.0373033 14,32.89 C14.1070385,33.5070991 14.2472417,34.1179841 14.42,34.72 C10.9192581,39.3730368 9.77762326,45.3878639 11.33,51 C11.4059396,51.268829 11.590864,51.493639 11.84,51.62 C16.53,54 22.76,55.34 29.4,55.34 C36.04,55.34 42.28,54 47,51.65 C47.2551138,51.5235999 47.4442538,51.2944495 47.52,51.02 C47.9664496,49.3906704 48.195105,47.709381 48.2000005,46.02 C48.2009017,41.9378721 46.862452,37.9681918 44.39,34.72 L44.39,34.72 Z M25.67,8.29 C26.0910636,7.65702619 26.8175702,7.29645459 27.5763202,7.34387647 C28.3350702,7.39129834 29.011027,7.8395239 29.35,8.52 L30.07,10 C30.2303473,10.3195956 30.5491356,10.529257 30.9061046,10.5498911 C31.2630735,10.5705251 31.6038963,10.3989915 31.8,10.1 C32.0888894,9.69377936 32.5565301,9.4525105 33.055,9.4525105 C33.5534699,9.4525105 34.0211106,9.69377936 34.31,10.1 L37.46,14.82 L21.34,14.82 L25.67,8.29 Z M17.38,16.78 L41.38,16.78 C42.3674266,16.7193715 43.3069284,17.2117347 43.8189798,18.0581923 C44.3310313,18.9046498 44.3310313,19.9653502 43.8189798,20.8118077 C43.3069284,21.6582653 42.3674266,22.1506285 41.38,22.09 L17.38,22.09 C15.9768705,22.0038471 14.8830184,20.8407719 14.8830184,19.435 C14.8830184,18.0292281 15.9768705,16.8661529 17.38,16.78 L17.38,16.78 Z M45.66,50.06 C40.5476708,52.3373793 34.9954075,53.457393 29.4,53.34 C23.8053271,53.4491975 18.2548292,52.3295399 13.14,50.06 C11.8748402,44.9935006 13.0391087,39.6267775 16.29,35.54 C16.5023334,35.2757364 16.5663262,34.9218935 16.46,34.6 C16.244892,33.9463872 16.0777813,33.2779445 15.96,32.6 C15.8343154,31.856575 15.7707625,31.103974 15.77,30.35 C15.7747052,28.1832779 16.2921404,26.0484295 17.28,24.12 L41.51,24.12 C42.4890863,26.0365075 42.9997241,28.1578822 43,30.31 C42.9981525,31.0635213 42.9379727,31.8157688 42.82,32.56 C42.7022187,33.2379445 42.535108,33.9063872 42.32,34.56 C42.2108982,34.880226 42.2710984,35.2339022 42.48,35.5 C44.8700844,38.4768675 46.1687809,42.1823873 46.1600442,46 C46.1566792,47.368483 45.9888075,48.7316016 45.66,50.06 L45.66,50.06 Z"/>
      <circle id="Oval" cx="34.02" cy="32.65" r="1" fill="#3D454C" fill-rule="nonzero"/>
      <circle id="Oval" cx="36.89" cy="30.11" r="1" fill="#3D454C" fill-rule="nonzero"/>
      <circle id="Oval" cx="26.74" cy="11.81" r="1" fill="#3D454C" fill-rule="nonzero"/>
      <path id="Path" fill="#3D454C" fill-rule="nonzero" d="M22.29 43L19.29 46C18.9022764 46.3900375 18.9022764 47.0199625 19.29 47.41 19.6800375 47.7977236 20.3099625 47.7977236 20.7 47.41L23.7 44.41C24.0397768 44.0132397 24.0169323 43.4218058 23.6475632 43.0524368 23.2781942 42.6830677 22.6867603 42.6602232 22.29 43L22.29 43zM36.5 36.25L32.64 35.71C32.2827344 35.6599828 31.9259235 35.804364 31.7039746 36.0887564 31.4820257 36.3731489 31.428658 36.7543468 31.5639746 37.0887564 31.6992912 37.4231661 32.0027344 37.6599828 32.36 37.71L36.22 38.25 36.36 38.25C36.861932 38.2549401 37.2897504 37.8870163 37.36 37.39 37.3998481 37.1243578 37.3311507 36.8538536 37.1693808 36.6394145 37.007611 36.4249753 36.7663722 36.2846339 36.5 36.25zM33.5 39.07L29.64 38.53C29.0932605 38.4527669 28.5873971 38.8332837 28.51 39.38 28.4327669 39.9267395 28.8132837 40.4326029 29.36 40.51L33.22 41.05 33.36 41.05C33.7172656 41.0750086 34.0607345 40.9075186 34.2610254 40.6106218 34.4613163 40.313725 34.4880001 39.9325272 34.3310254 39.6106218 34.1740507 39.2887164 33.8572656 39.0750086 33.5 39.05L33.5 39.07zM30.51 41.89L26.65 41.34C26.0977153 41.2626802 25.5873199 41.6477153 25.5100001 42.2 25.4326802 42.7522847 25.8177153 43.2626801 26.37 43.34L30.23 43.88 30.37 43.88C30.9222847 43.9186599 31.4013401 43.5022847 31.44 42.95 31.4786599 42.3977153 31.0622847 41.9186599 30.51 41.88L30.51 41.89zM30 35.1800492L30.14 35.1800492C30.4146034 35.1461721 30.6629191 35.0000846 30.8258792 34.7764882 30.9888393 34.5528918 31.051878 34.271772 31 34L30.45 30.14C30.3726029 29.5932837 29.8667395 29.2127669 29.32 29.29 28.7732837 29.3673971 28.3927669 29.8732605 28.47 30.42L29 34.32C29.0702496 34.8170163 29.498068 35.1849401 30 35.1800492zM27.16 38.18L27.3 38.18C27.5727814 38.1436681 27.8185346 37.9965298 27.9793794 37.7732394 28.1402242 37.549949 28.2019431 37.2702436 28.15 37L27.61 33.14C27.5326029 32.5932837 27.0267395 32.2127669 26.48 32.29 25.9332837 32.3673971 25.5527669 32.8732605 25.63 33.42L26.17 37.28C26.2211593 37.7890925 26.6483498 38.1774475 27.16 38.18zM23.66 35.32C23.1132837 35.3973971 22.7327669 35.9032605 22.81 36.45L23.35 40.31C23.4202496 40.8070163 23.848068 41.1749401 24.35 41.1700492L24.49 41.1700492C24.7588623 41.1309871 25.0002794 40.9842614 25.1587238 40.763571 25.3171683 40.5428805 25.379001 40.2672224 25.33 40L24.79 36.14C24.6980567 35.6054397 24.1967193 35.2416373 23.66 35.32L23.66 35.32z"/>
    </g>
  </g>
</svg>
