<svg xmlns="http://www.w3.org/2000/svg" width="64" height="64" viewBox="0 0 64 64" style="background:#fff">
  <g id="Ruchbrot" fill="none" fill-rule="evenodd" stroke="none" stroke-width="1">
    <rect width="64" height="64" fill="#FFF"/>
    <g transform="translate(2 11)">
      <rect id="Rectangle" width="60" height="60" x="0" y="0"/>
      <path id="Path" fill="#E0A075" fill-rule="nonzero" d="M52.16 37C47.9819347 40.2478892 42.9601211 42.2295448 37.69 42.71 33.16 43.13 29.07 41.71 24.63 41.52 23.24 41.45 23.29 44.19 24.14 44.78 32.79 50.84 45.63 47.17 53.62 41.78 55.69 40.36 54.54 35.13 52.16 37zM52.72 19.42C44.94 12.7 33.54 9.49 23.52 12.3 23.17 12.18 18.9 13.98 18.45 15.18 16.95 17.33 18.5 17.18 19.85 17.51 20.0912103 18.2199229 20.6554105 18.7729875 21.37 19 28.27 20.9 33.59 25.87 35 33 35.21 34.06 36 35.67 37.34 35.59 42.61 35.27 51.72 34.48 55.46 30.3 58.78 26.6 55.77 22.06 52.72 19.42z" opacity=".5"/>
      <path id="Shape" fill="#3D454C" fill-rule="nonzero" d="M56.08,28.2 C56.32,26.1 55.27,24 52.95,21.94 C50.41189,19.617987 47.593353,17.6225031 44.56,16 C44.0937009,15.7748598 43.5368648,15.8605251 43.1597985,16.2154109 C42.7827323,16.5702968 42.6635075,17.1209241 42.86,17.6 C42.96,17.85 43.15,18.37 43.35,18.94 C41.6752907,17.2908353 39.8876217,15.760457 38,14.36 C37.9189184,14.297842 37.8275221,14.2504514 37.73,14.22 C35.7382601,13.501486 33.6821715,12.9757435 31.59,12.65 L31.34,12.65 C31.2637005,12.6627092 31.1896148,12.6862819 31.12,12.72 L31,12.72 C30.9211848,12.7648165 30.8502451,12.8222439 30.79,12.89 L30.73,12.89 C30.6491313,12.979718 30.5878303,13.085292 30.55,13.2 L30.55,13.2 L30.55,13.2 C30.4297591,13.8000771 30.0681814,14.3243647 29.55,14.65 C28.75,15.02 27.36,14.43 26.13,13.91 C25.68,13.72 25.22,13.54 24.77,13.38 L24.44,13.26 L24.44,13.26 C24.400145,13.2551826 24.359855,13.2551826 24.32,13.26 C24.2436489,13.2501634 24.1663511,13.2501634 24.09,13.26 L24,13.26 C18.885659,13.483188 13.9474069,15.192984 9.79,18.18 L9.79,18.18 C9.60571737,18.3136827 9.4287928,18.4572252 9.26,18.61 L9.21,18.67 C6.84,20.75 5.21,23.89 4.29,28.01 C3.46529622,31.93429 5.94709188,35.7928807 9.86,36.67 L22.86,39.56 L22.86,39.56 C22.7788282,39.7839599 22.7447838,40.0222704 22.76,40.26 C22.76,40.26 22.76,40.26 22.76,40.26 L22.76,43.39 C22.7533173,43.8864634 22.9315396,44.3676637 23.26,44.74 C24.73,46.47 27.79,48.35 34.12,48.35 C35.12,48.35 36.23,48.35 37.41,48.2 C46.23,47.51 55.24,44 55,39.62 L55,36.35 L55,36.35 C55,36.35 55,36.35 55,36.3 C54.9388746,35.6119141 54.5717134,34.98774 54,34.6 C53.409653,34.1591167 52.7250159,33.8612996 52,33.73 C54.5,32 55.86,30.14 56.08,28.2 Z M31.92,15.1 C33.7621774,16.1001894 35.3102218,17.5654876 36.41,19.35 C37.34,21.01 37.15,21.74 37.08,21.8 C37.01,21.86 35.76,21.8 34.18,19.93 C33.0776574,18.6627518 31.8251061,17.5344482 30.45,16.57 C31.0787152,16.2417448 31.5917448,15.7287152 31.92,15.1 L31.92,15.1 Z M6.23,28.44 C6.88,25.38 8.23,21.98 10.9,19.85 L10.9,19.85 C12.7602531,18.4402879 15.0469973,17.7098002 17.38,17.78 L17.62,17.78 C26.41,17.93 34.29,25.38 34.82,34.05 C34.8507771,34.6223428 34.8138548,35.1963177 34.71,35.76 L28,36.85 C26.8103189,37.0308112 25.6542643,37.3880759 24.57,37.91 L10.27,34.73 C7.4355654,34.0827412 5.63980281,31.2868633 6.23,28.44 L6.23,28.44 Z M52.98,36.44 L52.98,36.44 C52.98,37.71 50.75,39.8 45.61,41.44 C45.2410423,41.5221837 44.9499566,41.8053851 44.8576751,42.1719476 C44.7653935,42.5385101 44.8876892,42.9257796 45.173754,43.1728643 C45.4598189,43.4199489 45.8607578,43.4846162 46.21,43.34 C48.6471867,42.6696582 50.9322385,41.5356206 52.94,40 C52.53,42.15 46.57,45.49 37.2,46.32 C29,47 25.9,44.88 24.73,43.52 L24.73,42.9 C26.51,44.14 29.4,45.18 34.09,45.18 C35.09,45.18 36.2,45.18 37.38,45.02 C37.7372656,44.9878461 38.0502387,44.7675358 38.2010255,44.4420577 C38.3518122,44.1165797 38.3175044,43.7353818 38.1110255,43.4420577 C37.9045465,43.1487336 37.5572656,42.9878461 37.2,43.02 C29.06,43.74 25.91,41.6 24.73,40.3 L24.73,40.3 C24.82,40.04 25.82,39.24 28.33,38.82 L47.22,35.7 C50.06,35.23 52.1,35.61 52.79,36.16 C52.888214,36.2148521 52.9629237,36.3037922 53,36.41 L52.98,36.44 Z M54.1,28 C53.89,29.79 52.04,31.68 48.74,33.47 C48.7009401,33.4969498 48.6641507,33.5270502 48.63,33.56 C48.07,33.56 47.49,33.66 46.89,33.75 L36.81,35.39 C36.8553842,34.8943701 36.8553842,34.3956299 36.81,33.9 C36.27,24.97 28.74,17.21 19.87,15.9 C21.2324211,15.6260117 22.6125435,15.4489015 24,15.37 C27.3167044,16.6193071 30.295816,18.6259271 32.7,21.23 C34.7,23.55 36.87,24.41 38.25,23.44 C38.72,23.11 40.1,21.78 38.19,18.37 C37.6596725,17.4408499 37.0034632,16.5894604 36.24,15.84 L36.95,16.07 C39.3084061,17.8293783 41.4888154,19.8155269 43.46,22 C43.8971116,22.4815094 44.5986602,22.6185841 45.1848678,22.3370198 C45.7710754,22.0554555 46.1026109,21.4221751 46,20.78 C45.8291352,20.1027573 45.622173,19.4351372 45.38,18.78 C47.5804341,20.1597635 49.6610819,21.7219219 51.6,23.45 C53.43,25 54.26,26.56 54.1,28 Z"/>
      <path id="Path" fill="#3D454C" fill-rule="nonzero" d="M41.62,42.31 C41.0677153,42.31 40.62,42.7577153 40.62,43.31 C40.62,43.8622847 41.0677153,44.31 41.62,44.31 C42.1722847,44.31 42.62,43.8622847 42.62,43.31 C42.62,42.7577153 42.1722847,42.31 41.62,42.31 Z"/>
    </g>
  </g>
</svg>
