<svg xmlns="http://www.w3.org/2000/svg" width="64" height="64" viewBox="0 0 64 64" style="background:#fff">
  <g id="Rucola" fill="none" fill-rule="evenodd" stroke="none" stroke-width="1">
    <rect width="64" height="64" fill="#FFF"/>
    <g transform="translate(2 4)">
      <g id="Layer_2">
        <rect id="Rectangle" width="60" height="60" x="0" y="0"/>
      </g>
      <g id="Layer_1" fill-rule="nonzero" transform="translate(5 4)">
        <path id="Path" fill="#31E085" d="M47.22,23.54 C42.65,20.43 39.56,21.54 34.53,22.75 C33.65,22.97 32.78,23.2 31.9,23.44 C32.9856495,22.3702533 33.9087782,21.1472761 34.64,19.81 C37.28,14.81 37.74,0.48 28.98,0.86 C21.39,1.18 13.7,11.57 9.69,17.38 C4.61,24.71 -0.77,34.38 1.26,43.55 C1.28506392,43.6852655 1.31846087,43.8188533 1.36,43.95 C0.91,47.59 1.79,51.72 5.24,52.95 C11.9,55.3 19.8,50.81 26.13,48.81 C29.48,47.76 32.85,46.81 36.28,46.05 C40.59,45.11 44.61,45.23 47.66,41.67 C51.39,37.3 52.82,27.35 47.22,23.54 Z" opacity=".5"/>
        <path id="Shape" fill="#3D454C" d="M17,36.75 L16.6,36.02 L26.74,34.15 C28.3161435,33.8833502 29.4515622,32.4912894 29.3959505,30.8937169 C29.3403388,29.2961445 28.1108701,27.9864057 26.52,27.83 L23.11,27.48 C22.842302,27.4571324 22.6080291,27.2909656 22.497948,27.0458793 C22.3878668,26.800793 22.4192736,26.5152956 22.58,26.3 C22.7011211,26.1353146 22.886539,26.0298809 23.09,26.01 L31.65,24.76 C33.0233742,24.561782 34.0444077,23.3875935 34.05,22 C34.0633335,20.6620125 33.1150243,19.5071827 31.8,19.26 L29.9,18.76 L35,17.12 C36.2764808,16.800396 37.1662359,15.6457836 37.1502186,14.33 C37.1598149,12.9060553 36.1343431,11.6856592 34.73,11.45 C34.58,11.45 34.34,11.45 33.51,11.38 C33.08,11.38 32.64,11.38 32.51,11.38 C32.3198852,11.3558012 32.1584916,11.2289919 32.09,11.05 C31.9991255,10.8885775 31.9991255,10.6914225 32.09,10.53 L34.31,7.33 C34.9518854,6.45122188 35.2080157,5.34884797 35.019326,4.2770905 C34.8306363,3.20533303 34.2134164,2.25671794 33.31,1.65 C31.7186557,0.579726707 29.5916224,0.789493312 28.24,2.15 L25.15,5.23 C25.032331,5.34278997 24.8726333,5.40086187 24.71,5.39 C24.5431861,5.37111074 24.3931823,5.279645 24.3,5.14 L23.71,4.25 C22.8507763,2.97835879 21.2633461,2.41480913 19.7946292,2.86001394 C18.3259123,3.30521875 17.3185555,4.65531323 17.31,6.19 L17.31,12.19 L15.82,9.7 C14.8873628,8.18296972 12.9686616,7.60143679 11.3507393,8.34542626 C9.73281701,9.08941573 8.92539559,10.9245358 9.47,12.62 C9.88,13.85 10.23,15.33 10.58,16.77 C10.93,18.21 11.21,19.38 11.58,20.38 C11.6720598,20.6670998 11.5512586,20.9795167 11.29,21.13 C10.9921144,21.3289185 10.5939109,21.2823203 10.35,21.02 C9.91,20.52 9.54,20.08 9.14,19.61 C8.74,19.14 8.24,18.54 7.65,17.88 C7.02169719,17.1711071 6.10616052,16.7848872 5.15995936,16.8295743 C4.21375821,16.8742614 3.33869615,17.3450476 2.78,18.11 C2.10992001,18.995949 1.9507019,20.1673394 2.36,21.2 L6,30.29 C6.05633761,30.4225429 6.05739533,30.572099 6.00293806,30.7054254 C5.94848078,30.8387518 5.84302099,30.9448008 5.71,31 L3.91,31.77 C2.17153132,32.5108906 1.16699345,34.3463425 1.48,36.21 L2.59,42.87 L0.3,49.62 C0.197513992,49.9329344 0.255654901,50.276265 0.455459027,50.5380084 C0.655263153,50.7997518 0.971117313,50.9463547 1.3,50.93 L5.9,50.93 C6.25868476,50.9312372 6.59065903,50.7406342 6.77,50.43 L9.77,45.21 L14.22,42.21 C15.69,41.25 18.44,39.42 17,36.75 Z M8.48,43.67 C8.34953711,43.7552475 8.24286795,43.8722395 8.17,44.01 L5.35,48.93 L2.64,48.93 L4.52,43.27 C4.56447944,43.1130913 4.56447944,42.9469087 4.52,42.79 L3.41,35.88 C3.24947935,34.9224158 3.76635164,33.9796407 4.66,33.6 L6.46,32.83 C7.73873601,32.2917401 8.34543741,30.824058 7.82,29.54 L4.18,20.45 C4.02858321,20.0490632 4.09677821,19.5982184 4.36,19.26 C4.56542977,18.9908896 4.88156513,18.8291459 5.22,18.82 C5.55999193,18.7992287 5.8898579,18.9400704 6.11,19.2 C6.69,19.85 7.11,20.38 7.58,20.89 C8.05,21.4 8.37,21.83 8.82,22.34 C9.73692641,23.3542277 11.2627252,23.5337334 12.39,22.76 C13.3674174,22.1041657 13.7951,20.8822154 13.44,19.76 C13.13,18.84 12.84,17.62 12.52,16.32 C12.17,14.84 11.8,13.32 11.36,12.01 C11.1157773,11.3283216 11.3828674,10.5687842 12,10.19 C12.3495846,9.9647739 12.7773868,9.8958905 13.18,10 C13.5675019,10.1012119 13.900786,10.3484872 14.11,10.69 L16,13.91 C16.3994766,14.6158509 17.2275827,14.9598806 18.0096195,14.7448796 C18.7916562,14.5298785 19.3275055,13.8108641 19.31,13 L19.31,6.19 C19.316175,5.72212611 19.5374971,5.28317074 19.91,5 C20.2331314,4.76530606 20.6373968,4.67116325 21.0309694,4.73895565 C21.4245419,4.80674804 21.7740123,5.03072095 22,5.36 L22.6,6.25 C23.0189412,6.89039617 23.7052284,7.30675794 24.4667264,7.38251922 C25.2282244,7.4582805 25.9830942,7.18529916 26.52,6.64 L29.64,3.52 C30.3180259,2.83165597 31.3911995,2.72644287 32.19,3.27 C32.64519,3.57380712 32.9560035,4.05086984 33.05,4.59 C33.1523964,5.13283095 33.0257169,5.69383979 32.7,6.14 L30.48,9.35 C29.9725516,10.0708705 29.8717081,11.0021189 30.213079,11.8149068 C30.5544499,12.6276947 31.2900019,13.207657 32.16,13.35 C32.31,13.35 32.56,13.35 33.4,13.41 L34.4,13.41 C34.8485226,13.4939753 35.1677134,13.8940278 35.15,14.35 C35.1437559,14.7599666 34.8521199,15.1099298 34.45,15.19 L28.67,17 C27.8491503,17.2005329 27.2866557,17.9561227 27.33,18.8 C27.3422785,19.6090498 27.9168045,20.3001463 28.71,20.46 L31.38,21.17 C31.7689031,21.2297404 32.0545617,21.5665616 32.05,21.96 C32.0431171,22.3634106 31.7403901,22.7002477 31.34,22.75 L22.78,24 C21.4062345,24.1927832 20.3932936,25.3818628 20.4213384,26.7688057 C20.4493832,28.1557485 21.5095642,29.3029084 22.89,29.44 L26.31,29.79 C26.9380368,29.8377872 27.4178286,30.3704001 27.4,31 C27.4025917,31.5858707 26.9783614,32.0864624 26.4,32.18 L16,34.1 C15.4815748,34.157729 15.0159275,34.443717 14.73,34.88 C14.4411056,35.3124186 14.3569934,35.850005 14.5,36.35 C14.5205656,36.4189481 14.547342,36.4858889 14.58,36.55 L15.22,37.71 C15.48,38.18 15.8,38.77 13.1,40.57 L8.48,43.67 Z"/>
        <path id="Path" fill="#3D454C" d="M16.21 30.54C16.21 29.9877153 15.7622847 29.54 15.21 29.54L14.21 29.54C17.3559804 24.7100473 20.7957964 20.0779844 24.51 15.67 24.8032676 15.4104825 24.9180658 15.0036654 24.8037206 14.6291252 24.6893755 14.2545849 24.366932 13.9812554 23.9787228 13.9297892 23.5905135 13.8783231 23.207988 14.0581925 23 14.39 21.21 16.54 19.65 18.52 18.24 20.39L17.69 19.27C17.4515024 18.7740741 16.8571358 18.5640347 16.36 18.8 16.1192 18.9145232 15.9341105 19.1204738 15.8458565 19.3720915 15.7576026 19.6237091 15.7734941 19.900153 15.89 20.14L16.89 22.19C10.25 31.19 8.21 36.14 8.11 36.4 7.90401128 36.9108544 8.14992161 37.492097 8.66 37.7 8.78091133 37.7478158 8.90998708 37.7715929 9.04 37.770075 9.44615194 37.766325 9.80973426 37.5173501 9.96 37.14 10.8302618 35.2131112 11.8326499 33.3486693 12.96 31.56L15.24 31.56C15.7883933 31.5436556 16.2212162 31.0885222 16.21 30.54zM50.14 28.91C49.559651 27.0873937 47.770162 25.9307217 45.87 26.15L40.87 26.72 41 25C41.084017 23.9363871 40.7217344 22.8857676 40 22.1 39.4288284 21.434131 38.6065535 21.0356717 37.73 21 37.1777153 21 36.73 21.4477153 36.73 22 36.73 22.5522847 37.1777153 23 37.73 23 38.0595904 23.015012 38.367843 23.167325 38.58 23.42 38.9010803 23.8119928 39.052282 24.3159986 39 24.82L38.75 27.77C38.7253126 28.0681147 38.8353793 28.3616259 39.05 28.57 39.2660779 28.7765348 39.5632168 28.8755811 39.86 28.84L46.12 28.13C47.0810127 28.0149582 47.9864991 28.6045773 48.27 29.53 48.4397008 30.0511547 48.3880887 30.6191175 48.1272262 31.101146 47.8663638 31.5831744 47.4191116 31.9370261 46.89 32.08L40.81 33.92C40.4820686 34.0156467 40.2256467 34.2720686 40.13 34.6 40.0372154 34.9303265 40.120261 35.2851577 40.35 35.54L42.43 37.85C42.7325455 38.1965975 42.7325455 38.7134025 42.43 39.06 42.1883565 39.3554433 41.7794115 39.45359 41.43 39.3L34.49 36.14C33.7264186 35.8019113 32.8304604 36.0401012 32.3355829 36.7127502 31.8407053 37.3853993 31.8799706 38.3116464 32.43 38.94L35.23 42.05C35.4678171 42.3409156 35.4678171 42.7590844 35.23 43.05 34.9703403 43.3662964 34.5155468 43.439235 34.17 43.22L26.88 39.2C26.24644 38.8284423 25.4922538 38.7207015 24.78 38.9 23.7930303 39.1424231 23.0224231 39.9130303 22.78 40.9 22.5263987 41.8676586 22.8307004 42.896121 23.57 43.57L25.83 45.66C26.2775976 46.0821211 26.3296263 46.7758371 25.95 47.26 25.5922223 47.7242804 24.9443129 47.8487134 24.44 47.55L24.31 47.49 16.31 44.37C16.1961609 44.3219274 16.0735583 44.298088 15.95 44.3L14.44 44.3C13.8877153 44.3 13.44 44.7477153 13.44 45.3 13.44 45.8522847 13.8877153 46.3 14.44 46.3L15.8 46.3 23.55 49.3C24.9052787 50.0361097 26.5936715 49.6899892 27.55 48.48 28.5787196 47.179934 28.4441845 45.3094627 27.24 44.17L25 42.09C24.8045552 41.9058752 24.7241864 41.6303252 24.79 41.37 24.8551827 41.1053696 25.0641976 40.9002254 25.33 40.84 25.5308692 40.7916998 25.7426669 40.824008 25.92 40.93L33.17 45C34.3600528 45.7192926 35.8976669 45.4562498 36.7809408 44.3822691 37.6642147 43.3082883 37.6254902 41.7488175 36.69 40.72L34.61 38.42 40.61 41.13C41.8040431 41.6481475 43.1973532 41.2946823 44 40.27 44.8871847 39.1582183 44.8406628 37.5680149 43.89 36.51L42.89 35.38 47.42 34C48.4685067 33.7050642 49.3513987 32.9953071 49.8647462 32.0346679 50.3780937 31.0740286 50.4774984 29.9455908 50.14 28.91z"/>
      </g>
    </g>
  </g>
</svg>
