<svg xmlns="http://www.w3.org/2000/svg" width="64" height="64" viewBox="0 0 64 64" style="background:#fff">
  <g id="Safran" fill="none" fill-rule="evenodd" stroke="none" stroke-width="1">
    <rect width="64" height="64" fill="#FFF"/>
    <g transform="translate(2 6)">
      <g id="Layer_2">
        <rect id="Rectangle" width="60" height="60" x="0" y="0"/>
      </g>
      <g id="Layer_1" fill-rule="nonzero" transform="translate(7 3)">
        <path id="Path" fill="#4885E0" d="M27.82 4C27.39 2.91 26.23 1.13 25 .81L21.1 1.67C20.3379972 2.42738198 19.7628113 3.35178775 19.42 4.37 19.36 4.53 19.29 4.69 19.23 4.86 18.7491528 6.26719543 18.4992544 7.74294675 18.49 9.23 18.4413347 10.6709382 18.6863016 12.1067163 19.21 13.45 19.5696202 14.398152 20.1528037 15.2454834 20.91 15.92 21.5476257 16.415013 22.3154971 16.7138227 23.12 16.78 24.37 17 25.75 15.52 26.32 14.66L26.59 14.26C26.78 13.98 26.93 13.68 27.12 13.4 28.1648308 11.6937298 28.6895716 9.71987016 28.63 7.72 28.5865015 6.44130461 28.3120846 5.18101938 27.82 4L27.82 4zM40.75 9.54C38.63 8.54 36.52 9.8 34.75 10.96 33.233212 11.8072031 32.0565595 13.1534632 31.42 14.77 30.65 17.12 30.59 19.99 32.09 22.08 32.6860452 23.0569093 33.6532858 23.7498578 34.77 24 35.6236424 24.1845394 36.5007989 24.2351446 37.37 24.15 38.2220715 24.0271642 39.0642331 23.8433591 39.89 23.6 41.2121081 23.1470134 42.3198794 22.2209024 43 21 45.25 17.64 44.58 11.42 40.75 9.54zM42.61 29.37C41.06 27.71 38.77 27.15 36.61 26.81 34.3014524 26.319023 31.9262919 27.280963 30.61 29.24 28.88 31.6 29.53 35.18 30.82 37.51 31.3348437 38.3580263 32.0444647 39.0710755 32.89 39.59 33.3789519 39.9250234 33.8864258 40.2321786 34.41 40.51 34.52 40.57 34.96 40.81 35.04 40.83 36.3123452 41.8051241 37.6486794 42.6937863 39.04 43.49 40.3865346 43.9726795 41.8907217 43.6336529 42.9 42.62 43.8965097 41.5878328 44.5886163 40.3005145 44.9 38.9 45.8285131 35.5409365 44.9633396 31.9404546 42.61 29.37zM27.41 43.77C27.4449388 41.8108351 27.0702716 39.865972 26.31 38.06 25.79 37.06 25.11 35.77 23.94 35.41 22.8958463 35.0153861 21.717055 35.2786495 20.94 36.08 19.5590638 37.7765242 18.6855158 39.8286685 18.42 42 17.79 45.32 18.08 49 20.64 51.47 21.5697438 52.2676576 22.8698667 52.4727365 24 52 27 50.65 27.51 46.68 27.41 43.77zM8.44 26.22C7.61607379 26.3359771 6.80984304 26.5543312 6.04 26.87 4.77933967 27.4733343 3.70234795 28.4018945 2.92 29.56 2.68 30.08 2.43 30.56 2.18 31.11 1.83823825 32.0110094 1.66207553 32.9663534 1.66 33.93 1.50790564 35.5637968 1.75143558 37.2101964 2.37 38.73 2.80029716 39.7356531 3.42958418 40.6438673 4.22 41.4 5.27812084 42.3076521 6.74911105 42.5611386 8.05 42.06 8.53178737 41.9158292 8.98036633 41.6779464 9.37 41.36 10.11 40.92 10.88 40.53 11.65 40.14 12.3364074 39.7991013 12.9724213 39.3649965 13.54 38.85 15.1 37.35 15.43 35.23 15.54 33.19 15.7284497 31.2664532 15.0361536 29.3609691 13.6569203 28.0069894 12.277687 26.6530097 10.3597363 25.9960402 8.44 26.22zM13.84 15.07C13.5203954 14.2941031 13.1391773 13.5450429 12.7 12.83 12.0097728 11.8640196 11.0789994 11.0952697 10 10.6 9.6 10.42 9.21 10.21 8.8 10.04 7.6929953 9.6207788 6.46619195 9.64947595 5.38 10.12 4.54075983 10.5237476 3.84348432 11.1722138 3.38 11.98 2.64774399 13.2218771 2.24179997 14.6289204 2.2 16.07 1.90998969 18.6433119 2.78679824 21.2113705 4.59 23.07 4.75190924 23.220564 4.92581803 23.3576844 5.11 23.48L6.28 24.19 7.57 24.42C8.04480176 24.4733138 8.52221442 24.5000222 9 24.5 9.69217788 24.5266565 10.3799425 24.3787871 11 24.07 11.6403755 23.7258104 12.1995887 23.2484333 12.64 22.67L12.51 22.83 12.7 22.63C14.4903021 20.5334606 14.9324621 17.6012419 13.84 15.07L13.84 15.07z" opacity=".5"/>
        <path id="Path" fill="#EBE53F" d="M28.52,19.62 C26.4000127,17.1007241 22.893304,16.243259 19.85,17.5 C15.54,19.33 14.14,24.25 15.18,27.9 C15.4958696,29.2969792 16.3010415,30.5348867 17.45,31.39 L17.66,31.51 C17.8050268,31.7124823 17.9619707,31.9061577 18.13,32.09 C19.4433029,33.7076975 21.448859,34.6027697 23.53,34.5 C25.5605514,34.341419 27.4335713,33.3451318 28.7,31.75 C31.510564,28.1710042 31.4355223,23.114025 28.52,19.62 Z" opacity=".5"/>
        <path id="Shape" fill="#3D454C" d="M39.16,28.77 C35.3475137,26.8384568 31.2364986,25.5639068 27,25 L27.53,24.77 C30.4166391,23.4633649 33.1087883,21.7639458 35.53,19.72 L35.53,19.72 L34.21,18.22 C31.9139442,20.1496108 29.3591742,21.7484457 26.62,22.97 L25,23.67 C27.05,19.89 28.18,13.82 28.33,10.21 C28.6297871,6.50292965 26.7063401,2.97006773 23.43,1.21 C23.1581917,1.04666331 22.8471097,0.96 22.53,0.96 C22.2125511,0.978957983 21.9025789,1.06411519 21.62,1.21 C18.3417451,2.96814152 16.4175558,6.50236676 16.72,10.21 C16.9419557,14.632046 17.9581616,18.9780201 19.72,23.04 L17.17,21.41 C16.98,21.3 12.48,18.59 9.7,18.25 C9.14771526,18.1837259 8.6462742,18.5777153 8.58000004,19.13 C8.51372587,19.6822847 8.90771527,20.1837258 9.46,20.25 C11.41,20.48 14.94,22.41 16.12,23.12 L19.1,25 C14.564115,25.4594901 10.1545981,26.7653855 6.1,28.85 C2.73523476,30.4431579 0.634513624,33.8789168 0.75,37.6 C0.748874951,37.9146788 0.828037109,38.2244437 0.98,38.5 C1.1408205,38.7790017 1.37632302,39.0075777 1.66,39.16 C3.18063361,40.0439368 4.9014498,40.5257653 6.66,40.56 C8.53887998,40.5196722 10.3671949,39.9437703 11.93,38.9 C14.93,37 19.56,33.05 21.85,29.41 L22.11,34.15 C22.2185566,36.1966633 22.1011812,38.249057 21.76,40.27 L21.62,41.11 C21.5767794,41.3726722 21.6400752,41.6417362 21.7958667,41.8575919 C21.9516582,42.0734476 22.1870857,42.2182773 22.45,42.2601071 L22.61,42.2601071 C23.1021797,42.2671559 23.5263726,41.9150758 23.61,41.43 L23.75,40.59 C24.0952876,38.4114098 24.1992494,36.2013833 24.06,34 L23.84,30 C26.4669591,33.493561 29.6896875,36.4962502 33.36,38.87 C34.9179997,39.9160227 36.7438071,40.492228 38.62,40.53 C40.3796322,40.4940458 42.1008328,40.0086672 43.62,39.12 C43.8968509,38.9744128 44.1259652,38.7522413 44.28,38.48 C44.4474522,38.2030658 44.530832,37.8834432 44.52,37.56 C44.6525559,33.8215893 42.5441585,30.363975 39.16,28.77 Z M22.56,3 C25.1326046,4.40978548 26.6277474,7.20778239 26.37,10.13 C26.21,14.13 24.81,20.9 22.56,23.88 C20.31,20.88 18.91,14.13 18.76,10.13 C18.4977025,7.20946039 19.9893354,4.41068602 22.56,3 Z M10.82,37.2 C8.41816509,38.8832856 5.24884835,38.989191 2.74,37.47 C2.67208933,34.5403632 4.34396661,31.8480913 7,30.61 C10.55,28.74 17.11,26.61 20.82,27.03 C19.37,30.47 14.2,35.06 10.82,37.2 Z M34.42,37.13 C31,35 25.87,30.4 24.41,27 C28.13,26.55 34.68,28.72 38.22,30.58 C40.8836305,31.8176824 42.5631458,34.5135399 42.5,37.45 C39.9826935,38.9596815 36.8100307,38.8340315 34.42,37.13 Z"/>
        <path id="Path" fill="#3D454C" d="M26.24 34.81C25.7101775 34.9386144 25.381023 35.4679305 25.5 36 25.9990074 37.8884483 26.3138124 39.8208151 26.44 41.77 26.7037693 44.6934728 25.2122773 47.4959077 22.64 48.91 20.0657831 47.4968085 18.570781 44.695151 18.83 41.77 18.9273568 39.8789267 19.232527 38.0043102 19.74 36.18 19.8528393 35.6513042 19.5250727 35.1286493 19 35 18.7413651 34.9368613 18.4682296 34.9794619 18.2411066 35.1183635 18.0139836 35.2572652 17.8516246 35.4810001 17.79 35.74 17.2408501 37.6979923 16.9055585 39.7097424 16.79 41.74 16.4920899 45.449304 18.419787 48.9827609 21.7 50.74 21.9593657 50.8982564 22.2562139 50.9845495 22.56 50.99L22.56 50.99C22.8843737 50.9972538 23.2039083 50.9104238 23.48 50.74 26.7582549 48.9818585 28.6824442 45.4476332 28.38 41.74 28.2524431 39.6585102 27.9174494 37.5949488 27.38 35.58 27.2649484 35.0612052 26.7642288 34.7229999 26.24 34.81L26.24 34.81zM28.56 19.15C28.7682291 19.3274062 29.0400445 19.4117638 29.3121273 19.3834218 29.5842101 19.3550798 29.8328041 19.216513 30 19 31.1927814 17.4603821 32.5324156 16.0403698 34 14.76 36.176301 12.7812063 39.3208251 12.2859437 42 13.5 42.4283988 16.4000989 41.0972598 19.2783435 38.61 20.83 37.0425471 21.8917485 35.366418 22.7834491 33.61 23.49 33.1428723 23.6573845 32.8691418 24.1419974 32.966939 24.6284762 33.0647363 25.1149549 33.5044774 25.456138 34 25.43 34.1374138 25.4311002 34.2735797 25.403867 34.4 25.35 36.280423 24.5947038 38.0740868 23.6392006 39.75 22.5 42.9011474 20.5116089 44.5709149 16.842049 44 13.16 43.967301 12.8476701 43.8497174 12.5502528 43.66 12.3 43.4660784 12.0457401 43.2068988 11.8487636 42.91 11.73 39.5311072 10.1676155 35.5470546 10.7609015 32.77 13.24 31.1916699 14.5980879 29.7513443 16.1087549 28.47 17.75 28.112722 18.1629653 28.1527858 18.7861806 28.56 19.15z"/>
        <path id="Path" fill="#3D454C" d="M37.89 15.38C37.3377153 15.38 36.89 15.8277153 36.89 16.38 36.89 16.9322847 37.3377153 17.38 37.89 17.38 38.4422847 17.38 38.89 16.9322847 38.89 16.38 38.89 15.8277153 38.4422847 15.38 37.89 15.38zM5.93 23C7.7918284 23.9331822 9.74129608 24.6801432 11.75 25.23 11.843672 25.2608768 11.9413965 25.2777258 12.04 25.28 12.5922847 25.3600813 13.1049187 24.9772847 13.185 24.425 13.2650813 23.8727153 12.8822847 23.3600813 12.33 23.28 10.4462201 22.7673145 8.61742046 22.0706289 6.87 21.2 4.20899902 19.9569543 2.53667075 17.2561049 2.61 14.32 5.12337669 12.8044292 8.29593081 12.922222 10.69 14.62 12.2773124 15.6523161 13.7461591 16.8562339 15.07 18.21 15.4704064 18.5910765 16.1039235 18.5754064 16.485 18.175 16.8660765 17.7745936 16.8504064 17.1410765 16.45 16.76 15.0268534 15.3206906 13.4546801 14.0368049 11.76 12.93 8.70575203 10.8013592 4.67971575 10.6874519 1.51 12.64 1.23469703 12.7922324 1.00641749 13.0170531.85 13.29.681712715 13.5629007.598187496 13.8796005.61 14.2.466264376 17.9326804 2.55802098 21.3927289 5.93 23L5.93 23z"/>
      </g>
    </g>
  </g>
</svg>
