<svg xmlns="http://www.w3.org/2000/svg" width="64" height="64" viewBox="0 0 64 64" style="background:#fff">
  <g id="Sahnepulver" fill="none" fill-rule="evenodd" stroke="none" stroke-width="1">
    <rect width="64" height="64" fill="#FFF"/>
    <g transform="translate(2 10)">
      <rect id="Rectangle" width="60" height="60" x="0" y="0"/>
      <path id="Path" fill="#4885E0" fill-rule="nonzero" d="M46.25,42.54 C36.2552357,46.2209611 25.2868355,46.2846486 15.25,42.72 C12.31,41.72 10.98,46.07 14,47.13 C24.9112451,50.9514953 36.8096237,50.8737513 47.67,46.91 C50.67,45.81 49.18,41.48 46.25,42.54 Z" opacity=".5"/>
      <path id="Path" fill="#CCC" fill-rule="nonzero" d="M47.89,22.59 C44.3,15.73 37.11,9.93 28.38,11.81 C18.6,13.91 17.27,22.88 12,29.26 C9.41,32.38 11.09,35.26 14.05,36.66 C19.87,43.48 34.76,45.02 43.39,40.27 C43.429871,40.2654571 43.470129,40.2654571 43.51,40.27 C52.81,37.47 51.33,29.18 47.89,22.59 Z" opacity=".5"/>
      <path id="Shape" fill="#464646" fill-rule="nonzero" d="M54.7,31.68 C54.7,26.47 49.7,21.79 41.7,19.45 C39.8080688,17.0317986 37.673615,14.8135751 35.33,12.83 L34.33,11.98 C32.3738289,10.1522714 29.3361711,10.1522714 27.38,11.98 C24.8334543,14.206798 22.4908199,16.6565243 20.38,19.3 C20.2902727,19.290092 20.1997273,19.290092 20.11,19.3 C11.8,21.6 6.64,26.3 6.64,31.66 C6.73770963,33.4177529 7.24083262,35.1290556 8.11,36.66 C8.10532148,36.6797264 8.10532148,36.7002736 8.11,36.72 L12.78,44.04 C14.1680859,46.7515904 16.632128,48.7547587 19.57,49.56 C23.2019757,50.5200147 26.9432915,51.0040663 30.7,51.0003896 C34.4101726,51.0157259 38.1070278,50.5552994 41.7,49.63 C44.6116939,48.8343779 47.0586845,46.8586596 48.45,44.18 L53.08,36.71 L53.08,36.71 C54.1208148,35.2380202 54.6861376,33.4827279 54.7,31.68 Z M46.7,43.14 C45.5703121,45.3520074 43.5640057,46.9882536 41.17,47.65 C34.2730342,49.3485165 27.0669658,49.3485165 20.17,47.65 C17.7542839,46.9640825 15.7349999,45.3000764 14.6,43.06 L9.94,35.72 C9.23734064,34.4941658 8.81393433,33.128339 8.7,31.72 C8.7,27.84 12.51,24.15 18.57,21.97 C16.7380596,24.7226262 15.3855975,27.7656659 14.57,30.97 C14.4682586,31.322104 14.5672874,31.7016542 14.8280846,31.959168 C15.0888818,32.2166818 15.4696562,32.3108941 15.8204429,32.2047 C16.1712297,32.098506 16.4358173,31.8089226 16.51,31.45 C18.66,22.7 25.51,16.52 28.76,13.55 C29.9557167,12.4310497 31.8142833,12.4310497 33.01,13.55 L34.01,14.41 C37.72,17.71 42.8,22.24 45.29,31.47 C45.4106641,31.9192179 45.8251312,32.2259235 46.29,32.21 L46.55,32.21 C46.8060417,32.1398876 47.0236979,31.9708445 47.1550026,31.7401234 C47.2863072,31.5094024 47.3204836,31.2359398 47.25,30.98 C46.4451053,27.9270543 45.2093555,25.0043545 43.58,22.3 C49.3,24.5 52.76,28.02 52.76,31.8 C52.7375809,33.1995354 52.2912758,34.5593714 51.48,35.7 L51.48,35.7 L46.7,43.14 Z"/>
      <path id="Path" fill="#464646" fill-rule="nonzero" d="M47.72 26.13C47.3151927 26.5033132 47.28837 27.1336469 47.66 27.54 48.7016861 28.580807 49.3093038 29.9783278 49.36 31.45 49.36 36.6 40.81 40.95 30.7 40.95 20.59 40.95 12 36.6 12 31.45 12.0506962 29.9783278 12.6583139 28.580807 13.7 27.54 13.9855803 27.2858885 14.1013071 26.8912022 13.9981638 26.5231123 13.8950206 26.1550223 13.5910557 25.8779388 13.2150149 25.8092215 12.8389741 25.7405042 12.4566587 25.8921777 12.23 26.2 10.8521821 27.606817 10.0558243 29.4816504 10 31.45 10 37.9 19.11 43 30.7 43 42.29 43 51.36 37.95 51.36 31.5 51.3039405 29.5336586 50.5116629 27.6600291 49.14 26.25 48.9687811 26.0439736 48.7220583 25.9152585 48.4551239 25.8927006 48.1881895 25.8701428 47.9233652 25.9556286 47.72 26.13zM28.23 22.15C28.7822847 22.15 29.23 21.7022847 29.23 21.15 29.23 20.5977153 28.7822847 20.15 28.23 20.15 27.6777153 20.15 27.23 20.5977153 27.23 21.15 27.23 21.7022847 27.6777153 22.15 28.23 22.15z"/>
      <path id="Path" fill="#464646" fill-rule="nonzero" d="M38.1 28C38.6522847 28 39.1 27.5522847 39.1 27 39.1 26.4477153 38.6522847 26 38.1 26 37.5477153 26 37.1 26.4477153 37.1 27 37.1 27.5522847 37.5477153 28 38.1 28zM22.9 31.61C23.4522847 31.61 23.9 31.1622847 23.9 30.61 23.9 30.0577153 23.4522847 29.61 22.9 29.61 22.3477153 29.61 21.9 30.0577153 21.9 30.61 21.9 31.1622847 22.3477153 31.61 22.9 31.61zM25 37.51C28.8994018 38.4248618 32.9816156 38.1745046 36.74 36.79 37.94 36.35 37.42 34.41 36.21 34.86 32.7992187 36.1481617 29.0843373 36.4020815 25.53 35.59 24.26 35.3 23.72 37.23 25 37.51z"/>
    </g>
  </g>
</svg>
