<svg xmlns="http://www.w3.org/2000/svg" width="64" height="64" viewBox="0 0 64 64" style="background:#fff">
  <g id="Sahne-(Halbfettstufe,-25%-Fett)" fill="none" fill-rule="evenodd" stroke="none" stroke-width="1">
    <rect width="64" height="64" fill="#FFF"/>
    <g transform="translate(2 8)">
      <g id="Layer_2">
        <rect id="Rectangle" width="60" height="60" x="0" y="0"/>
      </g>
      <g id="Layer_1" fill-rule="nonzero" transform="translate(3 10)">
        <path id="Path" fill="#31D4E0" d="M49,27.11 C41.6462734,30.1307595 33.7981296,31.7681908 25.85,31.94 C21.823689,32.0143357 17.8009337,31.6589923 13.85,30.88 C10.43,30.2 7.18,29 3.68,28.88 C1.99,28.88 2.15,31.98 3.09,32.72 C9.16,37.51 18.5,38.3 25.99,38.46 C34.352589,38.6061774 42.6523679,36.9911958 50.35,33.72 C53.07,32.63 52.16,25.86 49,27.11 Z" opacity=".5"/>
        <path id="Path" fill="#CCC" d="M46,12.82 C44.11,13.3 42.2,13.7 40.28,14.04 C39.71,11.43 38.19,9.37 35.65,9.53 L28.76,10 C30.02,7.67 30.43,1.85 26.76,2.18 C20.3,2.75 12.48,6.76 11.16,13.18 C9.43,13.04 7.7,12.83 5.96,12.53 C0.17,11.51 -0.28,25.6 5,27 C19.4313733,30.7153572 34.5686267,30.7153572 49,27 C54.82,25.52 53.09,11 46,12.82 Z" opacity=".5"/>
        <path id="Shape" fill="#3D454C" d="M52.6,22.63 C52.43,19.5 47.97,17.53 39,16.63 C39.3582417,15.9960342 39.5411777,15.2780967 39.53,14.55 C39.5084872,13.4046663 38.9857916,12.3263782 38.1,11.6 C36.18,10 32.59,9.41 28,10.05 C27.4182707,7.36754022 27.3436531,4.59990791 27.78,1.89 C27.8663736,1.36262765 27.5228409,0.860541341 27,0.75 C26.477751,0.642498621 25.9630141,0.96365923 25.83,1.48 C25.83,1.57 23.48,10.48 17.29,10.48 C13.15,10.48 9.79,13.2 9.79,16.55 C9.78927299,16.868829 9.81941358,17.1869796 9.88,17.5 C4.14,18.63 1.28,20.33 1.15,22.69 C-3.33066907e-16,27.36 1.43,37.22 15.27,41.38 C15.3640331,41.4589731 15.4510269,41.5459669 15.53,41.64 C15.834071,42.0323558 16.2484724,42.3248744 16.72,42.48 C17.1,42.57 17.5,42.68 17.92,42.8 C20.8181557,43.6685574 23.8353862,44.0735548 26.86,44 C29.6979026,44.078573 32.5301671,43.7038634 35.25,42.89 C35.69,42.77 36.09,42.65 36.48,42.57 C36.9506282,42.423897 37.3634193,42.1335439 37.66,41.74 C37.7315719,41.6584024 37.8084024,41.5815719 37.89,41.51 C52.2,37.62 53.78,27.49 52.6,22.63 Z M17.26,12.43 C21.26,12.43 23.89,9.75 25.52,7.11 C25.66,9.47 26.18,12.06 27.64,13.77 C28.7159584,15.0561254 30.32407,15.7753496 32,15.72 C32.5522847,15.72 33,15.2722847 33,14.72 C33,14.1677153 32.5522847,13.72 32,13.72 C30.9085095,13.7742756 29.8543132,13.3156077 29.15,12.48 C29.0154297,12.3149431 28.891831,12.1412368 28.78,11.96 C34.02,11.32 36.11,12.55 36.78,13.13 C37.2308911,13.469672 37.5031196,13.9957351 37.52,14.56 C37.52,17.26 33,17.82 29.2,17.82 C27.0117624,17.8409444 24.8428945,17.4085327 22.83,16.55 C22.5873476,16.4424151 22.3118776,16.4357155 22.0642822,16.5313774 C21.8166867,16.6270393 21.6172815,16.8172133 21.51,17.06 C21.2834005,17.5599117 21.5020902,18.1490349 22,18.38 C24.263345,19.3550236 26.7057051,19.8455394 29.17,19.82 C31.7164046,19.9447068 34.2607728,19.535973 36.64,18.62 C41.64,18.62 43.95,19.62 44.38,20.08 C43.79,20.78 39.77,22.46 27.38,22.46 C21.97,22.46 17.65,21.72 14.9,20.32 C12.9,19.32 11.76,17.94 11.76,16.5 C11.76,14.53 14,12.43 17.26,12.43 Z M10.42,19.37 C10.4935775,19.3538869 10.564351,19.3269256 10.63,19.29 C11.4839236,20.5117199 12.6468609,21.4848603 14,22.11 C17.08,23.67 21.58,24.46 27.39,24.46 C32.1092293,24.5671784 36.8270608,24.1918964 41.47,23.34 C44.84,22.59 46.47,21.52 46.47,20.07 C46.47,20.07 46.47,19.99 46.47,19.95 C50.23,21.05 50.64,22.32 50.64,22.81 C50.64,25.69 41.09,28.81 26.88,28.81 C12.38,28.81 3.12984316,25.27 3.12984316,22.81 C3.11,21.83 5,20.41 10.42,19.37 Z M37.27,39.63 C36.8399442,39.7810156 36.4641761,40.055883 36.19,40.42 C36.115073,40.5080592 36.0349289,40.5915426 35.95,40.67 C35.55,40.76 35.15,40.87 34.7,41 C32.1573192,41.7521616 29.5100764,42.0898201 26.86,42 C24.0200216,42.0644169 21.1879001,41.6762239 18.47,40.85 L17.27,40.52 C17.1750564,40.4350832 17.0849168,40.3449436 17,40.25 C16.7194166,39.8901152 16.3460297,39.6135323 15.92,39.45 C4.85,36.18 3,29.54 2.85,25.78 C6.85,28.96 16.97,30.78 26.85,30.78 C36.56,30.78 46.85,29.25 50.85,25.96 C50.71,29.84 48.67,36.54 37.27,39.63 Z"/>
        <path id="Path" fill="#3D454C" d="M19.09,16.65 C19.6422847,16.65 20.09,16.2022847 20.09,15.65 C20.09,15.0977153 19.6422847,14.65 19.09,14.65 C18.5377153,14.65 18.09,15.0977153 18.09,15.65 C18.09,16.2022847 18.5377153,16.65 19.09,16.65 Z"/>
      </g>
    </g>
  </g>
</svg>
