<svg xmlns="http://www.w3.org/2000/svg" width="64" height="64" viewBox="0 0 64 64" style="background:#fff">
  <g id="Sahne-(Vollfettstufe,-35%-Fett)" fill="none" fill-rule="evenodd" stroke="none" stroke-width="1">
    <rect width="64" height="64" fill="#FFF"/>
    <g transform="translate(2 9)">
      <g id="Layer_2">
        <rect id="Rectangle" width="60" height="60" x="0" y="0"/>
      </g>
      <g id="Layer_1" fill-rule="nonzero" transform="translate(3 10)">
        <path id="Path" fill="#E0673A" d="M49.52,25.82 C42.7190564,29.9006667 34.97856,32.1535749 27.05,32.36 C18.87,32.55 11.87,30.11 4.2,27.75 C2,27.07 1.87,31.16 3.1,32.14 C16.32,42.82 37.1,40.97 50.97,32.84 C53.63,31.29 52.44,24.09 49.52,25.82 Z" opacity=".5"/>
        <path id="Path" fill="#CCC" d="M45.05,11.12 C43.93,11.41 42.8,11.66 41.66,11.89 C40.92,8 38.43,4.89 34.96,7.73 C33.6037406,8.83783661 32.008363,9.61498405 30.3,10 C30.45,9.75 30.6,9.5 30.74,9.25 C31.74,7.37 31.37,-1.83 27.3,0.88 C22.64,3.98 18.76,6.77 12.98,7.24 C10.88,7.41 9.65,9.02 9.15,11.05 L7.57,10.68 C0.55,9 -0.6,23.28 5.34,24.93 C19.2763458,28.846866 34.0082031,28.9539189 48,25.24 C53.82,23.73 52.08,9.31 45.05,11.12 Z" opacity=".5"/>
        <path id="Shape" fill="#3D454C" d="M52.6,21.09 C52.46,18.41 49.15,16.58 42.54,15.55 C41.390894,15.3272407 40.2283879,15.1802571 39.06,15.11 C39.3718005,14.5688677 39.5340154,13.9545218 39.53,13.33 C39.5179939,12.3453944 39.0669265,11.417589 38.3,10.8 C36.46,9.18 32.78,8.62 27.95,9.22 C27.4088976,6.9041063 27.3408722,4.50281241 27.75,2.16 C27.830028,1.64442578 27.5002218,1.15397055 26.9925497,1.0335947 C26.4848777,0.913218853 25.9699762,1.20338259 25.81,1.7 C25.81,1.78 23.48,9.55 17.26,9.55 C13.12,9.55 9.76,12.01 9.76,15.04 C9.75750344,15.3330049 9.7910894,15.6252028 9.86,15.91 C4.11,17.05 1.25,18.75 1.12,21.11 C-1.11022302e-16,25.82 1.43,35.69 15.27,39.84 C15.3615232,39.9251937 15.4483194,40.0153282 15.53,40.11 C15.8396713,40.4964519 16.25216,40.7876204 16.72,40.95 C17.1,41.04 17.5,41.15 17.92,41.27 C20.8165287,42.1487063 23.833793,42.5638332 26.86,42.5 C29.6979026,42.578573 32.5301671,42.2038634 35.25,41.39 C35.69,41.26 36.09,41.15 36.48,41.07 C36.9506282,40.923897 37.3634193,40.6335439 37.66,40.24 C37.73,40.17 37.82,40.06 37.88,40.01 C52.2,36.09 53.78,26 52.6,21.09 Z M17.26,11.55 C20.6422606,11.4754816 23.754403,9.68581136 25.52,6.8 C25.5624319,8.82368483 26.2179831,10.7868515 27.4,12.43 C28.5440217,13.7746103 30.2465272,14.5132244 32.01,14.43 C32.5622847,14.43 33.01,13.9822847 33.01,13.43 C33.01,12.8777153 32.5622847,12.43 32.01,12.43 C30.8377554,12.4995157 29.7009242,12.0144183 28.94,11.12 C28.94,11.12 28.94,11.12 28.94,11.12 C34.5,10.54 36.51,11.86 37,12.29 C37.3200563,12.5274694 37.520843,12.8925361 37.55,13.29 C37.55,15.69 32.34,16.05 29.23,16.05 C27.0401441,16.1011138 24.8598404,15.7450766 22.8,15 C22.2836138,14.8011775 21.7038225,15.0586138 21.505,15.575 C21.3061775,16.0913862 21.5636138,16.6711775 22.08,16.87 C24.3582867,17.7273482 26.7758611,18.1545773 29.21,18.13 C30.75,18.13 34.21,18.13 36.69,17.07 C37.55,17.07 38.32,17.07 39.03,17.15 C40.2,17.27 41.24,17.41 42.18,17.55 C42.9219251,17.6717886 43.6404681,17.9079294 44.31,18.25 C43.31,18.94 39.06,20.25 27.38,20.25 C21.95,20.25 17.62,19.59 14.86,18.35 C12.86,17.45 11.76,16.29 11.76,15.09 C11.76,13.39 14,11.55 17.26,11.55 Z M10.42,17.84 C10.5314629,17.8194078 10.6371894,17.7750709 10.73,17.71 C11.6052837,18.76996 12.7284384,19.5977284 14,20.12 C17.06,21.5 21.55,22.2 27.34,22.2 C32.0437482,22.2849867 36.7457048,21.9503279 41.39,21.2 C44.64,20.56 46.23,19.67 46.39,18.4 C50.16,19.51 50.58,20.78 50.58,21.27 C50.58,24.15 41.03,27.27 26.82,27.27 C12.32,27.27 3.07,23.74 3.07,21.27 C3.11,20.3 5,18.88 10.42,17.84 Z M37.27,38.1 C36.8399442,38.2510156 36.4641761,38.525883 36.19,38.89 C36.117694,38.9773408 36.0373408,39.057694 35.95,39.13 C35.55,39.22 35.15,39.34 34.7,39.47 C32.1562216,40.2169284 29.5098252,40.554479 26.86,40.47 C24.0200216,40.5344169 21.1879001,40.1462239 18.47,39.32 C18.04,39.2 17.65,39.08 17.27,38.99 C17.1751399,38.9014784 17.0850147,38.8080153 17,38.71 C16.7060716,38.3855332 16.3344095,38.1411998 15.92,38 C4.85,34.65 3,28 2.85,24.25 C6.85,27.43 16.97,29.25 26.85,29.25 C36.56,29.25 46.85,27.73 50.85,24.44 C50.71,28.3 48.67,35 37.27,38.1 Z"/>
        <path id="Path" fill="#3D454C" d="M19.09,15.11 C19.6422847,15.11 20.09,14.6622847 20.09,14.11 C20.09,13.5577153 19.6422847,13.11 19.09,13.11 C18.5377153,13.11 18.09,13.5577153 18.09,14.11 C18.09,14.6622847 18.5377153,15.11 19.09,15.11 Z"/>
      </g>
    </g>
  </g>
</svg>
