<svg xmlns="http://www.w3.org/2000/svg" width="64" height="64" viewBox="0 0 64 64" style="background:#fff">
  <g id="Sahne-(Doppelrahmstufe,-45%-Fett)" fill="none" fill-rule="evenodd" stroke="none" stroke-width="1">
    <rect width="64" height="64" fill="#FFF"/>
    <g id="41-Rahm" transform="translate(2 7)">
      <g id="Layer_2">
        <rect id="Rectangle" width="60" height="60" x="0" y="0"/>
        <rect id="Rectangle" width="60" height="60" x="0" y="0"/>
      </g>
      <g id="Layer_1" transform="translate(10 8)">
        <path id="Path" fill="#79909A" fill-opacity=".5" d="M28.49,19 C30.2705757,20.0675218 31.8648866,21.4186327 33.21,23 C37.94,28.87 37.05,35.12 32.51,40.59 C31.4161885,42.1354883 30.1100084,43.5190966 28.63,44.7 C24.78,47.33 17.49,48.16 13,46.49 C6.26,43.96 1,37.16 1,30.1 C0.942534888,28.2610248 1.22388432,26.4271689 1.83,24.69 C5.3,16.36 15.36,13.48 23.46,15.43 C25.5370704,15.9095158 27.3368666,17.1981699 28.46,19.01 L28.49,19 Z"/>
        <path id="Path" fill="#3D454C" d="M6.46,40 C5.54559906,38.746677 4.86781023,37.3368762 4.46,35.84 C4.19160683,34.8372419 4.03729603,33.807385 4,32.77 C3.96296685,31.6915987 4.00642072,30.6119371 4.13,29.54 C4.2281278,28.4974753 4.44967825,27.4702868 4.79,26.48 C5.13283295,25.4959898 5.60353189,24.5613162 6.19,23.7 C6.38011643,23.3697694 6.3660363,22.9601933 6.15369062,22.6437982 C5.94134494,22.3274032 5.56764303,22.159184 5.19,22.21 C4.93833075,22.2619293 4.71631116,22.4087487 4.57,22.62 C3.8944643,23.6196055 3.35001658,24.7017793 2.95,25.84 C2.56210118,26.9733318 2.30706126,28.1478577 2.19,29.34 C2.06291166,30.5020597 2.01613397,31.6715021 2.05,32.84 C2.08882081,34.0358752 2.26327101,35.2234785 2.57,36.38 C3.04537124,38.1125598 3.83516044,39.742983 4.9,41.19 C5.94674914,42.621724 7.208276,43.8832509 8.64,44.93 C8.80374474,45.0546548 9.00421133,45.121477 9.21,45.120024 L9.36,45.120024 C9.61582424,45.0778813 9.84529038,44.9380504 10,44.73 C10.1526752,44.5193457 10.217244,44.2574837 10.18,44 C10.1378813,43.7441758 9.99805038,43.5147096 9.79,43.36 C8.51472358,42.416861 7.39166382,41.2836836 6.46,40 L6.46,40 Z"/>
        <path id="Shape" fill="#3D454C" d="M40.76,11.94 C40.4944006,8.8574165 38.4959538,6.19540778 35.61,5.08 C33.6317575,4.37618716 31.4802503,4.32362591 29.47,4.93 C29.2730915,4.58347533 29.0234354,4.2697183 28.73,4 C27.8312669,3.35023645 26.7215101,3.0612001 25.62,3.19 L19.08,3.19 C15.08,0.24 9.21,-1.51 4.98,1.97 C4.69468968,2.28038787 4.63469166,2.73637283 4.83,3.11 L8.17,8.32 C8.25686298,9.07948774 8.38370567,9.83386798 8.55,10.58 C8.70796133,11.7702495 8.73144248,12.9744975 8.62,14.17 C8.55803062,15.1101562 8.34881582,16.0347506 8,16.91 C7.7,17.66 7.35,18.39 7.06,19.13 C7.04562443,19.2127134 7.04562443,19.2972866 7.06,19.38 C7.07448075,19.8041327 7.35508986,20.1729332 7.76,20.3 C7.84300524,20.3104577 7.92699476,20.3104577 8.01,20.3 C8.43040355,20.2813803 8.79416743,20.001562 8.92,19.6 C9.01,19.36 9.11,19.14 9.27,18.78 C9.43,18.42 9.67,17.84 9.86,17.38 C10.2378613,16.418769 10.4769273,15.4086309 10.57,14.38 C10.700006,13.1567779 10.700006,11.9232221 10.57,10.7 C10.5,10.14 10.42,9.59 10.31,9.04 L10.31,9.04 L13.69,9.04 C14.1744194,8.99010243 14.5426604,8.58198251 14.5426604,8.095 C14.5426604,7.60801749 14.1744194,7.19989757 13.69,7.15 L9.69,7.15 L7,2.96 C7.86126093,2.46718931 8.80785135,2.14148078 9.79,2 C11.2729736,1.83072083 12.7749206,2.01932148 14.17,2.55 C14.6780303,2.7315296 15.1725957,2.9487374 15.65,3.2 L12.14,3.2 C11.6555806,3.24989757 11.2873396,3.65801749 11.2873396,4.145 C11.2873396,4.63198251 11.6555806,5.04010243 12.14,5.09 L18.81,5.09 C20.6083192,5.20000765 22.4116808,5.20000765 24.21,5.09 C24.94,5.09 25.71,5.04 26.45,5.09 C27.3417396,5.11160944 28.0548557,5.83801344 28.06,6.73 C28.0546289,6.85198451 28.0344817,6.97286725 28,7.09 L24.25,7.09 C23.7655806,7.13989757 23.3973396,7.54801749 23.3973396,8.035 C23.3973396,8.52198251 23.7655806,8.93010243 24.25,8.98 L24.25,8.98 L27.64,8.98 C27.58,9.3 27.52,9.62 27.44,9.93 C27.2702267,11.0112932 27.1999326,12.105873 27.23,13.2 C27.2790424,15.273898 27.7520848,17.3158075 28.62,19.2 C29.36,20.75 30.44,22.09 31.24,23.6 C31.8583745,24.7995657 32.3317068,26.0684992 32.65,27.38 C33.7582227,31.337314 33.2322622,35.5738176 31.19,39.14 C29.5508236,41.8727145 27.0072106,43.9458122 24,45 C22.2433949,45.3775405 20.4418536,45.5021331 18.65,45.37 C17.5954706,45.3883008 16.5407043,45.3515843 15.49,45.26 C14.9955879,45.2017725 14.4976934,45.1783815 14,45.19 C13.9343119,45.1348671 13.8599813,45.0909445 13.78,45.06 C12.78,44.57 11.78,46.16 12.84,46.7 C13.1307562,46.8788552 13.4480267,47.0104887 13.78,47.09 C13.9636287,47.0806803 14.145211,47.0470539 14.32,46.99 C14.4319075,47.0361488 14.5497122,47.0664414 14.67,47.08 C14.9315696,47.1201693 15.1954426,47.1435505 15.46,47.15 C16.15,47.2 16.84,47.24 17.53,47.25 C19.5201334,47.3183224 21.5125792,47.2347466 23.49,47 C26.32,46.62 28.98,44.63 30.86,42.63 C33.6751739,39.5280699 35.1615879,35.4458169 35,31.26 C36.8017009,28.1325078 38.2697623,24.8243421 39.38,21.39 C40.5490137,18.3849699 41.0208616,15.1538373 40.76,11.94 L40.76,11.94 Z M33.14,23.36 C32.7979691,22.6497601 32.4174024,21.958731 32,21.29 C30.6636101,19.4399174 29.7270691,17.3318487 29.25,15.1 C29.020004,13.6235824 28.9998043,12.1220704 29.19,10.64 L29.25,10.34 L29.36,10.28 C30.5143273,9.25008717 32.2313438,9.16673686 33.48,10.08 C34.9284416,11.066245 35.7011609,12.7816818 35.48,14.52 C35.3704216,16.4136081 34.9690231,18.2789306 34.29,20.05 C34,21.17 33.59,22.27 33.14,23.36 Z M37.31,21.64 C36.5784494,23.7974271 35.6928361,25.8995055 34.66,27.93 C34.5154426,27.2237019 34.3318273,26.5259639 34.11,25.84 C35.0805425,23.844545 35.8897936,21.7746009 36.53,19.65 C37.3019495,17.499127 37.598757,15.2065449 37.4,12.93 C37.1483568,10.8190878 35.8141782,8.99217292 33.88,8.11 C32.5911622,7.44453163 31.0768579,7.37155311 29.73,7.91 C29.8503953,7.55516304 29.9177874,7.18450654 29.93,6.81 C31.5561293,6.29014493 33.3038707,6.29014493 34.93,6.81 C37.77,7.76 38.93,10.67 38.93,13.48 C38.8716024,16.273835 38.3232834,19.0357379 37.31,21.64 L37.31,21.64 Z"/>
        <path id="Path" fill="#3D454C" d="M26.86 39.13C28.6636231 37.0976835 29.5625653 34.418908 29.35 31.71 29.293093 30.3115272 29.0267987 28.9294937 28.56 27.61 28.3785116 27.1417138 27.8778457 26.8806829 27.39 27 26.9809806 27.1128421 26.6982612 27.4857039 26.7 27.91 26.6901714 27.996388 26.6901714 28.083612 26.7 28.17 27.88 31.23 27.86 35.26 25.5 37.84 24.71 38.69 26 40 26.86 39.13zM26.05 23.5C25.5394149 23.527661 25.1423213 23.9544961 25.1515456 24.4657467 25.16077 24.9769973 25.5730027 25.38923 26.0842533 25.3984544 26.5955039 25.4076787 27.022339 25.0105851 27.05 24.5 27.0678819 24.229697 26.9682815 23.9648202 26.7767306 23.7732694 26.5851798 23.5817185 26.320303 23.4821181 26.05 23.5L26.05 23.5z"/>
      </g>
    </g>
  </g>
</svg>
