<svg xmlns="http://www.w3.org/2000/svg" width="64" height="64" viewBox="0 0 64 64" style="background:#fff">
  <g id="Saibling" fill="none" fill-rule="evenodd" stroke="none" stroke-width="1">
    <rect width="64" height="64" fill="#FFF"/>
    <g transform="translate(2 4)">
      <g id="Layer_2">
        <rect id="Rectangle" width="60" height="60" x="0" y="0"/>
      </g>
      <g id="Layer_1" fill-rule="nonzero" transform="translate(2 7)">
        <path id="Path" fill="#B3B3B3" d="M39.44,5.93 C33.64,7.93 28.44,13.08 23.97,17.12 C19.27,21.36 13.42,26.05 10.46,31.69 C10.2343265,32.236446 10.1089896,32.8190929 10.09,33.41 C7.44463067,31.9197704 4.13723923,32.325088 1.93,34.41 C0.28,36.16 0.42,40.55 3.25,41 C4.68,41.2 6.12,41.14 7.4,41.93 C7.89603211,42.2311146 8.31673134,42.6415529 8.63,43.13 C8.63,43.13 8.44,42.6 8.63,43.2 C8.63,43.2 8.63,43.2 8.63,43.25 C8.6124969,43.4061778 8.6124969,43.5638222 8.63,43.72 C8.63,45.66 9.73,48.82 12.12,48.72 C14.51,48.62 15.29,45.41 15.35,43.52 C15.3918475,41.751315 15.0507179,39.9944976 14.35,38.37 C19.19,34.79 23,29.19 27.22,25 C32,20.38 37.46,16.31 41.57,11.1 C42.73,9.63 42,5 39.44,5.93 Z" opacity=".5"/>
        <path id="Shape" fill="#3D454C" d="M54.56,3.47 C54.4024432,3.0985798 54.0962963,2.81029249 53.716087,2.67531821 C53.3358778,2.54034394 52.9164832,2.57106401 52.56,2.76 L52.37,2.86 C52.0586953,3.00771629 51.7126295,3.06654747 51.37,3.03 C51.3365157,2.97232974 51.31924,2.90668192 51.32,2.84 C51.3440249,2.62399933 51.3440249,2.40600067 51.32,2.19 C51.3124365,1.77520177 51.1367514,1.38125738 50.8332099,1.09845474 C50.5296684,0.815652096 50.1242961,0.668238647 49.71,0.69 C42.64,1.27 35.4,5.83 29,11.54 L28.89,11.54 C25.53,10.76 21.43,10.04 19.5,11.44 C18.8886745,11.8633941 18.4996021,12.5387652 18.44,13.28 L18.44,13.47 C18.4252747,13.7414792 18.3952269,14.0119099 18.35,14.28 C18.15,15.72 17.83,17.91 19,19.35 C19.3522033,19.7778076 19.8160146,20.0997064 20.34,20.28 C19.36,21.38 18.4266667,22.4666667 17.54,23.54 L17.41,23.54 C15.4192195,23.7603736 13.4678581,24.2515784 11.61,25 C8.16,26.4 8.16,27.27 8.16,27.69 C8.17430374,28.355232 8.69590544,28.8985671 9.36,28.94 L12.12,30.37 C10.92,32 9.92,33.42 9.12,34.54 C6.84810939,33.7244376 4.35486851,33.7778642 2.12,34.69 L2.12,34.69 C1.29996727,35.0321435 0.740204012,35.8042307 0.67,36.69 C0.604847082,37.5874843 1.04931258,38.445496 1.82,38.91 L1.87,38.91 C5.10055348,40.8864356 7.83684305,43.5748402 9.87,46.77 C9.87,46.82 9.87,46.88 9.92,46.93 C10.4290631,47.7235108 11.2975961,48.2139325 12.24,48.24 L12.24,48.24 C13.1509878,48.2056839 13.946437,47.6130742 14.24,46.75 C15.1485861,44.4359926 15.1485861,41.8640074 14.24,39.55 C16.6194773,37.8536172 19.1194335,36.3329219 21.72,35 C21.7873143,35.4294359 21.9403516,35.8409363 22.17,36.21 C22.7767166,37.1931647 23.8447731,37.7970129 25,37.81 C25.2794001,37.8057493 25.5575857,37.7722329 25.83,37.71 L29.28,36.84 C34.28,35.6 34.77,31.03 35.01,28.84 C35.0415492,28.504159 35.0916255,28.1703172 35.16,27.84 C35.1696595,27.7536025 35.1696595,27.6663975 35.16,27.58 C36.23,26.82 37.25,26.04 38.25,25.23 L39.9,27.7 C39.9976053,28.3221988 40.5302313,28.7829625 41.16,28.79 L41.25,28.79 C41.67,28.79 42.54,28.67 43.62,25.12 C44.1976952,23.2916125 44.5338772,21.3955458 44.62,19.48 C51.47,12.35 55.31,5.32 54.56,3.47 Z M25,31.2 C24.28,31.52 23.55,31.87 22.81,32.2 L22.69,32.26 C19.0952409,33.9877874 15.6788458,36.0644197 12.49,38.46 L12.49,38.46 C12.2258298,38.6565725 11.9721482,38.8668612 11.73,39.09 L11.73,39.09 C11.2350308,39.4824885 10.5349692,39.4824885 10.04,39.09 L9.91,39 C9.45364542,38.5400219 9.37876454,37.8244934 9.73,37.28 C17.07,26.15 27.83,13.49 38.36,7 C39.3714161,10.7824646 42.2578221,13.7784332 46,14.93 C41.14,20.63 33.92,27.21 25,31.2 Z M51.7,5.05 C51.9857256,5.02931067 52.2697138,4.98921822 52.55,4.93 C51.2460447,7.93681864 49.5037956,10.733853 47.38,13.23 C43.7372435,12.449398 40.9004704,9.58908326 40.15,5.94 C42.9800392,4.2944327 46.0999494,3.20806572 49.34,2.74 C49.3350365,2.78653469 49.3350365,2.83346531 49.34,2.88 C49.3252086,3.49209723 49.5745361,4.08095856 50.0243652,4.49633262 C50.4741943,4.91170669 51.0810173,5.11341846 51.69,5.05 L51.7,5.05 Z M21.63,18.53 C21.2029227,18.5450313 20.7904442,18.3734695 20.5,18.06 C19.89,17.3 20.13,15.57 20.28,14.53 C20.3488407,14.1470623 20.3856348,13.7590518 20.39,13.37 C20.414466,13.2289697 20.498201,13.1051874 20.62,13.03 C21.11,12.67 22.62,12.25 27.14,13.19 C25.27,14.93 23.49,16.75 21.8,18.58 C21.7469275,18.5529274 21.6892786,18.5359718 21.63,18.53 L21.63,18.53 Z M10.94,27.53 C12.427467,26.7936497 13.9943316,26.229981 15.61,25.85 C14.8,26.85 14.05,27.85 13.34,28.77 L10.94,27.53 Z M12.43,46 C12.3994941,46.1012015 12.3404729,46.1914692 12.26,46.26 C12.076694,46.2479823 11.9002401,46.1857045 11.75,46.08 L11.75,46.08 C9.55513326,42.4517824 6.49788754,39.4220175 2.85,37.26 L2.85,37.21 C2.72231438,37.1369013 2.64829994,36.9966634 2.66,36.85 C2.67366054,36.7043982 2.76569045,36.5778571 2.9,36.52 L2.9,36.52 C4.52463837,35.8706538 6.31964189,35.7826634 8,36.27 C8,36.34 7.93,36.41 7.89,36.49 C7.85,36.57 7.81,36.64 7.78,36.72 C7.74069039,36.8145014 7.70729267,36.9113548 7.68,37.01 C7.68,37.08 7.63,37.16 7.61,37.24 C7.59,37.32 7.61,37.44 7.61,37.55 C7.60519567,37.6299279 7.60519567,37.7100721 7.61,37.79 C7.61,37.89 7.61,37.99 7.61,38.1 C7.60501356,38.1765856 7.60501356,38.2534144 7.61,38.33 C7.61,38.44 7.61,38.54 7.66,38.65 C7.71,38.76 7.66,38.8 7.66,38.87 C7.69061706,38.9786512 7.72734213,39.0854878 7.77,39.19 C7.77,39.26 7.77,39.33 7.84,39.39 C7.89735277,39.5065734 7.960773,39.6200622 8.03,39.73 L8.11,39.88 C8.21485084,40.035689 8.33188444,40.182817 8.46,40.32 C8.49799924,40.37135 8.54160155,40.4183064 8.59,40.46 C8.70919097,40.5791986 8.83982015,40.6863816 8.98,40.78 L9.12,40.87 L9.48,41.06 L9.66,41.14 L10.1,41.28 L10.26,41.28 C10.4731283,41.3290024 10.6913253,41.3525005 10.91,41.35 L10.91,41.35 C11.0765307,41.3595207 11.2434693,41.3595207 11.41,41.35 L11.5,41.35 C11.656949,41.3206662 11.8109133,41.2771545 11.96,41.22 L12.14,41.15 C12.2738143,41.0948155 12.4040659,41.0313596 12.53,40.96 L12.64,40.9 C13.1478982,42.5749412 13.0738817,44.3724851 12.43,46 Z M28.84,34.9 L25.39,35.77 C24.8043981,35.9218131 24.188192,35.6745199 23.87,35.16 C23.6290777,34.7890159 23.6290777,34.3109841 23.87,33.94 C24.5,33.63 25.15,33.33 25.87,33.02 C28.3457089,31.8944761 30.7296383,30.5771294 33,29.08 C32.68,31.64 32,34.12 28.84,34.9 Z M41.19,26 L39.88,23.93 C40.74,23.19 41.58,22.43 42.38,21.67 C42.1326102,23.1502653 41.7338517,24.6012103 41.19,26 Z"/>
        <path id="Path" fill="#3D454C" d="M45.42 4.71C44.8677153 4.71 44.42 5.15771525 44.42 5.71 44.42 6.26228475 44.8677153 6.71 45.42 6.71 45.9722847 6.71 46.42 6.26228475 46.42 5.71 46.42 5.15771525 45.9722847 4.71 45.42 4.71zM32.75 14.58C32.1977153 14.58 31.75 15.0277153 31.75 15.58 31.75 16.1322847 32.1977153 16.58 32.75 16.58 33.3022847 16.58 33.75 16.1322847 33.75 15.58 33.75 15.0277153 33.3022847 14.58 32.75 14.58zM27.42 18.58C26.8677153 18.58 26.42 19.0277153 26.42 19.58 26.42 20.1322847 26.8677153 20.58 27.42 20.58 27.9722847 20.58 28.42 20.1322847 28.42 19.58 28.42 19.0277153 27.9722847 18.58 27.42 18.58zM23.69 24.45C23.1377153 24.45 22.69 24.8977153 22.69 25.45 22.69 26.0022847 23.1377153 26.45 23.69 26.45 24.2422847 26.45 24.69 26.0022847 24.69 25.45 24.69 24.8977153 24.2422847 24.45 23.69 24.45L23.69 24.45z"/>
      </g>
    </g>
  </g>
</svg>
