<svg xmlns="http://www.w3.org/2000/svg" width="64" height="64" viewBox="0 0 64 64" style="background:#fff">
  <g id="Salami" fill="none" fill-rule="evenodd" stroke="none" stroke-width="1">
    <rect width="64" height="64" fill="#FFF"/>
    <g id="1-3-Salami" transform="translate(2 4)">
      <g id="Layer_2">
        <rect id="Rectangle" width="60" height="60" x="0" y="0"/>
      </g>
      <g id="Layer_1" transform="translate(3 4)">
        <path id="Path" fill="#E05362" fill-rule="nonzero" d="M30.71,32.33 C26.71,29.9633333 22.8033333,27.4833333 18.99,24.89 C14.99,22.2 11.28,18.68 6.82,16.89 C5.35354881,16.3770027 3.72292618,16.7458341 2.62,17.84 C0.77,19.71 0.26,21.66 0.12,24.23 C-0.27,31.51 6.31,36.76 11.27,41.12 C15.8086505,45.1323292 20.6644923,48.7708663 25.79,52 C30.61,55 34.31,51.64 35.61,46.64 C37,41.32 35.59,35.23 30.71,32.33 Z" opacity=".5"/>
        <path id="Path" stroke="#3D454C" stroke-linecap="round" stroke-linejoin="round" stroke-width="2" d="M19.35 47.25C22.6044218 49.916618 26.6826129 51.37261 30.89 51.3700035M37.42 37C37.42 37 33.42 27.45 26.72 26.41 26.72 26.41 25.46 23.67 20.86 23.41 19.4493721 21.1568182 16.9240974 19.8501131 14.27 20 14.27 20 10 17.31 6 19.12 6 19.12.88 18.89 1.12 24.44 1.12 24.44-.31 27.95 3.75 31.57 3.87491869 32.5247237 4.21701149 33.4381115 4.75 34.24"/>
        <path id="Path" stroke="#3D454C" stroke-linecap="round" stroke-linejoin="round" stroke-width="2" d="M37.42,37 C37.42,37 34.51,29.16 27,29.16 C19.49,29.16 19.48,37.94 20,40.46 C20.52,42.98 23.4,51.37 31.63,51.37 C39.86,51.37 38.81,40.49 37.42,37 Z"/>
        <path id="Path" stroke="#3D454C" stroke-linecap="round" stroke-linejoin="round" stroke-width="2" d="M27.86 26.62C24.7 25.87 18 26.71 16.26 32.49 15.97 33.49 15.74 34.33 15.57 35.12M9.33 33.66C9.33 28.19 12.21 21.66 22.23 23.51M3.88 32.29C3.88 32.29 1.55 20 14.27 20"/>
        <path id="Path" fill="#3D454C" fill-rule="nonzero" d="M4.12 35.19C7.4 37.78 10.56 40.49 13.57 43.38 14.49 44.27 15.91 42.86 14.98 41.96 11.98 39.07 8.81 36.36 5.54 33.78 5.3522334 33.5906873 5.09663754 33.4842017 4.83 33.4842017 4.56336246 33.4842017 4.3077666 33.5906873 4.12 33.78 3.73227641 34.1700375 3.73227641 34.7999625 4.12 35.19L4.12 35.19zM16.77 46C17.3222847 46 17.77 45.5522847 17.77 45 17.77 44.4477153 17.3222847 44 16.77 44 16.2177153 44 15.77 44.4477153 15.77 45 15.77 45.5522847 16.2177153 46 16.77 46zM25.75 38.36C26.3022847 38.36 26.75 37.9122847 26.75 37.36 26.75 36.8077153 26.3022847 36.36 25.75 36.36 25.1977153 36.36 24.75 36.8077153 24.75 37.36 24.75 37.9122847 25.1977153 38.36 25.75 38.36zM33 39.85C33.5522847 39.85 34 39.4022847 34 38.85 34 38.2977153 33.5522847 37.85 33 37.85 32.4477153 37.85 32 38.2977153 32 38.85 32 39.4022847 32.4477153 39.85 33 39.85zM29.42 44.61C29.9722847 44.61 30.42 44.1622847 30.42 43.61 30.42 43.0577153 29.9722847 42.61 29.42 42.61 28.8677153 42.61 28.42 43.0577153 28.42 43.61 28.42 44.1622847 28.8677153 44.61 29.42 44.61z"/>
        <path id="Path" fill="#E05362" fill-rule="nonzero" d="M47.5,16.63 C46.9721431,15.5574019 46.0408712,14.7375949 44.91,14.35 C43.7033874,13.9483571 42.4494128,13.706303 41.18,13.63 C40.0647674,13.549965 38.9452326,13.549965 37.83,13.63 C35.96,13.74 35.01,14.1 34.07,15.56 C33.13,17.02 32.86,19.33 34.22,20.63 C35.22,21.54 35.84,22.21 37.33,22.14 C38.56,22.08 39.81,21.87 41.04,21.78 C42.27,21.69 43.28,21.62 44.37,21.44 C45.5136198,21.3372012 46.5635379,20.7651769 47.27,19.86 C47.9387323,18.9089426 48.0272235,17.6662183 47.5,16.63 L47.5,16.63 Z" opacity=".5"/>
        <path id="Path" fill="#E0A075" fill-rule="nonzero" d="M40.66,2.72 C33.37,2.34 27.21,9.6 27.66,16.59 C27.81,18.91 30.95,23.59 32.9,19.71 C34.57,16.33 36.08,13.07 40.38,12.77 C44.21,12.51 46.89,15.19 49.11,17.93 C50.4,19.52 52.11,18.35 52.32,16.54 C52.6754201,13.1466672 51.6328171,9.75500975 49.4326538,7.14726897 C47.2324904,4.53952818 44.064739,2.94086856 40.66,2.72 Z" opacity=".5"/>
        <path id="Path" stroke="#3D454C" stroke-linecap="round" stroke-linejoin="round" stroke-width="2" d="M49.37,7.2 C51.06,5.44 51.5,3.81 51.5,0.81 C48.62,0.81 47.04,1.25 45.35,3.01 C44.9515929,3.43317838 44.583987,3.88433115 44.25,4.36 C41.516148,3.2799056 38.473852,3.2799056 35.74,4.36 C35.4095545,3.8812602 35.0452918,3.42676739 34.65,3 C33,1.25 31.37,0.81 28.5,0.81 C28.5,3.81 28.94,5.44 30.62,7.2 C31.1445446,7.78604347 31.716479,8.32787606 32.33,8.82 C31,11.21 28.5,16.44 28.5,18 C28.5,21.64 33.1,26 40,26 C46.9,26 51.5,21.62 51.5,18 C51.5,16.46 48.96,11.23 47.66,8.84 C48.2743236,8.3415077 48.8462808,7.79296394 49.37,7.2 L49.37,7.2 Z"/>
        <path id="Path" stroke="#3D454C" stroke-linecap="round" stroke-linejoin="round" stroke-width="2" d="M36.38 18.51C36.4339934 17.9456447 36.9080677 17.5147616 37.475 17.5147616 38.0419323 17.5147616 38.5160066 17.9456447 38.57 18.51M41.33 18.51C41.3839934 17.9456447 41.8580677 17.5147616 42.425 17.5147616 42.9919323 17.5147616 43.4660066 17.9456447 43.52 18.51"/>
        <ellipse id="Oval" cx="40" cy="18.26" stroke="#3D454C" stroke-linecap="round" stroke-linejoin="round" stroke-width="2" rx="7.13" ry="4.28"/>
        <path id="Path" fill="#3D454C" fill-rule="nonzero" d="M36.55 11.19C37.1022847 11.19 37.55 10.7422847 37.55 10.19 37.55 9.63771525 37.1022847 9.19 36.55 9.19 35.9977153 9.19 35.55 9.63771525 35.55 10.19 35.55 10.7422847 35.9977153 11.19 36.55 11.19zM43.06 11.19C43.6122847 11.19 44.06 10.7422847 44.06 10.19 44.06 9.63771525 43.6122847 9.19 43.06 9.19 42.5077153 9.19 42.06 9.63771525 42.06 10.19 42.06 10.7422847 42.5077153 11.19 43.06 11.19z"/>
      </g>
    </g>
  </g>
</svg>
