<svg xmlns="http://www.w3.org/2000/svg" width="64" height="64" viewBox="0 0 64 64" style="background:#fff">
  <g id="Salbei" fill="none" fill-rule="evenodd" stroke="none" stroke-width="1">
    <rect width="64" height="64" fill="#FFF"/>
    <g transform="translate(2 4)">
      <g id="Layer_2">
        <rect id="Rectangle" width="60" height="60" x="0" y="0"/>
      </g>
      <g id="Layer_1" fill-rule="nonzero" transform="translate(4 2)">
        <g id="Group" fill="#31E085" opacity=".5">
          <path id="Path" d="M15 21C15 19.41 13.19 17 11.86 19.12 10.2055085 22.0307398 9.00501619 25.1769738 8.3 28.45 6.98 26.05 5.4 23.51 6.1 21.22 6.8 18.93 5.1 14.08 2.54 17.22-2.7 23.7 4.82 30.37 3.94 36.89 3.57 39.65 5.88 44.26 8.63 40.89L8.63 40.89C10.63 41.78 11.88 39.51 12.27 37.76 13.5 32.32 15.17 26.52 15 21zM30 36.81C28.28 36.53 26.36 37.63 24.67 37.96 22.73 38.34 20.67 37.96 18.84 38.41 15.66 39.1 15.34 44.73 18.03 46.3 16.7972599 46.0449998 15.5376019 45.9442272 14.28 46 10.99 46.25 10.89 52.28 13.08 53.87 17.55 57.11 26.75 56.95 30.67 52.87 31.87 51.61 32.18 47.87 30.05 47.22 27.92 46.57 25.63 46.84 23.39 46.92 26.91 46.25 30.39 43.92 31.69 41.12 32.37 39.57 31.75 37.09 30 36.81zM27.08 15C26.46 13.79 25.92 12.92 26.08 11.56 26.28 9.95 27.18 8.56 27.74 7.06 28.14 6 28 2.46 26 2.81 22.86 3.4 21.31 6.95 20.84 9.81 20.29 13.2 20.84 17.23 22.93 20.04 25.78 23.82 28.45 17.61 27.08 15zM51.91 10.88C49.54 9.88 46.8 10.95 44.35 11.43 45.9355162 9.81548117 47.3558925 8.04671071 48.59 6.15 49.47 4.73 49.15-.67 46.34.67 43.34 2.11 40.96 4.82 38.73 7.25 36.5 9.68 33.54 12.47 32.05 15.53 31.189723 17.1274703 31.1710233 19.0460652 32 20.66 32.75 22 34 22.59 35.33 21.58 35.7083095 21.2955009 36.0689747 20.9882676 36.41 20.66 38.99 21.66 41.97 21.05 44.7 20.49 47.93 19.82 51.17 18.7 52.89 15.71 53.68 14.33 53.65 11.61 51.91 10.88z"/>
          <path id="Path" d="M51.15,22.57 C49.07,21.46 46.46,21.33 44.15,21.31 C41.84,21.29 39.15,20.88 37.03,21.96 C34.29,23.33 34.49,28.74 37.22,29.96 C39.4,30.96 42.03,30.45 44.37,30.37 C46.71,30.29 49.28,30.06 51.37,28.89 C53.46,27.72 53.3,23.72 51.15,22.57 Z"/>
        </g>
        <path id="Shape" fill="#3D454C" d="M36.71,19.93 C40.22,19.93 48.51,19.7 50.71,17.58 C51.1423673,17.1695581 51.3819389,16.5960382 51.3704261,16 C51.3843207,15.2235176 51.0369708,14.4844754 50.43,14 C49.27,13.1 47.43,13.31 46.07,13.65 C45.5342838,13.7853098 45.2096903,14.3292838 45.345,14.865 C45.4803098,15.4007162 46.0242838,15.7253097 46.56,15.59 C47.4093564,15.2615712 48.3506436,15.2615712 49.2,15.59 C49.2,15.59 49.37,15.72 49.37,16.08 C49.09,16.98 44.1,17.9 37.65,17.97 C46.86,8.69 48.35,5.64 47.65,3.97 C47.2953439,3.17917665 46.4716802,2.70678132 45.61,2.8 C43.13,2.8 40.42,5.53 37.34,11.13 C35.9125892,13.7546125 34.6371542,16.4590689 33.52,19.23 L33.38,19.38 C33.2503609,19.0420623 33.0606373,18.7303736 32.82,18.46 C32.1388419,17.7052544 31.0881627,17.4028449 30.11,17.68 C29.7262528,17.3538623 29.2583759,17.1424512 28.76,17.07 L28.7,16.87 C28.15,15.14 27,11.55 27,10.34 C27,9.73 27,9.13 27,8.52 C27,7.91 27,7.27 27,6.58 C27.0575412,6.02870939 26.8837157,5.47826211 26.52,5.06 C26.1668428,4.72840584 25.6937906,4.55507374 25.21,4.58 C23.62,4.58 21,8.48 21,12.92 C20.9194685,14.8584412 21.5092268,16.7654438 22.67,18.32 C23.3907454,19.3362294 23.9381563,20.4648422 24.29,21.66 C24.3211546,21.7553722 24.3648723,21.8461704 24.42,21.93 C24.3910856,22.2455995 24.4181687,22.5638257 24.5,22.87 C24.2162153,23.3722564 24.0777208,23.9435462 24.1,24.52 C23.8335353,24.6654261 23.5935029,24.8547473 23.39,25.08 C22.3412709,26.2263273 22.3412709,27.9836727 23.39,29.13 C23.4140874,29.1591269 23.4408731,29.1859126 23.47,29.21 L15.06,37.62 C14.7947568,37.280369 14.4517997,37.0094329 14.06,36.83 C12.8117922,36.2869103 11.3543738,36.6522913 10.51,37.72 C10.3412849,37.9223794 10.19696,38.1439013 10.08,38.38 C9.83674823,38.8619405 9.73284968,39.4022129 9.78,39.94 L10.78,39.87 L9.76,40 C9.69,40 9.65,40.11 9.59,40.16 L9.59,37.41 C9.72,32.19 10.72,24.61 12.5,22.7 C12.7978222,23.5849274 12.9300296,24.5171591 12.89,25.45 L12.81,26.58 C12.7624448,27.8792125 12.5610395,29.1682069 12.21,30.42 C12.1435371,30.6786599 12.1832988,30.9531582 12.3204248,31.1823278 C12.4575509,31.4114973 12.680647,31.5762956 12.94,31.64 C13.4756491,31.7721055 14.0170912,31.4454504 14.15,30.91 C14.5249632,29.5455898 14.7463359,28.1435627 14.81,26.73 L14.89,25.61 C14.98,24.47 14.68,21.92 13.76,20.93 C13.478207,20.5975727 13.065773,20.4041302 12.63,20.4 C12.4530377,20.4089287 12.2796433,20.4531273 12.12,20.53 C10.26,21.45 9.12,24.67 8.52,28.09 C8.21,26.91 7.88,25.84 7.62,25.03 C5.62,18.8 4.84,18.8 4.29,18.8 C1.91,18.8 0.69,22.63 0.69,24.26 C0.799861343,26.3520194 1.35200019,28.396978 2.31,30.26 C3.84198808,33.4311026 4.63519746,36.9082317 4.63,40.43 L4.63,42 C3.2692327,42.1935017 2.25615858,43.3555573 2.25,44.73 C2.25137275,45.330943 2.44400623,45.9158483 2.8,46.4 C3.04639589,46.7202131 3.17367506,47.1161927 3.16,47.52 C3.14975688,47.6264208 3.14975688,47.7335792 3.16,47.84 C3.16159184,48.3452578 3.28508731,48.8426701 3.52,49.29 L1.66,51.1 C1.27227641,51.4900375 1.27227641,52.1199625 1.66,52.51 C1.8477666,52.6993127 2.10336246,52.8057983 2.37,52.8057983 C2.63663754,52.8057983 2.8922334,52.6993127 3.08,52.51 L4.92,50.67 C5.36958118,50.8989374 5.86554708,51.0220738 6.37,51.03 C7.29743786,51.0289529 8.17938894,50.6280661 8.79,49.93 C9.35734536,50.1338941 9.97032608,50.1754521 10.56,50.05 C10.6533503,50.1283408 10.7578248,50.1923736 10.87,50.24 C12.05,50.66 13.22,51.24 14.36,51.71 C17.02,52.93 19.77,54.18 22.81,54.18 C27.81,54.18 30.04,50.18 30.04,48.71 C30.04,48.07 29.77,46.59 27.26,46.59 C26.5240629,46.6223682 25.7966108,46.7604494 25.1,47 C23.7610254,47.4631951 22.356682,47.7096303 20.94,47.73 C19.4462511,47.693723 17.9798992,47.3211535 16.65,46.64 C16.28,46.48 15.89,46.31 15.5,46.16 C16.69,46.06 17.93,46 19.15,45.95 C21.2298045,45.9491819 23.3040241,45.734723 25.34,45.31 C29.24,44.24 31.12,39.96 30.9,38.31 C30.8632735,37.6382048 30.3127311,37.1095093 29.64,37.1 C27.76,37.1 25,37.91 21.8,38.86 C20.13,39.35 18.4,39.86 16.64,40.3 C16.4034999,40.0815511 16.1333781,39.9025954 15.84,39.77 L15.78,39.77 L15.78,39.77 L25.55,30 C25.766519,29.9919034 25.9813314,29.958339 26.19,29.9 C27.2862037,30.8530729 28.9453514,30.7460311 29.91,29.66 C30.1734866,29.369123 30.3773375,29.0293715 30.51,28.66 C30.5855017,28.7569472 30.6691384,28.8472749 30.76,28.93 C31.307637,29.4277891 32.0199454,29.7055894 32.76,29.71 C33.5000546,29.7055894 34.212363,29.4277891 34.76,28.93 C35.0262364,28.6874367 35.2376148,28.390825 35.38,28.06 C36.1030802,27.7789742 36.8744141,27.6430563 37.65,27.66 C38.7868447,27.6928742 39.9182657,27.8301176 41.03,28.07 C42.1979594,28.3185098 43.386295,28.4591017 44.58,28.49 C47.64,28.49 50.43,26.61 50.43,24.54 C50.43,23.38 49.82,22.54 48.94,22.54 C48.8402383,22.5302365 48.7397617,22.5302365 48.64,22.54 C48.203853,22.6687549 47.7541184,22.7459481 47.3,22.77 C46.4664882,22.7272481 45.6456136,22.5482095 44.87,22.24 C43.4172629,21.6984621 41.8803716,21.4174886 40.33,21.41 C38.6039055,21.405469 36.8975899,21.7774458 35.33,22.5 L35.27,22.42 C34.8340699,22.0347941 34.2955471,21.7846415 33.72,21.7 L35.57,19.86 L36.71,19.93 Z M45.61,4.8 L45.82,4.8 C45.82,5.44 44.82,7.72 37.44,15.28 C39.81,10.4 43.2,4.8 45.61,4.8 Z M30.61,19.63 C30.8774691,19.5052959 31.195531,19.579648 31.38,19.81 C31.5750435,20.0353955 31.659373,20.3360487 31.61,20.63 C30.8256297,20.5025165 30.0254505,20.733761 29.43,21.26 C29.0329138,21.6233439 28.7688856,22.1091558 28.68,22.64 C28.6378435,22.9010281 28.4940232,23.134736 28.28,23.29 C27.8833753,22.9703758 27.4118972,22.7570061 26.91,22.67 C26.8267212,22.6580238 26.7495483,22.6194373 26.69,22.56 L26.62,22.48 C26.494957,22.2634192 26.494957,21.9965808 26.62,21.78 L26.7,21.68 L26.75,21.68 C27.3032776,21.3012388 27.6299461,20.6704306 27.62,20 C27.6098649,19.7526796 27.6918161,19.510389 27.85,19.32 C27.9527603,19.2094221 28.0843762,19.1297599 28.23,19.09 C28.4624874,19.0415593 28.7030745,19.121755 28.86,19.3 C29.2838958,19.7942858 29.9926171,19.9310566 30.57,19.63 L30.61,19.63 Z M23.13,12.92 C23.1364866,10.7727034 23.8381539,8.68524301 25.13,6.97 C25.13,7.47 25.13,7.97 25.13,8.47 C25.13,8.97 25.13,9.71 25.13,10.34 C25.13,11.74 26,14.63 26.9,17.47 L26.9,17.54 C26.7448536,17.6526356 26.6008617,17.7798843 26.47,17.92 C26.095544,18.3306148 25.848825,18.8414273 25.76,19.39 C25.408043,18.6332809 24.9932567,17.9074049 24.52,17.22 C23.5445447,16.0037438 23.0372147,14.478206 23.09,12.92 L23.13,12.92 Z M11,41.62 C11.586082,41.2007672 11.9148642,40.5091908 11.87,39.79 C11.8553659,39.6032501 11.89348,39.4161444 11.98,39.25 C12.0104482,39.1624096 12.0507039,39.0785434 12.1,39 C12.3716629,38.6205446 12.8696671,38.4794434 13.3,38.66 C13.6802915,38.8344614 13.8851628,39.252566 13.79,39.66 C13.6655539,40.534618 14.1701559,41.3770113 15,41.68 C15.0431487,41.6856573 15.0868513,41.6856573 15.13,41.68 L15.08,41.68 C15.2846081,41.7701304 15.4435413,41.9398999 15.52,42.15 C15.6246012,42.4208085 15.6063543,42.7237069 15.47,42.98 C15.47,42.98 15.47,42.98 15.47,43.04 C15.223326,43.5376856 14.6418574,43.770273 14.12,43.58 L14,43.54 C13.6469019,43.2705433 13.2141525,43.1262934 12.77,43.13 C12.4245834,43.129268 12.0832167,43.2043687 11.77,43.35 C11.6124046,43.4288938 11.4341827,43.4568502 11.26,43.43 C11.129729,42.9536651 10.8938994,42.5127663 10.57,42.14 C10.5653215,42.1202736 10.5653215,42.0997264 10.57,42.08 C10.6771018,41.8964187 10.8240475,41.7392209 11,41.62 Z M4.14,29.48 C3.30203445,27.858544 2.80836785,26.0813442 2.69,24.26 C2.7525432,23.0704609 3.18618418,21.9304048 3.93,21 C4.93,23 7.59,30.51 7.59,34.75 L7.59,41.1 C7.25860984,41.1565777 6.93808389,41.2645443 6.64,41.42 L6.64,40.42 C6.63476512,36.6323205 5.78048558,32.8939933 4.14,29.48 L4.14,29.48 Z M9.4,48 C8.6781426,47.6718043 7.82535963,47.8829302 7.34,48.51 C7.03018382,48.9380243 6.47846054,49.115519 5.97719036,48.9484289 C5.47592017,48.7813389 5.14103835,48.3083092 5.15,47.78 L5.15,47.68 C5.22540907,46.7679113 4.96194625,45.8600327 4.41,45.13 C4.31055577,44.9974479 4.25780985,44.8356937 4.25993445,44.67 C4.2702466,44.263955 4.5941291,43.9356957 5,43.92 C5.07926091,43.9046211 5.16073909,43.9046211 5.24,43.92 L5.52,43.92 L5.6,43.92 L5.6,43.92 C5.74291682,43.9354531 5.88708318,43.9354531 6.03,43.92 C6.48151301,43.8552158 6.89943542,43.6444986 7.22,43.32 C7.45446257,43.0887703 7.77069841,42.959401 8.1,42.9599979 L8.33,42.9599979 C8.48321504,42.9874977 8.62940266,43.0452928 8.76,43.13 L8.84,43.2 C9.15370387,43.4349459 9.33290508,43.8082818 9.32,44.2 C9.3173045,44.8592442 9.71197954,45.4552035 10.32,45.71 C10.6929287,45.8684838 10.9678448,46.1954111 11.06,46.59 C11.0698286,46.676388 11.0698286,46.763612 11.06,46.85 C11.0659983,47.2472007 10.8750399,47.6216289 10.55,47.85 L10.55,47.85 C10.2171593,48.0924151 9.78388563,48.1489291 9.4,48 Z M20.94,49.74 C22.548842,49.7409861 24.1480169,49.4913259 25.68,49 C26.1889091,48.8122678 26.7199961,48.6912606 27.26,48.64 C27.5247213,48.6245961 27.789863,48.6619879 28.04,48.75 C27.2763474,50.9531522 25.1371363,52.3765661 22.81,52.23 C20.21,52.23 17.81,51.12 15.19,49.94 C14.33,49.55 13.44,49.17 12.54,48.8 C12.796396,48.4475672 12.9768673,48.045763 13.07,47.62 C14.0365415,47.8071396 14.974483,48.1197868 15.86,48.55 C17.4419444,49.3270275 19.1776329,49.7404493 20.94,49.76 L20.94,49.74 Z M22.37,40.84 C24.484834,40.1423745 26.6470702,39.597638 28.84,39.21 C28.2528071,41.1633924 26.7656719,42.7174488 24.84,43.39 C22.9470885,43.7709481 21.020863,43.9618956 19.09,43.96 L17.21,44.05 C17.21,43.99 17.29,43.93 17.32,43.86 L17.32,43.77 C17.5336952,43.2690372 17.6129734,42.720984 17.55,42.18 C19.21,41.77 20.81,41.31 22.37,40.86 L22.37,40.84 Z M27.43,28.33 C27.000839,27.8374382 26.2909834,27.701245 25.71,28 C25.595549,28.0569928 25.4654731,28.0745706 25.34,28.05 C25.1884846,28.0185694 25.0534875,27.9333081 24.96,27.81 C24.5980574,27.42505 24.5980574,26.82495 24.96,26.44 C25.0414062,26.351213 25.1449364,26.2856438 25.26,26.25 C25.9128604,25.9622192 26.2962868,25.2769465 26.2,24.57 L26.2,24.57 C26.3102896,24.6105028 26.4241156,24.6406332 26.54,24.66 C26.7961894,24.7146909 27.0257271,24.8559448 27.19,25.06 C27.0459039,25.9328296 27.350271,26.8196273 28,27.42 C28.1893826,27.5867762 28.3974339,27.7310698 28.62,27.85 C28.6006413,28.0336782 28.527601,28.2075836 28.41,28.35 C28.2818054,28.4832282 28.1048881,28.558513 27.92,28.558513 C27.7351119,28.558513 27.5581946,28.4832282 27.43,28.35 L27.43,28.33 Z M32.1,27.42 C32.0121561,27.3358631 31.9438787,27.233447 31.9,27.12 C31.6654425,26.5180179 31.0860637,26.121183 30.44,26.12 L30.21,26.12 C30.1105057,26.1342225 30.0094943,26.1342225 29.91,26.12 C29.7134513,26.094297 29.5289754,26.0107607 29.38,25.88 C29.1517526,25.6882364 29.0891576,25.3627425 29.23,25.1 C29.2583565,25.038369 29.2953998,24.9811203 29.34,24.93 L29.44,24.84 C30.0416747,24.3884037 30.4605705,23.7352101 30.62,23 C30.6290865,22.9129536 30.6679413,22.8317118 30.73,22.77 C30.9641577,22.606061 31.2758423,22.606061 31.51,22.77 L31.58,22.77 L31.58,22.77 L31.58,22.77 C31.9400417,23.348689 32.5786054,23.6945777 33.26,23.68 L33.26,23.68 C33.5424832,23.6686455 33.8147938,23.7864014 34,24 C34.0100002,24.143715 34.0509342,24.2835725 34.12,24.41 C34.1602924,24.4657337 34.2036946,24.5191518 34.25,24.57 C34.2249284,24.7401019 34.1354209,24.8940547 34,25 C33.5219239,25.3954243 33.3559074,26.0554412 33.59,26.63 C33.5844053,26.6630986 33.5844053,26.6969014 33.59,26.73 C33.6125683,26.7916314 33.6293082,26.8552432 33.64,26.92 C33.5709342,27.0464275 33.5300002,27.186285 33.52,27.33 C33.4884875,27.3833198 33.4478729,27.4307034 33.4,27.47 C33.0184282,27.7815649 32.4667934,27.7688349 32.1,27.44 L32.1,27.42 Z M44.29,24.2 C45.2675026,24.5799469 46.3019086,24.7929128 47.35,24.83 C47.7168107,24.8238741 48.0820376,24.780315 48.44,24.7 C48.2,25.35 46.77,26.48 44.63,26.48 C43.553873,26.4452246 42.4829788,26.3147094 41.43,26.09 C40.202462,25.8312571 38.9540502,25.6839914 37.7,25.65 C37.0855769,25.6499195 36.4726324,25.7102091 35.87,25.83 C36.1325257,25.3928679 36.2643896,24.889703 36.25,24.38 C37.5451529,23.783034 38.9538926,23.4726337 40.38,23.47 C41.7161629,23.4810724 43.039854,23.7282066 44.29,24.2 L44.29,24.2 Z"/>
        <path id="Path" fill="#3D454C" d="M12.69 35.08C13.2422847 35.08 13.69 34.6322847 13.69 34.08 13.69 33.5277153 13.2422847 33.08 12.69 33.08 12.1377153 33.08 11.69 33.5277153 11.69 34.08 11.69 34.6322847 12.1377153 35.08 12.69 35.08zM43.09 16C43.6422847 16 44.09 15.5522847 44.09 15 44.09 14.4477153 43.6422847 14 43.09 14 42.5377153 14 42.09 14.4477153 42.09 15 42.09 15.5522847 42.5377153 16 43.09 16z"/>
      </g>
    </g>
  </g>
</svg>
