<svg xmlns="http://www.w3.org/2000/svg" width="64" height="64" viewBox="0 0 64 64" style="background:#fff">
  <g id="Salz" fill="none" fill-rule="evenodd" stroke="none" stroke-width="1">
    <rect width="64" height="64" fill="#FFF"/>
    <g transform="translate(2 6)">
      <g id="Layer_2">
        <rect id="Rectangle" width="60" height="60" x="0" y="0"/>
      </g>
      <g id="Layer_1" fill-rule="nonzero" transform="translate(5 5)">
        <path id="Path" fill="#CCC" d="M28.29,8.79 C25.3889692,6.57421506 22.1232374,4.88212604 18.64,3.79 C14.31,2.26 10,1 6.37,4.66 C4.80306299,6.30171604 3.70194709,8.33135915 3.18,10.54 L3.08,10.69 C1.08,13.76 1.08,17.37 1.57,20.83 C2.38,26.89 7,33.06 13,34.69 C15.7258037,35.4903106 18.6241963,35.4903106 21.35,34.69 C22.2651142,34.4567124 23.153289,34.1282553 24,33.71 C24.9276063,33.2009686 25.81965,32.6296597 26.67,32 C27.61,31.4 27.67,31.3 26.9,31.68 C33.71,27.07 35,14.3 28.29,8.79 Z" opacity=".5"/>
        <path id="Shape" fill="#3D454C" d="M37.58,24.85 L35.34,22.61 C35.7435262,21.6697339 35.6652172,20.5920529 35.13,19.72 L25,3.3 C23.4454976,0.80744786 20.4050142,-0.322461511 17.6,0.55 C9.35427847,3.05162412 2.88992679,9.48599619 0.35,17.72 C-0.525765862,20.525637 0.599606047,23.5690698 3.09,25.13 L19.53,35.31 C20.4107917,35.8521649 21.5006912,35.9305481 22.45,35.52 L24.68,37.75 C28.2422367,41.3122365 34.0177633,41.3122365 37.5799999,37.7499999 C41.1422365,34.1877633 41.1422365,28.4122367 37.58,24.85 Z M20.58,33.61 L4.14,23.42 C2.42407122,22.3377043 1.65218478,20.2355455 2.26,18.3 C4.61658109,10.709712 10.5779365,4.7783132 18.18,2.46 C20.114917,1.85549956 22.2141206,2.63191734 23.29,4.35 L33.42,20.77 C33.7082991,21.2252791 33.6417909,21.819696 33.26,22.2 L22,33.44 C21.6188371,33.8097221 21.0376654,33.879299 20.58,33.61 Z M36.16,36.33 C34.8260136,37.6679598 33.0143533,38.4199527 31.125,38.4199527 C29.2356467,38.4199527 27.4239864,37.6679598 26.09,36.33 L24,34.26 L34.1,24.19 L36.16,26.26 C37.4979598,27.5939864 38.2499527,29.4056467 38.2499527,31.295 C38.2499527,33.1843533 37.4979598,34.9960136 36.16,36.33 L36.16,36.33 Z"/>
        <path id="Path" fill="#3D454C" d="M28.92,23.31 C30.1884154,22.0454219 30.4202972,20.0744266 29.48,18.55 L28.93,17.66 C28.93,17.66 28.93,17.66 28.93,17.66 C28.882054,17.5954195 28.8285138,17.5351869 28.77,17.48 C28.7343817,17.4445635 28.6939922,17.4142713 28.65,17.39 C28.5862626,17.3448534 28.5152236,17.3110254 28.44,17.29 C28.3970953,17.2813802 28.3529047,17.2813802 28.31,17.29 C28.2306935,17.2751027 28.1493065,17.2751027 28.07,17.29 L27.85,17.29 C27.1269004,17.4842733 26.4810405,17.8962271 26,18.47 C25.56,18.96 25.37,19.16 24.89,19.17 C24.41,19.18 24.2,19 23.73,18.55 C23.0953759,17.7584371 22.1238966,17.3134847 21.11,17.35 C20.1015082,17.3956428 19.1693863,17.9003887 18.58,18.72 C18.14,19.21 17.95,19.41 17.47,19.42 C16.99,19.43 16.78,19.25 16.31,18.8 C15.6695072,18.0159996 14.7020037,17.5728682 13.69,17.6 C12.685481,17.6658357 11.7638194,18.1799099 11.18,19 C10.75,19.48 10.55,19.69 10.07,19.7 C9.59,19.71 9.36,19.52 8.91,19.08 C8.39048934,18.4802492 7.68738793,18.0689349 6.91,17.91 L6.91,17.91 C6.43057924,17.8218425 5.95744718,18.0922037 5.79,18.55 C5.67,18.88 5.56,19.22 5.45,19.55 C5.02114779,20.8367821 5.50903402,22.2512422 6.64,23 L9,24.4 C9.15914125,24.498629 9.34277483,24.5506008 9.53,24.55 C9.96661981,24.5262184 10.3371548,24.221516 10.444824,23.797712 C10.5524931,23.3739081 10.3723241,22.9292971 10,22.7 L7.7,21.27 C7.3719083,21.0507115 7.20346324,20.6589788 7.27,20.27 L7.51,20.5 C8.15153712,21.2815029 9.11938155,21.7210963 10.13,21.69 C11.14125,21.6444398 12.0764662,21.1400121 12.67,20.32 C13.1,19.85 13.3,19.63 13.78,19.62 C14.26,19.61 14.47,19.79 14.94,20.24 C15.5736165,21.0328541 16.5457839,21.4781217 17.56,21.44 C18.57125,21.3944398 19.5064662,20.8900121 20.1,20.07 C20.53,19.58 20.73,19.38 21.21,19.37 C21.69,19.36 21.9,19.54 22.36,19.99 C23.0049545,20.7772834 23.983242,21.2145483 25,21.17 C26.0080861,21.1228977 26.9396132,20.6184739 27.53,19.8 L27.76,19.55 L27.76,19.6 C28.2089126,20.3376889 28.0975503,21.2863306 27.49,21.9 L21.36,28 C20.7514283,28.6180546 19.7951626,28.7303119 19.06,28.27 L17.26,27.15 C16.9563242,26.9606492 16.5746989,26.947691 16.2588784,27.1160065 C15.943058,27.2843221 15.7410231,27.6083402 15.7288784,27.9660065 C15.7167337,28.3236728 15.8963242,28.6606492 16.2,28.85 L18,30 C19.5252848,30.9444349 21.499677,30.7167796 22.77,29.45 L28.92,23.31 Z"/>
        <path id="Path" fill="#3D454C" d="M13 24.78L13 24.78C12.4477153 24.78 12 25.2277153 12 25.78 12 26.3322847 12.4477153 26.78 13 26.78L13 26.78C13.5522847 26.78 14 26.3322847 14 25.78 14 25.2277153 13.5522847 24.78 13 24.78zM40.42 43.25C39.8677153 43.25 39.42 43.6977153 39.42 44.25 39.42 44.8022847 39.8677153 45.25 40.42 45.25 40.9722847 45.25 41.42 44.8022847 41.42 44.25 41.42 43.6977153 40.9722847 43.25 40.42 43.25zM33 43.51C32.4477153 43.51 32 43.9577153 32 44.51 32 45.0622847 32.4477153 45.51 33 45.51 33.5522847 45.51 34 45.0622847 34 44.51 34 43.9577153 33.5522847 43.51 33 43.51zM42.82 36.31C42.2677153 36.31 41.82 36.7577153 41.82 37.31 41.82 37.8622847 42.2677153 38.31 42.82 38.31 43.3722847 38.31 43.82 37.8622847 43.82 37.31 43.82 36.7577153 43.3722847 36.31 42.82 36.31zM47.09 43.78C46.5377153 43.78 46.09 44.2277153 46.09 44.78 46.09 45.3322847 46.5377153 45.78 47.09 45.78 47.6422847 45.78 48.09 45.3322847 48.09 44.78 48.09 44.2277153 47.6422847 43.78 47.09 43.78zM45.09 49.51C44.5377153 49.51 44.09 49.9577153 44.09 50.51 44.09 51.0622847 44.5377153 51.51 45.09 51.51 45.6422847 51.51 46.09 51.0622847 46.09 50.51 46.09 49.9577153 45.6422847 49.51 45.09 49.51z"/>
      </g>
    </g>
  </g>
</svg>
