<svg xmlns="http://www.w3.org/2000/svg" width="64" height="64" viewBox="0 0 64 64" style="background:#fff">
  <g id="Sambal-Oelek" fill="none" fill-rule="evenodd" stroke="none" stroke-width="1">
    <rect width="64" height="64" fill="#FFF"/>
    <g transform="translate(2 4)">
      <g id="Layer_2">
        <rect id="Rectangle" width="60" height="60" x="0" y="0"/>
      </g>
      <g id="Layer_1" fill-rule="nonzero" transform="translate(4 5)">
        <path id="Path" fill="#E05362" d="M43.51,24.21 C41.19,25.08 40.45,26.76 39.14,28.65 C37.7200087,30.6708624 35.8945555,32.3737105 33.78,33.65 C31.5037813,34.9226012 29.0289782,35.8016296 26.46,36.25 C26.41,32.76 26.36,29.25 26.26,25.79 C26.26,25.69 26.26,25.58 26.26,25.47 C28.11,23.06 27.7,18.9 26.2,16.53 C24.09,13.23 21.09,12.47 17.56,14.08 C14.68,15.4 12.09,16.77 9,14.74 C3.65,11.23 0.9,17.83 0.78,22.28 L0.43,34.91 C0.34,38.48 -0.04,42.19 1.43,45.56 C4.51,52.88 14.49,50.92 20.92,51.08 C21.4759254,51.0933431 22.0282763,50.9876463 22.54,50.77 C34.38,54.58 50.15,43.67 49.61,31 C49.48,27.91 47.55,22.71 43.51,24.21 Z" opacity=".5"/>
        <path id="Path" fill="#3D454C" d="M39.63 39.55C34.93 46.61 25.33 45.13 25.23 45.11 24.6777153 45.0216345 24.1583656 45.3977153 24.07 45.95 23.9816345 46.5022847 24.3577153 47.0216344 24.91 47.11 25.8003969 47.2428666 26.699767 47.3063909 27.6 47.3 31.19 47.3 37.49 46.4 41.3 40.69 41.4982824 40.3916832 41.5223528 40.0102448 41.3631441 39.6893688 41.2039354 39.3684928 40.8856352 39.156928 40.5281441 39.1343688 40.170653 39.1118096 39.8282824 39.2816832 39.63 39.58L39.63 39.55zM37.63 29.32C38.1822847 29.32 38.63 28.8722847 38.63 28.32 38.63 27.7677153 38.1822847 27.32 37.63 27.32 37.0777153 27.32 36.63 27.7677153 36.63 28.32 36.63 28.8722847 37.0777153 29.32 37.63 29.32z"/>
        <path id="Shape" fill="#3D454C" d="M52.41,18 C51.5,16.68 50.48,16.1 49.41,16.28 C47.41,16.6 46.21,19.42 45.67,20.95 C44.391696,20.5388047 43.0049638,20.628156 41.79,21.2 C40.0532678,22.0549274 38.8145357,23.6708258 38.44,25.57 C38.367107,25.9527971 38.5232174,26.3430731 38.84,26.57 C39.1529523,26.7987488 39.5699129,26.8260266 39.91,26.64 C40.6807265,26.2047255 41.5827999,26.0626667 42.45,26.24 C42.8747421,26.4295771 43.1959637,26.7946017 43.33,27.24 C43.447108,27.5434483 43.7044824,27.7709822 44.02,27.85 C44.3424898,27.938194 44.6877199,27.8593915 44.94,27.64 C45.1064678,27.5087545 45.3223132,27.457537 45.53,27.5 C45.81,27.56 46.53,27.95 47.31,29.86 C47.2905921,29.9725024 47.2905921,30.0874976 47.31,30.2 C47.79,33.43 46.06,40.2 40.84,44.44 C37.11,47.44 30.34,50.22 19.18,46.13 C18.41,45.84 17.93,45.47 17.93,45.13 C17.958757,44.9114573 18.0786399,44.7152853 18.26,44.59 C22.67,43.91 32.63,39.87 35.69,33.59 C36.02,32.91 36.38,32.23 36.76,31.59 C37.0084017,31.1151496 36.8383237,30.5288937 36.3743602,30.2607068 C35.9103968,29.9925198 35.317496,30.1377474 35.03,30.59 C34.62,31.3 34.24,32.02 33.89,32.74 C31.14,38.4 21.38,42.11 17.96,42.63 C16.8765749,42.8942928 16.0760776,43.8108622 15.96,44.92 C15.9,45.54 16.02,47.1 18.52,48.01 C22.0764724,49.3998502 25.8521561,50.1448281 29.67,50.21 C34.1650326,50.2973777 38.5487336,48.8078393 42.06,46 C47.86,41.27 49.74,34 49.26,30.1 C50.1098607,28.6425486 50.3945677,26.92363 50.06,25.27 C49.6674795,23.8264399 48.7323671,22.5903718 47.45,21.82 C48.03,20.12 49.01,18.36 49.7,18.24 C49.97,18.19 50.35,18.53 50.76,19.12 C50.9466429,19.4457666 51.3000309,19.6395404 51.675055,19.6217536 C52.0500791,19.6039667 52.3835412,19.3776167 52.5385144,19.0356478 C52.6934876,18.6936788 52.6438562,18.2937188 52.41,18 Z M48.17,27.29 C47.6700098,26.4457744 46.8643449,25.8263076 45.92,25.56 C45.7332275,25.5164151 45.5417541,25.49626 45.35,25.5 C45.1242178,25.4988578 44.8991658,25.5257297 44.68,25.58 C44.2958619,25.0221346 43.7520892,24.5933908 43.12,24.35 C42.5113895,24.1341797 41.8610521,24.0623003 41.22,24.14 C41.591343,23.6559868 42.07079,23.26558 42.62,23 C43.68468,22.519797 44.9187349,22.6023174 45.91,23.22 C46.9695606,23.715174 47.7717331,24.6334983 48.12,25.75 C48.2311596,26.2423667 48.2481249,26.7513238 48.17,27.25 L48.17,27.29 Z"/>
        <path id="Path" fill="#3D454C" d="M41.92,38 C42.4722847,38 42.92,37.5522847 42.92,37 C42.92,36.4477153 42.4722847,36 41.92,36 C41.3677153,36 40.92,36.4477153 40.92,37 C40.92,37.5522847 41.3677153,38 41.92,38 Z"/>
        <path id="Shape" fill="#3D454C" d="M14.76,48.37 L13.76,48.37 C8.33,48.37 4.92,47.3 4.46,46.68 L4.46,46.68 C4.46,46.68 4.46,46.68 4.46,46.61 L4,44.39 C5.5,45.05 8.15,45.76 12.67,45.76 C13.2222847,45.76 13.67,45.3122847 13.67,44.76 C13.67,44.2077153 13.2222847,43.76 12.67,43.76 C5.72,43.76 3.84,42.02 3.76,41.94 C3.70279981,41.8855364 3.63896345,41.8384991 3.57,41.8 C3.57,41.51 3.57,41.21 3.57,40.92 L3.57,24.36 C3.57,24.1436298 3.49982213,23.9330962 3.37,23.76 C2.71,22.88 2.91,21.1 3.45,18.66 C3.5535536,18.540749 3.62269194,18.3955584 3.65,18.24 C4.18,15.87 8.81,18.35 10.02,18.43 C11.65,18.54 14.02,16.66 15.36,17.12 C16.58,17.52 17.11,15.59 15.89,15.19 C14.8868481,14.8297221 13.7777775,14.9133569 12.84,15.42 C11.46,16.01 10.6,16.64 9.09,16.21 C8.17,15.94 7.34,15.45 6.4,15.21 C5.70850777,15.055657 4.99149223,15.055657 4.3,15.21 L4.77,13.33 C5.10304966,12.1678299 5.2149879,10.9534696 5.1,9.75 C7.98404586,10.2344649 10.9058028,10.4587006 13.83,10.42 C16.7196921,10.4543815 19.6069904,10.2402597 22.46,9.78 C22.3360089,10.992733 22.4446186,12.217987 22.78,13.39 L23.26,15.29 C24.34,19.52 25.12,22.57 24.18,23.83 C24.0501779,24.0030962 23.98,24.2136298 23.98,24.43 L23.98,37.05 C23.98,37.6022847 24.4277153,38.05 24.98,38.05 C25.5322847,38.05 25.98,37.6022847 25.98,37.05 L25.98,24.72 C27.22,22.72 26.44,19.66 25.2,14.78 L24.72,12.89 C24.37,11.63 24,9.44 25,9 L25,9 C25.92,8.58 26.5,8 26.5,7.33 C26.5827011,6.03798873 26.5827011,4.74201127 26.5,3.45 C26.5,3.45 26.5,3.35 26.5,3.3 C26.01,0.68 17.5,0.38 13.77,0.38 C10.04,0.38 1.54,0.68 1.08,3.32 C1.06975856,3.36947556 1.06975856,3.42052444 1.08,3.47 C1.00064974,4.73208733 1.00064974,5.99791267 1.08,7.26 C1.14783442,7.9169723 1.56440987,8.48641947 2.17,8.75 C2.27143888,8.84025888 2.38610109,8.91445208 2.51,8.97 C3.51,9.38 3.17,11.57 2.85,12.83 L2.37,14.73 C1.13,19.61 0.37,22.64 1.59,24.67 L1.59,40.92 C1.591294,41.8096367 1.67836353,42.6970761 1.85,43.57 L2.52,46.91 C2.78,50.28 12.66,50.38 13.81,50.38 L14.81,50.38 C15.3622847,50.38 15.81,49.9322847 15.81,49.38 C15.8131045,49.104157 15.7021222,48.839284 15.5033092,48.6480449 C15.3044962,48.4568057 15.0355146,48.3561895 14.76,48.37 Z M3.32,7.17 L3.2,7.11 L3.2,7.11 L3,7 C3,6.72 3,6.13 3,5.41 C5.84,6.51 11.1,6.67 13.82,6.67 C16.54,6.67 21.82,6.51 24.65,5.41 C24.65,6.08 24.65,6.68 24.65,7 L24.36,7.15 L24.36,7.15 L24.36,7.15 C23.14,7.67 19.62,8.37 13.91,8.37 C8.2,8.37 4.5,7.7 3.32,7.17 Z M13.8,2.38 C19.26,2.38 22.73,3.02 24.08,3.54 C22.73,4.05 19.26,4.69 13.8,4.69 C8.34,4.69 4.87,4.05 3.52,3.54 C4.87,3 8.34,2.38 13.8,2.38 Z"/>
        <path id="Path" fill="#3D454C" d="M20.13,14.86 C19.5777153,14.86 19.13,15.3077153 19.13,15.86 C19.13,16.4122847 19.5777153,16.86 20.13,16.86 L20.4,16.86 C20.9522847,16.86 21.4,16.4122847 21.4,15.86 C21.4,15.3077153 20.9522847,14.86 20.4,14.86 L20.13,14.86 Z"/>
      </g>
    </g>
  </g>
</svg>
