<svg xmlns="http://www.w3.org/2000/svg" width="64" height="64" viewBox="0 0 64 64" style="background:#fff">
  <g id="Sardellen" fill="none" fill-rule="evenodd" stroke="none" stroke-width="1">
    <rect width="64" height="64" fill="#FFF"/>
    <g transform="translate(2 4)">
      <g id="Layer_2">
        <rect id="Rectangle" width="60" height="60" x="0" y="0"/>
      </g>
      <g id="Layer_1" fill-rule="nonzero" transform="translate(5 7)">
        <path id="Path" fill="#B3B3B3" d="M16 19.14C19.89 15.28 23.73 11.43 26.53 6.69 27.35 5.3 26.93-1.22 24.07.69 19.69 3.56 16.3 7.39 12.61 11 8.92 14.61 4.13 18.1 1.31 22.58.13 24.44.58 30.77 4.08 29.34 8.66 27.51 12.51 22.57 16 19.14zM36.48 15.9C37.48 14.06 36.61 7.68 33.48 10.31 29.89 13.31 26.77 16.96 23.33 20.15 19.89 23.34 15.59 26.2 12.16 29.61 10.16 31.61 10.57 40.13 14.74 38.1 19.22 35.92 23.24 31.92 26.74 28.41 30.5876471 24.7447887 33.8700671 20.5288673 36.48 15.9L36.48 15.9zM44.59 19.61C39.99 21.38 35.79 24.49 32.03 27.61 28.27 30.73 23.42 34.39 21.25 38.89 20.35 40.75 20.32 48.39 24.34 46.41 28.36 44.43 31.59 39.76 35 36.67 38.85 33.15 43 29.89 46.61 26.16 48.15 24.55 48 18.3 44.59 19.61z" opacity=".5"/>
        <path id="Shape" fill="#3D454C" d="M27.48,5.11 C28.001024,3.96066382 27.8142175,2.61410035 27,1.65 C26.0421082,0.825700355 24.6949881,0.627136416 23.54,1.14 C13.66,4.47 7.2,16.87 6,19.36 C4.44645587,19.8611759 2.96673182,20.5674078 1.6,21.46 C0.762209746,21.9955953 0.382755777,23.0229564 0.671257122,23.9745455 C0.959758468,24.9261346 1.84583589,25.5698138 2.84,25.55 C2.90416738,25.5474027 2.96626623,25.5729728 3.01,25.62 C3.01,25.62 3.08,25.7 3.08,25.87 C3.05983477,26.8538546 3.70424343,27.728116 4.65,28 C4.85817022,28.0593323 5.07353981,28.0896187 5.29,28.0901541 C6.04345355,28.0989021 6.74904924,27.7215782 7.16,27.09 C8.03286728,25.7535456 8.72551565,24.3077262 9.22,22.79 C9.23736024,22.7309557 9.27673938,22.6808368 9.33,22.65 C11.79,21.38 24.2,14.83 27.48,5.11 Z M24.15,3 C24.78,2.78 25.32,2.79 25.55,3 C25.78,3.21 25.8,3.77 25.55,4.4 C25.1672586,5.52415551 24.6643484,6.60373595 24.05,7.62 C21.83,8.74 20.05,9.04 18.83,8.49 C18.2043314,8.1884029 17.7177429,7.6588801 17.47,7.01 C19.4078291,5.24239031 21.6788116,3.87912089 24.15,3 L24.15,3 Z M8.45,20.79 C7.90829202,21.0614117 7.50034307,21.541564 7.32,22.12 C6.87734777,23.487585 6.25883438,24.7918415 5.48,26 C5.41941553,26.0858838 5.30999785,26.1223564 5.21,26.09 C5.07,26.09 5.07,25.96 5.07,25.84 C5.07861554,25.2319042 4.83738701,24.646899 4.40265581,24.2216185 C3.9679246,23.796338 3.37775964,23.5680234 2.77,23.59 C2.77,23.59 2.62,23.59 2.57,23.45 C2.53402944,23.3500156 2.5712329,23.2384052 2.66,23.18 C3.99048967,22.304998 5.44279268,21.6310755 6.97,21.18 C7.25205449,21.1022871 7.48593039,20.9049543 7.61,20.64 C9.77530585,16.1945647 12.6043416,12.1044331 16,8.51 C16.4651542,9.31155382 17.1625289,9.95313848 18,10.35 C18.6972227,10.6773125 19.4598562,10.8414668 20.23,10.83 C20.8269029,10.813748 21.4203218,10.7332844 22,10.59 C17.3,16.2 10.2,19.93 8.45,20.79 Z"/>
        <path id="Path" fill="#3D454C" d="M22.85,6.52 C23.4022847,6.52 23.85,6.07228475 23.85,5.52 C23.84842,5.38932274 23.821241,5.26022231 23.77,5.14 C23.7241858,5.0163566 23.6526027,4.90386892 23.56,4.81 C23.3214304,4.57259804 22.9794419,4.47112893 22.65,4.54 L22.47,4.59 L22.29,4.69 L22.14,4.81 C22.0473973,4.90386892 21.9758142,5.0163566 21.93,5.14 C21.878759,5.26022231 21.85158,5.38932274 21.85,5.52 C21.85,6.07228475 22.2977153,6.52 22.85,6.52 Z"/>
        <path id="Shape" fill="#3D454C" d="M24.38,28.07 C24.0812901,27.6067672 23.4640673,27.4725884 23,27.77 C21.4434719,28.7749187 19.8345265,29.6962235 18.18,30.53 C17.6360776,30.7985821 17.227193,31.2798357 17.05,31.86 C16.6061934,33.2113961 15.9876186,34.4989731 15.21,35.69 C15.1515948,35.7787671 15.0399844,35.8159706 14.94,35.78 C14.8,35.78 14.8,35.65 14.8,35.54 C14.815244,34.9394851 14.5797251,34.3597461 14.15,33.94 C13.7182804,33.502441 13.1244643,33.2634662 12.51,33.28 C12.4633715,33.2918329 12.4139127,33.2833562 12.3738857,33.2566715 C12.3338587,33.2299868 12.3070114,33.1875928 12.3,33.14 C12.2672308,33.0405795 12.3090545,32.9318379 12.4,32.88 C13.723569,31.9990462 15.1735029,31.3246584 16.7,30.88 L16.7,30.88 C16.8119098,30.845242 16.9168395,30.7910848 17.01,30.72 L17.09,30.66 C17.1486338,30.6013268 17.2021608,30.5377635 17.25,30.47 L17.31,30.38 L17.31,30.38 C19.4670819,25.9436986 22.2896862,21.8632311 25.68,18.28 C26.1480852,19.079196 26.8446346,19.7200215 27.68,20.12 C28.3798498,20.438373 29.1411873,20.5988342 29.91,20.59 C30.5106919,20.5800795 31.1081313,20.4995259 31.69,20.35 C30.6850379,21.5498934 29.5884074,22.6699276 28.41,23.7 C27.9957865,24.0672694 27.9577307,24.7007864 28.325,25.115 C28.6922694,25.5292135 29.3257864,25.5672693 29.74,25.2 C33.48,21.89 35.98,18.41 37.17,14.88 C37.6846068,13.7219327 37.4860583,12.3710243 36.66,11.41 C35.700034,10.5890667 34.3531033,10.3944235 33.2,10.91 C23.32,14.24 16.86,26.71 15.68,29.14 C14.1262026,29.6316313 12.6460998,30.3313162 11.28,31.22 C10.4427358,31.7540315 10.0594964,32.7773622 10.34,33.73 C10.6228744,34.6954484 11.5246088,35.3460148 12.53,35.31 C12.5931105,35.3127282 12.6532667,35.3374984 12.7,35.38 C12.7,35.38 12.76,35.46 12.76,35.63 C12.7581255,36.6044545 13.4031781,37.4618028 14.34,37.73 C14.5505398,37.7942035 14.7699361,37.8245814 14.99,37.82 C15.7425361,37.8251668 16.4464521,37.4487411 16.86,36.82 C17.7613553,35.4703201 18.4808851,34.0077246 19,32.47 C19.0210607,32.407414 19.0635636,32.3542855 19.12,32.32 C20.8388491,31.45726 22.5081205,30.4990982 24.12,29.45 C24.5693989,29.1384581 24.6852198,28.5237164 24.38,28.07 Z M33.88,12.77 C34.52,12.56 35.06,12.57 35.29,12.77 C35.52,12.97 35.53,13.54 35.29,14.18 C34.895171,15.3026488 34.3858196,16.3816697 33.77,17.4 C31.56,18.51 29.77,18.81 28.56,18.26 C27.9374247,17.9591543 27.4516129,17.4340489 27.2,16.79 C29.1379187,15.0201015 31.4086868,13.6535614 33.88,12.77 L33.88,12.77 Z"/>
        <path id="Path" fill="#3D454C" d="M32,16.08 C32.0510516,16.1195805 32.1085666,16.1500296 32.17,16.17 C32.2295467,16.2004496 32.2937653,16.2207292 32.36,16.2300167 L32.55,16.2300167 C32.815803,16.2315368 33.0712812,16.1271865 33.26,15.94 C33.4471865,15.7512812 33.5515368,15.495803 33.5500167,15.23 C33.5515368,14.964197 33.4471865,14.7087188 33.26,14.52 L33.11,14.4 C33.0542548,14.3621536 32.9937243,14.3318883 32.93,14.31 L32.75,14.25 C32.6207754,14.2299203 32.4892246,14.2299203 32.36,14.25 C32.2937653,14.2592708 32.2295467,14.2795504 32.17,14.31 C32.1085666,14.3299704 32.0510516,14.3604195 32,14.4 L31.85,14.52 C31.6606873,14.7077666 31.5542017,14.9633625 31.5542017,15.23 C31.5542017,15.4966375 31.6606873,15.7522334 31.85,15.94 L32,16.08 Z"/>
        <path id="Shape" fill="#3D454C" d="M46.43,21.12 C45.4815074,20.3009753 44.1457512,20.1023643 43,20.61 C33.16,23.93 26.7,36.34 25.49,38.83 C23.9343742,39.3294171 22.4515451,40.0321637 21.08,40.92 C20.2421175,41.4581336 19.8625741,42.486574 20.15,43.44 C20.4364434,44.3828047 21.3148482,45.0201589 22.3,45 C22.3628056,44.9934223 22.425237,45.0154569 22.47,45.06 C22.47,45.06 22.54,45.15 22.54,45.32 C22.5347227,46.2955847 23.1811493,47.1547593 24.12,47.42 C24.3281702,47.4793323 24.5435398,47.5096187 24.76,47.5101541 C25.5134536,47.5189021 26.2190492,47.1415782 26.63,46.51 C27.4988797,45.1713049 28.1912706,43.7260229 28.69,42.21 C28.7050119,42.147246 28.7446602,42.0931802 28.8,42.06 C31.25,40.85 43.66,34.31 46.94,24.59 C47.4622631,23.4329927 47.2630858,22.0778062 46.43,21.12 Z M27.91,40.26 C27.368292,40.5314117 26.9603431,41.011564 26.78,41.59 C26.3382392,42.9422185 25.7195391,44.2300562 24.94,45.42 C24.8881621,45.5109455 24.7794205,45.5527692 24.68,45.52 C24.54,45.47 24.54,45.38 24.54,45.27 C24.5466771,44.669117 24.3083782,44.0914227 23.88,43.67 C23.4479573,43.231794 22.8552874,42.9896666 22.24,43 C22.18,43 22.09,43 22.04,42.86 C21.9951404,42.7602939 22.0342886,42.6428492 22.13,42.59 C23.4582362,41.7109582 24.9111627,41.0367464 26.44,40.59 C26.724028,40.5100647 26.9582561,40.3087749 27.08,40.04 C29.2463315,35.6247659 32.0720179,31.564949 35.46,28 C35.9211065,28.804794 36.6196366,29.4474417 37.46,29.84 C38.1585832,30.1622126 38.9207965,30.3228584 39.69,30.31 C40.2939332,30.2993994 40.8946047,30.2188624 41.48,30.07 C36.77,35.67 29.67,39.39 27.91,40.26 Z M45.05,23.94 C44.6649645,25.0600509 44.1621487,26.1360767 43.55,27.15 C41.33,28.27 39.55,28.58 38.33,28.02 C37.7144505,27.7188335 37.238263,27.192521 37,26.55 C38.9312884,24.7963913 41.186983,23.4375392 43.64,22.55 C44.28,22.34 44.82,22.35 45.05,22.55 C45.28,22.75 45.26,23.3 45.05,23.94 Z"/>
        <path id="Path" fill="#3D454C" d="M43 24.28C42.7644513 24.044048 42.4268035 23.9410055 42.0996469 24.0052326 41.7724903 24.0694596 41.4988603 24.2925076 41.37 24.6 41.2159407 24.9743702 41.3027947 25.4046924 41.59 25.69 41.6812664 25.7835387 41.7899825 25.8582811 41.91 25.91 42.0340297 25.9591127 42.1666323 25.9829131 42.3 25.98 42.5623399 25.9788954 42.8137394 25.8747442 43 25.69 43.2872053 25.4046924 43.3740593 24.9743702 43.22 24.6 43.171713 24.4781203 43.0965064 24.3687289 43 24.28zM26.38 27.58C26.9322847 27.58 27.38 27.1322847 27.38 26.58 27.38 26.0277153 26.9322847 25.58 26.38 25.58 25.8277153 25.58 25.38 26.0277153 25.38 26.58 25.38 27.1322847 25.8277153 27.58 26.38 27.58z"/>
      </g>
    </g>
  </g>
</svg>
