<svg xmlns="http://www.w3.org/2000/svg" width="64" height="64" viewBox="0 0 64 64" style="background:#fff">
  <g id="Sauermilch" fill="none" fill-rule="evenodd" stroke="none" stroke-width="1">
    <rect width="64" height="64" fill="#FFF"/>
    <g transform="translate(2 4)">
      <g id="Layer_2">
        <rect id="Rectangle" width="60" height="60" x="0" y="0"/>
      </g>
      <g id="Layer_1" fill-rule="nonzero" transform="translate(13 5)">
        <path id="Path" fill="#CCC" d="M32,26.23 C31.12,21.82 28.46,17.62 23.74,17.12 C20.48,16.77 17.2,16.39 13.93,16.34 C12.2993821,16.2665614 10.6656662,16.3032817 9.04,16.45 C5.72,16.88 4.14,18.83 2.3,21.45 C-0.1,24.82 -0.57,30.7 0.9,35.13 C1.61,43.3 7.14,51.32 15.49,52.28 C29.31,53.83 34.12,36.87 32,26.23 Z" opacity=".5"/>
        <path id="Shape" fill="#3D454C" d="M27.66,14.26 C26.8695397,13.5535081 26.294211,12.6385275 26,11.62 C26.5922788,11.6211787 27.1722545,11.4510062 27.67,11.13 C28.2177685,10.7651487 28.5820772,10.1822549 28.67,9.53 C28.7366292,8.90736546 28.5284974,8.28662153 28.1,7.83 L27.73,7.41 C28.4560831,7.2225412 29.1038808,6.80935132 29.58,6.23 C29.8122226,5.95847815 29.88195,5.58369232 29.7629165,5.24682069 C29.643883,4.90994907 29.3541726,4.66217047 29.0029165,4.59682069 C28.6516604,4.53147092 28.2922226,4.65847815 28.06,4.93 C27.5207886,5.58206461 26.5774182,5.72421631 25.87,5.26 C25.8184763,5.23547149 25.7649476,5.21539822 25.71,5.2 C26.1021994,4.88033035 26.3358267,4.40577479 26.35,3.9 C26.35,0.95 18.67,0.8 17.14,0.8 C15.61,0.8 8,1 8,3.9 C8.01560806,4.45633125 8.28910132,4.97375093 8.74,5.3 C8.55317134,5.34435239 8.38306276,5.44155729 8.25,5.58 L6.25,7.83 C5.82032957,8.28549984 5.61516818,8.90831118 5.69,9.53 C5.77666585,10.1827077 6.14127359,10.7660801 6.69,11.13 C7.19027046,11.4454501 7.76859857,11.6151392 8.36,11.62 C8.07136907,12.6362262 7.50312545,13.5509598 6.72,14.26 C2,18.74 2,23.67 2.05,28.44 C2.05,28.89 2.05,29.33 2.05,29.78 C2.05,30.73 2.05,31.72 2.05,32.78 C2.05,33.3322847 2.49771525,33.78 3.05,33.78 L3.05,33.78 C3.60228475,33.78 4.05,33.3322847 4.05,32.78 C4.05,31.78 4,30.78 4,29.9 C4,29.45 4,28.99 4,28.54 C3.87339556,26.1916377 4.06513502,23.8369426 4.57,21.54 C7.1,23.35 13.17,23.9 17.14,23.9 C21.11,23.9 27.14,23.35 29.71,21.54 C30.2115106,23.837399 30.3998858,26.1920892 30.27,28.54 C30.27,28.99 30.27,29.45 30.27,29.9 C30.27,39.78 28.68,48.9 17.15,48.9 C15.4555813,48.9284988 13.7675344,48.68542 12.15,48.18 C9.04977612,46.8040843 6.6546395,44.209956 5.53,41.01 C5.1,39.81 3.16,40.33 3.6,41.54 C4.87705768,45.3009342 7.66379599,48.359461 11.29,49.98 L11.36,49.98 L11.48,50.05 C13.30682,50.6270708 15.2143965,50.9072988 17.13,50.88 C32.25,50.88 32.25,36.69 32.25,29.88 C32.25,29.43 32.25,28.99 32.25,28.54 C32.36,23.67 32.41,18.74 27.66,14.26 Z M17.19,2.8 C20.96,2.8 23.38,3.44 24.19,3.9 C23.38,4.36 20.96,5 17.19,5 C13.42,5 10.99,4.36 10.19,3.9 C11,3.44 13.41,2.8 17.19,2.8 Z M7.64,9.29 C7.65128216,9.24118431 7.67545598,9.19629007 7.71,9.16 L9.71,6.92 C9.93621907,6.65910458 10.0118289,6.29995814 9.91,5.97 C12.2648976,6.68708164 14.7189508,7.02464053 17.18,6.97 C19.6241069,7.01551368 22.0602711,6.67809481 24.4,5.97 C24.3953878,6.01655271 24.3953878,6.06344729 24.4,6.11 C24.3597614,6.39413658 24.443531,6.68186691 24.63,6.9 L26.63,9.14 C26.6682999,9.1734317 26.6931716,9.21962211 26.7,9.27 C26.7,9.27 26.7,9.37 26.54,9.46 C26.08,9.77 24.69,9.54 23.54,9.36 C23.2119058,9.3057989 22.8783319,9.41823955 22.65,9.66 C21.3519335,11.0640767 19.1688134,11.1707873 17.74,9.9 C17.4035922,9.63758004 16.9377405,9.61750022 16.58,9.85 C13.58,11.85 11.83,9.93 11.65,9.71 C11.4220631,9.43326294 11.0634199,9.29972558 10.71,9.36 C9.59,9.54 8.2,9.77 7.71,9.46 C7.67546506,9.40862096 7.65165629,9.35079966 7.64,9.29 Z M17.19,21.79 C10.02,21.79 5.73,20.29 5.43,19.57 C5.73,18.76 10.02,17.27 17.19,17.27 C24.36,17.27 28.52,18.72 28.93,19.53 C28.52,20.34 24.24,21.79 17.19,21.79 Z M17.19,15.27 C13.8992307,15.2317385 10.616741,15.6080321 7.42,16.39 C7.63,16.16 7.85,15.94 8.09,15.71 C9.32360405,14.5965345 10.144694,13.0988383 10.42,11.46 L10.58,11.46 C12.4205102,13.0540193 15.0910439,13.2453532 17.14,11.93 C18.0296964,12.520949 19.0719683,12.8405791 20.14,12.85 C21.4764803,12.8314364 22.7629323,12.3388281 23.77,11.46 L23.95,11.46 C24.2294953,13.0996336 25.0539473,14.5970357 26.29,15.71 C26.53,15.94 26.75,16.16 26.96,16.39 C23.763259,15.6080321 20.4807693,15.2317385 17.19,15.27 L17.19,15.27 Z"/>
        <path id="Path" fill="#3D454C" d="M3.45,36.06 C2.89771525,36.06 2.45,36.5077153 2.45,37.06 C2.45,37.6122847 2.89771525,38.06 3.45,38.06 C4.00228475,38.06 4.45,37.6122847 4.45,37.06 C4.45,36.5077153 4.00228475,36.06 3.45,36.06 Z"/>
      </g>
    </g>
  </g>
</svg>
