<svg xmlns="http://www.w3.org/2000/svg" width="64" height="64" viewBox="0 0 64 64" style="background:#fff">
  <g id="Sauerkraut" fill="none" fill-rule="evenodd" stroke="none" stroke-width="1">
    <rect width="64" height="64" fill="#FFF"/>
    <g transform="translate(2 4)">
      <g id="Layer_2">
        <rect id="Rectangle" width="60" height="60" x="0" y="0"/>
      </g>
      <g id="Layer_1" fill-rule="nonzero" transform="translate(12 4)">
        <path id="Path" fill="#CCC" d="M23.76,22.27 C23.58,20.27 22.6,18.38 20.6,18.27 C13.97,17.94 8.54,25.27 7.6,31.11 C6.38,38.28 10,46.1 17.45,48 C24.45,49.75 29.95,45.1 31.22,38.34 C32.34,32.39 29,25.51 23.76,22.27 Z" opacity=".5"/>
        <path id="Shape" fill="#3D454C" d="M37,32.27 C37,31.61 37,30.96 37,30.33 C37,29.7 37,29.33 37,28.76 C37.05,23.22 37.11,17.49 31.4,12.31 C30.1383069,11.2574699 29.3468454,9.74649796 29.2,8.11 C30.28,7.69 30.98,7.11 30.98,6.36 L30.98,3.65 C30.98,1.1 23.38,0.72 18.85,0.72 C14.32,0.72 6.69,1.1 6.69,3.65 L6.69,6.36 C6.69,7.12 7.38,7.69 8.47,8.11 C8.32315456,9.74649796 7.53169309,11.2574699 6.27,12.31 C0.56,17.49 0.62,23.22 0.67,28.76 C0.67,29.29 0.67,29.81 0.67,30.33 C0.67,31.21 0.67,32.12 0.67,33.06 C0.54,39 0.4,45.73 4.76,50.19 C7.76,53.24 12.35,54.72 18.84,54.72 C25.05,54.72 29.52,53.25 32.51,50.23 C37.1,45.58 37,38.2 37,32.27 Z M29,3.94 L29,6.07 C28.18,6.54 24.73,7.28 18.87,7.28 C13.01,7.28 9.56,6.54 8.74,6.07 L8.74,3.94 C9.5,3.47 13,2.72 18.82,2.72 C24.64,2.72 28.14,3.47 29,3.94 Z M31.12,48.82 C28.52,51.45 24.51,52.72 18.87,52.72 C12.95,52.72 8.81,51.44 6.22,48.79 C2.44,44.93 2.58,38.65 2.69,33.1 C2.69,32.1 2.69,31.22 2.69,30.33 C2.69,29.8 2.69,29.27 2.69,28.74 C2.64,23.41 2.59,18.37 7.69,13.74 C9.22329629,12.4304234 10.2260134,10.6063317 10.51,8.61 C13.279219,9.06645631 16.083758,9.27395204 18.89,9.23 C21.696242,9.27395204 24.500781,9.06645631 27.27,8.61 C27.5187266,10.6115377 28.4894724,12.4534655 30,13.79 C35,18.37 35,23.41 34.95,28.79 C34.95,29.32 34.95,29.85 34.95,30.38 C34.95,30.91 34.95,31.67 34.95,32.38 C35,38.13 35.09,44.76 31.07,48.82 L31.12,48.82 Z"/>
        <path id="Shape" fill="#3D454C" d="M25.24,24 C24.6797512,23.688528 24.16494,23.3015784 23.71,22.85 C22.7301467,22.0158642 22.1369839,20.8150713 22.07,19.53 C22.1084422,19.1073649 21.8759375,18.7064948 21.49,18.53 C21.1087535,18.3524047 20.6571301,18.432338 20.36,18.73 C19.7691306,19.2827364 19.1299063,19.7813982 18.45,20.22 C17.397042,20.8621102 16.4743196,21.6966312 15.73,22.68 C14.0492327,23.0798925 12.4650349,23.8107992 11.07,24.83 C10.8107717,25.0118508 10.5236899,25.1503255 10.22,25.24 L9.08,25.61 C8.8130078,25.697696 8.59523833,25.8936886 8.48,26.15 C8.2416549,26.7436387 8.08034191,27.3653659 8,28 C5.21488034,32.0159347 4.91740489,37.2545933 7.23,41.56 L7.23,41.56 C7.83970822,42.6954361 8.61109292,43.7363002 9.52,44.65 C14.630581,49.7539312 22.909419,49.7539312 28.02,44.65 L28.21,44.44 C28.3048188,44.3682883 28.3860908,44.2802436 28.45,44.18 C31.130314,41.2424706 32.3274987,37.2444794 31.7028049,33.3172768 C31.0781112,29.3900743 28.6994961,25.9608797 25.24,24 L25.24,24 Z M10.18,27.39 L10.81,27.19 C11.3286014,27.0413638 11.8163281,26.8008874 12.25,26.48 C13.067281,25.8868091 13.9623549,25.4089877 14.91,25.06 C14.8695585,26.3348174 15.1263299,27.6015566 15.66,28.76 C14.9333957,29.8406479 14.5820396,31.1301247 14.66,32.43 C14.800621,33.7016191 15.4589519,34.8591239 16.48,35.63 C17.8860753,36.7337741 19.1640477,37.991621 20.29,39.38 C19.1683267,39.5874299 18.0897949,39.9830042 17.1,40.55 C16.65,37.6 13.56,35.55 13.47,35.55 C10.28,33 9.83,30.32 10.01,28.55 C10.0298391,28.1588257 10.086761,27.7704174 10.18,27.39 L10.18,27.39 Z M8.35,31.71 C9.07066823,33.8728047 10.439229,35.7615582 12.27,37.12 C12.27,37.12 15.32,39.12 15.13,41.5 C13.0401485,42.3337982 10.6609918,41.9494433 8.94,40.5 C7.52738476,37.7801358 7.31354261,34.5942502 8.35,31.71 L8.35,31.71 Z M19.48,46.48 C16.6199102,46.6548953 13.8031347,45.7159701 11.62,43.86 C12.009918,43.9319635 12.4040679,43.978727 12.8,44 C14.4968252,43.97374 16.1551196,43.4900708 17.6,42.6 C18.732052,41.8404584 20.0486334,41.4015979 21.41,41.33 C21.6815017,41.9293922 21.8147875,42.5821508 21.8,43.24 C21.73,44.41 21,45.48 19.48,46.48 Z M29.63,37.73 C29.338122,36.304588 28.6953987,34.9744602 27.76,33.86 C27.3706392,33.4678779 26.7371222,33.4656393 26.345,33.855 C25.9528779,34.2443608 25.9506393,34.8778778 26.34,35.27 C26.34,35.27 29.28,38.43 26.82,43.05 L26.63,43.26 C25.6109669,44.277053 24.4057138,45.0884769 23.08,45.65 C23.50443,44.9318583 23.7512727,44.1227628 23.8,43.29 C23.99,39.66 20.42,36.29 17.72,34.08 C16.8030569,33.4433836 16.3995243,32.2892803 16.72,31.22 C16.8395952,30.7638911 17.0284589,30.3288301 17.28,29.93 C18.3464707,30.0827883 19.3371626,30.5693826 20.11,31.32 C20.7415837,32.0265135 21.1305461,32.9165716 21.22,33.86 C21.2902496,34.3570163 21.718068,34.7249401 22.22,34.72 L22.36,34.72 C22.6245483,34.6829393 22.8632715,34.5415732 23.0229487,34.3274179 C23.1826259,34.1132626 23.2499817,33.8441226 23.21,33.58 C23.0734088,32.1920912 22.4706472,30.8913951 21.5,29.89 C20.4160758,28.8110287 19.0135315,28.1097566 17.5,27.89 C16.61,25.69 16.9,24.63 17.23,24.03 C17.8461765,23.137134 18.6564093,22.3952753 19.6,21.86 C19.86,21.68 20.13,21.5 20.4,21.3 C20.7900926,22.437153 21.4447288,23.4653774 22.31,24.3 C22.9049316,24.8835486 23.5780286,25.3816403 24.31,25.78 C27.7842951,27.7451239 29.931631,31.4284545 29.9300009,35.42 C29.9067602,36.1980361 29.8062665,36.9718376 29.63,37.73 Z"/>
        <path id="Path" fill="#3D454C" d="M28.68 23.05C29.2322847 23.05 29.68 22.6022847 29.68 22.05 29.68 21.4977153 29.2322847 21.05 28.68 21.05 28.1277153 21.05 27.68 21.4977153 27.68 22.05 27.68 22.6022847 28.1277153 23.05 28.68 23.05zM23.21 14.78C23.7622847 14.78 24.21 14.3322847 24.21 13.78 24.21 13.2277153 23.7622847 12.78 23.21 12.78 22.6577153 12.78 22.21 13.2277153 22.21 13.78 22.21 14.3322847 22.6577153 14.78 23.21 14.78zM12.14 19.05C12.6922847 19.05 13.14 18.6022847 13.14 18.05 13.14 17.4977153 12.6922847 17.05 12.14 17.05 11.5877153 17.05 11.14 17.4977153 11.14 18.05 11.14 18.6022847 11.5877153 19.05 12.14 19.05z"/>
      </g>
    </g>
  </g>
</svg>
