<svg xmlns="http://www.w3.org/2000/svg" width="64" height="64" viewBox="0 0 64 64" style="background:#fff">
  <g id="Schalotte" fill="none" fill-rule="evenodd" stroke="none" stroke-width="1">
    <rect width="64" height="64" fill="#FFF"/>
    <g transform="translate(2 4)">
      <g id="Layer_2">
        <rect id="Rectangle" width="60" height="60" x="0" y="0"/>
      </g>
      <g id="Layer_1" fill-rule="nonzero" transform="translate(6 3)">
        <path id="Path" fill="#31E085" d="M30.42,1.82 C28.89,1.27 27.68,2.37 26.42,3.18 C25.3751599,3.83780686 24.4088944,4.61283233 23.54,5.49 C23.4361173,4.97939457 23.2820354,4.48030325 23.08,4 C22.6868728,3.16804454 22.2392321,2.3629594 21.74,1.59 C21.3789981,0.955261076 20.7277622,0.53981747 20,0.48 C19.2790241,0.560667895 18.6417611,0.985509865 18.29,1.62 C17.3704956,3.27988738 17.4202218,5.30718936 18.42,6.92 C18.761036,7.48081175 19.1385141,8.01863444 19.55,8.53 C19.8540599,8.89137489 20.1886251,9.22594011 20.55,9.53 C20.7443761,9.73346152 20.979498,9.893617 21.24,10 L21.8,10.1 C22.1519426,10.1550684 22.5113863,10.0688019 22.8,9.86 C23.1,10.57 23.67,11.39 24.5,11.31 C25.8747863,11.0590436 27.1743339,10.4981862 28.3,9.67 C29.83,8.73 31.1,7.99 31.79,6.23 C32.22,5 32,2.37 30.42,1.82 Z" opacity=".5"/>
        <path id="Path" fill="#EBE53F" d="M40.72,17.43 C36.19,13.2 28.4,9.24 22.24,11.18 C19.49,12.05 18.38,14.89 18.24,17.94 L18.04,17.88 C15.55,17.07 12.28,17.48 10.44,19.59 C6.1,24.59 4.55,30.22 6.3,36.76 C7.84,42.5 10.75,46.63 16.59,48.21 C23.92,50.21 33.21,50.37 39.31,45.21 C47,38.7 48.4,24.6 40.72,17.43 Z" opacity=".5"/>
        <path id="Shape" fill="#3D454C" d="M43.84,25.22 C42.1277018,22.9025272 39.8142646,21.0974238 37.15,20 L36.67,19.77 C33.44,18.26 30.44,16.63 28.93,14.77 C28.8888792,14.7089851 28.8419976,14.6520575 28.79,14.6 C27.8918913,13.550145 27.6635248,12.0831807 28.2,10.81 C28.2291065,10.7464114 28.249297,10.6791097 28.26,10.61 C28.92,7.28 28.7,5.56 27.54,4.85 C26.38,4.14 25.26,4.85 24.28,5.47 C23.5148134,3.99578475 22.3229548,2.78650131 20.86,2 C20.3861891,1.73806921 19.800893,1.78948035 19.38,2.13 C18.05,3.19 18.38,7.38 19.05,9.88 L19.05,9.88 C19.05,10.05 19.15,10.23 19.2,10.42 C19.9166242,11.9795062 19.558514,13.8223656 18.31,15 C16.8,16.74 14.4,17.86 11.85,19 C10.95,19.42 10.03,19.84 9.15,20.3 C8.73818674,20.5109688 8.5248865,20.9769081 8.63430879,21.426491 C8.74373107,21.8760739 9.14729655,22.1918765 9.61,22.19 C9.76654225,22.1890614 9.9206777,22.1513839 10.06,22.08 C10.93,21.63 11.81,21.22 12.69,20.81 C15.32,19.59 18.05,18.33 19.84,16.2 C21.1995392,14.8378076 21.7918951,12.8882821 21.42,11 C22.9,11.36 24.88,11.82 25.9,12.05 C25.8968858,13.4069974 26.3672405,14.7225757 27.23,15.77 C28.8353865,18.578938 30.8245312,21.1503535 33.14,23.41 C33.68,23.98 34.24,24.57 34.81,25.21 C37.1776203,27.9122287 38.2477253,31.5133329 37.74,35.07 C37.3862213,39.0210236 35.3635654,42.6334289 32.18,45 L31,45.74 C30.4230165,46.1189924 29.8748545,46.5401412 29.36,47 C28.6233605,46.9291172 27.9035866,46.7365016 27.23,46.43 C30.34,43.51 37.39,36.43 32.23,27.33 C31.4763473,25.9056823 30.6347181,24.5296854 29.71,23.21 C29.4090048,22.7377966 28.7822035,22.5990049 28.31,22.9000001 C27.8377966,23.2009952 27.6990049,23.8277965 28,24.3 C28.888006,25.5596279 29.6930426,26.8757459 30.41,28.24 C34.52,35.43 29.97,41.09 25.55,45.24 C25.48,45.31 25.44,45.38 25.38,45.44 L25.38,45.44 C25.3146465,45.508785 25.2544817,45.5823198 25.2,45.66 C23.14,48.43 16.38,48.52 11.92,46.66 C7.82417876,44.9549801 4.67618437,41.5476962 3.3,37.33 C2.1033591,33.8765279 2.49122659,30.0710356 4.36,26.93 C4.58096962,26.6278828 4.61471923,26.2276577 4.44746329,25.8928027 C4.28020735,25.5579478 3.93995235,25.3445334 3.56568062,25.339732 C3.19140889,25.3349305 2.84579106,25.5395459 2.67,25.87 C0.479697415,29.5065938 0.0145664791,33.9271689 1.4,37.94 C2.95340079,42.7299829 6.5222764,46.6020486 11.17,48.54 C13.4763082,49.4360613 15.9258428,49.9069953 18.4,49.93 L17.86,50.93 C17.5886117,51.4079792 17.7538636,52.0153915 18.23,52.29 C18.7079792,52.5613883 19.3153915,52.3961364 19.59,51.92 L20.49,50.34 L19.92,51.91 C19.8268192,52.160538 19.8378222,52.4379532 19.9505529,52.6803242 C20.0632836,52.9226953 20.2683574,53.109845 20.52,53.2 C20.6289975,53.2395611 20.7440452,53.26 20.86,53.26 C21.2810301,53.26 21.6568498,52.9959474 21.8,52.6 L23,49.34 L23.19,49.28 L23.19,52.17 C23.19,52.7222847 23.6377153,53.17 24.19,53.17 L24.19,53.17 C24.7422847,53.17 25.19,52.7222847 25.19,52.17 L25.17,49 L27,52.05 C27.1782335,52.350653 27.5005051,52.5364331 27.85,52.54 C28.0338257,52.5387462 28.2137488,52.4868454 28.37,52.39 C28.6069542,52.2580821 28.7801672,52.0355805 28.849928,51.773506 C28.9196889,51.5114315 28.8800143,51.232262 28.74,51 L27.25,48.54 C28.0453639,48.7906327 28.8678925,48.9450666 29.7,49 C29.9188253,49.0561116 30.1441151,49.0830119 30.37,49.08 C31.6540662,49.0127687 32.9329935,48.8691816 34.2,48.65 C39.38,47.93 44.07,43.4 45.36,37.89 C46.85,31.52 45.36,27.48 43.84,25.22 Z M20.84,8.84 C20.4818642,7.30732683 20.3804879,5.72585573 20.54,4.16 C22.1995608,5.47943487 23.2764465,7.39629136 23.54,9.5 C22.47,9.24 21.46,9 20.85,8.84 L20.84,8.84 Z M25.65,10 C25.5608148,9.09884405 25.3730245,8.21019369 25.09,7.35 C25.4975161,6.99801118 25.9745066,6.73566638 26.49,6.58 C26.58,6.78 26.81,7.58 26.32,10.13 L26.32,10.13 L25.65,10 Z M43.42,37.44 C42.33,42.11 38.25,46.08 33.92,46.68 L33.01,46.81 L33.31,46.6 C36.9425465,43.9203271 39.2741689,39.8309085 39.73,35.34 C40.3114592,31.2070969 39.0544446,27.0267922 36.29,23.9 C35.71,23.26 35.15,22.66 34.6,22.08 C34.05,21.5 33.31,20.7 32.71,20.08 C33.85,20.69 34.94,21.2 35.82,21.61 L36.3,21.84 C38.631882,22.7934487 40.6632828,24.3584565 42.18,26.37 C44,29.1 44.47,33 43.42,37.44 Z"/>
        <path id="Path" fill="#3D454C" d="M6,24.18 C6.55228475,24.18 7,23.7322847 7,23.18 C7,22.6277153 6.55228475,22.18 6,22.18 C5.44771525,22.18 5,22.6277153 5,23.18 C5,23.7322847 5.44771525,24.18 6,24.18 Z"/>
      </g>
    </g>
  </g>
</svg>
