<svg xmlns="http://www.w3.org/2000/svg" width="64" height="64" viewBox="0 0 64 64" style="background:#fff">
  <g id="Schinken" fill="none" fill-rule="evenodd" stroke="none" stroke-width="1">
    <rect width="64" height="64" fill="#FFF"/>
    <g id="1-2-Schinken" transform="translate(2 6)">
      <g id="Layer_2">
        <rect id="Rectangle" width="60" height="60" x="0" y="0"/>
      </g>
      <g id="Layer_1" transform="translate(4 5)">
        <g id="pig" fill-rule="nonzero" transform="translate(27)">
          <path id="Path" fill="#E05362" fill-opacity=".5" d="M19.27,15.93 C18.7808062,14.9323399 17.9187049,14.167225 16.87,13.8 C15.7437862,13.4273785 14.5740589,13.2021723 13.39,13.13 C12.3511782,13.0599897 11.3088218,13.0599897 10.27,13.13 C8.53,13.24 7.64,13.57 6.77,14.93 C5.9,16.29 5.64,18.45 6.91,19.66 C7.84,20.5 8.42,21.13 9.81,21.06 C10.95,21.06 12.12,20.81 13.26,20.73 C14.4,20.65 15.35,20.58 16.37,20.41 C17.4343643,20.3138215 18.4115764,19.7817838 19.07,18.94 C19.6881261,18.0545656 19.7651204,16.8996509 19.27,15.94 L19.27,15.93 Z"/>
          <path id="Path" fill="#E0A075" fill-opacity=".5" d="M12.9,3 C6.11,2.64 0.37,9.41 0.79,15.92 C0.92,18.07 3.79,22.47 5.69,18.84 C7.24,15.69 8.69,12.65 12.69,12.37 C16.26,12.13 18.75,14.63 20.82,17.18 C22.02,18.66 23.62,17.57 23.82,15.89 C23.8682419,15.4817978 23.8916184,15.0710398 23.8900786,14.66 C23.8654548,8.48701442 19.0607413,3.38938389 12.9,3 L12.9,3 Z"/>
          <path id="Shape" fill="#3D454C" d="M21.7,7.78 C23.58,5.78 23.93,3.95 23.93,1.19 C23.9300292,0.674732636 23.5152382,0.255481567 23,0.25 C20.3,0.25 18.48,0.63 16.59,2.6 C16.35,2.85 16.13,3.11 15.91,3.38 C13.5512205,2.61018543 11.0087795,2.61018543 8.65,3.38 C8.44,3.11 8.21,2.85 7.97,2.59 C6.09,0.59 4.26,0.25 1.57,0.25 C1.32160624,0.25 1.08352891,0.349339025 0.908829754,0.525916672 C0.734130593,0.702494318 0.637329099,0.941620596 0.639946161,1.19 C0.639946161,3.95 0.99,5.82 2.85,7.76 C3.21016724,8.15640431 3.59421596,8.53043437 4,8.88 C3.08,10.66 0.67,15.47 0.67,17.2 C0.67,21.2 5.45,25.58 12.31,25.58 C19.17,25.58 23.96,21.16 23.96,17.2 C23.96,15.46 21.55,10.66 20.62,8.88 C21,8.53 21.35,8.16 21.7,7.78 Z M22.07,17.2 C22.07,19.92 18.35,23.72 12.28,23.72 C6.21,23.72 2.5,19.92 2.5,17.2 C2.5,16.2 4.33,12.12 5.96,9.1 C6.16662681,8.70749808 6.07075474,8.22396938 5.73,7.94 C5.1905335,7.49937666 4.68571482,7.01796017 4.22,6.5 C3.07756686,5.34248127 2.46262418,3.76533415 2.52,2.14 C4.07278912,2.09529065 5.56859865,2.7264493 6.62,3.87 C6.95590452,4.22457803 7.26665914,4.60216161 7.55,5 C7.8002776,5.35190413 8.25812322,5.48802039 8.66,5.33 C10.9856357,4.40990528 13.5743643,4.40990528 15.9,5.33 C16.2990522,5.48280727 16.7509604,5.34723479 17,5 C17.284781,4.59694055 17.5954346,4.21279901 17.93,3.85 C18.9729959,2.68754909 20.4793882,2.04980636 22.04,2.11 C22.0995571,3.7376291 21.4801894,5.31683571 20.33,6.47 L20.33,6.47 C19.8707025,6.98105603 19.3725489,7.45580638 18.84,7.89 C18.4905106,8.17307957 18.3936723,8.66569143 18.61,9.06 C20.2,12 22.07,16.21 22.07,17.2 Z"/>
          <path id="Path" fill="#3D454C" d="M9.93 15.82C8.90935257 15.813231 8.04735459 16.5760992 7.93 17.59 7.88029439 18.1036248 8.2563752 18.5602943 8.77 18.61 9.28362481 18.6597056 9.74029435 18.2836248 9.79 17.77 9.79 17.68 9.96 17.68 9.97 17.77 10.0164891 18.2481874 10.4195634 18.6122545 10.9 18.61L11 18.61C11.5063185 18.5624015 11.8805105 18.1169349 11.84 17.61 11.7364365 16.6216861 10.9229475 15.8593063 9.93 15.82L9.93 15.82zM14.54 15.82C13.5315917 15.8161215 12.6883589 16.5854628 12.6 17.59 12.5545655 17.9273913 12.6971106 18.262644 12.9716142 18.4640018 13.2461177 18.6653597 13.6087041 18.7006383 13.9168748 18.5559731 14.2250454 18.4113079 14.4295435 18.1098216 14.45 17.77 14.45 17.68 14.63 17.68 14.64 17.77 14.6815996 18.2466234 15.0815681 18.611812 15.56 18.61L15.65 18.61C16.1563185 18.5624015 16.5305105 18.1169349 16.49 17.61 16.4112173 16.5936891 15.5593261 15.8116966 14.54 15.82z"/>
          <path id="Shape" fill="#3D454C" d="M12.28,12.53 C8.04,12.53 4.71,14.69 4.71,17.45 C4.71,20.21 8.04,22.37 12.28,22.37 C16.52,22.37 19.86,20.21 19.86,17.45 C19.86,14.69 16.53,12.53 12.28,12.53 Z M12.28,20.53 C8.92,20.53 6.57,18.92 6.57,17.48 C6.57,16.04 8.92,14.42 12.28,14.42 C15.64,14.42 18,16 18,17.45 C18,18.9 15.65,20.5 12.28,20.5 L12.28,20.53 Z"/>
          <path id="Path" fill="#3D454C" d="M9.07 10.86C9.58362482 10.86 10 10.4436248 10 9.93 10 9.41637518 9.58362482 9 9.07 9 8.55637518 9 8.14 9.41637518 8.14 9.93 8.14 10.4436248 8.55637518 10.86 9.07 10.86L9.07 10.86zM15.14 10.86C15.6522869 10.8544912 16.0636389 10.4357084 16.0599762 9.92340495 16.0563135 9.41110151 15.6390158 8.99824306 15.1267025 9.00005364 14.6143891 9.00187616 14.2000296 9.41768347 14.2 9.93 14.2 10.1783938 14.299339 10.4164711 14.4759167 10.5911702 14.6524943 10.7658694 14.8916206 10.8626709 15.14 10.86L15.14 10.86z"/>
        </g>
        <path id="Path" fill="#E05362" fill-opacity=".5" fill-rule="nonzero" d="M31.85,30.2 C26.54,25.81 21.65,18.38 13.12,19.9 C3.94,21.52 0.07,31.14 2,38.39 C2.5,40.25 3.87,42.79 6.28,43.22 C6.48819851,43.5776146 6.73283394,43.9127317 7.01,44.22 C8.93,46.22 10.26,47.3 13.23,47.6 C15.2265292,47.7666319 17.2334708,47.7666319 19.23,47.6 C23.2162483,47.4485576 27.1468065,46.6130603 30.85,45.13 C36.67,42.51 36.19,33.77 31.85,30.2 Z"/>
        <path id="Shape" fill="#3C454E" d="M36.84,35.84 C36.4646958,34.4830734 35.7446987,33.246332 34.75,32.25 C34.15,31.53 33.67,30.86 33.14,30.25 C33.1237393,30.2145611 33.1036175,30.1810248 33.08,30.15 C31.37,28.01 29.65,25.64 27.3,24.15 C27.2724649,24.0994523 27.2388851,24.0524406 27.2,24.01 C26.095814,23.0630742 24.9371673,22.1815678 23.73,21.37 C20.9778023,19.4756066 17.5842288,18.7558668 14.3,19.37 C13.1148274,19.567167 11.9569015,19.9027977 10.85,20.37 C7.8674437,21.5313014 5.20407325,23.3857202 3.08,25.78 C1.59799576,27.448229 0.829615093,29.6312919 0.94,31.86 C0.977836003,32.2763178 1.0548435,32.6881405 1.17,33.09 C1.15973529,33.1529174 1.15973529,33.2170826 1.17,33.28 C1.014731,34.6365107 0.733517714,35.9756216 0.33,37.28 C-0.0999517464,38.8512542 0.127463148,40.5297927 0.96,41.93 C1.25611132,42.2610741 1.74500831,42.336541 2.12716837,42.110166 C2.50932843,41.8837909 2.6780643,41.4187708 2.53,41 C1.85708376,39.7483071 1.7657345,38.2647952 2.28,36.94 C2.36,36.63 2.45,36.32 2.53,36 C3.08045841,36.7948784 3.72142411,37.523096 4.44,38.17 C4.08284311,39.2366506 3.82835481,40.3349685 3.68,41.45 C3.41028706,43.1765884 4.09027983,44.9147722 5.46,46 C6.08601528,46.3908273 6.75772492,46.7031723 7.46,46.93 C7.75300441,47.444035 8.14366243,47.8958395 8.61,48.26 C9.11936833,48.6729045 9.67271182,49.0283858 10.26,49.32 C11.1587526,49.618207 12.0877356,49.816077 13.03,49.91 C13.2928917,50.2031793 13.6437802,50.4031858 14.03,50.48 C14.6227648,50.5765007 15.2272352,50.5765007 15.82,50.48 C17.9212866,50.0967503 20.0008528,49.6027281 22.05,49 C25.24,48.2 29.89,47.58 33.13,45.68 C35.6569407,44.4081721 37.2593466,41.8288777 37.28,39 C37.2905856,37.9306922 37.1423013,36.8657412 36.84,35.84 Z M23.31,29.78 C23.0085808,29.1551596 22.6504097,28.5593237 22.24,28 C24.671864,27.9126348 27.0845044,28.4606488 29.24,29.59 C27.2702185,29.2605563 25.2546519,29.325136 23.31,29.78 L23.31,29.78 Z M25.58,25.27 C26.4428622,25.7347901 27.2370946,26.3170029 27.94,27 C25.6327174,26.2163926 23.1769349,25.9701303 20.76,26.28 C20.2219794,25.7359047 19.6544566,25.2217958 19.06,24.74 C19.32,24.74 19.57,24.67 19.83,24.65 C21.766845,24.3121675 23.7596917,24.5270484 25.58,25.27 Z M14.58,21.21 C17.2441143,20.7121782 19.998082,21.229439 22.3,22.66 C21.4156541,22.6347025 20.5305918,22.6647612 19.65,22.75 C18.746405,22.8266467 17.8481578,22.9568758 16.96,23.14 C16.03,22.5 15.08,21.89 14.14,21.29 L14.58,21.21 Z M2.8,31.72 C2.73793955,29.981082 3.35888951,28.2869295 4.53,27 C6.44302793,24.8456873 8.84294512,23.1794591 11.53,22.14 L11.79,22.04 L14.63,23.82 C11.8831219,24.7678711 9.51106574,26.5688118 7.86,28.96 C6.72170502,30.5196263 5.85610326,32.2609736 5.3,34.11 C5.14219599,34.7322082 5.0219787,35.3633489 4.94,36 C3.78206089,34.8426778 3.03109432,33.3407446 2.8,31.72 Z M6.65,44.53 C5.77890366,43.8243739 5.35169398,42.7067629 5.53,41.6 C5.75231418,40.2413421 6.08679113,38.9034343 6.53,37.6 C6.8,36.6 6.83,35.6 7.1,34.6 C7.59612704,32.9456898 8.3742281,31.3894877 9.4,30 C11.12403,27.5285801 13.7101499,25.7914209 16.65,25.13 C17.3190947,25.6066326 17.963276,26.1173049 18.58,26.66 C16.6682621,27.1866367 14.8756883,28.0761336 13.3,29.28 C11.9812064,30.2318649 10.8347155,31.4020296 9.91,32.74 C8.51,34.94 8.4,37.27 7.91,39.74 C7.68,41.04 7.14,42.46 6.97,43.8 C6.95034129,44.1096883 6.95034129,44.4203117 6.97,44.73 C6.85533943,44.6770699 6.74782217,44.6098716 6.65,44.53 L6.65,44.53 Z M9.8,46.78 C8.97916235,46.1104899 8.61390828,45.0302704 8.86,44 C9.03,42.68 9.56,41.29 9.79,40 C10.18,37.79 10.21,35.68 11.47,33.69 C12.291749,32.5263602 13.3063602,31.511749 14.47,30.69 C16.1386916,29.4151765 18.0790137,28.5425448 20.14,28.14 C20.6891865,28.7834533 21.1623138,29.4881108 21.55,30.24 L21.41,30.24 C10.86,34.34 11.67,43.93 12.48,47.79 C12.0243777,47.7556029 11.5762699,47.654526 11.15,47.49 C10.6769821,47.2999534 10.2246308,47.0620502 9.8,46.78 Z M30.62,44.78 C27.7,45.99 24.16,46.49 21.62,47.13 C19.6485223,47.721899 17.6453707,48.2026553 15.62,48.57 C15.3294049,48.6211154 15.0350488,48.6478751 14.74,48.65 L14.57,48.65 C14,46.65 11.51,36.23 22.1,32.12 C24.5850741,31.1505265 27.3082265,30.968983 29.9,31.6 C31.2450312,31.9341381 32.4749465,32.6251017 33.46,33.6 L33.57,33.73 L33.67,33.81 C34.3038651,34.5423725 34.7591385,35.4118421 35,36.35 C35.2528353,37.1932487 35.3775603,38.069695 35.37,38.95 C35.35,42 33.23,43.7 30.62,44.78 L30.62,44.78 Z"/>
        <path id="Path" fill="#3C454E" d="M28.84 33.65C25.3411545 33.0453113 21.7731782 34.2446627 19.35 36.84 19.1747206 37.0128832 19.0760457 37.248806 19.0760457 37.495 19.0760457 37.741194 19.1747206 37.9771168 19.35 38.15 19.5245995 38.325876 19.7621747 38.4247901 20.01 38.4247901 20.2578253 38.4247901 20.4954005 38.325876 20.67 38.15 22.6637446 36.0029083 25.5962491 34.9904068 28.49 35.45 29.4890552 35.5718373 30.3953671 36.095404 31 36.9 31.4088322 37.5928701 31.5342253 38.416882 31.35 39.2 31.1614953 39.9759099 30.7796333 40.6914712 30.24 41.28 30.0184162 41.539335 29.9565868 41.8991652 30.0788943 42.2175909 30.2012017 42.5360166 30.4880165 42.7619324 30.8262327 42.8062479 31.1644489 42.8505634 31.4997847 42.7061664 31.7 42.43 32.4349768 41.6056182 32.9477751 40.6075544 33.19 39.53 33.4523523 38.2807313 33.2269535 36.9784273 32.56 35.89 31.6872119 34.6566151 30.3383978 33.844426 28.84 33.65L28.84 33.65zM21.57 43.91C20.6016372 44.265737 19.5383628 44.265737 18.57 43.91 17.896353 43.6675576 17.4809072 42.990381 17.57 42.28 17.5967949 41.947743 17.4442974 41.62643 17.1699519 41.4370964 16.8956064 41.2477628 16.5410924 41.219173 16.2399519 41.3620964 15.9388114 41.5050198 15.7367949 41.797743 15.71 42.13 15.45 45.3 18.71 46.78 22.14 45.65 22.628772 45.4898374 22.8951626 44.963772 22.735 44.475 22.5748374 43.986228 22.048772 43.7198374 21.56 43.88L21.57 43.91z"/>
      </g>
    </g>
  </g>
</svg>
