<svg xmlns="http://www.w3.org/2000/svg" width="64" height="64" viewBox="0 0 64 64" style="background:#fff">
  <g id="Schmand" fill="none" fill-rule="evenodd" stroke="none" stroke-width="1">
    <rect width="64" height="64" fill="#FFF"/>
    <g transform="translate(2 9)">
      <g id="Layer_2">
        <rect id="Rectangle" width="60" height="60" x="0" y="0"/>
      </g>
      <g id="Layer_1" fill-rule="nonzero" transform="translate(5 13)">
        <path id="Path" fill="#CCC" d="M44.11,10.94 C40.0732713,8.36593833 35.4987757,6.75442943 30.74,6.23 C29.48,6.12 25.95,6.34 25.46,6.05 C24.97,5.76 23.34,2.51 21.91,1.51 C20.48,0.51 19,0 17.46,0.73 L16.46,1.22 C13.71,2.56 12.38,6.45 12.59,10.09 C9.4,10.09 6.37,10.6 4.12,12.7 C2.3,14.41 2.19,18.2 3.67,20.13 C7.79,25.51 15.28,25.26 21.58,25.67 C28.7625815,26.1033333 35.9637095,26.1367182 43.15,25.77 C50.19,25.44 48.43,13.5 44.11,10.94 Z" opacity=".5"/>
        <path id="Path" fill="#31D4E0" d="M45,27.12 C38,27.95 31.45,29.39 24.34,29.12 C16.88,28.78 10.01,26.57 2.74,25.26 C0.87,24.92 0.97,28.04 2.19,28.77 C13.75,35.77 33.02,36.98 45.6,32.43 C47.41,31.72 47.19,26.85 45,27.12 Z" opacity=".5"/>
        <path id="Shape" fill="#3D454C" d="M49.91,17.45 C49.76,14.19 45.33,12.16 36.38,11.25 C36.1869503,10.9329138 35.9476464,10.6464231 35.67,10.4 C33.9,8.84 30.37,8.31 25.75,8.87 C25.2209927,6.66745943 25.1562867,4.37891213 25.56,2.15 C25.6535294,1.62540297 25.3192704,1.11961629 24.8,1 C24.2830141,0.877326555 23.7603607,1.18037769 23.61,1.69 C23.61,1.77 21.38,9.19 15.45,9.19 C12.9605662,9.08425736 10.5681143,10.1636426 9,12.1 C3.43,13.25 0.55,15.1 0.42,17.47 C-0.7,22.3 0.72,32.47 14,36.7 C14.087332,36.7832052 14.1676076,36.8735152 14.24,36.97 C14.535659,37.3755497 14.9469693,37.6822896 15.42,37.85 C15.78,37.94 16.15,38.05 16.56,38.18 C19.3387375,39.0820444 22.2491604,39.5113402 25.17,39.45 C27.9121822,39.5249128 30.6473206,39.1361106 33.26,38.3 C33.67,38.17 34.05,38.06 34.43,37.97 C34.9009989,37.8192429 35.3088683,37.516857 35.59,37.11 L35.8,36.87 C49.52,32.83 51,22.44 49.91,17.45 Z M15.45,11.19 C18.6667575,11.1211257 21.6326013,9.43709779 23.34,6.71 C23.3936469,8.61435381 24.0210224,10.4581406 25.14,12 C26.2344077,13.3244201 27.8830976,14.063743 29.6,14 C30.1522847,14 30.6,13.5522847 30.6,13 C30.6,12.4477153 30.1522847,12 29.6,12 C28.5045924,12.0634188 27.4414181,11.6167379 26.72,10.79 C31.99,10.26 33.88,11.5 34.35,11.91 C34.6637224,12.1480175 34.8515446,12.5162963 34.86,12.91 C34.86,15.18 29.86,15.52 26.91,15.52 C25.3922465,15.5261667 23.8799498,15.3379698 22.41,14.96 C22.0634524,14.8706836 21.6955794,14.9730328 21.4449553,15.2284936 C21.1943313,15.4839545 21.0990318,15.8537164 21.1949553,16.1984937 C21.2908789,16.5432709 21.5634524,16.8106836 21.91,16.9 C23.5435669,17.3182016 25.2237644,17.5265461 26.91,17.52 C29.3475057,17.6260233 31.7839384,17.2871592 34.1,16.52 C38.3,16.52 40.59,17.18 41.33,17.61 C40.33,18.27 36.16,19.47 25.16,19.47 C19.95,19.47 15.8,18.85 13.16,17.66 C11.26,16.8 10.2099653,15.66 10.2099653,14.57 C10.2,12.94 12.35,11.19 15.45,11.19 Z M8.21,14.33 C8.21,14.39 8.21,14.44 8.21,14.5 C8.21,15.64 8.75,17.8 12.34,19.41 C15.34,20.73 19.61,21.41 25.17,21.41 C29.6890362,21.5002209 34.207075,21.1856315 38.67,20.47 C41.99,19.81 43.53,18.88 43.53,17.54 C43.53,15.41 39.6,14.74 36.46,14.54 C36.6545349,14.158424 36.7798106,13.7453529 36.83,13.32 C43.83,14.1 47.94,15.69 47.94,17.64 C47.94,20.64 38.79,23.81 25.17,23.81 C11.27,23.8 2.4,20.14 2.4,17.63 C2.4,16.68 4,15.36 8.21,14.33 L8.21,14.33 Z M35.13,35 C34.6999109,35.1662006 34.3279279,35.4547481 34.06,35.83 L33.85,36.07 C33.47,36.16 33.08,36.28 32.66,36.41 C30.2391823,37.1903677 27.7022636,37.5489189 25.16,37.47 C22.4457863,37.5319848 19.7407301,37.132989 17.16,36.29 L16,35.93 C15.9084768,35.8448063 15.8216806,35.7546718 15.74,35.66 C15.4913147,35.2948328 15.144727,35.0071651 14.74,34.83 C4.11,31.45 2.28,24.63 2.15,20.74 C6,24 15.72,25.8 25.16,25.8 C34.44,25.8 44.26,24.25 48.16,20.92 C48,24.94 46,31.82 35.13,35 Z"/>
        <path id="Path" fill="#3D454C" d="M18.32,15.25 L18.45,15.25 C19.0022847,15.25 19.45,14.8022847 19.45,14.25 C19.45,13.6977153 19.0022847,13.25 18.45,13.25 L18.32,13.25 C17.7677153,13.25 17.32,13.6977153 17.32,14.25 C17.32,14.8022847 17.7677153,15.25 18.32,15.25 Z"/>
      </g>
    </g>
  </g>
</svg>
