<svg xmlns="http://www.w3.org/2000/svg" width="64" height="64" viewBox="0 0 64 64" style="background:#fff">
  <g id="Schnapper" fill="none" fill-rule="evenodd" stroke="none" stroke-width="1">
    <rect width="64" height="64" fill="#FFF"/>
    <g transform="translate(2 4)">
      <g id="Layer_2">
        <rect id="Rectangle" width="60" height="60" x="0" y="0"/>
      </g>
      <g id="Layer_1" fill-rule="nonzero" transform="translate(4 6)">
        <path id="Path" fill="#E0673A" d="M37.46 4.65C34.55 2.71 31.38 2.88 28 2.77 25.05 2.68 22.09 2.77 19.65 4.67 14.45 8.72 14.68 17.1 13.87 23 13.58 25.09 14.06 28.6 16.43 29.39 18.8 30.18 20.3 27.59 20.57 25.63 21.09 21.91 20.47 14.68 24.51 13.17 28.88 11.54 33.7 12.93 37.59 9.96 38.94 8.92 38.9 5.61 37.46 4.65zM14.5 33.11C12.96 32.47 10.8 33.5 9.3 33.93 7.08 34.56 4.88 35.07 3.01 36.48 1.49 37.63 1.41 42.48 3.72 42.91 5.34888378 43.1592511 7.01210032 43.0604124 8.6 42.62 8.18 44.9 8.81 47.69 10 48.93 13.14 52.21 15.72 47.43 15.68 44.48 15.68 45.18 15.62 44.99 15.83 44.39 15.97 43.96 16.07 43.51 16.18 43.07 16.4934323 41.952905 16.7174728 40.8126394 16.85 39.66 17.08 37.5 16.91 34.1 14.5 33.11zM43.44 21C43.12 20.08 41.98 19 40.92 19.52 40.2859105 19.8388779 39.7758276 20.3595142 39.47 21 38.9842106 21.8216208 38.6457839 22.7218358 38.47 23.66 38.28 25.31 38.58 27.46 40.13 28.41 40.6434822 28.7601515 41.3012727 28.8206379 41.87 28.57 42.6025103 28.148559 43.1542567 27.4722247 43.42 26.67 43.7275275 25.7002803 43.8761145 24.6871872 43.86 23.67 43.9042492 22.7606329 43.7612971 21.8518655 43.44 21zM29.11 34.43L29 34.26C28.6348503 33.6647433 27.9976878 33.2899419 27.3 33.26 26.3115196 33.4159532 25.3448562 33.6878273 24.42 34.07 24.04 34.21 23.69 34.35 23.32 34.52L22.59 34.87C22.21 34.87 22.12 34.99 22.31 35.1 19.64 35.66 18.95 38.84 19.44 41.19 19.83 43.06 22.07 46.13 24.1 43.92 24.6668222 43.3785488 25.2790688 42.8867441 25.93 42.45 26.56 41.97 27.14 41.45 27.73 40.89 28.4882911 40.2883709 29.086034 39.5085567 29.47 38.62 29.9717497 37.2383177 29.8400814 35.7058448 29.11 34.43z" opacity=".5"/>
        <path id="Shape" fill="#3D454C" d="M44.11,16.78 L44.2,16.62 C44.3,16.44 44.43,16.23 44.55,16.03 C44.5819946,16.0013025 44.6090256,15.9675137 44.63,15.93 C44.6390059,15.9110138 44.6390059,15.8889862 44.63,15.87 L44.74,15.7 C46.81,12.35 50.26,6.7 48.32,2.91 C46.69,-0.31 42.85,0.79 39.13,1.91 C37.41038,2.47312658 35.6322826,2.83881075 33.83,3 C32.2498728,2.94563623 30.6768333,3.23567605 29.22,3.85 C23.92,1.19 19.07,2.63 15.88,7.85 C11.94,14.31 11.58,24.41 14.94,27.85 C14.3185712,29.3681052 13.4464247,30.7709766 12.36,32 C11.3,33.11 10.03,33.3 8.27,33.56 C5.71209234,33.7973922 3.25752482,34.6855808 1.14,36.14 C0.595356063,36.505596 0.307853739,37.1505337 0.4,37.8 C0.53,38.92 1.65,39.97 3.57,40.8 C6.0831737,41.912244 8.09329781,43.9188041 9.21,46.43 C9.99,48.35 11.05,49.43 12.21,49.6100055 L12.41,49.6100055 C12.9812592,49.6114326 13.5163973,49.3307657 13.84,48.86 C15.1629288,46.9500414 16.0129545,44.7529992 16.32,42.45 C16.67,40.56 16.9,39.31 18.45,38.21 C18.65,38.06 18.88,37.94 19.09,37.8 C19.7458229,39.6547018 21.0253745,41.2240966 22.71,42.24 C23.501245,42.7329024 24.4083085,43.0088153 25.34,43.04 C25.908401,43.0392607 26.469197,42.9093202 26.98,42.66 C29.85,41.28 30.86,36.48 31.36,32.99 C31.3640025,32.9100501 31.3640025,32.8299499 31.36,32.75 C33.9108376,31.025041 36.1551436,28.8855144 38,26.42 C38.9221092,27.3905185 40.1665363,27.991399 41.5,28.11 C41.9694419,28.1113644 42.4311873,27.9907592 42.84,27.76 C45.38,26.33 45.32,21.11 44.2,16.86 C44.14,16.83 44.12,16.81 44.11,16.78 Z M39.7,3.78 C43.42,2.72 45.7,2.19 46.56,3.78 C47.89,6.41 45.22,11.09 43.45,13.98 C40.2054383,11.4640383 37.4872174,8.33468648 35.45,4.77 C36.8850165,4.52442858 38.3041817,4.19384657 39.7,3.78 Z M18.6,18.2 C18.5450842,18.2767798 18.5013164,18.3609485 18.47,18.45 L15.79,25.69 C13.9,22.45 14.28,14.29 17.58,8.88 C18.93,6.68 21.06,4.5 24.21,4.5 C25.1619546,4.50365392 26.1060212,4.67284147 27,5 L27,5 C26.5652986,5.31014272 26.1480005,5.64398116 25.75,6 L25.57,6.16 C25.19,6.51 24.83,6.88 24.49,7.26 L24.28,7.5 C23.94,7.89 23.62,8.29 23.28,8.71 L23.12,8.94 C22.81,9.37 22.52,9.81 22.24,10.26 C22.2226835,10.3001658 22.1990515,10.3373019 22.17,10.37 C21.9,10.82 21.64,11.29 21.39,11.76 L21.24,12.04 C21,12.5 20.77,12.97 20.55,13.43 L20.38,13.81 C20.17,14.27 19.96,14.73 19.77,15.2 L19.62,15.55 C19.44,15.99 19.26,16.43 19.09,16.87 C19.0551178,16.9097416 19.0249196,16.9533612 19,17 L19,17 L19,17 L18.6,18.2 Z M12.28,47.52 C11.7113341,47.0106928 11.2899757,46.3579326 11.06,45.63 C9.74597788,42.6203572 7.3415934,40.2195454 4.33,38.91 C3.60588577,38.6779773 2.95686314,38.2568031 2.45,37.69 C4.27822108,36.4836998 6.37807109,35.7516735 8.56,35.56 C10.1364,35.4626756 11.6631063,34.9709662 13,34.13 C14.4992809,34.7749616 15.6096842,36.0852374 16,37.67 C15.0374257,38.9446135 14.445662,40.460359 14.29,42.05 C14.0541213,44.0047426 13.3659188,45.8776122 12.28,47.52 L12.28,47.52 Z M26.07,40.83 C25.2627725,41.1313036 24.3575571,40.999293 23.67,40.48 C22.2938385,39.6360407 21.2759495,38.3156322 20.81,36.77 C22.3357116,35.9979871 23.9562479,35.4297907 25.63,35.08 C26.8333143,34.8517406 28.0072923,34.4894845 29.13,34 C28.44,37.86 27.42,40.18 26.07,40.83 L26.07,40.83 Z M25.22,33.13 C22.5169557,33.676715 19.9480642,34.7504845 17.66,36.29 C17.0548548,34.7385543 15.926448,33.4474304 14.47,32.64 C16.34,30.28 17.86,26.47 20.89,17.78 L20.89,17.73 C21.13,17.13 21.37,16.53 21.62,15.93 L21.62,15.87 L22,15 L22.09,14.81 C22.2,14.58 22.3,14.34 22.41,14.11 C22.52,13.88 22.55,13.84 22.61,13.7 L22.85,13.23 C22.92,13.09 22.99,12.95 23.07,12.81 C24.0477463,13.5188995 24.9673345,14.3047294 25.82,15.16 C26.0087188,15.3471865 26.264197,15.4515368 26.53,15.45 C26.7923399,15.4488954 27.0437394,15.3447442 27.23,15.16 C27.6177236,14.7699625 27.6177236,14.1400375 27.23,13.75 C26.2589999,12.7638908 25.2014207,11.8669566 24.07,11.07 L24.22,10.84 L24.29,10.71 C24.46,10.46 24.63,10.21 24.81,9.97 L24.81,9.97 C25.3280614,9.25480966 25.9068753,8.58566058 26.54,7.97 C27.6087797,8.73191447 28.6122479,9.58151748 29.54,10.51 C29.7270714,10.7008556 29.9827541,10.8088906 30.25,10.81 C30.5123399,10.8088954 30.7637394,10.7047442 30.95,10.52 C31.1393127,10.3322334 31.2457983,10.0766375 31.2457983,9.81 C31.2457983,9.54336246 31.1393127,9.2877666 30.95,9.1 C30.0667735,8.21561433 29.1173508,7.39991314 28.11,6.66 C28.5604336,6.3516979 29.0353534,6.08079291 29.53,5.85 L29.53,5.85 C30.6978518,5.27154076 31.986889,4.98013608 33.29,5 C35.5237244,9.19321021 38.6342283,12.8562378 42.41,15.74 C34.93,29.67 29,32.34 25.22,33.13 Z M41.81,26 C41.28,26.3 40.31,25.86 39.16,24.8 C40.28,23.24 41.44,21.45 42.65,19.38 C43.21,22.83 42.76,25.48 41.81,26 Z"/>
        <path id="Path" fill="#3D454C" d="M41.84,6.9 C42.3922847,6.9 42.84,6.45228475 42.84,5.9 C42.84,5.34771525 42.3922847,4.9 41.84,4.9 C41.2877153,4.9 40.84,5.34771525 40.84,5.9 C40.84,6.45228475 41.2877153,6.9 41.84,6.9 Z"/>
      </g>
    </g>
  </g>
</svg>
