<svg xmlns="http://www.w3.org/2000/svg" width="64" height="64" viewBox="0 0 64 64" style="background:#fff">
  <g id="Schnittlauch" fill="none" fill-rule="evenodd" stroke="none" stroke-width="1">
    <rect width="64" height="64" fill="#FFF"/>
    <g id="16-Schnittlauch" transform="translate(2 8)">
      <g id="Layer_2">
        <rect id="Rectangle" width="60" height="60" x="0" y="0"/>
      </g>
      <g id="Layer_1" transform="translate(9 8)">
        <path id="Path" fill="#3CDE88" fill-opacity=".5" d="M24.54,1.83 C26.3582686,0.296199038 28.8450957,-0.177662831 31.1,0.58 C32.7299766,1.12128448 34.0878283,2.27133834 34.89,3.79 C37.0960512,3.58816106 39.2615788,4.47677409 40.69,6.17 C42.7665259,8.64167658 42.7325721,12.2577516 40.61,14.69 C41.10494,16.0874712 41.10494,17.6125288 40.61,19.01 C42.1576856,20.7303665 42.6861891,23.1380804 42.001328,25.3485005 C41.3164668,27.5589206 39.5192462,29.2460483 37.27,29.79 C34.6515074,30.4848906 32.0905658,31.3808859 29.61,32.47 C27,33.61 24.41,34.9 21.9,36.26 C19.9544421,37.308901 17.6212078,37.3499004 15.64,36.37 C15.255408,36.3121991 14.8770847,36.2184552 14.51,36.09 C13.6939025,36.0689549 12.8880394,35.9030419 12.13,35.6 C10.4990991,34.9509521 9.19452768,33.6780756 8.50557162,32.0636282 C7.81661556,30.4491807 7.80021258,28.6265859 8.46,27 C9.04,25.61 9.58,24.22 10.05,22.81 C10.498853,21.5006419 10.8662222,20.1647538 11.15,18.81 L12.88,7.68 C13.4518871,5.03970857 15.5535095,3.00117423 18.21,2.51 C19.4364474,1.69994831 20.8929191,1.31038599 22.36,1.4 C23.1091003,1.4464664 23.8455241,1.61537095 24.54,1.9 L24.54,1.83 Z"/>
        <path id="Path" fill="#3D454C" fill-rule="nonzero" d="M39.78,20.11 L39.09,20.37 C35.4232081,21.6872534 31.8428189,23.2336341 28.37,25 C25.8604437,26.2922311 23.5500635,27.9391348 21.51,29.89 L20.71,30.66 C20.19,31.15 19.71,31.66 19.19,32.17 C18.6592586,32.7186619 18.171174,33.3070379 17.73,33.93 C16.9105517,35.2352727 16.3251079,36.6735017 16,38.18 C15.7499364,39.1831331 15.4154089,40.1632988 15,41.11 C14.7647554,41.6037533 14.4655165,42.0643795 14.11,42.48 C14.0029296,42.6152855 13.8823019,42.7392641 13.75,42.85 C13.6199813,42.9587824 13.4830256,43.0589938 13.34,43.15 C12.8177829,43.5472649 12.1339201,43.6631105 11.51,43.46 C10.9476328,43.2036297 10.4361124,42.8479368 10,42.41 C11.3404878,40.8839742 12.5734501,39.2667554 13.69,37.57 C14.06,36.94 14.53,36.22 15.05,35.5 C15.57,34.78 16.05,34.08 16.56,33.5 C17.3849857,32.5317255 18.2771967,31.6228064 19.23,30.78 C20.41,29.71 21.69,28.7 22.93,27.78 C24.17,26.86 25.22,26 26.34,25 C27.21,24.24 28.08,23.44 28.94,22.64 C30.44,21.25 32,19.81 33.63,18.55 C35.2522191,17.2293081 37.062068,16.157554 39,15.37 C39.2304009,15.2896026 39.4157992,15.11511 39.51,14.89 C39.6044584,14.6662264 39.6044584,14.4137736 39.51,14.19 C39.4234947,13.963366 39.2509802,13.7800693 39.03,13.68 C38.8053683,13.5898806 38.5546317,13.5898806 38.33,13.68 C36.2242303,14.5254843 34.2533877,15.6743003 32.48,17.09 C30.8,18.38 29.22,19.85 27.69,21.26 C26.83,22.06 25.97,22.85 25.1,23.61 C24,24.61 22.84,25.49 21.72,26.37 C20.6,27.25 19.18,28.37 17.97,29.45 C16.9543148,30.3569845 16.0020772,31.3326104 15.12,32.37 C14.62,32.97 14.12,33.69 13.52,34.45 C12.92,35.21 12.5,36 12.11,36.63 C11.5222988,37.5653024 10.877754,38.4636574 10.18,39.32 C9.30068188,40.4545321 8.359242,41.5395249 7.36,42.57 L7.29,42.49 C7.00524912,42.1741599 6.74135797,41.8401205 6.5,41.49 C6.29107027,41.1838952 6.06048008,40.8931511 5.81,40.62 C5.50494894,40.3681424 5.16887812,40.1564178 4.81,39.99 C4.47698835,39.8487059 4.16424675,39.6637511 3.88,39.44 C3.82,39.39 3.79,39.36 3.88,39.19 C4.23838776,38.5765114 4.71410951,38.0396254 5.28,37.61 C5.94243831,37.0884674 6.6335167,36.6043787 7.35,36.16 C7.69,35.94 8.01,35.74 8.35,35.53 C9.14,34.99 9.95,34.38 10.82,33.68 C12,32.73 13.14,31.68 14.3,30.68 C16.06,29.12 21.3,22.18 25.54,15.23 C27.81,11.57 30.63,6.59 31.19,3.68 C31.2868902,3.34427077 31.1852211,2.98263286 30.9275814,2.74657443 C30.6699416,2.51051601 30.3008114,2.44079142 29.9748175,2.56660794 C29.6488236,2.69242445 29.4222472,2.99206043 29.39,3.34 C28.99,5.42 27.12,9.21 23.99,14.27 C19.75,21 14.63,27.89 13,29.34 C11.86,30.34 10.74,31.34 9.59,32.26 C8.76,32.94 7.98,33.52 7.23,34.04 L6.31,34.64 C5.53833654,35.1170593 4.79692086,35.6413938 4.09,36.21 C3.87,36.38 3.67,36.56 3.49,36.73 C2.85597858,36.2099725 2.3897872,35.5141644 2.15,34.73 C2.07051625,34.3532314 2.21442236,33.9642959 2.52,33.73 C2.84543895,33.4449817 3.21315039,33.2122102 3.61,33.04 C3.97,32.86 4.35,32.71 4.72,32.56 C5.09,32.41 5.42,32.28 5.72,32.13 C6.87391197,31.5633331 7.98961579,30.9219704 9.06,30.21 C10.7,29.13 12.34,27.9 13.65,26.92 C16.2100566,25.0353666 18.2391049,22.520587 19.54,19.62 C20.8509733,16.4376556 21.8230054,13.1260426 22.44,9.74 C22.68,8.67 22.93,7.57 23.2,6.44 C23.2474919,6.20425544 23.2084398,5.95929168 23.09,5.75 C22.9651125,5.54017035 22.7586547,5.39166561 22.52,5.34 C22.028754,5.22038366 21.5330378,5.51959979 21.41,6.01 C21.14,7.15 20.9,8.27 20.66,9.35 C20.0762673,12.6210385 19.1512113,15.8218663 17.9,18.9 C16.7099635,21.535041 14.8603895,23.8185933 12.53,25.53 C11.24,26.53 9.65,27.68 8.08,28.71 C7.09719885,29.3820924 6.06794771,29.9836028 5,30.51 C4.68,30.66 4.35,30.79 4,30.93 C3.46919523,31.1268275 2.9514786,31.3572949 2.45,31.62 C2.0426431,31.8375678 1.66036043,32.0991297 1.31,32.4 C0.507714617,33.0646109 0.148024087,34.1243442 0.38,35.14 C0.740164489,36.313489 1.43530422,37.3561986 2.38,38.14 L2.26,38.34 C1.88536547,38.954035 1.88536547,39.725965 2.26,40.34 C2.55086619,40.7667647 2.94698039,41.1112118 3.41,41.34 L3.88,41.58 C4.13167956,41.6847306 4.37001819,41.8190059 4.59,41.98 C4.7965138,42.2099756 4.98696333,42.4538847 5.16,42.71 C5.4199496,43.072393 5.7004073,43.4196264 6,43.75 C6.35126961,44.169842 6.8340077,44.4587801 7.37,44.57 L7.47,44.57 C7.76793733,44.5557458 8.05276563,44.4432211 8.28,44.25 C8.43,44.13 8.61,43.95 8.81,43.76 C9.58117401,44.5526561 10.5632234,45.1078784 11.64,45.36 C11.816353,45.3748888 11.993647,45.3748888 12.17,45.36 C12.9550585,45.3410987 13.7183638,45.0982288 14.37,44.66 C14.5903647,44.5213903 14.8008681,44.3676894 15,44.2 C15.1980304,44.0319777 15.3819777,43.8480304 15.55,43.65 C16.0181999,43.1066455 16.408602,42.5008491 16.71,41.85 C17.130699,40.8812735 17.4653233,39.8774006 17.71,38.85 C17.9948011,37.489794 18.5087916,36.1879102 19.23,35 C19.617761,34.4495931 20.0491511,33.9312563 20.52,33.45 C20.99,32.95 21.52,32.45 21.99,31.99 L22.79,31.21 C24.7100255,29.3856095 26.8822188,27.8465516 29.24,26.64 C32.6240636,24.9004622 36.1181732,23.3838984 39.7,22.1 L40.43,21.82 C40.6604009,21.7396026 40.8457992,21.56511 40.94,21.34 C41.0344584,21.1162264 41.0344584,20.8637736 40.94,20.64 C40.758382,20.1805078 40.2462529,19.9465178 39.78,20.11 Z"/>
        <path id="Path" fill="#3D454C" fill-rule="nonzero" d="M43.05 4.43C42.7834665 4.00120805 42.2211679 3.86732744 41.79 4.13 39.295244 5.65826896 36.9034408 7.3485656 34.63 9.19 32.3603912 11.0329489 30.1937903 12.9992477 28.14 15.08 27.06 16.17 26.4 16.87 25.87 17.48 25.34 18.09 25.15 18.36 24.72 18.92 24.29 19.48 23.72 20.21 22.83 21.31 22.6788189 21.5026059 22.6116338 21.748009 22.6436246 21.9907627 22.6756153 22.2335163 22.8040825 22.4531358 23 22.6 23.1595655 22.7333973 23.3620668 22.8044504 23.57 22.8 23.8469908 22.8047416 24.110044 22.6787724 24.28 22.46L24.28 22.46C25.18 21.36 25.74 20.63 26.18 20.07 26.62 19.51 26.9 19.13 27.29 18.67 27.68 18.21 28.39 17.46 29.47 16.36 31.478946 14.3344367 33.5953332 12.4183385 35.81 10.62 38.0303833 8.82187575 40.3689746 7.17483936 42.81 5.69 43.009139 5.55826674 43.1545709 5.35962798 43.22 5.13 43.2620291 4.88321622 43.200538 4.6300175 43.05 4.43zM40 27.65C37.1008051 27.8246359 34.2228399 28.2563307 31.4 28.94 28.5687169 29.7947982 25.9014718 31.1199694 23.51 32.86 23.308907 32.995901 23.1704356 33.2065031 23.1253671 33.4449906 23.0802986 33.6834782 23.1323677 33.9300879 23.27 34.13 23.4125951 34.3275278 23.6223931 34.4662079 23.86 34.5200619L24.03 34.5200619C24.2126793 34.5221909 24.39131 34.4661499 24.54 34.36 26.7685447 32.7383126 29.2528909 31.5012097 31.89 30.7 34.6113853 30.0449474 37.3856563 29.6333246 40.18 29.47 40.4225 29.4474 40.6458207 29.3285357 40.8 29.14 40.9451174 28.9480093 41.016128 28.7101237 41 28.47 40.9774 28.2275 40.8585357 28.0041793 40.67 27.85 40.4780093 27.7048826 40.2401237 27.633872 40 27.65L40 27.65zM10.82 23.360131C11.0998077 23.3647697 11.3659128 23.239109 11.54 23.02L11.54 23.02C13.6747925 20.4971591 15.3961549 17.6518483 16.64 14.59 17.7261149 11.4863836 18.4541671 8.26886271 18.81 5 18.8514432 4.50351313 18.4942703 4.06255893 18 4 17.5105458 3.94666541 17.0674386 4.29228902 17 4.78 16.6612028 7.90221997 15.9666967 10.9754931 14.93 13.94 13.7490316 16.824938 12.1188612 19.5047626 10.1 21.88 9.79288685 22.276267 9.85959078 22.8454739 10.25 23.16 10.4104503 23.2918332 10.6123534 23.3626764 10.82 23.360131L10.82 23.360131zM23.08 3.82C23.5991477 3.82 24.02 3.39914766 24.02 2.88 24.02 2.36085234 23.5991477 1.94 23.08 1.94 22.5608523 1.94 22.14 2.36085234 22.14 2.88 22.14 3.39914766 22.5608523 3.82 23.08 3.82z"/>
      </g>
    </g>
  </g>
</svg>
