<svg xmlns="http://www.w3.org/2000/svg" width="64" height="64" viewBox="0 0 64 64" style="background:#fff">
  <g id="Scholle" fill="none" fill-rule="evenodd" stroke="none" stroke-width="1">
    <rect width="64" height="64" fill="#FFF"/>
    <g transform="translate(2 4)">
      <g id="Layer_2">
        <rect id="Rectangle" width="60" height="60" x="0" y="0"/>
      </g>
      <g id="Layer_1" fill-rule="nonzero" transform="translate(3 9)">
        <path id="Path" fill="#BAB41D" d="M35.26,9.12 C31.55,7.87 27.02,10.46 24.54,13.12 C21.45,16.47 19.31,21 20,25.59 C20.28,27.52 22.95,29.72 24.21,27.16 C25.47,24.6 25.88,21.93 27.96,19.68 C30.04,17.43 32.83,16.48 35.41,14.75 C37,13.7 37.49,9.87 35.26,9.12 Z" opacity=".5"/>
        <path id="Path" fill="#E0673A" d="M37.4 1.94C32.01-1.86 24.34.78 19.84 4.94 15.15 9.21 12 16.8 13.53 23.15 14.31 26.36 17.59 26.43 18.14 23.03 19 18 19.56 13.73 24 10.43 28 7.43 32.58 7.8 37.1 6.43 38.67 5.94 38.54 2.74 37.4 1.94zM35.68 26.14C32.16 25.2 30.55 29.14 27.86 30.77 24.34 32.77 20.48 29.64 16.67 30.38 14.82 30.74 14.36 34.82 16.35 35.27 20.19 36.15 24.14 39.38 28.23 38.71 31.23 38.22 35.37 34.29 36.8 31.78 37.62 30.35 37.83 26.71 35.68 26.14zM13.47 34.05C12.9769723 33.8899868 12.4362701 33.9958586 12.04 34.33 10.6629174 34.2085144 9.27546259 34.3649431 7.96 34.79L3.36 35.79C.18 36.46-.45 42.14 2.11 43.95 3.78 45.13 5.48 46.26 7.17 47.41 8.68 48.41 10.57 50.26 12.45 49.09 14.33 47.92 14.27 45.57 14.45 43.64 14.64 41.42 14.98 39.24 15.03 37 15 36 14.53 34.43 13.47 34.05z" opacity=".5"/>
        <path id="Path" fill="#3D454C" d="M39,7.32 C39.3459242,7.66640886 39.8664996,7.77024193 40.3188536,7.58305625 C40.7712076,7.39587057 41.066198,6.9545535 41.066198,6.465 C41.066198,5.9754465 40.7712076,5.53412943 40.3188536,5.34694375 C39.8664996,5.15975807 39.3459242,5.26359114 39,5.61 C38.528264,6.08239699 38.528264,6.84760301 39,7.32 Z"/>
        <circle id="Oval" cx="25.52" cy="15.8" r="1.21" fill="#3D454C"/>
        <circle id="Oval" cx="25.14" cy="23.54" r="1.21" fill="#3D454C"/>
        <circle id="Oval" cx="33.44" cy="22.77" r="1.21" fill="#3D454C"/>
        <path id="Shape" fill="#3D454C" d="M48.3,3.76 C48.3579177,2.78265427 48.0096291,1.82477896 47.3374945,1.11288421 C46.6653598,0.400989469 45.7290588,-0.00171460589 44.75,-5.45294302e-06 L44.54,-5.45294302e-06 C42.6304137,0.118106935 40.7300559,0.355234188 38.85,0.71 C31.46,0.65 23.05,-0.23 17.7,5.99999455 C13.27,11.13 12.84,18.2 14.2,24.52 C13.5918853,27.3480041 13.2570121,30.2279142 13.2,33.12 L1.49,36.33 C1.14750833,36.4251627 0.881277698,36.6949847 0.790712529,37.0387207 C0.70014736,37.3824566 0.798862511,37.748432 1.05,37.9999945 C5.05,41.38 8.44,45.32 12.4,48.7 C12.6848091,48.9871614 13.114552,49.0744903 13.4888524,48.9212679 C13.8631528,48.7680455 14.1083042,48.4044441 14.11,47.9999945 C14.66,43.71 15.31,39.42 15.57,35.1 L15.57,35.1 C18.09,35.95 20.63,36.74 23.16,37.56 C25.08,38.19 27.56,39.63 29.68,39.02 C30.98,38.64 31.68,37.53 32.5,36.52 C34.79,33.52 36.64,30.14 38.68,26.96 C38.94,26.72 39.21,26.47 39.46,26.22 C40.530783,25.1427737 41.49834,23.9676439 42.35,22.71 L42.35,24.32 C42.35,24.8722847 42.7977153,25.32 43.35,25.32 C43.9022847,25.32 44.35,24.8722847 44.35,24.32 L44.35,19.25 C44.44,19.07 44.55,18.91 44.63,18.72 C46.759918,14.0004241 48.0039318,8.9294575 48.3,3.76 Z M44.68,2.31987885 L44.76,2.31987885 C45.0822328,2.31540492 45.3925512,2.4416973 45.62,2.67 C45.8735642,2.91851462 46.0051872,3.26585327 45.98,3.62 C45.7275406,7.93143789 44.7995696,12.1764836 43.23,16.2 L32.1,5.07 C36.1223073,3.49643458 40.3679936,2.56832352 44.68,2.31987885 Z M19.33,7.24 C22.73,3.52 27.33,2.73 31.96,2.63 C31.17,2.93 30.37,3.26 29.58,3.63 C27.8138426,4.45396762 26.1381631,5.45937532 24.58,6.63 C23.7017541,7.29242454 22.8698151,8.0141066 22.09,8.79 C20.9722413,9.92300496 19.9674977,11.1621888 19.09,12.49 C17.8392761,14.368395 16.8028186,16.3809337 16,18.49 C15.84,18.89 15.72,19.31 15.58,19.73 C15.28,15.25 16.2,10.67 19.33,7.24 Z M13.57,35.06 C13.35,38.72 12.86,42.35 12.38,45.98 C9.45,43.31 6.71,40.44 3.77,37.77 L13.57,35.06 Z M26.31,36.49 C24.2305765,36.0723179 22.1900299,35.4802249 20.21,34.72 C21.36,34.56 22.63,34.36 23.99,34.06 C25.9608101,33.634267 27.8963909,33.0592758 29.78,32.34 C31.497595,31.6756471 33.1538876,30.862558 34.73,29.91 C32.59,33.53 29.92,37.13 26.31,36.49 L26.31,36.49 Z M37.84,24.57 C35.298083,27.0391402 32.2659892,28.9469745 28.94,30.17 C27.1675744,30.8515665 25.3455878,31.3964909 23.49,31.8 C20.8592998,32.3759657 18.1815317,32.7106867 15.49,32.8 C15.575422,30.1081626 15.9101875,27.4300386 16.49,24.8 C16.8854732,22.9434651 17.4271621,21.1211164 18.11,19.35 C18.8618458,17.4004896 19.8313146,15.5420616 21,13.81 C22.3552941,11.7707 24.0458121,9.9753699 26,8.5 C27.2106796,7.58380769 28.5027453,6.78045078 29.86,6.1 L42.21,18.46 C41.0830743,20.7134204 39.6083476,22.775338 37.84,24.57 L37.84,24.57 Z"/>
      </g>
    </g>
  </g>
</svg>
