<svg xmlns="http://www.w3.org/2000/svg" width="64" height="64" viewBox="0 0 64 64" style="background:#fff">
  <g id="Schokolade-(dunkel)" fill="none" fill-rule="evenodd" stroke="none" stroke-width="1">
    <rect width="64" height="64" fill="#FFF"/>
    <g transform="translate(2 4)">
      <g id="Layer_2">
        <rect id="Rectangle" width="60" height="60" x="0" y="0"/>
      </g>
      <g id="Layer_1" fill-rule="nonzero" transform="translate(9 4)">
        <path id="Path" fill="#CCC" d="M42.29 20.94C36.96 17.57 30.98 20.18 26.29 23.56 20.94 27.38 14.82 33.16 11.29 38.66 9.86 40.85 10.47 48.02 14.49 46.47 19.49 44.53 23.06 38.7 27 35.17 31.63 31.02 36.61 30.28 42 27.76 44 26.77 44.3 22.22 42.29 20.94zM14.4 26.36C13 24.61 11 23.65 9 22.52 8.11 21.99 7.19 21.52 6.32 20.94 5.45 20.36 6.11 20.94 6.63 20.71 6.97 20.57 7.54 19.78 7.76 19.54 8.64 18.54 8.61 14.93 6.59 15.68 3.18 16.96 1.26 21.05 3.21 24.36 4.21 26.02 6.09 26.86 7.67 27.84 9.46 28.94 11.19 30.35 13.32 30.62 15.19 30.85 15.16 27.26 14.4 26.36z" opacity=".5"/>
        <path id="Path" fill="#483318" d="M33.31,3.89 C26.8317224,2.04422728 20.1522855,0.99647247 13.42,0.77 C11.86,-0.07 9.97,0.53 9.2,2.77 C8.16116786,4.43059939 7.61340235,6.35124554 7.62,8.31 C7.2922837,9.13094912 7.031435,9.97703531 6.84,10.84 C6.22879531,13.4383177 6.20147259,16.1398519 6.76,18.75 C7.27900111,20.9464157 8.46699605,22.9275719 10.16,24.42 C11.01,25.13 13.16,25.87 13.69,26.78 C14.59,28.32 17.04,29.78 18.79,28.69 C23.79,25.69 28.79,22.54 33.69,19.43 C38,16.71 39.51,5.6 33.31,3.89 Z" opacity=".5"/>
        <path id="Path" fill="#3D454C" d="M26.31 13C26.3695929 13.0098848 26.4304071 13.0098848 26.49 13 26.9790037 13.0079763 27.4020327 12.6610925 27.49 12.18L28.1 8.79C28.1973173 8.24921153 27.8400738 7.73120844 27.3 7.63 27.0386931 7.58031989 26.7683605 7.63679061 26.548793 7.78692224 26.3292255 7.93705387 26.1785168 8.16847463 26.13 8.43L25.53 11.82C25.4769015 12.0799175 25.5292575 12.3502825 25.6755449 12.571589 25.8218322 12.7928955 26.0500613 12.9470054 26.31 13L26.31 13zM17.62 11.67L17.8 11.67C18.2890037 11.6779763 18.7120327 11.3310925 18.8 10.85L19.46 7.23C19.5094742 6.96723401 19.4516566 6.69559897 19.2994596 6.47575877 19.1472625 6.25591857 18.9133639 6.10618577 18.65 6.06 18.3887475 6.01347003 18.1197132 6.07268746 17.9021427 6.22461172 17.6845721 6.37653599 17.5363079 6.608708 17.49 6.87L16.84 10.5C16.7356068 11.0378195 17.0834 11.5595093 17.62 11.67zM18.51 14.19C18.4126827 14.7307885 18.7699262 15.2487916 19.31 15.35L23.31 16.07 23.49 16.07C23.8472656 16.1021539 24.1945465 15.9412664 24.4010254 15.6479423 24.6075043 15.3546182 24.6418121 14.9734203 24.4910254 14.6479423 24.3402387 14.3224643 24.0272656 14.1021539 23.67 14.07L19.67 13.35C19.4042986 13.303992 19.1312775 13.3672397 18.9128724 13.5253952 18.6944672 13.6835506 18.549191 13.9232079 18.51 14.19L18.51 14.19zM26.81 15.68C26.7126827 16.2207885 27.0699262 16.7387916 27.61 16.84L30.55 17.37 30.73 17.37C31.2822847 17.4197056 31.7702944 17.0122847 31.82 16.46 31.8697056 15.9077153 31.4622847 15.4197056 30.91 15.37L28 14.88C27.735716 14.8243453 27.4601576 14.8779577 27.2360183 15.0286396 27.0118789 15.1793216 26.8582196 15.4142589 26.81 15.68zM12.41 14.11L15.24 14.62 15.42 14.62C15.9722847 14.6669442 16.4580558 14.2572847 16.505 13.705 16.5519442 13.1527153 16.1422847 12.6669442 15.59 12.62L12.77 12.12C12.2177153 12.0205887 11.6894113 12.3877153 11.59 12.94 11.4905887 13.4922847 11.8577153 14.0205887 12.41 14.12L12.41 14.11zM23.61 22.25C23.56347 22.5112525 23.6226875 22.7802868 23.7746117 22.9978573 23.926536 23.2154279 24.158708 23.3636921 24.42 23.41L24.6 23.41C25.0921797 23.4171559 25.5163726 23.0650758 25.6 22.58L26.18 19.37C26.22653 19.1087475 26.1673125 18.8397132 26.0153883 18.6221427 25.863464 18.4045721 25.631292 18.2563079 25.37 18.21 25.1087475 18.16347 24.8397132 18.2226875 24.6221427 18.3746117 24.4045721 18.526536 24.2563079 18.758708 24.21 19.02L23.61 22.25zM15.54 17.49L14.93 20.91C14.88347 21.1712525 14.9426875 21.4402868 15.0946117 21.6578573 15.246536 21.8754279 15.478708 22.0236921 15.74 22.07L15.92 22.07C16.4090037 22.0779763 16.8320327 21.7310925 16.92 21.25L17.53 17.83C17.5925215 17.4727344 17.4596948 17.1092526 17.1815545 16.8764746 16.9034141 16.6436966 16.5222163 16.5769869 16.1815544 16.7014745 15.8408926 16.8259622 15.5925215 17.1227344 15.53 17.48L15.54 17.49z"/>
        <path id="Shape" fill="#3D454C" d="M35.25,18 C35.2203456,17.6825096 35.1064185,17.3787039 34.92,17.12 C35.3170148,16.8615793 35.5997723,16.460708 35.71,16 L37.29,7.16 C37.3916691,6.66692534 37.2868609,6.15372698 37,5.74 C36.7219052,5.34498107 36.2966987,5.07832612 35.82,5 L29.16,3.8 C28.7522556,3.75101138 28.3404991,3.85040088 28,4.08 C27.7608627,3.74081875 27.4046459,3.50215346 27,3.41 L20.27,2.19 C19.8660948,2.14716427 19.4605009,2.25389951 19.13,2.49 C18.8906166,2.14909978 18.5350306,1.9073013 18.13,1.81 L11.5,0.62 C10.5093842,0.443884698 9.56239758,1.10052162 9.38,2.09 L7.79,10.94 C7.70771374,11.4274478 7.82285687,11.9276007 8.11,12.33 C7.69845365,12.6035562 7.41665044,13.0334868 7.33,13.52 L7.05,15.06 C4.18,15.41 1.72,18.64 1.28,21.75 C0.93,24.19 2,26 4,26.6 L0.92,44 C0.734883531,45.026097 0.965110101,46.0837003 1.56,46.94 C1.78878884,47.2602692 2.06533599,47.5435614 2.38,47.78 L2.54,47.91 C3.00600004,48.2404984 3.53829973,48.4657021 4.1,48.57 L26.31,52.57 C26.5445699,52.6098388 26.7820711,52.63 27.02,52.63 C28.919454,52.6216474 30.5425487,51.259257 30.88,49.39 L34.6,28.67 C37.1759562,27.5070059 39.8093526,26.4756758 42.49,25.58 C42.9641231,25.4234239 43.2500953,24.9411127 43.16,24.45 C42.2939645,20.7532108 39.0454435,18.1042904 35.25,18 Z M10.17,12.7 C10.2683419,12.1700388 10.1253722,11.6238213 9.78,11.21 L11.32,2.62 L17.57,3.74 L17.77,4 C18.2500649,4.66124021 19.1629997,4.83241547 19.85,4.39 L20.16,4.2 L26.46,5.34 C26.5380348,5.42606477 26.6114704,5.51619025 26.68,5.61 C27.1670103,6.27168669 28.0896746,6.43061451 28.77,5.97 L29.05,5.8 L35.29,6.92 L33.75,15.51 C33.2830947,15.779361 32.9577853,16.2399114 32.86,16.77 C32.7658223,17.3014073 32.9123453,17.8472055 33.26,18.26 L33.26,18.43 C33.2549803,18.4698425 33.2549803,18.5101575 33.26,18.55 C28.0993828,22.1338053 23.3209237,26.2387229 19,30.8 C18.16,29.39 16,26.5 11.05,23.43 C8.19,21.65 8.2,20 8.5,18.31 L9.28,14 C9.75656262,13.7220125 10.0832357,13.2448495 10.17,12.7 Z M3.26,22 C3.55772408,19.9393707 4.8259946,18.1466834 6.67,17.18 L6.54,17.89 L6.54,17.89 L6.54,17.89 L6.46,18.35 C6.46,18.35 6.46,18.4 6.46,18.42 C6.19,20.54 6.55,22.92 10,25.06 C11.6805536,26.0830616 13.2491388,27.2796106 14.68,28.63 C11.7595528,26.6121249 8.42486877,25.2727846 4.92,24.71 C3.59,24.53 3,23.61 3.26,22 Z M2.89,44.29 L6,27 C12.71,28.59 15.79,32.1 16.69,33.35 C14.5516861,35.8193792 12.621745,38.4617597 10.92,41.25 C10.4722104,41.9504059 10.6040083,42.8729915 11.23,43.42 C6.23,43.42 3.94,44.06 2.89,44.69 C2.87653846,44.567034 2.87653846,44.442966 2.89,44.32 L2.89,44.29 Z M4.45,46.54 C4.26920109,46.5042456 4.09421188,46.4436725 3.93,46.36 C4.99,45.55 10.82,45.25 16.86,45.73 C21.06,47.29 26.49,49.37 27.43,50.51 C27.1789952,50.5585758 26.9210048,50.5585758 26.67,50.51 L4.45,46.54 Z M29.05,29.08 C28.5501823,29.3423353 28.3576647,29.9601823 28.62,30.46 C28.8823353,30.9598177 29.5001823,31.1523353 30,30.89 C30.8,30.48 31.61,30.09 32.41,29.7 L28.92,49 L28.86,49.2 C27.43,47.68 23.59,46.13 16.45,43.48 C15.26,43.04 14.06,42.6 12.89,42.15 C15.9839876,39.5552356 19.2626405,37.1889907 22.7,35.07 C23.0036758,34.8806492 23.1832663,34.5436728 23.1711216,34.1860065 C23.1589769,33.8283402 22.9569421,33.504322 22.6411216,33.3360065 C22.3253012,33.167691 21.9436758,33.1806492 21.64,33.37 C19.64,34.63 17.89,35.81 16.43,36.87 C21.6893468,30.4160573 27.8332736,24.7367123 34.68,20 C38.86,20.12 40.42,22.66 40.95,24 C36.8653286,25.4142207 32.8882876,27.1220089 29.05,29.11 L29.05,29.08 Z"/>
        <path id="Path" fill="#3D454C" d="M26.05,31.08 C25.4977153,31.08 25.05,31.5277153 25.05,32.08 C25.05,32.6322847 25.4977153,33.08 26.05,33.08 C26.6022847,33.08 27.05,32.6322847 27.05,32.08 C27.05,31.5277153 26.6022847,31.08 26.05,31.08 Z"/>
      </g>
    </g>
  </g>
</svg>
