<svg xmlns="http://www.w3.org/2000/svg" width="64" height="64" viewBox="0 0 64 64" style="background:#fff">
  <g id="Schokolade-(Milch)" fill="none" fill-rule="evenodd" stroke="none" stroke-width="1">
    <rect width="64" height="64" fill="#FFF"/>
    <g transform="translate(2 4)">
      <g id="Layer_2">
        <rect id="Rectangle" width="60" height="60" x="0" y="0"/>
      </g>
      <g id="Layer_1" fill-rule="nonzero" transform="translate(4 3)">
        <path id="Path" fill="#CCC" d="M46.83,38.57 C41.4,39.86 36.45,39.71 30.98,39.14 C28.9372545,38.8910698 26.8692766,38.9382223 24.84,39.28 C25.77,38.47 26.71,37.67 27.68,36.92 C32.09,33.55 38.24,31.13 41.9,27.05 C43.63,25.12 44.19,18.18 40.14,18.4 C35.01,18.68 29.14,23.77 25.27,26.92 C20.5,30.76 15.61,35.21 13,40.8 C12.6830995,41.7663133 12.5673904,42.7872756 12.66,43.8 C12.6113591,44.2348835 12.591316,44.6724909 12.6,45.11 C12.77,48.99 15.74,51.32 19.44,51.4 C21.7,51.4 23.83,50.53 26.08,50.48 C28.76,50.43 31.51,51.88 34.17,52.34 C39.2955213,53.2079258 44.5478169,52.962364 49.57,51.62 C54.93,50.25 53.33,37 46.83,38.57 Z" opacity=".5"/>
        <path id="Path" fill="#C17953" d="M32.22,3.93 C26.05,3 19.89,1.82 13.71,0.84 C12.9465313,0.0477101458 11.6864769,0.020900478 10.89,0.78 C9.37,1.28 8.35,2.85 7.84,4.78 C5.96829245,8.62751487 5.02959057,12.8619511 5.1,17.14 C5.25,23.35 12.1,27.37 16.41,30.99 C18.1,32.42 19.92,32.12 21.55,30.86 C26.3593626,27.0820718 30.9251311,23.0039421 35.22,18.65 C39.14,14.77 38.5,4.91 32.22,3.93 Z" opacity=".5"/>
        <path id="Path" fill="#3D454C" d="M26.31 13.88L26.49 13.88C26.9821797 13.8871559 27.4063726 13.5350758 27.49 13.05L28.1 9.66C28.1973173 9.11921153 27.8400738 8.60120844 27.3 8.5 27.037234 8.45052579 26.765599 8.50834338 26.5457588 8.66054045 26.3259186 8.81273751 26.1761858 9.04663612 26.13 9.31L25.53 12.7C25.4769015 12.9599175 25.5292575 13.2302825 25.6755449 13.451589 25.8218322 13.6728955 26.0500613 13.8270054 26.31 13.88zM17.62 12.56L17.8 12.56C18.2921797 12.5671559 18.7163726 12.2150758 18.8 11.73L19.46 8.11C19.5261861 7.57717762 19.1597922 7.08718094 18.63 7 18.3687475 6.95347003 18.0997132 7.01268746 17.8821427 7.16461172 17.6645721 7.31653599 17.5163079 7.548708 17.47 7.81L16.82 11.43C16.7406432 11.960217 17.0935381 12.4586812 17.62 12.56L17.62 12.56zM18.5 15.09C18.45347 15.3512525 18.5126875 15.6202868 18.6646117 15.8378573 18.816536 16.0554279 19.048708 16.2036921 19.31 16.25L23.31 16.97 23.49 16.97C23.8472656 17.0021539 24.1945465 16.8412664 24.4010254 16.5479423 24.6075043 16.2546182 24.6418121 15.8734203 24.4910254 15.5479423 24.3402387 15.2224643 24.0272656 15.0021539 23.67 14.97L19.67 14.25C19.4027776 14.200999 19.1271195 14.2628317 18.906429 14.4212762 18.6857386 14.5797206 18.5390129 14.8211377 18.5 15.09zM26.81 16.58C26.7126827 17.1207885 27.0699262 17.6387916 27.61 17.74L30.55 18.27 30.73 18.27C31.2822847 18.3197056 31.7702943 17.9122847 31.8199999 17.36 31.8697056 16.8077153 31.4622847 16.3197057 30.91 16.27L28 15.77C27.7342514 15.7145191 27.4573665 15.7694685 27.2329441 15.9222266 27.0085218 16.0749847 26.8558512 16.3124218 26.81 16.58L26.81 16.58zM12.41 15L15.24 15.51 15.42 15.51C15.9722847 15.5569442 16.4580558 15.1472847 16.505 14.595 16.5519442 14.0427153 16.1422847 13.5569442 15.59 13.51L12.77 13C12.2177153 12.9005888 11.6894113 13.2677153 11.59 13.82 11.4905888 14.3722847 11.8577153 14.9005887 12.41 15zM23.61 23.15C23.56347 23.4112525 23.6226875 23.6802868 23.7746117 23.8978573 23.926536 24.1154279 24.158708 24.2636921 24.42 24.31L24.6 24.31C25.0890037 24.3179763 25.5120327 23.9710925 25.6 23.49L26.18 20.28C26.2443078 19.9227344 26.1131317 19.5582996 25.8358846 19.3239746 25.5586374 19.0896496 25.1774396 19.021034 24.8358846 19.1439746 24.4943296 19.2669152 24.2443078 19.5627344 24.18 19.92L23.61 23.15zM15.54 18.38L14.93 21.8C14.8714553 22.0672168 14.9249353 22.3467516 15.0779818 22.5734873 15.2310284 22.8002229 15.4702788 22.9543627 15.74 23L15.91 23C16.3990037 23.0079763 16.8220327 22.6610925 16.91 22.18L17.52 18.76C17.5843078 18.4027344 17.4531317 18.0382996 17.1758846 17.8039746 16.8986374 17.5696496 16.5174396 17.501034 16.1758846 17.6239746 15.8343296 17.7469152 15.5843078 18.0427344 15.52 18.4L15.54 18.38z"/>
        <path id="Shape" fill="#3D454C" d="M26.67,51.45 L4.45,47.45 C4.26920109,47.4142456 4.09421188,47.3536725 3.93,47.27 C4.99,46.46 10.82,46.17 16.87,46.64 C19.8500779,47.6834937 22.7710755,48.8886138 25.62,50.25 C25.7668091,50.3203924 25.9272003,50.3579308 26.09,50.36 C26.4585937,50.3590165 26.7967616,50.1553472 26.97,49.83 C27.2266488,49.3412131 27.0386457,48.7369176 26.55,48.48 C23.2608288,46.9132178 19.8854035,45.5343348 16.44,44.35 C15.26,43.91 14.06,43.47 12.89,43.02 C15.984707,40.4442566 19.2634313,38.0980136 22.7,36 C23.0036758,35.8106492 23.1832663,35.4736728 23.1711216,35.1160065 C23.1589769,34.7583402 22.956942,34.4343221 22.6411216,34.2660065 C22.3253011,34.097691 21.9436758,34.1106492 21.64,34.3 C19.64,35.56 17.89,36.74 16.43,37.79 C21.6848527,31.3203425 27.8291498,25.6271883 34.68,20.88 C38.86,20.99 40.41,23.53 40.94,24.88 C39.4,25.4 38.86,25.6 38.41,25.77 C37.96,25.94 37.46,26.12 35.48,26.77 C35.1388114,26.878966 34.8816727,27.1616767 34.8054457,27.5116377 C34.7292187,27.8615988 34.8454841,28.2256427 35.1104457,28.4666377 C35.3754074,28.7076328 35.7488114,28.788966 36.09,28.68 C38.09,28.03 38.56,27.87 39.09,27.68 C39.62,27.49 40.24,27.25 42.47,26.51 C42.9397489,26.353943 43.224643,25.8777022 43.14,25.39 C42.2756048,21.6952326 39.0234289,19.0515548 35.23,18.96 C35.2018016,18.6421766 35.0877344,18.3379974 34.9,18.08 C35.3126154,17.8011509 35.5969595,17.3692359 35.69,16.88 L37.29,8 C37.4661153,7.00938417 36.8094784,6.06239758 35.82,5.88 L29.16,4.68 C28.7472511,4.64167325 28.3347207,4.75547475 28,5 C27.7580618,4.66170453 27.4035475,4.42063481 27,4.32 L23.62,3.72 L23.62,3.72 L20.24,3.11 C19.8340964,3.06270818 19.4249406,3.1658866 19.09,3.4 C18.8529284,3.05871068 18.4958098,2.81944119 18.09,2.73 L11.5,1.51 C11.0212056,1.42582787 10.5285959,1.53562321 10.1308667,1.81515932 C9.73313746,2.09469543 9.46297806,2.52099727 9.38,3 L7.79,11.84 C7.70658212,12.3274805 7.82182482,12.8280661 8.11,13.23 C7.70035215,13.5099532 7.41953784,13.9419752 7.33,14.43 L7.05,16 C4.18,16.35 1.72,19.58 1.28,22.68 C0.93,25.09 2,26.89 4,27.49 L0.92,44.86 C0.726182022,45.9053152 0.956469095,46.9847859 1.56,47.86 C1.7912973,48.1752578 2.06756891,48.4548985 2.38,48.69 L2.54,48.82 C3.00371911,49.1545705 3.53696559,49.3801748 4.1,49.48 L26.31,53.4801348 L26.49,53.4801348 C26.9790037,53.4879763 27.4020327,53.1410925 27.49,52.66 C27.5515346,52.3898483 27.4982267,52.1062749 27.34279,51.8769109 C27.1873532,51.6475469 26.9437215,51.4929533 26.67,51.45 Z M10.17,13.59 C10.2669176,13.0600914 10.1241048,12.5144732 9.78,12.1 L11.32,3.51 L17.57,4.63 L17.77,4.89 C18.2507876,5.55718357 19.1709501,5.72888853 19.86,5.28 L20.15,5.1 L23.31,5.67 L23.31,5.67 C23.75,5.77 24.61,5.93 26.46,6.26 L26.68,6.53 C27.1668758,7.19038163 28.0860011,7.35309759 28.77,6.9 L29.05,6.73 L35.29,7.85 L33.75,16.44 C33.2792736,16.7051505 32.9525397,17.1677176 32.86,17.7 C32.7672332,18.2313451 32.9135976,18.7765527 33.26,19.19 L33.26,19.35 C33.2549803,19.3898425 33.2549803,19.4301575 33.26,19.47 C28.098956,23.0457157 23.3203548,27.1440532 19,31.7 C18.16,30.28 16,27.4 11.05,24.32 C8.18,22.54 8.2,20.88 8.5,19.19 L9.28,14.85 C9.74879362,14.5827143 10.0748019,14.1211746 10.17,13.59 Z M3.26,22.93 C3.56094896,20.8681548 4.82782034,19.0737299 6.67,18.1 L6.54,18.82 L6.54,18.82 L6.45,19.29 C6.45488923,19.3164426 6.45488923,19.3435574 6.45,19.37 C6.18,21.48 6.54,23.86 9.99,26.01 C11.6695072,27.0307601 13.2379895,28.2238791 14.67,29.57 C11.7505208,27.5503249 8.41541474,26.2108151 4.91,25.65 C3.59,25.43 3,24.5 3.26,22.93 Z M2.89,45.21 L6,27.94 C12.71,29.52 15.79,33.04 16.69,34.28 C14.5539015,36.7546866 12.6241147,39.4002001 10.92,42.19 C10.4722104,42.8904059 10.6040083,43.8129915 11.23,44.36 C6.23,44.36 3.94,45 2.89,45.63 C2.87304147,45.4905136 2.87304147,45.3494864 2.89,45.21 L2.89,45.21 Z"/>
        <path id="Path" fill="#3D454C" d="M26.05,34 C26.6022847,34 27.05,33.5522847 27.05,33 C27.05,32.4477153 26.6022847,32 26.05,32 C25.4977153,32 25.05,32.4477153 25.05,33 C25.05,33.5522847 25.4977153,34 26.05,34 Z"/>
        <path id="Shape" fill="#3D454C" d="M52.51,40.38 L52.51,32.86 C52.51,32.86 52.51,32.77 52.51,32.73 C52.24,30.32 45,30 40.7,30 C36.4,30 29,30.32 28.91,32.8 C28.91,32.8 28.91,32.8 28.91,32.86 L28.91,48.86 C28.91,50.0799959 29.3946415,51.2500239 30.2573088,52.1126912 C31.1199761,52.9753585 32.2900041,53.46 33.51,53.46 L47.91,53.46 C49.1299959,53.46 50.3000239,52.9753585 51.1626912,52.1126912 C52.0253585,51.2500239 52.51,50.0799959 52.51,48.86 L52.51,40.39 L52.51,40.38 Z M30.9,34.7 C33.4,35.58 37.73,35.76 40.7,35.76 C43.67,35.76 48.01,35.58 50.51,34.69 L50.51,38.56 L50.18,38.41 C49.1708946,37.998086 48.0562148,37.9209698 47,38.19 C45.5849678,38.5942463 44.3568439,39.482601 43.53,40.7 C42.8474149,42.0501328 41.3103624,42.7351236 39.85,42.34 C39.0165721,42.0434718 38.2634379,41.5573579 37.65,40.92 C37.3385951,40.6559936 37.0446446,40.3720641 36.77,40.07 C36.4858313,39.7443945 36.1475174,39.4703602 35.77,39.26 C34.7946505,38.6980067 33.6723517,38.4435725 32.55,38.53 C31.9885917,38.5741916 31.4380895,38.7092842 30.92,38.93 L30.9,34.7 Z M40.7,32 C43.7526957,31.9106035 46.8042529,32.2130706 49.78,32.9 C46.8058467,33.5972746 43.7533743,33.9031942 40.7,33.81 C37.6499481,33.9026645 34.6008498,33.5967461 31.63,32.9 C34.6024256,32.2134868 37.6506235,31.9110195 40.7,32 L40.7,32 Z M33.5,51.48 C32.0640597,51.48 30.9,50.3159403 30.9,48.88 L30.9,41.22 C31.4230016,40.8234097 32.0464714,40.5809493 32.7,40.52 C33.4001259,40.4709937 34.0983778,40.6385742 34.7,41 C34.8951257,41.1021239 35.0657286,41.2454304 35.2,41.42 C35.5282614,41.7789464 35.8825562,42.1131869 36.26,42.42 C37.0978171,43.26297 38.1270733,43.8908162 39.26,44.25 C41.4614158,44.8722607 43.807851,43.9524908 45,42 C45.5648827,41.1333155 46.4076788,40.4844683 47.39,40.16 C48.0520339,39.9819958 48.7539995,40.0241138 49.39,40.28 C49.7818339,40.44896 50.154041,40.6602127 50.5,40.91 L50.5,48.91 C50.5,50.3459403 49.3359403,51.51 47.9,51.51 L33.5,51.48 Z"/>
      </g>
    </g>
  </g>
</svg>
