<svg xmlns="http://www.w3.org/2000/svg" width="64" height="64" viewBox="0 0 64 64" style="background:#fff">
  <g id="Schokolade-(weiß)" fill="none" fill-rule="evenodd" stroke="none" stroke-width="1">
    <rect width="64" height="64" fill="#FFF"/>
    <g transform="translate(2 4)">
      <g id="Layer_2">
        <rect id="Rectangle" width="60" height="60" x="0" y="0"/>
      </g>
      <g id="Layer_1" fill-rule="nonzero" transform="translate(7 2)">
        <path id="Path" fill="#31D4E0" d="M40.66,18.24 C38,14.6 35.93,20.57 36.92,23 C37.32,24 32.37,25.84 31.62,26.42 C29.7667486,27.9318811 28.3598227,29.9195528 27.55,32.17 C27.0519544,33.5054159 26.6966421,34.8897929 26.49,36.3 C23.1979498,32.031738 19.6267998,27.9862163 15.8,24.19 C11.8,20.02 7.14,17.72 2.13,21.29 C-0.1,22.88 0.66,28.7 3.57,28.93 C13.8,29.74 17.8,43.87 25.4,49.43 C26.54,50.26 27.4,50.43 28.13,50.03 C29.87,52.8 33.13,49.4 33.07,46.35 C33,42.75 31.23,37.84 34.19,35 C36.13,33.14 38.83,32.93 40.59,30.71 C43.286478,26.9989036 43.3146452,21.9811347 40.66,18.24 Z" opacity=".5"/>
        <path id="Path" fill="#CCC" d="M35.62,9.11 C35.62,6.39 33.83,0.23 30.12,0.86 C23.93,1.86 17.39,2.45 11.39,4.34 C11.094254,4.43297603 10.8118786,4.56407891 10.55,4.73 L10.37,4.73 C8.21,4.98 7.46,7.63 7.49,9.55 C7.49,14.38 8.42,18.55 11.78,22.27 C13.61,24.27 16.19,25.27 18.28,26.97 C20.37,28.67 22,31.9 24.69,32.36 C27.38,32.82 27.46,30.3 29.28,28.48 C30.57,27.2 33.6,26.94 34.72,25.04 C36.0704759,22.5671082 36.7593889,19.7873441 36.72,16.97 C36.68,14.29 35.62,11.71 35.62,9.11 Z" opacity=".5"/>
        <path id="Path" fill="#3D454C" d="M17.55 14.2C17.6061956 14.2103334 17.6638044 14.2103334 17.72 14.2 17.9897212 14.1543627 18.2289716 14.0002229 18.3820182 13.7734873 18.5350647 13.5467516 18.5885447 13.2672168 18.53 13L17.92 9.61C17.8187916 9.06992623 17.3007885 8.71268272 16.76 8.81 16.2220607 8.92951127 15.8821838 9.46168693 16 10L16.61 13.39C16.6976806 13.8452585 17.0867831 14.180549 17.55 14.2zM26.24 12.88L26.41 12.88C26.671292 12.8336921 26.903464 12.6854279 27.0553883 12.4678573 27.2073125 12.2502868 27.26653 11.9812525 27.22 11.72L26.57 8.09C26.4733502 7.53771525 25.9472847 7.16835017 25.395 7.265 24.8427153 7.36164983 24.4733502 7.88771525 24.57 8.44L25.22 12.07C25.3134429 12.554765 25.7466691 12.8987976 26.24 12.88L26.24 12.88zM20.55 17.29L20.72 17.29 24.72 16.57C25.2600738 16.4687916 25.6173173 15.9507885 25.52 15.41 25.4736921 15.148708 25.3254279 14.916536 25.1078573 14.7646117 24.8902868 14.6126875 24.6212525 14.55347 24.36 14.6L20.36 15.32C20.0027344 15.3521539 19.6897613 15.5724643 19.5389746 15.8979423 19.3881879 16.2234203 19.4224957 16.6046182 19.6289746 16.8979423 19.8354535 17.1912664 20.1827344 17.3521539 20.54 17.32L20.55 17.29zM13.31 18.59L13.48 18.59 16.42 18C16.7772656 17.9374785 17.0740378 17.6891074 17.1985254 17.3484456 17.323013 17.0077837 17.2563034 16.6265859 17.0235254 16.3484456 16.7907474 16.0703052 16.4272656 15.9374785 16.07 16L13.13 16.52C12.7727344 16.5521539 12.4597613 16.7724643 12.3089746 17.0979423 12.1581879 17.4234203 12.1924957 17.8046182 12.3989746 18.0979423 12.6054535 18.3912664 12.9527344 18.5521539 13.31 18.52L13.31 18.59zM28.62 15.84L28.8 15.84 31.63 15.33C32.1822847 15.2305887 32.5494113 14.7022847 32.45 14.15 32.3505887 13.5977153 31.8222847 13.2305887 31.27 13.33L28.45 13.83C27.8977153 13.8769442 27.4880558 14.3627153 27.535 14.915 27.5819442 15.4672847 28.0677153 15.8769442 28.62 15.83L28.62 15.84zM17.88 20.59L18.45 23.8C18.5336274 24.2850758 18.9578203 24.6371559 19.45 24.63L19.63 24.63C20.1700738 24.5287916 20.5273173 24.0107885 20.43 23.47L19.86 20.26C19.8136921 19.998708 19.6654279 19.766536 19.4478573 19.6146117 19.2302868 19.4626875 18.9612525 19.40347 18.7 19.45 18.1609503 19.5418867 17.795669 20.0497167 17.88 20.59zM26.53 19L27.14 22.42C27.2279673 22.9010925 27.6509963 23.2479763 28.14 23.24L28.32 23.24C28.581292 23.1936921 28.813464 23.0454279 28.9653883 22.8278573 29.1173125 22.6102868 29.17653 22.3412525 29.13 22.08L28.51 18.66C28.4133502 18.1077153 27.8872847 17.7383502 27.335 17.835 26.7827153 17.9316498 26.4133502 18.4577153 26.51 19.01L26.53 19z"/>
        <path id="Shape" fill="#3D454C" d="M43.12,45.17 L40,27.8 C42,27.19 43.11,25.39 42.76,22.95 C42.32,19.84 39.85,16.6 36.99,16.26 L36.71,14.72 C36.6190356,14.2352125 36.3382428,13.8068235 35.93,13.53 C36.2152554,13.123064 36.3267989,12.6193194 36.24,12.13 L34.66,3.29 C34.5711042,2.8149432 34.2978925,2.39434096 33.9,2.12 C33.5062253,1.83944296 33.0152632,1.73114249 32.54,1.82 L25.88,3 C25.4749694,3.0973013 25.1193834,3.33909978 24.88,3.68 C24.5487088,3.4455882 24.1437618,3.3390232 23.74,3.38 L20.38,4 L20.38,4 L17,4.61 C16.5953541,4.70215346 16.2391373,4.94081875 16,5.28 C15.670758,5.05887785 15.2745651,4.95982963 14.88,5 L8.22,6.18 C7.22964413,6.36258906 6.57006267,7.30739493 6.74,8.3 L8.33,17.15 C8.42303913,17.6339493 8.70335354,18.0616085 9.11,18.34 C8.93082075,18.6016495 8.82073968,18.9043725 8.79,19.22 C4.99793966,19.3209652 1.74789198,21.9595771 0.87,25.65 C0.785357022,26.1377022 1.07025109,26.613943 1.54,26.77 C4.16,27.64 6.8,28.69 9.44,29.87 L13.15,50.55 C13.4217449,51.9576502 14.4366508,53.1066002 15.8,53.55 L15.96,53.6 C16.5339947,53.7716729 17.1403216,53.8059286 17.73,53.7 L39.94,49.7 C40.4985801,49.5955511 41.0275872,49.3702965 41.49,49.04 C41.5507938,49.002348 41.6077348,48.9588048 41.66,48.91 C41.9740042,48.6760488 42.247618,48.3923012 42.47,48.07 C43.0619468,47.2274612 43.2956925,46.1845958 43.12,45.17 Z M41.17,45.97 C40.12,45.34 37.82,44.68 32.83,44.7 C33.4443223,44.1467143 33.5748294,43.2331645 33.14,42.53 C33.1371281,42.5101031 33.1371281,42.4898969 33.14,42.47 L33.14,42.47 C31.448221,39.7039596 29.5317578,37.081783 27.41,34.63 C28.31,33.38 31.41,29.87 38.1,28.28 L41.2,45.56 C41.2091476,45.7073471 41.1990627,45.8552581 41.17,46 L41.17,45.97 Z M40.78,23.23 C41,24.81 40.45,25.73 39.13,25.97 C35.624037,26.528835 32.2885055,27.8685157 29.37,29.89 C30.801431,28.5402817 32.369943,27.3437885 34.05,26.32 C37.5,24.18 37.86,21.8 37.58,19.68 C37.58,19.68 37.58,19.63 37.58,19.61 L37.36,18.41 C39,19 40.5,21.25 40.78,23.23 L40.78,23.23 Z M8.78,8.12 L15,7 L15.28,7.17 C15.9603254,7.63061451 16.8829897,7.47168669 17.37,6.81 C17.4385296,6.71619025 17.5119652,6.62606477 17.59,6.54 C19.2,6.25 20.16,6.07 20.73,5.91 L20.73,6 L23.88,5.43 L24.18,5.61 C24.8665233,6.06098256 25.78616,5.89377589 26.27,5.23 L26.47,4.97 L32.72,3.85 L34.26,12.44 C33.9175211,12.8556781 33.7755447,13.4011165 33.8718907,13.9310199 C33.9682368,14.4609232 34.2931211,14.9214778 34.76,15.19 L35.53,19.51 L35.53,19.51 C35.84,21.2 35.87,22.87 32.99,24.65 C27.99,27.73 25.88,30.65 24.99,32.03 C20.6957236,27.462509 15.9441814,23.3476333 10.81,19.75 C10.81,19.75 10.81,19.67 10.81,19.63 L10.81,19.46 C11.1397665,19.0504003 11.2715484,18.5159513 11.17,18 C11.0783943,17.4701334 10.755935,17.0084303 10.29,16.74 L8.78,8.12 Z M11.66,30.9 C12.46,31.29 13.26,31.67 14.07,32.09 C14.5615334,32.3468124 15.1681876,32.1565334 15.425,31.665 C15.6818124,31.1734666 15.4915334,30.5668124 15,30.31 C11.1621417,28.3154623 7.18510887,26.6009935 3.1,25.18 C3.61,23.84 5.15,21.29 9.37,21.18 C16.2141988,25.9201024 22.3548117,31.6028626 27.61,38.06 C26.15,37 24.42,35.82 22.39,34.56 C21.9226887,34.2986179 21.3324147,34.4517068 21.0510426,34.9072616 C20.7696706,35.3628164 20.8970562,35.9591657 21.34,36.26 C24.7767531,38.3798986 28.0553417,40.7460972 31.15,43.34 C29.98,43.79 28.78,44.23 27.59,44.67 C20.45,47.32 16.59,48.87 15.18,50.39 C15.1554391,50.3247875 15.1353919,50.2579632 15.12,50.19 L11.66,30.9 Z M39.58,47.77 L17.37,51.77 C17.1186766,51.8151304 16.8613234,51.8151304 16.61,51.77 C17.56,50.6 23,48.52 27.17,47 C33.17,46.52 39.05,46.82 40.11,47.63 C39.9405965,47.7007715 39.762255,47.7478805 39.58,47.77 Z"/>
        <path id="Path" fill="#3D454C" d="M18,34.28 C18.5522847,34.28 19,33.8322847 19,33.28 C19,32.7277153 18.5522847,32.28 18,32.28 C17.4477153,32.28 17,32.7277153 17,33.28 C17,33.8322847 17.4477153,34.28 18,34.28 Z"/>
      </g>
    </g>
  </g>
</svg>
