<svg xmlns="http://www.w3.org/2000/svg" width="64" height="64" viewBox="0 0 64 64" style="background:#fff">
  <g id="Schweineschmalz" fill="none" fill-rule="evenodd" stroke="none" stroke-width="1">
    <rect width="64" height="64" fill="#FFF"/>
    <g id="4-Schweineschmalz" transform="translate(2 6)">
      <g id="Layer_2">
        <rect id="Rectangle" width="60" height="60" x="0" y="0"/>
      </g>
      <g id="Layer_1" fill-rule="nonzero" transform="translate(5 6)">
        <path id="Path" fill="#CCC" stroke="#B3B3B3" d="M40.61,37.89 C35.4662308,35.6625876 30.1651852,33.8175831 24.75,32.37 C20.24,31.18 12.46,31.3 9.05,28 C6.5,25.59 0.91,27.8 4.22,31 C8.22,34.8 13.31,35.12 18.45,36.17 C25.4608197,37.6350959 32.3007553,39.8234731 38.86,42.7 C42.88,44.42 44.58,39.6 40.61,37.89 Z" opacity=".5"/>
        <path id="Shape" fill="#3D454C" d="M0.93,37.52 C12.68,43.66 24.43,47.29 35.87,48.3 C36.1614504,48.3137668 36.4519034,48.3438137 36.74,48.39 C36.8230052,48.4004577 36.9069948,48.4004577 36.99,48.39 C37.99,48.39 39.15,45.29 39.77,43.39 L39.77,43.39 C40.1993509,42.5377116 40.7225977,41.7360707 41.33,41 C41.374227,40.9384899 41.4244755,40.8815417 41.48,40.83 C42.1900085,40.2920708 42.4095446,39.3210456 42,38.53 C40.36,35.8 35.36,34.89 31.44,34.61 C29.5561059,34.3840923 27.7708238,33.6436846 26.28,32.47 C25.1974821,31.7182277 24.0375279,31.084611 22.82,30.58 C21.9641995,30.2729799 21.0589199,30.1271858 20.15,30.15 C19.3702097,30.1584605 18.5918373,30.2185923 17.82,30.33 C17.0659,30.4536543 16.3039998,30.5238293 15.54,30.54 C15.1307387,30.5427348 14.7221716,30.5058967 14.32,30.43 C13.5555037,30.2193912 12.8320175,29.8813135 12.18,29.43 C11.2955119,28.8184997 10.2891327,28.4057137 9.23,28.22 C9.01376928,28.2005624 8.79623072,28.2005624 8.58,28.22 C5.75,28.22 3.86,30.68 2.84,32 C1.7866206,33.2923058 0.986005059,34.771409 0.48,36.36 C0.341899679,36.8042681 0.528424917,37.2850887 0.93,37.52 Z M36,46.34 C24.3149903,45.1421672 12.9726956,41.6919362 2.6,36.18 C3.02554111,35.095934 3.61582032,34.0840268 4.35,33.18 C4.60333333,32.8533333 4.86333333,32.52 5.13,32.18 C7.16772704,34.0647216 9.69349524,35.3397321 12.42,35.86 C13.986781,36.1692439 15.5840008,36.2967531 17.18,36.24 C19.29,36.24 21.27,36.24 23.25,37.36 C25.0060757,38.4420147 26.8997224,39.282888 28.88,39.86 C29.8924812,40.0898807 30.917575,40.2601731 31.95,40.37 C33.0262886,40.47335 34.0928638,40.6605858 35.14,40.93 C35.2326431,40.9460528 35.3273569,40.9460528 35.42,40.93 C35.8532879,40.9169381 36.2288211,40.6262027 36.35,40.21 C36.4195449,39.9622285 36.3908915,39.6971838 36.27,39.47 C36.1398859,39.2402709 35.9242022,39.0713187 35.67,39 C34.5375769,38.7074244 33.3840902,38.5034746 32.22,38.39 C31.2566592,38.3150209 30.2984165,38.1848068 29.35,38 C27.5029258,37.4500637 25.7373831,36.6564102 24.1,35.64 C21.79,34.34 19.47,34.34 17.23,34.33 C15.7688648,34.3851698 14.3061859,34.2744625 12.87,34 C10.5162849,33.5676793 8.32855995,32.4911247 6.55,30.89 C7.12005872,30.4352366 7.82122647,30.1758045 8.55,30.15 L8.93,30.15 C9.73056773,30.3281041 10.4861223,30.668444 11.15,31.15 C11.9888642,31.7065714 12.9200305,32.1095125 13.9,32.34 C14.4429753,32.450328 14.9959433,32.5039491 15.55,32.5 C16.3706394,32.4887128 17.1894102,32.4185325 18,32.29 C18.7180305,32.1762458 19.4431265,32.1127581 20.17,32.1 C20.8237056,32.0830876 21.4748336,32.1882176 22.09,32.41 C23.1470066,32.8574478 24.1527963,33.4173374 25.09,34.08 C26.8773216,35.4571271 29.0077597,36.3182944 31.25,36.57 C35.82,36.9 39.12,37.92 40.17,39.31 L40.04,39.46 C39.9489631,39.5425481 39.8653117,39.6328915 39.79,39.73 C39.0885706,40.5884642 38.4879749,41.5245882 38,42.52 C37.9479485,42.622765 37.9173286,42.7350379 37.91,42.85 C37.91,42.85 37.83,43.13 37.35,44.24 C35.49,43.03 30.7,41.37 27.55,40.69 L27.33,40.69 C26.8750093,40.7005834 26.4845531,41.0170585 26.38,41.46 C26.3227709,41.7173622 26.3694928,41.9869121 26.51,42.21 C26.6495719,42.4298324 26.8740804,42.5819188 27.13,42.63 C30.4272908,43.3101026 33.6143208,44.4442411 36.6,46 L36.42,46.39 L36,46.34 Z"/>
        <path id="Path" fill="#E05362" d="M43.9,17.27 C43.365971,16.2005542 42.4317123,15.3848746 41.3,15 C40.0936216,14.5974633 38.8395281,14.3553863 37.57,14.28 C36.454765,14.2000335 35.335235,14.2000335 34.22,14.28 C32.35,14.39 31.4,14.75 30.46,16.21 C29.52,17.67 29.26,19.99 30.61,21.28 C31.61,22.19 32.23,22.86 33.73,22.79 C34.95,22.73 36.21,22.52 37.43,22.43 C38.65,22.34 39.67,22.27 40.76,22.09 C41.9043335,21.9895605 42.9551333,21.4170558 43.66,20.51 C44.3315728,19.5569692 44.4238239,18.3115787 43.9,17.27 L43.9,17.27 Z" opacity=".5"/>
        <path id="Path" fill="#E0A075" d="M37.06,3.36 C29.77,3 23.61,10.24 24,17.23 C24.15,19.55 27.29,24.23 29.24,20.35 C31,17 32.47,13.71 36.76,13.41 C40.59,13.15 43.27,15.83 45.5,18.57 C46.79,20.16 48.5,18.99 48.7,17.19 C49.058339,13.7982943 48.0197326,10.4069439 45.8235516,7.79756392 C43.6273707,5.18818395 40.4630932,3.58590166 37.06,3.36 Z" opacity=".5"/>
        <path id="Shape" fill="#3D454C" d="M46.32,8.72 L46.49,8.54 L46.49,8.54 C48.49,6.43 48.89,4.42 48.89,1.45 C48.89,0.89771525 48.4422847,0.45 47.89,0.45 C45,0.45 43,0.85 41,3 C40.78,3.24 40.53,3.52 40.27,3.86 C37.73311,3.04984954 35.00689,3.04984954 32.47,3.86 C32.2493525,3.56047611 32.0123246,3.2733719 31.76,3 C29.76,0.9 27.76,0.5 24.89,0.5 C24.3377153,0.5 23.89,0.94771525 23.89,1.5 C23.89,4.5 24.27,6.5 26.29,8.59 L26.46,8.76 C26.75,9.06 27.08,9.42 27.46,9.76 C26.46,11.67 23.89,16.82 23.89,18.67 C23.89,22.94 29.02,27.67 36.39,27.67 C43.76,27.67 48.89,22.92 48.89,18.67 C48.89,16.82 46.31,11.67 45.32,9.76 C45.7,9.37 46,9 46.32,8.72 Z M46.89,18.62 C46.89,21.55 42.89,25.62 36.39,25.62 C29.89,25.62 25.89,21.53 25.89,18.62 C25.89,17.57 27.89,13.17 29.6,9.94 C29.8344262,9.50785218 29.7199533,8.9694057 29.33,8.67 C28.8195054,8.26443067 28.3444575,7.81614601 27.91,7.33 L27.74,7.15 C26.5031657,5.91403744 25.8396254,4.21711476 25.91,2.47 C27.5853477,2.40430086 29.2025364,3.09004754 30.32,4.34 C30.678973,4.73198302 31.0129642,5.14613212 31.32,5.58 C31.5852044,5.94891129 32.0657751,6.09267175 32.49,5.93 C34.9894022,4.94289339 37.7705978,4.94289339 40.27,5.93 C40.6942249,6.09267175 41.1747956,5.94891129 41.44,5.58 C41.84,5.05 42.18,4.63 42.44,4.34 C43.5574636,3.09004754 45.1746523,2.40430086 46.85,2.47 C46.9181143,4.2148102 46.2590177,5.90963002 45.03,7.15 L44.85,7.34 C44.4102356,7.81786636 43.9355976,8.26242169 43.43,8.67 C43.0400467,8.9694057 42.9255738,9.50785218 43.16,9.94 C44.93,13.17 46.89,17.57 46.89,18.62 Z"/>
        <path id="Path" fill="#3D454C" d="M33.87 17.06C32.710202 17.06 31.77 18.000202 31.77 19.16 31.77 19.7122847 32.2177153 20.16 32.77 20.16 33.3222847 20.16 33.77 19.7122847 33.77 19.16 33.77 19.05 33.96 19.05 33.96 19.16 33.96 19.7122847 34.4077153 20.16 34.96 20.16 35.5122847 20.16 35.96 19.7122847 35.96 19.16 35.96 18.0040961 35.0258908 17.0655043 33.87 17.06zM38.81 17.06C37.6541092 17.0655043 36.72 18.0040961 36.72 19.16 36.72 19.7122847 37.1677153 20.16 37.72 20.16 38.2722847 20.16 38.72 19.7122847 38.72 19.16 38.72 19.05 38.91 19.05 38.91 19.16 38.91 19.7122847 39.3577153 20.16 39.91 20.16 40.4622847 20.16 40.91 19.7122847 40.91 19.16 40.91 18.000202 39.969798 17.06 38.81 17.06L38.81 17.06z"/>
        <path id="Shape" fill="#3D454C" d="M36.39,13.62 C31.83,13.62 28.26,15.94 28.26,18.9 C28.26,21.86 31.83,24.18 36.39,24.18 C40.95,24.18 44.52,21.86 44.52,18.9 C44.52,15.94 41,13.62 36.39,13.62 Z M36.39,22.18 C32.78,22.18 30.26,20.45 30.26,18.9 C30.26,17.35 32.78,15.62 36.39,15.62 C40,15.62 42.52,17.35 42.52,18.9 C42.52,20.45 40,22.18 36.39,22.18 Z"/>
        <path id="Path" fill="#3D454C" d="M32.94 11.83C33.4922847 11.83 33.94 11.3822847 33.94 10.83 33.94 10.2777153 33.4922847 9.83 32.94 9.83 32.3877153 9.83 31.94 10.2777153 31.94 10.83 31.94 11.3822847 32.3877153 11.83 32.94 11.83zM39.46 11.83C40.0122847 11.83 40.46 11.3822847 40.46 10.83 40.46 10.2777153 40.0122847 9.83 39.46 9.83 38.9077153 9.83 38.46 10.2777153 38.46 10.83 38.46 11.3822847 38.9077153 11.83 39.46 11.83z"/>
      </g>
    </g>
  </g>
</svg>
