<svg xmlns="http://www.w3.org/2000/svg" width="64" height="64" viewBox="0 0 64 64" style="background:#fff">
  <g id="Schwarzkümmel" fill="none" fill-rule="evenodd" stroke="none" stroke-width="1">
    <rect width="64" height="64" fill="#FFF"/>
    <g transform="translate(2 9)">
      <g id="Layer_2">
        <rect id="Rectangle" width="60" height="60" x="0" y="0"/>
      </g>
      <g id="Layer_1" fill-rule="nonzero" transform="translate(5 12)">
        <path id="Path" fill="#483318" d="M35.08,7.87 C33,5.1 29,0.59 25,1.05 C24.5441232,0.985207914 24.079538,1.02278466 23.64,1.16 C19.41,2.39 16.5,6.07 14.29,9.7 C12.08,13.33 9.62,17.7 9.47,21.87 C9.27,27.37 12.38,30.13 17.47,30.79 C22.31,31.41 28.18,32.64 33.02,31.85 C44.41,30 39.69,13.88 35.08,7.87 Z" opacity=".5"/>
        <path id="Shape" fill="#3D454C" d="M48.85,21.08 C48.85,15.87 43.85,11.19 35.85,8.85 C33.9608547,6.42938117 31.8261379,4.21088431 29.48,2.23 L28.48,1.37 C26.5199865,-0.447962143 23.4900135,-0.447962143 21.53,1.37 C18.9872413,3.60438594 16.644967,6.05708177 14.53,8.7 C14.4500767,8.6950468 14.3699233,8.6950468 14.29,8.7 C6,11 0.85,15.75 0.85,21.08 C0.94770963,22.8377529 1.45083262,24.5490556 2.32,26.08 L2.32,26.14 L7,33.46 C8.39267272,36.187912 10.8734396,38.20013 13.83,39 C17.4229722,39.9252994 21.1198274,40.3857259 24.83,40.3703896 C28.5401726,40.3857259 32.2370278,39.9252994 35.83,39 C38.743403,38.2077201 41.1915915,36.2310345 42.58,33.55 L47.21,26.08 L47.21,26.08 C48.2521145,24.61874 48.8241898,22.8746078 48.85,21.08 Z M40.85,32.54 C39.7154443,34.7480708 37.7111285,36.3826936 35.32,37.05 C28.4230342,38.7485165 21.2169658,38.7485165 14.32,37.05 C11.9005391,36.3665433 9.87724907,34.7022241 8.74,32.46 L4.09,25.12 C3.38734064,23.8941658 2.96393433,22.528339 2.85,21.12 C2.85,17.24 6.64,13.56 12.68,11.38 C10.8588292,14.1168462 9.50694401,17.1383096 8.68,20.32 C8.57003184,20.6755247 8.66658267,21.0627066 8.93060733,21.3249694 C9.19463199,21.5872321 9.58245168,21.6811885 9.93723209,21.5688424 C10.2920125,21.4564963 10.5550607,21.1564337 10.62,20.79 C12.77,12.05 19.62,5.87 22.87,2.9 C24.0657167,1.78104974 25.9242833,1.78104974 27.12,2.9 L28.12,3.76 C31.83,7.06 36.91,11.58 39.4,20.82 C39.5206641,21.2692179 39.9351312,21.5759235 40.4,21.56 C40.4860563,21.5745462 40.5739437,21.5745462 40.66,21.56 C41.1922768,21.4182783 41.5097247,20.8728045 41.37,20.34 C40.5614505,17.2866953 39.3223534,14.3640423 37.69,11.66 C43.42,13.86 46.87,17.38 46.87,21.16 C46.8334234,22.5417378 46.3802984,23.8801993 45.57,25 C45.57,25 45.57,25 45.57,25 L45.57,25 L40.85,32.54 Z"/>
        <path id="Path" fill="#3D454C" d="M41.84,16.87 C41.6506873,17.0577666 41.5442017,17.3133625 41.5442017,17.58 C41.5442017,17.8466375 41.6506873,18.1022334 41.84,18.29 C42.8431457,19.1731374 43.4456511,20.4250497 43.51,21.76 C43.51,26.42 34.97,30.35 24.85,30.35 C14.73,30.35 6.18,26.42 6.18,21.76 C6.24434895,20.4250497 6.84685428,19.1731374 7.85,18.29 C8.03931265,18.1022334 8.14579832,17.8466375 8.14579832,17.58 C8.14579832,17.3133625 8.03931265,17.0577666 7.85,16.87 C7.45996255,16.4822764 6.83003745,16.4822764 6.44,16.87 C5.06451686,18.1332601 4.25085917,19.8937849 4.18,21.76 C4.18,27.7 13.26,32.35 24.85,32.35 C36.44,32.35 45.51,27.7 45.51,21.76 C45.4391098,19.8987725 44.6293725,18.142542 43.26,16.88 C43.0735699,16.6893589 42.8187228,16.581069 42.5520832,16.5791664 C42.2854436,16.5773135 42.0290965,16.6820035 41.84,16.87 Z"/>
        <path id="Path" fill="#3D454C" d="M27.91 15.48C27.776372 15.2502558 27.5567828 15.0831582 27.2997298 15.0156114 27.0426768 14.9480647 26.7693087 14.9856261 26.54 15.12 26.3102558 15.253628 26.1431582 15.4732172 26.0756114 15.7302702 26.0080647 15.9873232 26.0456261 16.2606913 26.18 16.49L26.72 17.28C26.853628 17.5097442 27.0732172 17.6768418 27.3302702 17.7443886 27.5873232 17.8119353 27.8606913 17.7743739 28.09 17.64 28.5625074 17.3619888 28.7230821 16.7553732 28.45 16.28L27.91 15.48zM31.74 24.84C31.9693087 24.9743739 32.2426768 25.0119353 32.4997298 24.9443886 32.7567828 24.8768418 32.976372 24.7097442 33.11 24.48L33.65 23.68C33.8984017 23.2051496 33.7283237 22.6188937 33.2643602 22.3507068 32.8003968 22.0825198 32.207496 22.2277474 31.92 22.68L31.38 23.47C31.2456261 23.6993087 31.2080647 23.9726768 31.2756114 24.2297298 31.3431582 24.4867828 31.5102558 24.706372 31.74 24.84L31.74 24.84zM19.88 25.89C20.1336586 26.1418722 20.502421 26.2392866 20.847378 26.1455479 21.1923351 26.0518093 21.4610796 25.7811588 21.552378 25.4355479 21.6436765 25.089937 21.5436586 24.7218722 21.29 24.47L20.23 23.41C19.8406392 23.0178779 19.2071222 23.0156393 18.815 23.405 18.4228779 23.7943608 18.4206393 24.4278778 18.81 24.82L19.88 25.89zM27.66 9.26L28.47 8.26C28.6593127 8.0722334 28.7657983 7.81663754 28.7657983 7.55 28.7657983 7.28336246 28.6593127 7.0277666 28.47 6.84 28.2822334 6.65068735 28.0266375 6.54420168 27.76 6.54420168 27.4933625 6.54420168 27.2377666 6.65068735 27.05 6.84L26.24 7.84C26.0506873 8.0277666 25.9442017 8.28336246 25.9442017 8.55 25.9442017 8.81663754 26.0506873 9.0722334 26.24 9.26 26.4277666 9.44931265 26.6833625 9.55579832 26.95 9.55579832 27.2166375 9.55579832 27.4722334 9.44931265 27.66 9.26zM17.45 16.68L18.05 15.68C18.2984017 15.2051496 18.1283237 14.6188937 17.6643602 14.3507068 17.2003968 14.0825198 16.607496 14.2277474 16.32 14.68L15.72 15.68C15.4715983 16.1548504 15.6416763 16.7411063 16.1056398 17.0092932 16.5696032 17.2774802 17.162504 17.1322526 17.45 16.68z"/>
      </g>
    </g>
  </g>
</svg>
