<svg xmlns="http://www.w3.org/2000/svg" width="64" height="64" viewBox="0 0 64 64" style="background:#fff">
  <g id="Schwein-(Brust)" fill="none" fill-rule="evenodd" stroke="none" stroke-width="1">
    <rect width="64" height="64" fill="#FFF"/>
    <g transform="translate(2 3)">
      <g id="Layer_2">
        <rect id="Rectangle" width="60" height="60" x="0" y=".91"/>
        <rect id="Rectangle" width="60" height="60" x="0" y="1"/>
      </g>
      <g id="Layer_1" fill-rule="nonzero" transform="translate(4 6)">
        <path id="Path" fill="#E05362" d="M36.76 38.67C31.44 36.61 25.76 35.9 20.61 33.19 16.14 30.82 13.61 27.35 10.32 23.65 7.93 20.92 5.32 23.94 5.54 26.84 6.82 41.29 23.15 48.89 36 50.07 41 50.53 40.53 40.14 36.76 38.67zM47.5 18C46.9695116 16.9294184 46.0392047 16.1104609 44.91 15.72 43.7001781 15.3175011 42.4427858 15.0754363 41.17 15 40.0547637 14.9200678 38.9352363 14.9200678 37.82 15 36 15.18 35 15.54 34.07 17 33.14 18.46 32.86 20.77 34.21 22.07 35.21 22.98 35.84 23.65 37.33 23.58 38.55 23.52 39.81 23.31 41.04 23.22 42.27 23.13 43.28 23.06 44.37 22.88 45.5136198 22.7772012 46.5635379 22.2051769 47.27 21.3 47.9622895 20.3311902 48.0512028 19.0554774 47.5 18L47.5 18z" opacity=".5"/>
        <path id="Path" fill="#E0A075" d="M40.66,4.12 C33.37,3.74 27.21,11 27.65,18 C27.79,20.32 30.93,25 32.88,21.12 C34.56,17.74 36.07,14.48 40.36,14.18 C44.2,13.92 46.87,16.6 49.1,19.34 C50.39,20.93 52.1,19.76 52.3,17.95 C52.661249,14.5577059 51.623698,11.1647723 49.4269426,8.55470987 C47.2301873,5.94464744 44.0641696,4.34313477 40.66,4.12 Z" opacity=".5"/>
        <path id="Shape" fill="#3D454C" d="M50.55,9.21 L50.72,9.04 C52.72,6.93 53.12,4.92 53.12,1.95 C53.12,1.39771525 52.6722847,0.95 52.12,0.95 C49.22,0.95 47.27,1.35 45.25,3.45 C45.03,3.69 44.79,3.97 44.52,4.31 C41.9865028,3.49998735 39.2634972,3.49998735 36.73,4.31 C36.46,3.97 36.22,3.69 36,3.45 C34,1.35 32,1 29.12,1 C28.5677153,1 28.12,1.44771525 28.12,2 C28.12,5 28.51,7 30.53,9.09 L30.69,9.26 C30.98,9.56 31.32,9.92 31.69,10.26 C30.69,12.17 28.11,17.32 28.11,19.17 C28.11,23.44 33.25,28.17 40.61,28.17 C47.97,28.17 53.11,23.42 53.11,19.17 C53.11,17.32 50.53,12.17 49.54,10.26 C49.93,9.87 50.26,9.52 50.55,9.21 Z M51.12,19.12 C51.12,22.05 47.12,26.12 40.62,26.12 C34.12,26.12 30.12,22.03 30.12,19.12 C30.12,18.07 32.12,13.67 33.84,10.44 C34.0722701,10.0054935 33.9534486,9.46655275 33.56,9.17 C33.0517685,8.76182533 32.5769273,8.31373583 32.14,7.83 L32,7.65 C30.7636408,6.42463147 30.0933311,4.73979907 30.15,3 C31.8221604,2.93590578 33.4356357,3.6216328 34.55,4.87 C34.908973,5.26198302 35.2429642,5.67613212 35.55,6.11 C35.8152044,6.47891129 36.2957751,6.62267175 36.72,6.46 C39.2229265,5.47326417 42.0070735,5.47326417 44.51,6.46 C44.9342249,6.62267175 45.4147956,6.47891129 45.68,6.11 C45.9870358,5.67613212 46.321027,5.26198302 46.68,4.87 C47.7988797,3.61610811 49.4209481,2.92984839 51.1,3 C51.1681143,4.7448102 50.5090177,6.43963002 49.28,7.68 L49.1,7.86 C48.6691055,8.34609 48.1973827,8.79439392 47.69,9.2 C47.2965514,9.49655275 47.1777299,10.0354935 47.41,10.47 C49.16,13.67 51.12,18.07 51.12,19.12 Z"/>
        <path id="Path" fill="#3D454C" d="M38.1 17.56C36.9440961 17.56 36.0055043 18.4941092 36 19.65 36 20.2022847 36.4477153 20.65 37 20.65 37.5522847 20.65 38 20.2022847 38 19.65 38 19.55 38.2 19.55 38.2 19.65 38.2 20.2022847 38.6477153 20.65 39.2 20.65 39.7522847 20.65 40.2 20.2022847 40.2 19.65 40.1944957 18.4941092 39.2559039 17.56 38.1 17.56zM43.05 17.56C41.9136494 17.5870522 41.0050908 18.5133389 41 19.65 41 20.2022847 41.4477153 20.65 42 20.65 42.5522847 20.65 43 20.2022847 43 19.65 43 19.55 43.19 19.55 43.19 19.65 43.19 20.2022847 43.6377153 20.65 44.19 20.65 44.7422847 20.65 45.19 20.2022847 45.19 19.65 45.1874249 19.0877812 44.9595155 18.5500732 44.5572915 18.157247 44.1550675 17.7644208 43.6121226 17.5492851 43.05 17.56z"/>
        <path id="Shape" fill="#3D454C" d="M40.62,14.12 C36.06,14.12 32.49,16.44 32.49,19.4 C32.49,22.36 36.06,24.68 40.62,24.68 C45.18,24.68 48.76,22.36 48.76,19.4 C48.76,16.44 45.18,14.12 40.62,14.12 Z M40.62,22.68 C37.01,22.68 34.49,20.95 34.49,19.4 C34.49,17.85 37.01,16.12 40.62,16.12 C44.23,16.12 46.76,17.85 46.76,19.4 C46.76,20.95 44.24,22.68 40.62,22.68 Z"/>
        <path id="Path" fill="#3D454C" d="M37.17 12.33C37.7222847 12.33 38.17 11.8822847 38.17 11.33 38.17 10.7777153 37.7222847 10.33 37.17 10.33 36.6177153 10.33 36.17 10.7777153 36.17 11.33 36.17 11.8822847 36.6177153 12.33 37.17 12.33zM43.69 12.33C44.2422847 12.33 44.69 11.8822847 44.69 11.33 44.69 10.7777153 44.2422847 10.33 43.69 10.33 43.1377153 10.33 42.69 10.7777153 42.69 11.33 42.69 11.8822847 43.1377153 12.33 43.69 12.33z"/>
        <path id="Shape" fill="#3D454C" d="M45,38.32 L32.44,33.22 L14.18,26.22 C13.7387433,26.0472009 13.2367894,26.2078407 12.9778474,26.6047236 C12.7189055,27.0016066 12.7740853,27.5257422 13.11,27.86 C17.2253146,32.1010838 21.6004274,36.0821025 26.21,39.78 C27.82,41.11 32,43.89 34,45.17 C35.8791792,46.3820716 37.8926407,47.3720235 40,48.12 L40,48.12 C34,51 21.43,44.56 16.87,41.88 C12.9773127,39.6675248 9.61009845,36.6380554 7,33 C5.09,30.38 2.37,26.15 2.67,22.6 C4.49,23.41 6.25,24.33 8.09,25.09 C9.28,25.58 9.8,23.65 8.62,23.16 C6.44,22.26 4.36,21.16 2.18,20.22 C1.97500219,20.1186887 1.73616322,20.1111723 1.52520071,20.199393 C1.31423819,20.2876137 1.1518506,20.4629158 1.08,20.68 C1.02497444,20.7530911 0.981159018,20.8339812 0.95,20.92 C-0.35,25.2 2.84,30.6 5.23,34 C8.20327023,38.1534223 12.0851451,41.5735763 16.58,44 C21.7529669,46.7859826 27.2752317,48.8677621 33,50.19 C36.89,51.19 40.28,51.56 43.11,48.25 C43.1525495,48.1867421 43.1893625,48.1198094 43.22,48.05 C44.64,47.16 44.9,45.19 45,44.39 L45.62,39.56 C45.6297619,39.4970428 45.6297619,39.4329572 45.62,39.37 L45.62,39.37 C45.6753157,38.9199075 45.4208371,38.4889356 45,38.32 L45,38.32 Z M43,44.13 C42.82,45.52 42.48,46.28 42,46.45 C41.5251221,46.5141797 41.0418481,46.4376903 40.61,46.23 C38.6380593,45.5421285 36.7548536,44.6223453 35,43.49 C32.74,42.03 28.87,39.42 27.44,38.24 C23.34,34.86 20.75,32.59 17.84,29.76 L31.69,35.08 L33.9,35.97 C33.391997,36.6997013 32.7786694,37.3500982 32.08,37.9 C31.6922764,38.2900375 31.6922764,38.9199625 32.08,39.31 C32.2677666,39.4993127 32.5233625,39.6057983 32.79,39.6057983 C33.0566375,39.6057983 33.3122334,39.4993127 33.5,39.31 C34.400515,38.5891147 35.1715579,37.7200006 35.78,36.74 L39,38 C38.4813014,38.9183256 37.8041963,39.7376228 37,40.42 C36,41.25 37.43,42.65 38.42,41.84 C39.4363074,40.9790584 40.2810786,39.9341205 40.91,38.76 L43.63,39.87 L43,44.13 Z"/>
        <path id="Path" fill="#3D454C" d="M6.16 28C8.37 33 12.74 36.37 17.16 39.34 18.23 40.05 19.23 38.34 18.16 37.61 14 34.86 10 31.74 7.88 27 7.36 25.85 5.64 26.87 6.16 28zM20.69 39C20.1377153 39 19.69 39.4477153 19.69 40 19.69 40.5522847 20.1377153 41 20.69 41 21.2422847 41 21.69 40.5522847 21.69 40 21.69 39.4477153 21.2422847 39 20.69 39z"/>
      </g>
    </g>
  </g>
</svg>
