<svg xmlns="http://www.w3.org/2000/svg" width="64" height="64" viewBox="0 0 64 64" style="background:#fff">
  <g id="Schwein-(Schnitzel)" fill="none" fill-rule="evenodd" stroke="none" stroke-width="1">
    <rect width="64" height="64" fill="#FFF"/>
    <g transform="translate(2 5)">
      <g id="Layer_2">
        <rect id="Rectangle" width="60" height="60" x="0" y="0"/>
        <rect id="Rectangle" width="60" height="60" x="0" y="0"/>
      </g>
      <g id="Layer_1" fill-rule="nonzero" transform="translate(4 3)">
        <g id="Group" fill="#E05362" opacity=".5" transform="translate(1 27)">
          <path id="Path" d="M37,6.33 C35.12,4.48 33.18,2.73 31.16,1.04 C26.86,-2.55 24.3,5.45 26.08,9.86 C25.7,10.08 25.34,10.31 24.99,10.56 C24.1946585,11.0682624 23.5491681,11.7793374 23.12,12.62 C23.046467,12.7654862 22.9829851,12.915838 22.93,13.07 L22.57,13.23 C22.16,13.03 19.77,13.61 19.08,13.63 C17.4513833,13.7249698 15.8186167,13.7249698 14.19,13.63 C10.9822323,13.4721967 7.90760159,12.2990745 5.41,10.28 C4.70470791,9.65332042 3.70580146,9.47909255 2.83,9.83 L2.23,10.09 C0.89,10.66 0.59,12.42 0.54,13.68 C0.3,21 8.41,23.85 14.49,24.47 C19.91,25.03 25.49,25.02 28.3,20.86 C31.05,19.63 33.74,18.32 36.39,16.86 C40,14.91 39.68,8.93 37,6.33 Z"/>
          <path id="Path" d="M10.39,11.15 C12.1587441,10.9113188 13.9047024,10.5266728 15.61,10 C17.4734923,9.61440945 19.2651663,8.93957933 20.92,8 C22.59,6.89 23,2.31 20.27,2.24 C18.4549378,2.36039763 16.6732303,2.78638463 15,3.5 C13.1813243,4.01973667 11.4086418,4.68867348 9.7,5.5 C8,6.36 7.85,11.43 10.39,11.15 Z"/>
        </g>
        <path id="Path" fill="#E05362" d="M47.5,17.83 C46.9695116,16.7594184 46.0392047,15.9404609 44.91,15.55 C43.7001781,15.1475011 42.4427858,14.9054363 41.17,14.83 C40.0545893,14.7550992 38.9354107,14.7550992 37.82,14.83 C36,15 35,15.34 34.07,16.8 C33.14,18.26 32.86,20.57 34.21,21.87 C35.21,22.78 35.84,23.45 37.33,23.38 C38.55,23.32 39.81,23.11 41.04,23.02 C42.27,22.93 43.28,22.86 44.37,22.68 C45.5136198,22.5772012 46.5635379,22.0051769 47.27,21.1 C47.9502412,20.1380983 48.0388965,18.8776514 47.5,17.83 L47.5,17.83 Z" opacity=".5"/>
        <path id="Path" fill="#E0A075" d="M40.66,3.92 C33.37,3.54 27.21,10.8 27.66,17.78 C27.8,20.1 30.94,24.78 32.89,20.91 C34.57,17.53 36.08,14.27 40.37,13.97 C44.21,13.71 46.88,16.39 49.11,19.13 C50.4,20.72 52.11,19.55 52.31,17.74 C52.6683371,14.3477011 51.6281226,10.9559362 49.4295282,8.34781816 C47.2309337,5.73970009 44.0640255,4.14069805 40.66,3.92 Z" opacity=".5"/>
        <path id="Path" fill="#3D454C" d="M3.87,44.48 C3.31771525,44.48 2.87,44.9277153 2.87,45.48 C2.87,46.0322847 3.31771525,46.48 3.87,46.48 C4.42228475,46.48 4.87,46.0322847 4.87,45.48 C4.87,44.9277153 4.42228475,44.48 3.87,44.48 Z"/>
        <path id="Path" fill="#3D454C" d="M41.24,35.43 L35,30.92 C34.044611,30.1431565 32.9619625,29.5375501 31.8,29.13 C29.56,28.47 27.42,29.22 25.36,29.93 C23.9671935,30.5414278 22.4703088,30.8808575 20.95,30.93 C20.73,30.93 20.51,30.93 20.3,30.87 C19.7389112,30.7988819 19.1710888,30.7988819 18.61,30.87 C18.033542,30.9615146 17.4719025,31.1296701 16.94,31.37 L4.41,36.37 C3.56387569,36.6613705 2.7652998,37.0758213 2.04,37.6 C0.622898806,38.7194208 -0.0804458201,40.5160076 0.2,42.3 C0.291772075,42.8435969 0.806170802,43.2103856 1.35,43.12 C1.89359695,43.0282279 2.2603856,42.5138292 2.17,41.97 C2.02119547,40.9063303 2.44281163,39.842794 3.28,39.17 C3.85253452,38.7493205 4.48222828,38.4125859 5.15,38.17 L17.68,33.17 C18.0602323,32.9966904 18.459694,32.8691312 18.87,32.79 C19.2721663,32.7466095 19.6778337,32.7466095 20.08,32.79 L20.85,32.86 C22.6273786,32.8415635 24.3838776,32.4746353 26.02,31.78 C27.87,31.14 29.61,30.53 31.23,31.01 C32.1709703,31.357506 33.0465859,31.8612386 33.82,32.5 L40.02,37.01 C40.24,37.17 40.84,37.61 40.85,37.9 C40.86,38.19 40.05,38.57 39.39,38.83 C39.05,38.97 38.71,39.11 38.39,39.27 C37.207072,39.9939892 36.2158139,40.9921072 35.5,42.18 C34.74,43.37 34,44.37 33,44.56 C32.5851372,44.614831 32.1648628,44.614831 31.75,44.56 C31.3869401,44.5400638 31.0230599,44.5400638 30.66,44.56 C29.3635554,44.5027255 28.1772594,45.2855195 27.72,46.5 C27.6402548,46.8269469 27.6132479,47.1645333 27.64,47.5 C27.6508342,47.6364519 27.6508342,47.7735481 27.64,47.91 C27.56,48.37 26.81,48.67 26.15,48.67 L26.15,48.67 C25.7306136,48.6588251 25.3127108,48.6153633 24.9,48.54 C24.2216043,48.409644 23.5294012,48.3659613 22.84,48.41 C21.7414564,48.5754087 20.687297,48.9596668 19.74,49.54 C19.34,49.75 18.94,49.96 18.53,50.13 C14.7055603,51.4242426 10.4784764,50.470736 7.58,47.66 C7.38175626,47.48086 7.12006698,47.3885056 6.85329774,47.4035348 C6.58652849,47.4185641 6.33686835,47.539727 6.16,47.74 C5.79350533,48.1517224 5.829287,48.7823745 6.24,49.15 C8.67906842,51.4389403 11.8951288,52.7182176 15.24,52.73 C16.6493399,52.7429481 18.0480368,52.484936 19.36,51.97 C19.83,51.77 20.28,51.54 20.72,51.31 C21.4143009,50.8564089 22.1877602,50.5375265 23,50.37 C23.5262308,50.3481524 24.0532023,50.3884305 24.57,50.49 C25.0790501,50.5770295 25.5937237,50.62716 26.11,50.64 L26.11,50.64 C27.63,50.64 29.29,49.82 29.57,48.22 C29.5935376,47.9471734 29.5935376,47.6728266 29.57,47.4 C29.5485167,47.25412 29.5485167,47.10588 29.57,46.96 C29.63,46.72 30.11,46.51 30.62,46.5 C30.9098072,46.4850434 31.2001928,46.4850434 31.49,46.5 C32.0802946,46.5849234 32.6797054,46.5849234 33.27,46.5 C35.13,46.17 36.2,44.67 37.14,43.35 C37.6789755,42.4250281 38.4252074,41.6377192 39.32,41.05 C39.57,40.93 39.85,40.81 40.14,40.69 C41.24,40.24 42.9,39.56 42.84,37.83 C42.6919311,36.8311675 42.1050497,35.9508454 41.24,35.43 Z"/>
        <path id="Path" fill="#3D454C" d="M13.38 47.51C13.8318675 47.5396335 14.2472512 47.2619171 14.3925588 46.8330254 14.5378664 46.4041337 14.3768263 45.9311261 14 45.68 11.3665973 43.8898802 8.84830054 41.9360292 6.46 39.83 6.04308501 39.494198 5.43566502 39.5462867 5.08200933 39.9481682 4.72835363 40.3500497 4.75391599 40.9591628 5.14 41.33 7.5896816 43.4884465 10.1713398 45.4923209 12.87 47.33 13.0202401 47.4357045 13.196694 47.4979823 13.38 47.51L13.38 47.51zM17 46.93C17.9605631 46.7927107 18.8531121 46.3551866 19.55 45.68 20.21 45.16 20.63 44.86 20.94 44.97 21.1046701 45.0514351 21.259085 45.1521405 21.4 45.27 21.6329183 45.4761363 21.8917768 45.6509498 22.17 45.79 23.3020151 46.2742622 24.6112748 46.0683549 25.54 45.26 26.2677033 44.6279565 26.865477 43.8603608 27.3 43 27.4970594 42.6900109 27.5083077 42.296938 27.3292979 41.9761872 27.150288 41.6554363 26.8098385 41.4586447 26.4425499 41.4636161 26.0752613 41.4685875 25.7402629 41.6745216 25.57 42 25.2638368 42.6316954 24.843426 43.2012842 24.33 43.68 23.995555 43.9863567 23.5256216 44.0962605 23.09 43.97 22.9403614 43.888096 22.7996102 43.7909107 22.67 43.68 22.3758546 43.4159558 22.0373005 43.2060522 21.67 43.06 20.3 42.58 19.24 43.42 18.38 44.06 17.9776065 44.4535854 17.48227 44.7390919 16.94 44.89 16.3877153 44.9065686 15.9534315 45.3677153 15.97 45.92 15.9865686 46.4722847 16.4477153 46.9065685 17 46.89L17 46.93z"/>
        <path id="Shape" fill="#3D454C" d="M50.55,8.8 L50.72,8.62 C52.72,6.52 53.12,4.51 53.12,1.54 C53.12,0.98771525 52.6722847,0.54 52.12,0.54 C49.22,0.54 47.27,0.94 45.25,3.04 C45.03,3.27 44.79,3.56 44.52,3.9 C41.9880881,3.07988635 39.2619119,3.07988635 36.73,3.9 C36.46,3.56 36.22,3.27 36,3.04 C34,0.94 32,0.54 29.12,0.54 C28.5677153,0.54 28.12,0.98771525 28.12,1.54 C28.12,4.54 28.51,6.54 30.53,8.62 L30.69,8.79 C30.98,9.1 31.32,9.45 31.69,9.79 C30.69,11.7 28.11,16.85 28.11,18.7 C28.11,22.97 33.25,27.7 40.61,27.7 C47.97,27.7 53.11,22.95 53.11,18.7 C53.11,16.85 50.53,11.7 49.54,9.79 C49.93,9.45 50.27,9.1 50.55,8.8 Z M51.12,18.71 C51.12,21.64 47.12,25.71 40.62,25.71 C34.12,25.71 30.12,21.62 30.12,18.71 C30.12,17.66 32.12,13.26 33.84,10.03 C34.0722701,9.59549353 33.9534486,9.05655275 33.56,8.76 C33.056567,8.34634676 32.5821188,7.89862801 32.14,7.42 L32,7.24 C30.7668266,6.0023322 30.1069963,4.30562557 30.18,2.56 C31.8521604,2.49590578 33.4656357,3.1816328 34.58,4.43 C34.938973,4.82198302 35.2729642,5.23613212 35.58,5.67 C35.8479987,6.02247026 36.3158823,6.15673251 36.73,6 C39.2355264,5.02704386 42.0144736,5.02704386 44.52,6 C44.9419918,6.16476472 45.422034,6.02526527 45.69,5.66 C45.9918801,5.22225953 46.3261501,4.80776483 46.69,4.42 C47.8043643,3.1716328 49.4178396,2.48590578 51.09,2.55 C51.1581143,4.2948102 50.4990177,5.98963002 49.27,7.23 L49.1,7.41 C48.6578812,7.88862801 48.183433,8.33634676 47.68,8.75 C47.3005245,9.04715392 47.1870039,9.57271221 47.41,10 C49.16,13.26 51.12,17.66 51.12,18.71 Z"/>
        <path id="Path" fill="#3D454C" d="M38.1 17.15C36.9440961 17.15 36.0055043 18.0841092 36 19.24 36 19.7922847 36.4477153 20.24 37 20.24 37.5522847 20.24 38 19.7922847 38 19.24 38 19.14 38.2 19.14 38.2 19.24 38.2 19.7922847 38.6477153 20.24 39.2 20.24 39.7522847 20.24 40.2 19.7922847 40.2 19.24 40.1944957 18.0841092 39.2559039 17.15 38.1 17.15zM43.05 17.15C41.9136494 17.1770522 41.0050908 18.1033389 41 19.24 41 19.7922847 41.4477153 20.24 42 20.24 42.5522847 20.24 43 19.7922847 43 19.24 43 19.14 43.19 19.14 43.19 19.24 43.19 19.7922847 43.6377153 20.24 44.19 20.24 44.7422847 20.24 45.19 19.7922847 45.19 19.24 45.1874249 18.6777812 44.9595155 18.1400732 44.5572915 17.747247 44.1550675 17.3544208 43.6121226 17.1392851 43.05 17.15z"/>
        <path id="Shape" fill="#3D454C" d="M40.62,13.71 C36.06,13.71 32.49,16.03 32.49,18.99 C32.49,21.95 36.06,24.27 40.62,24.27 C45.18,24.27 48.76,22 48.76,19 C48.76,16 45.18,13.71 40.62,13.71 Z M40.62,22.27 C37.01,22.27 34.49,20.54 34.49,18.99 C34.49,17.44 37.01,15.71 40.62,15.71 C44.23,15.71 46.76,17.44 46.76,18.99 C46.76,20.54 44.24,22.27 40.62,22.27 L40.62,22.27 Z"/>
        <path id="Path" fill="#3D454C" d="M37.17 11.92C37.7222847 11.92 38.17 11.4722847 38.17 10.92 38.17 10.3677153 37.7222847 9.92 37.17 9.92 36.6177153 9.92 36.17 10.3677153 36.17 10.92 36.17 11.4722847 36.6177153 11.92 37.17 11.92zM43.69 11.92C44.2422847 11.92 44.69 11.4722847 44.69 10.92 44.69 10.3677153 44.2422847 9.92 43.69 9.92 43.1377153 9.92 42.69 10.3677153 42.69 10.92 42.69 11.4722847 43.1377153 11.92 43.69 11.92z"/>
      </g>
    </g>
  </g>
</svg>
