<svg xmlns="http://www.w3.org/2000/svg" width="64" height="64" viewBox="0 0 64 64" style="background:#fff">
  <g id="Schwein-(Geschnetzeltes)" fill="none" fill-rule="evenodd" stroke="none" stroke-width="1">
    <rect width="64" height="64" fill="#FFF"/>
    <g transform="translate(2 3)">
      <g id="Layer_2">
        <rect id="Rectangle" width="60" height="60" x="0" y=".44"/>
        <rect id="Rectangle" width="60" height="60" x="0" y="0"/>
      </g>
      <g id="Layer_1" fill-rule="nonzero" transform="translate(5 2)">
        <path id="Path" fill="#E05362" d="M35.58 28.7C25.8 28.36 15.47 30.36 5.73 31.33 2.92 31.61 3.1 37.89 5.89 37.67 15.65 36.92 26.16 37.08 35.73 35.04 38.41 34.48 38.52 28.81 35.58 28.7zM44.36 44.09C38.21 43.72 31.59 45.76 25.36 46.09 19.13 46.42 12.61 46.26 6.24 46.54 4.24 46.62 4.06 51.07 5.92 51.54 12.353154 52.9631916 18.9539585 53.4781957 25.53 53.07 31.73 52.8 39.39 52.72 45 50 47.05 49 46.92 44.25 44.36 44.09zM46.5 18C45.9695116 16.9294184 45.0392047 16.1104609 43.91 15.72 42.7001781 15.3175011 41.4427858 15.0754363 40.17 15 39.0547637 14.9200678 37.9352363 14.9200678 36.82 15 35 15.18 34 15.54 33.07 17 32.14 18.46 31.86 20.77 33.21 22.07 34.21 22.98 34.84 23.65 36.33 23.58 37.55 23.52 38.81 23.31 40.04 23.22 41.27 23.13 42.28 23.06 43.37 22.88 44.5136198 22.7772012 45.5635379 22.2051769 46.27 21.3 46.9622895 20.3311902 47.0512028 19.0554774 46.5 18L46.5 18z" opacity=".5"/>
        <path id="Path" fill="#E0A075" d="M39.66,4.12 C32.37,3.74 26.21,11 26.65,18 C26.79,20.32 29.93,25 31.88,21.12 C33.56,17.74 35.07,14.48 39.36,14.18 C43.2,13.92 45.87,16.6 48.1,19.34 C49.39,20.93 51.1,19.76 51.3,17.95 C51.661249,14.5577059 50.623698,11.1647723 48.4269426,8.55470987 C46.2301873,5.94464744 43.0641696,4.34313477 39.66,4.12 Z" opacity=".5"/>
        <path id="Shape" fill="#3D454C" d="M3.82,41.14 C4.28590834,41.3478283 4.78985015,41.4567887 5.3,41.46 C7.05,41.57 8.81,41.6300013 10.57,41.6300013 C19.9637364,41.631692 29.2884294,40.0251526 38.14,36.88 C38.503502,36.7739786 38.8228113,36.5529183 39.05,36.25 C39.27,35.93 39.52,35.25 38.73,34.39 C37.08,32.58 35.07,30.6 32,30 C30.1844753,29.7237176 28.3354529,29.7541403 26.53,30.09 C25.5857167,30.2325752 24.634258,30.3227134 23.68,30.36 C23.04,30.36 22.39,30.36 21.68,30.3 C20.97,30.24 20.33,30.24 19.68,30.25 C17.9550952,30.3145808 16.2404638,30.5456542 14.56,30.94 C13.1366824,31.2718342 11.6884548,31.4858909 10.23,31.58 C9.44,31.58 8.65,31.58 7.81,31.58 C6.97,31.58 5.9,31.52 4.94,31.58 C3.78,31.65 0.94,32.01 0.11,33.84 C-0.0387503942,34.1670906 -0.000575251384,34.548842 0.21,34.84 L2.69,39.95 C2.91867174,40.4647711 3.31773697,40.8850257 3.82,41.14 L3.82,41.14 Z M2.25,34.32 C3.11376175,33.8100656 4.09697415,33.537526 5.1,33.53 C5.96,33.48 6.84,33.53 7.77,33.53 C8.7,33.53 9.49,33.59 10.35,33.53 C11.914905,33.4382015 13.4699066,33.2208357 15,32.88 C16.5584869,32.5096954 18.1493243,32.2920019 19.75,32.23 C20.38,32.23 21,32.23 21.63,32.28 C22.26,32.33 23.02,32.35 23.74,32.34 C24.767977,32.3012094 25.7929426,32.2043885 26.81,32.05 C28.3959203,31.7447933 30.0217855,31.7076113 31.62,31.94 C33.652032,32.4584918 35.4641471,33.615161 36.79,35.24 C26.7225578,38.7088061 16.0663448,40.143231 5.44,39.46 C5.31,39.46 5.12,39.46 4.95,39.41 C7.07,37.92 10.95,38.5 13.41,38.21 C15.8143825,37.9181171 18.1941056,37.450194 20.53,36.81 C21.0629548,36.6636445 21.3763554,36.1129548 21.23,35.58 C21.0836445,35.0470452 20.5329548,34.7336446 20,34.88 C16.3260751,35.8464402 12.5564466,36.4031647 8.76,36.54 C7.05986282,36.4538737 5.37135194,36.8638413 3.9,37.72 L2.25,34.32 Z"/>
        <path id="Path" fill="#3D454C" d="M23.48 36.37C24.0322847 36.37 24.48 35.9222847 24.48 35.37 24.48 34.8177153 24.0322847 34.37 23.48 34.37 22.9277153 34.37 22.48 34.8177153 22.48 35.37 22.48 35.9222847 22.9277153 36.37 23.48 36.37zM44.85 43.55C44.5406279 43.0848437 44.0875918 42.7336529 43.56 42.55 43.0541246 42.3981671 42.5281355 42.3239891 42 42.33 35.3850713 42.1947841 28.7700682 42.5960988 22.22 43.53 21.8627344 43.5800172 21.5592912 43.8168339 21.4239746 44.1512436 21.288658 44.4856532 21.3420257 44.8668511 21.5639746 45.1512436 21.7859235 45.435636 22.1427344 45.5800172 22.5 45.53 28.9433004 44.6033732 35.4519439 44.2087073 41.96 44.35 42.2960586 44.3450313 42.6315799 44.3785834 42.96 44.45 43.1 44.45 43.15 44.56 43.29 44.75L46.2 48.75C45.1848503 49.1697534 44.0984672 49.390425 43 49.4 42 49.48 40.92 49.48 39.88 49.49 38.84 49.5 37.88 49.49 36.88 49.56 35.1125596 49.6984156 33.3556916 49.9489196 31.62 50.31 29.8089177 50.7024072 27.970024 50.9531654 26.12 51.06 25.39 51.06 24.66 51.06 23.92 51.06 23.18 51.06 22.3 51.06 21.49 51.06 20.29 51.12 19.13 51.27 18 51.42 16.1262265 51.7550699 14.2165489 51.8424847 12.32 51.68 10.0734958 51.347342 7.9494703 50.4454057 6.15 49.06 8.45 48.36 10.84 47.73 13.27 47.18 13.8222847 47.0557359 14.1692641 46.5072847 14.045 45.955 13.9207359 45.4027153 13.3722847 45.0557359 12.82 45.18 9.98 45.83 7.18 46.58 4.5 47.42 4.11225042 47.504924 3.76183832 47.7116671 3.5 48.01 3.33 48.24 2.86 49.07 4.04 49.96 6.31942944 51.8905263 9.08796767 53.1536718 12.04 53.61 12.6885362 53.7156594 13.3432449 53.779126 14 53.8 15.4400986 53.7749628 16.8767926 53.6513403 18.3 53.43 19.38 53.29 20.51 53.14 21.62 53.09 22.38 53.09 23.16 53.09 23.94 53.09 24.72 53.09 25.48 53.09 26.24 53.09 28.177305 52.9619986 30.1025288 52.691264 32 52.28 33.6495832 51.9313494 35.3195929 51.687528 37 51.55 37.92 51.49 38.9 51.49 39.85 51.49 40.8 51.49 42.03 51.49 43.12 51.4 44.74 51.27 47.59 50.82 48.4 49.2 48.6122905 48.800784 48.5302908 48.3087857 48.2 48L44.85 43.55z"/>
        <path id="Path" fill="#3D454C" d="M17.54,46.1 C18.0922847,46.1 18.54,45.6522847 18.54,45.1 C18.54,44.5477153 18.0922847,44.1 17.54,44.1 C16.9877153,44.1 16.54,44.5477153 16.54,45.1 C16.54,45.6522847 16.9877153,46.1 17.54,46.1 Z"/>
        <path id="Shape" fill="#3D454C" d="M49.55,9.15 L49.72,8.97 L49.72,8.97 C51.72,6.87 52.12,4.86 52.12,1.89 C52.12,1.33771525 51.6722847,0.89 51.12,0.89 C48.22,0.89 46.27,1.29 44.25,3.39 C44.03,3.62 43.79,3.91 43.52,4.25 C40.9880881,3.42988635 38.2619119,3.42988635 35.73,4.25 C35.46,3.91 35.22,3.62 35,3.39 C33,1.29 31,0.89 28.12,0.89 C27.5677153,0.89 27.12,1.33771525 27.12,1.89 C27.12,4.89 27.51,6.89 29.53,8.97 L29.69,9.15 C29.98,9.45 30.32,9.8 30.69,10.15 C29.69,12.06 27.11,17.21 27.11,19.06 C27.11,23.33 32.25,28.06 39.61,28.06 C46.97,28.06 52.11,23.31 52.11,19.06 C52.11,17.21 49.53,12.06 48.54,10.15 C48.93,9.8 49.26,9.45 49.55,9.15 Z M50.12,19.06 C50.12,21.99 46.12,26.06 39.62,26.06 C33.12,26.06 29.12,21.97 29.12,19.06 C29.12,18.06 31.12,13.61 32.84,10.38 C33.0722701,9.94549353 32.9534486,9.40655275 32.56,9.11 C32.056567,8.69634676 31.5821188,8.24862801 31.14,7.77 L31,7.59 C29.7668266,6.3523322 29.1069963,4.65562557 29.18,2.91 C30.8497814,2.84760093 32.4612756,3.52882347 33.58,4.77 C33.9362371,5.1678158 34.2700854,5.5851262 34.58,6.02 C34.847966,6.38526527 35.3280082,6.52476472 35.75,6.36 C38.2555264,5.38704386 41.0344736,5.38704386 43.54,6.36 C43.9607123,6.51037084 44.4301276,6.36342346 44.69,6 C44.9948014,5.56128765 45.3288956,5.14366997 45.69,4.75 C46.8087244,3.50882347 48.4202186,2.82760093 50.09,2.89 C50.1581143,4.6348102 49.4990177,6.32963002 48.27,7.57 L48.09,7.75 C47.6565062,8.23357223 47.1850005,8.68166983 46.68,9.09 C46.2865514,9.38655275 46.1677299,9.92549353 46.4,10.36 C48.16,13.61 50.12,18 50.12,19.06 Z"/>
        <path id="Path" fill="#3D454C" d="M37.1 17.5C35.9440961 17.5 35.0055043 18.4341092 35 19.59 35 20.1422847 35.4477153 20.59 36 20.59 36.5522847 20.59 37 20.1422847 37 19.59 37 19.49 37.2 19.49 37.2 19.59 37.2 20.1422847 37.6477153 20.59 38.2 20.59 38.7522847 20.59 39.2 20.1422847 39.2 19.59 39.1944957 18.4341092 38.2559039 17.5 37.1 17.5L37.1 17.5zM42.05 17.5C40.9136494 17.5270522 40.0050908 18.4533389 40 19.59 40 20.1422847 40.4477153 20.59 41 20.59 41.5522847 20.59 42 20.1422847 42 19.59 42 19.49 42.19 19.49 42.19 19.59 42.19 20.1422847 42.6377153 20.59 43.19 20.59 43.7422847 20.59 44.19 20.1422847 44.19 19.59 44.1874249 19.0277812 43.9595155 18.4900732 43.5572915 18.097247 43.1550675 17.7044208 42.6121226 17.4892851 42.05 17.5L42.05 17.5z"/>
        <path id="Shape" fill="#3D454C" d="M39.62,14.06 C35.06,14.06 31.49,16.38 31.49,19.34 C31.49,22.3 35.06,24.62 39.62,24.62 C44.18,24.62 47.76,22.3 47.76,19.34 C47.76,16.38 44.18,14.06 39.62,14.06 Z M39.62,22.62 C36.01,22.62 33.49,20.89 33.49,19.34 C33.49,17.79 36.01,16.06 39.62,16.06 C43.23,16.06 45.76,17.79 45.76,19.34 C45.76,20.89 43.24,22.62 39.62,22.62 L39.62,22.62 Z"/>
        <path id="Path" fill="#3D454C" d="M36.17 12.27C36.7222847 12.27 37.17 11.8222847 37.17 11.27 37.17 10.7177153 36.7222847 10.27 36.17 10.27 35.6177153 10.27 35.17 10.7177153 35.17 11.27 35.17 11.8222847 35.6177153 12.27 36.17 12.27zM42.69 12.27C43.2422847 12.27 43.69 11.8222847 43.69 11.27 43.69 10.7177153 43.2422847 10.27 42.69 10.27 42.1377153 10.27 41.69 10.7177153 41.69 11.27 41.69 11.8222847 42.1377153 12.27 42.69 12.27z"/>
      </g>
    </g>
  </g>
</svg>
