<svg xmlns="http://www.w3.org/2000/svg" width="64" height="64" viewBox="0 0 64 64" style="background:#fff">
  <g id="Schwein-(Ragout,-Haxen)" fill="none" fill-rule="evenodd" stroke="none" stroke-width="1">
    <rect width="64" height="64" fill="#FFF"/>
    <g transform="translate(2 4)">
      <g id="Layer_2">
        <rect id="Rectangle" width="60" height="60" x="0" y="0"/>
        <rect id="Rectangle" width="60" height="60" x="0" y="0"/>
      </g>
      <g id="Layer_1" fill-rule="nonzero" transform="translate(4 2)">
        <path id="Path" fill="#E05362" d="M15.55 31.8C13.41 30.23 10.5 29.57 7.97 28.94 5.44 28.31 5.43 32.99 7.2 33.94 9.47 35.16 12.2 36.81 14.77 37 17 37.16 16.82 32.74 15.55 31.8zM31.23 35.6C31.54 35.94 30.93 35.25 30.92 35.24L30.62 34.93C30.47 34.77 30.48 34.72 30.62 34.93 30.53 34.78 30.41 34.64 30.32 34.49 30.23 34.34 30.26 34.38 30.22 34.32L30.14 34.15C30.03 33.87 29.93 33.59 29.83 33.32 29.57 32.64 28.9 31.94 28.12 32.14 27.3336651 32.4338922 26.7932842 33.1622315 26.74 34 26.36 36.52 27.46 39.79 29.9 40.94 31.02 41.48 31.9 40.08 32.1 39.21 32.4497767 37.9371182 32.1212219 36.5738045 31.23 35.6zM22.38 35.65C21.032435 35.6032764 19.6851875 35.7514736 18.38 36.09 17.97 36.19 17.59 36.87 17.47 37.21 17.3137814 37.7039842 17.2660273 38.2258676 17.33 38.74 17.3086527 39.6993856 17.9717242 40.5387166 18.91 40.74 20.1189692 40.8786775 21.3416461 40.8416267 22.54 40.63 24.66 40.24 24.68 35.82 22.38 35.65zM23.84 28.4C21.9384578 27.5730541 19.9088952 27.0791939 17.84 26.94 16.95 26.85 16.54 28.19 16.51 28.83 16.3600831 29.7467466 16.7788238 30.6632356 17.57 31.15 19.4600882 32.0327362 21.4913412 32.5744036 23.57 32.75 24.5 32.75 24.9 31.51 24.94 30.75 25.0648723 29.8188904 24.6350016 28.9005303 23.84 28.4L23.84 28.4zM44.8 34.26C44.5276242 33.3515227 43.7418558 32.6914773 42.8 32.58 42.1395921 32.4680724 41.4682789 32.4345068 40.8 32.48 38.59 32.68 38.1 35.84 38.8 37.48 39.041379 38.2045615 39.5588293 38.8046601 40.24 39.15 40.5981535 39.2739148 40.9716585 39.3479428 41.35 39.37 41.86 39.44 42.35 39.54 42.89 39.56 43.89 39.56 44.53 38.56 44.83 37.78 45.2380799 36.6402921 45.2274461 35.3925869 44.8 34.26L44.8 34.26z" opacity=".5"/>
        <path id="Path" fill="#E0A075" d="M45.42,39.32 C38.42,40.79 32.15,42.9 24.87,42.74 C17.36,42.58 10.75,40.25 3.56,38.49 C1.46,37.98 1.28,41.7 2.56,42.67 C13.46,51.22 34.14,52.84 46.21,45.81 C48,44.75 48.32,38.71 45.42,39.32 Z" opacity=".5"/>
        <path id="Path" fill="#E05362" d="M47.5,18.3 C46.9693221,17.2251546 46.0400341,16.3999182 44.91,16 C43.6977232,15.6069664 42.4415511,15.3651364 41.17,15.28 C40.0544284,15.2100616 38.9355716,15.2100616 37.82,15.28 C35.96,15.39 35,15.76 34.07,17.22 C33.14,18.68 32.86,20.99 34.21,22.29 C35.21,23.2 35.84,23.87 37.33,23.79 C38.55,23.73 39.81,23.52 41.04,23.43 C42.27,23.34 43.28,23.27 44.37,23.1 C45.51344,22.9889225 46.5614714,22.4143121 47.27,21.51 C47.9308482,20.5636091 48.0191702,19.3309405 47.5,18.3 L47.5,18.3 Z" opacity=".5"/>
        <path id="Path" fill="#E0A075" d="M40.66,4.39 C33.37,4.01 27.21,11.27 27.66,18.25 C27.8,20.57 30.94,25.3 32.89,21.38 C34.57,18 36.08,14.73 40.37,14.44 C44.21,14.18 46.88,16.85 49.11,19.59 C50.4,21.18 52.11,20.01 52.31,18.21 C52.6712544,14.8171103 51.6320971,11.4237566 49.4329257,8.81495409 C47.2337543,6.20615159 44.0651013,4.60792265 40.66,4.39 L40.66,4.39 Z" opacity=".5"/>
        <path id="Shape" fill="#3D454C" d="M45.55 34.13C45.2001905 32.8594699 44.0377155 31.9845329 42.72 32L40.36 31.93C39.5734937 31.8877344 38.8061853 32.1822935 38.25 32.74 38.1972234 32.7949878 38.1503047 32.8553119 38.11 32.92 37.5123755 32.5396964 36.8183667 32.3384338 36.11 32.34 34.7101271 32.3014556 33.3330094 32.6999109 32.17 33.48 31.558597 32.3577646 30.6345303 31.4371718 29.51 30.83 28.8377939 30.6121851 28.1002735 30.7812002 27.59 31.27 27.4166424 31.4051043 27.2529123 31.5521272 27.1 31.71 26.6103497 31.5045469 26.1055026 31.337379 25.59 31.21 26.12 30.21 26.72 28.94 26 27.99 25.28 27.04 23.09 26.99 21.9 26.74 20.4752179 26.3479488 18.9896754 26.2258495 17.52 26.38 16.25 26.71 15.52 27.92 14.87 29.03 13.6386867 28.5787803 12.3793701 28.2080001 11.1 27.92 10.2107242 27.6335559 9.23594416 27.8647291 8.57 28.52 7.0841505 29.8997228 5.71296465 31.3979942 4.47 33 4.15620225 33.3315971 4.1068231 33.8336185 4.35 34.22.71 35.09.13 36.03.13 36.93L.13 36.93C.13 37.06.43 49.55 17.69 54.02 17.7616605 54.0850681 17.8285029 54.1552525 17.89 54.23 18.1918288 54.5937877 18.5959469 54.8585547 19.05 54.99 20.2747682 55.2333961 21.5140377 55.3970732 22.76 55.48 22.7965287 55.4844983 22.8334713 55.4844983 22.87 55.48L23.43 55.48C23.7833333 55.48 24.1433333 55.48 24.51 55.48L25.04 55.48 25.22 55.48 25.75 55.48C26.11 55.48 26.48 55.48 26.83 55.48L27.39 55.48C27.4265287 55.4844983 27.4634713 55.4844983 27.5 55.48 28.7457433 55.400375 29.985011 55.2400385 31.21 55 31.6640531 54.8685547 32.0681712 54.6037877 32.37 54.24 32.4314971 54.1652525 32.4983395 54.0950681 32.57 54.03 49.83 49.59 50.13 37.1 50.13 37L50.13 37C50.13 35.7 48.74 34.84 45.55 34.13zM45.74 36.23C46.4860027 36.386267 47.2086631 36.6383578 47.89 36.98 47.255596 37.29692 46.583571 37.5321287 45.89 37.68L45.89 37.68 45.74 36.23zM39.69 34.12C39.8623526 33.9752149 40.0861195 33.9066412 40.31 33.93L42.67 34C43.22 34 43.59 34.36 43.6 34.54L43.86 37.82C43.8679355 37.9133043 43.8916029 38.0045931 43.93 38.09 42.79 38.3 41.45 38.49 39.93 38.67 39.93 38.67 39.93 38.59 39.93 38.55L39.65 34.22C39.6449866 34.1819725 39.6601438 34.1440796 39.69 34.12zM33.4 35.12C33.64 34.73 34.91 34.39 36.11 34.39 36.792171 34.3667969 37.419013 34.7635323 37.69 35.39L37.69 35.39 37.9 38.64C37.8909743 38.7030118 37.8909743 38.7669882 37.9 38.83L37.43 38.83 37.43 38.05C37.4371384 36.907318 36.631162 35.9208365 35.51 35.7L34.04 35.42C33.8277092 35.3901738 33.6122908 35.3901738 33.4 35.42 33.43 35.36 33.34 35.17 33.4 35.07L33.4 35.12zM33.4 37.79C33.4353266 37.6136657 33.6018608 37.4953388 33.78 37.52L35.25 37.79C35.4280299 37.8331124 35.5499662 37.9970956 35.54 38.18L35.54 39.12C34.7333333 39.18 33.8933333 39.23 33.02 39.27L33.4 37.79zM28.96 32.79C29.78 33.28 30.72 34.86 31.55 36.27L31.76 36.61C31.6273929 36.8087752 31.5293447 37.0285385 31.47 37.26L30.93 39.33 29.39 39.33C28.4742446 37.8586464 27.859068 36.2204416 27.58 34.51 27.8583235 33.8151063 28.3260531 33.2122549 28.93 32.77L28.96 32.79zM11.58 38.79L11.3 37.44C11.4974755 37.2779211 11.7304838 37.1648436 11.98 37.11L12.05 37.11 14.34 36.59C14.5959143 36.5248143 14.8640857 36.5248143 15.12 36.59L15.71 39.16C14.2 39 12.82 38.92 11.55 38.8L11.58 38.79zM18.51 32.06C18.9019322 32.3916757 19.1698459 32.8464241 19.27 33.35 18.9054546 34.6140936 18.1789264 35.7438622 17.18 36.6L17 36C16.897279 35.580983 16.6306863 35.2207226 16.26 35 16.0344913 34.8634013 15.7877701 34.7653888 15.53 34.71L18.51 32.06zM21.2 32.8C22.7874268 32.7082112 24.3785809 32.8977956 25.9 33.36 25.7042024 33.7338248 25.5980709 34.14808 25.59 34.57 25.4734468 34.5228786 25.3529853 34.4860709 25.23 34.46 24.1597279 34.2726849 23.0577094 34.4711191 22.12 35.02L20.78 35.11C21.048974 34.5934914 21.215371 34.0297792 21.27 33.45 21.2652583 33.2331705 21.2316287 33.017941 21.17 32.81L21.2 32.8zM17.69 38.8L17.69 38.8C18.2972128 38.3220585 18.8565114 37.7862036 19.36 37.2L22.49 36.9999818C22.7168656 36.9979755 22.9097591 37.1651498 22.94 37.39L23.33 39.39C21.33 39.39 19.45 39.31 17.7 39.23 17.7138801 39.0953336 17.7002718 38.9592512 17.66 38.83L17.69 38.8zM25.37 39.38L24.87 37C24.8257115 36.7919083 24.7551457 36.5902917 24.66 36.4L24.81 36.4C25.3970816 36.5536241 25.893559 36.9450077 26.18 37.48 26.2121606 37.5386846 26.2564822 37.589825 26.31 37.63 26.5301533 38.2270528 26.7907576 38.8084009 27.09 39.37L25.37 39.38zM18.31 28.28C19.0462586 28.2460455 19.7836103 28.3167504 20.5 28.49 21.29 28.6 22.05 28.8 22.84 28.93 23.3434952 28.9594941 23.8427091 29.0399043 24.33 29.17 24.1484388 29.6764296 23.920819 30.1651425 23.65 30.63 23.6208373 30.6970516 23.6006627 30.7676627 23.59 30.84 22.4695473 30.7262308 21.3404527 30.7262308 20.22 30.84L20.16 30.84C19.9514927 30.6077662 19.7086839 30.4087979 19.44 30.25 18.8706364 29.8956296 18.1493636 29.8956296 17.58 30.25 17.32 30.1 17.04 29.95 16.75 29.81 17.0427893 29.1281781 17.5925145 28.5892318 18.28 28.31L18.31 28.28zM9.1 30.9C10.22 29.68 10.27 29.73 11.76 30.28 13.08 30.76 14.57 31.08 15.89 31.67L12.81 34.32C12.5714821 34.5011292 12.3766888 34.7335141 12.24 35L11.83 35.09C10.2 34.61 8.49 33.99 6.83 33.35 7.6 32.53 8.35 31.71 9.1 30.9zM7.15 35.72C7.20814941 35.7044793 7.26499068 35.6844177 7.32 35.66 8.05 35.94 8.78 36.21 9.52 36.45 9.27788878 36.811058 9.18804785 37.2530754 9.27 37.68L9.46 38.56C5.75 38.1 3.3 37.51 2.39 37 3.90806623 36.3501331 5.5107361 35.9191631 7.15 35.72zM32 52.15C31.5828626 52.2843998 31.2143135 52.5382119 30.94 52.88L30.72 53.09C29.3999865 53.3462509 28.063164 53.5066696 26.72 53.57L25.72 53.57 24.56 53.57 23.56 53.57C22.2167864 53.5072656 20.8799208 53.3468417 19.56 53.09L19.34 52.88C19.0656865 52.5382119 18.6971374 52.2843998 18.28 52.15 6.61 49.15 3.38 42.54 2.49 39.15 8.04 41.32 21.83 41.45 25.14 41.45 28.45 41.45 42.23 41.32 47.79 39.15 46.89 42.54 43.65 49.16 32 52.15zM50.29 9.12L50.45 8.95C52.45 6.84 52.86 4.83 52.86 1.86 52.86 1.30771525 52.4122847.86 51.86.86 49 .86 47 1.26 45 3.37 44.78 3.6 44.54 3.88 44.27 4.22 41.7365028 3.40998735 39.0134972 3.40998735 36.48 4.22 36.21 3.88 35.97 3.6 35.75 3.37 33.75 1.26 31.75.86 28.88.86 28.3277153.86 27.88 1.30771525 27.88 1.86 27.88 4.86 28.26 6.86 30.28 8.95L30.44 9.12C30.73 9.43 31.07 9.78 31.44 10.12 30.44 12.03 27.87 17.12 27.87 19.03 27.87 23.29 33 28.03 40.37 28.03 47.74 28.03 52.87 23.28 52.87 19.03 52.87 17.18 50.28 12.03 49.29 10.12 49.66 9.78 50 9.43 50.29 9.12zM50.86 19C50.86 21.93 46.86 26 40.36 26 33.86 26 29.86 22 29.86 19 29.86 17.95 31.86 13.55 33.57 10.32 33.8081174 9.88309292 33.6887874 9.33758416 33.29 9.04 32.7844024 8.63242169 32.3097644 8.18786636 31.87 7.71L31.7 7.53C30.4709823 6.28963002 29.8118857 4.5948102 29.88 2.85 31.5505511 2.78338727 33.1637616 3.46533537 34.28 4.71 34.6411044 5.10366997 34.9751986 5.52128765 35.28 5.96 35.547966 6.32526527 36.0280082 6.46476472 36.45 6.3 38.9529265 5.31326417 41.7370735 5.31326417 44.24 6.3 44.6559003 6.47856497 45.1398836 6.35551838 45.42 6 45.7248014 5.56128765 46.0588956 5.14366997 46.42 4.75 47.5385008 3.50257651 49.1560047 2.82036398 50.83 2.89 50.8930576 4.6358792 50.23062 6.3299819 49 7.57L48.83 7.75C48.3902356 8.22786636 47.9155976 8.67242169 47.41 9.08 47.0112126 9.37758416 46.8918826 9.92309292 47.13 10.36 48.9 13.59 50.86 18 50.86 19z"/>
        <path id="Path" fill="#3D454C" d="M37.83 17.47C36.6741092 17.4755043 35.74 18.4140961 35.74 19.57 35.74 20.1222847 36.1877153 20.57 36.74 20.57 37.2922847 20.57 37.74 20.1222847 37.74 19.57 37.74 19.46 37.93 19.47 37.93 19.57 37.93 20.1222847 38.3777153 20.57 38.93 20.57 39.4822847 20.57 39.93 20.1222847 39.93 19.57 39.93 18.410202 38.989798 17.47 37.83 17.47zM42.78 17.47C41.6224766 17.475473 40.685473 18.4124766 40.68 19.57 40.68 20.1222847 41.1277153 20.57 41.68 20.57 42.2322847 20.57 42.68 20.1222847 42.68 19.57 42.68 19.47 42.88 19.46 42.88 19.57 42.88 20.1222847 43.3277153 20.57 43.88 20.57 44.4322847 20.57 44.88 20.1222847 44.88 19.57 44.88 18.410202 43.939798 17.47 42.78 17.47z"/>
        <path id="Shape" fill="#3D454C" d="M40.36,14 C35.8,14 32.22,16.32 32.22,19.28 C32.22,22.24 35.8,24.56 40.36,24.56 C44.92,24.56 48.49,22.24 48.49,19.28 C48.49,16.32 44.92,14 40.36,14 Z M40.36,22.56 C36.74,22.56 34.22,20.84 34.22,19.28 C34.22,17.72 36.74,16 40.36,16 C43.98,16 46.49,17.73 46.49,19.28 C46.49,20.83 44,22.59 40.36,22.59 L40.36,22.56 Z"/>
        <path id="Path" fill="#3D454C" d="M36.91 12.25C37.4622847 12.25 37.91 11.8022847 37.91 11.25 37.91 10.6977153 37.4622847 10.25 36.91 10.25 36.3577153 10.25 35.91 10.6977153 35.91 11.25 35.91 11.8022847 36.3577153 12.25 36.91 12.25zM43.42 12.25C43.9722847 12.25 44.42 11.8022847 44.42 11.25 44.42 10.6977153 43.9722847 10.25 43.42 10.25 42.8677153 10.25 42.42 10.6977153 42.42 11.25 42.42 11.8022847 42.8677153 12.25 43.42 12.25z"/>
      </g>
    </g>
  </g>
</svg>
