<svg xmlns="http://www.w3.org/2000/svg" width="64" height="64" viewBox="0 0 64 64" style="background:#fff">
  <g id="Schwein-(Halsbraten)" fill="none" fill-rule="evenodd" stroke="none" stroke-width="1">
    <rect width="64" height="64" fill="#FFF"/>
    <g transform="translate(2 7)">
      <g id="Layer_2">
        <rect id="Rectangle" width="60" height="60" x="0" y="0"/>
        <rect id="Rectangle" width="60" height="60" x="0" y="0"/>
      </g>
      <g id="Layer_1" fill-rule="nonzero" transform="translate(4 3)">
        <path id="Shape" fill="#E05362" d="M39.49,40.83 C38.58,36.57 35.38,34.98 31.7,34.71 C31.7246456,34.1360923 31.5153435,33.5767505 31.12,33.16 C24,27.92 12.8,27.86 5.4,32.62 C5.14205275,32.8212875 4.97331046,33.115689 4.93,33.44 C4.41119655,33.6311998 3.91218772,33.8723316 3.44,34.16 C2.39,33.69 1.18,34.79 1.08,36.69 C1.05064646,40.3745632 2.51540993,43.9138069 5.14,46.5 C7.14,48.58 11.24,51.56 14.22,50.17 C14.5748912,49.9968994 14.8731799,49.7263585 15.08,49.39 C15.2671469,49.5892969 15.4788395,49.7640273 15.71,49.91 C15.9799728,50.1207354 16.3298244,50.2001762 16.664333,50.1267003 C16.9988417,50.0532244 17.2831955,49.8344784 17.44,49.53 C18.15,48.41 18.16,47.05 18.81,45.93 C20.06,43.75 22.86,42.93 25.13,42.42 C29.51,41.42 33.3,40.91 36.61,44.42 C38.56,46.43 39.76,42.11 39.49,40.83 Z M8.11,41.48 C7.22556225,40.7494958 6.48027583,39.8653151 5.91,38.87 C7.5106727,38.7859442 9.11574602,38.8663654 10.7,39.11 C12.4337218,39.5042398 14.1128151,40.1087133 15.7,40.91 C15.3589641,41.4280273 15.067668,41.9771372 14.83,42.55 C14.5967097,43.1335837 14.4127326,43.7356903 14.28,44.35 C12.32,43.14 10,43 8.11,41.48 L8.11,41.48 Z M22,36.18 C21.018804,36.497419 20.0788631,36.9304632 19.2,37.47 C19.1092934,36.8487961 18.8259918,36.2717002 18.39,35.82 C16.9274333,34.6605516 15.2427803,33.8131201 13.44,33.33 C17.8478635,32.9007304 22.2954408,33.4891791 26.44,35.05 C24.9357179,35.3238521 23.4521779,35.7014197 22,36.18 Z" opacity=".5"/>
        <path id="Path" fill="#E05362" d="M47.5,17.63 C46.9695116,16.5594184 46.0392047,15.7404609 44.91,15.35 C43.7001781,14.9475011 42.4427858,14.7054363 41.17,14.63 C40.0545893,14.5550992 38.9354107,14.5550992 37.82,14.63 C35.96,14.75 35,15.11 34.07,16.57 C33.14,18.03 32.86,20.34 34.21,21.64 C35.21,22.55 35.84,23.22 37.33,23.15 C38.55,23.09 39.81,22.87 41.04,22.79 C42.27,22.71 43.28,22.63 44.37,22.45 C45.5136198,22.3472012 46.5635379,21.7751769 47.27,20.87 C47.9383425,19.9150705 48.0267438,18.6697659 47.5,17.63 Z" opacity=".5"/>
        <path id="Path" fill="#E0A075" d="M40.66,3.72 C33.37,3.34 27.21,10.6 27.66,17.58 C27.8,19.9 30.94,24.63 32.89,20.71 C34.57,17.33 36.08,14.07 40.37,13.77 C44.21,13.51 46.88,16.18 49.11,18.93 C50.4,20.52 52.11,19.35 52.31,17.54 C52.6683371,14.1477011 51.6281226,10.7559362 49.4295282,8.14781816 C47.2309337,5.53970009 44.0640255,3.94069805 40.66,3.72 Z" opacity=".5"/>
        <path id="Shape" fill="#3D454C" d="M50.55,8.8 L50.72,8.62 C52.72,6.52 53.12,4.51 53.12,1.54 C53.12,0.98771525 52.6722847,0.54 52.12,0.54 C49.22,0.54 47.27,0.94 45.25,3.04 C45.03,3.27 44.79,3.56 44.52,3.9 C41.9880881,3.07988635 39.2619119,3.07988635 36.73,3.9 C36.46,3.56 36.22,3.27 36,3.04 C34,0.94 32,0.54 29.12,0.54 C28.5677153,0.54 28.12,0.98771525 28.12,1.54 C28.12,4.54 28.51,6.54 30.53,8.62 L30.69,8.79 C30.98,9.1 31.32,9.45 31.69,9.79 C30.69,11.7 28.11,16.85 28.11,18.7 C28.11,22.97 33.25,27.7 40.61,27.7 C47.97,27.7 53.11,22.95 53.11,18.7 C53.11,16.85 50.53,11.7 49.54,9.79 C49.93,9.45 50.27,9.1 50.55,8.8 Z M51.12,18.71 C51.12,21.64 47.12,25.71 40.62,25.71 C34.12,25.71 30.12,21.62 30.12,18.71 C30.12,17.66 32.12,13.26 33.84,10.03 C34.0722701,9.59549353 33.9534486,9.05655275 33.56,8.76 C33.056567,8.34634676 32.5821188,7.89862801 32.14,7.42 L32,7.24 C30.7668266,6.0023322 30.1069963,4.30562557 30.18,2.56 C31.8521604,2.49590578 33.4656357,3.1816328 34.58,4.43 C34.938973,4.82198302 35.2729642,5.23613212 35.58,5.67 C35.8479987,6.02247026 36.3158823,6.15673251 36.73,6 C39.2355264,5.02704386 42.0144736,5.02704386 44.52,6 C44.9419918,6.16476472 45.422034,6.02526527 45.69,5.66 C45.9918801,5.22225953 46.3261501,4.80776483 46.69,4.42 C47.8043643,3.1716328 49.4178396,2.48590578 51.09,2.55 C51.1581143,4.2948102 50.4990177,5.98963002 49.27,7.23 L49.1,7.41 C48.6578812,7.88862801 48.183433,8.33634676 47.68,8.75 C47.3005245,9.04715392 47.1870039,9.57271221 47.41,10 C49.16,13.26 51.12,17.66 51.12,18.71 Z"/>
        <path id="Path" fill="#3D454C" d="M38.1 17.15C36.9440961 17.15 36.0055043 18.0841092 36 19.24 36 19.7922847 36.4477153 20.24 37 20.24 37.5522847 20.24 38 19.7922847 38 19.24 38 19.14 38.2 19.14 38.2 19.24 38.2 19.7922847 38.6477153 20.24 39.2 20.24 39.7522847 20.24 40.2 19.7922847 40.2 19.24 40.1944957 18.0841092 39.2559039 17.15 38.1 17.15zM43.05 17.15C41.9136494 17.1770522 41.0050908 18.1033389 41 19.24 41 19.7922847 41.4477153 20.24 42 20.24 42.5522847 20.24 43 19.7922847 43 19.24 43 19.14 43.19 19.14 43.19 19.24 43.19 19.7922847 43.6377153 20.24 44.19 20.24 44.7422847 20.24 45.19 19.7922847 45.19 19.24 45.1874249 18.6777812 44.9595155 18.1400732 44.5572915 17.747247 44.1550675 17.3544208 43.6121226 17.1392851 43.05 17.15z"/>
        <path id="Shape" fill="#3D454C" d="M40.62,13.71 C36.06,13.71 32.49,16.03 32.49,18.99 C32.49,21.95 36.06,24.27 40.62,24.27 C45.18,24.27 48.76,22 48.76,19 C48.76,16 45.18,13.71 40.62,13.71 Z M40.62,22.27 C37.01,22.27 34.49,20.54 34.49,18.99 C34.49,17.44 37.01,15.71 40.62,15.71 C44.23,15.71 46.76,17.43 46.76,18.99 C46.76,20.55 44.24,22.27 40.62,22.27 L40.62,22.27 Z"/>
        <path id="Path" fill="#3D454C" d="M37.17 11.92C37.7222847 11.92 38.17 11.4722847 38.17 10.92 38.17 10.3677153 37.7222847 9.92 37.17 9.92 36.6177153 9.92 36.17 10.3677153 36.17 10.92 36.17 11.4722847 36.6177153 11.92 37.17 11.92zM43.69 11.92C44.2422847 11.92 44.69 11.4722847 44.69 10.92 44.69 10.3677153 44.2422847 9.92 43.69 9.92 43.1377153 9.92 42.69 10.3677153 42.69 10.92 42.69 11.4722847 43.1377153 11.92 43.69 11.92z"/>
        <path id="Shape" fill="#3D454C" d="M38.37,38.33 C37.6999844,37.7843173 36.955894,37.3365163 36.16,37 C35.53,36.6 34.88,36.17 34.22,35.73 C32.1671661,34.2370342 29.9492204,32.9854552 27.61,32 C24.92,31 21.07,29.68 18.61,29.55 C14.960408,29.5585027 11.3341303,30.1319606 7.86,31.25 C4,32.76 1.12,35.83 1,37.61 C0.963776321,38.404735 1.20016539,39.1879943 1.67,39.83 C1.19,41.32 0.67,44.29 2.08,45.72 C4.22,47.9 12,50.17 13.47,50.6 L13.56,50.7 C14.3906065,51.1871418 15.3496528,51.410338 16.31,51.34 L17.13,51.34 C20.3725796,51.0558288 23.5825186,50.4767678 26.72,49.61 C33.38,47.98 36.34,47.2 36.93,46.91 C38.7781731,46.1861768 40.0697084,44.4936872 40.28,42.52 C40.3383559,41.6881843 40.1834689,40.8552367 39.83,40.1 C39.4379172,39.4379623 38.9453791,38.8408442 38.37,38.33 Z M3.53,44.33 C3.14,43.93 3.11,42.67 3.32,41.52 C4.10447078,42.1242441 4.92608521,42.6786669 5.78,43.18 C5.93625122,43.2768454 6.11617428,43.3287462 6.3,43.33 C6.64550147,43.3306914 6.96688455,43.1529855 7.15,42.86 C7.29102134,42.6346877 7.33653769,42.3625017 7.27649473,42.1035664 C7.21645177,41.8446312 7.05579043,41.6202545 6.83,41.48 C5.46,40.63 2.92,39.06 3,37.74 C3,37.16 4.86,34.56 8.61,33.07 C11.8178822,32.0610272 15.1573356,31.5319716 18.52,31.5 C20.94,31.63 25.44,33.29 26.91,33.84 C28.3437894,34.3933293 29.7148016,35.097272 31,35.94 C29.807293,35.9629684 28.6176839,36.0698996 27.44,36.26 C23.7435099,36.7012216 20.1638827,37.8378805 16.89,39.61 C13.68,41.52 11.96,44.15 12.28,46.67 C12.270735,47.1851839 12.3278718,47.6994153 12.45,48.2 C8.61,47 4.6,45.42 3.53,44.32 L3.53,44.33 Z M36.07,45.1 C35.73,45.26 33.74,45.82 26.24,47.66 C23.2154342,48.4867488 20.1232008,49.0422799 17,49.32 C16.2644252,49.426315 15.5141491,49.3577966 14.81,49.12 C14.4674801,48.3751369 14.2770937,47.5693942 14.25,46.75 C14.2651368,46.6639943 14.2651368,46.5760057 14.25,46.49 C13.99,44.77 15.35,42.84 17.89,41.33 C20.9475023,39.699416 24.2802236,38.6484052 27.72,38.23 C29.7795506,37.8306166 31.8985235,37.851024 33.95,38.29 C34.46,38.44 34.87,38.58 35.24,38.73 L35.52,38.91 C35.6335441,38.9773297 35.7592952,39.0215125 35.89,39.04 C36.3237014,39.2785501 36.7324095,39.5599556 37.11,39.88 C37.4895578,40.2130838 37.8255475,40.5927522 38.11,41.01 L38.11,41.01 C38.2664526,41.3908358 38.3479424,41.7982852 38.35,42.21 C38.2335158,43.5392485 37.337055,44.6716201 36.07,45.09 L36.07,45.1 Z"/>
        <path id="Path" fill="#3D454C" d="M9.53 42.62C8.97771525 42.62 8.53 43.0677153 8.53 43.62L8.53 43.77C8.53 44.3222847 8.97771525 44.77 9.53 44.77 10.0822847 44.77 10.53 44.3222847 10.53 43.77L10.53 43.62C10.53 43.0677153 10.0822847 42.62 9.53 42.62zM29.88 41.6C27.5518961 41.9685364 25.2736985 42.6026739 23.09 43.49 21.92 43.97 22.43 45.91 23.63 45.42 25.8098383 44.5314821 28.0848646 43.8972934 30.41 43.53 31.68 43.33 31.14 41.4 29.88 41.6z"/>
      </g>
    </g>
  </g>
</svg>
