<svg xmlns="http://www.w3.org/2000/svg" width="64" height="64" viewBox="0 0 64 64" style="background:#fff">
  <g id="Schwein" fill="none" fill-rule="evenodd" stroke="none" stroke-width="1">
    <rect width="64" height="64" fill="#FFF"/>
    <g transform="translate(2 8)">
      <g id="Layer_2">
        <rect id="Rectangle" width="60" height="60" x="0" y="0"/>
      </g>
      <g id="Layer_1" fill-rule="nonzero" transform="translate(7 5)">
        <path id="Path" fill="#E05362" d="M30.75,30.83 C27.75,27.83 21.59,27.42 17.88,29.02 C17.1385689,29.382594 16.5527429,30.0003741 16.23,30.76 C15.6164316,30.7430449 15.0035842,30.8137581 14.41,30.97 C12.48,31.49 12.58,35.28 13.6,36.47 C16.02,39.32 19.81,40.47 23.47,40.75 C26.56,41 31,40.45 32,37 C32.54,34.81 32.4,32.47 30.75,30.83 Z" opacity=".5"/>
        <path id="Path" fill="#E0A075" d="M16.41 8.11C12.7 7 9.9 5 7.06 2.42 3-1.23 1.9 7.31 2.63 9.54 3.57670987 12.4875208 5.28414323 15.1331802 7.58 17.21 5.18 19.75 2.44 22.14 1.21 25.5-.64 30.5-.53 37.64 3.96 41.22 8.45 44.8 10.68 36.92 10.02 33.76 9.49 31.18 12.13 29.31 14.22 26.91 16.6091737 24.3613738 18.348356 21.2740679 19.29 17.91 20 15.15 20.18 9.22 16.41 8.11zM43.92 27.52C43.2990109 24.7992519 42.1171599 22.2380071 40.45 20 39.8617438 19.2098928 39.2273043 18.4552437 38.55 17.74 39.4004196 16.9358404 40.1676296 16.048021 40.84 15.09 42.8017959 12.1557908 43.8969877 8.72811775 44 5.2 44.13 3.2 41.38-1.7 38.91 1.13 36.7487221 3.8371143 34.1123482 6.12784537 31.13 7.89 28.19 9.54 26.13 11.24 25.51 14.74 24.78 18.84 26.57 22.21 29.06 25.31 30.35 26.91 32.81 28.84 33.46 30.81 33.89 32.12 33.37 32.81 32.91 34.81 32.24 37.67 34.34 45.46 38.91 43.22 44.67 40.48 45.12 32.88 43.92 27.52z" opacity=".5"/>
        <path id="Shape" fill="#3D454C" d="M39.61,15.54 L39.88,15.25 C43.24,11.76 43.88,8.39 43.88,3.39 C43.88,2.83771525 43.4322847,2.39 42.88,2.39 C38.02,2.39 34.76,3.05 31.42,6.54 C30.8644674,7.12303255 30.3467465,7.74095745 29.87,8.39 C25.2873833,6.79969323 20.3026167,6.79969323 15.72,8.39 C15.2432535,7.74095745 14.7255326,7.12303255 14.17,6.54 C10.82,3.05 7.56,2.39 2.7,2.39 C2.14771525,2.39 1.7,2.83771525 1.7,3.39 C1.7,8.39 2.33,11.75 5.7,15.25 L5.98,15.55 C6.65988836,16.2866903 7.37751846,16.9876313 8.13,17.65 C6.13,21.48 1.71,30.41 1.71,33.39 C1.71,40.49 10.37,48.39 22.79,48.39 C35.21,48.39 43.88,40.49 43.88,33.39 C43.88,30.39 39.48,21.48 37.46,17.65 C38.2124205,16.9840492 38.9300379,16.2797828 39.61,15.54 Z M41.87,33.39 C41.87,41.45 30.75,46.39 22.78,46.39 C14.81,46.39 3.7,41.45 3.7,33.39 C3.7,31.17 7.52,22.95 10.27,17.87 C10.5044262,17.4378522 10.3899533,16.8994057 10,16.6 C9.07774191,15.8587555 8.21509232,15.04626 7.42,14.17 L7.13,13.87 C4.67,11.31 3.81,9 3.71,4.4 C8.11,4.51 10.3,5.4 12.71,7.92 C13.3644044,8.63009542 13.9723326,9.38165509 14.53,10.17 C14.7964473,10.5435777 15.282951,10.6878796 15.71,10.52 C20.2504749,8.73286443 25.2995251,8.73286443 29.84,10.52 C30.2613758,10.6775331 30.7360753,10.5343048 31,10.17 C31.5571075,9.38123146 32.1650643,8.6296364 32.82,7.92 C35.24,5.4 37.43,4.51 41.82,4.4 C41.72,9 40.82,11.31 38.4,13.87 L38.4,13.87 L38.12,14.17 C37.3188448,15.0438225 36.4530668,15.8561161 35.53,16.6 C35.1400467,16.8994057 35.0255738,17.4378522 35.26,17.87 C38.05,23 41.87,31.17 41.87,33.39 Z"/>
        <path id="Path" fill="#3D454C" d="M19 32C18.205454 31.9886947 17.4408442 32.3028008 16.8836999 32.8693882 16.3265555 33.4359757 16.0253435 34.2057562 16.05 35 16.05 35.5522847 16.4977153 36 17.05 36 17.6022847 36 18.05 35.5522847 18.05 35 18.05 34.4974209 18.4574209 34.09 18.96 34.09 19.4625791 34.09 19.87 34.4974209 19.87 35 19.87 35.5522847 20.3177153 36 20.87 36 21.4222847 36 21.87 35.5522847 21.87 35 21.8914763 34.2204002 21.600193 33.4646052 21.0610688 32.9010608 20.5219447 32.3375164 19.7797863 32.0130586 19 32L19 32zM26.61 31.9999997C25.8223704 31.9996232 25.0682275 32.3185351 24.5198341 32.8838891 23.9714407 33.4492431 23.6756402 34.2127471 23.7 34.9999997 23.7 35.5522847 24.1477153 35.9999997 24.7 35.9999997 25.2522847 35.9999997 25.7 35.5522847 25.7 34.9999997 25.7 34.4974209 26.1074209 34.09 26.61 34.09 27.1125791 34.09 27.52 34.4974209 27.52 34.9999997 27.52 35.5522847 27.9677153 35.9999997 28.52 35.9999997 29.0722847 35.9999997 29.52 35.5522847 29.52 34.9999997 29.5443598 34.2127471 29.2485593 33.4492431 28.7001659 32.8838891 28.1517725 32.3185351 27.3976296 31.9996232 26.61 31.9999997L26.61 31.9999997z"/>
        <path id="Shape" fill="#3D454C" d="M22.78,28.22 C16.86,28.22 12.22,31.22 12.22,34.96 C12.22,38.7 16.86,41.7 22.78,41.7 C28.7,41.7 33.35,38.7 33.35,34.96 C33.35,31.22 28.71,28.22 22.78,28.22 Z M22.78,39.7 C18.14,39.7 14.22,37.53 14.22,34.96 C14.22,32.39 18.14,30.22 22.78,30.22 C27.42,30.22 31.35,32.39 31.35,34.96 C31.35,37.53 27.43,39.7 22.78,39.7 Z"/>
        <path id="Path" fill="#3D454C" d="M17 21.47C17.5522847 21.47 18 21.0222847 18 20.47 18 19.9177153 17.5522847 19.47 17 19.47 16.4477153 19.47 16 19.9177153 16 20.47 16 21.0222847 16.4477153 21.47 17 21.47zM27.69 21.6C28.2422847 21.6 28.69 21.1522847 28.69 20.6 28.69 20.0477153 28.2422847 19.6 27.69 19.6 27.1377153 19.6 26.69 20.0477153 26.69 20.6 26.69 21.1522847 27.1377153 21.6 27.69 21.6z"/>
      </g>
    </g>
  </g>
</svg>
