<svg xmlns="http://www.w3.org/2000/svg" width="64" height="64" viewBox="0 0 64 64" style="background:#fff">
  <g id="Schwein-(Lendenkotelett)" fill="none" fill-rule="evenodd" stroke="none" stroke-width="1">
    <rect width="64" height="64" fill="#FFF"/>
    <g transform="translate(2 4)">
      <g id="Layer_2">
        <rect id="Rectangle" width="60" height="60" x="0" y="0"/>
        <rect id="Rectangle" width="60" height="60" x="0" y="0"/>
      </g>
      <g id="Layer_1" fill-rule="nonzero" transform="translate(4 4)">
        <path id="Path" fill="#E05362" d="M35.9,31.65 C32.19,26.39 22.53,25.52 16,26.56 C9.47,27.6 3.32,30.44 0.88,35.92 C-0.23,38.43 1.21,47.29 6.49,44.83 C8.49,43.89 9.87,42.45 11.78,41.44 C14.2427,40.213732 16.9247604,39.4896777 19.67,39.31 C24.87,38.84 31.49,40.48 35.51,37.15 C37.21,35.75 37,33.24 35.9,31.65 Z" opacity=".5"/>
        <path id="Path" fill="#CCC" d="M32.22,39.35 C29.22,41.35 26.34,43.09 22.67,43.64 C19.19,44.16 16.02,43.43 12.6,43.01 C9.36,42.6 9.35,49.52 11.41,50.78 C18.47,55.14 28.87,53.26 34.71,47.54 C36.72,45.57 35.74,37 32.22,39.35 Z" opacity=".5"/>
        <path id="Path" fill="#E05362" d="M46.63,17.1 C46.0904854,16.0190428 45.1448945,15.1956956 44,14.81 C42.7877232,14.4169664 41.5315511,14.1751364 40.26,14.09 C39.1477667,14.0200074 38.0322333,14.0200074 36.92,14.09 C35.05,14.2 34.1,14.57 33.16,16.03 C32.22,17.49 31.95,19.8 33.31,21.1 C34.26,22.01 34.93,22.68 36.42,22.6 C37.65,22.54 38.9,22.33 40.13,22.24 C41.36,22.15 42.37,22.08 43.46,21.91 C44.60344,21.7989225 45.6514714,21.2243121 46.36,20.32 C47.0420925,19.3805022 47.1461125,18.1399684 46.63,17.1 L46.63,17.1 Z" opacity=".5"/>
        <path id="Path" fill="#E0A075" d="M39.57,3.52 C32.28,3.14 26.12,10.4 26.57,17.38 C26.72,19.7 29.86,24.43 31.8,20.51 C33.48,17.13 34.99,13.87 39.29,13.57 C43.12,13.31 45.79,15.99 48.02,18.73 C49.31,20.32 51.02,19.15 51.23,17.34 C51.5854201,13.9466672 50.5428171,10.5550098 48.3426538,7.94726897 C46.1424904,5.33952818 42.974739,3.74086856 39.57,3.52 Z" opacity=".5"/>
        <path id="Shape" fill="#3D454C" d="M37.9,31.88 C37.39,29.15 34.77,27.65 32.68,27.2 C30.59,26.75 19.68,25.72 15.45,26.39 C11.91,26.95 4.45,29.73 2.07,31.94 L2,32 L2,32 L2,32 L1.86,32.16 L1.86,32.16 C1.83285107,32.2011678 1.80942508,32.2446732 1.79,32.29 C0.920111241,33.43426 0.497048374,34.85632 0.6,36.29 C0.589735291,36.3529174 0.589735291,36.4170826 0.6,36.48 C0.19,40.36 -0.02,44.74 2.74,47.71 C4.25537504,49.1585498 6.11870767,50.1918211 8.15,50.71 C12.3551281,52.0393888 16.7397436,52.713945 21.15,52.7100172 C22.04,52.7100172 22.94,52.7100172 23.84,52.63 C25.0145145,52.5721266 26.1820189,52.4148983 27.33,52.16 C34.5862072,50.3603781 39.0416186,43.055109 37.32,35.78 C37.3252318,35.7502281 37.3252318,35.7197719 37.32,35.69 C37.9104976,34.5130109 38.1135167,33.179385 37.9,31.88 L37.9,31.88 Z M34,45.05 C32.380214,47.6757495 29.7888829,49.5554529 26.79,50.28 C25.7533415,50.5046791 24.6996325,50.6418285 23.64,50.69 C18.5691265,51.0132854 13.4823947,50.389313 8.64,48.85 C6.9373304,48.4319407 5.3684514,47.5890123 4.08,46.4 C2.8449136,44.8767617 2.19892516,42.9600927 2.26,41 C3.24640138,42.3647892 4.61343448,43.4083259 6.19,44 C8.36262747,44.6664213 10.569057,45.2171942 12.8,45.65 C13.8,45.81 14.87,45.92 15.97,46 L16,46 C16.5522847,46.0193299 17.01567,45.5872847 17.0349999,45.035 C17.0543299,44.4827153 16.6222847,44.01933 16.07,44 C15.02,43.93 14.01,43.82 13.07,43.68 C11.76,43.48 7.6,42.39 6.83,42.12 C4.96948156,41.4130777 3.50914543,39.9308366 2.83,38.06 C2.34,36.74 2.16,34.75 3.29,33.5 C4.78,31.91 11.85,29 15.7,28.39 C19.55,27.78 30.12,28.72 32.2,29.17 C33.8,29.52 35.57,30.61 35.87,32.27 C36.14,33.69 35.28,35.27 34.45,36.59 C33.6295942,38.0490287 32.6209539,39.3938824 31.45,40.59 C30.0281344,41.88811 28.312305,42.8215212 26.45,43.31 C25.9115224,43.4618783 25.5981217,44.0215224 25.75,44.56 C25.9018783,45.0984776 26.4615224,45.4118783 27,45.26 C29.1712013,44.680006 31.1708697,43.5858479 32.83,42.07 C33.9237437,40.9974118 34.8779307,39.7912388 35.67,38.48 C35.7726696,40.7866912 35.191696,43.072318 34,45.05 Z"/>
        <path id="Path" fill="#3D454C" d="M22.51 39.29C17.83 37.45 13.02 35.83 8.19 34.47 7.67691497 34.366026 7.17048025 34.6753723 7.02874116 35.1793335 6.88700208 35.6832946 7.15793828 36.2112765 7.65 36.39 12.41 37.74 17.16 39.39 21.78 41.15 21.8940861 41.1972572 22.0165182 41.2210635 22.14 41.2200341 22.620605 41.2211766 23.0340741 40.880295 23.1245632 40.4082841 23.2150524 39.9362733 22.9569654 39.4666478 22.51 39.29L22.51 39.29zM26.87 37.88C26.9515936 37.626727 26.9288801 37.3513788 26.8068869 37.1148996 26.6848937 36.8784205 26.4736818 36.7003135 26.22 36.62 25.63 36.44 23.64 35.62 21.54 34.77 18.78 33.65 15.66 32.39 13.95 31.77 13.6084724 31.6383214 13.2222917 31.7037593 12.9432092 31.9405995 12.6641268 32.1774398 12.5367429 32.5478329 12.6111137 32.9062311 12.6854845 33.2646294 12.9497247 33.553757 13.3 33.66 14.95 34.24 18.05 35.5 20.78 36.66 23.11 37.6 24.95 38.35 25.61 38.56 25.7094311 38.5750853 25.8105689 38.5750853 25.91 38.56 26.3435861 38.5654445 26.7312757 38.290831 26.87 37.88zM18.54 31.91L28 35.29C28.1095989 35.3261616 28.2246305 35.343078 28.34 35.34 28.8252422 35.339431 29.240049 34.9905851 29.3238148 34.5126273 29.4075806 34.0346696 29.1361283 33.5655514 28.68 33.4L19.22 30C18.7059992 29.8303649 18.150327 30.1004873 17.9662216 30.6094844 17.7821163 31.1184815 18.0364138 31.6815717 18.54 31.88L18.54 31.91zM21.38 44.05C20.8277153 44.05 20.38 44.4977153 20.38 45.05 20.38 45.6022847 20.8277153 46.05 21.38 46.05 21.9322847 46.05 22.38 45.6022847 22.38 45.05 22.38 44.4977153 21.9322847 44.05 21.38 44.05z"/>
        <path id="Shape" fill="#3D454C" d="M49.52,8.4 L49.68,8.23 C51.68,6.12 52.08,4.11 52.08,1.14 C52.08,0.58771525 51.6322847,0.14 51.08,0.14 C48.19,0.14 46.23,0.54 44.21,2.64 C43.99,2.88 43.75,3.16 43.48,3.5 C40.9480881,2.67988635 38.2219119,2.67988635 35.69,3.5 C35.42,3.16 35.18,2.88 34.96,2.64 C32.96,0.54 30.96,0.14 28.08,0.14 C27.5277153,0.14 27.08,0.58771525 27.08,1.14 C27.08,4.14 27.47,6.14 29.49,8.23 L29.65,8.4 C29.94,8.7 30.28,9.06 30.65,9.4 C29.65,11.31 27.07,16.46 27.07,18.32 C27.07,22.58 32.21,27.32 39.57,27.32 C46.93,27.32 52.07,22.57 52.07,18.32 C52.07,16.46 49.49,11.32 48.5,9.4 C48.89,9.06 49.23,8.7 49.52,8.4 Z M50.08,18.32 C50.08,21.25 46.08,25.32 39.58,25.32 C33.08,25.32 29.08,21.24 29.08,18.32 C29.08,17.26 31.08,12.86 32.8,9.63 C33.0322701,9.19549353 32.9134486,8.65655275 32.52,8.36 C32.0109908,7.94544706 31.5361283,7.49064913 31.1,7 L30.93,6.82 C29.6968266,5.5823322 29.0369963,3.88562557 29.11,2.14 C30.7795258,2.07899347 32.3904548,2.75997708 33.51,4 C33.8711044,4.39366997 34.2051986,4.81128765 34.51,5.25 C34.777966,5.61526527 35.2580082,5.75476472 35.68,5.59 C38.1829265,4.60326417 40.9670735,4.60326417 43.47,5.59 C43.8919918,5.75476472 44.372034,5.61526527 44.64,5.25 C44.9448014,4.81128765 45.2788956,4.39366997 45.64,4 C46.7576874,2.75627649 48.3688766,2.07152108 50.04,2.13 C50.1081143,3.8748102 49.4490177,5.56963002 48.22,6.81 L48.05,6.99 C47.6130727,7.47373583 47.1382315,7.92182533 46.63,8.33 C46.2365514,8.62655275 46.1177299,9.16549353 46.35,9.6 C48.12,12.86 50.08,17.26 50.08,18.32 L50.08,18.32 Z"/>
        <path id="Path" fill="#3D454C" d="M37.06 16.75C35.9158527 16.7717972 34.9997924 17.7056451 35 18.85 35 19.4022847 35.4477153 19.85 36 19.85 36.5522847 19.85 37 19.4022847 37 18.85 37 18.74 37.19 18.74 37.19 18.85 37.19 19.4022847 37.6377153 19.85 38.19 19.85 38.7422847 19.85 39.19 19.4022847 39.19 18.85 39.1900574 18.2878084 38.9646946 17.7490679 38.5643558 17.3543677 38.164017 16.9596675 37.6221343 16.7419687 37.06 16.75L37.06 16.75zM42 16.75C41.4430454 16.75 40.9089022 16.9712494 40.5150758 17.3650758 40.1212494 17.7589022 39.9 18.2930454 39.9 18.85 39.9 19.4022847 40.3477153 19.85 40.9 19.85 41.4522847 19.85 41.9 19.4022847 41.9 18.85 41.9 18.74 42.09 18.74 42.09 18.85 42.09 19.4022847 42.5377153 19.85 43.09 19.85 43.6422847 19.85 44.09 19.4022847 44.09 18.85 44.09 17.6940961 43.1558908 16.7555043 42 16.75L42 16.75z"/>
        <path id="Shape" fill="#3D454C" d="M39.58,13.31 C35.02,13.31 31.45,15.63 31.45,18.59 C31.45,21.55 35.02,23.87 39.58,23.87 C44.14,23.87 47.72,21.55 47.72,18.59 C47.72,15.63 44.14,13.31 39.58,13.31 Z M39.58,21.87 C35.97,21.87 33.45,20.14 33.45,18.59 C33.45,17.04 35.97,15.31 39.58,15.31 C43.19,15.31 45.72,17.04 45.72,18.59 C45.72,20.14 43.2,21.87 39.58,21.87 L39.58,21.87 Z"/>
        <path id="Path" fill="#3D454C" d="M36.13 11.52C36.6822847 11.52 37.13 11.0722847 37.13 10.52 37.13 9.96771525 36.6822847 9.52 36.13 9.52 35.5777153 9.52 35.13 9.96771525 35.13 10.52 35.13 11.0722847 35.5777153 11.52 36.13 11.52zM42.65 11.52C43.2022847 11.52 43.65 11.0722847 43.65 10.52 43.65 9.96771525 43.2022847 9.52 42.65 9.52 42.0977153 9.52 41.65 9.96771525 41.65 10.52 41.65 11.0722847 42.0977153 11.52 42.65 11.52z"/>
      </g>
    </g>
  </g>
</svg>
