<svg xmlns="http://www.w3.org/2000/svg" width="64" height="64" viewBox="0 0 64 64" style="background:#fff">
  <g id="Schwein-(Wurstfleisch)" fill="none" fill-rule="evenodd" stroke="none" stroke-width="1">
    <rect width="64" height="64" fill="#FFF"/>
    <g transform="translate(2 4)">
      <g id="Layer_2">
        <rect id="Rectangle" width="60" height="60" x="0" y="0"/>
        <rect id="Rectangle" width="60" height="60" x="0" y="0"/>
      </g>
      <g id="Layer_1" fill-rule="nonzero" transform="translate(2 3)">
        <g id="Group" fill="#E05362" opacity=".5" transform="translate(3 18)">
          <path id="Path" d="M18.24 5.46C18.1201734 4.00399272 17.3945349 2.66518973 16.24 1.77 10.76-2.34 2.24 7.45.68 11.26-.02 12.97 1.68 19.26 4.61 16.35L5.27 15.67C5.21686464 17.2415718 5.41605957 18.811498 5.86 20.32 6.63 22.94 8.86 24.32 10.71 23.22 11.0839299 24.5925494 11.7263184 25.8773264 12.6 27 15.23 30.35 18.51 26.36 18.29 23.61 17.99 20.01 17.22 17.7 20.36 14.87 22.61 12.81 22.41 4.86 18.24 5.46zM32.3 19.23C30.63 19.23 29.95 21.36 30.2 23.23 29.6743483 22.5905165 28.8877676 22.2229554 28.06 22.23 27.6079836 22.2310283 27.163802 22.3480994 26.77 22.57 28.72 20.47 28.04 14.69 24.88 14.69 21.06 14.69 21.23 23.33 25.09 23.33 25.4766589 23.3284031 25.8560677 23.224928 26.19 23.03 23.86 25.39 24.63 32.19 28.31 32.19 31.01 32.19 31.98 28.41 31.31 25.51 31.6360773 25.7975884 32.0552277 25.9574339 32.49 25.96 35.42 25.93 35.3 19.23 32.3 19.23z"/>
        </g>
        <path id="Path" fill="#E05362" d="M48.63,17.1 C48.0904854,16.0190428 47.1448945,15.1956956 46,14.81 C44.7877232,14.4169664 43.5315511,14.1751364 42.26,14.09 C41.1477667,14.0200074 40.0322333,14.0200074 38.92,14.09 C37.05,14.2 36.1,14.57 35.16,16.03 C34.22,17.49 33.95,19.8 35.31,21.1 C36.26,22.01 36.93,22.68 38.42,22.6 C39.65,22.54 40.9,22.33 42.13,22.24 C43.36,22.15 44.37,22.08 45.46,21.91 C46.60344,21.7989225 47.6514714,21.2243121 48.36,20.32 C49.0420925,19.3805022 49.1461125,18.1399684 48.63,17.1 L48.63,17.1 Z" opacity=".5"/>
        <path id="Path" fill="#E0A075" d="M41.57,3.84 C34.28,3.46 28.12,10.72 28.57,17.7 C28.72,20.02 31.86,24.75 33.8,20.83 C35.48,17.45 36.99,14.18 41.29,13.89 C45.12,13.63 47.79,16.3 50.02,19.04 C51.31,20.63 53.02,19.46 53.23,17.66 C53.5883325,14.2660753 52.5467842,10.8728314 50.3460448,8.26440792 C48.1453054,5.6559844 44.9758128,4.05809734 41.57,3.84 Z" opacity=".5"/>
        <path id="Shape" fill="#3D454C" d="M41.05,37.49 L41.05,37.49 C40.8352892,36.9586749 40.5881576,36.4410343 40.31,35.94 C38.9,33.2 35.51,27.69 30.42,26.1 L30.31,26 L30.07,26 C29.88,26 29.7,25.88 29.5,25.84 C28.2537808,24.2061412 26.4145387,23.1284602 24.38,22.84 L24.33,22.84 C23.97,22.77 23.63,22.73 23.33,22.68 C21.6582169,20.3336809 18.9406797,18.9580913 16.06,19 C14.99,18.41 10.89,16.39 6.87,18.08 C5.27889165,18.1056491 3.75247008,18.7140829 2.58,19.79 C1.39120035,21.069137 0.79590288,22.7896919 0.94,24.53 C0.65,25.46 -0.06,29.03 3.77,32.67 C3.94533763,33.598861 4.28390647,34.4892971 4.77,35.3 C4.77625652,35.5549635 4.90223016,35.7920904 5.11,35.94 C8.67,38.76 12.11,41.71 15.39,44.85 C16.32,45.74 17.73,44.33 16.8,43.44 C13.56,40.34 10.17,37.44 6.65,34.63 C6.62760715,34.5649509 6.60088061,34.5014753 6.57,34.44 C6.2244596,33.8986803 5.96156888,33.3088613 5.79,32.69 C5.7,32.14 4.99,27.31 7.68,24.06 C9.36,22.06 12.07,21 15.75,21 L15.87,21 C17.4544659,20.9652297 19.0067861,21.4498908 20.29,22.38 C17.8317559,22.3467432 15.4359905,23.1547406 13.5,24.67 C10.13,27.53 9.6,32 9.59,34.4 C9.59,34.9522847 10.0377153,35.4 10.59,35.4 L10.59,35.4 C11.1422847,35.4 11.59,34.9522847 11.59,34.4 C11.59,32.33 12.04,28.53 14.82,26.23 C16.64,24.73 19.17,24.15 22.36,24.48 C22.4528892,24.5151972 22.5507703,24.5354484 22.65,24.54 C22.86,24.54 23.06,24.54 23.26,24.6 L23.95,24.7 C24.9289902,24.8695642 25.862054,25.2407466 26.69,25.79 C25.4533079,25.8764421 24.2348113,26.1356251 23.07,26.56 C20.1158773,27.5415066 17.8201634,29.8931226 16.91,32.87 C16.61,33.87 16.36,34.87 16.17,35.72 C16.1085549,35.991647 16.1631796,36.2766123 16.3207216,36.5062819 C16.4782635,36.7359515 16.7244484,36.889516 17,36.93 L17.2,36.93 C17.6796928,36.9406736 18.0993583,36.6091379 18.2,36.14 C18.38,35.3 18.61,34.39 18.9,33.45 C20.5,28.17 26.71,27.27 29.79,27.94 C30.5715583,28.1908988 31.3151188,28.5475386 32,29 C31.0642345,28.7697138 30.1036746,28.6555214 29.14,28.66 C26.7790575,28.5822532 24.5139919,29.596737 23,31.41 C20.24,34.77 20.51,40.01 20.85,41.75 C21.4684975,44.6504236 22.786774,47.355637 24.69,49.63 C23.5687592,48.996971 22.5047441,48.2675518 21.51,47.45 C21.0819793,47.0799693 20.4350308,47.1269794 20.065,47.555 C19.6949693,47.9830207 19.7419794,48.6299692 20.17,49 C22,50.5 26.92,54 33.26,54 C33.3165243,54.0056809 33.3734757,54.0056809 33.43,54 C33.63,54 33.81,54 34.01,54 C36.5109756,54.1193675 38.8965315,52.9398216 40.32,50.88 C43.17,46.72 42.02,39.94 41.06,37.47 L41.05,37.49 Z M6.18,22.82 C4.67656862,24.7586384 3.81649019,27.1186097 3.72,29.57 C2.76351106,28.2865289 2.45009047,26.6346181 2.87,25.09 C2.92321392,24.9566486 2.94708838,24.8134018 2.94,24.67 C2.78160339,23.4434894 3.1442938,22.2067151 3.94,21.26 C4.76930141,20.5298226 5.83506721,20.1248316 6.94,20.12 C7.13178393,20.1470424 7.32690956,20.1044695 7.49,20 C8.75016424,19.4610758 10.1392357,19.2978599 11.49,19.53 C9.41546414,20.0347856 7.5555938,21.1871346 6.18,22.82 Z M38.67,49.82 C37.6042675,51.3164534 35.8315087,52.1439939 34,52 C25,52 22.78,41.43 22.76,41.33 C22.42,39.59 22.39,35.18 24.49,32.64 C25.6412881,31.2702988 27.3742131,30.5281467 29.16,30.64 C34.32,30.64 37.16,34.46 38.45,36.64 C38.91,37.52 39.16,38.11 39.19,38.16 C40.1,40.56 40.91,46.52 38.67,49.8 L38.67,49.82 Z"/>
        <path id="Path" fill="#3D454C" d="M18.41 45.35C17.8577153 45.35 17.41 45.7977153 17.41 46.35 17.41 46.9022847 17.8577153 47.35 18.41 47.35 18.9622847 47.35 19.41 46.9022847 19.41 46.35 19.41 45.7977153 18.9622847 45.35 18.41 45.35zM27.85 37.3C27.2977153 37.3 26.85 37.7477153 26.85 38.3 26.85 38.8522847 27.2977153 39.3 27.85 39.3 28.4022847 39.3 28.85 38.8522847 28.85 38.3 28.85 37.7477153 28.4022847 37.3 27.85 37.3zM35.49 38.86C34.9377153 38.86 34.49 39.3077153 34.49 39.86 34.49 40.4122847 34.9377153 40.86 35.49 40.86 36.0422847 40.86 36.49 40.4122847 36.49 39.86 36.49 39.3077153 36.0422847 38.86 35.49 38.86zM31.71 43.87C31.1577153 43.87 30.71 44.3177153 30.71 44.87 30.71 45.4222847 31.1577153 45.87 31.71 45.87 32.2622847 45.87 32.71 45.4222847 32.71 44.87 32.71 44.3177153 32.2622847 43.87 31.71 43.87z"/>
        <path id="Shape" fill="#3D454C" d="M51.52,8.33 L51.68,8.16 C53.68,6.05 54.08,4.04 54.08,1.08 C54.08,0.52771525 53.6322847,0.08 53.08,0.08 C50.18,0.08 48.23,0.47 46.21,2.58 C45.99,2.81 45.75,3.1 45.48,3.43 C42.9465028,2.61998735 40.2234972,2.61998735 37.69,3.43 C37.42,3.1 37.18,2.81 36.96,2.58 C34.96,0.47 32.96,0.08 30.08,0.08 C29.5277153,0.08 29.08,0.52771525 29.08,1.08 C29.08,4.08 29.47,6.08 31.49,8.16 L31.65,8.33 C31.94,8.64 32.28,8.99 32.65,9.33 C31.65,11.24 29.07,16.39 29.07,18.24 C29.07,22.5 34.21,27.24 41.57,27.24 C48.93,27.24 54.07,22.48 54.07,18.24 C54.07,16.39 51.49,11.24 50.5,9.33 C50.89,9 51.23,8.64 51.52,8.33 Z M52.08,18.25 C52.08,21.18 48.08,25.25 41.58,25.25 C35.08,25.25 31.08,21.16 31.08,18.25 C31.08,17.2 33.08,12.8 34.8,9.57 C35.0381174,9.13309292 34.9187874,8.58758416 34.52,8.29 C34.0158205,7.89522896 33.5412187,7.46407662 33.1,7 L32.93,6.82 C31.6863311,5.57276858 31.0256341,3.85931264 31.11,2.1 C32.7870073,2.04343868 34.401286,2.74051359 35.51,4 C35.8711044,4.39366997 36.2051986,4.81128765 36.51,5.25 C36.777966,5.61526527 37.2580082,5.75476472 37.68,5.59 C40.1829265,4.60326417 42.9670735,4.60326417 45.47,5.59 C45.8919918,5.75476472 46.372034,5.61526527 46.64,5.25 C46.9436842,4.81045527 47.2778383,4.39276272 47.64,4 C48.7562384,2.75533537 50.3694489,2.07338727 52.04,2.14 C52.1081143,3.8848102 51.4490177,5.57963002 50.22,6.82 L50.05,7 C49.6102356,7.47786636 49.1355976,7.92242169 48.63,8.33 C48.2312126,8.62758416 48.1118826,9.17309292 48.35,9.61 C50.12,12.8 52.08,17.2 52.08,18.25 L52.08,18.25 Z"/>
        <path id="Path" fill="#3D454C" d="M39.06 16.68C37.9158527 16.7017972 36.9997924 17.6356451 37 18.78 37 19.3322847 37.4477153 19.78 38 19.78 38.5522847 19.78 39 19.3322847 39 18.78 39 18.67 39.19 18.68 39.19 18.78 39.19 19.3322847 39.6377153 19.78 40.19 19.78 40.7422847 19.78 41.19 19.3322847 41.19 18.78 41.1900574 18.2178084 40.9646946 17.6790679 40.5643558 17.2843677 40.164017 16.8896675 39.6221343 16.6719687 39.06 16.68L39.06 16.68zM44 16.68C43.4430454 16.68 42.9089022 16.9012494 42.5150758 17.2950758 42.1212494 17.6889022 41.9 18.2230454 41.9 18.78 41.9 19.3322847 42.3477153 19.78 42.9 19.78 43.4522847 19.78 43.9 19.3322847 43.9 18.78 43.9 18.67 44.09 18.68 44.09 18.78 44.09 19.3322847 44.5377153 19.78 45.09 19.78 45.6422847 19.78 46.09 19.3322847 46.09 18.78 46.09 17.6240961 45.1558908 16.6855043 44 16.68L44 16.68z"/>
        <path id="Shape" fill="#3D454C" d="M41.58,13.24 C37.02,13.24 33.45,15.56 33.45,18.52 C33.45,21.48 37,23.8 41.58,23.8 C46.16,23.8 49.72,21.48 49.72,18.52 C49.72,15.56 46.14,13.24 41.58,13.24 Z M41.58,21.8 C37.97,21.8 35.45,20.08 35.45,18.52 C35.45,16.96 37.97,15.24 41.58,15.24 C45.19,15.24 47.72,16.97 47.72,18.52 C47.72,20.07 45.2,21.8 41.58,21.8 L41.58,21.8 Z"/>
        <path id="Path" fill="#3D454C" d="M38.13 11.46C38.6822847 11.46 39.13 11.0122847 39.13 10.46 39.13 9.90771525 38.6822847 9.46 38.13 9.46 37.5777153 9.46 37.13 9.90771525 37.13 10.46 37.13 11.0122847 37.5777153 11.46 38.13 11.46zM44.65 11.46C45.2022847 11.46 45.65 11.0122847 45.65 10.46 45.65 9.90771525 45.2022847 9.46 44.65 9.46 44.0977153 9.46 43.65 9.90771525 43.65 10.46 43.65 11.0122847 44.0977153 11.46 44.65 11.46z"/>
      </g>
    </g>
  </g>
</svg>
