<svg xmlns="http://www.w3.org/2000/svg" width="64" height="64" viewBox="0 0 64 64" style="background:#fff">
  <g id="Schwarze-Bohnen" fill="none" fill-rule="evenodd" stroke="none" stroke-width="1">
    <rect width="64" height="64" fill="#FFF"/>
    <g transform="translate(2 6)">
      <g id="Layer_2">
        <rect id="Rectangle" width="60" height="60" x="0" y="0"/>
      </g>
      <g id="Layer_1" fill-rule="nonzero" transform="translate(8 3)">
        <path id="Path" fill="#483318" d="M37.65 3.69C34.32.78 29.7-.12 25.87 2.28 23.7395719 3.74928692 22.5662542 6.25261938 22.8 8.83 22.91 10.99 23.73 14.52 26.19 15.21 27.131904 15.5293714 28.047924 15.9205187 28.93 16.38 28.93 16.38 29.85 16.8 29.93 16.82 30.24 17.04 30.52 17.3 30.83 17.52 30.7564439 19.3709846 31.0697832 21.2169621 31.75 22.94 32.38 24.44 33.75 26.53 35.44 27.05 39.44 28.28 42.31 24.05 42.67 20.48 43.32 14.68 42.32 7.76 37.65 3.69zM11.64 9.08C6.07 9.82 3.23 15.08 1.99 20.08.47 26.21.86 33.3 4.28 38.7 5.92 41.28 9.2 42.04 11.51 39.94 14.06 37.62 14.89 32.87 13.99 29.66 13.7 28.66 13.4 27.66 13.08 26.59 13.08 26.47 12.98 26.29 12.94 26.14 12.9 25.99 13.01 25.57 12.94 25.67 13.4 23.95 14.72 21.03 15.59 18.92 16.7 16.32 16 8.5 11.64 9.08zM40.64 33.75C36.84 32.5 33.52 35 29.8 35.84 26.08 36.68 22.5 36.93 18.93 37.9 16.57 38.53 15.81 42.47 15.85 44.44 15.92 46.98 16.92 49.6 19.25 50.83 25.93 54.36 39.01 53.49 43.25 46.61 45.27 43.21 45.37 35.3 40.64 33.75z" opacity=".5"/>
        <path id="Shape" fill="#3D454C" d="M13.92 21.39L14.06 21.26 14.06 21.26 14.72 20.72C16.0785179 19.8997495 16.9881179 18.5040475 17.19 16.93 17.3180428 15.7146085 17.1499203 14.4862848 16.7 13.35 16.09 11.86 14.65 10.03 11.26 9.71 8.27774625 9.38381634 5.34863421 10.6767447 3.58 13.1 1.74 15.45.58 18.91.15 23.1-.62 31.23 2.75 36.85 8.72 37.42 9.04 37.42 9.5 37.49 10.02 37.49 12.11 37.49 15.3 36.81 15.76 31.99 15.8430837 30.3312863 15.2473682 28.710218 14.11 27.5 13.149298 26.4986369 12.642989 25.1460685 12.71 23.76 12.7699879 22.8371447 13.2076958 21.9798161 13.92 21.39zM13.78 31.8C13.5 34.8 12.18 35.73 8.92 35.42 4.15 35 1.5 30.21 2.15 23.29 2.51 19.47 3.56 16.37 5.15 14.29 6.50161088 12.405279 8.76466956 11.3960771 11.07 11.65 13.07 11.83 14.26 12.65 14.85 14.06 15.1733945 14.8965538 15.2933569 15.797985 15.2 16.69 15.09 17.79 14.51 18.3 13.48 19.1 13.26 19.28 13.03 19.46 12.8 19.66L12.8 19.66 12.8 19.66 12.58 19.85C9.1 22.85 8.23 28.07 8.2 28.3 8.14129807 28.5657496 8.19344622 28.8439454 8.34441106 29.0703926 8.4953759 29.2968399 8.73211504 29.451975 9 29.5L9.15 29.5C9.64539279 29.506376 10.0707716 29.1490578 10.15 28.66 10.3525958 27.7137973 10.636998 26.7869806 11 25.89 11.3494985 26.9106877 11.8814638 27.8594156 12.57 28.69 13.29 29.73 13.9 30.54 13.78 31.8zM26.48 15.07C27.8 15.21 28.93 15.33 29.84 16.46 30.75 17.59 30.53 18.51 30.29 19.75 29.8167309 21.2083163 30.0654859 22.8048034 30.96 24.05 31.6831571 24.9443468 32.627788 25.6338584 33.7 26.05 34.3064171 26.2825292 34.9505309 26.4011817 35.6 26.4000087 37.2243919 26.3405833 38.7785241 25.7224626 40 24.65 42.3432801 22.8585147 43.6345494 20.0132179 43.44 17.07 43.28 14.22 41.91 11.07 39.44 8.07 34.79 2.2 28.66.88 23.89 4.72 22.62 5.72 18.74 8.86 22.27 13.25 23.48 14.75 25.07 14.92 26.48 15.07zM25.14 6.28C26.4320486 5.19540991 28.0630889 4.59747973 29.75 4.59 32.52 4.59 35.45 6.21 37.94 9.32 40.12 12.03 41.35 14.75 41.48 17.18 41.6444642 19.4788641 40.6315757 21.7042065 38.79 23.09 37.23 24.35 35.79 24.72 34.41 24.22 33.6649467 23.9231368 33.0125333 23.4329637 32.52 22.8 31.93 22.06 32.03 21.34 32.26 20.12 32.7945687 18.4380032 32.4734526 16.6009199 31.4 15.2 30.215562 13.8385648 28.4944777 13.0638941 26.69 13.08 25.34 12.94 24.48 12.81 23.83 12 22.17 9.93 22.53 8.38 25.14 6.28zM33.7 29.89C32.2422316 30.6734624 31.1610294 32.0105491 30.7 33.6 30.339145 34.9405869 29.437157 36.0707888 28.21 36.72 27.3813919 37.1401639 26.4175053 37.205145 25.54 36.9L25.38 36.9 25.38 36.9 24.58 36.6C23.1709728 35.8194548 21.4801364 35.7345438 20 36.37 18.8878397 36.8834233 17.9142202 37.6547768 17.16 38.62 16.16 39.91 15.36 42.09 16.82 45.17 18.37 48.44 21.36 50.12 25.24 50.12 28.2987187 50.0148834 31.2966007 49.2363902 34.02 47.84 37.71 46.1 40.38 43.76 41.75 41.09 43.0974234 38.6389473 43.1903581 35.6910584 42 33.16 41.27 31.7 39.18 27.29 33.7 29.89zM40 40.18C38.83 42.45 36.47 44.48 33.19 46.04 26.19 49.36 20.74 48.72 18.65 44.31 17.81 42.54 17.85 41.07 18.78 39.82 19.3375014 39.116078 20.053687 38.554095 20.87 38.18 21.1990477 38.0140791 21.5615229 37.9251701 21.93 37.92 22.5846588 37.9733091 23.2246215 38.1426114 23.82 38.42L24.65 38.72 24.65 38.72 25.01 38.83C26.1444176 39.1930592 27.3289134 39.3752893 28.52 39.37 30.5457416 39.3432694 32.5517396 38.967779 34.45 38.26 34.9636248 38.0556546 35.2143453 37.4736248 35.01 36.96 34.8056546 36.4463752 34.2236248 36.1956547 33.71 36.4 32.8059962 36.7382473 31.8717551 36.9893874 30.92 37.15 31.6142544 36.3257462 32.1560583 35.3843619 32.52 34.37 32.8008968 33.244893 33.5213573 32.2794758 34.52 31.69 37.19 30.42 38.71 31.05 40.12 34.01 41.070909 35.967094 41.0262879 38.2613604 40 40.18L40 40.18z"/>
      </g>
    </g>
  </g>
</svg>
