<svg xmlns="http://www.w3.org/2000/svg" width="64" height="64" viewBox="0 0 64 64" style="background:#fff">
  <g id="Schwein-(Schulterbraten)" fill="none" fill-rule="evenodd" stroke="none" stroke-width="1">
    <rect width="64" height="64" fill="#FFF"/>
    <g transform="translate(2 4)">
      <g id="Layer_2">
        <rect id="Rectangle" width="60" height="60" x="0" y="0"/>
        <rect id="Rectangle" width="60" height="60" x="0" y="0"/>
      </g>
      <g id="Layer_1" fill-rule="nonzero" transform="translate(3 4)">
        <path id="Path" fill="#E05362" d="M32.41 33.16C28.7 34.25 25.48 37.36 21.74 38.77 18.74 39.9 15.56 40.3 12.52 41.18 11.42 37.64 9.59 35.38 14.14 33.18 18.69 30.98 22.27 34.03 26.66 34.29 29.18 34.44 29.44 30.48 29.2 28.97 27.7 19.26 15.08 16.15 7.84 21.97 4.15 24.97 2.25 29.61 1.71 34.15 1.17 38.69 1.86 46.36 6.28 49 7.05565619 49.5124786 7.98559742 49.7387761 8.91 49.64 9.23490511 50.1032459 9.67648593 50.4723798 10.19 50.71 17.97 54.18 31.67 49.17 36.09 42.11 37.81 39.38 37.09 31.79 32.41 33.16zM48.5 17.43C47.9695116 16.3594184 47.0392047 15.5404609 45.91 15.15 44.7001781 14.7475011 43.4427858 14.5054363 42.17 14.43 41.0545893 14.3550992 39.9354107 14.3550992 38.82 14.43 36.96 14.55 36 14.91 35.07 16.37 34.14 17.83 33.86 20.14 35.21 21.44 36.21 22.35 36.84 23.02 38.33 22.95 39.55 22.89 40.81 22.68 42.04 22.59 43.27 22.5 44.28 22.43 45.37 22.25 46.5136198 22.1472012 47.5635379 21.5751769 48.27 20.67 48.9383425 19.7150705 49.0267438 18.4697659 48.5 17.43L48.5 17.43z" opacity=".5"/>
        <path id="Path" fill="#E0A075" d="M41.66,3.52 C34.37,3.14 28.21,10.4 28.66,17.38 C28.8,19.71 31.94,24.43 33.89,20.51 C35.57,17.13 37.08,13.87 41.37,13.57 C45.21,13.31 47.88,15.99 50.11,18.73 C51.4,20.32 53.11,19.15 53.31,17.34 C53.6683371,13.9477011 52.6281226,10.5559362 50.4295282,7.94781816 C48.2309337,5.33970009 45.0640255,3.74069805 41.66,3.52 Z" opacity=".5"/>
        <path id="Shape" fill="#3D454C" d="M36.49,37.08 C36.4617625,36.9314844 36.4002198,36.7913039 36.31,36.67 C35.7145747,35.2196929 34.8062917,33.9187311 33.65,32.86 C33.6191796,32.7997575 33.5823241,32.7427989 33.54,32.69 C31.64,30.62 29.72,28.51 27.69,26.69 C27.5946072,26.390423 27.3711501,26.1486498 27.08,26.03 L26.84,25.94 C22.09,21.82 16.72,19.24 9.75,21.76 C5.8891736,23.1848079 2.80239265,26.1627717 1.24,29.97 C0.392818413,31.8802854 0.392818413,34.0597146 1.24,35.97 C0.56,38.97 -0.04,42.97 1.8,45.66 C4,48.84 8.47,51 11.94,52.72 L12.08,52.72 C15.16,56.28 23.81,51.31 27.08,49.9 C33.08,47.33 37.9,44.9 36.53,37.47 C36.5445305,37.3386346 36.5308942,37.2056808 36.49,37.08 Z M2.73,38.51 C3.35290562,39.3327306 4.02058018,40.1205865 4.73,40.87 C5.6,41.87 7.02,40.4 6.15,39.46 C2.09,35.05 1.67,30.84 5.81,26.56 C8.47128014,23.9734039 12.0192977,22.4998321 15.73,22.44 C18.3613701,22.5123303 20.9038842,23.407631 23,25 C18.9193204,24.7152843 14.9328408,26.3142974 12.18,29.34 C11.31,30.29 12.73,31.71 13.59,30.75 C16.800303,27.1743368 21.9093339,25.9980994 26.36,27.81 C27.36,28.81 28.29,29.81 29.18,30.75 C20.38,29.45 8.52,39.83 10.89,50 C8.55121162,48.8634013 6.38888102,47.3949027 4.47,45.64 C2.54,43.69 2.37,41.08 2.73,38.51 Z M28.22,47.29 C24.81,48.78 20.36,51.55 16.58,51.66 C8.7,51.88 14.47,39.6 17.41,37.02 C22.23,32.8 31.6,30.1 34.57,37.61 C35.71,43 32.53,45.41 28.22,47.29 Z"/>
        <path id="Path" fill="#3D454C" d="M7.4,42.23 L7.4,42.47 C7.4,43.0222847 7.84771525,43.47 8.4,43.47 C8.95228475,43.47 9.4,43.0222847 9.4,42.47 L9.4,42.23 C9.4,41.6777153 8.95228475,41.23 8.4,41.23 C7.84771525,41.23 7.4,41.6777153 7.4,42.23 Z"/>
        <path id="Shape" fill="#3D454C" d="M51.55,8.6 L51.72,8.43 C53.72,6.32 54.12,4.31 54.12,1.34 C54.12,0.78771525 53.6722847,0.34 53.12,0.34 C50.22,0.34 48.27,0.74 46.25,2.85 C46.03,3.08 45.79,3.36 45.52,3.7 C42.9865028,2.88998735 40.2634972,2.88998735 37.73,3.7 C37.46,3.36 37.22,3.08 37,2.84 C35,0.74 33,0.34 30.12,0.34 C29.5677153,0.34 29.12,0.78771525 29.12,1.34 C29.12,4.34 29.51,6.34 31.53,8.43 L31.69,8.6 C31.98,8.91 32.32,9.26 32.69,9.6 C31.69,11.51 29.11,16.66 29.11,18.52 C29.11,22.78 34.25,27.52 41.61,27.52 C48.97,27.52 54.11,22.77 54.11,18.52 C54.11,16.66 51.53,11.52 50.54,9.6 C50.93,9.26 51.26,8.91 51.55,8.6 Z M52.12,18.52 C52.12,21.45 48.12,25.52 41.62,25.52 C35.12,25.52 31.12,21.44 31.12,18.52 C31.12,17.46 33.12,13.06 34.84,9.83 C35.0722701,9.39549353 34.9534486,8.85655275 34.56,8.56 C34.0517685,8.15182533 33.5769273,7.70373583 33.14,7.22 L33,7 C31.7683912,5.76540921 31.1085908,4.07240508 31.18,2.33 C32.8505511,2.26338727 34.4637616,2.94533537 35.58,4.19 C35.9411044,4.58366997 36.2751986,5.00128765 36.58,5.44 C36.847966,5.80526527 37.3280082,5.94476472 37.75,5.78 C40.2529265,4.79326417 43.0370735,4.79326417 45.54,5.78 C45.9619918,5.94476472 46.442034,5.80526527 46.71,5.44 C47.0148014,5.00128765 47.3488956,4.58366997 47.71,4.19 C48.8262384,2.94533537 50.4394489,2.26338727 52.11,2.33 C52.173888,4.07306606 51.5111175,5.76439861 50.28,7 L50.1,7.19 C49.6662607,7.67026517 49.1947533,8.1150204 48.69,8.52 C48.2965514,8.81655275 48.1777299,9.35549353 48.41,9.79 C50.16,13.06 52.12,17.46 52.12,18.52 Z"/>
        <path id="Path" fill="#3D454C" d="M39.1 17C37.940202 17 37 17.940202 37 19.1 37 19.6522847 37.4477153 20.1 38 20.1 38.5522847 20.1 39 19.6522847 39 19.1 39 18.99 39.2 18.99 39.2 19.1 39.2 19.6522847 39.6477153 20.1 40.2 20.1 40.7522847 20.1 41.2 19.6522847 41.2 19.1 41.194527 17.9424766 40.2575234 17.005473 39.1 17zM44.05 17C42.890202 17 41.95 17.940202 41.95 19.1 41.95 19.6522847 42.3977153 20.1 42.95 20.1 43.5022847 20.1 43.95 19.6522847 43.95 19.1 43.95 18.99 44.14 18.99 44.14 19.1 44.14 19.6522847 44.5877153 20.1 45.14 20.1 45.6922847 20.1 46.14 19.6522847 46.14 19.1 46.14 17.9440961 45.2058908 17.0055043 44.05 17z"/>
        <path id="Shape" fill="#3D454C" d="M41.62,13.51 C37.06,13.51 33.49,15.83 33.49,18.79 C33.49,21.75 37.06,24.07 41.62,24.07 C46.18,24.07 49.76,21.75 49.76,18.79 C49.76,15.83 46.18,13.51 41.62,13.51 Z M41.62,22.07 C38.01,22.07 35.49,20.34 35.49,18.79 C35.49,17.24 38.01,15.51 41.62,15.51 C45.23,15.51 47.76,17.24 47.76,18.79 C47.76,20.34 45.24,22.07 41.62,22.07 Z"/>
        <path id="Path" fill="#3D454C" d="M38.17 11.72C38.7222847 11.72 39.17 11.2722847 39.17 10.72 39.17 10.1677153 38.7222847 9.72 38.17 9.72 37.6177153 9.72 37.17 10.1677153 37.17 10.72 37.17 11.2722847 37.6177153 11.72 38.17 11.72zM44.69 11.72C45.2422847 11.72 45.69 11.2722847 45.69 10.72 45.69 10.1677153 45.2422847 9.72 44.69 9.72 44.1377153 9.72 43.69 10.1677153 43.69 10.72 43.69 11.2722847 44.1377153 11.72 44.69 11.72z"/>
      </g>
    </g>
  </g>
</svg>
