<svg xmlns="http://www.w3.org/2000/svg" width="64" height="64" viewBox="0 0 64 64" style="background:#fff">
  <g id="Schwein-(Filet)" fill="none" fill-rule="evenodd" stroke="none" stroke-width="1">
    <rect width="64" height="64" fill="#FFF"/>
    <g transform="translate(2 4)">
      <g id="Layer_2">
        <rect id="Rectangle" width="60" height="60" x="0" y="0"/>
        <rect id="Rectangle" width="60" height="60" x="0" y="0"/>
      </g>
      <g id="Layer_1" fill-rule="nonzero" transform="translate(4 3)">
        <path id="Path" fill="#E05362" d="M31 27.37C25.88 21.83 15.8 16.24 8.36 20.49.92 24.74.09 35.8 3.11 43 6 49.78 15.79 56.68 22.27 50 24.35 47.86 25.14 40.46 21.12 39.59 18.54 39.04 15.41 39.59 13.12 38.37 10.6 37.03 9.06 34.11 12.43 32.74 15.2 31.62 18.89 33.14 21.43 34.33 22.8523101 35.0231176 24.1853647 35.8860774 25.4 36.9 25.9913385 37.3563849 26.5494174 37.8543116 27.07 38.39 27.2713123 38.8569029 27.559796 39.2811435 27.92 39.64 27.2 42.43 28.11 48.05 31.52 46.4 39.2 42.67 35.34 32.08 31 27.37zM47.63 17.23C47.0824463 16.1683428 46.1368964 15.3666028 45 15 43.7901781 14.5975011 42.5327858 14.3554363 41.26 14.28 40.1479296 14.205005 39.0320704 14.205005 37.92 14.28 36.05 14.4 35.1 14.76 34.16 16.22 33.22 17.68 33 20 34.35 21.27 35.3 22.18 35.97 22.85 37.46 22.78 38.69 22.72 39.94 22.5 41.17 22.42 42.4 22.34 43.41 22.26 44.5 22.08 45.6448609 21.9735463 46.6946057 21.3979966 47.4 20.49 48.0851796 19.5336124 48.1741103 18.2731167 47.63 17.23z" opacity=".5"/>
        <path id="Path" fill="#E0A075" d="M40.79,3.32 C33.5,2.94 27.34,10.2 27.79,17.18 C27.94,19.5 31.08,24.23 33.03,20.31 C34.7,16.93 36.21,13.67 40.51,13.37 C44.34,13.11 47.02,15.78 49.24,18.52 C50.53,20.12 52.24,18.94 52.45,17.14 C52.8054201,13.7466672 51.7628171,10.3550098 49.5626538,7.74726897 C47.3624904,5.13952818 44.194739,3.54086856 40.79,3.32 Z" opacity=".5"/>
        <path id="Shape" fill="#3D454C" d="M36.83,36.69 C36.800342,36.5449886 36.7388632,36.4083691 36.65,36.29 C36.0544638,34.8393831 35.1501807,33.5358504 34,32.47 C33.9740402,32.4123981 33.9404013,32.358576 33.9,32.31 C27.37,25.18 20.52,17.57 10.11,21.31 C6.24716539,22.7316067 3.15926554,25.7106499 1.6,29.52 C0.75531543,31.4308135 0.75531543,33.6091865 1.6,35.52 C0.92,38.52 0.32,42.52 2.16,45.21 C4.44,48.48 8.87,50.65 12.35,52.35 C12.3962414,52.3589093 12.4437586,52.3589093 12.49,52.35 C15.57,55.9 24.22,50.94 27.49,49.53 C33.49,46.96 38.31,44.53 36.94,37.09 C36.9316971,36.9504434 36.8942242,36.8141783 36.83,36.69 Z M3.06,38.13 C3.68614299,38.9501311 4.3536754,39.7378194 5.06,40.49 C5.93,41.44 7.34,40.02 6.47,39.08 C2.42,34.67 2,30.45 6.14,26.18 C8.79843955,23.5890941 12.3482493,22.114778 16.06,22.06 C21.4,22.06 25.83,26.33 29.49,30.38 C20.73,29.06 8.87,39.45 11.24,49.57 C8.89399559,48.4364803 6.72747552,46.9640553 4.81,45.2 C2.88,43.31 2.7,40.7 3.06,38.13 Z M28.56,46.91 C25.15,48.4 20.7,51.17 16.92,51.28 C9.03,51.5 14.81,39.22 17.75,36.64 C22.56,32.42 31.93,29.72 34.9,37.22 C36.05,42.65 32.87,45 28.56,46.91 L28.56,46.91 Z"/>
        <path id="Path" fill="#3D454C" d="M7.74,41.85 L7.74,42.09 C7.74,42.6422847 8.18771525,43.09 8.74,43.09 C9.29228475,43.09 9.74,42.6422847 9.74,42.09 L9.74,41.85 C9.74,41.2977153 9.29228475,40.85 8.74,40.85 C8.18771525,40.85 7.74,41.2977153 7.74,41.85 Z"/>
        <path id="Shape" fill="#3D454C" d="M50.55,8.27 L50.72,8.09 C52.74,6 53.12,4 53.12,1 C53.12,0.44771525 52.6722847,0 52.12,0 C49.22,0 47.27,0.4 45.25,2.51 C45.03,2.74 44.79,3.02 44.52,3.36 C41.9865028,2.54998735 39.2634972,2.54998735 36.73,3.36 C36.46,3.03 36.22,2.74 36,2.51 C34,0.4 32,0 29.12,0 C28.5677153,0 28.12,0.44771525 28.12,1 C28.12,4 28.51,6 30.53,8.09 L30.69,8.26 C30.98,8.57 31.32,8.92 31.69,9.26 C30.69,11.17 28.11,16.31 28.11,18.17 C28.11,22.43 33.25,27.17 40.61,27.17 C47.97,27.17 53.11,22.41 53.11,18.17 C53.11,16.32 50.53,11.17 49.54,9.26 C49.93,8.92 50.27,8.57 50.55,8.27 Z M51.12,18.18 C51.12,21.11 47.12,25.18 40.62,25.18 C34.12,25.18 30.12,21.09 30.12,18.18 C30.12,17.13 32.12,12.73 33.84,9.5 C34.0781174,9.06309292 33.9587874,8.51758416 33.56,8.22 C33.0517685,7.81182533 32.5769273,7.36373583 32.14,6.88 L32,6.71 C30.7479781,5.47030894 30.0763535,3.76038883 30.15,2 C31.8205511,1.93338727 33.4337616,2.61533537 34.55,3.86 C34.9086947,4.25572873 35.2426611,4.67318663 35.55,5.11 C35.817966,5.47526527 36.2980082,5.61476472 36.72,5.45 C39.2229265,4.46326417 42.0070735,4.46326417 44.51,5.45 C44.9319918,5.61476472 45.412034,5.47526527 45.68,5.11 C45.9848014,4.67128765 46.3188956,4.25366997 46.68,3.86 C47.8007603,2.60981033 49.4225623,1.92733255 51.1,2 C51.1681143,3.7448102 50.5090177,5.43963002 49.28,6.68 L49.11,6.86 C48.6702356,7.33786636 48.1955976,7.78242169 47.69,8.19 C47.2912126,8.48758416 47.1718826,9.03309292 47.41,9.47 C49.16,12.73 51.12,17.13 51.12,18.18 Z"/>
        <path id="Path" fill="#3D454C" d="M38.1 16.61C36.940202 16.61 36 17.550202 36 18.71 36 19.2622847 36.4477153 19.71 37 19.71 37.5522847 19.71 38 19.2622847 38 18.71 38 18.6 38.2 18.61 38.2 18.71 38.2 19.2622847 38.6477153 19.71 39.2 19.71 39.7522847 19.71 40.2 19.2622847 40.2 18.71 40.194527 17.5524766 39.2575234 16.615473 38.1 16.61L38.1 16.61zM43.05 16.61C41.890202 16.61 40.95 17.550202 40.95 18.71 40.95 19.2622847 41.3977153 19.71 41.95 19.71 42.5022847 19.71 42.95 19.2622847 42.95 18.71 42.95 18.61 43.14 18.6 43.14 18.71 43.14 19.2622847 43.5877153 19.71 44.14 19.71 44.6922847 19.71 45.14 19.2622847 45.14 18.71 45.14 17.5540961 44.2058908 16.6155043 43.05 16.61z"/>
        <path id="Shape" fill="#3D454C" d="M40.62,13.17 C36.06,13.17 32.49,15.49 32.49,18.45 C32.49,21.41 36.06,23.73 40.62,23.73 C45.18,23.73 48.76,21.42 48.76,18.45 C48.76,15.48 45.18,13.17 40.62,13.17 Z M40.62,21.73 C37.01,21.73 34.49,20.01 34.49,18.45 C34.49,16.89 37.01,15.17 40.62,15.17 C44.23,15.17 46.76,16.9 46.76,18.45 C46.76,20 44.24,21.73 40.62,21.73 L40.62,21.73 Z"/>
        <path id="Path" fill="#3D454C" d="M37.17 11.39C37.7222847 11.39 38.17 10.9422847 38.17 10.39 38.17 9.83771525 37.7222847 9.39 37.17 9.39 36.6177153 9.39 36.17 9.83771525 36.17 10.39 36.17 10.9422847 36.6177153 11.39 37.17 11.39zM43.69 11.39C44.2422847 11.39 44.69 10.9422847 44.69 10.39 44.69 9.83771525 44.2422847 9.39 43.69 9.39 43.1377153 9.39 42.69 9.83771525 42.69 10.39 42.69 10.9422847 43.1377153 11.39 43.69 11.39z"/>
      </g>
    </g>
  </g>
</svg>
