<svg xmlns="http://www.w3.org/2000/svg" width="64" height="64" viewBox="0 0 64 64" style="background:#fff">
  <g id="Schwarzwurzel" fill="none" fill-rule="evenodd" stroke="none" stroke-width="1">
    <rect width="64" height="64" fill="#FFF"/>
    <g transform="translate(2 4)">
      <g id="Layer_2">
        <rect id="Rectangle" width="60" height="60" x="0" y="0"/>
      </g>
      <g id="Layer_1" fill-rule="nonzero" transform="translate(3 3)">
        <path id="Path" fill="#483318" d="M34.34 7.56C29.23 12.38 24.9 17.76 19.34 22.18 13.78 26.6 7.4 29.74 1.76 34-.4 35.67.5 41.69 3.82 40.81 10.58 39 17 33.87 22.36 29.44 27.9 24.84 33.69 19.44 37.36 13.25 38.52 11.37 37.28 4.78 34.34 7.56zM48.12 12.79C44.2 20.79 39.32 28 32.7 33.79 25.93 39.72 18.17 43.21 9.86 46.07 7.3 46.96 7.74 54.14 10.68 53.59 28.88 50.22 45.25 34.35 51.07 16.23 51.64 14.43 49.62 9.74 48.12 12.79z" opacity=".5"/>
        <path id="Path" fill="#EBE53F" d="M42.17,2.19 L42.06,2.11 C41.4041587,1.59671891 40.5521825,1.40575872 39.74,1.59 C38.8751413,1.78291392 38.2259389,2.50024245 38.12,3.38 C38.0400129,4.16758645 38.4320985,4.92823243 39.12,5.32 C39.454104,5.55357066 39.8438539,5.69498433 40.25,5.73 C40.7670579,5.79872123 41.292554,5.70062863 41.75,5.45 L41.88,5.36 C42.4299435,5.04913685 42.80069,4.49672457 42.88,3.87 C42.9841683,3.22029196 42.708535,2.56808939 42.17,2.19 Z" opacity=".5"/>
        <path id="Shape" fill="#3D454C" d="M22.42,29.12 C27.85,23.19 31.36,19.88 34.18,17.23 C35.04,16.42 35.82,15.69 36.56,14.97 C36.6449182,14.8950742 36.7250742,14.8149182 36.8,14.73 C39.478762,12.1430459 41.7963244,9.20656988 43.69,6 C44.1687125,5.38752103 44.3909902,4.61313438 44.31,3.84 C44.1746298,2.84980955 43.6116917,1.96884809 42.77,1.43 C41.01,0.19 39.14,0.26 37.84,1.59 L37.84,1.59 C36.0575631,3.27214943 34.3873153,5.06933607 32.84,6.97 C30.77,8.64 28.65,10.4 26.55,12.14 C26.2242558,11.8731591 25.9699624,11.5295194 25.81,11.14 C25.676372,10.9102558 25.4567828,10.7431582 25.1997298,10.6756114 C24.9426768,10.6080647 24.6693087,10.6456261 24.44,10.78 C24.1937965,10.89961 24.0073838,11.1149128 23.9242349,11.3756981 C23.841086,11.6364834 23.8684697,11.9199531 24,12.16 C24.2373184,12.6508253 24.5785358,13.0841714 25,13.43 L25,13.43 C19.3,18.17 13.92,22.64 10.62,24.7 C7.62,26.55 1.77,30.96 0.72,34.44 C-1,40 1.89,41 2.84,41.39 L3,41.45 C3.57614619,41.6905716 4.19572072,41.8097205 4.82,41.8 C8.8,41.8 14.71,37.55 22.42,29.12 Z M40.26,2.52998169 C40.7558273,2.56025089 41.230473,2.74173308 41.62,3.05 C41.9857542,3.26974704 42.2431286,3.63224621 42.33,4.05 C42.3530272,4.4263957 42.2062581,4.7933184 41.93,5.05 C41.51,5.51 41.11,5.76 39.74,4.8 C39.3453098,4.58281744 39.0457962,4.22625352 38.9,3.8 C38.8709739,3.49726922 38.9902013,3.19920087 39.22,3 C39.481804,2.69952308 39.8614734,2.52794172 40.26,2.52998169 L40.26,2.52998169 Z M3.78,39.61 L3.53,39.51 C2.75,39.23 1.44,38.75 2.53,35.04 C3.06,33.31 5.53,30.88 8.13,28.85 C8.25702023,29.432854 8.48731659,29.9882746 8.81,30.49 C9.21560896,31.226271 9.9255642,31.745929 10.75,31.91 L10.87,31.91 C11.2272656,31.9332223 11.5697815,31.7640816 11.7685254,31.4662917 C11.9672693,31.1685017 11.9920471,30.7873039 11.8335254,30.4662917 C11.6750037,30.1452794 11.3572656,29.9332223 11,29.91 C10.7247314,29.7523834 10.5073849,29.5104977 10.38,29.22 C10.0687415,28.6930574 9.96869278,28.0677531 10.1,27.47 C10.1,27.47 10.1,27.41 10.1,27.38 C10.61,27.03 11.1,26.7 11.57,26.38 C15,24.29 20.47,19.77 26.22,15 C28.84,12.83 31.54,10.58 34.14,8.49 C34.1983618,8.43828561 34.2519143,8.38138601 34.3,8.32 C34.3,8.32 35.45,6.87 37.3,4.97 C37.6215737,5.53783624 38.0698769,6.02378327 38.61,6.39 C39.1727538,6.81522914 39.8105254,7.13072258 40.49,7.32 C38.9670753,9.56870929 37.2069764,11.6473023 35.24,13.52 C35.1422934,13.5951054 35.0232039,13.637137 34.9,13.64 C34.6523536,13.6209747 34.4206498,13.5104698 34.25,13.33 C33.8854921,12.913025 33.251975,12.8704921 32.835,13.235 C32.418025,13.599508 32.3754921,14.233025 32.74,14.65 C32.948474,14.87267 33.18753,15.0645882 33.45,15.22 L32.84,15.79 C30.2,18.27 26.61,21.65 21.32,27.41 L21.32,27.41 C20.9680148,27.8692305 20.4066209,28.1179016 19.83,28.07 C19.4926662,28.0325684 19.1836749,27.8637011 18.97,27.6 C18.7711775,27.0836138 18.1913862,26.8261775 17.675,27.025 C17.1586138,27.2238225 16.9011775,27.8036138 17.1,28.32 C17.4658156,29.0962335 18.1465236,29.6786575 18.97,29.92 C11.9,37.21 6.44,40.73 3.78,39.61 Z"/>
        <path id="Path" fill="#3D454C" d="M16.58,24.21 C16.0277153,24.21 15.58,24.6577153 15.58,25.21 C15.58,25.7622847 16.0277153,26.21 16.58,26.21 C17.1322847,26.21 17.58,25.7622847 17.58,25.21 C17.58,24.6577153 17.1322847,24.21 16.58,24.21 Z"/>
        <path id="Shape" fill="#3D454C" d="M51.88,8.68 C51.5054589,8.50196207 51.0598946,8.57357062 50.76,8.86 C47.86,11.59 41.18,19.05 40.45,19.86 C36.75,22.86 32.97,26.31 29.32,29.66 C26.9,31.88 24.56,34 22.5,35.78 L22.3,35.43 C21.9983909,35.0152779 21.4319551,34.8959125 20.988637,35.1536556 C20.5453188,35.4113987 20.3688104,35.9627084 20.58,36.43 L20.93,37.06 C20.0798859,37.7783177 19.1883536,38.4461321 18.26,39.06 C17.75,39.38 17.2,39.71 16.61,40.06 C13.29,42.06 9.17,44.49 8.29,47.38 C6.61,52.9 9.52,53.96 10.47,54.32 L10.63,54.38 C10.9204594,54.5196775 11.2377443,54.5947341 11.56,54.6 C13.11,54.6 16.65,52.82 29.94,42.15 C39.65,34.35 45.94,26.71 49.8,18.15 L50.24,17.15 C51.4667391,14.8427225 52.2182274,12.3128254 52.45,9.71 C52.5036217,9.27935656 52.2733663,8.86328113 51.88,8.68 Z M48.41,16.29 L47.97,17.29 C44.7969456,24.1243413 40.2884434,30.2546803 34.71,35.32 C34.2256333,35.0179998 33.8695999,34.5480357 33.71,34 C33.5636445,33.4670452 33.0129548,33.1536445 32.48,33.3 C31.9470452,33.4463555 31.6336445,33.9970452 31.78,34.53 C32.0257559,35.3765374 32.516318,36.131516 33.19,36.7 C31.77,37.98 30.2566667,39.2666667 28.65,40.56 C24.65,43.81 21.48,46.22 19.06,48 L18.96,47.9 C18.1881859,47.3319706 17.5386166,46.6143835 17.05,45.79 C16.7483909,45.3752779 16.1819551,45.2559125 15.738637,45.5136556 C15.2953188,45.7713987 15.1188104,46.3227084 15.33,46.79 C15.8757527,47.7009898 16.5762547,48.509782 17.4,49.18 C13.34,52.06 11.82,52.68 11.4,52.49 L11.15,52.4 C10.37,52.11 9.06,51.63 10.15,47.93 C10.81,45.78 14.72,43.44 17.58,41.74 C18.18,41.38 18.75,41.04 19.26,40.74 C22.06,39 26.03,35.35 30.63,31.14 C32.36,29.55 34.12,27.94 35.88,26.36 C36.1274106,26.8272538 36.4677071,27.2390126 36.88,27.57 C37.2700375,27.9577236 37.8999625,27.9577236 38.29,27.57 C38.6777236,27.1799625 38.6777236,26.5500375 38.29,26.16 C37.9164397,25.8631677 37.6439606,25.4579424 37.51,25 C37.51,25 37.51,25 37.51,25 C38.94,23.75 40.37,22.52 41.78,21.38 L41.9,21.27 C41.96,21.2 46.57,16.04 49.9,12.55 C49.4920215,13.8301974 48.9941156,15.0799748 48.41,16.29 L48.41,16.29 Z"/>
      </g>
    </g>
  </g>
</svg>
