<svg xmlns="http://www.w3.org/2000/svg" width="64" height="64" viewBox="0 0 64 64" style="background:#fff">
  <g id="Schwein-(Kotelett)" fill="none" fill-rule="evenodd" stroke="none" stroke-width="1">
    <rect width="64" height="64" fill="#FFF"/>
    <g transform="translate(2 4)">
      <g id="Layer_2">
        <rect id="Rectangle" width="60" height="60" x="0" y="0"/>
        <rect id="Rectangle" width="60" height="60" x="0" y="0"/>
      </g>
      <g id="Layer_1" fill-rule="nonzero" transform="translate(3 2)">
        <path id="Path" fill="#E05362" d="M32.34 37.9C32.86 34.65 31.84 30.83 29.13 30.04 22.13 28.04 15.52 28.48 8.62 30.18 6.47 30.71 4.62 31.49 4.17 33.8 1.47 32.74.09 39.91 1.62 42.07 4.93700639 46.9440509 9.95489713 50.4034354 15.69 51.77 20.53 52.92 28.27 53.28 31.93 49.19 34.9 45.89 34.55 41.31 32.34 37.9zM48.5 17.9C47.9698448 16.8269632 47.0398944 16.0047291 45.91 15.61 44.6977232 15.2169664 43.4415511 14.9751364 42.17 14.89 41.0547637 14.8100678 39.9352363 14.8100678 38.82 14.89 37 15 36 15.4 35.07 16.87 34.14 18.34 33.86 20.64 35.21 21.93 36.21 22.85 36.84 23.52 38.33 23.44 39.55 23.38 40.81 23.17 42.04 23.08 43.27 22.99 44.28 22.92 45.37 22.75 46.51344 22.6389225 47.5614714 22.0643121 48.27 21.16 48.9506832 20.2019961 49.0394315 18.9440856 48.5 17.9z" opacity=".5"/>
        <path id="Path" fill="#E0A075" d="M41.66,4 C34.37,3.62 28.21,10.87 28.66,17.86 C28.8,20.18 31.94,24.86 33.89,20.99 C35.57,17.61 37.08,14.34 41.37,14.05 C45.21,13.79 47.88,16.46 50.11,19.2 C51.4,20.79 53.11,19.62 53.31,17.82 C53.6712544,14.4271103 52.6320971,11.0337566 50.4329257,8.42495409 C48.2337543,5.81615159 45.0651013,4.21792265 41.66,4 L41.66,4 Z" opacity=".5"/>
        <path id="Shape" fill="#3D454C" d="M38.27,32.74 C37.77,30.02 35.14,28.52 33.06,28.06 C30.83,27.57 20.06,26.59 15.82,27.26 C12.29,27.82 4.82,30.59 2.44,32.81 L2.34,32.88 L2.34,32.88 L2.34,32.88 L2.19,33.04 L2.19,33.04 L2.19,33.04 C2.19,33.04 2.19,33.12 2.12,33.16 C1.25888029,34.3078568 0.843189019,35.7290235 0.95,37.16 C0.925439149,37.2252125 0.90539186,37.2920368 0.89,37.36 C0.44,41.28 0.24,45.67 3,48.63 C4.51671701,50.0767258 6.37954405,51.1097168 8.41,51.63 C12.615345,52.95846 16.9998159,53.632994 21.41,53.6300099 C22.31,53.6300099 23.2,53.6300099 24.11,53.54 C25.2813494,53.4902086 26.4459435,53.336268 27.59,53.08 C31.1127191,52.2448712 34.1579945,50.0415868 36.053111,46.9568626 C37.9482275,43.8721384 38.5372281,40.1598288 37.69,36.64 L37.69,36.55 C38.2811597,35.3732217 38.4842116,34.0393808 38.27,32.74 L38.27,32.74 Z M34.35,45.91 C32.730214,48.5357495 30.1388829,50.4154529 27.14,51.14 C26.1035708,51.3677182 25.0498862,51.5082095 23.99,51.56 C18.9193671,51.8751595 13.8341253,51.2513698 8.99,49.72 C7.29322035,49.2943424 5.72937265,48.4522706 4.44,47.27 C3.19983828,45.7450953 2.55021612,43.8246276 2.61,41.86 C3.595146,43.2301749 4.96713151,44.2748339 6.55,44.86 C8.72059239,45.5243018 10.9234089,46.0783436 13.15,46.52 C14.15,46.67 15.23,46.78 16.32,46.86 L16.39,46.86 C16.9422847,46.87933 17.40567,46.4472847 17.425,45.895 C17.44433,45.3427153 17.0122847,44.87933 16.46,44.86 C15.46,44.79 14.4,44.68 13.46,44.54 C12.16,44.35 8,43.26 7.22,42.98 C5.35798577,42.2753726 3.89682856,40.792298 3.22,38.92 C2.72,37.6 2.55,35.61 3.67,34.36 C5.16,32.77 12.23,29.86 16.09,29.25 C19.95,28.64 30.5,29.58 32.58,30.03 C34.19,30.38 35.95,31.48 36.26,33.13 C36.52,34.55 35.66,36.13 34.84,37.45 C34.0165392,38.9070341 33.0081837,40.2515081 31.84,41.45 C30.4133308,42.741353 28.6992419,43.6738173 26.84,44.17 C26.4795806,44.2529786 26.1943903,44.5281116 26.098531,44.885321 C26.0026717,45.2425305 26.1117981,45.6234807 26.3822498,45.8757574 C26.6527014,46.128034 27.0403111,46.2104379 27.39,46.09 C29.5662363,45.515195 31.5703297,44.4204933 33.23,42.9 C34.3206248,41.8271719 35.2714731,40.6209722 36.06,39.31 C36.1615239,41.6313632 35.5659712,43.9299878 34.35,45.91 Z"/>
        <path id="Path" fill="#3D454C" d="M22.88 40.15C18.21 38.32 13.4 36.7 8.57 35.33 8.03704522 35.1725989 7.47740118 35.4770452 7.32000003 36.01 7.16259888 36.5429548 7.46704523 37.1025988 8 37.26 12.77 38.61 17.52 40.26 22.13 42.01 22.2473493 42.058051 22.3732077 42.081862 22.5 42.08 22.9787354 42.0764149 23.38777 41.7340254 23.4755562 41.2633939 23.5633424 40.7927624 23.3052498 40.3259347 22.86 40.15L22.88 40.15zM27.24 38.75C27.3215936 38.496727 27.2988801 38.2213788 27.1768869 37.9848996 27.0548937 37.7484205 26.8436818 37.5703135 26.59 37.49 26 37.3 24.01 36.49 21.9 35.63 19.15 34.52 16.03 33.25 14.33 32.63 14.0794026 32.5404227 13.8034358 32.5544292 13.5631956 32.6689187 13.3229554 32.7834081 13.1382604 32.9889357 13.05 33.24 12.9608876 33.4918942 12.9762871 33.7689745 13.0927638 34.0094425 13.2092405 34.2499106 13.4171063 34.433765 13.67 34.52 15.32 35.09 18.42 36.35 21.15 37.46 23.48 38.4 25.32 39.15 25.98 39.36 26.0824384 39.3792326 26.1875616 39.3792326 26.29 39.36 26.7021407 39.37196 27.079371 39.1297385 27.24 38.75L27.24 38.75zM18.92 32.77L28.37 36.15C28.4758375 36.1884365 28.5874065 36.2087218 28.7 36.2100182 29.1272885 36.2125692 29.509 35.9433622 29.65 35.54 29.7346982 35.2854358 29.7135557 35.0075148 29.5913238 34.7686925 29.469092 34.5298703 29.2560234 34.3501791 29 34.27L19.55 30.89C19.2994026 30.8004227 19.0234358 30.8144292 18.7831956 30.9289187 18.5429554 31.0434081 18.3582604 31.2489357 18.27 31.5 18.1853018 31.7545642 18.2064443 32.0324852 18.3286762 32.2713075 18.450908 32.5101297 18.6639766 32.6898209 18.92 32.77zM21.76 44.91C21.2077153 44.91 20.76 45.3577153 20.76 45.91 20.76 46.4622847 21.2077153 46.91 21.76 46.91 22.3122847 46.91 22.76 46.4622847 22.76 45.91 22.76 45.3577153 22.3122847 44.91 21.76 44.91z"/>
        <path id="Shape" fill="#3D454C" d="M51.55,9 L51.72,8.83 C53.72,6.72 54.12,4.71 54.12,1.74 C54.12,1.18771525 53.6722847,0.74 53.12,0.74 C50.22,0.74 48.27,1.14 46.25,3.24 C46.03,3.48 45.79,3.76 45.52,4.1 C42.9880881,3.27988635 40.2619119,3.27988635 37.73,4.1 C37.46,3.76 37.22,3.47 37,3.24 C35,1.14 33,0.74 30.12,0.74 C29.5677153,0.74 29.12,1.18771525 29.12,1.74 C29.12,4.74 29.51,6.74 31.53,8.83 L31.69,9 C31.98,9.3 32.32,9.65 32.69,10 C31.69,11.91 29.11,17.06 29.11,18.91 C29.11,23.18 34.25,27.91 41.61,27.91 C48.97,27.91 54.11,23.16 54.11,18.91 C54.11,17.06 51.53,11.91 50.54,10 C50.93,9.66 51.27,9.3 51.55,9 Z M52.12,18.91 C52.12,21.84 48.12,25.91 41.62,25.91 C35.12,25.91 31.12,21.82 31.12,18.91 C31.12,17.86 33.12,13.46 34.84,10.23 C35.0496557,9.80541852 34.9327788,9.29199476 34.56,9 C34.056567,8.58634676 33.5821188,8.13862801 33.14,7.66 L33,7.44 C31.7668266,6.2023322 31.1069963,4.50562557 31.18,2.76 C32.8521604,2.69590578 34.4656357,3.3816328 35.58,4.63 C35.938973,5.02198302 36.2729642,5.43613212 36.58,5.87 C36.8452044,6.23891129 37.3257751,6.38267175 37.75,6.22 C40.2529265,5.23326417 43.0370735,5.23326417 45.54,6.22 C45.9642249,6.38267175 46.4447956,6.23891129 46.71,5.87 C47.0170358,5.43613212 47.351027,5.02198302 47.71,4.63 C48.8243643,3.3816328 50.4378396,2.69590578 52.11,2.76 C52.1781143,4.5048102 51.5190177,6.19963002 50.29,7.44 L50.12,7.62 C49.6787689,8.1153581 49.2007417,8.57667107 48.69,9 C48.2965514,9.29655275 48.1777299,9.83549353 48.41,10.27 C50.16,13.46 52.12,17.86 52.12,18.91 Z"/>
        <path id="Path" fill="#3D454C" d="M39.1 17.35C37.9440961 17.35 37.0055043 18.2841092 37 19.44 37 19.9922847 37.4477153 20.44 38 20.44 38.5522847 20.44 39 19.9922847 39 19.44 39 19.34 39.2 19.34 39.2 19.44 39.2 19.9922847 39.6477153 20.44 40.2 20.44 40.7522847 20.44 41.2 19.9922847 41.2 19.44 41.1944957 18.2841092 40.2559039 17.35 39.1 17.35zM44.05 17.35C42.9136494 17.3770522 42.0050908 18.3033389 42 19.44 42 19.9922847 42.4477153 20.44 43 20.44 43.5522847 20.44 44 19.9922847 44 19.44 44 19.34 44.19 19.34 44.19 19.44 44.19 19.9922847 44.6377153 20.44 45.19 20.44 45.7422847 20.44 46.19 19.9922847 46.19 19.44 46.1874249 18.8777812 45.9595155 18.3400732 45.5572915 17.947247 45.1550675 17.5544208 44.6121226 17.3392851 44.05 17.35z"/>
        <path id="Shape" fill="#3D454C" d="M41.62,13.91 C37.06,13.91 33.49,16.23 33.49,19.19 C33.49,22.15 37.06,24.47 41.62,24.47 C46.18,24.47 49.76,22.15 49.76,19.19 C49.76,16.23 46.18,13.91 41.62,13.91 Z M41.62,22.47 C38.01,22.47 35.49,20.74 35.49,19.19 C35.49,17.64 38.01,15.91 41.62,15.91 C45.23,15.91 47.76,17.64 47.76,19.19 C47.76,20.74 45.24,22.47 41.62,22.47 Z"/>
        <path id="Path" fill="#3D454C" d="M38.17 12.12C38.7222847 12.12 39.17 11.6722847 39.17 11.12 39.17 10.5677153 38.7222847 10.12 38.17 10.12 37.6177153 10.12 37.17 10.5677153 37.17 11.12 37.17 11.6722847 37.6177153 12.12 38.17 12.12zM44.69 12.12C45.2422847 12.12 45.69 11.6722847 45.69 11.12 45.69 10.5677153 45.2422847 10.12 44.69 10.12 44.1377153 10.12 43.69 10.5677153 43.69 11.12 43.69 11.6722847 44.1377153 12.12 44.69 12.12z"/>
      </g>
    </g>
  </g>
</svg>
