<svg xmlns="http://www.w3.org/2000/svg" width="64" height="64" viewBox="0 0 64 64" style="background:#fff">
  <g id="Schwein-(Hackfleisch)" fill="none" fill-rule="evenodd" stroke="none" stroke-width="1">
    <rect width="64" height="64" fill="#FFF"/>
    <g transform="translate(2 4)">
      <g id="Layer_2">
        <rect id="Rectangle" width="60" height="60" x="0" y="0"/>
        <rect id="Rectangle" width="60" height="60" x="0" y="0"/>
      </g>
      <g id="Layer_1" fill-rule="nonzero" transform="translate(3 3)">
        <path id="Path" fill="#E05362" d="M44.46,38.51 C40.84,40.15 37.2,36.34 33.16,37.51 C31.49,37.99 30.78,38.72 29.04,38.39 C27.76,38.15 26.87,37.26 25.66,36.86 C24.362309,36.3058319 22.9008655,36.2735942 21.58,36.77 C20.91,37.02 20.46,37.55 19.82,37.77 C18.13,38.46 17.4,38.09 15.66,37.65 C14.0718672,37.1115823 12.3933555,36.8907255 10.72,37 C7.60096219,37.23864 4.85822654,39.1539582 3.56,42 C3.16,42.82 3.71,45.72 5.15,44.9 C9.59,42.39 11.68,42.14 16.43,43.72 C17.6432699,44.2291026 19.0040446,44.2612468 20.24,43.81 C22.88,42.81 23.59,42.09 26.51,43.59 C27.7900749,44.4041732 29.2962044,44.7894621 30.81,44.69 C33.16,44.45 34.6,42.95 37.15,43.59 C40.46,44.41 43.25,46.87 46.09,43.68 C47.18,42.51 47.23,37.25 44.46,38.51 Z" opacity=".5"/>
        <path id="Path" fill="#CCC" d="M36.35,30.55 C31.72,32.47 30.48,29.11 26.72,28.07 C24.34,27.42 23.61,28.97 21.72,29.82 C19.39,30.89 17.82,28.76 15.14,29.27 C12.77,29.72 11.24,31.52 9.86,33.27 C9.13,34.2 9.69,38.17 11.48,37.06 C12.4263439,36.3185854 13.4735437,35.7158563 14.59,35.27 C19.03,34.11 16.74,35.91 19.11,36.27 C21.2,36.58 21.68,36.16 23.56,35.42 C26.9,34.11 28,36.42 31.06,37.26 C33.2502795,37.8215011 35.5651058,37.6385665 37.64,36.74 C40.32,35.74 39.31,29.32 36.35,30.55 Z" opacity=".5"/>
        <path id="Path" fill="#E05362" d="M47.63,17.9 C47.0928409,16.8193919 46.1458755,15.9984485 45,15.62 C43.7894364,15.2186616 42.532631,14.9733493 41.26,14.89 C40.1477667,14.8200074 39.0322333,14.8200074 37.92,14.89 C36.05,15 35.1,15.37 34.16,16.83 C33.22,18.29 32.95,20.6 34.31,21.9 C35.26,22.81 35.93,23.48 37.42,23.4 C38.65,23.34 39.9,23.13 41.13,23.04 C42.36,22.95 43.37,22.88 44.46,22.71 C45.60344,22.5989225 46.6514714,22.0243121 47.36,21.12 C48.0420925,20.1805022 48.1461125,18.9399684 47.63,17.9 L47.63,17.9 Z" opacity=".5"/>
        <path id="Path" fill="#E0A075" d="M40.57,3.92 C33.28,3.54 27.12,10.8 27.57,17.79 C27.72,20.11 30.86,24.79 32.8,20.91 C34.47,17.53 36,14.27 40.28,14 C44.11,13.74 46.78,16.42 49.01,19.16 C50.3,20.75 52.01,19.58 52.22,17.77 C52.5841435,14.3734324 51.5468625,10.9753134 49.3479279,8.36112928 C47.1489932,5.74694521 43.9787463,4.14298161 40.57,3.92 Z" opacity=".5"/>
        <path id="Shape" fill="#3D454C" d="M50.52,8.72 L50.68,8.55 C52.68,6.44 53.08,4.44 53.08,1.46 C53.08,0.90771525 52.6322847,0.46 52.08,0.46 C49.19,0.46 47.23,0.86 45.21,2.97 C44.99,3.2 44.75,3.49 44.48,3.82 C41.9465028,3.00998735 39.2234972,3.00998735 36.69,3.82 C36.42,3.48 36.18,3.2 35.96,2.97 C33.96,0.86 31.96,0.46 29.08,0.46 C28.5277153,0.46 28.08,0.90771525 28.08,1.46 C28.08,4.46 28.47,6.46 30.49,8.55 L30.65,8.72 C30.94,9.03 31.28,9.38 31.65,9.72 C30.65,11.63 28.07,16.78 28.07,18.63 C28.07,22.89 33.21,27.63 40.57,27.63 C47.93,27.63 53.07,22.87 53.07,18.63 C53.07,16.77 50.49,11.63 49.5,9.72 C49.89,9.38 50.23,9 50.52,8.72 Z M51.08,18.64 C51.08,21.57 47.08,25.64 40.58,25.64 C34.08,25.64 30.08,21.55 30.08,18.64 C30.08,17.59 32.08,13.19 33.8,9.96 C34.0381174,9.52309292 33.9187874,8.97758416 33.52,8.68 C33.0117685,8.27182533 32.5369273,7.82373583 32.1,7.34 L31.93,7.17 C30.6968266,5.9323322 30.0369963,4.23562557 30.11,2.49 C31.7805511,2.42338727 33.3937616,3.10533537 34.51,4.35 C34.8711044,4.74366997 35.2051986,5.16128765 35.51,5.6 C35.777966,5.96526527 36.2580082,6.10476472 36.68,5.94 C39.1829265,4.95326417 41.9670735,4.95326417 44.47,5.94 C44.8919918,6.10476472 45.372034,5.96526527 45.64,5.6 C45.9473389,5.16318663 46.2813053,4.74572873 46.64,4.35 C47.7562384,3.10533537 49.3694489,2.42338727 51.04,2.49 C51.1081143,4.2348102 50.4490177,5.92963002 49.22,7.17 L49.05,7.34 C48.6130727,7.82373583 48.1382315,8.27182533 47.63,8.68 C47.2160676,8.98722024 47.1034928,9.55875378 47.37,10 C49.12,13.19 51.08,17.59 51.08,18.64 L51.08,18.64 Z"/>
        <path id="Path" fill="#3D454C" d="M38.06 17.07C36.9158527 17.0917972 35.9997924 18.0256451 36 19.17 36 19.7222847 36.4477153 20.17 37 20.17 37.5522847 20.17 38 19.7222847 38 19.17 38 19.06 38.19 19.07 38.19 19.17 38.19 19.7222847 38.6377153 20.17 39.19 20.17 39.7422847 20.17 40.19 19.7222847 40.19 19.17 40.1900574 18.6078084 39.9646946 18.0690679 39.5643558 17.6743677 39.164017 17.2796675 38.6221343 17.0619687 38.06 17.07zM43 17.07C41.840202 17.07 40.9 18.010202 40.9 19.17 40.9 19.7222847 41.3477153 20.17 41.9 20.17 42.4522847 20.17 42.9 19.7222847 42.9 19.17 42.9 19.06 43.09 19.07 43.09 19.17 43.09 19.7222847 43.5377153 20.17 44.09 20.17 44.6422847 20.17 45.09 19.7222847 45.09 19.17 45.09 18.0140961 44.1558908 17.0755043 43 17.07z"/>
        <path id="Shape" fill="#3D454C" d="M40.58,13.63 C36.02,13.63 32.45,15.95 32.45,18.91 C32.45,21.87 36.02,24.19 40.58,24.19 C45.14,24.19 48.72,21.88 48.72,18.91 C48.72,15.94 45.14,13.63 40.58,13.63 Z M40.58,22.19 C36.97,22.19 34.45,20.47 34.45,18.91 C34.45,17.35 36.97,15.63 40.58,15.63 C44.19,15.63 46.72,17.36 46.72,18.91 C46.72,20.46 44.2,22.19 40.58,22.19 L40.58,22.19 Z"/>
        <path id="Path" fill="#3D454C" d="M37.13 11.85C37.6822847 11.85 38.13 11.4022847 38.13 10.85 38.13 10.2977153 37.6822847 9.85 37.13 9.85 36.5777153 9.85 36.13 10.2977153 36.13 10.85 36.13 11.4022847 36.5777153 11.85 37.13 11.85zM43.65 11.85C44.2022847 11.85 44.65 11.4022847 44.65 10.85 44.65 10.2977153 44.2022847 9.85 43.65 9.85 43.0977153 9.85 42.65 10.2977153 42.65 10.85 42.65 11.4022847 43.0977153 11.85 43.65 11.85zM49.39 45.51L49.39 45.51C47.23 45.57 45.39 47.99 43.9 49.94 43.62 50.31 43.36 50.65 43.12 50.94 41.84 52.49 33.02 52.58 27.19 52.64L26.88 52.64C20.7752179 52.65202 14.6770492 52.2376787 8.63 51.4 7.63 51.22 6.87 50.4 6.22 48.8 5.55595878 46.7826413 3.64279408 45.443426 1.52 45.51.96771525 45.51.52 45.9577153.52 46.51.52 47.0622847.96771525 47.51 1.52 47.51 2.83089449 47.4588796 4.00734944 48.3092295 4.37 49.57 5.3 51.82 6.58 53.06 8.27 53.37 14.1753089 54.1888366 20.1282855 54.6164353 26.09 54.65L27.17 54.65C36.58 54.56 42.88 54.33 44.62 52.23 44.87 51.93 45.15 51.56 45.45 51.17 46.45 49.82 48.21 47.56 49.45 47.52 50.0022847 47.52 50.45 47.0722847 50.45 46.52 50.45 45.9677153 50.0022847 45.52 49.45 45.52L49.39 45.51z"/>
        <path id="Path" fill="#3D454C" d="M24.27,45.67 L26.45,45.67 C28.02,45.67 29.92,45.67 31.92,45.73 C34.13,45.73 36.49,45.81 38.66,45.81 C40.83,45.81 42.89,45.81 44.37,45.64 L44.68,45.64 C45.59,45.59 46.96,45.51 47.68,44.64 C48.0072987,44.2513423 48.1593093,43.7446401 48.1,43.24 C47.7797924,41.6410849 47.2343574,40.0956857 46.48,38.65 C45.93,37.84 43.32,34.76 40.55,34.65 L40.55,34.65 C39.9977153,34.65 39.55,35.0977153 39.55,35.65 C39.55,36.2022847 39.9977153,36.65 40.55,36.65 C42.19,36.7 44.29,38.85 44.88,39.74 C45.4390469,40.8922147 45.8683471,42.1029753 46.16,43.35 C45.6613127,43.5067578 45.1426664,43.5909536 44.62,43.6 L44.27,43.6 C41.43,43.84 36.43,43.76 32.01,43.68 C30.01,43.68 28.09,43.62 26.51,43.62 L24.3,43.62 C12.6,43.79 5.92,43.68 4.44,43.3 C4.19,42.45 5.04,40.46 5.83,39.45 C7.15,37.77 8.2,36.8 9.7,36.8 L9.7,36.8 C10.2522847,36.8 10.7,36.3522847 10.7,35.8 C10.7,35.2477153 10.2522847,34.8 9.7,34.8 L9.7,34.8 C7.14,34.8 5.55,36.56 4.26,38.22 C3.46,39.22 1.5,42.6 2.88,44.61 C3.3,45.36 3.72,46 24.27,45.67 Z"/>
        <path id="Path" fill="#3D454C" d="M7.42 40.47C7.07957868 40.8370527 7.06303089 41.3992757 7.38127484 41.7857148 7.6995188 42.1721539 8.25448189 42.2637209 8.68 42L9.07 41.68C10.32 40.68 10.74 40.31 12.45 40.68 13.0549546 40.8199769 13.6470467 41.0106506 14.22 41.25 15.68 41.8 17.34 42.43 19.22 41.37 21.68 39.99 22.55 40.18 25.22 41.58 27.89 42.98 29.29 42.22 30.83 41.43 31.3746975 41.1441165 31.9356561 40.8903494 32.51 40.67 33.51 40.29 34.51 40.81 35.68 41.42 36.5860511 41.9875774 37.6146127 42.3304312 38.68 42.42 39.0654747 42.4200467 39.4479585 42.3523504 39.81 42.22 40.1642697 42.1100522 40.4285729 41.8130362 40.4966237 41.4483931 40.5646744 41.0837499 40.4252909 40.7113968 40.1345242 40.4810703 39.8437575 40.2507439 39.4493857 40.2002907 39.11 40.35 38.47 40.58 37.73 40.24 36.59 39.63 35.27 38.94 33.64 38.08 31.78 38.77 31.1374858 39.0206748 30.5097989 39.3078082 29.9 39.63 28.47 40.35 27.82 40.68 26.12 39.79 23.12 38.24 21.51 37.79 18.2 39.6 17.2 40.18 16.31 39.9 14.87 39.36 14.1958392 39.0836073 13.5001824 38.86287 12.79 38.7 10.14 38.15 9.08 39.03 7.79 40.13L7.42 40.47zM29.68 35.34C29.3825083 35.5354371 29.0358743 35.6428937 28.68 35.65 28.1896717 35.5379135 27.7248818 35.3343559 27.31 35.05 26.9862923 34.8587523 26.6524707 34.685165 26.31 34.53 24.5190423 33.6598214 22.415192 33.7233479 20.68 34.7 19.7228022 34.9285039 18.7188827 34.8622731 17.8 34.51 16.03 34.08 13.8 33.51 12.18 35.7 11.8431063 36.1390664 11.9259337 36.7681063 12.365 37.105 12.8040664 37.4418937 13.4331063 37.3590663 13.77 36.92 14.58 35.84 15.55 36.02 17.33 36.46 18.6681077 36.9384541 20.1265175 36.9630538 21.48 36.53 23.15 35.81 23.93 35.69 25.48 36.37 25.7380071 36.4914805 25.9884608 36.6283953 26.23 36.78 26.9011987 37.235794 27.6671116 37.5332691 28.47 37.65L28.68 37.65C29.3149398 37.6270022 29.9339095 37.44475 30.48 37.12 30.7836751 36.9314991 31.1250552 36.8120161 31.48 36.77L31.48 36.77C32.0590947 36.7876416 32.633642 36.8783596 33.19 37.04 34.7699254 37.7009937 36.5953565 37.2828333 37.73 36 38.1304064 35.6189235 38.1460765 34.9854064 37.765 34.585 37.3839235 34.1845936 36.7504064 34.1689235 36.35 34.55 35.7421643 35.3119682 34.6883294 35.5526077 33.81 35.13 33.0841497 34.9398537 32.3397743 34.8292033 31.59 34.8 30.9187777 34.8212533 30.2629883 35.0066598 29.68 35.34zM13.09 32.59C14.92 30.75 16.61 31.08 18.61 32.07 19.4086706 32.6052451 20.3931918 32.7862233 21.33 32.57 23.11 32.09 24.03 30.33 26.17 31.14 27.49 31.64 28.08 32.52 29.59 32.68 30.86 32.82 30.85 30.82 29.59 30.68 27.89 30.5 26.92 28.74 25.16 28.68 22.76 28.59 21.89 30.98 19.28 30.12 17.66 29.58 17.47 28.91 15.61 29.19 14.1204975 29.4213134 12.7436956 30.121976 11.68 31.19 11.3653302 31.5890784 11.4000344 32.1607077 11.7606719 32.5187875 12.1213095 32.8768674 12.6931713 32.9075022 13.09 32.59zM34 30.48C33.4477153 30.48 33 30.9277153 33 31.48 33 32.0322847 33.4477153 32.48 34 32.48 34.5522847 32.48 35 32.0322847 35 31.48 35 30.9277153 34.5522847 30.48 34 30.48z"/>
      </g>
    </g>
  </g>
</svg>
