<svg xmlns="http://www.w3.org/2000/svg" width="64" height="64" viewBox="0 0 64 64" style="background:#fff">
  <g id="Schwarztee" fill="none" fill-rule="evenodd" stroke="none" stroke-width="1">
    <rect width="64" height="64" fill="#FFF"/>
    <g transform="translate(2 6)">
      <g id="Layer_2">
        <rect id="Rectangle" width="60" height="60" x="0" y="0"/>
      </g>
      <g id="Layer_1" fill-rule="nonzero" transform="translate(6 4)">
        <path id="Path" fill="#483318" d="M31.39,33.9 C31.67,32.77 31.5,30.7 30.27,30.25 C30.1955709,30.1335296 30.1119726,30.0231799 30.02,29.92 C27.6,27.3 22.8,29.7 20.46,31.41 C17.51,33.56 14.95,37.26 15.65,41.07 C15.98,42.89 17.02,45 19.15,45.07 C20.73,45.13 22.36,43.61 23.56,42.76 C25.8246492,41.2658489 27.8479519,39.43476 29.56,37.33 C29.7814214,37.179081 29.9859353,37.0047413 30.17,36.81 C30.9041271,36.0123055 31.3357678,34.9827363 31.39,33.9 Z" opacity=".5"/>
        <path id="Path" fill="#3D454C" d="M21.18 13.53C21.36842 13.762277 21.6509167 13.8980222 21.95 13.9000019 22.1836522 13.9004565 22.4100879 13.8190812 22.59 13.67 22.7959883 13.5018842 22.9265453 13.2586565 22.9528159 12.9940739 22.9790865 12.7294913 22.8989076 12.4653395 22.73 12.26 21.598571 10.8675241 21.598571 8.87247586 22.73 7.48 24.515891 5.53051113 24.515891 2.53948887 22.73.59 22.3406393.181309285 21.6936907.165639251 21.285.555 20.8763093.944360749 20.8606393 1.59130929 21.25 2 22.3531672 3.20886534 22.3224705 5.06820886 21.18 6.24 19.4620506 8.36636317 19.4620506 11.4036368 21.18 13.53L21.18 13.53zM27.1 14.66C27.2906301 14.8949915 27.5774116 15.0310289 27.88 15.0300058 28.1102147 15.028139 28.3327364 14.9469009 28.51 14.8 28.9325888 14.4506324 28.995039 13.8261303 28.65 13.4 28.0745021 12.6884693 28.0745021 11.6715307 28.65 10.96 29.8645306 9.60817879 29.83843 7.55057858 28.59 6.23 28.2024034 5.85534631 27.5875966 5.85534631 27.2 6.23 26.7981065 6.60613434 26.7757587 7.23634315 27.15 7.64 27.6988296 8.23813075 27.6722399 9.16434014 27.09 9.73 25.9340214 11.1713671 25.9381836 13.2233343 27.1 14.66zM14.92 14.66C15.1106301 14.8949915 15.3974116 15.0310289 15.7 15.0300058 15.9302147 15.028139 16.1527364 14.9469009 16.33 14.8 16.7525888 14.4506324 16.815039 13.8261303 16.47 13.4 15.8945021 12.6884693 15.8945021 11.6715307 16.47 10.96 17.6797303 9.60637755 17.6536769 7.552501 16.41 6.23 16.0211565 5.84885712 15.3988435 5.84885712 15.01 6.23 14.6222764 6.62003745 14.6222764 7.24996255 15.01 7.64 15.5588296 8.23813075 15.5322399 9.16434014 14.95 9.73 13.7823213 11.1619555 13.7698346 13.21394 14.92 14.66L14.92 14.66z"/>
        <path id="Shape" fill="#3D454C" d="M47.51,30.29 C46.2656803,28.4180233 44.1678042,27.2921506 41.92,27.29 L41.77,27.29 C41.8756916,25.5541594 41.8556393,23.8129462 41.71,22.08 C41.71,22.03 41.71,21.99 41.71,21.94 C41.7147474,21.8700805 41.7147474,21.7999195 41.71,21.73 C41.71,20.56 40.63,19.73 35.13,19.1 C30.5198421,18.6110684 25.8859198,18.3807077 21.25,18.41 C16.614092,18.3812508 11.9802,18.61161 7.37,19.1 C1.87,19.75 0.79,20.56 0.79,21.73 C0.784312455,21.7932056 0.784312455,21.8567944 0.79,21.92 C0.786428544,21.9632597 0.786428544,22.0067403 0.79,22.05 C0.52,25.31 0.38,33.71 4.87,41.27 C5.34468802,42.0728564 5.86556348,42.8474917 6.43,43.59 C9.6183083,47.9904648 14.6150057,50.7256152 20.04,51.04 C20.52,51.04 20.99,51.04 21.46,51.04 L22.31,51.04 L22.64,51.04 C28.58,50.78 34.16,47.21 37.55,41.5 C37.78,41.12 38.01,40.73 38.22,40.33 C39.4025795,38.0885085 40.2963648,35.7062012 40.88,33.24 L41.53,33.24 C41.9569899,33.2396162 42.3569443,33.4489381 42.6,33.8 C42.748493,34.009789 42.8224267,34.2632761 42.81,34.52 L42.72,37.32 C42.721449,37.8000696 42.4389474,38.2355929 42,38.43 L41.47,38.68 C41.2925823,38.7693158 41.0983999,38.8204164 40.9,38.83 C40.3477153,38.83 39.9,39.2777153 39.9,39.83 C39.9,40.3822847 40.3477153,40.83 40.9,40.83 C41.3876087,40.8174793 41.8674793,40.7051691 42.31,40.5 L42.84,40.25 C43.9593449,39.7457094 44.693018,38.6471407 44.73,37.42 L44.82,34.63 C44.8522407,33.9408972 44.6514476,33.2610187 44.25,32.7 C43.6362662,31.8085511 42.6222859,31.2772403 41.54,31.28 L41.31,31.28 C41.43,30.61 41.52,29.96 41.59,29.28 L41.92,29.28 C43.4986508,29.2802146 44.9744963,30.063087 45.86,31.37 C46.426894,32.1985837 46.7141984,33.1866305 46.68,34.19 L46.57,37.84 C46.5126149,39.6290543 45.4584529,41.2353964 43.84,42 C42.1813537,42.676485 40.4329878,43.1076812 38.65,43.28 C38.0977153,43.28 37.65,43.7277153 37.65,44.28 C37.65,44.8322847 38.0977153,45.28 38.65,45.28 C40.7155151,45.1060526 42.7405267,44.6065497 44.65,43.8 C46.9549709,42.7269311 48.4539576,40.4416542 48.52,37.9 L48.64,34.25 C48.6897602,32.8439375 48.2942956,31.4580617 47.51,30.29 L47.51,30.29 Z M36.51,39.44 C36.31,39.81 36.11,40.16 35.9,40.51 C32.84,45.64 27.9,48.85 22.65,49.08 L22.28,49.08 C21.61,49.08 20.91,49.08 20.21,49.08 C15.3415691,48.8231412 10.8517324,46.3741394 8,42.42 C7.47559732,41.7375705 6.9946474,41.0228255 6.56,40.28 C3.76771532,35.2481553 2.43116742,29.5383949 2.7,23.79 C4.34346574,24.175722 6.01569256,24.426556 7.7,24.54 C8.24944011,24.5921958 8.7372823,24.1893903 8.79,23.64 C8.84219575,23.0905599 8.43939027,22.6027177 7.89,22.55 C6.35839397,22.4436957 4.83723768,22.2197013 3.34,21.88 C5.49,21.2 11.94,20.44 21.26,20.44 C30.58,20.44 37.07,21.21 39.2,21.89 C36.98,22.46 30.53,23.08 21.26,23.08 C19.16,23.08 17.39,23.08 15.54,23 C14.9877153,23 14.54,23.4477153 14.54,24 C14.54,24.5522847 14.9877153,25 15.54,25 C17.41,25.06 19.2,25.08 21.32,25.08 C32.62,25.08 37.63,24.45 39.88,23.77 C40.1343664,29.2029074 38.954889,34.6071215 36.46,39.44 L36.51,39.44 Z"/>
        <path id="Path" fill="#3D454C" d="M11.72,23 C11.1677153,23 10.72,23.4477153 10.72,24 C10.72,24.5522847 11.1677153,25 11.72,25 C12.2722847,25 12.72,24.5522847 12.72,24 C12.72,23.4477153 12.2722847,23 11.72,23 Z"/>
        <path id="Shape" fill="#3D454C" d="M31.61,29.93 C27.9893411,28.257611 23.7620629,28.5714743 20.4280826,30.7602252 C17.0941023,32.9489762 15.1252079,36.702887 15.22,40.69 C15.22,40.69 15.22,40.74 15.22,40.76 C14.6589716,41.5070591 14.210845,42.3325556 13.89,43.21 C13.7256708,43.7315697 14.0107735,44.2884109 14.53,44.46 C14.6328837,44.4736325 14.7371163,44.4736325 14.84,44.46 C15.2725739,44.4596813 15.6559022,44.181264 15.79,43.77 C16.0469584,43.1243948 16.3828457,42.51308 16.79,41.95 C17.9929562,42.3983393 19.2662127,42.6286091 20.55,42.63 C22.8215497,42.6095724 25.0355904,41.9133332 26.91,40.63 C30.3884311,38.5421104 32.3984588,34.6766723 32.11,30.63 C32.0573381,30.3332404 31.8736391,30.0760616 31.61,29.93 L31.61,29.93 Z M25.84,39 C23.6237699,40.5617704 20.8275645,41.0565118 18.21,40.35 C19.9349056,38.6441419 21.9719365,37.2861213 24.21,36.35 C24.4569492,36.2392541 24.6484639,36.0331412 24.7408035,35.7787361 C24.8331431,35.524331 24.8184212,35.2433618 24.7,35 C24.5927185,34.7572133 24.3933133,34.5670393 24.1457178,34.4713774 C23.8981224,34.3757155 23.6226524,34.3824151 23.38,34.49 C21.2200212,35.4205578 19.2243671,36.6935893 17.47,38.26 C18.0057238,35.8592138 19.4592847,33.763215 21.52,32.42 C24.0893349,30.7282522 27.3152874,30.3747741 30.19,31.47 C30.1293031,34.5604632 28.4868831,37.4035488 25.84,39 L25.84,39 Z"/>
        <path id="Path" fill="#3D454C" d="M27.05,33.78 C27.6022847,33.78 28.05,33.3322847 28.05,32.78 C28.05,32.2277153 27.6022847,31.78 27.05,31.78 C26.4977153,31.78 26.05,32.2277153 26.05,32.78 C26.05,33.3322847 26.4977153,33.78 27.05,33.78 Z"/>
      </g>
    </g>
  </g>
</svg>
