<svg xmlns="http://www.w3.org/2000/svg" width="64" height="64" viewBox="0 0 64 64" style="background:#fff">
  <g id="Schwein-(Schwarte)" fill="none" fill-rule="evenodd" stroke="none" stroke-width="1">
    <rect width="64" height="64" fill="#FFF"/>
    <g transform="translate(2 4)">
      <g id="Layer_2">
        <rect id="Rectangle" width="60" height="60" x="0" y="0"/>
        <rect id="Rectangle" width="60" height="60" x="0" y="0"/>
      </g>
      <g id="Layer_1" fill-rule="nonzero" transform="translate(2 3)">
        <g id="Group" opacity=".5" transform="translate(2 12)">
          <path id="Path" fill="#E05362" d="M31.26 20.21C29.13 15.9 22.68 11.32 19.36 17.21 18.69 18.4 18.58 21.09 20.23 21.63 23.17 22.63 25.66 22.88 26.65 26.31 27.64 29.74 26.11 33.07 26.98 36.43 27.39 38 29.07 40.53 30.89 38.72 35.09 34.61 33.62 25 31.26 20.21zM10 .92C7.55.84 7.77 5.09 8.65 6.4 10.65 9.29 10.77 10.67 8 13.26 5.75 15.35 2.81 16.09 1.27 18.86.33 20.54-.08 25.42 2.68 25.96 8.27 27.05 14.23 19.4 15.68 14.58 17 10.15 16.17 1.15 10 .92z"/>
          <path id="Path" fill="#4885E0" d="M13.72,23.67 C11.32,23.58 11.46,27.45 11.92,28.84 C12.2055628,29.7112314 12.5394128,30.5658875 12.92,31.4 L12.98,31.52 C12.93,31.59 12.84,31.71 12.64,31.94 C11.39,33.37 9.64,33.65 8.49,35.33 C7.34,37.01 7.37,40.87 9.26,42.33 C13.44,45.52 17.91,39.18 18.76,35.57 C19.61,31.96 18.79,23.87 13.72,23.67 Z"/>
        </g>
        <path id="Path" fill="#E05362" d="M48.63,17.9 C48.0904854,16.8190428 47.1448945,15.9956956 46,15.61 C44.7877232,15.2169664 43.5315511,14.9751364 42.26,14.89 C41.1477667,14.8200074 40.0322333,14.8200074 38.92,14.89 C37.05,15 36.1,15.37 35.16,16.83 C34.22,18.29 33.95,20.6 35.31,21.9 C36.26,22.81 36.93,23.48 38.42,23.4 C39.65,23.34 40.9,23.13 42.13,23.04 C43.36,22.95 44.37,22.88 45.46,22.71 C46.60344,22.5989225 47.6514714,22.0243121 48.36,21.12 C49.0420925,20.1805022 49.1461125,18.9399684 48.63,17.9 L48.63,17.9 Z" opacity=".5"/>
        <path id="Path" fill="#E0A075" d="M41.57,4.31 C34.28,3.93 28.12,11.18 28.57,18.17 C28.72,20.49 31.86,25.17 33.8,21.29 C35.48,17.92 36.99,14.65 41.29,14.36 C45.12,14.09 47.79,16.77 50.02,19.51 C51.31,21.1 53.02,19.93 53.23,18.13 C53.5883325,14.7360753 52.5467842,11.3428314 50.3460448,8.73440792 C48.1453054,6.1259844 44.9758128,4.52809734 41.57,4.31 Z" opacity=".5"/>
        <path id="Shape" fill="#3D454C" d="M51.52,8.87 L51.68,8.69 C53.68,6.59 54.08,4.58 54.08,1.61 C54.08,1.05771525 53.6322847,0.61 53.08,0.61 C50.18,0.61 48.23,1.01 46.21,3.11 C45.99,3.34 45.75,3.63 45.48,3.97 C42.9480881,3.14988635 40.2219119,3.14988635 37.69,3.97 C37.42,3.63 37.18,3.34 36.96,3.11 C34.96,1.01 32.96,0.61 30.08,0.61 C29.5277153,0.61 29.08,1.05771525 29.08,1.61 C29.08,4.61 29.47,6.61 31.49,8.69 L31.65,8.87 C31.94,9.17 32.28,9.52 32.65,9.87 C31.65,11.78 29.07,16.93 29.07,18.78 C29.07,23.05 34.21,27.78 41.57,27.78 C48.93,27.78 54.07,23.03 54.07,18.78 C54.07,16.93 51.49,11.78 50.5,9.87 C50.89,9.52 51.23,9.17 51.52,8.87 Z M52.08,18.78 C52.08,21.71 48.08,25.78 41.58,25.78 C35.08,25.78 31.08,21.69 31.08,18.78 C31.08,17.73 33.08,13.33 34.8,10.1 C35.0322701,9.66549353 34.9134486,9.12655275 34.52,8.83 C34.0141642,8.4190824 33.5395269,7.97118527 33.1,7.49 L32.93,7.31 C31.6968266,6.0723322 31.0369963,4.37562557 31.11,2.63 C32.7821604,2.56590578 34.3956357,3.2516328 35.51,4.5 C35.8738499,4.88776483 36.2081199,5.30225953 36.51,5.74 C36.777966,6.10526527 37.2580082,6.24476472 37.68,6.08 C40.1855264,5.10704386 42.9644736,5.10704386 45.47,6.08 C45.8919918,6.24476472 46.372034,6.10526527 46.64,5.74 C46.9470358,5.30613212 47.281027,4.89198302 47.64,4.5 C48.7543643,3.2516328 50.3678396,2.56590578 52.04,2.63 C52.1081143,4.3748102 51.4490177,6.06963002 50.22,7.31 L50.05,7.49 C49.6104731,7.97118527 49.1358358,8.4190824 48.63,8.83 C48.2365514,9.12655275 48.1177299,9.66549353 48.35,10.1 C50.12,13.33 52.08,17.73 52.08,18.78 L52.08,18.78 Z"/>
        <path id="Path" fill="#3D454C" d="M39.06 17.22C37.9197316 17.2417114 37.0052242 18.1695369 37 19.31 37 19.8622847 37.4477153 20.31 38 20.31 38.5522847 20.31 39 19.8622847 39 19.31 39 19.21 39.19 19.21 39.19 19.31 39.19 19.8622847 39.6377153 20.31 40.19 20.31 40.7422847 20.31 41.19 19.8622847 41.19 19.31 41.1873884 18.7495441 40.9608508 18.2133857 40.5608059 17.8208534 40.1607609 17.428321 39.6204047 17.2119873 39.06 17.22L39.06 17.22zM44 17.22C42.8440961 17.22 41.9055043 18.1541092 41.9 19.31 41.9 19.8622847 42.3477153 20.31 42.9 20.31 43.4522847 20.31 43.9 19.8622847 43.9 19.31 43.9 19.21 44.09 19.21 44.09 19.31 44.09 19.8622847 44.5377153 20.31 45.09 20.31 45.6422847 20.31 46.09 19.8622847 46.09 19.31 46.0845272 18.1579994 45.1520006 17.2254728 44 17.22z"/>
        <path id="Shape" fill="#3D454C" d="M41.58,13.78 C37.02,13.78 33.45,16.1 33.45,19.06 C33.45,22.02 37.02,24.34 41.58,24.34 C46.14,24.34 49.72,22.02 49.72,19.06 C49.72,16.1 46.14,13.78 41.58,13.78 Z M41.58,22.34 C37.97,22.34 35.45,20.61 35.45,19.06 C35.45,17.51 37.97,15.78 41.58,15.78 C45.19,15.78 47.72,17.51 47.72,19.06 C47.72,20.61 45.2,22.34 41.58,22.34 L41.58,22.34 Z"/>
        <path id="Path" fill="#3D454C" d="M38.13 12C38.6822847 12 39.13 11.5522847 39.13 11 39.13 10.4477153 38.6822847 10 38.13 10 37.5777153 10 37.13 10.4477153 37.13 11 37.13 11.5522847 37.5777153 12 38.13 12zM44.65 12C45.2022847 12 45.65 11.5522847 45.65 11 45.65 10.4477153 45.2022847 10 44.65 10 44.0977153 10 43.65 10.4477153 43.65 11 43.65 11.5522847 44.0977153 12 44.65 12z"/>
        <path id="Shape" fill="#3D454C" d="M36.38 47.73C36.1546877 47.5889787 35.8825017 47.5434623 35.6235664 47.6035053 35.3646312 47.6635482 35.1402545 47.8242096 35 48.05 33.7386826 50.0520841 31.5260442 51.2531224 29.16 51.22 28.4656296 51.233039 27.8263856 50.8432561 27.52 50.22 27.11 49.12 27.63 47.95 28.29 46.47 29.17 44.47 30.29 42.04 29.13 38.97 28.747185 37.950763 28.1887411 37.006485 27.48 36.18 30.34 37.24 33.48 38.96 35.11 41.8 35.2867741 42.1144869 35.6192359 42.3093783 35.98 42.31 36.1560862 42.3081713 36.3285672 42.2598766 36.48 42.17 36.9561364 41.8953915 37.1213883 41.2879792 36.85 40.81 36.0734696 39.4918461 35.0557498 38.3316456 33.85 37.39 34.2888478 35.3939648 34.1571623 33.3147212 33.47 31.39 31.88 27.05 26.89 25.67 23 26.8 20.18 27.62 18.65 29.55 19.1 31.71 19.3395895 32.9241382 20.1627729 33.9418922 21.3 34.43 21.3 34.43 21.3 34.43 21.3 34.43L21.39 34.43 21.49 34.43C24.0619422 35.2059051 26.1616357 37.0751445 27.23 39.54 28.08 41.84 27.23 43.63 26.44 45.54 25.69 47.21 24.92 48.94 25.61 50.81 26.1465943 52.2251025 27.4870039 53.174065 29 53.21 29.1798544 53.2202399 29.3601456 53.2202399 29.54 53.21 32.4757485 53.1013604 35.1692703 51.5525854 36.74 49.07 36.9997982 48.5991919 36.8407622 48.0072247 36.38 47.73zM23.54 28.73C26.1 28 30.3 28.51 31.6 32 32.0670605 33.309826 32.2044371 34.7145019 32 36.09 29.1376458 34.5064445 26.0426887 33.3859148 22.83 32.77 22.49 32.7 22.24 32.65 22.09 32.6 21.5334621 32.3795681 21.1293064 31.8885379 21.02 31.3 20.78 30 22.16 29.12 23.54 28.72L23.54 28.73zM13.43 34.42C14.328372 32.8578037 14.7879024 31.0818743 14.76 29.28 16.3396902 28.4818125 17.6658949 27.259488 18.59 25.75 20.59 22.32 18.83 18.16 15.92 16.11 13.79 14.62 11.6 14.65 10.35 16.17 9.57967738 17.0821772 9.3512681 18.3346214 9.75 19.46 10.6067741 21.557631 10.48958 23.92715 9.43 25.93 8.43 27.68 6.78 28.11 5.09 28.55 3.4 28.99 1.94 29.38 1 30.9-2.22044605e-16 32.67.92 34.9 3.41 36.33 4.73638721 37.1181416 6.24722293 37.5424174 7.79 37.56 10.1052231 37.6335975 12.2729732 36.4267296 13.43 34.42zM11.89 17.42C12.74 16.42 14.44 17.5 14.77 17.73 16.6 19.02 18.46 22.03 16.87 24.73 16.300422 25.6725426 15.5199671 26.4701127 14.59 27.06 14.1007927 24.3495874 13.1932951 21.731676 11.9 19.3 11.75 19 11.64 18.78 11.6 18.67 11.4955966 18.2372117 11.6032607 17.7805676 11.89 17.44L11.89 17.42zM4.46 34.61C3.25 33.89 2.27 32.73 2.75 31.92 3.23 31.11 4.13 30.87 5.59 30.49 7.42 30.01 9.69 29.41 11.15 26.95 11.5290579 26.2891218 11.8150899 25.5790894 12 24.84 12.82 27.54 13.22 30.79 11.67 33.4 9.93 36.39 6.4 35.76 4.46 34.61z"/>
        <path id="Shape" fill="#3D454C" d="M17.82,36.79 C15.62,35.98 13.68,36.54 13.1,38.13 C12.7671834,39.4097209 12.9770223,40.7700559 13.68,41.89 C14.22,43.08 14.73,44.21 14.22,45.61 C13.5645669,47.167928 12.2482733,48.3522257 10.63,48.84 C9.67676929,49.1770407 8.98047346,50.0034138 8.81,51 C8.48,52.63 9.6,54.06 11.66,54.64 C12.263022,54.8041654 12.8850338,54.8882211 13.51,54.89 C15.9049969,54.9916358 18.1042822,53.5735174 19,51.35 C19.4463738,50.0650837 19.5430095,48.6845731 19.28,47.35 C20.3729439,46.4687728 21.2116511,45.3125304 21.71,44 C22.92,40.68 20.61,37.8 17.82,36.79 Z M17.15,50.67 C16.37,52.8 13.78,53.13 12.2,52.67 C12.04,52.67 10.6,52.19 10.77,51.36 C10.8113754,51.095377 10.9793791,50.8676387 11.22,50.75 L11.71,50.63 C13.7040826,50.2343975 15.6328549,49.5611785 17.44,48.63 C17.4803754,49.3225365 17.3817733,50.0161513 17.15,50.67 L17.15,50.67 Z M19.83,43.32 C19.0221518,45.1548272 17.5185872,46.593645 15.65,47.32 C15.8267546,46.9993637 15.9772466,46.6649368 16.1,46.32 C16.6559084,44.5676437 16.4376294,42.6613405 15.5,41.08 C15.04,40.08 14.76,39.42 14.97,38.84 C15.08,38.56 15.43,38.44 15.87,38.44 C16.3003867,38.4497283 16.7261735,38.5308306 17.13,38.68 C18.69,39.23 20.7,40.94 19.83,43.32 Z"/>
        <path id="Path" fill="#3D454C" d="M37.25,44.05 C36.6977153,44.05 36.25,44.4977153 36.25,45.05 C36.25,45.6022847 36.6977153,46.05 37.25,46.05 C37.8022847,46.05 38.25,45.6022847 38.25,45.05 C38.25,44.4977153 37.8022847,44.05 37.25,44.05 Z"/>
      </g>
    </g>
  </g>
</svg>
