<svg xmlns="http://www.w3.org/2000/svg" width="64" height="64" viewBox="0 0 64 64" style="background:#fff">
  <g id="Seehecht" fill="none" fill-rule="evenodd" stroke="none" stroke-width="1">
    <rect width="64" height="64" fill="#FFF"/>
    <g transform="translate(2 4)">
      <g id="Layer_2">
        <rect id="Rectangle" width="60" height="60" x="0" y="0"/>
        <rect id="Rectangle" width="60" height="60" x="0" y="0"/>
      </g>
      <g id="Layer_1" fill-rule="nonzero" transform="translate(2 2)">
        <g id="Group" fill="#666" opacity=".5" transform="translate(0 39)">
          <path id="Path" d="M1.68,0.89 C0.44,1.36 0.76,3.66 1.76,4.18 C4,5.34 6.31,5.9 8.21,7.63 C10.11,9.36 10.37,11.63 11.71,13.72 C12.71,15.3 14.4,13.93 14.52,12.51 C15,6.76 7.84,-1.45 1.68,0.89 Z"/>
        </g>
        <g id="Group" fill="#B3B3B3" opacity=".5" transform="translate(7)">
          <path id="Path" d="M43.26,1.74 C40.45,4.74 38.73,8.55 35.99,11.65 C33.150151,14.820566 29.9749323,17.6739039 26.52,20.16 C18.77,25.83 9.45,29.05 1.86,34.88 C0,36.32 0.14,43.22 3.43,42.62 C13.29,40.84 23.08,35 31.05,29.14 C38.3,23.81 46.05,16.14 48.05,7.14 C48.59,4.87 46.21,-1.4 43.26,1.74 Z"/>
        </g>
        <g id="Group" fill="#666" opacity=".5" transform="translate(21 4)">
          <path id="Path" d="M22.67,0.8 C20.4070123,1.37400239 18.2163668,2.20262328 16.14,3.27 C15.7156589,3.67759498 15.1856406,3.95819291 14.61,4.08 C14.13,4.35 13.61,4.62 13.19,4.91 C13.157972,4.62444898 13.1112433,4.34073908 13.05,4.06 C9.77886796,3.31176393 6.36523118,3.47431806 3.18,4.53 L3.18,4.53 C3.05,6.71 3.73,9.63 5.79,10.67 C3.55445924,12.8210919 1.67741151,15.3159449 0.23,18.06 C-0.37,19.28 0.23,23.96 2.33,21.95 C5.5,18.86 7.97,15.25 11.41,12.37 C15.12,9.26 19.32,7.08 23.48,4.68 C24.9,3.89 24.69,0.31 22.67,0.8 Z"/>
        </g>
        <path id="Shape" fill="#3D454C" d="M53.93,7.53 C53.6061955,6.74857453 52.727272,6.3574536 51.93,6.64 L51.86,6.64 L51.92,5.14 C51.9436877,4.34345739 51.3980076,3.64246841 50.62,3.47 C48.74,2.9 43.56,4.17 37.51,7.89 C35.34,6.78 31.51,5.84 24.98,6.89 C24.6155146,6.94925244 24.3133478,7.2045482 24.1940661,7.55402257 C24.0747844,7.90349693 24.1578042,8.29026357 24.41,8.56 C26.1074333,10.471152 27.4395199,12.677738 28.34,15.07 C27.81,15.59 27.34,16.12 26.77,16.67 C23.04,16.06 19.6,15.61 18.32,18.22 C17.1011679,21.4836158 16.6495193,24.9838923 17,28.45 L16.87,28.45 C15.1,28.19 12.87,27.87 12.37,29.85 C12.3644234,29.93324 12.3644234,30.01676 12.37,30.1 L12.27,36.69 L10.93,38.4 C6.25,36.53 0.81,40.21 0.57,40.4 C0.259835735,40.610956 0.093813834,40.9777486 0.14,41.35 C0.188483959,41.7201636 0.439122506,42.0324978 0.79,42.16 C5.79474411,44.0522725 9.74850536,47.9987524 11.65,53 C11.6844673,53.1020953 11.7314947,53.1995092 11.79,53.29 C11.9716641,53.5731994 12.2835654,53.7460604 12.62,53.7500011 L12.62,53.7500011 C12.9526261,53.7500011 13.2637296,53.5855788 13.45,53.31 C13.62,53.05 17.45,47.31 15.25,42.61 L17.25,41.26 L16.68,42.83 C16.24,44.04 18.17,44.57 18.61,43.36 C19.05,42.15 19.55,40.74 20.03,39.43 L21.75,38.34 C23.2336699,38.7109382 24.7613496,38.8758199 26.29,38.83 C28.5374965,38.8758432 30.7763245,38.5376516 32.91,37.83 C34.0255989,37.5131233 34.937536,36.707824 35.39,35.64 C35.8041575,33.7889902 35.882064,31.8785862 35.62,30 C35.62,30 35.62,29.93 35.62,29.9 C37.9506607,28.1895985 40.1810108,26.3465547 42.3,24.38 C43.1170245,25.5436243 44.2050072,26.49089 45.47,27.14 C45.6889175,27.2304058 45.9231587,27.277933 46.16,27.28 C46.9214648,27.285544 47.5980736,26.7953065 47.83,26.07 C48.467459,23.7581113 48.3376257,21.3018057 47.46,19.07 C52,13.86 54.61,9.23 53.93,7.53 Z M27,33 C22.1046509,35.6835273 17.3669038,38.6450366 12.81,41.87 L12.53,42.06 C12.1945291,42.2855175 11.7447578,42.2329202 11.470372,41.9360847 C11.1959862,41.6392492 11.1788499,41.1867373 11.43,40.87 L11.91,40.27 L11.91,40.27 C13.69,38.05 16.45,34.47 19.23,30.33 C19.23,30.33 19.32,30.27 19.35,30.23 C19.382658,30.1658889 19.4094344,30.0989481 19.43,30.03 C20.11,29.03 20.8,27.95 21.43,26.88 C23.8294432,22.9884267 26.7124123,19.4166363 30.01,16.25 L30.06,16.19 C32.7276298,13.6288803 35.6686129,11.3686493 38.83,9.45 C39.485017,13.3644958 42.5472323,16.4347379 46.46,17.1 C41.0283063,23.5739359 34.4267478,28.9678095 27,33 Z M49.88,5.35 L49.83,6.66 C49.787251,7.21014261 49.9883525,7.75128854 50.38,8.14 C50.8300001,8.53354402 51.4269831,8.71555103 52.02,8.64 C51.76,9.73 50.36,12.2 47.97,15.29 C41.73,14.35 40.87,9.85 40.76,8.35 C45.28,5.93 48.81,5.09 49.88,5.35 Z M27,8.67 C29.8149205,8.21515191 32.6961202,8.39971274 35.43,9.21 C33.4763398,10.5610686 31.6124227,12.0375048 29.85,13.63 C29.1113342,11.8639023 28.1538458,10.1975366 27,8.67 L27,8.67 Z M20.09,19.15 C20.61,18.07 22.42,18.15 25.14,18.5 C23.1735447,20.784229 21.3881369,23.2182682 19.8,25.78 C19.48,26.3 19.15,26.78 18.8,27.32 C18.71,25 19.21,20.94 20.09,19.15 Z M14.3,30.3 C15.0504532,30.1996404 15.8129151,30.2369163 16.55,30.41 L16.74,30.41 C15.89,31.65 15.04,32.83 14.24,33.92 L14.3,30.3 Z M12.73,50.47 C10.7152393,46.3835844 7.41212425,43.0734414 3.33,41.05 C4.92,40.29 7.38,39.44 9.58,40.05 C9.50801912,40.1845562 9.44779529,40.3250785 9.4,40.47 L9.4,40.57 C9.36751261,40.6852594 9.34081256,40.8020721 9.32,40.92 C9.32,40.92 9.32,41.03 9.32,41.08 C9.3100416,41.1797521 9.3100416,41.2802479 9.32,41.38 L9.32,41.56 C9.32,41.65 9.32,41.74 9.32,41.84 C9.3153378,41.8999094 9.3153378,41.9600906 9.32,42.02 C9.34094698,42.1127689 9.37109626,42.2032167 9.41,42.29 C9.42391721,42.3486334 9.4440303,42.4056205 9.47,42.46 C9.51201292,42.5605931 9.56218004,42.6575829 9.62,42.75 L9.7,42.88 C9.78869158,43.0183199 9.88905777,43.148796 10,43.27 C10.1250912,43.4122289 10.2660026,43.5397201 10.42,43.65 L10.57,43.74 C10.6709221,43.8096845 10.77804,43.8699383 10.89,43.92 L11.07,44 L11.39,44.1 L11.59,44.1 C11.699778,44.109884 11.810222,44.109884 11.92,44.1 L12.06,44.1 L12.28,44.1 L12.57,44.1 L12.74,44.1 C12.8295449,44.0746953 12.9165769,44.0412214 13,44 L13.2,44 L13.47,43.86 L13.58,43.8 C14.43,46.06 13.53,48.76 12.73,50.47 Z M33.49,35.05 C33.39,35.35 32.98,35.67 32.33,35.94 C30.24,36.82 26.61,36.94 24.33,36.76 C25.51,36.07 26.72,35.38 27.95,34.76 C29.9322342,33.7082943 31.8520952,32.5430221 33.7,31.27 C33.833723,32.5330947 33.7628121,33.8094906 33.49,35.05 L33.49,35.05 Z M46,25.18 C45.1068484,24.6138303 44.3379774,23.872176 43.74,23 C44.49,22.27 45.2,21.55 45.88,20.82 C46.2856676,22.2401706 46.3269381,23.739666 46,25.18 Z"/>
        <path id="Path" fill="#3D454C" d="M45.41,9.58 C45.9622847,9.58 46.41,9.13228475 46.41,8.58 C46.41,8.02771525 45.9622847,7.58 45.41,7.58 C44.8577153,7.58 44.41,8.02771525 44.41,8.58 C44.41,9.13228475 44.8577153,9.58 45.41,9.58 Z"/>
      </g>
    </g>
  </g>
</svg>
