<svg xmlns="http://www.w3.org/2000/svg" width="64" height="64" viewBox="0 0 64 64" style="background:#fff">
  <g id="Seelachs" fill="none" fill-rule="evenodd" stroke="none" stroke-width="1">
    <rect width="64" height="64" fill="#FFF"/>
    <g transform="translate(2 4)">
      <g id="Layer_2">
        <rect id="Rectangle" width="60" height="60" x="0" y="0"/>
        <rect id="Rectangle" width="60" height="60" x="0" y="0"/>
      </g>
      <g id="Layer_1" fill-rule="nonzero" transform="translate(1 3)">
        <g id="Group" fill="#39A0D3" opacity=".5" transform="translate(10 1)">
          <path id="Path" d="M35.67,0.36 C28.1847163,4.76583358 21.4166084,10.2895808 15.6,16.74 C10.04,22.74 3.98,29.74 0.89,37.32 C0.43,38.47 1.62,42.63 3.22,40.69 C8.51,34.3 12.45,27 18.11,20.84 C23.77,14.68 30.25,9.29 36.76,4 C37.78,3.12 37.27,-0.54 35.67,0.36 Z"/>
        </g>
        <g id="Group" fill="#39A0D3" opacity=".5" transform="translate(36 18)">
          <path id="Path" d="M5.72,1 C5.12535628,0.66515876 4.41833929,0.592381053 3.76795314,0.799063535 C3.11756698,1.00574602 2.58226324,1.47331369 2.29,2.09 C1.79997568,3.00770911 1.43346513,3.9861914 1.2,5 C1.00270558,5.63761136 0.839145499,6.28517576 0.71,6.94 C0.504200213,8.34429124 0.694688833,9.77815103 1.26,11.08 C1.87,12.48 3.11,13.7 4.72,13.08 C6.54,12.42 6.96,10.35 7.34,8.69 C7.60188623,7.60845505 7.74936314,6.5023782 7.78,5.39 C7.86654902,3.67506032 7.094336,2.02942188 5.72,1 L5.72,1 Z"/>
        </g>
        <g id="Group" fill="#39A0D3" opacity=".5" transform="translate(22 31)">
          <path id="Path" d="M6.64,2.21 C6.36925906,1.48531836 5.87106054,0.867832873 5.22,0.45 C4.67727544,0.149732573 4.034671,0.0868228835 3.44401759,0.276134874 C2.85336418,0.465446865 2.36705775,0.89018696 2.1,1.45 C1.21879143,2.87948271 0.671848573,4.48954574 0.5,6.16 C0.367454619,7.16452395 0.442330485,8.18555848 0.72,9.16 C0.929958766,9.96818894 1.37550825,10.6956877 2,11.25 C2.43331965,11.5979256 2.96505236,11.8008236 3.52,11.83 C4.40258041,11.7455391 5.18566878,11.228476 5.61,10.45 C6.17738242,9.42083075 6.58535699,8.31154453 6.82,7.16 C6.97639624,6.25126869 7.06331456,5.33194033 7.08,4.41 C7.08987021,3.65386636 6.9399316,2.90417328 6.64,2.21 L6.64,2.21 Z"/>
        </g>
        <g id="Group" fill="#39A0D3" opacity=".5" transform="translate(14 12)">
          <path id="Path" d="M8.41,1.43 C6.74,0.79 4.57,0.43 2.9,1.28 C1.43010724,2.26946694 0.623241423,3.98693847 0.8,5.75 C0.839432412,6.53602594 0.997902658,7.31151863 1.27,8.05 C1.58836295,8.95525695 2.25404982,9.69650828 3.12,10.11 C5.00584995,10.5679818 6.99745869,10.2045495 8.6,9.11 C9.86208274,8.23960232 10.5575621,6.7569321 10.42,5.23 C10.34,3.83 9.85,2 8.41,1.43 Z"/>
        </g>
        <path id="Shape" fill="#3D454C" d="M54.28,5.16 C54.6997949,4.42213159 54.6727903,3.51169003 54.21,2.8 C53.5231974,1.95162475 52.4158062,1.56442503 51.35,1.8 C51.3352391,1.76249662 51.3185502,1.725781 51.3,1.69 C51.1092639,1.02847276 50.6581582,0.472710548 50.05,0.15 C49.536085,-0.044739632 48.9646799,-0.0194242129 48.47,0.22 C44.5368614,1.85992597 40.7780616,3.89007989 37.25,6.28 L37,6.46 C35.72,6.04 32.65,5.46 26.94,6.86 C26.5733605,6.94466033 26.2852834,7.2279701 26.1945172,7.59314588 C26.1037509,7.95832167 26.225663,8.34353629 26.51,8.59 C27.25,9.23 29.11,11.25 28.73,12.59 C24.4401768,12.4628602 20.170511,13.2255438 16.19,14.83 C15.9074922,14.9466454 15.6938407,15.1860824 15.61,15.48 C15.5223532,15.7775683 15.5777661,16.0989629 15.76,16.35 C16.67,17.6 18.67,21.14 18.24,24.04 C15.671891,23.2111273 12.908109,23.2111273 10.34,24.04 C10.0282433,24.1293586 9.77918024,24.364354 9.67186715,24.670395 C9.56455407,24.976436 9.61231877,25.3155138 9.8,25.58 C9.8,25.63 13.01,30.13 12.44,33.82 C11.86,34.88 11.36,35.82 10.97,36.59 C5.21,35.7 0.97,36.86 0.6,38.59 C0.560750437,38.9272233 0.658154064,39.2661229 0.870466939,39.5310442 C1.08277981,39.7959656 1.39232462,39.9648513 1.73,40 C7.18850063,41.0872158 11.4480548,45.3665268 12.51,50.83 C12.5794776,51.4796357 13.1170047,51.978768 13.77,52 L14,52 C15.71,51.67 16.87,47.31 15.93,41.47 C17.55,40.47 19.05,39.57 20.5,38.76 C21.84,38.84 23.83,40.99 24.88,42.57 C25.0639835,42.8493852 25.3754809,43.0182694 25.71,43.02 L25.76,43.02 C26.1141458,43.0047001 26.4337266,42.8030598 26.6,42.49 C28.87,38.18 29.16,35.28 29.14,33.98 C31.7125365,32.4699569 34.119109,30.6935175 36.32,28.68 C38.24,28.87 40.32,31.74 40.94,32.8 C41.1200643,33.1036995 41.4469327,33.2899384 41.8,33.29 L41.8,33.29 C42.1635322,33.2797721 42.4928529,33.0729894 42.66,32.75 C44.8465451,28.4784494 45.4996443,23.5855008 44.51,18.89 C45.23,17.83 45.97,16.69 46.72,15.47 C49.5223102,12.2495366 52.0510789,8.80091163 54.28,5.16 Z M49.24,2 L49.24,2 C49.3,2.11 49.37,2.28 49.42,2.4 C49.61,2.86 50.05,3.94 51.17,3.78 C52.12,3.65 52.48,3.83 52.53,3.9 C52.5667949,3.98276129 52.5667949,4.07723871 52.53,4.16 C50.469988,7.49852344 48.1529757,10.6714595 45.6,13.65 L45.52,13.65 C45.1445151,13.5225313 44.7771647,13.3722516 44.42,13.2 L44.22,13.1 C43.8666667,12.92 43.5333333,12.73 43.22,12.53 L43.12,12.46 C42.83,12.25 42.55,12.04 42.28,11.81 L42.17,11.72 C41.9054945,11.4920281 41.6550362,11.2482486 41.42,10.99 L41.28,10.84 C41.05,10.59 40.84,10.34 40.64,10.08 L40.56,10 C40.37,9.75 40.19,9.5 40.03,9.24 L40,9.15 C39.84,8.89 39.69,8.63 39.55,8.37 C39.5196083,8.32556285 39.4928547,8.27874403 39.47,8.23 C39.3381893,7.99950948 39.2180379,7.76254432 39.11,7.52 L39.11,7.52 C42.310241,5.37323911 45.7011979,3.52545218 49.24,2 L49.24,2 Z M44.41,15.39 C38.23,25.16 33.41,29.1 27.78,32.39 C27.6515534,32.4381745 27.5329523,32.5093351 27.43,32.6 C26.08,33.39 24.68,34.15 23.2,34.94 C22.14,35.52 21.01,36.13 19.83,36.79 L19.83,36.79 C18.27,37.66 16.62,38.62 14.83,39.73 C14.7438545,39.7828329 14.6490713,39.8200691 14.55,39.84 L14.55,39.84 C14.2947436,39.9102381 14.0252564,39.9102381 13.77,39.84 L13.65,39.84 L13.4,39.74 C13.2640199,39.6646738 13.1394399,39.5703971 13.03,39.46 C12.9228584,39.3538676 12.8318875,39.232573 12.76,39.1 C12.7325008,39.0485879 12.709095,38.995089 12.69,38.94 C12.6573835,38.858689 12.6306481,38.7751408 12.61,38.69 L12.61,38.48 C12.6049804,38.4134278 12.6049804,38.3465722 12.61,38.28 C12.6050545,38.1934039 12.6050545,38.1065961 12.61,38.02 C12.6350781,37.8814096 12.6788088,37.7468536 12.74,37.62 C14.88,33.35 22.88,18.87 37.43,8.62 L37.43,8.71 L37.8,9.4 L37.9,9.57 C38.05,9.83 38.22,10.11 38.39,10.38 L38.51,10.55 C38.68,10.8 38.86,11.06 39.05,11.31 L39.15,11.43 C39.36,11.71 39.6,11.98 39.84,12.25 L40.02,12.43 C40.2717091,12.7049122 40.5388045,12.9653303 40.82,13.21 L40.82,13.21 C41.1173121,13.4690774 41.4277201,13.7127309 41.75,13.94 L41.97,14.1 C42.3108993,14.3363198 42.6647887,14.5533275 43.03,14.75 L43.13,14.8 C43.48,14.98 43.85,15.15 44.23,15.3 L44.41,15.39 Z M34.76,8.06 C33.33,9.12 31.97,10.22 30.68,11.34 C30.3864074,10.2697021 29.8567719,9.27877106 29.13,8.44 C30.9797887,8.05158993 32.8747948,7.92368543 34.76,8.06 Z M18.08,16.26 C20.9750894,15.2393985 24.0114861,14.6759782 27.08,14.59 C24.6309524,16.9854942 22.336344,19.5339457 20.21,22.22 C19.914428,20.1087291 19.1895302,18.0803765 18.08,16.26 L18.08,16.26 Z M12.21,25.66 C13.9595156,25.27003 15.7810217,25.3493759 17.49,25.89 C16.26,27.61 15.18,29.24 14.26,30.74 C13.8390998,28.9522315 13.147807,27.2391743 12.21,25.66 L12.21,25.66 Z M14,48.54 C12.441676,43.809103 8.73089698,40.098324 4,38.54 C6.15904387,38.1482911 8.37095613,38.1482911 10.53,38.54 C10.53,38.54 10.53,38.59 10.53,38.61 C10.5436014,38.7712688 10.5669777,38.9315634 10.6,39.09 C10.6035451,39.1466112 10.6035451,39.2033888 10.6,39.26 C10.6,39.4 10.69,39.53 10.74,39.67 L10.82,39.85 C10.8801959,39.9786459 10.9504122,40.1023603 11.03,40.22 C11.0573642,40.2768396 11.0908993,40.3304957 11.13,40.38 C11.2427022,40.5533106 11.3734303,40.7142067 11.52,40.86 C11.6883877,41.0203685 11.868926,41.1674738 12.06,41.3 C12.613321,41.6770043 13.2610465,41.8917582 13.93,41.92 C14.3544965,44.1041727 14.3782158,46.3473394 14,48.54 L14,48.54 Z M25.55,40.07 C24.7540763,39.0690513 23.8098405,38.1956332 22.75,37.48 C23.23,37.23 23.7,36.97 24.17,36.71 C25.17,36.18 26.17,35.65 27.08,35.12 C26.8153301,36.8385884 26.2927777,38.5073847 25.53,40.07 L25.55,40.07 Z M41.65,30.23 C40.7003501,28.9002741 39.4496334,27.8140352 38,27.06 C39.7799423,25.225799 41.4274173,23.2675428 42.93,21.2 C43.2304488,24.270775 42.7844602,27.3686803 41.63,30.23 L41.65,30.23 Z"/>
        <path id="Path" fill="#3D454C" d="M44.11,7.78 C44.6622847,7.78 45.11,7.33228475 45.11,6.78 C45.11,6.22771525 44.6622847,5.78 44.11,5.78 C43.5577153,5.78 43.11,6.22771525 43.11,6.78 C43.11,7.33228475 43.5577153,7.78 44.11,7.78 Z"/>
      </g>
    </g>
  </g>
</svg>
