<svg xmlns="http://www.w3.org/2000/svg" width="64" height="64" viewBox="0 0 64 64" style="background:#fff">
  <g id="Seidentofu" fill="none" fill-rule="evenodd" stroke="none" stroke-width="1">
    <rect width="64" height="64" fill="#FFF"/>
    <g id="21-Seidentofu" transform="translate(2 4)">
      <g id="Layer_2">
        <rect id="Rectangle" width="60" height="60" x="0" y="0"/>
        <rect id="Rectangle" width="60" height="60" x="0" y="0"/>
      </g>
      <g id="Layer_1">
        <path id="Path" fill="#CCC" fill-rule="nonzero" d="M12,20.75 C9.58,20.8 8.9,23.97 8.85,25.81 L8.66,33.46 C8.61,35.34 9.76,38.46 12.05,38.36 C14.34,38.26 15.15,35.14 15.2,33.3 C15.26,30.75 15.33,28.2 15.39,25.65 C15.43,23.77 14.27,20.69 12,20.75 Z" opacity=".5"/>
        <path id="Path" fill="#31E085" fill-rule="nonzero" d="M19,6.53 C18.8602879,6.08206897 18.6547035,5.65741931 18.39,5.27 C18.0123457,4.5911827 17.289367,4.17781916 16.5127983,4.19670867 C15.7362296,4.21559818 15.0342037,4.66362399 14.69,5.36 C13.01,8.54 11.78,11.82 12.64,15.46 C13.39,18.7 15.72,20.46 18.41,22.12 C19.29,22.66 20.54,21.79 20.93,21.03 C23.38,16.34 22.92,10.28 19,6.53 Z" opacity=".5"/>
        <path id="Path" fill="#CCC" fill-rule="nonzero" d="M45.49 46.47C43.96 45.78 42.19 46.4 40.61 46.73 38.9484835 47.0359983 37.3109744 47.4604139 35.71 48 33 49 33.35 55.71 36.58 55.64 38.222401 55.5398773 39.8542235 55.3091483 41.46 54.95 43.17 54.62 44.92 54.49 46.24 53.28 48 51.62 47.79 47.51 45.49 46.47zM46.07 24C40.33 25.08 33.23 25.53 28.07 28.38 23.42 30.94 23.89 40.74 29.57 41.63 34.95 42.48 41.16 40.48 46.45 39.52 50.07 38.86 51.45 34.98 51.35 31.63 51.29 29.21 49.66 23.31 46.07 24z" opacity=".5"/>
        <path id="Shape" fill="#3D454C" fill-rule="nonzero" d="M51,23.47 C51,23.47 51,23.47 51,23.41 C50.9875198,23.3067459 50.9605898,23.2057582 50.92,23.11 L50.92,23.05 C50.8682592,22.9498475 50.8007281,22.8586805 50.72,22.78 L50.72,22.78 C50.6381288,22.7063087 50.5431504,22.6486432 50.44,22.61 L50.39,22.61 L50.39,22.61 C50.39,22.61 46,21.14 43.71,20.11 C41.8,19.24 36.81,17.62 34.71,16.97 C34.1019375,16.7748709 33.4480625,16.7748709 32.84,16.97 C30.7318935,17.6790098 28.572124,18.2239672 26.38,18.6 C25.65,18.7 24.3,18.93 22.68,19.23 C23.2580935,16.9876514 23.0895836,14.6179805 22.2,12.48 C20.9104225,9.67379012 18.8238017,7.30895318 16.2,5.68 C15.9314461,5.52278728 15.6050102,5.49955578 15.3168989,5.61715223 C15.0287876,5.73474869 14.811842,5.97976853 14.73,6.28 C13.68,8.94 12.36,11.75 12.24,14.65 C12.1119434,16.8427323 12.6262833,19.0252016 13.72,20.93 L9.55,21.75 L9.43,21.75 L9.35,21.75 C9.2514817,21.7918512 9.16032164,21.8492483 9.08,21.92 L9.08,21.92 C8.91183679,22.0820632 8.80570067,22.2978733 8.78,22.53 L8.78,22.58 C8.78,22.58 8.78,22.58 8.78,22.58 C8.78,22.99 8.58,32.8 8.78,36.75 C8.79977469,37.1246448 9.02758225,37.4567033 9.37,37.61 C9.45,37.61 10.6,38.15 11.99,38.7 L10.26,39.1 L10.26,39.1 C10.2045807,39.1139215 10.1509082,39.1340487 10.1,39.16 L9.95,39.24 L9.82,39.36 C9.77480141,39.4019468 9.73454061,39.4489178 9.7,39.5 C9.66762547,39.5395506 9.64071758,39.5832759 9.62,39.63 C9.58753922,39.7070505 9.56405143,39.7875801 9.55,39.87 L9.55,39.95 C9.33772321,42.3152467 9.33772321,44.6947533 9.55,47.06 C9.58948208,47.4438968 9.84634364,47.7708115 10.21,47.9 C10.33,47.9 21.9,52.05 24.87,53.5 C27.8880803,54.7645409 30.9968112,55.8007845 34.17,56.6 L34.34,56.6 L34.43,56.6 C34.5425935,56.5987218 34.6541625,56.5784365 34.76,56.54 C36.7232847,55.8155423 38.7265887,55.2045346 40.76,54.71 C43.02,54.27 45.76,53.49 45.88,53.45 C46.2894477,53.3311649 46.5785253,52.9658028 46.6,52.54 C46.7254774,50.1850036 46.7254774,47.8249964 46.6,45.47 C46.6,45.47 46.6,45.42 46.6,45.39 C46.5859167,45.3119106 46.5658577,45.2350179 46.54,45.16 L46.47,45.03 C46.4356363,44.967005 46.3917907,44.9096684 46.34,44.86 L46.25,45 C46.1520005,44.9177943 46.0402963,44.8534798 45.92,44.81 C45.85,44.81 41.36,43.36 37.09,41.96 C41.25,40.72 50.17,38.63 50.27,38.6 C50.6860833,38.5041297 50.9953939,38.154649 51.04,37.73 C51.4,34.23 51.06,23.91 51,23.47 Z M14.33,14.3 C14.6515182,12.1451901 15.288338,10.0494125 16.22,8.08 C17.9779863,9.42657684 19.3959023,11.1664352 20.36,13.16 C21.281007,15.2231204 21.3099512,17.574837 20.44,19.66 L19.32,19.87 C19.2837647,18.9890965 19.1255927,18.117468 18.85,17.28 C18.71,16.8 18.57,16.28 18.45,15.83 C18.45,15.72 18.4,15.61 18.38,15.49 C18.36,15.37 18.38,15.28 18.38,15.23 C18.3650583,14.9802233 18.3650583,14.7297767 18.38,14.48 C18.38,13.9277153 17.9322847,13.48 17.38,13.48 C16.8277153,13.48 16.38,13.9277153 16.38,14.48 C16.4087454,15.5496116 16.6009693,16.6085294 16.95,17.62 C17.09,18.1 17.23,18.62 17.33,19.07 L17.39,19.41 C17.39,19.21 17.39,19.6 17.39,19.63 C17.39,19.84 17.39,20.05 17.39,20.26 L16,20.51 C14.55,19 14.15,16.31 14.33,14.3 Z M10.79,36.17 C10.67,32.98 10.79,27.01 10.79,24.24 C11.95,24.73 13.64,25.4 14.99,25.83 C16.82,26.41 23.24,29.1 25.24,29.95 C25.24,31.34 25.24,34.7 25.18,37.84 C24.18,37.47 23.41,37.17 23.03,37 C22.4478706,36.7353612 21.7978051,36.6584717 21.17,36.78 C20.31,36.94 17.92,37.49 15.59,38.02 C14,37.51 11.81,36.61 10.79,36.17 Z M44.65,51.92 C43.65,52.18 41.9,52.66 40.39,52.92 C38.7171879,53.3012095 37.0677774,53.7786705 35.45,54.35 C35.45,52.35 35.45,50.58 35.45,49.62 L44.69,47.02 C44.7,48.14 44.73,49.88 44.65,51.92 Z M34.39,47.86 C31.7603279,47.1858218 29.172536,46.3577284 26.64,45.38 C26.3947269,45.277359 26.1186756,45.2766217 25.8728578,45.3779512 C25.6270399,45.4792807 25.431696,45.6743335 25.33,45.92 C25.1228651,46.4280961 25.363831,47.0081994 25.87,47.22 C28.3415572,48.1820104 30.8655957,49.0033245 33.43,49.68 C33.43,50.68 33.49,52.45 33.43,54.51 C30.7983674,53.8214874 28.2213232,52.9390754 25.72,51.87 C23,50.55 13.93,47.28 11.47,46.4 C11.3667076,44.8050039 11.3667076,43.2049961 11.47,41.61 C13.14,42.21 16.23,43.33 19.08,44.41 C19.4140433,44.5368293 19.7903747,44.4758144 20.0672338,44.2499391 C20.3440929,44.0240637 20.4794181,43.6676437 20.4222338,43.314939 C20.3650495,42.9622344 20.1240434,42.6668293 19.79,42.54 C17.79,41.8 15.74,41.03 14.09,40.43 C16.85,39.79 20.52,38.95 21.59,38.74 C21.8140143,38.7010673 22.0445889,38.7325093 22.25,38.83 C23.65,39.45 29.51,41.51 31.5,42.18 C34.4,43.18 39.07,44.68 42.18,45.68 L34.39,47.86 Z M49.11,36.8 C46.5,37.42 37.65,39.55 34.99,40.52 C34.8092525,40.576293 34.6256647,40.6230244 34.44,40.66 L33.81,40.81 C33.81,40.81 33.81,40.81 33.75,40.81 L32.1,40.26 L27.18,38.54 C27.18,35.33 27.18,31.7 27.24,30.1 C28.46,29.89 30.8,29.47 32.63,29.1 C33.1822847,28.989543 33.5404569,28.4522847 33.43,27.9 C33.319543,27.3477153 32.7822847,26.9895431 32.23,27.1 C30.11,27.54 27.23,28.04 26.37,28.19 C24.85,27.55 17.65,24.52 15.6,23.86 C14.88,23.64 14.05,23.33 13.26,23.02 C17.52,22.19 24.66,20.81 26.69,20.53 C29.0011394,20.1385558 31.2780934,19.5668096 33.5,18.82 C33.7106216,18.7476187 33.9393784,18.7476187 34.15,18.82 C36.15,19.46 41.07,21.04 42.88,21.87 C43.88,22.34 45.33,22.87 46.61,23.33 L39.94,25.09 C39.4086032,25.2273917 39.0872633,25.7674214 39.22,26.3 C39.2859011,26.5575067 39.4516107,26.7781813 39.6805245,26.9132779 C39.9094383,27.0483746 40.1827189,27.0867762 40.44,27.02 C43.38,26.27 47.17,25.25 49.08,24.74 C49.16,27.47 49.3,33.75 49.11,36.8 Z"/>
        <path id="Path" fill="#3D454C" fill-rule="nonzero" d="M36.59 26.24C36.0377153 26.24 35.59 26.6877153 35.59 27.24 35.59 27.7922847 36.0377153 28.24 36.59 28.24 37.1422847 28.24 37.59 27.7922847 37.59 27.24 37.59 26.6877153 37.1422847 26.24 36.59 26.24zM22.77 44C22.2177153 44 21.77 44.4477153 21.77 45 21.77 45.5522847 22.2177153 46 22.77 46 23.3222847 46 23.77 45.5522847 23.77 45 23.77 44.4477153 23.3222847 44 22.77 44z"/>
        <rect id="Rectangle" width="60" height="60" x=".13" y="0"/>
      </g>
    </g>
  </g>
</svg>
