<svg xmlns="http://www.w3.org/2000/svg" width="64" height="64" viewBox="0 0 64 64" style="background:#fff">
  <g id="Seitan" fill="none" fill-rule="evenodd" stroke="none" stroke-width="1">
    <rect width="64" height="64" fill="#FFF"/>
    <g id="13-Seitan" transform="translate(2 4)">
      <g id="Layer_2">
        <rect id="Rectangle" width="60" height="60" x="0" y="0"/>
        <rect id="Rectangle" width="60" height="60" x="0" y="0"/>
      </g>
      <g id="Layer_1" fill-rule="nonzero" transform="translate(3 5)">
        <path id="Path" fill="#EBE53F" d="M41.38,7.51 C41.3174125,6.78676084 41.1902388,6.0705721 41,5.37 C40.66,2.37 38.89,-0.45 36,0.31 C30.1519622,1.816349 24.8548039,4.95926021 20.73,9.37 C16.67,13.77 12.35,21.06 17.26,26.55 C21.43,31.27 28.85,26.73 33,24 C38.56,20.3 42,14.25 41.38,7.51 Z" opacity=".5"/>
        <path id="Shape" fill="#3D454C" d="M42.09,12.29 C41.6999625,11.9022764 41.0700375,11.9022764 40.68,12.29 L39,14 C38.7154251,13.3789489 38.3226396,12.8134732 37.84,12.33 L37.65,12.17 C39.91,9.49 39.76,6.95 39.21,5.58 L40.81,3.98 C41.1497768,3.58323972 41.1269323,2.99180583 40.7575632,2.62243678 C40.3881942,2.25306773 39.7967603,2.2302232 39.4,2.57 L37.8,4.16 C36.42,3.62 33.89,3.47 31.2,5.73 L31.05,5.54 C30.5620559,5.05817093 29.993458,4.66556762 29.37,4.38 L31.04,2.71 C31.2936586,2.45812776 31.3936765,2.09006298 31.302378,1.74445209 C31.2110796,1.39884121 30.9423351,1.12819073 30.597378,1.03445209 C30.252421,0.940713446 29.8836586,1.03812776 29.63,1.29 L26.63,4.29 C25.3771841,5.54906159 24.5307271,7.15489158 24.2,8.9 C23.7771812,8.74302046 23.3375745,8.63563561 22.89,8.58 C22.5904676,8.56176958 22.2958269,8.66237859 22.07,8.86 L21.96,8.96 C20.7071841,10.2190616 19.8607271,11.8248916 19.53,13.57 C19.1071812,13.4130205 18.6675745,13.3056356 18.22,13.25 C17.9204676,13.2317696 17.6258269,13.3323786 17.4,13.53 L17.29,13.63 C14.1350633,16.8024156 13.8515198,21.8331647 16.63,25.34 L15.17,26.79 C14.7778779,27.1793608 14.7756393,27.8128778 15.165,28.205 C15.5543608,28.5971221 16.1878778,28.5993607 16.58,28.21 L18.04,26.75 C21.5714897,29.5320395 26.6312301,29.2088022 29.78,26 L29.9,25.87 C30.1036849,25.6562668 30.2025108,25.3634493 30.17,25.07 C30.1157797,24.6179042 30.0049096,24.1744235 29.84,23.75 C31.5849692,23.4250111 33.1914905,22.5816745 34.45,21.33 L34.56,21.21 C34.7701658,20.9957043 34.8729588,20.6983388 34.84,20.4 C34.7854897,19.9489694 34.6780842,19.5059218 34.52,19.08 C36.2611976,18.7525288 37.8638219,17.9094091 39.12,16.66 L42.12,13.66 C42.4736332,13.2671688 42.4604902,12.6669744 42.09,12.29 Z M37.25,6 C37.56,6.4 38.25,8.49 35.96,11 C34.9138455,10.5646691 33.7628084,10.4464357 32.65,10.66 C32.7217274,10.29769 32.7585625,9.929339 32.76,9.56 C32.7569642,8.79863987 32.6075868,8.04496263 32.32,7.34 C34.83,5.14 36.91,5.79 37.25,6 Z M18.74,24.6 C16.1897438,22.0390966 16.0800828,17.9333867 18.49,15.24 C19.1751312,15.3971089 19.8023125,15.7436179 20.3,16.24 C21.78247,17.7269601 21.78247,20.1330399 20.3,21.62 C20.1128135,21.8087188 20.0084632,22.064197 20.01,22.33 C20.0111046,22.5923399 20.1152558,22.8437394 20.3,23.03 C20.4877666,23.2193127 20.7433625,23.3257983 21.01,23.3257983 C21.2766375,23.3257983 21.5322334,23.2193127 21.72,23.03 C23.2035323,21.5486801 25.6064677,21.5486801 27.09,23.03 C27.5859492,23.5280126 27.9323854,24.1550622 28.09,24.84 C25.4025402,27.2513523 21.3002109,27.1460519 18.74,24.6 L18.74,24.6 Z M28.85,21.9 C28.8201498,21.8957602 28.7898502,21.8957602 28.76,21.9 C28.67,21.8 28.6,21.69 28.51,21.6 C27.1498396,20.2363604 25.201476,19.6368639 23.31,20 C23.6756957,18.1102143 23.0800262,16.162113 21.72,14.8 L21.42,14.55 C21.4257905,14.5169181 21.4257905,14.4830819 21.42,14.45 C21.5563469,12.9941446 22.1556521,11.6202988 23.13,10.53 C23.8151312,10.6871089 24.4423125,11.0336179 24.94,11.53 C25.6878156,12.2394254 26.1162717,13.2215822 26.1275776,14.2523026 C26.1388835,15.2830231 25.7320742,16.2743418 25,17 C24.8128135,17.1887188 24.7084632,17.444197 24.71,17.71 C24.7084632,17.975803 24.8128135,18.2312812 25,18.42 C25.3900375,18.8077236 26.0199625,18.8077236 26.41,18.42 C27.1228803,17.7055283 28.0907091,17.3040082 29.1,17.3040082 C30.1092909,17.3040082 31.0771197,17.7055283 31.79,18.42 C32.2878256,18.9126183 32.6347414,19.5370667 32.79,20.22 C31.6919293,21.1898033 30.3100163,21.7790454 28.85,21.9 L28.85,21.9 Z M33.18,17 C31.8300472,15.6319808 29.8900839,15.021529 28,15.37 C28.3656957,13.4802143 27.7700262,11.532113 26.41,10.17 L26.11,9.92 C26.1157905,9.88691814 26.1157905,9.85308186 26.11,9.82 C26.2428398,8.36132701 26.8465438,6.98544336 27.83,5.9 C29.170712,6.21937244 30.2334007,7.23964371 30.6070904,8.56624213 C30.9807801,9.89284055 30.6068841,11.3177836 29.63,12.29 C29.4428135,12.4787188 29.3384632,12.734197 29.34,13 C29.3456201,13.4000752 29.5891743,13.7582884 29.9591515,13.910632 C30.3291288,14.0629755 30.7542997,13.9801197 31.04,13.7 C32.5269601,12.21753 34.9330399,12.21753 36.42,13.7 C36.9159492,14.1980126 37.2623854,14.8250622 37.42,15.51 C36.3325764,16.4903951 34.9577613,17.0936304 33.5,17.23 C33.4701498,17.2257602 33.4398502,17.2257602 33.41,17.23 C33.34,17.16 33.27,17.05 33.18,17 Z"/>
        <g id="Group" fill="#E0A075" opacity=".5" transform="translate(0 32)">
          <path id="Path" d="M48.17,5.31 C40.97,0.66 33.77,-0.22 25.53,1.82 C24.1042896,2.42503311 22.5686732,2.7280705 21.02,2.71 C20.11,2.17 19.17,1.66 18.22,1.19 C16.5838427,0.717990242 14.8332632,0.842019152 13.28,1.54 C9.68,3.12 7.79,8.08 3.55,7.91 C0.02,7.78 0.55,14.29 2.35,15.83 C5.04,18.08 7.71,17.83 10.62,16.01 C11.73,15.31 12.62,14.35 13.73,13.64 C16.88,11.58 17.79,14.03 20.83,14.64 C24.41,15.35 27.96,13.21 31.51,12.9 C36.0250489,12.511607 40.5381537,13.6680901 44.31,16.18 C50,19.9 52.48,8.09 48.17,5.31 Z"/>
        </g>
        <path id="Shape" fill="#3D454C" d="M2.36,47.4 C2.34486322,47.4860057 2.34486322,47.5739943 2.36,47.66 C2.67,48.81 3.91,49.49 6.17,49.74 C6.6577427,49.7995511 7.14863544,49.8296058 7.64,49.83 C10.8202495,49.732238 13.920949,48.8123638 16.64,47.16 C17.2597977,46.8528858 17.9682647,46.7749544 18.64,46.94 C21.319979,47.5416695 24.100021,47.5416695 26.78,46.94 C28.0587603,46.5941288 29.3998241,46.5462337 30.7,46.8 C30.83,46.8 43.7,50.46 47.58,48.8 C49.32,48.07 50.2,47.08 50.1900843,45.88 L50.1900843,41.13 C50.1900843,41.13 50.1900843,41.13 50.1900843,41.07 C50.12,39.83 49.1,38.6 46.98,37.24 C46.5133194,36.9417663 45.8932338,37.0783194 45.5950001,37.545 C45.2967663,38.0116806 45.4333194,38.6317662 45.9,38.93 C47.9,40.21 48.17,40.93 48.2,41.17 L48.2,41.24 C48.2,41.46 47.79,41.86 46.82,42.24 C44.58,43.18 36.22,41.53 31.26,40.13 C29.6678977,39.7830804 28.0163435,39.817345 26.44,40.23 C24.0236464,40.7746684 21.5163536,40.7746684 19.1,40.23 C17.9350963,39.9460721 16.7063517,40.1027816 15.65,40.67 C12.8874748,42.3796821 9.66259941,43.1902683 6.42,42.99 C5.68347867,42.9687865 4.96300721,42.7697991 4.32,42.41 L4.32,42.41 C4.65850668,41.9263041 5.15266388,41.5733347 5.72,41.41 C7.42568456,40.73534 8.94724438,39.6661358 10.16,38.29 C11.1410039,36.9793655 12.68289,36.2084224 14.32,36.21 C15.68,36.21 16.95,36.36 18.18,36.48 C21.0363116,36.9352172 23.9539322,36.8299247 26.77,36.17 C30.3262354,35.3307702 34.0126883,35.1982617 37.62,35.78 C38.1722847,35.8683656 38.6916344,35.4922847 38.78,34.94 C38.8683655,34.3877153 38.4922847,33.8683656 37.94,33.78 C34.0539905,33.1369276 30.0782628,33.2831691 26.25,34.21 C23.6639572,34.8001287 20.9882492,34.8850179 18.37,34.46 C17.11,34.34 15.8,34.21 14.37,34.18 C12.1321713,34.1829316 10.0225607,35.2248058 8.66,37 C7.65605643,38.1340281 6.40340756,39.0204654 5,39.59 C3.35,40.27 2.38,41.35 2.37,42.46 L2.37,42.46 L2.36,47.4 Z M7.68,45.12 C10.8585518,45.0203122 13.9579568,44.1042658 16.68,42.46 C17.2972913,42.1452357 18.0073721,42.0635764 18.68,42.23 C21.3600891,42.8306755 24.1399109,42.8306755 26.82,42.23 C28.0980453,41.881164 29.4390344,41.8298506 30.74,42.08 C30.87,42.08 43.74,45.74 47.62,44.08 C47.84,43.99 48.04,43.89 48.23,43.79 L48.23,45.87 C48.23,46.09 47.87,46.51 46.85,46.94 C44.61,47.88 36.25,46.23 31.29,44.82 C29.6973938,44.4783073 28.0470638,44.5125466 26.47,44.92 C24.0542128,45.4697336 21.5457872,45.4697336 19.13,44.92 C17.9641362,44.6342594 16.7335631,44.794769 15.68,45.37 C12.9174748,47.0796821 9.69259941,47.8902683 6.45,47.69 C5.71810063,47.6831541 5.00210966,47.4756204 4.38,47.09 L4.38,44.65 C4.9765019,44.8286302 5.58967996,44.9459047 6.21,45 C6.69767263,45.0646725 7.18829506,45.1047233 7.68,45.12 Z"/>
        <path id="Path" fill="#3D454C" d="M42.41,37.16 C42.9622847,37.16 43.41,36.7122847 43.41,36.16 C43.41,35.6077153 42.9622847,35.16 42.41,35.16 C41.8577153,35.16 41.41,35.6077153 41.41,36.16 C41.41,36.7122847 41.8577153,37.16 42.41,37.16 Z"/>
      </g>
    </g>
  </g>
</svg>
