<svg xmlns="http://www.w3.org/2000/svg" width="64" height="64" viewBox="0 0 64 64" style="background:#fff">
  <g id="Senf" fill="none" fill-rule="evenodd" stroke="none" stroke-width="1">
    <rect width="64" height="64" fill="#FFF"/>
    <g transform="translate(2 4)">
      <g id="Layer_2">
        <rect id="Rectangle" width="60" height="60" x="0" y="0"/>
        <rect id="Rectangle" width="60" height="60" x="0" y="0"/>
      </g>
      <g id="Layer_1" fill-rule="nonzero" transform="translate(2 3)">
        <g id="Group" fill="#D4BA39" opacity=".5" transform="translate(1 40)">
          <path id="Path" d="M53.41,3.77 C53.09,1.22 50.41,-0.35 48.74,2.02 C47.07,4.39 39.74,3.68 36.82,3.82 C32.23,4.05 27.52,4.56 23,3.5 C19.5,2.69 16.75,1.74 13.12,2.43 C9.49,3.12 6,4.62 2.14,4.94 C-0.86,5.2 -0.29,10.32 1.72,11.43 C6.34,14 10.37,11 15.16,10.9 C18.27,10.9 21.16,12.39 24.16,13 C26.7041251,13.4463006 29.290502,13.6039655 31.87,13.47 C39.64,13.26 54.9,15.57 53.41,3.77 Z"/>
        </g>
        <g id="Group" fill="#D4BA39" opacity=".5" transform="translate(0 1)">
          <path id="Path" d="M41.66,27.53 C34.19,30.34 29.77,13.43 26.97,8.53 C26.7777267,8.14057727 26.5010072,7.79894827 26.16,7.53 C26.041508,7.23825389 25.9045644,6.95434649 25.75,6.68 C17.3,-7.64 -6.67,7.58 3.39,19.21 C6.26,22.53 11.13,24.73 14.77,27.08 C18.57,29.54 22.3733333,31.9966667 26.18,34.45 C31.49,37.86 39.06,42.08 44.09,35.79 C45.75,33.72 46,25.91 41.66,27.53 Z"/>
        </g>
        <path id="Shape" fill="#3D454C" d="M52.38,38.19 L46.8,33 L48.3,31 C49.1844075,29.8099442 48.9482463,28.1300806 47.77,27.23 L45.85,25.79 C46.6445247,24.6090153 46.3815282,23.0135034 45.25,22.15 L17.55,1.3 C16.7970412,0.72185313 15.8434236,0.470353619 14.9032764,0.601974226 C13.9631292,0.733594833 13.1152409,1.23730517 12.55,2 L3.42,14.16 C2.24708299,15.7183377 2.55563034,17.9318295 4.11,19.11 L31.81,40 C32.9466683,40.8588828 34.5574376,40.6740404 35.47,39.58 L37.39,41 C37.8580316,41.3492353 38.4260335,41.5385693 39.01,41.54 C39.8553081,41.5423636 40.6521857,41.145778 41.16,40.47 L42.66,38.47 L49.15,42.42 C49.3062512,42.5168454 49.4861743,42.5687462 49.67,42.57 C49.7585997,42.5595663 49.8457877,42.539446 49.93,42.51 L49.93,44.16 C49.9379256,45.6407908 49.1044246,46.9976529 47.78,47.66 L47.78,47.66 C46.8057138,48.1495032 45.6715714,48.211102 44.65,47.83 L42.17,47 C40.8247054,46.5014399 39.3452946,46.5014399 38,47 L35.27,48 C34.3814412,48.3401526 33.3985588,48.3401526 32.51,48 L29.78,47 C28.4377038,46.5039071 26.9622962,46.5039071 25.62,47 L22.88,48 C21.9914412,48.3401526 21.0085588,48.3401526 20.12,48 L17.4,47 C16.0577038,46.5039071 14.5822962,46.5039071 13.24,47 L9.61,48.36 C9.16831263,48.5239539 8.70113333,48.6085878 8.23,48.61 L3.71,48.61 C3.15771525,48.61 2.71,49.0577153 2.71,49.61 C2.71,50.1622847 3.15771525,50.610003 3.71,50.610003 L8.23,50.610003 C8.94065918,50.6107243 9.64550332,50.4819547 10.31,50.23 L13.94,48.87 C14.8308628,48.5425477 15.8091372,48.5425477 16.7,48.87 L19.43,49.87 C20.7722962,50.3660929 22.2477038,50.3660929 23.59,49.87 L26.33,48.87 C27.2169153,48.5397145 28.1930847,48.5397145 29.08,48.87 L31.82,49.87 C33.1622962,50.3660929 34.6377038,50.3660929 35.98,49.87 L38.72,48.87 C39.6069153,48.5397145 40.5830847,48.5397145 41.47,48.87 L43.92,49.79 C45.455592,50.3593622 47.1571883,50.2762694 48.63,49.56 L48.63,49.56 C50.6412046,48.561132 51.9094465,46.5055716 51.9,44.26 L51.9,40.3 L51.9,40.3 L52.47,39.54 C52.7951828,39.1349253 52.7560761,38.5483241 52.38,38.19 Z M5,15.36 L14.19,3.2 C14.4325167,2.87744775 14.7912696,2.66219604 15.19,2.6 C15.5950173,2.54023667 16.0068633,2.64861721 16.33,2.9 L28.33,11.98 L26,15.08 C25.8713641,15.2432313 25.6776684,15.3419065 25.47,15.35 C23.6287075,15.4019192 21.9109855,16.2885019 20.802039,17.7593151 C19.6930925,19.2301283 19.3133215,21.1254836 19.77,22.91 C19.8224384,23.1146666 19.7782193,23.3320773 19.65,23.5 L17.31,26.6 L5.31,17.51 C4.63273618,17.0006845 4.49420391,16.0398962 5,15.36 Z M39.56,39.36 C39.4451261,39.5105433 39.2748737,39.6089596 39.0870883,39.6333717 C38.899303,39.6577837 38.7095464,39.6061687 38.56,39.49 L36.69,38 L39.93,33.71 C40.2613708,33.2681722 40.1718278,32.6413708 39.73,32.31 C39.2907853,31.9764306 38.6644252,32.0614366 38.33,32.5 L34.49,37.6 L34.49,37.6 L33.98,38.27 C33.870167,38.4268526 33.7000927,38.5310104 33.5104583,38.5575592 C33.3208239,38.584108 33.1286848,38.5306601 32.98,38.41 L23,30.86 L25.34,27.76 C25.4668138,27.5945639 25.6616193,27.4953234 25.87,27.49 C27.7138763,27.4379963 29.4340602,26.5503616 30.5448682,25.0777143 C31.6556761,23.605067 32.0365675,21.707213 31.58,19.92 C31.5307439,19.7198649 31.5708867,19.508203 31.69,19.34 L32.59,18.15 C32.8949386,17.710276 32.7996779,17.1084231 32.3738486,16.7843643 C31.9480192,16.4603055 31.3425468,16.5288961 31,16.94 L30.09,18.14 C29.6011424,18.7920497 29.4355382,19.6311109 29.64,20.42 C29.9441216,21.6177666 29.6875811,22.8888337 28.9426988,23.8748789 C28.1978165,24.8609242 27.045281,25.4551352 25.81,25.49 C24.9970724,25.5085697 24.2376718,25.8993292 23.75,26.55 L21.41,29.65 L19,27.8 L21.34,24.7 C21.8330235,24.0498129 21.999023,23.2087489 21.79,22.42 C21.4849929,21.2202287 21.7426111,19.9468588 22.49,18.96 C23.2284616,17.9684639 24.3839225,17.3741213 25.62,17.35 C26.43461,17.3271624 27.1953255,16.9376173 27.69,16.29 L30,13.18 L44,23.79 C44.1544141,23.9016641 44.2566306,24.0714546 44.2830511,24.2601728 C44.3094717,24.448891 44.2578125,24.6402241 44.14,24.79 L43.63,25.47 L43.63,25.47 L43.12,26.15 C42.8674601,26.564736 42.9493531,27.1009522 43.3141735,27.4214025 C43.6789939,27.7418528 44.2212934,27.7539139 44.6,27.45 L46.53,28.91 C46.6805433,29.0248739 46.7789596,29.1951263 46.8033717,29.3829117 C46.8277837,29.570697 46.7761687,29.7604536 46.66,29.91 L39.56,39.36 Z M49.4,40.36 L43.86,36.99 L45.58,34.7 L50.35,39.11 L49.4,40.36 Z"/>
        <path id="Path" fill="#3D454C" d="M41.51,30.78 C42.0622847,30.78 42.51,30.3322847 42.51,29.78 C42.51,29.2277153 42.0622847,28.78 41.51,28.78 C40.9577153,28.78 40.51,29.2277153 40.51,29.78 C40.51,30.3322847 40.9577153,30.78 41.51,30.78 Z"/>
      </g>
    </g>
  </g>
</svg>
