<svg xmlns="http://www.w3.org/2000/svg" width="64" height="64" viewBox="0 0 64 64" style="background:#fff">
  <g id="Senfkörner" fill="none" fill-rule="evenodd" stroke="none" stroke-width="1">
    <rect width="64" height="64" fill="#FFF"/>
    <g transform="translate(2 9)">
      <g id="Layer_2">
        <rect id="Rectangle" width="60" height="60" x="0" y="0"/>
        <rect id="Rectangle" width="60" height="60" x="0" y="0"/>
      </g>
      <g id="Layer_1" fill-rule="nonzero" transform="translate(5 11)">
        <g id="Group" fill="#D4BA39" opacity=".5" transform="translate(19 4)">
          <path id="Path" d="M5.34,0.61 C-1.09,0.61 -1.1,10.61 5.34,10.61 C11.78,10.61 11.79,0.61 5.34,0.61 Z"/>
        </g>
        <g id="Group" fill="#483318" opacity=".5" transform="translate(26 13)">
          <path id="Path" d="M5.81,0.68 C-0.62,0.68 -0.63,10.68 5.81,10.68 C12.25,10.68 12.26,0.68 5.81,0.68 Z"/>
        </g>
        <g id="Group" fill="#C17953" opacity=".5" transform="translate(12 17)">
          <path id="Path" d="M5.68,0.68 C-0.76,0.68 -0.77,10.68 5.68,10.68 C12.13,10.68 12.12,0.68 5.68,0.68 Z"/>
        </g>
        <path id="Shape" fill="#3D454C" d="M48.61,21.37 C48.61,16.16 43.61,11.49 35.61,9.15 C33.7174882,6.7260475 31.5794569,4.50423761 29.23,2.52 L28.23,1.67 C26.2752284,-0.151508059 23.2447716,-0.151508059 21.29,1.67 C18.7445102,3.90153756 16.4019959,6.35448465 14.29,9 C14.2106935,8.98510273 14.1293065,8.98510273 14.05,9 C5.75,11.29 0.59,16 0.59,21.35 C0.685715191,23.1067605 1.1853311,24.8177739 2.05,26.35 L2.05,26.35 C2.05,26.35 2.05,26.35 2.05,26.35 L6.72,33.67 C8.10512781,36.3839843 10.5703885,38.3881432 13.51,39.19 C17.1029722,40.1152994 20.7998274,40.5757259 24.51,40.5603896 C28.2200935,40.5744065 31.9167809,40.1140009 35.51,39.19 C38.423403,38.3977201 40.8715915,36.4210345 42.26,33.74 L47,26.36 L47,26.36 C48.0278236,24.897197 48.5890727,23.1576733 48.61,21.37 L48.61,21.37 Z M40.61,32.83 C39.483266,35.0443914 37.4757469,36.6816267 35.08,37.34 C28.1842533,39.0485355 20.9757467,39.0485355 14.08,37.34 C11.661479,36.6653177 9.63931035,35.002565 8.51,32.76 L3.85,25.41 C3.14177227,24.1865967 2.71796736,22.819484 2.61,21.41 C2.61,17.54 6.4,13.85 12.44,11.68 C10.6130257,14.4100213 9.2606435,17.4292146 8.44,20.61 C8.30789451,21.1456491 8.63454964,21.6870912 9.17,21.82 C9.70564913,21.9521055 10.2470912,21.6254504 10.38,21.09 C12.53,12.35 19.38,6.16 22.63,3.19 C23.8257167,2.07104974 25.6842833,2.07104974 26.88,3.19 L27.88,4.05 C31.59,7.36 36.68,11.88 39.17,21.11 C39.2906641,21.5592179 39.7051312,21.8659235 40.17,21.85 L40.44,21.85 C40.6960417,21.7798876 40.9136979,21.6108445 41.0450026,21.3801234 C41.1763072,21.1494024 41.2104836,20.8759398 41.14,20.62 C40.3307631,17.568538 39.095266,14.6464358 37.47,11.94 C43.19,14.15 46.65,17.66 46.65,21.44 C46.6275809,22.8395354 46.1812758,24.1993714 45.37,25.34 L45.37,25.34 L45.37,25.34 L40.61,32.83 Z"/>
        <path id="Path" fill="#3D454C" d="M41.63 15.82C41.4311377 15.9982583 41.3118402 16.2486549 41.2986912 16.5153932 41.2855421 16.7821316 41.379634 17.0430474 41.56 17.24 42.6089778 18.2726526 43.2211482 19.6688307 43.27 21.14 43.27 26.29 34.72 30.64 24.6 30.64 14.48 30.64 5.94 26.29 5.94 21.14 5.9892189 19.670919 6.59725763 18.2760066 7.64 17.24 7.88115429 16.9756235 7.96294683 16.6026752 7.85456717 16.2616412 7.74618751 15.9206072 7.4641011 15.6632986 7.11456716 15.5866412 6.76503322 15.5099837 6.40115427 15.6256234 6.16 15.89 4.78833708 17.3000291 3.99605948 19.1736586 3.94 21.14 3.94 27.59 13.01 32.64 24.6 32.64 36.19 32.64 45.27 27.64 45.27 21.14 45.20344 19.1661371 44.3924769 17.2905617 43 15.89 42.6338338 15.507753 42.0332193 15.4770646 41.63 15.82zM22.14 11.84C22.6922847 11.84 23.14 11.3922847 23.14 10.84 23.14 10.2877153 22.6922847 9.84 22.14 9.84 21.5877153 9.84 21.14 10.2877153 21.14 10.84 21.14 11.3922847 21.5877153 11.84 22.14 11.84z"/>
        <path id="Path" fill="#3D454C" d="M32 17.71C32.5522847 17.71 33 17.2622847 33 16.71 33 16.1577153 32.5522847 15.71 32 15.71 31.4477153 15.71 31 16.1577153 31 16.71 31 17.2622847 31.4477153 17.71 32 17.71zM16.8 21.31C17.3522847 21.31 17.8 20.8622847 17.8 20.31 17.8 19.7577153 17.3522847 19.31 16.8 19.31 16.2477153 19.31 15.8 19.7577153 15.8 20.31 15.8 20.8622847 16.2477153 21.31 16.8 21.31zM27 24.48C27.5522847 24.48 28 24.0322847 28 23.48 28 22.9277153 27.5522847 22.48 27 22.48 26.4477153 22.48 26 22.9277153 26 23.48 26 24.0322847 26.4477153 24.48 27 24.48zM23 17.28C23.5522847 17.28 24 16.8322847 24 16.28 24 15.7277153 23.5522847 15.28 23 15.28 22.4477153 15.28 22 15.7277153 22 16.28 22 16.8322847 22.4477153 17.28 23 17.28zM28.61 9.68C29.1622847 9.68 29.61 9.23228475 29.61 8.68 29.61 8.12771525 29.1622847 7.68 28.61 7.68 28.0577153 7.68 27.61 8.12771525 27.61 8.68 27.61 9.23228475 28.0577153 9.68 28.61 9.68zM19.41 27.68C19.9622847 27.68 20.41 27.2322847 20.41 26.68 20.41 26.1277153 19.9622847 25.68 19.41 25.68 18.8577153 25.68 18.41 26.1277153 18.41 26.68 18.41 27.2322847 18.8577153 27.68 19.41 27.68zM34.61 25.28C35.1622847 25.28 35.61 24.8322847 35.61 24.28 35.61 23.7277153 35.1622847 23.28 34.61 23.28 34.0577153 23.28 33.61 23.7277153 33.61 24.28 33.61 24.8322847 34.0577153 25.28 34.61 25.28z"/>
      </g>
    </g>
  </g>
</svg>
