<svg xmlns="http://www.w3.org/2000/svg" width="64" height="64" viewBox="0 0 64 64" style="background:#fff">
  <g id="Sesamöl" fill="none" fill-rule="evenodd" stroke="none" stroke-width="1">
    <rect width="64" height="64" fill="#FFF"/>
    <g transform="translate(2 4)">
      <rect id="Rectangle" width="60" height="60" x="0" y="0"/>
      <rect id="Rectangle" width="60" height="60" x="0" y="0"/>
      <g id="Group" fill="#483318" fill-rule="nonzero" opacity=".5" transform="translate(15 33)">
        <path id="Path" d="M36.89,15.59 C32.26,12.31 29.59,8.27 26.23,3.87 C23.37,0.14 18.99,-0.75 15.11,2.15 C13.5926811,3.29600246 12.300871,4.71326389 11.3,6.33 C7.86,9.38 4.74,13 1.58,16 C-0.2,17.71 -0.55,25.4 3.35,24.69 C13.6669138,22.7479269 24.2596226,22.7920491 34.56,24.82 C39.11,25.77 39.87,17.71 36.89,15.59 Z"/>
      </g>
      <g id="Group" fill="#EBE53F" fill-rule="nonzero" opacity=".5" transform="translate(10 22)">
        <path id="Path" d="M9.59,1.18 L9.38,1.08 C8.95356463,0.221884715 7.93992812,-0.165298328 7.05,0.19 C6.18796216,0.491637273 5.35187468,0.862860112 4.55,1.3 C3.45194209,1.98756075 2.51965164,2.90960624 1.82,4 C0.120452074,6.82351608 -0.210399608,10.2643736 0.92,13.36 C2.43,17.52 7.63,19.73 11.17,16.49 C15.44,12.63 14.58,4.09 9.59,1.18 Z"/>
      </g>
      <path id="Shape" fill="#3D454C" fill-rule="nonzero" d="M26.36,26.8 C26.36,23.31 26.86,20.03 24.36,17.26 C22.75,15.48 21.64,15.16 21.36,12.7 C21.08,10.24 21.76,10.08 22.11,8.35 C22.78,5.03 21.83,1.93 18.25,1.44 C14.9,1 11.53,1.56 11,5.31 C10.52,8.79 13.26,11.21 11.56,14.56 C10.75,16.16 8.68,16.97 7.72,18.56 C7.05816594,19.785623 6.74351926,21.1686853 6.81,22.56 C6.63,26.68 6.81,30.84 6.81,34.96 L6.81,50.86 C6.81,54.57 7.73,56.86 11.89,57.44 C13.16,57.6 13.15,55.6 11.89,55.44 C10.6554736,54.8593515 9.593833,53.9666082 8.81,52.85 C8.69,52.58 8.81,52.14 8.81,51.85 C8.68501551,50.4026933 8.68501551,48.9473067 8.81,47.5 L8.81,24.5 C8.81,21.06 9.9,19.42 12.25,16.85 C13.7973425,14.9718308 14.3914414,12.4847333 13.86,10.11 L19.4,10.11 L19.4,10.35 C19.1,13.96 19.56,15.27 21.93,17.74 C26.28,22.32 24.42,33.33 24.44,39.28 C24.44,39.8322847 24.8877153,40.28 25.44,40.28 C25.9922847,40.28 26.44,39.8322847 26.44,39.28 C26.4,35.0933333 26.3733333,30.9333333 26.36,26.8 Z M13.48,8.1 C13,5.72 12.85,3.18 16.8,3.44 C20.45,3.68 20.22,5.85 19.8,8.1 L13.48,8.1 Z"/>
      <path id="Shape" fill="#3D454C" fill-rule="nonzero" d="M17.76,23.88 C17.7122008,23.8002237 17.6551382,23.7263779 17.59,23.66 C17.3981337,23.44158 17.1207122,23.3174704 16.83,23.32 C16.5323463,23.311549 16.2464106,23.4361876 16.05,23.66 C15.9857083,23.7247012 15.9317448,23.7989011 15.89,23.88 C14.33,26.17 12.3,28.88 11.89,31.7 C11.6966235,33.1387277 12.1230717,34.591915 13.0632403,35.6979957 C14.003409,36.8040765 15.3689121,37.4590671 16.82,37.5 C18.2567867,37.4715966 19.6157841,36.8418436 20.5662646,35.7639988 C21.5167451,34.6861539 21.971551,33.2590539 21.82,31.83 C21.43,29 19.32,26.18 17.76,23.88 Z M16.82,35.5 C13,35.5 13.82,31.41 14.96,29.27 C15.52,28.18 16.16,27.14 16.82,26.11 C17.43,27.06 18.02,28.01 18.54,29 C19.68,31.14 20.84,35.5 16.82,35.5 Z"/>
      <path id="Path" fill="#3D454C" fill-rule="nonzero" d="M53,55.62 L19.19,55.62 C22.91,51.14 26.62,46.62 30.36,42.17 C32.09,40.1 32.82,38.43 35.6,39 C37.96,39.49 39.15,41.5 40.6,43.23 C42.9,45.9433333 45.1966667,48.66 47.49,51.38 C48.33,52.38 49.73,50.95 48.91,49.97 C46.31,46.89 43.7133333,43.8166667 41.12,40.75 C38.47,37.63 35.47,34.51 31.67,37.68 C28.78,40.09 26.38,43.83 24,46.68 C21.4533333,49.7533333 18.9,52.8266667 16.34,55.9 C16.0586714,56.1870058 15.976495,56.6145455 16.131379,56.9853946 C16.2862631,57.3562437 16.6481103,57.5983384 17.05,57.6 L53,57.6 C53.4928083,57.5297786 53.8589326,57.1077862 53.8589326,56.61 C53.8589326,56.1122138 53.4928083,55.6902214 53,55.62 Z"/>
      <path id="Path" fill="#3D454C" fill-rule="nonzero" d="M50.81 54.27C51.3622847 54.27 51.81 53.8222847 51.81 53.27 51.81 52.7177153 51.3622847 52.27 50.81 52.27 50.2577153 52.27 49.81 52.7177153 49.81 53.27 49.81 53.8222847 50.2577153 54.27 50.81 54.27zM29.41 53.07C29.9622847 53.07 30.41 52.6222847 30.41 52.07 30.41 51.5177153 29.9622847 51.07 29.41 51.07 28.8577153 51.07 28.41 51.5177153 28.41 52.07 28.41 52.6222847 28.8577153 53.07 29.41 53.07zM34.41 52.27L34.41 52.47C34.41 53.0222847 34.8577153 53.47 35.41 53.47 35.9622847 53.47 36.41 53.0222847 36.41 52.47L36.41 52.27C36.41 51.7177153 35.9622847 51.27 35.41 51.27 34.8577153 51.27 34.41 51.7177153 34.41 52.27zM34.51 45.87C35.0622847 45.87 35.51 45.4222847 35.51 44.87 35.51 44.3177153 35.0622847 43.87 34.51 43.87 33.9577153 43.87 33.51 44.3177153 33.51 44.87 33.51 45.4222847 33.9577153 45.87 34.51 45.87zM41.71 50.17L41.81 50.17C42.3622847 50.17 42.81 49.7222847 42.81 49.17 42.81 48.6177153 42.3622847 48.17 41.81 48.17L41.71 48.17C41.1577153 48.17 40.71 48.6177153 40.71 49.17 40.71 49.7222847 41.1577153 50.17 41.71 50.17z"/>
    </g>
  </g>
</svg>
