<svg xmlns="http://www.w3.org/2000/svg" width="64" height="64" viewBox="0 0 64 64" style="background:#fff">
  <g id="Sesam" fill="none" fill-rule="evenodd" stroke="none" stroke-width="1">
    <rect width="64" height="64" fill="#FFF"/>
    <g transform="translate(2 8)">
      <g id="Layer_2">
        <rect id="Rectangle" width="60" height="60" x="0" y="0"/>
        <rect id="Rectangle" width="60" height="60" x="0" y="0"/>
      </g>
      <g id="Layer_1" fill-rule="nonzero" transform="translate(3 10)">
        <g id="Group" fill="#CCC" opacity=".5" transform="translate(23 24)">
          <path id="Path" d="M22.72,14.21 C22.4959318,12.8078052 21.8507172,11.5069131 20.87,10.48 C17.62,7.08 13.07,2.06 8.14,1 C3.21,-0.06 -0.07,4.25 0.04,8.58 C0.17,13.51 3.78,16.67 8.22,18.58 C11.07,19.78 21.09,19.64 21.89,18.46 L22,18.37 C23.0118308,17.2332111 23.2909148,15.6207256 22.72,14.21 Z"/>
        </g>
        <g id="Group" fill="#483318" opacity=".5" transform="translate(5)">
          <path id="Path" d="M18.76,6.18 C16,2.64 11.13,-0.76 6.44,0.92 C1.27,2.78 1.8,8 0.35,12.28 C-0.18,13.82 0.35,17.42 2.69,16.66 C3.86857203,16.2614433 4.85621975,15.4378092 5.46,14.35 C6.1,13.28 6.28,11.35 7.1,10.51 C9.59,7.8 13.41,12.62 15.1,13.91 C19.2,17.09 20.67,8.66 18.76,6.18 Z"/>
        </g>
        <g id="Group" fill="#483318" opacity=".5" transform="translate(5 32)">
          <path id="Path" d="M20.14,4.72 C16.9,3.96 15.08,0.72 11.4,0.88 C7.47,1.02 2.86,4.83 0.62,7.24 C-0.38,8.33 0.23,11.79 2.5,11.1 C2.63,11.1 13.55,11.62 18.7,11.24 C19.0503768,11.2244746 19.3925061,11.1286784 19.7,10.96 C22.67,10.78 23,5.39 20.14,4.72 Z"/>
        </g>
        <path id="Shape" fill="#3D454C" d="M53.25,5.73 L52.81,3.73 C52.7978681,3.67860097 52.7811339,3.62839838 52.76,3.58 C52.1791969,1.87763897 50.3759877,0.919136995 48.64,1.39 L40,3.11 L37.65,3.56 L37.1,3.66 C36.4900558,3.85044523 35.8392049,3.86775509 35.22,3.71 C34.9,3.49 34.57,3.27 34.22,3.07 C33.7433181,2.79169685 33.2526734,2.53803018 32.75,2.31 C31.5253553,1.75509227 30.1806078,1.51778389 28.84,1.62 L28.05,1.69 C27.4,1.77 26.71,1.9 25.89,2.05 L22,2.69 C21.6427344,2.74894882 21.3440562,2.9940187 21.2164746,3.33289419 C21.088893,3.67176968 21.1517906,4.05296753 21.3814746,4.33289419 C21.6111586,4.61282086 21.9727344,4.74894882 22.33,4.69 L26.23,4.04 L27.41,3.83 L29.7,12.73 C23.5882799,12.9389132 17.5152034,13.7868649 11.58,15.26 C6.39,16.53 4,18.51 2.89,20 C2.89,19.93 2.89,19.85 2.89,19.78 L3,13.36 C2.99347561,12.2852318 3.59845297,11.3002046 4.56,10.82 L4.61,10.82 C5.08891082,10.5708866 5.28366064,9.98663718 5.05,9.5 C4.94092463,9.25645588 4.73903216,9.06661009 4.48924604,8.97270553 C4.23945992,8.87880098 3.96250248,8.88862801 3.72,9 C2.06914698,9.80954224 1.01648767,11.4814129 1,13.32 L0.85,19.78 L0.85,19.88 C1.05251427,22.2704604 3.05097733,24.1081776 5.45,24.11 C5.75950521,24.103212 6.06761901,24.0663723 6.37,24 L31.94,18.76 C33.3493234,18.5527137 34.6874717,18.007161 35.84,17.17 C35.9925941,17.0574329 36.1394453,16.937282 36.28,16.81 L36.35,16.81 C37.6990682,15.5477134 38.6688221,13.9337658 39.15,12.15 C39.21,11.92 39.25,11.71 39.29,11.54 L39.29,11.36 C39.2954863,11.3034661 39.2954863,11.2465339 39.29,11.19 L39.29,10.14 L52.17,7.4 C52.5775522,7.312898 52.8883553,6.9821717 52.95,6.57 C53.1762527,6.35257628 53.2873298,6.04156033 53.25,5.73 Z M38.25,8.32 C37.8061263,8.41479336 37.4817626,8.79663921 37.46,9.25 L37.36,11 L37.36,11.12 C37.36,11.26 37.3,11.43 37.25,11.61 C36.8477497,13.0123342 36.0696904,14.2779773 35,15.27 L34.92,15.33 C34.8321911,15.4201373 34.7349685,15.5005974 34.63,15.57 C33.7187861,16.2264519 32.661874,16.651962 31.55,16.81 L6,22.06 C5.37371215,22.1791873 4.7254514,22.0729151 4.17,21.76 C4.72,20.76 6.52,18.57 12.08,17.18 C18.2719943,15.6373651 24.6196065,14.8053314 31,14.7 C31.3090338,14.6948212 31.600732,14.5562645 31.8,14.32 C31.9925998,14.0740358 32.0591873,13.752196 31.98,13.45 L29.4,3.61 C30.2684585,3.60220089 31.1282584,3.78303182 31.92,4.14 C32.2866667,4.30666667 32.7066667,4.52666667 33.18,4.8 C33.47,4.97 33.76,5.15 34.02,5.34 C34.72,5.84 35.84,5.94 37.44,5.63 L37.99,5.52 C38.76,5.37 39.53,5.22 40.33,5.08 L49,3.31 C49.3604829,3.17998171 49.758213,3.20118154 50.1028322,3.36878322 C50.4474514,3.53638489 50.7097003,3.83615845 50.83,4.2 L51.13,5.56 L38.25,8.32 Z"/>
        <path id="Path" fill="#3D454C" d="M5.79,15.48 L6.01,15.48 C6.48969281,15.4906736 6.90935831,15.1591379 7.01,14.69 C7.07,14.41 7.14,14.09 7.21,13.75 C7.62271522,11.5629214 8.22156022,9.41510865 9,7.33 C10,4.88 11,3.55 12.17,3.01 C13.34,2.47 14.81,3.29 17.27,5.01 C19.5751355,6.6049626 21.5794462,8.5957307 23.19,10.89 C23.3461269,11.1052922 23.5815809,11.2495264 23.8443011,11.290811 C24.1070214,11.3320956 24.3753654,11.2670297 24.59,11.11 C25.0321183,10.7854037 25.1302702,10.1652621 24.81,9.72 C23.0638551,7.23345048 20.8901257,5.07665048 18.39,3.35 C15.79,1.59 13.73,0.2 11.39,1.23 C9.05,2.26 7.96,4.63 7.16,6.64 C6.33082205,8.83706244 5.69507421,11.1023324 5.26,13.41 C5.19,13.75 5.13,14.06 5.06,14.34 C4.97005259,14.8519759 5.28735587,15.3474906 5.79,15.48 Z"/>
        <path id="Shape" fill="#3D454C" d="M47.57,42.12 C43.9,37.7 40.4,33.05 36.57,28.81 C30.63,22.32 25.99,28.98 22.06,33.81 C18.77,31.25 16.95,32.12 13.37,34.94 C10.37,37.35 7.26,39.7 4.2,42.08 C3.49,42.63 4.12,43.78 4.91,43.78 L46.91,43.78 C47.286323,43.7468113 47.6118198,43.5043802 47.7513956,43.153326 C47.8909714,42.8022717 47.8207979,42.4025259 47.57,42.12 Z M27.28,30.63 C31.71,26.76 34.54,29.55 36.82,32.29 L44.74,41.82 L32.19,41.82 L23.54,35.1 C24.6402841,33.4933965 25.8927318,31.9964871 27.28,30.63 Z M21.51,36 L29,41.82 L7.76,41.82 L11.52,38.9 C14.67,36.46 17.76,32.68 21.51,36 Z"/>
        <path id="Path" fill="#3D454C" d="M33.46,34.42 C34.0122847,34.42 34.46,33.9722847 34.46,33.42 C34.46,32.8677153 34.0122847,32.42 33.46,32.42 C32.9077153,32.42 32.46,32.8677153 32.46,33.42 C32.46,33.9722847 32.9077153,34.42 33.46,34.42 Z"/>
        <circle id="Oval" cx="29.16" cy="35.52" r="1" fill="#3D454C"/>
        <circle id="Oval" cx="15.51" cy="39.27" r="1" fill="#3D454C"/>
        <circle id="Oval" cx="21.11" cy="39.27" r="1" fill="#3D454C"/>
        <circle id="Oval" cx="14.61" cy="6.77" r="1" fill="#3D454C"/>
        <circle id="Oval" cx="11.01" cy="10.87" r="1" fill="#3D454C"/>
        <circle id="Oval" cx="17.21" cy="10.87" r="1" fill="#3D454C"/>
        <circle id="Oval" cx="35.21" cy="38.97" r="1" fill="#3D454C"/>
      </g>
    </g>
  </g>
</svg>
