<svg xmlns="http://www.w3.org/2000/svg" width="64" height="64" viewBox="0 0 64 64" style="background:#fff">
  <g id="Sherryessig" fill="none" fill-rule="evenodd" stroke="none" stroke-width="1">
    <rect width="64" height="64" fill="#FFF"/>
    <g transform="translate(2 4)">
      <g id="Layer_2">
        <rect id="Rectangle" width="60" height="60" x="0" y="0"/>
        <rect id="Rectangle" width="60" height="60" x="0" y="0"/>
      </g>
      <g id="Layer_1" fill-rule="nonzero" transform="translate(14 2)">
        <g id="Group" fill="#483318" opacity=".5" transform="translate(0 21)">
          <path id="Path" d="M11.07,1.27 C9.04679067,1.54848619 7.15085503,2.41818144 5.62,3.77 C0.45,8.28 -0.93,16.08 0.68,22.7 C2.24,29.11 6.98,34.55 13.44,35.08 C19.9798919,35.4334792 26.0160391,31.5743691 28.44,25.49 C33.1,13.56 23.46,-1.61 11.07,1.27 Z"/>
        </g>
        <path id="Path" fill="#3D454C" d="M13,7.46 C12.87,6.37 12.67,5.27 12.61,4.17 C12.5,2.06 13.61,2.29 15.21,2.29 C16.81,2.29 18,2.05 17.85,4.14 C17.79,5.22 17.57,6.32 17.43,7.4 C17.26,8.67 19.27,8.66 19.43,7.4 C19.62,5.88 20.15,4.05 19.72,2.54 C19.07,0.25 17.19,0.289954423 15.24,0.289954423 C13.29,0.289954423 11.4,0.289954423 10.76,2.55 C10.33,4.07 10.85,5.94 11.03,7.46 C11.18,8.73 13.18,8.74 13,7.46 Z"/>
        <path id="Shape" fill="#3D454C" d="M28.45,37.92 C27.77,33.92 25.63,30.4 23.9,26.81 C22.0273546,22.9747135 20.7590356,18.8729158 20.14,14.65 C20.6201335,14.4136383 21.0406155,14.071783 21.37,13.65 C22.37,12.37 22.12,10.72 22.12,9.23 C22.1256145,9.1734724 22.1256145,9.1165276 22.12,9.06 C22.29,7.88 20.47,7.39 20.19,8.62 C19.81,10.29 12.42,10.23 10.31,9.16 C10.5,8.46 10,7.61 9.15,7.92 C8.80854847,8.02270457 8.50334457,8.22039346 8.27,8.49 C8.15040824,8.59475397 8.06069914,8.72931762 8.01,8.88 C7.95236673,9.02261967 7.92841227,9.17661262 7.94,9.33 C7.94,10.8 7.78,12.41 8.7,13.65 C9.10765017,14.1684534 9.64613732,14.5688669 10.26,14.81 C9.45,20.11 7.07,24.62 4.55,29.29 C3.94,30.42 5.67,31.43 6.28,30.29 C8.89,25.45 11.36,20.8 12.19,15.29 C13.0922719,15.4009972 14.0009942,15.4511105 14.91,15.44 C15.0715969,18.3009992 15.6337411,21.125185 16.58,23.83 C17.01,25.03 18.94,24.51 18.51,23.3 C17.6050388,20.7518836 17.0630609,18.0891226 16.9,15.39 C17.3526372,15.3619449 17.8033448,15.3085277 18.25,15.23 C18.9411332,19.5915128 20.2898045,23.8229692 22.25,27.78 C25.25,33.92 30.76,45.09 22.07,49.52 C21.7593658,49.699341 21.568576,50.0313152 21.57,50.39 C21.57,51.39 21.7,51.54 21.81,51.39 C21.07,52.39 19.6,52.58 18.51,52.84 C16.41,53.35 11.04,53.76 9.26,51.84 C10.664024,52.2053917 12.0953906,52.4562153 13.54,52.59 C14.82,52.72 14.82,50.71 13.54,50.59 C11.6559644,50.4025847 9.80014484,49.9965193 8.01,49.38 C7.52030138,49.1744166 7.05970166,48.9054532 6.64,48.58 C5.58,47.84 4.58,49.58 5.64,50.3 C6.99,51.23 6.21,51.67 7.04,52.95 C7.87,54.23 10.04,54.51 11.29,54.76 C15.2794334,55.5443039 19.4173775,54.9223755 23,53 C23.3036995,52.8199357 23.4899384,52.4930673 23.49,52.14 C23.49,50.49 25.77,49.3 26.76,47.61 C28.4506128,44.6811597 29.0493397,41.2482231 28.45,37.92 L28.45,37.92 Z M9.93,11.21 C11.76,11.9 14.27,11.77 15.84,11.75 C17.2383228,11.8264251 18.6402478,11.6949947 20,11.36 C19.24,13.46 16.9,13.47 14.95,13.47 C13,13.47 10.47,13.59 9.93,11.21 Z"/>
        <path id="Path" fill="#3D454C" d="M22.43 47.18C24.93 43.7 24.77 39.04 22.96 35.28 22.4 34.12 20.68 35.13 21.23 36.28 22.8637701 39.4245369 22.6607955 43.208289 20.7 46.16 20 47.22 21.69 48.22 22.43 47.18zM20.55 31.54C20.1725467 31.3783347 19.7346286 31.4638389 19.4457102 31.7556143 19.1567918 32.0473896 19.0756008 32.4861279 19.2409723 32.8619722 19.4063438 33.2378165 19.7846633 33.4743701 20.1949733 33.458485 20.6052834 33.4425998 20.9641815 33.1775049 21.1 32.79 21.2740113 32.2935269 21.0335951 31.7471264 20.55 31.54zM4.43 29.4C.1 36.4-.9 43.95 5.24 50.21 6.14 51.14 7.55 49.72 6.65 48.8 1.1 43.13 2.33 36.62 6.16 30.41 6.84 29.31 5.11 28.3 4.43 29.41L4.43 29.4z"/>
      </g>
    </g>
  </g>
</svg>
