<svg xmlns="http://www.w3.org/2000/svg" width="64" height="64" viewBox="0 0 64 64" style="background:#fff">
  <g id="Silserbrot" fill="none" fill-rule="evenodd" stroke="none" stroke-width="1">
    <rect width="64" height="64" fill="#FFF"/>
    <g transform="translate(2 12)">
      <g id="Layer_2">
        <rect id="Rectangle" width="60" height="60" x="0" y="0"/>
        <rect id="Rectangle" width="60" height="60" x="0" y="0"/>
      </g>
      <g id="Layer_1" fill-rule="nonzero" transform="translate(6 11)">
        <path id="Path" fill="#E0A075" d="M43.38,15.6 C40.78,10.47 35.86,13.89 36.29,18.73 C37,26.2 23.9,25 19.37,24.31 C17,24 8.93,22.94 9,20 C9,18.86 11.46,17.11 12.13,16.43 C13.5107908,15.0992745 14.732312,13.6126429 15.77,12 C16.9,10.16 16.84,4.7 13.64,4.86 C6.27,5.24 1.09,13.5 0.74,20.24 C0.26,29.34 6.26,33.85 14.36,36 C21.55,37.9 30.67,39.14 37.36,35.1 C43.75,31.27 46.79,22.35 43.38,15.6 Z" opacity=".5"/>
        <path id="Path" fill="#C17953" d="M32.94,11.17 C32.78,9.89 32.16,7.8 30.68,7.4 C27.84,6.63 25.1,8.4 22.94,10.13 C20.6699952,12.0084312 18.9436838,14.4597934 17.94,17.23 C17.12,19.37 18.43,24.3 21.42,22.23 C22.92,21.23 24.42,20.15 25.97,19.18 C27.79,18.05 30.11,17.37 31.58,15.78 C32.6895019,14.5182641 33.1869928,12.8319165 32.94,11.17 L32.94,11.17 Z" opacity=".5"/>
        <path id="Shape" fill="#3D454C" d="M45,21.52 C45.5697193,17.1960926 43.2369583,13.0101278 39.26,11.22 C37.98,6.22 32.97,4.46 30.42,4.22 C30.3601026,4.2150374 30.2998974,4.2150374 30.24,4.22 C28.0718991,1.5735549 24.7897292,0.0949438125 21.3710252,0.224544308 C17.9523213,0.354144803 14.7915167,2.07700421 12.83,4.88 C9.07495772,5.42306698 5.72526336,7.53024998 3.61,10.68 C1.53664771,13.5440749 0.740363234,17.1382135 1.41,20.61 C0.701163994,24.8888583 1.87909696,29.2650798 4.64,32.61 C8.17,36.69 14.04,38.76 22.08,38.76 C31.73,38.76 38.44,36.76 42.02,32.76 C44.48,30 45.48,26.19 45,21.52 Z M30.3,30.71 L30.48,30.71 C34.21,30 40,28.41 43,25.22 C42.8625181,27.5197191 41.9696452,29.7097183 40.46,31.45 C37.28,35.01 31.07,36.81 22.01,36.81 C14.58,36.81 9.22,34.97 6.09,31.35 C4.35544143,29.281337 3.35345078,26.6972558 3.24,24 C5.46836032,26.7717961 8.4678853,28.8213555 11.86,29.89 C13.4875821,30.4427908 15.1607239,30.8510374 16.86,31.11 L17,31.11 C17.5522847,31.1541828 18.0358172,30.7422847 18.08,30.19 C18.1241828,29.6377153 17.7122847,29.1541828 17.16,29.11 C15.5814119,28.8720979 14.0258395,28.5007677 12.51,28 C6.51,25.9 4.19,22.29 3.35,20.27 C2.77803785,17.3113332 3.45878715,14.2479613 5.23,11.81 C7.10477907,9.01916186 10.1096242,7.19139716 13.45,6.81 C13.6293266,6.78562853 13.7986782,6.71304931 13.94,6.6 L14.08,6.48 L14.14,6.4 L14.2,6.33 C17.82,0.99 24.88,0.88 28.91,5.78 C29.1092236,6.05125212 29.4599626,6.16413364 29.78,6.06 C29.906046,6.14451108 30.0496732,6.1992262 30.2,6.22 C30.45,6.22 36.35,6.89 37.38,12.13 C37.4466993,12.4751032 37.6896834,12.7598502 38.02,12.88 C41.4680749,14.1798348 43.5479062,17.7030689 43.02,21.35 C42.36,24.62 37.66,27.35 30.12,28.74 C29.8584746,28.7885168 29.6270539,28.9392255 29.4769222,29.158793 C29.3267906,29.3783605 29.2703199,29.6486931 29.32,29.91 C29.4126252,30.3648269 29.8060448,30.6961276 30.27,30.71 L30.3,30.71 Z"/>
        <path id="Path" fill="#3D454C" d="M19.48 8.44C16.3359674 10.0750121 13.7366386 12.5909399 12 15.68 11.7515983 16.1548504 11.9216763 16.7411063 12.3856398 17.0092932 12.8496032 17.2774802 13.442504 17.1322526 13.73 16.68 15.3011279 13.8883573 17.6590861 11.6208223 20.51 10.16 21.63 9.57 20.62 7.84 19.48 8.44zM30.71 10.48C27.7973415 12.4738489 25.1466023 14.825582 22.82 17.48 21.98 18.48 23.39 19.87 24.24 18.89 26.4423468 16.3487677 28.9553766 14.0944322 31.72 12.18 32.77 11.48 31.77 9.74 30.71 10.48zM24.21 29.47C23.6577153 29.47 23.21 29.9177153 23.21 30.47 23.21 31.0222847 23.6577153 31.47 24.21 31.47 24.7622847 31.47 25.21 31.0222847 25.21 30.47 25.21 29.9177153 24.7622847 29.47 24.21 29.47z"/>
      </g>
    </g>
  </g>
</svg>
