<svg xmlns="http://www.w3.org/2000/svg" width="64" height="64" viewBox="0 0 64 64" style="background:#fff">
  <g id="Soisson-Bohnen" fill="none" fill-rule="evenodd" stroke="none" stroke-width="1">
    <rect width="64" height="64" fill="#FFF"/>
    <g transform="translate(2 4)">
      <g id="Layer_2">
        <rect id="Rectangle" width="60" height="60" x="0" y="0"/>
        <rect id="Rectangle" width="60" height="60" x="0" y="0"/>
      </g>
      <g id="Layer_1" fill-rule="nonzero" transform="translate(6 6)">
        <path id="Path" fill="#CCC" d="M36.26 28C33.49 28.58 32.08 30.24 29.63 31.46 27.1066991 32.6810235 24.305148 33.2123522 21.51 33 18.51 32.78 6.33 28.38 9.2 23.77 10.8 21.22 9.46 14.06 5.45 16.77-5 23.85 3.05 38.66 11.05 43.87 19.98 49.69 36.37 51.11 40.58 38.68 41.45 36.11 41.14 27 36.26 28zM42.5 4.32C39.29 1.2 33.63.18 30.41 3.8 27.9 6.62 28 12.1 31.55 14.06 32.9 14.81 34.79 15.32 35.83 16.06L36.14 16.33C36.01 17.48 35.89 18.82 35.89 18.74 35.8271523 20.5713011 36.2516096 22.3864599 37.12 24 38.41 26.23 40.85 27.38 43.3 25.88 44.7377501 24.7737185 45.7568116 23.2116277 46.19 21.45 47.91 15.79 46.83 8.52 42.5 4.32z" opacity=".5"/>
        <path id="Shape" fill="#3D454C" d="M30.58,25.27 C29.712441,25.063517 28.8213754,24.9727292 27.93,25 C26.9953627,25.0379482 26.0702236,25.2027911 25.18,25.49 C24.4680725,25.7394191 23.7060686,25.8115005 22.96,25.7 L22.85,25.7 C21.177778,25.3243133 19.6930589,24.3675731 18.66,23 C18.280408,22.4576224 17.9931943,21.856163 17.81,21.22 L17.81,21.22 C17.74,21.02 17.68,20.81 17.61,20.6 C17.3883141,19.7071593 17.0521984,18.846703 16.61,18.04 C15.395274,16.0520337 13.31844,14.7489222 11,14.52 C8.2912117,14.184826 5.57667428,15.0970283 3.62,17 C2.17944822,18.4949849 1.19137802,20.3671179 0.77,22.4 C-0.461488197,27.7370316 0.816880442,33.3441701 4.24,37.62 C8.57,43.08 16.24,46.62 24.16,46.8 L24.67,46.8 C29.46,46.8 33.67,45.08 36.22,42.05 C38.4716955,39.2626181 39.1431954,35.5180167 38.0003528,32.1219099 C36.8575102,28.7258032 34.058758,26.1489954 30.58,25.29 L30.58,25.27 Z M20.87,27.17 C20.3477838,27.4678092 19.750037,27.6068201 19.15,27.57 C18.3581231,27.5221519 17.6174365,27.1625953 17.09,26.57 C16.5711829,25.9592374 16.312665,25.1693215 16.37,24.37 C16.4004903,24.0632793 16.4780674,23.7630895 16.6,23.48 C16.7307144,23.7337223 16.884709,23.9747572 17.06,24.2 C18.0531907,25.501438 19.3655314,26.5244437 20.87,27.17 L20.87,27.17 Z M34.69,40.74 C32.46,43.37 28.54,44.9 24.21,44.74 C16.83,44.56 9.78,41.33 5.81,36.32 C2.77628807,32.5105701 1.64262525,27.5268706 2.73,22.78 C3.05579512,21.1283343 3.84285127,19.6027629 5,18.38 C6.30256698,17.1291181 8.04418379,16.4396533 9.85,16.46 C10.1275008,16.4570257 10.4048631,16.4737343 10.68,16.51 C12.3849055,16.6359122 13.9304776,17.5588078 14.85,19 C15.2135391,19.6671323 15.4955623,20.3755477 15.69,21.11 L15.69,21.16 C14.9164074,21.9783256 14.446946,23.0372611 14.36,24.16 C14.2498048,25.4934897 14.6786814,26.8155112 15.5507005,27.830361 C16.4227197,28.8452109 17.6651173,29.4682068 19,29.56 L19.39,29.56 C20.8736632,29.5594437 22.2804556,28.9000097 23.23,27.76 C24.0982833,27.7999808 24.9664186,27.6778993 25.79,27.4 C26.50547,27.1684598 27.2487629,27.0339271 28,27 C28.715095,26.9761092 29.4304237,27.0399179 30.13,27.19 C32.9275614,27.8949437 35.174807,29.9738468 36.0950116,32.7081692 C37.0152163,35.4424915 36.4821278,38.457084 34.68,40.71 L34.69,40.74 Z"/>
        <path id="Path" fill="#3D454C" d="M44.28 6.05C43.3475638 4.5323546 42.0651056 3.26018352 40.54 2.34 39.2825964 1.54662374 37.844315 1.08554789 36.36 1 34.1854129.923577847 32.0758013 1.74860605 30.53 3.28 29.086513 4.64206342 28.2780215 6.54546265 28.3 8.53 28.3078727 8.91495673 28.2810981 9.29984125 28.22 9.68L28.22 9.68C28.1893782 9.94664595 28.1392438 10.2106873 28.07 10.47 27.5591359 12.3619303 26.2635242 13.9450513 24.51 14.82 23.8104439 15.1307052 23.040363 15.2481166 22.28 15.16L22 15.16C21.6296503 15.1575398 21.2607204 15.113939 20.9 15.03 20.3477153 14.9029745 19.7970255 15.2477153 19.67 15.8 19.5429745 16.3522847 19.8877153 16.9029745 20.44 17.03 20.9222566 17.1418113 21.4150136 17.2021489 21.91 17.21L22.1 17.21C23.2162355 17.3196591 24.3415276 17.1298092 25.36 16.66 27.3771088 15.6545277 28.9333853 13.9157911 29.71 11.8 29.71 11.8 29.71 11.85 29.77 11.88 30.4497026 13.2470703 29.8951114 14.9063715 28.53 15.59 28.1278145 15.8070633 27.9239642 16.2691708 28.0348085 16.7125479 28.1456527 17.155925 28.542983 17.4677373 29 17.47 29.1557409 17.4721666 29.3098347 17.4379235 29.45 17.37 31.7955312 16.1983961 32.7557844 13.3533666 31.6 11 31.2888339 10.3581425 30.8295413 9.79945082 30.26 9.37 30.2747116 9.0935289 30.2747116 8.8164711 30.26 8.54 30.2558173 7.11142095 30.8463683 5.74554523 31.89 4.77 33.0366866 3.59728555 34.6204278 2.95581601 36.26 3 37.4124836 3.05951568 38.5323763 3.40304105 39.52 4 40.7626213 4.74428976 41.8112522 5.77235927 42.58 7 46.4 13.18 44.07 20.22 40.58 24.74 40.2464306 25.1792147 40.3314366 25.8055748 40.77 26.14 40.9418349 26.2733977 41.1524824 26.3471243 41.37 26.35 41.6847573 26.35 41.9811456 26.2018058 42.17 25.95 47.13 19.61 47.93 11.94 44.28 6.05zM39 26.9C38.4477153 26.9 38 27.3477153 38 27.9 38 28.4522847 38.4477153 28.9 39 28.9 39.5522847 28.9 40 28.4522847 40 27.9 40 27.3477153 39.5522847 26.9 39 26.9zM17.17 15.93C17.7222847 15.93 18.17 15.4822847 18.17 14.93 18.17 14.3777153 17.7222847 13.93 17.17 13.93 16.6177153 13.93 16.17 14.3777153 16.17 14.93 16.17 15.4822847 16.6177153 15.93 17.17 15.93z"/>
      </g>
    </g>
  </g>
</svg>
