<svg xmlns="http://www.w3.org/2000/svg" width="64" height="64" viewBox="0 0 64 64" style="background:#fff">
  <g id="Soja" fill="none" fill-rule="evenodd" stroke="none" stroke-width="1">
    <rect width="64" height="64" fill="#FFF"/>
    <g transform="translate(2 7)">
      <g id="Layer_2">
        <rect id="Rectangle" width="60" height="60" x="0" y="0"/>
        <rect id="Rectangle" width="60" height="60" x="0" y="0"/>
      </g>
      <g id="Layer_1" fill-rule="nonzero" transform="translate(3 4)">
        <path id="Path" fill="#E0A075" d="M48.46 40.36C47.8027277 39.1936028 46.4009669 38.6700536 45.14 39.12 43.4919617 39.7461202 41.7298156 40.0153843 39.97 39.91 37.97 39.79 36.63 39.07 34.87 40.39 33.43 41.46 33.6 44.08 34.11 45.52 35.94 50.52 42.96 50.52 47.18 49.01 48.56 48.5 49.26 46.66 49.46 45.36 49.8076568 43.6266668 49.4475806 41.8262857 48.46 40.36zM45.24 11.93C43.24 11.12 41.43 12.73 39.52 13.38 37.61 14.03 35.52 14.16 33.77 15.05 31.13 16.39 31.21 21.81 33.96 22.99 36.22 23.99 38.83 23.4 41.09 22.7 42.0896803 22.3761478 43.0626218 21.9749348 44 21.5 45.4435375 20.8421077 46.5357843 19.5969464 47 18.08 47.78 16.23 47.39 12.78 45.24 11.93zM34.19 23.76C32.5 23.57 30.63 25.49 29.04 26.11 26.79 26.98 24.4 27.26 22.31 28.5 20.22 29.74 20.21 33.75 22.47 34.76 26.84 36.76 35.35 35.56 36.78 30.15 37.37 27.91 37.17 24.08 34.19 23.76zM19.91 34.48C17.58 33.72 15.79 36.14 13.76 37.05 11.73 37.96 8.89 37.76 7.46 39.44 6.25609792 40.8945509 6.13076143 42.9605815 7.15 44.55 8.99 47.23 12.51 46.76 15.27 45.94 18.52 44.99 21.39 43.03 21.92 39.51 22.17 37.91 21.76 35.08 19.91 34.48z" opacity=".5"/>
        <path id="Shape" fill="#3D454C" d="M44.08,39.6 L44.08,39.6 C39.79,38.38 35.16,39.5 33.54,42.17 C32.8941484,43.2174584 32.7864291,44.5100897 33.25,45.65 C33.95,47.45 35.94,48.98 38.56,49.72 C39.7073029,50.0518203 40.8956765,50.2201452 42.09,50.2200001 C45.16,50.2200001 47.92,49.1 49.09,47.16 C49.7358516,46.1125416 49.8435709,44.8199103 49.38,43.68 C48.69,41.87 46.7,40.35 44.08,39.6 Z M47.39,46.12 C46.25,47.99 42.46,48.76 39.11,47.8 C37.11,47.23 35.58,46.13 35.11,44.92 C34.8682456,44.3589752 34.9206993,43.7145436 35.25,43.2 C36.05,41.88 38.18,41.1099419 40.55,41.1099419 C41.5641874,41.1066914 42.5738913,41.2446842 43.55,41.52 L43.55,41.52 C45.55,42.09 47.08,43.2 47.55,44.41 C47.7858743,44.9709077 47.7258343,45.6125855 47.39,46.12 L47.39,46.12 Z"/>
        <path id="Path" fill="#3D454C" d="M44.06 44.54C42.8027009 45.1174908 41.3730478 45.1961217 40.06 44.76 39.3732514 44.5870759 38.7297446 44.2738345 38.17 43.84 37.7419793 43.4892992 37.1107008 43.5519793 36.76 43.98 36.4092992 44.4080207 36.4719793 45.0392992 36.9 45.39 37.678156 45.9992395 38.5734043 46.4417576 39.53 46.69 40.3117897 46.90612 41.118893 47.0170967 41.93 47.02 43.0458015 47.0555227 44.1497315 46.7821357 45.12 46.23 45.4218894 46.0388629 45.5988763 45.7011889 45.5842915 45.3441764 45.5697066 44.987164 45.3657658 44.6650518 45.0492915 44.4991764 44.7328172 44.333301 44.3518894 44.3488629 44.05 44.54L44.06 44.54zM39.9 30.49C40.0481008 29.3106458 40.5825898 28.2135368 41.42 27.37L41.72 27.02C42.2744717 26.4288501 42.9191362 25.9293195 43.63 25.54 44.1 25.24 44.63 24.92 45.11 24.54 46.8714336 23.2837716 48.3724859 21.6978181 49.53 19.87 51.3 16.82 50 13 48.26 9.34L47.26 3.76 47.26 3.76 46.71 1C46.6439059.642734387 46.3922335.347868139 46.0497853.226474529 45.7073372.105080918 45.3261393.175602524 45.0497853.411474537 44.7734312.64734655 44.6439058 1.0127344 44.71 1.37L45.18 3.89C44.72 6 43.81 7.07 42.18 7.44 41.67 7.55 41.05 7.62 40.4 7.69 39.5033048 7.77399592 38.611943 7.90753328 37.73 8.09 37.1777153 8.15075134 36.7792487 8.64771526 36.84 9.2 36.9007513 9.75228474 37.3977153 10.1507513 37.95 10.09 38.0230085 10.0997619 38.0969915 10.0997619 38.17 10.09 38.9782527 9.91842603 39.7965555 9.79818563 40.62 9.73 41.2913392 9.66888155 41.95895 9.57207798 42.62 9.44 43.9068191 9.19537629 45.0574692 8.48289944 45.85 7.44L46.31 9.9C46.3275993 9.98274226 46.354434 10.0632466 46.39 10.14 48.46 14.53 48.86 17.08 47.79 18.92 46.7625908 20.5101981 45.4465956 21.8940281 43.91 23 43.45 23.34 42.98 23.63 42.55 23.91 41.6483166 24.41137 40.8370719 25.0603657 40.15 25.83L39.88 26.15C38.7769323 27.2930579 38.0750425 28.7635172 37.88 30.34 37.49 34.02 33.8 35.87 31.63 36.66 30.3971303 37.0660029 29.1416739 37.3999009 27.87 37.66 25.68 38.16 24.09 38.52 23.97 39.92 23.85 41.32 22.57 43.33 20.66 44.92 13.66 50.76 7.78 47.58 4.26 45.67L3.13 45C3.54393857 44.2019661 3.9112225 43.3805856 4.23 42.54 4.65651724 41.4193793 5.15419766 40.3271544 5.72 39.27 7.72 35.67 10.53 33.7 13.96 33.41L14.9 33.34C17.14 33.16 17.74 33.11 18.59 32.34 19.3189132 31.5731063 19.8088409 30.6106241 20 29.57 20.07 29.33 20.13 29.08 20.22 28.84 21.11 26.39 23.87 24.33 26.22 23.37 26.4025604 23.2979047 26.5896231 23.2377774 26.78 23.19 27.6072433 22.9835954 28.3701495 22.5746501 29 22 29.0701697 21.9356119 29.1307819 21.8615303 29.18 21.78 29.5384983 21.0789847 29.7366137 20.3070175 29.76 19.52 29.9067929 17.978182 30.3266659 16.474766 31 15.08 31.1325047 14.8250675 31.2899402 14.5838896 31.47 14.36 31.8124165 13.9264565 31.7385435 13.2974165 31.305 12.955 30.8714565 12.6125835 30.2424165 12.6864565 29.9 13.12 29.6243331 13.4579442 29.3893847 13.8271489 29.2 14.22 28.4419687 15.8278997 27.9779798 17.5585444 27.83 19.33 27.8016361 19.7770634 27.7245119 20.2196897 27.6 20.65 27.219796 20.9513326 26.7747512 21.1601613 26.3 21.26 26.05 21.34 25.79 21.41 25.53 21.52 22.99 22.52 19.61 24.92 18.43 28.15 18.32 28.45 18.24 28.74 18.16 29.04 18.0437524 29.7263867 17.7271469 30.3630769 17.25 30.87 16.94 31.17 16.92 31.2 14.79 31.37L13.85 31.44C9.77 31.78 6.38 34.15 4.03 38.31 3.41759013 39.4388718 2.88301234 40.6082607 2.43 41.81 2.08406377 42.8913028 1.55652378 43.9058028.87 44.81.502570212 45.0860164.370560783 45.5769264.55 46 .735721084 46.3742205 1.13450441 46.5935513 1.55 46.55 2.16185118 46.7620322 2.74867422 47.040354 3.3 47.38 5.3 48.45 8.5 50.19 12.4 50.19 15.9517253 50.1412624 19.3642299 48.8011434 22 46.42 23.1 45.5 25.66 43.08 26 40.24 26.7682996 39.9460169 27.5614993 39.721779 28.37 39.57 29.7248611 39.2908632 31.0608302 38.9268116 32.37 38.48 36.84 36.86 39.53 34 39.9 30.49z"/>
        <path id="Shape" fill="#3D454C" d="M47.17 16.31C47.2719788 15.0833478 46.7858727 13.8810702 45.86 13.07 44.42 11.78 41.95 11.31 39.28 11.83 34.89 12.67 31.28 15.76 31.03 18.83 30.9280212 20.0566522 31.4141273 21.2589298 32.34 22.07 33.6108984 23.0825934 35.2069033 23.598007 36.83 23.52 37.5317705 23.5168291 38.2316271 23.4465086 38.92 23.31 43.31 22.51 46.93 19.42 47.17 16.31zM33.67 20.62C33.1841735 20.2302229 32.9314133 19.6190715 33 19 33.16 16.82 36.2 14.42 39.63 13.76 40.1970085 13.6514071 40.7727039 13.594507 41.35 13.59 42.4780094 13.5219484 43.5937561 13.8549014 44.5 14.53 44.9668088 14.9232307 45.2068404 15.5233097 45.14 16.13 44.98 18.3 41.94 20.7 38.51 21.36 36.51 21.78 34.64 21.49 33.67 20.62L33.67 20.62zM14.63 35C10.24 35.84 6.63 38.94 6.38 42 6.27392273 43.225208 6.75648445 44.4279003 7.68 45.24 8.95447003 46.2449492 10.5487718 46.756262 12.17 46.68 12.871491 46.6809906 13.5714278 46.614011 14.26 46.48 18.65 45.64 22.26 42.54 22.51 39.48 22.6177136 38.251641 22.1351436 37.0452161 21.21 36.23 19.76 34.94 17.3 34.48 14.63 35zM13.89 44.56C11.89 44.96 9.98 44.66 9.02 43.8 8.55386125 43.4056751 8.31093013 42.8076909 8.37 42.2 8.54 40 11.58 37.62 15 37 17 36.6 18.9 36.9 19.87 37.76 20.3361387 38.1543249 20.5790699 38.7523091 20.52 39.36 20.35 41.5 17.31 43.9 13.89 44.55L13.89 44.56zM26.51 36.22C27.5262436 36.2125593 28.536298 36.0610512 29.51 35.77 33.79 34.5 37.09 31.07 37 28 36.9909336 26.7660283 36.3878694 25.6120166 35.38 24.9 33.82 23.76 31.38 23.54 28.71 24.31 24.43 25.58 21.13 29.01 21.19 32.13 21.2119348 33.3607261 21.8121427 34.5092721 22.81 35.23 23.909332 35.9390894 25.2034521 36.285354 26.51 36.22zM29.3 26.22C31.3 25.63 33.18 25.74 34.22 26.5 34.7053493 26.8461174 34.9953941 27.403896 35 28 35 30.19 32.26 32.87 28.91 33.86 26.91 34.45 25.04 34.34 23.99 33.57 23.493633 33.2176032 23.1961716 32.6487082 23.1898946 32.04 23.17 29.85 26 27.17 29.3 26.18L29.3 26.22z"/>
        <path id="Path" fill="#3D454C" d="M34.61,10.87 L34.61,10.67 C34.61,10.1177153 34.1622847,9.67 33.61,9.67 C33.0577153,9.67 32.61,10.1177153 32.61,10.67 L32.61,10.87 C32.61,11.4222847 33.0577153,11.87 33.61,11.87 C34.1622847,11.87 34.61,11.4222847 34.61,10.87 Z"/>
      </g>
    </g>
  </g>
</svg>
