<svg xmlns="http://www.w3.org/2000/svg" width="64" height="64" viewBox="0 0 64 64" style="background:#fff">
  <g id="Sojaöl" fill="none" fill-rule="evenodd" stroke="none" stroke-width="1">
    <rect width="64" height="64" fill="#FFF"/>
    <g transform="translate(2 3)">
      <g id="Layer_2">
        <rect id="Rectangle" width="60" height="60" x="0" y="0"/>
        <rect id="Rectangle" width="60" height="60" x="0" y="0"/>
      </g>
      <g id="Layer_1" fill-rule="nonzero" transform="translate(10)">
        <path id="Path" fill="#E0A075" d="M36.53 30.42C36.27 29.81 35.53 28.77 34.75 28.94 34.2739232 28.9828356 33.8197211 29.1596624 33.44 29.45 33.23 29.63 33.06 29.84 32.87 30.03 32.45 30.46 32.01 30.88 31.61 31.32 30.6538104 32.3772972 29.8647123 33.5744333 29.27 34.87 28.68 36.14 29.36 38.76 31.1 38.3 32.1798298 37.9682177 33.1710369 37.3974191 34 36.63 35.1240198 35.8294365 36.0340459 34.7648777 36.65 33.53 37.0016922 32.5150063 36.9588576 31.404876 36.53 30.42L36.53 30.42zM26.62 40C26.0086651 39.2426879 25.0592034 38.8411369 24.09 38.93 22.81 38.85 21.59 38.59 20.31 38.63 18.31 38.71 18.15 42.2 19.15 43.36 20.0724206 44.5382335 21.3481287 45.3898738 22.79 45.79 23.5467806 46.0245749 24.33852 46.12608 25.13 46.09 26.2752368 45.8206051 27.1372399 44.8751824 27.3 43.71 27.6247971 42.4333287 27.3764704 41.0784875 26.62 40L26.62 40zM38.45 38.91C37.9611783 38.4657463 37.2592724 38.3448625 36.65 38.6 35.7045656 39.2030387 34.8023735 39.8713291 33.95 40.6 32.9467896 41.2138737 32.0900808 42.0398638 31.44 43.02 30.64 44.5 30.74 46.82 32.37 47.69 34 48.56 36.14 47.15 37.44 46.18 38.3328746 45.5732114 39.028227 44.7179281 39.44 43.72 40 42.22 39.78 40 38.45 38.91zM32.77 52C32.3025401 51.2678893 31.5535142 50.7613017 30.7 50.6 29.8259895 50.5146698 28.9481495 50.4746163 28.07 50.48 26.49 50.48 24.66 50.24 23.23 51.02 21.8 51.8 21.43 55.02 22.91 56.11 24.3521179 56.9647705 25.9848168 57.445987 27.66 57.51 29.42 57.73 31.09 58.32 32.48 56.96 33.6815093 55.5601825 33.8001919 53.5303 32.77 52z" opacity=".5"/>
        <path id="Path" fill="#EBE53F" d="M11.42,28 C10.1,26.69 8.22,27.87 7.61,29.31 C5.22246218,31.4067202 3.78054495,34.3770697 3.61,37.55 C3.45,41 5.28,45 9,45.6 C12.72,46.2 15.55,43.32 16.2,39.8 C17.06,35.12 14.59,31.16 11.42,28 Z" opacity=".5"/>
        <path id="Shape" fill="#3D454C" d="M17.94,49.92 C17.88,52.85 18.26,55.34 14.76,56.68 C13.55,57.14 11.4,56.68 10.08,56.68 C8.76,56.68 6.86,57.06 5.6,56.68 C2.6,55.77 2.6,54.68 2.31,52.58 C1.78,48.84 2.31,44.64 2.31,40.86 L2.31,27.41 C2.31,23.95 1.73,20.91 4.19,18.06 C6.65,15.21 7.83,13.94 7.29,9.64 L7.29,9.58 L13.1,9.58 C12.9712875,10.3033718 12.8977424,11.0354805 12.88,11.77 C12.88,16.77 17.42,18.16 17.88,23.12 C18.2,26.75 17.88,30.55 17.88,34.19 C17.88,34.7422847 18.3277153,35.19 18.88,35.19 C19.4322847,35.19 19.88,34.7422847 19.88,34.19 C19.88,30.09 20.36,25.6 19.88,21.52 C19.55,18.84 18.28,17.67 16.51,15.79 C14.74,13.91 14.37,11.42 14.9,8.79 C14.76,9.53 15.63,7.91 15.65,7.79 C15.804888,6.75241514 15.804888,5.69758486 15.65,4.66 C15.35,2.31 14.38,1.15 12,0.71 C7.74,-0.08 4.46,1.37 4.49,5.93 C4.49,10.06 6.81,12.57 3.01,16.41 C0.06,19.41 0.29,22.07 0.29,25.93 L0.29,43.71 C0.29,47.16 -0.3,51.19 0.29,54.59 C1.29,59.93 7.9,58.68 11.93,58.68 C14.32,58.68 17.07,58.94 18.79,56.91 C20.31,55.11 19.79,52.09 19.88,49.91 C19.7662271,49.4656661 19.3647608,49.1556993 18.9060983,49.1580635 C18.4474357,49.1604278 18.0491862,49.4745168 17.94,49.92 Z M10.52,2.68 C13.46,3.18 13.66,5.27 13.38,7.58 L7,7.58 C6.52,5 6.36,2 10.52,2.68 Z"/>
        <path id="Shape" fill="#3D454C" d="M11.23 29.31L11.18 29.25C11.18 29.25 11.18 29.25 11.18 29.25 11.1771281 29.2301031 11.1771281 29.2098969 11.18 29.19 10.9850019 28.9494575 10.6895697 28.8128201 10.38 28.82 10.071568 28.8045179 9.77556801 28.9431508 9.59 29.19L9.54 29.25C9.54 29.25 9.54 29.25 9.54 29.25L9.54 29.31 9.54 29.31C7.79 31.99 5.48 35.21 5.03 38.44 4.80703931 40.0213601 5.24945492 41.6244038 6.25193899 42.8675599 7.25442307 44.1107159 8.72730649 44.8827879 10.32 45 11.916644 44.925032 13.4103429 44.1899763 14.4438387 42.9706409 15.4773344 41.7513055 15.9576844 40.1573459 15.77 38.57 15.39 35.32 13 32 11.24 29.33L11.23 29.31zM10.32 43C5.83 43 6.87 38 8.12 35.48 8.78 34.15 9.53 32.86 10.31 31.6 11.04 32.77 11.74 33.94 12.36 35.16 13.65 37.69 15 43 10.32 43zM34.23 49C33.5320213 48.9933055 32.8459544 48.8183585 32.23 48.49 31.0622765 47.9397882 30.2318524 46.8598644 30 45.59 29.66 43.37 31.45 40.59 34.05 39.36L34.05 39.36C35.2728197 38.6715996 36.7381776 38.5616978 38.05 39.06 39.0089812 39.4683062 39.7277009 40.2939124 40 41.3 40.8 44.19 39.32 47.02 36.24 48.52 35.6155607 48.8317088 34.9279042 48.9959253 34.23 49L34.23 49zM35 41.16C33 42.16 31.87 44.1 32.05 45.29 32.1744164 45.9068842 32.5819232 46.4292339 33.15 46.7 33.8446796 47.0662629 34.6753204 47.0662629 35.37 46.7 37.1 45.86 38.72 44.13 38.08 41.81 37.987453 41.3927267 37.7067807 41.0418864 37.32 40.86 36.5416214 40.6238363 35.6998418 40.7254304 35 41.14L35 41.16zM30.29 39.28C29.6756126 39.2876718 29.0684402 39.1470273 28.52 38.87 27.6486424 38.4161956 27.0546977 37.5645014 26.93 36.59 26.6596087 33.7461308 28.0797913 31.0074867 30.56 29.59 31.8902938 28.9048358 33.4697062 28.9048358 34.8 29.59 35.8947749 30.1317585 36.6695206 31.1585746 36.89 32.36 37.23 34.58 35.45 37.36 32.89 38.58 32.0875574 39.0072957 31.1985064 39.2466555 30.29 39.28zM32.63 31.12C32.2139291 31.1210121 31.8035526 31.2167666 31.43 31.4 29.7637508 32.4509107 28.7989106 34.3231602 28.91 36.29 28.9375576 36.6353045 29.1418565 36.9417528 29.45 37.1 30.2961037 37.3990961 31.2316721 37.3037048 32 36.84 34 35.84 35.13 33.9 34.95 32.71 34.8332143 32.1488988 34.4642764 31.6729689 33.95 31.42 33.542613 31.2095346 33.088336 31.1062898 32.63 31.12L32.63 31.12zM27.68 58C27.0428236 58.0016682 26.409036 57.9072743 25.8 57.72 24.1521607 57.2181861 22.8299697 55.9809403 22.22 54.37 21.7806323 53.3119422 21.8620492 52.1091931 22.44 51.12 23.64 49.25 27.01 47.89 30.12 48.86L30.12 48.86C31.7735918 49.3328773 33.1189037 50.5381293 33.77 52.13 34.1643645 53.1134789 34.0717077 54.2253605 33.52 55.13 32.1329984 56.9518424 29.9696853 58.0149774 27.68 58L27.68 58zM28 50.54C26.5290676 50.4841596 25.1112378 51.0938999 24.14 52.2 23.9193939 52.6721698 23.9193939 53.2178302 24.14 53.69 24.5460343 54.7085261 25.3918307 55.4881298 26.44 55.81 28.4390202 56.3225492 30.554757 55.6419353 31.88 54.06 32.0924244 53.6750875 32.1145811 53.2134888 31.94 52.81 31.486559 51.8241918 30.6180124 51.0912411 29.57 50.81 29.0639592 50.6386371 28.5342151 50.5475346 28 50.54zM23.45 47.0000273C21.6670462 47.0053713 19.9740591 46.2175093 18.83 44.85 17.6182835 43.4872393 17.0920826 41.647376 17.4 39.85 17.5791058 38.8601464 18.2173884 38.0140509 19.12 37.57 21.6633925 36.3958328 24.6758966 37.0300442 26.53 39.13L26.53 39.13C27.6847547 40.4696942 28.1701572 42.2605351 27.85 44 27.6628697 45.064067 26.9740459 45.9725698 26 46.44 25.1999732 46.8073105 24.3303164 46.9982939 23.45 47.0000273zM21.82 39C21.1812731 38.9953874 20.5483356 39.1212943 19.96 39.37 19.6310348 39.5623248 19.4067793 39.8931936 19.35 40.27 19.1618608 41.7662136 19.7922476 43.2481133 21.0006277 44.1502601 22.2090079 45.052407 23.8089597 45.2356231 25.19 44.63 25.5736187 44.4009839 25.8342242 44.0119109 25.9 43.57 26.0870954 42.4351102 25.7569719 41.2760099 25 40.41L25 40.41C24.2105504 39.4795643 23.0395778 38.9603594 21.82 39L21.82 39z"/>
      </g>
    </g>
  </g>
</svg>
