<svg xmlns="http://www.w3.org/2000/svg" width="64" height="64" viewBox="0 0 64 64" style="background:#fff">
  <g id="Sojamilch" fill="none" fill-rule="evenodd" stroke="none" stroke-width="1">
    <rect width="64" height="64" fill="#FFF"/>
    <g transform="translate(2 4)">
      <g id="Layer_2">
        <rect id="Rectangle" width="60" height="60" x="0" y="0"/>
        <rect id="Rectangle" width="60" height="60" x="0" y="0"/>
      </g>
      <g id="Layer_1" fill-rule="nonzero" transform="translate(5 3)">
        <path id="Path" fill="#E0A075" d="M8.78 35.4C7.9 34.81 6.64 34.4 5.88 33.94 5.16104825 33.314456 4.39177938 32.7492106 3.58 32.25 2.17 31.64 1.38 33.83 1.48 34.82 1.67042 36.6749042 2.52661434 38.3979509 3.89 39.67 4.81 40.58 6.51 41.67 7.89 41.43 9.01811547 41.1603178 9.83290529 40.1784961 9.89 39.02 10 37.88 9.83 36.12 8.78 35.4zM20 26.82C19.63 25.93 18.69 24.95 17.64 25.43 16.6998813 26.0189204 15.7980702 26.6668883 14.94 27.37 13.94 27.98 12.94 28.51 11.94 29.04 10.27 29.91 10.46 33.5 12.48 33.77 15.3067939 34.113523 18.1007514 32.9150221 19.8 30.63 20.4482795 29.4581185 20.5220225 28.0533147 20 26.82L20 26.82zM20.9 37.9C20.76 37.06 20.07 35.75 19.05 35.83 17.67 35.93 17.37 37.4 16.49 38.08 15.5995475 38.6335122 14.6417183 39.0704167 13.64 39.38 11.92 40.11 12.36 43.25 13.75 44.02 15.1800814 44.6856684 16.8579143 44.5289688 18.14 43.61 20.166205 42.4736113 21.268202 40.1937553 20.9 37.9zM13.08 44.65C11.75 44.11 10.53 45.11 9.18 45.22 7.93150987 45.1889488 6.68352774 45.2996569 5.46 45.55 4.17 45.97 4.06 48.37 4.55 49.33 5.41666892 51.2284288 7.27503337 52.4802169 9.36 52.57 10.2578956 52.5758383 11.1503673 52.4304736 12 52.14 13.2071448 51.7754397 14.1502423 50.8285848 14.51 49.62 15.15 48.12 14.79 45.35 13.08 44.65z" opacity=".5"/>
        <path id="Path" fill="#CCC" d="M48.27,46.4 C48.12,41.18 48.16,35.96 48.06,30.74 C48,27.9 48.06,24.19 45.55,22.48 C43.04,20.77 39.69,23 37.45,24 C33.4,25.62 29.03,27 25.61,29.95 C24.09,31.27 24.12,34.95 25.54,36.53 C24.9228415,38.5640073 23.37451,40.1828863 21.37,40.89 C17.55,42.56 17.97,52.99 22.6,52.89 C30.01,52.8 37.6,53.17 44.96,52.32 C47.42,52 48.34,48.73 48.27,46.4 Z" opacity=".5"/>
        <circle id="Oval" cx="46.62" cy="16.34" r="1" fill="#3D454C"/>
        <path id="Shape" fill="#3D454C" d="M47.91,20.63 C47.91,20.0777153 47.4622847,19.63 46.91,19.63 C46.3577153,19.63 45.91,20.0777153 45.91,20.63 L45.91,50.82 L39.91,50.82 L39.91,15.24 C39.909706,14.8872752 40.0065831,14.5412857 40.19,14.24 L42.9,9.74 L44.65,12.61 C44.9174413,13.0875426 45.5190995,13.2613549 46,13 C46.2291251,12.8630191 46.3939699,12.6401133 46.4578305,12.3809147 C46.521691,12.1217162 46.4792653,11.8477438 46.34,11.62 L43.88,7.62 L43.88,3.94 C43.8826577,3.11344545 43.5561716,2.31983334 42.9726452,1.7344306 C42.3891187,1.14902786 41.5965588,0.82 40.77,0.82 L24.77,0.82 C23.0546732,0.825489088 21.6654891,2.21467323 21.66,3.93 L21.66,7.54 L18.45,12.86 C17.9402637,13.7013931 17.67052,14.6662454 17.67,15.65 L17.67,23.32 C17.67,23.8722847 18.1177153,24.32 18.67,24.32 C19.2222847,24.32 19.67,23.8722847 19.67,23.32 L19.67,15.65 C19.6650758,15.5767493 19.6650758,15.5032507 19.67,15.43 L37.93,15.43 L37.93,50.82 L19.66,50.82 L19.61,48.05 C19.61,47.4977153 19.1622847,47.05 18.61,47.05 C18.0577153,47.05 17.61,47.4977153 17.61,48.05 L17.68,51.8 C17.6871024,51.8719375 17.7039222,51.9425805 17.73,52.01 C17.7251746,52.0665639 17.7251746,52.1234361 17.73,52.18 C17.73,52.24 17.81,52.29 17.84,52.34 C17.87,52.39 17.91,52.45 17.95,52.49 C18.0023394,52.535803 18.0593145,52.5760207 18.12,52.61 C18.1643269,52.6434924 18.2111275,52.6735785 18.26,52.7 C18.3833241,52.7525365 18.515952,52.78 18.65,52.78 L46.91,52.78 C47.4622847,52.78 47.91,52.3322847 47.91,51.78 C47.9146835,51.7501828 47.9146835,51.7198172 47.91,51.69 C47.9135127,51.656775 47.9135127,51.623225 47.91,51.59 L47.91,20.63 Z M23.67,3.93 C23.67,3.31696393 24.1669639,2.82 24.78,2.82 L40.78,2.82 C41.392387,2.83081725 41.8846753,3.32754057 41.89,3.94 L41.89,6.82 L23.67,6.82 L23.67,3.93 Z M23.24,8.82 L41.15,8.82 L38.5,13.21 C38.4574117,13.28022 38.420623,13.3537974 38.39,13.43 L20.45,13.43 L23.24,8.82 Z"/>
        <path id="Shape" fill="#3D454C" d="M16.67 45.4600254C15.762418 45.4631146 14.8770145 45.1796455 14.14 44.65 13.0927216 43.9391639 12.443678 42.7745942 12.39 41.51 12.34 39.26 14.47 36.78 17.22 35.87L17.22 35.87C18.5217902 35.3516822 19.9861997 35.4358857 21.22 36.1 22.0820296 36.6434732 22.651845 37.5478253 22.77 38.56 23.19 41.56 21.35 44.14 18.1 45.22 17.6390188 45.3750962 17.1563571 45.4561023 16.67 45.4600254zM17.85 37.77C15.78 38.46 14.36 40.27 14.39 41.47 14.4371287 42.0943239 14.7739046 42.6605517 15.3 43 15.9402074 43.4536036 16.7617157 43.5656274 17.5 43.3 19.32 42.7 21.15 41.2 20.82 38.82 20.7817776 38.3945635 20.5540728 38.0089344 20.2 37.77 19.452027 37.4371401 18.597973 37.4371401 17.85 37.77L17.85 37.77zM14.1 35.33C13.2682607 35.3522205 12.4502932 35.1145206 11.76 34.65 10.9543015 34.0862118 10.4760611 33.1633573 10.4799759 32.18 10.5918145 29.3273899 12.358417 26.8025553 15 25.72L15 25.72C16.4141993 25.2454261 17.9698176 25.4719004 19.19 26.33 20.1961279 27.010471 20.8310731 28.1179337 20.91 29.33 20.91 31.58 18.82 34.06 16.07 34.97 15.4359556 35.1913584 14.7713541 35.3128084 14.1 35.33zM15.63 27.62C13.8382869 28.4442728 12.6330282 30.1737233 12.48 32.14 12.4657939 32.486697 12.6323266 32.8159777 12.92 33.01 13.7053568 33.4137733 14.6306139 33.4431466 15.44 33.09 17.51 32.4 18.93 30.59 18.91 29.39 18.8360448 28.8115704 18.5005668 28.2991371 18 28 17.2991173 27.5040061 16.4030173 27.3738671 15.59 27.65L15.63 27.62zM9.36 53.56C8.40677076 53.5787428 7.461089 53.387558 6.59 53 5.02128606 52.2878351 3.87224283 50.8875541 3.48 49.21 3.18074011 48.0972906 3.4214341 46.9086325 4.13 46 5.57 44.3 9.13 43.4 12.03 44.77 13.612077 45.4517828 14.7923073 46.8238005 15.23 48.49 15.4892409 49.5208366 15.2484683 50.6135739 14.58 51.44 13.205497 52.8343244 11.3174752 53.6011072 9.36 53.56zM9 46.1C7.78599536 46.0451925 6.59962703 46.4730041 5.7 47.29 5.40300277 47.7192181 5.31830027 48.2605776 5.47 48.76 5.73535708 49.8257417 6.47144193 50.7127239 7.47 51.17 9.38082204 51.9349609 11.560336 51.547147 13.09 50.17 13.3494743 49.8160294 13.4306887 49.3619672 13.31 48.94 13.0112186 47.8828352 12.2448445 47.0206643 11.23 46.6 10.5328322 46.2703465 9.77117708 46.0995718 9 46.1L9 46.1zM6.51 42.1C4.55097218 42.0938444 2.7104914 41.1606955 1.54772009 39.5840564.384948771 38.0074174.0371538412 35.9734127.61 34.1.924443711 33.1555343 1.66553432 32.4144437 2.61 32.1 5.28313428 31.2685606 8.1851666 32.2887429 9.75 34.61L9.75 34.61C10.7215839 36.0882388 10.968128 37.9281198 10.42 39.61 10.1001066 40.6301939 9.31246104 41.436416 8.3 41.78 7.7226721 41.9754987 7.11930326 42.0833635 6.51 42.1L6.51 42.1zM4.45 33.86C4.03196156 33.8435926 3.61385674 33.890798 3.21 34 2.85757615 34.1440205 2.5917086 34.4431215 2.49 34.81 2.09865204 36.2677326 2.52557248 37.8231527 3.60624142 38.8768567 4.68691035 39.9305608 6.25261936 40.3180501 7.7 39.89 8.12186403 39.7048827 8.43526437 39.3361764 8.55 38.89 8.88087909 37.7858859 8.70507568 36.5918877 8.07 35.63L8.07 35.63C7.24361965 34.4618795 5.87939295 33.7948405 4.45 33.86z"/>
      </g>
    </g>
  </g>
</svg>
