<svg xmlns="http://www.w3.org/2000/svg" width="64" height="64" viewBox="0 0 64 64" style="background:#fff">
  <g id="Sojasauce" fill="none" fill-rule="evenodd" stroke="none" stroke-width="1">
    <rect width="64" height="64" fill="#FFF"/>
    <g transform="translate(2 5)">
      <g id="Layer_2">
        <rect id="Rectangle" width="60" height="60" x="0" y="0"/>
        <rect id="Rectangle" width="60" height="60" x="0" y="0"/>
      </g>
      <g id="Layer_1" fill-rule="nonzero" transform="translate(4 3)">
        <path id="Path" fill="#483318" d="M28.77,33.37 C27.77,29.88 26.35,25.04 23.31,22.74 C20.27,20.44 15,20.85 10.91,21 C9.91,19.77 8.6,19.29 7.6,21.24 L7.53,21.37 C6.68649603,21.9544019 6.0605149,22.8019381 5.75,23.78 C5.5,24.55 5.16,25.45 4.75,26.44 C1.69,32.08 -1,38.07 1.42,44.64 C4.21,52.07 13.42,54.7 20.63,53.09 C29.46,51.13 30.87,40.78 28.77,33.37 Z" opacity=".5"/>
        <path id="Path" fill="#483318" d="M47.62,36.56 C42.31,35.56 35.84,35.36 30.7,37.23 C28.89,37.89 29.16,42.23 31.27,42.23 C33.93,42.23 36.58,41.77 39.27,41.76 C41.9449323,41.8211678 44.6150351,42.0180878 47.27,42.35 C49.62,42.6 49.77,37 47.62,36.56 Z" opacity=".5"/>
        <path id="Shape" fill="#3D454C" d="M51.22,37.83 C51.22,33.99 43.8,31.92 36.82,31.92 C34.1246654,31.9002758 31.4373511,32.2160352 28.82,32.86 C27.9369985,30.141578 26.9122624,27.4712557 25.75,24.86 C23.9634985,20.7019353 22.8463454,16.2873244 22.44,11.78 C22.5407694,11.6402203 22.6310177,11.4931491 22.71,11.34 L25.4,5.86 C25.595254,5.50443443 25.6983891,5.10564568 25.7,4.7 C25.7,1.79 20.62,0.27 15.6,0.27 C10.58,0.27 5.51,1.79 5.51,4.7 C5.51,7.61 10.59,9.13 15.6,9.13 C17.7693557,9.15316363 19.9289243,8.83597699 22,8.19 L20.89,10.45 C20.49,11.3 18.65,12.22 15.57,12.22 C12.32,12.22 10.65,11.22 10.17,10.33 C10.0873194,10.1699466 9.96293821,10.0352003 9.81,9.94 C9.28199036,9.60376734 8.774429,9.23645319 8.29,8.84 C7.86750217,8.48377634 7.23622366,8.53750217 6.88,8.96 C6.52377634,9.38249783 6.57750217,10.0137763 7,10.37 C7.48667861,10.7772614 7.9976172,11.1546213 8.53,11.5 C8.53,11.58 8.66,11.66 8.72,11.74 C8.33093844,16.2491126 7.22714941,20.6676442 5.45,24.83 C3.27,29.72 -1.38,41.35 1.64,45.51 C1.83657359,47.0510092 2.5401793,48.4828468 3.64,49.58 C6,52 10.05,53.22 15.6,53.22 C21.15,53.22 25.24,52 27.6,49.59 C28.3496344,48.8285638 28.9201321,47.9096184 29.27,46.9 C31.6331526,48.025871 34.23431,48.5612016 36.85,48.46 C44.78,48.46 51.23,43.71 51.23,37.88 L51.23,37.83 L51.22,37.83 Z M30.27,38.74 C32.4744451,38.2179689 34.7347936,37.9694313 37,38 C41.66,38 45.12,38.93 46.91,40 C43.699628,41.301865 40.2525994,41.918379 36.79,41.81 C34.6750201,41.8149687 32.5647385,41.6106399 30.49,41.2 C30.4700968,40.3760965 30.3966082,39.5543608 30.27,38.74 L30.27,38.74 Z M36.82,33.92 C44.39,33.92 49.22,36.24 49.22,37.83 C49.190323,38.1921933 49.0219484,38.5289424 48.75,38.77 C46.54,37 42.1,36 37,36 C34.5994085,35.9823061 32.205448,36.2542707 29.87,36.81 C29.72,36.15 29.55,35.48 29.37,34.81 C31.8079097,34.2115264 34.3097171,33.9126528 36.82,33.92 L36.82,33.92 Z M15.6,7.13 C10.6,7.13 7.51,5.56 7.51,4.7 C7.51,3.84 10.58,2.27 15.6,2.27 C20.62,2.27 23.7,3.85 23.7,4.7 C23.7094286,4.74619043 23.7094286,4.79380957 23.7,4.84 L23.61,5 C23.08,5.85 20.14,7.13 15.6,7.13 Z M20.6,13.25 C20.69,13.97 20.82,14.9 21.01,15.97 C19.3244831,15.3304877 17.5324802,15.0182448 15.73,15.05 C13.8371716,14.9949953 11.9536934,15.3355881 10.2,16.05 C10.41,14.91 10.54,13.95 10.63,13.2 C12.1997856,13.9065741 13.9092079,14.2484585 15.63,14.2 C17.3331952,14.2534219 19.0270848,13.9289874 20.59,13.25 L20.6,13.25 Z M15.73,17.05 C19.46,17.05 21.48,18.25 21.48,18.74 C21.48,19.23 19.48,20.44 15.73,20.44 C11.98,20.44 10,19.24 10,18.74 C10,18.24 12,17.05 15.72,17.05 L15.73,17.05 Z M27.57,45.28 C27.4733578,46.3852581 26.9753378,47.4168708 26.17,48.18 C24.83,49.56 21.9,51.18 15.6,51.18 C3.77,51.18 3.6,45.35 3.6,45.11 C3.60438947,44.855278 3.51139481,44.6084845 3.34,44.42 C1.55,42.42 3.13,34.86 7.26,25.61 C7.96201113,24.0136812 8.55992848,22.3735839 9.05,20.7 C10.48,21.82 13.1,22.4 15.7,22.4 C17.9582191,22.4954907 20.1974952,21.9512703 22.16,20.83 C22.6442047,22.4578964 23.2286543,24.0542787 23.91,25.61 C28,34.76 29.6,42.61 27.8,44.61 C27.6501879,44.8011237 27.5691605,45.03716 27.57,45.28 L27.57,45.28 Z M36.84,46.46 C34.4435872,46.5686285 32.0588965,46.0662262 29.91,45 C30.1715228,44.4192854 30.3434774,43.802272 30.42,43.17 C32.5301485,43.5666627 34.6728972,43.7641974 36.82,43.76 C40.6228351,43.8507063 44.4029442,43.1491725 47.92,41.7 C45.89,44.51 41.69,46.46 36.84,46.46 Z"/>
      </g>
    </g>
  </g>
</svg>
