<svg xmlns="http://www.w3.org/2000/svg" width="64" height="64" viewBox="0 0 64 64" style="background:#fff">
  <g id="Sojamehl" fill="none" fill-rule="evenodd" stroke="none" stroke-width="1">
    <rect width="64" height="64" fill="#FFF"/>
    <g transform="translate(2 4)">
      <g id="Layer_2">
        <rect id="Rectangle" width="60" height="60" x="0" y="0"/>
        <rect id="Rectangle" width="60" height="60" x="0" y="0"/>
      </g>
      <g id="Layer_1" fill-rule="nonzero" transform="translate(10 4)">
        <path id="Path" fill="#E0A075" d="M30.42 24.16C29.67 23.16 28.23 22.52 27.24 23.61 26.8218659 24.0953595 26.4344455 24.6063537 26.08 25.14 26.46 24.6 25.93 25.28 25.86 25.35L25.34 25.83 24.81 26.29 24.59 26.46C24.0103913 26.8015156 23.4761749 27.2147773 23 27.69 22.1834404 28.6254097 21.817947 29.8717421 22 31.1 22.11 32.1 22.58 33.57 23.67 33.9 26.67 34.8 29.92 31.51 30.93 28.97 31.5197719 27.3749117 31.3311498 25.5959469 30.42 24.16L30.42 24.16zM26.3 37.4C25.13 37.28 24.3 38.28 23.52 38.98 22.8075642 39.5947422 22.0559849 40.1626022 21.27 40.68 20.27 41.33 19.32 41.83 18.87 43.02 18.27756 44.4158796 18.5253853 46.0267442 19.51 47.18 20.76 48.58 22.95 47.43 24.3 46.72 26.04 45.82 27.9 44.72 28.47 42.72 29.04 40.72 28.77 37.63 26.3 37.4zM17.25 33.1C16.4016119 32.046877 15.4162135 31.1119256 14.32 30.32 13.51 29.58 12.7 28.39 11.63 28.02 9.47 27.27 9.08 30.5 9.25 31.85 9.61106798 33.5488345 10.4148993 35.121998 11.58 36.41 12.1017203 37.0415819 12.6557955 37.6457241 13.24 38.22 13.8777343 38.9217437 14.7409792 39.3781314 15.68 39.51 16.85 39.7 17.68 37.97 17.86 37.16 18.2209386 35.7802197 18.0004637 34.3127962 17.25 33.1zM30.06 7.88C27.66 4.68 23.06 1.15 18.91.7 15.91.38 13.38 3.07 11.75 6.02 11.48 6.1 11.2 6.18 10.93 6.29 7.87 7.52 8.48 13.43 11.14 14.69 13.61 15.87 16.68 15.51 19.38 15.62 22.28 15.73 25.18 15.91 28.09 15.9 31.58 15.89 31.52 9.85 30.06 7.88z" opacity=".5"/>
        <path id="Shape" fill="#3D454C" d="M34.72,31.07 C34.8938433,30.4682646 35.0340601,29.8573198 35.14,29.24 C35.2774249,28.3901826 35.3476424,27.530854 35.35,26.67 C35.3475225,24.296632 34.807333,21.9546714 33.77,19.82 C34.8611932,19.3230035 35.5829828,18.2576883 35.64,17.06 C35.64,15.51 34.32,14.26 32.47,13.83 L26.3,5.31 C25.2610326,3.76343329 23.1989958,3.29060956 21.59,4.23 L21.46,4 C20.8032091,2.68609776 19.4979659,1.81992877 18.0321063,1.72522435 C16.5662466,1.63051994 15.160399,2.32153419 14.34,3.54 L7.27,13.73 C5.13,14 3.55,15.36 3.55,17.06 C3.61858976,18.3401256 4.4332838,19.4603299 5.63,19.92 C4.61723295,22.0261351 4.09092269,24.3330145 4.09,26.67 C4.09582939,27.5311102 4.16938962,28.3904275 4.31,29.24 C4.4063832,29.86248 4.54673436,30.4773518 4.73,31.08 C1.21247181,35.7336207 0.0763851302,41.7656119 1.66,47.38 C1.73593964,47.648829 1.92086399,47.873639 2.17,48 C7.66014266,50.5590002 13.664046,51.8247804 19.72,51.7 C25.782377,51.8246453 31.7927499,50.5589435 37.29,48 C37.539136,47.873639 37.7240604,47.648829 37.8,47.38 C38.2464496,45.7506704 38.475105,44.069381 38.4800499,42.38 C38.4894081,38.3015107 37.1694318,34.33105 34.72,31.07 Z M16,4.65 C16.4199444,4.01199892 17.1493547,3.64769501 17.9116806,3.69521126 C18.6740065,3.74272751 19.3525323,4.19478896 19.69,4.88 L20.4,6.31 C20.5610016,6.63079987 20.8815843,6.84070523 21.24,6.86 C21.5936662,6.88135822 21.9322305,6.71397813 22.13,6.42 C22.414887,6.00125528 22.8885341,5.75062477 23.395,5.75062477 C23.9014659,5.75062477 24.375113,6.00125528 24.66,6.42 L29.9,13.64 L9.75,13.64 L16,4.65 Z M8.07,15.65 L31.13,15.65 C32.57,15.65 33.64,16.38 33.64,17.04 C33.64,17.7 32.57,18.43 31.13,18.43 L8.06,18.43 C6.62,18.43 5.55,17.69 5.55,17.04 C5.55,16.39 6.62,15.67 8.06,15.67 L8.07,15.65 Z M36,46.42 C30.8797307,48.6946027 25.3215964,49.8144233 19.72,49.7 C14.1284518,49.8103377 8.58096532,48.6905989 3.47,46.42 C3.14371707,45.0849367 2.98582314,43.7142829 3,42.34 C2.99181547,38.5508437 4.26786926,34.8707328 6.62,31.9 C6.83240619,31.6315861 6.89276927,31.2731803 6.78,30.95 C6.5633028,30.2968477 6.39616236,29.628286 6.28,28.95 C6.15926839,28.2059566 6.09574898,27.4537531 6.09,26.7 C6.09076565,24.5240379 6.61556173,22.380263 7.62,20.45 C7.76,20.45 7.91,20.45 8.06,20.45 L31.13,20.45 C31.37,20.45 31.59,20.45 31.81,20.4 C33.1796659,23.0159329 33.6538856,26.0087861 33.16,28.92 C33.0484637,29.5992506 32.881233,30.2681736 32.66,30.92 C32.5499995,31.244866 32.6141656,31.6034413 32.83,31.87 C35.1942995,34.8359853 36.4812383,38.5169828 36.4802345,42.31 C36.487257,43.6943957 36.3260731,45.0745334 36,46.42 Z"/>
        <path id="Shape" fill="#3D454C" d="M27.44 38.1C26.0726113 37.2682483 24.3992297 37.1097562 22.9 37.67L22.9 37.67C20.04 38.52 17.84 40.85 17.9 42.98 17.910096 43.8706176 18.3448103 44.7028912 19.07 45.22 19.816675 45.7299821 20.7062547 45.989151 21.61 45.96 22.2881638 45.9540965 22.9618703 45.8496719 23.61 45.65 26.47 44.81 28.68 42.48 28.61 40.35 28.5966777 39.4574504 28.1630256 38.6235039 27.44 38.1zM23 43.74C22.0956539 44.106262 21.0763697 44.0587685 20.21 43.61 19.9896336 43.4537895 19.8590659 43.2001152 19.859995 42.93 19.859995 41.86 21.3 40.22 23.45 39.59 24.3533983 39.2182339 25.3750858 39.2658394 26.24 39.72 26.4601128 39.8718651 26.5910852 40.1225838 26.59 40.39 26.63 41.46 25.17 43.1 23 43.74zM18 31.7C16.73 29.01 14.08 27.2 12 27.55 11.1333762 27.7117341 10.3928887 28.2708021 10 29.06 9.38049917 30.5366362 9.48021258 32.2169919 10.27 33.61 11.43 36.07 13.73 37.8 15.72 37.8 15.9030159 37.815258 16.0869841 37.815258 16.27 37.8 17.1558963 37.6544245 17.9182623 37.0928769 18.32 36.29 18.9266946 34.7924909 18.8086186 33.098838 18 31.7zM16.49 35.33C16.3777501 35.5767919 16.1481441 35.7499374 15.88 35.79 14.83 35.97 12.98 34.79 12.03 32.79 11.5138709 31.954196 11.3931021 30.9331512 11.7 30 11.8197908 29.7551541 12.0509397 29.5836566 12.32 29.54L12.54 29.54C13.62 29.54 15.28 30.71 16.17 32.59 16.6649128 33.4158403 16.7744888 34.4166339 16.47 35.33L16.49 35.33zM27.66 23.63C26.070688 23.4449693 24.4846831 24.0019153 23.36 25.14 21.12 27.14 20.1 30.14 21.03 32.05 21.4118831 32.8556088 22.1545868 33.4312042 23.03 33.6 23.2532592 33.6491661 23.4814066 33.6726519 23.71 33.67 25.0668262 33.5933504 26.3512026 33.0327662 27.33 32.09 29.57 30.09 30.59 27.09 29.66 25.17 29.2782417 24.3661472 28.5347235 23.7936383 27.66 23.63zM26.02 30.63C25.3419255 31.3222305 24.3973293 31.6869395 23.43 31.63 23.1640879 31.5903203 22.9373558 31.4164923 22.83 31.17 22.36 30.17 23 28.1 24.68 26.63 25.3037592 26.0120633 26.1250422 25.6332818 27 25.56L27.28 25.56C27.5465735 25.605208 27.7722746 25.7820072 27.88 26.03 28.34 27 27.7 29.12 26 30.59L26.02 30.63z"/>
        <path id="Path" fill="#3D454C" d="M15.34 11.67C15.8922847 11.67 16.34 11.2222847 16.34 10.67 16.34 10.1177153 15.8922847 9.67 15.34 9.67 14.7877153 9.67 14.34 10.1177153 14.34 10.67 14.34 11.2222847 14.7877153 11.67 15.34 11.67zM18 8.47C18.5522847 8.47 19 8.02228475 19 7.47 19 6.91771525 18.5522847 6.47 18 6.47 17.4477153 6.47 17 6.91771525 17 7.47 17 8.02228475 17.4477153 8.47 18 8.47zM23.08 11.94C23.6322847 11.94 24.08 11.4922847 24.08 10.94 24.08 10.3877153 23.6322847 9.94 23.08 9.94 22.5277153 9.94 22.08 10.3877153 22.08 10.94 22.08 11.4922847 22.5277153 11.94 23.08 11.94z"/>
      </g>
    </g>
  </g>
</svg>
