<svg xmlns="http://www.w3.org/2000/svg" width="64" height="64" viewBox="0 0 64 64" style="background:#fff">
  <g id="Sonnenblumenkerne" fill="none" fill-rule="evenodd" stroke="none" stroke-width="1">
    <rect width="64" height="64" fill="#FFF"/>
    <g transform="translate(2 8)">
      <g id="Layer_2">
        <rect id="Rectangle" width="60" height="60" x="0" y="0"/>
        <rect id="Rectangle" width="60" height="60" x="0" y="0"/>
      </g>
      <g id="Layer_1" fill-rule="nonzero" transform="translate(4 7)">
        <path id="Path" fill="#4D4D4D" d="M35,12 C29.88,12.43 25.32,16.88 22,20.47 C18.22,24.47 14.24,29.26 13.81,34.99 C12.93,46.61 26.49,52.2 33.31,42.41 C35.31,39.48 33.39,30.58 28.82,34.06 C27.51,35.06 22.74,38.52 21.25,35.78 C20.52,34.43 24.74,29.78 25.48,28.93 C28.96,24.93 33.54,22.01 36.78,17.8 C37.8,16.38 37.48,11.77 35,12 Z" opacity=".5"/>
        <path id="Path" fill="#EBE53F" d="M20.91 4.68C20.97 3.23 20.52 1.79 19.26 1.56 12.93.42 5.55 4.67 2 9.85 1.38777878e-17 12.78-.69 16.85 1.12 20.06 2.75 23 5.78 23.23 8.79 23.2 16.07 23.14 19.62 18.52 21.21 11.85 21.69 9.85 22 6.74 20.91 4.68zM40.66 23C38.24 22.6 37.31 25.77 37.35 27.61 37.35 27.72 37.35 27.83 37.28 27.94 37.28 27.83 37.02 28.83 36.98 28.94 36.8828607 29.2736049 36.7233804 29.5857791 36.51 29.86 36.24 30.27 35.94 30.86 35.68 31.19 35.099265 32.2091365 34.9792828 33.4271384 35.35 34.54 35.58 35.24 36.26 36.54 37.23 36.37 37.9371677 36.3001197 38.620136 36.0747401 39.23 35.71 39.888912 35.3094743 40.4853002 34.8141689 41 34.24 42.2929396 32.6537677 43.0956567 30.7251616 43.31 28.69 43.61 26.76 43 23.39 40.66 23z" opacity=".5"/>
        <path id="Shape" fill="#3D454C" d="M49.18 24.71L49.18 24.66 49.18 24.55 49.18 24.55C49.1671812 24.5180183 49.1503821 24.4877799 49.13 24.46 48.42 23.11 47.03 22.7 45.82 22.34 43.3884974 21.8298389 40.9009486 21.6382304 38.42 21.77 38.42 21.49 38.47 21.24 38.48 21.01 38.84 16.51 38.04 13.83 36.14 12.86L35.98 12.77 35.98 12.77 35.98 12.77 35.9 12.77C34.601026 12.2627322 33.1481619 12.3281111 31.9 12.95 25.2 15.54 14.45 29.41 14 35.62 13.56 39.38 15.49 42.88 19.13 44.96 21.0475169 46.0510826 23.213821 46.6296821 25.42 46.6402794 26.8841562 46.6506303 28.334637 46.3578102 29.68 45.78L29.74 45.78C36 43.18 46.22 35.43 48.82 28.7 49.24 27.6 49.82 26.1 49.18 24.71zM37.86 25.91C38.2978538 25.9981012 38.7194848 26.1532614 39.11 26.37 40.2251908 26.9334284 41.4750453 27.1757824 42.72 27.07L43.48 27.07 43.25 27.32C41.84 28.89 41.66 29.59 41.56 30.43 41.5173943 30.9010995 41.3594076 31.3544526 41.1 31.75 40.77 32.31 38.64 33.81 35.99 35.27 36.8278986 32.19673 37.4527162 29.0693009 37.86 25.91L37.86 25.91zM20.14 43.22C17.14 41.52 15.65 38.83 16 35.8 16.29 31.71 22.81 22.14 28.57 17.24 24.474651 21.9751548 21.479517 27.5590136 19.8 33.59 19.7035383 33.9347613 19.798332 34.3047956 20.0486731 34.5607145 20.2990143 34.8166335 20.6668702 34.9195569 21.0136731 34.8307145 21.360476 34.7418722 21.6335383 34.4747613 21.73 34.13 23.7964892 26.6762038 27.961853 19.9734392 33.73 14.82L33.67 15.21C33.62 15.56 33.57 15.87 33.55 16 32.6815877 21.0939786 31.256378 26.0771825 29.3 30.86 26.79 37 24.17 40.66 22.09 41 21.5377153 41.03866 21.1213401 41.5177153 21.1600001 42.07 21.19866 42.6222847 21.6777153 43.0386599 22.23 43L22.37 43C29.13 42 34.78 22.15 35.56 16.26 35.56 16.14 35.63 15.85 35.68 15.52 35.68 15.42 35.68 15.31 35.68 15.2 36.21 16.02 36.6 17.64 36.35 20.83 35.72 28.88 33.75 38.96 30.1 43.24 27.57 45.12 23.47 45.12 20.14 43.22zM47 28C45.21 32.66 39.1 38 33.75 41.41 34.2885087 40.3041726 34.7561198 39.1652056 35.15 38 37.28 36.93 41.9 34.37 42.83 32.78 43.2251073 32.1468145 43.4712953 31.4321854 43.55 30.69 43.6 30.25 43.64 29.9 44.74 28.69 45.06 28.33 45.33 28.04 45.56 27.81 46.29 27.03 46.78 26.52 46.45 25.81 46.12 25.1 45.4 25 44.2 25L42.86 25C41.8861088 25.1404971 40.8923786 24.9945647 40 24.58 39.3980585 24.2700572 38.7548787 24.0478066 38.09 23.92L38.09 23.77C40.4774381 23.6093022 42.8756438 23.7707522 45.22 24.25 46.22 24.56 46.96 24.81 47.22 25.39L47.22 25.39C47.2343868 25.4180256 47.2511128 25.4447872 47.27 25.47L47.27 25.53C47.4768751 26.3592248 47.3811369 27.2350518 47 28zM18.11 18.75C22.11 13.88 22.05 7.35 20.24 1.62 20.1660888 1.34066767 19.9665414 1.11155762 19.7 1 19.3710893.778073804 18.931106.819976968 18.65 1.1L18.65 1.1 18.57 1.15C17.1 2.81 15 2.29 13 2.8 11.9148029 3.13175268 10.8984773 3.65685425 10 4.35 7.30823357 6.15591032 4.94148585 8.40432065 3 11 .37 14.88.08 20 4.79 22.3 9.5 24.6 15 22.54 18.11 18.75zM11.61 20.83C8.52 21.73 3.19 21.09 2.98 16.73 2.78 12.58 8.17 7.64 11.5 5.73 13.9 4.35 16.5 4.93 18.73 3.61 19.81 7.82 19.86 12.31 17.5 16.13 16.1843624 18.3702039 14.0863248 20.0443595 11.61 20.83L11.61 20.83z"/>
        <path id="Path" fill="#3D454C" d="M13.79,14 C12.9609516,16.2575638 10.8883647,17.8217803 8.49,18 C7.21,18.08 7.2,20.08 8.49,20 C11.778545,19.7906535 14.6242474,17.6376809 15.72,14.53 C16.16,13.27 14.22,12.75 13.79,14 Z"/>
      </g>
    </g>
  </g>
</svg>
