<svg xmlns="http://www.w3.org/2000/svg" width="64" height="64" viewBox="0 0 64 64" style="background:#fff">
  <g id="Sonnenblumenöl" fill="none" fill-rule="evenodd" stroke="none" stroke-width="1">
    <rect width="64" height="64" fill="#FFF"/>
    <g id="8-Sonnenblumenol" transform="translate(2 4)">
      <g id="Layer_2">
        <rect id="Rectangle" width="60" height="60" x="0" y="0"/>
      </g>
      <g id="Layer_1" transform="translate(11 2)">
        <path id="Path" fill="#EBE350" fill-opacity=".5" d="M6.2,28.19 C7.02641851,27.2111536 8.10560414,26.4778608 9.32,26.07 C10.6495802,25.6469231 12.0523986,25.5039173 13.44,25.65 C14.56,25.74 15.74,26 16.62,26.1 C18.303439,26.2149282 19.9643985,26.5511548 21.56,27.1 C22.4197775,27.4266858 23.1451302,28.0323201 23.62,28.82 C23.881301,29.390464 24.0921074,29.9827296 24.25,30.59 C24.82,32.32 25.03,34.17 25.43,35.93 C26.43,40.54 27.37,45.58 24.17,49.86 C19.72,55.79 7.33,56.48 2.53,50.18 C1.59768324,48.9255186 1.0457539,47.4294083 0.94,45.87 C0.79,44.22 1.06,42.48 1.06,40.98 C1.06,37.78 1.06,34.58 0.94,31.37 C0.87,29.59 2.7,28.11 5.02,28.06 C5.41590592,28.0464715 5.81201682,28.0800402 6.2,28.16 L6.2,28.19 Z"/>
        <path id="Path" fill="#3C454E" fill-opacity=".5" d="M36.63,34.26 C37.7320117,34.9682691 38.4073937,36.1802047 38.43,37.49 C38.5734056,40.9587088 36.3328646,44.078136 33,45.05 C30.8302829,45.7446873 28.4543181,45.1872199 26.82,43.6 C24.7718474,41.4568851 24.2732339,38.2657584 25.57,35.6 C26.0808781,34.5408027 26.7825991,33.5848348 27.64,32.78 C28.7382275,31.7291234 30.0772959,30.963451 31.54,30.55 C33.6131872,29.9188483 35.8068994,31.0804882 36.45,33.15 C36.5570134,33.5108275 36.6175028,33.8838455 36.63,34.26 Z"/>
        <path id="Shape" fill="#3D454C" fill-rule="nonzero" d="M20.54,47 C20.4903866,46.5209016 20.0866604,46.1568246 19.605,46.1568246 C19.1233396,46.1568246 18.7196134,46.5209016 18.67,47 L18.67,47 C18.62,49.73 18.97,52.05 15.72,53.3 C14.59,53.72 12.59,53.3 11.35,53.3 C10.11,53.3 8.35,53.65 7.17,53.3 C4.38,52.45 4.38,51.43 4.11,49.47 C3.62,45.99 4.11,42.02 4.11,38.55 L4.11,26.07 C4.11,22.84 3.58,20.01 5.86,17.36 C8.14,14.71 9.25,13.51 8.75,9.51 L14.15,9.51 C14.0399878,10.171405 13.9764987,10.8397113 13.96,11.51 C13.96,16.17 18.2,17.46 18.62,22.09 C18.91,25.47 18.62,29.01 18.62,32.4 C18.62,32.9136248 19.0363752,33.33 19.55,33.33 C20.0636248,33.33 20.48,32.9136248 20.48,32.4 C20.48,28.58 20.93,24.4 20.48,20.59 C20.2,18.05 19,17 17.37,15.21 C15.8081872,13.4217852 15.2451095,10.9705203 15.87,8.68 C15.74,9.37 16.55,7.86 16.57,7.75 C16.7051112,6.80815421 16.7051112,5.85184579 16.57,4.91 C16.29,2.68 15.38,1.6 13.18,1.18 C9.18,0.45 6.18,1.8 6.18,6.05 C6.18,9.89 8.34,12.23 4.8,15.81 C2.05,18.61 2.26,21.09 2.26,24.68 L2.26,41.25 C2.26,44.46 1.71,48.25 2.26,51.39 C3.19,56.39 9.35,55.2 13.12,55.2 C15.34,55.2 17.9,55.44 19.5,53.55 C20.94,51.87 20.45,49.06 20.54,47 Z M11.8,3 C14.56,3.47 14.72,5.43 14.46,7.6 L8.46,7.6 C8.07,5.14 7.92,2.35 11.8,3 Z"/>
        <path id="Shape" fill="#3D454C" fill-rule="nonzero" d="M12.45,27.79 C12.3817117,27.6867208 12.2932792,27.5982883 12.19,27.53 L12.07,27.47 C11.9907714,27.429633 11.9067784,27.3993955 11.82,27.38 L11.74,27.38 C11.5647521,27.3548389 11.3860502,27.3863745 11.23,27.47 C10.975261,27.566442 10.7771181,27.7719235 10.69,28.03 C9.07,30.49 6.99,33.42 6.59,36.37 C6.55346398,36.6182778 6.53674453,36.8690695 6.54,37.12 C6.54675835,39.9830808 8.7907766,42.3412761 11.65,42.49 C14.5053799,42.3414935 16.7479451,39.9892137 16.76,37.13 C16.76,36.9166667 16.76,36.7066667 16.76,36.5 C16.39,33.42 14.14,30.32 12.49,27.79 L12.45,27.79 Z M11.65,40.62 C7.46,40.62 8.43,35.96 9.65,33.62 C10.27,32.4 10.96,31.22 11.65,30.06 C12.31,31.13 12.95,32.22 13.53,33.33 C14.72,35.65 16,40.62 11.65,40.62 Z"/>
        <path id="Shape" fill="#3C454E" d="M43.83,38.15 C43.67447,37.8891486 43.4583699,37.6696184 43.2,37.51 C42.813446,37.2812328 42.4126241,37.0774817 42,36.9 C41.3342009,36.518682 40.626047,36.2166258 39.89,36 C40.6224621,35.2059565 41.1840615,34.2699576 41.54,33.25 C41.7459115,32.6030464 41.8537744,31.9289033 41.86,31.25 C41.8565146,30.813574 41.6928108,30.3936382 41.4,30.07 C41.1621602,29.883791 40.8852316,29.7538738 40.59,29.69 C39.1022151,29.3394535 37.5357194,29.618022 36.26,30.46 C36.4521115,29.1422763 36.2099007,27.7978311 35.57,26.63 C35.0886645,25.7152428 34.2932309,25.0050343 33.33,24.63 C33.1691941,24.5893641 33.0008059,24.5893641 32.84,24.63 C32.6148681,24.7185334 32.3974578,24.8255661 32.19,24.95 C31.7020974,25.2190635 31.2430354,25.5373911 30.82,25.9 C29.617787,26.9024939 28.7723235,28.2671633 28.41,29.79 C27.7039588,29.0991976 26.8583977,28.5673124 25.93,28.23 C25.2864434,28.0120043 24.6091935,27.9104168 23.93,27.93 C23.4474264,27.9386001 22.9963996,28.1715074 22.71,28.56 C22.3781549,29.2307569 22.2134727,29.971827 22.23,30.72 C22.2891329,32.240721 22.7108463,33.7252895 23.46,35.05 C21.330069,35.1247739 19.3673299,36.2234608 18.19,38 C17.8738393,38.62013 17.7028606,39.304045 17.69,40 C17.6559242,40.4900072 17.7635372,40.9794729 18,41.41 C18.2286348,41.626841 18.5066486,41.7847253 18.81,41.87 C20.1026624,42.2575452 21.4232261,42.5450603 22.76,42.73 C23.2155425,42.775316 23.6744575,42.775316 24.13,42.73 C23.41738,44.0762973 23.1280771,45.6064657 23.3,47.12 C23.4828143,48.81628 24.4289348,50.3366993 25.87,51.25 C26.0645963,51.347804 26.2858024,51.3794049 26.5,51.34 C26.7943111,51.2353975 27.0787599,51.1048857 27.35,50.95 C28.0800775,50.5977606 28.7540377,50.1394677 29.35,49.59 C29.8983033,49.0717171 30.3757639,48.4832974 30.77,47.84 C30.9740693,47.4936028 31.1448336,47.1286361 31.28,46.75 C31.915387,47.7779938 32.8711213,48.5685829 34,49 C34.6368788,49.2590621 35.3131999,49.4078528 36,49.44 C36.4816504,49.4571046 36.9450633,49.2548212 37.26,48.89 C37.63585,48.2405747 37.8485968,47.5096868 37.88,46.76 C38.0019768,45.4022197 37.8139113,44.0344707 37.33,42.76 C39.2522229,43.1148016 41.2284081,42.5316041 42.65,41.19 C43.1182723,40.7222102 43.4977554,40.1733151 43.77,39.57 C43.8869861,39.3315627 43.9743039,39.0796845 44.03,38.82 C44.046128,38.5798763 43.9751174,38.3419907 43.83,38.15 Z M29.34,42.32 C28.2377126,41.8711357 27.3841283,40.9664822 27,39.84 C26.14,36.93 28.54,34.71 29.92,34.15 C30.5657995,33.935352 31.2591194,33.9076192 31.92,34.07 C33.6397308,34.3279536 35.0450968,35.576702 35.5035163,37.25416 C35.9619358,38.9316181 35.3869876,40.7215513 34.0374666,41.8182769 C32.6879457,42.9150025 30.8182638,43.1117659 29.27,42.32 L29.34,42.32 Z M40,31.59 C40,31.93 39.87,32.52 39.82,32.7 C39.3468738,34.0634203 38.3896461,35.2056882 37.13,35.91 C37.13,35.8 37.05,35.69 36.99,35.58 C36.636809,34.8715827 36.1435198,34.2422137 35.54,33.73 C36.588919,32.3322636 38.253369,31.5336262 40,31.59 L40,31.59 Z M32,27.37 C32.3261373,27.0893644 32.6815147,26.8446234 33.06,26.64 C33.4170193,26.9029376 33.7080139,27.2452842 33.91,27.64 C34.6766792,29.2429496 34.5788014,31.1252154 33.65,32.64 C32.5279556,32.163233 31.2991255,31.9940963 30.09,32.15 C29.8755612,30.335954 30.594492,28.5367451 32,27.37 L32,27.37 Z M24.15,29.87 C24.46,29.87 25.15,29.99 25.28,30.04 C26.5867307,30.5628064 27.6548416,31.5490288 28.28,32.81 L28.28,32.81 C27.2884569,33.468567 26.4523832,34.3353536 25.83,35.35 C24.7524627,34.0392557 24.1280216,32.4150073 24.05,30.72 C24.0626648,30.4328185 24.1062499,30.147839 24.18,29.87 L24.15,29.87 Z M22.94,40.94 C21.7825987,40.7505988 20.6372996,40.4934909 19.51,40.17 L19.51,40.17 C19.4949248,39.9869766 19.4949248,39.8030234 19.51,39.62 C19.5478462,39.3965317 19.6013106,39.1759912 19.67,38.96 C20.8672469,37.2631989 22.9887007,36.4830771 25,37 L25.19,37 C24.860026,38.0991012 24.860026,39.2708988 25.19,40.37 C25.19,40.45 25.25,40.53 25.27,40.6 C24.5304874,40.8935303 23.7325551,41.0099668 22.94,40.94 Z M29.21,46.85 C28.9065228,47.3539945 28.5365283,47.8148057 28.11,48.22 C27.64043,48.6396491 27.1155426,48.9929387 26.55,49.27 L26.41,49.34 C25.7178964,48.6860777 25.2817602,47.8067136 25.18,46.86 C25.0344049,45.3197446 25.4894033,43.7827813 26.45,42.57 C27.0396145,43.2000241 27.7460413,43.7094665 28.53,44.07 C29.0137806,44.2836909 29.5204024,44.4413811 30.04,44.54 C29.8901551,45.3498401 29.6098429,46.129986 29.21,46.85 L29.21,46.85 Z M35.94,46.67 C35.9323935,46.9642238 35.8887343,47.2564045 35.81,47.54 C35.4348483,47.4814639 35.0640236,47.3979449 34.7,47.29 C33.5687925,46.7791866 32.7074234,45.8124179 32.33,44.63 C32.5553602,44.5978591 32.7789726,44.5544716 33,44.5 C33.8708998,44.2103709 34.6690591,43.7362506 35.34,43.11 C35.8619649,44.2194151 36.0694995,45.4507875 35.94,46.67 L35.94,46.67 Z M41.26,39.86 C40.1212799,40.9241167 38.5037392,41.3047145 37.01,40.86 C37.4427399,39.9221764 37.6319094,38.8903426 37.56,37.86 C38.8116958,37.6917072 40.08314,37.9601232 41.16,38.62 L41.92,39.03 C41.7407645,39.3367646 41.5185069,39.6162704 41.26,39.86 L41.26,39.86 Z"/>
        <path id="Path" fill="#3C454E" d="M31.74 39.38C32.0936377 39.1664072 32.2795216 38.7573336 32.2078218 38.3504667 32.1361221 37.9435998 31.8216011 37.6227095 31.4162532 37.5428683 31.0109053 37.4630271 30.5981877 37.6406734 30.377549 37.9899584 30.1569102 38.3392435 30.1737777 38.788253 30.42 39.12 30.560334 39.3298047 30.7783935 39.4751364 31.0260467 39.5239166 31.2737 39.5726968 31.5305849 39.5209147 31.74 39.38L31.74 39.38zM30.87 40.31C30.5485007 40.5222808 30.3870402 40.9077098 30.4612452 41.2857555 30.5354503 41.6638012 30.8306259 41.9595989 31.2085146 42.0345997 31.5864032 42.1096005 31.9721713 41.9489519 32.1851284 41.6279002 32.3980856 41.3068486 32.3960599 40.8889719 32.18 40.57 32.0415361 40.3608572 31.8252293 40.2157267 31.5792036 40.1668971 31.333178 40.1180676 31.0778408 40.1695895 30.87 40.31L30.87 40.31zM33.1 39.7C33.3122808 40.0214993 33.6977098 40.1829598 34.0757555 40.1087548 34.4538012 40.0345497 34.7495989 39.7393741 34.8245997 39.3614854 34.8996005 38.9835968 34.7389519 38.5978287 34.4179002 38.3848716 34.0968486 38.1719144 33.6789719 38.1739401 33.36 38.39 33.1508572 38.5284639 33.0057267 38.7447707 32.9568971 38.9907964 32.9080676 39.236822 32.9595895 39.4921592 33.1 39.7zM33.23 37.24C33.5493343 37.0236205 33.7061279 36.6356285 33.6267859 36.2581377 33.547444 35.8806469 33.2477195 35.5886071 32.8682957 35.5190943 32.4888719 35.4495816 32.1050823 35.6163975 31.897068 35.9412428 31.6890538 36.2660882 31.6981156 36.6844659 31.92 37 32.0615925 37.2059196 32.2793537 37.3469816 32.525165 37.3920158 32.7709764 37.4370499 33.0246026 37.3823489 33.23 37.24zM30.53 35.62C30.2400226 35.1907648 29.6574415 35.0770215 29.2273059 35.3656615 28.7971703 35.6543016 28.6816144 36.2365259 28.9689143 36.6675577 29.2562143 37.0985896 29.8380761 37.2159571 30.27 36.93 30.4813573 36.7933641 30.6283127 36.5769 30.6773082 36.3300383 30.7263036 36.0831765 30.6731553 35.8269971 30.53 35.62zM28.23 38.75C27.7949876 39.0427183 27.6793795 39.6325233 27.971696 40.0678059 28.2640125 40.5030884 28.8537105 40.6192411 29.2892628 40.3273266 29.7248151 40.0354122 29.8415122 39.4458216 29.55 39.01 29.4114653 38.7979998 29.1932489 38.6508673 28.9447724 38.601925 28.6962958 38.5529826 28.4385828 38.6063715 28.23 38.75z"/>
      </g>
    </g>
  </g>
</svg>
