<svg xmlns="http://www.w3.org/2000/svg" width="64" height="64" viewBox="0 0 64 64" style="background:#fff">
  <g id="Sonnenweizen" fill="none" fill-rule="evenodd" stroke="none" stroke-width="1">
    <rect width="64" height="64" fill="#FFF"/>
    <g transform="translate(2 7)">
      <g id="Layer_2">
        <rect id="Rectangle" width="60" height="60" x="0" y="0"/>
      </g>
      <g id="Layer_1" fill-rule="nonzero" transform="translate(5 4)">
        <path id="Path" fill="#EBE53F" d="M1.75 6.47C.16 7.76.13 10.21.75 11.96 2.42977913 16.4141981 6.15213235 19.7866501 10.75 21.02 14.85 22.02 15.75 14.17 12.17 13.28 9.22682585 12.6818683 6.78947212 10.6287651 5.7 7.83 5.4517086 7.04477735 4.84608697 6.4236149 4.06740597 6.15551208 3.28872497 5.88740925 2.42906778 6.00407064 1.75 6.47zM27.12 21.29C25.4298123 23.3572922 23.3505671 25.0730092 21 26.34 19.3023036 27.3578659 18.4858951 29.3784769 19 31.29 19.39 32.69 21 35 22.72 34 26.0477315 32.2205413 28.982804 29.7888183 31.35 26.85 33.73 23.94 30.25 17.43 27.12 21.29zM43.67 29.3C42.094703 30.5320629 39.9222186 30.6633669 38.21 29.63 36.44 28.71 34.92 31.08 34.66 32.48 34.2027618 34.4023721 35.0709665 36.3955745 36.79 37.37 40.0672082 38.9920655 43.9942459 38.516894 46.79 36.16 48.32 34.92 48.51 32.37 47.74 30.67 46.97 28.97 45.19 28.07 43.67 29.3zM19 47.55C22.1556176 49.9241583 26.3086928 50.5131399 30 49.11 33.49 47.81 32.25 39.96 28.31 41.42 26.1632393 42.2676279 23.7316901 41.954245 21.87 40.59 18.13 37.9 16 45.38 19 47.55zM10.4 32.2C9.42 34 7 35 5.05 35.05 1.15 35.2 1.29 43.2 5.19 43.05 9.83 42.87 13.36 40.12 15.51 36.15 16.3413358 34.2739696 15.8825541 32.0766468 14.37 30.69 12.69 29.43 11.2 30.71 10.4 32.2zM30.53 3.11C30.2547843 4.15082257 29.6163202 5.05886031 28.73 5.67 27.8169001 6.34522043 26.7243025 6.73493677 25.59 6.79 21.68 7.02 21.84 15.02 25.72 14.79 30.2905486 14.4693583 34.2120578 11.4135855 35.64 7.06 36.23 5.27 36.14 2.85 34.49 1.61 33.7935124 1.13303026 32.907742 1.026953 32.1183239 1.32597502 31.3289057 1.62499704 30.7357007 2.29129225 30.53 3.11zM44.65 9.77C43.71 13.08 40.77 15.53 37.65 16.69 34.17 17.99 35.41 25.85 39.34 24.37 45.01 22.25 48.69 17.5 50.34 11.79 50.81 10.12 49.97 7.52 48.21 6.91 46.21 6.22 45.09 8.21 44.65 9.77z" opacity=".5"/>
        <path id="Shape" fill="#3D454C" d="M29.37.47C27.4815036.747973507 25.7359361 1.63656221 24.4 3 23.0209626 4.3391848 22.1242788 6.09738833 21.85 8 21.5576791 9.7312414 22.0987456 11.4989724 23.31 12.77 25.7 15.16 30.07 14.67 33.06 11.69 34.6598002 10.1478241 35.5929432 8.0410742 35.66 5.82 35.6977877 4.37642765 35.1536583 2.97826735 34.15 1.94 32.8769057.724868019 31.1058995.180228061 29.37.47zM31.65 10.27C29.44 12.48 26.34 12.97 24.73 11.36 23.9516002 10.5259541 23.6173262 9.37085174 23.83 8.25 24.0610441 6.79511534 24.7637517 5.45645728 25.83 4.44 26.8441758 3.37073174 28.1839254 2.6674511 29.64 2.44 30.3358764 2.34122914 31.0454678 2.42389998 31.7 2.68 31.3906379 4.29376111 30.582684 5.76976347 29.39 6.9 28.46 7.8 29.88 9.21 30.8 8.32 31.9730189 7.18467274 32.8457951 5.77586079 33.34 4.22 34.12 5.94 33.5 8.42 31.65 10.27zM34.39 33C34.39 36.38 37.83 39.12 42.05 39.12 46.27 39.12 49.71 36.38 49.71 33 49.71 29.62 46.27 26.88 42.05 26.88 37.83 26.88 34.39 29.6 34.39 33zM47.71 33C47.71 35.27 45.17 37.12 42.05 37.12 38.93 37.12 36.39 35.24 36.39 33 36.39 30.76 38.93 28.88 42.05 28.88 45.17 28.88 47.71 30.7 47.71 33zM37.72 12.25C36.3427983 13.5905389 35.4464528 15.3480792 35.17 17.25 34.8415587 18.9851238 35.3921734 20.7704166 36.6408784 22.0191216 37.8895834 23.2678266 39.6748762 23.8184413 41.41 23.49 43.3119208 23.2135472 45.0694611 22.3172017 46.41 20.94 47.785379 19.5981183 48.6813901 17.8412339 48.96 15.94 48.9943992 15.6279183 49.0077627 15.3138758 49 15 49.0373992 13.554591 48.4892545 12.1553797 47.48 11.12 46.2083549 9.90284518 44.4347068 9.3611033 42.7 9.66 40.7994333 9.9493954 39.0482442 10.8601544 37.72 12.25L37.72 12.25zM46.05 12.58C46.8238488 13.4125824 47.1576832 14.5624567 46.95 15.68 46.4280916 18.6403263 44.1103263 20.9580916 41.15 21.48 40.0327849 21.6812273 38.8857624 21.3482208 38.05 20.58 37.4164058 19.9171134 37.0774321 19.0264058 37.11 18.11 37.0950826 17.9002649 37.0950826 17.6897351 37.11 17.48 37.3403873 16.0220174 38.0430253 14.6799787 39.11 13.66 40.1241758 12.5907317 41.4639254 11.8874511 42.92 11.66 44.0507211 11.4424294 45.216848 11.7851888 46.05 12.58L46.05 12.58zM20.3 21.47C17.3 24.47 16.83 28.83 19.22 31.22 20.4908118 32.4385763 22.26519 32.9805411 24 32.68 25.9019208 32.4035472 27.6594611 31.5072017 29 30.13 30.6000855 28.5921443 31.5335317 26.4883002 31.6 24.27 31.6393613 22.8231893 31.0951983 21.421339 30.09 20.38 27.66 18 23.29 18.48 20.3 21.47zM21.72 22.88C23.54 21.06 25.97 20.43 27.72 21.17 26.7120649 24.8781176 23.6684962 27.6806886 19.89 28.38 19.7859058 28.0362138 19.732016 27.6791942 19.73 27.32 19.7965965 25.6389062 20.5094661 24.0483831 21.72 22.88L21.72 22.88zM29.53 24.88C29.0080916 27.8403263 26.6903263 30.1580916 23.73 30.68 22.812331 30.8265255 21.8728111 30.6307922 21.09 30.13 24.8379958 29.1221383 27.8781831 26.3829964 29.27 22.76 29.5464799 23.4372471 29.6362654 24.1762511 29.53 24.9L29.53 24.88zM21.14 39C19.5641156 39.7843772 18.4517545 41.2675253 18.14 43 17.8967542 44.7401157 18.4813339 46.4938549 19.72 47.74 22.4830258 50.5046829 26.6959614 51.2115243 30.21 49.5 31.7869305 48.7168791 32.8997445 47.2331271 33.21 45.5 33.2576804 45.2292933 33.2811067 44.9548715 33.2800374 44.68 33.2800374 41.68 30.49 38.83 26.67 38.19 24.7876965 37.8474536 22.8449915 38.1320089 21.14 39L21.14 39zM26.34 40.17C29.42 40.68 31.63 42.91 31.24 45.17 31.00657 46.2801186 30.2662533 47.2166192 29.24 47.7 26.5307009 48.9935001 23.3016487 48.4539926 21.16 46.35 20.4635275 45.6781583 20.0487986 44.7664698 20 43.8 19.985258 43.6369993 19.985258 43.4730007 20 43.31 20.227638 42.1947679 20.9692793 41.2528835 22 40.77 23.3408716 40.0963986 24.8679685 39.8887979 26.34 40.18L26.34 40.17z"/>
        <path id="Path" fill="#3D454C" d="M26.33,9.81 C26.33,10.3622847 26.7777153,10.81 27.33,10.81 C27.8822847,10.81 28.33,10.3622847 28.33,9.81 C28.33,9.25771525 27.8822847,8.81 27.33,8.81 C26.7777153,8.81 26.33,9.25771525 26.33,9.81 Z"/>
        <path id="Shape" fill="#3D454C" d="M15.66,34.22 C15.6977877,32.7764276 15.1536583,31.3782673 14.15,30.34 C11.76,27.95 7.39,28.44 4.4,31.43 C1.41,34.42 0.93,38.79 3.31,41.17 C5.69,43.55 10.07,43.07 13.06,40.09 C14.6598002,38.5478241 15.5929432,36.4410742 15.66,34.22 Z M4.73,39.76 C4.09640581,39.0971134 3.75743206,38.2064058 3.79,37.29 C3.77539602,37.0769166 3.77539602,36.8630834 3.79,36.65 C4.0210441,35.1951153 4.72375175,33.8564573 5.79,32.84 C7.61,31 10,30.41 11.69,31.1 C11.3806379,32.7137611 10.572684,34.1897635 9.38,35.32 C8.45,36.22 9.87,37.63 10.79,36.74 C11.9633625,35.6067596 12.8333081,34.1969664 13.32,32.64 C13.6328014,33.3353314 13.7403585,34.1055787 13.63,34.86 C13.3961246,36.3139434 12.6938655,37.6517469 11.63,38.67 C10.6069067,39.7328283 9.2663494,40.4346908 7.81,40.67 C6.69759771,40.863613 5.55856129,40.5270795 4.73,39.76 Z"/>
        <path id="Path" fill="#3D454C" d="M6.33,38.21 C6.33,38.7622847 6.77771525,39.21 7.33,39.21 C7.88228475,39.21 8.33,38.7622847 8.33,38.21 C8.33,37.6577153 7.88228475,37.21 7.33,37.21 C6.77771525,37.21 6.33,37.6577153 6.33,38.21 Z"/>
        <path id="Shape" fill="#3D454C" d="M16.41,15.73 C16.3445949,13.511458 15.4109783,11.4072297 13.81,9.87 C12.4704303,8.48973376 10.7129542,7.58990599 8.81,7.31 C7.07420807,7.02183886 5.30391049,7.56626092 4.03,8.78 C2.82222807,10.0563729 2.29161001,11.8300473 2.6,13.56 C2.87860993,15.4612339 3.77462095,17.2181183 5.15,18.56 C6.4932134,19.9335693 8.24944903,20.8292495 10.15,21.11 C11.8858995,21.3997719 13.6569057,20.855132 14.93,19.64 C15.9302696,18.5894812 16.463949,17.179558 16.41,15.73 L16.41,15.73 Z M10.41,19.1 C8.95582215,18.8668289 7.61780653,18.1644585 6.6,17.1 C5.53375175,16.0835427 4.8310441,14.7448847 4.6,13.29 C4.58539602,13.0769166 4.58539602,12.8630834 4.6,12.65 C4.56743206,11.7335942 4.90640581,10.8428866 5.54,10.18 C7.15,8.58 10.25,9.06 12.46,11.27 C14.25,13.07 14.89,15.45 14.2,17.14 C12.5841413,16.8364897 11.1064375,16.0276044 9.98,14.83 C9.08,13.9 7.67,15.32 8.56,16.25 C9.69387493,17.4176634 11.0989164,18.2867966 12.65,18.78 C11.9394658,19.1014187 11.1516991,19.2124695 10.38,19.1 L10.41,19.1 Z"/>
        <path id="Path" fill="#3D454C" d="M8 12.8C8 12.2477153 7.55228475 11.8 7 11.8 6.44771525 11.8 6 12.2477153 6 12.8 6 13.3522847 6.44771525 13.8 7 13.8 7.55228475 13.8 8 13.3522847 8 12.8zM38.32 33.76C38.32 34.3122847 38.7677153 34.76 39.32 34.76 39.8722847 34.76 40.32 34.3122847 40.32 33.76 40.32 33.2077153 39.8722847 32.76 39.32 32.76 38.7677153 32.76 38.32 33.2077153 38.32 33.76z"/>
      </g>
    </g>
  </g>
</svg>
