<svg xmlns="http://www.w3.org/2000/svg" width="64" height="64" viewBox="0 0 64 64" style="background:#fff">
  <g id="Spaghetti" fill="none" fill-rule="evenodd" stroke="none" stroke-width="1">
    <rect width="64" height="64" fill="#FFF"/>
    <g id="26-1-Spaghetti" transform="translate(2 4)">
      <g id="Layer_2">
        <rect id="Rectangle" width="60" height="60" x="0" y="0"/>
      </g>
      <g id="Layer_1" transform="translate(3 8)">
        <path id="Shape" fill="#EBE350" fill-opacity=".5" d="M22.77,30.18 C24.4159819,30.3373108 25.9901525,30.9310769 27.33,31.9 C28.6999046,32.9448208 29.7411308,34.3608885 30.33,35.98 C30.9607837,38.0375895 30.0906399,40.2585279 28.23,41.34 C24.68,43.82 18.29,44.14 14.35,42.92 C13.1606687,42.5823048 12.0306671,42.0628413 11,41.38 C10.1798525,40.8002503 9.57776626,39.9622589 9.29,39 C9.07275411,38.2139253 9.13278524,37.3770206 9.46,36.63 C9.92228626,35.7701161 10.4936779,34.973529 11.16,34.26 C12.8717249,32.4063696 14.745863,30.7096053 16.76,29.19 C18.3703266,27.8978844 20.6837455,27.9786839 22.2,29.38 C22.4289649,29.6129022 22.6211639,29.8792833 22.77,30.17 L22.77,30.18 Z M20.7,36.83 L20.88,36.83 L20.7,36.83 Z"/>
        <path id="Shape" fill="#3D454C" fill-rule="nonzero" d="M37.9,40.75 C37.9,38.17 34.14,36.75 30.82,35.91 C29.3697475,33.4578149 26.662647,32.0307862 23.82,32.22 C23.7225587,31.9147 23.602217,31.6171885 23.46,31.33 C22.5202945,29.5531697 20.6699749,28.4468328 18.66,28.46 C16.9265732,28.3810389 15.3072977,29.3236606 14.52,30.87 C14.4600955,30.8747864 14.3999045,30.8747864 14.34,30.87 C12.43,31.29 10.58,32.93 8.89,35.63 L8.89,35.63 C5.15,36.4 0.71,37.9 0.71,40.72 C0.71,42.58 2.71,43.87 5.1,44.72 C5.68,46.06 8.34,50.02 19.63,50.02 C30.92,50.02 33.17,46.11 33.63,44.69 C36.2,43.78 37.9,42.45 37.9,40.75 Z M14.7,32.81 C15.3308195,32.6678371 15.9923405,32.7907427 16.53,33.15 C15.2,33.54 13.47,34.79 11.83,38.27 C11.6122622,38.7566719 11.8146302,39.3285816 12.29,39.57 C12.4223909,39.6283484 12.565325,39.6589771 12.71,39.66 C13.0851657,39.6532167 13.4249614,39.436983 13.59,39.1 C15.06,35.99 16.59,34.94 17.59,34.93 C17.59,36.68 16.22,39.07 15.54,40 C15.2395634,40.4396075 15.3362869,41.0375344 15.76,41.36 C15.9237447,41.4846548 16.1242113,41.551477 16.33,41.55 C16.6429911,41.544517 16.935355,41.3927839 17.12,41.14 C17.3,40.89 21.66,34.81 18.22,31.94 C17.7826184,31.5691067 17.2855935,31.2749491 16.75,31.07 C17.2323682,30.616188 17.8784885,30.3779537 18.54,30.41 C19.851121,30.3765074 21.0738896,31.0686405 21.72,32.21 C22.62,33.97 22.14,36.9 20.51,39.5 C20.3367635,39.7978459 20.3290659,40.1638972 20.4896283,40.4687624 C20.6501907,40.7736277 20.9563933,40.9743582 21.3,41 C21.6328673,40.9927359 21.9402881,40.8202803 22.12,40.54 C22.5970667,39.780911 22.9989688,38.9771068 23.32,38.14 C23.61,38.14 24.4,38.41 25.32,40.14 C25.4924222,40.4552547 25.8207284,40.6537654 26.18,40.66 C26.339619,40.6581054 26.4967916,40.6205207 26.64,40.55 C27.1039891,40.287058 27.2799861,39.7062679 27.04,39.23 C25.92,37.12 24.72,36.42 23.84,36.23 C23.9879769,35.5435219 24.0551002,34.8420836 24.04,34.14 C24.65,34.07 28.27,33.88 30.21,39 C30.2080976,39.0232946 30.2080976,39.0467054 30.21,39.07 L30.27,39.17 C30.3143795,39.237575 30.3645698,39.3011493 30.42,39.36 L30.5,39.42 C30.5881085,39.4954727 30.6899778,39.5531986 30.8,39.59 L30.8,39.59 C31.2749568,39.7145144 31.732009,39.8993517 32.16,40.14 C31.07,40.82 26.79,41.86 19.54,41.86 C12.29,41.86 8,40.86 6.92,40.14 C7.30740148,39.9174402 7.72043412,39.7428248 8.15,39.62 L8.24,39.62 C8.62015687,39.6226457 8.96893447,39.4095038 9.14,39.07 C10.91,35.46 12.92,33.19 14.7,32.81 Z M21.58,44.81 C21.1249921,44.9136974 20.8022049,45.3183252 20.8022049,45.785 C20.8022049,46.2516748 21.1249921,46.6563026 21.58,46.76 L21.58,46.76 C24.5367711,46.6683764 27.4789935,46.3068746 30.37,45.68 C29,46.83 25.9,48.14 19.57,48.14 C13.43,48.14 10.21,46.91 8.57,45.77 C10.0040099,46.0759802 11.452508,46.3096089 12.91,46.47 L13,46.47 C13.5052593,46.4742854 13.9343321,46.100992 14,45.6 C14.042074,45.071821 13.6648677,44.6025062 13.14,44.53 C5.99,43.74 2.65,41.8 2.65,40.74 C2.65,40.19 3.65,39.23 6.22,38.36 C5.48713124,38.6591634 4.98197602,39.3417013 4.91,40.13 C4.91,43.63 17.19,43.81 19.66,43.81 C22.13,43.81 34.41,43.63 34.41,40.13 C34.3928243,39.6529713 34.1793138,39.2042372 33.82,38.89 C35.48,39.64 36.01,40.36 36.01,40.74 C36,42.22 30.48,44.48 21.58,44.81 Z"/>
        <path id="Path" fill="#3D454C" fill-rule="nonzero" d="M17.18 44.78C16.6277153 44.78 16.18 45.2277153 16.18 45.78 16.18 46.3322847 16.6277153 46.78 17.18 46.78 17.7322847 46.78 18.18 46.3322847 18.18 45.78 18.18 45.2277153 17.7322847 44.78 17.18 44.78zM18.51 25.34C18.1958907 25.764473 18.2659546 26.3600158 18.67 26.7 18.8386949 26.8390679 19.0514011 26.9135151 19.27 26.91 19.5674322 26.910483 19.8496435 26.7785401 20.04 26.55 21.3004521 24.9639854 21.2796042 22.712403 19.99 21.15 19.3492155 20.4475082 19.3492155 19.3724918 19.99 18.67 20.2173501 18.2661423 20.1374179 17.7589913 19.7968707 17.4446401 19.4563235 17.1302888 18.9444084 17.0911193 18.56 17.35 17.2646258 18.7879521 17.2646258 20.9720479 18.56 22.41 19.2142749 23.283524 19.1936984 24.4893083 18.51 25.34z"/>
        <path id="Path" fill="#EBE350" fill-opacity=".5" d="M50.81,9.66 C51.2558865,11.7271237 51.5897068,13.816839 51.81,15.92 C52.16,19.18 52.29,22.49 52.39,25.76 C52.48,28.45 52.58,31.21 52.58,33.96 C52.58,35.96 52.58,37.96 52.4,39.96 C52.1,44.39 49.22,47.65 45.97,47.24 C42.72,46.83 40.33,42.91 40.63,38.48 L40.58,26.48 C40.49,23.74 40.4,20.96 40.11,18.22 C39.9718821,16.7635168 39.7414184,15.3172736 39.42,13.89 C39.27,13.5 38.84,12.4 38.65,11.76 C37.42,7.64 38.88,2.94 41.91,1.27 C44.6,-0.21 47.62,1.2 49.12,4.42 C49.418404,4.34016321 49.7348345,4.36125858 50.02,4.48 C51.096112,5.12537261 51.6014502,6.41542309 51.25,7.62 C51.1,8.3 50.96,8.98 50.84,9.67 L50.81,9.66 Z"/>
        <path id="Shape" fill="#3C454E" d="M52.93,33.39 C52.32,27.73 52.6,21.98 52.38,16.3 C52.38,16.3 52.38,16.3 52.38,16.25 L52.69,16.25 C53.2422847,16.25 53.69,15.8022847 53.69,15.25 C53.69,14.6977153 53.2422847,14.25 52.69,14.25 L51.78,14.25 C52.23,11.25 52.78,6.25 52.96,3.67 C52.9903676,3.3127344 52.8278295,2.96640647 52.5336122,2.76147457 C52.2393949,2.55654268 51.858197,2.52414086 51.5336122,2.67647457 C51.2090273,2.82880828 50.9903676,3.1427344 50.96,3.5 C50.72,6.17 50.19,11.42 49.73,14.32 L49.57,14.32 C49.57,11.48 50,6.24 49.82,3.6 C49.804726,3.33088192 49.6814549,3.07932683 49.4781312,2.90235989 C49.2748075,2.72539294 49.0086521,2.63800281 48.74,2.66 C48.4708819,2.67527401 48.2193268,2.79854507 48.0423599,3.00186879 C47.8653929,3.20519252 47.7780028,3.47134788 47.8,3.74 C47.98,6.36 47.56,11.6 47.55,14.4 L47.23,14.4 C47.5595038,10.3000009 47.4958804,6.17787705 47.04,2.09 C46.9881965,1.73273441 46.7497291,1.43024424 46.4144263,1.2964746 C46.0791235,1.16270496 45.6979256,1.21797865 45.4144263,1.4414746 C45.130927,1.66497055 44.9881965,2.02273441 45.04,2.38 C45.4864421,6.4053605 45.5366829,10.4648236 45.19,14.5 L44.95,14.5 C45.0510785,10.1214092 44.8506046,5.74105384 44.35,1.39 C44.3203141,1.11999244 44.1820651,0.873678685 43.9670418,0.707695794 C43.7520186,0.541712903 43.4787243,0.470344161 43.21,0.51 C42.941808,0.542175762 42.6980391,0.681478271 42.5341674,0.896206707 C42.3702957,1.11093514 42.3002607,1.38282399 42.34,1.65 C42.8324581,5.96484305 43.0295837,10.3082874 42.93,14.65 L42.74,14.65 C42.47,11.29 41.74,5.78 41.47,2.93 C41.4092486,2.37771528 40.9122847,1.97924875 40.36,2.04000006 C39.8077153,2.10075138 39.4092487,2.59771527 39.47,3.15 C39.74,5.64 40.31,10.15 40.62,13.5 C40.580809,13.2332079 40.4355328,12.9935506 40.2171276,12.8353952 C39.9987225,12.6772397 39.7257014,12.613992 39.46,12.66 C39.1932079,12.699191 38.9535506,12.8444672 38.7953952,13.0628724 C38.6372397,13.2812775 38.573992,13.5542986 38.62,13.82 C39.84,21.43 39.7,29.97 40.44,37.48 C40.55,38.59 40.51,41.62 40.67,43.67 C40.6403974,44.4601198 40.7521521,45.2491758 41,46 C41.8115865,47.0530695 43.0423491,47.6994937 44.37,47.77 C47.47,48.21 51.9,47.32 52.94,46.7 C53.2596668,46.4978121 53.5079605,46.200559 53.65,45.85 C53.915431,45.0823114 54.03416,44.2715618 54,43.46 C54,40.58 53.2,35.88 52.93,33.39 Z M51.83,45 C49.8990424,45.6481555 47.864714,45.9329615 45.83,45.84 C45.1055969,45.8383762 44.3850864,45.7340032 43.69,45.53 C43.3126753,45.454003 42.9753921,45.2445324 42.74,44.94 C42.5950842,44.4773772 42.5242096,43.9947545 42.53,43.51 C42.37,41.45 42.41,38.4 42.3,37.29 C41.66,30.81 41.66,23.57 40.9,16.81 C44.03,16.51 47.18,16.41 50.33,16.31 C50.3209941,16.3289862 50.3209941,16.3510138 50.33,16.37 C50.55,22.1 50.27,27.89 50.89,33.6 C51.15,36.03 51.97,40.6 51.97,43.46 C51.9684069,43.9764373 51.9215611,44.4917416 51.83,45 Z"/>
      </g>
    </g>
  </g>
</svg>
