<svg xmlns="http://www.w3.org/2000/svg" width="64" height="64" viewBox="0 0 64 64" style="background:#fff">
  <g id="Speck" fill="none" fill-rule="evenodd" stroke="none" stroke-width="1">
    <rect width="64" height="64" fill="#FFF"/>
    <g id="1-1-Speck" transform="translate(2 4)">
      <g id="Layer_2">
        <rect id="Rectangle" width="60" height="60" x="0" y="0"/>
      </g>
      <g id="Layer_1" fill-rule="nonzero" transform="translate(4 3)">
        <path id="Path" fill="#C17953" d="M39,37.25 C39.1197516,35.5881924 38.664274,33.935762 37.71,32.57 L37.71,32.57 C37.0629904,31.5548871 36.1771793,30.7137098 35.13,30.12 C32.21,28.54 28.8,29.56 25.94,30.74 C24.18,31.47 22.65,32.2 20.74,31.9 C19.25,31.66 17.99,30.9 16.43,31.02 C12.76,31.26 10.27,34.02 6.29,33.33 C-0.82,32.04 -0.61,42.33 1.66,46.4 C2.89343964,48.6661591 4.64844879,50.6062669 6.78,52.06 C10.45,54.58 13.04,51.68 13.88,47.84 L13.95,47.84 C14.95,47.48 16.28,46.3 17.3,46.18 C18.12,46.09 19.43,46.81 20.3,46.91 C23.22,47.25 25.63,46.13 28.18,44.82 C30.3651528,43.714853 32.7408304,43.036088 35.18,42.82 C37.43,42.51 38.63,40.39 38.93,38.06 C39,38.31 39,38.12 39,37.25 Z" opacity=".5"/>
        <path id="Shape" fill="#3D454C" d="M11.69,54.26 C11.7798996,54.3628174 11.8884853,54.44765 12.01,54.51 C12.1379968,54.5721201 12.2777757,54.6062125 12.42,54.61 C13.85,54.71 15.29,54.76 16.7,54.76 L16.7,54.76 C34.7,54.76 46.25,47.04 46.7,46.76 C47.0526742,46.5150859 47.2096372,46.0723699 47.09,45.66 C47.0653373,45.5651915 47.0210492,45.4766152 46.96,45.4 C46.71,44.89 45.56,41.6 45.47,41.17 C45.3050354,40.2506751 45.3050354,39.3093249 45.47,38.39 C45.4827596,38.3050936 45.5028344,38.221449 45.53,38.14 C45.6286332,37.8163461 45.6692586,37.4778009 45.65,37.14 C45.7987407,36.7548192 45.6954514,36.3178263 45.39,36.04 L44.18,35 C42.3236478,33.2759962 40.315504,31.7230316 38.18,30.36 C35.9253881,29.1310491 33.3870305,28.5171528 30.82,28.58 C28.7263532,28.5811688 26.6465001,28.9188073 24.66,29.58 C23.735404,29.9508199 22.7551125,30.1637798 21.76,30.21 C21.3603889,30.1815889 20.9648773,30.1112012 20.58,30 C20.12,29.9 19.68,29.76 19.24,29.62 L19.09,29.62 C18.1010756,29.2358519 17.0588297,29.0064903 16,28.94 C14.0204797,28.9768899 12.124957,29.7465006 10.68,31.1 C9.88522908,31.7934604 8.97918769,32.3479036 8,32.74 C7.64387314,32.849227 7.27236963,32.8998866 6.9,32.89 C6.56,32.89 6.2,32.89 5.75,32.83 C5.3,32.77 4.93,32.77 4.51,32.77 C3.17637607,32.6609057 1.88776248,33.2803579 1.14,34.39 C-0.3,36.52 6.52256027e-16,40 0.21,42.27 L0.21,42.47 C0.225341742,42.5910729 0.25906294,42.7090971 0.31,42.82 C1.71351989,45.5313108 3.77690439,47.8457404 6.31,49.55 C8.36249039,50.7966897 10.1828722,52.3903696 11.69,54.26 L11.69,54.26 Z M43.69,37.37 L43.63,37.6 C43.5915345,37.73467 43.5614765,37.8716007 43.54,38.01 C43.3399586,39.1412244 43.3399586,40.2987756 43.54,41.43 C43.54,41.5 43.74,42.25 44,43.1 C40.662265,43.3041622 37.3699241,43.9774425 34.22,45.1 C33.8119836,45.293124 33.5839409,45.7356579 33.6634571,46.1800129 C33.7429733,46.624368 34.1103305,46.9603566 34.56,47 C34.6696097,47.0131039 34.7803903,47.0131039 34.89,47 C38.0369369,45.8301749 41.346267,45.1554899 44.7,45 C44.77,45.17 44.84,45.33 44.92,45.49 C36.3019296,50.3203729 26.579351,52.8354269 16.7,52.79 C15.6,52.79 14.47,52.79 13.35,52.7 C13.28,51.7 13.2,50.37 13.22,48.99 C13.22,48.7033333 13.22,48.4033333 13.22,48.09 L13.22,48 C14.1730005,48.2299237 15.1496592,48.3473912 16.13,48.35 C17.674888,48.3385447 19.2090661,48.0924018 20.68,47.62 C22.0544951,47.1458051 23.3517254,46.4719193 24.53,45.62 C26.02,44.62 27.42,43.71 29.25,43.71 L29.7,43.71 C30.41,43.71 31.13,43.78 31.86,43.78 C33.0135097,43.8028444 34.1645766,43.664851 35.28,43.37 C36.1820154,43.0979683 37.0641228,42.7638367 37.92,42.37 C38.7756698,41.9513452 39.6698347,41.616452 40.59,41.37 C41.0332373,41.2174619 41.311036,40.7775139 41.2582172,40.3117486 C41.2053985,39.8459832 40.836139,39.479413 40.37,39.43 L40.14,39.43 C39.0611739,39.7061599 38.0100695,40.0810761 37,40.55 C36.2621784,40.8978448 35.5001959,41.1919433 34.72,41.43 C33.776854,41.6755258 32.8043767,41.7899349 31.83,41.77 C31.14,41.77 30.44,41.77 29.72,41.7 L29.16,41.7 C26.82,41.7 25.1,42.83 23.42,43.94 C22.3905212,44.6903781 21.2590819,45.2897715 20.06,45.72 C18.7850216,46.1402502 17.4524123,46.3595403 16.11,46.37 C15.1713872,46.365131 14.2372121,46.2407983 13.33,46 C13.3677527,45.2677359 13.7847084,44.6081878 14.43,44.26 C15.1948829,43.9691115 16.0134331,43.846329 16.83,43.9 C17.7858401,43.9413951 18.7412719,43.8092609 19.65,43.51 C20.8458694,42.9918922 21.9242636,42.236676 22.82,41.29 C23.6722099,40.2810047 24.8311844,39.578596 26.12,39.29 C26.4971239,39.2317649 26.878439,39.2050059 27.26,39.21 C28.0604105,39.2275013 28.8588019,39.2976528 29.65,39.42 C30.4776368,39.5478331 31.3127574,39.6213237 32.15,39.64 C33.3716299,39.6591779 34.5796224,39.3812024 35.67,38.83 C37.6372237,37.8049081 39.7892574,37.1827562 42,37 C42.5941015,36.9506928 43.1894229,37.079505 43.71,37.37 L43.69,37.37 Z M2.16,42.1 C1.98,40.1 1.71,37.04 2.76,35.49 C3.1352889,34.9220024 3.80735841,34.6250415 4.48,34.73 C4.81,34.73 5.17,34.73 5.59,34.78 C6.01,34.83 6.45,34.85 6.88,34.85 C7.47390244,34.8639326 8.06580086,34.7759934 8.63,34.59 C9.81022908,34.1339135 10.9029218,33.4776213 11.86,32.65 C12.9615793,31.5893824 14.4122962,30.9671386 15.94,30.9 C16.8403299,30.9635623 17.7264478,31.1589799 18.57,31.48 C19.08,31.64 19.57,31.8 20.16,31.93 C20.6795819,32.0398303 21.2089465,32.0967872 21.74,32.1 C22.9495751,32.0588191 24.143305,31.8119571 25.27,31.37 C27.0442451,30.7845738 28.9016895,30.4907599 30.77,30.5 C32.9905703,30.4401405 35.1887344,30.9569502 37.15,32 C38.6119139,32.904249 39.9966234,33.92773 41.29,35.06 C39.0283995,35.3660819 36.8324724,36.0417518 34.79,37.06 C33.9335276,37.4598877 32.9946936,37.6517662 32.05,37.62 C31.3306858,37.6118369 30.612599,37.5583979 29.9,37.46 C29.0025744,37.3263944 28.0972248,37.2528974 27.19,37.24 C26.7384287,37.2377401 26.2872751,37.2678171 25.84,37.33 C24.1284882,37.6552417 22.577577,38.5505404 21.44,39.87 C20.7504605,40.6192728 19.9217311,41.2272341 19,41.66 C18.2869869,41.8721099 17.5428147,41.9600575 16.8,41.92 C15.700316,41.8591715 14.6015129,42.0542861 13.59,42.49 C11.28,43.66 11.3,46.12 11.31,48.11 C11.31,48.4 11.31,48.68 11.31,48.95 C11.31,49.56 11.31,50.21 11.31,50.95 C10.0966939,49.7848756 8.75472499,48.7616243 7.31,47.9 C5.15190937,46.4089268 3.38528985,44.4193359 2.16,42.1 Z"/>
        <path id="Path" fill="#3D454C" d="M29.47 47.45C29.2939138 47.4518287 29.1214328 47.5001234 28.97 47.59 27.2277416 48.6095721 25.2262056 49.0995315 23.21 49L22.45 49C21.0506255 48.8573774 19.6399813 49.1249134 18.39 49.77 17.938877 50.0677516 17.8060081 50.6700907 18.09 51.13 18.2739835 51.4093852 18.5854809 51.5782694 18.92 51.5800052 19.1072252 51.5806008 19.2908587 51.528629 19.45 51.43 20.3889601 51.0044632 21.4258876 50.8420112 22.45 50.96L22.45 50.7 22.45 50.7 22.61 50.96 23.21 50.96C25.5931047 51.0602317 27.9544284 50.4699007 30.01 49.26 30.2321598 49.125954 30.3935206 48.9108063 30.46 48.66 30.520194 48.4039473 30.4770806 48.1344887 30.34 47.91 30.150738 47.6147046 29.8206029 47.4401505 29.47 47.45L29.47 47.45zM11.41 42.73C11.7887855 42.7269645 12.1333412 42.5101654 12.3 42.17 12.3973003 41.9294673 12.3973003 41.6605327 12.3 41.42 12.2100044 41.1736823 12.0268519 40.9725736 11.79 40.86 8.22 39.15 6.98 37.79 6.24 36.68 6.05772847 36.4102167 5.75552917 36.246059 5.43 36.24 5.23553285 36.2423587 5.04538582 36.2976742 4.88 36.4 4.68418661 36.5467679 4.54898651 36.7602417 4.5 37 4.45407301 37.253571 4.50780843 37.5150835 4.65 37.73 5.53 39.06 6.97 40.73 10.98 42.6 11.1107202 42.677449 11.2582666 42.722056 11.41 42.73z"/>
        <path id="Path" fill="#E05362" d="M46.37,17.52 C45.8421431,16.4474019 44.9108712,15.6275949 43.78,15.24 C42.5561368,14.8387107 41.2856859,14.5967201 40,14.52 C38.8881027,14.4400316 37.7718973,14.4400316 36.66,14.52 C34.79,14.63 33.83,14.99 32.9,16.45 C31.97,17.91 31.69,20.23 33.04,21.52 C34.04,22.44 34.67,23.1 36.16,23.03 C37.39,22.97 38.64,22.76 39.87,22.67 C41.1,22.58 42.11,22.51 43.2,22.33 C44.3436198,22.2272012 45.3935379,21.6551769 46.1,20.75 C46.7816874,19.8065885 46.8855993,18.5634943 46.37,17.52 Z" opacity=".5"/>
        <path id="Path" fill="#E0A075" d="M39.53,3.61 C32.24,3.24 26.08,10.49 26.53,17.48 C26.67,19.8 29.82,24.48 31.76,20.6 C33.44,17.23 34.95,13.96 39.25,13.66 C43.08,13.4 45.75,16.08 47.98,18.82 C49.27,20.41 50.98,19.24 51.19,17.44 C51.5483236,14.0450464 50.5070485,10.6507433 48.3065801,8.04075385 C46.1061118,5.4307644 42.936669,3.83070826 39.53,3.61 Z" opacity=".5"/>
        <path id="Shape" fill="#3D454C" d="M38.87,27.89 C31.5,27.89 26.37,23.14 26.37,18.89 C26.37,17.03 28.95,11.89 29.94,9.97 C29.56,9.63 29.22,9.28 28.94,8.97 L28.78,8.8 C26.78,6.69 26.38,4.68 26.38,1.71 C26.38,1.15771525 26.8277153,0.71 27.38,0.71 C30.27,0.71 32.23,1.11 34.25,3.22 C34.47,3.45 34.71,3.73 34.98,4.07 C37.5134972,3.25998735 40.2365028,3.25998735 42.77,4.07 C43.04,3.73 43.28,3.45 43.5,3.22 C45.5,1.11 47.5,0.71 50.38,0.71 C50.9322847,0.71 51.38,1.15771525 51.38,1.71 C51.38,4.71 50.99,6.71 48.97,8.8 L48.97,8.8 L48.8,9 C48.51,9.3 48.17,9.66 47.8,10 C48.8,11.91 51.38,17.06 51.38,18.92 C51.37,23.14 46.23,27.89 38.87,27.89 Z M28.39,2.72 C28.3169963,4.46562557 28.9768266,6.1623322 30.21,7.4 L30.38,7.58 C30.8169273,8.06373583 31.2917685,8.51182533 31.8,8.92 C32.1934486,9.21655275 32.3122701,9.75549353 32.08,10.19 C30.33,13.42 28.37,17.82 28.37,18.88 C28.37,21.81 32.37,25.88 38.87,25.88 C45.37,25.88 49.37,21.8 49.37,18.88 C49.37,17.82 47.37,13.42 45.65,10.19 C45.4177299,9.75549353 45.5365514,9.21655275 45.93,8.92 C46.4382315,8.51182533 46.9130727,8.06373583 47.35,7.58 L47.52,7.4 C48.7531734,6.1623322 49.4130037,4.46562557 49.34,2.72 C47.6688766,2.66152108 46.0576874,3.34627649 44.94,4.59 C44.5788956,4.98366997 44.2448014,5.40128765 43.94,5.84 C43.672034,6.20526527 43.1919918,6.34476472 42.77,6.18 C40.2670735,5.19326417 37.4829265,5.19326417 34.98,6.18 C34.5580082,6.34476472 34.077966,6.20526527 33.81,5.84 C33.5051986,5.40128765 33.1711044,4.98366997 32.81,4.59 C31.6877701,3.34079689 30.0680198,2.65551789 28.39,2.72 Z"/>
        <path id="Path" fill="#3D454C" d="M37.44 20.41C36.8877153 20.41 36.44 19.9622847 36.44 19.41 36.44 19.3 36.25 19.3 36.25 19.41 36.25 19.9622847 35.8022847 20.41 35.25 20.41 34.6977153 20.41 34.25 19.9622847 34.25 19.41 34.1958698 18.6269808 34.5829153 17.8791326 35.2534403 17.4711554 35.9239653 17.0631782 36.7660347 17.0631782 37.4365597 17.4711554 38.1070847 17.8791326 38.4941302 18.6269808 38.44 19.41 38.44 19.9622847 37.9922847 20.41 37.44 20.41zM42.38 20.41C41.8277153 20.41 41.38 19.9622847 41.38 19.41 41.38 19.3 41.19 19.3 41.19 19.41 41.19 19.9622847 40.7422847 20.41 40.19 20.41 39.6377153 20.41 39.19 19.9622847 39.19 19.41 39.1358698 18.6269808 39.5229153 17.8791326 40.1934403 17.4711554 40.8639653 17.0631782 41.7060347 17.0631782 42.3765597 17.4711554 43.0470847 17.8791326 43.4341302 18.6269808 43.38 19.41 43.38 19.6752165 43.2746432 19.9295704 43.0871068 20.1171068 42.8995704 20.3046432 42.6452165 20.41 42.38 20.41z"/>
        <path id="Shape" fill="#3D454C" d="M38.87,24.43 C34.3,24.43 30.73,22.11 30.73,19.15 C30.73,16.19 34.3,13.87 38.87,13.87 C43.44,13.87 47,16.19 47,19.15 C47,22.11 43.43,24.43 38.87,24.43 Z M38.87,15.87 C35.25,15.87 32.73,17.6 32.73,19.15 C32.73,20.7 35.25,22.43 38.87,22.43 C42.49,22.43 45,20.7 45,19.15 C45,17.6 42.48,15.87 38.87,15.87 L38.87,15.87 Z"/>
        <path id="Path" fill="#3D454C" d="M35.42 12.08C35.9722847 12.08 36.42 11.6322847 36.42 11.08 36.42 10.5277153 35.9722847 10.08 35.42 10.08 34.8677153 10.08 34.42 10.5277153 34.42 11.08 34.42 11.6322847 34.8677153 12.08 35.42 12.08zM41.93 12.08C42.4822847 12.08 42.93 11.6322847 42.93 11.08 42.93 10.5277153 42.4822847 10.08 41.93 10.08 41.3777153 10.08 40.93 10.5277153 40.93 11.08 40.93 11.6322847 41.3777153 12.08 41.93 12.08z"/>
      </g>
    </g>
  </g>
</svg>
