<svg xmlns="http://www.w3.org/2000/svg" width="64" height="64" viewBox="0 0 64 64" style="background:#fff">
  <g id="Spinat" fill="none" fill-rule="evenodd" stroke="none" stroke-width="1">
    <rect width="64" height="64" fill="#FFF"/>
    <g transform="translate(2 4)">
      <g id="Layer_2">
        <rect id="Rectangle" width="60" height="60" x="0" y="0"/>
        <rect id="Rectangle" width="60" height="60" x="0" y="0"/>
      </g>
      <g id="Layer_1" fill-rule="nonzero" transform="translate(5 5)">
        <path id="Path" fill="#31E085" d="M44,12.8 C42.15,10.43 40.53,11.24 39.52,12.96 C39.99,10.64 39.63,7.96 37.98,6.38 C34.41,2.92 29.06,5.92 25.68,8.38 C25,8.88 24.34,9.38 23.68,9.97 C23.6005668,9.59921981 23.4936037,9.23487693 23.36,8.88 C24.07,6.8 23.36,3.69 22.06,2.56 C15.71,-3 8.15,3.16 6.62,10 C5.80888521,13.9854645 6.31423935,18.126561 8.06,21.8 C9,23.95 9.52,24.45 8.65,26.62 C7.78,28.79 6.27,31 5.3,33.23 C3.91,36.46 6.24,44.91 10.8,41.56 C11.7560405,42.1411938 12.9354592,42.2195729 13.96,41.77 C18.07,40.26 21.96,38.15 26.14,36.86 C30.32,35.57 35.14,35.03 39.02,32.66 C45.43,28.79 49,19.18 44,12.8 Z" opacity=".5"/>
        <path id="Path" fill="#3D454C" d="M48,19.83 C47.5261487,17.6953636 46.265863,15.8174308 44.47,14.57 C43.514301,12.5962294 41.6967905,11.1776846 39.55,10.73 C39.8307557,9.74039654 39.6972012,8.67918031 39.18,7.79 C38,5.91 35.28,5.39 34,5.25 C33.6450212,4.69658465 33.1332714,4.26142322 32.53,4 C31.29,3.47 29.76,3.66 27.96,4.54 C26.5670568,5.20234433 25.311727,6.12178861 24.26,7.25 C24.1038064,6.57327973 23.814895,5.93427549 23.41,5.37 C21.7,3.02 18.41,2.5 17.52,2.37 C14.44,0.84 11.45,2.89 10.09,4.37 C6.68,5.49 4.56,11.21 4.53,14.11 C4.63316655,15.7916955 5.29078369,17.3917799 6.4,18.66 C7.03957484,19.4550069 7.54305488,20.3504579 7.89,21.31 C8.28088365,23.0041635 8.31832957,24.7607176 8,26.47 C7.22453953,28.9214381 6.03390747,31.2215227 4.48,33.27 L4.39,33.4 C4.07,33.87 3.71,34.33 3.39,34.79 C2.30696098,35.9835872 1.4920294,37.395226 1,38.93 C0.902682719,39.4707885 1.25992623,39.9887916 1.8,40.09 C1.85959288,40.0998848 1.92040712,40.0998848 1.98,40.09 C2.46900373,40.0979763 2.89203267,39.7510925 2.98,39.27 C3.4482346,38.06591 4.13284165,36.95766 5,36 C5.36,35.52 5.73,35 6.07,34.54 L6.16,34.42 C7.86014873,32.1877763 9.15947609,29.6770969 10,27 L10,27 C10,27 10,27 10,27 C10.3835888,24.9614156 10.3256193,22.8642811 9.83,20.85 C9.41778234,19.6422504 8.79854586,18.5154431 8,17.52 C7.14962404,16.5867929 6.62044874,15.4057858 6.49,14.15 C6.49,11.55 8.63,6.76 10.84,6.25 C11.0572826,6.19804583 11.2509101,6.07482835 11.39,5.9 C11.39,5.9 14.01,2.74 16.71,4.21 C16.8347356,4.28306911 16.9755514,4.32428348 17.12,4.33 C17.12,4.33 20.37,4.6 21.75,6.51 C22.4405463,7.57958048 22.5992027,8.90786618 22.18,10.11 C22.1184819,10.359372 22.1505014,10.6226436 22.27,10.85 C22.8260566,12.0166456 23.0442969,13.3156951 22.9,14.6 C22.8420101,15.1522847 23.2427153,15.6470101 23.795,15.705 C24.3472847,15.7629899 24.8420101,15.3622847 24.9,14.81 C25.0472167,13.4050937 24.8692962,11.9851505 24.38,10.66 C24.38,10.66 24.38,10.6 24.43,10.57 C24.48,10.54 25.21,8.06 28.81,6.29 C29.6653406,5.74705315 30.7017049,5.56712881 31.69,5.79 C32.0172835,5.92138249 32.2795787,6.17649151 32.42,6.5 C32.5492604,6.89762108 32.9122479,7.17285337 33.33,7.19 C34.16,7.19 36.69,7.63 37.44,8.84 C37.7281665,9.36232414 37.7467827,9.99155311 37.49,10.53 C36.7942428,10.5356659 36.1020278,10.6297534 35.43,10.81 C32.43,10.45 29.93,12.98 29.03,14.05 C28.03,14.15 26.51,14.95 24.03,17.36 C20.57,20.79 15.88,31.28 15.03,33.27 C3.93,39.31 2.34,41.62 2.13,42 C2.001059,42.2378764 1.97401551,42.5178505 2.05504317,42.7760083 C2.13607082,43.0341662 2.31825291,43.248471 2.56,43.37 C2.70680913,43.4403924 2.86720032,43.4779308 3.03,43.48 C3.38128133,43.4935101 3.7101592,43.3077908 3.88,43 C3.94,42.91 5.45,40.74 16.33,34.88 C16.3657077,34.8564449 16.3991811,34.8296662 16.43,34.8 L16.59,34.67 C16.6357348,34.6197441 16.6728969,34.5623117 16.7,34.5 C16.7296662,34.4691811 16.7564449,34.4357077 16.78,34.4 C16.78,34.28 22.05,22.24 25.52,18.79 C27.95,16.37 29.02,16.1 29.23,16.07 C29.6402033,16.1917112 30.0823907,16.0389556 30.33,15.69 C30.33,15.69 32.76,12.4 35.33,12.82 C35.4780519,12.8541883 35.6319481,12.8541883 35.78,12.82 C35.98,12.76 40.71,11.41 42.78,15.71 C42.8596753,15.8773946 42.9843152,16.0193455 43.14,16.12 C43.14,16.12 45.67,17.81 46.02,20.12 C46.1494662,21.5204172 45.6556414,22.9067847 44.67,23.91 C44.5392367,24.0734167 44.4592701,24.2715948 44.44,24.48 C44.44,24.77 43.77,31.56 34.77,33.35 C31.25,34.05 28.42,34.46 26.14,34.78 C24.22,35.05 22.61,35.29 21.14,35.61 C24.6339689,32.5900196 28.523059,30.0600924 32.7,28.09 C34.8727281,27.2469465 36.8474727,25.9633625 38.5,24.32 C38.6893127,24.1322334 38.7957983,23.8766375 38.7957983,23.61 C38.7957983,23.3433625 38.6893127,23.0877666 38.5,22.9 C38.1099625,22.5122764 37.4800375,22.5122764 37.09,22.9 C35.6588494,24.308552 33.9582651,25.4139318 32.09,26.15 L31.92,26.21 C30.2007344,27.0052615 28.5310323,27.9035612 26.92,28.9 C27.24,24.98 29.57,22.65 32.25,20 C32.83,19.43 33.41,18.85 33.98,18.25 C34.358315,17.8468321 34.3381678,17.2133151 33.935,16.835 C33.5318321,16.456685 32.8983151,16.4768321 32.52,16.88 C31.97,17.46 31.4,18.02 30.84,18.58 C27.84,21.58 24.77,24.58 24.84,30.12 C24.84,30.12 24.84,30.17 24.84,30.2 C21.6861682,32.3005642 18.7926219,34.7677991 16.22,37.55 C11.8,42.42 3.94,44.55 3.86,44.55 C3.30771526,44.621797 2.918203,45.1277153 2.99000002,45.68 C3.06179704,46.2322847 3.56771526,46.621797 4.12,46.55 C4.20305753,46.5595882 4.28694247,46.5595882 4.37,46.55 C4.72,46.46 12.74,44.29 17.57,39.08 C19.85,37.71 22.31,37.36 26.36,36.78 C28.66,36.45 31.53,36.05 35.1,35.33 C44.42,33.48 46.1,26.61 46.33,24.99 C47.6072269,23.5927569 48.2163636,21.7106339 48,19.83 L48,19.83 Z"/>
        <path id="Path" fill="#3D454C" d="M11.27 32.34C11.3913082 32.3864177 11.5201144 32.4100126 11.65 32.4100126 12.0573435 32.4120401 12.4252126 32.1667941 12.58 31.79 13.7650916 28.9385985 14.7279607 25.9998418 15.46 23 15.6018041 22.9824466 15.7382 22.934708 15.86 22.86 16.02 22.75 19.8 20.26 21.32 17.01 21.554721 16.5074209 21.3375791 15.909721 20.835 15.675 20.3324209 15.440279 19.734721 15.6574209 19.5 16.16 18.6363929 17.7503703 17.443117 19.1379797 16 20.23 16.7731882 16.3259322 16.8274098 12.3135353 16.16 8.39 16.0921196 8.0327344 15.8387965 7.73882116 15.4954552 7.61897456 15.1521139 7.49912796 14.770916 7.57155555 14.4954552 7.80897456 14.2199943 8.04639357 14.0921195 8.4127344 14.16 8.77 14.547081 10.9169321 14.674663 13.1026128 14.54 15.28 13.3856328 14.5681349 12.4752892 13.5217629 11.93 12.28 11.7367003 11.7608524 11.1591477 11.4967004 10.64 11.69 10.1208524 11.8832997 9.85670036 12.4608523 10.05 12.98 10.9027558 14.9261152 12.4001644 16.5188777 14.29 17.49L14.36 17.49C13.7545674 22.1344027 12.533856 26.6776015 10.73 31 10.6177433 31.2486124 10.6119198 31.5322926 10.713879 31.7853025 10.8158382 32.0383123 11.0167297 32.2386896 11.27 32.34zM25.86 38.51C25.73 38.61 25.48 38.83 25.12 39.14 17.77 45.58 10.92 48.7 4.7899992 48.4 4.23771525 48.4 3.7899992 48.8477153 3.7899992 49.4 3.78933294 49.9333335 4.20733315 50.3733337 4.74 50.4 5.03 50.4 5.33 50.4 5.63 50.4 12.06 50.4 19.08 47.12 26.49 40.63L27.1 40.1C27.5388029 39.772334 27.632421 39.152671 27.31 38.71 27.1503669 38.4828971 26.9035163 38.332368 26.6285258 38.2944383 26.3535352 38.2565086 26.0751519 38.3345915 25.86 38.51zM40.33 19.65C39.7777153 19.65 39.33 20.0977153 39.33 20.65 39.33 21.2022847 39.7777153 21.65 40.33 21.65 40.8822847 21.65 41.33 21.2022847 41.33 20.65 41.33 20.0977153 40.8822847 19.65 40.33 19.65z"/>
      </g>
    </g>
  </g>
</svg>
