<svg xmlns="http://www.w3.org/2000/svg" width="64" height="64" viewBox="0 0 64 64" style="background:#fff">
  <g id="Spirituosen" fill="none" fill-rule="evenodd" stroke="none" stroke-width="1">
    <rect width="64" height="64" fill="#FFF"/>
    <g transform="translate(2 4)">
      <g id="Layer_2">
        <rect id="Rectangle" width="60" height="60" x="0" y="0"/>
        <rect id="Rectangle" width="60" height="60" x="0" y="0"/>
      </g>
      <g id="Layer_1" fill-rule="nonzero" transform="translate(9 3)">
        <path id="Path" fill="#31D4E0" d="M21.73 46.7C20.55 46.29 19.5 46.81 18.51 46.94 17.4568763 47.0636172 16.4163617 47.2777424 15.4 47.58 14.4 47.91 13.97 49.49 13.91 50.38 13.7807312 51.5766224 14.1786115 52.7702634 15 53.65 16.0205738 54.6822767 17.4084387 55.268344 18.86 55.28 20.5061953 55.4140477 22.0966248 54.6494181 23.02 53.28 24.27 51.62 24 47.49 21.73 46.7zM14.46 19.33C10.66 20.65 7.46 20.48 3.46 19.97 2.37 19.83 1.73 21.44 1.6 22.23 1.38894366 23.4539701 1.7584328 24.7065383 2.6 25.62 6.18596528 29.202269 11.7137198 29.9697859 16.14 27.5 19 25.81 18.56 17.9 14.46 19.33z" opacity=".5"/>
        <path id="Path" fill="#E0A075" d="M41,27.42 C40.64,25.65 39.3,23.64 37.25,24.33 C33.19,25.7 29.43,24.86 25.34,25.4 C22.66,25.75 22.34,30.62 24.34,31.99 C25.0624686,32.4921671 25.8410671,32.9083146 26.66,33.23 C26.528032,34.377409 26.6861985,35.5395892 27.12,36.61 C25.58,39.26 26.18,44.44 28.91,45.07 C32.74,45.95 39.48,46.2 41.84,42.22 C44.32,38 41.87,31.85 41,27.42 Z" opacity=".5"/>
        <path id="Shape" fill="#3D454C" d="M10.63,48.18 C6.09,48.18 2.72,46.92 2.47,46.29 L2.47,43.78 C4.74,45 9,45 9.62,45 C10.1722847,45 10.62,44.5522847 10.62,44 C10.62,43.4477153 10.1722847,43 9.62,43 C5.98,43 3.77,42.29 3.17,41.83 C3.32407521,41.4842091 3.39922679,41.1084513 3.39,40.73 L3.31,36.68 C5.34681022,37.3466084 7.47688423,37.6841796 9.62,37.68 C10.46,37.68 17.74,37.59 17.89,34.68 C17.89,34.68 17.89,34.68 17.89,34.62 L18.27,19.23 C18.2884298,17.7956142 17.642372,16.4333551 16.52,15.54 L14.67,14 C14.6642463,13.4495878 14.4456364,12.9227738 14.06,12.53 L13.7,12.14 L13.7,2.94 C13.7,2.94 13.7,2.89 13.7,2.87 C13.7056088,2.83019662 13.7056088,2.78980338 13.7,2.75 C13.7,1 10.57,0.86 9.62,0.86 C8.67,0.86 5.54,1 5.54,2.75 C5.54,2.75 5.54,2.83 5.54,2.87 C5.54,2.91 5.54,2.87 5.54,2.94 L5.54,12.23 L5.21,12.57 C4.812168,12.9815778 4.58370694,13.5277425 4.57,14.1 L2.74,15.54 C1.62222129,16.4404043 0.98058349,17.8048066 1,19.24 L1.44,40.81 C1.44375004,40.9979632 1.37581795,41.1803072 1.25,41.32 C0.781217125,41.8260101 0.520534541,42.490215 0.52,43.18 L0.52,46.29 C0.52,49.13 6.75,50.18 10.68,50.18 C11.2322847,50.18 11.68,49.7322847 11.68,49.18 C11.68,48.6277153 11.2322847,48.18 10.68,48.18 L10.63,48.18 Z M3.33,34.47 C3.31272674,34.3981236 3.2893072,34.327865 3.26,34.26 L3.07,25.07 C5.18685246,25.7470211 7.39756649,26.0845347 9.62,26.07 C11.8289673,26.0794921 14.0257241,25.7420487 16.13,25.07 L15.9,34.46 C15.5,34.89 13.3,35.66 9.62,35.66 C5.94,35.66 3.72,34.9 3.33,34.47 Z M7.54,7.47 C8.22147513,7.63156169 8.91963864,7.71211902 9.62,7.71 C10.3203095,7.71119723 11.0183655,7.6306523 11.7,7.47 L11.7,9.84 C11.0390402,10.1026119 10.3307729,10.2251967 9.62,10.2 C8.90914768,10.226371 8.20063999,10.1037447 7.54,9.84 L7.54,7.47 Z M11.7,4.47 L11.7,5.35 C11.0401872,5.61665775 10.3310523,5.73939263 9.62,5.71 C8.90880667,5.74158396 8.19920917,5.61876901 7.54,5.35 L7.54,4.44 C8.22426792,4.58133547 8.9212902,4.65170791 9.62,4.65 C10.3186681,4.65086431 11.0156043,4.58050055 11.7,4.44 L11.7,4.47 Z M3.94,17.12 L5.78,15.67 C6.28645634,15.2627159 6.58370207,14.6498759 6.59,14 L6.93,13.66 C7.31832923,13.2690145 7.53741412,12.7410559 7.54,12.19 L7.54,11.93 C8.22018436,12.0998047 8.91895077,12.183791 9.62,12.18 C10.3209777,12.1825499 11.019591,12.098582 11.7,11.93 L11.7,12.19 C11.702034,12.7392216 11.9171352,13.2662196 12.3,13.66 L12.67,14.05 C12.6580989,14.6882763 12.9516155,15.2938866 13.46,15.68 L15.29,17.13 C15.9268421,17.6271548 16.2963846,18.3921077 16.2900814,19.2 L16.2,22.77 L16.2,22.77 C15.81,23.22 13.53,24.04 9.64,24.04 C5.75,24.04 3.46,23.22 3.07,22.77 C3.07,22.77 3.07,22.72 3.07,22.69 L3,19.2 C2.97897863,18.3994431 3.32524565,17.6332352 3.94,17.12 L3.94,17.12 Z"/>
        <path id="Shape" fill="#3D454C" d="M18.84,37.62 C15.42,37.62 11.74,38.62 11.74,40.83 C11.74,40.83 11.74,40.91 11.74,40.95 L11.74,40.95 L11.74,41.06 C11.74,41.12 11.74,41.18 11.74,41.23 L13.6,53.68 L13.6,53.68 C13.75,55.33 16.31,56.07 18.84,56.07 C21.37,56.07 23.93,55.33 24.09,53.68 L24.09,53.68 L25.89,41.26 C25.8956145,41.2034724 25.8956145,41.1465276 25.89,41.09 L25.89,40.98 L25.89,40.98 C25.8948174,40.940145 25.8948174,40.899855 25.89,40.86 C26,38.62 22.26,37.62 18.84,37.62 Z M18.84,39.62 C21.91,39.62 23.64,40.44 23.92,40.83 C23.64,41.22 21.92,42.04 18.84,42.04 C15.76,42.04 14.05,41.22 13.76,40.83 C14.05,40.44 15.78,39.62 18.84,39.62 Z M15.57,53.39 L15.57,53.39 L14.11,43.3 C15.6329563,43.8144922 17.2326778,44.0647657 18.84,44.04 C20.4505888,44.0647295 22.0535903,43.8144719 23.58,43.3 L22.11,53.39 L22.11,53.39 C21.1073453,53.9250501 19.9733503,54.1643335 18.84,54.08 C17.7066497,54.1643335 16.5726547,53.9250501 15.57,53.39 Z"/>
        <path id="Shape" fill="#3D454C" d="M37.71,21.43 C37.1966301,19.9597706 36.4056332,18.601836 35.38,17.43 C36.92,17.05 37.09,16.43 37.11,16.04 C37.3299221,14.9981459 37.3299221,13.9218541 37.11,12.88 L37.11,12.88 C37.11,12.43 37.11,11.06 32.11,11.06 C27.51,11.06 27.17,12.23 27.11,12.76 C26.883461,13.8415986 26.883461,14.9584014 27.11,16.04 C27.11,16.41 27.31,17.04 28.9,17.45 C27.8827135,18.6243576 27.09871,19.9819394 26.59,21.45 C25.45,22.32 21.81,25.79 20.59,34.99 C20.5127669,35.5367395 20.8932837,36.0426029 21.44,36.12 L21.58,36.12 C22.0852593,36.1242854 22.5143321,35.750992 22.58,35.25 C22.8254127,33.3828075 23.2404621,31.5418624 23.82,29.75 C25.96,30.75 30.03,30.91 32.13,30.91 C34.23,30.91 38.39,30.76 40.51,29.72 C41.7065011,33.6491668 42.2702145,37.7436843 42.18,41.85 C42.18,42.28 40.06,44.58 32.18,44.58 C30.842893,44.5860994 29.5067851,44.5059329 28.18,44.34 C27.6277153,44.268203 27.121797,44.6577153 27.05,45.21 C26.978203,45.7622847 27.3677153,46.268203 27.92,46.34 C29.3435938,46.5104027 30.7762492,46.5938907 32.21,46.5901299 C40.46,46.5901299 44.21,44.14 44.21,41.87 C44.19,27.4 39.1,22.5 37.71,21.43 Z M35.28,14.43 C35.2734045,14.7650269 35.2433308,15.0991793 35.19,15.43 C34.209912,15.6773153 33.2004123,15.7883602 32.19,15.76 C31.1795877,15.7883602 30.170088,15.6773153 29.19,15.43 C29.1319373,15.0996046 29.0985119,14.7653505 29.09,14.43 C30.1262391,14.6407423 31.1828361,14.7346621 32.24,14.71 C33.2615677,14.7170224 34.2808769,14.6130796 35.28,14.4 L35.28,14.43 Z M32.14,28.91 C29.7543885,28.9859908 27.370188,28.7199571 25.06,28.12 C27.3720046,27.530701 29.755157,27.2681503 32.14,27.34 C34.5215862,27.2671048 36.9015833,27.5296787 39.21,28.12 C36.9033171,28.7205007 34.5223365,28.9865508 32.14,28.91 L32.14,28.91 Z M32.14,25.34 C29.9155258,25.3063853 27.6935835,25.5041147 25.51,25.93 C26.128516,24.7689581 26.9795273,23.7477446 28.01,22.93 C28.2261289,22.8031045 28.3867288,22.5996779 28.46,22.36 C28.929283,20.8654523 29.7329604,19.4974907 30.81,18.36 C30.9899761,18.1786967 31.09374,17.9353881 31.1,17.68 L32.1,17.68 C32.51,17.68 32.87,17.68 33.22,17.68 C33.2237034,17.9388682 33.3276592,18.1862113 33.51,18.37 C34.588743,19.5062092 35.3926657,20.8745882 35.86,22.37 C35.9307983,22.6080453 36.0876419,22.8112289 36.3,22.94 C37.3445749,23.7485912 38.2038472,24.7715343 38.82,25.94 C36.6208256,25.5042731 34.3816216,25.303147 32.14,25.34 L32.14,25.34 Z"/>
        <path id="Shape" fill="#3D454C" d="M38.6,37.21 C38.6,34.75 35.78,32.83 32.18,32.83 C28.58,32.83 25.75,34.75 25.75,37.21 C25.75,39.67 28.58,41.6 32.18,41.6 C35.78,41.6 38.6,39.67 38.6,37.21 Z M27.75,37.21 C27.75,36.08 29.57,34.83 32.18,34.83 C34.79,34.83 36.6,36.08 36.6,37.21 C36.6,38.34 34.79,39.6 32.18,39.6 C29.57,39.6 27.75,38.34 27.75,37.21 Z"/>
      </g>
    </g>
  </g>
</svg>
