<svg xmlns="http://www.w3.org/2000/svg" width="64" height="64" viewBox="0 0 64 64" style="background:#fff">
  <g id="Spitzkohl" fill="none" fill-rule="evenodd" stroke="none" stroke-width="1">
    <rect width="64" height="64" fill="#FFF"/>
    <g transform="translate(2 6)">
      <g id="Layer_2">
        <rect id="Rectangle" width="60" height="60" x="0" y="0"/>
        <rect id="Rectangle" width="60" height="60" x="0" y="0"/>
      </g>
      <g id="Layer_1" fill-rule="nonzero" transform="translate(6 5)">
        <g id="Group" fill="#31E085" opacity=".5" transform="translate(49 8)">
          <path id="Path" d="M0.5,1.12 C0.5,0.69 0.5,0.8 0.5,1.17 C0.5,1.54 0.57,1.73 0.5,1.12 Z"/>
        </g>
        <g id="Group" fill="#31E085" opacity=".5" transform="translate(2)">
          <path id="Path" d="M47.47,9.17 C47.35,8.47 47.13,6.98 47.05,6.72 C46.5748055,5.34662827 45.8302605,4.08192158 44.86,3 L44,2 C42.4743814,0.647294322 40.3204259,0.261280789 38.42,1 C34.69,2.53 32.51,6.51 31.28,10.17 C30.43,12.72 30.52,14.89 28.89,16.09 C28.0275601,16.6883333 27.089323,17.1692218 26.1,17.52 C25.96,12.78 24.44,8.09 21.1,5.98 C15.76,2.65 11.31,2.62 6.66,7.17 C1.73,12 -5.55111512e-17,20.15 0.47,26.68 C1.27,38.46 9.55,51.68 22.97,49.68 C33.862268,47.9623589 42.6647503,39.8848796 45.31,29.18 C46.31,25.18 46.4,20.33 47.03,17.03 C47.3430192,15.657139 47.5569042,14.2635447 47.67,12.86 C47.69,12.44 47.52,10.06 47.47,9.17 Z"/>
        </g>
        <path id="Shape" fill="#3D454C" d="M48.56,7.47 C48.4168498,7.07405256 48.0410301,6.81017913 47.62,6.81 C46.0825924,6.75823079 44.5530226,6.56745294 43.05,6.24 C40.8316241,5.67247997 38.5197831,5.57033677 36.26,5.94 C33.5801062,4.24136845 30.5767224,3.11765341 27.44,2.64 C26.7759665,2.53185508 26.1341341,2.3156589 25.54,2 C24.67,1.54 23.59,1 23.59,1 C23.332085,0.88575558 23.037915,0.88575558 22.78,1 C21.7302971,1.45787622 20.7479179,2.05672381 19.86,2.78 C7.98629715,4.86384617 -0.325150712,15.677502 0.715815416,27.6876487 C1.75678154,39.6977954 11.8048294,48.9201624 23.86,48.93 L24.6,48.93 L24.77,48.93 C31.8906361,48.6643191 38.4966437,45.149463 42.69548,39.3923961 C46.8943163,33.6353293 48.2226761,26.2712945 46.3,19.41 C45.9564457,18.1998081 45.7814633,16.9480111 45.78,15.69 C45.78,10.78 48.17,8.69 48.26,8.58 C48.5839874,8.31023198 48.7039834,7.86624662 48.56,7.47 Z M23.12,3 L24.6,3.77 C25.3932261,4.19528749 26.2515665,4.48590669 27.14,4.63 C29.5406481,4.98462226 31.8616665,5.75265605 34,6.9 C32,8.12 30.45,10.29 29.14,13.58 C26.7833511,13.9337369 24.6176307,15.0800873 23,16.83 C21.6672361,18.4957567 21.0810861,20.6377369 21.38,22.75 C21.8686437,26.565331 21.8114023,30.4308108 21.21,34.23 C19.0440382,32.4273898 16.4743764,31.1751513 13.72,30.58 L13.44,30.5 C17.51,26.5 16.01,19.09 15.95,18.83 C15.08,10.99 18.17,6.67 20.95,4.42 C21.6191099,3.86857444 22.3468146,3.39238062 23.12,3 Z M17.17,5.47 C15,8.32 13.28,12.67 14,19.15 C14,19.23 15.56,26.79 11.26,29.74 C6.90424958,28.0445963 3.91450276,23.9920879 3.58,19.33 C5.58429235,12.769217 10.652993,7.5923542 17.17,5.45 L17.17,5.47 Z M10,41.7 C5.31624053,37.6700793 2.62159705,31.7988236 2.62,25.62 C2.62,25.1 2.62,24.62 2.69,24.09 C4.68368497,28.4080283 8.59758675,31.5324783 13.25,32.52 C17.25,33.52 19.45,35.14 20.63,36.45 C20.1701547,37.9059382 19.3517514,39.2229486 18.25,40.28 C16.36,42 13.58,42.46 10,41.7 Z M44.37,19.94 C47.2931228,30.4894543 41.7155881,41.5319337 31.49,45.44 C34.5266693,42.8806467 36.4193802,39.2175674 36.75,35.26 C36.75,34.7077153 36.3022847,34.26 35.75,34.26 C35.1977153,34.26 34.75,34.7077153 34.75,35.26 C34.75,35.35 34.47,43.88 24.58,46.8402203 C24.35,46.8402203 24.12,46.8402203 23.88,46.8402203 C20.1692983,46.8569589 16.5198072,45.8945695 13.3,44.05 C15.6051191,44.0932711 17.843809,43.2769335 19.58,41.76 C21.0046734,40.3880418 22.0398832,38.6626921 22.58,36.76 C22.6512001,36.6373903 22.6955134,36.5010416 22.71,36.36 C24.21,31.29 23.61,25.12 23.35,22.59 C23.1122346,21.0135901 23.5315413,19.4086576 24.51,18.15 C25.8049268,16.7771281 27.5235269,15.8790891 29.39,15.6 C30.8868478,17.4027986 31.7323603,19.6574983 31.79,22 C31.706946,23.928966 31.0057626,25.7800902 29.79,27.28 C29.4586292,27.7218278 29.5481722,28.3486292 29.99,28.68 C30.1630962,28.8098221 30.3736298,28.88 30.59,28.88 C30.9047573,28.88 31.2011456,28.7318058 31.39,28.48 C32.9022477,26.6340793 33.7540501,24.3356207 33.81,21.95 C33.7705603,19.1516167 32.7795164,16.4500523 31,14.29 C32.44,10.67 34.17,8.64 36.4,7.96 C38.28,7.4 40.4,7.79 42.71,8.21 C43.71,8.39 44.65,8.57 45.65,8.69 C44.3792943,10.7995418 43.7374609,13.2281006 43.8,15.69 C43.7984437,17.125825 43.9901651,18.5553263 44.37,19.94 Z"/>
        <path id="Path" fill="#3D454C" d="M35.89,30 C35.3377153,30 34.89,30.4477153 34.89,31 C34.89,31.5522847 35.3377153,32 35.89,32 C36.4422847,32 36.89,31.5522847 36.89,31 C36.89,30.4477153 36.4422847,30 35.89,30 Z"/>
      </g>
    </g>
  </g>
</svg>
