<svg xmlns="http://www.w3.org/2000/svg" width="64" height="64" viewBox="0 0 64 64" style="background:#fff">
  <g id="Sprossen" fill="none" fill-rule="evenodd" stroke="none" stroke-width="1">
    <rect width="64" height="64" fill="#FFF"/>
    <g transform="translate(2 4)">
      <g id="Layer_2">
        <rect id="Rectangle" width="60" height="60" x="0" y="0"/>
        <rect id="Rectangle" width="60" height="60" x="0" y="0"/>
      </g>
      <g id="Layer_1" fill-rule="nonzero" transform="translate(5 5)">
        <path id="Path" fill="#E0A075" d="M38.21,33.28 C36.6,32.08 35,32.87 34.1,34.28 C27.87,37.43 26.82,49.28 33.77,52.16 C37.77,53.86 41.39,50.27 42.49,46.66 C43.8218094,41.7463322 42.1463275,36.508494 38.21,33.28 Z" opacity=".5"/>
        <path id="Path" fill="#31E085" d="M27.14 4C26.74 2.77 25.88 1.32 24.39 1.32994856 22.02 1.32994856 20.12 3.95 18.77 5.63 17.0350898 7.61365867 15.8765241 10.0345422 15.42 12.63 15.15 14.83 16.53 19 19.34 17 20.64 16.09 21.55 14.38 22.61 13.19 23.9 11.75 25.78 10.62 26.61 8.86 27.4228247 7.37396174 27.6134126 5.62630693 27.14 4zM15.1 21.47C13.76 19.61 11.6 18.78 9.77 17.47 7.94 16.16 6.77 14.03 4.36 13.64 2.36 13.31 1.36 16.91 1.5 18.24 1.88 22.24 3.88 24.63 7.22 26.56 9.48 27.87 12.78 28.56 14.8 26.47 15.9852774 25.0493108 16.1069028 23.02222 15.1 21.47L15.1 21.47zM22.35 36.87C20.58 34.16 17.65 36.47 17.47 38.98 17.2849262 40.0587865 17.2849262 41.1612135 17.47 42.24L17.47 42.24C17.0432086 42.1180616 16.6308215 41.9504245 16.24 41.74 14.5 40.44 14.57 38.64 14.24 36.74 13.83 34.74 11.73 33.08 10.24 35.25 6.79 40.33 10.24 49.25 15.51 51.62 18.51 53 21.39 51.37 22.87 48.62 24.7302464 44.8748226 24.533814 40.4362062 22.35 36.87L22.35 36.87zM42 19C41.64 17.89 40.76 16.31 39.35 16.42 36.7 16.62 34.72 19.77 33.73 21.96 32.5890431 24.4815439 32.3318495 27.3141964 33 30 33.23 31 33.91 32.41 35.16 32.38 36.41 32.35 36.98 30.92 37.16 29.9 37.427132 28.827369 37.8843617 27.8113032 38.51 26.9 39.36 25.65 40.69 24.9 41.51 23.67 42.3171387 22.2496847 42.4947525 20.5569163 42 19z" opacity=".5"/>
        <path id="Shape" fill="#3D454C" d="M26.13.65C25.9.65 20.44 1.02 17.13 5.12 15.05 7.66 14.27 11.05 14.82 15.18 14.4235295 16.2814574 14.2074177 17.4396814 14.18 18.61 9.39 12.71 1.81 14.93 1.71 15 1.21984894 15.1405609.913955831 15.6274049 1 16.13 1.06 16.41 2.55 22.84 7.34 25.13 8.47558657 25.7011068 9.7288907 25.9990233 11 26 12.4223278 25.9720154 13.8267175 25.67689 15.14 25.13 15.4281708 26.0231794 15.7619422 26.9009981 16.14 27.76 16.9199711 29.9091586 16.7565597 32.2877023 15.69 34.31 15.1763458 34.3676 14.6778765 34.5201927 14.22 34.76 14.22 34.63 14.14 34.54 14.13 34.51 14.0155601 34.1891773 13.7456866 33.9486698 13.4138554 33.8717821 13.0820241 33.7948944 12.7338764 33.8922018 12.49 34.13 8.89813082 37.9600271 8.21345798 43.6804889 10.8 48.25 11.6187075 49.7306445 13.0052544 50.8138843 14.64 51.25 15.2674989 51.4311669 15.9168883 51.5253789 16.57 51.53 17.2129762 51.5216923 17.8519612 51.4275261 18.47 51.25 20.1021315 50.808645 21.4868415 49.7268404 22.31 48.25 24.8939018 43.6783678 24.2051522 37.9576951 20.61 34.13 20.4237394 33.9452558 20.1723399 33.8411046 19.91 33.84L19.91 33.84C19.6433183 33.8490029 19.3912949 33.9642136 19.21 34.16 19.0268479 34.390379 18.8785932 34.6464553 18.77 34.92 18.4783353 34.7571207 18.1698648 34.626356 17.85 34.53 18.8313543 32.1217354 18.8635141 29.431032 17.94 27 15.49 21.36 16.13 17.68 16.52 16.36 20.41 16.28 23.33 15.05 25.22 12.7 28.73 8.32 27.22 1.7 27.16 1.47 27.0703988.977334277 26.6302141.626895965 26.13.65zM8.25 23.37C5.31 21.95 3.82 18.37 3.25 16.65 5.62 16.23 11.7 15.96 14.47 23.24 12.5132605 24.1817721 10.2443802 24.2291924 8.25 23.37zM20.52 47.29C19.9446676 48.2803142 18.9980337 49.0001879 17.89 49.29 17.4495743 49.410209 16.9963606 49.4773518 16.54 49.49 16.0703006 49.479584 15.6035822 49.4124302 15.15 49.29 14.0446865 48.9998384 13.1013112 48.2797046 12.53 47.29 10.6102112 44.0546501 10.7230688 40.0034528 12.82 36.88 13.57 39.08 14.82 42.88 15.54 45.48 15.6606641 45.9292179 16.0751312 46.2359235 16.54 46.22 17.0009317 46.2071884 17.393345 45.8808658 17.49 45.43 18.2069345 42.4840939 19.08492 39.5797311 20.12 36.73 22.2900639 39.8745286 22.4459651 43.9903188 20.52 47.29zM16.46 41.51C15.91 39.78 15.32 38.02 14.87 36.69 15.2742436 36.3842049 15.7739074 36.2318252 16.28 36.26 16.8847523 36.26708 17.4747707 36.4475563 17.98 36.78 17.48 38.18 16.92 39.92 16.46 41.51zM23.66 11.4C22.2 13.22 19.86 14.2 16.66 14.31 16.34 11.03 16.99 8.37 18.6 6.39 20.3564651 4.43866255 22.7345988 3.15595451 25.33 2.76 25.62 4.54 25.88 8.62 23.66 11.4zM39.51 34.86C39.2167558 34.5523291 38.8798092 34.2895107 38.51 34.08L38.41 34.08C38.2792631 33.9782669 38.1423328 33.8847534 38 33.8 37.79 32.54 37.36 29.24 38.06 27.12 38.1959609 26.5094403 38.5899252 25.9878024 39.14 25.69 39.7236187 25.5091408 40.3532653 25.5482713 40.91 25.8 41.310657 25.9947164 41.7918003 25.9009342 42.09 25.57 42.3906163 25.2394851 42.4355169 24.7496605 42.2 24.37 42.11 24.23 40 20.89 36.35 21.84 31.7 23.06 32.04 29.3 32.45 34.15 32.1496813 34.3381043 31.8741899 34.5632009 31.63 34.82 28.1956886 38.496618 27.5363757 43.9733647 30 48.36 30.7957597 49.774518 32.1306154 50.8063254 33.7 51.22 34.9002137 51.5802719 36.1797863 51.5802719 37.38 51.22 38.9456641 50.8039129 40.2765407 49.7723933 41.07 48.36 43.545562 44.0004814 42.9145772 38.5400359 39.51 34.86L39.51 34.86zM39.34 47.41C38.8053277 48.347397 37.9145757 49.0289846 36.87 49.3 36.0218663 49.5534713 35.1181337 49.5534713 34.27 49.3 33.224225 49.0262255 32.3313004 48.3457306 31.79 47.41 29.6878624 43.7956289 30.2258017 39.2272201 33.11 36.2 33.3592186 35.9510618 33.6503314 35.7479598 33.97 35.6 34.3713732 35.4058326 34.5957094 34.9693968 34.52 34.53 34.16 30.32 33.69 24.61 36.89 23.78 37.4118956 23.6237932 37.9681044 23.6237932 38.49 23.78L38.4 23.78C37.3041719 24.2961984 36.4918584 25.269511 36.18 26.44 35.25 29.28 35.95 33.53 36.12 34.44L36.12 34.44C35.9943434 34.5215051 35.8771003 34.6152996 35.77 34.72 33.93 36.48 33.6 40.4 33.63 41.64 33.63 42.1922847 34.0777153 42.64 34.63 42.64L34.63 42.64C35.1822847 42.64 35.63 42.1922847 35.63 41.64 35.63 40.33 36.02 37.3 37.15 36.21 37.309493 36.0438998 37.5214241 35.9379343 37.75 35.91 37.8483137 35.9839996 37.9418348 36.0641605 38.03 36.15L38.03 36.15C40.9097993 39.200122 41.4426519 43.7802145 39.34 47.41L39.34 47.41z"/>
        <path id="Path" fill="#3D454C" d="M34.86,44.32 C34.3077153,44.32 33.86,44.7677153 33.86,45.32 C33.86,45.8722847 34.3077153,46.32 34.86,46.32 C35.4122847,46.32 35.86,45.8722847 35.86,45.32 C35.86,44.7677153 35.4122847,44.32 34.86,44.32 Z"/>
      </g>
    </g>
  </g>
</svg>
