<svg xmlns="http://www.w3.org/2000/svg" width="64" height="64" viewBox="0 0 64 64" style="background:#fff">
  <g id="Stärke-(Kartoffel)" fill="none" fill-rule="evenodd" stroke="none" stroke-width="1">
    <rect width="64" height="64" fill="#FFF"/>
    <g transform="translate(2 8)">
      <g id="Layer_2">
        <rect id="Rectangle" width="60" height="60" x="0" y="0"/>
        <rect id="Rectangle" width="60" height="60" x="0" y="0"/>
      </g>
      <g id="Layer_1" fill-rule="nonzero" transform="translate(7 6)">
        <path id="Shape" fill="#E0A075" d="M22,20.63 C20.67,17.24 17.62,14.86 14.82,12.71 C12.32,10.79 9.43,8.38 6.07,9.1 C4.15371452,9.50722791 2.50833891,10.7257544 1.56,12.44 C0.604982449,13.4657804 0.144866605,14.8570831 0.3,16.25 C-0.25,20.35 1.3,24.98 4.63,26.81 C6.88,29.98 9.83,32.59 13.15,33.47 C20.87,35.52 24.45,26.79 22,20.63 Z M12.21,22.78 C11.3949525,22.1825519 10.6531681,21.4911149 10,20.72 C10.9,21.28 11.77,22.03 12.58,22.61 C12.85,22.81 13.13,23.06 13.42,23.31 C12.999069,23.2026369 12.5998605,23.0233314 12.24,22.78 L12.21,22.78 Z" opacity=".5"/>
        <path id="Path" fill="#CCC" d="M41.18,33.76 C40.0836213,31.1008049 39.1551315,28.3754533 38.4,25.6 C37.72,23.22 37.4,20.88 35.61,19.07 C34.47,17.92 33.06,19.23 32.61,20.34 C31.45,23.49 32.02,27.42 32.95,31.17 C29.3986891,31.293897 25.9145927,32.1734438 22.73,33.75 C19.64,35.49 19.24,44.05 23.88,43.89 C26.31,43.81 28.64,43.02 31.03,42.65 C33.42,42.28 35.9,42.16 38.33,41.86 C41.88,41.42 42.28,36.35 41.18,33.76 Z" opacity=".5"/>
        <path id="Shape" fill="#3D454C" d="M43.48,20.79 L41.48,16.88 C41.5457774,16.8494293 41.6064819,16.8089597 41.66,16.76 C41.8447442,16.5737394 41.9488954,16.3223399 41.95,16.06 L41.95,10.06 C41.95,8.40314575 40.6068542,7.06 38.95,7.06 L31.9,7.06 C31.9597224,6.73001231 31.9898422,6.3953485 31.99,6.06 C31.99,2.7462915 29.3037085,0.06 25.99,0.06 C22.6762915,0.06 19.99,2.7462915 19.99,6.06 C19.9951698,6.39510346 20.0252528,6.72935851 20.08,7.06 L12.9999989,7.06 C12.4061137,7.05769303 11.8249045,7.23170775 11.33,7.56 C10.8716037,7.86927946 10.7507206,8.49160365 11.06,8.94999999 C11.3692795,9.40839633 11.9916037,9.52927945 12.45,9.22 C12.6138098,9.11417767 12.8049873,9.05856242 12.9999989,9.06 L38.9999989,9.06 C39.5522847,9.06 39.9999989,9.50771525 39.9999989,10.06 L39.9999989,15.06 L22.06,15 L22.06,15 C21.5077153,15 21.06,15.4477153 21.06,16 C21.06,16.5522847 21.5077153,17 22.06,17 L23.52,17 C23.579878,17.005411 23.640122,17.005411 23.7,17 L39.37,17 L41.69,21.63 C42.5549324,23.3591492 43.0035419,25.2665956 42.9999989,27.2 L42.9999989,39.68 C43.0061203,41.2839494 42.0535338,42.736447 40.58,43.37 C35.9437579,45.2152539 30.9894787,46.129315 25.9999989,46.06 C21.013878,46.1279998 16.0631242,45.2139622 11.43,43.37 C9.95254889,42.7395116 8.99558833,41.2863493 8.9999989,39.68 L8.9999989,33.18 C8.9999989,32.6277153 8.55228475,32.18 7.9999989,32.18 C7.44771525,32.18 6.9999989,32.6277153 6.9999989,33.18 L6.9999989,39.68 C6.9985487,42.0828752 8.43080571,44.2548694 10.64,45.2 C15.5215668,47.1560011 20.7415766,48.127956 25.9999989,48.06 C31.2582203,48.1255916 36.4777717,47.153722 41.36,45.2 C43.5691943,44.2548694 45.0014513,42.0828752 44.9999989,39.68 L44.9999989,27.2 C44.9950876,24.9746285 44.4748267,22.7806336 43.48,20.79 Z M22.12,7.06 C22.0319612,6.73401607 21.9882348,6.39765845 21.9899486,6.06 C21.9899486,3.850861 23.780861,2.06 25.99,2.06 C28.199139,2.06 29.9900227,3.850861 29.9900227,6.06 C29.9911655,6.39762094 29.9474494,6.733899 29.86,7.06 L22.12,7.06 Z"/>
        <path id="Path" fill="#3D454C" d="M14.2,40.55 C13.8584724,40.4183214 13.4722917,40.4837593 13.1932092,40.7205995 C12.9141268,40.9574398 12.7867429,41.3278329 12.8611137,41.6862311 C12.9354845,42.0446294 13.1997247,42.333757 13.55,42.44 C17.5653014,43.7659907 21.7716221,44.4214335 26,44.38 C30.28866,44.4203582 34.553964,43.7443988 38.62,42.38 C40.1173212,41.8348732 41.1155049,40.4134597 41.12,38.82 C41.12,35.39 41.17,28.51 41.17,28.51 C41.1675725,27.7295349 41.0803948,26.9516412 40.91,26.19 L40.91,26.02 C40.7884988,25.1013275 40.3869589,24.2423813 39.76,23.56 C39.2698852,23.1147792 38.6561569,22.8288377 38,22.74 C36.6433315,22.5803163 35.2682683,22.7625121 34,23.27 C33.6368509,23.3709874 33.3613386,23.6675932 33.287367,24.0371929 C33.2133954,24.4067927 33.3535333,24.7865866 33.649844,25.0195581 C33.9461547,25.2525296 34.3482912,25.2990938 34.69,25.14 C35.6385863,24.7490696 36.6697947,24.601263 37.69,24.71 C37.9369049,24.7456829 38.1689466,24.8495821 38.36,25.01 C38.6735475,25.4266976 38.8671961,25.9211931 38.92,26.44 L38.92,26.62 C39.0594861,27.2369425 39.1299191,27.8674856 39.13,28.5 C39.13,28.5 39.13,35.37 39.08,38.8 C39.0862744,39.5516198 38.6171524,40.2252309 37.91,40.48 C34.0734975,41.7721147 30.0481028,42.4142851 26,42.38 C21.9928648,42.4220802 18.0061634,41.8038037 14.2,40.55 Z"/>
        <path id="Path" fill="#3D454C" d="M30.66,24.71 C30.1077153,24.71 29.66,25.1577153 29.66,25.71 C29.66,26.2622847 30.1077153,26.71 30.66,26.71 C31.2122847,26.71 31.66,26.2622847 31.66,25.71 C31.66,25.1577153 31.2122847,24.71 30.66,24.71 Z"/>
        <path id="Shape" fill="#3D454C" d="M14,33.71 C14.7110814,33.6973038 15.4186334,33.606764 16.11,33.44 C18.227477,32.7677277 20.1587405,31.6103394 21.75,30.06 C23.051772,28.7323978 23.7310988,26.9160159 23.62,25.06 C23.4023094,22.475103 22.199358,20.0727803 20.26,18.35 C19.9297471,16.8950268 19.1367888,15.5862946 18,14.62 C15.25,12.49 12.65,10.49 10.08,10.14 C7.2248343,9.86746579 4.38764314,10.815618 2.27,12.75 C-0.25,14.94 0.04,18.39 0.44,20.24 C1.09,23.29 3.76,26.24 6.3,28.77 C7.07070555,29.6417738 8.0782736,30.2706353 9.2,30.58 C10.39,32.25 11.47,33.71 14,33.71 Z M2.43,19.83 C2.13,18.4 1.88,15.83 3.63,14.25 C5.10516573,12.9100283 7.00824506,12.1374561 9,12.07 C9.27737508,12.0714074 9.55446186,12.0880993 9.83,12.12 C11.83,12.4 14.25,14.24 16.83,16.24 C17.58,16.82 17.83,17.59 18.42,19.24 C18.4771675,19.4063434 18.5771987,19.5546655 18.71,19.67 C20.347001,21.0531987 21.3831149,23.0178715 21.6,25.15 C21.6779325,26.4464549 21.2017607,27.7150346 20.29,28.64 C18.9596977,29.8996205 17.3737518,30.8580094 15.64,31.45 C12.71,32.12 12.17,31.34 10.73,29.23 L10.63,29.1 C10.4909147,28.8949632 10.2806667,28.7488586 10.04,28.69 C9.13115863,28.5027401 8.31101758,28.0169914 7.71,27.31 C5.42,25.05 3,22.36 2.43,19.83 Z"/>
        <path id="Path" fill="#3D454C" d="M14.94 21.07C14.6972133 21.1772815 14.5070393 21.3766867 14.4113774 21.6242822 14.3157155 21.8718776 14.3224151 22.1473476 14.43 22.39L14.43 22.39C14.268055 22.420117 14.101945 22.420117 13.94 22.39 13.6800343 22.333681 13.4083426 22.3832555 13.1850201 22.5277583 12.9616976 22.6722611 12.8051486 22.8997835 12.75 23.16 12.6389301 23.6980725 12.9827584 24.2249782 13.52 24.34 13.7433671 24.3884928 13.9714381 24.4119707 14.2 24.41 14.9129467 24.4459127 15.60513 24.1639121 16.09 23.64 16.5540442 23.0446845 16.6170494 22.2295547 16.25 21.57 16.0228905 21.0738304 15.4399478 20.8513332 14.94 21.07zM7.65 19C7.40721329 19.1072815 7.21703927 19.3066867 7.12137738 19.5542822 7.02571549 19.8018776 7.03241505 20.0773476 7.14 20.32L7.14 20.32C6.96846367 20.3552976 6.79153633 20.3552976 6.62 20.32 6.0819275 20.2089301 5.55502176 20.5527584 5.44 21.09 5.38368098 21.3499657 5.43325554 21.6216574 5.57775834 21.8449799 5.72226115 22.0683024 5.94978348 22.2248514 6.21 22.28 6.43404619 22.3240984 6.66166852 22.3475301 6.89 22.35 7.61044004 22.3838076 8.30917695 22.0984596 8.8 21.57 9.2544357 20.985446 9.33225583 20.1916806 9 19.53 8.89691571 19.2759259 8.6940285 19.075324 8.43880301 18.9751244 8.18357752 18.8749248 7.89840485 18.8839179 7.65 19zM12.64 19.7700008L12.69 19.7700008C13.769937 19.7691213 14.7694441 19.1990602 15.32 18.27 15.6357695 17.4878182 15.4503935 16.5924917 14.85 16 14.5006324 15.5774112 13.8761303 15.514961 13.45 15.86 13.2440117 16.0281158 13.1134547 16.2713435 13.0871841 16.5359261 13.0609135 16.8005087 13.1410924 17.0646605 13.31 17.27L13.47 17.48C13.2119618 17.6618865 12.9056187 17.7628405 12.59 17.77 12.3246654 17.7829343 12.0753813 17.9009119 11.8971534 18.0979007 11.7189255 18.2948894 11.6264025 18.5546986 11.64 18.82 11.6666663 19.3526668 12.1066665 19.7706671 12.64 19.7700008L12.64 19.7700008zM15.68 27.39C15.623681 27.6499657 15.6732555 27.9216574 15.8177583 28.1449799 15.9622611 28.3683024 16.1897835 28.5248514 16.45 28.58 16.7129197 28.6359639 16.9812047 28.6627924 17.25 28.66 18.0640113 28.7084437 18.8568133 28.3891207 19.41 27.79 19.9280928 27.117434 19.994983 26.2006444 19.58 25.46 19.3416052 24.9846121 18.7728305 24.7789742 18.2855444 24.9919954 17.7982584 25.2050166 17.5629439 25.762169 17.75 26.26 17.82 26.43 17.84 26.52 17.85 26.54 17.5342079 26.6745907 17.1831732 26.7026734 16.85 26.62 16.3153582 26.5150775 15.795115 26.8574598 15.68 27.39z"/>
      </g>
    </g>
  </g>
</svg>
