<svg xmlns="http://www.w3.org/2000/svg" width="64" height="64" viewBox="0 0 64 64" style="background:#fff">
  <g id="Stangensellerie" fill="none" fill-rule="evenodd" stroke="none" stroke-width="1">
    <rect width="64" height="64" fill="#FFF"/>
    <g transform="translate(2 4)">
      <g id="Layer_2">
        <rect id="Rectangle" width="60" height="60" x="0" y="0"/>
        <rect id="Rectangle" width="60" height="60" x="0" y="0"/>
      </g>
      <g id="Layer_1" fill-rule="nonzero" transform="translate(4 4)">
        <path id="Path" fill="#31E085" d="M52.2,20.05 C54.02,18.3 53.91,13.91 51.4,12.79 C49.6274452,12.1498837 47.7091146,12.0284703 45.87,12.44 C44.5707636,12.5560434 43.278838,12.7429887 42,13 C43.1572649,10.9686818 44.0001591,8.77378515 44.5,6.49 C44.93,3.82 43.14,-0.92 39.89,1.35 C38.35,2.43 37.3,4.61 36.34,6.22 C35.6615547,7.32379869 35.0407234,8.46198938 34.48,9.63 C34.546938,7.26611088 34.0678591,4.91862441 33.08,2.77 C30.52,-2.7 25.9,2.68 27,6.92 C28.65,13.14 19.72,17.3 15.84,20.72 C11.68,24.38 8.84,28.65 8.74,34.27 C8.67,37.34 12.21,41.72 14.65,37.79 C16.65,34.61 18.06,31.86 20.97,29.39 C24.06,26.77 27.41,24.59 29.97,21.39 C31.4890489,19.5241797 32.6670951,17.4050505 33.45,15.13 C33.5608375,16.0850909 33.9041979,16.9984297 34.45,17.79 C35.11,18.71 36.55,19.79 37.73,19.01 C37.7622091,18.9935303 37.7924091,18.973397 37.82,18.95 C37.8462307,20.0309934 38.1641025,21.0848077 38.74,22 C35.5446424,21.8489077 32.4118904,22.9217679 29.98,25 C27.4,27.19 25.73,30.15 23.74,32.83 C22.8959912,34.146025 21.8420257,35.3148457 20.62,36.29 C18.84,37.52 16.77,37.65 14.86,38.56 C11.11,40.34 11.94,46.95 15.11,48.76 C20.79,52.02 26.54,45.22 29.37,40.97 C31.11,38.35 32.61,35.08 35.5,33.52 C39.42,31.42 43.63,34.02 47.69,33.83 C50.99,33.67 50.2,28.4 48.76,26.83 C47.4712487,25.4147264 45.9277363,24.2545479 44.21,23.41 C45.21,23.17 46.11,22.84 47.03,22.59 C48.9423506,22.1998588 50.7225111,21.3252731 52.2,20.05 Z" opacity=".5"/>
        <path id="Shape" fill="#3D454C" d="M52.26,14.3 C52.26,13.19 52.19,11.93 51.18,11.3 C50.17,10.67 48.63,11.22 47.45,11.79 C46.27,12.36 45.86,12.21 45.82,12.19 C45.58,12.06 45.47,11.31 45.42,10.9 C45.31,10.2 45.19,9.33 44.36,9.07 C43.53,8.81 42.72,9.59 42.36,9.97 C40.36,12.15 40.17,12.49 39.44,14.89 C39.32,15.28 39.18,15.73 39.01,16.26 C38.9655076,16.4512427 38.9321185,16.6448997 38.91,16.84 C38.8887306,17.0688905 38.8519798,17.2960773 38.8,17.52 L32.64,23.47 C32.4506873,23.6577666 32.3442017,23.9133625 32.3442017,24.18 C32.3442017,24.4466375 32.4506873,24.7022334 32.64,24.89 C32.8270714,25.0808556 33.0827541,25.1888906 33.35,25.1900181 C33.6109276,25.1915675 33.8621334,25.0910851 34.05,24.91 L39.84,19.31 C41.84,20.04 46.75,21.84 47.22,21.86 L47.32,21.86 C48.796113,21.758614 50.0027134,20.6435488 50.22,19.18 C50.291968,18.579825 50.1308972,17.974915 49.77,17.49 C51.2,17.17 52.47,16.61 52.33,15.33 C52.28,15 52.27,14.64 52.26,14.3 Z M47.75,15.83 C46.64,15.99 45.84,16.11 45.81,17.04 C45.81,17.63 46.19,18.04 46.98,18.18 C47.29,18.24 48.28,18.48 48.22,18.96 C48.1149953,19.3943802 47.7877598,19.7406411 47.36,19.87 C46.62,19.65 42.68,18.25 40.84,17.58 C40.84,17.41 40.84,17.24 40.91,17.09 C40.98,16.94 40.91,16.91 40.91,16.88 C41.08,16.34 41.22,15.88 41.34,15.48 C41.6223034,14.0124742 42.3774566,12.6777847 43.49,11.68 C43.5586964,12.6301654 44.074591,13.491227 44.88,14 C45.74,14.46 46.88,14.34 48.32,13.64 C48.8679077,13.316509 49.4778172,13.11207 50.11,13.04 C50.2301289,13.4828297 50.2807323,13.9416341 50.26,14.4 C50.26,14.7 50.26,15 50.26,15.31 C49.4425067,15.5655971 48.6017541,15.739777 47.75,15.83 Z"/>
        <path id="Shape" fill="#3D454C" d="M47.75,27 C46.65,26.48 46.56,26.13 46.56,26.13 C46.56,25.97 47,25.47 47.16,25.31 C47.57,24.86 48.16,24.26 47.84,23.48 C47.52,22.7 46.5,22.54 46.01,22.48 C43.34,22.23 43.01,22.32 40.92,23.1 L39.73,23.54 C39.2399118,23.7224008 38.759305,23.9293287 38.29,24.16 L38.2,24.23 C38.1450524,24.2453982 38.0915237,24.2654715 38.04,24.29 C34.5437904,26.4815885 31.1903678,28.8931135 28,31.51 C23,35.51 19.63,38.1 13.49,38.35 C13.59668,37.670716 13.7605971,37.0016669 13.98,36.35 C14.5904353,34.6272889 15.3956546,32.9799444 16.38,31.44 L38.72,13.17 C38.9968809,12.9431364 39.131699,12.5857915 39.0736697,12.2325739 C39.0156405,11.8793562 38.7735798,11.5839278 38.4386697,11.4575738 C38.1037596,11.3312198 37.7268808,11.3931363 37.45,11.62 L22.73,23.62 C24.07,22.19 25.57,20.62 27.26,18.9 L27.98,18.16 C28.0548961,18.0828562 28.1128058,17.990882 28.15,17.89 C28.2057543,17.8662305 28.256615,17.8323235 28.3,17.79 L31.21,14.41 L31.6,14.24 C31.7714177,14.1741142 31.938428,14.0972895 32.1,14.01 L33.19,13.32 C34.7720269,12.4885315 36.0446887,11.1702923 36.82,9.56 C37.08,9.13 37.62,8.25 37.14,7.49 C36.6527993,6.96204411 35.9006167,6.77008086 35.22,7 C34.93,7 34.22,7.11 34.11,7 C34,6.89 33.91,6.47 34.11,5.49 C34.46,3.67 34.32,2.62 33.64,1.97 C32.96,1.32 31.71,1.46 30.73,1.69 C30.43,1.75 30.12,1.83 29.81,1.87 C28.6,2 28.37,3.18 28.41,4.53 C27.9333146,4.36845581 27.4166854,4.36845581 26.94,4.53 C25.5929232,5.10856939 24.8613236,6.57599746 25.21,8 L25.21,8 C25.31,8.3 27.84,12.2 29.04,13.94 L26.78,16.55 C26.7335903,16.614448 26.6965549,16.6851519 26.67,16.76 C26.67,16.76 26.58,16.76 26.55,16.84 L25.83,17.58 C20.69,22.87 17.15,26.58 14.71,30.34 C14.71,30.34 14.71,30.34 14.71,30.34 C13.6314298,32.0238551 12.7490267,33.8255678 12.08,35.71 C11.6728471,36.9713956 11.3980344,38.2717288 11.26,39.59 C11.0100763,41.7285844 10.5306473,43.8340486 9.83,45.87 C9.63830514,46.4255245 9.40773505,46.966863 9.14,47.49 C8.75881671,46.4521828 8.18547984,45.4954905 7.45,44.67 C7.12,44.28 4.78,41.67 2.7,41.22 C4.41,32.88 12.76,25.95 19.55,20.33 C21.8772729,18.4809761 24.0975232,16.5011139 26.2,14.4 C26.567601,13.9976712 26.5453656,13.37508 26.15,13 C25.7463432,12.6257587 25.1161343,12.6481065 24.74,13.05 C22.6907905,15.0880021 20.5272949,17.0077706 18.26,18.8 C10.94,24.84 1.86,32.37 0.53,41.92 C-0.73,43.6 0.67,47.25 2.3,49.12 C3.41330754,50.5924967 5.08482548,51.5404138 6.92,51.7402536 C7.42351036,51.7471139 7.91777304,51.6044042 8.34,51.33 L8.34,51.33 C8.44,51.33 8.54,51.2 8.64,51.14 C9.62970416,51.4360373 10.6569721,51.5876014 11.69,51.59 C19.31,51.59 26.78,43.59 32.43,37.59 C34.0746229,35.7377035 35.8277035,33.9846229 37.68,32.34 C38.1080207,31.9892992 38.1707008,31.3580207 37.82,30.93 C37.4692992,30.5019794 36.8380207,30.4392992 36.41,30.79 C34.5036223,32.4801854 32.6972345,34.2798953 31,36.18 C25.24,42.35 17.48,50.66 10.3,49.46 C10.893156,48.5460829 11.3701616,47.561839 11.72,46.53 C12.4107907,44.5276745 12.8966126,42.4604187 13.17,40.36 C20.17,40.18 23.99,37.2 29.17,33.09 C32.0631786,30.7440251 35.0845043,28.5606583 38.22,26.55 C38.22,26.68 38.31,26.8 38.37,26.94 C40.37,32.21 40.44,32.28 40.58,32.47 C41.1438878,33.1272207 41.9743797,33.494695 42.84,33.47 C43.3629138,33.4818151 43.8777063,33.3392037 44.32,33.06 C44.7141961,32.8094619 45.0160832,32.4373685 45.18,32 C46.18,32.8 47.32,33.31 48.18,32.49 C48.39,32.28 48.62,32.08 48.85,31.89 C49.6,31.26 50.46,30.54 50.32,29.45 C50.18,28.36 48.93,27.58 47.75,27 Z M27.66,6.44 C27.85,6.37 28.19,6.74 28.47,7.33 C28.89,8.22 29.47,8.27 29.85,8.16 C30.73,7.91 30.64,7.1 30.53,6.07 C30.4307518,5.2942145 30.3972992,4.51142435 30.43,3.73 L31.16,3.58 C31.5095344,3.48156275 31.8679438,3.41791996 32.23,3.39 C32.3084499,3.94776201 32.2744485,4.51558519 32.13,5.06 C31.85,6.56 32.01,7.62 32.64,8.29 C33.215617,8.85520338 34.0209849,9.12119647 34.82,9.01 C34.2373015,10.161325 33.2920539,11.089003 32.13,11.65 C31.81,11.85 31.44,12.08 31.05,12.34 L30.85,12.42 L30.53,12.55 C29.53,11.04 27.53,7.95 27.12,7.33 C27.1357103,6.96043382 27.3394648,6.6246162 27.66,6.44 L27.66,6.44 Z M3.81,47.81 C2.26,46.03 1.81,43.54 2.07,43.16 L2.13,43.16 C2.63,43.16 4.26,44.08 5.92,45.98 C7.41,47.69 7.64,49.34 7.26,49.66 C6.88,49.98 5.3,49.52 3.81,47.81 Z M47.53,30.36 L47,30.82 C46.355485,30.3979087 45.7497678,29.9193587 45.19,29.39 C44.42,28.7 43.82,28.16 43.1,28.72 C42.78,28.98 42.5,29.46 42.97,30.32 C43.32,30.94 43.34,31.32 43.25,31.39 C42.9191663,31.5133208 42.5498626,31.4763904 42.25,31.29 C41.98,30.68 40.85,27.7 40.25,26.23 C40.15,25.99 40.08,25.78 40.01,25.6 L40.41,25.45 L41.63,25 C42.7489676,24.4298203 44.0223512,24.2368834 45.26,24.45 C44.7428349,25.0036895 44.4974945,25.7580196 44.59,26.51 C44.76,27.4 45.51,28.16 46.88,28.82 C47.3894346,29.0184415 47.8574243,29.3100873 48.26,29.68 C48.0378483,29.928391 47.7935027,30.1560006 47.53,30.36 L47.53,30.36 Z"/>
        <path id="Path" fill="#3D454C" d="M37.75 5.89C38.2574034 6.05929932 38.808189 5.79932851 39 5.3 39.1724197 4.74903199 39.4547759 4.23874959 39.83 3.8L40 3.7C40.6479327 3.59601889 41.3056531 3.81650471 41.76 4.29 42.3156805 4.81707864 42.3887479 5.67669496 41.93 6.29 41.54 6.99 41.59 7.54 42.05 7.91 42.78 8.49 43.38 7.91 44.22 7.21 44.8510007 6.61022322 45.5450389 6.0804742 46.29 5.63 46.7234032 5.99408923 47.1811318 6.32819771 47.66 6.63 48.0146347 6.84649946 48.3492893 7.09414382 48.66 7.37 48.3151291 7.70196135 47.916048 7.97252485 47.48 8.17 47.153102 8.33076951 46.9368053 8.65372469 46.9125867 9.01721144 46.8883682 9.38069818 47.0599072 9.72949422 47.3625867 9.93221145 47.6652662 10.1349287 48.053102 10.1607695 48.38 10 49.38 9.45 50.62 8.67 50.68 7.52 50.74 6.37 49.68 5.68 48.68 5.02 48.2291614 4.73178229 47.8101526 4.39657527 47.43 4.02 46.51 3.08 45.23 3.74 44.06 4.65 43.8571141 3.69393091 43.2669234 2.8647673 42.43 2.36 41.12 1.5 39.24 1.3 38.43 2.36 37.8351957 2.98723144 37.3936695 3.74364464 37.14 4.57 37.0376452 4.82540951 37.0450531 5.11170856 37.1604792 5.3614831 37.2759053 5.61125765 37.4891496 5.80243531 37.75 5.89zM30 27.88C30.5522847 27.88 31 27.4322847 31 26.88 31 26.3277153 30.5522847 25.88 30 25.88 29.4477153 25.88 29 26.3277153 29 26.88 29 27.4322847 29.4477153 27.88 30 27.88z"/>
      </g>
    </g>
  </g>
</svg>
