<svg xmlns="http://www.w3.org/2000/svg" width="64" height="64" viewBox="0 0 64 64" style="background:#fff">
  <g id="Steckrüben" fill="none" fill-rule="evenodd" stroke="none" stroke-width="1">
    <rect width="64" height="64" fill="#FFF"/>
    <g transform="translate(2 4)">
      <g id="Layer_2">
        <rect id="Rectangle" width="60" height="60" x="0" y="0"/>
        <rect id="Rectangle" width="60" height="60" x="0" y="0"/>
      </g>
      <g id="Layer_1" fill-rule="nonzero" transform="translate(5 6)">
        <path id="Path" fill="#E05362" d="M26.33,27.22 C22.1,21.06 13.65,20.34 7.81,24.5 C5.99,25.8 6.26,32.27 9.28,31.71 C12.93,31.04 16.74,30.04 20.12,32.2 C23.5,34.36 21.3,35.26 20.12,38.38 C19.3,40.59 19.83,45.05 22.88,45.21 C26.48,45.39 28.18,40.65 28.64,37.75 C29.2425407,34.0738103 28.4160676,30.306381 26.33,27.22 L26.33,27.22 Z" opacity=".5"/>
        <path id="Path" fill="#31E085" d="M50,9.18 C46.65,4.18 41.4,3.34 37.07,5.31 C37.07,5.17 36.99,5.02 36.94,4.89 C35.71,1.79 32.78,-0.29 29.57,1.46 C26.36,3.21 25.15,7.68 25.1697565,11.13 C25.1697565,16 28.62,20.66 28.17,25.36 C28,26.62 29.33,31 31.21,28.8 C33.27,26.39 33.78,23.52 33.61,20.45 C34.1509255,20.45 34.6772596,20.2745553 35.11,19.95 C37.04,20.35 39.01,20.63 40.96,20.95 C43.24,21.31 46.25,22.38 48.5,21.58 C53.34,19.85 52.18,12.43 50,9.18 Z" opacity=".5"/>
        <path id="Path" fill="#3D454C" d="M15.93,35.05 C15.3777153,35.05 14.93,35.4977153 14.93,36.05 C14.93,36.6022847 15.3777153,37.05 15.93,37.05 C16.4822847,37.05 16.93,36.6022847 16.93,36.05 C16.93,35.4977153 16.4822847,35.05 15.93,35.05 Z"/>
        <path id="Shape" fill="#3D454C" d="M44.33,7.06 C38.5505552,6.98014505 33.3221965,10.4776544 31.19,15.85 C29.28,13.44 27.32,9.85 27.32,8.06 C27.3129175,6.46965579 28.3789405,5.07445646 29.9152504,4.66336435 C31.4515603,4.25227225 33.0719025,4.92864299 33.86,6.31 C34.147496,6.7622526 34.7403968,6.9074802 35.2043602,6.63929323 C35.6683237,6.37110625 35.8384017,5.78485043 35.59,5.31 C34.3474462,3.14527318 31.802978,2.08867364 29.3925132,2.73647138 C26.9820485,3.38426911 25.3100191,5.57402672 25.32,8.07 C25.32,11.07 28.66,16.32 30.87,18.53 L30.87,18.53 L30.87,18.53 L31.04,18.63 C30.8670976,20.1519039 30.5180947,21.6485894 30,23.09 C27.5611797,23.6002892 25.2231655,24.5091415 23.08,25.78 C22.9646072,25.8512672 22.8629865,25.9427258 22.78,26.05 C17.6530014,22.4850356 10.7307189,22.9937817 6.18,27.27 C3.53934866,29.7758273 2.0488622,33.2596585 2.06,36.9 L2.06,37 C2.06761975,38.8642015 2.47333732,40.7052728 3.25,42.4 C5.35,46.97 3.59,48.69 2.09,49.58 C1.95514809,49.6598548 1.814795,49.7300314 1.67,49.79 C1.2045695,49.9454925 0.920734302,50.4157269 1,50.9 C1.07922838,51.3890578 1.50460721,51.746376 2,51.740084 L2,51.740084 C4.17879933,51.5814111 6.25448916,50.7497374 7.94,49.36 C8.25084587,49.1060422 8.54170326,48.8285575 8.81,48.53 L8.88,48.45 C10.7954434,49.5158552 12.9480397,50.0832329 15.14,50.1 L15.28,50.1 C18.9266078,50.0922133 22.4093145,48.5841253 24.91,45.93 C28.6596284,41.955375 29.5630514,36.077156 27.18,31.16 C27.3853535,31.1289065 27.5730912,31.026182 27.71,30.87 C29.2646209,29.0754027 30.5328892,27.0515703 31.47,24.87 C33.3900776,24.5743951 35.3416751,24.5441117 37.27,24.78 C38.55,24.93 38.53,22.93 37.27,22.78 C35.6086948,22.5909421 33.9313052,22.5909421 32.27,22.78 C32.7131311,21.3205189 33.0046712,19.8192552 33.14,18.3 C35.91,17.38 37.3,18.22 39,19.3 C40.5591845,20.4319293 42.4240097,21.0663185 44.35,21.12 C48.2159932,21.12 51.35,17.9859932 51.35,14.12 C51.35,10.2540068 48.2159932,7.12 44.35,7.12 L44.33,7.06 Z M23.44,44.57 C21.3724684,46.7983293 18.4795956,48.0784256 15.44,48.11 L15.31,48.11 C13.822578,48.1068398 12.3506571,47.8076965 10.98,47.23 C11.5322847,47.1747715 11.9352285,46.6822847 11.88,46.13 C11.8247715,45.5777153 11.3322847,45.1747715 10.78,45.23 C9.82988695,45.341488 8.9383499,45.7470499 8.23,46.39 L8.23,46.39 C7.92789853,46.6178096 7.64979562,46.8758087 7.4,47.16 C7.19244999,47.3858084 6.97208622,47.5994945 6.74,47.8 C6.43938811,48.0375833 6.12555145,48.2579367 5.8,48.46 C6.5,46.85 6.54,44.62 5.13,41.56 C4.46318183,40.0973973 4.12198432,38.5074169 4.12986197,36.9 L4.12986197,36.82 C4.13619307,34.6570991 4.77586731,32.5433929 5.97,30.74 C6.08924261,30.759067 6.21075739,30.759067 6.33,30.74 C8.97511431,29.8766232 11.862659,30.9923604 13.24,33.41 C13.527496,33.8622526 14.1203968,34.0074802 14.5843602,33.7392932 C15.0483237,33.4711063 15.2184017,32.8848504 14.97,32.41 C13.5480175,29.9085736 10.8770705,28.379581 8,28.42 C12.5257253,24.6720884 19.1784692,25.0590726 23.2391159,29.3064459 C27.2997625,33.5538192 27.3874599,40.2172318 23.44,44.57 Z M26.28,29.46 L26.28,29.54 C25.747694,28.7515028 25.1343555,28.0208593 24.45,27.36 C25.9084241,26.5118145 27.4627121,25.8404158 29.08,25.36 C28.3187226,26.8365515 27.3782947,28.2136067 26.28,29.46 Z M44.28,19.06 C42.7334316,18.9927421 41.2425625,18.4632746 40,17.54 C38.6473442,16.5564035 37.0398474,15.9835375 35.37,15.89 C39.21,13.23 41.84,13.53 41.9,13.54 C42.4522847,13.6283655 42.9716344,13.2522847 43.06,12.7 C43.1483655,12.1477153 42.7722847,11.6283656 42.22,11.54 C42.06,11.54 38.81,11.03 34.22,14.21 C37.46,9.33 43.02,9.03 44.3,9.03 C47.0614237,9.03 49.3,11.2685763 49.3,14.03 C49.3,16.7914237 47.0614237,19.03 44.3,19.03 L44.28,19.06 Z"/>
        <path id="Path" fill="#3D454C" d="M40.73,22.78 C40.1777153,22.78 39.73,23.2277153 39.73,23.78 C39.73,24.3322847 40.1777153,24.78 40.73,24.78 C41.2822847,24.78 41.73,24.3322847 41.73,23.78 C41.73,23.2277153 41.2822847,22.78 40.73,22.78 Z"/>
      </g>
    </g>
  </g>
</svg>
