<svg xmlns="http://www.w3.org/2000/svg" width="64" height="64" viewBox="0 0 64 64" style="background:#fff">
  <g id="Steinpilze" fill="none" fill-rule="evenodd" stroke="none" stroke-width="1">
    <rect width="64" height="64" fill="#FFF"/>
    <g transform="translate(2 4)">
      <g id="Layer_2">
        <rect id="Rectangle" width="60" height="60" x="0" y="0"/>
        <rect id="Rectangle" width="60" height="60" x="0" y="0"/>
      </g>
      <g id="Layer_1" fill-rule="nonzero" transform="translate(4 5)">
        <path id="Path" fill="#C17953" d="M27.06 28.4C23.33 23.11 15.69 20.7 9.49 22.5 3.73 24.17-.72 30.71 2 36.61 2.56 37.81 4.17 39.32 5.44 37.89 7.84 35.18 9.28 33.49 13.27 33.69 17.26 33.89 20.16 36.27 23.57 38.2 28.32 40.88 28.61 30.59 27.06 28.4zM49.36 16.72C47.1 7.72 39.36.23 29.65.39 21.05.52 11.54 7.39 11.65 16.55 11.65 18.25 12.85 21.2 15.09 20.34 17.33 19.48 18.66 17.16 20.6 15.71 22.8832878 13.982052 25.6391462 12.9913383 28.5 12.87 34.67 12.65 39.3 16.52 41.69 21.87 44.84 29 50.68 22 49.36 16.72z" opacity=".5"/>
        <path id="Path" fill="#CCC" d="M34.41 24.3C31.1 22.06 29.72 27.11 30.15 29.53 30.58 31.95 32.35 34.33 32.32 36.66L32.32 36.72C32.2896611 36.7748647 32.2629375 36.8316522 32.24 36.89 31.7040923 37.322178 31.2385458 37.8349539 30.86 38.41 30.54 39.07 30.22 39.74 29.86 40.41 28.52 43.26 29.77 48.19 33.21 48.67 38.15 49.35 40 41 40 37.47 40.06 33 38.27 26.91 34.41 24.3zM18.65 41C18.0381661 40.0220233 16.9914704 39.3999657 15.84 39.33 14.6833243 39.3245838 13.5275302 39.3947332 12.38 39.54 9.73 39.91 8.61 42.98 8.74 45.38 8.74723013 46.8024108 9.1676041 48.1920768 9.95 49.38 10.21 49.68 10.47 49.97 10.74 50.26 11.2628833 50.7414118 11.9492759 51.005959 12.66 51 13.8109082 51.1449675 14.9700091 51.2151148 16.13 51.21 17.2787134 51.0894648 18.2952032 50.4130506 18.85 49.4 20.3220137 46.7628907 20.2454169 43.5343351 18.65 40.97L18.65 41z" opacity=".5"/>
        <path id="Path" fill="#3D454C" d="M31.86,1.18 L29.86,1.18 C19.8,1.18 11.7,8.24 11,17.59 C10.9805529,17.8671218 11.0772604,18.1398443 11.2669458,18.3428077 C11.4566312,18.545771 11.7221975,18.6606815 12,18.66 C12.5224937,18.6616745 12.958203,18.2608219 13,17.74 C13.61,9.3 20.69,3.18 29.85,3.18 L31.85,3.18 C41.48,3.18 48.74,9.94 48.74,18.9 C48.74,20.98 48.21,21.9 46.46,22.52 C45.7646549,20.5703122 44.7912665,18.7313154 43.57,17.06 C43.3020013,16.7075297 42.8341177,16.5732675 42.42,16.73 C42.0104613,16.8869245 41.7509646,17.2923881 41.78,17.73 C41.9563626,19.6179375 42.0298046,21.5140771 42,23.41 C38.2951502,23.7175456 34.5765582,23.8277014 30.86,23.74 C30.3077153,23.74 29.86,24.1877153 29.86,24.74 C29.86,25.2922847 30.3077153,25.74 30.86,25.74 L35.09,25.74 C35.3210497,27.1984955 35.6552209,28.6387735 36.09,30.05 C37.43,34.72 39.09,40.53 36.19,45.48 C35.97,45.86 34.19,46.58 30.84,46.58 L30.84,46.58 C27.52,46.58 25.74,45.86 25.51,45.48 C25.1673533,44.8979103 24.8794528,44.2852847 24.65,43.65 C24.4594617,43.1308524 23.8841477,42.8644618 23.365,43.055 C22.8458524,43.2455383 22.5794618,43.8208523 22.77,44.34 C23.0423747,45.0834733 23.3768905,45.8026824 23.77,46.49 C24.86,48.37 29.06,48.58 30.82,48.58 L30.82,48.58 C32.23,48.58 36.82,48.42 37.91,46.49 C41.24,40.8 39.37,34.27 38,29.49 C37.6149585,28.2447955 37.2978249,26.9795992 37.05,25.7 C38.9991184,25.6796673 40.9455403,25.5494607 42.88,25.31 C43.58,25.22 44.06,25.16 43.98,21.75 C44.3318433,22.4690145 44.6067034,23.223204 44.8,24 C44.859326,24.2619027 45.0214951,24.4889393 45.25,24.63 C45.4757709,24.7731825 45.7494742,24.8200002 46.01,24.76 C49.38,23.93 50.75,22.24 50.75,18.92 C50.75,9 42.45,1.18 31.86,1.18 Z"/>
        <path id="Shape" fill="#3D454C" d="M22.26,41.12 C23.8752126,41.2184721 25.4596129,40.6469304 26.64,39.54 C27.81,38.33 28.34,36.54 28.26,33.96 C28.07,27.53 22.26,22.86 14.51,22.86 C6.76,22.86 1,27.53 0.76,34 C0.68,36.54 1.21,38.37 2.38,39.58 C3.56471942,40.6864399 5.1519062,41.2576826 6.77,41.16 L9.67,41.16 C9.79922097,42.3048216 9.60159631,43.4628328 9.1,44.5 C8.53,46.06 7.81,48 9.5,49.93 C10.62,51.2 12.07,51.22 14.45,51.22 L14.57,51.22 C16.95,51.22 18.4,51.22 19.52,49.93 C21.21,48 20.52,46.06 19.92,44.5 C19.4184037,43.4628328 19.220779,42.3048216 19.35,41.16 L22.26,41.12 Z M3.82,38.12 C3.06,37.36 2.7,36 2.76,34 C2.94,28 8.81,24.84 14.51,24.84 C20.21,24.84 26.08,28 26.26,34 C26.32,35.95 25.97,37.34 25.2,38.12 C24.4032152,38.8502286 23.3367813,39.2129612 22.26,39.12 L6.77,39.12 C5.6932047,39.2174951 4.62441073,38.8624381 3.82,38.14 L3.82,38.12 Z M18.04,45.12 C18.64,46.73 18.88,47.55 18.04,48.54 C17.53,49.12 16.74,49.15 14.53,49.15 C12.32,49.15 11.53,49.15 11.02,48.54 C10.16,47.54 10.4,46.73 11.02,45.12 C11.5807742,43.8649628 11.824588,42.4913639 11.73,41.12 L17.37,41.12 C17.2452882,42.494705 17.461683,43.8789447 18,45.15 L18.04,45.12 Z"/>
        <path id="Path" fill="#3D454C" d="M22.44 30.17C21.5478895 29.1552988 20.4172325 28.3786165 19.15 27.91 18.8139452 27.7610078 18.4232391 27.8084049 18.1325565 28.0334273 17.8418739 28.2584498 17.6980858 28.624814 17.7581158 28.9874817 17.8181458 29.3501494 18.0723144 29.6506425 18.42 29.77 19.38569 30.1227144 20.2483214 30.7104035 20.93 31.48 21.2918734 31.8967211 21.9229353 31.9414773 22.34 31.58 22.7567211 31.2181266 22.8014773 30.5870647 22.44 30.17L22.44 30.17zM27 23.58C26.4477153 23.58 26 24.0277153 26 24.58 26 25.1322847 26.4477153 25.58 27 25.58 27.5522847 25.58 28 25.1322847 28 24.58 28 24.0277153 27.5522847 23.58 27 23.58z"/>
      </g>
    </g>
  </g>
</svg>
