<svg xmlns="http://www.w3.org/2000/svg" width="64" height="64" viewBox="0 0 64 64" style="background:#fff">
  <g id="Sternanis" fill="none" fill-rule="evenodd" stroke="none" stroke-width="1">
    <rect width="64" height="64" fill="#FFF"/>
    <g transform="translate(2 8)">
      <g id="Layer_2">
        <rect id="Rectangle" width="60" height="60" x=".7" y=".06"/>
        <rect id="Rectangle" width="60" height="60" x=".7" y=".06"/>
      </g>
      <g id="Layer_1" transform="translate(1)">
        <rect id="Rectangle" width="60" height="60" x="0" y="0"/>
        <g id="Group" fill="#E0673A" fill-rule="nonzero" opacity=".5" transform="translate(8 11)">
          <path id="Path" d="M39.78,19.05 C36.61,6.33 18.5,-5.16 6.83,4.28 C-0.3,10.05 -0.85,20.09 3.21,27.48 C3.2148254,27.5365639 3.2148254,27.5934361 3.21,27.65 C5.01911793,33.97238 10.7353848,38.3791758 17.31,38.52 C17.74,38.71 18.16,38.9 18.6,39.05 C31.36,43.46 43,31.86 39.78,19.05 Z"/>
        </g>
        <path id="Shape" fill="#3D454C" fill-rule="nonzero" d="M32.83 32.22C34.0096412 30.6619066 33.7396399 28.4487811 32.22 27.22L32.22 27.22C32.1550683 27.1387206 32.0812794 27.0649317 32 27 30.3831326 25.9141347 28.1953466 26.3155607 27.0693042 27.9047091 25.9432619 29.4938574 26.2897369 31.6910159 27.850168 32.856528 29.4105991 34.0220401 31.6157501 33.7307338 32.82 32.2L32.83 32.22zM31.39 30.8C31.1646891 31.1831034 30.7918769 31.4568135 30.3588754 31.5570278 29.9258739 31.6572421 29.4707164 31.5751582 29.1 31.33 27.34 30.13 29.17 27.65 30.94 28.71 31.5897235 29.1972772 31.7816159 30.088511 31.39 30.8L31.39 30.8zM31.64 24.24L31.64 24.37C31.64 24.37 31.64 24.37 31.64 24.42L31.64 24.48C31.7611081 24.8478818 32.1131835 25.0894219 32.5 25.07 32.7794717 25.101385 33.0583149 25.0059912 33.26 24.81 34.91 23.33 37.1 21.08 37.56 18.81 37.86 17.33 37.17 14.81 35.35 14.88 33.6897629 15.1150429 32.3523391 16.3606435 32 18 31.4605158 19.9527734 31.3412258 21.9977448 31.65 24 31.6379156 24.0793951 31.6345623 24.1598748 31.64 24.24L31.64 24.24zM35 17C36.61 16.62 35.21 19.5 34.9 20 34.463307 20.6555148 33.9821785 21.2803136 33.46 21.87 33.42 19.9 33.76 17.32 35 17zM27 24.67C27.0350881 24.7033863 27.0756865 24.7304519 27.12 24.75L27.24 24.83 27.24 24.83 27.32 24.83C27.6578026 24.987935 28.0584723 24.9158145 28.32 24.65 28.3901697 24.5856119 28.4507819 24.5115303 28.5 24.43L28.5 24.43C28.6004471 24.2815779 28.6591614 24.108889 28.67 23.93 28.79 21.78 28.73 18.75 27.6 16.85 26.91 15.67 24.86 14.23 23.47 15.11 21.85 16.11 22.08 18.63 22.87 20.05 23.8870352 21.8772079 25.2977684 23.4553162 27 24.67L27 24.67zM24.46 17C24.76 16.82 25.46 17.42 25.74 17.71 26.1247757 18.3112481 26.3549374 18.998298 26.41 19.71 26.51 20.36 26.6 21.01 26.65 21.66 26.47 21.46 26.3 21.25 26.14 21.05 25.5594821 20.4428303 25.0495685 19.7718913 24.62 19.05 24.41 18.7 23.94 17.29 24.46 17zM24.08 28.39C24.1298897 28.3946978 24.1801103 28.3946978 24.23 28.39L24.37 28.39 24.42 28.39 24.48 28.39C24.8478818 28.2688919 25.0894219 27.9168165 25.07 27.53 25.101385 27.2505283 25.0059912 26.9716851 24.81 26.77 23.33 25.12 21.08 22.93 18.81 22.47 17.33 22.17 14.81 22.86 14.88 24.68 15.1265789 26.3286868 16.3697911 27.651592 18 28 19.9752836 28.564303 22.0488071 28.6973086 24.08 28.39zM17 25C16.62 23.39 19.5 24.79 20 25.1 20.6555148 25.536693 21.2803136 26.0178215 21.87 26.54 19.9 26.58 17.32 26.24 17 25zM24.67 33.05C24.7033863 33.0149119 24.7304519 32.9743135 24.75 32.93L24.83 32.81C24.83 32.81 24.83 32.81 24.83 32.76L24.83 32.68C24.987935 32.3421974 24.9158145 31.9415277 24.65 31.68 24.5856119 31.6098303 24.5115303 31.5492181 24.43 31.5L24.43 31.5C24.2815779 31.3995529 24.108889 31.3408386 23.93 31.33 21.78 31.21 18.75 31.27 16.85 32.4 15.67 33.09 14.23 35.14 15.11 36.53 16.11 38.15 18.62 37.92 20.05 37.13 21.8720471 36.1273592 23.4497379 34.7340738 24.67 33.05L24.67 33.05zM19.08 35.38C18.7 35.59 17.29 36.06 16.98 35.54 16.8 35.24 17.4 34.54 17.69 34.26 18.2912481 33.8752243 18.978298 33.6450626 19.69 33.59 20.34 33.49 20.99 33.4 21.64 33.35 21.44 33.53 21.23 33.7 21.03 33.86 20.4384675 34.4375141 19.7844332 34.9473255 19.08 35.38L19.08 35.38zM28.36 35.76L28.36 35.63C28.36 35.63 28.36 35.63 28.36 35.58L28.36 35.52C28.2388919 35.1521182 27.8868165 34.9105781 27.5 34.93 27.2205283 34.898615 26.9416851 34.9940088 26.74 35.19 25.09 36.67 22.9 38.92 22.44 41.19 22.14 42.67 22.83 45.19 24.65 45.12 26.3102371 44.8849571 27.6476609 43.6393565 28 42 28.5394842 40.0472266 28.6587742 38.0022552 28.35 36 28.3620844 35.9206049 28.3654377 35.8401252 28.36 35.76L28.36 35.76zM25 43C23.39 43.38 24.79 40.5 25.1 40 25.536693 39.3444852 26.0178215 38.7196864 26.54 38.13 26.58 40.1 26.24 42.68 25 43zM33.05 35.33C33.0149119 35.2966137 32.9743135 35.2695481 32.93 35.25L32.81 35.17 32.76 35.17 32.68 35.17C32.3421974 35.012065 31.9415277 35.0841855 31.68 35.35 31.6098303 35.4143881 31.5492181 35.4884697 31.5 35.57L31.5 35.57C31.3995529 35.7184221 31.3408386 35.891111 31.33 36.07 31.21 38.22 31.27 41.25 32.4 43.15 33.09 44.33 35.14 45.77 36.53 44.89 38.15 43.89 37.92 41.37 37.13 39.95 36.1273592 38.1279529 34.7340738 36.5502621 33.05 35.33L33.05 35.33zM35.54 43C35.24 43.18 34.54 42.58 34.26 42.29 33.8752243 41.6887519 33.6450626 41.001702 33.59 40.29 33.49 39.64 33.4 38.99 33.35 38.34 33.53 38.54 33.7 38.75 33.86 38.95 34.4405179 39.5571697 34.9504315 40.2281087 35.38 40.95 35.59 41.3 36.06 42.71 35.54 43z"/>
        <path id="Shape" fill="#3D454C" fill-rule="nonzero" d="M52.69,37.59 C52,36.15 51.05,34.42 50.22,33 C49.43916,31.6638094 48.2512329,30.6125465 46.83,30 C47.8504516,29.4538268 48.7487646,28.7052326 49.47,27.8 C50.2236971,26.6998948 50.8163519,25.4977484 51.23,24.23 C51.69,23.09 53.04,21.78 52.67,20.49 C52.38,19.44 51.5,19.38 50.58,19.17 C49.05,18.82 47.66,18.09 46.13,17.76 C44.7306268,17.4393323 43.2671285,17.5473524 41.93,18.07 C42.2349859,17.0496688 42.3469012,15.981386 42.26,14.92 C42.0512896,13.57053 41.6258012,12.263673 41,11.05 C40.57,10.05 40.52,8.32 39.76,7.54 C39.1805833,6.962935 38.2775111,6.86721768 37.59,7.31 C36.15,8 34.42,9 33,9.78 C31.6638094,10.56084 30.6125465,11.7487671 30,13.17 C29.4538268,12.1495484 28.7052326,11.2512354 27.8,10.53 C26.6998948,9.77630287 25.4977484,9.18364808 24.23,8.77 C23.11,8.31 21.8,7 20.51,7.33 C19.46,7.62 19.4,8.5 19.19,9.42 C18.84,10.95 18.11,12.34 17.78,13.87 C17.4593323,15.2693732 17.5673524,16.7328715 18.09,18.07 C17.0696688,17.7650141 16.001386,17.6530988 14.94,17.74 C13.5836658,17.9466139 12.2698941,18.3721544 11.05,19 C10.05,19.43 8.32,19.48 7.54,20.24 C6.962935,20.8194167 6.86721768,21.7224889 7.31,22.41 C8,23.85 9,25.58 9.78,27 C10.56084,28.3361906 11.7487671,29.3874535 13.17,30 C12.1495484,30.5461732 11.2512354,31.2947674 10.53,32.2 C9.77630287,33.3001052 9.18364808,34.5022516 8.77,35.77 C8.31,36.89 7,38.2 7.33,39.49 C7.62,40.49 8.5,40.6 9.42,40.81 C10.95,41.16 12.34,41.89 13.87,42.22 C15.2693732,42.5406677 16.7328715,42.4326476 18.07,41.91 C17.7650141,42.9303312 17.6530988,43.998614 17.74,45.06 C17.9413244,46.4334902 18.3669963,47.7645596 19,49 C19.43,50 19.48,51.73 20.24,52.51 C20.8194167,53.087065 21.7224889,53.1827823 22.41,52.74 C23.85,52.07 25.58,51.1 26.97,50.27 C28.3061906,49.48916 29.3574535,48.3012329 29.97,46.88 C30.5161732,47.9004516 31.2647674,48.7987646 32.17,49.52 C33.2701052,50.2736971 34.4722516,50.8663519 35.74,51.28 C36.88,51.74 38.19,53.09 39.48,52.72 C40.48,52.43 40.59,51.55 40.8,50.63 C41.15,49.1 41.88,47.71 42.21,46.18 C42.5306677,44.7806268 42.4226476,43.3171285 41.9,41.98 C42.9203312,42.2849859 43.988614,42.3969012 45.05,42.31 C46.4298704,42.0940309 47.7645366,41.6513948 49,41 C50,40.57 51.73,40.52 52.51,39.76 C53.071101,39.168221 53.1459279,38.2661409 52.69,37.59 Z M50.14,38.44 C46.72,39.34 43.35,41.76 40.14,38.77 C40.0872011,38.7276759 40.0302425,38.6908204 39.97,38.66 L39.35,38 C38.52,37 37.11,38.44 37.93,39.42 C39.81,41.66 40.93,43.62 40.04,46.58 C39.8,47.34 39.04,50.21 38.63,50.41 C38.22,50.61 34.33,48.57 34.02,48.41 C32.2787018,47.3060112 31.1426611,45.4617892 30.94,43.41 C30.94,43.34 30.94,43.28 30.89,43.22 C30.89,42.92 30.96,42.62 30.99,42.31 C31.1,41.03 29.1,41.04 28.99,42.31 C28.71,45.41 27.99,47.56 25.12,49 C24.240755,49.334652 23.3882875,49.7358132 22.57,50.2 C22.3339086,50.4122945 22.0718118,50.5937461 21.79,50.74 L21.79,51.22 C21.7493832,50.8819819 21.6825146,50.5476385 21.59,50.22 C20.69,46.8 18.27,43.43 21.26,40.22 C21.3023241,40.1672011 21.3391796,40.1102425 21.37,40.05 L22.08,39.48 C23.08,38.65 21.64,37.24 20.66,38.06 C18.42,39.94 16.46,41.06 13.5,40.17 C12.74,39.93 9.87,39.17 9.67,38.76 C9.47,38.35 11.51,34.46 11.67,34.15 C12.7739888,32.4087018 14.6182108,31.2726611 16.67,31.07 L16.86,31.02 L17.76,31.12 C19.05,31.23 19.04,29.23 17.76,29.12 C14.67,28.84 12.52,28.12 11.08,25.25 C10.745348,24.370755 10.3441868,23.5182875 9.88,22.7 C9.66770552,22.4639086 9.48625388,22.2018118 9.34,21.92 L8.86,21.92 C9.19801811,21.8793832 9.53236146,21.8125146 9.86,21.72 C13.28,20.82 16.65,18.4 19.91,21.39 C19.9627989,21.4323241 20.0197575,21.4691796 20.08,21.5 L20.65,22.21 C21.48,23.21 22.89,21.77 22.07,20.79 C20.19,18.55 19.07,16.59 19.96,13.63 C20.2,12.87 20.96,10 21.37,9.8 C21.78,9.6 25.67,11.64 25.98,11.8 C27.7212982,12.9039888 28.8573389,14.7482108 29.06,16.8 C29.06,16.87 29.06,16.93 29.11,16.99 C29.11,17.29 29.04,17.59 29.01,17.89 C28.9,19.18 30.9,19.17 31.01,17.89 C31.29,14.8 32.01,12.65 34.88,11.21 C35.759245,10.875348 36.6117125,10.4741868 37.43,10.01 C37.6660914,9.79770552 37.9281882,9.61625388 38.21,9.47 L38.21,8.99 C38.2506168,9.32801811 38.3174854,9.66236146 38.41,9.99 C39.31,13.41 41.73,16.78 38.74,20.04 C38.6976759,20.0927989 38.6608204,20.1497575 38.63,20.21 L37.92,20.78 C36.92,21.61 38.36,23.02 39.34,22.2 C41.58,20.32 43.54,19.2 46.5,20.09 C47.26,20.33 50.13,21.09 50.33,21.5 C50.53,21.91 48.49,25.8 48.33,26.11 C47.2260112,27.8512982 45.3817892,28.9873389 43.33,29.19 L43.14,29.24 L42.24,29.14 C40.95,29.03 40.96,31.03 42.24,31.14 C45.33,31.42 47.48,32.14 48.92,35.01 C49.254652,35.889245 49.6558132,36.7417125 50.12,37.56 C50.3322945,37.7960914 50.5137461,38.0581882 50.66,38.34 L51.14,38.34 C50.8046,38.3477135 50.4702859,38.3811449 50.14,38.44 Z"/>
        <path id="Shape" fill="#3D454C" fill-rule="nonzero" d="M42 32C40.0472266 31.4605158 38.0022552 31.3412258 36 31.65L35.84 31.65 35.71 31.65 35.66 31.65 35.6 31.65C35.2321182 31.7711081 34.9905781 32.1231835 35.01 32.51 34.978615 32.7894717 35.0740088 33.0683149 35.27 33.27 36.75 34.92 39 37.11 41.27 37.57 42.75 37.87 45.27 37.18 45.2 35.36 44.9582693 33.6725502 43.6736586 32.3237089 42 32zM40 34.91C39.3444852 34.473307 38.7196864 33.9921785 38.13 33.47 40.13 33.47 42.68 33.8 42.97 35.01 43.35 36.58 40.47 35.18 40 34.87L40 34.91zM35.33 27C35.2966137 27.0350881 35.2695481 27.0756865 35.25 27.12 35.219902 27.157603 35.1931343 27.1977546 35.17 27.24 35.17 27.24 35.17 27.24 35.17 27.24L35.17 27.32C35.012065 27.6578026 35.0841855 28.0584723 35.35 28.32 35.4143881 28.3901697 35.4884697 28.4507819 35.57 28.5L35.57 28.5C35.7184221 28.6004471 35.891111 28.6591614 36.07 28.67 38.22 28.79 41.25 28.73 43.15 27.6 44.33 26.91 45.77 24.86 44.89 23.47 43.89 21.85 41.38 22.08 39.95 22.87 38.1227921 23.8870352 36.5446838 25.2977684 35.33 27L35.33 27zM40.92 24.67C41.3 24.46 42.71 23.99 43.02 24.51 43.2 24.81 42.6 25.51 42.31 25.79 41.7087519 26.1747757 41.021702 26.4049374 40.31 26.46 39.66 26.56 39.01 26.65 38.36 26.7 38.56 26.52 38.77 26.35 38.97 26.19 39.5588874 25.594997 40.2130243 25.0683329 40.92 24.62L40.92 24.67zM32.53 32.41C33.7151137 30.8533858 33.4445962 28.6360296 31.92 27.41L31.92 27.41 31.75 27.27C30.1251015 26.2293773 27.9686965 26.6549074 26.8609084 28.2347796 25.7531202 29.8146518 26.0879286 31.9869919 27.62 33.16 29.1946709 34.2598873 31.3554886 33.9298235 32.53 32.41zM31.09 31C30.8670275 31.3831182 30.4951062 31.6565643 30.0629248 31.755132 29.6307435 31.8536997 29.1770382 31.7685544 28.81 31.52 27.04 30.33 28.88 27.85 30.65 28.91 31.3001635 29.3976656 31.4883588 30.2915929 31.09 31zM31.35 24.43C31.35 24.48 31.35 24.52 31.35 24.57L31.35 24.62 31.35 24.67C31.470389 25.0397006 31.8214671 25.2846388 32.21 25.27 32.4918995 25.2962415 32.7717112 25.2017596 32.98 25.01 34.62 23.53 36.82 21.28 37.28 19.01 37.58 17.53 36.89 15.01 35.06 15.08 33.3478569 15.2702541 31.9498383 16.5353199 31.59 18.22 31.0526459 20.1732893 30.9367501 22.2185098 31.25 24.22 31.2723609 24.2947163 31.3060891 24.3655456 31.35 24.43L31.35 24.43zM34.67 17.23C36.28 16.85 34.89 19.72 34.58 20.23 34.1431833 20.8912052 33.6585552 21.5195506 33.13 22.11 33.12 20.1 33.46 17.52 34.67 17.23zM26.66 24.87L26.78 24.95 26.89 25.03 26.94 25.03 27.03 25.03C27.3694689 25.1886189 27.7723618 25.1120692 28.03 24.84 28.1026648 24.7819347 28.1637313 24.7106905 28.21 24.63L28.21 24.63C28.3104471 24.4815779 28.3691614 24.308889 28.38 24.13 28.5 21.98 28.44 18.94 27.31 17.05 26.61 15.87 24.56 14.43 23.18 15.31 21.56 16.31 21.78 18.82 22.57 20.25 23.5795581 22.0702242 24.9756147 23.6471878 26.66 24.87L26.66 24.87zM24.17 17.18C24.47 17 25.17 17.59 25.44 17.89 25.8321627 18.4884292 26.0661248 19.1765531 26.12 19.89 26.22 20.53 26.3 21.19 26.36 21.84L25.84 21.23C25.2647573 20.6183476 24.7552999 19.9480089 24.32 19.23 24.12 18.9 23.64 17.49 24.17 17.18zM23.78 28.59L23.94 28.59 24.08 28.59 24.13 28.59 24.18 28.59C24.5497006 28.469611 24.7946388 28.1185329 24.78 27.73 24.8033576 27.4514631 24.7090734 27.1758631 24.52 26.97 23.04 25.32 20.79 23.13 18.52 22.67 17.04 22.37 14.52 23.06 14.59 24.88 14.7619793 26.6003115 16.035372 28.0075321 17.73 28.35 19.7063735 28.861223 21.7693409 28.9430597 23.78 28.59L23.78 28.59zM16.78 25.23C16.4 23.62 19.27 25.02 19.78 25.33 20.4369856 25.7690658 21.0649568 26.250065 21.66 26.77 19.61 26.78 17 26.44 16.74 25.23L16.78 25.23zM24.38 33.25L24.46 33.13 24.54 33.01 24.54 33.01 24.54 32.93C24.6954313 32.5901382 24.6192479 32.1891727 24.35 31.93 24.2863124 31.8562892 24.2121962 31.7922798 24.13 31.74L24.13 31.74C23.9815779 31.6395529 23.808889 31.5808386 23.63 31.57 21.48 31.45 18.44 31.51 16.54 32.63 15.37 33.33 13.93 35.38 14.81 36.77 15.81 38.39 18.32 38.16 19.75 37.37 21.5774806 36.3537866 23.1583571 34.9470456 24.38 33.25L24.38 33.25zM18.79 35.58C18.41 35.79 17 36.26 16.68 35.74 16.51 35.44 17.1 34.69 17.4 34.46 17.9992061 34.0709744 18.6873678 33.8404403 19.4 33.79 20.0666667 33.6833333 20.7166667 33.6033333 21.35 33.55L20.74 34.06C20.1444928 34.6329449 19.4909723 35.1423557 18.79 35.58zM28.06 36C28.06 36 28.06 35.91 28.06 35.87 28.06 35.83 28.06 35.87 28.06 35.87L28.06 35.81C27.941847 35.439911 27.587812 35.1970266 27.2 35.22 26.9205283 35.188615 26.6416851 35.2840088 26.44 35.48 24.79 36.96 22.6 39.21 22.14 41.48 21.84 42.96 22.53 45.48 24.35 45.41 26.0673409 45.2392364 27.4736706 43.9707027 27.82 42.28 28.3632934 40.3106248 28.4792181 38.247847 28.16 36.23 28.1467482 36.1460827 28.1123322 36.0669259 28.06 36zM24.74 43.21C23.13 43.58 24.53 40.71 24.84 40.21 25.2734561 39.552171 25.7547571 38.9271482 26.28 38.34 26.29 40.3 26 42.88 24.74 43.17L24.74 43.21zM32.76 35.52L32.64 35.44 32.52 35.36 32.47 35.36 32.39 35.36C32.0514335 35.2081086 31.654351 35.2795835 31.39 35.54 31.322256 35.6066404 31.2619061 35.6804013 31.21 35.76L31.21 35.76C31.1104007 35.9096338 31.0486306 36.0812174 31.03 36.26 30.92 38.41 30.97 41.44 32.1 43.34 32.8 44.52 34.85 45.96 36.23 45.08 37.86 44.08 37.63 41.56 36.84 40.13 35.830296 38.3157161 34.4381301 36.7427051 32.76 35.52L32.76 35.52zM35.24 43.22C34.95 43.4 34.24 42.8 33.97 42.51 33.5809744 41.9107939 33.3504403 41.2226322 33.3 40.51 33.1933333 39.8433333 33.1133333 39.1766667 33.06 38.51L33.57 39.12C34.1452427 39.7316524 34.6547001 40.4019911 35.09 41.12 35.3 41.5 35.77 42.91 35.24 43.22L35.24 43.22z"/>
        <path id="Shape" fill="#3D454C" fill-rule="nonzero" d="M52.4,37.79 C51.6499393,36.229571 50.8222369,34.7076666 49.92,33.23 C49.1439547,31.893611 47.9590583,30.8419278 46.54,30.23 C47.5658756,29.6788934 48.4651316,28.9192946 49.18,28 C49.9302203,26.8978642 50.522624,25.6962271 50.94,24.43 C51.4,23.29 52.74,21.98 52.38,20.69 C52.09,19.64 51.21,19.58 50.29,19.37 C48.76,19 47.36,18.31 45.83,18 C44.4316247,17.6761513 42.9681493,17.7806852 41.63,18.3 C41.956003,17.2769511 42.0816306,16.2006276 42,15.13 C41.782497,13.7794535 41.3574759,12.4706584 40.74,11.25 C40.31,10.25 40.26,8.52 39.5,7.74 C38.9167583,7.14760903 37.9972517,7.04729921 37.3,7.5 C35.86,8.18 34.13,9.15 32.74,9.98 C31.4054153,10.7582496 30.3543307,11.9424717 29.74,13.36 C29.197743,12.3426538 28.4523477,11.4474987 27.55,10.73 C26.455308,9.98684287 25.2598427,9.40426405 24,9 C22.86,8.54 21.56,7.19 20.27,7.55 C19.27,7.85 19.15,8.72 18.95,9.65 C18.6,11.18 17.87,12.57 17.54,14.1 C17.2111015,15.4979755 17.3157436,16.9629642 17.84,18.3 C16.8197614,17.9945517 15.7513913,17.8826272 14.69,17.97 C13.3389807,18.1800386 12.0295531,18.6018902 10.81,19.22 C9.81,19.66 8.08,19.71 7.3,20.46 C6.72067213,21.0240254 6.59719664,21.9089331 7,22.61 C7.67,24.05 8.65,25.78 9.48,27.16 C10.2554898,28.4968432 11.4405567,29.5486777 12.86,30.16 C11.8409519,30.708253 10.9430281,31.4565229 10.22,32.36 C9.46739737,33.4844313 8.87818877,34.7099852 8.47,36 C8,37.09 6.67,38.4 7,39.69 C7.29,40.69 8.17,40.8 9.1,41.01 C10.62,41.35 12.02,42.08 13.55,42.41 C14.9479755,42.7388985 16.4129642,42.6342564 17.75,42.11 C17.4402883,43.1293804 17.3282785,44.1985647 17.42,45.26 C17.6278639,46.6147212 18.0497974,47.9277783 18.67,49.15 C19.11,50.15 19.16,51.88 19.91,52.66 C20.4911223,53.2334731 21.3915741,53.3289127 22.08,52.89 C23.6415165,52.1420657 25.1635274,51.3143054 26.64,50.41 C27.976389,49.6339547 29.0280722,48.4490583 29.64,47.03 C30.1828426,48.0526924 30.9319627,48.9516366 31.84,49.67 C32.9401052,50.4236971 34.1422516,51.0163519 35.41,51.43 C36.55,51.89 37.85,53.23 39.15,52.87 C40.15,52.58 40.26,51.7 40.47,50.78 C40.81,49.25 41.54,47.85 41.87,46.33 C42.1984338,44.9286502 42.0938235,43.4606189 41.57,42.12 C42.588779,42.4328403 43.6579297,42.5482407 44.72,42.46 C46.0750144,42.2478308 47.3879179,41.8225716 48.61,41.2 C49.61,40.77 51.33,40.72 52.11,39.96 C52.7066232,39.3957265 52.8275127,38.4911396 52.4,37.79 L52.4,37.79 Z M49.84,38.64 C46.43,39.53 43.06,41.95 39.84,38.96 C39.78,38.91 39.72,38.9 39.67,38.86 L39.09,38.15 C38.27,37.15 36.86,38.58 37.68,39.57 C39.56,41.81 40.68,43.77 39.78,46.72 C39.55,47.49 38.78,50.36 38.38,50.56 C37.98,50.76 34.08,48.71 33.77,48.56 C32.0259845,47.4571159 30.8864011,45.6131298 30.68,43.56 C30.6740695,43.4943173 30.6571686,43.4300937 30.63,43.37 C30.63,43.07 30.7,42.77 30.73,42.46 C30.85,41.18 28.85,41.19 28.73,42.46 C28.46,45.56 27.73,47.7 24.87,49.15 C23.9899444,49.4827411 23.1373317,49.8839706 22.32,50.35 C22.0813884,50.5590855 21.8196953,50.7402576 21.54,50.89 L21.54,51.36 C21.4998675,51.0210865 21.4295891,50.6864276 21.33,50.36 C20.44,46.95 18.02,43.58 21.01,40.36 C21.0526358,40.3093457 21.0864414,40.2518762 21.11,40.19 L21.82,39.62 C22.82,38.79 21.39,37.38 20.41,38.2 C18.16,40.08 16.2,41.2 13.25,40.3 C12.49,40.07 9.61,39.3 9.41,38.9 C9.21,38.5 11.26,34.6 11.41,34.29 C12.5118167,32.5465031 14.3572241,31.4097321 16.41,31.21 L16.61,31.16 C16.91,31.16 17.2,31.23 17.51,31.25 C18.79,31.37 18.79,29.37 17.51,29.25 C14.41,28.98 12.27,28.25 10.83,25.39 C10.4940339,24.5096389 10.0894571,23.6570183 9.62,22.84 C9.39230943,22.5875179 9.20050465,22.3048582 9.05,22 L8.57,22 C8.90786354,21.9584206 9.24213389,21.8915665 9.57,21.8 C12.99,20.9 16.36,18.48 19.57,21.47 C19.63,21.52 19.69,21.54 19.74,21.58 C19.93,21.81 20.12,22.05 20.32,22.28 C21.14,23.28 22.55,21.85 21.73,20.87 C19.86,18.63 18.73,16.66 19.63,13.71 C19.87,12.95 20.63,10.08 21.04,9.88 C21.45,9.68 25.34,11.72 25.64,11.88 C27.3840155,12.9828841 28.5235989,14.8268702 28.73,16.88 C28.7359212,16.948902 28.7528001,17.0164177 28.78,17.08 C28.78,17.38 28.71,17.68 28.68,17.98 C28.57,19.26 30.57,19.26 30.68,17.98 C30.96,14.89 31.68,12.74 34.54,11.3 C35.4183054,10.9631404 36.2706104,10.5620557 37.09,10.1 C37.3295926,9.88751441 37.5950189,9.70608377 37.88,9.56 L37.88,9.08 C37.9239334,9.41827957 37.9941457,9.75262382 38.09,10.08 C38.98,13.5 41.4,16.87 38.41,20.08 C38.3673642,20.1306543 38.3335586,20.1881238 38.31,20.25 C38.07,20.43 37.84,20.62 37.6,20.82 C36.6,21.65 38.03,23.05 39.01,22.23 C41.26,20.36 43.22,19.23 46.17,20.13 C46.93,20.37 49.81,21.13 50.01,21.54 C50.21,21.95 48.16,25.84 48.01,26.14 C46.91038,27.88731 45.0646165,29.0279918 43.01,29.23 C42.9470826,29.2197353 42.8829174,29.2197353 42.82,29.23 L41.91,29.13 C40.63,29.02 40.64,31.02 41.91,31.13 C45.01,31.41 47.15,32.13 48.6,35 C48.9346892,35.876009 49.3358581,36.7251498 49.8,37.54 C50.0074633,37.7813128 50.1853879,38.0465212 50.33,38.33 L50.81,38.33 C50.4780793,38.4042376 50.1534553,38.5079834 49.84,38.64 L49.84,38.64 Z"/>
        <path id="Shape" fill="#3D454C" fill-rule="nonzero" d="M41.68 32.16C39.7271769 31.6208164 37.6822696 31.5015302 35.68 31.81L35.52 31.81 35.39 31.81 35.34 31.81 35.28 31.81C34.9118554 31.9265036 34.6664953 32.274097 34.68 32.66 34.656428 32.943381 34.7546151 33.2233961 34.95 33.43 36.43 35.08 38.68 37.27 40.95 37.73 42.43 38.03 44.95 37.34 44.88 35.51 44.6518562 33.8179369 43.3598453 32.4653631 41.68 32.16L41.68 32.16zM39.68 35.07C39.0230144 34.6309342 38.3950432 34.149935 37.8 33.63 39.8 33.63 42.36 33.96 42.64 35.16 43.05 36.77 40.18 35.38 39.71 35.07L39.68 35.07zM35 27.15C34.9710461 27.188427 34.944335 27.2284937 34.92 27.27L34.84 27.39C34.8338446 27.4060983 34.8338446 27.4239017 34.84 27.44 34.8299593 27.4657215 34.8299593 27.4942785 34.84 27.52 34.6788973 27.8573831 34.751363 28.25997 35.02 28.52 35.0843881 28.5901697 35.1584697 28.6507819 35.24 28.7L35.24 28.7C35.3884221 28.8004471 35.561111 28.8591614 35.74 28.87 37.89 28.99 40.92 28.93 42.82 27.8 43.99 27.1 45.43 25.06 44.55 23.67 43.55 22.05 41.04 22.28 39.61 23.07 37.7915734 24.0738432 36.2173912 25.4670457 35 27.15L35 27.15zM40.59 24.81C40.97 24.61 42.38 24.13 42.7 24.66 42.88 24.96 42.28 25.66 41.98 25.94 41.37948 26.3262952 40.6920362 26.5565889 39.98 26.61 39.33 26.71 38.68 26.79 37.98 26.85L38.6 26.33C39.2203693 25.7565307 39.8971462 25.2472728 40.62 24.81L40.59 24.81z"/>
      </g>
    </g>
  </g>
</svg>
