<svg xmlns="http://www.w3.org/2000/svg" width="64" height="64" viewBox="0 0 64 64" style="background:#fff">
  <g id="Sternfrucht" fill="none" fill-rule="evenodd" stroke="none" stroke-width="1">
    <rect width="64" height="64" fill="#FFF"/>
    <g transform="translate(2 2)">
      <g id="Layer_2">
        <rect id="Rectangle" width="60" height="60" x="0" y="0"/>
        <rect id="Rectangle" width="60" height="60" x="0" y="0"/>
      </g>
      <g id="Layer_1" fill-rule="nonzero" transform="translate(7 13)">
        <path id="Path" fill="#EBE53F" d="M42.67,14.66 C39.42,12.32 34.67,12.21 30.54,13.48 C30.2,9 28.75,3.56 25.07,1 C20.07,-2.49 17.53,5.39 18.46,9.14 C18.76,10.37 19.14,11.5 19.46,12.61 C19.52,13.1 19.56,13.39 19.58,13.49 C19.58,13.88 19.58,14.06 19.58,14.02 C19.501622,14.5626657 19.3914322,15.1002584 19.25,15.63 C17.2318941,15.6298612 15.2198818,15.4085398 13.25,14.97 C10.31,14.11 7.16,12.05 4.07,12.19 C0.27,12.37 0.07,18.19 1.07,20.69 C2.78,24.97 6.69,27.99 10.93,29.69 C11.29,29.83 11.67,29.97 12.07,30.1 C10.07,33.58 8.93,37.58 9.98,41.42 C10.55,43.49 12.09,47.24 14.98,46.9 C19.41,46.36 20.44,41.57 22.41,38.36 C22.91,37.54 23.46,36.75 24.03,35.98 C24.0591269,36.0040874 24.0859126,36.0308731 24.11,36.06 C24.51,36.41 24.92,36.74 25.29,37.11 L25.42,37.23 C25.42,37.32 25.54,37.42 25.63,37.55 C25.86,37.9 26.11,38.23 26.35,38.55 C26.35,38.55 26.85,39.47 26.93,39.55 C26.9865903,39.8613395 27.0634199,40.168658 27.16,40.47 C27.93,43.28 29.82,47.3 33.43,46.47 C36.76,45.65 38.43,41.1 38.07,37.99 C37.7837767,34.7570092 36.8412388,31.6163502 35.3,28.76 C37.52,28.76 39.64,29.08 41.84,28.39 C46.56,26.79 46.14,17.15 42.67,14.66 Z" opacity=".5"/>
        <path id="Shape" fill="#3D454C" d="M45.53,18 C45.4387524,17.7115666 45.2218369,17.479945 44.94,17.37 C43.7891642,16.8771185 42.6703098,16.3126815 41.59,15.68 C39.45,14.49 37.24,13.27 34.68,13.27 C33.8041776,13.2749561 32.9342126,13.4132063 32.1,13.68 C31.8817841,13.7502491 31.6680543,13.8337373 31.46,13.93 C31.4746389,13.7035697 31.4746389,13.4764303 31.46,13.25 C31.46,9.33 28.99,7.04 26.61,4.82 L26.44,4.67 C25.5783802,3.8746076 24.7636756,3.02985238 24,2.14 C23.8105737,1.89592061 23.5189613,1.75310684 23.21,1.75310684 C22.9010387,1.75310684 22.6094263,1.89592061 22.42,2.14 C21.6640972,3.02101785 20.8559764,3.85585339 20,4.64 L19.85,4.78 C17.45,7 15,9.29 15,13.21 C15,13.43 15,13.66 15,13.89 C14.7919457,13.7937373 14.5782159,13.7102491 14.36,13.64 C13.5257874,13.3732063 12.6558224,13.2349561 11.78,13.23 C9.23,13.23 7.02,14.45 4.85,15.65 C3.77647142,16.2795396 2.66425803,16.8406563 1.52,17.33 C1.25585395,17.465131 1.06535408,17.7105827 1,18 C0.910689554,18.2923973 0.950723976,18.6090332 1.11,18.87 C1.74955745,19.9308956 2.31748992,21.0333527 2.81,22.17 C4.18,25.12 5.6,28.17 9.33,29.39 C9.54661143,29.4617971 9.76693007,29.521884 9.99,29.57 C9.83532297,29.7371532 9.69168621,29.9141939 9.56,30.1 C7.25,33.27 7.9,36.58 8.56,39.77 C8.78665964,40.968957 8.9336481,42.1816118 9,43.4 C9.01629932,43.7094237 9.17511406,43.9938129 9.43,44.17 C9.60433797,44.2962595 9.81476338,44.3628942 10.03,44.36 C10.1127769,44.3736185 10.1972231,44.3736185 10.28,44.36 C11.4926997,44.0821532 12.7218494,43.8817483 13.96,43.76 C17.19,43.36 20.53,42.96 22.83,39.76 C22.96,39.57 23.09,39.38 23.2,39.19 C23.32,39.38 23.44,39.57 23.57,39.76 C25.88,42.93 29.23,43.33 32.46,43.76 C33.6909868,43.8859834 34.9132209,44.0863497 36.12,44.36 C36.2030052,44.3702138 36.2869948,44.3702138 36.37,44.36 C36.5871979,44.3555547 36.7986944,44.2896788 36.98,44.17 C37.2256301,43.9868979 37.3790388,43.7056487 37.4,43.4 C37.5210319,42.1650579 37.7214464,40.9391892 38,39.73 C38.63,36.54 39.28,33.23 37,30.06 C36.8683138,29.8741939 36.724677,29.6971532 36.57,29.53 L37.23,29.35 C40.95,28.14 42.37,25.08 43.74,22.13 C44.2429876,20.9951057 44.8105843,19.8899615 45.44,18.82 C45.5865942,18.5723506 45.6193894,18.2735501 45.53,18 Z M41.85,21.31 C40.56,24.09 39.44,26.5 36.57,27.44 C36.0390482,27.6043915 35.4857929,27.6853557 34.93,27.68 C34.5209855,27.6772509 34.1129097,27.6404572 33.71,27.57 C33.6470428,27.5602381 33.5829572,27.5602381 33.52,27.57 C33.0636301,27.5504964 32.6520515,27.8427171 32.52,28.28 C32.3508157,28.7708421 32.5853994,29.3095158 33.06,29.52 C33.9404099,29.9269009 34.7064957,30.5452661 35.29,31.32 C37.07,33.78 36.55,36.38 35.95,39.44 C35.78,40.32 35.61,41.22 35.49,42.14 C34.54,41.97 33.58,41.85 32.73,41.75 C29.73,41.38 27.04,41.07 25.26,38.62 C24.722082,37.8428365 24.3790923,36.9476332 24.26,36.01 C24.26,35.4577153 23.8122847,35.01 23.26,35.01 C22.7077153,35.01 22.26,35.4577153 22.26,36.01 C22.1517773,36.9503297 21.8078066,37.8480932 21.26,38.62 C19.49,41.06 16.85,41.38 13.8,41.75 C12.95,41.85 12,41.97 11.04,42.15 C10.91,41.15 10.73,40.24 10.56,39.4 C9.97,36.4 9.46,33.77 11.23,31.33 C11.812592,30.5518995 12.5787009,29.9300801 13.46,29.52 C13.9346006,29.3095158 14.1691843,28.7708421 14,28.28 C13.8679485,27.8427171 13.4563699,27.5504964 13,27.57 C12.9370428,27.5602381 12.8729572,27.5602381 12.81,27.57 C12.4071458,27.6408756 11.9990348,27.6776725 11.59,27.68 C11.0342071,27.6853557 10.4809518,27.6043915 9.95,27.44 C7.08,26.5 5.95,24.1 4.63,21.22 C4.26,20.43 3.88,19.6 3.44,18.8 C4.3,18.39 5.11,17.93 5.91,17.49 C7.91,16.37 9.81,15.32 11.84,15.32 C12.502758,15.3237601 13.1607999,15.4317464 13.79,15.64 C14.6887252,15.9468882 15.4988751,16.4686797 16.15,17.16 C16.3465224,17.3562982 16.6122441,17.467614 16.89,17.47 C17.2564252,17.4847819 17.6015467,17.29781 17.7893031,16.9827965 C17.9770594,16.6677831 17.9773269,16.275269 17.79,15.96 C17.3034868,15.1226901 17.0320631,14.177861 17,13.21 C17,10.21 18.94,8.38 21.24,6.21 C21.89,5.61 22.56,4.98 23.24,4.31 C23.87,4.97 24.53,5.59 25.17,6.18 L25.25,6.26 C27.5,8.35 29.44,10.15 29.44,13.18 C29.4307895,14.128109 29.186858,15.0591713 28.73,15.89 C28.5415084,16.2068367 28.5426319,16.6016845 28.7329237,16.9174433 C28.9232154,17.2332022 29.271806,17.4186493 29.64,17.4 C29.920642,17.4018991 30.1891655,17.2857808 30.38,17.08 C31.030926,16.3907384 31.8414018,15.8721712 32.74,15.57 C33.3655698,15.3609865 34.020443,15.2529662 34.68,15.25 C36.68,15.25 38.61,16.31 40.61,17.42 C41.41,17.86 42.23,18.32 43.08,18.73 C42.62,19.61 42.22,20.48 41.85,21.27 L41.85,21.31 Z"/>
        <path id="Path" fill="#3D454C" d="M23.73 23.78C23.1777153 23.78 22.73 24.2277153 22.73 24.78 22.73 25.3322847 23.1777153 25.78 23.73 25.78 24.2822847 25.78 24.73 25.3322847 24.73 24.78 24.73 24.2277153 24.2822847 23.78 23.73 23.78zM29 20.29C29.2536586 20.0363414 29.3527235 19.666626 29.259878 19.320122 29.1670326 18.9736179 28.8963821 18.7029674 28.549878 18.610122 28.203374 18.5172765 27.8336586 18.6163414 27.58 18.87L26 20.47C25.6078779 20.8621222 25.6078779 21.4978778 26 21.89 26.3921222 22.2821221 27.0278778 22.2821221 27.42 21.89L29 20.29zM30.59 26.42L28.31 25.32C28.0806913 25.1856261 27.8073232 25.1480647 27.5502702 25.2156114 27.2932172 25.2831582 27.073628 25.4502558 26.94 25.68 26.8056261 25.9093087 26.7680647 26.1826768 26.8356114 26.4397298 26.9031582 26.6967828 27.0702558 26.916372 27.3 27.05L29.58 28.14C29.8121639 28.2916057 30.0968532 28.3400097 30.3660762 28.2736519 30.6352992 28.2072942 30.8648842 28.0321324 31 27.79 31.130404 27.5545877 31.1604191 27.2765514 31.0832615 27.018732 31.0061038 26.7609125 30.8282868 26.5450742 30.59 26.42L30.59 26.42zM22.33 30L22.33 32C22.33 32.5522847 22.7777153 33 23.33 33 23.8822847 33 24.33 32.5522847 24.33 32L24.33 30C24.33 29.4477153 23.8822847 29 23.33 29 22.7777153 29 22.33 29.4477153 22.33 30zM18.66 25.62L16.86 26.22C15.65 26.62 16.17 28.55 17.4 28.14L19.2 27.54C20.41 27.14 19.89 25.21 18.66 25.62zM20.39 19.28C19.71 18.19 17.98 19.19 18.67 20.28L19.67 21.88C20.35 22.96 22.08 21.96 21.39 20.88 21.06 20.34 20.73 19.81 20.39 19.28z"/>
      </g>
    </g>
  </g>
</svg>
