<svg xmlns="http://www.w3.org/2000/svg" width="64" height="64" viewBox="0 0 64 64" style="background:#fff">
  <g id="Strauss" fill="none" fill-rule="evenodd" stroke="none" stroke-width="1">
    <rect width="64" height="64" fill="#FFF"/>
    <g transform="translate(2 4)">
      <g id="Layer_2">
        <rect id="Rectangle" width="60" height="60" x="0" y="0"/>
        <rect id="Rectangle" width="60" height="60" x="0" y="0"/>
      </g>
      <g id="Layer_1" fill-rule="nonzero" transform="translate(6 2)">
        <path id="Path" fill="#E05362" d="M21.51 50.78C19.9656626 48.0583504 18.6768206 45.1994645 17.66 42.24 16.8710766 39.7509463 16.4894931 37.1507753 16.53 34.54 16.53 33.74 16.04 32.31 14.96 32.37L14.47 32.37C13.6604605 32.4742968 12.995529 33.0600698 12.79 33.85 10.46 40.35 14.89 49.13 18.2 54.67 20 57.77 22.64 52.87 21.51 50.78zM30.94 50C29.2699604 47.5406909 27.8970652 44.8922452 26.85 42.11 25.85 39.26 26.33 36.84 26.06 33.98 25.99 33.27 25.65 31.88 24.62 31.98L24.08 31.98C23.2731575 32.1021507 22.6122779 32.6848196 22.39 33.47 19.71 40.06 23.76 49.35 27.9 54.67 30.46 58 32.31 52.18 30.94 50zM42 2.22C40.5530618.852334049 38.5395836.258628843 36.5820909.622445666 34.6245982.986262489 32.9589017 2.26377391 32.1 4.06 31.3001729 6.04928078 31.3001729 8.27071922 32.1 10.26 32.81 12.26 35.44 14.49 34.37 16.6 33.4887835 18.1633165 33.5387366 20.084588 34.5 21.6 34.8763516 22.1895172 35.5333159 22.539608 36.2325322 22.5232521 36.9317486 22.5068961 37.5716247 22.1264698 37.92 21.52 39.8112583 18.3612654 40.0788349 14.488837 38.64 11.1 38.2413526 10.2894735 37.7869272 9.50759462 37.28 8.76L36.68 8C36.6 7.8 36.53 7.65 36.47 7.51 37.89 6.57 40.2 7.05 41.72 6.27 43.24 5.49 43 3.22 42 2.22z" opacity=".5"/>
        <path id="Path" fill="#4D4D4D" d="M30.36,19.73 C25.47,21.5 20.94,22.95 15.68,21.73 C11.12,20.68 8.93,17.44 5.23,15.14 C2.79,13.62 1.43,17.14 1.97,19.14 C5.51,32 22.87,37.23 33.38,29.68 C36.49,27.45 35.14,18 30.36,19.73 Z" opacity=".5"/>
        <path id="Shape" fill="#3D454C" d="M41,3.26 L40.83,3.26 C39.8564918,3.26041696 38.8980072,3.01993694 38.04,2.56 L37.37,2.28 C35.24,1.45 33.37,1.57 32.25,2.64 C31.13,3.71 30.85,5.08 31.15,7.19 C31.33,8.42 31.61,9.65 31.88,10.84 C32.55,13.74 33.17,16.48 32.38,19.07 C32.12,19.93 31.51,20.86 30.8,20.87 L30.8,20.87 C30.3109138,20.7906185 29.8479806,20.5951578 29.45,20.3 L29.29,20.21 C23.0963901,16.6929854 15.4355402,17.0350223 9.58,21.09 C8.91366249,20.8779983 8.35030643,20.4251742 8,19.82 C7.85,19.62 7.71,19.41 7.57,19.2 C7.13552786,18.5011905 6.60727301,17.8652659 6,17.31 C4.90928475,16.2960807 3.28129633,16.121072 2,16.88 C0.935388443,17.7048374 0.496562742,19.1050903 0.9,20.39 C1.22474481,21.3754027 1.75280693,22.2816254 2.45,23.05 C5.12,26.4 8.14,30.16 12.29,32.35 C11.7636397,33.806053 11.5423889,35.3548082 11.64,36.9 C11.7727389,37.9517217 12.0003327,38.9892819 12.32,40 L12.56,40.86 C12.9843363,42.5846959 13.3181261,44.3304164 13.56,46.09 C13.9370938,49.2044637 14.7587876,52.2487719 16,55.13 C16.1519677,55.4363531 16.4499464,55.6438066 16.79,55.68 C18.0411676,55.8283062 19.3000746,55.9017703 20.56,55.9 C21.33,55.9 22.1,55.9 22.86,55.82 C23.3446234,55.7834194 23.7327784,55.4037025 23.78,54.92 C23.8266955,53.8345249 23.3035369,52.8033718 22.4,52.2 C22.19,52.03 21.96,51.88 21.73,51.72 C21.3947213,51.515446 21.0886189,51.2665275 20.82,50.98 C20.4413546,50.4411817 20.172882,49.8328703 20.03,49.19 L18.55,44 C17.9699424,42.2544556 17.5646212,40.4556334 17.34,38.63 C17.254785,37.0941287 17.564644,35.562048 18.24,34.18 C19.0458627,34.2840393 19.8574531,34.3374773 20.67,34.34 C20.99,34.34 21.3233333,34.34 21.67,34.34 C21.4118125,35.1705602 21.3267259,36.045251 21.42,36.91 C21.5402734,37.9571027 21.7544694,38.9912677 22.06,40 C22.15,40.28 22.23,40.57 22.31,40.86 C22.76,42.55 23.06,44.35 23.31,46.09 C23.6744964,49.2218856 24.4930838,52.2840088 25.74,55.18 C25.8900946,55.4835836 26.1836418,55.6905721 26.52,55.73 C27.774516,55.8783012 29.0367501,55.9517645 30.3,55.950031 C31.07,55.950031 31.83,55.950031 32.59,55.87 C33.0785064,55.838082 33.4720868,55.4571977 33.52,54.97 C33.5608114,53.8858074 33.039027,52.8573628 32.14,52.25 C31.92,52.08 31.7,51.93 31.47,51.77 C31.1317579,51.5653892 30.8223564,51.3165227 30.55,51.03 C30.1701071,50.4930756 29.904615,49.8838053 29.77,49.24 L28.29,44 C27.7189352,42.2525643 27.3170889,40.4543018 27.09,38.63 C27.09536,36.6162224 27.5569139,34.6298309 28.44,32.82 C32.7475264,31.1900579 36.2013893,27.8698696 38,23.63 C39.1250548,20.422724 39.4276211,16.9844715 38.88,13.63 L38.76,12.63 C38.4781679,11.1972975 38.427527,9.72871305 38.61,8.28 C38.83,7 39.79,5.5 41.13,5.26 L41.3,5.26 C41.8522847,5.1799187 42.2350813,4.66728474 42.155,4.115 C42.0749187,3.56271526 41.5622847,3.17991873 41.01,3.26 L41,3.26 Z M15.35,38.82 C15.5823038,40.7813552 16.0111249,42.7144007 16.63,44.59 L18.14,49.75 C18.3492002,50.6724573 18.7551164,51.5388668 19.33,52.29 C19.7156368,52.7038245 20.1524973,53.0667548 20.63,53.37 C20.82,53.5 21.01,53.63 21.19,53.77 L21.33,53.89 C20.0851842,53.9216199 18.839594,53.8782079 17.6,53.76 C16.6004562,51.1877657 15.9285127,48.4999921 15.6,45.76 C15.3282193,43.9328203 14.9644235,42.1205166 14.51,40.33 C14.43,40.03 14.35,39.73 14.26,39.43 C13.9772757,38.5491733 13.7698639,37.645928 13.64,36.73 C13.580213,35.5362792 13.746461,34.3420078 14.13,33.21 C14.8113561,33.4731349 15.5095888,33.6902886 16.22,33.86 C15.5453903,35.422333 15.2473792,37.1213383 15.35,38.82 L15.35,38.82 Z M25.09,38.82 C25.3271756,40.7805253 25.7558907,42.7130926 26.37,44.59 L27.89,49.75 C28.0970814,50.6731831 28.5032027,51.5400303 29.08,52.29 C29.4656368,52.7038245 29.9024973,53.0667548 30.38,53.37 C30.57,53.5 30.76,53.63 30.93,53.77 L31.08,53.89 C29.8351826,53.9219607 28.5895718,53.878548 27.35,53.76 C26.3460478,51.1891692 25.6739626,48.5008282 25.35,45.76 C25.0816184,43.9329768 24.7211596,42.1206696 24.27,40.33 C24.19,40.03 24.1,39.73 24.02,39.43 C23.7325868,38.5504683 23.5250797,37.6468083 23.4,36.73 C23.3110502,35.8439802 23.4703203,34.9506828 23.86,34.15 C24.5709574,34.051477 25.2755066,33.911235 25.97,33.73 C25.3532293,35.354606 25.0544763,37.0826201 25.09,38.82 L25.09,38.82 Z M36.6,8 C36.3638272,9.66187022 36.4043753,11.3513729 36.72,13 C36.77,13.31 36.81,13.61 36.85,13.92 C37.3409223,16.9375389 37.0763701,20.0297072 36.08,22.92 C34.2,27.78 29.13,31.43 23.16,32.21 C19.9789338,32.6802996 16.7297241,32.2255491 13.8,30.9 C9.72,29 6.69,25.16 4,21.81 C3.48373517,21.246609 3.08285146,20.587529 2.82,19.87 C2.65923832,19.4007699 2.77949472,18.8809519 3.13,18.53 C3.26143596,18.4470573 3.41465351,18.4052707 3.57,18.41 C3.97498548,18.4321207 4.36147897,18.5867181 4.67,18.85 C5.13558551,19.2863342 5.53932471,19.7842792 5.87,20.33 L6.34,21 C6.98383285,22.0371386 8.00593003,22.7830902 9.19,23.08 C9.53716431,23.327178 10.0028357,23.327178 10.35,23.08 C15.5874906,19.1963932 22.624432,18.7727647 28.29,22 L28.44,22.09 C29.1498451,22.5677528 29.9681046,22.8599883 30.82,22.94 C32.67,22.94 33.82,21.2 34.31,19.72 C35.25,16.62 34.54,13.49 33.84,10.47 C33.58,9.31 33.31,8.12 33.14,6.98 C32.94,5.59 33.14,4.66 33.61,4.19 C34.42,3.46 36,3.96 36.61,4.19 L37.25,4.45 L38.15,4.81 C37.3574049,5.71561934 36.8221513,6.81720575 36.6,8 L36.6,8 Z"/>
        <path id="Path" fill="#3D454C" d="M35.24 4.78L35.18 4.78C34.6277153 4.78 34.18 5.22771525 34.18 5.78 34.18 6.04521649 34.2853568 6.2995704 34.4728932 6.48710678 34.6604296 6.67464316 34.9147835 6.78 35.18 6.78 35.7322847 6.78 36.18 6.33228475 36.18 5.78 36.18 5.22771525 35.7322847 4.78 35.18 4.78L35.24 4.78zM28.75 26.76C24.5348129 28.8397115 19.6298914 29.0108557 15.28 27.23 14.9457904 27.0603532 14.5447757 27.0918351 14.2411337 27.3115568 13.9374917 27.5312785 13.7822081 27.9023458 13.8388569 28.2728415 13.8955058 28.6433371 14.154575 28.9510497 14.51 29.07 19.394104 31.0768483 24.905204 30.8874384 29.64 28.55 29.9713366 28.397808 30.193576 28.0773394 30.2199745 27.7136782 30.246373 27.350017 30.072746 27.000812 29.7668628 26.8023636 29.4609796 26.6039152 29.0713297 26.5876819 28.75 26.76L28.75 26.76zM11.93 25.38C11.3777153 25.38 10.93 25.8277153 10.93 26.38 10.93 26.9322847 11.3777153 27.38 11.93 27.38 12.4822847 27.38 12.93 26.9322847 12.93 26.38 12.93 25.8277153 12.4822847 25.38 11.93 25.38z"/>
      </g>
    </g>
  </g>
</svg>
