<svg xmlns="http://www.w3.org/2000/svg" width="64" height="64" viewBox="0 0 64 64" style="background:#fff">
  <g id="Stärke-(Mais)" fill="none" fill-rule="evenodd" stroke="none" stroke-width="1">
    <rect width="64" height="64" fill="#FFF"/>
    <g transform="translate(2 7)">
      <g id="Layer_2">
        <rect id="Rectangle" width="60" height="60" x="0" y="0"/>
        <rect id="Rectangle" width="60" height="60" x="0" y="0"/>
      </g>
      <g id="Layer_1" fill-rule="nonzero" transform="translate(7 6)">
        <path id="Path" fill="#EBE53F" d="M17.06,17 C16.78,14.34 15.45,11.66 12.88,10.53 C11.8734142,10.1039878 10.7929806,9.87974682 9.7,9.87 C8.34,8.23 6.33,8.12 4.43,9.12 C2.27286901,10.417178 0.861901404,12.6635869 0.63,15.17 C-0.1,20.47 2.92,26 8.53,26.69 C14.14,27.38 17.59,22.05 17.06,17 Z" opacity=".5"/>
        <path id="Path" fill="#31E085" d="M23.94,22.68 C23.12,20.54 20.94,18.15 21.79,15.68 C22.32,14.1 20.79,10.13 19.11,12.68 C17.8262917,14.7204223 17.5079575,17.2231883 18.24,19.52 C18.6185112,20.7733011 19.1420555,21.978124 19.8,23.11 C20.68,24.76 21.17,25.01 20.48,26.92 C19.79,28.83 19.27,28.92 17.37,28.92 C12.37,28.81 6.22,23.63 2.37,29.5 C1.9,30.21 2.19,33.39 3.6,32.5 C9.65,28.62 15.7,36.64 21.78,32.93 C23.7686688,31.5994748 24.9087811,29.3192502 24.78,26.93 C24.7542898,25.4747249 24.4698573,24.0356319 23.94,22.68 L23.94,22.68 Z" opacity=".5"/>
        <path id="Path" fill="#CCC" d="M40.4,32.82 C40.14,29.63 40.07,26.34 39.02,23.29 C37.97,20.24 35.32,22.03 34.78,24.29 C34.386626,26.3755427 34.2422822,28.5004179 34.35,30.62 C34.35,31.4 34.35,32.19 34.35,32.98 C34.0886161,33.0684737 33.8424019,33.1966399 33.62,33.36 C32.03,33.36 29.89,34.65 28.31,35.06 C26.14,35.62 23.94,35.96 21.77,36.51 C18.18,37.42 18.9,46.26 22.86,46.14 C25.7635446,45.9542174 28.6307629,45.3928745 31.39,44.47 C33.99,43.68 37.39,42.81 39.13,40.53 C40.87,38.25 40.62,35.46 40.4,32.82 Z" opacity=".5"/>
        <path id="Shape" fill="#3D454C" d="M43.48,20.88 L41.48,16.97 C41.7641015,16.7926219 41.9405393,16.4847942 41.95,16.15 L41.95,10.15 C41.95,8.49314575 40.6068542,7.15 38.95,7.15 L31.9,7.15 C31.9597224,6.82001231 31.9898422,6.4853485 31.99,6.15 C31.99,2.8362915 29.3037085,0.15 25.99,0.15 C22.6762915,0.15 19.99,2.8362915 19.99,6.15 C19.9951698,6.48510346 20.0252528,6.81935851 20.08,7.15 L12.9999989,7.15 C12.4061137,7.14769303 11.8249045,7.32170775 11.33,7.65 C10.8716037,7.95927946 10.7507206,8.58160365 11.06,9.03999999 C11.3692795,9.49839633 11.9916037,9.61927945 12.45,9.31 C12.6138098,9.20417767 12.8049873,9.14856242 12.9999989,9.15 L38.9999989,9.15 C39.5522847,9.15 39.9999989,9.59771525 39.9999989,10.15 L39.9999989,15.15 L23.7,15.15 C23.1477153,15.15 22.7,15.5977153 22.7,16.15 C22.7,16.7022847 23.1477153,17.15 23.7,17.15 L39.37,17.15 L41.69,21.78 C42.5458763,23.4910172 42.9942367,25.3768689 42.9999989,27.29 L42.9999989,39.77 C43.0061203,41.3739494 42.0535338,42.826447 40.58,43.46 C35.9437579,45.3052539 30.9894787,46.219315 25.9999989,46.15 C21.013878,46.2179998 16.0631242,45.3039622 11.43,43.46 C9.95254889,42.8295116 8.99558833,41.3763493 8.9999989,39.77 L8.9999989,32.55 C8.9999989,31.9977153 8.55228475,31.55 7.9999989,31.55 C7.44771525,31.55 6.9999989,31.9977153 6.9999989,32.55 L6.9999989,39.77 C6.9985487,42.1728752 8.43080571,44.3448694 10.64,45.29 C15.5215668,47.2460011 20.7415766,48.217956 25.9999989,48.15 C31.2615779,48.2169091 36.4846554,47.2450157 41.37,45.29 C43.5752777,44.341812 45.003165,42.1704792 44.9999989,39.77 L44.9999989,27.29 C44.9936418,25.0647994 44.4734581,22.8711301 43.48,20.88 L43.48,20.88 Z M22.12,7.15 C22.0319612,6.82401607 21.9882348,6.48765845 21.9899486,6.15 C21.9899486,3.940861 23.780861,2.15 25.99,2.15 C28.199139,2.15 29.9900514,3.940861 29.9900514,6.15 C29.9917652,6.48765845 29.9480388,6.82401607 29.86,7.15 L22.12,7.15 Z"/>
        <path id="Path" fill="#3D454C" d="M37.68,39.84 C33.709129,41.1849316 29.5424008,41.8607999 25.35,41.84 L25.15,41.84 C21.1069304,41.8704891 17.0853694,41.24919 13.24,40 C12.8984724,39.8683214 12.5122917,39.9337593 12.2332092,40.1705995 C11.9541268,40.4074398 11.8267429,40.7778329 11.9011137,41.1362311 C11.9754845,41.4946294 12.2397247,41.783757 12.59,41.89 C16.6446185,43.2088644 20.8864709,43.8606777 25.15,43.82 L25.36,43.82 C29.781209,43.8428886 34.1751271,43.126342 38.36,41.7 C39.8850668,41.143822 40.907852,39.7031673 40.93,38.08 C40.93,34.56 41.0200197,27.52 41.0200197,27.52 C41.0214971,26.7233413 40.9376861,25.9288124 40.77,25.15 L40.77,24.97 C40.6563365,24.0323273 40.2505051,23.1541922 39.61,22.46 C39.1251385,22.026349 38.5235667,21.7446882 37.88,21.65 C36.4789781,21.4818458 35.0581879,21.6710552 33.75,22.2 C33.2308524,22.3905383 32.9644618,22.9658523 33.155,23.485 C33.3455383,24.0041476 33.9208523,24.2705382 34.44,24.08 C35.4216058,23.6679946 36.4911544,23.5097977 37.55,23.62 C37.8033473,23.6541598 38.0422266,23.7580203 38.24,23.92 C38.5649311,24.3463825 38.7625472,24.8560239 38.81,25.39 L38.81,25.57 C38.9442,26.2145136 39.0079079,26.8717107 39,27.53 C39,27.53 39,34.53 38.91,38.08 C38.9025775,38.8643099 38.4139737,39.5634503 37.68,39.84 L37.68,39.84 Z"/>
        <path id="Shape" fill="#3D454C" d="M21.24,21.59 L21.33,21.68 C21.71495,22.0419426 22.31505,22.0419426 22.7,21.68 C23.0761408,21.254397 23.0541906,20.6090611 22.65,20.21 C20.6383149,18.219522 20.1782724,15.1417156 21.52,12.65 C21.8900308,12.2302636 21.8497364,11.5900308 21.43,11.22 C21.0102636,10.8499692 20.3700308,10.8902636 20,11.31 C18.9460463,12.3606343 18.0470274,13.5559591 17.33,14.86 L17.28,14.81 C16.6835164,14.2060771 15.8438051,13.9077586 15,14 C14.8880594,13.7010254 14.7103456,13.4310372 14.48,13.21 L13.85,12.58 C13.1729148,11.8996834 12.2247721,11.561586 11.27,11.66 C11.1670194,11.2840774 10.9709861,10.9401594 10.7,10.66 L10.38,10.35 C9.27944771,9.30238079 7.55055229,9.30238079 6.45,10.35 L5.67,11.12 C4.90188392,11.0881301 4.15528218,11.3780726 3.61,11.92 L3,12.6 C2.46709489,13.1281077 2.17120329,13.8497945 2.18,14.6 C2.18,14.6 2.18,14.67 2.18,14.7 L1.41,15.47 C0.877094886,15.9981077 0.581203286,16.7197945 0.59,17.47 C0.577707532,18.2208688 0.874139616,18.9438739 1.41,19.47 L1.72,19.79 C2.00191975,20.0586294 2.3452083,20.2543039 2.72,20.36 C2.72,20.46 2.72,20.56 2.72,20.66 C2.71988885,21.5162889 3.06190595,22.3371299 3.67,22.94 L4.3,23.57 C4.5973448,23.8684001 4.9709308,24.079407 5.38,24.18 C5.3886836,24.8544351 5.64492602,25.5021589 6.1,26 L6.27,26.18 C4.83206377,26.9373693 3.50332186,27.8859901 2.32,29 C1.95597962,29.3623981 1.9257204,29.941646 2.25,30.34 C2.57559546,30.7393666 3.15134997,30.8259463 3.58,30.54 C6.07478502,29.1966556 9.15628165,29.6566412 11.15,31.67 C12.6658054,33.2218227 14.7407295,34.1007836 16.91,34.11 C18.7294515,34.1057465 20.4931032,33.4814138 21.91,32.34 C22.2244469,32.130982 22.3943547,31.7626744 22.3492706,31.3877973 C22.3041864,31.0129203 22.0517982,30.6953997 21.6967597,30.5668966 C21.3417212,30.4383935 20.9445753,30.5208209 20.67,30.78 C18.2445967,32.7362809 14.7253478,32.5103538 12.57,30.26 C11.1997987,28.8749002 9.38884995,28.01187 7.45,27.82 C10.0594583,26.3981747 13.0574905,25.8546718 16,26.27 C16.09,26.58 16.19,26.89 16.3,27.21 C16.441,27.6133622 16.8227115,27.8825692 17.25,27.88 C17.3625935,27.8787218 17.4741625,27.8584365 17.58,27.82 C17.8310643,27.7317396 18.0365919,27.5470446 18.1510813,27.3068044 C18.2655708,27.0665642 18.2795773,26.7905974 18.19,26.54 C16.9328188,23.1926014 17.1619664,19.4680445 18.82,16.3 C18.9673697,18.2961808 19.8260592,20.1732336 21.24,21.59 L21.24,21.59 Z M11.3,22.7 L10,21.44 C9.89230617,21.3131026 9.89230617,21.1268974 10,21 L11,20 L11.63,19.37 L11.63,19.37 L11.94,19.06 C12.0726825,18.9277759 12.2873175,18.9277759 12.42,19.06 L13.68,20.32 C13.8122241,20.4526825 13.8122241,20.6673175 13.68,20.8 L11.78,22.7 C11.6473175,22.8322241 11.4326825,22.8322241 11.3,22.7 Z M7.2,17.49 L8.46,16.23 C8.59268246,16.0977759 8.80731754,16.0977759 8.94,16.23 L10.2,17.49 C10.3322241,17.6226825 10.3322241,17.8373175 10.2,17.97 L9.57,18.6 L8.94,19.23 L8.94,19.23 C8.76,19.4 8.63,19.4 8.46,19.23 L7.2,18 C7.06777586,17.8673175 7.06777586,17.6526825 7.2,17.52 L7.2,17.49 Z M15.88,16.23 L16.43,16.78 C16.0516878,17.718085 15.773479,18.6934918 15.6,19.69 C15.4803294,19.3979708 15.3035383,19.132784 15.08,18.91 L13.82,17.65 C13.7378382,17.5745991 13.6509989,17.5044597 13.56,17.44 L14.45,16.54 L14.77,16.23 C14.9165502,16.0815953 15.1164313,15.9980648 15.325,15.9980648 C15.5335687,15.9980648 15.7334498,16.0815953 15.88,16.23 L15.88,16.23 Z M12.41,14 L13.04,14.63 C13.1722241,14.7626825 13.1722241,14.9773175 13.04,15.11 L11.83,16.32 C11.7651458,16.2265006 11.6914753,16.1394355 11.61,16.06 L10.35,14.79 C10.2678382,14.7145991 10.1809989,14.6444597 10.09,14.58 L10.67,14 C11.1548127,13.5300696 11.9251873,13.5300696 12.41,14 L12.41,14 Z M8.94,11.79 L9.25,12.11 C9.31606242,12.172345 9.35350497,12.2591642 9.35350497,12.35 C9.35350497,12.4408358 9.31606242,12.527655 9.25,12.59 L8.94,12.9 L8.94,12.9 L8.68,13.16 C8.6121091,13.068871 8.53863489,12.9820379 8.46,12.9 L7.59,12.03 L7.83,11.79 C8.14517275,11.4970782 8.63558414,11.5059145 8.94,11.81 L8.94,11.79 Z M4.36,14 L4.99,13.37 C5.13655022,13.2215953 5.33643127,13.1380648 5.545,13.1380648 C5.75356873,13.1380648 5.95344978,13.2215953 6.1,13.37 L7.1,14.31 C7.23222414,14.4426825 7.23222414,14.6573175 7.1,14.79 L5.84,16.05 C5.70731754,16.1822241 5.49268246,16.1822241 5.36,16.05 L4.36,15.1 C4.21201423,14.9512799 4.1292644,14.7498021 4.12999514,14.54 C4.13126302,14.3364633 4.21411603,14.1419389 4.36,14 L4.36,14 Z M3.1,18.28 L2.78,18 C2.63201423,17.8512799 2.5492644,17.6498021 2.55,17.44 C2.54856171,17.2329937 2.63162749,17.0343581 2.78,16.89 L3.02,16.65 L3.89,17.52 C3.97304997,17.5985051 4.06346733,17.6688298 4.16,17.73 L3.89,18 L3.58,18.31 C3.51237822,18.3696923 3.42380833,18.4000681 3.3337849,18.3944417 C3.24376147,18.3888152 3.15966304,18.3476476 3.1,18.28 Z M4.63,20.57 C4.63250719,20.2422889 4.76569039,19.9291284 5,19.7 L5.32,19.38 L5.58,19.12 C5.64485424,19.2134994 5.71852472,19.3005645 5.8,19.38 L7.06,20.64 C7.14203789,20.7186349 7.22887105,20.7921091 7.32,20.86 L6.1,22.07 C5.96731754,22.2022241 5.75268246,22.2022241 5.62,22.07 L5,21.44 C4.76661621,21.2102402 4.63360417,20.8974822 4.63,20.57 L4.63,20.57 Z M7.51,24.57 C7.36620186,24.422572 7.28395965,24.2259059 7.28,24.02 C7.28342823,23.8110336 7.36556345,23.6110522 7.51,23.46 L7.83,23.15 L7.83,23.15 L8.41,22.57 C8.47445967,22.6609989 8.54459912,22.7478382 8.62,22.83 L9.88,24.09 C10.0630872,24.2718613 10.2762227,24.4207178 10.51,24.53 C9.72225199,24.7131254 8.94992674,24.9571936 8.2,25.26 L7.51,24.57 Z M13.15,24.13 L13.15,24.13 L15.04,22.24 L15.34,21.94 C15.3267932,22.706163 15.3769641,23.4721062 15.49,24.23 C14.7137347,24.1363136 13.9308512,24.1095484 13.15,24.15 L13.15,24.13 Z"/>
        <path id="Path" fill="#3D454C" d="M23.93,29.58 C24.4822847,29.58 24.93,29.1322847 24.93,28.58 C24.93,28.0277153 24.4822847,27.58 23.93,27.58 C23.3777153,27.58 22.93,28.0277153 22.93,28.58 C22.93,29.1322847 23.3777153,29.58 23.93,29.58 Z"/>
      </g>
    </g>
  </g>
</svg>
