<svg xmlns="http://www.w3.org/2000/svg" width="64" height="64" viewBox="0 0 64 64" style="background:#fff">
  <g id="Stärke-(Weizen)" fill="none" fill-rule="evenodd" stroke="none" stroke-width="1">
    <rect width="64" height="64" fill="#FFF"/>
    <g transform="translate(2 7)">
      <g id="Layer_2">
        <rect id="Rectangle" width="60" height="60" x="0" y="0"/>
        <rect id="Rectangle" width="60" height="60" x="0" y="0"/>
      </g>
      <g id="Layer_1" fill-rule="nonzero" transform="translate(7 6)">
        <path id="Shape" fill="#EBE53F" d="M20.11,18.36 C15.93,13.69 10.25,9.28 3.68,10.86 C2.34,9.74 0.44,11.65 0.29,13.26 C-0.27,19.64 3.09,25.26 7.29,29.78 C10.72,33.55 16.48,38.64 21.54,34.26 C26.6,29.88 23.89,22.58 20.11,18.36 Z M11.21,22.7 C12.0163602,23.1475636 12.7766946,23.6734336 13.48,24.27 C13.771356,24.520994 14.0484549,24.7880772 14.31,25.07 C13.1624686,24.4417628 12.1171791,23.6426221 11.21,22.7 Z" opacity=".5"/>
        <path id="Path" fill="#CCC" d="M39.47,36 C39.0019891,33.1012165 38.8878197,30.1563166 39.13,27.23 C39.19,25.69 38.32,23.41 36.62,23.12 C34.92,22.83 33.97,24.79 33.62,26.23 C33.1228606,28.5288538 32.9013001,30.8787385 32.96,33.23 C31.96,33.56 30.87,33.95 29.83,34.3 C27.5922351,34.9501302 25.422232,35.8141129 23.35,36.88 C21.47,37.94 20.91,40.33 21.17,42.34 C21.35,43.85 22.37,46.85 24.45,46.54 C29.0065305,45.8507485 33.3927751,44.310644 37.38,42 C39.4,40.75 39.92,38.18 39.47,36 Z" opacity=".5"/>
        <path id="Shape" fill="#3D454C" d="M42.48,21.09 L40.48,17.18 C40.5436996,17.1458486 40.6039758,17.1056645 40.66,17.06 C40.8471865,16.8712812 40.9515368,16.615803 40.95,16.35 L40.95,10.35 C40.95,8.69314575 39.6068542,7.35 37.95,7.35 L30.9,7.35 C30.9601517,7.0200705 30.990275,6.6853679 30.99,6.35 C30.99,3.0362915 28.3037085,0.35 24.99,0.35 C21.6762915,0.35 18.99,3.0362915 18.99,6.35 C18.994719,6.68512703 19.024805,7.0194158 19.08,7.35 L11.9999989,7.35 C11.4050789,7.350653 10.8237845,7.52817404 10.33,7.86 C9.87160366,8.16927946 9.75072054,8.79160366 10.06,9.25 C10.3692795,9.70839634 10.9916037,9.82927946 11.45,9.52 C11.6127067,9.4106475 11.8039666,9.35153082 11.9999989,9.35 L37.9999989,9.35 C38.5522847,9.35 38.9999989,9.79771525 38.9999989,10.35 L38.9999989,15.35 L21.07,15.35 L21.07,15.35 C20.5177153,15.35 20.07,15.7977153 20.07,16.35 C20.07,16.9022847 20.5177153,17.35 21.07,17.35 L22.53,17.35 C22.589878,17.355411 22.650122,17.355411 22.71,17.35 L38.37,17.35 L40.69,22 C41.5443769,23.7079933 41.9926961,25.5902493 41.9999989,27.5 L41.9999989,40 C42.00211,41.6003194 41.0501851,43.0478747 39.58,43.68 C34.9435406,45.5224701 29.9884939,46.4298757 24.9999989,46.35 C20.0134125,46.4235157 15.0615894,45.5092807 10.43,43.66 C8.96256338,43.0337994 8.00758934,41.5954435 7.9999989,40 L7.9999989,32.76 C7.9999989,32.2077153 7.55228475,31.76 6.9999989,31.76 C6.44771525,31.76 5.9999989,32.2077153 5.9999989,32.76 L5.9999989,40 C5.9985487,42.4028752 7.43080571,44.5748694 9.64,45.52 C14.5236455,47.4657444 19.743584,48.4274909 24.9999989,48.35 C30.2575525,48.41877 35.4770802,47.4503029 40.36,45.5 C42.562522,44.5577339 43.9934579,42.3956055 43.9999989,40 L43.9999989,27.5 C43.9950876,25.2746285 43.4748267,23.0806336 42.48,21.09 Z M21.12,7.35000012 C21.0313558,7.02413689 20.9876186,6.68769643 20.99,6.35000012 C20.9900001,4.14086105 22.780861,2.35000012 24.99,2.35000012 C27.199139,2.35000012 28.9899999,4.14086105 28.99,6.35000012 C28.9923814,6.68769643 28.9486442,7.02413689 28.86,7.35000012 L21.12,7.35000012 Z"/>
        <path id="Path" fill="#3D454C" d="M13.42,40.93 C13.0805977,40.8174613 12.7069384,40.8945403 12.4397759,41.132202 C12.1726134,41.3698637 12.0525361,41.7320016 12.1247759,42.082202 C12.1970157,42.4324024 12.4505977,42.7174613 12.79,42.83 C16.6309873,44.0487304 20.6404332,44.6528472 24.67,44.62 L25.1,44.62 C29.3705466,44.6172414 33.6111886,43.9076519 37.65,42.52 C39.1322133,41.9761673 40.1288281,40.5785242 40.16,39 C40.22,35.62 40.3,28.87 40.3,28.87 C40.3082101,28.1005119 40.2310721,27.3324859 40.07,26.58 L40.07,26.42 C39.9548501,25.5092208 39.5478867,24.6602111 38.91,24 C38.6546901,23.7271683 38.2685711,23.619436 37.9088899,23.720677 C37.5492088,23.821918 37.2759765,24.1152409 37.2004671,24.4811898 C37.1249576,24.8471387 37.2597693,25.2246569 37.55,25.46 C37.8475349,25.8639778 38.0306288,26.3407129 38.08,26.84 L38.08,27.01 C38.2096677,27.6178909 38.2700527,28.2385147 38.26,28.86 C38.26,28.86 38.22,35.6 38.16,39 C38.1426913,39.7316537 37.6841131,40.3799884 37,40.64 C33.1733497,41.9549287 29.1562578,42.630638 25.11,42.64 C21.1462016,42.7105757 17.1975063,42.132965 13.42,40.93 Z"/>
        <path id="Shape" fill="#3D454C" d="M6.94,27.82 C6.92548114,28.1159917 7.0257871,28.4061625 7.22,28.63 L7.31,28.74 C8.3660786,29.7878926 9.70344946,30.5069465 11.16,30.81 C11.0492421,31.1345636 10.9721696,31.4696611 10.93,31.81 C10.9099888,32.1067507 11.0109985,32.3989574 11.21,32.62 L11.3,32.72 C14.0144658,35.4467985 18.333153,35.7295696 21.38,33.38 L22.54,34.54 C22.7277666,34.7293127 22.9833625,34.8357983 23.25,34.8357983 C23.5166375,34.8357983 23.7722334,34.7293127 23.96,34.54 C24.1493127,34.3522334 24.2557983,34.0966375 24.2557983,33.83 C24.2557983,33.5633625 24.1493127,33.3077666 23.96,33.12 L22.8,32 C25.1509753,28.9499563 24.8682577,24.6278045 22.14,21.91 L22,21.77 C21.7869054,21.5727449 21.4985926,21.4778572 21.21,21.51 C20.8694585,21.5510159 20.5342418,21.6281158 20.21,21.74 C19.9074391,20.2811087 19.1843631,18.9427228 18.13,17.89 L18.03,17.8 C17.8157043,17.5898342 17.5183388,17.4870412 17.22,17.52 C16.8796611,17.5621696 16.5445636,17.6392421 16.22,17.75 C15.9169465,16.2934495 15.1978926,14.9560786 14.15,13.9 L11.61,11.37 C11.4222334,11.1806873 11.1666375,11.0742017 10.9,11.0742017 C10.6333625,11.0742017 10.3777666,11.1806873 10.19,11.37 C9.80227641,11.7600375 9.80227641,12.3899625 10.19,12.78 L11.48,14.07 C11.0043563,14.3070225 10.5690203,14.6174946 10.19,14.99 L10.14,15.05 C7.87,13.2 5.77,13.28 4.56,13.74 L3.27,12.45 C3.01634143,12.1963414 2.64662601,12.0972765 2.30012196,12.190122 C1.9536179,12.2829674 1.68296743,12.5536179 1.59012195,12.900122 C1.49727647,13.246626 1.59634142,13.6163414 1.85,13.87 L3.14,15.16 C2.68,16.37 2.6,18.47 4.45,20.74 L4.39,20.79 C4.01749464,21.1690203 3.7070225,21.6043563 3.47,22.08 L2.2,20.79 C1.94634143,20.5363414 1.57662601,20.4372765 1.23012196,20.530122 C0.883617914,20.6229674 0.612967443,20.8936179 0.520121963,21.240122 C0.427276483,21.586626 0.526341431,21.9563414 0.78,22.21 L3.32,24.75 C4.3760786,25.7978926 5.71344946,26.5169465 7.17,26.82 C7.05924206,27.1445636 6.98216964,27.4796611 6.94,27.82 Z M22.3900228,27.3 C22.3903617,29.521647 21.0931965,31.5388198 19.0716431,32.460252 C17.0500897,33.3816842 14.6766488,33.0375886 13,31.58 C13.1355833,31.0526524 13.4121326,30.5721481 13.8,30.19 C15.0265851,29.0128142 16.9634149,29.0128142 18.19,30.19 C18.5821222,30.5793607 19.2156393,30.5771222 19.605,30.185 C19.9943607,29.7928778 19.9921222,29.1593607 19.6,28.77 C19.0201851,28.1890768 18.6962182,27.4007574 18.7,26.58 C18.6870996,25.1705876 19.6355667,23.9334566 21,23.58 C21.8997968,24.610004 22.3938909,25.9323277 22.3900228,27.3 Z M18.39,22.79 L18.39,22.79 L18.2,22.95 C17.0545104,24.0919803 16.5199798,25.7104201 16.76,27.31 C15.1614048,27.0813034 13.5479335,27.614193 12.4,28.75 C12.34,28.81 12.29,28.88 12.24,28.94 L12.24,28.94 C11.0455315,28.8393486 9.91254387,28.3672704 9,27.59 C9.13558328,27.0626524 9.41213255,26.5821481 9.8,26.2 C11.0265851,25.0228142 12.9634149,25.0228142 14.19,26.2 C14.3777666,26.3893127 14.6333625,26.4957983 14.9,26.4957983 C15.1666375,26.4957983 15.4222334,26.3893127 15.61,26.2 C15.7993127,26.0122334 15.9057983,25.7566375 15.9057983,25.49 C15.9057983,25.2233625 15.7993127,24.9677666 15.61,24.78 C14.4020802,23.5698408 14.4020802,21.6101592 15.61,20.4 C15.9909464,20.0084844 16.4715623,19.7284132 17,19.59 C17.7827866,20.4864441 18.2653465,21.6054235 18.38,22.79 L18.39,22.79 Z M5.12,15.69 C5.43,15.54 7.02,14.94 9.12,16.75 C8.8917338,17.3402319 8.77312324,17.9671735 8.77,18.6 C8.75477827,18.8531047 8.75477827,19.1068953 8.77,19.36 C7.89206944,19.2273744 6.99465706,19.330922 6.17,19.66 C4.36,17.59 5,16 5.11,15.69 L5.12,15.69 Z M8.22,25 C7.02557113,24.8857943 5.89816311,24.3956169 5,23.6 C5.13558328,23.0726524 5.41213255,22.5921481 5.8,22.21 C7.01358618,21.0009287 8.97641382,21.0009287 10.19,22.21 C10.3777666,22.3993127 10.6333625,22.5057983 10.9,22.5057983 C11.1666375,22.5057983 11.4222334,22.3993127 11.61,22.21 C11.7971865,22.0212812 11.9015368,21.765803 11.9,21.5 C11.9015368,21.234197 11.7971865,20.9787188 11.61,20.79 C10.8311632,20.0044502 10.5282148,18.8643214 10.814394,17.7957818 C11.1005732,16.7272423 11.9328013,15.8911395 13,15.6 C13.7791642,16.4977204 14.258174,17.6165754 14.37,18.8 L14.37,18.8 L14.2,19 C13.0586969,20.14456 12.5248792,21.7608413 12.76,23.36 C11.1614048,23.1313034 9.54793353,23.664193 8.4,24.8 C8.34,24.86 8.29,24.93 8.24,24.99 L8.22,25 Z"/>
        <path id="Path" fill="#3D454C" d="M35.83,20.78 C35.2777153,20.78 34.83,21.2277153 34.83,21.78 C34.83,22.3322847 35.2777153,22.78 35.83,22.78 C36.3822847,22.78 36.83,22.3322847 36.83,21.78 C36.83,21.2277153 36.3822847,20.78 35.83,20.78 Z"/>
      </g>
    </g>
  </g>
</svg>
