<svg xmlns="http://www.w3.org/2000/svg" width="64" height="64" viewBox="0 0 64 64" style="background:#fff">
  <g id="Süßholz" fill="none" fill-rule="evenodd" stroke="none" stroke-width="1">
    <rect width="64" height="64" fill="#FFF"/>
    <g transform="translate(2 4)">
      <g id="Layer_2">
        <rect id="Rectangle" width="60" height="60" x="0" y="0"/>
        <rect id="Rectangle" width="60" height="60" x="0" y="0"/>
      </g>
      <g id="Layer_1" fill-rule="nonzero" transform="translate(2 3)">
        <path id="Path" fill="#E05362" d="M41 1.2C37.46 2.2 34.5 5.2 31.75 7.57 28.32 10.57 25 13.7 21.75 16.89 15.4766667 23.0766667 9.46333333 29.5266667 3.71 36.24 2.16841244 38.0719428 1.78226688 40.6127805 2.71 42.82 3.38 44.32 5.51 46.25 7.06 44.43 12.81 37.7 18.79 31.18 25.06 24.94 30.93 19.15 39 13.59 43.22 6.51 44.2 4.87 43.84.38 41 1.2zM48.74 14.11C42.6600696 18.9316116 36.8606172 24.0966967 31.37 29.58 26.3 34.86 20.37 40.58 16.76 47.01 15.49 49.29 16.86 57.53 20.54 54.01 25.93 48.88 30.1 42.19 35.17 36.68 40.2730844 30.9697654 45.6598764 25.5195601 51.31 20.35 53.51 18.4 51.81 11.57 48.74 14.11z" opacity=".5"/>
        <path id="Shape" fill="#3D454C" d="M5.76,44.1100019 C3.59778284,44.1010947 1.66762596,42.7525925 0.915491051,40.7253886 C0.163356145,38.6981848 0.746848106,36.4170664 2.38,35 L35.14,2.19 C37.1876921,0.271697353 40.3880071,0.323888135 42.3720595,2.30794053 C44.3561119,4.29199292 44.4083026,7.49230795 42.49,9.54 L9.75,42.25 C8.76098295,43.4301661 7.29978734,44.111325 5.76,44.1100019 Z M5.76,35.7399943 C5.03304791,35.7386322 4.32743254,35.9855976 3.76,36.44 L3.29,36.91 C2.83052836,37.4759462 2.57669011,38.1810525 2.57,38.91 C2.57454796,40.1218614 3.26749394,41.2257909 4.35688843,41.7566849 C5.44628292,42.2875789 6.74272409,42.1531363 7.7,41.41 L8.22,40.89 C8.67876157,40.3249923 8.92628767,39.6177749 8.92,38.89 C8.90364849,37.1532273 7.49681584,35.7508466 5.76,35.7399943 Z M38.82,2.68998057 C37.9758901,2.68704167 37.1656836,3.021927 36.57,3.62 L6.83,33.39 C6.75672329,33.4590673 6.72617661,33.5621623 6.75,33.66 C6.77733424,33.7605473 6.85823963,33.8376001 6.96,33.86 C8.86935618,34.3198609 10.3601391,35.8106438 10.82,37.72 C10.843621,37.8190457 10.9209543,37.896379 11.02,37.9200288 L11.09,37.9200288 C11.1646673,37.9210699 11.2366684,37.8922694 11.29,37.84 L41.06,8.11 C41.9622725,7.20085003 42.2310128,5.83911836 41.7417811,4.65535246 C41.2525494,3.47158657 40.1008598,2.69689605 38.82,2.68998057 Z"/>
        <circle id="Oval" cx="5.73" cy="38.98" r="1" fill="#3D454C"/>
        <path id="Shape" fill="#3D454C" d="M15.86,54.2100019 C13.6879385,54.2107371 11.7451631,52.858823 10.9910656,50.8218673 C10.2369681,48.7849116 10.8310745,46.4938233 12.48,45.08 L45.24,12.29 C46.5377719,10.9046934 48.4872889,10.3366187 50.3260731,10.8079561 C52.1648573,11.2792935 53.6007065,12.7151427 54.0720439,14.5539269 C54.5433813,16.3927111 53.9753066,18.3422281 52.59,19.64 L19.85,52.35 C18.8609829,53.5301661 17.3997873,54.211325 15.86,54.2100019 L15.86,54.2100019 Z M15.86,45.8399943 C15.1330479,45.8386322 14.4274325,46.0855976 13.86,46.54 L13.39,47.01 C12.9305284,47.5759462 12.6766901,48.2810525 12.67,49.01 C12.674548,50.2218614 13.3674939,51.3257909 14.4568884,51.8566849 C15.5462829,52.3875789 16.8427241,52.2531363 17.8,51.51 L18.32,50.99 C18.7787616,50.4249923 19.0262877,49.7177749 19.02,48.99 C19.0036485,47.2532273 17.5968158,45.8508466 15.86,45.8399943 L15.86,45.8399943 Z M48.92,12.7899806 C48.0758901,12.7870417 47.2656836,13.121927 46.67,13.72 L16.93,43.49 C16.8567233,43.5590673 16.8261766,43.6621623 16.85,43.76 C16.8773342,43.8605473 16.9582396,43.9376001 17.06,43.96 C18.9693562,44.4198609 20.4601391,45.9106438 20.92,47.82 C20.943621,47.9190457 21.0209543,47.996379 21.12,48.0200288 L21.19,48.0200288 C21.2646673,48.0210699 21.3366684,47.9922694 21.39,47.94 L51.16,18.21 C52.0622725,17.30085 52.3310128,15.9391184 51.8417811,14.7553525 C51.3525494,13.5715866 50.2008598,12.7968961 48.92,12.7899806 L48.92,12.7899806 Z"/>
        <circle id="Oval" cx="15.83" cy="49.08" r="1" fill="#3D454C"/>
        <path id="Path" fill="#3D454C" d="M13.38 32.44L19.38 25.44C20.22 24.44 18.81 23.05 17.97 24.03L11.97 31.03C11.13 32.03 12.54 33.42 13.38 32.44L13.38 32.44zM47.66 16.71L41.66 22.66C40.74 23.56 42.15 24.98 43.07 24.07L49.07 18.12C49.99 17.22 48.58 15.8 47.66 16.71z"/>
      </g>
    </g>
  </g>
</svg>
