<svg xmlns="http://www.w3.org/2000/svg" width="64" height="64" viewBox="0 0 64 64" style="background:#fff">
  <g id="Sultaninen" fill="none" fill-rule="evenodd" stroke="none" stroke-width="1">
    <rect width="64" height="64" fill="#FFF"/>
    <g transform="translate(2 5)">
      <g id="Layer_2">
        <rect id="Rectangle" width="60" height="60" x=".86" y=".93"/>
        <rect id="Rectangle" width="60" height="60" x=".86" y=".93"/>
      </g>
      <g id="Layer_1" transform="translate(1 1)">
        <rect id="Rectangle" width="60" height="60" x="0" y="0"/>
        <g id="Group" fill="#BAB41D" fill-rule="nonzero" opacity=".5" transform="translate(21 4)">
          <path id="Path" d="M19,7.48 C18.18,3.09 15.62,0.42 11.67,0.2 C10.5662617,0.209234089 9.47527775,0.436947242 8.46,0.87 C6.85329547,1.47251642 5.41346156,2.44954658 4.26,3.72 C2.43594337,5.68561591 1.25957525,8.16401758 0.89,10.82 C0.419316281,13.8555971 0.764445797,16.9617627 1.89,19.82 C2.60040417,21.7363611 3.90807003,23.3735728 5.62,24.49 C8.75333333,26.75 11.8033333,25.29 14.77,20.11 C14.8084296,20.0783119 14.842107,20.0412668 14.87,20 L14.42,21 C14.6508518,20.540204 14.9114032,20.0959305 15.2,19.67 C15.54,19.29 15.88,18.91 16.2,18.52 L15.54,19.33 C16.7698076,18.0793556 17.7565517,16.6111076 18.45,15 C19.3052121,12.5881855 19.4951964,9.99058113 19,7.48 L19,7.48 Z"/>
        </g>
        <g id="Group" fill="#BAB41D" fill-rule="nonzero" opacity=".5" transform="translate(8 27)">
          <path id="Path" d="M18,9.7 C17.4149267,8.36927382 16.6512334,7.12448741 15.73,6 C15.2175725,5.45341203 14.6359934,4.97604652 14,4.58 L14.58,4.94 C12.51,3.66 10.84,1.46 8.42,0.86 C6.6954928,0.298171494 4.80167702,0.736982468 3.5,2 C1.85,3.66 1.23,5.71 0.69,7.93 C0.208175231,10.3117175 0.232023473,12.7680864 0.76,15.14 C1.28441755,17.4614241 2.1936424,19.6787159 3.45,21.7 C4.88,24.16 8.52,28.36 11.76,27.7 C13.2192981,27.6376304 14.601336,27.0269625 15.63,25.99 C16.8486942,24.7870775 17.766831,23.3139475 18.31,21.69 C19.6,18.08 19.75,13.14 18,9.7 Z"/>
        </g>
        <g id="Group" fill="#BAB41D" fill-rule="nonzero" opacity=".5" transform="translate(34 28)">
          <path id="Path" d="M15.74,6.57 C14.55,3.75 12.31,0.78 8.96,0.74 C5.4,0.74 3.35,4.22 2.63,7.31 C2.39,7.81 2.19,8.31 1.97,8.83 L2.28,8.18 C1.3070542,10.3458402 0.848427174,12.7074272 0.94,15.08 C1.01705973,17.5776568 1.64900197,20.02686 2.79,22.25 C3.67,23.88 5.07,25.84 6.96,26.42 L9.05,26.79 C10.5357375,26.732145 11.9455281,26.1182615 13,25.07 C14.4595679,23.8078675 15.5368491,22.1625024 16.11,20.32 C16.6928111,18.7130863 17.0299357,17.0274631 17.11,15.32 C17.3399844,12.3364816 16.8708905,9.34044431 15.74,6.57 Z"/>
        </g>
        <path id="Shape" fill="#3D454C" fill-rule="nonzero" d="M36.91 26.07C38.43814 26.0517128 39.8178641 25.1513844 40.45 23.76 40.8 22.97 41.45 21.31 41.92 20.11L42.27 19.21C42.7862017 17.8723649 42.3825058 16.3544682 41.27 15.45L41.27 15.45C40.518905 14.6911387 39.9153306 13.7993406 39.49 12.82 39.7650737 11.7960072 39.3642868 10.7098746 38.49 10.11 37.696903 9.77267526 36.8574594 9.55691467 36 9.47 35.66 9.42 35.17 9.34 34.91 9.27 34.043571 7.89346333 32.379787 7.24418176 30.81 7.67 28.5998674 8.63110892 26.5389094 9.90405358 24.69 11.45 23.87 12.31 21.97 15.57 21.87 17.05 22.0274456 19.5543977 22.6337517 22.0101067 23.66 24.3 24.2998641 25.3435349 25.4359122 25.9797218 26.66 25.98 26.9977426 25.9831435 27.3342871 25.9393927 27.66 25.85 28.0431991 26.6627353 28.6972647 27.3168009 29.51 27.7 29.9804674 27.9023126 30.4878966 28.0044796 31 28.0001412 31.9489496 28.0016568 32.863431 27.6444375 33.56 27 34.6265892 26.5317924 35.7546891 26.2186184 36.91 26.07zM30.28 25.88C29.6376505 25.5719344 29.2292619 24.9224021 29.23 24.21 29.2406822 23.758823 28.9478412 23.3564021 28.5152504 23.227794 28.0826597 23.0991859 27.6175347 23.2762657 27.38 23.66 27.2248328 23.9001717 26.9422498 24.0257641 26.66 23.98 26.1416792 23.9801555 25.6575844 23.7212212 25.37 23.29 24.5418765 21.3505338 24.0287502 19.2912772 23.85 17.19 24.3336822 15.610082 25.1030817 14.1322928 26.12 12.83 27.7270287 11.5440808 29.4829899 10.4562579 31.35 9.59 32.1006526 9.40546341 32.8813016 9.75059245 33.25 10.43 33.58 11.1 34.36 11.23 35.65 11.43 36.2587315 11.5020282 36.858512 11.6360573 37.44 11.83 37.5158099 12.0674287 37.5158099 12.3225713 37.44 12.56 37.27 13.85 39.32 16.47 40 17 40.4164934 17.3567143 40.5713558 17.9324848 40.39 18.45L40.04 19.36C39.61 20.5 39 22.2 38.62 23 38.2965545 23.6614925 37.6357931 24.0917557 36.9 24.12 35.2502695 24.2707279 33.6532097 24.7791935 32.22 25.61 31.6769329 26.0607779 30.9255188 26.1653562 30.28 25.88zM23 33.11C22.8264666 31.6068889 21.7777188 30.3499627 20.33 29.91 18.85 29.51 14.53 29.65 13.05 30.5 12.05 31.06 11.05 32.71 9.68 35.01L9.48 35.37C8.67950331 36.7911943 8.87249467 38.5643025 9.96 39.78 9.86015561 40.6516133 9.69298959 41.51419 9.46 42.36 9.25606824 43.4647895 9.72256649 44.5859534 10.65 45.22 11.6266183 46.1453189 12.5262584 47.148635 13.34 48.22 13.8434024 49.2095758 14.8319663 49.8597466 15.94 49.93L16.1 49.93C18.0420611 49.8305522 19.9879389 49.8305522 21.93 49.93 23.4424899 49.9846529 24.7588308 48.9041386 25 47.41 25.1887709 46.8205366 25.4125008 46.2428461 25.67 45.68 26.1931444 44.5988638 26.579457 43.456722 26.82 42.28 26.866808 40.0354887 26.5906491 37.7959075 26 35.63 25.5079988 34.3242311 24.3710934 33.3692306 23 33.11L23 33.11zM24.9 42.11C24.664528 43.081887 24.3294208 44.0268892 23.9 44.93 23.5819588 45.608181 23.3178092 46.3103508 23.11 47.03 23.01 47.52 22.56 47.94 22.17 47.9 20.1048212 47.7890974 18.0351788 47.7890974 15.97 47.9 15.7 47.95 15.33 47.62 15.04 47.15 14.1072811 45.8798279 13.0522306 44.7042001 11.89 43.64 11.53 43.35 11.35 43.01 11.39 42.85 12.25 39.5 11.98 38.93 11.54 38.52 10.9636148 37.9567222 10.8290808 37.0802128 11.21 36.37L11.42 35.99C12.69 33.76 13.58 32.49 14.04 32.23 15.3306482 31.8137231 16.6851708 31.6308626 18.04 31.69 18.6300568 31.6706732 19.2204187 31.7176339 19.8 31.83 20.6367969 32.1094317 21.1400612 32.962422 20.98 33.83 20.903345 34.1543748 20.9933436 34.4956194 21.22 34.74 21.4421858 34.9858965 21.7717635 35.105743 22.1 35.06 22.9897138 34.9636647 23.8351329 35.4700993 24.17 36.3 24.6526926 38.1880309 24.8846864 40.1313996 24.86 42.08L24.9 42.11zM49.11 35.59C48.2724047 34.5404167 47.5231771 33.4232649 46.87 32.25 46.5020463 31.1402707 45.5375029 30.3345477 44.38 30.17 43.6287587 30.1583239 42.8932849 30.3859706 42.28 30.82 41.9819121 31.0267139 41.6393313 31.1603204 41.28 31.21 41.01 31.21 40.68 30.88 40.33 30.55 39.8470651 30.0135209 39.2340157 29.6105614 38.55 29.38 37.0558536 29.0696135 35.5667831 29.930348 35.09 31.38 34.8402238 31.9387906 34.5529001 32.4800283 34.23 33 33.5623894 33.9935593 33.0183775 35.0647925 32.61 36.19 32.246688 38.4056434 32.2029093 40.6619309 32.48 42.89 32.7844464 44.2713987 33.7958598 45.3892766 35.14 45.83 35.1039085 47.3397449 35.9629356 48.7283092 37.33 49.37 38.9447655 49.891358 40.6332509 50.1480078 42.33 50.13 43.0983117 50.161798 43.8663266 50.0602982 44.6 49.83 45.65 49.42 46.95 47.94 48.6 45.83L48.84 45.51C49.8370094 44.2163838 49.9013106 42.4320241 49 41.07 49.2203603 40.2172835 49.5113663 39.3844041 49.87 38.58 50.2246348 37.5205224 49.9275029 36.351543 49.11 35.59zM48 37.82C46.67 41.01 46.86 41.61 47.24 42.08 47.7233362 42.7262949 47.7233362 43.6137051 47.24 44.26L46.98 44.59C44.98 47.13 44.18 47.82 43.84 47.95 42.84 48.33 39.14 47.95 38.07 47.52 37.2815957 47.1230231 36.9061893 46.205837 37.19 45.37 37.3099647 45.0698905 37.2774886 44.7303051 37.1028169 44.4583731 36.9281453 44.186441 36.6328171 44.0156948 36.31 44 35.414231 43.9666883 34.650032 43.3414346 34.44 42.47 34.2262695 40.5366792 34.2632423 38.5838451 34.55 36.66 34.939126 35.7251349 35.4251112 34.8336034 36 34 36.4113763 33.3640793 36.769271 32.6951171 37.07 32 37.2175516 31.5436435 37.6507504 31.2412216 38.13 31.26 38.4692769 31.4420606 38.7658629 31.6943292 39 32 39.5604599 32.648751 40.3329781 33.0775341 41.18 33.21 41.9289445 33.2166349 42.6606947 32.9855559 43.27 32.55 43.5533929 32.3503662 43.878082 32.2170727 44.22 32.16 44.49 32.16 44.82 32.54 45.03 33.04 45.7757173 34.4401346 46.6530066 35.7661137 47.65 37 47.8815343 37.2085938 48.0095457 37.5085062 48 37.82L48 37.82z"/>
        <path id="Path" fill="#3D454C" fill-rule="nonzero" d="M43.55 36.25C42.9977153 36.25 42.55 36.6977153 42.55 37.25 42.55 37.8022847 42.9977153 38.25 43.55 38.25 44.1022847 38.25 44.55 37.8022847 44.55 37.25 44.55 36.6977153 44.1022847 36.25 43.55 36.25zM19 42.76C18.408535 42.8556485 17.8046411 42.6903312 17.3443622 42.3067654 16.8840832 41.9231996 16.6125771 41.3590169 16.6 40.76 16.6 40.2077153 16.1522847 39.76 15.6 39.76 15.0477153 39.76 14.6 40.2077153 14.6 40.76 14.6127013 41.8879028 15.0940577 42.9596822 15.9286911 43.7184398 16.7633244 44.4771975 17.8759939 44.8545324 19 44.76 19.5522847 44.76 20 44.3122847 20 43.76 20 43.2077153 19.5522847 42.76 19 42.76zM15.55 37.18C16.1022847 37.18 16.55 36.7322847 16.55 36.18 16.55 35.6277153 16.1022847 35.18 15.55 35.18 14.9977153 35.18 14.55 35.6277153 14.55 36.18 14.55 36.7322847 14.9977153 37.18 15.55 37.18zM34.77 17.26C35.0340781 18.891353 34.1566894 20.4937202 32.64 21.15 31.46 21.62 31.98 23.55 33.17 23.08 35.5584093 22.1899117 37.0400932 19.7945228 36.77 17.26 36.6 16 34.6 16 34.77 17.26z"/>
      </g>
    </g>
  </g>
</svg>
