<svg xmlns="http://www.w3.org/2000/svg" width="64" height="64" viewBox="0 0 64 64" style="background:#fff">
  <g id="Süßkartoffel" fill="none" fill-rule="evenodd" stroke="none" stroke-width="1">
    <rect width="64" height="64" fill="#FFF"/>
    <g transform="translate(2 4)">
      <g id="Layer_2">
        <rect id="Rectangle" width="60" height="60" x="0" y="0"/>
        <rect id="Rectangle" width="60" height="60" x="0" y="0"/>
      </g>
      <g id="Layer_1" fill-rule="nonzero" transform="translate(10 3)">
        <path id="Path" fill="#E0A075" d="M34.85,3.74 C29.17,-2.26 19.52,1.58 14.24,6.23 C7.62,12.07 3.87,21.51 1.8,29.9 C-0.09,37.55 0.8,48.9 9.17,52.57 C17.54,56.24 26.38,47.9 29,40.44 C30.26,36.85 28.15,27.69 22.88,31.6 C19.99,33.74 16.12,41.6 11.28,39.01 C7.7,37.06 11.98,29.01 13.23,26.21 C15.04,22.16 17.63,18.21 21.51,15.92 C25.6,13.5 29.91,14.11 34.28,12.92 C37.92,12 36.64,5.65 34.85,3.74 Z" opacity=".5"/>
        <g id="potatoes" fill="#3D454C" transform="translate(0 1)">
          <path id="Path" d="M28 16.22C27.8442591 16.2221666 27.6901653 16.1879235 27.55 16.12 26.3921394 15.7540692 25.1470954 15.771605 24 16.17 23.4782565 16.341671 22.9157093 16.0603974 22.74 15.54 22.6544493 15.2880635 22.6728257 15.0124209 22.7910626 14.7740704 22.9092994 14.53572 23.1176474 14.3543151 23.37 14.27 23.68 14.17 26.37 13.27 28.45 14.33 28.8601627 14.5401126 29.0736218 15.0033224 28.96688 15.4516381 28.8601381 15.8999538 28.4608398 16.2172689 28 16.22zM14.18 23.6C14.0261874 23.6028802 13.8743616 23.5649237 13.74 23.49 12.581169 23.1265808 11.3358881 23.1476278 10.19 23.55 9.66532949 23.7239697 9.09896972 23.4396705 8.92500002 22.915 8.75103033 22.3903295 9.0353295 21.8239697 9.56 21.65 9.86 21.55 12.56 20.65 14.63 21.71 15.1240809 21.9559531 15.3254836 22.5556857 15.08 23.05 14.9089345 23.3895038 14.5601569 23.6026457 14.18 23.6zM17.63 31.74C17.0777153 31.8256041 16.5606042 31.4472847 16.475 30.895 16.3893959 30.3427153 16.7677153 29.8256041 17.32 29.74 17.62 29.64 20.32 28.74 22.39 29.8 22.8840809 30.0459531 23.0854836 30.6456857 22.84 31.14 22.5940469 31.6340809 21.9943143 31.8354836 21.5 31.59 20.3477473 31.206444 19.1022527 31.206444 17.95 31.59 17.8513939 31.6556488 17.7435381 31.7062062 17.63 31.74zM12.46 41.7C12.3042591 41.7021666 12.1501653 41.6679235 12.01 41.6 11.1982617 41.2393205 10.2717383 41.2393205 9.46 41.6 8.9656857 41.8454836 8.3659531 41.6440809 8.12 41.15 7.87451639 40.6556857 8.07591913 40.0559531 8.57 39.81 9.94633305 39.1720367 11.5336669 39.1720367 12.91 39.81 13.3201627 40.0201126 13.5336218 40.4833224 13.42688 40.9316381 13.3201381 41.3799538 12.9208398 41.6972689 12.46 41.7L12.46 41.7z"/>
          <path id="Shape" d="M13.32,52.05 C6.11399161,52.0390237 0.272011554,46.2059831 0.25,39 C0.25,23.71 4.25,17.56 9.1,11.64 C10.1677408,10.4437409 11.5044568,9.5183222 13,8.94 C14.82,6.1 18.88,0.07 26.25,0.07 C36.51,0.07 37.58,8.63 37.59,8.72 C37.66,9.1 39.31,19.47 34.01,28.31 C33.77,28.71 33.38,29.31 32.89,29.98 C31.24,32.34 28.49,36.3 27.2,40.18 C25.24,46 22.06,52.05 13.32,52.05 Z M18.24,9.85 C15.33,9.85 12.08,11.14 10.65,12.85 C6.06,18.47 2.24998191,24.31 2.24998191,38.94 C2.24469088,41.8812523 3.40800963,44.7041471 5.48403837,46.7876773 C7.56006711,48.8712075 10.3787477,50.0447005 13.32,50.05 C20.32,50.05 23.2,45.84 25.32,39.52 C26.7,35.38 29.55,31.27 31.25,28.82 C31.72,28.15 32.09,27.62 32.25,27.26 C37.18,19.05 35.59,9.07 35.57,8.97 C35.57,8.64 34.65,2.05 26.21,2.05 C21.53,2.05 18.4,4.82 15.99,8.05 C16.7723722,7.91310071 17.5658103,7.84949175 18.36,7.86 C18.9122847,7.86 19.36,8.30771525 19.36,8.86 C19.36,9.41228475 18.9122847,9.86 18.36,9.86 L18.24,9.85 Z"/>
        </g>
      </g>
    </g>
  </g>
</svg>
