<svg xmlns="http://www.w3.org/2000/svg" width="64" height="64" viewBox="0 0 64 64" style="background:#fff">
  <g id="Tabasco" fill="none" fill-rule="evenodd" stroke="none" stroke-width="1">
    <rect width="64" height="64" fill="#FFF"/>
    <g transform="translate(2 4)">
      <g id="Layer_2">
        <rect id="Rectangle" width="60" height="60" x="0" y="0"/>
        <rect id="Rectangle" width="60" height="60" x="0" y="0"/>
      </g>
      <g id="Layer_1" fill-rule="nonzero" transform="translate(7)">
        <path id="Path" fill="#E05362" d="M32.05,32.9 C31.86,29.62 28.11,26.22 26.5,30.77 C24.5,36.33 19.37,38.85 14.5,41.69 C10.16,44.22 5.73,46.56 1.57,49.4 C1.11022302e-16,50.48 0.27,56.16 2.82,55.61 C9.82,54.1 16.3,50.71 22.42,47.06 C27.82,43.83 32.44,39.68 32.05,32.9 Z" opacity=".5"/>
        <path id="Path" fill="#31E085" d="M35.31,4.43 C35.17,3.43 34.62,1.43 33.31,1.15 C32.472655,0.971132305 31.6043717,0.998587905 30.78,1.23 C30.1197474,1.38074252 29.4522059,1.49756228 28.78,1.58 C27.2689592,1.64229826 25.7680427,1.8567149 24.3,2.22 C22.14,2.95 22.3,7.31 23.92,8.49 C26.52,10.38 31.64,10.71 34.14,8.49 C35.1299822,7.38659329 35.560972,5.89102159 35.31,4.43 Z" opacity=".5"/>
        <path id="Shape" fill="#3D454C" d="M34.23,16.88 C33.9880825,16.7475193 33.8355026,16.4957625 33.83,16.22 L33.83,9.67 C34.093837,9.40057539 34.2533288,9.04614921 34.28,8.67 C34.5036913,6.92714826 34.5036913,5.16285174 34.28,3.42 C34.2855206,3.39699321 34.2855206,3.37300679 34.28,3.35 C34.28,1.57 31.57,0.95 29.28,0.95 C26.99,0.95 24.44,1.54 24.28,3.18 L24.28,3.18 C24.032877,5.00165714 24.032877,6.84834286 24.28,8.67 C24.3047947,9.04463355 24.460547,9.39861607 24.72,9.67 L24.72,16.23 C24.7144974,16.5057625 24.5619175,16.7575193 24.32,16.89 C22.9,17.72 20.52,19.83 20.52,24.67 L20.52,34 C20.52,34.5522847 20.9677153,35 21.52,35 C22.0722847,35 22.52,34.5522847 22.52,34 L22.52,32 L29.31,25.93 L36,32 L36,41.58 L28.58,47.83 C28.2631408,48.1009249 28.1476023,48.5399981 28.2900727,48.9317917 C28.4325431,49.3235854 28.8031269,49.5858869 29.22,49.59 C29.4536522,49.5904565 29.6800879,49.5090812 29.86,49.36 L36,44.17 L36,53.81 C36.0062125,54.4969308 35.6486797,55.1359256 35.06,55.49 C33.2745906,56.4761233 31.2590341,56.9696585 29.22,56.92 C27.1776469,56.9709589 25.1585326,56.4773976 23.37,55.49 C22.7813203,55.1359256 22.4237875,54.4969308 22.43,53.81 C22.43,53.2577153 21.9822847,52.81 21.43,52.81 C20.8777153,52.81 20.4299843,53.2577153 20.4299843,53.81 C20.4260638,55.2076753 21.1647466,56.502274 22.37,57.21 C24.4585053,58.384388 26.8245853,58.9750444 29.22,58.92 C31.6120959,58.9737355 33.9746145,58.3831058 36.06,57.21 C37.2652534,56.502274 38.0039362,55.2076753 38.0000157,53.81 L38.0000157,24.66 C38.0000157,19.82 35.65,17.71 34.23,16.88 Z M26.23,8.36 C26.0975464,7.33230822 26.047387,6.29567888 26.08,5.26 C27.1143754,5.58806083 28.194977,5.74677419 29.28,5.73 C30.3617568,5.74692615 31.439092,5.5881965 32.47,5.26 C32.5003439,6.29870266 32.4535487,7.33822498 32.33,8.37 C31.3950159,8.81504474 30.3642333,9.02120125 29.33,8.97 C28.251035,9.04779875 27.1707884,8.83727145 26.2,8.36 L26.23,8.36 Z M29.23,2.92 C30.1331658,2.89787844 31.0332833,3.03323446 31.89,3.32 C31.0341303,3.61116149 30.13382,3.74993112 29.23,3.73 C28.32618,3.74993112 27.4258697,3.61116149 26.57,3.32 C27.4330578,3.03092651 28.3401462,2.89554018 29.25,2.92 L29.23,2.92 Z M29.9,23.82 C29.5193809,23.4764815 28.9406191,23.4764815 28.56,23.82 L22.44,29.29 L22.44,24.66 C22.44,20.82 24.2,19.22 25.24,18.61 C26.0970961,18.1175879 26.6296623,17.2084212 26.64,16.22 L26.64,10.68 C27.4889819,10.8778516 28.3582841,10.9751866 29.23,10.97 C30.0984325,10.9755178 30.964463,10.8781732 31.81,10.68 L31.81,16.22 C31.8203377,17.2084212 32.3529039,18.1175879 33.21,18.61 C34.21,19.22 36.01,20.82 36.01,24.66 L36.01,29.29 L29.9,23.82 Z"/>
        <path id="Shape" fill="#3D454C" d="M27.4,46.06 C29.4307503,43.7260466 29.4519965,40.2586639 27.45,37.9 C28.6763792,36.5689871 29.6641717,35.0365556 30.37,33.37 C30.5260074,33.0383522 30.4880873,32.6479331 30.2711743,32.3525058 C30.0542614,32.0570784 29.6931145,31.9039836 29.3299685,31.9535163 C28.9668224,32.003049 28.6598693,32.247272 28.53,32.59 C27.9017635,34.0639722 27.0219911,35.4174682 25.93,36.59 L25.81,36.51 C22.8012466,34.8659686 19.0320917,35.8631692 17.23,38.78 C14.1660676,43.4734092 9.72701201,47.1056813 4.52,49.18 C2.76803574,49.8444979 1.76194539,51.6868743 2.15,53.52 C2.47425776,55.2917355 4.0393788,56.5641916 5.84,56.52 L5.92,56.52 C14.31,56.35 21.53,52.83 27.4,46.06 Z M5.88,54.51 C5.0150121,54.5884581 4.23884826,53.9789283 4.11,53.12 C3.88932565,52.2195651 4.39267839,51.2996446 5.27,51 C10.8516915,48.7881696 15.6126033,44.9039921 18.9,39.88 C20.1409908,37.8759145 22.71374,37.1619874 24.81,38.24 C25.9138809,38.881055 26.6740026,39.9813821 26.8829202,41.2406907 C27.0918377,42.4999992 26.7277426,43.7868323 25.89,44.75 C20.41,51.07 13.68,54.36 5.88,54.51 Z"/>
        <path id="Path" fill="#3D454C" d="M26.2,52.11 C26.7522847,52.11 27.2,51.6622847 27.2,51.11 C27.2,50.5577153 26.7522847,50.11 26.2,50.11 C25.6477153,50.11 25.2,50.5577153 25.2,51.11 C25.2,51.6622847 25.6477153,52.11 26.2,52.11 Z"/>
      </g>
    </g>
  </g>
</svg>
