<svg xmlns="http://www.w3.org/2000/svg" width="64" height="64" viewBox="0 0 64 64" style="background:#fff">
  <g id="Tamarinde" fill="none" fill-rule="evenodd" stroke="none" stroke-width="1">
    <rect width="64" height="64" fill="#FFF"/>
    <g transform="translate(2 7)">
      <g id="Layer_2">
        <rect id="Rectangle" width="60" height="60" x="0" y="0"/>
        <rect id="Rectangle" width="60" height="60" x="0" y="0"/>
      </g>
      <g id="Layer_1" fill-rule="nonzero" transform="translate(7 6)">
        <path id="Path" fill="#C17953" d="M39,35.08 C37.43,35.14 35.92,35.24 34.41,35.24 C34.019215,34.2962243 33.2821705,33.5377125 32.35,33.12 C30.77,32.43 29.52,32.68 27.87,32.77 C26.7473297,32.8263974 25.6229082,32.7014617 24.54,32.4 C24.78,30.4 24.35,28.14 22.79,27 C21.23,25.86 19.51,26.07 17.79,26 C18.17,23.29 17.07,20.11 14.93,19 C12.79,17.89 10.2,18.2 8.67,16 C7.45,14.29 8.19,12.42 8.67,10.58 C9.13,8.98 8.67,4.52 6,5.58 C0.49,7.85 0.09,16.54 1.8,21.28 C2.75930329,23.7393843 4.28369324,25.9386165 6.25,27.7 C6.83103155,30.2469617 8.10055363,32.585373 9.92,34.46 C11.4692111,35.946493 13.3674515,37.0194115 15.44,37.58 C16.6437361,39.5385159 18.2914841,41.1862639 20.25,42.39 C21.6564909,43.2328663 23.1894038,43.8440056 24.79,44.2 C29.3700998,47.2072004 35.0346478,48.0654652 40.3,46.55 C44.49,45.27 43.77,34.93 39,35.08 Z" opacity=".5"/>
        <path id="Shape" fill="#3D454C" d="M45.56,40.19 C45.4527406,39.9105243 45.218781,39.6988466 44.93,39.62 C44.87,39.62 43.62,39.21 41.64,38.46 C41.8997466,36.3038859 40.8178595,34.2074819 38.91,33.17 L38,32.66 C36.7968831,32.0181131 35.3917939,31.8675678 34.08,32.24 C34.1408885,30.5150957 33.4029765,28.8584834 32.08,27.75 L31.3,27.09 C29.7984887,25.8525284 27.7658885,25.4747217 25.92,26.09 C26.196075,24.1488146 25.5741779,22.1874467 24.23,20.76 L23.44,19.94 C22.0599624,18.5023099 20.0913023,17.785762 18.11,18 C18.1930865,17.712863 18.2466968,17.4180067 18.27,17.12 C18.402922,15.6041582 17.9076364,14.1002252 16.9,12.96 L16.37,12.35 C14.6976691,10.4479984 11.9653568,9.88846657 9.68,10.98 C9.3426779,9.61631067 9.13838855,8.2231243 9.07,6.82 L10.71,5.23 C11.56,4.41 12.46,3.55 13.4,2.61 C13.7877236,2.21996255 13.7877236,1.59003745 13.4,1.2 C13.2122334,1.01068735 12.9566375,0.904201676 12.69,0.904201676 C12.4233625,0.904201676 12.1677666,1.01068735 11.98,1.2 C11.06,2.12 10.17,2.98 9.32,3.79 C4.4,8.48 0.85,11.89 0.85,18.9 C0.859766404,21.5702658 1.99642311,24.1123095 3.98,25.9 C4.38231127,31.9318232 9.00238543,36.8327912 15,37.59 C16.9498491,42.3274507 21.5570264,45.4278285 26.68,45.45 L27.11,45.45 C30.075823,47.5375111 33.7973419,48.2457907 37.3226359,47.3936691 C40.8479299,46.5415475 43.835077,44.211673 45.52,41 C45.6471317,40.7477664 45.6616618,40.453532 45.56,40.19 Z M33.44,34.75 C34.4561558,33.9435857 35.8529283,33.8141096 37,34.42 L37.94,34.93 C38.9586153,35.4772048 39.6097853,36.524408 39.65,37.68 C37.84,36.94 35.65,35.99 33.33,34.82 L33.33,34.82 L33.44,34.75 Z M30,28.61 L30.78,29.28 C32.1171019,30.4320903 32.4447527,32.3727914 31.56,33.9 C29.0744863,32.5834491 26.6671391,31.1243497 24.35,29.53 L25.06,28.82 C26.4073774,27.4894269 28.5445619,27.3985749 30,28.61 Z M17,20.32 C18.7103329,19.5614881 20.7129665,19.9620148 22,21.32 L22.78,22.14 C24.3576137,23.8199367 24.3837028,26.4288502 22.84,28.14 C22.794177,28.2029952 22.7540203,28.2699231 22.72,28.34 C20.0516701,26.3806364 17.6099425,24.130088 15.44,21.63 L16.25,20.95 C16.4705273,20.7646201 16.6746201,20.5605273 16.86,20.34 C16.86,20.34 16.94,20.34 17,20.32 Z M14.88,13.62 L15.41,14.23 C16.0629322,14.9667183 16.384694,15.9392343 16.3,16.92 C16.2213753,17.8973116 15.7528651,18.8018966 15,19.43 L14.21,20.08 C12.533369,17.9027451 11.2073646,15.4767982 10.28,12.89 C11.7849382,12.0075043 13.7039823,12.3133781 14.86,13.62 L14.88,13.62 Z M34.37,45.7700409 C32.9365795,45.7739979 31.5174916,45.4847354 30.2,44.92 L30.83,44.73 C31.167616,44.610316 31.4157354,44.3196075 31.480894,43.9673815 C31.5460527,43.6151555 31.4183514,43.2549235 31.145894,43.0223815 C30.8734367,42.7898394 30.497616,42.720316 30.16,42.84 C29.0266112,43.2426989 27.8328032,43.4489943 26.63,43.45 C22.6538012,43.4270117 19.0182724,41.2010205 17.19,37.67 C17.8248301,37.6468085 18.4568163,37.5732439 19.08,37.45 C19.6322847,37.339543 19.9904569,36.8022847 19.88,36.25 C19.769543,35.6977153 19.2322847,35.3395431 18.68,35.45 C13.0493024,36.5896794 7.53310579,33.0451353 6.23,27.45 C6.99542621,27.8173506 7.80564054,28.0829395 8.64,28.24 L8.82,28.24 C9.37228473,28.2897056 9.86029432,27.8822847 9.90999994,27.33 C9.95970557,26.7777153 9.55228472,26.2897057 9,26.24 C5.45582665,25.5834269 2.87597393,22.5043832 2.85,18.9 C2.85,14.42 4.51,11.62 7.22,8.67 C8.37,17.67 14.84,26.12 26.11,33.1 C31.472673,36.3699053 37.1722786,39.0520726 43.11,41.1 C41.1471975,44.0050987 37.875981,45.7529913 34.37,45.7700409 L34.37,45.7700409 Z"/>
      </g>
    </g>
  </g>
</svg>
