<svg xmlns="http://www.w3.org/2000/svg" width="64" height="64" viewBox="0 0 64 64" style="background:#fff">
  <g id="Tempeh" fill="none" fill-rule="evenodd" stroke="none" stroke-width="1">
    <rect width="64" height="64" fill="#FFF"/>
    <g transform="translate(2 8)">
      <g id="Layer_2">
        <rect id="Rectangle" width="60" height="60" x="0" y="0"/>
        <rect id="Rectangle" width="60" height="60" x="0" y="0"/>
      </g>
      <g id="Layer_1" fill-rule="nonzero" transform="translate(5 7)">
        <path id="Path" fill="#BAB41D" d="M37.73 4.57C36.3478566 3.24039356 34.1621434 3.24039356 32.78 4.57L32.51 4.84C31.1430952 6.22071187 31.1542881 8.44809524 32.535 9.815 33.9157119 11.1819048 36.1430952 11.1707119 37.51 9.79L37.78 9.52C39.1062166 8.12857857 39.0840527 5.934348 37.73 4.57L37.73 4.57zM12.58 6.21L12.3200001 6.21C10.3870034 6.21 8.82000007 7.7770034 8.82000007 9.71 8.82000007 11.6429966 10.3870034 13.21 12.3200001 13.21L12.58 13.21C14.5129966 13.21 16.0799999 11.6429966 16.0799999 9.71 16.0799999 7.7770034 14.5129966 6.21 12.58 6.21L12.58 6.21zM15.52 21.68C11.01 21.68 11.01 28.68 15.52 28.68 20.03 28.68 20 21.68 15.52 21.68zM27.78 16.08C23.28 16.08 23.27 23.08 27.78 23.08 32.29 23.08 32.3 16.08 27.78 16.08zM40.05 13.15C35.55 13.15 35.54 20.15 40.05 20.15 44.56 20.15 44.56 13.15 40.05 13.15zM7.25 12.35C2.75 12.35 2.74 19.35 7.25 19.35 11.76 19.35 11.76 12.35 7.25 12.35zM23.78 4.35C21.8604519 4.38208827 20.3120883 5.93045187 20.28 7.85L20.28 8.11C20.28 10.0429966 21.8470034 11.61 23.78 11.61 25.7129966 11.61 27.28 10.0429966 27.28 8.11L27.28 7.85C27.2636984 5.92379613 25.7062039 4.36630161 23.78 4.35L23.78 4.35zM12.58 31.55C8.08 31.55 8.07 38.55 12.58 38.55 17.09 38.55 17.1 31.55 12.58 31.55zM36.05 34.21C31.55 34.21 31.54 41.21 36.05 41.21 40.56 41.21 40.56 34.21 36.05 34.21zM25.12 28.08C20.61 28.08 20.61 35.08 25.12 35.08 29.63 35.08 29.63 28.08 25.12 28.08z" opacity=".5"/>
        <path id="Shape" fill="#3D454C" d="M50,7.79 C50,7.79 50,7.79 50,7.71 C49.9894909,7.6246708 49.969363,7.54080426 49.94,7.46 C49.9454809,7.42353815 49.9454809,7.38646185 49.94,7.35 C49.9025082,7.28286158 49.8589961,7.21926703 49.81,7.16 L49.72,7.07 C49.662963,7.02080585 49.5989298,6.98036385 49.53,6.95 L49.42,6.89 L49.42,6.89 C49.36,6.89 44.21,5.21 41.52,3.98 C39.26,2.98 33.35,1.04 30.92,0.27 C30.2346863,0.0448439702 29.4953137,0.0448439702 28.81,0.27 C26.2609972,1.11607523 23.6496924,1.76137846 21,2.2 C17.46,2.68 1.76,5.81 1.09,5.94 L1,6 L0.87,6 C0.797618174,6.03383243 0.730304154,6.07758654 0.67,6.13 C0.638958153,6.14780147 0.611764536,6.17159589 0.59,6.2 C0.507655813,6.28107633 0.439987602,6.37581183 0.39,6.48 C0.386161902,6.4964457 0.386161902,6.5135543 0.39,6.53 C0.355902544,6.60993759 0.332370953,6.69397899 0.32,6.78 L0.32,6.78 C0.32,6.78 0.32,6.78 0.32,6.78 C0.32,7.27 0.09,18.9 0.32,23.57 C0.337908074,23.9506295 0.570577963,24.2880008 0.92,24.44 C1.03,24.44 2.69,25.21 4.58,25.94 L1.94,26.56 L1.94,26.56 L1.79,26.62 L1.63,26.71 C1.58229083,26.7411581 1.53862502,26.7781061 1.5,26.82 C1.5,26.82 1.42,26.91 1.38,26.97 L1.3,27.1 C1.26940091,27.1776994 1.24597004,27.2580338 1.23,27.34 L1.23,27.42 C0.982996518,30.2112128 0.982996518,33.0187872 1.23,35.81 C1.26948208,36.1938968 1.52634364,36.5208115 1.89,36.65 C2.03,36.65 15.77,41.58 19.3,43.29 C22.8685343,44.7898732 26.5457626,46.0167303 30.3,46.96 L30.47,46.96 L30.56,46.96 C30.6721556,46.9545611 30.7831079,46.934388 30.89,46.9 C33.2195013,46.0942319 35.5934219,45.4231235 38,44.89 C40.67,44.36 43.91,43.43 44,43.39 C44.4094477,43.2711649 44.6985253,42.9058028 44.72,42.48 C44.875431,39.6955007 44.875431,36.9044993 44.72,34.12 C44.72,34.12 44.72,34.12 44.72,34.04 C44.7107962,33.9533414 44.6871352,33.8688378 44.65,33.79 C44.6371812,33.7580183 44.6203821,33.7277799 44.6,33.7 C44.5511737,33.6095146 44.4868677,33.528286 44.41,33.46 L44.41,33.46 C44.3128505,33.3690115 44.1967284,33.3007044 44.07,33.26 C43.99,33.26 38.26,31.41 33.07,29.7 C37.72,28.26 49.15,25.57 49.28,25.54 C49.6921584,25.4404512 49.9967303,25.0917965 50.04,24.67 C50.44,20.54 50,8.31 50,7.79 Z M8.11,25.22 C6.11,24.59 3.45,23.47 2.29,22.97 C2.14,19.1 2.29,11.6 2.29,8.42 C3.66,8.99 5.81,9.86 7.51,10.42 C9.71,11.12 17.51,14.42 19.8,15.36 C19.8,16.97 19.73,21.21 19.72,25.1 C18.43,24.63 17.38,24.23 16.91,24.01 C16.2514841,23.7158719 15.5191632,23.6286909 14.81,23.76 C13.81,23.96 10.92,24.61 8.15,25.25 L8.11,25.22 Z M3.11,35.11 C2.96607245,33.0892262 2.96607245,31.0607738 3.11,29.04 C6.57,30.28 16.37,33.83 19.28,35.24 C22.5902628,36.6632388 26.0075,37.8234945 29.5,38.71 C29.5,39.85 29.59,42.19 29.5,44.83 C26.2871515,43.9978983 23.1415781,42.92486 20.09,41.62 C16.86,40.05 5.84,36.09 3.1,35.11 L3.11,35.11 Z M42.81,41.66 C41.71,41.97 39.48,42.56 37.61,42.92 C35.5516299,43.3950767 33.5217314,43.9860176 31.53,44.69 C31.59,42.11 31.53,39.84 31.53,38.69 L42.85,35.49 C42.87,36.8 42.91,39 42.8,41.66 L42.81,41.66 Z M30.46,36.9 C26.9243746,36.009504 23.461164,34.8528719 20.1,33.44 C17.53,32.19 10.03,29.44 5.68,27.86 C9,27.08 13.84,26 15.19,25.7 C15.4952793,25.6510827 15.8082023,25.6928058 16.09,25.82 C17.72,26.55 24.67,28.99 27.09,29.82 C30.66,31 36.63,33 40.29,34.13 L30.46,36.9 Z M48.08,23.74 C45.18,24.43 34.42,27.01 31.23,28.18 C31.07,28.24 30.8,28.29 30.55,28.35 C30.3,28.41 30.02,28.46 29.83,28.52 C29.64,28.58 29.75,28.52 29.71,28.58 L27.71,27.9 C26.22,27.39 23.89,26.58 21.76,25.81 C21.76,21.81 21.76,17.34 21.82,15.52 C23.22,15.28 26.12,14.76 28.36,14.3 C28.6220601,14.2471322 28.8520402,14.0915339 28.9985947,13.8679444 C29.1451491,13.6443549 29.1960741,13.3713928 29.14,13.11 C29.0249782,12.5727584 28.4980725,12.2289301 27.96,12.34 C25.4,12.87 21.96,13.47 20.96,13.65 C19.28,12.93 10.6,9.27 8.15,8.49 C7.15,8.17 5.89,7.7 4.78,7.26 C9.72,6.26 18.83,4.52 21.34,4.18 C24.0547113,3.72282886 26.7295272,3.05412488 29.34,2.18 C29.6264513,2.09013963 29.9335487,2.09013963 30.22,2.18 C32.09,2.77 38.37,4.79 40.6,5.81 C41.98,6.43 43.93,7.16 45.6,7.73 C43.18,8.38 39.83,9.27 37.11,9.97 C36.7394729,10.0352053 36.4368981,10.3028556 36.3269626,10.6626559 C36.217027,11.0224562 36.3183367,11.4135118 36.5891435,11.6746742 C36.8599502,11.9358365 37.254421,12.0229051 37.61,11.9 C41.2,10.98 45.9,9.72 48.09,9.14 C48.14,12.19 48.33,20.08 48.08,23.74 Z"/>
        <path id="Path" fill="#3D454C" d="M33.06 11.25C32.5077153 11.25 32.06 11.6977153 32.06 12.25 32.06 12.8022847 32.5077153 13.25 33.06 13.25 33.6122847 13.25 34.06 12.8022847 34.06 12.25 34.06 11.6977153 33.6122847 11.25 33.06 11.25zM27.33 18.18C26.7777153 18.18 26.33 18.6277153 26.33 19.18 26.33 19.7322847 26.7777153 20.18 27.33 20.18 27.8822847 20.18 28.33 19.7322847 28.33 19.18 28.33 18.6277153 27.8822847 18.18 27.33 18.18zM34.93 20.18C34.3777153 20.18 33.93 20.6277153 33.93 21.18 33.93 21.7322847 34.3777153 22.18 34.93 22.18 35.4822847 22.18 35.93 21.7322847 35.93 21.18 35.93 20.6277153 35.4822847 20.18 34.93 20.18zM40.53 15.78C39.9777153 15.78 39.53 16.2277153 39.53 16.78 39.53 17.3322847 39.9777153 17.78 40.53 17.78 41.0822847 17.78 41.53 17.3322847 41.53 16.78 41.53 16.2277153 41.0822847 15.78 40.53 15.78zM8.13 15.38C7.57771525 15.38 7.13 15.8277153 7.13 16.38 7.13 16.9322847 7.57771525 17.38 8.13 17.38 8.68228475 17.38 9.13 16.9322847 9.13 16.38 9.13 15.8277153 8.68228475 15.38 8.13 15.38zM14.13 19.38C13.5777153 19.38 13.13 19.8277153 13.13 20.38 13.13 20.9322847 13.5777153 21.38 14.13 21.38 14.6822847 21.38 15.13 20.9322847 15.13 20.38 15.13 19.8277153 14.6822847 19.38 14.13 19.38zM8.13 32.58C7.57771525 32.58 7.13 33.0277153 7.13 33.58 7.13 34.1322847 7.57771525 34.58 8.13 34.58 8.68228475 34.58 9.13 34.1322847 9.13 33.58 9.13 33.0277153 8.68228475 32.58 8.13 32.58zM13.93 36.38L13.93 36.78C13.93 37.3322847 14.3777153 37.78 14.93 37.78 15.4822847 37.78 15.93 37.3322847 15.93 36.78L15.93 36.38C15.93 35.8277153 15.4822847 35.38 14.93 35.38 14.3777153 35.38 13.93 35.8277153 13.93 36.38zM37.73 39.78C37.1777153 39.78 36.73 40.2277153 36.73 40.78 36.73 41.3322847 37.1777153 41.78 37.73 41.78 38.2822847 41.78 38.73 41.3322847 38.73 40.78 38.73 40.2277153 38.2822847 39.78 37.73 39.78zM24.53 39C23.9777153 39 23.53 39.4477153 23.53 40 23.53 40.5522847 23.9777153 41 24.53 41 25.0822847 41 25.53 40.5522847 25.53 40 25.53 39.4477153 25.0822847 39 24.53 39zM28.93 23.78C28.3777153 23.78 27.93 24.2277153 27.93 24.78 27.93 25.3322847 28.3777153 25.78 28.93 25.78 29.4822847 25.78 29.93 25.3322847 29.93 24.78 29.93 24.2277153 29.4822847 23.78 28.93 23.78zM44.53 20.18C43.9777153 20.18 43.53 20.6277153 43.53 21.18 43.53 21.7322847 43.9777153 22.18 44.53 22.18 45.0822847 22.18 45.53 21.7322847 45.53 21.18 45.53 20.6277153 45.0822847 20.18 44.53 20.18z"/>
      </g>
    </g>
  </g>
</svg>
