<svg xmlns="http://www.w3.org/2000/svg" width="64" height="64" viewBox="0 0 64 64" style="background:#fff">
  <g id="Thunfisch" fill="none" fill-rule="evenodd" stroke="none" stroke-width="1">
    <rect width="64" height="64" fill="#FFF"/>
    <g transform="translate(2 6)">
      <g id="Layer_2">
        <rect id="Rectangle" width="60" height="60" x="0" y=".44"/>
        <rect id="Rectangle" width="60" height="60" x="0" y="0"/>
      </g>
      <g id="Layer_1" fill-rule="nonzero" transform="translate(5 8)">
        <path id="Path" fill="#31D4E0" d="M48.83,3.5 C48.53,1.5 46.27,-0.11 44.92,2.04 C41.92,6.8 40.6,11.04 35.63,14.39 C30.66,17.74 24.9,18.82 20,21.86 C17.21,23.59 16.4,32.5 21.14,31.96 C33.7,30.54 51,17.54 48.83,3.5 Z" opacity=".5"/>
        <path id="Path" fill="#4D4D4D" d="M41.21 1.32C36.84-1.12 30.7 1.32 26.89 3.87 22.61 6.72 18.69 11.25 17.81 16.42 17.58 17.8 19.16 22.32 21.05 20.03 23.84 16.66 25.42 12.97 29.23 10.42 33.04 7.87 37.51 7.84 41.32 5.75 42.87 4.9 42.66 2.13 41.21 1.32zM16.93 33.15C16.9349028 33.0600668 16.9349028 32.9699332 16.93 32.88 17.02 31.76 16.28 29.11 14.72 30.41 14.3964626 30.6807087 14.1105939 30.9934827 13.87 31.34 12.7213726 31.4285182 11.5813085 31.605713 10.46 31.87 8.74974733 32.1641496 7.02325633 32.3544977 5.29 32.44 1.71 32.67 2.38 38.92 4.79 40.21 7.28188069 41.6201656 9.48948408 43.4818772 11.3 45.7 13.72 48.5 15.62 44.7 15.3 42.28 15.3 42.16 15.3 41.96 15.36 41.67 15.43 41.18 15.5 40.67 15.58 40.2 15.69 39.46 15.82 38.73 15.95 38 15.95 37.91 15.95 37.83 15.95 37.75L16.03 37.69C17 36.92 17.38 34.73 16.93 33.15z" opacity=".5"/>
        <path id="Shape" fill="#3D454C" d="M50.38,4.83 C49.66,2 46.63,-0.92 36.51,1.29 L24.51,0.54 C24.1526464,0.506055378 23.8045139,0.666250722 23.5978311,0.959740239 C23.3911484,1.25322976 23.3576273,1.63498242 23.51,1.96 C24.0863118,3.01296802 24.0863118,4.28703198 23.51,5.34 C22.5290329,6.82602678 20.9237044,7.78333275 19.15,7.94 C18.8459876,7.97216036 18.5733864,8.14161517 18.41,8.4 C18.2447075,8.6592113 18.20783,8.98004588 18.31,9.27 C18.8726519,10.7552997 18.7632013,12.4116509 18.01,13.81 C17.2186912,15.218886 15.866579,16.2257007 14.29,16.58 C13.9453477,16.6586063 13.6678055,16.9133368 13.56,17.25 C13.4415602,17.5966365 13.5221273,17.9802891 13.77,18.25 C15.5854522,20.5569769 16.431849,23.479915 16.13,26.4 C15.4388982,27.7571141 14.4260893,28.9244192 13.18,29.8 C12.6162445,30.2594818 12.0787319,30.7502542 11.57,31.27 L11.4,31.27 C5.4,31.95 1.74,33.47 0.61,35.81 C0.40532942,36.2683551 0.572181412,36.8074154 1,37.07 C1.42,37.35 5.14,39.78 7.43,39.88 C7.74969494,39.8906208 8.00484518,40.1501702 8.01,40.47 C8.11,42.83 11.27,46.36 11.62,46.76 C11.813182,46.9683781 12.0858903,47.0847337 12.37,47.080139 C12.5189933,47.079117 12.6659063,47.0449512 12.8,46.98 C16.29,45.29 16.56,38.77 16.65,36.63 L16.65,36.53 C17,36.2 17.33,35.84 17.65,35.53 C18.9950149,33.8061468 20.8332857,32.5329612 22.92,31.88 C23.74,31.67 24.55,31.41 25.35,31.14 L23.16,34.84 C22.9115983,35.3148504 23.0816763,35.9011063 23.5456398,36.1692932 C24.0096032,36.4374802 24.602504,36.2922526 24.89,35.84 L28.37,29.95 C32.183193,28.2674628 35.7574383,26.088619 39,23.47 C38.7,24.15 38.39,24.83 38.09,25.47 C37.56,26.64 39.28,27.65 39.81,26.47 L42.59,20.33 C42.5945429,20.290129 42.5945429,20.249871 42.59,20.21 C48.12,14.81 51.37,8.79 50.38,4.83 Z M48.44,5.32 C48.95,7.32 47.83,10.32 45.56,13.64 C38.64,12.47 37.03,5.64 36.68,3.29 C43.55,1.75 47.72,2.46 48.44,5.32 L48.44,5.32 Z M16.18,18.07 C17.7211048,17.4008667 18.9974546,16.2405487 19.81,14.77 C20.6528352,13.2295013 20.9187582,11.4389531 20.56,9.72 C22.5331133,9.27060236 24.2418321,8.04493907 25.3,6.32 C25.9363964,5.20180998 26.1460036,3.89087728 25.89,2.63 L31.67,2.99 C31.58,2.99 31.5,3.09 31.42,3.13 L31.05,3.34 L30.05,3.95 L29.74,4.16 C29.34,4.44 28.94,4.74 28.54,5.07 L28.3,5.27 C27.98,5.54 27.66,5.83 27.35,6.12 L27.01,6.45 C26.68,6.77 26.35,7.11 26.01,7.45 L25.84,7.63 C25.47,8.05 25.1,8.49 24.74,8.94 L24.46,9.31 C24.18,9.67 23.9,10.05 23.63,10.43 L23.34,10.85 C22.99,11.36 22.65,11.85 22.34,12.43 L22.25,12.58 C21.94,13.08 21.64,13.58 21.34,14.15 C21.24,14.32 21.15,14.5 21.06,14.67 C20.8,15.15 20.54,15.67 20.29,16.14 C20.22,16.28 20.15,16.43 20.07,16.57 C19.76,17.21 19.45,17.87 19.15,18.57 C19.08,18.72 19.02,18.88 18.95,19.04 C18.71,19.59 18.47,20.15 18.23,20.73 L17.98,21.37 C17.91,21.53 17.85,21.69 17.78,21.86 C17.444776,20.521892 16.9050936,19.2435193 16.18,18.07 Z M12.54,44.75 C11.38,43.34 10.06,41.39 10.02,40.38 C9.96866727,39.0211186 8.87888141,37.9313327 7.52,37.88 C5.90787254,37.5452291 4.3740154,36.9072531 3,36 C3.85,35.19 5.83,34.1 10.37,33.45 C10.3434704,33.5953773 10.3267659,33.7423768 10.32,33.89 C10.3881271,34.9677993 10.9300468,35.9600983 11.8,36.6 C12.4377044,37.2635544 13.3014379,37.6632988 14.22,37.72 C14.3431165,37.7303424 14.4668835,37.7303424 14.59,37.72 C14.3,42 13.41,43.9 12.54,44.75 Z M22.42,29.92 C19.9559398,30.6577968 17.7778039,32.1343216 16.18,34.15 C14.54,35.95 14.26,36.15 13.13,35.15 C12.7150218,34.8537519 12.4288573,34.4101971 12.33,33.91 C12.33,33.2 13.45,32.25 14.53,31.33 C15.92,30.14 17.53,28.79 18.12,26.95 L18.12,26.95 C18.7,25.19 19.3,23.54 19.92,21.95 C23.92,11.84 28.83,5.88 34.77,3.83 C35.26,6.69 37.18,13.68 44.23,15.43 C39.49,21.31 31.39,27.54 22.42,29.92 Z"/>
        <path id="Path" fill="#3D454C" d="M33.43 11.7C30.5090138 13.4752043 28.1538621 16.0454067 26.64 19.11 26.07 20.26 27.8 21.28 28.37 20.11 29.7087562 17.3432639 31.8160894 15.0206842 34.44 13.42 35.54 12.76 34.53 11 33.43 11.7zM25.68 22.23C25.1277153 22.23 24.68 22.6777153 24.68 23.23 24.68 23.7822847 25.1277153 24.23 25.68 24.23 26.2322847 24.23 26.68 23.7822847 26.68 23.23 26.68 22.6777153 26.2322847 22.23 25.68 22.23zM43 6.12C43.5522847 6.12 44 5.67228475 44 5.12 44 4.56771525 43.5522847 4.12 43 4.12 42.4477153 4.12 42 4.56771525 42 5.12 42 5.67228475 42.4477153 6.12 43 6.12z"/>
      </g>
    </g>
  </g>
</svg>
