<svg xmlns="http://www.w3.org/2000/svg" width="64" height="64" viewBox="0 0 64 64" style="background:#fff">
  <g id="Thymian" fill="none" fill-rule="evenodd" stroke="none" stroke-width="1">
    <rect width="64" height="64" fill="#FFF"/>
    <g transform="translate(2 3)">
      <g id="Layer_2">
        <rect id="Rectangle" width="60" height="60" x="0" y=".91"/>
        <rect id="Rectangle" width="60" height="60" x="0" y="1"/>
      </g>
      <g id="Layer_1" fill-rule="nonzero" transform="translate(7 8)">
        <path id="Path" fill="#31E085" d="M23.79 18.23C23.5411309 17.6115527 23.2043274 17.0322506 22.79 16.51 22.86 16.34 22.94 16.18 22.98 16.09 23.88 14.18 23.18 9.2 20.25 9.37 15.32 9.64 14.93 17.3 16.57 20.62 17.42 22.33 18.91 24.15 21.02 24.05 23.81 23.93 24.63 20.34 23.79 18.23zM36.58.57C33.5.09 31.73 4.33 31.28 6.72 30.73 9.56 31.12 13.72 34.04 15.2 36.31 16.33 37.2 12.61 37.26 11.27 37.2799949 10.9102776 37.2799949 10.5497224 37.26 10.19L37.26 10.19 37.26 10.19C37.25806 10.170047 37.25806 10.149953 37.26 10.13L37.26 10.13C37.8056183 9.53346247 38.2944022 8.88733025 38.72 8.2 40.31 5.75 39.83 1.06 36.58.57zM37.26 25C36.09 25.39 35.13 26.18 33.95 26.54 32.77 26.9 31.7 26.87 30.58 27.12 27.9 27.72 27.35 32.47 29.58 34.04 33.0722832 36.3685397 37.7851253 35.4801623 40.19 32.04 41.51 29.9 40.87 23.74 37.26 25zM30.19 37.06C29.5045563 36.457284 28.5400367 36.2875286 27.69 36.62 26.4908066 37.2045297 25.2093615 37.6024521 23.89 37.8 22.55 37.91 21.18 37.57 19.89 37.8 17.25 38.19 17.5 41.93 18.46 43.65 20.07 46.55 23.7 47.65 26.84 47.18 28.9 46.84 30.78 45.87 31.54 43.79 32.3 41.71 32.12 38.64 30.19 37.06zM14.8 28C14.65 24.75 12.63 19.64 8.92 19.11 8.32939329 18.6590028 7.49425964 18.723575 6.98 19.26 4.07968655 21.4683221 2.46177434 24.9700534 2.66 28.61 2.87 32.19 5.18 36.25 9.17 36.3 13.16 36.35 15 31.36 14.8 28zM45.63 14.79C44.4971889 14.3441843 43.2555642 14.2535039 42.07 14.53 40.8568403 14.6260987 39.6642376 14.8989823 38.53 15.34 37.27 15.92 36.76 17.69 36.83 18.96 36.9 20.23 37.34 22.14 38.7 22.5 39.8698318 22.7679836 41.0742361 22.8523257 42.27 22.75 43.5022028 22.8270881 44.7306903 22.5494638 45.81 21.95 48 20.51 48.29 16 45.63 14.79z" opacity=".5"/>
        <path id="Shape" fill="#3D454C" d="M29.55,23 C31.4124882,22.0906772 33.396158,21.4541516 35.44,21.11 C36.17,22.64 37.86,23.56 40.11,23.56 C43.11,23.56 46.81,19.44 46.81,16.85 C46.81,14.75 41.66,14.23 40.92,14.23 C38.58,14.23 35.15,15.79 35.04,19.15 C33.89,19.39 32.85,19.64 31.93,19.92 C33.1680655,18.238217 34.2271411,16.4317558 35.09,14.53 C38.5331719,13.6712816 40.9848775,10.6270804 41.09,7.08 C41.09,4.01 39.22,0.37 37.64,0.37 C35.83,0.37 30.12,3.12 30.12,7.89 C30.12,10.45 31.26,13.24 33.02,14.22 C31.6847731,16.8615712 30.0362339,19.3327012 28.11,21.58 C26.1179525,23.9756305 23.987657,26.2528429 21.73,28.4 C21.9577817,27.0457813 22.1146621,25.6805876 22.2,24.31 C24.2,24.05 27.2,22.7 27.2,16.85 C27.2,12.07 22.69,8.52 21.31,8.52 C19,8.52 15.42,14.6 15.42,17.67 C15.42,21.32 17.19,23.75 20.17,24.26 C20,28.16 19.4,30.08 18.94,31 L18.34,31.54 L18.34,31.54 C15.85,33.74 13.1,35.99 10.18,38.21 L10.02,38.33 C10.1992477,37.4245946 10.2830394,36.502886 10.27,35.58 C13.0204787,34.5808051 14.8909692,32.014318 15,29.09 C15,24.43 10.27,18.31 7.49,18.31 C4.54,18.31 1.6,27.89 1.6,29.9 C1.6,33.82 5.29,35.47 8.23,35.74 C8.34014945,37.521266 7.83533738,39.2863432 6.8,40.74 C5.1,41.96 3.23,43.26 1.23,44.58 C0.802932969,44.8994664 0.701732916,45.4978668 1,45.94 C1.18627044,46.2155788 1.49737392,46.3805011 1.83,46.3800272 C2.02501272,46.3814376 2.21619016,46.3258223 2.38,46.22 C4.44,44.85 6.38,43.52 8.12,42.22 L8.12,42.22 C9.17,41.46 10.19,40.71 11.18,39.96 C12.8923469,39.6748286 14.6449261,39.74289 16.33,40.16 C16.5907763,43.655633 19.4946916,46.3636321 23,46.3800272 C27.7,46.3800272 33,44.21 33,41.31 C33,39.56 27.71,34.61 23.85,34.61 C21.0611879,34.603048 18.445944,35.9629749 16.85,38.25 C15.9112372,38.0421831 14.9588038,37.9018245 14,37.83 C15.94,36.29 17.8,34.75 19.53,33.22 C21.7395382,32.5913246 23.9876129,32.1069698 26.26,31.77 C26.84,33.9 29.26,34.98 33.64,34.98 C36.85,34.98 41.16,31.66 41.16,28.27 C41.16,26.27 36.67,24.83 33.64,24.83 C30.77,24.83 27.05,27.11 26.28,29.74 C24.94,29.95 23.72,30.17 22.6,30.4 C25.0637409,28.0757097 27.3846451,25.6045312 29.55,23 L29.55,23 Z M40.92,16.23 C42.2530246,16.2836748 43.5633738,16.5925913 44.78,17.14 C44.48,18.75 41.78,21.56 40.11,21.56 C39.1744343,21.6158575 38.2535218,21.3076922 37.54,20.7 C39.08,20.43 40.21,20.29 40.23,20.29 C40.5872656,20.2471281 40.8945208,20.016914 41.0360254,19.686077 C41.1775301,19.3552399 41.1317864,18.9740421 40.9160254,18.6860769 C40.7002645,18.3981118 40.3472656,18.2471281 39.99,18.29 C39.93,18.29 38.74,18.44 37.1,18.73 C37.51,16.85 40,16.24 40.92,16.24 L40.92,16.23 Z M32.14,7.9 C32.14,4.77 36.14,2.63 37.46,2.4 C38.5121286,3.73861158 39.0922245,5.3874902 39.11,7.09 C39.028999,9.17542503 37.8701656,11.0689437 36.05,12.09 C36.466864,10.7789503 36.8008566,9.4429798 37.05,8.09 C37.1089488,7.7327344 36.9728209,7.37115854 36.6928942,7.14147456 C36.4129675,6.91179057 36.0317697,6.84889292 35.6928942,6.97647455 C35.3540187,7.10405618 35.1089488,7.40273439 35.05,7.76 C34.7676933,9.32591171 34.3631218,10.8672957 33.84,12.37 C32.6905263,11.1722388 32.076952,9.55889917 32.14,7.9 L32.14,7.9 Z M17.48,17.68 C17.48,15.26 20.26,11.04 21.34,10.56 C22.14,10.94 25.26,13.38 25.26,16.86 C25.26,20.0133333 24.2866667,21.8133333 22.34,22.26 C22.45,19.39 22.34,17.08 22.34,16.97 C22.32067,16.4177153 21.8572847,15.98567 21.305,16.005 C20.7527153,16.02433 20.32067,16.4877153 20.34,17.04 C20.34,17.04 20.42,19.42 20.34,22.27 C17.88,21.73 17.48,19.23 17.48,17.68 Z M3.63,29.9 C3.63,27.63 6.4,20.9 7.58,20.31 C8.92,20.46 13.03,25.25 13.03,29.09 C12.9251194,30.9818326 11.8145941,32.6724262 10.12,33.52 C9.95928291,32.1840403 9.67813909,30.8653418 9.28,29.58 C9.10326888,29.0553295 8.53467051,28.7732689 8.01,28.95 C7.48532949,29.1267311 7.20326888,29.6953295 7.38,30.22 C7.73811745,31.3574443 7.98920804,32.5258525 8.13,33.71 C6.32,33.46 3.63,32.53 3.63,29.9 Z M31,41.41 C30.79,42.47 27.27,44.41 23,44.41 C20.8167194,44.4375403 18.9189395,42.9168028 18.47,40.78 C19.8398593,41.2130495 21.1766673,41.7444307 22.47,42.37 C22.6093223,42.4413839 22.7634577,42.4790614 22.92,42.48 C23.3827034,42.4818765 23.7862689,42.1660739 23.8956912,41.716491 C24.0051135,41.2669081 23.7918133,40.8009688 23.38,40.59 C21.9145634,39.8705272 20.3928441,39.2718728 18.83,38.8 C20.1214895,37.4127761 21.9346835,36.6294763 23.83,36.64 C26.6,36.61 30.42,40.35 31,41.41 Z M33.64,26.83 C35.5970801,26.7872448 37.5202005,27.3456826 39.15,28.43 C39,30.43 35.9,33 33.59,33 C30.59,33 28.86,32.49 28.29,31.47 C30.87,31.1 32.84,30.92 32.87,30.92 C33.4193903,30.8672823 33.8221958,30.3794401 33.77,29.83 C33.7172823,29.2806097 33.2294401,28.8778042 32.68,28.93 C32.68,28.93 30.94,29.09 28.61,29.41 C29.8440597,27.9011241 31.6456172,26.9677871 33.59,26.83 L33.64,26.83 Z"/>
      </g>
    </g>
  </g>
</svg>
