<svg xmlns="http://www.w3.org/2000/svg" width="64" height="64" viewBox="0 0 64 64" style="background:#fff">
  <g id="Tierfett" fill="none" fill-rule="evenodd" stroke="none" stroke-width="1">
    <rect width="64" height="64" fill="#FFF"/>
    <g transform="translate(2 7)">
      <rect id="Rectangle" width="60" height="60" x="0" y="0"/>
      <path id="Path" fill="#E05362" fill-rule="nonzero" d="M42.12,28.6 C40.744269,27.7271424 39.2012711,27.1514986 37.59,26.91 C36.8475958,26.8053406 36.0995903,26.745233 35.35,26.73 L34.44,26.73 C31.9802208,25.5225363 29.0589976,25.7445952 26.81,27.31 C25.5069603,28.2821745 24.9219467,29.9463011 25.33,31.52 C22.84,31.43 19.44,33.22 19.49,36.01 C19.55,39.11 23.11,40.14 25.57,40.28 C31.41,40.61 41.01,42.66 44.33,36.16 C45.7058847,33.451847 44.7379287,30.1406493 42.12,28.6 L42.12,28.6 Z" opacity=".5"/>
      <path id="Path" fill="#3D454C" fill-rule="nonzero" d="M50.12,21.41 C49.4848725,21.41 48.97,21.9248725 48.97,22.56 C48.97,23.1951275 49.4848725,23.71 50.12,23.71 C50.7551275,23.71 51.27,23.1951275 51.27,22.56 C51.27,21.9248725 50.7551275,21.41 50.12,21.41 L50.12,21.41 Z"/>
      <path id="Shape" fill="#3D454C" fill-rule="nonzero" d="M30,6.23 C27.75,6.23 8,6.37 8,11.23 C8.02159854,11.8182709 8.29027978,12.3701567 8.74,12.75 L8.74,47.38 C8.94,51.87 19.59,54.23 30.01,54.23 C40.43,54.23 51.08,51.87 51.28,47.31 L51.28,27.31 L51.28,27.31 C51.28,27.31 51.28,27.25 51.28,27.22 C51.3048528,26.5903954 50.8146046,26.0598528 50.185,26.035 C49.5553954,26.0101472 49.0248528,26.5003954 49,27.13 L49,27.13 L49,27.13 C49.0009698,27.1466526 49.0009698,27.1633474 49,27.18 C48.9990302,27.1966526 48.9990302,27.2133474 49,27.23 L49,47.23 C49,49.09 41.43,51.91 30,51.91 C18.57,51.91 11,49.09 11,47.23 L11,14.06 C15.36,15.69 23.84,16.27 30,16.27 C36.16,16.27 44.62,15.69 49,14.06 L49,18 C49,18 49,18 49,18 L49,18.11 L49,18.11 C49.0654306,18.6752718 49.5409889,19.1037026 50.11,19.11 C50.6832695,19.1049244 51.1652453,18.6783972 51.24,18.11 L51.24,18.11 L51.24,12.77 C51.6961832,12.3930479 51.9721482,11.8411178 52,11.25 C52,6.37 32.25,6.23 30,6.23 Z M32.12,14 L30,14 L27.88,14 L26.74,12.8 C27.6957819,12.6494456 28.6624935,12.5792002 29.63,12.59 C30.825254,12.5858295 32.018969,12.6761105 33.2,12.86 L32.12,14 Z M35.38,13.89 L36,13.2 C36.1985603,12.9847432 36.3091767,12.7028498 36.31,12.41 C36.31,10.99 34.07,10.27 29.63,10.27 C25.63,10.27 23.68,10.97 23.68,12.41 C23.6845123,12.7040055 23.7986303,12.9857342 24,13.2 L24.62,13.85 C15.43,13.4 10.87,11.9 10.31,11.25 C11,10.44 17.63,8.51 30,8.51 C42.37,8.51 49,10.44 49.69,11.25 C49.13,11.9 44.57,13.4 35.38,13.85 L35.38,13.89 Z"/>
      <path id="Shape" fill="#3D454C" fill-rule="nonzero" d="M30,18.7799666 C28.5901979,18.7749958 27.2367195,19.3329457 26.24,20.33 L16.24,30.33 C15.2403524,31.3279519 14.6786134,32.6824833 14.6786134,34.095 C14.6786134,35.5075167 15.2403524,36.8620481 16.24,37.86 L26.24,47.86 C28.3216986,49.9242222 31.6783014,49.9242222 33.76,47.86 L43.76,37.86 C44.7596476,36.8620481 45.3213866,35.5075167 45.3213866,34.095 C45.3213866,32.6824833 44.7596476,31.3279519 43.76,30.33 L33.76,20.33 C32.7632805,19.3329457 31.4098021,18.7749958 30,18.7799666 Z M37.59,27.47 C37.6730471,27.4797686 37.7569529,27.4797686 37.84,27.47 L42.25,31.88 C43.4882306,33.1244642 43.4882306,35.1355358 42.25,36.38 L38.17,40.45 L37.47,40.45 C35.7262383,40.4612163 33.9832989,40.3710642 32.25,40.18 C30.2623069,39.870985 28.3229014,39.3063054 26.48,38.5 C26.17,38.36 25.89,38.23 25.62,38.09 C25.864042,38.0395042 26.1113085,38.0060898 26.36,37.99 C26.4430052,38.0004577 26.5269948,38.0004577 26.61,37.99 C26.9556379,37.9798109 27.2759388,37.8062247 27.4731748,37.5222047 C27.6704109,37.2381848 27.721183,36.8774259 27.61,36.55 C27.49,36.21 27.16,35.81 26.27,35.81 C25.7177264,35.833388 25.1718909,35.937838 24.65,36.12 C23.9706258,36.368216 23.2758258,36.5719795 22.57,36.73 C22.6194783,36.1944738 22.6194783,35.6555262 22.57,35.12 C23.5741405,34.9804592 24.5399587,34.6403824 25.41,34.12 C26.7553565,33.4411217 27.9705953,32.5305388 29,31.43 C30.5109635,32.2099185 32.1641542,32.6759414 33.86,32.8 C34.3395525,32.810181 34.8160795,32.7216832 35.26,32.54 C36.1020648,32.161658 36.6752111,31.3592533 36.76,30.44 C36.8368126,29.8491918 36.4206823,29.3077749 35.83,29.23 L35.72,29.23 C35.1792149,29.2196179 34.7157253,29.6144424 34.64,30.15 C34.64,30.51 34.46,30.56 34.38,30.6 C34.1983614,30.6702649 34.0047095,30.7042389 33.81,30.7 C32.66,30.7 30.56,29.92 28.09,28.59 C28.4159617,28.5003061 28.7337594,28.3832227 29.04,28.24 C29.9128274,27.7813329 30.8751929,27.5185594 31.86,27.47 C32.4240814,27.4481795 32.9795579,27.6134162 33.44,27.94 C33.6239354,28.0877055 33.8541665,28.1656299 34.09,28.16 C34.4264374,28.1615957 34.7444009,28.0063112 34.95,27.74 C35.0157521,27.6486836 35.0663981,27.5473915 35.1,27.44 L35.83,27.44 C36.47,27.42 37.07,27.44 37.59,27.47 Z M33.11,25.47 C32.7013176,25.3675332 32.2813224,25.3171338 31.86,25.32 C30.5577083,25.3713833 29.2833425,25.7130364 28.13,26.32 C27.4685498,26.6100275 26.7521184,26.7533138 26.03,26.74 C25.5698073,26.739136 25.1108554,26.6922358 24.66,26.6 C24.5802901,26.5903652 24.4997099,26.5903652 24.42,26.6 C23.9205838,26.5646379 23.4634172,26.8803139 23.3195517,27.3598655 C23.1756863,27.8394171 23.3835908,28.3546145 23.82,28.6 C24.08,28.77 25.35,29.6 27,30.51 C26.2059356,31.2455853 25.3141977,31.8681192 24.35,32.36 C23.7788923,32.6986219 23.1579196,32.9449861 22.51,33.09 L22.44,33.09 C22.2167746,32.9644172 21.966062,32.8957289 21.71,32.89 C21.4992394,32.8883169 21.2919378,32.9435973 21.11,33.05 C20.6839621,33.3307043 20.4311701,33.8098772 20.44,34.32 C20.44,34.6 20.44,34.92 20.44,35.32 C20.5044373,35.8246179 20.5044373,36.3353821 20.44,36.84 C20.3126174,37.3704815 20.4341129,37.9300968 20.77,38.36 C21.1917402,38.8285302 21.8001137,39.0850732 22.43,39.06 C22.7791601,39.1450574 23.115446,39.276209 23.43,39.45 C24.1440091,39.8694254 24.8819355,40.2467361 25.64,40.58 C27.6578625,41.4650773 29.7823927,42.0836113 31.96,42.42 C33.330653,42.5872898 34.7093098,42.6807581 36.09,42.7 L32.29,46.49 C31.0455358,47.7282306 29.0344642,47.7282306 27.79,46.49 L17.79,36.49 C17.1938046,35.8930619 16.859257,35.0836727 16.8599402,34.24 C16.8547933,33.3954494 17.1900236,32.5844083 17.79,31.99 L27.79,21.99 C29.0344642,20.7517694 31.0455358,20.7517694 32.29,21.99 L35.72,25.42 C34.8502997,25.3568879 33.976645,25.3736246 33.11,25.47 Z"/>
    </g>
  </g>
</svg>
