<svg xmlns="http://www.w3.org/2000/svg" width="64" height="64" viewBox="0 0 64 64" style="background:#fff">
  <g id="Tilapia" fill="none" fill-rule="evenodd" stroke="none" stroke-width="1">
    <rect width="64" height="64" fill="#FFF"/>
    <g transform="translate(2 4)">
      <g id="Layer_2">
        <rect id="Rectangle" width="60" height="60" x="0" y="0"/>
        <rect id="Rectangle" width="60" height="60" x="0" y="0"/>
      </g>
      <g id="Layer_1" fill-rule="nonzero" transform="translate(4 3)">
        <path id="Path" fill="#B3B3B3" d="M46.51,0.73 C43.22,0.34 38.09,1.61 35.76,4.02 C34.6341611,5.39736438 34.3432632,7.2767176 35,8.93 C34.9815502,9.93492551 35.1722529,10.9327094 35.56,11.86 C36.95,15.07 40.75,18.66 44.39,19.09 C49.14,19.65 50.03,13.74 50.88,10.26 C51.79,6.61 51.05,1.26 46.51,0.73 Z" opacity=".5"/>
        <path id="Path" fill="#4885E0" d="M31.34,3.8 C20.12,0.54 7.34,15.8 7.47,26.1 C7.47,29.21 10.67,33.22 13.24,29.54 C14.5,27.72 14.92,25.54 15.93,23.54 C17.0989955,21.3458964 18.6000426,19.3456246 20.38,17.61 C23.8,14.2 28.26,12.43 31.96,9.4 C33.34,8.31 33.34,4.38 31.34,3.8 Z" opacity=".5"/>
        <path id="Path" fill="#E05362" d="M10.56,47.4 C10.2575383,46.8893237 9.85640343,46.443996 9.38,46.09 C9.08,45.9 8.77,45.71 8.45,45.53 C8.13,45.35 8.24,45.41 8.45,45.53 C7.88403909,45.1671944 7.34588409,44.7627425 6.84,44.32 C5.85552528,43.291495 4.70218962,42.4391765 3.43,41.8 C0.76,40.8 0.13,44.98 0.43,46.64 C0.920284594,48.9530922 2.12753647,51.0526607 3.88,52.64 C4.46904836,53.1925552 5.10103367,53.6974746 5.77,54.15 C6.20985272,54.4759276 6.67461385,54.7668212 7.16,55.02 C7.89330459,55.3227999 8.71669541,55.3227999 9.45,55.02 C10.68,54.7 11.29,52.84 11.45,51.78 C11.6786494,50.2607411 11.3634509,48.7095399 10.56,47.4 Z" opacity=".5"/>
        <path id="Path" fill="#B3B3B3" d="M31.86 11.73C28.18 12.28 25.2 15.66 23.05 18.48 20.61 21.68 18 26 17.74 30 17.61 31.68 17.74 33.89 19.22 35 19.7745466 35.4390942 20.4973768 35.6050473 21.1879156 35.4518097 21.8784545 35.2985722 22.463239 34.8424462 22.78 34.21 24.59 31.41 25.34 28.05 27.18 25.21 29.02 22.37 31.69 19.86 33.41 16.86 34.11 15.72 34.23 11.37 31.86 11.73zM47.22 19.14C45.96 20 45.22 21.49 44.34 22.69 43.3955139 23.9475427 42.3450044 25.1218384 41.2 26.2 38.67 28.56 35.71 29.78 32.88 31.66 31.562018 32.6082832 30.9143079 34.2353621 31.22 35.83 31.35 36.99 32.14 39.27 33.72 39.04 40.64 38 49.57 29.41 50 22.27 50.13 20.68 49.29 17.71 47.22 19.14z" opacity=".5"/>
        <path id="Shape" fill="#3D454C" d="M51.06,11.67 C52.13,7.72 52.9,4.86 51,3 C49.1,1.14 46.24,1.86 42.29,2.93 C40.61,3.39 38.71,3.93 36.55,4.32 L35.62,4.52 C33.8,4.37 18.49,3.39 12.94,13.87 C6.02,26.87 6.22,29.87 7.45,31.07 C7.85666969,31.4705372 8.40946487,31.6873196 8.98,31.67 C10.3,31.67 11.93,30.8 13.42,30.01 L14.16,29.62 C13.94,30.54 13.74,31.46 13.58,32.36 C13.0767479,35.4125089 11.3034686,38.1087656 8.7,39.78 C7.60141892,40.5150944 6.4593284,41.1829836 5.28,41.78 C3.16,42.89 1.28,43.85 1.19,45.63 C1.10407655,47.5376078 1.85234996,49.3882157 3.24,50.7 C4.48039674,52.0080819 6.19744756,52.7583898 8,52.78 L8.43,52.78 C10.22,52.65 11.18,50.78 12.29,48.68 C12.8831158,47.5049777 13.5511602,46.3693023 14.29,45.28 C15.1116302,44.0011754 16.1666709,42.8884637 17.4,42 C18.1058013,42.4654759 18.8875819,42.803909 19.71,43 C21.1893962,43.3819541 22.7121263,43.5701945 24.24,43.56 C30.2241423,43.4019532 35.9860849,41.2596925 40.62,37.47 C46.7,32.76 50.03,28.06 50.51,23.53 C50.7531741,21.6857247 50.4029301,19.8119194 49.51,18.18 L49.69,17.36 C50.09,15.25 50.6,13.35 51.06,11.67 Z M42.8,4.81 C46.54,3.81 48.53,3.32 49.58,4.37 C50.63,5.42 50.14,7.37 49.13,11.15 C48.66,12.86 48.13,14.8 47.71,17.03 L47.62,17.48 L47.62,17.48 C46.0236963,17.5776161 44.4231581,17.3775489 42.9,16.89 L42.79,16.89 C42.48,16.78 42.18,16.65 41.87,16.51 L41.73,16.44 C41.4282056,16.2850372 41.1344925,16.1148171 40.85,15.93 L40.74,15.85 C40.4344366,15.6439826 40.1437212,15.4167568 39.87,15.17 C39.6081594,14.9248285 39.3610606,14.664373 39.13,14.39 L38.93,14.11 C38.7720667,13.9115644 38.6251778,13.7045846 38.49,13.49 C38.41,13.37 38.35,13.24 38.27,13.12 C38.19,13 38.04,12.71 37.94,12.49 C37.84,12.27 37.81,12.19 37.75,12.04 C37.69,11.89 37.57,11.61 37.49,11.38 L37.34,10.86 C37.27,10.64 37.2,10.41 37.14,10.17 C37.08,9.93 37.06,9.78 37.03,9.59 C37,9.4 36.93,9.1 36.9,8.85 C36.87,8.6 36.84,8.43 36.82,8.21 C36.8,7.99 36.76,7.69 36.75,7.42 C36.74,7.15 36.75,6.97 36.75,6.74 C36.75,6.51 36.75,6.45 36.75,6.31 L36.98,6.31 C39.15,5.81 41.09,5.28 42.8,4.81 Z M12.47,28.19 C11.54,28.69 9.36,29.84 8.86,29.61 C8.73,29.45 7.86,27.69 14.69,14.75 C17.86,8.78 25,7 30,6.55 C22.14,10.69 17.24,18.93 14.8,27.13 C13.9887927,27.4018736 13.2079531,27.7571053 12.47,28.19 Z M10.47,47.75 C9.67,49.28 8.92,50.75 8.25,50.75 C6.89915557,50.7955749 5.59432263,50.2561468 4.67,49.27 C3.68235626,48.3459515 3.13961494,47.0419153 3.18,45.69 C3.18,45.02 4.68,44.26 6.18,43.46 C6.9,43.08 7.69,42.67 8.49,42.19 L8.49,42.19 C8.54,42.32 8.59,42.46 8.65,42.59 L8.65,42.66 C8.70210557,42.7773399 8.76224851,42.8909432 8.83,43 L8.92,43.14 C8.97081977,43.2303519 9.02761263,43.3172115 9.09,43.4 L9.21,43.56 L9.42,43.8 L9.57,43.95 L9.82,44.18 L9.99,44.32 L10.3,44.54 C10.3595066,44.5857602 10.4231097,44.6259306 10.49,44.66 C10.6519086,44.7850246 10.8223201,44.8986322 11,45 L11.14,45.07 C11.3552278,45.1712506 11.5755185,45.2613695 11.8,45.34 L11.8,45.34 C11.29,46.16 10.86,47 10.46,47.75 L10.47,47.75 Z M13,43.57 L12.9,43.57 L12.68,43.5 L12.26,43.35 L12,43.24 C11.87,43.18 11.75,43.11 11.63,43.04 L11.5,43 C11.3466111,42.9037627 11.2026403,42.7932735 11.07,42.67 L11.07,42.67 C10.9561748,42.5594498 10.8524309,42.438973 10.76,42.31 L10.68,42.17 C10.618973,42.0742974 10.5654785,41.9739952 10.52,41.87 C10.52,41.81 10.47,41.75 10.45,41.7 C10.4107218,41.5893281 10.3806202,41.4756108 10.36,41.36 C10.36,41.3 10.36,41.24 10.36,41.18 L10.36,41 C13.1509436,39.0185144 15.0368128,36.0061623 15.6,32.63 C17.44,22.24 23.42,10.19 34.74,6.76 C34.7449455,6.84659611 34.7449455,6.93340389 34.74,7.02 C34.74,7.25 34.74,7.48 34.74,7.71 C34.74,7.94 34.74,8.35 34.83,8.71 C34.92,9.07 34.89,9.15 34.93,9.36 C34.97,9.57 35.03,9.96 35.09,10.25 C35.15,10.54 35.18,10.66 35.23,10.86 C35.28,11.06 35.38,11.41 35.47,11.68 C35.56,11.95 35.59,12.06 35.66,12.24 C35.73,12.42 35.86,12.76 35.97,13.01 C36.08,13.26 36.11,13.35 36.19,13.51 C36.27,13.67 36.45,14 36.59,14.23 L36.85,14.66 C37.01,14.91 37.19,15.14 37.37,15.38 C37.55,15.62 37.52,15.6 37.61,15.7 C37.8826972,16.0257613 38.1766741,16.3331008 38.49,16.62 C38.802078,16.9182727 39.136374,17.1923955 39.49,17.44 C39.61,17.53 39.74,17.59 39.86,17.67 C39.98,17.75 40.33,17.97 40.56,18.09 C40.79,18.21 40.9,18.25 41.07,18.33 L41.65,18.6 L42.28,18.82 C42.44,18.87 42.59,18.93 42.75,18.97 C42.91,19.01 43.24,19.1 43.48,19.15 L43.83,19.24 L44.62,19.37 L44.88,19.37 C45.1385046,19.4077468 45.3989051,19.4311161 45.66,19.44 L45.9,19.44 L46.55,19.44 L46.9,19.44 C46.9532175,19.444972 47.0067825,19.444972 47.06,19.44 C43.53,30.62 31.56,36.52 21.26,38.34 C17.9263197,38.9300177 14.9589819,40.8088526 13,43.57 L13,43.57 Z M39.42,35.94 C30.64,42.75 22.52,41.94 19.61,40.94 C20.2786664,40.6925049 20.9680603,40.5050968 21.67,40.38 C32.15,38.53 44.26,32.61 48.55,21.46 C48.92,24.24 47.94,29.32 39.39,35.94 L39.42,35.94 Z"/>
        <path id="Path" fill="#3D454C" d="M42 9.12C42.5522847 9.12 43 8.67228475 43 8.12 43 7.56771525 42.5522847 7.12 42 7.12 41.4477153 7.12 41 7.56771525 41 8.12 41 8.67228475 41.4477153 9.12 42 9.12zM23 26.51C24.1904141 21.339604 27.2497327 16.7915833 31.59 13.74 32.59 13.01 31.59 11.27 30.59 12.02 25.7666301 15.3258477 22.3476738 20.3098944 21 26 20.75 27.23 22.68 27.77 23 26.51zM21.81 29.58C21.2577153 29.58 20.81 30.0277153 20.81 30.58 20.81 31.1322847 21.2577153 31.58 21.81 31.58 22.3622847 31.58 22.81 31.1322847 22.81 30.58 22.81 30.0277153 22.3622847 29.58 21.81 29.58z"/>
      </g>
    </g>
  </g>
</svg>
