<svg xmlns="http://www.w3.org/2000/svg" width="64" height="64" viewBox="0 0 64 64" style="background:#fff">
  <g id="Tilsiter" fill="none" fill-rule="evenodd" stroke="none" stroke-width="1">
    <rect width="64" height="64" fill="#FFF"/>
    <g transform="translate(2 8)">
      <g id="Layer_2">
        <rect id="Rectangle" width="60" height="60" x="0" y="0"/>
        <rect id="Rectangle" width="60" height="60" x="0" y="0"/>
      </g>
      <g id="Layer_1" fill-rule="nonzero" transform="translate(5 12)">
        <path id="Path" fill="#EBE53F" d="M48.45,16.9 C48.29,14.22 48.45,10.59 46.59,8.46 C46.476929,7.90979484 46.2448344,7.3909952 45.91,6.94 C40.81,0.46 29.77,-0.29 22.09,0.3 C14.14,0.91 5.82,3.3 2.61,11.3 C-3,25.5 8.7,47.49 25.75,39.94 C28.35,38.79 28.75,34.94 28.31,32.51 C27.6824787,29.4164504 27.5676148,26.2408016 27.97,23.11 C28.27,20.67 27.77,16.61 24.97,15.68 C22.17,14.75 20.49,17.78 20.15,20.06 C19.6947063,23.2019435 19.5873907,26.3845235 19.83,29.55 C10.42,30.68 2.64,17.47 13.33,12.86 C17.83,10.91 23.33,10.6 28.19,10.86 C32.53,11.08 37.46,13.37 41.88,13.53 C41.88,14.76 41.96,15.98 41.95,17.08 C41.95,21.24 41.66,25.36 41.41,29.51 C41.1,34.51 47.33,36.51 48.02,30.71 C48.5643436,26.1279065 48.7082215,21.5070828 48.45,16.9 L48.45,16.9 Z" opacity=".5"/>
        <path id="Shape" fill="#3D454C" d="M46.9,8.5 L46.81,8.3 C46.8134211,8.27679206 46.8134211,8.25320794 46.81,8.23 L46.81,8.23 C44.73,4.23 34.56,2.12 24.91,2.12 C14.91,2.12 4.32,4.41 2.82,8.69 L2.82,8.69 C2.77079595,8.82720509 2.73070869,8.96751052 2.7,9.11 C2.01871167,11.4478017 1.54027297,13.8399952 1.27,16.26 C1.24200922,16.5239182 1.32007912,16.7881387 1.48701338,16.9944619 C1.65394763,17.2007851 1.89605252,17.3322864 2.16,17.36 L2.26,17.36 C2.77203175,17.3631062 3.20368489,16.9789349 3.26,16.47 C3.40452173,15.1253049 3.62487259,13.7898451 3.92,12.47 C7.21,15.68 16.28,17.39 24.92,17.39 C25.64,17.39 26.33,17.39 27.03,17.39 L27.03,37.39 L26.83,37.39 C26.17,37.39 25.49,37.48 24.92,37.48 C24.18,37.48 23.44,37.48 22.73,37.48 L22.73,37.48 C22.1777153,37.48 21.73,37.9277153 21.73,38.48 C21.73,39.0322847 22.1777153,39.48 22.73,39.48 C23.47,39.48 24.22,39.48 24.99,39.48 C25.76,39.48 26.35,39.48 27.04,39.38 L27.62,39.38 C28.4716774,39.2705725 29.082608,38.5046957 29,37.65 L29,33.23 L29.18,33.28 C29.25,33.28 29.32,33.28 34.78,34.36 L37.49,34.89 L42.21,35.82 C42.6078394,35.8934432 43.0177977,35.7872933 43.33,35.53 L43.33,35.53 C45.55,34.23 46.69,33.21 47.11,32.12 C50.0236469,24.5023546 49.948629,16.0646362 46.9,8.5 L46.9,8.5 Z M4.58,9.72 C4.58497558,9.60040124 4.60859331,9.48231254 4.65,9.37 L4.65,9.25 C5.59,6.96 13.09,4.1 24.83,4.1 C36.57,4.1 44,6.93 45,9.21 C45.0016677,9.24331247 45.0016677,9.27668753 45,9.31 C45.0496606,9.44115922 45.076711,9.57979265 45.08,9.72 C45.08,10.51 44.17,11.42 42.59,12.24 L25.31,8.36 C24.9410543,8.27137055 24.5537299,8.3991876 24.31,8.69 C24.0793449,8.96968838 24.018126,9.35230697 24.15,9.69 L26.44,15.29 C25.91,15.29 25.39,15.29 24.84,15.29 C12.29,15.34 4.58,12.07 4.58,9.72 Z M35.12,32.39 L29.68,31.39 L28.97,31.19 L28.97,16.34 C28.96842,16.2093227 28.941241,16.0802223 28.89,15.96 L26.75,10.73 L41.75,14.09 L41.75,33.71 L37.81,32.93 L35.12,32.39 Z M45.22,31.39 C44.879783,31.9911629 44.3863799,32.4914667 43.79,32.84 L43.79,13.9 C44.6310087,13.4681532 45.3973895,12.90434 46.06,12.23 C47.8234154,18.5436293 47.5291835,25.2549188 45.22,31.39 L45.22,31.39 Z"/>
        <path id="Path" fill="#3D454C" d="M36.61 17.58C36.0577153 17.58 35.61 18.0277153 35.61 18.58 35.61 19.1322847 36.0577153 19.58 36.61 19.58 37.1622847 19.58 37.61 19.1322847 37.61 18.58 37.61 18.0277153 37.1622847 17.58 36.61 17.58zM35.41 24C34.8577153 24 34.41 24.4477153 34.41 25 34.41 25.5522847 34.8577153 26 35.41 26 35.9622847 26 36.41 25.5522847 36.41 25 36.41 24.4477153 35.9622847 24 35.41 24zM1.81 21.18C2.36228475 21.18 2.81 20.7322847 2.81 20.18 2.81 19.6277153 2.36228475 19.18 1.81 19.18 1.25771525 19.18.81 19.6277153.81 20.18.81 20.7322847 1.25771525 21.18 1.81 21.18zM18 37.38C10 37.38 3.21 33.18 2.85 24.58 2.8 23.3.8 23.29.85 24.58 1.26 34.3 8.85 39.44 18 39.38 18.5522847 39.38 18.9999999 38.9322847 18.9999999 38.38 18.9999999 37.8277153 18.5522847 37.38 18 37.38L18 37.38z"/>
      </g>
    </g>
  </g>
</svg>
