<svg xmlns="http://www.w3.org/2000/svg" width="64" height="64" viewBox="0 0 64 64" style="background:#fff">
  <g id="Tofu" fill="none" fill-rule="evenodd" stroke="none" stroke-width="1">
    <rect width="64" height="64" fill="#FFF"/>
    <g transform="translate(2 6)">
      <g id="Layer_2">
        <rect id="Rectangle" width="60" height="60" x="0" y="0"/>
        <rect id="Rectangle" width="60" height="60" x="0" y="0"/>
      </g>
      <g id="Layer_1" fill-rule="nonzero" transform="translate(4 8)">
        <path id="Path" fill="#CCC" d="M46.61 7.78C42.24 7.66 37.68 9.12 33.45 10.14 29.02 11.21 24.61 12.14 21.12 15.2 18.28 17.69 17.78 27 22.53 28 26.93 29 30.99 27.52 35.32 26.6 39.65 25.68 44.26 25.31 48.43 23.79 54.28 21.67 53.3 8 46.61 7.78zM43.12 33C38.8 33.84 34.12 34.34 30.04 36 26.44 37.45 26.9 46 31.19 46.12 35.25 46.22 39.42 45.12 43.4 44.38 46.05 43.91 47.05 41.05 46.99 38.61 47 36.86 45.75 32.5 43.12 33z" opacity=".5"/>
        <path id="Shape" fill="#3D454C" d="M50,8.09 C49.9943247,8.06026841 49.9943247,8.02973159 50,8 C49.9894909,7.9146708 49.969363,7.83080426 49.94,7.75 L49.88,7.64 C49.8484489,7.57231337 49.8043345,7.51123194 49.75,7.46 C49.728573,7.41984763 49.6976813,7.38552355 49.66,7.36 C49.6020552,7.31204455 49.5382014,7.27171581 49.47,7.24 L49.36,7.18 L49.36,7.18 C49.36,7.18 44.15,5.5 41.47,4.28 C39.2,3.28 33.3,1.33 30.87,0.56 C30.1846863,0.33484397 29.4453137,0.33484397 28.76,0.56 C26.2271915,1.40567349 23.632795,2.05427263 21,2.5 C17.5,3 1.79,6.11 1.13,6.24 C1.0848751,6.25586451 1.04134866,6.27595363 1,6.3 L1,6.3 C0.656916636,6.43345837 0.414900667,6.74462176 0.37,7.11 C0.37,7.11 0.37,7.11 0.37,7.17 L0.37,7.17 C0.37,7.66 0.13,19.29 0.37,23.97 C0.401779827,24.4987239 0.840322748,24.9109542 1.37,24.91 L1.37,24.91 C1.92228475,24.91 2.37,24.4622847 2.37,23.91 C2.18,20.28 2.29,12.1 2.37,8.74 C3.75,9.32 5.89,10.18 7.59,10.74 C9.8,11.44 17.59,14.74 19.88,15.68 C19.88,17.29 19.81,21.54 19.81,25.43 C18.52,24.95 17.47,24.55 16.99,24.34 C16.3212291,23.9987841 15.5610848,23.8796832 14.82,24 C12.67,24.46 2.37,26.88 1.94,27 L1.94,27 L1.79,27.07 C1.73384358,27.0906012 1.68017482,27.1174356 1.63,27.15 C1.58229083,27.1811581 1.53862502,27.2181061 1.5,27.26 C1.45404737,27.3049326 1.41374954,27.3553049 1.38,27.41 C1.34762547,27.4495506 1.32071758,27.4932759 1.3,27.54 C1.26181576,27.6148997 1.23806912,27.6963167 1.23,27.78 C1.23,27.78 1.23,27.78 1.23,27.86 C0.971489069,30.6506928 0.971489069,33.4593072 1.23,36.25 C1.26948208,36.6338968 1.52634364,36.9608115 1.89,37.09 C2,37.13 15.7,42 19.23,43.73 C22.7999645,45.2234067 26.476953,46.4468411 30.23,47.39 L30.4,47.39 L30.49,47.39 C30.6025935,47.3887218 30.7141625,47.3684365 30.82,47.33 C33.1707742,46.4809623 35.5679877,45.7664725 38,45.19 C40.66,44.66 43.91,43.74 44,43.7 C44.4094477,43.5811649 44.6985253,43.2158028 44.72,42.79 C44.8695142,40.0020031 44.8695142,37.2079969 44.72,34.42 C44.72,34.42 44.72,34.37 44.72,34.34 C44.7026566,34.2616366 44.6792529,34.1847387 44.65,34.11 C44.653944,34.0700972 44.653944,34.0299028 44.65,33.99 C44.6022388,33.9190604 44.5487252,33.8521684 44.49,33.79 L44.43,33.79 C44.3328505,33.6990115 44.2167284,33.6307044 44.09,33.59 C43.98,33.59 33.17,30.11 27.71,28.26 C26.22,27.75 23.89,26.93 21.71,26.16 C21.71,22.21 21.76,17.69 21.78,15.88 C23.17,15.63 26.08,15.11 28.32,14.65 C28.5799387,14.5970054 28.8081678,14.4428955 28.9544551,14.221589 C29.1007425,14.0002825 29.1530985,13.7299175 29.1,13.47 C29.0471322,13.2079399 28.8915339,12.9779598 28.6679444,12.8314053 C28.4443549,12.6848509 28.1713928,12.6339259 27.91,12.69 C25.36,13.22 21.91,13.82 20.91,14 C19.23,13.28 10.55,9.63 8.1,8.85 C7.1,8.52 5.84,8.05 4.73,7.61 C9.67,6.61 18.78,4.87 21.29,4.53 C24.0041909,4.07034027 26.6788152,3.40168418 29.29,2.53 C29.5764513,2.44013963 29.8835487,2.44013963 30.17,2.53 C32.04,3.12 38.32,5.14 40.55,6.16 C41.93,6.79 43.88,7.51 45.55,8.08 C43.13,8.73 39.77,9.62 37.06,10.32 C36.8024933,10.3859011 36.5818187,10.5516107 36.4467221,10.7805245 C36.3116254,11.0094383 36.2732238,11.2827189 36.34,11.54 C36.4059011,11.7975067 36.5716107,12.0181813 36.8005245,12.1532779 C37.0294383,12.2883746 37.3027189,12.3267762 37.56,12.26 C41.14,11.33 45.85,10.08 48.04,9.49 C48.12,12.55 48.31,20.42 48.04,24.09 C43.7371013,24.9212188 39.4811608,25.9793625 35.29,27.26 C34.847791,27.4342774 34.5893602,27.8957459 34.6718241,28.3638496 C34.754288,28.8319533 35.1548571,29.1773287 35.63,29.19 C35.749629,29.1954837 35.869028,29.1750153 35.98,29.13 C39.48,27.85 49.08,25.92 49.17,25.9 C49.6194409,25.8242079 49.9607672,25.4540951 50,25 C50.44,20.84 50,8.61 50,8.09 Z M3.1,35.41 C2.96635839,33.3888734 2.96635839,31.3611266 3.1,29.34 C6.57,30.58 16.37,34.13 19.27,35.54 C22.5868828,36.9522438 26.0068402,38.108945 29.5,39 C29.5,40.13 29.59,42.47 29.5,45.11 C26.2881991,44.2785616 23.1428229,43.2089332 20.09,41.91 C16.87,40.35 5.84,36.39 3.1,35.41 Z M42.81,42 C41.7,42.3 39.48,42.89 37.61,43.25 C35.5487572,43.718544 33.5155378,44.3028025 31.52,45 C31.59,42.42 31.52,40.15 31.52,39 L42.83,35.8 C42.88,37.1 42.92,39.33 42.81,42 Z M40.3,34.43 L30.47,37.2 C26.9343163,36.3138975 23.471026,35.1605817 20.11,33.75 C17.53,32.49 10.03,29.75 5.69,28.16 C9,27.38 13.85,26.27 15.2,26 C15.5041644,25.9429482 15.81853,25.9813706 16.1,26.11 C17.74,26.84 24.68,29.28 27.04,30.11 C30.67,31.33 36.64,33.26 40.3,34.43 Z"/>
        <path id="Path" fill="#3D454C" d="M33.07,13.55 C33.6222847,13.55 34.07,13.1022847 34.07,12.55 C34.07,11.9977153 33.6222847,11.55 33.07,11.55 C32.5177153,11.55 32.07,11.9977153 32.07,12.55 C32.07,13.1022847 32.5177153,13.55 33.07,13.55 Z"/>
      </g>
    </g>
  </g>
</svg>
