<svg xmlns="http://www.w3.org/2000/svg" width="64" height="64" viewBox="0 0 64 64" style="background:#fff">
  <g id="Tomatensugo" fill="none" fill-rule="evenodd" stroke="none" stroke-width="1">
    <rect width="64" height="64" fill="#FFF"/>
    <g transform="translate(2 5)">
      <g id="Layer_2">
        <rect id="Rectangle" width="60" height="60" x="0" y="0"/>
        <rect id="Rectangle" width="60" height="60" x="0" y="0"/>
      </g>
      <g id="Layer_1" fill-rule="nonzero" transform="translate(7 5)">
        <path id="Path" fill="#E05362" d="M32.11,30.84 C32.1941062,29.8251997 32.0681527,28.803955 31.74,27.84 C33.93,26.34 33.01,21.13 30.43,20.72 C21.93,19.38 13.33,19.78 4.8,18.2 C2.47,17.77 1.57,22.06 1.61,23.56 C1.74,28.21 -0.59,32.3 0.3,37.08 C0.784169902,40.2532742 2.60430716,43.0672064 5.3,44.81 C12.13,49.21 21.7,49.45 29.3,47.73 C32.37,47.04 33.3,43.19 32.65,40.29 C31.8829937,37.2011269 31.6998516,33.9961391 32.11,30.84 L32.11,30.84 Z" opacity=".5"/>
        <path id="Shape" fill="#3D454C" d="M40.81,34.13 C40.1695733,33.5184101 39.5870919,32.8488913 39.07,32.13 L39.07,20.62 C39.1919207,18.2514317 37.9541017,16.0202533 35.88,14.87 L35.56,14.65 C35.3814132,14.5459066 35.2545052,14.3718613 35.21,14.17 C36.54,13.46 37.21,12.62 37.21,11.64 C37.2509543,11.0103005 37.0302514,10.3916086 36.6,9.93 C36.6437961,8.54893026 36.4579344,7.1701747 36.05,5.85 C35.62,4.55 33.53,3.6 29.73,3 C29.48,2.61 29.23,2.23 28.96,1.86 C28.2586432,0.901007331 26.9593342,0.602805267 25.91,1.16 L26.31,2.08 L25.86,1.18 L25.86,1.18 C25.3285756,1.45072118 24.9181615,1.91109876 24.71,2.47 C23.5,2.4 22.26,2.35 21,2.35 C19.54,2.35 7.35,2.46 6,5.8 L6,5.8 C5.57487807,7.14073964 5.3821011,8.54429123 5.43,9.95 C4.99974859,10.4116086 4.77904565,11.0303005 4.82,11.66 C4.82,12.66 5.6,13.53 6.82,14.19 C6.78139146,14.3916303 6.65739846,14.5666792 6.48,14.67 L6.16,14.89 C5.01045672,15.5717228 4.09106412,16.5816617 3.52,17.79 C3.18690123,17.9578096 2.97487546,18.2970508 2.97,18.67 C2.97171392,18.8781089 3.00891408,19.0844008 3.08,19.28 C3.01648559,19.7237023 2.98972796,20.1718926 3,20.62 L3,39.76 C2.99012027,39.8797966 2.99012027,40.0002034 3,40.12 C3.28,42.82 5.47,50.12 21,50.12 C27,50.1 31.5,49 34.61,47 C35.2815647,47.8532459 36.053836,48.6221595 36.91,49.29 C38.1429922,50.2462055 39.6413399,50.7980446 41.2,50.87 C42.5485133,50.8927304 43.8239682,50.2587323 44.62,49.17 C47,46.05 46.28,39.43 40.81,34.13 Z M37.07,20.62 L37.07,26.42 L37.07,26.29 C36.68,23.72 36.18,20.44 35.36,16.94 C36.5477402,17.7720491 37.1999575,19.1756512 37.07,20.62 Z M34.53,8.48 C34.53,9 34.62,9.61 34.62,10.36 C34.6174704,10.6507122 34.74158,10.9281337 34.96,11.12 C35.22,11.34 35.22,11.34 35.22,11.64 C35.22,11.73 34.97,12.06 34.11,12.49 C33.76,11.36 33.35,10.24 32.91,9.13 C33.4681022,8.96150365 34.0102131,8.74399002 34.53,8.48 L34.53,8.48 Z M34.08,6.4 C33.479849,6.82582253 32.7994082,7.12521649 32.08,7.28 C31.76,6.6 31.43,5.93 31.08,5.28 C32.1475884,5.43839038 33.1698058,5.82001821 34.08,6.4 L34.08,6.4 Z M21,4.32 C22.32,4.32 23.61,4.32 24.87,4.45 C24.92,4.53 24.95,4.61 25.01,4.69 C25.8262357,5.79197478 26.5614967,6.95168188 27.21,8.16 C25.1474417,8.38160891 23.0744286,8.49176903 21,8.49002097 C13.42,8.49002097 8.71,7.21 7.9,6.41 C8.71,5.6 13.42,4.32 21,4.32 Z M7.29,16.52 L7.63,16.28 C8.11977724,15.9561995 8.49163209,15.4826108 8.69,14.93 C12.7041384,16.0011053 16.8457069,16.5192219 21,16.47 C21.5522847,16.47 22,16.0222847 22,15.47 C22,14.9177153 21.5522847,14.47 21,14.47 C14.41,14.47 10.21,13.47 8.2,12.65 C8.12724035,12.5992437 8.04594686,12.5619842 7.96,12.54 C7.2,12.19 6.8,11.87 6.78,11.64 C6.76,11.41 6.78,11.34 7.04,11.12 C7.25842,10.9281337 7.38252962,10.6507122 7.38,10.36 C7.38,9.6 7.38,8.98 7.47,8.46 C11.13,10.46 19.78,10.46 21,10.46 C23.3896354,10.4647778 25.7773583,10.32452 28.15,10.04 C29.6398401,13.3945769 30.5623837,16.9732351 30.88,20.63 C27.615794,21.1126128 24.3196484,21.3466191 21.02,21.33 C11.94,21.33 6.42,19.86 5.21,18.89 C5.59712987,17.8763941 6.33521113,17.0354073 7.29,16.52 Z M5,39.78 C5,39.64 5,39.52 5,39.43 L5,21 C8.55,22.8 16.08,23.35 21,23.35 C24.3458498,23.368864 27.6884493,23.1382246 31,22.66 C31.0636259,24.6096639 30.9867604,26.5613787 30.77,28.5 C30.1475362,32.8907734 30.4887767,37.3644354 31.77,41.61 C28.2119466,42.2101766 24.6082094,42.4979402 21,42.47 C11.12,42.47 5.43,40.73 5,39.78 Z M21,48.1 C11.06,48.1 7.25,45.05 5.8,42.52 C9.65,44 16.42,44.47 21,44.47 C24.8442551,44.5024593 28.6834685,44.1844773 32.47,43.52 C32.7648355,44.1470378 33.0988285,44.7549051 33.47,45.34 C30.69,47.16 26.53,48.1 21,48.1 Z M43,47.92 C41.3,50.09 38.2,47.78 38.08,47.69 C33.61,44.2 31.7,37.47 32.7,28.74 C32.9818516,26.3575073 33.048788,23.9544882 32.9,21.56 C32.9104577,21.4769948 32.9104577,21.3930052 32.9,21.31 C32.8944794,21.2869932 32.8944794,21.2630068 32.9,21.24 C32.5436553,14.8436154 30.3607291,8.68352949 26.61,3.49 C26.5465539,3.3998381 26.5266195,3.2860797 26.5556276,3.17971662 C26.5846357,3.07335354 26.6595642,2.98546685 26.76,2.94 L26.83,2.94 C26.8923666,2.90933906 26.9605419,2.89229524 27.03,2.89 C27.152372,2.89308951 27.2665924,2.95204201 27.34,3.05 C32.61,10.26 34.09,20.11 35.07,26.63 C35.17,27.28 35.26,27.88 35.35,28.44 C35.9220007,31.1973708 37.3456736,33.7054138 39.42,35.61 C44.29,40.28 44.65,45.87 43.05,47.92 L43,47.92 Z"/>
        <path id="Shape" fill="#3D454C" d="M15.35,27.92 L16.61,28.67 L16.76,28.77 L16.44,29.77 C16.2696684,30.2722097 16.4320199,30.8273169 16.8461215,31.1585981 C17.2602231,31.4898794 17.8374292,31.5264183 18.29,31.25 L19.77,30.39 L22.16,31.98 C22.6549416,32.3136893 23.3128785,32.2705911 23.7600608,31.8751878 C24.207243,31.4797845 24.3305765,30.8320752 24.06,30.3 L23.44,29 C24.1027329,28.7357346 24.8068073,28.5901808 25.52,28.57 C25.98968,28.5678464 26.3945654,28.239113 26.4931423,27.7798892 C26.5917191,27.3206653 26.3574182,26.8547244 25.93,26.66 C24.7370696,26.1253173 23.4361345,25.8754008 22.13,25.93 L22.13,25.25 C22.1465276,24.8848167 21.9624738,24.5397159 21.65,24.35 C21.3405989,24.1713672 20.9594011,24.1713672 20.65,24.35 L18.27,25.74 C17.3425732,25.6972357 16.4149041,25.8191193 15.53,26.1 C15.1584605,26.224358 14.8937704,26.554234 14.8528671,26.9438921 C14.8119637,27.3335502 15.0023832,27.7112001 15.34,27.91 L15.35,27.92 Z M19,27.66 L20.09,27 L20.09,27 C20.0772467,27.311342 20.2103547,27.6108351 20.45,27.81 C20.6925013,28.0095902 21.0146837,28.0836551 21.32,28.01 L21.5,28.01 C21.3176976,28.3096718 21.2402981,28.6614873 21.28,29.01 L20.88,28.74 C20.5435725,28.5209917 20.1514214,28.4029993 19.75,28.4 C19.4561492,28.400121 19.165935,28.4649924 18.9,28.59 C18.9124056,28.3208027 18.8388599,28.0546372 18.69,27.83 C18.80261,27.792195 18.9075837,27.7346288 19,27.66 Z"/>
        <path id="Path" fill="#3D454C" d="M29.23 33.68C29.2923704 32.2394896 28.9005904 30.815789 28.11 29.61 27.7979346 29.1544026 27.1756442 29.038003 26.72 29.35 26.2644026 29.6620654 26.148003 30.2843558 26.46 30.74 27.0205004 31.6141827 27.2900304 32.6432973 27.23 33.68 27.23 36.97 24.23 39.68 20.52 39.68 16.81 39.68 13.82 37.01 13.82 33.68 13.8250426 32.4044546 14.2740852 31.1704715 15.09 30.19 15.3368125 29.9154958 15.4123236 29.5273451 15.2864212 29.1803328 15.1605188 28.8333204 14.8536826 28.5838923 14.4882711 28.531514 14.1228597 28.4791358 13.7583118 28.6323274 13.54 28.93 12.4287265 30.263413 11.82 31.9442238 11.82 33.68 11.82 38.07 15.72 41.68 20.52 41.68 25.32 41.68 29.23 38.07 29.23 33.68zM26 16.33C26.5522847 16.33 27 15.8822847 27 15.33 27 14.7777153 26.5522847 14.33 26 14.33 25.4477153 14.33 25 14.7777153 25 15.33 25 15.8822847 25.4477153 16.33 26 16.33z"/>
      </g>
    </g>
  </g>
</svg>
