<svg xmlns="http://www.w3.org/2000/svg" width="64" height="64" viewBox="0 0 64 64" style="background:#fff">
  <g id="Tomaten" fill="none" fill-rule="evenodd" stroke="none" stroke-width="1">
    <rect width="64" height="64" fill="#FFF"/>
    <g transform="translate(2 7)">
      <g id="Layer_2">
        <rect id="Rectangle" width="60" height="60" x="0" y="0"/>
        <rect id="Rectangle" width="60" height="60" x="0" y="0"/>
      </g>
      <g id="Layer_1" fill-rule="nonzero" transform="translate(6 6)">
        <path id="Path" fill="#E05362" d="M47.57,22.93 C47.09,19.84 43.4,15.26 40.15,18.58 C37.62,21.17 36.81,24.69 34.29,27.27 C31.865919,29.7173489 28.6593594,31.2356867 25.23,31.56 C20.79,32 8.45,28.69 11.79,22.48 C13.23,19.79 12.9,12.48 8.24,13.83 C0.78,16 0.4,27 2.5,33 C5.01173186,40.0710431 10.7061047,45.5468291 17.87,47.78 C33.17,52.25 50.13,39.31 47.57,22.93 Z" opacity=".5"/>
        <path id="Path" fill="#31E085" d="M38.36,7.48 C38.06,5.11 36.58,0.86 33.42,1.18 C27.42,1.79 20.78,5.18 17.81,10.65 C16,13.94 16.5,22.4 22,21 C24.15,20.44 26.18,19.05 28.22,18.16 C30.42,17.16 32.75,16.47 35.03,15.73 C38,14.73 38.67,10 38.36,7.48 Z" opacity=".5"/>
        <path id="Path" fill="#3D454C" d="M37.62,8.66 L38.84,7.92 C39.1871516,7.71408408 39.3764764,7.31965739 39.32,6.92 C39.2771855,6.53108041 39.0114805,6.20285659 38.64,6.08 C38.44,6.02 33.64,4.44 30.29,5.28 C29.7545496,5.41290882 29.4278945,5.95435087 29.56,6.49 C29.6929088,7.02545036 30.2343509,7.35210549 30.77,7.22 C32.4316028,6.93992537 34.1328378,7.00116983 35.77,7.4 L33.87,8.54 L32,9.8 C31.3493113,10.237936 31.0644328,11.0518744 31.3,11.8 L32.6,15.69 L28.81,13.42 C27.4469009,12.6015438 25.7345083,12.6404619 24.41,13.52 L17.49,18.13 L19.9,13.4 C20.5090339,12.2276793 20.1177349,10.7842207 19,10.08 C17.4449805,9.18479731 15.7571031,8.54340389 14,8.18 C16.7876162,7.53765387 19.6776637,7.47638078 22.49,8 C22.853222,8.09575236 23.2394673,7.97987875 23.49,7.7 C23.7309348,7.42624681 23.8037437,7.04304209 23.68,6.7 L22.14,2.59999993 L25.63,2.59999993 L25.63,9 C25.63,9.55228475 26.0777153,10 26.63,10 C27.1822847,10 27.63,9.55228475 27.63,9 L27.63,2.35 C27.6300157,1.3873935 26.8525908,0.605500608 25.89,0.599999932 L21.77,0.599999932 C21.1885004,0.599999932 20.6444541,0.886912561 20.3163775,1.36702464 C19.9883009,1.84713673 19.9185456,2.45830924 20.13,3 L21.19,5.84 C17.05243,5.40363132 12.8728359,6.06229673 9.07,7.75 C8.64258175,7.94472442 8.40828088,8.41066531 8.50685774,8.86988918 C8.60543459,9.32911305 9.01031998,9.65784641 9.48,9.66 C12.4297501,9.7202196 15.3254484,10.4629696 17.94,11.83 C18.1642427,11.9916979 18.2401217,12.2909985 18.12,12.54 L15.62,17.54 C15.3233092,18.1399064 15.3567823,18.8503736 15.7085619,19.4197278 C16.0603415,19.9890821 16.680744,20.3369107 17.35,20.34 C17.7332754,20.3402421 18.1071644,20.2214362 18.42,20 L25.54,15.26 C26.2212593,14.8022772 27.105512,14.7789049 27.81,15.2 L32.11,17.78 C32.7486959,18.1602434 33.5564248,18.103572 34.135768,17.6378693 C34.7151112,17.1721665 34.9440731,16.3954979 34.71,15.69 L33.28,11.4 L34.94,10.29 L35.64,9.87 C42.29,13.43 46.41,19.87 46.41,26.87 C46.41,37.77 36.54,46.64 24.41,46.64 C12.28,46.64 2.41,37.77 2.41,26.87 C2.4479282,21.5432009 4.75823969,16.4859837 8.76,12.97 C9.1648073,12.5966868 9.19163002,11.9663531 8.82,11.56 C8.44668682,11.1551927 7.81635307,11.12837 7.41,11.5 C2.98930136,15.3889732 0.441943102,20.9822442 0.41,26.87 C0.41,38.87 11.17,48.64 24.41,48.64 C37.65,48.64 48.41,38.88 48.41,26.87 C48.285187,19.3194161 44.1827773,12.3958868 37.62,8.66 Z"/>
        <path id="Path" fill="#3D454C" d="M34.86 37C33.86 37.81 35.28 39.21 36.27 38.42 41.813046 33.9853625 43.7714318 26.4286805 41.08 19.86 40.9827137 19.6206369 40.8013505 19.4250491 40.57 19.31 40.5705303 19.049944 40.4633018 18.8012884 40.2738174 18.623173 40.0843329 18.4450577 39.8295262 18.3534001 39.57 18.37 39.126269 18.3773498 38.7404657 18.6762683 38.6225227 19.1041008 38.5045796 19.5319334 38.6827161 19.9863164 39.06 20.22 39.0568699 20.2766234 39.0568699 20.3333766 39.06 20.39 41.559074 26.2408218 39.839766 33.0402756 34.86 37L34.86 37zM32.41 41.18C32.9622847 41.18 33.41 40.7322847 33.41 40.18 33.41 39.6277153 32.9622847 39.18 32.41 39.18L32 39.18C31.4477153 39.18 31 39.6277153 31 40.18 31 40.7322847 31.4477153 41.18 32 41.18L32.41 41.18z"/>
      </g>
    </g>
  </g>
</svg>
