<svg xmlns="http://www.w3.org/2000/svg" width="64" height="64" viewBox="0 0 64 64" style="background:#fff">
  <g id="Tomatensaft" fill="none" fill-rule="evenodd" stroke="none" stroke-width="1">
    <rect width="64" height="64" fill="#FFF"/>
    <g transform="translate(2 4)">
      <g id="Layer_2">
        <rect id="Rectangle" width="60" height="60" x="0" y="0"/>
        <rect id="Rectangle" width="60" height="60" x="0" y="0"/>
      </g>
      <g id="Layer_1" fill-rule="nonzero" transform="translate(2 5)">
        <path id="Path" fill="#E05362" d="M39.57,18.85 C33.07,18.25 26.74,23.95 23.89,29.34 C22.2815648,32.4857863 21.6876513,36.052761 22.19,39.55 C19.69,39.55 6.51,38.75 8.61,34.82 C9.39,33.38 9.1,26.28 5.96,28.37 C1.31,31.47 0.84,37.87 3.28,42.67 C6.33,48.67 13,50.67 19.28,51.29 C31.72,52.56 50.19,47.14 49.9,31.83 C49.75,25.66 46.19,19.46 39.57,18.85 Z" opacity=".5"/>
        <path id="Path" fill="#31E085" d="M19.61,21.16 C18.2501447,20.3732124 16.9589209,19.4733699 15.75,18.47 C14.4650081,17.1848355 12.7986917,16.3499233 11,16.09 C9.36,15.92 8.29,18.09 8,19.34 C7.57,21.03 7.64,23.53 8.84,24.95 C10.0104569,26.4282699 11.5943385,27.5248033 13.39,28.1 C14.7872773,28.609695 16.1278092,29.2632043 17.39,30.05 C19.22,31.05 20.72,28.51 21.06,27.16 C21.49,25.42 21.37,22.25 19.61,21.16 Z" opacity=".5"/>
        <path id="Shape" fill="#3D454C" d="M53.21,11.47 C51.79,6.25 46.79,4.32 41.91,5.47 C40.18,3.32 34.25,3.89 32.18,3.67 C28.37,3.26 25.6,0.1 21.29,0.35 C19.2588666,0.439921927 17.3013059,1.13656273 15.67,2.35 C15.34817,2.67024577 15.2824688,3.16711144 15.51,3.56 L19.08,9.13 C19.15,10.38 19.55,11.63 19.61,12.9 C19.7489607,14.6326422 19.562416,16.3759876 19.06,18.04 C18.63,19.26 20.56,19.78 20.99,18.58 C21.4774042,16.9599884 21.6936527,15.2705469 21.63,13.58 C21.5335414,12.3249496 21.3666114,11.0763134 21.13,9.84 L24.77,9.84 C25.3222847,9.84 25.77,9.39228475 25.77,8.84 C25.77,8.28771525 25.3222847,7.84 24.77,7.84 L20.61,7.84 C19.67,6.37 18.75,4.84 17.78,3.43 C18.147608,3.21616527 18.5283674,3.02578554 18.92,2.86 C21.1359894,2.12402027 23.5450655,2.22721555 25.69,3.15 C26.15,3.33 26.56,3.52 26.94,3.71 L23.29,3.71 C22.7377153,3.71 22.29,4.15771525 22.29,4.71 C22.29,5.26228475 22.7377153,5.71 23.29,5.71 L32.16,5.71 L32.31,5.71 L32.61,5.71 C33.34,5.71 41.01,4.93 40.08,7.87 L36.08,7.87 C35.5277153,7.87 35.08,8.31771525 35.08,8.87 C35.08,9.42228475 35.5277153,9.87 36.08,9.87 C37.22,9.87 38.47,9.75 39.64,9.82 C39.53,10.41 39.43,11.01 39.36,11.61 C39.2148198,12.8110495 39.184683,14.0232199 39.27,15.23 C39.69,20.52 43.39,23.91 44.8,28.83 C46.8,35.94 44.3,43.95 37.4,47.33 C34.71,48.64 27.7,49.26 25.03,48.04 C23.87,47.51 22.86,49.23 24.03,49.77 C27,51 33,50.68 36,49.94 C40.09,48.94 43.79,45.43 45.69,41.79 C47.0343591,39.1235468 47.658319,36.1519808 47.5,33.17 C50.94,27.14 55.13,18.51 53.21,11.47 Z M51.21,18.32 C50.3795005,22.2965878 48.9960587,26.1372376 47.1,29.73 C46.94,28.98 46.75,28.24 46.52,27.51 C48.63,23.17 51.63,16.51 49.33,11.86 C48.0147607,9.09352465 44.8616772,7.71965065 41.94,8.64 C42.117155,8.24994271 42.2480455,7.84049024 42.33,7.42 C49.22,5.8 52.45,11.94 51.23,18.32 L51.21,18.32 Z M41.74,11 C42.7585751,10.5317342 43.8870786,10.3551891 45,10.49 C45.8184189,10.7738002 46.5025212,11.3510115 46.92,12.11 C48.37,14.03 48.21,16.02 47.73,18.33 C47.206495,20.6246984 46.4492057,22.8597069 45.47,25 C44.68,23.5 43.74,22.1 42.92,20.57 C41.15,17.27 41.54,14.3 41.74,11 Z"/>
        <path id="Path" fill="#3D454C" d="M38.84 41.66C41.6063707 38.2267651 42.2881865 33.5613065 40.62 29.48 40.17 28.29 38.24 28.81 38.7 30.01 39.97 33.37 39.84 37.45 37.42 40.24 36.59 41.21 38 42.63 38.84 41.66zM38.44 25.23C38.0775551 25.0475773 37.6408068 25.1022541 37.334518 25.3683961 37.0282292 25.6345381 36.9131258 26.0593791 37.0431723 26.4437387 37.1732188 26.8280983 37.5226317 27.0957721 37.927594 27.1212652 38.3325563 27.1467584 38.7127789 26.9250165 38.89 26.56 39.1287799 26.068193 38.9283422 25.4757883 38.44 25.23zM30.21 35.42C30.21 31.54 29.12 28.89 26.55 26.55 26.3530474 26.369634 26.0921316 26.2755421 25.8253932 26.2886912 25.5586549 26.3018402 25.3082583 26.4211377 25.13 26.62 24.7806727 27.0247488 24.8115096 27.6326767 25.2 28 27.34 29.95 28.2 32.09 28.2 35.39 28.2 41.69 22.48 46.82 15.45 46.82 8.42 46.82 2.7 41.72 2.7 35.42 2.79271359 31.3403154 5.08928366 27.6313547 8.7 25.73L8.88 25.83 9.64 26.34 8.88 28.62C8.68920187 29.2025934 8.87998459 29.8424251 9.35868904 30.2253887 9.83739349 30.6083523 10.5034987 30.6540309 11.03 30.34L13.6 28.8C13.8801646 28.6196969 14.2398354 28.6196969 14.52 28.8L18.78 31.64C19.3693048 32.0343999 20.1504712 31.981731 20.6814995 31.5117944 21.2125278 31.0418579 21.3598056 30.2728948 21.04 29.64L19.58 26.71C21.0610672 25.9617874 22.6910405 25.5551484 24.35 25.52 24.8327608 25.5297357 25.2535264 25.1931232 25.35 24.72 25.4476165 24.2589989 25.2101531 23.7924041 24.78 23.6 22.6481504 22.6639942 20.3240201 22.2492158 18 22.39L18.41 21.29C18.5528646 20.8540312 18.4824959 20.3762646 18.22 20 17.9543974 19.5842932 17.4932851 19.3348391 17 19.3399215L14.57 19.3399215C14.1880883 19.3399215 13.8218186 19.4917139 13.5517662 19.7617662 13.2817139 20.0318186 13.13 20.3980883 13.13 20.78L13.13 24.78C13.13 25.3322847 13.5777153 25.78 14.13 25.78 14.6822847 25.78 15.13 25.3322847 15.13 24.78L15.13 21.34 16.23 21.34 15.52 23.25C15.3962563 23.5930421 15.4690652 23.9762468 15.71 24.25 15.9605327 24.5298787 16.346778 24.6457524 16.71 24.55 17.7444659 24.3536665 18.8009354 24.2998337 19.85 24.39 19.3855946 24.5680113 18.9372895 24.7854728 18.51 25.04 17.6581866 25.5659101 17.3498866 26.6558158 17.8 27.55L18.55 29.06 15.67 27.14C14.7505377 26.5262117 13.5602778 26.4950938 12.61 27.06L11.28 27.86 11.71 26.57C11.9168814 25.9403459 11.6799305 25.2499199 11.13 24.88L10 24.14 9.84 24.05C10.4156807 23.9675991 11.0014113 23.9879135 11.57 24.11 12.1056491 24.2421055 12.6470912 23.9154504 12.78 23.38 12.8421447 23.1157035 12.7941524 22.8374989 12.6470485 22.6092993 12.4999447 22.3810997 12.2663755 22.2225231 12 22.17 10.2466758 21.9093832 8.4563945 22.0740068 6.78 22.65 6.40851947 22.7728566 6.14281447 23.1010804 6.1 23.49 6.04352356 23.8896574 6.23284837 24.2840841 6.58 24.49L6.75 24.59C3.04488739 26.9571114.773046217 31.0238949.7 35.42.7 42.83 7.32 48.85 15.46 48.85 23.6 48.85 30.21 42.83 30.21 35.42z"/>
        <path id="Path" fill="#3D454C" d="M5.6,33.36 C4.42346572,36.2959633 5.29486217,39.6559059 7.75,41.65 C8.75,42.45 10.17,41.05 9.17,40.24 C7.23167181,38.7499742 6.55560783,36.1322874 7.53,33.89 C8,32.7 6.08,32.18 5.6,33.36 Z"/>
      </g>
    </g>
  </g>
</svg>
