<svg xmlns="http://www.w3.org/2000/svg" width="64" height="64" viewBox="0 0 64 64" style="background:#fff">
  <g id="Tomatenkonzentrat" fill="none" fill-rule="evenodd" stroke="none" stroke-width="1">
    <rect width="64" height="64" fill="#FFF"/>
    <g transform="translate(2 4)">
      <g id="Layer_2">
        <rect id="Rectangle" width="60" height="60" x="0" y="0"/>
        <rect id="Rectangle" width="60" height="60" x="0" y="0"/>
      </g>
      <g id="Layer_1" fill-rule="nonzero" transform="translate(6 4)">
        <path id="Path" fill="#E05362" d="M47.36,28.93 C44.15,24.18 40.73,30.09 40.64,33.41 C40.51,38.16 28.93,39.86 25.35,40.28 C19.8710995,40.8994711 14.324554,40.4822081 9,39.05 C9.18055977,32.3279621 8.99027084,25.6010814 8.43,18.9 C7.96,14.36 2.69,11.67 1.94,17.73 C0.85,26.48 1,35.42 0.86,44.22 C0.86,46.29 1.86,49.29 3.98,50.1 C14.2927417,54.0661409 25.6614717,54.3347214 36.15,50.86 C45,47.92 53.83,38.53 47.36,28.93 Z" opacity=".5"/>
        <path id="Path" fill="#31E085" d="M41.45,19.93 C41.09,18.82 40.11,16.98 38.64,17.18 C36.32,17.5 34.56,18.77 32.7,20.11 C30.7837837,21.3638754 29.0933035,22.932641 27.7,24.75 C26.8684161,26.1992212 26.6938321,27.9341497 27.22,29.52 C27.57,30.6 28.49,32.3 29.9,32.14 C32.02,31.89 33.82,30.71 35.59,29.61 C37.6906713,28.4610009 39.5322448,26.8917488 41,25 C41.8776999,23.455087 42.0418779,21.6053489 41.45,19.93 Z" opacity=".5"/>
        <path id="Shape" fill="#3D454C" d="M20.52,48 C18.1619489,48.5943961 15.7289954,48.8370175 13.3,48.72 L13.14,48.72 C7.71,48.72 4.3,47.65 3.84,47.03 C3.84,47.03 3.84,47.03 3.84,47.03 L3.84,47 L3.4,44.81 C4.9,45.47 7.55,46.18 12.08,46.18 C12.6322847,46.18 13.08,45.7322847 13.08,45.18 C13.08,44.6277153 12.6322847,44.18 12.08,44.18 C5.08,44.18 3.25,42.44 3.17,42.37 C3.12050945,42.2975519 3.06352871,42.2305157 3,42.17 C3,41.88 2.95,41.59 2.95,41.29 L2.95,24.73 C2.95,24.5136298 2.87982213,24.3030962 2.75,24.13 C2.09,23.25 2.29,21.47 2.83,19.03 C2.9223552,18.9072384 2.98096465,18.7624386 3,18.61 C3.52,16.25 8.15,18.72 9.36,18.8 C11,18.91 13.36,17.03 14.7,17.49 C15.93,17.89 16.45,15.96 15.23,15.56 C14.2417352,15.2145442 13.1540547,15.297933 12.23,15.79 C10.85,16.38 9.99,17.01 8.48,16.58 C7.56,16.31 6.73,15.82 5.79,15.58 C5.09850777,15.425657 4.38149223,15.425657 3.69,15.58 L4.17,13.7 C4.49555585,12.5364337 4.6040318,11.322859 4.49,10.12 C7.37736227,10.6048481 10.3024736,10.8290843 13.23,10.79 C16.1163621,10.8240055 19.0003072,10.6098843 21.85,10.15 C21.7310653,11.3627618 21.8395912,12.5870692 22.17,13.76 L22.66,15.68 C23.11,17.44 23.5,18.96 23.74,20.24 C23.8279673,20.7210925 24.2509963,21.0679763 24.74,21.06 L24.93,21.06 C25.470663,20.9541955 25.8239115,20.43103 25.72,19.89 C25.47,18.55 25.07,17 24.62,15.2 L24.13,13.29 C23.82,12.03 23.44,9.84 24.48,9.42 L24.48,9.42 C25.38,9 26,8.4 26,7.7 C26.0882327,6.4081715 26.0882327,5.1118285 26,3.82 C26.0045273,3.77010248 26.0045273,3.71989752 26,3.67 C25.51,1.05 17,0.75 13.28,0.75 C9.56,0.75 0.92,1.05 0.46,3.69 C0.45429972,3.73983753 0.45429972,3.79016247 0.46,3.84 C0.37174752,5.10179207 0.37174752,6.36820793 0.46,7.63 C0.527834421,8.2869723 0.944409868,8.85641947 1.55,9.12 C1.64603643,9.2123809 1.75778823,9.2868821 1.88,9.34 C2.88,9.75 2.54,11.94 2.23,13.21 L1.71,15.1 C0.46,20 -0.31,23 0.92,25 L0.92,41.29 C0.919656107,42.1802163 1.01012439,43.0681457 1.19,43.94 L1.87,47.34 L1.87,47.34 C2,48.48 3.22,49.34 5.61,49.95 C8.0802446,50.5082617 10.6076795,50.7734242 13.14,50.74 L14.14,50.74 C16.5002864,50.7972474 18.8568453,50.5211934 21.14,49.92 C21.6701934,49.7487917 21.9612083,49.1801934 21.79,48.65 C21.6187917,48.1198066 21.0501934,47.8287917 20.52,48 L20.52,48 Z M2.71,7.55 L2.59,7.48 L2.59,7.48 L2.43,7.39 C2.43,7.11 2.43,6.52 2.43,5.8 C5.27,6.9 10.54,7.06 13.26,7.06 C15.98,7.06 21.26,6.9 24.09,5.8 C24.09,6.47 24.09,7.07 24.04,7.39 L23.76,7.54 L23.76,7.54 L23.71,7.54 C22.48,8.06 18.97,8.75 13.28,8.75 C7.59,8.75 3.9,8.07 2.71,7.55 Z M13.19,2.75 C18.65,2.75 22.11,3.39 23.47,3.91 C22.11,4.42 18.65,5.06 13.19,5.06 C7.73,5.06 4.26,4.42 2.9,3.91 C4.26,3.39 7.72,2.75 13.19,2.75 L13.19,2.75 Z"/>
        <path id="Path" fill="#3D454C" d="M19.52 15.23C18.9677153 15.23 18.52 15.6777153 18.52 16.23 18.52 16.7822847 18.9677153 17.23 19.52 17.23L19.78 17.23C20.3322847 17.23 20.78 16.7822847 20.78 16.23 20.78 15.6777153 20.3322847 15.23 19.78 15.23L19.52 15.23zM43.71 24.07L44.06 23.86C44.3909994 23.6576058 44.5750592 23.2820219 44.5322146 22.8964206 44.48937 22.5108193 44.2273543 22.1847994 43.86 22.06 43.72 22.06 40.45 20.93 38.12 21.52 37.5842838 21.6553098 37.2596903 22.1992838 37.395 22.735 37.5303098 23.2707162 38.0742838 23.5953097 38.61 23.46 39.3634439 23.3188249 40.1365561 23.3188249 40.89 23.46L39.18 24.57C38.608782 24.9470001 38.3625584 25.6610483 38.58 26.31L39.15 28 37.42 27C36.3998136 26.38943 35.1193049 26.420567 34.13 27.08L30.6 29.4 31.6 27.4C32.0884654 26.4602308 31.7595914 25.302594 30.85 24.76 30.2679967 24.3880776 29.6477834 24.0796472 29 23.84 30.3336387 23.6876127 31.6827936 23.7415789 33 24 33.363222 24.0957524 33.7494673 23.9798787 34 23.7 34.2409348 23.4262468 34.3137437 23.0430421 34.19 22.7L33.34 20.42 34.84 20.42 34.84 24.35C34.84 24.9022847 35.2877153 25.35 35.84 25.35 36.3922847 25.35 36.84 24.9022847 36.84 24.35L36.84 19.87C36.84 19.0470957 36.1729043 18.38 35.35 18.38L32.55 18.38C32.0637924 18.38 31.6081662 18.6172244 31.3293444 19.0155411 31.0505227 19.4138579 30.98358 19.9231607 31.15 20.38L31.67 21.76C29.0400194 21.5871108 26.4075006 22.057326 24 23.13 23.5698469 23.3224041 23.3323835 23.7889989 23.43 24.25 23.5306417 24.7191379 23.9503072 25.0506736 24.43 25.04 26.3310171 25.0789473 28.1955683 25.5690775 29.87 26.47L28.21 29.78C27.8718955 30.4347163 28.0246573 31.2356834 28.58 31.72 28.8783583 31.9831307 29.2621884 32.1288439 29.66 32.13 29.9814045 32.1297754 30.2951951 32.0321517 30.56 31.85L35.28 28.7C35.6300195 28.4739886 36.0799805 28.4739886 36.43 28.7L39.28 30.41C39.8245474 30.7329451 40.5122435 30.6845398 41.0061832 30.2884981 41.5001228 29.8924564 41.6968551 29.2317254 41.5 28.63L40.59 26 41.47 25.42 41.77 25.24C45.8562807 27.3547486 48.4635175 31.5301616 48.57 36.13 48.57 43.13 42.17 48.92 34.3 48.92 26.43 48.92 20 43.18 20 36.13 20 32.42 21 30.02 23.37 27.84 23.7406696 27.4621513 23.7527003 26.8609059 23.3974426 26.4685317 23.0421849 26.0761575 22.4427043 26.0285777 22.03 26.36 19.2 28.93 18.03 31.85 18.03 36.13 18.03 44.28 25.32 50.92 34.29 50.92 43.26 50.92 50.56 44.28 50.56 36.13 50.4812364 31.2052905 47.8994621 26.6598601 43.71 24.07L43.71 24.07z"/>
        <path id="Path" fill="#3D454C" d="M41 42.65C40 43.45 41.42 44.86 42.42 44.06 46.1629401 41.0190104 47.4886356 35.8946092 45.69 31.42 45.21 30.24 43.28 30.76 43.76 31.95 45.3696458 35.7301136 44.2372706 40.120119 41 42.65zM38.68 46.32C39.2322847 46.32 39.68 45.8722847 39.68 45.32 39.68 44.7677153 39.2322847 44.32 38.68 44.32L38.41 44.32C37.8577153 44.32 37.41 44.7677153 37.41 45.32 37.41 45.8722847 37.8577153 46.32 38.41 46.32L38.68 46.32z"/>
      </g>
    </g>
  </g>
</svg>
