<svg xmlns="http://www.w3.org/2000/svg" width="64" height="64" viewBox="0 0 64 64" style="background:#fff">
  <g id="Topinambur" fill="none" fill-rule="evenodd" stroke="none" stroke-width="1">
    <rect width="64" height="64" fill="#FFF"/>
    <g transform="translate(2 4)">
      <g id="Layer_2">
        <rect id="Rectangle" width="60" height="60" x="0" y="0"/>
        <rect id="Rectangle" width="60" height="60" x="0" y="0"/>
      </g>
      <g id="Layer_1" fill-rule="nonzero" transform="translate(5 4)">
        <path id="Path" fill="#C17953" d="M40.45 10.27C37.94 11.68 37.16 18.32 40.66 19.15 40.811312 19.1512869 40.962096 19.1680407 41.11 19.2L39.11 20.92C36.87 22.61 34.65 24 32.95 26.3 29.74 30.62 28.36 37.56 31.95 42.04 35.54 46.52 38.5 41.12 38.72 37.54 38.92 34.35 43.88 32.54 45.98 30.35 48.4137373 27.8152788 49.9367793 24.54408 50.31 21.05 50.88 15.91 47 6.58 40.45 10.27zM28.41 20.05C23.89 17.49 16.41 23.17 13.04 25.94 8.42 29.71 3.4 35 1.91 40.93 1.25 43.55 2.76 52.93 7.31 48.73 11.16 45.15 13.46 40.24 17.46 36.65 21.19 33.31 27.32 30.95 29.71 26.58 30.86 24.48 30.66 21.33 28.41 20.05z" opacity=".5"/>
        <path id="Shape" fill="#3D454C" d="M43,10.29 C41.7523138,9.18665446 40.2565579,8.40103952 38.64,8 C38.23,1.44 35.52,-1.77635684e-15 33.27,-1.77635684e-15 C31.51,-1.77635684e-15 28.72,1 28.72,3.67 C28.7132829,4.58756784 28.8585823,5.49991288 29.15,6.37 C27.82,6.28 26.53,6.22 25.34,6.22 C23.11,6.22 18.94,8.4 18.94,12.56 C18.94,15.05 20.32,18.25 26.42,20.13 C24.58,21.21 22.42,22.43 20.79,23.38 L20.79,23.38 L17,25.49 L16.47,25.79 C15.8436185,25.4124921 15.1920906,25.0783752 14.52,24.79 C13.2539397,24.2526679 11.8952576,23.9673446 10.52,23.95 C7.99468967,23.8698736 5.84136533,25.7649741 5.6,28.28 C5.36497664,30.0088979 6.01958233,31.7394646 7.34,32.88 C4.81,34.51 0.22,37.88 0.22,41.1 C0.22,43.68 1.22,47.29 4.06,49.02 L4.06,49.02 L4.06,49.02 C5.06880114,49.6228179 6.22489853,49.9343411 7.4,49.9204737 C9.79,49.9204737 14.03,48.1 20.4,44.34 C24.18,42.1 27.76,39.71 29.65,38.42 C30.12,42.51 32.21,44.59 35.89,44.59 C41.95,44.59 42.94,37.07 43.09,31.08 C43.9585148,30.6956386 44.7888559,30.2302459 45.57,29.69 C48.4120605,27.8671343 50.1565483,24.7458141 50.2204508,21.37 C50.27,14.59 46.15,10.66 43,10.29 Z M46.6,26.12 C46.7791579,24.5364834 46.815972,22.9400919 46.71,21.35 C46.6796324,20.9927344 46.4609727,20.6788083 46.1363878,20.5264746 C45.811803,20.3741409 45.4306051,20.4065427 45.1363878,20.6114746 C44.8421706,20.8164065 44.6796324,21.1627344 44.71,21.52 C44.859441,23.7980492 44.6741378,26.0857016 44.16,28.31 C43.7887425,28.5649698 43.4012538,28.7954588 43,29 C42.7838687,28.599346 42.3244091,28.3952305 41.8822211,28.5034255 C41.4400331,28.6116204 41.1267245,29.0048175 41.12,29.46 C41.12,29.79 41.12,30.13 41.12,30.46 C41,38.78 39.34,42.66 35.91,42.66 C32.91,42.66 31.59,40.88 31.57,36.66 L31.57,36.51 C31.57,33.45 35.27,32.14 35.34,32.12 C35.7009998,32.0244244 35.9786672,31.7356657 36.0600375,31.3712012 C36.1414077,31.0067366 36.0129213,30.6273001 35.726851,30.3872599 C35.4407807,30.1472196 35.044797,30.0865756 34.7,30.23 C34.5,30.29 29.92,31.89 29.6,36.07 C28.68,36.71 25.78,38.7 22.31,40.88 C22.7539933,39.406528 22.8767547,37.8549597 22.67,36.33 C22.6236921,36.068708 22.4754279,35.836536 22.2578573,35.6846117 C22.0402868,35.5326875 21.7712525,35.47347 21.51,35.52 C21.248708,35.5663079 21.016536,35.7145721 20.8646117,35.9321427 C20.7126875,36.1497132 20.65347,36.4187475 20.7,36.68 C20.9468603,38.8196672 20.4181923,40.9769164 19.21,42.76 C12,47.08 8.85,48 7.49,48 C7.3068095,48.0102345 7.1231905,48.0102345 6.94,48 C7.62694066,47.4082346 8.12141899,46.6247302 8.36,45.75 C8.64358312,44.2407339 8.30059816,42.6810549 7.41,41.43 C7.19742698,41.1424012 6.84756926,40.9900553 6.49221488,41.0303495 C6.13686049,41.0706438 5.82999622,41.2974565 5.68721486,41.6253495 C5.54443351,41.9532426 5.58742696,42.3324012 5.8,42.62 C6.33740931,43.3842171 6.55947675,44.3262128 6.42,45.25 C6.13722264,46.0676057 5.5344959,46.735297 4.75,47.1 C3.10992708,45.5755022 2.2062229,43.4182728 2.27,41.18 C2.27,38.99 6.65,35.67 9.61,33.94 C9.93936233,34.0042321 10.2744616,34.034391 10.61,34.03 C11.1622847,34.03 11.61,33.5822847 11.61,33.03 C11.61,32.4777153 11.1622847,32.03 10.61,32.03 C10.3095699,32.036664 10.0097671,31.9996097 9.72,31.92 C8.3075819,31.4871149 7.44629743,30.0616891 7.72,28.61 C7.82111917,27.118776 9.07565488,25.9698854 10.57,26 C11.3612895,26.0095514 12.1466792,26.1376407 12.9,26.38 C12.6517104,26.9702528 12.1863935,27.4427284 11.6,27.7 C11.0748551,27.8547378 10.7717595,28.4029841 10.92,28.93 C11.0445106,29.3752375 11.4579962,29.677082 11.92,29.66 C12.0097317,29.6698276 12.1002683,29.6698276 12.19,29.66 C13.3700101,29.2299203 14.3139937,28.3222437 14.79,27.16 C15.2,27.36 15.61,27.58 16.02,27.83 C17.3981732,28.6887757 18.6790145,29.694672 19.84,30.83 C19.55,32.83 16.99,33.83 16.96,33.83 C16.5020379,33.9961574 16.2304563,34.468153 16.3169519,34.947586 C16.4034476,35.427019 16.8228464,35.7743532 17.31,35.77 C17.4293119,35.7710405 17.5478471,35.7507202 17.66,35.71 C17.83,35.64 21.87,34.09 21.87,30.42 C21.8666246,30.1708263 21.7703371,29.9318906 21.6,29.75 C20.6216242,28.7353373 19.550269,27.8146415 18.4,27 L21.4,25.29 C23.53,25.74 25.04,26.54 25.08,27.02 C25.126703,27.5368638 25.5610348,27.9321057 26.08,27.93 L26.16,27.93 C26.7091457,27.8823274 27.1161623,27.3992747 27.07,26.85 C26.95,25.39 25.44,24.47 23.85,23.85 C25.68,22.85 27.65,21.65 29.15,20.75 C30.4030161,20.9984943 31.6680362,21.1820725 32.94,21.3 L33.04,21.3 C34.75,21.46 36.13,21.49 36.8,21.49 C37.3522847,21.49 37.8,21.0422847 37.8,20.49 C37.8,19.9377153 37.3522847,19.49 36.8,19.49 L35.8,19.49 C36.3177911,18.806651 36.6796044,18.0181712 36.86,17.18 C36.9243078,16.8227344 36.7931317,16.4582996 36.5158846,16.2239746 C36.2386374,15.9896496 35.8574396,15.921034 35.5158846,16.0439746 C35.1743296,16.1669152 34.9243078,16.4627344 34.86,16.82 C34.6153613,17.9103496 33.8756217,18.8239281 32.86,19.29 C31.6141126,19.1705917 30.3756245,18.9836501 29.15,18.73 L29.15,18.73 C25.39,17.94 20.91,16.22 20.91,12.51 C20.91,9.65 24,8.17 25.31,8.17 C26.82,8.17 28.51,8.26 30.23,8.42 C30.7078405,9.03378223 31.3113121,9.53837992 32,9.9 C32.4945567,10.1293083 33.0816552,9.92026565 33.32,9.43 C33.5654836,8.9356857 33.3640809,8.3359531 32.87,8.09 C32.3737572,7.82951986 31.9456023,7.45616881 31.62,7 C30.9935671,6.0198607 30.6797067,4.87252642 30.72,3.71 C30.72,2.33 32.72,2.04 33.27,2.04 C35.9,2.04 36.58,5.73 36.69,8.84 C36.69,9.22 36.69,9.58 36.69,9.93 C36.69,10.4822847 37.1377153,10.93 37.69,10.93 C38.1666599,10.9416496 38.5852458,10.6151526 38.69,10.15 C39.868535,10.4457135 40.9439044,11.0577404 41.8,11.92 C41.9678527,12.1074382 42.0635575,12.3484725 42.07,12.6 C42.07,15.96 40.73,17.1 40.69,17.13 C40.2481722,17.4613708 40.1586292,18.0881722 40.49,18.53 C40.6788544,18.7818058 40.9752427,18.93 41.29,18.93 C41.5063702,18.93 41.7169038,18.8598221 41.89,18.73 C42.11,18.57 44.02,17 44.06,12.73 C46.06,13.79 48.29,16.73 48.29,21.47 C48.2809527,23.168725 47.683766,24.8118718 46.6,26.12 Z"/>
        <path id="Path" fill="#3D454C" d="M27 29.38C26.4477153 29.38 26 29.8277153 26 30.38 26 30.9322847 26.4477153 31.38 27 31.38 27.5522847 31.38 28 30.9322847 28 30.38 28 29.8277153 27.5522847 29.38 27 29.38zM31.21 14.38C30.6577153 14.38 30.21 14.8277153 30.21 15.38 30.21 15.9322847 30.6577153 16.38 31.21 16.38 31.7622847 16.38 32.21 15.9322847 32.21 15.38 32.21 14.8277153 31.7622847 14.38 31.21 14.38z"/>
      </g>
    </g>
  </g>
</svg>
