<svg xmlns="http://www.w3.org/2000/svg" width="64" height="64" viewBox="0 0 64 64" style="background:#fff">
  <g id="Traubenkernöl" fill="none" fill-rule="evenodd" stroke="none" stroke-width="1">
    <rect width="64" height="64" fill="#FFF"/>
    <g transform="translate(2 4)">
      <g id="Layer_2">
        <rect id="Rectangle" width="60" height="60" x="0" y="0"/>
        <rect id="Rectangle" width="60" height="60" x="0" y="0"/>
      </g>
      <g id="Layer_1" fill-rule="nonzero" transform="translate(8)">
        <path id="Path" fill="#4885E0" d="M41,27 C37.3274713,27.9932761 33.5340393,28.4678758 29.73,28.41 C26.28,28.36 22.78,27.56 19.35,27.81 C17.54,27.94 16.92,30.42 17.35,32.27 C16.6163352,34.2894726 16.5776236,36.4960355 17.24,38.54 C19.76,45.28 24.12,52.02 30.59,55.54 C32.31,56.47 33.89,54.38 34.39,53.06 C36.88,46.5 40.71,40.81 44.18,34.78 C45.57,32.32 45.1,25.92 41,27 Z" opacity=".5"/>
        <path id="Path" fill="#31E085" d="M38.38,17.94 C37.7592838,19.0442283 36.872406,19.9757937 35.8,20.65 C35.59,18 33.8,15.42 30.88,16.21 C28.42,16.87 27.52,19.21 27.75,21.47 C25.43,21.41 23.16,21.15 20.83,21.06 C19.47,21 19.45,23.73 20.33,24.29 C23.5442885,26.1878438 27.2938661,26.9750091 31,26.53 C35.43,28.73 40.55,24.74 41.11,20.21 C41.25,18.83 39.8,15.71 38.38,17.94 Z" opacity=".5"/>
        <path id="Path" fill="#EBE53F" d="M14.42,33.12 C13.8840684,32.0086136 13.1939256,30.9784493 12.37,30.06 C12.12,29.14 11.57,28.32 10.61,28.34 C10.2961174,28.3461443 9.98535123,28.4035685 9.69,28.51 C7.89,28.26 6.93,29.74 6.6,31.51 C5.77953791,32.9887941 5.16709327,34.573747 4.78,36.22 C4.03,39.56 4.57,44.76 8.41,46.05 C12.25,47.34 15.14,43.29 15.58,39.88 C15.8736285,37.5614615 15.4697822,35.2080124 14.42,33.12 L14.42,33.12 Z" opacity=".5"/>
        <path id="Shape" fill="#3D454C" d="M18.53,50 C18.53,52.41 18.88,53.8 16.91,55.45 C14.94,57.1 13.91,56.75 11.41,56.75 C8.41,56.75 4.32,57.55 2.91,54.06 C2.16,52.21 2.91,48.44 2.91,46.47 L2.91,23.83 C2.91,20.26 4.81,18.83 6.86,16.18 C8.11,14.58 8.29,11.8 8.03,9.65 L13.69,9.65 C13.5622639,10.3735072 13.4887262,11.105542 13.47,11.84 C13.47,16.23 16.39,16.79 18.28,20.42 C18.87,21.56 20.6,20.55 20,19.42 C19,17.42 16.62,16.29 15.69,14.36 C15,13 15.55,9.47 15.64,9 C16.16,6.26 17.3,2.42 13.75,1 C10.69,-0.27 5.91,0.65 5.14,4.12 C4.3,7.95 6.54,9.42 5.89,13.06 C5.24,16.7 1.13,17.91 0.89,22.18 C0.68,26.12 0.89,30.18 0.89,34.08 L0.89,50 C0.89,52.71 0.26,56.05 2.89,57.82 C5.69,59.73 11.34,58.91 14.64,58.76 C20.37,58.49 20.45,54.76 20.5400127,50.01 C20.5427614,49.4549538 20.0950462,49.0027614 19.54,49 C18.9849538,48.9972386 18.5327614,49.4449538 18.53,50 Z M11.53,2.75 C14.11,3.39 14.27,5.44 14.01,7.66 L7.42,7.66 C7.27505494,7.41495351 7.17038986,7.14822638 7.11,6.87 C6.89577211,5.67117845 7.30215032,4.4453201 8.19008605,3.61187134 C9.07802178,2.77842257 10.3271266,2.45038434 11.51,2.74 L11.53,2.75 Z"/>
        <path id="Shape" fill="#3D454C" d="M11.82 29.38L11.82 29.31 11.82 29.31C11.8242339 29.2936022 11.8242339 29.2763978 11.82 29.26 11.6308336 29.0120854 11.3368422 28.8666094 11.025 28.8666094 10.7131578 28.8666094 10.4191664 29.0120854 10.23 29.26L10.23 29.31 10.23 29.31 10.23 29.37 10.23 29.37C8.48 32.04 6.16 35.26 5.72 38.49 5.48986868 40.0952971 5.94831994 41.723134 6.98238598 42.9723924 8.01645202 44.2216508 9.5299732 44.97616 11.15 45.05 12.7455492 44.9721114 14.2374081 44.2362383 15.2702871 43.0176306 16.3031661 41.7990228 16.7846238 40.2067444 16.6 38.62 16.21 35.35 13.83 32.06 12.07 29.37L11.82 29.38zM10.92 43.08C6.42 43.08 7.47 38.08 8.71 35.56 9.37 34.23 10.12 32.95 10.91 31.69 11.63 32.85 12.33 34.03 12.96 35.24 14.25 37.76 15.62 43.08 10.92 43.08zM43.6001788 34.14C43.6010945 31.8002099 41.979411 29.772549 39.696586 29.259393 37.4137611 28.7462369 35.0803358 29.8848293 34.08 32 33.2445678 30.2750484 31.4966129 29.1794495 29.58 29.1794495 27.6633871 29.1794495 25.9154322 30.2750484 25.08 32 24.7043285 31.1950466 24.120992 30.5047076 23.39 30 22.9316037 29.6907205 22.3092795 29.8116037 22 30.27 21.6907205 30.7283963 21.8116037 31.3507205 22.27 31.66 23.3975731 32.3876851 23.9047086 33.7757062 23.5118446 35.0589071 23.1189806 36.342108 21.921695 37.2083046 20.58 37.18 20.0277153 37.18 19.58 37.6277153 19.58 38.18 19.58 38.7322847 20.0277153 39.18 20.58 39.18 20.7331926 39.1892892 20.8868074 39.1892892 21.04 39.18 19.9036838 40.6950882 19.720904 42.7221478 20.567864 44.416068 21.4148241 46.1099881 23.1461397 47.18 25.04 47.18 25.1975622 47.1732329 25.3545406 47.1565331 25.51 47.13 24.8556229 47.9927124 24.5041258 49.0472039 24.51 50.13 24.51 52.8914237 26.7485763 55.13 29.51 55.13 32.2714237 55.13 34.51 52.8914237 34.51 50.13 34.5158742 49.0472039 34.1643771 47.9927124 33.51 47.13 33.6654594 47.1565331 33.8224378 47.1732329 33.98 47.18 35.8738603 47.18 37.6051759 46.1099881 38.452136 44.416068 39.299096 42.7221478 39.1163162 40.6950882 37.98 39.18 38.1365126 39.1898274 38.2934874 39.1898274 38.45 39.18 39.8088467 39.2208323 41.1257392 38.7065984 42.097343 37.7557473 43.0689467 36.8048962 43.611489 35.4994115 43.6001788 34.14zM38.6 31.14C40.2568542 31.14 41.6 32.4831458 41.6 34.14 41.6 35.7968542 40.2568542 37.14 38.6 37.14 36.9431458 37.14 35.6 35.7968542 35.6 34.14 35.594678 33.3443452 35.9056556 32.5791661 36.4645179 32.0128024 37.0233801 31.4464387 37.784345 31.1252867 38.58 31.12L38.6 31.14zM29.6 44.29C29.7313961 44.5612626 29.8888001 44.8191372 30.07 45.06 29.91 45.06 29.76 45.06 29.6 45.06 29.44 45.06 29.29 45.06 29.14 45.06 29.308496 44.8094316 29.4556786 44.545172 29.58 44.27L29.6 44.29zM29.6 39.91C29.4683274 39.6378193 29.3144746 39.3769385 29.14 39.13 29.2931585 39.1403539 29.4468415 39.1403539 29.6 39.13 29.7565126 39.1398274 29.9134874 39.1398274 30.07 39.13 29.8828696 39.3671745 29.718793 39.6216607 29.58 39.89L29.6 39.91zM34.6 37.12C34.45 37.12 34.3 37.12 34.14 37.12 33.98 37.12 33.83 37.12 33.67 37.12 33.8511999 36.8791372 34.0086039 36.6212626 34.14 36.35 34.2534197 36.6101218 34.3871673 36.8608985 34.54 37.1L34.6 37.12zM29.6 31.12C31.2568542 31.12 32.6 32.4631458 32.6 34.12 32.6 35.7768542 31.2568542 37.12 29.6 37.12 27.9431458 37.12 26.6 35.7768542 26.6 34.12 26.6 32.4709249 27.9309616 31.1309938 29.58 31.12L29.6 31.12zM25.6 37.12C25.44 37.12 25.29 37.12 25.13 37.12 24.97 37.12 24.82 37.12 24.67 37.12 24.8479972 36.8788955 25.0020596 36.6210085 25.13 36.35 25.2500725 36.6106491 25.3905076 36.861426 25.55 37.1L25.6 37.12zM22.11 42.12C22.11 40.4631458 23.4531458 39.12 25.11 39.12 26.7668542 39.12 28.11 40.4631458 28.11 42.12 28.11 43.7768542 26.7668542 45.12 25.11 45.12 24.2987383 45.1335966 23.516564 44.8180084 22.9418935 44.245222 22.3672229 43.6724356 22.0490677 42.891302 22.06 42.08L22.11 42.12zM29.63 53.12C27.9731458 53.12 26.63 51.7768542 26.63 50.12 26.63 48.4631458 27.9731458 47.12 29.63 47.12 31.2868542 47.12 32.63 48.4631458 32.63 50.12 32.5650216 51.7493806 31.2104272 53.0284731 29.58 53L29.63 53.12zM34.13 45.18C32.4731458 45.18 31.13 43.8368542 31.13 42.18 31.13 40.5231458 32.4731458 39.18 34.13 39.18 35.7868542 39.18 37.13 40.5231458 37.13 42.18 37.0863522 43.8251497 35.7254902 45.1280077 34.08 45.1L34.13 45.18zM20.87 23.94C21.7333643 24.0652552 22.5748944 24.310982 23.37 24.67 25.4164773 25.5417293 27.606806 26.0265853 29.83 26.1L29.9 26.1C31.1341429 26.1081047 32.3313916 25.6795039 33.28 24.89 34.2054938 25.1646645 35.1646676 25.3093819 36.13 25.32L36.13 25.32C38.0479353 25.2612316 39.7810281 24.1607944 40.65 22.45 41.1236542 21.5946886 41.028593 20.5371319 40.41 19.78 39.6058905 19.0290389 38.4613954 18.7658051 37.41 19.09 36.9748992 19.2873743 36.7401958 19.7649612 36.8497608 20.230004 36.9593259 20.6950468 37.3825498 21.0176246 37.86 21 38.2111027 20.8815925 38.5943362 20.9030822 38.93 21.06 39 21.13 38.93 21.34 38.86 21.58 38.326828 22.5869325 37.2984674 23.2344189 36.16 23.28L36.16 23.28C35.6629418 23.2786466 35.1672219 23.2284047 34.68 23.13 34.8707994 22.7708893 35.0216989 22.391964 35.13 22 35.8203926 20.2182654 35.2399225 18.1947957 33.71 17.05 32.5677672 16.2618801 31.0625215 16.2421262 29.9 17 29.37 17.39 28.2 18.56 28.9 21.18 29.2481058 22.328254 30.0204493 23.3008346 31.06 23.9 30.689189 24.0394812 30.296176 24.11063 29.9 24.11L29.84 24.11C27.8553354 24.0346153 25.902053 23.5903792 24.08 22.8 23.0818808 22.3699712 22.0222055 22.0999902 20.94 22L20.94 22C20.3877153 22 19.94 22.4477153 19.94 23 19.94 23.5522847 20.3877153 24 20.94 24L20.87 23.94zM30.87 20.67C30.61 19.67 30.7 18.92 31.12 18.62 31.2939734 18.5028645 31.5003722 18.4433937 31.71 18.45 32.0659147 18.4471814 32.4144117 18.5517305 32.71 18.75 33.4569866 19.4390062 33.6963372 20.5200734 33.31 21.46 33.1941711 21.8431733 33.022312 22.2071104 32.8 22.54 31.900873 22.2319275 31.1789068 21.5500705 30.82 20.67L30.87 20.67z"/>
        <path id="Path" fill="#3D454C" d="M19.61,29.45 C20.1622847,29.45 20.61,29.0022847 20.61,28.45 C20.61,27.8977153 20.1622847,27.45 19.61,27.45 C19.0577153,27.45 18.61,27.8977153 18.61,28.45 C18.61,29.0022847 19.0577153,29.45 19.61,29.45 Z"/>
      </g>
    </g>
  </g>
</svg>
