<svg xmlns="http://www.w3.org/2000/svg" width="64" height="64" viewBox="0 0 64 64" style="background:#fff">
  <g id="Traubensaft" fill="none" fill-rule="evenodd" stroke="none" stroke-width="1">
    <rect width="64" height="64" fill="#FFF"/>
    <g transform="translate(2 4)">
      <g id="Layer_2">
        <rect id="Rectangle" width="60" height="60" x="0" y="0"/>
        <rect id="Rectangle" width="60" height="60" x="0" y="0"/>
      </g>
      <g id="Layer_1" fill-rule="nonzero" transform="translate(6 5)">
        <path id="Path" fill="#31E085" d="M21.05,18.54 C19.63,19.83 18.61,21.03 16.65,21.54 C16.28,21.64 14.86,21.68 13.48,21.77 C13.82,18.87 11.09,15.37 8.48,18.18 C7.95512916,18.7248237 7.57372239,19.3914265 7.37,20.12 C6.12,19.89 4.85,19.55 4.37,19.52 C3.14,19.44 3.3,21.58 3.7,22.22 C4.8969486,23.9528296 6.81046489,25.0546624 8.91,25.22 C9.69070751,26.0479659 10.6832843,26.6462788 11.78,26.95 C16.24,28.11 21.78,26.4 23.31,21.8 C23.68,20.6 22.87,16.88 21.05,18.54 Z" opacity=".5"/>
        <path id="Path" fill="#4885E0" d="M20.71,27.3 C16.21,27.39 11.61,26.92 7.13,27.23 C6.33925139,27.2743584 5.59061796,27.6007767 5.02,28.15 C4.72972307,27.9001676 4.42593138,27.6664817 4.11,27.45 C2,25.94 0.64,29.39 1.16,31.09 C3,37 6,42.53 7.9,48.44 C8.83,51.33 11.84,51.79 13.52,49.44 C16.3075662,45.3117974 19.42439,41.4157675 22.84,37.79 C25.16,35.38 25.47,27.2 20.71,27.3 Z" opacity=".5"/>
        <path id="Path" fill="#4885E0" d="M42.52,31.4 C41.59,24.32 33.52,15.72 26.28,21.25 C24.06,22.94 24.47,27.25 25.8,29.25 C26.8537453,30.7629147 28.2172499,32.0343827 29.8,32.98 L29.98,33.13 C28.3618745,34.0292287 26.9938448,35.3182014 26,36.88 C24.13,39.88 23.9,47.73 28.4,48.97 C32.27,50.04 35.97,47.52 38.53,44.68 C41.7349082,41.0480786 43.1924586,36.1968833 42.52,31.4 Z" opacity=".5"/>
        <path id="Shape" fill="#3D454C" d="M49.21,11.67 C47.79,6.45 42.79,4.52 37.91,5.67 C36.18,3.52 30.25,4.09 28.18,3.87 C24.37,3.46 21.6,0.3 17.29,0.55 C15.2588666,0.639921927 13.3013059,1.33656273 11.67,2.55 C11.34817,2.87024577 11.2824688,3.36711144 11.51,3.76 L15.08,9.33 C15.15,10.58 15.55,11.83 15.61,13.09 C15.7485655,14.8259329 15.5620409,16.5724814 15.06,18.24 C14.63,19.46 16.56,19.98 16.99,18.77 C17.4779454,17.1501036 17.6942055,15.4605717 17.63,13.77 C17.5328786,12.5183305 17.3659522,11.2730595 17.13,10.04 L20.77,10.04 C21.3222847,10.04 21.77,9.59228475 21.77,9.04 C21.77,8.48771525 21.3222847,8.04 20.77,8.04 L16.61,8.04 C15.67,6.57 14.75,5.04 13.78,3.63 C14.146035,3.39566686 14.5268282,3.18522852 14.92,3 C17.1359894,2.26402027 19.5450655,2.36721555 21.69,3.29 C22.15,3.47 22.56,3.66 22.94,3.84 L19.29,3.84 C18.7377153,3.84 18.29,4.28771525 18.29,4.84 C18.29,5.39228475 18.7377153,5.84 19.29,5.84 L28.16,5.84 L28.31,5.84 L28.61,5.84 C29.34,5.84 37.01,5.06 36.08,8 L32.08,8 C31.5277153,8 31.08,8.44771525 31.08,9 C31.08,9.55228475 31.5277153,10 32.08,10 C33.22,10 34.47,9.88 35.64,10 C35.53,10.59 35.43,11.19 35.36,11.79 C35.2148198,12.9910495 35.184683,14.2032199 35.27,15.41 C35.69,20.7 39.39,24.09 40.8,29.01 C42.8,36.12 40.3,44.13 33.4,47.51 C30.71,48.82 23.7,49.44 21.03,48.22 C19.87,47.69 18.86,49.41 20.03,49.95 C22.95,51.28 28.96,50.95 32.03,50.18 C36.12,49.18 39.82,45.67 41.72,42.03 C43.0625978,39.36293 43.6864583,36.391837 43.53,33.41 C46.94,27.34 51.13,18.71 49.21,11.67 Z M47.21,18.52 C46.3795005,22.4965878 44.9960587,26.3372376 43.1,29.93 C42.94,29.18 42.75,28.44 42.52,27.71 C44.63,23.37 47.63,16.71 45.33,12.06 C44.011812,9.29627704 40.8637446,7.92032881 37.94,8.83 C38.1183506,8.443882 38.2493032,8.03759321 38.33,7.62 C45.22,6 48.45,12.13 47.23,18.52 L47.21,18.52 Z M37.74,11.2 C38.7576472,10.7286669 39.8870253,10.5519851 41,10.69 C41.8184189,10.9738002 42.5025212,11.5510115 42.92,12.31 C44.37,14.23 44.21,16.22 43.73,18.52 C43.2200744,20.8198702 42.4762019,23.0615399 41.51,25.21 C40.72,23.71 39.78,22.31 38.96,20.78 C37.15,17.47 37.54,14.5 37.74,11.2 Z"/>
        <path id="Path" fill="#3D454C" d="M34.84 41.86C37.6063707 38.4267651 38.2881865 33.7613065 36.62 29.68 36.17 28.49 34.24 29.01 34.7 30.21 35.97 33.57 35.84 37.65 33.42 40.44 32.59 41.41 34 42.83 34.84 41.86zM34.44 25.42C34.0778424 25.2397182 33.6427394 25.2954 33.3376521 25.5610716 33.0325649 25.8267432 32.9176019 26.2500617 33.0463897 26.6335632 33.1751775 27.0170646 33.5223421 27.285191 33.9259428 27.3128704 34.3295435 27.3405498 34.7100623 27.1223287 34.89 26.76 35.1354836 26.2656857 34.9340809 25.6659531 34.44 25.42L34.44 25.42z"/>
        <path id="Shape" fill="#3D454C" d="M20.4 38.92C20.3946442 38.1244562 20.1697109 37.3458412 19.75 36.67 21.6997856 36.4705701 23.2634363 34.9693726 23.5421303 33.0293299 23.8208243 31.0892872 22.7429888 29.2086309 20.9281881 28.4684049 19.1133873 27.7281789 17.0276891 28.3184843 15.87 29.9 15.0262837 28.7392168 13.6526854 28.083966 12.2196126 28.1586473 10.7865398 28.2333285 9.48849075 29.027806 8.77 30.27 7.71789313 28.4814143 5.53434301 27.7051957 3.5893483 28.4283577 1.6443536 29.1515196.498295633 31.1657087.870231805 33.2071864 1.24216798 35.2486641 3.02493806 36.7292509 5.1 36.72L5.1 36.72C4.69137658 37.3813093 4.47335977 38.1426379 4.47 38.92 4.47551376 41.2853954 6.39459818 43.2000064 8.76 43.2L8.76 43.2C8.35440788 43.8621262 8.13983233 44.6235233 8.14 45.4 8.14 47.7637787 10.0562213 49.68 12.42 49.68 14.7837787 49.68 16.7 47.7637787 16.7 45.4 16.7001677 44.6235233 16.4855921 43.8621262 16.08 43.2L16.08 43.2C17.2212366 43.2079839 18.318617 42.7609031 19.1293576 41.9576694 19.9400982 41.1544356 20.3973676 40.0612615 20.4 38.92L20.4 38.92zM16.11 41.200022C15.1828734 41.200022 14.3472306 40.6409624 13.993376 39.7840197 13.6395214 38.927077 13.837284 37.9413275 14.4942944 37.2871861 15.1513049 36.6330446 16.1379104 36.439598 16.9932963 36.7971995 17.8486822 37.1548009 18.4040486 37.9928822 18.400022 38.92 18.400022 39.5264302 18.15842 40.1078778 17.7286718 40.5357493 17.2989236 40.9636209 16.7164244 41.2026598 16.11 41.200022zM19.31 30.15C20.5720698 30.1610229 21.5872939 31.1911203 21.5800008 32.453217 21.5726288 33.7153136 20.5455042 34.7335454 19.2833915 34.7299129 18.0212788 34.7262609 17.0000481 33.702118 17 32.44 17 31.8291731 17.2439874 31.2436511 17.677781 30.8136132 18.1115747 30.3835753 18.6991964 30.1446653 19.31 30.15L19.31 30.15zM12.44 30.149978C13.3671178 30.1459514 14.2051991 30.7013178 14.5628005 31.5567037 14.920402 32.4120896 14.7269554 33.3986951 14.0728139 34.0557056 13.4186725 34.712716 12.432923 34.9104786 11.5759803 34.556624 10.7190376 34.2027694 10.16 33.3671266 10.16 32.44 10.16 31.1791629 11.1791749 30.1555058 12.44 30.149978L12.44 30.149978zM2.77997801 32.44C2.77595141 31.5128822 3.33131777 30.6748009 4.18670366 30.3171995 5.04208955 29.959598 6.02869507 30.1530446 6.68570556 30.8071861 7.34271605 31.4613275 7.54047856 32.447077 7.186624 33.3040197 6.83276943 34.1609624 5.99712665 34.72 5.07 34.72 3.82313525 34.6983577 2.82065612 33.687007 2.81 32.44L2.77997801 32.44zM6.44997801 38.92C6.44595141 37.9928822 7.00131777 37.1548009 7.85670366 36.7971995 8.71208955 36.439598 9.69869507 36.6330446 10.3557056 37.2871861 11.012716 37.9413275 11.2104786 38.927077 10.856624 39.7840197 10.5027694 40.6409624 9.66712665 41.2 8.74 41.2 7.49313525 41.1783577 6.49065612 40.167007 6.48 38.92L6.44997801 38.92zM12.45 47.680022C11.5219739 47.6840437 10.6832626 47.1275908 10.3262519 46.2709741 9.96924118 45.4143574 10.1645274 44.426967 10.8207472 43.7707472 11.476967 43.1145274 12.4643574 42.9192412 13.3209741 43.2762519 14.1775908 43.6332626 14.7340437 44.4719739 14.7300219 45.4 14.7300219 46.0064302 14.48842 46.5878778 14.0586718 47.0157493 13.6289236 47.4436209 13.0464244 47.6826598 12.44 47.680022L12.45 47.680022zM7.07 25.42L7.07 25.42C7.84512956 25.4099112 8.61537581 25.2955515 9.36 25.08 10.1518854 25.7230642 11.1399032 26.0759277 12.16 26.08L12.22 26.08C14.0582872 26.0253341 15.8698451 25.6250273 17.56 24.9 18.1978289 24.6183703 18.8704578 24.4233079 19.56 24.32 20.1122847 24.32 20.56 23.8722847 20.56 23.32 20.56 22.7677153 20.1122847 22.32 19.56 22.32 18.6580268 22.417679 17.7771596 22.6573019 16.95 23.03 15.4810861 23.6624292 13.908086 24.0183883 12.31 24.08 12.1154347 24.0841301 11.920988 24.0673674 11.73 24.03 12.4668793 23.5229351 13.0070608 22.7779788 13.26 21.92 13.84 19.67 12.82 18.65 12.36 18.32 11.346888 17.6533103 10.0283611 17.6771391 9.04 18.38 7.72121835 19.354373 7.21404427 21.0885812 7.8 22.62 7.87678262 22.8758706 7.970318 23.1264118 8.08 23.37 7.77257843 23.4210204 7.46161856 23.4477696 7.15 23.45L7.15 23.45C6.45875192 23.4136436 5.81383397 23.0911846 5.37 22.56 5.22351652 22.3752351 5.09932609 22.1738452 5 21.96 5.23279418 21.8768279 5.48720582 21.8768279 5.72 21.96 5.98000446 22.0195712 6.25303315 21.9727967 6.4783815 21.830076 6.70372984 21.6873554 6.86271911 21.4605186 6.92 21.2 6.97822367 20.9283042 6.92077656 20.644633 6.76143183 20.4169977 6.6020871 20.1893624 6.35521352 20.0382897 6.08 20 5.15265545 19.7133416 4.14279363 19.9505061 3.44 20.62 2.88057774 21.2902904 2.78928322 22.2349902 3.21 23 3.95654116 24.4525533 5.43730092 25.3809052 7.07 25.42zM10.07 20.02C10.2760454 19.8873028 10.5149649 19.8145882 10.76 19.81 10.8906529 19.8047534 11.019778 19.839652 11.13 19.91 11.4 20.1 11.45 20.67 11.26 21.39 11.0305288 21.9813269 10.5780689 22.4589235 10 22.72 9.86682004 22.5058954 9.76574551 22.273424 9.7 22.03 9.38221823 21.3448202 9.52598725 20.5341226 10.06 20L10.07 20.02z"/>
      </g>
    </g>
  </g>
</svg>
