<svg xmlns="http://www.w3.org/2000/svg" width="64" height="64" viewBox="0 0 64 64" style="background:#fff">
  <g id="Trauben" fill="none" fill-rule="evenodd" stroke="none" stroke-width="1">
    <rect width="64" height="64" fill="#FFF"/>
    <g transform="translate(2 2)">
      <g id="Layer_2">
        <rect id="Rectangle" width="60" height="60" x="0" y="0"/>
        <rect id="Rectangle" width="60" height="60" x="0" y="0"/>
      </g>
      <g id="Layer_1" fill-rule="nonzero" transform="translate(4 8)">
        <g id="Group" fill="#4885E0" opacity=".5" transform="translate(0 16)">
          <path id="Path" d="M33.06,13.16 C31.6015365,9.25234312 27.7152042,6.79781749 23.56,7.16 C21.4548514,4.24732227 18.4450945,2.11306709 15,1.09 C8.23,-0.62 -0.33,3.09 0.15,11.75 C0.57,19.9 9,27.92 14.07,33.33 C16.88,36.33 22.3,36.67 24.93,33.13 C28.5,28.33 35.31,19.82 33.06,13.16 Z"/>
        </g>
        <g id="Group" fill="#31E085" opacity=".5" transform="translate(25)">
          <path id="Path" d="M28.79,20.54 C28.68,13.46 27.2,6.32 20.79,2.7 C14.91,-0.57 5.33,0.58 2.63,7.82 C2.56,8.03 2.5,8.22 2.45,8.42 C2.4,8.62 2.19,8.65 2.07,8.79 C-0.217552531,11.5367416 -0.405325182,15.4677212 1.61,18.42 C3.60356476,21.2293853 6.61289859,23.1519156 10,23.78 C13.27,24.5 16.9,23.56 20,24.7 C22.64,25.67 28.85,24.64 28.79,20.54 Z"/>
        </g>
        <path id="Shape" fill="#3D454C" d="M51.09,20.64 C50.5798173,17.2996894 48.6939069,14.3257538 45.89,12.44 L45.78,12.35 C45.9579816,12.1701112 46.1484563,12.0030281 46.35,11.85 C46.89,11.42 47.56,10.85 47.35,10.05 C47.14,9.25 46.17,9 45.8,8.93 C45.011818,8.77471375 44.2127314,8.68109691 43.41,8.65 C44.6133878,7.83385605 45.4018889,6.53428934 45.57,5.09 C45.6134226,4.64768218 45.459778,4.2086976 45.15,3.89 C44.6010701,3.47005949 43.8967036,3.30947852 43.22,3.45 C42.3103251,3.54046197 41.3917541,3.44520276 40.52,3.17 C37.6355103,2.20027972 34.4599423,2.68854194 32,4.48 C30.319249,5.55635018 29.2701438,7.38575061 29.19,9.38 C29.1995229,9.71686254 29.2430777,10.0518994 29.32,10.38 C28.4970469,10.6055821 27.6860136,10.872589 26.89,11.18 C24.6150483,12.1641881 22.176967,12.7169102 19.7,12.81 L19.63,12.81 C18.9567778,12.8161492 18.2917688,12.6618946 17.69,12.36 C19.0976059,11.6539313 20.1611022,10.4101814 20.64,8.91 C21.45,5.81 20.09,4.44 19.48,4 C18.1157311,3.13320015 16.3638603,3.1726567 15.04,4.1 C13.35,5.26 12.7,7.55 13.42,10 C13.5840355,10.5753255 13.822733,11.1266832 14.13,11.64 C13.4156361,11.8095733 12.6842075,11.8968079 11.95,11.9 L11.95,11.9 C10.4559015,11.8350845 9.10838875,10.9824211 8.41,9.66 C8.32,9.47 8.14,9.01 8.35,8.77 C8.82110474,8.49958289 9.38578423,8.44493649 9.9,8.62 C10.4384776,8.74426407 10.9757359,8.40847763 11.1,7.87 C11.2242641,7.33152237 10.8884776,6.79426407 10.35,6.67 C9.12772528,6.28699979 7.79397843,6.5842348 6.85,7.45 C6.16721119,8.30643876 6.06473441,9.48886319 6.59,10.45 C7.61436514,12.4851992 9.67248428,13.7945624 11.95,13.86 L11.95,13.86 C13.1638783,13.8536041 14.3701818,13.6682781 15.53,13.31 C16.6728698,14.2995449 18.1383541,14.836652 19.65,14.82 L19.73,14.82 C20.8270598,14.8242105 21.9220196,14.7237554 23,14.52 C21.7877364,15.787813 20.9411483,17.3600481 20.55,19.07 C20.3935015,19.0597337 20.2364985,19.0597337 20.08,19.07 C17.6235218,19.0790605 15.4206981,20.5845876 14.52,22.87 C13.4416957,20.0304734 10.4115271,18.4446489 7.46380625,19.1771743 C4.5160854,19.9096997 2.58073551,22.7294837 2.95705907,25.7434565 C3.33338263,28.7574293 5.90266012,31.0147672 8.94,31 C9.30547775,30.9969508 9.67006839,30.9635021 10.03,30.9 C8.51885464,32.6660852 8.16369075,35.1460739 9.11841315,37.2653007 C10.0731356,39.3845276 12.1659627,40.7616839 14.49,40.8 C14.8554987,40.7973724 15.2201245,40.7639205 15.58,40.7 C14.6141248,41.7812085 14.0801594,43.1801977 14.08,44.63 C14.0330352,47.3225989 15.7858414,49.7166379 18.3668677,50.4851417 C20.947894,51.2536454 23.7247734,50.2083259 25.1583286,47.928586 C26.5918839,45.6488461 26.3308853,42.6932358 24.52,40.7 C24.8765088,40.7639289 25.2378141,40.7973831 25.6,40.8 C27.925844,40.7654807 30.0221643,39.389754 30.9793841,37.269737 C31.9366039,35.1497201 31.5822212,32.6674639 30.07,30.9 C30.4265088,30.9639289 30.7878141,30.9973831 31.15,31 C31.7022847,31 32.15,30.5522847 32.15,30 C32.15,29.4477153 31.7022847,29 31.15,29 C29.4330913,28.9528769 27.937915,27.8149457 27.4350353,26.1726582 C26.9321555,24.5303707 27.5338398,22.7503663 28.93,21.75 C28.9905567,21.7044154 29.0444154,21.6505567 29.09,21.59 C29.7852303,22.5053046 30.5437553,23.3707582 31.36,24.18 L32.05,24.9 C32.4,25.29 32.8,25.73 33.46,25.57 C34.12,25.41 34.26,24.83 34.39,24.36 L34.39,24.36 L34.47,24.42 C35.0342301,24.7773078 35.5486958,25.2077105 36,25.7 L36.19,25.98 C36.4051574,26.4649532 36.854787,26.8050092 37.38,26.88 L37.44,26.88 C38.1,26.88 38.52,26.35 38.89,25.88 C39.3866331,25.103249 39.6535638,24.2019247 39.66,23.28 C39.6324458,22.8415569 39.5380216,22.4099034 39.38,22 L39.28,21.63 C40.5182619,22.3487206 41.9633363,22.6271618 43.38,22.42 C44.1461236,22.379191 44.9138764,22.379191 45.68,22.42 C46.5920857,22.4794736 47.4981568,22.6098676 48.39,22.81 L49.03,22.94 C49.69,23.1 50.32,23.24 50.84,22.74 C51.36,22.24 51.24,21.42 51.09,20.64 Z M15.34,9.42 C14.96,8.14 15.07,6.52 16.17,5.81 C16.5586789,5.55130067 17.0131866,5.40905017 17.48,5.4 C17.7889927,5.39042578 18.0932271,5.47784947 18.35,5.65 C18.95,6.08 19.09,7.1 18.74,8.43 C18.2749628,9.63295072 17.3066364,10.5720446 16.09,11 C15.7556498,10.5176766 15.5023154,9.98398553 15.34,9.42 L15.34,9.42 Z M20.05,21 C22.259139,21 24.05,22.790861 24.05,25 C24.05,27.209139 22.259139,29 20.05,29 C17.840861,29 16.05,27.209139 16.05,25 C16.05,22.790861 17.840861,21 20.05,21 Z M25.6,27.13 C25.8570551,27.7769592 26.2222614,28.3754918 26.68,28.9 C25.9661771,28.7666205 25.2338229,28.7666205 24.52,28.9 C24.9772059,28.3900304 25.3426086,27.8047093 25.6,27.17 L25.6,27.13 Z M20.05,37 C20.2993667,37.650768 20.6653576,38.2505866 21.13,38.77 C20.7734912,38.7060711 20.4121859,38.6726169 20.05,38.67 C19.6845222,38.6730492 19.3199316,38.7064979 18.96,38.77 C19.4235473,38.2479115 19.7924152,37.6489241 20.05,37 L20.05,37 Z M20.05,32.67 C19.8076701,32.0133483 19.4523117,31.4041623 19,30.87 C19.3599316,30.9335021 19.7245222,30.9669508 20.09,30.97 C20.4521859,30.9673831 20.8134912,30.9339289 21.17,30.87 C20.6910852,31.3861733 20.3114097,31.9861963 20.05,32.64 L20.05,32.67 Z M15.58,28.97 C15.2201245,28.9060795 14.8554987,28.8726276 14.49,28.87 C14.1278141,28.8726169 13.7665088,28.9060711 13.41,28.97 C13.8746424,28.4505866 14.2406333,27.850768 14.49,27.2 C14.7506585,27.8383204 15.1193896,28.4269369 15.58,28.94 L15.58,28.97 Z M5,25 C5,22.790861 6.790861,21 9,21 C11.209139,21 13,22.790861 13,25 C13,27.209139 11.209139,29 9,29 C7.93913404,29 6.92171839,28.5785726 6.17157288,27.8284271 C5.42142736,27.0782816 5,26.060866 5,25 Z M10.55,34.79 C10.55,32.580861 12.340861,30.79 14.55,30.79 C16.759139,30.79 18.55,32.580861 18.55,34.79 C18.55,36.999139 16.759139,38.7900501 14.55,38.7900501 C13.4874038,38.7953163 12.4663609,38.3776096 11.7121736,37.6290506 C10.9579864,36.8804916 10.5326432,35.8626062 10.53,34.8 L10.55,34.79 Z M20.07,48.56 C17.860861,48.56 16.07,46.769139 16.07,44.56 C16.07,42.350861 17.860861,40.56 20.07,40.56 C22.279139,40.56 24.0700126,42.350861 24.0700126,44.56 C24.0726785,45.6260723 23.6496827,46.6491074 22.8949152,47.4019973 C22.1401477,48.1548873 21.1160623,48.5753337 20.05,48.5700501 L20.07,48.56 Z M25.62,38.76 C23.410861,38.76 21.62,36.969139 21.62,34.76 C21.62,32.550861 23.410861,30.76 25.62,30.76 C27.829139,30.76 29.6200126,32.550861 29.6200126,34.76 C29.6226785,35.8260723 29.1996827,36.8491074 28.4449152,37.6019973 C27.6901477,38.3548873 26.6660623,38.7753337 25.6,38.7700501 L25.62,38.76 Z M27.83,20.06 C26.827787,20.7360272 26.0565613,21.7026767 25.62,22.83 C25.0481661,21.3712257 23.9283781,20.1940127 22.5,19.55 C22.8100843,18.0219662 23.581449,16.6258309 24.71,15.55 C25.630977,14.5257638 26.7502306,13.6990811 28,13.12 C27.5148247,14.9413323 27.4464637,16.8486063 27.8,18.7 C27.8811981,19.123905 28.012102,19.5367559 28.19,19.93 C28.0535226,19.9437389 27.9227695,19.9919111 27.81,20.07 L27.83,20.06 Z M48.72,20.77 C47.7642031,20.565164 46.7951207,20.4281558 45.82,20.36 C44.82,20.31 44.02,20.36 43.31,20.36 C41.7112745,20.6843426 40.0622109,20.1180749 39,18.88 C38.6226985,18.4029426 37.960134,18.2603654 37.42,18.54 C36.61,19 36.83,20.03 36.96,20.65 C37.15,21.57 37.31,22.11 37.41,22.5 C37.5058576,22.7494341 37.5599165,23.0129712 37.57,23.28 C37.5488682,23.6199841 37.4850333,23.9559572 37.38,24.28 C36.8712882,23.6965566 36.297566,23.1731609 35.67,22.72 C35.2716182,22.4158289 34.897184,22.0815126 34.55,21.72 L34.55,21.72 C34.1795229,21.3122528 33.5490414,21.2809523 33.14,21.65 C32.9143358,21.852798 32.7929445,22.1470801 32.81,22.45 C32.7927746,22.52189 32.7693537,22.5921527 32.74,22.66 C31.43,21.3 29.95,19.76 29.68,18.26 C29.54,17.52 29,13.92 30.68,12.15 C31.4230154,12.4313542 32.2167174,12.5539863 33.01,12.51 L33.5,12.51 C35.66,12.56 37.57,13.78 39.31,15.09 C39.7518278,15.4213708 40.3786292,15.3318278 40.71,14.89 C41.0413708,14.4481722 40.9518278,13.8213708 40.51,13.49 C38.51,11.98 36.27,10.57 33.51,10.49 L33,10.49 C31.33,10.49 31.23,10.49 31.2,9.24 C31.3139323,7.90092653 32.0559468,6.69515292 33.2,5.99 C35.1265478,4.60585623 37.6015766,4.23367145 39.85,4.99 C40.9621738,5.35021135 42.1354806,5.48284603 43.3,5.38 L43.48,5.38 C43.1004616,6.20373422 42.4887942,6.8988109 41.72,7.38 C41.43,7.61 41.17,7.82 40.96,8.01 C40.75,8.2 39.89,9.01 40.24,9.87 C40.59,10.73 41.48,10.64 42.08,10.61 L42.33,10.61 C43.0685465,10.5992898 43.8069553,10.6393844 44.54,10.73 C44.0085611,11.1398519 43.6921538,11.7689872 43.68,12.44 C43.7469006,13.1343057 44.1557621,13.7494734 44.77,14.08 C47.0713638,15.6467103 48.6264924,18.0915172 49.07,20.84 L48.72,20.77 Z"/>
        <path id="Path" fill="#3D454C" d="M34.84,27.72 C34.2877153,27.72 33.84,28.1677153 33.84,28.72 C33.84,29.2722847 34.2877153,29.72 34.84,29.72 C35.3922847,29.72 35.84,29.2722847 35.84,28.72 C35.84,28.1677153 35.3922847,27.72 34.84,27.72 Z"/>
        <circle id="Oval" cx="42.97" cy="16.99" r="1" fill="#3D454C"/>
      </g>
    </g>
  </g>
</svg>
