<svg xmlns="http://www.w3.org/2000/svg" width="64" height="64" viewBox="0 0 64 64" style="background:#fff">
  <g id="Truthuhn" fill="none" fill-rule="evenodd" stroke="none" stroke-width="1">
    <rect width="64" height="64" fill="#FFF"/>
    <g transform="translate(2 9)">
      <g id="Layer_2">
        <rect id="Rectangle" width="60" height="60" x="0" y="0"/>
        <rect id="Rectangle" width="60" height="60" x="0" y="0"/>
      </g>
      <g id="Layer_1" fill-rule="nonzero" transform="translate(6 6)">
        <path id="Path" fill="#E05362" d="M43.38,11.7 C42.6041912,10.6506174 41.7660134,9.6488113 40.87,8.7 C41.2878643,8.31155233 41.6663659,7.88280713 42,7.42 C43,6.18 42.73,3.81 41.89,2.59 C40.53,0.59 38.52,0.14 36.52,1.59 C34.52,3.04 33.66,6.14 33.73,8.59 C33.8555963,11.4138169 34.9102011,14.1171204 36.73,16.28 C37.53,17.28 38.55,18.11 39.31,19.15 C39.8954661,20.1429127 40.3811693,21.1913616 40.76,22.28 C42.01,24.91 44.86,25.14 45.9,22.15 C47.19,18.42 45.93,14.68 43.38,11.7 Z" opacity=".5"/>
        <path id="Path" fill="#4D4D4D" d="M36.3,19.41 C32.36,18.59 29.53,21.52 26.54,23.71 C25.54,24.45 24.78,25.03 23.44,24.84 C21.58,24.57 20.63,23.72 18.54,24.65 C14.54,26.45 14.7,32.45 15.85,35.82 C17.94,42 24.68,42.71 29.46,39.29 C33.8,36.17 37.76,31.17 38.92,25.96 C39.33,24.11 38.64,19.9 36.3,19.41 Z" opacity=".5"/>
        <path id="Path" fill="#4D4D4D" d="M22.72,12.53 C21.01,8.81 16.86,3.83 12.72,2.76 C8.07,1.57 5.25,6.47 3.72,10.07 C0.28,17.66 -0.56,32.13 7.1,37.65 C11.86,41.09 14.29,33.38 13.45,29.83 C12.84,27.31 11.45,24.75 11.36,22.14 C11.3720063,20.6279951 11.7132512,19.1367548 12.36,17.77 C14.77,19.04 16.64,21.27 19.75,21.09 C23.46,20.87 23.9,15.07 22.72,12.53 Z" opacity=".5"/>
        <path id="Shape" fill="#3D454C" d="M47.26,23.09 L40.84,10.27 L46.23,10.27 C46.7822847,10.27 47.23,9.82228475 47.23,9.27 C47.23,8.71771525 46.7822847,8.27 46.23,8.27 L42.88,8.27 C43.1082175,7.80276559 43.2278658,7.28998718 43.23,6.77 C43.23,4.28471863 41.2152814,2.27 38.73,2.27 C36.2447186,2.27 34.23,4.28471863 34.23,6.77 C34.2193955,8.586213 34.6410013,10.3788944 35.46,12 L36.4,13.9 C32.1879716,11.2101495 26.9815407,10.5809624 22.25,12.19 L11.91,2.53 C11.719163,2.34285882 11.4563736,2.24796265 11.19,2.27 C10.9233183,2.27900289 10.6712949,2.39421358 10.49,2.59 L5.58,8 C3.54662596,10.2379835 2.03378097,12.8982685 1.15,15.79 L1.15,15.79 C0.553267038,17.7343689 0.246632888,19.7561326 0.24,21.79 C0.250555761,26.5003076 2.13606921,31.012586 5.48,34.33 C5.52821855,34.388214 5.58178604,34.4417815 5.64,34.49 C5.8,34.64 5.94,34.8 6.1,34.95 L10.57,38.95 C10.7533983,39.1166976 10.9921642,39.209353 11.24,39.21 C11.4609494,39.2093122 11.6754502,39.1354677 11.85,39 L17.45,34.64 C17.9790305,35.6871964 18.5909822,36.6903959 19.28,37.64 C19.28,37.64 19.28,37.64 19.28,37.71 L19.34,37.71 C19.46,37.89 19.58,38.07 19.72,38.25 L22.42,41.72 C22.6087926,41.965247 22.9005034,42.1092561 23.21,42.11 C23.4209096,42.1050977 23.6258644,42.0390953 23.8,41.92 L26.74,40 L29.28,47.63 C29.4140978,48.041264 29.7974261,48.32 30.23,48.32 L33.23,48.32 C33.7822847,48.32 34.23,47.8722847 34.23,47.32 C34.23,46.7677153 33.7822847,46.32 33.23,46.32 L31,46.32 L28.48,38.76 C29.12,38.3 29.73,37.76 30.33,37.32 L37.26,37.32 C40.7527816,37.3372802 44.0641192,35.7662345 46.26,33.05 C48.5234582,30.2157254 48.9148285,26.3176768 47.26,23.09 Z M44.62,31.74 C42.8110504,33.9768653 40.0867765,35.2746638 37.21,35.27 L32.5,35.27 C35.0869492,32.7557658 37.3085777,29.8912115 39.1,26.76 C39.3761424,26.2795123 39.2104877,25.6661424 38.73,25.39 C38.2495123,25.1138577 37.6361424,25.2795123 37.36,25.76 C34.8018866,30.2601907 31.3103795,34.1608588 27.12,37.2 L26.97,37.31 L26.91,37.31 C26.7091228,37.3841832 26.5373636,37.5208895 26.42,37.7 L23.42,39.88 L21.54,37.46 L27.8,33.08 C28.1140985,32.8850571 28.2950264,32.5327322 28.2704546,32.1638734 C28.2458828,31.7950146 28.0198201,31.4698017 27.6826393,31.3182443 C27.3454584,31.1666869 26.9521707,31.2135118 26.66,31.44 L20.37,35.84 C18.3305352,32.6873599 17.2405664,29.0147896 17.23,25.26 C17.23,24.7077153 16.7822847,24.26 16.23,24.26 C15.6777153,24.26 15.23,24.7077153 15.23,25.26 C15.2383817,27.833013 15.7092014,30.3835686 16.62,32.79 L11.28,37 L8,34 L10,33 C10.4942949,32.7514719 10.6935281,32.1492949 10.445,31.655 C10.1964719,31.1607051 9.59429485,30.9614719 9.1,31.21 L6.43,32.55 C3.71679448,29.6471137 2.20519164,25.8234375 2.2,21.85 C2.20619244,20.3152989 2.40098606,18.7871766 2.78,17.3 L10,19.23 C10.0860057,19.2451368 10.1739943,19.2451368 10.26,19.23 C10.8122847,19.301797 11.318203,18.9122847 11.39,18.36 C11.461797,17.8077153 11.0722847,17.301797 10.52,17.23 L3.4,15.37 C4.12778267,13.4180694 5.17915768,11.6026726 6.51,10 L9.16,11.76 C9.32270674,11.8693525 9.51396656,11.9284692 9.71,11.93 C10.1547253,11.9333163 10.5481997,11.6425288 10.6755691,11.2164201 C10.8029385,10.7903115 10.633592,10.3312894 10.26,10.09 L7.84,8.48 L11.29,4.69 L20.19,13 L16.84,14.39 C16.3291366,14.6026296 16.0873704,15.1891366 16.3,15.7 C16.5126297,16.2108634 17.0991366,16.4526296 17.61,16.24 L22,14.38 C26.4627509,12.5224848 31.5585172,13.0178023 35.58,15.7 L38.42,17.6 C38.5855373,17.7112428 38.7805573,17.7704453 38.98,17.77 C39.2230724,17.7696502 39.4576958,17.6807777 39.64,17.52 C39.9805329,17.2187883 40.0750267,16.7257773 39.87,16.32 L37.24,11.06 C36.5796916,9.72646792 36.2374043,8.25805518 36.24,6.77 C36.24,5.38928813 37.3592881,4.27 38.74,4.27 C40.1207119,4.27 41.24,5.38928813 41.24,6.77 C41.24,7.59842712 40.5684271,8.27 39.74,8.27 C39.2978803,8.2600069 38.8833859,8.48436624 38.65,8.86 C38.4120361,9.22597735 38.3672603,9.68492961 38.53,10.09 C38.53,10.09 38.53,10.09 38.53,10.09 C38.53,10.09 38.53,10.09 38.53,10.09 L45.47,24 C46.7213724,26.5248086 46.3894847,29.5469393 44.62,31.74 L44.62,31.74 Z"/>
        <path id="Path" fill="#3D454C" d="M24.86 26.34L19.86 28.34C19.4130346 28.5166478 19.1549476 28.9862733 19.2454368 29.4582841 19.3359259 29.930295 19.749395 30.2711766 20.23 30.270003 20.3562306 30.2661185 20.4810754 30.2424992 20.6 30.2L25.6 28.2C25.8468077 28.1020649 26.0445322 27.9099921 26.1495816 27.6661274 26.2546309 27.4222628 26.2583792 27.146631 26.16 26.9 26.0620649 26.6531923 25.8699921 26.4554678 25.6261274 26.3504184 25.3822628 26.2453691 25.106631 26.2416208 24.86 26.34zM13.91 18.28C13.3577153 18.28 12.91 18.7277153 12.91 19.28 12.91 19.8322847 13.3577153 20.28 13.91 20.28 14.4622847 20.28 14.91 19.8322847 14.91 19.28 14.91 18.7277153 14.4622847 18.28 13.91 18.28zM28.81 25C28.2577153 25 27.81 25.4477153 27.81 26 27.81 26.5522847 28.2577153 27 28.81 27 29.3622847 27 29.81 26.5522847 29.81 26 29.81 25.4477153 29.3622847 25 28.81 25z"/>
      </g>
    </g>
  </g>
</svg>
