<svg xmlns="http://www.w3.org/2000/svg" width="64" height="64" viewBox="0 0 64 64" style="background:#fff">
  <g id="Trüffel" fill="none" fill-rule="evenodd" stroke="none" stroke-width="1">
    <rect width="64" height="64" fill="#FFF"/>
    <g transform="translate(2 12)">
      <g id="Layer_2">
        <rect id="Rectangle" width="60" height="60" x="0" y="0"/>
        <rect id="Rectangle" width="60" height="60" x="0" y="0"/>
      </g>
      <g id="Layer_1" fill-rule="nonzero" transform="translate(5 12)">
        <path id="Path" fill="#483318" d="M25.5 17.38C23.11 17.13 20.8 18.04 18.5 18.48 15.95 18.96 13.1 18.75 10.62 19.33 9.62 19.56 7.68 21.23 9.43 19.18 10.1996149 18.3916502 11.0786136 17.718088 12.04 17.18 14.1398189 15.9564677 16.0555513 14.4413894 17.73 12.68 18.83 11.44 19.17 7.13 16.62 7.24 7.88 7.6-.11 14.35 2.83 23.77 4.19 28.25 7.68 30 12.24 30 17.24 30 23.3 29.59 27.33 26.44 30 24.33 29.16 17.77 25.5 17.38zM48.72 24.23C47.17 21.82 44.15 20.33 42.07 22.16 35.82 21.73 28.92 27.06 32.15 33.83 33.63 36.93 37.33 37.52 40.41 38.02 43.33 38.49 46.31 38.15 48.27 35.69 50.7162353 32.3099101 50.8936598 27.7914994 48.72 24.23zM33.38 4.61C30.38 1.87 24.86-.88 21.14 1.91 19.52 3.12 20.04 6.19 21.28 7.42 23.73 9.88 27.5 10.34 30 13 32.19 15.29 32.44 18.75 34.72 20.78 37 22.81 38.62 19.72 39.05 17.95 40.19 13.26 36.73 7.62 33.38 4.61z" opacity=".5"/>
        <path id="Shape" fill="#3D454C" d="M29.34,15.25 C27.8673131,13.304361 26.1032242,11.5976133 24.11,10.19 C22.6457059,8.93701061 20.9917916,7.92441002 19.21,7.19 C17.503025,6.79302781 15.7396888,6.69826118 14,6.91 L13.86,6.91 C7.72214843,8.48107878 2.89316845,13.2146998 1.2,19.32 C0.31,22.61 0.9,25.52 2.79,27.1 C3.85557794,27.8926799 5.09794071,28.4143349 6.41,28.62 C9.91885337,29.4067167 13.5040343,29.8024617 17.1,29.8 L18.5,29.8 C20.9970627,29.8128803 23.4728732,29.3408122 25.79,28.41 C28.297202,27.3873216 30.2107176,25.2901673 31,22.7 C31.5501531,20.0934596 30.944739,17.37639 29.34,15.25 Z M29.04,22.25 C28.393017,24.215677 26.9161843,25.7985201 25,26.58 C22.9237819,27.3956599 20.710631,27.8063827 18.48,27.79 C14.578582,27.8980089 10.6788261,27.5218051 6.87,26.67 C5.87190226,26.5241744 4.9226039,26.1437697 4.1,25.56 C2.6,24.31 2.63,21.79 3.16,19.84 C4.69171875,14.5043317 8.8953038,10.3538126 14.25,8.89 C15.6862289,8.7296862 17.1390667,8.80739613 18.55,9.12 C20.1228746,9.77177346 21.5839235,10.6659488 22.88,11.77 C24.71254,13.0520673 26.3351574,14.6105896 27.69,16.39 C28.9387136,18.0496251 29.4156957,20.165095 29,22.2 L29.04,22.25 Z"/>
        <path id="Path" fill="#3D454C" d="M20.5,5.42 C22.16,4.31 24.07,3.17 25.76,3.68 C26.4943169,3.97266791 27.1713308,4.39241654 27.76,4.92 L32.45,8.59 C33.1993989,9.11462016 33.8724692,9.74057552 34.45,10.45 C35.1886553,11.67029 35.6590804,13.0338412 35.83,14.45 C36.1109346,15.4596207 36.1554191,16.5204032 35.96,17.55 C35.76,18.25 35.09,18.96 34.44,18.85 C33.8877153,18.7643959 33.3706041,19.1427153 33.285,19.695 C33.1993959,20.2472847 33.5777153,20.7643959 34.13,20.85 C34.2762913,20.8648391 34.4237087,20.8648391 34.57,20.85 C36.1437861,20.7335908 37.4717002,19.6343507 37.88,18.11 C38.1784304,16.7726329 38.147545,15.3827899 37.79,14.06 C37.5845596,12.3386382 36.996895,10.6849771 36.07,9.22 C35.3925044,8.37543393 34.6017138,7.62838915 33.72,7 L29,3.35 C28.2080839,2.6599962 27.2963349,2.12108142 26.31,1.76 C23.78,1 21.39,2.4 19.31,3.76 C19.0134696,3.96006873 18.8461995,4.30313697 18.8711989,4.65997423 C18.8961983,5.01681149 19.1096691,5.3332057 19.4311989,5.48997423 C19.7527287,5.64674275 20.1334696,5.62006873 20.43,5.42 L20.5,5.42 Z"/>
        <path id="Shape" fill="#3D454C" d="M50.7,30.41 L50.7,30.41 C50.3960966,29.3525485 49.8558217,28.378002 49.12,27.56 C48.6068708,26.990485 48.2064566,26.3287836 47.94,25.61 C47.88,25.4 47.84,25.18 47.8,24.96 C47.8446713,24.0561781 47.4418315,23.1882281 46.7227137,22.6389021 C46.0035959,22.089576 45.0602538,21.9291926 44.2,22.21 L39.66,22.93 L38.43,22.8 C37.1805977,22.6746283 35.9406375,23.1148509 35.05,24 L30.94,28.07 C30.0708093,28.7654029 29.5191299,29.7822237 29.41,30.89 C29.41,32.76 31.32,33.81 31.95,34.16 C35.0842906,36.025446 38.635371,37.0773633 42.28,37.2200637 C43.3653148,37.2233776 44.4468734,37.0923814 45.5,36.83 C46.9286613,36.5314966 48.2450935,35.8386376 49.3,34.83 C50.4735738,33.6817185 50.9984718,32.0245403 50.7,30.41 L50.7,30.41 Z M47.87,33.41 C47.0698865,34.1610624 46.0758597,34.6736616 45,34.89 C41.58,35.76 37.51,34.89 32.9,32.4 C31.9,31.85 31.4,31.4 31.4,30.89 C31.4,30.38 31.86,29.96 32.34,29.49 L36.45,25.42 C36.8577224,25.0029566 37.4167672,24.7685185 38,24.77 L38.22,24.77 L39.58,24.9 C39.6660057,24.9151368 39.7539943,24.9151368 39.84,24.9 L44.51,24.16 C44.8087058,24.0850683 45.1212942,24.0850683 45.42,24.16 C45.63,24.28 45.73,24.8 45.82,25.31 C45.8635405,25.5866884 45.9236486,25.860514 46,26.13 C46.3265795,27.1072455 46.8469608,28.0085595 47.53,28.78 C48.0664758,29.3564408 48.4783787,30.0372722 48.74,30.78 C48.8929256,31.7428156 48.5684736,32.719901 47.87,33.4 L47.87,33.41 Z"/>
        <path id="Path" fill="#3D454C" d="M6.88 23.18L6.61 23.18C6.05771525 23.18 5.61 23.6277153 5.61 24.18 5.61 24.7322847 6.05771525 25.18 6.61 25.18L6.88 25.18C7.43228475 25.18 7.88 24.7322847 7.88 24.18 7.88 23.6277153 7.43228475 23.18 6.88 23.18zM10.93 23.2C10.3777153 23.2 9.93 23.6477153 9.93 24.2 9.93 24.7522847 10.3777153 25.2 10.93 25.2 11.4822847 25.2 11.93 24.7522847 11.93 24.2 11.93 23.6477153 11.4822847 23.2 10.93 23.2zM9.81 19.18L9.54 19.18C8.98771525 19.18 8.54 19.6277153 8.54 20.18 8.54 20.7322847 8.98771525 21.18 9.54 21.18L9.81 21.18C10.3622847 21.18 10.81 20.7322847 10.81 20.18 10.81 19.6277153 10.3622847 19.18 9.81 19.18zM15.61 23.75C15.0577153 23.75 14.61 24.1977153 14.61 24.75 14.61 25.3022847 15.0577153 25.75 15.61 25.75 16.1622847 25.75 16.61 25.3022847 16.61 24.75 16.61 24.1977153 16.1622847 23.75 15.61 23.75zM37.11 30.37L36.84 30.37C36.2877153 30.37 35.84 30.8177153 35.84 31.37 35.84 31.9222847 36.2877153 32.37 36.84 32.37L37.11 32.37C37.6622847 32.37 38.11 31.9222847 38.11 31.37 38.11 30.8177153 37.6622847 30.37 37.11 30.37zM39.7 32.2L39.7 32.47C39.7 33.0222847 40.1477153 33.47 40.7 33.47 41.2522847 33.47 41.7 33.0222847 41.7 32.47L41.7 32.2C41.7 31.6477153 41.2522847 31.2 40.7 31.2 40.1477153 31.2 39.7 31.6477153 39.7 32.2z"/>
      </g>
    </g>
  </g>
</svg>
