<svg xmlns="http://www.w3.org/2000/svg" width="64" height="64" viewBox="0 0 64 64" style="background:#fff">
  <g id="Vanilleschoten" fill="none" fill-rule="evenodd" stroke="none" stroke-width="1">
    <rect width="64" height="64" fill="#FFF"/>
    <g transform="translate(2 7)">
      <g id="Layer_2">
        <rect id="Rectangle" width="60" height="60" x="0" y="0"/>
        <rect id="Rectangle" width="60" height="60" x="0" y="0"/>
      </g>
      <g id="Layer_1" fill-rule="nonzero" transform="translate(6 5)">
        <path id="Path" fill="#C17953" d="M45.16 1.18C37.28-1.26 36.04 9.59 29.81 11.18 26.53 12.03 27.55 20.32 31.45 19.12 37.88 17.12 38.84 8.97 45.31 7.12 47.4 6.5 47.12 1.79 45.16 1.18zM11.92 34.92C10.29 36.05 9.05 37.65 7.37 38.76 5.69 39.87 3.37 40.33 1.71 41.76.05 43.19-.29 49.02 2.59 49.76 5.47 50.5 8.41 48.55 10.59 46.66 13.0169244 44.6084259 14.6626586 41.7831312 15.25 38.66 15.6 36.7 14.27 33.29 11.92 34.92z" opacity=".5"/>
        <path id="Path" fill="#EBE53F" d="M31,28.62 C30.7628495,26.1794949 29.1521759,24.0890126 26.8528157,23.2373977 C24.5534555,22.3857828 21.9696506,22.9227546 20.2,24.62 C18.429353,26.3924278 17.5263041,28.8529619 17.73,31.35 C17.85,33.35 18.8,36.7 21.32,36.46 C22.41,36.35 22.64,34.86 22.46,34.01 C22.07,32.08 20.98,30.56 23.23,29.45 C24.1718085,28.9675419 25.2881915,28.9675419 26.23,29.45 C27.23,29.93 27.69,30.97 28.74,31.38 C30.24,32 31.1,29.77 31,28.62 Z" opacity=".5"/>
        <path id="Shape" fill="#3D454C" d="M42.92,9.86 C41.77,10.46 40.46,12.17 39.09,13.99 C38.4238526,14.9417237 37.6778207,15.8349548 36.86,16.66 C36.6198633,16.7261019 36.4130373,16.8794384 36.28,17.09 L36.13,17 L35.13,16.71 C36.394707,15.0999905 37.4498154,13.3358762 38.27,11.46 C40.19,7.53 41.41,5.35 44.27,6.38 C44.7628748,6.51643211 45.2792635,6.25900671 45.4669772,5.78329372 C45.654691,5.30758073 45.4532321,4.76689657 45,4.53 C40.28,2.87 38.27,6.99 36.5,10.62 C35.39,12.88 34.25,15.21 32.5,16.52 C31.3327286,16.6929455 30.2072906,17.0793911 29.18,17.66 C29.62,17.15 30.04,16.66 30.18,16.49 C31.63,15.34 36.05,9.08 35.75,6.91 C35.49,4.97 34.75,3.86 33.68,3.63 C32.83,3.45 31.47,3.76 29.88,6.32 C29.5872891,6.78944204 29.730558,7.40728908 30.2,7.7 C30.669442,7.99271092 31.2872891,7.84944204 31.58,7.38 C32.5,5.89 33.15,5.58 33.24,5.57 C33.33,5.56 33.59,5.82 33.77,7.17 C33.86,8.37 30.09,14.17 28.96,14.91 C28.2240646,15.615945 27.5295718,16.3638603 26.88,17.15 C26.0613607,15.6104036 24.9427008,14.2503308 23.59,13.15 C22.2244492,12.1299394 21.0754815,10.8483985 20.21,9.38 C19.95,8.94 19.63,8.38 18.92,8.44 C18.21,8.5 17.92,9.07 17.66,9.79 C17.52,10.13 17.32,10.61 17.03,11.24 C16.6055513,12.1027323 16.0999372,12.9230994 15.52,13.69 C14,15.84 13.12,17.4 14.33,22.27 L14.33,22.38 C12.0508574,22.4304593 9.83233252,23.1237483 7.93,24.38 C6.52955629,25.3380517 4.95753352,26.0171112 3.3,26.38 C2.8,26.49 2.18,26.63 2.01,27.31 C1.84,27.99 2.38,28.51 3,29 C3.29,29.25 3.68,29.58 4.18,30.06 C4.85466009,30.7343226 5.46403949,31.470935 6,32.26 C6.91457266,33.7516513 8.33384416,34.8657795 10,35.4 C7.76,36.87 3.38,39.72 2.87,40 C2.45300369,40.2018161 2.22921671,40.663618 2.32920905,41.1159643 C2.4292014,41.5683106 2.82679034,41.8927557 3.29,41.9 C3.38287146,41.9131313 3.47712854,41.9131313 3.57,41.9 C4.09,41.75 12.5,36.17 12.57,36.12 C12.6177797,36.0729708 12.6582303,36.0190367 12.69,35.96 C13.05,35.96 13.42,36.04 13.82,36.07 L13.95,36.07 C13.858265,36.3219227 13.7814651,36.5790356 13.72,36.84 C12.9051375,37.2437407 12.180553,37.8084404 11.59,38.5 C11.236099,38.8657437 10.8513428,39.2003144 10.44,39.5 C7.90581842,41.1034446 5.28885216,42.5721502 2.6,43.9 C2.35920003,44.0145232 2.17411049,44.2204738 2.08585654,44.4720915 C1.99760259,44.7237091 2.01349406,45.000153 2.13,45.24 C2.29825342,45.583391 2.6476049,45.8007653 3.03,45.8 C3.17789792,45.7989472 3.32409411,45.768348 3.46,45.71 C6.23302878,44.3394225 8.93026475,42.8205581 11.54,41.16 C12.069504,40.7773131 12.5586905,40.3417361 13,39.86 L13.41,39.43 C13.41,39.79 13.41,40.13 13.47,40.43 C13.07,40.87 12.7,41.32 12.33,41.8 C11.4878329,42.9182806 10.5401432,43.9530372 9.5,44.89 L9.24,45.12 C8.7,45.6 7.57,46.61 6.62,47.36 C6.27977593,47.6239129 6.14668613,48.075977 6.28963698,48.4821389 C6.43258782,48.8883009 6.81947896,49.1573549 7.25,49.15 C7.47464194,49.1435959 7.69156489,49.0666233 7.87,48.93 C8.87,48.14 10.02,47.1 10.58,46.61 L10.82,46.39 C11.9508389,45.3737961 12.9821755,44.2520501 13.9,43.04 L13.9,42.99 C14.3463011,44.5277272 14.4989625,46.1357604 14.35,47.73 C14.1829995,48.2892482 14.3778171,48.8935806 14.84,49.25 C15.007015,49.358095 15.2010789,49.4170073 15.4,49.42 C15.8594171,49.3956872 16.304333,49.2508309 16.69,49 C17.01,48.8 17.45,48.53 18.06,48.2 C18.9071776,47.7443048 19.7984091,47.3757504 20.72,47.1 C23.21,46.26 24.84,45.51 26.72,40.86 C26.7271147,40.8203164 26.7271147,40.7796836 26.72,40.74 C28.593358,42.04363 30.7996307,42.7859922 33.08,42.88 C34.8003892,42.8989879 36.4998972,43.2592836 38.08,43.94 C38.3631049,44.0845333 38.6727893,44.1696115 38.99,44.19 C39.2399473,44.1945925 39.4825501,44.1054003 39.67,43.94 C40.22,43.48 40.08,42.87 39.9,42.11 C39.81,41.75 39.69,41.25 39.56,40.57 C39.39405,39.6225929 39.3170481,38.6617442 39.33,37.7 C39.33,35.07 39.1,33.29 35.26,30.06 L35.16,29.99 C36.9788928,28.6103952 38.3665145,26.740575 39.16,24.6 C39.7114176,22.9876387 40.5744502,21.4994171 41.7,20.22 C42.1646413,19.8653139 42.3600084,19.2592771 42.19,18.7 C41.92,18.03 41.31,17.99 40.53,17.92 C40.15,17.92 39.64,17.85 38.95,17.77 L38.69,17.77 C39.3989474,16.98182 40.0665119,16.1573778 40.69,15.3 C41.69,13.96 43.1,12.12 43.85,11.73 C44.85,11.21 45.72,11.28 45.95,11.53 C46.18,11.78 46.06,12.32 45.51,13.21 C45.27,13.62 45.03,13.98 44.86,14.21 L44.56,14.69 C44.3212325,15.1561806 44.4826297,15.727614 44.93,16 C45.4105947,16.269731 46.0188284,16.0997834 46.29,15.62 C46.29,15.55 46.41,15.42 46.53,15.25 L47.21,14.17 C48.59,11.91 47.93,10.63 47.4,10.08 C46.45,9 44.64,9 42.92,9.86 Z M27.14,34.12 C26.77,34.95 26.24,35.45 25.73,35.47 L25.73,35.47 C24.92,35.47 23.85,34.38 22.84,32.54 C22.650935,32.0953643 22.5987112,31.6044605 22.69,31.13 C22.9766645,31.5831912 23.4645953,31.8699902 24,31.9 C24.7549684,31.8574186 25.467434,31.5368091 26,31 C26.2885655,30.7498537 26.4469499,30.381518 26.43,30 C26.674079,30.2336422 26.9013135,30.4842686 27.11,30.75 L27.26,30.96 C27.708018,31.975751 27.6637623,33.141152 27.14,34.12 L27.14,34.12 Z M28.65,29.53 C28.227388,28.9592836 27.7333622,28.4450935 27.18,28 C26.07,27.14 25.48,26.89 24.9,27 C24.5625309,27.077866 24.2769009,27.3012434 24.12,27.61 C23.9186039,28.1977483 23.9581538,28.8413336 24.23,29.4 C24.23,29.48 24.29,29.59 24.32,29.69 L24.19,29.78 C24.14,29.69 24.1,29.59 24.06,29.52 C23.8434535,28.9998338 23.4995751,28.5424755 23.06,28.19 C22.8302205,28.0213266 22.5393804,27.9587273 22.2605537,28.0179302 C21.9817269,28.0771332 21.7414163,28.252511 21.6,28.5 C20.22,31 20.46,32 21.1,33.73 C21.22,34.06 21.35,34.41 21.48,34.82 C21.2548686,34.815147 21.0346554,34.753212 20.84,34.64 C20.3,34.34 19.38,33.37 19.32,30.25 C19.1322755,28.3212221 20.0495961,26.4517459 21.69,25.42 C22.2059707,25.1531545 22.7791254,25.015872 23.36,25.0199096 C24.5674148,25.0693885 25.7273284,25.5039181 26.67,26.26 C27.8542223,27.0778007 28.6413501,28.3546163 28.84,29.78 L28.65,29.53 Z M17.18,14.88 C17.8283371,14.011291 18.3941272,13.0839309 18.87,12.11 L19.17,11.44 C20.0725852,12.6818468 21.1465955,13.7895251 22.36,14.73 C24.02,16.06 26.91,19.56 25.31,21.91 C25.2317712,22.0309721 25.1806038,22.1674185 25.16,22.31 C25,22.63 24.85,22.93 24.74,23.19 C22.7044516,22.66434 20.5463561,23.3295593 19.16,24.91 C18.0921395,23.9529237 17.1269264,22.8871676 16.28,21.73 C15.26,17.57 16,16.55 17.18,14.88 Z M7.63,31.07 C7.00798644,30.1836081 6.30133425,29.3597388 5.52,28.61 C5.33,28.42 5.15,28.26 4.98,28.11 C6.44066233,27.6406728 7.82769994,26.9673535 9.1,26.11 C10.87,24.95 15.1,23.28 16.84,25.53 C16.9293107,25.6426771 17.0418689,25.7347701 17.17,25.8 C17.4523227,26.0885031 17.7493867,26.3622025 18.06,26.62 C17.5364189,27.7778779 17.2833558,29.0397734 17.32,30.31 C17.3275243,31.0309423 17.3944171,31.7500399 17.52,32.46 C16.354144,33.0862936 15.1321282,33.6018838 13.87,34 C9.6,33.72 8.86,32.72 7.63,31.07 Z M24.84,40.13 C23.22,44.13 22.03,44.5 20.08,45.13 C19.04191,45.4486156 18.0371987,45.8672452 17.08,46.38 L16.44,46.74 C16.434438,45.2038813 16.215684,43.675969 15.79,42.2 C15.24,40.2 14.95,35.62 17.63,34.66 C17.7631826,34.610812 17.885473,34.536079 17.99,34.44 L18.1,34.37 C18.4848591,35.2999786 19.1960669,36.0574148 20.1,36.5 C20.533359,36.6972181 21.0038752,36.7995042 21.48,36.8 C22.0619518,36.8166737 22.633705,36.644797 23.11,36.31 C23.5340712,36.7209791 24.0377279,37.0408691 24.59,37.25 C24.7484886,38.201989 24.8320782,39.1649409 24.84,40.13 Z M37.32,37.66 C37.305497,38.742859 37.3959193,39.8245768 37.59,40.89 C37.59,41.16 37.69,41.4 37.73,41.61 C36.2698631,41.1431285 34.7521242,40.8806371 33.22,40.83 C31.22,40.73 27.28,39.74 26.69,37.29 C27.7479556,36.8488134 28.5815662,35.9971592 29,34.93 C29.2897089,34.2628884 29.4719653,33.5541135 29.54,32.83 C29.9719918,32.7494852 30.341748,32.472168 30.54,32.08 C30.7384044,31.6900201 30.8605885,31.2657698 30.9,30.83 C31.9856286,30.9955348 33.0558738,31.2497181 34.1,31.59 C37.29,34.36 37.3,35.61 37.32,37.66 L37.32,37.66 Z M39.41,19.78 C38.5139782,21.0288677 37.7939033,22.394991 37.27,23.84 C36.52,25.84 34.09,29.66 31.35,28.84 C31.2148002,28.8116826 31.0751998,28.8116826 30.94,28.84 L30.68,28.84 C30.2628287,27.1709844 29.2626213,25.7061417 27.86,24.71 C27.4655344,24.4189252 27.0474097,24.1613604 26.61,23.94 C27.1937751,22.6465223 27.9038893,21.4138713 28.73,20.26 C32.38,18.01 33.57,18.38 35.53,19 C36.554112,19.3483854 37.6087735,19.5994953 38.68,19.75 L39.41,19.78 Z"/>
        <path id="Path" fill="#3D454C" d="M48.81,5.38 C48.2577153,5.38 47.81,5.82771525 47.81,6.38 C47.81,6.93228475 48.2577153,7.38 48.81,7.38 C49.3622847,7.38 49.81,6.93228475 49.81,6.38 C49.81,5.82771525 49.3622847,5.38 48.81,5.38 Z"/>
      </g>
    </g>
  </g>
</svg>
