<svg xmlns="http://www.w3.org/2000/svg" width="64" height="64" viewBox="0 0 64 64" style="background:#fff">
  <g id="Vermouth" fill="none" fill-rule="evenodd" stroke="none" stroke-width="1">
    <rect width="64" height="64" fill="#FFF"/>
    <g transform="translate(2 3)">
      <g id="Layer_2">
        <rect id="Rectangle" width="60" height="60" x="0" y="0"/>
        <rect id="Rectangle" width="60" height="60" x="0" y="0"/>
      </g>
      <g id="Layer_1" fill-rule="nonzero" transform="translate(19 3)">
        <path id="Shape" fill="#31E085" d="M15.52,13.47 C14.17,11 12,9.63 9.59,12 C9.21673095,12.3723611 8.90906651,12.8051199 8.68,13.28 C3.43,16.64 1.68,27.49 1.25,31.92 C0.57,39.74 -0.21,51.26 8.59,55.54 C17.21,59.74 23.33,50.54 23.96,43.54 C24.85,33.36 20.42,22.26 15.52,13.47 Z M16.52,43.84 C15.9451201,45.1997277 14.7437392,46.1940406 13.3005104,46.5045836 C11.8572816,46.8151267 10.3532611,46.4029415 9.27,45.4 C6.59,43.14 6.83,37 7.51,32.4 C8.83611403,32.7819361 10.2017519,33.0101016 11.58,33.08 C12.78,33.2 13.98,33.35 15.19,33.42 C15.38,34.07 15.57,34.71 15.73,35.42 C16.34,37.77 17.55,41.41 16.51,43.84 L16.52,43.84 Z" opacity=".5"/>
        <path id="Shape" fill="#3D454C" d="M18.42,20.44 C17.99,19.64 17.55,18.82 17.11,17.85 C15.3,13.92 15.48,7.59 15.49,7.52 C15.5,7.45 15.49,7.52 15.49,7.52 C15.7772921,7.26317009 15.9530828,6.9044136 15.98,6.52 C16.1708672,5.12023852 16.1775911,3.70150773 16,2.3 C16,2.3 16,2.3 16,2.3 C16,0.74 13.76,0.19 11.83,0.19 C9.9,0.19 7.95,0.69 7.71,2.05 C7.70576018,2.0798502 7.70576018,2.1101498 7.71,2.14 C7.51796039,3.58698943 7.51796039,5.05301057 7.71,6.5 C7.73480331,6.88497905 7.91096571,7.24449413 8.2,7.5 C8.2,7.5 8.2,7.5 8.2,7.5 C8.2,7.5 8.39,13.89 6.58,17.83 C6.13,18.83 5.69,19.62 5.26,20.42 C3.44476781,23.3763205 2.54369914,26.8031647 2.67,30.27 L2.67,50.47 C2.66643119,51.1731632 2.94782571,51.8477885 3.45,52.34 C4.99,53.82 8.31,54.78 11.88,54.78 C15.88,54.78 19.16,53.84 20.47,52.32 C20.8435229,51.8307125 21.0313302,51.2247682 21,50.61 L21,30.29 C21.1292988,26.8241791 20.2317287,23.3974097 18.42,20.44 Z M4.59,31.49 C6.69,32.49 10.01,32.65 12.03,32.65 C13.2655607,32.663629 14.5008947,32.6068704 15.73,32.48 C16.8570378,32.3911112 17.9617823,32.1174589 19,31.67 L19,44 C19.00824,44.1449023 18.9618541,44.2876283 18.87,44.4 C18.14,45.24 15.87,45.67 12.02,45.67 C7.72,45.67 5.41,44.92 4.74,44.28 C4.63139321,44.1678232 4.57355773,44.0160051 4.58,43.86 L4.59,31.49 Z M9.59,6.1 C9.5103619,5.43639254 9.47361893,4.76833851 9.48,4.1 C10.2289505,4.30664319 11.0031022,4.4076195 11.78,4.4 C12.5569372,4.40827801 13.3311804,4.30728977 14.0800459,4.1 C14.0814605,4.76795184 14.0480818,5.43552528 13.98,6.1 C13.2837685,6.38849037 12.5329723,6.52158606 11.78,6.49 C11.0369275,6.51913107 10.2964278,6.38604586 9.61,6.1 L9.59,6.1 Z M13.04,2.27 C12.2042906,2.39006842 11.3557094,2.39006842 10.52,2.27 C11.3615148,2.13791093 12.2184852,2.13791093 13.06,2.27 L13.04,2.27 Z M11.8,8.49 C12.3638853,8.49174469 12.9265813,8.4381546 13.48,8.33 C13.4528341,11.5399206 13.9389675,14.7335472 14.92,17.79 L13.99,18.28 C13.4566493,18.5652626 13.0868644,19.0829615 12.99,19.68 C12.8843004,20.2541162 12.3837652,20.670911 11.8,20.670911 C11.2162348,20.670911 10.7156996,20.2541162 10.61,19.68 C10.5131356,19.0829615 10.1433507,18.5652626 9.61,18.28 L8.7,17.81 C9.68750065,14.7513875 10.1770752,11.5539593 10.15,8.34 C10.6944706,8.4387793 11.2466425,8.48897674 11.8,8.49 Z M7,21.38 C7.3,20.82 7.61,20.25 7.92,19.61 L8.68,19.99 C8.84820152,21.5840886 10.2398405,22.7643394 11.84,22.67 C13.418378,22.7812339 14.8016923,21.6233158 14.97,20.05 L15.79,19.62 C16.1,20.25 16.41,20.83 16.71,21.38 C18.1164064,23.6549282 18.9056752,26.2571027 19,28.93 C18.9940726,28.9529569 18.9940726,28.9770431 19,29 C19.0057364,29.1415119 18.9594963,29.2802323 18.87,29.39 C18.55,29.76 17.72,30.25 15.54,30.49 C14.3872674,30.6086108 13.2287563,30.6620292 12.07,30.65 C7.79,30.65 5.5,29.91 4.84,29.27 C4.73192715,29.1615589 4.67394472,29.0129789 4.68,28.86 L4.68,28.86 C4.78763419,26.2069836 5.58744546,23.6282818 7,21.38 L7,21.38 Z M18.88,51 C18.14,51.85 15.61,52.77 11.8,52.77 C8.31,52.77 5.7,51.77 4.8,50.89 C4.69180725,50.7735231 4.63426183,50.6188698 4.64,50.46 L4.64,46.55 C6.76,47.55 10.06,47.69 12.08,47.69 C15.41,47.69 17.63,47.38 19.08,46.69 L19.08,50.59 C19.0721332,50.7482475 18.9998696,50.896388 18.88,51 Z"/>
        <path id="Path" fill="#3D454C" d="M11.08,42.28 C11.2588989,42.5884022 11.5884657,42.7782281 11.945,42.7782281 C12.3015343,42.7782281 12.6311011,42.5884022 12.81,42.28 C13.91,40.28 15,38.28 16.1,36.28 C16.72,35.15 15,34.14 14.37,35.28 C13.56,36.77 12.74,38.28 11.93,39.73 L9.69,35.8 C9.38839089,35.3852779 8.82195514,35.2659125 8.37863697,35.5236556 C7.93531881,35.7813987 7.75881041,36.3327084 7.97,36.8 L11.08,42.28 Z"/>
      </g>
    </g>
  </g>
</svg>
