<svg xmlns="http://www.w3.org/2000/svg" width="64" height="64" viewBox="0 0 64 64" style="background:#fff">
  <g id="Vollkornmehl" fill="none" fill-rule="evenodd" stroke="none" stroke-width="1">
    <rect width="64" height="64" fill="#FFF"/>
    <g transform="translate(2 4)">
      <g id="Layer_2">
        <rect id="Rectangle" width="60" height="60" x=".33" y="0"/>
      </g>
      <g id="Layer_1" fill-rule="nonzero" transform="translate(6 2)">
        <path id="Path" fill="#C17953" d="M38.38 25.76C36.46 20.14 31.1 21 26.66 23.05 25.96 22.92 25.25 22.82 24.52 22.72 21.58 22.31 18.05 21.34 15.11 22.02 8.55 23.52 8.76 31.94 11.38 36.74 14.74 42.91 21.7 46.59 28.38 47.97 30.47 48.4 31.7 47.16 32.45 45.31 34.82 39.5 40.65 32.4 38.38 25.76zM32.05 4.31C28.48 2.31 24.45.31 20.26 1.1 16.785495 1.6494935 13.9495868 4.17290493 13 7.56 12.55 9.13 12.52 11.25 13.77 12.5 14.3851351 13.191173 15.3801582 13.3983003 16.22 13.01 16.5617331 13.4556431 17.0334731 13.7841139 17.57 13.95 21.81 15.15 27.11 13.77 31.45 13.33 35.6 12.91 34.89 5.88 32.05 4.31z" opacity=".5"/>
        <path id="Shape" fill="#3D454C" d="M44.49,47.79 C44.5000356,42.9508156 44.2597145,38.1143521 43.77,33.3 C43.2715095,28.4977543 42.5238349,23.7246533 41.53,19 L42.38,19 C43.1103142,19.0053025 43.796089,18.6494574 44.2122181,18.0492712 C44.6283472,17.449085 44.7210887,16.6820701 44.46,16 L44.12,15 C44.4314866,13.830853 44.2431364,12.5848435 43.6,11.56 C43.2187726,10.9959299 42.607234,10.6297391 41.93,10.56 L37.72,10.56 L30.72,4.4 C27.0192783,1.08949033 21.4499596,0.995816775 17.64,4.18 L9.9,10.65 L6.3,10.65 C5.65987045,10.7286392 5.08257727,11.0735628 4.71,11.6 C4.07144183,12.6265367 3.88338747,13.8705887 4.19,15.04 L3.74,16.33 C3.53649157,16.9340095 3.63306042,17.5988489 4,18.12 C4.37136548,18.6349364 4.96515958,18.9429671 5.6,18.95 L7.45,18.95 C6.38974703,23.7445128 5.6580459,28.6058148 5.26,33.5 C4.81,38.22 4.49,43.02 4.33,47.78 C3.42,48.49 1.56,50.4 0.68,54.52 C0.628675276,54.7983557 0.697716882,55.0854234 0.87,55.31 C1.04754318,55.5401476 1.31107829,55.6881605 1.6,55.72 C4.83523806,56.0796878 8.10196896,56.0494713 11.33,55.63 C15.1624546,55.1521237 19.0182591,54.885055 22.88,54.83 L23.39,54.83 C23.81,54.83 24.12,54.83 24.26,54.83 L24.36,54.83 C28.7530795,54.8305918 33.1417629,55.107807 37.5,55.66 C39.238107,55.8788366 40.9881711,55.9890505 42.74,55.9900721 C44.2102963,55.9928812 45.6794927,55.9094042 47.14,55.74 C47.4390833,55.7380222 47.72158,55.602277 47.91,55.37 C48.1008836,55.1388028 48.1779624,54.8341583 48.12,54.54 C47.24,50.43 45.4,48.52 44.49,47.79 Z M18.91,5.79 C21.9812817,3.26723026 26.4321455,3.35633239 29.4,6 L34.69,10.66 L27.69,10.66 C26.5389674,10.6627326 25.4302219,11.0941094 24.58,11.87 C21.3749875,11.0680631 18.0838168,10.6617043 14.78,10.66 L13,10.66 L18.91,5.79 Z M6.06,15.79 L13.06,15.79 C13.6122847,15.79 14.06,15.3422847 14.06,14.79 C14.06,14.2377153 13.6122847,13.79 13.06,13.79 L6.06,13.79 C6.06,13.09 6.26,12.74 6.47,12.66 L14.77,12.66 C18.1018206,12.6632246 21.4192688,13.096812 24.64,13.95 C25.0089457,14.0386294 25.3962701,13.9108124 25.64,13.62 C26.1210252,13.0012307 26.8563694,12.6335586 27.64,12.62 L41.82,12.62 C42.02,12.7 42.22,13.05 42.23,13.75 L39.89,13.75 C39.3377153,13.75 38.89,14.1977153 38.89,14.75 C38.89,15.3022847 39.3377153,15.75 39.89,15.75 L42.26,15.75 L42.57,16.65 C42.5990511,16.7117714 42.5927328,16.7843796 42.5534485,16.8402045 C42.5141643,16.8960295 42.4479526,16.9264904 42.38,16.92 L5.63,17 L6.06,15.79 Z M37.75,53.65 C33.3086967,53.0894977 28.8365318,52.8089437 24.36,52.81 L24.25,52.81 L22.92,52.81 C18.5304404,52.7242257 14.4772018,50.4402877 12.13,46.73 C11.9388629,46.4281106 11.6011889,46.2511237 11.2441764,46.2657085 C10.887164,46.2802934 10.5650518,46.4842342 10.3991764,46.8007085 C10.233301,47.1171828 10.2488629,47.4981106 10.44,47.8 C11.8453956,50.068417 13.8487301,51.905672 16.23,53.11 C14.5,53.25 12.78,53.41 11.08,53.63 C8.37072992,53.9778817 5.63251294,54.0415612 2.91,53.82 C3.3056507,52.237257 4.10897605,50.785755 5.24,49.61 C6.53226771,50.7704824 8.0048677,51.7128113 9.6,52.4 C9.72250173,52.4551256 9.85568873,52.482446 9.99,52.48 C10.4667253,52.4838901 10.8799068,52.1507078 10.9771402,51.6839875 C11.0743736,51.2172673 10.8286178,50.7468064 10.39,50.56 C8.89390638,49.9175325 7.52029982,49.0209667 6.33,47.91 C6.49,43.17 6.8,38.39 7.26,33.69 C7.64851538,28.7453849 8.39716822,23.8356928 9.5,19 L39.5,19 C40.516003,23.7895908 41.2770736,28.6297323 41.78,33.5 C42.261409,38.2647379 42.4983863,43.0510114 42.49,47.84 C41.3078584,48.6040831 40.0164424,49.1840401 38.66,49.56 C38.1077153,49.6428427 37.7271573,50.1577153 37.81,50.71 C37.8928428,51.2622847 38.4077153,51.6428427 38.96,51.56 C39.0650994,51.557218 39.1693556,51.5404025 39.27,51.51 C40.7600789,51.0771753 42.1834508,50.4412006 43.5,49.62 C44.666367,50.7968454 45.4892891,52.2698069 45.88,53.88 C43.1694099,54.0877006 40.4445123,54.0106125 37.75,53.65 Z"/>
        <circle id="Oval" cx="35.76" cy="51.51" r="1" fill="#3D454C"/>
        <path id="Path" fill="#3D454C" d="M23.38 8.51L24.18 7.71C24.5693607 7.31787783 24.5671222 6.68436075 24.175 6.295 23.7828778 5.90563925 23.1493607 5.90787783 22.76 6.3L21.96 7.1C21.5706393 7.49212217 21.5728778 8.12563924 21.965 8.51499999 22.3571222 8.90436073 22.9906392 8.90212216 23.38 8.51zM28 29.32L26.8 28.52C25.73 27.8 24.73 29.52 25.8 30.25L27 31.05C28 31.76 29 30 28 29.32zM33.05 26.64L33.86 25.45C33.9943739 25.2206913 34.0319353 24.9473232 33.9643886 24.6902702 33.8968418 24.4332172 33.7297442 24.213628 33.5 24.08 33.2706913 23.9456261 32.9973232 23.9080647 32.7402702 23.9756114 32.4832172 24.0431582 32.263628 24.2102558 32.13 24.44L31.32 25.63C31.1229406 25.9399891 31.1116923 26.333062 31.2907021 26.6538128 31.469712 26.9745637 31.8101615 27.1713553 32.1774501 27.1663839 32.5447387 27.1614125 32.8797371 26.9554784 33.05 26.63L33.05 26.64zM20 35.28C19.6106392 34.8878779 18.9771222 34.8856393 18.585 35.275 18.1928779 35.6643608 18.1906393 36.2978778 18.58 36.69L19.38 37.49C19.7693607 37.8821222 20.4028778 37.8843607 20.795 37.495 21.1871222 37.1056393 21.1893607 36.4721222 20.8 36.08L20 35.28zM23.58 38.48L22.78 39.88C22.5315983 40.3548504 22.7016763 40.9411063 23.1656398 41.2092932 23.6296032 41.4774802 24.222504 41.3322526 24.51 40.88L25.31 39.48C25.5584017 39.0051496 25.3883237 38.4188937 24.9243602 38.1507068 24.4603968 37.8825198 23.867496 38.0277474 23.58 38.48zM19.76 26.82C19.8943739 26.5906913 19.9319353 26.3173232 19.8643886 26.0602702 19.7968418 25.8032172 19.6297442 25.583628 19.4 25.45L17.99 24.45C17.5151496 24.2015983 16.9288937 24.3716763 16.6607068 24.8356398 16.3925198 25.2996032 16.5377474 25.892504 16.99 26.18L18.4 27.18C18.8753732 27.4530821 19.4819888 27.2925074 19.76 26.82zM29.65 35.38C29.0977153 35.38 28.65 35.8277153 28.65 36.38 28.65 36.9322847 29.0977153 37.38 29.65 37.38 30.2022847 37.38 30.65 36.9322847 30.65 36.38 30.65 35.8277153 30.2022847 35.38 29.65 35.38zM21.45 30.58C20.8977153 30.58 20.45 31.0277153 20.45 31.58 20.45 32.1322847 20.8977153 32.58 21.45 32.58 22.0022847 32.58 22.45 32.1322847 22.45 31.58 22.45 31.0277153 22.0022847 30.58 21.45 30.58zM18.05 40.18C17.4977153 40.18 17.05 40.6277153 17.05 41.18 17.05 41.7322847 17.4977153 42.18 18.05 42.18 18.6022847 42.18 19.05 41.7322847 19.05 41.18 19.05 40.6277153 18.6022847 40.18 18.05 40.18zM32.45 41.58C31.8977153 41.58 31.45 42.0277153 31.45 42.58 31.45 43.1322847 31.8977153 43.58 32.45 43.58 33.0022847 43.58 33.45 43.1322847 33.45 42.58 33.45 42.0277153 33.0022847 41.58 32.45 41.58zM15.45 31.78C14.8977153 31.78 14.45 32.2277153 14.45 32.78 14.45 33.3322847 14.8977153 33.78 15.45 33.78 16.0022847 33.78 16.45 33.3322847 16.45 32.78 16.45 32.2277153 16.0022847 31.78 15.45 31.78zM24.65 25.78C25.2022847 25.78 25.65 25.3322847 25.65 24.78 25.65 24.2277153 25.2022847 23.78 24.65 23.78 24.0977153 23.78 23.65 24.2277153 23.65 24.78 23.65 25.3322847 24.0977153 25.78 24.65 25.78zM27.85 42C27.2977153 42 26.85 42.4477153 26.85 43 26.85 43.5522847 27.2977153 44 27.85 44 28.4022847 44 28.85 43.5522847 28.85 43 28.85 42.4477153 28.4022847 42 27.85 42zM33.65 32.38L33.45 32.38C32.8977153 32.38 32.45 32.8277153 32.45 33.38 32.45 33.9322847 32.8977153 34.38 33.45 34.38L33.65 34.38C34.2022847 34.38 34.65 33.9322847 34.65 33.38 34.65 32.8277153 34.2022847 32.38 33.65 32.38zM27.13 9.12C27.263628 9.34974415 27.4832172 9.51684179 27.7402702 9.58438856 27.9973232 9.65193534 28.2706913 9.61437394 28.5 9.48 28.7297442 9.34637202 28.8968418 9.12678285 28.9643886 8.86972984 29.0319353 8.61267684 28.9943739 8.33930865 28.86 8.11L28.45 7.53C28.316372 7.30025585 28.0967828 7.13315821 27.8397298 7.06561144 27.5826768 6.99806466 27.3093087 7.03562606 27.08 7.17 26.6074926 7.44801123 26.4469179 8.05462684 26.72 8.53L27.13 9.12zM18.85 9.78C19.4022847 9.78 19.85 9.33228475 19.85 8.78 19.85 8.22771525 19.4022847 7.78 18.85 7.78 18.2977153 7.78 17.85 8.22771525 17.85 8.78 17.85 9.33228475 18.2977153 9.78 18.85 9.78z"/>
      </g>
    </g>
  </g>
</svg>
