<svg xmlns="http://www.w3.org/2000/svg" width="64" height="64" viewBox="0 0 64 64" style="background:#fff">
  <g id="Vollei" fill="none" fill-rule="evenodd" stroke="none" stroke-width="1">
    <rect width="64" height="64" fill="#FFF"/>
    <g transform="translate(2 9)">
      <g id="Layer_2">
        <rect id="Rectangle" width="60" height="60" x="0" y="0"/>
        <rect id="Rectangle" width="60" height="60" x="0" y="0"/>
      </g>
      <g id="Layer_1" fill-rule="nonzero" transform="translate(7 3)">
        <path id="Path" fill="#CCC" d="M34.51 9.27C30.51 8.89 31.27 15.91 32.4 17.86 33.94 20.52 36.8 24 35.87 27.29 34.69 31.43 30 31.94 27 33.93 23.21 36.45 21.25 47.34 27.37 48.69 37 50.83 44.69 39.46 46 31.15 47.17 23.18 44.17 10.19 34.51 9.27zM17.79.69C1.94 5.17-2.46 28.5 8.16 40 11.21 43.34 13 35.81 12 33.8 9.53 28.51 7.53 23.8 9.62 17.97 11.41 12.97 15.28 9.41 19.5 6.42 21.4 5.1 20.56-.09 17.79.69z" opacity=".5"/>
        <path id="Path" fill="#3D454C" d="M14.6,41.32 C7.37,40 2.14,32.21 2.69,23.55 C3.36,13.21 10.56,5.48 16.56,5.48 C19.56,5.48 22.56,7.03 25.04,9.84 C25.2714441,10.1284078 25.6431557,10.2655493 26.0064563,10.1965702 C26.3697569,10.1275911 26.6653352,9.86375272 26.774965,9.51058593 C26.8845947,9.15741915 26.790378,8.77258091 26.53,8.51 C23.64,5.27 20.1,3.50993599 16.53,3.50993599 C8.21,3.48 1.3,14 0.7,23.42 C0.08,33.08 6,41.81 14.25,43.29 L14.43,43.29 C14.9822847,43.3369442 15.4680558,42.9272847 15.515,42.375 C15.5619442,41.8227153 15.1522847,41.3369442 14.6,41.29 L14.6,41.32 Z"/>
        <path id="Shape" fill="#3D454C" d="M35.73,11 C27.8,9.12 18.8,17.56 16.06,26.38 C14.3842929,31.5676222 14.9158713,37.2160948 17.53,42 C19.406998,45.5256113 22.6684632,48.1094165 26.53,49.13 C27.5124124,49.3672858 28.5193392,49.488117 29.53,49.49 C32.4722295,49.4502989 35.3378034,48.546113 37.77,46.89 C42.2840284,43.8338399 45.3375107,39.0510157 46.21,33.67 C48.1,23 43.38,12.89 35.73,11 Z M44.28,33.28 C43.499273,38.1131728 40.765525,42.4126786 36.72,45.17 C33.9017361,47.1566768 30.3839633,47.8812438 27.01,47.17 C23.6842815,46.2790904 20.8797898,44.0434684 19.27,41 C16.9461111,36.7045285 16.4870064,31.6435315 18,27 C20.7,18.29 28,12.8099473 33.52,12.8099473 C34.1163458,12.807738 34.7107392,12.8782593 35.29,13.02 C41.8,14.56 45.93,23.88 44.28,33.32 L44.28,33.28 Z"/>
        <path id="Path" fill="#3D454C" d="M30.51 16.28C27.36 17.07 25.08 20.08 24.98 20.2 24.6486292 20.6418278 24.7381722 21.2686292 25.18 21.6 25.3530962 21.7298221 25.5636298 21.8 25.78 21.8 26.0947573 21.8 26.3911456 21.6518058 26.58 21.4 27.718714 19.9389187 29.2527458 18.8352488 31 18.22 31.2575067 18.1540989 31.4781813 17.9883893 31.6132779 17.7594755 31.7483746 17.5305617 31.7867762 17.2572811 31.72 17 31.5826083 16.4686032 31.0425786 16.1472633 30.51 16.28zM23.51 23L23.41 23C22.8577153 23 22.41 23.4477153 22.41 24 22.41 24.5522847 22.8577153 25 23.41 25L23.51 25C24.0622847 25 24.51 24.5522847 24.51 24 24.51 23.4477153 24.0622847 23 23.51 23z"/>
      </g>
    </g>
  </g>
</svg>
