<svg xmlns="http://www.w3.org/2000/svg" width="64" height="64" viewBox="0 0 64 64" style="background:#fff">
  <g id="Vollkornbrot" fill="none" fill-rule="evenodd" stroke="none" stroke-width="1">
    <rect width="64" height="64" fill="#FFF"/>
    <g id="Vollkornschrot" transform="translate(2 10)">
      <g id="Layer_2">
        <rect id="Rectangle" width="60" height="60" x="0" y="0"/>
      </g>
      <g id="Layer_1" fill-rule="nonzero" transform="translate(8 13)">
        <path id="Path" fill="#C17953" d="M43.06,4.62 C36.8846999,1.57910928 29.4285208,3.19047242 25.06,8.51 C19.45,15.26 26.15,22.44 23.61,29.84 C22.87,32.01 23.18,38.26 26.85,37.84 C32.3,37.22 39.53,38.15 41.85,32.1 C44,26.52 43.36,18.7 43.14,12.62 C46.12,12.09 45.33,5.74 43.06,4.62 Z" opacity=".5"/>
        <path id="Path" fill="#483318" d="M26.81,3 C22.14,0.21 12.49,-0.76 7.43,1.53 C2.51125377,3.94821294 0.37588372,9.81606867 2.59,14.83 C4.49,18.89 7.04,14.74 6.7,11.94 C6.15,7.44 14.27,8.05 16.7,8.12 C20.21,8.24 23.7,8.74 26.94,7.26 C27.94,6.81 30.1,4.97 29.75,3.87 C29.53,3.27 27.24,3.23 26.81,3 Z" opacity=".5"/>
        <path id="Shape" fill="#3D454C" d="M44.58,9.07 C44.58,5.2 40.96,2.48 35.75,2.58 L17.83,1.08 C16.3735402,0.971423426 14.9099687,1.00491476 13.46,1.18 C13.15,1.18 12.87,1.26 12.64,1.31 C6.64,2.55 0.58,6.1 0.58,11.25 C0.554960028,13.0101248 1.14168879,14.7243624 2.24,16.1 C2.24,16.1 2.24,16.18 2.24,16.25 L2.24,32.73 C2.23564751,34.0067422 3.15222213,35.1007184 4.41,35.32 C10.93,36.32 15.64,37.14 18.76,37.72 C20.55,38.05 21.76,38.27 22.48,38.36 C22.7164223,38.3752086 22.9535777,38.3752086 23.19,38.36 C23.572603,38.3590486 23.9542739,38.3222208 24.33,38.25 L43,35.06 L43,14.62 C43.013024,14.5392481 43.0401003,14.4614038 43.08,14.39 C44.0246561,12.7732426 44.540956,10.9420991 44.58,9.07 Z M13,3.27 L13.66,3.16 C14.4661383,3.05881697 15.2775544,3.00539039 16.09,3 C16.61,3 17.14,3.02 17.68,3.06 L29.13,4.06 C24.27,6.16 20.72,10.19 20.72,14.06 C20.735017,15.3401686 21.0356636,16.6008344 21.6,17.75 L3.74,14.79 L3.65,14.68 C2.94235796,13.677217 2.56802995,12.4772684 2.58,11.25 C2.58,7.88 7,4.52 13,3.27 Z M19.12,35.75 C15.99,35.17 11.25,34.29 4.7,33.35 C4.42725104,33.2666332 4.24070706,33.0152044 4.24,32.73 L4.24,16.91 L22.39,19.91 L22.39,36.33 C21.71,36.22 20.61,36 19.16,35.75 L19.12,35.75 Z M41.4,13.3 C41.1506161,13.6924416 41.0123727,14.1451886 41,14.61 L41,33.38 L24.43,36.25 L24.43,19 C24.4279489,18.4105961 24.1987165,17.8446786 23.79,17.42 C23.0897696,16.4173325 22.716094,15.2229675 22.7199697,14 C22.7199697,10.25 27.56,6 33.07,4.84 C33.9294034,4.6629314 34.8028344,4.56253703 35.68,4.54 L38.05,4.74 C40.8,5.28 42.58,6.9 42.58,9.03 C42.5456545,10.5289879 42.1402285,11.9960804 41.4,13.3 Z"/>
        <path id="Path" fill="#3D454C" d="M31.61 23.14L30.81 24.08C30.4222764 24.4700375 30.4222764 25.0999625 30.81 25.49 31.2000375 25.8777236 31.8299625 25.8777236 32.22 25.49L33.02 24.56C33.2093127 24.3722334 33.3157983 24.1166375 33.3157983 23.85 33.3157983 23.5833625 33.2093127 23.3277666 33.02 23.14 32.6299625 22.7522764 32.0000375 22.7522764 31.61 23.14L31.61 23.14zM32.11 13C31.19 12.1 29.77 13.51 30.7 14.42L31.64 15.34C32.56 16.24 33.98 14.83 33.05 13.92L32.11 13zM37.52 18.85L37.38 18.85C36.8277153 18.85 36.38 19.2977153 36.38 19.85 36.38 20.4022847 36.8277153 20.85 37.38 20.85L37.52 20.85C38.0722847 20.85 38.52 20.4022847 38.52 19.85 38.52 19.2977153 38.0722847 18.85 37.52 18.85zM31.12 30.62L30.05 30.22C29.7940602 30.1495164 29.5205976 30.1836928 29.2898766 30.3149974 29.0591555 30.4463021 28.8901124 30.6639583 28.82 30.92 28.7495164 31.1759398 28.7836928 31.4494024 28.9149974 31.6801234 29.0463021 31.9108445 29.2639583 32.0798876 29.52 32.15L30.59 32.55C30.8459398 32.6204836 31.1194024 32.5863072 31.3501234 32.4550026 31.5808445 32.3236979 31.7498876 32.1060417 31.82 31.85 31.8904836 31.5940602 31.8563072 31.3205976 31.7250026 31.0898766 31.5936979 30.8591555 31.3760417 30.6901124 31.12 30.62zM38.22 9.14C37.8278778 8.75063928 37.1943608 8.75287787 36.805 9.14500003 36.4156393 9.53712219 36.4178779 10.1706392 36.81 10.56L36.94 10.69C37.3293607 11.0821222 37.9628778 11.0843607 38.355 10.695 38.7471222 10.3056393 38.7493607 9.67212217 38.36 9.28L38.22 9.14z"/>
      </g>
    </g>
  </g>
</svg>
