<svg xmlns="http://www.w3.org/2000/svg" width="64" height="64" viewBox="0 0 64 64" style="background:#fff">
  <g id="Vollkornschrot" fill="none" fill-rule="evenodd" stroke="none" stroke-width="1">
    <rect width="64" height="64" fill="#FFF"/>
    <g transform="translate(2 4)">
      <g id="Layer_2">
        <rect id="Rectangle" width="60" height="60" x="0" y="0"/>
      </g>
      <g id="Layer_1" fill-rule="nonzero" transform="translate(6 2)">
        <path id="Path" fill="#C17953" d="M33.57 4.45C28.2347587 1.63354727 21.819113 1.79261287 16.63 4.87L16.63 4.87C15.6642651 5.46236606 14.7801079 6.1784325 14 7 13.2 7.85 13.2 11.54 15.17 10.64 15.58 10.45 15.99 10.28 16.4 10.11 16.614344 10.3758769 16.8932009 10.5824375 17.21 10.71 21.79 12.4 28.32 11.27 33.14 10.86 36.32 10.63 35.69 5.58 33.57 4.45zM39.07 26.77C37.57 20.25 28.29 15.53 24.61 21.45 19.51 14.07 11.15 21.09 10.18 28.45 9.28 35.19 12.62 49.84 21.54 45.78 26.6144715 43.4812264 31.3433923 40.4856823 35.59 36.88 38.5223833 34.407381 39.8592182 30.5236451 39.07 26.77z" opacity=".5"/>
        <path id="Shape" fill="#3D454C" d="M44.76,46.39 C44.7567464,41.5501249 44.503074,36.7136596 44,31.9 C43.516447,27.081697 42.7821178,22.291868 41.8,17.55 L42.65,17.55 C43.365144,17.5480745 44.0351507,17.2002158 44.4481872,16.6164046 C44.8612237,16.0325933 44.9662275,15.2850047 44.73,14.61 L44.39,13.61 C44.7014866,12.440853 44.5131364,11.1948435 43.87,10.17 C43.4887726,9.60592986 42.877234,9.23973906 42.2,9.17 L38,9.17 L31,3.09 C27.2992783,-0.220509669 21.7299596,-0.314183225 17.92,2.87 L10.18,9.25 L6.58,9.25 C5.93446599,9.34897628 5.35880618,9.71102647 4.99,10.25 C4.3570352,11.2785914 4.16933824,12.520279 4.47,13.69 L4,14.94 C3.79699526,15.5394673 3.889717,16.1996461 4.25,16.72 C4.62136548,17.2349364 5.21515958,17.5429671 5.85,17.55 L7.7,17.55 C6.64647243,22.3449802 5.92145418,27.2062776 5.53,32.1 C5.08,36.83 4.76,41.63 4.6,46.38 C3.69,47.09 1.83,49 1,53.12 C0.948675276,53.3983557 1.01771688,53.6854234 1.19,53.91 C1.36754318,54.1401476 1.63107829,54.2881605 1.92,54.32 C5.15523806,54.6796878 8.42196896,54.6494713 11.65,54.23 C15.4757914,53.7524734 19.32492,53.4854046 23.18,53.43 L23.71,53.43 C24.15,53.43 24.45,53.43 24.59,53.43 L24.68,53.43 C29.0730795,53.4305918 33.4617629,53.707807 37.82,54.26 C39.558107,54.4788366 41.3081711,54.5890505 43.06,54.5900721 C44.5302963,54.5928812 45.9994927,54.5094042 47.46,54.34 C47.7590833,54.3380222 48.04158,54.202277 48.23,53.97 C48.4208836,53.7388028 48.4979624,53.4341583 48.44,53.14 C47.51,49 45.67,47.12 44.76,46.39 Z M19.18,4.39 C22.2439577,1.8587765 26.694688,1.93514747 29.67,4.57 L35,9.25 L28,9.25 C26.8489674,9.25273258 25.7402219,9.68410942 24.89,10.46 C21.6849875,9.65806315 18.3938168,9.25170431 15.09,9.25 L13.31,9.25 L19.18,4.39 Z M6.33,14.39 L13.33,14.39 C13.8822847,14.39 14.33,13.9422847 14.33,13.39 C14.33,12.8377153 13.8822847,12.39 13.33,12.39 L6.33,12.39 C6.33,11.69 6.53,11.34 6.74,11.26 L15.04,11.26 C18.3718206,11.2632246 21.6892688,11.696812 24.91,12.55 C25.2789457,12.6386294 25.6662701,12.5108124 25.91,12.22 C26.3910252,11.6012307 27.1263694,11.2335586 27.91,11.22 L42.09,11.22 C42.29,11.3 42.49,11.65 42.5,12.35 L40.16,12.35 C39.6077153,12.35 39.16,12.7977153 39.16,13.35 C39.16,13.9022847 39.6077153,14.35 40.16,14.35 L42.53,14.35 L42.84,15.25 C42.8690511,15.3117714 42.8627328,15.3843796 42.8234485,15.4402045 C42.7841643,15.4960295 42.7179526,15.5264904 42.65,15.52 L5.9,15.6 L6.33,14.39 Z M38,52.25 C33.5586967,51.6894977 29.0865318,51.4089437 24.61,51.41 L24.5,51.41 L23.34,51.41 C18.884716,51.3601307 14.7523109,49.0760377 12.34,45.33 C12.0445277,44.8633194 11.4266806,44.7245277 10.96,45.02 C10.4933194,45.3154723 10.3545277,45.9333194 10.65,46.4 C12.054271,48.6657236 14.0535867,50.5024652 16.43,51.71 C14.71,51.85 12.99,52.01 11.29,52.23 C8.58072992,52.5778817 5.84251294,52.6415612 3.12,52.42 C3.5156507,50.837257 4.31897605,49.385755 5.45,48.21 C6.76043901,49.3759949 8.25369339,50.3185695 9.87,51 C9.99250173,51.0551256 10.1256887,51.082446 10.26,51.08 C10.6649114,51.0837121 11.0320949,50.8428713 11.19,50.47 C11.4049432,49.9618944 11.1677826,49.3757051 10.66,49.16 C9.16284906,48.5195072 7.78891776,47.6227293 6.6,46.51 C6.76,41.78 7.07,37 7.53,32.29 C7.91609779,27.3286024 8.6647639,22.402112 9.77,17.55 L39.77,17.55 C40.7892871,22.3558039 41.5503777,27.212764 42.05,32.1 C42.531409,36.8647379 42.7683863,41.6510114 42.76,46.44 C41.5778584,47.2040831 40.2864424,47.7840401 38.93,48.16 C38.3777153,48.2428427 37.9971573,48.7577153 38.08,49.31 C38.1628427,49.8622847 38.6777153,50.2428427 39.23,50.16 C39.3328837,50.1736325 39.4371163,50.1736325 39.54,50.16 C41.0308758,49.7293514 42.4545401,49.0932461 43.77,48.27 C44.936367,49.4468454 45.7592891,50.9198069 46.15,52.53 C43.4310278,52.7225393 40.6993472,52.6286902 38,52.25 Z"/>
        <circle id="Oval" cx="36.03" cy="50.11" r="1" fill="#3D454C"/>
        <path id="Path" fill="#3D454C" d="M23.65 7.11L24.45 6.31C24.8393607 5.90959355 24.8304064 5.26936076 24.43 4.88000002 24.0295935 4.49063927 23.3893608 4.49959357 23 4.9L22.2 5.7C21.8106393 6.10040645 21.8195936 6.74063923 22.22 7.12999997 22.6204065 7.51936071 23.2606392 7.51040642 23.65 7.11zM28.22 27.92L27.02 27.12C25.95 26.4 24.95 28.12 26.02 28.85L27.22 29.65C28.29 30.36 29.29 28.63 28.22 27.92zM33.32 25.24L34.13 24.05C34.2643739 23.8206913 34.3019353 23.5473232 34.2343886 23.2902702 34.1668418 23.0332172 33.9997442 22.813628 33.77 22.68 33.302824 22.3930829 32.691737 22.5358186 32.4 23L31.59 24.19C31.3929406 24.4999891 31.3816923 24.893062 31.5607021 25.2138128 31.739712 25.5345637 32.0801615 25.7313553 32.4474501 25.7263839 32.8147387 25.7214125 33.1497371 25.5154784 33.32 25.19L33.32 25.24zM20.23 33.88C19.8406392 33.4878779 19.2071222 33.4856393 18.815 33.875 18.4228779 34.2643608 18.4206393 34.8978778 18.81 35.29L19.61 36.09C20.0102446 36.3858508 20.5671365 36.3423239 20.9165536 35.9878791 21.2659708 35.6334344 21.3015381 35.0759775 21 34.68L20.23 33.88zM23.85 37.08L23.05 38.48C22.8015983 38.9548504 22.9716763 39.5411063 23.4356398 39.8092932 23.8996032 40.0774802 24.492504 39.9322526 24.78 39.48 25.05 39.01 25.31 38.54 25.58 38.08 25.8284017 37.6051496 25.6583237 37.0188937 25.1943602 36.7507068 24.7303968 36.4825198 24.137496 36.6277474 23.85 37.08zM17.25 24.79L18.66 25.79C19.1333756 26.0480615 19.7261091 25.8843963 20 25.42 20.1343739 25.1906913 20.1719353 24.9173232 20.1043886 24.6602702 20.0368418 24.4032172 19.8697442 24.183628 19.64 24.05L18.23 23.05C17.9200109 22.8529406 17.526938 22.8416923 17.2061872 23.0207021 16.8854363 23.199712 16.6886447 23.5401615 16.6936161 23.9074501 16.6985875 24.2747387 16.9045216 24.6097371 17.23 24.78L17.25 24.79zM27.4 7.72C27.533628 7.94974415 27.7532172 8.11684179 28.0102702 8.18438856 28.2673232 8.25193534 28.5406913 8.21437394 28.77 8.08 28.9997442 7.94637202 29.1668418 7.72678285 29.2343886 7.46972984 29.3019353 7.21267684 29.2643739 6.93930865 29.13 6.71 28.99 6.52 28.85 6.32 28.72 6.12 28.438281 5.64510687 27.8249776 5.48842352 27.35 5.77 26.8811034 6.05138058 26.7251879 6.65722381 27 7.13L27.4 7.72zM19.12 8.38C19.6722847 8.38 20.12 7.93228475 20.12 7.38 20.12 6.82771525 19.6722847 6.38 19.12 6.38 18.5677153 6.38 18.12 6.82771525 18.12 7.38 18.12 7.93228475 18.5677153 8.38 19.12 8.38zM15.32 31.68C15.5759398 31.7504836 15.8494024 31.7163072 16.0801234 31.5850026 16.3108445 31.4536979 16.4798876 31.2360417 16.55 30.98L17.35 28.85C17.4204836 28.5940602 17.3863072 28.3205976 17.2550026 28.0898766 17.1236979 27.8591555 16.9060417 27.6901124 16.65 27.62 16.3940602 27.5495164 16.1205976 27.5836928 15.8898766 27.7149974 15.6591555 27.8463021 15.4901124 28.0639583 15.42 28.32L14.62 30.45C14.5495164 30.7059398 14.5836928 30.9794024 14.7149974 31.2101234 14.8463021 31.4408445 15.0639583 31.6098876 15.32 31.68L15.32 31.68zM30.18 35.41C29.8783909 34.9952779 29.3119551 34.8759125 28.868637 35.1336556 28.4253188 35.3913987 28.2488104 35.9427084 28.46 36.41L29.79 38.68C30.077496 39.1322526 30.6703968 39.2774802 31.1343602 39.0092932 31.5983237 38.7411063 31.7684017 38.1548504 31.52 37.68L30.18 35.41zM26.31 23L26.85 21.94C27.42 20.79 25.7 19.78 25.12 20.94L24.59 22C24 23.09 25.74 24.11 26.31 23zM23.65 32.6C24.0377236 32.2099625 24.0377236 31.5800375 23.65 31.19L22.45 29.72C22.0599625 29.3322764 21.4300375 29.3322764 21.04 29.72 20.8506873 29.9077666 20.7442017 30.1633625 20.7442017 30.43 20.7442017 30.6966375 20.8506873 30.9522334 21.04 31.14L22.24 32.6C22.6300375 32.9877236 23.2599625 32.9877236 23.65 32.6L23.65 32.6zM33 30.63L32.34 31.7C31.66 32.8 33.34 33.81 34.07 32.7L34.73 31.63C35.42 30.54 33.7 29.54 33 30.63zM16.57 36.93C15.71 35.93 14.3 37.39 15.16 38.35L17.29 40.75C18.14 41.75 19.55 40.3 18.7 39.34L16.57 36.93z"/>
      </g>
    </g>
  </g>
</svg>
