<svg xmlns="http://www.w3.org/2000/svg" width="64" height="64" viewBox="0 0 64 64" style="background:#fff">
  <g id="Vollkorngrieß" fill="none" fill-rule="evenodd" stroke="none" stroke-width="1">
    <rect width="64" height="64" fill="#FFF"/>
    <g transform="translate(2 4)">
      <g id="Layer_2">
        <rect id="Rectangle" width="60" height="60" x=".27" y="0"/>
      </g>
      <g id="Layer_1" fill-rule="nonzero" transform="translate(6 2)">
        <path id="Path" fill="#EBE53F" d="M27 24C21.35 19.63 12.33 20.15 10.21 28.13 9.07 32.45 10.57 36.5 12.84 40.13 14.64 43.01 16.75 47.63 20.72 46.92 24.69 46.21 29.46 43.29 32.53 40.86 35.3891909 38.7032538 37.0849745 35.3412428 37.12 31.76 37 25.81 31.5 21.27 27 24zM36.91 7C33.17 3.64 28.82 0 23.45.64 18.61 1.19 14.18 4.81 11.68 8.82 11.21 9.58 11.37 12.3 12.77 11.82 13.0983981 12.4179994 13.7181108 12.7981912 14.4 12.82 21.63 13.04 28.85 12.82 36.07 12.44 38.51 12.32 38.22 8.15 36.91 7z" opacity=".5"/>
        <path id="Shape" fill="#3D454C" d="M44.5,47.79 C44.5100356,42.9508156 44.2697145,38.1143521 43.78,33.3 C43.2826041,28.497612 42.5349206,23.7244541 41.54,19 L42.39,19 C43.1184818,19.0005051 43.8008556,18.643576 44.2159298,18.0449113 C44.6310039,17.4462466 44.7259533,16.6820366 44.47,16 L44.13,15 C44.4383775,13.8318828 44.254024,12.5884007 43.62,11.56 C43.2336976,10.9964779 42.619529,10.6309014 41.94,10.56 L37.73,10.56 L30.73,4.4 C27.0210131,1.11065942 21.4675083,1.01725184 17.65,4.18 L9.91,10.56 L6.31,10.56 C5.66987045,10.6386392 5.09257727,10.9835628 4.72,11.51 C4.085976,12.5384007 3.90162254,13.7818828 4.21,14.95 L3.75,16.24 C3.49656212,16.8569122 3.5673145,17.5595631 3.93865572,18.1135641 C4.30999695,18.6675651 4.9330582,19.000009 5.6,19 L7.45,19 C6.39412438,23.7776884 5.66907016,28.6225207 5.28,33.5 C4.82,38.22 4.51,43.02 4.34,47.78 C3.43,48.49 1.58,50.4 0.69,54.52 C0.631445992,54.8042365 0.699257148,55.0998907 0.875827038,55.3301993 C1.05239693,55.5605078 1.32030798,55.7027521 1.61,55.72 C4.84523806,56.0796878 8.11196896,56.0494713 11.34,55.63 C15.1658572,55.1531524 19.0149486,54.8860862 22.87,54.83 L23.4,54.83 C23.84,54.83 24.14,54.83 24.28,54.83 L24.37,54.83 C28.7630795,54.8305918 33.1517629,55.107807 37.51,55.66 C39.248107,55.8788366 40.9981711,55.9890505 42.75,55.9900721 C44.2202963,55.9928812 45.6894927,55.9094042 47.15,55.74 C47.4538091,55.7461522 47.7439335,55.6138298 47.9384672,55.3803894 C48.133001,55.1469489 48.2108366,54.8377192 48.15,54.54 C47.25,50.43 45.41,48.52 44.5,47.79 Z M18.92,5.79 C21.988322,3.25871056 26.4454438,3.34793798 29.41,6 L34.7,10.66 L27.7,10.66 C26.5489674,10.6627326 25.4402219,11.0941094 24.59,11.87 C21.3849875,11.0680631 18.0938168,10.6617043 14.79,10.66 L13.05,10.66 L18.92,5.79 Z M6.07,15.79 L13.07,15.79 C13.6222847,15.79 14.07,15.3422847 14.07,14.79 C14.07,14.2377153 13.6222847,13.79 13.07,13.79 L6.07,13.79 C6.07,13.08 6.28,12.73 6.48,12.65 L14.78,12.65 C18.1118206,12.6532246 21.4292688,13.086812 24.65,13.94 C25.0189457,14.0286294 25.4062701,13.9008124 25.65,13.61 C26.1310252,12.9912307 26.8663694,12.6235586 27.65,12.61 L41.83,12.61 C42.03,12.69 42.23,13.04 42.24,13.75 L39.9,13.75 C39.3477153,13.75 38.9,14.1977153 38.9,14.75 C38.9,15.3022847 39.3477153,15.75 39.9,15.75 L42.27,15.75 L42.59,16.64 L42.59,16.64 C42.6220038,16.6992903 42.6220038,16.7707097 42.59,16.83 C42.5524273,16.8870696 42.48832,16.9210088 42.42,16.92 L5.64,17 L6.07,15.79 Z M37.76,53.65 C33.3186967,53.0894977 28.8465318,52.8089437 24.37,52.81 L24.26,52.81 L22.89,52.81 C18.5147373,52.7109247 14.4794237,50.4286264 12.14,46.73 C11.9981318,46.5058657 11.7730246,46.3472806 11.5142145,46.2891421 C11.2554043,46.2310036 10.9840988,46.2780757 10.76,46.42 C10.5358657,46.5618682 10.3772806,46.7869754 10.3191421,47.0457855 C10.2610036,47.3045957 10.3080757,47.5759012 10.45,47.8 C11.8607293,50.0665111 13.8624405,51.9057345 16.24,53.12 C14.51,53.25 12.79,53.41 11.09,53.63 C8.38408293,53.9779135 5.64917766,54.0415939 2.93,53.82 C3.31881603,52.2367386 4.11917485,50.7843633 5.25,49.61 C6.54791384,50.7627452 8.02360787,51.6981393 9.62,52.38 C9.74218173,52.4361093 9.8755956,52.4634762 10.01,52.46 C10.4848325,52.4590911 10.893553,52.1243924 10.9880733,51.6590618 C11.0825935,51.1937311 10.8368475,50.7260939 10.4,50.54 C8.90390638,49.8975325 7.53029982,49.0009667 6.34,47.89 C6.5,43.15 6.81,38.37 7.27,33.67 C7.65902181,28.732045 8.40767443,23.8290388 9.51,19 L39.51,19 C40.5271172,23.7893852 41.2881971,28.6295861 41.79,33.5 C42.271409,38.2647379 42.5083863,43.0510114 42.5,47.84 C41.3178584,48.6040831 40.0264424,49.1840401 38.67,49.56 C38.1177153,49.6428427 37.7371573,50.1577153 37.82,50.71 C37.9028427,51.2622847 38.4177153,51.6428427 38.97,51.56 C39.0751686,51.5579733 39.1795273,51.5411413 39.28,51.51 C40.7708758,51.0793514 42.1945401,50.4432461 43.51,49.62 C44.6771701,50.7977978 45.5031418,52.2700319 45.9,53.88 C43.1860747,54.0875932 40.4578733,54.0105064 37.76,53.65 L37.76,53.65 Z"/>
        <circle id="Oval" cx="35.77" cy="51.51" r="1" fill="#3D454C"/>
        <circle id="Oval" cx="18.17" cy="8.97" r="1" fill="#3D454C"/>
        <circle id="Oval" cx="20.97" cy="6.91" r="1" fill="#3D454C"/>
        <circle id="Oval" cx="23.21" cy="9.31" r="1" fill="#3D454C"/>
        <circle id="Oval" cx="24.34" cy="5.91" r="1" fill="#3D454C"/>
        <circle id="Oval" cx="26.87" cy="8.11" r="1" fill="#3D454C"/>
        <circle id="Oval" cx="30.27" cy="9.11" r="1" fill="#3D454C"/>
        <path id="Path" fill="#3D454C" d="M22.66 30.78C22.1077153 30.78 21.66 31.2277153 21.66 31.78 21.66 32.3322847 22.1077153 32.78 22.66 32.78 23.2122847 32.78 23.66 32.3322847 23.66 31.78 23.66 31.2277153 23.2122847 30.78 22.66 30.78zM28.66 32.38C28.1077153 32.38 27.66 32.8277153 27.66 33.38 27.66 33.9322847 28.1077153 34.38 28.66 34.38 29.2122847 34.38 29.66 33.9322847 29.66 33.38 29.66 32.8277153 29.2122847 32.38 28.66 32.38zM28.26 27.18C27.7077153 27.18 27.26 27.6277153 27.26 28.18 27.26 28.7322847 27.7077153 29.18 28.26 29.18 28.8122847 29.18 29.26 28.7322847 29.26 28.18 29.26 27.6277153 28.8122847 27.18 28.26 27.18zM24.26 38.78C23.7077153 38.78 23.26 39.2277153 23.26 39.78 23.26 40.3322847 23.7077153 40.78 24.26 40.78 24.8122847 40.78 25.26 40.3322847 25.26 39.78 25.26 39.2277153 24.8122847 38.78 24.26 38.78zM16.26 34C15.7077153 34 15.26 34.4477153 15.26 35 15.26 35.5522847 15.7077153 36 16.26 36 16.8122847 36 17.26 35.5522847 17.26 35 17.26 34.4477153 16.8122847 34 16.26 34zM24.66 34.78C24.1077153 34.78 23.66 35.2277153 23.66 35.78 23.66 36.3322847 24.1077153 36.78 24.66 36.78 25.2122847 36.78 25.66 36.3322847 25.66 35.78 25.66 35.2277153 25.2122847 34.78 24.66 34.78zM18.26 39.58C17.7077153 39.58 17.26 40.0277153 17.26 40.58 17.26 41.1322847 17.7077153 41.58 18.26 41.58 18.8122847 41.58 19.26 41.1322847 19.26 40.58 19.26 40.0277153 18.8122847 39.58 18.26 39.58zM17.46 28.38C18.0122847 28.38 18.46 27.9322847 18.46 27.38 18.46 26.8277153 18.0122847 26.38 17.46 26.38 16.9077153 26.38 16.46 26.8277153 16.46 27.38 16.46 27.9322847 16.9077153 28.38 17.46 28.38zM23.46 25.58C24.0122847 25.58 24.46 25.1322847 24.46 24.58 24.46 24.0277153 24.0122847 23.58 23.46 23.58 22.9077153 23.58 22.46 24.0277153 22.46 24.58 22.46 25.1322847 22.9077153 25.58 23.46 25.58zM34.66 34.38C34.1077153 34.38 33.66 34.8277153 33.66 35.38 33.66 35.9322847 34.1077153 36.38 34.66 36.38 35.2122847 36.38 35.66 35.9322847 35.66 35.38 35.66 34.8277153 35.2122847 34.38 34.66 34.38zM29.86 38C29.3077153 38 28.86 38.4477153 28.86 39 28.86 39.5522847 29.3077153 40 29.86 40 30.4122847 40 30.86 39.5522847 30.86 39 30.86 38.4477153 30.4122847 38 29.86 38z"/>
      </g>
    </g>
  </g>
</svg>
