<svg xmlns="http://www.w3.org/2000/svg" width="64" height="64" viewBox="0 0 64 64" style="background:#fff">
  <g id="Wachsbohnen" fill="none" fill-rule="evenodd" stroke="none" stroke-width="1">
    <rect width="64" height="64" fill="#FFF"/>
    <g transform="translate(2 4)">
      <g id="Layer_2">
        <rect id="Rectangle" width="60" height="60" x="0" y="0"/>
      </g>
      <g id="Layer_1" fill-rule="nonzero" transform="translate(6 2)">
        <path id="Path" fill="#D4BA39" d="M46.77 41.14C43.77 34.35 38.42 28.72 35.3 21.87 32.45 15.61 30.83 8.64 27.48 2.64 26.13.21 24.38 3.35 24.32 4.74 23.97 12.56 27.1 20.74 30.24 27.74 33.1 34.11 36.79 43.65 42.54 48 46.47 50.88 47.86 43.63 46.77 41.14zM37.7 46.63C34.7 43.36 31.51 40.84 29.05 37.07 26.82 33.65 25.05 29.98 22.93 26.47 19.49 20.66 14.8 13.91 7.93 12.1 5.16 11.38 5.19 16.16 6.59 17.44 13.19 23.44 16.72 30.28 20.69 38.1 23.75 44.1 28.36 53.67 35.48 55.54 40.33 56.82 39.66 48.82 37.7 46.63z" opacity=".5"/>
        <path id="Shape" fill="#3D454C" d="M39.38 48.88C37.9675545 46.6571592 35.943074 44.8896454 33.55 43.79 33.1 42.45 31.68 38.79 28.87 36.63 28.51 35.17 27.31 31.09 24.68 29.23 24.1042391 26.0708317 22.3080947 23.2652541 19.68 21.42 18.4987574 18.7677619 16.3168446 16.6900921 13.61 15.64 12.0433827 14.282166 10.1747394 13.3187004 8.16 12.83 7.72464243 12.7311564 7.27009476 12.758915 6.85 12.91 5.94 12.23 4.02999944 11.31.85 11.96.29771525 12.0704569-.06045695 12.6077153.05 13.16.16045695 13.7122847.69771525 14.0704569 1.25 13.96 2.6749314 13.5436561 4.20679318 13.7090684 5.51 14.42 5.42327593 14.8024854 5.47649283 15.203386 5.66 15.55 6.55839837 17.2197834 8.00707441 18.5271252 9.76 19.25 10.4052056 21.6685321 12.0743984 23.6847125 14.33 24.77 14.62 26.27 15.66 30.25 18.69 32.37 18.79 33.92 19.35 38.03 22.32 39.86 22.67 41.44 23.97 45.8 27.87 47.61 29.2037894 50.4361432 31.8971716 52.3777961 35 52.75 36.8980306 53.7761593 39.0332607 54.2832333 41.19 54.22 41.7515079 54.2207037 42.3125404 54.1873089 42.87 54.12 43.4993348 54.057249 44.0383323 53.6423373 44.26 53.05 44.4523284 52.5756609 44.3507769 52.0327511 44 51.66 42.7849298 50.2774004 41.1706603 49.3060435 39.38 48.88L39.38 48.88zM36.22 51.15C35.9800059 50.9569318 35.6940194 50.8294438 35.39 50.78 32.8598871 50.546851 30.649458 48.9739722 29.6 46.66 29.4286275 46.2623844 29.1095266 45.9468688 28.71 45.78 25.36 44.27 24.35 40.06 24.18 39.23 24.0808864 38.7743026 23.789049 38.38397 23.38 38.16 21 36.74 20.65 32.78 20.61 32 20.5832072 31.4924238 20.3108125 31.0297259 19.88 30.76 17.23 29 16.39 25.26 16.2 24.16 16.0978351 23.6134076 15.7192087 23.1590559 15.2 22.96 13.381864 22.1114115 12.049359 20.4807494 11.58 18.53 11.4397638 17.9999045 11.0468012 17.5732593 10.53 17.39 9.27245616 16.8749247 8.21858328 15.9615682 7.53 14.79 7.58836462 14.7701886 7.65163538 14.7701886 7.71 14.79 9.41610184 15.1999877 10.9977326 16.0165346 12.32 17.17 12.4884497 17.3212553 12.6857328 17.436904 12.9 17.51 15.1401383 18.3896767 16.9388187 20.1236045 17.9 22.33 18.0246886 22.626875 18.237644 22.8782321 18.51 23.05 20.7782836 24.6147153 22.315337 27.0321468 22.77 29.75 22.8457083 30.1906245 23.1034257 30.5790156 23.48 30.82 25.21 32 26.44 35 27 37.25 27.0912593 37.6123592 27.307227 37.9310001 27.61 38.15 30.22 40.08 31.51 43.85 31.74 44.58 31.90256 45.0489123 32.2710877 45.41744 32.74 45.58 34.8378554 46.5215887 36.6042688 48.0719911 37.81 50.03 38.0904682 50.4640881 38.5475535 50.752966 39.06 50.82 40.0388515 51.0457305 40.9440118 51.5172399 41.69 52.19 39.8085709 52.3033088 37.9285692 51.9458679 36.22 51.15L36.22 51.15zM43.27 39.07C43.1763499 38.9750943 43.1320233 38.8421146 43.15 38.71 43.1240578 36.3822645 42.3216296 34.1298344 40.87 32.31 40.8113787 32.2179295 40.7866296 32.1083267 40.8 32 40.9135485 29.5695833 40.0533714 27.1941988 38.41 25.4 38.3426263 25.296531 38.3142683 25.1724645 38.33 25.05 38.5154675 22.5565835 37.4834571 20.127447 35.56 18.53 35.4762057 18.4222878 35.4400789 18.2850058 35.46 18.15 35.5547605 15.9100127 34.5178223 13.772267 32.7 12.46 32.6070476 12.3717728 32.5561228 12.2480983 32.56 12.12 32.4144997 9.9520069 31.3159108 7.95989906 29.56 6.68 29.505098 6.63060074 29.4696362 6.56322335 29.46 6.49 29.1673311 4.96246004 28.2160629 3.64166062 26.86 2.88 25.7499116 1.09688165 23.7325477.0881997124 21.64.27 21.1021253.347573201 20.7246565.840502982 20.79 1.38 20.8577005 1.92595654 21.3536794 2.31469672 21.9 2.25 23.150918 2.1834032 24.3469404 2.77005977 25.06 3.8 24.41931 5.60853833 24.4405693 7.58565651 25.12 9.38 25.1420826 9.47202716 25.1420826 9.56797284 25.12 9.66 25.0182155 11.8084534 25.8537068 13.8953575 27.41 15.38 27.4863031 15.4646707 27.525868 15.5761718 27.52 15.69 27.5428453 17.8407309 28.3996978 19.8986109 29.91 21.43 29.983057 21.5238168 30.0186916 21.6414109 30.01 21.76 29.9812514 23.971354 30.7842991 26.1128146 32.26 27.76 32.3270121 27.8383669 32.3657514 27.936976 32.37 28.04 32.4213131 30.5552398 33.4131756 32.9599711 35.15 34.78 35.2076656 34.8544709 35.2392848 34.9458155 35.24 35.04 35.2791073 38.0287119 36.5793867 40.8617229 38.82 42.84 40.1541415 44.8613676 42.3984506 46.0957376 44.82 46.1400614 45.2406879 46.1420031 45.6601787 46.0950201 46.07 46 46.5152375 45.8754894 46.817082 45.4620038 46.8 45 46.66 42.31 44.53 40.13 43.27 39.07zM40.46 41.63C40.3522951 41.4890028 40.2280754 41.3614259 40.09 41.25 38.3069243 39.6603199 37.2820081 37.3887858 37.27 35 37.2663223 34.3971671 37.034017 33.8181906 36.62 33.38 35.2307806 31.9289942 34.4382895 30.0084528 34.4 28 34.3924945 27.4250755 34.1796876 26.8717776 33.8 26.44 32.6494411 25.1874779 32.0075858 23.5507469 32 21.85 32.0571751 21.1742345 31.8328382 20.5048421 31.38 20 30.2312039 18.8406862 29.5754382 17.2818989 29.55 15.65 29.557351 15.0029373 29.3052484 14.3798837 28.85 13.92 27.6994519 12.8456804 27.0749605 11.3227979 27.14 9.75 27.1762549 9.34137817 27.1145484 8.93000133 26.96 8.55 26.5542872 7.49819138 26.4707419 6.34944287 26.72 5.25 27.1131252 5.69847595 27.3789982 6.24403351 27.49 6.83 27.6014596 7.38640032 27.9104825 7.88367856 28.36 8.23 29.6426709 9.15090341 30.4489568 10.5948882 30.56 12.17 30.5774836 12.889207 30.9193493 13.5619107 31.49 14 32.7932509 14.9066902 33.5465984 16.4133851 33.49 18 33.4224531 18.7560989 33.7196393 19.4990642 34.29 20 35.7231434 21.1821502 36.4915847 22.9876143 36.35 24.84 36.2851679 25.5036252 36.4947437 26.1648728 36.93 26.67 38.2106629 28.0565601 38.8901931 29.8938082 38.82 31.78 38.7611746 32.3976584 38.9360092 33.0149312 39.31 33.51 40.4753799 34.9584073 41.1293004 36.7514151 41.17 38.61 41.1194983 39.3696458 41.4264667 40.1093287 42 40.61 43.1665015 41.5424057 44.0752724 42.7575424 44.64 44.14 42.9326418 43.9973689 41.3883008 43.0700254 40.46 41.63L40.46 41.63z"/>
      </g>
    </g>
  </g>
</svg>
