<svg xmlns="http://www.w3.org/2000/svg" width="64" height="64" viewBox="0 0 64 64" style="background:#fff">
  <g id="Wacholderbeeren" fill="none" fill-rule="evenodd" stroke="none" stroke-width="1">
    <rect width="64" height="64" fill="#FFF"/>
    <g transform="translate(2 8)">
      <g id="Layer_2">
        <rect id="Rectangle" width="60" height="60" x="0" y="0"/>
      </g>
      <g id="Layer_1" fill-rule="nonzero" transform="translate(2 8)">
        <path id="Path" fill="#31E085" d="M54 12.28C53.81 11.4 53.22 9.87 52.17 9.65 50.01 9.18 48.46 10.44 46.85 11.76L46.32 12.23C46.8817725 11.2195233 47.2895976 10.1308661 47.53 9 47.96 6.81 46.24 2.35 43.53 4.51 42.21 5.51 41.53 7.51 40.82 9.03 39.8779367 10.7520344 39.1684175 12.5914039 38.71 14.5 38.35 16.41 39.83 20.27 42.21 18.4L42.21 18.4C42.1540783 19.2290927 42.2874412 20.0600461 42.6 20.83 43.04 21.88 44.25 23.21 45.52 22.54 46.94367 21.698088 48.3009514 20.7486596 49.58 19.7 51.03 18.63 52.63 17.7 53.45 16.06 54.0658123 14.9018002 54.2602235 13.5656654 54 12.28L54 12.28zM14.46.26C12.973402-.0425050314 11.520047.907079664 11.2 2.39 10.590753 4.18893553 10.8066639 6.16506891 11.79 7.79 12.2517818 8.51639432 12.7953318 9.18744365 13.41 9.79 13.62 10 13.84 10.2 14.05 10.42L14.36 10.81C15.0865226 11.9266764 15.8883845 12.9924844 16.76 14 17.4903416 14.6971451 18.6396584 14.6971451 19.37 14 20.2217277 13.0685784 20.6553123 11.829249 20.57 10.57 20.5062174 8.27320852 19.7956613 6.04102263 18.52 4.13 17.6 2.58 16.25.69 14.46.26zM13 12.93C11.59 11.41 10.31 10.01 8.19 9.64 7.19 9.46 6.34 10.84 6.07 11.64 5.63456969 12.8989949 5.66651418 14.2726078 6.16 15.51 6.64023312 16.6909305 7.3353203 17.772554 8.21 18.7 5.88417701 18.4655671 3.53778055 18.8520324 1.41 19.82-.59 20.67-.24 24.53 1.55 25.38 3.91 26.49 7.42 27.38 9.93 26.38 11.46 25.72 11.93 23.7 11.56 21.93 12.65 22.82 13.88 23.54 15.27 23.1 16.82 22.6 16.9 20.1 16.72 18.89 16.38 16.44 14.56 14.61 13 12.93z" opacity=".5"/>
        <path id="Path" fill="#4885E0" d="M48.51,30.08 C48.11,25.44 43.28,23.26 42.19,28.94 C40.91,35.58 32.52,32.31 28.82,29.75 C29.82,29.75 30.82,29 31.5,27.39 C32.28,25.59 35.01,25.61 36.4,24.39 C38.4,22.64 38.31,18.09 36.21,16.44 C33.34,14.19 30.08,15.88 27.89,18.44 C25.08,16.29 21.77,15.28 18.47,18.04 C17.08,19.2 16.95,23.52 19.13,24.04 C20.4,24.34 25.13,25.18 25.4,26.29 C25.6286392,27.2556065 26.1161037,28.1406484 26.81,28.85 C26.2236217,28.9016055 25.6662357,29.1280436 25.21,29.5 C23.6996757,30.7545728 21.9146511,31.6350936 20,32.07 C18.45,32.35 14,32.51 14.33,29.54 C14.53,27.75 12.78,23.87 10.91,26.65 C8.07,30.87 9.5,37 13.58,40 C17.85,43.12 22.83,41.49 26.89,39 C30.89,41.82 35.77,43.86 40.69,42.15 C45.7374563,40.3722279 48.9503245,35.4132357 48.51,30.08 Z" opacity=".5"/>
        <path id="Path" fill="#3D454C" d="M44.47,11 C44.846476,10.7857549 44.9913765,10.3156421 44.8008397,9.92662953 C44.6103029,9.53761691 44.1500581,9.36390185 43.75,9.53 C43.373524,9.74424506 43.2286235,10.2143579 43.4191603,10.6033705 C43.6096971,10.9923831 44.0699419,11.1660982 44.47,11 L44.47,11 Z"/>
        <path id="Shape" fill="#3D454C" d="M39.12,22.17 C39.4219787,18.1133321 37.4125341,14.2326458 33.9253746,12.1380183 C30.4382152,10.0433908 26.0684091,10.092261 22.6289669,12.2643528 C19.1895247,14.4364446 17.2673719,18.3611003 17.66,22.41 C12.3811658,22.9906879 8.42892694,27.5211972 8.57,32.83 C8.57,43.83 22.65,46.9 28.37,38.72 C30.3554325,41.7664616 33.7338226,43.6170686 37.37,43.65 C43.49,43.65 47.87,38.7 48.19,32.83 C48.0701054,27.5780777 44.2849467,23.1293686 39.12,22.17 L39.12,22.17 Z M28.38,12.56 C33.7,12.56 37.26,17.06 37.14,22.03 C33.5882183,22.1289189 30.3108851,23.9637771 28.37,26.94 C26.3722134,24.0869504 23.1322766,22.3592318 19.65,22.29 C19.39,17.22 23,12.56 28.38,12.56 Z M10.57,32.83 C10.57,23.23 23,21.35 27.3,29 C26.8781548,30.0905429 26.6350305,31.2420065 26.58,32.41 C26.5305656,33.8574965 26.7755126,35.2999619 27.3,36.65 C23,44.31 10.57,42.41 10.57,32.83 Z M29.33,36.63 C29.3045364,36.4727605 29.2391129,36.3246968 29.14,36.2 C28.6942971,34.9887189 28.5036459,33.6984188 28.58,32.41 C28.6233611,31.3435715 28.8464983,30.2921221 29.24,29.3 C29.2690862,29.242399 29.2925289,29.182118 29.31,29.12 C32.58,21.47 45.66,23.06 46.2,32.83 C45.67,42.75 32.61,43.93 29.33,36.63 L29.33,36.63 Z"/>
        <path id="Path" fill="#3D454C" d="M41.41 17.15L43.23 13.9C43.86 12.77 42.13 11.76 41.5 12.9L39.68 16.15C39.4315983 16.6248504 39.6016763 17.2111063 40.0656398 17.4792932 40.5296032 17.7474802 41.122504 17.6022526 41.41 17.15zM15 20.92C15.2518722 21.1736586 15.619937 21.2736765 15.9655479 21.182378 16.3111588 21.0910796 16.5818093 20.8223351 16.6755479 20.477378 16.7692866 20.132421 16.6718722 19.7636586 16.42 19.51 15.06 18.14 13.69 16.78 12.33 15.42 11.9406392 15.0278778 11.3071222 15.0256393 10.915 15.415 10.5228778 15.8043608 10.5206393 16.4378778 10.91 16.83L15 20.92zM27.85 16.92C28.4022847 16.92 28.85 16.4722847 28.85 15.92 28.85 15.3677153 28.4022847 14.92 27.85 14.92 27.2977153 14.92 26.85 15.3677153 26.85 15.92 26.85 16.4722847 27.2977153 16.92 27.85 16.92zM15.05 35.45C14.4977153 35.45 14.05 35.8977153 14.05 36.45 14.05 37.0022847 14.4977153 37.45 15.05 37.45 15.6022847 37.45 16.05 37.0022847 16.05 36.45 16.05 35.8977153 15.6022847 35.45 15.05 35.45zM42 33.85L41.74 33.85C41.1877153 33.85 40.74 34.2977153 40.74 34.85 40.74 35.4022847 41.1877153 35.85 41.74 35.85L42 35.85C42.5522847 35.85 43 35.4022847 43 34.85 43 34.2977153 42.5522847 33.85 42 33.85zM17.11 12.16C17.4116091 12.5747221 17.9780449 12.6940875 18.421363 12.4363444 18.8646812 12.1786013 19.0411896 11.6272916 18.83 11.16L14.31 3.43C14.022504 2.9777474 13.4296032 2.8325198 12.9656398 3.10070677 12.5016763 3.36889375 12.3315983 3.95514957 12.58 4.43L17.11 12.16zM21.7 9.25C21.61 7.82 21.53 6.4 21.45 4.98 21.37 3.56 19.38 3.69 19.45 4.98 19.52 6.27 19.61 7.82 19.7 9.25 19.79 10.68 21.77 10.53 21.7 9.25zM48.94 15.58L43.34 19.31C42.27 20.02 43.27 21.75 44.34 21.03L50 17.3C51 16.59 50 14.86 48.94 15.58zM9.18 20.52L4.92 20.52C4.36771525 20.52 3.92 20.9677153 3.92 21.52 3.92 22.0722847 4.36771525 22.52 4.92 22.52L9.18 22.52C9.73228475 22.52 10.18 22.0722847 10.18 21.52 10.18 20.9677153 9.73228475 20.52 9.18 20.52zM8.92 14.52C9.47228475 14.52 9.92 14.0722847 9.92 13.52 9.92 12.9677153 9.47228475 12.52 8.92 12.52 8.36771525 12.52 7.92 12.9677153 7.92 13.52 7.92 14.0722847 8.36771525 14.52 8.92 14.52z"/>
      </g>
    </g>
  </g>
</svg>
