<svg xmlns="http://www.w3.org/2000/svg" width="64" height="64" viewBox="0 0 64 64" style="background:#fff">
  <g id="Waldpilze" fill="none" fill-rule="evenodd" stroke="none" stroke-width="1">
    <rect width="64" height="64" fill="#FFF"/>
    <g transform="translate(2 4)">
      <g id="Layer_2">
        <rect id="Rectangle" width="60" height="60" x="0" y="0"/>
      </g>
      <g id="Layer_1" fill-rule="nonzero" transform="translate(6 8)">
        <path id="Path" fill="#CCC" d="M25,38.89 C23.83,36.79 23.13,37.19 23.66,34.89 C24.2129209,33.0020473 24.446139,31.0349031 24.35,29.07 C24.04,25.94 22.35,23.07 19.04,22.68 C16.48,22.42 16.72,27.52 18.14,28.56 C19.03,29.22 19.14,28.44 18.71,29.49 C18.28,30.54 18.03,31.35 17.71,32.28 C17.1042396,34.1876373 16.8766512,36.1951709 17.04,38.19 C17.37,41.83 19.12,46.13 23.04,46.78 C26.75,47.37 25.91,40.54 25,38.89 Z" opacity=".5"/>
        <path id="Path" fill="#E0673A" d="M38.35 5.58C33.92 2.7 27.5-.79 22.09.46 21.720224.546344483 21.3770158.721380692 21.09.97 14.47 1.66 8.23 6.14 2.82 10.77-.13 13.31.82 22.22 5.87 20.82 13.3 18.75 20.93 19.23 28.53 19.68 33.07 19.95 41.44 21.87 43.84 16.61 46.18 11.51 42.23 8.11 38.35 5.58zM43.91 25.56C43.0871402 24.0986478 41.783095 22.9677685 40.22 22.36 40.13 22.28 40.06 22.19 39.97 22.12 37.21 20.19 33.89 22.92 32.35 25.24 30 28.72 31 34.37 35.57 35.12 38.72 35.64 42.57 36.36 44.16 32.88 45.2113806 30.5322851 45.1191069 27.8305124 43.91 25.56L43.91 25.56z" opacity=".5"/>
        <path id="Shape" fill="#3D454C" d="M45.07 13.74C44.409074 12.3760342 43.4277979 11.192327 42.21 10.29 37.4 6.23 28.05 2.45 24.21 1.02 22.6189127.412664665 20.8510467.46667279 19.3 1.17 13.1213365 3.98004023 7.28356255 7.48605964 1.9 11.62.670249675 12.5523431.0865233226 14.1089467.4 15.62.98 18.09 3.61 18.28 4.74 18.36 15.87 19.17 27.16 19.57 38.34 19.57L40.34 19.57C41.6486908 19.6841322 42.9572219 19.3490636 44.05 18.62 45.4201339 17.3911571 45.833235 15.414752 45.07 13.74L45.07 13.74zM42.84 17.06C42.091509 17.4772458 41.2319852 17.6519458 40.38 17.56 28.58 17.61 16.64 17.21 4.88 16.36 3.19 16.24 2.53 15.92 2.35 15.15 2.22033782 14.4047994 2.52217528 13.6502058 3.13 13.2 8.40759036 9.16362154 14.127798 5.74156186 20.18 3 20.7509527 2.73766538 21.371665 2.60124511 22 2.6 22.5397774 2.60133668 23.0749313 2.69956114 23.58 2.89 26.47 3.98 36.26 7.89 40.97 11.82 41.929311 12.5253004 42.7129669 13.4424173 43.26 14.5 43.6634541 15.3579981 43.4964556 16.3758933 42.84 17.06L42.84 17.06zM28.69 23.67C25.0014997 24.4974451 21.1715212 24.4597956 17.5 23.56 17.1310543 23.4713706 16.7437299 23.5991876 16.5 23.89 16.2727367 24.171635 16.2153698 24.5540809 16.35 24.89L16.7 25.66C16.7251243 25.7242065 16.7587582 25.7847477 16.8 25.84L17.01 26.14C17.6174729 27.064273 18.3512492 27.8990278 19.19 28.62 19.1851826 28.659855 19.1851826 28.700145 19.19 28.74 19.1598563 31.2639377 18.7347075 33.767592 17.93 36.16 17.22 38.57 16.63 41.4 17.59 44.03 18.1808826 45.6729111 19.4106675 47.0072818 21 47.73 21.6479151 48.0215817 22.3495162 48.174844 23.06 48.18 23.6285805 48.1791629 24.1918519 48.0705804 24.72 47.86 26.4478107 47.0627376 27.6660235 45.458445 27.97 43.58 28.2407932 41.9511782 28.2407932 40.2888218 27.97 38.66L26.79 29.06C28.2584568 28.1147468 29.37029 26.7073631 29.95 25.06 30.0937688 24.7106178 30.0283597 24.3100373 29.780923 24.0245334 29.5334863 23.7390295 29.1462693 23.6173491 28.78 23.71L28.69 23.67zM25.9 38.9C26.1626297 40.3087061 26.1963964 41.7505439 26 43.17 25.8179749 44.3788824 25.0768517 45.4312772 24 46.01 23.2943274 46.2641108 22.5162071 46.2244843 21.84 45.9 20.7698734 45.4015999 19.9371967 44.504319 19.52 43.4 18.76 41.31 19.28 38.87 19.89 36.77 20.6247157 34.5002433 21.0813845 32.1497419 21.25 29.77 21.7771422 29.9612011 22.3299314 30.0724331 22.89 30.1 23.5637103 30.073511 24.2333829 29.9831052 24.89 29.83L25.9 38.9zM22.82 28.1C21.3962744 27.9557505 20.1102545 27.1863369 19.31 26 21.8869264 26.3943772 24.5072976 26.4145857 27.09 26.06 26.1136543 27.4308019 24.4998774 28.2017866 22.82 28.1zM40.24 22.54C39.1152304 21.5772581 37.4957902 21.4558 36.24 22.24 34.6556137 23.1240408 33.2485732 24.2937492 32.09 25.69 30.89 27.53 30.38 30.42 32.09 32.45 32.5429686 32.9686948 33.0933812 33.3933958 33.71 33.7 32.5661591 35.8287093 31.8429897 38.1577903 31.58 40.56 31.28 43.03 31.84 44.85 33.2 45.84 33.8145685 46.2812752 34.5534397 46.5158931 35.31 46.5101084 36.7579371 46.4797157 38.1144328 45.7959537 39 44.65 40.0686374 43.0671812 40.5497701 41.160339 40.36 39.26 40.36 38.76 40.36 38.26 40.28 37.76 40.1953202 36.7784897 40.1953202 35.7915103 40.28 34.81 41.4770542 34.5860499 42.547116 33.9226116 43.28 32.95 44.3367994 31.4759628 44.6404112 29.5913481 44.1 27.86 43.3776747 25.7388081 42.0324406 23.8847548 40.24 22.54L40.24 22.54zM37.37 43.44C36.6995959 44.4048304 35.4254483 44.7361088 34.37 44.22 33.37 43.51 33.44 41.77 33.56 40.8 33.7843333 38.5559812 34.4649263 36.3814866 35.56 34.41L35.8 34.48C36.5787014 34.694994 37.3752979 34.8389169 38.18 34.91 38.1308943 35.910015 38.147597 36.9121768 38.23 37.91 38.23 38.39 38.3 38.91 38.31 39.34 38.4748205 40.7739528 38.1430425 42.2210695 37.37 43.44L37.37 43.44zM41.67 31.73C40.67 33 38.96 33.27 36.33 32.55 35.3034054 32.3581969 34.3548284 31.8717471 33.6 31.15 32.6 29.97 32.9 28.06 33.73 26.79 34.7453027 25.6450955 35.9452449 24.6783815 37.28 23.93 37.4963966 23.7864587 37.7503241 23.71 38.01 23.71 38.3517086 23.7126244 38.681348 23.8366822 38.94 24.06 40.4154259 25.1598793 41.5351383 26.6690569 42.16 28.4 42.5287376 29.5253518 42.3472737 30.7585658 41.67 31.73z"/>
        <path id="Path" fill="#3D454C" d="M16.67 20.18C16.1177153 20.18 15.67 20.6277153 15.67 21.18 15.67 21.7322847 16.1177153 22.18 16.67 22.18 17.2222847 22.18 17.67 21.7322847 17.67 21.18 17.67 20.6277153 17.2222847 20.18 16.67 20.18zM20.92 20.43C20.3677153 20.43 19.92 20.8777153 19.92 21.43 19.92 21.9822847 20.3677153 22.43 20.92 22.43 21.4722847 22.43 21.92 21.9822847 21.92 21.43 21.92 20.8777153 21.4722847 20.43 20.92 20.43zM25.22 20.48C24.6677153 20.48 24.22 20.9277153 24.22 21.48 24.22 22.0322847 24.6677153 22.48 25.22 22.48 25.7722847 22.48 26.22 22.0322847 26.22 21.48 26.22 20.9277153 25.7722847 20.48 25.22 20.48zM29.47 20.38C28.9177153 20.38 28.47 20.8277153 28.47 21.38 28.47 21.9322847 28.9177153 22.38 29.47 22.38 30.0222847 22.38 30.47 21.9322847 30.47 21.38 30.47 20.8277153 30.0222847 20.38 29.47 20.38z"/>
      </g>
    </g>
  </g>
</svg>
