<svg xmlns="http://www.w3.org/2000/svg" width="64" height="64" viewBox="0 0 64 64" style="background:#fff">
  <g id="Walnüssöl" fill="none" fill-rule="evenodd" stroke="none" stroke-width="1">
    <rect width="64" height="64" fill="#FFF"/>
    <g transform="translate(2 1)">
      <rect id="Rectangle" width="60" height="60" x="0" y=".61"/>
      <path id="Path" fill="#E0A075" fill-rule="nonzero" d="M52,22.55 C51.3991698,22.214865 50.6787702,22.1702972 50.0412131,22.4288188 C49.4036561,22.6873404 48.9177424,23.2210536 48.72,23.88 C47.92,26.24 48.13,28.69 47.55,31.08 C46.9123552,33.4177844 45.8551801,35.6202325 44.43,37.58 C41.6578429,41.4219232 37.1659798,43.6453954 32.43,43.52 C27.8357573,43.3870302 23.548772,41.1810344 20.77,37.52 C17.2,32.82 16.07,27.23 10.09,24.91 C8.09,24.12 5.77,25.13 4.26,26.45 C-3.63,33.37 4,46.16 9.73,51.69 C16.9040286,58.6683405 27.0229727,61.7230458 36.86,59.88 C45.9334656,58.3476655 53.5125912,52.1161092 56.77,43.51 C59.06,37.41 58.89,25.85 52,22.55 Z" opacity=".5"/>
      <path id="Shape" fill="#3D454C" fill-rule="nonzero" d="M53.42,27.58 C52.63,25.84 51.87,25.04 50.94,24.65 C50.7243185,24.4663053 50.4408418,24.3827161 50.16,24.42 C49.06,24.21 47.72,24.31 45.87,24.1 C40,23.43 35.15,23.27 30,26.78 C22.67,31.78 18,43.31 24.12,50.78 C24.1732381,50.9373271 24.2703983,51.0761274 24.4,51.18 C24.4821618,51.2554009 24.5690011,51.3255403 24.66,51.39 L25.03,51.78 L25.03,51.78 C28.0935384,55.7837793 32.7026332,58.311 37.7256281,58.7411618 C42.7486229,59.1713235 47.7203075,57.4645864 51.42,54.04 C59.78,46.42 57.59,36.68 53.42,27.58 Z M26.09,50 C18.62,42 26.54,29.5 35.09,26.39 C39.2,24.9 42.71,25.97 46.89,26.2 C47.89,26.25 48.6,26.2 49.18,26.25 C49,33 51.2,38.84 46.81,45 C42.29,51.4 32.82,55.5 26.09,50 Z M30.53,54.22 C35.26,55.22 40.38,53.61 44.43,50.41 C47.6752298,47.8783879 50.0603691,44.4071896 51.26,40.47 C52.56,36.06 51.36,31.91 51.19,27.56 C51.3578088,27.8541967 51.5080711,28.1580605 51.64,28.47 C54.56,35.11 57.23,41.84 53.2,48.73 C50.9986663,52.5488355 47.3304023,55.3004334 43.0480925,56.3450375 C38.7657827,57.3896415 34.2425275,56.6362394 30.53,54.26 L30.53,54.22 Z"/>
      <path id="Shape" fill="#3D454C" fill-rule="nonzero" d="M37.48,48.31 C38.0032402,48.917953 38.7927867,49.2285329 39.59,49.14 C41.123292,48.9227436 42.3994559,47.8521623 42.88,46.38 C42.9800483,46.0247499 43.0601732,45.6641882 43.12,45.3 C43.35,44.11 43.47,43.82 44.12,43.7 C45.3449613,43.526728 46.4162404,42.7853584 47.01,41.7 C47.6004463,40.5436357 47.6299129,39.1808045 47.09,38 L46.79,37.41 C47.2028987,36.8990488 47.5552451,36.342006 47.84,35.75 C48.397361,34.871259 48.3495019,33.7385919 47.72,32.91 C46.9138982,32.062693 45.6974621,31.745025 44.58,32.09 C43.6056162,32.3070972 42.865939,33.1024491 42.72,34.09 C42.4430509,34.6237825 42.0740568,35.1044903 41.63,35.51 L41.63,35.51 C41.2497901,35.9389078 40.7412103,36.2335333 40.18,36.35 C40.423088,35.650518 40.423088,34.889482 40.18,34.19 C40.05,33.77 40.05,33.77 40.47,33.39 C40.740194,33.1936156 41.0659799,33.0885234 41.4,33.09 L41.6,33.09 C42.5901573,32.9495052 43.3881439,32.2073777 43.6,31.23 C43.9678588,30.0703114 43.6372761,28.8024296 42.75,27.97 C41.9257433,27.3520778 40.8076116,27.3005327 39.93,27.84 C39.3343595,28.122241 38.7766374,28.4783768 38.27,28.9 C38.0751743,28.7899697 37.8749196,28.6898424 37.67,28.6 C36.5097078,28.0445889 35.1602922,28.0445889 34,28.6 C32.9106191,29.1843515 32.1670266,30.2551246 32,31.48 C31.88,32.16 31.59,32.28 30.4,32.48 C30.0323365,32.5431794 29.6684478,32.6266401 29.31,32.73 C27.8001572,33.1655586 26.6852132,34.4448101 26.46,36 C26.3654503,36.7959319 26.6727969,37.5867872 27.28,38.11 C25.4649939,39.0602923 24.5137126,41.1104676 24.96,43.11 C25.47,44.75 26.44,45.73 27.62,45.78 C28.32,45.78 29.7,45.5 30.72,43.03 C30.93,42.7 32.42,42.56 33.06,42.5 C32.99,43.14 32.8,44.6 32.48,44.78 C30.03,45.78 29.72,47.16 29.76,47.89 C29.76,49.09 30.82,50.11 32.46,50.62 C32.7845701,50.7158889 33.1215757,50.7630697 33.46,50.7601407 C35.1425135,50.7237262 36.6766157,49.7887634 37.48,48.31 L37.48,48.31 Z M33.05,48.72 C32.12,48.44 31.76,48.01 31.75,47.82 C31.74,47.63 32.13,47.11 33.24,46.64 C34.68,46.05 34.9,44.06 35.06,42.64 C35.0864992,42.3041529 35.133251,41.9702121 35.2,41.64 C35.3081156,41.2860862 35.2119438,40.9013989 34.95,40.64 C34.7629286,40.4491444 34.5072459,40.3411094 34.24,40.34 C34.1502598,40.3303293 34.0597402,40.3303293 33.97,40.34 C33.6392448,40.401271 33.3054272,40.4446673 32.97,40.47 C31.43,40.61 29.5,40.79 28.91,42.23 C28.38,43.5 27.84,43.78 27.74,43.75 C27.64,43.72 27.19,43.43 26.9,42.49 C26.7193633,41.3848316 27.2897028,40.2930388 28.3,39.81 C29.16,39.42 30,38.96 30.02,38.1 C30.04,37.24 29.32,36.92 28.89,36.71 L28.75,36.63 C28.5484817,36.5591012 28.4322874,36.3482301 28.48,36.14 C28.6185056,35.4192066 29.12835,34.8256565 29.82,34.58 C30.11,34.49 30.41,34.44 30.7,34.38 C31.82,34.17 33.52,33.85 33.9,31.75 C33.9656416,31.1257801 34.3416777,30.5767673 34.9,30.29 C35.5000472,30.0152619 36.1899528,30.0152619 36.79,30.29 L37.43,30.61 C38.11,30.96 38.64,31.16 39.36,30.48 C39.788596,30.0689327 40.2818355,29.7310974 40.82,29.48 C40.96,29.4 41.32,29.25 41.47,29.37 C41.7227889,29.7043466 41.7973738,30.1406683 41.67,30.54 C41.67,30.66 41.54,30.94 41.36,30.96 L41.18,30.96 C40.4420766,31.0012828 39.7386861,31.286156 39.18,31.77 C38.2790859,32.4098501 37.9287408,33.5804149 38.33,34.61 C38.47,35.09 38.59,35.47 37.87,36.48 C37.6922672,36.7322006 37.6409036,37.0523229 37.730815,37.3474669 C37.8207265,37.642611 38.0418444,37.8797257 38.33,37.99 C40.0581729,38.5775203 41.9701923,38.0778774 43.19,36.72 C43.9433901,36.0640049 44.4948144,35.2073899 44.78,34.25 C44.78,34.05 45.09,33.95 45.21,33.92 C45.5654385,33.8022442 45.9557665,33.8617227 46.26,34.08 C46.36,34.2 46.26,34.5 46.15,34.74 C45.8961542,35.2765913 45.5586073,35.7694098 45.15,36.2 C44.8568812,36.4445656 44.6754548,36.7975325 44.647185,37.1782316 C44.6189153,37.5589306 44.7462185,37.934823 45,38.22 L45.33,38.86 C45.6047381,39.4600472 45.6047381,40.1499528 45.33,40.75 C45.0338293,41.2999536 44.4898146,41.6725665 43.87,41.75 C41.76,42.12 41.44,43.82 41.23,44.95 C41.1787273,45.2433251 41.1119673,45.5337312 41.03,45.82 C40.7873093,46.5116853 40.1984529,47.0245602 39.48,47.17 C39.2697706,47.2141162 39.0584152,47.0999842 38.98,46.9 L38.9,46.75 C38.69,46.33 38.33,45.62 37.54,45.62 L37.54,45.62 C36.68,45.62 36.23,46.48 35.83,47.35 C35.3323187,48.39526 34.1820975,48.9620956 33.05,48.72 L33.05,48.72 Z"/>
      <path id="Path" fill="#3D454C" fill-rule="nonzero" d="M52 42.71C52 42.71 51.85 43.2 51.77 43.4 51.61 43.82 51.42 44.23 51.22 44.63 50.88 45.35 50.51 46.06 50.1 46.75 49.43 47.85 51.16 48.86 51.83 47.75 52.3159326 46.9331024 52.7533559 46.0883079 53.14 45.22 53.5729713 44.4408309 53.8641573 43.5909742 54 42.71 54.1 41.43 52.1 41.43 52 42.71zM45.39 51.62C44.26 52.79 42.89 53.08 41.39 53.62 40.18 54.04 40.7 55.97 41.92 55.55 43.74 54.92 45.4 54.5 46.79 53.07 47.7 52.11 46.29 50.69 45.39 51.62zM48.26 49.1C47.8976713 49.2799377 47.6794502 49.6604565 47.7071296 50.0640572 47.734809 50.4676579 48.0029354 50.8148225 48.3864368 50.9436103 48.7699383 51.0723981 49.1932568 50.9574351 49.4589284 50.6523479 49.7246 50.3472606 49.7802818 49.9121576 49.6 49.55 49.3540469 49.0559191 48.7543143 48.8545164 48.26 49.1L48.26 49.1z"/>
      <path id="Shape" fill="#3D454C" fill-rule="nonzero" d="M20.8,53.8 C20.8,59.02 14.95,57.91 11.55,57.91 C9.33,57.91 6.28,58.47 5.26,55.47 C5.14997726,54.6603875 5.14997726,53.8396125 5.26,53.03 L5.26,29 C5.26,26.34 4.85,23.66 5.97,21.23 C7.46,18 10.21,17.23 10.24,13.41 C10.24,12.58 10.32,11.67 10.31,10.79 L15.65,10.79 C15.203847,13.2601807 15.8252016,15.8037374 17.36,17.79 C19.44,20.14 20.8,21.79 20.8,25.18 L20.8,29.62 C20.8,30.1722847 21.2477153,30.62 21.8,30.62 C22.3522847,30.62 22.8,30.1722847 22.8,29.62 C22.8,25.62 23.56,21.38 20.69,18.17 C18.69,15.96 17.82,15.62 17.82,12.51 C17.82,9.96 18.2,10.74 18.6,8.72 C19.51,4.22 17.17,1.81 12.81,1.91 C8.45,2.01 6.56,4.64 7.49,9 C7.87,10.78 8.24,10.19 8.24,12.52 C8.24,15.7 7.24,16 5.24,18.28 C2.74,21.13 3.24,24.28 3.24,27.86 L3.24,45 C3.24,48.38 2.71,52.23 3.24,55.57 C4.05,60.69 9.24,59.96 13.24,59.96 C18.24,59.96 22.81,60.06 22.81,53.85 C22.8238071,53.2949538 22.3850462,52.8338072 21.83,52.82 C21.2749538,52.8061929 20.8138071,53.2449538 20.8,53.8 L20.8,53.8 Z M9.46,5.89 C10.73,2.72 15.77,3.56 16.6,6.29 C16.8514835,7.1507316 16.7047485,8.07883078 16.2,8.82 L10,8.82 C9.58,7.93 9,7 9.46,5.89 Z"/>
      <path id="Shape" fill="#3D454C" fill-rule="nonzero" d="M14,29.89 L14,29.83 L14,29.83 L14,29.77 C13.8108336,29.5220854 13.5168422,29.3766094 13.205,29.3766094 C12.8931578,29.3766094 12.5991664,29.5220854 12.41,29.77 L12.36,29.83 L12.36,29.83 L12.36,29.88 C12.36,29.88 12.36,29.88 12.36,29.88 C10.61,32.56 8.3,35.78 7.85,39 C7.62320108,40.6057435 8.08259731,42.2328037 9.11571099,43.4828142 C10.1488247,44.7328247 11.6602745,45.4903794 13.28,45.57 C14.876644,45.495032 16.3703429,44.7599763 17.4038387,43.5406409 C18.4373344,42.3213055 18.9176844,40.7273459 18.73,39.14 C18.35,35.87 15.96,32.58 14.2,29.88 L14,29.89 Z M13.09,43.6 C8.6,43.6 9.64,38.6 10.89,36.07 C11.55,34.75 12.3,33.46 13.08,32.2 C13.81,33.36 14.51,34.54 15.13,35.76 C16.43,38.27 17.8,43.6 13.09,43.6 Z"/>
    </g>
  </g>
</svg>
