<svg xmlns="http://www.w3.org/2000/svg" width="64" height="64" viewBox="0 0 64 64" style="background:#fff">
  <g id="Walnüsse" fill="none" fill-rule="evenodd" stroke="none" stroke-width="1">
    <rect width="64" height="64" fill="#FFF"/>
    <g transform="translate(2 4)">
      <rect id="Rectangle" width="60" height="60" x="0" y="0"/>
      <path id="Path" fill="#D4BA39" fill-rule="nonzero" d="M43.2,13.72 C42.5267474,12.3515642 41.5189471,11.1752238 40.27,10.3 C40.3438077,10.0297249 40.3775009,9.75007131 40.37,9.47 C40.37,6.32 36.46,5.14 33.79,5.06 C22.41,4.71 4.13,15.06 6.06,27.69 C7,34 13.4,37.77 19.63,38.33 C26.7647574,38.8120632 33.6963974,35.8355135 38.26,30.33 C42,26 46,19.36 43.2,13.72 Z" opacity=".5"/>
      <path id="Path" fill="#E0A075" fill-rule="nonzero" d="M46.86,10.87 C46.5697966,10.5866672 46.1518041,10.477151 45.7599522,10.5817816 C45.3681002,10.6864122 45.0603373,10.9897166 44.95,11.38 C42.95,19.38 44.49,28.57 38.88,35.45 C36.6303155,38.0664369 33.5202197,39.7934798 30.11,40.32 C26.11,40.79 23.01,39.32 19.19,41.49 C16.73,42.92 16.03,45.58 16.47,48.21 C17.72,55.76 26.72,56.89 32.81,55.79 C39.1684246,54.6559894 44.6779443,50.7185193 47.81,45.07 C53.61,35 54.34,20.3 46.86,10.87 Z" opacity=".5"/>
      <path id="Shape" fill="#3D454C" fill-rule="nonzero" d="M48.83,13.43 C47.76,10.97 46.73,9.84 45.51,9.28 C45.2566075,8.95825083 44.8326391,8.82353188 44.44,8.94 C42.75,8.58 40.62,8.84 37.59,8.3 C30.7,7.09 24.23,8 18.32,12 C8.82,18.39 2.72,33.41 10.77,43.08 C10.8141524,43.2446629 10.9085287,43.3914706 11.04,43.5 L11.48,43.88 L11.87,44.29 C15.9369685,49.6301843 22.1175362,52.9471262 28.8157929,53.3843442 C35.5140495,53.8215622 42.0733537,51.3361951 46.8,46.57 C51.0925477,42.2783866 53.5946322,36.5164434 53.8,30.45 C54,24.34 51.21,18.88 48.83,13.43 Z M21.16,12.59 C27.16,9.33 32.01,9.76 38.61,10.52 C39.95,10.68 42,10.32 43.61,10.52 C43.45,14.2 44.26,17.32 44.61,21 C45.0206962,25.8813605 43.7964633,30.7607026 41.13,34.87 C35.4,43.87 22.02,50.05 12.85,42.43 C4.22,33.17 11.39,17.85 21.16,12.59 Z M17.51,47.09 C24.75,49.21 32.98,46.28 38.69,40.93 C42.6509944,37.2537123 45.3258081,32.4018877 46.32,27.09 C47.32,21.73 45.57,16.66 45.61,11.35 C46.71,12.5 47.35,15.05 47.85,16.29 C51.4,25.09 53.92,33.23 48.08,41.9 C44.819433,46.7761088 39.6954974,50.0950898 33.9124382,51.0769045 C28.1293789,52.0587193 22.1971629,50.6167886 17.51,47.09 Z"/>
      <path id="Shape" fill="#3D454C" fill-rule="nonzero" d="M14.11,36.94 C15.01,36.99 16.75,36.57 18.11,33.29 C18.4,32.59 20.75,32.38 21.88,32.29 L22.29,32.29 L22.29,32.62 C22.15,33.83 21.91,36.09 21.18,36.39 C17.94,37.73 17.53,39.48 17.57,40.39 C17.64,41.91 18.97,43.22 21.13,43.88 C21.5562823,44.0176404 22.0020775,44.0851851 22.45,44.0802774 C24.7641782,44.0111078 26.848589,42.662598 27.86,40.58 L28.06,40.15 C28.6350292,41.2493363 29.8274291,41.8813083 31.06,41.74 C33.0646215,41.4432222 34.7314539,40.0432377 35.37,38.12 C35.5096454,37.6263302 35.6231366,37.1256337 35.71,36.62 C36.02,34.98 36.21,34.24 37.5,34.01 C39.1319349,33.8010482 40.5566326,32.802638 41.31,31.34 C42.0625189,29.8198938 42.0882434,28.041233 41.38,26.5 L40.88,25.5 L40.82,25.39 C41.4794541,24.6420987 42.0283633,23.803581 42.45,22.9 C43.38,21.07 42.84,19.96 42.45,19.46 C41.5732521,18.5471742 40.2441467,18.2305344 39.05,18.65 C37.7187817,18.9542846 36.698777,20.0254864 36.46,21.37 L36.46,21.65 C36.4578674,22.2107702 36.2716639,22.7553276 35.93,23.2 C34.93,24.32 34.1,24.34 33.99,24.2 C33.88,24.06 33.99,23.91 34.26,23.49 C35.89,21.18 36.61,19.75 35.72,18.87 C34.83,17.99 33.42,18.7 31.1,20.33 C30.9057978,20.5074354 30.653039,20.607115 30.39,20.61 C30.3,20.49 30.31,19.7 31.39,18.66 C31.8370704,18.3228311 32.3800861,18.1371547 32.94,18.13 L33.22,18.13 C34.565772,17.8937136 35.6381414,16.8725971 35.94,15.54 C36.3594656,14.3458533 36.0428258,13.0167479 35.13,12.14 C34.63,11.74 33.52,11.19 31.69,12.14 C30.789993,12.5680272 29.9523284,13.1163779 29.2,13.77 L29.09,13.71 C28.85,13.59 28.53,13.42 28.09,13.22 C26.5502713,12.5086166 24.7716206,12.530666 23.25,13.28 C21.8111357,14.0156605 20.816544,15.4013837 20.58,17 C20.35,18.29 19.58,18.48 17.97,18.79 C17.4643663,18.8768634 16.9636698,18.9903546 16.47,19.13 C14.5454041,19.7665441 13.1445713,21.4343865 12.85,23.44 C12.7086917,24.6725709 13.3406637,25.8649708 14.44,26.44 L14.01,26.64 C11.4673543,27.8366529 10.0958941,30.6377566 10.71,33.38 C11.37,35.6 12.61,36.88 14.11,36.94 Z M14.83,28.54 C16.22,27.91 17.02,27.37 17.04,26.49 C17.06,25.61 16.25,25.19 15.67,24.89 L15.45,24.78 C15.0040964,24.6015882 14.7479994,24.1313774 14.84,23.66 C15.0509255,22.4634898 15.8985788,21.4777571 17.05,21.09 C17.4732258,20.9653442 17.9041435,20.8684712 18.34,20.8 C19.92,20.5 22.07,20.09 22.55,17.39 C22.6595916,16.3765386 23.261964,15.4823336 24.16,15 C25.1313526,14.5544876 26.2486474,14.5544876 27.22,15 C27.62,15.19 27.92,15.35 28.14,15.46 C28.99,15.91 29.55,16.14 30.4,15.35 C31.0437694,14.7597183 31.7759639,14.2738381 32.57,13.91 C33.16,13.61 33.65,13.53 33.85,13.69 C34.1136709,14.0749504 34.1698306,14.565412 34,15 C33.8913442,15.5592486 33.4713329,16.0064829 32.92,16.15 L32.66,16.15 C31.6819585,16.1978047 30.7469922,16.5668703 30,17.2 C28,19.03 28,20.91 28.77,21.88 C29.41,22.67 30.72,23.01 32.19,21.98 C32.63,21.66 33,21.42 33.31,21.22 C33.11,21.53 32.87,21.9 32.55,22.34 C31.55,23.81 31.86,25.12 32.65,25.76 C33.65,26.55 35.5,26.5 37.33,24.53 C37.9443483,23.7799007 38.2956449,22.8489647 38.33,21.88 L38.33,21.62 C38.4756666,21.0699462 38.9218931,20.6508812 39.48,20.54 C39.9155214,20.3675461 40.4087884,20.4277924 40.79,20.7 C40.95,20.9 40.87,21.38 40.57,21.97 C40.2091166,22.7656764 39.7229412,23.4983158 39.13,24.14 C38.34,24.99 38.57,25.55 39.02,26.4 C39.13,26.62 39.29,26.92 39.48,27.32 C39.9309226,28.2901639 39.9309226,29.4098361 39.48,30.38 C39.0131873,31.2669473 38.1439924,31.8712802 37.15,32 C34.45,32.48 34.04,34.63 33.74,36.21 C33.6715288,36.6458565 33.5746558,37.0767742 33.45,37.5 C33.0622429,38.6514212 32.0765102,39.4990745 30.88,39.71 C30.4086226,39.8020006 29.9384118,39.5459036 29.76,39.1 L29.65,38.89 C29.36,38.3 28.96,37.51 28.09,37.51 L28.09,37.51 C27.2,37.51 26.66,38.34 26.03,39.72 C25.2533244,41.341626 23.4900847,42.2457465 21.72,41.93 C20.27,41.48 19.59,40.77 19.57,40.26 C19.55,39.75 20.16,38.93 21.95,38.19 C23.74,37.45 24.05,34.86 24.28,32.79 C24.3132615,32.2987529 24.3834599,31.810707 24.49,31.33 C24.5804197,31.0209597 24.5164961,30.6872871 24.3182609,30.4335461 C24.1200258,30.1798052 23.8117356,30.037044 23.49,30.05 C23.3969565,30.0395974 23.3030435,30.0395974 23.21,30.05 C22.7054835,30.1534349 22.1941518,30.2202756 21.68,30.25 C19.6,30.44 17,30.68 16.25,32.49 C15.5,34.3 14.71,35 14.22,35 L14.22,35 C13.75,35 13.08,34.32 12.64,32.9 C12.2965044,31.1181555 13.1955258,29.3283229 14.83,28.54 Z"/>
      <path id="Path" fill="#3D454C" fill-rule="nonzero" d="M42.52 41.42C42.1576713 41.5999377 41.9394502 41.9804565 41.9671296 42.3840572 41.994809 42.7876579 42.2629354 43.1348225 42.6464368 43.2636103 43.0299383 43.3923981 43.4532568 43.2774351 43.7189284 42.9723479 43.9846 42.6672606 44.0402818 42.2321576 43.86 41.87 43.6140469 41.3759191 43.0143143 41.1745164 42.52 41.42L42.52 41.42zM46.26 35C46.26 35 46.1 35.49 46.03 35.69 45.87 36.11 45.67 36.52 45.48 36.92 45.13 37.64 44.77 38.35 44.36 39.04 44.1488104 39.5072916 44.3253188 40.0586013 44.768637 40.3163444 45.2119551 40.5740875 45.7783909 40.4547221 46.08 40.04 46.5652609 39.2244962 47.0059087 38.3832593 47.4 37.52 47.8325371 36.7370691 48.1236592 35.8840137 48.26 35 48.37 33.75 46.37 33.75 46.26 35zM39.66 43.94C38.53 45.11 37.16 45.4 35.66 45.94 34.45 46.36 34.97 48.29 36.19 47.87 38.01 47.24 39.67 46.82 41.05 45.39 42 44.43 40.56 43 39.66 43.94z"/>
    </g>
  </g>
</svg>
