<svg xmlns="http://www.w3.org/2000/svg" width="64" height="64" viewBox="0 0 64 64" style="background:#fff">
  <g id="Wassermelone" fill="none" fill-rule="evenodd" stroke="none" stroke-width="1">
    <rect width="64" height="64" fill="#FFF"/>
    <g transform="translate(2 5)">
      <g id="Layer_2">
        <rect id="Rectangle" width="60" height="60" x="0" y="0"/>
      </g>
      <g id="Layer_1" fill-rule="nonzero" transform="translate(5 5)">
        <path id="Shape" fill="#E05362" d="M45.84,27.45 C40.64,19.51 35.51,11.59 31.07,3.21 C29.07,-0.65 26.33,0.35 24.91,2.8 C17.55,10 12.1,19.18 6.07,27.47 C4.71,29.34 4.68,35 7.72,35.61 C19.4850021,38.0323579 31.5736827,38.4583013 43.48,36.87 C47.68,36.33 47.61,30.13 45.84,27.45 Z M16,26.72 C19.43,21.72 22.83,16.61 25.73,11.28 C28.56,16.56 31.55,21.76 34.84,26.78 C28.5666283,27.2100282 22.2705055,27.1899769 16,26.72 L16,26.72 Z" opacity=".5"/>
        <path id="Path" fill="#31E085" d="M48.86,37 C44.97,37.72 41.35,39.33 37.44,40.07 C33.5166501,40.794377 29.5282508,41.1060755 25.54,41 C17.54,40.8 10.33,37.68 2.54,37 C-0.31,36.73 0.31,41.92 1.54,43.07 C7.54,48.52 16.91,50.16 24.88,50.49 C32.85,50.82 43.15,50 49.87,45.7 C52.17,44.22 53,36.26 48.86,37 Z" opacity=".5"/>
        <path id="Shape" fill="#3D454C" d="M6.77,36 L7.18,36.16 C13.7282314,38.7185949 20.6996878,40.0212904 27.73,40.0002568 C33.1449101,40.0088625 38.5331017,39.2410452 43.73,37.72 L44.73,37.44 C46.73,36.85 47.73,36.58 48.04,35.68 C48.35,34.78 47.88,34.05 47.04,32.78 C46.77,32.35 46.44,31.84 46.04,31.22 L29.3,2.58 C28.7929366,1.43331478 27.6731865,0.679038662 26.42,0.64 C25.2417596,0.740581007 24.2150296,1.48274912 23.75,2.57 L6.15,32.57 L6.15,32.57 C6,32.84 5.86,33.05 5.74,33.23 C5.34751463,33.6631672 5.18419598,34.2570532 5.3,34.83 C5.51,35.49 6,35.69 6.77,36 Z M7.88,33.65 L7.88,33.65 L25.5,3.53 C25.78,2.99 26.15,2.65 26.5,2.64 L26.5,2.64 C26.83,2.64 27.23,3 27.58,3.64 L44.33,32.21 C44.71,32.85 45.04,33.38 45.33,33.83 C45.62,34.28 45.84,34.63 45.99,34.91 C45.61,35.07 44.88,35.28 44.12,35.5 L43.12,35.78 C38.1223864,37.2513686 32.9397088,37.9989673 27.73,38.0002488 C20.952071,38.0205996 14.2311343,36.7619082 7.92,34.29 L7.57,34.15 L7.88,33.65 Z"/>
        <path id="Shape" fill="#3D454C" d="M26.49 33.78C27.2398607 33.8660893 27.9896562 33.6181924 28.540421 33.1020911 29.0911858 32.5859897 29.3872317 31.8538675 29.35 31.1 29.35 30.25 28.35 25.65 26.49 25.65 24.63 25.65 23.62 30.25 23.62 31.1 23.5858378 31.854807 23.8842698 32.5866527 24.4365124 33.1023356 24.9887549 33.6180186 25.7392965 33.8657022 26.49 33.78L26.49 33.78zM26.49 28.18C26.9350945 29.099494 27.2256524 30.0860395 27.35 31.1 27.35 31.42 27.35 31.78 26.49 31.78 25.63 31.78 25.62 31.42 25.62 31.1 25.7434602 30.0846115 26.0376003 29.0973825 26.49 28.18L26.49 28.18zM34.45 31.15C34.8299606 31.334156 35.2478158 31.4266322 35.67 31.42 35.9390791 31.4180394 36.2072112 31.3878746 36.47 31.33 37.2217493 31.2606116 37.904968 30.8641998 38.3382882 30.2459964 38.7716083 29.627793 38.9111974 28.8503323 38.72 28.12 38.54 27.28 36.59 23.01 34.79 23.38L34.79 23.38C33 23.75 32.94 28.46 33.11 29.3 33.2385288 30.0940604 33.7355928 30.7803055 34.45 31.15zM35.31 25.85C35.9421464 26.6544245 36.4325063 27.5607448 36.76 28.53 36.83 28.84 36.9 29.2 36.05 29.38 35.8190466 29.4535426 35.5709534 29.4535426 35.34 29.38 35.29 29.38 35.15 29.29 35.07 28.9 34.9780691 27.87707 35.0592055 26.8459614 35.31 25.85L35.31 25.85zM17.12 31C17.3860676 31.0584992 17.6575806 31.0886673 17.93 31.09 19.1986828 31.1338161 20.297223 30.216212 20.48 28.96 20.65 28.13 20.59 23.42 18.79 23.04L18.79 23.04C17 22.68 15.05 26.95 14.87 27.78 14.6685388 28.5542402 14.8466803 29.3781449 15.35 30 15.8056347 30.529174 16.4315973 30.8828252 17.12 31L17.12 31zM16.83 28.2C17.1579409 27.2329413 17.6445936 26.3272265 18.27 25.52 18.5236597 26.4984507 18.6082105 27.5130601 18.52 28.52 18.45 28.84 18.38 29.19 17.52 29.01 17.2776768 28.9790875 17.0507382 28.8743466 16.87 28.71 16.87 28.71 16.75 28.54 16.83 28.16L16.83 28.2z"/>
        <path id="Path" fill="#3D454C" d="M50.5 39.22C50.4062813 38.9646006 50.2125517 38.7584084 49.9634832 38.6489692 49.7144148 38.5395301 49.4315085 38.5362914 49.18 38.64 48.77 38.78 48.26 38.96 47.69 39.21 41.2912548 41.5882346 34.5163721 42.7941637 27.69 42.77 19.5176015 42.781351 11.4383156 41.0352158 4 37.65 3.75873762 37.537989 3.48279037 37.5267148 3.23319461 37.6186711 2.98359886 37.7106274 2.78092422 37.898236 2.67 38.14 2.44340049 38.6399117 2.66209018 39.2290349 3.16 39.46 10.8655531 42.9769845 19.2397938 44.7882764 27.71 44.77 34.7792493 44.7873433 41.7940779 43.5340905 48.42 41.07 48.99 40.82 49.42 40.65 49.83 40.52L49.92 40.52C50.1704368 40.4259787 50.3727629 40.235538 50.4817554 39.9912447 50.5907478 39.7469514 50.5973189 39.4691739 50.5 39.22zM23.2 20.23C23.7522847 20.23 24.2 19.7822847 24.2 19.23 24.2 18.6777153 23.7522847 18.23 23.2 18.23 22.6477153 18.23 22.2 18.6777153 22.2 19.23 22.2 19.7822847 22.6477153 20.23 23.2 20.23zM30.17 17.72C30.7222847 17.72 31.17 17.2722847 31.17 16.72 31.17 16.1677153 30.7222847 15.72 30.17 15.72 29.6177153 15.72 29.17 16.1677153 29.17 16.72 29.17 17.2722847 29.6177153 17.72 30.17 17.72z"/>
      </g>
    </g>
  </g>
</svg>
