<svg xmlns="http://www.w3.org/2000/svg" width="64" height="64" viewBox="0 0 64 64" style="background:#fff">
  <g id="Wasser" fill="none" fill-rule="evenodd" stroke="none" stroke-width="1">
    <rect width="64" height="64" fill="#FFF"/>
    <g transform="translate(2 6)">
      <g id="Layer_2">
        <rect id="Rectangle" width="60" height="60" x=".26" y="0"/>
      </g>
      <g id="Layer_1" fill-rule="nonzero" transform="translate(7 2)">
        <path id="Path" fill="#B3B3B3" d="M45.19,22.43 C41,12.92 28.38,11.7 19.49,14.92 C17.4434371,15.6768772 15.4986042,16.6845626 13.7,17.92 C13.63,13.18 13.26,8.37 11.51,4.01 C8.87,-2.54 2.69,0.54 1.67,6.19 C0.76,11.26 1.56,16.45 1.6,21.58 C1.6,26.45 1.36,31.3 0.94,36.15 C0.63,39.75 1.07,44.63 4.63,46.64 C7.93,48.49 10.79,45.9 11.94,42.79 C13.9921765,37.4692961 18.3764548,33.3873819 23.83,31.72 C27.037068,30.7293307 30.4097339,30.3893442 33.75,30.72 C37.05,30.94 40.07,32.12 43.21,30.62 C46,29.28 46.28,24.87 45.19,22.43 Z" opacity=".5"/>
        <path id="Path" fill="#31D4E0" d="M42.23,36 C41.96,34.37 41.06,32.44 39.76,34 C37.17,37 34.11,41.36 34.07,45.5 C34.07,49.34 36.54,53.25 40.55,53.73 C44.56,54.21 46.9,50.73 47.32,47.12 C47.86,42.52 45.37,39 42.23,36 Z" opacity=".5"/>
        <path id="Shape" fill="#3D454C" d="M44.44 41.23C41.56 37.85 41.29 36.68 41.29 36.64 41.29 36.0877153 40.8422847 35.64 40.29 35.64 39.7377153 35.64 39.29 36.0877153 39.29 36.64 39.29 36.64 39.01 37.86 36.14 41.23 34.1454499 43.3483582 33.5709157 46.4359909 34.67 49.13 35.7384855 51.2444274 37.9059359 52.5776203 40.275 52.5776203 42.6440641 52.5776203 44.8115145 51.2444274 45.88 49.13 46.9843121 46.4414527 46.4218999 43.3559973 44.44 41.23L44.44 41.23zM44.08 48.29C43.339049 49.6936233 41.8821883 50.5719572 40.295 50.5719572 38.7078117 50.5719572 37.250951 49.6936233 36.51 48.29 35.741687 46.2981464 36.2024254 44.0413091 37.69 42.51 38.6346609 41.4219439 39.5065521 40.2727846 40.3 39.07 41.0909523 40.2745496 41.9629672 41.4238719 42.91 42.51L42.91 42.51C44.3941015 44.0434845 44.8508817 46.300057 44.08 48.29zM34.47 32.37L43.87 31.37C44.137149 31.3429632 44.3822011 31.2096261 44.55 31 44.7123145 30.7896918 44.7842743 30.5234404 44.75 30.26L44.41 27.41 45.32 27.31C45.6240124 27.2778396 45.8966136 27.1083848 46.06 26.85 46.2219564 26.58919 46.2551374 26.2684404 46.15 25.98 44.24 20.68 41.15 19.89 39.45 19.89L18.87 19.89C17.2755335 19.9463415 15.935024 18.704136 15.87 17.11L15.87 17.11 15.87 12.7 30.1 10.13C30.6522847 10.0305887 31.0194112 9.50228474 30.92 8.95000001 30.8205887 8.39771527 30.2922847 8.03058877 29.74 8.13L15.9 10.67 15.9 9.43C15.8945054 7.37778097 14.232219 5.71549459 12.18 5.71L6.12 5.71C4.07328594 5.71 2.41100384 7.36331552 2.4 9.41L2.35 13C2.35 13.5522847 2.79771525 14 3.35 14L3.35 14C3.90228475 14 4.35 13.5522847 4.35 13L4.4 9.43C4.4 8.48007023 5.17007023 7.71 6.12 7.71L12.18 7.71C13.1299298 7.71 13.9 8.48007023 13.9 9.43L13.9 16.12 3.38 16.12C2.82771525 16.12 2.38 16.5677153 2.38 17.12L2.38 29.38C2.38 29.9322847 2.82771525 30.38 3.38 30.38 3.93228475 30.38 4.38 29.9322847 4.38 29.38L4.38 18.12 14.06 18.12C14.5478066 20.3645281 16.5746981 21.9363171 18.87 21.85L39.45 21.85C41.17 21.85 42.68 23.11 43.78 25.43L22.35 27.77C19.43 28.17 13.91 30.58 13.91 36.91L13.91 37.06 2 37.06C1.51099627 37.0520237 1.08796733 37.3989075 1 37.88L.27 41.88C.217904766 42.1724421.298517592 42.472908.49 42.7.678111793 42.9258655.956069483 43.0575296 1.25 43.0600013L17.28 43.0600013C17.5774322 43.060483 17.8596435 42.9285401 18.05 42.7 18.2379358 42.4712306 18.3148386 42.1709433 18.26 41.88L17.53 37.88C17.4420327 37.3989075 17.0190037 37.0520237 16.53 37.06L15.89 37.06 15.89 36.91C15.89 30.76 22.33 29.79 22.58 29.76L33 28.62 33.34 31.5C33.4010234 32.0049651 33.8313743 32.3836739 34.34 32.38L34.47 32.37zM2.41 41.11L2.78 39.11 15.71 39.11 16.08 41.11 2.41 41.11zM42.41 27.59L42.64 29.45 35.23 30.27 35 28.4 42.41 27.59z"/>
        <path id="Path" fill="#3D454C" d="M4.35,33.72 L4.35,33.62 C4.35,33.0677153 3.90228475,32.62 3.35,32.62 C2.79771525,32.62 2.35,33.0677153 2.35,33.62 L2.35,33.72 C2.35,34.2722847 2.79771525,34.72 3.35,34.72 C3.90228475,34.72 4.35,34.2722847 4.35,33.72 Z"/>
      </g>
    </g>
  </g>
</svg>
