<svg xmlns="http://www.w3.org/2000/svg" width="64" height="64" viewBox="0 0 64 64" style="background:#fff">
  <g id="Wein" fill="none" fill-rule="evenodd" stroke="none" stroke-width="1">
    <rect width="64" height="64" fill="#FFF"/>
    <g transform="translate(2 4)">
      <g id="Layer_2">
        <rect id="Rectangle" width="60" height="60" x="0" y="0"/>
      </g>
      <g id="Layer_1" fill-rule="nonzero" transform="translate(5 3)">
        <path id="Path" fill="#E05362" d="M25.67 31.55C24.53 27.55 21.67 25.25 17.29 25.45 12.53 25.68 7.44 26.94 4.46 30.6 3.70093839 31.7372871 3.44074675 33.1358171 3.74 34.47 1.77338069 36.6615043.727504389 39.5269188.82 42.47.82 46.83 3.21 51.66 7.63 53.47 11.2 54.95 16.91 54.71 20.58 53.53 24.85 52.15 26.63 48.39 26.79 44.34 27.0666526 40.0445473 26.6890092 35.7319937 25.67 31.55L25.67 31.55zM44.87 34.35C43.35 32.74 41.97 33.13 40.05 33.2 37.37 33.29 35.33 31.68 32.71 31.54 30.87 31.43 29.71 33.71 29.37 35.13 28.8490818 37.2437536 29.1794829 39.477552 30.29 41.35 31.82 44.04 34.74 45.35 37.66 45.9 39.0637634 46.2356113 40.51384 46.3336351 41.95 46.19 44.56 45.81 45.95 44 46.51 41.48 47.1864643 38.9785536 46.5713957 36.3045052 44.87 34.35L44.87 34.35z" opacity=".5"/>
        <path id="Shape" fill="#3D454C" d="M44 52.48L39 52.48 39 45.42C43.5535893 44.9108938 46.9978251 41.0619603 47 36.48L47 36.34C47.0038381 36.3235543 47.0038381 36.3064457 47 36.29 46.9920105 35.7369869 46.9418651 35.185388 46.85 34.64L44.94 24.3C44.8520327 23.8189075 44.4290037 23.4720237 43.94 23.4798652L32 23.4798652C31.5109963 23.4720237 31.0879673 23.8189075 31 24.3L29.11 34.63C29.0199477 35.2423299 28.9831433 35.8613134 29 36.48 29.0021749 41.0619603 32.4464107 44.9108938 37 45.42L37 52.48 32 52.48C31.4477153 52.48 31 52.9277153 31 53.48 31 54.0322847 31.4477153 54.48 32 54.48L44 54.48C44.5522847 54.48 45 54.0322847 45 53.48 45 52.9277153 44.5522847 52.48 44 52.48L44 52.48zM31 36.48C30.9845187 35.9852892 31.0112824 35.4901595 31.08 35L32.79 25.49 43.12 25.49 44.82 35C44.8698592 35.2777845 44.9032508 35.5582739 44.92 35.84 44.1643563 36.2874122 43.2978724 36.512698 42.42 36.49 41.1875887 36.4478472 39.9961944 36.0367813 39 35.31 37.6832141 34.3836081 36.1196959 33.8717213 34.51 33.84 33.9577153 33.84 33.51 34.2877153 33.51 34.84 33.51 35.3922847 33.9577153 35.84 34.51 35.84 35.7441641 35.8718522 36.9398403 36.2762209 37.94 37 39.2553882 37.9204045 40.8148811 38.4286321 42.42 38.46 43.2127144 38.4679265 44.0008813 38.3393842 44.75 38.08 43.8404259 41.4203836 40.6256318 43.5941234 37.1868287 43.1939718 33.7480257 42.7938201 31.1182584 39.939986 31 36.48zM19.55 18.92L19.55 10.39 21.94 10.39C22.4922847 10.39 22.94 9.94228475 22.94 9.39 22.94 8.83771525 22.4922847 8.39 21.94 8.39L8.37 8.39C7.81771525 8.39 7.37 8.83771525 7.37 9.39 7.37 9.94228475 7.81771525 10.39 8.37 10.39L10.77 10.39 10.77 18.92C7.3 20.58 4 24.3 4 28.61L4 50.09C3.90549638 51.280767 4.33756864 52.4531375 5.18221559 53.2977844 6.02686255 54.1424314 7.19923301 54.5745036 8.39 54.48L21.94 54.48C23.1316617 54.5780356 24.3061493 54.1471068 25.151628 53.301628 25.9971068 52.4561493 26.4280356 51.2816617 26.33 50.09L26.33 28.61C26.33 24.31 23 20.58 19.55 18.92zM24.33 50.09C24.4387669 50.751289 24.2222433 51.4244739 23.7483586 51.8983586 23.2744739 52.3722433 22.601289 52.5887669 21.94 52.48L8.37 52.48C7.71185854 52.5815023 7.04490594 52.3617464 6.57601018 51.8888937 6.10711442 51.416041 5.89297079 50.7472653 6 50.09L6 28.61C6 24.93 9.1 21.74 12.16 20.49 12.5373501 20.3397343 12.786325 19.9761519 12.79 19.57L12.79 10.39 17.57 10.39 17.57 19.57C17.5720151 19.9737019 17.8165745 20.3365964 18.19 20.49 21.25 21.74 24.35 24.93 24.35 28.61L24.33 50.09z"/>
        <path id="Path" fill="#3D454C" d="M10.8,6.24 C10.8572809,6.50051862 11.0162702,6.72735543 11.2416185,6.87007605 C11.4669668,7.01279666 11.7399955,7.05957123 12,7 C12.5354504,6.86709118 12.8621055,6.32564913 12.73,5.79 L11.91,2.51 L18.4,2.51 L17.58,5.79 C17.4478945,6.32564913 17.7745496,6.86709118 18.31,7 L18.55,7 C19.0206972,7.01371362 19.4371845,6.69718328 19.55,6.24 L20.68,1.72 C20.7558959,1.42091547 20.6894691,1.10354301 20.5,0.86 C20.3091779,0.618507952 20.0177803,0.478342048 19.71,0.479985456 L10.71,0.479985456 C10.4022197,0.478342048 10.1108221,0.618507952 9.92,0.86 C9.73053087,1.10354301 9.66410408,1.42091547 9.74,1.72 L10.8,6.24 Z"/>
        <path id="Shape" fill="#3D454C" d="M15.16,27.61 C12.9273684,27.61 10.9145761,28.9549048 10.060185,31.0175875 C9.20579386,33.0802701 9.67806163,35.4545205 11.2567706,37.0332294 C12.8354795,38.6119384 15.2097299,39.0842061 17.2724125,38.229815 C19.3350952,37.3754239 20.68,35.3626316 20.68,33.13 C20.68,30.0813882 18.2086118,27.61 15.16,27.61 L15.16,27.61 Z M15.16,36.61 C13.2159577,36.61 11.64,35.0340423 11.64,33.09 C11.64,31.1459577 13.2159577,29.57 15.16,29.57 C17.1040423,29.57 18.68,31.1459577 18.68,33.09 C18.6879898,34.0296705 18.3209835,34.9337441 17.6602767,35.6019589 C16.9995699,36.2701738 16.0997008,36.6473719 15.16,36.65 L15.16,36.61 Z"/>
        <path id="Path" fill="#3D454C" d="M11.68 41C11.1277153 41 10.68 41.4477153 10.68 42 10.68 42.5522847 11.1277153 43 11.68 43 12.2322847 43 12.68 42.5522847 12.68 42 12.68 41.4477153 12.2322847 41 11.68 41zM15.28 41C14.7277153 41 14.28 41.4477153 14.28 42 14.28 42.5522847 14.7277153 43 15.28 43 15.8322847 43 16.28 42.5522847 16.28 42 16.28 41.4477153 15.8322847 41 15.28 41zM19.08 41C18.5277153 41 18.08 41.4477153 18.08 42 18.08 42.5522847 18.5277153 43 19.08 43 19.6322847 43 20.08 42.5522847 20.08 42 20.08 41.4477153 19.6322847 41 19.08 41z"/>
      </g>
    </g>
  </g>
</svg>
