<svg xmlns="http://www.w3.org/2000/svg" width="64" height="64" viewBox="0 0 64 64" style="background:#fff">
  <g id="Weißer-Spargel" fill="none" fill-rule="evenodd" stroke="none" stroke-width="1">
    <rect width="64" height="64" fill="#FFF"/>
    <g transform="translate(2 4)">
      <rect id="Rectangle" width="60" height="60" x="0" y="0"/>
      <path id="Path" fill="#B3B3B3" fill-rule="nonzero" d="M37.56,2.5 C33.8005695,2.2671971 30.088232,3.43576399 27.14,5.78 C22.31,0.62 10.94,4.31 11.84,12.16 C11.84,12.32 11.84,12.47 11.89,12.62 C9.63,19.07 10.17,27.26 10.84,33.89 C11.54,40.72 13.27,48.02 18.57,52.82 C30.22,63.39 45.51,54.68 48.3,40.82 C49.08,36.95 48.94,33.08 48.94,29.16 C48.94,25.24 49.94,22.03 50.2,18.29 C50.74,10.64 45.84,2.78 37.56,2.5 Z" opacity=".5"/>
      <path id="Path" fill="#444B54" fill-rule="nonzero" d="M15 14.35L15.18 14.35C15.4247838 14.3749694 15.6692461 14.2997492 15.8576509 14.1414892 16.0460556 13.9832292 16.162343 13.7554197 16.18 13.51 16.63 10.65 17.64 8.59 18.6 8.51L18.71 8.51C19.23 8.51 19.84 9 20.43 9.88 20.6178633 10.165348 20.9383999 10.3350438 21.28 10.33 21.4823308 10.3288958 21.6801189 10.2699064 21.85 10.16 22.0790442 10.0115143 22.2374354 9.77585262 22.2884234 9.50769319 22.3394115 9.23953375 22.2785644 8.96218593 22.12 8.74 20.85 6.87 19.59 6.48 18.75 6.48L18.5 6.48C16.44 6.64 14.85 9.16 14.24 13.21 14.2000469 13.4707529 14.2647441 13.7367304 14.42 13.95 14.5584055 14.1492806 14.7645428 14.2914442 15 14.35zM18 34.22C17.7272975 34.2130516 17.4635931 34.3178109 17.27 34.51 17.0814321 34.6887929 16.9793456 34.9403633 16.99 35.2 16.9841837 35.4806681 17.1054596 35.7489452 17.32 35.93 17.4957062 36.1169932 17.7435684 36.2190541 18 36.21 18.2786881 36.2065354 18.5432861 36.0869226 18.73 35.88 18.9155677 35.7040328 19.0143162 35.4553329 19 35.2 18.9988906 34.9327541 18.8908556 34.6770714 18.7 34.49 18.5105512 34.3125625 18.2595319 34.2157407 18 34.22L18 34.22zM23.71 54L20.86 54C20.2676292 53.9527683 19.7972317 53.4823708 19.75 52.89L19.75 43.89C19.75 43.3377153 19.3022847 42.89 18.75 42.89 18.1977153 42.89 17.75 43.3377153 17.75 43.89L17.75 53.04C17.8753631 54.6620829 19.1944241 55.9338811 20.82 56 20.9221744 55.9781131 21.0278256 55.9781131 21.13 56L23.71 56C24.2622847 56 24.71 55.5522847 24.71 55 24.71 54.4477153 24.2622847 54 23.71 54zM16.22 31.08C16.3206417 31.5491379 16.7403072 31.8806736 17.22 31.87L17.46 31.87C17.7132651 31.8155881 17.9355334 31.6650193 18.08 31.45 18.2308827 31.2311965 18.2884545 30.9613288 18.24 30.7L17.79 28.21C17.2530458 26.1665159 16.3666441 24.2313184 15.17 22.49 14.3602703 21.4106433 13.8715443 20.1247048 13.76 18.78L13.76 18.44 14.11 18.44C15.3828521 18.7808926 16.5336365 19.4741362 17.43 20.44 17.6148833 20.6030698 17.853486 20.6921006 18.1 20.69 18.380642 20.6918991 18.6491655 20.5757808 18.84 20.37 19.0162476 20.1764815 19.1095943 19.9215733 19.1 19.66 19.0884037 19.3918342 18.9694878 19.1395884 18.77 18.96 17 17.37 15.33 16.5 14 16.5 13.4629167 16.4854444 12.938216 16.6627082 12.52 17 11.18 18.1 11.52 20.63 13.46 23.61 14.4982355 25.139135 15.2785967 26.8282285 15.77 28.61L16.22 31.08z"/>
      <path id="Path" fill="#444B54" fill-rule="nonzero" d="M46.38,21.26 L46.07,21.1 L46.37,20.54 C48.97,16.28 48.6,13.66 47.48,12.7 C47.1400152,12.3948694 46.6967304,12.230425 46.24,12.24 L46.1,12.24 L45.81,12.24 L45.56,11.24 C44.83,8.31 43.45,6.6 41.7,6.43 L41.46,6.43 C40.62,6.43 39.35,6.82 38.08,8.68 C37.9171786,8.90159412 37.8527912,9.18045746 37.9019814,9.45100338 C37.9511716,9.7215493 38.109598,9.95990104 38.34,10.11 C38.520733,10.2203724 38.7282318,10.2791637 38.94,10.28 C39.2753734,10.292007 39.5917105,10.1243102 39.77,9.84 C40.4,9 41,8.47 41.57,8.47 L41.57,8.47 C42.18,8.53 43.09,9.47 43.69,11.82 L43.78,12.22 C43.78,12.38 43.87,12.6 43.93,12.82 L43.99,13.06 L43.79,13.19 C43.4426916,13.4279872 43.1088459,13.6850484 42.79,13.96 C42.3851927,14.3333132 42.35837,14.9636469 42.73,15.37 C42.9190592,15.5794794 43.1878218,15.699333 43.47,15.7 C43.7178358,15.699353 43.9566017,15.6066976 44.14,15.44 C44.6364855,14.9770623 45.207931,14.6017342 45.83,14.33 L46.23,14.18 L46.3,14.6 C46.42,15.4 46.06,17.15 44.62,19.45 C44.2788174,20.0204042 43.9877276,20.6193131 43.75,21.24 L43.7,21.38 L43.57,21.43 C42.4742988,21.94056 41.4627097,22.6149527 40.57,23.43 C40.3742136,23.6112949 40.2590029,23.8633183 40.25,24.13 C40.2350197,24.393592 40.3248879,24.6524124 40.5,24.85 C40.693182,25.0583781 40.9658903,25.1747337 41.25,25.17 C41.4978358,25.169353 41.7366017,25.0766976 41.92,24.91 C42.8332618,23.9895478 43.97608,23.3300968 45.23,23 L45.57,23 L45.57,23.34 C45.63,24.07 45.19,25.64 43.74,27.7 C41.8554875,30.2940755 40.7176403,33.3548499 40.45,36.55 L40.45,36.7 C40.3968827,37.6493348 39.6108185,38.3914848 38.66,38.39 L16.52,38.39 C15.9677153,38.39 15.52,38.8377153 15.52,39.39 C15.52,39.9422847 15.9677153,40.39 16.52,40.39 L38.34,40.39 C39.5030462,40.3954732 40.4445268,41.3369538 40.45,42.5 L40.45,52.93 C40.3657936,53.4814356 39.9069419,53.8985734 39.35,53.93 L36.48,53.93 C35.9277153,53.93 35.48,54.3777153 35.48,54.93 C35.48,55.4822847 35.9277153,55.93 36.48,55.93 L39.38,55.93 C40.9940328,55.8721978 42.3155468,54.6276652 42.47,53.02 L42.47,42.49 C42.4662454,41.4664757 42.0852886,40.4802603 41.4,39.72 L41.18,39.48 L41.41,39.25 C42.0585363,38.5995409 42.4371813,37.727943 42.47,36.81 C42.7025764,33.9530491 43.7123629,31.214176 45.39,28.89 C47.15,26.43 48.58,23.02 46.8,21.52 C46.6723939,21.41475 46.5311071,21.3272868 46.38,21.26 L46.38,21.26 Z"/>
      <path id="Path" fill="#444B54" fill-rule="nonzero" d="M27 8C27.1533529 8.09509795 27.3295802 8.14692949 27.51 8.15 27.8707641 8.14937831 28.2032259 7.95448691 28.38 7.64 28.9 6.64 29.53 6.1 30.04 6.1L30.1 6.1 30.16 6.1C31.33 6.52 33 11 33.48 16.41L33.48 16.61 33.31 16.73C32.4473142 17.297375 31.6580062 17.9691265 30.96 18.73 30.7789149 18.9178666 30.6784325 19.1690724 30.68 19.43 30.688929 19.7016817 30.8080729 19.9580217 31.01 20.14 31.1861513 20.3274882 31.4327568 20.4326582 31.69 20.43 31.9636792 20.4263614 32.2239059 20.3107051 32.41 20.11 33.2302654 19.0949444 34.3127029 18.323751 35.54 17.88L35.88 17.81 35.95 18.15C36.13 19.05 35.55 21.15 33.79 23.79 33.5803414 23.973828 33.4631158 24.2412491 33.47 24.52L33.24 34.38C33.24 34.9322847 33.6877153 35.38 34.24 35.38 34.7922847 35.38 35.24 34.9322847 35.24 34.38L35.46 24.87 35.52 24.79C36.5416583 23.365733 37.309615 21.7756905 37.79 20.09 38.38 17.71 37.7 16.64 37.02 16.15 36.6268853 15.8993995 36.1656343 15.7770981 35.7 15.8L35.38 15.8 35.38 15.49C35.05 12.79 33.71 4 30.05 4 28.75 4 27.57 4.87 26.64 6.54 26.5029194 6.76448871 26.459806 7.03394735 26.52 7.29 26.5729272 7.58368099 26.7471929 7.84144904 27 8zM34 42.89C33.4477153 42.89 33 43.3377153 33 43.89L32.82 52.62C32.856565 53.2234946 32.4195807 53.7522457 31.82 53.83L28.42 53.83C27.8024644 53.7618536 27.3557723 53.2079554 27.42 52.59L26.96 43.86C26.8986541 43.3163524 26.437087 42.9065498 25.89 42.91L25.89 42.91C25.613675 42.9171624 25.3526398 43.0383824 25.1688803 43.2448751 24.9851207 43.4513678 24.8950296 43.7247124 24.92 44L25.37 52.7C25.3419239 54.4190015 26.701469 55.8409519 28.42 55.89L31.82 55.89C33.5164497 55.8092877 34.8434855 54.3982063 34.82 52.7L35 43.95C35.0150341 43.6767819 34.9174531 43.4093376 34.73 43.21 34.5415282 43.0067768 34.2771651 42.8908916 34 42.89zM24.83 34.42C24.83 34.9722847 25.2777153 35.42 25.83 35.42 26.3908338 35.4116184 26.8537501 34.9789863 26.9 34.42 26.902035 32.2072432 26.4351109 30.0191758 25.53 28 24.8909359 26.9319155 24.5684191 25.7042709 24.6 24.46L24.67 24.14 25 24.2C25.58 24.3 27.06 25.08 28.88 27.32 29.058351 27.5448331 29.3332333 27.6711304 29.62 27.66 29.8627117 27.6600665 30.0985027 27.5791233 30.29 27.43 30.4945071 27.2604518 30.6231478 27.0164992 30.6475369 26.7519715 30.671926 26.4874438 30.5900589 26.2240826 30.42 26.02 27.71 22.69 25.73 22.19 24.78 22.19 24.3259281 22.1825191 23.8800501 22.3114057 23.5 22.56 22.12 23.5 22.18 25.85 23.66 28.87 24.4320398 30.6184008 24.8305418 32.5087307 24.83 34.42z"/>
      <path id="Path" fill="#444B54" fill-rule="nonzero" d="M24.46,19.79 C24.5688118,20.2511676 24.9863385,20.5726631 25.46,20.56 C25.5693966,20.5762943 25.6806034,20.5762943 25.79,20.56 C26.3238785,20.4359072 26.6583732,19.9051758 26.54,19.37 C26.3879927,18.7934783 26.1698797,18.2364512 25.89,17.71 C24.71,15.59 24.57,14.15 24.67,13.63 L24.73,13.32 L25.05,13.32 C25.7,13.39 27,14.18 28.44,15.79 C28.8209281,16.154571 29.4194773,16.1607333 29.8078307,15.8040823 C30.196184,15.4474313 30.2408923,14.8505223 29.91,14.44 C28.08,12.44 26.28,11.26 24.85,11.26 C24.3977558,11.2537265 23.9544753,11.3863616 23.58,11.64 C22.07,12.7 22.24,15.31 24.05,18.64 C24.2314356,19.0058675 24.3690542,19.3918709 24.46,19.79 Z"/>
    </g>
  </g>
</svg>
