<svg xmlns="http://www.w3.org/2000/svg" width="64" height="64" viewBox="0 0 64 64" style="background:#fff">
  <g id="Weißer-Tee" fill="none" fill-rule="evenodd" stroke="none" stroke-width="1">
    <rect width="64" height="64" fill="#FFF"/>
    <g transform="translate(2 5)">
      <g id="Layer_2">
        <rect id="Rectangle" width="60" height="60" x="0" y="0"/>
      </g>
      <g id="Layer_1" fill-rule="nonzero" transform="translate(6 4)">
        <path id="Path" fill="#CCC" d="M30.15,26.73 C24.0092454,27.7463375 18.5718099,31.2806706 15.15,36.48 C13.29,39.17 15.53,45.37 18.4,43.42 C24.32,46.2 31.4,39.21 33.08,33.96 C33.68,32.15 33.48,26.15 30.15,26.73 Z" opacity=".5"/>
        <path id="Path" fill="#3D454C" d="M21.34 14C21.6963303 14.3963096 22.3008541 14.4435302 22.7144001 14.1073573 23.1279462 13.7711844 23.205183 13.1697584 22.89 12.74 21.7608255 11.3429735 21.7608255 9.34702653 22.89 7.95 24.6806549 6.00236581 24.6806549 3.00763419 22.89 1.06 22.6399141.804555097 22.2725469.70193352 21.9262822.790791824 21.5800175.879650129 21.307461 1.14648862 21.2112822 1.49079183 21.1151034 1.83509504 21.2099141 2.2045551 21.46 2.46 22.555418 3.67336512 22.5204094 5.5288203 21.38 6.7 19.64877 8.82012093 19.6321075 11.8610346 21.34 14zM27.26 15.13C27.4506301 15.3649915 27.7374116 15.5010289 28.04 15.5000058 28.4282681 15.5006314 28.7818059 15.276459 28.9468198 14.9250008 29.1118337 14.5735425 29.0584924 14.1583354 28.81 13.86 28.232221 13.1530335 28.232221 12.1369665 28.81 11.43 30.0413456 10.0937475 30.0413456 8.0362525 28.81 6.7 28.5617004 6.44276878 28.1950309 6.33754357 27.8481123 6.42396171 27.5011938 6.51037985 27.2267313 6.77531235 27.1281123 7.11896171 27.0294934 7.46261107 27.1217004 7.83276878 27.37 8.09 27.9096664 8.6893966 27.8787438 9.6082422 27.3 10.17 26.1394381 11.6144976 26.1228859 13.6669727 27.26 15.13L27.26 15.13zM15.08 15.13C15.26842 15.362277 15.5509167 15.4980222 15.85 15.5 16.0802147 15.498139 16.3027364 15.4169009 16.48 15.27 16.9089082 14.9265461 16.9803569 14.3013699 16.64 13.87 16.0645021 13.1584693 16.0645021 12.1415307 16.64 11.43 17.8545306 10.0781788 17.82843 8.02057858 16.58 6.7 16.3395052 6.41174326 15.9578254 6.28246357 15.5916582 6.36523635 15.2254911 6.44800912 14.9365286 6.72888875 14.8434035 7.0925609 14.7502783 7.45623305 14.8686804 7.84142606 15.15 8.09 15.6896664 8.6893966 15.6587438 9.6082422 15.08 10.17 13.9312097 11.623779 13.9312097 13.676221 15.08 15.13z"/>
        <path id="Shape" fill="#3D454C" d="M47.68,30.75 C46.427549,28.8818705 44.3291069,27.7577051 42.08,27.75 L41.93,27.75 C42.0408232,26.0142897 42.0207665,24.2726977 41.87,22.54 C41.8742398,22.5101498 41.8742398,22.4798502 41.87,22.45 C41.87,22.45 41.87,22.45 41.87,22.38 L41.87,22.38 C41.8744957,22.3167464 41.8744957,22.2532536 41.87,22.19 C41.87,21.02 40.8,20.19 35.29,19.55 C30.679613,19.0649499 26.0457215,18.8379292 21.41,18.87 C16.7776101,18.838156 12.1470594,19.0651765 7.54,19.55 C2,20.25 1,21.06 1,22.23 C0.990138552,22.3130416 0.990138552,22.3969584 1,22.48 C0.994072556,22.5029569 0.994072556,22.5270431 1,22.55 C0.73,25.81 0.59,34.21 5.09,41.77 C5.55773357,42.5749292 6.07541324,43.3497788 6.64,44.09 C9.8283083,48.4904648 14.8250057,51.2256152 20.25,51.54 L21.68,51.54 L22.85,51.54 C28.79,51.27 34.37,47.7 37.77,42 C38.0033333,41.62 38.2233333,41.23 38.43,40.83 C39.6125795,38.5885085 40.5063648,36.2062012 41.09,33.74 L41.74,33.74 C42.1655551,33.7356102 42.5658928,33.9413912 42.81,34.29 C42.9473038,34.5004046 43.0138671,34.7491413 43,35 L42.91,37.8 C42.8941301,38.2678477 42.6098244,38.6845699 42.18,38.87 L41.66,39.12 C41.3677275,39.2351949 41.0619072,39.3124901 40.75,39.35 C40.1977153,39.35 39.75,39.7977153 39.75,40.35 C39.75,40.9022847 40.1977153,41.35 40.75,41.35 C41.339229,41.3334116 41.9211451,41.2149984 42.47,41 L43,40.76 C44.1193449,40.2557094 44.853018,39.1571407 44.89,37.93 L45,35.1 C45.0306231,34.4079885 44.8300872,33.7254626 44.43,33.16 C43.8128547,32.2736818 42.8000081,31.7467026 41.72,31.75 L41.49,31.75 C41.61,31.08 41.7,30.43 41.77,29.75 L42.1,29.75 C43.3879814,29.7521452 44.6203561,30.2750558 45.5168625,31.1998135 C46.413369,32.1245712 46.8978042,33.3725718 46.86,34.66 L46.75,38.31 C46.7070486,40.1167091 45.6404725,41.7417833 44,42.5 C42.3428865,43.1811854 40.5938164,43.6125553 38.81,43.78 C38.2577153,43.78 37.81,44.2277153 37.81,44.78 C37.81,45.3322847 38.2577153,45.78 38.81,45.78 C40.8752115,45.61074 42.9004369,45.1145598 44.81,44.31 C47.1140941,43.2342664 48.6151445,40.9517414 48.69,38.41 L48.8,34.76 C48.8571566,33.3388701 48.4652862,31.9358341 47.68,30.75 Z M21.41,20.91 C30.18,20.91 36.41,21.58 38.91,22.23 C36.41,22.88 30.18,23.55 21.41,23.55 C12.64,23.55 6.41,22.88 3.91,22.23 C6.41,21.58 12.65,20.91 21.41,20.91 Z M36.62,39.91 C36.43,40.28 36.22,40.63 36.01,40.98 C33.01,46.11 28.01,49.32 22.77,49.55 L22.4,49.55 C21.72,49.55 21.02,49.55 20.32,49.55 C15.4837497,49.2665423 11.0322315,46.820411 8.2,42.89 C7.68336647,42.2041988 7.20593729,41.4897244 6.77,40.75 L6.77,40.75 C3.95376816,35.6970537 2.60313619,29.9585994 2.87,24.18 C5.17,24.89 10.24,25.55 21.41,25.55 C26.13,25.55 35.87,25.55 39.97,24.21 C40.251258,29.6466994 39.0958492,35.0616006 36.62,39.91 L36.62,39.91 Z"/>
        <path id="Shape" fill="#3D454C" d="M31.77,30.4 C28.1493411,28.727611 23.9220629,29.0414743 20.5880826,31.2302252 C17.2541023,33.4189762 15.2852079,37.172887 15.38,41.16 C15.38,41.16 15.38,41.21 15.38,41.23 C14.8236675,41.980064 14.375923,42.8048565 14.05,43.68 C13.8865367,44.204475 14.1767657,44.7626077 14.7,44.93 C14.7994311,44.9450853 14.9005689,44.9450853 15,44.93 C15.4325739,44.9296813 15.8159022,44.651264 15.95,44.24 C16.2069584,43.5943948 16.5428457,42.98308 16.95,42.42 C18.1529562,42.8683393 19.4262127,43.0986091 20.71,43.1 C22.9817409,43.0807828 25.1961263,42.3844352 27.07,41.1 C30.5452966,39.0081565 32.5570539,35.1468181 32.28,31.1 C32.2251023,30.8013342 32.0374662,30.5437945 31.77,30.4 Z M26,39.48 C23.7812945,41.0453369 20.9789829,41.5368418 18.36,40.82 C20.0875683,39.1174113 22.1239303,37.7598366 24.36,36.82 C24.6027867,36.7127185 24.7929607,36.5133133 24.8886226,36.2657178 C24.9842845,36.0181224 24.9775849,35.7426524 24.87,35.5 C24.6427874,34.9982465 24.0526133,34.7746957 23.55,35 C21.3857513,35.9282073 19.3864415,37.2014164 17.63,38.77 C18.1657885,36.3638983 19.623378,34.2636771 21.69,32.92 C24.2618358,31.2415766 27.4829311,30.8993817 30.35,32 C30.2612767,35.0693916 28.6238931,37.8849385 26,39.48 Z"/>
      </g>
    </g>
  </g>
</svg>
