<svg xmlns="http://www.w3.org/2000/svg" width="64" height="64" viewBox="0 0 64 64" style="background:#fff">
  <g id="Weizen" fill="none" fill-rule="evenodd" stroke="none" stroke-width="1">
    <rect width="64" height="64" fill="#FFF"/>
    <g transform="translate(2 7)">
      <g id="Layer_2">
        <rect id="Rectangle" width="60" height="60" x="0" y="0"/>
      </g>
      <g id="Layer_1" fill-rule="nonzero" transform="translate(15 5)">
        <path id="Path" fill="#EBE53F" d="M26.73,31 C27.1304273,30.6328472 27.5015566,30.2349698 27.84,29.81 C28.84,28.49 28.84,24.65 26.1,24.54 L27.1,23.54 C27.6846052,22.7903034 27.9411051,21.8360155 27.8111418,20.8942524 C27.6811785,19.9524893 27.1758043,19.1033401 26.41,18.54 C25.814594,18.1634663 25.0859175,18.0614516 24.41,18.26 C23.04,18.54 21.8,19.06 20.49,19.43 C19.8245793,18.1657558 19.3238379,16.8214838 19,15.43 C18.69,13.66 19.06,11.87 18.91,10.09 C18.82,9 17,5.65 15,7.55 C11.68,10.74 11.07,16.3 12.5,20.92 L12.28,20.84 C10.5793095,20.053052 9.05281773,18.9345313 7.79,17.55 C5.85,15.42 3.44,17.94 3.63,19.76 C3.78711184,21.2436855 4.22848208,22.6832315 4.93,24 C2.23,24.62 2.98,29.2 5.21,29.92 C7.44,30.64 8.72,32.56 10.21,34.02 L10.29,34.1 C8.17156271,33.1913793 6.21055911,31.9526731 4.48,30.43 C1.79,27.92 -0.22,32.08 0.89,33.96 C3.44,38.32 8.32,44 14.7,45.11 C15.3090228,45.2264697 15.9372946,45.1921379 16.53,45.01 L17.08,44.92 C19.54,44.36 21.75,42.52 23.36,41.02 C25.2519452,39.4517346 26.7834258,37.4938953 27.85,35.28 C28.3316356,33.7566824 27.896056,32.0921459 26.73,31 L26.73,31 Z" opacity=".5"/>
        <path id="Shape" fill="#3D454C" d="M28.25,30.24 C28.0263141,30.0939729 27.7535011,30.0435129 27.4923819,30.0998696 C27.2312628,30.1562263 27.0035464,30.3147142 26.86,30.54 L25.51,32.64 C25.2069869,32.4634909 24.8930151,32.306505 24.57,32.17 C25.957962,30.2754494 26.7074159,27.9885642 26.71,25.64 C26.71,25.58 26.71,25.53 26.71,25.43 C26.7026129,25.1327729 26.5633495,24.8542459 26.33,24.67 C25.797962,24.2539905 25.2085198,23.9171663 24.58,23.67 C25.9667165,21.7748099 26.7160336,19.4883425 26.72,17.14 L26.72,11.71 C26.72,11.1577153 26.2722847,10.71 25.72,10.71 C25.1677153,10.71 24.72,11.1577153 24.72,11.71 L24.72,15.2 C23.8158987,14.7989345 22.8390349,14.5879047 21.85,14.58 C21.6534676,14.5697246 21.4565324,14.5697246 21.26,14.58 C20.94,9.84 18.35,7.67 16.65,7.02 L16.65,4.58 C16.65,4.02771525 16.2022847,3.58 15.65,3.58 C15.0977153,3.58 14.65,4.02771525 14.65,4.58 L14.65,7.06 C12.95,7.71 10.36,9.88 10.05,14.62 C9.85345852,14.6100763 9.65654148,14.6100763 9.46,14.62 C8.47083865,14.6267611 7.49374431,14.8378407 6.59,15.24 L6.59,11.71 C6.59,11.1577153 6.14228475,10.71 5.59,10.71 C5.03771525,10.71 4.59,11.1577153 4.59,11.71 L4.59,17.13 C4.59396644,19.4783425 5.34328349,21.7648099 6.73,23.66 C6.09798097,23.9062988 5.50511689,24.2431534 4.97,24.66 C4.75362105,24.8728951 4.62210532,25.1572534 4.6,25.46 C4.5951746,25.5165639 4.5951746,25.5734361 4.6,25.63 C4.60258407,27.9785642 5.35203802,30.2654494 6.74,32.16 C6.44118777,32.2736257 6.15333436,32.4142053 5.88,32.58 L4.53,30.48 C4.34671622,30.1586954 4.00103558,29.9648122 3.63129822,29.9759418 C3.26156085,29.9870713 2.92816775,30.2013954 2.76454161,30.5331424 C2.60091547,30.8648894 2.63378656,31.2598645 2.85,31.56 L4.61,34.3 C4.68261762,39.9547414 9.0093257,44.6438059 14.64,45.17 L14.64,48.1 C14.64,48.6522847 15.0877153,49.1 15.64,49.1 C16.1922847,49.1 16.64,48.6522847 16.64,48.1 L16.64,45.18 C22.2471736,44.7782151 26.6021802,40.131423 26.64,34.51 L28.5,31.62 C28.8072566,31.1688611 28.695992,30.5546808 28.25,30.24 Z M15.62,8.84 C16.2,8.89 19.07,10.22 19.27,15.07 C17.7519697,15.650425 16.4733767,16.724725 15.64,18.12 C14.8077369,16.7198939 13.5241588,15.6443682 12,15.07 C12.21,10.22 15.08,8.89 15.62,8.84 Z M8.67,22.92 C7.38459594,21.3766098 6.65241363,19.447591 6.59,17.44 C8.18368182,16.3875735 10.2266002,16.29544 11.9085464,17.200139 C13.5904925,18.104838 14.6396771,19.8601772 14.64,21.77 C14.64,22.3222847 15.0877153,22.77 15.64,22.77 C16.1922847,22.77 16.64,22.3222847 16.64,21.77 C16.6455153,18.9020253 18.97202,16.5799883 21.84,16.5799883 C22.8588329,16.5778165 23.8549684,16.8808367 24.7,17.45 C24.6308408,19.4532202 23.8993295,21.3769543 22.62,22.92 C22.5666853,22.9905798 22.5229705,23.0679213 22.49,23.15 C22.27,23.15 22.06,23.15 21.84,23.15 C19.2951879,23.1500484 16.9388777,24.491625 15.64,26.68 C14.3443998,24.493209 11.9917774,23.1515681 9.45,23.15 C9.23,23.15 9.01,23.15 8.79,23.15 C8.7642557,23.0667001 8.72359583,22.9887687 8.67,22.92 L8.67,22.92 Z M8.67,31.44 C7.39289041,29.9073224 6.6612301,27.9937492 6.59,26 C7.43589661,25.4338115 8.43212111,25.1342475 9.45,25.1399187 C12.3140755,25.1455026 14.6344974,27.4659245 14.64,30.33 C14.64,30.8822847 15.0877153,31.33 15.64,31.33 C16.1922847,31.33 16.64,30.8822847 16.64,30.33 C16.6455153,27.4620253 18.97202,25.1399187 21.84,25.1399187 C22.8578789,25.1342475 23.8541034,25.4338115 24.7,26 C24.6307842,28.0062279 23.8994105,29.9331161 22.62,31.48 C22.5666853,31.5505798 22.5229705,31.6279213 22.49,31.71 C22.27,31.71 22.06,31.65 21.84,31.65 C19.29262,31.6501255 16.9349182,32.9962972 15.64,35.19 C14.3498348,32.9963909 11.9948864,31.6496192 9.45,31.65 C9.23,31.65 9.01,31.65 8.79,31.71 C8.76909528,31.6126721 8.72823507,31.5207366 8.67,31.44 Z M15.67,43.23 C10.8086531,43.1901815 6.84116768,39.3284957 6.67,34.47 C8.26517891,33.4165807 10.3102993,33.3253326 11.9929547,34.2325034 C13.6756101,35.1396741 14.723362,36.8983837 14.72,38.81 C14.72,39.3622847 15.1677153,39.81 15.72,39.81 C16.2722847,39.81 16.72,39.3622847 16.72,38.81 C16.72,35.9381193 19.0481193,33.6099883 21.92,33.6099883 C22.9388329,33.6078165 23.9349684,33.9108367 24.78,34.48 C24.7543789,36.8608902 23.7704676,39.1310204 22.0505319,40.7775671 C20.3305963,42.4241138 18.0197449,43.3081602 15.64,43.23 L15.67,43.23 Z"/>
        <path id="Path" fill="#3D454C" d="M29.36 27.33C28.8077153 27.33 28.36 27.7777153 28.36 28.33 28.36 28.8822847 28.8077153 29.33 29.36 29.33 29.9122847 29.33 30.36 28.8822847 30.36 28.33 30.36 27.7777153 29.9122847 27.33 29.36 27.33zM1.61 27C1.05771525 27 .61 27.4477153.61 28 .61 28.5522847 1.05771525 29 1.61 29 2.16228475 29 2.61 28.5522847 2.61 28 2.61 27.4477153 2.16228475 27 1.61 27zM15.64 2.28C16.1922847 2.28 16.64 1.83228475 16.64 1.28 16.64.72771525 16.1922847.28 15.64.28 15.0877153.28 14.64.72771525 14.64 1.28 14.64 1.83228475 15.0877153 2.28 15.64 2.28z"/>
      </g>
    </g>
  </g>
</svg>
