<svg xmlns="http://www.w3.org/2000/svg" width="64" height="64" viewBox="0 0 64 64" style="background:#fff">
  <g id="Weizenmehl-(Type-812)" fill="none" fill-rule="evenodd" stroke="none" stroke-width="1">
    <rect width="64" height="64" fill="#FFF"/>
    <g transform="translate(2 4)">
      <g id="Layer_2">
        <rect id="Rectangle" width="60" height="60" x="0" y="0"/>
      </g>
      <g id="Layer_1" fill-rule="nonzero" transform="translate(11 5)">
        <path id="Path" fill="#E0A075" d="M27.21 23.66C23.6 19.72 18.04 20.66 14.62 24.38 11.2 28.1 9.21 34.63 8.5 39.6 8.19 41.79 8.95 46.6 12.15 46.45 13.9517752 46.2999497 15.5744842 45.3010739 16.52 43.76 18.0731416 43.3551098 19.6493535 43.0445426 21.24 42.83 23.3967049 42.7872367 25.4784823 42.0311858 27.16 40.68 31.75 36.49 31.2 28 27.21 23.66zM28.32 3.84C24.05.24 18.19-1.29 13.15 1.77 11.0413499 2.977607 9.39476506 4.85288416 8.47 7.1 8.03 8.34 7.4 11.82 9.24 12.46 10.62 12.94 12 11.74 13.3 10.65 13.4978685 11.0274498 13.7620838 11.3661874 14.08 11.65 17.18 14.32 23.08 13.15 26.95 12.84 30.82 12.53 30.63 5.79 28.32 3.84z" opacity=".5"/>
        <path id="Shape" fill="#3D454C" d="M34.39,30.92 C34.5627524,30.3146056 34.7029532,29.7003924 34.81,29.08 C34.9411009,28.2296949 35.004633,27.3703399 35,26.51 C34.9976575,24.1774995 34.4749612,21.8749031 33.47,19.77 C35.3692363,18.7978053 36.3606912,16.6557347 35.8728043,14.5786628 C35.3849175,12.501591 33.543457,11.0249486 31.41,11 L29.85,11 L26,5.15 C24.9639853,3.59809795 22.8948336,3.12803587 21.29,4.08 L21.17,3.82 C20.5168496,2.48485763 19.1966463,1.60366191 17.7130958,1.51262116 C16.2295452,1.4215804 14.8115015,2.13473864 14,3.38 L8.93,11 L7.38,11 C5.22538764,10.9931781 3.34956777,12.4704619 2.85115765,14.5666461 C2.35274752,16.6628304 3.36290168,18.8263128 5.29,19.79 C4.28817095,21.8955916 3.7688828,24.1982246 3.77,26.53 C3.78038793,27.3879952 3.85728504,28.2438935 4,29.09 C4.09745472,29.7089898 4.23779254,30.3204617 4.42,30.92 C0.902214276,35.5773487 -0.233751592,41.6123987 1.35,47.23 C1.42593964,47.498829 1.61086399,47.723639 1.86,47.85 C6.54,50.23 12.77,51.54 19.41,51.54 C26.05,51.54 32.28,50.23 37,47.85 C37.2513029,47.7213992 37.4365439,47.4925721 37.51,47.22 C37.9570281,45.5907885 38.1856939,43.9094217 38.19,42.22 C38.1893631,38.139748 36.8549259,34.171553 34.39,30.92 Z M15.66,4.49 C16.0799444,3.85199892 16.8093547,3.48769501 17.5716806,3.53521126 C18.3340065,3.58272751 19.0125323,4.03478896 19.35,4.72 L20.06,6.16 C20.2203473,6.47959564 20.5391356,6.68925705 20.8961046,6.70989109 C21.2530735,6.73052514 21.5938963,6.55899153 21.79,6.26 C22.0788894,5.85377936 22.5465301,5.6125105 23.045,5.6125105 C23.5434699,5.6125105 24.0111106,5.85377936 24.3,6.26 L27.45,11 L11.34,11 L15.66,4.49 Z M7.38,13 L31.38,13 C32.7831295,13.0861529 33.8769816,14.2492281 33.8769816,15.655 C33.8769816,17.0607719 32.7831295,18.2238471 31.38,18.31 L7.38,18.31 C6.39257345,18.3706285 5.45307158,17.8782653 4.94102016,17.0318077 C4.42896874,16.1853502 4.42896874,15.1246498 4.94102016,14.2781923 C5.45307158,13.4317347 6.39257345,12.9393715 7.38,13 L7.38,13 Z M35.65,46.26 C30.5376708,48.5373793 24.9854075,49.657393 19.39,49.54 C13.7979514,49.6559159 8.24926284,48.5359344 3.14,46.26 C2.80023827,44.926643 2.62890343,43.5559643 2.62999477,42.18 C2.63476749,38.3863224 3.92492109,34.7062121 6.29,31.74 C6.4989016,31.4739022 6.55910181,31.120226 6.45,30.8 C6.234892,30.1463872 6.06778131,29.4779445 5.95,28.8 C5.83242223,28.0557218 5.77224488,27.3035048 5.77,26.55 C5.76895727,24.3825888 6.28671479,22.2464104 7.28,20.32 L31.51,20.32 C32.4848135,22.2380853 32.9952014,24.3584216 33,26.51 C32.9992375,27.263974 32.9356846,28.016575 32.81,28.76 C32.6922187,29.4379445 32.525108,30.1063872 32.31,30.76 C32.2036738,31.0818935 32.2676666,31.4357364 32.48,31.7 C34.8428931,34.666762 36.1296543,38.3472516 36.1302886,42.14 C36.1380694,43.5277392 35.9768797,44.911284 35.65,46.26 L35.65,46.26 Z"/>
        <circle id="Oval" cx="24.02" cy="28.85" r="1" fill="#3D454C"/>
        <circle id="Oval" cx="26.88" cy="26.31" r="1" fill="#3D454C"/>
        <path id="Path" fill="#3D454C" d="M12.28 39.18L9.28 42.18C8.89227641 42.5700375 8.89227641 43.1999625 9.28 43.59 9.4677666 43.7793127 9.72336246 43.8857983 9.99 43.8857983 10.2566375 43.8857983 10.5122334 43.7793127 10.7 43.59L13.7 40.59C14.0877236 40.1999625 14.0877236 39.5700375 13.7 39.18 13.5122334 38.9906873 13.2566375 38.8842017 12.99 38.8842017 12.7233625 38.8842017 12.4677666 38.9906873 12.28 39.18zM26.49 32.45L22.63 31.91C22.2727344 31.8599828 21.9159235 32.004364 21.6939746 32.2887564 21.4720257 32.5731489 21.418658 32.9543468 21.5539746 33.2887564 21.6892912 33.6231661 21.9927344 33.8599828 22.35 33.91L26.21 34.45 26.35 34.45C26.9022847 34.4886599 27.38134 34.0722847 27.4199999 33.52 27.4586599 32.9677153 27.0422847 32.48866 26.49 32.45L26.49 32.45zM23.5 35.27L19.64 34.73C19.0932605 34.6527669 18.5873971 35.0332837 18.51 35.58 18.4327669 36.1267395 18.8132837 36.6326029 19.36 36.71L23.22 37.25 23.36 37.25C23.861932 37.2549401 24.2897504 36.8870163 24.36 36.39 24.4309328 35.8434703 24.0463144 35.342572 23.5 35.27zM20.5 38.09L16.64 37.54C16.0877153 37.4626802 15.5773199 37.8477153 15.5000001 38.4 15.4226802 38.9522847 15.8077153 39.4626801 16.36 39.54L20.22 40.08 20.36 40.08C20.9122847 40.1186599 21.39134 39.7022847 21.4299999 39.15 21.4686599 38.5977153 21.0522847 38.11866 20.5 38.08L20.5 38.09zM20 31.3800492L20.14 31.3800492C20.4063722 31.3453661 20.647611 31.2050247 20.8093808 30.9905855 20.9711507 30.7761464 21.0398481 30.5056422 21 30.24L20.46 26.38C20.3826801 25.8277153 19.8722847 25.4426801 19.32 25.52 18.7677153 25.5973199 18.3826801 26.1077153 18.46 26.66L19 30.52C19.0702496 31.0170163 19.498068 31.3849401 20 31.3800492zM17.15 34.38L17.3 34.38C17.8467163 34.3026029 18.2272331 33.7967395 18.15 33.25L17.6 29.39C17.5226029 28.8432837 17.0167395 28.4627669 16.47 28.54 15.9232837 28.6173971 15.5427669 29.1232605 15.62 29.67L16.17 33.53C16.2436437 34.0155282 16.658937 34.3757317 17.15 34.38zM13.65 31.52C13.1032837 31.5973971 12.7227669 32.1032605 12.8 32.65L13.35 36.51C13.4202496 37.0070163 13.848068 37.3749401 14.35 37.3700492L14.49 37.3700492C15.0367163 37.2926029 15.4172331 36.7867395 15.34 36.24L14.79 32.38C14.7553661 32.1136278 14.6150247 31.872389 14.4005855 31.7106192 14.1861464 31.5488493 13.9156422 31.4801519 13.65 31.52z"/>
      </g>
    </g>
  </g>
</svg>
