<svg xmlns="http://www.w3.org/2000/svg" width="64" height="64" viewBox="0 0 64 64" style="background:#fff">
  <g id="Weißmehl" fill="none" fill-rule="evenodd" stroke="none" stroke-width="1">
    <rect width="64" height="64" fill="#FFF"/>
    <g transform="translate(2 4)">
      <g id="Layer_2">
        <rect id="Rectangle" width="60" height="60" x="0" y="0"/>
      </g>
      <g id="Layer_1" fill-rule="nonzero" transform="translate(11 4)">
        <path id="Path" fill="#CCC" d="M27.63 4.22C26.18 2.99 24.75 1.32 22.87.82 21.2769334.416138157 19.6149018.364946219 18 .67 14.7162165 1.22354693 11.8146163 3.12772209 10 5.92 8.91 7.52 9.44 11.72 11.19 12.58 11.7076057 13.4535243 12.6658303 13.9691954 13.68 13.92 17.89 13.65 22.1 13.41 26.31 13.05 30.12 12.73 29.89 6.14 27.63 4.22zM26.75 24.66C22.75 21.32 17.99 25.24 15.32 28.33 13.8854595 29.9801909 12.6285395 31.7767487 11.57 33.69 10.38 34.46 9.82 36.13 9.79 37.88 9.27621321 39.5010243 8.97371624 41.181563 8.89 42.88 8.77 45.14 11 47.43 12.74 45.18 13.1913196 44.595625 13.6118895 43.9881351 14 43.36 14.095427 43.3412964 14.1890959 43.3145338 14.28 43.28 18.91 41.56 24.28 42.28 27.6 37.93 30.31 34.35 30.46 27.73 26.75 24.66z" opacity=".5"/>
        <path id="Shape" fill="#3D454C" d="M34.39,31.21 C34.8105697,29.7812762 35.0227566,28.2993364 35.02,26.81 C35.0176575,24.4774995 34.4949612,22.1749031 33.49,20.07 C35.4154025,19.1071366 36.4256719,16.946415 35.9299539,14.8515297 C35.4342359,12.7566444 33.5627369,11.277843 31.41,11.28 L29.85,11.28 L26,5.45 C24.9639853,3.89809795 22.8948336,3.42803587 21.29,4.38 L21.17,4.12 C20.5168496,2.78485763 19.1966463,1.90366191 17.7130958,1.81262116 C16.2295452,1.7215804 14.8115015,2.43473864 14,3.68 L8.93,11.28 L7.38,11.28 C5.22538764,11.2731781 3.34956777,12.7504619 2.85115765,14.8466461 C2.35274752,16.9428304 3.36290168,19.1063128 5.29,20.07 C4.28817095,22.1755916 3.7688828,24.4782246 3.77,26.81 C3.77436088,27.6749197 3.85129751,28.537948 4,29.39 C4.09745472,30.0089898 4.23779254,30.6204617 4.42,31.22 C0.902214276,35.8773487 -0.233751592,41.9123987 1.35,47.53 C1.42593964,47.798829 1.61086399,48.023639 1.86,48.15 C6.54,50.53 12.77,51.84 19.41,51.84 C26.05,51.84 32.28,50.53 37,48.15 C37.2513029,48.0213992 37.4365439,47.7925721 37.51,47.52 C37.9564496,45.8906704 38.185105,44.209381 38.19,42.52 C38.1878843,38.4369242 36.8537145,34.4660134 34.39,31.21 Z M15.66,4.79 C16.0764521,4.14946631 16.807923,3.78564573 17.57,3.84 C18.3275918,3.88202776 19.0056278,4.32389391 19.35,5 L20.06,6.44 C20.2236562,6.75692724 20.5437324,6.96269054 20.9,6.98 C21.2536662,7.00135822 21.5922305,6.83397813 21.79,6.54 C22.0788894,6.13377936 22.5465301,5.8925105 23.045,5.8925105 C23.5434699,5.8925105 24.0111106,6.13377936 24.3,6.54 L27.45,11.26 L11.34,11.26 L15.66,4.79 Z M7.38,13.28 L31.38,13.28 C32.7831295,13.3661529 33.8769816,14.5292281 33.8769816,15.935 C33.8769816,17.3407719 32.7831295,18.5038471 31.38,18.59 L7.38,18.59 C6.39257345,18.6506285 5.45307158,18.1582653 4.94102016,17.3118077 C4.42896874,16.4653502 4.42896874,15.4046498 4.94102016,14.5581923 C5.45307158,13.7117347 6.39257345,13.2193715 7.38,13.28 Z M35.65,46.56 C30.5376708,48.8373793 24.9854075,49.957393 19.39,49.84 C13.7984518,49.9503377 8.25096532,48.8305989 3.14,46.56 C2.80023827,45.226643 2.62890343,43.8559643 2.62998933,42.48 C2.62570796,38.672604 3.91636982,34.9769384 6.29,32 C6.50240619,31.7315861 6.56276927,31.3731803 6.45,31.05 C6.2333028,30.3968477 6.06616236,29.728286 5.95,29.05 C5.83242223,28.3057218 5.77224488,27.5535048 5.77,26.8 C5.76895727,24.6325888 6.28671479,22.4964104 7.28,20.57 L31.51,20.57 C32.4924626,22.5031519 33.0030669,24.6415214 33,26.81 C32.996261,28.2640551 32.7634049,29.7084378 32.31,31.09 C32.1999995,31.414866 32.2641656,31.7734413 32.48,32.04 C34.8428931,35.006762 36.1296543,38.6872516 36.1301055,42.48 C36.1348318,43.8543642 35.973665,45.2242824 35.65,46.56 L35.65,46.56 Z"/>
        <circle id="Oval" cx="24.02" cy="29.15" r="1" fill="#3D454C"/>
        <circle id="Oval" cx="26.88" cy="26.61" r="1" fill="#3D454C"/>
        <path id="Path" fill="#3D454C" d="M12.28 39.48L9.28 42.48C8.89227641 42.8700375 8.89227641 43.4999625 9.28 43.89 9.4677666 44.0793127 9.72336246 44.1857983 9.99 44.1857983 10.2566375 44.1857983 10.5122334 44.0793127 10.7 43.89L13.7 40.89C14.0877236 40.4999625 14.0877236 39.8700375 13.7 39.48 13.5122334 39.2906873 13.2566375 39.1842017 12.99 39.1842017 12.7233625 39.1842017 12.4677666 39.2906873 12.28 39.48zM26.49 32.75L22.63 32.21C22.2727344 32.1599828 21.9159235 32.304364 21.6939746 32.5887564 21.4720257 32.8731489 21.418658 33.2543468 21.5539746 33.5887564 21.6892912 33.9231661 21.9927344 34.1599828 22.35 34.21L26.21 34.75 26.35 34.75C26.9022847 34.7886599 27.38134 34.3722847 27.4199999 33.82 27.4586599 33.2677153 27.0422847 32.78866 26.49 32.75L26.49 32.75zM23.5 35.57L19.64 35C19.0932605 34.9227669 18.5873971 35.3032837 18.51 35.85 18.4670873 36.115674 18.5330677 36.3874306 18.6930287 36.6038484 18.8529897 36.8202661 19.0934277 36.9630758 19.36 37L23.22 37.54 23.36 37.54C23.861932 37.5449401 24.2897504 37.1770163 24.36 36.68 24.4249952 36.1371101 24.0419159 35.6426705 23.5 35.57L23.5 35.57zM20.5 38.39L16.64 37.84C16.0877153 37.7626802 15.5773199 38.1477153 15.5000001 38.7 15.4226802 39.2522847 15.8077153 39.7626801 16.36 39.84L20.22 40.38 20.36 40.38C20.9122847 40.4186599 21.39134 40.0022847 21.4299999 39.45 21.4686599 38.8977153 21.0522847 38.41866 20.5 38.38L20.5 38.39zM20 31.6800492L20.14 31.6800492C20.4063722 31.6453661 20.647611 31.5050247 20.8093808 31.2905855 20.9711507 31.0761464 21.0398481 30.8056422 21 30.54L20.46 26.68C20.3826801 26.1277153 19.8722847 25.7426801 19.32 25.82 18.7677153 25.8973199 18.3826801 26.4077153 18.46 26.96L19 30.82C19.0702496 31.3170163 19.498068 31.6849401 20 31.6800492zM17.15 34.68L17.3 34.68C17.8467163 34.6026029 18.2272331 34.0967395 18.15 33.55L17.6 29.69C17.5226029 29.1432837 17.0167395 28.7627669 16.47 28.84 16.2013811 28.8767577 15.9592001 29.0210106 15.7989501 29.2397048 15.6387 29.458399 15.5741172 29.7327884 15.62 30L16.17 33.86C16.256663 34.3336154 16.6685242 34.678234 17.15 34.68L17.15 34.68zM13.65 31.82C13.3772186 31.8563319 13.1314654 32.0034702 12.9706206 32.2267606 12.8097758 32.450051 12.7480569 32.7297564 12.8 33L13.35 36.86C13.4202496 37.3570163 13.848068 37.7249401 14.35 37.7200492L14.49 37.7200492C15.0367163 37.6426029 15.4172331 37.1367395 15.34 36.59L14.79 32.73C14.7679795 32.4545743 14.6329818 32.2005343 14.4170395 32.0281593 14.2010972 31.8557843 13.9234577 31.7804385 13.65 31.82z"/>
      </g>
    </g>
  </g>
</svg>
