<svg xmlns="http://www.w3.org/2000/svg" width="64" height="64" viewBox="0 0 64 64" style="background:#fff">
  <g id="Weißweinessig" fill="none" fill-rule="evenodd" stroke="none" stroke-width="1">
    <rect width="64" height="64" fill="#FFF"/>
    <g transform="translate(2 4)">
      <g id="Layer_2">
        <rect id="Rectangle" width="60" height="60" x="0" y="0"/>
      </g>
      <g id="Layer_1" fill-rule="nonzero" transform="translate(16 2)">
        <path id="Path" fill="#CCC" d="M26.13,31.81 C22.88,25.68 12.55,17.93 5.82,23.35 C2.4,26.11 0.94,30.56 1.13,35 C0.213364724,39.2962524 0.926177656,43.7798458 3.13,47.58 C6.94,53.92 15.4,56.99 21.82,52.58 C28.48,48 29.78,38.7 26.13,31.81 Z" opacity=".5"/>
        <path id="Path" fill="#3D454C" d="M10.43,7.65 C10.4956679,8.15099205 10.9247407,8.52428541 11.43,8.52003652 L11.57,8.52003652 C12.1163144,8.44742798 12.5009328,7.94652967 12.43,7.4 L12,4.3 C11.9393707,3.89336941 12.0517971,3.47993061 12.31,3.16 C12.4147812,3.02126121 12.5762741,2.93684446 12.75,2.93 L16.65,2.93 C16.8201657,2.93976003 16.9774247,3.02387528 17.08,3.16 C17.3289944,3.469371 17.4441855,3.86534031 17.4,4.26 L17,7.32 C16.9199187,7.87228475 17.3027153,8.38491871 17.855,8.465 C18.4072847,8.54508129 18.9199187,8.16228475 19,7.61 L19.45,4.52 C19.5765593,3.55048205 19.2857973,2.57279483 18.65,1.83 C18.1670711,1.26503772 17.4632068,0.936810812 16.72,0.93 L12.82,0.93 C12.0510272,0.920097215 11.3177235,1.25375041 10.82,1.84 C10.1710374,2.58810678 9.87265605,3.57785963 10,4.56 L10.43,7.65 Z"/>
        <path id="Shape" fill="#3D454C" d="M24.18,28.29 C23.85,27.63 23.52,26.98 23.18,26.29 C21.62,23.08 19.58,18.42 19.43,14.45 C20.6927086,13.813546 21.4725583,12.5033985 21.43,11.09 L21.43,9.09 C21.4346307,9.04679038 21.4346307,9.00320962 21.43,8.96 C21.4343353,8.93686804 21.4343353,8.91313196 21.43,8.89 C21.5045584,8.33771525 21.1172847,7.82955846 20.565,7.75500001 C20.0127153,7.68044157 19.5045584,8.06771526 19.43,8.62 L19.43,8.76 C19.3654166,8.98325486 19.2091301,9.16861793 19,9.27 C18.9256993,9.30049757 18.848693,9.32393426 18.77,9.34 L18.77,9.34 C17.3367281,9.51452073 15.8938356,9.59802145 14.45,9.59 C13.55,9.59 12.87,9.51 12.24,9.45 L12.11,9.45 C11.3832542,9.40259131 10.6648033,9.26830142 9.97,9.05 C10.0140786,8.88285724 10.0140786,8.70714276 9.97,8.54 C9.91047651,8.2813271 9.75055419,8.05693141 9.5254674,7.91625216 C9.3003806,7.77557292 9.0285983,7.73015321 8.77,7.79 C8.0928605,7.86992884 7.56811759,8.41985941 7.52,9.1 C7.51529299,9.16324588 7.51529299,9.22675412 7.52,9.29 L7.52,11.08 C7.46843762,12.4982586 8.25037755,13.8158274 9.52,14.45 C8.89305548,18.555457 7.65252846,22.5433468 5.84,26.28 C5.4,27.18 4.9,28.08 4.42,28.96 C2.93454023,31.3350865 1.88475752,33.9561568 1.32,36.7 C0.716713813,40.3832577 1.50825608,44.1591282 3.54,47.29 C4.18381547,48.3929302 5.12688607,49.2909276 6.26,49.88 L6.26,51.81 C6.25600063,52.2647017 6.44933955,52.6988023 6.79,53 C8.04,54.23 11.73,55 14.57,55 L14.86,55 C18.17,54.95 22.77,52.92 22.77,51 L22.77,50 C23.9186474,49.3988342 24.8724707,48.4831638 25.52,47.36 C26.8408156,45.426095 27.624196,43.1760332 27.79,40.84 C28.12,36.08 26.12,32.12 24.18,28.29 Z M11.89,11.46 L12.01,11.46 C12.69,11.53 13.41,11.58 14.39,11.61 L14.46,11.61 C15.9765869,11.6132164 17.4922049,11.5330957 19,11.37 C19.144937,11.3439831 19.288456,11.3106066 19.4300868,11.27 C19.4362146,11.8680707 19.10834,12.4196715 18.58,12.7 C18.290751,12.7887986 17.9970073,12.8622345 17.7,12.92 C15.5707241,13.3752086 13.3692759,13.3752086 11.24,12.92 C10.9661572,12.8657621 10.6957006,12.7956437 10.43,12.71 C9.84684544,12.401883 9.50141755,11.7777576 9.55,11.12 L9.55,11.06 C10.3138896,11.2746908 11.0981708,11.408756 11.89,11.46 L11.89,11.46 Z M25.8,40.61 C25.6350233,42.6164682 24.9452909,44.5442704 23.8,46.2 C23.2719712,47.1885103 22.4005335,47.9496844 21.35,48.34 C20.9732059,48.4947874 20.7279599,48.8626565 20.73,49.27 L20.73,50.77 C19.0180324,52.1219017 16.9109668,52.8769335 14.73,52.92 C12.4732861,53.0277838 10.2244977,52.5814594 8.18,51.62 L8.18,50.62 C8.35,50.67 8.53,50.74 8.7,50.78 C10.0469884,51.1386838 11.4218812,51.3828861 12.81,51.51 L13,51.51 C13.5189652,51.5121057 13.953297,51.1168638 14,50.6 C14.0249745,50.3345521 13.9429112,50.0701218 13.7720405,49.8654525 C13.6011698,49.6607831 13.3556415,49.5328236 13.09,49.51 C11.8164672,49.4005439 10.5549756,49.1796992 9.32,48.85 C8.76,48.7 8.19,48.53 7.64,48.33 C6.58996045,47.9179938 5.7212653,47.1450324 5.19,46.15 C3.435141,43.4448129 2.76058124,40.1790871 3.3,37 C3.84029272,34.5152749 4.81527366,32.1455296 6.18,30 C6.67,29.1 7.18,28.18 7.64,27.23 C9.51194991,23.3649978 10.7993351,19.2433431 11.46,15 C12.3156049,15.1513986 13.1813742,15.2383098 14.05,15.26 C14.224617,18.0974091 14.7899492,20.8971497 15.73,23.58 C15.8764639,23.9720069 16.2515275,24.2313593 16.67,24.23 C16.7891151,24.22874 16.9072665,24.2084855 17.02,24.17 C17.2679987,24.0758755 17.4684397,23.8870744 17.577215,23.6451432 C17.6859902,23.403212 17.6941865,23.1279752 17.6,22.88 C16.7419631,20.4009022 16.22064,17.8178302 16.05,15.2 C16.53,15.2 17.05,15.08 17.48,15 C17.76,19.25 19.81,24 21.4,27.22 C21.72,27.89 22.06,28.56 22.4,29.22 C24.29,32.94 26.09,36.49 25.8,40.61 Z"/>
        <path id="Path" fill="#3D454C" d="M7.75 35.4C7.94882251 34.8836138 7.69138624 34.3038225 7.175 34.105 6.65861376 33.9061775 6.07882251 34.1636138 5.88 34.68 5.77 34.96 3.26 41.59 7.5 46.12 7.69020387 46.3195342 7.95433985 46.4317015 8.23 46.4300213 8.48608768 46.4316723 8.73305747 46.335032 8.92 46.16 9.30772359 45.7699625 9.30772359 45.1400375 8.92 44.75 5.59 41.15 7.73 35.46 7.75 35.4zM18.21 26.15C17.6577153 26.15 17.21 26.5977153 17.21 27.15 17.21 27.7022847 17.6577153 28.15 18.21 28.15 18.7622847 28.15 19.21 27.7022847 19.21 27.15 19.21 26.5977153 18.7622847 26.15 18.21 26.15z"/>
      </g>
    </g>
  </g>
</svg>
