<svg xmlns="http://www.w3.org/2000/svg" width="64" height="64" viewBox="0 0 64 64" style="background:#fff">
  <g id="Weißkohl" fill="none" fill-rule="evenodd" stroke="none" stroke-width="1">
    <rect width="64" height="64" fill="#FFF"/>
    <g transform="translate(2 4)">
      <g id="Layer_2">
        <rect id="Rectangle" width="60" height="60" x="0" y="0"/>
      </g>
      <g id="Layer_1" fill-rule="nonzero" transform="translate(8 6)">
        <path id="Path" fill="#31E085" d="M39.51,7 C32.1454089,-0.00111968465 21.0298224,-1.2665739 12.28,3.9 C4.68,8.55 -2.22,20.43 2,29.29 C2.85,31.07 5.35,32.6 6.59,30.07 C9.17,24.79 9.31,19.3 14.74,15.74 C20.2331023,12.2520858 27.2468977,12.2520858 32.74,15.74 C36.58,18.32 41.29,25.06 37.74,29.62 C33.67,34.81 24.84,33.93 19.14,33.78 C12.8,33.62 13.03,47.95 19.49,48.22 C30.25,48.67 41.54,46.72 45.95,35.55 C49.66,25.92 46.86,14.18 39.51,7 Z" opacity=".5"/>
        <path id="Shape" fill="#3D454C" d="M18.15,35.09 C20.256569,34.3953833 22.5742091,34.9010502 24.2,36.41 C24.76,36.99 25.82,38.08 26.85,37.54 C27.88,37 27.6,35.54 27.46,34.77 C26.957847,32.589301 25.2983958,30.8607059 23.14,30.27 C22.7926856,30.1837287 22.4569594,30.0561527 22.14,29.89 C22.5864486,29.6409968 23.0743351,29.4749798 23.58,29.4 C26.3448701,28.9483538 29.1774848,29.5786196 31.49,31.16 C32.83,32.08 33.67,31.95 34.14,31.69 C34.6249082,31.3984047 34.8976687,30.8528837 34.84,30.29 C34.75,28.9 32.91,26.78 29.02,25.2 L28.88,25.14 C30.1671409,24.7093016 31.5386314,24.5927249 32.88,24.8 L34.2,24.88 C36.56,24.96 37.2,24.05 37.31,23.28 C37.5,21.89 35.86,20.52 34.2,20.11 C33.85,20.03 33.53,19.97 33.2,19.92 L34.78,18.43 C35.1517082,18.0837122 35.2917043,17.5548382 35.14,17.07 C34.8663097,16.4021871 34.23957,15.945673 33.52,15.89 C32.7,15.76 29.72,15.7 26.36,20.4 L26.23,20.57 C26.59,17.88 25.98,14.16 24.91,13.25 C24.5581825,12.9262818 24.0487428,12.8400689 23.61,13.03 C22.85,13.36 22.52,14.35 22.41,16.67 C22.2238963,18.1716273 21.919619,19.6562328 21.5,21.11 C21.3461076,19.4093381 20.623965,17.8100564 19.45,16.57 C18.39,15.35 17.57,15.57 17.17,15.77 C16.05,16.41 16.46,18.09 16.86,19.29 C18.37,23.85 14.91,29.86 11.86,32.45 L11.63,32.64 C10.6123897,33.5516549 9.38095551,34.1914503 8.05,34.5 C7.41415238,34.245284 6.7349586,34.1162372 6.05,34.12 C4.16,34.12 1.44,35.35 0.55,37.12 C-0.0351190805,38.4375765 0.0239815012,39.9520289 0.71,41.22 C1.30520789,42.409523 2.07731408,43.5019352 3,44.46 C4.68,46.31 7,48 8.92,48 C9.35417596,48.0076081 9.78352493,47.9079992 10.17,47.71 C13.07,46.14 14.3,43.57 13.55,40.71 C13.48,40.46 13.4,40.21 13.31,39.97 C13.9220158,37.5877009 15.7728186,35.7216021 18.15,35.09 Z M11.23,44.09 C10.71,43.02 9.23,40.64 7.71,40.64 L7.71,40.64 C7.15771525,40.6234315 6.69656854,41.0577153 6.68,41.61 C6.66343146,42.1622847 7.09771525,42.6234315 7.65,42.64 C8.45754443,43.3078032 9.09502139,44.1577725 9.51,45.12 C9.58016079,45.2804147 9.61101585,45.45526 9.6,45.63 L9.6,45.63 L9.23,45.85 L9.23,45.85 C8.61,46.19 6.51,45.29 4.5,43.07 C3.73456046,42.2467463 3.09742073,41.3129489 2.61,40.3 C2.22240607,39.5965451 2.1427881,38.7641754 2.39,38 C2.9,37 4.91,36.14 6.14,36.13 L6.14,36.13 C8.24,36.13 10.93,38.59 11.58,41.13 C11.8865124,42.1350782 11.7596496,43.222474 11.23,44.13 L11.23,44.09 Z M12.06,37.55 C11.5631574,36.8934625 10.9890199,36.2991798 10.35,35.78 C11.316306,35.3891967 12.2116278,34.8418679 13,34.16 L13.21,33.98 C17.08,30.73 20.27,24.34 19.04,19.31 C19.4260086,20.0767071 19.6312577,20.9216492 19.64,21.78 C19.72,23.23 19.83,25.2 21.24,25.2 L21.24,25.2 C22.24,25.2 22.83,24.2 23.62,21.2 C23.9292426,20.0670557 24.1795781,18.91885 24.37,17.76 C24.4877507,18.8430396 24.4235315,19.9381467 24.18,21 C23.94,21.94 23.54,23.52 24.66,24 C25.78,24.48 26.6,23.53 28.05,21.51 C29.88,18.96 31.49,18.11 32.47,17.88 L31.75,18.55 C30.51,19.71 30.05,20.14 30.32,20.91 C30.59,21.68 31.32,21.69 31.89,21.73 C32.5163515,21.7688761 33.1384468,21.8591802 33.75,22 C34.2817645,22.1335757 34.7684118,22.4062362 35.16,22.79 C34.8739206,22.8159494 34.5860794,22.8159494 34.3,22.79 L33.05,22.72 C31.3114651,22.452344 29.5329581,22.6560953 27.9,23.31 C26.76,23.84 25.9,24.25 25.9,25.18 C25.9,26.11 26.69,26.34 27.66,26.71 L28.3,26.96 C29.4069591,27.3916014 30.4525399,27.9665027 31.41,28.67 C27.45,26.67 23,27 21.11,28.18 C20.3794656,28.5402928 19.9404211,29.307632 20,30.12 C20.13,31.04 21,31.74 22.59,32.2 C23.8999982,32.5609821 24.954414,33.5334292 25.42,34.81 C23.2830692,32.9262674 20.3136986,32.303535 17.6,33.17 C15.2188283,33.8084249 13.2113183,35.4100846 12.06,37.59 L12.06,37.55 Z"/>
        <path id="Path" fill="#3D454C" d="M3.87,32.66 L4.11,32.66 C5.41,32.51 11.32,29.85 12.04,26.79 C12.3158305,25.491729 11.6782483,24.171317 10.49,23.58 L10.39,23.5 C10.7295695,23.5413747 11.0644189,23.6150415 11.39,23.72 C11.9075278,23.9506982 12.5052248,23.9133421 12.99,23.62 C13.64,23.14 13.65,22.44 13.7,20.11 C13.7080281,19.6920679 13.5412987,19.2897426 13.24,19 C12.4403709,18.3278472 11.5256048,17.8060917 10.54,17.46 C11.33,17.28 12.01,17.15 12.18,17.12 C12.6141488,17.0944761 12.982025,16.7912814 13.09,16.37 C13.2443134,15.7696398 13.2917037,15.1467963 13.23,14.53 C13.2210051,14.4068307 13.2210051,14.2831693 13.23,14.16 C13.3687427,14.0053329 13.539313,13.8825222 13.73,13.8 C14.5483761,13.3967148 14.9672723,12.4709542 14.73,11.59 C14.4800265,10.8223982 13.9845815,10.1582911 13.32,9.7 C14.83,9.49 16.81,9.6 18.02,10.86 C18.39,11.25 19.74,12.2 20.81,11.76 C21.3813419,11.5205849 21.7412781,10.9486864 21.71,10.33 C21.7170627,9.82245137 21.5893892,9.32210919 21.34,8.88 C21.8177183,9.01485027 22.275146,9.21329318 22.7,9.47 C22.9087729,9.61871473 23.1090843,9.77896385 23.3,9.95 C24.18,10.7 24.69,10.78 26.23,10.38 L26.3,10.38 C26.8522847,10.3468629 27.2731371,9.87228475 27.24,9.32 C27.2068629,8.76771525 26.7322847,8.34686292 26.18,8.38 L26,8.38 C25.9336871,8.37028689 25.8663129,8.37028689 25.8,8.38 C25.4724513,8.47516562 25.1381604,8.54536671 24.8,8.59 C24.7099186,8.52789415 24.6231343,8.46113699 24.54,8.39 C24.3058637,8.17811129 24.0587154,7.98106064 23.8,7.8 C22.8,7.1 19.67,6.08 18.54,6.61 C18.1344162,6.78177493 17.8625753,7.17011909 17.84,7.61 C17.8119438,7.91177392 17.8936007,8.21354935 18.07,8.46 C15.6120333,7.30604354 12.7679667,7.30604354 10.31,8.46 C9.41,8.96 9.42,9.58 9.5,9.91 C9.58,10.24 9.96,10.81 11.02,10.81 C11.7410698,10.9334295 12.3687126,11.3738805 12.73,12.01 L12.73,12.01 C11.6667588,12.4063406 11.0336234,13.5007005 11.22,14.62 C11.2302632,14.8198683 11.2302632,15.0201317 11.22,15.22 C10.34,15.4 9.11,15.69 8.56,15.84 C6.9,16.29 6.15,16.92 6.27,17.78 C6.41,18.89 7.75,18.89 8.27,18.89 L8.43,18.89 C9.60502647,19.1301627 10.7202016,19.6027522 11.71,20.28 C11.71,20.8 11.71,21.28 11.71,21.65 C11.0560756,21.4851377 10.3843852,21.4011764 9.71,21.4 C8.38,21.4 7.94,22.01 7.8,22.5 C7.41,23.87 9.4,25.17 9.43,25.19 C10.25,25.72 10.16,26.11 10.12,26.27 C9.7,28.06 5.01,30.49 3.97,30.62 C3.97,30.62 3.45,30.33 2.84,27.87 C2.37078094,25.1111404 2.35389333,22.2942872 2.79,19.53 C3.15502431,14.8404116 5.66926201,10.5835598 9.6,8 C14.357273,5.14019036 20.1307873,4.5149396 25.39,6.29 C25.9146705,6.4639697 26.4810303,6.17967051 26.655,5.655 C26.8289697,5.13032949 26.5446705,4.5639697 26.02,4.39 C20.187014,2.43594632 13.7905549,3.13772926 8.52,6.31 C4.1,9.14 1.42,13.66 0.77,19.38 C0.311375919,22.3653136 0.345157033,25.4056139 0.87,28.38 C1.19,29.69 1.92,32.66 3.87,32.66 Z"/>
        <path id="Shape" fill="#3D454C" d="M38.41,7.36 L38.06,7 C35.86,4.9 30.45,2.8 29.23,3.29 C28.8448861,3.45828817 28.5809207,3.82171889 28.54,4.24 C28.54,5.04 29.26,5.49 30.34,6.04 C34.09,7.96 36.34,9.45 35.58,13.97 C35.32,15.6 36.58,16.76 37.81,17.88 C39.04,19 40.19,20.06 40.31,21.58 C40.4022311,22.3078643 40.7579933,22.9766972 41.31,23.46 C41.8738592,23.8983879 42.1845569,24.5871635 42.14,25.3 C42.14,26.7 42.22,29.98 43.78,30.15 L44,30.15 C45.21,30.15 45.57,28.4 45.83,27.15 C47.28,19.8 43,11.74 38.41,7.36 Z M42.77,22.07 C42.45,21.74 42.32,21.6 42.3,21.44 C42.12,19.13 40.48,17.63 39.16,16.44 C38.29,15.64 37.46,14.88 37.56,14.32 C38.0133556,12.3231912 37.6916809,10.2287316 36.66,8.46 L36.66,8.46 L37.01,8.8 C40.71,12.32 44.19,18.4 44.08,24.29 C43.8887477,23.4302207 43.4301642,22.6530791 42.77,22.07 L42.77,22.07 Z"/>
        <path id="Path" fill="#3D454C" d="M41.71,32.08 C41.1577153,32.08 40.71,32.5277153 40.71,33.08 C40.71,33.57 40.65,34.08 40.59,34.77 C40.2,38.53 37.05,41.77 31.92,43.61 C26.06,45.73 19.97,45.26 18.17,43.51 C17.6064474,42.977725 17.4418887,42.1469041 17.76,41.44 C18.16,40.24 19.54,40.44 22.37,40.98 C24.72,41.47 27.16,41.98 28.83,40.61 L29.13,40.32 C29.388052,40.880056 29.948353,41.2388079 30.565,41.2388079 C31.181647,41.2388079 31.741948,40.880056 32,40.32 C32.1329953,40.7851999 32.5225124,41.1318701 33,41.21 C34.06,41.35 34.6,40.05 34.83,39.5 C35.2711077,38.7380648 35.3339008,37.8146358 35,37 C34.8571123,36.6819793 34.8571123,36.3180207 35,36 L35.4,36.08 C36.95,36.4 38.1,36.15 38.8,35.36 C39.5,34.57 39.65,33.04 38.96,31.04 C38.96,30.96 38.91,30.89 38.89,30.82 C39.0316235,30.9101386 39.1927955,30.9650057 39.36,30.98 C39.6962806,31.000292 40.0201761,30.8498967 40.2216661,30.5799001 C40.4231561,30.3099035 40.475155,29.9566002 40.36,29.64 C40.2557233,28.7635794 40.1956472,27.8824636 40.18,27 C40.18,26.4477153 39.7322847,26 39.18,26 C38.6277153,26 38.18,26.4477153 38.18,27 C38.18,27.27 38.18,27.51 38.18,27.74 C37.6855417,27.468632 37.0967725,27.4284055 36.57,27.63 C36.2556506,27.7965551 36.0263572,28.0882334 35.9387318,28.4330202 C35.8511064,28.7778071 35.9133156,29.1435689 36.11,29.44 C36.3469562,29.8455241 36.5413241,30.2744739 36.69,30.72 C36.69,30.91 36.82,31.18 37.01,31.72 C37.49,33.1 37.43,33.85 37.24,34.07 C37.05,34.29 36.63,34.34 35.73,34.15 C35.5,34.15 35.32,34.06 35.17,34.02 C33.81,33.67 33.36,34.25 33.05,35.38 C32.8480534,36.0085619 32.8307001,36.6818698 33,37.32 C32.8239313,37.1638825 32.6038652,37.0660753 32.37,37.04 C31.63,36.93 31.22,37.48 30.91,38.04 C30.8138814,37.7568081 30.6529387,37.4999847 30.44,37.29 C30.2158009,37.0477725 29.8865176,36.931775 29.56,36.98 C29.2438852,37.0399658 28.9759336,37.2483726 28.84,37.54 C28.4373385,38.0561382 27.999638,38.5439571 27.53,39 C26.6,39.76 24.64,39.35 22.75,39 C20.12,38.46 16.84,37.77 15.83,40.78 C15.272427,42.2173733 15.6310561,43.8489384 16.74,44.92 C18.17,46.3 20.86,47 24,47 C26.9208473,46.9752699 29.8159382,46.451042 32.56,45.45 C38.44,43.32 42.07,39.45 42.56,34.93 C42.64,34.14 42.68,33.59 42.6900531,33.09 C42.6955939,32.5415476 42.2583718,32.0909411 41.71,32.08 Z"/>
      </g>
    </g>
  </g>
</svg>
