<svg xmlns="http://www.w3.org/2000/svg" width="64" height="64" viewBox="0 0 64 64" style="background:#fff">
  <g id="Weiße-Bohnen" fill="none" fill-rule="evenodd" stroke="none" stroke-width="1">
    <rect width="64" height="64" fill="#FFF"/>
    <g transform="translate(2 6)">
      <g id="Layer_2">
        <rect id="Rectangle" width="60" height="60" x="0" y="0"/>
      </g>
      <g id="Layer_1" fill-rule="nonzero" transform="translate(7 8)">
        <g id="Group" fill="#CCC" opacity=".5" transform="translate(0 15)">
          <path id="Path" d="M36,12.2 C33.23,12.78 31.82,14.44 29.37,15.66 C26.843893,16.8707137 24.0424734,17.3916674 21.25,17.17 C18.25,16.95 6.06,12.55 8.94,7.94 C10.53,5.39 9.2,-1.77 5.19,0.94 C-5.25,8.03 2.79,22.84 10.79,28.05 C19.72,33.87 36.11,35.29 40.32,22.86 C41.14,20.31 40.83,11.18 36,12.2 Z"/>
        </g>
        <g id="Group" fill="#CCC" opacity=".5" transform="translate(28)">
          <path id="Path" d="M14.18,3.52 C11,0.4 5.32,-0.62 2.1,3 C-0.41,5.82 -0.29,11.3 3.24,13.26 C4.58,14.01 6.48,14.52 7.52,15.26 L7.83,15.53 C7.7,16.7 7.58,18 7.58,18 C7.52125432,19.8149608 7.94573129,21.6129486 8.81,23.21 C10.1,25.44 12.54,26.59 14.99,25.09 C16.4277501,23.9837185 17.4468116,22.4216277 17.88,20.66 C19.6,15 18.52,7.72 14.18,3.52 Z"/>
        </g>
        <path id="Shape" fill="#3D454C" d="M30.27,24.47 C29.4010979,24.2735997 28.5100492,24.1929009 27.62,24.23 C26.6853627,24.2679482 25.7602236,24.4327911 24.87,24.72 C24.1580725,24.9694191 23.3960686,25.0415005 22.65,24.93 L22.54,24.93 C20.8571098,24.536915 19.3685966,23.5587492 18.34,22.17 C17.9678993,21.6232852 17.6812765,21.0230634 17.49,20.39 L17.49,20.39 C17.42,20.19 17.36,19.98 17.29,19.77 C17.0683141,18.8771593 16.7321984,18.016703 16.29,17.21 C15.0618683,15.2449457 12.9872378,13.9654054 10.68,13.75 C7.99253513,13.422612 5.30046875,14.3224159 3.35,16.2 C1.90944822,17.6949849 0.921378023,19.5671179 0.5,21.6 C-0.731488197,26.9370316 0.546880442,32.5441701 3.97,36.82 C8.3,42.28 15.97,45.82 23.89,46 L24.39,46 C29.18,46 33.39,44.28 35.95,41.25 C38.2016955,38.4626181 38.8731954,34.7180167 37.7303528,31.3219099 C36.5875102,27.9258032 33.788758,25.3489954 30.31,24.49 L30.27,24.47 Z M20.56,26.37 C20.0373596,26.6667249 19.4399392,26.8056599 18.84,26.77 C18.0481231,26.7221519 17.3074365,26.3625953 16.78,25.77 C16.2611829,25.1592374 16.002665,24.3693215 16.06,23.57 C16.0918225,23.264587 16.1658615,22.9650653 16.28,22.68 C16.4178466,22.9317722 16.574983,23.1724918 16.75,23.4 C17.7431907,24.701438 19.0555314,25.7244437 20.56,26.37 L20.56,26.37 Z M34.38,39.94 C32.15,42.57 28.23,44.1 23.9,43.94 C16.52,43.76 9.47,40.53 5.5,35.52 C2.47237153,31.7154276 1.33904194,26.7405522 2.42,22 C2.75501919,20.3431875 3.55647832,18.8165987 4.73,17.6 C6.03256698,16.3491181 7.77418379,15.6596533 9.58,15.68 C9.85418536,15.6767112 10.1282455,15.6934221 10.4,15.73 C12.0972666,15.8711115 13.6299963,16.8003752 14.54,18.24 C14.9035391,18.9071323 15.1855623,19.6155477 15.38,20.35 L15.38,20.4 C14.6064074,21.2183256 14.136946,22.2772611 14.05,23.4 C13.9452956,24.7269625 14.3740249,26.0409025 15.241212,27.0507436 C16.108399,28.0605848 17.3424548,28.6829618 18.67,28.78 L19.06,28.78 C20.5473773,28.7903437 21.9621418,28.1379393 22.92,27 C23.7882833,27.0399808 24.6564186,26.9178993 25.48,26.64 C26.1989425,26.4101408 26.9457614,26.2789429 27.7,26.25 C28.4150839,26.2265098 29.1303638,26.2903141 29.83,26.44 C32.6275614,27.1449437 34.874807,29.2238468 35.7950116,31.9581692 C36.7152163,34.6924915 36.1821278,37.707084 34.38,39.96 L34.38,39.94 Z"/>
        <path id="Path" fill="#3D454C" d="M44 5.25C43.0675638 3.7323546 41.7851056 2.46018352 40.26 1.54 38.9987706.760705321 37.5607436.313472038 36.08.24 33.9052083.162376295 31.7951366.987584453 30.25 2.52 28.7991364 3.87856959 27.9831962 5.78243012 28 7.77 28.0078727 8.15495673 27.9810981 8.53984125 27.92 8.92L27.92 8.92C27.8845125 9.18588279 27.834437 9.44961394 27.77 9.71 27.2591359 11.6019303 25.9635242 13.1850513 24.21 14.06 23.5162047 14.366235 22.7537598 14.4835342 22 14.4L21.76 14.4C21.3929966 14.3968029 21.0274609 14.3532069 20.67 14.27 20.1315224 14.1429745 19.5920255 14.4765224 19.4650001 15.015 19.3379746 15.5534776 19.6715224 16.0929745 20.21 16.22 20.6922566 16.3318113 21.1850136 16.3921489 21.68 16.4L21.87 16.4C22.9862355 16.5096591 24.1115276 16.3198092 25.13 15.85 27.1300992 14.8388784 28.6708848 13.1050476 29.44 11 29.44 11 29.49 11.05 29.5 11.08 30.1797026 12.4470703 29.6251114 14.1063715 28.26 14.79 27.8513757 14.9992046 27.6376754 15.459756 27.7417642 15.9068644 27.8458529 16.3539729 28.240992 16.6727838 28.7 16.68 28.8523698 16.6806236 29.0028673 16.6464197 29.14 16.58 30.273873 16.0192189 31.1378984 15.0301717 31.541292 13.8312485 31.9446856 12.6323252 31.8542665 11.3221425 31.29 10.19 30.9909918 9.55192689 30.5496892 8.99089109 30 8.55 30.0149415 8.27353506 30.0149415 7.99646494 30 7.72 30.0070259 6.31031372 30.5927216 4.96538275 31.62 4 32.7683756 2.82365623 34.3567637 2.18177338 36 2.23 37.1524836 2.28951568 38.2723763 2.63304105 39.26 3.23 40.5026213 3.97428976 41.5512522 5.00235927 42.32 6.23 46.14 12.41 43.81 19.45 40.32 23.97 39.9864306 24.4092147 40.0714366 25.0355748 40.51 25.37 40.6818349 25.5033977 40.8924824 25.5771243 41.11 25.58 41.4247573 25.58 41.7211456 25.4318058 41.91 25.18 46.82 18.81 47.61 11.14 44 5.25zM38.69 26.1C38.1377153 26.1 37.69 26.5477153 37.69 27.1 37.69 27.6522847 38.1377153 28.1 38.69 28.1 39.2422847 28.1 39.69 27.6522847 39.69 27.1 39.69 26.5477153 39.2422847 26.1 38.69 26.1zM16.86 15.13C17.4122847 15.13 17.86 14.6822847 17.86 14.13 17.86 13.5777153 17.4122847 13.13 16.86 13.13 16.3077153 13.13 15.86 13.5777153 15.86 14.13 15.86 14.6822847 16.3077153 15.13 16.86 15.13z"/>
      </g>
    </g>
  </g>
</svg>
