<svg xmlns="http://www.w3.org/2000/svg" width="64" height="64" viewBox="0 0 64 64" style="background:#fff">
  <g id="Wermut" fill="none" fill-rule="evenodd" stroke="none" stroke-width="1">
    <rect width="64" height="64" fill="#FFF"/>
    <g transform="translate(2 4)">
      <g id="Layer_2">
        <rect id="Rectangle" width="60" height="60" x="0" y="0"/>
        <rect id="Rectangle" width="60" height="60" x="0" y="0"/>
      </g>
      <g id="Layer_1" fill-rule="nonzero" transform="translate(5 3)">
        <g id="Group" fill="#31E085" opacity=".5" transform="translate(2)">
          <path id="Path" d="M41.59,17 C37.35,19.52 33.77,22.69 29.17,24.64 C25.7701704,25.9748234 22.2733277,27.0479463 18.71,27.85 C19.0281178,26.1564532 19.4590783,24.4860634 20,22.85 C21.69,18.04 24.66,14.11 26.86,9.58 C28.13,6.97 27.19,-1.93 22.62,1.7 C17.79,5.54 15.05,12.46 13.31,18.21 C11.57,23.96 10.31,30.45 12.38,36.11 C13.2,38.35 15.15,38.11 16.18,36.47 C26.22,38 38.6,32.67 44.8,24.79 C46.33,22.85 45.21,14.81 41.59,17 Z"/>
          <path id="Path" d="M27.55,36.1 C20.8908332,39.7185827 13.658639,42.1642686 6.17,43.33 C8.23390303,33.7615067 8.12797582,23.852187 5.86,14.33 C4.65,9.56 -0.43,10.98 0.06,15.68 C1.17124366,24.889069 1.4857436,34.1768543 1,43.44 C0.92043366,44.5564263 1.204615,45.6685928 1.81,46.61 C1.65,48.2 2.19,49.92 3.53,50.32 C12.7499423,52.8683167 22.6259358,51.1746609 30.47,45.7 C33.49,43.6 31.79,33.84 27.55,36.1 Z"/>
        </g>
        <path id="Shape" fill="#3D454C" d="M49.55,17.6 C49.1457409,17.3693895 48.6358311,17.448156 48.32,17.79 C47.84,18.2 42.82,21.5 40.13,23.27 C38.57,24.27 37.32,25.12 36.99,25.35 C34.9438196,26.7985872 32.7756696,28.0666873 30.51,29.14 L28.89,30 C28.5608484,30.1561707 28.3426741,30.4789913 28.3205136,30.8426381 C28.2983531,31.2062849 28.4757133,31.5532093 28.7834657,31.7481927 C29.091218,31.9431762 29.4806596,31.9553617 29.8,31.78 L31.4,30.96 C33.7541473,29.8380799 36.0060055,28.5130637 38.13,27 C38.46,26.77 39.69,26 41.23,24.95 C43.42,23.5 45.05,22.43 46.23,21.62 C44.5634656,24.247263 42.4715948,26.5790737 40.04,28.52 C30.81,35.16 23.45,37.39 18.73,35 L25.73,28 C30.35,26.73 36.78,19.22 38.89,16.39 C40.68,13.99 41.61,10.53 42.36,7.76 L42.36,7.66 C42.4764783,7.23569286 42.3019264,6.7851053 41.93,6.55 C41.6302513,6.36458009 41.2628862,6.32416992 40.93,6.44 C38.23,7.26 26.93,20.51 25.22,24.44 C25.22,24.44 25.17,24.55 24.52,26.44 L15.14,35.81 C15.07,35.24 14.99,34.62 14.93,34.07 L14.85,33.46 C13.9,26 22.1,13.7 26.5,8.43 C26.14,9.43 25.84,10.22 25.5,11.04 C24.3389692,14.4341503 22.9111797,17.7311069 21.23,20.9 C20.88,21.57 20.23,22.9 19.47,24.38 C18.64,26.04 17.72,27.87 17.08,29.12 C16.8369947,29.6225791 17.0474209,30.2269947 17.55,30.47 C18.0525791,30.7130053 18.6569947,30.5025791 18.9,30 C19.55,28.74 20.47,26.91 21.3,25.25 L23.05,21.78 C24.7639605,18.532702 26.2281923,15.1596201 27.43,11.69 C27.99,10.12 28.57,8.49 29.55,6.17 C29.72,5.78 30.11,4.85 29.46,4.25 C29.0523206,3.88943873 28.4530335,3.84839167 28,4.15 C25.6,5.4 11.56,23.3 12.85,33.69 L12.92,34.3 C13.11,35.86 13.24,36.87 13.37,37.54 L8.68,42.24 C10.68,35.8 12.34,25.7 12.34,21.86 C12.34,18.86 11.02,16.3 9.74,13.86 C9.18129356,12.8237712 8.67726921,11.7589781 8.23,10.67 C8.09144877,10.2735351 7.71993595,10.0058861 7.3,10 L7.3,10 C6.88770718,10.0012179 6.51842426,10.2553481 6.37,10.64 C6.29,10.86 4.2,39.31 5.06,44.17 C5.06,44.44 4.97,44.96 4.88,46.05 L1,49.87 C0.810687349,50.0577666 0.704201676,50.3133625 0.704201676,50.58 C0.704201676,50.8466375 0.810687349,51.1022334 1,51.29 C1.18871883,51.4771865 1.44419702,51.5815368 1.71,51.5800167 C1.97580298,51.5815368 2.23128117,51.4771865 2.42,51.29 L6.13,47.57 C7.69,48.82 12.84,49.38 12.9,49.38 C13.27,49.38 13.64,49.38 14.02,49.38 C24.63,49.38 41.24,38.77 42.41,36.44 C42.6513865,36.0219676 42.603318,35.4972198 42.29,35.13 C41.71,34.47 40.79,34.79 40.29,34.97 C37.83,35.81 35.77,36.37 33.77,36.9 C29.7671718,37.9220451 25.8515922,39.2595616 22.06,40.9 C17.5463003,42.8221517 12.888656,44.3869597 8.13,45.58 L17.23,36.48 C17.2754714,36.5253537 17.325771,36.5655934 17.38,36.6 C19.0769879,37.5499622 20.9954938,38.0330392 22.94,38 C27.85,38 33.94,35.38 41.23,30.17 C44.23,28.05 48.55,22.76 49.95,18.87 C50.1588509,18.4065329 49.9867545,17.8601268 49.55,17.6 Z M8,14.86 C9.15,17.08 10.32,19.38 10.32,21.86 C10.32,25.76 8.59,35.59 6.77,41.59 C6.71,36 7.56,21.78 8,14.86 Z M39.65,9.86 C39.148562,11.7724716 38.3305978,13.5875409 37.23,15.23 C34.75,18.56 30.38,23.23 27,25.28 C28.7,21.54 36.06,13.27 39.67,9.87 L39.65,9.86 Z M22.88,42.73 C26.5881731,41.1414884 30.4169374,39.8507434 34.33,38.87 C35.43,38.58 36.54,38.28 37.73,37.93 C32.23,41.65 20.42,47.93 13.09,47.39 C12.3160902,47.3023201 11.5480712,47.1687516 10.79,46.99 C14.8992027,45.805659 18.9360228,44.3832558 22.88,42.73 L22.88,42.73 Z"/>
        <path id="Path" fill="#3D454C" d="M25.41,32.91 C25.9622847,32.91 26.41,32.4622847 26.41,31.91 C26.41,31.3577153 25.9622847,30.91 25.41,30.91 C24.8577153,30.91 24.41,31.3577153 24.41,31.91 C24.41,32.4622847 24.8577153,32.91 25.41,32.91 Z"/>
      </g>
    </g>
  </g>
</svg>
