<svg xmlns="http://www.w3.org/2000/svg" width="64" height="64" viewBox="0 0 64 64" style="background:#fff">
  <g id="Wildschwein" fill="none" fill-rule="evenodd" stroke="none" stroke-width="1">
    <rect width="64" height="64" fill="#FFF"/>
    <g transform="translate(2 10)">
      <g id="Layer_2">
        <rect id="Rectangle" width="60" height="60" x="0" y="0"/>
      </g>
      <g id="Layer_1" fill-rule="nonzero" transform="translate(3 15)">
        <path id="Path" fill="#483318" d="M47.21,11.11 C45.34,6.68 42.14,5.03 37.6,4.38 C35.2,4.03 32.75,4.07 30.37,3.73 C27.51,3.33 24.88,2.01 22,1.61 C9.9,0 3.39,11.32 3.29,21.94 C3.29,25.61 5.37,31.37 9.8,31.3500519 C10.5894087,31.3490149 11.3649185,31.1422122 12.05,30.75 C15.05,29.39 15.78,24.29 15.85,21.63 C15.85,22.78 18.55,21 19.96,20.95 C23.03,20.86 26.07,22.12 29.14,22.3 C32.21,22.48 34.41,21.61 37.14,20.66 C39.65,19.78 41.64,20 44.23,19.72 C48,19.32 48.36,13.81 47.21,11.11 Z" opacity=".5"/>
        <path id="Path" fill="#3D454C" d="M24.15,25 L24.15,25 C20.4013235,25.0667659 16.7166864,24.0229594 13.56,22 C14.9284622,20.2345741 15.7209428,18.0910365 15.83,15.86 C15.83,15.3077153 15.3822847,14.86 14.83,14.86 C14.2777153,14.86 13.83,15.3077153 13.83,15.86 C13.88,18.46 11.73,21.16 10.31,22.95 C9.92163235,23.4174654 9.55780885,23.9047886 9.22,24.41 C8.03,26.26 8.11,30.82 9.34,31.8 C9.63264426,32.1957526 9.80298745,32.6685419 9.83,33.16 C8.92456854,33.1954324 8.01872463,33.1011439 7.14,32.88 C6.8,32.79 6.14,32.62 6.61,30.65 C7.13,28.31 6.06,23.33 5.61,21.79 C5.61,21.7 3.25,13.46 7.61,9.05 C11.97,4.64 14.38,3.71 18.68,4.64 C26.29,6.28 31.41,7.08 33.45,5.96 C33.5283916,5.91299632 33.6123842,5.87603959 33.7,5.85 L33.83,5.85 C34.2259179,5.93081641 34.6340821,5.93081641 35.03,5.85 C35.5822847,5.73402019 35.9359798,5.19228474 35.82,4.64000001 C35.7040202,4.08771527 35.1622847,3.73402023 34.61,3.85 C34.45875,3.88574583 34.30125,3.88574583 34.15,3.85 C33.5761046,3.74000481 32.9818826,3.85455363 32.49,4.17 C30.7,5.17 22.27,3.33 19.1,2.64 C13.51,1.43 10.36,3.36 6.19,7.64 C5.93958446,7.90111954 5.70261169,8.1748064 5.48,8.46 C4.76243928,8.48825421 4.06473385,8.2207402 3.55,7.72 C3.09789998,7.11477883 2.89077505,6.36127259 2.97,5.61 C3.01644453,5.25273441 2.86876212,4.89782953 2.5825833,4.6789746 C2.29640449,4.46011966 1.91520664,4.41056394 1.5825833,4.5489746 C1.24995996,4.68738525 1.01644453,4.99273441 0.97,5.35 C0.82067969,6.65471936 1.19065793,7.96580728 2,9 C2.59941495,9.6666001 3.39989498,10.1195033 4.28,10.29 C1.74,15.47 3.57,21.99 3.67,22.29 C4.19,24.09 5.01,28.49 4.67,30.15 C3.95,33.34 5.34,34.41 6.67,34.75 C7.58406664,34.9715057 8.51964546,35.0922255 9.46,35.11 C10.1620391,35.166309 10.8634973,34.9944517 11.46,34.62 C11.7849673,34.3463087 11.9596197,33.9338317 11.93,33.51 C11.9422499,32.3065404 11.5075272,31.1413409 10.71,30.24 C10.37,29.6 10.19,26.61 10.94,25.43 C11.15,25.1 11.51,24.65 11.94,24.13 C12.1,23.94 12.26,23.73 12.43,23.51 C12.66,23.67 12.97,23.87 13.36,24.1 C12.6677087,25.1529356 12.1100344,26.2884412 11.7,27.48 C11.5889389,28.3440831 11.7386808,29.2216405 12.13,30 C12.375235,30.5116145 12.5533748,31.0527562 12.66,31.61 L12.66,31.77 C12.84,33.1 12.99,34.24 14.86,34.56 C15.4908425,34.670878 16.1295498,34.7310703 16.77,34.74 C17.4036555,34.7920853 18.0374747,34.6415095 18.58,34.31 C18.8700272,34.0945443 19.0581934,33.768872 19.1,33.41 C19.24,32.1 18.04,30.34 17.66,29.83 C17.55,29.68 17.41,29.52 17.28,29.36 C17.1300574,29.1879584 16.9898391,29.0076777 16.86,28.82 L16.91,28.82 C17.1235455,28.6592054 17.263824,28.4196066 17.2995223,28.1546874 C17.3352206,27.8897682 17.2633668,27.6215842 17.1,27.41 C16.7625433,26.9746782 16.136601,26.8941999 15.7,27.23 C15.2222401,27.5499135 14.9052756,28.0599713 14.83,28.63 C14.8342156,29.4152986 15.1680207,30.1627318 15.75,30.69 C15.86,30.81 15.96,30.94 16.05,31.06 C16.4627081,31.5797145 16.7994121,32.1554783 17.05,32.77 C16.4400281,32.7756144 15.8308219,32.7254051 15.23,32.62 C14.97,32.62 14.87,32.52 14.87,32.54 C14.7739902,32.2137127 14.7103497,31.8787627 14.68,31.54 L14.68,31.38 C14.5460006,30.6436803 14.3174425,29.9277557 14,29.25 C13.7835965,28.8431476 13.6477777,28.3983412 13.6,27.94 C13.9936129,26.9382826 14.4895745,25.9798704 15.08,25.08 C17.9259086,26.3559728 21.0111555,27.0105224 24.13,27 L24.13,27 C24.6822847,27 25.13,26.5522847 25.13,26 C25.13,25.4477153 24.6822847,25 24.13,25 L24.15,25 Z"/>
        <path id="Shape" fill="#3D454C" d="M54.49,12.82 C54.3845444,12.4188484 54.0423937,12.1244397 53.63,12.08 C53.2168355,12.0346873 52.8187179,12.2496708 52.63,12.62 C51.9362787,13.5832962 50.9164451,14.2620009 49.76,14.53 C49.2850278,13.672536 48.6217142,12.9340012 47.82,12.37 C47.36,12.08 47.07,10.95 46.82,10.04 C46.82,9.96 46.82,9.87 46.75,9.78 C49.15,8.22 48.59,4.13 48.51,3.65 C48.4653669,3.38737149 48.3177893,3.1534069 48.1,3 C47.8856769,2.8389834 47.6128036,2.77713212 47.35,2.83 C45.7757174,3.43417157 44.3201496,4.3108973 43.05,5.42 C43.1724187,3.33367859 42.050418,1.37213881 40.19,0.42 C39.8019764,0.242642853 39.3441638,0.33099266 39.05,0.64 C36.954754,2.91066211 36.3906746,6.20112565 37.61,9.04 C37.7416118,9.38793822 38.055482,9.63406338 38.4247671,9.67890968 C38.7940522,9.72375599 39.1577096,9.55991037 39.3687755,9.25358723 C39.5798414,8.94726409 39.6034267,8.54909855 39.43,8.22 C38.7100604,6.40028184 38.9227992,4.34380709 40,2.71 C40.9940707,3.59042638 41.3846054,4.96901383 41,6.24 C40.8345997,6.42744991 40.7454075,6.67005273 40.75,6.92 C40.75,7.47228475 41.1977153,7.92 41.75,7.92 C42.4,7.92 43.89,8.08 44.3,8.71 C44.5924,9.29641142 44.8075269,9.91826253 44.94,10.56 C45.28,11.87 45.66,13.35 46.77,14.07 C47.3706605,14.5100529 47.8546974,15.0902106 48.18,15.76 C47.85682,16.6577957 47.8890169,17.6451661 48.27,18.52 C48.8266888,19.623872 49.7491498,20.5003866 50.88,21 C50.9435804,21.4679601 50.7971789,21.9401048 50.48,22.29 C49.8915455,22.8943152 49.0590566,23.1963687 48.22,23.11 C47.16,22.94 46.59,21.49 46.58,21.46 C46.4917396,21.2089357 46.3070446,21.0034081 46.0668044,20.8889187 C45.8265642,20.7744292 45.5505974,20.7604227 45.3,20.85 C45.071903,20.9367489 44.8834,21.1039119 44.77,21.32 C42.6578269,20.387056 40.9410115,18.7410372 39.92,16.67 C39.7042949,16.1622174 39.1181056,15.9250568 38.61,16.14 C38.1022174,16.3557051 37.8650568,16.9418944 38.08,17.45 C38.4713283,18.2962071 38.9686485,19.0892312 39.56,19.81 C37.17,20.12 36.15,19.37 35.94,18.81 C35.7684078,18.2958775 35.2184733,18.0120404 34.7,18.17 C34.4394229,18.2398169 34.2181071,18.4119523 34.0862975,18.6473266 C33.9544879,18.8827009 33.923367,19.1613454 34,19.42 C34.2543744,20.0655663 34.7012699,20.6172029 35.28,21 C34.1273156,21.737347 33.0809439,22.6289499 32.17,23.65 C30.84,25.33 29.17,30.15 30.02,31.75 C30.20675,32.1928133 30.3247773,32.6615504 30.37,33.14 C29.55,33.14 28.76,33.14 28.37,33.07 C28.0828561,32.3250163 27.8978442,31.5446022 27.82,30.75 C27.7724414,30.0474706 27.7724414,29.3425294 27.82,28.64 C27.9579719,27.3732505 27.9108108,26.0931627 27.68,24.84 C27.4853341,23.3563582 27.4853341,21.8536418 27.68,20.37 C27.7407513,19.8177153 27.3422847,19.3207513 26.79,19.26 C26.2377153,19.1992487 25.7407513,19.5977153 25.68,20.15 C25.429059,21.8943545 25.429059,23.6656455 25.68,25.41 C25.8311986,26.4433326 25.851358,27.4916182 25.74,28.53 C25.6861609,29.3324313 25.6861609,30.1375687 25.74,30.94 C25.8192144,32.1933289 26.1598491,33.4162077 26.74,34.53 C27,34.88 27.2,35.14 30.15,35.14 L31.37,35.14 C31.9222847,35.14 32.37,34.6922847 32.37,34.14 C32.3764011,33.0266786 32.1658106,31.9227764 31.75,30.89 C31.51,30.14 32.55,26.31 33.67,24.89 C34.8510274,23.6849665 36.1979302,22.6545859 37.67,21.83 C37.9297472,21.8462138 38.1902528,21.8462138 38.45,21.83 C39.388338,21.8124789 40.3213812,21.6849406 41.23,21.45 C42.4729727,22.4838157 43.932188,23.2253841 45.5,23.62 L45.59,23.62 C46.1670174,24.3549009 46.9982187,24.8472004 47.92,25 C48.1184599,25.0317164 48.3190279,25.0484304 48.52,25.05 C49.8326351,25.0586174 51.0910501,24.5270455 52,23.58 C52.7506375,22.7314297 53.0646801,21.5824031 52.85,20.47 C54.4557465,18.2674886 55.0517855,15.4871849 54.49,12.82 Z M44.8,6.58 C45.3904186,6.13364128 46.0046576,5.71969762 46.64,5.34 C46.6711066,6.19016391 46.4632408,7.03202063 46.04,7.77 L46,7.6 C45.6905967,7.16591183 45.2782637,6.81542879 44.8,6.58 Z M50.07,17.69 C49.9151564,17.3261125 49.8904355,16.9199819 50,16.54 C50.9451584,16.2952604 51.846099,15.9038405 52.67,15.38 C52.5731761,16.6744151 52.1425061,17.9216354 51.42,19 C50.8485536,18.7089569 50.378094,18.2524368 50.07,17.69 L50.07,17.69 Z"/>
        <path id="Path" fill="#3D454C" d="M37.58 24.65C37.6186599 24.0977153 37.2022847 23.6186599 36.65 23.58 36.0977153 23.5413401 35.6186599 23.9577153 35.58 24.51 35.5394379 25.5293261 35.3611543 26.5384786 35.05 27.51 34.14 28.66 34.63 31.26 35.05 32.1 35.1084568 32.2162989 35.1585828 32.3366013 35.2 32.46L34.2 32.46C33.6477153 32.46 33.2 32.9077153 33.2 33.46 33.2 34.0122847 33.6477153 34.46 34.2 34.46L36.41 34.46C36.9622847 34.46 37.41 34.0122847 37.41 33.46 37.3847597 32.6529103 37.1833926 31.8610941 36.82 31.14 36.5258777 30.3827712 36.4496672 29.5583129 36.6 28.76 37.25 28 37.49 25.85 37.58 24.65zM44.08 12.88C43.5277153 12.88 43.08 13.3277153 43.08 13.88 43.08 14.4322847 43.5277153 14.88 44.08 14.88 44.6322847 14.88 45.08 14.4322847 45.08 13.88 45.08 13.3277153 44.6322847 12.88 44.08 12.88zM27 17.28C27.5522847 17.28 28 16.8322847 28 16.28 28 15.7277153 27.5522847 15.28 27 15.28 26.4477153 15.28 26 15.7277153 26 16.28 26 16.8322847 26.4477153 17.28 27 17.28z"/>
      </g>
    </g>
  </g>
</svg>
