<svg xmlns="http://www.w3.org/2000/svg" width="64" height="64" viewBox="0 0 64 64" style="background:#fff">
  <g id="Wirsing" fill="none" fill-rule="evenodd" stroke="none" stroke-width="1">
    <rect width="64" height="64" fill="#FFF"/>
    <g transform="translate(2 4)">
      <g id="Layer_2">
        <rect id="Rectangle" width="60" height="60" x="0" y="0"/>
      </g>
      <g id="Layer_1" fill-rule="nonzero" transform="translate(7 9)">
        <path id="Path" fill="#31E085" d="M48.08,12.47 C47.14,9.55 43.69,4.07 39.75,6.56 C34.31,9.99 32.38,15.18 31.29,21.33 C30.7896938,24.9749988 27.9858606,27.8759345 24.36,28.5 C20.3042503,29.2695964 16.1308929,27.9771294 13.22,25.05 C9.76,21.48 10.73,16.36 9.04,12.05 C8.23,9.98 5.85,8.29 3.88,10.13 C-1.5,15.13 0.17,25.67 2.64,31.76 C5.27,38.24 10.43,44 17.17,46.34 C23.4961733,48.5252568 30.4988257,47.3543832 35.77,43.23 C38.6576357,40.9435103 40.9010482,37.9454014 42.28,34.53 C43.59,31.38 43.61,27.53 45.57,25.74 C49,22.65 49.41,16.58 48.08,12.47 Z" opacity=".5"/>
        <path id="Path" fill="#31E085" d="M30.86,1.56 C26.26,-2.51 21.07,3.27 18.94,7.2 C17.4649031,9.89908734 16.6880147,12.9241393 16.68,16 C16.73,17.94 17.73,23.91 20.86,23.29 C23.99,22.67 24.86,19.12 26.46,16.82 C28.46,13.97 31.2,12.41 32.31,8.87 C33.05,6.49 32.86,3.32 30.86,1.56 Z" opacity=".5"/>
        <path id="Shape" fill="#3D454C" d="M46,18.2 C45.4259384,15.8489618 45.4915412,13.3871281 46.19,11.07 C46.276427,10.8038845 46.2474117,10.5137317 46.11,10.27 C45.974855,10.0241146 45.742628,9.84631575 45.47,9.78 C43.9493174,9.49988895 42.3948778,9.45268254 40.86,9.64 C40.364805,9.00378558 39.833954,8.39614478 39.27,7.82 C36.0548318,4.61673676 31.8851535,2.54593689 27.39,1.92 L27.39,1.92 C20.874629,0.984773806 14.2990283,3.17046642 9.64,7.82 C8.74756966,8.71984124 7.94076199,9.70073189 7.23,10.75 C6.68892029,10.4070403 6.12416621,10.1029419 5.54,9.84 C5.16860913,9.68233318 4.73885068,9.76329898 4.45029236,10.0452992 C4.16173404,10.3272993 4.07091143,10.7550832 4.22,11.13 C4.76,12.45 4.12,14.44 3.51,16.37 C3.14251955,17.3981126 2.86154309,18.4551193 2.67,19.53 C1.43458789,28.2111128 5.47228707,36.7969329 12.9465117,41.3821186 C20.4207364,45.9673043 29.9041213,45.6762149 37.0830587,40.6412553 C44.2619962,35.6062956 47.7655125,26.7890004 46,18.2 Z M11,9.24 C14.5187478,5.7203429 19.2831852,3.72977104 24.26,3.7 C23.96,3.96 23.64,4.2 23.36,4.48 C21.2341772,6.59924098 19.7891821,9.30468969 19.21,12.25 C19.1571386,12.5113539 19.2108454,12.7829959 19.3591871,13.0045697 C19.5075288,13.2261434 19.7382189,13.3792966 20,13.43 L20.19,13.43 C20.6727608,13.4397357 21.0935264,13.1031232 21.19,12.63 C21.7002086,10.0728225 22.9563702,7.72404407 24.8,5.88 C25.5649992,5.10739321 26.4252483,4.43532356 27.36,3.88 C31.3369935,4.47748627 35.0173659,6.33519806 37.86,9.18 C38.1133333,9.43333333 38.3633333,9.70333333 38.61,9.99 C34.4205556,11.0749353 30.767547,13.6441233 28.33,17.22 C25.2695169,18.0154073 22.7904691,20.2555107 21.69,23.22 C19.3307214,20.7135773 16.4864351,18.7130506 13.33,17.34 C12.2926611,15.1811036 10.7654314,13.2943242 8.87,11.83 C9.50048128,10.9042294 10.213384,10.0373664 11,9.24 Z M38.59,36.78 C32.5006971,42.8825198 23.1862544,44.3964126 15.4777361,40.536477 C7.76921776,36.6765415 3.40151617,28.3115013 4.64,19.78 C4.82224651,18.8353496 5.07631753,17.9059845 5.4,17 C5.92164507,15.589478 6.25779267,14.1171516 6.4,12.62 C8.6945223,14.068912 10.5184928,16.1534498 11.65,18.62 C11.7539075,18.8719924 11.9561765,19.0706494 12.21,19.17 C12.33,19.17 23.54,23.54 24.94,34.69 C24.9846582,35.0472656 25.216523,35.3535678 25.5482532,35.4935254 C25.8799834,35.6334831 26.2611812,35.5858334 26.5482532,35.3685254 C26.8353252,35.1512175 26.9846582,34.7972656 26.94,34.44 C26.5298334,31.0719243 25.2399108,27.8712607 23.2,25.16 C23.8072196,22.386815 25.8644107,20.1575539 28.58,19.33 C29.5740255,20.4029135 30.366679,21.6460923 30.92,23 C31.0540978,23.411264 31.4374261,23.6896813 31.87,23.69 C31.9761738,23.6895368 32.0813209,23.6691857 32.18,23.63 C32.7043985,23.4584742 32.9907915,22.8946382 32.82,22.37 C32.2134155,20.8202732 31.3251071,19.3962674 30.2,18.17 C32.6069317,14.7338561 36.2994132,12.4152374 40.44,11.74 C40.5260057,11.7551368 40.6139943,11.7551368 40.7,11.74 C41.789939,11.5576231 42.8975298,11.5039217 44,11.58 C43.5170519,13.8909602 43.5409339,16.2791599 44.07,18.58 C45.4269736,25.1825036 43.3668875,32.0243952 38.59,36.78 Z"/>
        <path id="Path" fill="#3D454C" d="M20.67,16.11 L20.67,16 C20.67,15.4477153 20.2222847,15 19.67,15 C19.1177153,15 18.67,15.4477153 18.67,16 L18.67,16.13 C18.6755228,16.6822847 19.1277153,17.1255228 19.68,17.12 C20.2322847,17.1144772 20.6755228,16.6622847 20.67,16.11 L20.67,16.11 Z"/>
      </g>
    </g>
  </g>
</svg>
