<svg xmlns="http://www.w3.org/2000/svg" width="64" height="64" viewBox="0 0 64 64" style="background:#fff">
  <g id="Wolfsbarsch" fill="none" fill-rule="evenodd" stroke="none" stroke-width="1">
    <rect width="64" height="64" fill="#FFF"/>
    <g transform="translate(2 5)">
      <g id="Layer_2">
        <rect id="Rectangle" width="60" height="60" x="0" y="0"/>
      </g>
      <g id="Layer_1" fill-rule="nonzero" transform="translate(5 3)">
        <path id="Path" fill="#4D4D4D" d="M12.49 39.49C12.3936796 39.0598674 12.1252181 38.6880357 11.7472479 38.4612535 11.3692776 38.2344714 10.914856 38.1725732 10.49 38.29 8.1 39.06 4.89 38.29 2.92 40.06 2.68478747 40.3458938 2.66447869 40.7520695 2.87 41.06 4.51 43.06 7.25 43.06 9.67 43.38 9.92 44.64 10.2 45.89 10.56 47.13 11.05 48.85 11.3 50.47 12.95 51.35 14.1 51.96 14.95 50.22 15.08 49.35 15.51 46.1 13.51 42.53 12.49 39.49zM14.4 31.15C13.52 29.38 10.01 31.15 9.1 32.15 8.26219571 33.130154 8.00370562 34.4796243 8.42 35.7 8.71 36.63 9.53 37.75 10.65 37.28 11.8813904 36.6123024 12.9158812 35.6329845 13.65 34.44 14.3 33.43 15 32.3 14.4 31.15zM21.29 37.47C20.3236808 37.2482657 19.3112486 37.5391511 18.61 38.24 17.5783373 39.2469975 16.9976671 40.6283459 17 42.07 16.9647808 42.9867591 17.329723 43.8735685 18 44.5 18.5278054 44.9978075 19.3521946 44.9978075 19.88 44.5 20.2312068 44.1115265 20.5120702 43.6648522 20.71 43.18 20.71 43.18 20.71 43.18 20.81 43.02L21.08 42.61C21.23 42.39 21.37 42.16 21.51 41.94 21.51 42.02 21.97 41.33 21.9 41.44 22.052281 41.2038246 22.1796303 40.9524772 22.28 40.69 22.7666656 39.5182228 22.3509108 38.1659695 21.29 37.47z" opacity=".5"/>
        <path id="Path" fill="#BAB41D" d="M39.74,21 C37.3,21.76 35.74,25.43 35.33,27.69 C35.0830306,28.8974968 35.458657,30.1483327 36.33,31.02 C36.6943889,31.3141899 37.1728469,31.426581 37.6301097,31.3253995 C38.0873724,31.2242179 38.4737463,30.9204597 38.68,30.5 C39.238123,29.3331832 39.7354554,28.1382502 40.17,26.92 C40.693745,25.7390946 41.0763879,24.50054 41.31,23.23 C41.44,22.32 41,20.61 39.74,21 Z" opacity=".5"/>
        <path id="Path" fill="#4D4D4D" d="M26,14.75 C25.2,12.9 23,12.85 21.27,13.37 C18.9927474,14.1081142 17.2937023,16.0214532 16.83,18.37 C16.63,19.48 17.44,23.12 19.34,21.99 C20.1377544,21.385505 20.8361751,20.6600922 21.41,19.84 C22.0453046,19.1362609 22.7450164,18.4934634 23.5,17.92 C24.29,17.33 26.57,16.1 26,14.75 Z" opacity=".5"/>
        <path id="Path" fill="#B3B3B3" d="M43.69,1.45 C37.76,2.45 32.24,9.08 28.15,13.09 C23.56,17.6 17.34,22.87 15.08,29 C14.65,30.16 15.22,34.42 17.33,33.21 C20.14,31.61 21.69,28.79 23.74,26.32 C25.79,23.85 28.16,21.24 30.51,18.82 C35,14.18 41.33,10.16 44.62,4.58 C45,3.86 45.11,1.21 43.69,1.45 Z" opacity=".5"/>
        <path id="Shape" fill="#3D454C" d="M48.71,4.88 C48.7503235,4.23218545 48.4482008,3.61062221 47.9138795,3.24212473 C47.3795582,2.87362726 46.6912024,2.81210195 46.1,3.08 L45.45,3.37 L45.27,2.27 C45.1664066,1.66732368 44.7716871,1.15477599 44.2154652,0.900674608 C43.6592433,0.646573223 43.0133901,0.683751384 42.49,1 C39.6395047,2.69406178 36.8975089,4.56436345 34.28,6.6 L34.28,6.6 C31.8792024,8.47522671 29.6042959,10.5062739 27.47,12.68 C26.17,12.52 21.57,12.07 18.96,13.34 C18.2634346,13.6697526 17.7516184,14.2946959 17.5656141,15.042588 C17.3796099,15.7904801 17.5390533,16.5823687 18,17.2 C17.8612342,17.3764448 17.7109034,17.543479 17.55,17.7 C16.8501171,18.2638114 16.427356,19.1020446 16.39,20 C16.482043,20.7323739 16.8869205,21.388932 17.5,21.8 C18.0527063,22.2381987 18.6339936,22.6390865 19.24,23 C17.895207,25.1353524 16.7119104,27.3682398 15.7,29.68 C14.08,29.47 10.64,29.35 9.11,31.87 C8.66804676,32.6864875 8.58475543,33.6497698 8.88,34.53 C9.27481534,35.5466565 10.029235,36.3829236 11,36.88 L10.88,37.02 L1.4,38.55 C1.06849449,38.6095392 0.783744801,38.8203279 0.63,39.12 C0.451367205,39.4294011 0.451367205,39.8105989 0.63,40.12 C0.75,40.33 3.53,45.23 8.63,44.71 C8.07,49.71 12.97,52.51 13.18,52.63 C13.3375331,52.7125196 13.5121872,52.7570393 13.69,52.76 C13.8494553,52.756806 14.0063498,52.7192878 14.15,52.65 C14.4574488,52.5024881 14.6685352,52.2084748 14.71,51.87 L16.12,42.33 C16.5834899,43.2079176 17.3794983,43.8634539 18.33,44.15 C18.5519398,44.2086806 18.7804363,44.2389228 19.01,44.24 C19.7057996,44.2294376 20.3780969,43.9865657 20.92,43.55 C23.28,41.86 23.09,38.27 22.92,36.76 L22.92,36.76 C26.8584332,33.9949643 30.6222699,30.9892384 34.19,27.76 C34.7532227,29.055248 35.8459357,30.0459744 37.19,30.48 C37.4518517,30.5433484 37.7206184,30.5735846 37.99,30.57 C38.8513411,30.5608419 39.6851453,30.2653163 40.36,29.73 C43.69,27.33 42.94,20.55 42.65,18.62 C43.4,17.62 44.08,16.62 44.65,15.62 C47.93,10.44 48.6,6.66 48.71,4.88 Z M43.27,2.94 L43.45,4 C43.5488628,4.55615244 43.8951028,5.03724277 44.391075,5.30759624 C44.8870472,5.5779497 45.4790023,5.60826766 46,5.39 L46.56,5.14 C46.119444,8.23494769 45.0030297,11.1949818 43.29,13.81 L43.29,13.81 C42.87,13.6433333 42.47,13.4633333 42.09,13.27 L41.85,13.14 C41.48,12.94 41.13,12.73 40.8,12.52 L40.65,12.42 C40.34,12.21 40.05,12 39.77,11.78 L39.65,11.69 C39.36,11.45 39.09,11.21 38.83,10.97 L38.67,10.82 C38.43,10.58 38.19,10.34 37.98,10.1 L37.89,10 C37.69,9.78 37.51,9.55 37.34,9.33 L37.25,9.22 C37.07,8.98 36.91,8.75 36.76,8.53 L36.67,8.38 C36.52,8.16 36.39,7.95 36.27,7.74 L36.27,7.74 C38.5134514,6.01271528 40.850323,4.41028907 43.27,2.94 L43.27,2.94 Z M18.47,19.94 C18.6338501,19.6632781 18.8396294,19.4136442 19.08,19.2 C19.65,18.61 20.84,17.37 19.72,16.04 C19.6129964,15.9203847 19.5685401,15.7573781 19.6,15.6 C19.6321392,15.450803 19.7319617,15.3251006 19.87,15.26 C21.29,14.57 23.8,14.53 25.66,14.65 C25.29,15.05 24.94,15.44 24.6,15.84 C24.5452225,15.8894691 24.4980474,15.9467532 24.46,16.01 C23.0075123,17.7009737 21.6488074,19.4702945 20.39,21.31 C19.8284676,20.9885282 19.2904502,20.6276222 18.78,20.23 C18.6659726,20.1269001 18.5621583,20.0130393 18.47,19.89 L18.47,19.94 Z M10.86,33.94 C10.7376994,33.6386008 10.7376994,33.3013992 10.86,33 C11.6,31.78 13.43,31.66 14.71,31.74 C13.9727728,32.96194 13.1612474,34.137483 12.28,35.26 C11.6540233,34.9939095 11.1483489,34.5060405 10.86,33.89 L10.86,33.94 Z M12.86,49.86 C11.3656375,48.6860892 10.5371877,46.8575288 10.64,44.96 C10.7214577,44.3182545 10.4996945,43.6751413 10.04,43.22 C9.58389053,42.7684315 8.94776041,42.5478083 8.31,42.62 C6.39855579,42.7281004 4.55585643,41.8908495 3.38,40.38 L9.85,39.38 C9.76247316,40.455134 10.1497752,41.5147338 10.91,42.28 C11.5942924,42.9716871 12.5270217,43.3606245 13.5,43.36 C13.6065982,43.3654043 13.7134018,43.3654043 13.82,43.36 L12.86,49.86 Z M19.64,41.86 L19.56,41.93 C19.3395153,42.1030266 19.0565389,42.1755846 18.78,42.13 C18.4,42.03 17.99,41.57 17.63,40.84 C18.68,39.93 19.76,39.05 20.87,38.21 C20.93,39.45 20.74,41.08 19.67,41.83 L19.64,41.86 Z M21.64,35.04 C21.46,35.16 21.29,35.29 21.12,35.42 L21.05,35.42 C19.1821937,36.7689218 17.3832643,38.2107353 15.66,39.74 L15.6,39.8 C15.25,40.11 14.89,40.42 14.6,40.74 C14.2123668,41.1508554 13.6349903,41.3237017 13.0853624,41.1934292 C12.5357346,41.0631568 12.0973571,40.6495571 11.9353624,40.1084292 C11.7733678,39.5673013 11.9123668,38.9808554 12.3,38.57 C12.66,38.13 13.05,37.64 13.44,37.14 L13.44,37.14 C14.9445558,35.3305064 16.2363504,33.3542285 17.29,31.25 C18.1853161,29.0886821 19.245091,26.9992204 20.46,25 C20.7544682,25.4370289 21.0892669,25.8454833 21.46,26.22 C21.6581317,26.4126359 21.9236584,26.5202819 22.2,26.52 C22.4741728,26.5243149 22.7380892,26.4158561 22.93,26.22 C23.1352112,26.0306844 23.2519329,25.7641989 23.2519329,25.485 C23.2519329,25.2058011 23.1352112,24.9393156 22.93,24.75 C22.3884211,24.2796132 21.978357,23.6765777 21.74,23 L22.62,21.71 C22.9522256,22.3363606 23.3807826,22.906645 23.89,23.4 C24.0825841,23.6020927 24.3508764,23.7144854 24.63,23.71 C24.9056601,23.7117015 25.1697961,23.5995342 25.36,23.4 C25.5652112,23.2106844 25.6819329,22.9441989 25.6819329,22.665 C25.6819329,22.3858011 25.5652112,22.1193156 25.36,21.93 C24.672665,21.3658305 24.23452,20.5541847 24.14,19.67 C24.4,19.34 24.65,19 24.92,18.67 C25.3082772,19.3149596 25.778902,19.9066024 26.32,20.43 C26.5119108,20.6258561 26.7758272,20.7343149 27.05,20.73 C27.3263416,20.7302819 27.5918683,20.6226359 27.79,20.43 C28.1902,20.0217143 28.1902,19.3682857 27.79,18.96 C27.174058,18.41136 26.6946749,17.726527 26.39,16.96 C26.66,16.64 26.96,16.32 27.25,15.96 C27.6389913,16.6687107 28.1310189,17.3157607 28.71,17.88 C28.9019108,18.0758561 29.1658272,18.1843149 29.44,18.18 C29.7163416,18.1802819 29.9818683,18.0726359 30.18,17.88 C30.5802,17.4717143 30.5802,16.8182857 30.18,16.41 C29.5353999,15.8442019 29.0610268,15.1101355 28.81,14.29 C30.6385493,12.4187371 32.5716468,10.6525738 34.6,9 L34.66,9.09 C34.79,9.31 34.93,9.53 35.09,9.76 C35.0871281,9.7798969 35.0871281,9.8001031 35.09,9.82 C35.25,10.06 35.44,10.31 35.63,10.56 L35.78,10.76 C35.98,11.01 36.2,11.27 36.43,11.53 L36.5,11.6 C36.72,11.84 36.96,12.08 37.2,12.32 L37.4,12.51 C37.67,12.77 37.96,13.02 38.27,13.27 L38.42,13.38 C38.7,13.6 38.99,13.82 39.3,14.03 L39.53,14.19 C39.88,14.42 40.25,14.65 40.65,14.86 L40.88,14.99 C41.23,15.17 41.6,15.35 41.99,15.52 L42.16,15.6 C38,21.87 31.06,28.39 21.69,35 L21.64,35.04 Z M39,28.09 C38.6146206,28.3976629 38.1157249,28.5251181 37.63,28.44 C36.96,28.26 36.3,27.5 35.74,26.26 C37.4986531,24.5789279 39.1676273,22.8064774 40.74,20.95 C40.88,23.51 40.66,26.92 39,28.09 Z"/>
        <path id="Path" fill="#3D454C" d="M41.39,7.85 C41.9643761,7.85 42.43,7.38437614 42.43,6.81 C42.43,6.23562386 41.9643761,5.77 41.39,5.77 C40.8156239,5.77 40.35,6.23562386 40.35,6.81 C40.35,7.38437614 40.8156239,7.85 41.39,7.85 Z"/>
      </g>
    </g>
  </g>
</svg>
