<svg xmlns="http://www.w3.org/2000/svg" width="64" height="64" viewBox="0 0 64 64" style="background:#fff">
  <g id="Zanderfilet" fill="none" fill-rule="evenodd" stroke="none" stroke-width="1">
    <rect width="64" height="64" fill="#FFF"/>
    <g transform="translate(2 4)">
      <g id="Layer_2">
        <rect id="Rectangle" width="60" height="60" x="0" y="0"/>
      </g>
      <g id="Layer_1" fill-rule="nonzero" transform="translate(5 6)">
        <path id="Shape" fill="#BAB41D" d="M45.67,0.67 C41.39,-1.54 35.31,2.67 31.23,6.2 C31.23,6.12 31.32,6.05 31.36,5.98 C31.4862387,5.7745057 31.4862387,5.5154943 31.36,5.31 C27.44,0.01 20.18,6.16 17.42,9.78 C12.82,15.78 10.54,25.52 11.7,32.97 C12.19,36.08 15.41,36.88 16.7,33.83 C17.2219423,32.5345856 17.6301492,31.1962023 17.92,29.83 C18.66,31.47 19.92,32.7 21.26,31.05 C25.32,26.05 27.67,20.14 32.26,15.45 C36.35,11.27 43.44,7.95 46.13,2.78 C46.566951,2.06705238 46.3640551,1.13637758 45.67,0.67 L45.67,0.67 Z M20.18,18.89 C20.4608146,18.1306791 20.7949816,17.3921699 21.18,16.68 C22.2022298,14.8807118 23.5843102,13.3114037 25.24,12.07 C23.3204702,14.1609492 21.6246018,16.4466848 20.18,18.89 Z" opacity=".5"/>
        <path id="Path" fill="#C17953" d="M15.76,37.9 C15.557714,37.2059096 15.2176089,36.5597099 14.76,36 C14.1480687,35.3055098 13.2840287,34.8842903 12.36,34.83 L12.23,34.83 C11.6326804,34.8603864 11.043059,34.9783107 10.48,35.18 C7.58,35.08 4.48,36.02 2.7,38 C-0.07,41.14 0.15,45.53 4.06,47.48 C7.53177643,49.0366778 11.6136703,48.1300421 14.1,45.25 C14.9781027,43.9621842 15.4833545,42.4568106 15.56,40.9 C15.56,40.68 15.61,40.46 15.64,40.24 C15.64,40.24 15.79,39.24 15.72,39.74 C15.65,40.24 15.72,39.95 15.86,38.93 L15.76,37.9 Z" opacity=".5"/>
        <path id="Shape" fill="#3D454C" d="M49.67,1.84 C48.41,-1.27 44.4,0.32 40.87,1.72 C39.2098112,2.46077202 37.4771861,3.02714272 35.7,3.41 C34.1509672,3.56795713 32.646882,4.02291742 31.27,4.75 C24.64,2 20.15,5 18.15,8.81 C16.3,12.34 16.37,16.55 18.07,18.93 C15.7415794,19.1197415 13.709321,20.5823518 12.79,22.73 C11.34,25.78 11.6,29.85 13.24,31.96 C12.9000258,32.4243987 12.5291882,32.8653948 12.13,33.28 C10.9699538,34.3409114 9.52305066,35.0365379 7.97,35.28 C5.42882914,35.838146 3.03997727,36.9438432 0.97,38.52 C0.3855546,38.9323704 0.0930526096,39.6460752 0.22,40.35 C0.35,41.07 0.95,42.06 3.06,42.7 C5.16243059,43.3702023 6.80979767,45.0175694 7.48,47.12 C8.12,49.23 9.11,49.83 9.82,49.96 C9.92979827,49.9694214 10.0402017,49.9694214 10.15,49.96 C10.7480453,49.9521569 11.3074891,49.6631727 11.66,49.18 C13.0897568,47.3439506 14.1432069,45.2438468 14.76,43 C15.31,41.2 15.7,39.9 17.38,38.61 C17.56,38.47 17.75,38.35 17.93,38.22 C18.3766576,39.7922948 19.4660026,41.10314 20.93,41.83 C21.5496315,42.1474902 22.2338592,42.3185471 22.93,42.33 C23.4870884,42.3340136 24.0388726,42.2216131 24.55,42 C27.55,40.63 29.14,35.83 30.07,32.33 C30.07,32.2 30.13,32.1 30.15,32.02 C32.2328604,30.4983161 34.1411169,28.7510372 35.84,26.81 C36.8174255,27.9064895 38.1846824,28.5775578 39.65,28.68 C40.1542031,28.6813017 40.6525637,28.572072 41.11,28.36 C44.49,26.81 45.54,20.2 44.87,14.36 C47.36,10.67 51.06,5.26 49.67,1.84 Z M41.61,3.58 C44.94,2.26 47.34,1.41 47.82,2.58 C48.75,4.88 45.56,9.73 43.54,12.67 C40.863791,10.7038464 38.7192781,8.10224981 37.3,5.1 C38.7645678,4.67622095 40.2036015,4.16871949 41.61,3.58 L41.61,3.58 Z M19.92,9.74 C21.1038695,7.26760194 23.588964,5.68194884 26.33,5.65 C27.2762146,5.6629775 28.2157163,5.81114263 29.12,6.09 L29.12,6.09 C28.67,6.42 28.25,6.79 27.83,7.16 L27.63,7.34 C27.24,7.71 26.86,8.09 26.49,8.49 L26.27,8.73 C25.91,9.14 25.56,9.55 25.22,9.98 L25.05,10.21 C24.7233333,10.6366667 24.39,11.0766667 24.05,11.53 C24.0208677,11.5648085 23.9941393,11.6015602 23.97,11.64 C23.66,12.1 23.36,12.57 23.06,13.05 L22.88,13.35 C22.6,13.8 22.33,14.26 22.07,14.72 L21.86,15.1 C21.61,15.55 21.37,16.01 21.13,16.46 C21.07,16.59 21.01,16.71 20.94,16.83 C20.73,17.25 20.51,17.68 20.31,18.09 C20.31,18.09 20.26,18.2 20.23,18.25 L20.23,18.25 L20.23,18.32 C18.43,17 18.26,12.91 19.92,9.74 Z M14.59,23.59 C15.3267315,21.8130142 17.1345363,20.7226566 19.05,20.9 C17.05,25.22 15.66,28.1 14.45,30.12 C13.6127175,28.0137778 13.6632156,25.6584014 14.59,23.59 Z M12.84,42.4 C12.3217735,44.4259304 11.4075257,46.3291973 10.15,48 C9.80076814,47.5995194 9.55676016,47.1183769 9.44,46.6 C8.5747076,43.8552611 6.42473891,41.7052924 3.68,40.84 C3.15852624,40.7262059 2.67588665,40.4779913 2.28,40.12 C4.12040779,38.7397888 6.23413204,37.7681575 8.48,37.27 C10.0335122,36.9553744 11.5025501,36.3145875 12.79,35.39 C14.0049035,35.7662801 14.8758201,36.8342368 15,38.1 C13.9524873,39.343936 13.2125285,40.8170022 12.84,42.4 Z M23.72,40.13 C23.0901234,40.4015634 22.3680127,40.3531745 21.78,40 C20.6513332,39.3831861 19.8775341,38.2724697 19.69,37 C21.2466514,36.0610818 22.9036687,35.2996589 24.63,34.73 C25.664329,34.4010435 26.6681069,33.9828027 27.63,33.48 C26.47,37.25 25.16,39.47 23.72,40.13 L23.72,40.13 Z M24,32.87 C21.9300002,33.5470358 19.9516576,34.4774279 18.11,35.64 L18.11,35.64 C17.62,35.95 17.11,36.29 16.68,36.64 C16.275713,35.4418127 15.4324382,34.4413171 14.32,33.84 C14.64,33.45 14.97,33.02 15.32,32.53 C15.3525779,32.4833845 15.3794371,32.4330236 15.4,32.38 C16.96,30.05 18.68,26.54 21.51,20.38 L21.51,20.38 L22.05,19.21 C22.12,19.05 22.2,18.89 22.28,18.74 C22.9948158,19.2363281 23.6641145,19.7951925 24.28,20.41 C24.4687188,20.5971865 24.724197,20.7015368 24.99,20.7 C25.2523399,20.6988954 25.5037394,20.5947442 25.69,20.41 C26.0777236,20.0199625 26.0777236,19.3900375 25.69,19 C24.9231425,18.2324294 24.0824008,17.5424183 23.18,16.94 L23.9,15.62 L23.9,15.62 C24.22,15.05 24.56,14.48 24.9,13.92 L24.95,13.85 C25.06,13.67 25.17,13.5 25.29,13.33 C26.1780549,13.9040954 26.9997386,14.5748576 27.74,15.33 C27.9824029,15.6169635 28.3651781,15.7438747 28.7310073,15.6585739 C29.0968365,15.573273 29.3840036,15.2901505 29.4744847,14.925568 C29.5649658,14.5609854 29.4434965,14.1764487 29.16,13.93 C28.3603418,13.0592821 27.4684408,12.2780305 26.5,11.6 C27.1692356,10.7061275 27.9046357,9.86376014 28.7,9.08 C29.5684669,9.62938133 30.3733791,10.2733111 31.1,11 C31.2870714,11.1908556 31.5427541,11.2988906 31.81,11.3 C32.075803,11.3015368 32.3312812,11.1971865 32.52,11.01 C32.7093127,10.8222334 32.8157983,10.5666375 32.8157983,10.3 C32.8157983,10.0333625 32.7093127,9.7777666 32.52,9.59 C31.8310243,8.89764291 31.0813561,8.26845709 30.28,7.71 C30.7691213,7.34078501 31.283738,7.00661833 31.82,6.71 C32.8820332,6.07817477 34.0574608,5.66032044 35.28,5.48 C36.8420187,8.99990661 39.3006085,12.0481441 42.41,14.32 C33.66,28.43 27.72,31.66 24,32.87 Z M40.27,26.5 C39.27,26.95 38.1,26.16 37.15,25.24 C39.2800418,22.6326147 41.2535092,19.9011489 43.06,17.06 C43.16,22 41.87,25.76 40.27,26.5 Z"/>
        <path id="Path" fill="#3D454C" d="M42.71,6.53 C43.2622847,6.53 43.71,6.08228475 43.71,5.53 C43.71,4.97771525 43.2622847,4.53 42.71,4.53 C42.1577153,4.53 41.71,4.97771525 41.71,5.53 C41.71,6.08228475 42.1577153,6.53 42.71,6.53 Z"/>
      </g>
    </g>
  </g>
</svg>
