<svg xmlns="http://www.w3.org/2000/svg" width="64" height="64" viewBox="0 0 64 64" style="background:#fff">
  <g id="Ziegenfleisch" fill="none" fill-rule="evenodd" stroke="none" stroke-width="1">
    <rect width="64" height="64" fill="#FFF"/>
    <g transform="translate(2 4)">
      <g id="Layer_2">
        <rect id="Rectangle" width="60" height="60" x="0" y="0"/>
      </g>
      <g id="Layer_1" fill-rule="nonzero" transform="translate(5 4)">
        <path id="Path" fill="#B3B3B3" d="M39.27,17.1 C39.7,14.88 42.58,8 40.63,6.1 C36.52,2.1 33.73,11.56 32.86,13.89 C31.58,17.35 29.98,17.57 26.33,16.65 C22.93,15.79 19.67,14.45 16.08,14.77 C9.25,15.37 4.24,21.23 2.08,27.34 C-0.39,34 -1.73,48 4.41,53 C5.19970372,53.6469545 6.24252685,53.8959302 7.23931902,53.6755046 C8.23611118,53.4550789 9.07671872,52.7896107 9.52,51.87 C11.74,47.51 10.93,44.44 10.81,39.76 C10.73,36.95 10.94,34.25 13.13,32.21 C16.87,28.75 22.23,31.21 27.13,31.27 C27.04,32.08 26.99,32.75 26.96,33.16 C26.57,38.96 26.96,47.16 31.33,51.46 C34.33,54.38 36.46,48.95 36.45,46.76 C36.45,43.86 35.45,41.54 34.78,38.76 C34.1028239,35.7210971 33.727667,32.6227029 33.66,29.51 L33.66,29 C37.12,26.07 38.42,21.58 39.27,17.1 Z" opacity=".5"/>
        <path id="Path" fill="#3D454C" d="M50.33,14.43 C50.12,13.76 49.33,12.96 47,10.84 C45.7104845,9.71262329 44.4915174,8.50701467 43.35,7.23 C41.52,4.93 37,3 36.87,2.93 C36.74,2.86 30.61,-0.33 25.45,1.16 C24.9170452,1.31187832 24.6081217,1.86704522 24.76,2.39999999 C24.9118783,2.93295477 25.4670452,3.24187829 26,3.09 C30.37,1.82 35.87,4.67 36,4.73 C37.18,5.24 40.52,6.9 41.78,8.48 C42.9808157,9.84037541 44.270297,11.1198348 45.64,12.31 C46.6179794,13.1520724 47.54621,14.0502523 48.42,15 C48.6079281,15.7680717 48.5230888,16.5775807 48.18,17.29 C48.18,17.29 48.12,17.35 47.99,17.29 C46.9671672,17.1813775 45.9379758,17.1446207 44.91,17.18 C44.37,17.18 43.83,17.24 43.3,17.3 C41.17,17.5 40.02,17.53 39.11,16.03 C38.9612264,15.6690703 38.6160177,15.4277157 38.2259484,15.4119103 C37.8358791,15.3961049 37.4722751,15.6087388 37.2947878,15.9564487 C37.1173005,16.3041585 37.1583843,16.7233639 37.4,17.03 C37.9030324,17.942539 38.709702,18.6501439 39.68,19.03 C39.13,21 38.28,24 37.94,26 C37.3171021,29.7200136 35.7888907,33.2297484 33.49,36.22 C33.3,36.47 33.16,36.67 33.08,36.8 C32.29,38 33.22,48 34.24,49.11 C34.497023,49.54841 34.6604557,50.0353034 34.72,50.54 L32.35,50.54 C31.6648192,48.3205566 31.1401326,46.0547127 30.78,43.76 C30.8303635,41.5113252 30.3543658,39.2820121 29.39,37.25 C28.5619682,35.228248 27.9160714,33.1366134 27.46,31 C27.3359072,30.4661215 26.8051758,30.1316268 26.27,30.25 C26.0094814,30.3072809 25.7826446,30.4662702 25.639924,30.6916185 C25.4972033,30.9169668 25.4504288,31.1899955 25.51,31.45 C25.51,31.6 26.19,34.45 26.95,36.55 L26.95,36.55 C23.450652,37.6692549 19.689348,37.6692549 16.19,36.55 C15.8,36.44 15.48,36.35 15.19,36.3 C14.3079608,36.1502019 13.4094255,36.1232794 12.52,36.22 C13.5240867,34.0845102 14.321068,31.8576505 14.9,29.57 C14.9390823,29.0888054 14.6288,28.6483931 14.1625263,28.5232354 C13.6962525,28.3980777 13.207135,28.6239143 13,29.06 C10.83,37.15 8.57,38.74 7.21,39.7 C6.58471098,40.0589142 6.07211517,40.5853639 5.73,41.22 C4.73,43.28 5.57,48.64 6.51,49.74 C6.64790314,49.9694828 6.72051537,50.23227 6.72,50.5 C5.95509453,50.6700114 5.17356193,50.7538668 4.39,50.75 C4.12,50.75 4.12,50.75 3.95,50.45 C3.85042481,50.2926268 3.74016571,50.1422735 3.62,50 C3.17,48.6 2.53,40.83 3.53,39.74 C5.18,37.94 4.8,35.91 4.23,32.85 C4.13,32.32 4.02,31.75 3.92,31.13 C3.1355691,27.3783663 4.81318282,23.5415273 8.1,21.57 C10.34,20.25 16.7,20.72 21.34,21.07 C23.4214871,21.3011727 25.5177097,21.3713811 27.61,21.28 C31.49,20.82 36.09,13.98 36.61,13.2 C36.6628329,13.1138545 36.7000691,13.0190713 36.72,12.92 C36.8920424,12.7101976 36.9714491,12.4394932 36.94,12.17 C36.8722995,11.6240435 36.3763206,11.2353033 35.83,11.3 C33.7918094,11.3842444 31.7812568,10.8052894 30.1,9.65 L30.71,9.65 C31.8140322,9.64198617 32.9151168,9.5348898 34,9.33 C34.7060155,9.11286543 35.4544176,9.07166898 36.18,9.21 C36.6172993,9.50651271 37.2098079,9.41167714 37.5327136,8.99348774 C37.8556194,8.57529833 37.7974888,7.97807056 37.4,7.63 C37.1,7.37 36.14,6.83 33.59,7.37 C32.6302065,7.54814367 31.6561847,7.63851682 30.68,7.64 C29.7081761,7.55698939 28.7317089,7.7329605 27.85,8.15 C27.3583954,8.48109898 27.1698404,9.11380572 27.4,9.66 C27.9,10.99 31.1,12.88 34.15,13.27 C32.27,15.85 29.33,19.07 27.41,19.27 C25.4437031,19.33137 23.4755239,19.2545141 21.52,19.04 C16.07,18.63 9.89,18.17 7.11,19.82 C6.38967566,20.2441431 5.71886816,20.7472487 5.11,21.32 C3.97328642,20.3202088 3.27925935,18.9105786 3.18,17.4 C3.18,16.07 4.04,14.78 5.65,13.58 C6.00938807,13.2273177 6.05048983,12.6624293 5.74593968,12.2614382 C5.44138953,11.8604472 4.88619269,11.7484438 4.45,12 C2.33,13.59 1.22,15.4 1.18,17.39 C1.27843343,19.4974393 2.22743846,21.4748338 3.81,22.87 C2.07886386,25.3821795 1.42691771,28.4834261 2,31.48 C2.1,32.11 2.21,32.69 2.31,33.22 C2.88,36.28 3.03,37.38 2.1,38.4 C0.25,40.4 1.17,50.32 2.1,51.29 C2.15483153,51.3599198 2.20494256,51.433416 2.25,51.51 C2.63890861,52.2339806 3.37910597,52.7008743 4.2,52.74 C4.33311759,52.7507268 4.46688241,52.7507268 4.6,52.74 C5.71805672,52.684768 6.82904503,52.5308359 7.92,52.28 C8.32278894,52.1843141 8.62496977,51.8503247 8.68,51.44 C8.86473642,50.3961743 8.63902055,49.3213368 8.05,48.44 C7.62,47.8 6.87,43.44 7.54,42.06 C7.64,41.83 7.89,41.64 8.37,41.31 C9.56071942,40.5415509 10.5816488,39.5376371 11.37,38.36 C11.4694311,38.3750853 11.5705689,38.3750853 11.67,38.36 C12.7262527,38.1435175 13.8114056,38.1063316 14.88,38.25 L15.02,38.25 C14.6772989,39.9222445 14.0624604,41.5269054 13.2,43 C11.28,45.16 15.31,49.51 15.35,49.55 C15.4847884,49.6862505 15.5992926,49.8411679 15.69,50.01 L13.82,50.08 C12.82,48.22 11.29,45.38 10.94,44.69 C11.0953526,43.5524408 11.3530648,42.4312253 11.71,41.34 C11.8726415,40.8125945 11.5772508,40.2531424 11.05,40.09 C10.5225945,39.9273585 9.96314242,40.2227492 9.8,40.75 C8.63,44.56 8.96,45.2 9.1,45.48 C9.38,46.05 12.24,51.35 12.36,51.58 C12.5358972,51.9014804 12.8735461,52.1010002 13.24,52.1 L13.24,52.1 L17.05,51.96 C17.3524454,51.9531636 17.6355384,51.8097788 17.82,51.57 C18.0029051,51.3272284 18.0654618,51.014445 17.99,50.72 L17.85,50.16 C17.6610222,49.4078316 17.2783223,48.7182822 16.74,48.16 C15.94,47.37 14.38,44.9 14.66,44.35 C15.66,43.2 16.5,40.29 16.86,38.87 C18.3807436,39.2511908 19.9422145,39.4459549 21.51,39.45 C23.5447472,39.4450215 25.5672417,39.1349057 27.51,38.53 C27.5830047,38.4993804 27.6532602,38.4625799 27.72,38.42 C28.4353504,40.063633 28.8030508,41.837447 28.8,43.63 C28.68,44.89 30.18,50.25 30.64,51.86 C30.7645106,52.3052375 31.1779962,52.607082 31.64,52.59 L35.89,52.59 C36.1621876,52.5889612 36.4221912,52.4770153 36.61,52.28 C36.8010955,52.0823152 36.9023665,51.8146704 36.89,51.54 C36.89,51.11 36.72,48.9 35.89,47.92 C35.35,46.92 34.6,39.13 34.89,37.8 L35.17,37.42 C37.6294847,34.1531993 39.2563619,30.3365591 39.91,26.3 C40.24,24.38 41.15,21.21 41.66,19.44 L41.78,19.44 C42.37,19.44 42.94,19.39 43.49,19.34 C44.04,19.29 44.49,19.24 44.95,19.23 C45.8374608,19.1980227 46.7260649,19.2247476 47.61,19.31 C48.3654978,19.4787849 49.1532502,19.2263982 49.67,18.65 C50.68,17.51 50.6,15.31 50.33,14.43 Z"/>
        <path id="Path" fill="#3D454C" d="M28.69 50L27.26 50C27.13 48.8 26.92 46.77 26.85 46 26.5107859 44.245918 26.0700447 42.5130037 25.53 40.81 25.4442447 40.4478718 25.1644931 40.1633178 24.8038769 40.0714116 24.4432607 39.9795055 24.0614383 40.0954516 23.8128185 40.3723613 23.5641988 40.6492711 23.4899121 41.0413341 23.62 41.39 24.1250562 42.9641258 24.5357853 44.5669711 24.85 46.19 24.96 47.36 25.37 51.19 25.37 51.19 25.4263151 51.6989349 25.8579683 52.0831062 26.37 52.0800187L26.37 52.0800187 28.75 52C29.3022847 52 29.7500016 51.5522847 29.7500016 51 29.7504972 50.7240529 29.6369446 50.4601655 29.436222 50.2708046 29.2354995 50.0814438 28.9654504 49.9834427 28.69 50zM41 10.38C40.4477153 10.38 40 10.8277153 40 11.38 40 11.9322847 40.4477153 12.38 41 12.38 41.5522847 12.38 42 11.9322847 42 11.38 42 10.8277153 41.5522847 10.38 41 10.38z"/>
      </g>
    </g>
  </g>
</svg>
