<svg xmlns="http://www.w3.org/2000/svg" width="64" height="64" viewBox="0 0 64 64" style="background:#fff">
  <g id="Ziegenmilch" fill="none" fill-rule="evenodd" stroke="none" stroke-width="1">
    <rect width="64" height="64" fill="#FFF"/>
    <g transform="translate(2 4)">
      <g id="Layer_2">
        <rect id="Rectangle" width="60" height="60" x="0" y="0"/>
      </g>
      <g id="Layer_1" fill-rule="nonzero" transform="translate(9 3)">
        <path id="Path" fill="#B3B3B3" d="M43.18,16.8 C40.381613,13.0194402 36.8087292,9.8795299 32.7,7.59 C29.5,5.87 23.79,3.27 21,6.51 C20.3374823,7.31355026 20.2688113,8.45268021 20.83,9.33 C22.62,12.22 25.95,12.53 28.83,14.09 C29.17,14.2833333 29.5033333,14.4833333 29.83,14.69 C28.5201409,15.2337219 27.3357323,16.040345 26.35,17.06 C21.68,21.86 22.58,28.62 20.35,34.4 C18.35,39.4 24.24,47.16 27.07,40.09 C28.57,36.36 28.39,32.2 29.81,28.52 C31.43,24.35 36.46,24.33 40.16,25.32 C44.49,26.48 45,19.18 43.18,16.8 Z" opacity=".5"/>
        <path id="Path" fill="#CCC" d="M20.37,27.94 C20.3593411,26.8447496 20.0591919,25.7718022 19.5,24.83 C19.6,22.07 18.5,19.67 18.07,16.89 C17.8,15.27 16.53,13.05 14.63,13.1 C12.73,13.15 11.71,15.43 11.38,17.1 C11.0312879,18.6943733 11.0586779,20.3480496 11.46,21.93 L11.46,21.93 C11.0891882,22.2407747 10.7384828,22.5747799 10.41,22.93 C9.67816913,23.918827 9.22570471,25.0862543 9.1,26.31 C8.94143862,27.4200766 8.96847362,28.5487878 9.18,29.65 L9.02,29.71 C8.65870755,29.893911 8.24285114,29.9401172 7.85,29.84 C7.51546589,29.76334 7.19719546,29.6279058 6.91,29.44 C7.08,28.82 7.23,28.19 7.35,27.56 C7.74,25.63 6.62,21.61 3.91,22.56 C0.5,23.82 -0.09,28.8 0.36,31.9 C0.528580799,32.9718051 0.844924835,34.0150674 1.3,35 C0.09,37.9 0.65,42 1.19,44.6 C2.19,49.36 4.87,53.07 10,53.3 C14.88,53.51 18.46,51.45 19.5,46.47 C20.75,40.58 20.42,34 20.37,27.94 Z" opacity=".5"/>
        <path id="Path" fill="#3D454C" d="M23.44,24.15 C23.0543785,24.3883953 22.8773805,24.8563868 23.0087284,25.2903038 C23.1400763,25.7242209 23.5469035,26.0154869 24,26 C24.1794833,25.9999472 24.3556443,25.9515893 24.51,25.86 C27.82,23.86 31.17,18.86 31.31,18.6 C31.3568302,18.5144832 31.3937362,18.4238957 31.42,18.33 C31.5946955,18.1176836 31.6742655,17.8428051 31.64,17.57 C31.6075654,17.3057878 31.4711263,17.0654114 31.2609032,16.9021131 C31.0506801,16.7388149 30.7840247,16.6660732 30.52,16.7 C28.4829353,16.7749592 26.4752414,16.1968275 24.79,15.05 L25.41,15.05 C26.5070487,15.0440917 27.6013843,14.9403474 28.68,14.74 C29.3860155,14.5228654 30.1344176,14.481669 30.86,14.62 C31.3037953,14.8481904 31.8478944,14.7142723 32.1350796,14.3061671 C32.4222647,13.8980619 32.3646239,13.3406972 32,13 C31.71,12.74 30.74,12.2 28.19,12.74 C27.2335522,12.9179788 26.2628649,13.0083532 25.29,13.01 C24.3179101,12.9210884 23.3398982,13.0973379 22.46,13.52 C21.9532317,13.8536591 21.7592554,14.5030579 22,15.06 C22.5,16.39 25.7,18.28 28.75,18.67 C27.64,20.23 25.47,22.94 23.44,24.15 Z"/>
        <path id="Path" fill="#3D454C" d="M45,19.83 C44.79,19.16 44,18.36 41.67,16.24 C40.373625,15.1132486 39.1479657,13.9076274 38,12.63 C36.16,10.33 31.64,8.38 31.52,8.33 C31.4,8.28 25.27,5.07 20.12,6.56 C19.5870452,6.71463973 19.2803603,7.27204522 19.435,7.805 C19.5896397,8.33795478 20.1470452,8.64463973 20.68,8.49 C25.05,7.22 30.55,10.07 30.68,10.13 C31.86,10.64 35.19,12.29 36.46,13.88 C37.6570877,15.2405296 38.9432541,16.5200145 40.31,17.71 C41.2876507,18.5560904 42.2127066,19.461109 43.08,20.42 C43.2761806,21.1865419 43.1947023,21.9977826 42.85,22.71 C42.85,22.71 42.8,22.77 42.65,22.71 C41.626935,22.6046907 40.5979709,22.567942 39.57,22.6 C39.04,22.6 38.5,22.66 37.96,22.72 C35.83,22.92 34.69,22.95 33.78,21.44 C33.6312264,21.0790703 33.2860177,20.8377157 32.8959484,20.8219103 C32.5058791,20.8061049 32.1422751,21.0187388 31.9647878,21.3664487 C31.7873005,21.7141585 31.8283843,22.1333639 32.07,22.44 C32.9591244,23.995701 34.6630209,24.9021117 36.45,24.77 C37.03,24.77 37.61,24.72 38.15,24.67 C38.69,24.62 39.15,24.57 39.62,24.56 C40.5074391,24.5230524 41.3963853,24.5497876 42.28,24.64 C43.0164052,24.7880361 43.7763416,24.5372571 44.28,23.98 C45.35,22.91 45.26,20.71 45,19.83 Z"/>
        <path id="Path" fill="#3D454C" d="M35.66,15.78 C35.1077153,15.78 34.66,16.2277153 34.66,16.78 C34.66,17.3322847 35.1077153,17.78 35.66,17.78 C36.2122847,17.78 36.66,17.3322847 36.66,16.78 C36.66,16.2277153 36.2122847,15.78 35.66,15.78 Z"/>
        <path id="Shape" fill="#3D454C" d="M16.87,11.39 C16.149746,9.4671908 15.7412663,7.44167172 15.66,5.39 C16.1371082,5.29775088 16.4788364,4.87586424 16.47,4.39 L16.47,2.53 C16.4780044,1.86694471 16.2222586,1.22787167 15.7590335,0.753394162 C15.2958084,0.278916651 14.6630564,0.00790893028 14,4.4408921e-16 L7.59,4.4408921e-16 C6.20928813,4.4408921e-16 5.09,1.11928813 5.09,2.5 L5.09,4.47 C5.08904577,4.99967725 5.50127612,5.43822017 6.03,5.47 C5.93855768,7.49769412 5.53028278,9.49857855 4.82,11.4 L3.15,15.82 C1.97190106,18.9425537 1.36884298,22.2525972 1.36984947,25.59 L1.36984947,49.24 C1.35531692,50.9119809 2.41608673,52.4043187 4,52.94 C6.20839863,53.6578709 8.51790737,54.0157772 10.84,54.0004997 L11.13,54.0004997 C13.3314155,53.9962669 15.519567,53.6591096 17.62,53 C19.2272986,52.4769276 20.3165128,50.9802666 20.3200017,49.29 L20.3200017,25.58 C20.321157,22.2425972 19.7180989,18.9325537 18.54,15.81 L16.87,11.39 Z M7.09,2.53 C7.09,2.25385763 7.31385763,2.03 7.59,2.03 L14,2.03 C14.2739085,2.03532011 14.4946799,2.25609155 14.5,2.53 L14.5,3.47 L7.09,3.47 L7.09,2.53 Z M5,16.52 L6.67,12.1 C7.46528234,9.98800424 7.92419836,7.76428616 8.03,5.51 L13.62,5.51 C13.7273734,7.76598058 14.1932027,9.99048453 15,12.1 L15.24,12.73 C13.338234,13.1071585 12.037517,14.8717979 12.24,16.8 C12.2866493,17.6083255 12.6714,18.3596782 13.3,18.87 L13.71,19.24 C14.71,20.14 15.12,20.61 14.9,21.24 C14.800859,21.5317309 14.5828803,21.7678746 14.3,21.89 C13.8985423,22.0981034 13.430717,22.1376886 13,22 C12.0975394,21.6220038 11.067448,21.7078448 10.24,22.23 C9.3188666,22.8426962 8.75220617,23.8641762 8.72,24.97 C8.74161909,26.0186074 8.98352052,27.0509473 9.43,28 C10.03,29.5 10.13,30.66 9.73,31.46 C9.50034178,31.9005435 9.09237147,32.2210916 8.61,32.34 C8.31893981,32.4179918 8.00814549,32.3468461 7.78,32.15 C7.50587698,31.8845666 7.3356396,31.5299054 7.3,31.15 C7.25952685,30.4705437 7.35820887,29.789978 7.59,29.15 L7.71,28.74 C8.11,27.47 8.61,25.88 7.51,24.34 C7.03119804,23.6679802 6.31735457,23.2004127 5.51,23.03 C4.80077238,22.8820059 4.06194719,22.9956713 3.43,23.35 C3.63813699,21.0121864 4.16640754,18.7140413 5,16.52 Z M18.3,49.24 C18.3000119,50.0598018 17.7768683,50.7881785 17,51.05 C12.9917984,52.3652061 8.66820162,52.3652061 4.66,51.05 C3.88670798,50.7911266 3.3666512,50.065466 3.36998392,49.25 L3.36998392,26.67 C3.45234455,26.0939448 3.75757854,25.5732515 4.22,25.22 C4.47683585,25.0096007 4.8143687,24.9252175 5.14,24.99 C5.44462649,25.0670008 5.71105655,25.2517256 5.89,25.51 C6.38,26.2 6.18,26.96 5.8,28.15 L5.67,28.58 C5.34596695,29.5032841 5.22654219,30.4859792 5.32,31.46 C5.42572852,32.320315 5.84604696,33.1110836 6.5,33.68 C7.02529658,34.1251793 7.69143554,34.3696665 8.38,34.37 C8.58860569,34.3694275 8.79651798,34.3459535 9,34.3 C10.0811612,34.0589747 10.9980682,33.3474549 11.5,32.36 C12.17,31.03 12.09,29.36 11.27,27.26 C10.9393963,26.5508043 10.7557107,25.7820462 10.73,25 C10.7432826,24.5453598 10.9691236,24.1232962 11.34,23.86 C11.6237064,23.6844466 11.9762759,23.6619422 12.28,23.8 C13.216717,24.1677704 14.262118,24.1425366 15.18,23.73 C15.9568715,23.3739344 16.550884,22.7111033 16.82,21.9 C17.48,19.9 16.03,18.61 15.08,17.75 L14.71,17.41 C14.417085,17.2046891 14.2448288,16.867666 14.25,16.51 C14.2254815,15.8184983 14.5930795,15.1722998 15.2,14.84 C15.437545,14.7153827 15.7017518,14.65 15.97,14.65 L16.67,16.51 C17.7614268,19.4059063 18.320413,22.4752487 18.3200002,25.57 L18.3,49.24 Z"/>
        <path id="Path" fill="#3D454C" d="M31.18,24.71 C29.3988765,26.1209497 28.042286,27.9966438 27.26,30.13 C26.1,33.42 27,38 23.51,40 C23.0577474,40.287496 22.9125198,40.8803968 23.1807068,41.3443602 C23.4488937,41.8083237 24.0351496,41.9784017 24.51,41.73 C26.78,40.43 27.76,38.31 28.21,35.8 C28.92,31.88 29.31,28.8 32.59,26.13 C33.59,25.31 32.17,23.9 31.18,24.71 Z"/>
      </g>
    </g>
  </g>
</svg>
