<svg xmlns="http://www.w3.org/2000/svg" width="64" height="64" viewBox="0 0 64 64" style="background:#fff">
  <g id="Ziegenkäse" fill="none" fill-rule="evenodd" stroke="none" stroke-width="1">
    <rect width="64" height="64" fill="#FFF"/>
    <g transform="translate(2 8)">
      <g id="Layer_2">
        <rect id="Rectangle" width="60" height="60" x="0" y="0"/>
      </g>
      <g id="Layer_1" fill-rule="nonzero" transform="translate(4 8)">
        <path id="Path" fill="#B3B3B3" d="M52.47,12.76 C49.8,7.96 45.07,5.52 40.19,3.42 C36.4,1.79 30,-1.26 26.5,2 C25.974978,2.60147329 25.9966841,3.50444829 26.55,4.08 C29.18,6.58 33.76,7.12 37,9 C37.84,9.48 38.76,10 39.7,10.49 C39.3484719,10.634053 39.0132547,10.8150703 38.7,11.03 C37.2,12.03 36.2,13.64 34.82,14.8 C33.0573266,16.051103 31.5103758,17.5811657 30.24,19.33 C28.24,22.33 31.5,29.77 34.43,25.38 C35.43,23.83 37.05,23.09 38.43,21.89 C39.81,20.69 40.31,19.47 42.2,19.09 C45.43,18.45 48,20.91 51.46,19.76 C54.1,18.85 53.46,14.53 52.47,12.76 Z" opacity=".5"/>
        <path id="Path" fill="#CCC" d="M44.28,35.35 C43.5609659,31.958119 41.2093653,29.1421895 38,27.83 C36.9073712,27.3136277 35.70795,27.0634627 34.5,27.1 C32.15,27.17 30.94,28.4 29.58,30.19 C29.51,30.28 29.45,30.39 29.39,30.48 C28.9713744,30.7898635 28.5948764,31.1529152 28.27,31.56 C28.0210263,31.2152188 27.7129307,30.9172802 27.36,30.68 C23.2488435,28.0728464 18.8952583,25.8692625 14.36,24.1 C10.53,22.57 6,20 2.46,23 C0.93,24.3 0.89,27.16 1.6,28.84 C3.49,33.28 7.6,34.68 11.6,36.77 C15.6,38.86 19.91,41.24 24.2,43.18 C25.2749884,43.7700741 26.6065207,43.6091638 27.51,42.78 C29.2843093,45.5283421 32.2906959,47.2350734 35.56,47.35 C42.31,47.88 45.43,41.27 44.28,35.35 Z" opacity=".5"/>
        <path id="Path" fill="#3D454C" d="M28,21 C27.6212557,21.234702 27.4434838,21.6916707 27.5640527,22.1206176 C27.6846215,22.5495645 28.0744405,22.8469942 28.52,22.85 C28.6994833,22.85 28.8756443,22.8015893 29.03,22.71 C32.47,20.64 37.65,14.61 37.87,14.36 C37.9638446,14.2420811 38.0319717,14.105827 38.07,13.96 C38.2446955,13.7476836 38.3242655,13.4728051 38.29,13.2 C38.2575654,12.9357878 38.1211263,12.6954114 37.9109032,12.5321131 C37.7006801,12.3688149 37.4340247,12.2960732 37.17,12.33 C34.88,12.63 32.17,11.38 30.91,10.47 L31.75,10.47 C32.9073958,10.4697013 34.062294,10.3625803 35.2,10.15 C35.9693592,9.8894006 36.7940952,9.83763893 37.59,10 C38.0072775,10.280858 38.5682313,10.2080625 38.9,9.83 C39.2639711,9.41560333 39.2237044,8.78475781 38.81,8.42 C38.5,8.15 37.5,7.59 34.81,8.16 C33.7912713,8.35155405 32.7565678,8.44531359 31.72,8.44 C30.68963,8.34683346 29.65321,8.53338906 28.72,8.98 C28.219775,9.30913942 28.0262158,9.94872621 28.26,10.5 C28.78,11.89 32.08,13.84 35.26,14.28 C33.62,16.12 30.32,19.61 28,21 Z"/>
        <path id="Path" fill="#3D454C" d="M52.52,15.58 C52.3,14.88 51.39,13.98 49.01,11.8 C47.6455207,10.6114844 46.3532213,9.34255992 45.14,8 C43.2,5.58 38.43,3.51 38.3,3.46 C38.17,3.41 31.68,0 26.25,1.56 C25.9052387,1.65824803 25.6390808,1.93296092 25.5517855,2.28065698 C25.4644901,2.62835305 25.5693195,2.99620897 25.8267855,3.245657 C26.0842514,3.49510502 26.4552387,3.58824805 26.8,3.49 C31.46,2.14 37.3,5.17 37.44,5.23 C38.69,5.77 42.23,7.53 43.58,9.23 C44.8490384,10.6686487 46.212025,12.0216133 47.66,13.28 C48.7207533,14.1817754 49.7227952,15.1504159 50.66,16.18 C50.8581287,17.0131025 50.7627633,17.8890511 50.39,18.66 C50.39,18.71 50.31,18.75 50.13,18.71 C49.0539679,18.5966142 47.9714715,18.5565217 46.89,18.59 C46.32,18.59 45.75,18.66 45.18,18.71 C42.97,18.93 41.67,18.96 40.69,17.34 C40.5531575,17.0995307 40.3228015,16.9265036 40.0537279,16.8620776 C39.7846543,16.7976515 39.5009134,16.8475849 39.27,17 C38.7986964,17.2850903 38.6466791,17.8976306 38.93,18.37 C39.8623524,20.0056326 41.6524376,20.9590475 43.53,20.82 C44.1283509,20.8112384 44.7258338,20.7711837 45.32,20.7 C45.84,20.7 46.32,20.6 46.88,20.59 C47.8242874,20.5603169 48.7695068,20.5903769 49.71,20.68 C50.487767,20.8562372 51.2998537,20.5957566 51.83,20 C52.89,18.8 52.8,16.49 52.52,15.58 Z"/>
        <path id="Path" fill="#3D454C" d="M42.69 11.33C42.1377153 11.33 41.69 11.7777153 41.69 12.33 41.69 12.8822847 42.1377153 13.33 42.69 13.33 43.2422847 13.33 43.69 12.8822847 43.69 12.33 43.69 11.7777153 43.2422847 11.33 42.69 11.33zM35.39 24C34.52 24.94 35.93 26.36 36.8 25.41 37.8588043 24.2439966 38.8376959 23.0078536 39.73 21.71 40.47 20.66 38.73 19.65 38 20.71 37.2028385 21.8625301 36.3309685 22.9615539 35.39 24L35.39 24zM26.26 29.64C26.4582761 29.129197 26.2085605 28.5539592 25.7 28.35L11.76 22.84C11.513369 22.7416208 11.2377372 22.7453691 10.9938726 22.8504184 10.7500079 22.9554678 10.5579351 23.1531923 10.46 23.4 10.2528651 23.9080961 10.493831 24.4881994 11 24.7L25 30.21C25.1154829 30.2524407 25.2370281 30.2760745 25.36 30.28 25.7612767 30.2666846 26.1156818 30.0146632 26.26 29.64z"/>
        <path id="Shape" fill="#3D454C" d="M37.51,28 L37.51,28 L13.22,19.19 C8.69698748,17.5561354 3.67873559,19.681429 1.70493609,24.0667764 C-0.268863406,28.4521237 1.46782296,33.6177453 5.69,35.92 L5.8,35.92 L31.12,46.02 L31.32,46.12 C35.74,48.2 41.51,44.83 43.06,40.54 C44.91,35.45 42.75,29.8 37.51,28 Z M3.12,29.51 C2.51844612,26.9425234 3.3665369,24.2514571 5.33147059,22.4928102 C7.29640429,20.7341632 10.0646836,20.1885208 12.55,21.07 L32.23,28.2 C29.5457315,29.2062839 27.4224038,31.316169 26.3990927,33.9939926 C25.3757816,36.6718161 25.5509042,39.6600376 26.88,42.2 L6.6,34.14 C4.84548558,33.149042 3.58411918,31.4708447 3.12,29.51 Z M41.26,39.64 C39.84,44 33.89,46.46 30.36,43 C27.27,40 26.59,35.87 29.27,32.37 C31.0765711,30.0869259 34.069643,29.0997234 36.88,29.86 C41,31.25 42.56,35.67 41.26,39.64 Z"/>
      </g>
    </g>
  </g>
</svg>
