<svg xmlns="http://www.w3.org/2000/svg" width="64" height="64" viewBox="0 0 64 64" style="background:#fff">
  <g id="Zimt" fill="none" fill-rule="evenodd" stroke="none" stroke-width="1">
    <rect width="64" height="64" fill="#FFF"/>
    <g transform="translate(2 6)">
      <g id="Layer_2">
        <rect id="Rectangle" width="60" height="60" x="0" y="0"/>
      </g>
      <g id="Layer_1" fill-rule="nonzero" transform="translate(4 6)">
        <path id="Path" fill="#C17953" d="M28.42,24 C25.7,21.9 22.94,22.79 21.05,24.83 C20.4885291,23.6294702 19.8608984,22.4610087 19.17,21.33 C17.3446356,18.242865 15.1813164,15.3685014 12.72,12.76 C10.91,11 7.88,8.53 5,9.51 C2.85997972,10.2644659 1.61374002,12.4914234 2.09,14.71 C3.39,19.35 7.46,22.03 9.72,26.21 C10.91,28.4 11.78,30.76 12.81,33.02 C14.18,36.02 16.44,39.35 17.26,42.55 C18.58,47.66 23.1,51.05 27.14,46.13 C29.0360671,43.6121402 30.397279,40.7331771 31.14,37.67 C32.39,33.27 32.51,27.19 28.42,24 Z" opacity=".5"/>
        <path id="Path" fill="#C17953" d="M49.07 19.25C47.8 13 43.27 9.8 37.3 8.7 30.69 7.5 25.63 5.43 19.52 2.76 17.12 1.76 10.9.04 11.65 4.84 12.58 10.84 18.27 13.77 23.17 16.38 26.01 17.9 28.94 19.28 31.82 20.71 32.88 21.24 33.97 21.71 35.06 22.19 34 27.54 36 34.85 40.69 34.05 47.64 32.87 50.4 25.76 49.07 19.25zM47.65 36.81C44.6366549 34.5362265 40.5756475 34.2238413 37.25 36.01 33.25 38.22 30.09 45.45 34.37 48.95 35.0292345 49.5427891 35.9695728 49.7059883 36.79 49.37 37.098774 49.1885735 37.3960101 48.9881896 37.68 48.77L38.31 48.18C38.8401334 47.996511 39.3811808 47.84622 39.93 47.73 41.1701991 47.5818545 42.4268362 47.7936083 43.55 48.34 49.66 52.2 52.14 39.85 47.65 36.81z" opacity=".5"/>
        <path id="Path" fill="#3D454C" d="M51.67 42C51.5386293 39.9328016 50.3979275 38.0627987 48.62 37 45.62 35.17 40.9 35.12 36.49 36.87 33.14 38.2 31.11 40.53 30.91 43.25 30.7285223 45.3943193 31.7787639 47.4560481 33.62 48.57 34.354281 48.9997225 35.1892218 49.2274336 36.04 49.23 37.146975 49.2140734 38.2235847 48.865656 39.13 48.23 41.068968 46.9494063 41.696209 44.3925281 40.57 42.36 39.9874977 41.1558803 38.6781904 40.4828719 37.36 40.71 36.0558569 40.8398699 34.9370299 41.6954436 34.47 42.92 34.4076419 43.1828634 34.4542933 43.4597736 34.5993349 43.687696 34.7443764 43.9156184 34.9754662 44.0751588 35.24 44.13 35.7714964 44.2354987 36.2903215 43.8984841 36.41 43.37 36.7669024 42.9512837 37.2805331 42.6980855 37.83 42.67 38.260342 42.6574358 38.6555363 42.9064082 38.83 43.3 39.4483245 44.4361409 39.1019857 45.8561299 38.03 46.58 37.0597325 47.3404631 35.7286871 47.4467892 34.65 46.85 33.4734778 46.1140631 32.8060411 44.7830477 32.92 43.4 33.07 41.4 34.6 39.79 37.25 38.74 41.03 37.24 45.18 37.23 47.58 38.74 48.8191529 39.4615874 49.6121378 40.7581739 49.69 42.19 49.7366229 43.2056732 49.3515827 44.193701 48.63 44.91 47.9565672 45.6428218 46.9943889 46.0415953 46 46 44.4 45.92 44.06 45.68 43.85 44.49 43.64 43.3 43.85 42.67 44.38 42.41 45.0559251 42.1791855 45.8041629 42.3901249 46.26 42.94 46.6378487 43.3106696 47.2390941 43.3227003 47.6314683 42.9674426 48.0238425 42.6121849 48.0714223 42.0127043 47.74 41.6 46.6952091 40.3789474 44.9803014 39.9744881 43.5 40.6 42.84 40.92 41.37 41.98 41.88 44.83 42.39 47.68 44.21 47.9 45.88 47.99 47.4460432 48.0386643 48.9575272 47.4122179 50.03 46.27 51.1552065 45.1421744 51.7509439 43.5910777 51.67 42L51.67 42zM28.19 32.71C28.4554592 32.6639662 28.6911126 32.5127646 28.8435876 32.2906406 28.9960625 32.0685166 29.0524576 31.7942648 29 31.53 28.9448514 31.2697835 28.7883024 31.0422611 28.5649799 30.8977583 28.3416574 30.7532555 28.0699657 30.703681 27.81 30.76 26.2096942 31.0894088 25.0006191 32.4073006 24.81 34.03 24.76 34.78 24.95 36.63 27.75 37.63 30.55 38.63 31.68 37.12 32.62 35.63 33.4650157 34.2588145 33.6799197 32.5905767 33.21 31.05 32.7660508 29.4713938 31.6767385 28.1533258 30.21 27.42 28.3042508 26.4841688 26.059704 26.5477643 24.21 27.59 21.26 29.19 18.9 32.99 18.03 37.43 14.68 29.59 11 21.7 3.57 16.27 3.28296698 16.056652 3.08097639 15.7483506 3 15.4 2.54 13.4 2.61 11.9 3.24 10.96 3.8717523 10.1372366 4.82531843 9.62405791 5.86 9.55 6.60919852 9.44374996 7.36701942 9.6743911 7.93 10.18L22.07 22.72C22.4842136 23.0872693 23.1177306 23.0492135 23.485 22.635 23.8522693 22.2207864 23.8142135 21.5872694 23.4 21.22L9.23 8.68C8.21981365 7.77024754 6.8524983 7.36593386 5.51 7.58 3.91352051 7.73022347 2.45763512 8.55643843 1.51 9.85.51 11.29.39 13.25 1 15.85 1.19788907 16.6559745 1.67651628 17.3650519 2.35 17.85 10.05 23.48 13.56 32.05 17 40.33L18 42.68C18.2044451 43.4808942 18.5425211 44.2415652 19 44.93L19 44.99C19.4447306 45.6661328 20.0191459 46.247346 20.69 46.7 21.6854754 47.3603907 22.8554234 47.7085895 24.05 47.7001552 24.998078 47.7001552 25.9306438 47.4593693 26.76 47 28.5356252 45.9448007 29.5202299 43.9402867 29.27 41.89 29.1089857 39.5073239 27.1478361 37.6461886 24.76 37.61 23.3930886 37.5076069 22.1239205 38.3237922 21.65 39.61 21.1094257 40.8394815 21.3024821 42.2680986 22.15 43.31 22.3469526 43.490366 22.6078684 43.5844579 22.8746068 43.5713088 23.1413451 43.5581598 23.3917417 43.4388623 23.57 43.24 23.9323816 42.8323387 23.9012387 42.2094803 23.5 41.84 23.296727 41.2983994 23.3293629 40.6964488 23.59 40.18 23.804345 39.7746595 24.2441109 39.54091 24.7 39.59 26.0514401 39.6067474 27.1665372 40.6524221 27.27 42 27.4615899 43.2795601 26.8662648 44.5490612 25.76 45.22 24.4884921 45.8916309 22.9501819 45.8070239 21.76 45 21.3248931 44.7054548 20.9484707 44.3324235 20.65 43.9 20.37 43.25 20.1 42.6 19.83 41.95 19.617836 40.8683999 19.6009025 39.7575644 19.78 38.67 20.37 34.48 22.51 30.73 25.09 29.33 26.3905667 28.5828474 27.9791674 28.5377807 29.32 29.21 30.2682658 29.6955104 30.9660655 30.5604912 31.24 31.59 31.5517545 32.5791704 31.4204873 33.654832 30.88 34.54 29.98 35.95 29.58 36.14 28.37 35.71 27.16 35.28 26.71 34.71 26.75 34.12 26.9022172 33.4028773 27.4698319 32.8470878 28.19 32.71L28.19 32.71z"/>
        <path id="Shape" fill="#3D454C" d="M10.19,7.45 C10.1849874,7.49987437 10.1849874,7.55012563 10.19,7.6 C10.2075534,7.74180414 10.255292,7.87819996 10.33,8 C10.3983287,8.12343598 10.4941314,8.22950323 10.61,8.31 L10.74,8.38 L40,23.79 C40.9259452,24.5585004 42.1236469,24.9192539 43.32,24.79 C44.5862859,24.7318305 45.6581434,23.8358885 45.94,22.6 C46.2783501,21.3900191 45.8889741,20.0933971 44.94,19.27 C44.7167696,19.1198323 44.442447,19.0659478 44.1790004,19.1205189 C43.9155537,19.17509 43.685209,19.3335127 43.54,19.56 C43.2474259,20.019436 43.3763566,20.6285225 43.83,20.93 C44.0647591,21.3328993 44.1157223,21.8170501 43.97,22.26 C43.8465406,22.6018313 43.5127999,22.8216118 43.15,22.8 C41.9225443,22.9768642 40.7588391,22.2010608 40.45,21 C40.2226202,19.9198981 40.6067169,18.8021766 41.45,18.09 C42.670087,17.2318039 44.2721671,17.142584 45.58,17.86 C46.88,18.69 47.58,21.2 47.58,23.19 C47.69,26.91 46.71,29.94 44.96,31.28 C43.5573855,32.223597 41.7783473,32.4108642 40.21,31.78 C39.0878348,31.4258148 38.1570356,30.63211 37.63,29.58 C37.3553668,28.9939104 37.3553668,28.3160896 37.63,27.73 C37.8139301,27.2748488 38.1748488,26.9139301 38.63,26.73 C39.0803654,26.6203374 39.5559006,26.6959908 39.95,26.94 C41.09,27.54 41.08,28.14 40.65,29.12 C40.4290861,29.628102 40.6618981,30.2190861 41.17,30.44 C41.678102,30.6609139 42.2690861,30.4281019 42.49,29.92 C43.63,27.29 42.24,25.92 40.88,25.17 C40.0063727,24.6571791 38.9567462,24.5373255 37.99,24.84 C37.038188,25.1902806 36.2694483,25.912102 35.86,26.84 C35.3449712,27.9533216 35.3449712,29.2366784 35.86,30.35 C36.6277775,31.9304717 38.0133817,33.1243344 39.69,33.65 C40.5544359,33.9208272 41.4541643,34.0623575 42.36,34.07 C43.7551466,34.0982196 45.1188993,33.6542071 46.23,32.81 C48.52,31.06 49.76,27.51 49.63,23.08 C49.57,20.69 48.76,17.44 46.7,16.13 C46.5189168,16.0110531 46.3282605,15.9073629 46.13,15.82 C46.0185096,15.7059624 45.8813611,15.6202446 45.73,15.57 C30.76,10.8 20.46,5.25 16.88,1.89 C16.0785356,1.1197374 14.9889877,0.723868328 13.88,0.8 C10.07,1.14 10.14,4.74 10.18,6.67 C10.18,7 10.19,7.21 10.19,7.45 Z M14.06,2.79 C14.6002581,2.76641522 15.1258412,2.96939907 15.51,3.35 C18.9,6.52 27.9,11.54 40.89,16.12 C40.7010604,16.2203742 40.5174782,16.3305234 40.34,16.45 C38.9889373,17.4347421 38.2346031,19.041474 38.34,20.71 L12.18,6.88 L12.18,6.63 C12.13,4.05 12.38,2.94 14.06,2.79 Z"/>
        <path id="Path" fill="#3D454C" d="M25.56,25.48 C26.1122847,25.48 26.56,25.0322847 26.56,24.48 C26.56,23.9277153 26.1122847,23.48 25.56,23.48 C25.0077153,23.48 24.56,23.9277153 24.56,24.48 C24.56,25.0322847 25.0077153,25.48 25.56,25.48 Z"/>
      </g>
    </g>
  </g>
</svg>
