<svg xmlns="http://www.w3.org/2000/svg" width="64" height="64" viewBox="0 0 64 64" style="background:#fff">
  <g id="Zitronen" fill="none" fill-rule="evenodd" stroke="none" stroke-width="1">
    <rect width="64" height="64" fill="#FFF"/>
    <g transform="translate(2 8)">
      <g id="Layer_2">
        <rect id="Rectangle" width="60" height="60" x="0" y="0"/>
      </g>
      <g id="Layer_1" fill-rule="nonzero" transform="translate(5 8)">
        <path id="Shape" fill="#EBE53F" d="M30.24,0.55 C24.7957439,-0.258535287 19.3200463,1.80241442 15.76,6 C11.98,6.34 7.76,9.95 5.76,13 C4.49549788,15.0947709 3.65934299,17.4196894 3.3,19.84 C2.87,22 3.21,25 2,26.91 C2.22044605e-16,29.91 -0.31,39.17 4.62,40.09 C13.41,41.72 20.55,47.7 29.62,45.04 C40.11,45.09 47.3,35.81 47.62,25.17 C47.94,14.53 41.41,2.52 30.24,0.55 Z M38.62,24.55 C37.62,27.89 34.35,29.22 31.05,29.19 C30.0964697,28.6091294 28.9435568,28.4532323 27.87,28.76 C26.8648478,28.5109465 25.8990132,28.1239396 25,27.61 C20.75,25.04 20.44,20.92 19.11,17.08 C21.7,13.76 24.91,11.3 29.81,12.41 C35,13.56 40.39,19 38.62,24.57 L38.62,24.55 Z" opacity=".5"/>
        <path id="Shape" fill="#3D454C" d="M47.16,21 C46.98,20.1 46.76,19.21 46.5,18.34 C44.9502618,13.0509076 41.8075245,8.36822908 37.5,4.93 C33.34,1.7 28.7,0.37 24.42,1.17 C24.3567662,1.16497823 24.2932338,1.16497823 24.23,1.17 C17.5970535,2.47018742 11.6543568,6.11603542 7.49,11.44 C7.15862915,11.8818278 7.2481722,12.5086292 7.69,12.84 C7.86309617,12.9698221 8.07362979,13.04 8.29,13.04 C8.6047573,13.04 8.90114562,12.8918058 9.09,12.64 C11.1202498,9.99446394 13.6645889,7.78687556 16.57,6.15 C15.9101093,7.03562263 15.3500475,7.9914166 14.9,9 C13.2229872,13.0642346 12.8219017,17.5424415 13.75,21.84 C13.93,22.74 14.15,23.63 14.41,24.5 C15.9597382,29.7890924 19.1024755,34.4717709 23.41,37.91 C26.2717858,40.2665175 29.8009123,41.6655766 33.5,41.91 C28.0410669,44.0152017 22.0069495,44.0861913 16.5,42.11 C15.2526331,41.6271943 14.0566812,41.0208433 12.93,40.3 C11.22,39.24 10.36,38.82 6.14,39.05 C5.33835057,39.1191682 4.56565509,38.7328205 4.14,38.05 C3.53827627,37.0036746 3.53827627,35.7163254 4.14,34.67 C6.04,31.12 5.93,29.89 5.55,27.84 C5.39527595,27.094613 5.29170105,26.3395185 5.24,25.58 C5.08233716,23.711974 5.20707091,21.8308541 5.61,20 C5.73426406,19.4615224 5.39847762,18.9242641 4.86,18.8 C4.32152237,18.675736 3.78426408,19.0115224 3.66,19.55 C3.19923792,21.5585827 3.03749462,23.6241794 3.18,25.68 C3.24043852,26.5163679 3.354001,27.348046 3.52,28.17 C3.83,29.83 3.97,30.59 2.32,33.69 C1.36762772,35.3698601 1.39053723,37.4317159 2.38,39.09 C3.21094844,40.3848465 4.68603486,41.1185483 6.22,41 C9.99,40.79 10.5,41.11 11.85,42 C13.0751642,42.7974163 14.3785996,43.467563 15.74,44 C18.4995612,45.0593878 21.4342158,45.5886434 24.39,45.56 C30.600542,45.5857252 36.6323132,43.4821936 41.48,39.6 C41.5253537,39.5545286 41.5655934,39.504229 41.6,39.45 C43.5290971,37.9773533 45.044787,36.0310697 46,33.8 C47.6629751,29.7465566 48.0671801,25.2863637 47.16,21 Z M44.16,33 C42.9277592,36.0055766 40.4667829,38.3391355 37.4,39.41 C36.9928872,39.5367908 36.5788834,39.6402917 36.16,39.72 C32.43,40.45 28.33,39.26 24.61,36.36 C20.6286633,33.1772964 17.7266003,28.8434094 16.3,23.95 C16.0589195,23.1405681 15.858667,22.3195327 15.7,21.49 C14.843443,17.5951622 15.1922217,13.5318906 16.7,9.84 C17.9234686,6.82842557 20.3876937,4.49178615 23.46,3.43 C23.8638719,3.30103187 24.2744828,3.19420628 24.69,3.11 C25.4091977,2.97808657 26.1388057,2.91115005 26.87,2.91 C30.3063716,3.02526856 33.6065707,4.28131451 36.25,6.48 C40.2259386,9.66150313 43.1242524,13.9915141 44.55,18.88 C44.79,19.69 45,20.52 45.16,21.35 C46.017805,25.2431605 45.6761347,29.3048533 44.18,33 L44.16,33 Z"/>
        <path id="Shape" fill="#3D454C" d="M41,18.63 C41.1220835,18.4347664 41.2226696,18.2268883 41.3,18.01 C42.12,15.6 39.8,12.44 38.76,11.2 C36.32,8.26 34.28,7.02 32.69,7.48 C32.4059987,7.5601664 32.1408303,7.69615019 31.91,7.88 C31.6642402,7.29825467 31.295859,6.77638122 30.83,6.35 C29.3833105,5.19879332 27.4794155,4.79504905 25.69,5.26 C23.33,5.72 21.74,6.78 21.2,8.26 C20.9446292,9.02252027 20.9446292,9.84747973 21.2,10.61 C20.9397335,10.6038317 20.6800571,10.6375559 20.43,10.71 C18.5,11.31 17.91,14.09 17.74,15.71 C17.52,17.71 17.44,21.34 19.33,23.13 C19.6287174,23.3931183 19.9659576,23.6089521 20.33,23.77 C20.2018736,23.9618355 20.1009157,24.1704819 20.03,24.39 C19.2,26.81 21.52,29.96 22.56,31.21 C24.67,33.75 26.48,35.03 27.96,35.03 C28.1868063,35.0268519 28.4121592,34.9932172 28.63,34.93 C28.9162126,34.847706 29.1842634,34.7119841 29.42,34.53 C29.6400896,35.0832374 29.9739692,35.5840567 30.4,36 C31.4015622,36.8541206 32.684208,37.3066095 34,37.27 C34.5136052,37.2686806 35.0259178,37.2184539 35.53,37.12 C37.89,36.66 39.53,35.6 40.02,34.12 C40.2760328,33.364434 40.2760328,32.545566 40.02,31.79 L40.07,31.79 C40.3140051,31.7877005 40.5564392,31.7506619 40.79,31.68 C42.72,31.08 43.31,28.29 43.48,26.68 C43.7,24.68 43.78,21.05 41.89,19.26 C41.6271423,19.005908 41.3270144,18.793458 41,18.63 Z M33.22,9.4 L33.34,9.4 C33.9,9.4 35.27,10.18 37.2,12.5 C38.83,14.5 39.7,16.43 39.37,17.39 C39.37,17.54 39.17,17.99 38.13,18.22 L35.13,18.89 L32,19.4 C31.8740362,19.4227013 31.7502498,19.456157 31.63,19.5 C31.5961275,19.4339652 31.5725228,19.3631513 31.56,19.29 C31.56,19.2 31.56,19.12 31.56,19.03 L31.75,16.85 L32.49,11.12 C32.69,10 33,9.46 33.22,9.4 Z M23.05,8.93 C23.33,8.17 24.45,7.53 26.05,7.22 C27.2244063,6.91482065 28.4735217,7.13761608 29.47,7.83 C30.2363438,8.69405734 30.5512442,9.86845058 30.32,11 L29.82,16.58 L29.57,18.51 L29.57,18.51 L28.29,17.02 L24.23,12.02 C23.51,11.13 22.71,9.86 23.05,8.93 L23.05,8.93 Z M19.68,15.93 C19.9,13.87 20.51,12.77 20.98,12.63 C21.45,12.49 21.98,12.84 22.98,14.02 L26.74,18.4 L28,19.92 C28.1661159,20.1291526 28.35382,20.3202086 28.56,20.49 C28.6461706,20.6001364 28.7230987,20.7172009 28.79,20.84 L25.66,21.54 L22.53,22.06 C21.8692722,22.239614 21.1624698,22.0825468 20.64,21.64 C19.75,20.78 19.38,18.63 19.68,15.9 L19.68,15.93 Z M28,33 C27.55,33.13 26.11,32.43 24,29.92 C22.37,27.92 21.49,25.99 21.82,25.03 C21.87,24.88 22.02,24.43 23.06,24.19 L26.06,23.53 L29.2,23 C29.3227092,22.9773267 29.4431769,22.9438634 29.56,22.9 C29.5976457,22.9653093 29.6246505,23.036197 29.64,23.11 C29.6352626,23.1966019 29.6352626,23.2833981 29.64,23.37 L29.45,25.54 L28.72,31.28 C28.52,32.43 28.2,32.92 28,33 Z M38.17,33.47 C37.89,34.23 36.78,34.87 35.17,35.18 C33.9953888,35.4797566 32.7485454,35.2573664 31.75,34.57 C30.9719115,33.6961661 30.6529947,32.5057905 30.89,31.36 L31.4,25.78 L31.64,23.85 L31.64,23.85 L32.92,25.34 L36.98,30.34 C37.69,31.25 38.49,32.52 38.15,33.45 L38.17,33.47 Z M41.54,26.47 C41.33,28.47 40.73,29.62 40.25,29.77 C39.93,29.88 39.25,29.56 38.25,28.38 L34.45,24 L33.18,22.43 C33.0172708,22.2241574 32.8328773,22.0364114 32.63,21.87 C32.5430088,21.7548108 32.4628703,21.6346031 32.39,21.51 L35.51,20.81 L38.66,20.28 C39.3208058,20.1039092 40.0259674,20.2606117 40.55,20.7 C41.46,21.59 41.82,23.74 41.52,26.48 L41.54,26.47 Z"/>
        <path id="Path" fill="#3D454C" d="M5.92,16.67 C6.47228475,16.67 6.92,16.2222847 6.92,15.67 C6.92,15.1177153 6.47228475,14.67 5.92,14.67 C5.36771525,14.67 4.92,15.1177153 4.92,15.67 C4.92,16.2222847 5.36771525,16.67 5.92,16.67 Z"/>
      </g>
    </g>
  </g>
</svg>
