<svg xmlns="http://www.w3.org/2000/svg" width="64" height="64" viewBox="0 0 64 64" style="background:#fff">
  <g id="Zitronengras" fill="none" fill-rule="evenodd" stroke="none" stroke-width="1">
    <rect width="64" height="64" fill="#FFF"/>
    <g transform="translate(2 4)">
      <g id="Layer_2">
        <rect id="Rectangle" width="60" height="60" x="0" y="0"/>
      </g>
      <g id="Layer_1" fill-rule="nonzero" transform="translate(5 9)">
        <path id="Path" fill="#31E085" d="M41.33,34.87 C38.4725057,31.9912072 35.2874437,29.4572537 31.84,27.32 C31.8437147,26.8484123 31.7589143,26.3803143 31.59,25.94 C29.44,20.82 25.91,16.27 23.01,11.54 C20.81,7.96 18.91,2.47 15.18,0.3 C14.71,0.03 14.46,0.89 14.48,1.16 C14.74,5.73 17.2,9.99 19.31,14.05 L18.15,12.85 C13.65,8.14 8.81,3.1 2.42,1.17 C1.82,1 1.8,2 2,2.32 C5.2,7 9.23,10.83 13.09,14.9 C9.41,12.32 5.51,10 1.47,9.3 C0.35,9.12 0.47,11.3 0.85,11.79 C5.44,18.52 13.24,23 19.62,27.85 C26,32.7 32.21,39.05 39.52,42.11 C43.29,43.7 42.84,36.46 41.33,34.87 Z" opacity=".5"/>
        <path id="Shape" fill="#3D454C" d="M50,42.82 L49.24,42.1 C49.3215996,41.9018701 49.3884482,41.6979817 49.44,41.49 C50.0237929,39.193427 49.1818846,36.7699902 47.3,35.33 L29.57,21.33 C29.471602,21.2508192 29.3598452,21.1898609 29.24,21.15 L27.24,20.51 L17.62,1 C17.4457817,0.653916453 17.0873217,0.439619668 16.7,0.45 L14.25,0.45 C13.7166665,0.449332936 13.2766663,0.867333155 13.25,1.4 C13.2512144,1.5085142 13.268054,1.61628762 13.3,1.72 L17.48,13 L4.38,0.68 C3.97180786,0.30869004 3.34819214,0.30869004 2.94,0.68 L1.31,2.21 C1.13160359,2.38324367 1.03093681,2.62132622 1.03093681,2.87 C1.03093681,3.11867378 1.13160359,3.35675633 1.31,3.53 L9.31,11.87 L2.54,8.19 C2.37588699,8.09654465 2.18866443,8.05147255 2,8.06 C1.64186265,8.05081657 1.30617491,8.23391897 1.12,8.54 C1.0390308,8.67961631 0.997550951,8.83862241 0.999897502,9 L0.999897502,12.07 C1.00192765,12.41214 1.18960505,12.7262124 1.49,12.89 L22.5,25 L27.83,31.42 C28.003213,31.7283482 28.3264161,31.92227 28.68,31.93 C29.2322847,31.93 29.68,31.4822847 29.68,30.93 C29.6771243,30.7124824 29.6033977,30.5018349 29.47,30.33 C29.47,30.33 24,23.75 24,23.75 C23.9267484,23.6556064 23.8348388,23.577313 23.73,23.52 L3.03,11.52 L3.03,10.66 L16.61,18.11 C19.6416242,19.7714367 22.8305677,21.1280776 26.13,22.16 L28.36,22.85 L38.67,31 L42.67,36.12 C43.3672068,37.0055208 43.8128373,38.0625978 43.96,39.18 L43.96,39.18 C43.9504697,39.1069763 43.9504697,39.0330237 43.96,38.96 C43.96,39.5122847 44.4077153,39.96 44.96,39.96 C45.5122847,39.96 45.96,39.5122847 45.96,38.96 C45.964853,38.9301963 45.964853,38.8998037 45.96,38.87 C45.8295981,37.8134241 45.489624,36.7935018 44.96,35.87 L46,36.8 C47.5773009,37.9833421 48.0569435,40.1396114 47.13,41.88 C46.9277544,42.2525242 47.006213,42.715017 47.32,43 L47.85,43.5 L46.75,44.5 L46,44 C45.8229134,43.8716677 45.6086392,43.8049265 45.39,43.81 C45.2492254,43.807506 45.1095109,43.8347674 44.98,43.89 C44.7518427,43.9816049 44.5180261,44.0584304 44.28,44.12 C43.9289484,44.1999193 43.5700337,44.2401714 43.21,44.24 C41.9154849,44.2496139 40.6771,43.7121331 39.8,42.76 C39.8,42.76 34.96,36.96 34.95,36.97 C34.7635448,36.7339767 34.4807541,36.5944177 34.18,36.59 C33.6277153,36.59 33.18,37.0377153 33.18,37.59 C33.1868364,37.8924454 33.3302212,38.1755384 33.57,38.36 L38.21,43.96 C39.4887481,45.368723 41.3075117,46.1653415 43.21,46.15 C43.7378371,46.1483705 44.2640481,46.0913922 44.78,45.98 L45.23,45.85 L46.29,46.6 C46.4700574,46.7222893 46.682347,46.7884123 46.9,46.7903303 C47.1678174,46.7968808 47.4271962,46.6960113 47.62,46.51 L50,44.17 C50.1908142,43.9974736 50.2996927,43.7522458 50.2996927,43.495 C50.2996927,43.2377542 50.1908142,42.9925264 50,42.82 Z M17.65,16.47 L15.06,15.06 L3.43,2.92 L3.66,2.71 L19,17.11 L19,17.2 C18.57,17 18.1,16.72 17.65,16.47 Z M21.65,18.47 L15.65,2.35 L16.01,2.35 L24.48,19.62 C23.55,19.22 22.58,18.84 21.65,18.43 L21.65,18.47 Z"/>
        <circle id="Oval" cx="31.48" cy="34.33" r="1" fill="#3D454C"/>
      </g>
    </g>
  </g>
</svg>
