<svg xmlns="http://www.w3.org/2000/svg" width="64" height="64" viewBox="0 0 64 64" style="background:#fff">
  <g id="Zitronenmelisse" fill="none" fill-rule="evenodd" stroke="none" stroke-width="1">
    <rect width="64" height="64" fill="#FFF"/>
    <g transform="translate(2 7)">
      <g id="Layer_2">
        <rect id="Rectangle" width="60" height="60" x="0" y="0"/>
      </g>
      <g id="Layer_1" fill-rule="nonzero" transform="translate(5 6)">
        <path id="Path" fill="#31E085" d="M45.54,27.71 C44.119023,25.6240112 42.263157,23.8704908 40.1,22.57 C44.36,18.21 47.4,10 41.46,5.8 C37.33,2.9 30,4.49 26.57,7.68 C26.1139974,8.11720047 25.6958367,8.59223096 25.32,9.1 C23.5604705,4.57732277 19.3929009,1.44002595 14.56,1 C11.4566388,0.809418433 8.37813332,1.6573268 5.81,3.41 C4.48,4.35 2.17,6.28 2.93,8.25 C3.03425108,8.51328324 3.17205675,8.76200566 3.34,8.99 C3.18256756,10.188094 3.21971269,11.403753 3.45,12.59 C4.14,16.25 6.07,17.59 8.93,19.53 C10.1474332,20.3672856 11.4395862,21.0903557 12.79,21.69 C12.2382403,22.5834179 11.7887467,23.5360759 11.45,24.53 C10.63,26.92 10.63,29.71 9.21,31.84 C7.5,34.43 8.27,43.84 13.21,41.6 L21.36,37.88 C23.3961931,37.0955506 25.3169354,36.0393105 27.07,34.74 C28.7648902,37.5390925 31.1830786,39.8294623 34.07,41.37 C35.1973576,41.8574338 36.2727799,42.4571242 37.28,43.16 C38.19,43.95 38.62,45.08 39.5,45.94 C41.68,48.05 44.27,47.65 46.06,45.3 C49.9,40.29 48.78,32.65 45.54,27.71 Z" opacity=".5"/>
        <path id="Shape" fill="#3D454C" d="M0.56,7.22 C0.677328996,7.348763 0.830610923,7.43933868 1,7.48 C1.04996485,7.52873756 1.10734451,7.56924085 1.17,7.6 C1.38273611,8.03956636 1.51483128,8.51375415 1.56,9 C1.65260082,9.88255514 2.03605177,10.7092613 2.65,11.35 C3.33231343,12.1908941 4.14212763,12.9197269 5.05,13.51 L5.05,13.51 C4.64569948,13.3672721 4.19540237,13.4981615 3.93060875,13.8353773 C3.66581513,14.1725931 3.64545677,14.6410855 3.88,15 C4.88058356,16.8385594 6.67429475,18.1118729 8.74,18.45 C8.57581584,18.6202019 8.39861228,18.7773447 8.21,18.92 C7.96374311,19.104595 7.81620211,19.3923 7.81,19.7 C7.80523512,20.011279 7.9457125,20.3070209 8.19,20.5 C9.19,21.31 10.86,21.3 12.43,21.3 L12.43,21.3 C11.9595453,21.62824 11.5385939,22.0222505 11.18,22.47 C10.9011247,22.7961734 10.7679194,23.2222851 10.8113684,23.6492191 C10.8548175,24.0761532 11.0711335,24.4666942 11.41,24.73 L11.47,24.8 C11.0268805,25.1835332 10.5441556,25.5187588 10.03,25.8 C9.20970456,26.2333451 8.51161318,26.8660979 8,27.64 C7.67955385,28.1526522 7.58204499,28.7738197 7.73,29.36 C7.96457078,29.9194112 8.42653027,30.3522709 9,30.55 C9.62,30.85 9.87,30.98 9.75,31.94 C9.75,32.24 9.67,32.52 9.63,32.8 C9.1306454,35.2537871 9.39590704,37.8016951 10.39,40.1 C10.5176278,40.4252433 10.8057516,40.6602917 11.15,40.72 L11.32,40.72 C11.6056593,40.7221747 11.878611,40.602076 12.07,40.39 C12.72,39.66 14.31,39.22 15.6,38.86 C16.2491876,38.6981827 16.8871939,38.4944215 17.51,38.25 C17.65,38.9 17.89,39.62 18.71,39.67 C20.8,39.77 22.64,37.5 23.88,35.86 C23.9130185,36.3530199 24.2289998,36.7821303 24.69,36.96 C25.1208469,37.0709849 25.5778467,36.9365732 25.88,36.61 C26.0697934,36.4307514 26.2814688,36.2761947 26.51,36.15 L27.2,35.74 C27.45,36.87 27.83,38.14 28.26,39.54 C28.383406,39.928984 28.7307949,40.2039557 29.1377216,40.2347501 C29.5446483,40.2655446 29.9294614,40.0459828 30.11,39.68 C30.2209576,39.4461127 30.3514188,39.2219871 30.5,39.01 L30.59,39.42 C30.89,40.93 31.2,42.5 32.18,43.32 C32.4143999,43.5138424 32.7242821,43.5904636 33.0220079,43.5281942 C33.3197338,43.4659247 33.5729339,43.2715346 33.71,43 C33.7985663,42.8106576 33.8987576,42.6269736 34.01,42.45 C34.753863,44.3397083 36.3124115,45.7916579 38.25,46.4 C38.6998705,46.5797959 39.213917,46.4112561 39.47,46 C39.6384688,45.7256233 39.6645233,45.3869145 39.54,45.09 C40.265417,45.8041443 41.0948251,46.4042851 42,46.87 C42.7319803,47.3331969 43.5981978,47.537427 44.46,47.45 C44.9295359,47.4084053 45.402722,47.4455842 45.86,47.56 C45.9050675,47.6116864 45.955332,47.6585999 46.01,47.7 C46.0888882,47.847907 46.2020422,47.9747767 46.34,48.07 C46.5038098,48.1758223 46.6949873,48.2314376 46.89,48.2300272 C47.0605631,48.2300272 47.2285655,48.1884825 47.38,48.11 C47.7487312,47.9150852 47.9739096,47.5268466 47.96,47.11 C47.9752958,47.0172934 47.9752958,46.9227066 47.96,46.83 C47.9795255,46.4736006 47.9795255,46.1163994 47.96,45.76 C47.9215694,44.8869366 48.0505554,44.0145838 48.34,43.19 C48.5884048,42.2438579 48.6394636,41.2567215 48.49,40.29 C48.6209452,40.3196404 48.7483386,40.3632224 48.87,40.42 C49.1858594,40.5707399 49.5575403,40.5453804 49.8499981,40.3531354 C50.1424559,40.1608904 50.3131267,39.829739 50.3,39.48 C50.2205235,37.8313585 49.808966,36.2157399 49.09,34.73 C49.3496121,34.6265578 49.5846641,34.4698564 49.78,34.27 C50.0313664,34.0023378 50.1158231,33.6184439 50,33.27 C49,30.11 48.29,29.27 46.37,28.35 C46.5861289,28.2231045 46.7467288,28.0196779 46.82,27.78 C46.9619989,27.3199968 46.7560785,26.8241067 46.33,26.6 C45.39,26.08 44.69,25.6 44.13,25.29 C42.9767351,24.4040161 41.5822042,23.8880397 40.13,23.81 L40.42,23.45 C40.5797085,23.2447783 40.7607196,23.0570631 40.96,22.89 C41.3322705,22.6459774 41.5338278,22.211854 41.48,21.77 C41.4190509,21.4029475 41.1734531,21.0931164 40.83,20.95 C42.56,20.21 44.75,19.04 44.93,17.05 C44.99,16.3 44.41,15.94 43.83,15.72 C44.04,15.46 44.26,15.17 44.5,14.82 C44.5,14.82 46.98,10.98 46.57,9.82 C46.16,8.66 41.51,7.39 41.47,7.38 C40.3870662,7.20258388 39.2800236,7.23654224 38.21,7.48 L37.84,7.54 C37.8385832,7.08528173 37.5996781,6.66435373 37.21,6.43 C35.91,5.54 32.41,5.26 29.82,8.34 C29.450716,7.8761498 28.8824176,7.61614401 28.29,7.64 C27.8628191,7.70440699 27.4916468,7.96793931 27.29,8.35 L26.95,8.87 L26.43,9.68 C25.9638591,7.19655391 24.6095186,4.96775729 22.62,3.41 C22.4,3.21 22.19,3.03 22.01,2.85 C21.7598433,2.59871119 21.3953232,2.49868133 21.0519468,2.58709561 C20.7085704,2.6755099 20.4376888,2.93914616 20.34,3.28 C18.92,1.54 18,1 14.59,0.61 C14.2299223,0.57318354 13.8780566,0.733817842 13.67,1.03 C13.509192,1.27534229 13.4002915,1.55099687 13.35,1.84 C11.7165776,1.42683778 10.0184157,1.33513704 8.35,1.57 C8.00575163,1.62970833 7.71762777,1.86475674 7.59,2.19 C7.44978922,2.52238114 7.4994667,2.90451559 7.72,3.19 C7.81047553,3.31490278 7.88756607,3.4489733 7.95,3.59 C6.92747599,3.61503718 5.92194096,3.85704731 5,4.3 C4.22866207,4.76745368 3.3720372,5.07679044 2.48,5.21 C2.18,5.21 1.85,5.32 1.41,5.43 C1.31691161,5.42043726 1.22308839,5.42043726 1.13,5.43 C0.735112463,5.51491084 0.419554232,5.81122772 0.31,6.2 C0.193728189,6.55991885 0.290473464,6.95463957 0.56,7.22 Z M39.26,19.5 C38.12,19.96 37.5,20.21 37.47,21 C37.4696874,21.4297298 37.7196491,21.8202949 38.11,22 L38.79,22.32 C38.3510093,22.969302 37.8029148,23.5376963 37.17,24 L36.17,24.09 C35.8488633,24.1346363 35.569298,24.3321958 35.42,24.62 C34.8995057,24.6910641 34.3752483,24.7311348 33.85,24.74 C32.1731973,24.8955573 30.515827,24.2855274 29.34,23.08 C29.25,22.81 29,22.08 28.66,20.91 C28.716893,20.6790517 28.7973135,20.4545447 28.9,20.24 C30.71,16.34 32.46,15.3 34.24,14.5 C34.4827867,14.3927185 34.6729607,14.1933133 34.7686226,13.9457178 C34.8642845,13.6981224 34.8575849,13.4226524 34.75,13.18 C34.6409246,12.9364559 34.4390322,12.7466101 34.189246,12.6527055 C33.9394599,12.558801 33.6625025,12.568628 33.42,12.68 C31.37,13.6 29.18,14.88 27.08,19.4 C26.98,19.62 26.9,19.83 26.83,20.03 C26.7880949,19.9201997 26.7271626,19.8186458 26.65,19.73 C24.14,16.8 27.35,11.87 28.56,10.01 L28.56,10.01 C28.9218467,10.4280545 29.4470975,10.6687944 30,10.67 C30.4034434,10.6286351 30.7687001,10.4131336 31,10.08 C31.9414499,8.52745056 33.7252962,7.69472583 35.52,7.97 C35.4421405,8.32491228 35.5106353,8.69622618 35.71,9 C36.24,9.82 37.3,9.65 38.52,9.45 C39.3343291,9.2708952 40.1738941,9.23704177 41,9.35 C42.2169813,9.66043057 43.3996128,10.0926104 44.53,10.64 C44.06,11.88 42.6,14.49 41.94,14.89 C41.6676841,14.9433169 41.4271329,15.1012908 41.27,15.33 C41.0819157,15.6280679 41.034377,15.9937502 41.14,16.33 C41.37,16.99 42.05,17.24 42.73,17.47 C42,18.37 40.21,19.11 39.26,19.5 Z M28.94,34.31 C29.8649778,33.1306478 30.4339505,31.7116853 30.58,30.22 C30.6977476,29.1766449 30.6977476,28.1233551 30.58,27.08 C36.26,29.14 38.14,33.47 39.41,36.4 C39.6752128,37.0525814 39.9825261,37.6872503 40.33,38.3 C40.5106915,38.5968156 40.8325136,38.7785504 41.18,38.78 C41.3682037,38.7776075 41.5519113,38.7221485 41.71,38.62 C42.1741814,38.328263 42.3169171,37.717176 42.03,37.25 C41.7323851,36.7185814 41.471767,36.1672739 41.25,35.6 C40.25,33.25 38.51,29.33 34.32,26.7 C35.5123397,26.6975277 36.6897608,26.434741 37.77,25.93 C40.77,25.69 41.29,25.99 42.98,27.05 L43.37,27.29 L43.16,27.4 C42.8314361,27.5820791 42.632627,27.9329323 42.6452819,28.3083613 C42.6579368,28.6837903 42.8799208,29.0204594 43.22,29.18 L44.41,29.74 C46.57,30.74 46.99,30.93 47.75,33.12 C47.3941161,33.2673816 47.0581533,33.4588805 46.75,33.69 C46.4829029,33.9079018 46.3468619,34.2480042 46.39,34.59 C46.4314648,34.9284748 46.6425512,35.2224881 46.95,35.37 C47.36,35.57 47.85,36.92 48.09,38.3 C47.5698762,38.2905024 47.0551947,38.4071635 46.59,38.64 C46.3119047,38.7872132 46.1193171,39.0567323 46.0701414,39.3675224 C46.0209658,39.6783125 46.120938,39.9941227 46.34,40.22 C46.5602132,41.0286085 46.5602132,41.8813915 46.34,42.69 C46.031973,43.6053181 45.8732768,44.5642479 45.87,45.53 C45.3396473,45.4280327 44.7972014,45.4044481 44.26,45.46 C43.7640798,45.5083349 43.2672856,45.3770393 42.86,45.09 C41.8,44.55 40.52,43.48 40.4,42.87 C40.3156204,42.3937766 39.930086,42.0285334 39.45,41.97 C38.54,41.88 38.1,42.87 37.9,43.29 C37.83,43.47 37.74,43.68 37.67,43.9 C36.7064774,43.3085564 35.9945066,42.3829944 35.67,41.3 C35.54,40.98 35.42,40.67 35.28,40.4 C35.1410563,40.1300579 34.8870029,39.9378552 34.5894474,39.8775662 C34.2918918,39.8172772 33.9830603,39.8954313 33.75,40.09 C33.4230101,40.2365736 33.1223356,40.4358971 32.86,40.68 C32.71,40.15 32.59,39.55 32.49,39.04 C32.3795189,38.019676 32.037491,37.0380558 31.49,36.17 C31.261807,35.9003676 30.9082922,35.7711256 30.56,35.83 C30.2073244,35.8902267 29.9136957,36.1342818 29.79,36.47 C29.723714,36.6721316 29.6294667,36.8639923 29.51,37.04 C29.2620597,36.1430664 29.071672,35.2312094 28.94,34.31 Z M13.48,25.31 C13.6810199,24.6552501 13.4952456,23.9431154 13,23.47 C14.09,22.32 16.1,21.65 19.44,21.3 C19.8714642,21.2784107 20.2559227,21.0208235 20.44,20.63 C20.6203083,20.1561032 20.5241335,19.6213713 20.19,19.24 C21.3634282,19.064969 22.5605465,19.3207331 23.56,19.96 C23.6685185,20.104611 23.8185063,20.2127418 23.99,20.27 C24.6159695,20.7688659 25.1275029,21.3963469 25.49,22.11 L24.28,22.42 C19,24 15.57,29.09 14.94,30.09 C14.7488629,30.3918894 14.733301,30.7728172 14.8991764,31.0892915 C15.0650518,31.4057658 15.387164,31.6097066 15.7441764,31.6242915 C16.1011889,31.6388763 16.4388629,31.4618894 16.63,31.16 C16.98,30.61 20.17,25.74 24.86,24.34 C25.5348777,24.1458238 26.2190707,23.9856225 26.91,23.86 C27.1106483,23.840973 27.3015809,23.7646 27.46,23.64 C27.5104308,23.8414441 27.5986607,24.0314777 27.72,24.2 C27.9000445,24.4218567 28.093754,24.6322653 28.3,24.83 C28.2701007,24.97851 28.2701007,25.13149 28.3,25.28 C28.6549231,26.7861537 28.7496218,28.3419175 28.58,29.88 C28.13,32.49 27.64,33.21 25.52,34.4 C25.46,34.19 25.39,33.95 25.3,33.68 C25.1839245,33.2801468 24.8502017,32.9813485 24.44,32.91 C23.68,32.78 23.24,33.35 22.39,34.47 C21.597877,35.6776576 20.5790691,36.7202376 19.39,37.54 C19.3760133,36.8490661 19.0438894,36.2032696 18.49,35.79 C18.1741117,35.6374877 17.8058883,35.6374877 17.49,35.79 C17.2537017,35.8880693 17.0689118,36.0801059 16.98,36.32 C16.3433237,36.6096125 15.6802718,36.8373273 15,37 C13.8773344,37.2660737 12.7874192,37.6550896 11.75,38.16 C11.2662567,36.5362827 11.1974921,34.8171673 11.55,33.16 C11.55,32.87 11.64,32.57 11.67,32.27 C11.9907419,30.817953 11.1993649,29.3500764 9.81,28.82 L9.66,28.75 C9.67234462,28.7083332 9.68910645,28.6681048 9.71,28.63 C10.1181216,28.2347931 10.579201,27.8982389 11.08,27.63 C12.13,26.92 13.17,26.28 13.48,25.32 L13.48,25.31 Z M3.14,7.13 C4.11662118,6.93010948 5.05508757,6.57565275 5.92,6.08 C6.69269769,5.69007089 7.55676785,5.51725686 8.42,5.58 C8.6884504,5.75409947 9.02400185,5.78922744 9.32268875,5.67450002 C9.62137565,5.5597726 9.84712807,5.30904447 9.93,5 C10.069629,4.47919635 10.069629,3.93080365 9.93,3.41 C11.4,3.41 12.87,3.59 13.16,3.97 C13.3673587,4.24190876 13.6992796,4.38901006 14.04,4.36 C14.3832134,4.33448884 14.6891915,4.13428097 14.85,3.83 C15.0265364,3.4667083 15.1478726,3.07910668 15.21,2.68 C17.6,3 17.88,3.38 19.34,5.36 L20.14,6.45 C20.3654674,6.74775426 20.7380721,6.89504742 21.10619,6.8319415 C21.4743079,6.76883557 21.7765789,6.50584943 21.89,6.15 C21.89,6.15 21.96,5.93 22.03,5.65 C23.8901925,7.43973304 24.8326928,9.98006602 24.59,12.55 C24.5930255,12.6763227 24.6166703,12.8013024 24.66,12.92 C24.1055157,14.157316 23.7834852,15.4861153 23.71,16.84 C21.2855403,13.5037406 17.8966409,10.9908594 14,9.64 C13.4808523,9.44670036 12.9032997,9.71085236 12.71,10.23 C12.5167004,10.7491477 12.7808524,11.3267003 13.3,11.52 C16.4867704,12.6014518 19.297446,14.5723946 21.4,17.2 C20.647398,17.139983 19.890065,17.207602 19.16,17.4 C18.6078396,17.5051018 18.145589,17.8809153 17.93,18.4 C17.79359,18.7436239 17.79359,19.1263761 17.93,19.47 C17.1592818,19.5752101 16.3948286,19.722092 15.64,19.91 C15.5711714,19.8337088 15.4900488,19.7694867 15.4,19.72 C14.4247514,19.3514498 13.3772137,19.2145168 12.34,19.32 C11.79,19.32 11.14,19.32 10.58,19.32 C10.7723763,19.0123239 10.91102,18.6741686 10.99,18.32 L10.99,18.32 C11.1217369,18.0817315 11.1506273,17.8000495 11.07,17.54 C10.9714436,17.2159084 10.715516,16.9637445 10.39,16.87 C10.0609737,16.780864 9.72708778,16.7107479 9.39,16.66 C8.2173844,16.5558808 7.12600208,16.0173228 6.33,15.15 C6.5299367,15.0337107 6.72354375,14.9068647 6.91,14.77 C7.3,14.5 8.2,13.85 7.91,12.98 C7.81327299,12.5366211 7.44968815,12.2010043 7,12.14 C6.35,12.14 5,11.06 4.25,10.14 C3.87244558,9.7898843 3.6374232,9.31271764 3.59,8.8 C3.51902246,8.22499173 3.36753932,7.66282096 3.14,7.13 Z"/>
        <path id="Path" fill="#3D454C" d="M9.13,8.43 C9.68228475,8.43 10.13,8.87771525 10.13,9.43 C10.13,9.98228475 9.68228475,10.43 9.13,10.43 C8.57771525,10.43 8.13,9.98228475 8.13,9.43 C8.13,8.87771525 8.57771525,8.43 9.13,8.43 Z"/>
      </g>
    </g>
  </g>
</svg>
