<svg xmlns="http://www.w3.org/2000/svg" width="64" height="64" viewBox="0 0 64 64" style="background:#fff">
  <g id="Zitronensaft" fill="none" fill-rule="evenodd" stroke="none" stroke-width="1">
    <rect width="64" height="64" fill="#FFF"/>
    <g transform="translate(2 4)">
      <g id="Layer_2">
        <rect id="Rectangle" width="60" height="60" x="0" y="0"/>
      </g>
      <g id="Layer_1" fill-rule="nonzero" transform="translate(1 6)">
        <path id="Shape" fill="#EBE53F" d="M50,24.75 C47.6918186,20.5330055 42.9369806,18.2745582 38.21,19.15 C32.44,20.05 27.39,22.65 21.48,23.15 C19.34,19.82 15.71,17.57 12.31,18.77 C7.39,18.77 2.59,27.77 1.93,31.44 C0.93,36.97 2.58,45.44 8.5,46.51 C12.5,50.73 19.7,52.56 25.08,52.44 C26.6941091,52.3978046 28.3008988,52.2069983 29.88,51.87 C33.2660381,52.1123014 36.6663019,51.6736673 39.88,50.58 C50,47 55.61,34.25 50,24.75 Z M9.2,27.91 L9.48,27.63 C9.722517,27.9723079 10.0934289,28.2016948 10.5080177,28.2657676 C10.9226065,28.3298404 11.3454613,28.2231266 11.68,27.97 C14.82,26.1 19.48,26.85 17.76,31.59 C16.61,34.76 12.91,39.59 9.04,38.71 C4,37.54 6.88,30.45 9.2,27.91 Z" opacity=".5"/>
        <path id="Shape" fill="#3D454C" d="M6.2,38.8 L6.2,38.8 C6.14822708,39.1742401 6.18944128,39.5554714 6.32,39.91 C6.85069687,41.0327233 7.93371674,41.7927373 9.17,41.91 L9.17,41.91 C9.48321497,41.9692227 9.80123593,41.999351 10.12,42 C10.9668301,42.0257903 11.7932429,41.7372583 12.44,41.19 C12.6334876,41.0102155 12.8016883,40.8050107 12.94,40.58 L13.07,40.65 C13.2357393,40.6977841 13.4075152,40.7213612 13.58,40.72 C14.58,40.72 15.66,39.96 16.95,38.41 C17.73,37.47 18.95,35.67 18.45,34.16 C18.45,34.16 18.45,34.16 18.45,34.16 C18.5462261,34.0946574 18.6365685,34.0210451 18.72,33.94 C19.86,32.86 19.91,30.88 19.72,29.4 C19.52,27.63 18.89,26.53 17.89,26.22 L17.89,26.22 C17.9417672,25.8490544 17.9005312,25.4710585 17.77,25.12 C17.2441243,23.9932241 16.1584548,23.2313507 14.92,23.12 L14.92,23.12 C13.7789521,22.8318777 12.5688212,23.0946278 11.65,23.83 C11.4588164,24.0119368 11.2908744,24.2168261 11.15,24.44 L11,24.33 C9.9,24.02 8.64,24.75 7.12,26.57 C6.34,27.51 5.12,29.31 5.62,30.83 C5.62,30.83 5.62,30.83 5.62,30.83 C5.52923716,30.8983506 5.44243064,30.9718023 5.36,31.05 C4.21,32.13 4.16,34.11 4.36,35.59 C4.57,37.39 5.2,38.49 6.2,38.8 Z M6.78,32.53 C6.84,32.48 6.99,32.33 7.47,32.41 L9.23,32.7 L10.23,32.93 L9.55,33.78 L7.47,36.24 C7.2774901,36.4849252 7.04404548,36.694687 6.78,36.86 C6.52970826,36.4120569 6.38599088,35.912468 6.36,35.4 C6.14278696,34.4242177 6.29228867,33.4026227 6.78,32.53 L6.78,32.53 Z M16.68,28.7 C16.8678997,28.4535041 17.1023252,28.2462584 17.37,28.09 C17.6225678,28.5333731 17.7664985,29.0302766 17.79,29.54 C18.014007,30.5155204 17.8641453,31.5395751 17.37,32.41 C17.31,32.47 17.16,32.62 16.68,32.53 L14.92,32.24 L13.92,32.01 L14.61,31.15 L16.68,28.7 Z M11.14,39.7 C10.6850112,40.0072324 10.1165982,40.0952447 9.59,39.94 C8.77,39.78 8.32,39.49 8.24,39.26 C8.16,39.03 8.24,38.62 8.83,37.94 L11.12,35.1 L11.19,35.02 L11.19,35.13 L11.47,38.26 C11.5657292,38.7523946 11.4455619,39.2621955 11.14,39.66 L11.14,39.7 Z M15.45,37.13 C14.9936048,37.763272 14.4071842,38.2917325 13.73,38.68 C13.6633149,38.4995353 13.6196375,38.3113864 13.6,38.12 L13.19,34.91 L13.11,34 L14.54,34.24 L16.22,34.62 C16.42,34.62 16.58,34.74 16.6,34.8 C16.7,35 16.4,36 15.45,37.09 L15.45,37.13 Z M13,25.28 C13.2840701,25.0584295 13.6408752,24.951388 14,24.98 C14.1915115,24.9811946 14.3824373,25.0012921 14.57,25.04 C15.39,25.2 15.84,25.5 15.92,25.72 C16,25.94 15.92,26.37 15.33,27.04 L13,29.87 L13,30 L13,29.89 L12.72,26.76 C12.5925106,26.2494551 12.6948179,25.7086882 13,25.28 L13,25.28 Z M8.7,27.85 L8.7,27.85 C9.15639517,27.216728 9.74281583,26.6882675 10.42,26.3 C10.4900755,26.4794321 10.533861,26.6680469 10.55,26.86 L11,30.07 L11.09,30.98 L9.64,30.74 L7.97,30.37 C7.77,30.37 7.61,30.24 7.59,30.18 C7.46,29.9 7.75,29 8.7,27.85 Z"/>
        <path id="Shape" fill="#3D454C" d="M31.09,44.54 C31.7964881,43.3288293 31.7964881,41.8311707 31.09,40.62 C30.09,38.67 30.09,38.23 30.33,37.18 C30.4412382,36.6219142 30.5180498,36.0575156 30.56,35.49 C31.17,26.59 23.68,20.26 16.31,18.83 L16.19,18.83 C12.9766311,18.3457442 9.7112537,19.2797516 7.24,21.39 C4.34033395,23.7188796 2.23084144,26.8866109 1.2,30.46 C1.03,31.04 0.88,31.64 0.76,32.25 C0.127814167,35.1783502 0.399815206,38.2296439 1.54,41 C2.19910912,42.5242664 3.2307006,43.858458 4.54,44.88 L4.61,44.97 C7.89999456,47.5970369 11.9898907,49.0191492 16.2,49 C18.2024556,49.0164921 20.1902116,48.6569321 22.06,47.94 C22.983301,47.5843222 23.8678854,47.1353286 24.7,46.6 C25.55,46.07 25.85,45.89 28.24,46.02 C29.3918874,46.0978266 30.4910835,45.527016 31.09,44.54 Z M3.37,40.17 C2.39727025,37.7833821 2.17064419,35.1580064 2.72,32.64 C2.82519508,32.0868516 2.95870394,31.5394653 3.12,31 C4.05796563,27.8456739 5.93886882,25.0539808 8.51,23 C10.2025112,21.5941396 12.3114346,20.7857189 14.51,20.6999037 C14.9731681,20.6975709 15.4354338,20.7411176 15.89,20.83 C16.1544996,20.8776925 16.4151856,20.9445351 16.67,21.03 C18.6335674,21.6805438 20.2151138,23.1561668 21,25.07 C21.9733471,27.456469 22.1999895,30.0820345 21.65,32.6 C21.54,33.14 21.41,33.68 21.25,34.2 C20.3234052,37.3816292 18.4376168,40.1998353 15.85,42.27 C13.8158182,44.0337068 11.113554,44.8224758 8.45,44.43 C8.18,44.43 7.92,44.31 7.67,44.24 C5.71239671,43.5742004 4.14229997,42.0880856 3.37,40.17 Z M23.64,44.86 C22.9093679,45.3213512 22.1316414,45.7035099 21.32,46 C18.2482183,47.1171972 14.9015069,47.2327218 11.76,46.33 C13.6976331,45.910755 15.5117531,45.0481922 17.06,43.81 C19.9675715,41.4785756 22.092601,38.3137123 23.15,34.74 C23.32,34.15 23.47,33.55 23.59,32.94 C24.2178578,30.0213396 23.9458913,26.9808938 22.81,24.22 C22.7,23.97 22.57,23.73 22.45,23.5 C26.22,26.1 28.97,30.22 28.62,35.31 C28.5791274,35.8004133 28.5090025,36.2879479 28.41,36.77 C28.15,38.17 28.07,39.08 29.41,41.52 C29.7451191,42.1125679 29.7451191,42.8374321 29.41,43.43 C29.1848699,43.7905113 28.7721902,43.9890647 28.35,43.94 C25.45,43.82 24.81,44.14 23.64,44.86 Z"/>
        <path id="Shape" fill="#3D454C" d="M56.71,11.43 C55.29,6.21 50.29,4.29 45.42,5.43 C43.69,3.28 37.75,3.86 35.68,3.63 C31.87,3.2 29.1,0.05 24.8,0.29 C22.7658917,0.380375553 20.8052611,1.07686955 19.17,2.29 C18.8297016,2.61239774 18.7590263,3.12791172 19,3.53 C20.1866667,5.39 21.38,7.25 22.58,9.11 C22.64,10.36 23.05,11.6 23.11,12.87 C23.2412388,14.5992351 23.0548335,16.3378876 22.56,18 C22.14,19.21 24.07,19.74 24.49,18.53 C24.9774042,16.9099884 25.1936527,15.2205469 25.13,13.53 C25.0335414,12.2749496 24.8666114,11.0263134 24.63,9.79 L28.28,9.79 C28.8322847,9.79 29.28,9.34228475 29.28,8.79 C29.28,8.23771525 28.8322847,7.79 28.28,7.79 L24.11,7.79 C23.17,6.32 22.25,4.84 21.28,3.39 C21.6443983,3.17027859 22.0255839,2.97968578 22.42,2.82 C24.6345154,2.07356315 27.0474284,2.17692279 29.19,3.11 C29.6172923,3.26816686 30.034709,3.45183024 30.44,3.66 L26.79,3.66 C26.2377153,3.66 25.79,4.10771525 25.79,4.66 C25.79,5.21228475 26.2377153,5.66 26.79,5.66 L35.66,5.66 C35.72,5.66 35.76,5.66 35.81,5.66 L36.11,5.66 C36.85,5.66 44.52,4.89 43.59,7.82 L39.59,7.82 C39.0377153,7.82 38.59,8.26771525 38.59,8.82 C38.59,9.37228475 39.0377153,9.82 39.59,9.82 C40.73,9.82 41.98,9.7 43.15,9.82 C43.04,10.42 42.94,11.01 42.87,11.61 C42.728153,12.8113684 42.7013647,14.0235381 42.79,15.23 C43.2,20.53 46.9,23.91 48.31,28.83 C50.31,35.94 47.81,43.95 40.91,47.33 C38.22,48.65 31.21,49.26 28.55,48.04 C27.39,47.51 26.37,49.23 27.55,49.77 C30.48,51.11 36.48,50.77 39.55,50.01 C43.64,49.01 47.35,45.49 49.25,41.85 C50.5868441,39.146721 51.1903054,36.1397597 51,33.13 C54.45,27.11 58.63,18.47 56.71,11.43 Z M54.71,18.28 C53.8741189,22.2582489 52.4909632,26.1014698 50.6,29.7 C50.446108,28.9450214 50.2457264,28.2002698 50,27.47 C52.11,23.14 55.11,16.47 52.81,11.82 C51.4947607,9.05352465 48.3416772,7.67965065 45.42,8.6 C45.6000561,8.21455005 45.7310778,7.80804686 45.81,7.39 C52.72,5.76 56,11.9 54.74,18.28 L54.71,18.28 Z M45.24,11 C46.2498909,10.5382245 47.3669622,10.3618448 48.47,10.49 C49.2818688,10.7808323 49.9605665,11.3564817 50.38,12.11 C51.83,14.03 51.67,16.02 51.19,18.33 C50.6935703,20.6233419 49.9596101,22.8587368 49,25 C48.22,23.5 47.27,22.11 46.45,20.57 C44.66,17.23 45.05,14.27 45.24,11 Z"/>
        <path id="Path" fill="#3D454C" d="M42.34 41.62C45.1097466 38.1887129 45.7954171 33.5230886 44.13 29.44 43.67 28.25 41.74 28.77 42.2 29.98 43.47 33.33 43.35 37.41 40.93 40.21 40.09 41.18 41.5 42.6 42.34 41.62zM41.94 25.19C41.4438215 24.9485295 40.8458257 25.1546141 40.6037599 25.6505025 40.3616942 26.1463908 40.5670611 26.7446335 41.0626586 26.9872942 41.5582561 27.2299548 42.1567448 27.025306 42.4 26.53 42.5171894 26.2913838 42.5345442 26.0159259 42.4482298 25.7644883 42.3619154 25.5130506 42.1790365 25.3063297 41.94 25.19z"/>
      </g>
    </g>
  </g>
</svg>
