<svg xmlns="http://www.w3.org/2000/svg" width="64" height="64" viewBox="0 0 64 64" style="background:#fff">
  <g id="Zucchini" fill="none" fill-rule="evenodd" stroke="none" stroke-width="1">
    <rect width="64" height="64" fill="#FFF"/>
    <g transform="translate(2 4)">
      <g id="Layer_2">
        <rect id="Rectangle" width="60" height="60" x="0" y="0"/>
      </g>
      <g id="Layer_1" fill-rule="nonzero" transform="translate(5 6)">
        <path id="Path" fill="#31E085" d="M44.06,30.08 C42.6354847,28.8846196 40.5440399,28.9360486 39.18,30.2 L38.52,30.7 C36.92,31.89 36.4,34.12 36.52,36.31 C36.2601741,36.3234573 35.9998259,36.3234573 35.74,36.31 C33.4471282,35.9987068 31.2625419,35.1413338 29.37,33.81 C25.26,31.1 21.56,27.3 18.07,23.81 C14.21,20 10.41,15.67 8.48,10.51 C7.74,8.51 7.74,0.16 4.37,0.28 L4.18,0.28 C2.53,0.34 1.82,2.17 1.53,3.51 C-0.22,11.51 3.47,20.33 7.76,26.98 C12.05,33.63 17.93,41.05 24.28,46 C29.48,50 37.69,53.73 43.77,49.25 C49.33,45.09 50.21,34.14 44.06,30.08 Z" opacity=".5"/>
        <path id="Path" fill="#3D454C" d="M41.87 37.23C40.45 34.38 36.64 31.77 30.54 29.47 24.09 27 18.35 21.64 18.26 21.56 17.2805957 20.6720429 16.4171131 19.6640866 15.69 18.56 14.97 17.56 14.16 16.45 12.92 15.02 12.5535351 14.6229982 11.9379951 14.5888685 11.5298867 14.9429228 11.1217783 15.2969772 11.0686926 15.9111728 11.41 16.33 12.59 17.69 13.41 18.77 14.06 19.73 14.8778206 20.9314667 15.8381462 22.0294614 16.92 23 17.17 23.23 23 28.71 29.83 31.3 35.36 33.39 38.91 35.74 40.08 38.08 40.2482534 38.423391 40.5976049 38.6407653 40.98 38.640002 41.3265932 38.6389511 41.6479286 38.4585078 41.8292369 38.1631178 42.0105453 37.8677279 42.0259692 37.4995182 41.87 37.19L41.87 37.23zM36.43 41.23C30.3 41.23 13.87 30.52 8.55 17.59 8.3401318 17.0791366 7.75586339 16.8351318 7.245 17.045 6.73413661 17.2548682 6.4901318 17.8391366 6.7 18.35 12.15 31.6 29.09 43.23 36.43 43.23 36.9822847 43.23 37.43 42.7822847 37.43 42.23 37.43 41.6777153 36.9822847 41.23 36.43 41.23z"/>
        <path id="Shape" fill="#3D454C" d="M49.5601491,38.81 C49.5601491,31.81 44.66,28.75 36.75,26.12 C30.2,23.93 24.26,18.78 24.17,18.7 C22.7061083,17.3611846 21.3672408,15.8917775 20.17,14.31 C17.51,11.05 14.56,7.44 11.28,6.12 C10.9001403,4.84871236 9.94449716,3.83010053 8.7,3.37 C7.2,2.87 7.11,2.05 7.11,2.05 C7.11050114,1.71737392 6.94557882,1.40627044 6.67,1.22 C6.39319492,1.03132469 6.04030424,0.993783133 5.73,1.12 L1.94,2.64 C1.45365153,2.83930665 1.20460139,3.38109994 1.37,3.88 C1.60949846,4.51770811 1.6918215,5.2037335 1.61,5.88 C0.93,6.55 0.37,7.88 1.29,10.41 C0.813487007,11.4733873 0.564822348,12.6247387 0.56,13.79 C0.56,17.98 5.89,29.79 12.98,36.86 C17.54,41.42 28.7,50.04 38.32,50.04 C40.3924243,50.0394037 42.4241911,49.4648325 44.19,48.38 C44.5155474,48.4712973 44.8518969,48.5183862 45.19,48.52 C47.2035592,48.5145059 48.8345059,46.8835592 48.84,44.87 C48.840799,44.3893465 48.7456043,43.9133728 48.56,43.47 C49.2271224,42.007498 49.5683345,40.4174499 49.5601491,38.81 Z M14.39,35.45 C7.39,28.45 2.55999167,17.25 2.55999167,13.8 C2.55831366,12.7737075 2.81265811,11.7632038 3.3,10.86 L3.3,10.86 C3.61558824,10.2689047 4.02796082,9.73484839 4.52,9.28 C4.70931265,9.0922334 4.81579832,8.83663754 4.81579832,8.57 C4.81579832,8.30336246 4.70931265,8.0477666 4.52,7.86 C4.12996255,7.47227641 3.50003745,7.47227641 3.11,7.86 C2.99,7.97 2.88,8.1 2.76,8.22 C2.71111574,7.89343223 2.79781833,7.56107231 3,7.3 C3.79,6.52 3.69,5.14 3.49,4.16 L5.49,3.37 C6.08424695,4.2932369 6.99422509,4.9686113 8.05,5.27 C8.26864641,5.34484451 8.46949976,5.46399481 8.64,5.62 C8.13106506,5.67631511 7.74689377,6.10796825 7.75,6.62 C7.75,7.17228475 8.19771525,7.62 8.75,7.62 C12.11,7.62 15.75,12.04 18.62,15.62 C19.8891372,17.3047991 21.3119056,18.8681705 22.87,20.29 C23.13,20.51 29.17,25.75 36.1,28.06 C43.35,30.48 47.5500099,33.06 47.5500099,38.86 C47.5515157,39.8816991 47.379051,40.8961973 47.04,41.86 C46.4722543,41.498832 45.8128844,41.3079617 45.14,41.31 C43.7314181,41.2925652 42.440644,42.093853 41.8313392,43.3639532 C41.2220343,44.6340535 41.4048682,46.1422749 42.3,47.23 C41.0507771,47.8254388 39.68387,48.1329929 38.3,48.1300216 C29,48.05 17.9,39 14.39,35.45 Z M45.15,46.53 C44.2387302,46.53 43.5,45.7912698 43.5,44.88 C43.5,43.9687302 44.2387302,43.23 45.15,43.23 C46.0612698,43.23 46.8,43.9687302 46.8,44.88 C46.8,45.7912698 46.0612698,46.53 45.15,46.53 Z"/>
        <path id="Path" fill="#3D454C" d="M9.29,13.66 C9.84228475,13.66 10.29,13.2122847 10.29,12.66 C10.29,12.1077153 9.84228475,11.66 9.29,11.66 C8.73771525,11.66 8.29,12.1077153 8.29,12.66 C8.29,13.2122847 8.73771525,13.66 9.29,13.66 Z"/>
      </g>
    </g>
  </g>
</svg>
