<svg xmlns="http://www.w3.org/2000/svg" width="64" height="64" viewBox="0 0 64 64" style="background:#fff">
  <g id="Zuckerhut" fill="none" fill-rule="evenodd" stroke="none" stroke-width="1">
    <rect width="64" height="64" fill="#FFF"/>
    <g transform="translate(2 4)">
      <g id="Layer_2">
        <rect id="Rectangle" width="60" height="60" x="0" y="0"/>
      </g>
      <g id="Layer_1" fill-rule="nonzero" transform="translate(12 4)">
        <g id="Group" fill="#31E085" opacity=".5">
          <path id="Path" d="M36.14,20 C34,12.6 28.23,3.45 20,2.21 C19.7376656,2.16238418 19.467207,2.19012352 19.22,2.29 L19.16,2.22 C12.3,-5.72 2.46,19.44 1.59,23.22 C0.16,29.49 -2,48.69 8.35,48.88 C12.61,48.96 12.63,42.07 11.63,39.48 C11.09,38.1 9.96,36.79 9.63,35.41 C9.19,33.71 9.63,31.41 9.87,29.71 C10.1948973,27.5562101 10.7411219,25.4416839 11.5,23.4 C11.67,29.64 13.65,35.56 17.65,37.2 C18.87,37.71 19.98,36.79 20.56,35.75 L20.64,35.56 C20.9065894,34.911563 21.1206123,34.2427416 21.28,33.56 C21.81,31.28 21.56,28.64 21.74,26.3 C21.99,22.99 23.07,19.66 23.46,16.3 C25.32,19.04 27.08,21.91 27.46,25.23 C27.84,28.55 26.46,30.6 25.04,33.49 C23.22,37.36 23.23,41.92 26.3,45 C27.77,46.45 29.66,46 31.1,44.88 C38,39.65 38.36,27.44 36.14,20 Z"/>
          <path id="Path" d="M20.85,35.11 C20.7722938,35.331427 20.6752528,35.5455863 20.56,35.75 C19.89,37.46 20.47,36.28 20.85,35.11 Z"/>
        </g>
        <path id="Shape" fill="#3D454C" d="M30.27,11.29 C29.2797329,8.88864831 27.8291453,6.70427396 26,4.86 C25.7124393,4.57625544 25.2823971,4.49340327 24.91,4.65 C24.5404951,4.8064992 24.300327,5.1687198 24.3,5.57 C24.2790691,6.23960737 24.2189663,6.90741582 24.12,7.57 C22.7709634,5.38995453 21.0831318,3.43882119 19.12,1.79 C18.7584778,1.50803614 18.2515222,1.50803614 17.89,1.79 C15.9353684,3.42823176 14.2484006,5.3614969 12.89,7.52 C12.8013896,6.88343038 12.7479751,6.2424559 12.73,5.6 C12.7303967,5.19019615 12.480721,4.8216273 12.1,4.67 C11.7188504,4.51638262 11.2825235,4.61158121 11,4.91 C10.86,5.06 7.53,8.57 6.47,9.91 C6.47,9.91 6.47,9.99 6.41,10.04 C6.35,10.09 6.36,10.04 6.35,10.12 C0.61,23.41 0.59,32.67 1.35,39.97 C2.02816957,46.5630561 7.59218536,51.5693733 14.22,51.550056 L22.22,51.550056 C28.6244873,51.5286661 34.0715793,46.8730319 35.09,40.55 C36.8029726,30.5320959 35.105765,20.2291305 30.27,11.29 Z M25.69,10.45 C25.84,9.51 25.95,8.68 26.04,7.98 C26.8808175,9.02007132 27.5864387,10.1625057 28.14,11.38 C27.74,11.72 27.14,12.23 26.5,12.91 C26.272891,12.0989791 25.9922759,11.3039031 25.66,10.53 C25.66,10.53 25.68,10.48 25.69,10.45 L25.69,10.45 Z M18.45,3.87 C19.95,5.25 23.77,9.21 24.87,14.65 C24.8743361,14.669765 24.8743361,14.690235 24.87,14.71 C24.43,15.25 23.96,15.86 23.5,16.52 C22.2498333,14.6802053 20.7486432,13.0241839 19.04,11.6 C18.6784778,11.3180361 18.1715222,11.3180361 17.81,11.6 C16.2442347,12.9102919 14.8528956,14.4158955 13.67,16.08 C13.17,15.34 12.67,14.65 12.15,14.08 C13.2427404,10.1496043 15.4271665,6.609447 18.45,3.87 L18.45,3.87 Z M11.25,10.46 C11.25,10.46 11.25,10.46 11.25,10.46 C11.01,11.02 10.78,11.6 10.58,12.21 C9.8,11.4 9.12,10.78 8.58,10.35 C9.21,9.61 10.08,8.65 10.83,7.85 C11,8.61 11.09,9.47 11.25,10.46 Z M33.09,40.21 C32.2415628,45.5725893 27.6292489,49.5284214 22.2,49.55 L14.2,49.55 C8.57780579,49.6013675 3.8372602,45.3716752 3.25,39.78 C2.724079,35.0753483 2.84858198,30.3206803 3.62,25.65 C4.89244362,28.771994 6.81901457,31.5851286 9.27,33.9 C9.44991206,34.0490812 9.67634784,34.1304565 9.91,34.13 C10.2058006,34.1329649 10.4877348,34.004813 10.68,33.78 C10.8512242,33.5771775 10.9347874,33.3146022 10.9122787,33.0501252 C10.88977,32.7856482 10.7630364,32.5409706 10.56,32.37 C8.29,30.47 6.02,26.76 4.47,22.45 C4.43601592,22.3550303 4.38520484,22.2669577 4.32,22.19 C5.14443156,18.7756058 6.23784655,15.4318291 7.59,12.19 C9.84,14.19 15.1,19.64 15.1,26.34 C15.1,26.8922847 15.5477153,27.34 16.1,27.34 C16.6522847,27.34 17.1,26.8922847 17.1,26.34 C17.0512951,23.4141088 16.2709076,20.5469583 14.83,18 C15.8646776,16.4484318 17.0798427,15.0251445 18.45,13.76 C19.9354344,15.1390546 21.2392501,16.7016172 22.33,18.41 C19.0259186,24.0295246 17.3372297,30.4520791 17.45,36.97 C17.45,37.5222847 17.8977153,37.97 18.45,37.97 C19.0022847,37.97 19.45,37.5222847 19.45,36.97 C19.45,23.26 26.45,15.62 29.04,13.31 C30.502919,16.2491503 31.6461337,19.3368356 32.45,22.52 C32.45,22.52 32.45,22.52 32.45,22.59 C31.45,25.72 29.82,30.15 27.13,32.42 C26.7354855,32.7684661 26.678645,33.3631052 27,33.78 C27.1922652,34.004813 27.4741994,34.1329649 27.77,34.13 C28.0036522,34.1304565 28.2300879,34.0490812 28.41,33.9 C30.63,32.04 32.16,29.06 33.25,26.28 C33.907445,30.904317 33.8534874,35.6020038 33.09,40.21 Z"/>
        <path id="Path" fill="#3D454C" d="M18.89,40.12 C18.3377153,40.12 17.89,40.5677153 17.89,41.12 C17.89,41.6722847 18.3377153,42.12 18.89,42.12 C19.4422847,42.12 19.89,41.6722847 19.89,41.12 C19.89,40.5677153 19.4422847,40.12 18.89,40.12 Z"/>
      </g>
    </g>
  </g>
</svg>
