<svg xmlns="http://www.w3.org/2000/svg" width="64" height="64" viewBox="0 0 64 64" style="background:#fff">
  <g id="Zucker-(Zuckerrohr)" fill="none" fill-rule="evenodd" stroke="none" stroke-width="1">
    <rect width="64" height="64" fill="#FFF"/>
    <g transform="translate(2 4)">
      <g id="Layer_2">
        <rect id="Rectangle" width="60" height="60" x="0" y="0"/>
      </g>
      <g id="Layer_1" fill-rule="nonzero" transform="translate(4 3)">
        <path id="Path" fill="#BAB41D" d="M18.29,2.26 C18.1811512,1.77956835 17.8388961,1.38559392 17.3784009,1.21064596 C16.9179057,1.03569799 16.4003923,1.10303552 16,1.39 C12.55,4.23 11.83,10.02 10,13.9 C7.74,18.56 3.48,22.75 2.19,27.71 C1.51,30 2,35.7 5.71,34.44 C10.78,32.72 13.86,23.87 15.71,19.3 C17.89,14 20.08,8 18.29,2.26 Z" opacity=".5"/>
        <g id="Group" fill="#CCC" opacity=".5" transform="translate(4 22)">
          <path id="Path" d="M45.28,17.8 C42.3188374,12.6618283 38.8263575,7.84877537 34.86,3.44 C31.14,-0.72 26.92,-0.45 22.02,2.09 C15.86,5.28 8.76,10.09 5.02,16.09 L4.9,16.16 C1.76,17.87 0.62,21.16 0.95,24.41 C1.19,26.82 2.69,31.27 6.21,31.03 C17.99,30.24 29.77,30.28 41.58,30.03 C47.73,29.92 47.23,21.21 45.28,17.8 Z"/>
        </g>
        <path id="Shape" fill="#3D454C" d="M49.76,50.94 L48.76,50.94 C48.45,45.4 45.47,35.37 30.56,24.27 C28.3030961,22.641501 25.2569039,22.641501 23,24.27 C8.08,35.37 5.09,45.4 4.79,50.94 L3.79,50.94 C3.23771525,50.94 2.79,51.3877153 2.79,51.94 C2.79,52.4922847 3.23771525,52.94 3.79,52.94 L49.79,52.94 C50.3422847,52.94 50.79,52.4922847 50.79,51.94 C50.79,51.3877153 50.3422847,50.94 49.79,50.94 L49.76,50.94 Z M24.18,25.88 C25.7216144,24.7607818 27.8083856,24.7607818 29.35,25.88 C34.44,29.66 46.08,39.54 46.73,50.94 L6.8,50.94 C7.45,39.54 19.09,29.66 24.18,25.88 Z"/>
        <circle id="Oval" cx="15.74" cy="46.28" r="1" fill="#3D454C"/>
        <circle id="Oval" cx="40.79" cy="45.35" r="1" fill="#3D454C"/>
        <path id="Path" fill="#3D454C" d="M37 20.79C37.5522847 20.79 38 20.3422847 38 19.79 38 19.2377153 37.5522847 18.79 37 18.79 36.4477153 18.79 36 19.2377153 36 19.79 36 20.3422847 36.4477153 20.79 37 20.79zM23.19 40.85C22.6377153 40.85 22.19 41.2977153 22.19 41.85 22.19 42.4022847 22.6377153 42.85 23.19 42.85 23.7422847 42.85 24.19 42.4022847 24.19 41.85 24.19 41.2977153 23.7422847 40.85 23.19 40.85zM34.12 39.78C33.5677153 39.78 33.12 40.2277153 33.12 40.78 33.12 41.3322847 33.5677153 41.78 34.12 41.78 34.6722847 41.78 35.12 41.3322847 35.12 40.78 35.12 40.2277153 34.6722847 39.78 34.12 39.78zM44.52 29.51C45.0722847 29.51 45.52 29.0622847 45.52 28.51 45.52 27.9577153 45.0722847 27.51 44.52 27.51 43.9677153 27.51 43.52 27.9577153 43.52 28.51 43.52 29.0622847 43.9677153 29.51 44.52 29.51z"/>
        <path id="Shape" fill="#3D454C" d="M6.65,31.67 C7.06930227,32.0498159 7.59768254,32.287762 8.16,32.35 C8.26978274,32.3597773 8.38021726,32.3597773 8.49,32.35 C9.34,32.16 9.84,31.35 10.72,29.8 C11.24,28.89 11.72,27.92 12.17,26.98 C12.930525,25.1264719 13.9951592,23.4129177 15.32,21.91 C15.3343868,21.8819744 15.3511128,21.8552128 15.37,21.83 C15.4345237,21.7617568 15.488456,21.6842291 15.53,21.6 C15.53,21.6 15.53,21.5 15.53,21.44 C15.5348254,21.3834361 15.5348254,21.3265639 15.53,21.27 C15.8576299,18.0378304 17.2670989,15.0109956 19.53,12.68 C19.8117819,12.4047704 19.9057456,11.9897641 19.77,11.62 C19.6018122,10.576013 19.7772829,9.50564196 20.27,8.57 L20.39,8.46 C21.93,6.74 20.03,3.68 18.48,2.16 C16.93,0.64 15.4,0.22 14.31,0.96 C13.984484,1.05374445 13.7285564,1.3059084 13.63,1.63 C13.16,3.37 12.36,6.29 10.42,7.09 C10.1619643,7.20072744 9.96236963,7.41483811 9.87,7.68 C9.77151201,7.94929429 9.79336195,8.24791006 9.93,8.5 C11.27,10.95 7.19,16.26 5.05,17.75 C4.8067813,17.9111474 4.6460692,18.1704783 4.61,18.46 C4.58375853,18.7418995 4.6782404,19.0217112 4.87,19.23 C5.38,20.23 2.52,25.95 1.06,27.23 C0.801615114,27.4687497 0.687691645,27.8257099 0.76,28.17 C0.831747835,28.5136644 1.07845741,28.7945337 1.41,28.91 C2.87064683,29.4847033 4.27916872,30.1839458 5.62,31 C6.05,31.25 6.38,31.49 6.65,31.67 Z M19,6.72 C18.0926615,6.47880355 17.286547,5.95307675 16.7,5.22 C16.0976371,4.44046769 15.6897037,3.5286167 15.51,2.56 C15.71,2.56 16.32,2.76 17.13,3.56 C18.0509194,4.40619787 18.7014549,5.50549835 19,6.72 L19,6.72 Z M7,19.59 C7.00654872,19.3385825 6.98643642,19.0871787 6.94,18.84 C9.35,16.77 13,12 12.1,8.44 C13.1520569,7.67573916 13.9750763,6.63831982 14.48,5.44 C14.6847878,5.80149387 14.9084294,6.15197707 15.15,6.49 C15.9402883,7.42746392 16.9806916,8.12106612 18.15,8.49 C17.9371001,9.08382512 17.7993629,9.70196285 17.74,10.33 C17.32,10.15 16.87,9.98 16.44,9.83 L15.86,9.61 C15.3535663,9.43614556 14.8000555,9.69204658 14.6044349,10.1904771 C14.4088143,10.6889077 14.6405076,11.2529802 15.13,11.47 L15.75,11.7 C16.18,11.86 16.75,12.06 17.17,12.26 C15.2865041,14.6149322 14.0830746,17.4402249 13.69,20.43 C13.545997,20.3645766 13.4057768,20.291128 13.27,20.21 C12.867037,19.9618575 12.4286976,19.7764062 11.97,19.66 C11.4321805,19.5556068 10.9104907,19.9034 10.8,20.44 C10.7469015,20.6999175 10.7992575,20.9702825 10.9455449,21.191589 C11.0918322,21.4128955 11.3200613,21.5670054 11.58,21.62 C11.8298465,21.7111869 12.0708466,21.8249925 12.3,21.96 L12.51,22.07 C11.6977292,23.3340685 10.9759265,24.6540318 10.35,26.02 C9.91,26.92 9.45,27.86 8.96,28.72 C8.76,29.07 8.33,29.82 8.06,30.18 L7.81,30 C7.42815555,29.7211207 7.03085542,29.4640441 6.62,29.23 C5.67,28.68 4.55,28.04 3.42,27.52 C4.85,25.56 6.88,21.83 7,19.59 Z"/>
      </g>
    </g>
  </g>
</svg>
