<svg xmlns="http://www.w3.org/2000/svg" width="64" height="64" viewBox="0 0 64 64" style="background:#fff">
  <g id="Zucker-(Zuckerrüben)" fill="none" fill-rule="evenodd" stroke="none" stroke-width="1">
    <rect width="64" height="64" fill="#FFF"/>
    <g transform="translate(2 4)">
      <g id="Layer_2">
        <rect id="Rectangle" width="60" height="60" x="0" y="0"/>
      </g>
      <g id="Layer_1" fill-rule="nonzero" transform="translate(2 2)">
        <path id="Path" fill="#E05362" d="M25.49,9.42 C22.17,6.05 16.42,7.29 14.19,11.02 L14.1,10.88 C12.35,8.88 10.33,6.88 7.44,7.27 C4,7.67 2.17,11 1.72,14.11 C0.58,21.84 7,26.38 13.78,28 C15.4193666,28.4828066 17.1696081,27.7254905 17.94,26.2 C20.02,22.65 25.16,22.2 26.94,18.09 C28.2058827,15.166586 27.638232,11.772426 25.49,9.42 Z" opacity=".5"/>
        <g id="Group" fill="#CCC" opacity=".5" transform="translate(6 23)">
          <path id="Path" d="M45.28,17.8 C42.3188374,12.6618283 38.8263575,7.84877537 34.86,3.44 C31.14,-0.72 26.92,-0.45 22.02,2.09 C15.86,5.28 8.76,10.09 5.02,16.09 L4.9,16.16 C1.76,17.87 0.62,21.16 0.95,24.41 C1.19,26.82 2.69,31.27 6.21,31.03 C17.99,30.24 29.77,30.28 41.58,30.03 C47.73,29.92 47.23,21.21 45.28,17.8 Z"/>
        </g>
        <path id="Path" fill="#3D454C" d="M24.3,18.66 C25.5371111,17.5082036 26.0587391,15.7798237 25.6653676,14.1359448 C25.271996,12.4920659 24.0244879,11.1870309 22.4,10.72 C21.18,10.33 20.65,12.26 21.87,12.64 C22.8164445,12.9133448 23.5366281,13.6838979 23.7454646,14.6466346 C23.9543012,15.6093712 23.6181204,16.6090707 22.87,17.25 C22,18.14 23.38,19.55 24.3,18.66 Z"/>
        <path id="Shape" fill="#3D454C" d="M4.73,19.92 C2.92256403,18.6222227 2.12270149,16.3306165 2.73,14.19 C3.38,11.98 5.73,9.45 10.24,9 C10.5726366,8.92037758 10.9217001,8.94481203 11.24,9.07 L11.69,9.21 C14.1405474,9.91590388 16.7332519,9.96762006 19.21,9.36 L19.87,9.19 C20.2843797,9.04519055 20.7356203,9.04519055 21.15,9.19 C24.37,9.78 26.78,11.89 27.29,14.57 C27.7006761,16.7594291 26.671168,18.9672413 24.73,20.06 C23.3253474,20.9223675 21.802747,21.575873 20.21,22 C17.7298301,22.5169531 15.587519,24.0664005 14.32,26.26 C14.5,24.26 13.39,23.55 10.76,22.65 C10.37,22.52 9.93,22.37 9.45,22.19 C8.93085234,21.9994618 8.35553827,22.2658524 8.16500004,22.785 C7.9744618,23.3041477 8.24085236,23.8794617 8.76,24.07 C9.26,24.25 9.76,24.41 10.12,24.54 C12.73,25.44 12.73,25.44 11.74,28.46 C11.5118152,29.029089 11.7659132,29.6774769 12.32,29.94 C12.4744062,30.0076651 12.6414272,30.041751 12.81,30.0400642 C13.81,30.0400642 15.12,28.82 15.75,27.76 C16.7398396,25.7585424 18.607857,24.3344103 20.8,23.91 C22.5617521,23.4338627 24.245717,22.7063898 25.8,21.75 C28.4536257,20.22575 29.8473388,17.1852866 29.27,14.18 C28.59,10.68 25.55,7.95 21.52,7.18 C20.9613146,7.03633704 20.3785583,7.01248153 19.81,7.11 L20.1,6.62 C20.65,5.7 21.16,4.83 21.4,4.32 C21.52,4.06 21.66,3.82 21.78,3.61 C22.13,3.01 22.52,2.32 22.1,1.61 C21.6595829,1.08854744 20.9666986,0.853736659 20.3,1 L18.53,1.1 L18.3,1.1 C17.514234,1.37229761 16.8838492,1.96988777 16.57,2.74 C16.51,2.85333333 16.45,2.95333333 16.39,3.04 L15.55,4.4 C14.5639735,2.96257678 12.9864909,2.04176718 11.25,1.89 L11,1.89 C10.19,1.89 9.59,1.89 9.23,2.43 C9.00072811,2.88498883 9.04713751,3.4302992 9.35,3.84 C9.41,3.94 9.47,4.05 9.54,4.19 L10.93,7 C10.6204051,6.97758721 10.3095949,6.97758721 10,7 C5.36,7.46 1.83,10 0.77,13.62 C-0.0808604291,16.5502514 0.999476147,19.6992324 3.47,21.49 C3.90630495,21.8324165 4.53758344,21.7563049 4.87999997,21.32 C5.22241651,20.883695 5.14630493,20.2524166 4.71,19.91 L4.73,19.92 Z M16.73,6.24 C17.32,5.24 17.87,4.4 18.04,4.14 L18.29,3.7 C18.3886711,3.45224948 18.5466216,3.23249215 18.75,3.06 L19.75,3 L19.49,3.51 C19.3,3.92 18.79,4.79 18.29,5.63 C17.79,6.47 17.38,7.16 17.12,7.69 C16.67,7.74 16.23,7.75 15.78,7.76 L16.73,6.24 Z M14.36,6.24 L13.54,7.56 L13.41,7.56 L11.69,4 C12.8396104,4.40143087 13.8032175,5.2085852 14.4,6.27 L14.36,6.24 Z"/>
        <path id="Path" fill="#3D454C" d="M6.49,23.14 C7.04228475,23.14 7.49,22.6922847 7.49,22.14 C7.49,21.5877153 7.04228475,21.14 6.49,21.14 C5.93771525,21.14 5.49,21.5877153 5.49,22.14 C5.49,22.6922847 5.93771525,23.14 6.49,23.14 Z"/>
        <path id="Shape" fill="#3D454C" d="M51.76,51.94 L50.76,51.94 C50.46,46.55 47.62,36.94 33.71,26.14 C33.5957292,25.9858377 33.4395152,25.8678094 33.26,25.8 L32.56,25.27 C30.3030961,23.641501 27.2569039,23.641501 25,25.27 C10.08,36.37 7.09,46.4 6.79,51.94 L5.79,51.94 C5.23771525,51.94 4.79,52.3877153 4.79,52.94 C4.79,53.4922847 5.23771525,53.94 5.79,53.94 L51.79,53.94 C52.3422847,53.94 52.79,53.4922847 52.79,52.94 C52.79,52.3877153 52.3422847,51.94 51.79,51.94 L51.76,51.94 Z M26.18,26.87 C27.7246353,25.7601239 29.8053647,25.7601239 31.35,26.87 C36.44,30.66 48.08,40.54 48.73,51.94 L8.8,51.94 C9.45,40.54 21.09,30.66 26.18,26.87 Z"/>
        <circle id="Oval" cx="17.74" cy="47.28" r="1" fill="#3D454C"/>
        <circle id="Oval" cx="25.67" cy="34.9" r="1" fill="#3D454C"/>
        <circle id="Oval" cx="42.79" cy="46.35" r="1" fill="#3D454C"/>
        <path id="Path" fill="#3D454C" d="M39 21.79C39.5522847 21.79 40 21.3422847 40 20.79 40 20.2377153 39.5522847 19.79 39 19.79 38.4477153 19.79 38 20.2377153 38 20.79 38 21.3422847 38.4477153 21.79 39 21.79zM25.19 41.85C24.6377153 41.85 24.19 42.2977153 24.19 42.85 24.19 43.4022847 24.6377153 43.85 25.19 43.85 25.7422847 43.85 26.19 43.4022847 26.19 42.85 26.19 42.2977153 25.7422847 41.85 25.19 41.85zM36.12 40.78C35.5677153 40.78 35.12 41.2277153 35.12 41.78 35.12 42.3322847 35.5677153 42.78 36.12 42.78 36.6722847 42.78 37.12 42.3322847 37.12 41.78 37.12 41.2277153 36.6722847 40.78 36.12 40.78zM46.52 30.51C47.0722847 30.51 47.52 30.0622847 47.52 29.51 47.52 28.9577153 47.0722847 28.51 46.52 28.51 45.9677153 28.51 45.52 28.9577153 45.52 29.51 45.52 30.0622847 45.9677153 30.51 46.52 30.51z"/>
      </g>
    </g>
  </g>
</svg>
