<svg xmlns="http://www.w3.org/2000/svg" width="64" height="64" viewBox="0 0 64 64" style="background:#fff">
  <g id="Zwetschgen" fill="none" fill-rule="evenodd" stroke="none" stroke-width="1">
    <rect width="64" height="64" fill="#FFF"/>
    <g transform="translate(2 7)">
      <g id="Layer_2">
        <rect id="Rectangle" width="60" height="60" x="0" y="0"/>
      </g>
      <g id="Layer_1" fill-rule="nonzero" transform="translate(1 6)">
        <path id="Path" fill="#31E085" d="M13.36 3.89C12.3425616 2.86549089 11.1417435 2.04120052 9.82 1.46 8.77 1.05 7.82 2.04 7.55 2.94 7.14106669 4.19865179 7.3055973 5.5733964 8 6.7 8.85259166 8.04751568 9.90839572 9.25511267 11.13 10.28 12.42 11.39 13.94 10.28 14.39 8.88 15.0088135 7.15506898 14.6112336 5.22892932 13.36 3.89zM48.33 2.28C47.81 1.65 46.62 1.83 46 2 45.3225064 2.23457751 44.6850714 2.5718447 44.11 3 42.8646036 3.76170638 41.7162143 4.67168743 40.69 5.71 39.8090325 6.78344952 39.5478467 8.23700532 40 9.55 40.28 10.44 41.26 11.97 42.44 11.28 44.3252912 10.0760876 45.9422532 8.49657101 47.19 6.64 47.81 5.66 49.29 3.47 48.33 2.28z" opacity=".5"/>
        <path id="Path" fill="#4885E0" d="M19.05 22.27C17.8 18.15 15.43 13.43 10.71 12.7 3.83 11.65 1.71 19.46 1.45 24.7 1.40354409 26.0189002 1.58972073 27.3356768 2 28.59 1.91968221 29.4141027 1.88629498 30.2421061 1.9 31.07 2 37 7.18 49.6 15.13 46 19.13 44.22 20.3 38.94 20.55 35 20.8095093 30.7012714 20.3015834 26.3906737 19.05 22.27L19.05 22.27zM53.87 21.07C51.37 16.01 46.87 12.44 40.75 12.32 36.36 12.23 29.75 16.46 32.17 21.32 33.53 24.01 36.03 25.22 38.49 26.58 38.0106474 26.8488031 37.5727662 27.1856347 37.19 27.58 33.35 31.22 32.46 39.39 36.19 43.45 39.09 46.62 41.82 47.85 46.07 46.39 48.9319703 45.275152 51.3202952 43.2047993 52.83 40.53 56.5026712 34.654611 56.8955437 27.3033615 53.87 21.07z" opacity=".5"/>
        <path id="Shape" fill="#3D454C" d="M43.82,13.61 C43.1218821,13.5470517 42.4207601,13.5236809 41.72,13.54 C41.72,12.78 41.64,12.06 41.55,11.42 C44.64,11 46.9,9.83 48.26,8 C49.4477424,6.32057856 49.9091131,4.23359675 49.54,2.21 C49.4297012,1.69604181 48.9403139,1.35521855 48.42,1.43 C44.54,2 41.84,3.43 40.42,5.61 C40.2203008,5.9045039 40.0463252,6.21565261 39.9,6.54 C39.3364811,5.6304479 38.4198695,4.99642809 37.37,4.79 C36.8205599,4.73780425 36.3327177,5.14060973 36.28,5.69 C36.2275859,6.23591203 36.6246336,6.72218395 37.17,6.78 C37.17,6.78 38.64,7.19 39.37,10.42 C39.37,10.66 39.45,10.82 39.45,10.84 C39.6067633,11.6989047 39.7036633,12.5676631 39.74,13.44 C38.8712038,13.2060093 37.9850234,13.0421495 37.09,12.95 C32.09,12.45 27.96,14.06 25.14,17.6 C24.0110024,15.963426 22.5143612,14.6140515 20.77,13.66 C18.8445015,12.6466889 16.5928779,12.448546 14.52,13.11 C14.6412006,12.433711 14.8048576,11.7657232 15.01,11.11 C15.01,11.11 15.01,11.11 15.01,11.11 C15.0731066,10.9500213 15.1265363,10.7863927 15.17,10.62 C16.17,7.75 17.56,7.53 17.65,7.52 C18.2022847,7.52 18.65,7.07228475 18.65,6.52 C18.65,5.96771525 18.2022847,5.52 17.65,5.52 C16.6183115,5.57705206 15.6574791,6.06290698 15,6.86 C14.9017236,6.55176027 14.7814134,6.25098494 14.64,5.96 C13.54,3.68 11.11,2 7.46,1 C6.95417442,0.8666275 6.43103294,1.14563629 6.26,1.64 C5.67742831,3.53848947 5.87909667,5.59118527 6.82,7.34 C7.91,9.27 9.93,10.63 12.82,11.41 C12.67,12.01 12.54,12.69 12.42,13.41 C10.76,12.93 8.36,13.02 5.42,15.41 C1.77,19 -0.12,25.3 0.61,31.5 C1.68,40.5 8.21,47.24 15.51,47.24 C15.9777493,47.2379891 16.4450663,47.2112852 16.91,47.16 C20.2672556,46.7103781 23.3094183,44.948369 25.37,42.26 C27.7019994,44.3773905 30.6860894,45.6366342 33.83,45.83 C34.45,45.89 35.05,45.92 35.64,45.92 C36.23,45.92 36.71,45.92 37.22,45.84 C38.3201488,46.1652017 39.4484539,46.3861754 40.59,46.5 C41.23,46.56 41.86,46.6 42.47,46.6 C46.0692294,46.7392353 49.5498857,45.3002232 52,42.66 C54.38,40.06 55.88,36.19 56.35,31.45 C57.34,21.16 52.66,14.49 43.82,13.61 Z M42.06,6.68 C43.06,5.16 44.94,4.12 47.66,3.56 C47.6762737,4.72147254 47.3263947,5.85857928 46.66,6.81 C45.66,8.21 43.81,9.09 41.29,9.45 C41.2645351,8.47052082 41.5327003,7.5058226 42.06,6.68 L42.06,6.68 Z M8.57,6.42 C8.0575064,5.45827873 7.8582262,4.36048955 8,3.28 C10.49,4.1 12.14,5.28 12.91,6.82 C13.3345377,7.65221309 13.4950173,8.59415902 13.37,9.52 C11,8.9 9.4,7.85 8.57,6.42 Z M16.68,45.17 C9.93,46 3.61,39.74 2.6,31.27 C1.93,25.66 3.59,20 6.76,17 C7.85588293,15.9822908 9.26789746,15.3715945 10.76,15.27 C11.2961918,15.2710309 11.8267036,15.3798539 12.32,15.59 L12.57,15.71 L12.63,15.71 C15.63,17.26 17.75,22.49 18.09,26.63 C18.1103885,26.895544 18.2358604,27.1419851 18.4385989,27.3146882 C18.6413374,27.4873914 18.9045919,27.5720876 19.17,27.55 C19.7191457,27.5023274 20.1261623,27.0192747 20.08,26.47 C19.82,23.19 18.24,17.8 15.08,15.01 C16.6520817,14.5183762 18.3555726,14.6768405 19.81,15.45 C23.4,17.29 26.39,22.6 27.07,28.38 C28.11,36.83 23.43,44.37 16.68,45.17 Z M54.34,31.26 C53.91,35.56 52.59,39.04 50.51,41.26 C48.253002,43.6337125 45.0308134,44.8392682 41.77,44.53 C45.77,42.53 48.41,38.4 49.35,32.45 C49.4356041,31.8977153 49.0572847,31.3806042 48.505,31.295 C47.9527153,31.2093959 47.4356041,31.5877153 47.35,32.14 C46.54,37.24 44.09,43.04 37.22,43.8 L37.22,43.8 C36.1530803,43.9148196 35.0769197,43.9148196 34.01,43.8 C31.2035423,43.6492646 28.5434501,42.5001048 26.51,40.56 C28.7314062,36.8019689 29.6325095,32.4090907 29.07,28.08 C28.7132061,25.0142488 27.7585163,22.0482552 26.26,19.35 C28.67,15.95 32.21,14.43 36.85,14.89 C40.85,15.29 43.85,16.99 45.64,19.94 C45.824985,20.2360308 46.1509495,20.4141741 46.5,20.41 C46.8620925,20.4071112 47.194335,20.2087033 47.3686008,19.8912906 C47.5428666,19.573878 47.5319267,19.1870562 47.34,18.88 C46.5787491,17.6440091 45.599557,16.5563944 44.45,15.67 C48.41,16.34 55.53,19.14 54.34,31.26 Z"/>
        <path id="Path" fill="#3D454C" d="M9.61 16.8C7.06801847 18.3378205 5.35299897 20.9378929 4.94 23.88 4.90619032 24.1455689 4.98027639 24.4136054 5.14567489 24.6241126 5.3110734 24.8346198 5.55397176 24.970018 5.82 25.0000187L5.93 25.0000187C6.44203175 25.0031062 6.87368489 24.6189349 6.93 24.11 7.28675975 21.8112233 8.62646473 19.7815885 10.6 18.55 10.9108211 18.3713672 11.1027321 18.0404826 11.1034441 17.6819873 11.1041521 17.3234919 10.9135532 16.9918498 10.6034421 16.8119873 10.293331 16.6321247 9.91082106 16.6313672 9.6 16.81L9.61 16.8zM48.75 27.05C48.1977153 27.05 47.75 27.4977153 47.75 28.05 47.75 28.6022847 48.1977153 29.05 48.75 29.05 49.3022847 29.05 49.75 28.6022847 49.75 28.05 49.75 27.4977153 49.3022847 27.05 48.75 27.05z"/>
      </g>
    </g>
  </g>
</svg>
