<svg xmlns="http://www.w3.org/2000/svg" width="64" height="64" viewBox="0 0 64 64" style="background:#fff">
  <g id="Zwiebeln" fill="none" fill-rule="evenodd" stroke="none" stroke-width="1">
    <rect width="64" height="64" fill="#FFF"/>
    <g transform="translate(2 4)">
      <g id="Layer_2">
        <rect id="Rectangle" width="60" height="60" x="0" y="0"/>
      </g>
      <g id="Layer_1" fill-rule="nonzero" transform="translate(7 3)">
        <path id="Path" fill="#31E085" d="M30.65,1.39 C29.11,0.84 27.91,1.94 26.65,2.75 C25.6026536,3.40815412 24.6360591,4.18679969 23.77,5.07 C23.6580203,4.53726336 23.4904356,4.01775089 23.27,3.52 C22.8935633,2.6928148 22.4695195,1.88813327 22,1.11 C21.6103176,0.482676967 20.9375994,0.0865206872 20.2,0.05 C19.4790241,0.130667895 18.8417611,0.555509865 18.49,1.19 C17.5708424,2.8535038 17.6205402,4.883468 18.62,6.5 C18.9576977,7.05741151 19.3318454,7.59190832 19.74,8.1 C20.0443483,8.46111017 20.3788898,8.79565172 20.74,9.1 C20.9314644,9.30231017 21.1630773,9.46239555 21.42,9.57 C21.6063335,9.62162394 21.7972214,9.65511304 21.99,9.67 C22.340429,9.72265438 22.6977878,9.64046186 22.99,9.44 C23.28,10.14 23.86,10.96 24.69,10.88 C26.062834,10.6283729 27.3615266,10.0713021 28.49,9.25 C30.02,8.3 31.29,7.56 31.97,5.81 C32.44,4.52 32.22,2 30.65,1.39 Z" opacity=".5"/>
        <path id="Path" fill="#E0673A" d="M41,17 C36.47,12.78 28.67,8.82 22.52,10.76 C19.77,11.62 18.65,14.46 18.52,17.51 L18.32,17.45 C15.83,16.65 12.55,17.06 10.72,19.16 C6.38,24.16 4.83,29.79 6.58,36.33 C8.07,42.07 11,46.2 16.82,47.78 C24.15,49.78 33.44,49.94 39.53,44.78 C47.2,38.27 48.63,24.18 41,17 Z" opacity=".5"/>
        <path id="Shape" fill="#3D454C" d="M44.07,24.79 C42.3590357,22.468846 40.0454728,20.6601862 37.38,19.56 L36.9,19.34 C33.67,17.82 30.67,16.19 29.16,14.34 C29.1188792,14.2789851 29.0719976,14.2220575 29.02,14.17 C28.1151995,13.1232329 27.8862111,11.6522731 28.43,10.38 C28.4604859,10.3169395 28.4807393,10.2494281 28.49,10.18 C29.14,6.86 28.93,5.13 27.77,4.43 C26.61,3.73 25.48,4.43 24.5,5.05 C23.7305809,3.5839256 22.5392988,2.38219365 21.08,1.6 C20.6061891,1.33806921 20.020893,1.38948035 19.6,1.73 C18.27,2.79 18.6,6.99 19.27,9.49 L19.27,9.49 C19.32,9.67 19.37,9.84 19.43,10.03 C20.1025717,11.5751001 19.7481245,13.375214 18.54,14.55 C17.03,16.34 14.62,17.45 12.08,18.63 C11.17,19.05 10.26,19.47 9.37,19.93 C8.95818674,20.1409688 8.7448865,20.6069081 8.85430879,21.056491 C8.96373107,21.5060739 9.36729655,21.8218765 9.83,21.82 C9.98961898,21.8181054 10.1467916,21.7805207 10.29,21.71 C11.15,21.26 12.04,20.85 12.92,20.45 C15.55,19.22 18.27,17.96 20.07,15.83 C21.4248627,14.4650106 22.016453,12.5180046 21.65,10.63 C23.13,10.99 25.11,11.45 26.13,11.68 C26.1252022,13.0372868 26.595755,14.3534194 27.46,15.4 C29.0658738,18.1965901 31.0551599,20.7547245 33.37,23 L35,24.82 C37.3931652,27.5141488 38.4891024,31.119782 38,34.69 C37.6240266,38.6118707 35.5990666,42.189179 32.43,44.53 L31.28,45.32 C30.6965745,45.684049 30.1416448,46.0918888 29.62,46.54 C28.874077,46.4869729 28.1431213,46.3042339 27.46,46 C30.57,43.08 37.62,36 32.41,26.9 C31.6637771,25.4714629 30.8218586,24.0949929 29.89,22.78 C29.5807205,22.3216037 28.9583963,22.2007205 28.5,22.51 C28.0416037,22.8192795 27.9207205,23.4416037 28.23,23.9 C29.1226319,25.158555 29.9310623,26.4747598 30.65,27.84 C34.75,35.03 30.21,40.69 25.78,44.84 C25.7212748,44.9021684 25.6677612,44.9690604 25.62,45.04 L25.62,45.04 C25.5539024,45.1116928 25.4937065,45.1886098 25.44,45.27 C23.37,48.03 16.62,48.13 12.16,46.27 C8.05391216,44.5608037 4.9008902,41.1410719 3.53,36.91 C2.3294893,33.4603224 2.71759289,29.6561749 4.59,26.52 C4.88547232,26.050558 4.74444201,25.4304724 4.27499999,25.135 C3.80555796,24.8395277 3.18547235,24.980558 2.89,25.45 C0.709730569,29.0903668 0.248587417,33.5078254 1.63,37.52 C3.18340079,42.3099829 6.7522764,46.1820486 11.4,48.12 C13.7083268,49.0078054 16.1569544,49.4751783 18.63,49.5 L18.08,50.5 C17.9472666,50.7317414 17.9127439,51.0069478 17.9841246,51.2642939 C18.0555053,51.5216401 18.2268581,51.7397422 18.46,51.87 C18.624113,51.9634554 18.8113356,52.0085275 19,52 C19.3607641,51.9993783 19.6932259,51.8044869 19.87,51.49 L20.77,49.92 L20.2,51.49 C20.0114688,52.0063058 20.2749785,52.577988 20.79,52.77 C20.9025104,52.8093549 21.0208058,52.83 21.14,52.83 C21.5610301,52.83 21.9368498,52.5659474 22.08,52.17 L23.25,48.95 L23.44,48.89 L23.39,51.78 C23.39,52.3322847 23.8377153,52.78 24.39,52.78 L24.39,52.78 C24.9422847,52.78 25.39,52.3322847 25.39,51.78 L25.45,48.55 L27.3,51.63 C27.4825417,51.9298614 27.8089527,52.1120443 28.16,52.11 C28.3424342,52.1084279 28.5214366,52.060235 28.68,51.97 C28.9057904,51.8297455 29.0664518,51.6053688 29.1264947,51.3464336 C29.1865377,51.0874983 29.1410213,50.8153123 29,50.59 L27.51,48.13 C28.3063244,48.3767786 29.1283954,48.5311267 29.96,48.59 C30.179997,48.6384135 30.4047469,48.6618948 30.63,48.66 C31.9135311,48.591914 33.1922169,48.4516926 34.46,48.24 C39.64,47.51 44.33,42.99 45.62,37.47 C47.08,31.09 45.58,27.05 44.07,24.79 Z M21.07,8.41 C20.7075748,6.87796401 20.6061522,5.29577144 20.77,3.73 C22.425452,5.05292981 23.5013243,6.96798237 23.77,9.07 C22.7,8.81 21.69,8.57 21.08,8.41 L21.07,8.41 Z M25.87,9.55 C25.7767357,8.65274856 25.5890292,7.76784677 25.31,6.91 C25.7095456,6.54670402 26.1892256,6.28288001 26.71,6.14 C26.8,6.33 27.03,7.14 26.54,9.68 L26.54,9.68 L25.87,9.55 Z M43.64,37 C42.55,41.66 38.47,45.63 34.15,46.24 L33.24,46.36 L33.54,46.15 C37.1933097,43.4920642 39.5424763,39.4046597 40,34.91 C40.5800439,30.7789069 39.327249,26.6004887 36.57,23.47 L34.88,21.66 C34.21,20.94 33.58,20.27 32.99,19.61 C34.13,20.22 35.22,20.74 36.1,21.15 L36.57,21.37 C38.8859059,22.3272814 40.9001957,23.8924156 42.4,25.9 C44.26,28.68 44.69,32.52 43.64,37 Z"/>
        <path id="Path" fill="#3D454C" d="M6.21,23.76 C6.76228475,23.76 7.21,23.3122847 7.21,22.76 C7.21,22.2077153 6.76228475,21.76 6.21,21.76 C5.65771525,21.76 5.21,22.2077153 5.21,22.76 C5.21,23.3122847 5.65771525,23.76 6.21,23.76 Z"/>
      </g>
    </g>
  </g>
</svg>
