<?xml version="1.0" encoding="UTF-8" standalone="no"?>
<!DOCTYPE svg PUBLIC "-//W3C//DTD SVG 1.1//EN" "http://www.w3.org/Graphics/SVG/1.1/DTD/svg11.dtd">
<svg width="100%" height="100%" viewBox="0 0 3918 923" version="1.1" xmlns="http://www.w3.org/2000/svg" xmlns:xlink="http://www.w3.org/1999/xlink" xml:space="preserve" xmlns:serif="http://www.serif.com/" style="fill-rule:evenodd;clip-rule:evenodd;stroke-linejoin:round;stroke-miterlimit:2;">
    <g transform="matrix(1,0,0,1,0,-632)">
        <g id="Logo-AYCE" transform="matrix(0.821211,0,0,0.583808,4310.54,263.034)">
            <rect x="-5249" y="632" width="4771" height="1581" style="fill:none;"/>
            <g id="Logo" transform="matrix(5.0738,0,0,7.13705,-12291,-1005.53)">
                <g id="Planet">
                    <g transform="matrix(1,0,0,1,2143.42,311.238)">
                        <path d="M0,96.994C37,133.996 96.989,133.995 133.988,96.994C133.988,96.994 74.324,129.403 20.958,76.035C-4.468,50.608 -4.469,9.384 20.956,-16.043L-0.002,-37.002C-37.001,0 -37,59.992 0,96.994" style="fill:rgb(215,25,32);fill-rule:nonzero;"/>
                    </g>
                    <g transform="matrix(1,0,0,1,2143.42,371.227)">
                        <path d="M0,-96.988C-37,-59.989 -37,-0 0,37C0,37 -32.408,-22.665 20.958,-76.03C46.383,-101.455 87.605,-101.455 113.03,-76.03L133.988,-96.987C96.988,-133.987 37,-133.988 0,-96.988" style="fill:rgb(237,126,49);fill-rule:nonzero;"/>
                    </g>
                    <g transform="matrix(1,0,0,1,2277.4,371.227)">
                        <path d="M0,-96.987C-37,-133.987 -96.988,-133.986 -133.988,-96.987C-133.988,-96.987 -74.324,-129.394 -20.958,-76.029C4.467,-50.604 4.467,-9.383 -20.958,16.042L0,37C37,0.001 37,-59.987 0,-96.987" style="fill:rgb(37,189,190);fill-rule:nonzero;"/>
                    </g>
                    <g transform="matrix(1,0,0,1,2277.4,311.239)">
                        <path d="M0,96.987C37,59.987 37,-0.001 0,-37C0,-37 32.408,22.664 -20.958,76.029C-46.383,101.454 -87.605,101.455 -113.03,76.029L-133.988,96.987C-96.989,133.987 -37,133.987 0,96.987" style="fill:rgb(163,207,98);fill-rule:nonzero;"/>
                    </g>
                    <g transform="matrix(0.707124,0.70709,0.70709,-0.707124,2168.71,363.212)">
                        <path d="M13.949,-49.72C66.276,-49.722 108.695,-7.304 108.694,45.022C108.694,45.022 89.421,-20.083 13.949,-20.08L9.42,-40.597L13.949,-49.72Z" style="fill:rgb(215,25,32);fill-rule:nonzero;"/>
                    </g>
                    <g transform="matrix(-0.707107,-0.707107,-0.707107,0.707107,2145.31,341.239)">
                        <path d="M-46.036,-111.141C-81.992,-111.141 -111.141,-81.992 -111.141,-46.036C-111.141,-10.08 -81.992,19.069 -46.036,19.069C-10.08,19.069 19.069,-10.08 19.069,-46.036C19.069,-81.992 -10.08,-111.141 -46.036,-111.141" style="fill:white;fill-rule:nonzero;"/>
                    </g>
                    <g transform="matrix(1,0,0,1,2161.64,289.645)">
                        <path d="M0,22.036C2.256,20.869 15.014,12.616 14.898,12.733C15.15,12.733 21.089,3.515 21.561,1.766C21.568,1.762 21.574,1.759 21.581,1.755L20.168,0C10.877,5.078 3.075,12.549 -2.405,21.579L0,22.036Z" style="fill:rgb(209,211,212);fill-rule:nonzero;"/>
                    </g>
                    <g transform="matrix(1,0,0,1,2204.5,305.763)">
                        <path d="M0,-2.629C-0.118,-2.845 0.882,-4.77 0.882,-4.896C0.756,-5.022 -0.478,-4.722 -1.148,-4.567C-1.675,-4.445 -2.005,-4.281 -1.817,-3.729C-1.629,-3.177 -0.912,-0.936 -1.133,-0.221C-1.355,0.493 -1.588,1.555 -1.714,1.429C-2.092,1.429 -2.311,1.92 -2.267,2.156C-2.223,2.393 2.042,1.87 2.394,0.132C1.89,0.006 0.118,-2.413 0,-2.629" style="fill:rgb(209,211,212);fill-rule:nonzero;"/>
                    </g>
                    <g transform="matrix(1,0,0,1,2186.87,285.97)">
                        <path d="M0,11.245C0.882,11.119 13.223,6.963 13.475,6.837C13.601,6.712 19.938,3.118 20.945,1.858C21.071,1.733 20.905,0.919 20.527,0.667C19.508,0 12.467,0.919 11.208,1.171C11.46,1.422 -0.467,9.716 -0.504,10.112C-0.541,10.507 0,10.993 0,11.245" style="fill:rgb(209,211,212);fill-rule:nonzero;"/>
                    </g>
                    <g transform="matrix(1,0,0,1,2196.94,321.899)">
                        <path d="M0,33.668C1.824,34.67 10.127,32.531 16.88,35.134C17.762,35.474 23.936,68.159 24.562,69.387C25.189,70.616 42.204,60.09 48.355,47.538C48.511,47.218 47.412,40.797 55.038,30.978C55.919,29.845 58.341,21.671 56.801,21.407C55.416,22.667 51.851,24.348 51.26,24.304C50.668,24.259 39.621,7.994 39.17,7.051C38.719,6.108 40.02,5.476 40.556,6.122C41.092,6.768 51.008,22.163 51.386,22.289C51.89,22.415 59.823,15.362 60.075,14.481C60.201,14.229 61.933,10.303 61.083,9.066C60.825,8.691 55.667,8.31 54.408,8.688C54.156,8.814 50.161,4.817 49.371,3.776C48.581,2.735 61.964,5.036 62.09,5.036C62.961,4.912 71.315,19.634 71.525,20.368L73.295,20.085C73.276,14.361 72.4,8.881 70.906,3.525C65.994,-13.476 53.527,-27.455 37.533,-34.507C35.431,-35.45 33.253,-36.262 31.017,-36.948L30.068,-34.5C30.384,-32.951 28.398,-30.103 27.962,-29.218C27.457,-28.191 24.058,-28.714 23.051,-28.966C21.54,-29.218 19.903,-29.47 18.643,-28.714C17.384,-27.958 13.631,-23.244 13.379,-22.488C13.002,-21.732 12.724,-21.224 13.48,-20.846C14.488,-20.342 15.495,-20.906 16.376,-21.662C16.628,-21.032 17.51,-18.513 18.014,-18.387C18.517,-18.387 18.931,-18.744 19.147,-19.143C20.184,-21.062 21.569,-21.989 25.696,-23.173C26.073,-22.921 20.649,-16.302 16.129,-17.036C15.5,-17.414 15.727,-17.79 15.873,-18.891C15.495,-19.143 15.117,-19.021 14.614,-18.895L14.614,-17.128C14.236,-16.624 12.611,-16.76 12.285,-16.182C11.958,-15.604 8.917,-13.095 5.294,-12.343C4.624,-12.204 6.176,-7.683 6.05,-7.809C4.287,-7.935 2.524,-8.061 0.761,-8.187C0.761,-6.424 -0.247,-2.142 -0.498,-1.89C0.131,-1.261 1.894,-0.757 2.146,-0.631C2.398,-0.505 5.546,-1.261 6.176,-1.639C6.302,-1.765 6.639,-1.612 6.68,-1.89C7.622,-8.273 15.747,-7.683 16.376,-7.054C17.132,-6.172 20.406,-4.283 20.784,-3.78C21.162,-3.276 21.162,-2.394 20.658,-2.016C20.658,-1.765 20.91,-1.765 21.036,-1.765C21.917,-2.016 22.295,-3.402 21.666,-4.031C21.945,-4.072 22.558,-3.828 22.731,-3.491C22.983,-3.365 23.177,-3.905 23.177,-4.157C21.792,-5.039 17.384,-8.187 17.762,-9.069C18.265,-9.321 18.886,-9.426 19.399,-9.195C24.369,-6.949 26.561,-0.609 27.836,-0.883C28.214,-1.513 31.306,-5.906 31.432,-6.032C31.054,-6.41 30.229,-6.537 30.194,-7.206C30.158,-7.874 32.877,-11.31 36.4,-10.328C36.526,-10.202 39.8,-8.691 41.437,-7.935C40.035,-4.827 36.526,-7.18 35.77,-7.054C34.637,-6.928 31.153,-3.177 30.523,-3.051C31.153,-2.548 32.37,-1.261 33,-1.009C33.503,-0.757 38.415,-1.765 39.044,-1.765C39.044,-0.505 38.918,3.525 38.289,4.028C38.037,4.154 16.754,2.517 16.754,2.391C16.628,1.887 17.722,0.24 17.05,-0.226C16.378,-0.69 4.495,0.24 2.398,0.376C-0.479,2.497 -3.616,5.723 -4.938,7.909C-8.802,14.296 -9.834,16.216 -9.858,21.167C-9.882,26.117 -1.262,32.975 0,33.668" style="fill:rgb(209,211,212);fill-rule:nonzero;"/>
                    </g>
                    <g transform="matrix(1,0,0,1,2165.75,336.313)">
                        <path d="M0,42.425C-0.012,42.41 -0.025,42.395 -0.037,42.381C-0.163,41.625 3.741,27.143 2.481,25.128C2.104,24.372 -1.631,22.247 -3.312,20.846C-8.363,16.635 -11.91,1.45 -12.533,-1.369L-14.687,-1.528C-14.986,0.894 -15.149,3.358 -15.149,5.86C-15.149,20.324 -9.994,33.601 -1.425,43.953L0,42.425Z" style="fill:rgb(209,211,212);fill-rule:nonzero;"/>
                    </g>
                </g>
                <g id="Text">
                    <g transform="matrix(0.24,0,0,0.24,-30.72,-145.44)">
                        <g transform="matrix(300,0,0,300,6338.3,2066)">
                            <path d="M0.546,-0L0.481,-0.172L0.149,-0.172L0.084,-0L0.01,-0L0.279,-0.7L0.351,-0.7L0.62,-0L0.546,-0ZM0.174,-0.238L0.456,-0.238L0.315,-0.613L0.174,-0.238Z" style="fill-rule:nonzero;"/>
                        </g>
                        <g transform="matrix(300,0,0,300,6527.3,2066)">
                            <path d="M0.15,-0.066L0.47,-0.066L0.47,-0L0.08,-0L0.08,-0.7L0.15,-0.7L0.15,-0.066Z" style="fill-rule:nonzero;"/>
                        </g>
                        <g transform="matrix(300,0,0,300,6674.3,2066)">
                            <path d="M0.15,-0.066L0.47,-0.066L0.47,-0L0.08,-0L0.08,-0.7L0.15,-0.7L0.15,-0.066Z" style="fill-rule:nonzero;"/>
                        </g>
                        <g transform="matrix(300,0,0,300,6896.3,2066)">
                            <path d="M0.585,-0.7L0.332,-0.287L0.332,-0L0.262,-0L0.262,-0.289L0.01,-0.7L0.089,-0.7L0.298,-0.357L0.506,-0.7L0.585,-0.7Z" style="fill-rule:nonzero;"/>
                        </g>
                        <g transform="matrix(300,0,0,300,7059.8,2066)">
                            <path d="M0.659,-0.093C0.589,-0.023 0.503,0.012 0.402,0.012C0.301,0.012 0.215,-0.023 0.145,-0.094C0.075,-0.164 0.04,-0.249 0.04,-0.35C0.04,-0.451 0.075,-0.536 0.145,-0.607C0.215,-0.677 0.301,-0.712 0.402,-0.712C0.503,-0.712 0.589,-0.677 0.659,-0.607C0.729,-0.536 0.764,-0.451 0.764,-0.35C0.764,-0.249 0.729,-0.164 0.659,-0.093ZM0.194,-0.141C0.25,-0.084 0.319,-0.056 0.402,-0.056C0.485,-0.056 0.554,-0.085 0.61,-0.142C0.666,-0.199 0.694,-0.268 0.694,-0.35C0.694,-0.432 0.666,-0.502 0.61,-0.559C0.554,-0.616 0.485,-0.644 0.402,-0.644C0.319,-0.644 0.25,-0.616 0.194,-0.559C0.138,-0.502 0.11,-0.432 0.11,-0.35C0.11,-0.268 0.138,-0.198 0.194,-0.141Z" style="fill-rule:nonzero;"/>
                        </g>
                        <g transform="matrix(300,0,0,300,7299.5,2066)">
                            <path d="M0.518,-0.056C0.47,-0.011 0.407,0.012 0.33,0.012C0.253,0.012 0.19,-0.011 0.142,-0.056C0.094,-0.101 0.07,-0.162 0.07,-0.238L0.07,-0.7L0.14,-0.7L0.14,-0.238C0.14,-0.182 0.157,-0.138 0.19,-0.105C0.223,-0.072 0.27,-0.056 0.33,-0.056C0.39,-0.056 0.437,-0.072 0.47,-0.105C0.503,-0.138 0.52,-0.182 0.52,-0.238L0.52,-0.7L0.59,-0.7L0.59,-0.238C0.59,-0.162 0.566,-0.101 0.518,-0.056Z" style="fill-rule:nonzero;"/>
                        </g>
                        <g transform="matrix(300,0,0,300,7572.5,2066)">
                            <path d="M0.407,0.012C0.301,0.012 0.213,-0.023 0.144,-0.093C0.075,-0.163 0.04,-0.249 0.04,-0.35C0.04,-0.451 0.075,-0.537 0.144,-0.607C0.213,-0.677 0.301,-0.712 0.407,-0.712C0.472,-0.712 0.531,-0.697 0.585,-0.666C0.639,-0.634 0.681,-0.593 0.71,-0.54L0.648,-0.504C0.626,-0.547 0.593,-0.581 0.55,-0.606C0.507,-0.631 0.459,-0.644 0.407,-0.644C0.32,-0.644 0.248,-0.616 0.193,-0.559C0.138,-0.502 0.11,-0.433 0.11,-0.35C0.11,-0.267 0.138,-0.198 0.193,-0.141C0.248,-0.084 0.32,-0.056 0.407,-0.056C0.459,-0.056 0.507,-0.069 0.55,-0.094C0.593,-0.119 0.626,-0.153 0.648,-0.196L0.71,-0.161C0.681,-0.108 0.64,-0.066 0.586,-0.035C0.531,-0.004 0.472,0.012 0.407,0.012Z" style="fill-rule:nonzero;"/>
                        </g>
                        <g transform="matrix(300,0,0,300,7793,2066)">
                            <path d="M0.546,-0L0.481,-0.172L0.149,-0.172L0.084,-0L0.01,-0L0.279,-0.7L0.351,-0.7L0.62,-0L0.546,-0ZM0.174,-0.238L0.456,-0.238L0.315,-0.613L0.174,-0.238Z" style="fill-rule:nonzero;"/>
                        </g>
                        <g transform="matrix(300,0,0,300,7982,2066)">
                            <path d="M0.53,-0.7L0.6,-0.7L0.6,-0L0.54,-0L0.15,-0.57L0.15,-0L0.08,-0L0.08,-0.7L0.14,-0.7L0.53,-0.13L0.53,-0.7Z" style="fill-rule:nonzero;"/>
                        </g>
                        <g transform="matrix(300,0,0,300,8261,2066)">
                            <path d="M0.25,-0.184L0.51,-0.184L0.51,-0L0.05,-0L0.05,-0.7L0.505,-0.7L0.505,-0.518L0.25,-0.518L0.25,-0.442L0.48,-0.442L0.48,-0.262L0.25,-0.262L0.25,-0.184Z" style="fill-rule:nonzero;"/>
                        </g>
                        <g transform="matrix(300,0,0,300,8451.5,2066)">
                            <path d="M0.455,-0L0.431,-0.09L0.229,-0.09L0.205,-0L-0.01,-0L0.213,-0.7L0.447,-0.7L0.67,-0L0.455,-0ZM0.272,-0.25L0.388,-0.25L0.33,-0.465L0.272,-0.25Z" style="fill-rule:nonzero;"/>
                        </g>
                        <g transform="matrix(300,0,0,300,8660,2066)">
                            <path d="M0.54,-0.7L0.54,-0.506L0.375,-0.506L0.375,-0L0.175,-0L0.175,-0.506L0.01,-0.506L0.01,-0.7L0.54,-0.7Z" style="fill-rule:nonzero;"/>
                        </g>
                    </g>
                    <g transform="matrix(0.24,0,0,0.24,-2.88,-48)">
                        <g transform="matrix(150,0,0,150,7858.45,1856.5)">
                            <path d="M0.32,-0.648C0.271,-0.652 0.235,-0.644 0.212,-0.623C0.188,-0.602 0.176,-0.568 0.176,-0.52L0.176,-0.5L0.32,-0.5L0.32,-0.436L0.176,-0.436L0.176,-0L0.11,-0L0.11,-0.436L0.025,-0.436L0.025,-0.5L0.11,-0.5L0.11,-0.52C0.11,-0.585 0.128,-0.635 0.165,-0.669C0.201,-0.702 0.253,-0.717 0.32,-0.712L0.32,-0.648Z" style="fill-rule:nonzero;"/>
                        </g>
                        <g transform="matrix(150,0,0,150,7910.95,1856.5)">
                            <path d="M0.489,-0.063C0.438,-0.013 0.376,0.012 0.303,0.012C0.23,0.012 0.168,-0.013 0.117,-0.064C0.066,-0.114 0.04,-0.176 0.04,-0.25C0.04,-0.324 0.066,-0.386 0.117,-0.437C0.168,-0.487 0.23,-0.512 0.303,-0.512C0.376,-0.512 0.439,-0.487 0.49,-0.437C0.541,-0.386 0.566,-0.324 0.566,-0.25C0.566,-0.176 0.54,-0.114 0.489,-0.063ZM0.163,-0.109C0.201,-0.071 0.248,-0.052 0.303,-0.052C0.358,-0.052 0.405,-0.071 0.443,-0.11C0.481,-0.148 0.5,-0.195 0.5,-0.25C0.5,-0.305 0.481,-0.352 0.443,-0.391C0.405,-0.429 0.358,-0.448 0.303,-0.448C0.248,-0.448 0.201,-0.429 0.163,-0.391C0.125,-0.352 0.106,-0.305 0.106,-0.25C0.106,-0.195 0.125,-0.148 0.163,-0.109Z" style="fill-rule:nonzero;"/>
                        </g>
                        <g transform="matrix(150,0,0,150,8010.85,1856.5)">
                            <path d="M0.136,-0.417C0.167,-0.478 0.219,-0.508 0.294,-0.508L0.294,-0.444C0.249,-0.444 0.211,-0.431 0.181,-0.404C0.151,-0.377 0.136,-0.335 0.136,-0.278L0.136,-0L0.07,-0L0.07,-0.5L0.136,-0.5L0.136,-0.417Z" style="fill-rule:nonzero;"/>
                        </g>
                        <g transform="matrix(150,0,0,150,8113.45,1856.5)">
                            <path d="M0.303,0.012C0.228,0.012 0.165,-0.013 0.115,-0.064C0.065,-0.114 0.04,-0.176 0.04,-0.25C0.04,-0.324 0.065,-0.386 0.115,-0.437C0.165,-0.487 0.228,-0.512 0.303,-0.512C0.352,-0.512 0.397,-0.5 0.436,-0.477C0.475,-0.453 0.504,-0.421 0.522,-0.381L0.468,-0.35C0.455,-0.38 0.433,-0.404 0.404,-0.422C0.374,-0.439 0.34,-0.448 0.303,-0.448C0.248,-0.448 0.201,-0.429 0.163,-0.391C0.125,-0.352 0.106,-0.305 0.106,-0.25C0.106,-0.195 0.125,-0.148 0.163,-0.11C0.201,-0.071 0.248,-0.052 0.303,-0.052C0.34,-0.052 0.374,-0.061 0.403,-0.079C0.432,-0.096 0.455,-0.12 0.472,-0.15L0.527,-0.118C0.506,-0.078 0.476,-0.046 0.436,-0.023C0.396,0 0.352,0.012 0.303,0.012Z" style="fill-rule:nonzero;"/>
                        </g>
                        <g transform="matrix(150,0,0,150,8205.25,1856.5)">
                            <rect x="0.07" y="-0.73" width="0.066" height="0.73" style="fill-rule:nonzero;"/>
                        </g>
                        <g transform="matrix(150,0,0,150,8245.15,1856.5)">
                            <path d="M0.137,-0.62C0.128,-0.611 0.116,-0.606 0.103,-0.606C0.09,-0.606 0.078,-0.611 0.069,-0.62C0.06,-0.629 0.055,-0.641 0.055,-0.654C0.055,-0.667 0.06,-0.679 0.069,-0.688C0.078,-0.697 0.09,-0.702 0.103,-0.702C0.116,-0.702 0.128,-0.697 0.137,-0.688C0.146,-0.679 0.151,-0.667 0.151,-0.654C0.151,-0.641 0.146,-0.629 0.137,-0.62ZM0.07,-0L0.07,-0.5L0.136,-0.5L0.136,-0L0.07,-0Z" style="fill-rule:nonzero;"/>
                        </g>
                        <g transform="matrix(150,0,0,150,8285.05,1856.5)">
                            <path d="M0.603,-0.512C0.659,-0.512 0.704,-0.494 0.739,-0.458C0.773,-0.422 0.79,-0.373 0.79,-0.312L0.79,-0L0.724,-0L0.724,-0.312C0.724,-0.355 0.713,-0.389 0.691,-0.413C0.668,-0.436 0.639,-0.448 0.602,-0.448C0.561,-0.448 0.527,-0.434 0.502,-0.407C0.476,-0.379 0.463,-0.336 0.463,-0.277L0.463,-0L0.397,-0L0.397,-0.312C0.397,-0.356 0.387,-0.39 0.366,-0.413C0.345,-0.436 0.316,-0.448 0.28,-0.448C0.24,-0.448 0.206,-0.434 0.178,-0.406C0.15,-0.378 0.136,-0.335 0.136,-0.277L0.136,-0L0.07,-0L0.07,-0.5L0.136,-0.5L0.136,-0.427C0.172,-0.484 0.223,-0.512 0.289,-0.512C0.361,-0.512 0.412,-0.482 0.441,-0.421C0.477,-0.482 0.531,-0.512 0.603,-0.512Z" style="fill-rule:nonzero;"/>
                        </g>
                        <g transform="matrix(150,0,0,150,8421.25,1856.5)">
                            <path d="M0.5,-0.5L0.566,-0.5L0.566,-0L0.5,-0L0.5,-0.098C0.454,-0.025 0.387,0.012 0.298,0.012C0.227,0.012 0.166,-0.013 0.116,-0.064C0.065,-0.115 0.04,-0.177 0.04,-0.25C0.04,-0.323 0.065,-0.385 0.116,-0.436C0.166,-0.487 0.227,-0.512 0.298,-0.512C0.387,-0.512 0.454,-0.475 0.5,-0.402L0.5,-0.5ZM0.163,-0.109C0.201,-0.071 0.248,-0.052 0.303,-0.052C0.358,-0.052 0.405,-0.071 0.443,-0.11C0.481,-0.148 0.5,-0.195 0.5,-0.25C0.5,-0.305 0.481,-0.352 0.443,-0.391C0.405,-0.429 0.358,-0.448 0.303,-0.448C0.248,-0.448 0.201,-0.429 0.163,-0.391C0.125,-0.352 0.106,-0.305 0.106,-0.25C0.106,-0.195 0.125,-0.148 0.163,-0.109Z" style="fill-rule:nonzero;"/>
                        </g>
                        <g transform="matrix(150,0,0,150,8525.65,1856.5)">
                            <path d="M0.335,-0.436L0.191,-0.436L0.191,-0.133C0.191,-0.106 0.196,-0.086 0.207,-0.075C0.218,-0.063 0.234,-0.057 0.255,-0.057C0.276,-0.056 0.303,-0.057 0.335,-0.058L0.335,-0C0.265,0.011 0.213,0.006 0.178,-0.015C0.142,-0.036 0.125,-0.075 0.125,-0.133L0.125,-0.436L0.02,-0.436L0.02,-0.5L0.125,-0.5L0.125,-0.62L0.191,-0.64L0.191,-0.5L0.335,-0.5L0.335,-0.436Z" style="fill-rule:nonzero;"/>
                        </g>
                        <g transform="matrix(150,0,0,150,8586.4,1856.5)">
                            <path d="M0.301,-0.512C0.375,-0.512 0.435,-0.486 0.481,-0.434C0.526,-0.381 0.549,-0.319 0.549,-0.248C0.549,-0.241 0.548,-0.23 0.547,-0.217L0.108,-0.217C0.115,-0.166 0.136,-0.126 0.173,-0.097C0.209,-0.067 0.254,-0.052 0.307,-0.052C0.345,-0.052 0.378,-0.06 0.406,-0.076C0.433,-0.091 0.454,-0.112 0.468,-0.137L0.526,-0.103C0.504,-0.068 0.474,-0.04 0.436,-0.019C0.398,0.002 0.355,0.012 0.306,0.012C0.227,0.012 0.163,-0.013 0.114,-0.062C0.065,-0.111 0.04,-0.174 0.04,-0.25C0.04,-0.325 0.064,-0.387 0.113,-0.437C0.162,-0.487 0.224,-0.512 0.301,-0.512ZM0.301,-0.448C0.249,-0.448 0.206,-0.433 0.171,-0.402C0.136,-0.371 0.115,-0.33 0.108,-0.281L0.481,-0.281C0.474,-0.334 0.454,-0.375 0.42,-0.404C0.386,-0.433 0.346,-0.448 0.301,-0.448Z" style="fill-rule:nonzero;"/>
                        </g>
                    </g>
                </g>
            </g>
        </g>
    </g>
</svg>
