<?xml version="1.0" encoding="UTF-8" standalone="no"?>
<!DOCTYPE svg PUBLIC "-//W3C//DTD SVG 1.1//EN" "http://www.w3.org/Graphics/SVG/1.1/DTD/svg11.dtd">
<svg width="100%" height="100%" viewBox="0 0 3834 1084" version="1.1" xmlns="http://www.w3.org/2000/svg" xmlns:xlink="http://www.w3.org/1999/xlink" xml:space="preserve" xmlns:serif="http://www.serif.com/" style="fill-rule:evenodd;clip-rule:evenodd;stroke-linejoin:round;stroke-miterlimit:2;">
    <g transform="matrix(1,0,0,1,-1096,-871)">
        <g id="All" transform="matrix(1,0,0,1,944,494)">
            <rect x="-944" y="-494" width="12878" height="5605" style="fill:none;"/>
            <g id="Logo" transform="matrix(0.808209,0,0,0.60085,-197.954,83.1841)">
                <rect x="433" y="489" width="4743" height="1803" style="fill:none;"/>
                <g transform="matrix(5.15543,0,0,6.93462,181.201,-127.553)">
                    <g transform="matrix(1,0,0,1,754.112,188.911)">
                        <path d="M0,96.994C37,133.996 96.989,133.995 133.987,96.993C133.987,96.993 74.324,129.403 20.958,76.035C-4.468,50.608 -4.469,9.384 20.956,-16.043L-0.002,-37.002C-37.001,0 -37,59.992 0,96.994" style="fill:rgb(215,25,32);fill-rule:nonzero;"/>
                    </g>
                    <g transform="matrix(1,0,0,1,754.106,248.9)">
                        <path d="M0,-96.988C-37,-59.989 -36.999,-0 0,36.999C0,36.999 -32.408,-22.665 20.958,-76.03C46.383,-101.455 87.605,-101.455 113.03,-76.029L133.988,-96.987C96.988,-133.987 37,-133.987 0,-96.988" style="fill:rgb(237,126,49);fill-rule:nonzero;"/>
                    </g>
                    <g transform="matrix(1,0,0,1,888.093,248.9)">
                        <path d="M0,-96.988C-37,-133.987 -96.988,-133.987 -133.988,-96.988C-133.988,-96.988 -74.324,-129.395 -20.958,-76.03C4.467,-50.605 4.467,-9.384 -20.958,16.041L0,36.999C36.999,-0 37,-59.989 0,-96.988" style="fill:rgb(37,189,190);fill-rule:nonzero;"/>
                    </g>
                    <g transform="matrix(1,0,0,1,888.093,188.912)">
                        <path d="M0,96.987C37,59.987 36.999,-0.001 0,-37C0,-37 32.408,22.664 -20.958,76.029C-46.383,101.454 -87.605,101.454 -113.03,76.029L-133.988,96.987C-96.988,133.987 -37,133.987 0,96.987" style="fill:rgb(163,207,98);fill-rule:nonzero;"/>
                    </g>
                    <g transform="matrix(0.707124,0.70709,0.70709,-0.707124,779.404,240.884)">
                        <path d="M13.949,-49.72C66.276,-49.722 108.695,-7.304 108.694,45.022C108.694,45.022 89.421,-20.083 13.949,-20.08L9.42,-40.597L13.949,-49.72Z" style="fill:rgb(215,25,32);fill-rule:nonzero;"/>
                    </g>
                    <g transform="matrix(-0.707107,-0.707107,-0.707107,0.707107,756,218.911)">
                        <path d="M-46.036,-111.141C-81.992,-111.141 -111.141,-81.992 -111.141,-46.036C-111.141,-10.08 -81.992,19.069 -46.036,19.069C-10.08,19.069 19.069,-10.08 19.069,-46.036C19.069,-81.992 -10.08,-111.141 -46.036,-111.141" style="fill:white;fill-rule:nonzero;"/>
                    </g>
                    <g transform="matrix(1,0,0,1,772.333,167.318)">
                        <path d="M0,22.036C2.255,20.868 15.014,12.616 14.898,12.732C15.15,12.732 21.089,3.515 21.561,1.766C21.568,1.762 21.574,1.759 21.581,1.755L20.168,0C10.877,5.078 3.075,12.549 -2.405,21.579L0,22.036Z" style="fill:rgb(209,211,212);fill-rule:nonzero;"/>
                    </g>
                    <g transform="matrix(1,0,0,1,815.188,183.435)">
                        <path d="M0,-2.629C-0.118,-2.845 0.882,-4.77 0.882,-4.896C0.756,-5.022 -0.478,-4.721 -1.148,-4.567C-1.675,-4.445 -2.005,-4.281 -1.817,-3.729C-1.629,-3.177 -0.912,-0.936 -1.133,-0.221C-1.355,0.493 -1.588,1.555 -1.714,1.429C-2.092,1.429 -2.311,1.92 -2.267,2.156C-2.223,2.393 2.042,1.87 2.394,0.132C1.89,0.006 0.118,-2.413 0,-2.629" style="fill:rgb(209,211,212);fill-rule:nonzero;"/>
                    </g>
                    <g transform="matrix(1,0,0,1,797.558,163.642)">
                        <path d="M0,11.245C0.882,11.119 13.223,6.963 13.475,6.837C13.601,6.711 19.938,3.118 20.945,1.858C21.071,1.732 20.905,0.919 20.527,0.667C19.508,0 12.467,0.919 11.208,1.17C11.46,1.422 -0.467,9.716 -0.504,10.112C-0.54,10.507 0,10.993 0,11.245" style="fill:rgb(209,211,212);fill-rule:nonzero;"/>
                    </g>
                    <g transform="matrix(1,0,0,1,807.627,199.571)">
                        <path d="M0,33.668C1.824,34.67 10.127,32.531 16.88,35.134C17.762,35.474 23.935,68.159 24.562,69.388C25.189,70.616 42.204,60.09 48.355,47.538C48.512,47.218 47.412,40.797 55.038,30.978C55.919,29.845 58.341,21.671 56.801,21.407C55.416,22.667 51.851,24.348 51.26,24.304C50.668,24.259 39.621,7.994 39.17,7.051C38.719,6.108 40.02,5.476 40.556,6.122C41.092,6.768 51.008,22.163 51.386,22.289C51.89,22.415 59.823,15.362 60.075,14.481C60.201,14.229 61.933,10.303 61.083,9.066C60.825,8.692 55.667,8.31 54.408,8.688C54.156,8.814 50.161,4.818 49.371,3.777C48.581,2.736 61.964,5.036 62.09,5.036C62.961,4.912 71.315,19.634 71.525,20.368L73.295,20.085C73.276,14.361 72.4,8.881 70.905,3.525C65.994,-13.476 53.527,-27.455 37.533,-34.507C35.431,-35.45 33.253,-36.262 31.017,-36.948L30.068,-34.5C30.384,-32.951 28.398,-30.102 27.962,-29.218C27.456,-28.191 24.058,-28.714 23.051,-28.966C21.54,-29.218 19.903,-29.47 18.643,-28.714C17.384,-27.959 13.631,-23.244 13.379,-22.488C13.002,-21.732 12.724,-21.224 13.48,-20.846C14.488,-20.343 15.495,-20.906 16.376,-21.662C16.628,-21.032 17.51,-18.513 18.014,-18.387C18.517,-18.387 18.931,-18.744 19.147,-19.143C20.184,-21.062 21.569,-21.989 25.696,-23.173C26.073,-22.921 20.649,-16.302 16.129,-17.036C15.5,-17.414 15.727,-17.79 15.873,-18.891C15.495,-19.143 15.117,-19.021 14.613,-18.895L14.613,-17.128C14.236,-16.624 12.611,-16.76 12.285,-16.182C11.958,-15.604 8.917,-13.095 5.294,-12.343C4.623,-12.204 6.176,-7.683 6.05,-7.809C4.287,-7.935 2.524,-8.061 0.761,-8.187C0.761,-6.424 -0.247,-2.142 -0.498,-1.89C0.131,-1.261 1.894,-0.757 2.146,-0.631C2.398,-0.505 5.546,-1.261 6.176,-1.639C6.302,-1.764 6.639,-1.612 6.68,-1.89C7.622,-8.273 15.747,-7.683 16.376,-7.054C17.132,-6.172 20.406,-4.283 20.784,-3.779C21.162,-3.276 21.162,-2.394 20.658,-2.016C20.658,-1.764 20.91,-1.764 21.036,-1.764C21.918,-2.016 22.295,-3.402 21.666,-4.031C21.945,-4.072 22.558,-3.828 22.732,-3.491C22.983,-3.365 23.177,-3.905 23.177,-4.157C21.792,-5.039 17.384,-8.187 17.762,-9.069C18.265,-9.32 18.886,-9.426 19.399,-9.194C24.369,-6.949 26.56,-0.609 27.836,-0.883C28.214,-1.513 31.306,-5.906 31.432,-6.032C31.054,-6.41 30.229,-6.537 30.194,-7.205C30.158,-7.874 32.877,-11.31 36.4,-10.328C36.526,-10.202 39.8,-8.691 41.437,-7.935C40.035,-4.827 36.526,-7.18 35.77,-7.054C34.637,-6.928 31.153,-3.177 30.523,-3.051C31.153,-2.548 32.37,-1.261 33,-1.009C33.503,-0.757 38.415,-1.764 39.044,-1.764C39.044,-0.505 38.918,3.525 38.289,4.028C38.037,4.154 16.754,2.517 16.754,2.391C16.628,1.888 17.722,0.24 17.05,-0.225C16.378,-0.69 4.495,0.24 2.398,0.376C-0.479,2.497 -3.616,5.724 -4.938,7.909C-8.802,14.296 -9.834,16.216 -9.858,21.167C-9.882,26.117 -1.262,32.975 0,33.668" style="fill:rgb(209,211,212);fill-rule:nonzero;"/>
                    </g>
                    <g transform="matrix(1,0,0,1,776.438,213.986)">
                        <path d="M0,42.424C-0.012,42.409 -0.025,42.395 -0.037,42.38C-0.163,41.624 3.741,27.142 2.482,25.127C2.104,24.371 -1.631,22.246 -3.312,20.845C-8.363,16.634 -11.91,1.449 -12.533,-1.37L-14.687,-1.529C-14.986,0.893 -15.149,3.357 -15.149,5.859C-15.149,20.323 -9.994,33.6 -1.424,43.953L0,42.424Z" style="fill:rgb(209,211,212);fill-rule:nonzero;"/>
                    </g>
                    <g transform="matrix(1,0,0,1,113.633,194.775)">
                        <path d="M0,16.129L20.335,16.129L10.168,-10.818L0,16.129ZM26.799,33.265L22.127,20.881L-1.792,20.881L-6.465,33.265L-11.793,33.265L7.574,-17.136L12.76,-17.136L32.127,33.265L26.799,33.265Z" style="fill:rgb(35,31,32);fill-rule:nonzero;"/>
                    </g>
                    <g transform="matrix(1,0,0,1,157.279,182.392)">
                        <path d="M0,40.896L23.04,40.896L23.04,45.648L-5.04,45.648L-5.04,-4.752L0,-4.752L0,40.896Z" style="fill:rgb(35,31,32);fill-rule:nonzero;"/>
                    </g>
                    <g transform="matrix(1,0,0,1,192.558,182.392)">
                        <path d="M0,40.896L23.04,40.896L23.04,45.648L-5.04,45.648L-5.04,-4.752L0,-4.752L0,40.896Z" style="fill:rgb(35,31,32);fill-rule:nonzero;"/>
                    </g>
                    <g transform="matrix(1,0,0,1,277.158,228.04)">
                        <path d="M0,-50.4L-18.217,-20.662L-18.217,0L-23.257,0L-23.257,-20.805L-41.4,-50.4L-35.712,-50.4L-20.652,-25.696L-5.688,-50.4L0,-50.4Z" style="fill:rgb(35,31,32);fill-rule:nonzero;"/>
                    </g>
                    <g transform="matrix(1,0,0,1,288.245,187.83)">
                        <path d="M0,30.022C4.032,34.126 9.024,36.178 14.977,36.178C20.928,36.178 25.921,34.126 29.952,30.022C33.984,25.918 36,20.915 36,15.01C36,9.107 33.984,4.102 29.952,-0.001C25.921,-4.106 20.928,-6.158 14.977,-6.158C9.024,-6.158 4.032,-4.106 0,-0.001C-4.031,4.102 -6.048,9.107 -6.048,15.01C-6.048,20.915 -4.031,25.918 0,30.022M33.48,33.478C28.44,38.543 22.272,41.075 14.977,41.075C7.68,41.075 1.513,38.543 -3.527,33.478C-8.567,28.415 -11.088,22.259 -11.088,15.01C-11.088,7.763 -8.567,1.607 -3.527,-3.457C1.513,-8.521 7.68,-11.053 14.977,-11.053C22.272,-11.053 28.44,-8.521 33.48,-3.457C38.521,1.607 41.04,7.763 41.04,15.01C41.04,22.259 38.521,28.415 33.48,33.478" style="fill:rgb(35,31,32);fill-rule:nonzero;"/>
                    </g>
                    <g transform="matrix(1,0,0,1,369.1,182.536)">
                        <path d="M0,41.472C-3.456,44.737 -7.968,46.368 -13.536,46.368C-19.104,46.368 -23.615,44.737 -27.071,41.472C-30.527,38.208 -32.256,33.84 -32.256,28.368L-32.256,-4.896L-27.216,-4.896L-27.216,28.368C-27.216,32.401 -26.017,35.593 -23.615,37.945C-21.216,40.296 -17.855,41.472 -13.536,41.472C-9.216,41.472 -5.856,40.296 -3.456,37.945C-1.056,35.593 0.145,32.401 0.145,28.368L0.145,-4.896L5.185,-4.896L5.185,28.368C5.185,33.84 3.456,38.208 0,41.472" style="fill:rgb(35,31,32);fill-rule:nonzero;"/>
                    </g>
                    <g transform="matrix(1,0,0,1,426.628,176.776)">
                        <path d="M0,52.128C-7.632,52.128 -13.944,49.607 -18.936,44.567C-23.929,39.527 -26.424,33.36 -26.424,26.064C-26.424,18.768 -23.929,12.6 -18.936,7.56C-13.944,2.52 -7.632,0 0,0C4.655,0 8.928,1.115 12.816,3.348C16.704,5.58 19.703,8.593 21.816,12.384L17.352,14.976C15.768,11.904 13.416,9.456 10.296,7.632C7.176,5.808 3.744,4.896 0,4.896C-6.289,4.896 -11.425,6.937 -15.408,11.016C-19.393,15.096 -21.384,20.112 -21.384,26.064C-21.384,32.016 -19.393,37.032 -15.408,41.111C-11.425,45.192 -6.289,47.232 0,47.232C3.744,47.232 7.176,46.32 10.296,44.496C13.416,42.672 15.768,40.224 17.352,37.151L21.816,39.672C19.752,43.464 16.764,46.488 12.852,48.744C8.939,51 4.655,52.128 0,52.128" style="fill:rgb(35,31,32);fill-rule:nonzero;"/>
                    </g>
                    <g transform="matrix(1,0,0,1,462.757,194.775)">
                        <path d="M0,16.129L20.335,16.129L10.168,-10.818L0,16.129ZM26.799,33.265L22.127,20.881L-1.792,20.881L-6.465,33.265L-11.793,33.265L7.574,-17.136L12.76,-17.136L32.127,33.265L26.799,33.265Z" style="fill:rgb(35,31,32);fill-rule:nonzero;"/>
                    </g>
                    <g transform="matrix(1,0,0,1,533.764,228.04)">
                        <path d="M0,-50.4L5.04,-50.4L5.04,0L0.72,0L-27.36,-41.04L-27.36,0L-32.4,0L-32.4,-50.4L-28.007,-50.4L0,-9.467L0,-50.4Z" style="fill:rgb(35,31,32);fill-rule:nonzero;"/>
                    </g>
                    <g transform="matrix(1,0,0,1,580.563,190.888)">
                        <path d="M0,23.904L18.72,23.904L18.72,37.152L-14.4,37.152L-14.4,-13.248L18.359,-13.248L18.359,-0.144L0,-0.144L0,5.328L16.56,5.328L16.56,18.288L0,18.288L0,23.904Z" style="fill:rgb(35,31,32);fill-rule:nonzero;"/>
                    </g>
                    <g transform="matrix(1,0,0,1,627.506,195.64)">
                        <path d="M0,14.4L8.353,14.4L4.176,-1.08L0,14.4ZM13.176,32.4L11.448,25.92L-3.096,25.92L-4.824,32.4L-20.304,32.4L-4.248,-18L12.601,-18L28.656,32.4L13.176,32.4Z" style="fill:rgb(35,31,32);fill-rule:nonzero;"/>
                    </g>
                    <g transform="matrix(1,0,0,1,696.482,228.04)">
                        <path d="M0,-50.4L0,-36.431L-11.88,-36.431L-11.88,0L-26.28,0L-26.28,-36.431L-38.16,-36.431L-38.16,-50.4L0,-50.4Z" style="fill:rgb(35,31,32);fill-rule:nonzero;"/>
                    </g>
                    <g transform="matrix(1,0,0,1,505.445,272.786)">
                        <path d="M0,-20.857C-1.752,-21 -3.055,-20.701 -3.906,-19.957C-4.758,-19.212 -5.184,-17.976 -5.184,-16.248L-5.184,-15.529L0,-15.529L0,-13.224L-5.184,-13.224L-5.184,2.471L-7.56,2.471L-7.56,-13.224L-10.62,-13.224L-10.62,-15.529L-7.56,-15.529L-7.56,-16.248C-7.56,-18.601 -6.906,-20.382 -5.598,-21.595C-4.29,-22.806 -2.425,-23.328 0,-23.16L0,-20.857Z" style="fill:rgb(35,31,32);fill-rule:nonzero;"/>
                    </g>
                    <g transform="matrix(1,0,0,1,512.392,261.199)">
                        <path d="M0,10.117C1.368,11.498 3.048,12.187 5.04,12.187C7.032,12.187 8.712,11.498 10.08,10.117C11.448,8.736 12.132,7.051 12.132,5.058C12.132,3.066 11.448,1.381 10.08,0.002C8.712,-1.379 7.032,-2.069 5.04,-2.069C3.048,-2.069 1.368,-1.379 0,0.002C-1.367,1.381 -2.052,3.066 -2.052,5.058C-2.052,7.051 -1.367,8.736 0,10.117M11.754,11.773C9.918,13.586 7.68,14.49 5.04,14.49C2.4,14.49 0.162,13.586 -1.674,11.773C-3.51,9.961 -4.428,7.722 -4.428,5.058C-4.428,2.394 -3.51,0.158 -1.674,-1.654C0.162,-3.467 2.4,-4.373 5.04,-4.373C7.68,-4.373 9.918,-3.467 11.754,-1.654C13.59,0.158 14.508,2.394 14.508,5.058C14.508,7.722 13.59,9.961 11.754,11.773" style="fill:rgb(35,31,32);fill-rule:nonzero;"/>
                    </g>
                    <g transform="matrix(1,0,0,1,535.395,271.982)">
                        <path d="M0,-11.737C1.104,-13.921 3,-15.012 5.688,-15.012L5.688,-12.71C4.056,-12.71 2.7,-12.229 1.62,-11.268C0.54,-10.309 0,-8.798 0,-6.733L0,3.275L-2.376,3.275L-2.376,-14.725L0,-14.725L0,-11.737Z" style="fill:rgb(35,31,32);fill-rule:nonzero;"/>
                    </g>
                    <g transform="matrix(1,0,0,1,566.031,256.826)">
                        <path d="M0,18.863C-2.713,18.863 -4.968,17.959 -6.768,16.146C-8.568,14.334 -9.468,12.095 -9.468,9.431C-9.468,6.767 -8.568,4.531 -6.768,2.718C-4.968,0.906 -2.713,0 0,0C1.775,0 3.371,0.426 4.788,1.277C6.203,2.131 7.235,3.275 7.884,4.717L5.939,5.832C5.459,4.752 4.686,3.894 3.618,3.258C2.55,2.623 1.344,2.304 0,2.304C-1.992,2.304 -3.672,2.994 -5.04,4.375C-6.408,5.754 -7.092,7.439 -7.092,9.431C-7.092,11.424 -6.408,13.109 -5.04,14.49C-3.672,15.871 -1.992,16.56 0,16.56C1.344,16.56 2.543,16.242 3.6,15.605C4.655,14.97 5.483,14.111 6.084,13.031L8.063,14.183C7.319,15.625 6.228,16.763 4.788,17.603C3.348,18.443 1.751,18.863 0,18.863" style="fill:rgb(35,31,32);fill-rule:nonzero;"/>
                    </g>
                    <g transform="matrix(1,0,0,1,-8.50394,-525.055)">
                        <rect x="588.179" y="774.033" width="2.376" height="26.279" style="fill:rgb(35,31,32);"/>
                    </g>
                    <g transform="matrix(1,0,0,1,-8.50394,-524.048)">
                        <path d="M597.754,781.305L600.13,781.305L600.13,799.305L597.754,799.305L597.754,781.305ZM600.166,776.985C599.83,777.323 599.422,777.489 598.942,777.489C598.462,777.489 598.054,777.323 597.718,776.985C597.382,776.649 597.214,776.242 597.214,775.762C597.214,775.282 597.382,774.873 597.718,774.537C598.054,774.201 598.462,774.033 598.942,774.033C599.422,774.033 599.83,774.201 600.166,774.537C600.502,774.873 600.67,775.282 600.67,775.762C600.67,776.242 600.502,776.649 600.166,776.985" style="fill:rgb(35,31,32);fill-rule:nonzero;"/>
                    </g>
                    <g transform="matrix(1,0,0,1,618.013,275.257)">
                        <path d="M0,-18.432C2.017,-18.432 3.642,-17.784 4.878,-16.489C6.114,-15.192 6.732,-13.44 6.732,-11.233L6.732,0L4.356,0L4.356,-11.233C4.356,-12.791 3.954,-13.998 3.15,-14.85C2.346,-15.702 1.284,-16.127 -0.036,-16.127C-1.524,-16.127 -2.73,-15.629 -3.653,-14.633C-4.578,-13.637 -5.04,-12.084 -5.04,-9.971L-5.04,0L-7.416,0L-7.416,-11.233C-7.416,-12.817 -7.794,-14.028 -8.55,-14.868C-9.306,-15.707 -10.331,-16.127 -11.628,-16.127C-13.067,-16.127 -14.291,-15.623 -15.3,-14.616C-16.308,-13.608 -16.812,-12.059 -16.812,-9.971L-16.812,0L-19.187,0L-19.187,-18L-16.812,-18L-16.812,-15.371C-15.516,-17.412 -13.68,-18.432 -11.304,-18.432C-8.712,-18.432 -6.888,-17.34 -5.832,-15.157C-4.535,-17.34 -2.592,-18.432 0,-18.432" style="fill:rgb(35,31,32);fill-rule:nonzero;"/>
                    </g>
                    <g transform="matrix(1,0,0,1,634.86,261.199)">
                        <path d="M0,10.117C1.368,11.498 3.048,12.187 5.04,12.187C7.031,12.187 8.712,11.498 10.08,10.117C11.447,8.736 12.132,7.051 12.132,5.058C12.132,3.066 11.447,1.381 10.08,0.002C8.712,-1.379 7.031,-2.069 5.04,-2.069C3.048,-2.069 1.368,-1.379 0,0.002C-1.368,1.381 -2.052,3.066 -2.052,5.058C-2.052,7.051 -1.368,8.736 0,10.117M12.132,-3.942L14.508,-3.942L14.508,14.058L12.132,14.058L12.132,10.531C10.476,13.172 8.052,14.49 4.86,14.49C2.292,14.49 0.102,13.58 -1.71,11.756C-3.522,9.931 -4.428,7.699 -4.428,5.058C-4.428,2.42 -3.522,0.187 -1.71,-1.637C0.102,-3.461 2.292,-4.373 4.86,-4.373C8.052,-4.373 10.476,-3.053 12.132,-0.412L12.132,-3.942Z" style="fill:rgb(35,31,32);fill-rule:nonzero;"/>
                    </g>
                    <g transform="matrix(1,0,0,1,666.106,268.298)">
                        <path d="M0,-8.736L-5.184,-8.736L-5.184,2.172C-5.184,3.157 -4.991,3.858 -4.607,4.278C-4.224,4.698 -3.647,4.914 -2.88,4.926C-2.111,4.938 -1.151,4.92 0,4.871L0,6.959C-2.52,7.344 -4.409,7.164 -5.67,6.42C-6.93,5.676 -7.56,4.26 -7.56,2.172L-7.56,-8.736L-11.339,-8.736L-11.339,-11.041L-7.56,-11.041L-7.56,-15.361L-5.184,-16.08L-5.184,-11.041L0,-11.041L0,-8.736Z" style="fill:rgb(35,31,32);fill-rule:nonzero;"/>
                    </g>
                    <g transform="matrix(1,0,0,1,679.463,273.384)">
                        <path d="M0,-14.254C-1.872,-14.254 -3.438,-13.697 -4.698,-12.58C-5.958,-11.465 -6.708,-10.018 -6.948,-8.242L6.479,-8.242C6.24,-10.139 5.508,-11.613 4.284,-12.67C3.06,-13.727 1.632,-14.254 0,-14.254M0,-16.559C2.664,-16.559 4.817,-15.617 6.462,-13.733C8.105,-11.848 8.928,-9.623 8.928,-7.055C8.928,-6.791 8.903,-6.418 8.855,-5.938L-6.948,-5.938C-6.708,-4.115 -5.935,-2.668 -4.626,-1.6C-3.318,-0.533 -1.704,0.002 0.216,0.002C1.584,0.002 2.766,-0.281 3.762,-0.844C4.758,-1.408 5.508,-2.147 6.012,-3.059L8.1,-1.834C7.308,-0.563 6.228,0.445 4.86,1.189C3.492,1.933 1.932,2.305 0.18,2.305C-2.652,2.305 -4.956,1.418 -6.731,-0.359C-8.508,-2.135 -9.396,-4.391 -9.396,-7.127C-9.396,-9.815 -8.52,-12.059 -6.768,-13.859C-5.017,-15.658 -2.76,-16.559 0,-16.559" style="fill:rgb(35,31,32);fill-rule:nonzero;"/>
                    </g>
                </g>
            </g>
        </g>
    </g>
</svg>
