<svg xmlns="http://www.w3.org/2000/svg" width="244" height="31" viewBox="0 0 244 31">
  <g id="Page-1" fill="none" fill-rule="evenodd" stroke="none" stroke-width="1">
    <g id="logo" fill="#000" fill-rule="nonzero" transform="translate(40 1)">
      <path id="0" d="M5.56666667,28.9003333 L0,28.9003333 L2.76666667,0.267 L12.4666667,0.267 L15.2,28.9003333 L9.76666667,28.9003333 L9.36666667,24.267 L5.9,24.267 L5.56666667,28.9003333 Z M7.4,5.13366667 L6.33333333,19.7003333 L8.93333333,19.7003333 L7.66666667,5.13366667 L7.4,5.13366667 Z"/>
      <polygon id="1" points="28.567 28.9 16.933 28.9 16.933 .267 22.667 .267 22.667 24.034 28.567 24.034"/>
      <polygon id="2" points="41.8 28.9 30.167 28.9 30.167 .267 35.9 .267 35.9 24.034 41.8 24.034"/>
      <polygon id="4" points="60.067 28.9 54.667 28.9 54.667 19.467 50.1 .267 55.767 .267 57.367 9.967 58.967 .267 64.633 .267 60.067 19.467"/>
      <path id="5" d="M65.8333333,21.1003333 L65.8333333,7.467 C65.8288279,6.75979588 65.8861573,6.05355173 66.0046667,5.35633333 C66.1406667,4.58833333 66.3574444,3.90188889 66.655,3.297 C66.9066408,2.77846935 67.2366175,2.30177389 67.6333333,1.88366667 C68.3357281,1.16082831 69.2159856,0.635570876 70.1856667,0.360666667 C70.7845556,0.180444444 71.4432222,0.0677777778 72.1616667,0.0226666667 C72.4074844,0.00751853925 72.6537161,6.73271195e-05 72.9,6.73271195e-05 C73.5879995,-0.00463999293 74.2747315,0.0601355058 74.9496667,0.193666667 C76.2787778,0.467 77.3511111,1.03033333 78.1666667,1.88366667 C78.7685161,2.52665584 79.2198534,3.29543216 79.488,4.13433333 C79.6948889,4.75033333 79.8347778,5.434 79.9076667,6.18533333 C79.9479204,6.61135904 79.9676099,7.03907784 79.9666667,7.467 L79.9666667,21.1003333 C79.9714369,21.8782649 79.9080839,22.6551203 79.7773333,23.422 C79.6295556,24.2566667 79.395,25.0062222 79.0736667,25.6706667 C78.8330273,26.1733968 78.5281466,26.6427629 78.1666667,27.067 C77.3626596,27.9957712 76.2837415,28.6443364 75.0863333,28.9186667 C74.4232222,29.0842222 73.6944444,29.167 72.9,29.167 C70.5888889,29.167 68.8333333,28.4614444 67.6333333,27.0503333 C66.6208889,25.8596667 66.0355556,24.2616667 65.8773333,22.2563333 C65.8475101,21.8717263 65.8328321,21.4860946 65.8333333,21.1003333 L65.8333333,21.1003333 Z M74.200012,21.367 L74.200012,7.367 C74.200012,6.74477778 74.1166667,6.23922222 73.95,5.85033333 C73.8395697,5.57685683 73.6018052,5.37510594 73.314,5.31066667 C73.2,5.28155556 73.0731111,5.267 72.9333333,5.267 C72.4513871,5.23907452 71.9992693,5.5013999 71.7843333,5.93366667 C71.6067778,6.26788889 71.5123333,6.72788889 71.501,7.31366667 C71.5002844,7.35366257 71.4999511,7.39366439 71.4999953,7.43366667 L71.4999953,21.4003333 C71.4999953,22.1341111 71.5796667,22.7085556 71.739,23.1236667 C71.7575083,23.1722007 71.7778563,23.2200131 71.8,23.267 C71.9342295,23.570768 72.2061563,23.7916078 72.531,23.8606667 C72.6520651,23.8880363 72.7758838,23.9013465 72.9,23.9003871 C73.4111111,23.9003871 73.7555556,23.6781111 73.9333333,23.2336667 C73.9983647,23.0668259 74.0486678,22.8946132 74.0836667,22.719 C74.1563333,22.3698889 74.195,21.9528889 74.1996667,21.468 C74.1999398,21.4343341 74.2000509,21.400667 74.200012,21.367 Z"/>
      <path id="6" d="M81.9333333,21.2336667 L81.9333333,0.267 L87.5,0.267 L87.5,21.0003333 C87.499374,21.2653337 87.508046,21.5302745 87.526,21.7946667 C87.5608889,22.2882222 87.6306667,22.7028889 87.7353333,23.0386667 C87.7452655,23.0705 87.7557113,23.1021708 87.7666667,23.1336667 C87.9115556,23.5503333 88.1894444,23.7971111 88.6003333,23.874 C88.6991949,23.8920113 88.7995123,23.9008267 88.9,23.9003333 C89.0485577,23.9021421 89.1965775,23.8821516 89.3393333,23.841 C89.6584444,23.7447778 89.8835556,23.5311111 90.0146667,23.2 C90.0211806,23.1835555 90.0274038,23.1669974 90.0333333,23.1503333 C90.194,22.6985556 90.2821111,22.0701111 90.2976667,21.265 C90.2992946,21.1767873 90.3000724,21.088561 90.3,21.0003333 L90.3,0.267 L95.8666667,0.267 L95.8666667,21.2336667 C95.8666667,22.9298889 95.6272222,24.3565556 95.1483333,25.5136667 C94.9055531,26.1143401 94.5685443,26.6724582 94.15,27.167 C93.463098,27.9540528 92.5627622,28.5250991 91.558,28.811 C90.9742222,28.989 90.3298889,29.1002222 89.625,29.1446667 C89.3836279,29.1597237 89.1418412,29.1670029 88.9,29.1670029 C87.2315556,29.1670029 85.8668889,28.8325556 84.806,28.1636667 C84.3728289,27.8913458 83.9831277,27.5553578 83.65,27.167 C83.126155,26.5423369 82.7276601,25.8225336 82.4763333,25.047 C82.1143333,23.9796667 81.9333333,22.7085556 81.9333333,21.2336667 Z"/>
      <path id="8" d="M105.633333,21.8003333 L105.633333,8.60033333 C105.629425,7.81505294 105.679431,7.03043056 105.783,6.252 C106.019667,4.54422222 106.536444,3.18255556 107.333333,2.167 C108.043907,1.27346397 109.021277,0.630214537 110.123,0.331 C110.732111,0.151888889 111.406,0.0455555556 112.144667,0.012 C112.318556,0.00415969898 112.492601,4.99902258e-05 112.666667,4.99902258e-05 C113.40759,-0.00541683279 114.146599,0.0763720368 114.868333,0.244 C115.944408,0.488746054 116.941306,1.001125 117.766667,1.73366667 C118.613792,2.50207623 119.205113,3.51161517 119.461,4.62633333 C119.620333,5.26566667 119.7,5.96811111 119.7,6.73366667 L119.7,11.667 L114,11.667 L114,7.43366667 C114.000561,7.24528697 113.994446,7.05694655 113.981667,6.869 C113.955889,6.51011111 113.903667,6.21933333 113.825,5.99666667 C113.793566,5.9044929 113.751623,5.81624508 113.7,5.73366667 C113.513556,5.44366667 113.201556,5.28877778 112.764,5.269 C112.731575,5.26760576 112.699122,5.26693893 112.666667,5.267 C112.535273,5.26577093 112.404179,5.27975284 112.276,5.30866667 C112.107778,5.34822222 111.965222,5.41633333 111.848333,5.513 C111.752869,5.59251447 111.674127,5.69017726 111.616667,5.80033333 C111.547539,5.93391152 111.493859,6.07493247 111.456667,6.22066667 C111.381333,6.50444444 111.340556,6.84933333 111.334333,7.25533333 C111.333713,7.29255243 111.33338,7.32977576 111.333333,7.367 L111.333333,21.7336667 C111.33269,21.9251746 111.341033,22.1166073 111.358333,22.3073333 C111.394111,22.6855556 111.468222,22.9927778 111.580667,23.229 C111.60601,23.2823345 111.634735,23.3339953 111.666667,23.3836667 C111.83707,23.6597058 112.123176,23.8438675 112.445,23.8846667 C112.518407,23.8952962 112.592494,23.9005325 112.666667,23.9003333 C113.119088,23.9210482 113.538623,23.6644973 113.726333,23.2523333 C113.890111,22.9307778 113.980444,22.4895556 113.997333,21.9286667 C113.999187,21.8636834 114.000076,21.7986763 114,21.7336667 L114,16.567 L119.766667,16.567 L119.766667,21.967 C119.766667,26.767 117.355556,29.167 112.533333,29.167 C111.777796,29.1738975 111.025023,29.0748219 110.297,28.8726667 C109.236579,28.5756675 108.276006,27.9978959 107.516667,27.2003333 C106.721741,26.358205 106.165052,25.3198355 105.903667,24.1916667 C105.734778,23.5101111 105.645,22.7668889 105.634333,21.962 C105.633647,21.9081139 105.633313,21.8542238 105.633333,21.8003333 L105.633333,21.8003333 Z"/>
      <path id="9" d="M126.466667,28.9003333 L120.9,28.9003333 L123.666667,0.267 L133.366667,0.267 L136.1,28.9003333 L130.666667,28.9003333 L130.266667,24.267 L126.8,24.267 L126.466667,28.9003333 Z M128.3,5.13366667 L127.233333,19.7003333 L129.833333,19.7003333 L128.566667,5.13366667 L128.3,5.13366667 Z"/>
      <polygon id="10" points="143.433 28.9 137.833 28.9 137.833 .267 143.733 .267 146.367 13.967 146.367 .267 151.9 .267 151.9 28.9 146.3 28.9 143.433 14.567"/>
      <polygon id="12" points="174.067 28.9 162.233 28.9 162.233 .267 173.7 .267 173.7 5.8 168.067 5.8 168.067 11.367 173.467 11.367 173.467 16.767 168.067 16.767 168.067 23.334 174.067 23.334"/>
      <path id="13" d="M180.766667,28.9003333 L175.2,28.9003333 L177.966667,0.267 L187.666667,0.267 L190.4,28.9003333 L184.966667,28.9003333 L184.566667,24.267 L181.1,24.267 L180.766667,28.9003333 Z M182.6,5.13366667 L181.533333,19.7003333 L184.133333,19.7003333 L182.866667,5.13366667 L182.6,5.13366667 Z"/>
      <polygon id="14" points="200.333 28.9 194.6 28.9 194.6 5.767 191.2 5.767 191.2 .267 203.733 .267 203.733 5.767 200.333 5.767"/>
    </g>
    <g id="favicon" fill-rule="nonzero" transform="translate(0 1)">
      <path id="Path" fill="#EBE53F" d="M16.9943479,5.31080041 C14.6113976,4.52928115 11.9864744,5.25188845 10.3568145,7.13802722 C8.68534438,9.10309214 8.54411532,11.9268399 10.0113666,14.0449447 C11.2416927,16.19745 13.7164865,17.3459041 16.180078,16.9076 C18.9319436,16.3590982 20.9322963,14.0021599 20.9978416,11.2310154 C21.0671098,8.61981902 19.4635291,6.24850453 16.9943479,5.31080041 L16.9943479,5.31080041 Z" opacity=".5"/>
      <path id="Path" fill="#31E085" d="M26.9449143,5.12279505 C22.4575019,6.07384641 22.5851926,12.2495837 21.0285834,15.4868163 C19.4719742,18.7240488 16.2371458,21.9490883 12.2726569,21.8576411 C10.4038744,21.7761479 8.61985668,21.0529167 7.21975764,19.8092228 C5.94285171,18.650891 5.3956063,16.9804546 4.14302238,15.8587017 C3.76080445,15.5044645 3.19611591,15.4333866 2.73842584,15.6819037 C-0.0403647205,17.7547079 0.975079531,21.7783868 2.58033272,24.3084272 C4.72105725,27.6595638 8.34497147,29.7669574 12.30914,29.9659635 C21.8859345,30.5756118 29.0670103,22.9001396 31.5478561,14.5967297 C32.4720928,11.3777867 32.4356098,3.95836678 26.9449143,5.12279505 Z" opacity=".5"/>
      <path id="Path-dark" fill="#324C5E" d="M15.9683297,18.8991721 C20.0414844,18.2443391 21.4412372,13.4771547 21.9456527,9.78389638 C22.5005096,5.67809334 18.6984783,4.83990707 15.4828298,5.02326031 C14.6757652,5.07564695 14.6694599,6.38531301 15.4828298,6.33292636 C16.7438684,6.24779807 18.528238,6.1037348 19.6253416,6.88953447 C21.2142502,8.02894392 20.6972245,9.73805812 20.3378284,11.3162057 C19.7073091,14.118891 18.5723744,17.3210246 15.4071675,17.6156994 C9.73249386,18.1395658 4.92793679,10.9102092 11.2142142,7.54436743 C11.9393114,7.15801601 11.3024869,6.03170317 10.5836949,6.41805466 C2.98593735,10.510761 8.75518895,20.0844199 15.9683297,18.8991721 Z"/>
      <path id="Path-dark" fill="#324C5E" d="M13.4447816,6.89543044 C13.8071056,6.71551644 14.0253238,6.3350475 13.9976448,5.93149983 C13.9699658,5.52795218 13.7018428,5.18083315 13.3183464,5.05206228 C12.9348499,4.9232914 12.5115369,5.03823923 12.2458688,5.34328644 C11.9802006,5.64833364 11.9245196,6.08337949 12.104799,6.44548952 C12.3507489,6.93950544 12.9504737,7.14088178 13.4447816,6.89543044 L13.4447816,6.89543044 Z"/>
      <path id="Shape-dark" fill="#324C5E" d="M30.8056128,5.95959243 C30.7948881,5.92386691 30.7803114,5.8893499 30.7621268,5.85661944 C30.7140726,4.74936002 30.3000227,3.68695071 29.5817918,2.82800209 C25.481681,-2.4417921 17.6417721,1.04717509 12.4358738,2.22833586 C8.70850031,3.08240595 5.04946201,3.63361431 2.33469165,6.58954487 C0.574006767,8.52204658 -0.251665614,11.0982519 0.0672061098,13.664395 C0.0691276103,13.6845423 0.0691276103,13.70482 0.0672061098,13.7249674 C-0.311743528,17.7712001 0.930714298,22.0415506 4.06792032,24.8521075 C7.91332728,28.2926168 13.9268232,28.5954785 18.7475596,27.2750013 C22.8973688,26.154413 25.1089436,23.2227113 26.8670215,19.5883705 C28.9481384,15.2574477 31.7685176,10.9689255 30.8056128,5.95959243 Z M6.49692538,5.05100723 C8.9072936,3.8759037 11.8332818,3.60938537 14.4424432,2.99154743 C18.5922523,2.02238988 24.3013461,-0.46107635 27.9665967,2.88857444 C29.9110432,4.66940144 29.5445181,7.39515708 28.3082726,9.38798731 C27.500675,10.6842355 26.5874685,11.9199114 25.7425972,13.1919307 C23.978307,15.8631712 22.6799386,18.5344117 19.958956,20.4606123 C14.2001639,23.9192933 5.26689213,22.4837287 2.09862466,16.220548 C-0.131587143,11.7503088 2.23529502,7.14681046 6.49692538,5.05100723 Z M26.0532116,18.4374959 C24.5063517,21.7084027 22.8041844,24.6703904 19.1016601,25.9121235 C14.5107784,27.4627756 8.34818758,27.2023145 4.70157381,23.7739197 C2.96619302,22.0837024 1.82816215,19.8983961 1.45254659,17.534968 C5.27931671,23.7254618 14.4983538,25.1549692 20.5863972,21.484285 C24.04043,19.0613911 25.7550217,15.3907069 28.0411441,12.0047127 C28.6126747,11.1627571 29.19663,10.308687 29.6749762,9.4485596 C29.2525406,12.6164934 27.4385521,15.5118516 26.0532116,18.4374959 Z"/>
    </g>
  </g>
</svg>
