<?xml version="1.0" encoding="UTF-8"?>
<svg width="500px" height="500px" viewBox="0 0 500 500" version="1.1" xmlns="http://www.w3.org/2000/svg" xmlns:xlink="http://www.w3.org/1999/xlink">
     <style>
      @media (prefers-color-scheme: dark) {
      .makedark { fill: #324C5E }
      .makelight { fill: #A8DBFF }
      }
    </style>
    <title>favicon</title>
    <g id="favicon" stroke="none" stroke-width="1" fill="none" fill-rule="evenodd">
        <g id="Avocado" transform="translate(14.500000, 32.000000)" fill-rule="nonzero">
            <path d="M240.415219,80.7397063 C204.670964,68.8215376 165.297116,79.8412988 140.852217,108.604915 C115.780166,138.572155 113.66173,181.634309 135.670499,213.935406 C154.125391,246.761112 191.247297,264.275037 228.20117,257.5909 C269.479154,249.226248 299.484444,213.282939 300.467624,171.022984 C301.506647,131.20224 277.452936,95.039694 240.415219,80.7397063 L240.415219,80.7397063 Z" id="Path" fill="#EBE53F" opacity="0.5"></path>
            <path d="M402.532243,67.8713965 C334.207771,82.3654192 336.151964,176.483656 312.451334,225.81908 C288.750704,275.154503 239.497833,324.304106 179.135292,322.91045 C150.681571,321.668494 123.518463,310.64645 102.200826,291.692555 C82.7589034,274.039578 74.4266508,248.582128 55.3550504,231.486614 C49.5354742,226.088039 40.9376357,225.004811 33.9689353,228.792213 C-8.34039187,260.381749 7.12056576,321.702614 31.5618401,360.260431 C64.1560974,411.331752 119.333114,443.448431 179.690776,446.481284 C325.505196,455.772324 434.842867,338.798128 472.615745,212.254161 C486.687994,163.197469 486.132511,50.1255097 402.532243,67.8713965 Z" id="Path" fill="#31E085" opacity="0.5"></path>
            <path class="makelight" d="M235.633391,274.574005 C295.644537,265.312796 316.267562,197.891187 323.699283,145.657963 C331.874175,87.5901772 275.85758,75.7358285 228.48036,78.3289672 C216.589607,79.069864 216.49671,97.5922839 228.48036,96.8513871 C247.059662,95.6474298 273.349374,93.6099636 289.513367,104.723416 C312.923287,120.837921 305.305774,145.009679 300.010672,167.329195 C290.721021,206.967173 273.99965,252.25449 227.365602,256.422034 C143.758743,263.831002 72.9716022,161.587244 165.589423,113.984625 C176.272521,108.520512 166.889974,92.5912305 156.299772,98.0553444 C44.3594771,155.937906 129.359784,291.336795 235.633391,274.574005 Z" id="Path-dark" fill="#324C5E"></path>
            <path class="makelight" d="M196.503034,102.058874 C199.76395,100.439648 201.727914,97.0154275 201.478803,93.3834985 C201.229692,89.7515696 198.816585,86.6274984 195.365117,85.4685605 C191.913649,84.3096226 188.103832,85.3441531 185.712819,88.089578 C183.321805,90.8350028 182.820676,94.7504154 184.443191,98.0094057 C186.65674,102.455549 192.054263,104.267936 196.503034,102.058874 L196.503034,102.058874 Z" id="Path-dark" fill="#324C5E"></path>
            <path class="makelight" d="M460.596734,91.3094698 C460.436555,90.7621037 460.218845,90.2332539 459.947249,89.7317765 C459.229536,72.7669804 453.0455,56.489352 442.318375,43.3290321 C381.081236,-37.4117432 263.988403,16.0442184 186.235793,34.1412887 C130.565666,47.2268626 75.9161584,55.6721621 35.3697495,100.961241 C9.07306881,130.569928 -3.25874772,170.041074 1.50375577,209.358052 C1.53245431,209.666737 1.53245431,209.977421 1.50375577,210.286107 C-4.15604044,272.280173 14.4006684,337.708043 61.2563584,380.76979 C118.689372,433.483307 208.503843,438.123582 280.503874,417.891985 C342.483282,400.72297 375.514223,355.805113 401.771966,300.12182 C432.854454,233.765895 474.978183,168.059609 460.596734,91.3094698 Z M97.5347243,77.3886465 C133.53474,59.3843817 177.235789,55.3009402 216.204878,45.8347803 C278.184285,30.9859021 363.452363,-7.06434835 418.194654,44.257087 C447.235903,71.5419007 441.761674,113.304371 423.297749,143.837377 C411.235888,163.697751 397.596707,182.630071 384.978145,202.119224 C358.627618,243.046444 339.235858,283.973665 298.596665,313.48581 C212.586319,366.477744 79.1635825,344.482843 31.8439748,248.521968 C-1.46531765,180.031517 33.8852128,109.499346 97.5347243,77.3886465 Z M389.617322,282.488777 C366.51422,332.603741 341.091528,377.985625 285.792536,397.01075 C217.225497,420.768955 125.184221,416.778319 70.7202799,364.250413 C44.801528,338.353869 27.8044863,304.871855 22.1944862,268.660759 C79.3491496,363.507969 217.03993,385.410064 307.967803,329.169938 C359.555454,292.047742 385.163712,235.807616 419.308056,183.929348 C427.844142,171.029385 436.565796,157.943811 443.710129,144.765431 C437.400848,193.302702 410.308053,237.663726 389.617322,282.488777 Z" id="Shape-dark" fill="#324C5E"></path>
        </g>
    </g>
</svg>