<?xml version="1.0" encoding="UTF-8" standalone="no"?>
<!DOCTYPE svg PUBLIC "-//W3C//DTD SVG 1.1//EN" "http://www.w3.org/Graphics/SVG/1.1/DTD/svg11.dtd">
<svg width="100%" height="100%" viewBox="0 0 792 792" version="1.1" xmlns="http://www.w3.org/2000/svg" xmlns:xlink="http://www.w3.org/1999/xlink" xml:space="preserve" xmlns:serif="http://www.serif.com/" style="fill-rule:evenodd;clip-rule:evenodd;stroke-linejoin:round;stroke-miterlimit:2;">
    <g transform="matrix(1,0,0,1,-3083,-4566)">
        <g id="All" transform="matrix(1,0,0,1,944,494)">
            <rect x="-944" y="-494" width="12878" height="5605" style="fill:none;"/>
            <g id="Ring-AYCE" transform="matrix(0.665826,0,0,0.693836,-690.093,1168.3)">
                <rect x="4249" y="4185" width="1189" height="1141" style="fill:none;"/>
                <g transform="matrix(1,0,0,1,-31.2895,-30.0263)">
                    <g transform="matrix(1.50189,0,0,1.44126,-1023.15,-1378.37)">
                        <g transform="matrix(4.16667,0,0,4.16667,3647.88,4151.74)">
                            <path d="M0,96.994C37,133.996 96.989,133.995 133.987,96.993C133.987,96.993 74.324,129.403 20.958,76.035C-4.468,50.608 -4.469,9.384 20.956,-16.043L-0.002,-37.002C-37.001,0 -37,59.992 0,96.994" style="fill:rgb(215,25,32);fill-rule:nonzero;"/>
                        </g>
                        <g transform="matrix(4.16667,0,0,4.16667,3647.86,4401.69)">
                            <path d="M0,-96.989C-37,-59.99 -36.999,-0.001 0,36.999C0,36.999 -32.408,-22.666 20.958,-76.031C46.383,-101.456 87.605,-101.456 113.03,-76.03L133.988,-96.988C96.988,-133.988 37,-133.988 0,-96.989" style="fill:rgb(237,126,49);fill-rule:nonzero;"/>
                        </g>
                        <g transform="matrix(4.16667,0,0,4.16667,4206.14,4401.69)">
                            <path d="M0,-96.988C-37,-133.987 -96.988,-133.987 -133.988,-96.988C-133.988,-96.988 -74.324,-129.395 -20.958,-76.03C4.467,-50.605 4.467,-9.384 -20.958,16.041L0,36.999C36.999,-0 37,-59.989 0,-96.988" style="fill:rgb(37,189,190);fill-rule:nonzero;"/>
                        </g>
                        <g transform="matrix(4.16667,0,0,4.16667,4206.14,4151.74)">
                            <path d="M0,96.987C37,59.987 36.999,-0.001 0,-37C0,-37 32.408,22.664 -20.958,76.029C-46.383,101.454 -87.605,101.454 -113.03,76.029L-133.988,96.987C-96.988,133.987 -37,133.987 0,96.987" style="fill:rgb(163,207,98);fill-rule:nonzero;"/>
                        </g>
                        <g transform="matrix(2.94635,2.94621,2.94621,-2.94635,3753.27,4368.29)">
                            <path d="M13.949,-49.72C66.276,-49.722 108.695,-7.304 108.694,45.022C108.694,45.022 89.421,-20.083 13.949,-20.08L9.42,-40.597L13.949,-49.72Z" style="fill:rgb(215,25,32);fill-rule:nonzero;"/>
                        </g>
                        <g transform="matrix(-2.94628,-2.94628,-2.94628,2.94628,3655.73,4276.74)">
                            <path d="M-46.036,-111.141C-81.992,-111.141 -111.141,-81.992 -111.141,-46.036C-111.141,-10.08 -81.992,19.069 -46.036,19.069C-10.08,19.069 19.069,-10.08 19.069,-46.036C19.069,-81.992 -10.08,-111.141 -46.036,-111.141" style="fill:white;fill-rule:nonzero;"/>
                        </g>
                        <g transform="matrix(4.16667,0,0,4.16667,3723.78,4061.77)">
                            <path d="M0,22.036C2.255,20.868 15.014,12.616 14.898,12.732C15.15,12.732 21.089,3.515 21.561,1.766C21.568,1.762 21.574,1.759 21.581,1.755L20.168,0C10.877,5.078 3.075,12.549 -2.405,21.579L0,22.036Z" style="fill:rgb(209,211,212);fill-rule:nonzero;"/>
                        </g>
                        <g transform="matrix(4.16667,0,0,4.16667,3902.35,4128.92)">
                            <path d="M0,-2.629C-0.118,-2.845 0.882,-4.77 0.882,-4.896C0.756,-5.022 -0.478,-4.721 -1.148,-4.567C-1.675,-4.445 -2.005,-4.281 -1.817,-3.729C-1.629,-3.177 -0.912,-0.936 -1.133,-0.221C-1.355,0.493 -1.588,1.555 -1.714,1.429C-2.092,1.429 -2.311,1.92 -2.267,2.156C-2.223,2.393 2.042,1.87 2.394,0.132C1.89,0.006 0.118,-2.413 0,-2.629" style="fill:rgb(209,211,212);fill-rule:nonzero;"/>
                        </g>
                        <g transform="matrix(4.16667,0,0,4.16667,3828.88,4046.45)">
                            <path d="M0,11.245C0.882,11.119 13.223,6.963 13.475,6.837C13.601,6.711 19.938,3.118 20.945,1.858C21.071,1.732 20.905,0.918 20.527,0.667C19.508,0 12.467,0.918 11.208,1.17C11.46,1.422 -0.467,9.716 -0.504,10.112C-0.54,10.507 0,10.993 0,11.245" style="fill:rgb(209,211,212);fill-rule:nonzero;"/>
                        </g>
                        <g transform="matrix(4.16667,0,0,4.16667,3870.84,4196.16)">
                            <path d="M0,33.668C1.824,34.67 10.127,32.531 16.88,35.134C17.762,35.474 23.935,68.159 24.562,69.388C25.189,70.616 42.204,60.09 48.355,47.538C48.512,47.218 47.412,40.797 55.038,30.978C55.919,29.845 58.341,21.671 56.801,21.407C55.416,22.667 51.851,24.348 51.26,24.304C50.668,24.259 39.621,7.994 39.17,7.051C38.719,6.108 40.02,5.476 40.556,6.122C41.092,6.768 51.008,22.163 51.386,22.289C51.89,22.415 59.823,15.362 60.075,14.481C60.201,14.229 61.933,10.304 61.083,9.066C60.825,8.692 55.668,8.31 54.408,8.688C54.156,8.814 50.161,4.818 49.371,3.777C48.581,2.736 61.964,5.036 62.09,5.036C62.961,4.912 71.315,19.634 71.525,20.368L73.295,20.085C73.276,14.361 72.4,8.881 70.905,3.525C65.994,-13.476 53.527,-27.455 37.533,-34.507C35.431,-35.449 33.253,-36.262 31.017,-36.948L30.068,-34.5C30.384,-32.951 28.398,-30.102 27.962,-29.218C27.456,-28.19 24.058,-28.714 23.051,-28.966C21.54,-29.218 19.903,-29.47 18.643,-28.714C17.384,-27.959 13.631,-23.244 13.379,-22.488C13.002,-21.732 12.724,-21.224 13.48,-20.846C14.488,-20.343 15.495,-20.906 16.376,-21.662C16.628,-21.032 17.51,-18.513 18.014,-18.387C18.517,-18.387 18.931,-18.744 19.147,-19.143C20.184,-21.062 21.569,-21.989 25.696,-23.173C26.073,-22.921 20.649,-16.302 16.129,-17.036C15.5,-17.414 15.727,-17.79 15.873,-18.891C15.495,-19.143 15.117,-19.021 14.613,-18.895L14.613,-17.128C14.236,-16.624 12.611,-16.76 12.285,-16.182C11.958,-15.604 8.917,-13.095 5.294,-12.343C4.624,-12.204 6.176,-7.683 6.05,-7.809C4.287,-7.935 2.524,-8.061 0.761,-8.187C0.761,-6.424 -0.246,-2.142 -0.498,-1.89C0.131,-1.261 1.894,-0.757 2.146,-0.631C2.398,-0.505 5.546,-1.261 6.176,-1.639C6.302,-1.764 6.639,-1.612 6.68,-1.89C7.622,-8.273 15.747,-7.683 16.376,-7.054C17.132,-6.172 20.406,-4.283 20.784,-3.779C21.162,-3.276 21.162,-2.394 20.658,-2.016C20.658,-1.764 20.91,-1.764 21.036,-1.764C21.918,-2.016 22.295,-3.402 21.666,-4.031C21.945,-4.072 22.558,-3.828 22.732,-3.491C22.983,-3.365 23.177,-3.905 23.177,-4.157C21.792,-5.039 17.384,-8.187 17.762,-9.069C18.265,-9.32 18.886,-9.426 19.399,-9.194C24.369,-6.949 26.561,-0.609 27.836,-0.883C28.214,-1.513 31.306,-5.906 31.432,-6.032C31.054,-6.41 30.229,-6.537 30.194,-7.205C30.158,-7.874 32.877,-11.31 36.4,-10.328C36.526,-10.202 39.8,-8.691 41.437,-7.935C40.035,-4.827 36.526,-7.18 35.77,-7.054C34.637,-6.928 31.153,-3.177 30.523,-3.051C31.153,-2.548 32.37,-1.261 33,-1.009C33.503,-0.757 38.415,-1.764 39.044,-1.764C39.044,-0.505 38.918,3.525 38.289,4.028C38.037,4.154 16.754,2.517 16.754,2.391C16.628,1.888 17.722,0.24 17.05,-0.225C16.378,-0.69 4.495,0.24 2.398,0.376C-0.479,2.497 -3.616,5.724 -4.938,7.909C-8.802,14.296 -9.834,16.216 -9.858,21.167C-9.882,26.117 -1.262,32.975 0,33.668" style="fill:rgb(209,211,212);fill-rule:nonzero;"/>
                        </g>
                        <g transform="matrix(4.16667,0,0,4.16667,3740.89,4256.22)">
                            <path d="M0,42.424C-0.012,42.409 -0.025,42.395 -0.037,42.38C-0.163,41.624 3.741,27.142 2.481,25.127C2.104,24.371 -1.631,22.246 -3.311,20.845C-8.363,16.634 -11.91,1.449 -12.533,-1.37L-14.687,-1.529C-14.986,0.893 -15.149,3.357 -15.149,5.859C-15.149,20.323 -9.994,33.6 -1.424,43.953L0,42.424Z" style="fill:rgb(209,211,212);fill-rule:nonzero;"/>
                        </g>
                    </g>
                    <g transform="matrix(1.50189,0,0,1.44126,-4850.73,1958.49)">
                        <text x="6113.7px" y="2066px" style="font-family:'Gilroy-Heavy';font-size:300px;">A<tspan x="6284.7px 6465.9px 6675.3px " y="2066px 2066px 2066px ">YCE</tspan></text>
                    </g>
                </g>
            </g>
        </g>
    </g>
</svg>
