<svg xmlns="http://www.w3.org/2000/svg" width="3.08cm" height="3.04cm" viewBox="0 0 87.29 86.22">
  <defs>
    <style>
      .a {
        fill: #262c60;
      }

      .b {
        fill: #cfa300;
      }

      .c {
        fill: #ba1c18;
      }

      .d {
        fill: none;
      }
    </style>
  </defs>
  <title>FFFF Logo</title>
  <g>
    <polygon class="a" points="0.2 42.03 12.62 43.06 12.73 41.75 7.31 41.3 7.62 37.59 6.44 37.49 6.13 41.2 1.48 40.81 1.8 36.9 0.64 36.8 0.2 42.03"/>
    <path class="a" d="M4.25,35a2.87,2.87,0,0,1-1.78-1.4,3.15,3.15,0,0,1-.07-2.49,3.15,3.15,0,0,1,1.49-2A2.93,2.93,0,0,1,6.17,29l6.62,2.12a2.87,2.87,0,0,1,1.78,1.4,3.2,3.2,0,0,1,0,2.49,3.14,3.14,0,0,1-1.49,2,2.92,2.92,0,0,1-2.26.1Zm1.53-4.72a1.58,1.58,0,0,0-2.23,1.2,1.59,1.59,0,0,0,1.12,2.28l6.57,2.1a1.59,1.59,0,0,0,2.25-1.2,1.59,1.59,0,0,0-1.14-2.28Z" transform="translate(-0.29 -0.83)"/>
    <path class="a" d="M7.77,25.51a2.9,2.9,0,0,1-1.38-1.8,3.11,3.11,0,0,1,.55-2.42,3.1,3.1,0,0,1,1.93-1.56,3,3,0,0,1,2.23.45L17,23.86a2.9,2.9,0,0,1,1.38,1.8,3.19,3.19,0,0,1-.57,2.42,3.11,3.11,0,0,1-1.92,1.56,2.94,2.94,0,0,1-2.22-.45Zm2.65-4.2A1.58,1.58,0,0,0,8,21.92a1.58,1.58,0,0,0,.53,2.48l5.85,3.65a1.58,1.58,0,0,0,2.47-.61A1.59,1.59,0,0,0,16.27,25Z" transform="translate(-0.29 -0.83)"/>
    <path class="a" d="M11.73,15.07l2.36-2.26a3,3,0,0,1,2.15-1,2.72,2.72,0,0,1,2,.95l4.72,4.92a2.86,2.86,0,0,1,.91,2,3,3,0,0,1-1.08,2.09l-2.39,2.28Zm5.53-1.39a1.52,1.52,0,0,0-2.43,0L13.48,15l7,7.32L21.85,21a1.54,1.54,0,0,0,.09-2.45Z" transform="translate(-0.29 -0.83)"/>
    <polygon class="a" points="23.45 5 28.21 2.8 28.7 3.86 25.14 5.51 27.1 9.75 30.48 8.19 30.98 9.26 27.6 10.83 29.88 15.76 28.68 16.31 23.45 5"/>
    <path class="a" d="M32.45,5.21A3,3,0,0,1,32.79,3a3.15,3.15,0,0,1,2.13-1.29A3.15,3.15,0,0,1,37.38,2,2.91,2.91,0,0,1,38.6,3.91L40,10.71A2.93,2.93,0,0,1,39.7,13a3.2,3.2,0,0,1-2.14,1.28,3.14,3.14,0,0,1-2.46-.31A2.88,2.88,0,0,1,33.89,12Zm4.87-1a1.59,1.59,0,0,0-2.15-1.35A1.58,1.58,0,0,0,33.75,5l1.42,6.75a1.59,1.59,0,0,0,2.15,1.36,1.59,1.59,0,0,0,1.42-2.12Z" transform="translate(-0.29 -0.83)"/>
    <path class="a" d="M45.55,8.39l-1.84-.07-.19,5-1.31-.05L42.68.83l3,.11a3.09,3.09,0,0,1,2.21.84,2.74,2.74,0,0,1,.68,2.07l-.07,1.84a2.47,2.47,0,0,1-1.69,2.53l1.79,5.3-1.45-.06Zm-1.8-1.21,1.65.06a1.52,1.52,0,0,0,1.81-1.62l.06-1.76A1.51,1.51,0,0,0,45.6,2.11L44,2.05Z" transform="translate(-0.29 -0.83)"/>
    <polygon class="a" points="57.22 2.19 62.12 4.07 61.7 5.16 58.03 3.75 56.35 8.11 59.83 9.45 59.4 10.56 55.93 9.22 53.98 14.29 52.75 13.81 57.22 2.19"/>
    <path class="a" d="M69.76,9.36l1.09.74-5.44,8a2.9,2.9,0,0,1-1.84,1.31,3.14,3.14,0,0,1-2.39-.64,3.12,3.12,0,0,1-1.49-2,2.89,2.89,0,0,1,.53-2.2l5.44-8,1.09.74-5.42,8a1.59,1.59,0,0,0,.51,2.49,1.59,1.59,0,0,0,2.5-.46Z" transform="translate(-0.29 -0.83)"/>
    <polygon class="a" points="77.37 15.95 76.52 16.75 74.87 15 66.66 22.75 65.75 21.78 73.95 14.03 72.3 12.28 73.15 11.48 77.37 15.95"/>
    <path class="a" d="M82.27,23.8l.67,1.13-8.36,4.95a2.9,2.9,0,0,1-2.22.4,3.17,3.17,0,0,1-1.89-1.61,3.11,3.11,0,0,1-.5-2.43,2.92,2.92,0,0,1,1.42-1.76l8.36-4.94.67,1.13L72.09,25.6a1.59,1.59,0,0,0-.6,2.47,1.58,1.58,0,0,0,2.45.65Z" transform="translate(-0.29 -0.83)"/>
    <path class="a" d="M78.56,34.46l-.51-1.76-4.81,1.4-.37-1.27,12-3.47.85,2.9a3.07,3.07,0,0,1-.1,2.36,2.72,2.72,0,0,1-1.75,1.3l-1.77.52a2.46,2.46,0,0,1-2.93-.81L74.66,39l-.4-1.39Zm.59-2.08L79.61,34a1.51,1.51,0,0,0,2.1,1.21l1.7-.49a1.52,1.52,0,0,0,1.13-2.15L84.08,31Z" transform="translate(-0.29 -0.83)"/>
    <polygon class="a" points="86.91 38.85 87.19 44.24 86.03 44.3 85.81 40.23 81.39 40.46 81.58 44.01 80.41 44.08 80.22 40.52 75.71 40.76 75.92 44.83 74.76 44.9 74.47 39.51 86.91 38.85"/>
    <polygon class="b" points="15.67 49.37 21.32 49.37 21.32 51.53 18.18 51.53 18.18 54.35 21.07 54.35 21.07 56.55 18.18 56.55 18.18 60.79 15.67 60.79 15.67 49.37"/>
    <path class="b" d="M25.07,57.5v4.12H22.6V50.2h3.72a3.13,3.13,0,0,1,2.11.64,2.32,2.32,0,0,1,.76,1.88v2.11c0,1.32-.45,2.14-1.35,2.47l1.8,4.32H26.92L25.39,57.5Zm0-5.19v3.23h1a.69.69,0,0,0,.53-.17.85.85,0,0,0,.15-.57V52.93a.6.6,0,0,0-.16-.49.81.81,0,0,0-.52-.13Z" transform="translate(-0.29 -0.83)"/>
    <polygon class="b" points="30.25 49.37 36.03 49.37 36.03 51.51 32.72 51.51 32.72 53.93 35.59 53.93 35.59 56.08 32.72 56.08 32.72 58.65 36.03 58.65 36.03 60.79 30.25 60.79 30.25 49.37"/>
    <rect class="b" x="37.19" y="49.37" width="2.5" height="11.42"/>
    <path class="b" d="M48.17,52.82v1.07c0,1.07-.39,1.72-1.17,2,.85.2,1.27.86,1.27,2V59c0,1.74-.93,2.62-2.8,2.62h-4V50.2h3.9c1.87,0,2.8.87,2.8,2.62M45,52.28h-1v2.48h1c.51,0,.77-.23.77-.71V53c0-.47-.26-.7-.77-.7m.87,6.55V57.66c0-.47-.26-.71-.77-.71H43.94v2.59h1.12c.51,0,.77-.23.77-.71" transform="translate(-0.29 -0.83)"/>
    <path class="b" d="M53.87,50.2h2.47v8.63A2.8,2.8,0,0,1,55.48,61a3.62,3.62,0,0,1-2.56.8A3.66,3.66,0,0,1,50.37,61a2.77,2.77,0,0,1-.87-2.16V50.2H52v8.5c0,.55.31.83.94.83s.95-.28.95-.83Z" transform="translate(-0.29 -0.83)"/>
    <path class="b" d="M60.21,57.5v4.12H57.74V50.2h3.73a3.12,3.12,0,0,1,2.1.64,2.32,2.32,0,0,1,.76,1.88v2.11c0,1.32-.45,2.14-1.35,2.47l1.8,4.32H62.06L60.53,57.5Zm0-5.19v3.23h1a.67.67,0,0,0,.52-.17.85.85,0,0,0,.15-.57V52.93a.6.6,0,0,0-.16-.49.8.8,0,0,0-.51-.13Z" transform="translate(-0.29 -0.83)"/>
    <path class="b" d="M65.52,53a2.46,2.46,0,0,1,1-2.07,4.57,4.57,0,0,1,2.84-.76,7.4,7.4,0,0,1,2.32.31v2.34a5.56,5.56,0,0,0-2-.38,2.66,2.66,0,0,0-1.33.23.73.73,0,0,0-.35.63v5.42a.76.76,0,0,0,.25.6,1.1,1.1,0,0,0,.73.21,1.64,1.64,0,0,0,.75-.14V55.49h2.41V61a6.36,6.36,0,0,1-3,.69A4.2,4.2,0,0,1,66.43,61a2.44,2.44,0,0,1-.91-2Z" transform="translate(-0.29 -0.83)"/>
    <path class="b" d="M43.94,87C6.57,87,.48,51.29.42,50.93l-.13-.79H13.68v1.37H1.93c1.13,5.21,8.92,34.16,42,34.16s40.88-28.95,42-34.16H74.19V50.14H87.58l-.12.79C87.4,51.29,81.3,87,43.94,87Z" transform="translate(-0.29 -0.83)"/>
    <path class="c" d="M43.13,35.45A11.76,11.76,0,0,0,31.41,46.51H54.85A11.76,11.76,0,0,0,43.13,35.45" transform="translate(-0.29 -0.83)"/>
    <path class="c" d="M17.38,46.44H30.06a13.06,13.06,0,0,1,5.32-9.8,11.67,11.67,0,0,0-18,9.8" transform="translate(-0.29 -0.83)"/>
    <path class="c" d="M50.8,36.16A13.11,13.11,0,0,1,55,34a11.67,11.67,0,0,0-23.26-.3,12.81,12.81,0,0,1,4.4,1.81l.51.33a12.88,12.88,0,0,1,6.49-1.74,13,13,0,0,1,7.4,2.3Z" transform="translate(-0.29 -0.83)"/>
    <path class="c" d="M58.82,34.77a11.63,11.63,0,0,0-7.17,2.47,13.1,13.1,0,0,1,4.56,9.2H70.5A11.67,11.67,0,0,0,58.82,34.77" transform="translate(-0.29 -0.83)"/>
    <rect class="d" width="87.29" height="86.22"/>
  </g>
</svg>
