<svg width="611.2" height="87.503" viewBox="0 0 611.2 87.503" xmlns="http://www.w3.org/2000/svg">
					<g class="lines"><path class="my-path" d="M 16.7 86.701 L 0 86.701 L 8.3 0.801 L 37.4 0.801 L 45.6 86.701 L 29.3 86.701 L 28.1 72.801 L 17.7 72.801 L 16.7 86.701 Z M 22.2 15.401 L 19 59.101 L 26.8 59.101 L 23 15.401 L 22.2 15.401 Z" id="0" vector-effect="non-scaling-stroke"/><path class="my-path" d="M 85.7 86.701 L 50.8 86.701 L 50.8 0.801 L 68 0.801 L 68 72.101 L 85.7 72.101 L 85.7 86.701 Z" id="1" vector-effect="non-scaling-stroke"/><path class="my-path" d="M 125.4 86.701 L 90.5 86.701 L 90.5 0.801 L 107.7 0.801 L 107.7 72.101 L 125.4 72.101 L 125.4 86.701 Z" id="2" vector-effect="non-scaling-stroke"/><path class="my-path" d="M 180.2 86.701 L 164 86.701 L 164 58.401 L 150.3 0.801 L 167.3 0.801 L 172.1 29.901 L 176.9 0.801 L 193.9 0.801 L 180.2 58.401 L 180.2 86.701 Z" id="4" vector-effect="non-scaling-stroke"/><path class="my-path" d="M 197.5 63.301 L 197.5 22.401 A 36.403 36.403 0 0 1 198.014 16.069 Q 198.626 12.613 199.965 9.891 A 16.845 16.845 0 0 1 202.9 5.651 A 17.229 17.229 0 0 1 210.557 1.082 Q 213.252 0.271 216.485 0.068 A 35.398 35.398 0 0 1 218.7 0.001 A 30.545 30.545 0 0 1 224.849 0.581 Q 230.83 1.811 234.5 5.651 A 17.82 17.82 0 0 1 238.464 12.403 Q 239.395 15.175 239.723 18.556 A 39.939 39.939 0 0 1 239.9 22.401 L 239.9 63.301 A 39.982 39.982 0 0 1 239.332 70.266 Q 238.667 74.022 237.221 77.012 A 19.321 19.321 0 0 1 234.5 81.201 A 17.346 17.346 0 0 1 225.259 86.756 Q 222.275 87.501 218.7 87.501 Q 208.3 87.501 202.9 81.151 Q 198.344 75.793 197.632 66.769 A 44.117 44.117 0 0 1 197.5 63.301 Z M 222.6 64.101 L 222.6 22.101 Q 222.6 19.301 221.85 17.551 A 2.692 2.692 0 0 0 219.942 15.932 Q 219.429 15.801 218.8 15.801 A 3.616 3.616 0 0 0 215.353 17.801 Q 214.554 19.305 214.503 21.941 A 18.837 18.837 0 0 0 214.5 22.301 L 214.5 64.201 Q 214.5 67.503 215.217 69.371 A 6.144 6.144 0 0 0 215.4 69.801 A 3.103 3.103 0 0 0 217.593 71.582 A 4.841 4.841 0 0 0 218.7 71.701 Q 221 71.701 221.8 69.701 A 9.206 9.206 0 0 0 222.251 68.157 Q 222.578 66.586 222.599 64.404 A 31.489 31.489 0 0 0 222.6 64.101 Z" id="5" vector-effect="non-scaling-stroke"/><path class="my-path" d="M 245.8 63.701 L 245.8 0.801 L 262.5 0.801 L 262.5 63.001 A 33.988 33.988 0 0 0 262.578 65.384 Q 262.735 67.605 263.206 69.116 A 9.289 9.289 0 0 0 263.3 69.401 Q 263.952 71.276 265.801 71.622 A 4.882 4.882 0 0 0 266.7 71.701 A 4.558 4.558 0 0 0 268.018 71.523 Q 269.454 71.09 270.044 69.6 A 4.51 4.51 0 0 0 270.1 69.451 Q 270.823 67.418 270.893 63.795 A 41.198 41.198 0 0 0 270.9 63.001 L 270.9 0.801 L 287.6 0.801 L 287.6 63.701 Q 287.6 71.334 285.445 76.541 A 18.283 18.283 0 0 1 282.45 81.501 A 16.209 16.209 0 0 1 274.674 86.433 Q 272.047 87.234 268.875 87.434 A 34.54 34.54 0 0 1 266.7 87.501 Q 259.192 87.501 254.418 84.491 A 15.292 15.292 0 0 1 250.95 81.501 A 19.026 19.026 0 0 1 247.429 75.141 Q 245.8 70.338 245.8 63.701 Z" id="6" vector-effect="non-scaling-stroke"/><path class="my-path" d="M 316.9 65.401 L 316.9 25.801 A 51.475 51.475 0 0 1 317.349 18.756 Q 318.414 11.071 322 6.501 A 16.076 16.076 0 0 1 330.369 0.993 Q 333.11 0.187 336.434 0.036 A 34.488 34.488 0 0 1 338 0.001 A 28.227 28.227 0 0 1 344.605 0.732 A 19.671 19.671 0 0 1 353.3 5.201 A 16.787 16.787 0 0 1 358.383 13.879 Q 359.1 16.756 359.1 20.201 L 359.1 35.001 L 342 35.001 L 342 22.301 A 23.92 23.92 0 0 0 341.945 20.607 Q 341.829 18.992 341.475 17.99 A 3.806 3.806 0 0 0 341.1 17.201 Q 340.261 15.896 338.292 15.807 A 6.512 6.512 0 0 0 338 15.801 A 5.109 5.109 0 0 0 336.828 15.926 Q 336.071 16.104 335.545 16.539 A 2.818 2.818 0 0 0 334.85 17.401 A 5.939 5.939 0 0 0 334.37 18.662 Q 334.031 19.939 334.003 21.766 A 21.726 21.726 0 0 0 334 22.101 L 334 65.201 A 18.368 18.368 0 0 0 334.075 66.922 Q 334.236 68.624 334.742 69.687 A 4.159 4.159 0 0 0 335 70.151 A 3.22 3.22 0 0 0 337.335 71.654 A 4.555 4.555 0 0 0 338 71.701 A 3.326 3.326 0 0 0 341.179 69.757 Q 341.916 68.31 341.992 65.786 A 19.703 19.703 0 0 0 342 65.201 L 342 49.701 L 359.3 49.701 L 359.3 65.901 Q 359.3 87.501 337.6 87.501 A 24.248 24.248 0 0 1 330.891 86.618 A 18.35 18.35 0 0 1 322.55 81.601 A 19.591 19.591 0 0 1 317.711 72.575 Q 316.951 69.508 316.903 65.886 A 36.992 36.992 0 0 1 316.9 65.401 Z" id="8" vector-effect="non-scaling-stroke"/><path class="my-path" d="M 379.4 86.701 L 362.7 86.701 L 371 0.801 L 400.1 0.801 L 408.3 86.701 L 392 86.701 L 390.8 72.801 L 380.4 72.801 L 379.4 86.701 Z M 384.9 15.401 L 381.7 59.101 L 389.5 59.101 L 385.7 15.401 L 384.9 15.401 Z" id="9" vector-effect="non-scaling-stroke"/><path class="my-path" d="M 430.3 86.701 L 413.5 86.701 L 413.5 0.801 L 431.2 0.801 L 439.1 41.901 L 439.1 0.801 L 455.7 0.801 L 455.7 86.701 L 438.9 86.701 L 430.3 43.701 L 430.3 86.701 Z" id="10" vector-effect="non-scaling-stroke"/><path class="my-path" d="M 522.2 86.701 L 486.7 86.701 L 486.7 0.801 L 521.1 0.801 L 521.1 17.401 L 504.2 17.401 L 504.2 34.101 L 520.4 34.101 L 520.4 50.301 L 504.2 50.301 L 504.2 70.001 L 522.2 70.001 L 522.2 86.701 Z" id="12" vector-effect="non-scaling-stroke"/><path class="my-path" d="M 542.3 86.701 L 525.6 86.701 L 533.9 0.801 L 563 0.801 L 571.2 86.701 L 554.9 86.701 L 553.7 72.801 L 543.3 72.801 L 542.3 86.701 Z M 547.8 15.401 L 544.6 59.101 L 552.4 59.101 L 548.6 15.401 L 547.8 15.401 Z" id="13" vector-effect="non-scaling-stroke"/><path class="my-path" d="M 601 86.701 L 583.8 86.701 L 583.8 17.301 L 573.6 17.301 L 573.6 0.801 L 611.2 0.801 L 611.2 17.301 L 601 17.301 L 601 86.701 Z" id="14" vector-effect="non-scaling-stroke"/></g></svg>