<svg xmlns="http://www.w3.org/2000/svg" width="660" height="132" viewBox="0 0 660 132">
  <g id="Artboard" fill="none" fill-rule="evenodd" stroke="none" stroke-width="1">
    <g id="ALL_YOU_CAN_EAT" fill="#000" fill-rule="nonzero" transform="translate(24 22)">
      <path id="0" d="M16.7,86.701 L0,86.701 L8.3,0.801 L37.4,0.801 L45.6,86.701 L29.3,86.701 L28.1,72.801 L17.7,72.801 L16.7,86.701 Z M22.2,15.401 L19,59.101 L26.8,59.101 L23,15.401 L22.2,15.401 Z"/>
      <polygon id="1" points="85.7 86.701 50.8 86.701 50.8 .801 68 .801 68 72.101 85.7 72.101"/>
      <polygon id="2" points="125.4 86.701 90.5 86.701 90.5 .801 107.7 .801 107.7 72.101 125.4 72.101"/>
      <polygon id="4" points="180.2 86.701 164 86.701 164 58.401 150.3 .801 167.3 .801 172.1 29.901 176.9 .801 193.9 .801 180.2 58.401"/>
      <path id="5" d="M197.5,63.301 L197.5,22.401 C197.486484,20.2793876 197.658472,18.1606552 198.014,16.069 C198.422,13.765 199.072333,11.7056667 199.965,9.891 C200.719922,8.33540805 201.709852,6.90532168 202.9,5.651 C205.007184,3.48248492 207.647957,1.90671263 210.557,1.082 C212.353667,0.541333333 214.329667,0.203333333 216.485,0.068 C217.222453,0.0225556178 217.961148,0.000201981359 218.7,0.000201981359 C220.763999,-0.0139199788 222.824194,0.180406517 224.849,0.581 C228.836333,1.401 232.053333,3.091 234.5,5.651 C236.305548,7.57996753 237.65956,9.88629648 238.464,12.403 C239.084667,14.251 239.504333,16.302 239.723,18.556 C239.843761,19.8340771 239.90283,21.1172335 239.9,22.401 L239.9,63.301 C239.914311,65.6347946 239.724252,67.9653608 239.332,70.266 C238.888667,72.77 238.185,75.0186667 237.221,77.012 C236.499082,78.5201904 235.58444,79.9282887 234.5,81.201 C232.087979,83.9873137 228.851224,85.9330092 225.259,86.756 C223.269667,87.2526667 221.083333,87.501 218.7,87.501 C211.766667,87.501 206.5,85.3843333 202.9,81.151 C199.862667,77.579 198.106667,72.785 197.632,66.769 C197.54253,65.6151788 197.498496,64.4582839 197.5,63.301 L197.5,63.301 Z M222.600036,64.101 L222.600036,22.101 C222.600036,20.2343333 222.35,18.7176667 221.85,17.551 C221.518709,16.7305705 220.805416,16.1253178 219.942,15.932 C219.6,15.8446667 219.219333,15.801 218.8,15.801 C217.354161,15.7172236 215.997808,16.5041997 215.353,17.801 C214.820333,18.8036667 214.537,20.1836667 214.503,21.941 C214.500853,22.0609877 214.499853,22.1809932 214.499986,22.301 L214.499986,64.201 C214.499986,66.4023333 214.739,68.1256667 215.217,69.371 C215.272525,69.5166022 215.333569,69.6600392 215.4,69.801 C215.802689,70.7123041 216.618469,71.3748233 217.593,71.582 C217.956195,71.6641089 218.327651,71.7040396 218.7,71.7011613 C220.233333,71.7011613 221.266667,71.0343333 221.8,69.701 C221.995094,69.2004778 222.146003,68.6838396 222.251,68.157 C222.469,67.1096667 222.585,65.8586667 222.599,64.404 C222.599819,64.3030022 222.600153,64.202001 222.600036,64.101 Z"/>
      <path id="6" d="M245.8,63.701 L245.8,0.801 L262.5,0.801 L262.5,63.001 C262.498122,63.7960011 262.524138,64.5908234 262.578,65.384 C262.682667,66.8646667 262.892,68.1086667 263.206,69.116 C263.235797,69.2115 263.267134,69.3065124 263.3,69.401 C263.734667,70.651 264.568333,71.3913333 265.801,71.622 C266.097585,71.6760338 266.398537,71.7024801 266.7,71.701 C267.145673,71.7064264 267.589733,71.6464548 268.018,71.523 C268.975333,71.2343333 269.650667,70.5933333 270.044,69.6 C270.063542,69.5506666 270.082211,69.5009922 270.1,69.451 C270.582,68.0956667 270.846333,66.2103333 270.893,63.795 C270.897884,63.530362 270.900217,63.265683 270.9,63.001 L270.9,0.801 L287.6,0.801 L287.6,63.701 C287.6,68.7896667 286.881667,73.0696667 285.445,76.541 C284.716659,78.3430204 283.705633,80.0173747 282.45,81.501 C280.389294,83.8621584 277.688287,85.5752974 274.674,86.433 C272.922667,86.967 270.989667,87.3006667 268.875,87.434 C268.150884,87.4791711 267.425524,87.5010087 266.7,87.5010087 C261.694667,87.5010087 257.600667,86.4976667 254.418,84.491 C253.118487,83.6740374 251.949383,82.6660733 250.95,81.501 C249.378465,79.6270108 248.18298,77.4676007 247.429,75.141 C246.343,71.939 245.8,68.1256667 245.8,63.701 Z"/>
      <path id="8" d="M316.9,65.401 L316.9,25.801 C316.888275,23.4451588 317.038294,21.0912917 317.349,18.756 C318.059,13.6326667 319.609333,9.54766667 322,6.501 C324.131722,3.82039192 327.063832,1.89064361 330.369,0.993 C332.196333,0.455666667 334.218,0.136666667 336.434,0.036 C336.955668,0.0124790969 337.477802,0.000149970677 338,0.000149970677 C340.222769,-0.0162504984 342.439796,0.22911611 344.605,0.732 C347.833225,1.46623816 350.823917,3.00337499 353.3,5.201 C355.841376,7.50622869 357.61534,10.5348455 358.383,13.879 C358.861,15.797 359.1,17.9043333 359.1,20.201 L359.1,35.001 L342,35.001 L342,22.301 C342.001684,21.7358609 341.983339,21.1708396 341.945,20.607 C341.867667,19.5303333 341.711,18.658 341.475,17.99 C341.380697,17.7134787 341.254869,17.4487352 341.1,17.201 C340.540667,16.331 339.604667,15.8663333 338.292,15.807 C338.194724,15.8028173 338.097366,15.8008168 338,15.801 C337.605819,15.7973128 337.212536,15.8392585 336.828,15.926 C336.323333,16.0446667 335.895667,16.249 335.545,16.539 C335.258606,16.7775434 335.02238,17.0705318 334.85,17.401 C334.642617,17.8017346 334.481578,18.2247974 334.37,18.662 C334.144,19.5133333 334.021667,20.548 334.003,21.766 C334.001139,21.8776573 334.000139,21.9893273 334,22.101 L334,65.201 C333.998071,65.7755239 334.023098,66.349822 334.075,66.922 C334.182333,68.0566667 334.404667,68.9783333 334.742,69.687 C334.81803,69.8470035 334.904206,70.0019858 335,70.151 C335.511211,70.9791174 336.369529,71.5316025 337.335,71.654 C337.555221,71.6858887 337.777483,71.7015974 338,71.701 C339.357265,71.7631445 340.615868,70.9934919 341.179,69.757 C341.670333,68.7923333 341.941333,67.4686667 341.992,65.786 C341.997562,65.5910503 342.000229,65.3960288 342,65.201 L342,49.701 L359.3,49.701 L359.3,65.901 C359.3,80.301 352.066667,87.501 337.6,87.501 C335.333388,87.5216926 333.075069,87.2244657 330.891,86.618 C327.709736,85.7270026 324.828018,83.9936876 322.55,81.601 C320.165222,79.0746151 318.495157,75.9595064 317.711,72.575 C317.204333,70.5303333 316.935,68.3006667 316.903,65.886 C316.90094,65.7243416 316.89994,65.5626715 316.9,65.401 L316.9,65.401 Z"/>
      <path id="9" d="M379.4,86.701 L362.7,86.701 L371,0.801 L400.1,0.801 L408.3,86.701 L392,86.701 L390.8,72.801 L380.4,72.801 L379.4,86.701 Z M384.9,15.401 L381.7,59.101 L389.5,59.101 L385.7,15.401 L384.9,15.401 Z"/>
      <polygon id="10" points="430.3 86.701 413.5 86.701 413.5 .801 431.2 .801 439.1 41.901 439.1 .801 455.7 .801 455.7 86.701 438.9 86.701 430.3 43.701"/>
      <polygon id="12" points="522.2 86.701 486.7 86.701 486.7 .801 521.1 .801 521.1 17.401 504.2 17.401 504.2 34.101 520.4 34.101 520.4 50.301 504.2 50.301 504.2 70.001 522.2 70.001"/>
      <path id="13" d="M542.3,86.701 L525.6,86.701 L533.9,0.801 L563,0.801 L571.2,86.701 L554.9,86.701 L553.7,72.801 L543.3,72.801 L542.3,86.701 Z M547.8,15.401 L544.6,59.101 L552.4,59.101 L548.6,15.401 L547.8,15.401 Z"/>
      <polygon id="14" points="601 86.701 583.8 86.701 583.8 17.301 573.6 17.301 573.6 .801 611.2 .801 611.2 17.301 601 17.301"/>
    </g>
  </g>
</svg>
